<svg width="18" height="18" viewBox="0 0 18 18" fill="none" xmlns="http://www.w3.org/2000/svg">
<g clip-path="url(#clip0_8201_9733)">
<path d="M5.08681 17.107C6.27003 17.6791 7.59743 18 8.99984 18C10.4023 18 11.7297 17.6791 12.9129 17.107L13.6955 9L12.9129 0.893039C11.7297 0.320906 10.4023 0 8.99984 0C7.59743 0 6.27003 0.320906 5.08681 0.893039L4.3042 9L5.08681 17.107Z" fill="#FFDA44"/>
<path d="M12.9131 17.1066C15.9236 15.6509 18.0001 12.5681 18.0001 8.99995C18.0001 5.43184 15.9236 2.34899 12.9131 0.893311V17.1066Z" fill="#D80027"/>
<path d="M5.08697 17.1066V0.893311C2.0765 2.34899 0 5.43181 0 8.99995C0 12.5681 2.0765 15.6509 5.08697 17.1066Z" fill="#0052B4"/>
<path d="M9 12.1304C9 10.6942 9 9 9 9H11.3478V10.1739C11.3478 10.3778 10.9566 11.1251 9.9907 11.7391C9.6249 11.9717 9.24623 12.0465 9 12.1304Z" fill="#D80027"/>
<path d="M6.65234 6.6521H9.00018V8.99994H6.65234V6.6521Z" fill="#D80027"/>
<path d="M10.1739 5.86953C10.1739 5.43728 9.82355 5.08691 9.39134 5.08691C9.2486 5.08691 9.11522 5.12573 9.00005 5.19245C8.88484 5.12573 8.75149 5.08691 8.60876 5.08691C8.17655 5.08691 7.82614 5.43728 7.82614 5.86953H5.86963V9.78252C5.86963 11.2393 7.02648 12.0817 7.93369 12.5184C7.8658 12.6344 7.82614 12.7689 7.82614 12.913C7.82614 13.3453 8.17655 13.6956 8.60876 13.6956C8.75149 13.6956 8.88488 13.6568 9.00005 13.5901C9.11525 13.6568 9.2486 13.6956 9.39134 13.6956C9.82355 13.6956 10.1739 13.3453 10.1739 12.913C10.1739 12.7689 10.1343 12.6344 10.0664 12.5184C10.9736 12.0817 12.1305 11.2393 12.1305 9.78252V5.86953H10.1739ZM10.9566 9.78252C10.9566 9.98647 10.9566 10.607 9.99075 11.221C9.62491 11.4536 9.24628 11.6045 9.00005 11.6883C8.75381 11.6045 8.37518 11.4536 8.00934 11.221C7.04353 10.607 7.04353 9.98647 7.04353 9.78252V7.04343H10.9566V9.78252Z" fill="#FF9811"/>
</g>
<defs>
<clipPath id="clip0_8201_9733">
<rect width="18" height="18" fill="white"/>
</clipPath>
</defs>
</svg>
