<svg width="18" height="18" viewBox="0 0 18 18" fill="none" xmlns="http://www.w3.org/2000/svg">
<g clip-path="url(#clip0_14_1187)">
<path fill-rule="evenodd" clip-rule="evenodd" d="M0 0H18V18H0V0Z" fill="black"/>
<path fill-rule="evenodd" clip-rule="evenodd" d="M11.9988 0H18V18H11.9988V0Z" fill="#009900"/>
<path fill-rule="evenodd" clip-rule="evenodd" d="M6.00122 0H11.9989V18H6.00122V0Z" fill="#BF0000"/>
<path fill-rule="evenodd" clip-rule="evenodd" d="M9.58103 9.76825H9.82792C9.82792 9.86344 9.88741 9.96457 9.96178 10.0211H9.48584C9.5602 9.95565 9.58103 9.87236 9.58103 9.76825Z" fill="white" stroke="#BD6B00" stroke-width="0.0264409"/>
<path fill-rule="evenodd" clip-rule="evenodd" d="M8.0105 8.36124L8.14733 8.50997L9.84285 8.51592L9.97969 8.36719L9.54539 8.35826L9.33717 8.20953H8.65301L8.45669 8.36124H8.0105Z" fill="white"/>
<path fill-rule="evenodd" clip-rule="evenodd" d="M8.70373 8.18872H9.28973C9.36706 8.14708 9.39384 8.01322 9.39384 7.93886C9.39384 7.71873 9.23618 7.61165 9.0815 7.6057C9.05771 7.6057 9.03093 7.58785 9.02498 7.56703C9.01011 7.51944 9.01309 7.48671 8.99524 7.48969C8.98334 7.48969 8.98632 7.51944 8.97442 7.56108C8.96549 7.58488 8.9417 7.6057 8.91492 7.60867C8.72455 7.6176 8.59962 7.7574 8.60259 7.93886C8.60557 8.05784 8.62044 8.12923 8.70373 8.18872Z" fill="white" stroke="#BD6B00" stroke-width="0.0264409"/>
<path fill-rule="evenodd" clip-rule="evenodd" d="M7.74272 10.2739H10.2503L10.0272 10.0925H7.96284L7.73975 10.2739H7.74272Z" fill="white"/>
<path fill-rule="evenodd" clip-rule="evenodd" d="M8.89411 9.58677L8.93873 9.7236H9.04284L8.95955 9.58677H8.89411ZM8.83462 9.7236L8.86436 9.86043H8.98335L8.93873 9.7236H8.83462ZM9.04284 9.7236L9.12613 9.86043H9.30163L9.1648 9.7236H9.04284ZM8.0166 10.033C8.10881 9.9467 8.16831 9.87531 8.16831 9.77119H8.39438C8.39438 9.83069 8.4152 9.86341 8.44792 9.86043H8.67696V9.72658H8.51039V8.99185C8.50444 8.73008 8.82569 8.58135 8.95658 8.58135H8.17426V8.55756H9.81921V8.58135H9.03094C9.26594 8.58135 9.49201 8.80445 9.49498 8.99185V9.20007H9.46523L9.46226 8.99482C9.46226 8.78958 9.20347 8.5992 8.99525 8.60515C8.81677 8.60812 8.53716 8.78065 8.54013 8.99185V9.05729L8.9655 9.06026L8.96253 9.13463L9.02797 9.17627L9.16182 9.21792V9.33095L9.25701 9.35772V9.46779L9.37005 9.51835V9.63139L9.44441 9.67601L9.44144 9.79202L9.5396 9.86043H9.30758L9.45334 10.024H9.23619L9.1291 9.86043H8.9893L9.05176 10.0211H8.90303L8.86436 9.86043H8.67994V10.033H8.01958H8.0166ZM8.67696 9.58677V9.7236H8.83462L8.80487 9.58677H8.67399H8.67696Z" fill="white"/>
<path d="M8.93873 9.7236L8.89411 9.58677H8.95955L9.04284 9.7236M8.93873 9.7236H9.04284M8.93873 9.7236L8.98335 9.86043H8.86436M8.93873 9.7236H8.83462M9.04284 9.7236L9.12613 9.86043H9.30163L9.1648 9.7236H9.04284ZM8.83462 9.7236L8.86436 9.86043M8.83462 9.7236H8.67696V9.58677H8.67399H8.80487L8.83462 9.7236ZM8.86436 9.86043L8.90303 10.0211H9.05176L8.9893 9.86043H9.1291L9.23619 10.024H9.45334L9.30758 9.86043H9.5396L9.44144 9.79202L9.44441 9.67601L9.37005 9.63139V9.51835L9.25701 9.46779V9.35772L9.16182 9.33095V9.21792L9.02797 9.17627L8.96253 9.13463L8.9655 9.06026L8.54013 9.05729V8.99185C8.53716 8.78065 8.81677 8.60812 8.99525 8.60515C9.20347 8.5992 9.46226 8.78958 9.46226 8.99482L9.46523 9.20007H9.49498V8.99185C9.49201 8.80445 9.26594 8.58135 9.03094 8.58135H9.81921V8.55756H8.17426V8.58135H8.95658C8.82569 8.58135 8.50444 8.73008 8.51039 8.99185V9.72658H8.67696V9.86043H8.44792C8.4152 9.86341 8.39438 9.83069 8.39438 9.77119H8.16831C8.16831 9.87531 8.10881 9.9467 8.0166 10.033H8.01958H8.67994V9.86043H8.86436Z" stroke="#BD6B00" stroke-width="0.0264409"/>
<path fill-rule="evenodd" clip-rule="evenodd" d="M8.68579 9.34882H8.78395V9.57489H8.68579V9.34882Z" stroke="#BD6B00" stroke-width="0.0264409"/>
<path fill-rule="evenodd" clip-rule="evenodd" d="M8.5459 9.58978H8.64109V9.4232C8.64109 9.35181 8.70653 9.27745 8.73627 9.27447C8.77197 9.27447 8.82254 9.34289 8.82551 9.41725V9.58978H8.92665V9.16144H8.5459V9.58978ZM9.3074 9.68794H9.42638V9.78313H9.3074V9.68794ZM9.23601 9.53029H9.35499V9.6225H9.23601V9.53029ZM9.12 9.36966H9.23898V9.46187H9.12V9.36966ZM9.02184 9.2358H9.14082V9.32802H9.02184V9.2358Z" stroke="#BD6B00" stroke-width="0.0264409"/>
<path fill-rule="evenodd" clip-rule="evenodd" d="M8.94165 9.58974L9.06658 9.59569L9.28373 9.78606V9.67303L9.20936 9.61948V9.53024L9.10228 9.47075V9.37259L8.99817 9.33689V9.20899L8.9476 9.16437L8.94463 9.59271L8.94165 9.58974Z" stroke="#BD6B00" stroke-width="0.0264409"/>
<path fill-rule="evenodd" clip-rule="evenodd" d="M9.45923 9.30719H9.48897V9.51839H9.45923V9.30719Z" fill="white" stroke="#BD6B00" stroke-width="0.0264409"/>
<path fill-rule="evenodd" clip-rule="evenodd" d="M7.73098 8.59922C7.69528 8.53973 7.65067 8.68251 7.49896 8.78662C7.43055 8.83421 7.37998 8.96212 7.37998 9.04541C7.37998 9.1049 7.38593 9.16142 7.37998 9.21794C7.377 9.25066 7.33833 9.33097 7.3651 9.35179C7.43055 9.39939 7.51681 9.51242 7.55548 9.55109C7.59117 9.58084 7.62092 9.39344 7.64472 9.31312C7.67446 9.22388 7.66256 9.11382 7.7399 9.03351C7.79345 8.97402 7.93028 8.92047 7.91838 8.89668L7.73098 8.59922Z" fill="white" stroke="#BD6B00" stroke-width="0.0264409"/>
<path fill-rule="evenodd" clip-rule="evenodd" d="M7.72192 9.05726C7.71011 9.0292 7.69406 9.00311 7.67433 8.97992C7.65536 8.95641 7.63082 8.93801 7.60294 8.92638C7.57553 8.91825 7.55086 8.90283 7.53155 8.88176C7.52017 8.869 7.51201 8.8537 7.50775 8.83714C7.50436 8.81745 7.50436 8.79734 7.50775 8.77765L7.49883 8.78657C7.43041 8.83417 7.37984 8.96207 7.37984 9.04536C7.37892 9.06816 7.37892 9.09098 7.37984 9.11378C7.38579 9.12865 7.38876 9.14353 7.39769 9.15245L7.43041 9.17625L7.51072 9.19707C7.54079 9.21059 7.56728 9.23096 7.58806 9.25656C7.60971 9.27949 7.62777 9.30556 7.64161 9.3339L7.64756 9.3101C7.67135 9.22979 7.66838 9.1346 7.7249 9.05726H7.72192Z" fill="#BF0000" stroke="#BD6B00" stroke-width="0.0264409"/>
<path d="M7.50788 8.77472C7.49301 8.87288 7.54953 8.90858 7.60307 8.92642C7.65661 8.94725 7.70123 9.00376 7.72205 9.05731M7.37402 9.10193C7.39782 9.19116 7.45731 9.17927 7.51086 9.19711C7.5644 9.21794 7.62092 9.28635 7.64471 9.33989" stroke="#BD6B00" stroke-width="0.0264409"/>
<path fill-rule="evenodd" clip-rule="evenodd" d="M7.68042 8.5397L7.71017 8.52185L8.23667 9.41126L8.20692 9.42911L7.68042 8.53672V8.5397Z" fill="white" stroke="#BD6B00" stroke-width="0.0264409"/>
<path fill-rule="evenodd" clip-rule="evenodd" d="M7.7369 8.50402C7.7369 8.5198 7.73064 8.53493 7.71948 8.54608C7.70832 8.55724 7.69319 8.56351 7.67741 8.56351C7.66163 8.56351 7.6465 8.55724 7.63534 8.54608C7.62419 8.53493 7.61792 8.5198 7.61792 8.50402C7.61792 8.48824 7.62419 8.47311 7.63534 8.46195C7.6465 8.45079 7.66163 8.44453 7.67741 8.44453C7.69319 8.44453 7.70832 8.45079 7.71948 8.46195C7.73064 8.47311 7.7369 8.48824 7.7369 8.50402ZM8.18904 7.79011H8.40322V7.83771H8.18904V7.79011ZM8.18904 7.88232H8.40322V8.29282H8.18904V7.88232ZM8.17715 7.73359H8.41511C8.42106 7.65328 8.34075 7.56702 8.29613 7.56702C8.24854 7.56999 8.17417 7.65625 8.17715 7.73359Z" fill="white" stroke="#BD6B00" stroke-width="0.0264409"/>
<path fill-rule="evenodd" clip-rule="evenodd" d="M8.78105 7.68599C8.73643 7.70384 8.70074 7.75441 8.67992 7.8139C8.65909 7.87339 8.65017 7.94181 8.66207 7.99535C8.66207 8.01617 8.67099 8.02807 8.67694 8.03997C8.68289 8.04889 8.68884 8.05484 8.69479 8.05484C8.70371 8.05484 8.71264 8.05484 8.71561 8.04592L8.72156 8.02212C8.71859 7.96263 8.71858 7.90909 8.73048 7.86149C8.74372 7.80864 8.77536 7.76224 8.81972 7.73061C8.82865 7.72466 8.83162 7.71574 8.83459 7.70979C8.83448 7.70194 8.83128 7.69446 8.82567 7.68897C8.81377 7.68004 8.79592 7.67707 8.78105 7.68599ZM8.787 7.69789C8.7989 7.69194 8.8108 7.69789 8.81675 7.70086L8.81972 7.70681C8.81972 7.70979 8.81972 7.71276 8.8108 7.71871C8.7651 7.75223 8.73249 7.80061 8.71858 7.85554C8.70624 7.91017 8.70323 7.96649 8.70966 8.02212C8.70966 8.02856 8.70757 8.03482 8.70371 8.03997C8.70371 8.03997 8.70371 8.04294 8.69776 8.03997C8.69776 8.03997 8.69181 8.03997 8.68586 8.03105C8.67998 8.01987 8.67596 8.00782 8.67397 7.99535C8.66504 7.94181 8.67397 7.87637 8.69479 7.81687C8.71561 7.76333 8.74833 7.71574 8.78403 7.69789H8.787Z" fill="#BD6B00"/>
<path fill-rule="evenodd" clip-rule="evenodd" d="M8.85826 7.74254C8.81364 7.76336 8.7839 7.81095 8.76902 7.86747C8.75323 7.92461 8.75018 7.98452 8.7601 8.04297C8.76605 8.08164 8.78985 8.10246 8.80769 8.10246C8.81662 8.10544 8.82554 8.10246 8.83149 8.09354C8.83744 8.08462 8.84041 8.07569 8.83744 8.06379C8.82554 8.0162 8.82257 7.96266 8.82852 7.91209C8.83744 7.86152 8.85826 7.8169 8.89396 7.79013C8.90288 7.78121 8.90883 7.77526 8.90883 7.76633C8.9091 7.76311 8.90872 7.75987 8.90769 7.7568C8.90667 7.75373 8.90503 7.7509 8.90288 7.74849C8.89098 7.73956 8.87313 7.73659 8.85826 7.74254ZM8.86421 7.75741C8.87611 7.75146 8.88801 7.75443 8.89396 7.75741L8.89693 7.76633L8.88801 7.77823C8.86804 7.79424 8.85144 7.81405 8.83919 7.83652C8.82694 7.85898 8.81926 7.88366 8.81662 7.90911C8.80769 7.96266 8.81364 8.01917 8.82257 8.06379C8.82554 8.07569 8.82257 8.08164 8.82257 8.08759L8.80769 8.09056C8.79877 8.09056 8.77795 8.07569 8.772 8.04C8.76307 7.98943 8.76605 7.92399 8.78092 7.87044C8.79579 7.8169 8.82554 7.77228 8.86421 7.75741Z" fill="#BD6B00"/>
<path fill-rule="evenodd" clip-rule="evenodd" d="M8.17718 8.62598H8.41515V8.95318H8.17718V8.62598ZM8.19205 9.14356H8.4211V9.21495H8.19205V9.14356ZM8.18611 9.26552H8.42407V9.52431H8.18611V9.26552ZM8.16826 9.57785H8.42705V9.72361H8.16826V9.57785ZM8.20098 9.08407H8.4092L8.45085 9.01268H8.16528L8.20098 9.08407ZM8.48059 8.82825L8.48357 8.64977H8.62635C8.56497 8.69756 8.51515 8.75856 8.48059 8.82825Z" fill="white" stroke="#BD6B00" stroke-width="0.0264409"/>
<path fill-rule="evenodd" clip-rule="evenodd" d="M8.21582 8.90262C8.21582 8.94129 8.26044 8.92642 8.26044 8.90559V8.73902C8.26044 8.70927 8.33183 8.71522 8.33183 8.73604V8.91452C8.33183 8.94426 8.3824 8.94129 8.37942 8.91452V8.7063C8.37942 8.64086 8.21582 8.64383 8.21582 8.70332V8.90262ZM8.21582 9.29824H8.38537V9.50647H8.21582V9.29824Z" stroke="#BD6B00" stroke-width="0.0264409"/>
<path fill-rule="evenodd" clip-rule="evenodd" d="M8.32296 9.38747H8.38245V9.41722H8.32296V9.38747ZM8.21884 9.38747H8.27834V9.41722H8.21884V9.38747ZM8.27834 9.29823H8.32296V9.38747H8.27834V9.29823ZM8.27834 9.41722H8.32296V9.50943H8.27834V9.41722ZM7.33539 7.18626C7.34728 7.34987 7.29374 7.44208 7.20748 7.42721C7.18368 7.33797 7.23722 7.2755 7.33539 7.18626ZM7.14204 7.55214C7.0647 7.51347 7.12121 7.21006 7.15096 7.08215C7.17178 7.24576 7.21045 7.47778 7.14204 7.55214Z" fill="white"/>
<path d="M8.32296 9.38747H8.38245V9.41722H8.32296M8.32296 9.38747V9.41722M8.32296 9.38747V9.29823H8.27834V9.38747M8.32296 9.38747H8.27834M8.32296 9.41722H8.27834M8.32296 9.41722V9.50943H8.27834V9.41722M8.27834 9.38747H8.21884V9.41722H8.27834M8.27834 9.38747V9.41722M7.33539 7.18626C7.34728 7.34987 7.29374 7.44208 7.20748 7.42721C7.18368 7.33797 7.23722 7.2755 7.33539 7.18626ZM7.14204 7.55214C7.0647 7.51347 7.12121 7.21006 7.15096 7.08215C7.17178 7.24576 7.21045 7.47778 7.14204 7.55214Z" stroke="#BD6B00" stroke-width="0.0264409"/>
<path fill-rule="evenodd" clip-rule="evenodd" d="M7.16866 7.56703C7.29954 7.61165 7.40662 7.47184 7.43935 7.30824C7.33226 7.45697 7.15676 7.45697 7.17163 7.56703H7.16866ZM7.07049 7.71873C6.96936 7.69196 7.02885 7.37071 7.04967 7.2428C7.07049 7.37666 7.14188 7.67412 7.07049 7.71873ZM7.10619 7.70981C7.11214 7.59975 7.2222 7.6295 7.29954 7.57C7.28467 7.6295 7.24005 7.72468 7.10619 7.70981ZM6.98126 7.85854C6.88012 7.8288 6.93961 7.48374 6.93366 7.34096C6.96341 7.46589 7.0586 7.82582 6.98126 7.85854ZM7.02885 7.84367C7.11214 7.87044 7.2222 7.81392 7.23112 7.71576C7.15676 7.76633 7.04372 7.72766 7.02885 7.84367Z" fill="white" stroke="#BD6B00" stroke-width="0.0264409"/>
<path fill-rule="evenodd" clip-rule="evenodd" d="M6.90392 8.01021C6.80873 8.01914 6.85038 7.72465 6.85038 7.45099C6.88607 7.7068 6.98424 7.9418 6.90392 8.01021Z" fill="white" stroke="#BD6B00" stroke-width="0.0264409"/>
<path fill-rule="evenodd" clip-rule="evenodd" d="M6.9397 7.99831C7.00514 8.02806 7.12115 7.97749 7.15387 7.86743C7.03488 7.918 6.95754 7.86743 6.9397 7.99831ZM7.7012 7.33795C7.68335 7.48371 7.62386 7.567 7.53759 7.55212C7.5138 7.46288 7.58519 7.40339 7.7012 7.33795ZM7.46918 7.7068C7.61493 7.72762 7.6655 7.61756 7.76664 7.47181C7.62683 7.57295 7.46323 7.59079 7.46918 7.70978V7.7068Z" fill="white" stroke="#BD6B00" stroke-width="0.0264409"/>
<path fill-rule="evenodd" clip-rule="evenodd" d="M7.42457 7.69194C7.34723 7.59675 7.42457 7.47479 7.48406 7.37366C7.47216 7.52536 7.52273 7.61163 7.42457 7.69194ZM7.39482 7.84959C7.38292 7.75441 7.54355 7.73358 7.61494 7.68302C7.58817 7.73656 7.55545 7.88231 7.39185 7.84959H7.39482Z" fill="white" stroke="#BD6B00" stroke-width="0.0264409"/>
<path fill-rule="evenodd" clip-rule="evenodd" d="M7.3591 7.84963C7.24904 7.83773 7.29366 7.65033 7.37397 7.54919C7.34125 7.69198 7.43347 7.79014 7.3591 7.84963Z" fill="white" stroke="#BD6B00" stroke-width="0.0264409"/>
<path fill-rule="evenodd" clip-rule="evenodd" d="M7.27581 8.00725C7.15088 7.94776 7.23119 7.79308 7.27581 7.70087C7.25796 7.82283 7.3591 7.91504 7.27581 8.00428V8.00725Z" fill="white" stroke="#BD6B00" stroke-width="0.0264409"/>
<path fill-rule="evenodd" clip-rule="evenodd" d="M7.29966 7.9894C7.3651 8.07863 7.49301 7.9656 7.51978 7.83472C7.40972 7.92693 7.32643 7.91206 7.29966 7.99237V7.9894ZM7.0141 8.59324C7.0022 8.46533 7.09739 8.23629 7.02897 8.11136C7.02005 8.09351 7.04979 8.04889 7.07062 8.07566C7.10036 8.12028 7.13011 8.24521 7.14498 8.19762C7.15688 8.14705 7.15986 8.06079 7.20447 8.04294C7.23422 8.03402 7.27289 8.02509 7.26099 8.07269C7.24909 8.11433 7.2253 8.17382 7.25207 8.1768C7.26694 8.1768 7.31156 8.1173 7.35023 8.08756C7.37998 8.06376 7.42757 8.10541 7.37998 8.1411C7.23719 8.26009 7.09739 8.3166 7.0141 8.59324ZM6.75531 10.5119C6.73746 10.5119 6.71664 10.5029 6.73746 10.5297C6.90701 10.7379 6.95461 10.7974 7.2015 10.7677C7.44839 10.735 7.50788 10.6665 7.68339 10.5684C7.73419 10.5416 7.7898 10.5253 7.84698 10.5201C7.90417 10.515 7.9618 10.5213 8.01654 10.5386C8.06414 10.5535 8.09388 10.5535 8.05819 10.5178C8.02249 10.4851 7.98382 10.4375 7.9392 10.4048C7.82823 10.3306 7.69299 10.3018 7.56143 10.3245C7.38295 10.3542 7.23125 10.4702 7.04979 10.5148C6.95261 10.5345 6.85249 10.5345 6.75531 10.5148V10.5119ZM8.17717 10.8837C8.20692 10.8896 8.22774 10.9491 8.24559 10.9105C8.26938 10.842 8.25154 10.7915 8.22179 10.7944C8.18609 10.8034 8.12958 10.8837 8.17717 10.8837Z" fill="white" stroke="#BD6B00" stroke-width="0.0264409"/>
<path fill-rule="evenodd" clip-rule="evenodd" d="M6.63915 8.49509C6.60346 8.45345 6.61238 8.44155 6.6689 8.43858C6.71054 8.43858 6.79383 8.46832 6.82655 8.44155C6.8563 8.42073 6.84142 8.33149 6.8563 8.29282C6.86225 8.26605 6.87712 8.23333 6.91579 8.28687C7.02287 8.4594 7.15376 8.66762 7.21325 8.86989C7.24299 8.98293 7.21325 9.16141 7.11211 9.28039C7.11211 9.17925 7.07642 9.11084 7.0318 9.02457C6.97231 8.91451 6.76111 8.60813 6.63915 8.49212V8.49509Z" fill="white"/>
<path fill-rule="evenodd" clip-rule="evenodd" d="M7.08241 9.39936C7.20139 9.39936 7.22221 9.2417 7.22221 9.19708C7.16272 9.20898 7.06159 9.30714 7.08241 9.39936ZM8.10865 10.9432C8.19194 10.961 8.18896 10.7588 8.1027 10.6725C8.14137 10.8034 8.04321 10.9224 8.10567 10.9402L8.10865 10.9432ZM8.07295 10.9402C8.0789 11.0354 7.83498 10.9283 7.77549 10.851C7.91827 10.9134 8.067 10.8629 8.07295 10.9402ZM7.96884 10.8034C7.97776 10.8956 7.76062 10.8123 7.6922 10.7409C7.83796 10.7885 7.95992 10.726 7.96884 10.8004V10.8034ZM8.00751 10.8153C8.09377 10.8361 8.0789 10.6249 7.99561 10.5535C8.03726 10.6933 7.94207 10.7944 8.00751 10.8153ZM7.91827 10.6874C8.00454 10.7082 7.95397 10.5267 7.8915 10.4553C7.9034 10.5862 7.86176 10.6784 7.92125 10.6874H7.91827ZM7.87365 10.6874C7.88258 10.7825 7.71302 10.7112 7.64758 10.6189C7.79036 10.6636 7.86473 10.61 7.87365 10.6874ZM7.82903 10.613C7.88258 10.5743 7.82606 10.4702 7.71897 10.4762C7.73087 10.5386 7.76657 10.6517 7.82903 10.613ZM8.24548 11.0503C8.24845 11.1454 8.00751 11.0979 7.93017 10.9967C8.08485 11.0265 8.23656 10.9729 8.2425 11.0503H8.24548ZM7.28171 10.8777C7.29063 10.9729 7.02589 10.8658 6.96045 10.7766C7.10026 10.8242 7.27278 10.8004 7.28171 10.8777ZM7.44234 10.9164C7.49885 10.8777 7.38582 10.7766 7.29361 10.7528C7.3055 10.8153 7.38284 10.9551 7.44234 10.9194V10.9164ZM7.46018 10.9848C7.46613 11.0711 7.1776 11.0235 7.10323 10.9432C7.35012 10.9878 7.45126 10.9105 7.46018 10.9848Z" fill="white" stroke="#BD6B00" stroke-width="0.0264409"/>
<path fill-rule="evenodd" clip-rule="evenodd" d="M7.59701 11.0414C7.62675 11.1217 7.35012 11.1009 7.25195 11.0562C7.40961 11.0562 7.57321 10.9848 7.59701 11.0414Z" fill="white" stroke="#BD6B00" stroke-width="0.0264409"/>
<path fill-rule="evenodd" clip-rule="evenodd" d="M7.72503 11.1008C7.75477 11.1722 7.49896 11.1722 7.37402 11.1306C7.5406 11.1306 7.69528 11.0295 7.72503 11.1008ZM7.91243 11.1395C7.96002 11.2258 7.68636 11.2317 7.60009 11.1901C7.75477 11.1693 7.87376 11.0711 7.91243 11.1395ZM7.59414 10.9938C7.50788 11.0473 7.51383 10.8867 7.44541 10.7766C7.5525 10.8748 7.65364 10.9432 7.59414 10.9938Z" fill="white" stroke="#BD6B00" stroke-width="0.0264409"/>
<path fill-rule="evenodd" clip-rule="evenodd" d="M7.74882 11.0532C7.67743 11.1157 7.61793 10.8956 7.55249 10.7706C7.65958 10.8896 7.81426 10.9997 7.74882 11.0503V11.0532ZM7.95109 11.1127C7.8916 11.1841 7.71312 10.9045 7.64768 10.7558C7.74584 10.8718 7.99868 11.0532 7.95109 11.1127ZM7.77856 11.3269C7.74882 11.434 7.29668 11.2258 7.24313 11.1157C7.5049 11.2525 7.78451 11.2228 7.77856 11.3239V11.3269ZM6.32993 9.13163C6.31803 9.11676 6.28829 9.13163 6.29424 9.16435C6.30316 9.20897 6.3686 9.43802 6.48164 9.51536C6.56195 9.57485 6.98732 9.66706 7.17769 9.70871C7.28478 9.72953 7.37104 9.78307 7.44243 9.86636C7.41799 9.76765 7.3882 9.67033 7.35319 9.57485C7.3175 9.48561 7.22231 9.39042 7.12118 9.38745C6.93972 9.37853 6.70176 9.36365 6.52625 9.28929C6.44676 9.25577 6.37787 9.20128 6.32696 9.13163H6.32993Z" fill="white" stroke="#BD6B00" stroke-width="0.0264409"/>
<path fill-rule="evenodd" clip-rule="evenodd" d="M7.37999 10.0389C7.43949 10.0805 7.50195 9.92884 7.43056 9.78308C7.42759 9.92289 7.31753 9.97048 7.37999 10.0389Z" fill="white" stroke="#BD6B00" stroke-width="0.0264409"/>
<path fill-rule="evenodd" clip-rule="evenodd" d="M7.43653 10.1787C7.51685 10.2025 7.54064 10.0598 7.49007 9.94672C7.499 10.0687 7.36217 10.143 7.43653 10.1787Z" fill="white" stroke="#BD6B00" stroke-width="0.0264409"/>
<path fill-rule="evenodd" clip-rule="evenodd" d="M7.49896 10.2918C7.5763 10.3304 7.60307 10.1847 7.54953 10.0806C7.55547 10.2144 7.43947 10.2561 7.49896 10.2888V10.2918Z" fill="white" stroke="#BD6B00" stroke-width="0.0264409"/>
<path fill-rule="evenodd" clip-rule="evenodd" d="M7.46624 10.3007C7.43649 10.3899 7.25802 10.2204 7.22827 10.1282C7.33833 10.2382 7.48706 10.2234 7.46624 10.2977V10.3007Z" fill="white" stroke="#BD6B00" stroke-width="0.0264409"/>
<path fill-rule="evenodd" clip-rule="evenodd" d="M7.38577 10.1609C7.35008 10.2501 7.12698 10.0122 7.07642 9.9021C7.18648 10.0122 7.40957 10.0954 7.38577 10.1579V10.1609Z" fill="white" stroke="#BD6B00" stroke-width="0.0264409"/>
<path fill-rule="evenodd" clip-rule="evenodd" d="M7.34119 10.021C7.3055 10.1252 7.06455 9.84852 6.99316 9.75036C7.11215 9.85744 7.36796 9.94668 7.34119 10.021ZM7.33227 9.91991C7.42151 9.90206 7.32929 9.83067 7.22221 9.71466C7.21923 9.83662 7.23708 9.92288 7.33227 9.91991Z" fill="white" stroke="#BD6B00" stroke-width="0.0264409"/>
<path fill-rule="evenodd" clip-rule="evenodd" d="M7.18666 9.84851C7.22533 9.80984 7.15394 9.79199 7.0647 9.69085C7.04983 9.75927 7.14799 9.8842 7.18964 9.84851H7.18666ZM7.60311 10.3006C7.6507 10.3304 7.68045 10.2322 7.62393 10.146C7.60905 10.2412 7.56146 10.265 7.60311 10.3006ZM6.58579 9.6968C6.48763 9.7563 6.32997 9.51833 6.28833 9.42017C6.37459 9.5332 6.60364 9.63434 6.58579 9.6968Z" fill="white" stroke="#BD6B00" stroke-width="0.0264409"/>
<path fill-rule="evenodd" clip-rule="evenodd" d="M6.67208 9.83364C6.61556 9.89313 6.44304 9.72953 6.38354 9.64624C6.47278 9.72655 6.69588 9.73548 6.67208 9.83364Z" fill="white" stroke="#BD6B00" stroke-width="0.0264409"/>
<path fill-rule="evenodd" clip-rule="evenodd" d="M6.76422 9.95861C6.74637 10.0419 6.4965 9.8545 6.43701 9.76526C6.5441 9.86937 6.78207 9.86045 6.76422 9.95861Z" fill="white" stroke="#BD6B00" stroke-width="0.0264409"/>
<path fill-rule="evenodd" clip-rule="evenodd" d="M6.72564 10.0508C6.68697 10.1251 6.48172 9.93775 6.43115 9.84256C6.55906 9.94965 6.75836 9.97642 6.72861 10.0508H6.72564ZM6.62153 9.68491C6.68399 9.61649 6.65722 9.58377 6.60963 9.47668C6.58583 9.58674 6.54716 9.63136 6.62153 9.68491ZM6.70779 9.81282C6.82677 9.81876 6.70779 9.67598 6.67804 9.55402C6.68994 9.69086 6.6483 9.80092 6.70779 9.81282Z" fill="white" stroke="#BD6B00" stroke-width="0.0264409"/>
<path fill-rule="evenodd" clip-rule="evenodd" d="M6.78204 9.92589C6.86235 9.90804 6.84153 9.79203 6.77609 9.65222C6.79096 9.80393 6.70768 9.89019 6.78204 9.92589ZM6.75229 10.1549C6.72255 10.2442 6.49053 10.0359 6.45483 9.95266C6.57382 10.0538 6.77312 10.0865 6.75229 10.1549Z" fill="white" stroke="#BD6B00" stroke-width="0.0264409"/>
<path fill-rule="evenodd" clip-rule="evenodd" d="M6.89202 10.2977C6.8593 10.3869 6.61538 10.2025 6.54102 10.1014C6.68677 10.2204 6.90987 10.2085 6.89202 10.2977Z" fill="white" stroke="#BD6B00" stroke-width="0.0264409"/>
<path fill-rule="evenodd" clip-rule="evenodd" d="M7.03487 10.4434C6.9962 10.5713 6.74038 10.3661 6.66602 10.265C6.82664 10.3899 7.05271 10.3542 7.03487 10.4434ZM6.7969 10.1162C6.86531 10.149 6.89209 9.9556 6.85342 9.8158C6.85342 9.96453 6.71361 10.0776 6.79392 10.1133L6.7969 10.1162Z" fill="white" stroke="#BD6B00" stroke-width="0.0264409"/>
<path fill-rule="evenodd" clip-rule="evenodd" d="M6.91304 10.2709C6.99633 10.2947 6.97253 10.0835 6.89816 9.94374C6.88924 10.0835 6.82975 10.2115 6.91304 10.2709ZM7.06177 10.4167C7.15101 10.4197 7.09151 10.2353 7.01417 10.1311C7.02607 10.265 6.98443 10.3989 7.06177 10.4167ZM6.89816 10.494C6.86842 10.5416 6.80298 10.4554 6.68994 10.3899C6.79108 10.4197 6.91006 10.4494 6.89816 10.494ZM6.84462 8.92643C6.93386 8.86099 6.86544 8.742 6.84462 8.62897C6.81487 8.73605 6.74348 8.87883 6.84462 8.92643ZM6.84462 9.08408C6.71076 9.06921 6.73159 8.90263 6.72564 8.79555C6.76728 8.9413 6.87437 8.9651 6.84462 9.08706V9.08408ZM6.86247 9.06326C6.97253 9.05731 6.96658 8.93238 6.97253 8.80744C6.91601 8.92345 6.85354 8.9413 6.86247 9.06326Z" fill="white" stroke="#BD6B00" stroke-width="0.0264409"/>
<path fill-rule="evenodd" clip-rule="evenodd" d="M6.85942 9.21794C6.77019 9.22686 6.72854 9.1406 6.71069 9.00972C6.79101 9.13168 6.8624 9.09301 6.85942 9.21794ZM6.88917 9.20902C6.99923 9.22389 6.97841 9.09598 6.97841 9.00079C6.94271 9.09003 6.85347 9.11978 6.88917 9.20902Z" fill="white" stroke="#BD6B00" stroke-width="0.0264409"/>
<path fill-rule="evenodd" clip-rule="evenodd" d="M6.71655 9.15546C6.72548 9.23875 6.77902 9.38153 6.86528 9.34881C6.898 9.24767 6.78794 9.22685 6.71655 9.15546Z" fill="white" stroke="#BD6B00" stroke-width="0.0264409"/>
<path fill-rule="evenodd" clip-rule="evenodd" d="M6.88916 9.35772C6.85347 9.28633 6.9784 9.24766 7.0022 9.15248C7.01707 9.28931 7.00517 9.37855 6.88916 9.3607V9.35772ZM6.53519 8.48914C6.6036 8.41775 6.54411 8.29876 6.52329 8.18573C6.49354 8.29282 6.44892 8.4356 6.53519 8.48914ZM6.53519 8.62597C6.4162 8.64084 6.38646 8.39693 6.37158 8.28984C6.41323 8.4356 6.55006 8.49806 6.53519 8.62895V8.62597ZM6.55898 8.62597C6.64227 8.58135 6.62442 8.48616 6.64822 8.41775C6.59468 8.50401 6.54113 8.51591 6.55898 8.62597Z" fill="white" stroke="#BD6B00" stroke-width="0.0264409"/>
<path fill-rule="evenodd" clip-rule="evenodd" d="M6.53211 8.78658C6.41015 8.7955 6.33578 8.52481 6.32983 8.41772C6.3685 8.56348 6.54996 8.64082 6.53508 8.78658H6.53211ZM6.55888 8.78063C6.67786 8.75386 6.66299 8.67652 6.64514 8.55456C6.60647 8.67949 6.54103 8.65272 6.55888 8.78063Z" fill="white" stroke="#BD6B00" stroke-width="0.0264409"/>
<path fill-rule="evenodd" clip-rule="evenodd" d="M6.53216 8.94126C6.39533 8.96505 6.40425 8.74493 6.29419 8.58728C6.38938 8.70626 6.5619 8.85499 6.53216 8.94126ZM6.5619 8.93233C6.66899 8.93828 6.68089 8.78063 6.67494 8.71519C6.64817 8.78063 6.52621 8.84012 6.56488 8.93531L6.5619 8.93233Z" fill="white" stroke="#BD6B00" stroke-width="0.0264409"/>
<path fill-rule="evenodd" clip-rule="evenodd" d="M6.31812 8.77173C6.36868 8.94128 6.44305 9.11083 6.53229 9.09894C6.57691 9.00077 6.44602 8.98887 6.31812 8.77173Z" fill="white" stroke="#BD6B00" stroke-width="0.0264409"/>
<path fill-rule="evenodd" clip-rule="evenodd" d="M6.56496 9.07219C6.52926 8.99783 6.65419 8.96213 6.67799 8.86694C6.69286 9.00378 6.68097 9.09301 6.56496 9.07219ZM6.35376 8.96511C6.42812 9.11681 6.46085 9.29231 6.56198 9.26554C6.60065 9.14656 6.44895 9.12276 6.35376 8.96511Z" fill="white" stroke="#BD6B00" stroke-width="0.0264409"/>
<path fill-rule="evenodd" clip-rule="evenodd" d="M6.58274 9.23872C6.53812 9.15543 6.66306 9.12866 6.69578 9.0186C6.71065 9.16138 6.69578 9.26549 6.58274 9.23574V9.23872ZM6.79691 8.21248C6.8683 8.23033 6.94564 8.15001 6.91887 8.02806C6.83558 8.0459 6.79989 8.12324 6.79691 8.21248ZM6.56192 8.15001C6.56787 8.18571 6.61249 8.18868 6.59761 8.13812C6.58651 8.10532 6.58651 8.06978 6.59761 8.03698C6.61195 7.99249 6.61195 7.94463 6.59761 7.90015C6.58572 7.8704 6.54407 7.88825 6.56192 7.91205C6.57977 7.93882 6.58274 7.99533 6.56787 8.02211C6.55002 8.06078 6.55597 8.11134 6.56192 8.15001ZM7.2431 8.62595C7.21336 8.66462 7.15684 8.63785 7.20146 8.58133C7.23715 8.53671 7.2907 8.49804 7.2907 8.45045C7.29665 8.39096 7.32937 8.30172 7.36209 8.269C7.39481 8.23628 7.43348 8.2809 7.39778 8.30469C7.35911 8.32849 7.33234 8.43558 7.33532 8.47722C7.33234 8.53671 7.27582 8.58133 7.2431 8.62595ZM7.15387 8.55753C7.12412 8.59918 7.08248 8.57241 7.10627 8.50697C7.12709 8.46235 7.13007 8.40286 7.15387 8.37013C7.18956 8.31957 7.2431 8.27792 7.27582 8.2452C7.31152 8.21546 7.33532 8.2452 7.30557 8.27495C7.26911 8.31137 7.23624 8.35121 7.20741 8.39393C7.16576 8.45937 7.18361 8.51292 7.15387 8.55753ZM6.68685 8.34336C6.68388 8.40286 6.73147 8.41475 6.7285 8.33146C6.7285 8.24223 6.66306 8.15894 6.69875 8.02508C6.72255 7.95964 6.72255 7.83768 6.71065 7.77521C6.69875 7.70977 6.65116 7.75142 6.67198 7.80198C6.68983 7.86148 6.66901 7.96856 6.65413 8.02508C6.60951 8.18571 6.68983 8.26305 6.68388 8.34336H6.68685ZM6.81476 8.01616C6.80881 8.07267 6.76122 8.07565 6.77609 8.00128C6.78799 7.94179 6.78799 7.8942 6.77609 7.84363C6.75824 7.78116 6.76419 7.67408 6.77609 7.62946C6.79096 7.58186 6.83558 7.60864 6.81774 7.64433C6.79697 7.70056 6.79386 7.76179 6.80881 7.81983C6.82666 7.87932 6.82368 7.96261 6.81476 8.01913V8.01616ZM6.35072 9.11974C6.37452 9.14651 6.41021 9.12866 6.38047 9.08999C6.35072 9.06024 6.35965 9.05429 6.3418 9.0186C6.32395 8.97695 6.32693 8.95613 6.3061 8.92936C6.28528 8.89961 6.25851 8.92936 6.27636 8.95018C6.30015 8.97993 6.2942 8.99778 6.3061 9.02455C6.33585 9.06917 6.32693 9.09296 6.35072 9.11974ZM6.95754 9.85149C6.9939 9.87158 7.02482 9.90023 7.04762 9.93496C7.07043 9.96968 7.08443 10.0094 7.08842 10.0508C7.09154 10.1249 7.11191 10.1972 7.14792 10.262C7.08842 10.2471 7.05868 10.1519 7.04975 10.0597C7.04083 9.96452 6.99026 9.92585 6.96052 9.85149H6.95754ZM7.10925 10.027C7.15981 10.1192 7.22823 10.1549 7.23418 10.2233C7.24013 10.3036 7.24608 10.3066 7.2669 10.3839C7.20741 10.3691 7.19254 10.3631 7.17766 10.2441C7.16874 10.1608 7.10032 10.1043 7.10925 10.027Z" fill="white" stroke="#BD6B00" stroke-width="0.0264409"/>
<path fill-rule="evenodd" clip-rule="evenodd" d="M8.67385 10.8837C8.7036 10.9372 8.73335 11.0175 8.79284 11.0027C8.79284 10.964 8.73037 10.9342 8.67385 10.8837ZM8.76309 10.9015C8.87315 10.9491 8.97131 10.9372 8.98619 11.0086C8.8791 11.0205 8.83746 10.9789 8.76012 10.9015H8.76309ZM8.28418 10.5237C8.35809 10.5812 8.41049 10.6619 8.43291 10.7528C8.45689 10.835 8.49298 10.9132 8.54 10.9848C8.46264 10.9328 8.40665 10.8547 8.38234 10.7647C8.36152 10.6754 8.33475 10.607 8.28418 10.5267V10.5237ZM8.37639 10.5237C8.45968 10.5892 8.53702 10.6665 8.56082 10.7587C8.58462 10.845 8.59949 10.9104 8.65601 10.9967C8.56677 10.9402 8.53405 10.8569 8.50728 10.7647C8.48645 10.6754 8.43291 10.61 8.37639 10.5267V10.5237ZM8.65006 10.7409C8.64889 10.7335 8.65033 10.7258 8.65412 10.7193C8.65791 10.7128 8.66383 10.7078 8.67088 10.7052C8.69632 10.6962 8.72213 10.6883 8.74822 10.6814C8.77796 10.6725 8.79581 10.6933 8.79581 10.7082V10.7677C8.79581 10.7885 8.78986 10.7915 8.77499 10.7944C8.75417 10.7974 8.72442 10.8004 8.7036 10.8153C8.68575 10.8272 8.6679 10.8182 8.65898 10.8004L8.65006 10.7409ZM8.96536 10.7409C8.96536 10.723 8.95942 10.7082 8.94752 10.7052C8.92494 10.6958 8.90052 10.6918 8.87613 10.6933C8.84638 10.6933 8.84341 10.6992 8.84341 10.7111V10.7736C8.84341 10.7974 8.84341 10.7974 8.8553 10.8034C8.87613 10.8034 8.90885 10.8034 8.92967 10.8212C8.94454 10.8301 8.95942 10.8212 8.96239 10.8034L8.96536 10.7409Z" fill="white"/>
<path fill-rule="evenodd" clip-rule="evenodd" d="M10.2712 8.59922C10.3069 8.53973 10.3515 8.68251 10.5032 8.78662C10.5717 8.83421 10.6222 8.96212 10.6222 9.04541C10.6222 9.1049 10.6163 9.16142 10.6222 9.21794C10.6252 9.25066 10.6639 9.33097 10.6371 9.35179C10.5717 9.39939 10.4854 9.51242 10.4467 9.55109C10.411 9.58084 10.3813 9.39344 10.3575 9.31312C10.3277 9.22388 10.3396 9.11382 10.2623 9.03351C10.2087 8.97402 10.0719 8.92047 10.0838 8.89668L10.2712 8.59922Z" fill="white" stroke="#BD6B00" stroke-width="0.0264409"/>
<path fill-rule="evenodd" clip-rule="evenodd" d="M10.2803 9.05726C10.2921 9.0292 10.3081 9.00311 10.3279 8.97992C10.3468 8.95641 10.3714 8.93801 10.3993 8.92638C10.4267 8.91825 10.4513 8.90283 10.4707 8.88176C10.482 8.869 10.4902 8.8537 10.4944 8.83714C10.4978 8.81745 10.4978 8.79734 10.4944 8.77765L10.5034 8.78657C10.5718 8.83417 10.6224 8.96207 10.6224 9.04536C10.6233 9.06816 10.6233 9.09098 10.6224 9.11378C10.6164 9.12865 10.6134 9.14353 10.6045 9.15245L10.5718 9.17625L10.4915 9.19707C10.4614 9.21059 10.4349 9.23096 10.4141 9.25656C10.3925 9.27949 10.3744 9.30556 10.3606 9.3339L10.3546 9.3101C10.3308 9.22979 10.3338 9.1346 10.2773 9.05726H10.2803Z" fill="#BF0000" stroke="#BD6B00" stroke-width="0.0264409"/>
<path d="M10.4943 8.77472C10.5092 8.87288 10.4527 8.90858 10.3991 8.92642C10.3456 8.94725 10.301 9.00376 10.2801 9.05731M10.6282 9.10193C10.6044 9.19116 10.5449 9.17927 10.4913 9.19711C10.4378 9.21794 10.3813 9.28635 10.3575 9.33989" stroke="#BD6B00" stroke-width="0.0264409"/>
<path fill-rule="evenodd" clip-rule="evenodd" d="M10.3218 8.5397L10.292 8.52185L9.76553 9.41126L9.79527 9.42911L10.3218 8.53672V8.5397Z" fill="white" stroke="#BD6B00" stroke-width="0.0264409"/>
<path fill-rule="evenodd" clip-rule="evenodd" d="M10.2653 8.50402C10.2653 8.5198 10.2716 8.53493 10.2827 8.54608C10.2939 8.55724 10.309 8.56351 10.3248 8.56351C10.3406 8.56351 10.3557 8.55724 10.3669 8.54608C10.378 8.53493 10.3843 8.5198 10.3843 8.50402C10.3843 8.48824 10.378 8.47311 10.3669 8.46195C10.3557 8.45079 10.3406 8.44453 10.3248 8.44453C10.309 8.44453 10.2939 8.45079 10.2827 8.46195C10.2716 8.47311 10.2653 8.48824 10.2653 8.50402ZM9.81315 7.79011H9.59898V7.83771H9.81315V7.79011ZM9.81315 7.88232H9.59898V8.29282H9.81315V7.88232ZM9.82505 7.73359H9.58708C9.58113 7.65328 9.66145 7.56702 9.70607 7.56702C9.75366 7.56999 9.82803 7.65625 9.82505 7.73359Z" fill="white" stroke="#BD6B00" stroke-width="0.0264409"/>
<path fill-rule="evenodd" clip-rule="evenodd" d="M9.22115 7.68599C9.26576 7.70384 9.30146 7.75441 9.32228 7.8139C9.3431 7.87339 9.35203 7.94181 9.34013 7.99535C9.34013 8.01617 9.33121 8.02807 9.32526 8.03997C9.31931 8.04889 9.31336 8.05484 9.30741 8.05484C9.29849 8.05484 9.28956 8.05484 9.28659 8.04592L9.28064 8.02212C9.28361 7.96263 9.28361 7.90909 9.27171 7.86149C9.25848 7.80864 9.22684 7.76224 9.18248 7.73061C9.17355 7.72466 9.17058 7.71574 9.1676 7.70979C9.16771 7.70194 9.17092 7.69446 9.17653 7.68897C9.18842 7.68004 9.20627 7.67707 9.22115 7.68599ZM9.2152 7.69789C9.2033 7.69194 9.1914 7.69789 9.18545 7.70086L9.18248 7.70681C9.18248 7.70979 9.18248 7.71276 9.1914 7.71871C9.2371 7.75223 9.2697 7.80061 9.28361 7.85554C9.29596 7.91017 9.29897 7.96649 9.29254 8.02212C9.29254 8.02856 9.29462 8.03482 9.29849 8.03997C9.29849 8.03997 9.29849 8.04294 9.30443 8.03997C9.30443 8.03997 9.31038 8.03997 9.31633 8.03105C9.32222 8.01987 9.32623 8.00782 9.32823 7.99535C9.33716 7.94181 9.32823 7.87637 9.30741 7.81687C9.28659 7.76333 9.25387 7.71574 9.21817 7.69789H9.2152Z" fill="#BD6B00"/>
<path fill-rule="evenodd" clip-rule="evenodd" d="M9.14394 7.74254C9.18855 7.76336 9.2183 7.81095 9.23317 7.86747C9.24897 7.92461 9.25202 7.98452 9.2421 8.04297C9.23615 8.08164 9.21235 8.10246 9.1945 8.10246C9.18558 8.10544 9.17666 8.10246 9.17071 8.09354C9.16476 8.08462 9.16178 8.07569 9.16476 8.06379C9.17666 8.0162 9.17963 7.96266 9.17368 7.91209C9.16476 7.86152 9.14394 7.8169 9.10824 7.79013C9.09932 7.78121 9.09337 7.77526 9.09337 7.76633C9.09309 7.76311 9.09348 7.75987 9.0945 7.7568C9.09553 7.75373 9.09716 7.7509 9.09932 7.74849C9.11122 7.73956 9.12906 7.73659 9.14394 7.74254ZM9.13799 7.75741C9.12609 7.75146 9.11419 7.75443 9.10824 7.75741L9.10527 7.76633L9.11419 7.77823C9.13416 7.79424 9.15075 7.81405 9.16301 7.83652C9.17526 7.85898 9.18294 7.88366 9.18558 7.90911C9.1945 7.96266 9.18856 8.01917 9.17963 8.06379C9.17666 8.07569 9.17963 8.08164 9.17963 8.08759L9.1945 8.09056C9.20343 8.09056 9.22425 8.07569 9.2302 8.04C9.23912 7.98943 9.23615 7.92399 9.22128 7.87044C9.2064 7.8169 9.17666 7.77228 9.13799 7.75741Z" fill="#BD6B00"/>
<path fill-rule="evenodd" clip-rule="evenodd" d="M9.82502 8.62598H9.58705V8.95318H9.82502V8.62598ZM9.81014 9.14356H9.5811V9.21495H9.81014V9.14356ZM9.81609 9.26552H9.57812V9.52431H9.81609V9.26552ZM9.83394 9.57785H9.57515V9.72361H9.83394V9.57785ZM9.80122 9.08407H9.593L9.55135 9.01268H9.83691L9.80122 9.08407ZM9.52161 8.82825L9.51863 8.64977H9.37585C9.43723 8.69756 9.48705 8.75856 9.52161 8.82825Z" fill="white" stroke="#BD6B00" stroke-width="0.0264409"/>
<path fill-rule="evenodd" clip-rule="evenodd" d="M9.78638 8.90262C9.78638 8.94129 9.74176 8.92642 9.74176 8.90559V8.73902C9.74176 8.70927 9.67037 8.71522 9.67037 8.73604V8.91452C9.67037 8.94426 9.6198 8.94129 9.62277 8.91452V8.7063C9.62277 8.64086 9.78638 8.64383 9.78638 8.70332V8.90262ZM9.78638 9.29824H9.61682V9.50647H9.78638V9.29824Z" stroke="#BD6B00" stroke-width="0.0264409"/>
<path fill-rule="evenodd" clip-rule="evenodd" d="M9.67924 9.38747H9.61975V9.41722H9.67924V9.38747ZM9.78335 9.38747H9.72386V9.41722H9.78335V9.38747ZM9.72386 9.29823H9.67924V9.38747H9.72386V9.29823ZM9.72386 9.41722H9.67924V9.50943H9.72386V9.41722ZM10.6668 7.18626C10.6549 7.34987 10.7085 7.44208 10.7947 7.42721C10.8185 7.33797 10.765 7.2755 10.6668 7.18626ZM10.8602 7.55214C10.9375 7.51347 10.881 7.21006 10.8512 7.08215C10.8304 7.24576 10.7917 7.47778 10.8602 7.55214Z" fill="white"/>
<path d="M9.67924 9.38747H9.61975V9.41722H9.67924M9.67924 9.38747V9.41722M9.67924 9.38747V9.29823H9.72386V9.38747M9.67924 9.38747H9.72386M9.67924 9.41722H9.72386M9.67924 9.41722V9.50943H9.72386V9.41722M9.72386 9.38747H9.78335V9.41722H9.72386M9.72386 9.38747V9.41722M10.6668 7.18626C10.6549 7.34987 10.7085 7.44208 10.7947 7.42721C10.8185 7.33797 10.765 7.2755 10.6668 7.18626ZM10.8602 7.55214C10.9375 7.51347 10.881 7.21006 10.8512 7.08215C10.8304 7.24576 10.7917 7.47778 10.8602 7.55214Z" stroke="#BD6B00" stroke-width="0.0264409"/>
<path fill-rule="evenodd" clip-rule="evenodd" d="M10.8335 7.56703C10.7027 7.61165 10.5956 7.47184 10.5629 7.30824C10.6699 7.45697 10.8454 7.45697 10.8306 7.56703H10.8335ZM10.9317 7.71873C11.0328 7.69196 10.9733 7.37071 10.9525 7.2428C10.9317 7.37666 10.8603 7.67412 10.9317 7.71873ZM10.896 7.70981C10.8901 7.59975 10.78 7.6295 10.7027 7.57C10.7175 7.6295 10.7622 7.72468 10.896 7.70981ZM11.0209 7.85854C11.1221 7.8288 11.0626 7.48374 11.0685 7.34096C11.0388 7.46589 10.9436 7.82582 11.0209 7.85854ZM10.9733 7.84367C10.8901 7.87044 10.78 7.81392 10.7711 7.71576C10.8454 7.76633 10.9585 7.72766 10.9733 7.84367Z" fill="white" stroke="#BD6B00" stroke-width="0.0264409"/>
<path fill-rule="evenodd" clip-rule="evenodd" d="M11.0983 8.01021C11.1935 8.01914 11.1518 7.72465 11.1518 7.45099C11.1161 7.7068 11.018 7.9418 11.0983 8.01021Z" fill="white" stroke="#BD6B00" stroke-width="0.0264409"/>
<path fill-rule="evenodd" clip-rule="evenodd" d="M11.0625 7.99831C10.9971 8.02806 10.881 7.97749 10.8483 7.86743C10.9673 7.918 11.0447 7.86743 11.0625 7.99831ZM10.301 7.33795C10.3188 7.48371 10.3783 7.567 10.4646 7.55212C10.4884 7.46288 10.417 7.40339 10.301 7.33795ZM10.533 7.7068C10.3873 7.72762 10.3367 7.61756 10.2356 7.47181C10.3754 7.57295 10.539 7.59079 10.533 7.70978V7.7068Z" fill="white" stroke="#BD6B00" stroke-width="0.0264409"/>
<path fill-rule="evenodd" clip-rule="evenodd" d="M10.5776 7.69194C10.655 7.59675 10.5776 7.47479 10.5181 7.37366C10.53 7.52536 10.4795 7.61163 10.5776 7.69194ZM10.6074 7.84959C10.6193 7.75441 10.4586 7.73358 10.3873 7.68302C10.414 7.73656 10.4467 7.88231 10.6104 7.84959H10.6074Z" fill="white" stroke="#BD6B00" stroke-width="0.0264409"/>
<path fill-rule="evenodd" clip-rule="evenodd" d="M10.6431 7.84963C10.7532 7.83773 10.7085 7.65033 10.6282 7.54919C10.6609 7.69198 10.5687 7.79014 10.6431 7.84963Z" fill="white" stroke="#BD6B00" stroke-width="0.0264409"/>
<path fill-rule="evenodd" clip-rule="evenodd" d="M10.7264 8.00725C10.8513 7.94776 10.771 7.79308 10.7264 7.70087C10.7442 7.82283 10.6431 7.91504 10.7264 8.00428V8.00725Z" fill="white" stroke="#BD6B00" stroke-width="0.0264409"/>
<path fill-rule="evenodd" clip-rule="evenodd" d="M10.7025 7.9894C10.6371 8.07863 10.5092 7.9656 10.4824 7.83472C10.5925 7.92693 10.6758 7.91206 10.7025 7.99237V7.9894ZM10.9881 8.59324C11 8.46533 10.9048 8.23629 10.9732 8.11136C10.9821 8.09351 10.9524 8.04889 10.9316 8.07566C10.9018 8.12028 10.8721 8.24521 10.8572 8.19762C10.8453 8.14705 10.8423 8.06079 10.7977 8.04294C10.768 8.03402 10.7293 8.02509 10.7412 8.07269C10.7531 8.11433 10.7769 8.17382 10.7501 8.1768C10.7353 8.1768 10.6906 8.1173 10.652 8.08756C10.6222 8.06376 10.5746 8.10541 10.6222 8.1411C10.765 8.26009 10.9048 8.3166 10.9881 8.59324ZM11.2469 10.5119C11.2647 10.5119 11.2856 10.5029 11.2647 10.5297C11.0952 10.7379 11.0476 10.7974 10.8007 10.7677C10.5538 10.735 10.4943 10.6665 10.3188 10.5684C10.268 10.5416 10.2124 10.5253 10.1552 10.5201C10.098 10.515 10.0404 10.5213 9.98566 10.5386C9.93806 10.5535 9.90832 10.5535 9.94401 10.5178C9.97971 10.4851 10.0184 10.4375 10.063 10.4048C10.174 10.3306 10.3092 10.3018 10.4408 10.3245C10.6192 10.3542 10.771 10.4702 10.9524 10.5148C11.0496 10.5345 11.1497 10.5345 11.2469 10.5148V10.5119ZM9.82503 10.8837C9.79528 10.8896 9.77446 10.9491 9.75661 10.9105C9.73281 10.842 9.75066 10.7915 9.78041 10.7944C9.8161 10.8034 9.87262 10.8837 9.82503 10.8837Z" fill="white" stroke="#BD6B00" stroke-width="0.0264409"/>
<path fill-rule="evenodd" clip-rule="evenodd" d="M11.363 8.49509C11.3987 8.45345 11.3898 8.44155 11.3333 8.43858C11.2917 8.43858 11.2084 8.46832 11.1756 8.44155C11.1459 8.42073 11.1608 8.33149 11.1459 8.29282C11.14 8.26605 11.1251 8.23333 11.0864 8.28687C10.9793 8.4594 10.8484 8.66762 10.7889 8.86989C10.7592 8.98293 10.7889 9.16141 10.8901 9.28039C10.8901 9.17925 10.9258 9.11084 10.9704 9.02457C11.0299 8.91451 11.2411 8.60813 11.363 8.49212V8.49509Z" fill="white"/>
<path fill-rule="evenodd" clip-rule="evenodd" d="M10.9198 9.39936C10.8008 9.39936 10.78 9.2417 10.78 9.19708C10.8395 9.20898 10.9406 9.30714 10.9198 9.39936ZM9.89355 10.9432C9.81026 10.961 9.81324 10.7588 9.8995 10.6725C9.86083 10.8034 9.95899 10.9224 9.89652 10.9402L9.89355 10.9432ZM9.92925 10.9402C9.9233 11.0354 10.1672 10.9283 10.2267 10.851C10.0839 10.9134 9.93519 10.8629 9.92925 10.9402ZM10.0334 10.8034C10.0244 10.8956 10.2416 10.8123 10.31 10.7409C10.1642 10.7885 10.0423 10.726 10.0334 10.8004V10.8034ZM9.99469 10.8153C9.90842 10.8361 9.9233 10.6249 10.0066 10.5535C9.96494 10.6933 10.0601 10.7944 9.99469 10.8153ZM10.0839 10.6874C9.99766 10.7082 10.0482 10.5267 10.1107 10.4553C10.0988 10.5862 10.1404 10.6784 10.0809 10.6874H10.0839ZM10.1285 10.6874C10.1196 10.7825 10.2892 10.7112 10.3546 10.6189C10.2118 10.6636 10.1375 10.61 10.1285 10.6874ZM10.1732 10.613C10.1196 10.5743 10.1761 10.4702 10.2832 10.4762C10.2713 10.5386 10.2356 10.6517 10.1732 10.613ZM9.75672 11.0503C9.75374 11.1454 9.99469 11.0979 10.072 10.9967C9.91735 11.0265 9.76564 10.9729 9.75969 11.0503H9.75672ZM10.7205 10.8777C10.7116 10.9729 10.9763 10.8658 11.0417 10.7766C10.9019 10.8242 10.7294 10.8004 10.7205 10.8777ZM10.5599 10.9164C10.5033 10.8777 10.6164 10.7766 10.7086 10.7528C10.6967 10.8153 10.6194 10.9551 10.5599 10.9194V10.9164ZM10.542 10.9848C10.5361 11.0711 10.8246 11.0235 10.899 10.9432C10.6521 10.9878 10.5509 10.9105 10.542 10.9848Z" fill="white" stroke="#BD6B00" stroke-width="0.0264409"/>
<path fill-rule="evenodd" clip-rule="evenodd" d="M10.4052 11.0414C10.3754 11.1217 10.6521 11.1009 10.7502 11.0562C10.5926 11.0562 10.429 10.9848 10.4052 11.0414Z" fill="white" stroke="#BD6B00" stroke-width="0.0264409"/>
<path fill-rule="evenodd" clip-rule="evenodd" d="M10.2772 11.1008C10.2474 11.1722 10.5032 11.1722 10.6282 11.1306C10.4616 11.1306 10.3069 11.0295 10.2772 11.1008ZM10.0898 11.1395C10.0422 11.2258 10.3158 11.2317 10.4021 11.1901C10.2474 11.1693 10.1284 11.0711 10.0898 11.1395ZM10.4081 10.9938C10.4943 11.0473 10.4884 10.8867 10.5568 10.7766C10.4497 10.8748 10.3486 10.9432 10.4081 10.9938Z" fill="white" stroke="#BD6B00" stroke-width="0.0264409"/>
<path fill-rule="evenodd" clip-rule="evenodd" d="M10.2534 11.0532C10.3248 11.1157 10.3843 10.8956 10.4497 10.7706C10.3426 10.8896 10.1879 10.9997 10.2534 11.0503V11.0532ZM10.0511 11.1127C10.1106 11.1841 10.2891 10.9045 10.3545 10.7558C10.2564 10.8718 10.0035 11.0532 10.0511 11.1127ZM10.2236 11.3269C10.2534 11.434 10.7055 11.2258 10.7591 11.1157C10.4973 11.2525 10.2177 11.2228 10.2236 11.3239V11.3269ZM11.6723 9.13163C11.6842 9.11676 11.7139 9.13163 11.708 9.16435C11.699 9.20897 11.6336 9.43802 11.5206 9.51536C11.4402 9.57485 11.0149 9.66706 10.8245 9.70871C10.7174 9.72953 10.6312 9.78307 10.5598 9.86636C10.5842 9.76765 10.614 9.67033 10.649 9.57485C10.6847 9.48561 10.7799 9.39042 10.881 9.38745C11.0625 9.37853 11.3004 9.36365 11.4759 9.28929C11.5554 9.25577 11.6243 9.20128 11.6752 9.13163H11.6723Z" fill="white" stroke="#BD6B00" stroke-width="0.0264409"/>
<path fill-rule="evenodd" clip-rule="evenodd" d="M10.6222 10.0389C10.5627 10.0805 10.5002 9.92884 10.5716 9.78308C10.5746 9.92289 10.6847 9.97048 10.6222 10.0389Z" fill="white" stroke="#BD6B00" stroke-width="0.0264409"/>
<path fill-rule="evenodd" clip-rule="evenodd" d="M10.5657 10.1787C10.4854 10.2025 10.4616 10.0598 10.5121 9.94672C10.5032 10.0687 10.64 10.143 10.5657 10.1787Z" fill="white" stroke="#BD6B00" stroke-width="0.0264409"/>
<path fill-rule="evenodd" clip-rule="evenodd" d="M10.5032 10.2918C10.4259 10.3304 10.3991 10.1847 10.4527 10.0806C10.4467 10.2144 10.5627 10.2561 10.5032 10.2888V10.2918Z" fill="white" stroke="#BD6B00" stroke-width="0.0264409"/>
<path fill-rule="evenodd" clip-rule="evenodd" d="M10.536 10.3007C10.5657 10.3899 10.7442 10.2204 10.7739 10.1282C10.6639 10.2382 10.5151 10.2234 10.536 10.2977V10.3007Z" fill="white" stroke="#BD6B00" stroke-width="0.0264409"/>
<path fill-rule="evenodd" clip-rule="evenodd" d="M10.6164 10.1609C10.6521 10.2501 10.8752 10.0122 10.9258 9.9021C10.8157 10.0122 10.5926 10.0954 10.6164 10.1579V10.1609Z" fill="white" stroke="#BD6B00" stroke-width="0.0264409"/>
<path fill-rule="evenodd" clip-rule="evenodd" d="M10.661 10.021C10.6967 10.1252 10.9376 9.84852 11.009 9.75036C10.89 9.85744 10.6342 9.94668 10.661 10.021ZM10.6699 9.91991C10.5807 9.90206 10.6729 9.83067 10.78 9.71466C10.783 9.83662 10.7651 9.92288 10.6699 9.91991Z" fill="white" stroke="#BD6B00" stroke-width="0.0264409"/>
<path fill-rule="evenodd" clip-rule="evenodd" d="M10.8155 9.84851C10.7769 9.80984 10.8483 9.79199 10.9375 9.69085C10.9524 9.75927 10.8542 9.8842 10.8126 9.84851H10.8155ZM10.3991 10.3006C10.3515 10.3304 10.3218 10.2322 10.3783 10.146C10.3931 10.2412 10.4407 10.265 10.3991 10.3006ZM11.4164 9.6968C11.5146 9.7563 11.6722 9.51833 11.7139 9.42017C11.6276 9.5332 11.3986 9.63434 11.4164 9.6968Z" fill="white" stroke="#BD6B00" stroke-width="0.0264409"/>
<path fill-rule="evenodd" clip-rule="evenodd" d="M11.3301 9.83364C11.3866 9.89313 11.5592 9.72953 11.6187 9.64624C11.5294 9.72655 11.3063 9.73548 11.3301 9.83364Z" fill="white" stroke="#BD6B00" stroke-width="0.0264409"/>
<path fill-rule="evenodd" clip-rule="evenodd" d="M11.238 9.95861C11.2558 10.0419 11.5057 9.8545 11.5652 9.76526C11.4581 9.86937 11.2201 9.86045 11.238 9.95861Z" fill="white" stroke="#BD6B00" stroke-width="0.0264409"/>
<path fill-rule="evenodd" clip-rule="evenodd" d="M11.2766 10.0508C11.3152 10.1251 11.5205 9.93775 11.571 9.84256C11.4431 9.94965 11.2438 9.97642 11.2736 10.0508H11.2766ZM11.3807 9.68491C11.3182 9.61649 11.345 9.58377 11.3926 9.47668C11.4164 9.58674 11.455 9.63136 11.3807 9.68491ZM11.2944 9.81282C11.1754 9.81876 11.2944 9.67598 11.3242 9.55402C11.3123 9.69086 11.3539 9.80092 11.2944 9.81282Z" fill="white" stroke="#BD6B00" stroke-width="0.0264409"/>
<path fill-rule="evenodd" clip-rule="evenodd" d="M11.2202 9.92589C11.1398 9.90804 11.1607 9.79203 11.2261 9.65222C11.2112 9.80393 11.2945 9.89019 11.2202 9.92589ZM11.2499 10.1549C11.2796 10.2442 11.5117 10.0359 11.5474 9.95266C11.4284 10.0538 11.2291 10.0865 11.2499 10.1549Z" fill="white" stroke="#BD6B00" stroke-width="0.0264409"/>
<path fill-rule="evenodd" clip-rule="evenodd" d="M11.1102 10.2977C11.1429 10.3869 11.3868 10.2025 11.4612 10.1014C11.3154 10.2204 11.0923 10.2085 11.1102 10.2977Z" fill="white" stroke="#BD6B00" stroke-width="0.0264409"/>
<path fill-rule="evenodd" clip-rule="evenodd" d="M10.9673 10.4434C11.006 10.5713 11.2618 10.3661 11.3362 10.265C11.1756 10.3899 10.9495 10.3542 10.9673 10.4434ZM11.2053 10.1162C11.1369 10.149 11.1101 9.9556 11.1488 9.8158C11.1488 9.96453 11.2886 10.0776 11.2083 10.1133L11.2053 10.1162Z" fill="white" stroke="#BD6B00" stroke-width="0.0264409"/>
<path fill-rule="evenodd" clip-rule="evenodd" d="M11.0892 10.2709C11.0059 10.2947 11.0297 10.0835 11.104 9.94374C11.113 10.0835 11.1724 10.2115 11.0892 10.2709ZM10.9404 10.4167C10.8512 10.4197 10.9107 10.2353 10.988 10.1311C10.9761 10.265 11.0178 10.3989 10.9404 10.4167ZM11.104 10.494C11.1338 10.5416 11.1992 10.4554 11.3123 10.3899C11.2111 10.4197 11.0921 10.4494 11.104 10.494ZM11.1576 8.92643C11.0683 8.86099 11.1368 8.742 11.1576 8.62897C11.1873 8.73605 11.2587 8.87883 11.1576 8.92643ZM11.1576 9.08408C11.2914 9.06921 11.2706 8.90263 11.2766 8.79555C11.2349 8.9413 11.1278 8.9651 11.1576 9.08706V9.08408ZM11.1397 9.06326C11.0297 9.05731 11.0356 8.93238 11.0297 8.80744C11.0862 8.92345 11.1487 8.9413 11.1397 9.06326Z" fill="white" stroke="#BD6B00" stroke-width="0.0264409"/>
<path fill-rule="evenodd" clip-rule="evenodd" d="M11.1428 9.21794C11.232 9.22686 11.2737 9.1406 11.2915 9.00972C11.2112 9.13168 11.1398 9.09301 11.1428 9.21794ZM11.113 9.20902C11.003 9.22389 11.0238 9.09598 11.0238 9.00079C11.0595 9.09003 11.1487 9.11978 11.113 9.20902Z" fill="white" stroke="#BD6B00" stroke-width="0.0264409"/>
<path fill-rule="evenodd" clip-rule="evenodd" d="M11.2856 9.15546C11.2767 9.23875 11.2232 9.38153 11.1369 9.34881C11.1042 9.24767 11.2143 9.22685 11.2856 9.15546Z" fill="white" stroke="#BD6B00" stroke-width="0.0264409"/>
<path fill-rule="evenodd" clip-rule="evenodd" d="M11.113 9.35772C11.1487 9.28633 11.0238 9.24766 11 9.15248C10.9851 9.28931 10.997 9.37855 11.113 9.3607V9.35772ZM11.467 8.48914C11.3986 8.41775 11.4581 8.29876 11.4789 8.18573C11.5087 8.29282 11.5533 8.4356 11.467 8.48914ZM11.467 8.62597C11.586 8.64084 11.6157 8.39693 11.6306 8.28984C11.589 8.4356 11.4521 8.49806 11.467 8.62895V8.62597ZM11.4432 8.62597C11.3599 8.58135 11.3778 8.48616 11.354 8.41775C11.4075 8.50401 11.4611 8.51591 11.4432 8.62597Z" fill="white" stroke="#BD6B00" stroke-width="0.0264409"/>
<path fill-rule="evenodd" clip-rule="evenodd" d="M11.4701 8.78658C11.592 8.7955 11.6664 8.52481 11.6724 8.41772C11.6337 8.56348 11.4522 8.64082 11.4671 8.78658H11.4701ZM11.4433 8.78063C11.3243 8.75386 11.3392 8.67652 11.3571 8.55456C11.3957 8.67949 11.4612 8.65272 11.4433 8.78063Z" fill="white" stroke="#BD6B00" stroke-width="0.0264409"/>
<path fill-rule="evenodd" clip-rule="evenodd" d="M11.47 8.94126C11.6069 8.96505 11.5979 8.74493 11.708 8.58728C11.6128 8.70626 11.4403 8.85499 11.47 8.94126ZM11.4403 8.93233C11.3332 8.93828 11.3213 8.78063 11.3273 8.71519C11.354 8.78063 11.476 8.84012 11.4373 8.93531L11.4403 8.93233Z" fill="white" stroke="#BD6B00" stroke-width="0.0264409"/>
<path fill-rule="evenodd" clip-rule="evenodd" d="M11.6841 8.77173C11.6335 8.94128 11.5591 9.11083 11.4699 9.09894C11.4253 9.00077 11.5562 8.98887 11.6841 8.77173Z" fill="white" stroke="#BD6B00" stroke-width="0.0264409"/>
<path fill-rule="evenodd" clip-rule="evenodd" d="M11.4372 9.07219C11.4729 8.99783 11.348 8.96213 11.3242 8.86694C11.3093 9.00378 11.3212 9.09301 11.4372 9.07219ZM11.6484 8.96511C11.5741 9.11681 11.5414 9.29231 11.4402 9.26554C11.4015 9.14656 11.5533 9.12276 11.6484 8.96511Z" fill="white" stroke="#BD6B00" stroke-width="0.0264409"/>
<path fill-rule="evenodd" clip-rule="evenodd" d="M11.4195 9.23872C11.4641 9.15543 11.3391 9.12866 11.3064 9.0186C11.2915 9.16138 11.3064 9.26549 11.4195 9.23574V9.23872ZM11.2053 8.21248C11.1339 8.23033 11.0566 8.15001 11.0833 8.02806C11.1666 8.0459 11.2023 8.12324 11.2053 8.21248ZM11.4403 8.15001C11.4343 8.18571 11.3897 8.18868 11.4046 8.13812C11.4157 8.10532 11.4157 8.06978 11.4046 8.03698C11.3903 7.99249 11.3903 7.94463 11.4046 7.90015C11.4165 7.8704 11.4581 7.88825 11.4403 7.91205C11.4224 7.93882 11.4195 7.99533 11.4343 8.02211C11.4522 8.06078 11.4462 8.11134 11.4403 8.15001ZM10.7591 8.62595C10.7888 8.66462 10.8454 8.63785 10.8007 8.58133C10.765 8.53671 10.7115 8.49804 10.7115 8.45045C10.7056 8.39096 10.6728 8.30172 10.6401 8.269C10.6074 8.23628 10.5687 8.2809 10.6044 8.30469C10.6431 8.32849 10.6699 8.43558 10.6669 8.47722C10.6699 8.53671 10.7264 8.58133 10.7591 8.62595ZM10.8483 8.55753C10.8781 8.59918 10.9197 8.57241 10.8959 8.50697C10.8751 8.46235 10.8721 8.40286 10.8483 8.37013C10.8126 8.31957 10.7591 8.27792 10.7264 8.2452C10.6907 8.21546 10.6669 8.2452 10.6966 8.27495C10.7331 8.31137 10.766 8.35121 10.7948 8.39393C10.8364 8.45937 10.8186 8.51292 10.8483 8.55753ZM11.3153 8.34336C11.3183 8.40286 11.2707 8.41475 11.2737 8.33146C11.2737 8.24223 11.3391 8.15894 11.3034 8.02508C11.2796 7.95964 11.2796 7.83768 11.2915 7.77521C11.3034 7.70977 11.351 7.75142 11.3302 7.80198C11.3124 7.86148 11.3332 7.96856 11.3481 8.02508C11.3927 8.18571 11.3124 8.26305 11.3183 8.34336H11.3153ZM11.1874 8.01616C11.1934 8.07267 11.241 8.07565 11.2261 8.00128C11.2142 7.94179 11.2142 7.8942 11.2261 7.84363C11.244 7.78116 11.238 7.67408 11.2261 7.62946C11.2112 7.58186 11.1666 7.60864 11.1845 7.64433C11.2052 7.70056 11.2083 7.76179 11.1934 7.81983C11.1755 7.87932 11.1785 7.96261 11.1874 8.01913V8.01616ZM11.6515 9.11974C11.6277 9.14651 11.592 9.12866 11.6217 9.08999C11.6515 9.06024 11.6426 9.05429 11.6604 9.0186C11.6782 8.97695 11.6753 8.95613 11.6961 8.92936C11.7169 8.89961 11.7437 8.92936 11.7258 8.95018C11.702 8.97993 11.708 8.99778 11.6961 9.02455C11.6663 9.06917 11.6753 9.09296 11.6515 9.11974ZM11.0447 9.85149C11.0083 9.87158 10.9774 9.90023 10.9546 9.93496C10.9318 9.96968 10.9178 10.0094 10.9138 10.0508C10.9107 10.1249 10.8903 10.1972 10.8543 10.262C10.9138 10.2471 10.9435 10.1519 10.9524 10.0597C10.9614 9.96452 11.0119 9.92585 11.0417 9.85149H11.0447ZM10.893 10.027C10.8424 10.1192 10.774 10.1549 10.768 10.2233C10.7621 10.3036 10.7561 10.3066 10.7353 10.3839C10.7948 10.3691 10.8097 10.3631 10.8245 10.2441C10.8335 10.1608 10.9019 10.1043 10.893 10.027Z" fill="white" stroke="#BD6B00" stroke-width="0.0264409"/>
<path fill-rule="evenodd" clip-rule="evenodd" d="M9.32834 10.8837C9.2986 10.9372 9.26885 11.0175 9.20936 11.0027C9.20936 10.964 9.27183 10.9342 9.32834 10.8837ZM9.23911 10.9015C9.12905 10.9491 9.03088 10.9372 9.01601 11.0086C9.1231 11.0205 9.16474 10.9789 9.24208 10.9015H9.23911ZM9.71802 10.5237C9.6441 10.5812 9.59171 10.6619 9.56929 10.7528C9.54531 10.835 9.50922 10.9132 9.4622 10.9848C9.53956 10.9328 9.59555 10.8547 9.61986 10.7647C9.64068 10.6754 9.66745 10.607 9.71802 10.5267V10.5237ZM9.6258 10.5237C9.54252 10.5892 9.46518 10.6665 9.44138 10.7587C9.41758 10.845 9.40271 10.9104 9.34619 10.9967C9.43543 10.9402 9.46815 10.8569 9.49492 10.7647C9.51574 10.6754 9.56929 10.61 9.6258 10.5267V10.5237ZM9.35214 10.7409C9.35331 10.7335 9.35187 10.7258 9.34808 10.7193C9.34429 10.7128 9.33837 10.7078 9.33132 10.7052C9.30587 10.6962 9.28007 10.6883 9.25398 10.6814C9.22423 10.6725 9.20639 10.6933 9.20639 10.7082V10.7677C9.20639 10.7885 9.21233 10.7915 9.22721 10.7944C9.24803 10.7974 9.27778 10.8004 9.2986 10.8153C9.31645 10.8272 9.33429 10.8182 9.34322 10.8004L9.35214 10.7409ZM9.03683 10.7409C9.03683 10.723 9.04278 10.7082 9.05468 10.7052C9.07726 10.6958 9.10168 10.6918 9.12607 10.6933C9.15582 10.6933 9.15879 10.6992 9.15879 10.7111V10.7736C9.15879 10.7974 9.15879 10.7974 9.14689 10.8034C9.12607 10.8034 9.09335 10.8034 9.07253 10.8212C9.05765 10.8301 9.04278 10.8212 9.03981 10.8034L9.03683 10.7409Z" fill="white"/>
<path fill-rule="evenodd" clip-rule="evenodd" d="M9.84894 11.5768C9.84894 11.6125 9.85489 11.6422 9.87869 11.669C9.74261 11.6279 9.59604 11.6396 9.46819 11.7017C9.41465 11.7255 9.34921 11.672 9.41168 11.6214C9.50091 11.553 9.70021 11.5917 9.84894 11.5768ZM8.13854 11.5768C8.14113 11.6071 8.13707 11.6375 8.12665 11.666C8.25753 11.6155 8.39734 11.6601 8.53119 11.7136C8.62043 11.7523 8.62935 11.6839 8.61448 11.6631C8.59802 11.6382 8.57603 11.6174 8.55023 11.6025C8.52443 11.5875 8.49552 11.5787 8.46575 11.5768H8.13854ZM8.25158 10.9313C8.21291 10.9164 8.17127 10.9313 8.1326 10.9729C8.00469 11.0979 7.85298 11.2198 7.73102 11.318C7.6864 11.3567 7.64179 11.4281 7.83216 11.4965C7.84108 11.5024 7.98089 11.556 8.07013 11.556C8.1088 11.556 8.1088 11.6095 8.09988 11.6244C8.085 11.6541 8.0969 11.666 8.06715 11.6928C8.03443 11.7225 8.06715 11.7553 8.0969 11.7315C8.20399 11.6363 8.38246 11.6988 8.55201 11.7523C8.59366 11.7642 8.66505 11.7612 8.66505 11.7047C8.66505 11.6452 8.70967 11.6036 8.73644 11.6006C8.80783 11.6125 9.15289 11.6155 9.257 11.6036C9.31649 11.5946 9.32244 11.6898 9.35516 11.7225C9.37896 11.7493 9.46522 11.7553 9.52769 11.7285C9.64667 11.675 9.82515 11.675 9.89951 11.7285C9.92926 11.7493 9.95603 11.7285 9.93818 11.7077C9.91438 11.6779 9.91736 11.6601 9.90546 11.6363C9.87571 11.5768 9.89951 11.5649 9.92926 11.5619C10.2565 11.5173 10.3635 11.4072 10.2624 11.315C10.1315 11.202 9.98875 11.086 9.86382 10.9521C9.82812 10.9164 9.80432 10.9016 9.73591 10.9313C9.49903 11.0387 9.24329 11.0984 8.98333 11.1068C8.7315 11.0905 8.48416 11.0322 8.25158 10.9343V10.9313Z" fill="white"/>
<path fill-rule="evenodd" clip-rule="evenodd" d="M9.79248 10.9492L9.74488 10.9611C9.47717 11.0562 9.23325 11.1217 8.98041 11.1217C8.73352 11.1217 8.47473 11.0503 8.23973 10.9551C8.22528 10.9501 8.20957 10.9501 8.19511 10.9551C8.18024 10.9581 8.16537 10.967 8.15644 10.9759C8.04651 11.0859 7.92924 11.1882 7.80544 11.2823C7.78462 11.2972 7.78759 11.3359 7.82031 11.3478C8.0672 11.437 8.30815 11.6006 8.99826 11.5946C9.69729 11.5887 9.94418 11.4281 10.1643 11.3537C10.1792 11.3478 10.194 11.3388 10.203 11.324C10.2051 11.3204 10.2065 11.3165 10.207 11.3124C10.2075 11.3083 10.2071 11.3041 10.2059 11.3002C10.2021 11.2908 10.196 11.2827 10.1881 11.2764C10.0602 11.1723 9.92633 11.089 9.8371 10.967C9.82817 10.9521 9.81032 10.9492 9.79248 10.9521V10.9492ZM9.79248 10.964C9.80735 10.964 9.82222 10.964 9.8252 10.973C9.91444 11.1009 10.0542 11.1812 10.1792 11.2853L10.1911 11.3061C10.1919 11.308 10.1923 11.31 10.1923 11.3121C10.1923 11.3141 10.1919 11.3161 10.1911 11.318C10.1881 11.3269 10.1732 11.3359 10.1613 11.3388C9.93526 11.4162 9.69431 11.5768 9.00123 11.5827C8.31112 11.5887 8.07315 11.4251 7.82626 11.3359C7.80247 11.324 7.80544 11.3002 7.81436 11.2942C7.9393 11.199 8.05828 11.0919 8.16537 10.9849C8.17458 10.9762 8.18584 10.9701 8.19809 10.967H8.23378C8.46887 11.0691 8.72124 11.1257 8.97743 11.1336C9.23623 11.1336 9.48312 11.0681 9.75083 10.9759C9.76519 10.9702 9.78017 10.9663 9.79545 10.964H9.79248Z" fill="#BD6B00"/>
<path fill-rule="evenodd" clip-rule="evenodd" d="M8.09995 6.46047C8.09995 6.41883 8.15944 6.41585 8.15349 6.47237C8.14457 6.54079 8.28735 6.71926 8.29925 6.82932C8.30817 6.90369 8.25463 6.96616 8.20406 7.0078C8.17489 7.02846 8.14064 7.04076 8.10499 7.04338C8.06935 7.046 8.03366 7.03884 8.00179 7.02267C7.97501 6.99888 7.95122 6.92451 7.97204 6.89476C7.97799 6.88584 8.01071 7.00483 8.0821 7.00483C8.18026 7.00483 8.26058 6.93046 8.26058 6.86502C8.26653 6.75198 8.10292 6.57351 8.09995 6.46047ZM8.38254 6.74009C8.40038 6.72819 8.42418 6.77876 8.40633 6.79065C8.39146 6.79958 8.36171 6.75198 8.38254 6.73711V6.74009ZM8.42716 6.63597C8.41823 6.64192 8.40336 6.63597 8.40633 6.63003C8.43492 6.59031 8.47137 6.5569 8.51342 6.53186C8.52532 6.52591 8.54316 6.54376 8.53722 6.55269C8.50687 6.58796 8.46935 6.61635 8.42716 6.63597ZM8.80195 6.33851C8.81088 6.32067 8.86442 6.29984 8.87929 6.28795C8.89119 6.27307 8.89714 6.29984 8.89119 6.30877C8.88227 6.32959 8.83468 6.35934 8.81385 6.36231C8.80493 6.36231 8.79601 6.35041 8.80195 6.34149V6.33851ZM8.92986 6.34744C8.94552 6.30788 8.97114 6.27304 9.00423 6.2463C9.0191 6.23738 9.0429 6.2463 9.03695 6.2582C9.01674 6.29754 8.98711 6.33127 8.95069 6.35636C8.94176 6.36529 8.92689 6.35636 8.92986 6.34744ZM8.8198 6.42775C8.81088 6.4337 8.81683 6.44857 8.82278 6.45155C8.84063 6.4575 8.8674 6.4575 8.88227 6.45155C8.90012 6.43965 8.89119 6.36529 8.8674 6.40395C8.84955 6.42775 8.83765 6.4218 8.8198 6.42775ZM8.60266 6.59433C8.56399 6.56458 8.61455 6.52294 8.65322 6.55269C8.73354 6.61218 8.53424 6.8442 8.42716 6.95128C8.40633 6.9721 8.38848 6.92154 8.41526 6.89476C8.4927 6.82988 8.55989 6.75366 8.61456 6.66869C8.62645 6.65382 8.63538 6.6211 8.60266 6.59433ZM9.05777 6.39801C9.06075 6.36826 9.01018 6.39801 9.01018 6.35934C9.01018 6.33851 9.0667 6.32364 9.09049 6.34744C9.12916 6.38908 9.09942 6.4575 9.031 6.46345C8.97746 6.46345 8.88227 6.54376 8.89714 6.55863C8.91202 6.57946 9.05777 6.59136 9.14403 6.57946C9.19758 6.57053 9.18568 6.61813 9.13214 6.62408C9.07859 6.63002 9.03695 6.62408 8.98936 6.64192C8.92986 6.6568 8.90607 6.73116 8.87335 6.76091C8.8674 6.76686 8.84955 6.73711 8.8555 6.72521C8.8793 6.68952 8.91499 6.63597 8.95663 6.61813C8.98043 6.6092 8.88524 6.60623 8.8555 6.5973C8.8317 6.59136 8.83765 6.55863 8.84657 6.54079C8.85847 6.51699 8.94771 6.42478 8.98638 6.42775C9.0191 6.42775 9.0548 6.41883 9.05777 6.39801ZM9.2065 6.40395C9.22435 6.38908 9.23625 6.36529 9.25112 6.35041C9.26004 6.34149 9.27789 6.35041 9.27492 6.37421C9.27194 6.39503 9.24517 6.4099 9.2303 6.42478C9.21543 6.4337 9.20055 6.41288 9.20948 6.40395H9.2065ZM9.39985 6.33554C9.42662 6.33554 9.4296 6.38313 9.4058 6.38908C9.38795 6.39503 9.37605 6.33851 9.39985 6.33554ZM9.33738 6.48427C9.33738 6.52889 9.35821 6.52591 9.39688 6.52294C9.43555 6.52294 9.46827 6.52294 9.46827 6.48724C9.46827 6.44857 9.44744 6.41288 9.43852 6.43965C9.43555 6.46345 9.4296 6.50509 9.41472 6.48724C9.40283 6.47237 9.40877 6.4694 9.38498 6.49319C9.3701 6.50807 9.3701 6.48724 9.36118 6.47535C9.35523 6.46642 9.33738 6.48129 9.33738 6.48724V6.48427ZM9.06372 6.69844C9.0548 6.75496 9.06372 6.8323 9.09049 6.8323C9.12619 6.8323 9.19758 6.71331 9.23327 6.64787C9.25409 6.61218 9.28682 6.60623 9.27194 6.6449C9.25112 6.70142 9.2541 6.82337 9.27194 6.85907C9.28384 6.87692 9.36118 6.84122 9.37308 6.81445C9.39688 6.76388 9.37605 6.67167 9.38498 6.61515C9.38795 6.57946 9.42365 6.57053 9.42067 6.60623C9.41599 6.6805 9.415 6.75496 9.4177 6.82932C9.4177 6.85907 9.50396 6.90071 9.51586 6.81148C9.52181 6.75793 9.55156 6.70142 9.51586 6.64192C9.49206 6.60325 9.54858 6.60623 9.57833 6.65977C9.59915 6.69547 9.56048 6.75496 9.56345 6.79958C9.56345 6.87097 9.50991 6.91261 9.47124 6.91261C9.43555 6.91261 9.41175 6.86799 9.382 6.86799C9.35226 6.86799 9.31656 6.91856 9.29276 6.91559C9.18568 6.90964 9.2422 6.75793 9.20948 6.75496C9.17378 6.75496 9.13511 6.90369 9.09049 6.90071C9.04885 6.89476 9.00125 6.77578 9.02208 6.72819C9.03695 6.68059 9.0667 6.66869 9.06372 6.69844ZM9.56643 6.46047C9.51586 6.43073 9.56643 6.35041 9.5932 6.37718C9.64079 6.43668 9.68839 6.57053 9.72408 6.58243C9.7449 6.58838 9.74193 6.48129 9.7568 6.4337C9.7687 6.39503 9.81035 6.40693 9.8044 6.45452C9.80142 6.4694 9.74491 6.6449 9.75085 6.65085C9.79048 6.72508 9.82333 6.80274 9.84902 6.88287C9.85794 6.91856 9.8163 6.89476 9.81035 6.88882C9.78358 6.84717 9.73896 6.69547 9.73896 6.70439L9.68839 6.93343C9.68244 6.96318 9.63782 6.95723 9.64972 6.90369C9.65864 6.86204 9.71813 6.6568 9.71516 6.64787C9.68109 6.57453 9.63012 6.51031 9.56643 6.46047Z" fill="white"/>
<path fill-rule="evenodd" clip-rule="evenodd" d="M9.65564 6.95425C9.64374 6.95425 9.61995 6.984 9.69134 6.99887C9.78355 7.01672 9.88766 6.984 9.9174 6.89179C9.95607 6.78173 9.9769 6.67761 9.99772 6.63894C10.0215 6.59433 10.0513 6.5973 10.0275 6.53186C10.0126 6.48129 9.98285 6.49616 9.9769 6.52294C9.96202 6.59135 9.89956 6.8204 9.87874 6.85907C9.84304 6.93641 9.76868 6.96615 9.65564 6.95425Z" fill="white"/>
<path fill-rule="evenodd" clip-rule="evenodd" d="M9.84611 6.59135C9.83422 6.57053 9.81042 6.59135 9.81637 6.61218C9.81779 6.62058 9.82217 6.6282 9.82871 6.63365C9.83526 6.63911 9.84354 6.64204 9.85206 6.64192C9.87289 6.64192 9.91751 6.6449 9.91751 6.61218C9.91751 6.58838 9.89668 6.56756 9.88479 6.59433C9.86991 6.61813 9.85504 6.61515 9.84611 6.59433V6.59135ZM9.86694 6.50212C9.86099 6.50807 9.86694 6.53484 9.87586 6.53186C9.91004 6.53211 9.94375 6.52393 9.97402 6.50807C9.97997 6.50212 9.977 6.48724 9.96807 6.48724C9.93833 6.48724 9.89073 6.48724 9.86694 6.50212ZM10.1287 6.57053C10.1525 6.53484 10.212 6.53186 10.1882 6.58243C10.1271 6.70509 10.0646 6.82706 10.0008 6.94831C9.977 6.98995 9.95915 6.96913 9.977 6.93641C9.99782 6.89476 10.1228 6.57946 10.1287 6.57053Z" fill="white"/>
<path fill-rule="evenodd" clip-rule="evenodd" d="M9.89964 7.00781C9.89369 6.98401 9.85502 6.94832 9.86097 7.01376C9.86692 7.1268 10.0246 7.0911 10.0692 7.05243C10.1138 7.01376 10.0781 7.18034 10.1346 7.19819C10.1644 7.20711 10.2239 7.16547 10.2536 7.1268C10.3339 7.02268 10.3875 6.87098 10.4618 6.76984C10.4916 6.7282 10.447 6.69845 10.4321 6.73117C10.3607 6.84421 10.2774 7.07623 10.1852 7.13572C10.1108 7.18331 10.1346 7.07623 10.1317 7.04053C10.1287 7.01674 10.0989 6.98104 10.0603 7.01376C10.0292 7.03867 9.99002 7.05136 9.95021 7.04946C9.92939 7.04946 9.90857 7.04946 9.89964 7.00781Z" fill="white"/>
<path fill-rule="evenodd" clip-rule="evenodd" d="M10.1792 6.79958C10.1792 6.79065 10.1464 6.78768 10.1494 6.8204C10.1494 6.84419 10.1792 6.85014 10.1821 6.85014C10.2268 6.81445 10.1732 6.8323 10.1792 6.7966V6.79958ZM10.1107 6.93046C10.1018 6.93046 10.0929 6.9602 10.1167 6.96318L10.2327 6.95723C10.2446 6.95723 10.2505 6.93046 10.2208 6.93343C10.1851 6.93343 10.1405 6.92451 10.1107 6.93343V6.93046ZM8.26649 6.43667C8.28136 6.43667 8.31408 6.47832 8.31111 6.49319C8.31111 6.49914 8.27541 6.49319 8.26649 6.48427C8.25756 6.47534 8.26054 6.43667 8.26649 6.43667ZM8.10883 6.74603C8.07909 6.76388 8.11478 6.7966 8.13858 6.78173C8.22187 6.72521 8.3468 6.66869 8.37655 6.55863C8.38547 6.52294 8.41819 6.46642 8.45091 6.45452C8.48066 6.43965 8.52825 6.51104 8.558 6.45452C8.57585 6.42478 8.63831 6.47534 8.65319 6.44262C8.67103 6.40395 8.66211 6.38313 8.66211 6.34149C8.66211 6.31769 8.64129 6.31174 8.62641 6.35041C8.62047 6.36826 8.62641 6.38611 8.62344 6.398C8.61749 6.40395 8.60559 6.4099 8.59369 6.40395C8.58774 6.398 8.59369 6.38313 8.57585 6.37421C8.5699 6.37421 8.558 6.37123 8.55205 6.38016C8.53123 6.41883 8.5223 6.45452 8.48958 6.4099C8.46281 6.38016 8.44794 6.31769 8.43009 6.40098C8.42414 6.43072 8.37952 6.47237 8.35275 6.47237C8.32003 6.47237 8.32895 6.38313 8.25756 6.398C8.21889 6.40693 8.22187 6.47832 8.22782 6.50211C8.23674 6.54078 8.3468 6.51401 8.33788 6.53781C8.32003 6.61812 8.207 6.69844 8.10883 6.74603ZM7.4336 7.13868C7.43062 7.15355 7.44847 7.18925 7.46632 7.19222C7.48417 7.19222 7.49606 7.15355 7.49012 7.13868C7.48417 7.12976 7.43657 7.12976 7.4336 7.13868ZM7.53176 7.28444C7.51986 7.27254 7.48417 7.30526 7.51391 7.32906C7.52879 7.34393 7.58828 7.36178 7.60315 7.335C7.62695 7.29931 7.58233 7.1714 7.60315 7.15653C7.61802 7.14166 7.68644 7.23982 7.72213 7.24577C7.80245 7.25766 7.78163 7.10893 7.87086 7.12083C7.92738 7.12678 7.93333 7.05539 7.92441 7.0078C7.91846 6.96318 7.84707 6.90071 7.81435 6.87097C7.7727 6.83527 7.75188 6.90071 7.77865 6.91856C7.81435 6.94831 7.87681 7.00482 7.88574 7.04052C7.88871 7.05837 7.84409 7.09406 7.82625 7.08514C7.7846 7.06134 7.74891 6.96615 7.71321 6.94533C7.70131 6.93938 7.67157 6.95425 7.68346 6.984C7.70131 7.01672 7.7727 7.06432 7.77568 7.10001C7.77865 7.12976 7.74593 7.1952 7.72213 7.1952C7.69536 7.1952 7.6329 7.11488 7.61207 7.07621C7.60018 7.06134 7.56746 7.06134 7.56151 7.08811C7.55957 7.14305 7.56457 7.19802 7.57638 7.25172C7.58233 7.29931 7.54961 7.30228 7.53176 7.28444ZM7.41278 7.02862C7.40088 7.04052 7.43657 7.06432 7.44252 7.05837C7.45442 7.04647 7.50499 6.98995 7.49606 6.96913C7.48714 6.95128 7.41872 6.90964 7.40683 6.93046C7.386 6.96318 7.47227 6.98103 7.45739 6.98995C7.44076 7.00066 7.42574 7.01368 7.41278 7.02862ZM7.53473 6.77875C7.53473 6.77875 7.55853 6.85312 7.57638 6.8204C7.58828 6.79958 7.53473 6.77875 7.53473 6.77875ZM7.57043 6.89774C7.56448 6.89774 7.54068 6.91856 7.55556 6.92748C7.57935 6.93938 7.64182 6.95128 7.62695 6.90666C7.61802 6.87989 7.72213 6.90666 7.69536 6.83527C7.68461 6.81326 7.66681 6.79546 7.64479 6.7847C7.6329 6.7847 7.60018 6.79958 7.621 6.81147C7.63587 6.81742 7.68049 6.84419 7.66562 6.86204C7.64479 6.87989 7.6329 6.85312 7.6091 6.85907C7.5972 6.85907 7.60612 6.89476 7.5972 6.90369C7.5972 6.90964 7.57638 6.89179 7.57043 6.89476V6.89774ZM7.73403 6.61515C7.71568 6.63032 7.70308 6.65131 7.69834 6.67464C7.69834 6.68059 7.70726 6.69249 7.71321 6.68952C7.73155 6.67561 7.74423 6.65553 7.74891 6.633C7.74891 6.62407 7.74296 6.6092 7.73403 6.61515ZM7.81732 6.60623C7.79353 6.57648 7.84707 6.52889 7.86789 6.59135C7.88276 6.63002 8.03149 6.82635 8.06124 6.89179C8.08504 6.93641 8.06124 6.95426 8.03447 6.92153C7.9601 6.82635 7.89764 6.70736 7.81732 6.60623ZM7.972 6.6092C7.99877 6.57945 8.05232 6.51996 8.03744 6.49022C8.02554 6.46047 7.99282 6.46047 7.98687 6.46939C7.95713 6.50806 8.01067 6.49914 8.00175 6.51104C7.98687 6.54078 7.972 6.55863 7.96308 6.58838C7.9601 6.5973 7.96605 6.61515 7.972 6.6092ZM10.2862 6.70439C10.2654 6.68952 10.3041 6.61515 10.3309 6.6449C10.3993 6.72521 10.432 6.98995 10.4528 7.18925C10.4528 7.18925 10.4231 7.21602 10.4231 7.21007C10.4231 7.10596 10.3785 6.78173 10.2862 6.70439ZM8.70673 6.44857C8.68293 6.39503 8.73945 6.37718 8.74837 6.41288C8.78704 6.5854 8.88223 6.71629 8.9566 6.8323C8.97742 6.86799 8.9566 6.89179 8.90603 6.85609C8.87033 6.8323 8.83166 6.74008 8.81679 6.73711C8.78109 6.73116 8.70375 6.88584 8.5461 6.84122C8.50446 6.82932 8.50743 6.70736 8.50446 6.65382C8.50446 6.62705 8.5342 6.62407 8.5342 6.65382C8.5342 6.70439 8.5342 6.8085 8.59667 6.81445C8.65021 6.81445 8.76325 6.74306 8.78704 6.68357C8.81084 6.62407 8.73053 6.50806 8.70673 6.4456V6.44857Z" fill="white"/>
<path fill-rule="evenodd" clip-rule="evenodd" d="M10.328 7.16844C10.3399 7.13274 10.5094 6.84718 10.5332 6.78471C10.5451 6.75497 10.5927 6.83826 10.5451 6.88288C10.5035 6.91857 10.3815 7.12085 10.3577 7.19224C10.3458 7.22198 10.3161 7.20711 10.328 7.16844Z" fill="white"/>
<path fill-rule="evenodd" clip-rule="evenodd" d="M10.6164 6.89774C10.6462 6.77876 10.7235 6.91559 10.6551 6.98103C10.5539 7.08217 10.5212 7.27551 10.3576 7.30526C10.316 7.31418 10.2386 7.28444 10.2148 7.26659C10.2059 7.26064 10.2208 7.219 10.2476 7.23982C10.2862 7.26957 10.3695 7.27849 10.4141 7.24279C10.5113 7.14803 10.5812 7.02884 10.6164 6.89774ZM8.92088 7.27551C8.91196 7.28444 8.89114 7.28444 8.88816 7.29634C8.87924 7.33798 8.88816 7.36178 8.87924 7.40342C8.87032 7.44507 8.84057 7.44507 8.84355 7.41235C8.84355 7.3707 8.88222 7.30823 8.85544 7.30526C8.8376 7.30229 8.8257 7.27849 8.84355 7.26659C8.87627 7.24577 8.89411 7.24874 8.91494 7.25469C8.92386 7.25767 8.92683 7.26956 8.92088 7.27551Z" fill="white"/>
<path fill-rule="evenodd" clip-rule="evenodd" d="M8.89701 7.21602C8.85537 7.25767 8.81372 7.27254 8.77505 7.32013C8.7572 7.33798 8.76018 7.36475 8.74828 7.39152C8.73936 7.4183 8.70664 7.42127 8.69771 7.4183C8.68284 7.4064 8.68581 7.3588 8.66797 7.3826C8.65012 7.40937 8.64119 7.44209 8.6174 7.44209C8.59658 7.44209 8.5579 7.39747 8.57873 7.39747C8.64714 7.38855 8.64417 7.33798 8.66797 7.33203C8.69771 7.32906 8.69771 7.37665 8.71853 7.36773C8.73043 7.36178 8.73936 7.30526 8.75423 7.29039C8.79885 7.24279 8.83454 7.219 8.88214 7.1833C8.90296 7.16545 8.92081 7.19818 8.89701 7.219V7.21602ZM9.05466 7.36475C9.01897 7.3707 9.02492 7.41532 9.03682 7.4183C9.05169 7.42722 9.07846 7.43019 9.08738 7.37963C9.09333 7.3588 9.09631 7.48374 9.14093 7.43614C9.17067 7.4064 9.23314 7.44209 9.25991 7.4064C9.28073 7.37963 9.28966 7.36178 9.27181 7.32608C9.26586 7.31716 9.24206 7.32013 9.24206 7.34691C9.24206 7.3707 9.22719 7.39747 9.20339 7.3945C9.1915 7.39152 9.20934 7.33798 9.19745 7.32311C9.19467 7.32038 9.19093 7.31886 9.18703 7.31886C9.18314 7.31886 9.1794 7.32038 9.17662 7.32311C9.1677 7.33501 9.18555 7.38855 9.15878 7.3945C9.12308 7.40045 9.14093 7.3588 9.12903 7.35285C9.07846 7.32906 9.07549 7.3588 9.05466 7.36178V7.36475ZM9.32238 7.27551C9.34915 7.26957 9.34023 7.26957 9.38187 7.23684C9.39674 7.22495 9.39972 7.26064 9.39674 7.27551C9.39674 7.29634 9.367 7.28146 9.35807 7.30229C9.34618 7.32906 9.35213 7.39152 9.34618 7.41532C9.34618 7.42722 9.32238 7.42722 9.32238 7.41532C9.31643 7.38558 9.32535 7.35583 9.32238 7.31716C9.32238 7.30526 9.30751 7.28444 9.32238 7.27849V7.27551ZM9.17365 7.20115C9.1677 7.22792 9.1677 7.24874 9.1677 7.26957C9.1677 7.28444 9.19745 7.27551 9.19745 7.27254C9.19745 7.24874 9.20339 7.21305 9.19745 7.20412C9.1915 7.20115 9.17662 7.1952 9.17365 7.20115Z" fill="white"/>
<path fill-rule="evenodd" clip-rule="evenodd" d="M8.98637 6.9245L8.94473 7.09108L8.88524 6.97804V7.09405L8.75435 6.93937L8.79897 7.10595L8.67999 7.00481L8.74543 7.11785L8.53721 6.98399L8.66809 7.13867L8.50151 7.05538L8.6205 7.15652L8.35278 7.05538L8.61157 7.18329C8.72914 7.12977 8.85723 7.10334 8.98637 7.10595C9.13213 7.10595 9.26301 7.1357 9.3582 7.18329L9.61996 7.05538L9.35225 7.15652L9.47123 7.05538L9.30763 7.13867L9.43554 6.98399L9.22732 7.11785L9.29276 7.00481L9.17377 7.10298L9.21839 6.93937L9.09048 7.09405V6.97804L9.03099 7.09108L8.98637 6.9245Z" fill="white"/>
<path d="M8.75386 10.5363L8.75034 10.6137H8.73628V10.5609C8.733 10.5453 8.7283 10.53 8.72222 10.5152C8.7175 10.503 8.71162 10.4912 8.70464 10.4801C8.69605 10.4666 8.68666 10.4537 8.67651 10.4414L8.70112 10.3781C8.71897 10.3985 8.73216 10.4225 8.7398 10.4484C8.75063 10.4765 8.75657 10.5062 8.75737 10.5363M8.95073 10.4168C8.95073 10.4379 8.94722 10.4519 8.94019 10.459C8.93315 10.4695 8.91909 10.4766 8.90503 10.4801L8.91206 10.5187C8.91528 10.5385 8.91528 10.5587 8.91206 10.5785V10.6137H8.898V10.5785C8.89654 10.5689 8.89419 10.5595 8.89097 10.5504C8.88759 10.541 8.88407 10.5316 8.88042 10.5223C8.87452 10.5077 8.86747 10.4935 8.85933 10.4801L8.8312 10.4344L8.84878 10.3781L8.8769 10.4098L8.90151 10.4168C8.92612 10.4168 8.93667 10.4062 8.93667 10.3816H8.94722C8.94703 10.3875 8.94703 10.3933 8.94722 10.3992V10.4168M9.12651 10.5539L9.11245 10.6137L9.09136 10.5926C9.0861 10.5814 9.08255 10.5696 9.08081 10.5574C9.07965 10.541 9.07965 10.5246 9.08081 10.5082C9.0705 10.511 9.05983 10.5121 9.04917 10.5117C9.03511 10.5117 9.02456 10.5117 9.01401 10.5012C9.00965 10.4979 9.0061 10.4936 9.00366 10.4888C9.00122 10.4839 8.99995 10.4785 8.99995 10.473C8.99995 10.4484 9.00698 10.4273 9.02105 10.4098C9.03159 10.3887 9.04565 10.3781 9.06323 10.3781C9.07378 10.3781 9.08433 10.3816 9.08784 10.3887L9.09839 10.4168V10.473C9.09839 10.4976 9.09839 10.5152 9.10542 10.5223C9.10542 10.5328 9.11597 10.5398 9.12651 10.5539ZM9.07378 10.4519C9.07378 10.4379 9.06323 10.4308 9.04917 10.4308C9.04426 10.4308 9.03941 10.432 9.03511 10.4344C9.02808 10.4379 9.02808 10.4414 9.02808 10.4449C9.02808 10.4519 9.03511 10.4555 9.0562 10.4555C9.06204 10.4561 9.06794 10.4561 9.07378 10.4555M9.31636 10.5363L9.30933 10.6101C9.29526 10.5996 9.2812 10.582 9.27065 10.5574C9.25442 10.5199 9.24148 10.4811 9.23198 10.4414C9.22393 10.4769 9.21455 10.5121 9.20386 10.5469L9.18276 10.5926C9.17732 10.601 9.17013 10.6082 9.16167 10.6137V10.5433L9.18979 10.5012C9.19889 10.4857 9.20598 10.4692 9.21089 10.4519C9.21588 10.4287 9.21941 10.4053 9.22144 10.3816H9.2355L9.26011 10.4519C9.27251 10.4838 9.2917 10.5126 9.31636 10.5363Z" fill="white"/>
<path d="M9.86133 11.2219C9.87188 11.2324 9.87891 11.243 9.88242 11.257L9.88945 11.2992H9.86836C9.86154 11.2855 9.85329 11.2725 9.84375 11.2605C9.83258 11.2483 9.82085 11.2366 9.80859 11.2254L9.76289 11.1832C9.74472 11.1673 9.72596 11.152 9.70664 11.1375L9.68906 11.1234L9.68203 11.1023C9.67976 11.0872 9.67858 11.0719 9.67852 11.0566L9.75234 11.1164C9.77658 11.1366 9.80003 11.1577 9.82266 11.1797L9.86133 11.2219ZM9.59414 11.0602L9.59062 11.1164L9.50273 11.1129L9.50977 11.0566H9.59414M9.82969 11.3063L9.61875 11.373L9.57656 11.3168L9.75938 11.2641C9.75408 11.2555 9.74821 11.2472 9.7418 11.2395L9.71719 11.2219C9.71694 11.2273 9.71557 11.2326 9.71314 11.2374C9.71072 11.2423 9.70731 11.2466 9.70312 11.25C9.69529 11.258 9.68564 11.264 9.675 11.2676C9.65888 11.2719 9.6419 11.2719 9.62578 11.2676C9.6082 11.2676 9.59766 11.257 9.59062 11.2465C9.57907 11.2287 9.57297 11.2079 9.57305 11.1867C9.57305 11.1586 9.58008 11.141 9.59414 11.134C9.61523 11.127 9.64336 11.134 9.68203 11.1516C9.71545 11.1678 9.74442 11.1919 9.76641 11.2219L9.82969 11.3063ZM9.66445 11.1937C9.65768 11.1907 9.65061 11.1883 9.64336 11.1867C9.63762 11.1851 9.63152 11.1851 9.62578 11.1867C9.62272 11.1871 9.61981 11.1883 9.61734 11.1901C9.61487 11.192 9.61293 11.1944 9.61172 11.1973C9.61048 11.1994 9.60983 11.2018 9.60983 11.2043C9.60983 11.2068 9.61048 11.2092 9.61172 11.2113L9.62578 11.2184H9.64336C9.64766 11.2157 9.65128 11.2121 9.65391 11.2078L9.66445 11.1937ZM9.43945 11.1516L9.42539 11.2078L9.3375 11.1973L9.35156 11.1445L9.43945 11.1516ZM9.65039 11.3625L9.60117 11.3766C9.58488 11.3793 9.56824 11.3793 9.55195 11.3766C9.53728 11.3762 9.52287 11.3726 9.50977 11.366C9.50273 11.3801 9.48867 11.3906 9.47109 11.4012C9.45645 11.4076 9.44112 11.4123 9.42539 11.4152L9.39023 11.4258L9.36211 11.3695L9.39727 11.3625L9.43242 11.352L9.45352 11.3379C9.44573 11.3325 9.4375 11.3278 9.42891 11.3238C9.42241 11.3205 9.41504 11.3193 9.40781 11.3203C9.40554 11.3195 9.40306 11.3195 9.40078 11.3203C9.3997 11.3237 9.3997 11.3274 9.40078 11.3309H9.3832C9.36914 11.3062 9.36563 11.2887 9.37266 11.2746C9.3832 11.2605 9.40078 11.25 9.42891 11.243C9.45703 11.2359 9.48164 11.2359 9.50273 11.243C9.52383 11.243 9.53789 11.2535 9.54492 11.2641C9.54844 11.2711 9.55195 11.2781 9.54844 11.2852C9.54844 11.2922 9.54844 11.3027 9.53789 11.3203C9.54931 11.3241 9.56163 11.3241 9.57305 11.3203L9.61875 11.3098L9.64687 11.366M9.42188 11.4187L9.37617 11.4258C9.35156 11.4258 9.33047 11.4258 9.31289 11.4117C9.29133 11.3931 9.27549 11.3687 9.26719 11.3414L9.24609 11.2816C9.24271 11.2681 9.23537 11.2558 9.225 11.2465L9.19688 11.2359L9.21445 11.1762L9.25313 11.2078L9.28125 11.2535L9.29531 11.2957C9.30295 11.3178 9.3149 11.3381 9.33047 11.3555C9.3375 11.366 9.34453 11.3695 9.35508 11.366L9.40078 11.359L9.42188 11.4187ZM9.22852 11.2078L9.19688 11.2605L9.11602 11.2395L9.14414 11.1867L9.22852 11.2078ZM9.27773 11.4434L9.0668 11.4609L9.05625 11.4047L9.23203 11.3871C9.22713 11.3773 9.21988 11.3688 9.21094 11.3625C9.20204 11.3559 9.19263 11.35 9.18281 11.3449L9.20039 11.2922C9.21797 11.3027 9.23555 11.3133 9.24258 11.3273C9.24961 11.3414 9.26016 11.3625 9.26367 11.3871L9.27773 11.4434ZM9.10898 11.4715C9.08775 11.4706 9.06661 11.4683 9.0457 11.4645C9.03011 11.461 9.01482 11.4563 9 11.4504C8.98873 11.4553 8.97693 11.4588 8.96484 11.4609H8.85938C8.8418 11.4609 8.83125 11.4609 8.82422 11.4539L8.80312 11.4258C8.78994 11.4373 8.77432 11.4457 8.75742 11.4504C8.74268 11.4552 8.72724 11.4576 8.71172 11.4574H8.6625L8.66953 11.3941L8.71523 11.3977C8.73984 11.3977 8.76094 11.3977 8.775 11.3871C8.79609 11.3766 8.81016 11.359 8.81016 11.3379H8.83125C8.82982 11.3496 8.82865 11.3613 8.82773 11.373C8.82773 11.3836 8.82773 11.3906 8.83828 11.3941L8.86289 11.4012H8.96484C8.97891 11.3941 8.98594 11.3836 8.98945 11.366L8.99297 11.3555C8.99745 11.3527 9.00215 11.3504 9.00703 11.3484L9.02109 11.3449V11.366L9.01055 11.3941C9.02973 11.4015 9.04984 11.4063 9.07031 11.4082C9.07031 11.4047 9.07031 11.3977 9.06328 11.3906C9.06328 11.3801 9.05625 11.3766 9.05625 11.373C9.05673 11.3704 9.05795 11.368 9.05977 11.366L9.07031 11.359L9.09844 11.3344L9.10898 11.359C9.10898 11.366 9.1125 11.3766 9.10898 11.3871L9.10547 11.4715M8.78906 11.2254L8.73633 11.2605L8.69766 11.2395L8.65898 11.2676L8.60625 11.2359L8.65547 11.2008L8.69766 11.2254L8.73633 11.1937L8.78906 11.2289M8.70469 11.4539L8.50078 11.4187L8.52539 11.3625L8.69414 11.3906C8.6971 11.3815 8.6971 11.3716 8.69414 11.3625C8.68898 11.3549 8.6831 11.3478 8.67656 11.3414L8.72227 11.2957C8.73281 11.3098 8.73984 11.3238 8.73984 11.3379C8.73984 11.352 8.73984 11.373 8.72578 11.3977L8.70469 11.4539ZM8.53242 11.4258L8.49023 11.4152C8.46563 11.4117 8.45156 11.4012 8.44805 11.3836C8.44453 11.366 8.45156 11.3414 8.47266 11.3063L8.50781 11.2465L8.51484 11.2148L8.5043 11.1937L8.56758 11.1516L8.57461 11.1902C8.57461 11.2043 8.56758 11.2219 8.55352 11.2395L8.53242 11.2816C8.51969 11.2994 8.51126 11.3198 8.50781 11.3414C8.50781 11.352 8.51133 11.359 8.52187 11.359L8.56406 11.3695L8.53242 11.4258ZM8.42695 11.2043L8.35664 11.2359L8.30742 11.1867L8.37773 11.1586L8.43047 11.2043M8.39883 11.3906C8.38756 11.4063 8.37321 11.4194 8.35664 11.4293C8.34258 11.4398 8.325 11.4434 8.30742 11.4469C8.28526 11.4499 8.26279 11.4499 8.24062 11.4469C8.21422 11.4424 8.18832 11.4353 8.16328 11.4258C8.12721 11.4158 8.09445 11.3964 8.06836 11.3695C8.05078 11.3484 8.05078 11.3273 8.06836 11.3063C8.08308 11.288 8.10093 11.2725 8.12109 11.2605C8.15497 11.2435 8.19026 11.2294 8.22656 11.2184L8.24062 11.2324C8.20547 11.2465 8.17734 11.257 8.16328 11.2676C8.15013 11.2735 8.13821 11.2819 8.12812 11.2922C8.11758 11.3063 8.11758 11.3203 8.13164 11.3379C8.18184 11.3775 8.24352 11.3997 8.30742 11.4012C8.34258 11.4012 8.36367 11.3906 8.37422 11.3801L8.38828 11.3555L8.3918 11.3063L8.46211 11.2641L8.45859 11.3063C8.45508 11.3203 8.44453 11.3344 8.43047 11.352L8.39883 11.3906Z" fill="#BF0000"/>
</g>
<defs>
<clipPath id="clip0_14_1187">
<rect width="18" height="18" rx="9" fill="white"/>
</clipPath>
</defs>
</svg>
