<svg width="18" height="18" viewBox="0 0 18 18" fill="none" xmlns="http://www.w3.org/2000/svg">
<g clip-path="url(#clip0_8201_9701)">
<path d="M12.9131 0.893039C11.7299 0.320906 10.4025 0 9.00009 0C7.59771 0 6.27028 0.320906 5.08706 0.893039L4.30444 9L5.08706 17.107C6.27028 17.6791 7.59771 18 9.00009 18C10.4025 18 11.7299 17.6791 12.9131 17.107L13.6957 9L12.9131 0.893039Z" fill="#D80027"/>
<path d="M5.08697 0.893311C2.07654 2.34903 0 5.43184 0 8.99995C0 12.5681 2.07654 15.6509 5.08697 17.1066V0.893311Z" fill="black"/>
<path d="M12.9131 0.893311V17.1066C15.9235 15.6509 18.0001 12.5681 18.0001 8.99995C18.0001 5.43184 15.9235 2.34903 12.9131 0.893311Z" fill="#496E2D"/>
<path d="M9.00005 5.86963C7.27113 5.86963 5.86963 7.27117 5.86963 9.00005C5.86963 10.7289 7.27117 12.1305 9.00005 12.1305C10.7289 12.1305 12.1305 10.7289 12.1305 9.00005C12.1305 7.27117 10.729 5.86963 9.00005 5.86963ZM9.00005 10.9566C7.91948 10.9566 7.04353 10.0806 7.04353 9.00005C7.04353 7.91952 7.91952 7.04353 9.00005 7.04353C10.0806 7.04353 10.9566 7.91952 10.9566 9.00005C10.9566 10.0806 10.0806 10.9566 9.00005 10.9566Z" fill="#FFDA44"/>
<path d="M9.00014 7.82617C8.5679 7.82617 8.21753 8.17654 8.21753 8.60879V9.78269H9.78276V8.60879C9.78276 8.17654 9.43239 7.82617 9.00014 7.82617Z" fill="#FFDA44"/>
</g>
<defs>
<clipPath id="clip0_8201_9701">
<rect width="18" height="18" fill="white"/>
</clipPath>
</defs>
</svg>
