<svg width="18" height="18" viewBox="0 0 18 18" fill="none" xmlns="http://www.w3.org/2000/svg">
<g clip-path="url(#clip0_8201_9748)">
<path d="M18 9C18 13.9705 13.9705 18 9 18C4.02947 18 0 13.9705 0 9C0 9.00214 9 0.000984375 9 0C13.9705 0 18 4.02947 18 9Z" fill="#0052B4"/>
<path d="M8.97607 9.00003H9.00016C9.00016 8.99195 9.00016 8.98407 9.00016 8.97595C8.99214 8.984 8.98413 8.99202 8.97607 9.00003Z" fill="#F0F0F0"/>
<path d="M9 4.69564C9 3.11203 9 2.07439 9 0H8.99849C4.02859 0.00084375 0 4.02993 0 9H4.69564V6.35586L7.33978 9H8.97595C8.98397 8.99198 8.99198 8.98397 9.00004 8.97592C9.00004 8.36958 9.00004 7.82856 9.00004 7.33985L6.35583 4.69564H9Z" fill="#F0F0F0"/>
<path d="M4.55319 1.17395C3.14557 1.97548 1.97532 3.14569 1.17383 4.55331V9.00005H3.52167V3.52186V3.52179H8.99993C8.99993 2.78129 8.99993 2.07585 8.99993 1.17395H4.55319Z" fill="#D80027"/>
<path d="M9.00016 7.89325L5.80252 4.69568H4.6958V4.69575L9.00009 9H9.00016C9.00016 9 9.00016 8.23686 9.00016 7.89325Z" fill="#D80027"/>
<path d="M15.2204 10.3174C15.4792 9.96135 15.6521 9.52653 15.6521 8.99996V5.08693C15.3251 5.3326 14.9187 5.47822 14.4782 5.47822C13.8381 5.47822 13.2699 5.17085 12.913 4.69568C12.556 5.17085 11.9878 5.47822 11.3477 5.47822C10.9072 5.47822 10.5008 5.33257 10.1738 5.087V8.99996C10.1738 9.52653 10.3467 9.96135 10.6055 10.3174H15.2204Z" fill="#F3F3F3"/>
<path d="M14.4065 8.27405C14.5311 7.97008 14.628 7.52582 14.628 7.30472C14.628 6.94946 14.1648 6.6615 14.1648 6.6615C14.1648 6.6615 13.7017 6.94946 13.7017 7.30472C13.7017 7.52585 13.7986 7.97012 13.9231 8.27405L13.6558 8.87771C13.8129 8.94163 13.9847 8.97714 14.1649 8.97714C14.345 8.97714 14.5168 8.94159 14.674 8.87771L14.4065 8.27405Z" fill="#FF9811"/>
<path d="M12.5964 6.31937C12.271 6.36345 11.8378 6.50179 11.6463 6.61232C11.3387 6.78997 11.3208 7.335 11.3208 7.335C11.3208 7.335 11.8018 7.59209 12.1094 7.41448C12.301 7.30392 12.6372 6.99792 12.838 6.73804L13.4946 6.66773C13.4714 6.49975 13.4161 6.33322 13.3261 6.17723C13.236 6.02124 13.1195 5.89018 12.9855 5.78601L12.5964 6.31937Z" fill="#FF9811"/>
<path d="M11.8089 8.86442C12.0097 9.12415 12.3461 9.43012 12.5376 9.54072C12.8453 9.71833 13.3262 9.4613 13.3262 9.4613C13.3262 9.4613 13.3083 8.9162 13.0007 8.73856C12.8092 8.62799 12.376 8.4898 12.0505 8.44578L11.6614 7.91235C11.5275 8.01649 11.411 8.14762 11.3208 8.30347C11.2308 8.45953 11.1757 8.62599 11.1523 8.79407L11.8089 8.86442Z" fill="#FF9811"/>
<path d="M10.5088 10.174C11.2396 11.3466 12.9131 11.7391 12.9131 11.7391C12.9131 11.7391 14.5865 11.3466 15.3174 10.174H10.5088Z" fill="#338AF3"/>
</g>
<defs>
<clipPath id="clip0_8201_9748">
<rect width="18" height="18" fill="white"/>
</clipPath>
</defs>
</svg>
