<svg width="18" height="18" viewBox="0 0 18 18" fill="none" xmlns="http://www.w3.org/2000/svg">
<g clip-path="url(#clip0_14_1334)">
<path d="M0 0H18V18H0V0Z" fill="#FF0000"/>
<path d="M7.20342 3.49805C7.02764 3.49805 6.73936 3.5543 6.74639 3.68789C6.2542 3.60703 6.20498 3.80742 6.23311 3.98672C6.28232 3.91641 6.33857 3.87773 6.38076 3.8707C6.44756 3.86016 6.51436 3.88125 6.58467 3.92344C6.65046 3.9662 6.70967 4.01831 6.76045 4.07812C6.5917 4.1168 6.45811 4.09219 6.32451 4.06758C6.24813 4.05205 6.17537 4.02223 6.11006 3.97969C6.05381 3.94102 6.03623 3.90586 5.94834 3.81445C5.84639 3.70898 5.7374 3.74063 5.77256 3.90234C5.8499 4.05352 5.9835 4.12383 6.14873 4.14844C6.22607 4.1625 6.34561 4.19062 6.4792 4.19062C6.61279 4.19062 6.76397 4.17305 6.84834 4.19062C6.79912 4.21875 6.74287 4.275 6.63037 4.29609C6.51787 4.31719 6.34912 4.22578 6.24365 4.20469C6.25772 4.29258 6.3667 4.37344 6.58467 4.41562C6.94326 4.49297 7.24209 4.55625 7.43897 4.66172C7.63584 4.76719 7.75889 4.90078 7.84678 5.00625C8.02256 5.21719 8.03311 5.37539 8.04365 5.41055C8.07881 5.74453 7.96631 5.93086 7.74834 5.98711C7.64287 6.01523 7.44951 5.9625 7.3792 5.88164C7.30889 5.79727 7.23857 5.65664 7.25967 5.43516C7.27725 5.34727 7.3792 5.11875 7.29482 5.07305C6.90434 4.85949 6.50036 4.6716 6.08545 4.51055C5.99053 4.47188 5.90967 4.59844 5.88154 4.65117C5.60517 4.61211 5.34096 4.51203 5.10806 4.35819C4.87517 4.20434 4.67944 4.0006 4.53506 3.76172C4.37334 3.47695 4.10967 3.76172 4.15186 4.03242C4.22568 4.33477 4.4542 4.55273 4.73193 4.70742C5.01318 4.86562 5.36826 5.0168 5.72686 5.00977C5.92021 5.04492 5.92022 5.29805 5.68818 5.34375C5.23115 5.34375 4.87256 5.33672 4.53154 5.00625C4.27139 4.7707 4.12725 5.05195 4.20107 5.21016C4.32764 5.70234 5.03076 5.84297 5.74092 5.68125C6.01514 5.63555 5.8499 5.92734 5.77256 5.93438C5.47725 6.14531 4.94639 6.35625 4.47881 5.93086C4.26436 5.76562 4.12021 5.90625 4.19756 6.1418C4.4085 6.75703 5.19951 6.62695 5.74443 6.32461C5.88506 6.24727 6.01162 6.43008 5.83936 6.56719C5.16436 7.03828 4.82334 7.04531 4.51748 6.8625C4.13779 6.71133 4.10264 7.13672 4.33115 7.27734C4.58428 7.43203 5.22412 7.3125 5.69873 7.01719C5.89912 6.86953 5.90967 7.10156 5.77959 7.19297C5.22061 7.67813 4.99912 7.8082 4.41553 7.72734C4.12725 7.70625 4.13428 8.06133 4.35928 8.20195C4.66865 8.3918 5.27686 8.07539 5.74795 7.68516C5.94482 7.57969 5.97998 7.75547 5.88154 7.95937C5.67362 8.25344 5.39079 8.4865 5.0624 8.63438C4.84353 8.72123 4.60139 8.72992 4.37686 8.65898C4.15889 8.58164 4.13076 8.80664 4.25029 9.01055C4.32061 9.13359 4.62295 9.17578 4.94287 9.05977C5.26631 8.94727 5.61084 8.68008 5.84639 8.36367C6.05732 8.18437 6.0292 8.42695 5.93428 8.59922C5.45967 9.34805 5.02373 9.62578 4.4542 9.58008C4.19756 9.53789 4.14131 9.73477 4.30303 9.91758C4.58428 10.1531 4.94287 10.1426 5.25225 9.91055C5.62451 9.53938 5.98561 9.15718 6.33506 8.76445C6.52842 8.60977 6.5917 8.76445 6.53545 9.08086C6.48271 9.26016 6.35264 9.45 5.99756 9.59062C5.75147 9.73125 5.93428 9.92109 6.11709 9.92461C6.21904 9.92461 6.42295 9.80859 6.57412 9.63281C6.78154 9.4043 6.79209 9.24609 6.90811 8.89102C7.01357 8.71523 7.20342 8.79609 7.20342 8.97891C7.11201 9.3375 7.03467 9.40078 6.85186 9.54844C6.67256 9.71367 6.97139 9.76992 7.07334 9.70312C7.36514 9.50625 7.47061 9.25313 7.56904 9.02109C7.63936 8.85234 7.84326 8.9332 7.74834 9.20742C7.52334 9.85781 7.15068 10.1145 6.50029 10.248C6.4335 10.2586 6.39482 10.2973 6.41592 10.3746L6.67959 10.6383C6.27529 10.7543 5.94834 10.8211 5.54756 10.9371L4.99209 10.568C4.93936 10.4484 4.91475 10.2621 4.62647 10.3922C4.42607 10.3008 4.33818 10.3359 4.22568 10.4273C4.38389 10.4309 4.4542 10.473 4.51748 10.5469C4.59834 10.7578 4.78467 10.7789 4.97451 10.7227C5.09756 10.8246 5.16436 10.9055 5.29092 11.0109L4.66514 10.9898C4.44365 10.7543 4.26787 10.7684 4.10967 10.9547C3.98662 10.9723 3.93389 10.9723 3.85303 11.1199C3.98311 11.0672 4.06397 11.0496 4.12373 11.1094C4.35576 11.2465 4.51045 11.2148 4.62647 11.1094L5.28389 11.148C5.20303 11.2184 5.08701 11.257 5.00264 11.3309C4.66162 11.2324 4.48584 11.366 4.42607 11.6402C4.37684 11.7504 4.35977 11.8723 4.37686 11.9918C4.41201 11.8793 4.46475 11.7844 4.56318 11.7246C4.86553 11.802 4.97803 11.6789 4.99561 11.4961C5.14326 11.3766 5.36475 11.352 5.50889 11.2289C5.68115 11.2852 5.76201 11.3203 5.93428 11.373C5.99404 11.5594 6.13467 11.6332 6.35615 11.584C6.62686 11.5945 6.57764 11.7035 6.60225 11.7914C6.67256 11.6648 6.67256 11.5453 6.50381 11.4293C6.44404 11.2676 6.31045 11.1938 6.13818 11.2887C5.97295 11.243 5.93076 11.1762 5.76904 11.127C6.18037 10.9969 6.47217 10.9688 6.88701 10.8352C6.99248 10.9336 7.06982 11.0039 7.17529 11.0883C7.23154 11.1234 7.28076 11.1305 7.31592 11.0883C7.57256 10.7156 7.68857 10.3852 7.92764 10.1391C8.01904 10.0371 8.13857 9.9 8.26514 9.86484C8.32842 9.85078 8.40576 9.85781 8.4585 9.91406C8.50771 9.97031 8.5499 10.0688 8.52881 10.2199C8.50771 10.4379 8.4585 10.5082 8.39522 10.6348C8.33545 10.7648 8.25811 10.8457 8.18428 10.9441C8.02959 11.1445 7.8292 11.2605 7.70967 11.3379C7.47061 11.4926 7.36865 11.4258 7.18232 11.4152C6.94678 11.4434 6.8835 11.5594 7.07686 11.7211C7.22358 11.8019 7.39343 11.8304 7.5585 11.802C7.67451 11.7809 7.80459 11.6332 7.90303 11.5559C8.0085 11.4293 8.18779 11.577 8.06826 11.7211C7.84678 11.9848 7.62529 12.157 7.35459 12.1535C7.06631 12.1887 7.11904 12.3539 7.30889 12.4313C7.65342 12.5719 7.96279 12.3082 8.11748 12.1324C8.24053 12.0023 8.32842 11.9953 8.30381 12.2027C8.18428 12.5719 8.01904 12.716 7.75186 12.7336C7.53389 12.716 7.53037 12.8813 7.69209 12.9973C8.0542 13.2434 8.31436 12.8215 8.4374 12.5613C8.52529 12.3293 8.65889 12.4383 8.67295 12.6316C8.67295 12.8883 8.56045 13.0957 8.25107 13.3594C8.48662 13.7355 8.76084 14.1223 8.9999 14.502L9.72061 6.4793L8.9999 5.21367C8.92607 5.14336 8.67295 4.84453 8.60615 4.80234C8.58154 4.77773 8.56748 4.76016 8.60264 4.74609C8.63779 4.73203 8.71514 4.71797 8.77139 4.71094C8.6167 4.55625 8.49014 4.50703 8.19834 4.42266C8.26865 4.39453 8.33896 4.41211 8.54639 4.40156C8.41799 4.22699 8.24233 4.0928 8.04014 4.01484C8.19834 3.90937 8.22646 3.89883 8.38467 3.76875C8.11396 3.74766 7.88193 3.69844 7.65342 3.62812C7.51151 3.56052 7.35951 3.51658 7.20342 3.49805ZM7.22803 3.81445C7.36865 3.81445 7.46006 3.86367 7.46006 3.91992C7.46006 3.97969 7.37217 4.02891 7.22803 4.02891C7.0874 4.02891 6.996 3.97617 6.996 3.91641C6.996 3.85664 7.0874 3.81094 7.22803 3.81094V3.81445Z" fill="black"/>
<path d="M10.7966 3.49805C10.9724 3.49805 11.2606 3.5543 11.2536 3.68789C11.7458 3.60703 11.795 3.80742 11.7669 3.98672C11.7177 3.91641 11.6614 3.87773 11.6192 3.8707C11.5524 3.86016 11.4856 3.88125 11.4153 3.92344C11.3495 3.9662 11.2903 4.01831 11.2396 4.07812C11.4083 4.1168 11.5419 4.09219 11.6755 4.06758C11.7519 4.05205 11.8246 4.02223 11.8899 3.97969C11.9462 3.94102 11.9638 3.90586 12.0517 3.81445C12.1536 3.70898 12.2626 3.74063 12.2274 3.90234C12.1501 4.05352 12.0165 4.12383 11.8513 4.14844C11.7739 4.1625 11.6544 4.19062 11.5208 4.19062C11.3872 4.19062 11.236 4.17305 11.1517 4.19062C11.2009 4.21875 11.2571 4.275 11.3696 4.29609C11.4821 4.31719 11.6509 4.22578 11.7563 4.20469C11.7423 4.29258 11.6333 4.37344 11.4153 4.41562C11.0567 4.49297 10.7579 4.55625 10.561 4.66172C10.3642 4.76719 10.2411 4.90078 10.1532 5.00625C9.97744 5.21719 9.96689 5.37539 9.95635 5.41055C9.92119 5.74453 10.0337 5.93086 10.2517 5.98711C10.3571 6.01523 10.5505 5.9625 10.6208 5.88164C10.6911 5.79727 10.7614 5.65664 10.7403 5.43516C10.7228 5.34727 10.6208 5.11875 10.7052 5.07305C11.0957 4.85949 11.4996 4.6716 11.9146 4.51055C12.0095 4.47188 12.0903 4.59844 12.1185 4.65117C12.3948 4.61211 12.659 4.51203 12.8919 4.35819C13.1248 4.20434 13.3206 4.0006 13.4649 3.76172C13.6267 3.47695 13.8903 3.76172 13.8481 4.03242C13.7743 4.33477 13.5458 4.55273 13.2681 4.70742C12.9868 4.86562 12.6317 5.0168 12.2731 5.00977C12.0798 5.04492 12.0798 5.29805 12.3118 5.34375C12.7688 5.34375 13.1274 5.33672 13.4685 5.00625C13.7286 4.7707 13.8728 5.05195 13.7989 5.21016C13.6724 5.70234 12.9692 5.84297 12.2591 5.68125C11.9849 5.63555 12.1501 5.92734 12.2274 5.93438C12.5228 6.14531 13.0536 6.35625 13.5212 5.93086C13.7356 5.76562 13.8798 5.90625 13.8024 6.1418C13.5915 6.75703 12.8005 6.62695 12.2556 6.32461C12.1149 6.24727 11.9884 6.43008 12.1606 6.56719C12.8356 7.03828 13.1767 7.04531 13.4825 6.8625C13.8622 6.71133 13.8974 7.13672 13.6688 7.27734C13.4157 7.43203 12.7759 7.3125 12.3013 7.01719C12.1009 6.86953 12.0903 7.10156 12.2204 7.19297C12.7794 7.67813 13.0009 7.8082 13.5845 7.72734C13.8728 7.70625 13.8657 8.06133 13.6407 8.20195C13.3313 8.3918 12.7231 8.07539 12.2521 7.68516C12.0552 7.57969 12.02 7.75547 12.1185 7.95937C12.3264 8.25344 12.6092 8.4865 12.9376 8.63438C13.1565 8.72123 13.3986 8.72992 13.6231 8.65898C13.8411 8.58164 13.8692 8.80664 13.7497 9.01055C13.6794 9.13359 13.3771 9.17578 13.0571 9.05977C12.7337 8.94727 12.3892 8.68008 12.1536 8.36367C11.9427 8.18437 11.9708 8.42695 12.0657 8.59922C12.5403 9.34805 12.9763 9.62578 13.5458 9.58008C13.8024 9.53789 13.8587 9.73477 13.697 9.91758C13.4157 10.1531 13.0571 10.1426 12.7478 9.91055C12.3755 9.53938 12.0144 9.15718 11.6649 8.76445C11.4716 8.60977 11.4083 8.76445 11.4646 9.08086C11.5173 9.26016 11.6474 9.45 12.0024 9.59062C12.2485 9.73125 12.0657 9.92109 11.8829 9.92461C11.781 9.92461 11.5771 9.80859 11.4259 9.63281C11.2185 9.4043 11.2079 9.24609 11.0919 8.89102C10.9864 8.71523 10.7966 8.79609 10.7966 8.97891C10.888 9.3375 10.9653 9.40078 11.1481 9.54844C11.3274 9.71367 11.0286 9.76992 10.9267 9.70312C10.6349 9.50625 10.5294 9.25313 10.431 9.02109C10.3606 8.85234 10.1567 8.9332 10.2517 9.20742C10.4767 9.85781 10.8493 10.1145 11.4997 10.248C11.5665 10.2586 11.6052 10.2973 11.5841 10.3746L11.3204 10.6383C11.7247 10.7543 12.0517 10.8211 12.4524 10.9371L13.0079 10.568C13.0606 10.4484 13.0853 10.2621 13.3735 10.3922C13.5739 10.3008 13.6618 10.3359 13.7743 10.4273C13.6161 10.4309 13.5458 10.473 13.4825 10.5469C13.4017 10.7578 13.2153 10.7789 13.0255 10.7227C12.9024 10.8246 12.8356 10.9055 12.7091 11.0109L13.3349 10.9898C13.5563 10.7543 13.7321 10.7684 13.8903 10.9547C14.0134 10.9723 14.0661 10.9723 14.147 11.1199C14.0169 11.0672 13.936 11.0496 13.8763 11.1094C13.6442 11.2465 13.4896 11.2148 13.3735 11.1094L12.7161 11.148C12.797 11.2184 12.913 11.257 12.9974 11.3309C13.3384 11.2324 13.5142 11.366 13.5739 11.6402C13.6232 11.7504 13.6402 11.8723 13.6231 11.9918C13.588 11.8793 13.5353 11.7844 13.4368 11.7246C13.1345 11.802 13.022 11.6789 13.0044 11.4961C12.8567 11.3766 12.6353 11.352 12.4911 11.2289C12.3188 11.2852 12.238 11.3203 12.0657 11.373C12.006 11.5594 11.8653 11.6332 11.6438 11.584C11.3731 11.5945 11.4224 11.7035 11.3978 11.7914C11.3274 11.6648 11.3274 11.5453 11.4962 11.4293C11.556 11.2676 11.6896 11.1938 11.8618 11.2887C12.0271 11.243 12.0692 11.1762 12.231 11.127C11.8196 10.9969 11.5278 10.9688 11.113 10.8352C11.0075 10.9336 10.9302 11.0039 10.8247 11.0883C10.7685 11.1234 10.7192 11.1305 10.6841 11.0883C10.4274 10.7156 10.3114 10.3852 10.0724 10.1391C9.98096 10.0371 9.86143 9.9 9.73486 9.86484C9.67158 9.85078 9.59424 9.85781 9.5415 9.91406C9.49229 9.97031 9.4501 10.0688 9.47119 10.2199C9.49229 10.4379 9.5415 10.5082 9.60478 10.6348C9.66455 10.7648 9.74189 10.8457 9.81572 10.9441C9.97041 11.1445 10.1708 11.2605 10.2903 11.3379C10.5294 11.4926 10.6313 11.4258 10.8177 11.4152C11.0532 11.4434 11.1165 11.5594 10.9231 11.7211C10.7764 11.8019 10.6066 11.8304 10.4415 11.802C10.3255 11.7809 10.1954 11.6332 10.097 11.5559C9.9915 11.4293 9.81221 11.577 9.93174 11.7211C10.1532 11.9848 10.3747 12.157 10.6454 12.1535C10.9337 12.1887 10.881 12.3539 10.6911 12.4313C10.3466 12.5719 10.0372 12.3082 9.88252 12.1324C9.75947 12.0023 9.67158 11.9953 9.69619 12.2027C9.81572 12.5719 9.98096 12.716 10.2481 12.7336C10.4661 12.716 10.4696 12.8813 10.3079 12.9973C9.9458 13.2434 9.68564 12.8215 9.5626 12.5613C9.47471 12.3293 9.34111 12.4383 9.32705 12.6316C9.32705 12.8883 9.43955 13.0957 9.74893 13.3594C9.51338 13.7355 9.23916 14.1223 9.0001 14.502L8.27939 6.4793L9.0001 5.21367C9.07393 5.14336 9.32705 4.84453 9.39385 4.80234C9.41846 4.77773 9.43252 4.76016 9.39736 4.74609C9.36221 4.73203 9.28486 4.71797 9.22861 4.71094C9.3833 4.55625 9.50986 4.50703 9.80166 4.42266C9.73135 4.39453 9.66104 4.41211 9.45361 4.40156C9.58201 4.22699 9.75767 4.0928 9.95986 4.01484C9.80166 3.90937 9.77354 3.89883 9.61533 3.76875C9.88604 3.74766 10.1181 3.69844 10.3466 3.62812C10.4885 3.56052 10.6405 3.51658 10.7966 3.49805ZM10.772 3.81445C10.6313 3.81445 10.5399 3.86367 10.5399 3.91992C10.5399 3.97969 10.6278 4.02891 10.772 4.02891C10.9126 4.02891 11.004 3.97617 11.004 3.91641C11.004 3.85664 10.9126 3.81094 10.772 3.81094V3.81445Z" fill="black"/>
</g>
<defs>
<clipPath id="clip0_14_1334">
<rect width="18" height="18" rx="9" fill="white"/>
</clipPath>
</defs>
</svg>
