<svg width="18" height="18" viewBox="0 0 18 18" fill="none" xmlns="http://www.w3.org/2000/svg">
<g clip-path="url(#clip0_8201_9716)">
<path d="M9 18C13.9706 18 18 13.9706 18 9C18 4.02944 13.9706 0 9 0C4.02944 0 0 4.02944 0 9C0 13.9706 4.02944 18 9 18Z" fill="#D80027"/>
<path d="M14.087 6.68H10.8271C11.0283 6.46928 11.1522 6.18398 11.1522 5.86958C11.1522 5.22126 10.6266 4.69568 9.97828 4.69568C9.56983 4.69568 9.21029 4.90437 9.00002 5.22081C8.78975 4.90437 8.43017 4.69568 8.02176 4.69568C7.37345 4.69568 6.84786 5.22126 6.84786 5.86958C6.84786 6.18398 6.97171 6.46931 7.17295 6.68H3.91309C3.91309 7.54446 4.66603 8.24519 5.53041 8.24519H5.47824C5.47824 9.10969 6.17901 9.81046 7.0435 9.81046C7.0435 10.0904 7.1173 10.3529 7.24611 10.5802L5.94779 11.8785L6.94391 12.8746L8.35691 11.4616C8.41224 11.4819 8.46951 11.4982 8.52864 11.5092L7.6748 13.437L9.00002 14.8696L10.3252 13.437L9.47139 11.5092C9.53056 11.4981 9.5878 11.4819 9.64313 11.4615L11.0561 12.8745L12.0522 11.8784L10.7539 10.5801C10.8827 10.3528 10.9565 10.0903 10.9565 9.81035C11.821 9.81035 12.5218 9.10962 12.5218 8.24509H12.4696C13.334 8.24516 14.087 7.54446 14.087 6.68Z" fill="black"/>
</g>
<defs>
<clipPath id="clip0_8201_9716">
<rect width="18" height="18" fill="white"/>
</clipPath>
</defs>
</svg>
