<svg width="18" height="18" viewBox="0 0 18 18" fill="none" xmlns="http://www.w3.org/2000/svg">
<g clip-path="url(#clip0_14_1288)">
<path d="M0 0H18V18H0V0Z" fill="#3A7DCE"/>
<path d="M3.78635 8.46912C3.66331 8.19139 3.66331 8.19139 3.66331 7.91717C3.60002 7.91717 3.58948 7.93123 3.55432 7.91717C3.51917 7.90662 3.5051 8.17381 3.38909 8.12108C3.37151 8.09647 3.47346 7.90311 3.36096 7.82577C3.32581 7.79764 3.37151 7.63944 3.35393 7.57264C3.35393 7.57264 3.21331 7.6535 3.10784 7.36522C3.05862 7.29139 2.98831 7.43553 2.98831 7.43553C2.98831 7.43553 3.01995 7.52342 2.9637 7.541C2.88284 7.47772 2.82659 7.51287 2.72815 7.42498C2.6262 7.33709 2.74924 7.23514 2.5594 7.1578C2.68245 6.81327 2.68245 6.88358 2.98831 6.74295C2.80549 6.60584 2.80549 6.60584 2.68245 6.39842C2.49612 6.32811 2.43635 6.26131 2.25354 6.1242C2.00745 5.77967 1.8844 5.09061 1.8844 4.60545C2.03909 4.44373 2.25354 5.15741 2.5594 5.36483L2.98831 5.57225C3.2344 5.71287 3.29417 5.84647 3.48049 5.98709L4.02893 6.19452C4.27502 6.39842 4.39807 6.67616 4.58088 6.74295C4.78127 6.74295 4.81995 6.61639 4.88323 6.60584C5.24182 6.58827 5.42815 6.53553 5.49846 6.41248C5.56877 6.31405 5.74456 6.46873 6.23674 6.26131L6.17346 5.98709C6.17346 5.98709 6.30706 5.86405 6.48284 5.91678C6.47581 5.79022 6.46526 5.45623 6.63752 5.30155C6.53206 5.1785 6.60237 5.09061 6.60237 5.09061C6.60237 5.09061 6.70081 4.98514 6.71487 4.92889C6.66213 4.62303 6.75706 4.61952 6.78166 4.53162C6.80276 4.44022 6.69729 4.47186 6.72542 4.34881C6.75706 4.22577 6.93635 4.19412 6.95745 4.09217C6.98206 3.99373 6.90471 3.941 6.91174 3.91639C6.9469 3.82147 6.91526 3.59295 6.91174 3.50506C7.2387 3.40311 7.34768 3.10428 7.4637 3.22733C7.52346 2.81248 7.58674 2.67537 7.95588 2.67537C8.0051 2.54881 7.81877 2.43983 7.8926 2.40116C8.01565 2.38358 8.10706 2.39061 8.2512 2.60155C8.2969 2.66834 8.30393 2.50311 8.34963 2.48553C8.39885 2.46795 8.50784 2.46795 8.52541 2.38709C8.53948 2.30272 8.56409 2.19373 8.62737 2.05662C8.6801 1.94412 8.71877 2.09881 8.76799 2.31678C9.02463 2.32733 9.60823 2.39412 9.85432 2.46795C10.0371 2.5242 10.1602 2.41522 10.336 2.39412C10.466 2.54178 10.5891 2.42928 10.6559 2.74569C10.7543 2.91092 10.9125 2.75623 10.9477 2.80897C11.1551 3.44178 11.8617 3.01287 11.911 3.02342C12.0024 3.02342 12.1114 3.30819 12.1817 3.30467C12.2977 3.28006 12.266 3.19217 12.3645 3.22733C12.3399 3.46639 12.5649 3.74412 12.5649 3.91991C12.5649 3.91991 12.6176 3.95155 12.6703 3.89881C12.7196 3.84608 12.7653 3.70897 12.811 3.71248C12.9164 3.73006 12.9621 3.74764 13.0852 3.76873C13.4156 3.89881 13.5879 3.92694 13.718 3.99022C13.7742 4.11678 13.834 4.18006 13.9571 4.15545C14.0555 4.2328 13.9817 4.33123 14.0414 4.33827C14.1645 4.26795 14.2067 4.19412 14.3262 4.26092C14.4492 4.33123 14.5723 4.47186 14.6356 4.60545C14.6356 4.67577 14.5723 4.94998 14.6356 5.36483C14.6637 5.50545 14.6813 5.61092 14.8114 5.84998C14.7762 6.09256 14.9766 6.50037 14.9766 6.60584C14.9766 6.74295 14.8781 6.81678 14.8184 6.95037C15.0645 7.16131 14.8184 7.50233 14.6953 7.70975C15.6164 7.91717 15.1875 8.33202 15.9223 8.12459C15.736 8.60623 15.8028 8.56756 15.9856 9.0492C15.6199 9.32694 15.9785 9.41131 15.7324 9.75233C15.7184 9.77694 15.8801 10.0547 16.1051 10.0547C16.0453 10.6066 15.859 10.3992 15.9223 11.2254C15.4371 11.2148 15.634 11.8441 15.3071 11.7773C15.3281 12.1746 15.4934 12.2062 15.4301 12.607C15.184 12.6773 15.184 12.6773 15.0645 12.8812L14.8781 12.8109C14.8184 13.159 14.6953 13.2258 14.8781 13.5703C14.8781 13.5703 14.6426 13.5808 14.5723 13.5703C14.5688 13.6898 14.6778 13.7215 14.6953 13.848C14.6848 13.8972 14.3438 14.1152 14.0836 14.1222C14.0133 14.2945 14.2664 14.4738 14.2524 14.5617C13.9641 14.6215 13.8375 15.0187 13.8375 15.0187C13.8375 15.0187 13.9852 15.089 13.9606 15.1594C13.8797 15.0926 13.8375 15.089 13.7145 15.089C13.6547 15.1066 13.5035 15.0855 13.3629 15.3562C13.2047 15.416 13.1309 15.3914 13.0114 15.5707C12.9586 15.4019 12.8813 15.5707 12.7899 15.641C12.6949 15.7043 12.5719 15.866 12.5543 15.859C12.5578 15.8133 12.6106 15.641 12.6106 15.641L12.3047 15.7113H12.2696C12.2414 15.7148 12.2485 15.5109 12.1922 15.518C12.1324 15.5285 11.9672 15.7746 11.911 15.7851C11.8547 15.7922 11.8371 15.7043 11.7879 15.7148C11.7387 15.7183 11.6438 15.975 11.6121 15.982C11.577 15.989 11.4364 15.8273 11.3203 15.8484C10.7156 16.0875 10.6207 15.3773 10.5258 15.7781C10.3992 15.7043 10.4203 15.7465 10.2938 15.7851C10.2129 15.8097 10.2059 15.6621 10.1321 15.6656C9.9844 15.6691 9.99143 15.8238 9.91409 15.7781C9.85081 15.4547 9.45706 15.5144 9.41838 15.3738C9.38674 15.2332 9.58713 15.2332 9.65393 15.1347C9.70315 14.9941 9.6012 14.9414 9.8051 14.8043C10.0653 14.6039 9.91409 14.5301 9.95979 14.3789C10.0442 14.1609 10.0442 14.1082 9.97385 13.9148C9.97385 13.9148 9.76995 13.2961 9.72776 13.2961C9.60823 13.2574 9.60823 13.5246 9.42893 13.5984C9.05979 13.7355 8.4094 13.2469 8.2969 13.2469C8.19143 13.2504 7.71682 13.3769 7.7344 13.1062C7.66409 13.3699 7.3969 13.1695 7.38284 13.1695C7.13674 13.1695 7.23166 13.3805 7.06643 13.3734C6.9926 13.3453 6.23674 13.2961 6.23674 13.2961V13.4367L5.74456 13.1555L5.31565 13.0183C4.95002 12.8812 5.13284 12.5367 4.52112 12.7441V12.3293H4.21526C4.33479 11.5031 4.21526 11.918 4.15198 11.1586L3.90588 11.2289C3.65979 10.8527 4.2469 10.9265 3.72307 10.6734C3.72307 10.6734 3.73362 10.2621 3.60002 10.3992C3.57542 10.4168 3.66331 10.6066 3.66331 10.6066C3.17112 10.5363 3.04807 10.3992 3.04807 9.84725C3.04807 9.84725 3.45237 9.91405 3.41721 9.84725C3.36096 9.74178 3.28362 9.07381 3.29768 9.02811C3.29065 8.9367 3.67385 8.70819 3.60002 8.49022C3.64573 8.46912 3.78635 8.46912 3.78635 8.46912Z" fill="white"/>
<path d="M16.2512 10.4765C16.233 10.5208 16.236 10.565 16.2542 10.599C16.2874 10.5412 16.2602 10.5174 16.2542 10.4765H16.2512ZM1.85608 5.39364C1.85608 5.39364 1.76535 5.38003 1.7835 5.47189C1.81374 5.40384 1.85305 5.39704 1.85608 5.39364ZM1.84701 5.17589C1.7956 5.17589 1.73209 5.16909 1.75628 5.26095C1.78652 5.1895 1.84701 5.1793 1.84701 5.17589ZM2.23108 6.4109C2.23108 6.4109 2.3097 6.40409 2.29156 6.49595C2.26132 6.42791 2.23108 6.4143 2.23108 6.4109Z" stroke="white" stroke-width="0.142561" stroke-linejoin="round"/>
</g>
<defs>
<clipPath id="clip0_14_1288">
<rect width="18" height="18" rx="9" fill="white"/>
</clipPath>
</defs>
</svg>
