<svg width="18" height="18" viewBox="0 0 18 18" fill="none" xmlns="http://www.w3.org/2000/svg">
<g clip-path="url(#clip0_8201_9771)">
<path d="M9 18C13.9706 18 18 13.9706 18 9C18 4.02944 13.9706 0 9 0C4.02944 0 0 4.02944 0 9C0 13.9706 4.02944 18 9 18Z" fill="#F0F0F0"/>
<path d="M9.00003 0C5.43188 0 2.34882 2.0765 0.893066 5.08697H17.107C15.6512 2.0765 12.5681 0 9.00003 0Z" fill="#338AF3"/>
<path d="M9.00003 18.0001C12.5681 18.0001 15.6512 15.9236 17.107 12.9131H0.893066C2.34882 15.9236 5.43188 18.0001 9.00003 18.0001Z" fill="#338AF3"/>
<path d="M11.69 8.99996L10.5909 9.517L11.1762 10.5815L9.98262 10.3532L9.83138 11.5589L9.00004 10.6721L8.16866 11.5589L8.01746 10.3532L6.8239 10.5815L7.40918 9.51697L6.31006 8.99996L7.40922 8.48292L6.8239 7.41845L8.01742 7.64676L8.1687 6.44104L9.00004 7.32782L9.83141 6.44104L9.98262 7.64676L11.1762 7.41845L10.5909 8.48295L11.69 8.99996Z" fill="#FFDA44"/>
</g>
<defs>
<clipPath id="clip0_8201_9771">
<rect width="18" height="18" fill="white"/>
</clipPath>
</defs>
</svg>
