<svg width="18" height="18" viewBox="0 0 18 18" fill="none" xmlns="http://www.w3.org/2000/svg">
<g clip-path="url(#clip0_14_1312)">
<path d="M0 0H18V18H0V0Z" fill="#74ACDF"/>
<path d="M0 6.00116H18V12.0023H0V6.00116Z" fill="white"/>
<path d="M8.88489 9.04678L9.91089 11.2788C9.91089 11.2788 9.92889 11.322 9.95769 11.3112C9.98649 11.2968 9.96849 11.2536 9.96849 11.2536L9.11529 8.94958M9.09009 9.82078C9.07569 10.1592 9.28449 10.3464 9.25929 10.6488C9.23049 10.9548 9.39609 11.124 9.43929 11.2428C9.47529 11.3616 9.39609 11.43 9.42849 11.448C9.46449 11.466 9.53649 11.3724 9.51489 11.2032C9.48969 11.0376 9.36369 10.9872 9.39249 10.6164C9.42129 10.2456 9.24129 10.1592 9.28449 9.82438" fill="#F6B40E"/>
<path d="M8.88489 9.04678L9.91089 11.2788C9.91089 11.2788 9.92889 11.322 9.95769 11.3112C9.98649 11.2968 9.96849 11.2536 9.96849 11.2536L9.11529 8.94958M9.09009 9.82078C9.07569 10.1592 9.28449 10.3464 9.25929 10.6488C9.23049 10.9548 9.39609 11.124 9.43929 11.2428C9.47529 11.3616 9.39609 11.43 9.42849 11.448C9.46449 11.466 9.53649 11.3724 9.51489 11.2032C9.48969 11.0376 9.36369 10.9872 9.39249 10.6164C9.42129 10.2456 9.24129 10.1592 9.28449 9.82438" stroke="#85340A" stroke-width="0.0704"/>
<path d="M8.87565 8.99916L8.9694 11.4539C8.9694 11.4539 8.96949 11.5007 9.00024 11.5017C9.03235 11.4995 9.03226 11.4527 9.03226 11.4527L9.1257 8.99753M8.76903 9.79277C8.62622 10.0999 8.74749 10.3528 8.60849 10.6225C8.46478 10.8942 8.55302 11.1139 8.54747 11.2402C8.53527 11.3637 8.43592 11.3966 8.45897 11.4256C8.48534 11.456 8.58768 11.3971 8.63247 11.2325C8.67256 11.0699 8.57544 10.9751 8.74395 10.6435C8.91245 10.312 8.77922 10.1633 8.94725 9.87049" fill="#F6B40E"/>
<path d="M8.87565 8.99916L8.9694 11.4539C8.9694 11.4539 8.96949 11.5007 9.00024 11.5017C9.03235 11.4995 9.03226 11.4527 9.03226 11.4527L9.1257 8.99753M8.76903 9.79277C8.62622 10.0999 8.74749 10.3528 8.60849 10.6225C8.46478 10.8942 8.55302 11.1139 8.54747 11.2402C8.53527 11.3637 8.43592 11.3966 8.45897 11.4256C8.48534 11.456 8.58768 11.3971 8.63247 11.2325C8.67256 11.0699 8.57544 10.9751 8.74395 10.6435C8.91245 10.312 8.77922 10.1633 8.94725 9.87049" stroke="#85340A" stroke-width="0.0704"/>
<path d="M8.88549 8.9516L8.03272 11.2554C8.03272 11.2554 8.0149 11.2986 8.0429 11.3114C8.07345 11.3215 8.09127 11.2783 8.09127 11.2783L9.11714 9.04579M8.48329 9.644C8.23382 9.87311 8.2491 10.1531 8.01745 10.3491C7.78071 10.5451 7.77816 10.7819 7.72471 10.8964C7.66616 11.0059 7.56179 10.9983 7.57197 11.0339C7.5847 11.0721 7.7018 11.0568 7.80617 10.9219C7.90544 10.787 7.85199 10.6622 8.13455 10.4204C8.41711 10.1786 8.35092 9.9902 8.61821 9.78401" fill="#F6B40E"/>
<path d="M8.88549 8.9516L8.03272 11.2554C8.03272 11.2554 8.0149 11.2986 8.0429 11.3114C8.07345 11.3215 8.09127 11.2783 8.09127 11.2783L9.11714 9.04579M8.48329 9.644C8.23382 9.87311 8.2491 10.1531 8.01745 10.3491C7.78071 10.5451 7.77816 10.7819 7.72471 10.8964C7.66616 11.0059 7.56179 10.9983 7.57197 11.0339C7.5847 11.0721 7.7018 11.0568 7.80617 10.9219C7.90544 10.787 7.85199 10.6622 8.13455 10.4204C8.41711 10.1786 8.35092 9.9902 8.61821 9.78401" stroke="#85340A" stroke-width="0.0704"/>
<path d="M8.91276 8.91146L7.2433 10.7135C7.2433 10.7135 7.21027 10.7467 7.23127 10.7692C7.2556 10.7902 7.28862 10.7571 7.28862 10.7571L9.09073 9.08713M8.27621 9.39724C7.95806 9.51344 7.86501 9.77798 7.57599 9.87042C7.28226 9.96092 7.18931 10.1787 7.09608 10.264C7.0001 10.3428 6.9066 10.2958 6.90237 10.3326C6.89952 10.3727 7.01354 10.4034 7.1616 10.3187C7.30495 10.2321 7.3033 10.0964 7.65689 9.98109C8.01049 9.86579 8.02143 9.66643 8.34727 9.57822" fill="#F6B40E"/>
<path d="M8.91276 8.91146L7.2433 10.7135C7.2433 10.7135 7.21027 10.7467 7.23127 10.7692C7.2556 10.7902 7.28862 10.7571 7.28862 10.7571L9.09073 9.08713M8.27621 9.39724C7.95806 9.51344 7.86501 9.77798 7.57599 9.87042C7.28226 9.96092 7.18931 10.1787 7.09608 10.264C7.0001 10.3428 6.9066 10.2958 6.90237 10.3326C6.89952 10.3727 7.01354 10.4034 7.1616 10.3187C7.30495 10.2321 7.3033 10.0964 7.65689 9.98109C8.01049 9.86579 8.02143 9.66643 8.34727 9.57822" stroke="#85340A" stroke-width="0.0704"/>
<path d="M9.15478 9.87839C9.17278 10.2024 9.35638 10.3464 9.32038 10.6452C9.39958 10.4112 9.20878 10.2276 9.21958 9.88199M8.94238 9.02519L9.64438 10.5588L9.05758 8.97839" fill="#85340A"/>
<path d="M8.80689 9.87078C8.69954 10.177 8.81405 10.3803 8.66645 10.6426C8.82917 10.4567 8.72315 10.2141 8.86539 9.89891M8.93717 9.00125L8.99885 10.6868L9.06151 9.00209" fill="#85340A"/>
<path d="M8.4884 9.73056C8.27203 9.97239 8.30003 10.204 8.06329 10.3899C8.28476 10.2804 8.27967 10.0157 8.53168 9.77892M8.94152 8.97706L8.35349 10.5579L9.05607 9.02543" fill="#85340A"/>
<path d="M8.24772 9.47912C7.95527 9.61974 7.89249 9.84447 7.60266 9.92556C7.84915 9.90918 7.94576 9.66265 8.26919 9.54037M8.95469 8.95639L7.80647 10.1918L9.04201 9.04491" fill="#85340A"/>
<path d="M8.95322 8.88477L6.72122 9.91077C6.72122 9.91077 6.67801 9.92877 6.68881 9.95757C6.70321 9.98637 6.74642 9.96837 6.74642 9.96837L9.05042 9.11517M8.17922 9.08997C7.84082 9.07557 7.65362 9.28437 7.35122 9.25917C7.04522 9.23037 6.87602 9.39597 6.75722 9.43917C6.63842 9.47517 6.57002 9.39597 6.55202 9.42837C6.53402 9.46437 6.62761 9.53637 6.79681 9.51477C6.96241 9.48957 7.01282 9.36357 7.38362 9.39237C7.75442 9.42117 7.84082 9.24117 8.17562 9.28437" fill="#F6B40E"/>
<path d="M8.95322 8.88477L6.72122 9.91077C6.72122 9.91077 6.67801 9.92877 6.68881 9.95757C6.70321 9.98637 6.74642 9.96837 6.74642 9.96837L9.05042 9.11517M8.17922 9.08997C7.84082 9.07557 7.65362 9.28437 7.35122 9.25917C7.04522 9.23037 6.87602 9.39597 6.75722 9.43917C6.63842 9.47517 6.57002 9.39597 6.55202 9.42837C6.53402 9.46437 6.62761 9.53637 6.79681 9.51477C6.96241 9.48957 7.01282 9.36357 7.38362 9.39237C7.75442 9.42117 7.84082 9.24117 8.17562 9.28437" stroke="#85340A" stroke-width="0.0704"/>
<path d="M9.0009 8.87565L6.54617 8.9694C6.54617 8.9694 6.49936 8.96949 6.49832 9.00024C6.5006 9.03235 6.5474 9.03226 6.5474 9.03226L9.00253 9.1257M8.20729 8.76903C7.90016 8.62622 7.6473 8.74749 7.37757 8.60849C7.10588 8.46478 6.88619 8.55302 6.7599 8.54747C6.63636 8.53527 6.60348 8.43592 6.57445 8.45897C6.54404 8.48534 6.60297 8.58768 6.76755 8.63247C6.93019 8.67256 7.02497 8.57544 7.35653 8.74395C7.68808 8.91245 7.83679 8.77922 8.12957 8.94725" fill="#F6B40E"/>
<path d="M9.0009 8.87565L6.54617 8.9694C6.54617 8.9694 6.49936 8.96949 6.49832 9.00024C6.5006 9.03235 6.5474 9.03226 6.5474 9.03226L9.00253 9.1257M8.20729 8.76903C7.90016 8.62622 7.6473 8.74749 7.37757 8.60849C7.10588 8.46478 6.88619 8.55302 6.7599 8.54747C6.63636 8.53527 6.60348 8.43592 6.57445 8.45897C6.54404 8.48534 6.60297 8.58768 6.76755 8.63247C6.93019 8.67256 7.02497 8.57544 7.35653 8.74395C7.68808 8.91245 7.83679 8.77922 8.12957 8.94725" stroke="#85340A" stroke-width="0.0704"/>
<path d="M9.04833 8.88543L6.74458 8.03266C6.74458 8.03266 6.70131 8.01484 6.68858 8.04284C6.6784 8.07339 6.72167 8.09121 6.72167 8.09121L8.95415 9.11708M8.35594 8.48323C8.12683 8.23376 7.84682 8.24904 7.65081 8.01739C7.4548 7.78065 7.21806 7.7781 7.10351 7.72465C6.99405 7.6661 7.00168 7.56173 6.96605 7.57191C6.92786 7.58464 6.94314 7.70174 7.07805 7.8061C7.21297 7.90538 7.3377 7.85193 7.57953 8.13448C7.82136 8.41704 8.00974 8.35086 8.21593 8.61815" fill="#F6B40E"/>
<path d="M9.04833 8.88543L6.74458 8.03266C6.74458 8.03266 6.70131 8.01484 6.68858 8.04284C6.6784 8.07339 6.72167 8.09121 6.72167 8.09121L8.95415 9.11708M8.35594 8.48323C8.12683 8.23376 7.84682 8.24904 7.65081 8.01739C7.4548 7.78065 7.21806 7.7781 7.10351 7.72465C6.99405 7.6661 7.00168 7.56173 6.96605 7.57191C6.92786 7.58464 6.94314 7.70174 7.07805 7.8061C7.21297 7.90538 7.3377 7.85193 7.57953 8.13448C7.82136 8.41704 8.00974 8.35086 8.21593 8.61815" stroke="#85340A" stroke-width="0.0704"/>
<path d="M9.08854 8.91264L7.28649 7.24318C7.28649 7.24318 7.25332 7.21015 7.23085 7.23115C7.20975 7.25548 7.24291 7.2885 7.24291 7.2885L8.91287 9.09061M8.60276 8.27609C8.48656 7.95793 8.22202 7.86489 8.12958 7.57586C8.03908 7.28213 7.82134 7.18919 7.73596 7.09596C7.65724 6.99998 7.70424 6.90648 7.66742 6.90225C7.62727 6.89939 7.59657 7.01342 7.68127 7.16148C7.76793 7.30483 7.90362 7.30317 8.01891 7.65677C8.13421 8.01037 8.33357 8.02131 8.42178 8.34715" fill="#F6B40E"/>
<path d="M9.08854 8.91264L7.28649 7.24318C7.28649 7.24318 7.25332 7.21015 7.23085 7.23115C7.20975 7.25548 7.24291 7.2885 7.24291 7.2885L8.91287 9.09061M8.60276 8.27609C8.48656 7.95793 8.22202 7.86489 8.12958 7.57586C8.03908 7.28213 7.82134 7.18919 7.73596 7.09596C7.65724 6.99998 7.70424 6.90648 7.66742 6.90225C7.62727 6.89939 7.59657 7.01342 7.68127 7.16148C7.76793 7.30483 7.90362 7.30317 8.01891 7.65677C8.13421 8.01037 8.33357 8.02131 8.42178 8.34715" stroke="#85340A" stroke-width="0.0704"/>
<path d="M8.12161 9.15478C7.79761 9.17278 7.65361 9.35638 7.35481 9.32038C7.58881 9.39958 7.77241 9.20878 8.11801 9.21958M8.97481 8.94238L7.44121 9.64438L9.02161 9.05758" fill="#85340A"/>
<path d="M8.12922 8.80683C7.82299 8.69947 7.61969 8.81399 7.35741 8.66639C7.54329 8.82911 7.78593 8.72309 8.10109 8.86532M8.99875 8.93711L7.31325 8.99879L8.99791 9.06145" fill="#85340A"/>
<path d="M8.26944 8.48828C8.02761 8.27191 7.79597 8.29991 7.61014 8.06317C7.7196 8.28463 7.98434 8.27954 8.22108 8.53156M9.02294 8.94139L7.44213 8.35336L8.97457 9.05595" fill="#85340A"/>
<path d="M8.52088 8.24765C8.38026 7.95521 8.15553 7.89243 8.07444 7.6026C8.09082 7.84909 8.33735 7.9457 8.45963 8.26913M9.04361 8.95463L7.80817 7.80641L8.95509 9.04195" fill="#85340A"/>
<path d="M9.11511 8.95322L8.08911 6.72122C8.08911 6.72122 8.07111 6.67801 8.04231 6.68881C8.01351 6.70321 8.03151 6.74642 8.03151 6.74642L8.88471 9.05042M8.90991 8.17922C8.92431 7.84082 8.71551 7.65362 8.74071 7.35122C8.76951 7.04522 8.60391 6.87602 8.56071 6.75722C8.52471 6.63842 8.60391 6.57002 8.57151 6.55202C8.53551 6.53402 8.46351 6.62761 8.48511 6.79681C8.51031 6.96241 8.63631 7.01282 8.60751 7.38362C8.57871 7.75442 8.75871 7.84082 8.71551 8.17562" fill="#F6B40E"/>
<path d="M9.11511 8.95322L8.08911 6.72122C8.08911 6.72122 8.07111 6.67801 8.04231 6.68881C8.01351 6.70321 8.03151 6.74642 8.03151 6.74642L8.88471 9.05042M8.90991 8.17922C8.92431 7.84082 8.71551 7.65362 8.74071 7.35122C8.76951 7.04522 8.60391 6.87602 8.56071 6.75722C8.52471 6.63842 8.60391 6.57002 8.57151 6.55202C8.53551 6.53402 8.46351 6.62761 8.48511 6.79681C8.51031 6.96241 8.63631 7.01282 8.60751 7.38362C8.57871 7.75442 8.75871 7.84082 8.71551 8.17562" stroke="#85340A" stroke-width="0.0704"/>
<path d="M9.12435 9.00084L9.0306 6.5461C9.0306 6.5461 9.03051 6.4993 8.99976 6.49826C8.96765 6.50054 8.96774 6.54734 8.96774 6.54734L8.8743 9.00247M9.23097 8.20723C9.37378 7.9001 9.25251 7.64724 9.39151 7.3775C9.53522 7.10582 9.44698 6.88613 9.45253 6.75984C9.46473 6.6363 9.56408 6.60342 9.54103 6.57439C9.51466 6.54398 9.41232 6.60291 9.36753 6.76749C9.32744 6.93013 9.42456 7.02491 9.25605 7.35647C9.08755 7.68802 9.22078 7.83672 9.05275 8.12951" fill="#F6B40E"/>
<path d="M9.12435 9.00084L9.0306 6.5461C9.0306 6.5461 9.03051 6.4993 8.99976 6.49826C8.96765 6.50054 8.96774 6.54734 8.96774 6.54734L8.8743 9.00247M9.23097 8.20723C9.37378 7.9001 9.25251 7.64724 9.39151 7.3775C9.53522 7.10582 9.44698 6.88613 9.45253 6.75984C9.46473 6.6363 9.56408 6.60342 9.54103 6.57439C9.51466 6.54398 9.41232 6.60291 9.36753 6.76749C9.32744 6.93013 9.42456 7.02491 9.25605 7.35647C9.08755 7.68802 9.22078 7.83672 9.05275 8.12951" stroke="#85340A" stroke-width="0.0704"/>
<path d="M9.11451 9.0484L9.96728 6.74464C9.96728 6.74464 9.9851 6.70137 9.9571 6.68864C9.92655 6.67846 9.90873 6.72173 9.90873 6.72173L8.88286 8.95421M9.51671 8.356C9.76618 8.12689 9.7509 7.84688 9.98255 7.65087C10.2193 7.45486 10.2218 7.21812 10.2753 7.10357C10.3338 6.99411 10.4382 7.00175 10.428 6.96611C10.4153 6.92792 10.2982 6.9432 10.1938 7.07811C10.0946 7.21303 10.148 7.33776 9.86545 7.57959C9.58289 7.82142 9.64908 8.0098 9.38179 8.21599" fill="#F6B40E"/>
<path d="M9.11451 9.0484L9.96728 6.74464C9.96728 6.74464 9.9851 6.70137 9.9571 6.68864C9.92655 6.67846 9.90873 6.72173 9.90873 6.72173L8.88286 8.95421M9.51671 8.356C9.76618 8.12689 9.7509 7.84688 9.98255 7.65087C10.2193 7.45486 10.2218 7.21812 10.2753 7.10357C10.3338 6.99411 10.4382 7.00175 10.428 6.96611C10.4153 6.92792 10.2982 6.9432 10.1938 7.07811C10.0946 7.21303 10.148 7.33776 9.86545 7.57959C9.58289 7.82142 9.64908 8.0098 9.38179 8.21599" stroke="#85340A" stroke-width="0.0704"/>
<path d="M9.08724 9.08854L10.7567 7.28649C10.7567 7.28649 10.7897 7.25332 10.7687 7.23085C10.7444 7.20975 10.7114 7.24291 10.7114 7.24291L8.90927 8.91287M9.72379 8.60276C10.0419 8.48656 10.135 8.22202 10.424 8.12958C10.7177 8.03908 10.8107 7.82134 10.9039 7.73596C10.9999 7.65724 11.0934 7.70424 11.0976 7.66742C11.1005 7.62727 10.9865 7.59657 10.8384 7.68127C10.6951 7.76793 10.6967 7.90362 10.3431 8.01891C9.98951 8.13421 9.97857 8.33357 9.65273 8.42178" fill="#F6B40E"/>
<path d="M9.08724 9.08854L10.7567 7.28649C10.7567 7.28649 10.7897 7.25332 10.7687 7.23085C10.7444 7.20975 10.7114 7.24291 10.7114 7.24291L8.90927 8.91287M9.72379 8.60276C10.0419 8.48656 10.135 8.22202 10.424 8.12958C10.7177 8.03908 10.8107 7.82134 10.9039 7.73596C10.9999 7.65724 11.0934 7.70424 11.0976 7.66742C11.1005 7.62727 10.9865 7.59657 10.8384 7.68127C10.6951 7.76793 10.6967 7.90362 10.3431 8.01891C9.98951 8.13421 9.97857 8.33357 9.65273 8.42178" stroke="#85340A" stroke-width="0.0704"/>
<path d="M8.84522 8.12161C8.82722 7.79761 8.64362 7.65361 8.67962 7.35481C8.60042 7.58881 8.79122 7.77241 8.78042 8.11801M9.05762 8.97481L8.35562 7.44121L8.94242 9.02161" fill="#85340A"/>
<path d="M9.19311 8.12922C9.30046 7.82299 9.18595 7.61969 9.33355 7.35741C9.17083 7.54329 9.27685 7.78593 9.13461 8.10109M9.06283 8.99875L9.00115 7.31325L8.93849 8.99791" fill="#85340A"/>
<path d="M9.5116 8.26944C9.72797 8.02761 9.69997 7.79597 9.93671 7.61014C9.71524 7.7196 9.72033 7.98434 9.46832 8.22108M9.05848 9.02294L9.64651 7.44213L8.94393 8.97457" fill="#85340A"/>
<path d="M9.75228 8.52088C10.0447 8.38026 10.1075 8.15553 10.3973 8.07444C10.1508 8.09082 10.0542 8.33735 9.73081 8.45963M9.04531 9.04361L10.1935 7.80817L8.95799 8.95509" fill="#85340A"/>
<path d="M9.04678 9.11523L11.2788 8.08923C11.2788 8.08923 11.322 8.07123 11.3112 8.04243C11.2968 8.01363 11.2536 8.03163 11.2536 8.03163L8.94958 8.88483M9.82078 8.91003C10.1592 8.92443 10.3464 8.71563 10.6488 8.74083C10.9548 8.76963 11.124 8.60403 11.2428 8.56083C11.3616 8.52483 11.43 8.60403 11.448 8.57163C11.466 8.53563 11.3724 8.46363 11.2032 8.48523C11.0376 8.51043 10.9872 8.63643 10.6164 8.60763C10.2456 8.57883 10.1592 8.75883 9.82438 8.71563" fill="#F6B40E"/>
<path d="M9.04678 9.11523L11.2788 8.08923C11.2788 8.08923 11.322 8.07123 11.3112 8.04243C11.2968 8.01363 11.2536 8.03163 11.2536 8.03163L8.94958 8.88483M9.82078 8.91003C10.1592 8.92443 10.3464 8.71563 10.6488 8.74083C10.9548 8.76963 11.124 8.60403 11.2428 8.56083C11.3616 8.52483 11.43 8.60403 11.448 8.57163C11.466 8.53563 11.3724 8.46363 11.2032 8.48523C11.0376 8.51043 10.9872 8.63643 10.6164 8.60763C10.2456 8.57883 10.1592 8.75883 9.82438 8.71563" stroke="#85340A" stroke-width="0.0704"/>
<path d="M8.9991 9.12435L11.4538 9.0306C11.4538 9.0306 11.5006 9.03051 11.5017 8.99976C11.4994 8.96765 11.4526 8.96774 11.4526 8.96774L8.99747 8.8743M9.79271 9.23097C10.0998 9.37378 10.3527 9.25251 10.6224 9.39151C10.8941 9.53522 11.1138 9.44698 11.2401 9.45253C11.3636 9.46473 11.3965 9.56408 11.4255 9.54103C11.456 9.51466 11.397 9.41232 11.2324 9.36753C11.0698 9.32744 10.975 9.42456 10.6435 9.25605C10.3119 9.08755 10.1632 9.22078 9.87043 9.05275" fill="#F6B40E"/>
<path d="M8.9991 9.12435L11.4538 9.0306C11.4538 9.0306 11.5006 9.03051 11.5017 8.99976C11.4994 8.96765 11.4526 8.96774 11.4526 8.96774L8.99747 8.8743M9.79271 9.23097C10.0998 9.37378 10.3527 9.25251 10.6224 9.39151C10.8941 9.53522 11.1138 9.44698 11.2401 9.45253C11.3636 9.46473 11.3965 9.56408 11.4255 9.54103C11.456 9.51466 11.397 9.41232 11.2324 9.36753C11.0698 9.32744 10.975 9.42456 10.6435 9.25605C10.3119 9.08755 10.1632 9.22078 9.87043 9.05275" stroke="#85340A" stroke-width="0.0704"/>
<path d="M8.95167 9.11457L11.2554 9.96734C11.2554 9.96734 11.2987 9.98516 11.3114 9.95716C11.3216 9.92661 11.2783 9.90879 11.2783 9.90879L9.04585 8.88292M9.64406 9.51677C9.87317 9.76624 10.1532 9.75096 10.3492 9.98261C10.5452 10.2194 10.7819 10.2219 10.8965 10.2754C11.006 10.3339 10.9983 10.4383 11.034 10.4281C11.0721 10.4154 11.0569 10.2983 10.9219 10.1939C10.787 10.0946 10.6623 10.1481 10.4205 9.86552C10.1786 9.58296 9.99026 9.64914 9.78407 9.38185" fill="#F6B40E"/>
<path d="M8.95167 9.11457L11.2554 9.96734C11.2554 9.96734 11.2987 9.98516 11.3114 9.95716C11.3216 9.92661 11.2783 9.90879 11.2783 9.90879L9.04585 8.88292M9.64406 9.51677C9.87317 9.76624 10.1532 9.75096 10.3492 9.98261C10.5452 10.2194 10.7819 10.2219 10.8965 10.2754C11.006 10.3339 10.9983 10.4383 11.034 10.4281C11.0721 10.4154 11.0569 10.2983 10.9219 10.1939C10.787 10.0946 10.6623 10.1481 10.4205 9.86552C10.1786 9.58296 9.99026 9.64914 9.78407 9.38185" stroke="#85340A" stroke-width="0.0704"/>
<path d="M8.91146 9.08736L10.7135 10.7568C10.7135 10.7568 10.7467 10.7898 10.7692 10.7688C10.7902 10.7445 10.7571 10.7115 10.7571 10.7115L9.08713 8.90939M9.39724 9.72391C9.51344 10.0421 9.77798 10.1351 9.87042 10.4241C9.96092 10.7179 10.1787 10.8108 10.264 10.904C10.3428 11 10.2958 11.0935 10.3326 11.0978C10.3727 11.1006 10.4034 10.9866 10.3187 10.8385C10.2321 10.6952 10.0964 10.6968 9.98109 10.3432C9.86579 9.98963 9.66643 9.97869 9.57822 9.65285" fill="#F6B40E"/>
<path d="M8.91146 9.08736L10.7135 10.7568C10.7135 10.7568 10.7467 10.7898 10.7692 10.7688C10.7902 10.7445 10.7571 10.7115 10.7571 10.7115L9.08713 8.90939M9.39724 9.72391C9.51344 10.0421 9.77798 10.1351 9.87042 10.4241C9.96092 10.7179 10.1787 10.8108 10.264 10.904C10.3428 11 10.2958 11.0935 10.3326 11.0978C10.3727 11.1006 10.4034 10.9866 10.3187 10.8385C10.2321 10.6952 10.0964 10.6968 9.98109 10.3432C9.86579 9.98963 9.66643 9.97869 9.57822 9.65285" stroke="#85340A" stroke-width="0.0704"/>
<path d="M9.87839 8.84522C10.2024 8.82722 10.3464 8.64362 10.6452 8.67962C10.4112 8.60042 10.2276 8.79122 9.88199 8.78042M9.02519 9.05762L10.5588 8.35562L8.97839 8.94242" fill="#85340A"/>
<path d="M9.87078 9.19317C10.177 9.30053 10.3803 9.18601 10.6426 9.33361C10.4567 9.17089 10.2141 9.27691 9.89891 9.13468M9.00125 9.06289L10.6868 9.00121L9.00209 8.93855" fill="#85340A"/>
<path d="M9.73056 9.51172C9.97239 9.72809 10.204 9.70009 10.3899 9.93683C10.2804 9.71537 10.0157 9.72046 9.77892 9.46844M8.97706 9.05861L10.5579 9.64664L9.02543 8.94405" fill="#85340A"/>
<path d="M9.47912 9.75235C9.61974 10.0448 9.84447 10.1076 9.92556 10.3974C9.90918 10.1509 9.66265 10.0543 9.54037 9.73087M8.95639 9.04537L10.1918 10.1936L9.04491 8.95805" fill="#85340A"/>
<path d="M9.00002 9.99846C9.55145 9.99846 9.99846 9.55145 9.99846 9.00002C9.99846 8.4486 9.55145 8.00159 9.00002 8.00159C8.4486 8.00159 8.00159 8.4486 8.00159 9.00002C8.00159 9.55145 8.4486 9.99846 9.00002 9.99846Z" fill="#F6B40E" stroke="#85340A" stroke-width="0.09375"/>
<path d="M9.34097 8.78904C9.27066 8.78904 9.20737 8.81716 9.1687 8.87693C9.24604 8.94724 9.4148 8.95427 9.53081 8.8699C9.50653 8.84371 9.47718 8.82273 9.44455 8.80822C9.41192 8.79372 9.37668 8.786 9.34097 8.78552V8.78904ZM9.34097 8.8031C9.40776 8.8031 9.46753 8.83123 9.47808 8.86287C9.40073 8.94724 9.27769 8.94021 9.20034 8.87693C9.2355 8.82419 9.28823 8.8031 9.34097 8.8031Z" fill="#843511"/>
<path d="M9.35505 8.73987C9.25661 8.73987 9.232 8.76096 9.1863 8.79963C9.1406 8.83831 9.11599 8.83127 9.10896 8.83831C9.10193 8.84534 9.10896 8.86995 9.12302 8.86292C9.1406 8.85237 9.17224 8.83831 9.21794 8.79963C9.26364 8.76448 9.30935 8.76448 9.35857 8.76448C9.49216 8.76448 9.5695 8.87698 9.58708 8.86995C9.60114 8.86291 9.50974 8.73987 9.35505 8.73987Z" fill="#85340A"/>
<path d="M9.63281 8.78557C9.45703 8.63089 9.23203 8.60979 9.10898 8.72229C9.08019 8.76058 9.06091 8.80517 9.05273 8.85237C9.03516 8.94026 9.06328 9.03518 9.13359 9.13362C9.12305 9.13362 9.10898 9.13714 9.09844 9.14768C9.03867 9.02815 9.01758 8.90862 9.03867 8.79612L9.06328 8.70823C9.23203 8.56761 9.46406 8.55354 9.63281 8.78557Z" fill="#85340A"/>
<path d="M9.33752 8.93323C9.37636 8.93323 9.40784 8.90175 9.40784 8.86292C9.40784 8.82408 9.37636 8.7926 9.33752 8.7926C9.29869 8.7926 9.26721 8.82408 9.26721 8.86292C9.26721 8.90175 9.29869 8.93323 9.33752 8.93323Z" fill="#85340A"/>
<path d="M9.53787 8.90857C9.40779 9.00701 9.27771 8.99998 9.20037 8.95427C9.12302 8.90857 9.12302 8.89099 9.1406 8.89099C9.15466 8.89099 9.17224 8.90857 9.23201 8.94021C9.29529 8.96834 9.38669 8.96834 9.54138 8.90505L9.53787 8.90857Z" fill="#85340A"/>
<path d="M8.84526 9.1406C8.83349 9.14226 8.82233 9.14688 8.81283 9.15403C8.80332 9.16118 8.79579 9.17062 8.79092 9.18147C8.78606 9.19232 8.78403 9.20423 8.78502 9.21608C8.78601 9.22793 8.78999 9.23933 8.79658 9.24923C8.80318 9.25912 8.81218 9.26718 8.82273 9.27265C8.83329 9.27812 8.84506 9.28083 8.85695 9.28051C8.86884 9.2802 8.88045 9.27687 8.8907 9.27085C8.90096 9.26482 8.90951 9.2563 8.91558 9.24607C8.9437 9.26716 8.97886 9.26716 8.99995 9.26716H9.0105C9.02808 9.26716 9.06675 9.26716 9.09136 9.24607C9.10542 9.26365 9.12651 9.27419 9.14761 9.27419C9.16376 9.27261 9.17886 9.2655 9.19036 9.25405C9.20186 9.2426 9.20905 9.22753 9.21071 9.21139C9.21236 9.19525 9.20838 9.17903 9.19945 9.16549C9.19051 9.15195 9.17716 9.14191 9.16167 9.13708C9.17925 9.14412 9.19331 9.16169 9.19331 9.18279C9.19331 9.19538 9.18831 9.20745 9.17941 9.21635C9.17051 9.22525 9.15844 9.23025 9.14585 9.23025C9.13326 9.23025 9.12119 9.22525 9.11229 9.21635C9.10339 9.20745 9.09839 9.19538 9.09839 9.18279C9.0903 9.20133 9.07705 9.21715 9.06022 9.22837C9.04339 9.23959 9.02369 9.24573 9.00347 9.24607C8.98353 9.24459 8.96432 9.23799 8.94769 9.2269C8.93106 9.21582 8.91758 9.20062 8.90854 9.18279C8.90854 9.2074 8.88745 9.22849 8.86284 9.22849C8.85072 9.23036 8.83835 9.22733 8.82847 9.22008C8.81858 9.21282 8.81197 9.20194 8.81011 9.18982C8.80824 9.1777 8.81127 9.16533 8.81852 9.15544C8.82577 9.14555 8.83666 9.13895 8.84878 9.13708L8.84526 9.1406ZM8.92261 9.34451C8.84526 9.34451 8.81714 9.41482 8.74683 9.46052C8.78198 9.44294 8.81714 9.41482 8.86987 9.38318C8.92261 9.35154 8.96831 9.39021 8.99995 9.39021C9.03159 9.39021 9.0773 9.35154 9.13003 9.38318C9.18276 9.41482 9.2144 9.44294 9.25308 9.46052C9.18276 9.4113 9.15464 9.34451 9.0773 9.34451C9.0504 9.34653 9.02415 9.35369 8.99995 9.3656C8.96479 9.35154 8.93667 9.34451 8.92261 9.34451Z" fill="#85340A"/>
<path d="M8.89451 9.43243C8.86638 9.43243 8.82419 9.44298 8.76794 9.46056C8.90857 9.4254 8.93669 9.47462 8.99998 9.47462C9.05974 9.47462 9.09138 9.42892 9.23201 9.46056C9.07732 9.41134 9.04568 9.44298 8.99998 9.44298C8.96834 9.44298 8.94724 9.43243 8.89451 9.43243Z" fill="#85340A"/>
<path d="M8.77495 9.45703H8.74683C8.90854 9.47461 8.8312 9.56602 8.99995 9.56602C9.1687 9.56602 9.09136 9.47461 9.25308 9.46055C9.08433 9.44297 9.13706 9.54492 8.99995 9.54492C8.86987 9.54492 8.90855 9.45703 8.77495 9.45703Z" fill="#85340A"/>
<path d="M8.37769 8.78557C8.55347 8.63089 8.77847 8.60979 8.90151 8.72229C8.9303 8.76058 8.94958 8.80517 8.95776 8.85237C8.97534 8.94026 8.94722 9.03518 8.8769 9.13362C8.88745 9.13362 8.90151 9.13714 8.91206 9.14768C8.97183 9.02815 8.99292 8.90862 8.97183 8.79612L8.94722 8.70823C8.77847 8.56761 8.54644 8.55354 8.37769 8.78557Z" fill="#85340A"/>
<path d="M8.65545 8.73987C8.75388 8.73987 8.77849 8.76096 8.8242 8.79963C8.8699 8.83831 8.89451 8.83127 8.90154 8.83831C8.90857 8.84534 8.90154 8.86995 8.88748 8.86292C8.8699 8.85237 8.83826 8.83831 8.79256 8.79963C8.74685 8.76448 8.70115 8.76448 8.65193 8.76448C8.51834 8.76448 8.44099 8.87698 8.42342 8.86995C8.40935 8.86291 8.50076 8.73987 8.65545 8.73987Z" fill="#85340A"/>
<path d="M8.652 8.78904C8.58169 8.78904 8.51841 8.81716 8.47974 8.87693C8.55708 8.94724 8.72583 8.95427 8.84185 8.8699C8.81757 8.84371 8.78822 8.82273 8.75558 8.80822C8.72295 8.79372 8.68771 8.786 8.652 8.78552V8.78904ZM8.652 8.8031C8.7188 8.8031 8.77857 8.83123 8.78911 8.86287C8.71177 8.94724 8.58872 8.94021 8.51138 8.87693C8.54653 8.82419 8.59927 8.8031 8.652 8.8031Z" fill="#843511"/>
<path d="M8.65894 8.93323C8.69777 8.93323 8.72925 8.90175 8.72925 8.86292C8.72925 8.82408 8.69777 8.7926 8.65894 8.7926C8.6201 8.7926 8.58862 8.82408 8.58862 8.86292C8.58862 8.90175 8.6201 8.93323 8.65894 8.93323Z" fill="#85340A"/>
<path d="M8.47263 8.90857C8.60271 9.00701 8.73279 8.99998 8.81013 8.95427C8.88748 8.90857 8.88748 8.89099 8.8699 8.89099C8.85584 8.89099 8.83826 8.90857 8.77849 8.94021C8.71521 8.96834 8.6238 8.96834 8.46912 8.90505L8.47263 8.90857Z" fill="#85340A"/>
</g>
<defs>
<clipPath id="clip0_14_1312">
<rect width="18" height="18" rx="9" fill="white"/>
</clipPath>
</defs>
</svg>
