<svg width="18" height="18" viewBox="0 0 18 18" fill="none" xmlns="http://www.w3.org/2000/svg">
<g clip-path="url(#clip0_14_1330)">
<path d="M0 0V18H18V0H0Z" fill="#006233"/>
<path fill-rule="evenodd" clip-rule="evenodd" d="M6.7385 9.32404C6.3854 9.80659 6.64034 10.1204 7.00435 10.1428C7.24429 10.1589 7.74327 9.83388 7.7419 9.45181L7.60557 9.38234C7.68192 9.57834 7.60285 9.64036 7.44061 9.77433C7.12023 10.0386 6.46583 10.0572 6.7385 9.32404Z" fill="white" stroke="white" stroke-width="0.00924769"/>
<path fill-rule="evenodd" clip-rule="evenodd" d="M9.53736 10.5893C11.5251 10.6402 12.1577 8.88987 10.9307 7.39136L10.8093 7.55634C10.8884 8.25474 11.0029 8.94321 11.0138 9.65897C10.7739 9.91575 10.4249 9.82023 10.3554 9.53492C10.3594 9.14789 10.2204 8.8204 10.0445 8.5078L9.94636 8.67278C10.0609 8.92956 10.1849 9.2186 10.2108 9.53492C9.6437 10.1539 9.01657 10.2792 9.2497 9.46546C8.80117 10.1787 9.4801 10.6811 10.249 9.5833C10.414 10.3326 11.052 9.86737 11.0902 9.70611C11.1597 9.21488 11.1243 8.42344 10.9838 7.79824C11.5374 8.6703 11.5564 9.29923 11.262 9.71976C10.9348 10.1874 10.2231 10.4057 9.53736 10.5893Z" fill="white" stroke="white" stroke-width="0.0231192"/>
<path fill-rule="evenodd" clip-rule="evenodd" d="M10.6648 8.61078C10.2395 8.63931 10.0213 8.55992 10.2518 8.27337C10.4794 7.99302 10.6921 8.21631 10.7494 8.59093C10.8025 8.94199 10.0023 9.38981 9.72551 9.38981C9.30697 9.38981 9.11338 8.89981 9.4992 8.45944C9.00295 9.74459 10.5708 8.99905 10.6648 8.61078ZM10.3704 8.31306C10.3186 8.31058 10.2804 8.3937 10.3063 8.40982C10.3813 8.45696 10.4999 8.42843 10.5121 8.40486C10.538 8.35276 10.4426 8.31554 10.3704 8.31306Z" fill="white" stroke="white" stroke-width="0.0231192"/>
<path fill-rule="evenodd" clip-rule="evenodd" d="M8.35537 9.21738C7.94637 9.94927 8.354 10.2519 8.87888 10.1676C9.18427 10.1167 9.57145 9.91949 9.79504 9.65031C9.79913 9.05735 9.78958 8.46936 9.73232 7.89502C9.93682 7.67297 9.7146 7.67421 9.63689 7.43604C9.60145 7.57497 9.51556 7.72507 9.59872 7.83299C9.65734 8.4123 9.69006 8.99905 9.6887 9.59697C9.27697 9.8984 8.9675 10.01 8.74664 10.0076C8.28993 10.0038 8.19177 9.65403 8.35537 9.21738Z" fill="white" stroke="white" stroke-width="0.0231192"/>
<path fill-rule="evenodd" clip-rule="evenodd" d="M9.19114 9.41089C9.18433 8.85887 9.17478 8.23243 9.12025 7.84664C9.33293 7.63203 9.10934 7.62707 9.03981 7.38641C8.99891 7.52287 8.90893 7.67172 8.98801 7.78213C9.02345 8.3726 9.05754 8.96307 9.06435 9.55355C9.11343 9.52501 9.16933 9.51385 9.19114 9.41089Z" fill="white" stroke="white" stroke-width="0.0231192"/>
<path fill-rule="evenodd" clip-rule="evenodd" d="M7.60424 9.38486C7.55244 9.32532 7.51563 9.25833 7.47336 9.20002C7.46655 9.11691 7.5279 9.04 7.53608 8.99782C7.60561 9.09582 7.64651 9.17025 7.7024 9.21863M7.77602 9.25709C7.87827 9.2943 8.0037 9.2943 8.11958 9.29678C8.56675 9.30423 9.0371 9.23724 8.98665 9.78802C8.97192 9.99431 8.87221 10.188 8.70743 10.3303C8.54266 10.4726 8.32495 10.5532 8.09777 10.5559C7.52926 10.5509 7.04392 9.98029 7.92053 8.9296C8.00506 8.91719 8.11549 8.93828 8.20683 8.94572C8.36361 8.95689 8.52449 8.94324 8.70854 8.80927C8.68672 8.46317 8.68672 8.13569 8.64037 7.82308C8.5613 7.71268 8.65128 7.56506 8.69217 7.42737C8.7617 7.66802 8.98393 7.67298 8.77261 7.88883C8.82305 8.23617 8.82851 8.58971 8.82851 8.80059C8.72217 8.94821 8.63901 9.10451 8.32817 9.16405C8.01051 9.12188 7.86736 8.71748 7.53608 8.85145C7.62742 8.48675 8.46859 8.40363 8.55312 8.69142C8.49722 8.99162 7.71195 8.87129 7.50336 9.84136C7.43928 10.1403 7.78557 10.4157 8.14139 10.3934C8.48904 10.3723 8.85986 10.1527 8.89667 9.78305C8.9253 9.47417 8.44678 9.51015 8.24637 9.51387C7.95462 9.52007 7.77057 9.47914 7.66014 9.42083M7.95871 8.75221C8.01051 8.70755 8.19184 8.67654 8.25728 8.74849C8.2082 8.77826 8.16048 8.81051 8.12094 8.84897C8.05278 8.81671 8.00779 8.78446 7.95871 8.75221Z" fill="white"/>
<path d="M7.60424 9.38486C7.55244 9.32532 7.51563 9.25833 7.47336 9.20002C7.46655 9.11691 7.5279 9.04 7.53608 8.99782C7.60561 9.09582 7.64651 9.17025 7.7024 9.21863M7.77602 9.25709C7.87827 9.2943 8.0037 9.2943 8.11958 9.29678C8.56675 9.30423 9.0371 9.23724 8.98665 9.78802C8.97192 9.99431 8.87221 10.188 8.70743 10.3303C8.54266 10.4726 8.32495 10.5532 8.09777 10.5559C7.52926 10.5509 7.04392 9.98029 7.92053 8.9296C8.00506 8.91719 8.11549 8.93828 8.20683 8.94572C8.36361 8.95689 8.52449 8.94324 8.70854 8.80927C8.68672 8.46317 8.68672 8.13569 8.64037 7.82308C8.5613 7.71268 8.65128 7.56506 8.69217 7.42737C8.7617 7.66802 8.98393 7.67298 8.77261 7.88883C8.82305 8.23617 8.82851 8.58971 8.82851 8.80059C8.72217 8.94821 8.63901 9.10451 8.32817 9.16405C8.01051 9.12188 7.86736 8.71748 7.53608 8.85145C7.62742 8.48675 8.46859 8.40363 8.55312 8.69142C8.49722 8.99162 7.71195 8.87129 7.50336 9.84136C7.43928 10.1403 7.78557 10.4157 8.14139 10.3934C8.48904 10.3723 8.85986 10.1527 8.89667 9.78305C8.9253 9.47417 8.44678 9.51015 8.24637 9.51387C7.95462 9.52007 7.77057 9.47914 7.66014 9.42083M7.95871 8.75221C8.01051 8.70755 8.19184 8.67654 8.25728 8.74849C8.2082 8.77826 8.16048 8.81051 8.12094 8.84897C8.05278 8.81671 8.00779 8.78446 7.95871 8.75221Z" stroke="white" stroke-width="0.00924769"/>
<path fill-rule="evenodd" clip-rule="evenodd" d="M8.40313 7.72632C8.44827 7.80716 8.47296 7.89617 8.47539 7.98682C8.44539 8.11583 8.32406 8.23616 8.19863 8.23988C8.12092 8.24236 8.03367 8.22251 7.97232 8.11211C7.9655 8.09847 7.93278 8.06621 7.90142 8.0811C7.76373 8.28702 7.66148 8.37385 7.53742 8.37261C7.28929 8.36889 7.36291 8.16793 7.13387 8.10591C7.03844 8.10343 6.88166 8.1915 6.80122 8.36393C6.49584 9.15164 6.21772 8.36145 6.33633 7.99427C6.35405 8.34532 6.44676 8.55373 6.54219 8.54752C6.61172 8.54132 6.67307 8.39494 6.76169 8.24112C6.82985 8.12327 6.99345 7.91115 7.16659 7.91115C7.32474 7.91487 7.22522 8.1791 7.54151 8.17538C7.6942 8.1729 7.83462 8.06621 7.97641 7.85285C8.00776 7.84789 8.01594 7.89875 8.02276 7.91611C8.04457 7.9893 8.18363 8.19026 8.37177 8.00667C8.36223 7.96697 8.36632 7.90123 8.3186 7.88758L8.40313 7.72632Z" fill="white" stroke="white" stroke-width="0.0231192"/>
<path fill-rule="evenodd" clip-rule="evenodd" d="M9.39701 7.07382C9.22932 7.14949 9.10662 7.08002 9.03709 7.01303C9.15843 6.99071 9.2525 6.95101 9.27977 6.86418C9.22523 6.75253 9.09572 6.70415 8.91303 6.70291C8.669 6.70911 8.54357 6.79843 8.52857 6.92124C8.64173 6.92496 8.74398 6.89643 8.7876 6.99567C8.5872 7.08498 8.35134 7.11724 8.09504 7.116C7.67513 7.13584 7.61378 6.96342 7.50335 6.81208C7.49517 6.80215 7.45836 6.78603 7.43928 6.78851C7.30976 6.78851 7.21433 7.20035 7.06845 7.19911C6.92258 7.18174 6.9553 6.93365 6.91303 6.79223C6.87759 7.01428 6.95802 7.84044 7.40928 6.94357C7.42292 6.9138 7.442 6.92248 7.45427 6.94729C7.57561 7.19787 7.82237 7.2847 8.08822 7.29711C8.31044 7.30827 8.59401 7.2202 8.89803 7.0639C8.97847 7.14453 9.04255 7.23632 9.2116 7.25369C9.40928 7.26237 9.6206 7.13212 9.66831 6.97086C9.69285 6.88775 9.69694 6.724 9.60015 6.72152C9.46518 6.7178 9.36702 7.01552 9.39837 7.28346C9.4011 7.27974 9.4161 7.21648 9.4161 7.21648M8.81896 6.85921C8.90758 6.822 8.99347 6.80463 9.06163 6.8865C9.02063 6.89698 8.9819 6.91377 8.94711 6.93612C8.90894 6.90883 8.85713 6.89519 8.81896 6.85921ZM9.47063 7.04405C9.49244 6.95597 9.50471 6.88526 9.58379 6.83937C9.60015 6.9324 9.60287 6.9845 9.47063 7.04405ZM10.0023 7.1805C9.97642 7.10483 9.95052 7.03908 9.94234 6.95721C9.92325 6.79099 10.08 6.69671 10.2218 6.71036C10.3677 6.724 10.4645 6.77362 10.6036 6.81704C10.7126 6.85053 10.8599 6.87658 11.0003 6.91256C11.0794 6.94481 11.0003 7.02916 10.9798 7.04033C10.6281 7.16562 10.3786 7.36409 10.155 7.37278C10.0214 7.37898 9.9028 7.29959 9.7951 7.13708C9.78828 6.822 9.77601 6.45233 9.74193 6.22036C9.79374 6.17322 9.80464 6.13849 9.82918 6.10004C9.85645 6.40644 9.86736 6.72896 9.87417 7.05397C9.9028 7.10979 9.93825 7.15693 10.0023 7.1805ZM10.2273 7.20531C10.0391 7.25369 10.0623 7.10855 10.0446 7.01924C10.0241 6.91504 10.0378 6.79719 10.1836 6.82696C10.3732 6.87286 10.5463 6.93364 10.714 6.99815L10.2273 7.20531Z" fill="white"/>
<path d="M9.39701 7.07382C9.22932 7.14949 9.10662 7.08002 9.03709 7.01303C9.15843 6.99071 9.2525 6.95101 9.27977 6.86418C9.22523 6.75253 9.09572 6.70415 8.91303 6.70291C8.669 6.70911 8.54357 6.79843 8.52857 6.92124C8.64173 6.92496 8.74398 6.89643 8.7876 6.99567C8.5872 7.08498 8.35134 7.11724 8.09504 7.116C7.67513 7.13584 7.61378 6.96342 7.50335 6.81208C7.49517 6.80215 7.45836 6.78603 7.43928 6.78851C7.30976 6.78851 7.21433 7.20035 7.06845 7.19911C6.92258 7.18174 6.9553 6.93365 6.91303 6.79223C6.87759 7.01428 6.95802 7.84044 7.40928 6.94357C7.42292 6.9138 7.442 6.92248 7.45427 6.94729C7.57561 7.19787 7.82237 7.2847 8.08822 7.29711C8.31044 7.30827 8.59401 7.2202 8.89803 7.0639C8.97847 7.14453 9.04255 7.23632 9.2116 7.25369C9.40928 7.26237 9.6206 7.13212 9.66831 6.97086C9.69285 6.88775 9.69694 6.724 9.60015 6.72152C9.46518 6.7178 9.36702 7.01552 9.39837 7.28346C9.4011 7.27974 9.4161 7.21648 9.4161 7.21648M8.81896 6.85921C8.90758 6.822 8.99347 6.80463 9.06163 6.8865C9.02063 6.89698 8.9819 6.91377 8.94711 6.93612C8.90894 6.90883 8.85713 6.89519 8.81896 6.85921ZM9.47063 7.04405C9.49244 6.95597 9.50471 6.88526 9.58379 6.83937C9.60015 6.9324 9.60287 6.9845 9.47063 7.04405ZM10.0023 7.1805C9.97642 7.10483 9.95052 7.03908 9.94234 6.95721C9.92325 6.79099 10.08 6.69671 10.2218 6.71036C10.3677 6.724 10.4645 6.77362 10.6036 6.81704C10.7126 6.85053 10.8599 6.87658 11.0003 6.91256C11.0794 6.94481 11.0003 7.02916 10.9798 7.04033C10.6281 7.16562 10.3786 7.36409 10.155 7.37278C10.0214 7.37898 9.9028 7.29959 9.7951 7.13708C9.78828 6.822 9.77601 6.45233 9.74193 6.22036C9.79374 6.17322 9.80464 6.13849 9.82918 6.10004C9.85645 6.40644 9.86736 6.72896 9.87417 7.05397C9.9028 7.10979 9.93825 7.15693 10.0023 7.1805ZM10.2273 7.20531C10.0391 7.25369 10.0623 7.10855 10.0446 7.01924C10.0241 6.91504 10.0378 6.79719 10.1836 6.82696C10.3732 6.87286 10.5463 6.93364 10.714 6.99815L10.2273 7.20531Z" stroke="white" stroke-width="0.00924769"/>
<path fill-rule="evenodd" clip-rule="evenodd" d="M10.0432 7.35913L10.0691 7.4745H10.0896L10.0814 7.36657" fill="white"/>
<path d="M10.0432 7.35913L10.0691 7.4745H10.0896L10.0814 7.36657" stroke="white" stroke-width="0.00924769"/>
<path fill-rule="evenodd" clip-rule="evenodd" d="M7.04252 8.56489L7.13796 8.47557L7.24839 8.56117L7.14614 8.64428L7.04252 8.56489ZM7.2852 8.53512L7.38199 8.4458L7.49242 8.5314L7.39017 8.61451L7.2852 8.53512ZM6.61035 7.60971L6.70715 7.5204L6.81758 7.60599L6.71533 7.6891L6.61035 7.60971ZM6.65398 7.87269L6.75077 7.78338L6.85984 7.86897L6.75759 7.95209L6.65398 7.87269ZM8.40585 8.31307L8.49446 8.24732L8.57626 8.32795L8.48356 8.3875L8.40585 8.31307ZM7.23612 6.62973L7.29883 6.57142L7.37109 6.62725L7.30428 6.68183L7.23612 6.62973ZM7.39563 6.61112L7.45834 6.55157L7.5306 6.60864L7.46379 6.66198L7.39563 6.61112ZM10.7439 7.27726L10.684 7.32316L10.6267 7.26982L10.6894 7.22764L10.7439 7.27726Z" fill="white" stroke="white" stroke-width="0.0924769" stroke-linecap="round" stroke-linejoin="round"/>
<path fill-rule="evenodd" clip-rule="evenodd" d="M7.92186 8.9234L7.91504 9.0214L8.08682 9.03629L8.22451 8.94201L7.92186 8.9234Z" fill="white" stroke="white" stroke-width="0.00924769"/>
<path fill-rule="evenodd" clip-rule="evenodd" d="M9.37378 7.09244L9.42422 7.08252L9.41877 7.21029L9.38741 7.22145L9.37378 7.09244Z" fill="white" stroke="white" stroke-width="0.0231192"/>
<path d="M9.00005 12.2344C10.9336 12.2344 12.5086 10.8035 12.5086 9.04216C12.5039 8.57253 12.3915 8.11025 12.18 7.69091C11.9685 7.27157 11.6636 6.90637 11.2887 6.62341C11.75 7.11079 12.0078 7.75589 12.0094 8.42693C12.0094 9.95623 10.6629 11.1972 9.00005 11.1972C7.33716 11.1972 5.99067 9.95623 5.99067 8.42693C5.99292 7.75533 6.25204 7.11005 6.71489 6.62341C6.33939 6.906 6.03381 7.27105 5.82169 7.69041C5.60957 8.10977 5.49659 8.57224 5.49146 9.04216C5.49146 10.8035 7.06646 12.2379 9.00005 12.2379V12.2344Z" fill="white"/>
<path d="M8.52496 14.0106C7.75084 14.3628 6.7832 14.2667 5.96509 13.7865C5.92991 13.7705 5.91231 13.7945 5.9475 13.8825C6.03547 14.1147 6.10584 14.2988 5.84194 14.643C5.72758 14.795 5.85953 14.8191 6.05306 14.803C7.0383 14.715 8.00595 14.5149 8.47218 14.3468L8.52496 14.0106ZM8.50737 14.4268C8.19948 14.5389 7.67167 14.675 7.08229 14.771C6.84477 14.803 6.85357 14.9391 7.27582 14.9871C7.70686 15.0272 8.26106 14.747 8.59534 14.4989L8.50737 14.4268Z" fill="white" stroke="black" stroke-width="0.119342"/>
<path d="M8.99998 13.6584C9.10554 13.6584 9.29907 13.6184 9.4926 13.5944C9.85327 13.5384 9.58936 14.0426 8.99998 14.0426V14.2107C9.59816 14.2107 10.2227 13.6184 10.0908 13.3543C9.90605 12.9701 9.39584 13.2982 8.99998 13.2982C8.60412 13.2982 8.09391 12.9701 7.90918 13.3543C7.77722 13.6184 8.4018 14.2107 8.99998 14.2107V14.0426C8.41059 14.0426 8.14669 13.5384 8.50736 13.5944C8.70089 13.6184 8.89442 13.6584 8.99998 13.6584Z" fill="white"/>
<path d="M8.99998 14.0426C9.58936 14.0426 9.85327 13.5384 9.4926 13.5944C9.29907 13.6184 9.10554 13.6584 8.99998 13.6584C8.89442 13.6584 8.70089 13.6184 8.50736 13.5944C8.14669 13.5384 8.41059 14.0426 8.99998 14.0426ZM8.99998 14.0426V14.2107M8.99998 14.2107C9.59816 14.2107 10.2227 13.6184 10.0908 13.3543C9.90605 12.9701 9.39584 13.2982 8.99998 13.2982C8.60412 13.2982 8.09391 12.9701 7.90918 13.3543C7.77722 13.6184 8.4018 14.2107 8.99998 14.2107Z" stroke="black" stroke-width="0.119342"/>
<path d="M9.47504 14.0106C10.2492 14.3628 11.2168 14.2667 12.0349 13.7865C12.0701 13.7705 12.0877 13.7945 12.0525 13.8825C11.9645 14.1147 11.8942 14.2988 12.1581 14.643C12.2724 14.795 12.1405 14.8191 11.9469 14.803C10.9617 14.715 9.99405 14.5149 9.52782 14.3468L9.47504 14.0106ZM9.49263 14.4268C9.80052 14.5389 10.3195 14.675 10.9177 14.771C11.1552 14.803 11.1464 14.9391 10.7242 14.9871C10.2931 15.0272 9.73894 14.747 9.40466 14.4989L9.49263 14.4268Z" fill="white" stroke="black" stroke-width="0.119342"/>
<path d="M9.02644 14.3468C9.04403 14.4829 9.07042 14.779 9.27275 14.651C9.54545 14.4829 9.60702 14.3548 9.60702 14.1147C9.60702 13.9626 9.4047 13.7385 9.00005 13.7385C8.59539 13.7385 8.39307 13.9626 8.39307 14.1147C8.39307 14.3548 8.45464 14.4829 8.72734 14.651C8.92967 14.779 8.94726 14.4829 8.97366 14.3468C8.98245 14.2988 9.02644 14.3148 9.02644 14.3468Z" fill="white" stroke="black" stroke-width="0.119342"/>
<path d="M8.74493 4.0932C8.63057 3.50087 7.67172 3.46085 7.52217 3.3648C7.34623 3.26074 7.37262 3.3648 7.4342 3.52488C7.61014 3.94111 8.20832 4.1092 8.48102 4.15723C8.70094 4.18925 8.77132 4.20526 8.74493 4.0932Z" fill="white" stroke="black" stroke-width="0.119342"/>
<path d="M9.03513 4.10921C9.1319 3.50088 8.18184 3.21272 8.06748 3.07665C7.93553 2.93257 7.91794 3.02062 7.97951 3.18871C8.09387 3.54891 8.50732 3.97314 8.75363 4.0852C8.95596 4.18125 9.01754 4.22127 9.03513 4.10921Z" fill="white" stroke="black" stroke-width="0.119342"/>
<path d="M9.81812 4.46143C9.90608 3.73303 9.13197 3.62097 8.92964 3.38884C8.79769 3.24476 8.78889 3.32481 8.83288 3.4929C8.92084 3.8611 9.3079 4.29334 9.54542 4.42941C9.73015 4.53347 9.80932 4.57349 9.81812 4.46143Z" fill="white" stroke="black" stroke-width="0.119342"/>
<path d="M9.58059 4.30132C8.78008 3.82906 8.21708 4.09321 7.98837 4.06919C7.76845 4.04518 7.69807 4.17325 8.07633 4.36536C8.54256 4.59748 9.19353 4.56547 9.44863 4.47742C9.71254 4.38137 9.63337 4.33334 9.58059 4.30132ZM10.7857 4.6215C10.5394 3.83707 9.96765 3.96514 9.80051 3.86909C9.63337 3.77303 9.61577 3.79705 9.65096 3.97314C9.72134 4.28531 10.3107 4.6295 10.601 4.73356C10.7066 4.76558 10.8385 4.8136 10.7857 4.6215Z" fill="white" stroke="black" stroke-width="0.119342"/>
<path d="M10.6713 4.75755C9.98518 4.25327 9.44858 4.62948 9.23745 4.57345C9.07911 4.53342 9.14949 4.62948 9.21106 4.6695C9.6509 4.94965 10.1963 5.10174 10.6186 4.92564C10.7857 4.8616 10.7945 4.8456 10.6713 4.75755ZM12.158 5.26983C12.1668 4.77356 11.0408 4.56544 10.8033 4.26128C10.6625 4.07718 10.5394 4.17323 10.6098 4.46939C10.7153 4.8536 11.4894 5.27783 11.9117 5.35788C12.1668 5.4059 12.158 5.32586 12.158 5.26983Z" fill="white" stroke="black" stroke-width="0.119342"/>
<path d="M12.1228 5.35791C11.4103 4.77359 10.8121 4.9657 10.5922 4.90967C10.3723 4.86164 10.2843 4.98171 10.6274 5.22184C11.0496 5.50999 11.7006 5.56603 11.9733 5.50999C12.246 5.45396 12.1756 5.39793 12.1228 5.35791ZM13.3984 6.21438C13.196 5.36592 12.5539 5.18982 12.3955 5.02973C12.246 4.86964 12.0876 4.91767 12.2196 5.30188C12.3779 5.75813 12.8969 6.15835 13.1696 6.2544C13.4335 6.35846 13.416 6.27842 13.3984 6.21438Z" fill="white" stroke="black" stroke-width="0.119342"/>
<path d="M13.3896 6.32642C12.8705 5.566 12.1932 5.59002 11.9821 5.48596C11.7797 5.3739 11.639 5.46995 11.9117 5.79813C12.2284 6.19835 12.8793 6.42247 13.1784 6.43848C13.4775 6.45449 13.4247 6.38245 13.3896 6.32642Z" fill="white" stroke="black" stroke-width="0.119342"/>
<path d="M14.0582 7.23091C14.3573 6.36644 13.6711 6.04626 13.6007 5.90218C13.5216 5.75811 13.4424 5.75811 13.3984 5.91019C13.2049 6.52653 13.8295 7.12685 13.9262 7.24692C14.023 7.35898 14.0406 7.30295 14.0582 7.23091Z" fill="white" stroke="black" stroke-width="0.119342"/>
<path d="M13.9174 7.47107C13.6799 6.50254 13.0554 6.55857 12.9146 6.4225C12.7651 6.28642 12.7475 6.38248 12.7739 6.55857C12.8442 7.03083 13.4688 7.35101 13.7503 7.51109C13.8383 7.55912 13.9438 7.61515 13.9174 7.47107ZM14.5156 8.60769C14.9467 7.69519 14.4365 7.07886 14.2781 6.94278C14.1198 6.81471 14.023 6.75868 14.0758 6.94278C14.1462 7.22294 13.8998 7.94333 14.2781 8.47162C14.4013 8.64771 14.4189 8.81581 14.5156 8.60769Z" fill="white" stroke="black" stroke-width="0.119342"/>
<path d="M14.2869 8.79176C14.3837 8.23146 14.0318 7.71918 13.6535 7.51907C13.4336 7.399 13.4248 7.43102 13.4248 7.59911C13.4424 8.1194 13.979 8.55163 14.1373 8.79176C14.2869 9.01589 14.2781 8.84779 14.2869 8.79176Z" fill="white" stroke="black" stroke-width="0.119342"/>
<path d="M14.1901 10.2486C13.8734 9.19198 14.5331 8.58365 14.7355 8.46358C14.929 8.33551 15.0522 8.28748 14.9642 8.48759C14.8322 8.78376 14.973 9.60821 14.4716 10.1285C14.3132 10.3046 14.2516 10.4887 14.1901 10.2486Z" fill="white" stroke="black" stroke-width="0.119342"/>
<path d="M14.2604 10.0165C14.5243 9.09595 13.9526 8.57566 13.7766 8.47161C13.6095 8.36755 13.5039 8.32753 13.5831 8.49562C13.6886 8.75176 13.5743 9.47215 14.0141 9.9204C14.1549 10.0725 14.2077 10.2246 14.2604 10.0165Z" fill="white" stroke="black" stroke-width="0.119342"/>
<path d="M13.935 9.58419C13.46 10.0484 13.4512 10.7288 13.6623 11.129C13.7943 11.3612 13.8119 11.3452 13.935 11.1771C14.2693 10.6888 14.067 9.98441 14.0846 9.67224C14.0934 9.37608 13.9878 9.53616 13.935 9.58419Z" fill="white" stroke="black" stroke-width="0.119342"/>
<path d="M14.7178 10.3206C14.7178 10.961 14.2868 11.4812 13.8294 11.6413C13.5655 11.7294 13.5655 11.7054 13.6007 11.5133C13.7238 10.7929 14.3308 10.5287 14.5507 10.2966C14.7618 10.0725 14.7178 10.2566 14.7178 10.3206Z" fill="white" stroke="black" stroke-width="0.119342"/>
<path d="M13.0817 12.2257C13.8558 11.5853 13.4424 11.1371 13.4775 10.7208C13.4951 10.4967 13.3984 10.5528 13.3104 10.6328C12.8178 11.073 12.7914 11.8575 12.897 12.1616C12.9409 12.2977 13.0113 12.2817 13.0817 12.2257Z" fill="white" stroke="black" stroke-width="0.119342"/>
<path d="M14.1197 11.8094C13.8646 12.5138 13.1873 12.946 12.6155 12.97C12.2812 12.9861 12.29 12.962 12.4044 12.7539C12.8354 12.0015 13.6007 11.9135 13.9438 11.7214C14.2605 11.5453 14.1461 11.7374 14.1197 11.8094Z" fill="white" stroke="black" stroke-width="0.119342"/>
<path d="M12.0173 13.1302C13.0201 12.6739 12.8178 11.9135 13.0025 11.7214C13.1345 11.5853 12.9761 11.6013 12.8969 11.6494C12.3076 11.9615 11.8325 12.4578 11.8237 12.9861C11.8237 13.1862 11.8413 13.2102 12.0173 13.1302Z" fill="white" stroke="black" stroke-width="0.119342"/>
<path d="M10.645 13.9786C11.9118 14.1627 12.5012 13.2902 12.8706 13.2102C13.0642 13.1702 12.9234 13.0981 12.8266 13.0901C11.9821 13.0021 10.9089 13.3623 10.5835 13.7625C10.4515 13.9226 10.4515 13.9546 10.645 13.9786Z" fill="white" stroke="black" stroke-width="0.119342"/>
<path d="M11.9293 12.6099C11.6741 13.3703 10.7241 13.9946 10.0116 14.0426C9.67727 14.0666 9.67727 14.0346 9.80043 13.8345C10.3722 12.89 11.3663 12.7299 11.7181 12.4898C12.0172 12.2817 11.9556 12.5378 11.9293 12.6099ZM9.25503 4.0932C9.36939 3.50087 10.3282 3.46085 10.4778 3.3648C10.6537 3.26074 10.6273 3.3648 10.5657 3.52488C10.3898 3.94111 9.79163 4.1092 9.51893 4.15723C9.29901 4.18925 9.22864 4.20526 9.25503 4.0932Z" fill="white" stroke="black" stroke-width="0.119342"/>
<path d="M8.96479 4.10921C8.86803 3.50088 9.81808 3.21272 9.93244 3.07665C10.0644 2.93257 10.082 3.02062 10.0204 3.18871C9.90605 3.54891 9.4926 3.97314 9.24629 4.0852C9.04396 4.18125 8.98239 4.22127 8.96479 4.10921Z" fill="white" stroke="black" stroke-width="0.119342"/>
<path d="M8.18186 4.46143C8.09389 3.73303 8.86801 3.62097 9.07034 3.38884C9.20229 3.24476 9.21109 3.32481 9.1671 3.4929C9.07914 3.8611 8.69208 4.29334 8.45456 4.42941C8.26983 4.53347 8.19066 4.57349 8.18186 4.46143Z" fill="white" stroke="black" stroke-width="0.119342"/>
<path d="M8.41945 4.30132C9.21996 3.82906 9.78295 4.09321 10.0117 4.06919C10.2316 4.04518 10.302 4.17325 9.9237 4.36536C9.45747 4.59748 8.80651 4.56547 8.5514 4.47742C8.2875 4.38137 8.36667 4.33334 8.41945 4.30132ZM7.21429 4.6215C7.4606 3.83707 8.03239 3.96514 8.19953 3.86909C8.36667 3.77303 8.38426 3.79705 8.34907 3.97314C8.2787 4.28531 7.68931 4.6295 7.39902 4.73356C7.29346 4.76558 7.16151 4.8136 7.21429 4.6215Z" fill="white" stroke="black" stroke-width="0.119342"/>
<path d="M7.32863 4.75755C8.01478 4.25327 8.55138 4.62948 8.76251 4.57345C8.92085 4.53342 8.85047 4.62948 8.7889 4.6695C8.34906 4.94965 7.80366 5.10174 7.38141 4.92564C7.21427 4.8616 7.20547 4.8456 7.32863 4.75755ZM5.84197 5.26983C5.83317 4.77356 6.95916 4.56544 7.19668 4.26128C7.33743 4.07718 7.46058 4.17323 7.39021 4.46939C7.28464 4.8536 6.51053 5.27783 6.08828 5.35788C5.83317 5.4059 5.84197 5.32586 5.84197 5.26983Z" fill="white" stroke="black" stroke-width="0.119342"/>
<path d="M5.87711 5.35791C6.58965 4.77359 7.18783 4.9657 7.40775 4.90967C7.62767 4.86164 7.71564 4.98171 7.37256 5.22184C6.95031 5.50999 6.29935 5.56603 6.02665 5.50999C5.75395 5.45396 5.82432 5.39793 5.87711 5.35791ZM4.60157 6.21438C4.8039 5.36592 5.44606 5.18982 5.60441 5.02973C5.75395 4.86964 5.91229 4.91767 5.78034 5.30188C5.622 5.75813 5.10299 6.15835 4.83029 6.2544C4.56638 6.35846 4.58398 6.27842 4.60157 6.21438Z" fill="white" stroke="black" stroke-width="0.119342"/>
<path d="M4.61037 6.32642C5.12938 5.566 5.80673 5.59002 6.01786 5.48596C6.22018 5.3739 6.36093 5.46995 6.08823 5.79813C5.77155 6.19835 5.12058 6.42247 4.82149 6.43848C4.5224 6.45449 4.57518 6.38245 4.61037 6.32642Z" fill="white" stroke="black" stroke-width="0.119342"/>
<path d="M3.94179 7.23091C3.6427 6.36644 4.32885 6.04626 4.39923 5.90218C4.4784 5.75811 4.55757 5.75811 4.60155 5.91019C4.79508 6.52653 4.17051 7.12685 4.07375 7.24692C3.97698 7.35898 3.95939 7.30295 3.94179 7.23091Z" fill="white" stroke="black" stroke-width="0.119342"/>
<path d="M4.08261 7.47107C4.32012 6.50254 4.94469 6.55857 5.08544 6.4225C5.23499 6.28642 5.25258 6.38248 5.22619 6.55857C5.15581 7.03083 4.53124 7.35101 4.24974 7.51109C4.16178 7.55912 4.05622 7.61515 4.08261 7.47107ZM3.48442 8.60769C3.05338 7.69519 3.56359 7.07886 3.72194 6.94278C3.88028 6.81471 3.97704 6.75868 3.92426 6.94278C3.85389 7.22294 4.1002 7.94333 3.72194 8.47162C3.59878 8.64771 3.58119 8.81581 3.48442 8.60769Z" fill="white" stroke="black" stroke-width="0.119342"/>
<path d="M3.71313 8.79176C3.61636 8.23146 3.96823 7.71918 4.3465 7.51907C4.56642 7.399 4.57521 7.43102 4.57521 7.59911C4.55762 8.1194 4.02101 8.55163 3.86267 8.79176C3.71313 9.01589 3.72192 8.84779 3.71313 8.79176Z" fill="white" stroke="black" stroke-width="0.119342"/>
<path d="M3.80987 10.2486C4.12656 9.19198 3.4668 8.58365 3.26447 8.46358C3.07094 8.33551 2.94779 8.28748 3.03575 8.48759C3.16771 8.78376 3.02696 9.60821 3.52837 10.1285C3.68672 10.3046 3.7395 10.4887 3.80987 10.2486Z" fill="white" stroke="black" stroke-width="0.119342"/>
<path d="M3.73949 10.0165C3.47559 9.09595 4.04738 8.57566 4.22332 8.47161C4.39046 8.36755 4.49602 8.32753 4.41685 8.49562C4.31128 8.75176 4.42564 9.47215 3.9858 9.9204C3.84505 10.0725 3.79227 10.2246 3.73949 10.0165Z" fill="white" stroke="black" stroke-width="0.119342"/>
<path d="M4.06503 9.58419C4.54006 10.0484 4.54886 10.7288 4.33773 11.129C4.20578 11.3612 4.18819 11.3452 4.06503 11.1771C3.73076 10.6888 3.93308 9.98441 3.91549 9.67224C3.90669 9.37608 4.01225 9.53616 4.06503 9.58419Z" fill="white" stroke="black" stroke-width="0.119342"/>
<path d="M3.282 10.3206C3.282 10.961 3.71305 11.4812 4.17048 11.6413C4.43438 11.7294 4.43438 11.7054 4.3992 11.5133C4.27604 10.7929 3.66906 10.5287 3.44914 10.2966C3.23802 10.0725 3.282 10.2566 3.282 10.3206Z" fill="white" stroke="black" stroke-width="0.119342"/>
<path d="M4.9183 12.2257C4.14419 11.5853 4.55763 11.1371 4.52245 10.7208C4.50485 10.4967 4.60162 10.5528 4.68959 10.6328C5.18221 11.073 5.2086 11.8575 5.10304 12.1616C5.05905 12.2977 4.98868 12.2817 4.9183 12.2257Z" fill="white" stroke="black" stroke-width="0.119342"/>
<path d="M3.88027 11.8094C4.13538 12.5138 4.81274 12.946 5.38453 12.97C5.71881 12.9861 5.71001 12.962 5.59565 12.7539C5.16461 12.0015 4.39929 11.9135 4.05621 11.7214C3.73953 11.5453 3.85388 11.7374 3.88027 11.8094Z" fill="white" stroke="black" stroke-width="0.119342"/>
<path d="M5.9827 13.1302C4.97987 12.6739 5.18219 11.9135 4.99746 11.7214C4.86551 11.5853 5.02385 11.6013 5.10302 11.6494C5.69241 11.9615 6.16744 12.4578 6.17623 12.9861C6.17623 13.1862 6.15864 13.2102 5.9827 13.1302Z" fill="white" stroke="black" stroke-width="0.119342"/>
<path d="M7.35501 13.9786C6.08827 14.1627 5.49889 13.2902 5.12942 13.2102C4.93589 13.1702 5.07664 13.0981 5.1734 13.0901C6.0179 13.0021 7.09111 13.3623 7.41659 13.7625C7.54854 13.9226 7.54854 13.9546 7.35501 13.9786Z" fill="white" stroke="black" stroke-width="0.119342"/>
<path d="M6.07059 12.6098C6.3257 13.3703 7.27575 13.9946 7.98829 14.0426C8.32257 14.0666 8.32257 14.0346 8.19941 13.8345C7.62762 12.89 6.63358 12.7299 6.28171 12.4898C5.98262 12.2817 6.0442 12.5378 6.07059 12.6098Z" fill="white" stroke="black" stroke-width="0.119342"/>
<path d="M10.4871 4.83048C10.3184 4.7215 9.70315 4.78478 9.59065 4.71095C9.80862 4.8797 10.3008 4.76017 10.4871 4.83048ZM11.9742 5.11876C11.8406 4.90431 11.0602 4.76017 10.9442 4.56681C11.1481 4.93595 11.7528 4.88673 11.9742 5.11876ZM11.8582 5.36486C11.5699 5.11173 10.8914 5.2172 10.691 5.06251C11.1656 5.45626 11.4293 5.1504 11.8582 5.36837V5.36486ZM10.1602 4.23282C10.3465 4.32072 10.575 4.40861 10.6875 4.61603C10.5574 4.45431 10.3184 4.39103 10.125 4.25743C10.1356 4.25743 10.1531 4.23986 10.1602 4.23282ZM13.0465 5.88165C12.9305 5.63907 12.5262 5.3754 12.491 5.28751C12.6071 5.6004 12.941 5.67423 13.0465 5.88165ZM13.152 6.30353C12.8004 5.80079 12.2449 5.85704 12.027 5.66368C12.1922 5.85001 12.8285 5.96954 13.152 6.30353ZM13.9711 7.08048C13.9957 6.54611 13.5563 6.3422 13.5387 6.03986C13.5317 6.40197 13.9887 6.89064 13.9711 7.08048ZM13.7496 7.36876C13.6617 6.9047 13.0641 6.87306 12.9586 6.60236C12.9586 6.85548 13.6617 7.12267 13.7496 7.36876ZM14.2418 7.10509C14.5582 7.45665 14.3403 7.99454 14.4703 8.38478C14.3121 8.0965 14.393 7.37931 14.2418 7.10509ZM13.725 8.60978C14.1996 9.07384 14.0063 9.59415 14.1996 9.81915C13.9606 9.50275 13.9957 8.89806 13.725 8.60978ZM14.7094 8.67306C14.3051 9.08087 14.5512 9.69611 14.3403 9.9879C14.5758 9.73829 14.5406 8.9754 14.7094 8.67306ZM14.1996 8.67306C14.1469 8.20197 13.6617 7.95236 13.6196 7.69572C13.5668 7.95236 14.0836 8.35314 14.1996 8.67306ZM13.9535 9.80157C14.0309 10.132 13.7426 10.8352 13.8305 11.0496C13.6371 10.6734 13.9957 9.95978 13.9535 9.80157ZM14.5758 10.5539C14.3824 11.1375 13.9957 11.0988 13.8727 11.4504C13.9606 11.1164 14.4703 10.8106 14.5758 10.5539ZM13.3207 10.8281C13.0641 11.2184 13.275 11.6684 13.0641 11.9461C13.3629 11.6649 13.2047 11.1481 13.3207 10.8281ZM13.936 11.9004C13.6266 12.4207 12.9938 12.3715 12.7406 12.7477C12.9938 12.2766 13.7778 12.1957 13.936 11.9004ZM12.818 11.8336C12.2731 12.1781 12.4383 12.5367 12.027 12.9234C12.5438 12.5367 12.5016 12.1149 12.818 11.8336ZM12.5614 13.2293C12.034 13.2117 11.2781 13.8375 10.8211 13.7883C11.2781 13.8762 12.1219 13.3172 12.5614 13.2258V13.2293ZM11.7106 12.6668C11.6754 13.1555 10.3043 13.4684 10.1531 13.7953C10.3184 13.3629 11.5242 13.043 11.7106 12.6703V12.6668ZM8.60276 3.66681C8.42698 3.52618 8.21604 3.4172 8.15627 3.28009C8.19846 3.45587 8.37424 3.58595 8.55002 3.70197C8.5676 3.69493 8.58518 3.67032 8.60276 3.66681ZM8.30393 3.80743C8.03323 3.6879 7.71682 3.69493 7.5762 3.52618C7.66409 3.69493 7.96292 3.76173 8.21604 3.84962C8.24417 3.83204 8.27932 3.81447 8.30745 3.80743H8.30393ZM7.51291 4.834C7.68166 4.7215 8.2969 4.78478 8.4094 4.71447C8.19143 4.8797 7.69924 4.76017 7.51291 4.834ZM6.02581 5.12228C6.1594 4.90431 6.93987 4.76017 7.05588 4.57032C6.85198 4.93595 6.24729 4.88673 6.02581 5.12228ZM6.14182 5.36837C6.4301 5.11173 7.10862 5.2172 7.31252 5.06603C6.83792 5.45626 6.57424 5.15392 6.14182 5.36837ZM7.31252 4.61603C7.47776 4.29962 7.95237 4.25743 8.07542 4.06407C7.8926 4.35236 7.48831 4.40157 7.31252 4.61603ZM8.66604 4.33478C9.1512 4.12736 9.62581 4.30314 9.85432 4.20822C9.57307 4.34532 8.9051 4.27853 8.66604 4.33829V4.33478ZM4.95354 5.88165C5.06956 5.64259 5.47385 5.3754 5.50901 5.28751C5.39299 5.60392 5.05901 5.67423 4.95354 5.88165ZM4.84807 6.30353C5.19963 5.80079 5.7551 5.85704 5.97307 5.66368C5.80784 5.85001 5.17502 5.96954 4.84807 6.30704V6.30353ZM4.02893 7.08048C4.00432 6.54611 4.44377 6.3422 4.46135 6.03986C4.46838 6.40197 4.01135 6.89064 4.02893 7.08048ZM4.25042 7.36876C4.33831 6.9047 4.93596 6.87657 5.04143 6.60236C5.04143 6.859 4.33831 7.12267 4.25042 7.36876ZM3.75823 7.10509C3.44182 7.45665 3.65979 7.99454 3.52971 8.38478C3.68792 8.10001 3.60706 7.37931 3.75823 7.10509ZM4.27502 8.60978C3.80042 9.07384 3.99377 9.59415 3.80042 9.81915C4.03948 9.50626 4.00432 8.89806 4.27502 8.60978ZM3.29065 8.67657C3.69495 9.08439 3.44885 9.69611 3.65979 9.9879C3.42424 9.74181 3.4594 8.97892 3.29065 8.67657ZM3.80042 8.67657C3.85315 8.20197 4.33831 7.95587 4.38049 7.69923C4.43323 7.95587 3.91643 8.35665 3.80042 8.67657ZM4.04651 9.80157C3.96917 10.132 4.25745 10.8352 4.16956 11.0531C4.36292 10.677 4.00432 9.96329 4.04651 9.80509V9.80157ZM3.42424 10.5539C3.6176 11.141 4.00432 11.0988 4.12737 11.4504C4.03948 11.1164 3.52971 10.8106 3.42424 10.5574V10.5539ZM4.68284 10.8281C4.93596 11.2219 4.72502 11.6684 4.93596 11.9496C4.63713 11.6684 4.79534 11.1481 4.68284 10.8281ZM4.06409 11.9004C4.37346 12.4207 5.00627 12.3715 5.2594 12.7477C5.00627 12.2766 4.22229 12.1957 4.06409 11.9004ZM5.18206 11.8371C5.72698 12.1817 5.56174 12.5402 5.97307 12.927C5.45627 12.5402 5.49846 12.1184 5.18206 11.8371ZM5.4387 13.2293C5.96604 13.2117 6.7219 13.8375 7.17893 13.7918C6.7219 13.8762 5.87815 13.3172 5.4387 13.2293ZM6.29299 12.6668C6.32815 13.159 7.69924 13.4684 7.8469 13.7988C7.68167 13.3664 6.47581 13.0465 6.28948 12.6703L6.29299 12.6668ZM8.28635 4.35236C8.39182 3.91993 8.91917 3.83907 8.98948 3.58243C8.96487 3.85665 8.33909 4.159 8.28635 4.35587V4.35236ZM9.84377 3.28009C9.76643 3.60704 9.19338 3.79337 9.11604 4.03947C9.14065 3.70548 9.73127 3.51212 9.84377 3.28009ZM9.39729 4.05353C9.66799 3.65626 10.2305 3.76173 10.4274 3.52618C10.2867 3.8004 9.59065 3.80743 9.39729 4.05353Z" fill="#006233"/>
<path d="M13.1203 9.00002C13.1203 11.0813 11.2676 12.7653 8.9824 12.7653C6.69724 12.7653 4.84802 11.0813 4.84802 9.00354C4.84802 6.92229 6.69724 5.24182 8.9824 5.24182C11.2676 5.24182 13.1203 6.92229 13.1203 9.00354V9.00002Z" stroke="#F7C608" stroke-width="0.11875" stroke-linecap="round" stroke-linejoin="round"/>
<path d="M8.17031 12.7688L8.15625 12.8145C8.1457 12.8461 8.11406 12.8602 8.07891 12.8602C7.99102 12.8356 7.88203 12.8145 7.78008 12.7899L7.875 12.4981C7.97354 12.5239 8.07326 12.5451 8.17383 12.5613C8.20899 12.5684 8.22656 12.5965 8.21602 12.6317L8.20195 12.6668M7.4918 12.4875L7.50586 12.4418C7.51641 12.4067 7.54805 12.3926 7.5832 12.4031C7.66406 12.4313 7.7625 12.4664 7.875 12.4981L7.78008 12.7899C7.67461 12.7617 7.57617 12.7336 7.48828 12.702C7.45313 12.6844 7.4461 12.6246 7.45664 12.5965" fill="#F7C608"/>
<path d="M8.11401 12.7441L8.10346 12.7758C8.09643 12.7969 8.06831 12.8109 8.04018 12.8074L7.79409 12.7441L7.86089 12.5367C7.94211 12.5588 8.02421 12.5776 8.10698 12.593C8.13862 12.6 8.15268 12.6211 8.14214 12.6457L8.1351 12.6703M7.54448 12.5191L7.55503 12.484C7.56206 12.4629 7.59018 12.4523 7.61831 12.4629L7.86089 12.5367L7.79057 12.7476C7.70776 12.727 7.62568 12.7036 7.54448 12.6773C7.52339 12.6633 7.51284 12.6176 7.51987 12.5965" fill="#006233"/>
<path d="M7.03833 12.4031L7.01021 12.4453C6.99263 12.4699 6.95747 12.4805 6.92232 12.4664C6.84849 12.4242 6.74654 12.375 6.65865 12.3223L6.83794 12.0656C6.9246 12.1169 7.01377 12.1639 7.10513 12.2063C7.13677 12.2238 7.1438 12.2555 7.12622 12.2836L7.10161 12.3188M6.47583 11.9602L6.50396 11.918C6.52154 11.8934 6.56021 11.8828 6.58833 11.9004C6.65865 11.9531 6.74302 12.0094 6.83794 12.0656L6.65865 12.3223C6.572 12.2733 6.48755 12.2205 6.40552 12.1641C6.3774 12.1395 6.39146 12.0797 6.40552 12.0551" fill="#F7C608"/>
<path d="M6.99253 12.3644L6.97144 12.3926C6.95737 12.4137 6.92925 12.4172 6.90112 12.4066L6.68315 12.2836L6.81323 12.1008C6.89058 12.15 6.97495 12.1887 7.03472 12.2203C7.05933 12.2344 7.06987 12.2555 7.0523 12.2765L7.03472 12.3012M6.5144 12.0023L6.5355 11.9742C6.54956 11.9566 6.57769 11.9531 6.60581 11.9672C6.67329 12.0142 6.74248 12.0588 6.81323 12.1008L6.68315 12.2836C6.61065 12.2439 6.54024 12.2005 6.47222 12.1535C6.45112 12.1359 6.45464 12.0902 6.4687 12.0726" fill="#006233"/>
<path d="M6.06802 11.7633L6.02583 11.7949C6.00122 11.816 5.96255 11.8125 5.93443 11.7949L5.72349 11.5875L5.98013 11.3906C6.05044 11.468 6.13482 11.5418 6.19107 11.591C6.21568 11.6156 6.21216 11.6473 6.18755 11.6684L6.1524 11.6965M5.66021 11.1938L5.7024 11.1586C5.71508 11.1481 5.73136 11.143 5.74777 11.1443C5.76418 11.1456 5.77943 11.1533 5.79029 11.1656C5.84835 11.2439 5.91055 11.319 5.97661 11.3906L5.727 11.5875C5.65841 11.5188 5.59273 11.4473 5.53013 11.3731C5.51607 11.3414 5.54419 11.2852 5.5688 11.2676" fill="#F7C608"/>
<path d="M6.03276 11.714L6.00463 11.7351C5.98705 11.7527 5.95893 11.7457 5.93432 11.7316L5.75854 11.5558L5.94135 11.4152C5.99742 11.474 6.05607 11.5303 6.11713 11.584C6.13823 11.6051 6.13823 11.6297 6.11713 11.6472L6.09604 11.6648M5.68823 11.2429L5.71635 11.2254C5.73744 11.2078 5.76557 11.2113 5.78666 11.2324C5.83549 11.2956 5.8871 11.3566 5.94135 11.4152L5.76205 11.5558C5.70524 11.5 5.65127 11.4413 5.60034 11.3801C5.58276 11.3554 5.60033 11.3133 5.62143 11.2992" fill="#006233"/>
<path d="M5.33325 10.8985L5.28403 10.9196C5.25239 10.9336 5.21371 10.9196 5.19614 10.8949C5.16098 10.8246 5.10121 10.7297 5.05551 10.6453L5.36137 10.5188C5.41059 10.6137 5.46684 10.7051 5.50551 10.7649C5.51957 10.7965 5.50551 10.8281 5.47739 10.8387L5.4352 10.8563M5.11879 10.2481L5.16801 10.227C5.20317 10.2164 5.23832 10.227 5.24887 10.2551C5.28158 10.345 5.31914 10.433 5.36137 10.5188L5.05903 10.6453C5.01332 10.5574 4.97114 10.4696 4.9395 10.3852C4.93246 10.35 4.97465 10.3078 5.00981 10.2938" fill="#F7C608"/>
<path d="M5.31561 10.8422L5.28045 10.8562C5.25936 10.8668 5.23123 10.8562 5.21365 10.8352L5.10115 10.6242L5.31912 10.5328C5.35559 10.605 5.39548 10.6754 5.43865 10.7437C5.4492 10.7648 5.43865 10.7894 5.41756 10.8L5.38944 10.8141M5.12928 10.3078L5.16443 10.2937C5.18553 10.2832 5.21365 10.2937 5.2242 10.3184C5.24881 10.3816 5.28045 10.459 5.31912 10.5363L5.10115 10.6242C5.06418 10.5554 5.03016 10.485 4.9992 10.4133C4.99569 10.3852 5.02381 10.35 5.04842 10.343" fill="#006233"/>
<path d="M4.89375 9.8824L4.84102 9.88943C4.82489 9.89138 4.80857 9.88796 4.79459 9.8797C4.78061 9.87143 4.76974 9.85879 4.76367 9.84373L4.71094 9.56599L5.04141 9.52381C5.05594 9.6163 5.0759 9.70787 5.10117 9.79802C5.1082 9.83318 5.08711 9.85779 5.05195 9.86131L5.00625 9.86834M4.89375 9.20388L4.94648 9.19685C4.98164 9.19334 5.00977 9.21091 5.0168 9.24607C5.0168 9.32341 5.02383 9.42185 5.04141 9.52732L4.71094 9.56599C4.69687 9.47107 4.6793 9.37967 4.67578 9.28826C4.6793 9.2531 4.73555 9.22498 4.7707 9.21795" fill="#F7C608"/>
<path d="M4.89375 9.82618L4.85859 9.8297C4.83398 9.83322 4.81289 9.81564 4.80234 9.79103C4.7918 9.72423 4.7707 9.63986 4.76016 9.559L4.9957 9.52736C5.0083 9.60546 5.02473 9.6829 5.04492 9.75939C5.04492 9.784 5.03437 9.80509 5.00977 9.80861L4.97461 9.81564M4.8832 9.26017L4.91836 9.25665C4.94648 9.25665 4.96758 9.27072 4.97109 9.29884C4.97461 9.36212 4.98164 9.44298 4.9957 9.52736L4.75664 9.56251C4.74609 9.48165 4.73203 9.40079 4.72852 9.33048C4.72852 9.30236 4.7707 9.27775 4.79883 9.27423" fill="#006233"/>
<path d="M4.78828 8.79607L4.73555 8.78904C4.70039 8.78552 4.6793 8.75388 4.67578 8.72224L4.71094 8.44451L5.04141 8.49021C5.02788 8.58224 5.01967 8.67497 5.0168 8.76794C5.00977 8.79958 4.98164 8.82068 4.94648 8.81365L4.90078 8.81013M4.99922 8.14216L5.05195 8.14919C5.08711 8.15623 5.1082 8.18435 5.10117 8.21248C5.07616 8.30388 5.05621 8.3966 5.04141 8.49021L4.71094 8.44451C4.72423 8.35233 4.74183 8.26082 4.76367 8.17029C4.77773 8.13513 4.84102 8.12107 4.87617 8.1281" fill="#F7C608"/>
<path d="M4.80938 8.73986L4.7707 8.73282C4.74609 8.73282 4.72852 8.70822 4.72852 8.68009L4.76016 8.45157L4.9957 8.4797C4.98369 8.55777 4.97547 8.63638 4.97109 8.71525C4.96758 8.73986 4.94648 8.75743 4.92188 8.75392L4.88672 8.7504M4.97109 8.19493L5.00625 8.20197C5.03437 8.20197 5.04844 8.22657 5.04141 8.25118C5.02734 8.31798 5.00625 8.39532 4.9957 8.4797L4.76016 8.45157C4.7707 8.37072 4.78477 8.29337 4.80234 8.21954C4.81289 8.19493 4.85859 8.18439 4.8832 8.18439" fill="#006233"/>
<path d="M5.02381 7.72381L4.97811 7.70272C4.94295 7.69217 4.9324 7.66053 4.93943 7.62537C4.97459 7.55506 5.01326 7.45662 5.05897 7.36873L5.36131 7.4953C5.31917 7.57994 5.28162 7.66678 5.24881 7.75545C5.23475 7.78709 5.19959 7.79764 5.16795 7.78358L5.12928 7.76952M5.42811 7.15428L5.47381 7.17186C5.50897 7.18592 5.51951 7.21756 5.50545 7.24569C5.45313 7.32514 5.40502 7.40728 5.36131 7.49178L5.05897 7.36873C5.09917 7.28329 5.14376 7.19997 5.19256 7.11912C5.21717 7.091 5.28397 7.091 5.31561 7.10506" fill="#F7C608"/>
<path d="M5.0625 7.67811L5.02734 7.66053C5.00273 7.6535 4.99218 7.62537 5.00273 7.60076L5.10117 7.38983L5.31914 7.47772C5.28414 7.54767 5.25246 7.61923 5.22421 7.69217C5.21367 7.71678 5.18906 7.72733 5.16445 7.72029L5.13281 7.70623M5.38242 7.19647L5.41757 7.21053C5.44218 7.22108 5.44921 7.24568 5.43867 7.27029C5.39575 7.33762 5.35586 7.40683 5.31914 7.47772L5.10117 7.38631C5.13574 7.31448 5.17327 7.2441 5.21367 7.17537C5.23125 7.15428 5.28398 7.15428 5.30507 7.16131" fill="#006233"/>
<path d="M5.58276 6.75705L5.54058 6.72541C5.51597 6.70431 5.51245 6.66916 5.53003 6.64103C5.58628 6.58126 5.65308 6.49689 5.72339 6.42306L5.97651 6.62345C5.90929 6.69381 5.84592 6.76775 5.78667 6.84494C5.77596 6.85632 5.76141 6.86334 5.74583 6.86464C5.73025 6.86594 5.71474 6.86142 5.70229 6.85197L5.66714 6.82384M6.14526 6.31056L6.18394 6.34572C6.21206 6.3633 6.21558 6.39845 6.19097 6.42306C6.11619 6.48625 6.04462 6.55313 5.97651 6.62345L5.72339 6.42306L5.93433 6.21916C5.96245 6.19806 6.02573 6.21916 6.05386 6.23673" fill="#F7C608"/>
<path d="M5.63199 6.71835L5.60387 6.69725C5.58277 6.68319 5.58277 6.65507 5.59684 6.63046L5.76207 6.45468L5.94137 6.5953C5.88591 6.65382 5.83312 6.71482 5.78317 6.77811C5.76559 6.79921 5.73746 6.80272 5.71637 6.78866L5.69176 6.76757M6.08902 6.34217L6.12067 6.36327C6.13824 6.38085 6.13824 6.40546 6.12067 6.42655C6.0598 6.48039 6.00116 6.53668 5.94488 6.5953L5.76207 6.45468C5.8159 6.39267 5.87343 6.33397 5.93434 6.27889C5.95543 6.26132 6.00465 6.27538 6.02223 6.28944" fill="#006233"/>
<path d="M6.41602 5.97307L6.3879 5.93088C6.3668 5.90275 6.37735 5.87111 6.40196 5.8465L6.65508 5.6883L6.83438 5.94494C6.74961 5.99582 6.66747 6.05097 6.58829 6.11017C6.58137 6.1148 6.5736 6.11802 6.56543 6.11964C6.55727 6.12127 6.54886 6.12126 6.54069 6.11963C6.53253 6.11799 6.52477 6.11477 6.51785 6.11013C6.51094 6.10549 6.505 6.09953 6.5004 6.0926L6.47579 6.05744M7.09454 5.6883L7.12266 5.73049C7.14376 5.7551 7.13321 5.79025 7.10508 5.80783C7.01255 5.84884 6.92219 5.89461 6.83438 5.94494L6.65508 5.6883C6.74298 5.63557 6.83087 5.58283 6.91876 5.54416C6.95391 5.53361 7.01016 5.56877 7.02422 5.59338" fill="#F7C608"/>
<path d="M6.4758 5.94843L6.4547 5.92031C6.44064 5.89921 6.44767 5.87461 6.46877 5.85703C6.53205 5.82187 6.60939 5.76914 6.6797 5.72343L6.80978 5.90625L6.60236 6.04336C6.57775 6.05742 6.54963 6.0539 6.53556 6.03632L6.51798 6.01172M7.03127 5.70234L7.05236 5.73398C7.06642 5.75156 7.05939 5.77617 7.03478 5.79023C6.95824 5.82584 6.88318 5.86455 6.80978 5.90625L6.68322 5.72343C6.75439 5.68094 6.8271 5.64107 6.90119 5.6039C6.92931 5.59336 6.9715 5.61796 6.98556 5.63906" fill="#006233"/>
<path d="M7.46015 5.43164L7.44609 5.38594C7.43554 5.3543 7.45312 5.32617 7.48124 5.30859C7.56913 5.2875 7.6746 5.24883 7.77656 5.2207L7.87148 5.5125C7.7727 5.53929 7.67532 5.57097 7.57968 5.60742C7.54452 5.61797 7.51288 5.60039 7.50585 5.57227L7.49179 5.53359M8.19492 5.3332L8.21249 5.37891C8.22304 5.41406 8.20546 5.44219 8.17031 5.44922C8.06978 5.46573 7.97007 5.48685 7.87148 5.5125L7.77656 5.2207C7.87851 5.19609 7.98046 5.16797 8.07538 5.15039C8.11054 5.15039 8.15273 5.19609 8.16327 5.22773" fill="#F7C608"/>
<path d="M7.52345 5.42461L7.5129 5.38945C7.50587 5.36836 7.51993 5.34727 7.54806 5.33672C7.61837 5.31563 7.70626 5.2875 7.79415 5.26641L7.86095 5.47383C7.77786 5.49612 7.69576 5.52193 7.61485 5.55117C7.58673 5.55469 7.56212 5.54766 7.55509 5.52305L7.54806 5.49844M8.13517 5.3332L8.14571 5.36836C8.15274 5.38945 8.13517 5.41055 8.11056 5.41758C8.02551 5.43315 7.94107 5.45191 7.85743 5.47383L7.79063 5.26289C7.87197 5.24021 7.95405 5.22028 8.03673 5.20312C8.07188 5.20312 8.10353 5.23477 8.10704 5.25586" fill="#006233"/>
<path d="M8.62732 5.18203V5.13633C8.62732 5.10117 8.65544 5.08008 8.6906 5.06953L8.99646 5.0625V5.36836C8.89434 5.36808 8.79227 5.37277 8.6906 5.38242C8.65544 5.38242 8.62732 5.35781 8.62732 5.32617V5.2875M9.3656 5.27695V5.32617C9.3656 5.36133 9.34099 5.38242 9.30584 5.38242C9.20298 5.373 9.09975 5.36831 8.99646 5.36836V5.0625C9.10193 5.0625 9.2074 5.0625 9.30584 5.06953C9.34099 5.07656 9.3656 5.13281 9.3656 5.16445" fill="#F7C608"/>
<path d="M8.69067 5.19259V5.15743C8.69067 5.13634 8.71177 5.11876 8.74341 5.11173L9.00005 5.10822V5.32267C8.91435 5.32395 8.82873 5.32864 8.74341 5.33673C8.71177 5.33673 8.69067 5.31915 8.69067 5.29454V5.26642M9.30591 5.25939V5.29454C9.30591 5.31915 9.28481 5.33673 9.25317 5.33673C9.16903 5.32858 9.08458 5.32389 9.00005 5.32267V5.10822L9.25317 5.11173C9.28481 5.11876 9.30591 5.15743 9.30591 5.18204" fill="#006233"/>
<path d="M9.74882 5.23829L9.76288 5.18907C9.76991 5.16095 9.80507 5.14337 9.84022 5.14337C9.9246 5.16447 10.0371 5.18556 10.1391 5.21368L10.0476 5.50548C9.94789 5.48067 9.84699 5.46072 9.7453 5.44572C9.71014 5.43517 9.69257 5.40704 9.70311 5.3754L9.71718 5.33673M10.4308 5.51251L10.4133 5.55822C10.4062 5.58986 10.3711 5.60743 10.3394 5.59689C10.2436 5.5619 10.1463 5.5314 10.0476 5.50548L10.1391 5.21368C10.2377 5.23666 10.3351 5.26483 10.4308 5.29806C10.466 5.31212 10.473 5.3754 10.466 5.40353" fill="#F7C608"/>
<path d="M9.80854 5.26289L9.81557 5.22774C9.8226 5.20664 9.85073 5.19258 9.87885 5.1961C9.94916 5.21719 10.0406 5.23125 10.1249 5.25586L10.0617 5.4668C9.97926 5.44465 9.89599 5.42589 9.81205 5.41055C9.78393 5.40352 9.76635 5.38242 9.7769 5.36133L9.78393 5.3332M10.3746 5.48086L10.364 5.51602C10.357 5.53711 10.3289 5.54766 10.3042 5.54063C10.2233 5.51159 10.1412 5.48579 10.0581 5.46328L10.1285 5.25234L10.371 5.32266C10.3992 5.33672 10.4062 5.38242 10.3992 5.40352" fill="#006233"/>
<path d="M10.8809 5.58982L10.909 5.55467C10.9301 5.52303 10.9652 5.51951 11.0004 5.52654L11.2641 5.66717L11.0883 5.92732C11.0003 5.87831 10.91 5.83373 10.8176 5.79373C10.8106 5.7901 10.8044 5.78505 10.7995 5.77889C10.7946 5.77273 10.791 5.76561 10.7891 5.75799C10.7871 5.75037 10.7867 5.74241 10.788 5.73464C10.7893 5.72687 10.7922 5.71945 10.7965 5.71287L10.8211 5.67771M11.4539 6.02928L11.4223 6.07146C11.413 6.08451 11.3992 6.09358 11.3835 6.09684C11.3679 6.1001 11.3516 6.09731 11.3379 6.08904C11.2573 6.03116 11.174 5.97719 11.0883 5.92732L11.2641 5.67068C11.3555 5.7199 11.4434 5.77264 11.5207 5.82537C11.5453 5.84998 11.5348 5.90974 11.5172 5.93787" fill="#F7C608"/>
<path d="M10.9301 5.63205L10.9512 5.60393C10.9652 5.58283 10.9933 5.57932 11.0215 5.58987C11.0812 5.62502 11.1656 5.66369 11.2394 5.7094L11.1129 5.89221C11.0396 5.85037 10.9645 5.81167 10.8879 5.77619C10.8633 5.76213 10.8527 5.74104 10.8703 5.71994L10.8879 5.69533M11.4082 5.98713L11.3906 6.01526C11.3766 6.03635 11.3484 6.03987 11.3203 6.0258C11.2518 5.97842 11.1815 5.93385 11.1094 5.89221L11.2394 5.7094C11.3133 5.75158 11.3906 5.79377 11.4504 5.83596C11.475 5.85705 11.4715 5.89924 11.4574 5.92033" fill="#006233"/>
<path d="M11.8617 6.22266L11.9004 6.19453C11.9285 6.16992 11.9637 6.17344 11.9953 6.19453C12.0516 6.2543 12.1359 6.32461 12.2063 6.39844L11.9531 6.59883C11.8841 6.52824 11.8113 6.46135 11.7352 6.39844C11.7141 6.37383 11.7176 6.34219 11.7422 6.32109L11.7774 6.29297M12.2695 6.79219L12.2309 6.82734C12.2182 6.83783 12.2019 6.84297 12.1855 6.84166C12.1691 6.84034 12.1538 6.83269 12.143 6.82031C12.0938 6.75352 12.027 6.67969 11.9531 6.59883L12.2063 6.39844C12.2766 6.46875 12.3434 6.53906 12.3996 6.61289C12.4172 6.64102 12.3891 6.69727 12.3645 6.71836" fill="#F7C608"/>
<path d="M11.8933 6.27538L11.9215 6.25077C11.9426 6.23671 11.9707 6.24023 11.9918 6.25429C12.041 6.30702 12.1113 6.36679 12.1676 6.43007L11.9918 6.5707C11.9334 6.51173 11.8724 6.45542 11.809 6.40195C11.7914 6.38437 11.7914 6.35624 11.809 6.34218L11.8336 6.32109M12.2449 6.73945L12.2168 6.76054C12.1957 6.7746 12.1676 6.77109 12.1465 6.75351C12.0964 6.69034 12.0436 6.62934 11.9883 6.5707L12.1676 6.43007C12.2273 6.48632 12.2836 6.54609 12.3328 6.60585C12.3469 6.62695 12.3293 6.66913 12.3117 6.68671" fill="#006233"/>
<path d="M12.6036 7.08399L12.6528 7.0629C12.6844 7.04884 12.7196 7.0629 12.7407 7.08751C12.7758 7.15782 12.8356 7.24923 12.8813 7.3336L12.5754 7.46368C12.5297 7.36876 12.47 7.28087 12.4313 7.21759C12.4172 7.18946 12.4313 7.15782 12.4594 7.14376L12.5016 7.12618M12.818 7.73087L12.7723 7.75196C12.7407 7.76602 12.7055 7.75196 12.6915 7.72384C12.6575 7.6351 12.6187 7.54826 12.5754 7.46368L12.8813 7.33712C12.9251 7.42076 12.965 7.5064 13.0008 7.59376C13.0079 7.62891 12.9657 7.6711 12.9305 7.68516" fill="#F7C608"/>
<path d="M12.6211 7.1367L12.6562 7.12264C12.6773 7.11561 12.7055 7.12264 12.723 7.14725C12.7547 7.20702 12.8004 7.28436 12.8355 7.35819L12.6211 7.44608C12.5841 7.37645 12.5443 7.30842 12.5016 7.24217C12.4875 7.21756 12.4945 7.19295 12.5191 7.18241L12.5473 7.16834M12.8144 7.67459L12.7793 7.68866C12.7547 7.6992 12.7301 7.68866 12.716 7.66405C12.6914 7.60077 12.6598 7.52342 12.6211 7.44608L12.8355 7.35467C12.8734 7.42359 12.9086 7.49396 12.941 7.56561C12.9445 7.59725 12.9164 7.62889 12.8918 7.63944" fill="#006233"/>
<path d="M13.05 8.09646L13.1027 8.08943C13.1379 8.0824 13.1695 8.10349 13.1836 8.13513L13.2363 8.40935L12.9093 8.45505C12.8924 8.36244 12.8701 8.27088 12.8425 8.18083C12.839 8.14919 12.8601 8.12107 12.8953 8.11755L12.9375 8.11052M13.057 8.77498L13.0078 8.78201C12.9726 8.78552 12.941 8.76794 12.9375 8.7363L12.9093 8.45505L13.2363 8.40935C13.2539 8.50427 13.2715 8.59919 13.275 8.68708C13.275 8.72224 13.2152 8.75388 13.18 8.7574" fill="#F7C608"/>
<path d="M13.05 8.15622L13.0852 8.14919C13.1133 8.14568 13.1344 8.16325 13.145 8.18786L13.1907 8.41638L12.9551 8.45153C12.9414 8.37337 12.9238 8.29593 12.9024 8.2195C12.8989 8.19489 12.9129 8.1738 12.9375 8.17028L12.9727 8.16325M13.0676 8.71521L13.0325 8.72224C13.0079 8.72575 12.9832 8.70817 12.9797 8.68005C12.975 8.60354 12.9668 8.52729 12.9551 8.45153L13.1907 8.41638C13.2047 8.49724 13.2188 8.57458 13.2258 8.64841C13.2223 8.67653 13.1801 8.70114 13.1555 8.70466" fill="#006233"/>
<path d="M13.1661 9.18281L13.2188 9.18984C13.254 9.18984 13.2786 9.22148 13.2821 9.25312C13.268 9.33398 13.261 9.43594 13.2469 9.53437L12.9165 9.49219C12.934 9.38672 12.9411 9.28125 12.9411 9.21094C12.9446 9.1793 12.9762 9.1582 13.0114 9.16523L13.0536 9.16875M12.9657 9.83672L12.9129 9.82969C12.8778 9.82617 12.8532 9.79805 12.8602 9.76641C12.8778 9.68906 12.9024 9.59414 12.9165 9.49219L13.2504 9.53086C13.2364 9.62578 13.2223 9.7207 13.1977 9.80859C13.1872 9.84023 13.1204 9.8543 13.0852 9.85078" fill="#F7C608"/>
<path d="M13.1484 9.23906L13.1836 9.24257C13.2117 9.24257 13.2257 9.26718 13.2293 9.29531L13.2011 9.52734L12.9621 9.49921C12.9761 9.41132 12.9832 9.32343 12.9867 9.26718C12.9867 9.23906 13.0113 9.22148 13.0359 9.22499H13.0675M12.9902 9.78398L12.955 9.78046C12.9269 9.77695 12.9129 9.75234 12.9199 9.72773C12.9339 9.66093 12.9515 9.5871 12.9656 9.4957L13.2011 9.52734C13.1901 9.60405 13.1761 9.68028 13.1589 9.75585C13.1519 9.78398 13.1027 9.79804 13.0781 9.79101" fill="#006233"/>
<path d="M12.9445 10.2551L12.9902 10.2762C13.0254 10.2867 13.0359 10.3183 13.0289 10.3535C12.9937 10.4238 12.9586 10.5222 12.9129 10.6101L12.607 10.4871C12.648 10.4012 12.6844 10.3132 12.716 10.2234C12.7301 10.1953 12.7652 10.1847 12.7969 10.1953L12.8391 10.2129M12.5437 10.8316L12.498 10.8105C12.4629 10.7965 12.4523 10.7648 12.4629 10.7367C12.5086 10.6664 12.5613 10.582 12.607 10.4906L12.9129 10.6101C12.8707 10.698 12.825 10.7859 12.7793 10.8633C12.7582 10.8914 12.6914 10.8879 12.6562 10.8738" fill="#F7C608"/>
<path d="M12.9058 10.3008L12.941 10.3184C12.9656 10.3289 12.9726 10.3535 12.9656 10.3781L12.8672 10.5926L12.6492 10.5047C12.6831 10.4335 12.7136 10.3608 12.7406 10.2867C12.7547 10.2656 12.7793 10.2516 12.8039 10.2621L12.832 10.2727M12.5859 10.786L12.5507 10.7719C12.5297 10.7649 12.5226 10.7367 12.5332 10.7121C12.5749 10.6447 12.6136 10.5755 12.6492 10.5047L12.8672 10.5926C12.8336 10.6643 12.7972 10.7347 12.7582 10.8035C12.7406 10.8281 12.6914 10.8281 12.6703 10.8211" fill="#006233"/>
<path d="M12.3926 11.2289L12.4348 11.257C12.4629 11.2781 12.4629 11.3133 12.4489 11.3414L12.2555 11.5594L12.0024 11.3625C12.0727 11.2851 12.143 11.2008 12.1887 11.141C12.2098 11.1164 12.245 11.1129 12.2731 11.134L12.3083 11.1586M11.8336 11.6754L11.795 11.6472C11.7668 11.6262 11.7633 11.591 11.7879 11.5664C11.8619 11.5023 11.9323 11.4342 11.9989 11.3625L12.2555 11.5594C12.1896 11.6327 12.1203 11.7031 12.0481 11.7703C12.02 11.7879 11.9567 11.7703 11.9286 11.7492" fill="#F7C608"/>
<path d="M12.3434 11.2641L12.375 11.2852C12.3926 11.3027 12.3926 11.3274 12.3786 11.352L12.2168 11.5313L12.034 11.3906C12.0973 11.3274 12.1536 11.257 12.1922 11.2078C12.2098 11.1867 12.2379 11.1832 12.259 11.1973L12.2836 11.2149M11.8899 11.6473L11.8618 11.6227C11.8407 11.6086 11.8407 11.584 11.8618 11.5629C11.9228 11.508 11.9814 11.4505 12.0375 11.3906L12.2168 11.5313C12.1633 11.5924 12.107 11.651 12.0481 11.707C12.0235 11.7246 11.9778 11.7141 11.9567 11.6965" fill="#006233"/>
<path d="M11.5664 12.0199L11.5945 12.0586C11.6156 12.0867 11.6086 12.1183 11.584 12.143L11.3308 12.3047L11.148 12.048C11.2328 11.9972 11.3149 11.942 11.3941 11.8828C11.4077 11.8731 11.4245 11.8691 11.4409 11.8718C11.4574 11.8744 11.4722 11.8834 11.482 11.8969L11.5031 11.932M10.8914 12.3082L10.8633 12.266C10.8422 12.2414 10.8492 12.2062 10.8808 12.1887C10.9721 12.1461 11.0612 12.0991 11.148 12.048L11.3308 12.3047C11.2429 12.3539 11.1551 12.4101 11.0672 12.4488C11.032 12.4629 10.9793 12.4277 10.9617 12.3996" fill="#F7C608"/>
<path d="M11.5066 12.041L11.5277 12.0727C11.5418 12.0903 11.5347 12.1149 11.5136 12.136L11.3027 12.266L11.1726 12.0867C11.2437 12.0428 11.3129 11.9959 11.38 11.9461C11.4047 11.9321 11.4328 11.9356 11.4468 11.9567L11.4644 11.9813M10.9511 12.2907L10.9336 12.2625C10.9195 12.2414 10.9265 12.2168 10.9511 12.2028C11.0265 12.1671 11.1004 12.1284 11.1726 12.0867L11.3027 12.266C11.2324 12.3117 11.155 12.3539 11.0847 12.3891C11.0566 12.3996 11.0144 12.3785 11.0004 12.3574" fill="#006233"/>
<path d="M10.5293 12.5648L10.5434 12.614C10.5539 12.6422 10.5364 12.6738 10.5082 12.6879L10.2129 12.7793L10.118 12.4875C10.2157 12.461 10.312 12.4293 10.4063 12.3926C10.4414 12.382 10.4731 12.3961 10.4836 12.4277L10.4942 12.4664M9.79105 12.6703L9.77699 12.6246C9.76645 12.593 9.78402 12.5613 9.81566 12.5543C9.90355 12.5402 10.009 12.5191 10.118 12.4875L10.2129 12.7793C10.111 12.8074 10.0125 12.8355 9.91762 12.8496C9.88246 12.8531 9.83676 12.8074 9.82621 12.7793" fill="#F7C608"/>
<path d="M10.466 12.5754L10.4765 12.607C10.4836 12.6281 10.4695 12.6492 10.4414 12.6633C10.3711 12.6844 10.2832 12.7125 10.1953 12.7336L10.1285 12.5297C10.2104 12.5061 10.2914 12.4791 10.3711 12.4488C10.3992 12.4418 10.4238 12.4523 10.4343 12.4734L10.4414 12.5016M9.85427 12.6703L9.84373 12.6352C9.83669 12.6141 9.85427 12.593 9.87888 12.5859C9.96283 12.5706 10.0461 12.5519 10.1285 12.5297L10.1988 12.7371C10.1175 12.7598 10.0354 12.7797 9.95271 12.7969C9.92107 12.8004 9.88943 12.7687 9.8824 12.7477" fill="#006233"/>
<path d="M9.36206 12.825V12.8742C9.36206 12.9094 9.33745 12.9305 9.3023 12.9375C9.2144 12.9375 9.1019 12.948 8.99292 12.948V12.6457C9.0951 12.6449 9.19718 12.639 9.29878 12.6281C9.33394 12.6281 9.36206 12.6492 9.36206 12.6808V12.723M8.62378 12.7371V12.6879C8.62378 12.6562 8.64839 12.6316 8.68354 12.6316C8.77144 12.6387 8.8769 12.6457 8.9894 12.6457L8.99292 12.948C8.89096 12.9513 8.78892 12.9501 8.68706 12.9445C8.6519 12.9375 8.62378 12.8812 8.62378 12.8496" fill="#F7C608"/>
<path d="M9.29883 12.818V12.8531C9.29883 12.8742 9.27773 12.8883 9.24961 12.8988L8.99297 12.9059V12.6879C9.08438 12.6879 9.1793 12.6809 9.24609 12.6738C9.27773 12.6738 9.29883 12.6914 9.29883 12.7125V12.7406M8.68359 12.7547V12.7195C8.68359 12.6949 8.70469 12.6773 8.73281 12.6773C8.80664 12.6844 8.89453 12.6879 8.98945 12.6879L8.99297 12.9059L8.73633 12.9023C8.7082 12.8953 8.68359 12.8566 8.68359 12.832" fill="#006233"/>
</g>
<defs>
<clipPath id="clip0_14_1330">
<rect width="18" height="18" rx="9" fill="white"/>
</clipPath>
</defs>
</svg>
