<svg width="18" height="18" viewBox="0 0 18 18" fill="none" xmlns="http://www.w3.org/2000/svg">
<g clip-path="url(#clip0_14_1256)">
<path d="M0 0H18V18H0V0Z" fill="#000066"/>
<path d="M0 9L18 0V18L0 9Z" fill="#BD1021"/>
<path d="M1.45544 8.99998L17.9789 0.963257V17.0367" fill="white"/>
<path d="M11.7738 10.1426C11.9636 10.1531 11.9566 10.343 11.9566 10.343L12.6351 10.3605C12.723 10.1215 12.8109 10.1496 12.9761 10.2691C13.0767 10.3378 13.1869 10.3911 13.3031 10.4273C13.3734 10.0898 13.8515 10.1566 13.8515 10.1566C14.0554 9.66797 14.073 9.675 13.95 9.61172C13.8771 9.57542 13.817 9.51778 13.7777 9.44648C13.6748 9.30977 13.6094 9.14861 13.5878 8.97891C13.5738 8.85586 13.4296 9.03867 13.405 9.00352C13.3804 8.96133 13.166 8.98594 13.166 8.98594C13.2187 9.04219 13.0394 9.00703 13.0394 9.00703C13.057 9.02461 13.0394 9.07734 13.0394 9.07734C13.0218 9.05273 12.8847 9.02812 12.8847 9.02812C12.874 9.05018 12.8597 9.07036 12.8425 9.08789C12.7687 9.05977 12.621 9.06328 12.621 9.06328C12.4767 9.05821 12.3339 9.09483 12.2097 9.16875C12.15 9.20391 11.9285 9.30937 11.7527 9.48516C11.5734 9.66094 11.4714 9.63633 11.4714 9.63633C11.4187 9.8332 10.9933 10.0687 10.9933 10.0687C10.923 10.1285 10.7085 10.1566 10.5996 10.0687C10.4906 9.97734 10.5996 9.80859 10.5996 9.80859C10.6417 9.73828 10.6804 9.73828 10.6839 9.47461C10.6875 9.29883 10.8703 9.15117 11.0601 8.94727C11.2921 8.69062 11.6191 8.26875 11.6191 8.26875C11.6191 8.39883 11.6894 8.41992 11.6894 8.41992C11.7527 8.28984 11.8441 8.18438 11.8441 8.18438C11.8511 8.19492 11.8652 8.20195 11.8652 8.20195C11.9355 8.10352 11.9812 8.06484 11.9812 8.06484C11.9566 8.0543 11.7527 8.06484 11.5664 8.23008C11.3765 8.39531 11.25 8.33906 11.25 8.33906C11.1199 8.29687 11.1093 8.19844 11.1093 8.19844C11.0109 7.78359 11.3871 7.49531 11.3871 7.49531C10.8843 7.37227 11.2464 6.73242 11.8722 6.4582C12.4945 6.1875 12.4875 6.06445 12.4875 6.06445C12.5162 6.09967 12.5398 6.13872 12.5578 6.18047C12.5578 6.17695 12.607 6.11016 12.9691 5.94844C13.1556 5.86915 13.3326 5.7689 13.4964 5.64961C13.5457 5.74102 13.5386 5.8043 13.5386 5.8043C14.523 5.45977 15.4898 4.66523 15.4898 4.66523C15.5179 4.73203 15.5039 4.83398 15.5039 4.83398C15.6656 4.68281 16.2421 4.3418 16.2421 4.3418C16.2527 4.55977 16.0734 4.64414 16.0734 4.64414C16.0874 4.67174 16.0969 4.70141 16.1015 4.73203C16.2848 4.61686 16.4654 4.49729 16.6429 4.37344C16.8046 4.51406 16.6605 4.73906 16.6605 4.73906C16.7167 4.73203 16.7554 4.68281 16.7554 4.68281C16.8011 4.92187 16.5339 5.13281 16.5339 5.13281C16.5789 5.12479 16.6219 5.10807 16.6605 5.08359C16.6078 5.34375 16.1156 5.63203 16.1156 5.63203C16.1859 5.69531 16.1191 5.77969 16.0593 5.82188C15.9996 5.85703 15.8976 5.94141 15.9292 5.97656C15.9609 6.01172 16.1789 5.85352 16.1789 5.85352C16.214 5.9625 15.9363 6.18047 15.9363 6.18047C16.1332 6.20508 16.6746 5.95898 16.6746 5.95898C16.6289 6.16992 16.4285 6.33164 16.1718 6.42656C15.9222 6.52148 15.9363 6.53555 15.9363 6.53555C15.9785 6.5707 16.323 6.46875 16.323 6.46875C16.221 6.70078 15.8589 6.8625 15.8589 6.8625C15.9574 6.95039 16.0945 6.84844 16.2316 6.75703C16.3958 6.65302 16.5731 6.57144 16.7589 6.51445C16.9593 6.44414 17.1035 6.49688 17.1035 6.49688C17.2792 6.44414 17.4199 6.52148 17.4199 6.52148C17.7433 6.54609 17.7785 6.66211 17.7785 6.66211C17.8136 6.67266 17.8417 6.68672 17.9261 6.75C18.0105 6.80977 18.0035 6.99961 18 7.09453C18 7.18594 17.9718 7.18594 17.9542 7.21055C17.9402 7.23867 17.9367 7.2668 17.9367 7.30195C17.9367 7.33711 17.8523 7.56211 17.3496 7.56211H16.5832C16.541 7.56211 16.4917 7.58672 16.4917 7.58672C16.2808 7.69219 16.3933 7.51641 16.1402 7.72031C15.8871 7.93125 15.757 7.89609 15.757 7.89609C15.6167 8.0407 15.4637 8.17247 15.3 8.28984C15.1488 8.38828 15.1734 8.37773 15.307 8.43398C15.4406 8.49023 15.6375 8.43398 15.6375 8.43398C15.5109 8.52187 15.6023 8.56055 15.6023 8.56055C15.764 8.45508 15.8695 8.49375 15.8695 8.49375C15.9222 8.64141 15.7289 8.87344 15.7289 8.87344C15.8027 8.88047 15.9433 8.87344 15.9433 8.87344C15.9082 8.97187 15.771 9.08086 15.6691 9.1125C15.5636 9.14766 15.5812 9.16172 15.6128 9.21797C15.641 9.28477 15.6199 9.34805 15.6199 9.34805C15.4371 9.225 15.4335 9.33398 15.4335 9.33398C15.4125 9.47812 15.416 9.69258 15.416 9.69258C15.2894 9.6293 15.2824 9.71367 15.2824 9.71367C15.2401 9.82105 15.1754 9.91815 15.0925 9.99844C15.089 9.91758 15.0117 9.89297 15.0117 9.89297C14.9308 10.0512 14.7796 10.1461 14.7796 10.1461C14.7621 10.2797 14.8007 10.466 14.8007 10.466C14.7023 10.4484 14.6671 10.4484 14.6531 10.4695C14.639 10.4941 14.6742 10.5047 14.6742 10.5047L15.9257 10.5363C15.9433 10.5363 16.0171 10.5469 16.0171 10.677C16.0207 10.8176 15.9117 10.8246 15.9117 10.8246L14.5406 10.7895C14.5406 10.7895 14.5476 10.8281 14.4773 10.8668C14.407 10.9055 14.4316 10.8246 14.407 10.9934C14.3894 11.1586 14.1187 10.9793 14.1187 10.9793C14.073 11.0461 13.9675 11.1305 13.9675 11.1305C13.9042 10.9441 13.841 10.8844 13.7425 11.0461C13.6476 11.2078 13.9218 11.1797 13.9218 11.1797L15.6164 10.9336C15.7042 10.9266 15.7957 10.9336 15.8378 11.0531C15.873 11.1762 15.641 11.1937 15.641 11.1937L13.9921 11.3766C13.957 11.4715 13.8199 11.468 13.8199 11.468C13.8339 11.5594 13.7355 11.6191 13.6863 11.6508C13.6335 11.6859 13.4753 11.6719 13.4753 11.6719C13.2855 11.802 13.1941 11.7 13.1941 11.7C13.0675 11.7527 12.9902 11.7281 12.8882 11.6859C12.7828 11.6402 12.7933 11.5172 12.7933 11.5172L11.7527 11.6227C11.7226 11.6349 11.6951 11.6528 11.6718 11.6754C11.707 11.7211 11.5945 11.8301 11.5945 11.8301C11.6296 11.8512 11.6859 11.9109 11.6964 12.041C11.7035 12.1816 11.5277 12.2027 11.6156 12.3012C11.7 12.3961 11.8652 12.3152 12.048 12.2309C12.2238 12.143 12.3996 12.1535 12.4769 12.1535C12.5542 12.1535 12.7687 12.2098 12.9023 12.259C13.0359 12.3012 13.0816 12.273 13.0921 12.2063C13.0992 12.1359 13.1625 12.1184 13.1625 12.1184C13.1449 12.1852 13.18 12.2168 13.18 12.2168C13.2328 12.2168 13.3207 12.1676 13.3207 12.1676C13.3136 12.2203 13.2468 12.252 13.2468 12.252C13.1167 12.3363 13.296 12.3047 13.296 12.3047C13.485 12.254 13.681 12.235 13.8761 12.2484C14.0581 12.303 14.2366 12.3687 14.4105 12.4453C14.4246 12.3996 14.4175 12.2906 14.4175 12.2906C14.4777 12.3075 14.5315 12.3417 14.5722 12.3891C14.6179 12.3434 14.5898 12.2625 14.5898 12.2625C14.9484 12.4664 14.5125 12.5578 14.3964 12.6C14.2804 12.6352 14.2804 12.6844 14.2804 12.6844C14.3789 12.6562 14.4457 12.6422 14.5265 12.6352C14.6039 12.6316 14.5757 12.6352 14.7691 12.6C14.9625 12.5578 15.0609 12.6422 15.0609 12.6422C14.8992 12.6492 14.85 12.6984 14.85 12.6984C14.9554 12.7652 14.857 12.825 14.857 12.825C14.7128 12.6422 14.5863 12.832 14.5863 12.832C14.6686 12.8311 14.7501 12.8479 14.8253 12.8812C14.857 12.9023 14.9308 12.941 15.0257 12.9867C15.1593 13.043 15.1312 13.0078 15.2367 13.043C15.3421 13.0852 15.3 13.1836 15.3 13.1836C15.2682 13.1303 15.2183 13.0904 15.1593 13.0711C15.1523 13.1801 15.0433 13.2012 15.0433 13.2012C15.1804 13.0535 14.8886 12.9867 14.7515 12.9902C14.6179 12.9902 14.516 13.0781 14.516 13.0781C14.7902 13.3383 14.98 13.2539 14.98 13.2539C14.9449 13.3453 14.7199 13.3066 14.7199 13.3066C14.8253 13.3875 14.8113 13.4437 14.8113 13.4437C14.755 13.3875 14.6671 13.4156 14.4667 13.2891C14.2734 13.1625 14.0976 13.2047 14.0976 13.2047C14.291 13.4051 14.0273 13.5281 14.0273 13.5281C13.9289 13.5879 14.0695 13.6582 14.0695 13.6582C13.9464 13.6828 13.9289 13.5598 13.9289 13.5598C13.8656 13.5457 13.7742 13.623 13.7742 13.623C13.7812 13.5 13.9464 13.5633 13.95 13.4332C13.9535 13.3031 13.7988 13.2012 13.3347 13.2645C12.8707 13.3312 12.7371 13.1801 12.7371 13.1801C12.6949 13.1801 12.6914 13.2223 12.6914 13.2223C12.7617 13.2961 12.7968 13.3277 12.7863 13.377C12.7722 13.4297 12.8109 13.4473 12.8109 13.4473C12.723 13.4402 12.7195 13.3418 12.7195 13.3418C12.7195 13.384 12.7019 13.384 12.6738 13.4297C12.6457 13.4754 12.6738 13.5281 12.6738 13.5281C12.6351 13.4965 12.5683 13.4578 12.6316 13.3699C12.6773 13.2996 12.5332 13.2117 12.5332 13.2117C12.4734 13.152 12.3222 13.2082 12.3222 13.2082C12.0058 13.268 11.823 13.0676 11.823 13.0676C11.7878 13.0676 11.7175 13.05 11.7175 13.05C11.3835 13.1977 11.0882 12.8742 11.0882 12.8742C10.8386 12.9234 10.7226 12.8039 10.6488 12.6809C10.6054 12.5979 10.5363 12.5313 10.4519 12.491C10.3535 12.4348 10.2585 12.259 10.3535 12.1676C10.4308 12.0867 10.4097 12.0691 10.4097 12.0691C10.2761 11.8477 10.6382 11.7809 10.6488 11.7246C10.6558 11.6508 10.7332 11.6016 10.814 11.5945C10.8984 11.591 10.8984 11.5945 10.9546 11.5453C11.0039 11.4855 11.1058 11.5559 11.1058 11.5559C11.1304 11.5418 11.3097 11.4012 11.4679 11.4715C11.6296 11.5418 11.7632 11.4961 11.7632 11.4961C11.8757 11.4715 12.8144 11.3449 12.8144 11.3449C12.8707 11.25 12.9199 11.141 13.1765 11.0848C13.4332 11.0285 13.6265 10.8598 13.6265 10.8598C13.5808 10.8105 13.5035 10.8141 13.4648 10.8105C13.4261 10.807 13.3453 10.7332 13.3453 10.7332C13.296 10.7578 13.275 10.7473 12.9339 10.9547C12.6281 11.1375 12.6175 10.7719 12.6175 10.7719H11.9601C11.9496 10.9125 11.8441 10.9688 11.8441 10.9688L11.598 10.9793C11.4679 10.909 11.4679 10.6699 11.4679 10.6699C11.0736 10.6613 10.6837 10.7545 10.3359 10.9406C9.51323 10.5223 8.86987 10.4238 8.86987 10.4238C9.86831 10.3184 10.3992 10.0371 10.3992 10.0371C10.723 10.2346 11.0895 10.3515 11.4679 10.3781C11.4855 10.1777 11.6226 10.1285 11.6226 10.1285L11.7738 10.1426Z" fill="black"/>
<path d="M10.5821 11.802C10.3747 11.9215 10.4133 11.9883 10.4309 12.027C10.4485 12.0621 10.452 12.1008 10.3958 12.1605C10.336 12.2168 10.343 12.2379 10.343 12.2379C10.3536 12.4383 10.4942 12.484 10.554 12.5332C10.6067 12.5719 10.6911 12.7055 10.6911 12.7055C10.7227 12.757 10.7681 12.7988 10.8221 12.8261C10.8761 12.8534 10.9366 12.8652 10.9969 12.8602C11.0813 12.8602 11.0743 12.8531 11.0321 12.8145L10.9055 12.709C10.9883 12.7462 11.0625 12.8001 11.1235 12.8672C11.3344 13.0992 11.5313 13.0676 11.6157 13.057C11.7036 13.0465 11.6895 12.9937 11.6895 12.9937C11.686 12.9867 11.6051 12.9797 11.6051 12.9797C11.2817 12.9516 11.1868 12.7406 11.1868 12.7406C11.3492 12.8835 11.5576 12.9633 11.7739 12.9656C11.8653 12.9621 11.8583 12.9902 11.8407 12.9937C11.8196 12.9973 11.795 12.9937 11.7493 12.9902C11.7071 12.9902 11.7071 12.9973 11.7141 13.0184C11.7282 13.0324 11.7669 13.0359 11.8196 13.0324C11.8688 13.0324 11.8266 13.0395 11.9602 13.1379C12.0938 13.2434 12.4172 13.159 12.4172 13.159C12.2063 13.1062 12.1782 13.0078 12.1782 13.0078C11.8899 13.043 11.7739 12.8707 11.7739 12.8707C11.7093 12.8205 11.6398 12.7769 11.5665 12.7406C11.4047 12.6703 11.3801 12.5227 11.3801 12.5227C11.4258 12.593 11.5137 12.6633 11.6262 12.6984C11.7422 12.7266 11.7704 12.7406 11.7704 12.7406C11.7422 12.747 11.7127 12.7445 11.686 12.7336C11.5735 12.6984 11.6368 12.7441 11.6368 12.7441C11.7633 12.8461 11.795 12.8355 11.795 12.8355C12.1219 12.8707 11.9602 12.7406 11.9602 12.7406C12.1887 12.7969 12.2309 12.709 12.2309 12.709C12.2801 12.8145 12.4559 12.7723 12.4559 12.7723C12.2204 12.8883 12.3962 12.8531 12.3962 12.8531C12.6352 12.8109 12.6844 12.8707 12.6844 12.8707C12.7442 12.9305 12.811 12.9234 12.811 12.9234C12.811 12.9234 12.8532 12.9234 12.9411 12.941C13.0325 12.9586 13.1731 13.0359 13.3032 13.0219C13.4297 13.0043 13.4544 13.043 13.4544 13.043C13.4262 13.0359 13.37 13.0254 13.2715 13.0711C13.1696 13.1168 12.9938 13.1309 12.7372 13.0711C12.4805 13.0113 12.4629 13.0219 12.4629 13.0219C12.5187 13.0592 12.5626 13.1116 12.5895 13.173C12.6001 13.2152 12.6458 13.2187 12.6458 13.2187C12.6633 13.1625 12.7372 13.1379 12.7372 13.1379C12.7899 13.1836 12.927 13.2434 12.927 13.2434C12.9411 13.2152 12.927 13.1941 12.927 13.1941C13.0219 13.2891 13.138 13.2609 13.138 13.2609C13.1661 13.2398 13.159 13.1836 13.159 13.1836C13.1977 13.1836 13.2047 13.2082 13.2294 13.2293C13.2645 13.2434 13.3489 13.2328 13.3489 13.2328C13.3137 13.2187 13.2891 13.1695 13.2891 13.1695C13.4227 13.0816 13.7005 13.1168 13.7005 13.1168C13.9008 13.1555 13.8762 13.2891 13.8762 13.2891C13.9133 13.3104 13.9466 13.3377 13.9747 13.3699C13.9922 13.3207 13.9747 13.275 13.9747 13.275C14.0696 13.3172 14.0872 13.4262 14.0872 13.4262C14.1926 13.3031 13.9852 13.166 13.9852 13.166C14.0872 13.152 14.1962 13.1625 14.2665 13.1695C14.3574 13.1855 14.4424 13.2256 14.5126 13.2855C14.579 13.33 14.6528 13.3621 14.7305 13.3805C14.7305 13.3523 14.6532 13.3066 14.6356 13.2961C14.618 13.2891 14.611 13.2609 14.611 13.2609C14.6813 13.275 14.727 13.268 14.727 13.268C14.6171 13.2071 14.5145 13.134 14.4212 13.05C14.5126 13.0605 14.5653 13.0043 14.5653 13.0043C14.3719 13.0043 14.3649 12.9586 14.3649 12.9586C14.3895 12.9621 14.4774 12.9867 14.5934 12.9621C14.7094 12.9375 14.8676 12.9621 14.8676 12.9621C14.7833 12.8285 14.4633 12.8531 14.3579 12.8566C14.2524 12.8637 14.2172 12.8496 14.2172 12.8496C14.2313 12.8426 14.2524 12.825 14.3297 12.8215C14.4106 12.8215 14.4915 12.832 14.5829 12.7652C14.6708 12.7055 14.7973 12.7266 14.7973 12.7266C14.7692 12.6633 14.6215 12.6422 14.495 12.7266C14.3684 12.8039 14.2489 12.7828 14.2489 12.7828C14.4528 12.7547 14.509 12.6809 14.509 12.6809C14.4528 12.6633 14.4176 12.6844 14.2981 12.709C14.1751 12.7336 14.1434 12.6914 14.1434 12.6914C14.2735 12.6141 14.3684 12.5824 14.3684 12.5824C14.2559 12.5543 14.1504 12.5051 14.1504 12.5051C14.0344 12.6176 13.9395 12.6809 13.7145 12.5648C13.4895 12.4418 13.37 12.4594 13.37 12.4594C13.4549 12.4115 13.5515 12.3882 13.6489 12.3919C13.7464 12.3956 13.8409 12.4263 13.9219 12.4805C14.0696 12.5684 14.1153 12.498 14.1153 12.498C14.0661 12.4699 14.0731 12.4418 14.0731 12.4418C14.4317 12.6246 14.5899 12.5121 14.6708 12.4594C14.7481 12.4031 14.6321 12.3328 14.6321 12.3328C14.6251 12.4453 14.4774 12.5051 14.3614 12.4629C14.2454 12.4242 14.1399 12.375 13.9747 12.3012C13.8059 12.2309 13.602 12.2695 13.4051 12.3117C13.2083 12.3504 13.1872 12.3328 13.1661 12.3187C13.1485 12.3012 13.1415 12.2555 13.0395 12.2941C12.9411 12.3363 12.709 12.2273 12.5649 12.1922C12.3664 12.1563 12.1616 12.1898 11.9848 12.2871C11.7809 12.4031 11.679 12.375 11.6192 12.3469C11.5594 12.3188 11.5172 12.2414 11.584 12.1711C11.6508 12.1008 11.6544 12.0867 11.6508 11.9883C11.6438 11.8898 11.5454 11.8301 11.5454 11.8301C11.6368 11.7387 11.6579 11.7141 11.6262 11.6754C11.5981 11.6367 11.6438 11.6367 11.6965 11.6121C11.7493 11.591 11.7247 11.5875 11.7141 11.5559C11.7001 11.5277 11.6719 11.5348 11.6719 11.5348C11.5524 11.5383 11.4856 11.5031 11.4856 11.5031C11.2922 11.4152 11.1059 11.591 11.1059 11.591C10.9969 11.5031 10.9688 11.5629 10.9477 11.5805C10.9337 11.6016 10.8915 11.6156 10.8422 11.6227C10.793 11.6262 10.7192 11.6437 10.6981 11.693C10.6981 11.693 10.6735 11.7281 10.6981 11.7633C10.6981 11.7633 10.7297 11.8125 10.677 11.8687C10.6208 11.925 10.5997 11.9355 10.6208 11.9883C10.6348 12.041 10.6313 12.0832 10.6067 12.1148C10.6067 12.1148 10.5821 12.0867 10.5891 12.0516C10.5962 12.0164 10.5962 11.9918 10.5891 11.9742C10.5891 11.9742 10.5329 12.027 10.5258 12.0656C10.5258 12.0656 10.5012 12.0059 10.5821 11.925C10.6594 11.8477 10.6981 11.809 10.6735 11.7773C10.6559 11.7527 10.5997 11.7914 10.5856 11.802H10.5821Z" fill="#FFC221"/>
<path d="M10.8106 12.6773C10.8106 12.6773 10.7121 12.6 10.7227 12.4945C10.7332 12.3891 10.7332 12.382 10.7227 12.3539C10.7227 12.3539 10.7016 12.3645 10.7051 12.4066L10.6981 12.491C10.6981 12.491 10.6453 12.4066 10.6207 12.3891C10.6207 12.3891 10.6418 12.2977 10.6137 12.259C10.5856 12.2203 10.5575 12.2168 10.5258 12.2309C10.4766 12.2449 10.445 12.2871 10.5961 12.4137C10.5961 12.4137 10.6524 12.4594 10.6911 12.5543C10.7297 12.6563 10.7965 12.6703 10.8071 12.6773H10.8106ZM11.3028 12.3855C11.3028 12.3855 11.2922 12.3293 11.3485 12.2238C11.3665 12.1918 11.3766 12.1559 11.3778 12.1192C11.379 12.0825 11.3714 12.046 11.3555 12.0129C11.345 11.9848 11.3379 11.9953 11.3907 11.9496C11.461 11.8934 11.3661 11.823 11.4786 11.7246C11.4786 11.7246 11.5489 11.6648 11.5629 11.6402C11.5629 11.6402 11.4504 11.7 11.3731 11.7316C11.2957 11.7633 11.011 11.9039 11.0743 11.9988C11.1375 12.0937 11.1305 12.0973 11.12 12.1395C11.12 12.1395 10.9442 12.048 11.011 11.9004C11.011 11.9004 11.0356 11.8441 11.1059 11.7738C11.1762 11.7141 11.1375 11.7879 11.2676 11.7105C11.2676 11.7105 11.3731 11.6473 11.4293 11.5664C11.4293 11.5664 11.359 11.6086 11.3344 11.6156C11.3344 11.6156 11.1797 11.6438 11.1164 11.707C11.0567 11.7773 10.9231 11.8863 10.9653 12.0129C10.9653 12.0129 10.8141 11.9953 10.7789 11.8371C10.7789 11.8371 10.4942 12.1852 11.0953 12.3504C11.0953 12.3504 11.2008 12.382 11.3028 12.3855Z" fill="black"/>
<path d="M13.929 11.2114C14.154 11.1797 15.4477 10.9828 15.5672 10.9688C15.6938 10.9582 15.743 10.9407 15.7852 11.0461C15.8344 11.1586 15.6094 11.1621 15.6094 11.1621L14.0626 11.3379C13.9922 11.345 13.9747 11.3168 13.9747 11.3168L13.9149 11.2395C13.9149 11.2395 13.8973 11.2184 13.929 11.2114Z" fill="#FFC221"/>
<path d="M10.7719 11.918C10.7719 11.918 10.6031 12.266 11.2605 12.3504C11.2605 12.3504 11.2605 12.3152 11.2887 12.2555C11.3168 12.2027 11.373 12.0902 11.3168 12.0199C11.264 11.9496 11.3625 11.9848 11.373 11.8898C11.3906 11.7984 11.366 11.809 11.4117 11.7492C11.4117 11.7492 11.2078 11.823 11.1305 11.9144C11.0496 12.0058 11.2359 12.0726 11.1305 12.1746C11.1305 12.1746 11.032 12.1394 10.9793 12.0375C10.9793 12.0375 10.8527 12.041 10.7683 11.9144L10.7719 11.918Z" fill="#5A3719"/>
<path d="M11.4152 12.3469C11.4152 12.3469 11.5769 12.4875 11.7667 12.4805C11.9601 12.4734 12.0445 12.4242 12.0937 12.3469C12.0937 12.3469 12.1289 12.4031 12.1289 12.4418C12.1289 12.4418 12.2976 12.3047 12.5859 12.4277C12.8742 12.5508 12.7828 12.5121 12.846 12.5226C12.846 12.5226 12.723 12.5016 12.4453 12.6281C12.157 12.7582 11.4046 12.7125 11.4117 12.3469H11.4152Z" fill="black"/>
<path d="M11.1445 11.7246C11.1445 11.7246 11.2148 11.7387 11.2851 11.6543C11.2851 11.6543 11.1902 11.6754 11.1445 11.7246ZM10.5925 12.3785C10.5925 12.3785 10.459 12.273 10.5433 12.252C10.5433 12.252 10.6066 12.2379 10.5925 12.3785Z" fill="#5A3719"/>
<path d="M13.5387 13.043C13.5387 13.043 13.616 12.9129 13.8199 12.9129C14.0309 12.9129 14.052 13.0113 14.3121 13.0289C14.3121 13.0289 13.9992 13.1168 13.7813 13.0395C13.7426 13.0239 13.7013 13.0162 13.6596 13.0168C13.618 13.0174 13.5769 13.0263 13.5387 13.043Z" fill="black"/>
<path d="M11.4821 12.4418C11.4821 12.4418 11.7985 12.6281 12.0727 12.4242C12.0727 12.4242 12.0938 12.4453 12.1149 12.4945C12.1149 12.4945 12.3258 12.2941 12.6985 12.5121C12.6985 12.5121 12.6528 12.5051 12.477 12.5824C12.2485 12.6809 11.6719 12.7477 11.4821 12.4383V12.4418Z" fill="#5A3719"/>
<path d="M12.6843 12.6317C12.6843 12.6317 12.9832 12.6668 13.2328 12.6492C13.3875 12.6422 13.5562 12.6141 13.4753 12.6633C13.3875 12.716 13.4296 12.7231 13.7882 12.6914C14.1398 12.6563 13.7847 12.7582 14.0273 12.7899C14.0273 12.7899 13.4332 13.0922 12.6843 12.6317Z" fill="black"/>
<path d="M13.4648 12.4418C13.4648 12.4418 13.6406 12.3785 13.8058 12.4524C13.964 12.5297 13.9394 12.5367 14.0484 12.5473C14.0484 12.5473 13.9746 12.6527 13.7953 12.5684C13.6928 12.5085 13.5811 12.4657 13.4648 12.4418ZM13.6617 12.9762C13.6617 12.9762 13.834 12.8918 14.0238 12.9797C14.0449 12.9938 14.0941 13.0149 14.1469 13.0254C14.1469 13.0254 14.0027 13.0711 13.8515 13.0254C13.7899 13.0031 13.7264 12.9867 13.6617 12.9762ZM12.8109 12.6703C12.8109 12.6703 13.1976 12.7055 13.4015 12.6633C13.4015 12.6633 13.1625 12.7793 13.7672 12.7266C13.7672 12.7266 13.8972 12.7125 13.8832 12.7336C13.8656 12.7547 13.8551 12.7688 13.9219 12.7899C13.9219 12.7899 13.4754 12.9938 12.8109 12.6703Z" fill="#5A3719"/>
<path d="M10.8984 12.3469C10.8984 12.3469 10.902 12.375 10.9863 12.4137C11.0742 12.4488 11.1199 12.5191 11.1375 12.5543C11.1505 12.5805 11.1687 12.6037 11.1911 12.6224C11.2135 12.6412 11.2395 12.6551 11.2676 12.6633C11.2676 12.6633 10.9652 12.7265 10.8352 12.5683C10.8352 12.5683 10.7297 12.4594 10.8949 12.3469" fill="black"/>
<path d="M13.2609 13.0394C13.2609 13.0394 13.1449 13.0289 12.9797 12.9762C12.8179 12.9164 12.7757 12.9656 12.6843 12.8988C12.5929 12.8285 12.4066 12.8707 12.375 12.8777C12.3398 12.8777 12.2414 12.8777 12.3609 12.7969C12.3609 12.7969 12.266 12.7969 12.2273 12.7441C12.2273 12.7441 12.1851 12.7898 12.0164 12.7723C12.0164 12.7723 12.0937 12.8883 11.7949 12.8531C11.8447 12.9114 11.9108 12.9536 11.9847 12.9742C12.0585 12.9949 12.1369 12.9931 12.2097 12.9691C12.2097 12.9691 12.1886 13.0605 12.3257 13.0957C12.4664 13.1308 12.491 13.1555 12.5648 13.1836C12.5648 13.1836 12.5718 13.1273 12.389 12.9937C12.389 12.9937 12.4875 12.9902 12.6281 13.0254C12.7687 13.0605 13.0886 13.1379 13.2609 13.0394ZM13.3347 13.1765C13.3347 13.1765 13.3664 13.2469 13.4578 13.2293C13.5457 13.2117 13.6933 13.1871 13.8375 13.2609C13.8375 13.2609 13.8656 13.1379 13.5738 13.1308C13.5738 13.1308 13.3945 13.1379 13.3347 13.1765ZM10.8879 12.389C10.8879 12.389 10.7754 12.4805 10.8773 12.5754C10.9687 12.6633 11.1129 12.6562 11.1832 12.6527C11.1832 12.6527 11.1375 12.6316 11.1058 12.5754C11.0672 12.5226 11.0672 12.484 10.9898 12.4488C10.9125 12.4137 10.9019 12.4066 10.8879 12.389ZM10.7754 11.9144C10.7754 11.9144 10.6031 12.266 11.264 12.3504C11.264 12.3504 11.264 12.3152 11.2922 12.2555C11.3132 12.2027 11.373 12.0902 11.3203 12.0199C11.264 11.9496 11.3625 11.9848 11.3765 11.8898C11.3906 11.7984 11.366 11.809 11.4117 11.7492C11.4117 11.7492 11.2078 11.823 11.1304 11.9144C11.0496 12.0058 11.2359 12.0726 11.1304 12.1746C11.1304 12.1746 11.032 12.1394 10.9793 12.041C10.9793 12.041 10.8527 12.041 10.7683 11.9144H10.7754Z" fill="#5A3719"/>
<path d="M12.4945 12.7266C12.4945 12.7266 12.6351 12.702 12.9832 12.8321C13.3347 12.9621 13.4789 12.9305 13.5316 12.9305C13.5316 12.9305 13.3347 13.0324 13.0289 12.8953C12.7582 12.7758 12.7406 12.825 12.4945 12.7266Z" fill="black"/>
<path d="M14.6883 12.6492C14.6883 12.6492 14.7656 12.6457 14.8148 12.6633C14.8148 12.6633 14.8429 12.6387 14.9203 12.6281C14.9203 12.6281 14.8711 12.5859 14.6883 12.6492ZM14.4492 12.4523C14.4492 12.4523 14.5265 12.4523 14.5547 12.4102C14.5547 12.4102 14.509 12.3609 14.4492 12.3328C14.4492 12.3328 14.4633 12.3926 14.4492 12.4523ZM11.7597 11.5594C11.7597 11.5594 11.7422 11.5172 11.83 11.5066L13.0008 11.3379C13.0008 11.3379 13.057 11.3379 13.0675 11.373C13.0746 11.4187 13.0605 11.4469 12.7968 11.4785C12.5332 11.5066 11.8371 11.5945 11.8371 11.5945C11.8371 11.5945 11.7668 11.6086 11.7597 11.5594Z" fill="#FFC221"/>
<path d="M12.8215 11.5101C12.8215 11.5101 12.8215 11.6648 12.9797 11.6859C13.1309 11.7105 13.1836 11.6789 13.2258 11.598C13.2364 11.5769 13.2821 11.4152 13.2153 11.4047C13.1786 11.3999 13.1414 11.4036 13.1063 11.4152C13.0536 11.4398 13.0043 11.4644 13.0184 11.489C13.0606 11.5488 13.0676 11.5593 13.0536 11.5664C13.0149 11.5769 12.9868 11.5418 12.9797 11.5172C12.9727 11.489 13.0008 11.4715 12.8989 11.489C12.8567 11.4925 12.8215 11.4925 12.8215 11.5101Z" fill="#FFC221"/>
<path d="M13.4755 11.3906C13.5528 11.4012 13.5458 11.5699 13.4544 11.6473C13.3489 11.7317 13.254 11.7 13.254 11.7C13.1977 11.6789 13.2083 11.686 13.2469 11.6262C13.2821 11.5664 13.3032 11.4891 13.2821 11.4363C13.2751 11.4188 13.2926 11.4012 13.3172 11.4012C13.3172 11.4012 13.3946 11.3836 13.4755 11.3906Z" fill="#FFC221"/>
<path d="M13.5457 11.4082C13.5457 11.4082 13.602 11.4785 13.5317 11.6121C13.5317 11.6121 13.4965 11.6508 13.5704 11.6472C13.6407 11.6402 13.8024 11.5664 13.7813 11.4679C13.7813 11.4679 13.7813 11.4433 13.7356 11.4433C13.6934 11.4469 13.7286 11.4222 13.7461 11.4152C13.7637 11.4152 13.8164 11.3906 13.6758 11.2992C13.6758 11.2992 13.6547 11.2816 13.6266 11.2886C13.6055 11.2992 13.5317 11.3238 13.5317 11.373C13.5317 11.3906 13.5457 11.4082 13.5457 11.4082Z" fill="#FFC221"/>
<path d="M13.6969 11.2852C13.6969 11.2852 13.8129 11.366 13.8094 11.3906C13.8094 11.4117 13.7989 11.4469 13.8305 11.4398C13.8586 11.4398 13.9781 11.4117 13.9465 11.3344C13.9114 11.2535 13.8762 11.2289 13.8235 11.2043C13.7672 11.1867 13.7531 11.2113 13.7039 11.25C13.7039 11.25 13.6688 11.2711 13.6969 11.2852ZM13.0957 11.3977C13.0957 11.3977 13.1133 11.3414 13.0114 11.3168C13.0114 11.3168 13.0535 11.2816 13.1414 11.2992C13.2223 11.3168 13.2153 11.3766 13.2153 11.3801C13.2153 11.3801 13.1485 11.3801 13.0957 11.3977ZM13.3137 11.3836C13.3137 11.3836 13.4262 11.3625 13.4789 11.3695C13.4789 11.3695 13.4227 11.243 13.268 11.2816C13.268 11.2816 13.3242 11.352 13.3137 11.3836ZM13.5106 11.3555C13.5106 11.3555 13.5106 11.3133 13.609 11.2746C13.609 11.2746 13.5633 11.2289 13.493 11.2359C13.4192 11.2359 13.4016 11.2641 13.4016 11.2641C13.4016 11.2641 13.4895 11.2957 13.5106 11.352V11.3555ZM13.5457 11.2148C13.5457 11.2148 13.6125 11.2359 13.6512 11.2676C13.6512 11.2676 13.7074 11.2043 13.7567 11.1902C13.7567 11.1902 13.6617 11.141 13.5457 11.2184V11.2148Z" fill="#FFC221"/>
<path d="M10.336 10.909C10.336 10.909 10.6067 10.6805 10.7578 10.7086C10.909 10.7367 10.8352 10.7192 10.9969 10.691C11.1656 10.6664 11.3344 10.6489 11.4047 10.6559C11.4047 10.6559 11.2008 10.5153 10.8457 10.5153C10.8457 10.5153 10.5961 10.6031 10.4239 10.7192C10.4239 10.7192 10.0864 10.5328 9.74182 10.6418C9.74182 10.6418 10.118 10.7824 10.3395 10.909H10.336Z" fill="#5A3719"/>
<path d="M13.2047 11.3062L13.2504 11.2992C13.2504 11.2992 13.3242 11.3906 13.2715 11.3906C13.2258 11.3906 13.2398 11.3801 13.2363 11.3554C13.2308 11.3354 13.2183 11.318 13.2011 11.3062H13.2047ZM12.8636 11.3133C12.8636 11.3133 12.8355 11.3484 12.8883 11.3414C12.9515 11.3308 12.941 11.3414 13.0043 11.2957C13.0043 11.2957 13.05 11.25 13.1273 11.2781C13.1273 11.2781 13.1906 11.2992 13.2433 11.2746C13.2996 11.2465 13.3101 11.25 13.3383 11.25C13.3664 11.2535 13.3664 11.2605 13.4015 11.2324C13.4437 11.2043 13.507 11.2254 13.5492 11.1902C13.5914 11.1551 13.6441 11.1867 13.5492 11.1199C13.5492 11.1199 13.5281 11.0988 13.5316 11.0847C13.5316 11.0847 13.5668 11.0953 13.5984 11.1199C13.6265 11.1445 13.6687 11.1375 13.6793 11.1304C13.6793 11.1304 13.6863 11.0461 13.7672 10.9687C13.8515 10.8914 13.8515 10.8879 13.8023 10.8879C13.7531 10.8879 13.6722 10.8668 13.6441 10.8879C13.616 10.909 13.3734 11.0672 13.2293 11.0953C13.0886 11.1234 12.9586 11.1656 12.8636 11.3133ZM9.06677 10.4344C9.06677 10.4344 9.50623 10.5469 9.60115 10.5926C9.60115 10.5926 9.62576 10.5222 9.42537 10.466C9.42537 10.466 9.91052 10.4519 10.4168 10.684C10.4168 10.684 10.6629 10.473 11.4574 10.5363C11.4574 10.5363 11.4574 10.466 11.4644 10.4133C11.4644 10.4133 10.909 10.3957 10.3992 10.0863C10.3992 10.0863 9.93865 10.3113 9.06677 10.4379V10.4344ZM11.4926 10.6453C11.4679 10.1988 11.6332 10.1566 11.6332 10.1566C11.6332 10.1566 11.7176 10.1601 11.8019 10.1742C11.8019 10.1742 11.6683 10.3359 11.7035 10.6558C11.7035 10.6558 11.7176 10.7051 11.6051 10.7051C11.4926 10.7051 11.4961 10.6523 11.4961 10.6523L11.4926 10.6453Z" fill="#FFC221"/>
<path d="M11.6122 10.9406C11.6122 10.9406 11.5278 10.8563 11.5208 10.7578C11.5208 10.7578 11.5208 10.7332 11.6016 10.7332C11.686 10.7367 11.6965 10.7297 11.7176 10.7789C11.7352 10.8246 11.7879 10.9231 11.802 10.9371L11.6122 10.9406Z" fill="#5A3719"/>
<path d="M11.7914 10.7191C11.7832 10.6621 11.7797 10.6045 11.7809 10.5469C11.7879 10.3008 11.8266 10.3219 11.8442 10.3535H11.9321C11.9321 10.3535 11.8688 10.0723 11.7914 10.2375C11.7357 10.3608 11.7162 10.4973 11.7352 10.6313C11.7422 10.7051 11.7492 10.7508 11.7598 10.7789L11.7914 10.7191Z" fill="#FFC221"/>
<path d="M12.7547 10.7191C12.7547 10.7191 12.9164 10.7473 12.6668 10.8035C12.6668 10.8035 12.6774 11.1094 12.9727 10.8949C12.9727 10.8949 13.152 10.7824 13.2715 10.7367C13.2715 10.7367 13.3348 10.7191 13.3278 10.6699C13.3278 10.6699 13.3348 10.6137 13.2715 10.6277C13.2715 10.6277 13.2188 10.6277 13.1836 10.6172C13.1836 10.6172 13.1485 10.575 13.1274 10.5891C13.1028 10.6066 13.0465 10.5961 13.0922 10.6523C13.1344 10.7016 13.1485 10.6875 13.1696 10.6734C13.1906 10.6594 13.2856 10.6242 13.1977 10.7016C13.1098 10.7789 13.043 10.6558 13.0149 10.6312L12.7547 10.7191ZM11.9285 10.7543H11.8582C11.8582 10.7543 11.816 10.8105 11.7879 10.7191L11.7633 10.7789C11.7633 10.7789 11.8477 11.1058 11.9285 10.7543Z" fill="#5A3719"/>
<path d="M11.8266 10.3746C11.8266 10.3746 11.7879 10.5926 11.8371 10.7191L12.6281 10.7367C12.6281 10.7367 12.6176 10.5855 12.6281 10.3746H12.5156C12.5156 10.3746 12.4981 10.5504 12.5156 10.6558H12.4945C12.4945 10.6558 12.4805 10.5082 12.4945 10.3746H12.4031C12.4031 10.3746 12.3891 10.5363 12.3996 10.6558H12.382C12.382 10.6558 12.368 10.5152 12.382 10.3746H12.2942C12.2942 10.3746 12.2766 10.5187 12.2942 10.6558H12.2695C12.2695 10.6558 12.252 10.5117 12.2695 10.3746H12.1676C12.1676 10.3746 12.1465 10.5117 12.1676 10.6558H12.15C12.15 10.6558 12.1254 10.5187 12.15 10.3746H12.0481C12.0481 10.3746 12.027 10.5293 12.0481 10.6558H12.027C12.027 10.6558 12.0129 10.5082 12.0305 10.3746H11.9356C11.9356 10.3746 11.911 10.5047 11.9356 10.6558H11.911C11.911 10.6558 11.8969 10.5433 11.918 10.3746H11.8231H11.8266ZM12.6598 10.7648C12.6598 10.7648 12.6422 10.3781 12.7125 10.2797C12.7863 10.1812 12.8039 10.1988 12.9305 10.2797C13.057 10.3605 13.2188 10.4484 13.2469 10.4555C13.2715 10.466 13.3102 10.4766 13.3102 10.5469C13.3102 10.6172 13.3207 10.6383 13.2117 10.5469C13.1977 10.5363 13.1449 10.4906 13.1063 10.4766C13.0113 10.4484 13.1309 10.4976 13.166 10.5504C13.1942 10.5926 13.2223 10.5855 13.1449 10.6066C12.9816 10.6543 12.8198 10.7071 12.6598 10.7648Z" fill="#FFC221"/>
<path d="M12.9375 10.4871C12.9375 10.4871 12.8777 10.4168 12.9551 10.4027C13.0254 10.3852 13.0324 10.5152 13.0465 10.5926C13.057 10.6734 12.9551 10.5152 12.941 10.4906L12.9375 10.4871ZM12.832 10.8281C12.832 10.8281 12.7476 10.8598 12.8039 10.8844C12.8601 10.9125 13.0148 10.7824 12.9621 10.793C12.9058 10.8 12.832 10.8281 12.832 10.8281ZM12.948 10.7086C12.948 10.7086 13.0219 10.7016 13.0043 10.7332C12.9937 10.7684 12.9656 10.7473 12.9551 10.7367C12.941 10.7332 12.8918 10.7121 12.948 10.7086Z" fill="black"/>
<path d="M13.3488 10.6066C13.3488 10.6066 13.3664 10.7543 13.4929 10.793C13.4929 10.793 13.5703 10.8106 13.5527 10.7473L13.5316 10.6699C13.5211 10.6453 13.4683 10.6313 13.4613 10.6277C13.4578 10.6277 13.4508 10.6102 13.4859 10.6242C13.5211 10.6348 13.5246 10.6383 13.5211 10.6102C13.5211 10.5856 13.5 10.5961 13.4683 10.582C13.4578 10.575 13.4683 10.5645 13.4824 10.568C13.4965 10.568 13.5281 10.582 13.5281 10.5328C13.5281 10.5328 13.5351 10.5012 13.4965 10.5012C13.4543 10.5012 13.4578 10.4801 13.4683 10.4766C13.4824 10.4766 13.5246 10.5047 13.5386 10.452C13.5527 10.4027 13.4789 10.4344 13.4894 10.4063C13.5 10.3781 13.5527 10.4203 13.5527 10.3887C13.5597 10.3606 13.6019 10.3465 13.5281 10.3359C13.4965 10.3324 13.5281 10.3148 13.5633 10.3219C13.6054 10.3254 13.6301 10.2797 13.6511 10.2621C13.6793 10.2445 13.8094 10.1672 13.6301 10.1918C13.4543 10.2164 13.4015 10.3043 13.3945 10.3219C13.351 10.41 13.335 10.5093 13.3488 10.6066Z" fill="#FFC221"/>
<path d="M13.7601 10.7227C13.7847 10.7191 13.8058 10.7227 13.8128 10.7367C13.841 10.7965 13.7777 10.7789 13.739 10.8211C13.7003 10.8633 13.6968 10.8563 13.6476 10.8422C13.5949 10.8246 13.5773 10.7473 13.5773 10.7473C13.5703 10.7191 13.5914 10.7191 13.616 10.7227C13.616 10.7227 13.7039 10.7332 13.7601 10.7227ZM13.5703 10.691C13.5703 10.691 13.5703 10.7051 13.6054 10.7086C13.63 10.7086 13.7179 10.7191 13.7742 10.7016C13.7742 10.7016 13.7882 10.7016 13.7812 10.6664C13.7812 10.6664 13.7812 10.6418 13.7355 10.6524C13.6863 10.6594 13.6195 10.6524 13.5949 10.6488C13.5738 10.6418 13.5597 10.6488 13.5703 10.6875V10.691ZM13.5632 10.5856C13.5632 10.5856 13.5632 10.6277 13.6054 10.6348H13.7355C13.7566 10.6348 13.7882 10.6242 13.7917 10.5996C13.7917 10.568 13.8023 10.5504 13.7425 10.5645C13.6828 10.5785 13.616 10.568 13.6089 10.5645C13.6019 10.5645 13.5632 10.5539 13.5632 10.582V10.5856ZM13.5843 10.4871C13.5843 10.4871 13.5703 10.5117 13.5738 10.5293C13.5738 10.5504 13.6089 10.5609 13.6687 10.5609C13.7285 10.5609 13.7847 10.5504 13.7882 10.5293C13.7917 10.5082 13.8058 10.4836 13.7601 10.4941C13.7159 10.5012 13.6708 10.5012 13.6265 10.4941C13.6019 10.4836 13.5843 10.4801 13.5843 10.4871Z" fill="#FFC221"/>
<path d="M15.8273 10.7262C15.8273 10.7262 15.8273 10.7649 15.859 10.8106L14.1644 10.7613C14.1644 10.7613 14.1855 10.7473 14.1926 10.6805L15.8273 10.7262Z" fill="#5A3719"/>
<path d="M13.5985 10.4203C13.5985 10.4203 13.5844 10.4625 13.6125 10.4695C13.6407 10.4801 13.6934 10.4871 13.7637 10.4765C13.7637 10.4765 13.7989 10.4765 13.8094 10.4414C13.8235 10.4062 13.82 10.4238 13.725 10.4062C13.725 10.4062 13.6934 10.3957 13.7813 10.3957C13.7813 10.3957 13.834 10.3957 13.8375 10.3887C13.8481 10.3816 13.9149 10.3254 13.827 10.3324C13.7426 10.3324 13.7848 10.3148 13.827 10.3148C13.8727 10.3148 13.8833 10.3254 13.8973 10.3148C13.9114 10.3043 13.8973 10.3078 13.8762 10.2832C13.8551 10.2586 13.8692 10.2656 13.8868 10.2832C13.9043 10.2937 13.9149 10.2973 13.9325 10.2832C13.9536 10.2621 13.9184 10.2375 13.9325 10.241C13.9465 10.241 13.9571 10.2726 14.0098 10.248C14.0696 10.2164 14.1434 10.2305 14.1645 10.248C14.1821 10.2621 14.2418 10.2832 14.277 10.248C14.3122 10.2129 14.2348 10.1777 14.2665 10.1777C14.3016 10.1707 14.3227 10.1848 14.3368 10.1566C14.3508 10.1285 14.284 10.1074 14.3473 10.0863C14.4071 10.0723 14.3543 9.89999 14.3368 9.88593C14.3368 9.88593 14.2665 9.9246 14.1926 10.0441C14.1153 10.1672 14.0696 10.241 13.9676 10.2023C13.827 10.1461 13.7461 10.2269 13.7215 10.2375C13.6864 10.2621 13.7989 10.2726 13.7321 10.2726C13.6688 10.2726 13.6688 10.2797 13.6618 10.2902C13.6583 10.2973 13.6618 10.3078 13.6758 10.3113C13.6864 10.3113 13.711 10.3324 13.6723 10.3324C13.6301 10.3324 13.602 10.3254 13.6161 10.3676C13.6161 10.3676 13.6161 10.3746 13.6372 10.3781C13.6618 10.3781 13.6723 10.4062 13.6266 10.4062C13.5985 10.4062 13.5985 10.4168 13.5985 10.4203ZM13.7532 10.8422C13.7532 10.8422 13.725 10.8633 13.7637 10.8668C13.8059 10.8668 13.827 10.8773 13.8411 10.8562C13.8551 10.8351 13.9114 10.8422 13.8762 10.8105C13.834 10.7789 13.8094 10.7965 13.7532 10.8457V10.8422Z" fill="#FFC221"/>
<path d="M13.9289 10.3324C13.9289 10.3324 14.0696 10.1988 14.1856 10.2902L14.3192 10.3957C14.3192 10.3957 14.3332 10.4062 14.3016 10.4344C14.2664 10.466 14.3016 10.466 14.3368 10.4449C14.3719 10.4273 14.3719 10.4449 14.3895 10.466C14.4071 10.4836 14.4317 10.4941 14.3754 10.4941H14.2032C14.2032 10.4941 14.1258 10.5012 14.168 10.466C14.2032 10.4344 14.1961 10.3957 14.1786 10.3957C14.1575 10.3957 14.1786 10.4168 14.1645 10.4308C14.1504 10.4449 14.1258 10.459 14.0942 10.459C14.0625 10.459 14.045 10.4801 14.0872 10.4941C14.1329 10.5117 14.0836 10.5223 14.059 10.5223C14.0344 10.5223 13.9289 10.5293 14.0379 10.5433C14.1504 10.5574 14.0274 10.5539 14.1082 10.5996C14.2032 10.6523 14.1364 10.7613 14.1012 10.7719C14.1012 10.7719 14.0661 10.793 14.1118 10.7859C14.161 10.7789 14.1856 10.7754 14.1504 10.8C14.1188 10.8281 14.052 10.909 13.9606 10.8457C13.9606 10.8457 13.9149 10.8281 13.9922 10.8211C14.0696 10.8211 13.9289 10.8 13.9043 10.7859C13.8832 10.7719 13.7989 10.6805 13.8516 10.691C13.9079 10.7015 13.8868 10.6699 13.8516 10.6594C13.82 10.6488 13.8164 10.5996 13.8516 10.6066C13.8868 10.6207 13.9289 10.6418 13.9606 10.6383C13.9922 10.6383 13.9817 10.6242 13.9184 10.6066C13.8551 10.5855 13.8305 10.582 13.8446 10.5293C13.8586 10.4765 13.9289 10.5504 13.9149 10.5117C13.8973 10.4695 13.834 10.4906 13.8657 10.4414C13.8973 10.3922 13.9079 10.4098 13.9219 10.4168C13.936 10.4203 13.9571 10.4168 13.9219 10.3887C13.8903 10.3676 13.9219 10.3394 13.9289 10.3324Z" fill="#FFC221"/>
<path d="M14.0273 10.3711C14.0273 10.3711 14.0273 10.3535 14.0555 10.3571C14.0801 10.3571 14.073 10.3465 14.0801 10.3395C14.0871 10.3395 14.1504 10.3606 14.0906 10.3817C14.0695 10.3887 14.0344 10.3817 14.0309 10.3711H14.0273Z" fill="black"/>
<path d="M14.1679 10.5187C14.1679 10.5187 14.1187 10.5433 14.1609 10.5926C14.196 10.6383 14.196 10.6523 14.196 10.6805C14.1925 10.7086 15.8273 10.7262 15.8273 10.7262C15.8273 10.7262 15.8238 10.6207 15.8906 10.5609L14.1679 10.5187Z" fill="#FFC221"/>
<path d="M15.8519 10.698C15.8519 10.698 15.859 10.6066 15.9082 10.5785C15.9363 10.5609 15.9715 10.5715 15.9855 10.6418C16.0101 10.7437 15.9222 10.8316 15.8836 10.793C15.8484 10.7578 15.8554 10.698 15.8554 10.698H15.8519Z" fill="#5A3719"/>
<path d="M13.9781 11.0777C13.9781 11.0777 14.0871 10.9828 14.1047 10.9441C14.1047 10.9441 14.4 11.1551 14.3824 10.9617C14.3824 10.9617 14.3824 10.909 14.3894 10.8598C14.3894 10.8598 14.4949 10.8738 14.5125 10.7895L14.2383 10.7789C14.2383 10.7789 14.2101 10.7719 14.168 10.8176C14.1258 10.8633 14.0379 10.9125 13.957 10.8703C13.957 10.8703 13.9219 10.8422 13.8867 10.8668C13.8515 10.8914 13.8515 10.8949 13.8797 10.9231C13.9078 10.9512 13.9676 11.032 13.9781 11.0777ZM14.6109 10.5012L14.4492 10.4977C14.4492 10.4977 14.393 10.4133 14.2769 10.3219C14.2769 10.3219 14.2418 10.3078 14.3051 10.2551C14.3754 10.2024 14.393 10.1496 14.393 10.1215C14.393 10.1004 14.393 10.0582 14.4176 10.0863C14.4387 10.118 14.6039 10.2691 14.6285 10.227C14.6531 10.1813 14.6601 10.1602 14.6601 10.1461C14.6672 10.132 14.6707 10.0899 14.6953 10.1356C14.7199 10.1777 14.734 10.1672 14.7375 10.2762C14.7375 10.2762 14.7375 10.3922 14.7586 10.4309C14.7586 10.4309 14.5476 10.3641 14.6144 10.5012H14.6109ZM13.9148 10.1566C13.9148 10.1566 14.0379 10.227 14.0976 10.1356C14.1539 10.0441 14.1961 10.0301 14.1504 9.93516C14.1047 9.85079 14.1504 9.8086 14.1855 9.76993C14.2207 9.73477 14.2523 9.7418 14.2558 9.59415C14.2594 9.45352 14.3613 9.40782 14.4035 9.36212C14.4492 9.31993 14.5582 9.25313 14.3894 9.22149C14.2242 9.19688 13.8867 9.10899 13.8023 8.97891C13.7144 8.84884 13.6758 8.92618 13.6758 8.92969C13.6758 8.93673 13.6476 9.03165 13.732 9.20391C13.8164 9.37618 13.8902 9.48516 13.9781 9.54141C14.059 9.60118 14.1328 9.6293 14.0906 9.74532C14.0484 9.86134 13.9781 10.0652 13.9148 10.1602V10.1566Z" fill="#7B3C20"/>
<path d="M14.3684 9.79103C14.3684 9.79103 14.3859 10.0899 14.6039 10.1953C14.6039 10.1953 14.6531 10.0793 14.632 9.96329C14.632 9.96329 14.7024 9.97032 14.7234 10.002C14.7234 10.002 14.7234 9.91759 14.625 9.88595C14.5195 9.85431 14.5723 9.66095 14.6074 9.63986C14.6426 9.61876 14.632 9.57657 14.6074 9.54142C14.5828 9.50626 14.5793 9.45704 14.6637 9.47814C14.7481 9.49923 14.734 9.45704 14.6813 9.41485C14.632 9.37267 14.6356 9.31993 14.7059 9.31993C14.7762 9.31993 14.8992 9.24962 14.8254 9.22853C14.7551 9.20743 14.7305 9.18282 14.8254 9.15821C14.9274 9.12306 14.9766 9.09142 14.9027 9.08439C14.8254 9.07384 14.7762 9.04923 14.85 9.03868C14.9203 9.02462 14.8395 8.95079 14.7551 8.94728C14.6672 8.94376 14.4914 8.9754 14.632 8.8629C14.7727 8.7504 14.4316 8.83478 14.5723 8.75743C14.7129 8.68712 14.5231 8.71525 14.4949 8.71525C14.4703 8.71525 14.4703 8.71525 14.4809 8.68009C14.4914 8.64142 14.4633 8.62032 14.4176 8.64493C14.3789 8.66954 14.3789 8.66954 14.3824 8.61681C14.3824 8.56407 14.3332 8.60275 14.3016 8.61681C14.2664 8.63087 14.1926 8.68712 14.1574 8.659C14.1293 8.62384 14.1117 8.5922 14.0168 8.64845C13.9149 8.70821 13.9395 8.659 13.943 8.63087C13.943 8.60275 13.9781 8.50431 13.8481 8.61329C13.718 8.72228 13.8199 8.49728 13.718 8.5711C13.6125 8.64845 13.602 8.66251 13.5844 8.63087C13.5703 8.59571 13.5492 8.56759 13.4332 8.64142C13.3172 8.71173 13.4051 8.59571 13.4191 8.5711C13.4367 8.54298 13.4859 8.37775 13.384 8.50782C13.384 8.50782 13.3348 8.59923 13.2258 8.43751C13.2258 8.43751 13.1133 8.59923 13.0816 8.5254C13.05 8.45509 13.0219 8.44806 12.9832 8.49376C12.9481 8.53946 12.9727 8.49376 12.9586 8.45157C12.941 8.41642 12.9305 8.34259 12.7371 8.4797C12.5473 8.62384 12.8074 8.52189 12.6598 8.58517C12.5121 8.64845 12.157 8.84884 12.4805 8.80314C12.8074 8.75743 12.3223 8.9297 12.4348 8.96134C12.5473 8.99298 12.5121 9.09142 12.9375 8.9754C13.3594 8.85939 13.2891 8.95782 13.507 8.8629C13.725 8.7715 13.4578 8.89454 13.7461 8.89103C14.0379 8.88048 13.7953 8.89103 13.8516 8.94728C13.9113 9.00704 14.1539 9.14767 14.3789 9.17579C14.6109 9.19689 14.6672 9.11251 14.6039 9.21095C14.5336 9.30939 14.5125 9.34806 14.4738 9.38673C14.4387 9.41485 14.3262 9.49571 14.3227 9.63282C14.3227 9.76993 14.1469 9.79103 14.2102 9.94571L14.3684 9.79103Z" fill="#5A3719"/>
<path d="M14.7446 10.125C14.7446 10.125 14.6918 10.0863 14.6918 10.0195C14.6918 10.0195 14.727 10.0266 14.7446 10.0477C14.7446 10.0477 14.8746 9.9 14.7129 9.84727C14.5582 9.79102 14.6356 9.65039 14.6918 9.65039C14.7446 9.65039 14.7551 9.63633 14.7094 9.57305C14.6637 9.5168 14.6672 9.50977 14.7586 9.49571C14.843 9.48164 14.836 9.46055 14.7938 9.43946C14.7675 9.4245 14.7438 9.40552 14.7235 9.3832C14.7235 9.3832 14.9766 9.27422 14.8957 9.22149C14.8114 9.17227 14.8957 9.18633 14.966 9.1336C15.0434 9.08086 15.0539 9.07031 15.061 9.04922C15.061 9.04922 14.9907 9.05625 14.9344 9.04922C14.9344 9.04922 14.9977 9.01406 14.9344 8.96133C14.8711 8.9086 14.85 8.86641 14.7446 8.89102C14.6461 8.91211 14.6813 8.88047 14.7164 8.83828C14.7586 8.7961 14.741 8.77149 14.6672 8.76094C14.6672 8.76094 14.6778 8.71875 14.7305 8.66602C14.7305 8.66602 14.5934 8.67656 14.5477 8.65196C14.5477 8.65196 14.6039 8.6168 14.6039 8.56758C14.6039 8.56758 14.5336 8.5957 14.4352 8.58516C14.4352 8.58516 14.4949 8.53594 14.4949 8.49375C14.4949 8.49375 14.3262 8.52891 14.2489 8.58867C14.2489 8.58867 14.2348 8.58867 14.2242 8.56758C14.2102 8.55352 14.1996 8.53242 14.0168 8.58867C14.0168 8.58867 14.0379 8.50781 14.0836 8.47266C14.1258 8.44453 14.1188 8.38125 13.8375 8.55703C13.8375 8.55703 13.7989 8.53594 13.7672 8.45156C13.7672 8.45156 13.7039 8.53594 13.6582 8.56406C13.6582 8.56406 13.616 8.58164 13.6231 8.52891C13.6301 8.46914 13.5949 8.50781 13.5668 8.52891C13.5387 8.53946 13.5176 8.58164 13.5317 8.46914C13.5457 8.35664 13.4895 8.33203 13.4895 8.33203C13.4895 8.33203 13.4051 8.4586 13.3524 8.47266C13.3524 8.47266 13.261 8.38125 13.2258 8.32149C13.1942 8.26524 13.1942 8.24063 13.1625 8.3461C13.1274 8.45156 13.0922 8.4586 13.0922 8.4586C13.0922 8.4586 13.0324 8.40938 13.0254 8.38125C13.0254 8.38125 13.0184 8.41289 12.9973 8.42344C12.9973 8.42344 12.9481 8.36367 12.9516 8.28281C12.9516 8.28281 12.6457 8.45156 12.6071 8.55352C12.6071 8.55352 12.3188 8.53594 12.2028 8.55703C12.2028 8.55703 12.2309 8.46563 12.3082 8.41641C12.3082 8.41641 12.2309 8.40938 12.2274 8.33203C12.2274 8.33203 12.2871 8.33906 12.3258 8.33203C12.361 8.32149 12.2731 8.2125 12.368 8.20899C12.4629 8.20899 12.5227 8.25469 12.484 8.12813C12.4383 8.00156 12.4559 8.00156 12.4559 8.00156C12.4559 8.00156 12.6246 8.1 12.6492 8.07188C12.6774 8.05078 12.6282 8.00156 12.7758 8.02266C12.9235 8.05078 12.8813 7.96641 12.941 7.95938C12.9973 7.95938 13.0254 7.99453 12.9903 7.73086C12.9551 7.46719 13.1696 7.86094 13.0254 7.46016C13.0254 7.46016 12.9903 7.33711 12.8989 7.28438C12.8989 7.28438 12.8778 7.37227 12.7828 7.29844C12.6809 7.21758 12.4875 7.19297 12.5719 7.12969C12.6528 7.06641 12.6914 6.98906 12.6668 6.93633C12.6668 6.93633 12.5684 7.03477 12.4032 6.96446C12.2696 6.90469 12.2414 7.01016 12.1078 6.98203C12.1078 6.98203 12.1078 6.94688 12.2203 6.85547C12.3364 6.76406 12.1571 6.8836 12.0867 6.90117C12.0164 6.91875 11.9953 6.90117 12.143 6.78516C12.2942 6.66914 12.593 6.46875 12.5508 6.29649C12.5508 6.29649 12.6211 6.38789 12.8074 6.3211C12.9903 6.25781 13.1309 6.23321 13.1836 6.13477C13.2399 6.04336 13.384 5.94844 13.4227 5.92383C13.4614 5.90274 13.5106 5.88867 13.4543 5.98008C13.3946 6.07149 13.3032 6.22617 13.05 6.33164C12.7934 6.43711 12.6985 6.51094 12.6492 6.57071C12.6035 6.62344 12.368 6.74649 12.5227 6.72891C12.6739 6.7043 12.934 6.72891 12.811 6.69375C12.6914 6.6586 12.5508 6.71485 12.6633 6.61289C12.7758 6.51094 12.7969 6.4793 12.9586 6.40899C13.1239 6.33867 13.3032 6.18399 13.2856 6.35274C13.268 6.51446 12.9621 6.69375 12.8883 6.74649C12.8145 6.80274 12.8426 6.79571 12.8426 6.8168C12.8426 6.83789 12.8321 6.8836 12.8004 6.90117C12.7688 6.92227 12.7793 6.94688 12.7864 6.99258C12.7969 7.0418 12.7793 7.05938 12.8004 7.06641C12.825 7.07344 12.8461 7.07696 12.8532 7.1086C12.8637 7.14375 12.8778 7.14727 12.9235 7.14375C12.9657 7.14024 12.9938 7.14375 12.9938 7.17188C13.0008 7.19649 13.043 7.23164 13.0465 7.1543C13.05 7.07344 13.0817 7.05938 13.0008 7.09453C12.9199 7.12969 12.9024 7.11914 12.9059 7.08047C12.9059 7.04531 12.8953 7.05235 12.8637 7.04883C12.8285 7.04883 12.818 6.99961 12.8778 6.96797C12.9375 6.93633 12.9375 6.96797 13.0114 6.90469C13.0852 6.84141 13.0852 6.82735 13.0992 6.79922C13.1098 6.76758 12.9938 6.8836 12.934 6.90821C12.8778 6.93633 12.8953 6.89063 12.9059 6.82735C12.9129 6.76406 13.0535 6.67617 13.1168 6.67617C13.1836 6.67617 13.3278 6.71133 13.268 6.80274C13.2047 6.89063 13.0254 6.9961 13.0992 7.00313C13.1766 7.01016 13.1907 6.98203 13.2364 7.01719C13.2785 7.05938 13.2364 7.14024 13.2188 7.18242C13.1986 7.22324 13.1698 7.25922 13.1344 7.28789C13.1344 7.28789 13.0535 7.14024 13.0571 7.25625C13.0571 7.37227 13.0395 7.41094 13.0571 7.41446C13.0746 7.42149 13.1625 7.48125 13.1907 7.48125C13.2188 7.48125 13.036 7.56563 13.1133 7.57266C13.1907 7.57969 13.3172 7.5375 13.3594 7.45664C13.3594 7.45664 13.1977 7.42149 13.1379 7.36172C13.1379 7.36172 13.3172 7.31953 13.268 7.14375C13.268 7.14375 13.4508 7.19297 13.3735 7.27735C13.2926 7.35821 13.2434 7.34766 13.3137 7.36875C13.384 7.38985 13.4121 7.41094 13.4121 7.41094C13.4121 7.41094 13.4614 7.43555 13.4332 7.47071C13.4051 7.51289 13.4051 7.56914 13.4332 7.56563C13.4508 7.56563 13.5282 7.53047 13.4684 7.49531C13.3981 7.45313 13.5387 7.46016 13.4789 7.425C13.4227 7.38985 13.4051 7.38633 13.391 7.36875C13.3735 7.35469 14.1293 6.91172 13.7461 7.07696C13.7461 7.07696 13.827 6.90117 13.9395 6.90117C14.0449 6.90117 14.0555 6.98906 13.9957 7.05938C13.9289 7.12617 13.8903 7.23164 13.7426 7.25274C13.7426 7.25274 13.9535 7.35821 13.7039 7.52696C13.7039 7.52696 13.6477 7.55156 13.6688 7.56914C13.6899 7.59024 13.8375 7.50586 13.8586 7.45664C13.8789 7.40634 13.918 7.36596 13.9676 7.34414C14.0239 7.31602 14.3051 7.12617 14.3895 6.98203C14.4739 6.84141 14.4949 6.83789 14.6567 6.7043C14.8184 6.57071 14.7938 6.59883 14.8149 6.56719C14.836 6.53555 14.843 6.48281 14.9203 6.44063C14.9907 6.39844 15.286 6.23672 15.3774 6.16992C15.4688 6.10313 15.6586 5.98008 15.736 5.87813C15.8168 5.77617 16.0348 5.6461 16.0875 5.66719C16.1438 5.69531 16.0875 5.77266 15.9574 5.86758C15.8274 5.9625 15.5145 6.21914 15.4617 6.26133C15.3339 6.36351 15.1918 6.44642 15.0399 6.50742C14.9414 6.52149 14.952 6.55664 14.8922 6.62344C14.8324 6.69024 14.6918 6.82383 14.6461 6.85899C14.6004 6.90117 14.4879 6.975 14.4809 7.03125C14.4774 7.08399 14.502 7.09102 14.4106 7.17188C14.2783 7.29605 14.1277 7.3992 13.9641 7.47774C13.9641 7.47774 14.1328 7.53399 14.0344 7.65C13.9324 7.7625 13.9395 7.74492 13.9324 7.75547C13.9324 7.75547 14.1856 7.71328 14.0098 7.91367C14.0098 7.91367 13.9711 7.97344 14.052 7.91367C14.1364 7.84336 14.1012 7.75899 14.0907 7.74844C14.0907 7.74844 14.2278 7.66055 14.386 7.66055C14.5407 7.66055 14.5336 7.64649 14.393 7.60781C14.393 7.60781 14.4949 7.48477 14.5758 7.54805C14.6637 7.6043 14.6356 7.64297 14.5477 7.68867C14.4563 7.73789 14.3262 7.75196 14.2313 7.80821C14.2313 7.80821 14.4141 7.84336 14.5125 7.76953C14.611 7.69219 14.618 7.73086 14.6285 7.74492C14.6426 7.75899 14.6532 7.78008 14.611 7.84688C14.5653 7.91016 14.5617 7.91016 14.5653 7.92422C14.5653 7.9418 14.5582 7.98399 14.4703 7.99453C14.386 8.01211 14.3403 8.05078 14.3719 8.09297C14.4 8.13516 14.4 8.23711 14.3262 8.23008C14.2524 8.21953 14.2699 8.15977 14.2418 8.13516C14.2137 8.11406 14.1715 8.07891 14.0379 8.1457C13.9043 8.21602 13.8973 8.13164 13.9008 8.08594C13.9008 8.08594 13.8164 8.16328 13.7426 8.09649C13.6723 8.02617 13.7356 7.99805 13.7778 7.96289C13.8199 7.92774 13.9887 7.85391 13.8867 7.86797C13.7813 7.87852 13.6336 7.88555 13.602 7.81172C13.5633 7.73086 13.6723 7.74141 13.6934 7.74844C13.711 7.75196 13.7778 7.81172 13.7848 7.73789C13.7848 7.65703 13.8973 7.65 13.8586 7.63242C13.8235 7.62188 13.7672 7.66758 13.7532 7.68867C13.7532 7.68867 13.6758 7.57969 13.5492 7.61133C13.4227 7.65 13.5879 7.63594 13.6196 7.64297C13.6547 7.64649 13.6336 7.71328 13.5211 7.81524C13.4086 7.91367 13.4578 7.88555 13.5422 7.88555C13.6301 7.88555 13.834 7.88555 13.718 7.98047C13.5949 8.08242 13.5457 8.12813 13.486 8.11406C13.4227 8.09649 13.4895 8.0543 13.5211 8.03321C13.5492 8.01914 13.5633 7.9875 13.5035 8.01211C13.4438 8.0332 13.4262 8.03672 13.377 7.95586C13.3313 7.86797 13.3489 7.8961 13.3699 7.83985C13.391 7.7836 13.4367 7.72735 13.3805 7.74844C13.3242 7.76953 13.3313 7.76953 13.3348 7.70625C13.3383 7.64297 13.2715 7.62891 13.2715 7.62891C13.2715 7.62891 13.3032 7.69219 13.275 7.73438C13.2539 7.77305 13.2504 7.78711 13.2891 7.79766C13.3313 7.80821 13.3664 7.84336 13.3137 7.87852C13.2574 7.91367 13.268 7.91016 13.2996 7.93125C13.3348 7.95586 13.384 7.98047 13.3313 8.03321C13.2785 8.08242 13.3207 8.06836 13.3489 8.06836C13.377 8.06836 13.4332 8.08946 13.4332 8.13867C13.4332 8.19141 13.4332 8.20196 13.5176 8.15625C13.602 8.10703 13.7707 8.11406 13.7707 8.17735C13.7672 8.24766 13.7461 8.26524 13.841 8.20547C13.9289 8.14922 13.9676 8.2582 14.0309 8.20547C14.0907 8.15274 14.1328 8.1 14.2067 8.19141C14.277 8.28281 14.2524 8.30742 14.1645 8.37422C14.0801 8.4375 14.2102 8.38828 14.2735 8.35313C14.3367 8.31797 14.5266 8.29688 14.6356 8.3461C14.741 8.3918 14.7727 8.38125 14.8465 8.3461C14.9309 8.31797 14.9696 8.31094 15.0891 8.38828C15.1682 8.44762 15.2644 8.47969 15.3633 8.47969C15.3633 8.47969 15.2332 8.53242 15.0821 8.53945C14.9344 8.55352 14.8571 8.57461 14.8289 8.59922C14.8289 8.59922 14.9168 8.65899 14.9344 8.72227C14.9344 8.72227 15.0328 8.7082 15.0785 8.72578C15.0785 8.72578 15.0574 8.7961 15.1137 8.83477C15.177 8.87344 15.2192 8.8875 15.1735 8.94024C15.1278 8.99297 15.2438 8.96836 15.177 9.03867C15.1137 9.11602 15.0961 9.14766 15.0926 9.21094C15.0926 9.26719 15.1067 9.27422 15.0504 9.28125C14.9942 9.28828 15.061 9.35156 15.0328 9.43242C15.0082 9.50274 14.8465 9.49571 14.8535 9.70313C14.8535 9.70313 14.8992 9.60469 14.9942 9.51328C15.0891 9.42891 15.0926 9.41836 15.0891 9.36563C15.0891 9.31289 15.0856 9.32344 15.1383 9.28477C15.184 9.24258 15.1137 9.20742 15.1664 9.14766C15.2157 9.09141 15.1699 9.10195 15.2332 9.0457C15.2895 8.98945 15.177 8.98242 15.2403 8.92266C15.2965 8.86641 15.0891 8.79258 15.1524 8.75742C15.2121 8.71875 15.3141 8.6625 14.966 8.66953C14.966 8.66953 15.0504 8.52891 15.3422 8.56055C15.3422 8.56055 15.2719 8.6168 15.2614 8.66953L15.3176 8.69414C15.3176 8.69414 15.3035 8.73281 15.2473 8.77852C15.2473 8.77852 15.4055 8.86641 15.4301 8.91914C15.4301 8.91914 15.3352 8.94727 15.3106 8.98945C15.3106 8.98945 15.3528 9.03867 15.3668 9.09492C15.3668 9.09492 15.2614 9.08438 15.2473 9.16524C15.2332 9.24258 15.2016 9.18985 15.2016 9.23555C15.2016 9.28125 15.2016 9.30235 15.1664 9.30938C15.1313 9.31641 15.1594 9.35508 15.1664 9.37969C15.1699 9.40781 15.184 9.46758 15.1805 9.48516C15.1805 9.48516 15.1242 9.48516 15.0996 9.49219C15.0996 9.49219 15.1172 9.60821 15.0539 9.62227C14.9907 9.63985 15.0891 9.66446 15.0188 9.675C14.952 9.68555 14.9625 9.69258 14.8782 9.84024C14.8782 9.84024 14.9485 9.80156 15.0188 9.75235C15.0961 9.70313 15.0188 9.71719 15.1383 9.60117C15.2578 9.47813 15.2367 9.4711 15.2262 9.41133C15.2157 9.35156 15.2157 9.30235 15.2578 9.24258C15.3035 9.18633 15.3141 9.11953 15.4723 9.13008C15.4723 9.13008 15.4266 9.02461 15.3668 9C15.3668 9 15.4442 8.94727 15.5215 8.94375C15.5215 8.94375 15.4512 8.85586 15.3106 8.77852C15.3106 8.77852 15.4266 8.67656 15.4547 8.63086C15.4547 8.63086 15.402 8.64141 15.3563 8.63086C15.3563 8.63086 15.3774 8.58516 15.4828 8.51485C15.4828 8.51485 15.5426 8.56758 15.5356 8.62383C15.5356 8.62383 15.7184 8.52188 15.8168 8.53594C15.8168 8.53594 15.8696 8.6625 15.6199 8.90508C15.6199 8.90508 15.7746 8.91914 15.8414 8.91211C15.8414 8.91211 15.8063 9.02813 15.6164 9.09844C15.4301 9.16875 15.6551 9.25313 15.4653 9.23906C15.2754 9.225 15.3317 9.28828 15.3387 9.3832C15.3422 9.48164 15.3492 9.5836 15.3457 9.6082C15.3457 9.6082 15.1946 9.55899 15.1981 9.70664C15.1981 9.8543 15.1172 9.88594 15.1032 9.9C15.1032 9.9 15.0574 9.86485 14.9907 9.83672C14.9907 9.83672 14.8957 10.016 14.7446 10.1215V10.125Z" fill="#5A3719"/>
<path d="M14.5265 8.26873C14.5265 8.26873 14.5757 8.2617 14.6671 8.31795C14.7515 8.3742 14.8394 8.25818 14.7445 8.23006C14.6425 8.20193 14.7445 8.16326 14.8289 8.23709C14.9203 8.3074 14.9554 8.27225 14.9871 8.24764C15.0222 8.22303 15.0574 8.20545 14.9976 8.16678C14.9378 8.12459 15.0398 8.14568 15.0855 8.17733C15.1312 8.20545 15.1136 8.23357 15.1066 8.24061C15.0996 8.25115 15.0961 8.34607 15.1839 8.25818C15.2753 8.16678 15.3211 8.07889 15.3175 8.03318C15.3175 8.03318 15.3668 8.06483 15.3738 8.12108C15.3808 8.17733 15.4511 8.09295 15.4722 8.06131C15.4968 8.03318 15.532 7.95233 15.5285 7.89256C15.5285 7.89256 15.5882 7.98748 15.6796 7.89256C15.7675 7.80115 15.7324 7.8574 15.8378 7.82928C15.9596 7.79634 16.0694 7.72924 16.1543 7.63592C16.2281 7.54451 16.2351 7.60779 16.33 7.58318C16.425 7.55858 16.6148 7.4285 16.6324 7.35467C16.65 7.28436 16.6464 7.23865 16.6218 7.26678C16.5937 7.28787 16.6043 7.26678 16.5656 7.24568C16.5199 7.21756 16.4601 7.27733 16.4601 7.27733C16.4601 7.27733 16.5199 7.32303 16.4742 7.34412C16.4285 7.3617 16.3898 7.4285 16.2984 7.40037C16.214 7.37576 16.1226 7.48475 16.1226 7.48475C16.1226 7.48475 16.2 7.54451 16.0945 7.58318C15.9961 7.62537 16.0101 7.63592 15.9503 7.59373C15.9503 7.59373 15.8414 7.73084 15.7746 7.75897C15.7746 7.75897 15.75 7.75897 15.7324 7.73084C15.7324 7.73084 15.6621 7.8117 15.6269 7.82576C15.6269 7.82576 15.5777 7.78358 15.539 7.76951C15.539 7.76951 15.4511 7.87498 15.3808 7.91014C15.3808 7.91014 15.3597 7.86795 15.314 7.83983C15.314 7.83983 15.2929 7.98045 15.1418 8.06131C15.1418 8.06131 15.1523 8.02615 15.075 7.97342C15.075 7.97342 14.8886 8.13514 14.8183 8.15272C14.7445 8.16678 14.8078 8.11756 14.8183 8.09647C14.8289 8.07537 14.8746 8.00858 14.7832 7.98045C14.6918 7.95233 14.7128 8.00154 14.6918 8.00858C14.6707 8.01912 14.6707 7.991 14.6074 8.00154C14.5511 8.00858 14.5582 8.0367 14.5336 8.04725C14.5054 8.05428 14.4 8.02967 14.407 8.09647C14.414 8.16678 14.4632 8.216 14.3718 8.25467C14.2769 8.29686 14.407 8.28983 14.5265 8.26873Z" fill="#7B3C20"/>
<path d="M14.9027 8.07537C14.9027 8.07537 14.9238 7.98396 14.8464 7.94177C14.8464 7.94177 15.3386 7.86443 14.966 7.67459C14.966 7.67459 15.4125 7.58669 15.307 7.44607C15.2015 7.30544 15.096 7.33005 15.0855 7.33709C15.0714 7.33709 15.1804 7.25271 15.2085 7.26677C15.2367 7.27732 15.5953 7.41091 15.5003 7.2949C15.4125 7.17888 15.4195 7.18591 15.4054 7.15076C15.4054 7.15076 15.5214 7.15076 15.7007 7.32302C15.7007 7.32302 15.7359 7.28787 15.7359 7.21404C15.7359 7.21404 15.8589 7.24919 15.9011 7.28787C15.9011 7.28787 15.9222 7.24568 15.9117 7.21755C15.9117 7.21755 16.0242 7.27732 16.0628 7.3406C16.0628 7.3406 16.1121 7.29841 16.1191 7.24568C16.1191 7.24568 16.2281 7.29138 16.2597 7.32654C16.2597 7.32654 16.2949 7.27732 16.2808 7.21052C16.2808 7.21052 16.4601 7.26326 16.4882 7.15427C16.4882 7.15427 16.6675 7.18943 16.5515 7.25974C16.3968 7.35466 16.5339 7.23865 16.3757 7.34763C16.2562 7.43552 16.1894 7.53396 16.1296 7.51287C16.0875 7.49529 16.0347 7.61834 15.9785 7.56209C15.9222 7.4988 15.9222 7.52693 15.8765 7.59021C15.8454 7.63669 15.8101 7.68023 15.771 7.72029C15.771 7.72029 15.7429 7.70271 15.7148 7.67459C15.7148 7.67459 15.6796 7.73435 15.6375 7.78005C15.6375 7.78005 15.6023 7.73084 15.5425 7.70271C15.5425 7.70271 15.4511 7.80818 15.3984 7.84334C15.3984 7.84334 15.3421 7.7906 15.2894 7.77302C15.2894 7.77302 15.2789 7.91365 15.1699 7.98396C15.1699 7.98396 15.1488 7.94177 15.075 7.91365C15.075 7.91365 15.0222 7.99802 14.9027 8.07185V8.07537Z" fill="#5A3719"/>
<path d="M14.6425 7.8574C14.6425 7.8574 14.5828 7.9031 14.6214 7.95232C14.6601 8.00154 14.6636 7.94177 14.7128 7.94177C14.7621 7.93474 15.3667 7.82927 14.8183 7.66755C14.8183 7.66755 14.8394 7.64294 14.9343 7.63943C15.0292 7.62537 15.3738 7.53396 15.2156 7.41091C15.0539 7.29138 14.9167 7.4531 15.0539 7.30544C15.1593 7.18943 15.075 7.13318 15.075 7.13318L14.6882 7.3863C14.6179 7.42146 14.5125 7.50232 14.6355 7.53748C14.755 7.57263 14.8359 7.4074 14.8464 7.44607C14.857 7.48123 14.6039 7.62185 14.6425 7.68865C14.6777 7.75193 14.6707 7.80818 14.7304 7.79412C14.7937 7.78357 14.9625 7.82576 14.8253 7.82224C14.6882 7.81521 14.6425 7.8574 14.6425 7.8574Z" fill="#5A3719"/>
<path d="M14.8606 7.55157C14.8606 7.55157 14.8043 7.59376 14.8782 7.57266C14.952 7.55157 15.0997 7.51993 15.075 7.48477C15.0434 7.44259 14.9485 7.48829 14.8641 7.55509L14.8606 7.55157Z" fill="black"/>
<path d="M15.8344 6.92228C15.8344 6.92228 16.1156 6.91174 16.2316 6.9926C16.3477 7.06994 16.4039 7.12267 16.4391 7.13322C16.4391 7.13322 16.432 7.23869 16.2527 7.16135C16.2527 7.16135 16.2633 7.21408 16.2422 7.26682C16.2422 7.26682 16.1754 7.2176 16.1016 7.20353C16.1016 7.20353 16.084 7.24221 16.0629 7.26682C16.0629 7.26682 15.982 7.18596 15.8871 7.16135L15.859 7.2176C15.859 7.2176 15.7605 7.15783 15.6832 7.15783C15.6832 7.15783 15.7008 7.2176 15.6832 7.24572C15.6832 7.24572 15.4828 7.08049 15.3 7.10158C15.3 7.10158 15.3879 7.23166 15.4441 7.29494C15.4441 7.29494 15.075 7.26682 15.1383 7.06642C15.198 6.86955 15.1348 6.91877 15.3738 6.92228H15.8344Z" fill="#7B3C20"/>
<path d="M14.1082 7.47073C14.1082 7.47073 14.066 7.50588 14.1082 7.53401C14.1504 7.56213 14.2946 7.45666 14.3157 7.4426C14.3367 7.42502 14.386 7.42854 14.3157 7.48479C14.2453 7.54104 14.175 7.59729 14.1223 7.65706C14.1223 7.65706 14.3684 7.58674 14.5266 7.45315C14.6848 7.31252 14.5196 7.40393 14.7903 7.27385C15.061 7.14026 15.2016 6.93284 15.0574 6.95745C14.9133 6.97854 14.7797 7.14377 14.6672 7.20706C14.5547 7.27034 14.4914 7.27737 14.509 7.24221C14.5266 7.20706 14.6074 7.2176 14.7656 7.09456C14.9203 6.96799 14.8852 6.98206 14.8852 6.93635C14.8852 6.89065 14.8289 6.78166 15.061 6.65862C15.2965 6.53557 16.0242 6.1137 16.0875 5.96252C16.0875 5.96252 15.8766 5.98713 15.5953 6.19456C15.4399 6.32393 15.2701 6.43483 15.0891 6.52502C15.0117 6.55315 15.0188 6.53206 14.9731 6.59534C14.8516 6.72234 14.7249 6.84432 14.5934 6.96096C14.5442 6.99612 14.5266 7.02424 14.5231 7.10159C14.5231 7.14026 14.2067 7.38284 14.1117 7.47073H14.1082Z" fill="#5A3719"/>
<path d="M15.0714 6.91522C15.0714 6.91522 15.0117 6.93632 14.9625 6.91522C14.9097 6.8871 14.9273 6.7746 15.0539 6.7078C15.2021 6.62709 15.3606 6.56678 15.525 6.5285C15.525 6.5285 15.5074 6.66913 15.1453 6.79569C15.1453 6.79569 15.1699 6.866 15.0714 6.91522Z" fill="#5A3719"/>
<path d="M15.198 6.82034C15.198 6.82034 15.2085 6.85549 15.198 6.88713C15.198 6.88713 15.866 6.95042 16.2175 6.5426C16.2175 6.5426 15.7394 6.58831 15.5496 6.70081C15.5496 6.70081 15.6726 6.55315 16.0277 6.4301C16.3828 6.30706 16.5304 6.14885 16.5621 6.06799C16.5621 6.06799 16.105 6.2262 15.8941 6.2262C15.8941 6.2262 15.8519 6.2262 15.8097 6.24729C15.7675 6.2719 15.4828 6.47932 15.4054 6.51448C15.4054 6.51448 15.5671 6.50041 15.6234 6.4512C15.6234 6.4512 15.5109 6.75002 15.198 6.82034Z" fill="#AA5323"/>
<path d="M13.9113 7.20349C13.9113 7.20349 13.8234 7.26677 13.8585 7.2949C13.8937 7.32654 13.957 7.33005 14.0871 7.22459C14.2207 7.10857 14.5406 6.83787 14.3367 6.82732C14.3367 6.82732 14.08 6.80974 14.0906 6.96794C14.0976 7.12615 13.9218 7.19294 13.9113 7.20349ZM13.3136 7.10857C13.3136 7.10857 13.4859 7.21052 13.4191 7.29138C13.4191 7.29138 13.9429 6.84841 13.7917 6.74998C13.6511 6.65505 13.5351 6.83787 13.5703 6.85544C13.6054 6.87302 13.6792 6.84138 13.6546 6.87302C13.5467 6.95957 13.4328 7.03829 13.3136 7.10857ZM13.1765 6.96794C13.1765 6.96794 13.2925 7.0031 13.2996 7.05232C13.2996 7.09802 13.6441 6.80974 13.5527 6.68669C13.5105 6.63396 13.3242 6.60935 13.3136 6.72185C13.3031 6.82732 13.4859 6.70779 13.4191 6.78513C13.3417 6.8906 13.2046 6.95037 13.1765 6.96794ZM14.4 6.72537C14.4 6.72537 14.3296 6.7781 14.3964 6.80974C14.4632 6.84138 14.5019 6.79216 14.5371 6.76404C14.5687 6.7324 14.7304 6.61287 14.7656 6.53904C14.8078 6.46169 14.8605 6.43709 14.9203 6.39841C14.98 6.36326 15.3949 6.15232 15.6515 5.9238C15.9082 5.69529 15.7992 5.75505 16.0628 5.6074C16.3265 5.45974 16.5023 5.32615 16.5585 5.16443C16.5585 5.16443 16.4355 5.20662 16.33 5.27693C16.221 5.34724 15.9785 5.49841 15.9257 5.52302C15.8765 5.5406 15.8132 5.54412 15.7746 5.58279C15.7394 5.62146 15.7394 5.66716 15.6128 5.77263C15.4828 5.8781 14.8253 6.34216 14.7445 6.40896C14.6277 6.51228 14.5128 6.61777 14.4 6.72537Z" fill="#5A3719"/>
<path d="M13.8727 6.88009C13.8727 6.88009 13.943 6.84142 14.0801 6.85197C14.2137 6.859 14.7481 6.33868 14.9028 6.23673C15.1429 6.0725 15.3774 5.90013 15.6059 5.71993C15.6762 5.65314 15.6867 5.58634 15.743 5.54767C15.7992 5.51251 15.852 5.51603 15.9821 5.4422C16.1121 5.36837 16.7414 4.9922 16.7063 4.77423C16.7063 4.77423 15.7676 5.33322 15.5531 5.51603C15.254 5.7499 14.9456 5.97157 14.6285 6.18048C14.5231 6.25079 14.4387 6.36329 14.2594 6.51095C14.0801 6.65157 13.9008 6.77814 13.8727 6.88009Z" fill="#AA5323"/>
<path d="M13.6758 6.6797C13.6758 6.6797 13.848 6.66212 13.8726 6.75001C13.8726 6.75001 14.2418 6.49337 14.3297 6.3879C14.414 6.28243 14.298 6.3422 14.509 6.20509C14.8542 5.97552 15.193 5.73637 15.525 5.4879C15.6234 5.40001 15.8168 5.284 15.9679 5.17853C16.1226 5.07657 16.7168 4.78478 16.65 4.54572L16.1156 4.90079C16.0172 4.96759 15.975 4.92892 15.8765 5.00626C15.7711 5.08712 15.5531 5.24181 15.5144 5.29454C15.343 5.44279 15.1635 5.58129 14.9765 5.70939C14.8113 5.81486 14.4492 6.02931 14.2699 6.184C14.0735 6.35146 13.8743 6.51555 13.6722 6.67618L13.6758 6.6797Z" fill="#AA5323"/>
<path d="M13.1379 6.63044C13.1379 6.63044 13.2223 6.63044 13.2539 6.6656C13.2539 6.6656 13.4121 6.52146 13.5844 6.6656C13.5844 6.6656 14.2172 6.23318 14.2805 6.12771C14.3438 6.02224 14.4492 6.01873 14.6918 5.83943C14.9379 5.66013 15.0926 5.58279 15.2543 5.45974C15.4196 5.32966 15.5602 5.18552 15.6762 5.10818C15.7922 5.03435 16.091 4.83748 16.0418 4.67224C16.0418 4.67224 15.7992 4.80584 15.6446 4.9781C15.4864 5.15388 15.5039 5.00623 15.3422 5.14685C15.1571 5.31888 14.9517 5.46764 14.7305 5.58982C14.5266 5.69177 14.6496 5.68123 14.4985 5.77615C14.3543 5.87107 14.3649 5.85701 14.3086 5.87107C14.2354 5.88854 14.1692 5.92776 14.1188 5.98357C14.0079 6.07816 13.8863 6.15957 13.7567 6.22615C13.537 6.34243 13.3287 6.47896 13.1344 6.63396L13.1379 6.63044Z" fill="#AA5323"/>
<path d="M13.3242 6.30354C13.3242 6.30354 13.2925 6.23323 13.3523 6.18049C13.4121 6.13127 13.5281 5.99768 13.5421 5.91682C13.5597 5.82893 13.5456 5.84651 13.7179 5.77268C14.226 5.56005 14.7074 5.28867 15.1523 4.96409C15.2226 4.90784 15.3984 4.78831 15.4652 4.73206C15.4652 4.73206 15.4968 4.82346 15.4195 4.89026C15.1611 5.09114 14.8911 5.27661 14.6109 5.44573C14.53 5.49143 14.3296 5.59338 14.2558 5.65666C14.1855 5.71291 14.196 5.73049 13.8726 5.8887C13.5527 6.04338 13.5386 6.06448 13.5456 6.07502C13.5562 6.08909 13.7003 6.02581 13.7706 5.98362C13.841 5.94495 14.1011 5.8219 14.182 5.75862C14.2593 5.69534 14.3929 5.60041 14.4492 5.56877C14.5054 5.54065 14.9765 5.25237 15.1171 5.15041C15.2507 5.05198 15.2894 5.02034 15.3175 5.03791C15.3456 5.05198 15.3949 5.05198 15.3351 5.10823C15.2753 5.16448 15.082 5.34026 15.0081 5.38948C14.9343 5.43518 14.7023 5.57229 14.639 5.60393C14.5757 5.63909 14.5511 5.69885 14.5124 5.72698C14.4773 5.7551 14.3718 5.82541 14.2453 5.85354C14.1187 5.88166 14.0976 5.9801 14.0132 6.03635C13.9289 6.08909 13.3347 6.40901 13.3171 6.42307C13.3171 6.42307 13.3523 6.38791 13.3277 6.30354H13.3242Z" fill="#AA5323"/>
<path d="M15.3808 4.96758C15.3808 4.96758 15.3492 4.9957 15.3668 5.01328C15.3879 5.03789 15.4722 5.09414 15.5777 4.99219C15.7249 4.85389 15.8824 4.72697 16.0488 4.6125C16.1332 4.55977 16.1789 4.51055 16.1754 4.43672C16.1754 4.43672 15.75 4.66523 15.3808 4.96758ZM15.9679 4.93242C15.9679 4.93242 16.0312 4.81992 16.1929 4.71797C16.3547 4.6125 16.5972 4.46484 16.6254 4.42969C16.6254 4.42969 16.6816 4.49297 16.5586 4.57383C16.4232 4.65897 16.2896 4.74688 16.1578 4.8375C16.1013 4.88043 16.0367 4.91152 15.9679 4.92891V4.93242Z" fill="#AA5323"/>
<path d="M12.7055 6.1172C12.7055 6.1172 12.5297 6.21212 12.593 6.27189C12.6563 6.32814 12.7512 6.31056 12.7934 6.29298C12.8286 6.27892 12.9059 6.25782 12.9164 6.25782C12.927 6.25431 13.0817 6.20861 13.1239 6.13478C13.159 6.06447 13.2645 5.98009 13.3489 5.92384C13.4332 5.86407 13.4649 5.80079 13.4508 5.75861C13.4508 5.75861 12.7477 6.08907 12.7055 6.1172ZM11.6438 6.93986C11.6438 6.93986 11.7704 6.86603 11.9426 6.91173C11.9426 6.91173 11.9356 6.87306 11.9075 6.84845C11.9075 6.84845 12.1184 6.79572 12.1641 6.70079C12.2098 6.60587 12.2204 6.63048 12.259 6.60236C12.3012 6.57423 12.5825 6.34572 12.5508 6.2965C12.5157 6.24728 12.5121 6.184 12.4875 6.15939C12.4875 6.15939 12.4313 6.24025 12.1536 6.37032C11.8793 6.50743 11.5735 6.60587 11.3485 6.9047C11.127 7.20704 11.1516 7.37931 11.4223 7.45665C11.4223 7.45665 11.6121 7.33712 12.0797 7.37579C12.5473 7.4215 12.7055 7.59376 12.7371 7.6254C12.7653 7.66056 12.8602 7.77306 12.7688 7.96993C12.7688 7.96993 12.8637 8.00861 12.8672 7.92072C12.8778 7.82931 12.8813 7.8504 12.9024 7.86095C12.927 7.87853 12.9516 7.87853 12.9375 7.81173C12.9305 7.74142 12.9024 7.59025 12.8532 7.53751C12.8145 7.48478 12.8637 7.50939 12.8883 7.51642C12.9164 7.53048 13.0149 7.61134 12.9586 7.46017C12.8989 7.31954 12.8813 7.38986 12.8778 7.39337C12.8778 7.40392 12.8672 7.43907 12.7371 7.34415C12.6384 7.26789 12.5264 7.21066 12.4067 7.1754C12.3223 7.15431 12.3821 7.15431 12.4348 7.13673C12.4875 7.11564 12.5508 7.10861 12.5754 7.04884C12.5754 7.04884 12.5262 7.0629 12.4348 7.02775C12.3617 7.00627 12.2845 7.00208 12.2095 7.0155C12.1344 7.02892 12.0635 7.05959 12.0024 7.10509C12.0024 7.10509 12.0481 6.92931 11.911 6.93986C11.7704 6.9504 11.6789 6.94689 11.5313 7.0629C11.5313 7.0629 11.5243 6.88712 11.6614 6.79572C11.802 6.70431 11.7809 6.76056 11.8582 6.73595C11.9356 6.71486 11.9426 6.63751 11.9075 6.60939C11.9075 6.60939 12.0903 6.64454 12.3926 6.39142C12.3926 6.39142 12.2274 6.60236 12.0305 6.64806C12.0305 6.64806 11.9989 6.76407 11.8196 6.78868C11.6438 6.80978 11.6473 6.91525 11.6473 6.93986H11.6438Z" fill="#7B3C20"/>
<path d="M11.1305 7.98046C11.1305 7.98046 11.2148 7.4496 11.7141 7.41093C12.143 7.37577 12.2836 7.43202 12.368 7.46015C12.4523 7.48827 12.6668 7.54804 12.5824 7.61835C12.5016 7.68515 12.4559 7.6746 12.4559 7.6746C12.4559 7.6746 12.5473 7.56913 12.4629 7.54804C12.375 7.53398 12.3715 7.58319 12.3574 7.62538C12.3434 7.6746 12.3434 7.72382 12.2977 7.75898C12.2977 7.75898 12.2555 7.70976 12.1922 7.75194C12.1289 7.79413 12.1852 7.79765 12.2098 7.79062C12.2344 7.78359 12.266 7.76952 12.259 7.81171C12.252 7.84687 12.2203 7.91718 12.1184 7.96991C12.0129 8.01913 12.0164 8.01913 11.8969 8.04023C11.7738 8.0578 11.6613 8.10702 11.5066 8.2371C11.3484 8.37421 11.1797 8.32851 11.1445 8.18085C11.1164 8.05077 11.1305 7.98046 11.1305 7.98046Z" fill="#5A3719"/>
<path d="M11.6965 7.95935C11.6965 7.95935 11.7422 7.85388 11.6613 7.80818C11.6613 7.80818 11.4012 7.85388 11.3203 7.77654C11.3203 7.77654 11.6016 7.75896 11.7773 7.68865C11.9531 7.62537 11.9039 7.57615 11.8441 7.56209C11.7809 7.55154 11.6684 7.57966 11.6578 7.6324C11.6578 7.6324 11.6227 7.57966 11.6684 7.53748C11.7141 7.4988 11.7809 7.49177 11.8441 7.50935C11.9074 7.52693 11.9602 7.55505 12.1641 7.44958C12.1641 7.44958 12.2836 7.47771 12.2871 7.55505C12.2871 7.63591 12.2801 7.66755 12.266 7.6781C12.259 7.69216 12.2449 7.71326 12.2203 7.71326C12.1957 7.71326 12.1605 7.70623 12.1324 7.75896C12.1043 7.81521 12.0832 7.86443 12.0305 7.89959C12.0305 7.89959 12.0902 7.72732 11.9391 7.68865C11.9391 7.68865 11.816 7.75896 11.7211 7.76599C11.7211 7.76599 11.8441 7.87849 11.693 7.95935H11.6965Z" fill="black"/>
<path d="M11.9672 7.64294C11.9672 7.64294 11.9109 7.58318 11.9847 7.57263C12.0621 7.57263 12.1605 7.62537 12.1394 7.67459C12.1218 7.72029 12.034 7.71677 11.9672 7.64294Z" fill="#5A3719"/>
<path d="M16.2211 6.80978C16.2211 6.80978 16.0805 6.84845 16.2106 6.93634C16.3372 7.02072 16.4004 7.09454 16.4918 7.11564C16.5868 7.14025 16.6817 7.17189 16.6817 7.26681C16.6817 7.35822 16.6606 7.39689 16.6114 7.46017C16.5586 7.52697 16.6395 7.55157 16.7063 7.51642L16.875 7.43556C16.9172 7.40743 16.9911 7.41095 16.9278 7.44611C16.8575 7.48126 16.7872 7.50236 16.875 7.50236C16.9594 7.50587 17.4833 7.51642 17.5922 7.48126C17.7012 7.44611 17.8454 7.43556 17.8559 7.29493C17.8559 7.29493 17.8629 7.23165 17.9016 7.20353C17.9438 7.1754 17.9719 7.11564 17.9122 7.15431C17.8524 7.20001 17.8067 7.21759 17.7961 7.20704C17.7856 7.19298 17.7786 7.18595 17.8243 7.16486C17.8665 7.14376 17.8911 7.16486 17.9297 7.10861C17.9719 7.04532 17.9684 7.05587 17.9473 7.03126C17.9262 7.01017 17.877 6.99611 17.9016 6.96798C17.9262 6.93634 17.9473 6.85197 17.8524 6.89767C17.7575 6.9504 17.5676 7.08048 17.4762 7.10157C17.3918 7.12267 17.325 7.14728 17.209 7.17189C17.0978 7.19445 16.991 7.23481 16.8926 7.29142C16.7661 7.36173 16.7766 7.24923 16.7977 7.23517C16.7977 7.23517 16.8469 7.32306 16.9735 7.21056C17.1 7.10157 17.0579 7.20353 17.3708 7.10157C17.6801 6.99962 17.6063 6.98204 17.7258 6.92228C17.8524 6.859 17.9649 6.85197 17.8805 6.76759C17.7926 6.68322 17.7856 6.67618 17.6766 6.76759C17.5014 6.89887 17.2958 6.98354 17.079 7.01368C17.079 7.01368 17.7821 6.71134 17.7118 6.66915C17.6499 6.62809 17.5824 6.59613 17.5114 6.57423C17.4622 6.56017 17.4481 6.54962 17.3356 6.60236C17.2231 6.65157 17.2055 6.66212 17.1739 6.66564C17.1387 6.66564 17.0438 6.68673 16.9102 6.75704C16.7766 6.82736 16.7063 6.85548 16.6114 6.90822C16.6114 6.90822 16.6747 6.78165 16.9559 6.69728C17.2301 6.61642 17.3708 6.54259 17.3426 6.52853C17.3145 6.51447 17.2407 6.49689 17.1915 6.51095C17.1387 6.51798 17.1563 6.50392 16.9805 6.57423C16.8153 6.63751 16.8856 6.62345 16.752 6.65509C16.6114 6.68322 16.5586 6.71134 16.4918 6.73947C16.4918 6.73947 16.52 6.70431 16.6114 6.66915C16.6606 6.65509 16.5586 6.634 16.6922 6.63048H16.7274C16.8404 6.60634 16.9493 6.56608 17.0508 6.51095C17.0227 6.50392 16.861 6.48634 16.6922 6.5672C16.527 6.64103 16.6008 6.61642 16.5446 6.62345C16.4883 6.63751 16.3618 6.71486 16.3196 6.75001C16.2774 6.78517 16.2211 6.80978 16.2211 6.80978Z" fill="white"/>
<path d="M12.0973 7.56916C12.0973 7.56916 12.1641 7.59026 12.1817 7.63596C12.1992 7.68166 12.2379 7.61487 12.2379 7.59377C12.2379 7.5762 12.1957 7.48127 12.1254 7.52346C12.0551 7.56565 12.0902 7.56565 12.0973 7.56916Z" fill="#5A3719"/>
<path d="M11.918 8.47615C11.918 8.47615 12.0551 8.41287 12.1746 8.4199C12.1746 8.4199 12.1254 8.25466 12.2098 8.27927C12.2906 8.31091 12.266 8.30037 12.2836 8.30037C12.2836 8.30037 12.2906 8.19138 12.266 8.14568C12.266 8.14568 12.3539 8.16677 12.4383 8.16677C12.4383 8.16677 12.3574 8.01209 12.4453 7.9031C12.4615 7.93436 12.4839 7.962 12.5111 7.98436C12.5383 8.00672 12.5697 8.02333 12.6035 8.03318V7.94177C12.6035 7.94177 12.6668 7.93474 12.7195 7.95935C12.7687 7.98748 12.8109 7.6781 12.6598 7.60779C12.6598 7.60779 12.6246 7.66755 12.484 7.69568C12.3434 7.7238 12.3434 7.75193 12.2871 7.86091C12.2309 7.9699 12.1816 7.96638 12.0586 8.04373C11.9743 8.10806 11.9078 8.19274 11.8652 8.28982C11.8652 8.28982 11.925 8.36013 11.918 8.47615Z" fill="#7B3C20"/>
<path d="M16.6114 6.66915C16.6606 6.66212 16.5586 6.634 16.6922 6.63048H16.7274C16.8404 6.60634 16.9493 6.56608 17.0508 6.51095C17.0227 6.50392 16.861 6.48634 16.6922 6.56368C16.5235 6.64103 16.6008 6.61642 16.5446 6.62696C16.4633 6.65517 16.3872 6.69676 16.3196 6.75001C16.2774 6.78517 16.2211 6.80978 16.2211 6.80978C16.2211 6.80978 16.0805 6.84845 16.2106 6.93634C16.3372 7.02071 16.4004 7.09454 16.4918 7.11564C16.5868 7.14025 16.6817 7.17189 16.6817 7.26681C16.6837 7.30212 16.6785 7.33749 16.6665 7.37073C16.6544 7.40398 16.6356 7.43441 16.6114 7.46017C16.5586 7.52696 16.6395 7.55157 16.7063 7.51642L16.875 7.43556C16.9172 7.40743 16.9911 7.41095 16.9243 7.4461C16.854 7.48126 16.7872 7.50235 16.875 7.50235C16.9594 7.50587 17.4833 7.51642 17.5922 7.48126C17.7012 7.4461 17.8454 7.43556 17.8559 7.29493C17.8559 7.29493 17.8629 7.23165 17.9016 7.20353C17.9438 7.1754 17.9719 7.11564 17.9122 7.15431C17.8524 7.20001 17.8067 7.21759 17.7961 7.20704C17.7856 7.19298 17.7786 7.18595 17.8243 7.16485C17.8665 7.14376 17.8911 7.16485 17.9297 7.1086C17.9719 7.04532 17.9684 7.05587 17.9473 7.03126C17.9333 7.02071 17.9157 7.01368 17.9086 6.99962C17.9086 6.99962 17.8735 6.9715 17.8383 6.9961C17.7564 7.04049 17.6689 7.0736 17.5782 7.09454C17.5149 7.10157 17.4446 7.1297 17.3321 7.18595C17.2196 7.2422 17.0227 7.36173 16.9911 7.24923L16.8926 7.29142C16.7625 7.35821 16.7731 7.26329 16.7977 7.23517C16.7977 7.23517 16.7274 7.31251 16.7309 7.24571C16.7309 7.1754 16.7766 7.18595 16.854 7.16485C16.9278 7.14025 17.0473 7.09454 16.9981 7.05236C16.9489 7.01368 16.8961 7.09454 16.8434 7.11915C16.7872 7.14376 16.6782 7.16485 16.6606 7.084C16.643 7.00665 16.643 6.9504 16.4989 6.94337C16.3512 6.93634 16.3547 6.84142 16.3934 6.80275C16.4391 6.76407 16.4708 6.69728 16.6114 6.66915Z" fill="#999999"/>
<path d="M17.0824 7.38281C17.0824 7.38281 17.3109 7.28085 17.5218 7.23164C17.7328 7.18242 17.5675 7.23867 17.5324 7.24921C17.4972 7.25976 17.1668 7.36874 17.0894 7.40742C17.0121 7.44257 17.0261 7.41093 17.0824 7.38984V7.38281ZM17.1316 7.43554C17.1316 7.43554 17.3918 7.34765 17.441 7.38281C17.4902 7.41796 17.448 7.4039 17.3918 7.41093C17.3355 7.41796 17.1808 7.44609 17.1386 7.44609C17.0964 7.44609 17.1316 7.43554 17.1316 7.43554ZM17.55 7.34414C17.55 7.34414 17.5992 7.33359 17.6027 7.35468C17.6062 7.37226 17.5816 7.37578 17.5535 7.37226C17.5254 7.36523 17.5043 7.35117 17.55 7.34414Z" fill="black"/>
<path d="M10.7226 9.59768C10.7226 9.59768 10.7121 9.36917 10.8281 9.25315C10.9441 9.13713 11.4961 8.56057 11.5804 8.39885C11.5804 8.39885 11.6508 8.44807 11.6543 8.53948C11.6543 8.53948 11.7492 8.38127 11.823 8.31799C11.823 8.31799 11.8898 8.38831 11.8793 8.5219C11.8793 8.5219 12.0129 8.45159 12.2203 8.45159C12.2203 8.45159 12.1394 8.53596 12.1394 8.59221C12.1394 8.59221 12.4242 8.55706 12.5789 8.58518C12.5789 8.58518 12.1816 8.80315 12.2906 8.82424C12.4066 8.84534 12.5191 8.82424 12.5191 8.82424C12.5191 8.82424 12.3926 8.95081 12.1922 8.97541C12.1922 8.97541 12.4488 8.97541 12.5015 9.03166C12.5015 9.03166 12.2519 9.06682 12.0515 9.22151C12.0515 9.22151 12.0304 9.21096 12.0304 9.15471C12.0304 9.15471 12.0234 9.20745 11.9672 9.25666C11.9074 9.30237 11.7738 9.40432 11.7211 9.45706C11.6719 9.50627 11.5804 9.60823 11.475 9.60471C11.475 9.60471 11.4961 9.52385 11.4222 9.49924C11.3838 9.48635 11.3425 9.4848 11.3032 9.49478C11.2639 9.50475 11.2284 9.52583 11.2008 9.55549C11.2008 9.55549 10.9336 9.56252 10.8457 9.57307C10.8457 9.57307 10.9054 9.47815 10.9617 9.47815C11.0179 9.47815 11.2429 9.51331 11.264 9.35862C11.2816 9.20745 11.1199 9.24612 11.1797 9.15823C11.2429 9.06682 11.2289 9.07034 11.2324 9.05979C11.2324 9.05979 11.1797 9.08791 11.1515 9.16877C11.127 9.26009 11.071 9.33978 10.9933 9.39377C10.9186 9.44069 10.856 9.50452 10.8105 9.5801C10.8105 9.5801 10.7613 9.58713 10.7191 9.59768H10.7226Z" fill="white"/>
<path d="M10.9792 9.45701C10.9792 9.45701 10.9863 9.4324 11.0636 9.41482C11.1445 9.40076 11.1515 9.3656 11.1375 9.34451C11.1269 9.33396 11.0812 9.33396 11.155 9.24255C11.155 9.24255 11.1832 9.2531 11.2007 9.27419C11.2218 9.29529 11.3062 9.4781 10.9792 9.46052V9.45701Z" fill="white"/>
<path d="M10.7929 9.29885C10.7929 9.45002 10.9933 9.39377 10.9933 9.39377C10.9402 9.43116 10.8918 9.47484 10.8492 9.52385C10.8633 9.45354 10.7367 9.43245 10.7367 9.43245C10.7482 9.38521 10.7672 9.34011 10.7929 9.29885ZM11.5172 8.49026L11.5804 8.39885C11.5804 8.39885 11.6508 8.44807 11.6543 8.53948C11.6543 8.53948 11.7492 8.38127 11.823 8.31799C11.823 8.31799 11.8898 8.38831 11.8793 8.5219C11.8793 8.5219 12.0129 8.45159 12.2203 8.45159C12.2203 8.45159 12.1394 8.53596 12.1394 8.59221C12.1394 8.59221 12.4242 8.55706 12.5789 8.58518C12.5789 8.58518 12.1816 8.80315 12.2906 8.82424C12.4066 8.84534 12.5191 8.82424 12.5191 8.82424C12.5191 8.82424 12.3926 8.95081 12.1922 8.97541C12.1922 8.97541 12.4488 8.97541 12.5015 9.03166C12.5015 9.03166 12.4242 9.04221 12.3258 9.07737C12.3258 9.07737 12.2554 9.00706 12.041 9.02112C12.041 9.02112 12.2062 8.9262 12.3398 8.89456C12.3398 8.89456 12.2836 8.82073 12.1886 8.88752C12.1886 8.88752 12.0094 8.76448 12.1605 8.65901C12.1605 8.65901 12.0551 8.63792 11.9847 8.68713C11.9847 8.68713 11.9847 8.59924 12.0621 8.56409C12.0621 8.56409 11.8617 8.52893 11.816 8.67659C11.816 8.67659 11.7738 8.61682 11.7949 8.55002C11.7949 8.55002 11.6719 8.62034 11.6156 8.69768C11.6156 8.69768 11.5945 8.54651 11.5172 8.49026ZM11.1304 9.45002C11.0953 9.46057 11.0426 9.46409 10.9793 9.46057C10.9793 9.46057 10.9828 9.43948 11.0285 9.42542C11.0285 9.42542 11.039 9.45002 11.1269 9.45002" fill="#999999"/>
<path d="M11.4961 8.88048C11.4961 8.88048 11.5875 8.95079 11.6191 8.99298C11.6191 8.99298 11.7035 8.93673 11.7316 8.88751C11.7316 8.88751 11.8019 8.9297 11.8195 8.99298C11.8195 8.99298 11.8687 8.96486 11.8758 8.92267C11.8758 8.92267 11.9918 8.94376 12.0304 8.97892C12.0304 8.97892 12.048 8.87345 12.0304 8.79962C12.0304 8.79962 12.1113 8.80665 12.1605 8.82775C12.1605 8.82775 12.1148 8.75392 12.3469 8.659C12.3469 8.659 12.1711 8.69767 12.1008 8.7715C12.1008 8.7715 12.0304 8.77853 11.9953 8.75743V8.92267C11.9953 8.92267 11.9531 8.90157 11.8652 8.88048C11.8652 8.88048 11.8441 8.91915 11.8301 8.9297C11.8301 8.9297 11.7703 8.88048 11.7492 8.82775C11.7492 8.82775 11.6613 8.90509 11.6332 8.93673C11.6332 8.93673 11.5488 8.88048 11.4926 8.88048H11.4961Z" fill="black"/>
<path d="M10.9687 10.0266C10.9687 10.0266 11.0039 10.0441 11.0883 9.97382C11.1726 9.90351 11.4152 9.75233 11.4363 9.62929C11.4609 9.50624 11.359 9.49921 11.2816 9.53437C11.2008 9.56952 11.2359 9.63983 11.2394 9.66093C11.2394 9.68202 11.2465 9.7664 11.1164 9.88593L10.9652 10.0266H10.9687Z" fill="#FFC221"/>
<path d="M10.9406 10.0617C10.9406 10.0617 10.7473 9.98089 10.9196 9.89651C11.0918 9.81214 11.1692 9.78753 11.1903 9.7137C11.2113 9.64339 11.2008 9.65394 11.134 9.68206C11.0707 9.7137 10.8246 9.8262 10.7895 9.72073C10.7895 9.72073 10.8879 9.75941 11.0145 9.69964C11.141 9.63636 11.2465 9.61878 11.1656 9.59417C11.0848 9.56956 10.793 9.6012 10.7473 9.61526C10.6981 9.62933 10.7121 9.62581 10.7016 9.67152C10.6946 9.72073 10.6418 9.82269 10.6207 9.8473C10.6031 9.87894 10.5504 10.002 10.6418 10.0582C10.6877 10.0828 10.7388 10.096 10.7908 10.0966C10.8428 10.0972 10.8942 10.0852 10.9406 10.0617Z" fill="#FFC221"/>
<path d="M10.8633 9.64335C10.8633 9.64335 10.8212 9.65038 10.8282 9.66796C10.8387 9.68202 10.8493 9.68202 10.8633 9.68202C10.8809 9.68202 10.9055 9.67147 10.909 9.66444C10.909 9.65038 10.8809 9.63632 10.8669 9.64335H10.8633Z" fill="black"/>
<path d="M10.9266 10.0195C10.9266 10.0195 10.8387 9.97732 10.9406 9.92107C11.0461 9.86482 11.1516 9.80857 11.1691 9.78748C11.1691 9.78748 11.1199 9.85779 10.9301 10.0195H10.9266Z" fill="white"/>
</g>
<defs>
<clipPath id="clip0_14_1256">
<rect width="18" height="18" rx="9" fill="white"/>
</clipPath>
</defs>
</svg>
