<svg width="18" height="18" viewBox="0 0 18 18" fill="none" xmlns="http://www.w3.org/2000/svg">
<g clip-path="url(#clip0_8201_9789)">
<path d="M18 9C18 13.9705 13.9705 18 9 18C4.02947 18 0 13.9705 0 9C0 9.00211 9 0.00101953 9 0C13.9705 0 18 4.02947 18 9Z" fill="#0052B4"/>
<path d="M9.00005 0C8.99955 0 8.99903 7.03125e-05 8.99854 7.03125e-05L9.00005 0Z" fill="#F0F0F0"/>
<path d="M8.97607 9.00003H9.00016C9.00016 8.99188 9.00016 8.98407 9.00016 8.97595C8.99214 8.984 8.98413 8.99202 8.97607 9.00003Z" fill="#F0F0F0"/>
<path d="M9 4.69577C9 3.11215 9 2.07445 9 0.00012207H8.99849C4.02863 0.000930664 0 4.03001 0 9.00009H4.69564V6.35591L7.33982 9.00009H8.97595C8.984 8.99207 8.99202 8.98406 9.00004 8.976C9.00004 8.36967 9.00004 7.82865 9.00004 7.33997L6.35583 4.69577H9Z" fill="#F0F0F0"/>
<path d="M4.55319 1.17395C3.14557 1.97548 1.97536 3.14569 1.17383 4.55331V9.00005H3.52167V3.52183V3.52179H8.99993C8.99993 2.78129 8.99993 2.07585 8.99993 1.17395H4.55319Z" fill="#D80027"/>
<path d="M9.00012 7.89335L5.80255 4.69582H4.6958C4.6958 4.69578 4.6958 4.69582 4.6958 4.69582L9.00009 9.0001H9.00012C9.00012 9.0001 9.00012 8.23704 9.00012 7.89335Z" fill="#D80027"/>
<path d="M5.42772 10.5653L5.92167 11.5981L7.03707 11.3403L6.53757 12.3705L7.43455 13.0818L6.31774 13.3335L6.32087 14.4783L5.42772 13.7621L4.53461 14.4783L4.53774 13.3335L3.4209 13.0818L4.31791 12.3705L3.81834 11.3403L4.93381 11.5981L5.42772 10.5653Z" fill="#F0F0F0"/>
<path d="M13.4746 12.5219L13.7216 13.0383L14.2793 12.9093L14.0295 13.4244L14.478 13.7801L13.9196 13.906L13.9211 14.4784L13.4746 14.1202L13.028 14.4784L13.0296 13.906L12.4712 13.7801L12.9197 13.4244L12.6699 12.9093L13.2276 13.0383L13.4746 12.5219Z" fill="#F0F0F0"/>
<path d="M11.1773 7.04358L11.4242 7.56002L11.9819 7.43107L11.7322 7.94615L12.1807 8.30182L11.6223 8.42768L11.6238 9.00009L11.1773 8.64196L10.7307 9.00009L10.7322 8.42768L10.1738 8.30182L10.6223 7.94615L10.3726 7.43107L10.9303 7.56002L11.1773 7.04358Z" fill="#F0F0F0"/>
<path d="M13.4746 3.91309L13.7216 4.42953L14.2793 4.30061L14.0295 4.81569L14.478 5.17133L13.9196 5.29722L13.9211 5.86964L13.4746 5.5115L13.028 5.86964L13.0296 5.29722L12.4712 5.17133L12.9196 4.81569L12.6699 4.30061L13.2276 4.42953L13.4746 3.91309Z" fill="#F0F0F0"/>
<path d="M15.4815 6.26099L15.7284 6.77743L16.2861 6.64848L16.0364 7.16355L16.4849 7.51923L15.9264 7.64512L15.928 8.2175L15.4815 7.8594L15.0349 8.2175L15.0364 7.64512L14.478 7.51923L14.9265 7.16355L14.6768 6.64848L15.2344 6.77743L15.4815 6.26099Z" fill="#F0F0F0"/>
<path d="M14.0465 9L14.2408 9.59787H14.8694L14.3608 9.96739L14.5551 10.5652L14.0465 10.1957L13.538 10.5652L13.7322 9.96739L13.2236 9.59787H13.8523L14.0465 9Z" fill="#F0F0F0"/>
</g>
<defs>
<clipPath id="clip0_8201_9789">
<rect width="18" height="18" fill="white"/>
</clipPath>
</defs>
</svg>
