<svg width="18" height="18" viewBox="0 0 18 18" fill="none" xmlns="http://www.w3.org/2000/svg">
<g clip-path="url(#clip0_8201_9781)">
<path d="M9 18C13.9706 18 18 13.9706 18 9C18 4.02944 13.9706 0 9 0C4.02944 0 0 4.02944 0 9C0 13.9706 4.02944 18 9 18Z" fill="#FFDA44"/>
<path d="M9.00019 18C11.728 18 14.1722 16.7863 15.8226 14.8696H2.17773C3.82821 16.7863 6.27238 18 9.00019 18Z" fill="#338AF3"/>
<path d="M18 9C18 4.02947 13.9705 0 9 0C4.02947 0 0 4.02947 0 9C0 9.81236 0.108281 10.5992 0.310043 11.3478H17.69C17.8917 10.5992 18 9.81236 18 9Z" fill="#338AF3"/>
<path d="M0.715332 12.5217C0.888828 12.9294 1.09164 13.3215 1.3209 13.6956H16.679C16.9082 13.3214 17.111 12.9294 17.2846 12.5217H0.715332Z" fill="#338AF3"/>
<path d="M4.12459 5.67638L2.36621 4.90035L4.12459 4.12431L4.90059 2.36597L5.67659 4.12431L7.43493 4.90035L5.67659 5.67638L4.90059 7.43472L4.12459 5.67638Z" fill="#F0F0F0"/>
<path d="M4.90019 3.33521L5.3794 4.42115L6.46538 4.90043L5.3794 5.37968L4.90019 6.46562L4.4209 5.37968L3.33496 4.90043L4.4209 4.42115L4.90019 3.33521Z" fill="#D80027"/>
</g>
<defs>
<clipPath id="clip0_8201_9781">
<rect width="18" height="18" fill="white"/>
</clipPath>
</defs>
</svg>
