<svg width="18" height="18" viewBox="0 0 18 18" fill="none" xmlns="http://www.w3.org/2000/svg">
<g clip-path="url(#clip0_14_1250)">
<mask id="mask0_14_1250" style="mask-type:luminance" maskUnits="userSpaceOnUse" x="0" y="0" width="18" height="18">
<path d="M0 0H18V18H0V0Z" fill="white"/>
</mask>
<g mask="url(#mask0_14_1250)">
<path d="M0 0V18H27V0H0Z" fill="#3399CC"/>
<path d="M0 11.9988V13.0008H27V11.9988H0ZM0 14.0027V15.0012H27V13.9992H0V14.0027Z" fill="#FFFF00"/>
<path d="M4.28911 0.984375L4.37349 1.07227L4.29263 0.987891L4.28911 0.984375ZM4.37349 1.15312L4.45786 1.2375L4.377 1.15312H4.37349Z" fill="#99CCCC"/>
<path d="M4.37349 1.23749L4.45786 1.32186L4.377 1.23749H4.37349Z" fill="#CCCCFF"/>
<path d="M4.28906 1.40625L4.37344 1.48711L4.29258 1.40625H4.28906Z" fill="#CC6666"/>
<path d="M4.37349 1.57147L4.45786 1.65585L4.377 1.57147H4.37349Z" fill="#FFCCCC"/>
<path d="M4.04294 1.65588L4.1238 1.74026L4.03943 1.65588H4.04294Z" fill="#66CCCC"/>
<path d="M4.27852 1.15662L3.69141 3.38201L1.45898 3.98669L3.68438 4.56677L4.27852 6.79216L4.87266 4.56677L7.09453 3.97263L4.86914 3.38201L4.27852 1.15662Z" fill="#CC0000" stroke="white" stroke-width="0.1875"/>
<path d="M4.04294 1.74023L4.1238 1.82461L4.03943 1.74023" fill="#99CCFF"/>
<path d="M3.95508 1.98987L4.04297 2.07424L3.95859 1.98987" fill="#99CCFF"/>
<path d="M4.04294 2.07422L4.1238 2.15859L4.03943 2.07422" fill="#FFCCCC"/>
<path d="M3.95508 2.4082L4.04297 2.49609L3.95859 2.41172" fill="#FFCCCC"/>
<path d="M4.79175 2.4082L4.87612 2.49258L4.79526 2.4082H4.79175Z" fill="#6699CC"/>
<path d="M3.78979 2.49607L3.87417 2.57693L3.78979 2.49255V2.49607Z" fill="#99CCCC"/>
<path d="M4.65112 2.54883L4.68276 2.60508L4.65464 2.54883H4.65112Z" fill="#CC3333"/>
<path d="M4.79175 2.49607L4.87612 2.57693L4.79526 2.49255L4.79175 2.49607Z" fill="#99CCCC"/>
<path d="M3.70544 2.74219L3.78982 2.82656L3.70544 2.7457V2.74219Z" fill="#99CCCC"/>
<path d="M3.90232 2.79846L3.92693 2.85471L3.8988 2.79846" fill="#CC3333"/>
<path d="M4.87622 2.74219L4.9606 2.82656L4.87622 2.7457V2.74219Z" fill="#99CCCC"/>
<path d="M5.21013 3.32928L5.29451 3.41366L5.21365 3.32928H5.21013Z" fill="#CCCCFF"/>
<path d="M5.12927 3.41367L5.21013 3.49805L5.13279 3.41016L5.12927 3.41367Z" fill="#FFCCCC"/>
<path d="M3.33984 3.52618L3.39961 3.55431L3.34336 3.52618" fill="#CC3333"/>
<path d="M5.80076 3.49805L5.88162 3.58242L5.79724 3.49805H5.80076Z" fill="#99CCCC"/>
<path d="M2.53125 3.5824L2.61914 3.66326L2.53125 3.58591V3.5824Z" fill="#99CCCC"/>
<path d="M2.95312 3.5824L3.0375 3.66326L2.95312 3.58591V3.5824Z" fill="#FFCCCC"/>
<path d="M6.04688 3.5824L6.13125 3.66326L6.05039 3.5824H6.04688Z" fill="#99CCCC"/>
<path d="M2.28513 3.66327L2.36599 3.74764L2.28162 3.66327H2.28513Z" fill="#99CCFF"/>
<path d="M1.77893 3.83203L1.86331 3.91641L1.78245 3.83203H1.77893Z" fill="#CCCCFF"/>
<path d="M1.77893 4.16602L1.86331 4.25391L1.78245 4.16953L1.77893 4.16602Z" fill="#CCCCFF"/>
<path d="M2.19727 4.33478L2.28164 4.41915L2.20078 4.33478H2.19727Z" fill="#6699CC"/>
<path d="M2.28513 4.33478L2.36599 4.41915L2.28162 4.33478H2.28513Z" fill="#99CCFF"/>
<path d="M2.84058 4.35938L2.89683 4.39102L2.84058 4.36289" fill="#CC3333"/>
<path d="M2.53125 4.41913L2.61914 4.49999L2.53477 4.41913H2.53125Z" fill="#99CCCC"/>
<path d="M3.09375 4.44724L3.14648 4.47185L3.09375 4.44373" fill="#CC3333"/>
<path d="M6.04688 4.41913L6.13125 4.49999L6.05039 4.41913H6.04688Z" fill="#99CCCC"/>
<path d="M3.33984 4.52814L3.39961 4.55626L3.34336 4.52814" fill="#CC3333"/>
<path d="M5.80076 4.5L5.88162 4.58437L5.79724 4.5H5.80076Z" fill="#99CCCC"/>
<path d="M5.21013 4.66876L5.29451 4.75314L5.21365 4.66876H5.21013Z" fill="#CCCCFF"/>
<path d="M3.62109 4.92185L3.70547 5.00271L3.62109 4.91833V4.92185Z" fill="#CCCCFF"/>
<path d="M4.96057 4.92185L5.04495 5.00271L4.96057 4.91833V4.92185Z" fill="#CCCCFF"/>
<path d="M3.70544 5.16797L3.78982 5.25586L3.70544 5.17148V5.16797Z" fill="#CCCCFF"/>
<path d="M3.90232 5.22772L3.92693 5.28397L3.8988 5.22772" fill="#CC3333"/>
<path d="M4.87622 5.16797L4.9606 5.25586L4.87622 5.17148V5.16797Z" fill="#CCCCFF"/>
<path d="M3.87427 5.33673L3.95513 5.42111L3.87427 5.34025" fill="#FFCCCC"/>
<path d="M4.65112 5.47736L4.68276 5.53361L4.65464 5.47736H4.65112Z" fill="#CC3333"/>
<path d="M4.79175 5.42108L4.87612 5.50546L4.79526 5.42108H4.79175Z" fill="#CCFFFF"/>
<path d="M4.62305 5.58984L4.71094 5.67422L4.62656 5.58984H4.62305Z" fill="#FFCCCC"/>
<path d="M4.79175 5.58984L4.87612 5.67422L4.79526 5.58984H4.79175Z" fill="#6699CC"/>
<path d="M4.04294 5.92383L4.1238 6.0082L4.03943 5.92383" fill="#FFCCCC"/>
<path d="M4.62305 6.09259L4.71094 6.17345L4.62656 6.09259H4.62305Z" fill="#6699CC"/>
<path d="M4.04294 6.25781L4.1238 6.34219L4.03943 6.25781H4.04294Z" fill="#99CCFF"/>
<path d="M4.04294 6.34216L4.1238 6.42654L4.03943 6.34216" fill="#66CCCC"/>
<path d="M4.37349 6.42657L4.45786 6.51095L4.377 6.42657H4.37349Z" fill="#FFCCCC"/>
<path d="M4.28906 6.59534L4.37344 6.6762L4.29258 6.59534H4.28906Z" fill="#CC6666"/>
<path d="M4.37349 6.76056L4.45786 6.84493L4.377 6.76056H4.37349Z" fill="#CCCCFF"/>
<path d="M4.37349 6.84491L4.45786 6.92928L4.377 6.84491M4.29263 7.01366L4.377 7.09452L4.29263 7.01014V7.01366Z" fill="#99CCCC"/>
</g>
</g>
<defs>
<clipPath id="clip0_14_1250">
<rect width="18" height="18" rx="9" fill="white"/>
</clipPath>
</defs>
</svg>
