<svg width="18" height="18" viewBox="0 0 18 18" fill="none" xmlns="http://www.w3.org/2000/svg">
<g clip-path="url(#clip0_8201_9810)">
<path d="M18 9.00001C18 7.89913 17.802 6.84455 17.4402 5.8696L9 5.47827L0.559793 5.86956C0.198035 6.84455 0 7.89913 0 9.00001C0 10.1009 0.198035 11.1555 0.559793 12.1304L9 12.5218L17.4402 12.1305C17.802 11.1555 18 10.1009 18 9.00001Z" fill="#D80027"/>
<path d="M8.99978 18C12.8695 18 16.1683 15.5576 17.44 12.1304H0.55957C1.83121 15.5576 5.13009 18 8.99978 18Z" fill="#6DA544"/>
<path d="M0.55957 5.86958H17.44C16.1683 2.44237 12.8695 0 8.99978 0C5.13009 0 1.83121 2.44237 0.55957 5.86958Z" fill="#338AF3"/>
<path d="M9.19559 11.5434C7.79089 11.5434 6.65211 10.4047 6.65211 8.99996C6.65211 7.59526 7.79089 6.45648 9.19559 6.45648C9.63357 6.45648 10.0457 6.56722 10.4055 6.76219C9.84102 6.21021 9.06913 5.86951 8.21733 5.86951C6.48842 5.86951 5.08691 7.27105 5.08691 8.99992C5.08691 10.7288 6.48845 12.1303 8.21733 12.1303C9.06917 12.1303 9.84106 11.7896 10.4055 11.2377C10.0457 11.4327 9.63357 11.5434 9.19559 11.5434Z" fill="#F0F0F0"/>
<path d="M11.152 7.23914L11.4889 8.18663L12.3971 7.75484L11.9654 8.66307L12.9129 9.00001L11.9654 9.33695L12.3971 10.2452L11.4889 9.81338L11.152 10.7609L10.8151 9.81338L9.90685 10.2452L10.3386 9.33695L9.39111 9.00001L10.3386 8.66307L9.90685 7.75484L10.8151 8.18663L11.152 7.23914Z" fill="#F0F0F0"/>
</g>
<defs>
<clipPath id="clip0_8201_9810">
<rect width="18" height="18" fill="white"/>
</clipPath>
</defs>
</svg>
