<svg width="18" height="18" viewBox="0 0 18 18" fill="none" xmlns="http://www.w3.org/2000/svg">
<g clip-path="url(#clip0_8201_9931)">
<path d="M9 18C13.9706 18 18 13.9706 18 9C18 4.02944 13.9706 0 9 0C4.02944 0 0 4.02944 0 9C0 13.9706 4.02944 18 9 18Z" fill="#F0F0F0"/>
<path d="M8.99992 0C5.80878 0 3.00578 1.66089 1.40771 4.16528L13.6125 16.7291C16.2402 15.1575 17.9999 12.2844 17.9999 9C17.9999 4.02947 13.9704 0 8.99992 0Z" fill="#FFDA44"/>
<path d="M18.0002 9.00003C18.0002 6.66488 17.1108 4.53765 15.6523 2.93811V15.062C17.1108 13.4624 18.0002 11.3352 18.0002 9.00003Z" fill="#0052B4"/>
<path d="M11.2426 16.9409L12.1853 16.9403L12.4761 16.0435L12.768 16.9399L13.2408 16.9397C13.5308 16.7844 13.8112 16.6139 14.0811 16.4289L1.5711 3.91895C1.36494 4.21974 1.17693 4.53383 1.00786 4.85937L1.11902 5.20081L2.06174 5.20021L1.29941 5.7548L1.59128 6.65125L0.828246 6.09761L0.373148 6.42864C0.130535 7.24343 0 8.10648 0 9.00004C0 13.9706 4.02947 18 9 18C10.0509 18 11.0596 17.8196 11.9971 17.4884L11.2426 16.9409ZM2.00739 8.60875L2.29813 7.71199L1.53517 7.15828L2.47788 7.15768L2.76866 6.26088L3.06053 7.15733L4.00324 7.15673L3.24088 7.71132L3.53275 8.60777L2.76971 8.05413L2.00739 8.60875ZM3.94889 10.5653L4.23963 9.6685L3.47667 9.11479L4.41939 9.1142L4.71016 8.21739L5.00203 9.11384L5.94475 9.11325L5.18242 9.66784L5.47429 10.5643L4.71125 10.0106L3.94889 10.5653ZM5.89036 12.5218L6.1811 11.625L5.41814 11.0713L6.36086 11.0707L6.65163 10.1739L6.9435 11.0704L7.88621 11.0698L7.12389 11.6244L7.41575 12.5208L6.65272 11.9671L5.89036 12.5218ZM8.59419 13.9237L7.83183 14.4783L8.12257 13.5815L7.35961 13.0278L8.30232 13.0272L8.59314 12.1304L8.885 13.0269L9.82772 13.0263L9.06539 13.5809L9.35726 14.4773L8.59419 13.9237ZM9.77333 16.4348L10.0641 15.5381L9.30111 14.9843L10.2438 14.9837L10.5346 14.0869L10.8265 14.9834L11.7692 14.9828L11.0069 15.5374L11.2987 16.4338L10.5357 15.8801L9.77333 16.4348Z" fill="#0052B4"/>
</g>
<defs>
<clipPath id="clip0_8201_9931">
<rect width="18" height="18" fill="white"/>
</clipPath>
</defs>
</svg>
