<svg width="18" height="18" viewBox="0 0 18 18" fill="none" xmlns="http://www.w3.org/2000/svg">
<g clip-path="url(#clip0_14_1243)">
<mask id="mask0_14_1243" style="mask-type:luminance" maskUnits="userSpaceOnUse" x="0" y="0" width="18" height="18">
<path d="M0 0H18V18H0V0Z" fill="white"/>
</mask>
<g mask="url(#mask0_14_1243)">
<path fill-rule="evenodd" clip-rule="evenodd" d="M0 0H18V18H0V0Z" fill="#000099"/>
<path fill-rule="evenodd" clip-rule="evenodd" d="M2.70703 0L18.0703 15.3633V0H2.70703Z" fill="#FFCC00"/>
<path fill-rule="evenodd" clip-rule="evenodd" d="M16.221 16.5375L15.3034 15.866L14.3577 16.534L14.7163 15.4371L13.7882 14.7621H14.9378L15.2964 13.6723L15.6479 14.7656L16.8011 14.7691L15.88 15.4512L16.221 16.5375ZM18.9175 16.9031H17.7679L17.4163 15.8062L17.0577 16.8996H15.9046L16.8327 17.5746L16.4776 18.6715L17.4198 18.0035L18.3409 18.6715L17.9964 17.5851L18.9175 16.9031ZM13.7741 13.3453L14.6952 12.6633H13.5456L13.1905 11.5664L12.8319 12.6562H11.6823L12.6104 13.3348L12.2554 14.4281L13.1976 13.7601L14.1151 14.4316L13.7741 13.3418V13.3453ZM11.6542 11.2219L12.5753 10.5398L11.4222 10.5363L11.0706 9.43944L10.712 10.5363L9.5624 10.5328L10.4905 11.2078L10.1319 12.3047L11.0776 11.6367L11.9952 12.3082L11.6542 11.2183V11.2219ZM9.55537 9.12303L10.4765 8.441H9.32685L8.97178 7.34413L8.61318 8.43749H7.46357L8.3917 9.11249L8.03662 10.2094L8.97881 9.54139L9.89639 10.2094L9.55537 9.12303ZM7.43193 7.00311L8.35303 6.3246L7.1999 6.32108L6.84834 5.22421L6.48975 6.32108L5.34014 6.31757L6.26826 6.99257L5.90967 8.08944L6.85537 7.42147L7.77295 8.08944L7.43193 7.00663V7.00311ZM5.33311 4.89725L6.25771 4.21874L5.10811 4.21522L4.75654 3.11835L4.39443 4.21171H3.24131L4.16943 4.88671L3.81436 5.98358L4.75654 5.31561L5.67412 5.98358L5.33311 4.89725ZM3.22373 2.78788L4.14834 2.10936L2.99873 2.10585L2.64717 1.00897L2.28506 2.10233H1.13193L2.06006 2.77733L1.70498 3.87421L2.64717 3.20624L3.56826 3.87421L3.22373 2.78788ZM1.11436 0.678503L2.03896 -1.22339e-05L0.88584 -0.00352787L0.534277 -1.1004L0.168652 -0.00704351H-0.980957L-0.0493164 0.667957L-0.404395 1.76483L0.537793 1.09686L1.45537 1.76483L1.11436 0.678503Z" fill="white"/>
</g>
</g>
<defs>
<clipPath id="clip0_14_1243">
<rect width="18" height="18" rx="9" fill="white"/>
</clipPath>
</defs>
</svg>
