<svg width="18" height="18" viewBox="0 0 18 18" fill="none" xmlns="http://www.w3.org/2000/svg">
<g clip-path="url(#clip0_8201_10047)">
<path d="M0 9C0 4.02947 4.02947 0 9 0C13.9705 0 18 4.02947 18 9C17.6087 9 9 10.1739 9 10.1739L0 9Z" fill="#D80027"/>
<path d="M18 9C18 13.9705 13.9705 18 9 18C4.02947 18 0 13.9705 0 9" fill="#6DA544"/>
<path d="M8.99973 5.86963L9.67955 7.96206H11.8799L10.0998 9.25532L10.7797 11.3479L8.99973 10.0547L7.21974 11.3479L7.8997 9.25532L6.11963 7.96206H8.31985L8.99973 5.86963Z" fill="#FFDA44"/>
</g>
<defs>
<clipPath id="clip0_8201_10047">
<rect width="18" height="18" fill="white"/>
</clipPath>
</defs>
</svg>
