<svg width="18" height="18" viewBox="0 0 18 18" fill="none" xmlns="http://www.w3.org/2000/svg">
<g clip-path="url(#clip0_8201_10043)">
<path d="M18 9.00001C18 7.89913 17.802 6.84455 17.4402 5.8696L9 5.47827L0.559793 5.86956C0.198035 6.84455 0 7.89913 0 9.00001C0 10.1009 0.198035 11.1555 0.559793 12.1304L9 12.5218L17.4402 12.1305C17.802 11.1555 18 10.1009 18 9.00001Z" fill="#496E2D"/>
<path d="M8.99978 18C12.8695 18 16.1683 15.5576 17.44 12.1304H0.55957C1.83121 15.5576 5.13009 18 8.99978 18Z" fill="#D80027"/>
<path d="M0.55957 5.86958H17.44C16.1683 2.44237 12.8695 0 8.99978 0C5.13009 0 1.83121 2.44237 0.55957 5.86958Z" fill="#F0F0F0"/>
</g>
<defs>
<clipPath id="clip0_8201_10043">
<rect width="18" height="18" fill="white"/>
</clipPath>
</defs>
</svg>
