<svg width="18" height="18" viewBox="0 0 18 18" fill="none" xmlns="http://www.w3.org/2000/svg">
<g clip-path="url(#clip0_8201_9837)">
<path d="M9 18C13.9706 18 18 13.9706 18 9C18 4.02944 13.9706 0 9 0C4.02944 0 0 4.02944 0 9C0 13.9706 4.02944 18 9 18Z" fill="#F0F0F0"/>
<path d="M9.00023 0C7.19404 0 5.51245 0.532441 4.10296 1.44837L6.41762 2.99978L3.52197 4.49975L6.41762 5.99973L3.52197 7.49971L6.41762 8.99951L3.52197 10.4994L6.41762 11.9994L3.52197 13.4995L6.41762 14.9995L4.10268 16.5514C5.51224 17.4675 7.19394 18 9.00023 18C13.9708 18 18.0002 13.9705 18.0002 9C18.0002 4.02947 13.9708 0 9.00023 0V0Z" fill="#D80027"/>
</g>
<defs>
<clipPath id="clip0_8201_9837">
<rect width="18" height="18" fill="white"/>
</clipPath>
</defs>
</svg>
