<svg width="18" height="18" viewBox="0 0 18 18" fill="none" xmlns="http://www.w3.org/2000/svg">
<g clip-path="url(#clip0_14_1310)">
<mask id="mask0_14_1310" style="mask-type:luminance" maskUnits="userSpaceOnUse" x="-1" y="-1" width="19" height="19">
<path d="M-0.00415039 -0.00140381H17.9958V17.9985H-0.00415039V-0.00140381Z" fill="white"/>
</mask>
<g mask="url(#mask0_14_1310)">
<path fill-rule="evenodd" clip-rule="evenodd" d="M-6.25781 -0.00140381L8.82097 8.99855L-6.25781 17.9985V-0.00140381ZM23.8895 -0.00140381L8.82097 8.99855L23.8792 17.9985L23.8895 -0.00140381Z" fill="#18B637"/>
<path fill-rule="evenodd" clip-rule="evenodd" d="M-6.25781 -0.00140381L8.82097 8.99855L23.8792 -0.00140381H-6.25781ZM-6.25781 17.9985L8.82097 8.99855L23.8792 17.9985H-6.25781Z" fill="#CF0921"/>
<path fill-rule="evenodd" clip-rule="evenodd" d="M23.8895 -0.00140381H21.0815L-6.25781 16.3219V17.9985H-3.44983L23.8895 1.67516V-0.00140381Z" fill="white"/>
<path fill-rule="evenodd" clip-rule="evenodd" d="M14.0255 8.99855C14.0255 10.3789 13.4772 11.7027 12.5012 12.6787C11.5251 13.6548 10.2013 14.2031 8.821 14.2031C7.44067 14.2031 6.11687 13.6548 5.14083 12.6787C4.16479 11.7027 3.61646 10.3789 3.61646 8.99855C3.61646 7.61822 4.16479 6.29442 5.14083 5.31838C6.11687 4.34234 7.44067 3.79401 8.821 3.79401C10.2013 3.79401 11.5251 4.34234 12.5012 5.31838C13.4772 6.29442 14.0255 7.61822 14.0255 8.99855Z" fill="white"/>
<path fill-rule="evenodd" clip-rule="evenodd" d="M-6.25781 -0.00140381V1.67516L21.0815 17.9985H23.8895V16.3219L-3.44983 -0.00140381H-6.25781Z" fill="white"/>
<path fill-rule="evenodd" clip-rule="evenodd" d="M9.83927 7.034L9.16041 7.04428L8.8107 7.62028L8.46099 7.04428L7.79242 7.034L8.12156 6.43743L7.79242 5.85114L8.47127 5.83058L8.82099 5.25458L9.1707 5.84086H9.83927L9.52041 6.43743L9.83927 7.034ZM7.57642 10.9631H6.89757L6.54785 11.5494L6.19814 10.9734L5.51929 10.9528L5.84843 10.3666L5.52957 9.76998L6.19814 9.7597L6.54785 9.1837L6.89757 9.7597L7.57642 9.78027L7.24728 10.3666L7.57642 10.9631ZM12.1638 10.9631H11.485L11.1353 11.5494L10.7855 10.9734L10.117 10.9528L10.4358 10.3666L10.117 9.76998L10.7958 9.7597L11.1455 9.1837L11.4953 9.7597L12.1638 9.78027L11.8347 10.3666L12.1638 10.9631Z" fill="#CF0921" stroke="#18B637" stroke-width="0.243808"/>
</g>
</g>
<defs>
<clipPath id="clip0_14_1310">
<rect width="18" height="18" rx="9" fill="white"/>
</clipPath>
</defs>
</svg>
