<svg width="18" height="18" viewBox="0 0 18 18" fill="none" xmlns="http://www.w3.org/2000/svg">
<g clip-path="url(#clip0_8201_10051)">
<path d="M9 18C13.9706 18 18 13.9706 18 9C18 4.02944 13.9706 0 9 0C4.02944 0 0 4.02944 0 9C0 13.9706 4.02944 18 9 18Z" fill="#F0F0F0"/>
<path d="M14.4801 1.85982C11.2579 -0.619609 6.74216 -0.619609 3.52002 1.85979L9.00004 7.3398L14.4801 1.85982Z" fill="#D80027"/>
<path d="M8.99996 10.6602L3.52002 16.1402C6.74216 18.6196 11.2579 18.6196 14.4801 16.1402L9.00004 10.6602L8.99996 10.6602Z" fill="#D80027"/>
<path d="M7.34004 9.00004L1.86006 3.52002C-0.619369 6.74216 -0.619369 11.2579 1.86006 14.4801L7.34004 9.00004Z" fill="#6DA544"/>
<path d="M10.6606 9.00004L16.1406 14.4801C18.62 11.2579 18.62 6.74216 16.1406 3.52002L10.6606 9.00004Z" fill="#6DA544"/>
<path d="M8.99995 12.913C11.1611 12.913 12.913 11.1611 12.913 8.99995C12.913 6.83884 11.1611 5.08691 8.99995 5.08691C6.83884 5.08691 5.08691 6.83884 5.08691 8.99995C5.08691 11.1611 6.83884 12.913 8.99995 12.913Z" fill="#F0F0F0"/>
<path d="M9.00001 6.26086L9.33888 6.84783H10.0167L9.67775 7.43477L10.0167 8.02173H9.33888L9.00001 8.6087L8.66114 8.02173H7.9834L8.32227 7.43477L7.9834 6.84783H8.66114L9.00001 6.26086Z" fill="#D80027"/>
<path d="M7.27739 9L7.61626 9.58697H8.294L7.95513 10.1739L8.294 10.7609H7.61626L7.27739 11.3478L6.93848 10.7609H6.26074L6.59961 10.1739L6.26074 9.58697H6.93848L7.27739 9Z" fill="#D80027"/>
<path d="M10.7222 9L11.0611 9.58697H11.7388L11.4 10.1739L11.7388 10.7609H11.0611L10.7222 11.3478L10.3833 10.7609H9.70557L10.0444 10.1739L9.70557 9.58697H10.3833L10.7222 9Z" fill="#D80027"/>
</g>
<defs>
<clipPath id="clip0_8201_10051">
<rect width="18" height="18" fill="white"/>
</clipPath>
</defs>
</svg>
