<svg width="18" height="18" viewBox="0 0 18 18" fill="none" xmlns="http://www.w3.org/2000/svg">
<g clip-path="url(#clip0_8201_11441)">
<path d="M9 18C13.9706 18 18 13.9706 18 9C18 4.02944 13.9706 0 9 0C4.02944 0 0 4.02944 0 9C0 13.9706 4.02944 18 9 18Z" fill="#F0F0F0"/>
<path d="M16.0699 7.23912H13.109C13.109 6.69885 12.671 6.26086 12.1308 6.26086L11.3481 7.82607C11.3481 7.82607 12.1829 10.1739 12.1568 10.1739H13.1351C13.6754 10.1739 14.1133 9.73596 14.1133 9.19566C14.6536 9.19566 15.0916 8.75771 15.0916 8.2174H15.059C15.5993 8.21737 16.0699 7.77942 16.0699 7.23912Z" fill="#ACABB1"/>
<path d="M1.93066 7.23912H4.89153C4.89153 6.69885 5.32951 6.26086 5.86978 6.26086L6.6524 7.82607C6.6524 7.82607 5.8176 10.1739 5.84371 10.1739H4.86545C4.32515 10.1739 3.8872 9.73596 3.8872 9.19566C3.3469 9.19566 2.90895 8.75771 2.90895 8.2174H2.94153C2.40123 8.21737 1.93066 7.77942 1.93066 7.23912Z" fill="#ACABB1"/>
<path d="M12.1303 12.5217V12.913H5.86941V12.5217H4.3042V14.0869H5.86941V14.4782H12.1303V14.0869H13.6955V12.5217H12.1303Z" fill="#FFDA44"/>
<path d="M5.86963 6.2608V10.1738C5.86963 12.57 9.00005 13.3043 9.00005 13.3043C9.00005 13.3043 12.1305 12.57 12.1305 10.1738V6.2608L9.00005 5.86951L5.86963 6.2608Z" fill="#0052B4"/>
<path d="M5.86963 7.82617H12.1305V10.174H5.86963V7.82617Z" fill="#D80027"/>
<path d="M10.5653 4.30435V4.89131L10.174 5.08697L9.78267 4.69564V3.52173H8.21746V4.69564L7.82617 5.08697L7.43484 4.89131V4.30435H5.86963V6.26085H12.1305V4.30435H10.5653Z" fill="#FFDA44"/>
</g>
<defs>
<clipPath id="clip0_8201_11441">
<rect width="18" height="18" fill="white"/>
</clipPath>
</defs>
</svg>
