<svg width="18" height="18" viewBox="0 0 18 18" fill="none" xmlns="http://www.w3.org/2000/svg">
<g clip-path="url(#clip0_8201_9900)">
<path d="M18 9C18 13.9705 13.9705 18 9 18C4.02947 18 0 13.9705 0 9C0 9.00214 9 0.000984375 9 0C13.9705 0 18 4.02947 18 9Z" fill="#D80027"/>
<path d="M9.00005 4.30432V7.33982L5.86963 4.30432H9.00005Z" fill="#0052B4"/>
<path d="M4.69549 9.00001H7.33963L4.69549 5.47827L4.3042 8.2174L4.69549 9.00001Z" fill="#0052B4"/>
<path d="M8.97607 9.00003H9.00016C9.00016 8.99195 9.00016 8.98407 9.00016 8.97595C8.99214 8.984 8.98413 8.99202 8.97607 9.00003Z" fill="#F0F0F0"/>
<path d="M9 4.69564C9 3.11203 9 2.07439 9 0H8.99849C4.02859 0.00084375 0 4.02993 0 9H4.69564V6.35586L7.33978 9H8.97595C8.98397 8.99198 8.99198 8.98397 9.00004 8.97592C9.00004 8.36958 9.00004 7.82856 9.00004 7.33985L6.35583 4.69564H9Z" fill="#F0F0F0"/>
<path d="M4.55319 1.17395C3.14557 1.97548 1.97532 3.14569 1.17383 4.55331V9.39134H3.52167V3.52186V3.52179H9.39122C9.39122 2.78129 9.39122 2.07585 9.39122 1.17395H4.55319Z" fill="#D80027"/>
<path d="M9.35794 8.251L5.80252 4.69568H4.6958V4.69575L9.35784 9.35778H9.35791C9.35794 9.35782 9.35794 8.59468 9.35794 8.251Z" fill="#D80027"/>
<path d="M10.1738 4.69568V9C10.1738 11.0967 15.6521 11.0967 15.6521 9V4.69568H10.1738Z" fill="#F3F3F3"/>
<path d="M10.1738 9.00004V9C10.1738 11.0967 12.913 11.7392 12.913 11.7392C12.913 11.7392 15.6521 11.0967 15.6521 9V9.00004H10.1738Z" fill="#6DA544"/>
<path d="M12.9129 7.2782L11.6411 7.82604V8.99994L12.9129 9.78255L14.1846 8.99994V7.82604L12.9129 7.2782Z" fill="#A2001D"/>
<path d="M11.6411 6.6521H14.1846V7.826H11.6411V6.6521Z" fill="#338AF3"/>
</g>
<defs>
<clipPath id="clip0_8201_9900">
<rect width="18" height="18" fill="white"/>
</clipPath>
</defs>
</svg>
