<svg width="18" height="18" viewBox="0 0 18 18" fill="none" xmlns="http://www.w3.org/2000/svg">
<g clip-path="url(#clip0_14_1301)">
<path d="M0 0H18V18H0V0Z" fill="#F7E017"/>
<path d="M0 1.25159V9.24612L18 12.9973V8.74338L0 1.25159Z" fill="white"/>
<path d="M0 5.49841V9.24959L18 16.7484V13.0008L0 5.49841Z" fill="black"/>
<path d="M8.39256 14.2425C7.95375 14.194 7.53157 14.047 7.15756 13.8125C7.09756 13.7725 7.04256 13.7375 7.03256 13.7375C7.02256 13.7375 7.01756 13.785 7.01756 13.84C7.01756 14 6.95256 14.08 6.79256 14.1225C6.63756 14.1625 6.40256 14.0825 6.21256 13.9225C6.03239 13.7683 5.82209 13.6534 5.59506 13.585C5.35856 13.5287 5.10963 13.5607 4.89506 13.675C4.87385 13.6899 4.85015 13.7009 4.82506 13.7075C4.79756 13.7075 4.80006 13.535 4.83006 13.4825C4.86756 13.4075 4.95756 13.3375 5.06506 13.3C5.12006 13.28 5.16506 13.255 5.16506 13.2425C5.16506 13.2325 5.14506 13.1925 5.12256 13.1525C5.05006 13.025 5.08006 12.9025 5.20756 12.805C5.33756 12.705 5.55756 12.69 5.75006 12.7625C5.78258 12.7763 5.81599 12.788 5.85006 12.7975C5.87506 12.7975 5.86006 12.76 5.79006 12.6575C5.71006 12.54 5.69256 12.4825 5.70256 12.34C5.70943 12.2528 5.7472 12.1709 5.80906 12.109C5.87093 12.0471 5.95284 12.0094 6.04006 12.0025C6.18506 11.9925 6.27506 12.0425 6.49006 12.245C7.0675 12.8262 7.82593 13.1931 8.64006 13.285C8.84756 13.31 9.26005 13.2975 9.50255 13.26C10.2708 13.1318 10.983 12.7766 11.5476 12.24C11.7076 12.09 11.7826 12.05 11.9151 12.05C12.0276 12.05 12.1076 12.085 12.1901 12.175C12.2651 12.2575 12.2901 12.335 12.2801 12.4625C12.2751 12.5425 12.2626 12.58 12.2151 12.66C12.1451 12.7725 12.1576 12.785 12.2951 12.73C12.4851 12.655 12.7176 12.69 12.8426 12.81C12.9526 12.915 12.9625 13.02 12.8775 13.16C12.845 13.2125 12.82 13.26 12.82 13.27C12.82 13.285 12.845 13.29 12.9575 13.31C13.1075 13.335 13.195 13.445 13.195 13.615C13.195 13.665 13.1875 13.7075 13.18 13.7075C13.1725 13.7075 13.115 13.685 13.0551 13.66C12.8801 13.5875 12.7801 13.57 12.5751 13.5725C12.4201 13.5725 12.3676 13.58 12.2601 13.615C12.0801 13.6776 11.9144 13.7753 11.7726 13.9025C11.6126 14.045 11.5126 14.09 11.3576 14.0875C11.2126 14.0875 11.1151 14.045 11.0626 13.9625C11.0351 13.9175 11.0301 13.8925 11.0376 13.7925C11.0426 13.7275 11.0401 13.675 11.0376 13.675C11.0301 13.675 10.9751 13.71 10.9126 13.7525C10.7698 13.8548 10.6144 13.938 10.4501 14C9.79208 14.2383 9.08791 14.3213 8.39256 14.2425Z" fill="#CF1126"/>
<path d="M8.65751 13.13C8.17392 13.0855 7.7054 12.9383 7.28331 12.6982C6.86122 12.458 6.49529 12.1305 6.21001 11.7375C5.60001 10.9075 5.41001 9.80999 5.59501 8.80749C5.69501 8.34999 5.89501 7.89249 6.23251 7.56749C5.95427 8.1449 5.87769 8.79892 6.01501 9.42499C6.24001 10.67 7.29001 11.7225 8.54751 11.905C9.04751 12.0475 9.56001 11.895 10.035 11.7425C11.085 11.3725 11.885 10.3775 11.98 9.26499C12.0625 8.66499 11.9725 8.03749 11.7 7.48999C11.855 7.57249 12.05 7.89499 12.165 8.10999C12.565 8.88499 12.5825 9.81249 12.3475 10.64C12.0275 11.6925 11.2225 12.615 10.16 12.95C9.67527 13.1014 9.16681 13.1624 8.66001 13.13H8.65751Z" fill="#CF1126"/>
<path d="M3.80007 11.7475C3.73757 11.7375 3.66757 11.8 3.69257 11.865C3.73757 11.93 3.81757 11.965 3.88757 11.995C4.07201 12.067 4.26999 12.0977 4.46757 12.085C4.61253 12.085 4.75638 12.0596 4.89257 12.01C4.96757 11.985 5.06257 11.96 5.09257 11.875C5.12507 11.8225 5.06757 11.7675 5.01507 11.7775C4.94007 11.795 4.86507 11.8275 4.79007 11.85C4.62522 11.8966 4.45337 11.9136 4.28257 11.9C4.15827 11.8819 4.03711 11.8465 3.92257 11.795C3.88257 11.7775 3.84507 11.7525 3.80007 11.7475Z" fill="#CF1126"/>
<path d="M3.87003 11.4874C3.80753 11.4774 3.75253 11.5524 3.77753 11.6124C3.82753 11.6824 3.91003 11.7199 3.98753 11.7524C4.12274 11.8054 4.26739 11.8301 4.41253 11.8249H4.45003C4.57346 11.8254 4.69579 11.8017 4.81003 11.7549C4.87753 11.7274 4.96253 11.6999 4.99253 11.6249C5.01503 11.5824 4.99753 11.5224 4.94253 11.5174C4.89753 11.5174 4.85503 11.5474 4.81003 11.5599C4.64717 11.6272 4.47062 11.6546 4.29503 11.6399C4.18503 11.6274 4.08253 11.5874 3.98253 11.5399C3.94503 11.5224 3.91253 11.4949 3.87003 11.4899V11.4874Z" fill="#CF1126"/>
<path d="M3.95753 11.2399C3.90253 11.2324 3.86503 11.2949 3.87503 11.3424C3.88253 11.3874 3.92003 11.4174 3.95253 11.4424C4.08865 11.5367 4.25215 11.5833 4.41753 11.5749H4.45753C4.56148 11.5742 4.66397 11.5503 4.75753 11.5049C4.82003 11.4799 4.89253 11.4474 4.91503 11.3749C4.92503 11.3424 4.93003 11.2949 4.89253 11.2749C4.85253 11.2549 4.81503 11.2874 4.78003 11.2999C4.66044 11.3628 4.52761 11.3962 4.39253 11.3974C4.27658 11.3928 4.16378 11.3584 4.06503 11.2974C4.02753 11.2799 3.99753 11.2474 3.95753 11.2399Z" fill="#CF1126"/>
<path d="M3.03754 7.56744C2.95754 7.64994 3.02004 7.79994 3.01254 7.90494C3.05754 8.23494 3.11004 8.56744 3.23254 8.87994C3.38254 9.17994 3.70254 9.34244 3.89504 9.60994C3.96504 9.73744 3.94004 9.89244 3.95504 10.0349C3.96504 10.4174 3.96254 10.8024 3.95504 11.1849C4.13004 11.2749 4.31754 11.3599 4.51754 11.3274C4.63504 11.2999 4.85504 11.2824 4.88004 11.1649L4.85504 9.17744C4.78754 8.97494 4.58003 8.86994 4.42754 8.73994C4.30007 8.61411 4.18146 8.47963 4.07254 8.33744C4.00754 8.22494 3.75004 8.18744 3.84254 8.37744C3.89754 8.54494 4.03504 8.66744 4.07004 8.84244C4.07754 8.93994 4.19504 9.11744 4.09504 9.17244C4.03344 9.06378 3.94011 8.97655 3.82754 8.92244C3.71754 8.83994 3.53504 8.80494 3.49504 8.65994C3.45902 8.4537 3.36342 8.2625 3.22004 8.10994C3.25754 7.92494 3.22004 7.69244 3.06004 7.57244L3.03754 7.56744Z" fill="#CF1126"/>
<path d="M3.28498 7.60492C3.20998 7.61742 3.21498 7.70992 3.24748 7.75992C3.28454 7.86752 3.29399 7.98271 3.27498 8.09492C3.41208 8.24757 3.50385 8.43545 3.53998 8.63742C3.53998 8.71242 3.61998 8.73742 3.67248 8.77492C3.79498 8.85242 3.92998 8.90992 4.03998 9.00742C4.06248 9.03242 4.07998 9.05742 4.06498 9.00742C4.04748 8.94242 4.03998 8.87242 3.98998 8.82492C3.91998 8.74992 3.83498 8.68492 3.73498 8.66492C3.72748 8.55992 3.67748 8.46492 3.63248 8.37492C3.58248 8.28742 3.52998 8.19492 3.44498 8.13992C3.44498 7.98742 3.44498 7.82742 3.37998 7.68492C3.35998 7.64992 3.32998 7.60742 3.28498 7.60492Z" fill="#CF1126"/>
<path d="M3.49253 7.66492C3.44253 7.67992 3.45253 7.74492 3.46753 7.78242C3.48937 7.89097 3.49777 8.00181 3.49253 8.11242C3.59003 8.18742 3.64753 8.29742 3.70253 8.40242C3.73753 8.47242 3.76753 8.54742 3.78003 8.62492C3.85753 8.64992 3.92503 8.69992 3.98503 8.74992C3.96003 8.67992 3.91003 8.62492 3.87253 8.55742C3.83503 8.48992 3.79753 8.41742 3.78003 8.33992C3.70503 8.26242 3.66503 8.14992 3.68003 8.03992C3.68503 7.92242 3.64753 7.79992 3.56753 7.70992C3.54753 7.68992 3.52253 7.66742 3.49253 7.66492Z" fill="#CF1126"/>
<path d="M3.72999 7.69994C3.69999 7.70494 3.68499 7.72994 3.66999 7.75244C3.66249 7.77494 3.68999 7.79744 3.69499 7.82244C3.72765 7.90497 3.73967 7.99422 3.72999 8.08244C3.72749 8.14494 3.74999 8.20744 3.77999 8.25744C3.78561 8.23819 3.79702 8.22115 3.81268 8.20862C3.82834 8.19609 3.84748 8.1887 3.86749 8.18744C3.87999 8.18744 3.90249 8.19244 3.89249 8.16994C3.88249 8.04994 3.86499 7.92994 3.82249 7.81994C3.81017 7.77662 3.78592 7.73763 3.75249 7.70744C3.74749 7.70244 3.73749 7.69744 3.72749 7.69994H3.72999Z" fill="#CF1126"/>
<path d="M14.1999 11.7475C14.2624 11.7375 14.3324 11.8 14.3074 11.865C14.2624 11.93 14.1824 11.965 14.1124 11.995C13.928 12.067 13.73 12.0977 13.5324 12.085C13.3875 12.085 13.2436 12.0596 13.1074 12.01C13.0324 11.985 12.9374 11.96 12.9074 11.875C12.8749 11.8225 12.9324 11.7675 12.9849 11.7775C13.0599 11.795 13.1349 11.8275 13.2099 11.85C13.3748 11.8966 13.5466 11.9136 13.7174 11.9C13.8417 11.8819 13.9629 11.8465 14.0774 11.795C14.1174 11.7775 14.1549 11.7525 14.1999 11.7475Z" fill="#CF1126"/>
<path d="M14.13 11.4874C14.1925 11.4774 14.2475 11.5524 14.2225 11.6124C14.1725 11.6824 14.09 11.7199 14.0125 11.7524C13.8773 11.8054 13.7326 11.8301 13.5875 11.8249H13.55C13.4265 11.8254 13.3042 11.8017 13.19 11.7549C13.1225 11.7274 13.0375 11.6999 13.0075 11.6249C12.985 11.5824 13.0025 11.5224 13.0575 11.5174C13.1025 11.5174 13.145 11.5474 13.19 11.5599C13.3528 11.6272 13.5294 11.6546 13.705 11.6399C13.815 11.6274 13.9175 11.5874 14.0175 11.5399C14.055 11.5224 14.0875 11.4949 14.13 11.4899V11.4874Z" fill="#CF1126"/>
<path d="M14.0425 11.2399C14.0975 11.2324 14.135 11.2949 14.125 11.3424C14.1175 11.3874 14.08 11.4174 14.0475 11.4424C13.9113 11.5367 13.7478 11.5833 13.5825 11.5749H13.5425C13.4385 11.5742 13.336 11.5503 13.2425 11.5049C13.18 11.4799 13.1075 11.4474 13.085 11.3749C13.075 11.3424 13.07 11.2949 13.1075 11.2749C13.1475 11.2549 13.185 11.2874 13.22 11.2999C13.3396 11.3628 13.4724 11.3962 13.6075 11.3974C13.7234 11.3928 13.8362 11.3584 13.935 11.2974C13.9725 11.2799 14.0025 11.2474 14.0425 11.2399Z" fill="#CF1126"/>
<path d="M14.9625 7.56744C15.0425 7.64994 14.98 7.79994 14.9875 7.90494C14.9425 8.23494 14.89 8.56744 14.7675 8.87994C14.6175 9.17994 14.2975 9.34244 14.105 9.60994C14.035 9.73744 14.06 9.89244 14.045 10.0349C14.035 10.4174 14.0375 10.8024 14.045 11.1849C13.87 11.2749 13.6825 11.3599 13.4825 11.3274C13.365 11.2999 13.145 11.2824 13.12 11.1649L13.145 9.17744C13.2125 8.97494 13.42 8.86994 13.5725 8.73994C13.6999 8.61411 13.8185 8.47963 13.9275 8.33744C13.9925 8.22494 14.25 8.18744 14.1575 8.37744C14.1025 8.54494 13.965 8.66744 13.93 8.84244C13.9225 8.93994 13.805 9.11744 13.905 9.17244C13.9666 9.06378 14.0599 8.97655 14.1725 8.92244C14.2825 8.83994 14.465 8.80494 14.505 8.65994C14.541 8.4537 14.6366 8.2625 14.78 8.10994C14.7425 7.92494 14.78 7.69244 14.94 7.57244L14.9625 7.56744Z" fill="#CF1126"/>
<path d="M14.715 7.60492C14.79 7.61742 14.785 7.70992 14.7525 7.75992C14.7155 7.86752 14.706 7.98271 14.725 8.09492C14.5879 8.24757 14.4961 8.43545 14.46 8.63742C14.46 8.71242 14.38 8.73742 14.3275 8.77492C14.205 8.85242 14.07 8.90992 13.96 9.00742C13.9375 9.03242 13.92 9.05742 13.935 9.00742C13.9525 8.94242 13.96 8.87242 14.01 8.82492C14.08 8.74992 14.165 8.68492 14.265 8.66492C14.2725 8.55992 14.3225 8.46492 14.3675 8.37492C14.4175 8.28742 14.47 8.19492 14.555 8.13992C14.555 7.98742 14.555 7.82742 14.62 7.68492C14.64 7.64992 14.67 7.60742 14.715 7.60492Z" fill="#CF1126"/>
<path d="M14.5075 7.66492C14.5575 7.67992 14.5475 7.74492 14.5325 7.78242C14.5106 7.89097 14.5022 8.00181 14.5075 8.11242C14.41 8.18742 14.3525 8.29742 14.2975 8.40242C14.2625 8.47242 14.2325 8.54742 14.22 8.62492C14.1425 8.64992 14.075 8.69992 14.015 8.74992C14.04 8.67992 14.09 8.62492 14.1275 8.55742C14.165 8.48992 14.2025 8.41742 14.22 8.33992C14.295 8.26242 14.335 8.14992 14.32 8.03992C14.315 7.92242 14.3525 7.79992 14.4325 7.70992C14.4525 7.68992 14.4775 7.66742 14.5075 7.66492Z" fill="#CF1126"/>
<path d="M14.27 7.69994C14.3 7.70494 14.315 7.72994 14.33 7.75244C14.3375 7.77494 14.31 7.79744 14.305 7.82244C14.2723 7.90497 14.2603 7.99422 14.27 8.08244C14.2725 8.14494 14.25 8.20744 14.22 8.25744C14.2144 8.23819 14.203 8.22115 14.1873 8.20862C14.1717 8.19609 14.1525 8.1887 14.1325 8.18744C14.12 8.18744 14.0975 8.19244 14.1075 8.16994C14.1175 8.04994 14.135 7.92994 14.1775 7.81994C14.1898 7.77662 14.2141 7.73763 14.2475 7.70744C14.2525 7.70244 14.2625 7.69744 14.2725 7.69994H14.27Z" fill="#CF1126"/>
<path d="M8.89252 11.8999C8.72366 11.8817 8.56355 11.8155 8.4311 11.7092C8.29864 11.6029 8.19938 11.4609 8.14502 11.2999C8.15252 11.2449 8.22002 11.3299 8.25252 11.3374C8.31349 11.3738 8.38183 11.396 8.45252 11.4024C8.54002 11.4399 8.59502 11.5274 8.68002 11.5749C8.72002 11.6049 8.86002 11.6649 8.83252 11.5674C8.80002 11.5174 8.77752 11.4524 8.80752 11.3924C8.85252 11.2899 8.92502 11.1999 9.00002 11.1124C9.05252 11.0949 9.09002 11.2024 9.12752 11.2374C9.18002 11.3199 9.24502 11.4199 9.21252 11.5199C9.18252 11.5574 9.16252 11.6699 9.24502 11.6349C9.34502 11.5899 9.42752 11.5149 9.51002 11.4449C9.58502 11.3949 9.67752 11.3924 9.75252 11.3449C9.79002 11.3374 9.86252 11.2674 9.87752 11.3049C9.83274 11.4167 9.77028 11.5205 9.69252 11.6124C9.5723 11.7552 9.4061 11.8515 9.22252 11.8849C9.11252 11.9049 9.00252 11.9099 8.89252 11.8999Z" fill="#CF1126"/>
<path d="M9.28755 11.505C9.29505 11.4375 9.28005 11.37 9.24505 11.305C9.19255 11.2 9.12005 11.105 9.04505 11.0075C8.97505 10.9675 8.93755 11.1 8.89255 11.1375C8.82005 11.245 8.73005 11.355 8.72505 11.4875C8.68505 11.55 8.61005 11.4375 8.57755 11.4C8.51093 11.3143 8.47564 11.2085 8.47755 11.1C8.47151 10.9239 8.50216 10.7486 8.56755 10.585C8.61755 10.445 8.69505 10.31 8.68755 10.16C8.69255 10.0425 8.67005 9.91749 8.57755 9.83999C8.48755 9.76999 8.63505 9.75499 8.68005 9.78999C8.76005 9.79749 8.80255 9.92749 8.87505 9.89499C8.90255 9.82749 8.91005 9.74499 8.97005 9.69249C9.02755 9.61249 9.08755 9.72499 9.10755 9.77999C9.15005 9.82499 9.10755 9.94249 9.17255 9.94499C9.25255 9.88749 9.31005 9.79499 9.41255 9.77249C9.45505 9.74749 9.52505 9.77249 9.47005 9.81749C9.39505 9.88999 9.33005 9.97749 9.31505 10.085C9.29255 10.2175 9.32505 10.3525 9.38255 10.47C9.49505 10.705 9.58255 10.97 9.52505 11.2325C9.50005 11.3475 9.42005 11.4475 9.32505 11.515C9.31255 11.5225 9.29255 11.5225 9.28755 11.505Z" fill="#CF1126"/>
<path d="M9.16749 9.73997C9.13384 9.67232 9.0861 9.61265 9.02749 9.56497C8.96749 9.56497 8.92999 9.63997 8.88999 9.67997C8.86249 9.73247 8.82749 9.81997 8.75749 9.75247C8.64499 9.68747 8.62749 9.54497 8.62749 9.42747C8.61999 9.23747 8.69749 9.05997 8.76499 8.88747C8.80749 8.77997 8.79749 8.65747 8.76999 8.54747C8.73749 8.42247 8.63499 8.33247 8.5575 8.23247C8.5625 8.19497 8.6625 8.21497 8.7 8.22247C8.785 8.24497 8.835 8.31747 8.8975 8.37247C8.9425 8.35747 8.92249 8.26747 8.94499 8.22497C8.94499 8.16497 9.02499 8.08747 9.05749 8.17247C9.10749 8.22747 9.05749 8.33497 9.11999 8.36747C9.17999 8.34497 9.20999 8.27997 9.26499 8.24997C9.29371 8.23138 9.32672 8.22047 9.36086 8.21828C9.395 8.21609 9.42914 8.2227 9.45999 8.23747C9.48249 8.29247 9.39499 8.33747 9.36999 8.38747C9.32002 8.44979 9.28539 8.52299 9.26889 8.60115C9.25239 8.67931 9.25448 8.76026 9.27499 8.83747C9.30999 8.96247 9.36999 9.07497 9.39249 9.19997C9.41949 9.34252 9.41523 9.48923 9.37999 9.62997C9.35749 9.71497 9.28499 9.76997 9.21 9.80497C9.19 9.78747 9.17999 9.76247 9.16749 9.73997Z" fill="#CF1126"/>
<path d="M8.79007 8.17245C8.70507 8.10995 8.67757 8.05245 8.67757 7.93495C8.67757 7.87745 8.69007 7.84495 8.72757 7.78995C8.78757 7.70995 8.77757 7.68495 8.69507 7.70745C8.56257 7.74495 8.50007 7.71245 8.49507 7.59995C8.49507 7.54495 8.50507 7.52245 8.57757 7.43245C8.63757 7.36245 8.66007 7.32495 8.64757 7.31245C8.63507 7.30245 8.56507 7.36245 8.42257 7.50745C8.33322 7.60167 8.23803 7.69018 8.13757 7.77245C7.89257 7.93745 7.65757 7.96245 7.55007 7.83495C7.49507 7.76995 7.49757 7.73495 7.56007 7.69495C7.59988 7.66806 7.63675 7.63706 7.67007 7.60245C7.7926 7.49058 7.92767 7.39327 8.07257 7.31245C8.16257 7.26745 8.18257 7.23745 8.12507 7.23745C8.05007 7.23745 7.81257 7.39245 7.63007 7.55745C7.57757 7.60745 7.50007 7.66245 7.46007 7.68245C7.34884 7.72302 7.22847 7.73168 7.11257 7.70745C7.05757 7.68995 6.95507 7.59495 6.95507 7.55995C6.95507 7.55245 6.98007 7.53245 7.00507 7.51495C7.04582 7.49193 7.08432 7.46515 7.12007 7.43495C7.26507 7.30995 7.54007 7.17745 7.75757 7.12995C7.82757 7.11745 7.80007 7.07995 7.72257 7.08495C7.4931 7.12878 7.27824 7.22933 7.09757 7.37745C6.89008 7.54995 6.57757 7.53245 6.47757 7.34495C6.46007 7.31245 6.44757 7.28245 6.45257 7.27745C6.62966 7.23276 6.80084 7.1673 6.96257 7.08245C7.10187 7.00036 7.25537 6.94523 7.41507 6.91995C7.48507 6.90745 7.49007 6.87245 7.42257 6.86495C7.33257 6.85495 7.19757 6.89995 6.96008 7.01495C6.65258 7.16745 6.56508 7.19495 6.40508 7.18495C6.25508 7.17495 6.17258 7.13745 6.05508 7.02495C5.97508 6.94995 5.86508 6.76245 5.88508 6.73996C6.01487 6.76725 6.14757 6.77816 6.28008 6.77245C6.48758 6.77245 6.54508 6.76745 6.65508 6.73495C6.86997 6.66686 7.07254 6.56473 7.25507 6.43246C7.5124 6.21477 7.83803 6.09443 8.17507 6.09246C8.48507 6.09246 8.68007 6.16246 8.85507 6.33996C8.91507 6.39996 8.96507 6.43746 8.97257 6.42996C8.98007 6.42246 8.98757 6.31746 8.99007 6.19746C8.99007 6.19746 9.08257 6.18746 9.10257 6.21496C9.10257 6.40746 9.10257 6.42496 9.13257 6.42496C9.15007 6.42496 9.17007 6.40496 9.18257 6.37496C9.20757 6.31246 9.30757 6.22496 9.41257 6.16996C9.63757 6.05746 10.0301 6.05246 10.3451 6.16246C10.4957 6.21959 10.6365 6.29971 10.7626 6.39996C10.9465 6.52931 11.1487 6.63043 11.3626 6.69995C11.5326 6.74995 11.8376 6.76245 11.9901 6.72495C12.0347 6.71463 12.0797 6.70629 12.1251 6.69995C12.1826 6.69995 12.0851 6.88995 11.9701 7.00245C11.7601 7.20745 11.4876 7.20495 11.1051 6.99995C10.8651 6.86995 10.5801 6.79995 10.5801 6.86995C10.5801 6.88495 10.5951 6.89495 10.6176 6.89495C10.7001 6.89495 10.8601 6.94995 11.0851 7.05745C11.2264 7.13897 11.3815 7.19404 11.5426 7.21995C11.6001 7.21995 11.6026 7.25745 11.5476 7.33745C11.4901 7.42245 11.3926 7.46245 11.2551 7.46245C11.1226 7.46245 11.0476 7.43495 10.9301 7.33745C10.7301 7.17245 10.2401 6.98745 10.2576 7.08745C10.2626 7.10495 10.2851 7.11745 10.3376 7.12495C10.5487 7.17083 10.7464 7.26495 10.9151 7.39995L11.0626 7.50745C11.0901 7.52245 11.0901 7.52745 11.0676 7.56995C11.0326 7.63995 10.9376 7.69245 10.8376 7.70245C10.7076 7.71745 10.5926 7.67745 10.4751 7.57745C10.2251 7.36995 9.99257 7.21995 9.91757 7.21995C9.85507 7.21995 9.88257 7.25495 9.99257 7.31245C10.1349 7.38782 10.2675 7.48016 10.3876 7.58745C10.4376 7.63495 10.4951 7.67995 10.5126 7.68995C10.5601 7.71495 10.5576 7.74995 10.5076 7.81495C10.4576 7.87995 10.3726 7.90995 10.2651 7.89745C10.0501 7.87495 9.88007 7.77245 9.61507 7.49745C9.55206 7.42708 9.48351 7.36187 9.41007 7.30245C9.37507 7.30245 9.39757 7.34995 9.46507 7.42745C9.55007 7.51995 9.56507 7.57245 9.53257 7.65245C9.50507 7.71745 9.45757 7.73495 9.36257 7.70745C9.26257 7.68245 9.24757 7.70745 9.31257 7.78495C9.40757 7.90745 9.39507 8.05245 9.27507 8.15495C9.25025 8.17886 9.2215 8.19831 9.19007 8.21245C9.18007 8.21245 9.15507 8.18745 9.13257 8.15245C9.05757 8.03745 8.99007 8.03745 8.91507 8.15245C8.89925 8.17801 8.88257 8.20302 8.86507 8.22745C8.83977 8.20953 8.81477 8.1912 8.79007 8.17245Z" fill="#CF1126"/>
<path d="M9.16748 5.82495L9.03748 5.92495L8.92249 5.83995V6.53495H9.16748V5.82495Z" fill="#CF1126"/>
<path d="M8.37258 5.10747C8.34985 5.38854 8.27347 5.66264 8.14758 5.91497L8.42508 5.65747L8.61758 5.88747L8.82758 5.65247L9.04008 5.85247L9.24508 5.64497L9.45758 5.89497L9.64258 5.68997L9.95758 5.91497C9.84258 5.66497 9.69008 5.44997 9.70758 5.09497C9.40508 5.31997 8.68258 5.35997 8.37258 5.10497V5.10747Z" fill="#CF1126"/>
<path d="M8.92502 4.94C8.81252 4.94 8.69502 4.9425 8.59002 4.965C8.52048 4.97606 8.45405 5.00161 8.39502 5.04C8.40252 5.255 9.42002 5.3425 9.69252 5.045C9.63119 5.00255 9.56115 4.97437 9.48752 4.9625C9.38752 4.9425 9.27252 4.9425 9.16502 4.9375V5.115H8.92502V4.94Z" fill="#CF1126"/>
<path d="M9.12259 3.84998H8.96509V5.08497H9.12509L9.12259 3.84998Z" fill="#CF1126"/>
<path d="M9.12252 3.87998L9.06252 4.47248L9.67002 4.76998L9.36252 4.35748L9.78252 4.21998L9.12252 3.87998ZM9.05502 3.72748C8.96252 3.72748 8.89502 3.76248 8.89502 3.80248C8.89502 3.84248 8.96252 3.87748 9.05502 3.87748C9.14752 3.87748 9.21502 3.84248 9.21502 3.80248C9.21502 3.76248 9.14752 3.72748 9.05502 3.72748Z" fill="#CF1126"/>
<path d="M8.77504 14.0976C8.87699 14.0625 8.93324 14.0027 8.97191 13.8867C8.98872 13.8425 9.00052 13.7965 9.00707 13.7496C8.99652 13.7144 8.95082 13.7144 8.90512 13.7566C8.86996 13.7812 8.86996 13.7953 8.87699 13.8515C8.9016 13.9922 8.85238 14.0273 8.5852 14.0555C8.56059 14.0555 8.48324 14.0555 8.41645 14.0449C8.28988 14.0308 8.2477 14.0449 8.2934 14.0801C8.31695 14.0962 8.34312 14.1081 8.37074 14.1152C8.44106 14.1328 8.70121 14.1222 8.77504 14.0941V14.0976ZM9.32699 14.073C9.34106 14.059 9.39027 14.0379 9.43949 14.0203C9.50277 13.9992 9.53793 13.9781 9.56254 13.9359C9.63988 13.8199 9.62582 13.7215 9.51332 13.5844C9.45004 13.514 9.42192 13.514 9.3727 13.5984C9.33051 13.6687 9.33051 13.6687 9.39379 13.6863C9.42895 13.6933 9.45707 13.7215 9.47465 13.7496C9.54145 13.8656 9.52035 13.9359 9.42191 13.9359C9.33051 13.9359 9.3059 13.95 9.28129 14.0062C9.27125 14.0299 9.26417 14.0547 9.2602 14.0801C9.2602 14.1047 9.29535 14.1012 9.32699 14.073ZM9.14418 13.9394C9.16176 13.8937 9.16879 13.8129 9.16527 13.6441C9.16527 13.514 9.16176 13.4051 9.15473 13.398C9.14066 13.3875 9.06684 13.4332 9.05629 13.4648C9.05277 13.4824 9.05981 13.5176 9.07387 13.5457C9.09848 13.5914 9.10199 13.6336 9.09496 13.8094C9.08442 14.0308 9.09848 14.066 9.14418 13.9394Z" fill="#F7E017"/>
<path d="M8.72234 13.8375C8.73289 13.7954 8.74344 13.711 8.74695 13.6477C8.75398 13.5879 8.76453 13.5071 8.77508 13.4719C8.8032 13.3875 8.77508 13.3664 8.70476 13.4157L8.65555 13.4508L8.66609 13.5739C8.67664 13.6864 8.65906 13.8938 8.63094 13.9746C8.62742 13.9993 8.63797 13.9922 8.66609 13.9606C8.69357 13.9228 8.71274 13.8797 8.72234 13.834V13.8375ZM8.34617 13.8973C8.43758 13.82 8.42703 13.6864 8.44812 13.5809C8.44812 13.5106 8.49383 13.4262 8.46219 13.3664C8.37781 13.3805 8.32156 13.4614 8.36726 13.5422C8.37078 13.6371 8.36726 13.7391 8.32156 13.8235C8.28289 13.8762 8.15633 13.8586 8.16336 13.7848C8.195 13.6688 8.05789 13.725 8.00164 13.7567C7.95945 13.7848 7.87156 13.7883 7.9032 13.7145C7.88211 13.6161 7.75906 13.6793 7.69226 13.6793C7.62898 13.6793 7.68523 13.5493 7.59383 13.5739C7.42508 13.5563 7.23523 13.5739 7.08758 13.4684C7.0032 13.4297 7.01726 13.3278 7.05945 13.2575C7.1157 13.1661 7.12976 13.05 7.21414 12.9797C7.29851 12.8989 7.1368 12.934 7.09812 12.9621C7.01726 13.0043 7.09109 13.1204 7.02781 13.1836C6.98562 13.2539 6.93289 13.3418 6.845 13.3313C6.7114 13.3067 6.63406 13.1836 6.54265 13.1028C6.4618 13.0852 6.5075 13.2329 6.54969 13.2645C6.63298 13.3262 6.72722 13.3715 6.82742 13.3981C6.92586 13.3805 6.92937 13.5106 7.01375 13.5317C7.16844 13.602 7.3407 13.6231 7.50594 13.6336C7.57625 13.6371 7.53758 13.7567 7.62547 13.7321C7.67469 13.7461 7.78367 13.7145 7.78719 13.7707C7.71687 13.8586 7.8575 13.8586 7.91375 13.8411C7.98406 13.8305 8.06844 13.8059 8.08953 13.8973C8.14578 13.9606 8.25125 13.95 8.31805 13.9149L8.34617 13.8973Z" fill="#F7E017"/>
<path d="M6.85548 13.1379C6.88009 13.1027 6.92227 13.0324 6.94688 12.9797C6.96605 12.9335 6.99084 12.8898 7.02071 12.8496C7.06641 12.8004 7.04181 12.7723 6.96798 12.7898C6.93282 12.7969 6.91524 12.8109 6.91173 12.8426C6.89063 12.948 6.85196 13.057 6.81681 13.1062C6.75352 13.1977 6.75352 13.2012 6.78165 13.2012C6.7922 13.2012 6.82384 13.173 6.85196 13.1379H6.85548ZM5.91329 12.5508C5.84298 12.5508 5.84298 12.5965 5.90977 12.6211C5.94141 12.6316 5.96954 12.6562 5.99063 12.7055C6.06095 12.8355 6.0961 12.8602 6.27188 12.8742L6.3879 12.8848L6.39141 12.9551C6.39493 12.9902 6.40548 13.0254 6.41251 13.0254C6.42306 13.0254 6.46524 13.0043 6.51095 12.9832C6.59181 12.941 6.67266 12.8426 6.67266 12.7828C6.67266 12.7441 6.60235 12.6984 6.5461 12.6984C6.50223 12.7049 6.46094 12.7231 6.42657 12.7512C6.30001 12.8426 6.16641 12.8215 6.09259 12.7055C6.03282 12.607 5.96954 12.5508 5.91329 12.5508ZM6.52501 12.7969C6.56016 12.7969 6.5672 12.8215 6.54962 12.8672C6.53556 12.9023 6.49337 12.9023 6.47931 12.8672C6.46876 12.832 6.48985 12.7969 6.52501 12.7969ZM11.2676 12.6422C11.2219 12.6422 11.2078 12.6527 11.1797 12.6984C11.1305 12.7688 11.127 12.9199 11.1727 12.9727C11.1973 13.0078 11.2008 13.0078 11.2606 12.9832C11.3414 12.948 11.3555 12.9516 11.352 12.9938C11.352 13.1063 11.1938 13.3172 11.0285 13.4332C10.9947 13.4519 10.9649 13.477 10.9406 13.507C10.9266 13.5422 10.9899 13.5316 11.0637 13.493C11.1691 13.4402 11.3027 13.3031 11.359 13.1941C11.4012 13.1062 11.4082 13.0781 11.4152 12.927C11.4152 12.7863 11.4152 12.7477 11.3906 12.6984C11.366 12.6457 11.3555 12.6422 11.2887 12.6422H11.2676ZM11.2746 12.7406C11.3098 12.7406 11.3133 12.7477 11.3168 12.7969C11.3203 12.8391 11.3168 12.8637 11.2922 12.8848C11.257 12.9129 11.257 12.9129 11.2289 12.8707C11.1938 12.8109 11.2149 12.7406 11.2746 12.7406ZM10.5152 13.8059C10.6409 13.7535 10.7434 13.6573 10.8035 13.5352C10.8221 13.4979 10.8374 13.4591 10.8492 13.4191C10.8492 13.398 10.7789 13.3664 10.7332 13.3664C10.6875 13.3664 10.684 13.3348 10.6981 13.2539C10.7191 13.173 10.6981 13.0746 10.6629 13.0746C10.6488 13.0746 10.6277 13.0922 10.6137 13.1133C10.5891 13.1484 10.5891 13.166 10.6066 13.2188C10.6313 13.2891 10.6102 13.3488 10.5434 13.3945C10.5082 13.4191 10.4906 13.4473 10.4906 13.4719C10.4906 13.493 10.4941 13.5105 10.4977 13.5105L10.5785 13.4719L10.6488 13.4297L10.6945 13.4648C10.7156 13.4824 10.7367 13.5141 10.7367 13.5316C10.7367 13.6195 10.4836 13.7707 10.3078 13.7848C10.2164 13.7918 10.2024 13.7848 10.1672 13.7566C10.1426 13.7285 10.132 13.7074 10.1391 13.6758L10.1602 13.5809C10.1777 13.5035 10.1426 13.5141 10.0863 13.6055C10.0371 13.6758 10.0231 13.7602 10.0512 13.8023C10.0723 13.8375 10.2164 13.8691 10.3184 13.8621C10.3816 13.8586 10.4484 13.841 10.5152 13.8059ZM11.4891 13.2609C11.5805 13.1695 11.6227 13.057 11.6227 12.8848V12.7547L11.6965 12.7195C11.7949 12.6738 11.8899 12.5789 11.8899 12.5297C11.8899 12.4734 11.8652 12.477 11.8231 12.5367C11.7914 12.5789 11.7527 12.6035 11.5981 12.6738C11.5594 12.6914 11.5559 12.702 11.5488 12.8637C11.5383 13.05 11.5137 13.1168 11.4082 13.2469C11.3449 13.3207 11.3414 13.3313 11.3871 13.3313C11.4047 13.3313 11.4504 13.3031 11.4926 13.2609H11.4891ZM10.4871 13.1555C10.4977 13.1309 10.4449 13.1133 10.4238 13.1344C10.4133 13.1449 10.4133 13.159 10.4203 13.1695C10.4344 13.1941 10.4801 13.1871 10.4906 13.159L10.4871 13.1555ZM11.8688 12.8004C11.8793 12.7723 11.8266 12.7547 11.8055 12.7758C11.7949 12.7863 11.7949 12.8039 11.802 12.8109C11.816 12.8355 11.8617 12.8285 11.8723 12.8004H11.8688ZM10.2059 11.8301C10.1707 11.8477 10.1531 11.8863 10.1285 11.918C10.1109 11.9285 10.125 11.9391 10.1356 11.9531C10.1988 12.0199 10.2234 12.1113 10.2551 12.1992C10.2832 12.2977 10.3219 12.4066 10.2902 12.5121C10.2762 12.5508 10.2445 12.593 10.1988 12.5824C10.1215 12.5754 10.0477 12.5578 9.97384 12.5578C9.90352 12.5578 9.85079 12.6211 9.78399 12.6141C9.73829 12.6176 9.7418 12.5262 9.69962 12.5508C9.67852 12.6 9.68907 12.6527 9.68556 12.7055C9.6961 12.7125 9.7172 12.7055 9.72774 12.7055H9.86837C9.8754 12.7547 9.87188 12.8109 9.90704 12.8461C9.95626 12.8637 10.009 12.8461 10.0512 12.8285C10.1004 12.8074 10.1074 12.7477 10.1215 12.7055C10.1356 12.6562 10.1988 12.6703 10.2375 12.6492C10.2816 12.634 10.3195 12.6048 10.3455 12.5661C10.3715 12.5274 10.3842 12.4813 10.3816 12.4348C10.3781 12.2906 10.3219 12.1535 10.2797 12.0199C10.2586 11.9602 10.2445 11.9004 10.2199 11.8406C10.2199 11.8371 10.2129 11.8301 10.2059 11.8336V11.8301ZM9.98087 12.6492C10.0301 12.6492 10.0512 12.709 10.0441 12.7512C10.0231 12.8074 9.95274 12.7723 9.93868 12.7301C9.91407 12.6949 9.93165 12.6457 9.98087 12.6492Z" fill="#F7E017"/>
<path d="M8.10005 12.1816C8.07347 12.1819 8.04764 12.1905 8.02622 12.2063C7.89263 12.3012 7.85747 12.4102 7.94888 12.4523C8.01568 12.484 7.9981 12.5227 7.89263 12.5754C7.74497 12.6457 7.61138 12.6387 7.36529 12.5367C7.302 12.5086 7.28443 12.5191 7.29849 12.5754C7.31255 12.6316 7.36529 12.6598 7.48833 12.6914C7.62544 12.7195 7.78716 12.7125 7.89263 12.6668C7.95436 12.6357 8.00932 12.5927 8.05435 12.5402L8.13521 12.4523L8.23013 12.4629C8.34615 12.477 8.34966 12.4805 8.34966 12.5332C8.34966 12.5789 8.34966 12.5824 8.45865 12.5895L8.63443 12.6C8.68365 12.6 8.71177 12.6105 8.72583 12.6352C8.74693 12.6598 8.76099 12.6633 8.93677 12.6457C9.09849 12.6316 9.13364 12.6316 9.20747 12.6598C9.26021 12.6773 9.31646 12.6844 9.36216 12.6773C9.48872 12.6633 9.66099 12.5613 9.6856 12.484C9.68911 12.477 9.73482 12.4594 9.78755 12.4488C9.91411 12.4242 9.92114 12.3961 9.80161 12.382C9.74288 12.374 9.68515 12.3598 9.62935 12.3398C9.58778 12.323 9.54395 12.3123 9.49927 12.3082C9.43599 12.3082 9.37271 12.3469 9.37271 12.3891C9.37271 12.4172 9.38325 12.4207 9.4606 12.4137C9.53091 12.4031 9.552 12.4066 9.58716 12.4383C9.61529 12.4594 9.62935 12.4805 9.62232 12.4875C9.60825 12.5156 9.4606 12.5824 9.3938 12.593C9.35578 12.6008 9.31622 12.5959 9.2813 12.5789C9.22154 12.5508 9.13716 12.5438 9.11958 12.5684C9.11607 12.5824 9.09497 12.5754 9.07036 12.5508L9.03521 12.5156L8.9438 12.5508C8.85239 12.5859 8.82075 12.5859 8.82075 12.5437C8.82075 12.5227 8.79614 12.5227 8.66255 12.5297C8.51489 12.5402 8.50083 12.5367 8.47271 12.5086C8.4481 12.4805 8.4481 12.4699 8.46568 12.4383C8.48325 12.4137 8.48325 12.4031 8.46568 12.3855C8.45161 12.3715 8.43052 12.3715 8.37427 12.3855C8.23013 12.4242 8.18794 12.4031 8.18794 12.2906C8.18794 12.2203 8.14927 12.1816 8.10005 12.1816ZM8.06489 12.2871C8.07193 12.2871 8.07544 12.2871 8.08599 12.3012C8.10005 12.3117 8.10708 12.3363 8.10005 12.3504C8.0895 12.3855 8.02622 12.382 8.01216 12.3469C8.00864 12.3293 8.01216 12.3117 8.03325 12.2977L8.06138 12.2836L8.06489 12.2871Z" fill="#F7E017"/>
<path d="M7.8048 12.3891C7.88917 12.3328 7.88917 12.3398 7.89972 12.1816C7.91026 12.0762 7.91026 12.0656 7.87862 12.0656C7.83644 12.0656 7.81183 12.1113 7.81183 12.2027C7.81183 12.259 7.8048 12.2871 7.77667 12.3187C7.69933 12.3891 7.51651 12.3574 7.49542 12.266C7.48839 12.2344 7.49542 12.2063 7.53409 12.1535C7.61495 12.041 7.59737 12.0129 7.49894 12.0973C7.42862 12.157 7.41808 12.157 7.43214 12.1078C7.44269 12.0621 7.41808 12.041 7.36183 12.0551C7.33722 12.0621 7.32316 12.0797 7.31612 12.1148C7.30909 12.15 7.29151 12.1676 7.2669 12.1711C7.2212 12.1852 7.14737 12.143 7.14737 12.1043C7.14737 12.0797 7.25987 11.9426 7.40401 11.7879C7.44237 11.7533 7.47658 11.7144 7.50597 11.6719C7.50597 11.6648 7.47433 11.6578 7.43917 11.6578C7.38644 11.6578 7.37589 11.6648 7.37589 11.6895C7.37589 11.7035 7.30206 11.802 7.21066 11.9004C7.02433 12.1113 7.01026 12.157 7.10519 12.2098C7.14206 12.2319 7.18451 12.243 7.2275 12.2418C7.2705 12.2405 7.31223 12.227 7.34776 12.2027L7.40753 12.1605V12.2379C7.40753 12.3328 7.42511 12.3645 7.50245 12.4066C7.54941 12.4302 7.60176 12.4411 7.65423 12.438C7.70669 12.4349 7.75741 12.418 7.80128 12.3891H7.8048ZM11.7177 11.0918C11.6474 11.134 11.7001 11.2219 11.7107 11.2781C11.6825 11.3555 11.5841 11.3766 11.5103 11.3941C11.4048 11.4082 11.331 11.4996 11.2923 11.591C11.2712 11.6508 11.2185 11.7422 11.1622 11.6508C11.113 11.6016 11.0216 11.5629 10.9653 11.6191C10.9196 11.6613 10.9091 11.7246 10.8915 11.7809C10.8669 11.7387 10.8564 11.6754 10.8001 11.6613C10.7122 11.6719 10.7439 11.7844 10.7825 11.8301C10.8212 11.8828 10.8564 11.9531 10.8177 12.0164C10.7896 12.0937 10.6771 12.143 10.6067 12.0797C10.547 12.0445 10.5892 11.9285 10.5294 11.9215C10.4978 11.9461 10.4942 12.0656 10.4485 11.9988C10.4134 11.9426 10.431 11.8652 10.3888 11.816C10.3396 11.823 10.2974 11.9074 10.315 11.9566C10.3757 12.0504 10.4164 12.1557 10.4345 12.266C10.4521 12.3117 10.4345 12.3961 10.4732 12.4137C10.5013 12.3434 10.4732 12.266 10.4978 12.1957C10.561 12.1887 10.6384 12.2168 10.7052 12.2027C10.8036 12.1887 10.881 12.1078 10.9126 12.0199C10.9232 11.9496 10.9126 11.8863 10.9091 11.8195C10.9864 11.8301 11.0673 11.8301 11.1411 11.8547C11.1763 11.9109 11.1306 11.9918 11.12 12.0516C11.0814 12.1781 10.9794 12.2695 10.8845 12.3539C10.8458 12.3785 10.8388 12.4418 10.8985 12.4102C11.0286 12.3539 11.1235 12.2344 11.1798 12.1078C11.222 12.0129 11.1868 11.9039 11.215 11.8055C11.2536 11.7281 11.3485 11.7457 11.4189 11.7457C11.4892 11.7422 11.5525 11.6578 11.5243 11.5875C11.5032 11.5066 11.5911 11.468 11.6474 11.4398C11.7247 11.4012 11.788 11.3203 11.781 11.2289C11.7775 11.1832 11.781 11.0953 11.7177 11.0918ZM11.44 11.5594C11.5243 11.584 11.4259 11.7422 11.3802 11.6402C11.3696 11.6051 11.4013 11.5594 11.44 11.5594ZM11.0532 11.6754C11.1622 11.6684 11.1235 11.8266 11.0321 11.7562C10.9829 11.7316 10.997 11.6719 11.0532 11.6754ZM7.12628 12.2871C7.1298 12.2695 7.12276 12.259 7.1087 12.259C7.07706 12.259 7.05948 12.2871 7.07355 12.3082C7.08761 12.3328 7.12276 12.3187 7.12628 12.2871ZM8.39894 12.1465C8.39894 12.1219 8.38839 12.1113 8.37081 12.1184C8.32862 12.1254 8.32159 12.1781 8.36378 12.1781C8.38839 12.1781 8.39894 12.1676 8.39894 12.143V12.1465ZM6.82745 11.3836C6.77472 11.373 6.74308 11.4152 6.7255 11.4539C6.69034 11.5207 6.64112 11.584 6.57433 11.6191C6.52511 11.6332 6.46886 11.6121 6.43019 11.5875C6.37745 11.5629 6.39151 11.5031 6.36691 11.4609C6.33175 11.4328 6.26847 11.4715 6.26847 11.5172C6.26495 11.577 6.3212 11.6121 6.36691 11.6332C6.40558 11.6578 6.46183 11.6719 6.4794 11.7211C6.4794 11.7633 6.49347 11.809 6.5462 11.7914C6.60245 11.7914 6.61651 11.8617 6.5919 11.9039C6.56614 11.9498 6.55625 12.003 6.56378 12.0551C6.5919 12.0797 6.62003 12.0199 6.64112 11.9988L6.6798 11.9461C6.77823 11.9531 6.88019 11.9637 6.97862 11.9602C7.04894 11.9602 7.11222 11.9145 7.1544 11.8652C7.2212 11.7949 7.27394 11.7176 7.34776 11.6613C7.4005 11.6473 7.37237 11.5488 7.31612 11.577C7.26691 11.598 7.25284 11.6508 7.21769 11.6859C7.16144 11.7562 7.10167 11.8266 7.02784 11.8828C6.97511 11.9039 6.91534 11.8969 6.85909 11.8828C6.838 11.8652 6.9048 11.8477 6.91534 11.8266C6.94698 11.7914 6.98566 11.7633 6.99972 11.7211C6.98214 11.6859 6.92941 11.6824 6.89425 11.6824C6.79933 11.693 6.72901 11.7703 6.63761 11.7773C6.5673 11.7773 6.60245 11.7035 6.63761 11.6789C6.69737 11.6051 6.76417 11.5348 6.83097 11.4609C6.84855 11.4398 6.91534 11.4188 6.87315 11.3906C6.85909 11.3836 6.84151 11.3836 6.82745 11.3836ZM6.87315 11.7562C6.91886 11.7809 6.84151 11.8266 6.80987 11.8195C6.76769 11.8301 6.76769 11.7879 6.80284 11.7809C6.82394 11.7703 6.84855 11.7562 6.87315 11.7562ZM6.72901 11.8547C6.75362 11.8547 6.80987 11.8793 6.75714 11.8934C6.72198 11.9215 6.6798 11.8652 6.72901 11.8547Z" fill="#F7E017"/>
<path d="M7.85396 11.918C7.85396 11.8828 7.79068 11.8863 7.78365 11.925C7.78013 11.9461 7.78365 11.9531 7.8188 11.9496C7.83638 11.9461 7.85396 11.932 7.85396 11.918ZM10.6559 11.6719C10.6629 11.6367 10.6137 11.6156 10.5891 11.6367C10.5645 11.6649 10.5891 11.7106 10.6243 11.707C10.6383 11.7 10.6524 11.686 10.6559 11.6719ZM6.29654 11.3274C6.33872 11.2922 6.33872 11.2887 6.32115 11.2043C6.29302 11.0883 6.29654 11.0742 6.33872 11.0637C6.39497 11.0496 6.53911 11.127 6.57075 11.1867C6.59536 11.236 6.59536 11.236 6.55318 11.2746C6.50747 11.3168 6.50747 11.366 6.55318 11.366C6.58833 11.366 6.6938 11.2676 6.6938 11.2324C6.6938 11.1867 6.57779 11.0707 6.4899 11.0285C6.43471 11.0037 6.37461 10.9917 6.31411 10.9934C6.1981 10.9934 6.18404 11.018 6.21216 11.1516C6.24732 11.3063 6.20161 11.3274 6.07154 11.2113C6.0269 11.1709 5.99225 11.1206 5.97029 11.0645C5.94833 11.0084 5.93967 10.9479 5.94497 10.8879C5.94497 10.7332 6.00474 10.6559 6.13482 10.6418C6.22622 10.6277 6.22271 10.6067 6.13482 10.5926C5.99771 10.5715 5.88872 10.6629 5.84302 10.8176C5.79732 10.9934 5.9063 11.2078 6.09615 11.3168C6.1981 11.3766 6.23677 11.3766 6.29654 11.3274ZM11.5172 11.134C11.5278 11.1235 11.5348 11.0988 11.5348 11.0813C11.5348 11.0637 11.5559 11.0215 11.577 10.9934C11.5948 10.9724 11.609 10.9486 11.6192 10.9231C11.6192 10.8914 11.5665 10.8949 11.5278 10.9231C11.4856 10.9582 11.4575 10.9582 11.4575 10.9266C11.4575 10.9195 11.4751 10.902 11.4997 10.8914C11.5594 10.8633 11.5629 10.8352 11.5137 10.8106C11.4469 10.7824 11.3836 10.8352 11.3766 10.9231C11.3731 10.9828 11.3766 10.9934 11.4223 11.018C11.4645 11.0426 11.4715 11.0567 11.4645 11.0883C11.454 11.1516 11.4786 11.1727 11.5172 11.134ZM12.0094 11.0777C12.0446 11.0461 12.0727 11.0074 12.0727 10.9969C12.0727 10.9863 12.1043 10.9547 12.143 10.9266C12.2485 10.8492 12.2731 10.7719 12.2239 10.6488C12.2063 10.6031 12.1465 10.5363 12.02 10.4203C11.9587 10.3599 11.8916 10.3058 11.8196 10.2586C11.7844 10.2586 11.7879 10.3887 11.8231 10.3992C11.8899 10.4203 11.9286 10.4484 12.027 10.5399C12.1465 10.6453 12.1993 10.7438 12.1676 10.7965C12.143 10.8492 12.1043 10.8317 11.9989 10.7262C11.9461 10.6664 11.8934 10.6207 11.8829 10.6207C11.8688 10.6207 11.8618 10.6383 11.8618 10.6699C11.8618 10.7051 11.8793 10.7402 11.9321 10.8C12.02 10.8985 12.0305 10.9547 11.9672 11.0074C11.9391 11.025 11.918 11.0426 11.911 11.0426C11.8258 10.8972 11.7122 10.7705 11.577 10.6699C11.5594 10.6699 11.5524 10.684 11.5524 10.7227C11.5524 10.7684 11.5629 10.7859 11.5981 10.8035C11.6403 10.8246 11.7528 10.9371 11.8618 11.0707C11.8934 11.1059 11.9251 11.141 11.9321 11.141C11.9356 11.141 11.9708 11.1129 12.0059 11.0777H12.0094ZM12.2274 10.452C12.2133 10.4063 11.911 10.1004 11.8829 10.1004C11.8653 10.1004 11.8618 10.118 11.8653 10.1672C11.8653 10.227 11.8758 10.2375 11.9145 10.2445C11.9426 10.2551 12.02 10.3149 12.0903 10.3852C12.1606 10.4555 12.2239 10.5047 12.2309 10.5012L12.2274 10.452ZM10.4344 13.9219C10.4373 13.9283 10.4385 13.9353 10.4377 13.9422C10.437 13.9491 10.4344 13.9557 10.4303 13.9615C10.4261 13.9673 10.4204 13.972 10.4138 13.9753C10.4072 13.9786 10.3998 13.9803 10.3922 13.9803C10.3847 13.9803 10.3773 13.9786 10.3707 13.9753C10.364 13.972 10.3584 13.9673 10.3542 13.9615C10.35 13.9557 10.3475 13.9491 10.3467 13.9422C10.346 13.9353 10.3472 13.9283 10.3501 13.9219C10.3481 13.9156 10.3478 13.909 10.3491 13.9026C10.3504 13.8962 10.3533 13.8901 10.3575 13.8849C10.3618 13.8797 10.3673 13.8755 10.3736 13.8725C10.3799 13.8696 10.3869 13.8681 10.394 13.8681C10.4011 13.8681 10.408 13.8696 10.4144 13.8725C10.4207 13.8755 10.4262 13.8797 10.4305 13.8849C10.4347 13.8901 10.4376 13.8962 10.4389 13.9026C10.4402 13.909 10.4399 13.9156 10.4379 13.9219H10.4344ZM10.5961 13.8692C10.5961 13.8803 10.5913 13.8911 10.5828 13.899C10.5742 13.9069 10.5626 13.9113 10.5504 13.9113C10.5383 13.9113 10.5267 13.9069 10.5181 13.899C10.5096 13.8911 10.5047 13.8803 10.5047 13.8692C10.5047 13.858 10.5096 13.8472 10.5181 13.8393C10.5267 13.8314 10.5383 13.827 10.5504 13.827C10.5626 13.827 10.5742 13.8314 10.5828 13.8393C10.5913 13.8472 10.5961 13.858 10.5961 13.8692Z" fill="#F7E017"/>
</g>
<defs>
<clipPath id="clip0_14_1301">
<rect width="18" height="18" rx="9" fill="white"/>
</clipPath>
</defs>
</svg>
