<svg width="18" height="18" viewBox="0 0 18 18" fill="none" xmlns="http://www.w3.org/2000/svg">
<g clip-path="url(#clip0_14_1333)">
<path fill-rule="evenodd" clip-rule="evenodd" d="M0 0H18V18H0V0Z" fill="#229E45"/>
<path fill-rule="evenodd" clip-rule="evenodd" d="M9.18979 14.2524L17.2687 9.00706L9.14058 3.74768L1.03003 9.02112L9.18628 14.2524H9.18979Z" fill="#F8E509"/>
<path fill-rule="evenodd" clip-rule="evenodd" d="M12.709 9.00001C12.7232 9.45776 12.6452 9.9137 12.4797 10.3407C12.3143 10.7678 12.0646 11.1572 11.7457 11.4858C11.4268 11.8145 11.045 12.0757 10.6231 12.2539C10.2013 12.4321 9.74786 12.5237 9.28989 12.5232C8.83192 12.5227 8.37872 12.4302 7.95721 12.2511C7.5357 12.0721 7.15449 11.8101 6.83622 11.4808C6.51796 11.1515 6.26914 10.7615 6.10454 10.3342C5.93995 9.9068 5.86294 9.4507 5.87809 8.99298C5.90745 8.10614 6.28062 7.26549 6.91866 6.64885C7.55671 6.03221 8.4096 5.68793 9.29693 5.68884C10.1843 5.68976 11.0364 6.03579 11.6732 6.65374C12.31 7.27169 12.6814 8.11311 12.709 9.00001Z" fill="#2B49A3"/>
<path fill-rule="evenodd" clip-rule="evenodd" d="M8.16682 11.0461L8.06135 10.9828L7.95237 11.0391L7.97698 10.916L7.8926 10.8281L8.01213 10.8141L8.06838 10.7016L8.12112 10.8176L8.24065 10.8387L8.14924 10.9231M10.459 11.6262L10.3535 11.5629L10.241 11.6192L10.2656 11.4961L10.1813 11.4082L10.3043 11.3942L10.3606 11.2817L10.4098 11.3977L10.5293 11.4188L10.4414 11.5031M9.47112 10.6981L9.37971 10.6453L9.28479 10.691L9.30588 10.5856L9.23557 10.5082L9.33752 10.4977L9.38674 10.4028L9.42893 10.5012L9.5344 10.5188L9.45706 10.5891M11.7844 10.3641L11.693 10.3114L11.6016 10.3571L11.6227 10.2551L11.5524 10.1813L11.6543 10.1672L11.7 10.0758L11.7457 10.1707L11.8477 10.1883L11.7703 10.2586M9.42893 9.67151L9.32346 9.60823L9.21448 9.66448L9.23909 9.54143L9.15471 9.45354L9.27424 9.43948L9.33049 9.33049L9.38323 9.44299L9.50276 9.46409L9.41135 9.54846M6.6094 8.61331L6.50393 8.55002L6.39846 8.60627L6.41956 8.48323L6.33518 8.39534L6.45823 8.38127L6.51448 8.26877L6.5637 8.38479L6.68323 8.40588L6.59534 8.49026M6.95041 10.0196L6.84495 9.95979L6.73596 10.0125L6.76057 9.89299L6.6762 9.80159L6.79573 9.78752L6.85198 9.68206L6.90471 9.79104L7.02424 9.81565L6.93284 9.89651M10.4696 8.09299L10.3781 8.04026L10.2797 8.08596L10.3008 7.98049L10.2305 7.89963L10.336 7.88909L10.3852 7.79065L10.4309 7.8926L10.5364 7.91018L10.4555 7.98401M10.2797 9.01057L10.1953 8.96487L10.1215 9.00002L10.1356 8.91565L10.0793 8.85588L10.1637 8.84534L10.2024 8.76799L10.2375 8.84885L10.3219 8.86292L10.2586 8.91916M6.44768 10.2727L6.37737 10.2305L6.30354 10.2656L6.3176 10.1848L6.26135 10.125L6.34573 10.118L6.38088 10.0477L6.41604 10.118L6.4969 10.1356L6.43713 10.1918M11.802 10.5961L11.7422 10.568L11.6824 10.5926L11.6965 10.5328L11.6508 10.4871L11.7176 10.4801L11.7492 10.4274L11.7739 10.4836L11.8406 10.4942L11.7914 10.5364" fill="#FFFFEF"/>
<path fill-rule="evenodd" clip-rule="evenodd" d="M6.45122 10.2761L6.38091 10.234L6.30708 10.2691L6.32466 10.1883L6.26489 10.1285L6.34575 10.1215L6.38442 10.0511L6.41958 10.1215L6.50044 10.139L6.44067 10.1953" fill="#FFFFEF"/>
<path fill-rule="evenodd" clip-rule="evenodd" d="M6.45122 10.2761L6.38091 10.234L6.30708 10.2691L6.32466 10.1883L6.26489 10.1285L6.34575 10.1215L6.38442 10.0511L6.41958 10.1215L6.50044 10.139L6.44067 10.1953M7.5727 10.2761L7.50239 10.234L7.43208 10.2691L7.44614 10.1883L7.38989 10.1285L7.47075 10.1215L7.50591 10.0476L7.54106 10.1215L7.62192 10.139L7.56216 10.1953M7.43208 10.6523L7.36177 10.6101L7.29145 10.6453L7.30552 10.5644L7.24927 10.5047L7.33013 10.4941L7.36528 10.4238L7.40044 10.4941L7.4813 10.5117L7.42153 10.5679M9.76645 9.97029L9.69614 9.9281L9.62231 9.96326L9.63638 9.8824L9.58013 9.82263L9.66099 9.8156L9.69966 9.74177L9.73481 9.8156L9.81216 9.82966L9.75239 9.88591M9.08091 9.97029L9.0106 9.9281L8.93677 9.96326L8.95435 9.8824L8.8981 9.82263L8.97895 9.8156L9.01411 9.74177L9.04927 9.8156L9.13013 9.82966L9.07036 9.88591M7.22466 9.73123L7.18247 9.70662L7.13677 9.72771L7.1438 9.67498L7.10864 9.63982L7.16138 9.63279L7.18599 9.58709L7.20356 9.6363L7.2563 9.64333L7.22114 9.67849M11.7141 10.8984L11.6438 10.8597L11.57 10.8949L11.5875 10.814L11.5313 10.7543L11.6122 10.7437L11.6473 10.6734L11.6825 10.7437L11.7633 10.7613L11.7036 10.8176M11.1411 10.9722L11.0848 10.9371L11.025 10.9722L11.0391 10.9019L10.9899 10.8527L11.0602 10.8457L11.0883 10.7859L11.1165 10.8457L11.1868 10.8597L11.134 10.9054M11.4153 10.9687L11.359 10.9336L11.3028 10.9652L11.3133 10.9019L11.2711 10.8562L11.3344 10.8492L11.3625 10.7929L11.3872 10.8492L11.4504 10.8597L11.4047 10.9054M12.1852 10.2937L12.1325 10.2621L12.0762 10.2902L12.0903 10.2304L12.0481 10.1847L12.1079 10.1777L12.136 10.125L12.1606 10.1812L12.2204 10.1918L12.1747 10.234M11.1446 11.3519L11.0743 11.3133L11.004 11.3484L11.0215 11.2711L10.9653 11.2183L11.0426 11.2078L11.0813 11.141L11.1165 11.2113L11.1903 11.2254L11.134 11.2746M11.1481 11.6578L11.0848 11.6226L11.0215 11.6543L11.0356 11.5769L10.9864 11.5242L11.0567 11.5136L11.0918 11.4469L11.12 11.5172L11.1903 11.5312L11.1375 11.5804M10.6278 10.9687L10.575 10.9371L10.5188 10.9652L10.5329 10.9019L10.4907 10.8597L10.5504 10.8527L10.5786 10.7965L10.6032 10.8527L10.6629 10.8633L10.6172 10.9054M10.1426 10.9687L10.0899 10.9371L10.0336 10.9652L10.0477 10.9019L10.0055 10.8597L10.0653 10.8527L10.0934 10.7965L10.118 10.8527L10.1778 10.8633L10.1356 10.9054M9.31646 10.2445L9.26372 10.2129L9.20747 10.241L9.22153 10.1812L9.17935 10.1355L9.23911 10.1285L9.26724 10.0758L9.29185 10.132L9.35161 10.1426L9.30591 10.1812M9.40786 11.7105L9.36216 11.6859L9.31646 11.7105L9.327 11.6578L9.29185 11.6226L9.34106 11.6121L9.36567 11.5664L9.38677 11.6156L9.4395 11.6226L9.40083 11.6578M8.16333 9.33748L8.05786 9.27771L7.94888 9.33044L7.97349 9.21091L7.88911 9.11951L8.00864 9.10544L8.06489 8.99646L8.11763 9.10896L8.23716 9.13005L8.14575 9.21443" fill="#FFFFEF"/>
<path fill-rule="evenodd" clip-rule="evenodd" d="M12.484 10.2305C12.5502 10.0581 12.6019 9.88056 12.6387 9.69963C10.8246 8.10354 8.79963 7.2844 6.24026 7.45315C6.14857 7.63232 6.07326 7.81941 6.01526 8.01213C7.1894 7.89356 8.37529 8.03008 9.49178 8.41235C10.6083 8.79462 11.629 9.41362 12.484 10.227V10.2305Z" fill="white"/>
<path d="M11.6684 9.33044L11.7316 9.3656C11.7218 9.38517 11.7193 9.40763 11.7246 9.42888C11.7281 9.44294 11.7422 9.46052 11.7598 9.47107C11.7809 9.48513 11.7984 9.49216 11.816 9.49216C11.8301 9.49216 11.8441 9.48162 11.8512 9.47107C11.8547 9.46404 11.8582 9.45701 11.8547 9.44646L11.8441 9.41833L11.802 9.37263C11.7795 9.34983 11.7627 9.32216 11.7527 9.29177C11.7466 9.2689 11.7489 9.24458 11.7592 9.22327C11.7696 9.20196 11.7872 9.18509 11.809 9.17576C11.8277 9.16745 11.8486 9.165 11.8688 9.16873C11.8941 9.17425 11.9181 9.18503 11.9391 9.20037C11.9695 9.22179 11.9938 9.2509 12.0094 9.28474C12.0136 9.30031 12.0143 9.31664 12.0112 9.33249C12.0082 9.34834 12.0015 9.36327 11.9918 9.37615L11.9285 9.33748C11.9355 9.3199 11.9391 9.30232 11.9355 9.28826C11.932 9.27771 11.918 9.26365 11.9004 9.2531C11.8828 9.23904 11.8652 9.23552 11.8512 9.23552C11.8471 9.23565 11.8431 9.23666 11.8395 9.23848C11.8358 9.2403 11.8326 9.24289 11.8301 9.24607C11.8276 9.24963 11.8261 9.2537 11.8255 9.25796C11.8248 9.26223 11.8252 9.26658 11.8266 9.27068C11.8266 9.28474 11.8441 9.30583 11.8688 9.33044L11.9215 9.40076C11.9311 9.41825 11.9355 9.43811 11.9343 9.45803C11.933 9.47794 11.9261 9.49709 11.9145 9.51326C11.9022 9.53068 11.8851 9.54413 11.8652 9.55193C11.8443 9.56149 11.8209 9.56396 11.7984 9.55896C11.7718 9.55217 11.7467 9.54023 11.7246 9.5238C11.6914 9.50387 11.6665 9.47268 11.6543 9.43591C11.6437 9.40427 11.6473 9.36912 11.6684 9.33044ZM11.359 9.13005L11.4293 9.16521C11.4211 9.18274 11.4186 9.20244 11.4223 9.22146C11.4258 9.23904 11.4398 9.25662 11.4574 9.26716C11.4785 9.28123 11.4961 9.28474 11.5137 9.28123C11.5277 9.28123 11.5418 9.27419 11.5488 9.26013C11.5522 9.25364 11.5534 9.24626 11.5523 9.23904C11.5523 9.22849 11.5488 9.22146 11.5383 9.21091L11.4961 9.16521C11.4729 9.1437 11.4549 9.11727 11.4434 9.08787C11.4387 9.07391 11.4372 9.05908 11.4391 9.04448C11.4409 9.02988 11.446 9.01587 11.4539 9.00349C11.4643 8.98801 11.479 8.97581 11.4961 8.96834C11.5149 8.96024 11.5357 8.95779 11.5559 8.9613C11.577 8.9613 11.598 8.97185 11.6262 8.98943C11.6613 9.01404 11.6895 9.03865 11.6965 9.07029C11.7017 9.08533 11.7035 9.10137 11.7017 9.1172C11.6999 9.13303 11.6945 9.14825 11.6859 9.16169L11.6191 9.12302C11.6297 9.10544 11.6297 9.08787 11.6262 9.07732C11.6191 9.06326 11.6086 9.05271 11.591 9.04216C11.5759 9.03052 11.5573 9.02432 11.5383 9.02459C11.5339 9.02511 11.5297 9.02666 11.5261 9.0291C11.5224 9.03155 11.5194 9.03482 11.5172 9.03865C11.5153 9.04248 11.5144 9.04669 11.5144 9.05095C11.5144 9.05522 11.5153 9.05942 11.5172 9.06326C11.5172 9.0738 11.5348 9.0949 11.5594 9.12302C11.5875 9.14763 11.6051 9.17224 11.6156 9.1863C11.6264 9.20387 11.6319 9.22422 11.6313 9.24484C11.6306 9.26546 11.624 9.28545 11.6121 9.30232C11.6001 9.32054 11.5831 9.33489 11.5632 9.34363C11.5432 9.35237 11.5211 9.35512 11.4996 9.35154C11.472 9.34617 11.4457 9.33541 11.4223 9.3199C11.3886 9.30124 11.3625 9.27139 11.3484 9.23552C11.3384 9.2003 11.3422 9.1626 11.359 9.13005ZM10.9793 9.02459L11.1762 8.70818L11.4117 8.8488L11.3766 8.90505L11.2078 8.79959L11.1621 8.8699L11.3238 8.96834L11.2887 9.02459L11.1305 8.92615L11.0777 9.01404L11.2535 9.11951L11.2219 9.17576L10.9793 9.0281V9.02459ZM10.4238 8.57107L10.4555 8.51482L10.5961 8.59216L10.5293 8.72224C10.4723 8.73488 10.4127 8.72743 10.3605 8.70115C10.3291 8.68483 10.3024 8.66059 10.2832 8.63084C10.2646 8.604 10.2548 8.57207 10.2551 8.53943C10.2551 8.50427 10.2656 8.47263 10.2832 8.44099C10.2994 8.40852 10.3236 8.3807 10.3535 8.36013C10.3781 8.33904 10.4133 8.32849 10.4484 8.32849C10.473 8.32849 10.5047 8.33904 10.5363 8.3531C10.571 8.36939 10.5994 8.39654 10.6172 8.43044C10.6313 8.45857 10.6348 8.49021 10.6277 8.52537L10.5539 8.50427C10.5579 8.48642 10.5554 8.46773 10.5469 8.45154C10.5375 8.4343 10.5227 8.42069 10.5047 8.41287C10.4922 8.40514 10.4782 8.4002 10.4637 8.39838C10.4491 8.39656 10.4343 8.3979 10.4203 8.40232C10.3957 8.41287 10.3711 8.43748 10.35 8.47263C10.3329 8.50495 10.3267 8.54197 10.3324 8.5781C10.3395 8.60623 10.357 8.62732 10.3887 8.64138L10.4344 8.65544H10.4801L10.5012 8.61326L10.4238 8.57107ZM8.00508 7.97341L8.06133 7.60076L8.17383 7.61834L8.20195 7.88201L8.30742 7.63591L8.41641 7.65349L8.36367 8.02615L8.29336 8.0156L8.33555 7.7238L8.21953 8.00505L8.14922 7.99451L8.11758 7.68865L8.07539 7.98396L8.00508 7.97341ZM7.62891 7.92771L7.66406 7.55505L7.93828 7.57966L7.93477 7.64294L7.73086 7.62537L7.72383 7.70623L7.91016 7.7238L7.90664 7.78709L7.72031 7.76951L7.70977 7.87498L7.91719 7.89255L7.91016 7.95584L7.62891 7.92771Z" fill="#309E3A"/>
<path d="M6.37736 7.6922C6.37736 7.65704 6.38439 7.62189 6.39494 7.59728L6.43009 7.54806L6.48283 7.5129C6.5088 7.50398 6.5363 7.50039 6.56369 7.50235C6.58809 7.50219 6.61225 7.50711 6.63465 7.51679C6.65704 7.52647 6.67718 7.54071 6.69377 7.5586C6.72892 7.59376 6.73947 7.63946 6.73947 7.69923C6.73947 7.76251 6.71838 7.80821 6.68674 7.83985C6.66913 7.85692 6.64815 7.87012 6.62514 7.87859C6.60214 7.88707 6.57761 7.89064 6.55314 7.88907C6.529 7.88969 6.50499 7.88532 6.48261 7.87625C6.46023 7.86718 6.43996 7.85359 6.42306 7.83634C6.40569 7.81762 6.3926 7.79535 6.38471 7.77106C6.37681 7.74678 6.37431 7.72107 6.37736 7.69571V7.6922Z" fill="#309E3A"/>
<path d="M6.45469 7.69218C6.45469 7.73436 6.46172 7.76952 6.48281 7.79061C6.50039 7.81522 6.525 7.82577 6.55312 7.82577C6.56749 7.82604 6.58176 7.82338 6.59506 7.81794C6.60836 7.81249 6.62041 7.80439 6.63047 7.79413C6.64805 7.77303 6.65859 7.74139 6.66211 7.69921C6.66211 7.6535 6.65508 7.62186 6.63398 7.60077C6.62546 7.59023 6.61477 7.58163 6.60264 7.57557C6.59051 7.56951 6.57722 7.56611 6.56367 7.56561C6.52852 7.56561 6.50391 7.57616 6.48633 7.59725C6.46523 7.61835 6.45469 7.64999 6.45117 7.69218H6.45469Z" fill="#F7FFFF"/>
<path d="M6.82031 7.88905L6.82383 7.51288H6.98203C7.02422 7.51288 7.05234 7.51991 7.06992 7.52694C7.0875 7.53397 7.10508 7.54452 7.11211 7.5621C7.11914 7.57968 7.12969 7.59725 7.12969 7.62186C7.12969 7.64999 7.11914 7.67108 7.10508 7.69218C7.0875 7.70975 7.06289 7.7203 7.02773 7.72733C7.04531 7.73436 7.05938 7.74491 7.06992 7.75546L7.11211 7.81874L7.15781 7.88905H7.06641L7.01367 7.80819C7.0008 7.78858 6.98671 7.76979 6.97148 7.75194C6.96561 7.74571 6.9584 7.7409 6.95039 7.73788C6.93908 7.73383 6.92723 7.73146 6.91523 7.73085H6.89766V7.88905H6.82031Z" fill="#309E3A"/>
<path d="M6.89771 7.67106H6.95396C6.9773 7.67396 7.00092 7.67396 7.02427 7.67106L7.04185 7.65348C7.04888 7.64645 7.05239 7.6359 7.05239 7.62535C7.05239 7.61129 7.04888 7.60074 7.04185 7.59371C7.03443 7.58585 7.02446 7.58086 7.01372 7.57965H6.90122V7.67106H6.89771Z" fill="white"/>
<path d="M7.24924 7.53046L7.38635 7.53749C7.41016 7.53786 7.4338 7.5414 7.45667 7.54803C7.47669 7.55559 7.49473 7.56761 7.5094 7.58319C7.52582 7.60265 7.53781 7.62544 7.54456 7.64999C7.55159 7.6746 7.55159 7.70272 7.55159 7.73788C7.55264 7.7648 7.54784 7.79162 7.53752 7.81651C7.5272 7.84139 7.51161 7.86374 7.49182 7.88202C7.47776 7.89257 7.46018 7.90311 7.43909 7.91014H7.36877L7.22815 7.90663L7.24924 7.53046Z" fill="#309E3A"/>
<path d="M7.31951 7.59723L7.30896 7.84332L7.36521 7.85035H7.41091L7.44255 7.83278C7.4531 7.82574 7.45662 7.8152 7.46365 7.79762L7.47419 7.72731L7.47068 7.66403C7.46365 7.64645 7.46013 7.6359 7.44958 7.62887C7.44022 7.6185 7.42798 7.61116 7.41443 7.60778C7.39476 7.60366 7.37475 7.6013 7.35466 7.60074H7.31951V7.59723Z" fill="white"/>
<path d="M9.08789 8.20193L9.17578 7.8363L9.2918 7.86443C9.3375 7.87498 9.36562 7.88552 9.37969 7.89255C9.39727 7.9031 9.41484 7.91716 9.42188 7.93826C9.43242 7.96287 9.43242 7.98748 9.42539 8.0156C9.42228 8.03373 9.41447 8.05074 9.40276 8.06492C9.39104 8.07911 9.37581 8.08998 9.35859 8.09646C9.3465 8.10242 9.33337 8.106 9.31992 8.10701C9.29376 8.10474 9.26787 8.10003 9.24258 8.09294L9.19336 8.0824L9.1582 8.21951L9.08789 8.20193Z" fill="#309E3A"/>
<path d="M9.23201 7.91718L9.2074 8.02264L9.24959 8.02968C9.27771 8.03671 9.2988 8.04022 9.30935 8.03671C9.31908 8.0357 9.32829 8.03182 9.3358 8.02556C9.34332 8.0193 9.3488 8.01094 9.35154 8.00155L9.34802 7.96288C9.34197 7.95152 9.33196 7.94276 9.3199 7.93827L9.26716 7.92421L9.23201 7.91718Z" fill="white"/>
<path d="M9.43591 8.30741L9.55896 7.95233L9.71013 8.00507C9.73755 8.0128 9.76362 8.02465 9.78748 8.04022C9.80154 8.05428 9.81208 8.07186 9.81912 8.09296C9.82615 8.11405 9.81912 8.13163 9.81209 8.15272C9.80505 8.18085 9.78748 8.19843 9.76638 8.20897C9.75428 8.21601 9.7409 8.22057 9.72701 8.22238C9.71313 8.22419 9.69903 8.22322 9.68552 8.21952L9.71365 8.26171L9.73474 8.33202L9.75232 8.41639L9.66794 8.38827L9.64333 8.29335C9.63784 8.27062 9.6308 8.24831 9.62224 8.22655C9.61922 8.21854 9.61441 8.21133 9.60818 8.20546C9.59751 8.1977 9.58563 8.19176 9.57302 8.18788L9.55896 8.18436L9.50623 8.33202L9.43591 8.30741Z" fill="#309E3A"/>
<path d="M9.57654 8.12809L9.62927 8.14567L9.69607 8.16324C9.70662 8.16324 9.71365 8.16324 9.72068 8.15621L9.73826 8.1316V8.09645C9.73378 8.08726 9.72636 8.07983 9.71716 8.07535L9.66443 8.05778L9.60818 8.03668L9.57654 8.12809Z" fill="white"/>
<path d="M9.87538 8.29337C9.88431 8.2612 9.89988 8.23127 9.92108 8.20548C9.93163 8.1879 9.94921 8.17736 9.96678 8.16681C9.98416 8.15723 10.0033 8.15125 10.023 8.14923C10.0476 8.14923 10.0758 8.14923 10.1039 8.15978C10.1277 8.16574 10.1501 8.17665 10.1695 8.19179C10.1888 8.20693 10.2048 8.22596 10.2164 8.24767C10.2375 8.28986 10.241 8.34259 10.2199 8.39884C10.2141 8.42413 10.2033 8.44802 10.1882 8.46914C10.1732 8.49026 10.1541 8.50818 10.132 8.52189C10.1103 8.53269 10.0866 8.53889 10.0624 8.5401C10.0382 8.54131 10.0141 8.5375 9.99139 8.52892C9.96754 8.52295 9.9452 8.51205 9.92582 8.49691C9.90644 8.48177 9.89045 8.46273 9.87889 8.44103C9.85823 8.39421 9.85696 8.34112 9.87538 8.29337Z" fill="#309E3A"/>
<path d="M9.94919 8.31448C9.93865 8.35315 9.93865 8.38479 9.94919 8.41291C9.96326 8.44104 9.98435 8.45862 10.0125 8.46916C10.0406 8.47619 10.0652 8.47268 10.0898 8.45862C10.1144 8.44455 10.1355 8.41643 10.1496 8.37424C10.1601 8.33205 10.1601 8.30041 10.1496 8.27229C10.1437 8.25931 10.1349 8.24783 10.124 8.2387C10.113 8.22957 10.1001 8.22303 10.0863 8.21955C10.0729 8.21519 10.0587 8.21388 10.0447 8.2157C10.0307 8.21753 10.0173 8.22245 10.0054 8.2301C9.98084 8.24416 9.96326 8.27229 9.94919 8.31448Z" fill="white"/>
<path d="M10.6067 8.8172L10.779 8.48322L10.9196 8.55353C10.9547 8.57462 10.9793 8.58868 10.9899 8.60275C11.004 8.62032 11.011 8.6379 11.0145 8.65548C11.018 8.67306 11.0145 8.69767 11.0004 8.71525C10.9899 8.73986 10.9723 8.75743 10.9477 8.76798C10.9231 8.77501 10.8985 8.77501 10.8668 8.76447C10.8774 8.77853 10.8844 8.79611 10.8879 8.81017L10.8985 8.884L10.9055 8.97189L10.8247 8.9297L10.8141 8.83126L10.8036 8.76095C10.8005 8.75294 10.7957 8.74573 10.7895 8.73986C10.7801 8.73123 10.7694 8.72411 10.7579 8.71876L10.7438 8.71173L10.6735 8.85236L10.6067 8.8172Z" fill="#309E3A"/>
<path d="M10.772 8.65902L10.8212 8.68363L10.8845 8.71176C10.895 8.71176 10.9021 8.71176 10.9091 8.70472C10.9186 8.69981 10.9263 8.69214 10.9313 8.68273C10.9364 8.67331 10.9384 8.66259 10.9372 8.65199C10.9334 8.64149 10.9259 8.63273 10.9161 8.62738C10.9012 8.61745 10.886 8.60807 10.8704 8.59926L10.8177 8.57465L10.772 8.65902Z" fill="white"/>
<path d="M11.9953 9.50271C12.0164 9.46756 12.0375 9.44646 12.0656 9.4324C12.0828 9.42096 12.1018 9.41263 12.1219 9.40779C12.1405 9.40419 12.1596 9.40419 12.1781 9.40779C12.2027 9.41131 12.2309 9.42186 12.2555 9.44295C12.2763 9.45563 12.2942 9.4725 12.3081 9.49247C12.322 9.51244 12.3316 9.53508 12.3363 9.55897C12.3414 9.61012 12.3277 9.66138 12.2977 9.70311C12.2843 9.7258 12.2665 9.74558 12.2454 9.76128C12.2243 9.77698 12.2002 9.78828 12.1746 9.79451C12.1508 9.79897 12.1264 9.79845 12.1028 9.79301C12.0792 9.78756 12.057 9.77731 12.0375 9.76287C12.0167 9.75019 11.9988 9.73332 11.9849 9.71335C11.971 9.69338 11.9614 9.67074 11.9566 9.64686C11.9527 9.6217 11.9538 9.59602 11.9599 9.57128C11.9659 9.54654 11.9767 9.52324 11.9918 9.50271H11.9953Z" fill="#309E3A"/>
<path d="M12.0586 9.54136C12.0375 9.57652 12.0269 9.61168 12.0305 9.6398C12.0329 9.65402 12.0382 9.6676 12.046 9.67969C12.0539 9.69179 12.0641 9.70214 12.0762 9.71011C12.0873 9.71785 12.1 9.7231 12.1133 9.72553C12.1266 9.72795 12.1403 9.72749 12.1535 9.72418C12.1816 9.71714 12.2097 9.69605 12.2344 9.65738C12.259 9.62222 12.2695 9.59058 12.2625 9.56246C12.2625 9.53433 12.2449 9.51324 12.2203 9.49214C12.1957 9.47105 12.1676 9.47105 12.1394 9.47808C12.1113 9.48511 12.0867 9.50621 12.0621 9.54136H12.0586Z" fill="white"/>
<path d="M8.66248 8.05076L8.72224 7.78357L8.91912 7.82927L8.90857 7.87498L8.76794 7.83982L8.75388 7.89959L8.88396 7.93123L8.87341 7.97693L8.74334 7.94177L8.72576 8.0156L8.87341 8.05076L8.86287 8.09646L8.66248 8.05076Z" fill="#309E3A"/>
</g>
<defs>
<clipPath id="clip0_14_1333">
<rect width="18" height="18" rx="9" fill="white"/>
</clipPath>
</defs>
</svg>
