<svg width="18" height="18" viewBox="0 0 18 18" fill="none" xmlns="http://www.w3.org/2000/svg">
<g clip-path="url(#clip0_8201_9943)">
<path d="M9 18C13.9706 18 18 13.9706 18 9C18 4.02944 13.9706 0 9 0C4.02944 0 0 4.02944 0 9C0 13.9706 4.02944 18 9 18Z" fill="#6DA544"/>
<path d="M9.0002 3.52173L16.435 8.99999L9.0002 14.4782L1.56543 8.99999L9.0002 3.52173Z" fill="#FFDA44"/>
<path d="M9.00005 12.1305C10.7289 12.1305 12.1305 10.7289 12.1305 9.00005C12.1305 7.27116 10.7289 5.86963 9.00005 5.86963C7.27116 5.86963 5.86963 7.27116 5.86963 9.00005C5.86963 10.7289 7.27116 12.1305 9.00005 12.1305Z" fill="#F0F0F0"/>
<path d="M7.43481 8.80444C6.89045 8.80444 6.36511 8.88724 5.87061 9.04087C5.89251 10.7509 7.28484 12.1305 9.00004 12.1305C10.0606 12.1305 10.9973 11.6026 11.5636 10.7957C10.5948 9.58294 9.10414 8.80444 7.43481 8.80444Z" fill="#0052B4"/>
<path d="M12.0726 9.59981C12.1103 9.40561 12.1306 9.20525 12.1306 9.00005C12.1306 7.27113 10.7291 5.86963 9.00023 5.86963C7.71021 5.86963 6.60279 6.65013 6.12354 7.76452C6.54717 7.67673 6.98578 7.6305 7.43504 7.6305C9.25321 7.63047 10.898 8.38625 12.0726 9.59981Z" fill="#0052B4"/>
</g>
<defs>
<clipPath id="clip0_8201_9943">
<rect width="18" height="18" fill="white"/>
</clipPath>
</defs>
</svg>
