<svg width="18" height="18" viewBox="0 0 18 18" fill="none" xmlns="http://www.w3.org/2000/svg">
<g clip-path="url(#clip0_8201_9916)">
<path d="M15.364 15.364C11.8493 18.8787 6.15078 18.8787 2.63603 15.364C-0.878678 11.8493 -0.878678 6.15076 2.63603 2.63601C2.6373 2.63601 10.724 0.246549 14.2388 3.76126C17.7535 7.27597 15.3664 15.3615 15.364 15.364Z" fill="#FFDA44"/>
<path d="M15.3642 15.364C18.8789 11.8493 18.8789 6.15079 15.3642 2.63605C11.8495 -0.8787 6.15098 -0.878665 2.63623 2.63605L15.3642 15.364Z" fill="#D80027"/>
<path d="M11.3524 11.3534C10.9827 11.4986 10.5531 11.4832 10.1805 11.274C9.52198 10.9045 9.28692 10.068 9.65659 9.40938L9.54437 9.34645C10.6719 9.07459 11.506 8.05119 11.4914 6.8435C11.4823 6.09267 11.1468 5.42094 10.6221 4.9613L9.80035 5.80316C10.111 6.05073 10.3124 6.43048 10.3176 6.85774C10.3267 7.61289 9.71984 8.2347 8.96472 8.24381L8.9663 8.37237C8.16709 7.53193 6.86378 7.32124 5.82523 7.93774C5.17955 8.32108 4.76562 8.94743 4.62988 9.63174L5.76979 9.92248C5.82889 9.52965 6.05702 9.16536 6.42443 8.94721C7.0738 8.56173 7.91573 8.77646 8.30121 9.4258L8.41189 9.36016C8.0836 10.4724 8.55276 11.7065 9.606 12.2977C10.2608 12.6652 11.0102 12.7106 11.6707 12.4859L11.3524 11.3534ZM8.97418 9.02625L8.97411 9.02628L8.97418 9.02625Z" fill="#FF9811"/>
<path d="M12.3323 6.09544L11.6962 8.36551L9.78753 8.01307L8.55896 5.48059L5.23996 6.65836L4.97822 5.92078L4.10986 5.8138L4.76416 7.65771L7.04822 7.07356L7.69731 8.9027L6.11838 11.2329L8.79788 13.5183L8.28998 14.1137L8.63152 14.9193L9.90129 13.4306L8.25338 11.7447L9.51292 10.268L12.3204 10.4703L12.9599 7.00704L13.7295 7.14918L14.2564 6.45062L12.3323 6.09544ZM8.99929 9.06125V9.06132V9.06125Z" fill="#FFEACF"/>
</g>
<defs>
<clipPath id="clip0_8201_9916">
<rect width="18" height="18" fill="white"/>
</clipPath>
</defs>
</svg>
