<svg width="18" height="18" viewBox="0 0 18 18" fill="none" xmlns="http://www.w3.org/2000/svg">
<g clip-path="url(#clip0_14_1293)">
<path d="M0 0H18V18H0V0Z" fill="#FFD520"/>
<path d="M0 18H18V0L0 18Z" fill="#FF4E12"/>
<path d="M9.91055 5.71293C9.76993 5.66371 9.68555 5.73402 9.68907 5.91332C9.69259 6.0891 9.78751 6.19105 9.92462 6.12425L9.91055 5.71293Z" fill="white" stroke="black" stroke-width="0.025"/>
<path d="M10.03 5.3824C9.91751 5.291 9.80853 5.32967 9.75579 5.49842C9.70306 5.66717 9.75931 5.79373 9.91048 5.77615L10.03 5.3824Z" fill="white" stroke="black" stroke-width="0.025"/>
<path d="M10.2199 5.06251C10.1214 4.95704 10.0089 4.97462 9.93158 5.13282C9.85423 5.29103 9.88587 5.42462 10.037 5.43165L10.2199 5.06251ZM10.0968 6.61642C9.92806 6.6797 9.91048 6.90821 10.016 7.04884C10.1214 7.18946 10.3148 7.21759 10.4238 7.04884L10.0933 6.61642H10.0968Z" fill="white" stroke="black" stroke-width="0.025"/>
<path d="M9.89994 6.13128C9.74174 6.07855 9.5976 6.293 9.57299 6.48284C9.54486 6.72894 9.20033 6.80628 9.39018 7.17542C9.42885 6.93988 9.58353 6.81331 9.70658 6.80277C9.82963 6.79573 10.016 6.76761 10.0933 6.61644L9.89994 6.13128ZM10.4027 7.07698C10.2199 7.12269 10.1917 7.36878 10.3253 7.54456C10.4378 7.69573 10.7929 7.66058 10.7824 7.50941L10.4062 7.07698H10.4027ZM10.93 8.56409C10.937 8.40589 10.6839 8.34261 10.5609 8.37425C10.4343 8.40589 10.1988 8.37073 10.1425 8.23714C10.1003 8.34261 10.1636 8.45863 10.3429 8.51839C10.4765 8.56058 10.4765 8.65902 10.4343 8.7012C10.5398 8.71878 10.8386 8.71878 10.9265 8.56409H10.93Z" fill="white" stroke="black" stroke-width="0.025"/>
<path d="M10.7859 7.54806C10.6031 7.47071 10.4941 7.59024 10.4273 7.70977C10.3218 7.88204 10.0125 7.66056 9.90698 7.88907C10.0476 7.82931 10.1953 7.95938 10.2621 8.00509C10.4589 8.13165 10.8316 8.09298 10.8843 7.79415L10.7824 7.54806H10.7859Z" fill="white" stroke="black" stroke-width="0.025"/>
<path d="M10.8914 7.76251C10.7086 7.89611 10.6383 8.06134 10.6453 8.17032C10.6453 8.28282 10.8035 8.52189 10.9688 8.53947C11.0672 8.33907 11.1164 7.92072 10.8914 7.76251ZM10.1391 8.61329C10.1391 8.5465 10.2375 8.52189 10.3043 8.54298C10.3676 8.56407 10.4695 8.63087 10.4344 8.70118L10.1391 8.61329ZM9.14063 8.25118C9.12305 8.17032 9.25313 8.03322 9.42188 8.11056C9.59766 8.18439 9.61876 8.33204 9.54844 8.38829L9.14063 8.25118Z" fill="white" stroke="black" stroke-width="0.025"/>
<path d="M9.56248 8.39532C9.54842 8.35314 9.67147 8.26525 9.88241 8.31798C10.0933 8.37072 10.1461 8.50782 10.139 8.61329L9.56248 8.39532ZM9.11951 8.25118C9.2285 8.16681 9.18983 8.00509 9.08787 7.95939C8.90858 7.8715 8.97537 7.64298 8.85936 7.59728C8.74334 7.55509 8.63436 7.47423 8.63084 7.39337C8.57108 7.50587 8.60623 7.60431 8.68709 7.67462C8.76795 7.74493 8.62381 8.03322 8.72576 8.11056L9.11951 8.25118ZM6.7535 8.1879C6.66209 8.04376 6.43709 8.07189 6.3492 8.17032C6.25428 8.27579 6.26834 8.42345 6.35623 8.48673L6.7535 8.1879ZM7.28084 7.97345C7.24569 7.78009 7.01365 7.75548 6.88709 7.8047C6.75701 7.85392 6.66912 8.05079 6.7535 8.19142L7.28084 7.97345Z" fill="white" stroke="black" stroke-width="0.025"/>
<path d="M7.63589 7.94532C7.72026 7.78361 7.55854 7.54103 7.37222 7.50587C7.21753 7.47423 7.03472 7.47775 6.97495 7.32306C6.93979 7.45665 7.03472 7.54103 7.15073 7.61486C7.26675 7.6922 7.12964 7.88556 7.31597 7.99454L7.63589 7.94532Z" fill="white" stroke="black" stroke-width="0.025"/>
<path d="M7.61835 7.95234C7.58319 7.83633 7.66054 7.67813 7.81874 7.68867C7.97694 7.70273 8.06483 7.81523 7.99452 7.95938L7.61835 7.95234Z" fill="white" stroke="black" stroke-width="0.025"/>
<path d="M7.97339 7.95936C7.94878 7.83983 8.05073 7.69569 8.20542 7.73084C8.3601 7.76248 8.43393 7.88905 8.34604 8.02264L7.97339 7.95936Z" fill="white" stroke="black" stroke-width="0.025"/>
<path d="M8.32143 8.01566C8.30737 7.89613 8.41284 7.7555 8.56753 7.79769C8.72222 7.83636 8.78901 7.96644 8.69058 8.09652L8.32143 8.01566ZM5.66011 10.0407C5.36479 10.0407 5.29097 10.111 5.24878 10.4133C5.19604 10.793 5.71284 10.8352 5.66011 10.0407Z" fill="white" stroke="black" stroke-width="0.025"/>
<path d="M5.79021 9.64339C5.33669 9.46761 5.08708 10.1883 4.6406 10.0617C4.80232 10.3184 5.19255 10.0617 5.33669 10.0864C5.58279 10.1321 6.11716 10.0407 5.79373 9.64339H5.79021ZM5.4949 10.6278C5.2699 10.5223 5.02732 10.8668 5.07302 11.018C5.12927 11.2114 5.64255 11.0532 5.4949 10.6278ZM4.44373 12.1078C4.57029 12.143 4.71794 12.2133 4.68982 12.4524C4.66521 12.6914 4.21521 13.1766 3.81091 13.2047C3.4031 13.2293 3.25896 13.7215 2.9074 13.5844C3.23435 13.5211 3.23435 13.152 3.49099 13.036C3.30466 12.9692 3.20974 13.3875 2.97068 13.3875C2.73162 13.3875 2.61912 13.7707 2.32732 13.7426C2.03552 13.718 2.00388 14.2032 1.42029 14.2102C0.977319 14.2137 0.425366 14.7375 0.224976 14.5125C0.657397 14.4492 0.833179 14.2102 1.08982 13.9465C1.50466 13.5246 1.97224 13.711 2.13396 13.3383C1.94801 13.4626 1.72825 13.5264 1.50466 13.5211C1.23396 13.5176 0.935132 13.9535 0.632788 13.7602C0.808569 13.7391 0.924585 13.6617 1.1074 13.4684C1.29724 13.2715 1.57498 13.3981 1.79646 13.1942C2.14099 12.8778 2.4363 13.1414 2.76677 12.7442C2.67537 12.702 2.47498 12.7336 2.29216 12.8285C2.10583 12.927 1.87029 12.7617 1.65583 12.8778C1.68044 12.6176 2.17615 12.7653 2.48552 12.586C2.83708 12.3821 3.12185 12.4453 3.39958 12.4664C3.01287 12.4664 2.86521 12.1008 2.33435 12.2063C2.10583 12.252 1.91951 11.8899 1.69099 12.0727C1.69802 11.9356 1.93708 11.8266 2.18318 11.9602C2.42927 12.0903 2.53474 11.8442 3.02693 12.1535C3.22732 12.2801 3.57537 12.0727 3.79685 12.2098C3.76873 12.1254 3.64216 12.0727 3.49451 12.0867C3.58591 11.8969 4.18357 11.9215 4.44373 12.1114V12.1078Z" fill="white" stroke="black" stroke-width="0.025"/>
<path d="M4.83743 11.8231C4.64407 11.6719 4.37336 11.8547 4.19055 11.7809C4.19055 11.9074 4.25032 12.0903 4.45422 12.1606C4.58895 12.0549 4.71804 11.9423 4.84094 11.8231H4.83743Z" fill="white" stroke="black" stroke-width="0.025"/>
<path d="M5.14331 11.3942C4.83745 11.2395 4.78472 11.6227 4.54565 11.5453C4.5562 11.6543 4.64409 11.7914 4.83745 11.8231L5.14331 11.3942Z" fill="white" stroke="black" stroke-width="0.025"/>
<path d="M5.32263 11.0461C4.87263 10.8703 4.81638 11.3028 4.54919 11.2184C4.61248 11.366 4.99216 11.4469 5.18552 11.3942L5.32615 11.0426L5.32263 11.0461ZM5.94138 9.1512C5.82185 8.98245 5.57224 9.11956 5.53005 9.31995C5.49138 9.51682 5.58982 9.79456 5.75505 9.73479L5.94138 9.1512Z" fill="white" stroke="black" stroke-width="0.025"/>
<path d="M6.24725 8.62031C6.03632 8.57461 5.80077 8.5957 5.82538 8.79609C5.74804 8.83125 5.72343 9.09492 5.9414 9.15117L6.24725 8.62383V8.62031Z" fill="white" stroke="black" stroke-width="0.025"/>
<path d="M6.38435 8.48322C6.18044 8.24768 5.95193 8.25119 5.82537 8.35314C5.59334 8.53947 5.36833 8.43049 5.35779 8.61682C5.49841 8.51135 5.62498 8.63791 5.73748 8.59924C5.85349 8.56057 5.93787 8.78205 6.25427 8.68713L6.38435 8.48322ZM5.89216 12.0481C5.9238 12.1043 6.11365 12.1324 6.20857 12.034C6.3281 11.9039 6.19451 11.5488 5.99763 11.5207C5.80427 11.4961 5.78669 11.925 5.89216 12.0481Z" fill="white" stroke="black" stroke-width="0.025"/>
<path d="M5.67065 12.0586C5.9519 12.1571 6.06792 11.9285 5.91675 11.7809C5.84083 11.8776 5.75862 11.9692 5.67065 12.0551V12.0586Z" fill="white" stroke="black" stroke-width="0.025"/>
<path d="M4.63003 12.4348C4.57729 12.5965 4.30308 12.6211 3.99722 13.1168C3.68433 13.609 3.38901 13.4016 3.31519 13.7426C3.68433 13.4437 3.97612 13.6406 4.19761 13.3453C4.53511 12.8953 4.80933 12.9586 4.9394 12.6562C5.12573 12.2238 5.93784 12.2344 5.98003 11.5523C5.70933 11.4996 4.84097 12.2344 4.63003 12.4348ZM11.6015 5.76561C11.9531 5.88163 11.9636 6.33866 12.3679 6.48983C12.7757 6.63749 12.8144 6.9996 13.1449 6.91171C12.8355 6.82733 12.8566 6.47225 12.5367 6.38436C12.157 6.27889 12.0164 5.70233 11.714 5.61444M13.2187 8.16327C13.282 8.30389 13.2714 8.5535 13.0535 8.6203C13.173 8.69764 13.3488 8.62382 13.4437 8.4621C13.2996 8.78553 13.398 9.07733 13.6265 9.13007C13.5175 8.90858 13.7636 8.80311 13.6828 8.65546C13.8304 8.71874 13.957 8.91561 13.9535 9.04218C14.1433 8.83124 13.8128 8.54647 13.8726 8.34608L13.2187 8.16327ZM10.9335 10.4308C10.7156 10.241 10.6242 10.4801 10.5187 10.3957C10.4203 10.3219 10.2867 10.3113 10.2375 10.3887C10.4203 10.3922 10.3324 10.5363 10.691 10.5715C10.3324 10.5961 10.3957 10.9969 10.1566 10.9793C10.4132 11.2219 10.5433 10.7613 10.7542 10.8387C10.691 10.8562 10.8492 11.0004 10.7402 11.1937C10.916 11.1902 10.9898 10.9441 11.0144 10.8141L10.9335 10.4308ZM6.16987 12.491C6.08901 12.4277 5.8605 12.3961 5.77261 12.4488C5.68472 12.5016 5.71636 12.5156 5.82183 12.5226C5.9273 12.5332 6.0644 12.7019 5.83589 12.7125C5.73042 12.716 5.76558 12.9726 5.54409 12.9937C5.63198 13.0992 5.89214 13.0289 5.98354 12.9058C5.96597 13.0078 6.09956 13.0957 6.04683 13.2152C6.20854 13.2328 6.11714 12.8848 6.37378 12.9023C6.26831 12.9164 6.3105 13.1555 6.49683 13.0922C6.38784 13.1449 6.44409 13.275 6.56714 13.2433C6.48979 13.268 6.46167 13.3699 6.57065 13.4297C6.67612 13.282 6.56011 12.7617 6.16987 12.491ZM15.7851 7.61835C15.9473 7.61835 16.1029 7.5539 16.2177 7.43918C16.3324 7.32446 16.3968 7.16887 16.3968 7.00663C16.3968 6.84439 16.3324 6.6888 16.2177 6.57408C16.1029 6.45936 15.9473 6.39491 15.7851 6.39491C15.6229 6.39491 15.4673 6.45936 15.3526 6.57408C15.2378 6.6888 15.1734 6.84439 15.1734 7.00663C15.1734 7.16887 15.2378 7.32446 15.3526 7.43918C15.4673 7.5539 15.6229 7.61835 15.7851 7.61835Z" fill="white"/>
<path d="M11.6015 5.76561C11.9531 5.88163 11.9636 6.33866 12.3679 6.48983C12.7757 6.63749 12.8144 6.9996 13.1449 6.91171C12.8355 6.82733 12.8566 6.47225 12.5367 6.38436C12.157 6.27889 12.0164 5.70233 11.714 5.61444M4.63003 12.4348C4.57729 12.5965 4.30308 12.6211 3.99722 13.1168C3.68433 13.609 3.38901 13.4016 3.31519 13.7426C3.68433 13.4437 3.97612 13.6406 4.19761 13.3453C4.53511 12.8953 4.80933 12.9586 4.9394 12.6562C5.12573 12.2238 5.93784 12.2344 5.98003 11.5523C5.70933 11.4996 4.84097 12.2344 4.63003 12.4348ZM13.2187 8.16327C13.282 8.30389 13.2714 8.5535 13.0535 8.6203C13.173 8.69764 13.3488 8.62382 13.4437 8.4621C13.2996 8.78553 13.398 9.07733 13.6265 9.13007C13.5175 8.90858 13.7636 8.80311 13.6828 8.65546C13.8304 8.71874 13.957 8.91561 13.9535 9.04218C14.1433 8.83124 13.8128 8.54647 13.8726 8.34608L13.2187 8.16327ZM10.9335 10.4308C10.7156 10.241 10.6242 10.4801 10.5187 10.3957C10.4203 10.3219 10.2867 10.3113 10.2375 10.3887C10.4203 10.3922 10.3324 10.5363 10.691 10.5715C10.3324 10.5961 10.3957 10.9969 10.1566 10.9793C10.4132 11.2219 10.5433 10.7613 10.7542 10.8387C10.691 10.8562 10.8492 11.0004 10.7402 11.1937C10.916 11.1902 10.9898 10.9441 11.0144 10.8141L10.9335 10.4308ZM6.16987 12.491C6.08901 12.4277 5.8605 12.3961 5.77261 12.4488C5.68472 12.5016 5.71636 12.5156 5.82183 12.5226C5.9273 12.5332 6.0644 12.7019 5.83589 12.7125C5.73042 12.716 5.76558 12.9726 5.54409 12.9937C5.63198 13.0992 5.89214 13.0289 5.98354 12.9058C5.96597 13.0078 6.09956 13.0957 6.04683 13.2152C6.20854 13.2328 6.11714 12.8848 6.37378 12.9023C6.26831 12.9164 6.3105 13.1555 6.49683 13.0922C6.38784 13.1449 6.44409 13.275 6.56714 13.2433C6.48979 13.268 6.46167 13.3699 6.57065 13.4297C6.67612 13.282 6.56011 12.7617 6.16987 12.491ZM15.7851 7.61835C15.9473 7.61835 16.1029 7.5539 16.2177 7.43918C16.3324 7.32446 16.3968 7.16887 16.3968 7.00663C16.3968 6.84439 16.3324 6.6888 16.2177 6.57408C16.1029 6.45936 15.9473 6.39491 15.7851 6.39491C15.6229 6.39491 15.4673 6.45936 15.3526 6.57408C15.2378 6.6888 15.1734 6.84439 15.1734 7.00663C15.1734 7.16887 15.2378 7.32446 15.3526 7.43918C15.4673 7.5539 15.6229 7.61835 15.7851 7.61835Z" stroke="black" stroke-width="0.025"/>
<path d="M12.5859 8.35668C12.7722 8.1809 13.0534 8.09301 13.2468 8.2266C13.4402 8.35668 14.087 8.51488 14.407 8.29691C14.7234 8.07543 14.871 7.95941 15.0116 7.98754C15.1171 8.14574 15.2472 8.21957 15.4054 8.23363C15.4546 8.28636 15.6269 8.33207 15.7218 8.31801C15.8624 8.35316 16.0382 8.30746 16.1753 8.1598C16.3863 8.18793 16.5831 8.02972 16.6605 7.79066C16.8855 7.76605 16.8995 7.51293 16.7554 7.34769C16.6253 7.31957 16.7273 6.87308 16.2456 6.96097C16.446 7.08402 16.2913 7.33363 16.4601 7.44613C16.3476 7.44613 16.1999 7.49535 16.1648 7.66762C16.207 7.54808 16.1577 7.47074 16.1261 7.44261C16.1296 7.34066 15.9046 7.09105 15.6937 7.18246C15.8448 7.21762 15.7605 7.46371 15.8695 7.55511C15.8282 7.55722 15.7879 7.56839 15.7514 7.58784C15.715 7.60728 15.6833 7.63452 15.6585 7.66762C15.5988 7.56566 15.3984 7.46019 15.2718 7.45316C15.2718 7.41801 15.2683 7.34769 15.2507 7.31254C15.1829 7.19315 15.1557 7.05495 15.1734 6.91879C15.0679 7.03129 14.9765 7.19301 14.9273 7.30551C14.7585 7.19301 14.3437 7.35824 14.1468 7.40394C13.9534 7.44965 13.3031 7.34066 13.1519 7.18246C12.9427 7.01576 12.6969 6.90127 12.4347 6.84847C12.0585 6.73949 12.055 6.32816 11.6402 6.0434C11.6331 6.55668 12.4101 8.1809 12.5859 8.35668ZM8.26165 12.259C8.41829 12.259 8.56852 12.1968 8.67928 12.086C8.79004 11.9753 8.85227 11.825 8.85227 11.6684C8.85227 11.5118 8.79004 11.3615 8.67928 11.2508C8.56852 11.14 8.41829 11.0778 8.26165 11.0778C8.105 11.0778 7.95477 11.14 7.84401 11.2508C7.73325 11.3615 7.67102 11.5118 7.67102 11.6684C7.67102 11.825 7.73325 11.9753 7.84401 12.086C7.95477 12.1968 8.105 12.259 8.26165 12.259Z" fill="white" stroke="black" stroke-width="0.025"/>
<path d="M6.8449 11.8055C6.96443 11.9601 7.16834 11.9496 7.25271 11.9355C7.32302 12.1219 7.54802 12.1183 7.64646 12.2168C7.74138 12.3223 8.07537 12.3117 8.1738 12.2519C8.0824 12.2449 7.96638 12.1922 7.8574 12.1008C7.7238 11.9883 7.78709 11.7668 7.68162 11.6859C7.75896 11.598 7.77302 11.4504 7.75544 11.3941C7.83982 11.3449 7.9031 11.2676 7.91013 11.2254C8.03212 11.2178 8.14769 11.1681 8.23709 11.0848C8.31091 11.1551 8.50076 11.0637 8.60271 11.1832C8.62732 10.8914 8.34607 10.7367 8.16326 10.8316C8.08591 10.7965 7.88904 10.8211 7.85388 10.8738C7.7906 10.8457 7.61833 10.9336 7.53748 10.9933C7.62888 10.9441 7.64294 10.8 7.60779 10.7473C7.6781 10.7121 7.76599 10.6137 7.77302 10.5363C7.87849 10.5539 8.03669 10.4836 8.11052 10.5012C7.99451 10.3535 7.80466 10.3008 7.6113 10.3113C7.4074 10.3254 7.32302 10.466 7.2949 10.6172C7.17888 10.6875 7.13669 10.9266 7.1824 11.0109C7.11209 11.0109 7.0488 11.0742 7.02419 11.1129C6.92266 11.0704 6.81428 11.0465 6.70427 11.0426M6.74646 10.8035C6.70427 10.6875 6.75701 10.5855 6.78162 10.4941C6.85193 10.2621 6.80974 10.2023 6.60583 10.234C6.6176 10.4308 6.66526 10.6238 6.74646 10.8035Z" fill="white"/>
<path d="M6.8449 11.8055C6.96443 11.9601 7.16834 11.9496 7.25271 11.9355C7.32302 12.1219 7.54802 12.1183 7.64646 12.2168C7.74138 12.3223 8.07537 12.3117 8.1738 12.2519C8.0824 12.2449 7.96638 12.1922 7.8574 12.1008C7.7238 11.9883 7.78709 11.7668 7.68162 11.6859C7.75896 11.598 7.77302 11.4504 7.75544 11.3941C7.83982 11.3449 7.9031 11.2676 7.91013 11.2254C8.03212 11.2178 8.14769 11.1681 8.23709 11.0848C8.31091 11.1551 8.50076 11.0637 8.60271 11.1832C8.62732 10.8914 8.34607 10.7367 8.16326 10.8316C8.08591 10.7965 7.88904 10.8211 7.85388 10.8738C7.7906 10.8457 7.61833 10.9336 7.53748 10.9933C7.62888 10.9441 7.64294 10.8 7.60779 10.7473C7.6781 10.7121 7.76599 10.6137 7.77302 10.5363C7.87849 10.5539 8.03669 10.4836 8.11052 10.5012C7.99451 10.3535 7.80466 10.3008 7.6113 10.3113C7.4074 10.3254 7.32302 10.466 7.2949 10.6172C7.17888 10.6875 7.13669 10.9266 7.1824 11.0109C7.11209 11.0109 7.0488 11.0742 7.02419 11.1129C6.92266 11.0704 6.81428 11.0465 6.70427 11.0426M6.74646 10.8035C6.70427 10.6875 6.75701 10.5855 6.78162 10.4941C6.85193 10.2621 6.80974 10.2023 6.60583 10.234C6.6176 10.4308 6.66526 10.6238 6.74646 10.8035Z" stroke="black" stroke-width="0.025"/>
<path d="M6.5918 10.2445C6.64453 10.3008 6.83437 10.3254 6.85195 10.1566C6.87656 9.96326 6.79922 9.88943 6.63047 9.96326C6.61641 10.009 6.60234 10.1883 6.59531 10.2445H6.5918Z" fill="white" stroke="black" stroke-width="0.025"/>
<path d="M6.63401 9.95628C6.70432 9.98441 6.85549 10.0442 6.93987 9.87894C7.01018 9.74183 6.91877 9.63636 6.77112 9.64691C6.73596 9.68558 6.66565 9.8262 6.63049 9.95628H6.63401Z" fill="white" stroke="black" stroke-width="0.025"/>
<path d="M6.76404 9.63285C6.78162 9.68558 6.96091 9.86136 7.09451 9.7348C7.22459 9.60824 7.22458 9.4184 7.02771 9.34808C6.97498 9.35511 6.81677 9.54144 6.76404 9.63285Z" fill="white" stroke="black" stroke-width="0.025"/>
<path d="M7.02769 9.34456C7.06636 9.45706 7.1894 9.6469 7.42144 9.55549C7.64995 9.47112 7.55151 9.18284 7.44604 9.12659C7.38628 9.12659 7.13315 9.2426 7.02417 9.34456H7.02769Z" fill="white" stroke="black" stroke-width="0.025"/>
<path d="M7.44607 9.12655C7.42849 9.22147 7.44607 9.48866 7.76247 9.48163C8.07185 9.48163 7.98396 9.11249 7.9031 9.05975C7.77653 9.05975 7.56208 9.06327 7.44607 9.12655Z" fill="white" stroke="black" stroke-width="0.025"/>
<path d="M7.92072 9.07031C7.88556 9.14766 7.8047 9.63984 8.41642 9.50625C8.49728 9.48867 8.7047 9.03164 7.9172 9.07383L7.92072 9.07031Z" fill="white" stroke="black" stroke-width="0.025"/>
<path d="M8.2546 9.11604C8.19132 9.17932 8.35304 9.67854 8.76789 9.59417C9.18273 9.50979 8.83468 9.03518 8.2546 9.11604Z" fill="white" stroke="black" stroke-width="0.025"/>
<path d="M8.60626 9.18988C8.54298 9.33051 8.64142 9.7348 9.15119 9.7348C9.61876 9.7348 9.13009 9.20043 8.60978 9.18988H8.60626Z" fill="white" stroke="black" stroke-width="0.025"/>
<path d="M9.01056 9.30937C8.9754 9.38671 8.93673 9.81562 9.5379 9.85429C9.97735 9.8789 9.87188 9.26015 9.01056 9.30937Z" fill="white" stroke="black" stroke-width="0.025"/>
<path d="M9.6574 9.49219C9.58357 9.62578 9.50271 9.95625 10.1672 9.98438C10.589 9.99844 10.3289 9.49922 9.6574 9.49219Z" fill="white" stroke="black" stroke-width="0.025"/>
<path d="M10.2094 9.59418C10.1144 9.72426 10.1847 9.98441 10.4308 10.0336C10.7402 10.0969 10.7824 9.80511 10.5715 9.66449C10.3605 9.52386 10.2094 9.59418 10.2094 9.59418Z" fill="white" stroke="black" stroke-width="0.025"/>
<path d="M10.5117 9.65393C10.4414 9.77698 10.4836 10.0758 10.9511 10.0758C11.0496 10.0758 11.4187 9.69963 10.5117 9.65393ZM6.88708 15.4125C7.06937 15.4125 7.24419 15.3401 7.37308 15.2112C7.50198 15.0823 7.57439 14.9075 7.57439 14.7252C7.57439 14.5429 7.50198 14.3681 7.37308 14.2392C7.24419 14.1103 7.06937 14.0379 6.88708 14.0379C6.70527 14.0379 6.5309 14.1101 6.40233 14.2387C6.27377 14.3673 6.20154 14.5416 6.20154 14.7235C6.20154 14.9053 6.27377 15.0797 6.40233 15.2082C6.5309 15.3368 6.70527 15.409 6.88708 15.409V15.4125Z" fill="white" stroke="black" stroke-width="0.025"/>
<path d="M11.9214 5.42461C11.8687 5.47734 11.7597 5.63554 11.7386 5.69882C11.5066 6.38789 12.1218 6.90468 12.4769 7.64296C12.6248 7.97756 12.6848 8.34445 12.6509 8.70874C12.6171 9.07303 12.4906 9.42261 12.2835 9.72422C12.1323 9.92461 12.178 9.98086 11.9847 10.1848C11.9109 10.2621 11.8265 10.3605 11.8511 10.6418C11.9777 10.5996 12.1534 10.7121 12.1886 10.8105C12.2765 10.7684 12.3995 10.7859 12.4452 10.8387C12.5929 10.7684 12.7194 10.8035 12.8495 10.9441C12.9655 10.9266 13.0886 10.9441 13.2011 11.0672C13.2644 10.9441 13.3874 10.8984 13.4753 10.9266C13.4683 10.7684 13.6265 10.6523 13.7671 10.7156C13.7556 10.6701 13.7567 10.6224 13.7702 10.5774C13.7836 10.5325 13.809 10.492 13.8436 10.4603C13.8782 10.4286 13.9207 10.4068 13.9666 10.3973C14.0126 10.3878 14.0603 10.3909 14.1046 10.4062C14.2628 10.2832 14.5792 10.2727 14.7374 10.459C14.4562 10.3781 14.4667 10.6805 14.2277 10.6523C14.2909 10.8281 14.1292 10.9336 13.971 10.9863C14.073 10.9406 14.1819 10.8809 14.2171 10.9441C14.305 10.8668 14.4843 10.8949 14.5265 10.9336C14.646 10.8984 14.7585 10.9266 14.8077 11.0672C14.9694 11.1656 15.0749 11.4117 14.9589 11.5945C14.9237 11.4012 14.7937 11.4117 14.7409 11.3309C14.6144 11.3766 14.4948 11.3766 14.4597 11.2957C14.3894 11.366 14.1468 11.4293 14.0413 11.3238C14.0027 11.482 13.8655 11.6156 13.7073 11.6156C13.7495 11.7387 13.6265 11.9496 13.5316 12.0551C13.6792 12.1359 13.637 12.3117 13.6019 12.4172C13.8304 12.4523 13.637 12.6562 14.0343 12.7898C13.8374 12.8496 13.4577 12.7898 13.405 12.5508C13.2116 12.5402 13.078 12.3469 13.0886 12.143C12.9374 12.0023 12.9128 11.8019 13.1237 11.6578C12.948 11.7105 12.8495 11.4293 12.5964 11.5453C12.4663 11.6016 12.1323 11.5031 12.1359 11.3871C12.0831 11.475 11.7597 11.4398 11.714 11.2887C11.6085 11.3449 11.3624 11.25 11.3659 11.1023C11.2288 11.1656 11.046 11.0531 11.053 10.9125C10.9265 10.8949 10.9124 10.7824 10.9194 10.684C10.8069 10.6312 10.8386 10.5187 10.8843 10.3887C10.8034 10.3008 10.8386 10.1777 10.8984 10.0617C10.8105 9.97382 10.828 9.86836 10.8562 9.74531C10.4308 9.71015 9.89992 9.60468 8.68351 9.23203C6.84835 8.66953 6.35265 9.9914 6.75695 10.8211C7.22804 11.7773 6.70421 11.9848 6.86242 12.7019C7.03117 12.7371 7.11906 12.8777 7.10851 13.0289C7.21046 13.0289 7.28429 13.1238 7.24914 13.2996C7.2958 13.2921 7.34357 13.2954 7.38871 13.3095C7.43385 13.3235 7.47513 13.3478 7.50929 13.3805C7.56906 13.2644 7.77296 13.2398 7.87843 13.3734C8.11046 13.3559 8.22296 13.5387 8.21593 13.7707C8.27075 13.8745 8.29491 13.9918 8.28557 14.1088C8.27623 14.2259 8.23379 14.3378 8.1632 14.4316C8.17375 14.3402 8.1632 14.2066 8.15617 14.1258C8.14914 13.9816 7.94523 13.95 7.96632 13.8305C7.86085 13.841 7.7589 13.7812 7.72375 13.7039C7.69309 13.7298 7.65625 13.7473 7.61681 13.7547C7.57737 13.7621 7.5367 13.7591 7.49875 13.7461C7.61828 13.7988 7.70968 14.0133 7.67453 14.1539C7.73781 14.2594 7.72375 14.4527 7.64992 14.5406C7.61476 14.7094 7.48117 14.7727 7.3089 14.6953C7.35172 14.6665 7.38626 14.6271 7.40909 14.5808C7.43191 14.5346 7.44221 14.4831 7.43898 14.4316C7.38119 14.3731 7.34627 14.2957 7.34054 14.2137C7.16828 14.2418 6.92921 14.0941 6.88351 14.0379C6.79348 14.0383 6.70443 14.0565 6.62143 14.0914C6.53843 14.1263 6.46312 14.1772 6.39978 14.2412C6.33645 14.3051 6.28634 14.381 6.25232 14.4643C6.21829 14.5477 6.20102 14.6369 6.20148 14.7269C6.1839 14.5863 6.0046 14.4457 6.0257 14.3262C5.92023 13.9992 6.0714 13.6934 6.50382 13.6336C6.45109 13.5105 6.6339 13.3805 6.56359 13.2398C6.42622 12.9896 6.25725 12.758 6.06085 12.5508C6.21203 12.2941 6.16632 11.9531 6.07843 11.7387C5.95187 11.4328 5.83234 11.5102 5.38234 12.0023C4.64406 12.8109 3.66671 12.5859 2.80187 13.1168C2.57335 13.2574 2.34484 13.3102 2.59093 13.0641C2.83703 12.818 3.49093 12.5719 3.91632 12.3574C4.71085 11.9602 5.38234 11.2957 5.64601 10.009C6.26828 6.97851 8.56046 7.97695 10.0054 8.54296C11.3659 9.07031 11.1198 7.87148 10.4308 7.14726C9.6046 6.2789 9.76984 5.59336 10.1566 5.04492C10.8562 4.95 12.1921 5.19257 11.9214 5.42461Z" fill="white" stroke="black" stroke-width="0.025"/>
<path d="M14.3789 12.8672C14.4782 12.8672 14.5765 12.8476 14.6682 12.8097C14.7599 12.7717 14.8432 12.716 14.9134 12.6458C14.9836 12.5756 15.0392 12.4923 15.0772 12.4006C15.1152 12.3089 15.1348 12.2106 15.1348 12.1113C15.1348 12.0121 15.1152 11.9138 15.0772 11.8221C15.0392 11.7304 14.9836 11.647 14.9134 11.5769C14.8432 11.5067 14.7599 11.451 14.6682 11.413C14.5765 11.375 14.4782 11.3555 14.3789 11.3555C14.1784 11.3555 13.9862 11.4351 13.8444 11.5769C13.7027 11.7186 13.623 11.9109 13.623 12.1113C13.623 12.3118 13.7027 12.5041 13.8444 12.6458C13.9862 12.7876 14.1784 12.8672 14.3789 12.8672Z" fill="white" stroke="black" stroke-width="0.025"/>
<path d="M11.4995 5.45978C11.3308 6.20157 11.4714 6.53907 11.721 6.86603C12.2308 7.54103 12.6351 9.08087 12.055 10.0863" stroke="black" stroke-width="0.025"/>
<path d="M12.382 9.21797C12.4523 9.18984 12.5859 9.10898 12.6175 8.96133M12.4347 8.89453C12.4558 8.76797 12.6562 8.71172 12.6597 8.57812M12.4382 8.39531C12.4277 8.26523 12.6386 8.1457 12.607 8.01211M12.3257 7.9207C12.3081 7.84688 12.5015 7.70273 12.4488 7.5832M12.1781 7.45664C12.1394 7.37227 12.273 7.27734 12.2132 7.18594M11.9671 7.08398C11.9531 7.02773 12.0374 6.90117 11.9917 6.82734M11.7562 6.65156C11.7738 6.62695 11.8441 6.57422 11.8159 6.50742M11.6085 6.33164C11.6402 6.31406 11.7245 6.28594 11.714 6.22266" stroke="black" stroke-width="0.025" stroke-linecap="round"/>
<path d="M7.18945 14.6531C7.01367 14.5898 6.79219 14.6777 6.75 14.8289M6.88008 14.966C6.90469 14.8148 7.1332 14.748 7.20352 14.8184C7.05937 14.741 6.98906 15.0223 7.11562 15.0293M8.30391 11.475C8.19844 11.5277 8.16328 11.7211 8.30391 11.8652M8.46211 11.5172C8.38828 11.5805 8.3918 11.7633 8.50078 11.809C8.40938 11.7422 8.50078 11.6297 8.57109 11.6227C8.63438 11.6227 8.67656 11.7 8.59922 11.7773M14.6637 11.9531C14.4176 11.8898 14.2172 12.1746 14.4422 12.4313C14.4422 12.1852 14.618 12.0199 14.8289 12.0656M14.734 12.2344C14.7214 12.2339 14.7088 12.236 14.6971 12.2406C14.6853 12.2452 14.6747 12.2522 14.6658 12.2611C14.6568 12.27 14.6499 12.2807 14.6453 12.2924C14.6407 12.3041 14.6386 12.3167 14.6391 12.3293C14.6391 12.3785 14.6813 12.4242 14.748 12.4242C14.7937 12.4242 14.8289 12.375 14.8289 12.3328M15.6023 6.81328C15.6445 6.96797 15.8484 7.02773 16.0137 6.99258M16.0137 6.89414C15.8871 6.90117 15.7816 6.78164 15.7887 6.67969C15.7887 6.75352 15.9645 6.78867 16.0137 6.73945" stroke="black" stroke-width="0.025" stroke-linecap="round" stroke-linejoin="round"/>
<path d="M7.25269 11.9355C7.21753 11.8477 7.35815 11.7598 7.36167 11.6754C7.3687 11.591 7.52339 11.5277 7.67808 11.6859M7.60776 10.7438C7.57261 10.7578 7.548 10.7789 7.52339 10.7859M7.91011 11.2254C7.87495 11.2254 7.79409 11.2254 7.7519 11.1937M7.75542 11.3941C7.72378 11.4082 7.65698 11.4363 7.6148 11.4434M6.2437 14.059C6.23667 14.1398 6.31401 14.2559 6.35972 14.291M6.58472 13.8691C6.54253 13.9395 6.5144 14.052 6.54253 14.1293M7.24565 14.1363C7.1648 14.0836 7.21753 13.9465 7.2105 13.8551C7.19995 13.7672 7.3019 13.6266 7.49878 13.7496M6.50034 13.6336C6.5812 13.6195 6.66558 13.623 6.71831 13.6441M7.50933 13.3805C7.48131 13.4211 7.46435 13.4684 7.46011 13.5176M7.88198 13.3699C7.8187 13.3699 7.76597 13.4156 7.73784 13.4613M7.02417 11.1094C7.09448 11.134 7.27729 11.2465 7.28433 11.3625M7.773 10.5328C7.55503 10.5328 7.47417 10.3078 7.63589 10.3078M8.16323 10.8281C8.07886 10.8633 8.11753 11.0109 8.23354 11.0813M7.64644 12.2168C7.60425 12.1641 7.65698 12.0059 7.79409 12.0551M7.96987 13.827C7.9769 13.6934 8.14565 13.616 8.21597 13.7637M7.34058 14.2102C7.33003 14.0625 7.40386 14.0133 7.47065 14.0062C7.53745 13.9957 7.63237 14.052 7.67456 14.1469M6.02222 14.3227C6.03276 14.2348 6.11011 14.1398 6.18745 14.1539M14.1046 10.4062C14.0449 10.4484 14.0097 10.6348 14.2277 10.6523M13.7707 10.7156C13.7707 10.7367 13.7953 10.7684 13.8128 10.7789M14.8078 11.0672C14.7515 11.0215 14.6039 11.2008 14.7375 11.3309M13.405 12.5508C13.3699 12.4242 13.4894 12.3926 13.5984 12.4172M13.1238 11.6578C13.1906 11.6156 13.2574 11.5664 13.3382 11.5453M13.0886 12.143C13.0886 12.0375 13.1414 11.9496 13.1906 11.925M13.4753 10.9266C13.4735 11.0378 13.5027 11.1474 13.5597 11.243M14.5265 10.9336C14.4632 10.9547 14.407 10.9793 14.3824 11.032M14.4562 11.2957C14.4878 11.2711 14.523 11.2395 14.5371 11.2184M16.1261 7.44258C16.1261 7.56562 15.9714 7.63242 15.8695 7.55508M16.4601 7.44961C16.5304 7.49883 16.766 7.44961 16.7097 7.3125M16.1718 8.15625C16.1076 8.13802 16.0502 8.10135 16.0066 8.05078M16.6605 7.79063C16.6017 7.80575 16.5394 7.79952 16.4847 7.77305M15.4054 8.23359C15.4511 8.23359 15.5566 8.21602 15.6269 8.17734M15.2753 7.45312C15.2293 7.44457 15.1817 7.45333 15.1417 7.47773M16.1613 7.66758C16.145 7.73661 16.1082 7.79912 16.0558 7.84687" stroke="black" stroke-width="0.025" stroke-linecap="round"/>
<path d="M15.1241 7.86444C15.2331 7.81522 15.3702 8.19139 15.6339 8.0578M15.6585 7.67108C15.6234 7.71678 15.5988 7.79061 15.5952 7.85741" stroke="black" stroke-width="0.025" stroke-linecap="round" stroke-linejoin="round"/>
<path d="M10.378 7.09453C10.4132 7.09102 10.4764 7.07695 10.487 7.03125M5.83582 11.2078C5.96941 11.2816 6.06082 11.4117 6.00457 11.6016M11.9038 6.69375C11.946 6.71836 12.0936 6.71836 12.178 6.68672M12.2835 6.78164C12.2835 6.84141 12.2975 7.07695 12.178 7.12617M12.2237 7.09102C12.3327 7.12617 12.5542 7.11562 12.6245 6.91523M12.4698 7.08398C12.4887 7.11292 12.5012 7.14557 12.5065 7.17974C12.5118 7.21391 12.5097 7.24881 12.5003 7.2821C12.491 7.31539 12.4747 7.3463 12.4524 7.37277C12.4302 7.39923 12.4026 7.42064 12.3714 7.43555M12.512 7.23164C12.6421 7.27383 12.9374 7.27734 12.9057 7.02773M12.8073 7.23164C12.8952 7.35469 13.2819 7.49883 13.2221 7.24219M12.4487 7.58672C12.5999 7.62188 12.8108 7.51992 12.7229 7.25625M13.1448 7.38984C13.1694 7.4918 13.6616 7.59727 13.5948 7.36875M13.5034 7.49883C13.5948 7.70977 14.087 7.6957 13.9323 7.41094M13.8514 7.62891C13.9499 7.74844 14.3788 7.67812 14.21 7.38984M14.2065 7.62539C14.4737 7.82578 14.7866 7.5375 14.4491 7.32305M14.6038 7.55859C14.8393 7.74844 15.1311 7.40391 14.9237 7.30547M12.7159 7.48125C12.7932 7.50234 12.9514 7.4918 12.9866 7.35469M12.9268 7.44609C12.9198 7.65 13.2573 7.72734 13.3417 7.49531M13.2292 7.61836C13.2925 7.75195 13.5878 7.80469 13.637 7.61836M13.5878 7.70273C13.637 7.83633 13.8936 7.82227 13.9639 7.68516M13.869 7.77305C13.9499 7.94883 14.2768 7.94883 14.3507 7.6957M14.2944 7.80469C14.421 7.88555 14.6952 7.85391 14.6741 7.60781M14.6214 7.78359C14.8112 7.93828 15.0784 7.78711 14.9483 7.52695M14.9343 7.98398C15.0362 7.96992 15.0889 7.76602 14.9835 7.71328M12.5823 8.02266C12.7932 7.90664 12.8319 7.71328 12.6878 7.52344M12.7616 7.8293C12.8952 7.90664 13.1483 7.82227 13.1905 7.62891M12.9444 7.85039C13.0147 7.94531 13.0323 8.06484 12.9339 8.17734M13.0042 7.97344C13.2397 7.82578 13.5315 8.09648 13.3136 8.26172M13.2749 7.95937C13.3276 7.94531 13.419 7.85039 13.4296 7.73789M13.3803 8.06133C13.4753 7.95938 14.1397 8.1668 13.7214 8.37773M13.6862 7.78008C13.8163 7.83281 13.8831 8.01211 13.6862 8.07539M13.855 8.22656C13.9956 8.07891 14.4386 8.17383 14.2803 8.35664M14.1749 8.1668C14.2522 7.89961 14.7268 8.06484 14.5721 8.17734M14.08 7.89609C14.0905 7.95234 14.094 8.08242 14.0096 8.15273M14.4737 7.84687C14.4826 7.8762 14.485 7.90712 14.4808 7.93748C14.4765 7.96784 14.4657 7.9969 14.4491 8.02266M14.776 7.84687C14.8007 7.89961 14.8464 7.9875 14.7479 8.06484M10.9968 5.81836C11.0003 6.07148 11.0882 6.24023 11.4292 6.07852M11.1022 6.1207C10.9335 6.3457 11.1233 6.58828 11.4538 6.3457M10.5854 6.22969C10.8139 6.47578 11.2253 6.29648 10.9616 5.92031M11.2393 6.44062C11.1936 6.68672 11.394 6.73242 11.5557 6.62344M10.3815 6.27187C10.4237 6.51445 10.6733 6.70781 10.9159 6.55312M10.6874 6.60938C10.6874 6.95742 11.169 6.99609 11.278 6.63398M11.1022 6.85547C11.2604 7.17188 11.5944 7.04531 11.7069 6.85195M10.7577 6.34219C10.821 6.50039 10.944 6.67266 11.2323 6.54258M9.87527 6.26836C9.91394 6.39844 10.146 6.54961 10.4096 6.37383M10.0405 6.43359C9.89988 6.64102 10.1811 6.83438 10.5186 6.525M10.2057 6.69023C10.2655 6.97852 10.3815 7.21406 10.7928 6.83789M10.5854 6.98906C10.7366 7.17539 10.9651 7.28789 11.1831 6.975" stroke="black" stroke-width="0.025"/>
<path d="M11.3448 7.04181C11.3307 7.26329 11.3764 7.37228 11.5487 7.36525C11.6823 7.35822 11.8124 7.24923 11.8862 7.13322M11.5171 7.36525C11.5136 7.61486 11.7104 7.81525 12.0796 7.55861M11.6718 7.66056C11.6014 7.8504 11.8124 8.15978 12.2272 7.99806M10.7928 7.15431C10.7647 7.4004 10.9932 7.56212 11.3553 7.24923M10.9686 7.42501C10.9827 7.6254 11.2077 7.86447 11.5382 7.51993M11.1268 7.67814C11.1022 8.01564 11.4151 8.11407 11.6788 7.85392M10.6593 7.42501C10.7296 7.42853 10.7823 7.36876 10.8175 7.32306M10.8069 7.67462C10.8667 7.68517 10.9721 7.62892 11.0073 7.55861M10.9616 8.0754C11.0319 8.14923 11.271 8.0965 11.2991 7.99454M11.2288 8.06837C11.3589 8.37775 11.7104 8.3672 11.8581 8.01564M11.7878 8.1422C11.8581 8.3215 12.0233 8.43751 12.2975 8.37423M11.9214 8.32501C11.7667 8.57814 11.9706 8.87345 12.3151 8.58165M12.0057 8.70118C11.9882 8.85939 12.1358 9.0422 12.3327 9.06329M11.3553 8.23712C11.3026 8.59572 11.5593 8.76447 11.8827 8.57814M10.9827 8.40939C11.0671 8.47618 11.2147 8.48322 11.3553 8.43048M11.5311 8.64142C11.4503 8.94025 11.7596 9.1547 12.0233 8.82072M11.1022 8.45861C11.1022 8.61329 11.2569 8.78204 11.5171 8.73282M12.2448 9.0422C12.069 9.16173 12.0339 9.37267 12.28 9.50978M11.8124 8.98243C11.8194 9.15822 11.9038 9.26368 12.1042 9.27775M11.5522 8.88751C11.285 9.13009 11.5452 9.41486 11.8616 9.17228M11.735 9.24962C11.6471 9.52736 11.9811 9.69611 12.1569 9.41134M11.1901 8.65548C11.0917 8.9297 11.2147 9.11251 11.4397 9.09493M10.8421 8.60275C10.8526 8.76798 10.9932 8.82423 11.155 8.78907M10.944 8.77501C10.821 9.00704 11.0038 9.12658 11.2428 9.0422M11.9671 9.55197C11.9284 9.69962 11.9495 9.80509 12.1639 9.85431M11.9811 9.75939C11.7175 9.87892 11.6999 10.132 11.9003 10.2938M11.7702 9.48165C11.7388 9.5087 11.7143 9.54285 11.6988 9.58127C11.6832 9.6197 11.6771 9.66128 11.6809 9.70255C11.6846 9.74382 11.6982 9.7836 11.7205 9.81855C11.7428 9.85351 11.7731 9.88265 11.8089 9.90353M10.6136 8.67306C10.4624 8.82423 10.603 9.23204 10.937 9.00704M11.4714 9.18986C11.2675 9.35861 11.3624 9.66447 11.6964 9.57657M11.1339 9.06329C11.0284 9.36212 11.1339 9.46759 11.3694 9.47462" stroke="black" stroke-width="0.025"/>
<path d="M10.3851 8.6625C10.3524 8.68523 10.3249 8.71464 10.3044 8.74879C10.2839 8.78294 10.2709 8.82105 10.2662 8.8606C10.2616 8.90015 10.2654 8.94023 10.2774 8.9782C10.2894 9.01617 10.3093 9.05116 10.3358 9.08086C10.4132 9.16875 10.5644 9.13008 10.6101 9.01406M10.0054 8.54297C9.80498 8.80313 10.0054 9.1125 10.2937 9.02109M11.0917 9.31641C10.8843 9.38672 10.7261 9.58008 10.8562 9.7418C10.9265 9.84023 11.2569 9.8543 11.3483 9.47813M10.7155 9.07383C10.5995 9.24609 10.6382 9.40781 10.8562 9.49219M10.705 9.39375C10.5784 9.46406 10.494 9.54844 10.5222 9.70312M10.4167 9.12656C10.371 9.33398 10.4272 9.46055 10.5573 9.52383M10.4132 9.37266C10.2163 9.35859 10.1144 9.44297 10.1812 9.63633M10.1987 9.42188C10.0019 9.35156 9.97373 9.18281 10.0581 9.00703M10.03 9.26719C9.81904 9.27422 9.72412 9.37969 9.72412 9.52734" stroke="black" stroke-width="0.025"/>
<path d="M9.74175 8.44102C9.58706 8.50781 9.53784 8.71523 9.59761 8.82773C9.65386 8.94375 9.83667 8.9543 9.94565 8.87695M9.31284 8.2793C9.1687 8.4375 9.33042 8.74688 9.58354 8.66953M8.95073 8.15273C8.81714 8.33906 8.96128 8.64844 9.30229 8.56055M9.31987 9.42188C9.28472 9.20039 9.51323 9.05625 9.79448 9.34102M9.65737 8.89453C9.61779 8.93136 9.58733 8.97691 9.56842 9.02756C9.5495 9.07821 9.54264 9.13257 9.54839 9.18633M8.58511 8.05078C8.44097 8.29688 8.61675 8.52539 8.92964 8.4375M9.40425 8.66602C9.19331 8.87344 9.26362 9.08086 9.42183 9.20039M9.27065 8.90859C8.95425 8.91211 8.94018 9.27422 9.19683 9.39023M9.03159 8.54648C8.90503 8.63438 8.86284 8.87695 9.08433 8.97539M9.02456 9.08789C8.89097 9.02812 8.73276 9.10195 8.74331 9.25664M8.82417 9.09492C8.70464 8.81367 8.35659 8.85937 8.38823 9.15117M8.92261 8.74336C8.84526 8.75742 8.69761 8.80312 8.64136 8.91914M8.66245 8.42695C8.52183 8.58516 8.62729 8.77852 8.74331 8.81367M8.24058 7.98047C8.21597 8.17031 8.28979 8.26172 8.52886 8.24766M8.32495 8.22305C8.23354 8.45508 8.35659 8.55352 8.59565 8.53945M8.37768 8.5043C8.23706 8.67305 8.3355 8.85586 8.47261 8.92969M8.31089 8.71875C8.06128 8.68711 8.02261 8.97891 8.10347 9.11602" stroke="black" stroke-width="0.025"/>
<path d="M8.11049 7.95587C7.9558 8.02267 7.86439 8.21603 7.94877 8.33556C8.03314 8.45509 8.20189 8.41642 8.2933 8.35314M8.0015 8.38829C7.87494 8.58165 7.99096 8.72931 8.12807 8.78556" stroke="black" stroke-width="0.025"/>
<path d="M7.50927 7.93475C7.4038 8.04022 7.4706 8.25468 7.71669 8.26171C7.91357 8.26171 8.01552 8.07538 7.95576 7.9453M7.68154 8.26171C7.60068 8.43749 7.6499 8.62733 7.94873 8.59569M8.0788 8.87343C7.89248 8.78905 7.64638 8.87343 7.75185 9.09491M7.72373 8.56053C7.6499 8.666 7.67802 8.81718 7.75888 8.9121M7.71318 8.84178C7.58662 8.86288 7.46709 8.92968 7.54443 9.12303M7.52685 8.96483C7.36865 8.91913 7.16474 9.03514 7.28779 9.19686M7.25966 9.04218C7.12607 9.02108 6.96084 9.16522 7.09443 9.30936M7.04169 9.18983C6.91865 9.22499 6.77099 9.36561 6.90107 9.47108M7.66396 8.49725C7.48818 8.57811 7.46709 8.7785 7.55146 8.91913M7.47763 8.13163C7.21396 8.23358 7.21748 8.58866 7.50927 8.69413M7.38623 8.61678C7.22451 8.71171 7.19638 8.88749 7.30185 9.0035M7.10849 7.99803C7.00302 8.03319 7.01005 8.36014 7.2913 8.3496M6.81669 8.11053C6.60576 8.25116 6.85888 8.60975 7.20341 8.35311M7.01357 8.441C6.98193 8.58514 7.02412 8.74686 7.25966 8.76444M7.02763 8.63436C6.9816 8.65765 6.9448 8.69582 6.92321 8.74268C6.90163 8.78953 6.89654 8.84231 6.90876 8.89243C6.92098 8.94255 6.94981 8.98706 6.99054 9.01871C7.03127 9.05037 7.08152 9.06731 7.1331 9.06678M6.49326 8.32147C6.2788 8.52186 6.66904 8.69413 6.81669 8.40585M6.19443 8.65194C6.08896 8.78202 6.4581 9.116 6.61982 8.55702M6.66201 8.54647C6.66904 8.68007 6.7499 8.75741 6.91162 8.76796M6.91162 8.89452C6.64795 8.93671 6.56357 9.26366 6.85537 9.33397M6.42646 8.85233C6.41943 8.97538 6.54599 9.07733 6.69365 9.05624M6.82373 9.32343C6.58466 9.37616 6.55654 9.68553 6.76748 9.66796M6.65849 9.95624C6.4581 9.89647 6.45459 9.66093 6.63037 9.56952" stroke="black" stroke-width="0.025"/>
<path d="M6.49324 9.74884C6.32449 9.84728 6.39128 10.0934 6.47917 10.1285C6.56707 10.1637 6.63738 10.118 6.64792 10.0442M6.63386 10.3817C6.65144 10.4977 6.22605 10.452 6.44402 10.0969M6.44402 10.4027C6.29988 10.6277 6.53191 10.8106 6.67957 10.6207M6.4616 10.6734C6.40535 10.8563 6.62332 10.9863 6.76394 10.8457M5.98699 8.98243C5.90613 9.14415 6.30339 9.20392 6.33152 8.86993M5.87449 9.2215C5.79714 9.5379 6.3948 9.47462 6.24011 9.06329M6.25417 9.27423C6.29393 9.29278 6.33747 9.30178 6.38132 9.3005C6.42517 9.29922 6.46811 9.2877 6.50671 9.26686C6.54531 9.24602 6.57851 9.21644 6.60364 9.18048C6.62877 9.14453 6.64514 9.10319 6.65144 9.05978M6.47214 9.28478C6.48337 9.32953 6.50346 9.37157 6.53124 9.40841C6.55902 9.44525 6.59392 9.47614 6.63386 9.49923M6.18386 9.36915C6.15925 9.54142 6.33152 9.68204 6.52839 9.66798M6.21199 9.53439C6.11707 9.66798 6.08894 9.92111 6.39128 9.9422M5.75144 9.58009C5.70222 9.7172 5.9905 9.85782 6.15925 9.63282M5.66355 9.92814C5.63894 10.0336 5.8991 10.1742 6.04324 9.73126M5.92722 9.95626C5.9905 10.0652 6.19792 10.1531 6.32449 9.93868M6.11707 10.0688C6.06433 10.2234 6.21199 10.3711 6.38777 10.3254M5.79011 10.0336C5.75496 10.2551 6.00808 10.3852 6.16628 10.2692M5.61785 10.1285C5.54402 10.4133 5.90613 10.5188 6.03972 10.3078M5.95183 10.3922C5.96238 10.5504 6.21199 10.6875 6.40535 10.5539M5.50886 10.5258C5.49128 10.5961 5.79011 10.6664 5.8323 10.4203M5.68113 10.5856C5.75144 10.7684 5.9905 10.8106 6.12761 10.5891M6.04675 10.677C6.07839 10.8457 6.29285 10.9406 6.48621 10.8246M6.56355 10.8914C6.51433 11.1164 6.74988 11.2957 6.89402 11.1727M6.19089 10.8527C6.12058 11.0988 6.42644 11.2395 6.59871 11.1024M5.81824 10.7262C5.80066 10.9582 5.97996 11.0953 6.18738 10.9934M5.42449 10.7473C5.36472 10.8985 5.69167 11.0215 5.84636 10.8949M5.22058 11.1586C5.30496 11.257 5.59675 11.1586 5.62488 10.9442M5.54402 11.1024C5.64949 11.2254 5.90261 11.2922 6.00105 11.0285M5.91667 11.1656C5.90964 11.3555 6.25066 11.4926 6.35964 11.141M6.76042 11.2113C6.72878 11.3027 6.80261 11.4504 6.95378 11.468M6.47917 11.1516C6.45808 11.257 6.61277 11.4082 6.77449 11.3484M6.80964 11.3906C6.76394 11.5067 6.7991 11.6719 6.95378 11.6719M6.82371 11.6051C6.70769 11.7035 6.75339 11.8758 6.92214 11.8828M6.76394 11.7703C6.59871 11.8793 6.65847 12.1219 6.87292 12.1078M6.26824 11.2992C6.26824 11.5383 6.56355 11.5734 6.6198 11.3555M6.5073 11.4961C6.4616 11.6367 6.57761 11.7738 6.75691 11.7352M6.54246 13.2012C6.58113 13.2574 6.74636 13.159 6.70066 13.0606C6.65847 12.9656 6.48269 13.0184 6.50378 13.1203M6.66199 13.0219C6.68308 12.8285 6.45105 12.7969 6.3948 12.9656M6.47917 12.8672C6.53894 12.7723 6.34207 12.6387 6.26472 12.7793M6.33503 12.7231C6.38777 12.5824 6.16628 12.5192 6.14871 12.6492M6.09949 12.4629C6.12761 12.3926 6.37371 12.4348 6.26824 12.5824M6.45808 12.7582C6.55652 12.6703 6.39128 12.4875 6.28933 12.5543M7.11199 13.0289C7.03464 13.0359 6.95378 13.0852 7.01003 13.2504C7.05222 13.3629 7.22097 13.3699 7.24558 13.2996" stroke="black" stroke-width="0.025"/>
<path d="M6.99597 13.1098C6.92566 13.0606 6.76042 13.145 6.83425 13.2996M6.83425 13.2996C6.8905 13.4192 7.03464 13.37 7.05573 13.3102M6.83425 13.2996C6.80261 13.3735 6.61276 13.4051 6.57761 13.3348M6.70417 13.1168C6.74636 13.0922 6.81667 13.1239 6.83425 13.159M6.69362 12.0305C6.56355 12.1149 6.64441 12.368 6.84128 12.3047M6.65144 12.2344C6.54948 12.3153 6.64441 12.5649 6.83425 12.47M6.68308 12.47C6.61276 12.5403 6.68308 12.7371 6.86589 12.702M6.65495 12.5684C6.6198 12.5508 6.51433 12.5649 6.46862 12.6282M6.53894 11.6754C6.44401 11.7668 6.48972 11.9567 6.67253 11.9707M6.5073 11.8653C6.36667 11.9356 6.36667 12.2133 6.64792 12.2239M6.49675 12.1782C6.41941 12.2414 6.45456 12.4805 6.65495 12.4489M6.56003 12.4418C6.53191 12.47 6.52487 12.5403 6.54948 12.5719M6.47214 12.3504C6.40183 12.3504 6.30691 12.4032 6.2823 12.477M6.15573 12.2203C6.18386 12.15 6.40183 12.1536 6.41589 12.361M6.43698 12.1149C6.41257 12.1199 6.38993 12.1314 6.3714 12.1481C6.35287 12.1647 6.3391 12.1861 6.33151 12.2098M6.34206 11.468C6.24714 11.5524 6.20144 11.8231 6.48972 11.8758M6.15222 12.027C6.15222 11.9567 6.34909 11.8934 6.41589 12.0024M6.02566 11.6332C6.05378 11.686 6.19089 11.7633 6.27175 11.7036M5.3155 11.2008C5.31421 11.2326 5.31986 11.2642 5.33208 11.2935C5.34429 11.3228 5.36277 11.3491 5.38621 11.3706C5.40965 11.392 5.43749 11.408 5.46779 11.4176C5.49808 11.4271 5.5301 11.4299 5.56159 11.4258C5.70925 11.4082 5.73737 11.2782 5.69519 11.1938M5.58269 11.4293C5.48776 11.5489 5.6073 11.7176 5.71628 11.6684M5.69519 11.345C5.75144 11.3239 5.94128 11.2957 5.99753 11.3836M5.08347 11.3836C5.03776 11.4469 5.31198 11.5137 5.39987 11.3836M5.31198 11.4539C5.30144 11.5383 5.34714 11.6895 5.57214 11.6297" stroke="black" stroke-width="0.025"/>
<path d="M5.60736 11.7633C5.64251 11.693 5.47376 11.5664 5.3472 11.7035C5.21712 11.8406 5.36478 11.9953 5.44212 11.9426M5.02025 11.468C4.94994 11.584 5.21009 11.7949 5.35423 11.598" stroke="black" stroke-width="0.025"/>
<path d="M4.85151 11.6684C4.75659 11.7633 4.8726 11.9356 5.00971 11.8828C5.15034 11.8301 5.13627 11.6859 5.10463 11.6473" stroke="black" stroke-width="0.025"/>
<path d="M4.66867 11.8442C4.59836 11.9145 4.66867 12.0727 4.77414 12.0727C4.87961 12.0727 4.93938 11.9918 4.91828 11.8899M5.09406 11.8301C5.07648 11.9356 5.22766 12.0059 5.32609 11.9074M5.32961 11.7246C5.34367 11.7 5.32961 11.6649 5.30852 11.6473M4.51047 11.9813C4.42258 12.0516 4.60891 12.2414 4.72492 12.0656M5.17492 11.9426C5.11867 11.9953 5.20656 12.1359 5.29445 12.0938M4.87258 12.041C4.88313 12.1359 5.06945 12.2063 5.18899 12.0621M4.97102 12.1324C4.94289 12.1957 5.00266 12.2906 5.07297 12.2766M6.72883 12.6809C6.65852 12.8145 6.88 12.9727 7.0382 12.8109M6.88703 12.8813C6.85188 12.9516 6.89406 13.057 6.95734 13.0922M6.67961 13.0324C6.69719 12.9692 6.79211 12.9059 6.87649 12.9375M6.56711 12.8602C6.57766 12.8004 6.65852 12.7406 6.71828 12.7547M11.7632 10.1039C11.4503 10.1109 11.5839 10.6137 11.8511 10.5117M11.6613 10.4766C11.6015 10.5785 11.721 10.7402 11.8511 10.6453M11.8159 10.6629C11.7245 10.8176 12.055 11.0531 12.1886 10.8106M12.0831 10.9055C12.0831 11.0496 12.512 11.141 12.4488 10.8527M12.4101 11.011C12.5085 11.1832 12.8882 11.2008 12.8495 10.9406M12.7652 11.1199C12.846 11.2359 13.2152 11.3063 13.2046 11.0672M11.2605 9.66798C11.3132 9.80509 11.496 9.85431 11.6929 9.77345M11.1445 9.76642C11.271 9.84376 11.0882 10.2059 10.8984 10.0617M11.1445 9.99142C11.2851 10.0547 11.4503 10.009 11.496 9.81564M11.4152 9.96329C11.4292 10.0652 11.5734 10.1461 11.7667 10.1039M11.0741 10.0688C11.2499 10.2199 10.9968 10.5258 10.8808 10.3852M11.1409 10.1848C11.2253 10.2445 11.4433 10.2094 11.4644 10.0442M11.3659 10.1848C11.3835 10.2902 11.4714 10.3289 11.5874 10.3359M11.0952 10.3289C11.1831 10.452 11.4011 10.4906 11.4995 10.3254M11.6613 10.6067C11.5241 10.6348 11.3941 10.5363 11.4011 10.4168C11.4187 10.5856 11.2113 10.6734 11.0812 10.5996M10.923 10.684C11.0355 10.7402 11.1585 10.5258 11.0636 10.3746M11.053 10.9125C11.1937 10.9231 11.2077 10.7121 11.0812 10.5961M11.3659 11.1024C11.482 11.0742 11.4468 10.8211 11.1691 10.8035M11.714 11.2887C11.8265 11.257 11.7386 10.9793 11.4327 10.9969M12.1359 11.3836C12.2097 11.2711 11.9601 11.0742 11.7597 11.1762M12.3433 11.5453C12.4804 11.5805 12.5718 11.2219 12.1394 11.2781M12.5964 11.5453C12.7124 11.5102 12.7968 11.2992 12.4488 11.3695M12.8601 11.5629C12.9655 11.6156 13.0148 11.3063 12.6913 11.3871M11.3484 10.5645C11.3941 10.6418 11.3765 10.7965 11.2921 10.8387M11.3624 10.7508C11.4503 10.7859 11.5698 10.7508 11.6402 10.6102M11.5171 10.7508C11.5417 10.8106 11.5523 10.9336 11.496 10.9969M11.5382 10.8563C11.6366 10.909 11.7491 10.8387 11.7984 10.7367M11.7386 10.8246C11.8089 10.8668 11.8687 11.0742 11.7527 11.1586M11.8159 11.0637C11.9003 11.0672 12.0269 11.0672 12.1042 10.9582M12.048 11.018C12.1218 11.0391 12.2097 11.1656 12.178 11.2746M12.1851 11.2359C12.2695 11.2254 12.4136 11.1656 12.4523 11.0672M12.4136 11.134C12.4511 11.1566 12.4812 11.1895 12.5006 11.2288C12.5199 11.268 12.5275 11.312 12.5226 11.3555M12.5226 11.2852C12.607 11.2781 12.6808 11.2359 12.7054 11.1445M12.6808 11.2043C12.7441 11.2254 12.8214 11.2957 12.8214 11.3801M12.8144 11.3274C12.8777 11.3168 12.9198 11.2781 12.962 11.2184M13.1273 11.2078C13.2081 11.2887 13.1027 11.5524 12.9374 11.5031M11.4327 5.85704C11.271 5.95548 10.807 5.92736 11.0355 5.54064M11.4784 5.59689C11.155 5.72697 10.7577 5.47736 11.1726 5.21017M11.0636 5.12228C10.7929 5.12228 10.6136 5.5547 10.9757 5.70236M10.0159 5.30157C9.94563 5.4422 10.1988 5.58986 10.3675 5.45275C10.5046 5.34728 10.4941 5.059 10.4132 4.95001M9.87883 5.62501C9.79094 5.91681 10.4413 5.93439 10.3359 5.47032M9.84367 6.05743C9.86477 6.27892 10.4659 6.20861 10.2726 5.76212M10.3429 5.63907C10.3921 5.70587 10.5222 5.81837 10.7472 5.79728M10.4484 5.32618C10.4695 5.40353 10.603 5.46681 10.7753 5.40704M4.42609 12.0445C4.27141 12.1535 4.50695 12.3258 4.59133 12.136M4.30656 12.1289C4.15539 12.2344 4.38742 12.4102 4.47531 12.2203M4.18 12.2098C4.02883 12.3188 4.26086 12.491 4.34875 12.3012M4.04641 12.2871C3.90227 12.3645 4.07102 12.5543 4.22219 12.3856M3.90578 12.3574C3.75813 12.4348 3.93039 12.6246 4.07805 12.4594M4.64055 12.1324C4.64055 12.2449 4.855 12.2906 4.93234 12.1219M4.78117 12.2344C4.71438 12.3188 4.83742 12.4242 4.90422 12.3856M4.49641 12.2203C4.48938 12.3152 4.6757 12.368 4.76711 12.266M4.59836 12.3188C4.53859 12.3961 4.65461 12.5016 4.73195 12.4699M4.37336 12.3047C4.38039 12.382 4.48586 12.4664 4.60188 12.4172M4.44016 12.4067C4.39797 12.4453 4.41906 12.5402 4.48234 12.5684M4.21164 12.3996C4.19406 12.4699 4.31008 12.5895 4.42961 12.5121M4.23625 12.477C4.16594 12.5367 4.17297 12.6176 4.26438 12.6317M4.0675 12.4699C4.05695 12.5156 4.11672 12.593 4.19406 12.5824M3.68781 12.4664C3.6175 12.5016 3.80031 12.6949 3.91281 12.5192M3.51555 12.5473C3.42766 12.5895 3.64563 12.8004 3.74406 12.5824M4.08859 12.5367C4.01828 12.5543 3.97609 12.6527 4.03234 12.6914M3.86359 12.5719C3.85656 12.6141 3.93742 12.6774 4.00422 12.6527M3.80734 12.5895C3.73703 12.6317 3.77219 12.7477 3.85305 12.7301M3.5718 12.6668C3.50852 12.7125 3.5507 12.8074 3.63508 12.7828M3.6843 12.6598C3.6843 12.6844 3.74055 12.7231 3.78625 12.709M3.35383 12.6211C3.27649 12.6563 3.28 12.8496 3.54016 12.7442M3.17805 12.6985C3.07258 12.7512 3.10774 12.8988 3.34328 12.7582M3.36086 12.7688C3.33274 12.7899 3.30109 12.8883 3.41008 12.8496M3.16399 12.8145C3.11828 12.8531 3.14641 12.9375 3.24484 12.9059M2.93547 12.8285C2.85461 12.8742 3.03039 12.934 3.14641 12.8145M2.9882 12.8848C2.95305 12.9199 2.95305 13.0254 3.04445 12.9902M2.7632 12.927C2.71047 12.9692 2.79836 13.0219 2.96711 12.9481M2.82649 12.9832C2.76672 13.0359 2.77375 13.0992 2.86164 13.0817M2.64719 13.0113C2.57688 13.0746 2.67531 13.1168 2.79484 13.0676M2.64719 13.0817C2.53117 13.1344 2.58039 13.2328 2.65422 13.1942M6.55656 13.4192C6.52844 13.4789 6.61633 13.5246 6.7007 13.5141C6.78156 13.5 6.85891 13.4332 6.79914 13.3383M6.79914 13.4543C6.88 13.5176 7.02414 13.4473 7.02414 13.3524" stroke="black" stroke-width="0.025"/>
<path d="M11.6718 4.10277C11.3202 3.92699 10.5855 3.59652 10.3781 3.86371C10.5679 3.78285 11.1234 3.86722 11.5839 4.29261L11.6718 4.10277Z" fill="white" stroke="black" stroke-width="0.025"/>
<path d="M11.8828 4.08163C11.4785 3.60702 11.2359 3.71249 10.9441 3.55077C10.6664 3.39608 10.227 3.36444 10.1426 3.61054C10.5469 3.41366 10.916 3.71601 11.141 3.75116C11.4574 3.80038 11.6332 4.04296 11.7246 4.15546L11.8863 4.08515L11.8828 4.08163ZM13.4227 4.02187C13.2117 3.53671 12.7582 3.66327 12.5578 3.45937C12.266 3.15702 11.5312 2.87929 11.2254 3.08671C11.8934 3.05155 12.1816 3.54726 12.5402 3.71952C12.7969 3.84608 13.0676 4.10976 13.4227 4.02187Z" fill="white" stroke="black" stroke-width="0.025"/>
<path d="M12.6281 3.96914C12.266 3.51914 11.7141 3.12187 11.4539 3.27304C11.7914 3.29062 11.8969 3.52265 12.136 3.67383C12.375 3.825 12.266 4.03945 12.6281 3.96914ZM10.9055 4.76367C10.5293 4.62304 9.78752 4.55273 9.44299 4.98515C10.016 5.08008 10.8844 5.02734 10.909 4.76367H10.9055Z" fill="white" stroke="black" stroke-width="0.025"/>
<path d="M10.8386 4.93244C10.459 4.75666 10.1601 5.00275 9.80505 4.96759C9.12302 4.9008 8.63787 4.93947 8.57458 5.26642C8.96482 4.91837 9.61873 5.20666 9.8824 5.13283C10.1496 5.06252 11.1269 5.1258 11.4363 5.25939C11.2781 5.06252 11.032 5.0133 10.8386 4.93244ZM12.0304 3.91994C11.939 3.62814 11.9461 3.32228 12.382 3.34337C12.273 3.20275 11.8652 3.13244 11.7984 3.64572C11.3168 3.29416 10.7929 3.23087 10.6945 3.53673C10.9406 3.3258 11.3273 3.48048 11.7844 4.0008C11.8616 3.96091 11.9446 3.93361 12.0304 3.91994Z" fill="white" stroke="black" stroke-width="0.025"/>
<path d="M11.366 4.32421C11.0918 4.14843 10.7226 3.86014 11.3695 3.74413C11.0953 3.59296 10.6875 3.65975 10.7332 4.17304C9.98786 3.87069 9.457 3.97264 9.3445 4.26796C9.22146 4.59491 9.682 4.77772 9.75935 4.5703C9.67497 4.60546 9.39021 4.50702 9.53786 4.32421C9.68903 4.13788 10.459 4.27499 11.1902 4.65819C11.3941 4.76366 12.0902 4.74608 11.366 4.32421Z" fill="white" stroke="black" stroke-width="0.025"/>
<path d="M11.1727 4.80939C10.9617 4.37697 10.2762 4.7672 10.1391 4.35236C9.94923 4.96407 11.1129 4.62306 11.1727 4.80939ZM15.532 5.27697C15.6727 5.34728 15.7992 5.23478 15.5777 5.14689C15.7184 5.2172 15.8485 5.11173 15.627 5.02032C15.7711 5.09064 15.8977 4.98517 15.6762 4.89376C15.6164 4.95353 15.5356 5.1715 15.5285 5.27697H15.532ZM15.6024 4.44728C15.9223 4.10978 15.5777 3.99728 15.968 3.65275C16.2844 3.3715 16.0277 3.18165 16.3301 2.96368C16.425 2.89337 16.6359 2.75275 16.657 2.61212C16.7836 2.92853 16.2598 2.97072 16.2949 3.484C16.316 3.81095 16.0945 3.78282 16.0137 4.32775C15.9926 4.44728 15.9152 4.70392 15.6059 4.44728H15.6024Z" fill="white" stroke="black" stroke-width="0.025"/>
<path d="M15.7465 4.59495C15.9222 4.21526 16.1261 4.22229 16.2211 4.07463C16.4074 3.79338 16.8011 4.12385 17.1351 3.87073C17.0754 4.22932 16.6289 4.10276 16.432 4.33127C16.2422 4.55979 16.0804 4.66526 15.7465 4.59495Z" fill="white" stroke="black" stroke-width="0.025"/>
<path d="M15.7887 4.72151C16.098 4.47542 16.3265 4.63714 16.541 4.51057C17.0789 4.18011 17.2969 4.57386 17.775 4.41917C17.6484 4.72854 16.9383 4.46487 16.6289 4.69339C16.3195 4.9219 15.2332 5.14339 15.7887 4.72151ZM14.8887 6.47932C14.8806 6.39472 14.8449 6.31513 14.7871 6.25286C14.7292 6.19058 14.6525 6.14909 14.5687 6.13479C14.3824 6.1137 14.3015 5.92034 14.1609 5.90979C14.0203 5.90276 13.9254 5.62151 13.732 5.62503C13.5387 5.62854 13.4578 5.88167 13.9148 6.11018C14.3719 6.3387 14.8711 6.60237 14.8887 6.47932ZM14.3156 6.59886C14.1223 6.6094 14.0941 6.89065 13.9078 6.9012C14.1644 7.03831 14.3508 6.83792 14.4844 6.66214L14.3156 6.59886Z" fill="white" stroke="black" stroke-width="0.025"/>
<path d="M14.4738 6.63397C14.3086 6.7746 14.2594 7.07343 14.5019 7.1578C14.3543 6.95741 14.7586 6.866 14.632 6.67968L14.4738 6.63397Z" fill="white" stroke="black" stroke-width="0.025"/>
<path d="M14.6425 6.64452C14.5089 6.90116 14.8499 6.9328 14.762 7.12616C14.9554 7.08046 14.987 6.71483 14.8113 6.61639L14.6425 6.64452Z" fill="white" stroke="black" stroke-width="0.025"/>
<path d="M13.3453 6.09609C13.6617 6.07851 13.9535 6.25077 14.1469 6.52851C14.2699 6.70429 14.6848 6.7746 14.8289 6.63398C14.9696 6.49335 14.8887 6.19452 14.5371 6.28945C14.4492 6.14179 14.1926 6.19452 14.0696 6.07148C13.9465 5.94491 13.4684 5.59335 13.3453 6.09609Z" fill="white" stroke="black" stroke-width="0.025"/>
<path d="M14.5371 6.29298C14.4527 6.30704 14.4246 6.4547 14.4773 6.52853ZM14.7164 6.38087C14.7445 6.42306 14.7269 6.48634 14.7129 6.51798ZM13.848 6.11017C14.0097 6.1172 14.0414 6.23673 14.2172 6.28243Z" fill="white"/>
<path d="M14.5371 6.29298C14.4527 6.30704 14.4246 6.4547 14.4773 6.52853M14.7164 6.38087C14.7445 6.42306 14.7269 6.48634 14.7129 6.51798M13.848 6.11017C14.0097 6.1172 14.0414 6.23673 14.2172 6.28243" stroke="black" stroke-width="0.025" stroke-linecap="round"/>
<path d="M13.7391 5.70941C14.3016 5.85003 14.7516 5.97308 15.0293 6.13128C15.3651 6.29892 15.7516 6.33406 16.1121 6.22972C16.4883 6.12425 17.2125 6.02582 17.1773 6.49339C17.3742 6.26136 17.1246 6.00824 16.6219 5.96605C16.6324 5.73402 16.3863 5.5266 16.2105 5.66371C16.3723 5.64261 16.5129 5.94496 16.193 6.07152C16.2097 6.01726 16.21 5.95927 16.1939 5.90482C16.1778 5.85037 16.1459 5.8019 16.1024 5.76548C16.0588 5.72905 16.0055 5.7063 15.9491 5.70008C15.8926 5.69386 15.8356 5.70444 15.7851 5.7305C15.9363 5.77621 16.091 6.02933 15.75 6.12777C15.5355 6.19105 15.2226 6.11019 14.9906 5.96957C14.7586 5.82894 13.4508 5.31566 13.7355 5.70589L13.7391 5.70941Z" fill="white" stroke="black" stroke-width="0.025"/>
<path d="M15.1629 5.47734C14.9871 5.5582 15.0996 5.74452 14.8289 5.84999C14.5547 5.95546 14.3648 6.20156 14.4246 6.40546C14.6109 6.00116 14.9379 6.01874 15.0539 5.85702C15.1664 5.69882 15.3352 5.46679 15.1629 5.47734Z" fill="white" stroke="black" stroke-width="0.025"/>
<path d="M15.2121 5.5055C15.2016 5.82894 14.9484 5.7094 15.0469 6.16292C15.1116 6.3573 15.1091 6.56777 15.0398 6.76058C15.3211 6.55667 15.1418 6.12073 15.2684 5.9555C15.3425 5.86203 15.4018 5.75767 15.4441 5.64612C15.3738 5.83245 15.3809 6.17347 15.5602 6.26487C15.416 5.92034 15.9539 5.63909 15.5813 5.24183C15.5285 5.33675 15.3633 5.50901 15.2121 5.5055ZM14.3121 5.18206C14.3543 5.25237 14.4 5.41761 14.3613 5.50901C14.4677 5.43767 14.5547 5.34103 14.6145 5.22776C14.7973 5.25237 14.8676 5.47737 14.6953 5.57933C14.8008 5.57933 14.9836 5.57933 15.082 5.45628C14.959 5.31917 14.5758 5.10823 14.3086 5.18206H14.3121Z" fill="white" stroke="black" stroke-width="0.025"/>
<path d="M11.5664 4.54925C11.5187 4.51132 11.4616 4.48703 11.4012 4.47894C11.134 4.42621 11.2746 4.18714 11.4996 4.18714C11.9848 3.6598 12.259 4.06761 12.8496 3.89886C13.0605 3.8391 13.2012 3.85668 13.3137 3.90589C13.5773 3.73011 13.8867 3.77933 14.1117 3.98675C14.1363 3.94808 14.1715 3.91644 14.2172 3.90238C14.4281 3.84613 14.5934 4.02191 14.6496 4.25394C14.8113 4.21878 14.9977 4.30316 15.1207 4.41214C15.2859 4.32425 15.402 4.32074 15.4441 4.41214C15.5953 4.34183 15.7887 4.29613 15.8871 4.53519C15.9855 4.77425 15.6586 4.70043 15.6059 5.20316C15.5707 5.51605 15.2262 5.6391 14.952 5.44925C14.5125 5.15746 14.0871 5.10824 13.8727 5.55824C13.6617 6.00824 13.4965 6.27191 12.9832 6.12074C12.7969 6.07152 12.5613 6.14183 12.4102 6.34574C12.259 6.54613 12.0305 6.35628 11.7562 6.38089C12.1008 6.32816 11.9672 6.24027 12.266 6.21918C12.5402 6.2016 12.4699 5.94847 12.6457 5.9098C11.9602 6.08558 11.9848 5.83246 11.4187 6.00824C11.6648 5.69183 12.0551 5.86761 12.2484 5.68128C11.7387 5.67425 11.5102 5.34027 11.2781 5.47738C10.916 5.69886 11.0742 6.32816 10.132 6.27191C9.675 6.2473 9.37969 6.30707 9.10547 6.58128C9.58359 5.59691 10.2305 6.13832 10.5469 5.82191C10.7106 5.67517 10.8527 5.5059 10.9688 5.31918C10.9828 5.29186 11.0027 5.26796 11.027 5.24913C11.0513 5.23031 11.0794 5.21702 11.1094 5.21019C10.3219 4.9641 10.7965 4.57738 11.5664 4.54925Z" fill="white" stroke="black" stroke-width="0.025"/>
<path d="M15.4441 4.41211C15.4581 4.43672 15.4617 4.46836 15.4617 4.50703C15.4617 4.70391 15.1734 4.71094 15.1558 4.99922C15.1453 5.14687 15.1277 5.23125 15.0257 5.21367C14.9238 5.19609 14.8359 5.03789 14.9343 4.85156" fill="white"/>
<path d="M15.4441 4.41211C15.4581 4.43672 15.4617 4.46836 15.4617 4.50703C15.4617 4.70391 15.1734 4.71094 15.1558 4.99922C15.1453 5.14687 15.1277 5.23125 15.0257 5.21367C14.9238 5.19609 14.8359 5.03789 14.9343 4.85156" stroke="black" stroke-width="0.025" stroke-linecap="round"/>
<path d="M11.7106 4.26096C11.6491 4.21661 11.5755 4.19208 11.4996 4.19065ZM13.3102 3.90588C13.5457 4.00784 13.6582 4.25042 13.9992 4.25745C14.3262 4.27151 14.5266 4.74612 15.075 4.43674L15.1172 4.41565M14.1117 3.98674C14.0652 4.07264 14.0491 4.17177 14.066 4.26799ZM13.0465 4.98518C12.6281 4.98518 12.5227 5.19612 12.5227 5.40002C12.5227 5.60393 12.7196 5.8676 13.0606 5.8676C13.4051 5.8676 13.5914 5.65667 13.5914 5.42463C13.5914 5.1926 13.3805 4.98518 13.043 4.98518H13.0465Z" fill="white"/>
<path d="M11.7106 4.26096C11.6491 4.21661 11.5755 4.19208 11.4996 4.19065M13.3102 3.90588C13.5457 4.00784 13.6582 4.25042 13.9992 4.25745C14.3262 4.27151 14.5266 4.74612 15.075 4.43674L15.1172 4.41565M14.1117 3.98674C14.0652 4.07264 14.0491 4.17177 14.066 4.26799M13.0465 4.98518C12.6281 4.98518 12.5227 5.19612 12.5227 5.40002C12.5227 5.60393 12.7196 5.8676 13.0606 5.8676C13.4051 5.8676 13.5914 5.65667 13.5914 5.42463C13.5914 5.1926 13.3805 4.98518 13.043 4.98518H13.0465Z" stroke="black" stroke-width="0.025"/>
<path d="M13.1203 5.85702C13.1097 5.74452 12.9023 5.7621 12.9094 5.67421C12.9164 5.58632 13.0254 5.54765 13.0254 5.42812C13.0254 5.30858 13.2117 5.29452 13.2715 5.39296C13.3347 5.48788 13.5211 5.67421 13.5597 5.57929M13.275 5.38944C13.2184 5.44994 13.1857 5.52898 13.1831 5.61179C13.1805 5.69461 13.2082 5.77553 13.2609 5.83944M13.4051 5.54062C13.3769 5.60741 13.3699 5.70937 13.4051 5.76913Z" fill="white"/>
<path d="M13.1203 5.85702C13.1097 5.74452 12.9023 5.7621 12.9094 5.67421C12.9164 5.58632 13.0254 5.54765 13.0254 5.42812C13.0254 5.30858 13.2117 5.29452 13.2715 5.39296C13.3347 5.48788 13.5211 5.67421 13.5597 5.57929M13.275 5.38944C13.2184 5.44994 13.1857 5.52898 13.1831 5.61179C13.1805 5.69461 13.2082 5.77553 13.2609 5.83944M13.4051 5.54062C13.3769 5.60741 13.3699 5.70937 13.4051 5.76913" stroke="black" stroke-width="0.025"/>
<path d="M15.0538 5.21723C15.3808 5.24184 15.4335 4.88676 15.1945 4.86567M14.6566 4.25043C14.5441 4.10981 14.2839 4.06059 14.2804 4.36293" stroke="black" stroke-width="0.025"/>
<path d="M14.2488 4.71097C14.1398 4.43675 13.8551 4.39457 13.7074 4.53519C13.5808 4.64769 13.5773 4.943 13.848 5.00629C13.9394 4.8973 14.1222 4.74964 14.2488 4.71097ZM14.1293 4.53871C13.9676 4.39808 13.7355 4.66527 13.9465 4.91136ZM11.1094 5.20316C11.2148 5.17855 11.3695 5.23129 11.6086 5.34379C11.7597 5.4141 12.2062 5.56527 12.491 5.4141C12.1992 5.51957 11.9812 5.0766 11.7597 5.13285C11.5383 5.18558 11.134 5.26644 10.9652 5.10472C11.3801 5.13285 11.6015 4.80238 12.0761 5.08714C12.2108 5.17148 12.3673 5.21428 12.5261 5.21019C12.1394 4.74261 11.6261 5.04144 11.5734 4.66175C11.809 4.91488 12.382 4.6055 12.6703 5.0766M11.6578 4.73207C11.6015 4.66527 11.6261 4.59847 11.5699 4.54574Z" fill="white"/>
<path d="M14.1293 4.53871C13.9676 4.39808 13.7355 4.66527 13.9465 4.91136M11.1094 5.20316C11.2148 5.17855 11.3695 5.23129 11.6086 5.34379C11.7597 5.4141 12.2062 5.56527 12.491 5.4141C12.1992 5.51957 11.9812 5.0766 11.7597 5.13285C11.5383 5.18558 11.134 5.26644 10.9652 5.10472C11.3801 5.13285 11.6015 4.80238 12.0761 5.08714C12.2108 5.17148 12.3673 5.21428 12.5261 5.21019C12.1394 4.74261 11.6261 5.04144 11.5734 4.66175C11.809 4.91488 12.382 4.6055 12.6703 5.0766M11.6578 4.73207C11.6015 4.66527 11.6261 4.59847 11.5699 4.54574M14.2488 4.71097C14.1398 4.43675 13.8551 4.39457 13.7074 4.53519C13.5808 4.64769 13.5773 4.943 13.848 5.00629C13.9394 4.8973 14.1222 4.74964 14.2488 4.71097Z" stroke="black" stroke-width="0.025"/>
<path d="M14.6566 4.2539C14.5581 4.14843 14.3472 4.22929 14.407 4.44023C14.4293 4.39083 14.4634 4.34768 14.5063 4.31457C14.5492 4.28147 14.5996 4.25942 14.6531 4.25039L14.6566 4.2539ZM14.0554 4.8164C14.1141 4.77159 14.1793 4.73603 14.2488 4.71093C14.2222 4.64065 14.1772 4.57875 14.1187 4.53164C14.0695 4.49648 13.9218 4.69336 14.0554 4.8164Z" fill="black"/>
<path d="M13.7953 4.45781C13.6371 4.35234 13.4895 4.36289 13.4438 4.45078C13.3277 4.44726 13.2328 4.53164 13.2258 4.69687M13.4719 4.76718C13.282 4.63711 13.0219 4.68633 13.0395 4.97812M12.927 5.14336C13.0184 5.06953 13.152 5.01679 13.2504 5.14687M14.3402 4.85508C14.3051 4.90429 14.2805 4.98164 14.3402 5.09414C14.2699 5.00273 14.0906 5.00273 13.9008 5.24883M14.7621 4.84453C14.5336 4.86914 14.5371 5.02031 14.7234 5.08711M13.1274 4.28203C12.934 4.24336 12.7934 4.35937 13.0606 4.45781M13.5 4.14843C13.2258 4.07812 13.1133 4.14843 13.2399 4.21172M12.709 5.24531C12.6984 5.34375 12.7547 5.47031 12.9129 5.32617M12.7617 5.53711C12.7617 5.56523 12.7582 5.59336 12.7406 5.61797M12.1254 4.24687C11.9602 4.19414 11.9285 4.03945 12.1219 4.05351M12.0691 4.60195C11.8828 4.53867 11.8828 4.35586 12.0375 4.37695M12.4137 4.50703C12.1957 4.45429 12.1887 4.30664 12.3504 4.32773M12.4383 4.04648C12.3258 4.03945 12.1465 4.16953 12.4453 4.24336M12.7617 4.30664C12.491 4.26445 12.4981 4.37695 12.6563 4.44726M12.9656 4.05C12.7547 4.01133 12.6844 4.13437 12.825 4.18711M12.3152 4.8164C12.266 4.77422 12.2238 4.57383 12.4664 4.63359M12.818 4.75312C12.6563 4.71093 12.5016 4.86914 12.6492 4.96406M13.0359 4.56328C12.8602 4.53515 12.7195 4.58086 12.8109 4.64414" stroke="black" stroke-width="0.025" stroke-linecap="round"/>
<path d="M14.646 4.25391C14.5941 4.26336 14.5452 4.28525 14.5036 4.31769C14.462 4.35014 14.4288 4.39219 14.407 4.44023" fill="white"/>
<path d="M14.646 4.25391C14.5941 4.26336 14.5452 4.28525 14.5036 4.31769C14.462 4.35014 14.4288 4.39219 14.407 4.44023" stroke="black" stroke-width="0.025"/>
</g>
<defs>
<clipPath id="clip0_14_1293">
<rect width="18" height="18" rx="9" fill="white"/>
</clipPath>
</defs>
</svg>
