<svg width="18" height="18" viewBox="0 0 18 18" fill="none" xmlns="http://www.w3.org/2000/svg">
<g clip-path="url(#clip0_8201_9937)">
<path d="M0.424969 6.2608C0.149273 7.12455 -3.515e-05 8.04469 6.207e-09 8.99992C-3.515e-05 9.95508 0.149273 10.8753 0.425004 11.7391L9 12.1304L17.575 11.7391C17.8506 10.8753 18 9.95505 18 8.99996C18 8.04476 17.8507 7.12455 17.575 6.2608L8.99996 5.86951L0.424969 6.2608Z" fill="#F0F0F0"/>
<path d="M18 8.99995C18 8.46604 17.9532 7.94305 17.864 7.43469H0.135984C0.0467578 7.94305 0 8.46597 0 8.99992C0 9.53387 0.046793 10.0568 0.135984 10.5651H17.864C17.9532 10.0568 18 9.53384 18 8.99995Z" fill="black"/>
<path d="M8.9998 17.9999C13.0152 17.9999 16.4159 15.3701 17.5748 11.739H0.424805C1.58373 15.3701 4.98443 17.9998 8.9998 17.9999Z" fill="#338AF3"/>
<path d="M8.99984 1.40988e-09C4.98447 1.40988e-09 1.5838 2.62979 0.424805 6.2608L17.5747 6.26084C16.4159 2.62979 13.0152 -7.03111e-05 8.99984 1.40988e-09Z" fill="#338AF3"/>
</g>
<defs>
<clipPath id="clip0_8201_9937">
<rect width="18" height="18" fill="white"/>
</clipPath>
</defs>
</svg>
