<svg width="18" height="18" viewBox="0 0 18 18" fill="none" xmlns="http://www.w3.org/2000/svg">
<g clip-path="url(#clip0_14_1303)">
<mask id="mask0_14_1303" style="mask-type:luminance" maskUnits="userSpaceOnUse" x="0" y="0" width="18" height="18">
<path d="M0 0H17.9955V17.9955H0V0Z" fill="white"/>
</mask>
<g mask="url(#mask0_14_1303)">
<path fill-rule="evenodd" clip-rule="evenodd" d="M0 0H35.9946V11.9547H0V0Z" fill="#B20000"/>
<path fill-rule="evenodd" clip-rule="evenodd" d="M0 11.9547H35.9946V17.9991H0V11.9547Z" fill="#429F00"/>
<path fill-rule="evenodd" clip-rule="evenodd" d="M0 0H3.98368V17.9955H0V0Z" fill="white"/>
<path fill-rule="evenodd" clip-rule="evenodd" d="M0.188662 0.304762H0.380953V0.609525H0.188662V0.304762ZM0.758278 0.304762H1.32789V0.609525H0.761906L0.758278 0.304762ZM0.946941 0H1.13923V0.304762H0.943313L0.946941 0ZM1.89751 0H2.08617V0.304762H1.89751V0ZM2.65942 0.304762H3.2254V0.609525H2.65579L2.65942 0.304762ZM2.84445 0H3.03311V0.304762H2.84445V0ZM0.569616 0.609525H0.950569V0.914288H0.569616V0.609525ZM1.13923 0.609525H1.52018V0.914288H1.13923V0.609525ZM2.46713 0.609525H2.84808V0.914288H2.46713V0.609525ZM3.03674 0.609525H3.41044V0.914288H3.04037L3.03674 0.609525ZM0.380953 0.914288H0.758278V1.21905H0.380953V0.914288ZM1.32789 0.914288H1.70885V1.21905H1.32789V0.914288ZM2.27846 0.914288H2.65579V1.21905H2.27846V0.914288ZM3.2254 0.914288H3.60636V1.21905H3.2254V0.914288ZM3.60636 0.304762H3.79502V0.609525H3.60636V0.304762ZM0.188662 1.21905H0.569616V1.52381H0.188662V1.21905ZM1.51656 1.21905H1.89751V1.52381H1.51656V1.21905ZM3.41769 1.21905H3.79502V1.52381H3.41769V1.21905ZM0.380953 2.14059H0.758278V2.44536H0.380953V2.14059ZM0.569616 2.44536H0.950569V2.75012H0.569616V2.44536ZM1.33152 2.14059H1.70522V2.44536H1.32789L1.33152 2.14059ZM1.13923 2.44536H1.51656V2.75012H1.13923V2.44536ZM0.758278 2.75012H1.32789V3.04763H0.761906L0.758278 2.75012ZM0.946941 3.04763H1.13923V3.35602H0.943313L0.946941 3.04763ZM2.27846 2.13334H2.65579V2.44173H2.27846V2.13334ZM2.46713 2.44173H2.84808V2.74649H2.46713V2.44173ZM3.22903 2.13697H3.60636V2.44173H3.2254L3.22903 2.13697ZM3.03674 2.44173H3.41044V2.74649H3.04037L3.03674 2.44173ZM2.65579 2.74649H3.22903V3.04763H2.65579V2.74649ZM2.84808 3.04763H3.03674V3.35602H2.84808V3.04763ZM1.89751 2.74649H2.08617V3.04763H1.89751V2.74649ZM0 2.74649H0.188662V3.04763H0V2.74649ZM3.79502 2.74649H3.98368V3.04763H3.79502V2.74649ZM0.946941 4.2703H1.13923V4.57507H0.943313L0.946941 4.2703ZM0.758278 4.57507H1.32789V4.87983H0.761906L0.758278 4.57507ZM0.569616 4.87983H1.52018V5.18459H0.569616V4.87983ZM2.84808 4.2703H3.03674V4.57507H2.84808V4.2703Z" fill="#B20000"/>
<path fill-rule="evenodd" clip-rule="evenodd" d="M2.65579 4.57507H3.22903V4.87984H2.65579V4.57507ZM2.46713 4.87984H3.41407V5.1846H2.46713V4.87984ZM2.65579 6.40365H3.60636V6.71204H2.65579V6.40365ZM2.27846 5.18823H3.60636V5.49299H2.27846V5.18823ZM0.380953 5.18823H1.70522V5.49299H0.380953V5.18823ZM0.569616 6.71204H1.13923V7.02043H0.569616V6.71204ZM0.380953 6.41091H1.32789V6.71567H0.380953V6.41091ZM3.03674 5.79775H3.98368V6.10614H3.04037L3.03674 5.79775ZM2.84808 6.71204H3.41769V7.0168H2.84808V6.71204ZM0.758278 7.0168H0.950569V7.32157H0.758278V7.0168ZM3.03674 7.0168H3.2254V7.32157H3.03674V7.0168ZM0 5.79412H0.950569V6.10251H0V5.79412ZM1.70522 6.40728H2.27846V6.71204H1.70522V6.40728ZM1.89751 6.71204H2.08617V7.0168H1.89751V6.71204ZM1.32789 5.79412H2.65579V6.10251H1.32789V5.79412ZM2.0898 1.22269H2.46713V1.52382H2.08617L2.0898 1.22269ZM1.70522 1.52382H2.27483V1.82858H1.70522V1.52382ZM1.51293 1.82858H1.89388V2.13335H1.51656L1.51293 1.82858ZM2.08254 1.82858H2.46713V2.13335H2.08617L2.08254 1.82858ZM0 1.52382H0.380953V1.82858H0V1.52382ZM0.188662 1.82858H0.569616V2.13335H0.188662V1.82858ZM3.60636 1.52382H3.98368V1.82858H3.60636V1.52382ZM3.41044 1.82858H3.79139V2.13335H3.41769L3.41044 1.82858ZM0 4.57507H0.188662V4.87984H0V4.57507ZM3.79502 4.57507H3.98368V4.87984H3.79502V4.57507ZM1.70885 7.0168H2.27846V7.32157H1.70522L1.70885 7.0168ZM1.51656 7.32157H1.89751V7.62633H1.51656V7.32157ZM2.08617 7.32157H2.46713V7.62633H2.08617V7.32157ZM1.32789 7.62633H1.70885V7.93109H1.32789V7.62633ZM2.27846 7.62633H2.65579V7.93109H2.27846V7.62633ZM1.13923 7.93109H1.52018V8.23585H1.13923V7.93109ZM2.46713 7.93109H2.84808V8.23585H2.46713V7.93109ZM0.946941 8.23585H1.32789V8.54061H0.946941V8.23585ZM2.65579 8.23585H3.03674V8.54061H2.65579V8.23585ZM0.569616 8.54061H1.13923V8.84538H0.569616V8.54061ZM2.84808 8.54061H3.41769V8.84538H2.84808V8.54061ZM3.2254 8.23585H3.60636V8.54061H3.2254V8.23585ZM3.41769 7.93109H3.79502V8.23585H3.41769V7.93109ZM3.60636 7.62633H3.98368V7.93109H3.60636V7.62633ZM0.377325 8.23585H0.761906V8.54061H0.380953L0.377325 8.23585ZM0.188662 7.93109H0.569616V8.23585H0.188662V7.93109Z" fill="#B20000"/>
<path fill-rule="evenodd" clip-rule="evenodd" d="M0 7.62631H0.380953V7.93108H0V7.62631ZM0.761906 8.84536H0.950569V9.15013H0.758278L0.761906 8.84536ZM3.03674 8.84536H3.2254V9.15013H3.03674V8.84536ZM1.89751 7.93108H2.08617V8.23584H1.89751V7.93108ZM1.32789 8.84536H1.51656V9.15013H1.32789V8.84536ZM2.46713 8.84536H2.65579V9.15013H2.46713V8.84536ZM1.89751 8.84536H2.08617V9.15013H1.89751V8.84536ZM0 8.84536H0.188662V9.15013H0V8.84536ZM3.79502 8.84536H3.98368V9.15013H3.79502V8.84536ZM1.89751 4.57506H2.08617V4.87982H1.89751V4.57506ZM0.950569 1.52744H1.13923V1.82857H0.950569V1.52744ZM2.84808 1.52744H3.03674V1.82857H2.84808V1.52744ZM1.70522 3.65714H2.27483V3.96191H1.70522V3.65714ZM1.32789 3.96554H1.89751V4.2703H1.32789V3.96554Z" fill="#B20000"/>
<path fill-rule="evenodd" clip-rule="evenodd" d="M1.51649 4.27029H1.70878V4.57505H1.51649V4.27029ZM1.13916 3.66076H1.52011V3.96553H1.13916V3.66076ZM1.32782 3.356H1.89744V3.66076H1.32782V3.356ZM1.51649 3.05124H1.70878V3.356H1.51649V3.05124ZM2.0861 3.356H2.65572V3.66076H2.0861V3.356ZM2.27839 3.05124H2.46705V3.356H2.27839V3.05124ZM2.46705 3.66076H2.84801V3.96553H2.46705V3.66076ZM2.0861 3.96553H2.65572V4.27029H2.0861V3.96553ZM2.27839 4.27029H2.46705V4.57505H2.27839V4.27029ZM3.03667 3.66076H3.41762V3.96553H3.03667V3.66076ZM3.22533 3.356H3.79495V3.66076H3.22896L3.22533 3.356ZM3.60629 3.66076H3.98361V3.96553H3.60629V3.66076Z" fill="#B20000"/>
<path fill-rule="evenodd" clip-rule="evenodd" d="M3.22903 3.96553H3.79502V4.27029H3.22903V3.96553ZM3.41769 4.27029H3.60636V4.57505H3.41769V4.27029ZM3.41769 3.05124H3.60636V3.356H3.41769V3.05124ZM0 3.66076H0.380953V3.96553H0V3.66076ZM0.188662 3.356H0.761906V3.66076H0.188662V3.356ZM0.569616 3.66076H0.950569V3.96553H0.569616V3.66076Z" fill="#B20000"/>
<path fill-rule="evenodd" clip-rule="evenodd" d="M0.188662 3.96553H0.761906V4.27029H0.188662V3.96553ZM0.380953 4.27029H0.569616V4.57505H0.380953V4.27029ZM0.380953 3.05124H0.569616V3.356H0.380953V3.05124ZM0.188662 5.48934H0.950569V5.7941H0.188662V5.48934ZM1.13923 5.48934H1.90114V5.7941H1.13923V5.48934ZM2.08617 5.48934H2.84808V5.7941H2.08617V5.48934ZM3.03674 5.48934H3.79865V5.7941H3.03674V5.48934ZM1.51656 6.09886H2.46713V6.40725H1.51656V6.09886ZM0.188662 6.09886H1.13923V6.40725H0.188662V6.09886ZM2.84808 6.09886H3.79502V6.40725H2.84808V6.09886ZM3.79502 7.32154H3.98368V7.6263H3.79502V7.32154ZM0 7.32154H0.188662V7.6263H0V7.32154ZM0.188662 17.6944H0.380953V17.386H0.188662V17.6944ZM0.758278 17.6944H1.32789V17.386H0.761906L0.758278 17.6944ZM0.946941 17.9955H1.13923V17.6944H0.943313L0.946941 17.9955ZM1.89751 17.9955H2.08617V17.6944H1.89751V17.9955ZM2.65942 17.6944H3.2254V17.3896H2.65579L2.65942 17.6944ZM2.84808 17.9955H3.03674V17.6944H2.84808V17.9955ZM0.569616 17.386H0.950569V17.0812H0.569616V17.386ZM1.13923 17.386H1.52018V17.0812H1.13923V17.386ZM2.46713 17.386H2.84808V17.0812H2.46713V17.386ZM3.03674 17.386H3.41044V17.0812H3.04037L3.03674 17.386ZM1.33152 17.0812H1.70522V16.7764H1.32789L1.33152 17.0812ZM2.27483 17.0812H2.65579V16.7764H2.27846L2.27483 17.0812ZM3.2254 17.0812H3.60636V16.7764H3.2254V17.0812ZM3.60636 17.6944H3.79502V17.386H3.60636V17.6944ZM0.188662 16.7764H0.569616V16.4717H0.188662V16.7764ZM1.51656 16.7764H1.89751V16.4717H1.51656V16.7764ZM3.41769 16.7764H3.79502V16.4717H3.41769V16.7764ZM0.380953 15.8621H0.758278V15.5574H0.380953V15.8621ZM0.569616 15.5574H0.950569V15.2526H0.569616V15.5574ZM1.33152 15.8621H1.70522V15.5574H1.32789L1.33152 15.8621ZM1.13923 15.5574H1.51656V15.2526H1.13923V15.5574ZM0.758278 15.2526H1.32789V14.9479H0.761906L0.758278 15.2526ZM0.946941 14.9479H1.13923V14.6431H0.943313L0.946941 14.9479ZM2.27846 15.8621H2.65579V15.5574H2.27846V15.8621ZM2.46713 15.5574H2.84808V15.2526H2.46713V15.5574ZM3.22903 15.8621H3.60636V15.5574H3.2254L3.22903 15.8621ZM3.03674 15.5574H3.41044V15.2526H3.04037L3.03674 15.5574ZM2.65579 15.2526H3.22903V14.9479H2.65579V15.2526ZM2.84808 14.9479H3.03674V14.6431H2.84808V14.9479ZM1.89751 15.2526H2.08617V14.9479H1.89751V15.2526ZM0 15.2526H0.188662V14.9479H0V15.2526ZM3.79502 15.2526H3.98368V14.9479H3.79502V15.2526ZM0.950569 13.7288H1.13923V13.4204H0.950569V13.7288Z" fill="#B20000"/>
<path fill-rule="evenodd" clip-rule="evenodd" d="M0.761906 13.4241H1.32789V13.1157H0.761906V13.4241ZM0.569616 13.1157H1.52018V12.8109H0.569616V13.1157ZM2.84808 13.7252H3.03674V13.4241H2.84808V13.7252ZM2.65579 13.4241H3.22903V13.1157H2.65579V13.4241ZM2.46713 13.1157H3.41407V12.8109H2.46713V13.1157ZM2.65579 11.5919H3.60636V11.2871H2.65579V11.5919ZM2.27846 12.8109H3.60636V12.5061H2.27846V12.8109ZM0.380953 12.8109H1.70522V12.5061H0.380953V12.8109ZM0.569616 11.2871H1.13923V10.9823H0.569616V11.2871ZM0.380953 11.5919H1.32789V11.2871H0.380953V11.5919ZM3.03674 12.2014H3.98368V11.9003H3.04037L3.03674 12.2014ZM2.84808 11.2871H3.41769V10.9823H2.84808V11.2871ZM0 12.2014H0.950569V11.9003H0V12.2014ZM1.70522 11.5919H2.27846V11.2871H1.70522V11.5919ZM1.89751 11.2871H2.08617V10.9823H1.89751V11.2871ZM1.32789 12.2014H2.65579V11.9003H1.32789V12.2014ZM2.0898 16.7765H2.46713V16.4717H2.08617L2.0898 16.7765ZM1.70522 16.4717H2.27483V16.1669H1.70522V16.4717ZM1.51293 16.1669H1.89388V15.8622H1.51656L1.51293 16.1669ZM2.08254 16.1669H2.46713V15.8622H2.08617L2.08254 16.1669ZM0 16.4717H0.380953V16.1669H0V16.4717ZM0.188662 16.1669H0.569616V15.8622H0.188662V16.1669ZM3.60636 16.4717H3.98368V16.1669H3.60636V16.4717ZM3.41407 16.1669H3.79502V15.8622H3.41769L3.41407 16.1669ZM0 13.4241H0.188662V13.1193H0V13.4241ZM3.79502 13.4241H3.98368V13.1193H3.79502V13.4241ZM1.51656 10.6812H1.89751V10.3764H1.51656V10.6812ZM2.08617 10.6812H2.46713V10.3764H2.08617V10.6812ZM1.32789 10.3764H1.70885V10.0717H1.32789V10.3764ZM2.27846 10.3764H2.65579V10.0717H2.27846V10.3764ZM1.13923 10.068H1.51656V9.75966H1.13923V10.068ZM2.46713 10.068H2.84808V9.75966H2.46713V10.068ZM0.946941 9.75966H1.32789V9.45852H0.946941V9.75966ZM2.65579 9.75966H3.03674V9.45852H2.65579V9.75966ZM0.569616 9.45852H1.13923V9.15013H0.569616V9.45852ZM2.84808 9.45852H3.41769V9.15013H2.84808V9.45852ZM3.2254 9.76329H3.60636V9.4549H3.2254V9.76329ZM3.41769 10.0644H3.79502V9.76329H3.41769V10.0644ZM3.60636 10.3728H3.98368V10.068H3.60636V10.3728ZM0.377325 9.76329H0.761906V9.4549H0.380953L0.377325 9.76329ZM0.188662 10.0644H0.569616V9.76329H0.188662V10.0644ZM0 10.3764H0.380953V10.0717H0V10.3764ZM0.761906 9.15376H0.950569V8.849H0.758278L0.761906 9.15376ZM1.89751 10.0717H2.08617V9.75966H1.89751V10.0717ZM1.89751 13.4277H2.08617V13.1193H1.89751V13.4277ZM0.950569 16.4753H1.13923V16.1706H0.950569V16.4753ZM2.84808 16.4753H3.03674V16.1706H2.84808V16.4753ZM1.70522 14.3384H2.27483V14.0336H1.70522V14.3384ZM1.32427 14.0336H1.89388V13.7288H1.32789L1.32427 14.0336ZM1.51293 13.7252H1.70522V13.4241H1.51293V13.7252ZM1.1356 14.3384H1.51293V14.0336H1.13923L1.1356 14.3384ZM1.32789 14.6431H1.89751V14.3384H1.32789V14.6431ZM1.51656 14.9479H1.70885V14.6431H1.51656V14.9479ZM2.08617 14.6431H2.65579V14.3384H2.08617V14.6431ZM2.27846 14.9479H2.46713V14.6431H2.27846V14.9479ZM2.46713 14.3384H2.84808V14.0336H2.46713V14.3384ZM2.08617 14.0336H2.65579V13.7288H2.08617V14.0336ZM2.27846 13.7252H2.46713V13.4241H2.27846V13.7252ZM3.03674 14.3384H3.41044V14.0336H3.04037L3.03674 14.3384ZM3.2254 14.6431H3.79502V14.3384H3.22903L3.2254 14.6431ZM3.60636 14.3384H3.98368V14.0336H3.60636V14.3384ZM3.2254 14.0336H3.79502V13.7288H3.22903L3.2254 14.0336ZM3.41769 13.7252H3.60636V13.4241H3.41769V13.7252ZM3.41769 14.9479H3.60636V14.6431H3.41769V14.9479ZM0 14.3384H0.380953V14.0336H0V14.3384Z" fill="#B20000"/>
<path fill-rule="evenodd" clip-rule="evenodd" d="M0.188662 14.6431H0.761906V14.3384H0.188662V14.6431ZM0.569616 14.3384H0.950569V14.0336H0.569616V14.3384ZM0.188662 14.0336H0.761906V13.7288H0.188662V14.0336ZM0.380953 13.7252H0.569616V13.4241H0.380953V13.7252ZM0.380953 14.9479H0.569616V14.6431H0.380953V14.9479ZM0.188662 12.5062H0.950569V12.2014H0.188662V12.5062ZM1.13923 12.5062H1.90114V12.2014H1.13923V12.5062ZM2.08617 12.5062H2.84808V12.2014H2.08617V12.5062ZM3.03674 12.5062H3.79865V12.2014H3.03674V12.5062ZM1.51656 11.9003H2.46713V11.5955H1.51656V11.9003ZM0.188662 11.9003H1.13923V11.5955H0.188662V11.9003ZM2.84808 11.9003H3.79502V11.5955H2.84808V11.9003ZM3.79502 10.6812H3.98368V10.3765H3.79502V10.6812ZM0 10.6776H0.188662V10.3728H0V10.6776ZM1.70522 9.15377H1.89751V9.45491H1.70885L1.70522 9.15377ZM2.08617 9.15377H2.27846V9.45491H2.08617V9.15377ZM2.08617 8.54062H2.27846V8.84538H2.08617V8.54062ZM1.70885 8.54062H1.89751V8.84538H1.70885V8.54062ZM0.380953 16.7765H0.758278V17.0812H0.380953V16.7765ZM3.03674 10.9823H3.2254V10.6776H3.03674V10.9823ZM0.758278 10.9823H0.946941V10.6776H0.761906L0.758278 10.9823ZM1.70885 10.6776H2.27846V10.9823H1.70522L1.70885 10.6776Z" fill="#B20000"/>
</g>
</g>
<defs>
<clipPath id="clip0_14_1303">
<rect width="18" height="18" rx="9" fill="white"/>
</clipPath>
</defs>
</svg>
