<svg width="18" height="18" viewBox="0 0 18 18" fill="none" xmlns="http://www.w3.org/2000/svg">
<g clip-path="url(#clip0_8201_9886)">
<path d="M18 9.00005C18 5.91118 16.4437 3.18612 14.0726 1.56527L9 1.17395L3.92741 1.56524C1.55637 3.18612 0 5.91122 0 9.00005C0 12.089 1.55637 14.814 3.92741 16.4348L9 16.8261L14.0726 16.4349C16.4437 14.814 18 12.089 18 9.00005Z" fill="#0052B4"/>
<path d="M14.0724 1.56523C12.628 0.577828 10.8815 0 8.99984 0C7.11817 0 5.37164 0.577828 3.92725 1.56523H14.0724Z" fill="#A2001D"/>
<path d="M3.92725 16.4348C5.37161 17.4222 7.11817 18 8.99984 18C10.8815 18 12.628 17.4222 14.0724 16.4348H3.92725Z" fill="#A2001D"/>
<path d="M9.00016 13.3044C11.3774 13.3044 13.3045 11.3773 13.3045 9.00003C13.3045 6.6228 11.3774 4.69568 9.00016 4.69568C6.62293 4.69568 4.6958 6.6228 4.6958 9.00003C4.6958 11.3773 6.62293 13.3044 9.00016 13.3044Z" fill="#F0F0F0"/>
<path d="M8.99977 12.5218C10.9448 12.5218 12.5215 10.945 12.5215 9.00001C12.5215 7.05501 10.9448 5.47827 8.99977 5.47827C7.05476 5.47827 5.47803 7.05501 5.47803 9.00001C5.47803 10.945 7.05476 12.5218 8.99977 12.5218Z" fill="#6DA544"/>
<path d="M9.00018 11.3478C10.2969 11.3478 11.348 10.2966 11.348 8.99994C11.348 7.70326 10.2969 6.6521 9.00018 6.6521C7.70351 6.6521 6.65234 7.70326 6.65234 8.99994C6.65234 10.2966 7.70351 11.3478 9.00018 11.3478Z" fill="#F0F0F0"/>
<path d="M8.99977 8.41309L7.72803 9.00005V9.97831L8.99977 10.7609L10.2715 9.97831V9.00005L8.99977 8.41309Z" fill="#0052B4"/>
<path d="M7.72803 7.82605H10.2715V8.99995H7.72803V7.82605Z" fill="#FFDA44"/>
</g>
<defs>
<clipPath id="clip0_8201_9886">
<rect width="18" height="18" fill="white"/>
</clipPath>
</defs>
</svg>
