<svg width="18" height="18" viewBox="0 0 18 18" fill="none" xmlns="http://www.w3.org/2000/svg">
<g clip-path="url(#clip0_8201_10075)">
<path d="M9 18C13.9706 18 18 13.9706 18 9C18 4.02944 13.9706 0 9 0C4.02944 0 0 4.02944 0 9C0 13.9706 4.02944 18 9 18Z" fill="#F0F0F0"/>
<path d="M18.0001 9.00003C18.0001 5.43188 15.9236 2.34882 12.9131 0.893066V17.107C15.9236 15.6512 18.0001 12.5682 18.0001 9.00003Z" fill="#D80027"/>
<path d="M0 9.00003C0 12.5682 2.0765 15.6512 5.08697 17.107V0.893066C2.0765 2.34882 0 5.43188 0 9.00003Z" fill="#D80027"/>
<path d="M10.5653 10.1739L12.1305 9.39128L11.3479 8.99999V8.21738L9.78266 8.99999L10.5653 7.43477H9.78266L9.00005 6.26086L8.21743 7.43477H7.43482L8.21743 8.99999L6.65221 8.21738V8.99999L5.86963 9.39128L7.43482 10.1739L7.04353 10.9565H8.60876V12.1304H9.39134V10.9565H10.9566L10.5653 10.1739Z" fill="#D80027"/>
</g>
<defs>
<clipPath id="clip0_8201_10075">
<rect width="18" height="18" fill="white"/>
</clipPath>
</defs>
</svg>
