<svg width="18" height="18" viewBox="0 0 18 18" fill="none" xmlns="http://www.w3.org/2000/svg">
<g clip-path="url(#clip0_8201_10176)">
<path d="M9 18C13.9706 18 18 13.9706 18 9C18 4.02944 13.9706 0 9 0C4.02944 0 0 4.02944 0 9C0 13.9706 4.02944 18 9 18Z" fill="#6DA544"/>
<path d="M13.8159 12.9131L14.0629 13.4295L14.6206 13.3006L14.3708 13.8157L14.8193 14.1713L14.2609 14.2972L14.2625 14.8696L13.8159 14.5115L13.3693 14.8696L13.3709 14.2972L12.8125 14.1713L13.261 13.8157L13.0112 13.3006L13.5689 13.4295L13.8159 12.9131Z" fill="#FFDA44"/>
<path d="M11.5185 7.43481L11.7655 7.95122L12.3233 7.82231L12.0735 8.33742L12.522 8.69306L11.9636 8.81892L11.9651 9.39133L11.5185 9.03323L11.072 9.39133L11.0735 8.81892L10.5151 8.69306L10.9636 8.33742L10.7138 7.82231L11.2716 7.95122L11.5185 7.43481Z" fill="#FFDA44"/>
<path d="M13.8159 4.30432L14.0628 4.82073L14.6206 4.69178L14.3708 5.20689L14.8193 5.56256L14.2609 5.68839L14.2624 6.26084L13.8159 5.9027L13.3693 6.26084L13.3709 5.68839L12.8125 5.56256L13.261 5.20689L13.0112 4.69178L13.5689 4.82073L13.8159 4.30432Z" fill="#FFDA44"/>
<path d="M15.8227 6.65222L16.0697 7.16863L16.6275 7.03971L16.3777 7.55482L16.8262 7.91046L16.2678 8.03632L16.2693 8.60877L15.8227 8.25064L15.3762 8.60877L15.3777 8.03632L14.8193 7.91046L15.2678 7.55482L15.018 7.03971L15.5758 7.16863L15.8227 6.65222Z" fill="#FFDA44"/>
<path d="M14.3878 9.39136L14.5821 9.98926H15.2107L14.7021 10.3588L14.8965 10.9566L14.3878 10.5871L13.8793 10.9566L14.0735 10.3588L13.5649 9.98926H14.1936L14.3878 9.39136Z" fill="#FFDA44"/>
<path d="M9.97834 11.5434C8.5736 11.5434 7.43482 10.4047 7.43482 8.99996C7.43482 7.59526 8.57357 6.45648 9.97834 6.45648C10.4163 6.45648 10.8285 6.56725 11.1882 6.76219C10.6238 6.21017 9.85195 5.86951 9.00001 5.86951C7.27117 5.86951 5.86963 7.27105 5.86963 8.99992C5.86963 10.7288 7.27117 12.1303 9.00001 12.1303C9.85192 12.1303 10.6238 11.7897 11.1882 11.2377C10.8285 11.4327 10.4163 11.5434 9.97834 11.5434Z" fill="#FFDA44"/>
<path d="M5.65984 3.52175C5.38913 3.05403 4.88376 2.73914 4.30453 2.73914C3.72529 2.73914 3.21992 3.05403 2.94922 3.52175H5.65984Z" fill="#FFDA44"/>
<path d="M5.66496 3.53076L4.30445 4.89127L2.94394 3.53076C2.81389 3.75896 2.73926 4.02288 2.73926 4.30434C2.73926 5.1688 3.44003 5.86957 4.30448 5.86957C5.16894 5.86957 5.86971 5.16883 5.86971 4.30434C5.86968 4.02288 5.795 3.75896 5.66496 3.53076Z" fill="#FFDA44"/>
<path d="M3.91309 4.5V5.82026C4.03814 5.85243 4.16927 5.86955 4.30437 5.86955C4.43948 5.86955 4.57061 5.85239 4.69566 5.82026V4.5H3.91309Z" fill="#A2001D"/>
</g>
<defs>
<clipPath id="clip0_8201_10176">
<rect width="18" height="18" fill="white"/>
</clipPath>
</defs>
</svg>
