<svg width="18" height="18" viewBox="0 0 18 18" fill="none" xmlns="http://www.w3.org/2000/svg">
<g clip-path="url(#clip0_8201_10282)">
<path d="M17.0007 4.87322C16.5849 4.06748 16.0398 3.31119 15.3644 2.63577C14.6889 1.96032 13.9326 1.41522 13.1269 0.99939L6.78648 6.78632L0.999512 13.1267C1.41538 13.9325 1.96047 14.6888 2.63589 15.3642C3.31132 16.0396 4.06763 16.5847 4.87334 17.0006L11.2137 11.2136L17.0007 4.87322Z" fill="#FFDA44"/>
<path d="M2.63567 15.3642C3.01321 15.7418 3.41607 16.0785 3.83861 16.375L16.3748 3.83874C16.0784 3.41619 15.7416 3.01334 15.3641 2.63579C14.9865 2.25825 14.5837 1.92156 14.1612 1.62512L1.625 14.1613C1.9214 14.5838 2.25809 14.9867 2.63567 15.3642Z" fill="#D80027"/>
<path d="M2.63581 2.63585C-0.203656 5.47532 -0.748754 9.7397 0.999426 13.1268L13.1268 0.999506C9.73962 -0.748638 5.47524 -0.20347 2.63581 2.63585Z" fill="#338AF3"/>
<path d="M15.3645 15.3642C18.2039 12.5248 18.749 8.26042 17.0009 4.87329L4.87354 17.0006C8.26066 18.7488 12.5251 18.2037 15.3645 15.3642Z" fill="#338AF3"/>
<path d="M4.79611 2.73889L5.28176 4.23363H6.85339L5.58193 5.1574L6.06757 6.6521L4.79611 5.7283L3.52458 6.6521L4.0103 5.1574L2.73877 4.23363H4.31039L4.79611 2.73889Z" fill="#FFDA44"/>
</g>
<defs>
<clipPath id="clip0_8201_10282">
<rect width="18" height="18" fill="white"/>
</clipPath>
</defs>
</svg>
