<svg width="18" height="18" viewBox="0 0 18 18" fill="none" xmlns="http://www.w3.org/2000/svg">
<g clip-path="url(#clip0_8201_10653)">
<path d="M8.99977 18C10.1007 18 11.1552 17.802 12.1302 17.4402L12.5215 9L12.1302 0.559793C11.1552 0.198035 10.1007 0 8.99977 0C7.89889 0 6.8443 0.198035 5.86935 0.559793L5.47803 9L5.86932 17.4402C6.8443 17.802 7.89889 18 8.99977 18Z" fill="#F0F0F0"/>
<path d="M0 9.00002C0 12.8697 2.44237 16.1686 5.86958 17.4402V0.559814C2.44237 1.83145 0 5.13034 0 9.00002Z" fill="#FF9811"/>
<path d="M12.1304 0.559814V17.4403C15.5576 16.1686 18 12.8697 18 9.00002C18 5.13034 15.5576 1.83145 12.1304 0.559814Z" fill="#6DA544"/>
</g>
<defs>
<clipPath id="clip0_8201_10653">
<rect width="18" height="18" fill="white"/>
</clipPath>
</defs>
</svg>
