<svg width="18" height="18" viewBox="0 0 18 18" fill="none" xmlns="http://www.w3.org/2000/svg">
<g clip-path="url(#clip0_14_1258)">
<path d="M0 0H18V18H0V0Z" fill="#000066"/>
<path fill-rule="evenodd" clip-rule="evenodd" d="M12.1218 8.79259L12.3222 8.14923L11.7808 7.7379L12.4628 7.73087L12.6914 7.09454L12.9128 7.73087L13.5949 7.75197L13.0464 8.15275L13.2433 8.79962L12.6843 8.4129M13.7285 8.91915L14.1292 8.38126L13.7566 7.80822L14.4035 8.03322L14.8253 7.5129V8.19142L15.4582 8.44103L14.8113 8.63439L14.7796 9.30939L14.3824 8.75392M10.5855 9.334L10.5574 8.659L9.9105 8.45861L10.5503 8.21251V7.54103L10.9722 8.06486L11.6191 7.84689L11.2394 8.4129L11.6402 8.95431L10.9863 8.77853M9.45347 10.3606L9.17222 9.74884L8.49722 9.81915L8.9894 9.34454L8.73628 8.72228L9.32339 9.03868L9.83667 8.58165L9.70659 9.25314L10.2796 9.59415L9.61167 9.69259M8.93667 11.8371L8.42339 11.4117L7.84331 11.7633L8.0894 11.1199L7.59722 10.6699L8.26167 10.7016L8.53237 10.0688L8.69761 10.7297L9.36206 10.7895L8.79956 11.1692M8.92261 13.5L8.28276 13.3137L7.89605 13.8762L7.86792 13.1836L7.23511 12.9727L7.85737 12.7301V12.0375L8.2687 12.5824L8.90151 12.368L8.53237 12.941M9.67144 14.9063L9.01401 14.9977L8.88042 15.6692L8.57808 15.0469L7.91714 15.1102L8.39175 14.6356L8.11401 14.0027L8.70815 14.3297L9.20034 13.8727L9.09487 14.5512M10.8316 16.0172L10.2445 16.3336L10.35 17.0121L9.85425 16.534L9.25659 16.8258L9.53784 16.2141L9.06323 15.7184L9.7312 15.8168L10.0371 15.2192L10.1671 15.8871M12.2449 16.2387L11.9285 16.8293L12.3785 17.3391L11.707 17.2125L11.3625 17.7891L11.2675 17.1211L10.6031 16.9664L11.2148 16.6781L11.148 16.0102L11.6226 16.4988M13.8375 15.9926L13.8128 16.6676L14.4457 16.9137L13.7917 17.1106L13.746 17.782L13.3593 17.2301L12.6984 17.4024L13.1167 16.8609L12.7546 16.2949L13.398 16.5129M15.5003 8.66603L15.9609 9.1547L16.5761 8.86993L16.2597 9.48165L16.6992 9.98439L16.0417 9.87892L15.6972 10.4766L15.6093 9.79806L14.9554 9.65743L15.5601 9.35157M16.882 10.1637L17.0929 10.807L17.7644 10.8176L17.2195 11.2289L17.4023 11.8828L16.8539 11.4961L16.2914 11.8863L16.5023 11.2359L15.9679 10.8281L16.6464 10.8106M17.3988 12.0938L17.3214 12.7617L17.9296 13.0641L17.2617 13.2047L17.1562 13.8727L16.8222 13.2856L16.1507 13.3981L16.6078 12.8953L16.2984 12.2977L16.9207 12.5754M17.0332 14.1117L16.7343 14.7129L17.2019 15.2051L16.5304 15.1067L16.2035 15.6938L16.0875 15.0293L15.4195 14.8992L16.0171 14.5899L15.9292 13.9219L16.4214 14.3965M16.0382 15.9082L15.4722 16.2598L15.6164 16.9277L15.096 16.4848L14.516 16.8152L14.7621 16.1824L14.2558 15.7184L14.9273 15.7746L15.198 15.1559L15.3703 15.8238" fill="white"/>
<path d="M0 -0.0175781H9V8.98242H0V-0.0175781Z" fill="#000066"/>
<path d="M9 -0.0175781V1.10742L5.66016 4.48242L9 7.76953V8.98242H7.82227L4.46484 5.67773L1.19531 8.98242H0V7.78711L3.26953 4.5L0 1.2832V-0.0175781H1.08984L4.46484 3.28711L7.73438 -0.0175781H9Z" fill="white"/>
<path d="M3.23438 5.67773L3.42773 6.27539L0.738281 8.98242H0V8.92969L3.23438 5.67773ZM5.41406 5.4668L6.36328 5.60742L9 8.19141V8.98242L5.41406 5.4668ZM9 -0.0175781L5.625 3.42773L5.55469 2.6543L8.19141 -0.0175781H9ZM0 0L3.39258 3.32227L2.35547 3.18164L0 0.84375V0Z" fill="#C8102E"/>
<path d="M3.09375 -0.0175781V8.98242H5.90625V-0.0175781H3.09375ZM0 3.07617V5.88867H9V3.07617H0Z" fill="white"/>
<path d="M0 3.63867V5.32617H9V3.63867H0ZM3.65625 -0.0175781V8.98242H5.34375V-0.0175781H3.65625Z" fill="#C8102E"/>
</g>
<defs>
<clipPath id="clip0_14_1258">
<rect width="18" height="18" rx="9" fill="white"/>
</clipPath>
</defs>
</svg>
