<svg width="18" height="18" viewBox="0 0 18 18" fill="none" xmlns="http://www.w3.org/2000/svg">
<g clip-path="url(#clip0_8201_10163)">
<path d="M9 18C13.9706 18 18 13.9706 18 9C18 4.02944 13.9706 0 9 0C4.02944 0 0 4.02944 0 9C0 13.9706 4.02944 18 9 18Z" fill="#F0F0F0"/>
<path d="M18 9.00002C18 13.9706 13.9705 18 9 18C4.02947 18 0 13.9706 0 9.00002C0 4.02949 9 9.00002 9 9.00002C9 9.00002 15.8119 9.00002 18 9.00002Z" fill="#D80027"/>
<path d="M0 9C0 4.02947 4.02947 0 9 0V9C9 9 3.13042 9 0 9Z" fill="#0052B4"/>
<path d="M5.35734 3.13037L5.94013 4.92397H7.82602L6.3003 6.03245L6.88305 7.82605L5.35734 6.71754L3.83163 7.82605L4.41438 6.03245L2.88867 4.92397H4.77456L5.35734 3.13037Z" fill="#F0F0F0"/>
</g>
<defs>
<clipPath id="clip0_8201_10163">
<rect width="18" height="18" fill="white"/>
</clipPath>
</defs>
</svg>
