<svg width="18" height="18" viewBox="0 0 18 18" fill="none" xmlns="http://www.w3.org/2000/svg">
<g clip-path="url(#clip0_8201_10168)">
<path d="M9 18C13.9706 18 18 13.9706 18 9C18 4.02944 13.9706 0 9 0C4.02944 0 0 4.02944 0 9C0 13.9706 4.02944 18 9 18Z" fill="#D80027"/>
<path d="M4.92539 5.47729L5.70234 7.86792H8.21602L6.18398 9.348L6.96094 11.7386L4.92539 10.2621L2.88984 11.7386L3.67031 9.348L1.63477 7.86792H4.14844L4.92539 5.47729Z" fill="#FFDA44"/>
<path d="M10.6697 13.9394L10.0756 13.2082L9.19668 13.5492L9.70645 12.7582L9.1123 12.0234L10.0229 12.266L10.5361 11.475L10.5854 12.4172L11.4994 12.6597L10.617 12.9972L10.6697 13.9394Z" fill="#FFDA44"/>
<path d="M11.851 11.7949L12.1322 10.8949L11.3623 10.35L12.3045 10.3359L12.5822 9.43591L12.8881 10.3289L13.8303 10.3183L13.0744 10.8808L13.3768 11.7738L12.6068 11.2289L11.851 11.7949Z" fill="#FFDA44"/>
<path d="M13.4439 6.60579L13.0291 7.45305L13.7041 8.11047L12.7725 7.97688L12.3576 8.82063L12.1959 7.8925L11.2607 7.75891L12.0975 7.31946L11.9357 6.38782L12.6107 7.04524L13.4439 6.60579Z" fill="#FFDA44"/>
<path d="M10.6946 4.03943L10.6243 4.9781L11.4997 5.33318L10.5821 5.55818L10.5153 6.50037L10.0196 5.6988L9.10205 5.9238L9.71025 5.2031L9.21104 4.40505L10.0864 4.76013L10.6946 4.03943Z" fill="#FFDA44"/>
</g>
<defs>
<clipPath id="clip0_8201_10168">
<rect width="18" height="18" fill="white"/>
</clipPath>
</defs>
</svg>
