<svg width="18" height="18" viewBox="0 0 18 18" fill="none" xmlns="http://www.w3.org/2000/svg">
<g clip-path="url(#clip0_8201_10085)">
<path d="M9 18C13.9706 18 18 13.9706 18 9C18 4.02944 13.9706 0 9 0C4.02944 0 0 4.02944 0 9C0 13.9706 4.02944 18 9 18Z" fill="#F0F0F0"/>
<path d="M9.00019 18C11.728 18 14.1722 16.7863 15.8226 14.8696H2.17773C3.82821 16.7863 6.27238 18 9.00019 18Z" fill="#0052B4"/>
<path d="M18 9C18 4.02947 13.9705 0 9 0C4.02947 0 0 4.02947 0 9C0 9.81236 0.108281 10.5992 0.310043 11.3478H17.69C17.8917 10.5992 18 9.81236 18 9Z" fill="#0052B4"/>
<path d="M0.715332 12.5217C0.888828 12.9294 1.09164 13.3215 1.32097 13.6956H16.679C16.9083 13.3214 17.1111 12.9294 17.2847 12.5217H0.715332Z" fill="#D80027"/>
<path d="M6.43354 9.58691L6.57923 10.0353H7.05071L6.6693 10.3124L6.81498 10.7608L6.43354 10.4837L6.05209 10.7608L6.19782 10.3124L5.81641 10.0353H6.28789L6.43354 9.58691Z" fill="#FFDA44"/>
<path d="M6.43354 15.4564L6.57923 15.9048H7.05071L6.6693 16.1819L6.81498 16.6303L6.43354 16.3532L6.05209 16.6303L6.19782 16.1819L5.81641 15.9048H6.28789L6.43354 15.4564Z" fill="#FFDA44"/>
<path d="M3.70112 13.4714L3.8468 13.9198H4.31829L3.93688 14.1969L4.08256 14.6453L3.70112 14.3682L3.31967 14.6453L3.46543 14.1969L3.08398 13.9198H3.55543L3.70112 13.4714Z" fill="#FFDA44"/>
<path d="M4.74461 10.1738L4.8903 10.6222H5.36174L4.98037 10.8993L5.12605 11.3478L4.74461 11.0706L4.36316 11.3478L4.50892 10.8993L4.12744 10.6222H4.59892L4.74461 10.1738Z" fill="#FFDA44"/>
<path d="M3.08398 12.0204L3.55536 12.0204L3.70108 11.5719L3.8468 12.0204L4.31829 12.0203L3.93684 12.2975L4.08256 12.7459L3.70108 12.4687L3.31967 12.7458L3.46536 12.2974L3.08398 12.0204Z" fill="#FFDA44"/>
<path d="M4.36323 15.9578L4.50892 15.5095L4.12744 15.2324H4.59892L4.74464 14.7839L4.89037 15.2323H5.36181L4.98037 15.5094L5.12605 15.9579L4.74461 15.6807L4.36323 15.9578Z" fill="#FFDA44"/>
<path d="M9.1645 13.4714L9.01884 13.9198H8.54736L8.92874 14.1969L8.78305 14.6453L9.1645 14.3682L9.54594 14.6453L9.40022 14.1969L9.78166 13.9198H9.31018L9.1645 13.4714Z" fill="#FFDA44"/>
<path d="M8.12104 10.1738L7.97539 10.6222H7.50391L7.88528 10.8993L7.73959 11.3478L8.12104 11.0706L8.50248 11.3478L8.35676 10.8993L8.73821 10.6222H8.26673L8.12104 10.1738Z" fill="#FFDA44"/>
<path d="M9.78166 12.0204L9.31025 12.0204L9.16453 11.5719L9.01884 12.0204L8.54736 12.0203L8.92877 12.2975L8.78305 12.7459L9.16453 12.4687L9.54594 12.7458L9.40025 12.2974L9.78166 12.0204Z" fill="#FFDA44"/>
<path d="M8.50248 15.9578L8.35683 15.5095L8.73828 15.2324H8.2668L8.12107 14.7839L7.97539 15.2323H7.50391L7.88535 15.5094L7.73966 15.9579L8.12111 15.6807L8.50248 15.9578Z" fill="#FFDA44"/>
</g>
<defs>
<clipPath id="clip0_8201_10085">
<rect width="18" height="18" fill="white"/>
</clipPath>
</defs>
</svg>
