<svg width="18" height="18" viewBox="0 0 18 18" fill="none" xmlns="http://www.w3.org/2000/svg">
<g clip-path="url(#clip0_14_1327)">
<mask id="mask0_14_1327" style="mask-type:luminance" maskUnits="userSpaceOnUse" x="0" y="0" width="19" height="19">
<path d="M0 0H18.0352V18.0352H0V0Z" fill="white"/>
</mask>
<g mask="url(#mask0_14_1327)">
<path d="M0 0H27.0527V18.0352H0V0Z" fill="#002B7F"/>
<path d="M0 11.272H27.0527V13.5264H0V11.272Z" fill="#F9E814"/>
<path d="M3.00596 1.50293L3.30654 2.55498H4.50889L3.45684 3.00586L3.75742 4.05791L3.00596 3.60703L2.1042 4.2082L2.40479 3.15615L1.65332 2.55498H2.70537L3.00596 1.50293Z" fill="white"/>
<path d="M6.01177 4.00781L6.41255 5.41055H8.01567L6.61294 6.01172L7.01372 7.41445L6.01177 6.81328L4.80942 7.61484L5.21021 6.21211L4.20825 5.41055H5.61099L6.01177 4.00781Z" fill="white"/>
</g>
</g>
<defs>
<clipPath id="clip0_14_1327">
<rect width="18" height="18" rx="9" fill="white"/>
</clipPath>
</defs>
</svg>
