<svg width="18" height="18" viewBox="0 0 18 18" fill="none" xmlns="http://www.w3.org/2000/svg">
<g clip-path="url(#clip0_8201_10266)">
<path d="M9 18C13.9706 18 18 13.9706 18 9C18 4.02944 13.9706 0 9 0C4.02944 0 0 4.02944 0 9C0 13.9706 4.02944 18 9 18Z" fill="#FFDA44"/>
<path d="M9.00024 18C11.9534 18 14.5742 16.5777 16.2153 14.3807H1.78516C3.42625 16.5777 6.04711 18 9.00024 18Z" fill="#0052B4"/>
<path d="M18 9C18 4.02947 13.9705 0 9 0C4.02947 0 0 4.02947 0 9C0 10.0643 0.185238 11.0852 0.524391 12.0329H17.4756C17.8148 11.0852 18 10.0643 18 9Z" fill="#0052B4"/>
<path d="M6.1602 5.77197L6.64581 7.26653H8.21743L6.94601 8.19037L7.43162 9.685L6.1602 8.76124L4.88877 9.685L5.37445 8.19037L4.10303 7.26653H5.67458L6.1602 5.77197Z" fill="#F0F0F0"/>
<path d="M3.46132 4.20679L3.75269 5.10355H4.69569L3.93283 5.65783L4.22421 6.55463L3.46132 6.00035L2.69846 6.55463L2.98987 5.65783L2.22705 5.10355H3.17001L3.46132 4.20679Z" fill="#F0F0F0"/>
</g>
<defs>
<clipPath id="clip0_8201_10266">
<rect width="18" height="18" fill="white"/>
</clipPath>
</defs>
</svg>
