<svg width="18" height="18" viewBox="0 0 18 18" fill="none" xmlns="http://www.w3.org/2000/svg">
<g clip-path="url(#clip0_14_1231)">
<path d="M0 0H18V18H0V0Z" fill="#0021AD"/>
<path d="M0 0H18V18L0 0Z" fill="#1C8A42"/>
<path d="M8.99995 11.1692C10.1979 11.1692 11.1691 10.198 11.1691 9.00001C11.1691 7.80203 10.1979 6.83087 8.99995 6.83087C7.80197 6.83087 6.83081 7.80203 6.83081 9.00001C6.83081 10.198 7.80197 11.1692 8.99995 11.1692Z" fill="#FFC639"/>
<path d="M7.67466 8.02617C7.82583 8.23007 8.04731 8.57109 8.23013 8.4832C8.37075 8.4832 8.44106 8.49374 8.46216 8.58867C8.69771 8.61222 8.93538 8.57517 9.15258 8.48102C9.36978 8.38688 9.55932 8.23878 9.70317 8.05078C9.70317 8.05078 9.7313 8.05077 9.72075 7.88202C9.72075 7.80468 9.82622 7.82226 9.82622 7.84687C9.84028 7.88202 9.83677 7.91015 9.85786 7.91015C9.90005 7.89609 9.95981 7.80117 10.009 7.7414C10.0196 7.71327 10.0125 7.68515 10.0161 7.64999C10.0442 7.58671 10.1075 7.60077 10.1215 7.63593C10.1321 7.65702 10.1321 7.67109 10.1461 7.6957C10.2094 7.73788 10.329 7.6957 10.3395 7.6957C10.35 7.64296 10.3852 7.64999 10.3852 7.64999C10.4274 7.63945 10.4098 7.64296 10.4415 7.65703C10.4133 7.94531 10.4977 7.95937 10.4907 8.10703C10.4907 8.27226 10.4415 8.31796 10.4415 8.38124C10.4555 8.45859 10.6981 8.4621 10.6172 8.52538C10.5399 8.56757 10.6172 8.6414 10.5012 8.66953C10.1708 8.83828 10.1075 8.98242 10.1075 8.98242C10.1075 8.98242 10.0266 9.1371 10.0161 9.1371C9.95981 9.24257 9.89302 9.18632 9.85083 9.23554C9.83325 9.29882 9.81216 9.44296 9.85083 9.51679C9.86841 9.61523 9.85083 9.67148 9.8227 9.77343C9.80161 9.98437 9.71724 10.016 9.70669 10.0898C9.67153 10.1672 9.71724 10.5398 9.67856 10.5398C9.43247 10.5434 9.24614 10.4941 9.15122 10.473C9.24263 10.0652 9.20747 9.70663 9.20747 9.67148C9.18286 9.37968 8.77153 9.44999 8.70825 9.41132C8.65552 9.40078 8.62388 9.35859 8.60278 9.34101C8.54653 9.33398 8.52544 9.31992 8.46567 9.31288C8.43755 9.32695 8.45513 9.34452 8.38833 9.3621C8.22661 9.3832 8.15278 9.22148 8.15278 9.22148C8.15981 9.16523 7.78364 9.23202 7.57622 9.18632C7.49185 9.23202 7.45669 9.36913 7.38638 9.38671C7.38638 9.4289 7.27388 9.35156 7.24927 9.30937C7.24927 9.18632 7.35825 9.13359 7.35825 9.13359C7.44614 9.06679 7.49888 9.05624 7.54458 9.01406C7.56567 8.90859 7.55513 8.82773 7.60083 8.74687C7.63599 8.6871 7.69575 8.71171 7.73442 8.6871C7.77661 8.65898 7.79419 8.47617 7.75552 8.43046L7.57974 8.27226C7.52349 8.11406 7.64302 8.01562 7.67466 8.02617Z" fill="#1C8A42"/>
<path d="M15.9012 2.23946C15.8028 1.85274 14.9203 1.01602 14.2629 0.481647C14.1047 0.376178 14.0028 0.439459 14.0203 0.590631C14.1047 0.731256 14.1645 0.878912 14.2489 1.01602C14.2699 1.10743 14.3156 1.17071 14.3367 1.26212C14.3367 1.26212 14.3438 1.42032 14.3578 1.4379C14.4718 1.55224 14.5521 1.69577 14.5899 1.85274C14.6939 2.07404 14.8408 2.27243 15.0223 2.43633C15.2543 2.58399 15.0856 3.03751 15.0926 3.28008C15.0926 3.43126 14.9801 3.41368 14.8852 3.3961C14.1293 2.70001 13.3805 2.70001 12.7196 2.49962C12.4594 2.47149 12.4559 2.59454 12.5403 2.66133C13.0008 3.15352 13.4367 3.49102 14.0063 3.77227L14.2946 3.95157L14.625 4.22579C14.8781 4.39102 14.8992 4.54219 14.8992 4.55626C14.9063 4.86563 14.741 5.10469 14.6953 5.19962C14.6074 5.52657 14.4317 5.58633 14.4317 5.58633C13.0219 6.53555 12.2801 6.78165 9.98792 6.48985C9.95276 6.47227 9.73479 6.50743 9.98792 6.59883C10.5715 6.79219 12.0024 7.10508 13.3875 6.44766C13.7215 6.21563 13.9465 6.29297 14.1856 6.15235C14.5828 5.90626 15.1453 5.60391 15.2508 5.57227C15.5567 5.40704 16.4215 5.22071 16.6219 5.05548C16.8504 5.0379 17.086 5.00626 17.1035 4.80938C17.1774 4.76368 17.2864 4.79883 17.3672 4.63712C17.55 4.60547 17.5184 4.54219 17.5184 4.54219C17.4727 4.41212 17.3074 4.35938 17.1844 4.26797C17.0051 4.20821 16.8821 4.19063 16.752 4.25391L16.6289 4.31016C16.6289 4.31016 16.4356 4.28204 16.4356 4.26797C16.0102 4.24337 16.0489 2.82657 15.9012 2.23946Z" fill="#FFC639"/>
<path d="M4.10204 10.9965L3.79484 10.7085L3.48524 10.9917L3.51884 10.5741L3.10364 10.5069L3.45164 10.2717L3.24524 9.90693L3.64604 10.0341L3.80204 9.64532L3.95324 10.0365L4.35404 9.91653L4.14284 10.2765L4.48844 10.5165L4.07324 10.5765L4.10204 10.9941V10.9965Z" fill="white"/>
<path d="M5.18688 14.4645L4.85568 14.2461L4.53408 14.4765L4.64928 14.1045L4.32288 13.8765L4.72128 13.8669L4.84128 13.4949L4.97568 13.8621L5.37648 13.8597L5.05728 14.0925L5.18448 14.4621L5.18688 14.4645Z" fill="white"/>
<path d="M4.16198 17.455L3.85478 17.167L3.54518 17.4502L3.57878 17.0326L3.16357 16.9654L3.51158 16.7302L3.30517 16.3654L3.70598 16.4926L3.86198 16.1038L4.01318 16.495L4.41398 16.375L4.20278 16.735L4.54838 16.975L4.13318 17.035L4.16198 17.4526V17.455Z" fill="white"/>
<path d="M1.41161 13.9533L1.10441 13.6653L0.79481 13.9485L0.82841 13.5309L0.413208 13.4637L0.76121 13.2285L0.554809 12.8637L0.95561 12.9909L1.11161 12.6021L1.26281 12.9933L1.66361 12.8733L1.45241 13.2333L1.79801 13.4733L1.38281 13.5333L1.41161 13.9509V13.9533Z" fill="white"/>
<path d="M6.7036 13.0365L6.3964 12.7485L6.0868 13.0317L6.1204 12.6141L5.7052 12.5469L6.0532 12.3117L5.8468 11.9469L6.2476 12.0741L6.4036 11.6853L6.5548 12.0765L6.95561 11.9565L6.7444 12.3165L7.09001 12.5565L6.6748 12.6165L6.7036 13.0341V13.0365Z" fill="white"/>
</g>
<defs>
<clipPath id="clip0_14_1231">
<rect width="18" height="18" rx="9" fill="white"/>
</clipPath>
</defs>
</svg>
