<svg width="18" height="18" viewBox="0 0 18 18" fill="none" xmlns="http://www.w3.org/2000/svg">
<g clip-path="url(#clip0_8201_10274)">
<path d="M9 18C13.9706 18 18 13.9706 18 9C18 4.02944 13.9706 0 9 0C4.02944 0 0 4.02944 0 9C0 13.9706 4.02944 18 9 18Z" fill="#FCFCFC"/>
<path d="M14.087 7.82605C13.8131 7.82605 13.4739 7.82605 12.9131 7.82605C12.9131 9.98717 11.1611 11.7391 9.00002 11.7391C6.83886 11.7391 5.08699 9.98717 5.08699 7.82605C4.70871 7.82605 4.2913 7.82605 3.91309 7.82605C3.91309 10.1539 5.4767 12.1166 7.61103 12.721C7.37703 13.1655 7.41268 13.7252 7.74695 14.1423C8.18598 13.7904 8.64051 13.4262 9.02611 13.1172C9.4117 13.4262 9.86627 13.7905 10.3053 14.1423C10.6428 13.7211 10.6761 13.1543 10.4343 12.7076C12.5452 12.0884 14.087 10.1374 14.087 7.82605Z" fill="#6DA544"/>
<path d="M5.86963 7.43481C5.86963 7.43481 5.86963 9.39132 7.82614 9.39132L8.21743 9.78261H9.00005C9.00005 9.78261 9.39134 8.60871 10.1739 8.60871C10.1739 8.60871 10.1739 7.8261 10.9566 7.8261C11.7392 7.8261 12.1305 7.8261 12.1305 7.8261C12.1305 7.8261 11.7392 6.26087 13.6957 5.08697L12.9131 4.69568C12.9131 4.69568 10.1739 6.65219 8.21743 6.26091V7.04352H7.43482L7.04353 6.65223L5.86963 7.43481Z" fill="#FFDA44"/>
</g>
<defs>
<clipPath id="clip0_8201_10274">
<rect width="18" height="18" fill="white"/>
</clipPath>
</defs>
</svg>
