<svg width="18" height="18" viewBox="0 0 18 18" fill="none" xmlns="http://www.w3.org/2000/svg">
<g clip-path="url(#clip0_14_1252)">
<path d="M0 0H18V18H0V0Z" fill="white"/>
<path d="M8.54293 14.9484C8.53898 14.9468 8.53539 14.9444 8.53238 14.9414V14.9379L8.48316 14.8887C8.43392 14.8332 8.387 14.7758 8.34254 14.7164L8.15621 14.4844L8.1316 14.4527L7.89957 14.3824L7.73082 14.3016L7.81871 14.1996L8.13512 14.3332L8.36715 14.3824L8.79606 14.6988C8.71353 14.7708 8.63378 14.8458 8.55699 14.9238C8.55418 14.9283 8.55182 14.933 8.54996 14.9379L8.57809 14.9203L8.60621 14.9449L8.54645 14.9484H8.54293ZM6.94332 14.4668C6.73941 14.4668 6.53902 14.4105 6.34566 14.298C6.15231 14.1855 6.37379 14.2523 6.43356 14.2066C6.48981 14.1645 6.59527 14.1117 6.76754 14.1117C6.97145 14.1117 7.21754 14.182 7.50231 14.3156C7.49176 14.3227 7.26676 14.4668 6.94332 14.4668ZM6.06441 14.2734C6.02574 14.2734 5.9941 14.2559 5.96598 14.2312C5.94464 14.206 5.93011 14.1758 5.92379 14.1434C5.9145 14.103 5.91095 14.0616 5.91324 14.0203C5.92856 14.0124 5.94529 14.0076 5.96246 14.0062C6.03981 14.0062 6.09957 14.0766 6.12418 14.1398C6.13824 14.175 6.14176 14.2066 6.13473 14.2312C6.1277 14.2559 6.09606 14.2699 6.06441 14.2699V14.2734ZM7.61129 14.0906C7.09098 14.0203 6.87301 13.8305 6.77809 13.6828C6.71824 13.5952 6.68975 13.4899 6.69723 13.384C6.69723 13.384 6.73238 13.377 6.77809 13.377C6.91871 13.377 7.27027 13.4473 7.61129 14.0906ZM6.54605 13.9887C6.32457 13.9887 6.1523 13.9535 6.04332 13.8762C5.99478 13.8453 5.95582 13.8014 5.93082 13.7496C5.92193 13.7307 5.91601 13.7105 5.91324 13.6898C5.9981 13.6557 6.08897 13.6389 6.18043 13.6406C6.35621 13.6406 6.61637 13.6969 6.89059 13.9641C6.77626 13.9784 6.66126 13.9866 6.54605 13.9887ZM5.47027 13.9465C5.23473 13.9465 4.91129 13.8762 4.7109 13.6758C4.878 13.6361 5.04894 13.6149 5.22066 13.6125C5.44215 13.6125 5.60738 13.6547 5.71988 13.7391C5.76207 13.7672 5.78316 13.7953 5.78668 13.8234C5.7902 13.8445 5.77965 13.8691 5.75504 13.8867C5.70582 13.9219 5.61441 13.9465 5.48785 13.9465H5.47027ZM4.70738 13.5598C4.69383 13.5593 4.68055 13.5559 4.66842 13.5498C4.65629 13.5437 4.6456 13.5352 4.63707 13.5246C4.6192 13.5021 4.60713 13.4755 4.60191 13.4473C4.58785 13.391 4.59137 13.3383 4.59137 13.3383C4.60195 13.3317 4.61408 13.3281 4.62652 13.3277C4.66168 13.3277 4.6898 13.3453 4.70738 13.3629C4.72926 13.3848 4.74606 13.4112 4.7566 13.4402C4.76715 13.4754 4.77066 13.5 4.76363 13.5211C4.7566 13.5387 4.73551 13.5563 4.70738 13.5563V13.5598ZM6.4652 13.5176C6.42652 13.5176 6.39488 13.5035 6.37027 13.4789C6.34894 13.4537 6.33441 13.4234 6.32809 13.391C6.31846 13.3496 6.31491 13.3069 6.31754 13.2645C6.33201 13.2582 6.34749 13.2546 6.36324 13.2539C6.44059 13.2539 6.50387 13.3207 6.52496 13.384C6.53902 13.4191 6.54254 13.4543 6.53551 13.4754C6.52496 13.5 6.49684 13.5176 6.4652 13.5176ZM5.60738 13.4824C5.13629 13.4648 4.8902 13.3313 4.77066 13.2223C4.71712 13.176 4.67296 13.1199 4.64059 13.057C4.62992 13.0345 4.62167 13.011 4.61598 12.9867C4.61598 12.9867 4.65816 12.9691 4.73199 12.9691H4.74254C4.90074 12.9691 5.2277 13.0359 5.60738 13.4824ZM6.12066 13.4332C5.85139 13.4043 5.60105 13.281 5.41402 13.0852C5.34345 13.0106 5.28952 12.9219 5.25582 12.825C5.25582 12.825 5.30504 12.8145 5.37535 12.8109C5.3859 12.8106 5.39645 12.8106 5.40699 12.8109C5.59684 12.8145 5.94488 12.9023 6.12066 13.4332ZM4.17301 13.2504C4.04645 13.2504 3.92691 13.2398 3.81441 13.2082C3.61402 13.159 3.52965 13.0852 3.49098 13.0289C3.47606 13.0055 3.46646 12.9791 3.46285 12.9516C3.46153 12.9411 3.46153 12.9304 3.46285 12.9199C3.46285 12.9199 3.59293 12.8848 3.77574 12.8812C3.86893 12.8796 3.96203 12.8878 4.05348 12.9059C4.2451 12.9456 4.41604 13.0529 4.53512 13.2082C4.53512 13.2082 4.38395 13.2504 4.17301 13.2504ZM5.05191 12.934C5.01676 12.934 4.9816 12.9164 4.95699 12.8918C4.93565 12.8666 4.92113 12.8363 4.91481 12.8039C4.90542 12.7636 4.90187 12.7222 4.90426 12.6809C4.91873 12.6746 4.93421 12.671 4.94996 12.6703H4.95348C5.03082 12.6703 5.09059 12.7336 5.1152 12.8004C5.12926 12.8355 5.13277 12.8637 5.12223 12.8918C5.11168 12.9164 5.08707 12.9305 5.05191 12.9305V12.934ZM4.39098 12.8391C4.38746 12.8391 4.21168 12.7969 4.03238 12.6844C3.86363 12.5789 3.66324 12.4031 3.63512 12.1219C3.60699 11.8406 3.6527 12.1148 3.67731 12.1148H3.68434C3.73356 12.1148 3.83551 12.1289 3.95856 12.2203C4.11676 12.3398 4.2609 12.5508 4.39098 12.8426V12.8391ZM4.8234 12.825C4.8234 12.825 4.69684 12.7758 4.54215 12.6422C4.31934 12.4533 4.14563 12.2133 4.0359 11.9426C4.0359 11.9426 4.07106 11.925 4.12379 11.9215C4.1273 11.9213 4.13082 11.9213 4.13434 11.9215H4.1484C4.21871 11.9215 4.3277 11.9531 4.45074 12.0867C4.62675 12.3031 4.75388 12.5549 4.8234 12.825ZM3.6984 12.7898C3.55777 12.7898 3.50856 12.7125 3.49098 12.6809C3.4772 12.6451 3.47237 12.6064 3.47691 12.5684C3.49988 12.5622 3.52347 12.5587 3.54723 12.5578H3.55426C3.66676 12.5578 3.75816 12.6176 3.79684 12.6738C3.80387 12.6844 3.82848 12.7266 3.80738 12.7547C3.79332 12.7793 3.75816 12.7898 3.70191 12.7898H3.6984ZM3.38199 12.3891C3.30113 12.3891 3.17809 12.382 3.04801 12.3609C2.91793 12.3363 2.8441 12.2273 2.80543 12.1395C2.77951 12.08 2.76177 12.0173 2.7527 11.9531C3.14996 11.9637 3.33981 12.0797 3.4277 12.1746C3.48222 12.2322 3.51568 12.3065 3.52262 12.3855H3.38199V12.3891ZM3.79684 11.9742C3.76433 11.9335 3.73383 11.8913 3.70543 11.8477C3.65621 11.7738 3.61402 11.6965 3.61402 11.6367C3.61079 11.5497 3.60375 11.4629 3.59293 11.3766L3.56832 11.2008C3.57887 11.2078 3.81793 11.2957 3.81793 11.5207C3.81793 11.7457 3.79684 11.9707 3.79684 11.9742ZM3.48746 11.9531H3.47691C3.4066 11.9391 3.28356 11.8828 3.14645 11.8055C3.01632 11.7363 2.89772 11.6474 2.79488 11.5418C2.7316 11.468 2.68941 11.3484 2.68238 11.1902C2.67667 11.12 2.67667 11.0495 2.68238 10.9793C2.69571 10.9733 2.70999 10.9697 2.72457 10.9688C2.77731 10.9688 2.83004 10.9934 2.90738 11.0461C2.97764 11.0954 3.04351 11.1507 3.10426 11.2113C3.18 11.2871 3.25159 11.3669 3.31871 11.4504C3.39344 11.5897 3.45806 11.7342 3.51207 11.8828V11.9355C3.50925 11.9418 3.50425 11.9468 3.49801 11.9496C3.49337 11.9506 3.48859 11.9506 3.48395 11.9496L3.48746 11.9531Z" fill="#435125"/>
<path d="M7.72379 14.9484C7.72775 14.9468 7.73133 14.9444 7.73434 14.9414V14.9379L7.78356 14.8887C7.83281 14.8332 7.87972 14.7758 7.92418 14.7164L8.11051 14.4844L8.13512 14.4527L8.36715 14.3824L8.5359 14.3016L8.44801 14.1996L8.13161 14.3332L7.89957 14.3824L7.47067 14.6988C7.55319 14.7708 7.63294 14.8458 7.70973 14.9238C7.71255 14.9283 7.7149 14.933 7.71676 14.9379L7.68864 14.9203L7.66051 14.9449L7.72028 14.9484H7.72379ZM9.3234 14.4668C9.52731 14.4668 9.7277 14.4105 9.92106 14.298C10.1144 14.1855 9.89293 14.2523 9.83317 14.2066C9.77692 14.1645 9.67145 14.1117 9.49918 14.1117C9.29528 14.1117 9.04918 14.182 8.76442 14.3156C8.77497 14.3227 8.99997 14.4668 9.3234 14.4668ZM10.2023 14.2734C10.241 14.2734 10.2726 14.2559 10.3007 14.2312C10.3221 14.206 10.3366 14.1758 10.3429 14.1434C10.3522 14.103 10.3558 14.0616 10.3535 14.0203C10.3382 14.0124 10.3214 14.0076 10.3043 14.0062C10.2269 14.0062 10.1672 14.0766 10.1425 14.1398C10.1285 14.175 10.125 14.2066 10.132 14.2312C10.139 14.2559 10.1707 14.2699 10.2023 14.2699V14.2734ZM8.65543 14.0906C9.17575 14.0203 9.39372 13.8305 9.48864 13.6828C9.54848 13.5952 9.57698 13.4899 9.5695 13.384C9.5695 13.384 9.53434 13.377 9.48864 13.377C9.34801 13.377 8.99645 13.4473 8.65543 14.0906ZM9.72067 13.9887C9.94215 13.9887 10.1144 13.9535 10.2234 13.8762C10.2719 13.8453 10.3109 13.8014 10.3359 13.7496C10.3448 13.7307 10.3507 13.7105 10.3535 13.6898C10.2686 13.6557 10.1778 13.6389 10.0863 13.6406C9.91051 13.6406 9.65036 13.6969 9.37614 13.9641C9.49046 13.9784 9.60547 13.9866 9.72067 13.9887ZM10.7964 13.9465C11.032 13.9465 11.3554 13.8762 11.5558 13.6758C11.3887 13.6361 11.2178 13.6149 11.0461 13.6125C10.8246 13.6125 10.6593 13.6547 10.5468 13.7391C10.5047 13.7672 10.4836 13.7953 10.48 13.8234C10.4765 13.8445 10.4871 13.8691 10.5117 13.8867C10.5609 13.9219 10.6523 13.9465 10.7789 13.9465H10.7964ZM11.5593 13.5598C11.5729 13.5593 11.5862 13.5559 11.5983 13.5498C11.6104 13.5437 11.6211 13.5352 11.6297 13.5246C11.6475 13.5021 11.6596 13.4755 11.6648 13.4473C11.6789 13.391 11.6754 13.3383 11.6754 13.3383C11.6648 13.3317 11.6526 13.3281 11.6402 13.3277C11.605 13.3277 11.5769 13.3453 11.5593 13.3629C11.5375 13.3848 11.5207 13.4112 11.5101 13.4402C11.4996 13.4754 11.4961 13.5 11.5031 13.5211C11.5101 13.5387 11.5312 13.5563 11.5593 13.5563V13.5598ZM9.80153 13.5176C9.8402 13.5176 9.87184 13.5035 9.89645 13.4789C9.91779 13.4537 9.93231 13.4234 9.93864 13.391C9.94826 13.3496 9.95182 13.3069 9.94918 13.2645C9.93471 13.2582 9.91923 13.2546 9.90348 13.2539C9.82614 13.2539 9.76286 13.3207 9.74176 13.384C9.7277 13.4191 9.72418 13.4543 9.73122 13.4754C9.74176 13.5 9.76989 13.5176 9.80153 13.5176ZM10.6593 13.4824C11.1304 13.4648 11.3765 13.3313 11.4961 13.2223C11.5496 13.176 11.5938 13.1199 11.6261 13.057C11.6368 13.0345 11.6451 13.011 11.6507 12.9867C11.6507 12.9867 11.6086 12.9691 11.5347 12.9691H11.5242C11.366 12.9691 11.039 13.0359 10.6593 13.4824ZM10.1461 13.4332C10.4153 13.4043 10.6657 13.281 10.8527 13.0852C10.9233 13.0106 10.9772 12.9219 11.0109 12.825C11.0109 12.825 10.9617 12.8145 10.8914 12.8109C10.8808 12.8106 10.8703 12.8106 10.8597 12.8109C10.6699 12.8145 10.3218 12.9023 10.1461 13.4332ZM12.0937 13.2504C12.2203 13.2504 12.3398 13.2398 12.4523 13.2082C12.6527 13.159 12.7371 13.0852 12.7757 13.0289C12.7907 13.0055 12.8003 12.9791 12.8039 12.9516C12.8052 12.9411 12.8052 12.9304 12.8039 12.9199C12.8039 12.9199 12.6738 12.8848 12.491 12.8812C12.3978 12.8796 12.3047 12.8878 12.2132 12.9059C12.0216 12.9456 11.8507 13.0529 11.7316 13.2082C11.7316 13.2082 11.8828 13.2504 12.0937 13.2504ZM11.2148 12.934C11.25 12.934 11.2851 12.9164 11.3097 12.8918C11.3311 12.8666 11.3456 12.8363 11.3519 12.8039C11.3613 12.7636 11.3649 12.7222 11.3625 12.6809C11.348 12.6746 11.3325 12.671 11.3168 12.6703H11.3132C11.2359 12.6703 11.1761 12.7336 11.1515 12.8004C11.1375 12.8355 11.1339 12.8637 11.1445 12.8918C11.155 12.9164 11.1797 12.9305 11.2148 12.9305V12.934ZM11.8757 12.8391C11.8793 12.8391 12.055 12.7969 12.2343 12.6844C12.4031 12.5789 12.6035 12.4031 12.6316 12.1219C12.6597 11.8406 12.614 12.1148 12.5894 12.1148H12.5824C12.5332 12.1148 12.4312 12.1289 12.3082 12.2203C12.15 12.3398 12.0058 12.5508 11.8757 12.8426V12.8391ZM11.4433 12.825C11.4433 12.825 11.5699 12.7758 11.7246 12.6422C11.9474 12.4533 12.1211 12.2133 12.2308 11.9426C12.2308 11.9426 12.1957 11.925 12.1429 11.9215C12.1394 11.9213 12.1359 11.9213 12.1324 11.9215H12.1183C12.048 11.9215 11.939 11.9531 11.816 12.0867C11.64 12.3031 11.5128 12.5549 11.4433 12.825ZM12.5683 12.7898C12.7089 12.7898 12.7582 12.7125 12.7757 12.6809C12.7895 12.6451 12.7944 12.6064 12.7898 12.5684C12.7668 12.5622 12.7433 12.5587 12.7195 12.5578H12.7125C12.6 12.5578 12.5086 12.6176 12.4699 12.6738C12.4629 12.6844 12.4382 12.7266 12.4593 12.7547C12.4734 12.7793 12.5086 12.7898 12.5648 12.7898H12.5683ZM12.8847 12.3891C12.9656 12.3891 13.0886 12.382 13.2187 12.3609C13.3488 12.3363 13.4226 12.2273 13.4613 12.1395C13.4872 12.08 13.505 12.0173 13.514 11.9531C13.1168 11.9637 12.9269 12.0797 12.839 12.1746C12.7845 12.2322 12.751 12.3065 12.7441 12.3855H12.8847V12.3891ZM12.4699 11.9742C12.5024 11.9335 12.5329 11.8913 12.5613 11.8477C12.6105 11.7738 12.6527 11.6965 12.6527 11.6367C12.6559 11.5497 12.663 11.4629 12.6738 11.3766L12.6984 11.2008C12.6879 11.2078 12.4488 11.2957 12.4488 11.5207C12.4488 11.7457 12.4699 11.9707 12.4699 11.9742ZM12.7793 11.9531H12.7898C12.8601 11.9391 12.9832 11.8828 13.1203 11.8055C13.2504 11.7363 13.369 11.6474 13.4718 11.5418C13.5351 11.468 13.5773 11.3484 13.5843 11.1902C13.5901 11.12 13.5901 11.0495 13.5843 10.9793C13.571 10.9733 13.5567 10.9697 13.5422 10.9688C13.4894 10.9688 13.4367 10.9934 13.3593 11.0461C13.2891 11.0954 13.2232 11.1507 13.1625 11.2113C13.0867 11.2871 13.0151 11.3669 12.948 11.4504C12.8733 11.5897 12.8087 11.7342 12.7547 11.8828V11.9355C12.7575 11.9418 12.7625 11.9468 12.7687 11.9496C12.7734 11.9506 12.7781 11.9506 12.7828 11.9496L12.7793 11.9531Z" fill="#435125"/>
<path d="M16.4636 2.86524L16.3933 2.89337L16.3652 2.90391L16.2808 2.89688L16.2 2.93555L16.0594 3.03399L16.0523 3.03751L15.9996 3.05157L15.9504 3.03047L15.9222 3.04454L15.9117 3.10079L15.8871 3.14297L15.8519 3.16758L15.7394 3.17813L15.6445 3.22735L15.5179 3.19219L15.4617 3.2168L15.3386 3.32579L15.2754 3.35743H15.2543L15.1699 3.3504L15.1347 3.36446L15.082 3.41016L14.9836 3.41719L14.9519 3.43829L14.9027 3.53672L14.85 3.59297L14.8219 3.59649L14.7867 3.58594L14.7621 3.58946L14.7515 3.65274L14.7304 3.68087L14.6601 3.70196L14.6109 3.74766L14.5617 3.76876H14.4844L14.4246 3.80391L14.3051 3.81446L14.2594 3.86016L14.2453 3.87071L14.2242 3.88477L14.189 3.90587L14.1785 3.9129L14.1328 3.90235L14.0801 3.92344L14.059 3.88829L14.0238 3.9129H13.9746L13.9148 3.88829L13.8691 3.86719L13.834 3.87422L13.8234 3.93047V3.93751L13.7883 3.98321L13.7215 4.02188L13.7144 4.03594L13.6406 4.13087L13.5 4.28204L13.3769 4.3418L13.2539 4.37696L13.166 4.44727L12.9375 4.56329L12.5789 4.74258L12.5051 4.76719L12.3996 4.78126L12.2133 4.85157L12.0445 4.90079L12.034 4.9043L12.0023 4.91485L11.7703 4.98516L11.6613 4.97462L11.5945 4.99922L11.4258 4.97813L11.3097 4.98165L11.2394 4.99571L11.0988 5.06602L10.8633 5.17501L10.7859 5.24532L10.6629 5.31212L10.5222 5.3543V5.29454L10.473 5.3086L10.4379 5.31915L10.3219 5.33672H10.2586L10.2199 5.32618H10.2129L9.97732 5.40704L9.71716 5.43165L9.58709 5.47383H9.48865L9.42537 5.4879L9.30584 5.50548L9.26365 5.49141H9.2531L8.90154 5.50548L8.73982 5.4879L8.66248 5.50548L8.53591 5.45977L8.34607 5.43868L8.30388 5.42462L8.20544 5.39649L8.15974 5.4211L8.12459 5.42462L8.04724 5.39649H8.0156L7.95232 5.4211L7.91365 5.41055L7.87849 5.38243L7.79412 5.37188L7.7449 5.32618L7.46365 5.36485L7.3863 5.34376L7.12966 5.26641L7.08748 5.26993L7.03826 5.30508L6.96091 5.33672L6.89412 5.3543H6.80271L6.69724 5.32969L6.59177 5.27696L6.54958 5.26641L6.46169 5.27696H6.43357L6.27185 5.18907L6.06091 5.05899L5.91677 4.98868L5.86052 4.98165L5.85349 5.00626L5.88162 5.09063L5.89216 5.17501L5.88865 5.24883V5.29805L5.89919 5.34024L5.95193 5.39649L5.97302 5.45626L5.9906 5.61446V5.77618L5.96248 6.03282L5.95544 6.06798L5.9238 6.20508L5.89919 6.32462L5.79373 6.65157L5.76208 6.69024L5.69177 6.73946L5.52654 6.85196L5.40701 6.92227L5.37185 6.93633L5.27341 6.94337L5.21365 6.93985L5.1363 6.89766L5.06599 6.88008L4.96755 6.80977L4.85857 6.78868L4.73904 6.71837L4.71091 6.68321L4.64412 6.67618L4.55623 6.64805L4.52107 6.64102L4.49998 6.63399L4.38748 6.63048L4.28201 6.58126L4.22576 6.56719L4.14841 6.56368L4.06755 6.59883L4.02888 6.61993L3.97615 6.59883H3.94099L3.89529 6.66563L3.89177 6.67618L3.86365 6.69024H3.79685L3.76873 6.70079L3.72654 6.71837L3.69138 6.73594L3.6738 6.74297H3.65974L3.64216 6.75001H3.61755L3.57537 6.72891L3.55427 6.71485L3.5156 6.70782L3.49451 6.72188V6.79219L3.47341 6.83087L3.41013 6.89063L3.35037 6.94337L3.30818 7.00665L3.19919 7.25626L3.12888 7.36172L3.10779 7.38282L3.03748 7.46368L2.97068 7.5129L2.82302 7.6254L2.6824 7.67813L2.56287 7.70274H2.50662L2.39412 7.68868L2.29568 7.65704L2.18669 7.58672L2.06365 7.4918L1.89138 7.31954L1.86677 7.30547H1.86326L1.81052 7.27032H1.76833L1.75427 7.29493L1.74373 7.33008L1.73669 7.36524L1.71912 7.5586V7.56915L1.72966 7.64649L1.86326 7.83282L1.90193 7.93126L1.90896 7.9418L1.93708 7.98751L1.95818 8.02266L2.00388 8.15626L1.97224 8.2336L1.98982 8.28282L1.94763 8.31446L1.9406 8.35665L2.06013 8.50782L2.08474 8.5711L2.05662 8.66251L2.01091 8.71172L1.99685 8.72579L2.00388 8.76446L2.06013 8.81368L2.15154 8.89805L2.20076 9.0211L2.23591 9.05274L2.28162 9.04219L2.30623 9.06329H2.34138L2.37654 9.09844L2.40115 9.10899L2.43982 9.12657L2.46794 9.16524L2.47498 9.28126L2.53123 9.42891V9.52032L2.56638 9.57657L2.57693 9.62227L2.55935 9.74532L2.60154 9.78399L2.64724 9.77344L2.67888 9.78048L2.7281 9.81915L2.78787 9.91055L2.84412 9.90352L2.87927 9.9211L3.05505 10.0793L3.09724 10.1004L3.1324 10.1145L3.16755 10.1496L3.22029 10.1145H3.22732L3.28708 10.1074L3.31521 10.125L3.36443 10.1602H3.43474L3.57537 10.2059L3.64216 10.2199L3.76873 10.3008L3.82498 10.3359L3.85662 10.3606L3.8988 10.3957L3.98318 10.4309L4.05349 10.4484L4.09568 10.459L4.12732 10.4695L4.28552 10.5328L4.3699 10.5504L4.45076 10.582L4.50701 10.6031H4.54919L4.60896 10.5504H4.66873L4.71794 10.5609L4.76365 10.5539L4.83748 10.5082L4.85505 10.4836L4.90779 10.459L5.08357 10.4379L5.1363 10.4555L5.2699 10.3957L5.3613 10.4203L5.43865 10.3922L5.61443 10.4309L5.66013 10.466L5.70935 10.5223H5.77263L5.75154 10.5645L5.82537 10.6453L5.89568 10.7508V10.7613L5.94841 10.9055L5.98357 10.9582L6.01169 11.0285V11.0777L5.97302 11.1094L5.96599 11.127V11.134L5.97302 11.1516L5.98709 11.1445L6.01521 11.127L6.05037 11.1234L6.11365 11.1305H6.15232L6.21912 11.1023L6.2613 11.0813L6.33162 11.1094H6.40544L6.43709 11.1234L6.52849 11.1621L6.57419 11.1691L6.59177 11.1551L6.60232 11.1305L6.59529 11.1023L6.56013 11.0602L6.4863 10.9723L6.45115 10.9266L6.43005 10.8633L6.42302 10.7789L6.41599 10.7227L6.42654 10.6488L6.44763 10.6207L6.46169 10.5609L6.46521 10.5469L6.5074 10.4906L6.6199 10.4203L6.73943 10.3148L6.83435 10.2481L6.93279 10.2059V10.1953L6.94685 10.1988L7.19294 10.1145H7.19998L7.30896 10.0934L8.05779 10.1461L8.08591 10.1391L8.11052 10.0688L8.12459 10.0547L8.13162 10.0477L8.21599 10.0125L8.25115 10.0055L8.35662 10.0336L8.40232 10.0441L8.47263 10.0055H8.52185L8.62732 9.94923H8.6906L8.71169 9.94219L8.83474 9.85079L8.95427 9.81563L8.98943 9.80157L8.99646 9.79454L9.11951 9.73126L9.19685 9.67149L9.26365 9.63633L9.33396 9.61876L9.52732 9.60469L9.56599 9.54141L9.64685 9.52735L9.69958 9.4711L9.75584 9.45001L9.79451 9.39024L9.82966 9.34102L9.87888 9.3129L10.0301 9.30587L10.2129 9.32696L10.2375 9.3129L10.2761 9.16524L10.3183 9.13712L10.4344 8.97188V8.85938L10.4554 8.78555L10.4414 8.65196L10.459 8.51837L10.5293 8.34962L10.5926 8.2793L10.6945 8.21251L10.7472 8.19141L10.8176 8.17735H10.8316L10.8492 8.17383L11.1023 8.17032H11.1937L11.2781 8.1668L11.489 8.20196L11.5066 8.20899L11.5769 8.23008L11.6613 8.29688L11.7492 8.38126L11.7668 8.39883L11.823 8.41993L11.8406 8.43047L11.8898 8.41993L11.9566 8.38477L12.0058 8.34258L12.0761 8.30743V8.30391L12.1148 8.24415L12.1324 8.21954L12.266 8.1668L12.4242 8.15977L12.4418 8.14922L12.4523 8.14571L12.491 8.09649H12.5297L12.6246 8.13165L12.6914 8.11758L12.7441 8.13868L12.7828 8.13165L12.8601 8.12462L12.9445 8.18087L12.9937 8.1879L13.1625 8.28633H13.1765L13.1836 8.28985L13.2047 8.28633L13.2363 8.27579L13.2433 8.2793L13.2609 8.30743L13.289 8.31094L13.3207 8.26876L13.3066 8.25118L13.3031 8.24415L13.2433 8.23008L13.1871 8.13868L13.2398 8.08243L13.159 7.98399L13.1449 7.96641L13.1414 7.95938L13.1133 7.91719L12.9726 7.69923L12.7828 7.55157L12.7195 7.49883L12.6949 7.48126L12.5965 7.3793L12.5261 7.2879L12.5156 7.2668L12.5015 7.23165L12.4594 7.14376L12.389 7.08399L12.3258 7.02071V7.01719L12.1992 6.84844L12.1781 6.82032L12.15 6.80274H12.0867L12.0797 6.79571V6.79219L12.1078 6.75704L12.1429 6.75001L12.157 6.71837L12.0937 6.53555V6.52852L12.0867 6.47227L12.1394 6.20508L12.1465 6.16993L12.2344 5.99415L12.2906 5.94844L12.3469 5.83243L12.3996 5.7586L12.4488 5.70938L12.4558 5.70587L12.5437 5.65313L12.6176 5.64258L12.6879 5.63204L12.8109 5.66719H12.9515L13.0043 5.66016L13.0922 5.63204L13.1344 5.60743L13.1554 5.57227L13.1976 5.42462L13.2152 5.3754L13.2398 5.32618L13.4015 5.13985L13.5211 5.03087L13.7918 4.83047L13.9254 4.75313L13.9922 4.71094L14.5969 4.44376L14.7515 4.28555L14.8324 4.20118L14.9801 4.10626L15.1488 4.03594L15.2929 3.91993L15.3246 3.88126L15.3668 3.75118L15.3984 3.74415L15.4301 3.67735L15.4371 3.65977L15.5566 3.5754L15.5707 3.56837L16.0312 3.33985L16.1015 3.34688L16.1367 3.29415L16.2703 3.27305L16.2914 3.26602L16.3265 3.25196L16.3547 3.20274V3.19219L16.3582 3.06563L16.3863 3.03047L16.4039 2.9461L16.4179 2.92501L16.432 2.90743L16.4707 2.8793L16.4636 2.86172V2.86524Z" fill="#D47600"/>
</g>
<defs>
<clipPath id="clip0_14_1252">
<rect width="18" height="18" rx="9" fill="white"/>
</clipPath>
</defs>
</svg>
