<svg width="18" height="18" viewBox="0 0 18 18" fill="none" xmlns="http://www.w3.org/2000/svg">
<g clip-path="url(#clip0_8201_10278)">
<path d="M9 18C13.9706 18 18 13.9706 18 9C18 4.02944 13.9706 0 9 0C4.02944 0 0 4.02944 0 9C0 13.9706 4.02944 18 9 18Z" fill="#F0F0F0"/>
<path d="M8.2176 9C8.2176 9 2.6415 15.3652 2.63623 15.3639C4.26488 16.9926 6.51491 18 9.00021 18C13.9707 18 18.0002 13.9705 18.0002 9H8.2176Z" fill="#D80027"/>
<path d="M2.63603 2.63599C-0.878678 6.1507 -0.878678 11.8492 2.63603 15.364C4.08844 13.9115 5.48531 12.5147 9.00002 8.99997L2.63603 2.63599Z" fill="#0052B4"/>
</g>
<defs>
<clipPath id="clip0_8201_10278">
<rect width="18" height="18" fill="white"/>
</clipPath>
</defs>
</svg>
