<svg width="18" height="18" viewBox="0 0 18 18" fill="none" xmlns="http://www.w3.org/2000/svg">
<g clip-path="url(#clip0_8201_10296)">
<path d="M8.2176 9.78261C8.2176 9.78261 2.6415 2.63479 2.63623 2.63605C4.26488 1.00737 6.51491 0 9.00021 0C13.9707 0 18.0002 4.02947 18.0002 9L8.2176 9.78261Z" fill="#338AF3"/>
<path d="M8.2176 9C8.2176 9 2.6415 15.3652 2.63623 15.3639C4.26488 16.9926 6.51491 18 9.00021 18C13.9707 18 18.0002 13.9705 18.0002 9H8.2176Z" fill="#6DA544"/>
<path d="M2.63603 2.63599C-0.878678 6.1507 -0.878678 11.8492 2.63603 15.364C4.08844 13.9115 5.48531 12.5147 9.00002 8.99997L2.63603 2.63599Z" fill="#F0F0F0"/>
<path d="M3.64246 6.6521L4.22518 8.44563H6.11117L4.58546 9.55418L5.16814 11.3478L3.64246 10.2393L2.11672 11.3478L2.69954 9.55418L1.17383 8.44563H3.05968L3.64246 6.6521Z" fill="#D80027"/>
</g>
<defs>
<clipPath id="clip0_8201_10296">
<rect width="18" height="18" fill="white"/>
</clipPath>
</defs>
</svg>
