<svg width="18" height="18" viewBox="0 0 18 18" fill="none" xmlns="http://www.w3.org/2000/svg">
<g clip-path="url(#clip0_8201_10301)">
<path d="M9 18C13.9706 18 18 13.9706 18 9C18 4.02944 13.9706 0 9 0C4.02944 0 0 4.02944 0 9C0 13.9706 4.02944 18 9 18Z" fill="#F0F0F0"/>
<path d="M10.7612 17.8273C14.3191 17.1215 17.1218 14.3187 17.8276 10.7609H10.7612V17.8273Z" fill="#496E2D"/>
<path d="M0.172852 10.7609C0.878613 14.3187 3.68134 17.1215 7.23926 17.8273V10.7609H0.172852Z" fill="#496E2D"/>
<path d="M17.8276 7.23914C17.1218 3.68125 14.3191 0.878526 10.7612 0.172729V7.23914H17.8276Z" fill="#496E2D"/>
<path d="M7.23926 0.172729C3.68134 0.878526 0.878613 3.68125 0.172852 7.23914H7.23926V0.172729Z" fill="#496E2D"/>
<path d="M8.41316 10.7609H7.23926V17.8273C7.62236 17.9032 8.01424 17.9547 8.41316 17.9804V10.7609Z" fill="#FFDA44"/>
<path d="M8.41316 7.23908V0.0195312C8.01424 0.0451953 7.62232 0.0966992 7.23926 0.172672V7.23908H8.41316Z" fill="#FFDA44"/>
<path d="M9.58702 0.019582C9.39289 0.00703125 9.19732 0 9.00005 0C8.80279 0 8.60722 0.00703125 8.41309 0.019582V7.23916H9.58699V0.019582H9.58702Z" fill="black"/>
<path d="M8.41309 17.9804C8.60722 17.993 8.80279 18 9.00005 18C9.19732 18 9.39289 17.993 9.58702 17.9804V10.7609H8.41312V17.9804H8.41309Z" fill="black"/>
<path d="M7.23908 8.41304V7.23914H0.172672C0.0966641 7.62227 0.0451953 8.01412 0.0195312 8.41304H7.23908Z" fill="#FFDA44"/>
<path d="M10.7607 8.41304H17.9803C17.9547 8.01412 17.9032 7.62227 17.8272 7.23914H10.7608V8.41304H10.7607Z" fill="#FFDA44"/>
<path d="M10.7607 9.58702H17.9803C17.9928 9.39293 17.9999 9.19732 17.9999 9.00005C17.9999 8.80279 17.9928 8.60718 17.9803 8.41309H10.7607V9.58702Z" fill="black"/>
<path d="M0.019582 8.41309C0.00706641 8.60718 0 8.80279 0 9.00005C0 9.19732 0.00706641 9.39293 0.019582 9.58702H7.23916V8.41312H0.019582V8.41309Z" fill="black"/>
<path d="M9.00016 13.3044C11.3774 13.3044 13.3045 11.3773 13.3045 9.00003C13.3045 6.6228 11.3774 4.69568 9.00016 4.69568C6.62293 4.69568 4.6958 6.6228 4.6958 9.00003C4.6958 11.3773 6.62293 13.3044 9.00016 13.3044Z" fill="#D80027"/>
<path d="M9.98064 9.48021C9.66047 8.83991 9.24432 8.19092 9.24432 8.19092C9.24432 8.19092 9.25466 7.89543 9.25466 7.71937C9.25466 7.45415 9.03964 7.23914 8.77443 7.23914C8.52316 7.23914 8.31729 7.43218 8.2963 7.67796C8.09872 7.69086 7.94238 7.85476 7.94238 8.05557C7.94238 8.20157 8.02511 8.3281 8.14618 8.39135C8.20637 8.25058 8.32421 8.14068 8.46997 8.09058C8.49374 8.11003 8.51926 8.12739 8.54651 8.14212L8.60803 8.17158C8.60803 8.17158 8.3799 8.81463 8.3799 9.16007C8.3799 10.1312 9.02024 10.4307 9.02024 10.4307V10.4407L8.70007 10.7609H9.34037V10.1205L9.66054 10.4407C9.66335 10.4347 10.267 10.0529 9.98064 9.48021Z" fill="#496E2D"/>
<path d="M8.99995 5.47827L9.14563 5.92665H9.61708L9.23567 6.20379L9.38139 6.65217L8.99995 6.37507L8.6185 6.65217L8.76422 6.20379L8.38281 5.92665H8.85426L8.99995 5.47827Z" fill="#496E2D"/>
<path d="M6.92961 6.15091L7.31098 6.42805L7.69243 6.15088L7.54674 6.59933L7.92818 6.8764L7.4567 6.87643L7.31102 7.32482L7.16529 6.87643L6.69385 6.8764L7.07526 6.59926L6.92961 6.15091Z" fill="#496E2D"/>
<path d="M5.65039 7.91176H6.1218L6.26752 7.46338L6.41321 7.91176L6.88469 7.91173L6.50328 8.1889L6.649 8.63728L6.26752 8.36014L5.88611 8.63725L6.03177 8.18886L5.65039 7.91176Z" fill="#496E2D"/>
<path d="M5.65039 10.0883L6.03177 9.81121L5.88608 9.36279L6.26752 9.63993L6.64897 9.36279L6.50328 9.81118L6.88473 10.0883L6.41321 10.0883L6.26752 10.5367L6.1218 10.0883H5.65039Z" fill="#496E2D"/>
<path d="M6.92964 11.8492L7.07529 11.4008L6.69385 11.1237H7.16533L7.31105 10.6753L7.45674 11.1237H7.92822L7.54677 11.4008L7.69246 11.8492L7.31102 11.5721L6.92964 11.8492Z" fill="#496E2D"/>
<path d="M8.99995 12.5218L8.85426 12.0735H8.38281L8.76422 11.7963L8.6185 11.3479L8.99995 11.625L9.38136 11.3479L9.23567 11.7963L9.61708 12.0735L9.14563 12.0735L8.99995 12.5218Z" fill="#496E2D"/>
<path d="M11.0699 11.8492L10.6885 11.5721L10.3071 11.8492L10.4527 11.4008L10.0713 11.1237L10.5428 11.1237L10.6884 10.6753L10.8342 11.1237H11.3056L10.9242 11.4008L11.0699 11.8492Z" fill="#496E2D"/>
<path d="M12.3491 10.0882H11.8777L11.7319 10.5367L11.5863 10.0883H11.1147L11.4962 9.81114L11.3505 9.36279L11.7319 9.63989L12.1133 9.36279L11.9677 9.81118L12.3491 10.0882Z" fill="#496E2D"/>
<path d="M12.3491 7.91173L11.9677 8.18883L12.1134 8.63721L11.7319 8.36011L11.3505 8.63728L11.4962 8.18886L11.1147 7.91176L11.5863 7.91169L11.7319 7.46338L11.8777 7.91173H12.3491Z" fill="#496E2D"/>
<path d="M11.0699 6.15088L10.9242 6.59923L11.3056 6.87636H10.8342L10.6885 7.32478L10.5428 6.8764L10.0713 6.87643L10.4527 6.59923L10.307 6.15091L10.6885 6.42798L11.0699 6.15088Z" fill="#496E2D"/>
</g>
<defs>
<clipPath id="clip0_8201_10301">
<rect width="18" height="18" fill="white"/>
</clipPath>
</defs>
</svg>
