<svg width="18" height="18" viewBox="0 0 18 18" fill="none" xmlns="http://www.w3.org/2000/svg">
<g clip-path="url(#clip0_14_1232)">
<mask id="mask0_14_1232" style="mask-type:luminance" maskUnits="userSpaceOnUse" x="0" y="0" width="18" height="18">
<path d="M0 0H18V18H0V0Z" fill="white"/>
</mask>
<g mask="url(#mask0_14_1232)">
<path fill-rule="evenodd" clip-rule="evenodd" d="M-9.08081 0H27.0422V18H-9.08081V0Z" fill="#108C00"/>
<path fill-rule="evenodd" clip-rule="evenodd" d="M-9.14062 6.26483H27.1617V8.02616H-9.14062V6.26483Z" fill="#FFD600"/>
<path fill-rule="evenodd" clip-rule="evenodd" d="M6.36328 0H8.06836V18H6.3668L6.36328 0Z" fill="#FFD600"/>
<path fill-rule="evenodd" clip-rule="evenodd" d="M8.00854 0H9.71011V18H8.00854V0Z" fill="black"/>
<path fill-rule="evenodd" clip-rule="evenodd" d="M-9.14062 7.9664H27.1617V9.73124H-9.14062V7.9664Z" fill="black"/>
<path fill-rule="evenodd" clip-rule="evenodd" d="M-9.14062 9.73126H27.1617V11.4926H-9.14062V9.73126Z" fill="white"/>
<path fill-rule="evenodd" clip-rule="evenodd" d="M9.71021 0H11.4153V18H9.71021V0Z" fill="white"/>
<path d="M4.2469 9.01407C4.2469 11.6838 6.4017 13.8481 9.05979 13.8481C11.7179 13.8481 13.8727 11.6838 13.8727 9.01407C13.8727 6.34433 11.7179 4.18008 9.05979 4.18008C6.4017 4.18008 4.2469 6.34433 4.2469 9.01407Z" fill="#E72910"/>
<path fill-rule="evenodd" clip-rule="evenodd" d="M8.80662 4.81641L9.00349 4.25391L9.18279 4.80586C9.18279 4.80586 9.78396 4.82344 9.78396 4.81289C9.78396 4.80234 9.30935 5.175 9.30935 5.175L9.5238 5.79375C9.51677 5.77617 9.00349 5.41055 9.00349 5.41055C9.00349 5.41055 8.48318 5.77617 8.49373 5.77617C8.50427 5.77617 8.6906 5.17852 8.6906 5.17852L8.22302 4.82344L8.80662 4.81289V4.81641Z" fill="black"/>
<path fill-rule="evenodd" clip-rule="evenodd" d="M8.83472 4.84102L8.99995 4.35938L9.15464 4.8375C9.15464 4.8375 9.67847 4.85156 9.67847 4.84453C9.67847 4.8375 9.26714 5.16094 9.26714 5.16094L9.44995 5.69531C9.44292 5.67773 8.99995 5.36484 8.99995 5.36484C8.99995 5.36484 8.54995 5.68125 8.55698 5.68125C8.56401 5.68125 8.73276 5.16094 8.73276 5.16094L8.32495 4.85156L8.8312 4.84453L8.83472 4.84102Z" fill="#FFE700"/>
<path fill-rule="evenodd" clip-rule="evenodd" d="M8.9051 4.92188L9.00354 4.64062L9.09495 4.91836C9.09495 4.91836 9.39377 4.92539 9.39377 4.91836C9.39377 4.91133 9.15823 5.10117 9.15823 5.10117L9.2637 5.41055C9.26018 5.4 9.00354 5.2207 9.00354 5.2207L8.75041 5.40352C8.75745 5.40352 8.84885 5.10469 8.84885 5.10469L8.61682 4.92891L8.9051 4.92188Z" fill="#108C00"/>
<path fill-rule="evenodd" clip-rule="evenodd" d="M12.5472 7.44611L12.7441 6.88361L12.9199 7.43556C12.9199 7.43556 13.5246 7.45665 13.5246 7.44611C13.5246 7.43556 13.05 7.80822 13.05 7.80822L13.2609 8.42697C13.2539 8.40939 12.7441 8.04376 12.7441 8.04376C12.7441 8.04376 12.2238 8.40939 12.2343 8.40939C12.2449 8.40939 12.4312 7.81173 12.4312 7.81173L11.9636 7.45314L12.5472 7.44259V7.44611Z" fill="black"/>
<path fill-rule="evenodd" clip-rule="evenodd" d="M12.5718 7.47424L12.7441 6.98557L12.8988 7.46721C12.8988 7.46721 13.4191 7.48127 13.4191 7.47424C13.4191 7.46721 13.0078 7.79064 13.0078 7.79064L13.1941 8.3215C13.1871 8.30744 12.7441 7.99103 12.7441 7.99103C12.7441 7.99103 12.2941 8.30744 12.3011 8.30744C12.3082 8.30744 12.4734 7.78713 12.4734 7.78713L12.0691 7.48127L12.5718 7.47424Z" fill="#FFE700"/>
<path fill-rule="evenodd" clip-rule="evenodd" d="M12.6457 7.55508L12.7441 7.27383L12.832 7.54805L13.1344 7.55508L12.8953 7.73438C12.8953 7.73438 13.0078 8.05079 13.0008 8.04376C13.0008 8.03321 12.7441 7.85391 12.7441 7.85391L12.4875 8.03321L12.5859 7.73438L12.3539 7.5586L12.6457 7.55508Z" fill="#108C00"/>
<path fill-rule="evenodd" clip-rule="evenodd" d="M11.4574 11.6227L11.6542 11.0602L11.83 11.6156C11.83 11.6156 12.4347 11.6332 12.4347 11.6262C12.4347 11.6191 11.9601 11.9883 11.9601 11.9883L12.171 12.6035C12.164 12.5859 11.6542 12.2238 11.6542 12.2238C11.6542 12.2238 11.1339 12.5859 11.141 12.5859C11.148 12.5859 11.3414 11.9883 11.3414 11.9883L10.8738 11.6367L11.4574 11.6262V11.6227Z" fill="black"/>
<path fill-rule="evenodd" clip-rule="evenodd" d="M11.482 11.6508L11.6542 11.1656L11.8089 11.6437C11.8089 11.6437 12.3292 11.6613 12.3292 11.6508C12.3292 11.6402 11.9179 11.9672 11.9179 11.9672L12.1042 12.5016C12.0972 12.484 11.6542 12.1711 11.6542 12.1711C11.6542 12.1711 11.2042 12.4875 11.2113 12.4875C11.2183 12.4875 11.3835 11.9672 11.3835 11.9672L10.9792 11.6613L11.482 11.6508Z" fill="#FFE700"/>
<path fill-rule="evenodd" clip-rule="evenodd" d="M11.5558 11.7316L11.6543 11.4504L11.7422 11.7281C11.7422 11.7281 12.0445 11.7387 12.0445 11.7316C12.0445 11.7246 11.8054 11.9144 11.8054 11.9144L11.9109 12.2203C11.9109 12.2133 11.6543 12.0305 11.6543 12.0305L11.3976 12.2133L11.4961 11.9144L11.264 11.7387L11.5558 11.7316Z" fill="#108C00"/>
<path fill-rule="evenodd" clip-rule="evenodd" d="M6.22971 11.6227L6.42659 11.0602L6.60237 11.6156C6.60237 11.6156 7.20354 11.6332 7.20354 11.6262C7.20354 11.6191 6.72893 11.9883 6.72893 11.9883L6.9469 12.6035C6.93635 12.5859 6.42659 12.2238 6.42659 12.2238C6.42659 12.2238 5.90627 12.5859 5.91331 12.5859C5.92034 12.5859 6.1137 11.9883 6.1137 11.9883L5.64612 11.6367L6.22971 11.6262V11.6227Z" fill="black"/>
<path fill-rule="evenodd" clip-rule="evenodd" d="M6.25784 11.6508L6.42659 11.1656L6.58127 11.6437C6.58127 11.6437 7.10159 11.6613 7.10159 11.6508C7.10159 11.6402 6.69026 11.9672 6.69026 11.9672L6.87659 12.5016C6.86956 12.484 6.42659 12.1711 6.42659 12.1711C6.42659 12.1711 5.97659 12.4875 5.98362 12.4875C5.99065 12.4875 6.15588 11.9672 6.15588 11.9672L5.75159 11.6613L6.25432 11.6508H6.25784Z" fill="#FFE700"/>
<path fill-rule="evenodd" clip-rule="evenodd" d="M6.32817 11.7316L6.42661 11.4504L6.5145 11.7281C6.5145 11.7281 6.81685 11.7387 6.81685 11.7316C6.81685 11.7246 6.57778 11.9144 6.57778 11.9144L6.68325 12.2203C6.68325 12.2133 6.42661 12.0305 6.42661 12.0305L6.16997 12.2133L6.26841 11.9144L6.03638 11.7387L6.32817 11.7316Z" fill="#108C00"/>
<path fill-rule="evenodd" clip-rule="evenodd" d="M5.27341 7.3371L5.47029 6.7746L5.64959 7.33007C5.64959 7.33007 6.25076 7.34764 6.25076 7.3371C6.25076 7.32655 5.77615 7.70272 5.77615 7.70272L5.9906 8.31796C5.98005 8.30038 5.47029 7.93827 5.47029 7.93827C5.47029 7.93827 4.94998 8.29686 4.96052 8.29686C4.97107 8.29686 5.1574 7.69921 5.1574 7.69921L4.68982 7.34764L5.27341 7.3371Z" fill="black"/>
<path fill-rule="evenodd" clip-rule="evenodd" d="M5.30154 7.36522L5.47029 6.88007L5.62849 7.35819C5.62849 7.35819 6.14529 7.37577 6.14529 7.36522C6.14529 7.35468 5.73396 7.68163 5.73396 7.68163L5.92029 8.216C5.91326 8.19843 5.47029 7.88553 5.47029 7.88553C5.47029 7.88553 5.02029 8.20194 5.03084 8.20194C5.04138 8.20194 5.19958 7.68163 5.19958 7.68163L4.79529 7.37577L5.30154 7.36522Z" fill="#FFE700"/>
<path fill-rule="evenodd" clip-rule="evenodd" d="M5.3719 7.44608L5.47034 7.16483L5.56174 7.44256L5.86057 7.44608L5.62502 7.62889L5.73049 7.93475C5.72698 7.92772 5.47034 7.7449 5.47034 7.7449L5.21721 7.92772C5.22424 7.92772 5.31565 7.62889 5.31565 7.62889L5.08362 7.45311L5.3719 7.44608Z" fill="#108C00"/>
<path fill-rule="evenodd" clip-rule="evenodd" d="M11.4117 6.12072L11.2148 6.68322L11.039 6.13126C11.039 6.13126 10.4343 6.11368 10.4343 6.12072C10.4343 6.12775 10.9089 5.75861 10.9089 5.75861L10.698 5.14337C10.705 5.16095 11.2148 5.52306 11.2148 5.52306C11.2148 5.52306 11.7351 5.16095 11.7246 5.16095C11.714 5.16095 11.5277 5.75861 11.5277 5.75861L11.9953 6.11017L11.4117 6.12072Z" fill="black"/>
<path fill-rule="evenodd" clip-rule="evenodd" d="M11.3871 6.0926C11.3871 6.10314 11.2113 6.58127 11.2113 6.58127L11.0601 6.10314C11.0601 6.10314 10.5398 6.08557 10.5398 6.0926C10.5398 6.09963 10.9511 5.77971 10.9511 5.77971L10.7648 5.24533C10.7718 5.26291 11.2148 5.5758 11.2148 5.5758C11.2148 5.5758 11.6648 5.25939 11.6578 5.25939C11.6507 5.25939 11.4855 5.77971 11.4855 5.77971L11.8898 6.08557L11.3835 6.0926H11.3871Z" fill="#FFE700"/>
<path fill-rule="evenodd" clip-rule="evenodd" d="M11.3133 6.01174L11.2148 6.29299L11.1269 6.01877C11.1269 6.01877 10.8246 6.00822 10.8246 6.01525C10.8246 6.02228 11.0636 5.83244 11.0636 5.83244L10.9582 5.52658C10.9582 5.53361 11.2148 5.71642 11.2148 5.71642L11.4715 5.53361C11.4644 5.53361 11.3695 5.83244 11.3695 5.83244L11.6051 6.00822L11.3133 6.01525V6.01174Z" fill="#108C00"/>
<path fill-rule="evenodd" clip-rule="evenodd" d="M12.9129 10.2059L12.716 10.7684L12.5402 10.2129C12.5402 10.2129 11.9355 10.1953 11.9355 10.2059C11.9355 10.2164 12.4102 9.84376 12.4102 9.84376L12.1992 9.22501C12.2063 9.24258 12.716 9.60469 12.716 9.60469C12.716 9.60469 13.2363 9.24258 13.2258 9.24258C13.2152 9.24258 13.0289 9.84024 13.0289 9.84024L13.5 10.1953L12.9164 10.2059H12.9129Z" fill="black"/>
<path fill-rule="evenodd" clip-rule="evenodd" d="M12.8883 10.1777L12.716 10.6629L12.5613 10.1848C12.5613 10.1848 12.041 10.1707 12.041 10.1777C12.041 10.1848 12.4523 9.86134 12.4523 9.86134L12.266 9.32697C12.273 9.34454 12.716 9.65743 12.716 9.65743C12.716 9.65743 13.166 9.34103 13.159 9.34103C13.152 9.34103 12.9867 9.86134 12.9867 9.86134L13.391 10.1707L12.8848 10.1777H12.8883Z" fill="#FFE700"/>
<path fill-rule="evenodd" clip-rule="evenodd" d="M12.8145 10.0969L12.716 10.3781L12.6281 10.1004C12.6281 10.1004 12.3258 10.0934 12.3258 10.1004C12.3258 10.1074 12.5649 9.91759 12.5649 9.91759L12.4594 9.60822C12.4594 9.61876 12.716 9.79806 12.716 9.79806L12.9727 9.61525C12.9656 9.61525 12.8707 9.91759 12.8707 9.91759L13.1063 10.0934L12.8145 10.0969Z" fill="#108C00"/>
<path fill-rule="evenodd" clip-rule="evenodd" d="M9.18987 13.1941L8.99299 13.7566L8.81721 13.2012C8.81721 13.2012 8.21252 13.1836 8.21252 13.1906C8.21252 13.1977 8.68713 12.8285 8.68713 12.8285L8.4762 12.2133C8.48323 12.2309 8.99299 12.593 8.99299 12.593C8.99299 12.593 9.51331 12.2309 9.50276 12.2309C9.49221 12.2309 9.30588 12.8285 9.30588 12.8285L9.77346 13.1836L9.18987 13.1941Z" fill="black"/>
<path fill-rule="evenodd" clip-rule="evenodd" d="M9.16526 13.1625L8.99299 13.6547L8.83831 13.1731C8.83831 13.1731 8.31799 13.1555 8.31799 13.166C8.31799 13.1766 8.72932 12.8496 8.72932 12.8496L8.54299 12.3152C8.55002 12.3328 8.99299 12.6457 8.99299 12.6457C8.99299 12.6457 9.44299 12.3293 9.43596 12.3293C9.42893 12.3293 9.2637 12.8496 9.2637 12.8496L9.66799 13.1555L9.16526 13.166V13.1625Z" fill="#FFE700"/>
<path fill-rule="evenodd" clip-rule="evenodd" d="M9.09146 13.0852L8.99302 13.3664L8.90513 13.0887C8.90513 13.0887 8.60278 13.0781 8.60278 13.0852C8.60278 13.0922 8.84185 12.9024 8.84185 12.9024L8.73638 12.5965C8.73638 12.6035 8.99302 12.7863 8.99302 12.7863L9.24966 12.6035L9.15122 12.9024L9.38325 13.0781L9.09146 13.0852Z" fill="#108C00"/>
<path fill-rule="evenodd" clip-rule="evenodd" d="M5.69534 10.2059L5.49495 10.7684L5.31916 10.2129C5.31916 10.2129 4.71448 10.1953 4.71448 10.2059C4.71448 10.2164 5.18909 9.84376 5.18909 9.84376L4.97815 9.22501C4.98518 9.24258 5.49495 9.60469 5.49495 9.60469L6.01174 9.2461L5.81135 9.84376L6.27893 10.1988L5.69534 10.2094V10.2059Z" fill="black"/>
<path fill-rule="evenodd" clip-rule="evenodd" d="M5.66721 10.1777L5.49495 10.6629L5.34026 10.1848C5.34026 10.1848 4.81995 10.1707 4.81995 10.1777C4.81995 10.1848 5.23127 9.86134 5.23127 9.86134L5.04495 9.32697C5.05198 9.34454 5.49495 9.65743 5.49495 9.65743C5.49495 9.65743 5.94495 9.34103 5.93791 9.34103C5.93088 9.34103 5.76565 9.86134 5.76565 9.86134L6.16995 10.1707L5.66721 10.1777Z" fill="#FFE700"/>
<path fill-rule="evenodd" clip-rule="evenodd" d="M5.59341 10.0969L5.49497 10.3781L5.40708 10.1004C5.40708 10.1004 5.10474 10.0934 5.10474 10.1004C5.10474 10.1074 5.3438 9.91759 5.3438 9.91759L5.23833 9.60822C5.23833 9.61876 5.49497 9.79806 5.49497 9.79806L5.75161 9.61525L5.65317 9.91759L5.8852 10.0934L5.59341 10.0969Z" fill="#108C00"/>
<path fill-rule="evenodd" clip-rule="evenodd" d="M6.98552 6.18047L6.78865 6.74297L6.60583 6.19102C6.60583 6.19102 6.00818 6.17344 6.00818 6.18047C6.00818 6.1875 6.48279 5.81836 6.48279 5.81836L6.26834 5.20312C6.27537 5.2207 6.78513 5.58281 6.78513 5.58281C6.78513 5.58281 7.30544 5.2207 7.29841 5.2207C7.29138 5.2207 7.10154 5.81836 7.10154 5.81836L7.5656 6.16992L6.98552 6.18398V6.18047Z" fill="black"/>
<path fill-rule="evenodd" clip-rule="evenodd" d="M6.95737 6.15235L6.78511 6.64454L6.63042 6.1629C6.63042 6.1629 6.11011 6.14532 6.11011 6.15587C6.11011 6.16641 6.52144 5.83946 6.52144 5.83946L6.33511 5.30508C6.34214 5.32266 6.78511 5.63555 6.78511 5.63555C6.78511 5.63555 7.23511 5.31915 7.22808 5.31915C7.22105 5.31915 7.05933 5.83946 7.05933 5.83946L7.46011 6.14532L6.95737 6.15587V6.15235Z" fill="#FFE700"/>
<path fill-rule="evenodd" clip-rule="evenodd" d="M6.88359 6.07501L6.78516 6.35626L6.69727 6.07852C6.69727 6.07852 6.39844 6.06798 6.39844 6.07501C6.39844 6.08204 6.63398 5.89219 6.63398 5.89219L6.52852 5.58633C6.52852 5.59337 6.78516 5.77618 6.78516 5.77618L7.0418 5.59337L6.94336 5.89219L7.17539 6.06798L6.88359 6.07501Z" fill="#108C00"/>
<path d="M9.86463 11.4664C9.99962 11.4482 10.0616 10.8672 10.0031 10.1689C9.94451 9.47057 9.78762 8.91929 9.65263 8.93757C9.51764 8.95585 9.45566 9.53678 9.51421 10.2351C9.57275 10.9334 9.72964 11.4847 9.86463 11.4664Z" fill="#009200" stroke="black" stroke-width="0.0334462"/>
<path d="M10.1278 11.4626C10.2708 11.4433 10.3382 10.8618 10.2782 10.1638C10.2182 9.46587 10.0537 8.91572 9.91061 8.93504C9.76757 8.95437 9.70023 9.53585 9.76021 10.2338C9.82018 10.9318 9.98476 11.4819 10.1278 11.4626Z" fill="#009200" stroke="black" stroke-width="0.034397"/>
<path d="M10.0112 11.6682C10.1246 11.6527 10.166 11.0137 10.1036 10.2409C10.0412 9.46806 9.89858 8.85412 9.78513 8.86961C9.67168 8.88509 9.63032 9.52414 9.69274 10.297C9.75517 11.0698 9.89774 11.6837 10.0112 11.6682Z" fill="#009200" stroke="black" stroke-width="0.0323565"/>
<path fill-rule="evenodd" clip-rule="evenodd" d="M7.87295 10.8716C8.09391 10.8616 7.99824 10.7433 8.10981 10.6802C8.22138 10.6171 8.37957 10.6585 8.4274 10.7372C8.4745 10.8158 8.43626 10.8932 8.49806 10.8941C8.55913 10.895 10.2252 10.8208 10.285 10.8864C10.3456 10.952 10.355 11.0823 10.2929 11.1329C10.2309 11.1834 8.12414 11.2129 8.05154 11.1596C7.97893 11.1071 7.87271 10.8841 7.87295 10.8716Z" fill="#A95600" stroke="black" stroke-width="0.0336608"/>
<path fill-rule="evenodd" clip-rule="evenodd" d="M9.05345 11.0395C9.04908 11.2071 9.29621 11.1593 9.29903 11.2993C9.29139 11.4475 8.8852 11.3084 8.88203 11.0372C8.89935 10.766 9.29702 10.6322 9.30214 10.7873C9.30527 10.9156 9.05728 10.872 9.05291 11.0395L9.05345 11.0395Z" fill="#FFFF00" stroke="black" stroke-width="0.0329517"/>
<path fill-rule="evenodd" clip-rule="evenodd" d="M9.1992 11.0432C9.19483 11.2107 9.44196 11.163 9.44478 11.303C9.43714 11.4512 9.03095 11.312 9.02778 11.0409C9.0451 10.7696 9.44277 10.6359 9.44789 10.791C9.45102 10.9192 9.20303 10.8757 9.19866 11.0432L9.1992 11.0432Z" fill="#FFFF00" stroke="black" stroke-width="0.0329517"/>
<path fill-rule="evenodd" clip-rule="evenodd" d="M9.35581 11.0359C9.35144 11.2035 9.59858 11.1557 9.6014 11.2957C9.59376 11.4439 9.18757 11.3047 9.1844 11.0336C9.20172 10.7623 9.59939 10.6286 9.60451 10.7837C9.60764 10.9119 9.35965 10.8684 9.35528 11.0359L9.35581 11.0359Z" fill="#FFFF00" stroke="black" stroke-width="0.0329517"/>
<path fill-rule="evenodd" clip-rule="evenodd" d="M9.50144 11.0359C9.49707 11.2035 9.74421 11.1557 9.74703 11.2957C9.73939 11.4439 9.3332 11.3047 9.33003 11.0336C9.34735 10.7623 9.74502 10.6286 9.75014 10.7837C9.75327 10.9119 9.50528 10.8684 9.50091 11.0359L9.50144 11.0359Z" fill="#FFFF00" stroke="black" stroke-width="0.0329517"/>
<path d="M10.204 11.1436C10.281 11.1447 10.3449 11.0817 10.3465 11.0028C10.3482 10.9238 10.287 10.8589 10.2099 10.8578C10.1328 10.8567 10.069 10.9198 10.0673 10.9987C10.0657 11.0776 10.1269 11.1425 10.204 11.1436Z" fill="#A95600" stroke="black" stroke-width="0.0291192"/>
<path d="M9.39469 10.7986C9.46049 10.7864 9.49813 10.655 9.47877 10.5049C9.4594 10.3549 9.39037 10.243 9.32458 10.2552C9.25878 10.2673 9.22114 10.3987 9.2405 10.5488C9.25986 10.6989 9.3289 10.8107 9.39469 10.7986Z" fill="#009200" stroke="black" stroke-width="0.0370378"/>
<path d="M9.18046 10.7801C9.24625 10.768 9.28389 10.6365 9.26453 10.4864C9.24517 10.3364 9.17614 10.2245 9.11034 10.2367C9.04455 10.2488 9.00691 10.3803 9.02627 10.5303C9.04563 10.6804 9.11466 10.7922 9.18046 10.7801Z" fill="#009200" stroke="black" stroke-width="0.0370378"/>
<path d="M9.02824 10.5063C9.09403 10.4942 9.13167 10.3627 9.11231 10.2127C9.09295 10.0626 9.02392 9.95081 8.95812 9.96292C8.89233 9.97504 8.85468 10.1065 8.87405 10.2566C8.89341 10.4066 8.96244 10.5184 9.02824 10.5063Z" fill="#009200" stroke="black" stroke-width="0.0370378"/>
<path d="M9.25457 10.5203C9.31762 10.5077 9.35158 10.3629 9.33044 10.1968C9.30929 10.0308 9.24104 9.90639 9.178 9.91901C9.11495 9.93163 9.08098 10.0765 9.10213 10.2425C9.12327 10.4086 9.19152 10.5329 9.25457 10.5203Z" fill="#009200" stroke="black" stroke-width="0.0382346"/>
<path d="M9.55087 10.52C9.61413 10.5082 9.64926 10.3726 9.62933 10.2172C9.6094 10.0618 9.54196 9.94532 9.47869 9.95712C9.41542 9.96892 9.38029 10.1045 9.40023 10.2599C9.42016 10.4153 9.4876 10.5318 9.55087 10.52Z" fill="#009200" stroke="black" stroke-width="0.0369934"/>
<path d="M9.38693 10.4195C9.45019 10.4077 9.48532 10.2721 9.46539 10.1167C9.44546 9.96126 9.37802 9.84483 9.31475 9.85663C9.25148 9.86843 9.21635 10.004 9.23628 10.1594C9.25622 10.3148 9.32366 10.4313 9.38693 10.4195Z" fill="#009200" stroke="black" stroke-width="0.0369934"/>
<path d="M9.18197 10.2756C9.24524 10.2638 9.28037 10.1282 9.26044 9.9728C9.2405 9.81737 9.17306 9.70094 9.10979 9.71274C9.04653 9.72454 9.0114 9.8601 9.03133 10.0155C9.05126 10.171 9.11871 10.2874 9.18197 10.2756Z" fill="#009200" stroke="black" stroke-width="0.0369934"/>
<path d="M8.99044 10.1925C9.05371 10.1807 9.08884 10.0452 9.06891 9.88973C9.04898 9.7343 8.98153 9.61787 8.91826 9.62967C8.855 9.64147 8.81987 9.77703 8.8398 9.93246C8.85973 10.0879 8.92718 10.2043 8.99044 10.1925Z" fill="#009200" stroke="black" stroke-width="0.0369934"/>
<path fill-rule="evenodd" clip-rule="evenodd" d="M8.74751 7.53562C8.74751 7.53562 8.32719 7.90266 8.38205 8.89489C8.44388 9.89315 9.32926 10.3618 9.32926 10.3618C9.32926 10.3618 9.552 10.0778 9.51942 9.27663C9.4473 8.10312 9.0273 7.5862 9.0273 7.5862L8.74816 7.53574L8.74751 7.53562Z" fill="#804BFF" stroke="black" stroke-width="0.0294852"/>
<path d="M9.68144 10.8393C9.74834 10.8429 9.81361 10.7236 9.82723 10.5728C9.84084 10.422 9.79765 10.2968 9.73075 10.2932C9.66385 10.2896 9.59858 10.4089 9.58496 10.5596C9.57134 10.7104 9.61454 10.8356 9.68144 10.8393Z" fill="#009200" stroke="black" stroke-width="0.0370378"/>
<path d="M9.47404 10.7827C9.54094 10.7864 9.60621 10.6671 9.61983 10.5163C9.63345 10.3655 9.59025 10.2403 9.52335 10.2367C9.45645 10.233 9.39118 10.3523 9.37756 10.5031C9.36395 10.6539 9.40714 10.7791 9.47404 10.7827Z" fill="#009200" stroke="black" stroke-width="0.0370378"/>
<path d="M9.37309 10.4862C9.43999 10.4898 9.50526 10.3705 9.51888 10.2197C9.53249 10.0689 9.4893 9.94375 9.4224 9.94011C9.3555 9.93648 9.29023 10.0558 9.27661 10.2066C9.26299 10.3573 9.30619 10.4825 9.37309 10.4862Z" fill="#009200" stroke="black" stroke-width="0.0370378"/>
<path d="M9.59277 10.5403C9.65707 10.5429 9.72139 10.4097 9.73642 10.2429C9.75145 10.0761 9.7115 9.93886 9.6472 9.93631C9.58289 9.93377 9.51858 10.0669 9.50355 10.2337C9.48852 10.4005 9.52846 10.5378 9.59277 10.5403Z" fill="#009200" stroke="black" stroke-width="0.0382346"/>
<path d="M9.88477 10.5931C9.94913 10.5964 10.0127 10.4726 10.0268 10.3164C10.0409 10.1603 10.0001 10.0309 9.93574 10.0275C9.87139 10.0242 9.8078 10.148 9.79373 10.3042C9.77965 10.4603 9.82042 10.5897 9.88477 10.5931Z" fill="#009200" stroke="black" stroke-width="0.0369934"/>
<path d="M9.74146 10.4649C9.80582 10.4682 9.8694 10.3444 9.88348 10.1882C9.89755 10.0321 9.85679 9.90272 9.79243 9.89934C9.72808 9.89596 9.66449 10.0198 9.65042 10.176C9.63634 10.3321 9.67711 10.4615 9.74146 10.4649Z" fill="#009200" stroke="black" stroke-width="0.0369934"/>
<path d="M9.56544 10.2866C9.6298 10.29 9.69338 10.1661 9.70745 10.01C9.72153 9.8538 9.68077 9.72447 9.61641 9.72109C9.55205 9.71771 9.48847 9.84156 9.47439 9.99772C9.46032 10.1539 9.50108 10.2832 9.56544 10.2866Z" fill="#009200" stroke="black" stroke-width="0.0369934"/>
<path d="M9.39198 10.1706C9.45633 10.174 9.51992 10.0502 9.53399 9.89399C9.54807 9.73783 9.5073 9.6085 9.44295 9.60512C9.37859 9.60174 9.31501 9.72559 9.30093 9.88175C9.28686 10.0379 9.32762 10.1673 9.39198 10.1706Z" fill="#009200" stroke="black" stroke-width="0.0369934"/>
<path d="M10.0694 10.2619C10.2535 10.1916 10.2082 9.68442 9.96805 9.1292C9.72796 8.57398 9.38407 8.18093 9.19995 8.25129C9.01583 8.32165 9.06121 8.82879 9.30131 9.38401C9.5414 9.93923 9.8853 10.3323 10.0694 10.2619Z" fill="#C90000" stroke="black" stroke-width="0.0142126"/>
<path d="M9.36616 8.35769C9.45154 8.35967 9.52217 8.30004 9.52391 8.2245C9.52566 8.14897 9.45786 8.08613 9.37249 8.08415C9.28711 8.08217 9.21648 8.1418 9.21473 8.21734C9.21298 8.29287 9.28078 8.35571 9.36616 8.35769Z" fill="#009200" stroke="black" stroke-width="0.0330418"/>
<path d="M9.48834 8.15956C9.56481 8.16134 9.62822 8.1015 9.62997 8.02592C9.63172 7.95033 9.57114 7.88762 9.49467 7.88584C9.41819 7.88407 9.35478 7.9439 9.35304 8.01949C9.35129 8.09507 9.41187 8.15778 9.48834 8.15956Z" fill="#009200" stroke="black" stroke-width="0.0333653"/>
<path d="M9.29901 8.15623C9.37548 8.15801 9.43889 8.09818 9.44064 8.02259C9.44239 7.94701 9.38181 7.88429 9.30534 7.88252C9.22886 7.88074 9.16545 7.94058 9.16371 8.01616C9.16196 8.09175 9.22254 8.15446 9.29901 8.15623Z" fill="#009200" stroke="black" stroke-width="0.0333653"/>
<path d="M9.33772 8.00555C9.41769 8.0074 9.48385 7.95143 9.48549 7.88054C9.48713 7.80964 9.42363 7.75066 9.34366 7.74881C9.26368 7.74696 9.19752 7.80293 9.19588 7.87382C9.19424 7.94472 9.25775 8.0037 9.33772 8.00555Z" fill="#009200" stroke="black" stroke-width="0.0330466"/>
<path d="M9.32234 7.84137C9.40231 7.84322 9.46847 7.78725 9.47011 7.71635C9.47175 7.64546 9.40825 7.58648 9.32828 7.58463C9.2483 7.58277 9.18214 7.63874 9.1805 7.70964C9.17886 7.78053 9.24236 7.83951 9.32234 7.84137Z" fill="#009200" stroke="black" stroke-width="0.0330466"/>
<path d="M9.11871 8.0511C9.19518 8.05288 9.25859 7.99304 9.26034 7.91746C9.26209 7.84187 9.20151 7.77916 9.12504 7.77738C9.04857 7.77561 8.98516 7.83544 8.98341 7.91103C8.98166 7.98661 9.04224 8.04933 9.11871 8.0511Z" fill="#009200" stroke="black" stroke-width="0.0333653"/>
<path d="M9.15829 7.86898C9.23477 7.87076 9.29815 7.81218 9.29987 7.73816C9.30158 7.66413 9.24096 7.60268 9.16448 7.6009C9.088 7.59913 9.02461 7.6577 9.0229 7.73173C9.02119 7.80575 9.0818 7.86721 9.15829 7.86898Z" fill="#009200" stroke="black" stroke-width="0.0330219"/>
<path d="M8.93025 7.87652C9.01562 7.8785 9.08625 7.81887 9.088 7.74333C9.08975 7.6678 9.02195 7.60496 8.93657 7.60298C8.8512 7.601 8.78057 7.66063 8.77882 7.73617C8.77707 7.8117 8.84487 7.87454 8.93025 7.87652Z" fill="#009200" stroke="black" stroke-width="0.0330418"/>
<path d="M9.21663 7.63916C9.2966 7.64101 9.36276 7.58504 9.3644 7.51414C9.36604 7.44325 9.30254 7.38427 9.22256 7.38242C9.14259 7.38056 9.07643 7.43653 9.07479 7.50743C9.07315 7.57832 9.13665 7.6373 9.21663 7.63916Z" fill="#009200" stroke="black" stroke-width="0.0330466"/>
<path d="M9.0234 7.66992C9.09988 7.67169 9.16327 7.61312 9.16498 7.53909C9.16669 7.46506 9.10608 7.40361 9.02959 7.40184C8.95311 7.40006 8.88973 7.45863 8.88801 7.53266C8.8863 7.60669 8.94692 7.66814 9.0234 7.66992Z" fill="#009200" stroke="black" stroke-width="0.0330219"/>
<path d="M8.72455 7.88396C8.80102 7.88573 8.86443 7.8259 8.86618 7.75031C8.86792 7.67473 8.80735 7.61202 8.73087 7.61024C8.6544 7.60846 8.59099 7.6683 8.58924 7.74388C8.5875 7.81947 8.64807 7.88218 8.72455 7.88396Z" fill="#009200" stroke="black" stroke-width="0.0333653"/>
<path d="M8.77376 7.7785C8.85025 7.78027 8.91363 7.7217 8.91534 7.64767C8.91706 7.57364 8.85644 7.51219 8.77996 7.51042C8.70348 7.50864 8.64009 7.56721 8.63838 7.64124C8.63667 7.71527 8.69728 7.77672 8.77376 7.7785Z" fill="#009200" stroke="black" stroke-width="0.0330219"/>
<path d="M8.83394 7.66662C8.91043 7.66839 8.97381 7.60982 8.97552 7.53579C8.97724 7.46177 8.91662 7.40031 8.84014 7.39854C8.76366 7.39676 8.70027 7.45534 8.69856 7.52936C8.69685 7.60339 8.75746 7.66484 8.83394 7.66662Z" fill="#009200" stroke="black" stroke-width="0.0330219"/>
<path d="M10.2537 10.2585C10.4877 10.1723 10.4447 9.56835 10.1575 8.90941C9.87039 8.25046 9.44788 7.78609 9.21383 7.87221C8.97978 7.95833 9.02282 8.56232 9.30996 9.22126C9.5971 9.88021 10.0196 10.3446 10.2537 10.2585Z" fill="#009200" stroke="black" stroke-width="0.0290604"/>
<path d="M10.2187 9.52478C10.262 9.50347 10.2466 9.3749 10.1845 9.23761C10.1223 9.10033 10.0368 9.00632 9.99352 9.02763C9.95024 9.04895 9.96557 9.17751 10.0277 9.3148C10.0899 9.45208 10.1754 9.54609 10.2187 9.52478Z" fill="#009200" stroke="black" stroke-width="0.0295515"/>
<path fill-rule="evenodd" clip-rule="evenodd" d="M10.0637 9.27422C10.4355 9.72189 10.39 10.0096 10.3526 10.2526C10.2347 9.97388 10.1722 9.79844 9.80046 9.35077C9.42872 8.9031 9.61045 8.58442 9.63448 8.41657C9.69089 8.56103 9.69198 8.82655 10.0637 9.27422Z" fill="#009200" stroke="black" stroke-width="0.0302711"/>
<path fill-rule="evenodd" clip-rule="evenodd" d="M10.0972 9.63738C10.4689 10.085 10.4234 10.3728 10.3861 10.6158C10.2681 10.337 10.2057 10.1616 9.83391 9.71393C9.46217 9.26626 9.64389 8.94758 9.66793 8.77973C9.72434 8.92419 9.72543 9.18971 10.0972 9.63738Z" fill="#009200" stroke="black" stroke-width="0.0302711"/>
<path fill-rule="evenodd" clip-rule="evenodd" d="M10.1108 9.93004C10.4918 10.3697 10.4522 10.6583 10.4198 10.9021C10.2961 10.6259 10.23 10.4519 9.84902 10.0123C9.46801 9.57264 9.64323 9.25008 9.66383 9.08173C9.72321 9.22496 9.72975 9.49043 10.1108 9.93004Z" fill="#009200" stroke="black" stroke-width="0.0302704"/>
<path d="M10.049 9.29561C10.1349 9.27257 10.1156 9.05564 10.0059 8.8111C9.89631 8.56655 9.73782 8.38699 9.65195 8.41003C9.56607 8.43307 9.58534 8.65 9.69498 8.89454C9.80461 9.13909 9.96311 9.31865 10.049 9.29561Z" fill="#009200" stroke="black" stroke-width="0.0300027"/>
<path d="M9.85764 9.47216C9.93496 9.45787 9.92852 9.28215 9.84327 9.07968C9.75802 8.8772 9.62624 8.72465 9.54892 8.73893C9.47161 8.75322 9.47804 8.92894 9.5633 9.13141C9.64855 9.33389 9.78033 9.48644 9.85764 9.47216Z" fill="#009200" stroke="black" stroke-width="0.0292116"/>
<path d="M9.67179 9.64126C9.74932 9.6286 9.74649 9.45288 9.66547 9.24876C9.58446 9.04465 9.45594 8.88944 9.37841 8.9021C9.30088 8.91476 9.30371 9.09048 9.38473 9.2946C9.46574 9.49871 9.59427 9.65392 9.67179 9.64126Z" fill="#009200" stroke="black" stroke-width="0.0292003"/>
<path d="M9.80684 8.93209C9.86935 8.91984 9.86062 8.78764 9.78733 8.63682C9.71403 8.48599 9.60394 8.37365 9.54142 8.3859C9.4789 8.39815 9.48764 8.53035 9.56093 8.68118C9.63422 8.832 9.74432 8.94434 9.80684 8.93209Z" fill="#009200" stroke="black" stroke-width="0.0301405"/>
<path d="M9.63518 9.05423C9.69832 9.04543 9.69802 8.91297 9.63451 8.75838C9.571 8.60378 9.46834 8.48559 9.40521 8.49439C9.34207 8.50318 9.34238 8.63564 9.40588 8.79024C9.46939 8.94483 9.57205 9.06303 9.63518 9.05423Z" fill="#009200" stroke="black" stroke-width="0.0301198"/>
<path fill-rule="evenodd" clip-rule="evenodd" d="M9.40181 8.59605C9.51222 8.8618 9.55778 9.10144 9.50319 9.13108C9.44859 9.16071 9.31488 8.9689 9.20447 8.70316" fill="#009200"/>
<path d="M9.40181 8.59605C9.51222 8.8618 9.55778 9.10144 9.50319 9.13108C9.44859 9.16071 9.31488 8.9689 9.20447 8.70316" stroke="black" stroke-width="0.0297991"/>
<path d="M9.61797 8.74054C9.68111 8.73174 9.68081 8.59928 9.6173 8.44469C9.55379 8.29009 9.45113 8.1719 9.388 8.18069C9.32486 8.18949 9.32516 8.32195 9.38867 8.47655C9.45218 8.63114 9.55484 8.74934 9.61797 8.74054Z" fill="#009200" stroke="black" stroke-width="0.0301198"/>
<path d="M9.43503 8.82872C9.49837 8.82115 9.50096 8.68876 9.44082 8.533C9.38067 8.37725 9.28057 8.25712 9.21723 8.26468C9.15389 8.27225 9.1513 8.40464 9.21144 8.5604C9.27159 8.71615 9.37169 8.83628 9.43503 8.82872Z" fill="#009200" stroke="black" stroke-width="0.0301228"/>
<path fill-rule="evenodd" clip-rule="evenodd" d="M9.21759 8.23818C9.32485 8.41786 9.38317 8.58615 9.34756 8.61394C9.31194 8.64173 9.19613 8.5183 9.08887 8.33862" fill="#009200"/>
<path d="M9.21759 8.23818C9.32485 8.41786 9.38317 8.58615 9.34756 8.61394C9.31194 8.64173 9.19613 8.5183 9.08887 8.33862" stroke="black" stroke-width="0.0298764"/>
<path fill-rule="evenodd" clip-rule="evenodd" d="M9.29108 8.11816C9.39834 8.29784 9.45666 8.46612 9.42104 8.49391C9.38543 8.5217 9.26961 8.39828 9.16235 8.2186" fill="#009200"/>
<path d="M9.29108 8.11816C9.39834 8.29784 9.45666 8.46612 9.42104 8.49391C9.38543 8.5217 9.26961 8.39828 9.16235 8.2186" stroke="black" stroke-width="0.0298764"/>
<path fill-rule="evenodd" clip-rule="evenodd" d="M9.61794 8.14001C9.76704 8.38518 9.84798 8.61488 9.79829 8.65289C9.74861 8.6909 9.58746 8.52257 9.43835 8.2774" fill="#009200"/>
<path d="M9.61794 8.14001C9.76704 8.38518 9.84798 8.61488 9.79829 8.65289C9.74861 8.6909 9.58746 8.52257 9.43835 8.2774" stroke="black" stroke-width="0.0298143"/>
<path fill-rule="evenodd" clip-rule="evenodd" d="M9.40341 8.00693C9.51114 8.20493 9.56991 8.39027 9.53439 8.42074C9.49887 8.45121 9.38275 8.31507 9.27502 8.11707" fill="#009200"/>
<path d="M9.40341 8.00693C9.51114 8.20493 9.56991 8.39027 9.53439 8.42074C9.49887 8.45121 9.38275 8.31507 9.27502 8.11707" stroke="black" stroke-width="0.0293814"/>
<path fill-rule="evenodd" clip-rule="evenodd" d="M9.39066 7.7309C9.31943 7.80315 9.38926 7.93751 9.45437 7.98554C9.52711 8.05196 9.93794 8.48456 10.2271 8.11863C9.99512 8.11478 9.56183 7.57045 9.39066 7.7309Z" fill="#804BFF" stroke="black" stroke-width="0.0303449"/>
<path fill-rule="evenodd" clip-rule="evenodd" d="M9.33964 7.51602C9.26841 7.58828 9.33824 7.72264 9.40334 7.77067C9.47609 7.83708 9.88691 8.26969 10.176 7.90376C9.94409 7.89991 9.5108 7.35557 9.33964 7.51602Z" fill="#804BFF" stroke="black" stroke-width="0.0303449"/>
<path fill-rule="evenodd" clip-rule="evenodd" d="M9.27408 7.31204C9.20286 7.3843 9.27268 7.51866 9.33779 7.56669C9.41053 7.6331 9.82136 8.06571 10.1105 7.69978C9.87854 7.69593 9.44525 7.15159 9.27408 7.31204Z" fill="#804BFF" stroke="black" stroke-width="0.0303449"/>
<path fill-rule="evenodd" clip-rule="evenodd" d="M9.13212 7.07895C9.06089 7.15121 9.13072 7.28556 9.19582 7.33359C9.26857 7.40001 9.67939 7.83262 9.96851 7.46668C9.73657 7.46284 9.30328 6.9185 9.13212 7.07895Z" fill="#804BFF" stroke="black" stroke-width="0.0303449"/>
<path fill-rule="evenodd" clip-rule="evenodd" d="M8.62201 6.83821C8.77032 6.73059 9.04237 6.70032 9.25291 6.81012C9.42874 6.89811 9.71886 7.25143 9.93873 7.3362C9.88016 7.34883 9.81915 7.3512 9.7593 7.34318C9.69944 7.33516 9.64195 7.3169 9.59022 7.28949C9.39272 7.4295 9.32302 7.44943 9.12211 7.47609C8.84438 7.51283 8.61423 7.43876 8.53541 7.29383C8.45292 7.15711 8.49048 6.93889 8.62201 6.83821Z" fill="#804BFF" stroke="black" stroke-width="0.0322817"/>
<path d="M8.92188 7.12572C8.99163 7.12733 9.04892 7.09617 9.04985 7.05613C9.05078 7.01609 8.99499 6.98233 8.92524 6.98072C8.85549 6.97912 8.7982 7.01027 8.79727 7.05031C8.79634 7.09035 8.85213 7.12412 8.92188 7.12572Z" fill="#FF0000" stroke="black" stroke-width="0.0293302"/>
<path d="M8.58783 7.46242C8.67967 7.42878 8.73754 7.35604 8.71708 7.29995C8.69661 7.24385 8.60557 7.22565 8.51372 7.25929C8.42187 7.29292 8.364 7.36566 8.38447 7.42176C8.40493 7.47785 8.49598 7.49605 8.58783 7.46242Z" fill="#FFFF00" stroke="black" stroke-width="0.0318569"/>
<path d="M8.91868 7.09159C8.94352 7.09217 8.96406 7.07526 8.96456 7.05382C8.96505 7.03237 8.94532 7.01453 8.92047 7.01395C8.89563 7.01338 8.87509 7.03029 8.87459 7.05173C8.87409 7.07317 8.89383 7.09102 8.91868 7.09159Z" fill="black"/>
<path fill-rule="evenodd" clip-rule="evenodd" d="M8.64845 7.14288C8.65986 7.19867 8.61844 7.27482 8.5289 7.30235C8.43738 7.34093 8.36805 7.42754 8.32782 7.56911C8.18934 7.24755 8.27794 7.11049 8.42512 7.07691C8.55212 7.03545 8.62845 7.04031 8.64845 7.14288Z" fill="#FFFF00" stroke="black" stroke-width="0.0378026"/>
<path d="M8.51622 7.19491C8.53403 7.19409 8.54773 7.17876 8.54682 7.16068C8.54592 7.14259 8.53075 7.12859 8.51295 7.12941C8.49515 7.13023 8.48145 7.14555 8.48235 7.16364C8.48325 7.18172 8.49842 7.19572 8.51622 7.19491Z" fill="black"/>
</g>
</g>
<defs>
<clipPath id="clip0_14_1232">
<rect width="18" height="18" rx="9" fill="white"/>
</clipPath>
</defs>
</svg>
