<svg width="18" height="18" viewBox="0 0 18 18" fill="none" xmlns="http://www.w3.org/2000/svg">
<g clip-path="url(#clip0_8201_10331)">
<path d="M9 18C13.9706 18 18 13.9706 18 9C18 4.02944 13.9706 0 9 0C4.02944 0 0 4.02944 0 9C0 13.9706 4.02944 18 9 18Z" fill="#F0F0F0"/>
<path d="M0.310059 11.3479C1.14108 14.4312 3.56887 16.859 6.65221 17.6901V11.3479H0.310059Z" fill="#D80027"/>
<path d="M6.65218 0.310059C3.56887 1.14105 1.14105 3.56887 0.310059 6.65218H6.65221V0.310059H6.65218Z" fill="#0052B4"/>
<path d="M17.6898 6.65218C16.8588 3.56887 14.431 1.14105 11.3477 0.310059V6.65221H17.6898V6.65218Z" fill="#D80027"/>
<path d="M11.3477 17.6899C14.431 16.8589 16.8588 14.4311 17.6898 11.3478H11.3477V17.6899Z" fill="#0052B4"/>
<path d="M11.348 8.99994C11.348 10.2966 10.2969 11.3478 9.00018 11.3478C7.70352 11.3478 6.65234 10.2966 6.65234 8.99994C6.65234 7.70324 9.00018 6.6521 9.00018 6.6521C9.00018 6.6521 11.348 7.70324 11.348 8.99994Z" fill="#496E2D"/>
<path d="M6.65234 8.99994C6.65234 7.70324 7.70352 6.6521 9.00018 6.6521C10.2969 6.6521 11.348 7.70324 11.348 8.99994" fill="#0052B4"/>
<path d="M7.6792 7.82605V9.29344C7.6792 10.0228 8.27046 10.6141 8.99984 10.6141C9.72923 10.6141 10.3205 10.0228 10.3205 9.29344V7.82605H7.6792Z" fill="#D80027"/>
</g>
<defs>
<clipPath id="clip0_8201_10331">
<rect width="18" height="18" fill="white"/>
</clipPath>
</defs>
</svg>
