<svg width="18" height="18" viewBox="0 0 18 18" fill="none" xmlns="http://www.w3.org/2000/svg">
<g clip-path="url(#clip0_14_1230)">
<path d="M9 0H18V18H9V0Z" fill="white"/>
<path d="M0 0H9V18H0V0Z" fill="#006233"/>
<path d="M12.9024 6.75C12.4071 5.89211 11.6425 5.22163 10.7273 4.84254C9.81213 4.46346 8.79741 4.39695 7.84056 4.65334C6.88371 4.90972 6.0382 5.47468 5.43516 6.26058C4.83212 7.04647 4.50525 8.0094 4.50525 9C4.50525 9.99061 4.83212 10.9535 5.43516 11.7394C6.0382 12.5253 6.88371 13.0903 7.84056 13.3467C8.79741 13.6031 9.81213 13.5365 10.7273 13.1575C11.6425 12.7784 12.4071 12.1079 12.9024 11.25C12.4362 11.8322 11.8007 12.2553 11.0837 12.4607C10.3667 12.6662 9.60359 12.6439 8.89983 12.3968C8.19606 12.1498 7.5864 11.6903 7.15509 11.0818C6.72378 10.4733 6.49211 9.74586 6.49211 9C6.49211 8.25415 6.72378 7.5267 7.15509 6.9182C7.5864 6.3097 8.19606 5.85019 8.89983 5.60317C9.60359 5.35615 10.3667 5.33382 11.0837 5.53926C11.8007 5.7447 12.4362 6.16777 12.9024 6.75ZM13.05 9L9.00002 7.67813L11.5207 11.1305V6.86953L9.00002 10.3219L13.05 9Z" fill="#D21034"/>
</g>
<defs>
<clipPath id="clip0_14_1230">
<rect width="18" height="18" rx="9" fill="white"/>
</clipPath>
</defs>
</svg>
