<svg width="18" height="18" viewBox="0 0 18 18" fill="none" xmlns="http://www.w3.org/2000/svg">
<g clip-path="url(#clip0_8201_9719)">
<path d="M9.00007 0C13.9706 0 18.0001 4.02947 18.0001 9C18.0001 13.9705 13.9706 18 9.00007 18C9.00007 17.6087 7.82617 9 7.82617 9L9.00007 0Z" fill="#F0F0F0"/>
<path d="M9 18C4.02947 18 0 13.9705 0 9C0 4.02947 4.02947 0 9 0" fill="#496E2D"/>
<path d="M10.9334 7.27368L10.1949 8.29128L8.99902 7.90344L9.73864 8.92015L9.00029 9.93775L10.1957 9.54854L10.9354 10.5652L10.9346 9.308L12.1301 8.91875L10.9342 8.53097L10.9334 7.27368Z" fill="#D80027"/>
<path d="M9.74637 11.5434C8.34167 11.5434 7.20289 10.4047 7.20289 8.99996C7.20289 7.59526 8.34167 6.45648 9.74637 6.45648C10.1843 6.45648 10.5965 6.56722 10.9563 6.76219C10.3918 6.21021 9.61991 5.86951 8.76811 5.86951C7.0392 5.86951 5.6377 7.27105 5.6377 8.99992C5.6377 10.7288 7.03923 12.1303 8.76811 12.1303C9.61995 12.1303 10.3918 11.7896 10.9563 11.2377C10.5965 11.4327 10.1843 11.5434 9.74637 11.5434Z" fill="#D80027"/>
</g>
<defs>
<clipPath id="clip0_8201_9719">
<rect width="18" height="18" fill="white"/>
</clipPath>
</defs>
</svg>
