<svg width="18" height="18" viewBox="0 0 18 18" fill="none" xmlns="http://www.w3.org/2000/svg">
<g clip-path="url(#clip0_8201_10345)">
<path d="M0 9C0 4.02947 4.02947 0 9 0C13.9705 0 18 4.02947 18 9L9 9.78261L0 9Z" fill="#FFDA44"/>
<path d="M1.2041 13.5001C2.76029 16.1901 5.66856 18.0001 8.99979 18.0001C12.331 18.0001 15.2393 16.1901 16.7955 13.5001L8.99979 12.9131L1.2041 13.5001Z" fill="#D80027"/>
<path d="M16.7957 13.5C17.5615 12.1762 18 10.6394 18 9H0C0 10.6394 0.438539 12.1762 1.20431 13.5H16.7957Z" fill="#0052B4"/>
<path d="M9.00005 12.1305C10.7289 12.1305 12.1305 10.7289 12.1305 9.00005C12.1305 7.27116 10.7289 5.86963 9.00005 5.86963C7.27116 5.86963 5.86963 7.27116 5.86963 9.00005C5.86963 10.7289 7.27116 12.1305 9.00005 12.1305Z" fill="#FFDA44"/>
<path d="M8.99997 10.9566C7.92113 10.9566 7.04346 10.0789 7.04346 9.00005V7.82614C7.04346 6.7473 7.92117 5.86963 8.99997 5.86963C10.0788 5.86963 10.9565 6.74734 10.9565 7.82614V9.00005C10.9565 10.0789 10.0788 10.9566 8.99997 10.9566Z" fill="#338AF3"/>
<path d="M12.1305 4.30434H9.7827C9.7827 3.87213 9.43229 3.52173 9.00008 3.52173C8.56787 3.52173 8.21747 3.87213 8.21747 4.30434H5.86963C5.86963 4.73659 6.24612 5.08695 6.67829 5.08695H6.65224C6.65224 5.5192 7.00261 5.86957 7.43486 5.86957C7.43486 6.30181 7.78522 6.65218 8.21747 6.65218H9.7827C10.2149 6.65218 10.5653 6.30181 10.5653 5.86957C10.9976 5.86957 11.3479 5.5192 11.3479 5.08695H11.3219C11.7541 5.08695 12.1305 4.73655 12.1305 4.30434Z" fill="black"/>
</g>
<defs>
<clipPath id="clip0_8201_10345">
<rect width="18" height="18" fill="white"/>
</clipPath>
</defs>
</svg>
