<svg width="18" height="18" viewBox="0 0 18 18" fill="none" xmlns="http://www.w3.org/2000/svg">
<g clip-path="url(#clip0_14_1339)">
<path fill-rule="evenodd" clip-rule="evenodd" d="M0 0H18V18H0V0Z" fill="#FFE800"/>
<path fill-rule="evenodd" clip-rule="evenodd" d="M0 9H18V18H0V9Z" fill="#00148E"/>
<path fill-rule="evenodd" clip-rule="evenodd" d="M0 13.5H18V18H0V13.5Z" fill="#DA0010"/>
<path fill-rule="evenodd" clip-rule="evenodd" d="M7.50581 8.58516L5.58276 10.6137L5.54761 10.5715L7.47065 8.53946L7.50581 8.58516ZM8.84175 8.91563L6.32808 11.5664L6.28589 11.5242L8.79956 8.87344L8.84526 8.91563H8.84175Z" fill="black"/>
<path fill-rule="evenodd" clip-rule="evenodd" d="M6.36646 11.569L6.15776 11.7808L5.91671 11.9615L6.09304 11.7186L6.30174 11.5068L6.36646 11.569Z" fill="#808080" stroke="black" stroke-width="0.0212649"/>
<path fill-rule="evenodd" clip-rule="evenodd" d="M5.71948 10.5319L5.51079 10.7437L5.26974 10.9244L5.44607 10.6815L5.65477 10.4697L5.71948 10.5319Z" fill="#808080" stroke="black" stroke-width="0.0212649"/>
<path fill-rule="evenodd" clip-rule="evenodd" d="M5.87495 3.94034C5.87495 3.94034 5.66338 9.69147 6.50966 9.69147C7.35594 9.69147 7.78028 9.08662 7.78028 9.08662L7.77071 5.92572L5.87495 3.94034Z" fill="#FFDF00" stroke="black" stroke-width="0.0338748"/>
<path fill-rule="evenodd" clip-rule="evenodd" d="M6.39242 4.47684C6.39242 4.77926 6.29799 9.08662 6.72113 9.08662C7.14427 9.08662 7.78017 8.7842 7.78017 8.7842L7.77061 5.92572L6.39242 4.47684Z" fill="#0000C4" stroke="black" stroke-width="0.0338748"/>
<path fill-rule="evenodd" clip-rule="evenodd" d="M6.66736 4.7673C6.66736 5.06972 6.72115 8.48179 7.14548 8.48179H7.78019L7.77063 5.92573L6.66736 4.7673Z" fill="#E10000" stroke="black" stroke-width="0.0338748"/>
<path fill-rule="evenodd" clip-rule="evenodd" d="M5.82541 3.94453L7.74495 5.97305L7.7801 5.93086L5.85706 3.90234L5.8219 3.94453H5.82541Z" fill="black"/>
<path fill-rule="evenodd" clip-rule="evenodd" d="M5.26742 5.05731C5.26742 5.05731 4.71983 10.5599 6.36261 10.5599C7.7316 10.5599 7.7316 9.69187 8.00539 9.69187L7.7316 7.66476L5.26588 5.05731H5.26742Z" fill="#FFDF00" stroke="black" stroke-width="0.0376939"/>
<path d="M6.47889 6.03406C6.4901 6.03329 6.89299 5.13842 7.88878 4.57902" stroke="black" stroke-width="0.040101"/>
<path fill-rule="evenodd" clip-rule="evenodd" d="M6.41889 5.16149C6.55888 5.2283 6.64709 5.30535 6.72717 5.39524C6.56651 5.3611 6.48358 5.34735 6.34358 5.28054C6.20359 5.21373 6.09721 5.11129 6.01269 5.0284C6.11709 5.06075 6.27812 5.0943 6.41889 5.16149Z" fill="#005B00" stroke="black" stroke-width="0.0182349"/>
<path fill-rule="evenodd" clip-rule="evenodd" d="M6.85139 5.67888C6.86082 5.69745 6.85052 5.72338 6.82788 5.73594C6.80525 5.74849 6.77917 5.74333 6.76951 5.72431C6.75986 5.70528 6.77062 5.68028 6.79326 5.66772C6.8159 5.65516 6.84197 5.66032 6.85139 5.67888Z" fill="#FF0000" stroke="black" stroke-width="0.0126907"/>
<path fill-rule="evenodd" clip-rule="evenodd" d="M7.19286 4.57912C7.13178 4.7382 7.06437 4.84318 6.98667 4.9412C7.02158 4.7644 7.03639 4.67366 7.09748 4.51458C7.15857 4.35549 7.24774 4.22759 7.31982 4.12578C7.28872 4.24204 7.25429 4.41916 7.19286 4.57912Z" fill="#005B00" stroke="black" stroke-width="0.0172815"/>
<path fill-rule="evenodd" clip-rule="evenodd" d="M7.08373 4.57854C7.0691 4.73444 7.03675 4.8553 6.9942 4.97794C6.98285 4.82657 6.97443 4.75093 6.98906 4.59503C7.0037 4.43913 7.049 4.28721 7.08599 4.16554C7.08663 4.27049 7.09845 4.42178 7.08373 4.57854Z" fill="#005B00" stroke="black" stroke-width="0.0151317"/>
<path fill-rule="evenodd" clip-rule="evenodd" d="M7.20589 4.78482C7.12317 4.87773 7.05325 4.91681 6.97962 4.94119C7.05289 4.81088 7.08875 4.74146 7.17147 4.64856C7.25419 4.55565 7.34336 4.51382 7.41497 4.48142C7.36218 4.56043 7.28907 4.69141 7.20589 4.78482Z" fill="#005B00" stroke="black" stroke-width="0.0163108"/>
<path fill-rule="evenodd" clip-rule="evenodd" d="M6.54945 5.06217C6.63854 5.17543 6.68025 5.28318 6.70989 5.40176C6.59009 5.31605 6.52666 5.27584 6.43757 5.16257C6.34849 5.04931 6.30211 4.90946 6.26588 4.79679C6.33953 4.86306 6.45987 4.94828 6.54945 5.06217Z" fill="#005B00" stroke="black" stroke-width="0.018156"/>
<path fill-rule="evenodd" clip-rule="evenodd" d="M6.24211 5.72539C6.36302 5.82275 6.42734 5.92339 6.47898 6.03719C6.32579 5.9733 6.2454 5.94467 6.1245 5.84731C6.00359 5.74995 5.92924 5.61787 5.87069 5.51125C5.96678 5.5642 6.12054 5.62749 6.24211 5.72539Z" fill="#005B00" stroke="black" stroke-width="0.0200039"/>
<path fill-rule="evenodd" clip-rule="evenodd" d="M6.79908 5.68013C6.70681 5.83285 6.60611 5.93596 6.49041 6.0335C6.54448 5.8666 6.56768 5.78122 6.65995 5.6285C6.75221 5.47578 6.88525 5.34955 6.99277 5.24898C6.94525 5.35942 6.89186 5.52657 6.79908 5.68013Z" fill="#005B00" stroke="black" stroke-width="0.0200734"/>
<path fill-rule="evenodd" clip-rule="evenodd" d="M6.95222 5.8321C6.79823 5.93837 6.66409 5.99266 6.52113 6.03474C6.65267 5.89736 6.71647 5.82505 6.87046 5.71878C7.02445 5.61252 7.19634 5.55048 7.33449 5.50174C7.23821 5.58732 7.10706 5.72525 6.95222 5.8321Z" fill="#005B00" stroke="black" stroke-width="0.0199455"/>
<path fill-rule="evenodd" clip-rule="evenodd" d="M7.96483 4.47945C7.89993 4.55772 7.84145 4.60586 7.77834 4.64889C7.83143 4.55762 7.85689 4.51038 7.9218 4.43212C7.98671 4.35385 8.06201 4.29611 8.12259 4.2503C8.08298 4.30926 8.0301 4.40075 7.96483 4.47945Z" fill="#005B00" stroke="black" stroke-width="0.00994874"/>
<path fill-rule="evenodd" clip-rule="evenodd" d="M7.89715 4.4524C7.85897 4.53512 7.81735 4.59663 7.76954 4.65783C7.79197 4.57432 7.8016 4.53226 7.83978 4.44953C7.87796 4.36681 7.93294 4.29007 7.97738 4.2287C7.95769 4.2857 7.93554 4.36922 7.89715 4.4524Z" fill="#005B00" stroke="black" stroke-width="0.00892428"/>
<path fill-rule="evenodd" clip-rule="evenodd" d="M7.95035 4.6053C7.8848 4.64475 7.83669 4.65661 7.78912 4.65995C7.85604 4.59884 7.88982 4.56586 7.95537 4.52641C8.02091 4.48696 8.08079 4.4762 8.12866 4.46821C8.08319 4.50413 8.01625 4.56563 7.95035 4.6053Z" fill="#005B00" stroke="black" stroke-width="0.00959276"/>
<path fill-rule="evenodd" clip-rule="evenodd" d="M7.08495 5.14079C6.96405 5.21397 6.86512 5.25488 6.76232 5.28907C6.87338 5.19876 6.92819 5.15157 7.04909 5.07839C7.16999 5.00522 7.2955 4.95728 7.39619 4.91943C7.3174 4.97659 7.20652 5.06721 7.08495 5.14079Z" fill="#005B00" stroke="black" stroke-width="0.0124403"/>
<path fill-rule="evenodd" clip-rule="evenodd" d="M7.47819 5.10994C7.31783 5.20539 7.1815 5.24994 7.03758 5.28149C7.17864 5.15297 7.24755 5.0849 7.4079 4.98945C7.56826 4.894 7.7423 4.84452 7.88208 4.80587C7.78015 4.88485 7.63943 5.01396 7.47819 5.10994Z" fill="#005B00" stroke="black" stroke-width="0.0199022"/>
<path d="M6.42372 6.65474C6.43401 6.64902 6.33477 5.81351 6.98283 4.94882" stroke="black" stroke-width="0.0401775"/>
<path fill-rule="evenodd" clip-rule="evenodd" d="M7.45601 4.82812C7.46543 4.84668 7.45514 4.87261 7.4325 4.88517C7.40986 4.89772 7.38379 4.89256 7.37413 4.87354C7.36447 4.85451 7.37524 4.82951 7.39787 4.81695C7.42051 4.80439 7.44659 4.80955 7.45601 4.82812Z" fill="#FF0000" stroke="black" stroke-width="0.0126907"/>
<path fill-rule="evenodd" clip-rule="evenodd" d="M7.74434 4.65935C7.75376 4.67792 7.74347 4.70385 7.72083 4.7164C7.69819 4.72896 7.67212 4.7238 7.66246 4.70478C7.6528 4.68575 7.66357 4.66075 7.6862 4.64819C7.70884 4.63563 7.73492 4.64079 7.74434 4.65935Z" fill="#FF0000" stroke="black" stroke-width="0.0126907"/>
<path fill-rule="evenodd" clip-rule="evenodd" d="M6.71918 5.16914C6.72622 5.1832 6.71349 5.20584 6.69036 5.21906C6.66722 5.23228 6.64272 5.23136 6.63551 5.21695C6.62831 5.20253 6.64138 5.1806 6.66452 5.16738C6.68765 5.15416 6.71215 5.15507 6.71918 5.16914Z" fill="#FF0000" stroke="black" stroke-width="0.011189"/>
<path fill-rule="evenodd" clip-rule="evenodd" d="M6.80012 5.13398C6.80715 5.14804 6.79442 5.17068 6.77129 5.1839C6.74816 5.19712 6.72365 5.19621 6.71645 5.18179C6.70924 5.16738 6.72232 5.14544 6.74545 5.13222C6.76858 5.119 6.79309 5.11992 6.80012 5.13398Z" fill="#FF0000" stroke="black" stroke-width="0.011189"/>
<path fill-rule="evenodd" clip-rule="evenodd" d="M6.75434 5.20783C6.76137 5.22189 6.74865 5.24454 6.72551 5.25775C6.70238 5.27097 6.67788 5.27006 6.67067 5.25564C6.66346 5.24123 6.67654 5.21929 6.69967 5.20607C6.72281 5.19286 6.74731 5.19377 6.75434 5.20783Z" fill="#FF0000" stroke="black" stroke-width="0.011189"/>
<path fill-rule="evenodd" clip-rule="evenodd" d="M7.08432 5.19117C7.09473 5.21184 7.08327 5.24063 7.05815 5.25451C7.03304 5.26839 7.00415 5.26256 6.99348 5.24137C6.98281 5.22018 6.99479 5.19242 7.01991 5.17854C7.04502 5.16466 7.07392 5.17049 7.08432 5.19117Z" fill="#FF0000" stroke="black" stroke-width="0.0140883"/>
<path fill-rule="evenodd" clip-rule="evenodd" d="M7.14414 5.13138C7.15454 5.15205 7.14308 5.18085 7.11797 5.19473C7.09285 5.20861 7.06396 5.20277 7.05329 5.18159C7.04263 5.1604 7.05461 5.13264 7.07972 5.11876C7.10484 5.10488 7.13373 5.11071 7.14414 5.13138Z" fill="#FF0000" stroke="black" stroke-width="0.0140883"/>
<path fill-rule="evenodd" clip-rule="evenodd" d="M7.15818 5.15952C7.16858 5.18019 7.15712 5.20899 7.132 5.22286C7.10689 5.23674 7.078 5.23091 7.06733 5.20972C7.05666 5.18853 7.06865 5.16078 7.09376 5.1469C7.11888 5.13302 7.14777 5.13885 7.15818 5.15952Z" fill="#FF0000" stroke="black" stroke-width="0.0140883"/>
<path fill-rule="evenodd" clip-rule="evenodd" d="M5.81494 5.63763C5.81494 5.92699 5.26735 9.11315 6.63788 9.98121C7.18547 10.2706 8.00686 9.69185 8.00686 9.98121L7.73307 7.66474L5.81494 5.63763Z" fill="#0000C4" stroke="black" stroke-width="0.0376939"/>
<path fill-rule="evenodd" clip-rule="evenodd" d="M6.36256 6.21634C6.36256 6.50569 6.08876 8.82215 6.9117 9.4025C7.45929 9.9812 8.82982 9.82427 8.82982 9.82427L7.73309 7.66474L6.36256 6.21634Z" fill="#E10000" stroke="black" stroke-width="0.0376939"/>
<path fill-rule="evenodd" clip-rule="evenodd" d="M5.2312 5.06251L7.74487 7.71329L7.79058 7.67111L5.27339 5.02032L5.2312 5.06251Z" fill="black"/>
<path fill-rule="evenodd" clip-rule="evenodd" d="M4.81381 4.76466L4.97684 4.80013L5.02662 4.85115C5.0201 4.85041 5.0764 4.90218 5.01293 4.96876C4.94946 5.03534 4.85026 4.93291 4.85026 4.93291C4.85026 4.93291 4.88635 5.10155 4.98619 5.20389C5.08604 5.30623 5.19901 5.29038 5.19901 5.29038C5.19901 5.29038 5.08646 5.19436 5.16291 5.12175C5.23944 5.04847 5.27617 5.10619 5.27617 5.10619L5.37573 5.20824L5.43956 5.14129L5.04103 4.73279L5.00494 4.56416L4.75777 4.51311L4.81388 4.76399L4.81381 4.76466Z" fill="#CECECC" stroke="black" stroke-width="0.0108446"/>
<path fill-rule="evenodd" clip-rule="evenodd" d="M5.29709 3.62682L5.48448 3.912L5.73064 3.96825L5.56574 4.07404L5.86132 4.05537L5.99236 4.14273L6.04242 4.06764L5.91101 3.98003L5.81484 3.69959L5.78033 3.89291L5.63401 3.6869L5.297 3.62615L5.29709 3.62682Z" fill="#CECECC" stroke="black" stroke-width="0.0112423"/>
<path fill-rule="evenodd" clip-rule="evenodd" d="M6.01227 3.84462C6.01227 3.86107 5.99097 3.87505 5.96647 3.87505C5.94197 3.87505 5.9196 3.86107 5.9196 3.84462C5.9196 3.82816 5.9409 3.81336 5.96647 3.81336C5.99204 3.81336 6.01227 3.82734 6.01227 3.84462ZM5.94623 3.90961C5.94623 4.20412 6.16886 5.45455 6.18697 5.48499C6.18804 5.52201 6.13584 5.53764 6.11134 5.4924C6.04104 5.34925 5.88977 4.17615 5.88445 3.9022C5.88125 3.7895 5.92386 3.78045 5.97286 3.78292C6.01227 3.78456 6.06128 3.81336 6.06128 3.84791C6.06128 3.88904 5.99949 3.91948 5.94623 3.90961Z" fill="#E10000" stroke="black" stroke-width="0.0221895"/>
<path fill-rule="evenodd" clip-rule="evenodd" d="M6.05368 3.98022C6.04566 3.99569 6.01881 4.00391 5.99577 3.99825C5.97272 3.99259 5.95849 3.97428 5.96651 3.95881C5.97452 3.94334 6.00178 3.93434 6.02582 3.94024C6.04987 3.94615 6.06209 3.96397 6.05368 3.98022ZM5.95989 4.02606C6.02943 4.57847 5.77974 5.43523 5.78155 5.4688C5.76491 5.50308 5.7078 5.50649 5.7072 5.45752C5.69538 5.42584 5.98154 4.65128 5.90539 4.00483C5.95729 3.89813 6.00178 3.89946 6.04666 3.9131C6.08293 3.92376 6.115 3.96215 6.09816 3.99463C6.07813 4.0333 6.00518 4.04765 5.95989 4.02606Z" fill="#0000C4" stroke="black" stroke-width="0.0224717"/>
<path fill-rule="evenodd" clip-rule="evenodd" d="M5.44595 4.89937C5.44595 4.92609 5.41874 4.9488 5.38745 4.9488C5.35616 4.9488 5.32758 4.92609 5.32758 4.89937C5.32758 4.87265 5.3548 4.8486 5.38745 4.8486C5.4201 4.8486 5.44595 4.87131 5.44595 4.89937ZM5.3616 5.00491C5.3616 5.48317 5.64595 7.5138 5.66908 7.56323C5.67044 7.62334 5.60378 7.64873 5.57248 7.57525C5.48269 7.3428 5.28949 5.43775 5.28269 4.99288C5.2786 4.80986 5.33303 4.79516 5.39561 4.79917C5.44595 4.80184 5.50854 4.8486 5.50854 4.90471C5.50854 4.97151 5.42963 5.02094 5.3616 5.00491Z" fill="#E10000" stroke="black" stroke-width="0.031957"/>
<path fill-rule="evenodd" clip-rule="evenodd" d="M5.51773 5.10257C5.50754 5.12788 5.47321 5.14152 5.44369 5.13247C5.41418 5.12341 5.3959 5.09363 5.40609 5.06832C5.41629 5.043 5.45113 5.0281 5.48193 5.03755C5.51272 5.047 5.52844 5.07599 5.51773 5.10257ZM5.3979 5.17814C5.48911 6.07927 5.17304 7.4797 5.17549 7.53448C5.15434 7.59057 5.08127 7.59658 5.0803 7.51665C5.06504 7.46504 5.42812 6.19849 5.32806 5.14392C5.39405 4.96934 5.45099 4.97117 5.50849 4.99308C5.55494 5.01018 5.59613 5.07259 5.57472 5.12575C5.54923 5.18903 5.45594 5.21302 5.3979 5.17814Z" fill="#0000C4" stroke="black" stroke-width="0.0320782"/>
<path fill-rule="evenodd" clip-rule="evenodd" d="M10.1812 8.58516L12.1043 10.6137L12.1394 10.5715L10.2164 8.53946L10.1812 8.58516ZM8.84529 8.91563L11.3554 11.5664L11.3976 11.5242L8.88396 8.87344L8.83826 8.91563H8.84529Z" fill="black"/>
<path fill-rule="evenodd" clip-rule="evenodd" d="M11.3171 11.569L11.5258 11.7808L11.7669 11.9615L11.5905 11.7186L11.3819 11.5068L11.3171 11.569Z" fill="#808080" stroke="black" stroke-width="0.0212649"/>
<path fill-rule="evenodd" clip-rule="evenodd" d="M11.9675 10.5319L12.1762 10.7437L12.4173 10.9244L12.2409 10.6815L12.0322 10.4697L11.9675 10.5319Z" fill="#808080" stroke="black" stroke-width="0.0212649"/>
<path fill-rule="evenodd" clip-rule="evenodd" d="M11.8157 3.94034C11.8157 3.94034 12.0273 9.69147 11.181 9.69147C10.3347 9.69147 9.9104 9.08662 9.9104 9.08662L9.91996 5.92572L11.8157 3.94034Z" fill="#FFDF00" stroke="black" stroke-width="0.0338748"/>
<path fill-rule="evenodd" clip-rule="evenodd" d="M11.2983 4.47684C11.2983 4.77926 11.3927 9.08662 10.9695 9.08662C10.5464 9.08662 9.9105 8.7842 9.9105 8.7842L9.92006 5.92572L11.2983 4.47684Z" fill="#0000C4" stroke="black" stroke-width="0.0338748"/>
<path fill-rule="evenodd" clip-rule="evenodd" d="M11.0233 4.7673C11.0233 5.06972 10.9695 8.48179 10.5452 8.48179H9.91048L9.92004 5.92573L11.0233 4.7673Z" fill="#E10000" stroke="black" stroke-width="0.0338748"/>
<path fill-rule="evenodd" clip-rule="evenodd" d="M11.8618 3.94453L9.94226 5.97656L9.9071 5.93437L11.8302 3.90585L11.8653 3.94804L11.8618 3.94453Z" fill="black"/>
<path fill-rule="evenodd" clip-rule="evenodd" d="M10.395 5.46322C10.395 5.46322 10.9416 6.15096 11.2039 6.68577C11.466 7.22171 11.7708 8.04032 11.7708 8.04032C11.7708 8.04032 11.599 7.23175 11.2687 6.58748C10.8357 5.77734 10.3945 5.50983 10.395 5.46322Z" fill="#005B00" stroke="black" stroke-width="0.0160513"/>
<path fill-rule="evenodd" clip-rule="evenodd" d="M10.283 4.93148C10.283 4.93148 10.8728 5.75434 11.1422 6.36815C11.4113 6.98314 11.711 7.90716 11.711 7.90716C11.711 7.90716 11.5652 7.01518 11.2242 6.27345C10.7747 5.33793 10.2792 4.98123 10.283 4.93148Z" fill="#005B00" stroke="black" stroke-width="0.0178288"/>
<path fill-rule="evenodd" clip-rule="evenodd" d="M10.8672 4.13849C10.8672 4.13849 11.2985 5.40167 11.431 6.18131C11.5627 6.96163 11.6448 8.03443 11.6448 8.03443C11.6448 8.03443 11.7248 7.13567 11.5475 6.17874C11.3025 4.95338 10.8496 4.1773 10.8672 4.13849Z" fill="#005B00" stroke="black" stroke-width="0.0206998"/>
<path fill-rule="evenodd" clip-rule="evenodd" d="M10.4254 4.06361C10.4254 4.06361 10.9966 5.19134 11.2162 5.95742C11.4353 6.72458 11.6379 7.83121 11.6379 7.83121C11.6379 7.83121 11.616 6.82619 11.3317 5.89361C10.9499 4.70888 10.4122 4.11443 10.4254 4.06361Z" fill="#005B00" stroke="black" stroke-width="0.020825"/>
<path fill-rule="evenodd" clip-rule="evenodd" d="M11.1697 4.38034C11.1697 4.38034 11.4701 5.59593 11.5487 6.32395C11.6268 7.05247 11.6549 8.03756 11.6549 8.03756C11.6549 8.03756 11.7501 7.23703 11.6418 6.341C11.4888 5.19064 11.1542 4.41255 11.1697 4.38034Z" fill="#005B00" stroke="black" stroke-width="0.0186258"/>
<path fill-rule="evenodd" clip-rule="evenodd" d="M10.3414 4.44836C10.3414 4.44836 10.9114 5.41772 11.1456 6.09531C11.3794 6.77396 11.6136 7.76576 11.6136 7.76576C11.6136 7.76576 11.5481 6.84664 11.2477 6.0237C10.8471 4.9806 10.3317 4.49646 10.3414 4.44836Z" fill="#005B00" stroke="black" stroke-width="0.0189789"/>
<path fill-rule="evenodd" clip-rule="evenodd" d="M10.2791 5.10281C10.2791 5.10281 10.8683 5.8728 11.1353 6.46318C11.402 7.05477 11.6969 7.95344 11.6969 7.95344C11.6969 7.95344 11.5573 7.07246 11.219 6.36051C10.7727 5.46436 10.2748 5.15306 10.2791 5.10281Z" fill="#005B00" stroke="black" stroke-width="0.0180499"/>
<path fill-rule="evenodd" clip-rule="evenodd" d="M10.3566 4.73656C10.3566 4.73656 10.9075 5.61515 11.1478 6.25344C11.3877 6.89286 11.6435 7.84311 11.6435 7.84311C11.6435 7.84311 11.5402 6.9402 11.2343 6.16734C10.8292 5.19062 10.3505 4.78573 10.3566 4.73656Z" fill="#005B00" stroke="black" stroke-width="0.0178114"/>
<path fill-rule="evenodd" clip-rule="evenodd" d="M10.9999 4.16594C10.9999 4.16594 11.3601 5.40421 11.4496 6.15872C11.5385 6.91382 11.5621 7.94471 11.5621 7.94471C11.5621 7.94471 11.69 7.09192 11.5655 6.16476C11.3882 4.97622 10.9803 4.20173 10.9999 4.16594Z" fill="#005B00" stroke="black" stroke-width="0.020162"/>
<path fill-rule="evenodd" clip-rule="evenodd" d="M10.5244 3.8625C10.5244 3.8625 11.0388 5.03893 11.2207 5.82264C11.402 6.60738 11.5506 7.72895 11.5506 7.72895C11.5506 7.72895 11.577 6.72524 11.3388 5.76966C11.0155 4.55379 10.5089 3.91194 10.5244 3.8625Z" fill="#005B00" stroke="black" stroke-width="0.0208679"/>
<path fill-rule="evenodd" clip-rule="evenodd" d="M11.3008 4.50208C11.3008 4.50208 11.5304 5.666 11.5673 6.35598C11.6036 7.04638 11.5758 7.97451 11.5758 7.97451C11.5758 7.97451 11.7157 7.22855 11.6589 6.37854C11.572 5.28628 11.2836 4.53128 11.3008 4.50208Z" fill="#005B00" stroke="black" stroke-width="0.0178573"/>
<path fill-rule="evenodd" clip-rule="evenodd" d="M10.3948 4.22969C10.3948 4.22969 10.9297 5.24683 11.1298 5.94817C11.3292 6.65055 11.507 7.67072 11.507 7.67072C11.507 7.67072 11.5028 6.73422 11.2429 5.88151C10.8926 4.7995 10.3812 4.27793 10.3948 4.22969Z" fill="#005B00" stroke="black" stroke-width="0.019702"/>
<path fill-rule="evenodd" clip-rule="evenodd" d="M12.4197 5.05728C12.4197 5.05728 12.9673 10.5599 11.3245 10.5599C9.95554 10.5599 9.95554 9.69184 9.68174 9.69184L9.95554 7.66473L12.4213 5.05728H12.4197Z" fill="#FFDF00" stroke="black" stroke-width="0.0376939"/>
<path fill-rule="evenodd" clip-rule="evenodd" d="M11.8722 5.63763C11.8722 5.92699 12.4198 9.11315 11.0493 9.98121C10.5017 10.2706 9.68027 9.69185 9.68027 9.98121L9.95407 7.66474L11.8722 5.63763Z" fill="#0000C4" stroke="black" stroke-width="0.0376939"/>
<path fill-rule="evenodd" clip-rule="evenodd" d="M11.3246 6.21634C11.3246 6.50569 11.5984 8.82215 10.7754 9.4025C10.2278 9.9812 8.85731 9.82427 8.85731 9.82427L9.95405 7.66474L11.3246 6.21634Z" fill="#E10000" stroke="black" stroke-width="0.0376939"/>
<path fill-rule="evenodd" clip-rule="evenodd" d="M12.4559 5.06248L9.94219 7.71326L9.89648 7.67108L12.4137 5.02029L12.4559 5.06248Z" fill="black"/>
<path fill-rule="evenodd" clip-rule="evenodd" d="M12.8769 4.76466L12.7138 4.80013L12.6641 4.85115C12.6706 4.85041 12.6143 4.90218 12.6777 4.96876C12.7412 5.03534 12.8404 4.93291 12.8404 4.93291C12.8404 4.93291 12.8043 5.10155 12.7045 5.20389C12.6046 5.30623 12.4917 5.29038 12.4917 5.29038C12.4917 5.29038 12.6042 5.19436 12.5278 5.12175C12.4512 5.04847 12.4145 5.10619 12.4145 5.10619L12.3149 5.20824L12.2511 5.14129L12.6496 4.73279L12.6857 4.56416L12.9329 4.51311L12.8768 4.76399L12.8769 4.76466Z" fill="#CECECC" stroke="black" stroke-width="0.0108446"/>
<path fill-rule="evenodd" clip-rule="evenodd" d="M12.3865 3.62682L12.1991 3.912L11.953 3.96825L12.1179 4.07404L11.8223 4.05537L11.6912 4.14273L11.6412 4.06764L11.7726 3.98003L11.8688 3.69959L11.9033 3.89291L12.0496 3.6869L12.3866 3.62615L12.3865 3.62682Z" fill="#CECECC" stroke="black" stroke-width="0.0112423"/>
<path fill-rule="evenodd" clip-rule="evenodd" d="M11.6713 3.84462C11.6713 3.86107 11.6926 3.87505 11.7171 3.87505C11.7416 3.87505 11.764 3.86107 11.764 3.84462C11.764 3.82816 11.7427 3.81336 11.7171 3.81336C11.6916 3.81336 11.6713 3.82734 11.6713 3.84462ZM11.7374 3.90961C11.7374 4.20412 11.5147 5.45455 11.4966 5.48499C11.4956 5.52201 11.5478 5.53764 11.5723 5.4924C11.6426 5.34925 11.7938 4.17615 11.7991 3.9022C11.8023 3.7895 11.7597 3.78045 11.7107 3.78292C11.6713 3.78456 11.6223 3.81336 11.6223 3.84791C11.6223 3.88904 11.6841 3.91948 11.7374 3.90961Z" fill="#E10000" stroke="black" stroke-width="0.0221895"/>
<path fill-rule="evenodd" clip-rule="evenodd" d="M11.6335 3.98022C11.6415 3.99569 11.6683 4.00391 11.6914 3.99825C11.7144 3.99259 11.7286 3.97428 11.7206 3.95881C11.7126 3.94334 11.6854 3.93434 11.6613 3.94024C11.6373 3.94615 11.625 3.96397 11.6335 3.98022ZM11.7272 4.02606C11.6577 4.57847 11.9074 5.43523 11.9056 5.4688C11.9222 5.50308 11.9793 5.50649 11.9799 5.45752C11.9918 5.42584 11.7056 4.65128 11.7817 4.00483C11.7298 3.89813 11.6854 3.89946 11.6405 3.9131C11.6042 3.92376 11.5721 3.96215 11.589 3.99463C11.609 4.0333 11.682 4.04765 11.7272 4.02606Z" fill="#0000C4" stroke="black" stroke-width="0.0224717"/>
<path fill-rule="evenodd" clip-rule="evenodd" d="M12.2376 4.89937C12.2376 4.92609 12.2649 4.9488 12.2961 4.9488C12.3274 4.9488 12.356 4.92609 12.356 4.89937C12.356 4.87265 12.3288 4.8486 12.2961 4.8486C12.2635 4.8486 12.2376 4.87131 12.2376 4.89937ZM12.322 5.00491C12.322 5.48317 12.0376 7.5138 12.0145 7.56323C12.0132 7.62334 12.0798 7.64873 12.1111 7.57525C12.2009 7.3428 12.3941 5.43775 12.4009 4.99288C12.405 4.80986 12.3506 4.79516 12.288 4.79917C12.2376 4.80184 12.1751 4.8486 12.1751 4.90471C12.1751 4.97151 12.254 5.02094 12.322 5.00491Z" fill="#E10000" stroke="black" stroke-width="0.031957"/>
<path fill-rule="evenodd" clip-rule="evenodd" d="M12.1694 5.10257C12.1796 5.12788 12.2139 5.14152 12.2434 5.13247C12.273 5.12341 12.2912 5.09363 12.281 5.06832C12.2708 5.043 12.236 5.0281 12.2052 5.03755C12.1744 5.047 12.1587 5.07599 12.1694 5.10257ZM12.2892 5.17814C12.198 6.07927 12.5141 7.4797 12.5116 7.53448C12.5328 7.59057 12.6059 7.59658 12.6068 7.51665C12.6221 7.46504 12.259 6.19849 12.3591 5.14392C12.2931 4.96934 12.2361 4.97117 12.1786 4.99308C12.1322 5.01018 12.091 5.07259 12.1124 5.12575C12.1379 5.18903 12.2312 5.21302 12.2892 5.17814Z" fill="#0000C4" stroke="black" stroke-width="0.0320782"/>
<path fill-rule="evenodd" clip-rule="evenodd" d="M8.0085 12.0083C8.13347 12.0842 8.27508 12.1241 8.4192 12.1241C8.56332 12.1241 8.70493 12.0842 8.8299 12.0083V9.69186H8.2823C8.5561 10.5599 8.5561 11.4296 8.00696 12.0083H8.0085Z" fill="#E10000" stroke="black" stroke-width="0.0376939"/>
<path fill-rule="evenodd" clip-rule="evenodd" d="M8.41487 9.7094C8.41487 11.3397 8.01892 11.7027 8.01892 12.0306C8.18382 12.0306 8.29375 11.8777 8.41487 11.6676C8.57977 11.3397 8.59561 9.68361 8.57977 9.7094H8.41487Z" fill="#0000C4" stroke="black" stroke-width="0.0310533"/>
<path fill-rule="evenodd" clip-rule="evenodd" d="M8.08512 9.70937C8.07674 10.6618 7.66775 11.5442 7.74508 11.7395C7.83265 11.9145 8.08512 11.3397 8.41493 11.6658C8.57983 11.3397 8.59566 9.68358 8.57983 9.70753H8.08512V9.70937Z" fill="#0000C4" stroke="black" stroke-width="0.0310533"/>
<path fill-rule="evenodd" clip-rule="evenodd" d="M8.12661 9.71806C8.12661 10.807 7.74744 10.8796 7.74744 11.17C7.91234 11.17 8.12568 11.0113 8.12661 11.0261C8.29151 10.807 8.30735 9.70084 8.29151 9.71806H8.12661Z" fill="#FFDF00" stroke="black" stroke-width="0.0253791"/>
<path fill-rule="evenodd" clip-rule="evenodd" d="M7.79683 9.71806C7.78845 10.3542 7.38877 10.8956 7.4661 11.0261C7.55461 11.1417 7.79683 10.807 8.12663 11.0261C8.29153 10.807 8.30737 9.70084 8.29153 9.71806H7.79683Z" fill="#FFDF00" stroke="black" stroke-width="0.0253791"/>
<path fill-rule="evenodd" clip-rule="evenodd" d="M9.67863 12.0083C9.55366 12.0842 9.41206 12.1241 9.26793 12.1241C9.12381 12.1241 8.98221 12.0842 8.85724 12.0083V9.69186H9.40483C9.13103 10.5599 9.13104 11.4296 9.68018 12.0083H9.67863Z" fill="#E10000" stroke="black" stroke-width="0.0376939"/>
<path fill-rule="evenodd" clip-rule="evenodd" d="M9.27227 9.7094C9.27227 11.3397 9.66821 11.7027 9.66821 12.0306C9.50331 12.0306 9.39338 11.8777 9.27227 11.6676C9.10737 11.3397 9.09153 9.68361 9.10737 9.7094H9.27227Z" fill="#0000C4" stroke="black" stroke-width="0.0310533"/>
<path fill-rule="evenodd" clip-rule="evenodd" d="M9.60201 9.70937C9.61039 10.6618 10.0194 11.5442 9.94206 11.7395C9.85448 11.9145 9.60201 11.3397 9.27221 11.6658C9.10731 11.3397 9.09147 9.68358 9.10731 9.70753H9.60201V9.70937Z" fill="#0000C4" stroke="black" stroke-width="0.0310533"/>
<path fill-rule="evenodd" clip-rule="evenodd" d="M9.56406 9.71806C9.56406 10.807 9.94324 10.8796 9.94324 11.17C9.77834 11.17 9.56499 11.0113 9.56406 11.0261C9.39916 10.807 9.38332 9.70084 9.39916 9.71806H9.56406Z" fill="#FFDF00" stroke="black" stroke-width="0.0253791"/>
<path fill-rule="evenodd" clip-rule="evenodd" d="M9.89384 9.71806C9.90223 10.3542 10.3019 10.8956 10.2246 11.0261C10.1361 11.1417 9.89384 10.807 9.56404 11.0261C9.39914 10.807 9.3833 9.70084 9.39914 9.71806H9.89384Z" fill="#FFDF00" stroke="black" stroke-width="0.0253791"/>
<path fill-rule="evenodd" clip-rule="evenodd" d="M6.75965 9.94078L6.47583 10.1523L6.75965 10.3639L6.9014 10.2581L6.97227 10.3639L7.04315 10.5755L7.11434 10.3639L7.18521 10.2581H10.9881V10.0466H7.1849L7.11402 9.94018C7.11402 9.8344 7.12889 9.72861 7.18521 9.72861H7.46871C7.46871 9.62283 7.32696 9.41125 7.04315 9.41125C6.75965 9.41125 6.61758 9.62283 6.61758 9.72861H6.9014C6.9574 9.72861 6.97227 9.8344 6.97227 9.94078L6.9014 10.0466L6.75933 9.94018L6.75965 9.94078Z" fill="#908F8A" stroke="black" stroke-width="0.0347887"/>
<path fill-rule="evenodd" clip-rule="evenodd" d="M7.59387 10.4418H10.0797V10.5706H7.59461L7.59387 10.4418ZM7.59387 10.3122H10.0797V10.4418H7.59461L7.59387 10.3122ZM7.59387 10.1834H10.0797V10.313H7.59461L7.59387 10.1834ZM7.59387 10.0546H10.0797V10.1834H7.59461L7.59387 10.0546ZM7.59387 9.9258H10.0797V10.0546H7.59461L7.59387 9.9258ZM7.59387 9.79626H10.0797V9.9258H7.59461L7.59387 9.79626ZM7.59387 9.66818H10.0797V9.79626H7.59461L7.59387 9.66818Z" fill="#B74D00"/>
<path d="M10.0797 10.4418H7.59387L7.59461 10.5706H10.0797V10.4418ZM10.0797 10.4418V10.3122H7.59387L7.59461 10.4418H10.0797ZM10.0797 10.1834H7.59387L7.59461 10.313H10.0797V10.1834ZM10.0797 10.1834V10.0546M10.0797 10.1834H7.59461L7.59387 10.0546H10.0797M10.0797 10.0546V9.9258M10.0797 10.0546H7.59461L7.59387 9.9258H10.0797M10.0797 9.9258V9.79626M10.0797 9.9258H7.59461L7.59387 9.79626H10.0797M10.0797 9.79626V9.66818H7.59387L7.59461 9.79626H10.0797Z" stroke="black" stroke-width="0.0234556"/>
<path fill-rule="evenodd" clip-rule="evenodd" d="M7.7417 9.6666L8.66216 10.569H8.79375L7.87396 9.66732H7.74237L7.7417 9.6666Z" fill="#908F8A" stroke="black" stroke-width="0.0409031"/>
<path fill-rule="evenodd" clip-rule="evenodd" d="M7.7417 10.5693L8.66216 9.66695H8.79375L7.87396 10.5686H7.74237L7.7417 10.5693Z" fill="#908F8A" stroke="black" stroke-width="0.0409031"/>
<path fill-rule="evenodd" clip-rule="evenodd" d="M7.72705 9.6666V10.569H7.85773V9.6666H7.72705Z" fill="#908F8A" stroke="black" stroke-width="0.0403958"/>
<path fill-rule="evenodd" clip-rule="evenodd" d="M8.91589 9.6666L9.83635 10.569H9.96794L9.04815 9.66732H8.91656L8.91589 9.6666Z" fill="#908F8A" stroke="black" stroke-width="0.0409031"/>
<path fill-rule="evenodd" clip-rule="evenodd" d="M8.91589 10.5693L9.83635 9.66695H9.96794L9.04815 10.5686H8.91656L8.91589 10.5693Z" fill="#908F8A" stroke="black" stroke-width="0.0409031"/>
<path fill-rule="evenodd" clip-rule="evenodd" d="M9.81885 9.6666V10.569H9.94952V9.6666H9.81885Z" fill="#908F8A" stroke="black" stroke-width="0.0403958"/>
<path fill-rule="evenodd" clip-rule="evenodd" d="M8.90479 9.6666V10.569H9.03546V9.6666H8.90479Z" fill="#908F8A" stroke="black" stroke-width="0.0403958"/>
<path fill-rule="evenodd" clip-rule="evenodd" d="M8.64111 9.6666V10.569H8.77179V9.6666H8.64111Z" fill="#908F8A" stroke="black" stroke-width="0.0403958"/>
<path fill-rule="evenodd" clip-rule="evenodd" d="M10.748 7.08603C10.748 8.52462 9.88793 9.69184 8.82987 9.69184C7.77181 9.69184 6.91174 8.52462 6.91174 7.08603C6.91174 5.64743 7.77026 4.47858 8.82987 4.47858C9.88948 4.47858 10.748 5.6458 10.748 7.08439V7.08603ZM10.4742 7.08603C10.4742 8.36441 9.73788 9.40249 8.82987 9.40249C7.92185 9.40249 7.18554 8.36441 7.18554 7.08603C7.18554 5.80601 7.92185 4.76793 8.82987 4.76793C9.73788 4.76793 10.4742 5.80601 10.4742 7.08603Z" fill="#FFDF00" stroke="black" stroke-width="0.0376939"/>
<path fill-rule="evenodd" clip-rule="evenodd" d="M9.57704 4.68456C9.34656 4.55214 9.09442 4.47858 8.8299 4.47858C8.56539 4.47858 8.31325 4.55214 8.08276 4.68292L8.19104 4.95102C8.38557 4.83253 8.60615 4.77015 8.83068 4.77015C9.0552 4.77015 9.27579 4.83253 9.47031 4.95102L9.57704 4.68292V4.68456Z" fill="#FFDF00" stroke="black" stroke-width="0.0376939"/>
<path fill-rule="evenodd" clip-rule="evenodd" d="M9.58058 9.49745C9.3501 9.62987 9.09796 9.70343 8.83344 9.70343C8.56893 9.70343 8.31679 9.62987 8.0863 9.49908L8.19458 9.23098C8.38911 9.34948 8.60969 9.41186 8.83422 9.41186C9.05874 9.41186 9.27933 9.34948 9.47385 9.23098L9.58058 9.49908V9.49745Z" fill="#FFDF00" stroke="black" stroke-width="0.0376939"/>
<path fill-rule="evenodd" clip-rule="evenodd" d="M10.4765 7.08398C10.4765 8.36367 9.73826 9.40077 8.83123 9.40077C7.92068 9.40077 7.18591 8.36367 7.18591 7.08398C7.18591 5.80429 7.92419 4.76718 8.83123 4.76718C9.73826 4.76718 10.473 5.80429 10.473 7.08398H10.4765Z" fill="#A7CFFF"/>
<path fill-rule="evenodd" clip-rule="evenodd" d="M10.4742 7.08604C10.4912 7.52089 10.403 7.73341 10.2901 8.18624C10.2607 8.23528 10.12 8.07998 10.0364 8.00314C9.95291 7.92631 9.91578 8.0718 9.81059 7.9541C9.70695 7.83313 9.64044 7.9868 9.56309 7.88544C9.48575 7.78409 8.76955 7.77101 8.76955 7.7612C8.8407 7.72523 9.20577 7.76447 9.14698 7.57974C9.08047 7.38684 8.66745 7.5732 8.61177 7.32799C8.57309 7.08277 7.78264 7.07296 7.72541 7.01411C7.74861 7.10566 8.34106 7.14489 8.32714 7.38193C8.31322 7.48002 7.74397 7.50781 7.68828 7.58955C7.64188 7.69254 8.13688 7.56176 8.15389 7.68763C8.15389 7.73995 8.08119 7.68763 7.82441 7.76937C7.69447 7.81024 8.06263 7.93775 7.92341 8.00805C7.78419 8.07834 7.48564 8.1094 7.49802 8.13883C7.54442 8.28596 8.18947 8.45924 8.12605 8.48377C7.89711 8.59166 7.77645 8.66195 7.66663 8.72408C7.34482 8.24639 7.17622 7.67234 7.18555 7.08604C7.67591 6.89968 7.57227 6.86044 8.47873 6.86044C9.3852 6.86044 9.6853 6.89804 10.4742 7.08604Z" fill="#AFFF7B" stroke="black" stroke-width="0.0376939"/>
<path fill-rule="evenodd" clip-rule="evenodd" d="M10.4742 7.08603C10.3505 7.08603 10.2205 7.14162 10.0875 7.14162C9.95291 7.14162 9.81678 7.0844 9.67756 7.0844C9.53834 7.0844 9.37902 7.1596 9.2367 7.1596C9.09284 7.1596 8.96755 7.08603 8.82369 7.08603C8.67983 7.08603 8.53597 7.14162 8.39366 7.14162C8.25134 7.14162 8.11058 7.0844 7.97291 7.0844C7.83523 7.0844 7.69911 7.14162 7.56762 7.14162C7.43614 7.14162 7.30775 7.0844 7.18555 7.0844C7.18555 6.76562 7.23195 6.46155 7.31548 6.18364C7.73314 6.21634 7.48564 5.92699 7.73314 5.92699C7.80539 5.92285 7.87765 5.935 7.94512 5.96262C8.01259 5.99024 8.07374 6.0327 8.1245 6.08719C8.16162 6.08719 8.34725 5.90083 8.55608 5.92699C8.76336 5.95314 8.68756 6.37328 8.96445 6.39453C9.10367 6.50569 9.18566 6.57599 9.37747 6.62176C9.65127 6.64792 10.4355 6.58089 10.4402 6.61849C10.4628 6.7732 10.4741 6.9295 10.4742 7.08603Z" fill="white" stroke="black" stroke-width="0.0376939"/>
<path fill-rule="evenodd" clip-rule="evenodd" d="M9.1137 8.49592C9.1137 8.42318 9.18727 8.37468 9.18727 8.25855C9.18727 8.14242 9.12188 8.13987 9.1197 8.03139C9.11861 7.98673 9.17583 7.94206 9.20089 7.93696C9.22596 7.93185 9.24721 8.03139 9.24721 8.05309C9.24721 8.07478 9.2216 7.99949 9.20035 7.99821C9.17909 7.99694 9.13332 8.00587 9.13332 8.02756C9.13332 8.07095 9.21397 8.12455 9.20798 8.27004C9.20198 8.41297 9.13877 8.45636 9.13877 8.49975C9.13877 8.54314 9.16602 8.6631 9.16602 8.6631C9.16602 8.6631 9.11316 8.56739 9.11316 8.49464L9.1137 8.49592Z" fill="black" stroke="black" stroke-width="0.0197669"/>
<path fill-rule="evenodd" clip-rule="evenodd" d="M9.18512 8.48539C9.18512 8.41265 9.11156 8.36416 9.11156 8.24802C9.11156 8.13189 9.17695 8.12934 9.17913 8.02087C9.18458 7.96982 9.11483 7.93664 9.08976 7.93281C9.0647 7.92898 9.03527 8.0349 9.03527 8.05532C9.03527 8.07574 9.0647 7.98896 9.08595 7.98769C9.1072 7.98641 9.16551 7.99534 9.16551 8.01704C9.16551 8.06043 9.08486 8.11403 9.09085 8.25951C9.09685 8.40244 9.16006 8.44583 9.16006 8.48922C9.16006 8.53261 9.13281 8.65257 9.13281 8.65257C9.13281 8.65257 9.18567 8.55686 9.18567 8.48412L9.18512 8.48539Z" fill="black" stroke="black" stroke-width="0.0197669"/>
<path fill-rule="evenodd" clip-rule="evenodd" d="M9.18635 7.89257C9.18635 7.92772 9.16877 7.95936 9.1512 7.95936C9.12659 7.95936 9.10901 7.93124 9.10901 7.89257C9.10901 7.85389 9.12659 7.82928 9.14768 7.82928C9.16877 7.82928 9.18635 7.85741 9.18635 7.89257ZM9.68206 8.08593H9.69612V8.60272H9.68206V8.08593ZM9.79456 8.04374H9.80862V8.56405H9.79456V8.04374Z" fill="black"/>
<path fill-rule="evenodd" clip-rule="evenodd" d="M9.70667 8.33203V8.31445L9.81213 8.33555V8.34609L9.70667 8.33203Z" fill="black"/>
<path fill-rule="evenodd" clip-rule="evenodd" d="M8.23055 8.4294C8.23055 8.4294 8.63274 8.61576 8.72091 8.72693C8.80753 8.83809 8.7735 8.83809 8.7735 8.83809L9.66605 8.87569C9.66605 8.82011 9.82383 8.82011 9.85941 8.68933C9.89499 8.56018 9.89499 8.52258 9.89499 8.52258L9.615 8.61576L9.63047 8.44902H9.38607L9.35049 8.61576L8.82455 8.59778L8.86013 8.15149L8.75494 8.16947L8.73947 8.59451C8.72091 8.59451 8.24757 8.46536 8.229 8.4294H8.23055Z" fill="#B74D00" stroke="black" stroke-width="0.0376939"/>
<path fill-rule="evenodd" clip-rule="evenodd" d="M7.42224 5.76842C7.42224 5.76842 8.00541 5.58533 8.84691 5.5984C9.68841 5.61148 10.2716 5.80765 10.2592 5.80765C10.2468 5.80765 10.0983 5.50686 10.0983 5.50686C10.0983 5.50686 9.50433 5.33521 8.83454 5.32213C8.16629 5.30905 7.58312 5.45291 7.59704 5.46599L7.42224 5.76842Z" fill="#FEDE00" stroke="#FEDE00" stroke-width="0.0376939"/>
<path fill-rule="evenodd" clip-rule="evenodd" d="M8.47261 5.37188L8.83472 5.36484V5.57578L8.47612 5.58281L8.47261 5.37188ZM7.64292 5.48789L7.51636 5.69531L7.94526 5.64258L7.91011 5.43164L7.64292 5.48789ZM8.00854 5.40703L8.36714 5.37539L8.38472 5.58633L8.02612 5.61797L8.00854 5.40703ZM9.30581 5.38594L8.94722 5.36133L8.93315 5.57227L9.29175 5.59687L9.30581 5.38594ZM10.0792 5.51953L10.2093 5.77617L9.82261 5.67773L9.8648 5.47383L10.0792 5.51953ZM9.76636 5.44219L9.41128 5.39648L9.38667 5.60391L9.74175 5.64961L9.76636 5.44219Z" fill="#38A9F9"/>
<path fill-rule="evenodd" clip-rule="evenodd" d="M8.84685 5.88612L8.80818 5.66543L8.69062 5.85343L8.73393 5.63273L8.55913 5.75861L8.67669 5.57388L8.46941 5.61966L8.6473 5.49541L8.43848 5.45454L8.6473 5.41204L8.46941 5.2878L8.67669 5.33357L8.55759 5.14884L8.73393 5.27472L8.69062 5.05403L8.80818 5.24203L8.84685 5.02133L8.88707 5.24203L9.00309 5.05403L8.96132 5.27472L9.13612 5.14884L9.01701 5.33357L9.22584 5.2878L9.04794 5.41204L9.25677 5.45454L9.04794 5.49541L9.22584 5.61966L9.01701 5.57388L9.13612 5.75861L8.96132 5.63273L9.00463 5.85343L8.88707 5.66543L8.84685 5.88612Z" fill="#FFDF00" stroke="black" stroke-width="0.0376939"/>
<path fill-rule="evenodd" clip-rule="evenodd" d="M9.10579 5.45038C9.10579 5.57723 9.00602 5.67954 8.88206 5.67954C8.7581 5.67954 8.65833 5.57723 8.65833 5.45038C8.65833 5.32352 8.7581 5.21985 8.88206 5.21985C9.00602 5.21985 9.10579 5.32352 9.10579 5.45174V5.45038Z" fill="#FFDF00" stroke="black" stroke-width="0.0340384"/>
<path fill-rule="evenodd" clip-rule="evenodd" d="M8.85933 5.39296C8.85933 5.40702 8.82769 5.41757 8.78901 5.41757C8.75034 5.41757 8.71167 5.40702 8.71167 5.39296C8.71167 5.3789 8.74683 5.36484 8.7855 5.36484C8.82417 5.36484 8.86284 5.3789 8.86284 5.39296H8.85933ZM9.02456 5.39296C9.02456 5.40702 8.99644 5.41757 8.96831 5.41757C8.94019 5.41757 8.91206 5.40702 8.91206 5.39296C8.91206 5.3789 8.93667 5.36484 8.96831 5.36484C8.99995 5.36484 9.02105 5.3789 9.02105 5.39296H9.02456Z" fill="black"/>
<path d="M8.82675 5.48378L8.84216 5.49261C8.80512 5.47006 8.82202 5.47843 8.88002 5.53536C8.91351 5.51638 8.91997 5.49902 8.94085 5.47545" stroke="black" stroke-width="0.0377534"/>
<path d="M8.74802 5.57224L8.7604 5.58532C8.73101 5.55262 8.74493 5.56897 8.8099 5.61147C8.87177 5.61965 8.93519 5.59185 8.97232 5.54608" stroke="black" stroke-width="0.0376939"/>
<path fill-rule="evenodd" clip-rule="evenodd" d="M7.85742 6.00116C7.85742 6.00116 7.88203 6.2121 7.7168 6.47577C7.55859 6.73593 7.5832 6.64452 7.5832 6.64452C7.5832 6.64452 7.65703 6.78514 7.64648 6.78514C7.63594 6.78514 7.51992 6.65858 7.51992 6.65858L7.38633 6.79921C7.38633 6.79921 7.50937 6.57772 7.49531 6.57772C7.48125 6.57772 7.46016 6.50038 7.46016 6.50038L7.55859 6.46171C7.55859 6.46171 7.70625 6.18749 7.70625 6.19803C7.70625 6.20858 7.25977 6.50038 7.25977 6.50038L7.85742 6.00116ZM7.95586 6.08202C7.9418 6.08202 8.01563 6.29296 8.07891 6.39843C8.11759 6.46986 8.13925 6.54927 8.14219 6.63046L8.35313 6.73593L8.07891 6.33163L8.25469 6.39491L7.95586 6.0785V6.08202ZM7.95586 6.63046C7.95586 6.63046 8.10352 6.78866 8.11758 6.84139C8.13164 6.89413 8.12812 7.01014 8.12812 7.01014L8.06836 6.88007L7.98047 6.9996C7.98047 6.9996 8.04375 6.81327 8.02969 6.80272C8.01562 6.79218 7.93125 6.866 7.93125 6.866L7.96641 6.74999C7.96641 6.73944 7.96641 6.66913 7.95586 6.63046ZM7.20703 6.9996C7.25625 6.95741 7.3582 6.92929 7.3582 6.92929C7.3582 6.92929 7.29492 7.03475 7.28086 7.03475C7.2668 7.03475 7.23164 7.03475 7.21055 6.9996H7.20703ZM8.91914 6.42303C8.91914 6.42303 9.23906 6.61991 9.23906 6.63397C9.23906 6.64803 9.02812 6.53905 9.02812 6.53905L8.91914 6.42303ZM8.33906 6.01171C8.36367 6.02577 8.81016 6.39139 8.79609 6.39139C8.78203 6.39139 8.59922 6.28593 8.59922 6.29999V6.39139L8.50078 6.18046L8.47617 6.26132L8.33906 6.01522V6.01171ZM8.45156 6.60233L8.57461 6.84843L8.69766 6.82382C8.69766 6.82382 8.46211 6.60233 8.45156 6.60233ZM8.83828 6.44413L8.84883 6.67968C8.84883 6.67968 8.91914 6.74647 8.91914 6.73241C8.91914 6.71835 8.84883 6.45819 8.83477 6.44413H8.83828Z" fill="#B7E1FF"/>
<path fill-rule="evenodd" clip-rule="evenodd" d="M5.19604 3.2414C5.19604 3.2414 5.75503 2.93554 6.39136 2.70351C6.85678 2.53306 7.33694 2.40596 7.82573 2.32382C8.01558 2.32382 8.3355 2.79492 8.38823 2.79492C8.44448 2.79492 8.65894 2.66484 8.92612 2.66484C9.19331 2.66484 9.35503 2.87578 9.41128 2.87578H9.89292C9.94565 2.87578 9.7312 2.34843 9.89292 2.37656C9.97378 2.39062 10.6593 2.49609 11.2957 2.69999C11.932 2.91093 12.8355 3.27304 12.8355 3.27304C12.8355 3.27304 11.3589 3.46992 10.9652 3.41367C10.9125 3.43828 10.9652 3.7582 10.8878 3.61757C10.7648 3.58945 10.3113 3.51913 10.2304 3.51913C10.1496 3.51913 10.0019 3.61054 9.78745 3.65976C9.62489 3.70119 9.46315 3.74573 9.3023 3.79335L9.65386 4.34179L9.22144 4.55273C9.22144 4.55273 8.95425 3.92343 8.84526 3.92343C8.73628 3.92343 8.68706 4.36992 8.54995 4.34531C8.41636 4.31718 8.36362 3.92343 8.25815 3.81796C8.14917 3.71249 7.58315 3.67734 7.3687 3.6246C7.15425 3.57187 6.8062 3.52968 6.61987 3.47695C6.43354 3.42421 6.2437 3.61054 6.16284 3.61054C6.08198 3.61054 6.26831 3.45234 6.19097 3.42421C6.11362 3.39609 6.05737 3.50507 6.00112 3.50507C5.94839 3.50507 5.38589 3.3996 5.33315 3.37148C5.2769 3.34687 5.46675 3.2414 5.41401 3.2414H5.19956H5.19604Z" fill="#984000"/>
<path fill-rule="evenodd" clip-rule="evenodd" d="M9.18269 2.97071C9.18269 3.11978 9.06319 3.24071 8.91643 3.24071C8.76967 3.24071 8.65076 3.11978 8.65076 2.97071C8.65076 2.82165 8.76967 2.70142 8.91643 2.70142C9.06319 2.70142 9.18269 2.82235 9.18269 2.97071Z" fill="#808080" stroke="#772600" stroke-width="0.0420086"/>
<path fill-rule="evenodd" clip-rule="evenodd" d="M7.86267 3.03047C7.91119 2.97478 7.9713 2.89041 8.12846 2.89041C8.16467 2.87606 8.16467 2.79169 8.24868 2.79169C8.33341 2.79169 8.30879 2.87606 8.36962 2.90475C8.42973 2.93259 8.92438 2.87606 8.92438 2.87606C8.92438 2.87606 8.97217 2.91825 8.97217 2.97478C8.97217 3.03131 8.93596 3.07266 8.92438 3.07266C8.91279 3.07266 8.42973 3.03047 8.39352 3.04481C8.35731 3.05916 8.33341 3.07266 8.24868 3.07266C8.16467 3.07266 8.14005 2.97478 8.07994 2.97478C8.01983 2.97478 7.95972 2.96044 7.86267 3.03131V3.03047Z" fill="#984000" stroke="#772600" stroke-width="0.0736538"/>
<path d="M9.33425 3.0029H9.52689C9.59642 3.00374 9.62032 3.02821 9.68405 3.03074H9.85279C9.91435 3.02821 9.94694 3.01134 10.0092 3.0029C10.1142 3.00121 10.0787 2.99193 10.0577 2.91852C10.0389 2.86368 10.036 2.83752 10.0092 2.80631C9.99908 2.73881 9.97591 2.71518 9.97301 2.63756C9.96215 2.57849 9.94187 2.53884 9.96142 2.46881C9.98894 2.5169 9.99981 2.53631 10.0701 2.53968C10.1425 2.53968 10.1707 2.53715 10.2149 2.56752C10.2482 2.60887 10.2931 2.59537 10.3597 2.59537C10.4148 2.60718 10.4242 2.64009 10.4677 2.6654C10.5191 2.69915 10.5524 2.70759 10.6241 2.70759C10.682 2.72024 10.7327 2.72952 10.7689 2.74977C10.8001 2.79281 10.8486 2.80377 10.9138 2.80631C10.95 2.80631 10.979 2.80209 11.0101 2.79196C11.0659 2.79534 11.1223 2.79196 11.1911 2.79196C11.236 2.85271 11.2462 2.87549 11.3237 2.87634C11.3773 2.92021 11.4222 2.92696 11.4685 2.94637H11.6496C11.7148 2.95227 11.735 2.98349 11.7944 3.0029C11.8454 3.02973 11.8976 3.05311 11.9509 3.07293C12.0027 3.08387 12.0553 3.08867 12.108 3.08727C12.1522 3.11427 12.2065 3.11596 12.2405 3.14296C12.2905 3.15562 12.3586 3.17081 12.397 3.18515C12.4607 3.19527 12.4853 3.2189 12.5418 3.22734C12.5903 3.24421 12.5259 3.25771 12.4933 3.26952C12.4223 3.26699 12.4172 3.23577 12.3484 3.22734C12.3122 3.20287 12.2572 3.20624 12.2036 3.18515H12.192C12.2398 3.2189 12.2862 3.23999 12.2644 3.29821C12.2029 3.29821 12.1529 3.28893 12.0957 3.28387C12.0349 3.27037 12.0073 3.25602 11.9393 3.25602C12.0073 3.23662 12.0247 3.25771 12.0718 3.28387C12.0892 3.35137 12.0515 3.32606 11.9871 3.32606C11.932 3.30327 11.8987 3.27543 11.8306 3.26952H11.6858C11.7575 3.2729 11.7727 3.30412 11.8183 3.3404C11.8219 3.36234 11.8176 3.36065 11.7821 3.36824C11.7444 3.33027 11.6959 3.31762 11.6373 3.29821C11.5801 3.29568 11.5199 3.28977 11.4685 3.26952C11.433 3.26699 11.4388 3.21806 11.517 3.29821C11.5641 3.33027 11.5808 3.35727 11.5772 3.38259C11.5149 3.36402 11.4845 3.33534 11.4446 3.31171C11.3904 3.28982 11.3331 3.28037 11.2759 3.28387C11.2136 3.26446 11.2824 3.25349 11.3237 3.32606C11.4135 3.40031 11.3121 3.36824 11.2759 3.3539C11.2216 3.33618 11.1651 3.31002 11.1187 3.29821C11.0825 3.28556 11.0506 3.27374 11.0101 3.26952C11.0731 3.27627 11.0941 3.30243 11.1187 3.3539C11.1825 3.40452 11.1158 3.38006 11.0586 3.36824C11.0224 3.33112 10.9753 3.31171 10.95 3.26952C10.8899 3.23493 10.8877 3.19359 10.9261 3.28387C10.9355 3.31256 10.9333 3.37499 10.9377 3.38259C10.8935 3.32606 10.9029 3.31171 10.8537 3.31171C10.8196 3.28471 10.7704 3.26362 10.745 3.22734C10.6987 3.22227 10.6958 3.20287 10.6487 3.18515C10.6871 3.23831 10.7385 3.29062 10.7689 3.3404C10.824 3.37584 10.8392 3.4079 10.8776 3.43827C10.8928 3.46949 10.9355 3.49481 10.8899 3.45262C10.8377 3.39356 10.7993 3.37921 10.7211 3.3404C10.6762 3.29821 10.6603 3.28134 10.6125 3.24168C10.5473 3.21721 10.5727 3.20371 10.6125 3.28387C10.6581 3.33281 10.6929 3.38681 10.7327 3.42477C10.764 3.46825 10.8006 3.50606 10.8413 3.53699C10.8522 3.55556 10.8848 3.55893 10.8413 3.56484C10.8051 3.52602 10.7515 3.50156 10.7088 3.46612C10.6487 3.44671 10.6205 3.41043 10.5763 3.36824C10.5473 3.31846 10.501 3.28049 10.4677 3.24168C10.3981 3.20962 10.4814 3.27206 10.5039 3.31171C10.5191 3.36318 10.5386 3.40452 10.5517 3.45262C10.5719 3.49902 10.4908 3.44165 10.4677 3.42477C10.42 3.38881 10.3665 3.36468 10.3105 3.3539C10.2625 3.34271 10.2142 3.33342 10.1657 3.32606C10.1113 3.30918 10.1953 3.36656 10.2265 3.42477C10.2873 3.49143 10.1664 3.43659 10.1302 3.42477C10.0704 3.41294 10.0097 3.40813 9.94911 3.41043C9.87162 3.41549 9.92738 3.42731 9.94911 3.46612C9.97301 3.48806 9.98967 3.53362 9.98532 3.55049C9.93463 3.54206 9.89117 3.52518 9.82817 3.52265C9.77747 3.54206 9.71736 3.53699 9.65942 3.53699C9.65725 3.57243 9.67029 3.54206 9.69563 3.57918C9.73764 3.59859 9.76516 3.62221 9.75647 3.64921H9.40667C9.36829 3.66102 9.41464 3.65512 9.44288 3.70574C9.42695 3.75131 9.40667 3.73359 9.35815 3.73359C9.32556 3.7184 9.25966 3.71165 9.22562 3.6914C9.19158 3.6914 9.19448 3.68127 9.16551 3.67706C9.2669 3.76143 9.2162 3.74034 9.27414 3.80362C9.28355 3.80784 9.30673 3.81796 9.28573 3.81796M8.48981 4.26768C8.48257 4.26768 8.46664 4.22212 8.44201 4.18331C8.42463 4.13268 8.4029 4.16137 8.38118 4.08459C8.38407 4.00527 8.38625 3.99177 8.38118 3.91584C8.33193 3.87534 8.31093 3.86352 8.27254 3.78927C8.21171 3.73021 8.28196 3.62896 8.29355 3.55471C8.23996 3.54121 8.21388 3.65174 8.13205 3.6914C8.07266 3.73781 8.1248 3.59521 8.09584 3.51252C8.07628 3.39524 8.01762 3.57159 7.99589 3.62137C7.95606 3.65259 7.94375 3.69309 7.88726 3.63487C7.88726 3.59184 7.92275 3.47034 7.90754 3.44671C7.85105 3.47962 7.77718 3.57749 7.71852 3.59268C7.65913 3.57834 7.73083 3.46781 7.73083 3.38596C7.7091 3.37752 7.62437 3.60365 7.58961 3.60534C7.55484 3.60702 7.57005 3.38596 7.5534 3.39102C7.52805 3.43321 7.47663 3.52096 7.44114 3.55134C7.37234 3.54037 7.45128 3.40368 7.46142 3.35306C7.47301 3.29231 7.39696 3.46949 7.35641 3.48046C7.32672 3.51084 7.26805 3.53109 7.24778 3.53699C7.27095 3.48468 7.38538 3.37921 7.37813 3.34884C7.31078 3.35137 7.20867 3.45431 7.15145 3.46696C7.11379 3.46696 7.06165 3.48131 7.05513 3.48046C7.05803 3.41296 7.19563 3.35727 7.21736 3.31593C7.15001 3.32859 7.02037 3.39777 6.98271 3.45262C6.93781 3.46359 6.88132 3.47793 6.83787 3.45262C6.84439 3.38934 6.94578 3.26699 6.96823 3.22649C6.90667 3.25771 6.87625 3.28218 6.81107 3.29652C6.79876 3.31087 6.764 3.34124 6.77486 3.31087C6.79441 3.25181 6.82338 3.22649 6.84728 3.18431C6.79297 3.19612 6.77269 3.2324 6.71475 3.26868C6.67782 3.27037 6.57208 3.3944 6.53659 3.39609C6.47653 3.45125 6.40642 3.48964 6.33164 3.50831C6.2766 3.52012 6.2498 3.53362 6.22301 3.56484C6.25053 3.50831 6.29253 3.45515 6.33164 3.42477C6.35551 3.37356 6.39391 3.33359 6.44027 3.31171C6.45403 3.29231 6.49169 3.28724 6.45186 3.28387C6.41782 3.31931 6.35988 3.35981 6.33164 3.38259C6.2947 3.40959 6.25197 3.43659 6.23459 3.42477C6.25415 3.36402 6.28891 3.34884 6.31933 3.29821C6.38306 3.25096 6.31933 3.28134 6.2708 3.29821C6.23966 3.33027 6.1839 3.35474 6.13827 3.38259C6.08758 3.39777 6.05354 3.43321 5.99343 3.45262C5.99343 3.47287 6.01081 3.41634 6.01805 3.39609C6.0673 3.33365 6.08033 3.31593 6.13827 3.29821C6.15276 3.27374 6.17014 3.28387 6.12668 3.28387C6.09337 3.31762 6.04847 3.33618 6.00574 3.36824C5.96301 3.37921 5.90725 3.38259 5.84931 3.38259C5.77399 3.39271 5.78051 3.39946 5.84931 3.3539C5.88769 3.31171 5.91956 3.32268 5.92173 3.26952C5.8761 3.30834 5.82034 3.33702 5.76458 3.36824C5.71823 3.36993 5.70591 3.38259 5.65594 3.38259C5.67984 3.3539 5.69433 3.31762 5.72836 3.29821C5.77906 3.23324 5.6965 3.28556 5.67984 3.29821H5.49879C5.46692 3.34546 5.49734 3.29821 5.52341 3.26952C5.55455 3.25096 5.58714 3.22649 5.58352 3.21384C5.54731 3.25012 5.50603 3.26699 5.47489 3.29821C5.44157 3.31002 5.40247 3.31509 5.40247 3.32606C5.42926 3.28134 5.47199 3.25349 5.49951 3.21384C5.54007 3.20371 5.57483 3.18852 5.58352 3.17165H5.41478H5.535C5.59656 3.17165 5.6487 3.1649 5.70447 3.15731C5.80006 3.13874 5.69577 3.12946 5.64363 3.12946C5.63422 3.10752 5.67405 3.09571 5.71605 3.08727C5.75226 3.06702 5.79789 3.04931 5.837 3.03074C5.87152 3.01849 5.90407 2.99968 5.93332 2.97506C5.89711 2.97674 5.89711 2.98687 5.8609 2.98856C5.91521 2.98434 5.9536 2.97506 6.01805 2.97506C6.07114 2.95467 6.12334 2.9313 6.17448 2.90502C6.19621 2.87465 6.2049 2.87634 6.15058 2.87634C6.19911 2.85862 6.26791 2.84934 6.30702 2.83415C6.35693 2.82197 6.40552 2.80329 6.45186 2.77846C6.48735 2.75062 6.50762 2.71771 6.54818 2.69409C6.59525 2.73121 6.59598 2.73627 6.68071 2.73627C6.74879 2.73543 6.79079 2.71602 6.82556 2.67974C6.8777 2.66287 6.88711 2.63418 6.9465 2.62406C7.0023 2.63427 7.05877 2.63879 7.11524 2.63756C7.17318 2.61984 7.22895 2.58693 7.27167 2.55318C7.30861 2.53209 7.35279 2.50171 7.39262 2.48315C7.43607 2.50931 7.47083 2.5304 7.52515 2.53968C7.58092 2.52956 7.61061 2.49749 7.65768 2.48315C7.68672 2.44715 7.72471 2.42266 7.76632 2.41312C7.83657 2.37262 7.8315 2.42577 7.86264 2.46881C7.89885 2.51268 7.9452 2.49159 7.99517 2.51099C8.02341 2.56162 8.04369 2.59537 8.0799 2.62321C8.10815 2.66371 8.14146 2.67384 8.20085 2.67974C8.22257 2.71349 8.20519 2.73712 8.24865 2.74977C8.26603 2.77171 8.29572 2.78015 8.32107 2.79196" stroke="#772600" stroke-width="0.0486393"/>
<path d="M9.19517 3.9091V3.91585C9.19517 3.89644 9.19517 3.90741 9.20749 3.94454C9.21183 3.97491 9.20169 3.97154 9.18938 3.99348C9.18721 4.02469 9.18359 4.04748 9.18359 4.0846C9.17924 4.11498 9.16476 4.14366 9.15317 4.16898C9.14158 4.19513 9.09161 4.21032 9.09306 4.2466C9.06409 4.25588 9.06337 4.23394 9.06264 4.19682C9.04526 4.17404 9.03947 4.14282 9.02643 4.11244C9.01919 4.08376 9.00181 4.06182 8.99022 4.02807C8.97284 3.99685 8.95763 3.98757 8.94242 3.95129C8.9359 3.93441 8.93735 3.91248 8.92432 3.90235C8.90476 3.87282 8.89173 3.8686 8.85769 3.86691C8.83162 3.87366 8.82148 3.88716 8.79758 3.89476C8.77875 3.90235 8.74254 3.89982 8.71936 3.9091C8.71357 3.92007 8.73095 3.92598 8.73747 3.95129C8.72154 3.96648 8.71574 3.99263 8.70705 4.01457C8.69257 4.03566 8.68315 4.04579 8.67663 4.07785C8.68677 4.09726 8.67808 4.12341 8.66505 4.14113C8.6607 4.17319 8.64694 4.19091 8.64042 4.21791C8.62159 4.23394 8.61435 4.24829 8.59842 4.27444C8.58466 4.29723 8.57235 4.29554 8.53831 4.29554C8.51151 4.2871 8.50789 4.27023 8.48399 4.2601C8.48182 4.25166 8.47965 4.24913 8.47168 4.2466" stroke="#782600" stroke-width="0.0430805"/>
<path fill-rule="evenodd" clip-rule="evenodd" d="M8.51487 4.19767C8.51487 4.19767 8.50432 4.32775 8.41995 4.41564C8.33557 4.50353 8.15979 4.60548 8.15979 4.60548C8.15979 4.60548 8.39534 4.4965 8.41995 4.51759C8.44456 4.5422 8.26877 4.73907 8.26877 4.73907C8.26877 4.73907 8.49729 4.53165 8.52893 4.53165C8.56057 4.53165 8.62385 4.73204 8.64846 4.72853C8.67307 4.72501 8.59573 4.4754 8.60627 4.43673C8.61682 4.39806 8.60627 4.19064 8.60627 4.19064L8.51487 4.19767ZM9.05979 4.18009C9.05979 4.18009 9.04924 4.32072 8.96135 4.41212C8.87346 4.50353 8.7012 4.61603 8.7012 4.61603C8.7012 4.61603 8.94026 4.4965 8.96135 4.52462C8.98596 4.54923 8.81018 4.75665 8.81018 4.75665C8.81018 4.75665 9.04221 4.53868 9.07034 4.53868C9.09846 4.53868 9.16877 4.74962 9.19338 4.74962C9.21799 4.74259 9.13713 4.4754 9.1512 4.43322C9.16174 4.39454 9.1512 4.16954 9.1512 4.16954L9.05979 4.18009ZM8.2969 2.90392C8.2969 2.93204 8.27229 2.95314 8.24065 2.95314C8.20901 2.95314 8.1844 2.93204 8.1844 2.90392C8.1844 2.87579 8.20901 2.85822 8.24065 2.85822C8.27229 2.85822 8.2969 2.87931 8.2969 2.90392Z" fill="#812E00"/>
</g>
<defs>
<clipPath id="clip0_14_1339">
<rect width="18" height="18" rx="9" fill="white"/>
</clipPath>
</defs>
</svg>
