<svg width="18" height="18" viewBox="0 0 18 18" fill="none" xmlns="http://www.w3.org/2000/svg">
<g clip-path="url(#clip0_8201_10352)">
<path d="M9 18C13.9706 18 18 13.9706 18 9C18 4.02944 13.9706 0 9 0C4.02944 0 0 4.02944 0 9C0 13.9706 4.02944 18 9 18Z" fill="#F0F0F0"/>
<path d="M8.99978 0C5.13009 0 1.83121 2.44237 0.55957 5.86958H17.44C16.1683 2.44237 12.8695 0 8.99978 0Z" fill="#D80027"/>
<path d="M8.99978 18C12.8695 18 16.1683 15.5576 17.44 12.1304H0.55957C1.83121 15.5576 5.13009 18 8.99978 18Z" fill="black"/>
<path d="M12.1305 8.02175H9.7827C9.7827 7.58954 9.43229 7.23914 9.00008 7.23914C8.56787 7.23914 8.21747 7.58954 8.21747 8.02175H5.86963C5.86963 8.454 6.24612 8.80436 6.67833 8.80436H6.65224C6.65224 9.23661 7.00261 9.58698 7.43486 9.58698C7.43486 10.0192 7.78522 10.3696 8.21747 10.3696H9.7827C10.2149 10.3696 10.5653 10.0192 10.5653 9.58698C10.9976 9.58698 11.3479 9.23661 11.3479 8.80436H11.3219C11.7541 8.80436 12.1305 8.454 12.1305 8.02175Z" fill="#FF9811"/>
</g>
<defs>
<clipPath id="clip0_8201_10352">
<rect width="18" height="18" fill="white"/>
</clipPath>
</defs>
</svg>
