<svg width="18" height="18" viewBox="0 0 18 18" fill="none" xmlns="http://www.w3.org/2000/svg">
<g clip-path="url(#clip0_14_1226)">
<path d="M0 11.9988H18V18H0V11.9988Z" fill="black"/>
<path d="M0 6.00116H18V11.9988H0V6.00116Z" fill="white"/>
<path d="M0 0H18V6.00117H0V0Z" fill="#CE1126"/>
<path d="M9.02389 9.07195L11.0789 10.9799L10.9319 7.51495C10.9109 6.98995 10.4549 7.10995 10.1219 7.29895C9.78889 7.51495 9.40189 7.51495 8.99989 7.37395C8.59489 7.51495 8.21089 7.51495 7.87789 7.29895C7.5479 7.10995 7.0889 6.98995 7.0679 7.51495L6.9209 10.9799L9.02389 9.07195Z" fill="white" stroke="#C09300" stroke-width="0.0693331" stroke-linejoin="round"/>
<path d="M7.3049 7.39496L7.1609 10.7639L6.9209 10.9799L7.0679 7.51496C7.13877 7.4606 7.21914 7.41991 7.3049 7.39496ZM7.5929 7.63496L7.4729 10.4549L7.2329 10.7009L7.3769 7.44596C7.4249 7.49396 7.5659 7.61096 7.5929 7.63496ZM7.85389 7.85096L7.7609 10.2029L7.5659 10.3919L7.6859 7.70996C7.7339 7.75496 7.82989 7.82396 7.85389 7.85096ZM8.13889 7.97096L8.04589 9.97495L7.85689 10.1279L7.94989 7.89896C7.99789 7.91996 8.09089 7.97096 8.13889 7.97096ZM8.40289 7.97096L8.33389 9.64195L8.13889 9.83095L8.21389 7.99196C8.25889 7.99196 8.38189 7.99196 8.40289 7.97096Z" fill="#C09300"/>
<path d="M10.6949 7.39496L10.8389 10.7639L11.0789 10.9799L10.9319 7.51496C10.861 7.4606 10.7806 7.41991 10.6949 7.39496ZM10.4069 7.63496L10.5269 10.4549L10.7669 10.7009L10.6229 7.44596C10.5749 7.49396 10.4339 7.61096 10.4069 7.63496ZM10.1459 7.85096L10.2389 10.2029L10.4339 10.3919L10.3139 7.70996C10.2659 7.75496 10.1699 7.82396 10.1459 7.85096ZM9.86086 7.97096L9.95386 9.97495L10.1429 10.1279L10.0499 7.89896C10.0019 7.91996 9.90886 7.97096 9.86086 7.97096ZM9.59686 7.97096L9.66586 9.64195L9.86086 9.83095L9.78586 7.99196C9.74086 7.99196 9.61786 7.99196 9.59686 7.97096Z" fill="#C09300"/>
<path d="M9.09596 9.44995L9.38396 10.7639L9.28796 10.8599L9.18896 10.7849L9.02696 9.61495L9.09596 10.7849L8.99996 10.9049L8.90697 10.7849L8.97597 9.61495L8.81097 10.7849L8.71197 10.8599L8.61597 10.7639L8.90396 9.45295H9.09596V9.44995Z" fill="#C09300" stroke="#C09300" stroke-width="0.0586664"/>
<path d="M8.35498 8.87396L7.78198 10.905L8.57098 11.025L8.90398 9.49796L8.35498 8.87396Z" fill="white" stroke="#C09300" stroke-width="0.0639997" stroke-linejoin="round"/>
<path d="M8.16602 9.56995L8.23501 9.73495L8.60701 9.38095" stroke="#C09300" stroke-width="0.0693331" stroke-linejoin="round"/>
<path d="M8.42401 9.14996L8.50201 9.87896L8.73901 9.56696M8.64301 9.68696L8.77201 10.137M8.82301 9.97196L8.56201 10.368M8.64301 10.764L8.55901 10.368M8.55901 10.368L8.48701 9.96596L8.31001 10.203L8.23501 9.92996L7.98901 10.182L8.11201 10.638L8.28601 10.356L8.37901 10.644L8.55901 10.368Z" stroke="#C09300" stroke-width="0.0693331" stroke-linejoin="round"/>
<path d="M7.94995 10.8599L8.10895 10.6349L8.21095 10.9799L8.35495 10.7399L8.44795 11.0279" stroke="#C09300" stroke-width="0.0693331" stroke-linejoin="round"/>
<path d="M9.64478 8.87396L10.2178 10.905L9.42878 11.025L9.09578 9.49796L9.64478 8.87396Z" fill="white" stroke="#C09300" stroke-width="0.0639997" stroke-linejoin="round"/>
<path d="M9.83374 9.56995L9.76474 9.73495L9.39274 9.38095" stroke="#C09300" stroke-width="0.0693331" stroke-linejoin="round"/>
<path d="M9.57574 9.14996L9.49774 9.87896L9.26075 9.56696M9.35674 9.68696L9.22775 10.137M9.17674 9.97196L9.43774 10.368M9.35674 10.764L9.44074 10.368M9.44074 10.368L9.51274 9.96596L9.68974 10.203L9.76474 9.92996L10.0107 10.182L9.88774 10.638L9.71374 10.356L9.62074 10.644L9.44074 10.368Z" stroke="#C09300" stroke-width="0.0693331" stroke-linejoin="round"/>
<path d="M10.0498 10.8599L9.89081 10.6349L9.78881 10.9799L9.64481 10.7399L9.55181 11.0279" stroke="#C09300" stroke-width="0.0693331" stroke-linejoin="round"/>
<path d="M8.99981 11.8139C9.5998 11.8139 10.1698 11.7659 10.5058 11.6729C10.6468 11.6459 10.6468 11.5739 10.6468 11.4779C10.7908 11.4299 10.7188 11.2619 10.8178 11.2619C10.7158 11.2919 10.6978 11.0969 10.5778 11.1209C10.5778 10.9529 10.4068 10.9319 10.2658 10.9799C9.9808 11.0729 9.47681 11.0969 8.99981 11.0969C8.51981 11.0729 8.02181 11.0729 7.73381 10.9769C7.59281 10.9319 7.42481 10.9529 7.42481 11.1209C7.30481 11.0969 7.28381 11.2889 7.18481 11.2619C7.28381 11.2619 7.20881 11.4329 7.35281 11.4779C7.35281 11.5739 7.35281 11.6459 7.49681 11.6729C7.82681 11.7659 8.40281 11.8139 8.99981 11.8139Z" fill="white" stroke="#C09300" stroke-width="0.127999" stroke-linecap="round" stroke-linejoin="round"/>
<path d="M8.18681 10.9049C8.37881 10.9319 8.59481 10.9529 8.76281 10.9319C8.85881 10.9319 8.92781 11.0969 8.73581 11.1209C8.57081 11.1419 8.30681 11.1209 8.16581 11.0969C7.98026 11.0644 7.7961 11.0244 7.61381 10.9769C7.44581 10.9049 7.56581 10.7669 7.66181 10.7849C7.83308 10.8398 8.00871 10.8799 8.18681 10.9049ZM9.8128 10.9049C9.6208 10.9319 9.40481 10.9529 9.24281 10.9319C9.14081 10.9319 9.07181 11.0969 9.26381 11.1209C9.43181 11.1419 9.6928 11.1209 9.8338 11.0969C9.9538 11.0729 10.2178 11.0279 10.3858 10.9769C10.5538 10.9049 10.4338 10.7669 10.3378 10.7849C10.1665 10.8398 9.9909 10.88 9.8128 10.9049Z" fill="white" stroke="#C09300" stroke-width="0.0693331" stroke-linecap="round" stroke-linejoin="round"/>
<path d="M7.58986 10.8119C7.44586 10.7849 7.37986 10.9529 7.42486 11.0489C7.44586 11.0009 7.54486 11.0009 7.56586 10.9529C7.59286 10.8809 7.54486 10.8809 7.59286 10.8119H7.58986ZM8.16586 11.2529C8.16586 11.1569 8.25886 11.1689 8.25886 11.0729C8.25886 11.0279 8.23486 10.9529 8.18686 10.9529C8.16186 10.9544 8.13827 10.9649 8.12056 10.9826C8.10286 11.0003 8.09229 11.0239 8.09086 11.0489C8.06986 11.1419 8.16586 11.1569 8.16586 11.2529ZM8.84685 10.9799C8.98785 10.9799 8.97285 11.1689 8.90685 11.2649C8.90685 11.1959 8.78685 11.1689 8.78685 11.1209C8.78685 11.0489 8.89485 11.0489 8.84685 10.9799ZM10.4068 10.8119C10.5538 10.7849 10.6228 10.9529 10.5748 11.0489C10.5538 11.0009 10.4548 11.0009 10.4338 10.9529C10.4068 10.8809 10.4548 10.8809 10.4068 10.8119ZM9.83985 11.2499C9.83985 11.1539 9.74385 11.1659 9.74385 11.0699C9.74385 11.0249 9.76785 10.9499 9.81585 10.9499C9.84084 10.9514 9.86444 10.9619 9.88214 10.9796C9.89984 10.9973 9.91042 11.0209 9.91185 11.0459C9.93285 11.1389 9.83685 11.1539 9.83685 11.2499H9.83985ZM9.14985 10.9799C9.00885 10.9799 9.02385 11.1689 9.08985 11.2649C9.08985 11.1959 9.20985 11.1689 9.20985 11.1209C9.20985 11.0489 9.10185 11.0489 9.14985 10.9799Z" fill="white" stroke="#C09300" stroke-width="0.0693331" stroke-linecap="round" stroke-linejoin="round"/>
<path d="M7.64087 10.8599C7.68887 10.8599 7.76087 10.8809 7.78187 10.9079L7.64087 10.8599ZM7.87787 10.9319C7.90187 10.9319 7.99787 10.9529 8.04287 10.9799L7.87787 10.9319ZM8.73586 11.0279C8.69087 11.0279 8.59487 11.0279 8.57087 11.0489L8.73586 11.0249V11.0279ZM8.47487 11.0279C8.44787 11.0009 8.35487 11.0009 8.30687 11.0279H8.47487ZM10.3589 10.8599C10.308 10.8606 10.2586 10.8774 10.2179 10.9079L10.3589 10.8599ZM10.1249 10.9319C10.0949 10.9319 10.0049 10.9529 9.95686 10.9799L10.1249 10.9319ZM9.26386 11.0279C9.30886 11.0279 9.40486 11.0279 9.43186 11.0489L9.26386 11.0249V11.0279ZM9.52486 11.0279C9.55186 11.0009 9.64486 11.0009 9.69286 11.0279H9.52486Z" fill="white" stroke="#C09300" stroke-width="0.0479998" stroke-linecap="round" stroke-linejoin="round"/>
<path d="M7.59898 11.2379C7.58398 11.2349 7.57498 11.2199 7.58098 11.2079C7.58398 11.1869 7.59898 11.1779 7.61098 11.1839C7.62298 11.1839 7.63798 11.2019 7.63798 11.2079L7.62598 11.2289L7.61998 11.2319C7.61998 11.2379 7.60798 11.2379 7.59898 11.2379ZM9.24897 11.3549C9.24297 11.3549 9.23097 11.3399 9.23097 11.3339C9.23097 11.3219 9.24897 11.3039 9.26097 11.3039L9.28497 11.3159C9.29397 11.3249 9.29397 11.3429 9.28197 11.3519C9.27597 11.3579 9.25797 11.3579 9.24897 11.3519V11.3549ZM9.25797 11.4299C9.24597 11.4239 9.24297 11.4179 9.23997 11.4059C9.23997 11.3909 9.23997 11.3879 9.25497 11.3789L9.26697 11.3729L9.27897 11.3789C9.29097 11.3849 9.29997 11.3909 9.29997 11.4029C9.29997 11.4119 9.29097 11.4209 9.27897 11.4269C9.26997 11.4329 9.26697 11.4329 9.25797 11.4269V11.4299Z" fill="#C09300"/>
<path d="M7.73389 11.0999C7.72189 11.0999 7.70689 11.1119 7.69789 11.1179C7.67989 11.1209 7.65589 11.1329 7.63789 11.1179C7.61989 11.1149 7.59589 11.1179 7.59289 11.1419C7.59589 11.1629 7.62289 11.1719 7.64089 11.1599C7.65289 11.1449 7.68589 11.1329 7.69189 11.1599C7.67689 11.1839 7.67989 11.2109 7.66789 11.2319C7.66789 11.2469 7.65889 11.2589 7.65289 11.2709C7.63789 11.2709 7.62289 11.2709 7.61089 11.2799C7.60157 11.2799 7.59239 11.2821 7.58406 11.2862C7.57572 11.2904 7.56848 11.2965 7.56289 11.3039C7.55089 11.3219 7.53889 11.3399 7.53589 11.3639C7.53889 11.3819 7.56589 11.3879 7.58389 11.3909L7.64389 11.4089L7.73989 11.4359C7.78789 11.4509 7.83589 11.4569 7.88389 11.4689L7.89889 11.4719C7.91989 11.4779 7.92889 11.4569 7.92889 11.4419L7.95889 11.3339C7.96489 11.3189 7.97389 11.2889 7.94689 11.2949C7.93189 11.3039 7.91689 11.3189 7.89889 11.3189C7.87189 11.3189 7.88689 11.3489 7.89889 11.3579C7.89889 11.3759 7.89289 11.3969 7.88389 11.4119C7.86589 11.4209 7.84789 11.4119 7.82989 11.4059C7.81489 11.4059 7.77889 11.3969 7.79389 11.3759L7.80889 11.3219C7.81789 11.3039 7.81789 11.2829 7.82389 11.2619C7.81189 11.2409 7.79389 11.2709 7.77889 11.2739C7.76689 11.2799 7.73089 11.2829 7.74889 11.3039C7.76689 11.3159 7.75489 11.3369 7.74889 11.3549C7.74889 11.3759 7.72489 11.3849 7.70689 11.3759C7.68889 11.3759 7.66189 11.3609 7.67689 11.3429L7.69189 11.2889L7.71289 11.2289C7.71289 11.2079 7.72189 11.1929 7.73089 11.1749C7.73089 11.1539 7.74589 11.1359 7.74589 11.1149C7.74589 11.1059 7.73989 11.1029 7.73389 11.1029V11.0999ZM7.62289 11.3189C7.62426 11.3181 7.62581 11.3177 7.62739 11.3177C7.62897 11.3177 7.63052 11.3181 7.63189 11.3189C7.63789 11.3249 7.63789 11.3309 7.63189 11.3369L7.62289 11.3429C7.60789 11.3429 7.60489 11.3399 7.60489 11.3339C7.60489 11.3309 7.60489 11.3279 7.61389 11.3249C7.61754 11.3223 7.62159 11.3203 7.62589 11.3189H7.62289ZM7.59289 11.4689C7.57789 11.4569 7.58089 11.4479 7.60189 11.4299C7.61389 11.4239 7.61689 11.4239 7.62889 11.4329C7.64689 11.4479 7.64689 11.4569 7.62889 11.4719C7.62289 11.4779 7.61989 11.4779 7.61389 11.4779C7.60489 11.4779 7.60189 11.4779 7.59289 11.4719V11.4689ZM7.68289 11.4989C7.67619 11.4968 7.67056 11.4922 7.6672 11.4861C7.66384 11.4799 7.66301 11.4727 7.66489 11.4659C7.67089 11.4539 7.67389 11.4509 7.69189 11.4509C7.71289 11.4509 7.71589 11.4539 7.71889 11.4719C7.71889 11.4839 7.71889 11.4869 7.70989 11.4929C7.70654 11.4956 7.70267 11.4975 7.69854 11.4985C7.6944 11.4995 7.69009 11.4997 7.68589 11.4989H7.68289ZM10.3589 11.4989C10.3529 11.4959 10.3499 11.4929 10.3499 11.4839C10.3499 11.4719 10.3559 11.4629 10.3739 11.4569C10.3919 11.4479 10.4039 11.4479 10.4099 11.4629C10.4189 11.4809 10.4189 11.4869 10.4069 11.4989C10.4009 11.5079 10.3979 11.5079 10.3829 11.5079C10.3679 11.5079 10.3649 11.5079 10.3589 11.5019V11.4989ZM7.80889 11.5349C7.79689 11.5349 7.79089 11.5229 7.79089 11.5109C7.79089 11.5019 7.79089 11.4989 7.79689 11.4929L7.81489 11.4869L7.83289 11.4899C7.84789 11.5019 7.85089 11.5139 7.84189 11.5259C7.83289 11.5379 7.82389 11.5379 7.80589 11.5349H7.80889ZM8.46288 11.5649L8.45688 11.5559C8.45688 11.5379 8.45688 11.5229 8.46288 11.5049C8.46588 11.4899 8.46288 11.4749 8.46888 11.4599L8.48089 11.3759C8.48089 11.3609 8.48088 11.3459 8.48688 11.3339C8.48988 11.3099 8.48688 11.2889 8.49288 11.2679C8.49288 11.2589 8.50188 11.2379 8.51088 11.2499C8.52288 11.2679 8.53788 11.2799 8.55288 11.2949C8.56488 11.3039 8.55288 11.3159 8.54388 11.3189C8.53188 11.3219 8.52888 11.3369 8.52888 11.3489L8.52288 11.3849C8.52288 11.4059 8.52288 11.4239 8.51688 11.4449L8.51388 11.4989L8.50788 11.5349C8.50788 11.5469 8.50788 11.5619 8.49588 11.5679C8.48688 11.5739 8.47189 11.5739 8.46589 11.5649H8.46288ZM9.35388 11.2709L9.31488 11.3069C9.29688 11.3219 9.32988 11.3279 9.33288 11.3399C9.33888 11.3579 9.33888 11.3759 9.33888 11.3939C9.34488 11.4119 9.34788 11.4269 9.34488 11.4449C9.34488 11.4659 9.32088 11.4599 9.30888 11.4719C9.29388 11.4779 9.28788 11.4929 9.27888 11.5019C9.27175 11.517 9.26767 11.5333 9.26688 11.5499C9.26688 11.5649 9.25788 11.5799 9.26688 11.5919L9.26988 11.5979H9.28488L9.32988 11.5949C9.36588 11.5889 9.40488 11.5889 9.44088 11.5859L9.50688 11.5799C9.52488 11.5829 9.53388 11.5649 9.53388 11.5499C9.52188 11.5289 9.53088 11.5079 9.52188 11.4899C9.51588 11.4659 9.51888 11.4449 9.51588 11.4239C9.51588 11.4059 9.49488 11.3999 9.48588 11.4119C9.47388 11.4239 9.45588 11.4269 9.44988 11.4389C9.44088 11.4569 9.46788 11.4569 9.47388 11.4689L9.47688 11.5139C9.47988 11.5319 9.46188 11.5319 9.44688 11.5349C9.43188 11.5409 9.41088 11.5439 9.40188 11.5259C9.39588 11.5109 9.39588 11.4959 9.39588 11.4809C9.39588 11.4509 9.38688 11.4269 9.38688 11.3999C9.38688 11.3699 9.37788 11.3369 9.37788 11.3039C9.37788 11.2889 9.37488 11.2679 9.35388 11.2709ZM9.33588 11.5169H9.34488V11.5409L9.33588 11.5439C9.33195 11.5452 9.32794 11.5462 9.32388 11.5469C9.32188 11.547 9.31988 11.547 9.31788 11.5469C9.31188 11.5409 9.31188 11.5319 9.32088 11.5229L9.33588 11.5169ZM8.43589 11.2409C8.42689 11.2409 8.41188 11.2619 8.39988 11.2589C8.37289 11.2619 8.37588 11.2889 8.39688 11.2979V11.3219C8.39988 11.3459 8.38489 11.3669 8.38789 11.3909C8.38789 11.4149 8.37888 11.4419 8.37888 11.4689C8.36988 11.4959 8.36988 11.5229 8.36688 11.5499C8.36388 11.5739 8.34589 11.5649 8.33089 11.5589V11.5289C8.33389 11.5019 8.31589 11.4959 8.29489 11.4929C8.27389 11.4929 8.26489 11.4779 8.27089 11.4599C8.27989 11.4479 8.30089 11.4509 8.31589 11.4509C8.34589 11.4569 8.34289 11.4179 8.32789 11.4029C8.31589 11.3849 8.29189 11.3729 8.28589 11.3549C8.28589 11.3309 8.27089 11.3039 8.24989 11.2919C8.21689 11.2889 8.18989 11.3159 8.18089 11.3459C8.16589 11.3459 8.15089 11.3519 8.13889 11.3579C8.11789 11.3639 8.08789 11.3999 8.11789 11.4149C8.13289 11.4179 8.18389 11.4299 8.15989 11.4509C8.14789 11.4749 8.12389 11.4749 8.10289 11.4689C8.08189 11.4689 8.05789 11.4569 8.05789 11.4329C8.05489 11.4089 8.05489 11.3849 8.04589 11.3639C8.03989 11.3399 8.01289 11.3459 8.00989 11.3699C7.98889 11.3849 7.99189 11.4119 8.00689 11.4299C8.01589 11.4509 8.00689 11.4779 7.99789 11.4959C7.99189 11.5259 7.96189 11.5259 7.94089 11.5319C7.93189 11.5379 7.89289 11.5319 7.90789 11.5529C7.93038 11.5633 7.95553 11.5664 7.97989 11.5619C8.00389 11.5619 8.02489 11.5409 8.03989 11.5199C8.05489 11.5049 8.08189 11.5139 8.10589 11.5139C8.12689 11.5139 8.15089 11.5289 8.17489 11.5169C8.18089 11.5019 8.21089 11.4719 8.21989 11.5019C8.21989 11.5289 8.24089 11.5409 8.26489 11.5379C8.29189 11.5379 8.27989 11.5559 8.27989 11.5739C8.27989 11.6009 8.30089 11.6159 8.32489 11.6279H8.34888C8.36988 11.6189 8.39389 11.6099 8.40289 11.5859C8.41189 11.5649 8.41189 11.5409 8.41789 11.5199C8.42389 11.4869 8.42988 11.4509 8.42988 11.4179C8.43888 11.3879 8.43588 11.3549 8.44188 11.3219L8.45089 11.2529C8.45089 11.2379 8.44489 11.2379 8.43589 11.2409ZM8.23489 11.3639C8.23789 11.3639 8.24089 11.3699 8.24089 11.3789C8.24089 11.3909 8.24689 11.3999 8.25589 11.4029V11.4119L8.23189 11.4179C8.21689 11.4179 8.20489 11.4119 8.19589 11.4029L8.18989 11.3969L8.19889 11.3909L8.21389 11.3759C8.22289 11.3669 8.22889 11.3639 8.23489 11.3639ZM10.2149 11.1269C10.1976 11.1282 10.1805 11.1312 10.1639 11.1359C10.1339 11.1359 10.1189 11.1659 10.1489 11.1839C10.1669 11.2289 10.1939 11.1719 10.2239 11.1779C10.2659 11.1839 10.2689 11.2319 10.2779 11.2679C10.2779 11.3009 10.2899 11.3339 10.2989 11.3669C10.3289 11.3999 10.2779 11.4209 10.2569 11.3969C10.2389 11.3759 10.1969 11.3519 10.1759 11.3789C10.1489 11.3909 10.1459 11.4269 10.1249 11.4389C10.0889 11.4479 10.0859 11.4029 10.0649 11.3849C10.0469 11.3579 10.0139 11.3549 9.98688 11.3489C9.97488 11.3219 9.98088 11.2769 9.95688 11.2589C9.93288 11.2679 9.89088 11.3099 9.92688 11.3309C9.95688 11.3609 9.91188 11.3729 9.89688 11.3909C9.87288 11.4179 9.86688 11.4509 9.86688 11.4809C9.82788 11.5019 9.82188 11.4569 9.81588 11.4299C9.81588 11.3969 9.78588 11.4059 9.76488 11.4179C9.73488 11.4299 9.72288 11.4569 9.70488 11.4779V11.5379C9.71088 11.5649 9.74088 11.5529 9.75888 11.5499C9.78888 11.5379 9.80088 11.5709 9.77688 11.5889C9.75888 11.6069 9.71088 11.5979 9.71688 11.6309H9.76488C9.79488 11.6219 9.83088 11.5979 9.83388 11.5619C9.83988 11.5319 9.88488 11.5349 9.90888 11.5289C9.93888 11.5199 9.97788 11.5169 9.98688 11.5589C10.0079 11.5799 10.0529 11.6039 10.0769 11.5739C10.0883 11.5667 10.0975 11.5564 10.1033 11.5442C10.1091 11.532 10.1114 11.5184 10.1099 11.5049C10.1069 11.4809 10.1489 11.4809 10.1609 11.4959C10.1759 11.5199 10.2239 11.5139 10.2479 11.4959C10.2719 11.4809 10.2779 11.4479 10.3139 11.4479L10.4759 11.4029C10.5179 11.3939 10.4699 11.3669 10.4579 11.3489C10.4279 11.3339 10.3979 11.3999 10.3619 11.3669C10.3319 11.3459 10.3349 11.3069 10.3259 11.2739C10.3169 11.2319 10.3199 11.1839 10.2899 11.1539C10.2719 11.1329 10.2419 11.1269 10.2149 11.1269ZM10.0109 11.4119C10.0139 11.4119 10.0199 11.4119 10.0259 11.4179C10.0379 11.4239 10.0469 11.4359 10.0469 11.4479C10.0469 11.4539 10.0469 11.4539 10.0379 11.4569L10.0229 11.4629C10.0169 11.4629 10.0019 11.4539 10.0019 11.4479V11.4359C9.99588 11.4239 9.99588 11.4239 10.0019 11.4179L10.0109 11.4119ZM10.2059 11.4239C10.2179 11.4239 10.2239 11.4239 10.2299 11.4329C10.2329 11.4449 10.2299 11.4509 10.2179 11.4569L10.2029 11.4629L10.1909 11.4539C10.1849 11.4509 10.1819 11.4479 10.1819 11.4419C10.1819 11.4329 10.1939 11.4239 10.2059 11.4209V11.4239ZM9.93588 11.4239C9.94188 11.4239 9.94488 11.4239 9.94788 11.4299C9.95388 11.4359 9.95688 11.4389 9.95688 11.4479V11.4659C9.95688 11.4749 9.95688 11.4719 9.93888 11.4719C9.92088 11.4719 9.91788 11.4719 9.91788 11.4539C9.91788 11.4419 9.91788 11.4389 9.92688 11.4329C9.92988 11.4269 9.93588 11.4269 9.93888 11.4269L9.93588 11.4239ZM9.77388 11.4689C9.77671 11.4698 9.77929 11.4713 9.78138 11.4734C9.78348 11.4755 9.78502 11.4781 9.78588 11.4809C9.78588 11.4899 9.78588 11.4959 9.77988 11.4989C9.77088 11.5019 9.75588 11.5049 9.74988 11.4989C9.7498 11.4979 9.7498 11.4969 9.74988 11.4959C9.74388 11.4929 9.74388 11.4899 9.74988 11.4869V11.4839L9.75588 11.4749C9.75773 11.472 9.76053 11.4698 9.76381 11.4687C9.76709 11.4676 9.77065 11.4677 9.77388 11.4689ZM10.0499 11.5049L10.0649 11.5079V11.5259H10.0289L10.0259 11.5199C10.0259 11.5139 10.0259 11.5109 10.0319 11.5079L10.0499 11.5049ZM9.53688 11.6489C9.53388 11.6489 9.52788 11.6459 9.53388 11.6429C9.53688 11.6339 9.54888 11.6309 9.55788 11.6249C9.57422 11.6187 9.58868 11.6083 9.59988 11.5949C9.59988 11.5829 9.61188 11.5769 9.61188 11.5649L9.60888 11.5229C9.60483 11.5103 9.59629 11.4996 9.58488 11.4929C9.57588 11.4899 9.56388 11.4869 9.56088 11.4749C9.56088 11.4659 9.56988 11.4569 9.57288 11.4479L9.59088 11.4119C9.59988 11.4029 9.61188 11.4119 9.61488 11.4179L9.62988 11.4479C9.63888 11.4569 9.64488 11.4659 9.64788 11.4779C9.65388 11.4899 9.65988 11.4989 9.65988 11.5079L9.66588 11.5469C9.66588 11.5619 9.66588 11.5799 9.65988 11.5949L9.64188 11.6189C9.63288 11.6279 9.62388 11.6369 9.61188 11.6399C9.60288 11.6429 9.59688 11.6519 9.58488 11.6519H9.53988L9.53688 11.6489ZM9.32988 11.6609C9.32388 11.6549 9.32088 11.6519 9.32088 11.6429C9.32088 11.6339 9.32088 11.6339 9.32988 11.6249C9.34188 11.6129 9.34788 11.6129 9.37188 11.6249C9.39288 11.6369 9.40188 11.6369 9.40188 11.6279C9.40488 11.6219 9.41688 11.6129 9.43188 11.6129C9.43742 11.6131 9.44272 11.6152 9.44688 11.6189C9.45288 11.6249 9.45588 11.6279 9.45588 11.6399C9.45588 11.6549 9.45588 11.6549 9.44688 11.6639C9.43788 11.6699 9.43788 11.6699 9.42588 11.6699C9.42055 11.6696 9.41542 11.6678 9.41115 11.6646C9.40688 11.6613 9.40365 11.6569 9.40188 11.6519C9.40188 11.6459 9.40188 11.6429 9.39588 11.6489L9.38988 11.6519C9.38388 11.6519 9.37188 11.6609 9.36588 11.6669L9.35088 11.6699C9.33888 11.6699 9.33888 11.6699 9.32988 11.6609ZM8.73588 11.3939C8.71488 11.3939 8.69388 11.4119 8.69088 11.4329C8.69688 11.4539 8.71488 11.4779 8.70288 11.4989C8.71188 11.5289 8.67888 11.5409 8.65788 11.5259C8.64588 11.4959 8.63988 11.4659 8.61888 11.4359C8.59488 11.4299 8.58588 11.4689 8.56788 11.4839C8.57688 11.5049 8.60088 11.5259 8.60388 11.5529C8.60988 11.5829 8.59188 11.6129 8.57088 11.6249C8.54988 11.6459 8.51988 11.6399 8.49588 11.6429C8.46589 11.6609 8.51688 11.6669 8.53188 11.6669C8.56188 11.6699 8.59488 11.6669 8.62188 11.6429C8.64288 11.6339 8.63988 11.5919 8.66688 11.5889L8.81088 11.5979C8.83488 11.6039 8.87388 11.5949 8.89188 11.6129C8.89188 11.6429 8.92188 11.6669 8.94888 11.6789C8.96388 11.6849 8.97888 11.6639 8.99388 11.6609C9.02388 11.6519 9.01488 11.6159 9.03288 11.6009H9.18288C9.18888 11.6009 9.19188 11.5859 9.20088 11.5799L9.19488 11.5229C9.18588 11.4989 9.19488 11.4689 9.17988 11.4479C9.15288 11.4419 9.13188 11.4629 9.10788 11.4659C9.07788 11.4779 9.05688 11.5049 9.05388 11.5349C9.03888 11.5619 9.01188 11.5289 9.02388 11.5049L9.02088 11.4749C9.00588 11.4599 8.97888 11.4659 8.95788 11.4629L8.86788 11.4569C8.83788 11.4569 8.81088 11.4599 8.78688 11.4539C8.75688 11.4539 8.75688 11.4239 8.75688 11.3999C8.75089 11.3953 8.74339 11.3932 8.73588 11.3939ZM8.79588 11.5049L8.82588 11.5079H8.86488C8.89488 11.5139 8.92488 11.5139 8.95488 11.5139C8.96088 11.5139 8.96688 11.5199 8.97288 11.5259V11.5859C8.97288 11.5949 8.97288 11.6069 8.96688 11.6099C8.96531 11.6123 8.96327 11.6143 8.96088 11.6159C8.95649 11.6151 8.95232 11.6134 8.94869 11.6108C8.94505 11.6082 8.94205 11.6048 8.93988 11.6009V11.5589C8.93394 11.5539 8.92662 11.5507 8.91888 11.5499L8.84088 11.5469L8.78088 11.5439C8.77188 11.5409 8.75988 11.5439 8.75388 11.5319C8.74788 11.5259 8.75688 11.5139 8.76588 11.5109C8.77531 11.5067 8.78556 11.5046 8.79588 11.5049ZM9.13488 11.5139C9.13788 11.5139 9.14088 11.5139 9.14088 11.5229L9.14688 11.5379C9.14688 11.5409 9.14688 11.5439 9.14088 11.5439C9.12588 11.5499 9.11088 11.5499 9.10488 11.5439C9.10488 11.5409 9.10488 11.5289 9.11088 11.5259L9.13488 11.5139Z" fill="#C09300"/>
<path d="M8.99997 9.81595C9.97797 9.06595 9.89397 7.96196 9.89397 7.96196L9.81897 7.96796C9.61197 7.96796 9.12297 7.84796 9.00897 7.70096C8.88897 7.83596 8.38498 7.97096 8.18098 7.97096L8.10598 7.96196C8.10598 7.96196 8.01898 9.06295 8.99997 9.81595Z" fill="white" stroke="#C09300" stroke-width="0.0586664"/>
<path d="M9.81583 8.03995H9.79183C9.60583 8.03995 9.17383 7.94695 9.00584 7.80295C8.83184 7.93495 8.39084 8.04295 8.20784 8.04295C8.19977 8.04264 8.19174 8.04163 8.18384 8.03995C8.18548 8.22953 8.2117 8.4181 8.26184 8.60095C8.38217 9.04146 8.64089 9.43164 8.99984 9.71394C9.359 9.43057 9.61769 9.03938 9.73783 8.59794C9.78772 8.41607 9.81393 8.22853 9.81583 8.03995Z" fill="white" stroke="#C09300" stroke-width="0.0479998"/>
<path d="M8.68184 7.94996C8.52069 8.00244 8.35315 8.03271 8.18384 8.03996L8.18684 8.16296C8.19708 8.31012 8.22221 8.45586 8.26184 8.59796C8.34249 8.893 8.48573 9.16722 8.68184 9.40195V7.94996ZM9.29983 7.94996V9.42596C9.50538 9.18582 9.65499 8.903 9.73783 8.59796C9.77742 8.45585 9.80255 8.31012 9.81283 8.16296L9.81583 8.04296H9.79183C9.67783 8.04296 9.47983 8.00696 9.29983 7.94696V7.94996Z" fill="#C09300"/>
<path d="M9.36883 7.58996C9.38983 7.59296 9.34183 7.48496 9.34183 7.48496C9.39583 7.53896 9.59383 7.55396 9.59383 7.55396C9.47383 7.49996 9.35383 7.10096 9.36883 6.77996C9.38083 6.46196 9.32383 6.33596 9.27883 6.28796C9.21883 6.22796 9.02383 6.17396 8.89783 6.16796C8.82283 6.16496 8.83783 6.22196 8.83783 6.22196C8.70283 6.18896 8.56783 6.17396 8.50783 6.21596C8.45383 6.25196 8.44183 6.44096 8.48383 6.40796C8.58283 6.32696 8.66983 6.40196 8.72983 6.48896C8.78383 6.56396 8.78083 6.77996 8.70283 7.03496C8.63376 7.22773 8.53231 7.40731 8.40283 7.56596C8.52283 7.56596 8.69083 7.46096 8.69083 7.46096L8.65183 7.62596C8.77783 7.56596 8.87683 7.47296 8.87683 7.47296L8.99683 7.59896C9.03583 7.54496 9.11683 7.47296 9.11683 7.47296C9.11683 7.47296 9.21583 7.57796 9.36883 7.59296V7.58996Z" fill="white" stroke="#C09300" stroke-width="0.0639997"/>
<path d="M8.88292 6.82796C8.88292 6.82796 8.81692 7.31996 8.69092 7.45796M8.99092 6.81296C8.99092 6.81296 8.96092 7.31396 8.87692 7.47296M9.08392 6.83396C9.08392 6.83396 9.08392 7.37996 9.11392 7.47296M9.20392 6.86096C9.20392 6.86096 9.22792 7.31996 9.34191 7.48495" stroke="#C09300" stroke-width="0.0693331"/>
<path d="M8.75989 6.58797C8.7572 6.55318 8.74696 6.5194 8.72989 6.48897C8.66989 6.39897 8.58289 6.32697 8.48389 6.40797C8.48389 6.40797 8.51689 6.30297 8.59189 6.29997C8.64589 6.29697 8.77489 6.34197 8.88889 6.53397C8.88889 6.53397 8.80489 6.51597 8.78389 6.53397C8.74789 6.56397 8.76289 6.58797 8.76289 6.58797H8.75989Z" fill="#C09300" stroke="#C09300" stroke-width="0.0159999"/>
<path d="M8.47192 6.27896C8.48092 6.24896 8.49292 6.22496 8.51092 6.21596C8.57092 6.17396 8.70292 6.18596 8.83792 6.22196C8.83792 6.22196 8.82592 6.16496 8.89792 6.16796C9.02392 6.17396 9.21592 6.22796 9.27592 6.28796C9.29513 6.30906 9.31038 6.33345 9.32092 6.35996C9.29092 6.31796 9.20692 6.32096 9.18592 6.32396C9.15592 6.32696 9.13492 6.32396 9.09292 6.33596C9.07192 6.34196 9.04192 6.34796 9.02392 6.35996C9.01192 6.37196 8.99992 6.40796 8.98192 6.40796C8.95192 6.40796 8.95192 6.40196 8.94292 6.39296C8.93392 6.37796 8.92792 6.35996 8.91592 6.36296C8.88592 6.36596 8.83192 6.34196 8.76592 6.28796C8.69692 6.23396 8.66992 6.22196 8.58592 6.22796C8.49592 6.23396 8.47192 6.28496 8.47192 6.28496V6.27896Z" fill="#C09300" stroke="#C09300" stroke-width="0.0159999"/>
<path d="M8.96373 6.35697C8.98362 6.35697 8.99973 6.34086 8.99973 6.32097C8.99973 6.30109 8.98362 6.28497 8.96373 6.28497C8.94385 6.28497 8.92773 6.30109 8.92773 6.32097C8.92773 6.34086 8.94385 6.35697 8.96373 6.35697Z" fill="white"/>
</g>
<defs>
<clipPath id="clip0_14_1226">
<rect width="18" height="18" rx="9" fill="white"/>
</clipPath>
</defs>
</svg>
