<svg width="18" height="18" viewBox="0 0 18 18" fill="none" xmlns="http://www.w3.org/2000/svg">
<g clip-path="url(#clip0_14_1316)">
<path d="M0 0H18V9H0V0Z" fill="black"/>
<path d="M0 9H18V18H0V9Z" fill="#007A3D"/>
<path d="M0 5.24884H18V12.7477H0V5.24884Z" fill="white"/>
<path d="M0 0L9 9L0 18V0Z" fill="#C4111B"/>
<path d="M13.7109 11.4621C15.0707 11.4621 16.1731 10.3598 16.1731 8.99998C16.1731 7.64018 15.0707 6.53784 13.7109 6.53784C12.3511 6.53784 11.2488 7.64018 11.2488 8.99998C11.2488 10.3598 12.3511 11.4621 13.7109 11.4621Z" fill="#C4111B"/>
<path d="M14.6338 11.4621C15.9936 11.4621 17.0959 10.3598 17.0959 8.99998C17.0959 7.64018 15.9936 6.53784 14.6338 6.53784C13.274 6.53784 12.1716 7.64018 12.1716 8.99998C12.1716 10.3598 13.274 11.4621 14.6338 11.4621Z" fill="white"/>
<path d="M13.0512 10.4888L14.0966 9.73899L15.142 10.5032L14.7527 9.27035L15.7981 8.51333L14.5076 8.50612L14.111 7.28046L13.7037 8.50251L12.4167 8.49891L13.4513 9.26314L13.0512 10.4888Z" fill="#C4111B"/>
</g>
<defs>
<clipPath id="clip0_14_1316">
<rect width="18" height="18" rx="9" fill="white"/>
</clipPath>
</defs>
</svg>
