<svg width="18" height="18" viewBox="0 0 18 18" fill="none" xmlns="http://www.w3.org/2000/svg">
<g clip-path="url(#clip0_8201_10376)">
<path d="M8.2176 8.21741C8.2176 8.21741 2.6415 15.3653 2.63623 15.364C4.26488 16.9927 6.51491 18 9.00021 18C13.9707 18 18.0002 13.9706 18.0002 9.00002L8.2176 8.21741Z" fill="#338AF3"/>
<path d="M8.2176 9C8.2176 9 2.6415 2.63479 2.63623 2.63605C4.26488 1.00737 6.51491 0 9.00021 0C13.9707 0 18.0002 4.02947 18.0002 9H8.2176Z" fill="#6DA544"/>
<path d="M2.63603 2.63599C-0.878678 6.1507 -0.878678 11.8492 2.63603 15.364C2.63579 15.3654 18 8.99997 18 8.99997L2.63603 2.63599Z" fill="#D80027"/>
<path d="M4.69585 5.28259C2.96971 5.28259 1.56543 6.68691 1.56543 8.41301V9.58691C1.56543 11.313 2.96975 12.7173 4.69585 12.7173C6.42195 12.7173 7.82627 11.313 7.82627 9.58691V8.41301C7.8263 6.68691 6.42198 5.28259 4.69585 5.28259ZM6.65236 9.58695C6.65236 10.4614 6.07573 11.2035 5.28278 11.4534V10.1739L6.11331 9.34339L5.28324 8.51331L5.28278 8.21789V7.82611H4.10891V8.99998L3.27895 9.82991L4.10891 10.6598V11.4534C3.31597 11.2035 2.73933 10.4614 2.73933 9.58698V8.41308C2.73933 7.33424 3.61704 6.45657 4.69585 6.45657C5.77465 6.45657 6.65236 7.33428 6.65236 8.41308V9.58695Z" fill="#FFDA44"/>
</g>
<defs>
<clipPath id="clip0_8201_10376">
<rect width="18" height="18" fill="white"/>
</clipPath>
</defs>
</svg>
