<svg width="18" height="18" viewBox="0 0 18 18" fill="none" xmlns="http://www.w3.org/2000/svg">
<g clip-path="url(#clip0_8201_10866)">
<path d="M9 18C13.9706 18 18 13.9706 18 9C18 4.02944 13.9706 0 9 0C4.02944 0 0 4.02944 0 9C0 13.9706 4.02944 18 9 18Z" fill="#338AF3"/>
<path d="M4.3042 9.78259H13.6955V10.9565H4.3042V9.78259Z" fill="#818085"/>
<path d="M5.86963 6.26082L9.00005 6.65218L12.1305 6.26082V4.38257L10.8783 5.00866L9.00005 3.13037L7.12179 5.00866L5.86963 4.38257V6.26082Z" fill="#FFDA44"/>
<path d="M5.08702 12.1305H3.91309V9.9783L4.30441 9.39129L3.91309 8.80436V7.43481H5.08702V12.1305Z" fill="#F0F0F0"/>
<path d="M14.087 12.1305H12.9131V7.43481H14.087V8.80433L13.6957 9.40114L14.087 9.97837V12.1305Z" fill="#F0F0F0"/>
<path d="M3.91309 8.80432H14.087V9.97822H3.91309V8.80432Z" fill="#ACABB1"/>
<path d="M9.00005 13.6956C7.27391 13.6956 5.86963 12.2913 5.86963 10.5652V6.26086H12.1305V10.5652C12.1305 12.2913 10.7262 13.6956 9.00005 13.6956Z" fill="#F0F0F0"/>
<path d="M8.99997 12.5217C7.92113 12.5217 7.04346 11.644 7.04346 10.5652V7.43481H10.9565V10.5652C10.9565 11.644 10.0788 12.5217 8.99997 12.5217Z" fill="#0052B4"/>
<path d="M5.86963 6.26086H7.04353V7.43477H5.86963V6.26086Z" fill="#D80027"/>
<path d="M10.9565 6.26086H12.1304V7.43477H10.9565V6.26086Z" fill="#D80027"/>
<path d="M10.9565 8.80432H12.1304V9.97822H10.9565V8.80432Z" fill="#D80027"/>
<path d="M5.86963 8.80432H7.04353V9.97822H5.86963V8.80432Z" fill="#D80027"/>
<path d="M8.41309 6.26086H9.58699V7.43477H8.41309V6.26086Z" fill="#D80027"/>
<path d="M9.00005 12.5217C8.79559 12.5217 8.59846 12.4901 8.41309 12.4316V13.6396C8.60335 13.6759 8.79938 13.6956 9.00005 13.6956C9.20073 13.6956 9.39676 13.6759 9.58702 13.6396V12.4316C9.40165 12.49 9.20452 12.5217 9.00005 12.5217Z" fill="#D80027"/>
<path d="M7.06966 10.8828L6.13281 11.8197C6.29523 12.1895 6.52698 12.522 6.81182 12.8008L7.64151 11.9711C7.34542 11.685 7.13916 11.3068 7.06966 10.8828Z" fill="#D80027"/>
<path d="M11.8671 11.8198L10.9302 10.8829C10.8607 11.3068 10.6544 11.6851 10.3584 11.9713L11.1881 12.801C11.4729 12.5221 11.7046 12.1896 11.8671 11.8198Z" fill="#D80027"/>
</g>
<defs>
<clipPath id="clip0_8201_10866">
<rect width="18" height="18" fill="white"/>
</clipPath>
</defs>
</svg>
