<svg width="18" height="18" viewBox="0 0 18 18" fill="none" xmlns="http://www.w3.org/2000/svg">
<g clip-path="url(#clip0_8201_10385)">
<path d="M0 8.99995C0 10.1009 0.198035 11.1554 0.559828 12.1305L9 12.913L17.4402 12.1304C17.802 11.1554 18 10.1009 18 8.99995C18 7.91414 17.8077 6.87327 17.4553 5.90954L9 5.08691L0.544711 5.90957C0.19234 6.87327 0 7.91414 0 8.99995H0Z" fill="#FFDA44"/>
<path d="M8.99978 18C12.8695 18 16.1683 15.5576 17.44 12.1304H0.55957C1.83121 15.5576 5.13009 18 8.99978 18Z" fill="#D80027"/>
<path d="M8.99978 0C5.13009 0 1.83121 2.44237 0.55957 5.86958H17.44C16.1683 2.44237 12.8695 0 8.99978 0Z" fill="#6DA544"/>
<path d="M9.00016 13.3044C11.3774 13.3044 13.3045 11.3773 13.3045 9.00003C13.3045 6.6228 11.3774 4.69568 9.00016 4.69568C6.62293 4.69568 4.6958 6.6228 4.6958 9.00003C4.6958 11.3773 6.62293 13.3044 9.00016 13.3044Z" fill="#0052B4"/>
<path d="M8.99925 5.66687L9.77627 8.05827H12.2948L10.2565 9.53627L11.0396 11.9348L8.99925 10.4497L6.96202 11.932L7.74199 9.53627L5.70557 8.05827H8.22223L8.99925 5.66687Z" fill="#FFDA44"/>
<path d="M12.0981 9.5952L9.63306 8.7942L11.1565 6.69748L10.5234 6.23743L8.99989 8.33429L7.47654 6.23746L6.84337 6.69745L8.36677 8.79434L5.90186 9.59516L6.14366 10.3395L8.60868 9.53863V12.1304H9.39125V9.5386L11.8562 10.3395L12.0981 9.5952Z" fill="#FFDA44"/>
</g>
<defs>
<clipPath id="clip0_8201_10385">
<rect width="18" height="18" fill="white"/>
</clipPath>
</defs>
</svg>
