<svg width="18" height="18" viewBox="0 0 18 18" fill="none" xmlns="http://www.w3.org/2000/svg">
<g clip-path="url(#clip0_8201_10393)">
<path d="M9 18C13.9706 18 18 13.9706 18 9C18 4.02944 13.9706 0 9 0C4.02944 0 0 4.02944 0 9C0 13.9706 4.02944 18 9 18Z" fill="#0052B4"/>
<path d="M9.00045 3.52173L9.29186 4.41853H10.2347L9.47189 4.97277L9.7633 5.86957L9.00045 5.31529L8.23756 5.86957L8.52897 4.97277L7.76611 4.41853H8.70904L9.00045 3.52173Z" fill="#FFDA44"/>
<path d="M5.1263 5.12621L5.96654 5.55428L6.63327 4.88757L6.48572 5.81886L7.32592 6.24696L6.3946 6.39448L6.24708 7.32583L5.81898 6.48564L4.8877 6.63319L5.55443 5.96645L5.1263 5.12621Z" fill="#FFDA44"/>
<path d="M3.52197 8.99996L4.41877 8.70855V7.76562L4.97298 8.52852L5.86981 8.23711L5.3155 8.99996L5.86981 9.76282L4.97298 9.47144L4.41877 10.2343V9.29137L3.52197 8.99996Z" fill="#FFDA44"/>
<path d="M5.1263 12.8737L5.5544 12.0334L4.8877 11.3667L5.81902 11.5143L6.24705 10.6741L6.3946 11.6054L7.32589 11.7529L6.48579 12.181L6.63327 13.1123L5.96654 12.4456L5.1263 12.8737Z" fill="#FFDA44"/>
<path d="M9.00045 14.4783L8.709 13.5815H7.76611L8.529 13.0272L8.23756 12.1305L9.00045 12.6847L9.7633 12.1305L9.47189 13.0272L10.2347 13.5815H9.29182L9.00045 14.4783Z" fill="#FFDA44"/>
<path d="M12.8739 12.8737L12.0337 12.4456L11.3669 13.1123L11.5144 12.181L10.6743 11.7529L11.6056 11.6054L11.7531 10.6741L12.1812 11.5143L13.1125 11.3667L12.4457 12.0335L12.8739 12.8737Z" fill="#FFDA44"/>
<path d="M14.4786 8.99996L13.5818 9.29137V10.2343L13.0276 9.47141L12.1309 9.76282L12.6851 8.99996L12.1309 8.23711L13.0276 8.52852L13.5818 7.76562V8.70859L14.4786 8.99996Z" fill="#FFDA44"/>
<path d="M12.8739 5.1263L12.4458 5.96654L13.1125 6.63327L12.1811 6.48569L11.7531 7.32589L11.6056 6.39456L10.6743 6.24701L11.5144 5.81895L11.3669 4.8877L12.0337 5.5544L12.8739 5.1263Z" fill="#FFDA44"/>
</g>
<defs>
<clipPath id="clip0_8201_10393">
<rect width="18" height="18" fill="white"/>
</clipPath>
</defs>
</svg>
