<svg width="18" height="18" viewBox="0 0 18 18" fill="none" xmlns="http://www.w3.org/2000/svg">
<g clip-path="url(#clip0_14_1216)">
<path d="M0 0V18H18V0.00703125H11.3203V0H0Z" fill="#68BFE5"/>
<path d="M10.9055 8.92969V13.725C10.9055 15.293 13.7391 16.2246 13.7391 16.2246C13.7391 16.2246 16.5727 15.293 16.5727 13.7285V8.92969H10.9055Z" fill="white"/>
<path d="M13.3454 10.6172V12.7758H10.9055V13.5598H13.3489V16.0734L13.7391 16.2246L14.1329 16.0734V13.5598H16.5727V12.7758H14.1329V10.6172H13.3454Z" fill="#D21034"/>
<path d="M10.9055 8.92969H16.5727V10.7824H10.9055V8.92969Z" fill="#D21034"/>
<path d="M11.3588 10.3184C11.5343 10.3184 11.6767 10.2033 11.6767 10.0613C11.6767 9.91925 11.5343 9.80414 11.3588 9.80414C11.1832 9.80414 11.0409 9.91925 11.0409 10.0613C11.0409 10.2033 11.1832 10.3184 11.3588 10.3184Z" fill="white" stroke="black" stroke-width="0.033243" stroke-miterlimit="3"/>
<path d="M11.3588 10.0706C11.515 10.0706 11.6416 10.0068 11.6416 9.92801C11.6416 9.84927 11.515 9.78543 11.3588 9.78543C11.2026 9.78543 11.0759 9.84927 11.0759 9.92801C11.0759 10.0068 11.2026 10.0706 11.3588 10.0706Z" fill="white" stroke="black" stroke-width="0.033243" stroke-miterlimit="3"/>
<path d="M11.3588 10.3581C11.515 10.3581 11.6416 10.2943 11.6416 10.2155C11.6416 10.1368 11.515 10.0729 11.3588 10.0729C11.2026 10.0729 11.0759 10.1368 11.0759 10.2155C11.0759 10.2943 11.2026 10.3581 11.3588 10.3581Z" fill="white" stroke="black" stroke-width="0.033243" stroke-miterlimit="3"/>
<path d="M11.3588 10.2038C11.515 10.2038 11.6416 10.14 11.6416 10.0613C11.6416 9.98251 11.515 9.91867 11.3588 9.91867C11.2026 9.91867 11.0759 9.98251 11.0759 10.0613C11.0759 10.14 11.2026 10.2038 11.3588 10.2038Z" fill="white" stroke="black" stroke-width="0.033243" stroke-miterlimit="3"/>
<path d="M16.4321 10.4168L16.3864 10.2867C16.3864 10.2867 16.2598 10.2375 16.2493 10.1672C16.2282 9.99142 16.1614 9.92111 16.0665 9.8965C16.0399 9.88804 16.0119 9.88493 15.9842 9.88735C15.9564 9.88976 15.9294 9.89765 15.9047 9.91056C15.8766 9.95275 15.7325 9.95275 15.6516 9.95626C15.5708 9.95978 15.5708 9.92111 15.5708 9.92111C15.5534 9.92159 15.5363 9.91764 15.5209 9.90965C15.5055 9.90165 15.4924 9.88986 15.4829 9.8754C15.4407 9.79454 15.4125 9.7629 15.3915 9.75587C15.4969 9.75587 15.5743 9.70665 15.6903 9.58361C15.8204 9.45001 15.9118 9.50275 15.9118 9.50275C15.8485 9.62579 15.9329 9.61525 15.9329 9.61525C16.1016 9.53087 15.954 9.30939 15.9012 9.31993C15.852 9.33048 15.8379 9.29532 15.8379 9.29532C15.8379 9.334 15.7782 9.35158 15.7782 9.35158C15.8239 9.10197 15.6727 9.03517 15.6727 9.03517C15.6516 9.05626 15.6375 9.10548 15.6375 9.10548C15.5989 9.25314 15.4618 9.23204 15.3071 9.15822C15.1524 9.08439 14.7411 9.23556 14.611 9.28478C14.4844 9.33751 14.2489 9.41837 14.0379 9.29884C13.827 9.17931 13.7743 9.2004 13.6899 9.22501C13.6055 9.24611 13.4579 9.28126 13.4051 9.25314C13.3679 9.23437 13.3272 9.22359 13.2856 9.2215C13.3032 9.21447 13.2786 9.17931 13.2786 9.17931C13.2153 9.09142 13.2856 9.03868 13.2856 9.03868C13.2856 9.03868 13.1696 9.07384 13.2153 9.27775L13.2364 9.30939C13.2364 9.30939 13.254 9.37267 13.2891 9.39025V9.40431C13.2891 9.40431 13.3172 9.39025 13.3243 9.43243C13.3383 9.47462 13.3805 9.43595 13.4016 9.40079C13.4016 9.40079 13.3665 9.58712 13.5985 9.63283C13.5985 9.63283 13.5739 9.6047 13.5844 9.58361C13.595 9.56603 13.5563 9.54845 13.5598 9.52032C13.5598 9.4922 13.5 9.47814 13.5493 9.45704C13.5985 9.43243 13.6196 9.38673 13.725 9.45001C13.8235 9.50978 13.9043 9.49572 13.9043 9.49572C13.9043 9.49572 13.8411 9.36915 13.8762 9.36915C13.9114 9.36915 14.0661 9.56251 14.1434 9.55197C14.2208 9.54142 14.3684 9.45704 14.4422 9.48868C14.4422 9.48868 14.4493 9.45001 14.7305 9.40079C15.0118 9.35157 15.3633 9.21095 15.4934 9.334C15.4934 9.334 15.5075 9.43243 15.5637 9.45704C15.5637 9.45704 15.5532 9.66095 15.2016 9.54845L15.075 9.51329C15.075 9.51329 15.0575 9.45353 14.3895 9.62579C14.3895 9.62579 14.3543 9.63986 14.3262 9.66095C14.3016 9.67853 14.2665 9.64689 14.1329 9.69611C13.9993 9.74532 13.5106 9.90704 13.2083 9.84728C13.1415 9.8297 13.0782 9.83673 13.0782 9.8297C13.0747 9.81564 13.1133 9.8297 13.1133 9.8297C13.0887 9.80509 13.0782 9.80157 13.0782 9.80157C12.825 9.77697 12.8708 9.66095 12.8708 9.66095L12.8848 9.69611C12.927 9.64337 12.8672 9.51329 12.8672 9.51329C12.8662 9.50973 12.865 9.50621 12.8637 9.50275L12.8848 9.48868C13.0079 9.38322 13.1485 9.36564 13.1485 9.36564C13.0641 9.26017 12.8883 9.31642 12.8883 9.31642C12.8883 9.19337 12.8391 9.04923 12.8391 9.04923C12.6633 9.06681 12.5649 9.21095 12.5649 9.21095C12.5614 9.08439 12.3961 9.01056 12.3961 9.01056C12.4559 9.08087 12.4172 9.25665 12.4172 9.25665L12.4243 9.26368H12.4102L12.4067 9.29884H12.3997C12.3997 9.29884 12.3399 9.31993 12.2661 9.48165C12.2661 9.48165 12.259 9.51681 12.2309 9.55197V9.54142C12.2309 9.54142 12.1536 9.64689 11.9708 9.54142C11.9708 9.54142 11.7247 9.39376 11.6368 9.40079C11.5489 9.40431 11.4926 9.4465 11.4961 9.47111C11.4961 9.47111 11.2993 9.45353 11.2325 9.56603C11.2325 9.56603 11.0813 9.62228 11.2114 9.74181C11.2114 9.74181 11.2254 9.79806 11.2641 9.82618C11.2641 9.82618 11.2571 9.71368 11.2852 9.74884C11.2852 9.74884 11.2922 9.75939 11.3063 9.76642C11.3063 9.78048 11.3204 9.82618 11.3485 9.84728L11.3661 9.84025C11.3687 9.81383 11.3746 9.78785 11.3836 9.7629H11.3907L11.3872 9.76642L11.4223 9.81915L11.461 9.79806C11.4821 9.79806 11.5067 9.81564 11.5067 9.81564L11.5524 9.78048V9.77697C11.5981 9.784 11.6086 9.69611 11.6086 9.69611C11.6278 9.70067 11.6478 9.70116 11.6671 9.69752C11.6865 9.69389 11.7049 9.68622 11.7211 9.67501C11.7422 9.74533 11.904 9.82618 11.904 9.82618H11.911L11.8899 9.84025C11.9602 9.89298 12.1008 9.87892 12.1008 9.87892C12.0446 9.90353 12.0516 10.009 12.0516 10.009C12.0165 10.0231 12.0165 10.0547 12.0165 10.0547C12.1254 10.1004 12.2028 10.0652 12.2028 10.0652C12.2098 10.1004 12.2028 10.1039 12.2028 10.1039C12.1571 10.1988 12.136 10.2938 12.136 10.2938V10.3008C12.136 10.3008 11.9391 10.3711 11.8547 10.466C11.8547 10.466 11.8442 10.4379 11.8196 10.4379C11.795 10.4379 11.7176 10.3746 11.6825 10.3676C11.6473 10.3535 11.5946 10.3746 11.5805 10.3606C11.57 10.343 11.577 10.234 11.5524 10.2164L11.5278 10.1461C11.5102 10.1813 11.4434 10.1742 11.4434 10.1742C11.4339 10.181 11.4245 10.1881 11.4153 10.1953L11.3872 10.1918C11.3801 10.1918 11.3731 10.2129 11.3661 10.2305C11.3637 10.2328 11.3614 10.2351 11.359 10.2375V10.2164C11.345 10.227 11.3168 10.2129 11.3063 10.2129L11.2887 10.2445L11.2254 10.2516C11.2149 10.2551 11.2254 10.3395 11.2254 10.3395C11.1446 10.3852 11.1833 10.4485 11.1833 10.4485C11.2254 10.6594 11.5875 10.568 11.6157 10.5926C11.6403 10.6207 11.7036 10.6277 11.7387 10.6277C11.7704 10.6277 11.809 10.7051 11.8583 10.7121C11.904 10.7227 11.8583 10.6524 12.0692 10.5996C12.2872 10.5469 12.3575 10.459 12.3575 10.459C12.4278 10.4485 12.4454 10.3641 12.4489 10.3324L12.4524 10.3852C12.4629 10.4555 12.4137 10.4836 12.4137 10.4836L12.5965 10.4274C12.6704 10.4098 12.6633 10.3465 12.6633 10.3465C12.7336 10.5469 12.8602 10.5574 12.8602 10.5574C12.8883 10.4836 12.8848 10.459 12.8848 10.459H12.9411C12.9411 10.4133 12.9059 10.3817 12.8848 10.3676L12.9727 10.4238L13.0079 10.4168C13.0079 10.4484 13.0571 10.4766 13.0571 10.4766L13.0641 10.4344C13.1063 10.4906 13.1836 10.4695 13.1836 10.4695C13.1818 10.46 13.1795 10.4507 13.1766 10.4414C13.3418 10.5434 13.602 10.4133 13.602 10.4133C13.6723 10.4274 13.6829 10.3852 13.6829 10.3852C13.7637 10.3957 13.7813 10.343 13.7813 10.343C13.9711 10.3254 14.1047 10.1918 14.1047 10.1918C14.1961 10.1848 14.1997 10.1215 14.1997 10.1215C14.1997 10.1215 14.2946 10.1356 14.3825 10.0231C14.5934 9.72423 14.9028 9.88243 14.9028 9.88243L14.727 9.89298C14.2524 9.88947 14.4458 10.2094 14.4458 10.2094H14.4774C14.5231 10.2164 14.6743 10.3395 14.618 10.4309V10.4344C14.5196 10.5645 14.3403 10.4414 14.2911 10.3289C14.2383 10.2164 14.1364 10.241 14.1364 10.241C14.1364 10.241 13.8692 10.2867 13.9782 10.4977H13.9817C13.9852 10.5504 14.0168 10.6102 14.1118 10.6699C14.1645 10.7438 14.3403 10.7508 14.4704 10.7227C14.5301 10.7121 14.8465 10.575 14.8465 10.575C14.8711 10.5047 14.952 10.5223 15.0223 10.4238C15.0926 10.3219 14.9168 10.2867 14.8817 10.234C14.843 10.1777 14.8922 10.1883 14.8922 10.1883C15.0434 10.2727 15.0575 10.0055 15.0575 10.0055C15.0614 10.0492 15.0778 10.091 15.1045 10.1258C15.1313 10.1607 15.1674 10.1872 15.2086 10.2024C15.293 10.118 15.2297 9.94572 15.2297 9.94572C15.4301 10.3043 15.5532 10.2481 15.5532 10.2481C15.4442 10.1777 15.4969 10.0899 15.4969 10.0899C15.5954 10.4695 15.9891 10.1391 15.9891 10.1391C15.9715 10.1953 15.9891 10.227 16.0243 10.2621C16.0594 10.2973 16.1016 10.3113 16.084 10.3781C16.0629 10.4414 15.8801 10.4274 15.8801 10.4274C15.8801 10.4274 15.7008 10.4203 15.7184 10.568C15.7254 10.6031 15.845 10.6172 15.8907 10.6102C15.8907 10.6102 15.8731 10.6102 15.9364 10.6207L16.0137 10.6242C16.0911 10.6242 16.1719 10.6102 16.1719 10.6102C16.2774 10.5856 16.2598 10.5504 16.2598 10.5504C16.418 10.5223 16.4356 10.4168 16.4356 10.4168H16.4321Z" fill="#FFD100" stroke="black" stroke-width="0.05" stroke-miterlimit="3"/>
<path d="M11.2149 9.7594C11.2149 9.7594 11.2219 9.73831 11.2395 9.73479C11.2501 9.73479 11.2677 9.74182 11.2817 9.76292L11.2887 9.75588C11.2887 9.75588 11.2466 9.6926 11.2641 9.65041C11.2712 9.63284 11.2923 9.61526 11.3204 9.61526V9.6012C11.2852 9.60823 11.2641 9.62229 11.2536 9.6469C11.2505 9.65594 11.2493 9.66551 11.2501 9.67502C11.2501 9.69612 11.2571 9.71721 11.2641 9.73127C11.256 9.72537 11.2459 9.72285 11.236 9.72424C11.2219 9.72776 11.2114 9.73831 11.2079 9.74534L11.2149 9.7594ZM16.1719 10.5996C16.0665 10.6172 15.9048 10.6242 15.8907 10.5926C15.8907 10.5891 15.8907 10.5645 15.9786 10.5082L15.968 10.4906C15.8977 10.5399 15.8626 10.575 15.8766 10.5996C15.8977 10.6594 16.1298 10.6242 16.1755 10.6172L16.1719 10.5996ZM14.1188 10.6629C14.0942 10.6242 14.1048 10.5715 14.154 10.5082L14.1364 10.4977C14.0837 10.568 14.0731 10.6278 14.1012 10.6735L14.1188 10.6629Z" fill="black"/>
<path d="M13.9748 10.5012C13.9748 10.5645 14.0205 10.6242 14.1083 10.677L14.1189 10.6629C14.038 10.6137 13.9958 10.5574 13.9923 10.4977C13.9923 10.4098 14.0837 10.343 14.0837 10.3395L14.0732 10.3254C14.0697 10.3254 13.9677 10.3992 13.9748 10.5012ZM15.8029 10.5223C15.7748 10.568 15.7853 10.6207 15.7853 10.6207H15.8029C15.8029 10.6207 15.7958 10.5715 15.8205 10.5328C15.8288 10.5215 15.8393 10.5119 15.8513 10.5046C15.8634 10.4974 15.8768 10.4926 15.8908 10.4906V10.4731C15.8521 10.4801 15.8205 10.4977 15.8029 10.5223ZM11.6123 9.70314H11.6052V9.70666C11.6052 9.70666 11.5947 9.76291 11.5701 9.77697C11.5665 9.7794 11.5624 9.78099 11.5582 9.7816C11.5539 9.7822 11.5496 9.78183 11.5455 9.78049L11.5033 9.75588C11.4927 9.74533 11.4857 9.74182 11.4751 9.74533C11.4647 9.73252 11.4596 9.71611 11.4611 9.69963C11.4646 9.6715 11.4822 9.64689 11.5138 9.6258L11.5103 9.61525C11.4751 9.63986 11.4541 9.66799 11.4505 9.69611C11.447 9.73127 11.4646 9.75236 11.4681 9.75588H11.4716C11.4822 9.75236 11.4857 9.75588 11.4962 9.76291L11.5419 9.79103H11.5771C11.6017 9.77346 11.6123 9.72424 11.6123 9.71369C11.7283 9.7383 11.8232 9.59767 11.8232 9.59416L11.8162 9.58713C11.8162 9.58713 11.7212 9.72775 11.6123 9.70314Z" fill="black"/>
<path d="M11.3379 9.68205C11.3309 9.70314 11.3379 9.72775 11.3485 9.74885C11.3625 9.76994 11.3731 9.78049 11.3872 9.784C11.4047 9.784 11.4153 9.77346 11.4258 9.76291C11.4329 9.75236 11.4434 9.74533 11.4469 9.74885L11.4575 9.75588L11.468 9.74885L11.4504 9.7383C11.4399 9.7383 11.4293 9.74533 11.4188 9.75236C11.4083 9.76291 11.3977 9.77346 11.3872 9.76994C11.3801 9.76994 11.3696 9.75939 11.359 9.74181C11.3533 9.73308 11.3495 9.72328 11.3477 9.71301C11.3458 9.70274 11.3461 9.69221 11.3485 9.68205C11.359 9.63283 11.4188 9.59416 11.4188 9.59416V9.58713C11.4153 9.58713 11.3485 9.62228 11.3379 9.68205ZM11.1797 10.4063C11.1868 10.3852 11.2008 10.3711 11.2254 10.357C11.2219 10.357 11.25 10.3817 11.2747 10.3781L11.2887 10.3711C11.2958 10.3746 11.3379 10.4133 11.3379 10.4625C11.3379 10.4731 11.3379 10.4836 11.3309 10.4942L11.3415 10.4977C11.3766 10.4274 11.2958 10.357 11.2958 10.357H11.2887L11.2711 10.3676C11.2536 10.3676 11.229 10.3465 11.2254 10.3465C11.1938 10.3606 11.1762 10.3817 11.1692 10.4028L11.1797 10.4063ZM11.5454 10.2199C11.5208 10.2199 11.454 10.234 11.4329 10.2656C11.4258 10.2797 11.4258 10.2938 11.4329 10.3078L11.4399 10.3324C11.461 10.3852 11.4821 10.4414 11.5032 10.4555L11.5102 10.4449C11.4891 10.4344 11.468 10.3746 11.4504 10.3254L11.4399 10.3043C11.4374 10.2994 11.4361 10.294 11.4361 10.2885C11.4361 10.283 11.4374 10.2776 11.4399 10.2727C11.461 10.2445 11.5172 10.2305 11.5454 10.2305C11.5594 10.2305 11.5629 10.2832 11.5665 10.3184H11.577C11.577 10.2656 11.57 10.2164 11.5418 10.2199H11.5454Z" fill="black"/>
<path d="M11.3662 10.2727C11.3619 10.2767 11.3587 10.2816 11.3569 10.2872C11.3551 10.2927 11.3546 10.2986 11.3556 10.3043C11.3556 10.3078 11.3591 10.4449 11.4259 10.4731L11.4295 10.4625C11.3697 10.4379 11.3662 10.3043 11.3662 10.3043C11.3662 10.3043 11.3627 10.2902 11.3732 10.2797C11.3802 10.2727 11.4013 10.2727 11.4295 10.2797V10.2692C11.4013 10.2586 11.3767 10.2621 11.3662 10.2727Z" fill="black"/>
<path d="M11.3134 10.2832C11.2853 10.3043 11.2853 10.3606 11.2853 10.3641H11.2958C11.2958 10.3641 11.2958 10.3078 11.3204 10.2938C11.3275 10.2867 11.3415 10.2867 11.3556 10.2938V10.2832C11.3415 10.2762 11.3239 10.2762 11.3134 10.2832Z" fill="black"/>
<path d="M12.8571 9.53066C12.8571 9.53066 12.8875 9.60079 12.8875 9.65455C12.8875 9.6639 12.8828 9.67091 12.8805 9.67792L12.8688 9.64753L12.8618 9.67091C12.8618 9.67091 12.8478 9.70363 12.8688 9.73869C12.8968 9.78544 12.967 9.81349 13.0792 9.82518V9.82751C13.0759 9.82746 13.0727 9.82827 13.0698 9.82985L13.0651 9.83453V9.84387C13.0698 9.85556 13.0815 9.85556 13.1072 9.85556L13.1236 9.8579L13.1376 9.86257L13.1353 9.86024C13.1586 9.86024 13.189 9.86725 13.2194 9.87894L13.196 9.88361L13.2217 9.8953C13.2241 9.8953 13.4251 9.97711 13.5069 10.0426C13.4835 10.0636 13.383 10.136 13.2101 10.094L13.182 10.087L13.2007 10.1103C13.2007 10.1103 13.3152 10.2412 13.3386 10.3207C13.2989 10.3207 13.1469 10.3207 13.0932 10.274L13.0815 10.2856C13.0815 10.2856 13.1516 10.3932 13.1703 10.475C13.1469 10.4796 13.1002 10.482 13.0698 10.4422L13.0558 10.4259L13.0488 10.4726C13.0348 10.4609 13.0161 10.4469 13.0161 10.4282V10.4189L12.974 10.4259L12.8852 10.3721C12.8806 10.3688 12.8759 10.3657 12.8711 10.3628L12.8618 10.3791L12.8758 10.3862C12.8945 10.4002 12.9272 10.4259 12.9296 10.4633H12.8735V10.475C12.8735 10.482 12.8735 10.5077 12.8524 10.5615C12.8267 10.5568 12.7286 10.5217 12.6701 10.3558L12.6514 10.3604V10.3651C12.6514 10.3815 12.6467 10.4189 12.5953 10.4329L12.4434 10.4796C12.4567 10.4605 12.4633 10.4375 12.4621 10.4142V10.3955C12.4592 10.3754 12.4577 10.3551 12.4574 10.3347C12.4574 10.2997 12.4644 10.2786 12.4901 10.2646L12.4808 10.2459C12.4785 10.2459 12.2564 10.3371 12.1465 10.2997C12.1512 10.2763 12.1699 10.2015 12.2073 10.122L12.2026 10.1267C12.2097 10.122 12.2167 10.1127 12.2097 10.0753V10.0636L12.198 10.0683C12.198 10.0683 12.1278 10.101 12.025 10.0636C12.025 10.0542 12.032 10.0402 12.053 10.0309L12.0601 10.0285V10.0098C12.0601 9.98178 12.0624 9.91633 12.1021 9.90231L12.0975 9.88361C12.0975 9.88361 11.9782 9.89296 11.9058 9.85322C11.9371 9.83073 11.973 9.81555 12.011 9.80881H12.018V9.79946C12.0177 9.78095 12.0137 9.76268 12.0063 9.7457C12.0343 9.75505 12.0671 9.76207 12.0788 9.75272L12.0834 9.75038L12.0788 9.67792H12.0601L12.0624 9.73869L11.9923 9.72233L11.9642 9.71298L11.9829 9.73635C11.9942 9.75283 12 9.77248 11.9993 9.79245C11.9569 9.80161 11.917 9.81997 11.8824 9.84621L11.8707 9.85556L11.8824 9.86257C11.9385 9.89997 12.025 9.90465 12.0694 9.90231C12.0495 9.93378 12.039 9.97026 12.039 10.0075V10.0168C12.0297 10.0223 12.0218 10.0297 12.0157 10.0386C12.0096 10.0475 12.0056 10.0576 12.004 10.0683V10.0753L12.0086 10.0776C12.0666 10.1043 12.1324 10.1085 12.1933 10.0893V10.1103C12.1465 10.2085 12.1232 10.3043 12.1232 10.3043V10.3137H12.1302C12.2213 10.3511 12.3803 10.302 12.4527 10.2763C12.4434 10.2927 12.4364 10.3114 12.4364 10.3347C12.4367 10.3614 12.439 10.3879 12.4434 10.4142C12.4434 10.468 12.4083 10.489 12.406 10.489L12.413 10.5077L12.6 10.4516C12.6421 10.4399 12.6584 10.4142 12.6654 10.3932C12.7379 10.5661 12.8524 10.5802 12.8594 10.5825H12.8665L12.8688 10.5755C12.8812 10.5456 12.889 10.5141 12.8922 10.482C12.9109 10.4813 12.9296 10.4805 12.9483 10.4796V10.468C12.9483 10.4516 12.9459 10.4376 12.9389 10.4259L12.9716 10.4446L13.002 10.4399C13.009 10.4703 13.0464 10.496 13.0511 10.4983L13.0628 10.5054L13.0698 10.4656C13.1166 10.5054 13.1797 10.4937 13.1843 10.4937L13.1914 10.4913V10.482C13.182 10.4189 13.1399 10.3441 13.1142 10.3043C13.196 10.3417 13.3456 10.3394 13.3526 10.3394H13.362V10.3277C13.3312 10.2504 13.2869 10.1791 13.2311 10.1174C13.4228 10.1524 13.5256 10.0519 13.5303 10.0472L13.5373 10.0402L13.5279 10.0355C13.444 9.97551 13.3529 9.92605 13.2568 9.88829L13.2778 9.88361L13.2545 9.87192C13.2125 9.85049 13.166 9.83928 13.1189 9.8392C13.0955 9.81115 13.0838 9.80881 13.0815 9.80648C12.9506 9.79245 12.9039 9.75739 12.8852 9.72934V9.72233L12.8898 9.71532C12.9015 9.69896 12.9062 9.67792 12.9062 9.65455C12.9062 9.59377 12.8758 9.52599 12.8758 9.52365L12.8571 9.53066Z" fill="black"/>
<path d="M12.2611 9.49324C12.2611 9.49324 12.247 9.56336 12.1863 9.59842C12.1395 9.62179 12.0811 9.62179 12.0086 9.59141L11.9993 9.58907V9.59842C12.0045 9.6285 12.0213 9.65535 12.046 9.67322C12.0764 9.69659 12.1232 9.70594 12.1839 9.70126C12.1629 9.72464 12.0998 9.80411 12.0998 9.88358V9.89527C12.1091 9.89994 12.2073 9.92799 12.254 9.86956C12.254 9.89293 12.2634 9.97474 12.2938 10.0051C12.3125 10.0238 12.3172 10.0472 12.3172 10.0682C12.3172 10.0869 12.3125 10.101 12.3125 10.101L12.3078 10.115L12.3195 10.1056C12.3242 10.1033 12.4153 10.0355 12.4434 9.94903C12.4434 9.94903 12.4597 9.92565 12.4878 9.91864V9.93033C12.4878 9.96539 12.5018 10.0262 12.6 10.0636L12.607 10.0659V10.0589C12.6067 10.0534 12.6067 10.048 12.607 10.0425C12.607 10.0168 12.607 9.9724 12.6327 9.94903C12.6431 9.93941 12.65 9.9267 12.6525 9.91279C12.6551 9.89889 12.653 9.88454 12.6467 9.87189C12.6678 9.87657 12.7145 9.89293 12.7332 9.92799C12.7613 9.97941 12.8571 9.93734 12.8618 9.93734L12.8594 9.92565C12.8594 9.92565 12.8174 9.935 12.7916 9.91864C12.7863 9.91442 12.7818 9.90913 12.7786 9.90309C12.7754 9.89705 12.7734 9.89041 12.7729 9.88358L12.7683 9.82748C12.7683 9.80411 12.7636 9.78775 12.7519 9.77606C12.7636 9.77606 12.7893 9.77606 12.7987 9.79944C12.8174 9.83683 12.8758 9.83917 12.8781 9.83917L12.8992 9.84151L12.8828 9.82982C12.8828 9.82982 12.8314 9.7971 12.8407 9.75269L12.8477 9.71996C12.8618 9.66153 12.8851 9.5657 12.8641 9.50492L12.8548 9.5096C12.8594 9.52362 12.8618 9.54232 12.8618 9.56102C12.8618 9.61244 12.8454 9.67789 12.8384 9.71763L12.829 9.75035C12.8287 9.75424 12.8287 9.75815 12.829 9.76204C12.829 9.79242 12.8454 9.81346 12.8594 9.82515C12.8431 9.82281 12.8197 9.81346 12.8127 9.79476C12.7963 9.76204 12.7589 9.76204 12.7426 9.76437L12.7285 9.76671L12.7379 9.77606C12.7542 9.78541 12.7566 9.79944 12.7566 9.82982L12.7613 9.88358C12.7636 9.90228 12.7729 9.9163 12.7846 9.92565C12.7987 9.935 12.8127 9.935 12.8244 9.93734C12.7963 9.94435 12.7566 9.94903 12.7426 9.92332C12.7169 9.87189 12.6421 9.86021 12.6397 9.85787H12.628L12.6327 9.86722C12.6327 9.86722 12.6421 9.88124 12.6421 9.89994C12.6421 9.91163 12.6374 9.92799 12.6257 9.93968C12.6 9.96539 12.5953 10.0145 12.5953 10.0402V10.0495C12.5112 10.0145 12.4971 9.96305 12.4971 9.93267V9.90929L12.5018 9.90228H12.4925C12.4802 9.90437 12.4685 9.90925 12.4584 9.91654C12.4482 9.92384 12.4399 9.93335 12.434 9.94435C12.4108 10.0015 12.3729 10.0515 12.3242 10.0893C12.3255 10.0815 12.3263 10.0737 12.3265 10.0659C12.3265 10.0449 12.3218 10.0192 12.3031 9.99811C12.2681 9.96539 12.2634 9.85787 12.2634 9.85787V9.83917L12.254 9.85553C12.2166 9.92098 12.1091 9.88826 12.1068 9.88826C12.1021 9.80645 12.2003 9.69893 12.2003 9.69659L12.2096 9.68724H12.1956C12.1325 9.69659 12.0834 9.68724 12.0507 9.66387C12.0321 9.64906 12.019 9.62851 12.0133 9.60543C12.0834 9.63114 12.1442 9.63348 12.1909 9.60777C12.2111 9.59549 12.2286 9.5792 12.2423 9.55991C12.256 9.54061 12.2655 9.51871 12.2704 9.49557C12.3405 9.34131 12.399 9.31559 12.399 9.31559L12.3966 9.30624C12.392 9.30624 12.3312 9.32962 12.2611 9.49324Z" fill="black"/>
<path d="M12.4177 9.26185H12.413L12.3569 9.33898H12.3733C12.5477 9.35272 12.7113 9.4291 12.8338 9.55402L12.8408 9.56103L12.8945 9.5026L12.8899 9.49559C12.7379 9.25717 12.42 9.26185 12.4154 9.26185H12.4177ZM12.4224 9.28288C12.4598 9.28288 12.7309 9.2899 12.8712 9.50026L12.8408 9.53299C12.7175 9.41579 12.5589 9.34265 12.3897 9.32496C12.4005 9.31091 12.4114 9.29689 12.4224 9.28288Z" fill="black"/>
<path d="M12.3733 9.42079C12.3481 9.45369 12.3313 9.49218 12.3242 9.53299L12.3265 9.54234C12.3103 9.55938 12.2977 9.5796 12.2897 9.60173C12.2816 9.62385 12.2783 9.6474 12.2798 9.67089C12.2798 9.70128 12.2844 9.73167 12.2938 9.75972L12.3008 9.77608C12.3289 9.85555 12.3546 9.92567 12.4831 9.8836C12.6047 9.8462 12.6093 9.83685 12.6397 9.78543L12.6491 9.77374C12.6654 9.74569 12.6841 9.74102 12.7028 9.734C12.7262 9.72699 12.7496 9.71998 12.773 9.67791L12.7917 9.64752C12.815 9.61713 12.8431 9.5774 12.8454 9.53065H12.8361C12.8291 9.57123 12.8113 9.60917 12.7846 9.64051L12.7613 9.67323C12.7562 9.68615 12.748 9.69761 12.7373 9.70658C12.7267 9.71556 12.7141 9.72177 12.7005 9.72465C12.688 9.72704 12.6761 9.73201 12.6657 9.73925C12.6552 9.7465 12.6464 9.75586 12.6397 9.76673L12.6304 9.78075C12.6023 9.82984 12.5977 9.83685 12.4784 9.87425C12.3616 9.91165 12.3382 9.85321 12.3102 9.7714L12.3031 9.75504C12.2704 9.66622 12.2961 9.5774 12.3405 9.54467L12.3546 9.53299L12.3335 9.53533V9.53299C12.3335 9.51663 12.3499 9.47222 12.3803 9.4278C12.4083 9.39041 12.4738 9.35535 12.4738 9.35301L12.4691 9.34366C12.4644 9.346 12.4013 9.38339 12.3733 9.42079Z" fill="black"/>
<path d="M12.3172 9.74569C12.3383 9.75972 12.3663 9.75738 12.4037 9.74569C12.4037 9.75738 12.4037 9.78543 12.4271 9.80413C12.4551 9.8275 12.4972 9.83218 12.5556 9.81815V9.80647C12.4995 9.82049 12.4575 9.81581 12.4341 9.79478C12.4267 9.78756 12.4209 9.77879 12.4173 9.76909C12.4136 9.75939 12.4122 9.749 12.413 9.73868V9.72933L12.406 9.73401C12.371 9.74803 12.3429 9.75037 12.3219 9.73401C12.2868 9.71063 12.2892 9.64752 12.2892 9.64752H12.2798C12.2798 9.64752 12.2751 9.71764 12.3172 9.74569Z" fill="black"/>
<path d="M12.3826 9.6592C12.3686 9.66387 12.3639 9.67556 12.3639 9.68491V9.69192C12.3686 9.71997 12.399 9.73867 12.4247 9.74568C12.4527 9.75269 12.4854 9.75503 12.4971 9.73867C12.5018 9.73166 12.5065 9.71997 12.4971 9.69893C12.4871 9.67921 12.4698 9.66409 12.449 9.6567C12.4281 9.6493 12.4052 9.6502 12.3849 9.6592H12.3826ZM12.4293 9.73633C12.406 9.72932 12.3779 9.71296 12.3756 9.68958C12.3756 9.68958 12.3733 9.67322 12.3873 9.66855C12.4053 9.66123 12.4255 9.66101 12.4437 9.66795C12.4619 9.67489 12.4768 9.68846 12.4854 9.70595C12.4925 9.7153 12.4925 9.72465 12.4878 9.72932C12.4808 9.74101 12.4551 9.74334 12.4293 9.73633ZM12.42 9.79944C12.413 9.85788 12.42 9.86021 12.4223 9.86021H12.427L12.4317 9.85788L12.4644 9.81113L12.4223 9.79243V9.79944H12.42ZM12.4317 9.80879L12.448 9.8158L12.4293 9.84152V9.80879H12.4317ZM12.3335 9.75269L12.3312 9.80645L12.3779 9.75036L12.3312 9.74568V9.75269H12.3335ZM12.3429 9.75737H12.3569L12.3429 9.77607V9.75737Z" fill="black"/>
<path d="M12.3009 9.734C12.3009 9.734 12.3359 9.80178 12.3429 9.82749C12.3453 9.84152 12.3663 9.86022 12.3897 9.86723C12.413 9.87658 12.4364 9.87658 12.4528 9.86489L12.4832 9.83918C12.4925 9.82749 12.4972 9.82516 12.5065 9.82749V9.81581C12.4925 9.81581 12.4855 9.82048 12.4762 9.82983L12.4458 9.85321C12.4271 9.86723 12.406 9.86256 12.3944 9.85788C12.371 9.85087 12.3546 9.83451 12.3523 9.82282C12.3453 9.79945 12.3125 9.73166 12.3102 9.72932L12.3009 9.734ZM12.3476 9.53298C12.3212 9.54685 12.3012 9.57026 12.2915 9.59843L12.3009 9.60077C12.3009 9.60077 12.3172 9.55869 12.3499 9.54233C12.3587 9.53833 12.3683 9.53626 12.378 9.53626C12.3877 9.53626 12.3972 9.53833 12.406 9.54233L12.4084 9.53298C12.385 9.52363 12.3663 9.52363 12.3453 9.53298H12.3476ZM12.6 9.65453C12.6047 9.65453 12.6748 9.71062 12.6351 9.77607L12.6421 9.78308C12.6889 9.70595 12.6071 9.64518 12.6071 9.64284L12.6 9.65453ZM12.385 9.66388C12.385 9.66388 12.3733 9.70361 12.4317 9.71764C12.4317 9.71764 12.378 9.71764 12.3733 9.70361C12.371 9.68959 12.3733 9.6592 12.385 9.66388ZM12.5603 9.71062C12.5603 9.7153 12.5556 9.71764 12.5533 9.71764C12.5518 9.71772 12.5503 9.71731 12.549 9.71647C12.5477 9.71563 12.5468 9.7144 12.5463 9.71296C12.5463 9.70829 12.5486 9.70595 12.5533 9.70595C12.5556 9.70595 12.5603 9.70829 12.5603 9.71296V9.71062ZM12.565 9.73867C12.565 9.74101 12.565 9.74335 12.5603 9.74335C12.5588 9.74343 12.5573 9.74303 12.556 9.74218C12.5548 9.74134 12.5538 9.74011 12.5533 9.73867C12.5533 9.73681 12.554 9.73503 12.5553 9.73372C12.5567 9.7324 12.5584 9.73166 12.5603 9.73166C12.5626 9.73166 12.565 9.734 12.565 9.73867Z" fill="black"/>
<path d="M12.5229 9.73168C12.5268 9.73168 12.5299 9.72854 12.5299 9.72466C12.5299 9.72079 12.5268 9.71765 12.5229 9.71765C12.519 9.71765 12.5159 9.72079 12.5159 9.72466C12.5159 9.72854 12.519 9.73168 12.5229 9.73168Z" fill="black"/>
<path d="M12.5416 9.76205C12.5416 9.76391 12.5408 9.7657 12.5395 9.76701C12.5382 9.76833 12.5364 9.76907 12.5345 9.76907C12.5327 9.76907 12.5309 9.76833 12.5296 9.76701C12.5283 9.7657 12.5275 9.76391 12.5275 9.76205C12.5275 9.75972 12.5299 9.75738 12.5345 9.75738L12.5416 9.76205ZM12.3756 9.59142C12.3756 9.59328 12.3749 9.59507 12.3735 9.59638C12.3722 9.5977 12.3704 9.59844 12.3686 9.59844C12.3667 9.59844 12.3649 9.5977 12.3636 9.59638C12.3623 9.59507 12.3616 9.59328 12.3616 9.59142C12.3622 9.59046 12.3631 9.58967 12.3641 9.58912C12.3651 9.58857 12.3663 9.58829 12.3674 9.58829C12.3686 9.58829 12.3697 9.58857 12.3707 9.58912C12.3718 9.58967 12.3726 9.59046 12.3733 9.59142H12.3756Z" fill="black"/>
<path d="M12.3732 9.62413C12.3771 9.62413 12.3802 9.62099 12.3802 9.61712C12.3802 9.61325 12.3771 9.61011 12.3732 9.61011C12.3694 9.61011 12.3662 9.61325 12.3662 9.61712C12.3662 9.62099 12.3694 9.62413 12.3732 9.62413Z" fill="black"/>
<path d="M12.3382 9.61244C12.3421 9.61244 12.3452 9.6093 12.3452 9.60543C12.3452 9.60156 12.3421 9.59842 12.3382 9.59842C12.3343 9.59842 12.3312 9.60156 12.3312 9.60543C12.3312 9.6093 12.3343 9.61244 12.3382 9.61244Z" fill="black"/>
<path d="M12.3546 9.64284C12.3547 9.64436 12.3543 9.64586 12.3534 9.64713C12.3526 9.64839 12.3513 9.64935 12.3499 9.64985C12.348 9.64985 12.3463 9.64912 12.3449 9.6478C12.3436 9.64649 12.3429 9.6447 12.3429 9.64284C12.3429 9.64098 12.3436 9.6392 12.3449 9.63788C12.3463 9.63657 12.348 9.63583 12.3499 9.63583C12.3513 9.63633 12.3526 9.63729 12.3534 9.63856C12.3543 9.63982 12.3547 9.64132 12.3546 9.64284ZM12.4668 9.41845C12.4668 9.41845 12.5486 9.46987 12.4691 9.56571C12.4691 9.56571 12.5089 9.53532 12.5112 9.48624C12.5159 9.43715 12.4831 9.39742 12.4644 9.41845H12.4668ZM12.7823 9.55636C12.7543 9.57038 12.7169 9.54467 12.6982 9.5213C12.6795 9.49792 12.6397 9.49091 12.614 9.53532C12.5907 9.57739 12.5556 9.59376 12.5556 9.59376C12.5556 9.59376 12.5907 9.57506 12.6257 9.53532C12.6608 9.49792 12.6818 9.52831 12.7169 9.54701C12.7496 9.56571 12.7566 9.57038 12.78 9.5587V9.55636H12.7823Z" fill="black"/>
<path d="M12.7753 9.56338C12.7678 9.56916 12.7586 9.57209 12.7492 9.57166C12.7397 9.57124 12.7308 9.56747 12.7239 9.56104C12.7005 9.54234 12.6841 9.51897 12.6584 9.533C12.6304 9.54702 12.5813 9.58442 12.5813 9.58442C12.5813 9.58442 12.6631 9.52832 12.6795 9.54234C12.6935 9.55403 12.7309 9.58442 12.7519 9.57507L12.7753 9.56338Z" fill="black"/>
<path d="M12.7122 9.5961C12.6865 9.5774 12.6607 9.61947 12.6397 9.6148C12.6163 9.61012 12.6 9.57272 12.6 9.57272C12.6 9.57272 12.6187 9.61012 12.6467 9.60311C12.6771 9.59376 12.6958 9.57506 12.7145 9.58909C12.7309 9.60311 12.7122 9.5961 12.7122 9.5961Z" fill="black"/>
<path d="M12.6724 9.6031C12.6658 9.60446 12.6589 9.60435 12.6522 9.60277C12.6456 9.60119 12.6394 9.59818 12.634 9.59395C12.6287 9.58972 12.6243 9.58437 12.6213 9.57828C12.6182 9.57219 12.6165 9.5655 12.6163 9.55869C12.6163 9.55869 12.6327 9.60076 12.6771 9.59375L12.6724 9.6031Z" fill="black"/>
<path d="M12.6701 9.57037C12.6724 9.58206 12.6724 9.58907 12.6584 9.58907C12.6444 9.58907 12.635 9.58439 12.635 9.57037C12.635 9.55868 12.6677 9.56102 12.6701 9.57037ZM12.4878 9.50025C12.4872 9.50417 12.4852 9.50776 12.4822 9.51033C12.4792 9.51291 12.4754 9.51431 12.4714 9.51427C12.4621 9.51427 12.4597 9.5096 12.4597 9.50025C12.4597 9.4909 12.4597 9.48389 12.4714 9.48389C12.4831 9.48389 12.4878 9.4909 12.4878 9.50025Z" fill="black"/>
<path d="M12.4294 9.44183C12.4294 9.44183 12.5182 9.44183 12.4762 9.55169C12.4762 9.55169 12.5089 9.49793 12.4878 9.4582C12.4645 9.4208 12.4341 9.43015 12.4341 9.43015C12.4341 9.43015 12.4247 9.43716 12.4294 9.44183Z" fill="black"/>
<path d="M12.4293 9.48625C12.4293 9.50963 12.4434 9.53066 12.4714 9.55404L12.4784 9.54469C12.4527 9.52365 12.4387 9.50495 12.4387 9.48625C12.4387 9.46755 12.4527 9.45586 12.4527 9.45586L12.4457 9.44885C12.4457 9.44885 12.4293 9.46288 12.427 9.48625H12.4293Z" fill="black"/>
<path d="M12.448 9.50494C12.4504 9.51663 12.4621 9.52832 12.4761 9.53299L12.4808 9.52364C12.4691 9.51897 12.4597 9.50962 12.4574 9.50027C12.4527 9.48157 12.4667 9.46053 12.4667 9.46053L12.4574 9.45352C12.4574 9.45352 12.441 9.48157 12.448 9.50494ZM12.5672 9.56572C12.5672 9.56572 12.5836 9.60078 12.5602 9.63818L12.5369 9.67557C12.5369 9.67557 12.5649 9.62181 12.5532 9.60078C12.5439 9.5774 12.5672 9.56572 12.5672 9.56572ZM12.9085 9.93503C12.9973 9.95139 13.2007 10.1103 13.2007 10.1103L13.2124 10.0963C13.2054 10.0893 13.0043 9.93269 12.9108 9.91633L12.9062 9.93503H12.9085ZM12.988 10.1571C12.9927 10.2389 13.0815 10.288 13.0815 10.2903L13.0932 10.2739C13.0932 10.2739 13.0113 10.2272 13.0067 10.1571H12.988ZM12.7706 10.1758C12.7706 10.2646 12.8547 10.3721 12.8594 10.3768L12.8734 10.3651C12.8734 10.3651 12.7893 10.2576 12.7893 10.1758H12.7706ZM12.4878 10.1851C12.5018 10.2155 12.5018 10.2295 12.4971 10.2366C12.4924 10.2459 12.4831 10.2459 12.4831 10.2459L12.4854 10.2646C12.4924 10.2646 12.5065 10.2599 12.5135 10.2459C12.5228 10.2295 12.5205 10.2062 12.5041 10.1758L12.4878 10.1851Z" fill="black"/>
<path d="M11.2149 9.7418C11.2149 9.7418 11.2149 9.80157 11.2642 9.83672C11.2642 9.83672 11.2571 9.77344 11.2712 9.74532C11.2712 9.74532 11.2466 9.71719 11.2114 9.74532L11.2149 9.7418ZM11.3063 9.78047C11.3063 9.78047 11.3169 9.83321 11.3485 9.85782L11.3661 9.8543C11.3661 9.8543 11.3767 9.78399 11.3872 9.77696C11.3978 9.76993 11.3415 9.80157 11.3063 9.78047Z" fill="white" stroke="black" stroke-width="0.0125" stroke-miterlimit="3"/>
<path d="M11.3872 9.77695L11.4223 9.8332L11.4645 9.81211L11.454 9.74531C11.454 9.74531 11.4294 9.73828 11.3837 9.78047L11.3872 9.77695Z" fill="white" stroke="black" stroke-width="0.0125" stroke-miterlimit="3"/>
<path d="M11.5525 9.78752L11.5068 9.82619C11.5068 9.82619 11.4822 9.80861 11.4611 9.81213L11.4716 9.75236C11.4716 9.75236 11.5068 9.72775 11.5525 9.78752ZM11.222 10.35C11.222 10.35 11.215 10.2692 11.2255 10.2621C11.2255 10.2621 11.2607 10.2727 11.2712 10.2621C11.2712 10.2621 11.2923 10.3289 11.2853 10.3535C11.2818 10.3817 11.2501 10.3711 11.222 10.3535V10.35ZM11.433 10.2656C11.433 10.2656 11.433 10.1953 11.4435 10.1848C11.4435 10.1848 11.5138 10.1953 11.5279 10.1602L11.5525 10.227C11.5525 10.227 11.4751 10.2199 11.433 10.2621V10.2656Z" fill="white" stroke="black" stroke-width="0.0125" stroke-miterlimit="3"/>
<path d="M11.3591 10.2797C11.3591 10.2797 11.3731 10.2059 11.3872 10.2024C11.3872 10.2024 11.4224 10.2129 11.4329 10.2024V10.2903C11.4329 10.2903 11.4329 10.2516 11.3626 10.2797H11.3591ZM11.2817 10.2903C11.2817 10.2903 11.2958 10.2235 11.3063 10.2235C11.3169 10.2235 11.345 10.241 11.3591 10.2305V10.2797C11.3591 10.2797 11.2993 10.2656 11.2888 10.35L11.2817 10.2903Z" fill="white"/>
<path d="M11.3591 10.2797C11.3591 10.2797 11.3731 10.2059 11.3872 10.2024C11.3872 10.2024 11.4224 10.2129 11.4329 10.2024V10.2903C11.4329 10.2903 11.4329 10.2516 11.3626 10.2797H11.3591ZM11.3591 10.2797V10.2305C11.345 10.241 11.3169 10.2235 11.3063 10.2235C11.2958 10.2235 11.2817 10.2903 11.2817 10.2903L11.2888 10.35C11.2993 10.2656 11.3591 10.2797 11.3591 10.2797Z" stroke="black" stroke-width="0.0125" stroke-miterlimit="3"/>
<path d="M12.3399 11.6438C12.3399 11.6438 12.5262 11.8195 12.4805 11.9672C12.4805 11.9672 12.5965 11.7105 12.4699 11.6367C12.3399 11.5594 12.3364 11.6191 12.3399 11.6438Z" fill="#00A651" stroke="black" stroke-width="0.03125" stroke-miterlimit="4.8"/>
<path d="M12.1078 11.8125C12.1078 11.8125 12.0586 11.8793 12.1113 11.925C12.1113 11.925 12.0551 12.0094 12.0973 12.0797C12.0973 12.0797 12.0621 12.1535 12.0727 12.2344C12.0727 12.2344 12.041 12.3574 12.1078 12.4137C12.1078 12.4137 12.1781 12.4488 12.2098 12.4207C12.2098 12.4207 12.2695 12.3258 12.2309 12.2308C12.2309 12.2308 12.2766 12.15 12.2274 12.0515C12.2274 12.0515 12.2414 11.9918 12.1992 11.925C12.1992 11.925 12.2274 11.8828 12.2028 11.8476C12.2028 11.8476 12.1149 11.7562 12.1078 11.8125Z" fill="#964B36" stroke="black" stroke-width="0.03125" stroke-miterlimit="4.8"/>
<path d="M12.1606 11.5945C12.1606 11.5945 11.9391 11.1727 11.7844 11.1551C11.6332 11.1375 11.6227 10.9863 11.6227 10.9863C11.6227 10.9863 11.6403 11.0566 11.7633 11.0566C11.8864 11.0566 12.1254 11.2324 12.15 11.3625C12.1781 11.4961 12.2028 11.4785 12.2028 11.4785L12.1606 11.5945Z" fill="#00A651" stroke="black" stroke-width="0.03125" stroke-miterlimit="4.8"/>
<path d="M12.1606 11.5664C12.1606 11.5664 12.2414 11.032 12.5895 11.0215C12.9375 11.0109 12.8215 11.0496 12.9059 10.9933C12.9059 10.9933 12.6703 11.1164 12.5262 11.134C12.382 11.1516 12.2625 11.4328 12.266 11.4855C12.2695 11.5383 12.1887 11.6402 12.1465 11.6051C12.1078 11.5699 12.1606 11.5664 12.1606 11.5664Z" fill="#00A651" stroke="black" stroke-width="0.03125" stroke-miterlimit="4.8"/>
<path d="M12.2378 11.7633C12.2378 11.7633 12.3187 11.5523 12.4558 11.6226C12.4558 11.6226 12.3503 11.4187 12.1605 11.5945C12.1605 11.5945 12.2449 11.7105 12.2414 11.7633H12.2378ZM11.9742 11.5523C11.9742 11.5523 12.0937 12.0234 11.9179 12.164C11.9179 12.164 11.9214 11.9215 11.816 11.7773C11.7105 11.6332 11.9214 11.475 11.9777 11.5488L11.9742 11.5523Z" fill="#00A651" stroke="black" stroke-width="0.03125" stroke-miterlimit="4.8"/>
<path d="M11.9883 11.6367C11.9883 11.6367 12.1992 11.8336 12.2098 11.9004C12.2238 11.9672 12.2695 11.7035 12.1746 11.6262C12.1143 11.5815 12.0446 11.5514 11.9707 11.5383L11.9883 11.6367Z" fill="#00A651" stroke="black" stroke-width="0.03125" stroke-miterlimit="4.8"/>
<path d="M11.6051 12.157C11.6051 12.157 11.6262 12.2379 11.6754 12.2555C11.6754 12.2555 11.6789 12.3152 11.7246 12.3363C11.7246 12.3363 11.7 12.3856 11.7422 12.4172C11.7422 12.4172 11.7317 12.5227 11.7703 12.5438C11.7703 12.5438 11.8617 12.5367 11.8934 12.5086C11.8934 12.5086 11.9145 12.4418 11.8617 12.375C11.8617 12.375 11.8688 12.3117 11.8196 12.2766C11.8196 12.2766 11.8336 12.1887 11.7703 12.157C11.7703 12.157 11.7598 12.0867 11.7211 12.0516C11.7211 12.0516 11.6403 12.1641 11.6051 12.157Z" fill="#964B36" stroke="black" stroke-width="0.03125" stroke-miterlimit="4.8"/>
<path d="M11.707 12.0551C11.707 12.0551 11.4363 11.9531 11.2852 12.0973C11.2852 12.0973 11.5172 12.1289 11.5488 12.1746C11.577 12.2203 11.7211 12.1008 11.7105 12.0551H11.707Z" fill="#00A651" stroke="black" stroke-width="0.03125" stroke-miterlimit="4.8"/>
<path d="M11.6262 12.2238L11.5769 12.1851C11.5488 12.1676 11.3203 12.1043 11.2887 12.3258C11.2887 12.3258 11.2078 12.1078 11.3273 12.0797C11.4469 12.0445 11.5453 12.1148 11.6262 12.2203M11.4469 11.7738C11.4469 11.7738 11.5312 11.9496 11.5629 11.9637C11.591 11.9707 11.6156 11.939 11.6156 11.939C11.6156 11.939 11.5031 11.7773 11.4469 11.7738ZM11.3836 11.4926C11.3836 11.4926 11.3133 11.2605 11.2324 11.3238C11.148 11.3836 11.1691 11.5523 11.1691 11.5523C11.1691 11.5523 11.0004 11.3801 11.0988 11.243C11.1973 11.1058 11.3871 11.257 11.3871 11.4961L11.3836 11.4926Z" fill="#00A651"/>
<path d="M11.6262 12.2238L11.5769 12.1851C11.5488 12.1676 11.3203 12.1043 11.2887 12.3258C11.2887 12.3258 11.2078 12.1078 11.3273 12.0797C11.4469 12.0445 11.5453 12.1148 11.6262 12.2203M11.4469 11.7738C11.4469 11.7738 11.5312 11.9496 11.5629 11.9637C11.591 11.9707 11.6156 11.939 11.6156 11.939C11.6156 11.939 11.5031 11.7773 11.4469 11.7738ZM11.3836 11.4926C11.3836 11.4926 11.3133 11.2605 11.2324 11.3238C11.148 11.3836 11.1691 11.5523 11.1691 11.5523C11.1691 11.5523 11.0004 11.3801 11.0988 11.243C11.1973 11.1058 11.3871 11.257 11.3871 11.4961L11.3836 11.4926Z" stroke="black" stroke-width="0.03125" stroke-miterlimit="4.8"/>
<path d="M11.5735 11.9742C11.5735 11.9742 11.5735 12.0199 11.6086 12.0305C11.6368 12.0445 11.693 12.0656 11.693 12.041C11.693 12.0164 11.6508 11.9144 11.6333 11.925C11.6157 11.939 11.584 11.939 11.5735 11.9742Z" fill="#964B36" stroke="black" stroke-width="0.03125" stroke-miterlimit="4.8"/>
<path d="M11.5207 11.7035C11.5207 11.7035 11.5137 11.4996 11.6437 11.4223C11.6437 11.4223 11.6719 11.4293 11.6859 11.3871C11.6859 11.3871 11.5805 11.6438 11.6086 11.7738V11.7914" fill="#00A651"/>
<path d="M11.5207 11.7035C11.5207 11.7035 11.5137 11.4996 11.6437 11.4223C11.6437 11.4223 11.6719 11.4293 11.6859 11.3871C11.6859 11.3871 11.5805 11.6438 11.6086 11.7738V11.7914" stroke="black" stroke-width="0.03125" stroke-miterlimit="4.8"/>
<path d="M11.5488 11.4539C11.5488 11.4539 11.7879 10.9617 12.0762 11.134C12.0762 11.134 11.7738 11.1938 11.6648 11.4117L11.5523 11.5734L11.5488 11.4539Z" fill="#00A651" stroke="black" stroke-width="0.03125" stroke-miterlimit="4.8"/>
<path d="M11.4223 11.6367C11.4223 11.6367 11.352 11.3062 11.3063 11.2605C11.2606 11.2184 11.1868 11.1691 11.0989 11.243C11.0989 11.243 11.2536 11.1059 11.4153 11.2219C11.5805 11.3379 11.5454 11.5172 11.5454 11.5172L11.5278 11.7457L11.4153 11.6437" fill="#00A651"/>
<path d="M11.4223 11.6367C11.4223 11.6367 11.352 11.3062 11.3063 11.2605C11.2606 11.2184 11.1868 11.1691 11.0989 11.243C11.0989 11.243 11.2536 11.1059 11.4153 11.2219C11.5805 11.3379 11.5454 11.5172 11.5454 11.5172L11.5278 11.7457L11.4153 11.6437" stroke="black" stroke-width="0.03125" stroke-miterlimit="4.8"/>
<path d="M11.6754 12.0269C11.6754 12.0269 11.3836 11.4785 11.1973 11.8687C11.1973 11.8687 11.1621 11.9707 11.1973 12.0094C11.1973 12.0094 11.0918 11.932 11.141 11.7351C11.1902 11.5453 11.5137 11.6297 11.6051 11.7914C11.6965 11.9496 11.7246 12.0269 11.7105 12.0375C11.6965 12.0445 11.6754 12.0269 11.6754 12.0269ZM12.4945 12.1851C12.4945 12.1851 12.7055 11.7492 12.832 11.9496C12.832 11.9496 12.8672 12.0445 12.8109 12.0867C12.8109 12.0867 12.7301 11.9812 12.6527 12.1078C12.5824 12.2308 12.6105 12.2203 12.6105 12.2203C12.6105 12.2203 12.5297 12.2449 12.4945 12.1851Z" fill="#00A651" stroke="black" stroke-width="0.03125" stroke-miterlimit="4.8"/>
<path d="M12.8109 12.0867C12.8109 12.0867 12.9269 12.1465 12.8883 12.2695C12.8883 12.2695 13.0429 11.9742 12.8285 11.9496C12.8285 11.9496 12.8707 12.041 12.8144 12.0867H12.8109ZM12.825 11.7844C12.825 11.7844 13.1062 11.8652 13.1133 11.9848C13.1133 11.9848 13.159 11.7563 13.0008 11.6859C13.0008 11.6859 12.8109 11.7141 12.825 11.7844Z" fill="#00A651" stroke="black" stroke-width="0.03125" stroke-miterlimit="4.8"/>
<path d="M12.9481 11.4187C13.0676 11.1867 13.2188 11.4961 13.2188 11.4961C13.2188 11.4961 13.2715 11.25 13.1204 11.2078C12.9692 11.1656 12.8743 11.7246 12.8743 11.7246L12.6985 11.7633C12.6985 11.7633 12.7477 11.2746 13.0114 11.2289L13.043 11.2359" fill="#00A651"/>
<path d="M12.9481 11.4187C13.0676 11.1867 13.2188 11.4961 13.2188 11.4961C13.2188 11.4961 13.2715 11.25 13.1204 11.2078C12.9692 11.1656 12.8743 11.7246 12.8743 11.7246L12.6985 11.7633C12.6985 11.7633 12.7477 11.2746 13.0114 11.2289L13.043 11.2359" stroke="black" stroke-width="0.03125" stroke-miterlimit="4.8"/>
<path d="M12.7371 11.5594C12.7371 11.5594 12.5683 11.2184 12.4558 11.1832C12.3398 11.148 12.5191 11.0953 12.5894 11.1586C12.6597 11.2289 12.7898 11.3098 12.7758 11.4855L12.7406 11.5594H12.7371ZM12.5648 12.0305C12.5648 12.0305 12.614 11.7984 12.7476 11.7281C12.8777 11.6578 13.0008 11.6824 13.0008 11.6824C13.0008 11.6824 12.8426 11.7176 12.8179 11.7984C12.7898 11.8793 12.7476 11.8828 12.7476 11.8828L12.5648 12.0305Z" fill="#00A651" stroke="black" stroke-width="0.03125" stroke-miterlimit="4.8"/>
<path d="M12.4945 12.1852C12.4945 12.1852 12.4207 12.3258 12.4383 12.3504C12.4383 12.3504 12.3574 12.4629 12.3891 12.5227C12.3891 12.5227 12.4699 12.5824 12.5051 12.5578C12.5051 12.5578 12.5965 12.4277 12.5719 12.3574C12.5719 12.3574 12.6316 12.273 12.607 12.2203C12.607 12.2203 12.5191 12.2273 12.4945 12.1852Z" fill="#964B36" stroke="black" stroke-width="0.03125" stroke-miterlimit="4.8"/>
<path d="M12.1078 11.9355C12.1114 11.9355 12.1571 11.9602 12.1887 11.9496L12.2098 11.932L12.1922 11.9215C12.1817 11.9426 12.1324 11.925 12.1149 11.918L12.1078 11.9355ZM12.1008 12.0727L12.0973 12.0902C12.1008 12.0902 12.1887 12.1078 12.2344 12.0691L12.2203 12.0551C12.1852 12.0902 12.1008 12.0727 12.1008 12.0727ZM12.0762 12.2273L12.0656 12.2414C12.0656 12.2414 12.1711 12.3188 12.2414 12.2379L12.2239 12.2238C12.1676 12.2941 12.0832 12.2309 12.0797 12.2238L12.0762 12.2273ZM11.6754 12.2484V12.259C11.6824 12.259 11.7703 12.2238 11.7774 12.157H11.7668C11.7598 12.2168 11.6754 12.2484 11.6754 12.2484ZM11.7246 12.3293V12.3398C11.7281 12.3398 11.809 12.3328 11.8231 12.2766H11.8125C11.802 12.3258 11.7246 12.3293 11.7246 12.3293ZM11.7422 12.4137V12.4242C11.7422 12.4242 11.8371 12.4277 11.8653 12.3785L11.8582 12.3715C11.8301 12.4172 11.7422 12.4137 11.7422 12.4137ZM12.4313 12.3574C12.4313 12.3574 12.4735 12.3961 12.5192 12.3926C12.5305 12.3924 12.5418 12.3897 12.552 12.3849C12.5623 12.38 12.5715 12.3731 12.5789 12.3645L12.5649 12.3539C12.5528 12.3663 12.5365 12.3738 12.5192 12.375C12.5051 12.3743 12.4914 12.3709 12.4787 12.3649C12.466 12.3588 12.4547 12.3503 12.4453 12.3398L12.4313 12.3574Z" fill="black"/>
<path d="M15.1664 12.6774C15.161 12.6797 15.1562 12.6834 15.1523 12.6879L15.1664 12.6774ZM15.4898 12.5965C15.4898 12.5895 15.4863 12.593 15.4828 12.5895L15.4688 12.5613H15.4582L15.4336 12.5121C15.4342 12.5098 15.4342 12.5074 15.4336 12.5051C15.4337 12.5004 15.4337 12.4957 15.4336 12.491C15.4301 12.4875 15.4266 12.491 15.423 12.484V12.4594L15.4195 12.4453V12.4242C15.42 12.4196 15.42 12.4148 15.4195 12.4102C15.4125 12.3961 15.4055 12.3856 15.4055 12.368L15.409 12.3328L15.402 12.2977L15.409 12.266V12.0797C15.402 12.0656 15.4055 12.0551 15.402 12.0445V11.9742L15.3984 12.0621C15.3984 11.9848 15.3914 11.9109 15.3914 11.9109L15.2754 11.8582C15.2754 11.8582 15.2648 12.0727 15.2684 12.1043C15.2684 12.1324 15.2789 12.3399 15.2754 12.3645C15.2684 12.3891 15.2578 12.5121 15.2578 12.5121C15.2578 12.5121 15.2016 12.5543 15.177 12.6C15.1559 12.6422 15.1594 12.6598 15.1523 12.6598L15.2086 12.6492L15.1664 12.6774C15.1705 12.6757 15.1749 12.6752 15.1792 12.6758C15.1835 12.6764 15.1876 12.6782 15.191 12.6809L15.2016 12.6879L15.2086 12.6809L15.2332 12.6949L15.2473 12.6844L15.2543 12.6703H15.293C15.3035 12.6703 15.3105 12.6563 15.3211 12.6457C15.3316 12.6387 15.3387 12.6352 15.3492 12.6352C15.3598 12.6352 15.3703 12.6457 15.3809 12.6492C15.3879 12.6492 15.3949 12.6492 15.402 12.6387L15.4125 12.6176H15.4793L15.4898 12.6246L15.4934 12.6106V12.5965H15.4898Z" fill="#964B36"/>
<path d="M15.1664 12.6774C15.161 12.6797 15.1562 12.6834 15.1523 12.6879L15.1664 12.6774ZM15.1664 12.6774L15.2086 12.6492L15.1523 12.6598C15.1594 12.6598 15.1559 12.6422 15.177 12.6C15.2016 12.5543 15.2578 12.5121 15.2578 12.5121C15.2578 12.5121 15.2684 12.3891 15.2754 12.3645C15.2789 12.3399 15.2684 12.1324 15.2684 12.1043C15.2648 12.0727 15.2754 11.8582 15.2754 11.8582L15.3914 11.9109C15.3914 11.9109 15.3984 11.9848 15.3984 12.0621L15.402 11.9742V12.0445C15.4055 12.0551 15.402 12.0656 15.409 12.0797V12.266L15.402 12.2977L15.409 12.3328L15.4055 12.368C15.4055 12.3856 15.4125 12.3961 15.4195 12.4102C15.42 12.4148 15.42 12.4196 15.4195 12.4242V12.4453L15.423 12.4594V12.484C15.4266 12.491 15.4301 12.4875 15.4336 12.491C15.4337 12.4957 15.4337 12.5004 15.4336 12.5051C15.4342 12.5074 15.4342 12.5098 15.4336 12.5121L15.4582 12.5613H15.4688L15.4828 12.5895C15.4863 12.593 15.4898 12.5895 15.4898 12.5965H15.4934V12.6106L15.4898 12.6246L15.4793 12.6176H15.4125L15.402 12.6387C15.3949 12.6492 15.3879 12.6492 15.3809 12.6492C15.3703 12.6457 15.3598 12.6352 15.3492 12.6352C15.3387 12.6352 15.3316 12.6387 15.3211 12.6457C15.3105 12.6563 15.3035 12.6703 15.293 12.6703H15.2543L15.2473 12.6844L15.2332 12.6949L15.2086 12.6809L15.2016 12.6879L15.191 12.6809C15.1876 12.6782 15.1835 12.6764 15.1792 12.6758C15.1749 12.6752 15.1705 12.6757 15.1664 12.6774Z" stroke="black" stroke-width="0.01875" stroke-miterlimit="4.8"/>
<path d="M15.2543 12.6738L15.2719 12.6773L15.2754 12.6844C15.2765 12.685 15.2777 12.6853 15.2789 12.6853C15.2801 12.6853 15.2814 12.685 15.2824 12.6844L15.293 12.6879H15.3035L15.3176 12.6914C15.3246 12.6949 15.3316 12.6914 15.3387 12.6879C15.3457 12.6809 15.3492 12.6879 15.3562 12.6949C15.3633 12.702 15.3633 12.6984 15.3668 12.6949C15.3668 12.6938 15.3668 12.6926 15.3668 12.6914L15.3773 12.6879L15.3914 12.6844L15.402 12.6773L15.416 12.6844C15.4185 12.6852 15.4209 12.6864 15.423 12.6879C15.4301 12.6773 15.4441 12.6738 15.4512 12.6668H15.4969C15.5004 12.6633 15.5004 12.6598 15.5074 12.6598L15.532 12.6738C15.5355 12.6738 15.5566 12.6809 15.5531 12.6633C15.5531 12.6492 15.5391 12.6598 15.5355 12.6492V12.6281C15.5343 12.6249 15.5324 12.622 15.53 12.6196C15.5276 12.6172 15.5247 12.6153 15.5215 12.6141H15.5109L15.5039 12.5965C15.5004 12.5965 15.4969 12.6 15.4898 12.5965L15.4828 12.5895C15.4723 12.5789 15.4652 12.5965 15.4582 12.593C15.4512 12.593 15.4441 12.5754 15.4371 12.5684C15.4371 12.5648 15.4266 12.5508 15.423 12.5543C15.416 12.5578 15.423 12.5719 15.4195 12.5789C15.416 12.5824 15.4055 12.5789 15.4055 12.5789C15.3984 12.5789 15.3984 12.5789 15.3949 12.5895C15.3844 12.6 15.3809 12.6106 15.3703 12.6106L15.3527 12.6035C15.3492 12.607 15.3457 12.6141 15.3387 12.6141C15.334 12.615 15.3292 12.615 15.3246 12.6141C15.3176 12.6141 15.3141 12.6035 15.3105 12.6C15.3105 12.5991 15.3102 12.5982 15.3095 12.5975C15.3089 12.5969 15.308 12.5965 15.307 12.5965C15.3061 12.5965 15.3052 12.5969 15.3045 12.5975C15.3039 12.5982 15.3035 12.5991 15.3035 12.6L15.2965 12.5965C15.2895 12.593 15.2895 12.5965 15.2859 12.6035V12.6211L15.2719 12.6352L15.2578 12.6387C15.2543 12.6387 15.2473 12.6492 15.2438 12.6387C15.2402 12.6246 15.2543 12.6 15.2367 12.6035C15.2367 12.6035 15.2297 12.6035 15.2262 12.6141V12.6352C15.2262 12.6457 15.2051 12.6633 15.2086 12.6703C15.2086 12.6809 15.2191 12.6703 15.2227 12.6703C15.2262 12.6738 15.2227 12.6809 15.2297 12.6844C15.2332 12.6949 15.2543 12.6703 15.2543 12.6844M15.1805 12.5895V12.5859L15.1629 12.5789L15.1488 12.593C15.1383 12.6106 15.1418 12.6281 15.1242 12.6281H15.1102C15.1031 12.6316 15.1102 12.6457 15.1102 12.6527V12.6633C15.1066 12.6633 15.1031 12.6633 15.0996 12.6703C15.0996 12.6844 15.1102 12.6809 15.1137 12.6809H15.1488L15.1699 12.6738L15.1875 12.6703C15.1906 12.6648 15.1929 12.6589 15.1945 12.6527V12.6387C15.1945 12.6316 15.2016 12.6352 15.2051 12.6246C15.2051 12.6 15.1805 12.6176 15.184 12.593" fill="#964B36"/>
<path d="M15.2543 12.6738L15.2719 12.6773L15.2754 12.6844C15.2765 12.685 15.2777 12.6853 15.2789 12.6853C15.2801 12.6853 15.2814 12.685 15.2824 12.6844L15.293 12.6879H15.3035L15.3176 12.6914C15.3246 12.6949 15.3316 12.6914 15.3387 12.6879C15.3457 12.6809 15.3492 12.6879 15.3562 12.6949C15.3633 12.702 15.3633 12.6984 15.3668 12.6949C15.3668 12.6938 15.3668 12.6926 15.3668 12.6914L15.3773 12.6879L15.3914 12.6844L15.402 12.6773L15.416 12.6844C15.4185 12.6852 15.4209 12.6864 15.423 12.6879C15.4301 12.6773 15.4441 12.6738 15.4512 12.6668H15.4969C15.5004 12.6633 15.5004 12.6598 15.5074 12.6598L15.532 12.6738C15.5355 12.6738 15.5566 12.6809 15.5531 12.6633C15.5531 12.6492 15.5391 12.6598 15.5355 12.6492V12.6281C15.5343 12.6249 15.5324 12.622 15.53 12.6196C15.5276 12.6172 15.5247 12.6153 15.5215 12.6141H15.5109L15.5039 12.5965C15.5004 12.5965 15.4969 12.6 15.4898 12.5965L15.4828 12.5895C15.4723 12.5789 15.4652 12.5965 15.4582 12.593C15.4512 12.593 15.4441 12.5754 15.4371 12.5684C15.4371 12.5648 15.4266 12.5508 15.423 12.5543C15.416 12.5578 15.423 12.5719 15.4195 12.5789C15.416 12.5824 15.4055 12.5789 15.4055 12.5789C15.3984 12.5789 15.3984 12.5789 15.3949 12.5895C15.3844 12.6 15.3809 12.6106 15.3703 12.6106L15.3527 12.6035C15.3492 12.607 15.3457 12.6141 15.3387 12.6141C15.334 12.615 15.3292 12.615 15.3246 12.6141C15.3176 12.6141 15.3141 12.6035 15.3105 12.6C15.3105 12.5991 15.3102 12.5982 15.3095 12.5975C15.3089 12.5969 15.308 12.5965 15.307 12.5965C15.3061 12.5965 15.3052 12.5969 15.3045 12.5975C15.3039 12.5982 15.3035 12.5991 15.3035 12.6L15.2965 12.5965C15.2895 12.593 15.2895 12.5965 15.2859 12.6035V12.6211L15.2719 12.6352L15.2578 12.6387C15.2543 12.6387 15.2473 12.6492 15.2438 12.6387C15.2402 12.6246 15.2543 12.6 15.2367 12.6035C15.2367 12.6035 15.2297 12.6035 15.2262 12.6141V12.6352C15.2262 12.6457 15.2051 12.6633 15.2086 12.6703C15.2086 12.6809 15.2191 12.6703 15.2227 12.6703C15.2262 12.6738 15.2227 12.6809 15.2297 12.6844C15.2332 12.6949 15.2543 12.6703 15.2543 12.6844M15.1805 12.5895V12.5859L15.1629 12.5789L15.1488 12.593C15.1383 12.6106 15.1418 12.6281 15.1242 12.6281H15.1102C15.1031 12.6316 15.1102 12.6457 15.1102 12.6527V12.6633C15.1066 12.6633 15.1031 12.6633 15.0996 12.6703C15.0996 12.6844 15.1102 12.6809 15.1137 12.6809H15.1488L15.1699 12.6738L15.1875 12.6703C15.1906 12.6648 15.1929 12.6589 15.1945 12.6527V12.6387C15.1945 12.6316 15.2016 12.6352 15.2051 12.6246C15.2051 12.6 15.1805 12.6176 15.184 12.593" stroke="black" stroke-width="0.01875" stroke-miterlimit="4.8"/>
<path d="M15.4759 11.9074C15.4759 11.9426 15.4548 11.9672 15.4267 11.9672C15.3985 11.9672 15.3774 11.9391 15.3774 11.9074C15.3774 11.8758 15.3985 11.8512 15.4267 11.8512C15.4548 11.8512 15.4759 11.8758 15.4759 11.9074ZM15.3177 11.8371C15.3177 11.8723 15.2931 11.8934 15.2685 11.8934C15.2403 11.8934 15.2192 11.8687 15.2192 11.8371C15.2192 11.8055 15.2403 11.7809 15.2685 11.7809C15.2931 11.7809 15.3177 11.8055 15.3177 11.8371Z" fill="black" stroke="black" stroke-width="0.03125" stroke-miterlimit="4.8"/>
<path d="M15.3985 11.8582C15.3985 11.8933 15.3774 11.918 15.3528 11.918C15.3247 11.918 15.3036 11.8898 15.3036 11.8582C15.3036 11.8265 15.3247 11.8019 15.3528 11.8019C15.3774 11.8019 15.3985 11.8265 15.3985 11.8582Z" fill="black" stroke="black" stroke-width="0.03125" stroke-miterlimit="4.8"/>
<path d="M15.3177 11.9109C15.3177 11.9461 15.2966 11.9707 15.272 11.9707C15.2439 11.9707 15.2228 11.9426 15.2228 11.9109C15.2228 11.8793 15.2439 11.8547 15.272 11.8547C15.2966 11.8547 15.3177 11.8793 15.3177 11.9109Z" fill="black" stroke="black" stroke-width="0.03125" stroke-miterlimit="4.8"/>
<path d="M15.3951 11.9531C15.3951 11.9883 15.374 12.0129 15.3458 12.0129C15.3177 12.0129 15.2966 11.9883 15.2966 11.9566C15.2966 11.9215 15.3177 11.8969 15.3458 11.8969C15.374 11.8969 15.3951 11.925 15.3951 11.9566V11.9531Z" fill="black" stroke="black" stroke-width="0.03125" stroke-miterlimit="4.8"/>
<path d="M15.4161 11.3308C15.4161 11.3308 15.9083 10.6488 16.4321 11.359C16.4321 11.359 16.4321 11.4293 16.3864 11.4996L16.3724 11.4469L16.3442 11.4539L16.3337 11.4187L16.2774 11.4152L16.295 11.3414L16.2317 11.3871L16.2423 11.3344L16.172 11.4047L16.179 11.257L16.1052 11.3836L16.1122 11.2957L16.0876 11.3344L16.07 11.2851L16.0489 11.3344L16.0138 11.3098V11.3449L15.9505 11.2922L15.9294 11.3625L15.8942 11.2887L15.8872 11.3379L15.8591 11.2781L15.8521 11.3449L15.7536 11.2992L15.7747 11.3625L15.7255 11.3273L15.736 11.3625L15.6657 11.3484L15.6728 11.3871L15.6024 11.3766L15.6165 11.4117L15.5181 11.3976L15.5532 11.4363L15.5427 11.4539C15.5427 11.4539 16.0735 11.2781 16.1087 11.9391L16.0138 11.9883L16.0384 11.9355L16.0138 11.918L15.9329 11.8547L15.954 11.7703L15.9294 11.7808L15.9224 11.7316L15.9118 11.7422L15.8767 11.693L15.8696 11.7105L15.8485 11.6508L15.8274 11.693L15.8134 11.5945L15.7782 11.6578L15.7747 11.6226L15.7606 11.6437L15.7185 11.591L15.7044 11.6262L15.6868 11.598L15.6728 11.6332L15.6235 11.5875V11.6226L15.5954 11.5945L15.5813 11.6121L15.504 11.5734V11.6086L15.4618 11.5734L15.4478 11.6086C15.4478 11.6086 15.9294 11.8828 15.7782 12.3258L15.7536 12.3855L15.7431 12.2344L15.7009 12.3152L15.729 12.1394L15.7009 12.1746L15.6938 12.1043L15.6552 12.1746L15.6411 12.0973L15.6235 12.1183L15.5989 12.0058L15.5743 12.0551L15.5392 11.925L15.5146 11.9777L15.497 11.8687L15.4794 11.9355L15.4267 11.8371L15.4161 11.8758L15.388 11.7984L15.3704 11.823C15.3704 11.823 15.2825 11.823 15.2544 11.7984C15.2263 11.7773 15.1524 11.932 15.1524 11.932L15.163 11.8371L15.1278 11.9004V11.8371L15.0751 12.0234L15.061 11.8898L15.0294 12.0058L15.0153 11.9707L15.0083 12.0199L14.9907 12.0023L14.9731 12.0515L14.945 12.0305V12.1008L14.9204 12.0656L14.8958 12.1711L14.8853 12.1289V12.1781L14.8606 12.15L14.8396 12.2555L14.8079 12.2133V12.2871L14.8185 12.3433L14.7833 12.3258L14.7974 12.4207C14.7974 12.4207 14.6567 12.164 14.822 11.918C14.9872 11.6719 15.2087 11.6015 15.2087 11.6015L15.1841 11.584L15.1806 11.5594L15.047 11.6297L15.0505 11.5875L15.0153 11.6156L15.0083 11.5734L14.9872 11.6121L14.9802 11.5945L14.9521 11.6437L14.9345 11.5734L14.9099 11.6578L14.8888 11.598L14.8431 11.7246V11.6297L14.8079 11.7281L14.7974 11.6226L14.7692 11.7457V11.6332L14.7306 11.7457L14.7024 11.6402L14.6849 11.7422L14.6603 11.6613L14.6321 11.7808L14.5935 11.6754L14.5724 11.8336L14.5442 11.7703L14.5407 11.8863L14.5091 11.816L14.5407 11.9637L14.5021 11.9074L14.5126 11.9988L14.4563 11.9004L14.4599 12.0199L14.4317 11.9777L14.4177 12.0234C14.4177 12.0234 14.4036 11.5664 14.7165 11.475C15.0294 11.3871 15.2333 11.5031 15.2333 11.5031L15.1138 11.4047L15.1278 11.3766H15.0821L15.0997 11.3414H15.0118L15.0364 11.3062L14.9661 11.3168V11.2957L14.9239 11.3308L14.9415 11.2922L14.8782 11.3308V11.2711L14.8431 11.3238L14.8255 11.2711L14.6849 11.4117L14.7235 11.264L14.6989 11.2992L14.6954 11.264L14.6532 11.3273L14.6462 11.2816L14.6286 11.3344L14.6146 11.2746L14.5829 11.3344L14.5548 11.2781L14.5407 11.3519L14.5161 11.3168L14.4915 11.3695L14.4563 11.3344L14.4528 11.3695L14.3825 11.3414L14.4001 11.3941L14.3474 11.3484L14.3333 11.4187L14.3017 11.3836L14.2806 11.4715L14.2595 11.3871L14.2349 11.4574C14.2349 11.4574 14.5126 10.7473 15.2087 11.2113C15.2087 11.2113 15.286 11.2816 15.3036 11.3344C15.3212 11.3871 15.3036 11.3449 15.3036 11.3449L15.2931 10.8527L15.3212 11.0637L15.3388 10.9933L15.3317 11.0988L15.4021 10.9476C15.4021 10.9476 15.3212 11.2043 15.3493 11.2992C15.3493 11.2992 15.3845 11.0004 15.4899 10.9652L15.3915 11.1762L15.4196 11.1726L15.3985 11.2148H15.4267L15.3915 11.2851L15.3774 11.3203L15.395 11.3555L15.4196 11.3308H15.4161Z" fill="#00A651" stroke="black" stroke-width="0.03125" stroke-miterlimit="4.8"/>
<path d="M15.3458 11.6192L15.3598 11.6297C15.3598 11.6297 15.4055 11.584 15.4758 11.6438L15.4899 11.6297C15.402 11.5559 15.3458 11.6192 15.3458 11.6192ZM15.3247 11.3801L15.3211 11.3942L15.3563 11.3801L15.3317 11.4223L15.3809 11.4047L15.3176 11.4856L15.3352 11.4996L15.4336 11.366L15.3704 11.3871L15.3985 11.3414L15.3458 11.366L15.3563 11.2957H15.3387L15.3247 11.3801Z" fill="black"/>
<path d="M15.2298 11.3836L15.2509 11.4328L15.2157 11.4187L15.3212 11.5945L15.3317 11.5805L15.3106 11.6332L15.3282 11.6402L15.3739 11.5277L15.3563 11.5172L15.3212 11.5629L15.2614 11.4574L15.2896 11.468L15.2614 11.4047L15.2966 11.4293V11.359H15.279V11.3941L15.2228 11.3555L15.2333 11.3836H15.2298ZM15.1665 11.6086L15.1735 11.6262C15.2017 11.6156 15.2228 11.6121 15.2438 11.6227C15.2614 11.6297 15.2685 11.6508 15.2685 11.6508L15.286 11.6473C15.286 11.6473 15.279 11.6191 15.2509 11.6051C15.2263 11.5945 15.1981 11.5945 15.1665 11.6086ZM15.2438 11.7984L15.2298 11.7H15.2474L15.2649 11.7984H15.2438ZM15.381 11.7844L15.3563 11.707L15.3739 11.7035L15.3985 11.7773L15.381 11.7844ZM15.4302 11.8406L15.4126 11.7633L15.4302 11.7598L15.4478 11.8336L15.4302 11.8406Z" fill="black"/>
<path d="M11.6719 14.0977C11.6719 14.0977 11.5876 14.0625 11.5489 14.0906C11.5137 14.1188 11.5137 14.1574 11.4821 14.1539C11.4821 14.1539 11.6087 14.182 11.6368 14.1504L11.6719 14.1082M11.686 14.1363C11.686 14.1363 11.6298 14.2067 11.6509 14.2488C11.6684 14.291 11.7071 14.2945 11.7001 14.3262C11.7001 14.3262 11.7528 14.2102 11.7282 14.1785L11.693 14.1363M11.5946 13.9324C11.5946 13.9324 11.5067 13.9606 11.4962 14.0027C11.4856 14.052 11.5173 14.0766 11.4927 14.0977C11.4927 14.0977 11.6016 14.0344 11.6016 13.9922C11.602 13.9746 11.6008 13.9569 11.5981 13.9395M11.6438 13.9641C11.6438 13.9641 11.686 13.8832 11.6579 13.8445C11.6333 13.8059 11.5911 13.8094 11.5981 13.7742C11.5981 13.7742 11.563 13.9008 11.5981 13.9289L11.6333 13.9641M11.5594 13.9324C11.5594 13.9324 11.5594 13.8445 11.5208 13.8199C11.4821 13.7953 11.4469 13.8164 11.4364 13.7848C11.4364 13.7848 11.4575 13.9113 11.4997 13.9254L11.5524 13.9359M11.7071 14.0836C11.7071 14.0836 11.802 14.052 11.8126 14.1539C11.8161 14.2594 11.8055 14.2242 11.8055 14.2242C11.8055 14.2242 11.7563 14.1117 11.7001 14.0942L11.7071 14.0836Z" fill="#00A651"/>
<path d="M11.6719 14.0977C11.6719 14.0977 11.5876 14.0625 11.5489 14.0906C11.5137 14.1188 11.5137 14.1574 11.4821 14.1539C11.4821 14.1539 11.6087 14.182 11.6368 14.1504L11.6719 14.1082M11.686 14.1363C11.686 14.1363 11.6298 14.2067 11.6509 14.2488C11.6684 14.291 11.7071 14.2945 11.7001 14.3262C11.7001 14.3262 11.7528 14.2102 11.7282 14.1785L11.693 14.1363M11.5946 13.9324C11.5946 13.9324 11.5067 13.9606 11.4962 14.0027C11.4856 14.052 11.5173 14.0766 11.4927 14.0977C11.4927 14.0977 11.6016 14.0344 11.6016 13.9922C11.602 13.9746 11.6008 13.9569 11.5981 13.9395M11.6438 13.9641C11.6438 13.9641 11.686 13.8832 11.6579 13.8445C11.6333 13.8059 11.5911 13.8094 11.5981 13.7742C11.5981 13.7742 11.563 13.9008 11.5981 13.9289L11.6333 13.9641M11.5594 13.9324C11.5594 13.9324 11.5594 13.8445 11.5208 13.8199C11.4821 13.7953 11.4469 13.8164 11.4364 13.7848C11.4364 13.7848 11.4575 13.9113 11.4997 13.9254L11.5524 13.9359M11.7071 14.0836C11.7071 14.0836 11.802 14.052 11.8126 14.1539C11.8161 14.2594 11.8055 14.2242 11.8055 14.2242C11.8055 14.2242 11.7563 14.1117 11.7001 14.0942L11.7071 14.0836Z" stroke="black" stroke-width="0.03125" stroke-miterlimit="4.8"/>
<path d="M11.6825 14.1363L11.693 14.2172H11.7071L11.6966 14.1363L11.7317 13.9641H11.7141L11.6825 14.1363Z" fill="black"/>
<path d="M11.5981 14.1117L11.5911 14.1223C11.6368 14.1398 11.7 14.0871 11.7036 14.0871L11.6965 14.0766C11.6965 14.0766 11.6333 14.1258 11.5981 14.1117ZM11.7141 14.0098L11.5032 13.9043L11.5102 13.8867L11.7211 13.9922L11.7141 14.0098Z" fill="black"/>
<path d="M11.5629 13.9851L11.5488 13.9746L11.591 13.9289L11.6051 13.943L11.5629 13.9851ZM11.6332 13.9641L11.591 13.8691L11.6086 13.8586L11.6543 13.957L11.6332 13.9641ZM11.7 14.0836V14.1047C11.7562 14.1012 11.7703 14.1398 11.7703 14.1398L11.7914 14.1328C11.7914 14.1223 11.7668 14.0801 11.7 14.0836Z" fill="black"/>
<path d="M12.6738 14.1293C12.7441 14.0906 12.7582 13.95 12.7582 13.95C12.7441 13.9992 12.6141 14.052 12.6141 14.052C12.709 13.9922 12.825 13.7215 12.825 13.7215C12.7934 13.8199 12.5438 13.8973 12.3785 13.9887C12.2168 14.0801 12.3012 14.3402 12.3012 14.3402C12.2241 14.2598 12.1728 14.1582 12.1535 14.0485C12.1359 13.9254 12.0867 13.8797 11.9777 13.8656C11.8652 13.8516 11.802 13.9746 11.802 13.9746L11.6367 14.0625L11.802 14.0695C11.802 14.0695 11.9215 14.1082 11.9215 14.2031C11.9215 14.2981 11.816 14.6707 11.9918 14.8817C12.1113 15.0258 12.5543 15.1102 12.5543 15.1102" fill="white"/>
<path d="M12.6738 14.1293C12.7441 14.0906 12.7582 13.95 12.7582 13.95C12.7441 13.9992 12.6141 14.052 12.6141 14.052C12.709 13.9922 12.825 13.7215 12.825 13.7215C12.7934 13.8199 12.5438 13.8973 12.3785 13.9887C12.2168 14.0801 12.3012 14.3402 12.3012 14.3402C12.2241 14.2598 12.1728 14.1582 12.1535 14.0485C12.1359 13.9254 12.0867 13.8797 11.9777 13.8656C11.8652 13.8516 11.802 13.9746 11.802 13.9746L11.6367 14.0625L11.802 14.0695C11.802 14.0695 11.9215 14.1082 11.9215 14.2031C11.9215 14.2981 11.816 14.6707 11.9918 14.8817C12.1113 15.0258 12.5543 15.1102 12.5543 15.1102" stroke="black" stroke-width="0.04375" stroke-miterlimit="4.8"/>
<path d="M12.3505 14.4176C12.3505 14.4176 12.3856 14.2488 12.4911 14.2559C12.6036 14.2629 12.6352 14.1328 12.702 14.1117C12.7653 14.0906 13.1028 14.0027 13.1415 13.8375C13.1415 13.8375 13.1063 14.1047 12.8005 14.2383C12.8005 14.2383 13.0466 14.1574 13.0782 14.1012C13.0782 14.1012 12.9657 14.3402 12.6985 14.3789C12.6985 14.3789 12.9516 14.3578 12.9868 14.291C12.9868 14.291 12.8743 14.4422 12.688 14.4598C12.688 14.4598 12.8602 14.5301 12.9059 14.4703C12.9059 14.4703 12.811 14.5828 12.695 14.5898L12.7266 14.6004C12.7266 14.6004 12.6141 14.7305 12.4946 14.6426C12.3716 14.5547 12.368 14.6637 12.368 14.6637" fill="white"/>
<path d="M12.3505 14.4176C12.3505 14.4176 12.3856 14.2488 12.4911 14.2559C12.6036 14.2629 12.6352 14.1328 12.702 14.1117C12.7653 14.0906 13.1028 14.0027 13.1415 13.8375C13.1415 13.8375 13.1063 14.1047 12.8005 14.2383C12.8005 14.2383 13.0466 14.1574 13.0782 14.1012C13.0782 14.1012 12.9657 14.3402 12.6985 14.3789C12.6985 14.3789 12.9516 14.3578 12.9868 14.291C12.9868 14.291 12.8743 14.4422 12.688 14.4598C12.688 14.4598 12.8602 14.5301 12.9059 14.4703C12.9059 14.4703 12.811 14.5828 12.695 14.5898L12.7266 14.6004C12.7266 14.6004 12.6141 14.7305 12.4946 14.6426C12.3716 14.5547 12.368 14.6637 12.368 14.6637" stroke="black" stroke-width="0.04375" stroke-miterlimit="4.8"/>
<path d="M12.6 14.6707C12.6 14.6707 12.7406 14.9098 12.7582 15.0363C12.7582 15.0363 13.0289 15.3387 13.1309 15.3527C13.1309 15.3527 13.0852 15.3738 12.9973 15.3C12.9973 15.3 13.0676 15.3774 13.0852 15.3809C13.0992 15.3809 13.0254 15.3738 13.0149 15.3527C13.0149 15.3527 13.043 15.3985 13.0641 15.4055L13.043 15.3985C13.043 15.3985 13.0078 15.3949 12.9903 15.3809C12.9727 15.3668 12.9832 15.416 12.9832 15.416C12.9832 15.416 12.941 15.4055 12.927 15.3914C12.9129 15.3774 12.934 15.4231 12.934 15.4231L12.8989 15.4125L12.8707 15.4301C12.8707 15.4301 12.8707 15.4477 12.8496 15.4336C12.8356 15.4195 12.8039 15.4336 12.8039 15.4336C12.8039 15.4336 12.7793 15.4547 12.7688 15.4406C12.7582 15.4266 12.716 15.4934 12.716 15.4934L12.5367 15.0609" fill="white"/>
<path d="M12.6 14.6707C12.6 14.6707 12.7406 14.9098 12.7582 15.0363C12.7582 15.0363 13.0289 15.3387 13.1309 15.3527C13.1309 15.3527 13.0852 15.3738 12.9973 15.3C12.9973 15.3 13.0676 15.3774 13.0852 15.3809C13.0992 15.3809 13.0254 15.3738 13.0149 15.3527C13.0149 15.3527 13.043 15.3985 13.0641 15.4055L13.043 15.3985C13.043 15.3985 13.0078 15.3949 12.9903 15.3809C12.9727 15.3668 12.9832 15.416 12.9832 15.416C12.9832 15.416 12.941 15.4055 12.927 15.3914C12.9129 15.3774 12.934 15.4231 12.934 15.4231L12.8989 15.4125L12.8707 15.4301C12.8707 15.4301 12.8707 15.4477 12.8496 15.4336C12.8356 15.4195 12.8039 15.4336 12.8039 15.4336C12.8039 15.4336 12.7793 15.4547 12.7688 15.4406C12.7582 15.4266 12.716 15.4934 12.716 15.4934L12.5367 15.0609" stroke="black" stroke-width="0.04375" stroke-miterlimit="4.8"/>
<path d="M12.7688 15.4547L12.5438 15.0223L12.5684 15.0117L12.7934 15.4406L12.7688 15.4547ZM12.9657 15.4231L12.579 14.9906L12.6001 14.9731L12.9868 15.4055L12.9657 15.4231ZM13.0571 15.3879L12.6141 14.9766L12.6317 14.9555L13.0782 15.3633L13.0571 15.3879Z" fill="black"/>
<path d="M11.9477 14.0021C11.9477 14.0021 11.9197 13.9507 11.894 13.9717C11.8706 13.9904 11.8566 13.9951 11.8519 13.9927C11.8519 13.9927 11.8753 13.9927 11.8916 13.981C11.9057 13.967 11.929 13.974 11.9477 14.0044V14.0021ZM11.7935 13.9787L11.8098 14.0114L11.7911 14.0652L11.8052 14.0699L11.8215 14.0114L11.8052 13.974L11.7935 13.9787Z" fill="black"/>
<path d="M11.943 13.9951C11.943 13.9951 11.9196 14.0185 11.8916 14.0138L11.8612 14.0068H11.9033C11.9196 14.0068 11.9407 13.9998 11.943 13.9951Z" fill="black"/>
<path d="M11.936 13.9998C11.936 13.9998 11.908 13.9717 11.8893 13.9811C11.8893 13.9811 11.922 13.9694 11.9407 13.9974L11.936 13.9998Z" fill="black"/>
<path d="M11.9314 13.9951C11.9314 13.9951 11.901 14.0161 11.8683 13.9951L11.866 13.9904H11.8706C11.8706 13.9904 11.9104 14.0067 11.9314 13.9951Z" fill="black"/>
<path d="M11.9057 13.9997C11.9109 13.9997 11.9151 13.9956 11.9151 13.9904C11.9151 13.9852 11.9109 13.981 11.9057 13.981C11.9005 13.981 11.8964 13.9852 11.8964 13.9904C11.8964 13.9956 11.9005 13.9997 11.9057 13.9997Z" fill="black"/>
<path d="M11.9321 14.7797C11.9321 14.7797 11.9075 14.8254 11.9216 14.85C11.9321 14.8746 11.9884 14.8887 11.9919 14.9238C12.0024 14.959 12.02 14.959 12.0446 14.952L12.0798 14.9484C12.0798 14.9484 11.9708 14.8887 11.9392 14.7973L11.9321 14.7797Z" fill="black"/>
<path d="M15.4267 13.9078C15.4267 13.9078 15.62 13.6476 15.7958 13.718C15.9716 13.7883 16.0841 13.8199 16.0841 13.8199C16.0841 13.8199 16.0876 13.9957 15.9962 13.9957C15.9013 13.9957 15.8134 13.8199 15.729 13.8691C15.6446 13.9219 15.5743 13.9922 15.5708 14.0168C15.5638 14.0414 15.3458 14.0484 15.4267 13.9113V13.9078Z" fill="#964B36" stroke="black" stroke-width="0.01875" stroke-miterlimit="4.8"/>
<path d="M14.6779 15.1594C14.6779 15.1594 14.6251 15.2156 14.6497 15.2297C14.6743 15.2437 14.72 15.2297 14.72 15.2086C14.72 15.1875 14.6884 15.1523 14.6779 15.1594Z" fill="#964B36" stroke="black" stroke-width="0.03125" stroke-miterlimit="4.8"/>
<path d="M14.6356 15.2156C14.6356 15.2156 14.5337 15.1558 14.4563 15.2929C14.3755 15.4301 14.3087 15.6515 14.263 15.6797C14.2173 15.7078 14.713 15.4617 14.72 15.3597C14.72 15.3597 14.7552 15.2261 14.6989 15.2261C14.6497 15.2297 14.6462 15.2367 14.6356 15.2121V15.2156Z" fill="#964B36" stroke="black" stroke-width="0.03125" stroke-miterlimit="4.8"/>
<path d="M14.6498 15.2297C14.6498 15.2297 14.5443 15.2543 14.5232 15.402C14.5021 15.5496 14.358 15.6234 14.3474 15.6305M16.0841 13.8164C16.0841 13.8164 15.9259 13.8727 15.9541 13.9816Z" fill="#964B36"/>
<path d="M14.6498 15.2297C14.6498 15.2297 14.5443 15.2543 14.5232 15.402C14.5021 15.5496 14.358 15.6234 14.3474 15.6305M16.0841 13.8164C16.0841 13.8164 15.9259 13.8727 15.9541 13.9816" stroke="black" stroke-width="0.01875" stroke-miterlimit="4.8"/>
<path d="M14.8746 14.1363C14.8746 14.1363 14.8781 13.7637 15.184 13.7812C15.2438 13.7848 15.2156 13.8516 15.2156 13.8516C15.2156 13.8516 15.2824 13.8059 15.3106 13.8797C15.3106 13.8797 15.409 13.8375 15.416 13.9324C15.416 13.9324 15.5215 13.9184 15.511 14.0027C15.511 14.0027 15.5813 13.9887 15.5813 14.0484C15.5813 14.0484 15.6621 14.0133 15.6516 14.0976C15.6516 14.0976 15.743 14.0379 15.7289 14.1469C15.7289 14.1469 15.8239 14.0836 15.8555 14.1926C15.8906 14.298 15.7606 14.5336 15.6375 14.5934" fill="#FFF200"/>
<path d="M14.8746 14.1363C14.8746 14.1363 14.8781 13.7637 15.184 13.7812C15.2438 13.7848 15.2156 13.8516 15.2156 13.8516C15.2156 13.8516 15.2824 13.8059 15.3106 13.8797C15.3106 13.8797 15.409 13.8375 15.416 13.9324C15.416 13.9324 15.5215 13.9184 15.511 14.0027C15.511 14.0027 15.5813 13.9887 15.5813 14.0484C15.5813 14.0484 15.6621 14.0133 15.6516 14.0976C15.6516 14.0976 15.743 14.0379 15.7289 14.1469C15.7289 14.1469 15.8239 14.0836 15.8555 14.1926C15.8906 14.298 15.7606 14.5336 15.6375 14.5934" stroke="black" stroke-width="0.01875" stroke-miterlimit="4.8"/>
<path d="M15.7219 14.1609C15.7219 14.1609 15.7641 14.4527 15.5989 14.5582L15.6059 14.5652C15.7747 14.4598 15.7325 14.1609 15.7325 14.1574H15.7219V14.1609ZM15.5251 14.4773L15.5321 14.4844C15.6376 14.3824 15.6587 14.1117 15.6587 14.0977H15.6481C15.6481 14.1012 15.627 14.3789 15.5251 14.4773ZM15.4266 14.4106H15.4372C15.4512 14.2453 15.5848 14.052 15.5848 14.052L15.5743 14.0449C15.5743 14.0449 15.4407 14.2418 15.4266 14.4106ZM15.3528 14.3613H15.3634C15.3809 14.1609 15.5145 14.0098 15.5145 14.0098L15.5075 13.9992C15.5075 13.9992 15.3704 14.1574 15.3528 14.3613ZM15.2473 14.2945H15.2544C15.2649 14.0555 15.4231 13.9395 15.4266 13.9359L15.4196 13.9289C15.4196 13.9289 15.2544 14.0484 15.2438 14.2945H15.2473ZM15.1454 14.2348H15.1594C15.1489 14.0168 15.3177 13.8832 15.3177 13.8832L15.3141 13.8762C15.3141 13.8762 15.1384 14.0133 15.1454 14.2348ZM14.9696 14.1574H14.9802C14.988 14.0897 15.015 14.0256 15.058 13.9727C15.1009 13.9198 15.1581 13.8802 15.2227 13.8586L15.2192 13.8481C15.1531 13.871 15.0948 13.9122 15.0513 13.967C15.0077 14.0218 14.9806 14.0878 14.9731 14.1574H14.9696Z" fill="black"/>
<path d="M14.6953 14.5899C14.6953 14.5899 14.6426 14.2453 14.85 14.1328C14.85 14.1328 14.8852 14.1258 14.9098 14.175C14.9098 14.175 15.0188 14.1293 15.0223 14.2207C15.0223 14.2207 15.075 14.1785 15.0926 14.2383C15.0926 14.2383 15.2086 14.2137 15.184 14.3016C15.184 14.3016 15.2824 14.2734 15.2754 14.3578C15.2754 14.3578 15.3738 14.3227 15.3563 14.393C15.3563 14.393 15.4617 14.3719 15.4371 14.4563C15.4371 14.4563 15.5637 14.4422 15.525 14.5336C15.525 14.5336 15.6199 14.509 15.5988 14.5828C15.5988 14.5828 15.7254 14.6039 15.6692 14.6813C15.5779 14.7938 15.4593 14.881 15.3246 14.9344" fill="#00A651"/>
<path d="M14.6953 14.5899C14.6953 14.5899 14.6426 14.2453 14.85 14.1328C14.85 14.1328 14.8852 14.1258 14.9098 14.175C14.9098 14.175 15.0188 14.1293 15.0223 14.2207C15.0223 14.2207 15.075 14.1785 15.0926 14.2383C15.0926 14.2383 15.2086 14.2137 15.184 14.3016C15.184 14.3016 15.2824 14.2734 15.2754 14.3578C15.2754 14.3578 15.3738 14.3227 15.3563 14.393C15.3563 14.393 15.4617 14.3719 15.4371 14.4563C15.4371 14.4563 15.5637 14.4422 15.525 14.5336C15.525 14.5336 15.6199 14.509 15.5988 14.5828C15.5988 14.5828 15.7254 14.6039 15.6692 14.6813C15.5779 14.7938 15.4593 14.881 15.3246 14.9344" stroke="black" stroke-width="0.01875" stroke-miterlimit="4.8"/>
<path d="M14.5829 14.9414C14.5829 14.9414 14.4985 14.6496 14.6603 14.5758C14.6603 14.5758 14.6884 14.5688 14.6954 14.5969C14.6954 14.5969 14.7306 14.5512 14.7587 14.5934C14.7587 14.5934 14.8396 14.5547 14.8571 14.6145C14.8571 14.6145 14.9134 14.5688 14.9415 14.6356C14.9415 14.6356 14.9907 14.6145 14.9907 14.6707C14.9907 14.6707 15.061 14.6356 15.061 14.7059C15.061 14.7059 15.1314 14.6777 15.1173 14.7516C15.1173 14.7516 15.2228 14.7656 15.1876 14.8149C15.1876 14.8149 15.2825 14.8395 15.2474 14.8781C15.2474 14.8781 15.3493 14.8676 15.2931 14.9344C15.2931 14.9344 15.3704 14.9098 15.3282 14.9942C15.2825 15.0785 15.1489 15.1699 15.0505 15.184" fill="#00A651"/>
<path d="M14.5829 14.9414C14.5829 14.9414 14.4985 14.6496 14.6603 14.5758C14.6603 14.5758 14.6884 14.5688 14.6954 14.5969C14.6954 14.5969 14.7306 14.5512 14.7587 14.5934C14.7587 14.5934 14.8396 14.5547 14.8571 14.6145C14.8571 14.6145 14.9134 14.5688 14.9415 14.6356C14.9415 14.6356 14.9907 14.6145 14.9907 14.6707C14.9907 14.6707 15.061 14.6356 15.061 14.7059C15.061 14.7059 15.1314 14.6777 15.1173 14.7516C15.1173 14.7516 15.2228 14.7656 15.1876 14.8149C15.1876 14.8149 15.2825 14.8395 15.2474 14.8781C15.2474 14.8781 15.3493 14.8676 15.2931 14.9344C15.2931 14.9344 15.3704 14.9098 15.3282 14.9942C15.2825 15.0785 15.1489 15.1699 15.0505 15.184" stroke="black" stroke-width="0.01875" stroke-miterlimit="4.8"/>
<path d="M14.6848 15.1664C14.6848 15.1664 14.5055 14.9906 14.5898 14.9414C14.5898 14.9414 14.625 14.952 14.6391 14.9906C14.6391 14.9906 14.6848 14.9273 14.7094 14.9906C14.7094 14.9906 14.7727 14.9695 14.7727 15.0152L14.8254 15.0504C14.8254 15.0504 14.8851 15.0504 14.8746 15.0855C14.8746 15.0855 14.9414 15.0785 14.9379 15.1137C14.9379 15.1137 14.9941 15.1137 14.9906 15.1523C14.9906 15.1523 15.0855 15.1699 15.0434 15.2191C15.0434 15.2191 14.8711 15.2543 14.7516 15.2051C14.7516 15.2051 14.6883 15.184 14.6812 15.1699L14.6848 15.1664Z" fill="#00A651" stroke="black" stroke-width="0.01875" stroke-miterlimit="4.8"/>
<path d="M15.3 14.8781L15.3035 14.8887C15.409 14.8465 15.5953 14.5969 15.6024 14.5828L15.5953 14.5793C15.5953 14.5793 15.4055 14.8394 15.3 14.8781ZM15.2403 14.8324L15.2438 14.843C15.3513 14.7535 15.4469 14.6507 15.5285 14.5371L15.5215 14.5301C15.5215 14.5301 15.3317 14.7832 15.2403 14.8324ZM15.1875 14.8113L15.1946 14.8184C15.293 14.7375 15.4336 14.4668 15.4407 14.4598L15.4301 14.4527C15.4301 14.4562 15.2824 14.734 15.184 14.8113H15.1875ZM15.1383 14.748H15.1489C15.1699 14.6144 15.3598 14.4035 15.3598 14.3965L15.3528 14.393C15.3457 14.4 15.1594 14.6109 15.1418 14.748H15.1383ZM14.7586 14.5863H14.7692C14.7516 14.393 14.9098 14.182 14.9133 14.1785L14.9063 14.1715C14.9063 14.1715 14.741 14.3894 14.7586 14.5863ZM14.8571 14.6004H14.8676C14.843 14.4457 15.0223 14.2277 15.0258 14.2242L15.0188 14.2172C15.0082 14.2277 14.8324 14.4422 14.8571 14.6039V14.6004ZM15.0117 14.6566H15.0223C15.0223 14.4809 15.1875 14.3051 15.1875 14.3051L15.1805 14.298C15.1805 14.298 15.0082 14.4773 15.0117 14.6566ZM14.6426 14.973H14.6531C14.5934 14.8113 14.6989 14.6039 14.6989 14.6004L14.6883 14.5969C14.6883 14.5969 14.5828 14.8078 14.6426 14.9766V14.973ZM14.7129 14.9871L14.7235 14.9836C14.6707 14.8184 14.7586 14.5969 14.7621 14.5969L14.7516 14.5898C14.7516 14.5898 14.6602 14.8184 14.7164 14.9871H14.7129ZM15.0047 15.1523L15.0082 15.1629C15.184 15.0996 15.2965 14.9414 15.3 14.9379L15.2895 14.9344C15.2895 14.9344 15.177 15.0891 15.0082 15.1523H15.0047ZM14.9696 15.1137L14.9731 15.1242C15.1137 15.0609 15.2438 14.8851 15.2438 14.8851L15.2367 14.8781C15.2367 14.8781 15.1067 15.0539 14.9696 15.1137ZM14.9344 15.0996L14.9414 15.1101C15.0504 15.0293 15.1875 14.8289 15.191 14.8289L15.184 14.8219C15.184 14.8219 15.0434 15.0223 14.9379 15.1031L14.9344 15.0996ZM14.7621 14.9977H14.7727C14.7685 14.8652 14.8001 14.734 14.8641 14.618L14.8535 14.6109C14.8535 14.6109 14.7375 14.8219 14.7621 14.9977ZM14.8395 15.0469L14.8465 15.0539C14.959 14.9519 14.9942 14.6812 14.9977 14.6672H14.9871C14.9871 14.6707 14.9485 14.9484 14.8395 15.0469Z" fill="black"/>
<path d="M14.9169 15.0785L14.9204 15.0891C15.0786 14.9731 15.1208 14.7516 15.1243 14.7516H15.1138C15.1138 14.7516 15.0716 14.966 14.9169 15.0785ZM14.9345 14.6074V14.6356L14.8149 15.0223L14.8255 15.0258L14.945 14.6391C14.9274 14.4492 15.0927 14.2418 15.0927 14.2418L15.0856 14.2348C15.0856 14.2348 14.9345 14.4246 14.9345 14.6074Z" fill="black"/>
<path d="M15.0575 14.6988C15.0575 14.7059 15.0223 14.9731 14.8782 15.0715L14.8817 15.0785C15.0294 14.9766 15.068 14.7164 15.068 14.7059C15.1313 14.6285 15.279 14.3613 15.279 14.3613L15.2719 14.3543C15.2719 14.3578 15.1243 14.6215 15.061 14.6988H15.0575ZM14.6356 14.9906C14.6356 14.9977 14.6602 15.1313 14.6884 15.177L14.6954 15.1699C14.6708 15.1242 14.6462 14.9942 14.6462 14.9906H14.6356ZM14.7059 14.9906C14.7059 15.0609 14.7059 15.1664 14.6989 15.177H14.7094C14.7165 15.1664 14.713 15.0223 14.713 14.9942H14.7024L14.7059 14.9906Z" fill="black"/>
<path d="M14.7095 15.1805L14.72 15.1875C14.7657 15.0855 14.7798 15.0152 14.7798 15.0152H14.7692C14.7692 15.0152 14.7552 15.0855 14.7095 15.1805Z" fill="black"/>
<path d="M14.72 15.1875L14.7235 15.1945C14.7757 15.1633 14.8136 15.1128 14.829 15.0539H14.8184C14.8184 15.0539 14.8008 15.1383 14.72 15.184V15.1875ZM14.734 15.191V15.2015C14.8184 15.1945 14.8747 15.0926 14.8782 15.0891L14.8711 15.082C14.8711 15.082 14.8114 15.1875 14.734 15.191Z" fill="black"/>
<path d="M14.7446 15.1981V15.2086C14.782 15.208 14.8189 15.1995 14.8528 15.1838C14.8867 15.1681 14.9169 15.1454 14.9415 15.1172L14.9345 15.1102C14.9345 15.1102 14.8712 15.191 14.7446 15.1981Z" fill="black"/>
<path d="M14.7516 15.2016V15.2121C14.7586 15.2121 14.9274 15.2473 14.9871 15.1594L14.9801 15.1523C14.9239 15.2367 14.7551 15.2016 14.7516 15.2016Z" fill="black"/>
<path d="M10.9055 8.92969V13.725C10.9055 15.293 13.7391 16.2246 13.7391 16.2246C13.7391 16.2246 16.5727 15.293 16.5727 13.7285V8.92969H10.9055Z" stroke="black" stroke-width="0.175" stroke-miterlimit="4.8"/>
<path d="M0 0H9V9H0V0Z" fill="#012169"/>
<path d="M9 0V1.125L5.66016 4.5L9 7.78711V9H7.82227L4.46484 5.69531L1.19531 9H0V7.80469L3.26953 4.51758L0 1.30078V0H1.08984L4.46484 3.30469L7.73438 0H9Z" fill="white"/>
<path d="M3.23438 5.69531L3.42773 6.29297L0.738281 9H0V8.94727L3.23438 5.69531ZM5.41406 5.48438L6.36328 5.625L9 8.20898V9L5.41406 5.48438ZM9 0L5.625 3.44531L5.55469 2.67188L8.19141 0H9ZM0 0.0175781L3.39258 3.33984L2.35547 3.19922L0 0.861328V0.0175781Z" fill="#C8102E"/>
<path d="M3.09375 0V9H5.90625V0H3.09375ZM0 3.09375V5.90625H9V3.09375H0Z" fill="white"/>
<path d="M0 3.65625V5.34375H9V3.65625H0ZM3.65625 0V9H5.34375V0H3.65625Z" fill="#C8102E"/>
</g>
<defs>
<clipPath id="clip0_14_1216">
<rect width="18" height="18" rx="9" fill="white"/>
</clipPath>
</defs>
</svg>
