<svg width="18" height="18" viewBox="0 0 18 18" fill="none" xmlns="http://www.w3.org/2000/svg">
<g clip-path="url(#clip0_8201_10422)">
<path d="M18 9C18 13.9705 13.9705 18 9 18C4.02947 18 0 13.9705 0 9C0 9.00214 9 0.000984375 9 0C13.9705 0 18 4.02947 18 9Z" fill="#338AF3"/>
<path d="M9.00005 4.30432V7.33982L5.86963 4.30432H9.00005Z" fill="#0052B4"/>
<path d="M4.69549 9.00001H7.33966L4.69549 5.47827L4.3042 8.2174L4.69549 9.00001Z" fill="#0052B4"/>
<path d="M8.97607 9.00003H9.00016C9.00016 8.99195 9.00016 8.98407 9.00016 8.97595C8.99214 8.984 8.98413 8.99202 8.97607 9.00003Z" fill="#F0F0F0"/>
<path d="M9 4.69564C9 3.11203 9 2.07439 9 0H8.99849C4.02863 0.00084375 0 4.02993 0 9H4.69564V6.35586L7.33982 9H8.97599C8.984 8.99198 8.99202 8.98397 9.00007 8.97592C9.00007 8.36958 9.00007 7.82856 9.00007 7.33985L6.35583 4.69564H9Z" fill="#F0F0F0"/>
<path d="M4.55319 1.17395C3.14557 1.97548 1.97536 3.14569 1.17383 4.55331V9.00005H3.52167V3.52186V3.52179H8.99993C8.99993 2.78129 8.99993 2.07585 8.99993 1.17395H4.55319Z" fill="#D80027"/>
<path d="M9.00012 7.89325L5.80255 4.69568H4.6958V4.69575L9.00005 9H9.00012C9.00012 9 9.00012 8.23686 9.00012 7.89325Z" fill="#D80027"/>
<path d="M10.1738 5.86953V8.99991C10.1738 11.0966 12.913 11.7391 12.913 11.7391C12.913 11.7391 15.6521 11.0966 15.6521 8.99991V5.86953L12.913 5.08691L10.1738 5.86953Z" fill="#F3F3F3"/>
<path d="M15.6521 5.86958V4.69568H10.1738V5.86958H12.5216V8.21746H10.1738V9V9.00007L12.5216 9.0001V11.6191C12.7578 11.7027 12.913 11.7392 12.913 11.7392C12.913 11.7392 13.0681 11.7027 13.3042 11.6191V9.00007H15.6521V9V8.21742H13.3042V5.86955H15.6521V5.86958Z" fill="#D80027"/>
</g>
<defs>
<clipPath id="clip0_8201_10422">
<rect width="18" height="18" fill="white"/>
</clipPath>
</defs>
</svg>
