<svg width="18" height="18" viewBox="0 0 18 18" fill="none" xmlns="http://www.w3.org/2000/svg">
<g clip-path="url(#clip0_8201_10892)">
<path d="M9 18C13.9706 18 18 13.9706 18 9C18 4.02944 13.9706 0 9 0C4.02944 0 0 4.02944 0 9C0 13.9706 4.02944 18 9 18Z" fill="#338AF3"/>
<path d="M9.00026 3.91309L9.38874 5.10882H10.6461L9.62893 5.84784L10.0174 7.04354L9.00026 6.30455L7.98309 7.04354L8.37167 5.84784L7.35449 5.10882H8.61179L9.00026 3.91309Z" fill="#F0F0F0"/>
<path d="M3.91309 9.00012L5.10882 8.61158V7.35425L5.84784 8.37146L7.04354 7.98295L6.30455 9.00012L7.04354 10.0172L5.84784 9.62865L5.10882 10.6458V9.38856L3.91309 9.00012Z" fill="#F0F0F0"/>
<path d="M9.00033 14.087L8.61182 12.8913H7.35449L8.3717 12.1522L7.98319 10.9565L9.00033 11.6955L10.0174 10.9565L9.62889 12.1522L10.6461 12.8913H9.38881L9.00033 14.087Z" fill="#F0F0F0"/>
<path d="M14.087 9.00002L12.8913 9.38853V10.6458L12.1522 9.62865L10.9565 10.0172L11.6955 9.00002L10.9565 7.98291L12.1522 8.37146L12.8913 7.35425V8.61154L14.087 9.00002Z" fill="#F0F0F0"/>
</g>
<defs>
<clipPath id="clip0_8201_10892">
<rect width="18" height="18" fill="white"/>
</clipPath>
</defs>
</svg>
