<svg width="18" height="18" viewBox="0 0 18 18" fill="none" xmlns="http://www.w3.org/2000/svg">
<g clip-path="url(#clip0_14_1239)">
<path d="M0 0H18V18H0V0Z" fill="white"/>
<path d="M18 7.2H0V10.8H18V7.2Z" fill="#CC0000"/>
<path d="M10.6875 18V0H7.3125V18H10.6875Z" fill="#CC0000"/>
<path fill-rule="evenodd" clip-rule="evenodd" d="M10.2374 5.49844C10.3429 5.31563 10.2796 5.19962 10.1179 5.16446C10.1179 5.16446 9.59407 5.34024 9.02805 5.36133C8.46555 5.38243 7.79758 5.21016 7.79758 5.21016C7.67454 5.29102 7.70266 5.48438 7.76243 5.60391C7.76243 5.60391 8.35305 5.81133 9.02805 5.79024C9.38869 5.77293 9.74501 5.70427 10.0863 5.58633C10.2163 5.54063 10.2374 5.49844 10.2374 5.49844Z" fill="#EBEAE3" stroke="black" stroke-width="0.03125"/>
<path d="M9.00005 13.4112L7.91372 11.0037L5.42114 11.2062L6.82739 9.0012L5.42114 6.7962L7.91724 6.9987L9.00005 4.59494L10.0864 6.99495L12.579 6.7962L11.1727 9.0012L12.579 11.2062L10.0829 11.0037L9.00005 13.4112Z" fill="white" stroke="#161111" stroke-width="0.10328"/>
<path fill-rule="evenodd" clip-rule="evenodd" d="M8.98252 4.58437C10.3466 4.82344 10.2974 4.89023 10.2974 4.89023L10.6524 3.76172C10.6524 3.76172 10.6911 3.53672 10.5927 3.39961C10.4942 3.2625 10.2235 3.33984 10.2235 3.33984C10.2235 3.33984 10.1884 3.15703 10.0653 3.11484C9.9458 3.06914 9.50283 3.28711 9.36221 3.33281C9.22158 3.38203 9.15127 3.42773 8.95791 3.42422C8.74364 3.38708 8.53769 3.31208 8.34971 3.20273C8.27574 3.15999 8.19249 3.13586 8.10713 3.13242C8.02275 3.13594 7.93135 3.16055 7.88564 3.22383C7.84346 3.29062 7.84346 3.36797 7.84346 3.36797C7.84346 3.36797 7.77314 3.32226 7.65713 3.32226C7.54463 3.32226 7.48135 3.33633 7.42861 3.39961C7.37939 3.4664 7.30908 3.6457 7.30908 3.6457L7.43916 3.95156L7.44619 4.37344L7.70986 4.82344L8.98252 4.58789V4.58437Z" fill="#B02320" stroke="black" stroke-width="0.0875"/>
<path fill-rule="evenodd" clip-rule="evenodd" d="M10.255 5.22422C10.255 5.22422 10.3253 5.31211 10.3218 5.34375C10.3183 5.37188 10.2866 5.4 10.2866 5.4C10.2866 5.4 10.3112 5.42461 10.3042 5.45977C10.3007 5.49492 10.255 5.49492 10.255 5.49492C10.255 5.49492 10.2655 5.52656 10.2374 5.54063C10.2093 5.55469 10.1038 5.57578 10.1038 5.57578C10.1038 5.57578 9.57647 5.41758 9.01397 5.41758C8.45147 5.41758 7.7835 5.61445 7.7835 5.61445C7.7835 5.61445 7.71319 5.58633 7.71319 5.54063C7.70616 5.49141 7.7167 5.45625 7.7167 5.45625C7.7167 5.45625 7.68155 5.46328 7.671 5.42812C7.65694 5.37891 7.67452 5.34023 7.67452 5.34023C7.67452 5.34023 7.64991 5.34727 7.67803 5.28398C7.68829 5.25681 7.70671 5.23347 7.73077 5.21719C7.73077 5.21719 8.32139 4.99219 8.99639 4.99219C9.42651 4.99266 9.85297 5.07128 10.255 5.22422Z" fill="#EBEAE3" stroke="black" stroke-width="0.03125"/>
<path d="M7.46006 3.80743C7.46006 3.80743 7.43897 3.72306 7.48818 3.65274C7.50627 3.62721 7.53217 3.60826 7.56198 3.59874C7.59179 3.58923 7.62389 3.58967 7.65342 3.60001C7.68154 3.61407 7.67803 3.64571 7.71318 3.65626C7.74834 3.66681 7.77647 3.63868 7.77647 3.63868" stroke="black" stroke-width="0.075"/>
<path fill-rule="evenodd" clip-rule="evenodd" d="M10.7507 3.99725L10.5468 4.44725L10.4659 4.46483C10.4659 4.46483 10.4167 4.42968 10.2761 4.44374C10.1776 4.45077 10.146 4.47889 10.146 4.47889L10.3288 4.02889C10.3288 4.02889 10.3429 4.12382 10.364 4.18007C10.3921 4.25038 10.494 4.32069 10.494 4.32069C10.494 4.32069 10.5081 4.23632 10.48 4.13085C10.4519 4.01483 10.3815 3.85663 10.3815 3.85663L10.7507 3.99725Z" fill="#FFCC00" fill-opacity="0.9" stroke="black" stroke-width="0.075"/>
<path d="M8.87695 2.59454H9.10547V3.63165H8.87695V2.59454Z" fill="#121116" stroke="#121116" stroke-width="0.075" stroke-linejoin="round"/>
<path fill-rule="evenodd" clip-rule="evenodd" d="M7.47412 4.51055L7.61826 4.84454C7.61826 4.84454 8.24756 4.58438 8.98584 4.5879C10.0933 4.59493 10.4097 4.83399 10.4097 4.83399L10.5714 4.41915L10.4483 4.49297L10.3218 4.57735L10.1812 4.63712L10.0054 4.62305L9.85068 4.50001L9.77334 4.32422L9.64326 4.4543L9.41123 4.51055L9.18623 4.44727L8.98936 4.18008C8.98936 4.18008 8.8417 4.4754 8.65186 4.49649C8.38115 4.5211 8.22646 4.35587 8.22646 4.35587C8.22646 4.35587 8.12451 4.59493 7.95928 4.63712C7.69561 4.70743 7.47764 4.51055 7.47412 4.51055Z" fill="#F6CA1F" stroke="black" stroke-width="0.0625"/>
<path d="M10.0012 2.46212C10.0012 2.4955 9.98888 2.52754 9.96692 2.55133C9.94497 2.57511 9.91512 2.58873 9.88383 2.58925C9.85222 2.58925 9.82191 2.57585 9.79956 2.55201C9.77721 2.52817 9.76465 2.49584 9.76465 2.46212C9.76464 2.42874 9.77695 2.3967 9.79891 2.37291C9.82086 2.34913 9.85071 2.3355 9.882 2.33499C9.91361 2.33499 9.94392 2.34839 9.96627 2.37223C9.98862 2.39607 10.0012 2.4284 10.0012 2.46212Z" fill="#EEEEEE" stroke="#1E1E1E" stroke-width="0.074065" stroke-linejoin="round"/>
<path fill-rule="evenodd" clip-rule="evenodd" d="M9.82617 2.52773C9.82617 2.52773 9.92109 2.52773 9.93164 2.48555C9.94219 2.44336 9.92461 2.39062 9.92461 2.39062C9.92461 2.39062 9.97031 2.44336 9.95977 2.48555C9.9457 2.52422 9.93164 2.53477 9.9 2.54531C9.87891 2.54883 9.84375 2.5418 9.82969 2.52773H9.82617Z" fill="#A3AFB8"/>
<path d="M9.71309 2.60625C9.7131 2.63963 9.70079 2.67168 9.67884 2.69546C9.65688 2.71925 9.62704 2.73287 9.59574 2.73338C9.56414 2.73338 9.53382 2.71999 9.51147 2.69615C9.48912 2.67231 9.47656 2.63997 9.47656 2.60625C9.47656 2.57287 9.48886 2.54083 9.51082 2.51705C9.53278 2.49326 9.56262 2.47964 9.59391 2.47913C9.62552 2.47913 9.65583 2.49252 9.67819 2.51636C9.70054 2.5402 9.71309 2.57254 9.71309 2.60625Z" fill="#EEEEEE" stroke="#1E1E1E" stroke-width="0.074065" stroke-linejoin="round"/>
<path fill-rule="evenodd" clip-rule="evenodd" d="M9.53784 2.67188C9.53784 2.67188 9.63628 2.67187 9.64331 2.62617C9.65386 2.5875 9.63628 2.53125 9.63628 2.53125C9.63628 2.53125 9.68198 2.5875 9.67144 2.62617C9.65737 2.66836 9.64331 2.67891 9.61167 2.68945C9.59058 2.69297 9.55542 2.68594 9.54136 2.67188H9.53784Z" fill="#A3AFB8"/>
<path d="M10.3317 2.37774C10.3317 2.41112 10.3194 2.44316 10.2975 2.46695C10.2755 2.49073 10.2457 2.50435 10.2144 2.50487C10.1828 2.50487 10.1525 2.49147 10.1301 2.46763C10.1078 2.44379 10.0952 2.41145 10.0952 2.37774C10.0952 2.34436 10.1075 2.31232 10.1295 2.28853C10.1514 2.26474 10.1813 2.25112 10.2126 2.25061C10.2442 2.25061 10.2745 2.264 10.2968 2.28785C10.3192 2.31169 10.3317 2.34402 10.3317 2.37774Z" fill="#EEEEEE" stroke="#1E1E1E" stroke-width="0.074065" stroke-linejoin="round"/>
<path fill-rule="evenodd" clip-rule="evenodd" d="M10.1602 2.44335C10.1602 2.44335 10.2551 2.44335 10.2656 2.40117C10.2762 2.35898 10.2586 2.30624 10.2586 2.30624C10.2586 2.30624 10.3043 2.35898 10.2937 2.40117C10.2797 2.43984 10.2656 2.4539 10.234 2.46093C10.208 2.46444 10.1817 2.45817 10.1602 2.44335Z" fill="#A3AFB8"/>
<path d="M10.708 2.45861C10.708 2.49199 10.6957 2.52403 10.6737 2.54782C10.6518 2.5716 10.6219 2.58522 10.5906 2.58574C10.559 2.58574 10.5287 2.57234 10.5063 2.5485C10.484 2.52466 10.4714 2.49233 10.4714 2.45861C10.4714 2.42523 10.4837 2.39319 10.5057 2.3694C10.5276 2.34562 10.5575 2.332 10.5888 2.33148C10.6204 2.33148 10.6507 2.34488 10.6731 2.36872C10.6954 2.39256 10.708 2.42489 10.708 2.45861Z" fill="#EEEEEE" stroke="#1E1E1E" stroke-width="0.074065" stroke-linejoin="round"/>
<path fill-rule="evenodd" clip-rule="evenodd" d="M10.5364 2.52422C10.5364 2.52422 10.6313 2.52422 10.6418 2.48204C10.6524 2.43985 10.6348 2.38712 10.6348 2.38712C10.6348 2.38712 10.6805 2.43985 10.67 2.48204C10.6559 2.52071 10.6418 2.53477 10.6102 2.5418C10.5856 2.54883 10.554 2.53829 10.5364 2.52422Z" fill="#A3AFB8"/>
<path d="M10.9963 2.71172C10.9963 2.7451 10.984 2.77715 10.962 2.80093C10.9401 2.82472 10.9102 2.83834 10.8789 2.83885C10.8473 2.83885 10.817 2.82546 10.7947 2.80162C10.7723 2.77777 10.7598 2.74544 10.7598 2.71172C10.7598 2.67834 10.7721 2.6463 10.794 2.62251C10.816 2.59873 10.8458 2.58511 10.8771 2.58459C10.9087 2.58459 10.939 2.59799 10.9614 2.62183C10.9837 2.64567 10.9963 2.67801 10.9963 2.71172Z" fill="#EEEEEE" stroke="#1E1E1E" stroke-width="0.074065" stroke-linejoin="round"/>
<path fill-rule="evenodd" clip-rule="evenodd" d="M10.8247 2.77734C10.8247 2.77734 10.9196 2.77734 10.9302 2.73164C10.9372 2.68945 10.9231 2.63672 10.9231 2.63672C10.9231 2.63672 10.9688 2.68945 10.9548 2.73164C10.9407 2.77383 10.9302 2.78438 10.895 2.79141C10.8739 2.79844 10.8423 2.79141 10.8247 2.77383V2.77734Z" fill="#A3AFB8"/>
<path d="M11.1193 3.12307C11.1193 3.15645 11.107 3.18849 11.0851 3.21228C11.0631 3.23606 11.0333 3.24968 11.002 3.2502C10.9704 3.2502 10.9401 3.2368 10.9177 3.21296C10.8954 3.18912 10.8828 3.15679 10.8828 3.12307C10.8828 3.08969 10.8951 3.05765 10.9171 3.03386C10.939 3.01008 10.9689 2.99645 11.0002 2.99594C11.0318 2.99594 11.0621 3.00933 11.0844 3.03318C11.1068 3.05702 11.1193 3.08935 11.1193 3.12307Z" fill="#EEEEEE" stroke="#1E1E1E" stroke-width="0.074065" stroke-linejoin="round"/>
<path fill-rule="evenodd" clip-rule="evenodd" d="M10.9478 3.18868C10.9478 3.18868 11.0427 3.18868 11.0532 3.1465C11.0603 3.10431 11.0462 3.05157 11.0462 3.05157C11.0462 3.05157 11.0919 3.10431 11.0778 3.1465C11.0638 3.18868 11.0532 3.19923 11.0181 3.20626C10.997 3.21329 10.9653 3.20275 10.9478 3.18868Z" fill="#A3AFB8"/>
<path d="M11.0734 3.54143C11.0734 3.57481 11.0611 3.60686 11.0392 3.63064C11.0172 3.65443 10.9874 3.66805 10.9561 3.66856C10.9245 3.66856 10.8942 3.65517 10.8718 3.63133C10.8495 3.60749 10.8369 3.57515 10.8369 3.54143C10.8369 3.50805 10.8492 3.47601 10.8712 3.45223C10.8931 3.42844 10.923 3.41482 10.9543 3.41431C10.9859 3.41431 11.0162 3.4277 11.0385 3.45154C11.0609 3.47538 11.0734 3.50772 11.0734 3.54143Z" fill="#EEEEEE" stroke="#1E1E1E" stroke-width="0.074065" stroke-linejoin="round"/>
<path fill-rule="evenodd" clip-rule="evenodd" d="M10.8984 3.60705C10.8984 3.60705 10.9969 3.60705 11.0039 3.56486C11.0145 3.52267 11.0004 3.46994 11.0004 3.46994C11.0004 3.46994 11.0461 3.52267 11.032 3.56486C11.018 3.60353 11.0074 3.6176 10.9723 3.62463C10.9512 3.62814 10.9195 3.62111 10.902 3.60705H10.8984Z" fill="#A3AFB8"/>
<path d="M10.9013 3.90704C10.9013 3.94042 10.889 3.97246 10.8671 3.99624C10.8451 4.02003 10.8153 4.03365 10.784 4.03416C10.7524 4.03416 10.7221 4.02077 10.6997 3.99693C10.6774 3.97309 10.6648 3.94075 10.6648 3.90704C10.6648 3.87365 10.6771 3.84161 10.6991 3.81783C10.721 3.79404 10.7509 3.78042 10.7821 3.77991C10.8138 3.77991 10.8441 3.7933 10.8664 3.81714C10.8888 3.84098 10.9013 3.87332 10.9013 3.90704Z" fill="#EEEEEE" stroke="#1E1E1E" stroke-width="0.074065" stroke-linejoin="round"/>
<path fill-rule="evenodd" clip-rule="evenodd" d="M10.7263 3.97265C10.7263 3.97265 10.8212 3.97265 10.8318 3.93046C10.8423 3.88828 10.8248 3.83554 10.8248 3.83554C10.8248 3.83554 10.8705 3.88828 10.8599 3.93046C10.8458 3.97265 10.8318 3.9832 10.8001 3.99023C10.7791 3.99726 10.7439 3.99023 10.7298 3.97265H10.7263Z" fill="#A3AFB8"/>
<path d="M9.43184 2.71526C9.43185 2.74864 9.41954 2.78069 9.39759 2.80447C9.37563 2.82826 9.34579 2.84188 9.31449 2.84239C9.28289 2.84239 9.25257 2.829 9.23022 2.80516C9.20787 2.78131 9.19531 2.74898 9.19531 2.71526C9.19531 2.68188 9.20761 2.64984 9.22957 2.62605C9.25153 2.60227 9.28137 2.58865 9.31266 2.58813C9.34427 2.58813 9.37458 2.60153 9.39694 2.62537C9.41929 2.64921 9.43184 2.68155 9.43184 2.71526Z" fill="#EEEEEE" stroke="#1E1E1E" stroke-width="0.074065" stroke-linejoin="round"/>
<path fill-rule="evenodd" clip-rule="evenodd" d="M9.26025 2.78088C9.26025 2.78088 9.35518 2.78088 9.36572 2.73869C9.37627 2.6965 9.35869 2.64377 9.35869 2.64377C9.35869 2.64377 9.4044 2.6965 9.39385 2.73869C9.37979 2.77736 9.36572 2.78791 9.33408 2.79846C9.30814 2.80196 9.28183 2.79569 9.26025 2.78088Z" fill="#A3AFB8"/>
<path d="M9.07427 2.68236C9.07427 2.71028 9.06398 2.73707 9.04562 2.75696C9.02726 2.77686 9.0023 2.78824 8.97613 2.78867C8.9497 2.78867 8.92435 2.77747 8.90566 2.75754C8.88697 2.7376 8.87646 2.71056 8.87646 2.68236C8.87646 2.65445 8.88675 2.62765 8.90511 2.60776C8.92347 2.58787 8.94843 2.57648 8.9746 2.57605C9.00103 2.57605 9.02639 2.58725 9.04508 2.60719C9.06377 2.62713 9.07427 2.65417 9.07427 2.68236Z" fill="#EEEEEE" stroke="#1E1E1E" stroke-width="0.0760152" stroke-linejoin="round"/>
<path fill-rule="evenodd" clip-rule="evenodd" d="M8.92969 2.7387C8.92969 2.7387 9.01055 2.7387 9.01758 2.70354C9.02813 2.66838 9.01406 2.62268 9.01406 2.62268C9.01406 2.62268 9.04922 2.66487 9.04219 2.70002C9.02813 2.73518 9.01758 2.74573 8.99297 2.75276C8.98202 2.75491 8.97075 2.75477 8.95986 2.75235C8.94897 2.74993 8.93869 2.74528 8.92969 2.7387Z" fill="#A3AFB8"/>
<path d="M9.07769 2.81594C9.07769 2.84385 9.0674 2.87065 9.04904 2.89054C9.03068 2.91043 9.00572 2.92182 8.97955 2.92225C8.95312 2.92225 8.92777 2.91105 8.90908 2.89111C8.89038 2.87117 8.87988 2.84413 8.87988 2.81594C8.87988 2.78802 8.89017 2.76123 8.90853 2.74134C8.92689 2.72144 8.95185 2.71005 8.97802 2.70963C9.00445 2.70963 9.0298 2.72083 9.0485 2.74076C9.06719 2.7607 9.07769 2.78774 9.07769 2.81594Z" fill="#EEEEEE" stroke="#1E1E1E" stroke-width="0.0760152" stroke-linejoin="round"/>
<path fill-rule="evenodd" clip-rule="evenodd" d="M8.92969 2.86876C8.92969 2.86876 9.01055 2.86876 9.02109 2.8336C9.02813 2.79844 9.01406 2.75626 9.01406 2.75626C9.01406 2.75626 9.04922 2.79844 9.04219 2.8336C9.03164 2.86876 9.02109 2.8793 8.99297 2.88633C8.97197 2.88969 8.9505 2.88463 8.9332 2.87227L8.92969 2.86876Z" fill="#A3AFB8"/>
<path d="M9.08477 3.0093C9.08477 3.03721 9.07448 3.06401 9.05612 3.0839C9.03776 3.10379 9.0128 3.11518 8.98663 3.11561C8.9602 3.11561 8.93485 3.10441 8.91616 3.08447C8.89746 3.06453 8.88696 3.03749 8.88696 3.0093C8.88696 2.98138 8.89725 2.95459 8.91561 2.9347C8.93397 2.9148 8.95893 2.90341 8.9851 2.90298C9.01153 2.90298 9.03688 2.91419 9.05558 2.93412C9.07427 2.95406 9.08477 2.9811 9.08477 3.0093Z" fill="#EEEEEE" stroke="#1E1E1E" stroke-width="0.0760152" stroke-linejoin="round"/>
<path fill-rule="evenodd" clip-rule="evenodd" d="M8.94019 3.06563C8.94019 3.06563 9.01753 3.06563 9.02808 3.03047C9.03511 2.99532 9.02105 2.94962 9.02105 2.94962C9.02105 2.94962 9.0562 2.99532 9.04917 3.03047C9.03862 3.06563 9.02808 3.07266 8.99995 3.07969C8.97896 3.08305 8.95748 3.07799 8.94019 3.06563Z" fill="#A3AFB8"/>
<path d="M9.0916 3.21589C9.0916 3.24608 9.08047 3.27506 9.06062 3.29657C9.04076 3.31809 9.01377 3.3304 8.98547 3.33087C8.95689 3.33087 8.92947 3.31875 8.90926 3.29719C8.88904 3.27563 8.87769 3.24639 8.87769 3.21589C8.87768 3.18571 8.88881 3.15673 8.90867 3.13522C8.92852 3.1137 8.95552 3.10139 8.98381 3.10092C9.0124 3.10092 9.03982 3.11303 9.06003 3.1346C9.08024 3.15616 9.0916 3.1854 9.0916 3.21589Z" fill="#EEEEEE" stroke="#1E1E1E" stroke-width="0.0761174" stroke-linejoin="round"/>
<path fill-rule="evenodd" clip-rule="evenodd" d="M8.93677 3.28007C8.93677 3.28007 9.02466 3.27655 9.03169 3.23788C9.04224 3.20272 9.02817 3.1535 9.02817 3.1535C9.02817 3.1535 9.06685 3.20272 9.0563 3.23788C9.04224 3.27655 9.03169 3.2871 9.00356 3.29413C8.99182 3.29586 8.97985 3.2952 8.96837 3.29218C8.95689 3.28915 8.94614 3.28384 8.93677 3.27655V3.28007Z" fill="#A3AFB8"/>
<path d="M9.1047 3.49572C9.1047 3.5291 9.09239 3.56114 9.07044 3.58493C9.04848 3.60871 9.01864 3.62233 8.98735 3.62285C8.95574 3.62285 8.92542 3.60945 8.90307 3.58561C8.88072 3.56177 8.86816 3.52944 8.86816 3.49572C8.86816 3.46234 8.88047 3.4303 8.90242 3.40651C8.92438 3.38273 8.95422 3.3691 8.98551 3.36859C9.01712 3.36859 9.04744 3.38199 9.06979 3.40583C9.09214 3.42967 9.1047 3.462 9.1047 3.49572Z" fill="#EEEEEE" stroke="#1E1E1E" stroke-width="0.074065" stroke-linejoin="round"/>
<path fill-rule="evenodd" clip-rule="evenodd" d="M8.92969 3.56133C8.92969 3.56133 9.02813 3.56133 9.03516 3.51915C9.0457 3.47696 9.03164 3.42422 9.03164 3.42422C9.03164 3.42422 9.07734 3.47696 9.06328 3.51915C9.04922 3.56133 9.03867 3.57188 9.00352 3.57891C8.98242 3.58594 8.95078 3.57891 8.9332 3.56133H8.92969Z" fill="#A3AFB8"/>
<path d="M9.09201 4.06974C9.09202 4.10109 9.08046 4.13119 9.05984 4.15352C9.03922 4.17586 9.01119 4.18866 8.9818 4.18914C8.95212 4.18914 8.92365 4.17656 8.90266 4.15417C8.88167 4.13178 8.86987 4.10141 8.86987 4.06974C8.86987 4.03839 8.88143 4.0083 8.90205 3.98596C8.92267 3.96362 8.9507 3.95083 8.98008 3.95035C9.00977 3.95035 9.03824 3.96293 9.05923 3.98532C9.08022 4.00771 9.09201 4.03808 9.09201 4.06974Z" fill="#EEEEEE" stroke="#1E1E1E" stroke-width="0.075883" stroke-linejoin="round"/>
<path fill-rule="evenodd" clip-rule="evenodd" d="M8.92969 4.13087C8.92969 4.13087 9.02109 4.13087 9.02812 4.0922C9.03867 4.05001 9.02461 4.00079 9.02461 4.00079C9.02461 4.00079 9.0668 4.05001 9.05273 4.08868C9.04219 4.13087 9.02813 4.1379 9 4.14845C8.9877 4.15047 8.97512 4.14995 8.96303 4.14693C8.95094 4.1439 8.93959 4.13844 8.92969 4.13087Z" fill="#A3AFB8"/>
<path d="M8.77437 2.71172C8.77438 2.7451 8.76207 2.77715 8.74012 2.80093C8.71816 2.82472 8.68831 2.83834 8.65702 2.83885C8.62542 2.83885 8.5951 2.82546 8.57275 2.80162C8.5504 2.77777 8.53784 2.74544 8.53784 2.71172C8.53784 2.67834 8.55014 2.6463 8.5721 2.62251C8.59405 2.59873 8.6239 2.58511 8.65519 2.58459C8.6868 2.58459 8.71711 2.59799 8.73947 2.62183C8.76182 2.64567 8.77437 2.67801 8.77437 2.71172Z" fill="#EEEEEE" stroke="#1E1E1E" stroke-width="0.074065" stroke-linejoin="round"/>
<path fill-rule="evenodd" clip-rule="evenodd" d="M8.59937 2.77734C8.59937 2.77734 8.69429 2.77734 8.70483 2.73515C8.71538 2.69296 8.6978 2.64023 8.6978 2.64023C8.6978 2.64023 8.74351 2.69296 8.73296 2.73515C8.7189 2.77382 8.70483 2.78788 8.67319 2.79492C8.6521 2.79843 8.61694 2.7914 8.60288 2.77734H8.59937Z" fill="#A3AFB8"/>
<path d="M8.47896 2.58868C8.47897 2.62206 8.46666 2.6541 8.44471 2.67788C8.42275 2.70167 8.3929 2.71529 8.36161 2.7158C8.33 2.7158 8.29969 2.70241 8.27734 2.67857C8.25499 2.65473 8.24243 2.62239 8.24243 2.58868C8.24243 2.5553 8.25473 2.52325 8.27669 2.49947C8.29864 2.47568 8.32849 2.46206 8.35978 2.46155C8.39139 2.46155 8.4217 2.47494 8.44405 2.49878C8.46641 2.52262 8.47896 2.55496 8.47896 2.58868Z" fill="#EEEEEE" stroke="#1E1E1E" stroke-width="0.074065" stroke-linejoin="round"/>
<path fill-rule="evenodd" clip-rule="evenodd" d="M8.30737 2.65429C8.30737 2.65429 8.40229 2.65429 8.41284 2.6121C8.41987 2.56992 8.40581 2.51718 8.40581 2.51718C8.40581 2.51718 8.45151 2.56992 8.44097 2.6121C8.42339 2.65078 8.41284 2.66132 8.37769 2.67187C8.35659 2.67538 8.32495 2.66835 8.30737 2.65429Z" fill="#A3AFB8"/>
<path d="M8.19771 2.44805C8.19772 2.48143 8.18541 2.51347 8.16346 2.53726C8.1415 2.56104 8.11165 2.57466 8.08036 2.57518C8.04875 2.57518 8.01844 2.56178 7.99609 2.53794C7.97374 2.5141 7.96118 2.48177 7.96118 2.44805C7.96118 2.41467 7.97348 2.38263 7.99544 2.35884C8.01739 2.33506 8.04724 2.32144 8.07853 2.32092C8.11014 2.32092 8.14045 2.33432 8.1628 2.35816C8.18516 2.382 8.19771 2.41433 8.19771 2.44805Z" fill="#EEEEEE" stroke="#1E1E1E" stroke-width="0.074065" stroke-linejoin="round"/>
<path fill-rule="evenodd" clip-rule="evenodd" d="M8.02612 2.51367C8.02612 2.51367 8.12104 2.51367 8.13159 2.47148C8.14214 2.42929 8.12456 2.37656 8.12456 2.37656C8.12456 2.37656 8.17026 2.42929 8.15972 2.47148C8.14565 2.51015 8.13159 2.5207 8.09995 2.53124C8.07401 2.53475 8.0477 2.52848 8.02612 2.51367Z" fill="#A3AFB8"/>
<path d="M7.87789 2.37072C7.87789 2.4041 7.86559 2.43614 7.84363 2.45993C7.82168 2.48371 7.79183 2.49733 7.76054 2.49785C7.72893 2.49785 7.69862 2.48445 7.67627 2.46061C7.65391 2.43677 7.64136 2.40444 7.64136 2.37072C7.64135 2.33734 7.65366 2.3053 7.67561 2.28151C7.69757 2.25773 7.72742 2.2441 7.75871 2.24359C7.79032 2.24359 7.82063 2.25699 7.84298 2.28083C7.86533 2.30467 7.87789 2.337 7.87789 2.37072Z" fill="#EEEEEE" stroke="#1E1E1E" stroke-width="0.074065" stroke-linejoin="round"/>
<path fill-rule="evenodd" clip-rule="evenodd" d="M7.70288 2.43633C7.70288 2.43633 7.7978 2.43633 7.80835 2.39415C7.8189 2.35196 7.80132 2.29922 7.80132 2.29922C7.80132 2.29922 7.84702 2.35196 7.83647 2.39415C7.82241 2.43633 7.80835 2.44688 7.77671 2.45391C7.75561 2.46094 7.72046 2.45391 7.7064 2.43633H7.70288Z" fill="#A3AFB8"/>
<path d="M7.49459 2.46917C7.49459 2.50255 7.48229 2.53459 7.46033 2.55838C7.43837 2.58216 7.40853 2.59578 7.37724 2.5963C7.34563 2.5963 7.31532 2.5829 7.29296 2.55906C7.27061 2.53522 7.25806 2.50289 7.25806 2.46917C7.25805 2.43579 7.27036 2.40375 7.29231 2.37996C7.31427 2.35617 7.34412 2.34255 7.37541 2.34204C7.40701 2.34204 7.43733 2.35543 7.45968 2.37928C7.48203 2.40312 7.49459 2.43545 7.49459 2.46917Z" fill="#EEEEEE" stroke="#1E1E1E" stroke-width="0.074065" stroke-linejoin="round"/>
<path fill-rule="evenodd" clip-rule="evenodd" d="M7.323 2.53478C7.323 2.53478 7.41792 2.53478 7.42847 2.4926C7.43901 2.45041 7.42144 2.39767 7.42144 2.39767C7.42144 2.39767 7.46714 2.45041 7.45659 2.4926C7.44253 2.53478 7.42847 2.54533 7.39683 2.55236C7.37222 2.55939 7.34058 2.54885 7.32651 2.53478H7.323Z" fill="#A3AFB8"/>
<path d="M7.2275 2.75393C7.2275 2.78731 7.2152 2.81935 7.19324 2.84314C7.17128 2.86692 7.14144 2.88054 7.11015 2.88106C7.07854 2.88106 7.04823 2.86766 7.02587 2.84382C7.00352 2.81998 6.99097 2.78764 6.99097 2.75393C6.99096 2.72055 7.00327 2.68851 7.02522 2.66472C7.04718 2.64093 7.07703 2.62731 7.10832 2.6268C7.13992 2.6268 7.17024 2.64019 7.19259 2.66404C7.21494 2.68788 7.2275 2.72021 7.2275 2.75393Z" fill="#EEEEEE" stroke="#1E1E1E" stroke-width="0.074065" stroke-linejoin="round"/>
<path fill-rule="evenodd" clip-rule="evenodd" d="M7.05591 2.82306C7.05591 2.82306 7.15083 2.81954 7.16138 2.77736C7.16841 2.73517 7.15435 2.68243 7.15435 2.68243C7.15435 2.68243 7.20005 2.73517 7.18599 2.77736C7.17192 2.81954 7.16138 2.83009 7.12622 2.83712C7.10513 2.84415 7.07349 2.83712 7.05591 2.81954V2.82306Z" fill="#A3AFB8"/>
<path d="M7.11495 3.15472C7.11495 3.1881 7.10265 3.22014 7.08069 3.24392C7.05874 3.26771 7.02889 3.28133 6.9976 3.28184C6.96599 3.28184 6.93568 3.26845 6.91333 3.24461C6.89097 3.22077 6.87842 3.18843 6.87842 3.15472C6.87841 3.12134 6.89072 3.08929 6.91267 3.06551C6.93463 3.04172 6.96448 3.0281 6.99577 3.02759C7.02738 3.02759 7.05769 3.04098 7.08004 3.06482C7.10239 3.08866 7.11495 3.121 7.11495 3.15472Z" fill="#EEEEEE" stroke="#1E1E1E" stroke-width="0.074065" stroke-linejoin="round"/>
<path fill-rule="evenodd" clip-rule="evenodd" d="M6.94336 3.22385C6.94336 3.22385 7.03828 3.22385 7.04883 3.17814C7.05938 3.13596 7.0418 3.08322 7.0418 3.08322C7.0418 3.08322 7.0875 3.13596 7.07695 3.17814C7.06289 3.22033 7.04883 3.23088 7.01719 3.23791C6.99258 3.24494 6.96094 3.23791 6.94336 3.22385Z" fill="#A3AFB8"/>
<path d="M7.16427 3.57305C7.16427 3.60643 7.15196 3.63847 7.13001 3.66226C7.10805 3.68604 7.07821 3.69966 7.04692 3.70018C7.01531 3.70018 6.98499 3.68678 6.96264 3.66294C6.94029 3.6391 6.92773 3.60677 6.92773 3.57305C6.92773 3.53967 6.94004 3.50763 6.96199 3.48384C6.98395 3.46006 7.01379 3.44644 7.04508 3.44592C7.07669 3.44592 7.10701 3.45932 7.12936 3.48316C7.15171 3.507 7.16427 3.53933 7.16427 3.57305Z" fill="#EEEEEE" stroke="#1E1E1E" stroke-width="0.074065" stroke-linejoin="round"/>
<path fill-rule="evenodd" clip-rule="evenodd" d="M6.99268 3.64218C6.99268 3.64218 7.0876 3.64218 7.09814 3.59648C7.10869 3.55781 7.09111 3.50156 7.09111 3.50156C7.09111 3.50156 7.13682 3.55781 7.12627 3.59648C7.11221 3.63867 7.09814 3.64921 7.0665 3.65976C7.04057 3.66326 7.01425 3.657 6.99268 3.64218Z" fill="#A3AFB8"/>
<path d="M7.34688 3.95275C7.34689 3.98613 7.33458 4.01817 7.31263 4.04196C7.29067 4.06574 7.26082 4.07936 7.22953 4.07988C7.19792 4.07988 7.16761 4.06648 7.14526 4.04264C7.12291 4.0188 7.11035 3.98647 7.11035 3.95275C7.11035 3.91937 7.12265 3.88733 7.14461 3.86354C7.16656 3.83976 7.19641 3.82614 7.2277 3.82562C7.25931 3.82562 7.28962 3.83902 7.31197 3.86286C7.33433 3.8867 7.34688 3.91903 7.34688 3.95275Z" fill="#EEEEEE" stroke="#1E1E1E" stroke-width="0.074065" stroke-linejoin="round"/>
<path fill-rule="evenodd" clip-rule="evenodd" d="M7.17188 4.01837C7.17188 4.01837 7.27031 4.01837 7.27734 3.97618C7.28789 3.93399 7.27383 3.88126 7.27383 3.88126C7.27383 3.88126 7.31953 3.93399 7.30898 3.97618C7.29141 4.01837 7.28086 4.02891 7.2457 4.03594C7.22461 4.04297 7.19297 4.03594 7.17539 4.01837H7.17188Z" fill="#A3AFB8"/>
<path d="M7.55354 4.43188C7.56164 4.46412 7.56196 4.49721 7.55443 4.52398C7.5469 4.55076 7.53213 4.56908 7.51329 4.575C7.49414 4.58047 7.47253 4.57278 7.4532 4.55362C7.43388 4.53446 7.41842 4.5054 7.41024 4.47283C7.40214 4.44059 7.40182 4.40751 7.40935 4.38073C7.41688 4.35396 7.43166 4.33563 7.45049 4.32972C7.46964 4.32425 7.49125 4.33194 7.51058 4.35109C7.5299 4.37025 7.54536 4.39931 7.55354 4.43188Z" fill="#EEEEEE" stroke="#1E1E1E" stroke-width="0.0746734" stroke-linejoin="round"/>
<path fill-rule="evenodd" clip-rule="evenodd" d="M7.46387 4.52462C7.46387 4.52462 7.52012 4.50704 7.5166 4.46485C7.5166 4.42266 7.49199 4.37344 7.49199 4.37344C7.49199 4.37344 7.53066 4.41915 7.53418 4.46133C7.53418 4.50352 7.53066 4.51407 7.51309 4.53165C7.50254 4.53868 7.47793 4.53516 7.46387 4.52462Z" fill="#A3AFB8"/>
<path d="M10.6111 4.45535C10.6036 4.48776 10.5889 4.5169 10.5702 4.53647C10.5515 4.55604 10.5302 4.56448 10.511 4.55996C10.4918 4.55489 10.4764 4.53703 10.4681 4.5103C10.4598 4.48357 10.4595 4.45016 10.467 4.41743C10.4745 4.38502 10.4892 4.35589 10.5079 4.33631C10.5267 4.31674 10.5479 4.3083 10.5671 4.31282C10.5863 4.31789 10.6018 4.33575 10.61 4.36248C10.6183 4.38921 10.6186 4.42262 10.6111 4.45535Z" fill="#EEEEEE" stroke="#1E1E1E" stroke-width="0.0746704" stroke-linejoin="round"/>
<path fill-rule="evenodd" clip-rule="evenodd" d="M10.4871 4.49297C10.4871 4.49297 10.5468 4.50704 10.5609 4.46837C10.5785 4.42969 10.5785 4.37344 10.5785 4.37344C10.5785 4.37344 10.596 4.43321 10.5785 4.47188C10.5609 4.51055 10.5503 4.51758 10.5292 4.5211C10.5152 4.5211 10.4941 4.50704 10.4871 4.49297Z" fill="#A3AFB8"/>
<path fill-rule="evenodd" clip-rule="evenodd" d="M8.88398 2.01798L8.89453 2.22892C8.89453 2.22892 8.65547 2.25353 8.64843 2.27814C8.59922 2.38712 8.70117 2.53478 8.70117 2.53478C8.70117 2.53478 8.78203 2.4715 8.98242 2.4715C9.17578 2.4715 9.27422 2.52423 9.27422 2.52423C9.27422 2.52423 9.32344 2.43634 9.32344 2.37306C9.32344 2.30978 9.30234 2.2465 9.30234 2.2465L9.17578 2.23243H9.08789L9.08086 2.01447L8.88398 2.01798Z" fill="#B3A192" stroke="black" stroke-width="0.075"/>
<path d="M9.2251 2.34845C9.2251 2.37306 9.204 2.39415 9.18291 2.39415C9.17677 2.39469 9.17059 2.39388 9.1648 2.39177C9.15902 2.38966 9.15376 2.38631 9.1494 2.38196C9.14505 2.3776 9.1417 2.37234 9.13959 2.36656C9.13748 2.36077 9.13667 2.35459 9.13721 2.34845C9.13721 2.33726 9.14165 2.32653 9.14956 2.31862C9.15748 2.31071 9.16821 2.30626 9.17939 2.30626C9.18522 2.30577 9.19109 2.3065 9.19662 2.30841C9.20215 2.31031 9.20723 2.31334 9.21153 2.3173C9.21582 2.32127 9.21925 2.32609 9.22159 2.33145C9.22392 2.33681 9.22512 2.3426 9.2251 2.34845ZM9.32002 2.37306C9.32002 2.39767 9.30244 2.41876 9.27783 2.41876C9.25322 2.41876 9.23213 2.39767 9.23213 2.37306C9.23213 2.36706 9.23331 2.36111 9.23561 2.35557C9.2379 2.35002 9.24127 2.34499 9.24552 2.34074C9.24976 2.3365 9.2548 2.33313 9.26034 2.33083C9.26589 2.32854 9.27183 2.32736 9.27783 2.32736C9.30244 2.32736 9.32002 2.34845 9.32002 2.37306ZM9.12666 2.34845C9.12666 2.37306 9.10557 2.39064 9.08447 2.39064C9.05986 2.39064 9.04229 2.37306 9.04229 2.34845C9.0418 2.34291 9.04242 2.33732 9.04411 2.33202C9.0458 2.32671 9.04851 2.3218 9.05211 2.31755C9.0557 2.3133 9.0601 2.30981 9.06505 2.30727C9.07001 2.30473 9.07541 2.30319 9.08096 2.30275C9.08709 2.30221 9.09327 2.30302 9.09906 2.30513C9.10485 2.30724 9.11011 2.31059 9.11446 2.31494C9.11882 2.3193 9.12217 2.32456 9.12428 2.33034C9.12638 2.33613 9.1272 2.34231 9.12666 2.34845ZM8.92979 2.34845C8.92979 2.37657 8.90869 2.39415 8.88408 2.39415C8.85947 2.39415 8.84189 2.37657 8.84189 2.35197C8.84189 2.32384 8.85947 2.30626 8.88408 2.30626C8.90869 2.30626 8.92979 2.32384 8.92979 2.34845ZM8.8208 2.359C8.8208 2.38361 8.79971 2.4047 8.7751 2.4047C8.75049 2.4047 8.73291 2.38361 8.73291 2.359C8.73291 2.33439 8.75049 2.31329 8.7751 2.31329C8.79971 2.31329 8.8208 2.33439 8.8208 2.359ZM9.02119 2.22892C9.02119 2.25001 9.00361 2.26407 8.98604 2.26407C8.98113 2.26457 8.97618 2.26402 8.9715 2.26248C8.96682 2.26093 8.96252 2.25842 8.95887 2.25511C8.95522 2.25179 8.95232 2.24775 8.95033 2.24324C8.94835 2.23872 8.94734 2.23385 8.94736 2.22892C8.94687 2.22402 8.94741 2.21906 8.94896 2.21438C8.9505 2.2097 8.95302 2.2054 8.95633 2.20175C8.95965 2.19811 8.96369 2.1952 8.9682 2.19322C8.97271 2.19123 8.97759 2.19022 8.98252 2.19025C8.99184 2.19025 9.00079 2.19395 9.00738 2.20054C9.01397 2.20714 9.01768 2.21608 9.01768 2.2254M9.01768 2.04962C9.01768 2.07072 9.00361 2.08478 8.98252 2.08478C8.9732 2.08478 8.96425 2.08107 8.95766 2.07448C8.95107 2.06789 8.94736 2.05895 8.94736 2.04962C8.94736 2.0403 8.95107 2.03136 8.95766 2.02476C8.96425 2.01817 8.9732 2.01447 8.98252 2.01447C8.99184 2.01447 9.00079 2.01817 9.00738 2.02476C9.01397 2.03136 9.01768 2.0403 9.01768 2.04962ZM9.01768 2.14454C9.01768 2.16564 9.00361 2.18322 8.98252 2.18322C8.9732 2.18322 8.96425 2.17951 8.95766 2.17292C8.95107 2.16633 8.94736 2.15738 8.94736 2.14806C8.94631 2.14289 8.94643 2.13755 8.94772 2.13244C8.949 2.12732 8.95142 2.12257 8.9548 2.11851C8.95818 2.11446 8.96242 2.11122 8.96722 2.10903C8.97202 2.10685 8.97725 2.10576 8.98252 2.10587C8.98745 2.10585 8.99233 2.10686 8.99684 2.10884C9.00135 2.11082 9.00539 2.11373 9.00871 2.11738C9.01202 2.12103 9.01454 2.12533 9.01608 2.13001C9.01763 2.13469 9.01817 2.13964 9.01768 2.14454ZM8.7083 2.39064C8.7083 2.41525 8.69072 2.43282 8.66611 2.43282C8.64502 2.43282 8.62393 2.41525 8.62393 2.39064C8.62344 2.38481 8.62417 2.37894 8.62607 2.37341C8.62797 2.36788 8.631 2.3628 8.63497 2.35851C8.63893 2.35421 8.64375 2.35078 8.64911 2.34845C8.65448 2.34611 8.66026 2.34491 8.66611 2.34493C8.67196 2.34491 8.67775 2.34611 8.68311 2.34845C8.68848 2.35078 8.69329 2.35421 8.69726 2.35851C8.70123 2.3628 8.70426 2.36788 8.70616 2.37341C8.70806 2.37894 8.70879 2.38481 8.7083 2.39064Z" fill="#F0DDCB"/>
<path d="M9.02119 2.22892C9.02119 2.25001 9.00361 2.26407 8.98604 2.26407C8.98113 2.26457 8.97618 2.26402 8.9715 2.26248C8.96682 2.26093 8.96252 2.25842 8.95887 2.25511C8.95522 2.25179 8.95232 2.24775 8.95033 2.24324C8.94835 2.23872 8.94734 2.23385 8.94736 2.22892C8.94687 2.22402 8.94741 2.21906 8.94896 2.21438C8.9505 2.2097 8.95302 2.2054 8.95633 2.20175C8.95965 2.19811 8.96369 2.1952 8.9682 2.19322C8.97271 2.19123 8.97759 2.19022 8.98252 2.19025C8.99184 2.19025 9.00079 2.19395 9.00738 2.20054C9.01397 2.20714 9.01768 2.21608 9.01768 2.2254M9.2251 2.34845C9.2251 2.37306 9.204 2.39415 9.18291 2.39415C9.17677 2.39469 9.17059 2.39388 9.1648 2.39177C9.15902 2.38966 9.15376 2.38631 9.1494 2.38196C9.14505 2.3776 9.1417 2.37234 9.13959 2.36656C9.13748 2.36077 9.13667 2.35459 9.13721 2.34845C9.13721 2.33726 9.14165 2.32653 9.14956 2.31862C9.15748 2.31071 9.16821 2.30626 9.17939 2.30626C9.18522 2.30577 9.19109 2.3065 9.19662 2.30841C9.20215 2.31031 9.20723 2.31334 9.21153 2.3173C9.21582 2.32127 9.21925 2.32609 9.22159 2.33145C9.22392 2.33681 9.22512 2.3426 9.2251 2.34845ZM9.32002 2.37306C9.32002 2.39767 9.30244 2.41876 9.27783 2.41876C9.25322 2.41876 9.23213 2.39767 9.23213 2.37306C9.23213 2.36706 9.23331 2.36111 9.23561 2.35557C9.2379 2.35002 9.24127 2.34499 9.24552 2.34074C9.24976 2.3365 9.2548 2.33313 9.26034 2.33083C9.26589 2.32854 9.27183 2.32736 9.27783 2.32736C9.30244 2.32736 9.32002 2.34845 9.32002 2.37306ZM9.12666 2.34845C9.12666 2.37306 9.10557 2.39064 9.08447 2.39064C9.05986 2.39064 9.04229 2.37306 9.04229 2.34845C9.0418 2.34291 9.04242 2.33732 9.04411 2.33202C9.0458 2.32671 9.04851 2.3218 9.05211 2.31755C9.0557 2.3133 9.0601 2.30981 9.06505 2.30727C9.07001 2.30473 9.07541 2.30319 9.08096 2.30275C9.08709 2.30221 9.09327 2.30302 9.09906 2.30513C9.10485 2.30724 9.11011 2.31059 9.11446 2.31494C9.11882 2.3193 9.12217 2.32456 9.12428 2.33034C9.12638 2.33613 9.1272 2.34231 9.12666 2.34845ZM8.92979 2.34845C8.92979 2.37657 8.90869 2.39415 8.88408 2.39415C8.85947 2.39415 8.84189 2.37657 8.84189 2.35197C8.84189 2.32384 8.85947 2.30626 8.88408 2.30626C8.90869 2.30626 8.92979 2.32384 8.92979 2.34845ZM8.8208 2.359C8.8208 2.38361 8.79971 2.4047 8.7751 2.4047C8.75049 2.4047 8.73291 2.38361 8.73291 2.359C8.73291 2.33439 8.75049 2.31329 8.7751 2.31329C8.79971 2.31329 8.8208 2.33439 8.8208 2.359ZM9.01768 2.04962C9.01768 2.07072 9.00361 2.08478 8.98252 2.08478C8.9732 2.08478 8.96425 2.08107 8.95766 2.07448C8.95107 2.06789 8.94736 2.05895 8.94736 2.04962C8.94736 2.0403 8.95107 2.03136 8.95766 2.02476C8.96425 2.01817 8.9732 2.01447 8.98252 2.01447C8.99184 2.01447 9.00079 2.01817 9.00738 2.02476C9.01397 2.03136 9.01768 2.0403 9.01768 2.04962ZM9.01768 2.14454C9.01768 2.16564 9.00361 2.18322 8.98252 2.18322C8.9732 2.18322 8.96425 2.17951 8.95766 2.17292C8.95107 2.16633 8.94736 2.15738 8.94736 2.14806C8.94631 2.14289 8.94643 2.13755 8.94772 2.13244C8.949 2.12732 8.95142 2.12257 8.9548 2.11851C8.95818 2.11446 8.96242 2.11122 8.96722 2.10903C8.97202 2.10685 8.97725 2.10576 8.98252 2.10587C8.98745 2.10585 8.99233 2.10686 8.99684 2.10884C9.00135 2.11082 9.00539 2.11373 9.00871 2.11738C9.01202 2.12103 9.01454 2.12533 9.01608 2.13001C9.01763 2.13469 9.01817 2.13964 9.01768 2.14454ZM8.7083 2.39064C8.7083 2.41525 8.69072 2.43282 8.66611 2.43282C8.64502 2.43282 8.62393 2.41525 8.62393 2.39064C8.62344 2.38481 8.62417 2.37894 8.62607 2.37341C8.62797 2.36788 8.631 2.3628 8.63497 2.35851C8.63893 2.35421 8.64375 2.35078 8.64911 2.34845C8.65448 2.34611 8.66026 2.34491 8.66611 2.34493C8.67196 2.34491 8.67775 2.34611 8.68311 2.34845C8.68848 2.35078 8.69329 2.35421 8.69726 2.35851C8.70123 2.3628 8.70426 2.36788 8.70616 2.37341C8.70806 2.37894 8.70879 2.38481 8.7083 2.39064Z" stroke="#121116" stroke-width="0.0375" stroke-linejoin="round"/>
<path d="M9.03169 2.33788C9.03169 2.366 9.0106 2.3871 8.98247 2.3871C8.97004 2.38621 8.9584 2.38063 8.94992 2.3715C8.94144 2.36236 8.93674 2.35035 8.93677 2.33788C8.93759 2.32603 8.94267 2.31487 8.95107 2.30647C8.95947 2.29807 8.97062 2.293 8.98247 2.29218C8.99494 2.29214 9.00695 2.29684 9.01609 2.30533C9.02522 2.31381 9.0308 2.32544 9.03169 2.33788Z" fill="#916C68" stroke="#4D3126" stroke-width="0.0375" stroke-linejoin="round"/>
<path d="M9.07081 1.70374C9.07081 1.72844 9.0617 1.75216 9.04546 1.76976C9.02921 1.78736 9.00712 1.79744 8.98396 1.79782C8.96057 1.79782 8.93813 1.78791 8.92159 1.77027C8.90505 1.75262 8.89575 1.72869 8.89575 1.70374C8.89575 1.67903 8.90486 1.65532 8.92111 1.63771C8.93736 1.62011 8.95944 1.61003 8.9826 1.60965C9.006 1.60965 9.02843 1.61956 9.04497 1.63721C9.06152 1.65485 9.07081 1.67878 9.07081 1.70374Z" fill="#EEEEEE" stroke="#1E1E1E" stroke-width="0.0747483" stroke-linejoin="round"/>
<path fill-rule="evenodd" clip-rule="evenodd" d="M8.94385 1.7543C8.94385 1.7543 9.01416 1.7543 9.02119 1.71915C9.02822 1.69102 9.01768 1.64883 9.01768 1.64883C9.01768 1.64883 9.05283 1.69102 9.04229 1.71915C9.03174 1.7543 9.02119 1.76133 9.0001 1.76485C8.99051 1.76713 8.98054 1.76738 8.97085 1.76556C8.96116 1.76374 8.95196 1.75991 8.94385 1.7543Z" fill="#A3AFB8"/>
<path fill-rule="evenodd" clip-rule="evenodd" d="M7.59375 4.8797C7.59375 4.8797 7.67109 4.95704 7.69219 5.02735C7.71328 5.09766 7.74492 5.28399 7.74492 5.28399C7.74492 5.28399 8.56055 5.0379 8.96133 5.05899C9.36211 5.08009 10.2867 5.29806 10.2867 5.29806L10.3219 5.08009C10.3395 4.96759 10.4168 4.84806 10.4168 4.84806C10.4168 4.84806 9.53086 4.55274 8.97539 4.58087C8.41641 4.60899 8.13867 4.67227 8.01562 4.71446C7.8736 4.76588 7.73292 4.82098 7.59375 4.8797Z" fill="#FFCC00" stroke="black" stroke-width="0.03125"/>
<path fill-rule="evenodd" clip-rule="evenodd" d="M8.81372 1.3535H9.16528C9.16528 1.3535 9.07739 1.41678 9.05981 1.47655C9.04575 1.52928 9.04927 1.61717 9.04927 1.61717C9.04927 1.61717 9.14419 1.61718 9.18989 1.5785L9.31997 1.47303V1.94764C9.31997 1.94764 9.23208 1.85975 9.17935 1.82811C9.11958 1.79296 9.0563 1.78241 9.0563 1.78241C9.0563 1.78241 9.0563 1.85975 9.08442 1.90546L9.2356 2.12343L8.73286 2.14452C8.73286 2.14452 8.85239 2.01093 8.8981 1.91249C8.93325 1.84921 8.91919 1.78241 8.91919 1.78241C8.91919 1.78241 8.83481 1.78241 8.79263 1.81405C8.74692 1.84569 8.6731 1.94061 8.6731 1.94061V1.48358C8.6731 1.48358 8.70825 1.57147 8.77856 1.60311C8.84888 1.63827 8.91216 1.62069 8.91216 1.62069C8.91216 1.62069 8.92622 1.52928 8.8981 1.47303C8.86646 1.41327 8.80669 1.34999 8.81372 1.3535Z" fill="#FFCC00" stroke="black" stroke-width="0.075"/>
<path fill-rule="evenodd" clip-rule="evenodd" d="M8.78561 2.86522C8.78561 2.86522 8.536 2.86522 8.32155 2.72811C8.1071 2.59452 7.88913 2.4539 7.57272 2.53124C7.50944 2.54882 7.26686 2.66132 7.16139 3.02343C7.09108 3.28007 7.17546 3.58593 7.24929 3.72655C7.32663 3.86366 7.44616 4.00429 7.44616 4.00429L7.57624 3.90936C7.57624 3.90936 7.24577 3.61405 7.28796 3.22733C7.32311 2.84061 7.50593 2.75272 7.50593 2.75272C7.50593 2.75272 7.73093 2.5664 8.02975 2.74218C8.30488 2.90152 8.60599 3.01101 8.91921 3.06561C8.9403 3.06561 8.77858 2.86522 8.78561 2.86522Z" fill="#FFCC00" stroke="#121116" stroke-width="0.075"/>
<path fill-rule="evenodd" clip-rule="evenodd" d="M7.40044 4.31367L7.26685 4.03242L7.66763 3.86719C7.66763 3.86719 7.56919 4.00781 7.5481 4.10273C7.51997 4.22227 7.53052 4.32422 7.53052 4.32422C7.53052 4.32422 7.56567 4.29258 7.61138 4.21875C7.64653 4.15547 7.70278 3.94102 7.70278 3.94102L7.88208 4.55273C7.88208 4.55273 7.79067 4.4543 7.72388 4.44375C7.65356 4.42969 7.56216 4.4543 7.56216 4.4543L7.45669 4.48945L7.40044 4.31367Z" fill="#FFCC00" stroke="black" stroke-width="0.075"/>
<path fill-rule="evenodd" clip-rule="evenodd" d="M9.23546 2.86173C9.23546 2.86173 9.48507 2.86173 9.69952 2.7211C9.91398 2.58751 10.1284 2.44688 10.4484 2.52774C10.5116 2.54532 10.7507 2.6543 10.8562 3.01993C10.93 3.27305 10.8456 3.58243 10.7683 3.72305L10.6417 3.94102L10.487 3.88126C10.487 3.88126 10.7718 3.60704 10.7331 3.22032C10.6944 2.8336 10.5151 2.74571 10.5151 2.74571C10.5151 2.74571 10.2901 2.55938 9.99132 2.73516C9.69249 2.91094 9.40069 2.9918 9.40069 2.9918C9.40069 2.9918 9.12648 3.06212 9.10187 3.06212C9.07726 3.0586 9.24249 2.85821 9.23546 2.86173Z" fill="#FFCC00" stroke="#121116" stroke-width="0.075"/>
<path d="M9.10547 2.59806H9.21094V3.63517H9.10547V2.59806ZM8.75391 2.59454H8.87695V3.63165H8.75391V2.59454Z" fill="#FFCC00" stroke="#121116" stroke-width="0.075" stroke-linejoin="round"/>
<path d="M9.32339 2.35194C9.32293 2.39626 9.31374 2.44006 9.29636 2.48083C9.27897 2.52161 9.25372 2.55855 9.22206 2.58957C9.19039 2.62058 9.15292 2.64505 9.1118 2.66159C9.07067 2.67812 9.02669 2.68639 8.98237 2.68593C8.93805 2.68639 8.89407 2.67812 8.85295 2.66159C8.81182 2.64505 8.77436 2.62058 8.74269 2.58957C8.71102 2.55855 8.68578 2.52161 8.66839 2.48083C8.651 2.44006 8.64182 2.39626 8.64136 2.35194C8.64228 2.26304 8.67825 2.1781 8.74144 2.11556C8.80464 2.05303 8.88995 2.01795 8.97886 2.01796C9.02318 2.01703 9.06725 2.02483 9.10856 2.04094C9.14986 2.05704 9.18759 2.08113 9.21959 2.11182C9.25158 2.1425 9.27722 2.1792 9.29503 2.21979C9.31284 2.26039 9.32248 2.3041 9.32339 2.34843" fill="#FFCC00"/>
<path d="M9.32339 2.35194C9.32293 2.39626 9.31374 2.44006 9.29636 2.48083C9.27897 2.52161 9.25372 2.55855 9.22206 2.58957C9.19039 2.62058 9.15292 2.64505 9.1118 2.66159C9.07067 2.67812 9.02669 2.68639 8.98237 2.68593C8.93805 2.68639 8.89407 2.67812 8.85295 2.66159C8.81182 2.64505 8.77436 2.62058 8.74269 2.58957C8.71102 2.55855 8.68578 2.52161 8.66839 2.48083C8.651 2.44006 8.64182 2.39626 8.64136 2.35194C8.64228 2.26304 8.67825 2.1781 8.74144 2.11556C8.80464 2.05303 8.88995 2.01795 8.97886 2.01796C9.02318 2.01703 9.06725 2.02483 9.10856 2.04094C9.14986 2.05704 9.18759 2.08113 9.21959 2.11182C9.25158 2.1425 9.27722 2.1792 9.29503 2.21979C9.31284 2.26039 9.32248 2.3041 9.32339 2.34843" stroke="#121116" stroke-width="0.075" stroke-linejoin="round"/>
<path fill-rule="evenodd" clip-rule="evenodd" d="M8.68008 3.62812L9.26719 3.6246C9.26719 3.6246 9.19688 3.66679 9.14062 3.77929C9.08086 3.89179 9.08789 3.9621 9.08789 3.9621C9.08789 3.9621 9.1793 3.9621 9.23906 3.90937C9.30234 3.86367 9.37266 3.76874 9.37266 3.76874V4.34882C9.37266 4.34882 9.32695 4.27499 9.25664 4.22929C9.18633 4.1871 9.08789 4.1871 9.08789 4.1871H8.8875C8.8875 4.1871 8.79609 4.19413 8.75742 4.22226C8.71079 4.25838 8.66727 4.29837 8.62734 4.34179L8.61328 3.79687C8.61328 3.79687 8.64141 3.89179 8.73633 3.93046C8.83125 3.96913 8.88398 3.96562 8.88398 3.96562C8.88398 3.96562 8.88398 3.84257 8.83477 3.77929C8.78555 3.71601 8.67656 3.63163 8.67656 3.62812H8.68008Z" fill="#FFCC00" stroke="black" stroke-width="0.0625"/>
<path fill-rule="evenodd" clip-rule="evenodd" d="M9.00698 4.07813C9.00698 4.07813 9.09136 4.29258 9.19331 4.38751C9.24956 4.44376 9.42534 4.48594 9.50269 4.46485C9.67847 4.41563 9.80503 4.26446 9.80503 4.26446C9.80503 4.26446 9.798 4.42969 9.9105 4.5211C10.0195 4.61251 10.1074 4.63712 10.1988 4.60899C10.2937 4.58087 10.5503 4.37696 10.5503 4.37696L10.6066 4.42618C10.6066 4.42618 10.4554 4.58087 10.3007 4.66173C10.2199 4.70391 9.97378 4.68282 9.89644 4.61251C9.81558 4.54571 9.76987 4.38399 9.76987 4.38399C9.76987 4.38399 9.72065 4.48946 9.61519 4.52462C9.50972 4.55977 9.36909 4.55977 9.23198 4.51758C9.14409 4.48946 9.02456 4.35938 9.00347 4.31368C8.98237 4.27149 8.9894 4.24337 8.9894 4.24337C8.9894 4.24337 8.91909 4.44727 8.7855 4.50352C8.65611 4.55338 8.51374 4.55833 8.3812 4.51758C8.25464 4.47891 8.24409 4.40157 8.24409 4.40157C8.24409 4.40157 8.23706 4.61251 7.96284 4.67579C7.68159 4.73907 7.46362 4.5211 7.46362 4.5211L7.50229 4.46133C7.50229 4.46133 7.65698 4.64766 7.89605 4.63008C8.13511 4.61251 8.21245 4.28555 8.21245 4.28555C8.21245 4.28555 8.31792 4.45782 8.59917 4.46133C8.8769 4.46133 8.95776 4.07462 8.95776 4.07462L9.00698 4.08165V4.07813Z" fill="#F6CA1F" stroke="black" stroke-width="0.0625"/>
<path fill-rule="evenodd" clip-rule="evenodd" d="M8.31777 4.20435C8.31777 4.20435 8.31777 4.10069 8.33977 4.0694C8.34926 4.05343 8.36323 4.04105 8.37968 4.03403C8.39614 4.02701 8.41425 4.0257 8.43145 4.03028C8.45529 4.0381 8.48279 4.06157 8.47729 4.13394C8.47362 4.2063 8.45529 4.24151 8.47546 4.26889C8.49379 4.29627 8.49746 4.31387 8.5378 4.30801C8.57447 4.30214 8.5928 4.28845 8.58364 4.24933C8.5763 4.21022 8.5653 4.25324 8.55613 4.21999C8.5488 4.1887 8.59464 4.04984 8.5873 3.96378C8.57997 3.87968 8.55063 3.81123 8.49012 3.79558C8.43328 3.77994 8.38378 3.77994 8.3306 3.82101C8.28412 3.87105 8.24516 3.92844 8.21509 3.99116V4.27085L8.3196 4.26302L8.31777 4.20435Z" fill="#FFCC00" stroke="black" stroke-width="0.074065"/>
<path fill-rule="evenodd" clip-rule="evenodd" d="M8.11981 4.27867C8.11981 4.27867 8.07763 4.18479 8.04646 4.16523C8.03196 4.15509 8.01493 4.14985 7.99759 4.1502C7.98025 4.15055 7.96342 4.15647 7.94928 4.16719C7.93095 4.18675 7.91445 4.21804 7.94562 4.28454C7.97679 4.34712 8.00613 4.37255 7.99879 4.4058C7.98962 4.43905 7.99512 4.45665 7.95662 4.46838C7.91811 4.48012 7.89794 4.47425 7.89061 4.43514C7.88511 4.39602 7.91078 4.42927 7.90528 4.39602C7.89978 4.36473 7.80627 4.2552 7.78243 4.17306C7.75676 4.09482 7.75859 4.01659 7.8081 3.97748C7.85394 3.93836 7.89978 3.9188 7.96212 3.93445C8.02446 3.94814 8.13264 4.04006 8.13264 4.04006L8.23899 4.29432L8.13814 4.33343L8.11981 4.27867Z" fill="#FFCC00" stroke="black" stroke-width="0.074065"/>
<path fill-rule="evenodd" clip-rule="evenodd" d="M8.0996 3.45331C8.0996 3.45331 7.99508 3.63911 8.01892 3.78188C8.04092 3.92466 8.18028 4.23172 8.18028 4.23172V4.27084L8.25362 4.26301L8.23895 4.21999C8.23895 4.21999 8.27562 3.85425 8.25179 3.73886C8.23528 3.6528 8.0996 3.45526 8.0996 3.45331ZM8.26462 4.30213C8.26462 4.30213 8.31596 4.36863 8.3783 4.39992C8.44431 4.43513 8.47365 4.43513 8.49932 4.41361C8.51765 4.39797 8.51215 4.33147 8.49015 4.31191C8.46631 4.29431 8.44064 4.30409 8.43514 4.32169C8.42964 4.35298 8.42047 4.35103 8.39847 4.33929L8.29762 4.27475L8.26462 4.30213ZM8.18394 4.31778C8.18394 4.31778 8.16194 4.39992 8.11793 4.45468C8.07026 4.51727 8.04459 4.53096 8.01159 4.52314C7.98775 4.51727 7.96941 4.45273 7.98225 4.42535C7.99692 4.39797 8.02442 4.39601 8.03359 4.41166C8.05193 4.43513 8.06109 4.43121 8.07576 4.41166C8.0991 4.37699 8.12172 4.34177 8.1436 4.30604L8.18394 4.31778Z" fill="#FFCC00" stroke="black" stroke-width="0.074065"/>
<path d="M8.38403 4.25207C8.38767 4.27522 8.31837 4.30746 8.23158 4.32299C8.14478 4.33853 8.0676 4.33251 8.06185 4.30775C8.05821 4.28461 8.12751 4.25237 8.21611 4.23652C8.30472 4.22066 8.38009 4.227 8.38373 4.25015" fill="#FFCC00"/>
<path d="M8.38403 4.25207C8.38767 4.27522 8.31837 4.30746 8.23158 4.32299C8.14478 4.33853 8.0676 4.33251 8.06185 4.30775C8.05821 4.28461 8.12751 4.25237 8.21611 4.23652C8.30472 4.22066 8.38009 4.227 8.38373 4.25015" stroke="black" stroke-width="0.0740739" stroke-linejoin="round"/>
<path fill-rule="evenodd" clip-rule="evenodd" d="M9.90269 4.24595C9.90269 4.24595 9.93676 4.14887 9.96766 4.12779C9.9818 4.11639 9.99894 4.11003 10.0167 4.10961C10.0344 4.10919 10.0518 4.11473 10.0664 4.12546C10.0861 4.1417 10.1042 4.17397 10.0752 4.23968C10.048 4.30608 10.0193 4.33219 10.0291 4.36538C10.0373 4.39788 10.035 4.41574 10.0747 4.42533C10.1109 4.43356 10.1326 4.42759 10.1369 4.38753C10.1429 4.34815 10.1184 4.38433 10.1208 4.34977C10.1242 4.31772 10.2128 4.20482 10.2342 4.12148C10.255 4.03998 10.25 3.9649 10.1985 3.92761C10.1504 3.89169 10.104 3.87317 10.0407 3.89175C9.98075 3.92122 9.92539 3.9604 9.87661 4.00789L9.78466 4.26981L9.88511 4.30158L9.90269 4.24595Z" fill="#FFCC00" stroke="black" stroke-width="0.0740992"/>
<path fill-rule="evenodd" clip-rule="evenodd" d="M9.69285 4.24147C9.69285 4.24147 9.68422 4.13778 9.66146 4.1078C9.65121 4.09288 9.63698 4.0816 9.62063 4.07545C9.60428 4.06929 9.58657 4.06853 9.56981 4.07328C9.54621 4.08474 9.52046 4.10787 9.52779 4.18181C9.53641 4.25208 9.55552 4.28687 9.53772 4.31526C9.51821 4.34297 9.51757 4.36151 9.47765 4.3581C9.43774 4.35468 9.42078 4.34164 9.42677 4.30227C9.43448 4.26358 9.44758 4.30432 9.45336 4.27112C9.4585 4.23976 9.40694 4.10221 9.41162 4.01636C9.4133 3.93349 9.44074 3.86091 9.49996 3.8428C9.55575 3.82331 9.60511 3.82214 9.65835 3.86012C9.71223 3.89626 9.78332 4.02282 9.78332 4.02282L9.79932 4.30071L9.69202 4.29962L9.69285 4.24147Z" fill="#FFCC00" stroke="black" stroke-width="0.0740992"/>
<path fill-rule="evenodd" clip-rule="evenodd" d="M9.94515 3.46097C9.94515 3.46097 9.78619 3.59588 9.76157 3.73851C9.73524 3.88045 9.76479 4.22015 9.76479 4.22015L9.75193 4.25678L9.82318 4.27689L9.82359 4.23111C9.82359 4.23111 9.97818 3.90231 9.99379 3.78532C10.0066 3.69856 9.94451 3.46281 9.94515 3.46097ZM9.82063 4.31764C9.82063 4.31764 9.84684 4.39912 9.89494 4.45174C9.94518 4.50941 9.97266 4.52038 10.0038 4.50984C10.0261 4.50204 10.0428 4.43771 10.0286 4.41116C10.0121 4.38576 9.98483 4.38531 9.97389 4.39974C9.95845 4.42699 9.95051 4.42173 9.93376 4.40251L9.86054 4.30434L9.82063 4.31764ZM9.73993 4.30211C9.73993 4.30211 9.69232 4.37081 9.6331 4.40563C9.56788 4.44641 9.53934 4.44963 9.511 4.42996C9.49061 4.41555 9.49466 4.34824 9.51568 4.3274C9.53842 4.30725 9.56482 4.3157 9.56826 4.33379C9.57771 4.36262 9.58759 4.36239 9.60775 4.34956C9.64101 4.32582 9.67377 4.30131 9.70601 4.27603L9.73993 4.30211Z" fill="#FFCC00" stroke="black" stroke-width="0.0740992"/>
<path d="M9.94563 4.3171C9.94143 4.34014 9.86593 4.3444 9.77954 4.32648C9.69315 4.30856 9.62285 4.27405 9.6256 4.24872C9.6298 4.22568 9.7053 4.22142 9.79349 4.23971C9.88168 4.25801 9.95018 4.29214 9.94598 4.31518" fill="#FFCC00"/>
<path d="M9.94563 4.3171C9.94143 4.34014 9.86593 4.3444 9.77954 4.32648C9.69315 4.30856 9.62285 4.27405 9.6256 4.24872C9.6298 4.22568 9.7053 4.22142 9.79349 4.23971C9.88168 4.25801 9.95018 4.29214 9.94598 4.31518" stroke="black" stroke-width="0.0740765" stroke-linejoin="round"/>
<path fill-rule="evenodd" clip-rule="evenodd" d="M7.55869 4.86913C7.55869 4.86913 7.57979 4.94647 7.62198 4.90428C7.66065 4.86913 8.22666 4.63007 9.02119 4.63007C9.81573 4.63007 10.3431 4.8621 10.3747 4.87616C10.4064 4.89022 10.4204 4.91132 10.445 4.87616C10.4731 4.84452 10.4204 4.79178 10.4204 4.79178C10.4204 4.79178 9.86494 4.54218 9.0001 4.54569C8.13174 4.54569 7.57276 4.81288 7.57276 4.81288C7.57276 4.81288 7.5376 4.841 7.56221 4.86913H7.55869Z" fill="#CCA715" stroke="black" stroke-width="0.03125"/>
<path fill-rule="evenodd" clip-rule="evenodd" d="M8.57109 5.22422C8.57109 5.22422 8.59922 5.14687 8.64141 5.13281C8.67656 5.12226 8.73281 5.16094 8.73281 5.16094C8.73281 5.16094 8.66602 5.1539 8.64492 5.16445C8.62734 5.17851 8.62031 5.21015 8.62031 5.21015C8.62031 5.21015 8.63438 5.18554 8.68711 5.18554L8.74336 5.18906C8.74336 5.18906 8.65547 5.19609 8.63789 5.22422C8.6168 5.24883 8.71875 5.25937 8.71875 5.25937C8.71875 5.25937 8.56055 5.26289 8.54297 5.25234C8.51836 5.24179 8.50781 5.21015 8.47266 5.21719C8.4375 5.23125 8.40234 5.26289 8.40234 5.26289C8.40234 5.26289 8.4375 5.19258 8.46563 5.19258C8.49023 5.19258 8.5043 5.19258 8.52891 5.19961C8.55352 5.20664 8.57109 5.22422 8.57109 5.22422ZM7.98398 5.36133C7.98398 5.36133 7.99453 5.28047 8.03672 5.25586C8.07188 5.23828 8.13164 5.2664 8.13164 5.2664C8.13164 5.2664 8.06133 5.26992 8.04375 5.2875C8.02969 5.30508 8.02969 5.33672 8.02969 5.33672C8.02969 5.33672 8.03672 5.30859 8.08945 5.30156L8.1457 5.29101C8.1457 5.29101 8.06133 5.31562 8.04727 5.34726C8.02969 5.3789 8.13516 5.36836 8.13516 5.36836C8.13516 5.36836 7.98047 5.40351 7.95937 5.39648C7.93477 5.38945 7.91719 5.36133 7.88203 5.37539C7.85039 5.39297 7.82227 5.43164 7.82227 5.43164C7.82227 5.43164 7.85039 5.35429 7.875 5.34726C7.89961 5.34375 7.91016 5.34023 7.93828 5.34726C7.96289 5.35078 7.98398 5.36133 7.98398 5.36133ZM9.07031 5.19609C9.07031 5.19609 9.09844 5.12226 9.14062 5.11172C9.1793 5.10117 9.23203 5.13984 9.23203 5.13984C9.23203 5.13984 9.16523 5.13281 9.14414 5.13984C9.12656 5.1539 9.11602 5.18554 9.11602 5.18554C9.11602 5.18554 9.13359 5.16094 9.18633 5.16797L9.24258 5.17148C9.24258 5.17148 9.15469 5.17148 9.13359 5.19961C9.1125 5.22422 9.21445 5.24531 9.21445 5.24531C9.21445 5.24531 9.05625 5.23476 9.03867 5.22422C9.01758 5.21367 9.00352 5.17851 8.96836 5.18554C8.9332 5.19258 8.89805 5.22422 8.89805 5.22422C8.89805 5.22422 8.94023 5.1539 8.96484 5.1539C8.98945 5.15742 9.00352 5.15742 9.02812 5.17148L9.07031 5.19609ZM9.56602 5.25586C9.56602 5.25586 9.60117 5.18554 9.65039 5.18203C9.68555 5.175 9.73477 5.2207 9.73477 5.2207C9.73477 5.2207 9.67148 5.20312 9.64687 5.21015C9.62578 5.2207 9.61523 5.25234 9.61523 5.25234C9.61523 5.25234 9.63281 5.22773 9.68555 5.24179L9.7418 5.25234C9.7418 5.25234 9.65391 5.24531 9.6293 5.2664C9.60469 5.29101 9.70312 5.32265 9.70312 5.32265C9.70312 5.32265 9.54844 5.29453 9.52734 5.28047C9.51328 5.2664 9.50273 5.22773 9.46758 5.23125C9.43242 5.23476 9.39023 5.2664 9.39023 5.2664C9.39023 5.2664 9.44297 5.19961 9.46758 5.20312C9.49219 5.20664 9.50625 5.21015 9.52734 5.22422L9.56602 5.25586ZM10.0582 5.35078C10.0582 5.35078 10.0934 5.29804 10.132 5.29453C10.1637 5.29453 10.1988 5.33672 10.1988 5.33672C10.1988 5.33672 10.1461 5.31562 10.1285 5.32265C10.1109 5.32265 10.1004 5.35078 10.1004 5.35078C10.1004 5.35078 10.118 5.3332 10.1566 5.34726L10.2023 5.36133C10.2023 5.36133 10.132 5.34726 10.1109 5.36133C10.0898 5.3789 10.1672 5.41406 10.1672 5.41406C10.1672 5.41406 10.0441 5.3789 10.0266 5.36484C10.016 5.35429 10.0125 5.32265 9.98438 5.32265C9.95273 5.32265 9.91758 5.34375 9.91758 5.34375C9.91758 5.34375 9.96328 5.29453 9.98438 5.30156C10.002 5.30508 10.016 5.30859 10.0301 5.32265L10.0617 5.35078H10.0582Z" fill="black"/>
<path d="M8.47277 4.86561C8.48684 4.92889 8.41652 4.99569 8.31809 5.01678C8.22316 5.03788 8.13176 5.00272 8.12121 4.93944C8.11066 4.87616 8.17746 4.80936 8.2759 4.78827C8.37434 4.76717 8.46223 4.80233 8.47277 4.86561Z" fill="#0F6545" stroke="black" stroke-width="0.04375" stroke-linejoin="round"/>
<path d="M8.25469 4.85157C8.25469 4.86914 8.24063 4.88672 8.21953 4.89024C8.19844 4.89375 8.17734 4.88672 8.17383 4.87266C8.17383 4.85508 8.18789 4.8375 8.20898 4.8375C8.23008 4.83047 8.25117 4.8375 8.25469 4.85508V4.85157Z" fill="#CECFC1"/>
<path d="M9.84731 4.93945C9.82973 5.00273 9.74184 5.02734 9.6434 4.9957C9.54848 4.96054 9.48871 4.89023 9.50278 4.82695C9.52387 4.76366 9.61528 4.73905 9.7102 4.7707C9.80512 4.80585 9.8684 4.87616 9.85082 4.93945H9.84731Z" fill="#0F6545" stroke="black" stroke-width="0.04375" stroke-linejoin="round"/>
<path d="M9.66089 4.81639C9.65386 4.83397 9.63628 4.841 9.61519 4.83397C9.59409 4.82694 9.58003 4.80936 9.58355 4.79178C9.58706 4.77772 9.60816 4.77069 9.62925 4.77772C9.65034 4.78475 9.6644 4.80233 9.66089 4.81991V4.81639Z" fill="#CECFC1"/>
<path d="M8.81006 4.7215H9.16514V4.91486H8.81006V4.7215Z" fill="#1F2D86" stroke="black" stroke-width="0.0625" stroke-linejoin="round"/>
<path d="M8.96143 4.76367C8.96143 4.77421 8.94385 4.78124 8.92627 4.78124C8.90869 4.78124 8.89111 4.7707 8.89111 4.76367C8.89111 4.75663 8.90869 4.7496 8.92627 4.7496C8.94385 4.7496 8.96143 4.75663 8.96143 4.76367Z" fill="#707C8B"/>
<path fill-rule="evenodd" clip-rule="evenodd" d="M7.80461 4.91485L7.86087 5.10117L7.7554 5.16446C7.7554 5.16446 7.70266 5.19961 7.64993 5.17149C7.60422 5.14336 7.57258 5.05899 7.60071 5.02383C7.65344 4.95352 7.8011 4.91133 7.8011 4.91485H7.80461Z" fill="#9F1209" stroke="black" stroke-width="0.03125"/>
<path d="M7.70977 5.04844C7.70977 5.07657 7.68867 5.10469 7.66055 5.10469C7.63242 5.10469 7.61133 5.07657 7.61133 5.04844C7.61133 5.01329 7.63242 4.98868 7.66055 4.98868C7.68867 4.98868 7.70977 5.0168 7.70977 5.04493V5.04844Z" fill="#8F322F"/>
<path d="M7.66407 5.02736C7.66407 5.03496 7.66161 5.04237 7.65704 5.04845C7.65353 5.05548 7.64649 5.05548 7.63946 5.05197C7.63243 5.05197 7.62892 5.04142 7.6254 5.03087C7.62457 5.02208 7.62708 5.01329 7.63243 5.00626C7.6345 5.00372 7.63738 5.00198 7.64059 5.00134C7.6438 5.0007 7.64713 5.0012 7.65001 5.00275C7.65704 5.00275 7.66407 5.01329 7.66407 5.02384V5.02736Z" fill="#E2A494"/>
<path fill-rule="evenodd" clip-rule="evenodd" d="M10.1918 4.93945L10.1321 5.10469L10.2727 5.18203C10.2727 5.18203 10.3325 5.21016 10.3711 5.175C10.4063 5.14336 10.4133 5.06953 10.3852 5.03437C10.3606 4.99922 10.1883 4.93945 10.1918 4.93945Z" fill="#9F1209" stroke="black" stroke-width="0.03125"/>
<path d="M10.3569 5.07303C10.3569 5.09061 10.3358 5.10819 10.3112 5.10819C10.2866 5.10819 10.269 5.09061 10.269 5.07303C10.269 5.05194 10.2901 5.03436 10.3112 5.03436C10.3358 5.03436 10.3569 5.05194 10.3569 5.06952V5.07303Z" fill="#AA675D"/>
<path d="M10.3148 5.06251C10.3148 5.07657 10.3112 5.08361 10.3042 5.09064C10.3012 5.09292 10.2975 5.09415 10.2937 5.09415C10.2899 5.09415 10.2862 5.09292 10.2831 5.09064C10.2795 5.08773 10.2766 5.08396 10.2747 5.07967C10.2729 5.07537 10.2722 5.07068 10.2726 5.06603C10.2726 5.05548 10.2761 5.04845 10.2831 5.04142C10.2862 5.03914 10.2899 5.0379 10.2937 5.0379C10.2975 5.0379 10.3012 5.03914 10.3042 5.04142C10.3112 5.04845 10.3148 5.05548 10.3148 5.06603V5.06251Z" fill="#E2A494"/>
<path d="M9.30222 4.73906C9.30226 4.74261 9.30153 4.74613 9.30008 4.74937C9.29863 4.75261 9.29649 4.7555 9.29382 4.75784C9.29115 4.76018 9.288 4.76191 9.2846 4.76292C9.28119 4.76392 9.27761 4.76418 9.2741 4.76367C9.26757 4.76367 9.26131 4.76108 9.2567 4.75647C9.25208 4.75185 9.24949 4.74559 9.24949 4.73906C9.24949 4.73254 9.25208 4.72628 9.2567 4.72166C9.26131 4.71705 9.26757 4.71446 9.2741 4.71446C9.27761 4.71395 9.28119 4.71421 9.2846 4.71521C9.288 4.71622 9.29115 4.71795 9.29382 4.72029C9.29649 4.72263 9.29863 4.72552 9.30008 4.72876C9.30153 4.732 9.30226 4.73551 9.30222 4.73906ZM9.45339 4.74961C9.45339 4.75614 9.4508 4.7624 9.44619 4.76701C9.44157 4.77163 9.43531 4.77422 9.42879 4.77422C9.42527 4.77473 9.42169 4.77447 9.41828 4.77346C9.41488 4.77245 9.41173 4.77072 9.40906 4.76838C9.40639 4.76605 9.40426 4.76316 9.40281 4.75992C9.40135 4.75668 9.40062 4.75316 9.40066 4.74961C9.40062 4.74606 9.40135 4.74255 9.40281 4.73931C9.40426 4.73606 9.40639 4.73318 9.40906 4.73084C9.41173 4.7285 9.41488 4.72677 9.41828 4.72576C9.42169 4.72475 9.42527 4.72449 9.42879 4.725C9.43531 4.725 9.44157 4.7276 9.44619 4.73221C9.4508 4.73683 9.45339 4.74309 9.45339 4.74961ZM9.37605 4.81289C9.37608 4.81736 9.37516 4.82178 9.37335 4.82587C9.37155 4.82996 9.3689 4.83362 9.36558 4.83661C9.36226 4.8396 9.35834 4.84185 9.35408 4.84321C9.34983 4.84458 9.34534 4.84503 9.34089 4.84453C9.33673 4.8441 9.33269 4.84284 9.32902 4.84083C9.32534 4.83882 9.3221 4.8361 9.31949 4.83283C9.31687 4.82956 9.31493 4.8258 9.31378 4.82178C9.31262 4.81775 9.31228 4.81354 9.31277 4.80938C9.31277 4.79531 9.32683 4.78125 9.34441 4.78125C9.36199 4.78125 9.37605 4.79531 9.37605 4.81289ZM9.44636 4.91836C9.44642 4.92432 9.44432 4.9301 9.44044 4.93463C9.43656 4.93916 9.43117 4.94212 9.42527 4.94297C9.42176 4.94348 9.41817 4.94322 9.41477 4.94221C9.41136 4.9412 9.40822 4.93947 9.40555 4.93713C9.40287 4.9348 9.40074 4.93191 9.39929 4.92867C9.39784 4.92543 9.39711 4.92191 9.39714 4.91836C9.39664 4.91485 9.3969 4.91127 9.3979 4.90786C9.39891 4.90446 9.40064 4.90131 9.40298 4.89864C9.40532 4.89597 9.40821 4.89383 9.41145 4.89238C9.41469 4.89093 9.4182 4.8902 9.42175 4.89024C9.42558 4.88964 9.4295 4.88995 9.43319 4.89115C9.43687 4.89235 9.44023 4.89441 9.44297 4.89715C9.44571 4.89989 9.44776 4.90324 9.44896 4.90693C9.45017 4.91061 9.45048 4.91453 9.44988 4.91836H9.44636ZM9.30222 4.89727C9.30222 4.90379 9.29963 4.91005 9.29501 4.91467C9.2904 4.91928 9.28414 4.92188 9.27761 4.92188C9.27109 4.92188 9.26483 4.91928 9.26021 4.91467C9.2556 4.91005 9.253 4.90379 9.253 4.89727C9.253 4.89074 9.2556 4.88448 9.26021 4.87987C9.26483 4.87525 9.27109 4.87266 9.27761 4.87266C9.28414 4.87266 9.2904 4.87525 9.29501 4.87987C9.29963 4.88448 9.30222 4.89074 9.30222 4.89727ZM8.56746 4.76719C8.56852 4.77042 8.56891 4.77383 8.56859 4.77722C8.56827 4.78061 8.56725 4.78389 8.5656 4.78686C8.56395 4.78984 8.5617 4.79243 8.55899 4.79449C8.55629 4.79655 8.55318 4.79803 8.54988 4.79883C8.5464 4.79989 8.54273 4.80016 8.53913 4.79963C8.53553 4.7991 8.5321 4.79778 8.52907 4.79576C8.52605 4.79374 8.52351 4.79108 8.52163 4.78796C8.51976 4.78485 8.5186 4.78135 8.51824 4.77774C8.51774 4.7745 8.5179 4.7712 8.51869 4.76802C8.51949 4.76485 8.52091 4.76186 8.52288 4.75924C8.52484 4.75662 8.52731 4.75442 8.53013 4.75277C8.53296 4.75111 8.53609 4.75004 8.53933 4.74961C8.54537 4.74851 8.5516 4.7497 8.5568 4.75295C8.562 4.7562 8.5658 4.76128 8.56746 4.76719ZM8.71863 4.73906C8.71969 4.74254 8.71996 4.74621 8.71943 4.74981C8.7189 4.75341 8.71757 4.75684 8.71556 4.75987C8.71354 4.76289 8.71088 4.76544 8.70776 4.76731C8.70465 4.76918 8.70115 4.77034 8.69753 4.77071C8.6915 4.77181 8.68527 4.77062 8.68007 4.76737C8.67486 4.76411 8.67106 4.75904 8.66941 4.75313C8.66771 4.74971 8.66683 4.74596 8.66684 4.74214C8.66684 4.73833 8.66773 4.73458 8.66944 4.73117C8.67114 4.72776 8.67361 4.72479 8.67666 4.7225C8.6797 4.72021 8.68324 4.71866 8.68699 4.71797C8.69047 4.71691 8.69414 4.71664 8.69773 4.71717C8.70133 4.7177 8.70477 4.71902 8.70779 4.72104C8.71082 4.72306 8.71336 4.72572 8.71523 4.72884C8.71711 4.73195 8.71827 4.73545 8.71863 4.73906ZM8.65535 4.81992C8.65595 4.82725 8.65424 4.83459 8.65046 4.8409C8.64667 4.8472 8.64101 4.85216 8.63425 4.85508C8.62633 4.85728 8.61786 4.85631 8.61064 4.85237C8.60343 4.84843 8.59802 4.84184 8.59558 4.83399C8.59523 4.82623 8.59745 4.81858 8.6019 4.81222C8.60635 4.80586 8.61278 4.80115 8.62019 4.79883C8.6276 4.7976 8.63521 4.79905 8.64165 4.80291C8.64809 4.80678 8.65294 4.81281 8.65535 4.81992ZM8.75027 4.9043C8.75134 4.90753 8.75172 4.91094 8.7514 4.91433C8.75108 4.91772 8.75007 4.921 8.74841 4.92397C8.74676 4.92695 8.74451 4.92954 8.74181 4.9316C8.7391 4.93366 8.736 4.93514 8.73269 4.93594C8.72946 4.93701 8.72605 4.93739 8.72266 4.93707C8.71927 4.93675 8.71599 4.93574 8.71302 4.93409C8.71004 4.93243 8.70745 4.93018 8.70539 4.92748C8.70333 4.92477 8.70185 4.92167 8.70105 4.91836C8.69935 4.91495 8.69847 4.91119 8.69848 4.90738C8.69848 4.90357 8.69937 4.89981 8.70108 4.8964C8.70278 4.89299 8.70525 4.89003 8.7083 4.88774C8.71134 4.88545 8.71488 4.8839 8.71863 4.88321C8.72211 4.88215 8.72578 4.88188 8.72937 4.88241C8.73297 4.88294 8.73641 4.88426 8.73943 4.88628C8.74246 4.88829 8.745 4.89096 8.74687 4.89407C8.74875 4.89719 8.74991 4.90068 8.75027 4.9043ZM8.60261 4.92188C8.60372 4.92791 8.60253 4.93414 8.59927 4.93935C8.59602 4.94455 8.59094 4.94835 8.58503 4.95C8.58181 4.95107 8.57839 4.95146 8.575 4.95114C8.57162 4.95082 8.56833 4.9498 8.56536 4.94815C8.56239 4.9465 8.55979 4.94425 8.55773 4.94154C8.55567 4.93883 8.55419 4.93573 8.55339 4.93242C8.55234 4.92894 8.55206 4.92527 8.55259 4.92168C8.55313 4.91808 8.55445 4.91464 8.55646 4.91162C8.55848 4.90859 8.56114 4.90605 8.56426 4.90418C8.56738 4.90231 8.57087 4.90115 8.57449 4.90078C8.57772 4.90029 8.58103 4.90044 8.5842 4.90124C8.58738 4.90204 8.59036 4.90346 8.59298 4.90542C8.5956 4.90739 8.5978 4.90985 8.59946 4.91268C8.60111 4.9155 8.60218 4.91863 8.60261 4.92188ZM7.92761 4.91485C7.93007 4.92141 7.92998 4.92864 7.92738 4.93515C7.92478 4.94165 7.91985 4.94694 7.91355 4.95C7.91032 4.95107 7.90691 4.95146 7.90352 4.95114C7.90013 4.95082 7.89685 4.9498 7.89388 4.94815C7.8909 4.9465 7.88831 4.94425 7.88625 4.94154C7.88419 4.93883 7.88271 4.93573 7.88191 4.93242C7.87946 4.92587 7.87954 4.91863 7.88214 4.91213C7.88474 4.90562 7.88967 4.90033 7.89597 4.89727C7.89938 4.89557 7.90314 4.89469 7.90695 4.8947C7.91077 4.8947 7.91452 4.89559 7.91793 4.89729C7.92134 4.899 7.92431 4.90147 7.9266 4.90452C7.92889 4.90756 7.93044 4.9111 7.93113 4.91485H7.92761ZM8.07175 4.86563C8.07421 4.87219 8.07413 4.87942 8.07152 4.88593C8.06892 4.89243 8.06399 4.89773 8.05769 4.90078C8.05446 4.90185 8.05105 4.90224 8.04766 4.90192C8.04427 4.9016 8.04099 4.90058 8.03802 4.89893C8.03504 4.89728 8.03245 4.89503 8.03039 4.89232C8.02833 4.88962 8.02685 4.88651 8.02605 4.88321C8.0236 4.87665 8.02368 4.86941 8.02628 4.86291C8.02888 4.8564 8.03381 4.85111 8.04011 4.84805C8.04353 4.84635 8.04728 4.84547 8.0511 4.84548C8.05491 4.84548 8.05866 4.84637 8.06207 4.84807C8.06548 4.84978 8.06845 4.85225 8.07074 4.8553C8.07303 4.85834 8.07458 4.86188 8.07527 4.86563H8.07175ZM8.02253 4.95352C8.02511 4.96149 8.02476 4.97012 8.02154 4.97786C8.01831 4.98559 8.01243 4.99192 8.00496 4.99571C8.00104 4.99742 7.99683 4.99832 7.99256 4.99835C7.98829 4.99839 7.98405 4.99756 7.98011 4.99592C7.97617 4.99428 7.9726 4.99186 7.96962 4.9888C7.96664 4.98574 7.96431 4.98211 7.96277 4.97813C7.96043 4.96973 7.96129 4.96077 7.96519 4.95297C7.96909 4.94518 7.97574 4.93911 7.98386 4.93594C7.99134 4.93355 7.99944 4.93403 8.00659 4.93727C8.01373 4.94052 8.01942 4.94631 8.02253 4.95352ZM8.128 5.02383C8.13046 5.03039 8.13037 5.03763 8.12777 5.04413C8.12517 5.05063 8.12024 5.05593 8.11394 5.05899C8.11053 5.06068 8.10677 5.06156 8.10296 5.06156C8.09915 5.06155 8.09539 5.06067 8.09198 5.05896C8.08857 5.05726 8.08561 5.05478 8.08332 5.05174C8.08103 5.04869 8.07948 5.04516 8.07878 5.04141C8.07654 5.03441 8.07713 5.02682 8.08041 5.02025C8.0837 5.01368 8.08942 5.00866 8.09636 5.00625C8.09959 5.00518 8.10301 5.0048 8.10639 5.00512C8.10978 5.00544 8.11306 5.00645 8.11604 5.00811C8.11901 5.00976 8.12161 5.01201 8.12367 5.01471C8.12573 5.01742 8.1272 5.02052 8.128 5.02383ZM7.98386 5.05899C7.98632 5.06555 7.98623 5.07278 7.98363 5.07929C7.98103 5.08579 7.9761 5.09109 7.9698 5.09414C7.96662 5.09587 7.96311 5.09687 7.9595 5.09708C7.95589 5.09729 7.95228 5.09671 7.94892 5.09536C7.94557 5.09402 7.94255 5.09195 7.94008 5.08931C7.93761 5.08667 7.93576 5.08352 7.93464 5.08008C7.9324 5.07309 7.93299 5.06549 7.93627 5.05892C7.93956 5.05235 7.94528 5.04733 7.95222 5.04492C7.95829 5.04263 7.96501 5.04282 7.97093 5.04545C7.97686 5.04808 7.9815 5.05295 7.98386 5.05899ZM9.95964 4.84102C9.95724 4.84796 9.95222 4.85368 9.94565 4.85697C9.93908 4.86025 9.93148 4.86084 9.92449 4.8586C9.91755 4.85619 9.91182 4.85117 9.90854 4.8446C9.90525 4.83803 9.90467 4.83043 9.90691 4.82344C9.90931 4.8165 9.91434 4.81077 9.92091 4.80749C9.92748 4.80421 9.93507 4.80362 9.94207 4.80586C9.94901 4.80827 9.95473 4.81329 9.95802 4.81986C9.9613 4.82643 9.96188 4.83402 9.95964 4.84102ZM10.1143 4.89024C10.1127 4.89708 10.1085 4.90304 10.1026 4.90694C10.0968 4.91085 10.0896 4.91241 10.0827 4.91133C10.0789 4.91052 10.0754 4.90894 10.0723 4.9067C10.0691 4.90446 10.0665 4.90161 10.0645 4.89832C10.0626 4.89502 10.0613 4.89136 10.0608 4.88755C10.0603 4.88374 10.0605 4.87987 10.0616 4.87617C10.064 4.86923 10.069 4.86351 10.0756 4.86022C10.0822 4.85694 10.0898 4.85636 10.0968 4.8586C10.1037 4.861 10.1094 4.86602 10.1127 4.87259C10.116 4.87916 10.1166 4.88676 10.1143 4.89375V4.89024ZM10.0194 4.93594C10.017 4.94399 10.0117 4.9509 10.0046 4.95541C9.99754 4.95993 9.98906 4.96175 9.98074 4.96055C9.97608 4.95971 9.97163 4.95794 9.96767 4.95535C9.96371 4.95275 9.96032 4.94939 9.95769 4.94545C9.95506 4.94151 9.95326 4.93708 9.95239 4.93242C9.95151 4.92777 9.95159 4.92299 9.95261 4.91836C9.95509 4.90959 9.96087 4.90213 9.96874 4.89754C9.97661 4.89294 9.98595 4.89159 9.9948 4.89375C10.0124 4.89727 10.0229 4.91836 10.0194 4.93594ZM10.0721 5.06602C10.0713 5.06977 10.0698 5.07332 10.0675 5.07644C10.0653 5.07956 10.0624 5.08219 10.0591 5.08417C10.0558 5.08615 10.0522 5.08743 10.0484 5.08793C10.0446 5.08844 10.0407 5.08816 10.037 5.08711C10.03 5.08471 10.0243 5.07968 10.021 5.07311C10.0178 5.06654 10.0172 5.05895 10.0194 5.05196C10.0218 5.04577 10.0262 5.04062 10.032 5.0374C10.0378 5.03418 10.0446 5.03311 10.0511 5.03438C10.0548 5.03519 10.0584 5.03677 10.0615 5.03901C10.0646 5.04124 10.0672 5.0441 10.0692 5.04739C10.0712 5.05069 10.0725 5.05435 10.073 5.05816C10.0735 5.06197 10.0732 5.06584 10.0721 5.06953V5.06602ZM9.92097 5.00625C9.91861 5.01244 9.91414 5.01759 9.90836 5.02081C9.90257 5.02402 9.89583 5.02509 9.88933 5.02383C9.88239 5.02143 9.87667 5.0164 9.87338 5.00983C9.8701 5.00326 9.86951 4.99567 9.87175 4.98867C9.87411 4.98249 9.87858 4.97733 9.88437 4.97412C9.89016 4.9709 9.8969 4.96983 9.90339 4.9711C9.91033 4.9735 9.91606 4.97852 9.91934 4.98509C9.92263 4.99166 9.92321 4.99926 9.92097 5.00625Z" fill="#F5D8BC"/>
<path d="M10.2656 3.33632C10.2656 3.33632 10.1953 3.40663 10.1074 3.40663C10.0485 3.40785 9.99116 3.38789 9.94572 3.35038C9.91759 3.32929 9.95275 3.27304 9.95275 3.27304" stroke="black" stroke-width="0.075"/>
<path d="M8.75034 3.48046C8.75034 3.48046 8.62026 3.45585 8.56401 3.43476C8.51128 3.41718 8.52534 3.37851 8.45855 3.38203C8.39878 3.38906 8.3355 3.43476 8.34956 3.50156C8.36362 3.57187 8.40933 3.5789 8.45503 3.56484C8.49722 3.55078 8.48315 3.46992 8.4269 3.47343C8.36714 3.48046 8.41636 3.5332 8.41636 3.5332M7.85034 3.37499C7.85034 3.37499 7.8855 3.43124 7.98042 3.4207C8.07534 3.41367 8.1105 3.35742 8.11401 3.33632C8.11753 3.31171 8.11401 3.26601 8.09644 3.24843C8.07886 3.23085 8.01558 3.22031 8.01558 3.22031" stroke="black" stroke-width="0.06875"/>
<path d="M9.675 10.14C9.765 10.05 9.9 9.94801 9.97875 9.72601C10.0519 9.51601 10.0913 9.13801 10.1588 8.94601C10.2431 8.61601 10.4175 8.29801 10.215 8.31601C10.0125 8.34001 9.945 8.54401 9.87188 8.69401C9.83813 8.75401 9.75938 8.87401 9.74251 8.93401C9.74251 8.82601 9.68625 8.49001 9.675 8.15401C9.66375 7.84201 9.675 7.51801 9.66375 7.39801C9.6525 7.23601 9.6525 7.08601 9.61875 6.96601C9.60188 6.90601 9.52876 6.85801 9.48938 6.85801C9.40501 6.85801 9.36001 6.93601 9.34876 7.00801L9.3375 7.11001L9.33188 7.42201V7.75801L9.30375 8.19001C9.30375 8.11201 9.27001 7.75201 9.25876 7.41001C9.25412 7.28404 9.25037 7.15804 9.2475 7.03201L9.24188 6.75601C9.225 6.62401 9.18563 6.57001 9.10125 6.57001C9.045 6.57001 8.955 6.61201 8.9325 6.75601C8.91762 6.8471 8.91197 6.93963 8.91563 7.03201L8.92126 7.33201C8.91563 7.72201 8.91001 8.14201 8.89313 8.26201C8.89313 8.22001 8.85375 8.01601 8.84813 7.74001C8.84292 7.61999 8.8373 7.49999 8.83125 7.38001L8.82 7.02001C8.82 6.96001 8.7975 6.78601 8.69063 6.79801C8.63438 6.79201 8.5725 6.83401 8.55 6.99601C8.53313 7.08601 8.53313 7.24201 8.53313 7.36201C8.53313 7.59601 8.52188 7.79401 8.53313 7.99801V8.28601C8.53313 8.30401 8.505 8.17801 8.48813 8.01001L8.46 7.68601C8.46 7.60201 8.46001 7.47601 8.44876 7.36801C8.44876 7.29001 8.44876 7.20001 8.36438 7.20601C8.28001 7.21201 8.22938 7.24201 8.2125 7.39801C8.20125 7.49401 8.19563 7.71001 8.19563 7.78801C8.19369 8.05329 8.173 8.31804 8.13376 8.58001C8.12813 8.67601 8.08876 8.79601 8.07751 8.92801C8.05301 9.18638 8.06438 9.44719 8.11126 9.70201C8.17876 9.96601 8.35875 10.086 8.3475 10.266V10.902C8.3475 11.046 8.46001 11.052 8.70188 10.998C9.09563 10.908 9.30938 11.088 9.63001 10.956C9.59063 10.56 9.66938 10.326 9.66938 10.182L9.675 10.14ZM9.45 9.21601C9.52875 8.97601 9.63 8.88001 9.73125 8.83201Z" fill="#CC0000"/>
<path d="M9.45 9.21601C9.52875 8.97601 9.63 8.88001 9.73125 8.83201M9.675 10.14C9.765 10.05 9.9 9.94801 9.97875 9.72601C10.0519 9.51601 10.0913 9.13801 10.1588 8.94601C10.2431 8.61601 10.4175 8.29801 10.215 8.31601C10.0125 8.34001 9.945 8.54401 9.87188 8.69401C9.83813 8.75401 9.75938 8.87401 9.74251 8.93401C9.74251 8.82601 9.68625 8.49001 9.675 8.15401C9.66375 7.84201 9.675 7.51801 9.66375 7.39801C9.6525 7.23601 9.6525 7.08601 9.61875 6.96601C9.60188 6.90601 9.52876 6.85801 9.48938 6.85801C9.40501 6.85801 9.36001 6.93601 9.34876 7.00801L9.3375 7.11001L9.33188 7.42201V7.75801L9.30375 8.19001C9.30375 8.11201 9.27001 7.75201 9.25876 7.41001C9.25412 7.28404 9.25037 7.15804 9.2475 7.03201L9.24188 6.75601C9.225 6.62401 9.18563 6.57001 9.10125 6.57001C9.045 6.57001 8.955 6.61201 8.9325 6.75601C8.91762 6.8471 8.91197 6.93963 8.91563 7.03201L8.92126 7.33201C8.91563 7.72201 8.91001 8.14201 8.89313 8.26201C8.89313 8.22001 8.85375 8.01601 8.84813 7.74001C8.84292 7.61999 8.8373 7.49999 8.83125 7.38001L8.82 7.02001C8.82 6.96001 8.7975 6.78601 8.69063 6.79801C8.63438 6.79201 8.5725 6.83401 8.55 6.99601C8.53313 7.08601 8.53313 7.24201 8.53313 7.36201C8.53313 7.59601 8.52188 7.79401 8.53313 7.99801V8.28601C8.53313 8.30401 8.505 8.17801 8.48813 8.01001L8.46 7.68601C8.46 7.60201 8.46001 7.47601 8.44876 7.36801C8.44876 7.29001 8.44876 7.20001 8.36438 7.20601C8.28001 7.21201 8.22938 7.24201 8.2125 7.39801C8.20125 7.49401 8.19563 7.71001 8.19563 7.78801C8.19369 8.05329 8.173 8.31804 8.13376 8.58001C8.12813 8.67601 8.08876 8.79601 8.07751 8.92801C8.05301 9.18638 8.06438 9.44719 8.11126 9.70201C8.17876 9.96601 8.35875 10.086 8.3475 10.266V10.902C8.3475 11.046 8.46001 11.052 8.70188 10.998C9.09563 10.908 9.30938 11.088 9.63001 10.956C9.59063 10.56 9.66938 10.326 9.66938 10.182L9.675 10.14Z" stroke="#161111" stroke-width="0.10328"/>
<path d="M8.55555 8.97001C8.6793 8.91601 8.80305 8.88 8.9268 8.832C9.0843 8.79 9.23055 8.724 9.38242 8.7C9.46117 8.682 9.5343 8.664 9.60742 8.658M8.3418 10.236C8.35867 10.224 8.37555 10.248 8.39242 10.248C8.41492 10.254 8.43742 10.266 8.45992 10.26C8.50867 10.259 8.55743 10.259 8.60617 10.26C8.66242 10.26 8.70742 10.26 8.75242 10.224M9.1068 10.242C9.12367 10.26 9.14055 10.272 9.16305 10.278C9.19117 10.29 9.2193 10.296 9.4218 10.278C9.53992 10.284 9.6468 10.176 9.68055 10.14" stroke="#161111" stroke-width="0.10328"/>
</g>
<defs>
<clipPath id="clip0_14_1239">
<rect width="18" height="18" rx="9" fill="white"/>
</clipPath>
</defs>
</svg>
