<svg width="18" height="18" viewBox="0 0 18 18" fill="none" xmlns="http://www.w3.org/2000/svg">
<g clip-path="url(#clip0_8201_11797)">
<path d="M9 18C13.9706 18 18 13.9706 18 9C18 4.02944 13.9706 0 9 0C4.02944 0 0 4.02944 0 9C0 13.9706 4.02944 18 9 18Z" fill="#F0F0F0"/>
<path d="M18 9C18 13.9705 13.9705 18 9 18C4.02947 18 0 13.9705 0 9" fill="#496E2D"/>
<path d="M15.5747 6.26284C15.2528 5.35008 14.3831 4.69568 13.3603 4.69568H11.3478C10.0511 4.69568 8.99995 5.74685 8.99995 7.04352C8.99995 7.46715 9.11273 7.8743 9.30901 8.21742C8.56169 8.2113 7.87007 8.22259 7.43473 8.21742C7.43473 7.31194 7.43473 6.15846 7.43473 5.91711L7.52719 5.82465C7.94224 5.4096 7.80383 4.71786 7.80383 4.71786C7.80383 4.71786 7.11217 4.57952 6.69711 4.99458L6.2134 5.47829H5.67386C4.48522 5.47829 3.5217 6.44185 3.5217 7.63045H5.08692V9.39132C5.08692 9.64888 5.13885 9.89423 5.23268 10.1177L4.6956 10.5652H3.91298V9.78261H3.13037V11.3478H6.65211V12.9131H5.8695V13.6957H7.43473V12.1305L8.15209 11.2696H9.84778L10.5651 12.1305V12.9131H9.78253V13.6957H12.9129V9.39129C12.9129 8.74297 13.4385 8.21739 14.0869 8.21739C14.1035 8.21739 14.12 8.21798 14.1366 8.21865C14.1041 8.09321 14.0869 7.96169 14.0869 7.8261C14.0869 6.98766 14.7462 6.30323 15.5747 6.26284ZM11.3478 12.913V11.2695H11.413L12.1304 12.1304V12.913H11.3478Z" fill="#D80027"/>
</g>
<defs>
<clipPath id="clip0_8201_11797">
<rect width="18" height="18" fill="white"/>
</clipPath>
</defs>
</svg>
