<svg width="18" height="18" viewBox="0 0 18 18" fill="none" xmlns="http://www.w3.org/2000/svg">
<g clip-path="url(#clip0_14_1300)">
<path d="M0 9H18V18H0V9Z" fill="#00AB39"/>
<path d="M0 0H18V9H0V0Z" fill="white"/>
<path d="M11.9356 3.97969C10.7598 4.61209 9.64834 5.35739 8.61689 6.20508C8.11416 6.64805 8.25478 6.99961 8.23721 7.39336C8.25127 7.66055 8.17744 7.90664 8.01572 8.0543L6.89072 8.28282L6.78525 7.97344C6.82041 7.81524 6.95049 7.73438 7.22822 7.83282C7.24932 7.63243 7.0876 7.55157 6.89424 7.47774C6.82393 7.425 6.74658 7.38633 6.75361 7.21055C6.72197 6.80977 7.36533 7.23867 7.36885 7.23867C7.37588 7.23867 7.34775 6.83438 7.05244 6.75352C6.89424 6.69727 6.82744 6.52852 6.88721 6.40196C7.01377 6.14532 7.25635 6.42305 7.44268 6.4336C7.43564 6.26485 7.38643 6.14532 7.24229 6.01172C7.16494 5.9625 6.9751 5.92735 6.97158 5.84649C6.96807 5.74102 7.14736 5.6918 7.40049 5.72344C7.34775 5.56875 7.179 5.47032 6.94697 5.4L6.80986 5.16094C6.74658 5.04141 6.71494 5.03789 6.86611 4.80938L7.31611 4.51055L7.16846 4.49297C7.18604 4.33125 7.18955 4.275 7.22822 4.0043C7.08057 4.20118 6.90127 4.16602 6.73604 4.25039C6.73604 4.25039 6.27197 4.33125 6.12432 4.53164L4.95361 4.46836C4.70752 4.50352 4.49658 4.57383 4.45088 4.81641C3.88838 4.87266 3.29072 4.82344 2.8583 5.36485C3.15361 5.35078 3.41025 5.28047 3.74072 5.32266C3.74072 5.32266 4.02197 5.32969 4.08174 5.62852C4.08877 5.63907 4.17666 5.63907 4.17666 5.63907L4.28213 5.72344L4.32783 5.60743L4.42275 5.67774L4.45088 5.55117L4.5458 5.61446L4.55283 5.4668L4.67939 5.55469V5.35782C4.67939 5.35782 5.13994 5.35782 5.28057 5.65313C5.2876 5.65664 3.98682 5.89219 2.72822 5.78321L3.09033 5.60391C2.6333 5.50899 2.20088 5.42813 1.79658 5.10821C1.95127 5.68477 2.73877 6.35977 2.90049 6.35625L2.7458 6.075L4.11338 6.13477C4.1626 6.28594 4.1415 6.45469 4.26103 6.58828C4.26103 6.58828 4.18721 6.83789 4.35244 6.93985C4.35947 6.95391 4.55283 6.4336 4.55283 6.4336C4.55283 6.4336 4.6126 6.57422 4.67236 6.66563C4.76025 6.21914 5.24541 6.14532 5.24541 6.14532L5.35088 6.38438C5.19619 6.40899 5.00635 6.71836 5.1083 6.88711C5.00635 6.88711 4.82705 7.18946 4.8833 7.35118C4.79541 7.43555 4.58447 7.55157 4.63721 7.90664C4.46846 7.9418 4.37002 8.25117 4.42275 8.57461C4.1626 8.81719 4.22588 9.26016 4.45791 9.43946C4.36299 9.52735 4.30322 9.59063 4.30322 9.6961C4.21182 9.66094 4.12744 9.69258 4.08877 9.75235C3.97627 9.63633 3.81455 9.53438 3.70205 9.64336C3.67041 9.50625 3.49111 9.3586 3.30127 9.37618C3.31182 9.23203 3.23799 9.05625 3.03057 8.99297C3.03057 8.99297 2.99189 8.32149 2.78447 8.10352C2.76689 7.98047 2.79854 7.89961 2.96729 7.80117C3.13252 7.70977 3.17119 7.63946 3.15713 7.38633C3.22393 7.21758 3.27314 7.04532 3.06924 6.9293C3.07275 7.12969 3.01299 7.22813 2.92861 7.31602C2.83369 7.30196 2.79854 7.41446 2.73525 7.46719C2.64033 7.34063 2.92861 7.15078 2.71416 6.87305C2.70361 6.8625 2.5665 6.51446 2.23252 6.52149C2.30367 6.56334 2.36217 6.62368 2.40178 6.6961C2.4414 6.76852 2.46066 6.85033 2.45752 6.93282C2.33391 7.20721 2.31515 7.5174 2.40479 7.80469C2.26416 7.59375 2.18682 7.2 2.0708 7.12969C1.96885 7.11211 1.91963 6.87305 1.52939 6.93985C1.69814 6.98555 1.75088 7.11563 1.79658 7.23164C1.69111 7.28789 1.74385 7.42852 1.82119 7.52344C1.80713 7.75547 1.94424 7.88907 2.14814 7.97344L2.04619 8.9086C1.96533 8.89805 1.83877 9.21797 1.78955 9.225C1.71221 9.27422 1.57158 9.40782 1.72979 9.44649C1.68408 9.61875 1.63838 9.72071 1.38525 9.75586C1.38525 9.75586 1.65596 9.91758 1.87744 9.64336C2.1165 9.63633 2.03916 9.35157 2.15518 9.225C2.15518 9.22149 2.21846 9.1793 2.31689 8.92617C2.35908 9.15117 2.5876 9.84024 3.10791 10.1813C3.56494 10.6664 3.9376 11.127 3.93408 11.7738C4.10986 11.6086 4.21533 11.3484 4.29619 11.0988C4.54228 11.0145 4.89385 10.9828 5.21025 10.9934C5.15752 11.1094 5.09775 11.2184 5.1751 11.2922C4.95361 11.366 4.90791 11.5242 4.9958 11.6859C4.76377 11.8406 4.74971 11.9426 4.74619 12.2027C4.31729 12.7512 4.05361 12.7336 3.62822 12.5895C3.4876 12.5086 3.27666 12.3926 3.17471 12.4559C2.99189 12.3328 2.72822 12.3152 2.68252 12.593C2.82314 12.477 2.904 12.5016 3.01299 12.6106C2.99189 12.6668 2.97432 12.7195 3.05518 12.7512L2.94971 12.8707C2.75283 12.8426 2.48564 12.8426 2.41885 13.1273C2.51729 13.0465 2.74229 13.0219 2.9251 13.1063L3.02705 13.1414L3.0376 13.2785C3.0376 13.2785 2.77041 13.2363 2.69658 13.6723C2.94971 13.4051 3.129 13.4754 3.129 13.4754C3.22393 13.616 3.58252 13.5949 3.83916 13.3629C4.19775 13.159 4.30322 13.4508 4.53525 13.2574C4.72861 13.1168 4.95713 13.2117 5.11533 13.3805C5.29463 13.4473 5.48447 13.5035 5.63564 13.3805C5.63564 13.3805 5.81494 13.2645 5.99775 13.4508C5.99775 13.2398 5.8501 13.1273 5.64619 13.1238L5.58643 13.0641C5.39658 13.0219 5.18213 13.0395 5.01338 12.9445C5.07897 12.6449 5.2234 12.3681 5.43174 12.143C5.70596 11.8477 5.90986 11.7141 6.26143 11.257C6.24736 11.5137 6.44424 11.7984 6.54619 12.0621C6.54619 12.0621 6.75713 11.7281 6.78525 11.4574C6.79229 11.4574 7.04541 11.3238 7.15439 11.2113C7.38643 11.352 7.75908 11.0988 8.00166 10.8844C8.14179 10.9393 8.29747 10.9393 8.4376 10.8844C8.29697 11.1656 8.51846 11.4293 8.87002 11.5418C8.90166 11.7914 9.15127 11.8441 9.53799 11.8441C9.55205 11.9918 9.78408 12.0129 9.78408 12.0129C9.63643 12.0832 9.5626 12.1465 9.56611 12.3012C9.41846 12.3012 9.30596 12.3363 9.26729 12.5086C9.06578 12.4986 8.86502 12.5397 8.68369 12.6281C8.47415 12.6029 8.27761 12.5132 8.12119 12.3715C8.04736 12.3082 8.02627 12.2168 7.89619 12.1816C7.81182 12.0797 7.71338 12.1043 7.68174 12.1992C7.59385 12.1289 7.27041 12.0973 7.21416 12.4066C7.36533 12.2941 7.50244 12.252 7.60088 12.3891C7.54463 12.484 7.72393 12.5367 7.87861 12.5754C7.98408 12.5824 8.18096 12.6809 8.24072 12.8496C8.1577 12.8724 8.07074 12.8769 7.98579 12.863C7.90084 12.849 7.81991 12.8169 7.74854 12.7688C7.69498 12.724 7.62838 12.6977 7.55868 12.6939C7.48898 12.6901 7.41992 12.709 7.36182 12.7477C7.22822 12.6633 6.92236 12.818 6.91182 13.0676C7.03838 12.948 7.15791 12.8918 7.27393 12.9691C7.21768 12.9832 7.23877 12.9867 7.2458 13.0219L7.54463 13.1941C7.39697 13.2328 7.25986 13.2926 7.32314 13.5633C7.32314 13.5633 7.44268 13.3277 7.70986 13.4156C7.71689 13.4086 7.74502 13.5 7.82236 13.4402C7.93838 13.3066 8.20908 13.2469 8.4376 13.2258C8.62744 13.2012 8.81377 13.1484 8.97549 13.2539C9.11963 13.1801 9.28135 13.1273 9.44658 13.2469C9.64346 13.3102 9.78408 13.5352 10.0337 13.4332C10.1567 13.3488 10.3079 13.3418 10.4626 13.5176C10.4626 13.2996 10.3009 13.2258 10.0688 13.1766L9.90713 13.0816C9.75947 13.057 9.6083 13.0852 9.45713 13.0148C9.81253 12.9299 10.1474 12.7749 10.442 12.5587C10.7366 12.3426 10.9851 12.0698 11.1728 11.7563L11.5419 11.8863C11.6298 11.8934 11.6368 11.9215 11.8161 11.9777C11.8231 11.7106 11.7106 11.4363 11.2325 11.4117L10.6032 11.1727C10.4731 11.032 10.4099 10.7332 10.5821 10.5574C10.7474 10.4098 10.7755 10.4273 10.8845 10.2481C11.0181 10.234 11.1446 10.3711 11.2677 10.3711C11.3274 10.5469 11.6614 10.698 11.8759 10.6453C12.0095 10.7648 12.2626 10.8316 12.5438 10.7367C12.7021 10.8773 12.9095 10.9336 13.1521 10.8246C13.2188 10.8879 13.3524 10.9406 13.5106 10.909C13.5247 10.909 13.5915 11.0813 13.7638 11.141C13.6864 11.2113 13.7321 11.5277 13.8095 11.6438C13.7567 11.7633 13.7392 11.8898 13.7849 12.0199C13.6126 12.1289 13.5774 12.2133 13.6548 12.3996C13.4298 12.7652 13.1591 12.8039 12.9024 12.6914L12.6282 12.5191L12.3364 12.2344C12.2872 12.1852 12.1853 12.1711 12.1606 12.2766C12.1606 12.2766 11.788 12.1922 11.7563 12.5086C11.911 12.3574 12.1325 12.491 12.1325 12.4945C12.1325 12.5016 12.0798 12.5367 12.122 12.6C12.129 12.5895 12.3962 12.6984 12.6317 12.7969C12.5283 12.7505 12.4178 12.7219 12.3048 12.7125C12.1712 12.6984 12.0306 12.6809 11.9673 12.7828C11.8231 12.8426 11.5981 12.8918 11.6087 13.159C11.7036 13.0008 11.8372 13.0078 12.006 13.0184C12.006 13.0324 11.9989 13.0465 11.9954 13.057C12.1782 13.1414 12.1466 13.0324 12.3153 13.0184C12.4595 13.0043 12.6669 13.057 12.7724 13.0922C12.6353 13.1309 12.4524 13.1168 12.3646 13.2117C12.3505 13.2469 12.2942 13.2293 12.3188 13.3066C12.3188 13.3066 12.0552 13.2996 11.9849 13.6652C12.2521 13.493 12.456 13.5 12.4595 13.5L12.5438 13.5176C12.5438 13.5176 12.8673 13.2996 12.8743 13.2996C12.8778 13.2996 13.1837 13.166 13.3278 13.3207C13.4474 13.3805 13.581 13.384 13.7075 13.3066C13.9606 13.2012 14.1927 13.1906 14.4247 13.3418L14.6356 13.4684L14.7235 13.4086C14.7235 13.4086 14.9591 13.3418 15.1313 13.5492C15.061 13.1871 14.8009 13.1766 14.8009 13.1766L14.7411 13.1238L14.372 12.9797C14.3157 12.8461 14.1821 12.7406 14.3157 12.5789C14.4563 11.8934 14.6181 11.3836 14.3509 10.6875C14.6005 10.793 14.7868 11.127 15.0997 11.0109C15.0997 10.7297 14.0731 10.2023 13.2892 9.78047C14.5724 9.71016 16.1157 8.76446 15.5216 7.56211L15.8028 6.69024C15.9411 6.94731 16.1687 7.14489 16.4427 7.24571C16.2458 6.86602 16.1298 5.71289 16.2458 4.91836C15.7207 5.54799 15.1547 6.14225 14.5513 6.69727C14.8466 6.76758 15.1103 6.71836 15.395 6.68321L15.156 7.18594C14.3649 6.72188 13.4403 7.06993 13.4333 7.68516C13.4614 8.40586 14.3474 8.50782 14.8606 8.25821C14.7587 8.91211 13.254 8.66953 13.254 8.66953C12.7196 8.48672 12.2099 8.51836 11.6509 8.52188C11.7669 8.16328 12.4138 7.84336 12.9095 7.98399C12.2169 7.21055 13.0079 6.24727 13.9571 5.94844C12.92 5.60742 13.8165 4.81641 14.5899 4.25039C14.5899 4.25039 12.3575 5.18907 12.1536 5.18555C11.5208 5.13985 11.6931 4.3875 11.9321 3.98321L11.9356 3.97969ZM4.92197 4.88672C4.97471 4.88672 5.03447 4.89375 5.08369 4.9043C5.18564 4.92891 5.30869 4.94297 5.30518 4.97461C5.25947 5.05196 5.14346 5.14688 5.03096 5.13985C4.91846 5.13633 4.85518 5.06953 4.8165 4.89727C4.82705 4.89024 4.86924 4.88672 4.92197 4.88672ZM14.3263 7.5375C14.4704 7.5375 14.6462 7.59727 14.8185 7.78008C14.7341 8.01563 14.0204 8.13868 13.9747 7.78711C13.9606 7.68164 14.1118 7.54102 14.3263 7.54102V7.5375Z" fill="#D21034" stroke="black" stroke-width="0.075"/>
<path d="M5.66016 6.95742L5.76562 7.11562M5.76562 7.11914C5.76562 7.11914 5.76562 7.33007 5.80781 7.33711M5.70937 7.44961L5.82188 7.63593M5.5125 7.68515L5.65313 7.83984M5.76562 7.72031C5.76562 7.72734 5.89219 7.96289 5.90273 7.96289M5.60039 7.88203C5.60039 7.88203 5.64609 8.17031 5.68477 8.15976M5.41406 8.40586L5.54063 8.59922M5.64961 8.20547C5.64961 8.20547 5.71992 8.47617 5.77266 8.45156M5.82891 8.04023C5.83242 8.04726 5.95547 8.22304 5.99062 8.19843M5.9625 8.26875L6.07852 8.50429M5.76211 8.45156C5.76914 8.45859 5.86055 8.73281 5.86055 8.73281M5.53711 8.59218C5.53711 8.59218 5.625 8.89453 5.70586 8.84531M5.50195 8.99297C5.50195 8.99297 5.50898 9.15117 5.58633 9.1582M5.63906 8.91211C5.63906 8.91914 5.71992 9.02812 5.71992 9.02812M5.86406 8.72578L5.93086 8.83125M6.07148 8.53593L6.17344 8.65898M5.61797 7.12265C5.62148 7.25625 5.83242 7.07343 5.9168 6.96093M5.53008 7.5832C5.53008 7.5832 5.75859 7.42148 5.93789 7.17539M5.44922 7.97343C5.61094 7.92773 5.90977 7.56562 5.96953 7.37578M5.41758 8.33203C5.46328 8.35312 6.02227 7.94882 6.03633 7.65351M5.40352 8.6414C5.40352 8.63789 5.91328 8.51133 6.12773 7.94883M5.37539 9.07031C5.37539 9.07031 6.19102 8.58164 6.23672 8.22304M11.7422 9.88945C11.7422 9.88945 11.6895 10.3113 11.2676 10.3746M11.8758 10.6418C11.8828 10.6383 12.2801 10.1988 12.1781 10.0652M12.8039 10.2199C12.8039 10.2199 12.7969 10.5258 12.5473 10.7367M13.2996 10.3078C13.2996 10.3078 13.3102 10.6769 13.152 10.8246M13.7566 10.5293C13.7566 10.5293 13.5809 10.8738 13.5176 10.909M13.7496 11.141C13.7496 11.141 13.9816 11.2008 14.0555 11.0461M13.8094 11.6437C13.8094 11.6437 14.0273 11.6824 14.1258 11.475M13.7883 12.0305C13.7883 12.0305 13.9641 12.1781 14.0801 11.9848M11.2922 9.18632C11.2922 9.18632 11.2711 9.93515 12.3258 10.0863C13.5035 10.4133 14.059 10.241 14.1293 11.5594C14.0836 12.0621 14.0238 12.6281 13.6582 12.4137M10.1742 9.87539C10.1742 9.87539 10.3395 10.1742 10.5434 10.1566C10.807 10.0758 10.9055 10.241 10.9055 10.241M9.45352 10.1742C9.45352 10.1742 9.89648 10.3922 10.2762 10.0406M9.50273 9.86484C9.54141 10.3816 8.90508 10.6769 8.65547 10.6277M9.53438 11.8477C9.53789 11.8477 9.87891 11.6437 9.80859 11.4996M8.85938 11.5453C8.86641 11.5348 9.42891 11.482 9.53086 11.2781M8.5957 10.7156C8.5957 10.7121 9.39375 10.7191 9.44648 10.8668M9.65742 10.2445C9.65742 10.2445 8.87695 11.5734 10.3148 11.5734M8.83125 10.2234C8.83125 10.2234 8.66602 10.7227 8.42695 10.8914M8.00508 10.0512C8.00508 10.0512 8.29336 10.6137 8.00508 10.8879M7.25273 10.2094C7.25625 10.2199 7.34414 11.0039 7.14727 11.2254M6.87656 10.234C6.87656 10.234 6.9082 10.7332 6.76055 10.909C6.61289 11.0848 6.7957 11.4539 6.7957 11.4539M4.99922 11.693C4.99922 11.693 5.10469 11.8793 5.25234 11.816M5.17852 11.2887C5.17852 11.2887 5.41406 11.3941 5.49492 11.3519M5.43516 10.4519C5.43516 10.4519 5.08359 10.5504 5.21719 10.9617C5.41758 11.1269 5.61797 11.1023 5.61797 11.1023M4.74609 12.2098C4.73906 12.2098 4.78125 12.5332 5.00977 12.2871C5.16797 11.9566 5.66719 11.0285 5.77969 10.7051M6.01172 10.5539C6.01172 10.5539 5.76914 10.3676 5.77969 10.6277C5.77266 10.7894 5.85 10.8316 5.85 10.8316C5.86406 10.9477 5.96602 11.1129 6.05039 10.9617C6.08555 10.8176 6.02578 10.7508 6.02578 10.7508M6.16641 10.4871C5.94492 10.4695 5.82891 10.9477 6.24727 10.6488M6.38789 10.3219C6.38789 10.3219 6.33516 10.3957 6.25078 10.3184C6.20859 10.241 6.05039 10.6699 6.32461 10.6875C6.37383 10.5609 6.52852 10.5258 6.52852 10.5258M6.65508 10.118C6.65508 10.118 6.53203 10.1742 6.48984 10.1672C6.34219 10.2023 6.37031 10.5434 6.56016 10.5258C6.61992 10.4519 6.69023 10.35 6.69023 10.35M5.49492 9.66445C5.48789 9.66445 5.00273 10.4273 5.76562 10.6277M11.6367 8.51836C11.6367 8.51836 11.3414 8.77148 11.6156 9.17578C10.7016 9.16172 10.2094 9.58359 10.1672 9.86836C9 9.7875 9.21094 10.132 8.83125 10.2445C8.325 9.82265 7.57969 10.0582 7.62891 10.4801C7.29141 10.002 6.76758 10.234 6.7043 10.3535C6.64102 10.4695 6.66563 9.7664 6.66563 9.7664C6.66563 9.7664 6.32461 9.91758 6.08906 10.1988V9.6082C5.80781 9.66445 5.53008 9.66797 5.23828 9.66445M4.46836 9.44648C4.46836 9.44648 4.89023 9.68203 5.41758 9.36211M4.4332 8.59218C4.4332 8.59218 4.76367 8.89101 5.38242 8.79609M4.64062 7.91015C4.64062 7.91015 4.71445 8.15273 5.42461 8.16679M4.87969 7.35117C4.87969 7.35117 5.14687 7.67812 5.50898 7.63242M5.1082 6.88359C5.1082 6.88359 5.21367 7.06289 5.60742 7.09453M5.34023 6.36679C5.34023 6.36679 5.54766 6.59531 5.7832 6.55664M6.5707 4.52812C6.5707 4.52812 6.66211 4.43672 6.8168 4.48242M6.50391 5.00976C6.50391 5.00976 6.22266 4.99922 6.24023 4.88672C6.26133 4.76015 6.53906 4.66875 6.53906 4.66875C6.53906 4.66875 6.91172 4.42968 6.96797 4.34882M5.2875 5.64961L5.64961 6.34218L5.82539 6.08203L5.91328 6.26133L6.06094 6.00117L6.31758 6.1664L6.21914 5.85L6.43359 5.83593C6.43359 5.83593 6.37734 5.68125 6.18398 5.64961C6.25882 5.5961 6.33502 5.54452 6.4125 5.49492C6.4125 5.49492 6.31055 5.37539 6.15234 5.37187C6.20508 5.31562 6.27539 5.17851 6.27187 5.17851L6.11367 5.14336C6.11367 5.14336 6.47578 5.25937 6.75352 5.09765M6.06094 4.53515C6.06797 4.54218 6.04336 4.67929 5.96602 4.76015M4.66523 4.91836C4.66523 4.91836 4.89023 4.85859 5.05898 4.89023C5.22422 4.92539 5.4457 4.98515 5.4457 4.98515C5.4457 4.98515 5.71289 4.95 5.79727 4.88672M4.11328 5.06601C4.11328 5.06601 4.08164 5.17148 4.07109 5.24179C4.07109 5.29453 3.90937 5.36132 3.90937 5.36132M4.21875 4.85156C4.21875 4.85156 4.35937 5.02734 4.36641 5.13281C4.36992 5.23476 4.26094 5.30859 4.26094 5.30859M2.74922 6.06797L2.60156 5.8289L2.73164 5.7832M5.41406 9.36914C5.29453 9.21445 5.50195 6.87304 5.94141 6.25781C5.78672 7.36172 6.29297 8.49023 6.42305 8.48672M4.08164 5.6039C4.08164 5.6039 4.27852 5.68125 4.69336 5.35429M5.25586 6.14531L5.55117 6.14882M14.4598 4.30664C14.4598 4.30664 9.51328 6.61992 9.44297 6.73945C10.2762 6.48984 13.8164 5.8957 13.9043 5.94843C13.6934 6.00117 9.39727 6.98554 9.19688 7.22461C10.2691 7.18945 12.5156 7.56914 12.8672 7.93476C12.1043 7.7625 9.82266 7.425 9.12656 7.57617C9.63633 7.69922 11.5945 8.96484 11.5945 9.16875C11.2992 8.8875 8.94375 7.91367 8.85234 8.00859C9.39023 8.33203 10.1531 9.53437 10.1531 9.82968C9.99492 9.57656 8.63437 8.11406 8.55703 8.2125C8.69766 8.40937 8.98594 10.1355 8.83828 10.2164C8.83828 10.0055 8.31094 8.49726 8.26875 8.45507C8.16328 8.4832 7.48828 10.2973 7.62188 10.466C7.53398 9.86133 7.63594 8.59922 7.79766 8.64843C7.50586 8.69062 6.56367 9.93164 6.66563 10.125C6.69375 9.81914 6.73594 9.61172 7.2668 8.58515C6.67617 8.62031 5.45273 9.39023 5.24531 9.66445C5.41055 9.17226 6.44766 8.34609 6.89766 8.28984M9.03516 6.48632C9.55898 6.19804 11.1727 5.60742 12.252 5.17148M8.01562 8.04726C8.01562 8.04726 8.36719 8.04375 8.72578 7.07695C9.07734 5.75156 11.8617 4.27851 11.918 4.00078M3.30469 9.37968C3.30469 9.37968 3.22031 9.55547 3.11836 9.60468M3.70195 9.64687C3.70195 9.64687 3.58945 9.85781 3.56484 9.96328M4.08164 9.75234C4.08164 9.75234 4.17656 10.0441 4.09922 10.1812M3.02344 8.98945C2.74219 9.14765 3.18164 10.1461 4.51055 10.241M4.29961 9.70312C4.29961 9.70312 4.26094 9.8789 4.51055 10.2375C4.44023 10.6348 4.81289 10.9441 4.96055 10.9969M4.18711 6.12422L4.2293 6.01875L4.275 6.13476H4.34531L4.39453 6.01523L4.43672 6.13476H4.50703L4.55273 6.00117L4.62305 6.12773H4.6793L4.725 5.97656L4.81641 6.08554L4.85156 6.07148L4.87969 5.92031L4.97109 6.02578L4.99922 6.01172L5.04141 5.86406L5.11875 5.97304L5.15391 5.9625L5.18906 5.83593L5.26289 5.95195M4.10625 6.13828L4.66172 6.12773C4.8375 6.12773 5.1293 5.88164 5.45625 5.95898M2.93555 7.32656C2.93555 7.32656 3.02695 7.52343 3.15703 7.41093M2.72461 7.45664C2.72461 7.45664 2.54531 7.93828 2.75977 8.04726M2.46797 6.92929C2.46797 6.92929 2.46797 7.04179 2.70352 6.86601M1.74023 9.44297C1.74023 9.44297 1.93008 9.49922 1.89844 9.64336M1.81055 7.24218C1.81055 7.24218 1.93008 7.30195 2.04258 7.12617M3.05508 12.7512C3.23789 12.7406 3.27656 12.8215 3.4418 12.8215C3.63516 12.8285 3.82148 12.7512 4.06758 12.6844M5.63906 13.1273C5.63555 13.1273 5.55117 13.3031 5.625 13.3875M3.02695 13.1414C3.02695 13.1414 3.31875 12.9059 3.46992 13.0535C3.61758 13.1027 3.69844 13.0922 3.69844 13.0922M3.18164 12.4594C3.18164 12.4594 3.25195 12.6457 3.01289 12.6211M2.94258 12.8848C2.94258 12.8848 3.09375 12.9797 2.92148 13.1062M3.03398 13.282C3.03398 13.282 3.24492 13.3102 3.12188 13.4789M9.57305 12.2941C9.78398 12.4664 9.69609 12.5684 10.3605 12.1184M9.2707 12.5051C9.2707 12.5051 9.58359 12.8426 9.80859 12.4348M8.67305 12.6281L8.25117 12.8496M7.48828 13.1625C7.48828 13.1625 7.74492 12.941 7.86445 13.057C7.9875 13.1766 8.49727 12.9586 8.49727 12.9586M7.68164 12.1992C7.68164 12.1992 7.76953 12.375 7.59727 12.3961M7.34414 12.7477C7.34414 12.7477 7.43555 12.9129 7.25977 12.9586M7.54102 13.1977C7.54102 13.1977 7.81172 13.2117 7.7168 13.4121M10.0406 13.1625C10.0406 13.1625 9.89297 13.2855 10.0055 13.4262M12.1676 12.273C12.1676 12.273 12.3363 12.3539 12.1324 12.4945M11.9672 12.7863C11.9672 12.7863 12.0938 12.9199 12.0094 13.0324M12.3223 13.2996C12.3223 13.2996 12.498 13.3488 12.477 13.493M14.7832 13.1695C14.7832 13.1695 14.6355 13.275 14.7129 13.4156M12.1781 8.89453C12.5297 8.85234 13.0324 9.63281 13.2891 9.7875M14.8289 7.78711C14.8289 7.78711 15.0047 7.94179 14.85 8.31797M15.1594 7.18945C15.2086 7.22812 15.402 7.33007 15.5285 7.56562M15.648 6.01875L15.402 6.68672M15.9258 5.98359C15.9258 5.98359 15.8766 6.58125 15.8063 6.70078M9.77344 12.0129C9.77344 12.0129 10.3395 12.0727 10.3676 12.1148C10.4309 12.0445 10.9371 11.6367 10.3148 11.5769C10.2859 11.6995 10.217 11.8089 10.1189 11.8878C10.0209 11.9668 9.89931 12.0108 9.77344 12.0129ZM14.8219 7.78008C14.741 8.01914 14.0238 8.13867 13.9781 7.78711C13.9535 7.61132 14.4 7.33008 14.8219 7.78008Z" stroke="black" stroke-width="0.075" stroke-linejoin="round"/>
<path d="M4.91504 4.88672L5.19277 4.93594C5.19277 4.93594 4.99941 5.19609 4.91504 4.88672Z" fill="black" stroke="black" stroke-width="0.075" stroke-linejoin="round"/>
</g>
<defs>
<clipPath id="clip0_14_1300">
<rect width="18" height="18" rx="9" fill="white"/>
</clipPath>
</defs>
</svg>
