<svg width="18" height="18" viewBox="0 0 18 18" fill="none" xmlns="http://www.w3.org/2000/svg">
<g clip-path="url(#clip0_8201_10544)">
<path d="M9 18C13.9706 18 18 13.9706 18 9C18 4.02944 13.9706 0 9 0C4.02944 0 0 4.02944 0 9C0 13.9706 4.02944 18 9 18Z" fill="#F0F0F0"/>
<path d="M17.9238 7.8261H10.174H10.1739V0.0761836C9.78964 0.0261563 9.39786 0 9 0C8.60214 0 8.21035 0.0261563 7.8261 0.0761836V7.8261H0.0761836C0.0261563 8.21035 0 8.60214 0 9C0 9.39786 0.0261563 9.78964 0.0761836 10.1739H7.82603H7.82606V17.9238C8.21036 17.9738 8.60214 18 9 18C9.39786 18 9.78964 17.9739 10.1739 17.9238V10.174V10.1739H17.9238C17.9738 9.78964 18 9.39786 18 9C18 8.60214 17.9738 8.21035 17.9238 7.8261Z" fill="#D80027"/>
<path d="M11.5435 9.39134L12.1305 9.78266V8.21743L11.5435 8.60876H9.39134V6.45656L9.78266 5.86963H8.21743L8.60876 6.45656V8.60876H6.45656L5.86963 8.21743V9.78266L6.45656 9.39134H8.60876V11.5435L8.21743 12.1305H9.78266L9.39134 11.5435V9.39134H11.5435Z" fill="#FFDA44"/>
</g>
<defs>
<clipPath id="clip0_8201_10544">
<rect width="18" height="18" fill="white"/>
</clipPath>
</defs>
</svg>
