<svg width="18" height="18" viewBox="0 0 18 18" fill="none" xmlns="http://www.w3.org/2000/svg">
<g clip-path="url(#clip0_14_1198)">
<path d="M0 0H18V18H0V0Z" fill="#DA000C"/>
<path d="M0 0H18V12.0586H0V0Z" fill="white"/>
<path d="M4.82349 8.17735H9.32349V11.2711H4.82349V8.17735Z" fill="black"/>
<path d="M7.15786 10.8211H4.41567L3.80396 11.2219V11.6438H7.15786M6.01177 9.0422C6.40552 9.0422 6.72895 9.37267 6.72895 9.78048V10.8141H7.24224V6.87657H4.40864V10.8141H5.29458V9.78048C5.29458 9.38673 5.61099 9.0422 6.01177 9.0422Z" fill="#DA000C"/>
<path d="M7.15786 10.8211H4.41567L3.80396 11.2219V11.6438H7.15786M6.01177 9.0422C6.40552 9.0422 6.72895 9.37267 6.72895 9.78048V10.8141H7.24224V6.87657H4.40864V10.8141H5.29458V9.78048C5.29458 9.38673 5.61099 9.0422 6.01177 9.0422Z" stroke="black" stroke-width="0.125" stroke-linecap="square"/>
<path d="M5.37891 4.21875H6.68672V6.60938H5.37891V4.21875Z" fill="black"/>
<path d="M6.67969 6.23672H5.54063V5.82891H4.70391V6.23672H4.14141V5.82891H3.79688V6.56016H6.67969M4.13438 6.56016H6.59531V6.87657H4.13438V6.56016ZM5.11875 3.34688V5.83594H5.54063V5.15391C5.54063 4.90079 5.71641 4.68985 5.96953 4.67579H5.99766C6.06044 4.67579 6.12262 4.68815 6.18063 4.71218C6.23864 4.73621 6.29134 4.77143 6.33574 4.81583C6.38014 4.86023 6.41536 4.91293 6.43939 4.97094C6.46341 5.02895 6.47578 5.09112 6.47578 5.15391V5.83594H6.87656V3.34688H5.11875ZM4.95703 3.00938V3.34688H7.01719V3.00938H4.95703ZM4.69688 2.36954V3.00938H7.15781V2.36954H6.78516V2.70001H6.32109V2.36954H5.61797V2.70001H5.16094V2.36954H4.69688ZM3.79688 11.2219H7.17188ZM9.35156 11.025H7.07344L6.38438 11.3555V11.8477H9.35156" fill="#DA000C"/>
<path d="M6.67969 6.23672H5.54063V5.82891H4.70391V6.23672H4.14141V5.82891H3.79688V6.56016H6.67969M3.79688 11.2219H7.17188M9.35156 11.025H7.07344L6.38438 11.3555V11.8477H9.35156M4.13438 6.56016H6.59531V6.87657H4.13438V6.56016ZM5.11875 3.34688V5.83594H5.54063V5.15391C5.54063 4.90079 5.71641 4.68985 5.96953 4.67579H5.99766C6.06044 4.67579 6.12262 4.68815 6.18063 4.71218C6.23864 4.73621 6.29134 4.77143 6.33574 4.81583C6.38014 4.86023 6.41536 4.91293 6.43939 4.97094C6.46341 5.02895 6.47578 5.09112 6.47578 5.15391V5.83594H6.87656V3.34688H5.11875ZM4.95703 3.00938V3.34688H7.01719V3.00938H4.95703ZM4.69688 2.36954V3.00938H7.15781V2.36954H6.78516V2.70001H6.32109V2.36954H5.61797V2.70001H5.16094V2.36954H4.69688Z" stroke="black" stroke-width="0.125" stroke-linecap="square"/>
<path d="M6.38428 11.3555H9.42178Z" fill="#DA000C"/>
<path d="M6.38428 11.3555H9.42178" stroke="black" stroke-width="0.125"/>
<path d="M13.1765 8.17735H8.67651V11.2711H13.1765V8.17735Z" fill="black"/>
<path d="M10.8421 10.8211H13.5843L14.196 11.2219V11.6438H10.8421M11.9882 9.0422C11.5945 9.0422 11.271 9.37267 11.271 9.78048V10.8141H10.7578V6.87657H13.5914V10.8141H12.7054V9.78048C12.7054 9.38673 12.389 9.0422 11.9882 9.0422Z" fill="#DA000C"/>
<path d="M10.8421 10.8211H13.5843L14.196 11.2219V11.6438H10.8421M11.9882 9.0422C11.5945 9.0422 11.271 9.37267 11.271 9.78048V10.8141H10.7578V6.87657H13.5914V10.8141H12.7054V9.78048C12.7054 9.38673 12.389 9.0422 11.9882 9.0422Z" stroke="black" stroke-width="0.125" stroke-linecap="square"/>
<path d="M12.6211 4.21875H11.3133V6.60938H12.6211V4.21875Z" fill="black"/>
<path d="M11.3203 6.23672H12.4594V5.82891H13.2961V6.23672H13.8586V5.82891H14.2031V6.56016H11.3203M13.8656 6.56016H11.4047V6.87657H13.8656V6.56016ZM12.8812 3.34688V5.83594H12.4594V5.15391C12.4594 4.90079 12.2836 4.68985 12.0305 4.67579H12.0023C11.9396 4.67579 11.8774 4.68815 11.8194 4.71218C11.7614 4.73621 11.7087 4.77143 11.6643 4.81583C11.6199 4.86023 11.5846 4.91293 11.5606 4.97094C11.5366 5.02895 11.5242 5.09112 11.5242 5.15391V5.83594H11.1234V3.34688H12.8812ZM13.043 3.00938V3.34688H10.9828V3.00938H13.043ZM13.3031 2.36954V3.00938H10.8422V2.36954H11.2148V2.70001H11.6789V2.36954H12.382V2.70001H12.8391V2.36954H13.3031ZM14.2031 11.2219H10.8281ZM8.64844 11.025H10.9266L11.6156 11.3555V11.8477H8.64844" fill="#DA000C"/>
<path d="M11.3203 6.23672H12.4594V5.82891H13.2961V6.23672H13.8586V5.82891H14.2031V6.56016H11.3203M14.2031 11.2219H10.8281M8.64844 11.025H10.9266L11.6156 11.3555V11.8477H8.64844M13.8656 6.56016H11.4047V6.87657H13.8656V6.56016ZM12.8812 3.34688V5.83594H12.4594V5.15391C12.4594 4.90079 12.2836 4.68985 12.0305 4.67579H12.0023C11.9396 4.67579 11.8774 4.68815 11.8194 4.71218C11.7614 4.73621 11.7087 4.77143 11.6643 4.81583C11.6199 4.86023 11.5846 4.91293 11.5606 4.97094C11.5366 5.02895 11.5242 5.09112 11.5242 5.15391V5.83594H11.1234V3.34688H12.8812ZM13.043 3.00938V3.34688H10.9828V3.00938H13.043ZM13.3031 2.36954V3.00938H10.8422V2.36954H11.2148V2.70001H11.6789V2.36954H12.382V2.70001H12.8391V2.36954H13.3031Z" stroke="black" stroke-width="0.125" stroke-linecap="square"/>
<path d="M11.6157 11.3555H8.57822Z" fill="#DA000C"/>
<path d="M11.6157 11.3555H8.57822" stroke="black" stroke-width="0.125"/>
<path d="M10.2162 10.5469C10.0264 10.6172 9.86465 10.7156 9.68887 10.8141C9.47013 10.939 9.26096 11.08 9.06309 11.2359C8.99278 11.2852 8.92246 11.3344 8.87325 11.4047C8.80293 11.4609 8.73262 11.5453 8.74668 11.6508C8.74668 11.693 8.80293 11.5945 8.84512 11.5875C8.91189 11.5518 8.98944 11.5418 9.06309 11.5594C9.1545 11.4609 9.27403 11.3977 9.37246 11.3203C9.65906 11.1129 9.96519 10.9339 10.2865 10.7859L10.2162 10.5469Z" fill="#F8D80E" stroke="black" stroke-width="0.1" stroke-linecap="round"/>
<path d="M9.30933 11.0672V11.3414ZM9.47808 10.9477V11.2219ZM9.64683 10.8422V11.1094ZM9.82261 10.7367V11.018Z" fill="#F8D80E"/>
<path d="M9.30933 11.0672V11.3414M9.47808 10.9477V11.2219M9.64683 10.8422V11.1094M9.82261 10.7367V11.018" stroke="black" stroke-width="0.125" stroke-linecap="round"/>
<path d="M7.79751 10.5609L7.71313 10.793C8.1017 10.942 8.47396 11.1305 8.82407 11.3555C8.9436 11.4399 9.07017 11.5172 9.16157 11.6297C9.18267 11.6859 9.12642 11.7352 9.07017 11.7141C9.02095 11.7 8.9647 11.6789 8.91548 11.7141C8.83814 11.7492 8.76782 11.8688 8.88032 11.9039C9.04907 12.0164 9.30923 11.9672 9.38657 11.7774C9.42876 11.6789 9.43579 11.5524 9.35142 11.468C9.21079 11.3063 9.01392 11.1867 8.8311 11.0672C8.50282 10.8671 8.15683 10.6977 7.79751 10.5609Z" fill="#F8D80E" stroke="black" stroke-width="0.1" stroke-linecap="round"/>
<path d="M8.85923 11.1094L8.83813 11.3484ZM9.0561 11.2289L8.99985 11.4609ZM9.26704 11.3906L9.14048 11.5734ZM9.33032 11.8266L9.14751 11.7281ZM9.38657 11.6297L9.17563 11.6508ZM9.11939 11.932L9.10532 11.7492ZM9.03501 11.7281L8.86626 11.8547ZM8.20532 10.7508V10.9687ZM8.64829 10.9898V11.2359ZM8.42329 10.8703V11.1023Z" fill="#F8D80E"/>
<path d="M8.85923 11.1094L8.83813 11.3484M9.0561 11.2289L8.99985 11.4609M9.26704 11.3906L9.14048 11.5734M9.33032 11.8266L9.14751 11.7281M9.38657 11.6297L9.17563 11.6508M9.11939 11.932L9.10532 11.7492M9.03501 11.7281L8.86626 11.8547M8.20532 10.7508V10.9687M8.64829 10.9898V11.2359M8.42329 10.8703V11.1023" stroke="black" stroke-width="0.125" stroke-linecap="round"/>
<path d="M7.57959 16.0031V16.5656H7.93115V16.2844H8.41631V16.5656H8.796V16.0031H7.57959ZM7.57959 16.7766V17.3391H8.78896V16.7766H8.40928V17.0578H7.92412V16.7766H7.57959Z" fill="#F8D80E" stroke="black" stroke-width="0.125"/>
<path d="M8.78906 13.6195H9.14062V17.6977H8.78906V13.6195Z" fill="#F8D80E" stroke="black" stroke-width="0.125"/>
<path d="M8.78887 13.9711H9.14043V17.4867H8.78887V13.9711ZM8.97168 12.6141L9.71699 13.05L8.97168 13.4859L8.21934 13.05L8.97168 12.6141ZM7.96621 12.8953H7.77637V13.2047H7.96621L8.97168 13.7883L9.97012 13.2047H10.167V12.8953H9.97012L8.97168 12.3117L7.96621 12.8953Z" fill="#F8D80E" stroke="black" stroke-width="0.125"/>
<path d="M8.95072 11.5523C8.86889 11.569 8.79566 11.6142 8.74412 11.6799C8.69259 11.7456 8.66613 11.8275 8.66947 11.9109V12.6984C8.67593 12.7821 8.71208 12.8606 8.7714 12.9199C8.83071 12.9793 8.90928 13.0154 8.99291 13.0219C9.06248 13.0271 9.132 13.0111 9.19227 12.9759C9.25253 12.9407 9.3007 12.8881 9.33041 12.825L9.21088 12.7547C9.19429 12.7959 9.16472 12.8305 9.12664 12.8534C9.08857 12.8762 9.04408 12.886 8.99994 12.8812C8.88744 12.8812 8.79603 12.7687 8.8101 12.6633V11.8758C8.81542 11.8242 8.8402 11.7766 8.87938 11.7426C8.91857 11.7087 8.96922 11.6909 9.02103 11.693C9.06322 11.6789 9.1265 11.7422 9.15463 11.693C9.19682 11.6297 9.1265 11.5875 9.08432 11.5523H8.95072ZM9.35853 11.8266C9.32418 11.8747 9.27823 11.9134 9.22494 11.9391V12.4664L9.36557 12.5437V11.8266H9.35853Z" fill="#F8D80E" stroke="black" stroke-width="0.125"/>
<path d="M7.93115 2.7H9.99131V6.44062H7.93115V2.7Z" fill="black"/>
<path d="M7.79053 2.7V5.82891H8.44443V4.90078C8.44443 4.68985 8.58506 4.3875 8.9999 4.3875C9.41475 4.3875 9.5624 4.68985 9.5624 4.90078V5.83594H10.2093V2.7H7.79053ZM8.90147 3.05157H9.09834V4.12032H8.90147V3.05157ZM8.31787 3.2625H8.52881V4.04297H8.31787V3.2625ZM9.47803 3.2625H9.68193V4.04297H9.471L9.47803 3.2625ZM7.56553 2.25V2.69297H10.4343V2.25H7.56553ZM7.29834 1.72969V2.25H10.7085V1.72969H10.2796V2.01094H9.7874V1.72969H9.23896V2.01094H8.76084V1.72969H8.20537V2.01094H7.73428V1.72969H7.29834ZM6.66553 6.87657V7.2H11.3413V6.87657H6.66553Z" fill="#DA000C" stroke="black" stroke-width="0.125"/>
<path d="M6.46875 5.8289V6.88359H11.5312V5.8289H11.0531V6.23672H10.4062V5.8289H9.54844V6.23672H8.4375V5.8289H7.57969V6.23672H6.94688V5.8289H6.46875Z" fill="#DA000C" stroke="black" stroke-width="0.125"/>
<path d="M7.08057 7.2V11.025H7.98057V9.59062C7.98057 8.92265 8.43057 8.60625 9.0001 8.60625C9.54854 8.60625 10.0196 8.92265 10.0196 9.59062V11.025H10.9196V7.2H7.08057Z" fill="#DA000C" stroke="black" stroke-width="0.125" stroke-linejoin="round"/>
</g>
<defs>
<clipPath id="clip0_14_1198">
<rect width="18" height="18" rx="9" fill="white"/>
</clipPath>
</defs>
</svg>
