<svg width="18" height="18" viewBox="0 0 18 18" fill="none" xmlns="http://www.w3.org/2000/svg">
<g clip-path="url(#clip0_8201_10484)">
<path d="M9 18C13.9706 18 18 13.9706 18 9C18 4.02944 13.9706 0 9 0C4.02944 0 0 4.02944 0 9C0 13.9706 4.02944 18 9 18Z" fill="#F9F9F9"/>
<path d="M8.99981 18C12.8695 18 16.1684 15.5576 17.44 12.1304H0.55957C1.83124 15.5576 5.13009 18 8.99981 18Z" fill="#D80027"/>
<path d="M12.5214 7.43472V6.26082H12.9127V5.47821H12.1301V5.86953H11.3475V5.47821H10.5649V6.26082H10.9562V7.43472H10.1736V4.69566H10.5649V3.91309H9.78228V4.3043H9.39096V3.91309H8.60838V4.3043H8.21705V3.91309H7.43444V4.69566H7.82577V7.43472H7.04315V6.26082H7.43444V5.47821H6.65183V5.86953H5.86925V5.47821H5.08664V6.26082H5.47793V7.43472H4.69531V10.5652H13.304V7.43472H12.5214Z" fill="#D80027"/>
<path d="M8.99976 10.174C8.35145 10.174 7.82586 10.6995 7.82586 11.3479C7.82586 11.8589 8.1526 12.2936 8.60847 12.4547V14.087H7.43457V15.6522H9.39109V12.4547C9.84696 12.2936 10.1737 11.859 10.1737 11.3479C10.1737 10.6996 9.64808 10.174 8.99976 10.174ZM8.99976 11.7392C8.78366 11.7392 8.60847 11.564 8.60847 11.3479C8.60847 11.1318 8.78366 10.9566 8.99976 10.9566C9.21587 10.9566 9.39105 11.1318 9.39105 11.3479C9.39105 11.564 9.21587 11.7392 8.99976 11.7392Z" fill="#FFDA44"/>
</g>
<defs>
<clipPath id="clip0_8201_10484">
<rect width="18" height="18" fill="white"/>
</clipPath>
</defs>
</svg>
