<svg width="18" height="18" viewBox="0 0 18 18" fill="none" xmlns="http://www.w3.org/2000/svg">
<g clip-path="url(#clip0_8201_10498)">
<path d="M0 9C0 4.02947 4.02947 0 9 0C13.9705 0 18 4.02947 18 9C17.6087 9 9 10.1739 9 10.1739L0 9Z" fill="#F0F0F0"/>
<path d="M18 9C18 13.9705 13.9705 18 9 18C4.02947 18 0 13.9705 0 9" fill="#D80027"/>
<path d="M6.2609 13.3044C8.63813 13.3044 10.5653 11.3773 10.5653 9.00003C10.5653 6.6228 8.63813 4.69568 6.2609 4.69568C3.88367 4.69568 1.95654 6.6228 1.95654 9.00003C1.95654 11.3773 3.88367 13.3044 6.2609 13.3044Z" fill="#F0F0F0"/>
<path d="M1.95654 9.00003C1.95654 6.62287 3.88367 4.69568 6.2609 4.69568C8.63816 4.69568 10.5653 6.62284 10.5653 9.00003" fill="#D80027"/>
</g>
<defs>
<clipPath id="clip0_8201_10498">
<rect width="18" height="18" fill="white"/>
</clipPath>
</defs>
</svg>
