<svg width="18" height="18" viewBox="0 0 18 18" fill="none" xmlns="http://www.w3.org/2000/svg">
<g clip-path="url(#clip0_8201_10555)">
<path d="M12.1307 0.559828C11.1557 0.198035 10.1011 0 9.00019 0C7.89934 0 6.84479 0.198035 5.86984 0.559758L5.47852 9L5.8698 17.4402C6.84479 17.802 7.89934 18 9.00019 18C10.1011 18 11.1557 17.802 12.1307 17.4402L12.522 9L12.1307 0.559828Z" fill="#FFDA44"/>
<path d="M0 9.00006C0 12.8697 2.44237 16.1686 5.86958 17.4402V0.559814C2.44237 1.83149 0 5.13034 0 9.00006Z" fill="#D80027"/>
<path d="M18 9.00006C18 5.13034 15.5576 1.83149 12.1304 0.559814V17.4403C15.5576 16.1686 18 12.8697 18 9.00006Z" fill="#6DA544"/>
</g>
<defs>
<clipPath id="clip0_8201_10555">
<rect width="18" height="18" fill="white"/>
</clipPath>
</defs>
</svg>
