<svg width="18" height="18" viewBox="0 0 18 18" fill="none" xmlns="http://www.w3.org/2000/svg">
<g clip-path="url(#clip0_8201_10368)">
<path d="M9 18C13.9706 18 18 13.9706 18 9C18 4.02944 13.9706 0 9 0C4.02944 0 0 4.02944 0 9C0 13.9706 4.02944 18 9 18Z" fill="#F0F0F0"/>
<path d="M5.47816 5.86958H17.4401C16.1685 2.44237 12.8695 0 8.9999 0C6.51456 0 4.26481 1.00754 2.63623 2.63633L5.47816 5.86958Z" fill="#6DA544"/>
<path d="M5.47816 12.1304H17.4401C16.1685 15.5576 12.8695 18 8.9999 18C6.51456 18 4.26481 16.9924 2.63623 15.3636L5.47816 12.1304Z" fill="#D80027"/>
<path d="M2.63603 2.63599C-0.878678 6.1507 -0.878678 11.8492 2.63603 15.364C4.08844 13.9115 5.48531 12.5147 9.00002 8.99997L2.63603 2.63599Z" fill="#0052B4"/>
<path d="M10.5652 7.43481V9.39133C10.5652 10.5895 12.1304 10.9566 12.1304 10.9566C12.1304 10.9566 13.6956 10.5895 13.6956 9.39133V7.43481H10.5652Z" fill="#DEDDE0"/>
<path d="M11.739 9.03918H12.5216V10.174H11.739V9.03918Z" fill="#786145"/>
<path d="M12.9131 8.60866C12.9131 8.17642 12.5627 7.82605 12.1304 7.82605C11.6982 7.82605 11.3478 8.17642 11.3478 8.60866C11.1317 8.60866 10.9565 8.78385 10.9565 8.99995C10.9565 9.21606 11.1317 9.39124 11.3478 9.39124H12.9131C13.1292 9.39124 13.3043 9.21606 13.3043 8.99995C13.3043 8.78385 13.1292 8.60866 12.9131 8.60866Z" fill="#6DA544"/>
</g>
<defs>
<clipPath id="clip0_8201_10368">
<rect width="18" height="18" fill="white"/>
</clipPath>
</defs>
</svg>
