<svg width="18" height="18" viewBox="0 0 18 18" fill="none" xmlns="http://www.w3.org/2000/svg">
<g clip-path="url(#clip0_14_1193)">
<path fill-rule="evenodd" clip-rule="evenodd" d="M0 0H18V2.00391H0V0Z" fill="#0D5EAF"/>
<path fill-rule="evenodd" clip-rule="evenodd" d="M0 2.00391H18V4.00781H0V2.00391Z" fill="white"/>
<path fill-rule="evenodd" clip-rule="evenodd" d="M0 4.00781H18V6.01172H0V4.00781Z" fill="#0D5EAF"/>
<path fill-rule="evenodd" clip-rule="evenodd" d="M0 6.01172H18V8.01562H0V6.01172Z" fill="white"/>
<path fill-rule="evenodd" clip-rule="evenodd" d="M0 8.01562H18V10.016H0V8.01562Z" fill="#0D5EAF"/>
<path fill-rule="evenodd" clip-rule="evenodd" d="M0 10.016H18V12.0199H0V10.016Z" fill="white"/>
<path fill-rule="evenodd" clip-rule="evenodd" d="M0 12.0199H18V14.0238H0V12.0199Z" fill="#0D5EAF"/>
<path fill-rule="evenodd" clip-rule="evenodd" d="M0 14.0238H18V16.0277H0V14.0238Z" fill="white"/>
<path d="M0 0H10.016V10.016H0V0Z" fill="#0D5EAF"/>
<path fill-rule="evenodd" clip-rule="evenodd" d="M4.00781 0H6.01172V10.016H4.00781V0Z" fill="white"/>
<path fill-rule="evenodd" clip-rule="evenodd" d="M0 4.00781H10.016V6.01172H0V4.00781Z" fill="white"/>
<path fill-rule="evenodd" clip-rule="evenodd" d="M0 15.9961H18V18H0V15.9961Z" fill="#0D5EAF"/>
</g>
<defs>
<clipPath id="clip0_14_1193">
<rect width="18" height="18" rx="9" fill="white"/>
</clipPath>
</defs>
</svg>
