<svg width="18" height="18" viewBox="0 0 18 18" fill="none" xmlns="http://www.w3.org/2000/svg">
<g clip-path="url(#clip0_8201_10537)">
<path d="M9 18C13.9706 18 18 13.9706 18 9C18 4.02944 13.9706 0 9 0C4.02944 0 0 4.02944 0 9C0 13.9706 4.02944 18 9 18Z" fill="#F0F0F0"/>
<path d="M18.0001 9.00003C18.0001 5.43188 15.9236 2.34882 12.9131 0.893066V17.107C15.9236 15.6512 18.0001 12.5681 18.0001 9.00003Z" fill="#338AF3"/>
<path d="M0 9.00003C0 12.5681 2.0765 15.6512 5.08697 17.107V0.893066C2.0765 2.34882 0 5.43188 0 9.00003Z" fill="#338AF3"/>
<path d="M11.3518 10.5218L9.82998 9.00004L11.2785 7.55143L11.2129 6.78636L10.7982 6.37158L8.99987 8.16989L7.20156 6.37158L6.78685 6.78636L6.72121 7.55143L8.16976 9.00004L6.64795 10.5218L7.47806 11.3519L8.99987 9.83011L10.5217 11.3519L11.3518 10.5218Z" fill="#ACABB1"/>
<path d="M11.2136 6.7865L10.3835 7.61657C10.7376 7.97063 10.9566 8.45976 10.9566 9.00004C10.9566 10.0806 10.0806 10.9566 9.00008 10.9566C7.91955 10.9566 7.04353 10.0806 7.04353 9.00004C7.04353 8.45976 7.26255 7.97063 7.61661 7.61657L6.78654 6.7865C6.22 7.35294 5.86963 8.13555 5.86963 9.00004C5.86963 10.729 7.27117 12.1305 9.00005 12.1305C10.7289 12.1305 12.1305 10.7289 12.1305 9.00004C12.1305 8.13558 11.7801 7.35297 11.2136 6.7865Z" fill="#6DA544"/>
</g>
<defs>
<clipPath id="clip0_8201_10537">
<rect width="18" height="18" fill="white"/>
</clipPath>
</defs>
</svg>
