<svg width="18" height="18" viewBox="0 0 18 18" fill="none" xmlns="http://www.w3.org/2000/svg">
<g clip-path="url(#clip0_8201_10526)">
<path d="M3.92725 16.4347C5.37161 17.4221 7.11817 17.9999 8.99984 17.9999C10.8815 17.9999 12.628 17.4221 14.0724 16.4347L8.99984 15.6521L3.92725 16.4347Z" fill="#D80027"/>
<path d="M14.0724 1.56523C12.628 0.577863 10.8815 0 8.99984 0C7.11817 0 5.37161 0.577863 3.92725 1.56523L8.99984 2.34784L14.0724 1.56523Z" fill="#D80027"/>
<path d="M18 8.99996C18 6.02187 16.217 3.03113 14.0726 1.56519H3.92741C1.55637 3.18603 0 5.91113 0 8.99996C0 12.0889 1.55637 14.8139 3.92741 16.4347H14.0726C16.4437 14.8139 18 12.0889 18 8.99996Z" fill="#0052B4"/>
<path d="M8.49046 14.6812C8.36748 14.5757 5.47803 12.0639 5.47803 9.00004C5.47803 5.93621 8.36745 3.42433 8.49046 3.31889L8.99977 2.88232L9.50908 3.31886C9.63205 3.42433 12.5215 5.93617 12.5215 9.00004C12.5215 12.0639 9.63209 14.5758 9.50908 14.6812L8.99977 15.1178L8.49046 14.6812Z" fill="#D80027"/>
<path d="M11.739 9.00005C11.739 6.26093 8.99987 3.91309 8.99987 3.91309C8.99987 3.91309 6.26074 6.261 6.26074 9.00005C6.26074 9.838 6.51728 10.6392 6.87313 11.3479H11.1266C11.4825 10.6392 11.739 9.838 11.739 9.00005Z" fill="#338AF3"/>
<path d="M11.739 9C11.739 9.83795 11.4825 10.6391 11.1266 11.3478L8.99987 11.7391L6.87313 11.3478C6.51728 10.6392 6.26074 9.83795 6.26074 9H11.739Z" fill="#0052B4"/>
<path d="M8.99979 14.087C8.99979 14.087 10.3191 12.9558 11.1265 11.3479H6.87305C7.68045 12.9558 8.99979 14.087 8.99979 14.087Z" fill="#FFDA44"/>
<path d="M7.23926 7.43481H10.761L9.00013 9.19569L7.23926 7.43481Z" fill="#6DA544"/>
<path d="M8.41309 8.60876H9.58699V12.1305H8.41309V8.60876Z" fill="#A2001D"/>
</g>
<defs>
<clipPath id="clip0_8201_10526">
<rect width="18" height="18" fill="white"/>
</clipPath>
</defs>
</svg>
