<svg width="18" height="18" viewBox="0 0 18 18" fill="none" xmlns="http://www.w3.org/2000/svg">
<g clip-path="url(#clip0_8201_10548)">
<path d="M9.00005 0C8.18773 0 7.40079 0.108281 6.65221 0.310043L5.86963 9L6.65224 17.69C7.40079 17.8917 8.18773 18 9.00005 18C13.9706 18 18 13.9705 18 9C18 4.02947 13.9706 0 9.00005 0Z" fill="#FFDA44"/>
<path d="M5.86963 9L6.65224 17.69C7.40079 17.8917 8.18773 18 9.00005 18C13.9706 18 18 13.9705 18 9H5.86963Z" fill="#6DA544"/>
<path d="M0 9.00005C0 12.4114 1.89809 15.3793 4.69564 16.9057V1.09436C1.89809 2.62077 0 5.58867 0 9.00005Z" fill="#D80027"/>
<path d="M0 9.00002C0 13.1583 2.82027 16.6572 6.65216 17.69V0.310059C2.82027 1.34281 0 4.84177 0 9.00002Z" fill="#D80027"/>
<path d="M3.40077 6.6521L3.98348 8.44563H5.86947L4.34376 9.55418L4.92644 11.3478L3.40077 10.2393L1.87502 11.3478L2.45784 9.55418L0.932129 8.44563H2.81802L3.40077 6.6521Z" fill="black"/>
</g>
<defs>
<clipPath id="clip0_8201_10548">
<rect width="18" height="18" fill="white"/>
</clipPath>
</defs>
</svg>
