<svg width="18" height="18" viewBox="0 0 18 18" fill="none" xmlns="http://www.w3.org/2000/svg">
<g clip-path="url(#clip0_14_1185)">
<path d="M0 0H18V18H0" fill="#EC1B2E"/>
<path d="M9.92454 4.19063C7.13665 4.00782 5.85696 7.66407 8.49368 9.01407C7.57961 8.22657 7.76946 7.06641 8.1386 6.46875L8.2054 6.50391C7.72024 7.3336 7.81165 8.36016 8.59211 9C8.14915 8.5711 8.26165 7.62891 9.02102 7.28438C9.7804 6.93985 9.85071 5.90274 9.59758 5.55821C9.25305 4.95821 9.36204 4.50117 9.92454 4.18711V4.19063ZM8.57454 6.32813L8.4093 6.58828L8.34602 6.28594L8.04368 6.20508L8.3179 6.05391L8.2968 5.7375L8.52532 5.95547L8.81711 5.83946L8.68704 6.12071L8.88391 6.36328L8.57454 6.32813Z" fill="white"/>
<path d="M13.7946 8.72896C13.107 6.02103 9.23424 5.93382 8.7651 8.85866C9.2316 7.74598 10.3936 7.56803 11.0761 7.73442L11.0633 7.80881C10.1243 7.60378 9.17625 8.00794 8.8089 8.94793C9.07993 8.39411 10.0108 8.20995 10.5731 8.82569C11.1354 9.44143 12.1435 9.18782 12.3929 8.84062C12.8571 8.32754 13.3255 8.28996 13.798 8.72788L13.7946 8.72896ZM11.3446 8.10556L11.0461 8.02881L11.3141 7.87519L11.2975 7.56266L11.5261 7.77674L11.8205 7.65891L11.6838 7.94359L11.8843 8.18526L11.5766 8.14846L11.4067 8.41066L11.3446 8.10556Z" fill="white"/>
<path d="M10.6741 13.8119C13.037 12.3211 11.9232 8.61098 8.99653 9.06863C10.1989 9.16846 10.7272 10.2186 10.7799 10.9191L10.7052 10.9299C10.61 9.97355 9.93267 9.19677 8.92516 9.13787C9.53564 9.22449 9.99843 10.0529 9.58659 10.7779C9.17475 11.503 9.72746 12.3834 10.1348 12.5133C10.7662 12.7962 10.9466 13.23 10.6762 13.8148L10.6741 13.8119ZM10.5099 11.2891L10.4906 10.9815L10.7195 11.1889L11.0117 11.0766L10.8787 11.3601L11.0817 11.6037L10.7687 11.5617L10.6009 11.8271L10.5408 11.5231L10.2389 11.4425L10.5099 11.2891Z" fill="white"/>
<path d="M4.87571 12.415C7.02371 14.2016 10.2081 11.9958 8.86845 9.3538C9.14506 10.5282 8.30955 11.3552 7.65961 11.6217L7.62624 11.554C8.50642 11.1679 9.03587 10.2837 8.78054 9.30731C8.88681 9.91468 8.24199 10.6108 7.42513 10.4432C6.60827 10.2756 5.94179 11.0733 5.94407 11.5008C5.87013 12.1887 5.51332 12.4944 4.87365 12.4178L4.87571 12.415ZM7.22428 11.4792L7.51087 11.3659L7.38435 11.6477L7.58143 11.8908L7.27072 11.8519L7.10181 12.1203L7.04505 11.8097L6.74079 11.732L7.01134 11.5809L6.99465 11.2689L7.22428 11.4792Z" fill="white"/>
<path d="M4.41243 6.46872C3.37706 9.06367 6.45892 11.4106 8.55763 9.32007C7.52622 9.94605 6.48151 9.40699 6.02717 8.87123L6.08125 8.81856C6.72041 9.53636 7.72497 9.76666 8.57468 9.22211C8.02988 9.51086 7.16857 9.11271 7.07556 8.28404C6.98255 7.45536 6.01793 7.06801 5.61204 7.20228C4.93494 7.34454 4.53396 7.09965 4.40909 6.46763L4.41243 6.46872ZM6.02814 8.41317L6.22451 8.65071L5.9174 8.61747L5.74707 8.88002L5.68804 8.57251L5.3806 8.4948L5.65852 8.34482L5.63835 8.03146L5.86564 8.24208L6.15718 8.1298L6.02814 8.41317Z" fill="white"/>
</g>
<defs>
<clipPath id="clip0_14_1185">
<rect width="18" height="18" rx="9" fill="white"/>
</clipPath>
</defs>
</svg>
