<svg width="18" height="18" viewBox="0 0 18 18" fill="none" xmlns="http://www.w3.org/2000/svg">
<g clip-path="url(#clip0_8201_10593)">
<path d="M9 18C13.9706 18 18 13.9706 18 9C18 4.02944 13.9706 0 9 0C4.02944 0 0 4.02944 0 9C0 13.9706 4.02944 18 9 18Z" fill="#D80027"/>
<path d="M9.92905 6.80866C9.72451 7.6594 9.3611 7.49716 9.18275 8.23909C8.13218 7.9865 7.48516 6.93005 7.73776 5.87941C7.99025 4.82883 9.0468 4.18182 10.0974 4.43441C9.74068 5.91825 10.112 6.04777 9.92905 6.80866Z" fill="#F0F0F0"/>
<path d="M7.20297 7.43903C7.94888 7.89641 7.68225 8.19197 8.33271 8.59089C7.76782 9.51202 6.56319 9.80083 5.64203 9.23597C4.7209 8.67112 4.43202 7.46642 4.99691 6.54529C6.2979 7.34305 6.53573 7.02992 7.20297 7.43903Z" fill="#F0F0F0"/>
<path d="M6.95984 10.2267C7.62538 9.65865 7.82398 10.0035 8.40438 9.50818C9.10592 10.33 9.00832 11.565 8.18651 12.2665C7.36463 12.9681 6.12966 12.8704 5.42822 12.0486C6.58887 11.0578 6.36454 10.7347 6.95984 10.2267Z" fill="#F0F0F0"/>
<path d="M9.53638 11.3191C9.20169 10.5106 9.59108 10.4282 9.29932 9.72318C10.2977 9.30999 11.4421 9.78439 11.8554 10.7828C12.2685 11.7812 11.7941 12.9256 10.7957 13.3388C10.2122 11.9287 9.8357 12.0422 9.53638 11.3191Z" fill="#F0F0F0"/>
<path d="M11.3711 9.20658C10.4987 9.27503 10.5406 8.87917 9.78001 8.93887C9.69553 7.86171 10.5004 6.91984 11.5776 6.83529C12.6548 6.75095 13.5966 7.55575 13.6811 8.63301C12.1596 8.75229 12.1512 9.14544 11.3711 9.20658Z" fill="#F0F0F0"/>
</g>
<defs>
<clipPath id="clip0_8201_10593">
<rect width="18" height="18" fill="white"/>
</clipPath>
</defs>
</svg>
