<svg width="18" height="18" viewBox="0 0 18 18" fill="none" xmlns="http://www.w3.org/2000/svg">
<g clip-path="url(#clip0_14_1182)">
<path d="M0 0H18V18H0V0Z" fill="#00008B"/>
<path d="M9 0V1.125L5.66016 4.5L9 7.78711V9H7.82227L4.46484 5.69531L1.19531 9H0V7.80469L3.26953 4.51758L0 1.30078V0H1.08984L4.46484 3.30469L7.73438 0H9Z" fill="white"/>
<path d="M3.23438 5.69531L3.42773 6.29297L0.738281 9H0V8.94727L3.23438 5.69531ZM5.41406 5.48438L6.36328 5.625L9 8.20898V9L5.41406 5.48438ZM9 0L5.625 3.44531L5.55469 2.67188L8.19141 0H9ZM0 0.0175781L3.39258 3.33984L2.35547 3.19922L0 0.861328V0.0175781Z" fill="#FF0000"/>
<path d="M3.09375 0V9H5.90625V0H3.09375ZM0 3.09375V5.90625H9V3.09375H0Z" fill="white"/>
<path d="M0 3.65625V5.34375H9V3.65625H0ZM3.65625 0V9H5.34375V0H3.65625Z" fill="#FF0000"/>
<path d="M7.10159 14.1609L5.49143 14.3508L5.65315 15.9645L4.50002 14.8254L3.33987 15.9574L3.51213 14.3438L1.90198 14.1398L3.26956 13.268L2.42581 11.8828L3.95862 12.4102L4.51409 10.8844L5.05901 12.4137L6.59534 11.8969L5.74104 13.275L7.1051 14.1574L7.10159 14.1609ZM14.9309 14.4422L14.2102 14.5336L14.2875 15.2543L13.7672 14.748L13.2504 15.2578L13.3207 14.5371L12.6 14.4527L13.2082 14.059L12.825 13.4437L13.5141 13.6723L13.7567 12.9867L14.0063 13.6687L14.6918 13.4332L14.3156 14.052L14.9309 14.4422ZM14.5899 10.3219L14.6848 9.86484L14.3403 9.54844L14.8043 9.4957L14.9977 9.07031L15.191 9.4957L15.6551 9.54844L15.3106 9.86484L15.4055 10.3219L14.9977 10.0898L14.5899 10.3219ZM11.6332 8.2125L10.9196 8.28984L10.9828 9.00352L10.4766 8.49375L9.95627 8.98945L10.0406 8.27578L9.33049 8.18086L9.9387 7.80117L9.56956 7.18594L10.2481 7.425L10.5012 6.75352L10.7367 7.43203L11.4188 7.21055L11.0356 7.81875L11.6332 8.2125ZM17.8137 7.05938L17.0789 7.1543L17.1598 7.88906L16.6289 7.37227L16.1016 7.89258L16.1754 7.1543L15.4406 7.06992L16.0629 6.66563L15.6727 6.03633L16.3758 6.27187L16.6219 5.57578L16.875 6.27187L17.5746 6.0293L17.1879 6.66211L17.8137 7.05938ZM14.9274 4.12383L14.1996 4.20469L14.2664 4.93594L13.7496 4.41562L13.2188 4.92188L13.3031 4.19414L12.5754 4.0957L13.1977 3.70898L12.8215 3.07969L13.5141 3.32227L13.7707 2.63672L14.0098 3.3293L14.7059 3.10078L14.3156 3.71953L14.9274 4.12383Z" fill="white"/>
</g>
<defs>
<clipPath id="clip0_14_1182">
<rect width="18" height="18" rx="9" fill="white"/>
</clipPath>
</defs>
</svg>
