<svg width="18" height="18" viewBox="0 0 18 18" fill="none" xmlns="http://www.w3.org/2000/svg">
<g clip-path="url(#clip0_8201_10583)">
<path d="M9 18C13.9706 18 18 13.9706 18 9C18 4.02944 13.9706 0 9 0C4.02944 0 0 4.02944 0 9C0 13.9706 4.02944 18 9 18Z" fill="#F0F0F0"/>
<path d="M9.00003 18.0001C12.5681 18.0001 15.6512 15.9236 17.107 12.9131H0.893066C2.34882 15.9236 5.43188 18.0001 9.00003 18.0001Z" fill="#338AF3"/>
<path d="M9.00003 0C5.43188 0 2.34882 2.0765 0.893066 5.08697H17.107C15.6512 2.0765 12.5681 0 9.00003 0Z" fill="#338AF3"/>
<path d="M5.53854 5.86963L5.82991 6.76643H6.77284L6.01002 7.32063L6.30143 8.21743L5.53854 7.6632L4.77564 8.21743L5.06705 7.32063L4.3042 6.76643H5.24712L5.53854 5.86963Z" fill="#338AF3"/>
<path d="M5.53854 9.78259L5.82991 10.6794H6.77284L6.01002 11.2336L6.30143 12.1304L5.53854 11.5762L4.77564 12.1304L5.06705 11.2336L4.3042 10.6794H5.24712L5.53854 9.78259Z" fill="#338AF3"/>
<path d="M12.4614 5.86963L12.7528 6.76643H13.6957L12.9329 7.32063L13.2243 8.21743L12.4614 7.6632L11.6985 8.21743L11.9899 7.32063L11.2271 6.76643H12.17L12.4614 5.86963Z" fill="#338AF3"/>
<path d="M12.4614 9.78259L12.7528 10.6794H13.6957L12.9329 11.2336L13.2243 12.1304L12.4614 11.5762L11.6985 12.1304L11.9899 11.2336L11.2271 10.6794H12.17L12.4614 9.78259Z" fill="#338AF3"/>
<path d="M8.99996 7.82605L9.29137 8.72289H10.2343L9.47144 9.27709L9.76285 10.1739L8.99996 9.61962L8.23707 10.1739L8.52848 9.27709L7.76562 8.72289H8.70855L8.99996 7.82605Z" fill="#338AF3"/>
</g>
<defs>
<clipPath id="clip0_8201_10583">
<rect width="18" height="18" fill="white"/>
</clipPath>
</defs>
</svg>
