<svg width="18" height="18" viewBox="0 0 18 18" fill="none" xmlns="http://www.w3.org/2000/svg">
<g clip-path="url(#clip0_8201_10232)">
<path d="M18 9.00001C18 7.89913 17.802 6.84455 17.4402 5.8696L9 5.47827L0.559793 5.86956C0.198035 6.84455 0 7.89913 0 9.00001C0 10.1009 0.198035 11.1555 0.559793 12.1304L9 12.5218L17.4402 12.1305C17.802 11.1555 18 10.1009 18 9.00001Z" fill="#F0F0F0"/>
<path d="M8.99978 18C12.8695 18 16.1683 15.5576 17.44 12.1304H0.55957C1.83121 15.5576 5.13009 18 8.99978 18Z" fill="#0052B4"/>
<path d="M0.55957 5.86958H17.44C16.1683 2.44237 12.8695 0 8.99978 0C5.13009 0 1.83121 2.44237 0.55957 5.86958Z" fill="#D80027"/>
<path d="M11.3479 6.26089H9.78271L10.0436 4.30434L11.087 3.52173L12.1305 4.30434V5.86957L11.3479 6.26089Z" fill="#338AF3"/>
<path d="M6.65221 6.26089H8.21743L7.95654 4.30434L6.91307 3.52173L5.86963 4.30434V5.86957L6.65221 6.26089Z" fill="#338AF3"/>
<path d="M10.0436 6.26089H7.95654V4.30434L9.00005 3.52173L10.0436 4.30434V6.26089Z" fill="#0052B4"/>
<path d="M5.86963 5.86963V10.1739C5.86963 11.1989 6.3647 12.1103 7.12829 12.6817L7.67613 12.5446L8.36745 13.2401C8.57188 13.2822 8.78341 13.3044 9.00008 13.3044C9.21559 13.3044 9.42607 13.2825 9.62941 13.2408L10.4186 12.5837L10.8718 12.6804C11.6351 12.1091 12.1305 11.1986 12.1305 10.1739V5.86963H5.86963Z" fill="#F0F0F0"/>
<path d="M5.86963 5.86963H7.12179V7.12179H5.86963V5.86963Z" fill="#D80027"/>
<path d="M8.37402 5.86963H9.62618V7.12179H8.37402V5.86963Z" fill="#D80027"/>
<path d="M10.8784 5.86963H12.1306V7.12179H10.8784V5.86963Z" fill="#D80027"/>
<path d="M7.12158 7.12183H8.37374V8.37399H7.12158V7.12183Z" fill="#D80027"/>
<path d="M9.62598 7.12183H10.8781V8.37399H9.62598V7.12183Z" fill="#D80027"/>
<path d="M5.86963 8.37354H7.12179V9.6257H5.86963V8.37354Z" fill="#D80027"/>
<path d="M7.12158 9.62573H8.37374V10.8779H7.12158V9.62573Z" fill="#D80027"/>
<path d="M8.37402 8.37354H9.62618V9.6257H8.37402V8.37354Z" fill="#D80027"/>
<path d="M10.8784 8.37354H12.1306V9.6257H10.8784V8.37354Z" fill="#D80027"/>
<path d="M9.62598 9.62573H10.8781V10.8779H9.62598V9.62573Z" fill="#D80027"/>
<path d="M8.37402 10.8779H9.62618V12.1301H8.37402V10.8779Z" fill="#D80027"/>
<path d="M7.12157 10.8781H5.9502C6.05763 11.3435 6.26885 11.7694 6.55847 12.1302H7.12157V10.8781Z" fill="#D80027"/>
<path d="M10.8784 12.1302H11.4415C11.7312 11.7694 11.9423 11.3435 12.0498 10.8781H10.8784V12.1302Z" fill="#D80027"/>
<path d="M7.12158 12.1302V12.6766C7.48577 12.9507 7.91137 13.1471 8.37374 13.2414V12.1302H7.12158Z" fill="#D80027"/>
<path d="M9.62598 12.1302V13.2414C10.0884 13.1472 10.514 12.9507 10.8781 12.6766V12.1302H9.62598Z" fill="#D80027"/>
</g>
<defs>
<clipPath id="clip0_8201_10232">
<rect width="18" height="18" fill="white"/>
</clipPath>
</defs>
</svg>
