<svg width="18" height="18" viewBox="0 0 18 18" fill="none" xmlns="http://www.w3.org/2000/svg">
<g clip-path="url(#clip0_8201_10566)">
<path d="M18 9C18 13.9705 13.9705 18 9 18C4.02947 18 0 13.9705 0 9C0 4.02947 9 0 9 0C9 0 18 4.02947 18 9Z" fill="#A2001D"/>
<path d="M0 9C0 4.02947 4.02947 0 9 0C13.9705 0 18 4.02947 18 9" fill="#0052B4"/>
<path d="M12.1305 11.3478L9.00005 10.9565L5.86963 11.3478V6.6521H12.1305V11.3478Z" fill="#F0F0F0"/>
<path d="M8.9998 10.9565C9.86425 10.9565 10.565 10.2557 10.565 9.39128C10.565 8.52683 9.86425 7.82605 8.9998 7.82605C8.13535 7.82605 7.43457 8.52683 7.43457 9.39128C7.43457 10.2557 8.13535 10.9565 8.9998 10.9565Z" fill="#0052B4"/>
<path d="M8.9999 10.1739C9.43212 10.1739 9.78251 9.82348 9.78251 9.39126C9.78251 8.95903 9.43212 8.60864 8.9999 8.60864C8.56767 8.60864 8.21729 8.95903 8.21729 9.39126C8.21729 9.82348 8.56767 10.1739 8.9999 10.1739Z" fill="#A2001D"/>
<path d="M7.82617 7.43481H10.174L9.00007 8.60875L7.82617 7.43481Z" fill="#6DA544"/>
<path d="M8.60889 8.21741H9.3915V10.5652H8.60889V8.21741Z" fill="#FFDA44"/>
<path d="M10.2522 10.3304H7.74782L5.86963 11.3479H12.1305L10.2522 10.3304Z" fill="#6DA544"/>
</g>
<defs>
<clipPath id="clip0_8201_10566">
<rect width="18" height="18" fill="white"/>
</clipPath>
</defs>
</svg>
