<svg width="18" height="18" viewBox="0 0 18 18" fill="none" xmlns="http://www.w3.org/2000/svg">
<g clip-path="url(#clip0_14_1181)">
<path d="M0 0H18V18H0V0Z" fill="#D21034"/>
<path d="M0 0H18V9H0V0Z" fill="#00209F"/>
<path d="M6.15942 6.73594H11.8407V11.257H6.15942V6.73594Z" fill="white"/>
<path d="M10.1426 10.0055L8.98247 10.0406L7.82935 10.0512C7.82935 10.0512 7.23872 10.2727 6.99614 10.3219C6.75356 10.3711 6.78521 10.4484 6.59888 10.4906C6.44771 10.5258 6.43013 10.5363 6.34224 10.5398C6.2895 10.5434 6.22622 10.5855 6.15942 10.6313V11.257H11.8407V10.6594C11.782 10.6294 11.7209 10.6047 11.6579 10.5855C11.577 10.5574 11.5172 10.5258 11.3696 10.4906C11.1833 10.4484 11.2149 10.3711 10.9723 10.3219C10.7297 10.2727 10.1426 10.0055 10.1426 10.0055Z" fill="#016A16" stroke="#016A16" stroke-width="0.01875"/>
<path d="M8.66895 8.61002H8.75295L8.90895 9.25202L8.87295 9.45602L8.66895 8.61602V8.61002Z" fill="#F1B517" stroke="black" stroke-width="0.0213334"/>
<path d="M8.57886 8.17802L8.63886 8.67602H8.69886L8.57886 8.18402V8.17802Z" fill="white" stroke="black" stroke-width="0.0213334"/>
<path d="M8.74091 9.27602L8.48291 8.58602L8.57891 8.58002L8.87891 9.42002L8.74091 9.27602Z" fill="#F1B517" stroke="black" stroke-width="0.0213334"/>
<path d="M8.36279 8.19002L8.47079 8.67002H8.55479L8.36279 8.19002Z" fill="white" stroke="black" stroke-width="0.0213334"/>
<path d="M8.51279 9.03602L8.36279 8.70602L8.42279 8.69402L8.70479 9.23402L8.51279 9.03602Z" fill="#F1B517" stroke="black" stroke-width="0.0213334"/>
<path d="M8.15894 8.32802L8.33294 8.78402H8.41694L8.16494 8.32802H8.15894Z" fill="white" stroke="black" stroke-width="0.0213334"/>
<path d="M8.53673 9.08402L7.84673 8.33401C7.63073 8.50202 7.67273 8.81402 7.67273 8.81402L8.45273 9.42602L8.53073 9.08402H8.53673Z" fill="#0A328C" stroke="black" stroke-width="0.0213334"/>
<path d="M8.93277 9.49202L8.42277 8.97602C8.20677 8.98802 8.37477 9.30602 8.38677 9.34802L8.92678 9.81002V9.49202H8.93277Z" fill="#D20014" stroke="black" stroke-width="0.0213334"/>
<path d="M8.88491 9.40802L7.83491 8.28002L7.79291 8.31002L8.90891 9.54602L8.88491 9.40802ZM7.77491 8.20802L7.75091 8.17802V8.12401L7.53491 7.98602L7.63091 8.20802L7.70891 8.22002L7.72691 8.24402L7.77491 8.20802Z" fill="#F1B517" stroke="black" stroke-width="0.0213334"/>
<path d="M7.66089 8.28602C7.70507 8.23118 7.76026 8.18621 7.82289 8.15401L7.88289 8.24401L7.75089 8.35202L7.66089 8.29202V8.28602Z" fill="#F1B517" stroke="black" stroke-width="0.0213334"/>
<path d="M7.54688 8.47801L7.58287 8.53801C7.60687 8.53201 7.82287 8.32801 7.82287 8.32801H7.98488L8.02688 8.27401C7.90688 8.15401 7.80488 8.29201 7.80488 8.29201L7.54688 8.47201V8.47801Z" fill="#0A328C" stroke="#0A328C" stroke-width="0.0213334"/>
<path d="M7.67876 8.58002C7.67876 8.52002 7.78676 8.38802 7.79876 8.38202C7.87676 8.40602 7.94876 8.45402 8.03276 8.27402C7.96076 8.35802 7.82276 8.27402 7.82276 8.27402L7.76276 8.32202V8.34602L7.58276 8.51402L7.67276 8.58002H7.67876Z" fill="#D20014" stroke="#D20014" stroke-width="0.0213334"/>
<path d="M8.23683 9.28202L7.37283 8.59801C7.22283 8.74802 7.34883 9.21002 7.34883 9.21002L8.18883 9.66602L8.23083 9.28202H8.23683Z" fill="#0A328C" stroke="black" stroke-width="0.0213334"/>
<path d="M8.95074 9.84002L8.23674 9.26402C7.99674 9.30002 8.18874 9.65402 8.20074 9.69602L8.95074 10.104V9.83402V9.84002Z" fill="#D20014" stroke="black" stroke-width="0.0213334"/>
<path d="M8.92087 9.72002L7.38487 8.56802L7.35487 8.60402L8.96287 9.86402L8.92087 9.72002ZM7.31287 8.50802L7.28887 8.48402L7.27687 8.43602L7.03687 8.33401L7.17487 8.53202H7.25287L7.27687 8.55602L7.31287 8.50802Z" fill="#F1B517" stroke="black" stroke-width="0.0213334"/>
<path d="M7.2168 8.60401C7.25114 8.54276 7.29819 8.48957 7.3548 8.44801L7.4268 8.52601L7.3188 8.65201L7.2168 8.60401Z" fill="#F1B517" stroke="black" stroke-width="0.0213334"/>
<path d="M7.13881 8.79602V8.86202C7.16281 8.85002 7.36081 8.64002 7.36081 8.64002L7.51081 8.61002L7.54681 8.56202C7.43881 8.43602 7.32481 8.60402 7.32481 8.60402L7.13281 8.79602H7.13881Z" fill="#0A328C" stroke="#0A328C" stroke-width="0.0213334"/>
<path d="M7.25878 8.91002C7.24678 8.85002 7.33078 8.68202 7.34278 8.67002C7.43878 8.70002 7.52278 8.74202 7.55278 8.55002C7.49278 8.64602 7.34278 8.57402 7.34278 8.57402L7.29478 8.63402V8.66402L7.14478 8.86202L7.25878 8.91002Z" fill="#D20014" stroke="#D20014" stroke-width="0.0213334"/>
<path d="M8.17079 9.70202C7.79998 9.49343 7.42998 9.28343 7.06078 9.07201C6.98278 9.21001 7.05478 9.40201 7.09078 9.43201C7.09078 9.52201 7.05478 9.57001 7.13278 9.76202C7.15678 9.88202 7.21078 9.99602 7.29478 10.062C7.39078 10.446 7.78678 10.476 7.93679 10.158L8.17679 9.70202H8.17079Z" fill="#0A328C" stroke="black" stroke-width="0.0213334"/>
<path d="M8.89679 10.11L8.14678 9.67202C7.90678 9.70202 8.14678 10.152 8.16478 10.194L8.89679 10.452V10.11Z" fill="#D20014" stroke="black" stroke-width="0.0213334"/>
<path d="M8.77083 9.94802L7.07282 9.04802L7.04282 9.08402L8.84283 10.086L8.77083 9.94802ZM6.98882 9.00002L6.95882 8.98202L6.94082 8.93402L6.69482 8.87402L6.85682 9.04802L6.92882 9.03602L6.96482 9.05402L6.98882 9.00002Z" fill="#F1B517" stroke="black" stroke-width="0.0213334"/>
<path d="M6.91089 9.10802C6.93489 9.04802 6.95889 8.99402 7.01889 8.92802L7.10289 8.99402L7.01889 9.13802L6.91089 9.10802Z" fill="#F1B517" stroke="black" stroke-width="0.0213334"/>
<path d="M6.84473 9.31202L6.88073 9.38402L7.06073 9.10802L7.21073 9.05402L7.24073 8.99402C7.12073 8.88602 7.03073 9.07802 7.03073 9.07802L6.84473 9.31202Z" fill="#0A328C" stroke="#0A328C" stroke-width="0.0213334"/>
<path d="M7.00672 9.40802C6.99472 9.34802 7.03672 9.15602 7.04872 9.15002C7.13872 9.18002 7.21672 9.18602 7.24072 8.99402C7.18072 9.08402 7.04272 9.05402 7.04272 9.05402L7.00072 9.11402L7.00672 9.13802L6.88672 9.37802L7.00672 9.40802Z" fill="#D20014" stroke="#D20014" stroke-width="0.0213334"/>
<path d="M9.32275 8.61002H9.23875L9.08275 9.25202L9.11875 9.45602L9.32275 8.61602V8.61002Z" fill="#F1B517" stroke="black" stroke-width="0.0213334"/>
<path d="M9.41284 8.17802L9.35284 8.67602H9.29284L9.41284 8.18402V8.17802Z" fill="white" stroke="black" stroke-width="0.0213334"/>
<path d="M9.25079 9.27602L9.50879 8.58602L9.41279 8.58002L9.11279 9.42002L9.25079 9.27602Z" fill="#F1B517" stroke="black" stroke-width="0.0213334"/>
<path d="M9.62891 8.19002L9.52091 8.67002H9.43691L9.62891 8.19002Z" fill="white" stroke="black" stroke-width="0.0213334"/>
<path d="M9.47891 9.03602L9.62891 8.70602L9.56891 8.69402L9.2869 9.23402L9.47891 9.03602Z" fill="#F1B517" stroke="black" stroke-width="0.0213334"/>
<path d="M9.83276 8.32802L9.65876 8.78402H9.57476L9.82676 8.32802H9.83276Z" fill="white" stroke="black" stroke-width="0.0213334"/>
<path d="M9.45497 9.08402L10.145 8.33401C10.361 8.50202 10.319 8.81402 10.319 8.81402L9.53897 9.42602L9.46097 9.08402H9.45497Z" fill="#0A328C" stroke="black" stroke-width="0.0213334"/>
<path d="M9.05892 9.49202L9.56893 8.97602C9.78493 8.98802 9.61692 9.30602 9.60492 9.34802L9.06492 9.81002V9.49202H9.05892Z" fill="#D20014" stroke="black" stroke-width="0.0213334"/>
<path d="M9.10678 9.40802L10.1568 8.28002L10.1988 8.31002L9.08278 9.54602L9.10678 9.40802ZM10.2168 8.20802L10.2408 8.17802V8.12401L10.4568 7.98602L10.3608 8.20802L10.2828 8.22002L10.2648 8.24402L10.2168 8.20802Z" fill="#F1B517" stroke="black" stroke-width="0.0213334"/>
<path d="M10.3308 8.28602C10.2866 8.23118 10.2314 8.18621 10.1688 8.15401L10.1088 8.24401L10.2408 8.35202L10.3308 8.29202V8.28602Z" fill="#F1B517" stroke="black" stroke-width="0.0213334"/>
<path d="M10.4448 8.47801L10.4088 8.53801C10.3848 8.53201 10.1688 8.32801 10.1688 8.32801H10.0068L9.96482 8.27401C10.0848 8.15401 10.1868 8.29201 10.1868 8.29201L10.4448 8.47201V8.47801Z" fill="#0A328C" stroke="#0A328C" stroke-width="0.0213334"/>
<path d="M10.3129 8.58002C10.3129 8.52002 10.2049 8.38802 10.1929 8.38202C10.1149 8.40602 10.0429 8.45402 9.95893 8.27402C10.0309 8.35802 10.1689 8.27402 10.1689 8.27402L10.2289 8.32202V8.34602L10.4089 8.51402L10.3189 8.58002H10.3129Z" fill="#D20014" stroke="#D20014" stroke-width="0.0213334"/>
<path d="M9.75487 9.28202L10.6189 8.59801C10.7689 8.74802 10.6429 9.21002 10.6429 9.21002L9.80287 9.66602L9.76087 9.28202H9.75487Z" fill="#0A328C" stroke="black" stroke-width="0.0213334"/>
<path d="M9.04096 9.84002L9.75496 9.26402C9.99496 9.30002 9.80296 9.65402 9.79096 9.69602L9.04096 10.104V9.83402V9.84002Z" fill="#D20014" stroke="black" stroke-width="0.0213334"/>
<path d="M9.07083 9.72002L10.6068 8.56802L10.6368 8.60402L9.02883 9.86402L9.07083 9.72002ZM10.6788 8.50802L10.7028 8.48402L10.7148 8.43602L10.9548 8.33401L10.8168 8.53202H10.7388L10.7148 8.55602L10.6788 8.50802Z" fill="#F1B517" stroke="black" stroke-width="0.0213334"/>
<path d="M10.7749 8.60401C10.7406 8.54276 10.6935 8.48957 10.6369 8.44801L10.5649 8.52601L10.6729 8.65201L10.7749 8.60401Z" fill="#F1B517" stroke="black" stroke-width="0.0213334"/>
<path d="M10.8529 8.79602V8.86202C10.8289 8.85002 10.6309 8.64002 10.6309 8.64002L10.4809 8.61002L10.4449 8.56202C10.5529 8.43602 10.6669 8.60402 10.6669 8.60402L10.8589 8.79602H10.8529Z" fill="#0A328C" stroke="#0A328C" stroke-width="0.0213334"/>
<path d="M10.7329 8.91002C10.7449 8.85002 10.6609 8.68202 10.6489 8.67002C10.5529 8.70002 10.4689 8.74202 10.4389 8.55002C10.4989 8.64602 10.6489 8.57402 10.6489 8.57402L10.6969 8.63402V8.66402L10.8469 8.86202L10.7329 8.91002Z" fill="#D20014" stroke="#D20014" stroke-width="0.0213334"/>
<path d="M9.82091 9.70202C10.1917 9.49343 10.5617 9.28343 10.9309 9.07201C11.0089 9.21001 10.9369 9.40201 10.9009 9.43201C10.9009 9.52201 10.9369 9.57001 10.8589 9.76202C10.8349 9.88202 10.7809 9.99602 10.6969 10.062C10.6009 10.446 10.2049 10.476 10.0549 10.158L9.81491 9.70202H9.82091Z" fill="#0A328C" stroke="black" stroke-width="0.0213334"/>
<path d="M9.09491 10.11L9.84492 9.67202C10.0849 9.70202 9.84492 10.152 9.82692 10.194L9.09491 10.452V10.11Z" fill="#D20014" stroke="black" stroke-width="0.0213334"/>
<path d="M9.22087 9.94802L10.9189 9.04802L10.9489 9.08402L9.14887 10.086L9.22087 9.94802ZM11.0029 9.00002L11.0329 8.98202L11.0509 8.93402L11.2969 8.87402L11.1349 9.04802L11.0629 9.03602L11.0269 9.05402L11.0029 9.00002Z" fill="#F1B517" stroke="black" stroke-width="0.0213334"/>
<path d="M11.0808 9.10802C11.0568 9.04802 11.0328 8.99402 10.9728 8.92802L10.8888 8.99402L10.9728 9.13802L11.0808 9.10802Z" fill="#F1B517" stroke="black" stroke-width="0.0213334"/>
<path d="M11.147 9.31202L11.111 9.38402L10.931 9.10802L10.781 9.05402L10.751 8.99402C10.871 8.88602 10.961 9.07802 10.961 9.07802L11.147 9.31202Z" fill="#0A328C" stroke="#0A328C" stroke-width="0.0213334"/>
<path d="M10.985 9.40802C10.997 9.34802 10.955 9.15602 10.943 9.15002C10.853 9.18002 10.775 9.18602 10.751 8.99402C10.811 9.08402 10.949 9.05402 10.949 9.05402L10.991 9.11402L10.985 9.13802L11.105 9.37802L10.985 9.40802Z" fill="#D20014" stroke="#D20014" stroke-width="0.0213334"/>
<path d="M8.92679 7.53602L8.89679 8.07602H9.07079L9.04679 7.53602L9.22679 7.51802L9.20879 7.30202L8.75879 7.32002V7.51202L8.92679 7.53602Z" fill="#016A16" stroke="#016A16" stroke-width="0.0213334"/>
<path d="M8.98685 7.31402C8.51885 6.84602 8.15285 7.07402 8.06885 7.14002C8.12885 7.15202 8.17685 7.11602 8.20685 7.11002L8.14685 7.18202C8.14685 7.18202 8.29685 7.12202 8.31485 7.12202C8.29085 7.14002 8.26685 7.18202 8.26685 7.18202C8.27885 7.18202 8.36285 7.11602 8.37485 7.11602C8.35085 7.14002 8.34485 7.20602 8.34485 7.20602L8.41685 7.17602C8.43485 7.18802 8.41085 7.21202 8.42285 7.21202C8.54285 7.20002 8.70485 7.31402 8.72285 7.35002" fill="#016A16"/>
<path d="M8.98685 7.31402C8.51885 6.84602 8.15285 7.07402 8.06885 7.14002C8.12885 7.15202 8.17685 7.11602 8.20685 7.11002L8.14685 7.18202C8.14685 7.18202 8.29685 7.12202 8.31485 7.12202C8.29085 7.14002 8.26685 7.18202 8.26685 7.18202C8.27885 7.18202 8.36285 7.11602 8.37485 7.11602C8.35085 7.14002 8.34485 7.20602 8.34485 7.20602L8.41685 7.17602C8.43485 7.18802 8.41085 7.21202 8.42285 7.21202C8.54285 7.20002 8.70485 7.31402 8.72285 7.35002" stroke="black" stroke-width="0.0213334"/>
<path d="M8.87284 7.39801C8.82484 7.29001 7.93684 7.09801 7.75684 7.41601C7.82884 7.43401 7.89484 7.35601 7.89484 7.35601V7.42801L8.00884 7.33201L7.96684 7.42801L8.05684 7.35001V7.42801L8.17684 7.30801L8.15884 7.37401L8.26084 7.33201L8.24884 7.39201" fill="#016A16"/>
<path d="M8.87284 7.39801C8.82484 7.29001 7.93684 7.09801 7.75684 7.41601C7.82884 7.43401 7.89484 7.35601 7.89484 7.35601V7.42801L8.00884 7.33201L7.96684 7.42801L8.05684 7.35001V7.42801L8.17684 7.30801L8.15884 7.37401L8.26084 7.33201L8.24884 7.39201" stroke="black" stroke-width="0.0213334"/>
<path d="M8.83081 7.41602C8.60281 7.26602 8.25481 7.36802 8.25481 7.36802C8.02681 7.48802 7.90681 7.47002 7.88281 7.70402C7.90081 7.69802 7.96081 7.62002 7.96081 7.62002L8.00881 7.71002L8.02081 7.58402L8.05681 7.68602L8.11681 7.51802L8.12881 7.63202L8.21281 7.51802L8.24881 7.55402L8.28481 7.46402L8.32081 7.52402C8.32081 7.52402 8.38081 7.48802 8.41081 7.50602L8.47081 7.43402L8.48881 7.48802L8.54881 7.42802L8.56681 7.47002L8.62081 7.42202V7.45802H8.80081" fill="#016A16"/>
<path d="M8.83081 7.41602C8.60281 7.26602 8.25481 7.36802 8.25481 7.36802C8.02681 7.48802 7.90681 7.47002 7.88281 7.70402C7.90081 7.69802 7.96081 7.62002 7.96081 7.62002L8.00881 7.71002L8.02081 7.58402L8.05681 7.68602L8.11681 7.51802L8.12881 7.63202L8.21281 7.51802L8.24881 7.55402L8.28481 7.46402L8.32081 7.52402C8.32081 7.52402 8.38081 7.48802 8.41081 7.50602L8.47081 7.43402L8.48881 7.48802L8.54881 7.42802L8.56681 7.47002L8.62081 7.42202V7.45802H8.80081" stroke="black" stroke-width="0.0213334"/>
<path d="M8.78278 7.44002C8.62078 7.44002 8.16478 7.61402 8.05078 7.78802C8.07612 7.77463 8.10215 7.76261 8.12878 7.75202L8.14678 7.82402L8.17678 7.75202L8.18278 7.81202C8.20078 7.76402 8.21878 7.76402 8.25478 7.80602L8.26678 7.74002L8.28478 7.80002L8.31478 7.73402C8.31478 7.73402 8.33278 7.80602 8.34478 7.80602C8.34478 7.80602 8.39278 7.67402 8.41678 7.66802L8.42278 7.75202L8.45278 7.66802L8.48278 7.72802V7.64402L8.51878 7.70402C8.51878 7.70402 8.53078 7.64402 8.55478 7.63202L8.60278 7.67402L8.80678 7.52402" fill="#016A16"/>
<path d="M8.78278 7.44002C8.62078 7.44002 8.16478 7.61402 8.05078 7.78802C8.07612 7.77463 8.10215 7.76261 8.12878 7.75202L8.14678 7.82402L8.17678 7.75202L8.18278 7.81202C8.20078 7.76402 8.21878 7.76402 8.25478 7.80602L8.26678 7.74002L8.28478 7.80002L8.31478 7.73402C8.31478 7.73402 8.33278 7.80602 8.34478 7.80602C8.34478 7.80602 8.39278 7.67402 8.41678 7.66802L8.42278 7.75202L8.45278 7.66802L8.48278 7.72802V7.64402L8.51878 7.70402C8.51878 7.70402 8.53078 7.64402 8.55478 7.63202L8.60278 7.67402L8.80678 7.52402" stroke="black" stroke-width="0.0213334"/>
<path d="M8.81291 7.48202C8.60291 7.56002 8.41091 7.85402 8.42891 7.97402C8.51891 7.85402 8.50091 7.87202 8.54291 8.01002C8.54291 8.01002 8.55491 7.89002 8.57291 7.87802L8.60291 7.96202L8.60891 7.84802H8.63891L8.63291 7.78202L8.67491 7.81202C8.66291 7.77002 8.65691 7.75802 8.69891 7.72202C8.69891 7.72202 8.63891 7.72802 8.68691 7.63202L8.72891 7.66802C8.72891 7.66802 8.71691 7.62602 8.72891 7.60802L8.88491 7.56002" fill="#016A16"/>
<path d="M8.81291 7.48202C8.60291 7.56002 8.41091 7.85402 8.42891 7.97402C8.51891 7.85402 8.50091 7.87202 8.54291 8.01002C8.54291 8.01002 8.55491 7.89002 8.57291 7.87802L8.60291 7.96202L8.60891 7.84802H8.63891L8.63291 7.78202L8.67491 7.81202C8.66291 7.77002 8.65691 7.75802 8.69891 7.72202C8.69891 7.72202 8.63891 7.72802 8.68691 7.63202L8.72891 7.66802C8.72891 7.66802 8.71691 7.62602 8.72891 7.60802L8.88491 7.56002" stroke="black" stroke-width="0.0213334"/>
<path d="M8.83078 7.50002L8.75277 7.65602L8.79478 7.66802L8.69878 7.73402L8.77678 7.72802C8.77678 7.72802 8.65678 7.77002 8.64478 7.89002L8.76478 7.83002C8.76478 7.83002 8.66278 7.93802 8.64478 8.00402L8.72277 7.94402C8.72277 7.94402 8.65077 8.01602 8.66277 8.12402L8.71678 8.06402C8.70478 8.20202 8.70478 8.21402 8.76478 8.31602C8.76478 8.31602 8.75278 8.16002 8.76478 8.13602L8.90278 8.28002L8.83078 8.08202C8.83078 8.08202 8.91478 8.20202 8.96278 8.19602L8.85478 8.03402L8.96278 8.11802L8.84278 7.93802L8.95078 7.97402C8.95078 7.97402 8.87278 7.87202 8.87878 7.80602L8.95678 7.89002C8.95678 7.89002 8.92678 7.80002 8.93278 7.77002L8.97478 7.77602L8.89678 7.69202L8.95078 7.68002L8.94478 7.62002L8.98078 7.61402V7.54802M8.91478 7.54802C8.78278 7.72802 8.84878 7.99802 8.77078 8.14202Z" fill="#016A16"/>
<path d="M8.83078 7.50002L8.75277 7.65602L8.79478 7.66802L8.69878 7.73402L8.77678 7.72802C8.77678 7.72802 8.65678 7.77002 8.64478 7.89002L8.76478 7.83002C8.76478 7.83002 8.66278 7.93802 8.64478 8.00402L8.72277 7.94402C8.72277 7.94402 8.65077 8.01602 8.66277 8.12402L8.71678 8.06402C8.70478 8.20202 8.70478 8.21402 8.76478 8.31602C8.76478 8.31602 8.75278 8.16002 8.76478 8.13602L8.90278 8.28002L8.83078 8.08202C8.83078 8.08202 8.91478 8.20202 8.96278 8.19602L8.85478 8.03402L8.96278 8.11802L8.84278 7.93802L8.95078 7.97402C8.95078 7.97402 8.87278 7.87202 8.87878 7.80602L8.95678 7.89002C8.95678 7.89002 8.92678 7.80002 8.93278 7.77002L8.97478 7.77602L8.89678 7.69202L8.95078 7.68002L8.94478 7.62002L8.98078 7.61402V7.54802M8.91478 7.54802C8.78278 7.72802 8.84878 7.99802 8.77078 8.14202" stroke="black" stroke-width="0.0213334"/>
<path d="M9.00485 7.31402C9.47285 6.84602 9.83885 7.07402 9.92285 7.14002C9.86285 7.15202 9.81485 7.11602 9.78485 7.11002L9.84485 7.18202C9.84485 7.18202 9.69485 7.12202 9.67685 7.12202C9.70085 7.14002 9.72485 7.18202 9.72485 7.18202C9.71285 7.18202 9.62885 7.11602 9.61685 7.11602C9.64085 7.14002 9.64685 7.20602 9.64685 7.20602L9.57485 7.17602C9.55685 7.18802 9.58085 7.21202 9.56885 7.21202C9.44885 7.20002 9.28685 7.31402 9.26885 7.35002" fill="#016A16"/>
<path d="M9.00485 7.31402C9.47285 6.84602 9.83885 7.07402 9.92285 7.14002C9.86285 7.15202 9.81485 7.11602 9.78485 7.11002L9.84485 7.18202C9.84485 7.18202 9.69485 7.12202 9.67685 7.12202C9.70085 7.14002 9.72485 7.18202 9.72485 7.18202C9.71285 7.18202 9.62885 7.11602 9.61685 7.11602C9.64085 7.14002 9.64685 7.20602 9.64685 7.20602L9.57485 7.17602C9.55685 7.18802 9.58085 7.21202 9.56885 7.21202C9.44885 7.20002 9.28685 7.31402 9.26885 7.35002" stroke="black" stroke-width="0.0213334"/>
<path d="M9.11886 7.39801C9.16686 7.29001 10.0549 7.09801 10.2349 7.41601C10.1629 7.43401 10.0969 7.35601 10.0969 7.35601V7.42801L9.98286 7.33201L10.0249 7.42801L9.93486 7.35001V7.42801L9.81486 7.30801L9.83286 7.37401L9.73086 7.33201L9.74286 7.39201" fill="#016A16"/>
<path d="M9.11886 7.39801C9.16686 7.29001 10.0549 7.09801 10.2349 7.41601C10.1629 7.43401 10.0969 7.35601 10.0969 7.35601V7.42801L9.98286 7.33201L10.0249 7.42801L9.93486 7.35001V7.42801L9.81486 7.30801L9.83286 7.37401L9.73086 7.33201L9.74286 7.39201" stroke="black" stroke-width="0.0213334"/>
<path d="M9.16088 7.41602C9.38889 7.26602 9.73689 7.36802 9.73689 7.36802C9.96489 7.48802 10.0849 7.47002 10.1089 7.70402C10.0909 7.69802 10.0309 7.62002 10.0309 7.62002L9.98289 7.71002L9.97089 7.58402L9.93489 7.68602L9.87489 7.51802L9.86289 7.63202L9.77889 7.51802L9.74289 7.55402L9.70689 7.46402L9.67089 7.52402C9.67089 7.52402 9.61089 7.48802 9.58089 7.50602L9.52089 7.43402L9.50289 7.48802L9.44289 7.42802L9.42488 7.47002L9.37089 7.42202V7.45802H9.19088" fill="#016A16"/>
<path d="M9.16088 7.41602C9.38889 7.26602 9.73689 7.36802 9.73689 7.36802C9.96489 7.48802 10.0849 7.47002 10.1089 7.70402C10.0909 7.69802 10.0309 7.62002 10.0309 7.62002L9.98289 7.71002L9.97089 7.58402L9.93489 7.68602L9.87489 7.51802L9.86289 7.63202L9.77889 7.51802L9.74289 7.55402L9.70689 7.46402L9.67089 7.52402C9.67089 7.52402 9.61089 7.48802 9.58089 7.50602L9.52089 7.43402L9.50289 7.48802L9.44289 7.42802L9.42488 7.47002L9.37089 7.42202V7.45802H9.19088" stroke="black" stroke-width="0.0213334"/>
<path d="M9.20892 7.44002C9.37092 7.44002 9.82692 7.61402 9.94092 7.78802C9.91558 7.77463 9.88955 7.76261 9.86292 7.75202L9.84492 7.82402L9.81492 7.75202L9.80892 7.81202C9.79092 7.76402 9.77292 7.76402 9.73692 7.80602L9.72492 7.74002L9.70692 7.80002L9.67692 7.73402C9.67692 7.73402 9.65892 7.80602 9.64692 7.80602C9.64692 7.80602 9.59892 7.67402 9.57492 7.66802L9.56892 7.75202L9.53892 7.66802L9.50892 7.72802V7.64402L9.47292 7.70402C9.47292 7.70402 9.46092 7.64402 9.43692 7.63202L9.38892 7.67402L9.18492 7.52402" fill="#016A16"/>
<path d="M9.20892 7.44002C9.37092 7.44002 9.82692 7.61402 9.94092 7.78802C9.91558 7.77463 9.88955 7.76261 9.86292 7.75202L9.84492 7.82402L9.81492 7.75202L9.80892 7.81202C9.79092 7.76402 9.77292 7.76402 9.73692 7.80602L9.72492 7.74002L9.70692 7.80002L9.67692 7.73402C9.67692 7.73402 9.65892 7.80602 9.64692 7.80602C9.64692 7.80602 9.59892 7.67402 9.57492 7.66802L9.56892 7.75202L9.53892 7.66802L9.50892 7.72802V7.64402L9.47292 7.70402C9.47292 7.70402 9.46092 7.64402 9.43692 7.63202L9.38892 7.67402L9.18492 7.52402" stroke="black" stroke-width="0.0213334"/>
<path d="M9.17879 7.48202C9.38879 7.56002 9.58079 7.85402 9.56279 7.97402C9.47279 7.85402 9.49079 7.87202 9.44879 8.01002C9.44879 8.01002 9.43679 7.89002 9.41879 7.87802L9.38879 7.96202L9.38279 7.84802H9.35279L9.35879 7.78202L9.31679 7.81202C9.32879 7.77002 9.33479 7.75802 9.29279 7.72202C9.29279 7.72202 9.35279 7.72802 9.30479 7.63202L9.26279 7.66802C9.26279 7.66802 9.27479 7.62602 9.26279 7.60802L9.10679 7.56002" fill="#016A16"/>
<path d="M9.17879 7.48202C9.38879 7.56002 9.58079 7.85402 9.56279 7.97402C9.47279 7.85402 9.49079 7.87202 9.44879 8.01002C9.44879 8.01002 9.43679 7.89002 9.41879 7.87802L9.38879 7.96202L9.38279 7.84802H9.35279L9.35879 7.78202L9.31679 7.81202C9.32879 7.77002 9.33479 7.75802 9.29279 7.72202C9.29279 7.72202 9.35279 7.72802 9.30479 7.63202L9.26279 7.66802C9.26279 7.66802 9.27479 7.62602 9.26279 7.60802L9.10679 7.56002" stroke="black" stroke-width="0.0213334"/>
<path d="M9.16092 7.50002L9.23892 7.65602L9.19692 7.66802L9.29292 7.73402L9.21492 7.72802C9.21492 7.72802 9.33492 7.77002 9.34692 7.89002L9.22692 7.83002C9.22692 7.83002 9.32892 7.93802 9.34692 8.00402L9.26892 7.94402C9.26892 7.94402 9.34092 8.01602 9.32892 8.12402L9.27492 8.06402C9.28692 8.20202 9.28692 8.21402 9.22692 8.31602C9.22692 8.31602 9.23892 8.16002 9.22692 8.13602L9.08892 8.28002L9.16092 8.08202C9.16092 8.08202 9.07692 8.20202 9.02892 8.19602L9.13692 8.03402L9.02892 8.11802L9.14892 7.93802L9.04092 7.97402C9.04092 7.97402 9.11892 7.87202 9.11292 7.80602L9.03492 7.89002C9.03492 7.89002 9.06492 7.80002 9.05892 7.77002L9.01692 7.77602L9.09492 7.69202L9.04092 7.68002L9.04692 7.62002L9.01092 7.61402V7.54802M9.07692 7.54802C9.20892 7.72802 9.14292 7.99802 9.22092 8.14202Z" fill="#016A16"/>
<path d="M9.16092 7.50002L9.23892 7.65602L9.19692 7.66802L9.29292 7.73402L9.21492 7.72802C9.21492 7.72802 9.33492 7.77002 9.34692 7.89002L9.22692 7.83002C9.22692 7.83002 9.32892 7.93802 9.34692 8.00402L9.26892 7.94402C9.26892 7.94402 9.34092 8.01602 9.32892 8.12402L9.27492 8.06402C9.28692 8.20202 9.28692 8.21402 9.22692 8.31602C9.22692 8.31602 9.23892 8.16002 9.22692 8.13602L9.08892 8.28002L9.16092 8.08202C9.16092 8.08202 9.07692 8.20202 9.02892 8.19602L9.13692 8.03402L9.02892 8.11802L9.14892 7.93802L9.04092 7.97402C9.04092 7.97402 9.11892 7.87202 9.11292 7.80602L9.03492 7.89002C9.03492 7.89002 9.06492 7.80002 9.05892 7.77002L9.01692 7.77602L9.09492 7.69202L9.04092 7.68002L9.04692 7.62002L9.01092 7.61402V7.54802M9.07692 7.54802C9.20892 7.72802 9.14292 7.99802 9.22092 8.14202" stroke="black" stroke-width="0.0213334"/>
<path d="M9.0588 9.99002C9.0588 9.99002 9.1248 9.39002 9.1248 9.13802C9.1248 8.93402 9.0768 8.49002 9.0768 8.49002H8.8788C8.8788 8.49002 8.8488 8.93402 8.8548 9.13802C8.8548 9.39002 8.9208 9.99002 8.9208 9.99002H9.0588Z" fill="#F1B517" stroke="black" stroke-width="0.0213334"/>
<path d="M8.86084 8.52002H9.10084L9.07084 8.35802H8.89684L8.86084 8.51402V8.52002Z" fill="#F1B517" stroke="black" stroke-width="0.0213334"/>
<path d="M8.8788 8.38801H9.0888L9.0468 8.22601H8.9148L8.8728 8.38801H8.8788Z" fill="#F1B517" stroke="black" stroke-width="0.0213334"/>
<path d="M8.89087 8.26201H9.07087L9.03487 8.10001H8.92087L8.89087 8.26201Z" fill="#F1B517" stroke="black" stroke-width="0.0213334"/>
<path d="M9.04077 8.08202H8.92077L8.90277 8.14202H9.05277L9.04077 8.08202ZM9.06477 9.86402H8.90877ZM9.07677 9.74402H8.89677ZM9.10077 9.62402H8.87277ZM9.11277 9.49802H8.87277ZM9.11277 9.36602H8.86677ZM9.11877 9.24602H8.85477ZM9.11877 9.14402H8.84277ZM9.11877 9.01202H8.84277ZM9.11277 8.88602H8.84277ZM9.10077 8.75402H8.85477ZM9.08877 8.63402H8.86677Z" fill="#F1B517"/>
<path d="M9.06477 9.86402H8.90877M9.07677 9.74402H8.89677M9.10077 9.62402H8.87277M9.11277 9.49802H8.87277M9.11277 9.36602H8.86677M9.11877 9.24602H8.85477M9.11877 9.14402H8.84277M9.11877 9.01202H8.84277M9.11277 8.88602H8.84277M9.10077 8.75402H8.85477M9.08877 8.63402H8.86677M9.04077 8.08202H8.92077L8.90277 8.14202H9.05277L9.04077 8.08202Z" stroke="black" stroke-width="0.0213334"/>
<path d="M8.99885 7.14001C8.95085 7.12201 8.86085 7.06201 8.88485 7.02601L8.92685 6.95401C8.98685 6.82201 8.92685 6.87001 8.92685 6.83401C8.91485 6.78601 9.15485 6.82201 9.15485 6.91201C9.15485 6.94201 9.13685 6.92401 9.14285 7.06801L9.09485 7.15801C9.06039 7.16252 9.02534 7.1584 8.99285 7.14601L8.99885 7.14001Z" fill="#0A328C" stroke="#0A328C" stroke-width="0.0213334"/>
<path d="M9.02289 7.50001L8.96289 7.44601L8.98089 7.02001L9.04089 7.03801L9.02289 7.49401V7.50001Z" fill="#F1B517" stroke="black" stroke-width="0.0213334"/>
<path d="M9.10076 7.15801C9.13676 7.13401 9.16076 7.06801 9.13676 7.03201C9.07676 6.95401 9.03476 6.98401 8.93276 6.94801C8.91475 6.97201 8.87276 7.00801 8.87876 7.04401C9.01676 7.10401 8.96276 7.05601 9.01076 7.06201C9.03476 7.06201 9.04676 7.09201 9.10076 7.15201V7.15801Z" fill="#D20014" stroke="#D20014" stroke-width="0.0213334"/>
<path d="M8.30891 9.61802C8.29691 9.58802 8.24891 9.56402 8.18891 9.56402C8.12891 9.56402 8.08691 9.58802 8.06891 9.61802C8.06687 9.61015 8.06687 9.60189 8.06891 9.59402C8.06891 9.55202 8.12291 9.52202 8.18891 9.52202C8.26091 9.52202 8.31491 9.55202 8.31491 9.59402C8.31694 9.60189 8.31694 9.61015 8.31491 9.61802H8.30891Z" fill="#016A16" stroke="white" stroke-width="0.0213334" stroke-linecap="round"/>
<path d="M8.30305 9.70802C8.30305 9.78002 8.24906 9.84602 8.18906 9.84602C8.12905 9.84602 8.08105 9.78602 8.08105 9.70202V9.63002H8.30305V9.70202V9.70802Z" fill="#016A16" stroke="white" stroke-width="0.0213334" stroke-linecap="round"/>
<path d="M8.18906 9.66002C8.2487 9.66002 8.29706 9.63584 8.29706 9.60602C8.29706 9.57619 8.2487 9.55202 8.18906 9.55202C8.12941 9.55202 8.08105 9.57619 8.08105 9.60602C8.08105 9.63584 8.12941 9.66002 8.18906 9.66002Z" fill="white"/>
<path d="M8.16497 9.66002L8.14697 9.46802H8.23097L8.21897 9.66602H8.16497V9.66002Z" fill="#016A16" stroke="#F1B517" stroke-width="0.0213334"/>
<path d="M8.30891 9.60602C8.29691 9.63602 8.24891 9.66002 8.18891 9.66002C8.12891 9.66002 8.08691 9.63602 8.06891 9.60602C8.06687 9.61389 8.06687 9.62215 8.06891 9.63002C8.06891 9.67202 8.12291 9.70202 8.18891 9.70202C8.26091 9.70202 8.31491 9.67202 8.31491 9.63002C8.31694 9.62215 8.31694 9.61389 8.31491 9.60602H8.30891Z" fill="#016A16" stroke="white" stroke-width="0.0213334" stroke-linecap="round"/>
<path d="M8.75903 10.368L8.33903 10.236L8.15302 9.91802L7.49902 9.88802L7.52302 10.128L8.08102 10.23L8.12902 10.326L8.77103 10.506L8.75903 10.368Z" fill="#F1B517" stroke="black" stroke-width="0.0213334"/>
<path d="M8.3209 10.458L7.6489 9.46802L7.6189 9.49802L8.2789 10.482L8.3209 10.458Z" fill="#503200" stroke="black" stroke-width="0.0213334"/>
<path d="M7.71501 9.51002L7.64301 9.39002C7.62501 9.36602 7.60701 9.36002 7.57701 9.37802C7.54701 9.39002 7.55301 9.42002 7.56501 9.44402L7.62501 9.55802L7.71501 9.51002Z" fill="white" stroke="black" stroke-width="0.0213334"/>
<path d="M8.39894 9.84602L7.04894 9.70802L7.01294 9.90602L8.35694 10.044L8.39894 9.84602Z" fill="#F1B517" stroke="black" stroke-width="0.0213334"/>
<path d="M7.01901 9.66002L6.98901 9.93002H7.04901L7.08501 9.68402L7.02501 9.66002H7.01901ZM7.24701 9.70202L7.23501 9.94802H7.27101L7.30101 9.73802L7.25301 9.70202H7.24701ZM8.16502 9.81002L8.12902 10.038H8.19502L8.22502 9.81002H8.16502ZM8.36302 9.81602L8.32102 10.08L8.39302 10.092L8.41702 9.95402C8.41702 9.98402 8.44702 10.002 8.47702 10.002C8.51302 10.002 8.53702 9.97202 8.53702 9.94202C8.53702 9.90602 8.51302 9.88202 8.47702 9.88202C8.46451 9.88099 8.45199 9.88391 8.44123 9.89037C8.43046 9.89683 8.422 9.9065 8.41702 9.91802L8.43502 9.82202L8.36302 9.81602ZM7.88302 9.85802L7.69101 10.068L7.71502 10.092L7.95502 9.93002L7.87702 9.85802H7.88302ZM7.43901 10.38L7.62502 10.17L7.60702 10.146L7.36701 10.308L7.43901 10.38ZM7.92502 10.326L7.70301 10.152L7.67902 10.17L7.85902 10.398L7.92502 10.326ZM7.36701 9.92402L7.60101 10.092L7.62502 10.074L7.44501 9.84602L7.36701 9.92402ZM7.61901 9.78602L7.64301 10.062H7.67301L7.74502 9.79202L7.61901 9.78602ZM7.69101 10.446L7.67301 10.176H7.63702L7.59502 10.452H7.69101V10.446ZM7.99702 10.086L7.70902 10.11V10.14L7.99702 10.176V10.08V10.086ZM7.31301 10.176L7.59502 10.134V10.11L7.30701 10.08V10.176H7.31301Z" fill="#F1B517" stroke="black" stroke-width="0.0213334"/>
<path d="M7.66101 10.188C7.70409 10.188 7.73901 10.1558 7.73901 10.116C7.73901 10.0763 7.70409 10.044 7.66101 10.044C7.61793 10.044 7.58301 10.0763 7.58301 10.116C7.58301 10.1558 7.61793 10.188 7.66101 10.188Z" fill="#F1B517" stroke="black" stroke-width="0.0213334"/>
<path fill-rule="evenodd" clip-rule="evenodd" d="M8.06303 10.116C8.06303 10.326 7.88303 10.506 7.66103 10.506C7.60903 10.5068 7.55738 10.4974 7.50903 10.4782C7.46068 10.459 7.41658 10.4305 7.37925 10.3943C7.34192 10.3581 7.31209 10.3149 7.29146 10.2671C7.27083 10.2194 7.25982 10.168 7.25903 10.116C7.25903 9.90002 7.43903 9.72602 7.66103 9.72602C7.71304 9.72523 7.76469 9.73469 7.81304 9.75386C7.86139 9.77303 7.90549 9.80153 7.94282 9.83775C7.98015 9.87397 8.00998 9.91718 8.03061 9.96493C8.05123 10.0127 8.06225 10.064 8.06303 10.116ZM7.98503 10.116C7.98425 10.1578 7.97525 10.199 7.95855 10.2373C7.94184 10.2756 7.91776 10.3102 7.88767 10.3391C7.85758 10.3681 7.82208 10.3909 7.78319 10.4061C7.74431 10.4214 7.7028 10.4288 7.66103 10.428C7.61877 10.4288 7.57677 10.4212 7.5375 10.4056C7.49822 10.3899 7.46245 10.3666 7.43229 10.337C7.40212 10.3074 7.37816 10.2721 7.3618 10.2331C7.34545 10.1941 7.33703 10.1523 7.33703 10.11C7.34016 10.0267 7.37587 9.948 7.43646 9.89077C7.49706 9.83354 7.5777 9.80239 7.66103 9.80402C7.7028 9.80323 7.74431 9.81067 7.78319 9.82592C7.82208 9.84117 7.85758 9.86393 7.88767 9.8929C7.91776 9.92188 7.94184 9.95649 7.95855 9.99478C7.97525 10.0331 7.98425 10.0743 7.98503 10.116Z" fill="#F1B517" stroke="black" stroke-width="0.0213334" stroke-linecap="round"/>
<path d="M7.40888 9.91802L7.34888 9.87002ZM7.85888 9.87002L7.91888 9.81002ZM7.97888 10.362L7.91288 10.308ZM7.40888 10.422L7.46888 10.362ZM8.77088 9.72602L8.83688 10.086L8.78288 10.11L8.72288 9.73202H8.77088V9.72602Z" fill="#F1B517"/>
<path d="M7.40888 9.91802L7.34888 9.87002M7.85888 9.87002L7.91888 9.81002M7.97888 10.362L7.91288 10.308M7.40888 10.422L7.46888 10.362M8.77088 9.72602L8.83688 10.086L8.78288 10.11L8.72288 9.73202H8.77088V9.72602Z" stroke="black" stroke-width="0.0213334"/>
<path d="M8.73501 9.68402C8.70501 9.66602 8.66301 9.69002 8.59101 9.60602C8.477 9.70802 8.591 9.72602 8.603 9.82802C8.633 9.84002 8.65701 9.74402 8.74101 9.73802L8.87901 9.72602L8.84901 9.68402H8.72901H8.73501Z" fill="white" stroke="black" stroke-width="0.0213334"/>
<path d="M8.78294 9.75002L8.77094 9.64802C8.75294 9.60602 8.71094 9.64202 8.71094 9.66002L8.72294 9.76202L8.78294 9.75002Z" fill="white" stroke="black" stroke-width="0.0213334"/>
<path fill-rule="evenodd" clip-rule="evenodd" d="M8.44698 10.044V10.14C8.41098 10.152 8.41698 10.176 8.41698 10.212V10.494C8.41098 10.518 8.37498 10.518 8.35698 10.53C8.33898 10.548 8.34498 10.578 8.41698 10.59L8.47698 10.596C8.56698 10.578 8.58498 10.548 8.53698 10.536C8.51898 10.524 8.48298 10.512 8.47698 10.5V10.428H8.53698C8.54898 10.428 8.57898 10.392 8.57898 10.362V10.212C8.57898 10.128 8.51898 10.116 8.49498 10.122V10.044H8.44698ZM8.54298 10.206C8.54298 10.182 8.50698 10.158 8.49498 10.158C8.48298 10.158 8.45297 10.188 8.45297 10.212V10.272C8.45297 10.296 8.47098 10.368 8.50698 10.374C8.51898 10.374 8.54298 10.35 8.54298 10.326V10.206Z" fill="#F1B517" stroke="black" stroke-width="0.0213334"/>
<path d="M8.0569 10.338C8.0149 10.326 8.0149 10.41 8.0149 10.41H8.0749C8.1049 10.422 8.1229 10.458 8.1109 10.482C8.0929 10.494 7.9789 10.452 7.9729 10.482C7.9909 10.596 8.1469 10.638 8.2009 10.59C8.2549 10.536 8.2669 10.41 8.0929 10.368L8.0569 10.338ZM8.0929 10.374L8.0749 10.41Z" fill="white"/>
<path d="M8.0749 10.41H8.0149C8.0149 10.41 8.0149 10.326 8.0569 10.338L8.0929 10.368C8.2669 10.41 8.2549 10.536 8.2009 10.59C8.1469 10.638 7.9909 10.596 7.9729 10.482C7.9789 10.452 8.0929 10.494 8.1109 10.482C8.1229 10.458 8.1049 10.422 8.0749 10.41ZM8.0749 10.41L8.0929 10.374" stroke="black" stroke-width="0.0213334"/>
<path d="M6.89901 10.38L6.83901 10.14ZM6.96501 10.368L6.87501 10.182ZM7.11501 10.32L6.91701 10.212ZM7.20501 10.296L6.83301 10.134Z" fill="#F1B517"/>
<path d="M6.89901 10.38L6.83901 10.14M6.96501 10.368L6.87501 10.182M7.11501 10.32L6.91701 10.212M7.20501 10.296L6.83301 10.134" stroke="black" stroke-width="0.0213334"/>
<path d="M6.61093 9.96002L6.45493 9.96602C6.44293 9.97203 6.48493 10.02 6.47893 10.032C6.44293 10.098 6.21493 10.092 6.19693 10.08C6.16693 10.05 6.40693 10.032 6.41293 10.02C6.41293 9.99602 6.37693 9.94802 6.38293 9.91802C6.38293 9.87602 6.48493 9.85802 6.48493 9.85802L6.61093 9.96002Z" fill="#D20014" stroke="#D20014" stroke-width="0.0213334"/>
<path d="M6.7909 10.08L6.4909 9.82802C6.4909 9.82802 6.4729 9.81602 6.4609 9.82802C6.4489 9.84002 6.4609 9.85202 6.4609 9.85202L6.7849 10.116L6.7909 10.086V10.08Z" fill="#503200" stroke="black" stroke-width="0.0213334"/>
<path d="M7.09082 10.332L6.83882 10.116L6.82082 10.056L6.77282 10.092C6.75482 10.104 6.73682 10.14 6.73682 10.14H6.80282L7.01882 10.344L7.08482 10.332H7.09082Z" fill="#F1B517" stroke="black" stroke-width="0.0213334"/>
<path d="M7.94898 10.668C7.97218 10.668 7.99098 10.6492 7.99098 10.626C7.99098 10.6028 7.97218 10.584 7.94898 10.584C7.92579 10.584 7.90698 10.6028 7.90698 10.626C7.90698 10.6492 7.92579 10.668 7.94898 10.668Z" fill="#F1B517" stroke="black" stroke-width="0.0213334"/>
<path d="M7.83497 10.584C7.85817 10.584 7.87697 10.5652 7.87697 10.542C7.87697 10.5188 7.85817 10.5 7.83497 10.5C7.81177 10.5 7.79297 10.5188 7.79297 10.542C7.79297 10.5652 7.81177 10.584 7.83497 10.584Z" fill="#F1B517" stroke="black" stroke-width="0.0213334"/>
<path d="M7.68482 10.638C7.70802 10.638 7.72682 10.6192 7.72682 10.596C7.72682 10.5728 7.70802 10.554 7.68482 10.554C7.66163 10.554 7.64282 10.5728 7.64282 10.596C7.64282 10.6192 7.66163 10.638 7.68482 10.638Z" fill="#F1B517" stroke="black" stroke-width="0.0213334"/>
<path d="M7.45094 10.686C7.47413 10.686 7.49294 10.6672 7.49294 10.644C7.49294 10.6208 7.47413 10.602 7.45094 10.602C7.42774 10.602 7.40894 10.6208 7.40894 10.644C7.40894 10.6672 7.42774 10.686 7.45094 10.686Z" fill="#F1B517" stroke="black" stroke-width="0.0213334"/>
<path d="M7.34888 10.698C7.37208 10.698 7.39088 10.6792 7.39088 10.656C7.39088 10.6328 7.37208 10.614 7.34888 10.614C7.32569 10.614 7.30688 10.6328 7.30688 10.656C7.30688 10.6792 7.32569 10.698 7.34888 10.698Z" fill="#F1B517" stroke="black" stroke-width="0.0213334"/>
<path d="M7.24683 10.698C7.27003 10.698 7.28883 10.6792 7.28883 10.656C7.28883 10.6328 7.27003 10.614 7.24683 10.614C7.22364 10.614 7.20483 10.6328 7.20483 10.656C7.20483 10.6792 7.22364 10.698 7.24683 10.698Z" fill="#F1B517" stroke="black" stroke-width="0.0213334"/>
<path d="M7.15089 10.698C7.17408 10.698 7.19289 10.6792 7.19289 10.656C7.19289 10.6328 7.17408 10.614 7.15089 10.614C7.12769 10.614 7.10889 10.6328 7.10889 10.656C7.10889 10.6792 7.12769 10.698 7.15089 10.698Z" fill="#F1B517" stroke="black" stroke-width="0.0213334"/>
<path d="M7.19898 10.62C7.22218 10.62 7.24098 10.6012 7.24098 10.578C7.24098 10.5548 7.22218 10.536 7.19898 10.536C7.17579 10.536 7.15698 10.5548 7.15698 10.578C7.15698 10.6012 7.17579 10.62 7.19898 10.62Z" fill="#F1B517" stroke="black" stroke-width="0.0213334"/>
<path d="M7.29493 10.626C7.31813 10.626 7.33693 10.6072 7.33693 10.584C7.33693 10.5608 7.31813 10.542 7.29493 10.542C7.27173 10.542 7.25293 10.5608 7.25293 10.584C7.25293 10.6072 7.27173 10.626 7.29493 10.626Z" fill="#F1B517" stroke="black" stroke-width="0.0213334"/>
<path d="M7.38502 10.614C7.40821 10.614 7.42702 10.5952 7.42702 10.572C7.42702 10.5488 7.40821 10.53 7.38502 10.53C7.36182 10.53 7.34302 10.5488 7.34302 10.572C7.34302 10.5952 7.36182 10.614 7.38502 10.614Z" fill="#F1B517" stroke="black" stroke-width="0.0213334"/>
<path d="M7.34303 10.542C7.36622 10.542 7.38503 10.5232 7.38503 10.5C7.38503 10.4768 7.36622 10.458 7.34303 10.458C7.31983 10.458 7.30103 10.4768 7.30103 10.5C7.30103 10.5232 7.31983 10.542 7.34303 10.542Z" fill="#F1B517" stroke="black" stroke-width="0.0213334"/>
<path d="M7.24683 10.536C7.27003 10.536 7.28883 10.5172 7.28883 10.494C7.28883 10.4708 7.27003 10.452 7.24683 10.452C7.22364 10.452 7.20483 10.4708 7.20483 10.494C7.20483 10.5172 7.22364 10.536 7.24683 10.536Z" fill="#F1B517" stroke="black" stroke-width="0.0213334"/>
<path fill-rule="evenodd" clip-rule="evenodd" d="M8.18887 10.68C8.18887 10.662 8.14087 10.668 8.14087 10.644C8.14087 10.62 8.21287 10.644 8.21887 10.662C8.26087 10.626 8.27887 10.65 8.30287 10.662C8.33887 10.614 8.38087 10.614 8.42287 10.65C8.44687 10.626 8.50687 10.632 8.52487 10.662C8.56687 10.626 8.60287 10.632 8.62687 10.662C8.63887 10.644 8.65687 10.644 8.66887 10.662C8.68687 10.62 8.74087 10.632 8.76487 10.662C8.78287 10.638 8.80687 10.656 8.83087 10.668C8.84887 10.656 8.87887 10.656 8.87887 10.668C8.87887 10.692 8.84287 10.686 8.84287 10.704C8.84287 10.716 8.86687 10.704 8.86687 10.728C8.86687 10.746 8.83087 10.752 8.82487 10.728C8.80687 10.752 8.75887 10.74 8.75287 10.716C8.74837 10.7211 8.74283 10.7252 8.73662 10.728C8.73041 10.7308 8.72368 10.7323 8.71687 10.7323C8.71006 10.7323 8.70333 10.7308 8.69712 10.728C8.69091 10.7252 8.68537 10.7211 8.68087 10.716C8.66287 10.728 8.63887 10.728 8.63287 10.716C8.60287 10.746 8.54887 10.74 8.53087 10.704H8.51287C8.50724 10.7104 8.50031 10.7155 8.49256 10.719C8.4848 10.7225 8.47638 10.7243 8.46787 10.7243C8.45936 10.7243 8.45094 10.7225 8.44318 10.719C8.43542 10.7155 8.4285 10.7104 8.42287 10.704C8.36887 10.74 8.33887 10.728 8.30887 10.704C8.27887 10.746 8.22487 10.746 8.21887 10.704C8.19487 10.722 8.14687 10.728 8.14687 10.704C8.14687 10.692 8.18887 10.698 8.18887 10.68ZM8.28487 10.686C8.28487 10.698 8.27287 10.704 8.26087 10.704C8.24887 10.704 8.23687 10.698 8.23687 10.686C8.23687 10.674 8.24287 10.674 8.26087 10.674C8.27887 10.674 8.28487 10.68 8.28487 10.686ZM8.39887 10.674C8.39887 10.686 8.38087 10.692 8.36287 10.692C8.34487 10.692 8.33287 10.686 8.33287 10.674C8.33287 10.668 8.34487 10.656 8.36287 10.656C8.38087 10.656 8.39287 10.668 8.39287 10.674H8.39887ZM8.60887 10.686C8.60887 10.698 8.59687 10.704 8.57887 10.704C8.56087 10.704 8.55487 10.698 8.55487 10.686C8.55487 10.68 8.56687 10.668 8.57887 10.668C8.59087 10.668 8.60887 10.674 8.60887 10.686ZM8.49487 10.686C8.49487 10.698 8.48287 10.704 8.46487 10.704C8.44687 10.704 8.44087 10.698 8.44087 10.68C8.44087 10.668 8.45287 10.656 8.46487 10.656C8.47687 10.656 8.49487 10.668 8.49487 10.68V10.686ZM8.73487 10.686C8.73487 10.692 8.72887 10.704 8.71687 10.704C8.69887 10.704 8.68687 10.692 8.68687 10.68C8.68687 10.668 8.69887 10.662 8.71687 10.662C8.72887 10.662 8.74087 10.668 8.74087 10.68L8.73487 10.686ZM8.66287 10.686C8.66287 10.698 8.66287 10.704 8.65087 10.704C8.63887 10.704 8.63287 10.698 8.63287 10.686C8.63287 10.674 8.63887 10.674 8.65087 10.674L8.66287 10.686ZM8.80687 10.692C8.80687 10.704 8.80687 10.716 8.78887 10.716C8.78287 10.716 8.77087 10.704 8.77087 10.692C8.77087 10.68 8.78287 10.674 8.78887 10.674C8.80087 10.674 8.80687 10.68 8.80687 10.692Z" fill="#F1B517" stroke="black" stroke-width="0.0213334"/>
<path d="M9.23292 10.368L9.65292 10.236L9.83892 9.91802L10.4929 9.88802L10.4689 10.128L9.91092 10.23L9.86292 10.326L9.22092 10.506L9.23292 10.368Z" fill="#F1B517" stroke="black" stroke-width="0.0213334"/>
<path d="M9.67105 10.458L10.343 9.46802L10.373 9.49802L9.71305 10.482L9.67105 10.458Z" fill="#503200" stroke="black" stroke-width="0.0213334"/>
<path d="M10.2769 9.51002L10.3489 9.39002C10.3669 9.36602 10.3849 9.36002 10.4149 9.37802C10.4449 9.39002 10.4389 9.42002 10.4269 9.44402L10.3669 9.55802L10.2769 9.51002Z" fill="white" stroke="black" stroke-width="0.0213334"/>
<path d="M9.593 9.84602L10.943 9.70802L10.979 9.90602L9.635 10.044L9.593 9.84602Z" fill="#F1B517" stroke="black" stroke-width="0.0213334"/>
<path d="M10.9729 9.66002L11.0029 9.93002H10.9429L10.9069 9.68402L10.9669 9.66002H10.9729ZM10.7449 9.70202L10.7569 9.94802H10.7209L10.6909 9.73802L10.7389 9.70202H10.7449ZM9.82693 9.81002L9.86293 10.038H9.79693L9.76693 9.81002H9.82693ZM9.62893 9.81602L9.67093 10.08L9.59893 10.092L9.57493 9.95402C9.57493 9.98402 9.54493 10.002 9.51493 10.002C9.47893 10.002 9.45493 9.97202 9.45493 9.94202C9.45493 9.90602 9.47893 9.88202 9.51493 9.88202C9.52744 9.88099 9.53995 9.88391 9.55072 9.89037C9.56148 9.89683 9.56995 9.9065 9.57493 9.91802L9.55693 9.82202L9.62893 9.81602ZM10.1089 9.85802L10.3009 10.068L10.2769 10.092L10.0369 9.93002L10.1149 9.85802H10.1089ZM10.5529 10.38L10.3669 10.17L10.3849 10.146L10.6249 10.308L10.5529 10.38ZM10.0669 10.326L10.2889 10.152L10.3129 10.17L10.1329 10.398L10.0669 10.326ZM10.6249 9.92402L10.3909 10.092L10.3669 10.074L10.5469 9.84602L10.6249 9.92402ZM10.3729 9.78602L10.3489 10.062H10.3189L10.2469 9.79202L10.3729 9.78602ZM10.3009 10.446L10.3189 10.176H10.3549L10.3969 10.452H10.3009V10.446ZM9.99493 10.086L10.2829 10.11V10.14L9.99493 10.176V10.08V10.086ZM10.6789 10.176L10.3969 10.134V10.11L10.6849 10.08V10.176H10.6789Z" fill="#F1B517" stroke="black" stroke-width="0.0213334"/>
<path d="M10.3309 10.188C10.2879 10.188 10.2529 10.1558 10.2529 10.116C10.2529 10.0763 10.2879 10.044 10.3309 10.044C10.374 10.044 10.4089 10.0763 10.4089 10.116C10.4089 10.1558 10.374 10.188 10.3309 10.188Z" fill="#F1B517" stroke="black" stroke-width="0.0213334"/>
<path fill-rule="evenodd" clip-rule="evenodd" d="M9.92891 10.116C9.92891 10.326 10.1089 10.506 10.3309 10.506C10.3829 10.5068 10.4346 10.4974 10.4829 10.4782C10.5313 10.459 10.5754 10.4305 10.6127 10.3943C10.65 10.3581 10.6799 10.3149 10.7005 10.2671C10.7211 10.2194 10.7321 10.168 10.7329 10.116C10.7329 9.90002 10.5529 9.72602 10.3309 9.72602C10.2789 9.72523 10.2273 9.73469 10.1789 9.75386C10.1306 9.77303 10.0865 9.80153 10.0491 9.83775C10.0118 9.87397 9.98196 9.91718 9.96134 9.96493C9.94071 10.0127 9.92969 10.064 9.92891 10.116ZM10.0069 10.116C10.0077 10.1578 10.0167 10.199 10.0334 10.2373C10.0501 10.2756 10.0742 10.3102 10.1043 10.3391C10.1344 10.3681 10.1699 10.3909 10.2088 10.4061C10.2476 10.4214 10.2891 10.4288 10.3309 10.428C10.3732 10.4288 10.4152 10.4212 10.4544 10.4056C10.4937 10.3899 10.5295 10.3666 10.5597 10.337C10.5898 10.3074 10.6138 10.2721 10.6301 10.2331C10.6465 10.1941 10.6549 10.1523 10.6549 10.11C10.6518 10.0267 10.6161 9.948 10.5555 9.89077C10.4949 9.83354 10.4142 9.80239 10.3309 9.80402C10.2891 9.80323 10.2476 9.81067 10.2088 9.82592C10.1699 9.84117 10.1344 9.86393 10.1043 9.8929C10.0742 9.92188 10.0501 9.95649 10.0334 9.99478C10.0167 10.0331 10.0077 10.0743 10.0069 10.116Z" fill="#F1B517" stroke="black" stroke-width="0.0213334" stroke-linecap="round"/>
<path d="M10.5831 9.91802L10.6431 9.87002ZM10.1331 9.87002L10.0731 9.81002ZM10.0131 10.362L10.0791 10.308ZM10.5831 10.422L10.5231 10.362ZM9.22106 9.72602L9.15506 10.086L9.20906 10.11L9.26906 9.73202H9.22106V9.72602Z" fill="#F1B517"/>
<path d="M10.5831 9.91802L10.6431 9.87002M10.1331 9.87002L10.0731 9.81002M10.0131 10.362L10.0791 10.308M10.5831 10.422L10.5231 10.362M9.22106 9.72602L9.15506 10.086L9.20906 10.11L9.26906 9.73202H9.22106V9.72602Z" stroke="black" stroke-width="0.0213334"/>
<path d="M9.25694 9.68402C9.28694 9.66602 9.32894 9.69002 9.40094 9.60602C9.51494 9.70802 9.40094 9.72602 9.38894 9.82802C9.35894 9.84002 9.33494 9.74402 9.25094 9.73802L9.11294 9.72602L9.14294 9.68402H9.26294H9.25694Z" fill="white" stroke="black" stroke-width="0.0213334"/>
<path d="M9.20901 9.75002L9.22101 9.64802C9.23901 9.60602 9.28101 9.64202 9.28101 9.66002L9.26901 9.76202L9.20901 9.75002Z" fill="white" stroke="black" stroke-width="0.0213334"/>
<path fill-rule="evenodd" clip-rule="evenodd" d="M9.54497 10.044V10.14C9.58097 10.152 9.57497 10.176 9.57497 10.212V10.494C9.58097 10.518 9.61697 10.518 9.63497 10.53C9.65297 10.548 9.64697 10.578 9.57497 10.59L9.51497 10.596C9.42497 10.578 9.40697 10.548 9.45497 10.536C9.47297 10.524 9.50897 10.512 9.51497 10.5V10.428H9.45497C9.44297 10.428 9.41297 10.392 9.41297 10.362V10.212C9.41297 10.128 9.47297 10.116 9.49697 10.122V10.044H9.54497ZM9.44897 10.206C9.44897 10.182 9.48497 10.158 9.49697 10.158C9.50897 10.158 9.53897 10.188 9.53897 10.212V10.272C9.53897 10.296 9.52097 10.368 9.48497 10.374C9.47297 10.374 9.44897 10.35 9.44897 10.326V10.206Z" fill="#F1B517" stroke="black" stroke-width="0.0213334"/>
<path d="M9.93504 10.338C9.97704 10.326 9.97704 10.41 9.97704 10.41H9.91704C9.88704 10.422 9.86904 10.458 9.88104 10.482C9.89904 10.494 10.013 10.452 10.019 10.482C10.001 10.596 9.84504 10.638 9.79104 10.59C9.73704 10.536 9.72504 10.41 9.89904 10.368L9.93504 10.338ZM9.89904 10.374L9.91704 10.41Z" fill="white"/>
<path d="M9.91704 10.41H9.97704C9.97704 10.41 9.97704 10.326 9.93504 10.338L9.89904 10.368C9.72504 10.41 9.73704 10.536 9.79104 10.59C9.84504 10.638 10.001 10.596 10.019 10.482C10.013 10.452 9.89904 10.494 9.88104 10.482C9.86904 10.458 9.88704 10.422 9.91704 10.41ZM9.91704 10.41L9.89904 10.374" stroke="black" stroke-width="0.0213334"/>
<path d="M11.0929 10.38L11.1529 10.14ZM11.0269 10.368L11.1169 10.182ZM10.8769 10.32L11.0749 10.212ZM10.7869 10.296L11.1589 10.134Z" fill="#F1B517"/>
<path d="M11.0929 10.38L11.1529 10.14M11.0269 10.368L11.1169 10.182M10.8769 10.32L11.0749 10.212M10.7869 10.296L11.1589 10.134" stroke="black" stroke-width="0.0213334"/>
<path d="M11.381 9.96002L11.537 9.96602C11.549 9.97203 11.507 10.02 11.513 10.032C11.549 10.098 11.777 10.092 11.795 10.08C11.825 10.05 11.585 10.032 11.579 10.02C11.579 9.99602 11.615 9.94802 11.609 9.91802C11.609 9.87602 11.507 9.85802 11.507 9.85802L11.381 9.96002Z" fill="#D20014" stroke="#D20014" stroke-width="0.0213334"/>
<path d="M11.201 10.08L11.501 9.82802C11.501 9.82802 11.519 9.81602 11.531 9.82802C11.543 9.84002 11.531 9.85202 11.531 9.85202L11.207 10.116L11.201 10.086V10.08Z" fill="#503200" stroke="black" stroke-width="0.0213334"/>
<path d="M10.9011 10.332L11.1531 10.116L11.1711 10.056L11.2191 10.092C11.2371 10.104 11.2551 10.14 11.2551 10.14H11.1891L10.9731 10.344L10.9071 10.332H10.9011Z" fill="#F1B517" stroke="black" stroke-width="0.0213334"/>
<path d="M10.043 10.668C10.0198 10.668 10.001 10.6492 10.001 10.626C10.001 10.6028 10.0198 10.584 10.043 10.584C10.0662 10.584 10.085 10.6028 10.085 10.626C10.085 10.6492 10.0662 10.668 10.043 10.668Z" fill="#F1B517" stroke="black" stroke-width="0.0213334"/>
<path d="M10.157 10.584C10.1338 10.584 10.115 10.5652 10.115 10.542C10.115 10.5188 10.1338 10.5 10.157 10.5C10.1802 10.5 10.199 10.5188 10.199 10.542C10.199 10.5652 10.1802 10.584 10.157 10.584Z" fill="#F1B517" stroke="black" stroke-width="0.0213334"/>
<path d="M10.3071 10.638C10.2839 10.638 10.2651 10.6192 10.2651 10.596C10.2651 10.5728 10.2839 10.554 10.3071 10.554C10.3303 10.554 10.3491 10.5728 10.3491 10.596C10.3491 10.6192 10.3303 10.638 10.3071 10.638Z" fill="#F1B517" stroke="black" stroke-width="0.0213334"/>
<path d="M10.541 10.686C10.5178 10.686 10.499 10.6672 10.499 10.644C10.499 10.6208 10.5178 10.602 10.541 10.602C10.5642 10.602 10.583 10.6208 10.583 10.644C10.583 10.6672 10.5642 10.686 10.541 10.686Z" fill="#F1B517" stroke="black" stroke-width="0.0213334"/>
<path d="M10.6431 10.698C10.6199 10.698 10.6011 10.6792 10.6011 10.656C10.6011 10.6328 10.6199 10.614 10.6431 10.614C10.6663 10.614 10.6851 10.6328 10.6851 10.656C10.6851 10.6792 10.6663 10.698 10.6431 10.698Z" fill="#F1B517" stroke="black" stroke-width="0.0213334"/>
<path d="M10.7451 10.698C10.7219 10.698 10.7031 10.6792 10.7031 10.656C10.7031 10.6328 10.7219 10.614 10.7451 10.614C10.7683 10.614 10.7871 10.6328 10.7871 10.656C10.7871 10.6792 10.7683 10.698 10.7451 10.698Z" fill="#F1B517" stroke="black" stroke-width="0.0213334"/>
<path d="M10.8411 10.698C10.8179 10.698 10.7991 10.6792 10.7991 10.656C10.7991 10.6328 10.8179 10.614 10.8411 10.614C10.8643 10.614 10.8831 10.6328 10.8831 10.656C10.8831 10.6792 10.8643 10.698 10.8411 10.698Z" fill="#F1B517" stroke="black" stroke-width="0.0213334"/>
<path d="M10.793 10.62C10.7698 10.62 10.751 10.6012 10.751 10.578C10.751 10.5548 10.7698 10.536 10.793 10.536C10.8162 10.536 10.835 10.5548 10.835 10.578C10.835 10.6012 10.8162 10.62 10.793 10.62Z" fill="#F1B517" stroke="black" stroke-width="0.0213334"/>
<path d="M10.697 10.626C10.6738 10.626 10.655 10.6072 10.655 10.584C10.655 10.5608 10.6738 10.542 10.697 10.542C10.7202 10.542 10.739 10.5608 10.739 10.584C10.739 10.6072 10.7202 10.626 10.697 10.626Z" fill="#F1B517" stroke="black" stroke-width="0.0213334"/>
<path d="M10.6069 10.614C10.5837 10.614 10.5649 10.5952 10.5649 10.572C10.5649 10.5488 10.5837 10.53 10.6069 10.53C10.6301 10.53 10.6489 10.5488 10.6489 10.572C10.6489 10.5952 10.6301 10.614 10.6069 10.614Z" fill="#F1B517" stroke="black" stroke-width="0.0213334"/>
<path d="M10.6489 10.542C10.6257 10.542 10.6069 10.5232 10.6069 10.5C10.6069 10.4768 10.6257 10.458 10.6489 10.458C10.6721 10.458 10.6909 10.4768 10.6909 10.5C10.6909 10.5232 10.6721 10.542 10.6489 10.542Z" fill="#F1B517" stroke="black" stroke-width="0.0213334"/>
<path d="M10.7451 10.536C10.7219 10.536 10.7031 10.5172 10.7031 10.494C10.7031 10.4708 10.7219 10.452 10.7451 10.452C10.7683 10.452 10.7871 10.4708 10.7871 10.494C10.7871 10.5172 10.7683 10.536 10.7451 10.536Z" fill="#F1B517" stroke="black" stroke-width="0.0213334"/>
<path fill-rule="evenodd" clip-rule="evenodd" d="M9.80307 10.68C9.80307 10.662 9.85107 10.668 9.85107 10.644C9.85107 10.62 9.77907 10.644 9.77307 10.662C9.73107 10.626 9.71307 10.65 9.68907 10.662C9.65307 10.614 9.61107 10.614 9.56907 10.65C9.54507 10.626 9.48507 10.632 9.46707 10.662C9.42507 10.626 9.38907 10.632 9.36507 10.662C9.35307 10.644 9.33507 10.644 9.32307 10.662C9.30507 10.62 9.25107 10.632 9.22707 10.662C9.20907 10.638 9.18507 10.656 9.16107 10.668C9.14307 10.656 9.11307 10.656 9.11307 10.668C9.11307 10.692 9.14907 10.686 9.14907 10.704C9.14907 10.716 9.12507 10.704 9.12507 10.728C9.12507 10.746 9.16107 10.752 9.16707 10.728C9.18507 10.752 9.23307 10.74 9.23907 10.716C9.24358 10.7211 9.24912 10.7252 9.25532 10.728C9.26153 10.7308 9.26826 10.7323 9.27507 10.7323C9.28188 10.7323 9.28861 10.7308 9.29482 10.728C9.30103 10.7252 9.30657 10.7211 9.31107 10.716C9.32907 10.728 9.35307 10.728 9.35907 10.716C9.38907 10.746 9.44307 10.74 9.46107 10.704H9.47907C9.4847 10.7104 9.49163 10.7155 9.49939 10.719C9.50715 10.7225 9.51556 10.7243 9.52407 10.7243C9.53259 10.7243 9.541 10.7225 9.54876 10.719C9.55652 10.7155 9.56344 10.7104 9.56907 10.704C9.62307 10.74 9.65307 10.728 9.68307 10.704C9.71307 10.746 9.76707 10.746 9.77307 10.704C9.79707 10.722 9.84507 10.728 9.84507 10.704C9.84507 10.692 9.80307 10.698 9.80307 10.68ZM9.70707 10.686C9.70707 10.698 9.71907 10.704 9.73107 10.704C9.74307 10.704 9.75507 10.698 9.75507 10.686C9.75507 10.674 9.74907 10.674 9.73107 10.674C9.71307 10.674 9.70707 10.68 9.70707 10.686ZM9.59307 10.674C9.59307 10.686 9.61107 10.692 9.62907 10.692C9.64707 10.692 9.65907 10.686 9.65907 10.674C9.65907 10.668 9.64707 10.656 9.62907 10.656C9.61107 10.656 9.59907 10.668 9.59907 10.674H9.59307ZM9.38307 10.686C9.38307 10.698 9.39507 10.704 9.41307 10.704C9.43107 10.704 9.43707 10.698 9.43707 10.686C9.43707 10.68 9.42507 10.668 9.41307 10.668C9.40107 10.668 9.38307 10.674 9.38307 10.686ZM9.49707 10.686C9.49707 10.698 9.50907 10.704 9.52707 10.704C9.54507 10.704 9.55107 10.698 9.55107 10.68C9.55107 10.668 9.53907 10.656 9.52707 10.656C9.51507 10.656 9.49707 10.668 9.49707 10.68V10.686ZM9.25707 10.686C9.25707 10.692 9.26307 10.704 9.27507 10.704C9.29307 10.704 9.30507 10.692 9.30507 10.68C9.30507 10.668 9.29307 10.662 9.27507 10.662C9.26307 10.662 9.25107 10.668 9.25107 10.68L9.25707 10.686ZM9.32907 10.686C9.32907 10.698 9.32907 10.704 9.34107 10.704C9.35307 10.704 9.35907 10.698 9.35907 10.686C9.35907 10.674 9.35307 10.674 9.34107 10.674L9.32907 10.686ZM9.18507 10.692C9.18507 10.704 9.18507 10.716 9.20307 10.716C9.20907 10.716 9.22107 10.704 9.22107 10.692C9.22107 10.68 9.20907 10.674 9.20307 10.674C9.19107 10.674 9.18507 10.68 9.18507 10.692Z" fill="#F1B517" stroke="black" stroke-width="0.0213334"/>
<path d="M8.98704 9.94202C8.83704 9.94202 8.71704 10.002 8.71704 10.068C8.71704 10.08 8.71704 10.092 8.72904 10.104C8.75904 10.14 8.86704 10.164 8.99304 10.164C9.11304 10.164 9.20904 10.146 9.24504 10.11C9.25704 10.098 9.26304 10.086 9.26304 10.068C9.26304 10.002 9.14304 9.94802 8.98704 9.94802V9.94202Z" fill="#0A328C" stroke="#0A328C" stroke-width="0.0213334"/>
<path d="M9.26304 10.08V10.5C9.26304 10.554 9.14304 10.59 8.99304 10.59C8.84304 10.59 8.71704 10.554 8.71704 10.5V10.08C8.71704 10.128 8.83704 10.17 8.98704 10.17C9.14304 10.17 9.26304 10.128 9.26304 10.08Z" fill="#F1B517" stroke="black" stroke-width="0.0213334"/>
<path d="M8.71704 10.08V10.14L8.84904 10.56L8.95704 10.236L9.07704 10.566L9.15504 10.254L9.26304 10.464V10.35L9.16704 10.146C9.1552 10.1505 9.14319 10.1545 9.13104 10.158L9.07104 10.386L8.98104 10.17C8.96704 10.1704 8.95304 10.1704 8.93904 10.17L8.84904 10.386L8.75304 10.122C8.72904 10.11 8.71704 10.092 8.71704 10.08Z" fill="#D20014" stroke="#D20014" stroke-width="0.0213334"/>
<path d="M9.26304 10.422V10.5C9.26304 10.554 9.14304 10.59 8.99304 10.59C8.84304 10.59 8.71704 10.554 8.71704 10.5V10.422C8.71704 10.476 8.83704 10.512 8.98704 10.512C9.14304 10.512 9.26304 10.476 9.26304 10.422Z" fill="#0A328C" stroke="#0A328C" stroke-width="0.0213334"/>
<path d="M9.10104 10.5L9.03504 10.512V10.59L9.10704 10.584V10.506L9.10104 10.5ZM8.81304 10.494V10.572L8.87904 10.584V10.506C8.85681 10.5034 8.83477 10.4994 8.81304 10.494ZM8.71704 10.422V10.5C8.71704 10.518 8.72904 10.53 8.74704 10.542V10.464C8.72904 10.452 8.71704 10.44 8.71704 10.422ZM9.26304 10.434C9.26304 10.446 9.23904 10.464 9.21504 10.476V10.554C9.24504 10.542 9.26304 10.524 9.26304 10.5V10.44V10.434Z" fill="#F1B517" stroke="black" stroke-width="0.0213334"/>
<path d="M9.26304 10.08V10.5C9.26304 10.554 9.14304 10.59 8.99304 10.59C8.84304 10.59 8.71704 10.554 8.71704 10.5V10.08" stroke="black" stroke-width="0.0213334"/>
<path d="M9.20286 10.05C9.20286 10.08 9.10686 10.11 8.99286 10.11C8.87286 10.11 8.77686 10.08 8.77686 10.05C8.77686 10.02 8.87286 9.99603 8.98686 9.99603C9.10686 9.99603 9.20286 10.02 9.20286 10.056V10.05Z" fill="white" stroke="white" stroke-width="0.0213334"/>
<path d="M8.92094 10.092L8.93294 10.164H8.99294L8.99894 10.092H8.92094ZM9.16694 10.074L9.10694 10.086L9.11294 10.158L9.17294 10.146V10.08L9.16694 10.074ZM8.84294 9.95402L8.80094 9.97202L8.80694 10.032L8.84294 10.02V9.96002V9.95402ZM8.98694 9.93602H8.96894L8.98094 10.008H9.01694L9.02894 9.93602C9.01494 9.93552 9.00093 9.93552 8.98694 9.93602ZM9.14894 9.96002L9.14294 10.02L9.18494 10.038V9.97802C9.17333 9.97127 9.16131 9.96526 9.14894 9.96002ZM8.75894 10.128L8.77094 10.05L8.71094 10.02V10.11L8.75894 10.128ZM9.26294 10.11V10.032L9.21494 10.05L9.26294 10.11ZM9.82094 9.60002C9.86894 9.60002 9.94094 9.66002 9.94694 9.75002C9.94694 9.81002 9.84494 9.81002 9.84494 9.81002C9.84494 9.84002 9.78494 9.86402 9.73694 9.87002C9.68894 9.87002 9.74894 9.78002 9.74894 9.78002C9.71894 9.70202 9.76094 9.61802 9.76094 9.61802L9.82094 9.60002Z" fill="#F1B517" stroke="black" stroke-width="0.0213334"/>
<path d="M9.74902 9.78002H9.79702C9.79702 9.78002 9.79702 9.79802 9.80902 9.79802C9.82102 9.79802 9.82702 9.77402 9.82702 9.77402H9.89902" fill="#F1B517"/>
<path d="M9.74902 9.78002H9.79702C9.79702 9.78002 9.79702 9.79802 9.80902 9.79802C9.82102 9.79802 9.82702 9.77402 9.82702 9.77402H9.89902" stroke="black" stroke-width="0.0213334"/>
<path d="M9.84489 9.65402C9.88689 9.62402 9.85089 9.56402 9.82089 9.56402H9.76089C9.72489 9.56402 9.67688 9.60002 9.68288 9.62402C9.68288 9.65402 9.70689 9.66602 9.73089 9.66002C9.74289 9.66002 9.76689 9.62402 9.77889 9.62402C9.79689 9.62402 9.83889 9.66002 9.84489 9.65402Z" fill="#D20014" stroke="#F1B517" stroke-width="0.0213334"/>
<path fill-rule="evenodd" clip-rule="evenodd" d="M6.8509 10.488C6.8149 10.494 6.8089 10.536 6.8209 10.578C6.6649 10.62 6.5209 10.68 6.3769 10.722C6.3709 10.692 6.4489 10.614 6.4489 10.614C6.4669 10.62 6.4849 10.668 6.4849 10.668C6.4849 10.572 6.5809 10.512 6.5809 10.512C6.5209 10.5 6.3589 10.572 6.3409 10.596C6.3409 10.596 6.4009 10.584 6.4129 10.596C6.4129 10.596 6.2809 10.734 6.2749 10.776C6.2989 10.818 6.5149 10.854 6.5149 10.854C6.5149 10.866 6.4549 10.914 6.4549 10.914C6.5449 10.926 6.6769 10.866 6.7129 10.83C6.7129 10.83 6.6109 10.818 6.5329 10.752C6.5329 10.752 6.5449 10.794 6.5329 10.812C6.5329 10.812 6.4129 10.776 6.3949 10.752C6.3949 10.752 6.6949 10.68 6.8389 10.632C6.8449 10.662 6.8749 10.71 6.9109 10.698C6.9289 10.692 6.9229 10.65 6.9109 10.614C6.91577 10.6184 6.92148 10.6217 6.92767 10.6237C6.93386 10.6258 6.9404 10.6266 6.9469 10.626C6.9709 10.626 6.9889 10.608 6.9889 10.584C6.9889 10.56 6.9709 10.542 6.9469 10.542C6.93777 10.5425 6.92897 10.5456 6.92153 10.5509C6.91409 10.5562 6.90832 10.5635 6.9049 10.572C6.8989 10.542 6.8809 10.488 6.8569 10.494L6.8509 10.488ZM6.9709 10.584C6.9709 10.596 6.9589 10.602 6.9469 10.602C6.9441 10.603 6.9411 10.6033 6.93817 10.6029C6.93523 10.6024 6.93245 10.6012 6.93007 10.5995C6.9277 10.5977 6.9258 10.5953 6.92455 10.5926C6.9233 10.5899 6.92273 10.587 6.9229 10.584C6.9229 10.572 6.9349 10.56 6.9469 10.56C6.9589 10.56 6.9649 10.572 6.9649 10.584H6.9709Z" fill="#F1B517" stroke="black" stroke-width="0.0213334"/>
<path d="M11.579 10.674C11.591 10.65 11.579 10.542 11.579 10.542C11.549 10.542 11.519 10.584 11.519 10.584C11.549 10.488 11.471 10.344 11.471 10.344C11.525 10.35 11.705 10.524 11.711 10.56C11.711 10.56 11.633 10.53 11.621 10.536C11.639 10.626 11.699 10.668 11.723 10.716C11.723 10.716 11.621 10.734 11.627 10.824H11.561C11.537 10.794 11.567 10.746 11.567 10.746L11.105 10.554C11.075 10.542 11.009 10.506 11.021 10.47C11.027 10.44 11.141 10.488 11.165 10.5L11.585 10.674H11.579Z" fill="#F1B517" stroke="black" stroke-width="0.0213334"/>
<path d="M11.1349 10.59L11.1949 10.494C11.2129 10.464 11.1709 10.434 11.1409 10.47L11.0809 10.56C11.0569 10.614 11.1109 10.626 11.1409 10.59H11.1349Z" fill="#F1B517" stroke="black" stroke-width="0.0213334"/>
<path d="M7.88218 10.8211L7.87866 10.7156L7.74507 10.7191L7.73804 10.8387L7.88218 10.8211Z" fill="white" stroke="black" stroke-width="0.01875"/>
<path d="M6.91538 10.976L6.7396 10.8776C7.46733 10.9444 7.61851 10.6877 7.79429 10.6737C7.89976 10.6666 7.91733 10.7932 7.70991 10.7334L7.76265 10.867C7.76265 10.867 7.24233 11.1588 6.73608 11.0428L6.91187 10.9725L6.91538 10.976ZM10.097 10.8213V10.7158H10.2623L10.2693 10.8354L10.0935 10.8213H10.097Z" fill="white" stroke="black" stroke-width="0.01875"/>
<path d="M11.0956 10.9477L11.2643 10.8562C10.4276 10.8844 10.6174 10.7191 10.1991 10.6734C10.0936 10.6629 10.0092 10.8035 10.2834 10.7332L10.2307 10.8668H10.3608C10.638 11.0347 10.9702 11.0865 11.2854 11.0109L11.0956 10.9477Z" fill="white" stroke="black" stroke-width="0.01875"/>
<path d="M7.7063 10.7332V10.923C7.7063 10.923 8.17036 11.0988 8.99653 11.0988C9.82622 11.0988 10.2868 10.923 10.2868 10.923V10.7332C10.2868 10.7332 9.9352 10.8949 8.99653 10.8949C8.06138 10.8949 7.7063 10.7332 7.7063 10.7332Z" fill="white" stroke="black" stroke-width="0.01875"/>
<path d="M7.77319 10.9266L7.81538 10.7859L7.83296 10.793L7.7978 10.9125L7.86812 10.9336L7.8646 10.9512L7.77319 10.923V10.9266ZM7.9103 10.8633V10.8352L7.91733 10.8141L7.93843 10.8176L7.9314 10.8422L7.92085 10.8668H7.9103V10.8633ZM8.10718 10.8527L8.12827 10.8598L8.11069 10.9406C8.11069 10.9547 8.10366 10.9652 8.09663 10.9758L8.07554 10.9898C8.06401 10.9928 8.05191 10.9928 8.04038 10.9898C8.0276 10.9885 8.01544 10.9836 8.00522 10.9758C7.9996 10.97 7.99591 10.9626 7.99468 10.9547V10.9195L8.01226 10.8352L8.03335 10.8387L8.01577 10.9195C8.01226 10.9336 8.01226 10.9441 8.01577 10.9477C8.01577 10.9547 8.01577 10.9617 8.0228 10.9652L8.04038 10.9723H8.07554C8.08257 10.9652 8.08608 10.9547 8.0896 10.9371L8.10718 10.8527ZM8.12827 11.0039L8.15288 10.8633H8.17397L8.23374 10.9898L8.25132 10.8773L8.2689 10.8809L8.24429 11.0215H8.22671L8.16694 10.8949L8.14937 11.0074H8.12827V11.0039ZM8.28296 11.0285L8.30405 10.8879H8.32163L8.30054 11.0285H8.28296ZM8.33921 10.9652C8.34023 10.9451 8.34906 10.9262 8.36382 10.9125C8.37166 10.9063 8.38073 10.9018 8.39043 10.8994C8.40013 10.897 8.41023 10.8966 8.42007 10.8984C8.43413 10.8984 8.44468 10.902 8.45522 10.909C8.46577 10.9195 8.4728 10.9266 8.47632 10.9406C8.47983 10.9512 8.48335 10.9652 8.47983 10.9793C8.47787 10.9919 8.47306 11.0039 8.46577 11.0145C8.45874 11.0285 8.44819 11.0355 8.43765 11.0391C8.42664 11.0441 8.4146 11.0465 8.40249 11.0461C8.38971 11.0447 8.37755 11.0398 8.36733 11.032C8.35327 11.025 8.34624 11.0145 8.34272 11.0004C8.33886 10.9891 8.33765 10.9771 8.33921 10.9652ZM8.3603 10.9652C8.35679 10.9863 8.3603 11.0004 8.36733 11.0109C8.37788 11.0215 8.38843 11.0285 8.40249 11.0285C8.41655 11.0285 8.43062 11.0285 8.44116 11.018C8.45171 11.0074 8.45874 10.9969 8.45874 10.9758C8.46114 10.9654 8.46114 10.9545 8.45874 10.9441C8.45518 10.9355 8.44905 10.9281 8.44116 10.923C8.43409 10.9173 8.42557 10.9137 8.41655 10.9125C8.40249 10.9125 8.39194 10.9125 8.3814 10.923C8.36733 10.9301 8.3603 10.9477 8.3603 10.9687V10.9652ZM8.49741 11.0531L8.50796 10.909H8.52905L8.59937 11.0285L8.6064 10.916H8.62749L8.61343 11.0637H8.59585L8.52554 10.9406L8.51499 11.0531H8.49741ZM8.70835 11.0672L8.71187 10.923L8.81733 10.9266L8.81382 10.9441H8.73296V10.9863H8.80327L8.79976 11.0039H8.72944V11.0672H8.70835ZM8.81382 11.0707L8.8771 10.9301H8.89819L8.95796 11.0742H8.93335L8.91577 11.0285H8.85952L8.84194 11.0742H8.82085L8.81382 11.0707ZM8.85952 11.0145H8.91226L8.89819 10.9758C8.89422 10.9654 8.8907 10.9548 8.88765 10.9441C8.88765 10.9547 8.88062 10.9617 8.8771 10.9723L8.85952 11.0145ZM8.97554 11.0742V10.9301H8.99663V11.0742H8.97554ZM9.06694 11.0742V10.9477H9.01772V10.9301H9.13374V10.9441H9.08452L9.08804 11.0742H9.06694ZM9.2146 11.0707L9.20757 10.9266H9.22866L9.23218 11.0531L9.30601 11.0496V11.0672H9.2146V11.0707ZM9.31655 11.0672L9.36226 10.9195H9.38335L9.45366 11.0566H9.43257L9.41147 11.0145L9.34819 11.0215L9.33765 11.0637H9.31655V11.0672ZM9.35171 11.0039H9.40444L9.38687 10.9617C9.3818 10.9525 9.37711 10.9432 9.3728 10.9336C9.37119 10.9431 9.36884 10.9525 9.36577 10.9617L9.35522 11.0039H9.35171ZM9.52749 11.0496L9.51343 10.909L9.61186 10.8949V10.9125L9.53452 10.923L9.53804 10.9652L9.60835 10.9582V10.9758L9.54155 10.9828L9.54858 11.0461L9.53101 11.0496H9.52749ZM9.63999 10.9687C9.63647 10.9441 9.63999 10.923 9.65054 10.909C9.65634 10.9011 9.66371 10.8946 9.67219 10.8897C9.68066 10.8849 9.69005 10.8819 9.69976 10.8809C9.71188 10.8801 9.724 10.8825 9.73491 10.8879C9.74897 10.8879 9.75952 10.8984 9.76655 10.909C9.77415 10.9202 9.77905 10.933 9.78088 10.9464C9.78271 10.9598 9.78142 10.9735 9.7771 10.9863C9.77305 10.9976 9.7657 11.0074 9.75601 11.0145C9.74546 11.0215 9.7314 11.0285 9.72085 11.0285C9.70788 11.031 9.69448 11.0298 9.68218 11.025C9.67065 11.0196 9.6609 11.0111 9.65405 11.0004C9.64665 10.9899 9.64183 10.9779 9.63999 10.9652V10.9687ZM9.65757 10.9652C9.66108 10.9828 9.66811 10.9969 9.67866 11.0004C9.68921 11.0109 9.70327 11.0145 9.71733 11.0145C9.7314 11.0145 9.74546 11.0039 9.75249 10.9934C9.75952 10.9828 9.76304 10.9687 9.75952 10.9477C9.75807 10.9376 9.75447 10.928 9.74897 10.9195C9.74391 10.9116 9.73655 10.9055 9.72788 10.902C9.71905 10.898 9.70927 10.8968 9.69976 10.8984C9.693 10.8988 9.6864 10.9005 9.68035 10.9036C9.6743 10.9066 9.66894 10.9108 9.6646 10.916C9.65757 10.9266 9.65757 10.9441 9.66108 10.9652H9.65757ZM9.81577 11.0145L9.78765 10.8738L9.85444 10.8598H9.88608C9.89312 10.8598 9.90015 10.8633 9.90366 10.8703C9.91069 10.8738 9.91421 10.8809 9.91421 10.8914C9.91504 10.9002 9.91253 10.909 9.90718 10.916C9.90366 10.923 9.89312 10.9301 9.87905 10.9336L9.89311 10.9406L9.91421 10.9547L9.94585 10.9898L9.92124 10.9934L9.89663 10.9687C9.89103 10.9626 9.88517 10.9568 9.87905 10.9512C9.87588 10.9483 9.87233 10.946 9.86851 10.9441C9.86502 10.9435 9.86145 10.9435 9.85796 10.9441H9.8228L9.83686 11.0109H9.81577V11.0145ZM9.81929 10.9301L9.86147 10.923C9.87202 10.923 9.87905 10.923 9.88257 10.916C9.88623 10.9139 9.88919 10.9108 9.89106 10.9071C9.89294 10.9033 9.89366 10.8991 9.89311 10.8949C9.893 10.8913 9.89197 10.8878 9.89012 10.8848C9.88827 10.8817 9.88568 10.8791 9.88257 10.8773H9.85796L9.81226 10.8844L9.81929 10.9301ZM10.0548 10.916H10.0759C10.0759 10.9301 10.0724 10.9441 10.0619 10.9547C10.0548 10.9652 10.0408 10.9723 10.0267 10.9758C10.0141 10.9794 10.0007 10.9794 9.98804 10.9758C9.97497 10.9715 9.9638 10.9628 9.9564 10.9512C9.9494 10.9405 9.94461 10.9286 9.94233 10.916V10.8773C9.94233 10.8633 9.94936 10.8527 9.95991 10.8457C9.97012 10.8379 9.98228 10.833 9.99507 10.8316C10.0066 10.8283 10.0187 10.8283 10.0302 10.8316C10.0443 10.8387 10.0548 10.8457 10.0619 10.8598L10.0443 10.8668C10.0392 10.8589 10.0319 10.8528 10.0232 10.8492C10.0152 10.8468 10.0066 10.8468 9.99858 10.8492C9.98452 10.8492 9.97749 10.8527 9.97046 10.8598C9.96384 10.8663 9.96004 10.8751 9.95991 10.8844C9.9581 10.9042 9.96306 10.924 9.97397 10.9406C9.98101 10.9512 9.98804 10.9547 9.99507 10.9582C10.0056 10.9582 10.0126 10.9617 10.0232 10.9582C10.0337 10.9582 10.0408 10.9547 10.0478 10.9441C10.0548 10.9371 10.0583 10.9266 10.0548 10.916ZM10.1111 10.9512L10.0724 10.8141L10.1779 10.7859V10.8035L10.0935 10.8281L10.1076 10.8703L10.1849 10.8492L10.1919 10.8633L10.1111 10.8844L10.1251 10.9336L10.213 10.909L10.2201 10.9266L10.1146 10.9547L10.1111 10.9512Z" fill="black"/>
</g>
<defs>
<clipPath id="clip0_14_1181">
<rect width="18" height="18" rx="9" fill="white"/>
</clipPath>
</defs>
</svg>
