<svg width="18" height="18" viewBox="0 0 18 18" fill="none" xmlns="http://www.w3.org/2000/svg">
<g clip-path="url(#clip0_8201_10601)">
<path d="M0.559793 5.86953C0.198035 6.84455 0 7.89906 0 8.99995C0 10.1008 0.198035 11.1554 0.559793 12.1304L9 12.913L17.4402 12.1304C17.802 11.1554 18 10.1008 18 8.99995C18 7.89906 17.802 6.84455 17.4402 5.86953L9 5.08691L0.559793 5.86953Z" fill="#F0F0F0"/>
<path d="M9.00023 0C5.13058 0 1.83166 2.44237 0.560059 5.86958H17.4405C16.1688 2.44237 12.8699 0 9.00023 0Z" fill="#D80027"/>
<path d="M9.00023 18C12.8699 18 16.1688 15.5576 17.4405 12.1304H0.560059C1.83166 15.5576 5.13058 18 9.00023 18Z" fill="#6DA544"/>
</g>
<defs>
<clipPath id="clip0_8201_10601">
<rect width="18" height="18" fill="white"/>
</clipPath>
</defs>
</svg>
