<svg width="18" height="18" viewBox="0 0 18 18" fill="none" xmlns="http://www.w3.org/2000/svg">
<g clip-path="url(#clip0_8201_10643)">
<path d="M9 18C13.9706 18 18 13.9706 18 9C18 4.02944 13.9706 0 9 0C4.02944 0 0 4.02944 0 9C0 13.9706 4.02944 18 9 18Z" fill="#F0F0F0"/>
<path d="M12.3885 7.04355H10.1292L8.99966 5.08704L7.87012 7.04355H5.61084L6.74055 9.00007L5.61084 10.9566H7.87012L8.99966 12.9131L10.1292 10.9566H12.3885L11.2588 9.00007L12.3885 7.04355ZM10.3874 9.00007L9.69361 10.202H8.30581L7.61186 9.00007L8.30578 7.79815H9.69357L10.3874 9.00007ZM8.99966 6.59619L9.25791 7.04352H8.74147L8.99966 6.59619ZM6.91791 7.79815H7.43443L7.17617 8.24547L6.91791 7.79815ZM6.91791 10.202L7.17621 9.75466L7.43447 10.202H6.91791ZM8.99966 11.4039L8.74143 10.9566H9.25791L8.99966 11.4039ZM11.0814 10.202H10.5649L10.8232 9.75466L11.0814 10.202ZM10.5649 7.79815H11.0814L10.8231 8.24547L10.5649 7.79815Z" fill="#0052B4"/>
<path d="M14.6022 1.95654H3.39745C2.57609 2.61073 1.8717 3.40533 1.3208 4.30438H16.6789C16.1279 3.40537 15.4236 2.61073 14.6022 1.95654Z" fill="#0052B4"/>
<path d="M3.39745 16.0435H14.6022C15.4236 15.3893 16.1279 14.5947 16.6788 13.6957H1.3208C1.87173 14.5947 2.57612 15.3893 3.39745 16.0435Z" fill="#0052B4"/>
</g>
<defs>
<clipPath id="clip0_8201_10643">
<rect width="18" height="18" fill="white"/>
</clipPath>
</defs>
</svg>
