<svg width="18" height="18" viewBox="0 0 18 18" fill="none" xmlns="http://www.w3.org/2000/svg">
<g clip-path="url(#clip0_14_1174)">
<mask id="mask0_14_1174" style="mask-type:luminance" maskUnits="userSpaceOnUse" x="0" y="0" width="18" height="18">
<path d="M0 0H18V18H0V0Z" fill="white"/>
</mask>
<g mask="url(#mask0_14_1174)">
<path fill-rule="evenodd" clip-rule="evenodd" d="M21.7758 18H-3.9375V0H21.7758V18Z" fill="white"/>
<path fill-rule="evenodd" clip-rule="evenodd" d="M21.7758 4.05H-3.9375V1.6875H21.7758V4.05ZM21.7758 16.3723H-3.9375V14.0098H21.7758V16.3723ZM4.79531 6.7043L8.66602 13.4402L12.6211 6.73594L4.79531 6.70781V6.7043Z" fill="#0038B8"/>
<path fill-rule="evenodd" clip-rule="evenodd" d="M7.93833 11.1727L8.6731 12.4207L9.42544 11.1797L7.93481 11.1727H7.93833Z" fill="white"/>
<path fill-rule="evenodd" clip-rule="evenodd" d="M4.78125 11.2711L8.65547 4.53516L12.607 11.243L4.78125 11.2711Z" fill="#0038B8"/>
<path fill-rule="evenodd" clip-rule="evenodd" d="M7.93823 6.73594L8.673 5.48789L9.42534 6.73242L7.93472 6.73594H7.93823ZM6.39839 9.53086L5.6355 10.7965L7.0769 10.793L6.39839 9.52735V9.53086ZM5.64956 7.19297L7.098 7.20352L6.4019 8.47969L5.64956 7.19297ZM10.9652 9.54844L11.7 10.7965L10.2339 10.7789L10.9652 9.54844ZM11.6859 7.19297L10.2375 7.20352L10.9335 8.47969L11.6859 7.19297ZM7.66753 7.19297L6.66909 9L7.68159 10.7684L9.53784 10.8105L10.6628 9L9.62222 7.17188L7.66753 7.18945V7.19297Z" fill="white"/>
</g>
</g>
<defs>
<clipPath id="clip0_14_1174">
<rect width="18" height="18" rx="9" fill="white"/>
</clipPath>
</defs>
</svg>
