<svg width="18" height="18" viewBox="0 0 18 18" fill="none" xmlns="http://www.w3.org/2000/svg">
<g clip-path="url(#clip0_14_1195)">
<path d="M0 6.00117H18V11.9988H0V6.00117Z" fill="white"/>
<path d="M0 0H18V6.00117H0V0Z" fill="#CE1126"/>
<path d="M0 11.9988H18V18H0V11.9988Z" fill="black"/>
<path d="M11.6589 7.89755C11.6247 7.88114 11.5935 7.85891 11.5669 7.83186C11.5472 7.79902 11.5603 7.79902 11.6457 7.81872C11.7968 7.86471 11.8954 7.845 11.9939 7.76617L12.0793 7.69391L12.1778 7.73989C12.237 7.77274 12.2961 7.79245 12.3092 7.78588C12.3552 7.77274 12.4472 7.65449 12.4406 7.61507C12.4406 7.56909 12.48 7.58223 12.5063 7.63478C12.5457 7.73989 12.4866 7.86471 12.3749 7.89099C12.3289 7.90412 12.283 7.89756 12.2041 7.87128C12.1122 7.83843 12.0924 7.83843 12.0465 7.87128C11.9914 7.91288 11.9254 7.93752 11.8566 7.94219C11.7877 7.94685 11.719 7.93134 11.6589 7.89755ZM12.0399 7.54938C11.9954 7.46904 11.9728 7.37844 11.9742 7.28661C11.9808 7.24719 11.9939 7.23406 12.0268 7.24719C12.0924 7.2669 12.1056 7.31289 12.0924 7.44427C12.0924 7.56252 12.0727 7.59537 12.0399 7.54938ZM7.59905 7.42457C7.59248 7.50997 7.75671 7.72675 7.82898 7.76617C7.77642 7.78588 7.7173 7.77931 7.67131 7.79902C7.40854 8.06179 6.46256 8.98149 6.29176 9.20485C6.80416 9.21798 7.36912 9.19828 7.84868 9.17857C7.84868 8.83039 8.17715 8.81069 8.4005 8.68587C8.51218 8.86324 8.79466 8.8501 8.83408 9.11944V10.2756H4.46549C4.44897 10.3633 4.41422 10.4465 4.3635 10.5199C4.31278 10.5933 4.24721 10.6552 4.17104 10.7017C4.09487 10.7481 4.0098 10.778 3.92134 10.7895C3.83287 10.801 3.74297 10.7938 3.65747 10.7683C3.78886 10.637 4.01221 10.5844 4.09104 10.3939C4.15674 9.97345 3.95966 9.71725 3.82827 9.47419C3.99353 9.4212 4.1489 9.34129 4.28812 9.23769C4.13703 9.69754 4.69542 9.65156 5.10272 9.63842C5.11585 9.48076 5.10929 9.29682 4.99104 9.27054C5.14213 9.21141 5.16841 9.19171 5.42461 8.98149V9.61214L8.45306 9.60557C8.45306 9.40849 8.50561 9.0866 8.34795 9.0866C8.20342 9.0866 8.34795 9.49389 8.2297 9.49389H5.88446V9.09974C5.983 8.99463 5.96986 9.0012 6.6465 8.32456C6.71219 8.25887 7.19175 7.82529 7.60562 7.42457H7.59905ZM13.4523 7.40486C13.6165 7.49683 13.7479 7.61507 13.945 7.66763C13.9253 7.75303 13.8465 7.78588 13.8267 7.87128V9.64499C14.0501 9.69097 14.1027 9.55959 14.2078 9.49389C14.234 9.77637 14.418 10.0523 14.4048 10.2822H13.4523V7.41143V7.40486ZM12.1778 8.35741C12.1778 8.35741 12.526 8.06179 12.526 8.04865V9.59243H12.7757L12.7691 7.86471C12.8676 7.7596 13.0713 7.61508 13.1173 7.50997V10.2691H10.9231C10.8903 9.69754 10.8837 9.10631 11.5538 9.23112V9.0012C11.5341 8.96178 11.4946 9.00777 11.4881 8.95521C11.5932 8.8501 11.626 8.82383 11.9151 8.57419L11.9216 9.59243H12.1778V8.35741ZM11.3501 9.5793C11.3961 9.64499 11.5603 9.64499 11.5472 9.52674C11.5275 9.4282 11.3173 9.46105 11.3501 9.5793Z" fill="#007A3D"/>
<path d="M4.99101 10.7355C5.06357 10.7355 5.12239 10.6767 5.12239 10.6041C5.12239 10.5315 5.06357 10.4727 4.99101 10.4727C4.91844 10.4727 4.85962 10.5315 4.85962 10.6041C4.85962 10.6767 4.91844 10.7355 4.99101 10.7355Z" fill="#007A3D"/>
<path d="M9.12964 7.41143C9.29387 7.49683 9.42526 7.62164 9.62891 7.6742C9.60263 7.75303 9.53036 7.78588 9.51066 7.87128V9.64499C9.73401 9.69097 9.78 9.56616 9.88511 9.49389C9.91795 9.77637 10.0953 10.0589 10.0888 10.2822H9.12964V7.41143Z" fill="#007A3D"/>
</g>
<defs>
<clipPath id="clip0_14_1195">
<rect width="18" height="18" rx="9" fill="white"/>
</clipPath>
</defs>
</svg>
