<svg width="18" height="18" viewBox="0 0 18 18" fill="none" xmlns="http://www.w3.org/2000/svg">
<g clip-path="url(#clip0_14_1291)">
<mask id="mask0_14_1291" style="mask-type:luminance" maskUnits="userSpaceOnUse" x="-1" y="0" width="19" height="18">
<path d="M-0.000976562 0H17.9963V17.9972H-0.000976562V0Z" fill="white"/>
</mask>
<g mask="url(#mask0_14_1291)">
<path fill-rule="evenodd" clip-rule="evenodd" d="M-6.75 0H24.7488V17.9972H-6.75V0Z" fill="white"/>
<path fill-rule="evenodd" clip-rule="evenodd" d="M-6.75 12.0865H24.7488V18.0009H-6.75V12.0865Z" fill="#DA0000"/>
<path fill-rule="evenodd" clip-rule="evenodd" d="M-0.762939 12.3368H0.964216V12.4566H-0.762939V12.3368ZM-0.505317 12.9319H-0.385578V13.048H-0.508946L-0.505317 12.9319ZM0.967844 12.9283V13.048H0.623139V12.9283H0.967844ZM1.1529 12.3368H1.27264V13.048H1.1529V12.3368Z" fill="white"/>
<path fill-rule="evenodd" clip-rule="evenodd" d="M1.83859 12.9283V13.048H1.18546V12.9283H1.83859ZM0.623047 12.6525H0.742787V13.048H0.623047V12.6525Z" fill="white"/>
<path fill-rule="evenodd" clip-rule="evenodd" d="M1.74071 12.3368H1.86045V13.048H1.74434L1.74071 12.3368ZM1.4468 12.3368H1.56291V13.048H1.45043L1.4468 12.3368ZM-0.127956 12.6198V12.7396H-0.762939V12.6198H-0.127956ZM1.25087 12.6198V12.7396H0.623139V12.6198H1.25087Z" fill="white"/>
<path fill-rule="evenodd" clip-rule="evenodd" d="M0.623047 12.6489H0.742787V13.048H0.623047V12.6489Z" fill="white"/>
<path fill-rule="evenodd" clip-rule="evenodd" d="M0.623047 12.6489H0.742787V13.048H0.623047V12.6489Z" fill="white"/>
<path fill-rule="evenodd" clip-rule="evenodd" d="M0.623139 12.6489H0.742878V13.048H0.623139V12.6489ZM-0.755683 12.6489H-0.639571V13.048H-0.762939L-0.755683 12.6489ZM0.253034 12.6489H0.372774V13.048H0.253034V12.6489ZM-0.247696 12.6489H-0.127956V13.048H-0.247696V12.6489Z" fill="white"/>
<path fill-rule="evenodd" clip-rule="evenodd" d="M0.336609 12.9283V13.048H-0.196777V12.9283H0.336609ZM0.372893 12.6198V12.7396H0.0354449V12.6198H0.372893Z" fill="white"/>
<path fill-rule="evenodd" clip-rule="evenodd" d="M2.04907 12.3368H3.7726V12.4566H2.04907V12.3368ZM2.30307 12.9319H2.42281V13.048H2.30669L2.30307 12.9319ZM3.77623 12.9283V13.048H3.43152V12.9283H3.77623ZM3.96128 12.3368H4.08102V13.048H3.96128V12.3368Z" fill="white"/>
<path fill-rule="evenodd" clip-rule="evenodd" d="M4.65081 12.9283V13.048H3.99768V12.9283H4.65081ZM3.43164 12.6525H3.55138V13.048H3.43164V12.6525Z" fill="white"/>
<path fill-rule="evenodd" clip-rule="evenodd" d="M4.55275 12.3368H4.67249V13.048H4.55275V12.3368ZM4.25522 12.3368H4.37496V13.048H4.25522V12.3368ZM2.68046 12.6198V12.7396H2.05273V12.6198H2.68046ZM4.05928 12.6198V12.7396H3.43156V12.6198H4.05928Z" fill="white"/>
<path fill-rule="evenodd" clip-rule="evenodd" d="M3.43164 12.6489H3.55138V13.048H3.43164V12.6489Z" fill="white"/>
<path fill-rule="evenodd" clip-rule="evenodd" d="M3.43164 12.6489H3.55138V13.048H3.43164V12.6489Z" fill="white"/>
<path fill-rule="evenodd" clip-rule="evenodd" d="M3.43156 12.6489H3.55129V13.048H3.43156V12.6489ZM2.05273 12.6489H2.16885V13.048H2.05273V12.6489ZM3.06508 12.6489H3.18119V13.048H3.06508V12.6489ZM2.56072 12.6489H2.68046V13.048H2.56072V12.6489Z" fill="white"/>
<path fill-rule="evenodd" clip-rule="evenodd" d="M3.14859 12.9283V13.048H2.61157V12.9283H3.14859ZM3.18487 12.6198V12.7396H2.84379V12.6198H3.18487Z" fill="white"/>
<path fill-rule="evenodd" clip-rule="evenodd" d="M4.87573 12.3368H6.59926V12.4566H4.87573V12.3368ZM5.13335 12.9319H5.25309V13.048H5.13335V12.9319ZM6.60652 12.9283V13.048H6.26181V12.9283H6.60652ZM6.78794 12.3368H6.90768V13.048H6.79157L6.78794 12.3368Z" fill="white"/>
<path fill-rule="evenodd" clip-rule="evenodd" d="M7.47726 12.9283V13.048H6.82413V12.9283H7.47726ZM6.26172 12.6525H6.37783V13.048H6.26172V12.6525Z" fill="white"/>
<path fill-rule="evenodd" clip-rule="evenodd" d="M7.37941 12.3368H7.49916V13.048H7.37941V12.3368ZM7.08551 12.3368H7.20162V13.048H7.08188L7.08551 12.3368ZM5.50712 12.6198V12.7396H4.87939V12.6198H5.50712ZM6.88957 12.6198V12.7396H6.26184V12.6198H6.88957Z" fill="white"/>
<path fill-rule="evenodd" clip-rule="evenodd" d="M6.26172 12.6489H6.37783V13.048H6.26172V12.6489Z" fill="white"/>
<path fill-rule="evenodd" clip-rule="evenodd" d="M6.26172 12.6489H6.37783V13.048H6.26172V12.6489Z" fill="white"/>
<path fill-rule="evenodd" clip-rule="evenodd" d="M6.26184 12.6489H6.37795V13.048H6.26184V12.6489ZM4.87939 12.6489H4.99913V13.048H4.87939V12.6489ZM5.89174 12.6489H6.01148V13.048H5.89174V12.6489ZM5.39101 12.6489H5.51075V13.048H5.39101V12.6489Z" fill="white"/>
<path fill-rule="evenodd" clip-rule="evenodd" d="M5.97528 12.9283V13.048H5.44189V12.9283H5.97528ZM6.01157 12.6198V12.7396H5.67412V12.6198H6.01157Z" fill="white"/>
<path fill-rule="evenodd" clip-rule="evenodd" d="M7.71313 12.3368H9.44029V12.4566H7.71313V12.3368ZM7.97076 12.9319H8.0905V13.048H7.97076V12.9319ZM9.44392 12.9283V13.048H9.09921V12.9283H9.44392ZM9.62897 12.3368H9.74871V13.048H9.62897V12.3368Z" fill="white"/>
<path fill-rule="evenodd" clip-rule="evenodd" d="M10.3147 12.9283V13.048H9.66153V12.9283H10.3147ZM9.09912 12.6525H9.21886V13.048H9.09912V12.6525Z" fill="white"/>
<path fill-rule="evenodd" clip-rule="evenodd" d="M10.2168 12.3368H10.3366V13.048H10.2168V12.3368ZM9.92291 12.3368H10.039V13.048H9.92291V12.3368ZM8.34815 12.6198V12.7396H7.7168V12.6198H8.34815ZM9.72697 12.6198V12.7396H9.09925V12.6198H9.72697Z" fill="white"/>
<path fill-rule="evenodd" clip-rule="evenodd" d="M9.09912 12.6489H9.21886V13.048H9.09912V12.6489Z" fill="white"/>
<path fill-rule="evenodd" clip-rule="evenodd" d="M9.09912 12.6489H9.21886V13.048H9.09912V12.6489Z" fill="white"/>
<path fill-rule="evenodd" clip-rule="evenodd" d="M9.09925 12.6489H9.21899V13.048H9.09925V12.6489ZM7.72042 12.6489H7.83654V13.048H7.7168L7.72042 12.6489ZM8.72914 12.6489H8.84888V13.048H8.72914V12.6489ZM8.22841 12.6489H8.34815V13.048H8.22841V12.6489Z" fill="white"/>
<path fill-rule="evenodd" clip-rule="evenodd" d="M8.8161 12.9283V13.048H8.28271V12.9283H8.8161ZM8.84876 12.6198V12.7396H8.51131V12.6198H8.84876Z" fill="white"/>
<path fill-rule="evenodd" clip-rule="evenodd" d="M-6.75 0H24.7488V5.91442H-6.75V0Z" fill="#239F40"/>
<path fill-rule="evenodd" clip-rule="evenodd" d="M10.5686 12.3368H12.2921V12.4566H10.5686V12.3368ZM10.8262 12.9319H10.946V13.048H10.8262V12.9319ZM12.2994 12.9283V13.048H11.9547V12.9283H12.2994ZM12.4808 12.3368H12.6042V13.048H12.4808V12.3368Z" fill="white"/>
<path fill-rule="evenodd" clip-rule="evenodd" d="M13.1701 12.9283V13.048H12.517V12.9283H13.1701ZM11.9546 12.6525H12.0707V13.048H11.9546V12.6525Z" fill="white"/>
<path fill-rule="evenodd" clip-rule="evenodd" d="M13.0723 12.3368H13.192V13.048H13.0723V12.3368ZM12.7784 12.3368H12.8945V13.048H12.7784V12.3368ZM11.2036 12.6198V12.7396H10.5723V12.6198H11.2036ZM12.5824 12.6198V12.7396H11.9547V12.6198H12.5824Z" fill="white"/>
<path fill-rule="evenodd" clip-rule="evenodd" d="M11.9546 12.6489H12.0707V13.048H11.9546V12.6489Z" fill="white"/>
<path fill-rule="evenodd" clip-rule="evenodd" d="M11.9546 12.6489H12.0707V13.048H11.9546V12.6489Z" fill="white"/>
<path fill-rule="evenodd" clip-rule="evenodd" d="M11.9547 12.6489H12.0708V13.048H11.9547V12.6489ZM10.5723 12.6489H10.692V13.048H10.5723V12.6489ZM11.5846 12.6489H11.7044V13.048H11.5846V12.6489ZM11.0839 12.6489H11.2036V13.048H11.0839V12.6489Z" fill="white"/>
<path fill-rule="evenodd" clip-rule="evenodd" d="M11.6682 12.9283V13.048H11.1348V12.9283H11.6682ZM11.7044 12.6198V12.7396H11.367V12.6198H11.7044Z" fill="white"/>
<path fill-rule="evenodd" clip-rule="evenodd" d="M13.4062 12.3368H15.1334V12.4566H13.4062V12.3368ZM13.6639 12.9319H13.7836V13.048H13.6639V12.9319ZM15.137 12.9283V13.048H14.7923V12.9283H15.137ZM15.3221 12.3368H15.4418V13.048H15.3221V12.3368Z" fill="white"/>
<path fill-rule="evenodd" clip-rule="evenodd" d="M16.0078 12.9283V13.048H15.3547V12.9283H16.0078ZM14.7922 12.6525H14.912V13.048H14.7922V12.6525Z" fill="white"/>
<path fill-rule="evenodd" clip-rule="evenodd" d="M15.9136 12.3368H16.0297V13.048H15.9136V12.3368ZM15.616 12.3368H15.7358V13.048H15.616V12.3368ZM14.0413 12.6198V12.7396H13.4099V12.6198H14.0413ZM15.4201 12.6198V12.7396H14.7924V12.6198H15.4201Z" fill="white"/>
<path fill-rule="evenodd" clip-rule="evenodd" d="M14.7922 12.6489H14.912V13.048H14.7922V12.6489Z" fill="white"/>
<path fill-rule="evenodd" clip-rule="evenodd" d="M14.7922 12.6489H14.912V13.048H14.7922V12.6489Z" fill="white"/>
<path fill-rule="evenodd" clip-rule="evenodd" d="M14.7924 12.6489H14.9121V13.048H14.7924V12.6489ZM13.4135 12.6489H13.5297V13.048H13.4099L13.4135 12.6489ZM14.4223 12.6489H14.542V13.048H14.4223V12.6489ZM13.9215 12.6489H14.0413V13.048H13.9215V12.6489Z" fill="white"/>
<path fill-rule="evenodd" clip-rule="evenodd" d="M14.5056 12.9283V13.048H13.9758V12.9283H14.5056ZM14.5419 12.6198V12.7396H14.2044V12.6198H14.5419Z" fill="white"/>
<path fill-rule="evenodd" clip-rule="evenodd" d="M16.2473 12.3368H17.9708V12.4566H16.2473V12.3368ZM16.5013 12.9319H16.621V13.048H16.5013V12.9319ZM17.9745 12.9283V13.048H17.6334V12.9283H17.9745ZM18.1595 12.3368H18.2793V13.048H18.1595V12.3368Z" fill="white"/>
<path fill-rule="evenodd" clip-rule="evenodd" d="M18.8491 12.9283V13.048H18.1959V12.9283H18.8491ZM17.6299 12.6525H17.7496V13.048H17.6299V12.6525Z" fill="white"/>
<path fill-rule="evenodd" clip-rule="evenodd" d="M18.751 12.3368H18.8707V13.048H18.751V12.3368ZM18.4534 12.3368H18.5732V13.048H18.4534V12.3368ZM16.8787 12.6198V12.7396H16.2473V12.6198H16.8787ZM18.2575 12.6198V12.7396H17.6334V12.6198H18.2575Z" fill="white"/>
<path fill-rule="evenodd" clip-rule="evenodd" d="M17.6335 12.6489H17.7496V13.048H17.6299L17.6335 12.6489Z" fill="white"/>
<path fill-rule="evenodd" clip-rule="evenodd" d="M17.6335 12.6489H17.7496V13.048H17.6299L17.6335 12.6489Z" fill="white"/>
<path fill-rule="evenodd" clip-rule="evenodd" d="M17.6334 12.6489H17.7495V13.048H17.6298L17.6334 12.6489ZM16.2473 12.6489H16.3671V13.048H16.2473V12.6489ZM17.2633 12.6489H17.3794V13.048H17.2597L17.2633 12.6489ZM16.7589 12.6489H16.8787V13.048H16.7589V12.6489Z" fill="white"/>
<path fill-rule="evenodd" clip-rule="evenodd" d="M17.3432 12.9283V13.048H16.8135V12.9283H17.3432ZM17.3795 12.6198V12.7396H17.0421V12.6198H17.3795Z" fill="white"/>
<path fill-rule="evenodd" clip-rule="evenodd" d="M-0.762939 5.04358H0.964216V5.15969H-0.762939V5.04358ZM-0.505317 5.63502H-0.385578V5.75114H-0.508946L-0.505317 5.63502ZM0.967844 5.63502V5.75114H0.623139V5.6314L0.967844 5.63502ZM1.1529 5.04358H1.27264V5.75114H1.1529V5.04358Z" fill="white"/>
<path fill-rule="evenodd" clip-rule="evenodd" d="M1.83859 5.6314V5.75114H1.18546V5.6314H1.83859ZM0.623047 5.35563H0.742787V5.75477H0.623047V5.35563Z" fill="white"/>
<path fill-rule="evenodd" clip-rule="evenodd" d="M1.74071 5.04358H1.86045V5.75114H1.74434L1.74071 5.04358ZM1.4468 5.04358H1.56291V5.75114H1.45043L1.4468 5.04358ZM-0.127956 5.32298V5.44272H-0.762939V5.3266L-0.127956 5.32298ZM1.25087 5.32298V5.44272H0.623139V5.3266L1.25087 5.32298Z" fill="white"/>
<path fill-rule="evenodd" clip-rule="evenodd" d="M0.623047 5.35563H0.742787V5.75477H0.623047V5.35563Z" fill="white"/>
<path fill-rule="evenodd" clip-rule="evenodd" d="M0.623047 5.35563H0.742787V5.75477H0.623047V5.35563Z" fill="white"/>
<path fill-rule="evenodd" clip-rule="evenodd" d="M0.623139 5.35563H0.742878V5.75477H0.623139V5.35563ZM-0.755683 5.35563H-0.639571V5.75477H-0.762939L-0.755683 5.35563ZM0.253034 5.35563H0.372774V5.75477H0.253034V5.35563ZM-0.247696 5.35563H-0.127956V5.75477H-0.247696V5.35563Z" fill="white"/>
<path fill-rule="evenodd" clip-rule="evenodd" d="M0.336609 5.63139V5.75113H-0.196777V5.63139H0.336609ZM0.372893 5.3266V5.44271H0.0354449V5.3266H0.372893Z" fill="white"/>
<path fill-rule="evenodd" clip-rule="evenodd" d="M2.04907 5.04358H3.7726V5.15969H2.04907V5.04358ZM2.30307 5.63502H2.42281V5.75114H2.30669L2.30307 5.63502ZM3.77623 5.63502V5.75114H3.43152V5.6314L3.77623 5.63502ZM3.96128 5.04358H4.08102V5.75114H3.96128V5.04358Z" fill="white"/>
<path fill-rule="evenodd" clip-rule="evenodd" d="M4.65081 5.6314V5.75114H3.99768V5.6314H4.65081ZM3.43164 5.35563H3.55138V5.75477H3.43164V5.35563Z" fill="white"/>
<path fill-rule="evenodd" clip-rule="evenodd" d="M4.55275 5.04358H4.67249V5.75114H4.55275V5.04358ZM4.25522 5.04358H4.37496V5.75114H4.25522V5.04358ZM2.68046 5.32298V5.44272H2.05273V5.3266L2.68046 5.32298ZM4.05928 5.32298V5.44272H3.43156V5.3266L4.05928 5.32298Z" fill="white"/>
<path fill-rule="evenodd" clip-rule="evenodd" d="M3.43164 5.35563H3.55138V5.75477H3.43164V5.35563Z" fill="white"/>
<path fill-rule="evenodd" clip-rule="evenodd" d="M3.43164 5.35563H3.55138V5.75477H3.43164V5.35563Z" fill="white"/>
<path fill-rule="evenodd" clip-rule="evenodd" d="M3.43156 5.35563H3.55129V5.75477H3.43156V5.35563ZM2.05273 5.35563H2.16885V5.75477H2.05273V5.35563ZM3.06508 5.35563H3.18119V5.75477H3.06508V5.35563ZM2.56072 5.35563H2.68046V5.75477H2.56072V5.35563Z" fill="white"/>
<path fill-rule="evenodd" clip-rule="evenodd" d="M3.14859 5.63139V5.75113H2.61157V5.63139H3.14859ZM3.18487 5.3266V5.44271H2.84379V5.3266H3.18487Z" fill="white"/>
<path fill-rule="evenodd" clip-rule="evenodd" d="M4.87573 5.04358H6.59926V5.15969H4.87573V5.04358ZM5.13335 5.63502H5.25309V5.75114H5.13335V5.63502ZM6.60652 5.63502V5.75114H6.26181V5.6314L6.60652 5.63502ZM6.78794 5.04358H6.90768V5.75114H6.79157L6.78794 5.04358Z" fill="white"/>
<path fill-rule="evenodd" clip-rule="evenodd" d="M7.47726 5.6314V5.75114H6.82413V5.6314H7.47726ZM6.26172 5.35563H6.37783V5.75477H6.26172V5.35563Z" fill="white"/>
<path fill-rule="evenodd" clip-rule="evenodd" d="M7.37941 5.04358H7.49916V5.75114H7.37941V5.04358ZM7.08551 5.04358H7.20162V5.75114H7.08188L7.08551 5.04358ZM5.50712 5.32298V5.44272H4.87939V5.3266L5.50712 5.32298ZM6.88957 5.32298V5.44272H6.26184V5.3266L6.88957 5.32298Z" fill="white"/>
<path fill-rule="evenodd" clip-rule="evenodd" d="M6.26172 5.35563H6.37783V5.75477H6.26172V5.35563Z" fill="white"/>
<path fill-rule="evenodd" clip-rule="evenodd" d="M6.26172 5.35563H6.37783V5.75477H6.26172V5.35563Z" fill="white"/>
<path fill-rule="evenodd" clip-rule="evenodd" d="M6.26184 5.35563H6.37795V5.75477H6.26184V5.35563ZM4.87939 5.35563H4.99913V5.75477H4.87939V5.35563ZM5.89174 5.35563H6.01148V5.75477H5.89174V5.35563ZM5.39101 5.35563H5.51075V5.75477H5.39101V5.35563Z" fill="white"/>
<path fill-rule="evenodd" clip-rule="evenodd" d="M5.97528 5.63139V5.75113H5.44189V5.63139H5.97528ZM6.01157 5.3266V5.44271H5.67412V5.3266H6.01157Z" fill="white"/>
<path fill-rule="evenodd" clip-rule="evenodd" d="M7.71313 5.04358H9.44029V5.15969H7.71313V5.04358ZM7.97076 5.63502H8.0905V5.75114H7.97076V5.63502ZM9.44392 5.63502V5.75114H9.09921V5.6314L9.44392 5.63502ZM9.62897 5.04358H9.74871V5.75114H9.62897V5.04358Z" fill="white"/>
<path fill-rule="evenodd" clip-rule="evenodd" d="M10.3147 5.6314V5.75114H9.66153V5.6314H10.3147ZM9.09912 5.35563H9.21886V5.75477H9.09912V5.35563Z" fill="white"/>
<path fill-rule="evenodd" clip-rule="evenodd" d="M10.2168 5.04358H10.3366V5.75114H10.2168V5.04358ZM9.92291 5.04358H10.039V5.75114H9.92291V5.04358ZM8.34815 5.32298V5.44272H7.7168V5.3266L8.34815 5.32298ZM9.72697 5.32298V5.44272H9.09925V5.3266L9.72697 5.32298Z" fill="white"/>
<path fill-rule="evenodd" clip-rule="evenodd" d="M9.09912 5.35563H9.21886V5.75477H9.09912V5.35563Z" fill="white"/>
<path fill-rule="evenodd" clip-rule="evenodd" d="M9.09912 5.35563H9.21886V5.75477H9.09912V5.35563Z" fill="white"/>
<path fill-rule="evenodd" clip-rule="evenodd" d="M9.09925 5.35563H9.21899V5.75477H9.09925V5.35563ZM7.72042 5.35563H7.83654V5.75477H7.7168L7.72042 5.35563ZM8.72914 5.35563H8.84888V5.75477H8.72914V5.35563ZM8.22841 5.35563H8.34815V5.75477H8.22841V5.35563Z" fill="white"/>
<path fill-rule="evenodd" clip-rule="evenodd" d="M8.8161 5.63139V5.75113H8.28271V5.63139H8.8161ZM8.84876 5.3266V5.44271H8.51131V5.3266H8.84876Z" fill="white"/>
<path fill-rule="evenodd" clip-rule="evenodd" d="M10.5686 5.04358H12.2921V5.15969H10.5686V5.04358ZM10.8262 5.63502H10.946V5.75114H10.8262V5.63502ZM12.2994 5.63502V5.75114H11.9547V5.6314L12.2994 5.63502ZM12.4808 5.04358H12.6042V5.75114H12.4808V5.04358Z" fill="white"/>
<path fill-rule="evenodd" clip-rule="evenodd" d="M13.1701 5.6314V5.75114H12.517V5.6314H13.1701ZM11.9546 5.35563H12.0707V5.75477H11.9546V5.35563Z" fill="white"/>
<path fill-rule="evenodd" clip-rule="evenodd" d="M13.0723 5.04358H13.192V5.75114H13.0723V5.04358ZM12.7784 5.04358H12.8945V5.75114H12.7784V5.04358ZM11.2036 5.32298V5.44272H10.5723V5.3266L11.2036 5.32298ZM12.5824 5.32298V5.44272H11.9547V5.3266L12.5824 5.32298Z" fill="white"/>
<path fill-rule="evenodd" clip-rule="evenodd" d="M11.9546 5.35563H12.0707V5.75477H11.9546V5.35563Z" fill="white"/>
<path fill-rule="evenodd" clip-rule="evenodd" d="M11.9546 5.35563H12.0707V5.75477H11.9546V5.35563Z" fill="white"/>
<path fill-rule="evenodd" clip-rule="evenodd" d="M11.9547 5.35563H12.0708V5.75477H11.9547V5.35563ZM10.5723 5.35563H10.692V5.75477H10.5723V5.35563ZM11.5846 5.35563H11.7044V5.75477H11.5846V5.35563ZM11.0839 5.35563H11.2036V5.75477H11.0839V5.35563Z" fill="white"/>
<path fill-rule="evenodd" clip-rule="evenodd" d="M11.6682 5.63139V5.75113H11.1348V5.63139H11.6682ZM11.7044 5.3266V5.44271H11.367V5.3266H11.7044Z" fill="white"/>
<path fill-rule="evenodd" clip-rule="evenodd" d="M13.4062 5.04358H15.1334V5.15969H13.4062V5.04358ZM13.6639 5.63502H13.7836V5.75114H13.6639V5.63502ZM15.137 5.63502V5.75114H14.7923V5.6314L15.137 5.63502ZM15.3221 5.04358H15.4418V5.75114H15.3221V5.04358Z" fill="white"/>
<path fill-rule="evenodd" clip-rule="evenodd" d="M16.0078 5.6314V5.75114H15.3547V5.6314H16.0078ZM14.7922 5.35563H14.912V5.75477H14.7922V5.35563Z" fill="white"/>
<path fill-rule="evenodd" clip-rule="evenodd" d="M15.9136 5.04358H16.0297V5.75114H15.9136V5.04358ZM15.616 5.04358H15.7358V5.75114H15.616V5.04358ZM14.0413 5.32298V5.44272H13.4099V5.3266L14.0413 5.32298ZM15.4201 5.32298V5.44272H14.7924V5.3266L15.4201 5.32298Z" fill="white"/>
<path fill-rule="evenodd" clip-rule="evenodd" d="M14.7922 5.35563H14.912V5.75477H14.7922V5.35563Z" fill="white"/>
<path fill-rule="evenodd" clip-rule="evenodd" d="M14.7922 5.35563H14.912V5.75477H14.7922V5.35563Z" fill="white"/>
<path fill-rule="evenodd" clip-rule="evenodd" d="M14.7924 5.35563H14.9121V5.75477H14.7924V5.35563ZM13.4135 5.35563H13.5297V5.75477H13.4099L13.4135 5.35563ZM14.4223 5.35563H14.542V5.75477H14.4223V5.35563ZM13.9215 5.35563H14.0413V5.75477H13.9215V5.35563Z" fill="white"/>
<path fill-rule="evenodd" clip-rule="evenodd" d="M14.5056 5.63139V5.75113H13.9758V5.63139H14.5056ZM14.5419 5.3266V5.44271H14.2044V5.3266H14.5419Z" fill="white"/>
<path fill-rule="evenodd" clip-rule="evenodd" d="M16.2473 5.04358H17.9708V5.15969H16.2473V5.04358ZM16.5013 5.63502H16.621V5.75114H16.5013V5.63502ZM17.9745 5.63502V5.75114H17.6334V5.6314L17.9745 5.63502ZM18.1595 5.04358H18.2793V5.75114H18.1595V5.04358Z" fill="white"/>
<path fill-rule="evenodd" clip-rule="evenodd" d="M18.8491 5.6314V5.75114H18.1959V5.6314H18.8491ZM17.6299 5.35563H17.7496V5.75477H17.6299V5.35563Z" fill="white"/>
<path fill-rule="evenodd" clip-rule="evenodd" d="M18.751 5.04358H18.8707V5.75114H18.751V5.04358ZM18.4534 5.04358H18.5732V5.75114H18.4534V5.04358ZM16.8787 5.32298V5.44272H16.2473V5.3266L16.8787 5.32298ZM18.2575 5.32298V5.44272H17.6334V5.3266L18.2575 5.32298Z" fill="white"/>
<path fill-rule="evenodd" clip-rule="evenodd" d="M17.6335 5.35563H17.7496V5.75477H17.6299L17.6335 5.35563Z" fill="white"/>
<path fill-rule="evenodd" clip-rule="evenodd" d="M17.6335 5.35563H17.7496V5.75477H17.6299L17.6335 5.35563Z" fill="white"/>
<path fill-rule="evenodd" clip-rule="evenodd" d="M17.6334 5.35563H17.7495V5.75477H17.6298L17.6334 5.35563ZM16.2473 5.35563H16.3671V5.75477H16.2473V5.35563ZM17.2633 5.35563H17.3794V5.75477H17.2597L17.2633 5.35563ZM16.7589 5.35563H16.8787V5.75477H16.7589V5.35563Z" fill="white"/>
<path fill-rule="evenodd" clip-rule="evenodd" d="M17.3432 5.63139V5.75113H16.8135V5.63139H17.3432ZM17.3795 5.3266V5.44271H17.0421V5.3266H17.3795Z" fill="white"/>
<path fill-rule="evenodd" clip-rule="evenodd" d="M-2.42123 11.9377H-2.20715V12.3005H-2.42123V11.9377ZM3.22105 11.9377H3.43513V12.3005H3.22105V11.9377ZM-6.75 11.9377H-6.53955V12.3005H-6.75V11.9377ZM-3.88713 11.9377H-3.67305V12.3005H-3.88713V11.9377ZM-1.04241 11.9377H-0.831955V12.3005H-1.04241V11.9377ZM0.365442 11.9377H0.575894V12.3005H0.365442V11.9377ZM1.79869 11.9377H2.0164V12.3005H1.79869V11.9377ZM4.6289 11.9377H4.84298V12.3005H4.6289V11.9377ZM11.7697 11.9377H11.9802V12.3005H11.7697V11.9377ZM6.06578 11.9377H6.27986V12.3005H6.06578V11.9377ZM7.47363 11.9377H7.68771V12.3005H7.47363V11.9377ZM8.89599 11.9377H9.10644V12.3005H8.89599V11.9377ZM10.3184 11.9377H10.5288V12.3005H10.3184V11.9377ZM21.6755 11.9377H21.8932V12.3005H21.6755V11.9377ZM13.1486 11.9377H13.359V12.3005H13.1449L13.1486 11.9377ZM14.5818 11.9377H14.7959V12.3005H14.5818V11.9377ZM16.0332 11.9377H16.2473V12.3005H16.0332V11.9377ZM17.3975 11.9377H17.6116V12.3005H17.3975V11.9377ZM18.8489 11.9377H19.063V12.3005H18.8453L18.8489 11.9377ZM20.2713 11.9377H20.4817V12.3005H20.2713V11.9377ZM24.4803 11.9377H24.6907V12.3005H24.4767L24.4803 11.9377ZM23.116 11.9377H23.3264V12.3005H23.116V11.9377ZM-5.32401 11.9377H-5.10993V12.3005H-5.32401V11.9377Z" fill="#D90000"/>
<path fill-rule="evenodd" clip-rule="evenodd" d="M-2.42123 5.71848H-2.20715V6.08495H-2.42123V5.71848ZM3.22105 5.71848H3.43513V6.08495H3.22105V5.71848ZM-6.75 5.71848H-6.53955V6.08495H-6.75V5.71848ZM-3.88713 5.71848H-3.67305V6.08495H-3.88713V5.71848ZM-1.04241 5.71848H-0.831955V6.08495H-1.04241V5.71848ZM0.365442 5.71848H0.575894V6.08495H0.365442V5.71848ZM1.79869 5.71848H2.0164V6.08495H1.79869V5.71848ZM4.6289 5.71848H4.84298V6.08495H4.6289V5.71848ZM11.7697 5.71848H11.9802V6.08495H11.7697V5.71848ZM6.06578 5.71848H6.27986V6.08495H6.06578V5.71848ZM7.47363 5.71848H7.68771V6.08495H7.47363V5.71848ZM8.89599 5.71848H9.10644V6.08495H8.89599V5.71848ZM10.3184 5.71848H10.5288V6.08495H10.3184V5.71848ZM21.6755 5.71848H21.8932V6.08495H21.6755V5.71848ZM13.1486 5.71848H13.359V6.08495H13.1449L13.1486 5.71848ZM14.5818 5.71848H14.7959V6.08495H14.5818V5.71848ZM16.0332 5.71848H16.2473V6.08495H16.0332V5.71848ZM17.3975 5.71848H17.6116V6.08495H17.3975V5.71848ZM18.8489 5.71848H19.063V6.08495H18.8453L18.8489 5.71848ZM20.2713 5.71848H20.4817V6.08495H20.2713V5.71848ZM24.4803 5.71848H24.6907V6.08495H24.4767L24.4803 5.71848ZM23.116 5.71848H23.3264V6.08495H23.116V5.71848ZM-5.32401 5.71848H-5.10993V6.08495H-5.32401V5.71848Z" fill="#239E3F"/>
<path fill-rule="evenodd" clip-rule="evenodd" d="M9.83198 6.9449C10.1331 7.30775 11.0475 9.32156 9.28045 10.6423C8.44953 11.2664 8.96477 11.2954 8.99017 11.4043C10.3254 10.6931 10.7609 9.7352 10.75 8.87163C10.7391 8.01168 10.2855 7.25332 9.83561 6.9449H9.83198Z" fill="#DA0000"/>
<path fill-rule="evenodd" clip-rule="evenodd" d="M10.0134 6.85057C10.3385 7.04968 10.6154 7.31846 10.824 7.63752C11.0327 7.95659 11.1679 8.31798 11.22 8.69563C11.2721 9.07329 11.2397 9.45779 11.1251 9.82141C11.0106 10.185 10.8168 10.5187 10.5577 10.7983C11.5156 10.5879 12.7348 7.76131 10.0062 6.85057H10.0134ZM7.98513 6.85057C7.66003 7.04968 7.38318 7.31846 7.17453 7.63752C6.96589 7.95659 6.83065 8.31798 6.77859 8.69563C6.72652 9.07329 6.75892 9.45779 6.87344 9.82141C6.98797 10.185 7.18177 10.5187 7.44086 10.7983C6.47931 10.5879 5.26014 7.76131 7.98513 6.85057Z" fill="#DA0000"/>
<path fill-rule="evenodd" clip-rule="evenodd" d="M8.16283 6.9449C7.86529 7.30775 6.94729 9.32156 8.71436 10.6423C9.54528 11.2664 9.03004 11.2954 9.00464 11.4043C7.67299 10.6931 7.23394 9.7352 7.24483 8.87163C7.25571 8.01168 7.7129 7.25332 8.16283 6.9449Z" fill="#DA0000"/>
<path fill-rule="evenodd" clip-rule="evenodd" d="M10.692 11.2193C10.1178 11.2414 9.54633 11.1296 9.02286 10.8927C9.10269 11.0487 9.168 11.1467 9.25145 11.3063C9.7159 11.3462 10.3581 11.4007 10.692 11.2193ZM7.35376 11.2193C7.87626 11.2265 8.53664 11.1467 9.02286 10.8927C8.94303 11.0487 8.87772 11.1467 8.79426 11.3063C8.32982 11.3462 7.68758 11.4007 7.35376 11.2193ZM8.31168 6.34258C8.42053 6.62197 8.6963 6.66551 8.99383 6.4986C9.21154 6.62923 9.54536 6.63649 9.66147 6.35346C9.74855 7.05013 9.0156 6.88685 8.9902 6.7526C8.71807 7.01385 8.21008 6.86145 8.31168 6.34258Z" fill="#DA0000"/>
<path fill-rule="evenodd" clip-rule="evenodd" d="M9.01198 11.6583L9.28774 11.3426L9.32402 7.11907L8.99746 6.82879L8.6709 7.10456L8.73621 11.3571L9.01198 11.6583Z" fill="#DA0000"/>
</g>
</g>
<defs>
<clipPath id="clip0_14_1291">
<rect width="18" height="18" rx="9" fill="white"/>
</clipPath>
</defs>
</svg>
