<svg width="18" height="18" viewBox="0 0 18 18" fill="none" xmlns="http://www.w3.org/2000/svg">
<g clip-path="url(#clip0_8201_10605)">
<path d="M9 18C13.9706 18 18 13.9706 18 9C18 4.02944 13.9706 0 9 0C4.02944 0 0 4.02944 0 9C0 13.9706 4.02944 18 9 18Z" fill="#F0F0F0"/>
<path d="M0.310059 11.3479C0.830793 13.2801 1.97847 14.9547 3.52176 16.1405V11.3479H0.310059Z" fill="#0052B4"/>
<path d="M8.21729 17.9658C8.47526 17.988 8.73616 18.0001 8.9999 18.0001C13.1581 18.0001 16.6571 15.1798 17.6899 11.3479H8.21729V17.9658Z" fill="#0052B4"/>
<path d="M17.6899 6.65216C16.6571 2.82027 13.1581 0 8.9999 0C8.73616 0 8.47526 0.0120234 8.21729 0.0342422V6.65216H17.6899Z" fill="#0052B4"/>
<path d="M3.52176 1.85962C1.97847 3.04544 0.830793 4.72004 0.310059 6.65219H3.52176V1.85962Z" fill="#0052B4"/>
<path d="M17.9238 7.82604H7.04352H7.04348V0.213867C6.21176 0.398297 5.42324 0.69723 4.69564 1.09425V7.826H0.0761836C0.0260859 8.2103 0 8.60208 0 8.99994C0 9.3978 0.0260859 9.78959 0.0761836 10.1738H4.69561H4.69564V16.9056C5.42324 17.3026 6.21176 17.6016 7.04348 17.786V10.174V10.1739H17.9238C17.9738 9.78959 18 9.3978 18 8.99994C18 8.60208 17.9738 8.2103 17.9238 7.82604Z" fill="#D80027"/>
</g>
<defs>
<clipPath id="clip0_8201_10605">
<rect width="18" height="18" fill="white"/>
</clipPath>
</defs>
</svg>
