<svg width="18" height="18" viewBox="0 0 18 18" fill="none" xmlns="http://www.w3.org/2000/svg">
<g clip-path="url(#clip0_8201_11264)">
<path d="M9 18C13.9706 18 18 13.9706 18 9C18 4.02944 13.9706 0 9 0C4.02944 0 0 4.02944 0 9C0 13.9706 4.02944 18 9 18Z" fill="#F0F0F0"/>
<path d="M17.9238 7.8261H10.174H10.1739V0.0761836C9.78964 0.0261563 9.39786 0 9 0C8.60214 0 8.21035 0.0261563 7.8261 0.0761836V7.82603V7.82606H0.0761836C0.0261563 8.21036 0 8.60214 0 9C0 9.39786 0.0261563 9.78964 0.0761836 10.1739H7.82603H7.82606V17.9238C8.21036 17.9738 8.60214 18 9 18C9.39786 18 9.78964 17.9739 10.1739 17.9238V10.174V10.1739H17.9238C17.9738 9.78964 18 9.39786 18 9C18 8.60214 17.9738 8.21035 17.9238 7.8261Z" fill="#D80027"/>
<path d="M13.3045 3.13037C12.5751 3.13037 11.9623 3.6292 11.7886 4.30427L13.3045 4.69556L14.8204 4.30427C14.6466 3.62924 14.0338 3.13037 13.3045 3.13037Z" fill="black"/>
<path d="M11.7389 6.65219L13.6955 7.04348V6.21158C14.2455 6.06997 14.6784 5.63695 14.82 5.08697L13.3042 4.69568H11.3477L11.7389 5.86958V6.65219Z" fill="black"/>
<path d="M14.8201 4.30432H11.3477V5.08693V5.86955H11.7389V5.08693H14.82C14.8522 4.96188 14.8694 4.83075 14.8694 4.69565C14.8694 4.5605 14.8523 4.42937 14.8201 4.30432Z" fill="#ACABB1"/>
<path d="M5.08719 3.13037C4.35784 3.13037 3.74503 3.6292 3.57129 4.30427L5.08719 4.69556L6.60309 4.30427C6.42935 3.62924 5.81654 3.13037 5.08719 3.13037Z" fill="black"/>
<path d="M3.5217 6.65219L5.47821 7.04348V6.21158C6.02823 6.06997 6.46114 5.63695 6.60272 5.08697L5.08692 4.69568H3.13037L3.52166 5.86958V6.65219H3.5217Z" fill="black"/>
<path d="M6.60282 4.30432H3.13037V5.08693V5.86955H3.52166V5.08693H6.60268C6.63489 4.96188 6.65211 4.83075 6.65211 4.69565C6.65211 4.5605 6.63503 4.42937 6.60282 4.30432Z" fill="#ACABB1"/>
<path d="M13.3045 10.9565C12.5751 10.9565 11.9623 11.4554 11.7886 12.1304L13.3045 12.5217L14.8204 12.1304C14.6466 11.4554 14.0338 10.9565 13.3045 10.9565Z" fill="black"/>
<path d="M11.7389 14.4782L13.6955 14.8695V14.0376C14.2455 13.896 14.6784 13.463 14.82 12.913L13.3042 12.5217H11.3477L11.7389 13.6956V14.4782Z" fill="black"/>
<path d="M14.8201 12.1304H11.3477V12.913V13.6956H11.7389V12.913H14.82C14.8522 12.7879 14.8694 12.6568 14.8694 12.5217C14.8694 12.3866 14.8523 12.2555 14.8201 12.1304Z" fill="#ACABB1"/>
<path d="M5.08719 10.9565C4.35784 10.9565 3.74503 11.4554 3.57129 12.1304L5.08719 12.5217L6.60309 12.1304C6.42935 11.4554 5.81654 10.9565 5.08719 10.9565Z" fill="black"/>
<path d="M3.5217 14.4782L5.47821 14.8695V14.0376C6.02823 13.896 6.46114 13.463 6.60272 12.913L5.08692 12.5217H3.13037L3.52166 13.6956V14.4782H3.5217Z" fill="black"/>
<path d="M6.60282 12.1304H3.13037V12.913V13.6956H3.52166V12.913H6.60268C6.63489 12.7879 6.65211 12.6568 6.65211 12.5217C6.65211 12.3866 6.63503 12.2555 6.60282 12.1304Z" fill="#ACABB1"/>
</g>
<defs>
<clipPath id="clip0_8201_11264">
<rect width="18" height="18" fill="white"/>
</clipPath>
</defs>
</svg>
