<svg width="18" height="18" viewBox="0 0 18 18" fill="none" xmlns="http://www.w3.org/2000/svg">
<g clip-path="url(#clip0_14_1268)">
<mask id="mask0_14_1268" style="mask-type:luminance" maskUnits="userSpaceOnUse" x="-1" y="0" width="19" height="18">
<path d="M-0.00146484 0H17.9985V18H-0.00146484V0Z" fill="white"/>
</mask>
<g mask="url(#mask0_14_1268)">
<path d="M-6.20142 0H23.7986V18H-6.20142V0Z" fill="white"/>
<path fill-rule="evenodd" clip-rule="evenodd" d="M-6.20142 0V1.2L6.79859 9L-6.20142 16.8V18H-4.20142L8.79859 10.2L21.7986 18H23.7986V16.8L10.7986 9L23.7986 1.2V0H21.7986L8.79859 7.8L-4.20142 0H-6.20142Z" fill="#DF112D"/>
<path d="M10.3985 2.7C10.7985 4.3 10.5985 6.2 8.79852 7.3C7.09852 6.3 6.79852 4.3 7.29852 2.7C7.69852 2.3 9.49852 2.1 10.3985 2.7Z" fill="#E8112D"/>
<path d="M8.79863 2.4C9.35886 2.38124 9.91314 2.51981 10.3986 2.8C10.4752 2.25906 10.681 1.74453 10.9986 1.3C10.6986 1.3 10.5986 1.5 10.5986 1.6C10.5986 1.4 10.1986 1.4 10.0986 1.6C10.3986 1.8 10.0986 2.2 9.89863 2.1L9.69863 1.8C9.74577 1.78783 9.78684 1.75889 9.81416 1.7186C9.84148 1.67831 9.85317 1.62944 9.84704 1.58115C9.84091 1.53286 9.81737 1.48847 9.78085 1.45629C9.74432 1.42411 9.69731 1.40635 9.64863 1.40635C9.59996 1.40635 9.55295 1.42411 9.51642 1.45629C9.4799 1.48847 9.45636 1.53286 9.45023 1.58115C9.44409 1.62944 9.45578 1.67831 9.4831 1.7186C9.51042 1.75889 9.5515 1.78783 9.59863 1.8L9.19863 2L8.99863 1.6C8.99863 1.3 9.29863 1.3 9.39863 1.3C9.39863 1.1 8.99863 0.900002 8.89863 1.1C9.09863 0.900002 8.99863 0.600002 8.89863 0.400002C8.79317 0.478623 8.71647 0.589723 8.68034 0.716203C8.6442 0.842682 8.65063 0.977533 8.69863 1.1C8.69863 0.900002 8.29863 1.1 8.29863 1.3C8.29863 1.3 8.69863 1.3 8.69863 1.6C8.69863 1.8 8.69863 1.9 8.49863 1.9C8.42916 1.92122 8.35523 1.92313 8.28476 1.90551C8.21429 1.88789 8.14994 1.85142 8.09863 1.8L7.79863 2C7.71907 2.02652 7.63223 2.02035 7.55721 1.98284C7.4822 1.94534 7.42515 1.87957 7.39863 1.8C7.37211 1.72044 7.37828 1.6336 7.41579 1.55858C7.4533 1.48357 7.51907 1.42652 7.59863 1.4C7.49863 1.3 7.19863 1.3 7.09863 1.5C7.09863 1.4 6.99863 1.2 6.59863 1.2C6.95197 1.6347 7.19243 2.14997 7.29863 2.7C7.75822 2.44557 8.27338 2.30819 8.79863 2.3V2.4Z" fill="#F9DD16"/>
<path d="M10.1986 4L10.3986 3.9V3.6C10.3898 3.5848 10.3852 3.56756 10.3852 3.55C10.3852 3.53245 10.3898 3.5152 10.3986 3.5H10.0986L9.69858 3.4C9.89858 3.4 10.0986 3.4 10.0986 3.2C10.0986 3.1 9.89858 3 9.59858 3H8.79858L9.19858 2.9H9.69858H8.69858C8.69858 3.2 9.09858 3.2 9.49858 3.1H9.89858C9.89858 3.3 9.69858 3.3 9.49858 3.3C9.33377 3.26489 9.1634 3.26489 8.99858 3.3H8.59858L8.19858 3.2L7.89858 3.4V3.7H7.49858L7.29858 3.6V3.7H7.39858L7.49858 3.8L7.59858 3.9C7.59858 3.9 7.99858 4 7.99858 3.9H8.29858V3.7H8.99858L9.19858 3.6H9.79858C9.99858 3.6 10.0986 3.6 10.0986 3.8H9.79858V4H10.0986H10.1986ZM7.79858 3V3.1L7.89858 3H7.79858Z" fill="#F9DD16"/>
<path d="M8.09858 3L8.29858 3.1L8.19858 3.4H7.79858V3C7.79858 3 7.79858 2.8 7.99858 2.8L8.09858 3Z" fill="#F9DD16"/>
<path d="M7.59858 3.4H7.49858H7.69858C7.69858 3.4 7.69858 3.5 7.59858 3.4C7.59858 3.5 7.69858 3.6 7.89858 3.6L8.09858 3.7C8.09858 3.7 7.89858 3.5 8.09858 3.4C7.79858 3.4 7.79858 3.4 7.69858 3.2L7.49858 2.9H7.39858V3.2C7.39858 3.1 7.39858 3.1 7.29858 3.2L7.59858 3.4ZM9.19858 3.9H9.09858H9.59858V3.6C9.39858 3.4 8.99858 3.6 8.99858 3.6L9.29858 3.8H8.89858V4C8.89858 4 8.89858 4.1 8.99858 4C9.02899 3.98245 9.06348 3.97321 9.09858 3.97321C9.13369 3.97321 9.16818 3.98245 9.19858 4V3.9Z" fill="#F9DD16"/>
<path d="M8.09854 3.4V3.2H7.99854V3.3L8.09854 3.4Z" fill="#FF0016"/>
<path d="M7.39873 2.9L7.19873 3H7.29873L7.39873 2.9ZM7.39873 3.1H7.19873H7.29873H7.39873ZM7.39873 3.6L7.29873 3.8V3.7L7.39873 3.6ZM8.89873 3.9V4.1V4V3.9ZM9.89873 3.9C9.89873 3.8 9.79873 3.9 9.89873 3.9ZM9.89873 3.9V4.1C9.99873 4.1 9.89873 4 9.89873 4V3.9ZM8.09873 3.3V3.6V3.4V3.3Z" fill="#0051BA"/>
<path d="M9.99854 5.2H10.1985V5C10.172 5 10.1466 4.98947 10.1278 4.97071C10.1091 4.95196 10.0985 4.92652 10.0985 4.9C10.0985 4.87348 10.1091 4.84804 10.1278 4.82929C10.1466 4.81054 10.172 4.8 10.1985 4.8H9.59854L9.89854 4.6C9.89854 4.4 9.79854 4.3 9.49854 4.4H8.79854C8.79854 4.4 9.09854 4.2 9.19854 4.3H9.69854L9.29854 4.2C9.19854 4.1 8.79854 4.2 8.79854 4.4C8.79854 4.6 9.09854 4.5 9.49854 4.4L9.79854 4.5L9.49854 4.6C9.33408 4.56162 9.16299 4.56162 8.99854 4.6C8.89854 4.7 8.79854 4.6 8.59854 4.6H8.29854L7.99854 4.7V5H7.69853L7.49854 4.9V5H7.59854V5.1C7.59854 5.1 7.69854 5.2 7.79854 5.1V5.3L8.09854 5.2H8.39854V5H8.99854L9.19854 4.9H9.79854C9.89854 4.9 9.99854 4.9 9.99854 5.1H9.79854V5.2C9.79854 5.3 9.79854 5.3 9.79854 5.2H9.99854ZM7.99854 4.3H7.79854L7.89854 4.5V4.3H7.99854Z" fill="#F9DD16"/>
<path d="M8.09844 4.3C8.29844 4.3 8.29844 4.3 8.29844 4.5L8.19844 4.7H7.99844L7.89844 4.5C7.89844 4.4 7.89844 4.3 8.09844 4.3Z" fill="#F9DD16"/>
<path d="M7.59855 4.7L7.69855 4.8L7.89855 4.9L8.09855 5C8.09855 5 7.99855 4.8 8.09855 4.8L7.69855 4.6V4.3H7.49855V4.5C7.49855 4.5 7.49855 4.7 7.69855 4.7H7.59855ZM9.09855 5.2H9.29855C9.39855 5.2 9.29855 5.2 9.29855 5.1V4.9C9.19855 4.7 8.89855 4.9 8.89855 4.9L9.09855 5C9.09855 5 9.19855 5 9.09855 5.1H8.79855C8.79855 5.3 8.79855 5.1 8.89855 5.1V5.2C8.92895 5.18245 8.96344 5.17321 8.99855 5.17321C9.03365 5.17321 9.06814 5.18245 9.09855 5.2Z" fill="#F9DD16"/>
<path d="M8.09864 4.7C8.09864 4.7 8.19864 4.7 8.09864 4.6V4.7Z" fill="#FF0016"/>
<path d="M7.49858 4.3C7.49858 4.2 7.39858 4.3 7.39858 4.3H7.49858ZM7.49858 4.3H7.29858C7.29858 4.3 7.39858 4.4 7.39858 4.3H7.49858ZM7.49858 4.5H7.29858H7.39858H7.49858ZM7.49858 4.9C7.49858 4.9 7.39858 5 7.49858 5.1V5V4.9ZM8.89858 5.2C8.89858 5.2 8.79858 5.2 8.89858 5.3V5.2ZM9.79858 5.1L9.69858 5.3V5.2L9.79858 5.1ZM8.09858 4.7V5V4.9V4.8V4.7Z" fill="#0051BA"/>
<path d="M9.45465 6.62C9.42265 6.62 9.42265 6.67 9.41465 6.67C9.47865 6.67 9.51065 6.64 9.52665 6.6V6.66C9.57465 6.64 9.59065 6.59 9.57465 6.56L9.63065 6.58C9.59865 6.55 9.62265 6.48 9.56665 6.44C9.58265 6.44 9.61465 6.46 9.63065 6.49C9.62265 6.42 9.61465 6.38 9.56665 6.34H9.60665C9.5962 6.33131 9.58775 6.31936 9.58213 6.30532C9.57652 6.29129 9.57394 6.27567 9.57465 6.26C9.57465 6.22 9.55865 6.22 9.52665 6.23L9.38265 6.24C9.30265 6.24 9.22265 6.24 9.15865 6.18C9.26265 6.24 9.39865 6.12 9.39865 6.03C9.39865 5.93 9.28665 5.83 9.07865 5.89C8.87065 5.95 8.61465 5.93 8.61465 5.84C8.61465 5.75 8.79865 5.74 8.89465 5.76C8.99065 5.78 9.05465 5.79 9.23065 5.71C9.19065 5.73 9.04665 5.74 8.93465 5.7C8.82265 5.66 8.55065 5.66 8.55065 5.84C8.55065 6.03 8.83865 6.01 9.09465 5.96C9.23865 5.94 9.31865 5.96 9.31865 6.01C9.31865 6.07 9.18265 6.09 9.07865 6.08C8.96883 6.0615 8.85714 6.07172 8.75065 6.11C8.64665 6.15 8.57465 6.11 8.46265 6.14C8.40665 6.14 8.27065 6.14 8.20665 6C8.16665 6.04 8.04665 6.11 8.02265 6.19C7.99865 6.25 8.02265 6.32 8.05465 6.39C8.10265 6.47 8.03065 6.46 7.97465 6.46C7.91065 6.46 7.81465 6.46 7.76665 6.38C7.71865 6.32 7.66265 6.27 7.61465 6.31C7.59065 6.34 7.61465 6.37 7.63065 6.36L7.69465 6.38C7.68179 6.3727 7.66762 6.36977 7.65357 6.37153C7.63952 6.37328 7.62609 6.37966 7.61465 6.39C7.59065 6.41 7.61465 6.45 7.63865 6.44C7.65465 6.43 7.69465 6.42 7.71865 6.44C7.69465 6.44 7.66265 6.44 7.65465 6.46C7.64665 6.48 7.65465 6.5 7.67865 6.5C7.72665 6.5 7.73465 6.54 7.78265 6.53C7.77147 6.53077 7.76058 6.53478 7.75086 6.54173C7.74114 6.54867 7.73285 6.55835 7.72665 6.57C7.77465 6.54 7.81465 6.61 7.87065 6.59C7.85465 6.6 7.81465 6.63 7.81465 6.65C7.84665 6.6 8.07065 6.69 8.07065 6.58L8.06265 6.66C8.08665 6.64 8.17465 6.63 8.20665 6.56C8.20665 6.58 8.20665 6.61 8.19065 6.62C8.21465 6.62 8.25465 6.6 8.29465 6.53C8.31065 6.5 8.31065 6.48 8.31065 6.46C8.35065 6.46 8.37465 6.45 8.40665 6.42C8.43865 6.39 8.47065 6.45 8.52665 6.4C8.57465 6.36 8.62265 6.4 8.65465 6.38C8.67865 6.36 8.71865 6.38 8.75065 6.36C8.78265 6.34 8.83065 6.37 8.87865 6.32C8.95865 6.36 9.06265 6.42 9.29465 6.37C9.42265 6.34 9.47065 6.4 9.47065 6.47C9.47065 6.53 9.43865 6.53 9.42265 6.53C9.34265 6.54 9.31865 6.5 9.28665 6.51C9.27065 6.52 9.25465 6.56 9.28665 6.58C9.26265 6.59 9.26265 6.62 9.27865 6.63C9.29465 6.64 9.31865 6.63 9.34265 6.62C9.31065 6.63 9.28665 6.66 9.30265 6.69C9.31065 6.71 9.33465 6.72 9.35865 6.69C9.38265 6.65 9.42265 6.62 9.45465 6.62ZM7.96665 5.82C7.90265 5.79 7.88665 5.79 7.89465 5.86C7.89465 5.89 7.91865 5.93 7.93465 5.95C7.93465 5.92 7.94265 5.85 7.96665 5.83V5.82Z" fill="#F9DD16" stroke="black" stroke-width="0.0159009"/>
<path d="M8.18262 5.83C8.24662 5.79 8.27062 5.79 8.25462 5.86C8.25462 5.89 8.23062 5.93 8.21462 5.95C8.21462 5.92 8.21462 5.85 8.18262 5.83Z" fill="#F9DD16" stroke="black" stroke-width="0.0159009"/>
<path d="M8.07857 5.78C8.20657 5.78 8.22257 5.86 8.21457 5.95C8.21457 6.05 8.17457 6.01 8.15057 6.15C8.14257 6.19 8.11057 6.2 8.07057 6.2C8.04657 6.2 8.01457 6.2 7.99857 6.14C7.97457 6.01 7.93457 6.04 7.93457 5.94C7.93457 5.86 7.95057 5.78 8.07857 5.78Z" fill="#F9DD16" stroke="black" stroke-width="0.0159009"/>
<path d="M7.75066 6.15C7.71866 6.13 7.69466 6.15 7.67866 6.15C7.72666 6.16 7.72666 6.23 7.82266 6.25C7.79866 6.25 7.79066 6.27 7.76666 6.25C7.80666 6.29 7.84666 6.34 7.94266 6.34C7.99866 6.34 7.95866 6.37 7.92666 6.35C7.95866 6.4 8.03066 6.36 8.07866 6.45C8.07866 6.38 7.99866 6.28 8.03866 6.21C7.90266 6.2 7.89466 6.11 7.82266 6.04C7.75866 5.98 7.75066 5.92 7.72666 5.81C7.71866 5.76 7.67066 5.73 7.64666 5.74C7.62266 5.74 7.60666 5.77 7.63066 5.79C7.64666 5.81 7.67866 5.81 7.67866 5.86C7.65466 5.82 7.61466 5.81 7.59866 5.83C7.59066 5.85 7.59866 5.88 7.61466 5.88C7.65466 5.88 7.63066 5.94 7.67066 5.98C7.63066 5.93 7.59866 5.92 7.57466 5.95C7.56666 5.97 7.57466 6 7.60666 6C7.64666 6 7.68666 6.12 7.75066 6.15ZM8.79066 6.61C8.77466 6.61 8.78266 6.66 8.75066 6.66C8.81466 6.66 8.85466 6.64 8.87866 6.61L8.86266 6.66C8.89466 6.63 8.98266 6.62 9.02266 6.63C9.06266 6.64 9.07066 6.62 9.08666 6.59C9.10266 6.55 9.08666 6.53 9.06266 6.51C9.03866 6.48 9.03066 6.44 9.03866 6.38C8.92666 6.18 8.71866 6.28 8.71866 6.36C8.79066 6.47 8.79866 6.46 8.86266 6.47C8.91866 6.49 8.95866 6.49 8.91866 6.53C8.90266 6.55 8.83866 6.53 8.79866 6.54C8.69466 6.54 8.63866 6.45 8.61466 6.5C8.59066 6.54 8.61466 6.56 8.66266 6.56C8.63066 6.56 8.58266 6.56 8.59066 6.6C8.60666 6.67 8.65466 6.59 8.67866 6.61C8.66266 6.61 8.63066 6.62 8.63066 6.64C8.63066 6.66 8.67066 6.69 8.71066 6.64C8.7339 6.6191 8.76206 6.60854 8.79066 6.61Z" fill="#F9DD16" stroke="black" stroke-width="0.0159009"/>
<path d="M8.87872 6.32C8.84672 6.3 8.80672 6.29 8.76672 6.3M8.31872 6.3C8.28672 6.38 8.30272 6.42 8.31072 6.46M7.99072 5.9C8.00672 5.92 8.02272 5.88 8.05472 5.92M8.05472 5.92C8.04672 5.91 8.03072 5.95 8.00672 5.92M8.05472 5.92V5.95C8.04672 6.02 8.03072 6.05 8.07072 6.05C8.11872 6.05 8.10272 6.02 8.09472 5.95V5.92M8.16672 5.91C8.14272 5.91 8.12672 5.88 8.09472 5.92M8.09472 5.92C8.10272 5.91 8.11872 5.95 8.14272 5.92" stroke="black" stroke-width="0.0159009"/>
<path d="M8.07857 6.17C8.11057 6.17 8.12657 6.17 8.12657 6.11C8.12657 6.09 8.15057 6.08 8.13457 6.04C8.15057 6.08 8.07857 6.08 8.07857 6.06C8.07857 6.08 7.99857 6.08 8.01457 6.04C8.00657 6.08 8.03057 6.09 8.02257 6.11C8.02257 6.17 8.03857 6.17 8.07857 6.17Z" fill="#FF0016" stroke="black" stroke-width="0.0159009"/>
<path d="M8.03874 6.05L7.95874 6.02ZM8.03874 6.05H7.95874ZM8.03874 6.06L7.96674 6.09ZM8.10274 6.05L8.18274 6.02ZM8.10274 6.05H8.19874ZM8.10274 6.06L8.18274 6.09Z" fill="black"/>
<path d="M7.95874 6.02L8.03874 6.05H7.95874M8.03874 6.06L7.96674 6.09M8.18274 6.02L8.10274 6.05H8.19874M8.10274 6.06L8.18274 6.09" stroke="black" stroke-width="0.0159009"/>
</g>
</g>
<defs>
<clipPath id="clip0_14_1268">
<rect width="18" height="18" rx="9" fill="white"/>
</clipPath>
</defs>
</svg>
