<svg width="18" height="18" viewBox="0 0 18 18" fill="none" xmlns="http://www.w3.org/2000/svg">
<g clip-path="url(#clip0_14_1166)">
<mask id="mask0_14_1166" style="mask-type:luminance" maskUnits="userSpaceOnUse" x="0" y="0" width="18" height="19">
<path d="M0.00219727 0H17.9988V18.0002H0.00219727V0Z" fill="white"/>
</mask>
<g mask="url(#mask0_14_1166)">
<path fill-rule="evenodd" clip-rule="evenodd" d="M-4.14136 0H31.8591V6.00007H-4.14136V0Z" fill="black"/>
<path fill-rule="evenodd" clip-rule="evenodd" d="M-4.14136 6.00007H31.8591V12.0001H-4.14136V6.00007Z" fill="white"/>
<path fill-rule="evenodd" clip-rule="evenodd" d="M-4.14136 12.0001H31.8591V18.0002H-4.14136V12.0001Z" fill="#009900"/>
<path fill-rule="evenodd" clip-rule="evenodd" d="M-4.14136 18.0002L13.8589 8.99829L-4.14136 0V18.0002Z" fill="#FF0000"/>
<path fill-rule="evenodd" clip-rule="evenodd" d="M1.86961 8.8998L2.67205 9.28643H1.77842L1.97903 10.1618L1.42097 9.45786L0.86291 10.1582L1.06352 9.28643H0.162598L0.968687 8.89616L0.410625 8.19949L1.21671 8.58612L1.41732 7.71438L1.61793 8.58977L2.42038 8.19949L1.86961 8.8998Z" fill="white"/>
</g>
</g>
<defs>
<clipPath id="clip0_14_1166">
<rect width="18" height="18" rx="9" fill="white"/>
</clipPath>
</defs>
</svg>
