<svg width="18" height="18" viewBox="0 0 18 18" fill="none" xmlns="http://www.w3.org/2000/svg">
<g clip-path="url(#clip0_8201_10682)">
<path d="M9 18C13.9706 18 18 13.9706 18 9C18 4.02944 13.9706 0 9 0C4.02944 0 0 4.02944 0 9C0 13.9706 4.02944 18 9 18Z" fill="#F0F0F0"/>
<path d="M9.00003 0C5.43188 0 2.34882 2.0765 0.893066 5.08697H17.107C15.6512 2.0765 12.5681 0 9.00003 0Z" fill="black"/>
<path d="M9.00003 18.0001C5.43188 18.0001 2.34882 15.9236 0.893066 12.9131H17.107C15.6512 15.9236 12.5681 18.0001 9.00003 18.0001Z" fill="#496E2D"/>
<path d="M17.575 6.26086H0.425004C0.149309 7.12462 0 8.04483 0 8.99999C0 9.95515 0.149309 10.8754 0.425004 11.7391H17.575C17.8507 10.8754 18 9.95515 18 8.99999C18 8.04483 17.8507 7.12462 17.575 6.26086Z" fill="#A2001D"/>
<path d="M11.8027 4.15906L10.7369 3.66711L9.00023 7.59938L7.26359 3.66711L6.19775 4.15906L8.35382 9.00004L6.19775 13.841L7.26359 14.333L9.00023 10.4007L10.7369 14.333L11.8027 13.841L9.64665 9.00004L11.8027 4.15906Z" fill="#F0F0F0"/>
<path d="M9.72417 4.62271C9.31158 4.17212 9.00027 3.91309 9.00027 3.91309C9.00027 3.91309 8.68896 4.17208 8.27637 4.62271V13.3773C8.68896 13.828 9.00027 14.087 9.00027 14.087C9.00027 14.087 9.31158 13.828 9.72417 13.3774V4.62271Z" fill="#F0F0F0"/>
<path d="M7.04346 6.30155V11.6985C7.47946 12.471 8.0131 13.1042 8.41304 13.5241V4.47595C8.0131 4.89575 7.47943 5.52902 7.04346 6.30155Z" fill="#A2001D"/>
<path d="M10.9565 6.30155C10.5205 5.52899 9.98685 4.89575 9.58691 4.47595V13.5241C9.98682 13.1042 10.5205 12.471 10.9565 11.6985V6.30155Z" fill="#A2001D"/>
<path d="M10.9565 6.30151V11.6984C11.3979 10.9162 11.7392 9.9913 11.7392 9C11.7392 8.0087 11.3979 7.08374 10.9565 6.30151Z" fill="black"/>
<path d="M7.04336 6.30151V11.6984C6.60197 10.9162 6.26074 9.9913 6.26074 9C6.26074 8.0087 6.60197 7.08374 7.04336 6.30151Z" fill="black"/>
</g>
<defs>
<clipPath id="clip0_8201_10682">
<rect width="18" height="18" fill="white"/>
</clipPath>
</defs>
</svg>
