<svg width="18" height="18" viewBox="0 0 18 18" fill="none" xmlns="http://www.w3.org/2000/svg">
<g clip-path="url(#clip0_14_1278)">
<mask id="mask0_14_1278" style="mask-type:luminance" maskUnits="userSpaceOnUse" x="-1" y="0" width="19" height="19">
<path d="M-0.00292969 0H17.9988V18.0017H0.00139447L-0.00292969 0Z" fill="white"/>
</mask>
<g mask="url(#mask0_14_1278)">
<path fill-rule="evenodd" clip-rule="evenodd" d="M-4.5 0H22.5264V18.0017H-4.5V0Z" fill="#FF0000"/>
<path fill-rule="evenodd" clip-rule="evenodd" d="M3.70745 9.18032C4.18744 8.59655 5.18201 9.16734 5.99496 8.74789C5.03066 8.79978 4.50743 8.2852 3.74637 8.35871C4.53338 7.8744 5.20363 8.51439 6.08577 8.25493C4.91823 8.1598 4.97012 7.63657 3.91069 7.56306C4.85337 7.16091 5.31606 7.97818 6.24144 7.79224C5.15174 7.54144 5.00904 6.90145 4.20041 6.76308C5.38092 6.58578 5.30309 7.28198 6.46198 7.36847C5.28579 6.86686 5.59713 6.42579 4.61121 6.04526C5.71389 6.01931 5.64038 6.78037 6.7517 6.97929C5.80037 6.3739 5.91712 5.8204 5.13012 5.38798C6.06415 5.40527 6.15496 6.36093 7.10628 6.65497C6.25874 5.98472 6.47927 5.41392 5.74848 4.81286C6.67386 5.02907 6.53981 5.85499 7.50411 6.37822C6.79062 5.58689 7.06304 5.01609 6.44036 4.36314C7.33114 4.65286 6.99386 5.43554 7.91924 6.17931C7.38736 5.30582 7.716 4.74799 7.19277 4.00855C8.02302 4.44097 7.62087 5.23663 8.39058 6.03228C8.02734 5.13717 8.39058 4.57935 8.0187 3.78369C8.72787 4.31557 8.30842 5.16744 8.87921 5.98472C8.67165 4.86042 9.15596 4.67448 9.00462 3.69288C9.54082 4.35449 8.93975 5.01609 9.35055 5.98472C9.30731 4.88204 9.89108 4.62259 9.7873 3.73612C10.3235 4.53178 9.48893 5.22366 9.83919 6.07553C9.92568 5.02474 10.6176 4.75664 10.6305 3.93936C11.05 4.68745 10.1332 5.22798 10.2846 6.22255C10.583 5.1242 11.3181 4.99015 11.4089 4.25071C11.6597 5.11555 10.6565 5.52203 10.717 6.482C11.0154 5.50905 11.9321 5.3923 12.1224 4.67448C12.2348 5.59121 11.331 5.75553 11.0802 6.7674C11.5559 5.9458 12.3862 5.87229 12.758 5.21933C12.7278 6.12742 11.7073 6.24417 11.3959 7.09604C11.984 6.3739 12.7191 6.4993 13.3072 5.85932C13.2467 6.68092 12.2089 6.63335 11.6554 7.4809C12.2953 6.8928 13.2553 7.0701 13.744 6.56416C13.718 7.28631 12.4467 7.23442 11.8413 7.87873C12.5851 7.47657 13.5234 7.71441 14.0683 7.33387C13.9645 7.96953 12.624 7.82684 11.9754 8.3198C12.8618 8.07332 13.545 8.44952 14.2672 8.1771C13.9169 8.79546 12.6975 8.40628 12.0489 8.80843C12.8186 8.67871 13.6359 9.1414 14.3364 8.99437C14.1072 9.52625 12.771 8.95978 12.0445 9.29707C12.9094 9.2841 13.4715 9.8376 14.2672 9.79868C13.8348 10.283 12.6586 9.61706 11.9754 9.72949C12.8099 9.90246 13.4456 10.5943 14.0813 10.6289C13.5623 11.0268 12.5894 10.1187 11.7981 10.2354C12.611 10.4516 13.2942 11.377 13.7613 11.3986C13.2596 11.7446 12.2651 10.6073 11.5862 10.6462C12.4078 11.0224 12.7883 11.9651 13.3332 12.0992C12.6629 12.3154 12.0013 11.0743 11.2792 11.0311C12.1137 11.5586 12.1613 12.3629 12.8056 12.7175C12.131 12.8905 11.6467 11.4851 10.9332 11.3684C11.6208 11.87 11.7202 12.9467 12.1786 13.2883C11.4867 13.3229 11.2402 11.857 10.5354 11.6451C11.1408 12.1511 10.9938 13.2451 11.4608 13.7164C10.7473 13.5694 10.8381 12.2894 10.09 11.857C10.6262 12.5402 10.3494 13.5045 10.704 14.0494C10.0035 13.7683 10.3105 12.6224 9.64028 11.9738C10.0035 12.7002 9.61433 13.5435 9.89973 14.244C9.26407 13.9326 9.69217 12.5792 9.20353 12.0386C9.42839 12.8775 9.01327 13.5694 9.18191 14.3175C8.52895 13.5607 9.28137 12.804 8.71489 12.0257C8.86192 12.9164 8.24355 13.5305 8.34301 14.2742C7.82411 13.6689 8.61976 12.6959 8.21761 11.9348C8.30409 12.804 7.50411 13.5651 7.56033 14.1142C7.14088 13.4137 8.02734 12.5835 7.78951 11.7835C7.73762 12.6137 6.93332 13.0635 6.78197 13.8159C6.50954 12.9856 7.46952 12.3846 7.38736 11.5673C7.11061 12.3456 6.33225 12.657 6.0555 13.4094C5.83064 12.5792 6.96791 12.1381 6.99818 11.2646C6.64792 12.0862 5.71389 12.2635 5.40687 12.8905C5.29011 12.0689 6.59603 11.697 6.64359 10.9143C6.22415 11.6667 5.20363 11.6927 4.84904 12.2938C4.79715 11.4722 6.17225 11.3684 6.38847 10.5079C5.96902 11.1478 4.84904 11.07 4.38635 11.5889C4.45986 10.8235 5.94307 10.776 6.1809 10.0927C5.6274 10.6246 4.60256 10.4041 4.01879 10.8278C4.34311 10.0754 5.73983 10.2354 6.05118 9.69057C5.43714 10.0149 4.34311 9.70355 3.80258 10.0235C4.29554 9.31437 5.38092 9.73814 5.99496 9.24518C4.99607 9.3922 4.395 8.99437 3.70312 9.18032H3.70745Z" fill="#FFFF00"/>
<path fill-rule="evenodd" clip-rule="evenodd" d="M12.5116 9.00302C12.528 9.47134 12.45 9.93818 12.2822 10.3757C12.1144 10.8132 11.8601 11.2124 11.5347 11.5496C11.2092 11.8867 10.8192 12.1548 10.3878 12.338C9.95648 12.5211 9.49267 12.6155 9.02407 12.6155C8.55546 12.6155 8.09166 12.5211 7.66032 12.338C7.22898 12.1548 6.83894 11.8867 6.51347 11.5496C6.188 11.2124 5.93376 10.8132 5.76593 10.3757C5.59809 9.93818 5.52009 9.47134 5.53659 9.00302C5.56841 8.09934 5.94978 7.24329 6.60033 6.61524C7.25088 5.9872 8.11982 5.6362 9.02407 5.6362C9.92831 5.6362 10.7973 5.9872 11.4478 6.61524C12.0984 7.24329 12.4797 8.09934 12.5116 9.00302Z" fill="#FFFF00"/>
<path fill-rule="evenodd" clip-rule="evenodd" d="M12.0618 9.01167C12.0618 9.40975 11.9834 9.80392 11.8311 10.1717C11.6787 10.5395 11.4555 10.8736 11.174 11.1551C10.8925 11.4366 10.5583 11.6599 10.1906 11.8122C9.82279 11.9645 9.42862 12.043 9.03054 12.043C8.63247 12.043 8.2383 11.9645 7.87052 11.8122C7.50275 11.6599 7.16859 11.4366 6.88711 11.1551C6.60563 10.8736 6.38235 10.5395 6.23001 10.1717C6.07767 9.80392 5.99927 9.40975 5.99927 9.01167C5.99927 8.20715 6.31886 7.43559 6.88774 6.86671C7.45662 6.29783 8.22819 5.97823 9.03271 5.97823C9.83723 5.97823 10.6088 6.29783 11.1777 6.86671C11.7466 7.43559 12.0661 8.20715 12.0661 9.01167H12.0618Z" fill="#FF0000"/>
<path fill-rule="evenodd" clip-rule="evenodd" d="M11.6423 9.016C11.6423 9.70698 11.3678 10.3697 10.8792 10.8583C10.3906 11.3468 9.72796 11.6213 9.03698 11.6213C8.346 11.6213 7.68332 11.3468 7.19473 10.8583C6.70613 10.3697 6.43164 9.70698 6.43164 9.016C6.43164 8.32502 6.70613 7.66234 7.19473 7.17374C7.68332 6.68515 8.346 6.41066 9.03698 6.41066C9.72796 6.41066 10.3906 6.68515 10.8792 7.17374C11.3678 7.66234 11.6423 8.32502 11.6423 9.016Z" fill="#FFFF00"/>
<path fill-rule="evenodd" clip-rule="evenodd" d="M6.8209 7.30793C7.54304 7.29496 8.43816 7.35982 9.03057 7.83548C9.66515 7.43827 10.4126 7.26052 11.1581 7.32955L11.5473 8.03872C10.9851 7.98251 10.4359 8.06034 9.78731 8.32412C10.1816 8.61498 10.4985 8.99808 10.7103 9.43985C10.9222 9.88162 11.0225 10.3686 11.0024 10.8581C10.9073 10.9792 10.7603 11.1089 10.6651 11.2257C10.8035 10.2268 10.2759 9.1068 9.50624 8.51871C10.1289 9.42247 10.5008 10.2311 10.397 11.3511L10.0424 11.5716C10.2068 10.5857 9.97758 9.43112 9.24678 8.76087C9.52597 9.17362 9.72088 9.63745 9.82032 10.1257C9.91976 10.614 9.92177 11.1171 9.82623 11.6062C9.7138 11.6408 9.54083 11.7359 9.42408 11.7705C9.56202 11.3088 9.59944 10.8229 9.53379 10.3455C9.46815 9.86814 9.30099 9.41037 9.04355 9.00302C8.79095 9.40762 8.62752 9.86142 8.56414 10.3342C8.50076 10.8069 8.53889 11.2877 8.67599 11.7446L8.30411 11.6365C8.10519 10.577 8.38194 9.38788 8.86193 8.76519C8.37329 9.05059 7.9106 10.2657 8.04033 11.5067L7.71169 11.3554C7.55169 10.43 7.97114 9.22356 8.57653 8.52736C7.8933 8.95978 7.33548 10.0149 7.43494 11.1522C7.33116 11.0614 7.2317 11.0138 7.12792 10.923C7.00684 9.92841 7.58196 8.92951 8.25221 8.32844C7.69831 8.09384 7.0965 7.99453 6.49658 8.03872C6.60469 7.80954 6.71279 7.54144 6.8209 7.31225V7.30793Z" fill="#FF0000"/>
</g>
</g>
<defs>
<clipPath id="clip0_14_1278">
<rect width="18" height="18" rx="9" fill="white"/>
</clipPath>
</defs>
</svg>
