<svg width="18" height="18" viewBox="0 0 18 18" fill="none" xmlns="http://www.w3.org/2000/svg">
<g clip-path="url(#clip0_8201_10064)">
<path d="M0 9.00005C0 10.5592 0.396668 12.0257 1.09431 13.3044L9 14.087L16.9057 13.3044C17.6033 12.0257 18 10.5592 18 9.00005C18 7.44088 17.6033 5.97437 16.9057 4.6957L9 3.91309L1.09431 4.6957C0.396668 5.97437 0 7.44088 0 9.00005H0Z" fill="#D80027"/>
<path d="M1.09424 4.69564H16.9056C15.3792 1.89805 12.4113 0 8.99993 0C5.58854 0 2.62069 1.89805 1.09424 4.69564Z" fill="#0052B4"/>
<path d="M8.99993 18C12.4113 18 15.3792 16.1019 16.9056 13.3043H1.09424C2.62069 16.1019 5.58854 18 8.99993 18Z" fill="#0052B4"/>
<path d="M12.1304 10.7609V9.58702H11.3478V8.02179L10.5652 7.23918L9.78256 8.02179V6.45656L8.99995 5.67395L8.21733 6.45656V8.02179L7.43472 7.23918L6.65211 8.02179V9.58702H5.86953V10.7609H5.08691V11.9348H12.913V10.7609H12.1304Z" fill="#F0F0F0"/>
</g>
<defs>
<clipPath id="clip0_8201_10064">
<rect width="18" height="18" fill="white"/>
</clipPath>
</defs>
</svg>
