<svg width="18" height="18" viewBox="0 0 18 18" fill="none" xmlns="http://www.w3.org/2000/svg">
<g clip-path="url(#clip0_8201_10192)">
<path d="M9 18C13.9706 18 18 13.9706 18 9C18 4.02944 13.9706 0 9 0C4.02944 0 0 4.02944 0 9C0 13.9706 4.02944 18 9 18Z" fill="#F0F0F0"/>
<path d="M17.9995 8.974H8.24332C6.30632 10.911 5.13498 12.4065 3.93896 13.6025L9.02593 14.0609L16.9197 13.2783C17.6086 12.0058 17.9998 10.5486 17.9998 9.00005C17.9998 8.99133 17.9995 8.98272 17.9995 8.974Z" fill="#D80027"/>
<path d="M3.93905 4.66959H16.891C15.3604 1.88634 12.4006 0 8.9999 0C6.52121 0 4.27697 1.00234 2.64941 2.6235L3.93905 4.66959Z" fill="#FFDA44"/>
<path d="M4.3302 13.2783C3.52111 14.0874 3.20843 14.7653 2.62305 15.3506C4.25271 16.9871 6.50781 18.0001 8.99976 18.0001C12.4217 18.0001 15.3975 16.0902 16.9197 13.2783H4.3302Z" fill="#0052B4"/>
<path d="M2.63603 2.60999C-0.878678 6.1247 -0.878678 11.8232 2.63603 15.338C4.08844 13.8855 5.48531 12.4887 9.00002 8.97397L2.63603 2.60999Z" fill="#6DA544"/>
<path d="M2.37413 8.97399C2.37413 7.66273 3.29568 6.5673 4.52629 6.29857C4.33715 6.25726 4.14091 6.23486 3.93932 6.23486C2.42652 6.23486 1.2002 7.46118 1.2002 8.97399C1.2002 10.4868 2.42652 11.7131 3.93932 11.7131C4.14087 11.7131 4.33712 11.6907 4.52629 11.6494C3.29568 11.3806 2.37413 10.2853 2.37413 8.97399Z" fill="#F0F0F0"/>
<path d="M4.49607 6.6261L4.6418 7.07448H5.11324L4.7318 7.35162L4.87752 7.8L4.49607 7.5229L4.11463 7.8L4.26035 7.35162L3.87891 7.07448H4.35035L4.49607 6.6261Z" fill="#F0F0F0"/>
<path d="M4.49607 7.80005L4.6418 8.24847H5.11324L4.7318 8.52557L4.87752 8.97399L4.49607 8.69685L4.11463 8.97399L4.26035 8.52557L3.87891 8.24847H4.35035L4.49607 7.80005Z" fill="#F0F0F0"/>
<path d="M4.49607 8.974L4.6418 9.42238H5.11324L4.7318 9.69952L4.87752 10.1479L4.49607 9.87076L4.11463 10.1479L4.26035 9.69952L3.87891 9.42238H4.35035L4.49607 8.974Z" fill="#F0F0F0"/>
<path d="M4.49607 10.1479L4.6418 10.5963H5.11324L4.7318 10.8735L4.87752 11.3219L4.49607 11.0448L4.11463 11.3219L4.26035 10.8735L3.87891 10.5963H4.35035L4.49607 10.1479Z" fill="#F0F0F0"/>
</g>
<defs>
<clipPath id="clip0_8201_10192">
<rect width="18" height="18" fill="white"/>
</clipPath>
</defs>
</svg>
