<svg width="18" height="18" viewBox="0 0 18 18" fill="none" xmlns="http://www.w3.org/2000/svg">
<g clip-path="url(#clip0_14_1158)">
<mask id="mask0_14_1158" style="mask-type:luminance" maskUnits="userSpaceOnUse" x="0" y="0" width="19" height="19">
<path d="M0 0H18.0017V18.0017H0V0Z" fill="white"/>
</mask>
<g mask="url(#mask0_14_1158)">
<path fill-rule="evenodd" clip-rule="evenodd" d="M0 0H27.0264V4.49719H0V0Z" fill="#FFFF00"/>
<path fill-rule="evenodd" clip-rule="evenodd" d="M0 4.49719H27.0264V8.9987H0V4.49719Z" fill="white"/>
<path fill-rule="evenodd" clip-rule="evenodd" d="M0 8.9987H27.0264V13.4959H0V8.9987Z" fill="#BE0027"/>
<path fill-rule="evenodd" clip-rule="evenodd" d="M0 13.5002H27.0264V17.9974H0V13.5002Z" fill="#3B5AA3"/>
<path fill-rule="evenodd" clip-rule="evenodd" d="M0 0V17.9974L13.4224 9.02464L0 0Z" fill="#239E46"/>
<path fill-rule="evenodd" clip-rule="evenodd" d="M5.52634 4.97285C2.53398 4.8215 1.17185 7.20415 1.17617 9.04627C1.16753 11.2257 3.2345 13.0245 5.14148 12.9121C4.43975 12.5396 3.85422 11.9809 3.44917 11.2974C3.04411 10.6139 2.83519 9.83205 2.84532 9.03762C2.82199 8.16704 3.06662 7.3103 3.54613 6.5833C4.02564 5.85631 4.71688 5.29414 5.52634 4.97285Z" fill="white"/>
<path fill-rule="evenodd" clip-rule="evenodd" d="M5.48305 6.9274L5.05928 6.59876L4.54902 6.75875L4.73064 6.25714L4.42362 5.8204L4.9555 5.8377L5.27549 5.40527L5.42251 5.92418L5.93277 6.09282L5.48738 6.39552L5.48305 6.9274ZM5.4744 8.75654L5.05063 8.4279L4.54037 8.5879L4.72199 8.08629L4.41064 7.64954L4.94685 7.66684L5.26684 7.23442L5.41386 7.75332L5.92412 7.92629L5.47873 8.22466L5.4744 8.75654ZM5.48305 10.6073L5.05928 10.2787L4.54902 10.4387L4.73064 9.93273L4.42362 9.50031L4.9555 9.51761L5.27549 9.08518L5.42251 9.60409L5.93277 9.77273L5.48738 10.0711L5.48305 10.6073ZM5.4744 12.471L5.05063 12.1424L4.54037 12.3024L4.72199 11.8008L4.41064 11.364L4.94685 11.3813L5.26684 10.9489L5.41386 11.4678L5.92412 11.6408L5.47873 11.9392L5.4744 12.471Z" fill="white"/>
</g>
</g>
<defs>
<clipPath id="clip0_14_1158">
<rect width="18" height="18" rx="9" fill="white"/>
</clipPath>
</defs>
</svg>
