<svg width="18" height="18" viewBox="0 0 18 18" fill="none" xmlns="http://www.w3.org/2000/svg">
<g clip-path="url(#clip0_14_1433)">
<mask id="mask0_14_1433" style="mask-type:luminance" maskUnits="userSpaceOnUse" x="0" y="-1" width="19" height="19">
<path d="M0.00140381 -0.000289917H18.001V17.9969H0.00140381V-0.000289917Z" fill="white"/>
</mask>
<g mask="url(#mask0_14_1433)">
<path fill-rule="evenodd" clip-rule="evenodd" d="M-3.79126 0.00701904H22.1416V17.98H-3.79126V0.00701904Z" fill="#FFE900"/>
<path fill-rule="evenodd" clip-rule="evenodd" d="M-3.80334 0.00702314L-3.77436 12.965L16.4042 -0.00263977L-3.80334 0.00702314Z" fill="#35A100"/>
<path fill-rule="evenodd" clip-rule="evenodd" d="M22.173 17.98L22.1271 4.50752L1.77216 17.9921L22.173 17.9824V17.98Z" fill="#C70000"/>
<path fill-rule="evenodd" clip-rule="evenodd" d="M-3.79129 13.9433L-3.77438 17.9993L0.629494 17.9921L22.1367 3.57263L22.1126 0.0456707L17.7618 0.00701904L-3.7937 13.9433H-3.79129Z" fill="black"/>
<path fill-rule="evenodd" clip-rule="evenodd" d="M16.0974 6.50533L14.5465 6.45219L13.9353 7.90646L13.5899 6.42078L12.039 6.36764L13.3773 5.50522L13.0294 4.01714L14.201 4.96893L15.5369 4.10169L14.9234 5.55595L16.0974 6.50533ZM6.42241 12.8007L4.8691 12.7452L4.26033 14.1994L3.91488 12.7138L2.36157 12.6606L3.69988 11.7958L3.35202 10.3125L4.52365 11.2643L5.85954 10.3971L5.24837 11.8489L6.42241 12.8007Z" fill="white"/>
</g>
</g>
<defs>
<clipPath id="clip0_14_1433">
<rect width="18" height="18" rx="9" fill="white"/>
</clipPath>
</defs>
</svg>
