<svg width="18" height="18" viewBox="0 0 18 18" fill="none" xmlns="http://www.w3.org/2000/svg">
<g clip-path="url(#clip0_8201_11055)">
<path d="M9 18C13.9706 18 18 13.9706 18 9C18 4.02944 13.9706 0 9 0C4.02944 0 0 4.02944 0 9C0 13.9706 4.02944 18 9 18Z" fill="#F0F0F0"/>
<path d="M9.00019 0C6.27238 0 3.82821 1.21373 2.17773 3.13042H15.8226C14.1722 1.21373 11.728 0 9.00019 0Z" fill="#0052B4"/>
<path d="M15.8226 14.8696H2.17773C3.82821 16.7863 6.27238 18 9.00019 18C11.728 18 14.1722 16.7863 15.8226 14.8696Z" fill="#0052B4"/>
<path d="M16.679 4.30432H1.32096C0.483223 5.67137 0 7.27917 0 8.99997C0 10.7208 0.483223 12.3286 1.32096 13.6956H16.679C17.5168 12.3286 18 10.7208 18 8.99997C18 7.27917 17.5168 5.67137 16.679 4.30432Z" fill="#D80027"/>
<path d="M5.53676 12.463C7.44934 12.463 8.99979 10.9126 8.99979 9.00002C8.99979 7.08744 7.44934 5.53699 5.53676 5.53699C3.62418 5.53699 2.07373 7.08744 2.07373 9.00002C2.07373 10.9126 3.62418 12.463 5.53676 12.463Z" fill="#F0F0F0"/>
<path d="M5.53685 5.53699L6.31384 7.92835H8.83236L6.79411 9.40639L7.57718 11.8049L5.53685 10.3198L3.49961 11.8021L4.27959 9.40639L2.24316 7.92835H4.75982L5.53685 5.53699Z" fill="#D80027"/>
</g>
<defs>
<clipPath id="clip0_8201_11055">
<rect width="18" height="18" fill="white"/>
</clipPath>
</defs>
</svg>
