<svg width="18" height="18" viewBox="0 0 18 18" fill="none" xmlns="http://www.w3.org/2000/svg">
<g clip-path="url(#clip0_14_1217)">
<mask id="mask0_14_1217" style="mask-type:luminance" maskUnits="userSpaceOnUse" x="0" y="-1" width="19" height="19">
<path d="M0.000976562 -0.00260544H18.0011V17.9977H0.000976562V-0.00260544Z" fill="white"/>
</mask>
<g mask="url(#mask0_14_1217)">
<path fill-rule="evenodd" clip-rule="evenodd" d="M27.2802 17.9829H-2.66748V0.0196381H27.2802V17.9829Z" fill="white" stroke="black" stroke-width="0.0655702"/>
<path fill-rule="evenodd" clip-rule="evenodd" d="M27.2802 14.7313H-2.66748V17.9866H27.2802V14.7313Z" fill="#3E5698"/>
<path fill-rule="evenodd" clip-rule="evenodd" d="M27.2802 13.9787H-2.66748V4.02382H27.2802V13.9787Z" fill="#C60000"/>
<path fill-rule="evenodd" clip-rule="evenodd" d="M27.2802 0.0196381H-2.66748V3.26748H27.2802V0.0196381Z" fill="#3E5698"/>
<path fill-rule="evenodd" clip-rule="evenodd" d="M11.5482 9.0031C11.5482 11.2314 9.68333 13.0407 7.38177 13.0407C5.07717 13.0407 3.20923 11.2314 3.20923 8.99939C3.20923 6.77114 5.07717 4.96184 7.38177 4.96184C9.68637 4.96184 11.5482 6.77114 11.5482 9.0031Z" fill="white"/>
<path fill-rule="evenodd" clip-rule="evenodd" d="M9.42251 11.8246L7.41811 10.3934L5.3834 11.8394L6.18091 9.51104L4.17651 8.08362L6.67518 8.0725L7.46966 5.73672L8.21259 8.06508L10.7113 8.05025L8.67351 9.49621L9.42251 11.8246Z" fill="#C40000"/>
</g>
</g>
<defs>
<clipPath id="clip0_14_1217">
<rect width="18" height="18" rx="9" fill="white"/>
</clipPath>
</defs>
</svg>
