<svg width="18" height="18" viewBox="0 0 18 18" fill="none" xmlns="http://www.w3.org/2000/svg">
<g clip-path="url(#clip0_8201_10716)">
<path d="M17.4402 12.1304C17.802 11.1554 18 10.1008 18 8.99995C18 7.89906 17.802 6.84452 17.4402 5.86953L9 5.08691L0.559793 5.86953C0.198035 6.84452 0 7.89906 0 8.99995C0 10.1008 0.198035 11.1554 0.559793 12.1304L9 12.913L17.4402 12.1304Z" fill="#F0F0F0"/>
<path d="M8.99981 18C12.8695 18 16.1684 15.5576 17.44 12.1304H0.55957C1.83124 15.5576 5.13009 18 8.99981 18Z" fill="#D80027"/>
<path d="M8.99981 0C5.13009 0 1.83124 2.44237 0.55957 5.86958H17.44C16.1684 2.44237 12.8695 0 8.99981 0Z" fill="#6DA544"/>
<path d="M2.63603 2.63599C-0.878678 6.1507 -0.878678 11.8492 2.63603 15.364C3.55344 14.4466 4.44886 13.5511 5.86956 12.1304V5.86955L2.63603 2.63599Z" fill="black"/>
</g>
<defs>
<clipPath id="clip0_8201_10716">
<rect width="18" height="18" fill="white"/>
</clipPath>
</defs>
</svg>
