<svg width="18" height="18" viewBox="0 0 18 18" fill="none" xmlns="http://www.w3.org/2000/svg">
<g clip-path="url(#clip0_14_1157)">
<path d="M0 0H18V18H0V0Z" fill="#000066"/>
<path d="M0 -0.0175781H9V8.98242H0V-0.0175781Z" fill="#012169"/>
<path d="M9 -0.0175781V1.10742L5.66016 4.48242L9 7.76953V8.98242H7.82227L4.46484 5.67773L1.19531 8.98242H0V7.78711L3.26953 4.5L0 1.2832V-0.0175781H1.08984L4.46484 3.28711L7.73438 -0.0175781H9Z" fill="white"/>
<path d="M3.23438 5.67773L3.42773 6.27539L0.738281 8.98242H0V8.92969L3.23438 5.67773ZM5.41406 5.4668L6.36328 5.60742L9 8.19141V8.98242L5.41406 5.4668ZM9 -0.0175781L5.625 3.42773L5.55469 2.6543L8.19141 -0.0175781H9ZM0 0L3.39258 3.32227L2.35547 3.18164L0 0.84375V0Z" fill="#C8102E"/>
<path d="M3.09375 -0.0175781V8.98242H5.90625V-0.0175781H3.09375ZM0 3.07617V5.88867H9V3.07617H0Z" fill="white"/>
<path d="M0 3.63867V5.32617H9V3.63867H0ZM3.65625 -0.0175781V8.98242H5.34375V-0.0175781H3.65625Z" fill="#C8102E"/>
<path d="M15.7611 7.29069V9.68052C15.7611 11.7531 14.7811 12.4644 13.4685 13.0273C12.1559 12.4644 11.1656 11.7531 11.1656 9.68052V7.28813H15.7611V7.29069Z" fill="white" stroke="white" stroke-width="0.436686" stroke-linejoin="round"/>
<path d="M9.74049 12.8329C9.81469 13.0273 10.3418 13.2857 10.9559 12.9557C11.3729 12.7203 11.6416 12.3928 11.9 11.8043C11.9717 11.6558 12.0101 11.4716 11.8386 11.3616C11.703 11.2618 11.4804 11.1518 11.3832 11.0546C11.3346 11.0034 11.2859 10.9676 11.2501 10.9317C11.2757 10.9573 11.2987 10.9803 11.3218 11.0162C11.5674 11.3104 11.3115 11.7403 11.0403 11.9987C10.8433 12.1829 10.4902 12.6358 9.97333 12.206C9.8633 12.1087 9.60487 12.513 9.74304 12.8329H9.74049ZM17.1966 12.8329C17.1096 13.0273 16.5825 13.2857 15.9812 12.9557C15.5667 12.7203 15.2954 12.3928 15.0268 11.8043C14.9654 11.6558 14.927 11.4716 15.0984 11.3616C15.234 11.2618 15.4566 11.1518 15.5539 11.0546C15.6025 11.0034 15.6383 10.9676 15.6869 10.9317C15.6613 10.9573 15.6383 10.9803 15.6153 11.0162C15.3696 11.3104 15.6255 11.7403 15.8839 11.9987C16.081 12.1829 16.4469 12.6358 16.9637 12.206C17.0737 12.1087 17.3194 12.513 17.194 12.8329H17.1966Z" fill="#FCEA83" stroke="white" stroke-width="0.436686" stroke-linejoin="round"/>
<path d="M13.4685 13.887C14.4485 13.887 15.9581 13.4444 16.7692 11.8989C16.9023 11.6431 16.7692 11.5074 16.608 11.423C16.4258 11.3312 16.2599 11.2102 16.1168 11.0648C16.3138 11.2618 16.2754 11.3974 16.1424 11.6175C15.5155 12.6614 14.6583 13.1885 13.4685 13.1885C12.2787 13.1885 11.4215 12.6614 10.7947 11.6175C10.6616 11.3974 10.6232 11.2618 10.8074 11.0673C10.6665 11.2146 10.5001 11.3351 10.3162 11.423C10.1575 11.5074 10.0219 11.6431 10.1575 11.8989C10.9661 13.4444 12.486 13.887 13.4685 13.887Z" fill="#FCEA83" stroke="white" stroke-width="0.436686" stroke-linejoin="round"/>
<path d="M11.1989 11.8145C11.1733 11.6917 11.0172 11.7403 10.9686 11.8887C10.9024 11.8038 10.8442 11.713 10.7946 11.6175C10.6488 11.3974 10.6232 11.249 10.833 11.0418C10.9302 10.9445 11.1273 10.8319 11.2603 10.9548C11.5418 11.1876 11.3959 11.5689 11.1989 11.8145ZM15.7253 11.8145C15.7508 11.6917 15.9223 11.7403 15.9709 11.8887C16.0323 11.8017 16.0937 11.7173 16.1423 11.6175C16.2882 11.3974 16.3138 11.249 16.0912 11.0418C16.0067 10.9445 15.8097 10.8319 15.6639 10.9548C15.3926 11.1876 15.5282 11.5689 15.7253 11.8145ZM9.74044 12.8329C9.61763 12.6486 9.52039 12.1676 9.49481 12.0473C9.45898 11.9373 9.44619 11.8375 9.5818 11.7915C9.71742 11.7403 9.83767 11.9117 9.89908 12.0601C9.96049 12.206 10.0603 12.426 10.1703 12.6972C9.89908 12.5386 9.67903 12.6461 9.74044 12.8329ZM17.1965 12.8329C17.3065 12.6486 17.4038 12.1676 17.4422 12.0473C17.4677 11.9373 17.4908 11.8375 17.3552 11.7915C17.2195 11.7403 17.0993 11.9117 17.0379 12.0601C16.9765 12.206 16.8767 12.426 16.7667 12.6972C17.0379 12.5386 17.2451 12.6461 17.1965 12.8329Z" fill="#C8102E" stroke="white" stroke-width="0.436686" stroke-linejoin="round"/>
<path d="M12.5243 7.2779C12.3657 7.31372 12.2557 7.32652 12.1072 7.1909C12.01 7.09367 12.033 6.92224 12.1328 6.85827C12.2429 6.78663 12.3401 6.73801 12.4757 6.77384C12.6113 6.81222 12.967 7.14229 12.88 7.15508C12.793 7.15508 12.6599 7.23952 12.5243 7.2779ZM12.903 6.6894C12.9542 6.65102 13.0156 6.62799 13.1742 6.61264C13.3226 6.6024 13.4301 6.6024 13.4685 6.71499C13.5197 6.84804 13.5555 7.00668 13.6527 7.08088C13.5913 7.1167 13.2843 7.15508 13.1742 7.09367C13.0284 7.01947 12.99 6.73545 12.9056 6.6894H12.903ZM13.9598 6.70219C14.0084 6.66381 14.0698 6.66381 14.2284 6.6766C14.3871 6.6894 14.4485 6.70219 14.4843 6.81222C14.5227 6.93503 14.4843 7.09367 14.561 7.2037C14.4843 7.22929 14.2412 7.22929 14.1542 7.14229C14.0212 7.04506 14.0314 6.76104 13.9598 6.69963V6.70219Z" fill="white" stroke="white" stroke-width="0.436686" stroke-linejoin="round"/>
<path d="M14.6941 6.77384C14.584 6.74825 14.5098 6.73801 14.4638 6.77384C14.5226 6.84804 14.474 7.14229 14.5968 7.23952C14.6813 7.30093 14.9039 7.31628 14.9525 7.17811C15.0139 7.05529 15.0139 6.87107 14.6966 6.77384H14.6941ZM13.4326 6.65102C13.4684 6.6152 13.5426 6.6024 13.6885 6.6024C13.8497 6.6024 13.9444 6.62799 13.9955 6.72522C14.0467 6.84804 14.0314 7.00668 14.1184 7.10647C14.0825 7.15508 13.7499 7.15508 13.6527 7.08088C13.5171 6.99388 13.5043 6.71243 13.4326 6.65102ZM12.3912 6.76104C12.3912 6.69963 12.4757 6.6894 12.6983 6.6766C12.9158 6.65102 12.9286 6.66381 13.0028 6.82245C13.0386 6.90945 13.0872 7.05529 13.187 7.10391C12.9158 7.16788 12.8288 7.2037 12.6829 7.1167C12.5764 7.05008 12.4884 6.95768 12.4271 6.84804C12.4143 6.81222 12.4143 6.77384 12.3887 6.76104H12.3912Z" fill="#073163" stroke="white" stroke-width="0.436686" stroke-linejoin="round"/>
<path d="M12.4143 5.67103C12.3273 5.67103 12.2557 5.6352 12.2045 5.5738C12.1201 5.46121 11.8872 5.4126 11.7874 5.51239C11.7516 5.53797 11.703 5.53797 11.6672 5.54821C11.6058 5.54821 11.5316 5.60962 11.5546 5.73244C11.6058 5.69406 11.616 5.73244 11.6544 5.73244C11.68 5.71964 11.6672 5.74523 11.6672 5.76826C11.6672 5.82967 11.8002 5.95248 11.923 5.93969C12.0587 5.93969 12.1201 5.99087 12.1431 6.01645C12.1815 6.04972 12.1559 6.03948 12.1815 6.10089C12.2173 6.13671 12.2301 6.14951 12.1687 6.19812C12.1407 6.22141 12.1183 6.25056 12.1028 6.2835C12.0874 6.31644 12.0794 6.35237 12.0794 6.38874C12.0794 6.42512 12.0874 6.46104 12.1028 6.49399C12.1183 6.52693 12.1407 6.55607 12.1687 6.57937C12.3273 6.69963 12.7316 6.88641 13.187 6.52819C13.6271 6.18533 14.3129 6.38235 14.364 6.50261C14.4255 6.62798 14.4485 6.69963 14.4613 6.76104C14.4741 6.81221 14.5355 6.86083 14.6225 6.84803C14.7069 6.84803 14.8041 6.88385 14.8528 6.92223C14.9167 6.95806 15.0012 6.94782 14.9781 6.83524C14.927 6.49237 14.7197 6.44376 14.6967 6.28512C14.8169 6.29535 14.9014 6.29535 14.9526 6.24674C14.9884 6.19812 15.037 6.11112 15.0882 6.0881C15.124 6.06251 15.124 6.03692 15.0754 6.04972C15.014 6.06251 14.9781 6.0881 14.8656 6.0753C14.3026 6.01389 12.7214 5.58403 12.4143 5.67103Z" fill="#059334" stroke="white" stroke-width="0.436686" stroke-linejoin="round"/>
<path d="M14.9167 6.0881C14.8232 6.15408 14.7432 6.23748 14.6813 6.33373C14.561 6.49237 14.1926 6.65101 13.7371 6.65101C13.297 6.65101 13.0284 6.57937 12.8313 6.42073C12.7472 6.35347 12.6563 6.29516 12.5601 6.24674C12.4271 6.18533 12.4015 6.04972 12.4373 5.93969C12.4015 6.0011 12.3784 6.06251 12.3042 6.04972C12.2531 6.04972 12.1558 6.04972 12.1814 6.10089C12.1686 6.0753 12.1686 6.03948 12.1558 6.02413L12.1302 6.0011C12.1686 6.02669 12.2556 5.95248 12.317 5.95248C12.3656 5.96528 12.4271 5.90387 12.4143 5.82967L12.3784 5.67103C12.4757 5.61985 13.7627 5.85525 14.0211 5.87828C14.277 5.89108 15.0139 6.0011 14.9167 6.0881Z" fill="black" stroke="white" stroke-width="0.436686" stroke-linejoin="round"/>
<path d="M12.5858 5.62241C12.7086 5.4996 12.8545 5.43819 13.0029 5.47401H13.0387C13.1154 5.4126 13.2843 5.39981 13.3841 5.44842H13.4327C13.5786 5.39981 13.86 5.44842 13.9598 5.54821L13.9956 5.5738C14.3283 5.54821 14.5227 5.69406 14.7556 5.92946C14.7812 5.95505 14.817 6.0011 14.8784 6.0139C14.9526 6.02669 14.9654 6.06507 14.904 6.10089C14.8056 6.16173 14.7189 6.23973 14.6481 6.33118C14.5355 6.47958 14.1799 6.62799 13.7372 6.62799C13.3099 6.62799 13.0515 6.55122 12.8545 6.40538C12.7444 6.32094 12.66 6.27232 12.5986 6.23394C12.5244 6.20836 12.4272 6.11113 12.463 6.0139C12.4886 5.91666 12.4272 5.79385 12.3785 5.67103C12.4144 5.64544 12.5116 5.60962 12.5602 5.63521L12.5858 5.62241Z" fill="#059334" stroke="white" stroke-width="0.436686" stroke-linejoin="round"/>
<path d="M14.7556 5.92946C14.5253 5.69406 14.3283 5.54821 13.9957 5.57124C13.9957 5.58403 13.9957 5.62241 13.9829 5.648C14.2147 5.75203 14.4202 5.9068 14.5842 6.10089C14.6353 6.04972 14.7198 5.99087 14.7556 5.92946ZM13.9598 5.54821C13.8601 5.45098 13.5786 5.39981 13.4327 5.45098C13.4327 5.4996 13.4327 5.5738 13.4072 5.62241C13.4942 5.65824 13.5658 5.74523 13.64 5.82967C13.6912 5.81687 13.8114 5.78105 13.8728 5.76826C13.9095 5.69817 13.9387 5.62441 13.9598 5.54821ZM13.3841 5.44842C13.2843 5.39981 13.1129 5.4126 13.0387 5.47401C13.0131 5.52518 13.0029 5.62241 13.0029 5.67103C13.0541 5.67103 13.1257 5.70685 13.1487 5.73244C13.2255 5.70685 13.3227 5.65824 13.3585 5.62241C13.3713 5.57124 13.3944 5.4996 13.3841 5.45098V5.44842ZM12.5858 5.62241C12.7086 5.4996 12.8545 5.43819 13.0029 5.47401C12.9773 5.51239 12.9671 5.58403 12.9671 5.65824C12.8315 5.64544 12.66 5.68382 12.5858 5.73244V5.62241Z" fill="#00493D" stroke="white" stroke-width="0.436686" stroke-linejoin="round"/>
<path d="M14.5355 6.12392C14.3814 5.9414 14.1893 5.79471 13.9726 5.69406C13.9726 5.70685 13.947 5.75547 13.9342 5.79385C14.0084 5.90387 14.1543 6.14951 14.2157 6.28512C14.2771 6.25953 14.4485 6.18533 14.5355 6.12392ZM13.6041 6.39514C13.6253 6.22791 13.6373 6.05963 13.64 5.89108C13.7014 5.87828 13.8242 5.84246 13.8728 5.82967C13.9342 5.92946 14.0826 6.18789 14.144 6.30815C13.9956 6.34397 13.75 6.40538 13.6041 6.39514ZM13.1743 5.80664C13.2357 5.78105 13.3227 5.72988 13.3815 5.68382C13.4327 5.71964 13.5299 5.80664 13.5658 5.85526C13.5658 5.96528 13.5299 6.28512 13.5171 6.39258C13.4199 6.39258 13.2613 6.36956 13.1743 6.32094C13.1871 6.13671 13.1999 5.92946 13.1743 5.80664ZM12.5602 5.95249C12.573 5.9269 12.5858 5.84246 12.5858 5.80664C12.683 5.74523 12.9286 5.68382 13.1129 5.78105C13.1257 5.90387 13.1129 6.21092 13.1001 6.28512C12.936 6.15166 12.7554 6.03987 12.5627 5.95249H12.5602Z" fill="#00493D" stroke="white" stroke-width="0.436686" stroke-linejoin="round"/>
<path d="M11.9486 5.72988C11.923 5.72988 11.9102 5.65824 11.8616 5.65824C11.8488 5.65824 11.813 5.67103 11.8002 5.65824C11.8002 5.68382 11.813 5.70941 11.8258 5.71965C11.8386 5.75547 11.9 5.73244 11.9486 5.73244V5.72988Z" fill="black"/>
<path d="M11.9486 5.93969C12.0944 5.93969 12.12 5.75547 12.1942 5.74523M12.033 5.95249C12.143 6.00366 12.23 5.74523 12.3145 5.75547M11.813 5.63521C11.8488 5.63521 11.8744 5.58403 11.9358 5.64544C11.9614 5.67103 11.9972 5.68382 12.0228 5.68382M11.9972 5.81688C11.946 5.89364 11.8616 5.93969 11.813 5.91667M11.7874 5.51239C11.7516 5.53798 11.7285 5.58403 11.7029 5.62241M11.6671 5.69406V5.75547" stroke="white" stroke-width="0.436686" stroke-linejoin="round"/>
<path d="M12.9797 5.51239C12.7213 5.31537 12.4143 5.13114 12.1328 5.09532C12.4265 5.29111 12.7053 5.50834 12.967 5.74523" fill="black"/>
<path d="M12.9797 5.51239C12.7213 5.31537 12.4143 5.13114 12.1328 5.09532C12.4265 5.29111 12.7053 5.50834 12.967 5.74523" stroke="white" stroke-width="0.436686" stroke-linejoin="round"/>
<path d="M13.1256 5.32816C12.8185 5.11835 12.4629 4.88551 12.12 4.86248C12.4409 5.04842 12.7266 5.28917 12.9644 5.5738M13.517 4.9853C13.6556 4.67043 13.8607 4.38934 14.1183 4.16139C13.9955 4.41982 13.8625 4.94692 13.7985 5.15673" fill="black"/>
<path d="M13.1256 5.32816C12.8185 5.11835 12.4629 4.88551 12.12 4.86248C12.4409 5.04842 12.7266 5.28917 12.9644 5.5738M13.517 4.9853C13.6556 4.67043 13.8607 4.38934 14.1183 4.16139C13.9955 4.41982 13.8625 4.94692 13.7985 5.15673" stroke="white" stroke-width="0.436686" stroke-linejoin="round"/>
<path d="M13.7883 4.92389C13.9069 4.63557 14.1298 4.40257 14.4127 4.27142C14.2002 4.53649 14.0419 4.84079 13.947 5.16696" fill="black"/>
<path d="M13.7883 4.92389C13.9069 4.63557 14.1298 4.40257 14.4127 4.27142C14.2002 4.53649 14.0419 4.84079 13.947 5.16696" stroke="white" stroke-width="0.436686" stroke-linejoin="round"/>
<path d="M13.8983 5.16697C14.1332 4.80736 14.47 4.52587 14.8655 4.35841C14.5585 4.66546 14.1056 5.22837 13.9955 5.45098M14.0697 5.43819C14.2898 5.31537 14.7325 5.11835 15.0497 5.18232C14.8553 5.25396 14.2668 5.52263 14.0083 5.77082" fill="black"/>
<path d="M13.8983 5.16697C14.1332 4.80736 14.47 4.52587 14.8655 4.35841C14.5585 4.66546 14.1056 5.22837 13.9955 5.45098M14.0697 5.43819C14.2898 5.31537 14.7325 5.11835 15.0497 5.18232C14.8553 5.25396 14.2668 5.52263 14.0083 5.77082" stroke="white" stroke-width="0.436686" stroke-linejoin="round"/>
<path d="M14.0211 5.35119C14.2284 5.13114 14.6096 4.80107 15.0139 4.66546C14.7197 4.94691 14.0928 5.58659 14.0083 5.68382M13.4326 5.21814C13.2842 4.76269 13.0642 4.33538 12.7341 4.19977C12.997 4.57565 13.1799 5.00152 13.2714 5.45098M13.1486 5.20534C12.9055 4.91109 12.5729 4.61684 12.1942 4.55543C12.5653 4.79826 12.8585 5.14296 13.0386 5.54821" fill="black"/>
<path d="M14.0211 5.35119C14.2284 5.13114 14.6096 4.80107 15.0139 4.66546C14.7197 4.94691 14.0928 5.58659 14.0083 5.68382M13.4326 5.21814C13.2842 4.76269 13.0642 4.33538 12.7341 4.19977C12.997 4.57565 13.1799 5.00152 13.2714 5.45098M13.1486 5.20534C12.9055 4.91109 12.5729 4.61684 12.1942 4.55543C12.5653 4.79826 12.8585 5.14296 13.0386 5.54821" stroke="white" stroke-width="0.436686" stroke-linejoin="round"/>
<path d="M13.2867 5.19255C12.9797 4.63987 12.7443 4.54264 12.6112 4.43261C12.7212 4.63987 12.9899 5.19255 13.1485 5.42539" fill="black"/>
<path d="M13.2867 5.19255C12.9797 4.63987 12.7443 4.54264 12.6112 4.43261C12.7212 4.63987 12.9899 5.19255 13.1485 5.42539" stroke="white" stroke-width="0.436686" stroke-linejoin="round"/>
<path d="M12.6727 5.15673C12.8477 5.26678 12.9977 5.41236 13.1128 5.58403" stroke="white" stroke-width="0.436686" stroke-linejoin="round"/>
<path d="M12.6727 5.4126C12.7444 5.47401 12.88 5.54821 13.0028 5.65824ZM14.1312 5.59683C14.254 5.4996 14.5227 5.34096 14.6583 5.28978ZM14.0442 5.51239C14.167 5.35119 14.4127 5.13114 14.4996 5.05694ZM14.3871 4.74989C14.2222 4.93467 14.0668 5.12767 13.9214 5.32816ZM14.0698 4.63987C13.9537 4.81164 13.851 4.99214 13.7627 5.17976ZM13.1 4.66546C13.1742 4.86248 13.3098 5.19255 13.3559 5.32816ZM12.99 4.87271C13.0412 4.94947 13.1384 5.11835 13.1742 5.24117Z" fill="black"/>
<path d="M12.6727 5.4126C12.7444 5.47401 12.88 5.54821 13.0028 5.65824M14.1312 5.59683C14.254 5.4996 14.5227 5.34096 14.6583 5.28978M14.0442 5.51239C14.167 5.35119 14.4127 5.13114 14.4996 5.05694M14.3871 4.74989C14.2222 4.93467 14.0668 5.12767 13.9214 5.32816M14.0698 4.63987C13.9537 4.81164 13.851 4.99214 13.7627 5.17976M13.1 4.66546C13.1742 4.86248 13.3098 5.19255 13.3559 5.32816M12.99 4.87271C13.0412 4.94947 13.1384 5.11835 13.1742 5.24117" stroke="white" stroke-width="0.436686" stroke-linejoin="round"/>
<path d="M13.407 4.8113C13.407 4.70128 13.4812 4.58102 13.5554 4.58102C13.6398 4.58102 13.7012 4.72687 13.7012 4.8113C13.7012 4.91109 13.627 4.99553 13.5554 4.99553C13.4786 4.99553 13.407 4.92389 13.407 4.8113Z" fill="black" stroke="white" stroke-width="0.436686" stroke-linejoin="round"/>
<path d="M13.2484 4.91109C13.2612 4.78827 13.3456 4.69104 13.4198 4.70128C13.494 4.71407 13.5299 4.86248 13.5171 4.94691C13.5043 5.04415 13.4198 5.11835 13.3584 5.10555C13.297 5.10555 13.2356 5.02112 13.2484 4.91109ZM13.5785 4.94691C13.5529 4.83689 13.6041 4.71663 13.6783 4.70128C13.7499 4.69104 13.8241 4.8113 13.8369 4.91109C13.8625 5.00832 13.7985 5.10555 13.7371 5.10555C13.6783 5.11835 13.5913 5.05694 13.5785 4.94691Z" fill="black" stroke="white" stroke-width="0.436686" stroke-linejoin="round"/>
<path d="M13.3943 5.04415C13.3943 4.92389 13.4685 4.81386 13.5427 4.81386C13.6271 4.81386 13.6885 4.94691 13.6885 5.04415C13.6885 5.14394 13.6169 5.22837 13.5427 5.22837C13.4685 5.22837 13.3943 5.15673 13.3943 5.04415Z" fill="black" stroke="white" stroke-width="0.436686" stroke-linejoin="round"/>
<path d="M13.1742 5.10556C13.1742 4.99553 13.2612 4.87527 13.3328 4.87527C13.4096 4.87527 13.4812 5.02112 13.4812 5.10556C13.4812 5.20535 13.3942 5.28978 13.3328 5.28978C13.2612 5.28978 13.1742 5.21814 13.1742 5.10556ZM13.6271 5.05694C13.6271 4.94692 13.7038 4.82666 13.7755 4.82666C13.8599 4.82666 13.9213 4.9725 13.9213 5.05694C13.9213 5.15673 13.8497 5.24117 13.7755 5.24117C13.7013 5.24117 13.6271 5.16696 13.6271 5.05694Z" fill="black" stroke="white" stroke-width="0.436686" stroke-linejoin="round"/>
<path d="M13.5785 5.15673C13.5785 5.03391 13.6655 4.92389 13.7371 4.92389C13.8139 4.92389 13.8855 5.05694 13.8855 5.15417C13.8855 5.25396 13.8113 5.34096 13.7371 5.34096C13.6655 5.34096 13.5785 5.2642 13.5785 5.15673Z" fill="black" stroke="white" stroke-width="0.436686" stroke-linejoin="round"/>
<path d="M13.3839 5.26675C13.3839 5.14394 13.4556 5.03391 13.5298 5.03391C13.6168 5.03391 13.6782 5.17976 13.6782 5.2642C13.6782 5.36654 13.6014 5.45098 13.5298 5.45098C13.4556 5.45098 13.3814 5.37422 13.3814 5.26675H13.3839ZM13.0769 5.26675C13.0769 5.14394 13.1383 5.03391 13.1997 5.03391C13.2611 5.03391 13.3097 5.17976 13.3097 5.2642C13.3097 5.36654 13.2483 5.45098 13.1997 5.45098C13.1383 5.45098 13.0769 5.37422 13.0769 5.26675ZM13.7626 5.24373C13.7626 5.13114 13.824 5.02112 13.8855 5.02112C13.9469 5.02112 14.0083 5.15673 14.0083 5.24117C14.0083 5.35119 13.9341 5.42539 13.8855 5.42539C13.824 5.42539 13.7626 5.35119 13.7626 5.24117V5.24373Z" fill="black" stroke="white" stroke-width="0.436686" stroke-linejoin="round"/>
<path d="M13.8369 5.44842C13.8625 5.32816 13.9342 5.22837 13.9828 5.24373C14.034 5.25396 14.0442 5.39981 14.0212 5.4868C14.0084 5.59683 13.9342 5.65824 13.8856 5.64544C13.8344 5.63521 13.8113 5.54821 13.8344 5.45098L13.8369 5.44842Z" fill="black" stroke="white" stroke-width="0.436686" stroke-linejoin="round"/>
<path d="M13.604 5.4126C13.6168 5.30258 13.6885 5.19255 13.7499 5.20534C13.8241 5.20534 13.8599 5.35119 13.8497 5.43563C13.8369 5.54821 13.7729 5.62241 13.7141 5.60962C13.6527 5.60962 13.5913 5.52262 13.604 5.4126ZM13.2612 5.44842C13.2228 5.32816 13.1486 5.24372 13.1 5.25396C13.0514 5.26675 13.0386 5.4126 13.0642 5.4996C13.0897 5.59683 13.1614 5.65824 13.21 5.64544C13.2484 5.63521 13.2868 5.54821 13.2612 5.45098V5.44842Z" fill="black" stroke="white" stroke-width="0.436686" stroke-linejoin="round"/>
<path d="M13.1742 5.42539C13.1742 5.31537 13.2356 5.20535 13.297 5.20535C13.3712 5.20535 13.4198 5.34096 13.4198 5.42539C13.4198 5.53542 13.3584 5.60962 13.297 5.60962C13.2458 5.60962 13.1742 5.53542 13.1742 5.42539Z" fill="black" stroke="white" stroke-width="0.436686" stroke-linejoin="round"/>
<path d="M13.3584 5.47401C13.3584 5.35119 13.4326 5.24373 13.5042 5.24373C13.5912 5.24373 13.6526 5.37678 13.6526 5.47401C13.6526 5.5738 13.5784 5.65824 13.5042 5.65824C13.4326 5.65824 13.3584 5.58403 13.3584 5.47401ZM13.4198 4.12557C13.3942 4.2228 13.3097 4.3098 13.3686 4.44541C13.2611 4.40703 13.1639 4.39424 13.0769 4.49402C13.1869 4.48123 13.2842 4.51961 13.3328 4.59126C13.2355 4.57846 13.1869 4.62964 13.1613 4.69105C13.2483 4.66546 13.3328 4.63987 13.3712 4.65266C13.3328 4.69105 13.2714 4.7499 13.2611 4.80107C13.3328 4.73966 13.4198 4.7499 13.4684 4.71407C13.4326 4.80107 13.5042 4.88551 13.5656 4.96994C13.5554 4.84969 13.627 4.76525 13.5912 4.70128C13.7012 4.72687 13.714 4.8241 13.8727 4.8241C13.8113 4.78828 13.7754 4.66546 13.7012 4.66546C13.7371 4.65266 13.8855 4.63987 13.911 4.66546C13.8855 4.61428 13.7985 4.56823 13.7498 4.56823C13.801 4.51705 13.8855 4.41982 13.9469 4.39424C13.8599 4.40703 13.7268 4.41982 13.6782 4.49402C13.7985 4.39424 13.7754 4.21257 13.9085 4.18698C13.8368 4.17419 13.7268 4.2228 13.6398 4.3098C13.6782 4.2356 13.6782 4.13836 13.7268 4.11278C13.627 4.13836 13.517 4.26118 13.4812 4.32259C13.4759 4.25312 13.4549 4.18575 13.4198 4.12557Z" fill="black" stroke="white" stroke-width="0.436686" stroke-linejoin="round"/>
<path d="M13.4812 4.32259C13.4812 4.35841 13.4812 4.43262 13.4684 4.45565ZM13.6398 4.3098C13.6142 4.33539 13.5656 4.41982 13.5656 4.49403Z" fill="black"/>
<path d="M13.4812 4.32259C13.4812 4.35841 13.4812 4.43262 13.4684 4.45565M13.6398 4.3098C13.6142 4.33539 13.5656 4.41982 13.5656 4.49403" stroke="white" stroke-width="0.436686" stroke-linejoin="round"/>
<path d="M13.7141 4.45564C13.6719 4.48083 13.6408 4.52106 13.6271 4.56823" stroke="white" stroke-width="0.436686" stroke-linejoin="round"/>
<path d="M9.74049 12.8329C9.81469 13.0273 10.3418 13.2857 10.9559 12.9557C11.3729 12.7203 11.6416 12.3928 11.9 11.8043C11.9717 11.6558 12.0101 11.4716 11.8386 11.3616C11.703 11.2618 11.4804 11.1518 11.3832 11.0546C11.3346 11.0034 11.2859 10.9676 11.2501 10.9317C11.2757 10.9573 11.2987 10.9803 11.3218 11.0162C11.5674 11.3104 11.3115 11.7403 11.0403 11.9987C10.8433 12.1829 10.4902 12.6358 9.97333 12.206C9.8633 12.1087 9.60487 12.513 9.74304 12.8329H9.74049ZM17.1966 12.8329C17.1096 13.0273 16.5825 13.2857 15.9812 12.9557C15.5667 12.7203 15.2954 12.3928 15.0268 11.8043C14.9654 11.6558 14.927 11.4716 15.0984 11.3616C15.234 11.2618 15.4566 11.1518 15.5539 11.0546C15.6025 11.0034 15.6383 10.9676 15.6869 10.9317C15.6613 10.9573 15.6383 10.9803 15.6153 11.0162C15.3696 11.3104 15.6255 11.7403 15.8839 11.9987C16.081 12.1829 16.4469 12.6358 16.9637 12.206C17.0737 12.1087 17.3194 12.513 17.194 12.8329H17.1966Z" fill="#FCEA83" stroke="black" stroke-width="0.0636834"/>
<path d="M13.4685 13.887C14.4485 13.887 15.9581 13.4444 16.7692 11.8989C16.9023 11.6431 16.7692 11.5074 16.608 11.423C16.4258 11.3312 16.2599 11.2102 16.1168 11.0648C16.3138 11.2618 16.2754 11.3974 16.1424 11.6175C15.5155 12.6614 14.6583 13.1885 13.4685 13.1885C12.2787 13.1885 11.4215 12.6614 10.7947 11.6175C10.6616 11.3974 10.6232 11.2618 10.8074 11.0673C10.6665 11.2146 10.5001 11.3351 10.3162 11.423C10.1575 11.5074 10.0219 11.6431 10.1575 11.8989C10.9661 13.4444 12.486 13.887 13.4685 13.887Z" fill="#FCEA83" stroke="black" stroke-width="0.0636834"/>
<path d="M11.1989 11.8145C11.1733 11.6917 11.0172 11.7403 10.9686 11.8887C10.9024 11.8038 10.8442 11.713 10.7946 11.6175C10.6488 11.3974 10.6232 11.249 10.833 11.0418C10.9302 10.9445 11.1273 10.8319 11.2603 10.9548C11.5418 11.1876 11.3959 11.5689 11.1989 11.8145ZM15.7253 11.8145C15.7508 11.6917 15.9223 11.7403 15.9709 11.8887C16.0323 11.8017 16.0937 11.7173 16.1423 11.6175C16.2882 11.3974 16.3138 11.249 16.0912 11.0418C16.0067 10.9445 15.8097 10.8319 15.6639 10.9548C15.3926 11.1876 15.5282 11.5689 15.7253 11.8145ZM9.74044 12.8329C9.61763 12.6486 9.52039 12.1676 9.49481 12.0473C9.45898 11.9373 9.44619 11.8375 9.5818 11.7915C9.71742 11.7403 9.83767 11.9117 9.89908 12.0601C9.96049 12.206 10.0603 12.426 10.1703 12.6972C9.89908 12.5386 9.67903 12.6461 9.74044 12.8329ZM17.1965 12.8329C17.3065 12.6486 17.4038 12.1676 17.4422 12.0473C17.4677 11.9373 17.4908 11.8375 17.3552 11.7915C17.2195 11.7403 17.0993 11.9117 17.0379 12.0601C16.9765 12.206 16.8767 12.426 16.7667 12.6972C17.0379 12.5386 17.2451 12.6461 17.1965 12.8329Z" fill="#C8102E" stroke="black" stroke-width="0.0636834"/>
<path d="M10.4518 11.7275L10.3546 11.7787C10.329 11.7889 10.329 11.8145 10.329 11.8273H10.3162L10.2676 11.7173H10.2804C10.2804 11.7275 10.2932 11.7428 10.3162 11.7275L10.526 11.6175C10.5516 11.6047 10.5516 11.5919 10.5388 11.5816L10.549 11.5688L10.6104 11.6917H10.6002C10.5874 11.6789 10.5746 11.6661 10.549 11.6789L10.4646 11.73L10.5004 11.8017L10.6002 11.7659C10.6258 11.7531 10.6104 11.7275 10.6104 11.7147H10.6232L10.6744 11.8273C10.6616 11.8145 10.6488 11.8017 10.6232 11.8145L10.416 11.9245C10.3904 11.9373 10.3904 11.9501 10.4032 11.9603L10.3904 11.9731L10.329 11.8631L10.3418 11.8503C10.3546 11.8631 10.3674 11.8759 10.393 11.8631L10.4902 11.8119L10.4518 11.7275ZM10.6616 11.8887C10.6872 11.8759 10.6872 11.8631 10.6719 11.8375H10.6846L10.8075 12.0217L10.723 12.0831V12.0729C10.7716 12.0345 10.7716 11.9859 10.7589 11.9731C10.7461 11.9603 10.7333 11.9475 10.7333 11.9373C10.723 11.9373 10.723 11.9245 10.6974 11.9501L10.6104 12.0115C10.6232 12.0217 10.636 12.0601 10.6974 12.0217H10.7102L10.5746 12.1215V12.1087C10.636 12.0576 10.6104 12.0217 10.6002 12.0115L10.5132 12.0729C10.4876 12.0831 10.4876 12.0985 10.4876 12.1087C10.5004 12.1087 10.5004 12.1215 10.5132 12.1343C10.526 12.1599 10.5644 12.1829 10.6232 12.1599L10.636 12.1701L10.5388 12.206L10.416 12.0115H10.4288C10.439 12.0217 10.4544 12.0371 10.4774 12.0217L10.6616 11.8887ZM10.8561 12.3544L10.7716 12.426C10.7589 12.4388 10.7589 12.4644 10.7716 12.4772H10.7589L10.6719 12.3902L10.6846 12.3774C10.6974 12.3902 10.7102 12.403 10.7358 12.3774L10.8945 12.2188C10.92 12.206 10.92 12.1932 10.9047 12.1676L10.9917 12.2699C10.9789 12.2546 10.9559 12.2546 10.9405 12.2699L10.8689 12.3416L10.9303 12.403L11.0045 12.3416C11.0301 12.316 11.0173 12.3058 11.0045 12.2904L11.0173 12.2802L11.1017 12.3774H11.0889C11.0787 12.3774 11.0633 12.3672 11.0403 12.3902L10.8817 12.5386C10.8561 12.5642 10.8561 12.5744 10.8689 12.5872V12.6L10.7844 12.5002C10.7947 12.5002 10.8203 12.513 10.8331 12.5002L10.9175 12.4158L10.8561 12.3544ZM11.0403 12.6128L11.0787 12.6486L11.1273 12.5386C11.1273 12.5386 11.0889 12.5488 11.0275 12.5872L11.0403 12.6128L11.0275 12.623L11.0019 12.5974C10.9917 12.6102 10.9789 12.6102 10.9661 12.623C10.9303 12.6486 10.9405 12.6614 10.9559 12.6742V12.6844L10.8945 12.623H10.9047L10.9559 12.6102L11.1989 12.4772L11.2117 12.4874C11.2117 12.4874 11.1989 12.5002 11.0889 12.7459C11.0889 12.7714 11.0787 12.7817 11.0889 12.8073L10.9917 12.7228L11.0045 12.71C11.0173 12.7356 11.0403 12.7356 11.0531 12.71C11.0531 12.6972 11.0659 12.6717 11.0659 12.6589L11.0275 12.623L11.0403 12.6102V12.6128ZM11.1375 12.8559L11.1503 12.8431C11.1631 12.8559 11.1759 12.8559 11.2015 12.8431L11.3601 12.6358L11.3474 12.623C11.3218 12.6102 11.2859 12.6102 11.2501 12.6486V12.6358L11.2987 12.5744L11.483 12.71L11.4216 12.7817H11.4088C11.4446 12.7459 11.4343 12.6972 11.4088 12.6844V12.6717L11.2501 12.8815C11.2245 12.8943 11.2373 12.9173 11.2501 12.9301H11.2373L11.1375 12.8559Z" fill="#00493D"/>
<path d="M11.4573 12.9045L11.3959 12.9915C11.3831 13.0171 11.3959 13.0273 11.4087 13.0427L11.3959 13.0529L11.2987 12.9787V12.9659C11.3243 12.9787 11.3345 12.9787 11.3473 12.9557L11.4829 12.7714C11.4932 12.7459 11.4829 12.7331 11.4701 12.7203L11.4829 12.71L11.5802 12.7817V12.7945C11.5546 12.7817 11.5443 12.7817 11.529 12.8073L11.4701 12.8943L11.5443 12.9429L11.6058 12.8559C11.616 12.8303 11.6058 12.8201 11.593 12.8073L11.6058 12.7945L11.703 12.8687V12.8815C11.6902 12.8687 11.6672 12.8687 11.6518 12.8943L11.5315 13.0887C11.506 13.1015 11.5188 13.1143 11.5315 13.1271V13.1373L11.4215 13.0657H11.4343C11.4446 13.0657 11.4599 13.0657 11.4701 13.0529L11.5315 12.9557L11.4573 12.9045ZM11.703 13.2499L11.7158 13.2371C11.7286 13.2499 11.7516 13.2499 11.7644 13.2243L11.8616 13.0171C11.8744 12.9915 11.8616 12.9787 11.8488 12.9659L12.0586 13.0657L12.0075 13.1629L11.9972 13.1501C12.0331 13.1015 11.9972 13.0529 11.9844 13.0401C11.9716 13.0401 11.9589 13.0273 11.9486 13.0273C11.9358 13.0273 11.9358 13.0273 11.923 13.0529C11.9102 13.0657 11.8744 13.1373 11.8744 13.1373C11.8872 13.1501 11.9102 13.1757 11.9614 13.1118H11.9716L11.9 13.2602L11.8872 13.2499C11.923 13.1732 11.8744 13.1629 11.8616 13.1629L11.813 13.2602C11.8002 13.2857 11.813 13.2985 11.8258 13.2985V13.3113L11.703 13.2499ZM12.0586 13.4214C12.0228 13.3958 12.0228 13.3216 12.0586 13.2499C12.0842 13.1732 12.1328 13.1143 12.1815 13.1373C12.2173 13.1501 12.207 13.2243 12.1815 13.2985C12.1431 13.383 12.0945 13.4316 12.0586 13.4214H12.0458C12.1328 13.4572 12.1943 13.4086 12.2301 13.3216C12.2659 13.2499 12.2557 13.1629 12.1789 13.1271C12.1073 13.0887 12.0331 13.1373 11.9972 13.2243C11.9614 13.3113 11.9716 13.3958 12.0484 13.4214H12.0586ZM12.4373 13.4444L12.4885 13.2985C12.4987 13.2729 12.4885 13.2602 12.4757 13.2474L12.5371 13.2602V13.2729C12.5243 13.2729 12.5115 13.2729 12.4987 13.2985L12.4501 13.4444C12.4245 13.5058 12.3887 13.5544 12.3171 13.5314C12.2659 13.5186 12.2301 13.4572 12.2557 13.3958L12.3171 13.2371C12.3273 13.2115 12.3171 13.1987 12.3043 13.186V13.1757L12.4143 13.2243V13.2371C12.4015 13.2243 12.3785 13.2243 12.3785 13.2499L12.3145 13.406C12.3017 13.4546 12.3017 13.5032 12.3401 13.516C12.3759 13.5288 12.4117 13.5032 12.4348 13.4418L12.4373 13.4444ZM12.5499 13.2857C12.5499 13.2729 12.5499 13.2729 12.5371 13.2729L12.6216 13.2857L12.6983 13.5186L12.7341 13.3702C12.7444 13.3446 12.7341 13.3344 12.7213 13.3216L12.793 13.3344L12.7828 13.3472C12.77 13.3472 12.7572 13.3472 12.7444 13.3727L12.683 13.6414H12.6727L12.5729 13.3472L12.5115 13.5442C12.5115 13.58 12.5243 13.58 12.5371 13.5928V13.6056L12.4629 13.58V13.5672C12.4757 13.58 12.4987 13.5672 12.4987 13.5416L12.5601 13.3216L12.5499 13.2857ZM12.967 13.5314C12.9414 13.6414 12.8902 13.667 12.8672 13.667H12.8416C12.8416 13.667 12.8314 13.6542 12.8416 13.6414L12.88 13.3958C12.8928 13.383 12.8928 13.3702 12.9056 13.383H12.9312C12.9542 13.383 12.9772 13.4341 12.967 13.5314L13.0028 13.5442C13.0284 13.4214 12.9772 13.3702 12.9158 13.3599C12.8672 13.3472 12.793 13.3344 12.793 13.3344V13.3472C12.8058 13.3599 12.8314 13.3599 12.8186 13.3983L12.7828 13.6158C12.77 13.6414 12.7572 13.6542 12.7444 13.6542H12.7341L12.8544 13.6798C12.9158 13.69 12.9772 13.6798 13.0028 13.5442L12.967 13.5314ZM13.077 13.4316C13.077 13.406 13.0514 13.3958 13.0386 13.3958V13.383L13.2612 13.4086L13.2484 13.5058C13.2484 13.4444 13.2101 13.4214 13.187 13.4214C13.1742 13.4086 13.1614 13.4086 13.1487 13.4086C13.1384 13.4086 13.1384 13.4086 13.1384 13.4444L13.1256 13.5442C13.1384 13.5442 13.1742 13.5544 13.1998 13.4828L13.187 13.6414H13.1742C13.1742 13.5672 13.1384 13.5672 13.1231 13.5672L13.1128 13.6772C13.1128 13.7028 13.1128 13.7028 13.1256 13.7028L13.1512 13.7156C13.187 13.7156 13.2229 13.7028 13.2484 13.6286H13.2612L13.2356 13.7258L13.0028 13.7003C13.0284 13.7003 13.0386 13.69 13.054 13.667L13.077 13.4316ZM13.4813 13.58C13.4813 13.69 13.4429 13.7258 13.4071 13.7258C13.3943 13.7156 13.3943 13.7156 13.3815 13.7156L13.3713 13.7028L13.3841 13.4469C13.3841 13.4316 13.3841 13.4316 13.3943 13.4316H13.4199C13.4455 13.4316 13.4813 13.47 13.4813 13.58H13.5299C13.5299 13.4572 13.4685 13.4214 13.4071 13.4214C13.3559 13.4086 13.2843 13.4086 13.2843 13.4086V13.4214C13.2971 13.4214 13.3226 13.4316 13.3226 13.4572L13.3099 13.69C13.3099 13.7156 13.2971 13.7258 13.2843 13.7258V13.7386H13.3943C13.4557 13.7386 13.5171 13.713 13.5299 13.58H13.4787H13.4813ZM13.8369 13.6772C13.8369 13.7028 13.8497 13.7028 13.8728 13.7028V13.7156L13.7372 13.7258C13.7499 13.7156 13.7755 13.7003 13.7755 13.6772L13.7499 13.4469C13.7372 13.4214 13.7244 13.4214 13.7013 13.4214V13.4086L13.8369 13.3958C13.8242 13.4086 13.7986 13.4214 13.8114 13.4469L13.8369 13.6772ZM13.9598 13.7028V13.69C13.9726 13.69 13.9853 13.6772 13.9853 13.6542L13.9342 13.3983H13.9214C13.8958 13.4086 13.8728 13.4316 13.8856 13.4828H13.8728L13.86 13.3958L14.0826 13.3599L14.0928 13.4444H14.0826C14.0826 13.3958 14.0442 13.383 14.0058 13.383H13.9956L14.0468 13.6388C14.0468 13.6644 14.057 13.6772 14.0826 13.6772V13.69L13.9598 13.7028ZM14.4869 13.4572L14.4357 13.3113C14.4357 13.2857 14.4127 13.2857 14.3999 13.2857V13.2729L14.4613 13.2474V13.2602C14.4485 13.2729 14.4485 13.2729 14.4485 13.2985L14.4996 13.4572C14.5099 13.5084 14.5099 13.58 14.4382 13.6056C14.3871 13.6158 14.3282 13.5928 14.3154 13.5186L14.2642 13.3599C14.254 13.3344 14.2412 13.3344 14.2284 13.3344L14.2156 13.3216L14.3384 13.2857V13.2985C14.3282 13.3113 14.3129 13.3241 14.3282 13.3472L14.364 13.5058C14.3768 13.557 14.4152 13.58 14.4485 13.58C14.4869 13.5672 14.4996 13.5186 14.4869 13.4572ZM14.6225 13.3702C14.6813 13.3446 14.6711 13.3113 14.6583 13.2729C14.6455 13.2371 14.6225 13.2115 14.5969 13.2243C14.5841 13.2243 14.5713 13.2371 14.5841 13.2499L14.6225 13.3702L14.6327 13.383L14.6583 13.4828C14.6711 13.5084 14.6941 13.5084 14.7095 13.493V13.5058L14.5969 13.557L14.5841 13.5442C14.6097 13.5314 14.6097 13.5186 14.6097 13.493L14.5227 13.2857C14.5099 13.2499 14.4971 13.2602 14.4741 13.2602V13.2499L14.5969 13.1987C14.6481 13.1885 14.6941 13.1987 14.7197 13.2499C14.7325 13.3113 14.7069 13.3472 14.6583 13.3727C14.6455 13.3727 14.6327 13.383 14.6327 13.383L14.6225 13.3702Z" fill="#00493D"/>
<path d="M14.927 13.406C14.8912 13.4214 14.8426 13.3702 14.8042 13.2857C14.7684 13.2115 14.7684 13.1373 14.8042 13.1271C14.8426 13.1143 14.8912 13.1629 14.927 13.2371C14.9654 13.3113 14.9654 13.383 14.927 13.4086C15.0038 13.383 15.0268 13.2985 14.9884 13.2115C14.9526 13.1373 14.8784 13.0887 14.8042 13.1143C14.787 13.1229 14.7716 13.135 14.7592 13.1496C14.7467 13.1643 14.7373 13.1814 14.7316 13.1998C14.7259 13.2182 14.7239 13.2375 14.7258 13.2567C14.7277 13.2759 14.7335 13.2944 14.7428 13.3113C14.7811 13.3958 14.8553 13.4444 14.927 13.4086V13.406ZM14.9398 13.0657H14.9168L14.9884 13.0145L15.211 13.1373L15.1342 13.0043C15.124 12.9787 15.0984 12.9787 15.0882 12.9787V12.9659L15.1496 12.9403C15.1368 12.9557 15.124 12.9659 15.1496 12.9915L15.2724 13.2371L15.2596 13.2499L14.9884 13.1015L15.0882 13.2857C15.0984 13.3113 15.124 13.3113 15.1368 13.2985V13.3113L15.0754 13.3472V13.3344C15.0882 13.3216 15.0882 13.3088 15.0754 13.2857L14.9782 13.0887L14.9398 13.0631V13.0657ZM15.4925 13.1015V13.0887C15.4925 13.0759 15.5053 13.0631 15.4925 13.0401L15.3441 12.8329H15.3313C15.3057 12.8431 15.2954 12.8943 15.3313 12.9301L15.321 12.9429L15.2699 12.8559L15.4541 12.7331L15.5053 12.8098C15.4669 12.7714 15.4285 12.7714 15.4055 12.7842L15.3927 12.7945L15.5411 13.0043C15.5539 13.0299 15.5769 13.0299 15.5923 13.0171V13.0273L15.4925 13.1015Z" fill="#00493D"/>
<path d="M15.6281 12.8073L15.6997 12.8943C15.7125 12.9045 15.7381 12.9045 15.7509 12.8943V12.9045L15.6511 12.9915V12.9787C15.6639 12.9659 15.6639 12.9531 15.6511 12.9301L15.5053 12.7459C15.4925 12.7203 15.4797 12.7331 15.4541 12.7331L15.5539 12.6486V12.6614C15.5539 12.6717 15.5411 12.687 15.5539 12.71L15.6153 12.7817L15.6869 12.7331L15.6281 12.6486C15.6153 12.623 15.5897 12.6358 15.5769 12.6358L15.6767 12.5488V12.5616C15.6639 12.5744 15.6639 12.5872 15.6767 12.6128L15.8226 12.7945C15.8353 12.8073 15.8481 12.8073 15.8609 12.7945L15.8712 12.8073L15.7739 12.8943L15.7611 12.8815C15.7739 12.8687 15.7867 12.8559 15.7739 12.8303L15.6997 12.7459L15.6281 12.8073ZM15.7381 12.5488C15.7253 12.5386 15.6997 12.5386 15.6869 12.5488V12.5386L15.8481 12.3902L15.9223 12.4644H15.9096C15.8712 12.4132 15.8226 12.4388 15.7995 12.4516C15.7995 12.4644 15.7867 12.4644 15.7739 12.4772C15.7739 12.4772 15.7739 12.4874 15.7867 12.513L15.8609 12.5872C15.8712 12.5744 15.9096 12.5488 15.8609 12.4874H15.8712L15.971 12.6V12.6102C15.9096 12.5488 15.884 12.5847 15.8712 12.6L15.9479 12.6717C15.9582 12.6972 15.971 12.6972 15.971 12.6972L16.0068 12.6614C16.0196 12.6486 16.0324 12.6102 16.0068 12.5386H16.0196L16.0682 12.623L15.9096 12.7817L15.8968 12.7714C15.9096 12.7586 15.9223 12.7459 15.8968 12.7203L15.7381 12.5488ZM16.0324 12.206C16.0196 12.2188 16.0196 12.2443 16.0426 12.2571C16.0682 12.2802 16.0938 12.2802 16.1424 12.2571C16.168 12.2443 16.214 12.2316 16.2524 12.2674C16.3138 12.3288 16.2882 12.3774 16.278 12.403C16.2652 12.4158 16.2396 12.4286 16.2268 12.4388C16.214 12.4388 16.214 12.4388 16.214 12.4516V12.4644L16.1296 12.3902H16.1424C16.191 12.4158 16.2396 12.426 16.2652 12.3902C16.2908 12.3646 16.2652 12.339 16.2524 12.3288C16.2268 12.3032 16.2012 12.3032 16.1654 12.3288C16.1296 12.3416 16.081 12.3416 16.0426 12.316C15.994 12.2674 15.994 12.2316 16.017 12.1932L16.0682 12.1574C16.081 12.1574 16.081 12.1574 16.0682 12.1318L16.1552 12.1932H16.1424C16.081 12.1676 16.0426 12.1829 16.0324 12.206ZM16.1424 12.1087C16.1168 12.0959 16.104 12.1087 16.0912 12.1215H16.081L16.2166 11.9245L16.301 11.9859L16.2882 11.9987C16.2729 11.9856 16.2534 11.9783 16.2332 11.9783C16.213 11.9783 16.1935 11.9856 16.1782 11.9987C16.1782 12.0115 16.1654 12.0243 16.1654 12.0345C16.1552 12.0345 16.1552 12.0473 16.1782 12.0601C16.191 12.0729 16.2652 12.1215 16.2652 12.1215C16.278 12.1087 16.301 12.0831 16.2524 12.0345V12.0217L16.3752 12.1215C16.301 12.0831 16.2882 12.1215 16.278 12.1318L16.3624 12.1932C16.388 12.206 16.3983 12.206 16.3983 12.206C16.3983 12.1932 16.4111 12.1804 16.4239 12.1701C16.4366 12.1446 16.4494 12.1087 16.3983 12.0601L16.4111 12.0473L16.4725 12.1215L16.3496 12.3058H16.3369C16.3496 12.2802 16.3496 12.2674 16.3266 12.2443L16.1424 12.1087ZM16.4725 11.8887L16.4366 11.9501C16.3855 11.8989 16.3624 11.8631 16.3624 11.8631L16.4725 11.8887H16.4981C16.5108 11.8887 16.5339 11.8989 16.5467 11.8989C16.5825 11.9117 16.5723 11.9245 16.5595 11.9501H16.5723L16.6337 11.8375C16.6081 11.8631 16.5953 11.8503 16.5723 11.8503C16.3138 11.8017 16.2908 11.7889 16.2908 11.7889V11.8017L16.4853 12.0217C16.4981 12.0345 16.4981 12.0601 16.4981 12.0729H16.5108L16.5467 12.0115L16.5339 11.9987C16.5211 12.0243 16.5083 12.0345 16.4853 11.9987L16.4597 11.9731L16.4981 11.8887H16.4725ZM16.3983 11.6175C16.388 11.6303 16.388 11.6558 16.4239 11.6686C16.4597 11.6789 16.475 11.6686 16.5108 11.6431C16.5467 11.6175 16.5825 11.5919 16.6311 11.6175C16.7079 11.6558 16.6925 11.7173 16.6823 11.7403L16.6439 11.7915V11.8145L16.5467 11.7633C16.6081 11.7761 16.6567 11.7633 16.6695 11.7275C16.6823 11.7019 16.6567 11.6789 16.6439 11.6661C16.6183 11.6558 16.5953 11.6661 16.5595 11.6917C16.5211 11.7275 16.4827 11.7428 16.4366 11.7173C16.3855 11.6917 16.3624 11.6558 16.3855 11.6175C16.3855 11.5919 16.4111 11.5816 16.4239 11.5689C16.4239 11.5561 16.4239 11.5561 16.4111 11.5433V11.533L16.5108 11.5816H16.4981C16.4366 11.5689 16.3983 11.5944 16.3983 11.6175Z" fill="#00493D"/>
<path d="M12.5242 7.2779C12.3656 7.31372 12.2555 7.32652 12.1071 7.1909C12.0099 7.09367 12.0329 6.92224 12.1327 6.85827C12.2427 6.78663 12.34 6.73801 12.4756 6.77384C12.6112 6.81222 12.9668 7.14229 12.8799 7.15508C12.7929 7.15508 12.6598 7.23952 12.5242 7.2779ZM12.9029 6.6894C12.9541 6.65102 13.0155 6.62799 13.1741 6.61264C13.3225 6.6024 13.43 6.6024 13.4684 6.71499C13.5195 6.84804 13.5554 7.00668 13.6526 7.08088C13.5912 7.1167 13.2841 7.15508 13.1741 7.09367C13.0283 7.01947 12.9899 6.73545 12.9054 6.6894H12.9029ZM13.9596 6.70219C14.0082 6.66381 14.0697 6.66381 14.2283 6.6766C14.3869 6.6894 14.4483 6.70219 14.4842 6.81222C14.5225 6.93503 14.4842 7.09367 14.5609 7.2037C14.4842 7.22929 14.2411 7.22929 14.1541 7.14229C14.021 7.04506 14.0313 6.76104 13.9596 6.69963V6.70219Z" fill="white" stroke="black" stroke-width="0.0636834"/>
<path d="M14.6939 6.77384C14.5839 6.74825 14.5097 6.73801 14.4637 6.77384C14.5225 6.84804 14.4739 7.14229 14.5967 7.23952C14.6812 7.30093 14.9038 7.31628 14.9524 7.17811C15.0138 7.05529 15.0138 6.87107 14.6965 6.77384H14.6939ZM13.4325 6.65102C13.4683 6.6152 13.5425 6.6024 13.6884 6.6024C13.8496 6.6024 13.9442 6.62799 13.9954 6.72522C14.0466 6.84804 14.0312 7.00668 14.1182 7.10647C14.0824 7.15508 13.7498 7.15508 13.6526 7.08088C13.5169 6.99388 13.5041 6.71243 13.4325 6.65102ZM12.3911 6.76104C12.3911 6.69963 12.4755 6.6894 12.6982 6.6766C12.9156 6.65102 12.9284 6.66381 13.0026 6.82245C13.0385 6.90945 13.0871 7.05529 13.1869 7.10391C12.9156 7.16788 12.8286 7.2037 12.6828 7.1167C12.5763 7.05008 12.4883 6.95768 12.4269 6.84804C12.4141 6.81222 12.4141 6.77384 12.3885 6.76104H12.3911Z" fill="#073163" stroke="black" stroke-width="0.0636834"/>
<path d="M12.9797 5.51239C12.7213 5.31537 12.4143 5.13114 12.1328 5.09532C12.4265 5.29111 12.7053 5.50834 12.967 5.74523" fill="#F9D050"/>
<path d="M12.9797 5.51239C12.7213 5.31537 12.4143 5.13114 12.1328 5.09532C12.4265 5.29111 12.7053 5.50834 12.967 5.74523" stroke="black" stroke-width="0.0272929"/>
<path d="M13.1256 5.32816C12.8185 5.11835 12.4629 4.88551 12.12 4.86248C12.4409 5.04842 12.7266 5.28917 12.9644 5.5738M13.517 4.9853C13.6556 4.67043 13.8607 4.38934 14.1183 4.16139C13.9955 4.41982 13.8625 4.94692 13.7985 5.15673" fill="#F9D050"/>
<path d="M13.1256 5.32816C12.8185 5.11835 12.4629 4.88551 12.12 4.86248C12.4409 5.04842 12.7266 5.28917 12.9644 5.5738M13.517 4.9853C13.6556 4.67043 13.8607 4.38934 14.1183 4.16139C13.9955 4.41982 13.8625 4.94692 13.7985 5.15673" stroke="black" stroke-width="0.0272929"/>
<path d="M13.7883 4.92389C13.9069 4.63557 14.1298 4.40257 14.4127 4.27142C14.2002 4.53649 14.0419 4.84079 13.947 5.16696" fill="#F9D050"/>
<path d="M13.7883 4.92389C13.9069 4.63557 14.1298 4.40257 14.4127 4.27142C14.2002 4.53649 14.0419 4.84079 13.947 5.16696" stroke="black" stroke-width="0.0272929"/>
<path d="M13.8983 5.16697C14.1332 4.80736 14.47 4.52587 14.8655 4.35841C14.5585 4.66546 14.1056 5.22837 13.9955 5.45098M14.0697 5.43819C14.2898 5.31537 14.7325 5.11835 15.0497 5.18232C14.8553 5.25396 14.2668 5.52263 14.0083 5.77082" fill="#F9D050"/>
<path d="M13.8983 5.16697C14.1332 4.80736 14.47 4.52587 14.8655 4.35841C14.5585 4.66546 14.1056 5.22837 13.9955 5.45098M14.0697 5.43819C14.2898 5.31537 14.7325 5.11835 15.0497 5.18232C14.8553 5.25396 14.2668 5.52263 14.0083 5.77082" stroke="black" stroke-width="0.0272929"/>
<path d="M14.0211 5.35119C14.2284 5.13114 14.6096 4.80107 15.0139 4.66546C14.7197 4.94691 14.0928 5.58659 14.0083 5.68382M13.4326 5.21814C13.2842 4.76269 13.0642 4.33538 12.7341 4.19977C12.997 4.57565 13.1799 5.00152 13.2714 5.45098M13.1486 5.20534C12.9055 4.91109 12.5729 4.61684 12.1942 4.55543C12.5653 4.79826 12.8585 5.14296 13.0386 5.54821" fill="#F9D050"/>
<path d="M14.0211 5.35119C14.2284 5.13114 14.6096 4.80107 15.0139 4.66546C14.7197 4.94691 14.0928 5.58659 14.0083 5.68382M13.4326 5.21814C13.2842 4.76269 13.0642 4.33538 12.7341 4.19977C12.997 4.57565 13.1799 5.00152 13.2714 5.45098M13.1486 5.20534C12.9055 4.91109 12.5729 4.61684 12.1942 4.55543C12.5653 4.79826 12.8585 5.14296 13.0386 5.54821" stroke="black" stroke-width="0.0272929"/>
<path d="M13.2867 5.19255C12.9797 4.63987 12.7443 4.54264 12.6112 4.43261C12.7212 4.63987 12.9899 5.19255 13.1485 5.42539" fill="#F9D050"/>
<path d="M13.2867 5.19255C12.9797 4.63987 12.7443 4.54264 12.6112 4.43261C12.7212 4.63987 12.9899 5.19255 13.1485 5.42539" stroke="black" stroke-width="0.0272929"/>
<path d="M12.6727 5.15673C12.8477 5.26678 12.9977 5.41236 13.1128 5.58403" stroke="black" stroke-width="0.0272929"/>
<path d="M12.6727 5.4126C12.7444 5.47401 12.88 5.54821 13.0028 5.65824ZM14.1312 5.59683C14.254 5.4996 14.5227 5.34096 14.6583 5.28978ZM14.0442 5.51239C14.167 5.35119 14.4127 5.13114 14.4996 5.05694ZM14.3871 4.74989C14.2222 4.93467 14.0668 5.12767 13.9214 5.32816ZM14.0698 4.63987C13.9537 4.81164 13.851 4.99214 13.7627 5.17976ZM13.1 4.66546C13.1742 4.86248 13.3098 5.19255 13.3559 5.32816ZM12.99 4.87271C13.0412 4.94947 13.1384 5.11835 13.1742 5.24117Z" fill="#F9D050"/>
<path d="M12.6727 5.4126C12.7444 5.47401 12.88 5.54821 13.0028 5.65824M14.1312 5.59683C14.254 5.4996 14.5227 5.34096 14.6583 5.28978M14.0442 5.51239C14.167 5.35119 14.4127 5.13114 14.4996 5.05694M14.3871 4.74989C14.2222 4.93467 14.0668 5.12767 13.9214 5.32816M14.0698 4.63987C13.9537 4.81164 13.851 4.99214 13.7627 5.17976M13.1 4.66546C13.1742 4.86248 13.3098 5.19255 13.3559 5.32816M12.99 4.87271C13.0412 4.94947 13.1384 5.11835 13.1742 5.24117" stroke="black" stroke-width="0.0272929"/>
<path d="M13.407 4.8113C13.407 4.70128 13.4812 4.58102 13.5554 4.58102C13.6398 4.58102 13.7012 4.72687 13.7012 4.8113C13.7012 4.91109 13.627 4.99553 13.5554 4.99553C13.4786 4.99553 13.407 4.92389 13.407 4.8113Z" fill="#F9D050" stroke="black" stroke-width="0.0272929"/>
<path d="M13.2484 4.91109C13.2612 4.78827 13.3456 4.69104 13.4198 4.70128C13.494 4.71407 13.5299 4.86248 13.5171 4.94691C13.5043 5.04415 13.4198 5.11835 13.3584 5.10555C13.297 5.10555 13.2356 5.02112 13.2484 4.91109ZM13.5785 4.94691C13.5529 4.83689 13.6041 4.71663 13.6783 4.70128C13.7499 4.69104 13.8241 4.8113 13.8369 4.91109C13.8625 5.00832 13.7985 5.10555 13.7371 5.10555C13.6783 5.11835 13.5913 5.05694 13.5785 4.94691Z" fill="#F9D050" stroke="black" stroke-width="0.0272929"/>
<path d="M13.3943 5.04415C13.3943 4.92389 13.4685 4.81386 13.5427 4.81386C13.6271 4.81386 13.6885 4.94691 13.6885 5.04415C13.6885 5.14394 13.6169 5.22837 13.5427 5.22837C13.4685 5.22837 13.3943 5.15673 13.3943 5.04415Z" fill="#F9D050" stroke="black" stroke-width="0.0272929"/>
<path d="M13.1742 5.10556C13.1742 4.99553 13.2612 4.87527 13.3328 4.87527C13.4096 4.87527 13.4812 5.02112 13.4812 5.10556C13.4812 5.20535 13.3942 5.28978 13.3328 5.28978C13.2612 5.28978 13.1742 5.21814 13.1742 5.10556ZM13.6271 5.05694C13.6271 4.94692 13.7038 4.82666 13.7755 4.82666C13.8599 4.82666 13.9213 4.9725 13.9213 5.05694C13.9213 5.15673 13.8497 5.24117 13.7755 5.24117C13.7013 5.24117 13.6271 5.16696 13.6271 5.05694Z" fill="#F9D050" stroke="black" stroke-width="0.0272929"/>
<path d="M13.5785 5.15673C13.5785 5.03391 13.6655 4.92389 13.7371 4.92389C13.8139 4.92389 13.8855 5.05694 13.8855 5.15417C13.8855 5.25396 13.8113 5.34096 13.7371 5.34096C13.6655 5.34096 13.5785 5.2642 13.5785 5.15673Z" fill="#F9D050" stroke="black" stroke-width="0.0272929"/>
<path d="M13.3839 5.26675C13.3839 5.14394 13.4556 5.03391 13.5298 5.03391C13.6168 5.03391 13.6782 5.17976 13.6782 5.2642C13.6782 5.36654 13.6014 5.45098 13.5298 5.45098C13.4556 5.45098 13.3814 5.37422 13.3814 5.26675H13.3839ZM13.0769 5.26675C13.0769 5.14394 13.1383 5.03391 13.1997 5.03391C13.2611 5.03391 13.3097 5.17976 13.3097 5.2642C13.3097 5.36654 13.2483 5.45098 13.1997 5.45098C13.1383 5.45098 13.0769 5.37422 13.0769 5.26675ZM13.7626 5.24373C13.7626 5.13114 13.824 5.02112 13.8855 5.02112C13.9469 5.02112 14.0083 5.15673 14.0083 5.24117C14.0083 5.35119 13.9341 5.42539 13.8855 5.42539C13.824 5.42539 13.7626 5.35119 13.7626 5.24117V5.24373Z" fill="#F9D050" stroke="black" stroke-width="0.0272929"/>
<path d="M13.8369 5.44842C13.8625 5.32816 13.9342 5.22837 13.9828 5.24373C14.034 5.25396 14.0442 5.39981 14.0212 5.4868C14.0084 5.59683 13.9342 5.65824 13.8856 5.64544C13.8344 5.63521 13.8113 5.54821 13.8344 5.45098L13.8369 5.44842Z" fill="#F9D050" stroke="black" stroke-width="0.0272929"/>
<path d="M13.604 5.4126C13.6168 5.30258 13.6885 5.19255 13.7499 5.20534C13.8241 5.20534 13.8599 5.35119 13.8497 5.43563C13.8369 5.54821 13.7729 5.62241 13.7141 5.60962C13.6527 5.60962 13.5913 5.52262 13.604 5.4126ZM13.2612 5.44842C13.2228 5.32816 13.1486 5.24372 13.1 5.25396C13.0514 5.26675 13.0386 5.4126 13.0642 5.4996C13.0897 5.59683 13.1614 5.65824 13.21 5.64544C13.2484 5.63521 13.2868 5.54821 13.2612 5.45098V5.44842Z" fill="#F9D050" stroke="black" stroke-width="0.0272929"/>
<path d="M13.1742 5.42539C13.1742 5.31537 13.2356 5.20535 13.297 5.20535C13.3712 5.20535 13.4198 5.34096 13.4198 5.42539C13.4198 5.53542 13.3584 5.60962 13.297 5.60962C13.2458 5.60962 13.1742 5.53542 13.1742 5.42539Z" fill="#F9D050" stroke="black" stroke-width="0.0272929"/>
<path d="M13.3584 5.47401C13.3584 5.35119 13.4326 5.24373 13.5042 5.24373C13.5912 5.24373 13.6526 5.37678 13.6526 5.47401C13.6526 5.5738 13.5784 5.65824 13.5042 5.65824C13.4326 5.65824 13.3584 5.58403 13.3584 5.47401ZM13.4198 4.12557C13.3942 4.2228 13.3097 4.3098 13.3686 4.44541C13.2611 4.40703 13.1639 4.39424 13.0769 4.49402C13.1869 4.48123 13.2842 4.51961 13.3328 4.59126C13.2355 4.57846 13.1869 4.62964 13.1613 4.69105C13.2483 4.66546 13.3328 4.63987 13.3712 4.65266C13.3328 4.69105 13.2714 4.7499 13.2611 4.80107C13.3328 4.73966 13.4198 4.7499 13.4684 4.71407C13.4326 4.80107 13.5042 4.88551 13.5656 4.96994C13.5554 4.84969 13.627 4.76525 13.5912 4.70128C13.7012 4.72687 13.714 4.8241 13.8727 4.8241C13.8113 4.78828 13.7754 4.66546 13.7012 4.66546C13.7371 4.65266 13.8855 4.63987 13.911 4.66546C13.8855 4.61428 13.7985 4.56823 13.7498 4.56823C13.801 4.51705 13.8855 4.41982 13.9469 4.39424C13.8599 4.40703 13.7268 4.41982 13.6782 4.49402C13.7985 4.39424 13.7754 4.21257 13.9085 4.18698C13.8368 4.17419 13.7268 4.2228 13.6398 4.3098C13.6782 4.2356 13.6782 4.13836 13.7268 4.11278C13.627 4.13836 13.517 4.26118 13.4812 4.32259C13.4759 4.25312 13.4549 4.18575 13.4198 4.12557Z" fill="#F9D050" stroke="black" stroke-width="0.0272929"/>
<path d="M13.4812 4.32259C13.4812 4.35841 13.4812 4.43262 13.4684 4.45565ZM13.6398 4.3098C13.6142 4.33539 13.5656 4.41982 13.5656 4.49403Z" fill="#F9D050"/>
<path d="M13.4812 4.32259C13.4812 4.35841 13.4812 4.43262 13.4684 4.45565M13.6398 4.3098C13.6142 4.33539 13.5656 4.41982 13.5656 4.49403" stroke="black" stroke-width="0.0272929"/>
<path d="M13.7141 4.45564C13.6719 4.48083 13.6408 4.52106 13.6271 4.56823" stroke="black" stroke-width="0.0272929"/>
<path d="M12.4142 5.67103C12.3272 5.67103 12.2556 5.6352 12.2044 5.5738C12.1199 5.46121 11.8871 5.4126 11.7873 5.51239C11.7515 5.53797 11.7029 5.53797 11.667 5.54821C11.6056 5.54821 11.5314 5.60962 11.5545 5.73244C11.6056 5.69406 11.6159 5.73244 11.6543 5.73244C11.6798 5.71964 11.667 5.74523 11.667 5.76826C11.667 5.82967 11.8001 5.95248 11.9229 5.93969C12.0585 5.93969 12.1199 5.99087 12.143 6.01645C12.1813 6.04972 12.1558 6.03948 12.1813 6.10089C12.2172 6.13671 12.23 6.14951 12.1686 6.19812C12.1406 6.22141 12.1181 6.25056 12.1027 6.2835C12.0873 6.31644 12.0793 6.35237 12.0793 6.38874C12.0793 6.42512 12.0873 6.46104 12.1027 6.49399C12.1181 6.52693 12.1406 6.55607 12.1686 6.57937C12.3272 6.69963 12.7315 6.88641 13.1869 6.52819C13.627 6.18533 14.3128 6.38235 14.3639 6.50261C14.4253 6.62798 14.4484 6.69963 14.4612 6.76104C14.474 6.81221 14.5354 6.86083 14.6224 6.84803C14.7068 6.84803 14.804 6.88385 14.8526 6.92223C14.9166 6.95806 15.001 6.94782 14.978 6.83524C14.9268 6.49237 14.7196 6.44376 14.6966 6.28512C14.8168 6.29535 14.9013 6.29535 14.9524 6.24674C14.9883 6.19812 15.0369 6.11112 15.088 6.0881C15.1239 6.06251 15.1239 6.03692 15.0752 6.04972C15.0138 6.06251 14.978 6.0881 14.8654 6.0753C14.3025 6.01389 12.7212 5.58403 12.4142 5.67103Z" fill="#059334" stroke="black" stroke-width="0.0636834"/>
<path d="M14.9166 6.0881C14.823 6.15408 14.7431 6.23748 14.6812 6.33373C14.5609 6.49237 14.1924 6.65101 13.737 6.65101C13.2969 6.65101 13.0282 6.57937 12.8312 6.42073C12.7471 6.35347 12.6562 6.29516 12.56 6.24674C12.4269 6.18533 12.4013 6.04972 12.4372 5.93969C12.4013 6.0011 12.3783 6.06251 12.3041 6.04972C12.2529 6.04972 12.1557 6.04972 12.1813 6.10089C12.1685 6.0753 12.1685 6.03948 12.1557 6.02413L12.1301 6.0011C12.1685 6.02669 12.2555 5.95248 12.3169 5.95248C12.3655 5.96528 12.4269 5.90387 12.4141 5.82967L12.3783 5.67103C12.4756 5.61985 13.7626 5.85525 14.021 5.87828C14.2769 5.89108 15.0138 6.0011 14.9166 6.0881Z" fill="black" stroke="black" stroke-width="0.0636834"/>
<path d="M12.5857 5.62241C12.7085 5.4996 12.8543 5.43819 13.0027 5.47401H13.0386C13.1153 5.4126 13.2842 5.39981 13.384 5.44842H13.4326C13.5785 5.39981 13.8599 5.44842 13.9597 5.54821L13.9955 5.5738C14.3282 5.54821 14.5226 5.69406 14.7555 5.92946C14.781 5.95505 14.8169 6.0011 14.8783 6.0139C14.9525 6.02669 14.9653 6.06507 14.9039 6.10089C14.8055 6.16173 14.7188 6.23973 14.648 6.33118C14.5354 6.47958 14.1797 6.62799 13.7371 6.62799C13.3098 6.62799 13.0514 6.55122 12.8543 6.40538C12.7443 6.32094 12.6599 6.27232 12.5985 6.23394C12.5243 6.20836 12.427 6.11113 12.4629 6.0139C12.4884 5.91666 12.427 5.79385 12.3784 5.67103C12.4142 5.64544 12.5115 5.60962 12.5601 5.63521L12.5857 5.62241Z" fill="#059334" stroke="black" stroke-width="0.0636834"/>
<path d="M14.7555 5.92946C14.5252 5.69406 14.3282 5.54821 13.9955 5.57124C13.9955 5.58403 13.9955 5.62241 13.9827 5.648C14.2146 5.75203 14.4201 5.9068 14.584 6.10089C14.6352 6.04972 14.7197 5.99087 14.7555 5.92946ZM13.9597 5.54821C13.8599 5.45098 13.5785 5.39981 13.4326 5.45098C13.4326 5.4996 13.4326 5.5738 13.407 5.62241C13.494 5.65824 13.5657 5.74523 13.6399 5.82967C13.6911 5.81687 13.8113 5.78105 13.8727 5.76826C13.9094 5.69817 13.9385 5.62441 13.9597 5.54821ZM13.384 5.44842C13.2842 5.39981 13.1128 5.4126 13.0386 5.47401C13.013 5.52518 13.0028 5.62241 13.0028 5.67103C13.0539 5.67103 13.1256 5.70685 13.1486 5.73244C13.2254 5.70685 13.3226 5.65824 13.3584 5.62241C13.3712 5.57124 13.3942 5.4996 13.384 5.45098V5.44842ZM12.5857 5.62241C12.7085 5.4996 12.8544 5.43819 13.0028 5.47401C12.9772 5.51239 12.9669 5.58403 12.9669 5.65824C12.8313 5.64544 12.6599 5.68382 12.5857 5.73244V5.62241Z" fill="#00493D" stroke="black" stroke-width="0.0636834"/>
<path d="M14.5354 6.12392C14.3812 5.9414 14.1891 5.79471 13.9725 5.69406C13.9725 5.70685 13.9469 5.75547 13.9341 5.79385C14.0083 5.90387 14.1541 6.14951 14.2155 6.28512C14.277 6.25953 14.4484 6.18533 14.5354 6.12392ZM13.604 6.39514C13.6252 6.22791 13.6372 6.05963 13.6398 5.89108C13.7012 5.87828 13.8241 5.84246 13.8727 5.82967C13.9341 5.92946 14.0825 6.18789 14.1439 6.30815C13.9955 6.34397 13.7499 6.40538 13.604 6.39514ZM13.1741 5.80664C13.2356 5.78105 13.3226 5.72988 13.3814 5.68382C13.4326 5.71964 13.5298 5.80664 13.5656 5.85526C13.5656 5.96528 13.5298 6.28512 13.517 6.39258C13.4198 6.39258 13.2611 6.36956 13.1741 6.32094C13.1869 6.13671 13.1997 5.92946 13.1741 5.80664ZM12.5601 5.95249C12.5729 5.9269 12.5856 5.84246 12.5856 5.80664C12.6829 5.74523 12.9285 5.68382 13.1127 5.78105C13.1255 5.90387 13.1127 6.21092 13.0999 6.28512C12.9358 6.15166 12.7552 6.03987 12.5626 5.95249H12.5601Z" fill="#00493D" stroke="black" stroke-width="0.0636834"/>
<path d="M11.9485 5.72988C11.9229 5.72988 11.9101 5.65824 11.8615 5.65824C11.8487 5.65824 11.8128 5.67103 11.8 5.65824C11.8 5.68382 11.8128 5.70941 11.8256 5.71965C11.8384 5.75547 11.8998 5.73244 11.9485 5.73244V5.72988Z" fill="black"/>
<path d="M11.9484 5.93969C12.0943 5.93969 12.1199 5.75547 12.1941 5.74523M12.0329 5.95249C12.1429 6.00366 12.2299 5.74523 12.3143 5.75547M11.8128 5.63521C11.8487 5.63521 11.8742 5.58403 11.9357 5.64544C11.9612 5.67103 11.9971 5.68382 12.0227 5.68382M11.9971 5.81688C11.9459 5.89364 11.8615 5.93969 11.8128 5.91667M11.7873 5.51239C11.7514 5.53798 11.7284 5.58403 11.7028 5.62241M11.667 5.69406V5.75547" stroke="black" stroke-width="0.0636834"/>
<path d="M15.7611 7.29069V9.68053C15.7611 11.7531 14.7811 12.4644 13.4685 13.0273C12.1559 12.4644 11.1656 11.7531 11.1656 9.68053V7.28814H15.7611V7.29069Z" fill="white"/>
<path d="M13.4685 9.31207C13.5785 9.31207 13.7499 9.21484 13.8983 9.06644C14.057 8.895 14.3282 8.83615 14.6097 9.06644C14.8911 9.29928 15.0626 9.20205 15.211 9.06644C15.3568 8.93338 15.4796 8.88221 15.7611 8.88221V7.2907H11.1631V8.88477C11.4445 8.88477 11.5674 8.93594 11.7158 9.069C11.8616 9.20461 12.033 9.30184 12.3171 9.069C12.6113 8.83871 12.8672 8.89756 13.0386 9.069C13.1742 9.2174 13.3457 9.31463 13.4685 9.31463V9.31207Z" fill="#C8102E"/>
<path d="M13.4685 10.5403C13.6169 10.5403 13.9111 10.3791 13.9828 10.3432C14.254 10.182 14.4485 10.3304 14.6097 10.4046C14.7811 10.4763 15.0984 10.5633 15.2954 10.4046C15.4924 10.2434 15.6024 10.2562 15.7381 10.2562C15.7636 10.072 15.7636 9.88778 15.7636 9.68053V9.53212C15.5896 9.4963 15.5052 9.54491 15.321 9.70611C15.1368 9.86475 14.9269 9.82893 14.6557 9.7317C14.3999 9.61912 14.144 9.42466 13.8856 9.7317C13.7784 9.85148 13.6288 9.92488 13.4685 9.9364C13.2843 9.9364 13.1256 9.81614 13.0514 9.7317C12.7827 9.42466 12.5371 9.61912 12.2787 9.7317C12.01 9.82893 11.7874 9.86475 11.6057 9.70611C11.4343 9.54491 11.3473 9.4963 11.1631 9.53212V9.68053C11.1631 9.88778 11.1759 10.072 11.1989 10.2562C11.3345 10.2562 11.4343 10.2434 11.6288 10.4046C11.8258 10.5633 12.1559 10.4763 12.3171 10.4046C12.4885 10.3304 12.683 10.182 12.9542 10.3432C13.0284 10.3791 13.3098 10.5377 13.4685 10.5377V10.5403ZM13.4685 11.0673C13.6809 11.0559 13.8874 10.9926 14.0698 10.8831C14.3154 10.7475 14.4868 10.8064 14.7325 10.9317C14.9884 11.0546 15.1982 11.0162 15.3466 10.9317C15.4182 10.8806 15.4796 10.7833 15.6383 10.8217C15.5666 11.1288 15.454 11.3974 15.321 11.6175C15.2165 11.6521 15.1061 11.6657 14.9963 11.6573C14.8865 11.649 14.7794 11.6189 14.6813 11.5689C14.4254 11.446 14.1056 11.3718 13.9342 11.4819C13.7951 11.5724 13.6342 11.6236 13.4685 11.6303C13.3329 11.6303 13.1614 11.5791 13.0028 11.4819C12.8314 11.3718 12.5115 11.446 12.2557 11.5689C12.1577 11.6193 12.0508 11.6498 11.941 11.6586C11.8311 11.6674 11.7207 11.6543 11.616 11.62C11.4829 11.3974 11.3729 11.1262 11.2987 10.8217C11.4573 10.7833 11.5187 10.8831 11.5929 10.9317C11.6847 10.9835 11.7882 11.0107 11.8936 11.0107C11.9989 11.0107 12.1025 10.9835 12.1942 10.9317C12.4501 10.8089 12.6215 10.7475 12.8672 10.8806C13.0494 10.991 13.2558 11.0551 13.4685 11.0673ZM13.4685 13.0273C13.9427 12.8435 14.3856 12.5871 14.7811 12.2674C14.6813 12.2316 14.6225 12.2546 14.5355 12.1932C14.4485 12.1318 14.1926 12.1087 13.9725 12.2316C13.8199 12.3206 13.6464 12.3675 13.4698 12.3675C13.2931 12.3675 13.1196 12.3206 12.967 12.2316C12.7444 12.1087 12.4885 12.1318 12.4041 12.1932C12.3171 12.2546 12.2557 12.2316 12.1559 12.2699C12.5498 12.5914 12.993 12.8471 13.4685 13.0273Z" fill="#0B50A0"/>
<path d="M13.1486 7.88943C13.1614 7.91502 13.1384 7.97643 13.1486 7.99946C13.1742 8.05063 13.1742 8.07622 13.21 8.09925H13.297C13.5657 8.09925 13.8855 7.98922 14.1542 7.98922C14.4126 7.98922 14.5713 8.07366 14.7171 8.07366C14.8041 8.07366 14.8783 8.01225 14.8783 7.95084C14.8783 7.88943 14.7811 7.85361 14.5713 7.85361C14.277 7.85361 14.1184 7.92781 13.8727 7.92781C13.5043 7.92781 13.4429 7.7922 13.4429 7.73079C13.4429 7.66938 13.5043 7.58495 13.7013 7.58495C13.7627 7.58495 13.8113 7.57215 13.8369 7.54657C13.8497 7.52098 13.8855 7.47236 13.9597 7.43654C14.0442 7.38537 14.2156 7.43654 14.3026 7.37513C14.3026 7.42631 14.2284 7.49795 14.167 7.52354C14.2898 7.48516 14.4229 7.48516 14.4485 7.58495C14.387 7.54657 14.2898 7.57215 14.254 7.58495C14.2028 7.59518 14.1798 7.61053 14.1312 7.62077C14.1798 7.60798 14.2054 7.70521 14.277 7.70521C14.2054 7.76662 14.0826 7.76662 13.9597 7.718C13.9214 7.70521 13.8241 7.66938 13.7627 7.66938C13.6399 7.66938 13.5657 7.69497 13.5657 7.74359C13.5657 7.805 13.6425 7.84082 13.86 7.84082C14.0826 7.84082 14.2054 7.77941 14.5355 7.77941C14.5099 7.74359 14.5482 7.70521 14.4996 7.66938C14.6224 7.66938 14.7555 7.70521 14.8067 7.7922C14.7939 7.70521 14.8655 7.63356 14.8425 7.55936C14.9167 7.57215 14.9781 7.6438 14.9883 7.70521C14.9883 7.66938 15.0395 7.66938 15.0395 7.63356C15.0737 7.65206 15.1014 7.68065 15.1188 7.71545C15.1362 7.75024 15.1425 7.78955 15.1367 7.82802C15.1726 7.76662 15.2109 7.7922 15.234 7.718C15.2596 7.76917 15.2468 7.91502 15.1598 7.96364C15.2365 7.91246 15.344 7.91246 15.4182 7.99946C15.344 7.98922 15.3082 8.02505 15.2724 8.03784C15.0938 8.12909 14.8943 8.17146 14.6941 8.16066C14.4996 8.14786 14.474 8.10948 14.3512 8.10948C14.4254 8.12228 14.5713 8.27068 14.7094 8.27068C14.7939 8.27068 14.8553 8.27068 14.8911 8.25789C14.9269 8.24509 14.9883 8.25789 15.037 8.28347C15.0753 8.3193 15.1495 8.35512 15.1982 8.34488C15.1854 8.3935 15.1598 8.41653 15.124 8.42932C15.1854 8.4677 15.1495 8.49073 15.211 8.53934C15.1854 8.53934 15.1598 8.56493 15.124 8.55214C15.1598 8.58796 15.1598 8.63913 15.1982 8.66216C15.1854 8.66216 15.147 8.67496 15.124 8.66216C15.1598 8.71334 15.124 8.77219 15.1598 8.79777C15.1982 8.84895 15.124 8.9078 15.0625 8.85918C15.0753 8.89501 15.037 8.93339 15.0011 8.92059C14.9653 8.9078 14.9397 8.86942 14.95 8.85918C14.95 8.84639 14.95 8.84639 14.9653 8.8336C14.9397 8.87198 14.8911 8.87198 14.8655 8.85918C14.8553 8.84639 14.8399 8.8336 14.8399 8.82336C14.7555 8.84895 14.7197 8.77219 14.7325 8.73637C14.7427 8.70054 14.8169 8.68519 14.8425 8.70054C14.8681 8.71078 14.8911 8.72613 14.9167 8.70054C14.9423 8.68775 14.9525 8.66216 14.9525 8.63914C14.9525 8.60075 14.9167 8.49073 14.7555 8.50352C14.5713 8.51632 14.277 8.4677 14.1312 8.41653C14.1184 8.40629 14.1056 8.40629 14.0928 8.39094C14.0928 8.44211 14.0442 8.4677 14.0442 8.51632C14.0442 8.57773 14.0698 8.62634 14.144 8.64937C14.1056 8.71078 14.0442 8.70054 14.0212 8.66216C14.0212 8.70054 13.97 8.72357 13.97 8.77219C13.9597 8.7466 13.9444 8.73637 13.9342 8.71078C13.8983 8.79777 13.7985 8.84639 13.7499 8.82336C13.6885 8.87198 13.6169 8.85918 13.5913 8.81057C13.5555 8.83616 13.5043 8.83616 13.4813 8.81057C13.4813 8.84639 13.4557 8.83615 13.4429 8.88477C13.4429 8.91036 13.3943 8.92059 13.3712 8.91036C13.3457 8.89501 13.3329 8.84639 13.3584 8.82336C13.3226 8.84895 13.2842 8.84895 13.2612 8.82336C13.2612 8.79777 13.2612 8.76195 13.2868 8.7466H13.3098C13.2842 8.73637 13.2484 8.7466 13.2228 8.73637C13.1972 8.71078 13.1972 8.68519 13.21 8.66216C13.2228 8.64937 13.2612 8.62634 13.2868 8.64937L13.297 8.66216C13.297 8.63658 13.3098 8.61355 13.3226 8.61355C13.3482 8.60075 13.3815 8.60075 13.4199 8.63914C13.4454 8.67496 13.4685 8.67496 13.5427 8.66472C13.6041 8.66472 13.7013 8.60075 13.773 8.53934C13.5683 8.50352 13.6885 8.36791 13.7499 8.3193C13.7013 8.3065 13.6271 8.3065 13.5785 8.33209C13.3226 8.4677 13.0514 8.62634 12.88 8.57773C12.8824 8.60338 12.8911 8.62801 12.9056 8.64937C12.8672 8.64937 12.793 8.64937 12.7699 8.61355C12.7571 8.63914 12.7341 8.70054 12.7571 8.74916C12.7316 8.72357 12.6599 8.69799 12.6215 8.68775C12.6471 8.71334 12.6215 8.76195 12.6343 8.79777C12.5985 8.76195 12.5371 8.73637 12.5115 8.76195C12.4859 8.78754 12.4373 8.79777 12.4015 8.78754C12.3776 8.82126 12.3435 8.84639 12.3043 8.85918C12.3043 8.8336 12.3043 8.79777 12.2915 8.78498C12.2787 8.82336 12.2403 8.87198 12.1942 8.89501C12.1942 8.86942 12.1942 8.8336 12.1814 8.81057C12.1814 8.85918 12.0842 8.88477 12.0714 8.92059C12.0842 8.88477 12.0842 8.84639 12.0842 8.82336C12.0706 8.84511 12.0527 8.86383 12.0316 8.87836C12.0105 8.89289 11.9866 8.90291 11.9614 8.9078C11.9716 8.88221 11.987 8.85662 11.9716 8.8336C11.9614 8.88477 11.8872 8.91036 11.8258 8.89501C11.8258 8.92059 11.7746 8.95641 11.7158 8.92059C11.6774 8.9078 11.6543 8.86942 11.6774 8.84639C11.6288 8.84639 11.5801 8.79777 11.6057 8.76195C11.6057 8.74916 11.616 8.73637 11.616 8.72357C11.5801 8.69798 11.5674 8.64937 11.6057 8.61355C11.616 8.60075 11.6543 8.60075 11.6774 8.60075C11.6774 8.50352 11.7644 8.50352 11.8002 8.57517C11.8258 8.61355 11.9 8.67496 11.9614 8.66216C11.987 8.66216 11.9972 8.64937 12.0228 8.64937C12.1329 8.613 12.2365 8.55945 12.3298 8.49073C12.3401 8.45491 12.3401 8.42932 12.3401 8.40629C12.2915 8.43188 12.2429 8.45491 12.2173 8.49073V8.45491C12.1814 8.45491 12.12 8.44211 12.0944 8.44211C12.1072 8.42932 12.12 8.36791 12.1456 8.35512C12.0842 8.36791 12.0228 8.35512 11.9716 8.34488C11.9972 8.3193 11.9972 8.28347 12.01 8.24509C11.9844 8.25789 11.923 8.23486 11.8744 8.24509C11.8872 8.20927 11.9 8.16066 11.9358 8.14786C11.8846 8.16066 11.8258 8.14786 11.7644 8.12228C11.8155 8.12228 11.8386 8.06087 11.8744 8.06087C11.7772 8.06087 11.7516 8.01225 11.703 7.98922C11.7388 7.99946 11.7644 7.96364 11.8002 7.96364C11.7644 7.95084 11.703 7.88943 11.7285 7.85361C11.7158 7.86641 11.703 7.88943 11.6774 7.90479C11.6518 7.91502 11.6057 7.90479 11.5674 7.86641C11.5418 7.81523 11.5546 7.75638 11.6057 7.74359C11.5945 7.74286 11.5837 7.73894 11.5747 7.73227C11.5656 7.72561 11.5586 7.71649 11.5546 7.70598C11.5505 7.69548 11.5496 7.68404 11.5519 7.67302C11.5541 7.662 11.5595 7.65186 11.5674 7.6438C11.5801 7.61821 11.6288 7.58495 11.6543 7.61821L11.6902 7.66938C11.6774 7.6438 11.6774 7.59518 11.6774 7.55936C11.6902 7.52354 11.7158 7.52354 11.7541 7.50819C11.7874 7.50819 11.813 7.54657 11.813 7.58495C11.813 7.62077 11.8258 7.6438 11.8386 7.69497L11.8488 7.6438C11.8488 7.59518 11.9102 7.60798 11.9486 7.61821C11.9844 7.63356 11.9972 7.70521 11.9486 7.74359C11.923 7.76917 11.9358 7.805 11.9614 7.82802C12.0458 7.96364 12.1917 8.07366 12.3171 8.08645C12.3171 8.03528 12.3426 7.98922 12.3785 7.95084C12.3785 7.92526 12.3887 7.88943 12.404 7.86641C12.4143 7.7922 12.4501 7.75638 12.4987 7.77941C12.4885 7.76662 12.4731 7.75382 12.4731 7.74359C12.4373 7.70521 12.4015 7.6438 12.4271 7.59518C12.4527 7.54657 12.5243 7.55936 12.5499 7.58495C12.5371 7.50819 12.6215 7.44934 12.6215 7.41096C12.6343 7.44934 12.6599 7.49795 12.6471 7.53377C12.6599 7.48516 12.7444 7.42375 12.8058 7.40072C12.7802 7.43654 12.8569 7.49795 12.8441 7.53377C12.8697 7.47236 12.967 7.43654 13.0386 7.43654C13.013 7.46213 13.013 7.51074 13.013 7.53377C13.0514 7.53377 13.1154 7.52354 13.1384 7.48516C13.1384 7.53633 13.1128 7.58495 13.0872 7.60798C13.1 7.59518 13.1486 7.59518 13.187 7.59518C13.1486 7.63356 13.1614 7.67194 13.1256 7.69497C13.1742 7.66938 13.2356 7.66938 13.2484 7.72056C13.274 7.75638 13.2356 7.81779 13.21 7.85361C13.1845 7.86641 13.1614 7.88943 13.1486 7.88943Z" fill="#F9D050" stroke="black" stroke-width="0.0636834"/>
<path d="M12.3914 8.03784C12.3044 8.07366 12.2788 8.16066 12.266 8.20927" stroke="black" stroke-width="0.0636834"/>
<path d="M12.3786 8.12228C12.2558 8.19904 12.2046 8.25789 12.2302 8.3935M12.4374 8.49329C12.5142 8.4677 12.5602 8.44211 12.6217 8.33209" stroke="black" stroke-width="0.0636834"/>
<path d="M12.5859 8.38071C12.5603 8.43188 12.5859 8.51632 12.55 8.55214C12.583 8.53576 12.6114 8.51157 12.6328 8.48169C12.6542 8.45181 12.6679 8.41714 12.6729 8.38071" stroke="black" stroke-width="0.0636834"/>
<path d="M12.6115 8.51632C12.6601 8.49073 12.7343 8.41653 12.7701 8.33209C12.7573 8.36791 12.7701 8.42932 12.7445 8.4677C12.8059 8.40629 12.8315 8.36791 12.8443 8.30651L12.8545 8.35768C12.8801 8.33209 12.9057 8.3065 12.9057 8.25789M12.9031 8.29371V8.35512C12.9543 8.3193 12.9671 8.27068 12.9671 8.20927" stroke="black" stroke-width="0.0636834"/>
<path d="M12.9543 8.28348C13.0285 8.2323 13.0388 8.16066 13.0388 8.05063M13.0388 8.17345C13.0899 8.13507 13.1002 8.11204 13.1002 7.99946M12.9415 7.66939C12.9159 7.66939 12.8904 7.68218 12.8904 7.72056C12.8904 7.74359 12.8545 7.77941 12.8545 7.81779C12.8443 7.86641 12.8187 7.8792 12.7829 7.86641C12.7445 7.84082 12.7445 7.84082 12.7445 7.805C12.7445 7.75382 12.8059 7.74359 12.8059 7.69497C12.8187 7.66939 12.8315 7.63356 12.8443 7.63356C12.7829 7.66939 12.6959 7.6438 12.6831 7.57215" stroke="black" stroke-width="0.0636834"/>
<path d="M13.0515 7.70521C13.0259 7.718 13.0003 7.67962 12.967 7.69497C12.9543 7.69497 12.9159 7.70521 12.9056 7.69497" stroke="black" stroke-width="0.0636834"/>
<path d="M12.8801 7.76662C12.8929 7.77941 12.9543 7.805 13.0157 7.77941C12.9645 7.7922 12.9287 7.73079 12.9773 7.69497M12.77 7.6438C12.7189 7.6438 12.683 7.68218 12.6958 7.72056C12.7086 7.75638 12.7572 7.75638 12.7931 7.73079M12.683 8.25789C12.6958 8.24509 12.7086 8.22206 12.7086 8.20671C12.7342 8.20671 12.7598 8.19648 12.77 8.18368C12.8186 8.18368 12.8545 8.14786 12.8673 8.11204C12.8929 8.11204 12.9056 8.05063 12.9184 8.02504C12.9287 8.03784 12.9543 8.02504 12.9671 7.97387C12.9926 7.98922 13.0285 7.97387 13.0387 7.93805M12.5372 7.85361C12.5372 7.8664 12.5116 7.88943 12.486 7.90479C12.4988 7.92781 12.486 7.98922 12.463 7.99946C12.4758 8.02504 12.463 8.06087 12.4502 8.08645C12.4502 8.09925 12.463 8.13763 12.463 8.14786M12.5858 7.60798C12.5602 7.66938 12.573 7.74359 12.6216 7.75638" stroke="black" stroke-width="0.0636834"/>
<path d="M12.6114 7.80244C12.5986 7.86641 12.5986 7.95084 12.5858 7.98922C12.573 8.01481 12.55 8.09925 12.6472 8.12228C12.7573 8.14786 12.8187 8.13507 12.8801 7.95084M13.0643 8.42932C13.0643 8.44211 13.0515 8.4677 13.0285 8.4677M13.1487 8.40629C13.1487 8.43188 13.1231 8.4677 13.1129 8.47794M13.2357 8.38071C13.2357 8.40629 13.2357 8.44211 13.2101 8.45491M12.4886 7.62077C12.4988 7.62077 12.5142 7.64636 12.5244 7.66939C12.4886 7.6438 12.4502 7.70521 12.4732 7.74359M12.4502 7.82802L12.4016 7.86641M12.4144 7.93805C12.4016 7.93805 12.3888 7.95084 12.3786 7.95084M11.8259 7.718C11.8259 7.70521 11.8259 7.70521 11.8387 7.69241M11.7159 7.68218C11.7031 7.68218 11.7031 7.68218 11.6903 7.66939M11.7261 7.85361H11.7517M11.6775 7.77941C11.658 7.76011 11.6329 7.74755 11.6058 7.74359M12.353 8.23486C12.266 8.3065 12.2302 8.36791 12.2174 8.45491M12.4374 8.29371C12.4157 8.33928 12.3821 8.37816 12.3402 8.40629M11.9615 8.66216C11.9205 8.67537 11.8771 8.67901 11.8345 8.6728C11.7919 8.66658 11.7513 8.65069 11.7159 8.62634C11.7031 8.61355 11.6903 8.61355 11.6775 8.60075M12.3274 8.49329C12.3172 8.53935 12.3018 8.60075 12.2788 8.61355C12.3786 8.56237 12.463 8.49073 12.4758 8.38071M11.6161 8.72357C11.6545 8.71078 11.6928 8.73637 11.7159 8.71078M13.75 8.3193C13.7756 8.33209 13.8114 8.34488 13.8242 8.35512C13.837 8.32953 13.8856 8.29371 13.9215 8.28347M12.8801 8.57773C12.8673 8.52655 12.8929 8.4677 12.9671 8.44211M12.4016 8.78498C12.4144 8.75939 12.4144 8.72357 12.4272 8.70054M11.8617 8.82336C11.8489 8.84895 11.8259 8.87198 11.8259 8.89501M11.6775 8.84639C11.6775 8.84639 11.6775 8.8336 11.6903 8.8336C11.7159 8.82336 11.7517 8.79777 11.7645 8.77219M13.3458 8.67496C13.3202 8.68775 13.3099 8.67496 13.2971 8.66216M13.333 8.73637C13.333 8.73637 13.3227 8.74916 13.3074 8.74916M13.3944 8.79777C13.3816 8.81057 13.3688 8.82336 13.3585 8.82336M13.75 8.82336C13.7756 8.81057 13.7884 8.78498 13.8012 8.73637M13.5914 8.81057C13.6272 8.79777 13.6528 8.77219 13.6886 8.73637M13.9343 8.71078C13.9343 8.68519 13.9343 8.66216 13.9471 8.63914M14.8426 8.82336C14.817 8.79777 14.817 8.76195 14.8554 8.73637C14.881 8.72357 14.8912 8.71078 14.9168 8.70054" stroke="black" stroke-width="0.0636834"/>
<path d="M14.093 8.39094C13.8985 8.3065 13.9113 8.19648 13.7501 8.20927M14.9655 8.77475C14.9783 8.78498 14.9655 8.82336 14.9655 8.8336M15.0755 8.77475C15.0627 8.81057 15.0627 8.82336 15.0627 8.85918M14.1313 7.62077H14.029M13.1002 8.03784C13.1002 8.06343 13.1386 8.11204 13.2358 8.11204C13.223 8.11204 13.2102 8.09925 13.2102 8.09925M13.1488 7.88943C13.1386 7.90223 13.1232 7.88943 13.1232 7.88943C13.1002 7.86385 13.1386 7.81779 13.1744 7.7922C13.1386 7.805 13.113 7.805 13.0874 7.805C13.0618 7.8792 12.9902 7.91502 12.9415 7.86641C12.9287 7.91502 12.8673 7.97643 12.8187 7.96364C12.7675 7.93805 12.7573 7.90223 12.7675 7.86641C12.7087 7.93805 12.6345 7.89199 12.6115 7.86641C12.5987 7.84082 12.6115 7.77941 12.6371 7.70521" stroke="black" stroke-width="0.0636834"/>
<path d="M13.9342 8.35512C13.8983 8.3807 13.86 8.35512 13.8241 8.3935C13.7986 8.41909 13.8369 8.42932 13.86 8.42932C13.8497 8.4677 13.8497 8.48049 13.9111 8.48049C13.8856 8.51632 13.9598 8.52911 13.947 8.57772C13.9624 8.56175 13.973 8.54174 13.9775 8.52001C13.982 8.49828 13.9803 8.47571 13.9725 8.45491C13.9598 8.41653 13.8958 8.3935 13.9342 8.35512Z" fill="black"/>
<path d="M12.8186 7.96364C12.7674 7.93805 12.7572 7.90223 12.7674 7.86641C12.7572 7.89199 12.7342 7.90223 12.7086 7.90223C12.6574 8.01225 12.5986 8.11204 12.5244 8.11204C12.4374 8.12228 12.4502 8.20927 12.5116 8.20927C12.6472 8.23486 12.7086 8.18368 12.8186 7.96364ZM11.6058 7.66938C11.6416 7.63356 11.616 7.59518 11.593 7.58495C11.5546 7.57215 11.483 7.58495 11.4446 7.6438C11.483 7.63356 11.5213 7.63356 11.5316 7.65659C11.5444 7.68218 11.5674 7.70777 11.6058 7.66938ZM11.6672 7.44934C11.7516 7.44934 11.7772 7.46213 11.7874 7.49795C11.8002 7.52354 11.7772 7.55936 11.7516 7.55936C11.7158 7.55936 11.6774 7.53377 11.6902 7.52354C11.703 7.49795 11.703 7.46213 11.6646 7.44678L11.6672 7.44934ZM11.9103 7.6438C11.9717 7.65659 11.9973 7.61821 11.9614 7.57215C11.9486 7.53377 11.9103 7.51074 11.8489 7.52098C11.9103 7.55936 11.8489 7.62077 11.9103 7.6438ZM11.4574 7.85361C11.4684 7.87538 11.4868 7.8925 11.5093 7.90188C11.5319 7.91126 11.557 7.91229 11.5802 7.90479C11.616 7.88943 11.6314 7.85361 11.616 7.82802C11.5904 7.7922 11.5546 7.77941 11.5444 7.82802C11.5188 7.8792 11.483 7.86641 11.4574 7.85361ZM11.6416 8.60075C11.616 8.55214 11.5444 8.55214 11.483 8.60075C11.5085 8.58796 11.5546 8.60075 11.5674 8.62634C11.5802 8.65193 11.6058 8.65193 11.6186 8.65193C11.6288 8.63913 11.6544 8.62634 11.6416 8.60075ZM11.7388 8.52911C11.7388 8.4677 11.6544 8.45235 11.6058 8.47794C11.6314 8.47794 11.6672 8.50352 11.6672 8.52911C11.6774 8.5547 11.703 8.56493 11.7158 8.56493C11.7414 8.55214 11.7516 8.53934 11.7414 8.52911H11.7388ZM11.616 8.74916C11.5444 8.73637 11.506 8.82336 11.506 8.88221C11.5188 8.84639 11.5572 8.82336 11.593 8.8336C11.6288 8.8336 11.6416 8.82336 11.6416 8.79777C11.6544 8.77219 11.6416 8.76195 11.616 8.7466V8.74916ZM11.6288 8.95641C11.6544 8.96921 11.68 8.94362 11.6902 8.9078C11.6902 8.88221 11.7414 8.88221 11.7516 8.89501C11.7772 8.9078 11.7772 8.95641 11.7388 8.982C11.7132 8.9948 11.6544 9.00759 11.6288 8.95641ZM13.3329 8.58796C13.3073 8.57773 13.2485 8.55214 13.1999 8.58796C13.2357 8.57773 13.2613 8.60075 13.2715 8.62634C13.2715 8.65193 13.3099 8.66216 13.3227 8.63913C13.3329 8.62634 13.3483 8.60075 13.3329 8.58796ZM13.2229 8.67496C13.1743 8.64937 13.1129 8.71078 13.1001 8.76195C13.1251 8.74155 13.1551 8.72829 13.1871 8.72357C13.2126 8.73637 13.2357 8.72357 13.2357 8.69798C13.2485 8.68775 13.2485 8.67496 13.2229 8.67496ZM13.2868 8.77475C13.2485 8.77475 13.1999 8.82336 13.1999 8.87198C13.2101 8.84639 13.2357 8.8336 13.2613 8.84639C13.2868 8.84639 13.3227 8.8336 13.3227 8.81057C13.3227 8.78498 13.3099 8.77219 13.2843 8.77219L13.2868 8.77475ZM13.3943 8.87198C13.3687 8.85918 13.3329 8.87198 13.3329 8.9078C13.3329 8.94362 13.3329 8.982 13.3227 8.9948C13.3483 8.96921 13.3713 8.95641 13.3943 8.94362C13.4071 8.93339 13.4199 8.895 13.3943 8.87198ZM14.7811 8.76195C14.7555 8.73637 14.7197 8.74916 14.7069 8.77219C14.6941 8.79777 14.6813 8.85918 14.7069 8.9078C14.7069 8.88221 14.7325 8.84639 14.7581 8.84639C14.7939 8.8336 14.8042 8.78498 14.7811 8.76195ZM14.8553 8.81057C14.8042 8.83615 14.8042 8.92059 14.8425 8.96921C14.8425 8.94362 14.8553 8.9078 14.8784 8.89501C14.9167 8.89501 14.9295 8.84639 14.9167 8.82336C14.8912 8.79777 14.8656 8.81057 14.8553 8.81057ZM15.0012 8.85918C14.9756 8.84639 14.95 8.87198 14.95 8.89501C14.9398 8.93339 14.9654 8.982 15.0012 9.00503C15.0012 8.97944 15.014 8.95641 15.0268 8.94362C15.0626 8.91803 15.0524 8.87198 15.0012 8.85918ZM15.1112 8.84639C15.0856 8.84639 15.0626 8.88221 15.0856 8.92059C15.0984 8.94618 15.124 8.95641 15.1726 8.94618C15.1598 8.94618 15.1368 8.9078 15.147 8.89501C15.1598 8.86942 15.147 8.84639 15.1112 8.84639Z" fill="#073163"/>
<path d="M11.703 11.139L12.3171 9.25066L12.9312 11.139L11.3218 9.97478H13.3125L11.703 11.139Z" fill="#F9D050"/>
<path d="M11.8259 10.9676L13.1001 10.0362H11.5316L12.7931 10.9676L12.3171 9.47327L11.8259 10.9676Z" fill="#024919"/>
<path d="M14.0083 11.139L14.6224 9.25066L15.2365 11.139L13.6271 9.97478H15.6177L14.0083 11.139Z" fill="#F9D050"/>
<path d="M14.1312 10.9676L15.4054 10.0362H13.8369L15.0984 10.9676L14.6224 9.47327L14.1312 10.9676Z" fill="#024919"/>
<path d="M12.8544 12.4746L13.4685 10.5863L14.0826 12.4746L12.4731 11.3104H14.4638L12.8544 12.4746Z" fill="#F9D050"/>
<path d="M12.9772 12.3032L14.2515 11.3718H12.683L13.9444 12.3032L13.4685 10.8089L12.9772 12.3032Z" fill="#024919"/>
<path d="M15.7611 7.29069V9.68053C15.7611 11.7531 14.7811 12.4644 13.4685 13.0273C12.1559 12.4644 11.1656 11.7531 11.1656 9.68053V7.28814H15.7611V7.29069Z" stroke="black" stroke-width="0.0636834"/>
</g>
<defs>
<clipPath id="clip0_14_1157">
<rect width="18" height="18" rx="9" fill="white"/>
</clipPath>
</defs>
</svg>
