<svg width="18" height="18" viewBox="0 0 18 18" fill="none" xmlns="http://www.w3.org/2000/svg">
<g clip-path="url(#clip0_8201_10102)">
<path d="M18 9C18 13.9705 13.9705 18 9 18C4.02947 18 0 13.9705 0 9C0 9.00214 9 0.000984375 9 0C13.9705 0 18 4.02947 18 9Z" fill="#0052B4"/>
<path d="M8.97607 9.00003H9.00016C9.00016 8.99195 9.00016 8.98407 9.00016 8.97595C8.99214 8.984 8.98413 8.99202 8.97607 9.00003Z" fill="#F0F0F0"/>
<path d="M9 4.69564C9 3.11203 9 2.07439 9 0H8.99849C4.02859 0.00084375 0 4.02993 0 9H4.69564V6.35586L7.33978 9H8.97595C8.98397 8.99198 8.99198 8.98397 9.00004 8.97592C9.00004 8.36958 9.00004 7.82856 9.00004 7.33985L6.35583 4.69564H9Z" fill="#F0F0F0"/>
<path d="M12.9129 6.65218C13.7773 6.65218 14.4781 5.95141 14.4781 5.08695C14.4781 4.2225 13.7773 3.52173 12.9129 3.52173C12.0484 3.52173 11.3477 4.2225 11.3477 5.08695C11.3477 5.95141 12.0484 6.65218 12.9129 6.65218Z" fill="#6DA544"/>
<path d="M4.55319 1.17395C3.14557 1.97548 1.97532 3.14569 1.17383 4.55331V9.00005H3.52167V3.52186V3.52179H8.99993C8.99993 2.78129 8.99993 2.07585 8.99993 1.17395H4.55319Z" fill="#D80027"/>
<path d="M9.00016 7.89325L5.80252 4.69568H4.6958V4.69575L9.00009 9H9.00016C9.00016 9 9.00016 8.23686 9.00016 7.89325Z" fill="#D80027"/>
<path d="M10.1738 4.69568H15.6521V7.04352H10.1738V4.69568Z" fill="#D80027"/>
<path d="M10.1738 10.5652V12.1304H10.9973C11.4911 12.6143 12.167 12.913 12.913 12.913C13.6589 12.913 14.3348 12.6143 14.8286 12.1304H14.8695H15.6521V10.5652H10.1738Z" fill="#FFDA44"/>
<path d="M10.1738 6.6521V8.99994C10.1738 11.0966 12.913 11.7391 12.913 11.7391C12.913 11.7391 15.6521 11.0966 15.6521 8.99994V6.6521H10.1738Z" fill="#338AF3"/>
<path d="M12.9128 7.90625C12.228 7.90625 12.228 8.53235 11.5433 8.53235C10.8586 8.53235 10.8586 7.90625 10.1738 7.90625V9.00189C10.8586 9.00189 10.8586 9.62799 11.5433 9.62799C12.228 9.62799 12.228 9.00189 12.9128 9.00189C13.5976 9.00189 13.5976 9.62799 14.2824 9.62799C14.9673 9.62799 14.9672 9.00189 15.6521 9.00189V7.90625C14.9673 7.90625 14.9673 8.53235 14.2824 8.53235C13.5976 8.53235 13.5976 7.90625 12.9128 7.90625Z" fill="#F3F3F3"/>
<path d="M12.9128 5.71301C12.228 5.71301 12.228 6.33911 11.5433 6.33911C10.8586 6.33911 10.8586 5.71301 10.1738 5.71301V6.80866C10.8586 6.80866 10.8586 7.43475 11.5433 7.43475C12.228 7.43475 12.228 6.80866 12.9128 6.80866C13.5976 6.80866 13.5976 7.43475 14.2824 7.43475C14.9673 7.43475 14.9672 6.80866 15.6521 6.80866V5.71301C14.9673 5.71301 14.9673 6.33911 14.2824 6.33911C13.5976 6.33911 13.5976 5.71301 12.9128 5.71301Z" fill="#F3F3F3"/>
</g>
<defs>
<clipPath id="clip0_8201_10102">
<rect width="18" height="18" fill="white"/>
</clipPath>
</defs>
</svg>
