<svg width="18" height="18" viewBox="0 0 18 18" fill="none" xmlns="http://www.w3.org/2000/svg">
<g clip-path="url(#clip0_8201_10677)">
<path d="M9 18C13.9706 18 18 13.9706 18 9C18 4.02944 13.9706 0 9 0C4.02944 0 0 4.02944 0 9C0 13.9706 4.02944 18 9 18Z" fill="#338AF3"/>
<path d="M14.087 9.0979H3.91309C3.91309 9.80029 4.52484 10.3696 5.22716 10.3696H5.18483C5.18483 11.072 5.75418 11.6414 6.45657 11.6414C6.45657 12.3438 7.02593 12.9131 7.72831 12.9131H10.2718C10.9742 12.9131 11.5435 12.3438 11.5435 11.6414C12.2459 11.6414 12.8153 11.072 12.8153 10.3696H12.773C13.4752 10.3696 14.087 9.80029 14.087 9.0979Z" fill="#FFDA44"/>
<path d="M12.5215 7.43481C12.5215 9.3798 10.9448 10.9566 8.99977 10.9566C7.05475 10.9566 5.47803 9.3798 5.47803 7.43481" fill="#338AF3"/>
<path d="M11.69 7.43477L10.5909 7.95182L11.1762 9.01635L9.98262 8.78801L9.83138 9.99373L9.00004 9.10691L8.16866 9.99373L8.01746 8.78801L6.8239 9.01628L7.40918 7.95178L6.31006 7.43477L7.40922 6.91776L6.8239 5.85327L8.01742 6.08157L8.1687 4.87585L9.00004 5.76267L9.83141 4.87585L9.98262 6.08157L11.1762 5.85327L10.5909 6.9178L11.69 7.43477Z" fill="#FFDA44"/>
</g>
<defs>
<clipPath id="clip0_8201_10677">
<rect width="18" height="18" fill="white"/>
</clipPath>
</defs>
</svg>
