<svg width="18" height="18" viewBox="0 0 18 18" fill="none" xmlns="http://www.w3.org/2000/svg">
<g clip-path="url(#clip0_14_1156)">
<path d="M0 0H18V18H0V0Z" fill="#00ABC2"/>
<path d="M9.72773 9.9814C11.0658 9.9814 12.1505 8.89667 12.1505 7.5586C12.1505 6.22052 11.0658 5.1358 9.72773 5.1358C8.38966 5.1358 7.30493 6.22052 7.30493 7.5586C7.30493 8.89667 8.38966 9.9814 9.72773 9.9814Z" fill="#FFEC2D"/>
<path d="M9.72754 4.80639C9.87154 4.80459 9.92554 4.71459 9.92554 4.60659C9.92554 4.46259 9.72754 3.77679 9.72754 3.77679C9.72754 3.77679 9.52954 4.46259 9.52954 4.60659C9.52954 4.71459 9.58354 4.80639 9.72754 4.80639Z" fill="#FFEC2D"/>
<path d="M12.4799 7.5586C12.4817 7.7026 12.5717 7.7566 12.6797 7.7566C12.8237 7.7566 13.5095 7.5586 13.5095 7.5586C13.5095 7.5586 12.8237 7.3606 12.6797 7.3606C12.5717 7.3606 12.4799 7.4146 12.4799 7.5586Z" fill="#FFEC2D"/>
<path d="M9.72754 10.3108C9.58354 10.3126 9.52954 10.4026 9.52954 10.5106C9.52954 10.6546 9.72754 11.3404 9.72754 11.3404C9.72754 11.3404 9.92554 10.6546 9.92554 10.5106C9.92554 10.4026 9.87154 10.3108 9.72754 10.3108Z" fill="#FFEC2D"/>
<path d="M6.9754 7.5586C6.9736 7.4146 6.8836 7.3606 6.7756 7.3606C6.6316 7.3606 5.9458 7.5586 5.9458 7.5586C5.9458 7.5586 6.6316 7.7566 6.7756 7.7566C6.8836 7.7566 6.9754 7.7026 6.9754 7.5586Z" fill="#FFEC2D"/>
<path d="M10.7761 5.01204C10.9063 5.0683 10.9902 5.00754 11.0325 4.90857C11.089 4.77661 11.1798 4.06852 11.1798 4.06852C11.1798 4.06852 10.7328 4.61736 10.6764 4.74932C10.634 4.84829 10.6466 4.95413 10.7761 5.01204Z" fill="#FFEC2D"/>
<path d="M12.2733 8.60703C12.2177 8.7373 12.2789 8.82116 12.3781 8.86349C12.5103 8.91994 13.2187 9.01061 13.2187 9.01061C13.2187 9.01061 12.6676 8.56365 12.5354 8.50721C12.4363 8.46487 12.3305 8.47747 12.2733 8.60703Z" fill="#FFEC2D"/>
<path d="M8.67922 10.1051C8.549 10.0489 8.46514 10.1096 8.4228 10.2086C8.36633 10.3406 8.27553 11.0487 8.27553 11.0487C8.27553 11.0487 8.72251 10.4998 8.77897 10.3679C8.82131 10.2689 8.80874 10.1631 8.67922 10.1051Z" fill="#FFEC2D"/>
<path d="M7.18205 6.51016C7.23762 6.37989 7.17643 6.29603 7.07727 6.2537C6.94504 6.19725 6.23664 6.10658 6.23664 6.10658C6.23664 6.10658 6.78768 6.55354 6.9199 6.60998C7.01907 6.65232 7.12482 6.63972 7.18205 6.51016Z" fill="#FFEC2D"/>
<path d="M11.6739 5.6125C11.777 5.71305 11.8789 5.68759 11.9552 5.61123C12.057 5.5094 12.402 4.88446 12.402 4.88446C12.402 4.88446 11.777 5.22939 11.6752 5.33121C11.5988 5.40758 11.5721 5.51067 11.6739 5.6125Z" fill="#FFEC2D"/>
<path d="M11.6739 9.50469C11.5734 9.60779 11.5989 9.70961 11.6752 9.78598C11.777 9.8878 12.402 10.2327 12.402 10.2327C12.402 10.2327 12.0571 9.60779 11.9552 9.50597C11.8789 9.4296 11.7758 9.40287 11.6739 9.50469Z" fill="#FFEC2D"/>
<path d="M7.78163 9.5047C7.67854 9.40415 7.57671 9.4296 7.50035 9.50597C7.39852 9.60779 7.0536 10.2327 7.0536 10.2327C7.0536 10.2327 7.67854 9.88781 7.78036 9.78598C7.85673 9.70962 7.88346 9.60652 7.78163 9.5047Z" fill="#FFEC2D"/>
<path d="M7.78162 5.6125C7.88217 5.5094 7.85671 5.40758 7.78035 5.33121C7.67852 5.22939 7.05358 4.88446 7.05358 4.88446C7.05358 4.88446 7.39851 5.5094 7.50033 5.61122C7.5767 5.68759 7.6798 5.71432 7.78162 5.6125Z" fill="#FFEC2D"/>
<path d="M12.2734 6.51016C12.3323 6.63901 12.4364 6.65232 12.5356 6.60999C12.6678 6.55354 13.2188 6.10658 13.2188 6.10658C13.2188 6.10658 12.5104 6.19725 12.3782 6.2537C12.279 6.29603 12.2162 6.3806 12.2734 6.51016Z" fill="#FFEC2D"/>
<path d="M10.7761 10.1051C10.6473 10.1647 10.634 10.2689 10.6764 10.3679C10.7328 10.4998 11.1798 11.0487 11.1798 11.0487C11.1798 11.0487 11.089 10.3406 11.0326 10.2086C10.9902 10.1096 10.9056 10.0472 10.7761 10.1051Z" fill="#FFEC2D"/>
<path d="M7.18215 8.60703C7.12328 8.47818 7.01918 8.46487 6.92001 8.50721C6.78778 8.56365 6.23675 9.01061 6.23675 9.01061C6.23675 9.01061 6.94515 8.91994 7.07737 8.86349C7.17654 8.82116 7.23938 8.73659 7.18215 8.60703Z" fill="#FFEC2D"/>
<path d="M8.67944 5.01204C8.80825 4.95248 8.82153 4.84829 8.77918 4.74932C8.72272 4.61736 8.27574 4.06852 8.27574 4.06852C8.27574 4.06852 8.36655 4.77661 8.42301 4.90857C8.46536 5.00754 8.54992 5.06995 8.67944 5.01204Z" fill="#FFEC2D"/>
<path d="M10.2471 4.8464C10.3743 4.88261 10.4429 4.81091 10.4682 4.70781C10.502 4.57033 10.4885 3.86346 10.4885 3.86346C10.4885 3.86346 10.1534 4.46603 10.1196 4.6035C10.0943 4.70661 10.1203 4.80847 10.2471 4.8464Z" fill="#FFEC2D"/>
<path d="M12.4351 8.08086C12.4025 8.21011 12.4764 8.27903 12.5805 8.30376C12.7194 8.33674 13.4279 8.31664 13.4279 8.31664C13.4279 8.31664 12.8138 7.98245 12.6749 7.94947C12.5708 7.92474 12.4694 7.95203 12.4351 8.08086Z" fill="#FFEC2D"/>
<path d="M9.20824 10.2708C9.08105 10.2346 9.0124 10.3063 8.98708 10.4094C8.95331 10.5469 8.9668 11.2537 8.9668 11.2537C8.9668 11.2537 9.30193 10.6512 9.3357 10.5137C9.36103 10.4106 9.33502 10.3087 9.20824 10.2708Z" fill="#FFEC2D"/>
<path d="M7.0205 7.03633C7.0531 6.90709 6.97918 6.83817 6.87504 6.81343C6.73618 6.78046 6.02767 6.80055 6.02767 6.80055C6.02767 6.80055 6.64178 7.13475 6.78064 7.16772C6.88478 7.19245 6.98618 7.16517 7.0205 7.03633Z" fill="#FFEC2D"/>
<path d="M11.2479 5.26185C11.3605 5.34756 11.4544 5.30716 11.5168 5.21945C11.6 5.10251 11.8427 4.4257 11.8427 4.4257C11.8427 4.4257 11.293 4.86278 11.2098 4.97972C11.1474 5.06743 11.1362 5.17467 11.2479 5.26185Z" fill="#FFEC2D"/>
<path d="M12.0231 9.07997C11.9386 9.19364 11.9797 9.28763 12.0677 9.34974C12.1851 9.43255 12.8625 9.67206 12.8625 9.67206C12.8625 9.67206 12.4216 9.12281 12.3042 9.04C12.2162 8.97789 12.1091 8.96734 12.0231 9.07997Z" fill="#FFEC2D"/>
<path d="M8.20795 9.85535C8.09528 9.76964 8.00142 9.81004 7.93903 9.89775C7.85583 10.0147 7.61311 10.6915 7.61311 10.6915C7.61311 10.6915 8.16282 10.2544 8.24601 10.1375C8.30841 10.0498 8.31959 9.94253 8.20795 9.85535Z" fill="#FFEC2D"/>
<path d="M7.43273 6.03723C7.51726 5.92356 7.47613 5.82956 7.38808 5.76746C7.27069 5.68465 6.59334 5.44513 6.59334 5.44513C6.59334 5.44513 7.0342 5.99439 7.1516 6.0772C7.23964 6.1393 7.34673 6.14986 7.43273 6.03723Z" fill="#FFEC2D"/>
<path d="M12.0068 6.01967C12.0804 6.14716 12.1842 6.14747 12.2763 6.09004C12.3991 6.01346 12.8848 5.47217 12.8848 5.47217C12.8848 5.47217 12.2008 5.66025 12.078 5.73682C11.9859 5.79425 11.9347 5.89123 12.0068 6.01967Z" fill="#FFEC2D"/>
<path d="M11.2679 9.83858C11.1395 9.91293 11.1386 10.0168 11.1957 10.1087C11.272 10.2312 11.8128 10.7146 11.8128 10.7146C11.8128 10.7146 11.6278 10.031 11.5516 9.90845C11.4944 9.81655 11.3973 9.76575 11.2679 9.83858Z" fill="#FFEC2D"/>
<path d="M7.4488 9.09752C7.37517 8.97004 7.27138 8.96973 7.17928 9.02716C7.05648 9.10373 6.57078 9.64503 6.57078 9.64503C6.57078 9.64503 7.25476 9.45695 7.37756 9.38038C7.46966 9.32295 7.5209 9.22597 7.4488 9.09752Z" fill="#FFEC2D"/>
<path d="M8.18765 5.27863C8.31609 5.20427 8.31698 5.10039 8.25982 5.0085C8.18362 4.88597 7.64276 4.40259 7.64276 4.40259C7.64276 4.40259 7.82779 5.08623 7.904 5.20876C7.96116 5.30065 8.05826 5.35145 8.18765 5.27863Z" fill="#FFEC2D"/>
<path d="M12.4107 6.99889C12.4282 7.15817 12.5253 7.20491 12.6348 7.1892C12.7808 7.16827 13.4546 6.84918 13.4546 6.84918C13.4546 6.84918 12.7378 6.72953 12.5918 6.75047C12.4823 6.76617 12.3951 6.83935 12.4107 6.99889Z" fill="#FFEC2D"/>
<path d="M10.2948 10.2463C10.1301 10.2673 10.0801 10.3649 10.0942 10.4733C10.1131 10.618 10.4298 11.2805 10.4298 11.2805C10.4298 11.2805 10.5666 10.5653 10.5477 10.4206C10.5335 10.3121 10.4597 10.2271 10.2948 10.2463Z" fill="#FFEC2D"/>
<path d="M7.04485 8.11831C7.02738 7.95903 6.93027 7.91229 6.82077 7.92799C6.67477 7.94893 6.00095 8.26801 6.00095 8.26801C6.00095 8.26801 6.71778 8.38766 6.86378 8.36672C6.97328 8.35102 7.06049 8.27784 7.04485 8.11831Z" fill="#FFEC2D"/>
<path d="M9.16078 4.87091C9.32544 4.84993 9.37548 4.75234 9.36132 4.64386C9.34244 4.49922 9.0258 3.83673 9.0258 3.83673C9.0258 3.83673 8.88898 4.55194 8.90786 4.69658C8.92202 4.80506 8.99589 4.89008 9.16078 4.87091Z" fill="#FFEC2D"/>
<path d="M9.64371 11.79C9.58071 11.9034 9.54291 12.0348 9.46371 12.1374C9.21891 11.916 8.86611 11.9214 8.55651 11.9088C8.30091 11.8944 8.0237 11.871 7.8257 11.6892C7.6187 11.5182 7.44771 11.2986 7.21731 11.16C7.00078 11.1134 6.7973 11.0193 6.62151 10.8846C6.25791 10.5876 6.0491 10.1466 5.6927 9.8406C5.6261 9.7758 5.54511 9.7236 5.46951 9.6678C5.39751 9.6858 5.4299 9.8406 5.3417 9.7614C5.2931 9.7254 5.1725 9.7236 5.1617 9.7722C5.2697 9.9162 5.3795 10.0782 5.3957 10.2618C5.3201 10.269 5.1887 10.2456 5.1527 10.2726C5.25162 10.421 5.37593 10.5508 5.51991 10.656C5.45151 10.6668 5.31651 10.6614 5.28951 10.6884C5.42427 10.8174 5.59065 10.9087 5.77191 10.953C5.80791 11.0034 5.71611 11.1006 5.79531 11.1438C5.84031 11.1618 5.9915 11.1942 5.8871 11.2464C5.8151 11.2932 5.84211 11.4066 5.93391 11.403C5.99151 11.4336 6.12111 11.439 6.13191 11.493C6.07971 11.5434 5.92131 11.6046 6.05631 11.655C6.18358 11.7271 6.32598 11.7684 6.4721 11.7756C6.4001 11.8368 6.31011 11.871 6.23631 11.9286C6.56931 12.1248 6.93831 12.2526 7.30551 12.3786C7.44951 12.4254 7.5989 12.4704 7.7501 12.4992C7.3109 12.474 6.88611 12.3444 6.48651 12.1662C6.27951 12.0762 6.0725 11.988 5.8601 11.9106C5.9519 11.862 6.0599 11.8494 6.1571 11.808C5.9555 11.7684 5.7377 11.754 5.5631 11.646C5.5883 11.5956 5.6891 11.5938 5.7467 11.5686C5.8547 11.5434 5.9195 11.5146 5.7701 11.5038C5.6189 11.4624 5.4461 11.4804 5.3111 11.3904C5.3201 11.3364 5.46051 11.3544 5.51631 11.331C5.58831 11.3184 5.6675 11.3076 5.7251 11.259C5.4911 11.1636 5.18511 11.232 5.00151 11.025C4.96011 10.9458 5.13291 11.0088 5.18151 10.9962C5.30751 10.9962 5.4425 11.0358 5.5631 10.9854C5.2211 10.836 4.85571 10.6974 4.59651 10.4202C4.56771 10.3752 4.48131 10.2528 4.55151 10.2384C4.75311 10.2654 4.8989 10.485 5.1167 10.4508C5.1455 10.413 4.9907 10.35 4.9511 10.2942C4.62549 10.0326 4.34146 9.72305 4.10871 9.3762C4.09431 9.2556 4.27971 9.2376 4.32831 9.3294C4.56951 9.5634 4.78731 9.8334 5.08791 9.9918C5.19591 10.044 5.0267 9.9306 5.0051 9.8892C4.71921 9.57226 4.47207 9.22239 4.26891 8.847C4.23291 8.7786 4.17711 8.6544 4.28151 8.6184C4.38411 8.5662 4.48851 8.6364 4.54071 8.7264C4.74411 8.9838 4.8953 9.2898 5.1491 9.504C4.9331 9.0846 4.70091 8.64 4.69551 8.1576C4.70091 8.064 4.7063 7.9236 4.8341 7.9254C4.9421 7.9092 4.9241 8.046 4.9601 8.1108C5.0645 8.4672 5.1095 8.8524 5.3201 9.1656C5.2751 8.9028 5.2049 8.631 5.2517 8.3628C5.2625 8.2728 5.35971 8.2476 5.42631 8.3016C5.47851 8.4276 5.4893 8.5878 5.5361 8.7246C5.81664 9.65639 6.4073 10.4643 7.2101 11.0142C7.86745 11.464 8.63447 11.7271 9.42951 11.7756C9.50151 11.7828 9.57351 11.7846 9.64371 11.7882M12.0989 13.428C11.9693 13.5072 11.8685 13.3668 11.7605 13.3254C11.6813 13.3686 11.6741 13.509 11.6021 13.5774C11.5157 13.6764 11.4077 13.5486 11.4167 13.4514C11.3123 13.5396 11.2601 13.7394 11.0927 13.7106C11.0117 13.6458 10.9523 13.509 10.8911 13.6656C10.8425 13.7412 10.7111 13.8492 10.6409 13.734C10.6193 13.6332 10.5689 13.5144 10.5149 13.6746C10.4753 13.7898 10.3529 13.8726 10.2377 13.8222C10.1729 13.77 10.2881 13.5756 10.2071 13.5882C10.0847 13.671 10.0127 13.8708 9.84171 13.8546C9.77511 13.7826 9.8831 13.6548 9.8093 13.572C9.7247 13.6818 9.6293 13.8438 9.4799 13.8546C9.4079 13.797 9.48351 13.6296 9.43671 13.6062C9.28551 13.6962 9.12351 13.86 8.93271 13.8096C9.00651 13.5216 9.31971 13.4226 9.58071 13.401C10.0325 13.3452 10.5077 13.4478 10.9433 13.284C11.0135 13.2408 11.1827 13.1814 11.1233 13.0824C11.0693 13.0032 11.2619 13.0338 11.2799 12.942C11.2691 12.8268 11.3699 12.843 11.4671 12.834C11.9063 12.8142 12.3401 12.906 12.7775 12.9222C12.8099 13.1346 12.5741 13.284 12.3815 13.2192C12.2915 13.2336 12.1565 13.0104 12.1835 13.1724C12.1655 13.2588 12.1763 13.3704 12.0989 13.428ZM8.3657 12.9924C8.4665 13.0842 8.53851 12.9744 8.63391 12.933C8.94544 12.811 9.23814 12.6456 9.50331 12.4416C9.6689 12.3048 9.8129 12.1266 10.0361 12.0816C10.4717 11.9502 10.9343 11.9664 11.3699 11.844C11.7029 11.3904 12.2663 11.2266 12.7397 10.9656C12.8459 10.9332 12.8873 10.845 12.9197 10.7496C13.0997 10.4634 13.3463 10.2114 13.6379 10.0386C13.7755 9.95732 13.9377 9.92795 14.0951 9.9558C14.0734 10.1394 13.9858 10.3089 13.8485 10.4328C13.9547 10.431 14.0465 10.3644 14.1509 10.368C14.1869 10.5588 13.9817 10.6578 13.8719 10.7766C13.9331 10.791 14.1671 10.809 14.0393 10.8702C13.8773 10.9818 13.6919 11.0592 13.5425 11.1906C13.6811 11.2158 13.6973 11.2446 13.5569 11.295C13.4795 11.3454 13.3337 11.3634 13.3193 11.4642C13.4237 11.529 13.2725 11.5902 13.2131 11.6118C13.1015 11.6388 12.9827 11.6874 13.1321 11.7738C13.0763 11.8584 12.9539 11.8764 12.8549 11.8674C12.8855 11.9646 12.9287 12.0726 12.8045 12.1158C12.5259 12.336 12.1922 12.4755 11.8397 12.519C12.2807 12.5514 12.7361 12.4704 13.1123 12.231C13.1627 12.1716 13.4237 12.1068 13.2779 12.0582C13.2095 12.0294 13.0619 11.997 13.0511 11.9448C13.2563 11.8188 13.5137 11.8638 13.7333 11.79C13.7387 11.718 13.5659 11.7378 13.5011 11.7216C13.3481 11.709 13.3571 11.6694 13.5047 11.655C13.6919 11.6046 13.9043 11.5956 14.0627 11.475C13.9349 11.4138 13.7729 11.466 13.6361 11.4174C13.8683 11.3166 14.1419 11.3058 14.3507 11.1528C14.4461 11.0466 14.2283 11.0808 14.1653 11.0826C14.0375 11.106 13.9781 11.043 14.1239 10.9908C14.3741 10.8054 14.6891 10.6866 14.8655 10.4202C14.9069 10.3608 14.9627 10.1808 14.8295 10.2438C14.6567 10.3032 14.5037 10.4976 14.3039 10.4382C14.6963 10.134 15.0671 9.7902 15.3353 9.3708C15.3497 9.2484 15.1589 9.2358 15.1103 9.3312C14.8583 9.5724 14.6315 9.8586 14.3093 10.0116C14.613 9.70794 14.8767 9.36679 15.0941 8.9964C15.1427 8.8884 15.2705 8.757 15.2021 8.6364C15.0887 8.5428 14.9483 8.6292 14.8907 8.739C14.6945 8.9946 14.5469 9.2916 14.2967 9.5004C14.5145 9.081 14.7431 8.6328 14.7467 8.1504C14.7467 8.0496 14.7287 7.902 14.5919 7.9218C14.4839 7.9398 14.5109 8.1018 14.4659 8.1828C14.3687 8.514 14.3219 8.8722 14.1239 9.1602C14.1689 8.892 14.2463 8.6112 14.1869 8.3412C14.1581 8.2188 13.9619 8.271 13.9889 8.3916C13.7549 9.5778 12.9575 10.6146 11.9189 11.214C11.4419 11.484 10.9109 11.6568 10.3673 11.736C10.2233 11.7666 10.0649 11.7486 9.9263 11.799C9.58791 12.0564 9.3845 12.4902 8.9579 12.6252C8.7653 12.7206 8.5169 12.7404 8.3801 12.9168C8.36902 12.9404 8.36406 12.9664 8.3657 12.9924ZM9.29631 12.807C9.23151 12.8106 9.16851 12.8178 9.10551 12.8376C9.02091 12.8502 8.9399 12.879 8.8571 12.8916L8.8229 12.8988L8.7671 12.9042C8.77436 12.9344 8.77436 12.9658 8.7671 12.996C8.76126 13.0096 8.75268 13.0219 8.7419 13.032C8.7311 13.0464 8.71851 13.0572 8.70231 13.0644C8.68767 13.0716 8.67177 13.0759 8.65551 13.077C8.63931 13.077 8.62311 13.077 8.60691 13.0698C8.59071 13.0644 8.57631 13.0554 8.56191 13.0428L8.51151 13.0518H8.4647L8.41431 13.0338C8.39803 13.0274 8.38237 13.0196 8.36751 13.0104C8.30631 13.0464 8.2379 13.0806 8.2001 13.1436C8.18253 13.1724 8.17261 13.2053 8.17131 13.239C8.16771 13.2822 8.17851 13.3254 8.19651 13.365C8.20371 13.3758 8.20911 13.3236 8.22891 13.3164C8.26311 13.2876 8.30631 13.2678 8.34951 13.257C8.38551 13.239 8.3801 13.257 8.3657 13.2858C8.3621 13.302 8.34231 13.3578 8.36931 13.329C8.49377 13.2825 8.62525 13.2575 8.7581 13.2552C8.9489 13.2354 9.13971 13.23 9.33051 13.2282L9.87051 13.239C9.95691 13.2426 10.0433 13.2606 10.1279 13.2462C10.1477 13.2408 10.1801 13.2408 10.1927 13.2282C10.1531 13.2066 10.1081 13.2048 10.0667 13.1994H9.7229C9.6275 13.1904 9.52851 13.1886 9.43851 13.1526C9.41331 13.1436 9.39171 13.1202 9.36831 13.1454C9.33403 13.1576 9.29835 13.1655 9.2621 13.1688C9.1991 13.1724 9.13611 13.1598 9.07851 13.1364C9.11991 13.0788 9.1703 13.0284 9.2171 12.9744L9.10551 12.951C9.17211 12.906 9.23151 12.8538 9.29631 12.807Z" fill="#FFEC2D"/>
<path d="M8.63939 13.0194C8.66325 13.0194 8.68259 13.0001 8.68259 12.9762C8.68259 12.9523 8.66325 12.933 8.63939 12.933C8.61553 12.933 8.59619 12.9523 8.59619 12.9762C8.59619 13.0001 8.61553 13.0194 8.63939 13.0194Z" fill="#FFEC2D"/>
<path d="M8.63568 12.987C8.64562 12.987 8.65368 12.9789 8.65368 12.969C8.65368 12.9591 8.64562 12.951 8.63568 12.951C8.62573 12.951 8.61768 12.9591 8.61768 12.969C8.61768 12.9789 8.62573 12.987 8.63568 12.987Z" fill="#FFEC2D" stroke="#FFEC2D" stroke-width="0.0128"/>
<path d="M2.16017 1.314C2.16017 1.314 1.98737 1.1664 1.92797 1.2402C1.83437 1.3572 2.21957 1.9422 2.21957 2.1474C2.21957 2.4858 1.99277 2.5776 1.71557 2.6244C1.52837 2.6568 1.22417 2.6118 1.22417 2.6118C1.28177 2.5344 1.31957 2.511 1.41497 2.5056C1.30697 2.4516 1.19897 2.3292 1.19897 2.1402C1.19897 1.8504 1.31777 1.7298 1.31777 1.4022C1.31777 1.224 1.17017 0.990002 1.17017 0.990002C1.43297 1.017 1.56257 1.26 1.48877 1.4544C1.50902 1.45843 1.52996 1.45742 1.54974 1.45146C1.56951 1.44549 1.58752 1.43476 1.60217 1.4202C1.62017 1.4742 1.59137 1.5372 1.54997 1.5912C1.58237 1.6092 1.60757 1.5984 1.65797 1.5876C1.65437 1.6416 1.62197 1.7028 1.53917 1.7586C1.77677 1.6974 1.92077 1.8612 1.92077 2.034C1.92077 2.1654 1.83077 2.259 1.74077 2.259C1.71197 2.259 1.66877 2.2464 1.64537 2.2284C1.62737 2.2644 1.63817 2.313 1.65437 2.349C1.58957 2.331 1.54637 2.2914 1.57697 2.2104C1.52657 2.2068 1.48697 2.1888 1.45997 2.1564C1.48697 2.1204 1.52837 2.1024 1.57697 2.1024C1.54097 2.0268 1.58237 1.9854 1.64177 1.9512C1.64177 1.9512 1.60397 2.1024 1.69937 2.1024C1.74257 2.1024 1.78217 2.0898 1.78217 2.025C1.78217 1.9692 1.73357 1.8918 1.62017 1.8972C1.50857 1.9026 1.41677 1.9746 1.41677 2.1546C1.41677 2.3202 1.55177 2.403 1.72817 2.4066C1.88657 2.4138 2.00717 2.3274 2.00717 2.1636C2.00717 1.944 1.69217 1.4472 1.69217 1.2528C1.69217 1.107 1.82177 1.0242 1.95137 1.0242C2.11697 1.0242 2.25737 1.1898 2.25737 1.1898L2.16017 1.3122V1.314Z" fill="#FFEC2D"/>
<path d="M2.19608 5.2578C2.19608 5.6232 1.86848 5.8104 1.61108 5.8104C1.26548 5.8104 1.08008 5.6034 1.08008 5.3316C1.08008 5.1786 1.10888 5.0814 1.17908 4.9356L1.97468 3.285C2.0035 3.21557 2.01582 3.1404 2.01068 3.0654C2.01068 2.9178 1.86668 2.7972 1.71728 2.7954C1.58048 2.79 1.42928 2.9214 1.42928 3.0708C1.42928 3.2526 1.52468 3.3336 1.62188 3.3336C1.74068 3.3336 1.78748 3.285 1.78748 3.2004C1.78748 3.1428 1.76048 3.1176 1.71908 3.1176C1.61648 3.1176 1.64708 3.2544 1.64708 3.2544C1.63353 3.2519 1.6207 3.24643 1.60951 3.2384C1.59832 3.23036 1.58904 3.21995 1.58233 3.20792C1.57563 3.19588 1.57166 3.18251 1.57072 3.16877C1.56978 3.15502 1.57188 3.14124 1.57688 3.1284C1.53835 3.11976 1.50363 3.09893 1.47788 3.069C1.50488 3.042 1.53728 3.0222 1.57688 3.015C1.55348 2.9358 1.58588 2.898 1.65428 2.88C1.64197 2.90706 1.63881 2.93739 1.64528 2.9664C1.75328 2.934 1.92068 2.9844 1.92068 3.1716C1.92068 3.3588 1.79108 3.5154 1.54808 3.4776C1.60568 3.5046 1.63448 3.5604 1.64168 3.6234C1.59668 3.6054 1.54808 3.6054 1.54808 3.6054C1.57688 3.654 1.61648 3.6954 1.61468 3.7962C1.56968 3.7746 1.52648 3.7368 1.47068 3.7602C1.56068 3.9402 1.44908 4.185 1.16468 4.2426C1.26908 4.1202 1.31948 3.9906 1.31948 3.8592C1.31948 3.4362 1.20248 3.366 1.20248 3.0708C1.20433 3.00234 1.22243 2.9353 1.2553 2.87521C1.28816 2.81512 1.33484 2.7637 1.39148 2.7252V2.7306C1.35665 2.72345 1.32372 2.709 1.29487 2.68822C1.26602 2.66743 1.24189 2.64078 1.22408 2.61C1.4246 2.55474 1.63657 2.55661 1.83608 2.6154C1.90281 2.62484 1.96657 2.64916 2.02265 2.68654C2.07873 2.72393 2.1257 2.77343 2.16008 2.8314C2.19602 2.91341 2.21457 3.00197 2.21457 3.0915C2.21457 3.18104 2.19602 3.2696 2.16008 3.3516C2.04668 3.5856 1.51748 4.7124 1.35188 5.0652C1.31588 5.1408 1.29608 5.22 1.29608 5.3064C1.29608 5.5224 1.49408 5.598 1.60568 5.598C1.74068 5.598 1.87928 5.4954 1.87928 5.3676C1.87928 5.2866 1.83428 5.2362 1.77128 5.2362C1.61828 5.2362 1.62728 5.3658 1.65788 5.4486C1.56248 5.4054 1.50848 5.3298 1.52288 5.2506C1.46381 5.24068 1.41021 5.21005 1.37168 5.1642C1.40768 5.1174 1.45448 5.0814 1.52288 5.0796C1.49228 4.9554 1.57688 4.9032 1.65788 4.8744C1.63268 4.9644 1.61468 5.0706 1.77128 5.0706C1.88468 5.0706 1.97288 5.0886 2.02508 5.1642L2.03768 4.6782C2.04488 4.5324 1.84328 4.5342 1.71368 4.5792C1.76228 4.4118 1.86128 4.32 2.09168 4.3434C2.05638 4.32983 2.02625 4.30548 2.00557 4.27382C1.98489 4.24215 1.97471 4.20478 1.97648 4.167C1.97648 4.0302 2.08808 3.879 2.16008 3.834L2.19608 5.256V5.2578Z" fill="#FFEC2D"/>
<path d="M2.19608 6.3522C2.19608 5.9868 1.86848 5.7996 1.61108 5.7996C1.26548 5.7996 1.08008 6.0066 1.08008 6.2784C1.08008 6.4314 1.10888 6.5286 1.17908 6.6744L1.97468 8.325C2.0035 8.39443 2.01582 8.4696 2.01068 8.5446C2.01068 8.6922 1.86668 8.8128 1.71728 8.8146C1.58048 8.82 1.42928 8.6886 1.42928 8.5392C1.42928 8.3574 1.52468 8.2764 1.62188 8.2764C1.74068 8.2764 1.78748 8.325 1.78748 8.4096C1.78748 8.4672 1.76048 8.4924 1.71908 8.4924C1.61648 8.4924 1.64708 8.3556 1.64708 8.3556C1.63353 8.3581 1.6207 8.36357 1.60951 8.37161C1.59832 8.37964 1.58904 8.39005 1.58233 8.40208C1.57563 8.41412 1.57166 8.42749 1.57072 8.44123C1.56978 8.45498 1.57188 8.46876 1.57688 8.4816C1.53835 8.49024 1.50363 8.51107 1.47788 8.541C1.50488 8.568 1.53728 8.5878 1.57688 8.595C1.55348 8.6742 1.58588 8.712 1.65428 8.73C1.64197 8.70294 1.63881 8.67261 1.64528 8.6436C1.75328 8.676 1.92068 8.6256 1.92068 8.4384C1.92068 8.2512 1.79108 8.0946 1.54808 8.1324C1.60568 8.1054 1.63448 8.0496 1.64168 7.9866C1.59668 8.0046 1.54808 8.0046 1.54808 8.0046C1.57688 7.956 1.61648 7.9146 1.61468 7.8138C1.56968 7.8354 1.52648 7.8732 1.47068 7.8498C1.56068 7.6698 1.44908 7.425 1.16468 7.3674C1.26908 7.4898 1.31948 7.6194 1.31948 7.7508C1.31948 8.1738 1.20248 8.244 1.20248 8.5392C1.20433 8.60766 1.22243 8.6747 1.2553 8.73479C1.28816 8.79488 1.33484 8.8463 1.39148 8.8848V8.8794C1.35665 8.88655 1.32372 8.901 1.29487 8.92178C1.26602 8.94257 1.24189 8.96922 1.22408 9C1.4246 9.05526 1.63657 9.05339 1.83608 8.9946C1.90281 8.98516 1.96657 8.96085 2.02265 8.92346C2.07873 8.88607 2.1257 8.83657 2.16008 8.7786C2.19602 8.69659 2.21457 8.60803 2.21457 8.5185C2.21457 8.42897 2.19602 8.3404 2.16008 8.2584C2.04668 8.0244 1.51748 6.8976 1.35188 6.5448C1.31588 6.4692 1.29608 6.39 1.29608 6.3036C1.29608 6.0876 1.49408 6.012 1.60568 6.012C1.74068 6.012 1.87928 6.1146 1.87928 6.2424C1.87928 6.3234 1.83428 6.3738 1.77128 6.3738C1.61828 6.3738 1.62728 6.2442 1.65788 6.1614C1.56248 6.2046 1.50848 6.2802 1.52288 6.3594C1.46381 6.36932 1.41021 6.39995 1.37168 6.4458C1.40768 6.4926 1.45448 6.5286 1.52288 6.5304C1.49228 6.6546 1.57688 6.7068 1.65788 6.7356C1.63268 6.6456 1.61468 6.5394 1.77128 6.5394C1.88468 6.5394 1.97288 6.5214 2.02508 6.4458L2.03768 6.9318C2.04488 7.0776 1.84328 7.0758 1.71368 7.0308C1.76228 7.1982 1.86128 7.29 2.09168 7.2666C2.05638 7.28017 2.02625 7.30452 2.00557 7.33618C1.98489 7.36785 1.97471 7.40522 1.97648 7.443C1.97648 7.5798 2.08808 7.731 2.16008 7.776L2.19608 6.354V6.3522Z" fill="#FFEC2D"/>
<path d="M2.1599 1.314C2.1599 1.314 2.3327 1.1664 2.3921 1.2402C2.4857 1.3572 2.1005 1.9422 2.1005 2.1474C2.1005 2.4858 2.3273 2.5776 2.6045 2.6244C2.7917 2.6568 3.0959 2.6118 3.0959 2.6118C3.0383 2.5344 3.0005 2.511 2.9051 2.5056C3.0131 2.4516 3.1211 2.3292 3.1211 2.1402C3.1211 1.8504 3.0023 1.7298 3.0023 1.4022C3.0023 1.224 3.1499 0.990002 3.1499 0.990002C2.8871 1.017 2.7575 1.26 2.8313 1.4544C2.81105 1.45843 2.79011 1.45742 2.77033 1.45146C2.75056 1.44549 2.73255 1.43476 2.7179 1.4202C2.6999 1.4742 2.7287 1.5372 2.7701 1.5912C2.7377 1.6092 2.7125 1.5984 2.6621 1.5876C2.6657 1.6416 2.6981 1.7028 2.7809 1.7586C2.5433 1.6974 2.3993 1.8612 2.3993 2.034C2.3993 2.1654 2.4893 2.259 2.5793 2.259C2.6081 2.259 2.6513 2.2464 2.6747 2.2284C2.6927 2.2644 2.6819 2.313 2.6657 2.349C2.7305 2.331 2.7737 2.2914 2.7431 2.2104C2.7935 2.2068 2.8331 2.1888 2.8601 2.1564C2.8331 2.1204 2.7917 2.1024 2.7431 2.1024C2.7791 2.0268 2.7377 1.9854 2.6783 1.9512C2.6783 1.9512 2.7161 2.1024 2.6207 2.1024C2.5775 2.1024 2.5379 2.0898 2.5379 2.025C2.5379 1.9692 2.5865 1.8918 2.6999 1.8972C2.8115 1.9026 2.9033 1.9746 2.9033 2.1546C2.9033 2.3202 2.7683 2.403 2.5919 2.4066C2.4335 2.4138 2.3129 2.3274 2.3129 2.1636C2.3129 1.944 2.6279 1.4472 2.6279 1.2528C2.6279 1.107 2.4983 1.0242 2.3687 1.0242C2.2031 1.0242 2.0627 1.1898 2.0627 1.1898L2.1599 1.3122V1.314Z" fill="#FFEC2D"/>
<path d="M2.12399 5.2578C2.12399 5.6232 2.45159 5.8104 2.70899 5.8104C3.05459 5.8104 3.23999 5.6034 3.23999 5.3316C3.23999 5.1786 3.21119 5.0814 3.14099 4.9356L2.34539 3.285C2.31657 3.21557 2.30424 3.1404 2.30939 3.0654C2.30939 2.9178 2.45339 2.7972 2.60279 2.7954C2.73959 2.79 2.89079 2.9214 2.89079 3.0708C2.89079 3.2526 2.79539 3.3336 2.69819 3.3336C2.57939 3.3336 2.53259 3.285 2.53259 3.2004C2.53259 3.1428 2.55959 3.1176 2.60099 3.1176C2.70359 3.1176 2.67299 3.2544 2.67299 3.2544C2.68654 3.2519 2.69937 3.24643 2.71056 3.2384C2.72175 3.23036 2.73103 3.21995 2.73773 3.20792C2.74444 3.19588 2.74841 3.18251 2.74935 3.16877C2.75029 3.15502 2.74819 3.14124 2.74319 3.1284C2.78172 3.11976 2.81644 3.09893 2.84219 3.069C2.81519 3.042 2.78279 3.0222 2.74319 3.015C2.76659 2.9358 2.73419 2.898 2.66579 2.88C2.6781 2.90706 2.68126 2.93739 2.67479 2.9664C2.56679 2.934 2.39939 2.9844 2.39939 3.1716C2.39939 3.3588 2.52899 3.5154 2.77199 3.4776C2.71439 3.5046 2.68559 3.5604 2.67839 3.6234C2.72339 3.6054 2.77199 3.6054 2.77199 3.6054C2.74319 3.654 2.70359 3.6954 2.70539 3.7962C2.75039 3.7746 2.79359 3.7368 2.84939 3.7602C2.75939 3.9402 2.87099 4.185 3.15539 4.2426C3.05099 4.1202 3.00059 3.9906 3.00059 3.8592C3.00059 3.4362 3.11759 3.366 3.11759 3.0708C3.11574 3.00234 3.09763 2.9353 3.06477 2.87521C3.03191 2.81512 2.98523 2.7637 2.92859 2.7252V2.7306C2.96342 2.72345 2.99635 2.709 3.0252 2.68822C3.05405 2.66743 3.07818 2.64078 3.09599 2.61C2.89547 2.55474 2.6835 2.55661 2.48399 2.6154C2.41726 2.62484 2.3535 2.64916 2.29742 2.68654C2.24134 2.72393 2.19437 2.77343 2.15999 2.8314C2.12405 2.91341 2.1055 3.00197 2.1055 3.0915C2.1055 3.18104 2.12405 3.2696 2.15999 3.3516C2.27339 3.5856 2.80259 4.7124 2.96819 5.0652C3.00419 5.1408 3.02399 5.22 3.02399 5.3064C3.02399 5.5224 2.82599 5.598 2.71439 5.598C2.57939 5.598 2.44079 5.4954 2.44079 5.3676C2.44079 5.2866 2.48579 5.2362 2.54879 5.2362C2.70179 5.2362 2.69279 5.3658 2.66219 5.4486C2.75759 5.4054 2.81159 5.3298 2.79719 5.2506C2.85626 5.24068 2.90986 5.21005 2.94839 5.1642C2.91239 5.1174 2.86559 5.0814 2.79719 5.0796C2.82779 4.9554 2.74319 4.9032 2.66219 4.8744C2.68739 4.9644 2.70539 5.0706 2.54879 5.0706C2.43539 5.0706 2.34719 5.0886 2.29499 5.1642L2.28239 4.6782C2.27519 4.5324 2.47679 4.5342 2.60639 4.5792C2.55779 4.4118 2.45879 4.32 2.22839 4.3434C2.26369 4.32983 2.29382 4.30548 2.31449 4.27382C2.33517 4.24215 2.34535 4.20478 2.34359 4.167C2.34359 4.0302 2.23199 3.879 2.15999 3.834L2.12399 5.256V5.2578Z" fill="#FFEC2D"/>
<path d="M2.12399 6.3522C2.12399 5.9868 2.45159 5.7996 2.70899 5.7996C3.05459 5.7996 3.23999 6.0066 3.23999 6.2784C3.23999 6.4314 3.21119 6.5286 3.14099 6.6744L2.34539 8.325C2.31657 8.39443 2.30424 8.4696 2.30939 8.5446C2.30939 8.6922 2.45339 8.8128 2.60279 8.8146C2.73959 8.82 2.89079 8.6886 2.89079 8.5392C2.89079 8.3574 2.79539 8.2764 2.69819 8.2764C2.57939 8.2764 2.53259 8.325 2.53259 8.4096C2.53259 8.4672 2.55959 8.4924 2.60099 8.4924C2.70359 8.4924 2.67299 8.3556 2.67299 8.3556C2.68654 8.3581 2.69937 8.36357 2.71056 8.37161C2.72175 8.37964 2.73103 8.39005 2.73773 8.40208C2.74444 8.41412 2.74841 8.42749 2.74935 8.44123C2.75029 8.45498 2.74819 8.46876 2.74319 8.4816C2.78172 8.49024 2.81644 8.51107 2.84219 8.541C2.81519 8.568 2.78279 8.5878 2.74319 8.595C2.76659 8.6742 2.73419 8.712 2.66579 8.73C2.6781 8.70294 2.68126 8.67261 2.67479 8.6436C2.56679 8.676 2.39939 8.6256 2.39939 8.4384C2.39939 8.2512 2.52899 8.0946 2.77199 8.1324C2.71439 8.1054 2.68559 8.0496 2.67839 7.9866C2.72339 8.0046 2.77199 8.0046 2.77199 8.0046C2.74319 7.956 2.70359 7.9146 2.70539 7.8138C2.75039 7.8354 2.79359 7.8732 2.84939 7.8498C2.75939 7.6698 2.87099 7.425 3.15539 7.3674C3.05099 7.4898 3.00059 7.6194 3.00059 7.7508C3.00059 8.1738 3.11759 8.244 3.11759 8.5392C3.11574 8.60766 3.09763 8.6747 3.06477 8.73479C3.03191 8.79488 2.98523 8.8463 2.92859 8.8848V8.8794C2.96342 8.88655 2.99635 8.901 3.0252 8.92178C3.05405 8.94257 3.07818 8.96922 3.09599 9C2.89547 9.05526 2.6835 9.05339 2.48399 8.9946C2.41726 8.98516 2.3535 8.96085 2.29742 8.92346C2.24134 8.88607 2.19437 8.83657 2.15999 8.7786C2.12405 8.69659 2.1055 8.60803 2.1055 8.5185C2.1055 8.42897 2.12405 8.3404 2.15999 8.2584C2.27339 8.0244 2.80259 6.8976 2.96819 6.5448C3.00419 6.4692 3.02399 6.39 3.02399 6.3036C3.02399 6.0876 2.82599 6.012 2.71439 6.012C2.57939 6.012 2.44079 6.1146 2.44079 6.2424C2.44079 6.3234 2.48579 6.3738 2.54879 6.3738C2.70179 6.3738 2.69279 6.2442 2.66219 6.1614C2.75759 6.2046 2.81159 6.2802 2.79719 6.3594C2.85626 6.36932 2.90986 6.39995 2.94839 6.4458C2.91239 6.4926 2.86559 6.5286 2.79719 6.5304C2.82779 6.6546 2.74319 6.7068 2.66219 6.7356C2.68739 6.6456 2.70539 6.5394 2.54879 6.5394C2.43539 6.5394 2.34719 6.5214 2.29499 6.4458L2.28239 6.9318C2.27519 7.0776 2.47679 7.0758 2.60639 7.0308C2.55779 7.1982 2.45879 7.29 2.22839 7.2666C2.26369 7.28017 2.29382 7.30452 2.31449 7.33618C2.33517 7.36785 2.34535 7.40522 2.34359 7.443C2.34359 7.5798 2.23199 7.731 2.15999 7.776L2.12399 6.354V6.3522Z" fill="#FFEC2D"/>
<path d="M2.16017 16.686C2.16017 16.686 1.98737 16.8336 1.92797 16.7598C1.83437 16.6428 2.21957 16.0578 2.21957 15.8526C2.21957 15.5142 1.99277 15.4224 1.71557 15.3756C1.52837 15.3432 1.22417 15.3882 1.22417 15.3882C1.28177 15.4656 1.31957 15.489 1.41497 15.4944C1.30697 15.5484 1.19897 15.6708 1.19897 15.8598C1.19897 16.1496 1.31777 16.2702 1.31777 16.5978C1.31777 16.776 1.17017 17.01 1.17017 17.01C1.43297 16.983 1.56257 16.74 1.48877 16.5456C1.50902 16.5416 1.52996 16.5426 1.54974 16.5485C1.56951 16.5545 1.58752 16.5652 1.60217 16.5798C1.62017 16.5258 1.59137 16.4628 1.54997 16.4088C1.58237 16.3908 1.60757 16.4016 1.65797 16.4124C1.65437 16.3584 1.62197 16.2972 1.53917 16.2414C1.77677 16.3026 1.92077 16.1388 1.92077 15.966C1.92077 15.8346 1.83077 15.741 1.74077 15.741C1.71197 15.741 1.66877 15.7536 1.64537 15.7716C1.62737 15.7356 1.63817 15.687 1.65437 15.651C1.58957 15.669 1.54637 15.7086 1.57697 15.7896C1.52657 15.7932 1.48697 15.8112 1.45997 15.8436C1.48697 15.8796 1.52837 15.8976 1.57697 15.8976C1.54097 15.9732 1.58237 16.0146 1.64177 16.0488C1.64177 16.0488 1.60397 15.8976 1.69937 15.8976C1.74257 15.8976 1.78217 15.9102 1.78217 15.975C1.78217 16.0308 1.73357 16.1082 1.62017 16.1028C1.50857 16.0974 1.41677 16.0254 1.41677 15.8454C1.41677 15.6798 1.55177 15.597 1.72817 15.5934C1.88657 15.5862 2.00717 15.6726 2.00717 15.8364C2.00717 16.056 1.69217 16.5528 1.69217 16.7472C1.69217 16.893 1.82177 16.9758 1.95137 16.9758C2.11697 16.9758 2.25737 16.8102 2.25737 16.8102L2.16017 16.6878V16.686Z" fill="#FFEC2D"/>
<path d="M2.19608 12.7422C2.19608 12.3768 1.86848 12.1896 1.61108 12.1896C1.26548 12.1896 1.08008 12.3966 1.08008 12.6684C1.08008 12.8214 1.10888 12.9186 1.17908 13.0644L1.97468 14.715C2.0035 14.7844 2.01582 14.8596 2.01068 14.9346C2.01068 15.0822 1.86668 15.2028 1.71728 15.2046C1.58048 15.21 1.42928 15.0786 1.42928 14.9292C1.42928 14.7474 1.52468 14.6664 1.62188 14.6664C1.74068 14.6664 1.78748 14.715 1.78748 14.7996C1.78748 14.8572 1.76048 14.8824 1.71908 14.8824C1.61648 14.8824 1.64708 14.7456 1.64708 14.7456C1.63353 14.7481 1.6207 14.7536 1.60951 14.7616C1.59832 14.7696 1.58904 14.7801 1.58233 14.7921C1.57563 14.8041 1.57166 14.8175 1.57072 14.8312C1.56978 14.845 1.57188 14.8588 1.57688 14.8716C1.53835 14.8802 1.50363 14.9011 1.47788 14.931C1.50488 14.958 1.53728 14.9778 1.57688 14.985C1.55348 15.0642 1.58588 15.102 1.65428 15.12C1.64197 15.0929 1.63881 15.0626 1.64528 15.0336C1.75328 15.066 1.92068 15.0156 1.92068 14.8284C1.92068 14.6412 1.79108 14.4846 1.54808 14.5224C1.60568 14.4954 1.63448 14.4396 1.64168 14.3766C1.59668 14.3946 1.54808 14.3946 1.54808 14.3946C1.57688 14.346 1.61648 14.3046 1.61468 14.2038C1.56968 14.2254 1.52648 14.2632 1.47068 14.2398C1.56068 14.0598 1.44908 13.815 1.16468 13.7574C1.26908 13.8798 1.31948 14.0094 1.31948 14.1408C1.31948 14.5638 1.20248 14.634 1.20248 14.9292C1.20433 14.9977 1.22243 15.0647 1.2553 15.1248C1.28816 15.1849 1.33484 15.2363 1.39148 15.2748V15.2694C1.35665 15.2766 1.32372 15.291 1.29487 15.3118C1.26602 15.3326 1.24189 15.3592 1.22408 15.39C1.4246 15.4453 1.63657 15.4434 1.83608 15.3846C1.90281 15.3752 1.96657 15.3508 2.02265 15.3135C2.07873 15.2761 2.1257 15.2266 2.16008 15.1686C2.19602 15.0866 2.21457 14.998 2.21457 14.9085C2.21457 14.819 2.19602 14.7304 2.16008 14.6484C2.04668 14.4144 1.51748 13.2876 1.35188 12.9348C1.31588 12.8592 1.29608 12.78 1.29608 12.6936C1.29608 12.4776 1.49408 12.402 1.60568 12.402C1.74068 12.402 1.87928 12.5046 1.87928 12.6324C1.87928 12.7134 1.83428 12.7638 1.77128 12.7638C1.61828 12.7638 1.62728 12.6342 1.65788 12.5514C1.56248 12.5946 1.50848 12.6702 1.52288 12.7494C1.46381 12.7593 1.41021 12.7899 1.37168 12.8358C1.40768 12.8826 1.45448 12.9186 1.52288 12.9204C1.49228 13.0446 1.57688 13.0968 1.65788 13.1256C1.63268 13.0356 1.61468 12.9294 1.77128 12.9294C1.88468 12.9294 1.97288 12.9114 2.02508 12.8358L2.03768 13.3218C2.04488 13.4676 1.84328 13.4658 1.71368 13.4208C1.76228 13.5882 1.86128 13.68 2.09168 13.6566C2.05638 13.6702 2.02625 13.6945 2.00557 13.7262C1.98489 13.7579 1.97471 13.7952 1.97648 13.833C1.97648 13.9698 2.08808 14.121 2.16008 14.166L2.19608 12.744V12.7422Z" fill="#FFEC2D"/>
<path d="M2.19608 11.6478C2.19608 12.0132 1.86848 12.2004 1.61108 12.2004C1.26548 12.2004 1.08008 11.9934 1.08008 11.7216C1.08008 11.5686 1.10888 11.4714 1.17908 11.3256L1.97468 9.675C2.0035 9.60557 2.01582 9.5304 2.01068 9.4554C2.01068 9.3078 1.86668 9.1872 1.71728 9.1854C1.58048 9.18 1.42928 9.3114 1.42928 9.4608C1.42928 9.6426 1.52468 9.7236 1.62188 9.7236C1.74068 9.7236 1.78748 9.675 1.78748 9.5904C1.78748 9.5328 1.76048 9.5076 1.71908 9.5076C1.61648 9.5076 1.64708 9.6444 1.64708 9.6444C1.63353 9.6419 1.6207 9.63643 1.60951 9.62839C1.59832 9.62036 1.58904 9.60995 1.58233 9.59792C1.57563 9.58588 1.57166 9.57251 1.57072 9.55877C1.56978 9.54502 1.57188 9.53124 1.57688 9.5184C1.53835 9.50976 1.50363 9.48893 1.47788 9.459C1.50488 9.432 1.53728 9.4122 1.57688 9.405C1.55348 9.3258 1.58588 9.288 1.65428 9.27C1.64197 9.29706 1.63881 9.32739 1.64528 9.3564C1.75328 9.324 1.92068 9.3744 1.92068 9.5616C1.92068 9.7488 1.79108 9.9054 1.54808 9.8676C1.60568 9.8946 1.63448 9.9504 1.64168 10.0134C1.59668 9.9954 1.54808 9.9954 1.54808 9.9954C1.57688 10.044 1.61648 10.0854 1.61468 10.1862C1.56968 10.1646 1.52648 10.1268 1.47068 10.1502C1.56068 10.3302 1.44908 10.575 1.16468 10.6326C1.26908 10.5102 1.31948 10.3806 1.31948 10.2492C1.31948 9.8262 1.20248 9.756 1.20248 9.4608C1.20433 9.39234 1.22243 9.3253 1.2553 9.26521C1.28816 9.20512 1.33484 9.1537 1.39148 9.1152V9.1206C1.35665 9.11345 1.32372 9.099 1.29487 9.07822C1.26602 9.05743 1.24189 9.03078 1.22408 9C1.4246 8.94474 1.63657 8.94661 1.83608 9.0054C1.90281 9.01484 1.96657 9.03915 2.02265 9.07654C2.07873 9.11393 2.1257 9.16343 2.16008 9.2214C2.19602 9.30341 2.21457 9.39197 2.21457 9.4815C2.21457 9.57103 2.19602 9.6596 2.16008 9.7416C2.04668 9.9756 1.51748 11.1024 1.35188 11.4552C1.31588 11.5308 1.29608 11.61 1.29608 11.6964C1.29608 11.9124 1.49408 11.988 1.60568 11.988C1.74068 11.988 1.87928 11.8854 1.87928 11.7576C1.87928 11.6766 1.83428 11.6262 1.77128 11.6262C1.61828 11.6262 1.62728 11.7558 1.65788 11.8386C1.56248 11.7954 1.50848 11.7198 1.52288 11.6406C1.46381 11.6307 1.41021 11.6001 1.37168 11.5542C1.40768 11.5074 1.45448 11.4714 1.52288 11.4696C1.49228 11.3454 1.57688 11.2932 1.65788 11.2644C1.63268 11.3544 1.61468 11.4606 1.77128 11.4606C1.88468 11.4606 1.97288 11.4786 2.02508 11.5542L2.03768 11.0682C2.04488 10.9224 1.84328 10.9242 1.71368 10.9692C1.76228 10.8018 1.86128 10.71 2.09168 10.7334C2.05638 10.7198 2.02625 10.6955 2.00557 10.6638C1.98489 10.6322 1.97471 10.5948 1.97648 10.557C1.97648 10.4202 2.08808 10.269 2.16008 10.224L2.19608 11.646V11.6478Z" fill="#FFEC2D"/>
<path d="M2.1599 16.686C2.1599 16.686 2.3327 16.8336 2.3921 16.7598C2.4857 16.6428 2.1005 16.0578 2.1005 15.8526C2.1005 15.5142 2.3273 15.4224 2.6045 15.3756C2.7917 15.3432 3.0959 15.3882 3.0959 15.3882C3.0383 15.4656 3.0005 15.489 2.9051 15.4944C3.0131 15.5484 3.1211 15.6708 3.1211 15.8598C3.1211 16.1496 3.0023 16.2702 3.0023 16.5978C3.0023 16.776 3.1499 17.01 3.1499 17.01C2.8871 16.983 2.7575 16.74 2.8313 16.5456C2.81105 16.5416 2.79011 16.5426 2.77033 16.5485C2.75056 16.5545 2.73255 16.5652 2.7179 16.5798C2.6999 16.5258 2.7287 16.4628 2.7701 16.4088C2.7377 16.3908 2.7125 16.4016 2.6621 16.4124C2.6657 16.3584 2.6981 16.2972 2.7809 16.2414C2.5433 16.3026 2.3993 16.1388 2.3993 15.966C2.3993 15.8346 2.4893 15.741 2.5793 15.741C2.6081 15.741 2.6513 15.7536 2.6747 15.7716C2.6927 15.7356 2.6819 15.687 2.6657 15.651C2.7305 15.669 2.7737 15.7086 2.7431 15.7896C2.7935 15.7932 2.8331 15.8112 2.8601 15.8436C2.8331 15.8796 2.7917 15.8976 2.7431 15.8976C2.7791 15.9732 2.7377 16.0146 2.6783 16.0488C2.6783 16.0488 2.7161 15.8976 2.6207 15.8976C2.5775 15.8976 2.5379 15.9102 2.5379 15.975C2.5379 16.0308 2.5865 16.1082 2.6999 16.1028C2.8115 16.0974 2.9033 16.0254 2.9033 15.8454C2.9033 15.6798 2.7683 15.597 2.5919 15.5934C2.4335 15.5862 2.3129 15.6726 2.3129 15.8364C2.3129 16.056 2.6279 16.5528 2.6279 16.7472C2.6279 16.893 2.4983 16.9758 2.3687 16.9758C2.2031 16.9758 2.0627 16.8102 2.0627 16.8102L2.1599 16.6878V16.686Z" fill="#FFEC2D"/>
<path d="M2.12399 12.7422C2.12399 12.3768 2.45159 12.1896 2.70899 12.1896C3.05459 12.1896 3.23999 12.3966 3.23999 12.6684C3.23999 12.8214 3.21119 12.9186 3.14099 13.0644L2.34539 14.715C2.31657 14.7844 2.30424 14.8596 2.30939 14.9346C2.30939 15.0822 2.45339 15.2028 2.60279 15.2046C2.73959 15.21 2.89079 15.0786 2.89079 14.9292C2.89079 14.7474 2.79539 14.6664 2.69819 14.6664C2.57939 14.6664 2.53259 14.715 2.53259 14.7996C2.53259 14.8572 2.55959 14.8824 2.60099 14.8824C2.70359 14.8824 2.67299 14.7456 2.67299 14.7456C2.68654 14.7481 2.69937 14.7536 2.71056 14.7616C2.72175 14.7696 2.73103 14.7801 2.73773 14.7921C2.74444 14.8041 2.74841 14.8175 2.74935 14.8312C2.75029 14.845 2.74819 14.8588 2.74319 14.8716C2.78172 14.8802 2.81644 14.9011 2.84219 14.931C2.81519 14.958 2.78279 14.9778 2.74319 14.985C2.76659 15.0642 2.73419 15.102 2.66579 15.12C2.6781 15.0929 2.68126 15.0626 2.67479 15.0336C2.56679 15.066 2.39939 15.0156 2.39939 14.8284C2.39939 14.6412 2.52899 14.4846 2.77199 14.5224C2.71439 14.4954 2.68559 14.4396 2.67839 14.3766C2.72339 14.3946 2.77199 14.3946 2.77199 14.3946C2.74319 14.346 2.70359 14.3046 2.70539 14.2038C2.75039 14.2254 2.79359 14.2632 2.84939 14.2398C2.75939 14.0598 2.87099 13.815 3.15539 13.7574C3.05099 13.8798 3.00059 14.0094 3.00059 14.1408C3.00059 14.5638 3.11759 14.634 3.11759 14.9292C3.11574 14.9977 3.09763 15.0647 3.06477 15.1248C3.03191 15.1849 2.98523 15.2363 2.92859 15.2748V15.2694C2.96342 15.2766 2.99635 15.291 3.0252 15.3118C3.05405 15.3326 3.07818 15.3592 3.09599 15.39C2.89547 15.4453 2.6835 15.4434 2.48399 15.3846C2.41726 15.3752 2.3535 15.3508 2.29742 15.3135C2.24134 15.2761 2.19437 15.2266 2.15999 15.1686C2.12405 15.0866 2.1055 14.998 2.1055 14.9085C2.1055 14.819 2.12405 14.7304 2.15999 14.6484C2.27339 14.4144 2.80259 13.2876 2.96819 12.9348C3.00419 12.8592 3.02399 12.78 3.02399 12.6936C3.02399 12.4776 2.82599 12.402 2.71439 12.402C2.57939 12.402 2.44079 12.5046 2.44079 12.6324C2.44079 12.7134 2.48579 12.7638 2.54879 12.7638C2.70179 12.7638 2.69279 12.6342 2.66219 12.5514C2.75759 12.5946 2.81159 12.6702 2.79719 12.7494C2.85626 12.7593 2.90986 12.7899 2.94839 12.8358C2.91239 12.8826 2.86559 12.9186 2.79719 12.9204C2.82779 13.0446 2.74319 13.0968 2.66219 13.1256C2.68739 13.0356 2.70539 12.9294 2.54879 12.9294C2.43539 12.9294 2.34719 12.9114 2.29499 12.8358L2.28239 13.3218C2.27519 13.4676 2.47679 13.4658 2.60639 13.4208C2.55779 13.5882 2.45879 13.68 2.22839 13.6566C2.26369 13.6702 2.29382 13.6945 2.31449 13.7262C2.33517 13.7579 2.34535 13.7952 2.34359 13.833C2.34359 13.9698 2.23199 14.121 2.15999 14.166L2.12399 12.744V12.7422Z" fill="#FFEC2D"/>
<path d="M2.12399 11.6478C2.12399 12.0132 2.45159 12.2004 2.70899 12.2004C3.05459 12.2004 3.23999 11.9934 3.23999 11.7216C3.23999 11.5686 3.21119 11.4714 3.14099 11.3256L2.34539 9.675C2.31657 9.60557 2.30424 9.5304 2.30939 9.4554C2.30939 9.3078 2.45339 9.1872 2.60279 9.1854C2.73959 9.18 2.89079 9.3114 2.89079 9.4608C2.89079 9.6426 2.79539 9.7236 2.69819 9.7236C2.57939 9.7236 2.53259 9.675 2.53259 9.5904C2.53259 9.5328 2.55959 9.5076 2.60099 9.5076C2.70359 9.5076 2.67299 9.6444 2.67299 9.6444C2.68654 9.6419 2.69937 9.63643 2.71056 9.62839C2.72175 9.62036 2.73103 9.60995 2.73773 9.59792C2.74444 9.58588 2.74841 9.57251 2.74935 9.55877C2.75029 9.54502 2.74819 9.53124 2.74319 9.5184C2.78172 9.50976 2.81644 9.48893 2.84219 9.459C2.81519 9.432 2.78279 9.4122 2.74319 9.405C2.76659 9.3258 2.73419 9.288 2.66579 9.27C2.6781 9.29706 2.68126 9.32739 2.67479 9.3564C2.56679 9.324 2.39939 9.3744 2.39939 9.5616C2.39939 9.7488 2.52899 9.9054 2.77199 9.8676C2.71439 9.8946 2.68559 9.9504 2.67839 10.0134C2.72339 9.9954 2.77199 9.9954 2.77199 9.9954C2.74319 10.044 2.70359 10.0854 2.70539 10.1862C2.75039 10.1646 2.79359 10.1268 2.84939 10.1502C2.75939 10.3302 2.87099 10.575 3.15539 10.6326C3.05099 10.5102 3.00059 10.3806 3.00059 10.2492C3.00059 9.8262 3.11759 9.756 3.11759 9.4608C3.11574 9.39234 3.09763 9.3253 3.06477 9.26521C3.03191 9.20512 2.98523 9.1537 2.92859 9.1152V9.1206C2.96342 9.11345 2.99635 9.099 3.0252 9.07822C3.05405 9.05743 3.07818 9.03078 3.09599 9C2.89547 8.94474 2.6835 8.94661 2.48399 9.0054C2.41726 9.01484 2.3535 9.03915 2.29742 9.07654C2.24134 9.11393 2.19437 9.16343 2.15999 9.2214C2.12405 9.30341 2.1055 9.39197 2.1055 9.4815C2.1055 9.57103 2.12405 9.6596 2.15999 9.7416C2.27339 9.9756 2.80259 11.1024 2.96819 11.4552C3.00419 11.5308 3.02399 11.61 3.02399 11.6964C3.02399 11.9124 2.82599 11.988 2.71439 11.988C2.57939 11.988 2.44079 11.8854 2.44079 11.7576C2.44079 11.6766 2.48579 11.6262 2.54879 11.6262C2.70179 11.6262 2.69279 11.7558 2.66219 11.8386C2.75759 11.7954 2.81159 11.7198 2.79719 11.6406C2.85626 11.6307 2.90986 11.6001 2.94839 11.5542C2.91239 11.5074 2.86559 11.4714 2.79719 11.4696C2.82779 11.3454 2.74319 11.2932 2.66219 11.2644C2.68739 11.3544 2.70539 11.4606 2.54879 11.4606C2.43539 11.4606 2.34719 11.4786 2.29499 11.5542L2.28239 11.0682C2.27519 10.9224 2.47679 10.9242 2.60639 10.9692C2.55779 10.8018 2.45879 10.71 2.22839 10.7334C2.26369 10.7198 2.29382 10.6955 2.31449 10.6638C2.33517 10.6322 2.34535 10.5948 2.34359 10.557C2.34359 10.4202 2.23199 10.269 2.15999 10.224L2.12399 11.646V11.6478Z" fill="#FFEC2D"/>
</g>
<defs>
<clipPath id="clip0_14_1156">
<rect width="18" height="18" rx="9" fill="white"/>
</clipPath>
</defs>
</svg>
