<svg width="18" height="18" viewBox="0 0 18 18" fill="none" xmlns="http://www.w3.org/2000/svg">
<g clip-path="url(#clip0_14_1220)">
<mask id="mask0_14_1220" style="mask-type:luminance" maskUnits="userSpaceOnUse" x="0" y="0" width="18" height="19">
<path d="M0.000976562 0H17.9994V18.001H0.000976562V0Z" fill="white"/>
</mask>
<g mask="url(#mask0_14_1220)">
<path fill-rule="evenodd" clip-rule="evenodd" d="M-4.5 0H22.5002V18.001H-4.5V0Z" fill="#CE1126"/>
<path fill-rule="evenodd" clip-rule="evenodd" d="M-4.5 4.47041H22.5002V13.5281H-4.5V4.47041Z" fill="#002868"/>
<path fill-rule="evenodd" clip-rule="evenodd" d="M12.8788 8.99923C12.8788 10.0279 12.4701 11.0144 11.7427 11.7418C11.0154 12.4692 10.0288 12.8778 9.00017 12.8778C7.9715 12.8778 6.98497 12.4692 6.25759 11.7418C5.53022 11.0144 5.12158 10.0279 5.12158 8.99923C5.12158 7.97057 5.53022 6.98403 6.25759 6.25666C6.98497 5.52928 7.9715 5.12065 9.00017 5.12065C10.0288 5.12065 11.0154 5.52928 11.7427 6.25666C12.4701 6.98403 12.8788 7.97057 12.8788 8.99923Z" fill="white"/>
</g>
</g>
<defs>
<clipPath id="clip0_14_1220">
<rect width="18" height="18" rx="9" fill="white"/>
</clipPath>
</defs>
</svg>
