<svg width="18" height="18" viewBox="0 0 18 18" fill="none" xmlns="http://www.w3.org/2000/svg">
<g clip-path="url(#clip0_8201_10741)">
<path d="M9 18C13.9706 18 18 13.9706 18 9C18 4.02944 13.9706 0 9 0C4.02944 0 0 4.02944 0 9C0 13.9706 4.02944 18 9 18Z" fill="#F0F0F0"/>
<path d="M9.00003 0C5.43188 0 2.34882 2.0765 0.893066 5.08697H17.107C15.6512 2.0765 12.5681 0 9.00003 0Z" fill="#D80027"/>
<path d="M9.00003 18.0001C12.5681 18.0001 15.6512 15.9236 17.107 12.9131H0.893066C2.34882 15.9236 5.43188 18.0001 9.00003 18.0001Z" fill="#D80027"/>
<path d="M11.348 10.5652L9.00018 6.26086L6.65234 10.5652H8.41322V11.7391H9.58715V10.5652H11.348Z" fill="#6DA544"/>
</g>
<defs>
<clipPath id="clip0_8201_10741">
<rect width="18" height="18" fill="white"/>
</clipPath>
</defs>
</svg>
