<svg width="18" height="18" viewBox="0 0 18 18" fill="none" xmlns="http://www.w3.org/2000/svg">
<g clip-path="url(#clip0_14_1125)">
<path d="M0 0H18.0035V9H0V0Z" fill="#002B7F"/>
<path d="M0 9H18.0035V18H0V9Z" fill="#CE1126"/>
<path d="M4.59349 3.66899L4.53649 5.54398H2.63449C2.4005 5.08798 2.2085 4.70398 2.2085 4.17898C2.2085 3.74099 2.55349 3.39299 3.04849 3.39299C3.57349 3.39299 4.15249 3.56999 4.59349 3.66899Z" fill="#FFD83D"/>
<path d="M2.43652 3.75598V4.83598ZM2.58652 3.64499V5.08498ZM2.74252 3.56999V5.28598ZM2.89252 3.53399V4.88098ZM3.04552 3.52799V4.88698ZM3.19852 3.47699V4.88698ZM3.35152 3.47699V4.88698ZM3.50452 3.49199V4.90198ZM3.65752 3.50699V4.91398ZM3.81052 3.59399V5.00398ZM3.96052 3.60899V5.19598ZM4.11652 3.60899V5.01898ZM4.26652 3.60899V5.01898Z" fill="#FFD83D"/>
<path d="M2.43652 3.75598V4.83598M2.58652 3.64499V5.08498M2.74252 3.56999V5.28598M2.89252 3.53399V4.88098M3.04552 3.52799V4.88698M3.19852 3.47699V4.88698M3.35152 3.47699V4.88698M3.50452 3.49199V4.90198M3.65752 3.50699V4.91398M3.81052 3.59399V5.00398M3.96052 3.60899V5.19598M4.11652 3.60899V5.01898M4.26652 3.60899V5.01898" stroke="black" stroke-width="0.0799997" stroke-linecap="round" stroke-linejoin="round"/>
<path d="M3.39354 3.53999C3.71754 3.59099 4.42554 3.92398 4.34454 4.37098C4.23054 5.00698 3.85854 4.75198 3.36654 4.66198L2.99454 4.78498C2.85954 4.91998 2.66455 5.04598 2.53255 4.88098H2.31055V5.74498H4.75254V3.65999L3.39354 3.53999Z" fill="black" stroke="black" stroke-width="0.0799997" stroke-linecap="round" stroke-linejoin="round"/>
<path d="M4.48538 3.53698C4.56656 3.53698 4.63238 3.47117 4.63238 3.38998C4.63238 3.3088 4.56656 3.24298 4.48538 3.24298C4.40419 3.24298 4.33838 3.3088 4.33838 3.38998C4.33838 3.47117 4.40419 3.53698 4.48538 3.53698Z" fill="#FFD83D" stroke="black" stroke-width="0.106666" stroke-linecap="round" stroke-linejoin="round"/>
<path d="M4.15261 3.45599C4.2338 3.45599 4.29961 3.39017 4.29961 3.30899C4.29961 3.2278 4.2338 3.16199 4.15261 3.16199C4.07143 3.16199 4.00562 3.2278 4.00562 3.30899C4.00562 3.39017 4.07143 3.45599 4.15261 3.45599Z" fill="#FFD83D" stroke="black" stroke-width="0.106666" stroke-linecap="round" stroke-linejoin="round"/>
<path d="M3.8135 3.37199C3.89469 3.37199 3.9605 3.30617 3.9605 3.22499C3.9605 3.1438 3.89469 3.07799 3.8135 3.07799C3.73232 3.07799 3.6665 3.1438 3.6665 3.22499C3.6665 3.30617 3.73232 3.37199 3.8135 3.37199Z" fill="#FFD83D" stroke="black" stroke-width="0.106666" stroke-linecap="round" stroke-linejoin="round"/>
<path d="M3.47439 3.31499C3.55558 3.31499 3.62139 3.24917 3.62139 3.16799C3.62139 3.0868 3.55558 3.02099 3.47439 3.02099C3.39321 3.02099 3.32739 3.0868 3.32739 3.16799C3.32739 3.24917 3.39321 3.31499 3.47439 3.31499Z" fill="#FFD83D" stroke="black" stroke-width="0.106666" stroke-linecap="round" stroke-linejoin="round"/>
<path d="M3.13553 3.28199C3.21671 3.28199 3.28252 3.21617 3.28252 3.13499C3.28252 3.0538 3.21671 2.98799 3.13553 2.98799C3.05434 2.98799 2.98853 3.0538 2.98853 3.13499C2.98853 3.21617 3.05434 3.28199 3.13553 3.28199Z" fill="#FFD83D" stroke="black" stroke-width="0.106666" stroke-linecap="round" stroke-linejoin="round"/>
<path d="M2.80545 3.29999C2.88663 3.29999 2.95245 3.23417 2.95245 3.15299C2.95245 3.0718 2.88663 3.00599 2.80545 3.00599C2.72426 3.00599 2.65845 3.0718 2.65845 3.15299C2.65845 3.23417 2.72426 3.29999 2.80545 3.29999Z" fill="#FFD83D" stroke="black" stroke-width="0.106666" stroke-linecap="round" stroke-linejoin="round"/>
<path d="M2.48758 3.40799C2.56876 3.40799 2.63458 3.34217 2.63458 3.26099C2.63458 3.1798 2.56876 3.11399 2.48758 3.11399C2.40639 3.11399 2.34058 3.1798 2.34058 3.26099C2.34058 3.34217 2.40639 3.40799 2.48758 3.40799Z" fill="#FFD83D" stroke="black" stroke-width="0.106666" stroke-linecap="round" stroke-linejoin="round"/>
<path d="M2.22049 3.60598C2.30167 3.60598 2.36749 3.54017 2.36749 3.45898C2.36749 3.3778 2.30167 3.31199 2.22049 3.31199C2.1393 3.31199 2.07349 3.3778 2.07349 3.45898C2.07349 3.54017 2.1393 3.60598 2.22049 3.60598Z" fill="#FFD83D" stroke="black" stroke-width="0.106666" stroke-linecap="round" stroke-linejoin="round"/>
<path d="M2.03152 3.87898C2.11271 3.87898 2.17852 3.81317 2.17852 3.73198C2.17852 3.6508 2.11271 3.58498 2.03152 3.58498C1.95034 3.58498 1.88452 3.6508 1.88452 3.73198C1.88452 3.81317 1.95034 3.87898 2.03152 3.87898Z" fill="#FFD83D" stroke="black" stroke-width="0.106666" stroke-linecap="round" stroke-linejoin="round"/>
<path d="M1.9385 4.20298C2.01969 4.20298 2.0855 4.13717 2.0855 4.05598C2.0855 3.9748 2.01969 3.90899 1.9385 3.90899C1.85732 3.90899 1.7915 3.9748 1.7915 4.05598C1.7915 4.13717 1.85732 4.20298 1.9385 4.20298Z" fill="#FFD83D" stroke="black" stroke-width="0.106666" stroke-linecap="round" stroke-linejoin="round"/>
<path d="M1.94143 4.53598C2.02262 4.53598 2.08843 4.47017 2.08843 4.38898C2.08843 4.3078 2.02262 4.24198 1.94143 4.24198C1.86025 4.24198 1.79443 4.3078 1.79443 4.38898C1.79443 4.47017 1.86025 4.53598 1.94143 4.53598Z" fill="#FFD83D" stroke="black" stroke-width="0.106666" stroke-linecap="round" stroke-linejoin="round"/>
<path d="M2.00759 4.86298C2.08878 4.86298 2.15459 4.79717 2.15459 4.71598C2.15459 4.63479 2.08878 4.56898 2.00759 4.56898C1.92641 4.56898 1.8606 4.63479 1.8606 4.71598C1.8606 4.79717 1.92641 4.86298 2.00759 4.86298Z" fill="#FFD83D" stroke="black" stroke-width="0.106666" stroke-linecap="round" stroke-linejoin="round"/>
<path d="M4.55161 3.58499L4.53661 3.77998C4.16761 3.71998 3.64561 3.51599 3.15661 3.51599C2.70662 3.51599 2.35862 3.69598 2.35862 4.15198C2.35862 4.59898 2.54762 5.00698 2.79962 5.42098L2.53862 5.54098C2.30462 5.09098 2.10962 4.70098 2.10962 4.17898C2.10962 3.74098 2.45462 3.30899 3.04862 3.30899C3.57361 3.30899 4.11061 3.48899 4.55161 3.58499Z" fill="#FFD83D" stroke="black" stroke-width="0.106666" stroke-linecap="round" stroke-linejoin="round"/>
<path d="M4.92946 3.66899L4.98646 5.54398H6.88845C7.12245 5.08798 7.31445 4.70398 7.31445 4.17898C7.31445 3.74099 6.96945 3.39299 6.47446 3.39299C5.94946 3.39299 5.37046 3.56999 4.92946 3.66899Z" fill="#FFD83D"/>
<path d="M7.08643 3.75598V4.83598ZM6.93643 3.64499V5.08498ZM6.78043 3.56999V5.28598ZM6.63043 3.53399V4.88098ZM6.47743 3.52799V4.88698ZM6.32443 3.47699V4.88698ZM6.17143 3.47699V4.88698ZM6.01843 3.49199V4.90198ZM5.86543 3.50699V4.91398ZM5.71243 3.59399V5.00398ZM5.56243 3.60899V5.19598ZM5.40643 3.60899V5.01898ZM5.25643 3.60899V5.01898Z" fill="#FFD83D"/>
<path d="M7.08643 3.75598V4.83598M6.93643 3.64499V5.08498M6.78043 3.56999V5.28598M6.63043 3.53399V4.88098M6.47743 3.52799V4.88698M6.32443 3.47699V4.88698M6.17143 3.47699V4.88698M6.01843 3.49199V4.90198M5.86543 3.50699V4.91398M5.71243 3.59399V5.00398M5.56243 3.60899V5.19598M5.40643 3.60899V5.01898M5.25643 3.60899V5.01898" stroke="black" stroke-width="0.0799997" stroke-linecap="round" stroke-linejoin="round"/>
<path d="M6.12941 3.53999C5.80541 3.59099 5.09741 3.92398 5.17841 4.37098C5.29241 5.00698 5.66441 4.75198 6.15641 4.66198L6.5284 4.78498C6.6634 4.91998 6.8584 5.04598 6.9904 4.88098H7.2124V5.74498H4.77041V3.65999L6.12941 3.53999Z" fill="black" stroke="black" stroke-width="0.0799997" stroke-linecap="round" stroke-linejoin="round"/>
<path d="M5.03757 3.53698C4.95639 3.53698 4.89057 3.47117 4.89057 3.38998C4.89057 3.3088 4.95639 3.24298 5.03757 3.24298C5.11876 3.24298 5.18457 3.3088 5.18457 3.38998C5.18457 3.47117 5.11876 3.53698 5.03757 3.53698Z" fill="#FFD83D" stroke="black" stroke-width="0.106666" stroke-linecap="round" stroke-linejoin="round"/>
<path d="M5.37033 3.45599C5.28915 3.45599 5.22334 3.39017 5.22334 3.30899C5.22334 3.2278 5.28915 3.16199 5.37033 3.16199C5.45152 3.16199 5.51733 3.2278 5.51733 3.30899C5.51733 3.39017 5.45152 3.45599 5.37033 3.45599Z" fill="#FFD83D" stroke="black" stroke-width="0.106666" stroke-linecap="round" stroke-linejoin="round"/>
<path d="M5.70945 3.37199C5.62826 3.37199 5.56245 3.30617 5.56245 3.22499C5.56245 3.1438 5.62826 3.07799 5.70945 3.07799C5.79063 3.07799 5.85645 3.1438 5.85645 3.22499C5.85645 3.30617 5.79063 3.37199 5.70945 3.37199Z" fill="#FFD83D" stroke="black" stroke-width="0.106666" stroke-linecap="round" stroke-linejoin="round"/>
<path d="M6.04856 3.31499C5.96737 3.31499 5.90156 3.24917 5.90156 3.16799C5.90156 3.0868 5.96737 3.02099 6.04856 3.02099C6.12974 3.02099 6.19556 3.0868 6.19556 3.16799C6.19556 3.24917 6.12974 3.31499 6.04856 3.31499Z" fill="#FFD83D" stroke="black" stroke-width="0.106666" stroke-linecap="round" stroke-linejoin="round"/>
<path d="M6.38742 3.28199C6.30624 3.28199 6.24042 3.21617 6.24042 3.13499C6.24042 3.0538 6.30624 2.98799 6.38742 2.98799C6.46861 2.98799 6.53442 3.0538 6.53442 3.13499C6.53442 3.21617 6.46861 3.28199 6.38742 3.28199Z" fill="#FFD83D" stroke="black" stroke-width="0.106666" stroke-linecap="round" stroke-linejoin="round"/>
<path d="M6.7175 3.29999C6.63632 3.29999 6.5705 3.23417 6.5705 3.15299C6.5705 3.0718 6.63632 3.00599 6.7175 3.00599C6.79869 3.00599 6.8645 3.0718 6.8645 3.15299C6.8645 3.23417 6.79869 3.29999 6.7175 3.29999Z" fill="#FFD83D" stroke="black" stroke-width="0.106666" stroke-linecap="round" stroke-linejoin="round"/>
<path d="M7.03537 3.40799C6.95419 3.40799 6.88837 3.34217 6.88837 3.26099C6.88837 3.1798 6.95419 3.11399 7.03537 3.11399C7.11656 3.11399 7.18237 3.1798 7.18237 3.26099C7.18237 3.34217 7.11656 3.40799 7.03537 3.40799Z" fill="#FFD83D" stroke="black" stroke-width="0.106666" stroke-linecap="round" stroke-linejoin="round"/>
<path d="M7.30246 3.60598C7.22128 3.60598 7.15546 3.54017 7.15546 3.45898C7.15546 3.3778 7.22128 3.31199 7.30246 3.31199C7.38365 3.31199 7.44946 3.3778 7.44946 3.45898C7.44946 3.54017 7.38365 3.60598 7.30246 3.60598Z" fill="#FFD83D" stroke="black" stroke-width="0.106666" stroke-linecap="round" stroke-linejoin="round"/>
<path d="M7.49143 3.87898C7.41024 3.87898 7.34443 3.81317 7.34443 3.73198C7.34443 3.6508 7.41024 3.58498 7.49143 3.58498C7.57261 3.58498 7.63843 3.6508 7.63843 3.73198C7.63843 3.81317 7.57261 3.87898 7.49143 3.87898Z" fill="#FFD83D" stroke="black" stroke-width="0.106666" stroke-linecap="round" stroke-linejoin="round"/>
<path d="M7.58445 4.20298C7.50326 4.20298 7.43745 4.13717 7.43745 4.05598C7.43745 3.9748 7.50326 3.90899 7.58445 3.90899C7.66563 3.90899 7.73145 3.9748 7.73145 4.05598C7.73145 4.13717 7.66563 4.20298 7.58445 4.20298Z" fill="#FFD83D" stroke="black" stroke-width="0.106666" stroke-linecap="round" stroke-linejoin="round"/>
<path d="M7.58152 4.53598C7.50033 4.53598 7.43452 4.47017 7.43452 4.38898C7.43452 4.3078 7.50033 4.24198 7.58152 4.24198C7.6627 4.24198 7.72852 4.3078 7.72852 4.38898C7.72852 4.47017 7.6627 4.53598 7.58152 4.53598Z" fill="#FFD83D" stroke="black" stroke-width="0.106666" stroke-linecap="round" stroke-linejoin="round"/>
<path d="M7.51535 4.86298C7.43417 4.86298 7.36835 4.79717 7.36835 4.71598C7.36835 4.63479 7.43417 4.56898 7.51535 4.56898C7.59654 4.56898 7.66235 4.63479 7.66235 4.71598C7.66235 4.79717 7.59654 4.86298 7.51535 4.86298Z" fill="#FFD83D" stroke="black" stroke-width="0.106666" stroke-linecap="round" stroke-linejoin="round"/>
<path d="M4.97134 3.58499L4.98634 3.77998C5.35534 3.71998 5.87734 3.51599 6.36633 3.51599C6.81633 3.51599 7.16433 3.69598 7.16433 4.15198C7.16433 4.59898 6.97533 5.00698 6.72333 5.42098L6.98433 5.54098C7.21833 5.09098 7.41333 4.70098 7.41333 4.17898C7.41333 3.74098 7.06833 3.30899 6.47433 3.30899C5.94934 3.30899 5.41234 3.48899 4.97134 3.58499Z" fill="#FFD83D" stroke="black" stroke-width="0.106666" stroke-linecap="round" stroke-linejoin="round"/>
<path d="M4.76147 1.59299L4.60547 1.88399L4.76147 2.17199L4.91447 1.88399L4.76147 1.58999V1.59299ZM4.76147 2.32499L4.60547 2.61299L4.76147 2.90399L4.91147 2.60999L4.75847 2.32199L4.76147 2.32499ZM4.20947 2.24999L4.45247 2.40299L4.69547 2.24999L4.45547 2.09399L4.20947 2.24999ZM4.82447 2.24999L5.06747 2.40299L5.31347 2.24999L5.06747 2.09399L4.82747 2.24999H4.82447Z" fill="#FFD83D" stroke="black" stroke-width="0.106666" stroke-linecap="round" stroke-linejoin="round"/>
<path d="M4.76153 2.36999C4.82615 2.36999 4.87853 2.31761 4.87853 2.25299C4.87853 2.18837 4.82615 2.13599 4.76153 2.13599C4.69691 2.13599 4.64453 2.18837 4.64453 2.25299C4.64453 2.31761 4.69691 2.36999 4.76153 2.36999Z" fill="#FFD83D" stroke="black" stroke-width="0.106666" stroke-linecap="round" stroke-linejoin="round"/>
<path d="M4.76153 3.31499C4.9355 3.31499 5.07653 3.17396 5.07653 2.99999C5.07653 2.82602 4.9355 2.68499 4.76153 2.68499C4.58756 2.68499 4.44653 2.82602 4.44653 2.99999C4.44653 3.17396 4.58756 3.31499 4.76153 3.31499Z" fill="#FFD83D" stroke="black" stroke-width="0.106666" stroke-linecap="round" stroke-linejoin="round"/>
<path d="M4.68057 2.69699V2.89499C4.60615 2.89857 4.53202 2.90658 4.45857 2.91899M5.06456 2.91899C4.99012 2.90643 4.91498 2.89842 4.83956 2.89499V2.69699M4.45557 3.07799C4.55664 3.06048 4.65899 3.05145 4.76157 3.05099C4.86356 3.05099 4.96556 3.05999 5.06156 3.07799" stroke="black" stroke-width="0.0799997" stroke-linecap="round" stroke-linejoin="round"/>
<path d="M4.45555 3.53098C4.42555 4.04098 4.36555 4.56598 4.16455 4.94398L4.48855 4.81198C4.60255 4.38298 4.62655 3.82798 4.65955 3.56398L4.45555 3.53098ZM5.06755 3.53098L4.86055 3.56398C4.89655 3.82798 4.92055 4.38298 5.03155 4.81198L5.35555 4.94398C5.15755 4.56598 5.09755 4.04398 5.06755 3.53098Z" fill="#FFD83D" stroke="black" stroke-width="0.106666" stroke-linecap="round" stroke-linejoin="round"/>
<path d="M4.76147 4.64098C4.37148 4.64098 4.08648 4.82098 4.07148 5.28898C3.97548 5.12098 3.57648 4.59898 3.20148 4.66798C2.97948 4.70998 2.78148 5.01898 2.81748 5.36998C2.63148 4.84198 2.09448 4.75498 1.69849 5.06998C2.04948 5.35498 2.20548 6.20397 2.49948 6.56997H7.02047C7.31446 6.20397 7.47046 5.35498 7.82146 5.06998C7.42846 4.75498 6.88847 4.84198 6.70547 5.36998C6.73547 5.01898 6.54047 4.70998 6.31547 4.66798C5.94347 4.59898 5.54447 5.12098 5.44847 5.28898C5.43347 4.82398 5.14847 4.64098 4.75847 4.64098H4.76147Z" fill="#FFD83D" stroke="black" stroke-width="0.106666" stroke-linecap="round" stroke-linejoin="round"/>
<path d="M7.0146 6.56997C7.0146 6.73797 6.0066 6.92097 4.76161 6.92097C3.51661 6.92097 2.50562 6.74097 2.50562 6.56997C2.50562 6.40497 3.51661 6.31497 4.76161 6.31497C6.0036 6.31497 7.0146 6.40497 7.0146 6.56997Z" fill="black" stroke="black" stroke-width="0.0799997" stroke-linecap="round" stroke-linejoin="round"/>
<path d="M4.76149 3.53698C4.81948 3.53698 4.86649 3.48997 4.86649 3.43198C4.86649 3.37399 4.81948 3.32698 4.76149 3.32698C4.7035 3.32698 4.65649 3.37399 4.65649 3.43198C4.65649 3.48997 4.7035 3.53698 4.76149 3.53698Z" fill="#FFD83D" stroke="black" stroke-width="0.0799997" stroke-linecap="round" stroke-linejoin="round"/>
<path d="M4.76163 3.77098C4.82294 3.77098 4.87263 3.72129 4.87263 3.65998C4.87263 3.59868 4.82294 3.54898 4.76163 3.54898C4.70033 3.54898 4.65063 3.59868 4.65063 3.65998C4.65063 3.72129 4.70033 3.77098 4.76163 3.77098Z" fill="#FFD83D" stroke="black" stroke-width="0.0799997" stroke-linecap="round" stroke-linejoin="round"/>
<path d="M4.76143 4.02898C4.82936 4.02898 4.88443 3.97391 4.88443 3.90598C4.88443 3.83805 4.82936 3.78298 4.76143 3.78298C4.6935 3.78298 4.63843 3.83805 4.63843 3.90598C4.63843 3.97391 4.6935 4.02898 4.76143 4.02898Z" fill="#FFD83D" stroke="black" stroke-width="0.0799997" stroke-linecap="round" stroke-linejoin="round"/>
<path d="M4.7616 4.31998C4.83948 4.31998 4.9026 4.25685 4.9026 4.17898C4.9026 4.10111 4.83948 4.03798 4.7616 4.03798C4.68373 4.03798 4.62061 4.10111 4.62061 4.17898C4.62061 4.25685 4.68373 4.31998 4.7616 4.31998Z" fill="#FFD83D" stroke="black" stroke-width="0.0799997" stroke-linecap="round" stroke-linejoin="round"/>
<path d="M4.76164 4.63498C4.84614 4.63498 4.91464 4.56648 4.91464 4.48198C4.91464 4.39748 4.84614 4.32898 4.76164 4.32898C4.67714 4.32898 4.60864 4.39748 4.60864 4.48198C4.60864 4.56648 4.67714 4.63498 4.76164 4.63498Z" fill="#FFD83D" stroke="black" stroke-width="0.0799997" stroke-linecap="round" stroke-linejoin="round"/>
<path d="M4.70154 4.77598C4.68354 4.77598 4.66854 4.79098 4.67154 4.81798L4.68954 4.94698C4.69554 4.99198 4.71954 4.97698 4.72854 4.94698C4.73454 4.91098 4.73154 4.88698 4.73454 4.82398C4.73454 4.79098 4.71654 4.77598 4.69854 4.77598H4.70154ZM4.82154 4.77598C4.80354 4.77598 4.78854 4.79098 4.78854 4.82398C4.78854 4.88698 4.78854 4.91098 4.79454 4.94398C4.80054 4.97998 4.82454 4.99198 4.83354 4.94398L4.84854 4.81798C4.85454 4.78798 4.83654 4.77598 4.82154 4.77598ZM4.59054 4.79398C4.58259 4.79398 4.57495 4.79714 4.56933 4.80276C4.5637 4.80839 4.56054 4.81602 4.56054 4.82398C4.56054 4.85398 4.56954 4.89298 4.57254 4.93798C4.57854 4.98298 4.61154 4.96798 4.61454 4.93798C4.61454 4.91398 4.62054 4.87198 4.61454 4.82098C4.61454 4.80298 4.60854 4.79398 4.59654 4.79098C4.59455 4.79073 4.59253 4.79073 4.59054 4.79098V4.79398ZM4.92354 4.79398C4.91454 4.79398 4.90554 4.80298 4.90254 4.82398C4.90093 4.86208 4.90294 4.90025 4.90854 4.93798C4.90854 4.96798 4.94454 4.98298 4.94754 4.93798C4.94754 4.89298 4.95954 4.85698 4.95954 4.82698C4.95954 4.80898 4.94454 4.79698 4.92954 4.79398C4.92755 4.79373 4.92553 4.79373 4.92354 4.79398ZM4.46154 4.84498C4.44654 4.84798 4.43154 4.86598 4.43754 4.88398C4.44654 4.92298 4.45554 4.96498 4.45554 5.00398C4.45554 5.03698 4.48254 5.02498 4.48554 5.00398C4.48788 4.96402 4.48888 4.924 4.48854 4.88398C4.48854 4.85398 4.47354 4.84198 4.45854 4.84498H4.46154ZM5.04954 4.84498C5.04054 4.84798 5.03154 4.85998 5.03154 4.88398L5.03754 5.00398C5.03754 5.02498 5.06754 5.03698 5.06754 5.00398C5.06754 4.96498 5.07354 4.92298 5.08254 4.88398C5.08854 4.86598 5.07354 4.84798 5.06154 4.84498C5.05859 4.84422 5.05549 4.84422 5.05254 4.84498H5.04954ZM3.27955 4.85098C3.26155 4.85098 3.24955 4.87198 3.26155 4.89598C3.27955 4.93798 3.30055 4.96198 3.31855 5.00398C3.33355 5.04298 3.36055 5.01898 3.35155 4.99198L3.30955 4.88098C3.30055 4.85998 3.28855 4.85098 3.27955 4.85098ZM6.24354 4.85098C6.23154 4.85098 6.22254 4.85998 6.21354 4.88098C6.18654 4.93798 6.17754 4.96498 6.16854 4.99198C6.16254 5.02198 6.18654 5.04298 6.20454 5.00398L6.25854 4.89598C6.27054 4.87198 6.25854 4.85098 6.24354 4.85098ZM3.39955 4.85098C3.38455 4.85698 3.37855 4.87198 3.38455 4.88998C3.40255 4.92598 3.42355 4.96498 3.43855 5.00398C3.45055 5.03698 3.48055 5.02798 3.46855 4.99798L3.43855 4.88698C3.42655 4.85698 3.40855 4.84798 3.39955 4.85098ZM6.11454 4.85098C6.10254 4.85398 6.09054 4.86598 6.08454 4.88698C6.06354 4.94698 6.06054 4.96498 6.05154 4.99798C6.03954 5.02798 6.06954 5.03698 6.08154 5.00398L6.13554 4.88998C6.14154 4.87198 6.13554 4.85698 6.12354 4.85098C6.12058 4.85022 6.11749 4.85022 6.11454 4.85098ZM3.54955 4.88098C3.53155 4.88398 3.51955 4.90798 3.53155 4.93798C3.54355 4.97398 3.56155 5.00698 3.57955 5.04898C3.59755 5.09098 3.62455 5.08198 3.61855 5.05498C3.60955 5.02798 3.60355 4.98598 3.58255 4.91998C3.57355 4.88998 3.56155 4.87798 3.54955 4.88098ZM5.97354 4.88098C5.96154 4.88098 5.94654 4.88998 5.93754 4.91998C5.91954 4.98598 5.90754 5.02798 5.90454 5.05498C5.89554 5.08498 5.92554 5.09098 5.94054 5.04898C5.95854 5.00698 5.97654 4.97398 5.98854 4.93798C6.00054 4.90798 5.98854 4.88398 5.97354 4.88098ZM3.17755 4.90198C3.15955 4.90198 3.14755 4.93198 3.15655 4.95298C3.17155 4.98298 3.18355 4.99498 3.19855 5.03098C3.21655 5.06698 3.23455 5.03998 3.22855 5.01598C3.21955 4.99198 3.21055 4.96498 3.20455 4.93198C3.19855 4.90798 3.18655 4.90198 3.17455 4.90198H3.17755ZM6.34553 4.90198C6.33353 4.90198 6.32453 4.90798 6.31553 4.93198L6.29454 5.01598C6.28854 5.03998 6.30654 5.06698 6.32454 5.03098C6.33954 4.99498 6.34853 4.98598 6.36653 4.95298C6.37553 4.93198 6.36053 4.90498 6.34553 4.90198ZM4.33554 4.98598C4.31454 4.98598 4.29654 5.00998 4.30554 5.03098C4.31154 5.06698 4.32954 5.09698 4.33854 5.14198C4.35054 5.18098 4.37754 5.16298 4.37454 5.13598C4.37236 5.09567 4.36735 5.05558 4.35954 5.01598C4.35354 4.99498 4.34454 4.98598 4.33254 4.98598H4.33554ZM5.18754 4.98598C5.17854 4.98598 5.16654 4.99498 5.16354 5.01598C5.15472 5.0555 5.14871 5.0956 5.14554 5.13598C5.14554 5.16298 5.17254 5.18098 5.18154 5.14198L5.21754 5.03098C5.22354 5.00998 5.20554 4.98598 5.18754 4.98598ZM4.76154 5.02198C4.73754 5.02198 4.73454 5.05198 4.73454 5.07298C4.73271 5.1413 4.71194 5.20777 4.67454 5.26498C4.64454 5.30098 4.60554 5.29198 4.56954 5.27098C4.53465 5.25196 4.50152 5.22987 4.47054 5.20498C4.42854 5.17498 4.39854 5.19298 4.44654 5.26198C4.58454 5.45998 4.73454 5.62797 4.73454 5.95197C4.73454 5.99097 4.74354 6.00297 4.76154 6.00297C4.77954 6.00297 4.78554 5.99097 4.78554 5.94897C4.78554 5.62797 4.93554 5.45998 5.07354 5.25898C5.12154 5.19298 5.09154 5.17498 5.05254 5.20498C5.0217 5.23005 4.98855 5.25215 4.95354 5.27098C4.91454 5.29198 4.87554 5.30098 4.84854 5.26498C4.81115 5.20777 4.79037 5.1413 4.78854 5.07298C4.78554 5.05198 4.78254 5.02198 4.75854 5.02198H4.76154ZM3.70255 4.97398C3.70056 4.97364 3.69853 4.97364 3.69655 4.97398C3.68755 4.97698 3.68455 4.98598 3.68755 5.00398L3.72055 5.12098C3.72955 5.15098 3.76255 5.14198 3.75655 5.10598L3.73854 5.01298C3.73254 4.98898 3.71455 4.97398 3.70255 4.97398ZM5.82054 4.97398C5.80554 4.97398 5.79054 4.98898 5.78454 5.01298C5.77254 5.05498 5.77254 5.06698 5.76654 5.10298C5.75754 5.14198 5.79354 5.14798 5.79954 5.12098L5.83554 5.00098C5.83554 4.98598 5.83254 4.97698 5.82354 4.97398C5.82155 4.97364 5.81952 4.97364 5.81754 4.97398H5.82054ZM3.07255 4.98598C3.05455 4.98598 3.04255 5.00998 3.06055 5.03998C3.07855 5.07598 3.11155 5.11798 3.12655 5.14498C3.14155 5.16898 3.16855 5.15098 3.15055 5.12098C3.13255 5.09098 3.12655 5.05198 3.10255 5.00698C3.10057 5.00066 3.09655 4.99517 3.09112 4.99137C3.0857 4.98757 3.07916 4.98567 3.07255 4.98598ZM6.44753 4.98598C6.43854 4.98598 6.42654 4.99198 6.41754 5.00698C6.39654 5.05198 6.38754 5.08798 6.37254 5.12098C6.35454 5.15098 6.37853 5.16898 6.39353 5.14498C6.40853 5.11798 6.44153 5.07598 6.45953 5.03998C6.47753 5.00998 6.46553 4.98598 6.44753 4.98598ZM2.12155 5.08498C2.10355 5.08498 2.09755 5.12098 2.11555 5.14498C2.13885 5.17446 2.16497 5.20159 2.19355 5.22598C2.21755 5.24998 2.22355 5.21998 2.21155 5.19598L2.15755 5.11498C2.14255 5.09398 2.13055 5.08498 2.12155 5.08498ZM7.39853 5.08498C7.38953 5.08498 7.37753 5.09398 7.36553 5.11498L7.30853 5.19598C7.29653 5.21998 7.30253 5.24998 7.32953 5.22598C7.35814 5.20161 7.38426 5.17448 7.40753 5.14498C7.42553 5.12098 7.41953 5.08498 7.39853 5.08498ZM2.27455 5.11498C2.25655 5.11498 2.24455 5.12698 2.25955 5.15398L2.31655 5.26798C2.33155 5.29798 2.37655 5.30698 2.35855 5.26198L2.31955 5.14798C2.31055 5.12698 2.28955 5.11798 2.27455 5.11798V5.11498ZM7.24853 5.11498C7.23053 5.11498 7.20953 5.12698 7.20053 5.14798L7.16453 5.26198C7.14653 5.30698 7.19153 5.29798 7.20653 5.26798C7.22153 5.23798 7.24553 5.19298 7.26053 5.15398C7.27553 5.12698 7.26353 5.11498 7.24853 5.11498ZM1.98055 5.12698C1.95655 5.12698 1.95655 5.14798 1.97755 5.16298C2.00455 5.18398 2.03755 5.20498 2.06755 5.23198C2.10655 5.26198 2.11855 5.23198 2.09755 5.20798C2.07955 5.18398 2.06155 5.15998 2.01055 5.13298C1.99855 5.12698 1.98955 5.12698 1.98055 5.12698ZM7.53953 5.12698C7.53353 5.12698 7.52153 5.12698 7.50953 5.13298C7.46153 5.15998 7.44053 5.18398 7.41953 5.20798C7.40153 5.23498 7.41653 5.26198 7.45253 5.23198C7.48253 5.20498 7.51853 5.18398 7.54253 5.16298C7.56653 5.14798 7.56353 5.12698 7.54253 5.12698H7.53953ZM4.25154 5.14798C4.23654 5.14798 4.22754 5.16298 4.23054 5.18398L4.26054 5.29198C4.26654 5.32498 4.30554 5.32498 4.29954 5.29198C4.29354 5.26198 4.29054 5.22298 4.27854 5.17498C4.27554 5.15698 4.26654 5.14798 4.25454 5.14498C4.25355 5.14489 4.25254 5.14489 4.25154 5.14498V5.14798ZM5.26554 5.14798C5.25654 5.14798 5.24754 5.15698 5.24154 5.17798C5.22954 5.22298 5.22654 5.26198 5.22054 5.29498C5.21454 5.32498 5.25354 5.32498 5.25954 5.29198L5.28954 5.18398C5.29554 5.16298 5.28354 5.14798 5.27154 5.14798C5.26955 5.14764 5.26753 5.14764 5.26554 5.14798ZM3.34555 5.08798C3.33655 5.08798 3.33055 5.10898 3.33955 5.13898C3.37137 5.22544 3.38762 5.31685 3.38755 5.40898C3.37855 5.44498 3.35755 5.44798 3.33055 5.43898C3.30112 5.42445 3.27301 5.40739 3.24655 5.38798C3.22255 5.37298 3.19555 5.39098 3.23155 5.42098C3.41155 5.57098 3.54055 5.74197 3.59155 5.94897C3.59755 5.99097 3.62455 5.99697 3.61855 5.94897C3.57655 5.68797 3.56755 5.47198 3.63055 5.33998C3.65455 5.28898 3.63055 5.24098 3.59455 5.32198C3.56755 5.37598 3.52855 5.39698 3.49555 5.35198C3.44864 5.27877 3.40848 5.20145 3.37555 5.12098C3.36955 5.09998 3.36055 5.09098 3.35155 5.08798C3.35055 5.08781 3.34954 5.08781 3.34855 5.08798H3.34555ZM6.16854 5.08798C6.15954 5.08798 6.15054 5.09998 6.14454 5.11798C6.12354 5.17798 6.05754 5.30398 6.02454 5.35198C5.99154 5.39998 5.95254 5.37598 5.92854 5.32198C5.88954 5.24098 5.86854 5.28898 5.88954 5.33998C5.95254 5.47198 5.94354 5.68797 5.90454 5.94897C5.89554 5.99697 5.92254 5.99097 5.93454 5.94897C5.99002 5.73827 6.11469 5.55232 6.28854 5.42098C6.32453 5.39098 6.29754 5.37298 6.27354 5.39098C6.24692 5.40842 6.21881 5.42348 6.18954 5.43598C6.15954 5.44798 6.14154 5.44498 6.13254 5.40598C6.12654 5.36998 6.13854 5.28898 6.18354 5.13598C6.18954 5.11198 6.18354 5.09098 6.17454 5.08798C6.17259 5.08729 6.17048 5.08729 6.16854 5.08798ZM2.43355 5.15998C2.41855 5.15998 2.40355 5.17198 2.41255 5.19598C2.42455 5.23798 2.44855 5.27998 2.45755 5.30398C2.46655 5.33098 2.49355 5.31898 2.48755 5.28298L2.47255 5.18998C2.47255 5.17198 2.45155 5.15998 2.43355 5.15998ZM7.08653 5.15998C7.06853 5.15998 7.05053 5.17198 7.04753 5.18998L7.03553 5.28298C7.02953 5.31898 7.05653 5.33098 7.06553 5.30398C7.07153 5.27998 7.09553 5.23798 7.10753 5.19598C7.11653 5.17198 7.10453 5.15998 7.08653 5.15998ZM2.99755 5.10898C2.97955 5.10598 2.97655 5.15398 2.99155 5.17498L3.07555 5.26798C3.09955 5.29798 3.11455 5.27098 3.09955 5.24698L3.02155 5.13298C3.01255 5.11798 3.00355 5.10898 2.99755 5.10898ZM6.52253 5.10898C6.51653 5.10898 6.50753 5.11798 6.49853 5.13298L6.42053 5.24698C6.40553 5.27098 6.42054 5.29798 6.44753 5.26798L6.52853 5.17498C6.54353 5.15398 6.54353 5.10598 6.52253 5.10898ZM2.56255 5.22898C2.55055 5.22898 2.54155 5.23498 2.54755 5.25898C2.55355 5.29498 2.56255 5.31898 2.57155 5.35198C2.58055 5.38198 2.60155 5.37898 2.60155 5.34898L2.59255 5.25298C2.59124 5.24579 2.58759 5.23924 2.58216 5.23436C2.57673 5.22947 2.56983 5.22652 2.56255 5.22598V5.22898ZM6.95753 5.22898C6.95051 5.22883 6.94367 5.23116 6.93819 5.23554C6.93271 5.23993 6.92894 5.2461 6.92753 5.25298L6.91853 5.34898C6.91853 5.37898 6.94253 5.38498 6.94853 5.35198L6.97553 5.26198C6.98153 5.23498 6.96953 5.22598 6.95753 5.22598V5.22898ZM2.95555 5.27098C2.93755 5.27098 2.92255 5.29198 2.94355 5.31898C2.97655 5.36398 3.01555 5.39398 3.03055 5.40898C3.04255 5.42698 3.07555 5.42098 3.05455 5.38798L2.98555 5.28298C2.97955 5.27098 2.96755 5.26798 2.95555 5.27098ZM6.55553 5.27098C6.54953 5.27098 6.54053 5.27398 6.53753 5.28298L6.46553 5.38798C6.44453 5.42098 6.47753 5.42698 6.49253 5.41198C6.50453 5.39398 6.54353 5.36398 6.57953 5.31898C6.60053 5.28898 6.58253 5.27098 6.56453 5.27098C6.56254 5.27075 6.56053 5.27075 6.55853 5.27098H6.55553ZM2.33455 5.39398C2.32255 5.39398 2.31655 5.40598 2.33455 5.43298C2.38088 5.48917 2.41464 5.55464 2.43355 5.62497C2.43655 5.66697 2.41855 5.66697 2.40055 5.66697C2.34355 5.66697 2.31655 5.62498 2.26855 5.61298C2.21755 5.60398 2.20855 5.62797 2.24455 5.65497C2.41651 5.76372 2.56617 5.90422 2.68555 6.06897C2.71555 6.12597 2.75455 6.14397 2.73355 6.09297C2.67526 5.97599 2.65035 5.8452 2.66155 5.71497C2.67655 5.63097 2.69755 5.57698 2.69455 5.52898C2.69455 5.48398 2.66455 5.48698 2.65555 5.52898L2.62555 5.61298C2.61355 5.62798 2.57155 5.63697 2.53555 5.58597C2.48453 5.52337 2.42833 5.46516 2.36755 5.41198C2.35855 5.40298 2.34655 5.39698 2.33755 5.39398H2.33455ZM7.18553 5.39398C7.17653 5.39398 7.16453 5.39998 7.15253 5.41198C7.09281 5.46531 7.03762 5.52351 6.98753 5.58597C6.94853 5.63697 6.90653 5.62797 6.89753 5.61597C6.88385 5.58838 6.87377 5.55914 6.86753 5.52898C6.85553 5.48698 6.82853 5.48398 6.82553 5.52898C6.82553 5.57698 6.84353 5.63097 6.85853 5.71497C6.87353 5.79897 6.85853 5.93097 6.78953 6.09297C6.76553 6.14397 6.80753 6.12297 6.83753 6.06897C6.9558 5.90431 7.10447 5.76379 7.27553 5.65497C7.31153 5.62797 7.30553 5.60398 7.25453 5.61298C7.20353 5.62498 7.17653 5.66697 7.12253 5.66697C7.10453 5.66697 7.08353 5.66697 7.08653 5.62497C7.08953 5.58598 7.14053 5.49298 7.18553 5.43298C7.20353 5.40298 7.20053 5.39398 7.18553 5.39398Z" fill="black"/>
<path d="M2.60449 6.38097L2.66449 6.56397ZM2.72449 6.34497L2.77849 6.53097ZM2.85649 6.32097L2.89249 6.51297ZM2.97649 6.29997L3.01549 6.48897ZM3.12949 6.28497L3.15949 6.47697ZM3.29449 6.28497L3.32749 6.47397ZM3.45649 6.23097L3.48049 6.42297ZM3.60649 6.23997L3.63049 6.43197ZM3.75349 6.22197L3.77749 6.41397ZM3.89749 6.20397L3.91249 6.39897ZM4.05649 6.20397L4.06849 6.39897ZM4.20049 6.19497L4.20949 6.38997ZM4.35649 6.18597L4.36549 6.37797ZM4.53648 6.17997L4.54548 6.37497ZM6.91547 6.38097L6.85548 6.56397ZM6.79548 6.34497L6.74448 6.53097ZM6.66648 6.32097L6.63048 6.51297ZM6.54648 6.29997L6.50748 6.48897ZM6.38748 6.28497L6.35748 6.47697ZM6.22548 6.28497L6.19248 6.47697ZM6.06648 6.23097L6.04248 6.42297ZM5.91348 6.23997L5.88948 6.43197ZM5.76948 6.22197L5.74248 6.41397ZM5.62248 6.20397L5.60748 6.39897ZM5.46348 6.20397L5.45148 6.39897ZM5.32248 6.19497L5.31348 6.38997ZM5.16348 6.18597L5.15748 6.37797ZM4.98348 6.17997L4.97748 6.37497ZM4.76148 6.16497V6.38097Z" fill="#FFD83D"/>
<path d="M2.60449 6.38097L2.66449 6.56397M2.72449 6.34497L2.77849 6.53097M2.85649 6.32097L2.89249 6.51297M2.97649 6.29997L3.01549 6.48897M3.12949 6.28497L3.15949 6.47697M3.29449 6.28497L3.32749 6.47397M3.45649 6.23097L3.48049 6.42297M3.60649 6.23997L3.63049 6.43197M3.75349 6.22197L3.77749 6.41397M3.89749 6.20397L3.91249 6.39897M4.05649 6.20397L4.06849 6.39897M4.20049 6.19497L4.20949 6.38997M4.35649 6.18597L4.36549 6.37797M4.53648 6.17997L4.54548 6.37497M6.91547 6.38097L6.85548 6.56397M6.79548 6.34497L6.74448 6.53097M6.66648 6.32097L6.63048 6.51297M6.54648 6.29997L6.50748 6.48897M6.38748 6.28497L6.35748 6.47697M6.22548 6.28497L6.19248 6.47697M6.06648 6.23097L6.04248 6.42297M5.91348 6.23997L5.88948 6.43197M5.76948 6.22197L5.74248 6.41397M5.62248 6.20397L5.60748 6.39897M5.46348 6.20397L5.45148 6.39897M5.32248 6.19497L5.31348 6.38997M5.16348 6.18597L5.15748 6.37797M4.98348 6.17997L4.97748 6.37497M4.76148 6.16497V6.38097" stroke="black" stroke-width="0.0799997" stroke-linecap="round" stroke-linejoin="round"/>
</g>
<defs>
<clipPath id="clip0_14_1125">
<rect width="18" height="18" rx="9" fill="white"/>
</clipPath>
</defs>
</svg>
