<svg width="18" height="18" viewBox="0 0 18 18" fill="none" xmlns="http://www.w3.org/2000/svg">
<g clip-path="url(#clip0_8201_10776)">
<path d="M18 8.99995C18 13.9705 13.9705 18 9 18C4.02947 18 0 13.9705 0 8.99995C0.391289 8.99995 9 7.82605 9 7.82605L18 8.99995Z" fill="#D80027"/>
<path d="M0 9C0 4.02947 4.02947 0 9 0C13.9705 0 18 4.02947 18 9" fill="#0052B4"/>
<path d="M6.65219 6.26086C6.65219 5.61254 6.1266 5.08695 5.47829 5.08695C5.17752 5.08695 4.90341 5.20016 4.69567 5.3861V4.69563H5.08696V3.91302H4.69567V3.52173H3.91306V3.91302H3.52177V4.69563H3.91306V5.3861C3.70532 5.20016 3.43121 5.08695 3.13045 5.08695C2.48213 5.08695 1.95654 5.61254 1.95654 6.26086C1.95654 6.60845 2.10775 6.92063 2.34783 7.13561V7.82608H6.26086V7.13561C6.50102 6.92063 6.65219 6.60845 6.65219 6.26086Z" fill="#FFDA44"/>
</g>
<defs>
<clipPath id="clip0_8201_10776">
<rect width="18" height="18" fill="white"/>
</clipPath>
</defs>
</svg>
