<svg width="18" height="18" viewBox="0 0 18 18" fill="none" xmlns="http://www.w3.org/2000/svg">
<g clip-path="url(#clip0_8201_11434)">
<path d="M8.99998 18C13.9705 18 18 13.9705 18 8.99998C18 4.02943 13.9705 0 8.99998 0C4.02943 0 0 4.02943 0 8.99998C0 13.9705 4.02943 18 8.99998 18Z" fill="#FFDA44"/>
<path d="M7.04362 1.56519H3.92754C3.78945 1.65958 3.65431 1.75784 3.52187 1.85955L2.73926 8.99994L3.52187 16.1403C3.65431 16.2421 3.78945 16.3403 3.92754 16.4347H7.04362V1.56519Z" fill="#FF9811"/>
<path d="M0 9.00004C0 11.9091 1.38052 14.4952 3.52175 16.1404V1.85962C1.38052 3.50486 0 6.09103 0 9.00004Z" fill="#6DA544"/>
<path d="M14.4785 5.48669V5.71187L14.4869 5.71314L14.4785 5.48669Z" fill="#FFDA44"/>
<path d="M17.2825 11.3478H15.5868L14.8695 12.1304V13.6956H13.3042V12.913H14.0868V11.3478H10.5651V12.326H9.78248V10.4617C9.54236 10.2467 9.39119 9.9345 9.39119 9.58691V4.49996C9.39119 3.85165 9.91678 3.32606 10.5651 3.32606V10.5652H12.1303L12.6674 10.1176C12.5736 9.89421 12.5216 9.64885 12.5216 9.3913V8.21739H11.3477V5.86958H13.6955C13.6955 5.47829 14.2825 5.08697 14.2825 5.08697C14.2825 5.08697 14.8695 5.47826 14.8695 5.86958V6.45655V8.21743C15.3048 8.2226 15.9965 8.21131 16.7437 8.21743C16.5474 7.8743 16.4347 7.46716 16.4347 7.04352C16.4347 6.35302 16.7328 5.73223 17.2073 5.30262C16.5233 3.78685 15.4319 2.49444 14.0725 1.56519H8.21729V16.4348H14.0725C15.7255 15.3048 16.9823 13.638 17.5921 11.6855L17.2825 11.3478Z" fill="#A2001D"/>
</g>
<defs>
<clipPath id="clip0_8201_11434">
<rect width="18" height="18" fill="white"/>
</clipPath>
</defs>
</svg>
