<svg width="18" height="18" viewBox="0 0 18 18" fill="none" xmlns="http://www.w3.org/2000/svg">
<g clip-path="url(#clip0_14_1200)">
<path d="M0 0H18V18H0V0Z" fill="#FFB700"/>
<path d="M0.748779 9L3.21323 0.748829H5.67769V17.2512H3.21675L0.748779 9Z" fill="#FF5B00"/>
<path d="M0.748779 0.748829H3.21323V17.2512H0.752295L0.748779 0.748829Z" fill="#005641"/>
<path d="M6.4231 0.748829H17.2512V17.2512H6.4231V0.748829Z" fill="#8D2029"/>
<path d="M16.2915 15.9926C16.2915 15.9926 16.3935 16.2 16.506 16.2844C16.6747 16.4074 17.0157 16.4004 17.1599 16.5445C17.3356 16.7203 17.1458 16.9453 17.1493 16.9664L17.1599 17.0859C17.1599 17.0859 17.0403 17.0859 16.9911 17.0965C16.9173 17.107 16.8856 17.1668 16.7485 17.1598C16.4005 17.1352 16.4146 16.8223 16.397 16.5551C16.3794 16.4496 16.3372 16.3195 16.3161 16.2176C16.295 16.1297 16.2915 15.9926 16.2915 15.9926Z" fill="#FFB700" stroke="black" stroke-width="0.05625"/>
<path d="M7.48486 15.9926C7.48486 15.9926 7.38291 16.2 7.27041 16.2844C7.10166 16.4074 6.76064 16.4004 6.6165 16.5445C6.44072 16.7203 6.63057 16.9453 6.62705 16.9664L6.6165 17.0859C6.6165 17.0859 6.73604 17.0859 6.78525 17.0965C6.85908 17.107 6.89072 17.1668 7.02783 17.1598C7.37588 17.1352 7.36182 16.8223 7.37939 16.5551C7.39697 16.4496 7.43916 16.3195 7.46025 16.2176C7.48135 16.1297 7.48486 15.9926 7.48486 15.9926Z" fill="#FFB700" stroke="black" stroke-width="0.05625"/>
<path d="M16.2915 2.00742C16.2915 2.00742 16.3935 1.8 16.506 1.71563C16.6747 1.59258 17.0157 1.59961 17.1599 1.45547C17.3356 1.27969 17.1458 1.05469 17.1493 1.03359L17.1599 0.914064C17.1599 0.914064 17.0403 0.914064 16.9911 0.903517C16.9173 0.89297 16.8856 0.833204 16.7485 0.840235C16.4005 0.864845 16.4146 1.17774 16.397 1.44492C16.3794 1.55039 16.3372 1.68047 16.3161 1.78242C16.295 1.87031 16.2915 2.00742 16.2915 2.00742Z" fill="#FFB700" stroke="black" stroke-width="0.05625"/>
<path d="M7.4812 2.00742C7.4812 2.00742 7.37925 1.8 7.26675 1.71563C7.098 1.59258 6.75698 1.59961 6.61284 1.45547C6.43706 1.27969 6.6269 1.05469 6.62339 1.03359L6.61284 0.914064C6.61284 0.914064 6.73237 0.914064 6.78159 0.903517C6.85542 0.89297 6.88706 0.833204 7.02417 0.840235C7.37222 0.864845 7.35815 1.17774 7.37573 1.44492C7.39331 1.55039 7.4355 1.68047 7.45659 1.78242C7.47769 1.87031 7.4812 2.00742 7.4812 2.00742Z" fill="#FFB700" stroke="black" stroke-width="0.05625"/>
<path d="M10.2234 11.8069L10.2881 11.7675L10.3162 11.8069C10.3528 11.8575 10.4568 11.8547 10.5243 11.8069L10.5778 11.7647L10.6228 11.8041C10.679 11.8575 10.7859 11.8575 10.8562 11.8041C10.904 11.7703 10.9124 11.7675 10.9406 11.7956C10.9603 11.8125 11.0165 11.8294 11.0643 11.8378C11.1543 11.8491 11.1543 11.8491 11.2049 11.7703C11.2499 11.7056 11.2556 11.6803 11.2471 11.6156C11.2393 11.5662 11.2336 11.5165 11.2303 11.4666C11.2246 11.3934 11.2274 11.3934 11.3315 11.3541C11.3832 11.3382 11.4339 11.3194 11.4834 11.2978C11.5256 11.2725 11.6437 11.1347 11.6437 11.1066C11.6437 11.1009 11.5987 11.0897 11.5424 11.0841C11.3174 11.0559 11.2809 10.9378 11.4271 10.7184C11.6606 10.3528 11.804 10.0013 11.804 9.77906C11.804 9.67781 11.8124 9.64406 11.8237 9.66656C11.8771 9.75375 11.7815 10.1278 11.6409 10.3978L11.5846 10.5047L11.6381 10.4934C11.6662 10.485 11.8462 10.4091 12.0318 10.3247C12.5437 10.0941 12.7181 10.0491 13.0499 10.0631C13.3284 10.0744 13.4437 10.1278 13.6406 10.3331C13.7446 10.4456 13.8459 10.5216 14.0287 10.6369C14.4168 10.8788 14.4337 10.9012 14.4534 11.1881C14.4731 11.4778 14.4618 11.4947 14.2424 11.5425C14.054 11.5847 13.9359 11.6719 13.9049 11.7956C13.8881 11.8575 13.9246 11.8603 14.0174 11.7984L14.0878 11.7534L14.1187 11.7984C14.1609 11.8575 14.2453 11.8575 14.3156 11.7984L14.3718 11.7562L14.4281 11.7984C14.5124 11.8687 14.6249 11.8519 14.6587 11.7647C14.6643 11.7506 14.6812 11.7534 14.7149 11.7844C14.7796 11.8406 14.9399 11.8631 14.9568 11.8181C14.9624 11.8013 14.9512 11.7619 14.9287 11.7281C14.8359 11.5875 14.8049 11.5228 14.8049 11.4469C14.8049 11.34 14.8331 11.2866 14.9568 11.2022C15.1031 11.0953 15.1481 10.9603 15.0356 10.9603C14.9681 10.9603 14.8978 10.8984 14.8528 10.8C14.7628 10.5975 14.7824 10.3725 14.9174 9.99562C15.0209 9.77388 15.0729 9.53156 15.0693 9.28688C15.0693 9.07875 15.0637 9.045 15.0187 8.92969C14.9835 8.84952 14.9401 8.77318 14.8893 8.70188L14.8106 8.59781L14.909 8.51344C15.2128 8.26313 15.1509 7.8525 14.7853 7.695C14.6728 7.64438 14.6446 7.64156 14.4478 7.64156C14.3353 7.64156 14.1524 7.65844 14.054 7.67813C13.9219 7.69903 13.7884 7.71031 13.6546 7.71188C13.4634 7.71188 13.4296 7.70625 13.3565 7.66688C13.2806 7.6275 13.2665 7.60781 13.2524 7.51219C13.2511 7.50318 13.2476 7.49463 13.2422 7.48728C13.2368 7.47993 13.2297 7.474 13.2215 7.47C13.1934 7.46156 13.0753 7.56563 13.0584 7.61063C13.0471 7.63594 13.0415 7.63312 13.0162 7.60219C12.9923 7.57154 12.9734 7.53738 12.9599 7.50094C12.9318 7.40813 12.9684 7.34063 13.0781 7.28719L13.1624 7.24781L13.1118 7.21688C13.0106 7.15219 12.8362 7.19719 12.7743 7.30125C12.7546 7.32938 12.7349 7.3575 12.7293 7.3575C12.7237 7.3575 12.6899 7.32938 12.6562 7.29281C12.524 7.16344 12.569 6.97219 12.7462 6.91594C12.839 6.885 12.9234 6.9075 12.9403 6.97219C12.9684 7.065 13.0471 6.94125 13.0331 6.82594C13.0246 6.75 13.0246 6.74719 13.0781 6.74719C13.1512 6.74719 13.3031 6.84281 13.3537 6.91594C13.4099 7.00312 13.4043 7.14094 13.3424 7.24219L13.2946 7.32094L13.3593 7.30969C13.4493 7.29 13.5393 7.23375 13.5843 7.16344C13.608 7.11865 13.6214 7.06911 13.6233 7.01847C13.6252 6.96783 13.6158 6.91741 13.5956 6.87094C13.5534 6.795 13.559 6.78375 13.6209 6.80906C13.7221 6.85125 13.7784 6.89906 13.8178 6.98063C13.8571 7.05375 13.8599 7.07063 13.8403 7.14938C13.8268 7.19732 13.8059 7.24287 13.7784 7.28438C13.7446 7.32938 13.7418 7.33781 13.7699 7.33781C13.8206 7.33781 13.9218 7.29 13.9584 7.25344C13.9781 7.23094 14.0062 7.18312 14.0203 7.14094L14.0484 7.07062L14.0765 7.12687C14.1187 7.20281 14.2031 7.27313 14.3043 7.31813C14.414 7.36313 14.459 7.36594 14.4028 7.32375C14.3634 7.29562 14.2903 7.08469 14.3156 7.065C14.4369 7.13297 14.5478 7.21824 14.6446 7.31813C14.8049 7.46156 14.9062 7.50938 15.0524 7.50938C15.2409 7.50938 15.3506 7.34625 15.2662 7.19156C15.2184 7.10156 15.1087 7.0875 15.0412 7.16344C15.0131 7.2 15.0046 7.22812 15.0131 7.2675C15.0243 7.3125 15.0215 7.31813 14.9793 7.31813C14.9231 7.31813 14.8162 7.24781 14.6249 7.0875C14.3587 6.8584 14.0527 6.68013 13.7221 6.56156C13.4982 6.5098 13.2669 6.49742 13.0387 6.525C12.8587 6.55875 12.6449 6.66281 12.5268 6.7725C12.3215 6.96938 12.3187 7.23094 12.5184 7.47L12.5746 7.5375L12.5381 7.59938C12.5106 7.64369 12.4969 7.69522 12.4989 7.74735C12.5009 7.79947 12.5185 7.8498 12.5493 7.89188C12.5774 7.93125 12.6056 7.96219 12.614 7.96219C12.6196 7.96219 12.6253 7.93688 12.6281 7.90594C12.6337 7.83 12.6674 7.77937 12.7237 7.75969C12.7743 7.74 12.8081 7.75125 13.0387 7.84406C13.2834 7.93969 13.6856 7.94531 14.1131 7.86094C14.2984 7.81815 14.4912 7.82007 14.6756 7.86656C14.8781 7.95094 14.9231 8.1675 14.7768 8.33063C14.7121 8.40375 14.6531 8.43187 14.4478 8.48812C14.269 8.53527 14.0832 8.54956 13.8993 8.53031C13.5956 8.5275 13.4859 8.53312 13.3649 8.55844C13.2271 8.58656 13.1456 8.58938 12.7518 8.58094L12.2934 8.56969L12.344 8.60906C12.3711 8.63314 12.4003 8.65478 12.4312 8.67375C12.4678 8.69344 12.4649 8.69625 12.4143 8.71594C12.3862 8.72719 12.3187 8.73563 12.2653 8.73563H12.1724L12.1612 8.81438C12.1536 8.85149 12.1536 8.88976 12.1612 8.92688C12.1724 8.955 12.1668 8.96063 12.1387 8.94938C12.119 8.94094 12.0656 8.92688 12.0178 8.91844C11.9695 8.90809 11.9224 8.89302 11.8771 8.87344C11.8237 8.84531 11.8181 8.84531 11.7984 8.88187C11.7815 8.91 11.624 9.02813 11.6015 9.02813C11.5913 8.95516 11.5705 8.88408 11.5396 8.81719C11.5115 8.75813 11.4862 8.69062 11.4778 8.67094C11.4693 8.64 11.4637 8.63719 11.4496 8.6625C11.4412 8.67656 11.4299 8.71875 11.4215 8.7525C11.4117 8.79805 11.3946 8.84173 11.3709 8.88187L11.3287 8.94375L11.3006 8.89031C11.2724 8.83406 11.2274 8.77219 11.2106 8.77219C11.2049 8.77219 11.1965 8.78906 11.1909 8.81438C11.1768 8.85938 11.0671 8.99156 11.039 8.99156C11.0306 8.99156 11.0221 8.955 11.0221 8.90719C11.0221 8.865 11.0137 8.82562 11.0024 8.82562C10.9912 8.82562 10.9828 8.83969 10.9828 8.85375C10.9828 8.8875 10.8899 8.99437 10.8562 8.99437C10.8449 8.99437 10.8224 9.00562 10.8084 9.0225C10.7746 9.05906 10.7465 9.05344 10.7606 9.01125C10.7645 8.97523 10.7607 8.93878 10.7493 8.90438L10.7212 8.81438C10.7156 8.80031 10.6818 8.80594 10.6087 8.82844C10.4962 8.865 10.4568 8.85656 10.5159 8.81156C10.5384 8.79469 10.5721 8.73563 10.589 8.68219C10.6087 8.62594 10.6368 8.57812 10.6509 8.5725C10.6706 8.56687 10.6706 8.5725 10.6453 8.60625C10.629 8.62765 10.6183 8.65279 10.6143 8.67938C10.6143 8.69344 10.6003 8.73 10.5862 8.76094C10.5693 8.78906 10.5581 8.81719 10.5609 8.82C10.5637 8.82281 10.6087 8.80594 10.6593 8.78344L10.7493 8.73844V8.77781C10.7493 8.80031 10.7606 8.85656 10.7746 8.90438L10.7999 8.98875L10.8618 8.96063C10.9237 8.9325 10.9828 8.83125 10.9828 8.74969C10.9828 8.71031 11.0053 8.71594 11.0165 8.75813C11.0165 8.76938 11.0334 8.81719 11.0446 8.86219L11.0728 8.94094L11.1149 8.89031C11.1403 8.86219 11.1684 8.80594 11.1796 8.76937C11.2021 8.70187 11.2359 8.67094 11.2359 8.72156C11.2359 8.75531 11.3315 8.88469 11.3484 8.87344C11.3596 8.86781 11.3765 8.82 11.3906 8.76656C11.4187 8.65406 11.4609 8.58094 11.489 8.59781C11.5003 8.60344 11.5031 8.61469 11.4974 8.62594C11.4918 8.63156 11.5143 8.70469 11.5481 8.78344C11.5725 8.84247 11.5969 8.90153 11.6212 8.96063C11.6324 8.98875 11.6437 8.98875 11.714 8.92406C11.7562 8.88469 11.7984 8.8425 11.8012 8.82844C11.8096 8.80594 11.8181 8.80875 11.8574 8.83406C11.9404 8.87787 12.0312 8.90464 12.1246 8.91281C12.1303 8.90719 12.1359 8.85656 12.1359 8.80031L12.1387 8.69625L12.1949 8.7075C12.2231 8.71594 12.2878 8.71594 12.3356 8.7075L12.4199 8.69625L12.344 8.64C12.3018 8.61188 12.2596 8.57531 12.2484 8.55844C12.2399 8.54156 12.2006 8.52469 12.1584 8.52188C12.0431 8.51063 11.8378 8.39813 11.8378 8.34188C11.8378 8.33063 11.8659 8.35031 11.8996 8.38125C11.9784 8.45156 12.0853 8.49375 12.1809 8.49375H12.2484L12.2062 8.4375C12.1761 8.39389 12.1569 8.34376 12.1499 8.29125C12.1443 8.20687 12.1359 8.19562 12.0487 8.13656C11.9981 8.10074 11.9511 8.06025 11.9081 8.01563L11.8603 7.96219L11.8349 8.02687C11.8209 8.06344 11.8068 8.09156 11.7984 8.09156C11.7928 8.09156 11.7646 8.06906 11.7421 8.04375C11.7263 8.02542 11.7072 8.01016 11.6859 7.99875C11.6774 7.99875 11.6578 8.0325 11.6353 8.07469L11.5959 8.15062L11.5678 8.10844C11.5427 8.07395 11.5145 8.04193 11.4834 8.01281C11.4496 7.98469 11.4356 7.96219 11.4468 7.96219C11.4581 7.96219 11.4946 7.99031 11.5312 8.02687L11.5931 8.09156L11.6212 8.04375C11.6374 8.01062 11.6424 7.97308 11.6353 7.93688C11.624 7.88625 11.6268 7.88344 11.6437 7.91719C11.6679 7.94893 11.6963 7.97731 11.7281 8.00156L11.7899 8.05219L11.8321 7.97625C11.8743 7.8975 11.8743 7.8975 11.8912 7.94531C11.9193 8.00438 12.1021 8.15625 12.2568 8.24344C12.2849 8.2575 12.2737 8.2125 12.2287 8.10281C12.2152 8.06677 12.2076 8.02878 12.2062 7.99031C12.2062 7.93969 12.1921 7.91719 12.1274 7.86656C12.0872 7.84085 12.0536 7.8061 12.0292 7.76509C12.0047 7.72407 11.9902 7.67792 11.9868 7.63031C11.9784 7.5825 11.9615 7.53188 11.9474 7.515C11.9306 7.48688 11.9249 7.50375 11.9306 7.58812C11.9362 7.64719 11.9278 7.72031 11.9137 7.75125L11.8912 7.8075L11.8743 7.75969C11.8631 7.73437 11.8181 7.68937 11.7759 7.66125C11.7337 7.63312 11.7028 7.605 11.7084 7.59938C11.714 7.59375 11.759 7.61906 11.8068 7.65563C11.8828 7.71469 11.8968 7.72031 11.9081 7.695C11.9193 7.66688 11.9081 7.5375 11.8856 7.4475C11.8743 7.4025 11.8743 7.4025 11.9306 7.45875C11.9699 7.49813 11.9924 7.54875 12.0121 7.63312C12.0346 7.74 12.0459 7.75969 12.1443 7.84688C12.2034 7.90031 12.2568 7.93969 12.2596 7.93688C12.2653 7.93125 12.2709 7.79625 12.2765 7.63312C12.2878 7.32094 12.2765 7.245 12.2006 7.14938L12.1612 7.09875L12.2231 7.03406C12.2924 6.96776 12.3387 6.88104 12.3553 6.78656L12.3665 6.71063L12.299 6.77531C12.2428 6.82875 12.2146 6.84 12.1499 6.84C12.0853 6.84 12.0599 6.82875 12.0178 6.78375C11.952 6.72049 11.8719 6.67416 11.7843 6.64875C11.7506 6.6375 11.7393 6.64313 11.7393 6.66563C11.7393 6.6825 11.7224 6.7275 11.6999 6.76969L11.6606 6.84281L11.5762 6.75844C11.5228 6.71063 11.4637 6.66844 11.4159 6.65719C11.3006 6.62906 11.2949 6.62906 11.2949 6.71625C11.2949 6.84844 11.2387 6.87375 11.1374 6.78656C11.0587 6.71906 10.9968 6.70219 10.8478 6.72188L10.7353 6.73313L10.7549 6.78375C10.7718 6.82594 10.769 6.84563 10.7324 6.89344C10.6734 6.97219 10.5974 7.00594 10.4793 7.00594C10.4231 7.00594 10.3556 7.01719 10.3274 7.03125C10.2993 7.04531 10.2262 7.05938 10.1671 7.065C10.1109 7.07063 10.0462 7.08188 10.0265 7.0875C9.99838 7.09875 9.99838 7.0875 10.0068 7.02563C10.0209 6.93 9.95057 6.85688 9.8465 6.85688C9.70869 6.85688 9.64682 6.98063 9.70025 7.14375C9.71119 7.17894 9.72058 7.2146 9.72838 7.25063C9.76532 7.32096 9.81489 7.38388 9.87463 7.43625C9.94775 7.50937 10.0153 7.58531 10.0265 7.605C10.0491 7.63433 10.0779 7.65833 10.1109 7.67531L10.1728 7.70906L10.1643 7.64156C10.1559 7.56844 10.1699 7.55719 10.2093 7.61063C10.2234 7.6275 10.2599 7.65844 10.2881 7.67531C10.3359 7.70344 10.3443 7.70344 10.3443 7.68094C10.3443 7.66406 10.3528 7.6275 10.364 7.59938L10.3837 7.54875L10.4203 7.61906C10.4399 7.65844 10.5046 7.74562 10.5637 7.81594C10.679 7.94812 10.7521 8.09719 10.7156 8.13094C10.6987 8.145 10.6593 8.145 10.5749 8.12813C10.5131 8.11688 10.4343 8.10844 10.4006 8.11406C10.3359 8.1225 10.3303 8.11406 10.3724 8.06344C10.4146 8.00719 10.4062 7.99875 10.3218 7.99875C10.2234 7.99875 9.97869 7.95094 9.88307 7.91437C9.79307 7.87781 9.77057 7.88625 9.74244 7.97344L9.69463 8.13094L9.6665 8.21531L9.76775 8.20687C9.81995 8.20141 9.87166 8.19201 9.92244 8.17875C9.94236 8.17211 9.96335 8.16925 9.98432 8.17031C9.98994 8.17313 9.97588 8.20688 9.95619 8.24625L9.91682 8.31375L9.97869 8.3025C10.0124 8.29406 10.0631 8.27719 10.0912 8.26312C10.1418 8.24062 10.1474 8.24062 10.1868 8.30531C10.2346 8.38125 10.2712 8.37844 10.2796 8.29688C10.2881 8.2125 10.3162 8.22375 10.3696 8.33625C10.4203 8.44313 10.4709 8.4825 10.4821 8.42063C10.4849 8.39813 10.5103 8.36438 10.5412 8.34188C10.6031 8.29969 10.6481 8.31375 10.6734 8.37844C10.7015 8.44875 10.6396 8.51906 10.4653 8.62594C10.3038 8.7151 10.1648 8.84001 10.059 8.99113C9.95325 9.14225 9.88344 9.31556 9.85494 9.49781C9.8015 9.82969 9.96744 10.1728 10.2937 10.4231C10.4512 10.5413 10.7015 10.665 10.6846 10.62C10.6171 10.4147 10.6199 10.0294 10.6874 9.96469C10.6987 9.95344 10.6959 9.99281 10.679 10.0519C10.6228 10.2741 10.6509 10.4484 10.7915 10.8591C10.9153 11.2303 10.8984 11.3906 10.7184 11.4947C10.6621 11.5284 10.6256 11.5341 10.4709 11.5312C10.3021 11.5312 10.2824 11.5313 10.229 11.5763C10.1644 11.6422 10.1221 11.7268 10.1081 11.8181C10.1081 11.8547 10.1474 11.8491 10.2206 11.8069H10.2234Z" fill="#FFB700" stroke="black" stroke-width="0.28"/>
<path d="M12.9515 11.7984L13.0218 11.7534L13.0696 11.7984C13.1315 11.8575 13.2075 11.8547 13.2665 11.7956C13.2946 11.7675 13.3171 11.7506 13.32 11.7534L13.3453 11.7984C13.3593 11.8237 13.3903 11.835 13.4465 11.8406C13.5112 11.8434 13.5309 11.8406 13.559 11.8012L13.5871 11.7534L13.6575 11.7984C13.8487 11.9222 13.9499 11.7928 13.8628 11.5369C13.8206 11.4075 13.8459 11.3344 13.9837 11.1712C14.0428 11.1009 14.0906 11.025 14.0906 11.0025C14.0906 10.9716 14.0793 10.9659 14.0006 10.9687C13.9274 10.9687 13.905 10.9603 13.8656 10.9181C13.8009 10.8478 13.8065 10.7662 13.8768 10.6762L13.9331 10.6059L13.8318 10.5384C13.751 10.4787 13.6757 10.4119 13.6068 10.3387C13.5454 10.2663 13.4704 10.2066 13.3859 10.1632C13.3015 10.1198 13.2093 10.0934 13.1146 10.0856L12.9825 10.0716V10.1728C12.9825 10.2994 13.0443 10.4231 13.2075 10.6312C13.3931 10.8675 13.4043 10.9041 13.4128 11.2134L13.4212 11.475L13.365 11.5256C13.3171 11.5706 13.2975 11.5791 13.14 11.5875C12.9909 11.5959 12.9571 11.6044 12.915 11.6437C12.8656 11.6798 12.8315 11.7329 12.8193 11.7928C12.8109 11.835 12.8137 11.8434 12.8446 11.8434C12.8643 11.8434 12.9121 11.8237 12.9515 11.7984ZM8.95214 11.1234C8.96915 11.0985 8.97888 11.0692 8.98026 11.0391C8.98026 11.0109 8.99714 10.9997 9.07026 10.9884L9.15745 10.9772L9.1012 10.9294C9.03089 10.8731 9.02245 10.8309 9.08433 10.8309C9.1462 10.8309 9.24745 10.7691 9.26433 10.7212C9.27276 10.6987 9.26433 10.6706 9.25308 10.6566C9.21933 10.6172 9.15464 10.6228 9.14339 10.6678C9.12933 10.7128 9.10964 10.7128 9.05901 10.6678C8.9887 10.5975 8.98589 10.4541 9.05901 10.3697C9.08995 10.3303 9.08995 10.3303 9.04776 10.2881C9.00276 10.2431 8.96901 10.1587 8.99151 10.1362C8.99714 10.1306 9.0337 10.1362 9.07026 10.1503C9.12651 10.1672 9.1462 10.1672 9.1687 10.1503C9.23339 10.0969 9.16308 10.0294 9.0562 10.0462C9.0112 10.0519 8.99433 10.0462 8.9887 10.0237C8.98308 10.0069 8.94651 9.98437 8.90433 9.97312C8.82839 9.95344 8.82839 9.95344 8.82839 10.0069C8.82839 10.0631 8.79464 10.0744 8.73276 10.0378C8.68214 10.0097 8.63433 10.0322 8.63433 10.0856C8.63433 10.1362 8.68214 10.1587 8.77495 10.1531C8.84245 10.1503 8.84526 10.2009 8.78058 10.2741L8.73276 10.3303L8.76932 10.3837C8.82557 10.4625 8.81995 10.5947 8.76089 10.6622L8.71307 10.7128L8.68214 10.6706C8.63714 10.6144 8.57808 10.6172 8.5612 10.6791C8.55276 10.7184 8.5612 10.7353 8.61183 10.7803C8.64558 10.8084 8.6962 10.8309 8.72151 10.8309C8.7862 10.8309 8.78339 10.8844 8.71589 10.935L8.65964 10.9772L8.74401 10.9884C8.78901 10.9969 8.82839 11.0081 8.82839 11.0166C8.82839 11.0531 8.88464 11.1628 8.90151 11.1628C8.91276 11.1628 8.93526 11.1431 8.95214 11.1206V11.1234Z" fill="#FFB700" stroke="black" stroke-width="0.28"/>
<path d="M10.0265 10.6566C10.1024 10.6284 10.2655 10.4878 10.2655 10.4569C10.2655 10.4456 10.2205 10.395 10.1643 10.3444C10.0518 10.2431 9.92523 10.0659 9.89148 9.96468C9.8746 9.90843 9.79304 9.81843 9.56241 9.59343L9.25585 9.29812L9.16866 9.32062C9.11804 9.33187 9.05897 9.34312 9.03647 9.34312C8.99429 9.34312 8.99429 9.34312 9.05054 9.38812L9.10679 9.43312L9.19116 9.38812C9.2671 9.34312 9.26991 9.34312 9.27835 9.37968C9.28397 9.39937 9.27272 9.43593 9.25022 9.46125C9.23054 9.48656 9.21929 9.5175 9.2221 9.52594C9.23054 9.53437 9.21085 9.55406 9.17991 9.57093C9.12366 9.59906 9.08147 9.69187 9.12647 9.69187C9.16866 9.69187 9.25866 9.57937 9.24741 9.54281C9.24179 9.52312 9.24741 9.50344 9.25304 9.49781C9.2896 9.47812 9.28679 9.56531 9.25304 9.61031C9.23054 9.63281 9.21929 9.66093 9.22491 9.67218C9.23054 9.68062 9.21085 9.70031 9.17991 9.71718C9.12366 9.74531 9.08147 9.83812 9.12647 9.83812C9.17147 9.83812 9.25866 9.73125 9.25022 9.69187C9.2446 9.67218 9.2446 9.64968 9.25304 9.64406C9.27835 9.63281 9.2896 9.70031 9.26991 9.73406C9.26474 9.74355 9.26204 9.75419 9.26204 9.765C9.26204 9.77581 9.26474 9.78644 9.26991 9.79593C9.2896 9.8325 9.26991 9.9 9.23335 9.9225C9.21929 9.93093 9.22772 9.95062 9.2671 9.97875C9.32335 10.0181 9.32335 10.0237 9.32335 10.2037C9.32335 10.3556 9.32898 10.395 9.3571 10.4203C9.38523 10.4484 9.39085 10.4484 9.39085 10.4203C9.39085 10.3922 9.4471 10.3528 9.48929 10.3528C9.50335 10.3528 9.58491 10.4231 9.6721 10.5075C9.75929 10.5919 9.8521 10.6678 9.87741 10.6706L9.93929 10.6819C9.94772 10.6819 9.9871 10.6734 10.0265 10.6537V10.6566ZM9.08991 9.9225C9.08991 9.87468 8.98866 9.82125 8.86772 9.81C8.76929 9.79593 8.76929 9.79875 8.76929 9.84656C8.76929 9.88593 8.78335 9.90281 8.85366 9.93093C8.96054 9.97875 9.08991 9.97312 9.08991 9.9225Z" fill="#FFB700" stroke="black" stroke-width="0.28"/>
<path d="M9.19965 9.91688C9.25028 9.87188 9.27278 9.82125 9.24184 9.82125C9.20809 9.82125 9.11809 9.9 9.11809 9.93375C9.11809 9.97875 9.13496 9.97594 9.20246 9.91688H9.19965ZM9.09559 9.77344C9.0984 9.74531 9.08153 9.72844 9.0309 9.70313C8.9184 9.65531 8.78903 9.63 8.75809 9.65531C8.69903 9.70313 8.7384 9.765 8.83121 9.77625C8.87059 9.77906 8.92121 9.79031 8.94653 9.80156C9.01965 9.82969 9.08715 9.81563 9.09559 9.77344ZM9.09559 9.62438C9.10121 9.58781 9.0759 9.57375 8.87059 9.50063C8.7159 9.44438 8.6484 9.4725 8.69903 9.56531C8.7159 9.59625 8.74403 9.61031 8.80871 9.62156C8.85653 9.62719 8.92121 9.64125 8.95215 9.6525C9.03653 9.68063 9.08715 9.66938 9.09278 9.62438H9.09559ZM9.19684 9.48656C9.22778 9.45563 9.25309 9.41906 9.25309 9.40219C9.25309 9.36 9.13215 9.43875 9.11528 9.495C9.0984 9.55969 9.12934 9.55688 9.19965 9.48656H9.19684ZM9.09559 9.47813C9.10121 9.43313 9.02809 9.39375 8.88184 9.36281C8.77215 9.3375 8.72434 9.35156 8.73278 9.40219C8.7384 9.43031 8.77496 9.45 8.8734 9.48094C9.03934 9.53156 9.08715 9.53156 9.09559 9.47813ZM9.23621 9.27C9.42746 9.18563 9.44153 8.97469 9.26434 8.91844C9.19121 8.89594 9.14621 8.91 9.11809 8.95781C9.09559 8.99719 9.10965 9.06469 9.13778 9.06469C9.14903 9.06469 9.15746 9.07875 9.15746 9.09281C9.15746 9.16875 8.87059 9.19969 8.75246 9.14063C8.71028 9.12094 8.69621 9.06469 8.72715 9.06469C8.75528 9.06469 8.77215 9.00844 8.75809 8.97188C8.74121 8.91563 8.68496 8.89875 8.60903 8.92125C8.43184 8.96625 8.43746 9.17438 8.61746 9.25875C8.81661 9.33184 9.03455 9.3358 9.23621 9.27Z" fill="#FFB700" stroke="black" stroke-width="0.28"/>
<path d="M9.12092 9.10687C9.13217 9.09562 9.12654 9.07875 9.10967 9.0675C9.07029 9.03656 9.07311 8.98875 9.11529 8.93531C9.14904 8.89594 9.15186 8.83406 9.16311 8.22937C9.18279 7.18594 9.26154 6.40125 9.36279 6.21C9.40498 6.13687 9.39936 6.13687 9.29248 6.21C9.15227 6.30769 9.03907 6.43927 8.96342 6.5925C8.78904 6.91594 8.72998 7.35187 8.72998 8.28562C8.72998 8.81437 8.73279 8.88469 8.76373 8.9325C8.79186 8.98312 8.79186 9 8.77498 9.05062C8.76092 9.08156 8.75529 9.11531 8.76092 9.12094C8.80029 9.1575 9.08154 9.14906 9.12092 9.10687ZM10.6987 8.11125C10.7072 8.10281 10.6931 8.055 10.6706 8.01C10.6369 7.93687 10.6228 7.92562 10.575 7.92562C10.3501 7.90608 10.1308 7.84505 9.92811 7.74562C9.78467 7.68094 9.73123 7.66687 9.71717 7.68375C9.67217 7.72594 9.74529 7.82437 9.85779 7.87781C10.0233 7.93747 10.1968 7.97253 10.3725 7.98187C10.4484 7.98187 10.4512 7.98187 10.4062 8.04656L10.3781 8.09156H10.4625L10.6031 8.10844C10.6875 8.12812 10.6875 8.12812 10.6987 8.11125Z" fill="#FFB700" stroke="black" stroke-width="0.28"/>
<path d="M11.5875 8.58094C11.5875 8.55281 11.506 8.4825 11.4272 8.43469C11.3625 8.39813 11.3513 8.39531 11.3513 8.42625C11.3513 8.47125 11.3119 8.58656 11.295 8.58656C11.2866 8.58656 11.2725 8.56406 11.2669 8.53875C11.2585 8.51063 11.2275 8.45438 11.1966 8.41781L11.1403 8.3475L11.101 8.41219C11.0616 8.47406 10.9913 8.53313 10.9603 8.53313C10.9547 8.53313 10.9519 8.49938 10.9603 8.46281C10.9631 8.41781 10.9603 8.38406 10.9463 8.37844C10.935 8.37 10.9238 8.37281 10.9238 8.38406C10.9238 8.40656 10.8281 8.51344 10.8113 8.51344C10.8 8.51344 10.7888 8.48531 10.7831 8.44594L10.7606 8.31094C10.755 8.27719 10.7691 8.29969 10.7888 8.36719L10.8338 8.4825L10.8788 8.41219C10.8991 8.38313 10.9144 8.35078 10.9238 8.31656C10.9238 8.3025 10.9322 8.29688 10.9435 8.3025C10.9547 8.30813 10.9688 8.35594 10.9744 8.40656L10.9885 8.50219L11.0391 8.44594C11.0656 8.41772 11.09 8.38765 11.1122 8.35594C11.1319 8.32219 11.1347 8.32219 11.1769 8.35594C11.1994 8.37844 11.236 8.42625 11.2585 8.46563C11.281 8.505 11.3006 8.53313 11.3035 8.53031L11.3203 8.44031L11.3316 8.35594C11.3344 8.34188 11.4835 8.44031 11.5397 8.48813C11.5735 8.51906 11.6072 8.54156 11.6128 8.53594C11.6185 8.53031 11.6241 8.48531 11.6241 8.43188C11.6241 8.35313 11.6156 8.33063 11.5678 8.28844C11.5116 8.23781 11.5116 8.23781 11.4891 8.27438C11.461 8.32219 11.43 8.32219 11.43 8.27438C11.43 8.24063 11.3231 8.10844 11.2978 8.10844C11.2894 8.10844 11.2669 8.13656 11.2472 8.17313C11.2275 8.20969 11.205 8.23781 11.1994 8.23781C11.1713 8.23781 11.0222 8.06906 11.0222 8.04094C11.0222 8.01844 11.0335 8.02406 11.0588 8.06344C11.0839 8.10038 11.1132 8.13434 11.146 8.16469C11.2022 8.21531 11.2247 8.20406 11.2472 8.10563C11.2556 8.0775 11.2669 8.055 11.2753 8.055C11.2978 8.055 11.4272 8.19281 11.4441 8.23781L11.4638 8.28281L11.4778 8.23219C11.4947 8.17031 11.5144 8.17031 11.5425 8.22656C11.5538 8.24906 11.61 8.29969 11.6663 8.33344L11.7703 8.40094L11.79 8.33344C11.8013 8.29688 11.8181 8.27719 11.8238 8.28844C11.835 8.3025 11.8069 8.415 11.7872 8.4375C11.7872 8.44031 11.7506 8.42063 11.7141 8.39531L11.6438 8.34469V8.43469C11.6438 8.4825 11.6381 8.54156 11.6325 8.56406C11.6185 8.60906 11.5847 8.62031 11.5847 8.58094H11.5875ZM11.0672 7.86656C10.9435 7.76531 10.9266 7.74281 10.9266 7.69219L10.9294 7.64156L10.9378 7.68938C10.9435 7.7175 10.9772 7.7625 11.0166 7.79625L11.0897 7.8525L11.1319 7.80188C11.1572 7.77375 11.1769 7.74 11.1769 7.72875C11.1769 7.695 11.1825 7.69781 11.2669 7.77094C11.34 7.83563 11.3428 7.83563 11.3513 7.79344C11.3597 7.77094 11.3569 7.72594 11.3513 7.695C11.3231 7.61063 11.3288 7.59938 11.3653 7.65L11.4328 7.72875C11.461 7.75969 11.4638 7.75969 11.475 7.72031C11.4835 7.695 11.4891 7.65281 11.4891 7.62469V7.57125L11.5538 7.64719C11.6185 7.72031 11.6241 7.72313 11.641 7.68656C11.655 7.66688 11.6635 7.61906 11.6635 7.5825C11.6635 7.53188 11.6691 7.52063 11.6803 7.5375C11.7028 7.57125 11.6888 7.65563 11.6494 7.72875L11.6213 7.785L11.5847 7.72594C11.5369 7.65281 11.52 7.65281 11.4919 7.73156C11.4638 7.8075 11.4441 7.81313 11.416 7.75406C11.3991 7.7175 11.3935 7.72313 11.3822 7.80188L11.3681 7.88625L11.2838 7.82156L11.1994 7.75688L11.1572 7.79906C11.1375 7.82438 11.1206 7.85531 11.1206 7.86656C11.1206 7.89469 11.0981 7.89469 11.0672 7.86656ZM12.1641 7.48406C12.1219 7.44469 12.091 7.40531 12.0966 7.39969C12.105 7.39125 12.1106 7.38844 12.1135 7.39406C12.1407 7.42307 12.1688 7.45121 12.1978 7.47844C12.2935 7.57969 12.2738 7.5825 12.1669 7.48406H12.1641ZM10.7016 7.33219C10.6622 7.27594 10.665 7.24219 10.7156 7.18031C10.7494 7.13813 10.7663 7.1325 10.8281 7.14094C10.8703 7.14375 10.9575 7.18031 11.0222 7.21969C11.1157 7.27554 11.2227 7.30472 11.3316 7.30406L11.2838 7.22531C11.2219 7.1325 11.2219 7.12125 11.295 7.1775C11.3681 7.23656 11.4553 7.25344 11.6522 7.24781L11.7478 7.245L11.6916 7.18875C11.6156 7.11281 11.6381 7.10438 11.7253 7.18031C11.8041 7.25063 11.8013 7.25625 11.6297 7.27313C11.5582 7.28035 11.4859 7.2756 11.416 7.25906C11.3203 7.23094 11.3147 7.23375 11.3344 7.26469C11.3456 7.28438 11.3625 7.29844 11.371 7.29844C11.3822 7.29844 11.3906 7.30969 11.3906 7.32094C11.3906 7.3575 11.1825 7.32375 11.0813 7.27594C10.8563 7.16063 10.8281 7.14938 10.7719 7.16625C10.7569 7.17201 10.7432 7.1807 10.7316 7.19181C10.72 7.20291 10.7108 7.21622 10.7044 7.23094C10.6678 7.32375 10.8 7.39688 10.8535 7.31531C10.8703 7.29 10.8675 7.27594 10.8394 7.245C10.8 7.20563 10.8056 7.2 10.8563 7.21688C10.8928 7.23094 10.8956 7.31813 10.8619 7.35188C10.8253 7.38844 10.7353 7.38 10.7016 7.33219Z" fill="black" stroke="black" stroke-width="0.28"/>
<path d="M11.5987 7.10437C11.5705 7.07625 11.593 7.07062 11.7196 7.06781C11.8771 7.065 11.9727 7.03969 12.0852 6.96656C12.1752 6.91031 12.2005 6.92156 12.1133 6.98062C12.0374 7.03687 11.9165 7.07625 11.7955 7.0875L11.6521 7.10719C11.6296 7.11281 11.6043 7.11 11.5958 7.10437H11.5987Z" fill="black" stroke="black" stroke-width="0.28"/>
<path d="M10.2234 11.8069L10.2881 11.7675L10.3162 11.8069C10.3528 11.8575 10.4568 11.8547 10.5243 11.8069L10.5778 11.7647L10.6228 11.8041C10.679 11.8575 10.7859 11.8575 10.8562 11.8041C10.904 11.7703 10.9124 11.7675 10.9406 11.7956C10.9603 11.8125 11.0165 11.8294 11.0643 11.8378C11.1543 11.8491 11.1543 11.8491 11.2049 11.7703C11.2499 11.7056 11.2556 11.6803 11.2471 11.6156C11.2393 11.5662 11.2336 11.5165 11.2303 11.4666C11.2246 11.3934 11.2274 11.3934 11.3315 11.3541C11.3832 11.3382 11.4339 11.3194 11.4834 11.2978C11.5256 11.2725 11.6437 11.1347 11.6437 11.1066C11.6437 11.1009 11.5987 11.0897 11.5424 11.0841C11.3174 11.0559 11.2809 10.9378 11.4271 10.7184C11.6606 10.3528 11.804 10.0013 11.804 9.77906C11.804 9.67781 11.8124 9.64406 11.8237 9.66656C11.8771 9.75375 11.7815 10.1278 11.6409 10.3978L11.5846 10.5047L11.6381 10.4934C11.6662 10.485 11.8462 10.4091 12.0318 10.3247C12.5437 10.0941 12.7181 10.0491 13.0499 10.0631C13.3284 10.0744 13.4437 10.1278 13.6406 10.3331C13.7446 10.4456 13.8459 10.5216 14.0287 10.6369C14.4168 10.8788 14.4337 10.9012 14.4534 11.1881C14.4731 11.4778 14.4618 11.4947 14.2424 11.5425C14.054 11.5847 13.9359 11.6719 13.9049 11.7956C13.8881 11.8575 13.9246 11.8603 14.0174 11.7984L14.0878 11.7534L14.1187 11.7984C14.1609 11.8575 14.2453 11.8575 14.3156 11.7984L14.3718 11.7562L14.4281 11.7984C14.5124 11.8687 14.6249 11.8519 14.6587 11.7647C14.6643 11.7506 14.6812 11.7534 14.7149 11.7844C14.7796 11.8406 14.9399 11.8631 14.9568 11.8181C14.9624 11.8013 14.9512 11.7619 14.9287 11.7281C14.8359 11.5875 14.8049 11.5228 14.8049 11.4469C14.8049 11.34 14.8331 11.2866 14.9568 11.2022C15.1031 11.0953 15.1481 10.9603 15.0356 10.9603C14.9681 10.9603 14.8978 10.8984 14.8528 10.8C14.7628 10.5975 14.7824 10.3725 14.9174 9.99562C15.0209 9.77388 15.0729 9.53156 15.0693 9.28688C15.0693 9.07875 15.0637 9.045 15.0187 8.92969C14.9835 8.84952 14.9401 8.77318 14.8893 8.70188L14.8106 8.59781L14.909 8.51344C15.2128 8.26313 15.1509 7.8525 14.7853 7.695C14.6728 7.64438 14.6446 7.64156 14.4478 7.64156C14.3353 7.64156 14.1524 7.65844 14.054 7.67813C13.9219 7.69903 13.7884 7.71031 13.6546 7.71188C13.4634 7.71188 13.4296 7.70625 13.3565 7.66688C13.2806 7.6275 13.2665 7.60781 13.2524 7.51219C13.2511 7.50318 13.2476 7.49463 13.2422 7.48728C13.2368 7.47993 13.2297 7.474 13.2215 7.47C13.1934 7.46156 13.0753 7.56563 13.0584 7.61063C13.0471 7.63594 13.0415 7.63312 13.0162 7.60219C12.9923 7.57154 12.9734 7.53738 12.9599 7.50094C12.9318 7.40813 12.9684 7.34063 13.0781 7.28719L13.1624 7.24781L13.1118 7.21688C13.0106 7.15219 12.8362 7.19719 12.7743 7.30125C12.7546 7.32938 12.7349 7.3575 12.7293 7.3575C12.7237 7.3575 12.6899 7.32938 12.6562 7.29281C12.524 7.16344 12.569 6.97219 12.7462 6.91594C12.839 6.885 12.9234 6.9075 12.9403 6.97219C12.9684 7.065 13.0471 6.94125 13.0331 6.82594C13.0246 6.75 13.0246 6.74719 13.0781 6.74719C13.1512 6.74719 13.3031 6.84281 13.3537 6.91594C13.4099 7.00312 13.4043 7.14094 13.3424 7.24219L13.2946 7.32094L13.3593 7.30969C13.4493 7.29 13.5393 7.23375 13.5843 7.16344C13.608 7.11865 13.6214 7.06911 13.6233 7.01847C13.6252 6.96783 13.6158 6.91741 13.5956 6.87094C13.5534 6.795 13.559 6.78375 13.6209 6.80906C13.7221 6.85125 13.7784 6.89906 13.8178 6.98063C13.8571 7.05375 13.8599 7.07063 13.8403 7.14938C13.8268 7.19732 13.8059 7.24287 13.7784 7.28438C13.7446 7.32938 13.7418 7.33781 13.7699 7.33781C13.8206 7.33781 13.9218 7.29 13.9584 7.25344C13.9781 7.23094 14.0062 7.18312 14.0203 7.14094L14.0484 7.07062L14.0765 7.12687C14.1187 7.20281 14.2031 7.27313 14.3043 7.31813C14.414 7.36313 14.459 7.36594 14.4028 7.32375C14.3634 7.29562 14.2903 7.08469 14.3156 7.065C14.4369 7.13297 14.5478 7.21824 14.6446 7.31813C14.8049 7.46156 14.9062 7.50938 15.0524 7.50938C15.2409 7.50938 15.3506 7.34625 15.2662 7.19156C15.2184 7.10156 15.1087 7.0875 15.0412 7.16344C15.0131 7.2 15.0046 7.22812 15.0131 7.2675C15.0243 7.3125 15.0215 7.31813 14.9793 7.31813C14.9231 7.31813 14.8162 7.24781 14.6249 7.0875C14.3587 6.8584 14.0527 6.68013 13.7221 6.56156C13.4982 6.5098 13.2669 6.49742 13.0387 6.525C12.8587 6.55875 12.6449 6.66281 12.5268 6.7725C12.3215 6.96938 12.3187 7.23094 12.5184 7.47L12.5746 7.5375L12.5381 7.59938C12.5106 7.64369 12.4969 7.69522 12.4989 7.74735C12.5009 7.79947 12.5185 7.8498 12.5493 7.89188C12.5774 7.93125 12.6056 7.96219 12.614 7.96219C12.6196 7.96219 12.6253 7.93688 12.6281 7.90594C12.6337 7.83 12.6674 7.77937 12.7237 7.75969C12.7743 7.74 12.8081 7.75125 13.0387 7.84406C13.2834 7.93969 13.6856 7.94531 14.1131 7.86094C14.2984 7.81815 14.4912 7.82007 14.6756 7.86656C14.8781 7.95094 14.9231 8.1675 14.7768 8.33063C14.7121 8.40375 14.6531 8.43187 14.4478 8.48812C14.269 8.53527 14.0832 8.54956 13.8993 8.53031C13.5956 8.5275 13.4859 8.53312 13.3649 8.55844C13.2271 8.58656 13.1456 8.58938 12.7518 8.58094L12.2934 8.56969L12.344 8.60906C12.3711 8.63314 12.4003 8.65478 12.4312 8.67375C12.4678 8.69344 12.4649 8.69625 12.4143 8.71594C12.3862 8.72719 12.3187 8.73563 12.2653 8.73563H12.1724L12.1612 8.81438C12.1536 8.85149 12.1536 8.88976 12.1612 8.92688C12.1724 8.955 12.1668 8.96063 12.1387 8.94938C12.119 8.94094 12.0656 8.92688 12.0178 8.91844C11.9695 8.90809 11.9224 8.89302 11.8771 8.87344C11.8237 8.84531 11.8181 8.84531 11.7984 8.88187C11.7815 8.91 11.624 9.02813 11.6015 9.02813C11.5913 8.95516 11.5705 8.88408 11.5396 8.81719C11.5115 8.75813 11.4862 8.69062 11.4778 8.67094C11.4693 8.64 11.4637 8.63719 11.4496 8.6625C11.4412 8.67656 11.4299 8.71875 11.4215 8.7525C11.4117 8.79805 11.3946 8.84173 11.3709 8.88187L11.3287 8.94375L11.3006 8.89031C11.2724 8.83406 11.2274 8.77219 11.2106 8.77219C11.2049 8.77219 11.1965 8.78906 11.1909 8.81438C11.1768 8.85938 11.0671 8.99156 11.039 8.99156C11.0306 8.99156 11.0221 8.955 11.0221 8.90719C11.0221 8.865 11.0137 8.82562 11.0024 8.82562C10.9912 8.82562 10.9828 8.83969 10.9828 8.85375C10.9828 8.8875 10.8899 8.99437 10.8562 8.99437C10.8449 8.99437 10.8224 9.00562 10.8084 9.0225C10.7746 9.05906 10.7465 9.05344 10.7606 9.01125C10.7645 8.97523 10.7607 8.93878 10.7493 8.90438L10.7212 8.81438C10.7156 8.80031 10.6818 8.80594 10.6087 8.82844C10.4962 8.865 10.4568 8.85656 10.5159 8.81156C10.5384 8.79469 10.5721 8.73563 10.589 8.68219C10.6087 8.62594 10.6368 8.57812 10.6509 8.5725C10.6706 8.56687 10.6706 8.5725 10.6453 8.60625C10.629 8.62765 10.6183 8.65279 10.6143 8.67938C10.6143 8.69344 10.6003 8.73 10.5862 8.76094C10.5693 8.78906 10.5581 8.81719 10.5609 8.82C10.5637 8.82281 10.6087 8.80594 10.6593 8.78344L10.7493 8.73844V8.77781C10.7493 8.80031 10.7606 8.85656 10.7746 8.90438L10.7999 8.98875L10.8618 8.96063C10.9237 8.9325 10.9828 8.83125 10.9828 8.74969C10.9828 8.71031 11.0053 8.71594 11.0165 8.75813C11.0165 8.76938 11.0334 8.81719 11.0446 8.86219L11.0728 8.94094L11.1149 8.89031C11.1403 8.86219 11.1684 8.80594 11.1796 8.76937C11.2021 8.70187 11.2359 8.67094 11.2359 8.72156C11.2359 8.75531 11.3315 8.88469 11.3484 8.87344C11.3596 8.86781 11.3765 8.82 11.3906 8.76656C11.4187 8.65406 11.4609 8.58094 11.489 8.59781C11.5003 8.60344 11.5031 8.61469 11.4974 8.62594C11.4918 8.63156 11.5143 8.70469 11.5481 8.78344C11.5725 8.84247 11.5969 8.90153 11.6212 8.96063C11.6324 8.98875 11.6437 8.98875 11.714 8.92406C11.7562 8.88469 11.7984 8.8425 11.8012 8.82844C11.8096 8.80594 11.8181 8.80875 11.8574 8.83406C11.9404 8.87787 12.0312 8.90464 12.1246 8.91281C12.1303 8.90719 12.1359 8.85656 12.1359 8.80031L12.1387 8.69625L12.1949 8.7075C12.2231 8.71594 12.2878 8.71594 12.3356 8.7075L12.4199 8.69625L12.344 8.64C12.3018 8.61188 12.2596 8.57531 12.2484 8.55844C12.2399 8.54156 12.2006 8.52469 12.1584 8.52188C12.0431 8.51063 11.8378 8.39813 11.8378 8.34188C11.8378 8.33063 11.8659 8.35031 11.8996 8.38125C11.9784 8.45156 12.0853 8.49375 12.1809 8.49375H12.2484L12.2062 8.4375C12.1761 8.39389 12.1569 8.34376 12.1499 8.29125C12.1443 8.20687 12.1359 8.19562 12.0487 8.13656C11.9981 8.10074 11.9511 8.06025 11.9081 8.01563L11.8603 7.96219L11.8349 8.02687C11.8209 8.06344 11.8068 8.09156 11.7984 8.09156C11.7928 8.09156 11.7646 8.06906 11.7421 8.04375C11.7263 8.02542 11.7072 8.01016 11.6859 7.99875C11.6774 7.99875 11.6578 8.0325 11.6353 8.07469L11.5959 8.15062L11.5678 8.10844C11.5427 8.07395 11.5145 8.04193 11.4834 8.01281C11.4496 7.98469 11.4356 7.96219 11.4468 7.96219C11.4581 7.96219 11.4946 7.99031 11.5312 8.02687L11.5931 8.09156L11.6212 8.04375C11.6374 8.01062 11.6424 7.97308 11.6353 7.93688C11.624 7.88625 11.6268 7.88344 11.6437 7.91719C11.6679 7.94893 11.6963 7.97731 11.7281 8.00156L11.7899 8.05219L11.8321 7.97625C11.8743 7.8975 11.8743 7.8975 11.8912 7.94531C11.9193 8.00438 12.1021 8.15625 12.2568 8.24344C12.2849 8.2575 12.2737 8.2125 12.2287 8.10281C12.2152 8.06677 12.2076 8.02878 12.2062 7.99031C12.2062 7.93969 12.1921 7.91719 12.1274 7.86656C12.0872 7.84085 12.0536 7.8061 12.0292 7.76509C12.0047 7.72407 11.9902 7.67792 11.9868 7.63031C11.9784 7.5825 11.9615 7.53188 11.9474 7.515C11.9306 7.48688 11.9249 7.50375 11.9306 7.58812C11.9362 7.64719 11.9278 7.72031 11.9137 7.75125L11.8912 7.8075L11.8743 7.75969C11.8631 7.73437 11.8181 7.68937 11.7759 7.66125C11.7337 7.63312 11.7028 7.605 11.7084 7.59938C11.714 7.59375 11.759 7.61906 11.8068 7.65563C11.8828 7.71469 11.8968 7.72031 11.9081 7.695C11.9193 7.66688 11.9081 7.5375 11.8856 7.4475C11.8743 7.4025 11.8743 7.4025 11.9306 7.45875C11.9699 7.49813 11.9924 7.54875 12.0121 7.63312C12.0346 7.74 12.0459 7.75969 12.1443 7.84688C12.2034 7.90031 12.2568 7.93969 12.2596 7.93688C12.2653 7.93125 12.2709 7.79625 12.2765 7.63312C12.2878 7.32094 12.2765 7.245 12.2006 7.14938L12.1612 7.09875L12.2231 7.03406C12.2924 6.96776 12.3387 6.88104 12.3553 6.78656L12.3665 6.71063L12.299 6.77531C12.2428 6.82875 12.2146 6.84 12.1499 6.84C12.0853 6.84 12.0599 6.82875 12.0178 6.78375C11.952 6.72049 11.8719 6.67416 11.7843 6.64875C11.7506 6.6375 11.7393 6.64313 11.7393 6.66563C11.7393 6.6825 11.7224 6.7275 11.6999 6.76969L11.6606 6.84281L11.5762 6.75844C11.5228 6.71063 11.4637 6.66844 11.4159 6.65719C11.3006 6.62906 11.2949 6.62906 11.2949 6.71625C11.2949 6.84844 11.2387 6.87375 11.1374 6.78656C11.0587 6.71906 10.9968 6.70219 10.8478 6.72188L10.7353 6.73313L10.7549 6.78375C10.7718 6.82594 10.769 6.84563 10.7324 6.89344C10.6734 6.97219 10.5974 7.00594 10.4793 7.00594C10.4231 7.00594 10.3556 7.01719 10.3274 7.03125C10.2993 7.04531 10.2262 7.05938 10.1671 7.065C10.1109 7.07063 10.0462 7.08188 10.0265 7.0875C9.99838 7.09875 9.99838 7.0875 10.0068 7.02563C10.0209 6.93 9.95057 6.85688 9.8465 6.85688C9.70869 6.85688 9.64682 6.98063 9.70025 7.14375C9.71119 7.17894 9.72058 7.2146 9.72838 7.25063C9.76532 7.32096 9.81489 7.38388 9.87463 7.43625C9.94775 7.50937 10.0153 7.58531 10.0265 7.605C10.0491 7.63433 10.0779 7.65833 10.1109 7.67531L10.1728 7.70906L10.1643 7.64156C10.1559 7.56844 10.1699 7.55719 10.2093 7.61063C10.2234 7.6275 10.2599 7.65844 10.2881 7.67531C10.3359 7.70344 10.3443 7.70344 10.3443 7.68094C10.3443 7.66406 10.3528 7.6275 10.364 7.59938L10.3837 7.54875L10.4203 7.61906C10.4399 7.65844 10.5046 7.74562 10.5637 7.81594C10.679 7.94812 10.7521 8.09719 10.7156 8.13094C10.6987 8.145 10.6593 8.145 10.5749 8.12813C10.5131 8.11688 10.4343 8.10844 10.4006 8.11406C10.3359 8.1225 10.3303 8.11406 10.3724 8.06344C10.4146 8.00719 10.4062 7.99875 10.3218 7.99875C10.2234 7.99875 9.97869 7.95094 9.88307 7.91437C9.79307 7.87781 9.77057 7.88625 9.74244 7.97344L9.69463 8.13094L9.6665 8.21531L9.76775 8.20687C9.81995 8.20141 9.87166 8.19201 9.92244 8.17875C9.94236 8.17211 9.96335 8.16925 9.98432 8.17031C9.98994 8.17313 9.97588 8.20688 9.95619 8.24625L9.91682 8.31375L9.97869 8.3025C10.0124 8.29406 10.0631 8.27719 10.0912 8.26312C10.1418 8.24062 10.1474 8.24062 10.1868 8.30531C10.2346 8.38125 10.2712 8.37844 10.2796 8.29688C10.2881 8.2125 10.3162 8.22375 10.3696 8.33625C10.4203 8.44313 10.4709 8.4825 10.4821 8.42063C10.4849 8.39813 10.5103 8.36438 10.5412 8.34188C10.6031 8.29969 10.6481 8.31375 10.6734 8.37844C10.7015 8.44875 10.6396 8.51906 10.4653 8.62594C10.3038 8.7151 10.1648 8.84001 10.059 8.99113C9.95325 9.14225 9.88344 9.31556 9.85494 9.49781C9.8015 9.82969 9.96744 10.1728 10.2937 10.4231C10.4512 10.5413 10.7015 10.665 10.6846 10.62C10.6171 10.4147 10.6199 10.0294 10.6874 9.96469C10.6987 9.95344 10.6959 9.99281 10.679 10.0519C10.6228 10.2741 10.6509 10.4484 10.7915 10.8591C10.9153 11.2303 10.8984 11.3906 10.7184 11.4947C10.6621 11.5284 10.6256 11.5341 10.4709 11.5312C10.3021 11.5312 10.2824 11.5313 10.229 11.5763C10.1644 11.6422 10.1221 11.7268 10.1081 11.8181C10.1081 11.8547 10.1474 11.8491 10.2206 11.8069H10.2234Z" fill="#FFB700"/>
<path d="M12.9515 11.7984L13.0218 11.7534L13.0696 11.7984C13.1315 11.8575 13.2075 11.8547 13.2665 11.7956C13.2946 11.7675 13.3171 11.7506 13.32 11.7534L13.3453 11.7984C13.3593 11.8237 13.3903 11.835 13.4465 11.8406C13.5112 11.8434 13.5309 11.8406 13.559 11.8012L13.5871 11.7534L13.6575 11.7984C13.8487 11.9222 13.9499 11.7928 13.8628 11.5369C13.8206 11.4075 13.8459 11.3344 13.9837 11.1712C14.0428 11.1009 14.0906 11.025 14.0906 11.0025C14.0906 10.9716 14.0793 10.9659 14.0006 10.9687C13.9274 10.9687 13.905 10.9603 13.8656 10.9181C13.8009 10.8478 13.8065 10.7662 13.8768 10.6762L13.9331 10.6059L13.8318 10.5384C13.751 10.4787 13.6757 10.4119 13.6068 10.3387C13.5454 10.2663 13.4704 10.2066 13.3859 10.1632C13.3015 10.1198 13.2093 10.0934 13.1146 10.0856L12.9825 10.0716V10.1728C12.9825 10.2994 13.0443 10.4231 13.2075 10.6312C13.3931 10.8675 13.4043 10.9041 13.4128 11.2134L13.4212 11.475L13.365 11.5256C13.3171 11.5706 13.2975 11.5791 13.14 11.5875C12.9909 11.5959 12.9571 11.6044 12.915 11.6437C12.8656 11.6798 12.8315 11.7329 12.8193 11.7928C12.8109 11.835 12.8137 11.8434 12.8446 11.8434C12.8643 11.8434 12.9121 11.8237 12.9515 11.7984ZM8.95214 11.1234C8.96915 11.0985 8.97888 11.0692 8.98026 11.0391C8.98026 11.0109 8.99714 10.9997 9.07026 10.9884L9.15745 10.9772L9.1012 10.9294C9.03089 10.8731 9.02245 10.8309 9.08433 10.8309C9.1462 10.8309 9.24745 10.7691 9.26433 10.7212C9.27276 10.6987 9.26433 10.6706 9.25308 10.6566C9.21933 10.6172 9.15464 10.6228 9.14339 10.6678C9.12933 10.7128 9.10964 10.7128 9.05901 10.6678C8.9887 10.5975 8.98589 10.4541 9.05901 10.3697C9.08995 10.3303 9.08995 10.3303 9.04776 10.2881C9.00276 10.2431 8.96901 10.1587 8.99151 10.1362C8.99714 10.1306 9.0337 10.1362 9.07026 10.1503C9.12651 10.1672 9.1462 10.1672 9.1687 10.1503C9.23339 10.0969 9.16308 10.0294 9.0562 10.0462C9.0112 10.0519 8.99433 10.0462 8.9887 10.0237C8.98308 10.0069 8.94651 9.98437 8.90433 9.97312C8.82839 9.95344 8.82839 9.95344 8.82839 10.0069C8.82839 10.0631 8.79464 10.0744 8.73276 10.0378C8.68214 10.0097 8.63433 10.0322 8.63433 10.0856C8.63433 10.1362 8.68214 10.1587 8.77495 10.1531C8.84245 10.1503 8.84526 10.2009 8.78058 10.2741L8.73276 10.3303L8.76932 10.3837C8.82557 10.4625 8.81995 10.5947 8.76089 10.6622L8.71307 10.7128L8.68214 10.6706C8.63714 10.6144 8.57808 10.6172 8.5612 10.6791C8.55276 10.7184 8.5612 10.7353 8.61183 10.7803C8.64558 10.8084 8.6962 10.8309 8.72151 10.8309C8.7862 10.8309 8.78339 10.8844 8.71589 10.935L8.65964 10.9772L8.74401 10.9884C8.78901 10.9969 8.82839 11.0081 8.82839 11.0166C8.82839 11.0531 8.88464 11.1628 8.90151 11.1628C8.91276 11.1628 8.93526 11.1431 8.95214 11.1206V11.1234Z" fill="#FFB700"/>
<path d="M10.0265 10.6566C10.1024 10.6284 10.2655 10.4878 10.2655 10.4569C10.2655 10.4456 10.2205 10.395 10.1643 10.3444C10.0518 10.2431 9.92523 10.0659 9.89148 9.96468C9.8746 9.90843 9.79304 9.81843 9.56241 9.59343L9.25585 9.29812L9.16866 9.32062C9.11804 9.33187 9.05897 9.34312 9.03647 9.34312C8.99429 9.34312 8.99429 9.34312 9.05054 9.38812L9.10679 9.43312L9.19116 9.38812C9.2671 9.34312 9.26991 9.34312 9.27835 9.37968C9.28397 9.39937 9.27272 9.43593 9.25022 9.46125C9.23054 9.48656 9.21929 9.5175 9.2221 9.52594C9.23054 9.53437 9.21085 9.55406 9.17991 9.57093C9.12366 9.59906 9.08147 9.69187 9.12647 9.69187C9.16866 9.69187 9.25866 9.57937 9.24741 9.54281C9.24179 9.52312 9.24741 9.50344 9.25304 9.49781C9.2896 9.47812 9.28679 9.56531 9.25304 9.61031C9.23054 9.63281 9.21929 9.66093 9.22491 9.67218C9.23054 9.68062 9.21085 9.70031 9.17991 9.71718C9.12366 9.74531 9.08147 9.83812 9.12647 9.83812C9.17147 9.83812 9.25866 9.73125 9.25022 9.69187C9.2446 9.67218 9.2446 9.64968 9.25304 9.64406C9.27835 9.63281 9.2896 9.70031 9.26991 9.73406C9.26474 9.74355 9.26204 9.75419 9.26204 9.765C9.26204 9.77581 9.26474 9.78644 9.26991 9.79593C9.2896 9.8325 9.26991 9.9 9.23335 9.9225C9.21929 9.93093 9.22772 9.95062 9.2671 9.97875C9.32335 10.0181 9.32335 10.0237 9.32335 10.2037C9.32335 10.3556 9.32898 10.395 9.3571 10.4203C9.38523 10.4484 9.39085 10.4484 9.39085 10.4203C9.39085 10.3922 9.4471 10.3528 9.48929 10.3528C9.50335 10.3528 9.58491 10.4231 9.6721 10.5075C9.75929 10.5919 9.8521 10.6678 9.87741 10.6706L9.93929 10.6819C9.94772 10.6819 9.9871 10.6734 10.0265 10.6537V10.6566ZM9.08991 9.9225C9.08991 9.87468 8.98866 9.82125 8.86772 9.81C8.76929 9.79593 8.76929 9.79875 8.76929 9.84656C8.76929 9.88593 8.78335 9.90281 8.85366 9.93093C8.96054 9.97875 9.08991 9.97312 9.08991 9.9225Z" fill="#FFB700"/>
<path d="M9.19965 9.91688C9.25028 9.87188 9.27278 9.82125 9.24184 9.82125C9.20809 9.82125 9.11809 9.9 9.11809 9.93375C9.11809 9.97875 9.13496 9.97594 9.20246 9.91688H9.19965ZM9.09559 9.77344C9.0984 9.74531 9.08153 9.72844 9.0309 9.70313C8.9184 9.65531 8.78903 9.63 8.75809 9.65531C8.69903 9.70313 8.7384 9.765 8.83121 9.77625C8.87059 9.77906 8.92121 9.79031 8.94653 9.80156C9.01965 9.82969 9.08715 9.81563 9.09559 9.77344ZM9.09559 9.62438C9.10121 9.58781 9.0759 9.57375 8.87059 9.50063C8.7159 9.44438 8.6484 9.4725 8.69903 9.56531C8.7159 9.59625 8.74403 9.61031 8.80871 9.62156C8.85653 9.62719 8.92121 9.64125 8.95215 9.6525C9.03653 9.68063 9.08715 9.66938 9.09278 9.62438H9.09559ZM9.19684 9.48656C9.22778 9.45563 9.25309 9.41906 9.25309 9.40219C9.25309 9.36 9.13215 9.43875 9.11528 9.495C9.0984 9.55969 9.12934 9.55688 9.19965 9.48656H9.19684ZM9.09559 9.47813C9.10121 9.43313 9.02809 9.39375 8.88184 9.36281C8.77215 9.3375 8.72434 9.35156 8.73278 9.40219C8.7384 9.43031 8.77496 9.45 8.8734 9.48094C9.03934 9.53156 9.08715 9.53156 9.09559 9.47813ZM9.23621 9.27C9.42746 9.18563 9.44153 8.97469 9.26434 8.91844C9.19121 8.89594 9.14621 8.91 9.11809 8.95781C9.09559 8.99719 9.10965 9.06469 9.13778 9.06469C9.14903 9.06469 9.15746 9.07875 9.15746 9.09281C9.15746 9.16875 8.87059 9.19969 8.75246 9.14063C8.71028 9.12094 8.69621 9.06469 8.72715 9.06469C8.75528 9.06469 8.77215 9.00844 8.75809 8.97188C8.74121 8.91563 8.68496 8.89875 8.60903 8.92125C8.43184 8.96625 8.43746 9.17438 8.61746 9.25875C8.81661 9.33184 9.03455 9.3358 9.23621 9.27Z" fill="#FFB700"/>
<path d="M9.12092 9.10687C9.13217 9.09562 9.12654 9.07875 9.10967 9.0675C9.07029 9.03656 9.07311 8.98875 9.11529 8.93531C9.14904 8.89594 9.15186 8.83406 9.16311 8.22937C9.18279 7.18594 9.26154 6.40125 9.36279 6.21C9.40498 6.13687 9.39936 6.13687 9.29248 6.21C9.15227 6.30769 9.03907 6.43927 8.96342 6.5925C8.78904 6.91594 8.72998 7.35187 8.72998 8.28562C8.72998 8.81437 8.73279 8.88469 8.76373 8.9325C8.79186 8.98312 8.79186 9 8.77498 9.05062C8.76092 9.08156 8.75529 9.11531 8.76092 9.12094C8.80029 9.1575 9.08154 9.14906 9.12092 9.10687ZM10.6987 8.11125C10.7072 8.10281 10.6931 8.055 10.6706 8.01C10.6369 7.93687 10.6228 7.92562 10.575 7.92562C10.3501 7.90608 10.1308 7.84505 9.92811 7.74562C9.78467 7.68094 9.73123 7.66687 9.71717 7.68375C9.67217 7.72594 9.74529 7.82437 9.85779 7.87781C10.0233 7.93747 10.1968 7.97253 10.3725 7.98187C10.4484 7.98187 10.4512 7.98187 10.4062 8.04656L10.3781 8.09156H10.4625L10.6031 8.10844C10.6875 8.12812 10.6875 8.12812 10.6987 8.11125Z" fill="#FFB700"/>
<path d="M11.5875 8.58094C11.5875 8.55281 11.506 8.4825 11.4272 8.43469C11.3625 8.39813 11.3513 8.39531 11.3513 8.42625C11.3513 8.47125 11.3119 8.58656 11.295 8.58656C11.2866 8.58656 11.2725 8.56406 11.2669 8.53875C11.2585 8.51063 11.2275 8.45438 11.1966 8.41781L11.1403 8.3475L11.101 8.41219C11.0616 8.47406 10.9913 8.53313 10.9603 8.53313C10.9547 8.53313 10.9519 8.49938 10.9603 8.46281C10.9631 8.41781 10.9603 8.38406 10.9463 8.37844C10.935 8.37 10.9238 8.37281 10.9238 8.38406C10.9238 8.40656 10.8281 8.51344 10.8113 8.51344C10.8 8.51344 10.7888 8.48531 10.7831 8.44594L10.7606 8.31094C10.755 8.27719 10.7691 8.29969 10.7888 8.36719L10.8338 8.4825L10.8788 8.41219C10.8991 8.38313 10.9144 8.35078 10.9238 8.31656C10.9238 8.3025 10.9322 8.29688 10.9435 8.3025C10.9547 8.30813 10.9688 8.35594 10.9744 8.40656L10.9885 8.50219L11.0391 8.44594C11.0656 8.41772 11.09 8.38765 11.1122 8.35594C11.1319 8.32219 11.1347 8.32219 11.1769 8.35594C11.1994 8.37844 11.236 8.42625 11.2585 8.46563C11.281 8.505 11.3006 8.53313 11.3035 8.53031L11.3203 8.44031L11.3316 8.35594C11.3344 8.34188 11.4835 8.44031 11.5397 8.48813C11.5735 8.51906 11.6072 8.54156 11.6128 8.53594C11.6185 8.53031 11.6241 8.48531 11.6241 8.43188C11.6241 8.35313 11.6156 8.33063 11.5678 8.28844C11.5116 8.23781 11.5116 8.23781 11.4891 8.27438C11.461 8.32219 11.43 8.32219 11.43 8.27438C11.43 8.24063 11.3231 8.10844 11.2978 8.10844C11.2894 8.10844 11.2669 8.13656 11.2472 8.17313C11.2275 8.20969 11.205 8.23781 11.1994 8.23781C11.1713 8.23781 11.0222 8.06906 11.0222 8.04094C11.0222 8.01844 11.0335 8.02406 11.0588 8.06344C11.0839 8.10038 11.1132 8.13434 11.146 8.16469C11.2022 8.21531 11.2247 8.20406 11.2472 8.10563C11.2556 8.0775 11.2669 8.055 11.2753 8.055C11.2978 8.055 11.4272 8.19281 11.4441 8.23781L11.4638 8.28281L11.4778 8.23219C11.4947 8.17031 11.5144 8.17031 11.5425 8.22656C11.5538 8.24906 11.61 8.29969 11.6663 8.33344L11.7703 8.40094L11.79 8.33344C11.8013 8.29688 11.8181 8.27719 11.8238 8.28844C11.835 8.3025 11.8069 8.415 11.7872 8.4375C11.7872 8.44031 11.7506 8.42063 11.7141 8.39531L11.6438 8.34469V8.43469C11.6438 8.4825 11.6381 8.54156 11.6325 8.56406C11.6185 8.60906 11.5847 8.62031 11.5847 8.58094H11.5875ZM11.0672 7.86656C10.9435 7.76531 10.9266 7.74281 10.9266 7.69219L10.9294 7.64156L10.9378 7.68938C10.9435 7.7175 10.9772 7.7625 11.0166 7.79625L11.0897 7.8525L11.1319 7.80188C11.1572 7.77375 11.1769 7.74 11.1769 7.72875C11.1769 7.695 11.1825 7.69781 11.2669 7.77094C11.34 7.83563 11.3428 7.83563 11.3513 7.79344C11.3597 7.77094 11.3569 7.72594 11.3513 7.695C11.3231 7.61063 11.3288 7.59938 11.3653 7.65L11.4328 7.72875C11.461 7.75969 11.4638 7.75969 11.475 7.72031C11.4835 7.695 11.4891 7.65281 11.4891 7.62469V7.57125L11.5538 7.64719C11.6185 7.72031 11.6241 7.72313 11.641 7.68656C11.655 7.66688 11.6635 7.61906 11.6635 7.5825C11.6635 7.53188 11.6691 7.52063 11.6803 7.5375C11.7028 7.57125 11.6888 7.65563 11.6494 7.72875L11.6213 7.785L11.5847 7.72594C11.5369 7.65281 11.52 7.65281 11.4919 7.73156C11.4638 7.8075 11.4441 7.81313 11.416 7.75406C11.3991 7.7175 11.3935 7.72313 11.3822 7.80188L11.3681 7.88625L11.2838 7.82156L11.1994 7.75688L11.1572 7.79906C11.1375 7.82438 11.1206 7.85531 11.1206 7.86656C11.1206 7.89469 11.0981 7.89469 11.0672 7.86656ZM12.1641 7.48406C12.1219 7.44469 12.091 7.40531 12.0966 7.39969C12.105 7.39125 12.1106 7.38844 12.1135 7.39406C12.1407 7.42307 12.1688 7.45121 12.1978 7.47844C12.2935 7.57969 12.2738 7.5825 12.1669 7.48406H12.1641ZM10.7016 7.33219C10.6622 7.27594 10.665 7.24219 10.7156 7.18031C10.7494 7.13813 10.7663 7.1325 10.8281 7.14094C10.8703 7.14375 10.9575 7.18031 11.0222 7.21969C11.1157 7.27554 11.2227 7.30472 11.3316 7.30406L11.2838 7.22531C11.2219 7.1325 11.2219 7.12125 11.295 7.1775C11.3681 7.23656 11.4553 7.25344 11.6522 7.24781L11.7478 7.245L11.6916 7.18875C11.6156 7.11281 11.6381 7.10438 11.7253 7.18031C11.8041 7.25063 11.8013 7.25625 11.6297 7.27313C11.5582 7.28035 11.4859 7.2756 11.416 7.25906C11.3203 7.23094 11.3147 7.23375 11.3344 7.26469C11.3456 7.28438 11.3625 7.29844 11.371 7.29844C11.3822 7.29844 11.3906 7.30969 11.3906 7.32094C11.3906 7.3575 11.1825 7.32375 11.0813 7.27594C10.8563 7.16063 10.8281 7.14938 10.7719 7.16625C10.7569 7.17201 10.7432 7.1807 10.7316 7.19181C10.72 7.20291 10.7108 7.21622 10.7044 7.23094C10.6678 7.32375 10.8 7.39688 10.8535 7.31531C10.8703 7.29 10.8675 7.27594 10.8394 7.245C10.8 7.20563 10.8056 7.2 10.8563 7.21688C10.8928 7.23094 10.8956 7.31813 10.8619 7.35188C10.8253 7.38844 10.7353 7.38 10.7016 7.33219Z" fill="black"/>
<path d="M11.5987 7.10437C11.5705 7.07625 11.593 7.07062 11.7196 7.06781C11.8771 7.065 11.9727 7.03969 12.0852 6.96656C12.1752 6.91031 12.2005 6.92156 12.1133 6.98062C12.0374 7.03687 11.9165 7.07625 11.7955 7.0875L11.6521 7.10719C11.6296 7.11281 11.6043 7.11 11.5958 7.10437H11.5987Z" fill="black"/>
</g>
<defs>
<clipPath id="clip0_14_1200">
<rect width="18" height="18" rx="9" fill="white"/>
</clipPath>
</defs>
</svg>
