<svg width="18" height="18" viewBox="0 0 18 18" fill="none" xmlns="http://www.w3.org/2000/svg">
<g clip-path="url(#clip0_14_1155)">
<mask id="mask0_14_1155" style="mask-type:luminance" maskUnits="userSpaceOnUse" x="0" y="0" width="18" height="18">
<path d="M0 0H18V18H0V0Z" fill="white"/>
</mask>
<g mask="url(#mask0_14_1155)">
<path fill-rule="evenodd" clip-rule="evenodd" d="M0 0H26.9965V18H0V0Z" fill="white"/>
<path fill-rule="evenodd" clip-rule="evenodd" d="M0 0H8.18086V8.18438H0V0Z" fill="#000066"/>
<path fill-rule="evenodd" clip-rule="evenodd" d="M0 16.3441H26.9965V18H0V16.3441Z" fill="#CC0000"/>
<path fill-rule="evenodd" clip-rule="evenodd" d="M0 16.3617H26.9965V18H0V16.3617ZM0 13.0957H26.9965V14.7199H0V13.0957ZM0 9.81914H26.9297V11.4609H0V9.81914ZM8.18086 0H26.993V1.63477H8.18086V0ZM8.18086 6.53906H26.993V8.18438H8.18086V6.53906ZM8.18086 3.28008H26.993V4.91484H8.18086V3.28008Z" fill="#CC0000"/>
<path fill-rule="evenodd" clip-rule="evenodd" d="M5.84639 6.24023L4.06396 5.15039L2.29209 6.25078L2.94951 4.46133L1.18115 3.35742L3.37139 3.34336L4.0499 1.56094L4.746 3.33984H6.93623L5.1749 4.4543L5.84639 6.24023Z" fill="white"/>
</g>
</g>
<defs>
<clipPath id="clip0_14_1155">
<rect width="18" height="18" rx="9" fill="white"/>
</clipPath>
</defs>
</svg>
