<svg width="18" height="18" viewBox="0 0 18 18" fill="none" xmlns="http://www.w3.org/2000/svg">
<g clip-path="url(#clip0_8201_10747)">
<path d="M0 9.00003C0 10.4024 0.320871 11.7298 0.893039 12.9131L9 13.3044L17.107 12.9131C17.6791 11.7298 18 10.4024 18 9.00003C18 7.59765 17.6791 6.27022 17.107 5.087L9 4.69568L0.893039 5.08697C0.320871 6.27022 0 7.59765 0 9.00003H0Z" fill="#F0F0F0"/>
<path d="M9.00003 18.0001C12.5681 18.0001 15.6512 15.9236 17.107 12.9131H0.893066C2.34882 15.9236 5.43188 18.0001 9.00003 18.0001Z" fill="#6DA544"/>
<path d="M9.00003 0C5.43188 0 2.34882 2.0765 0.893066 5.08697H17.107C15.6512 2.0765 12.5681 0 9.00003 0Z" fill="#0052B4"/>
<path d="M9.58687 8.80438V6.65222H8.41297V8.80438L6.99512 10.2223C7.40746 10.8973 8.15105 11.3479 8.99994 11.3479C9.84882 11.3479 10.5924 10.8973 11.0048 10.2223L9.58687 8.80438Z" fill="black"/>
</g>
<defs>
<clipPath id="clip0_8201_10747">
<rect width="18" height="18" fill="white"/>
</clipPath>
</defs>
</svg>
