<svg width="18" height="18" viewBox="0 0 18 18" fill="none" xmlns="http://www.w3.org/2000/svg">
<g clip-path="url(#clip0_14_1153)">
<path d="M0 0H18V18H0V0Z" fill="white"/>
<path d="M0 12.6H18V18H0V12.6Z" fill="#009543"/>
<path d="M0 0H18V5.4H0V0Z" fill="#00209F"/>
<path d="M9.05625 5.73399C8.95078 5.73399 8.85234 5.85 8.85234 5.85L8.86289 7.06289L8.47617 7.46719H8.79258L8.78555 8.15977L6.95039 10.6348L6.67969 10.5398L6.20508 11.5523C6.20508 11.5523 7.3793 12.2871 9.08086 12.266C10.9512 12.2414 11.9637 11.5172 11.9637 11.5172L11.475 10.5188L11.2359 10.6242L9.37266 8.16328V7.4461H9.68203L9.26016 7.04883L9.26367 5.83945C9.26367 5.83945 9.1582 5.73399 9.05625 5.73399Z" fill="black" stroke="black" stroke-width="0.10625"/>
<path d="M9.6961 8.64141H8.42696C8.42696 8.64141 7.96641 7.67109 8.04024 6.98906C8.11758 6.3 8.51134 5.97305 9.03868 5.96953C9.65743 5.95898 9.98087 6.27187 10.0793 6.96445C10.1777 7.65 9.6961 8.64141 9.6961 8.64141Z" stroke="black" stroke-width="0.53125"/>
<path d="M6.83789 10.9547C6.8168 10.9828 6.66211 11.2852 6.66211 11.2852L6.92578 11.2289L6.83789 10.9547ZM6.98906 11.3484L6.71133 11.4398L7.04531 11.5699L6.98906 11.3484ZM7.11562 10.9617L7.25273 11.3695L7.59023 11.2711L7.50234 11.0777L7.11562 10.9617ZM7.32656 11.5137L7.37578 11.6789L7.82578 11.7914L7.65 11.4117L7.33008 11.5172L7.32656 11.5137ZM7.82578 11.1691L7.98398 11.5488L8.325 11.4188L8.2125 11.25L7.82578 11.1691ZM8.04727 11.6859L8.10352 11.8336L8.63086 11.9074L8.40586 11.5629L8.04727 11.6859ZM8.55352 11.2781L8.74688 11.6191L9.23906 11.4398L9.18281 11.3063L8.55 11.2781H8.55352ZM8.83477 11.7422L8.94023 11.9215L9.54844 11.9004L9.31992 11.5629L8.83477 11.7422ZM9.47813 11.2922L9.64687 11.5734L10.0336 11.3906L9.92812 11.2395L9.47813 11.2922ZM10.1145 11.5066L9.72773 11.7L9.8332 11.8688L10.35 11.7844L10.1145 11.5066ZM10.241 11.2113L10.4414 11.4574L10.7648 11.2043L10.6559 11.0848L10.241 11.2113ZM10.8352 11.3414L10.5223 11.577L10.6066 11.7211L11.0355 11.6121L10.8352 11.3414ZM11.2641 10.8492L11.3414 10.9617L11.127 11.2781L10.9055 10.9969L11.2641 10.8492ZM11.4082 11.127L11.5418 11.3906L11.2781 11.4785L11.257 11.3555L11.4082 11.127Z" fill="white"/>
</g>
<defs>
<clipPath id="clip0_14_1153">
<rect width="18" height="18" rx="9" fill="white"/>
</clipPath>
</defs>
</svg>
