<svg width="18" height="18" viewBox="0 0 18 18" fill="none" xmlns="http://www.w3.org/2000/svg">
<g clip-path="url(#clip0_8201_10780)">
<path d="M17.4402 12.1304C17.802 11.1554 18 10.1008 18 8.99995C18 7.89906 17.802 6.84448 17.4402 5.86953L9 5.08691L0.559793 5.86953C0.198 6.84448 0 7.89906 0 8.99995C0 10.1008 0.198 11.1554 0.559793 12.1304L9 12.913L17.4402 12.1304Z" fill="#6DA544"/>
<path d="M17.44 5.86958C16.1683 2.44237 12.8695 0 8.99978 0C5.13009 0 1.83121 2.44237 0.55957 5.86958H17.44Z" fill="#FFDA44"/>
<path d="M8.99978 18C12.8695 18 16.1683 15.5576 17.44 12.1304H0.55957C1.83121 15.5576 5.13009 18 8.99978 18Z" fill="#D80027"/>
</g>
<defs>
<clipPath id="clip0_8201_10780">
<rect width="18" height="18" fill="white"/>
</clipPath>
</defs>
</svg>
