<svg width="18" height="18" viewBox="0 0 18 18" fill="none" xmlns="http://www.w3.org/2000/svg">
<g clip-path="url(#clip0_8201_10784)">
<path d="M9 18C13.9706 18 18 13.9706 18 9C18 4.02944 13.9706 0 9 0C4.02944 0 0 4.02944 0 9C0 13.9706 4.02944 18 9 18Z" fill="#F0F0F0"/>
<path d="M8.99978 0C5.13009 0 1.83121 2.44237 0.55957 5.86958H17.44C16.1683 2.44237 12.8695 0 8.99978 0Z" fill="#D80027"/>
<path d="M8.99978 18C12.8695 18 16.1683 15.5576 17.44 12.1304H0.55957C1.83121 15.5576 5.13009 18 8.99978 18Z" fill="#338AF3"/>
</g>
<defs>
<clipPath id="clip0_8201_10784">
<rect width="18" height="18" fill="white"/>
</clipPath>
</defs>
</svg>
