<svg width="18" height="18" viewBox="0 0 18 18" fill="none" xmlns="http://www.w3.org/2000/svg">
<g clip-path="url(#clip0_8201_10769)">
<path d="M0.893039 5.08693C0.320906 6.27015 0 7.59755 0 8.99997C0 10.4024 0.320906 11.7298 0.893039 12.913L9 13.6956L17.107 12.913C17.6791 11.7298 18 10.4024 18 8.99997C18 7.59755 17.6791 6.27015 17.107 5.08693L9 4.30432L0.893039 5.08693Z" fill="black"/>
<path d="M0.893555 12.9131C2.34923 15.9236 5.43205 18.0001 9.0002 18.0001C12.5683 18.0001 15.6512 15.9236 17.1068 12.9131H0.893555Z" fill="#496E2D"/>
<path d="M0.893555 5.08697H17.1068C15.6512 2.0765 12.5683 0 9.0002 0C5.43205 0 2.34923 2.0765 0.893555 5.08697Z" fill="#D80027"/>
<path d="M11.0947 7.35413L11.8331 8.37172L13.029 7.98395L12.2894 9.00067L13.0278 10.0182L11.8323 9.62898L11.0927 10.6457L11.0935 9.38848L9.89795 8.99923L11.0939 8.61145L11.0947 7.35413Z" fill="#F0F0F0"/>
<path d="M9.07938 11.5434C7.67468 11.5434 6.53589 10.4047 6.53589 8.99996C6.53589 7.59526 7.67468 6.45648 9.07938 6.45648C9.51735 6.45648 9.92949 6.56722 10.2893 6.76219C9.72481 6.21021 8.95292 5.86951 8.10112 5.86951C6.37221 5.86951 4.9707 7.27105 4.9707 8.99992C4.9707 10.7288 6.37224 12.1303 8.10112 12.1303C8.95296 12.1303 9.72485 11.7896 10.2893 11.2377C9.92946 11.4327 9.51739 11.5434 9.07938 11.5434Z" fill="#F0F0F0"/>
</g>
<defs>
<clipPath id="clip0_8201_10769">
<rect width="18" height="18" fill="white"/>
</clipPath>
</defs>
</svg>
