<svg width="18" height="18" viewBox="0 0 18 18" fill="none" xmlns="http://www.w3.org/2000/svg">
<g clip-path="url(#clip0_8201_10942)">
<path d="M9 18C13.9706 18 18 13.9706 18 9C18 4.02944 13.9706 0 9 0C4.02944 0 0 4.02944 0 9C0 13.9706 4.02944 18 9 18Z" fill="#D80027"/>
<path d="M14.3186 7.38596H10.2554L8.99987 3.52173L7.7443 7.38596H3.68115L6.9683 9.7742L5.71269 13.6385L8.99987 11.2503L12.2871 13.6386L11.0314 9.77423L14.3186 7.38596ZM7.8883 9.47526L8.31288 8.16854H9.68682L10.1114 9.47526V9.4753L8.99987 10.2829L7.88834 9.4753L7.8883 9.47526ZM9.43257 7.38596H8.5672L8.99987 6.05424L9.43257 7.38596ZM10.7771 8.99162L10.5097 8.16858H11.9099L10.7771 8.99162ZM7.49002 8.16858L7.22258 8.99162L6.08974 8.16858H7.49002ZM7.20131 11.5896L7.63402 10.2579L8.33415 10.7666L7.20131 11.5896ZM9.66559 10.7666L10.3657 10.258L10.7984 11.5897L9.66559 10.7666Z" fill="#FFDA44"/>
</g>
<defs>
<clipPath id="clip0_8201_10942">
<rect width="18" height="18" fill="white"/>
</clipPath>
</defs>
</svg>
