<svg width="18" height="18" viewBox="0 0 18 18" fill="none" xmlns="http://www.w3.org/2000/svg">
<g clip-path="url(#clip0_8201_10899)">
<path d="M12.9129 0.893039C11.7297 0.320906 10.4022 0 8.99984 0C7.59746 0 6.27003 0.320906 5.08681 0.893039L4.3042 9L5.08681 17.107C6.27003 17.6791 7.59746 18 8.99984 18C10.4022 18 11.7297 17.6791 12.9129 17.107L13.6955 9L12.9129 0.893039Z" fill="#FFDA44"/>
<path d="M5.08697 0.893311C2.07654 2.34903 0 5.43184 0 8.99995C0 12.5681 2.07654 15.6509 5.08697 17.1066V0.893311Z" fill="#0052B4"/>
<path d="M12.9131 0.893311V17.1066C15.9235 15.6509 18.0001 12.5681 18.0001 8.99995C18.0001 5.43184 15.9235 2.34903 12.9131 0.893311Z" fill="#D80027"/>
<path d="M12.1305 7.08116H9.9783C9.9783 6.54088 9.54033 6.10291 9.00005 6.10291C8.45977 6.10291 8.02179 6.54088 8.02179 7.08116H5.86963C5.86963 7.61311 6.33302 8.0443 6.8649 8.0443H6.83284C6.83284 8.57629 7.26407 9.00755 7.79605 9.00755C7.79605 9.47854 8.13432 9.8699 8.58109 9.95357L7.82207 11.6672C8.18576 11.815 8.58323 11.8971 9.00005 11.8971C9.41682 11.8971 9.81434 11.815 10.178 11.6672L9.419 9.95357C9.86577 9.8699 10.204 9.47854 10.204 9.00755C10.736 9.00755 11.1673 8.57629 11.1673 8.0443H11.1352C11.6671 8.0443 12.1305 7.61308 12.1305 7.08116Z" fill="#FF9811"/>
<path d="M8.99977 8.41309L7.72803 9.00005V10.174L8.99977 10.9566L10.2715 10.174V9.00005L8.99977 8.41309Z" fill="#0052B4"/>
<path d="M7.72803 7.82605H10.2715V8.99995H7.72803V7.82605Z" fill="#D80027"/>
</g>
<defs>
<clipPath id="clip0_8201_10899">
<rect width="18" height="18" fill="white"/>
</clipPath>
</defs>
</svg>
