<svg width="18" height="18" viewBox="0 0 18 18" fill="none" xmlns="http://www.w3.org/2000/svg">
<g clip-path="url(#clip0_8201_10922)">
<path d="M9 18C13.9706 18 18 13.9706 18 9C18 4.02944 13.9706 0 9 0C4.02944 0 0 4.02944 0 9C0 13.9706 4.02944 18 9 18Z" fill="#FFDA44"/>
<path d="M18 8.99996C18 5.9111 16.4437 3.18599 14.0726 1.56519H3.92741C1.55637 3.18599 0 5.9111 0 8.99996C0 12.0889 1.55637 14.8139 3.92741 16.4347H14.0726C16.4437 14.8139 18 12.0889 18 8.99996Z" fill="#A2001D"/>
<path d="M7.04346 6.65213H10.9565V5.08693L10.1739 5.47822L8.99997 4.30432L7.82607 5.47822L7.04346 5.08693V6.65213Z" fill="#FFDA44"/>
<path d="M12.5216 8.99996H10.5658C10.6425 8.86728 10.6871 8.71376 10.6871 8.54951C10.6871 8.05075 10.2828 7.64648 9.78407 7.64648C9.4395 7.64648 9.14025 7.83956 8.98799 8.12327C8.83573 7.83953 8.53648 7.64648 8.19191 7.64648C7.69322 7.64648 7.28889 8.05075 7.28889 8.54951C7.28889 8.71379 7.33354 8.86732 7.41018 8.99996H5.47803C5.47803 9.59843 5.99929 10.0836 6.59772 10.0836H6.56165C6.56165 10.5744 6.88814 10.9889 7.33579 11.1221L6.45628 12.0016L7.28636 12.8317L8.46385 11.6542C8.50997 11.6711 8.55768 11.6846 8.607 11.6939L7.89551 13.3004C8.23646 13.439 8.60908 13.516 8.99984 13.516C9.39057 13.516 9.76319 13.439 10.1042 13.3004L9.39268 11.6939C9.44197 11.6847 9.48967 11.6711 9.53576 11.6542L10.7132 12.8317L11.5433 12.0016L10.6638 11.1221C11.1114 10.9889 11.4379 10.5745 11.4379 10.0836H11.4018C12.0003 10.0836 12.5216 9.59843 12.5216 8.99996Z" fill="#FFDA44"/>
<path d="M8.99977 9.58691L7.72803 10.1738V11.3478L8.99977 12.1304L10.2715 11.3478V10.1738L8.99977 9.58691Z" fill="#6DA544"/>
<path d="M7.72803 9H10.2715V10.5652H7.72803V9Z" fill="#0052B4"/>
</g>
<defs>
<clipPath id="clip0_8201_10922">
<rect width="18" height="18" fill="white"/>
</clipPath>
</defs>
</svg>
