<svg width="18" height="18" viewBox="0 0 18 18" fill="none" xmlns="http://www.w3.org/2000/svg">
<g clip-path="url(#clip0_14_1324)">
<path fill-rule="evenodd" clip-rule="evenodd" d="M0 0H17.9965V18H0V0Z" fill="#3B5AA3"/>
<path fill-rule="evenodd" clip-rule="evenodd" d="M4.88672 0.0421906L4.70039 3.13594L3.88477 1.16367L4.20117 3.2625L2.93906 1.56797L3.76523 3.50157L2.11289 2.21836L3.39961 3.83203L1.5293 3.00235L3.16758 4.24336L1.12852 3.97266L3.05859 4.73555L0.0351562 5.01328L3.05859 5.21368L1.14258 6.00117L3.16406 5.73047L1.53281 6.93282L3.42422 6.10313L2.13398 7.72735L3.77578 6.48282L2.95312 8.38125L4.26797 6.73594L3.91641 8.78555L4.73906 6.86953L4.92891 9.89649L5.21719 6.87657L5.93086 8.80664L5.66016 6.72891L6.96797 8.37422L6.10664 6.45118L7.74844 7.77305L6.44766 6.12071L8.39531 6.93282L6.66914 5.67422L8.77148 6.02578L6.75703 5.25235L9.88594 5.05899L6.75703 4.76719L8.82422 4.07813L6.69023 4.34532L8.45508 3.11485L6.46523 3.91289L7.83633 2.25L6.16641 3.5543L6.975 1.55742L5.67422 3.25547L5.95547 1.13555L5.18203 3.13594L4.89375 0.0421906H4.88672Z" fill="white"/>
<path fill-rule="evenodd" clip-rule="evenodd" d="M0 17.5148L18 0V3.25898L0 18V17.5148Z" fill="#E2AE57"/>
<path fill-rule="evenodd" clip-rule="evenodd" d="M0.63291 18L18.0001 6.72187L17.9966 3.13945L-0.00341797 18H0.629395H0.63291Z" fill="white"/>
</g>
<defs>
<clipPath id="clip0_14_1324">
<rect width="18" height="18" rx="9" fill="white"/>
</clipPath>
</defs>
</svg>
