<svg width="18" height="18" viewBox="0 0 18 18" fill="none" xmlns="http://www.w3.org/2000/svg">
<g clip-path="url(#clip0_8201_10839)">
<path d="M9 18C13.9705 18 18 13.9705 18 9C18 7.48958 17.6273 6.06635 16.9699 4.81641L8.98942 9.01055L13.1836 1.03015C11.9336 0.372656 10.5104 0 9 0C4.02947 0 0 4.02947 0 9C0 11.4853 1.00737 13.7353 2.63602 15.364C4.2647 16.9927 6.5147 18 9 18Z" fill="#0052B4"/>
<path d="M16.9603 4.82618C16.5484 4.04205 16.0128 3.30584 15.3535 2.64652C14.6941 1.9872 13.958 1.4516 13.1738 1.03967L2.62549 15.3745L16.9603 4.82618Z" fill="#F0F0F0"/>
<path d="M2.62549 15.3745L16.9603 4.82626C16.5484 4.04213 16.0128 3.30593 15.3535 2.64661L2.62549 15.3745Z" fill="#FF9811"/>
<path d="M7.81551 5.2777L6.71638 5.79471L7.3017 6.85924L6.10814 6.6309L5.9569 7.83662L5.12553 6.9498L4.29415 7.83662L4.14298 6.6309L2.94943 6.85917L3.53467 5.79468L2.43555 5.2777L3.53471 4.76066L2.94943 3.6962L4.14291 3.92447L4.29419 2.71875L5.12553 3.60557L5.9569 2.71875L6.10814 3.92447L7.30173 3.6962L6.71642 4.7607L7.81551 5.2777Z" fill="#F0F0F0"/>
</g>
<defs>
<clipPath id="clip0_8201_10839">
<rect width="18" height="18" fill="white"/>
</clipPath>
</defs>
</svg>
