<svg width="18" height="18" viewBox="0 0 18 18" fill="none" xmlns="http://www.w3.org/2000/svg">
<g clip-path="url(#clip0_14_1332)">
<path d="M0 0H18V18H0V0Z" fill="#D20000"/>
<path d="M0 0H3.05156L9 8.68008L14.9484 0H18L0 18H3.05156L9 9.31992L14.9484 18H18L0 0ZM18 7.2V10.8L0 7.2V10.8L18 7.2ZM7.2 0L9 7.71328L10.8 0H7.2ZM7.2 18L9 10.2867L10.8 18H7.2Z" fill="#FFE600"/>
<path d="M9.00005 11.8934C10.598 11.8934 11.8934 10.598 11.8934 9C11.8934 7.40205 10.598 6.10664 9.00005 6.10664C7.40209 6.10664 6.10669 7.40205 6.10669 9C6.10669 10.598 7.40209 11.8934 9.00005 11.8934Z" fill="#FFE600" stroke="#D20000" stroke-width="1.14375"/>
</g>
<defs>
<clipPath id="clip0_14_1332">
<rect width="18" height="18" rx="9" fill="white"/>
</clipPath>
</defs>
</svg>
