<svg width="18" height="18" viewBox="0 0 18 18" fill="none" xmlns="http://www.w3.org/2000/svg">
<g clip-path="url(#clip0_8201_11192)">
<path d="M9 18C13.9706 18 18 13.9706 18 9C18 4.02944 13.9706 0 9 0C4.02944 0 0 4.02944 0 9C0 13.9706 4.02944 18 9 18Z" fill="#FFDA44"/>
<path d="M10.3687 17.8965C11.8325 17.6732 13.1799 17.0968 14.3222 16.2576L9 9L10.3687 17.8965Z" fill="#D80027"/>
<path d="M7.6313 0.103516C6.16757 0.326828 4.82017 0.90325 3.67773 1.74239L9.00004 9.00005L7.6313 0.103516Z" fill="#D80027"/>
<path d="M3.67773 16.2576C4.8201 17.0968 6.1675 17.6732 7.63123 17.8966L9.00004 9L3.67773 16.2576Z" fill="#D80027"/>
<path d="M1.74239 3.67773C0.903215 4.82017 0.326863 6.16754 0.103516 7.6313L9.00005 9.00004L1.74239 3.67773Z" fill="#D80027"/>
<path d="M0.103516 10.3687C0.326828 11.8325 0.90325 13.1799 1.74243 14.3222L9.00005 9L0.103516 10.3687Z" fill="#D80027"/>
<path d="M17.8965 7.63127C17.6732 6.16754 17.0968 4.82014 16.2576 3.67773L9 9L17.8965 7.63127Z" fill="#D80027"/>
<path d="M14.3222 1.74236C13.1798 0.903215 11.8325 0.326828 10.3687 0.103516L9 9.00005L14.3222 1.74236Z" fill="#D80027"/>
<path d="M16.2577 14.3223C17.0968 13.1799 17.6732 11.8324 17.8966 10.3687L9 9L16.2577 14.3223Z" fill="#D80027"/>
<path d="M9.00005 12.1305C10.7289 12.1305 12.1305 10.7289 12.1305 9.00005C12.1305 7.27116 10.7289 5.86963 9.00005 5.86963C7.27116 5.86963 5.86963 7.27116 5.86963 9.00005C5.86963 10.7289 7.27116 12.1305 9.00005 12.1305Z" fill="#D80027"/>
<path d="M9.00018 11.3478C10.2969 11.3478 11.348 10.2966 11.348 8.99994C11.348 7.70326 10.2969 6.6521 9.00018 6.6521C7.70351 6.6521 6.65234 7.70326 6.65234 8.99994C6.65234 10.2966 7.70351 11.3478 9.00018 11.3478Z" fill="#FFDA44"/>
</g>
<defs>
<clipPath id="clip0_8201_11192">
<rect width="18" height="18" fill="white"/>
</clipPath>
</defs>
</svg>
