<svg width="18" height="18" viewBox="0 0 18 18" fill="none" xmlns="http://www.w3.org/2000/svg">
<g clip-path="url(#clip0_14_1205)">
<path d="M0 0H18V18H0V0Z" fill="#FECB00"/>
<path d="M0 6.00117H18V18H0V6.00117Z" fill="#34B233"/>
<path d="M0 11.9988H18V18H0V11.9988Z" fill="#EA2839"/>
<path d="M10.9899 9.63281H7.01025L9.0001 2.99883L10.9899 9.63281Z" fill="white"/>
<path d="M7.39017 8.46321L10.6098 10.8024L5.10063 14.9998L7.39017 8.46321Z" fill="white"/>
<path d="M9.61501 7.74036L8.38522 11.5253L2.69082 7.5828L9.61501 7.74036Z" fill="white"/>
<path d="M9.61483 11.5253L8.38504 7.74035L15.3092 7.58279L9.61483 11.5253Z" fill="white"/>
<path d="M7.39028 10.8024L10.6099 8.46321L12.8995 14.9998L7.39028 10.8024Z" fill="white"/>
</g>
<defs>
<clipPath id="clip0_14_1205">
<rect width="18" height="18" rx="9" fill="white"/>
</clipPath>
</defs>
</svg>
