<svg width="18" height="18" viewBox="0 0 18 18" fill="none" xmlns="http://www.w3.org/2000/svg">
<g clip-path="url(#clip0_8201_10909)">
<path d="M8.99977 18C10.1007 18 11.1552 17.802 12.1302 17.4402L12.5215 9L12.1302 0.559793C11.1552 0.198035 10.1007 0 8.99977 0C7.89889 0 6.8443 0.198035 5.86935 0.559793L5.47803 9L5.86932 17.4402C6.8443 17.802 7.89889 18 8.99977 18Z" fill="#0052B4"/>
<path d="M0 9.00002C0 12.8697 2.44237 16.1686 5.86958 17.4402V0.559814C2.44237 1.83145 0 5.13034 0 9.00002Z" fill="#A2001D"/>
<path d="M12.1304 0.559814V17.4403C15.5576 16.1686 18 12.8697 18 9.00002C18 5.13034 15.5576 1.83145 12.1304 0.559814Z" fill="#A2001D"/>
<path d="M4.3042 9H5.08681V12.1304H4.3042V9Z" fill="#FFDA44"/>
<path d="M1.17383 9H1.95644V12.1304H1.17383V9Z" fill="#FFDA44"/>
<path d="M3.13027 10.9566C3.56249 10.9566 3.91288 10.6062 3.91288 10.174C3.91288 9.74174 3.56249 9.39136 3.13027 9.39136C2.69804 9.39136 2.34766 9.74174 2.34766 10.174C2.34766 10.6062 2.69804 10.9566 3.13027 10.9566Z" fill="#FFDA44"/>
<path d="M3.13055 7.82616C3.34665 7.82616 3.52184 7.65097 3.52184 7.43487C3.52184 7.21876 3.34665 7.04358 3.13055 7.04358C2.91444 7.04358 2.73926 7.21876 2.73926 7.43487C2.73926 7.65097 2.91444 7.82616 3.13055 7.82616Z" fill="#FFDA44"/>
<path d="M2.34766 11.3479H3.91288V12.1305H2.34766V11.3479Z" fill="#FFDA44"/>
<path d="M2.34766 8.21741H3.91288V9.00002H2.34766V8.21741Z" fill="#FFDA44"/>
<path d="M3.13045 4.69568L3.40762 5.54857H4.30438L3.57893 6.0757L3.85589 6.92859L3.13045 6.40146L2.40503 6.92859L2.68199 6.0757L1.95654 5.54857H2.85331L3.13045 4.69568Z" fill="#FFDA44"/>
</g>
<defs>
<clipPath id="clip0_8201_10909">
<rect width="18" height="18" fill="white"/>
</clipPath>
</defs>
</svg>
