<svg width="18" height="18" viewBox="0 0 18 18" fill="none" xmlns="http://www.w3.org/2000/svg">
<g clip-path="url(#clip0_8201_10788)">
<path d="M9 18C13.9706 18 18 13.9706 18 9C18 4.02944 13.9706 0 9 0C4.02944 0 0 4.02944 0 9C0 13.9706 4.02944 18 9 18Z" fill="#496E2D"/>
<path d="M10.5654 8.62473C10.3445 8.62473 10.1347 8.66878 9.93998 8.73889C10.0467 8.50109 10.1182 8.2365 10.1182 7.95395C10.1182 6.83595 9.00022 5.99744 9.00022 5.99744C9.00022 5.99744 7.88222 6.83595 7.88222 7.95395C7.88222 8.23647 7.95376 8.50109 8.06046 8.73889C7.86566 8.66885 7.65592 8.62473 7.43503 8.62473C6.31703 8.62473 5.47852 9.74274 5.47852 9.74274C5.47852 9.74274 6.31703 10.8608 7.43503 10.8608C8.09052 10.8608 8.64957 10.4766 9.00026 10.1586C9.35094 10.4766 9.91 10.8608 10.5655 10.8608C11.6835 10.8608 12.522 9.74274 12.522 9.74274C12.522 9.74274 11.6834 8.62473 10.5654 8.62473Z" fill="#F0F0F0"/>
<path d="M9.00023 3.52173L9.23117 4.23245H9.97849L9.37398 4.67176L9.60474 5.38248L9.00023 4.94317L8.39572 5.38248L8.62648 4.67176L8.02197 4.23245H8.76929L9.00023 3.52173Z" fill="#FFDA44"/>
<path d="M6.15857 4.76477L6.60287 5.16478L7.12062 4.86588L6.87748 5.41203L7.32175 5.81211L6.72719 5.7496L6.48405 6.29575L6.35966 5.711L5.76514 5.64849L6.28285 5.34952L6.15857 4.76477Z" fill="#FFDA44"/>
<path d="M4.07812 6.84513L4.66291 6.96941L4.96185 6.45166L5.02436 7.04619L5.60907 7.17057L5.06296 7.41375L5.12546 8.00824L4.72535 7.56404L4.17923 7.80718L4.47817 7.2894L4.07812 6.84513Z" fill="#FFDA44"/>
<path d="M11.8419 4.76477L11.3976 5.16478L10.8798 4.86588L11.1229 5.41203L10.6787 5.81211L11.2733 5.7496L11.5164 6.29575L11.6408 5.711L12.2353 5.64849L11.7176 5.34952L11.8419 4.76477Z" fill="#FFDA44"/>
<path d="M13.9226 6.84513L13.3378 6.96941L13.0389 6.45166L12.9763 7.04619L12.3916 7.17057L12.9377 7.41375L12.8752 8.00824L13.2753 7.56404L13.8214 7.80718L13.5225 7.2894L13.9226 6.84513Z" fill="#FFDA44"/>
<path d="M8.99999 13.9911C9.88807 13.9911 10.7067 13.6948 11.3633 13.1963H6.63672C7.29337 13.6948 8.11191 13.9911 8.99999 13.9911Z" fill="#F0F0F0"/>
<path d="M5.41309 11.6433C5.53729 11.9276 5.69479 12.1938 5.87979 12.4382H12.1207C12.3056 12.1939 12.4631 11.9276 12.5874 11.6433H5.41309Z" fill="#F0F0F0"/>
</g>
<defs>
<clipPath id="clip0_8201_10788">
<rect width="18" height="18" fill="white"/>
</clipPath>
</defs>
</svg>
