<svg width="18" height="18" viewBox="0 0 18 18" fill="none" xmlns="http://www.w3.org/2000/svg">
<g clip-path="url(#clip0_14_1296)">
<mask id="mask0_14_1296" style="mask-type:luminance" maskUnits="userSpaceOnUse" x="-1" y="0" width="19" height="18">
<path d="M-0.00146484 0H17.9958V17.9972H-0.00146484V0Z" fill="white"/>
</mask>
<g mask="url(#mask0_14_1296)">
<path fill-rule="evenodd" clip-rule="evenodd" d="M-9 0H26.9981V17.9972H-9V0Z" fill="#0071BC"/>
<path fill-rule="evenodd" clip-rule="evenodd" d="M11.08 14.2381C11.08 14.2381 11.715 13.5669 12.3246 13.6939C12.506 12.9899 13.199 12.9319 13.199 12.9319C13.199 12.9319 13.1301 12.1518 14.0154 11.9812C14.0408 11.4515 14.5779 11.0088 14.5779 11.0088C14.5779 11.0088 14.469 10.1888 15.0314 9.99645C14.6867 9.34333 15.1475 8.87162 15.1403 8.85711C15.133 8.8426 14.5597 7.82299 15.0713 7.53272C14.5271 7.07553 14.7085 6.55303 14.7085 6.55303C14.7085 6.55303 14.1134 6.40426 14.3275 5.69308C13.8413 5.60962 13.7433 4.82224 13.7433 4.82224C13.7433 4.82224 12.9886 4.97101 12.9015 4.31789C12.4044 4.39771 12.35 3.90787 12.3427 3.90787C12.3391 3.90787 11.363 4.17275 11.1671 3.43617C10.7897 3.62848 10.6228 3.28014 10.6228 3.28014C10.6228 3.28014 10.0786 3.54865 9.75562 3.02978C9.10975 3.43254 8.75053 3.01163 8.75053 3.01163C8.75053 3.01163 7.90147 3.57405 7.62207 3.13863C7.12134 3.64662 6.67504 3.42891 6.67504 3.42891C6.67504 3.42891 6.29768 4.09655 5.68447 3.92601C5.54658 4.55011 4.84266 4.56099 4.84266 4.56099C4.84266 4.56099 4.91523 5.11252 4.07342 5.25766C3.96457 5.90353 3.52552 6.01601 3.52552 6.01601C3.52552 6.01601 3.56906 6.64374 3.16993 6.84331C3.31507 7.1989 2.94497 7.63069 2.94497 7.63069C2.94497 7.63069 3.33684 8.12779 2.80345 8.67206C3.3187 8.80631 2.94859 9.69166 2.94859 9.69166C2.94859 9.69166 3.65252 10.011 3.20622 10.5988C3.7142 10.7584 3.55455 11.1648 3.56181 11.4007C3.88837 11.5458 4.17139 11.4732 4.03351 12.1264C5.02771 12.2352 4.55601 12.7868 4.55601 12.7868C4.55601 12.7868 5.02045 12.8049 4.83903 13.1714C5.68447 13.1532 5.80783 13.8064 5.80783 13.8064C5.80783 13.8064 6.59521 13.5995 6.70044 13.9043C6.80204 14.2091 6.35573 16.2628 6.35573 16.2628C6.35573 16.2628 5.69172 16.2628 5.19462 15.7331C4.03714 15.704 4.29476 14.9421 4.27662 14.9421C4.25847 14.9421 3.892 15.0799 3.70332 14.445C2.92682 14.6046 2.95222 13.9515 2.94497 13.9442C2.93771 13.9406 2.59663 13.7882 2.72726 13.4653C1.92899 13.5378 1.98705 12.7577 1.98705 12.7577C1.81288 12.6852 1.74757 12.5219 1.77297 12.3586C1.67137 12.3223 0.960189 12.3114 1.32667 11.3789C0.651769 10.9689 1.07267 10.4972 1.07267 10.4972C1.07267 10.4972 0.136525 10.0146 0.854964 9.45944C0.325206 8.67206 0.905762 8.27293 0.905762 8.27293C0.905762 8.27293 0.161924 7.5182 0.916647 6.98119C0.793279 5.83096 1.47906 5.55882 1.47906 5.55882C1.47906 5.55882 1.11621 4.62631 2.0959 4.23443C2.15759 3.29103 2.83974 3.262 2.83974 3.262C2.83974 3.262 2.85788 2.5109 3.92828 2.5871C4.13873 1.91583 4.87169 2.05009 4.87169 2.05009C4.87169 2.05009 5.09665 1.23731 6.09085 1.62918C6.59884 0.638611 7.34994 1.1466 7.34994 1.1466C7.34994 1.1466 7.82527 0.834548 8.06475 0.928889C8.36591 0.413645 9.00815 0.910746 9.42542 1.01234C9.57782 0.954288 10.1148 0.547899 10.5285 1.05951C11.08 0.696666 11.5481 1.34979 11.5481 1.34979C11.5481 1.34979 12.3064 0.961545 12.6584 1.84326C14.2658 1.69813 14.0336 2.74676 14.0336 2.74676C14.0336 2.74676 15.2963 2.45648 15.0205 3.71556C16.1708 3.79539 16.0547 4.55011 16.0547 4.55011C16.0547 4.55011 16.7803 5.10164 16.461 5.59511C17.1069 5.62414 16.8711 6.24824 16.8711 6.24824C16.8711 6.24824 17.3645 6.43692 16.9545 7.20615C17.9015 7.96451 17.1359 8.71197 17.1359 8.70834C17.1251 8.70109 17.6403 9.31793 17.1759 10.0255C17.3174 11.1503 16.7477 11.437 16.7477 11.437C16.7477 11.437 16.8928 12.1627 16.2615 12.3695C16.247 13.2222 15.4414 13.3274 15.4414 13.3274C15.4414 13.3274 15.6591 13.6975 14.8573 14.0894C14.8246 14.6627 13.99 14.7062 13.99 14.7062C13.99 14.7062 13.9102 15.7585 12.8471 15.4755C12.5931 16.3173 11.3485 16.0669 11.3231 16.056C11.2977 16.0451 11.0836 14.249 11.0836 14.2418L11.08 14.2381Z" fill="white" stroke="black" stroke-width="0.122562"/>
<path fill-rule="evenodd" clip-rule="evenodd" d="M3.36941 4.16549C3.36941 4.16549 3.63791 4.39771 3.58712 4.74605C3.53632 5.09438 3.33675 5.57697 3.37666 5.93619C3.40206 6.08133 3.39118 6.33895 3.39118 6.33895C3.39118 6.33895 3.1517 5.99787 3.14807 5.63139C3.14444 5.26492 3.40932 4.91658 3.40932 4.64445C3.40932 4.37231 3.36215 4.16186 3.36941 4.16549ZM3.23515 4.27072C3.23515 4.27072 2.88682 4.60454 2.84328 4.92747C2.80699 5.09438 2.79611 5.87087 2.79248 6.21921L2.7308 6.8941C2.71991 7.0465 2.98479 6.63285 3.00293 6.29903C2.98835 5.90337 2.99683 5.5072 3.02833 5.11252C3.06099 4.96738 3.05373 4.81136 3.1009 4.66985L3.23515 4.27072Z" fill="#217900" stroke="black" stroke-width="0.122562" stroke-linejoin="round"/>
<path fill-rule="evenodd" clip-rule="evenodd" d="M10.9166 3.18217C10.9166 3.18217 11.3702 2.97172 11.4972 2.58347C11.6242 2.19523 11.1053 2.1916 11.0364 2.31497C10.9674 2.43834 11.0944 2.74676 11.0618 2.82658C11.0291 2.91004 10.8441 3.10598 10.9166 3.18217Z" fill="#FFD200" stroke="#EF8A10" stroke-width="0.122562"/>
<path fill-rule="evenodd" clip-rule="evenodd" d="M6.90357 3.32368C6.90357 3.32368 7.19748 2.92092 7.12128 2.51816C7.04871 2.1154 6.58789 2.36576 6.58789 2.50727C6.58789 2.64878 6.84914 2.85561 6.86003 2.94269C6.87091 3.02977 6.8056 3.29102 6.90357 3.32368ZM6.10893 3.56316C6.10893 3.56316 6.40284 3.1604 6.32664 2.75764C6.25407 2.35488 5.79326 2.60524 5.79326 2.74675C5.79326 2.88826 6.05451 3.09509 6.06539 3.18217C6.07628 3.26925 6.01096 3.5305 6.10893 3.56316ZM5.22721 3.83529C5.22721 3.83529 5.52112 3.43253 5.44492 3.02977C5.37235 2.62701 4.91153 2.87738 4.91153 3.01889C4.91153 3.1604 5.17279 3.36722 5.18367 3.4543C5.19456 3.54139 5.12924 3.80264 5.22721 3.83529ZM4.61037 4.45214C4.61037 4.45214 4.90065 4.053 4.82808 3.65024C4.74825 3.24748 4.29107 3.49785 4.29107 3.63936C4.29107 3.78087 4.55232 3.98769 4.5632 4.07477C4.57409 4.16186 4.50877 4.42311 4.60674 4.45576L4.61037 4.45214ZM3.95725 5.05446C3.95725 5.05446 4.24752 4.6517 4.17495 4.24894C4.09513 3.84618 3.63794 4.09655 3.63794 4.23806C3.63794 4.37957 3.89919 4.58639 3.91008 4.67347C3.92096 4.76056 3.85565 5.02181 3.95362 5.05446H3.95725Z" fill="#FFD200" stroke="#EF8A10" stroke-width="0.167716"/>
<path fill-rule="evenodd" clip-rule="evenodd" d="M5.45583 1.5675C5.45583 1.5675 5.06395 1.87592 5.03129 2.28231C4.99501 2.69233 5.503 2.57259 5.53928 2.43833C5.57557 2.30045 5.38326 2.03194 5.39414 1.94486C5.40866 1.85778 5.53928 1.62555 5.45583 1.5675ZM6.76208 1.16474C6.76208 1.16474 6.3702 1.47316 6.33392 1.87955C6.29763 2.28957 6.80562 2.16983 6.84553 2.03557C6.88182 1.89769 6.68951 1.62918 6.70039 1.5421C6.71491 1.45502 6.84553 1.22279 6.76208 1.16474ZM1.89629 4.68799C1.89629 4.68799 1.97612 5.18146 2.31719 5.40643C2.65827 5.63139 2.79978 5.13429 2.69818 5.03269C2.59659 4.9311 2.2664 4.97827 2.19745 4.92384C2.12488 4.87304 1.987 4.64082 1.89629 4.68799ZM1.24316 6.35709C1.24316 6.35709 1.24679 6.85782 1.54796 7.13358C1.84912 7.41298 2.06683 6.94127 1.98337 6.82516C1.89992 6.70905 1.5661 6.70179 1.50441 6.64011C1.44273 6.5748 1.34113 6.32806 1.24316 6.35709ZM2.74898 8.22213C2.74898 8.22213 2.56756 7.75768 2.1902 7.60528C1.81284 7.44926 1.77292 7.96813 1.89266 8.0407C2.00877 8.12053 2.32808 8.0153 2.40428 8.05159C2.4841 8.08787 2.66553 8.28744 2.74898 8.22213ZM2.43331 7.4166C2.43331 7.4166 2.7381 7.01747 2.66916 6.61834C2.60022 6.21195 2.1394 6.45506 2.13577 6.59657C2.13577 6.73808 2.38976 6.94853 2.40065 7.03561C2.40791 7.1227 2.33896 7.38395 2.43693 7.4166H2.43331ZM11.8456 3.58493C11.8456 3.58493 12.2955 3.37448 12.4261 2.98623C12.5568 2.59799 12.0343 2.59436 11.9653 2.71773C11.8964 2.84109 12.0234 3.14952 11.9907 3.22934C11.9581 3.3128 11.773 3.50873 11.8456 3.58493ZM13.2135 4.26709C13.2135 4.26709 13.4784 3.84618 13.3768 3.44705C13.2752 3.05155 12.8325 3.33094 12.8434 3.47245C12.8543 3.61759 13.1264 3.80264 13.1446 3.88972C13.1627 3.97681 13.1119 4.24169 13.2135 4.26709ZM16.9508 8.14593C16.9508 8.14593 16.7694 7.68148 16.3921 7.52546C16.0111 7.36943 15.9748 7.88831 16.0909 7.96813C16.2106 8.0407 16.5263 7.93548 16.6061 7.97539C16.686 8.01167 16.8674 8.21124 16.9508 8.14593ZM15.1221 8.43621C15.1221 8.43621 15.133 7.93548 15.4378 7.66334C15.7426 7.38758 15.953 7.86291 15.8696 7.97539C15.7825 8.08787 15.4486 8.09513 15.387 8.15681C15.3253 8.22213 15.2201 8.46886 15.1221 8.43621ZM14.8282 3.14952C14.8282 3.14952 14.3637 2.97172 13.9936 3.14952C13.6235 3.32731 13.9864 3.7083 14.1243 3.66839C14.2621 3.6321 14.3891 3.32731 14.4726 3.29103C14.5524 3.25837 14.8209 3.25474 14.8282 3.14952ZM13.7614 2.25691C13.7614 2.25691 13.297 2.07911 12.9269 2.25691C12.5604 2.43833 12.9196 2.8157 13.0575 2.77578C13.1954 2.7395 13.326 2.43471 13.4058 2.39842C13.4856 2.36576 13.7578 2.36214 13.7614 2.25691ZM12.1721 1.40422C12.1721 1.40422 11.7766 1.70901 11.7367 2.11903C11.7004 2.52542 12.2084 2.41293 12.2447 2.27868C12.2846 2.1408 12.0923 1.87229 12.1068 1.78521C12.1213 1.69812 12.2556 1.4659 12.1721 1.40785V1.40422ZM11.1344 1.16111C11.1344 1.16111 10.953 1.62555 11.1308 1.99566C11.3086 2.36576 11.6859 2.00292 11.6496 1.86866C11.6134 1.73441 11.3049 1.60016 11.2723 1.5167C11.2396 1.43687 11.236 1.16837 11.1344 1.16111ZM8.19533 2.94995C8.19533 2.94995 8.51826 2.57259 8.47109 2.16257C8.42392 1.75618 7.94859 1.97389 7.9377 2.1154C7.93045 2.25691 8.17356 2.47825 8.18081 2.56896C8.18081 2.65604 8.10099 2.91004 8.19533 2.94995Z" fill="#FFD200" stroke="#EF8A10" stroke-width="0.122562"/>
<path fill-rule="evenodd" clip-rule="evenodd" d="M9.94789 3.76273C9.94789 3.76273 10.7208 3.81353 10.7607 4.25621C10.8006 4.69888 10.5756 4.96739 10.5756 4.96739C10.5756 4.96739 10.6736 5.92531 9.91523 6.2047C9.10608 6.30267 7.83611 6.22647 7.83611 6.22647C7.83611 6.22647 7.46601 6.32081 7.31361 5.54794C7.16122 4.77508 7.11768 4.22718 7.11768 4.22718C7.11768 4.22718 7.19387 3.79539 7.73814 3.76999C8.28242 3.74096 9.94426 3.77362 9.95152 3.76273H9.94789Z" fill="#8C8A8C" stroke="black" stroke-width="0.122562"/>
<path d="M10.572 4.96375C10.572 4.96375 10.1547 5.48262 10.1983 5.68945" stroke="black" stroke-width="0.122562" stroke-linecap="round"/>
<path fill-rule="evenodd" clip-rule="evenodd" d="M10.0133 6.1793C10.1149 6.26639 10.2129 6.36073 10.2346 6.68003L10.2782 7.31864L10.8188 12.1808L11.2941 15.6968L11.3268 16.2411C11.3268 16.2411 11.2143 16.6402 10.8914 16.6765C10.6628 17.1591 9.4037 17.3006 9.28033 17.2933C9.16785 17.2897 8.76509 17.1228 8.52198 17.1446C8.27887 17.1663 7.85797 17.326 7.66929 17.3006C7.48061 17.2752 7.05245 17.1264 6.97988 16.818C6.45012 16.6511 6.36304 16.2483 6.36304 16.2483L6.93634 12.1808L7.49149 7.03562C7.49149 7.03562 7.55681 6.34984 7.83257 6.24824C8.11922 6.22284 9.59964 6.27727 10.0133 6.17567V6.1793Z" fill="#8C8A8C" stroke="black" stroke-width="0.122562"/>
<path d="M7.09588 13.2185L6.9834 16.8144M10.5937 13.6939L10.9094 16.6583" stroke="black" stroke-width="0.122562"/>
<path d="M1.35216 11.3463L1.33765 11.3898M16.2942 11.2193L16.3051 11.2555" stroke="black" stroke-width="0.0645062"/>
<path d="M0.949189 6.49134C0.949189 6.49134 1.18867 6.81791 1.22858 7.00659C1.27212 7.19527 1.35195 7.56537 1.45355 7.71777C1.55877 7.86654 2.14296 8.71197 2.17924 9.06394C2.17924 9.29253 1.93251 9.68803 1.5624 9.69529C1.33381 9.68803 0.738738 9.53564 0.713338 9.02765C0.687939 8.51966 0.894761 8.50515 0.920161 8.1931C0.94556 7.88468 0.949189 6.4986 0.949189 6.48772V6.49134Z" stroke="#6B18B5" stroke-width="0.122562" stroke-linejoin="round"/>
<path d="M5.01682 2.03195C5.01682 2.03195 4.77008 2.04646 4.5814 2.14806C4.43626 2.23877 4.18953 2.36577 4.01536 2.60888C3.57631 2.94996 2.9123 3.10961 2.70548 3.39626C2.57848 3.58857 2.58574 4.05664 2.90142 4.25258C3.10098 4.36869 3.6888 4.54648 3.97182 4.12558C4.2621 3.70105 4.08793 3.58131 4.22581 3.30555C4.46166 2.67056 5.01319 2.03558 5.01682 2.02832V2.03195ZM10.9566 1.40785C10.9566 1.40785 10.7752 1.24094 10.5684 1.17926C10.4015 1.13572 10.1257 1.15386 9.83906 1.12483C9.28391 1.04863 8.71424 0.649501 8.3659 0.696671C8.14094 0.743841 7.81075 1.07403 7.88694 1.43325C7.94137 1.65822 8.19174 2.11178 8.69609 2.02107C9.19682 1.93398 9.1932 1.8215 9.49073 1.73079C10.2128 1.3244 10.9494 1.40422 10.9566 1.40422V1.40785ZM16.8493 7.13359C16.8928 7.03925 16.813 6.86508 16.7622 6.65463C16.7078 6.49135 16.6316 6.23736 16.4393 6.01239C16.2107 5.5044 16.2506 4.80411 16.0256 4.5356C15.866 4.36506 15.4088 4.25984 15.1439 4.51746C14.9842 4.68437 14.6722 5.2105 15.0133 5.59149C15.3543 5.96885 15.5031 5.82734 15.739 6.0269C16.3014 6.40427 16.5735 7.06465 16.8493 7.13359ZM16.6533 11.5894C16.7259 11.4805 16.8674 11.2809 16.8493 11.1104C16.8384 10.9725 16.911 10.5661 16.9219 10.3847C16.9726 9.83318 17.321 9.37962 17.223 8.89703C17.1686 8.67569 16.8384 8.35276 16.4828 8.4471C16.2615 8.51604 15.7716 8.78455 15.8841 9.28165C15.9966 9.78238 16.1562 9.77149 16.2651 10.0654C16.5699 10.6677 16.374 11.3825 16.6533 11.5894Z" stroke="#6B18B5" stroke-width="0.0645062" stroke-linejoin="round"/>
<path d="M12.564 15.1235C12.564 15.1235 12.4697 15.3049 12.847 15.4609M13.3187 14.6953C13.3187 14.6953 13.736 14.5937 14.019 14.6953M14.5705 13.6358C14.5705 13.6431 14.5125 13.8245 14.8463 14.0857M14.81 13.1641C14.81 13.1641 15.0568 13.3455 15.4704 13.3383M12.3245 13.6939C12.3245 13.6939 12.339 14.1728 12.0923 14.3978M13.1518 12.9537C13.1518 12.9537 13.5546 13.0553 13.8884 12.8883M15.7498 12.2534C15.7498 12.2534 15.8369 12.3767 16.2868 12.355M14.0009 11.9703C14.0118 11.9776 14.527 12.1445 14.8536 11.9921M15.0277 9.99645C15.0277 9.99645 15.0495 9.97105 15.2092 10.5298M15.4269 8.42532C15.4269 8.42532 15.4051 8.72286 15.1656 8.85348M16.9544 7.20978C16.9544 7.20978 16.6061 7.4928 16.6714 7.60892M15.22 7.00659C15.22 7.00659 15.4015 7.31138 15.1076 7.52183M14.3456 5.70397C14.3456 5.70397 14.6576 5.68945 14.7955 5.95796M13.7578 4.81862H13.9972M14.9987 3.73007C14.9987 3.74096 15.064 3.79902 14.9406 3.92238M12.7744 3.76273C12.7744 3.76273 12.9414 4.02398 12.9123 4.34329M13.736 2.87738C13.8086 2.87013 14.0553 2.76127 14.0553 2.76127M12.6656 1.83964C12.6583 1.83964 12.5712 2.1662 12.7309 2.28231M12.2628 3.32731C12.2628 3.67565 12.5386 3.58856 12.3499 3.92238M11.5879 3.03704C11.4273 3.14935 11.2811 3.28096 11.1525 3.42891M10.474 2.85561C10.474 2.85561 10.6554 3.03704 10.6119 3.28377M9.94423 2.71047C9.94423 2.71047 9.84989 2.98624 9.72652 3.05881M8.97906 2.6379C8.9718 2.65242 8.82666 2.96447 8.72506 3.02252M7.66192 2.64516C7.66918 2.64516 7.80706 2.93544 7.62564 3.14589M7.35713 1.1466C7.36438 1.15386 7.38615 1.37156 7.24827 1.56025M6.05088 1.64007C6.05088 1.64733 6.11256 1.88681 5.72431 1.96663M5.32155 3.84619C5.32881 3.8607 5.69166 3.91876 5.69166 3.91876M4.41806 4.68436C4.5637 4.63616 4.71006 4.59019 4.85711 4.54648M3.71414 5.22864C3.72865 5.22864 4.01893 5.27943 4.0915 5.24315M3.51094 5.49714C3.51094 5.49714 3.60528 5.54794 3.52546 6.03416M2.09584 4.21992L2.27363 4.48117M1.50439 5.56246C1.50439 5.5552 1.67856 5.8237 1.91078 5.8745M2.87233 6.92676C2.87959 6.92676 3.15535 6.86508 3.19889 6.83605M2.74896 7.91008C2.75622 7.91008 2.7417 7.72866 2.96667 7.60529M2.45143 8.36001C2.45143 8.36727 2.66188 8.62852 2.80702 8.6648M2.32806 8.85711C2.34983 8.84985 2.5748 8.65392 2.83605 8.66843M2.25549 9.53201C2.25549 9.53201 2.26275 9.75697 2.93039 9.69892M2.3208 10.3266C2.3208 10.3194 2.51674 9.87671 2.91587 9.7098M2.85782 10.8927C2.85782 10.8927 2.91587 10.704 3.24969 10.5734M3.22792 11.6365C3.22792 11.6365 3.4674 11.4406 3.55448 11.4116M3.52546 12.2171C3.52546 12.2171 3.6706 12.3695 4.03344 12.1082M1.77653 12.3368C1.82007 12.3296 2.3462 12.2062 2.52763 12.482M1.98335 12.7722C1.98335 12.7722 2.54214 12.6997 2.61471 12.7577M3.97902 12.8883C3.97902 12.8883 3.90645 13.0407 4.59586 12.7868M4.83171 13.1641C4.70834 13.3709 4.86074 13.5378 4.70108 13.6358M2.74171 13.4544C2.75985 13.4362 2.9957 13.3564 2.95941 13.0262M2.94853 13.9515C2.97756 13.9442 3.36217 13.7773 3.442 13.8644M3.69962 14.4413C3.69962 14.4413 3.75042 14.1003 3.85928 14.064M4.27655 14.9566C4.27655 14.9566 4.59586 14.9493 4.73374 14.8477M4.89339 13.8027C4.90065 13.81 5.19093 13.9624 5.80777 13.81M5.12561 15.1888C5.12561 15.1888 5.2127 15.6278 5.20544 15.7331" stroke="black" stroke-width="0.122562"/>
<path fill-rule="evenodd" clip-rule="evenodd" d="M16.2548 8.38807C16.2375 8.24984 16.1666 8.11832 16.0774 8.05926C15.974 7.99498 15.8667 8.00839 15.7957 8.09448C15.7247 8.18057 15.6807 8.31943 15.698 8.45766C15.7162 8.6028 15.7862 8.72741 15.8762 8.79338C15.9797 8.85766 16.087 8.84425 16.158 8.75816C16.229 8.67207 16.2797 8.53237 16.2557 8.39498L16.2548 8.38807Z" fill="#DE2010" stroke="black" stroke-width="0.162655"/>
<path fill-rule="evenodd" clip-rule="evenodd" d="M16.1933 7.6515C16.176 7.51327 16.1051 7.38175 16.0159 7.32269C15.9125 7.25841 15.8052 7.27182 15.7342 7.35791C15.6632 7.444 15.6192 7.58286 15.6365 7.72109C15.6546 7.86623 15.7247 7.99084 15.8147 8.0568C15.9181 8.12109 16.0255 8.10768 16.0965 8.02159C16.1675 7.9355 16.2181 7.7958 16.1941 7.65841L16.1933 7.6515Z" fill="#DE2010" stroke="black" stroke-width="0.162655"/>
<path fill-rule="evenodd" clip-rule="evenodd" d="M16.0415 6.86846C16.0121 6.73229 15.9299 6.60751 15.8359 6.55652C15.7273 6.50157 15.6215 6.52436 15.5584 6.61636C15.4952 6.70835 15.4636 6.85054 15.493 6.98672C15.5238 7.1297 15.6046 7.24767 15.7 7.30547C15.8087 7.36042 15.9144 7.33763 15.9776 7.24563C16.0407 7.15364 16.0789 7.01002 16.043 6.87527L16.0415 6.86846Z" fill="#DE2010" stroke="black" stroke-width="0.162656"/>
<path fill-rule="evenodd" clip-rule="evenodd" d="M15.7702 6.04778C15.7071 5.92359 15.5958 5.8239 15.4919 5.79855C15.3728 5.77312 15.2764 5.82211 15.2388 5.92717C15.2012 6.03222 15.2069 6.17776 15.27 6.30196C15.3362 6.43236 15.4444 6.52584 15.5514 6.5574C15.6705 6.58284 15.7669 6.53384 15.8046 6.42878C15.8422 6.32373 15.8425 6.17512 15.7734 6.05399L15.7702 6.04778Z" fill="#DE2010" stroke="black" stroke-width="0.162656"/>
<path fill-rule="evenodd" clip-rule="evenodd" d="M15.4799 5.3874C15.4168 5.26321 15.3055 5.16351 15.2016 5.13816C15.0825 5.11273 14.9861 5.16173 14.9485 5.26678C14.9109 5.37184 14.9166 5.51738 14.9797 5.64157C15.0459 5.77197 15.1541 5.86546 15.2611 5.89702C15.3802 5.92245 15.4767 5.87345 15.5143 5.7684C15.5519 5.66335 15.5522 5.51474 15.4831 5.39361L15.4799 5.3874Z" fill="#DE2010" stroke="black" stroke-width="0.162656"/>
<path fill-rule="evenodd" clip-rule="evenodd" d="M15.0681 4.72579C14.9947 4.60738 14.8754 4.51747 14.7697 4.50101C14.6489 4.48576 14.557 4.54274 14.5284 4.6506C14.4998 4.75847 14.5178 4.90301 14.5912 5.02141C14.6683 5.14573 14.784 5.22972 14.8933 5.2521C15.0141 5.26736 15.106 5.21037 15.1346 5.10251C15.1632 4.99465 15.1509 4.84655 15.0718 4.73171L15.0681 4.72579Z" fill="#DE2010" stroke="black" stroke-width="0.162656"/>
<path fill-rule="evenodd" clip-rule="evenodd" d="M14.6068 4.0866C14.5223 3.97585 14.3948 3.8979 14.288 3.89173C14.1663 3.88822 14.0803 3.95383 14.0623 4.06395C14.0443 4.17407 14.0762 4.31619 14.1606 4.42695C14.2494 4.54324 14.3726 4.61565 14.4836 4.62735C14.6053 4.63086 14.6913 4.56525 14.7093 4.45513C14.7274 4.34501 14.7008 4.19879 14.611 4.09214L14.6068 4.0866Z" fill="#DE2010" stroke="black" stroke-width="0.162656"/>
<path fill-rule="evenodd" clip-rule="evenodd" d="M14.0583 3.49461C13.9586 3.39728 13.8212 3.33864 13.7147 3.34801C13.5937 3.36218 13.5182 3.43956 13.5163 3.55113C13.5144 3.66271 13.5666 3.7987 13.6662 3.89604C13.7709 3.99824 13.9033 4.05201 14.0148 4.04751C14.1358 4.03334 14.2114 3.95595 14.2132 3.84438C14.2151 3.73281 14.1677 3.59198 14.0633 3.49948L14.0583 3.49461Z" fill="#DE2010" stroke="black" stroke-width="0.162656"/>
<path fill-rule="evenodd" clip-rule="evenodd" d="M13.4401 2.94428C13.3319 2.85653 13.1896 2.81077 13.0844 2.8299C12.9653 2.85514 12.8971 2.93915 12.9055 3.05042C12.9139 3.16168 12.9784 3.2923 13.0866 3.38006C13.2002 3.4722 13.337 3.51357 13.4476 3.49883C13.5668 3.47359 13.6349 3.38958 13.6265 3.27831C13.6181 3.16704 13.5579 3.03117 13.4455 2.94867L13.4401 2.94428Z" fill="#DE2010" stroke="black" stroke-width="0.162656"/>
<path fill-rule="evenodd" clip-rule="evenodd" d="M12.7837 2.50761C12.6624 2.43904 12.5145 2.41754 12.414 2.45386C12.3007 2.49853 12.2474 2.59268 12.2742 2.70101C12.301 2.80934 12.3862 2.92745 12.5075 2.99602C12.6348 3.06803 12.7766 3.0861 12.8832 3.05321C12.9965 3.00854 13.0497 2.91439 13.023 2.80606C12.9962 2.69773 12.9143 2.57373 12.7897 2.51104L12.7837 2.50761Z" fill="#DE2010" stroke="black" stroke-width="0.162656"/>
<path fill-rule="evenodd" clip-rule="evenodd" d="M12.0495 2.12181C11.9225 2.06456 11.7733 2.05661 11.6764 2.10193C11.5677 2.15673 11.5232 2.25533 11.5597 2.36078C11.5962 2.46622 11.6919 2.57608 11.8188 2.63334C11.9522 2.69346 12.0951 2.69855 12.1983 2.65608C12.307 2.60129 12.3515 2.50268 12.315 2.39724C12.2785 2.29179 12.1856 2.17577 12.0558 2.12468L12.0495 2.12181Z" fill="#DE2010" stroke="black" stroke-width="0.162656"/>
<path fill-rule="evenodd" clip-rule="evenodd" d="M11.3316 1.83037C11.2011 1.78176 11.0517 1.78383 10.9581 1.83555C10.8533 1.89751 10.8155 1.99887 10.859 2.10163C10.9025 2.20439 11.0053 2.30759 11.1358 2.35621C11.2729 2.40725 11.4158 2.40275 11.5159 2.35346C11.6207 2.29151 11.6585 2.19014 11.615 2.08738C11.5715 1.98462 11.4711 1.87508 11.3382 1.8328L11.3316 1.83037Z" fill="#DE2010" stroke="black" stroke-width="0.162656"/>
<path fill-rule="evenodd" clip-rule="evenodd" d="M10.6022 1.60038C10.4683 1.56187 10.3194 1.57534 10.2301 1.63405C10.1303 1.70383 10.1004 1.80778 10.1516 1.90692C10.2028 2.00606 10.3132 2.10112 10.447 2.13963C10.5876 2.18006 10.7297 2.16467 10.8258 2.10789C10.9256 2.03811 10.9555 1.93416 10.9043 1.83501C10.8531 1.73587 10.7446 1.63432 10.6088 1.60231L10.6022 1.60038Z" fill="#DE2010" stroke="black" stroke-width="0.162656"/>
<path fill-rule="evenodd" clip-rule="evenodd" d="M9.79575 1.4642C9.65754 1.44677 9.51256 1.48299 9.4333 1.55477C9.34545 1.63908 9.33191 1.74639 9.39777 1.83647C9.46364 1.92654 9.58732 2.00347 9.72553 2.0209C9.87065 2.0392 10.0087 2.0021 10.0949 1.9312C10.1827 1.84689 10.1963 1.73957 10.1304 1.6495C10.0646 1.55943 9.94171 1.47579 9.80266 1.46507L9.79575 1.4642Z" fill="#DE2010" stroke="black" stroke-width="0.162656"/>
<path fill-rule="evenodd" clip-rule="evenodd" d="M9.00262 1.42139C8.86343 1.4158 8.72207 1.46425 8.64921 1.54252C8.56886 1.63401 8.56452 1.74209 8.63782 1.82623C8.71112 1.91036 8.84091 1.97646 8.98011 1.98205C9.12626 1.98792 9.26066 1.93919 9.34047 1.86121C9.42083 1.76971 9.42517 1.66163 9.35187 1.5775C9.27856 1.49337 9.14904 1.42051 9.00958 1.42167L9.00262 1.42139Z" fill="#DE2010" stroke="black" stroke-width="0.162656"/>
<path fill-rule="evenodd" clip-rule="evenodd" d="M8.27337 1.44317C8.13418 1.43758 7.99282 1.48603 7.91997 1.56429C7.83961 1.65579 7.83527 1.76387 7.90857 1.848C7.98187 1.93213 8.11167 1.99824 8.25086 2.00383C8.39701 2.0097 8.53141 1.96097 8.61122 1.88298C8.69158 1.79149 8.69592 1.68341 8.62262 1.59927C8.54932 1.51514 8.4198 1.44228 8.28033 1.44345L8.27337 1.44317Z" fill="#DE2010" stroke="black" stroke-width="0.162656"/>
<path fill-rule="evenodd" clip-rule="evenodd" d="M7.42356 1.54806C7.28776 1.5791 7.16401 1.66287 7.11418 1.75747C7.06058 1.86681 7.08469 1.97226 7.17746 2.03427C7.27023 2.09628 7.4128 2.1261 7.5486 2.09506C7.69119 2.06247 7.80815 1.98025 7.86477 1.88409C7.91837 1.77476 7.89426 1.66931 7.80149 1.6073C7.70872 1.54529 7.56465 1.50887 7.43035 1.54651L7.42356 1.54806Z" fill="#DE2010" stroke="black" stroke-width="0.162656"/>
<path fill-rule="evenodd" clip-rule="evenodd" d="M6.64717 1.74099C6.51439 1.78313 6.39797 1.87682 6.35612 1.97521C6.31172 2.0886 6.34444 2.1917 6.442 2.24584C6.53957 2.29999 6.68412 2.31795 6.8169 2.27582C6.95632 2.23157 7.0661 2.13999 7.11459 2.03949C7.15899 1.9261 7.12627 1.82301 7.0287 1.76886C6.93113 1.71471 6.78454 1.6903 6.65381 1.73889L6.64717 1.74099Z" fill="#DE2010" stroke="black" stroke-width="0.162656"/>
<path fill-rule="evenodd" clip-rule="evenodd" d="M5.93986 2.04689C5.81305 2.10454 5.70861 2.21143 5.67878 2.31411C5.6482 2.43197 5.69297 2.53044 5.79629 2.57258C5.89961 2.61472 6.04527 2.61534 6.17208 2.55769C6.30524 2.49715 6.40333 2.39314 6.4395 2.28758C6.47008 2.16972 6.42531 2.07125 6.32199 2.02911C6.21867 1.98697 6.07022 1.9802 5.9462 2.044L5.93986 2.04689Z" fill="#DE2010" stroke="black" stroke-width="0.162655"/>
<path fill-rule="evenodd" clip-rule="evenodd" d="M5.234 2.40818C5.11256 2.47644 5.01763 2.59184 4.99667 2.69669C4.97626 2.81674 5.02926 2.91103 5.1358 2.9442C5.24234 2.97738 5.38751 2.96556 5.50895 2.8973C5.63645 2.82563 5.72531 2.71363 5.75235 2.60537C5.77276 2.48533 5.71976 2.39104 5.61322 2.35786C5.50668 2.32469 5.35819 2.33061 5.24007 2.40476L5.234 2.40818Z" fill="#DE2010" stroke="black" stroke-width="0.162655"/>
<path fill-rule="evenodd" clip-rule="evenodd" d="M4.56746 2.86022C4.45416 2.94128 4.37234 3.06631 4.36289 3.17282C4.35565 3.29437 4.41858 3.38235 4.5281 3.40375C4.63761 3.42514 4.78064 3.39763 4.89394 3.31658C5.0129 3.23147 5.08906 3.11048 5.10418 2.99993C5.11142 2.87837 5.04848 2.7904 4.93897 2.769C4.82945 2.7476 4.68249 2.76962 4.57313 2.85617L4.56746 2.86022Z" fill="#DE2010" stroke="black" stroke-width="0.162656"/>
<path fill-rule="evenodd" clip-rule="evenodd" d="M3.94831 3.32756C3.84228 3.41791 3.77133 3.54942 3.77093 3.65634C3.77399 3.77807 3.84415 3.8604 3.95508 3.87246C4.06601 3.88451 4.2062 3.84499 4.31223 3.75464C4.42357 3.65978 4.48922 3.53278 4.49492 3.42134C4.49185 3.29961 4.4217 3.21728 4.31077 3.20522C4.19984 3.19317 4.05526 3.22754 3.95361 3.32304L3.94831 3.32756Z" fill="#DE2010" stroke="black" stroke-width="0.162655"/>
<path fill-rule="evenodd" clip-rule="evenodd" d="M3.4036 3.89845C3.30432 3.99617 3.24298 4.13244 3.25025 4.23911C3.26203 4.36031 3.33791 4.4374 3.44942 4.44147C3.56093 4.44554 3.69793 4.39607 3.79721 4.29835C3.90146 4.19574 3.95784 4.06436 3.95553 3.9528C3.94375 3.83161 3.86787 3.75452 3.75636 3.75045C3.64485 3.74638 3.50311 3.79103 3.40857 3.89357L3.4036 3.89845Z" fill="#DE2010" stroke="black" stroke-width="0.162655"/>
<path fill-rule="evenodd" clip-rule="evenodd" d="M2.93578 4.53288C2.84503 4.63856 2.79531 4.77948 2.81148 4.88518C2.83337 5.00497 2.91543 5.07543 3.0269 5.07015C3.13836 5.06488 3.27073 5.00411 3.36148 4.89842C3.45677 4.78745 3.50196 4.65182 3.49033 4.54084C3.46843 4.42105 3.38637 4.35058 3.27491 4.35586C3.16345 4.36114 3.02595 4.4175 2.94032 4.52759L2.93578 4.53288Z" fill="#DE2010" stroke="black" stroke-width="0.162656"/>
<path fill-rule="evenodd" clip-rule="evenodd" d="M2.50821 5.17952C2.42924 5.29428 2.39483 5.4397 2.42218 5.54307C2.45672 5.65984 2.54583 5.72115 2.65609 5.70402C2.76636 5.68689 2.8915 5.61235 2.97046 5.49759C3.05338 5.37709 3.08384 5.23741 3.06044 5.12831C3.0259 5.01154 2.93679 4.95022 2.82653 4.96736C2.71626 4.98449 2.58555 5.05519 2.51216 5.17378L2.50821 5.17952Z" fill="#DE2010" stroke="black" stroke-width="0.162656"/>
<path fill-rule="evenodd" clip-rule="evenodd" d="M2.14986 5.91567C2.09178 6.04229 2.08286 6.19146 2.12756 6.28859C2.18164 6.39769 2.27996 6.44279 2.38564 6.40697C2.49132 6.37115 2.6018 6.27622 2.65987 6.1496C2.72085 6.01665 2.72687 5.87381 2.68507 5.77035C2.63099 5.66125 2.53267 5.61615 2.42699 5.65197C2.32131 5.68779 2.20469 5.7799 2.15276 5.90934L2.14986 5.91567Z" fill="#DE2010" stroke="black" stroke-width="0.162655"/>
<path fill-rule="evenodd" clip-rule="evenodd" d="M1.86371 6.68531C1.81735 6.81667 1.82199 6.96604 1.87531 7.05872C1.93906 7.16246 2.04106 7.19846 2.14306 7.15321C2.24506 7.10795 2.34647 7.00341 2.39283 6.87204C2.44151 6.73411 2.43455 6.59132 2.38355 6.49207C2.3198 6.38832 2.2178 6.35233 2.1158 6.39758C2.0138 6.44283 1.90601 6.54513 1.86603 6.67874L1.86371 6.68531Z" fill="#DE2010" stroke="black" stroke-width="0.162655"/>
<path fill-rule="evenodd" clip-rule="evenodd" d="M1.62085 8.13672C1.60798 8.24791 1.64897 8.36311 1.72331 8.42472C1.81048 8.49288 1.91818 8.50089 2.00604 8.44574C2.09389 8.39059 2.1667 8.28946 2.17956 8.17826C2.19307 8.06151 2.15145 7.95187 2.07774 7.88471C1.99058 7.81654 1.88288 7.80853 1.79502 7.86368C1.70717 7.91883 1.62763 8.01946 1.62149 8.13116L1.62085 8.13672Z" fill="#DE2010" stroke="black" stroke-width="0.145694"/>
<path fill-rule="evenodd" clip-rule="evenodd" d="M1.68494 7.45948C1.65398 7.5953 1.67575 7.74314 1.73937 7.82908C1.81462 7.92482 1.92008 7.94886 2.0162 7.89219C2.11232 7.83552 2.20105 7.72001 2.23201 7.58419C2.26452 7.44158 2.2412 7.30053 2.17913 7.20779C2.10388 7.11206 1.99842 7.08802 1.9023 7.14469C1.80618 7.20136 1.71085 7.31537 1.68649 7.45269L1.68494 7.45948Z" fill="#DE2010" stroke="black" stroke-width="0.162656"/>
<path fill-rule="evenodd" clip-rule="evenodd" d="M15.6738 7.11181C15.7608 7.01384 15.8443 6.98482 15.9495 7.0211C15.9132 6.76711 15.8334 6.68365 15.7318 6.71268C15.6375 6.74171 15.5939 6.87233 15.6701 7.11181H15.6738ZM15.808 7.87379C15.906 7.78308 15.9894 7.76494 16.091 7.80122C16.0729 7.54723 16.0003 7.45652 15.9023 7.48192C15.8007 7.50369 15.7499 7.62706 15.808 7.87016V7.87379ZM15.4814 6.41152C15.5468 6.29541 15.6193 6.24824 15.7318 6.25549C15.6302 6.02327 15.5322 5.95796 15.4452 6.01238C15.3581 6.06681 15.3472 6.20469 15.4814 6.41152ZM15.144 5.72211C15.2057 5.60237 15.2819 5.5552 15.3907 5.56245C15.2928 5.3266 15.1912 5.26492 15.1041 5.31935C15.0206 5.37377 15.0097 5.51165 15.144 5.71848V5.72211ZM14.3312 4.44488C14.3748 4.32151 14.4401 4.26346 14.5489 4.24894C14.4147 4.03124 14.3058 3.98769 14.2296 4.05664C14.1534 4.12558 14.1643 4.25983 14.3312 4.44488ZM13.7978 3.88973C13.8341 3.76273 13.8994 3.70467 14.0119 3.69016C13.8668 3.47971 13.7579 3.43617 13.6853 3.50874C13.6091 3.57768 13.6237 3.71193 13.7978 3.88973ZM12.6803 2.94632C12.6803 2.8157 12.7165 2.73587 12.8181 2.69233C12.6186 2.53267 12.4988 2.52905 12.4517 2.61976C12.4009 2.70684 12.4625 2.83021 12.6803 2.94632ZM13.2608 3.38174C13.2826 3.25111 13.3334 3.18217 13.4422 3.15314C13.2717 2.96446 13.1556 2.93906 13.0939 3.01889C13.0286 3.09872 13.0649 3.22934 13.2644 3.38174H13.2608ZM12.0162 2.57985C12.0017 2.44922 12.0344 2.36939 12.1251 2.31134C11.9074 2.17708 11.7949 2.18071 11.755 2.27505C11.7151 2.36939 11.7877 2.48913 12.0162 2.57985ZM11.3377 2.28594C11.3014 2.15894 11.3232 2.07549 11.4103 2.00292C11.1744 1.90132 11.062 1.92672 11.0366 2.02469C11.0112 2.12266 11.0982 2.22788 11.3377 2.28594ZM10.6084 2.06097C10.5612 1.9376 10.5757 1.85052 10.6556 1.77069C10.4125 1.69087 10.3 1.72352 10.2818 1.82512C10.2673 1.92672 10.3617 2.02469 10.6084 2.06097ZM9.88996 1.92309C9.83553 1.80335 9.84279 1.71627 9.91536 1.63281C9.66862 1.5675 9.55977 1.60741 9.54888 1.70901C9.538 1.81061 9.63959 1.90132 9.88996 1.91946V1.92309ZM9.12798 1.86504C9.06267 1.74892 9.05904 1.66184 9.12798 1.57476C8.87399 1.53484 8.76513 1.58564 8.76513 1.68724C8.76876 1.78884 8.88124 1.86866 9.12798 1.86504ZM7.6403 1.97389C7.54959 1.87955 7.52419 1.79609 7.56773 1.6945C7.31374 1.71627 7.22303 1.79247 7.24843 1.89043C7.27383 1.99203 7.40082 2.04283 7.6403 1.97389ZM8.37326 1.87955C8.29343 1.77069 8.28254 1.68724 8.33697 1.58927C8.08298 1.57839 7.98138 1.64007 7.99589 1.74167C8.00678 1.84326 8.12652 1.91221 8.37326 1.87955ZM6.92186 2.13354C6.81301 2.05009 6.78035 1.97026 6.80575 1.86141C6.55902 1.92309 6.47919 2.01017 6.5191 2.10451C6.55902 2.19886 6.69327 2.23151 6.91824 2.12991L6.92186 2.13354ZM5.54304 2.7649C5.42693 2.70321 5.37613 2.63064 5.37976 2.52179C5.14754 2.63064 5.08948 2.72861 5.14391 2.81207C5.20197 2.89915 5.33985 2.90641 5.54304 2.7649ZM6.20706 2.42382C6.0982 2.35125 6.05829 2.27505 6.07643 2.1662C5.83332 2.2424 5.76075 2.33674 5.80792 2.42745C5.85146 2.51816 5.98935 2.53993 6.20706 2.42745V2.42382ZM4.30936 3.62122C4.18236 3.59219 4.11705 3.53051 4.09891 3.42165C3.89572 3.57405 3.8558 3.68653 3.92837 3.75547C4.00094 3.82804 4.13882 3.80264 4.30936 3.62485V3.62122ZM4.89717 3.14589C4.77381 3.10235 4.71575 3.03703 4.70487 2.92818C4.48716 3.06243 4.44361 3.17129 4.50893 3.24749C4.57787 3.32368 4.71212 3.3128 4.89717 3.14589ZM3.78323 4.13646C3.65624 4.11469 3.5873 4.06026 3.55827 3.95504C3.36596 4.12195 3.34056 4.23806 3.42038 4.29974C3.49658 4.36506 3.63084 4.3324 3.78323 4.13646ZM3.31516 4.74605C3.18453 4.73516 3.11196 4.68799 3.07205 4.58276C2.89788 4.77145 2.88337 4.88756 2.96682 4.94561C3.05028 5.00004 3.18091 4.95287 3.31516 4.74605ZM2.92328 5.37014C2.79266 5.38103 2.71283 5.34474 2.6584 5.24678C2.51327 5.46086 2.51327 5.57697 2.60761 5.62051C2.70195 5.66405 2.82169 5.59874 2.92328 5.37014ZM2.57858 6.03778C2.44795 6.06318 2.3645 6.03778 2.29919 5.9507C2.1867 6.17567 2.20122 6.29178 2.29919 6.32443C2.39715 6.35346 2.50601 6.27363 2.57858 6.03416V6.03778ZM2.30281 6.71994C2.17945 6.76711 2.09236 6.75622 2.01254 6.6764C1.93997 6.9195 1.97262 7.03199 2.07059 7.0465C2.17219 7.06101 2.27016 6.96305 2.30281 6.71994ZM2.11776 7.48192C1.99802 7.53272 1.91094 7.52909 1.82748 7.45652C1.7658 7.70325 1.80934 7.81211 1.91094 7.81937C2.01254 7.83025 2.10325 7.72503 2.11776 7.47829V7.48192ZM2.04519 8.11327C1.92908 8.17133 1.842 8.17859 1.75491 8.13504C1.71863 8.33461 1.77306 8.41444 1.87465 8.40718C1.97625 8.39992 2.05608 8.30921 2.04156 8.11327H2.04519ZM14.8428 5.10164C14.8864 4.97827 14.9517 4.92021 15.0605 4.90933C14.9299 4.69162 14.8211 4.64445 14.7449 4.70976C14.6687 4.7787 14.6795 4.91296 14.8428 5.10164ZM15.8915 8.64303C15.9894 8.55595 16.0729 8.53418 16.1745 8.57772C16.1563 8.32372 16.0838 8.22938 15.9858 8.25115C15.8842 8.27655 15.8334 8.40355 15.8915 8.64303Z" fill="#FFE300"/>
<path fill-rule="evenodd" clip-rule="evenodd" d="M14.8935 4.49931C14.8898 4.49931 14.6032 4.78233 14.654 5.13067C14.7012 5.479 14.9225 5.90716 14.8826 6.26638C14.8427 6.62923 14.7737 6.86508 14.7737 6.86508C14.7737 6.86508 15.1112 6.48409 15.1148 6.11761C15.1184 5.75477 14.8862 5.26855 14.8862 5.00004C14.8862 4.73154 14.8971 4.49206 14.8935 4.49568V4.49931ZM15.4196 5.66043C15.4196 5.66043 15.1946 5.82734 15.2164 6.2047C15.2382 6.58206 15.63 7.27873 15.63 7.27873C15.63 7.27873 15.9167 7.86654 15.9058 8.01893C15.8985 8.17133 15.9602 7.8738 15.9312 7.53635C15.9022 7.20253 15.4704 6.46232 15.4704 6.46232C15.4704 6.46232 15.3797 6.30992 15.3869 6.05956C15.3978 5.80556 15.4232 5.66405 15.4196 5.66043Z" fill="#217900" stroke="black" stroke-width="0.122562" stroke-linejoin="round"/>
<path fill-rule="evenodd" clip-rule="evenodd" d="M8.70707 0.972432C8.70707 0.892606 8.61636 0.827293 8.5075 0.827293C8.39865 0.827293 8.31156 0.892606 8.31156 0.972432C8.31156 1.04863 8.39865 1.11394 8.5075 1.11394C8.61636 1.11394 8.70344 1.04863 8.70344 0.968804L8.70707 0.972432ZM8.79052 1.299C8.79052 1.22643 8.69618 1.16474 8.58733 1.16474C8.47485 1.16474 8.38413 1.22643 8.38413 1.30262C8.38413 1.37882 8.47485 1.43688 8.58733 1.43688C8.69618 1.43688 8.79052 1.37519 8.79052 1.299ZM9.04089 0.910748C9.04089 0.910748 8.80867 1.08492 8.90301 1.15386C9.00097 1.2228 9.26585 1.00146 9.26585 1.00146L9.04089 0.910748ZM15.8515 4.88756C15.8517 4.8641 15.8462 4.84095 15.8354 4.8201C15.8247 4.79925 15.809 4.78131 15.7899 4.76782C15.7717 4.75534 15.7502 4.74865 15.7282 4.74865C15.7061 4.74865 15.6846 4.75534 15.6665 4.76782C15.648 4.7817 15.633 4.79981 15.6229 4.82064C15.6128 4.84147 15.6079 4.86442 15.6084 4.88756C15.6083 4.91102 15.6138 4.93416 15.6245 4.95502C15.6353 4.97587 15.6509 4.99381 15.6701 5.0073C15.6879 5.019 15.7087 5.02524 15.73 5.02524C15.7513 5.02524 15.7721 5.019 15.7899 5.0073C15.809 4.99381 15.8247 4.97587 15.8354 4.95502C15.8462 4.93416 15.8517 4.91102 15.8515 4.88756ZM15.7608 4.55737C15.7608 4.47391 15.7064 4.4086 15.6338 4.4086C15.5613 4.4086 15.5068 4.47391 15.5068 4.55737C15.5068 4.64082 15.5649 4.70613 15.6338 4.70613C15.7028 4.70613 15.7608 4.64082 15.7608 4.55737ZM15.8225 5.23226C15.8225 5.18872 15.8007 5.15244 15.7717 5.15244C15.7463 5.15244 15.7245 5.18872 15.7245 5.23226C15.7245 5.27581 15.7463 5.30846 15.7717 5.30846C15.8007 5.30846 15.8225 5.27218 15.8225 5.23226ZM16.0257 4.62994C16.0257 4.57914 16.0039 4.53922 15.9785 4.53922C15.9495 4.53922 15.9277 4.57914 15.9277 4.62994C15.9277 4.68074 15.9495 4.71702 15.9785 4.71702C16.0039 4.71702 16.0257 4.68074 16.0257 4.62994ZM15.4705 4.68799C15.4705 4.65171 15.4488 4.61542 15.4197 4.61542C15.3907 4.61542 15.3689 4.65171 15.3689 4.68799C15.3689 4.72428 15.3907 4.76056 15.4197 4.76056C15.4488 4.76056 15.4705 4.72791 15.4705 4.68799ZM15.5576 5.16695C15.5576 5.10164 15.5105 5.04721 15.4524 5.04721C15.3944 5.04721 15.3472 5.10164 15.3472 5.16695C15.3472 5.22863 15.3944 5.27943 15.456 5.27943C15.5177 5.27943 15.5576 5.22864 15.5576 5.16332V5.16695ZM15.2819 4.9565C15.2819 4.90207 15.242 4.8549 15.1912 4.8549C15.144 4.8549 15.1041 4.89844 15.1041 4.9565C15.1041 5.01456 15.144 5.05447 15.1912 5.05447C15.242 5.05447 15.2819 5.01093 15.2819 4.9565ZM15.2383 4.67348C15.2383 4.64445 15.2238 4.61542 15.202 4.60091C15.1902 4.59311 15.1763 4.58895 15.1621 4.58895C15.1479 4.58895 15.1341 4.59311 15.1222 4.60091C15.1105 4.60892 15.101 4.61979 15.0947 4.63249C15.0883 4.64519 15.0853 4.65929 15.0859 4.67348C15.0859 4.70251 15.0968 4.73153 15.1222 4.74605C15.1337 4.75311 15.1469 4.75685 15.1603 4.75685C15.1738 4.75685 15.187 4.75311 15.1984 4.74605C15.2101 4.73804 15.2196 4.72717 15.226 4.71447C15.2323 4.70177 15.2353 4.68766 15.2347 4.67348H15.2383ZM16.4974 6.10673C16.3813 5.95433 16.1999 5.88902 16.0874 5.96159C15.9785 6.03416 15.9785 6.21558 16.0946 6.36798C16.2071 6.52037 16.3922 6.58206 16.501 6.50949C16.6135 6.43692 16.6099 6.25549 16.4974 6.10673ZM16.824 8.88614C16.8421 8.70109 16.7514 8.53781 16.6208 8.52329C16.4865 8.50515 16.3595 8.64303 16.3378 8.82808C16.316 9.00951 16.4067 9.17642 16.5409 9.19093C16.6752 9.20545 16.7986 9.07119 16.8203 8.88614H16.824ZM16.8893 10.5008C16.9256 10.3194 16.853 10.1525 16.7224 10.1235C16.5881 10.0944 16.4539 10.2214 16.414 10.4028C16.3777 10.5843 16.4502 10.7548 16.5845 10.7838C16.7151 10.8092 16.853 10.6859 16.8893 10.5044V10.5008ZM17.2013 8.98774C17.2013 8.91517 17.1505 8.85711 17.0925 8.85711C17.0344 8.85711 16.9836 8.91517 16.9836 8.98774C16.9836 9.06031 17.0308 9.12199 17.0925 9.12199C17.1542 9.12199 17.2013 9.06031 17.2013 8.98774ZM16.9292 9.29253L16.7042 9.54652C16.7042 9.54652 16.4901 9.55378 16.501 9.62272C16.5155 9.69529 16.7949 9.90211 16.7913 9.98557C16.7913 10.0654 16.98 9.9638 16.98 9.9638L17.1324 9.49935C17.1324 9.49935 17.1251 9.18005 17.0417 9.18367C16.9582 9.19093 16.9365 9.28527 16.9328 9.29253H16.9292ZM2.03067 9.19093C2.03067 9.16206 2.0192 9.13437 1.99879 9.11396C1.97837 9.09355 1.95069 9.08208 1.92182 9.08208C1.89295 9.08208 1.86526 9.09355 1.84485 9.11396C1.82443 9.13437 1.81296 9.16206 1.81296 9.19093C1.81296 9.2198 1.82443 9.24749 1.84485 9.2679C1.86526 9.28832 1.89295 9.29979 1.92182 9.29979C1.95069 9.29979 1.97837 9.28832 1.99879 9.2679C2.0192 9.24749 2.03067 9.2198 2.03067 9.19093ZM2.13227 8.86437C2.13227 8.79906 2.08147 8.74826 2.02341 8.74826C1.96536 8.74826 1.91456 8.79906 1.91456 8.86074C1.91456 8.92242 1.96536 8.97685 2.02341 8.97685C2.08147 8.97685 2.13227 8.92605 2.13227 8.86074V8.86437ZM1.24692 7.29324C1.20701 7.20253 1.11992 7.15173 1.05824 7.18438C0.992927 7.20978 0.974784 7.30775 1.0147 7.39846C1.05824 7.48918 1.14169 7.53997 1.20338 7.50732C1.26869 7.48192 1.28683 7.38395 1.24692 7.29324ZM1.5118 8.27293C1.45737 8.15319 1.34126 8.08787 1.25781 8.12779C1.17435 8.1677 1.14169 8.28744 1.19612 8.40355C1.25055 8.51966 1.37029 8.58498 1.45737 8.54869C1.54446 8.51241 1.56623 8.38904 1.5118 8.2693V8.27293ZM1.80208 8.98774C1.81659 8.8426 1.75854 8.70472 1.66419 8.68657C1.56985 8.6648 1.48277 8.77003 1.46463 8.91517C1.44286 9.06031 1.50454 9.19819 1.59888 9.21633C1.68959 9.23447 1.78031 9.13288 1.79845 8.98774H1.80208ZM1.34126 9.08933C1.39569 8.95508 1.37755 8.80994 1.29046 8.76277C1.20338 8.7156 1.09452 8.79543 1.03647 8.92968C0.978413 9.06393 1.00018 9.2127 1.08364 9.25624C1.16709 9.29979 1.2832 9.22722 1.33763 9.09296L1.34126 9.08933Z" fill="#6B18B5"/>
<path fill-rule="evenodd" clip-rule="evenodd" d="M1.13065 8.78091C1.13065 8.71197 1.07622 8.65754 1.01091 8.65754C0.9456 8.65754 0.891173 8.7156 0.891173 8.78454C0.891173 8.85348 0.9456 8.90791 1.01091 8.90791C1.07622 8.90791 1.13065 8.85348 1.13065 8.78454V8.78091ZM1.03631 8.47249C1.03731 8.4576 1.03523 8.44266 1.03021 8.4286C1.02518 8.41455 1.01732 8.40167 1.00711 8.39078C0.996904 8.37989 0.984565 8.37122 0.970862 8.3653C0.957158 8.35938 0.942384 8.35635 0.927458 8.35638C0.865774 8.35638 0.818604 8.40718 0.818604 8.47249C0.818604 8.5378 0.865774 8.58497 0.927458 8.58497C0.989142 8.58497 1.03631 8.53418 1.03631 8.47249ZM1.13791 7.87379C1.13791 7.76494 1.09074 7.68148 1.02905 7.68148C0.974628 7.68148 0.927458 7.76857 0.927458 7.87379C0.927458 7.97902 0.974628 8.0661 1.03268 8.0661C1.09074 8.0661 1.13791 7.97902 1.13791 7.87379ZM1.46084 7.82662C1.47173 7.7214 1.43907 7.63069 1.38102 7.62343C1.32296 7.61617 1.26491 7.696 1.25039 7.79759C1.23588 7.90645 1.27216 7.99353 1.33022 8.00442C1.38827 8.01168 1.44633 7.93185 1.46084 7.82662ZM3.75767 3.24023C3.80121 3.09509 3.75767 2.94269 3.6597 2.90641C3.56173 2.87012 3.44925 2.96446 3.40571 3.11323C3.36217 3.25837 3.40571 3.41077 3.50368 3.44705C3.60165 3.48334 3.71413 3.389 3.75767 3.24023ZM3.32225 3.90424C3.44925 3.79539 3.50368 3.64299 3.44199 3.56679C3.38394 3.49059 3.23154 3.51599 3.10092 3.62485C2.97029 3.7337 2.91949 3.88247 2.98118 3.9623C3.03923 4.03486 3.19163 4.01309 3.32225 3.90424ZM3.06826 3.53414C3.19163 3.44342 3.24968 3.3128 3.188 3.24386C3.12631 3.17492 2.97755 3.20394 2.85055 3.29466C2.72355 3.389 2.66913 3.51962 2.72718 3.58493C2.78524 3.65025 2.94126 3.62848 3.06826 3.53414ZM4.04795 2.88827C4.13503 2.82658 4.17132 2.73587 4.1314 2.6887C4.08786 2.64153 3.98626 2.65967 3.90281 2.72498C3.81935 2.7903 3.77944 2.87738 3.81935 2.92455C3.86289 2.97172 3.96449 2.95721 4.04795 2.88827Z" fill="#6B18B5"/>
<path fill-rule="evenodd" clip-rule="evenodd" d="M3.53642 3.51599C3.59448 3.42528 3.59811 3.32731 3.54368 3.29828C3.49288 3.26925 3.39854 3.31642 3.34411 3.40714C3.28969 3.49785 3.2788 3.59582 3.33323 3.62484C3.38766 3.65387 3.47837 3.6067 3.53642 3.51599ZM4.27663 3.12774C4.36734 3.05155 4.40363 2.94632 4.35646 2.89915C4.30566 2.85198 4.19318 2.87375 4.10247 2.94995C4.01175 3.02615 3.97547 3.13137 4.02264 3.18217C4.06981 3.22934 4.18229 3.20757 4.27663 3.12774ZM2.93772 4.03123C3.02118 4.02761 3.08649 3.98406 3.08286 3.93689C3.07561 3.8861 2.99941 3.84981 2.91595 3.85707C2.82887 3.85707 2.76356 3.90424 2.77081 3.95141C2.77807 3.99858 2.85064 4.03486 2.93772 4.03123ZM4.5524 2.65241C4.61045 2.55807 4.61408 2.46373 4.55965 2.4347C4.50886 2.40205 4.41451 2.45285 4.36009 2.54356C4.30566 2.63427 4.2984 2.72861 4.3492 2.76127C4.40363 2.7903 4.49434 2.7395 4.5524 2.65241Z" fill="#6B18B5"/>
<path fill-rule="evenodd" clip-rule="evenodd" d="M14.2875 5.38829C14.2875 5.38829 14.5524 4.96738 14.4508 4.56825C14.3492 4.17275 13.9065 4.45214 13.9174 4.59365C13.9283 4.73879 14.2005 4.92384 14.2186 5.01093C14.2367 5.09801 14.1896 5.36289 14.2875 5.38829Z" fill="#FFD200" stroke="#EF8A10" stroke-width="0.0645062"/>
<path fill-rule="evenodd" clip-rule="evenodd" d="M9.2041 1.88318C9.2041 1.88318 10.162 1.91947 10.1693 2.53994C10.1656 2.6379 10.1693 2.75039 10.133 3.02978C10.2272 2.96786 10.3036 2.88237 10.3545 2.78179C10.4054 2.68122 10.4291 2.56906 10.4233 2.45648C10.4305 1.82513 9.57058 1.39697 9.2041 1.88318Z" fill="#217900" stroke="black" stroke-width="0.154815" stroke-linejoin="round"/>
<path fill-rule="evenodd" clip-rule="evenodd" d="M8.59448 1.85415C8.59448 1.85415 9.36735 1.6945 9.3746 2.31496C9.38186 2.93181 9.12787 3.0334 9.12787 3.0334C9.12787 3.0334 9.72294 2.90641 9.72294 2.27868C9.72657 1.64732 8.96096 1.36793 8.59448 1.85415Z" fill="#217900" stroke="black" stroke-width="0.154815" stroke-linejoin="round"/>
<path fill-rule="evenodd" clip-rule="evenodd" d="M11.2214 15.2505C11.2214 15.2505 14.839 14.2309 15.9275 9.78963C15.2926 14.347 11.3339 15.7911 11.3339 15.7911L11.2178 15.2505H11.2214Z" fill="#F7DF73" stroke="black" stroke-width="0.167716" stroke-linejoin="round"/>
<path fill-rule="evenodd" clip-rule="evenodd" d="M11.5916 15.5299C11.7041 15.5299 11.9798 15.2215 12.1395 15.1888C12.2991 15.1525 12.3173 14.9929 12.1322 14.9856C11.9508 14.982 11.7912 15.1924 11.7912 15.1924C11.7912 15.1924 11.6351 15.3303 11.4682 15.3448C11.3049 15.363 11.4102 15.5698 11.5916 15.5263V15.5299Z" fill="#8C1800"/>
<path fill-rule="evenodd" clip-rule="evenodd" d="M13.6779 13.9733C13.6779 13.9733 13.3006 14.191 13.3514 14.2454C13.4058 14.2962 13.7396 14.0386 13.7469 14.0313C13.7541 14.0277 13.8884 13.8608 13.6743 13.9733H13.6779Z" fill="#8C1800" stroke="#8C1800" stroke-width="0.167716"/>
<path fill-rule="evenodd" clip-rule="evenodd" d="M12.3645 14.9638C12.3645 14.9638 12.252 14.9239 12.5387 14.8114C12.829 14.699 12.8108 14.5683 12.9015 14.5175C12.9995 14.4631 13.1991 14.3216 13.239 14.4051C13.2789 14.4885 13.0285 14.6518 12.9705 14.6699C12.9124 14.6881 12.6221 14.953 12.5387 14.9747C12.4589 15.0001 12.3972 14.9856 12.3645 14.9638Z" fill="#8C1800"/>
<path d="M14.2367 13.4217C13.99 13.6975 13.99 13.6902 13.99 13.6902" stroke="#8C1800" stroke-width="0.199969" stroke-linecap="round"/>
<path d="M14.6069 12.9682L14.3711 13.2584" stroke="#8C1800" stroke-width="0.187068" stroke-linecap="round"/>
<path d="M14.977 12.3804L14.7122 12.8013" stroke="#8C1800" stroke-width="0.167716" stroke-linecap="round"/>
<path d="M15.289 11.778L15.0713 12.2134M15.4305 11.4587L15.3579 11.6148" stroke="#8C1800" stroke-width="0.154815" stroke-linecap="round"/>
<path d="M15.5903 11.0415L15.5322 11.2229" stroke="#8C1800" stroke-width="0.0903087" stroke-linecap="round"/>
<path fill-rule="evenodd" clip-rule="evenodd" d="M6.4751 15.16C6.4751 15.16 2.8862 14.1177 1.80953 9.59378C2.43759 14.2382 6.36467 15.706 6.36467 15.706L6.4751 15.16Z" fill="#F7DF73" stroke="black" stroke-width="0.165822" stroke-linejoin="round"/>
<path fill-rule="evenodd" clip-rule="evenodd" d="M6.10896 15.4392C6.0001 15.4392 5.72434 15.1271 5.56468 15.0908C5.40866 15.0546 5.39415 14.8913 5.57194 14.8876C5.75337 14.8804 5.91302 15.0981 5.91302 15.0981C5.91302 15.0981 6.06904 15.236 6.23232 15.2541C6.3956 15.2723 6.29038 15.4791 6.10896 15.4355V15.4392Z" fill="#8C1800"/>
<path fill-rule="evenodd" clip-rule="evenodd" d="M4.04584 13.8553C4.04584 13.8553 4.41853 14.0822 4.36332 14.139C4.315 14.1886 3.98372 13.9262 3.97682 13.9192C3.96992 13.9121 3.83878 13.7419 4.04584 13.8553Z" fill="#8C1800" stroke="#8C1800" stroke-width="0.165822"/>
<path fill-rule="evenodd" clip-rule="evenodd" d="M5.34695 14.8622C5.34695 14.8622 5.45581 14.8223 5.16916 14.7062C4.88614 14.5937 4.90065 14.4631 4.80631 14.4087C4.7156 14.3543 4.51603 14.2091 4.47975 14.2926C4.44346 14.376 4.68657 14.5466 4.74463 14.5647C4.80268 14.5829 5.08933 14.8514 5.16916 14.8768C5.25261 14.8985 5.31067 14.8876 5.34695 14.8622Z" fill="#8C1800"/>
<path d="M3.49355 13.2952L3.73511 13.5717" stroke="#8C1800" stroke-width="0.198986" stroke-linecap="round"/>
<path d="M3.12105 12.8343L3.35571 13.125" stroke="#8C1800" stroke-width="0.18655" stroke-linecap="round"/>
<path d="M2.75507 12.2316L3.01733 12.6641" stroke="#8C1800" stroke-width="0.174113" stroke-linecap="round"/>
<path d="M2.44467 11.6217L2.66553 12.0685M2.30664 11.2956L2.37566 11.4516" stroke="#8C1800" stroke-width="0.161676" stroke-linecap="round"/>
<path d="M2.14785 10.8701L2.20996 11.0616" stroke="#8C1800" stroke-width="0.0994931" stroke-linecap="round"/>
<path fill-rule="evenodd" clip-rule="evenodd" d="M16.1053 8.96959C16.1235 9.24898 16.3956 9.51386 16.2867 10.0037C16.1525 10.5516 15.6699 11.8651 15.757 12.0937C15.6118 11.8978 15.6372 11.7163 15.6264 11.4406C15.6118 11.1684 16.0219 10.1561 16.0581 9.8114C16.0581 9.50298 16.0872 9.0857 16.1053 8.96959Z" fill="#217900" stroke="black" stroke-width="0.154815" stroke-linejoin="round"/>
<path fill-rule="evenodd" clip-rule="evenodd" d="M16.1055 8.97685C16.1055 8.97685 16.5482 9.53927 16.5264 9.98557C16.501 10.4282 16.2543 10.9507 16.3377 11.183C16.1926 10.987 16.1563 10.86 16.1454 10.5879C16.1345 10.3158 16.3631 10.0146 16.3196 9.71706C16.2724 9.41953 16.1019 8.97685 16.1019 8.97685H16.1055ZM1.54079 9.10022C1.52265 9.37961 1.31583 9.62998 1.42105 10.1162C1.55894 10.6641 2.04515 11.3644 1.96533 12.1663C2.10077 11.9623 2.17043 11.7217 2.16489 11.4769C2.17578 11.2047 1.62425 10.2867 1.58796 9.94203C1.58796 9.63361 1.55894 9.21633 1.54079 9.10022Z" fill="#217900" stroke="black" stroke-width="0.154815" stroke-linejoin="round"/>
<path fill-rule="evenodd" clip-rule="evenodd" d="M1.54073 9.10748C1.54073 9.10748 1.10531 9.65175 1.13071 10.0981C1.13797 10.392 1.68224 11.6329 1.60241 11.8651C1.74392 11.6692 1.78383 11.691 1.77658 11.3934C1.61692 10.6351 1.3339 10.1489 1.38107 9.85495C1.42824 9.55741 1.54798 9.10748 1.54073 9.10748Z" fill="#217900" stroke="black" stroke-width="0.154815" stroke-linejoin="round"/>
<path d="M8.93509 4.12045L10.0039 7.43422H13.5018L10.684 9.48467L11.7577 12.7984L8.93994 10.7528L6.12221 12.7984L7.191 9.48467L4.36841 7.43422H7.85657L8.93509 4.12045Z" fill="white" stroke="black" stroke-width="0.129561" stroke-linecap="square" stroke-linejoin="round"/>
</g>
</g>
<defs>
<clipPath id="clip0_14_1296">
<rect width="18" height="18" rx="9" fill="white"/>
</clipPath>
</defs>
</svg>
