<svg width="18" height="18" viewBox="0 0 18 18" fill="none" xmlns="http://www.w3.org/2000/svg">
<g clip-path="url(#clip0_14_1140)">
<path d="M0 0H18V18H0V0Z" fill="#CD2A3E"/>
<path d="M0 2.7H18V15.3H0V2.7Z" fill="#006233"/>
<path d="M14.6249 5.79727C14.6249 7.28911 14.0323 8.71986 12.9774 9.77475C11.9225 10.8296 10.4918 11.4223 8.99991 11.4223C7.50806 11.4223 6.07732 10.8296 5.02243 9.77475C3.96754 8.71986 3.37491 7.28911 3.37491 5.79727C3.24914 6.277 3.18534 6.77086 3.18506 7.2668C3.18397 8.09347 3.35916 8.91088 3.69894 9.66449C4.03872 10.4181 4.53529 11.0906 5.15551 11.6372C5.77574 12.1837 6.50537 12.5917 7.29574 12.834C8.08612 13.0763 8.91906 13.1472 9.73903 13.0421C10.559 12.9371 11.3471 12.6584 12.0509 12.2246C12.7546 11.7909 13.3578 11.2121 13.8202 10.5268C14.2825 9.84151 14.5935 9.06552 14.7322 8.25058C14.871 7.43564 14.8344 6.60047 14.6249 5.80079V5.79727Z" fill="#FFC400"/>
<path d="M8.9999 3.51562L8.49365 5.07305H6.85889L8.18076 6.03281L7.67803 7.58672L8.9999 6.62695L10.3218 7.58672L9.81553 6.03281L11.1409 5.07305H9.50615L8.9999 3.51562Z" fill="#FFC400"/>
</g>
<defs>
<clipPath id="clip0_14_1140">
<rect width="18" height="18" rx="9" fill="white"/>
</clipPath>
</defs>
</svg>
