<svg width="18" height="18" viewBox="0 0 18 18" fill="none" xmlns="http://www.w3.org/2000/svg">
<g clip-path="url(#clip0_14_1309)">
<path d="M0.00708008 0H18.0071V18H0.00708008V0Z" fill="#012169"/>
<path d="M9.90005 4.46484H17.1211L17.1106 9.6082C17.1704 11.6719 15.8801 12.9551 13.5141 13.5352C11.8301 13.1133 9.8895 12.252 9.88599 9.66797L9.89653 4.46484H9.90005Z" fill="white"/>
<path d="M10.0583 4.61953H16.963L16.956 9.54844C17.0122 11.5277 15.7817 12.7547 13.5177 13.3102C11.9075 12.9094 10.0513 12.0797 10.0513 9.60469L10.0583 4.61953Z" fill="#00A2BD" stroke="black" stroke-width="0.1125"/>
<path d="M16.9103 10.132C16.6571 12.0199 15.2017 12.8461 13.5142 13.2855C12.0235 12.8848 10.4204 12.2449 10.104 10.1391L16.9103 10.132Z" fill="#A53D08"/>
<path d="M13.2435 5.53711L13.2329 4.91836L13.7251 4.92187L13.7286 5.53711H15.0716L15.0751 6.01875L13.7286 6.02578L13.7181 11.7L13.2399 11.7035L13.2329 6.01875L11.897 6.02578V5.53359L13.2435 5.53711Z" fill="black"/>
<path fill-rule="evenodd" clip-rule="evenodd" d="M12.1569 10.3641L13.3874 11.6402C13.8093 11.1727 13.514 9.4254 12.955 9.10548C12.8882 9.3129 12.7757 9.56251 12.6526 9.63985C12.3855 9.82266 11.7351 10.0336 11.9495 10.1672C12.0023 10.1004 12.1323 10.0371 12.1956 10.1883C12.2659 10.4309 11.9214 10.4449 11.9214 10.4449C11.9214 10.4449 11.7034 10.4168 11.6648 10.1988C11.6296 9.97383 11.9917 9.76993 12.0198 9.75587C12.055 9.74532 12.5261 9.61524 12.6069 9.19688C12.7054 8.78204 12.8108 8.84532 12.8284 8.83829C13.4507 8.89805 13.855 10.009 13.8796 10.7895C13.9007 11.5699 13.5632 12.0902 13.4999 12.1254C13.4366 12.157 12.0233 10.4414 12.0233 10.4414L12.1569 10.3641Z" fill="#FF9A08" stroke="black" stroke-width="0.05"/>
<path d="M13.0501 9.17578L13.0606 11.4785ZM12.913 9.22148L12.92 11.3098ZM12.7618 9.52383L12.7724 11.1832ZM12.6423 9.63984L12.6493 11.0145ZM12.5122 9.70312V10.8633ZM12.3716 9.79453V10.7121ZM12.2485 9.86836V10.5715Z" fill="#FF9A08"/>
<path d="M13.0501 9.17578L13.0606 11.4785M12.913 9.22148L12.92 11.3098M12.7618 9.52383L12.7724 11.1832M12.6423 9.63984L12.6493 11.0145M12.5122 9.70312V10.8633M12.3716 9.79453V10.7121M12.2485 9.86836V10.5715" stroke="black" stroke-width="0.05"/>
<path d="M12.136 10.5117L13.4016 11.9602" stroke="#FFDF00" stroke-width="0.0625" stroke-linecap="round"/>
<path d="M13.4648 9.59766C13.4648 9.59766 14.0378 10.8527 13.5069 11.8828M11.9882 10.2445C11.9882 10.2445 12.0304 10.1355 12.0831 10.1813M11.8862 9.92461C11.8862 9.92461 11.6577 10.1285 11.7808 10.2586" stroke="#FFDF00" stroke-width="0.0875" stroke-linecap="round"/>
<path d="M13.732 6.7289C13.8163 6.65859 13.862 6.61289 13.9148 6.62343C13.9675 6.63047 14.0378 6.62343 14.0906 6.60937C14.2289 6.57724 14.3722 6.57246 14.5124 6.59531C14.5476 6.60234 14.5968 6.61992 14.6741 6.6832C14.748 6.74648 14.857 6.85898 14.8218 7.16132C14.7866 7.46367 14.7972 7.59375 14.7796 7.76601C14.7515 8.06484 14.6847 8.31093 14.5687 8.29336C14.7269 8.57461 14.7445 8.8207 14.8499 9.01406C14.9554 9.20742 15.0187 9.60468 14.98 10.0336C14.9378 10.466 14.8253 11.4293 15.1663 12.0797C15.1101 12.1184 14.973 12.0797 14.8499 11.9496C14.7269 11.8195 14.6741 11.823 14.5722 11.9004C14.2663 12.1359 13.9745 12.4207 13.5527 12.1359C13.4542 12.0727 13.4226 11.9953 13.4964 11.7949C13.6722 11.3027 13.7601 10.6207 13.732 10.3043V6.7289Z" fill="#008021" stroke="black" stroke-width="0.01875"/>
<path d="M14.0273 6.42656C14.0484 6.49687 14.0589 6.58476 14.0238 6.66562C13.9886 6.74648 13.9781 6.8414 14.0378 6.96093C14.1363 6.82382 14.2734 6.85546 14.3543 6.77109C14.4351 6.69023 14.4527 6.61288 14.5125 6.59531C14.4527 6.54257 14.3578 6.48984 14.3789 6.33163C14.4 6.18046 14.6144 6.05038 14.4211 5.81835C14.3749 5.76251 14.3093 5.72634 14.2374 5.7172C14.1656 5.70805 14.093 5.72663 14.0343 5.76913C13.9997 5.79292 13.9709 5.82416 13.95 5.86054C13.9394 5.88867 13.9535 5.94843 13.9254 5.98359L13.855 6.0539C13.8339 6.06445 13.8199 6.08203 13.841 6.10663C13.848 6.11367 13.8656 6.11718 13.8796 6.1207C13.872 6.13912 13.8625 6.15678 13.8515 6.17343C13.841 6.18398 13.8445 6.19453 13.855 6.20859C13.841 6.25429 13.8691 6.26132 13.8515 6.29648C13.8339 6.32812 13.8093 6.36679 13.8726 6.40195C13.8937 6.41249 13.9781 6.43359 14.0238 6.42656H14.0273ZM13.2363 7.23163C13.1238 7.26328 12.941 7.21406 12.8004 7.23163C12.7406 7.23515 12.6949 7.20351 12.7019 7.14374C12.7089 7.08398 12.716 6.98906 12.7019 6.90468C12.6843 6.77109 12.7476 6.58828 12.839 6.38437C12.9085 6.25792 12.9538 6.11962 12.9726 5.97656C12.9726 5.91328 12.9796 5.84296 13.0359 5.80781C13.0781 5.77968 13.0851 5.75507 13.0992 5.73398C13.1343 5.68124 13.1695 5.6707 13.1695 5.69882C13.173 5.7164 13.1695 5.73398 13.1519 5.75859C13.1871 5.72695 13.2503 5.69179 13.2644 5.68124C13.2785 5.67421 13.3488 5.62148 13.3523 5.6707C13.3804 5.65663 13.4015 5.65663 13.4086 5.6707C13.4156 5.68828 13.4086 5.69531 13.398 5.70585C13.4156 5.70585 13.4402 5.74101 13.398 5.76913C13.4226 5.7621 13.4437 5.79726 13.405 5.83242C13.3664 5.86406 13.3207 5.88867 13.3066 5.91328C13.2925 5.9414 13.1976 6.01523 13.1589 6.02929C13.1203 6.04687 13.1168 6.06796 13.1168 6.12421C13.1168 6.74999 13.0429 6.70078 13.0429 6.84843C13.0429 6.89062 13.0359 6.92578 13.0781 6.91523C13.1132 6.90117 13.1765 6.88359 13.2363 6.88359V7.23515V7.23163ZM13.2609 8.57812C13.4437 8.48671 13.6546 8.45507 13.7636 8.42695C13.8691 8.39882 14.0449 8.31093 14.1328 8.26874C14.2171 8.22304 14.2875 8.16328 14.3332 8.1457C14.3824 8.12812 14.4386 8.09648 14.4668 8.03671C14.625 7.72734 14.7129 7.48124 14.7129 7.26328C14.7129 7.12265 14.6777 6.96445 14.5371 7.08046C14.407 7.18593 14.2664 7.39335 14.2277 7.54101C14.1714 7.76953 14.1222 7.81874 14.1117 7.86093C14.0976 7.90663 14.0519 7.90663 13.9992 7.91718C13.8228 7.94549 13.6581 8.02355 13.5246 8.14218C13.3639 8.26037 13.196 8.3684 13.0218 8.46562C12.8918 8.53593 12.8671 8.54648 12.839 8.60624C12.8181 8.65309 12.7909 8.69685 12.7582 8.73632C12.7477 8.74819 12.7401 8.76226 12.7359 8.77747C12.7316 8.79268 12.7308 8.80866 12.7336 8.82421L12.723 9.01406C12.723 9.05273 12.73 9.06328 12.7476 9.06679C12.7617 9.06679 12.7828 9.05976 12.7933 9.01054C12.7863 9.05976 12.8531 9.0457 12.8566 9.01054C12.8566 9.05976 12.9269 9.02812 12.9269 8.98242C12.9269 9.01757 12.9832 8.99296 12.9867 8.97538L13.0254 8.85585C13.05 8.81015 13.0746 8.75038 13.1238 8.71523C13.1765 8.68007 13.1519 8.63437 13.2609 8.57812ZM14.5722 11.9004L14.6179 12.0269C14.625 12.0586 14.6109 12.0656 14.6039 12.0832C14.5566 12.1812 14.5235 12.2853 14.5054 12.3926C14.5054 12.4348 14.4703 12.4805 14.4597 12.5051C14.4421 12.5332 14.4492 12.5578 14.4843 12.5859C14.5019 12.5965 14.5546 12.5789 14.5652 12.5508C14.5828 12.5719 14.6214 12.5648 14.6355 12.5332C14.6566 12.5508 14.6847 12.5402 14.7058 12.5086C14.7234 12.5226 14.7515 12.498 14.7621 12.4805C14.7902 12.4945 14.8183 12.4805 14.8218 12.4207L14.8359 12.3785C14.8429 12.3644 14.8464 12.3398 14.8464 12.3187C14.8464 12.2941 14.8605 12.2484 14.8781 12.2203C14.8957 12.1852 14.9308 12.1324 14.9132 12.0797C14.9027 12.0305 14.8816 12.034 14.864 11.9637C14.8183 11.918 14.7586 11.8512 14.6953 11.8477C14.632 11.8441 14.5968 11.8863 14.5722 11.9004ZM13.4191 12.2484C13.4754 12.3047 13.6054 12.3082 13.6933 12.2133C13.6582 12.1992 13.5879 12.1676 13.5597 12.143C13.514 12.1852 13.4613 12.2344 13.4191 12.2484Z" fill="#FFE1CF" stroke="black" stroke-width="0.01875"/>
<path d="M13.9922 5.80079C14.0168 5.66016 14.1187 5.66016 14.182 5.67774C14.2102 5.68125 14.2734 5.68829 14.3332 5.67071C14.4563 5.63907 14.5441 5.68125 14.5336 5.79727C14.5687 5.82188 14.6004 5.87813 14.5934 5.92735C14.5863 5.97657 14.5969 5.99766 14.6426 6.00118C14.6883 6.00821 14.7832 6.06446 14.7199 6.1418C14.7797 6.17696 14.8254 6.27188 14.7937 6.33165C14.7621 6.39493 14.6637 6.40547 14.625 6.34922C14.5793 6.37032 14.5055 6.37383 14.4633 6.32813C14.4316 6.36329 14.3578 6.35977 14.3402 6.32813C14.3262 6.29297 14.3051 6.27891 14.2734 6.26836C14.2383 6.25782 14.2383 6.16993 14.2875 6.15938C14.2805 6.13125 14.284 6.10313 14.2945 6.08907C14.3086 6.075 14.298 6.04688 14.2699 6.02579C14.2418 6.00118 14.2172 5.92032 14.2453 5.8711C14.1961 5.88868 14.0906 5.83946 14.0695 5.80782C14.0449 5.77266 14.0133 5.77266 13.9957 5.80079H13.9922Z" fill="#870F00" stroke="black" stroke-width="0.01875"/>
<path d="M14.0272 6.42657C14.1046 6.41602 14.1327 6.3668 14.189 6.37032M13.855 6.20509L13.8761 6.21915C13.8901 6.22618 13.9112 6.22969 13.9253 6.22969M13.8796 6.12071L13.9147 6.1418M14.0624 5.80079C14.0167 5.7586 14.1433 5.66719 14.2733 5.79727C14.2979 5.81837 14.3612 5.82188 14.3788 5.81485M14.2452 5.8711C14.305 5.85704 14.3964 5.85704 14.421 5.92384C14.4491 5.99415 14.5019 5.94844 14.544 6.0293C14.5862 6.11368 14.6565 6.20509 14.7198 6.1418M14.4632 6.32813C14.4527 6.31093 14.446 6.29167 14.4435 6.27165C14.4411 6.25164 14.443 6.23133 14.4491 6.21212C14.4245 6.18399 14.4351 6.12774 14.4491 6.09962M14.2874 6.15938C14.2874 6.18399 14.3226 6.22969 14.3718 6.23673M14.6249 6.34923C14.5968 6.31407 14.6003 6.27891 14.6073 6.23673" stroke="black" stroke-width="0.01875"/>
<path d="M14.3296 5.94493C14.3296 5.98008 14.3472 6.0293 14.3858 6.0504C14.3964 6.06798 14.4351 6.12423 14.5159 6.11719M14.5335 5.80079C14.4809 5.75391 14.4164 5.7223 14.3472 5.70938M14.0378 6.96094C13.9675 7.05587 13.9253 7.18594 13.9569 7.36876C13.9921 7.54805 14.0413 7.81876 13.9077 7.93829M14.5651 8.29337C14.4737 8.27227 14.3401 8.27227 14.2663 8.32501C14.225 8.35058 14.1778 8.36528 14.1292 8.36774C14.0807 8.3702 14.0323 8.36034 13.9886 8.33907" stroke="black" stroke-width="0.01875"/>
<path d="M14.3683 8.28633C14.2875 8.30039 14.2488 8.35664 14.2488 8.50781C14.2488 8.65547 14.2172 8.87695 14.2453 9.09141M14.2207 8.34961C14.168 8.36367 14.1152 8.36367 14.1223 8.50781M13.9465 8.50781C13.9465 8.42344 13.9816 8.34258 14.0379 8.35664M14.5301 8.52539C14.5371 8.33555 14.4949 8.2793 14.4351 8.2793C14.5125 8.28281 14.5652 8.29336 14.5969 8.60977C14.6215 8.8418 14.6707 8.92617 14.7269 9.1125C14.8746 9.59063 14.8008 10.3289 14.8746 10.5891M14.4211 8.58516C14.6206 9.14675 14.6144 9.76092 14.4035 10.3184C14.5723 10.7895 14.7445 11.1305 14.7762 11.3238M13.9324 9.63633C13.9605 9.53789 13.8621 9.52383 13.95 9.16875C13.9851 9.01406 13.9957 8.92266 13.9711 8.86992" stroke="black" stroke-width="0.01875"/>
<path d="M13.9711 9.08086C13.9359 9.23906 14.0871 9.53789 14.0098 9.74883M13.8164 9.79101C13.8164 9.93164 13.8516 10.1074 13.8445 10.248C13.8375 10.3852 13.8938 10.4484 13.957 10.5785C14.1926 11.0496 14.3543 11.3871 14.3297 11.8266C14.3297 11.9074 14.3543 12.0797 14.2699 12.1289M13.827 12.2484C13.8516 12.2484 13.8762 12.2379 13.9078 12.1641C13.9359 12.0937 14.0344 11.6543 13.9957 11.3555M14.0414 11.693C14.0604 11.8399 14.0447 11.9891 13.9957 12.1289" stroke="black" stroke-width="0.01875"/>
<path d="M14.1961 11.4152C14.2313 11.6121 14.2313 11.7914 14.1997 11.918M14.1153 11.918C14.1188 11.9988 14.1575 12.1992 14.0942 12.2168M14.4211 10.9758C14.5688 11.2113 14.6883 11.7914 14.8114 11.9145M14.5512 11.8195C14.5442 11.7563 14.5407 11.6648 14.5055 11.6262M12.9305 8.98243C12.9305 8.93672 12.9235 8.89453 12.9727 8.82422M12.8567 9.00703C12.8637 8.85235 12.8602 8.83828 12.9059 8.7961M12.7969 9.01055C12.7969 8.90157 12.7829 8.86289 12.8251 8.78907M13.3524 5.66719L13.1907 5.78672M13.3946 5.70235C13.377 5.70586 13.3243 5.75157 13.2223 5.82891M13.4016 5.76563C13.3665 5.77969 13.3102 5.83594 13.254 5.87813M13.1485 5.75508L13.0922 5.81133M14.5653 12.5508C14.5547 12.5402 14.5547 12.5051 14.5723 12.4664M14.6356 12.5332C14.6251 12.5227 14.6356 12.4734 14.6497 12.4418M14.7059 12.5086C14.6918 12.5016 14.6883 12.4734 14.7059 12.4383M14.7622 12.4805C14.7516 12.4805 14.7481 12.4629 14.7622 12.4172" stroke="black" stroke-width="0.01875"/>
<path d="M13.9641 5.93086C13.9922 5.96601 14.0238 5.96601 14.0273 5.99062L14.0414 6.02578H14.0203L13.9711 6.02226C13.957 6.02226 13.9394 6.00469 13.95 6.00117C13.9605 6.00117 13.9605 5.99765 13.957 5.99062L13.9676 5.96953C13.9746 5.96601 13.9676 5.96953 13.9676 5.95547C13.9605 5.94492 13.957 5.92031 13.9641 5.93086ZM13.9816 5.8957C14.0261 5.90019 14.0679 5.91865 14.1012 5.94844C14.1258 5.97656 14.1047 5.96953 14.0941 5.96953C14.0801 5.96953 14.059 5.9625 14.0449 5.94844C14.0344 5.93437 13.9957 5.91328 13.9746 5.90976C13.9676 5.90625 13.957 5.89219 13.9816 5.8957Z" fill="black"/>
<path d="M0.00708008 0H9.00708V9H0.00708008V0Z" fill="#012169"/>
<path d="M9.00708 0V1.125L5.66724 4.5L9.00708 7.78711V9H7.82935L4.47192 5.69531L1.20239 9H0.00708008V7.80469L3.27661 4.51758L0.00708008 1.30078V0H1.09692L4.47192 3.30469L7.74146 0H9.00708Z" fill="white"/>
<path d="M3.24146 5.69531L3.43481 6.29297L0.745361 9H0.00708008V8.94727L3.24146 5.69531ZM5.42114 5.48438L6.37036 5.625L9.00708 8.20898V9L5.42114 5.48438ZM9.00708 0L5.63208 3.44531L5.56177 2.67188L8.19849 0H9.00708ZM0.00708008 0.0175781L3.39966 3.33984L2.36255 3.19922L0.00708008 0.861328V0.0175781Z" fill="#C8102E"/>
<path d="M3.10083 0V9H5.91333V0H3.10083ZM0.00708008 3.09375V5.90625H9.00708V3.09375H0.00708008Z" fill="white"/>
<path d="M0.00708008 3.65625V5.34375H9.00708V3.65625H0.00708008ZM3.66333 0V9H5.35083V0H3.66333Z" fill="#C8102E"/>
</g>
<defs>
<clipPath id="clip0_14_1309">
<rect width="18" height="18" rx="9" fill="white"/>
</clipPath>
</defs>
</svg>
