<svg width="18" height="18" viewBox="0 0 18 18" fill="none" xmlns="http://www.w3.org/2000/svg">
<g clip-path="url(#clip0_8201_10861)">
<path d="M1.09424 4.69564L8.99993 5.47826L16.9056 4.69564C15.3792 1.89805 12.4113 0 8.99993 0C5.58854 0 2.62069 1.89805 1.09424 4.69564Z" fill="#D80027"/>
<path d="M1.09431 13.3044L9 14.087L16.9057 13.3044C17.6033 12.0257 18 10.5592 18 9.00002L9 8.21741L0 9.00002C0 10.5592 0.396668 12.0257 1.09431 13.3044Z" fill="#FFDA44"/>
<path d="M1.09431 4.69568C0.396668 5.97435 0 7.44085 0 9.00003H18C18 7.44085 17.6033 5.97435 16.9057 4.69568H9H1.09431Z" fill="#0052B4"/>
<path d="M8.99993 18C12.4113 18 15.3792 16.1019 16.9056 13.3043H1.09424C2.62069 16.1019 5.58854 18 8.99993 18Z" fill="#6DA544"/>
</g>
<defs>
<clipPath id="clip0_8201_10861">
<rect width="18" height="18" fill="white"/>
</clipPath>
</defs>
</svg>
