<svg width="18" height="18" viewBox="0 0 18 18" fill="none" xmlns="http://www.w3.org/2000/svg">
<g clip-path="url(#clip0_14_1138)">
<path d="M0 0H18V18H0V0Z" fill="#D21034"/>
<path d="M4.5 4.5H13.5V13.5H4.5V4.5Z" fill="#007E3A"/>
<path d="M10.125 11.9988C11.7813 11.9988 13.1239 10.6562 13.1239 9C13.1239 7.3438 11.7813 6.00117 10.125 6.00117C8.46884 6.00117 7.12622 7.3438 7.12622 9C7.12622 10.6562 8.46884 11.9988 10.125 11.9988Z" fill="white"/>
<path d="M10.8493 11.9988C12.2841 11.9988 13.4473 10.6562 13.4473 9C13.4473 7.3438 12.2841 6.00117 10.8493 6.00117C9.41441 6.00117 8.25122 7.3438 8.25122 9C8.25122 10.6562 9.41441 11.9988 10.8493 11.9988Z" fill="#007E3A"/>
</g>
<defs>
<clipPath id="clip0_14_1138">
<rect width="18" height="18" rx="9" fill="white"/>
</clipPath>
</defs>
</svg>
