<svg width="18" height="18" viewBox="0 0 18 18" fill="none" xmlns="http://www.w3.org/2000/svg">
<g clip-path="url(#clip0_8201_10827)">
<path d="M9 18C13.9706 18 18 13.9706 18 9C18 4.02944 13.9706 0 9 0C4.02944 0 0 4.02944 0 9C0 13.9706 4.02944 18 9 18Z" fill="#D80027"/>
<path d="M3.13037 4.69568H14.8695V13.3044H3.13037V4.69568Z" fill="#6DA544"/>
<path d="M10.4495 11.5434C9.04479 11.5434 7.90601 10.4047 7.90601 8.99996C7.90601 7.59526 9.04479 6.45648 10.4495 6.45648C10.8875 6.45648 11.2996 6.56722 11.6594 6.76219C11.095 6.21021 10.3231 5.86951 9.47124 5.86951C7.74239 5.86951 6.34082 7.27105 6.34082 8.99992C6.34082 10.7288 7.74239 12.1303 9.47124 12.1303C10.3231 12.1303 11.095 11.7896 11.6594 11.2377C11.2996 11.4327 10.8875 11.5434 10.4495 11.5434Z" fill="#F0F0F0"/>
</g>
<defs>
<clipPath id="clip0_8201_10827">
<rect width="18" height="18" fill="white"/>
</clipPath>
</defs>
</svg>
