<svg width="18" height="18" viewBox="0 0 18 18" fill="none" xmlns="http://www.w3.org/2000/svg">
<g clip-path="url(#clip0_8201_10811)">
<path d="M0 9.00001C0 10.1009 0.198035 11.1554 0.559793 12.1304L9 12.5218L17.4402 12.1305C17.802 11.1554 18 10.1009 18 9.00001C18 7.89913 17.802 6.84458 17.4402 5.8696L9 5.47827L0.559793 5.86956C0.198035 6.84458 0 7.89913 0 9.00001H0Z" fill="#D80027"/>
<path d="M8.99978 0C5.13009 0 1.83121 2.44237 0.55957 5.86958H17.44C16.1683 2.44237 12.8695 0 8.99978 0Z" fill="black"/>
<path d="M17.44 12.1304H0.55957C1.83121 15.5575 5.13009 18 8.99978 18C12.8695 18 16.1683 15.5575 17.44 12.1304Z" fill="#496E2D"/>
<path d="M11.69 4.30431L10.5909 3.78731L11.1762 2.72281L9.98266 2.95115L9.83141 1.74536L9.00004 2.63218L8.1687 1.74536L8.01742 2.95115L6.8239 2.72281L7.40922 3.78731L6.31006 4.30431H11.69Z" fill="#D80027"/>
</g>
<defs>
<clipPath id="clip0_8201_10811">
<rect width="18" height="18" fill="white"/>
</clipPath>
</defs>
</svg>
