<svg width="18" height="18" viewBox="0 0 18 18" fill="none" xmlns="http://www.w3.org/2000/svg">
<g clip-path="url(#clip0_8201_10885)">
<path d="M9 18C13.9706 18 18 13.9706 18 9C18 4.02944 13.9706 0 9 0C4.02944 0 0 4.02944 0 9C0 13.9706 4.02944 18 9 18Z" fill="#F0F0F0"/>
<path d="M18.0001 9.00003C18.0001 5.43188 15.9236 2.34882 12.9131 0.893066V17.107C15.9236 15.6512 18.0001 12.5682 18.0001 9.00003Z" fill="#D80027"/>
<path d="M0 9.00003C0 12.5682 2.0765 15.6512 5.08697 17.107V0.893066C2.0765 2.34882 0 5.43188 0 9.00003Z" fill="#6DA544"/>
<path d="M6.65234 9.00002C6.65234 10.2967 7.70352 11.3479 9.00018 11.3479C10.2969 11.3479 11.348 10.2967 11.348 9.00002V8.21741H6.65234V9.00002Z" fill="#6DA544"/>
<path d="M12.1305 7.43471H9.7827C9.7827 7.0025 9.43229 6.6521 9.00008 6.6521C8.56787 6.6521 8.21747 7.0025 8.21747 7.43471H5.86963C5.86963 7.86696 6.24612 8.21733 6.67829 8.21733H6.65224C6.65224 8.64957 7.00261 8.99994 7.43486 8.99994C7.43486 9.43219 7.78522 9.78255 8.21747 9.78255H9.7827C10.2149 9.78255 10.5653 9.43219 10.5653 8.99994C10.9976 8.99994 11.3479 8.64957 11.3479 8.21733H11.3218C11.7541 8.21733 12.1305 7.86696 12.1305 7.43471Z" fill="#FF9811"/>
</g>
<defs>
<clipPath id="clip0_8201_10885">
<rect width="18" height="18" fill="white"/>
</clipPath>
</defs>
</svg>
