<svg width="18" height="18" viewBox="0 0 18 18" fill="none" xmlns="http://www.w3.org/2000/svg">
<g clip-path="url(#clip0_8201_10816)">
<path d="M9 18C13.9706 18 18 13.9706 18 9C18 4.02944 13.9706 0 9 0C4.02944 0 0 4.02944 0 9C0 13.9706 4.02944 18 9 18Z" fill="#F0F0F0"/>
<path d="M8.60889 9.00006H18.0002C18.0002 8.18771 17.8919 7.40084 17.6901 6.65222H8.60889V9.00006Z" fill="#D80027"/>
<path d="M8.60889 4.30438H16.6792C16.1283 3.40537 15.4239 2.61073 14.6026 1.95654H8.60889V4.30438Z" fill="#D80027"/>
<path d="M8.99986 18C11.118 18 13.0648 17.2679 14.6022 16.0435H3.39746C4.93488 17.2679 6.88173 18 8.99986 18Z" fill="#D80027"/>
<path d="M1.32098 13.6956H16.6791C17.1214 12.9739 17.4643 12.185 17.69 11.3478H0.310059C0.535656 12.185 0.878676 12.9739 1.32098 13.6956Z" fill="#D80027"/>
<path d="M9 9C9 4.02947 9 3.44348 9 0C4.02947 0 0 4.02947 0 9H9Z" fill="#0052B4"/>
<path d="M5.98476 7.70376C4.75563 7.70376 3.75923 6.70733 3.75923 5.47823C3.75923 4.24913 4.75566 3.2527 5.98476 3.2527C6.368 3.2527 6.7286 3.34962 7.04342 3.5202C6.54955 3.03726 5.87413 2.73914 5.12878 2.73914C3.61604 2.73914 2.38965 3.96549 2.38965 5.47826C2.38965 6.99104 3.61604 8.21739 5.12878 8.21739C5.87413 8.21739 6.54955 7.91927 7.04342 7.43633C6.7286 7.60683 6.36803 7.70376 5.98476 7.70376Z" fill="#FFDA44"/>
<path d="M6.61186 3.91296L7.00698 4.73921L7.89928 4.53305L7.4997 5.35708L8.21731 5.92615L7.32385 6.12756L7.32634 7.04342L6.61186 6.47044L5.89735 7.04342L5.89981 6.12756L5.00635 5.92615L5.72396 5.35708L5.32434 4.53305L6.21671 4.73921L6.61186 3.91296Z" fill="#FFDA44"/>
</g>
<defs>
<clipPath id="clip0_8201_10816">
<rect width="18" height="18" fill="white"/>
</clipPath>
</defs>
</svg>
