<svg width="18" height="18" viewBox="0 0 18 18" fill="none" xmlns="http://www.w3.org/2000/svg">
<g clip-path="url(#clip0_14_1164)">
<path d="M0 0H18V1.28672H0V0Z" fill="#CC0000"/>
<path d="M0 1.28672H18V2.56641H0V1.28672Z" fill="white"/>
<path d="M0 2.56992H18V3.85664H0V2.56992Z" fill="#CC0000"/>
<path d="M0 3.85664H18V5.14336H0V3.85664Z" fill="white"/>
<path d="M0 5.14336H18V6.43007H0V5.14336Z" fill="#CC0000"/>
<path d="M0 6.43008H18V7.71329H0V6.43008Z" fill="white"/>
<path d="M0 7.71329H18V9.00001H0V7.71329Z" fill="#CC0000"/>
<path d="M0 9H18V10.2867H0V9Z" fill="white"/>
<path d="M0 10.2867H18V11.5664H0V10.2867Z" fill="#CC0000"/>
<path d="M0 11.5699H18V12.8566H0V11.5699Z" fill="white"/>
<path d="M0 12.8566H18V14.1434H0V12.8566Z" fill="#CC0000"/>
<path d="M0 14.1434H18V15.4301H0V14.1434Z" fill="white"/>
<path d="M0 15.4301H18V16.7133H0V15.4301Z" fill="#CC0000"/>
<path d="M0 16.7133H18V18H0V16.7133Z" fill="white"/>
<path d="M0 0H9V10.2867H0V0Z" fill="#000066"/>
<path d="M5.83591 3.26953L6.00466 4.41211L6.65153 3.45586L6.29997 4.55625L7.30192 3.97265L6.51091 4.8164L7.66403 4.725L6.58473 5.14336L7.66403 5.55469L6.51091 5.46679L7.30192 6.31054L6.30348 5.72344L6.64802 6.83086L6.00114 5.87109L5.83239 7.01367L5.66716 5.87109L5.02028 6.82734L5.36833 5.72344L4.36989 6.31054L5.15739 5.46679L4.00427 5.55469L5.08356 5.13984L4.00778 4.72148L5.16091 4.81289L4.36989 3.96914L5.36833 4.55273L5.01677 3.44883L5.66716 4.40859L5.83591 3.2625V3.26953ZM4.89723 3.31523C4.43769 3.11221 3.91857 3.08954 3.44308 3.25173C2.96758 3.41392 2.57052 3.74909 2.33083 4.19062C2.17237 4.48343 2.0895 4.81115 2.08973 5.14409C2.08995 5.47702 2.17328 5.80463 2.33214 6.09722C2.491 6.38981 2.72038 6.63811 2.99948 6.81963C3.27858 7.00115 3.59857 7.11014 3.93044 7.13672C4.26142 7.16272 4.59367 7.10594 4.89723 6.97148C4.56101 7.21272 4.16477 7.35656 3.75209 7.38719C3.33941 7.41781 2.92628 7.33404 2.55813 7.14507C2.18998 6.95611 1.88108 6.66928 1.66538 6.31612C1.44969 5.96297 1.33557 5.55717 1.33557 5.14336C1.33557 4.72954 1.44969 4.32375 1.66538 3.97059C1.88108 3.61744 2.18998 3.3306 2.55813 3.14164C2.92628 2.95268 3.33941 2.8689 3.75209 2.89953C4.16477 2.93015 4.56101 3.074 4.89723 3.31523Z" fill="#FFCC00"/>
</g>
<defs>
<clipPath id="clip0_14_1164">
<rect width="18" height="18" rx="9" fill="white"/>
</clipPath>
</defs>
</svg>
