<svg width="18" height="18" viewBox="0 0 18 18" fill="none" xmlns="http://www.w3.org/2000/svg">
<g clip-path="url(#clip0_8201_10945)">
<path d="M9 18C13.9706 18 18 13.9706 18 9C18 4.02944 13.9706 0 9 0C4.02944 0 0 4.02944 0 9C0 13.9706 4.02944 18 9 18Z" fill="#F0F0F0"/>
<path d="M4.8645 12.5217L2.63623 15.3637C4.26481 16.9924 6.51456 18 8.9999 18C12.7205 18 15.9132 15.7419 17.2838 12.5217H4.8645Z" fill="#FFDA44"/>
<path d="M17.2978 5.51085C15.9348 2.27327 12.7331 0 8.9999 0C6.51456 0 4.26481 1.00754 2.63623 2.63633L4.8901 5.51085H17.2978Z" fill="#496E2D"/>
<path d="M1.95654 6.61963V11.3479H17.69C17.8919 10.5994 18 9.81241 18 9.00006C18 8.17593 17.889 7.37788 17.6815 6.61963H1.95654Z" fill="black"/>
<path d="M2.63603 2.63599C-0.878678 6.1507 -0.878678 11.8492 2.63603 15.364C4.08844 13.9115 5.48531 12.5147 9.00002 8.99997L2.63603 2.63599Z" fill="#A2001D"/>
<path d="M3.64246 6.6521L4.22518 8.44563H6.11117L4.58546 9.55418L5.16814 11.3478L3.64246 10.2393L2.11672 11.3478L2.69954 9.55418L1.17383 8.44563H3.05968L3.64246 6.6521Z" fill="#FFDA44"/>
<path d="M1.9375 9H5.3485V10.5652H1.9375V9Z" fill="#F0F0F0"/>
<path d="M5.99415 7.20553L5.44075 6.6521L3.64258 8.45027L1.84441 6.6521L1.29102 7.20553L3.09077 9.00208L1.29102 10.8019L1.84441 11.3478L3.64258 9.55284L5.44075 11.3478L5.99415 10.8019L4.19439 9.00208L5.99415 7.20553Z" fill="black"/>
</g>
<defs>
<clipPath id="clip0_8201_10945">
<rect width="18" height="18" fill="white"/>
</clipPath>
</defs>
</svg>
