<svg width="18" height="18" viewBox="0 0 18 18" fill="none" xmlns="http://www.w3.org/2000/svg">
<g clip-path="url(#clip0_14_1234)">
<mask id="mask0_14_1234" style="mask-type:luminance" maskUnits="userSpaceOnUse" x="0" y="0" width="18" height="18">
<path d="M0 0H17.9972V17.9972H0V0Z" fill="white"/>
</mask>
<g mask="url(#mask0_14_1234)">
<path fill-rule="evenodd" clip-rule="evenodd" d="M0 0H26.9959V5.62414H0V0Z" fill="#009A00"/>
<path fill-rule="evenodd" clip-rule="evenodd" d="M0 5.62415H26.9959V6.18656H0V5.62415Z" fill="white"/>
<path fill-rule="evenodd" clip-rule="evenodd" d="M0 6.18655H26.9959V11.8107H0V6.18655Z" fill="black"/>
<path fill-rule="evenodd" clip-rule="evenodd" d="M0 11.8107H26.9959V12.3731H0V11.8107Z" fill="white"/>
<path fill-rule="evenodd" clip-rule="evenodd" d="M0 12.3731H26.9959V17.9972H0V12.3731Z" fill="#FFCA00"/>
<path fill-rule="evenodd" clip-rule="evenodd" d="M0 0V17.9972L11.8143 8.99862L0 0Z" fill="#FF0000"/>
<path fill-rule="evenodd" clip-rule="evenodd" d="M6.97755 11.7055L5.17783 10.3883L3.38173 11.7055L4.0784 9.58644L2.26416 8.28018L4.4993 8.29107L5.17783 6.16841L5.85998 8.29107L8.09149 8.28018L6.27725 9.58644L6.97755 11.7055Z" fill="#FFCA00"/>
<path fill-rule="evenodd" clip-rule="evenodd" d="M3.61401 10.2287H4.91301C5.01823 10.3448 5.25046 10.392 5.47179 10.2287C5.87818 10.0037 6.66556 10.2287 6.66556 10.2287L6.82159 10.0618L6.44423 8.82445L6.30634 8.67931C6.30634 8.67931 6.01607 8.50514 5.46454 8.5632C4.91301 8.62125 4.7207 8.54143 4.7207 8.54143C4.7207 8.54143 4.23448 8.59948 4.10023 8.67205L3.9442 8.82808L3.61764 10.2323L3.61401 10.2287Z" fill="white" stroke="black" stroke-width="0.0709569" stroke-linecap="round" stroke-linejoin="round"/>
<path d="M3.87524 9.90574C3.87524 9.90574 5.11618 9.75334 5.47177 10.2287C5.27221 10.3666 5.09441 10.3738 4.9021 10.2359C4.93476 10.1851 5.34841 9.75334 6.40429 9.89848" stroke="black" stroke-width="0.0709569" stroke-linecap="round" stroke-linejoin="round"/>
<path d="M5.20327 8.66843L5.19238 10.0327M6.30633 8.6902L6.53855 9.77148" stroke="black" stroke-width="0.0709569"/>
<path d="M4.11101 8.67206L3.98401 9.23084" stroke="black" stroke-width="0.0709569" stroke-linecap="round" stroke-linejoin="round"/>
<path fill-rule="evenodd" clip-rule="evenodd" d="M2.77222 10.3774L3.07701 10.733C3.11329 10.7548 3.14595 10.7548 3.17861 10.733L3.62854 10.1888L3.82085 9.95654C3.8338 9.9417 3.84368 9.92443 3.84991 9.90575C3.85613 9.88706 3.85859 9.86733 3.85713 9.84768L4.21998 9.52112C4.24901 9.52838 4.26715 9.53201 4.29255 9.53201C4.25989 9.52112 4.23449 9.50661 4.26352 9.46669L4.34335 9.40501L4.40866 9.48483C4.40866 9.48483 4.31795 9.60457 4.30706 9.60457H4.20909L4.01678 9.77511L4.10024 9.84768L4.22724 10.1924L4.37963 10.0835L4.28166 9.73157L4.49937 9.49572L4.41592 9.36872L4.47034 9.29615C4.47034 9.29615 5.22144 9.76786 5.51172 9.64086C5.51897 9.64449 5.52986 9.30341 5.52986 9.30341C5.52986 9.30341 4.74974 9.22358 4.73159 9.07119C4.71345 8.91516 4.90576 8.89702 4.90576 8.89702L4.82231 8.78091L4.84045 8.7156L4.97833 8.88976L5.28312 8.62489L7.09373 10.6895C7.1917 10.6496 7.21347 10.6242 7.22073 10.5262L5.44278 8.49063L5.58066 8.34549C5.60606 8.31647 5.61694 8.30195 5.61694 8.25478L5.82377 8.07336C5.87972 8.0931 5.92714 8.13155 5.95802 8.18221L6.53132 7.69962C6.54583 7.71414 6.593 7.72865 6.62203 7.71051L7.56543 6.80339L6.53858 7.52909L6.50229 7.50369C6.50229 7.47466 6.53858 7.4674 6.50229 7.41297C6.46238 7.3658 6.40069 7.46015 6.39344 7.46015C6.38618 7.46015 6.24467 7.40935 6.21201 7.34766L6.20476 7.51457L5.93988 7.75768L5.74031 7.75042L5.45003 8.02982L5.41375 8.13867L5.46092 8.22938C5.46092 8.22938 5.30852 8.36364 5.30852 8.35638C5.30852 8.34549 5.27587 8.31647 5.27224 8.30921L5.40649 8.1931L5.42463 8.10964L5.38109 8.0407C5.36658 8.05159 5.19967 8.22938 5.18878 8.21124L4.70619 7.65608L4.73159 7.55449L4.42317 7.22067C4.31432 7.18438 4.1329 7.17712 4.09661 7.42023C4.07121 7.47829 3.83536 7.42749 3.83536 7.42749L3.71199 7.45652L2.99718 8.46886L3.39631 8.94782L4.20909 7.91733L4.23086 7.62705L4.4014 7.81574C4.45946 7.82299 4.51389 7.82299 4.56468 7.79759L5.04727 8.33461L4.96744 8.41443L5.04001 8.49426L5.11984 8.43621L5.15613 8.48338C5.11258 8.50515 5.08356 8.53417 5.04727 8.55594C4.97833 8.51603 4.91665 8.4616 4.9239 8.37815L4.65177 8.60312L4.64088 8.65028L3.83536 9.31792L3.76279 9.32881L3.74465 9.53563L4.27078 9.10022V9.03853L4.3252 9.08207L4.73159 8.75551C4.73159 8.75551 4.76062 8.7918 4.74974 8.7918C4.73885 8.7918 4.38689 9.11836 4.38689 9.11836L4.37963 9.15464L4.31795 9.20907L4.28166 9.18367L3.79182 9.61909H3.71925L3.44711 9.8876C3.37817 9.89485 3.31649 9.90211 3.25843 9.94202L2.77222 10.3774Z" fill="black" stroke="black" stroke-width="0.0709569" stroke-linecap="round" stroke-linejoin="round"/>
</g>
</g>
<defs>
<clipPath id="clip0_14_1234">
<rect width="18" height="18" rx="9" fill="white"/>
</clipPath>
</defs>
</svg>
