<svg width="18" height="18" viewBox="0 0 18 18" fill="none" xmlns="http://www.w3.org/2000/svg">
<g clip-path="url(#clip0_14_1135)">
<mask id="mask0_14_1135" style="mask-type:luminance" maskUnits="userSpaceOnUse" x="0" y="0" width="18" height="18">
<path d="M0 0H18V18H0V0Z" fill="white"/>
</mask>
<g mask="url(#mask0_14_1135)">
<path fill-rule="evenodd" clip-rule="evenodd" d="M0 0H18V18H0V0Z" fill="white"/>
<path fill-rule="evenodd" clip-rule="evenodd" d="M-3.80396 0.00703125L-3.77583 12.9656L16.4039 0L-3.80396 0.00703125Z" fill="#3662A2"/>
<path fill-rule="evenodd" clip-rule="evenodd" d="M22.173 17.9824L22.1238 4.51054L1.76831 17.993L22.173 17.9824Z" fill="#38A100"/>
<path fill-rule="evenodd" clip-rule="evenodd" d="M-3.79346 13.943L-3.77588 18L0.629199 17.993L22.1343 3.57539L22.1132 0.0492218L17.7608 0.0070343L-3.78994 13.943H-3.79346Z" fill="#C70000"/>
<path fill-rule="evenodd" clip-rule="evenodd" d="M5.41406 6.44765L4.60195 5.95547L4.13086 6.78515L3.67383 5.94844L2.84766 6.43359L2.86875 5.48086L1.91953 5.48789L2.41172 4.67226L1.58203 4.20117L2.41875 3.74414L1.93359 2.91797L2.88281 2.93906L2.8793 1.98633L3.69492 2.47851L4.16602 1.64883L4.62305 2.48203L5.45625 2.0039L5.43516 2.95312L6.38438 2.94961L5.89219 3.76523L6.72187 4.23281L5.88516 4.69336L6.3668 5.51601L5.41758 5.49844L5.41406 6.44765Z" fill="#FFE700"/>
<path fill-rule="evenodd" clip-rule="evenodd" d="M5.89917 4.21875C5.89917 5.175 5.11519 5.95195 4.14839 5.95195C3.18159 5.95195 2.40112 5.175 2.40112 4.21524C2.40112 3.25547 3.18511 2.48203 4.1519 2.48203C5.1187 2.48203 5.89917 3.25547 5.89917 4.21524V4.21875Z" fill="#3662A2"/>
<path fill-rule="evenodd" clip-rule="evenodd" d="M5.51948 4.21875C5.52889 4.40441 5.50045 4.59004 5.43588 4.76437C5.37132 4.9387 5.27197 5.09807 5.14389 5.23281C5.01581 5.36754 4.86167 5.47483 4.69084 5.54814C4.52 5.62145 4.33605 5.65925 4.15015 5.65925C3.96425 5.65925 3.78029 5.62145 3.60946 5.54814C3.43862 5.47483 3.28448 5.36754 3.1564 5.23281C3.02832 5.09807 2.92898 4.9387 2.86441 4.76437C2.79984 4.59004 2.7714 4.40441 2.78081 4.21875C2.79861 3.86758 2.95065 3.53667 3.20549 3.29441C3.46034 3.05215 3.79853 2.91706 4.15015 2.91706C4.50177 2.91706 4.83995 3.05215 5.0948 3.29441C5.34965 3.53667 5.50168 3.86758 5.51948 4.21875Z" fill="#FFE700"/>
</g>
</g>
<defs>
<clipPath id="clip0_14_1135">
<rect width="18" height="18" rx="9" fill="white"/>
</clipPath>
</defs>
</svg>
