<svg width="18" height="18" viewBox="0 0 18 18" fill="none" xmlns="http://www.w3.org/2000/svg">
<g clip-path="url(#clip0_8201_10959)">
<path d="M9 18C13.9706 18 18 13.9706 18 9C18 4.02944 13.9706 0 9 0C4.02944 0 0 4.02944 0 9C0 13.9706 4.02944 18 9 18Z" fill="#F0F0F0"/>
<path d="M2.63613 15.364C3.01367 15.7416 3.41649 16.0783 3.83903 16.3747L16.3747 3.83903C16.0783 3.41649 15.7416 3.01367 15.364 2.63613C14.9864 2.25858 14.5836 1.92193 14.1611 1.62549L1.62549 14.1612C1.92189 14.5836 2.25858 14.9865 2.63613 15.364Z" fill="#A2001D"/>
<path d="M2.6362 2.63599C-0.203161 5.47535 -0.748223 9.73952 0.999851 13.1265L13.1267 0.999714C9.73969 -0.74836 5.47549 -0.203228 2.6362 2.63599Z" fill="#0052B4"/>
<path d="M15.3641 15.364C18.2033 12.5247 18.7484 8.26047 17.0004 4.87341L4.87354 17.0003C8.26052 18.7484 12.5247 18.2033 15.3641 15.364Z" fill="#496E2D"/>
<path d="M7.43468 5.08698L6.42619 5.56134L6.96324 6.53805L5.86816 6.32859L5.72936 7.43478L4.96661 6.62116L4.20382 7.43478L4.0651 6.32859L2.96998 6.53801L3.50699 5.5613L2.49854 5.08698L3.50703 4.61258L2.96998 3.63594L4.06506 3.8454L4.20386 2.73914L4.96661 3.55279L5.72939 2.73914L5.86816 3.8454L6.96324 3.63594L6.42626 4.61261L7.43468 5.08698Z" fill="#FFDA44"/>
</g>
<defs>
<clipPath id="clip0_8201_10959">
<rect width="18" height="18" fill="white"/>
</clipPath>
</defs>
</svg>
