<svg width="18" height="18" viewBox="0 0 18 18" fill="none" xmlns="http://www.w3.org/2000/svg">
<g clip-path="url(#clip0_14_1227)">
<path d="M0 0H18V18H0V0Z" fill="#009543"/>
<path d="M0 0H18V11.9988H0V0Z" fill="#ED4135"/>
<path d="M0 0H18V6.00117H0V0Z" fill="#0035AD"/>
<path d="M7.9312 14.8992C11.1892 14.8992 13.8304 12.2581 13.8304 9C13.8304 5.74195 11.1892 3.10078 7.9312 3.10078C4.67315 3.10078 2.03198 5.74195 2.03198 9C2.03198 12.2581 4.67315 14.8992 7.9312 14.8992Z" fill="#FAE600" stroke="black" stroke-width="0.35625"/>
<path d="M6.93286 9.8789H8.93325ZM6.93286 8.40234H8.93325ZM7.9313 3.11484V13.1976Z" fill="black"/>
<path d="M6.93286 9.8789H8.93325M6.93286 8.40234H8.93325M7.9313 3.11484V13.1976" stroke="black" stroke-width="0.425"/>
<path d="M5.55461 14.4141C7.96633 15.3984 10.2234 14.4773 10.2234 14.4773C10.2234 14.4773 9.36906 13.5562 8.93313 13.1941C8.50774 12.8426 7.25266 12.8566 6.82375 13.1941C6.47219 13.4754 5.44563 14.5125 5.55813 14.4176L5.55461 14.4141Z" fill="black"/>
<path d="M7.9312 12.6809C8.29623 12.6809 8.59214 12.2512 8.59214 11.7211C8.59214 11.191 8.29623 10.7613 7.9312 10.7613C7.56618 10.7613 7.27026 11.191 7.27026 11.7211C7.27026 12.2512 7.56618 12.6809 7.9312 12.6809Z" fill="black"/>
<path d="M7.9312 9.64687C8.37389 9.64687 8.73276 9.42021 8.73276 9.14062C8.73276 8.86102 8.37389 8.63437 7.9312 8.63437C7.48851 8.63437 7.12964 8.86102 7.12964 9.14062C7.12964 9.42021 7.48851 9.64687 7.9312 9.64687Z" fill="black"/>
<path d="M7.9312 7.60077C8.37389 7.60077 8.73276 7.2419 8.73276 6.79921C8.73276 6.35652 8.37389 5.99765 7.9312 5.99765C7.48851 5.99765 7.12964 6.35652 7.12964 6.79921C7.12964 7.2419 7.48851 7.60077 7.9312 7.60077Z" fill="black"/>
<path d="M8.89448 3.82148C8.89448 3.82148 8.96479 3.93398 8.81714 4.19765C8.11753 5.45273 7.42144 5.48085 7.28784 5.58632C7.14019 5.70585 7.0769 5.69882 7.0769 5.69882C7.09097 5.59335 7.098 5.15038 7.10503 5.1082C7.2105 4.5246 8.09995 4.53163 8.79253 3.93046C8.898 3.83554 8.89097 3.81796 8.89097 3.81796L8.89448 3.82148ZM6.55308 6.52148C6.55308 6.52148 6.71128 6.96796 6.73237 7.42148C6.77104 8.13867 7.46011 8.15976 7.9312 8.15976V7.75898C7.57964 7.75898 7.26675 7.70976 7.01362 7.1789C6.87956 6.94675 6.72546 6.72678 6.55308 6.52148ZM6.53198 12.3223C6.53198 12.3223 6.78511 12.0059 7.08042 11.2816C7.14818 11.1094 7.26481 10.9607 7.41597 10.8539C7.56713 10.7471 7.74622 10.6868 7.9312 10.6805V10.118C7.17183 10.118 6.8062 10.3992 6.77105 10.8176C6.68667 11.6613 6.53198 12.3187 6.53198 12.3187V12.3223ZM9.31636 6.52148C9.31636 6.52148 9.15464 6.96796 9.13354 7.42148C9.09487 8.14218 8.40581 8.15976 7.93472 8.15976V7.76249C8.28979 7.76249 8.59917 7.70976 8.85581 7.18242C8.9894 6.94687 9.14409 6.72538 9.31284 6.52148H9.31636ZM9.33394 12.3223C9.33394 12.3223 9.08433 12.0094 8.7855 11.2816C8.7172 11.1101 8.60033 10.9621 8.44921 10.856C8.2981 10.7498 8.11929 10.69 7.93472 10.684V10.1215C8.69409 10.1215 9.05972 10.4027 9.09839 10.8176C9.14585 11.3235 9.22451 11.826 9.33394 12.3223Z" fill="black"/>
</g>
<defs>
<clipPath id="clip0_14_1227">
<rect width="18" height="18" rx="9" fill="white"/>
</clipPath>
</defs>
</svg>
