<svg width="18" height="18" viewBox="0 0 18 18" fill="none" xmlns="http://www.w3.org/2000/svg">
<g clip-path="url(#clip0_14_1495)">
<path d="M0 0H18V18H0V0Z" fill="#009543"/>
<path d="M0 0H18V11.9988H0V0Z" fill="#ED4135"/>
<path d="M0 0H18V6.00117H0V0Z" fill="#0035AD"/>
<path d="M7.93126 14.8992C11.1893 14.8992 13.8305 12.258 13.8305 9C13.8305 5.74195 11.1893 3.10078 7.93126 3.10078C4.67321 3.10078 2.03204 5.74195 2.03204 9C2.03204 12.258 4.67321 14.8992 7.93126 14.8992Z" fill="#FAE600" stroke="black" stroke-width="0.267187"/>
<path d="M6.9328 9.87891H8.93319ZM6.9328 8.40234H8.93319ZM7.93124 3.11484V13.1977Z" fill="black"/>
<path d="M6.9328 9.87891H8.93319M6.9328 8.40234H8.93319M7.93124 3.11484V13.1977" stroke="black" stroke-width="0.31875"/>
<path d="M5.5547 14.4141C7.96642 15.3984 10.2235 14.4773 10.2235 14.4773C10.2235 14.4773 9.36916 13.5562 8.93322 13.1941C8.50783 12.8426 7.25275 12.8566 6.82384 13.1941C6.47228 13.4754 5.44572 14.5125 5.55822 14.4176L5.5547 14.4141Z" fill="black"/>
<path d="M7.93126 12.6809C8.29629 12.6809 8.5922 12.2512 8.5922 11.7211C8.5922 11.191 8.29629 10.7613 7.93126 10.7613C7.56624 10.7613 7.27032 11.191 7.27032 11.7211C7.27032 12.2512 7.56624 12.6809 7.93126 12.6809Z" fill="black"/>
<path d="M7.93126 9.64688C8.37395 9.64688 8.73282 9.42022 8.73282 9.14063C8.73282 8.86103 8.37395 8.63438 7.93126 8.63438C7.48857 8.63438 7.1297 8.86103 7.1297 9.14063C7.1297 9.42022 7.48857 9.64688 7.93126 9.64688Z" fill="black"/>
<path d="M7.93126 7.60078C8.37395 7.60078 8.73282 7.24191 8.73282 6.79922C8.73282 6.35653 8.37395 5.99766 7.93126 5.99766C7.48857 5.99766 7.1297 6.35653 7.1297 6.79922C7.1297 7.24191 7.48857 7.60078 7.93126 7.60078Z" fill="black"/>
<path d="M8.89454 3.82148C8.89454 3.82148 8.96486 3.93398 8.8172 4.19766C8.11759 5.45273 7.4215 5.48086 7.2879 5.58633C7.14025 5.70586 7.07697 5.69883 7.07697 5.69883C7.09103 5.59336 7.09806 5.15039 7.10509 5.1082C7.21056 4.52461 8.10001 4.53164 8.79259 3.93047C8.89806 3.83555 8.89103 3.81797 8.89103 3.81797L8.89454 3.82148ZM6.55314 6.52148C6.55314 6.52148 6.71134 6.96797 6.73243 7.42148C6.77111 8.13867 7.46017 8.15977 7.93126 8.15977V7.75898C7.5797 7.75898 7.26681 7.70977 7.01368 7.17891C6.87962 6.94676 6.72552 6.72678 6.55314 6.52148ZM6.53204 12.3223C6.53204 12.3223 6.78517 12.0059 7.08048 11.2816C7.14824 11.1094 7.26487 10.9607 7.41603 10.8539C7.56719 10.7471 7.74628 10.6868 7.93126 10.6805V10.118C7.17189 10.118 6.80626 10.3992 6.77111 10.8176C6.68673 11.6613 6.53204 12.3187 6.53204 12.3187V12.3223ZM9.31642 6.52148C9.31642 6.52148 9.1547 6.96797 9.13361 7.42148C9.09493 8.14219 8.40587 8.15977 7.93478 8.15977V7.7625C8.28986 7.7625 8.59923 7.70977 8.85587 7.18242C8.98947 6.94688 9.14415 6.72539 9.3129 6.52148H9.31642ZM9.334 12.3223C9.334 12.3223 9.08439 12.0094 8.78556 11.2816C8.71726 11.1101 8.60039 10.9621 8.44927 10.856C8.29816 10.7498 8.11936 10.69 7.93478 10.684V10.1215C8.69415 10.1215 9.05978 10.4027 9.09845 10.8176C9.14591 11.3235 9.22457 11.826 9.334 12.3223Z" fill="black"/>
</g>
<defs>
<clipPath id="clip0_14_1495">
<rect width="18" height="18" rx="9" fill="white"/>
</clipPath>
</defs>
</svg>
