<svg width="18" height="18" viewBox="0 0 18 18" fill="none" xmlns="http://www.w3.org/2000/svg">
<g clip-path="url(#clip0_8201_11021)">
<path d="M0.893039 5.08693C0.320906 6.27015 0 7.59755 0 8.99997C0 10.4024 0.320906 11.7298 0.893039 12.913L9 13.6956L17.107 12.913C17.6791 11.7298 18 10.4024 18 8.99997C18 7.59755 17.6791 6.27015 17.107 5.08693L9 4.30432L0.893039 5.08693Z" fill="#F0F0F0"/>
<path d="M0.893555 12.9131C2.34923 15.9236 5.43205 18.0001 9.0002 18.0001C12.5683 18.0001 15.6512 15.9236 17.1068 12.9131H0.893555Z" fill="#6DA544"/>
<path d="M0.893555 5.08697H17.1068C15.6512 2.0765 12.5683 0 9.0002 0C5.43209 0 2.34923 2.0765 0.893555 5.08697Z" fill="#FF9811"/>
<path d="M9.00005 12.1305C10.7289 12.1305 12.1305 10.7289 12.1305 9.00005C12.1305 7.27116 10.7289 5.86963 9.00005 5.86963C7.27116 5.86963 5.86963 7.27116 5.86963 9.00005C5.86963 10.7289 7.27116 12.1305 9.00005 12.1305Z" fill="#FF9811"/>
</g>
<defs>
<clipPath id="clip0_8201_11021">
<rect width="18" height="18" fill="white"/>
</clipPath>
</defs>
</svg>
