<svg width="18" height="18" viewBox="0 0 18 18" fill="none" xmlns="http://www.w3.org/2000/svg">
<g clip-path="url(#clip0_14_1277)">
<path fill-rule="evenodd" clip-rule="evenodd" d="M5.47729 0H12.5226V18H5.47729V0Z" fill="white"/>
<path fill-rule="evenodd" clip-rule="evenodd" d="M0 0H5.47734V18H0V0ZM12.5227 0H18V18H12.5227V0Z" fill="#198200"/>
<path fill-rule="evenodd" clip-rule="evenodd" d="M8.54295 11.6859V13.1273L9.12303 13.1344C9.12303 13.1344 8.9367 11.8758 9.03865 11.707C9.14412 11.5418 9.23904 11.5664 9.23904 11.5664C9.23904 11.5664 9.61873 11.6789 9.66092 11.6613C9.7031 11.6437 9.65389 11.5172 9.85779 11.5348C9.92459 11.5102 9.88943 11.3941 9.9492 11.3906C10.009 11.3836 11.1691 11.7141 11.4187 11.4012C11.3554 11.2254 11.1269 11.3906 11.0672 11.3941C11.0109 11.3941 10.7859 11.2887 10.6523 11.3941C10.5293 11.3062 9.98435 11.2465 9.98435 11.2465C9.91404 11.1762 11.2851 11.2816 11.366 11.2289C11.5277 11.0672 11.0672 11.0848 10.9933 11.1375C10.8668 11.0601 10.7051 11.0672 10.6066 11.1199C10.5574 11.0074 10.1144 11.0566 9.86482 11.025C9.78396 10.9758 9.79451 10.9512 9.85076 10.9195C10.3711 10.9441 10.8879 11.0109 11.4082 10.9898C11.5488 10.8035 11.2324 10.7332 11.0355 10.8914C10.9195 10.7016 10.684 10.8844 10.5293 10.8668C10.3746 10.8492 10.4449 10.6559 10.6453 10.6875C10.8422 10.7156 11.1972 10.6734 11.264 10.582C11.3308 10.4941 11.2254 10.4027 10.8984 10.4871C10.7859 10.3816 10.5433 10.4871 10.4273 10.5223C10.2762 10.4414 9.92459 10.5117 9.80506 10.5434C9.68553 10.4695 10.4238 10.35 10.4238 10.35C10.7051 10.3465 10.8668 10.2973 10.9582 10.2727C11.3871 10.0406 10.9512 10.016 10.7262 10.1848C10.5855 10.0758 10.4519 10.1953 10.3254 10.2375C10.1988 10.2797 9.95974 10.3078 9.95974 10.2902C9.95974 10.2727 10.3043 10.0617 10.3043 10.0617C10.3043 10.0617 10.7262 10.0301 10.807 10.0195C10.8914 10.009 11.3238 9.78749 10.7367 9.93515C10.5328 9.95273 10.4097 9.94218 10.3324 9.9457C9.87889 9.89999 10.3746 9.85781 10.3746 9.85781C10.3746 9.85781 11.0144 9.79804 11.025 9.7664C11.0355 9.52031 10.4976 9.63632 10.4976 9.63632C10.4976 9.45703 9.9949 9.63984 9.9949 9.63632C9.89998 9.58007 10.0512 9.52031 10.0512 9.52031C10.1812 9.48867 10.3816 9.47812 10.4308 9.43593C10.4308 9.43593 10.8035 9.43593 10.8492 9.33398C10.7578 9.08085 10.0582 9.37968 9.96678 9.42538C9.84021 9.42538 10.0512 9.22148 10.0547 9.21445C10.0617 9.20742 10.6312 9.18281 10.9019 8.81718C10.923 8.5957 10.5855 8.94374 10.5855 8.94374C10.5609 8.65546 10.2199 8.96132 10.023 8.98593C9.82264 9.01054 9.8156 8.89453 9.95271 8.88046C10.0933 8.85937 10.248 8.87343 10.3254 8.66249C10.4062 8.45156 10.6418 8.67304 10.6804 8.59218C10.7226 8.51835 10.5961 8.45156 10.5961 8.45156C10.5961 8.45156 10.7719 8.27226 10.4906 8.27577C10.2094 8.28281 9.84021 8.24062 9.84021 8.24062C9.84021 8.24062 10.1355 8.12812 10.4097 8.13515C10.6875 8.13867 10.5363 7.93476 10.2691 7.93476C10.009 7.93476 9.86834 7.84335 9.86834 7.84335L10.3219 7.6746L10.2902 7.54804C10.2902 7.54804 10.5539 7.3371 10.1847 7.38632L9.76639 7.44257L9.01756 7.55507C9.01053 7.55507 8.81365 7.49531 9.0035 7.4496C9.19685 7.40038 9.87537 7.25976 9.97732 7.29843C10.0828 7.33359 9.96678 7.04531 9.60467 7.01015C9.24607 6.97499 9.02107 7.09804 9.02107 7.09804C9.02107 7.09804 8.78904 7.01367 9.0035 6.94335C9.22146 6.87304 9.566 6.96796 9.566 6.96796C9.566 6.96796 9.9492 6.85195 9.62928 6.80273C9.31287 6.75703 9.2074 6.84843 9.06678 6.85195C9.00701 6.78163 9.566 6.76406 9.60115 6.70078C9.54139 6.59531 9.19334 6.70078 8.99295 6.70078C8.90506 6.66562 8.90154 6.60585 8.99998 6.5707C9.20389 6.56367 9.39725 6.57421 9.60467 6.56718C9.59764 6.45468 9.60467 6.3246 9.60115 6.21562C9.33748 6.1664 9.03162 6.25078 8.88396 6.24374C8.92264 6.12421 9.48865 6.09257 9.55193 6.06093C9.68201 5.8957 8.99998 6.06093 8.98943 6.06093C8.87342 6.04335 8.88396 5.96601 8.95428 5.92031C9.13006 5.90273 9.52029 5.94492 9.49217 5.8289C9.46756 5.7164 9.22146 5.77617 9.11951 5.80078C9.01404 5.82538 8.86639 5.80781 8.86639 5.80781C8.79959 5.71992 9.45349 5.75507 9.44998 5.68828C9.43943 5.60742 9.03514 5.66367 8.89803 5.66718C8.78904 5.59687 9.41482 5.54413 9.42537 5.5371C9.44646 5.33671 9.0035 5.5371 8.91912 5.5371C8.83475 5.5371 8.87693 5.41054 8.87693 5.41054C8.87693 5.41054 9.05271 5.3332 9.04568 5.31913C9.04217 5.30859 8.9156 5.2664 8.90506 5.2664C8.891 5.2664 8.90506 5.12578 8.90506 5.12578C8.90506 5.12578 9.04568 5.02031 9.03514 4.98867C9.02107 4.96054 8.86639 5.01328 8.86639 5.01328V4.89374C8.86639 4.89374 8.97889 4.87968 8.99295 4.82695C9.0035 4.77421 8.85232 4.76718 8.85232 4.76718L8.79607 4.13437L8.73982 4.72499L8.54295 4.75663C8.54295 4.75663 8.68006 4.83398 8.70467 4.91132C8.72928 4.98867 8.53592 4.96406 8.53592 4.96406C8.53592 4.96406 8.6906 5.09765 8.70467 5.14687C8.71521 5.19257 8.4867 5.20663 8.4867 5.20663C8.4867 5.20663 8.68006 5.34726 8.6906 5.42109C8.70467 5.50195 8.6906 5.54413 8.6906 5.54413C8.6906 5.54413 8.3742 5.26288 8.17029 5.34374C8.06482 5.39999 8.41287 5.4246 8.6449 5.62499C8.6449 5.6707 8.0824 5.48788 8.06131 5.6039C8.07537 5.63554 8.65896 5.71992 8.70467 5.79374C8.49021 5.80429 8.04725 5.74804 8.06131 5.81835C8.0156 5.89921 8.47967 5.85351 8.67303 5.92382C8.72928 5.9871 8.72576 6.03984 8.62732 6.04687C8.43748 5.95898 8.01912 5.89218 8.01912 6.00468C8.01912 6.03632 8.45154 6.01523 8.60623 6.1207C8.39881 6.1664 7.69217 6.02226 7.68865 6.09257C7.70975 6.12773 7.82225 6.26835 8.01209 6.26484C8.20545 6.25781 8.64842 6.34218 8.68006 6.40195C8.70818 6.46171 8.1035 6.27538 7.87146 6.38437C7.63943 6.49335 8.52889 6.42656 8.67303 6.56015C8.81717 6.69374 8.38475 6.54609 8.38475 6.54609C8.38475 6.54609 7.78709 6.46171 7.69568 6.5039C7.60428 6.54609 7.50232 6.64453 7.50232 6.64453C7.50232 6.64453 7.56209 6.76406 7.62185 6.73945C7.68162 6.71484 7.60428 6.80976 7.60428 6.80976C7.60428 6.80976 8.44803 7.01367 8.63084 7.19648C8.81717 7.37226 7.56209 6.91523 7.56209 6.91523C7.56209 6.91523 7.05584 7.09804 7.59021 7.1121C7.53045 7.19999 7.62537 7.25273 7.62537 7.25273C7.62537 7.25273 8.51131 7.44257 8.60271 7.58671C8.6906 7.72734 7.99451 7.44609 7.83982 7.36874C7.68162 7.2914 7.23865 7.41796 7.24217 7.44609C7.2492 7.47773 7.46014 7.51992 7.46717 7.57265C7.47068 7.6289 7.20701 7.64296 7.20701 7.69218C7.20701 7.7414 8.33201 7.97343 8.63084 8.23007C8.92967 8.48671 7.74842 7.92773 7.74842 7.92773C7.74842 7.92773 7.81521 8.01913 7.74842 8.04374C7.68162 8.06484 7.44607 7.70624 7.06287 7.92773C6.99256 8.01913 7.40037 8.09296 7.50232 8.10351C7.46717 8.1914 7.43553 8.22304 7.57967 8.31445C7.72381 8.40234 7.29842 8.18085 7.29842 8.1914L7.32654 8.3496C7.19295 8.24413 7.03475 8.20898 6.88357 8.31796C6.88357 8.31796 6.87654 8.42695 7.03475 8.49374C6.94685 8.66953 7.12967 8.61328 7.41795 8.77499C6.98904 8.66249 6.95389 8.87343 7.25975 8.91913C7.56912 8.96835 8.40935 8.99648 8.60623 9.25663C8.80662 9.51327 8.32498 9.1582 8.27225 9.15117C8.25895 9.1934 8.25069 9.23707 8.24764 9.28124C8.12493 9.20044 7.98942 9.141 7.84685 9.10546C7.83631 9.13359 7.83982 9.16523 7.82576 9.18984C7.68514 9.0914 7.5656 9.02109 7.36521 9.01054L7.3406 9.10546C7.3406 9.10546 7.17185 8.89452 6.84139 9.10546C6.65506 9.23906 7.53748 9.15468 7.68514 9.30937C7.82576 9.46757 7.71326 9.49218 7.71326 9.49218L7.35115 9.35859C7.35115 9.35859 6.92576 9.28124 6.80623 9.37617C6.68318 9.47109 8.56053 9.70663 8.61326 9.96679C8.64842 10.1074 8.17381 9.81913 7.75896 9.69609L7.71326 9.83671C7.71326 9.83671 7.54803 9.66796 7.3617 9.63984L7.39685 9.80156C7.39685 9.80156 6.93982 9.5871 6.70428 9.6996C6.46873 9.81562 7.5199 9.87538 7.61834 9.98085C7.71326 10.0934 7.29842 9.91054 7.25975 9.98085C7.22459 10.0547 6.71482 9.85077 6.72185 9.9457C6.72537 10.0441 6.79217 10.0969 6.79217 10.0969C6.79217 10.0969 7.8574 10.2023 7.89256 10.3254C7.92771 10.4519 7.30193 10.2551 7.30193 10.2551C7.30193 10.2551 7.24217 10.343 7.29139 10.3851C7.3406 10.4273 6.92928 10.1461 6.96795 10.3324C6.83435 10.2797 6.49334 10.1144 6.53904 10.241C6.58826 10.3676 7.50935 10.5469 7.50935 10.5469C7.50935 10.5469 7.10506 10.5785 7.12264 10.6805C6.60584 10.3641 6.6199 10.568 6.63045 10.575C6.641 10.5785 5.96248 10.4027 6.47576 10.6805C6.98553 10.9582 6.74998 10.909 6.75701 10.916C6.76404 10.9195 6.80975 11.0566 6.7992 11.0566C6.78514 11.0566 6.44764 10.8738 6.33514 10.8598C6.22264 10.8492 5.68123 11.0109 6.25779 11.2641C6.83435 11.5172 7.18943 11.2043 7.50935 11.2394C7.82576 11.2746 7.97693 11.3309 7.94529 11.4328C7.91717 11.5348 7.62185 11.0953 7.31248 11.475C6.9574 11.4047 6.71482 11.366 6.89764 11.6227C6.32107 11.4117 5.96951 11.693 6.69725 11.8055C7.41092 11.8266 7.85037 11.6297 7.85037 11.6297C7.85037 11.6297 7.9699 11.8512 8.14568 11.6965C8.32146 11.5383 8.32498 11.7562 8.33201 11.7562L8.50076 11.6859H8.54295Z" fill="#198200" stroke="black" stroke-width="0.04375" stroke-linecap="round" stroke-linejoin="round"/>
<path fill-rule="evenodd" clip-rule="evenodd" d="M8.61336 10.8281V10.7297C8.61336 10.7297 8.38484 10.691 8.27586 10.7121C8.20555 10.6769 8.14578 10.6242 8.06844 10.6664C8.05437 10.7016 8.20906 10.7859 8.26531 10.7859C8.32859 10.8246 8.61336 10.8351 8.61336 10.8316V10.8281ZM8.60984 10.9933C8.60984 10.9933 8.38133 10.9125 8.29344 11.0074C8.3075 11.1094 8.56062 11.1586 8.60984 11.1305C8.66609 11.1023 8.60984 11.0004 8.60984 10.9933ZM8.99305 11.0355V11.1058C8.99305 11.1058 9.26375 11.1586 9.30945 11.0988C9.35867 11.0426 9.09851 11.0039 8.99305 11.0355ZM8.97898 10.7543L8.98953 10.8351C8.98953 10.8351 9.22508 10.8879 9.31297 10.7578C9.40437 10.6312 9.10906 10.7578 8.97898 10.7543ZM8.99305 10.4801V10.5328C8.99305 10.5328 9.16883 10.5609 9.2075 10.4871C9.24969 10.4098 8.99656 10.4871 8.99305 10.4801ZM8.62391 10.3183C8.59578 10.2832 8.50086 10.1848 8.24422 10.1566C8.06844 10.1566 8.56766 10.4203 8.62391 10.3183ZM8.98601 10.0512L8.97898 10.1215C8.97898 10.1215 9.58367 9.94569 9.7243 9.95624C9.85086 9.92108 9.87547 9.83319 9.87195 9.83319C9.76297 9.75585 9.24266 9.89647 8.98601 10.0512ZM9.00008 9.84022L8.99305 9.91053C8.99305 9.91053 9.41492 9.82616 9.53094 9.7453C9.64344 9.66444 9.00359 9.84022 9.00008 9.83671V9.84022ZM8.9825 9.62928V9.6996C8.9825 9.6996 9.26375 9.69257 9.32351 9.6328C9.35867 9.57655 9.0739 9.62577 8.9825 9.62928ZM9.57312 10.2269C9.57312 10.2269 9.72078 10.2445 9.7489 10.2023C9.74539 10.125 9.57312 10.2269 9.57312 10.2234V10.2269ZM8.99305 9.36561L8.99656 9.5203C8.99656 9.5203 9.67859 9.30233 9.72078 9.26366C9.76297 9.22499 9.86141 9.10194 8.99305 9.36561ZM8.97547 9.14764V9.26014C8.97547 9.26014 9.24969 9.24257 9.37625 9.1371C9.4993 9.03163 8.97547 9.15116 8.97547 9.14764ZM8.645 8.891L8.66258 8.99647L7.76258 8.70116C7.76258 8.70116 7.71687 8.5535 8.64148 8.891H8.645ZM8.65906 8.52889C8.65906 8.53944 8.65906 8.62733 8.65555 8.62382C8.65555 8.62382 8.02976 8.36366 8.00515 8.38475C7.9243 8.19139 8.65906 8.53241 8.65906 8.52538V8.52889ZM8.96492 8.69061L8.97547 8.7785C8.97547 8.7785 9.35867 8.69764 9.37976 8.65897C9.40086 8.62382 8.96492 8.69413 8.96492 8.69061ZM8.97195 8.89452L8.98601 8.98241C8.98601 8.98241 9.13719 8.97186 9.1618 8.93671C9.18289 8.90155 8.97195 8.89452 8.97195 8.89452ZM8.95086 8.42694V8.51483C8.95086 8.51483 9.37273 8.43046 9.41844 8.39178C9.46414 8.3496 8.94031 8.42694 8.95086 8.42694ZM8.95086 8.19491C8.95086 8.20194 8.9368 8.2828 8.94734 8.2828C9.14891 8.2549 9.34616 8.20175 9.53445 8.1246C9.61531 8.05428 8.95789 8.20546 8.95086 8.19491ZM8.94383 7.7871V7.87499C8.94383 7.87499 9.26726 7.80819 9.33055 7.74139C9.39383 7.6746 8.94383 7.79413 8.94383 7.7871ZM8.88758 7.19296L8.89812 7.32655C8.89812 7.32655 9.33055 7.26678 9.39383 7.19296C9.45711 7.12264 8.88758 7.19296 8.88758 7.19296ZM8.68719 6.19452V6.27889C8.68719 6.27889 8.47976 6.26835 8.5325 6.23319C8.58172 6.19803 8.68719 6.20155 8.68719 6.19803V6.19452ZM8.88055 6.30702V6.41952C8.88055 6.41952 9.15125 6.39491 9.17234 6.34921C9.18992 6.31053 8.88406 6.30702 8.88055 6.30702ZM8.86297 6.46874L8.87351 6.53905C8.87703 6.53905 8.97898 6.53202 9.00008 6.50389C9.02117 6.47577 8.87351 6.47577 8.86297 6.46874ZM8.63797 6.79218C8.63797 6.79921 8.645 6.89764 8.63797 6.89764C8.63797 6.89764 8.05789 6.72889 8.00515 6.73241C7.9489 6.73241 7.93484 6.59882 8.63797 6.79218ZM8.68367 6.98202C8.68367 6.9996 8.69773 7.10507 8.67664 7.10155C8.65555 7.09803 8.28289 6.9785 8.32508 6.94335C8.36023 6.90819 8.68367 6.98905 8.68367 6.9785V6.98202ZM8.65203 7.77655V7.87147C8.65203 7.87147 8.00516 7.6746 7.98406 7.64296C7.95945 7.6078 7.89617 7.45663 8.65203 7.77655ZM8.67664 8.00858C8.67664 8.0121 8.68367 8.09999 8.67664 8.09999L7.79773 7.79061C7.79773 7.79061 7.72742 7.55858 8.67664 8.00858Z" fill="white" stroke="black" stroke-width="0.05" stroke-linecap="round" stroke-linejoin="round"/>
<path fill-rule="evenodd" clip-rule="evenodd" d="M7.62891 11.0637V11.1621C7.62891 11.1621 7.45312 11.1129 7.40039 11.018C7.50234 10.9898 7.63242 11.0672 7.62891 11.0637Z" fill="white" stroke="black" stroke-width="0.05" stroke-linejoin="round"/>
</g>
<defs>
<clipPath id="clip0_14_1277">
<rect width="18" height="18" rx="9" fill="white"/>
</clipPath>
</defs>
</svg>
