<svg width="18" height="18" viewBox="0 0 18 18" fill="none" xmlns="http://www.w3.org/2000/svg">
<g clip-path="url(#clip0_8201_11049)">
<path d="M12.9129 0.893039C11.7297 0.320906 10.4023 0 8.99984 0C7.59743 0 6.27003 0.320906 5.08681 0.893039L4.3042 9L5.08681 17.107C6.27003 17.6791 7.59743 18 8.99984 18C10.4023 18 11.7297 17.6791 12.9129 17.107L13.6955 9L12.9129 0.893039Z" fill="#F0F0F0"/>
<path d="M5.08697 0.893311C2.0765 2.34899 0 5.43181 0 8.99995C0 12.5681 2.0765 15.6509 5.08697 17.1066V0.893311Z" fill="#6DA544"/>
<path d="M12.9131 0.893311V17.1066C15.9236 15.6509 18.0001 12.5681 18.0001 8.99995C18.0001 5.43184 15.9236 2.34899 12.9131 0.893311Z" fill="#6DA544"/>
<path d="M11.348 11.7391L9.00018 4.30432L6.65234 11.7391H8.41322V13.6956H9.58715V11.7391H11.348Z" fill="#6DA544"/>
</g>
<defs>
<clipPath id="clip0_8201_11049">
<rect width="18" height="18" fill="white"/>
</clipPath>
</defs>
</svg>
