<svg width="18" height="18" viewBox="0 0 18 18" fill="none" xmlns="http://www.w3.org/2000/svg">
<g clip-path="url(#clip0_8201_11012)">
<path d="M9 18C13.9706 18 18 13.9706 18 9C18 4.02944 13.9706 0 9 0C4.02944 0 0 4.02944 0 9C0 13.9706 4.02944 18 9 18Z" fill="#F0F0F0"/>
<path d="M9.00003 0C5.43188 0 2.34882 2.0765 0.893066 5.08697H17.107C15.6512 2.0765 12.5681 0 9.00003 0Z" fill="#338AF3"/>
<path d="M9.00003 18.0001C12.5681 18.0001 15.6512 15.9236 17.107 12.9131H0.893066C2.34882 15.9236 5.43188 18.0001 9.00003 18.0001Z" fill="#338AF3"/>
<path d="M8.99987 6.26086C7.4871 6.26086 6.26074 7.48722 6.26074 8.99999C6.26074 10.5128 7.4871 11.7391 8.99987 11.7391C10.5126 11.7391 11.739 10.5128 11.739 8.99999C11.739 7.48722 10.5126 6.26086 8.99987 6.26086ZM8.99987 10.5652C8.13545 10.5652 7.43464 9.86449 7.43464 8.99999C7.43464 8.1355 8.13541 7.43477 8.99987 7.43477C9.86433 7.43477 10.5651 8.1355 10.5651 8.99999C10.5651 9.86449 9.86429 10.5652 8.99987 10.5652Z" fill="#FFDA44"/>
<path d="M10.3553 9.39129L8.99977 9L7.64421 9.39129L7.19238 10.1739H10.8071L10.3553 9.39129Z" fill="#0052B4"/>
<path d="M8.99988 7.04346L8.09619 8.60868L8.99988 8.99997L9.90357 8.60868L8.99988 7.04346Z" fill="#338AF3"/>
<path d="M7.64453 9.39134H10.3556L9.90378 8.60876H8.09639L7.64453 9.39134Z" fill="#6DA544"/>
</g>
<defs>
<clipPath id="clip0_8201_11012">
<rect width="18" height="18" fill="white"/>
</clipPath>
</defs>
</svg>
