<svg width="18" height="18" viewBox="0 0 18 18" fill="none" xmlns="http://www.w3.org/2000/svg">
<g clip-path="url(#clip0_8201_10985)">
<path d="M9 18C13.9706 18 18 13.9706 18 9C18 4.02944 13.9706 0 9 0C4.02944 0 0 4.02944 0 9C0 13.9706 4.02944 18 9 18Z" fill="#F0F0F0"/>
<path d="M17.9473 9.97847L17.9468 9.97791L17.9468 9.97847H17.9473Z" fill="#0052B4"/>
<path d="M17.9469 9.97822C17.9469 9.97815 17.9469 9.97808 17.9469 9.97794L8.07701 0.0467529C7.63175 0.0921397 7.19606 0.169976 6.77239 0.27787C2.87923 1.2691 0 8.99996 0 8.99996C0 8.99996 12.5999 17.4317 14.0374 16.4589C14.325 16.2642 14.6007 16.0534 14.8633 15.8277L9.01389 9.97822H17.9469Z" fill="#0052B4"/>
<path d="M15.6522 8.99996L6.89924 0.24707C2.94216 1.19337 0 4.7528 0 8.99996C0 13.9705 4.02947 18 9 18C10.8854 18 12.6351 17.4198 14.0811 16.4289L6.65216 8.99996H15.6522Z" fill="#D80027"/>
<path d="M8.55968 13.2888L7.46052 12.7718L8.04584 11.7073L6.85229 11.9356L6.70104 10.7299L5.8697 11.6167L5.03836 10.7299L4.88709 11.9356L3.69357 11.7073L4.27888 12.7718L3.17969 13.2888L4.27888 13.8058L3.69357 14.8703L4.88716 14.642L5.03833 15.8477L5.8697 14.9609L6.70104 15.8477L6.85229 14.642L8.0458 14.8704L7.46049 13.8059L8.55968 13.2888Z" fill="#F0F0F0"/>
<path d="M7.82615 4.99154L7.0267 4.61555L7.45241 3.8413L6.58429 4.00738L6.47429 3.13037L5.86964 3.77538L5.26498 3.13037L5.15495 4.00738L4.28683 3.8413L4.71257 4.61555L3.91309 4.99154L5.86964 5.3829L7.82615 4.99154Z" fill="#F0F0F0"/>
<path d="M8.21765 4.99158C8.21765 6.28825 7.16648 7.33942 5.86981 7.33942C4.57314 7.33942 3.52197 6.28825 3.52197 4.99158" fill="#F0F0F0"/>
</g>
<defs>
<clipPath id="clip0_8201_10985">
<rect width="18" height="18" fill="white"/>
</clipPath>
</defs>
</svg>
