<svg width="18" height="18" viewBox="0 0 18 18" fill="none" xmlns="http://www.w3.org/2000/svg">
<g clip-path="url(#clip0_8201_10978)">
<path d="M9 18C13.9706 18 18 13.9706 18 9C18 4.02944 13.9706 0 9 0C4.02944 0 0 4.02944 0 9C0 13.9706 4.02944 18 9 18Z" fill="#0052B4"/>
<path d="M9 18C13.9706 18 18 13.9706 18 9C18 4.02944 13.9706 0 9 0C4.02944 0 0 4.02944 0 9C0 13.9706 4.02944 18 9 18Z" fill="#FFDA44"/>
<path d="M8.9999 0C4.29304 0 0.430848 3.61339 0.0341797 8.21739H17.9657C17.569 3.61339 13.7068 0 8.9999 0Z" fill="#0052B4"/>
<path d="M8.9999 18C13.7068 18 17.569 14.3866 17.9657 9.78259H0.0341797C0.430848 14.3866 4.29304 18 8.9999 18Z" fill="#0052B4"/>
<path d="M7.43472 12.1304L6.42623 12.6048L6.96324 13.5815L5.86816 13.372L5.72939 14.4782L4.96661 13.6646L4.20386 14.4782L4.0651 13.372L2.96998 13.5814L3.50703 12.6048L2.49854 12.1304L3.50706 11.656L2.96998 10.6794L4.06506 10.8889L4.20389 9.78259L4.96661 10.5962L5.72943 9.78259L5.86816 10.8889L6.96327 10.6794L6.42626 11.6561L7.43472 12.1304Z" fill="#F0F0F0"/>
</g>
<defs>
<clipPath id="clip0_8201_10978">
<rect width="18" height="18" fill="white"/>
</clipPath>
</defs>
</svg>
