<svg width="18" height="18" viewBox="0 0 18 18" fill="none" xmlns="http://www.w3.org/2000/svg">
<g clip-path="url(#clip0_8201_11032)">
<path d="M18 9C18 13.9705 13.9705 18 9 18C4.02947 18 0 13.9705 0 9C0 9.00214 9 0.000984375 9 0C13.9705 0 18 4.02947 18 9Z" fill="#FFDA44"/>
<path d="M9.00005 4.30432V7.33982L5.86963 4.30432H9.00005Z" fill="#0052B4"/>
<path d="M4.69549 9.00001H7.33963L4.69549 5.47827L4.3042 8.2174L4.69549 9.00001Z" fill="#0052B4"/>
<path d="M8.97607 9.00003H9.00016C9.00016 8.99195 9.00016 8.98407 9.00016 8.97595C8.99214 8.984 8.98413 8.99202 8.97607 9.00003Z" fill="#F0F0F0"/>
<path d="M9 4.69564C9 3.11203 9 2.07439 9 0H8.99849C4.02859 0.00084375 0 4.02993 0 9H4.69564V6.35586L7.33978 9H8.97595C8.98397 8.99198 8.99198 8.98397 9.00004 8.97592C9.00004 8.36958 9.00004 7.82856 9.00004 7.33985L6.35583 4.69564H9Z" fill="#F0F0F0"/>
<path d="M9.00016 7.89325L5.80252 4.69568H4.6958V4.69575L9.00009 9H9.00016C9.00016 9 9.00016 8.23686 9.00016 7.89325Z" fill="#D80027"/>
<path d="M4.55319 1.17395C4.20623 1.37153 3.87383 1.59171 3.5577 1.83208H3.92698L2.95098 2.54132L3.3237 3.68871L2.3477 2.97961L2.24384 3.05509C1.8386 3.51529 1.4793 4.0169 1.17383 4.55331V9.00005H3.52167V3.52186V3.52179H8.99993C8.99993 2.78129 8.99993 2.07585 8.99993 1.17395H4.55319Z" fill="#D80027"/>
<path d="M3.84475 1.62256C3.74768 1.69052 3.65199 1.76037 3.55773 1.83205L2.95111 2.5413L2.34783 2.97955L2.2431 3.05563C2.02211 3.30665 1.81486 3.57004 1.62256 3.84471C1.84176 3.9511 2.08782 4.0109 2.34783 4.0109C3.26632 4.0109 4.01086 3.26636 4.01086 2.34787C4.01093 2.08778 3.95117 1.84179 3.84475 1.62256Z" fill="#0052B4"/>
<path d="M2.24316 3.05561L2.34789 2.97953L3.3239 3.68867L2.95114 2.54127L3.92708 1.83203H3.55773C3.07981 2.19551 2.63941 2.60557 2.24316 3.05561Z" fill="#FFDA44"/>
<path d="M6.2204 1.56519L6.41467 2.16302H7.04327L6.53473 2.53255L6.7289 3.13038L6.2204 2.76088L5.71186 3.13038L5.906 2.53255L5.39746 2.16302H6.02609L6.2204 1.56519Z" fill="#FFDA44"/>
<path d="M2.3478 5.47827L2.54208 6.0761H3.17067L2.66217 6.44567L2.85634 7.0435L2.3478 6.67397L1.83923 7.0435L2.0334 6.44567L1.5249 6.0761H2.1535L2.3478 5.47827Z" fill="#FFDA44"/>
</g>
<defs>
<clipPath id="clip0_8201_11032">
<rect width="18" height="18" fill="white"/>
</clipPath>
</defs>
</svg>
