<svg width="18" height="18" viewBox="0 0 18 18" fill="none" xmlns="http://www.w3.org/2000/svg">
<g clip-path="url(#clip0_8201_10999)">
<path d="M18 9C18 13.9705 13.9705 18 9 18C4.02947 18 0 13.9705 0 9C0 9.00214 9 0.000984375 9 0C13.9705 0 18 4.02947 18 9Z" fill="#0052B4"/>
<path d="M8.97607 9.00003H9.00016C9.00016 8.99195 9.00016 8.98407 9.00016 8.97595C8.99214 8.984 8.98413 8.99202 8.97607 9.00003Z" fill="#F0F0F0"/>
<path d="M9 4.69564C9 3.11203 9 2.07439 9 0H8.99849C4.02863 0.00084375 0 4.02993 0 9H4.69564V6.35586L7.33982 9H8.97595C8.98397 8.99198 8.99202 8.98397 9.00004 8.97592C9.00004 8.36958 9.00004 7.82856 9.00004 7.33985L6.35583 4.69564H9Z" fill="#F0F0F0"/>
<path d="M4.55319 1.17395C3.14557 1.97548 1.97536 3.14569 1.17383 4.55331V9.00005H3.52167V3.52186V3.52179H8.99993C8.99993 2.78129 8.99993 2.07585 8.99993 1.17395H4.55319Z" fill="#D80027"/>
<path d="M9.00012 7.89325L5.80255 4.69568C5.80255 4.69568 4.6958 4.69575 4.6958 4.69568V4.69575L9.00009 9H9.00012C9.00012 9 9.00012 8.23686 9.00012 7.89325Z" fill="#D80027"/>
<path d="M15.5856 6.67834L15.7799 7.27621H16.4085L15.8999 7.6457L16.0942 8.24354L15.5856 7.87408L15.077 8.24354L15.2713 7.6457L14.7627 7.27621H15.3913L15.5856 6.67834Z" fill="#D80027"/>
<path d="M13.3388 10.9827L13.6302 11.8795H14.5732L13.8103 12.4337L14.1017 13.3305L13.3388 12.7763L12.5759 13.3305L12.8674 12.4337L12.1045 11.8795H13.0474L13.3388 10.9827Z" fill="#D80027"/>
<path d="M13.4236 3.93921L13.6664 4.6866H14.4522L13.8165 5.14837L14.0593 5.89572L13.4236 5.43381L12.7879 5.89572L13.0307 5.14837L12.395 4.6866H13.1808L13.4236 3.93921Z" fill="#D80027"/>
<path d="M11.2612 6.65222L11.5526 7.54906H12.4955L11.7326 8.10326L12.0241 9.00006L11.2612 8.44582L10.4983 9.00006L10.7897 8.10326L10.0269 7.54906H10.9698L11.2612 6.65222Z" fill="#D80027"/>
</g>
<defs>
<clipPath id="clip0_8201_10999">
<rect width="18" height="18" fill="white"/>
</clipPath>
</defs>
</svg>
