<svg width="18" height="18" viewBox="0 0 18 18" fill="none" xmlns="http://www.w3.org/2000/svg">
<g clip-path="url(#clip0_14_1246)">
<path fill-rule="evenodd" clip-rule="evenodd" d="M0 0H18V18H0V0Z" fill="#00247D"/>
<path d="M13.9357 5.44676V5.93011L14.9024 5.44676H13.9357Z" fill="white"/>
<path d="M14.129 6.02678L13.9357 5.6401L14.9024 5.44676L14.129 6.02678Z" fill="white"/>
<path d="M13.9357 5.44676V5.93011L12.969 5.44676H13.9357Z" fill="white"/>
<path d="M13.7423 6.02678L13.9357 5.6401L12.969 5.44676L13.7423 6.02678Z" fill="white"/>
<path d="M14.1949 5.64714L13.7517 5.81014L14.5101 6.55288L14.1949 5.64714Z" fill="white"/>
<path d="M13.7231 6.02325L14.0154 5.7123L14.5101 6.55027L13.7231 6.02325Z" fill="white"/>
<path d="M13.6598 5.63351L14.103 5.79652L13.9749 4.72778L13.6598 5.63351Z" fill="white"/>
<path d="M14.2566 5.64576L13.8376 5.69606L13.9767 4.72777L14.2566 5.64576Z" fill="white"/>
<path d="M13.6764 5.64714L14.1196 5.81014L13.3612 6.55288L13.6764 5.64714Z" fill="white"/>
<path d="M14.1482 6.02325L13.8559 5.7123L13.3612 6.55027L14.1482 6.02325Z" fill="white"/>
<path d="M13.9357 5.54512V5.86451L14.5745 5.54512H13.9357Z" fill="#CC142B"/>
<path d="M14.0634 5.92839L13.9357 5.67288L14.5745 5.54512L14.0634 5.92839Z" fill="#CC142B"/>
<path d="M13.9357 5.54512V5.86451L13.2969 5.54512H13.9357Z" fill="#CC142B"/>
<path d="M13.8079 5.92839L13.9357 5.67288L13.2969 5.54512L13.8079 5.92839Z" fill="#CC142B"/>
<path d="M14.1071 5.67754L13.8142 5.78525L14.3153 6.27604L14.1071 5.67754Z" fill="#CC142B"/>
<path d="M13.7952 5.92606L13.9883 5.72059L14.3152 6.27432L13.7952 5.92606Z" fill="#CC142B"/>
<path d="M13.7534 5.66852L14.0463 5.77623L13.9617 5.07001L13.7534 5.66852Z" fill="#CC142B"/>
<path d="M14.1478 5.67662L13.8709 5.70987L13.9628 5.07003L14.1478 5.67662Z" fill="#CC142B"/>
<path d="M13.7642 5.67754L14.0571 5.78525L13.5559 6.27604L13.7642 5.67754Z" fill="#CC142B"/>
<path d="M14.076 5.92606L13.8829 5.72059L13.556 6.27432L14.076 5.92606Z" fill="#CC142B"/>
<path d="M16.4681 7.74573L16.5048 8.1088L17.2917 7.67869L16.4681 7.74573Z" fill="white"/>
<path d="M16.6776 8.18015L16.4837 7.89964L17.2816 7.67869L16.6776 8.18015Z" fill="white"/>
<path d="M16.4314 7.6787L16.4681 8.04177L15.6079 7.74573L16.4314 7.6787Z" fill="white"/>
<path d="M16.3053 8.13615L16.4369 7.82629L15.6078 7.75205L16.3053 8.13615Z" fill="white"/>
<path d="M16.6625 7.85701L16.3045 8.03754L16.9794 8.62752L16.6625 7.85701Z" fill="white"/>
<path d="M16.2868 8.22379L16.5134 7.92837L16.9794 8.62055L16.2868 8.22379Z" fill="white"/>
<path d="M16.2227 7.89357L16.6827 7.98992L16.4375 7.03888L16.2227 7.89357Z" fill="white"/>
<path d="M16.8095 7.84435L16.4041 7.93861L16.4349 7.03888L16.8095 7.84435Z" fill="white"/>
<path d="M16.1718 7.85701L16.6318 7.95336L15.9569 8.7117L16.1718 7.85701Z" fill="white"/>
<path d="M16.6712 8.14601L16.3507 7.89596L15.9569 8.71778L16.6712 8.14601Z" fill="white"/>
<path d="M16.4683 7.81853L16.491 8.0432L16.9779 7.77704L16.4683 7.81853Z" fill="#CC142B"/>
<path d="M16.5979 8.08737L16.4779 7.91378L16.9716 7.77706L16.5979 8.08737Z" fill="#CC142B"/>
<path d="M16.4456 7.77705L16.4683 8.00173L15.9359 7.81854L16.4456 7.77705Z" fill="#CC142B"/>
<path d="M16.3676 8.06013L16.449 7.86839L15.936 7.82245L16.3676 8.06013Z" fill="#CC142B"/>
<path d="M16.5885 7.88739L16.367 7.9991L16.7846 8.36419L16.5885 7.88739Z" fill="#CC142B"/>
<path d="M16.356 8.11436L16.4962 7.93155L16.7846 8.35988L16.356 8.11436Z" fill="#CC142B"/>
<path d="M16.3163 7.91002L16.601 7.96964L16.4492 7.38113L16.3163 7.91002Z" fill="#CC142B"/>
<path d="M16.6795 7.87956L16.4286 7.93789L16.4476 7.38113L16.6795 7.87956Z" fill="#CC142B"/>
<path d="M16.2848 7.88741L16.5695 7.94703L16.1519 8.4163L16.2848 7.88741Z" fill="#CC142B"/>
<path d="M16.5938 8.06624L16.3955 7.91151L16.1519 8.42006L16.5938 8.06624Z" fill="#CC142B"/>
<path d="M10.985 8.49365L11.0262 8.90166L11.9105 8.41832L10.985 8.49365Z" fill="white"/>
<path d="M11.2204 8.98184L11.0025 8.66661L11.8991 8.41831L11.2204 8.98184Z" fill="white"/>
<path d="M10.9438 8.41832L10.9851 8.82633L10.0184 8.49365L10.9438 8.41832Z" fill="white"/>
<path d="M10.8022 8.93239L10.95 8.58418L10.0184 8.50075L10.8022 8.93239Z" fill="white"/>
<path d="M11.2035 8.6187L10.8012 8.82157L11.5596 9.48456L11.2035 8.6187Z" fill="white"/>
<path d="M10.7813 9.03088L11.036 8.69889L11.5596 9.47674L10.7813 9.03088Z" fill="white"/>
<path d="M10.7092 8.65979L11.2262 8.76806L10.9506 7.69932L10.7092 8.65979Z" fill="white"/>
<path d="M11.3688 8.60447L10.9132 8.71039L10.9478 7.69932L11.3688 8.60447Z" fill="white"/>
<path d="M10.6519 8.61871L11.1689 8.72698L10.4104 9.57918L10.6519 8.61871Z" fill="white"/>
<path d="M11.213 8.94348L10.8529 8.66248L10.4104 9.58602L11.213 8.94348Z" fill="white"/>
<path d="M10.985 8.56647L11.0122 8.83608L11.5965 8.51669L10.985 8.56647Z" fill="#CC142B"/>
<path d="M11.1405 8.88907L10.9966 8.68077L11.589 8.5167L11.1405 8.88907Z" fill="#CC142B"/>
<path d="M10.9576 8.51668L10.9849 8.78629L10.3461 8.56646L10.9576 8.51668Z" fill="#CC142B"/>
<path d="M10.8641 8.85637L10.9618 8.62628L10.3461 8.57115L10.8641 8.85637Z" fill="#CC142B"/>
<path d="M11.1293 8.64911L10.8634 8.78317L11.3646 9.22127L11.1293 8.64911Z" fill="#CC142B"/>
<path d="M10.8502 8.92147L11.0185 8.7021L11.3645 9.2161L10.8502 8.92147Z" fill="#CC142B"/>
<path d="M10.8027 8.67625L11.1444 8.7478L10.9623 8.04158L10.8027 8.67625Z" fill="#CC142B"/>
<path d="M11.2385 8.6397L10.9375 8.70969L10.9604 8.04158L11.2385 8.6397Z" fill="#CC142B"/>
<path d="M10.7649 8.64911L11.1065 8.72065L10.6054 9.28378L10.7649 8.64911Z" fill="#CC142B"/>
<path d="M11.1357 8.86371L10.8977 8.67803L10.6053 9.2883L11.1357 8.86371Z" fill="#CC142B"/>
<path d="M13.9357 13.0802V13.6168L15.0088 13.0802H13.9357Z" fill="white"/>
<path d="M14.1503 13.7241L13.9357 13.2948L15.0088 13.0802L14.1503 13.7241Z" fill="white"/>
<path d="M13.9357 13.0802V13.6168L12.8625 13.0802H13.9357Z" fill="white"/>
<path d="M13.721 13.7241L13.9357 13.2948L12.8625 13.0802L13.721 13.7241Z" fill="white"/>
<path d="M14.2236 13.3027L13.7316 13.4836L14.5735 14.3082L14.2236 13.3027Z" fill="white"/>
<path d="M13.6998 13.7202L14.0243 13.375L14.5735 14.3053L13.6998 13.7202Z" fill="white"/>
<path d="M13.6295 13.2875L14.1216 13.4685L13.9794 12.282L13.6295 13.2875Z" fill="white"/>
<path d="M14.2921 13.3011L13.8269 13.357L13.9813 12.282L14.2921 13.3011Z" fill="white"/>
<path d="M13.6477 13.3027L14.1398 13.4836L13.2978 14.3082L13.6477 13.3027Z" fill="white"/>
<path d="M14.1715 13.7202L13.8471 13.375L13.2979 14.3053L14.1715 13.7202Z" fill="white"/>
<path d="M13.9357 13.1786V13.5512L14.6809 13.1786H13.9357Z" fill="#CC142B"/>
<path d="M14.0847 13.6257L13.9357 13.3276L14.6809 13.1786L14.0847 13.6257Z" fill="#CC142B"/>
<path d="M13.9357 13.1786V13.5512L13.1904 13.1786H13.9357Z" fill="#CC142B"/>
<path d="M13.7866 13.6257L13.9357 13.3276L13.1904 13.1786L13.7866 13.6257Z" fill="#CC142B"/>
<path d="M14.1356 13.3331L13.7939 13.4587L14.3786 14.0313L14.1356 13.3331Z" fill="#CC142B"/>
<path d="M13.7719 13.623L13.9972 13.3833L14.3786 14.0293L13.7719 13.623Z" fill="#CC142B"/>
<path d="M13.723 13.3226L14.0647 13.4482L13.966 12.6243L13.723 13.3226Z" fill="#CC142B"/>
<path d="M14.1831 13.332L13.8601 13.3708L13.9673 12.6243L14.1831 13.332Z" fill="#CC142B"/>
<path d="M13.7357 13.3331L14.0774 13.4587L13.4928 14.0313L13.7357 13.3331Z" fill="#CC142B"/>
<path d="M14.0995 13.623L13.8741 13.3833L13.4928 14.0293L14.0995 13.623Z" fill="#CC142B"/>
<path d="M0 0H9V9H0V0Z" fill="#012169"/>
<path d="M9 0V1.125L5.66016 4.5L9 7.78711V9H7.82227L4.46484 5.69531L1.19531 9H0V7.80469L3.26953 4.51758L0 1.30078V0H1.08984L4.46484 3.30469L7.73438 0H9Z" fill="white"/>
<path d="M3.23438 5.69531L3.42773 6.29297L0.738281 9H0V8.94727L3.23438 5.69531ZM5.41406 5.48438L6.36328 5.625L9 8.20898V9L5.41406 5.48438ZM9 0L5.625 3.44531L5.55469 2.67188L8.19141 0H9ZM0 0.0175781L3.39258 3.33984L2.35547 3.19922L0 0.861328V0.0175781Z" fill="#C8102E"/>
<path d="M3.09375 0V9H5.90625V0H3.09375ZM0 3.09375V5.90625H9V3.09375H0Z" fill="white"/>
<path d="M0 3.65625V5.34375H9V3.65625H0ZM3.65625 0V9H5.34375V0H3.65625Z" fill="#C8102E"/>
</g>
<defs>
<clipPath id="clip0_14_1246">
<rect width="18" height="18" rx="9" fill="white"/>
</clipPath>
</defs>
</svg>
