<svg width="18" height="18" viewBox="0 0 18 18" fill="none" xmlns="http://www.w3.org/2000/svg">
<g clip-path="url(#clip0_14_1311)">
<mask id="mask0_14_1311" style="mask-type:luminance" maskUnits="userSpaceOnUse" x="0" y="0" width="18" height="18">
<path d="M0.000488281 0H17.9977V17.9972H0.000488281V0Z" fill="white"/>
</mask>
<g mask="url(#mask0_14_1311)">
<path fill-rule="evenodd" clip-rule="evenodd" d="M-2.93498 0L-2.95312 17.9972H20.9585L-2.93498 0Z" fill="black"/>
<path fill-rule="evenodd" clip-rule="evenodd" d="M20.9404 17.9972L20.9585 0H-2.95312L20.9404 17.9972Z" fill="#FF0000"/>
<path d="M11.8112 4.47753L11.4919 4.46302C11.3939 4.2308 11.1182 4.14371 10.9476 4.24531C10.7952 4.2562 9.98607 4.2308 9.98607 4.2308L10.5775 4.48842C10.7227 4.88392 11.2306 4.97826 11.2306 4.97826C11.1871 5.70396 10.4941 4.88392 9.9135 5.29757C9.49986 5.54793 9.4926 5.84184 9.26763 6.32443C9.15781 6.49107 9.03657 6.64989 8.90479 6.79976L9.39463 6.76347L9.23861 6.96667L9.81916 6.88321C9.81916 6.88321 9.74296 6.94853 9.69579 6.99933C9.78288 7.01747 10.3598 6.86507 10.3598 6.86507L10.3199 7.05012C10.6138 6.93038 10.9803 6.81064 10.9803 6.81064C10.9803 6.81064 11.1109 6.9195 11.2306 6.96667L11.3141 6.63648L11.6443 6.71993L11.7277 6.38611C12.2248 7.05012 12.3918 7.71413 13.3025 7.88104L13.219 7.54723C13.473 7.65608 13.9447 7.8883 13.9447 7.8883L14.0173 7.73591C14.4128 8.01893 14.743 8.0153 14.9607 8.04433L14.7974 7.63068L14.9643 7.71414L14.714 7.05012L14.9643 7.13358L14.6305 6.63648L14.7539 6.55302L14.7176 6.30266C15.2111 6.46957 15.8787 6.71993 15.9585 7.30049C16.042 8.21124 15.0442 8.4616 14.3838 8.37815C14.8809 8.79179 15.7916 8.62488 16.2089 8.21124C16.3663 8.0168 16.4791 7.7901 16.5391 7.54723C16.6226 7.79759 16.7895 8.12778 16.7895 8.4616C16.706 9.20544 15.7082 9.4558 15.0478 9.53926C15.7916 9.95291 17.1197 9.4558 17.2031 8.37815C17.2031 7.46377 16.6226 7.05012 16.3722 6.63648C16.3403 6.48849 16.3125 6.33967 16.2887 6.19018C16.325 6.19743 16.5391 6.30629 16.5391 6.30629C16.5391 6.30629 16.394 6.03052 16.3722 5.97247C16.3722 5.97247 16.1146 5.26854 16.0202 5.11252C16.0347 5.10163 16.2089 5.14155 16.2089 5.14155L15.5268 4.28885L15.7191 4.26708C15.7191 4.26708 14.9353 3.64661 14.7176 3.56679L14.968 3.48333C14.4672 3.2366 13.8867 3.39988 13.3896 3.7337L13.473 3.48333L13.3206 3.49785V3.21482L13.473 2.98623L13.2263 2.90278L13.3896 2.48913L13.1428 2.57258L13.2263 2.15531C13.2263 2.15531 13.0376 2.24239 12.9251 2.22788C12.9288 2.23876 13.0594 1.94849 13.0594 1.94849C12.9796 1.82512 13.0594 1.57475 13.0594 1.57475C12.4788 1.65821 12.3954 1.74166 12.0652 2.23876C11.5645 3.15314 11.7314 3.56679 11.8148 4.47753H11.8112Z" fill="#FFCC00" stroke="#FFCC00" stroke-width="0.148364"/>
<path fill-rule="evenodd" clip-rule="evenodd" d="M14.9461 5.84184C14.9897 5.91441 15.4577 6.13938 15.8133 6.34257C15.719 5.95795 15.026 5.8745 14.9425 5.84184H14.9461Z" fill="#FF0000" stroke="#FF0000" stroke-width="0.193519"/>
<path fill-rule="evenodd" clip-rule="evenodd" d="M3.5418 14.9638L3.01204 14.6264L2.30449 14.9675L2.46414 14.3615L1.91987 13.7918L2.54759 13.7556L2.92133 13.0661L3.14992 13.6467L3.91916 13.7882L3.43657 14.1873L3.5418 14.9638ZM4.89522 12.003L4.64848 11.8869L4.41626 12.0211L4.45254 11.7526L4.24935 11.5712L4.51786 11.5204L4.62671 11.2737L4.75734 11.5132L5.02584 11.5422L4.83716 11.7381L4.89522 12.003ZM6.08899 10.3049L5.55197 10.0436L5.02947 10.3339L5.11293 9.74609L4.67388 9.3397L5.26169 9.23811L5.50843 8.69384L5.79145 9.22359L6.38289 9.28891L5.97288 9.72432L6.08899 10.3049ZM3.63251 7.94637L3.00115 7.62706L2.38431 7.96814L2.48591 7.27147L1.97067 6.78526L2.66733 6.67277L2.9685 6.03053L3.29506 6.65826L3.99536 6.74534L3.49826 7.25333L3.63251 7.94637ZM1.36471 10.3956L0.726099 10.0182L0.0911154 10.4065L0.254397 9.68078L-0.311646 9.19819L0.428564 9.12562L0.715213 8.43984L1.00549 9.12199L1.74933 9.18368L1.19417 9.67352L1.36471 10.3956Z" fill="white"/>
</g>
</g>
<defs>
<clipPath id="clip0_14_1311">
<rect width="18" height="18" rx="9" fill="white"/>
</clipPath>
</defs>
</svg>
