<svg width="18" height="18" viewBox="0 0 18 18" fill="none" xmlns="http://www.w3.org/2000/svg">
<g clip-path="url(#clip0_8201_11147)">
<path d="M9 18C13.9706 18 18 13.9706 18 9C18 4.02944 13.9706 0 9 0C4.02944 0 0 4.02944 0 9C0 13.9706 4.02944 18 9 18Z" fill="#F0F0F0"/>
<path d="M9.00021 0V9L2.63623 15.364C4.26491 16.9926 6.51491 18 9.00021 18C13.9707 18 18.0002 13.9705 18.0002 9C18.0002 4.02947 9.00021 0 9.00021 0Z" fill="#D80027"/>
<path d="M9.00021 0C6.51491 0 4.26491 1.00737 2.63623 2.63602C4.84439 4.84418 5.62827 5.62809 9.00021 9H18.0002C18.0002 4.02947 13.9707 0 9.00021 0Z" fill="#0052B4"/>
<path d="M6.16268 8.99996L5.06355 8.48295L5.64887 7.41845L4.45531 7.64679L4.30407 6.44104L3.4727 7.32782L2.64136 6.44104L2.49008 7.64679L1.29656 7.41842L1.88188 8.48295L0.782715 8.99996L1.88188 9.51697L1.29656 10.5815L2.49018 10.3532L2.64132 11.5589L3.4727 10.6721L4.30407 11.5589L4.45531 10.3532L5.6488 10.5815L5.06352 9.517L6.16268 8.99996Z" fill="#FFDA44"/>
<path d="M2.40037 3.52173L2.76614 4.03301L3.36538 3.8432L2.99209 4.34903L3.35785 4.8603L2.76139 4.66163L2.38814 5.16743L2.39281 4.53883L1.79639 4.34013L2.39573 4.15032L2.40037 3.52173Z" fill="#FFDA44"/>
<path d="M2.40037 12.8325L2.76614 13.3438L3.36538 13.154L2.99209 13.6598L3.35785 14.1711L2.76139 13.9724L2.38814 14.4782L2.39281 13.8496L1.79639 13.6509L2.39573 13.4611L2.40037 12.8325Z" fill="#FFDA44"/>
<path d="M7.61735 8.17712L7.25162 8.6884L6.65234 8.49852L7.02563 9.00439L6.65987 9.5157L7.25633 9.317L7.62962 9.82279L7.62491 9.19423L8.22133 8.99553L7.62202 8.80572L7.61735 8.17712Z" fill="#FFDA44"/>
</g>
<defs>
<clipPath id="clip0_8201_11147">
<rect width="18" height="18" fill="white"/>
</clipPath>
</defs>
</svg>
