<svg width="18" height="18" viewBox="0 0 18 18" fill="none" xmlns="http://www.w3.org/2000/svg">
<g clip-path="url(#clip0_8201_11104)">
<path d="M9 18C13.9706 18 18 13.9706 18 9C18 4.02944 13.9706 0 9 0C4.02944 0 0 4.02944 0 9C0 13.9706 4.02944 18 9 18Z" fill="#F0F0F0"/>
<path d="M0 9.00005C0 12.4114 1.89805 15.3793 4.69564 16.9057V1.09436C1.89805 2.62081 0 5.58867 0 9.00005Z" fill="#F0F0F0"/>
<path d="M9.00016 0C7.44098 0 5.97447 0.396668 4.6958 1.09431V16.9057C5.97447 17.6033 7.44098 18 9.00016 18C13.9707 18 18.0002 13.9705 18.0002 9C18.0002 4.02947 13.9707 0 9.00016 0Z" fill="#496E2D"/>
<path d="M12.8478 10.4885C11.7092 11.3112 10.1192 11.0551 9.29654 9.91651C8.47381 8.77787 8.72993 7.18793 9.86853 6.36527C10.2235 6.10877 10.6224 5.95715 11.0282 5.90445C10.2475 5.78769 9.42222 5.96361 8.73186 6.46245C7.33053 7.47502 7.01528 9.43185 8.02782 10.8332C9.04036 12.2345 10.9972 12.5498 12.3986 11.5372C13.0891 11.0383 13.5152 10.3102 13.6494 9.53218C13.472 9.90083 13.2028 10.2319 12.8478 10.4885Z" fill="#F0F0F0"/>
<path d="M12.7992 5.86963L13.4406 6.56084L14.2961 6.16455L13.8369 6.98805L14.4782 7.67933L13.5531 7.49705L13.0939 8.32062L12.9813 7.38441L12.0562 7.20212L12.9118 6.80584L12.7992 5.86963Z" fill="#F0F0F0"/>
</g>
<defs>
<clipPath id="clip0_8201_11104">
<rect width="18" height="18" fill="white"/>
</clipPath>
</defs>
</svg>
