<svg width="18" height="18" viewBox="0 0 18 18" fill="none" xmlns="http://www.w3.org/2000/svg">
<g clip-path="url(#clip0_8201_11156)">
<path d="M18 9C18 13.9705 13.9705 18 9 18C4.02947 18 0 13.9705 0 9C0 9.00214 9 0.000984375 9 0C13.9705 0 18 4.02947 18 9Z" fill="#0052B4"/>
<path d="M8.97607 9.00003H9.00016C9.00016 8.99195 9.00016 8.98407 9.00016 8.97595C8.99214 8.984 8.98413 8.99202 8.97607 9.00003Z" fill="#F0F0F0"/>
<path d="M9 4.69564C9 3.11203 9 2.07439 9 0H8.99849C4.02859 0.00084375 0 4.02993 0 9H4.69564V6.35586L7.33978 9H8.97595C8.98397 8.99198 8.99198 8.98397 9.00004 8.97592C9.00004 8.36958 9.00004 7.82856 9.00004 7.33985L6.35583 4.69564H9Z" fill="#F0F0F0"/>
<path d="M4.55319 1.17395C3.14557 1.97548 1.97532 3.14569 1.17383 4.55331V9.00005H3.52167V3.52186V3.52179H8.99993C8.99993 2.78129 8.99993 2.07585 8.99993 1.17395H4.55319Z" fill="#D80027"/>
<path d="M9.00016 7.89325L5.80252 4.69568H4.6958V4.69575L9.00009 9H9.00016C9.00016 9 9.00016 8.23686 9.00016 7.89325Z" fill="#D80027"/>
<path d="M14.0868 5.47824L12.9128 5.86957L11.7389 5.47824L11.3477 4.49999L11.7389 3.52173H14.0868L13.6955 4.49999L14.0868 5.47824Z" fill="#ACABB1"/>
<path d="M10.1738 5.47827V9.78259C10.1738 11.8793 12.913 12.5218 12.913 12.5218C12.913 12.5218 15.6521 11.8793 15.6521 9.78259V5.47827H10.1738Z" fill="#338AF3"/>
<path d="M10.4209 10.8023C11.0942 12.095 12.9131 12.5218 12.9131 12.5218C12.9131 12.5218 14.732 12.095 15.4054 10.8023L12.9131 6.65222L10.4209 10.8023Z" fill="#6DA544"/>
<path d="M15.6521 9.7391L12.913 5.47827L10.1738 9.73914V9.78259C10.1738 10.1706 10.2678 10.5088 10.4207 10.8023L12.913 6.92548L15.4052 10.8023C15.5581 10.5087 15.6521 10.1706 15.6521 9.78256V9.7391Z" fill="#FFDA44"/>
</g>
<defs>
<clipPath id="clip0_8201_11156">
<rect width="18" height="18" fill="white"/>
</clipPath>
</defs>
</svg>
