<svg width="18" height="18" viewBox="0 0 18 18" fill="none" xmlns="http://www.w3.org/2000/svg">
<g clip-path="url(#clip0_14_1170)">
<path d="M0 11.9883H18V18H0V11.9883Z" fill="#0038A8"/>
<path d="M0 6.00116H18V11.9988H0V6.00116Z" fill="white"/>
<path d="M0 0H18V6.00117H0V0Z" fill="#D52B1E"/>
<path d="M9.01594 11.3019C10.2872 11.3019 11.3178 10.2713 11.3178 9.00004C11.3178 7.72877 10.2872 6.69821 9.01594 6.69821C7.74467 6.69821 6.71411 7.72877 6.71411 9.00004C6.71411 10.2713 7.74467 11.3019 9.01594 11.3019Z" stroke="black" stroke-width="0.106667"/>
<path d="M9.01602 10.8928C10.0614 10.8928 10.9088 10.0454 10.9088 9.00003C10.9088 7.95471 10.0614 7.1073 9.01602 7.1073C7.9707 7.1073 7.12329 7.95471 7.12329 9.00003C7.12329 10.0454 7.9707 10.8928 9.01602 10.8928Z" stroke="black" stroke-width="0.048485"/>
<path d="M9.01586 10.451C9.81717 10.451 10.4668 9.80136 10.4668 9.00005C10.4668 8.19873 9.81717 7.54913 9.01586 7.54913C8.21454 7.54913 7.56494 8.19873 7.56494 9.00005C7.56494 9.80136 8.21454 10.451 9.01586 10.451Z" stroke="black" stroke-width="0.038788"/>
<path d="M7.79067 9.88946L7.52349 10.0477L7.44263 9.90704C7.43045 9.88856 7.42098 9.86844 7.4145 9.84728C7.41163 9.83169 7.4141 9.81558 7.42153 9.80157C7.42856 9.784 7.43911 9.77345 7.45669 9.7629C7.46921 9.75496 7.48359 9.75045 7.49841 9.74983C7.51322 9.74921 7.52793 9.75251 7.54106 9.75939L7.56919 9.78048C7.56812 9.77231 7.56812 9.76404 7.56919 9.75587L7.5727 9.73478L7.58325 9.71017L7.63599 9.62579L7.69224 9.7172L7.63599 9.81212C7.63049 9.82063 7.62689 9.83022 7.62544 9.84025C7.62461 9.84747 7.62582 9.85478 7.62896 9.86134L7.63599 9.86837L7.74146 9.80509L7.79067 9.88946ZM7.58325 9.90001L7.56216 9.86486C7.55798 9.8575 7.55328 9.85045 7.5481 9.84376C7.54578 9.84149 7.54303 9.8397 7.54001 9.83849C7.53699 9.83728 7.53377 9.83668 7.53052 9.83673C7.52443 9.83595 7.51826 9.83719 7.51294 9.84025C7.50239 9.84728 7.49888 9.85079 7.49536 9.86134L7.50942 9.8965L7.53052 9.93165L7.58325 9.90001ZM7.33364 9.69259L7.25278 9.4465L7.31606 9.42892L7.36528 9.58009L7.41099 9.56603L7.36528 9.4254L7.42505 9.40431L7.47075 9.54493L7.53052 9.52736L7.47778 9.36915L7.5481 9.34806L7.62896 9.59415L7.33364 9.69259ZM7.22817 9.33048L7.20708 9.17228C7.20708 9.13712 7.20708 9.109 7.22466 9.09142C7.23872 9.07384 7.25981 9.05978 7.29145 9.05626C7.3231 9.05626 7.34771 9.05978 7.3688 9.07736C7.38638 9.09493 7.40044 9.12306 7.40396 9.16173L7.41099 9.21095L7.52349 9.2004L7.53403 9.29532L7.22817 9.33048ZM7.34771 9.2215L7.34419 9.19689C7.34419 9.17931 7.33716 9.16525 7.33013 9.16173C7.32705 9.15828 7.32324 9.15555 7.31899 9.15373C7.31474 9.1519 7.31014 9.15104 7.30552 9.15118C7.29624 9.15132 7.2874 9.15511 7.28091 9.16173C7.27388 9.16876 7.27388 9.18283 7.27388 9.2004L7.27739 9.22853L7.34771 9.2215ZM7.21763 8.74689L7.22817 8.65197L7.41099 8.67306C7.42856 8.67306 7.44614 8.68009 7.46021 8.68712C7.47778 8.69415 7.49185 8.7047 7.50239 8.71876L7.52349 8.76095C7.52885 8.78289 7.52885 8.8058 7.52349 8.82775C7.52349 8.84181 7.52349 8.85939 7.51646 8.87697C7.51646 8.89454 7.50942 8.90861 7.49888 8.91915L7.47075 8.94728C7.45929 8.95588 7.4461 8.96188 7.43208 8.96486C7.41099 8.96837 7.39692 8.97189 7.37935 8.96837L7.19653 8.94728L7.20708 8.85236L7.39341 8.87345C7.41099 8.87345 7.42505 8.87345 7.4356 8.8629C7.44614 8.85587 7.44966 8.84181 7.45317 8.82775C7.45452 8.82037 7.45427 8.81279 7.45245 8.80551C7.45063 8.79824 7.44728 8.79144 7.44263 8.78556C7.4356 8.77501 7.42153 8.7715 7.40747 8.76798L7.21763 8.74689ZM7.2563 8.52189L7.31606 8.34962C7.32661 8.3215 7.34067 8.30392 7.36177 8.29337C7.37086 8.28842 7.38093 8.28554 7.39126 8.28493C7.40159 8.28433 7.41193 8.28601 7.42153 8.28986C7.43569 8.29511 7.44778 8.30479 7.45601 8.31745C7.46425 8.33012 7.46818 8.34509 7.46724 8.36017C7.4813 8.33907 7.49536 8.32501 7.50942 8.32501C7.52634 8.31817 7.54525 8.31817 7.56216 8.32501C7.57628 8.32967 7.58892 8.33797 7.5988 8.34909C7.60867 8.3602 7.61544 8.37372 7.61841 8.38829V8.42345L7.60435 8.46564L7.55161 8.62384L7.2563 8.52189ZM7.40396 8.46915L7.41802 8.43048C7.42505 8.41642 7.42505 8.40587 7.42153 8.39532C7.42153 8.39181 7.4145 8.38478 7.40396 8.38126C7.40012 8.3794 7.39591 8.37843 7.39165 8.37843C7.38739 8.37843 7.38318 8.3794 7.37935 8.38126L7.36177 8.40939L7.34771 8.45157L7.40396 8.46915ZM7.51997 8.51134L7.53755 8.46212V8.42697C7.53616 8.42288 7.53386 8.41918 7.53081 8.41613C7.52776 8.41308 7.52405 8.41077 7.51997 8.40939C7.51614 8.40752 7.51193 8.40655 7.50767 8.40655C7.5034 8.40655 7.4992 8.40752 7.49536 8.40939C7.48833 8.41642 7.4813 8.42697 7.47778 8.44454L7.46021 8.49025L7.51997 8.51134ZM7.40396 8.14923L7.45317 8.06486L7.65356 8.18439L7.73091 8.05782L7.79771 8.0965L7.67114 8.30743L7.40396 8.14923ZM7.5938 7.86447L7.65356 7.79064L7.89263 7.98751L7.82935 8.06134L7.5938 7.86447ZM8.00864 7.70275L8.0895 7.66759C8.10005 7.68868 8.10708 7.70978 8.10708 7.73087C8.10832 7.75021 8.10469 7.76955 8.09653 7.78712C8.08601 7.80726 8.07168 7.82517 8.05435 7.83986C8.03407 7.85861 8.01013 7.87298 7.98403 7.88204C7.95942 7.88907 7.93481 7.88907 7.90669 7.88204C7.87449 7.87042 7.84639 7.84965 7.82583 7.82228C7.79067 7.78712 7.77661 7.74493 7.78013 7.70626C7.78013 7.66759 7.80122 7.63243 7.83989 7.60079C7.86307 7.57848 7.89251 7.56376 7.92427 7.55861C7.95509 7.55577 7.98598 7.56319 8.01216 7.5797L7.95942 7.65001C7.95304 7.64533 7.94591 7.64177 7.93833 7.63947C7.93023 7.63765 7.92182 7.63765 7.91372 7.63947C7.90445 7.64198 7.89598 7.64682 7.88911 7.65353C7.87153 7.66759 7.8645 7.68517 7.86802 7.70626C7.86802 7.72032 7.87856 7.74142 7.89966 7.759C7.92075 7.78712 7.94185 7.80118 7.95591 7.8047C7.97349 7.8047 7.98755 7.8047 8.00161 7.79064C8.01567 7.77657 8.02271 7.76603 8.02271 7.75197C8.02271 7.7379 8.01919 7.72032 8.00864 7.70275ZM8.33911 7.58322L8.24419 7.63595L8.25474 7.68868L8.16685 7.73439L8.12466 7.40392L8.21606 7.3547L8.46567 7.57618L8.37778 7.62189L8.33911 7.58322ZM8.28989 7.534L8.20903 7.45314L8.23013 7.56564L8.28989 7.534ZM8.58521 7.21759L8.72583 7.19298C8.74901 7.18804 8.77297 7.18804 8.79614 7.19298C8.81372 7.1965 8.82778 7.20353 8.84185 7.21759C8.85591 7.22814 8.86646 7.2422 8.877 7.25978L8.89106 7.31954C8.8981 7.3547 8.8981 7.37931 8.89106 7.39689C8.88812 7.41584 8.88091 7.43387 8.86997 7.44962C8.86089 7.46278 8.84885 7.47362 8.83481 7.48126L8.77856 7.49884L8.63794 7.52345L8.58521 7.21759ZM8.69067 7.27032L8.7188 7.43556H8.74341C8.76099 7.42853 8.77856 7.42501 8.78208 7.41798C8.79263 7.41447 8.79614 7.40392 8.79966 7.39337V7.33712C8.79263 7.30548 8.78208 7.28439 8.77153 7.27384C8.75747 7.26329 8.73638 7.25978 8.71528 7.26681L8.69067 7.27032ZM8.98247 7.16486L9.23911 7.17189V7.2422L9.07739 7.23517L9.07388 7.28439L9.22153 7.2879V7.35118L9.07036 7.34767V7.40743L9.2356 7.41447L9.23208 7.48478L8.96841 7.47423L8.98247 7.16486ZM9.35513 7.19298L9.45005 7.21407L9.3938 7.44259L9.53794 7.47775L9.52036 7.55157L9.2813 7.49532L9.35513 7.19298ZM9.85435 7.35822L9.99146 7.43907C10.0231 7.45665 10.0407 7.47423 10.0477 7.49884C10.0512 7.52345 10.0477 7.54806 10.0336 7.57267C10.0273 7.58499 10.0184 7.59578 10.0075 7.60429C9.99652 7.61279 9.98386 7.6188 9.97036 7.62189C9.94575 7.62892 9.91763 7.62189 9.88247 7.60079L9.83677 7.57618L9.78052 7.67462L9.69614 7.6254L9.85435 7.35822ZM9.87192 7.51993L9.8895 7.534L9.92817 7.54454C9.93247 7.54378 9.93656 7.54214 9.94019 7.53972C9.94382 7.5373 9.94691 7.53415 9.94927 7.53048C9.95237 7.52656 9.95461 7.52203 9.95582 7.51718C9.95703 7.51233 9.95719 7.50727 9.9563 7.50236C9.95278 7.49181 9.94575 7.48478 9.92817 7.47423L9.90708 7.46017L9.87192 7.51993ZM10.1391 7.88204L10.0583 7.80822L10.0125 7.83634L9.94224 7.76603L10.2375 7.62189L10.3149 7.6922L10.1883 7.99806L10.118 7.92775L10.1391 7.88204ZM10.1708 7.81876L10.22 7.71329L10.1215 7.77306L10.1708 7.81876ZM10.2059 8.02618L10.4625 7.8504L10.554 7.98048L10.5891 8.04376L10.5856 8.08947C10.5786 8.10353 10.568 8.11759 10.5504 8.12814C10.5387 8.13853 10.5239 8.14472 10.5083 8.14572C10.4938 8.14688 10.4793 8.14447 10.4661 8.13868C10.4557 8.13312 10.4462 8.12601 10.4379 8.11759V8.16681L10.4274 8.1879L10.3782 8.27579L10.3184 8.1879L10.3676 8.09298L10.3782 8.06486C10.3782 8.05782 10.3782 8.04728 10.3711 8.04025L10.3641 8.03322L10.2586 8.10353L10.2059 8.02618ZM10.4168 8.00157L10.4379 8.03673L10.4555 8.05079C10.4575 8.05371 10.4601 8.05616 10.4632 8.05798C10.4662 8.0598 10.4696 8.06095 10.4731 8.06134C10.4766 8.06134 10.4836 8.06134 10.4907 8.05431C10.4945 8.05214 10.4978 8.0491 10.5002 8.04544C10.5027 8.04177 10.5042 8.03759 10.5047 8.03322L10.4907 7.99806L10.4661 7.9629L10.4168 8.00157ZM10.5118 8.46564L10.4696 8.36368L10.4168 8.3672L10.3817 8.27931L10.7122 8.27228L10.7473 8.3672L10.5047 8.5922L10.4696 8.49728L10.5118 8.46564ZM10.5645 8.42345L10.6559 8.34962L10.5399 8.35665L10.5645 8.42345ZM10.6454 8.76095L10.7086 8.7504L10.7333 8.89806L10.5997 8.91915C10.58 8.89817 10.5634 8.8745 10.5504 8.84884C10.5259 8.79613 10.5197 8.73672 10.5329 8.68009C10.5434 8.65548 10.5575 8.6379 10.5821 8.62032C10.6062 8.60356 10.6339 8.59272 10.6629 8.58868C10.6935 8.5829 10.725 8.58533 10.7543 8.59572C10.7816 8.60576 10.805 8.62423 10.8211 8.64845C10.8317 8.66954 10.8422 8.69415 10.8458 8.72931C10.8498 8.75493 10.8498 8.78103 10.8458 8.80665C10.8438 8.82312 10.8378 8.83885 10.8282 8.85236L10.7825 8.88751L10.7508 8.79611C10.7614 8.79259 10.7684 8.78556 10.7754 8.77501C10.779 8.76447 10.7825 8.7504 10.779 8.73986C10.7784 8.73003 10.7756 8.72046 10.7707 8.71192C10.7658 8.70338 10.759 8.69609 10.7508 8.69064C10.7333 8.68009 10.7086 8.68009 10.6805 8.68361C10.6454 8.68712 10.6208 8.69767 10.6102 8.71173C10.6038 8.71945 10.5992 8.72851 10.5968 8.73825C10.5943 8.74799 10.5941 8.75815 10.5961 8.76798L10.6067 8.79962L10.6278 8.82775H10.6559L10.6454 8.76095ZM10.8493 9.21095L10.8387 9.30587L10.6559 9.29181C10.6388 9.28989 10.6222 9.28513 10.6067 9.27775C10.5903 9.27069 10.5759 9.25985 10.5645 9.24611C10.5548 9.23484 10.5476 9.22167 10.5434 9.20743C10.5379 9.18441 10.5368 9.16058 10.5399 9.13712C10.5399 9.12306 10.5399 9.10548 10.5469 9.0879L10.561 9.04571C10.5693 9.03316 10.5801 9.0224 10.5926 9.01407C10.603 9.00591 10.615 8.99993 10.6278 8.9965C10.6464 8.99365 10.6654 8.99365 10.684 8.9965L10.8668 9.01056L10.8598 9.10548L10.67 9.0879C10.6524 9.0879 10.6383 9.0879 10.6278 9.09845C10.6172 9.109 10.6137 9.11954 10.6102 9.13712C10.6102 9.1547 10.6102 9.16525 10.6208 9.17579C10.6313 9.18634 10.6418 9.19337 10.6594 9.19337L10.8493 9.21095ZM10.5047 9.54142L10.5399 9.43595L10.4977 9.40431L10.5258 9.3129L10.786 9.52032L10.7508 9.61876L10.4204 9.63282L10.4555 9.5379L10.5047 9.54142ZM10.575 9.54142H10.6911L10.5961 9.47814L10.575 9.54142ZM10.6875 9.79454L10.6313 9.88595H10.5118L10.568 9.99142L10.5118 10.0828L10.4204 9.88595L10.3079 9.82267L10.3571 9.73829L10.4696 9.80509L10.6875 9.79454Z" fill="black"/>
<path d="M9.32354 7.92422C9.32354 7.92422 10.1989 8.30391 10.0442 9.08438C9.89307 9.86133 9.40439 9.85782 9.21455 9.94219C9.02119 10.0301 8.89111 10.1531 8.81377 10.1356C8.73994 10.118 8.63799 10.0582 8.63799 10.0582C8.63799 10.0582 8.63096 10.1883 8.78564 10.2094C8.94033 10.234 9.13721 10.009 9.23916 9.98438C9.34111 9.95977 9.92822 9.89297 10.0759 9.10196C10.2446 8.25469 9.32705 7.94883 9.32354 7.92422Z" fill="#009B3A" stroke="black" stroke-width="0.00625"/>
<path d="M9.76287 8.09297C9.76748 8.11781 9.76936 8.13982 9.7682 8.15554C9.76705 8.17125 9.76292 8.17978 9.75648 8.17978C9.75004 8.17978 9.74165 8.17125 9.73263 8.15554C9.7236 8.13982 9.71445 8.11781 9.70662 8.09297C9.70123 8.07586 9.69664 8.05798 9.69321 8.04068C9.68977 8.02338 9.68758 8.00713 9.6868 7.99316C9.68602 7.9792 9.68667 7.9679 9.6887 7.96012C9.69073 7.95235 9.6941 7.9483 9.69853 7.9483C9.70296 7.9483 9.70835 7.95235 9.71427 7.96012C9.7202 7.9679 9.72651 7.9792 9.73272 7.99316C9.73893 8.00713 9.74488 8.02338 9.75011 8.04068C9.75533 8.05798 9.7597 8.07586 9.76287 8.09297ZM9.73475 8.1C9.7435 8.11578 9.75164 8.13242 9.75857 8.14869C9.76551 8.16495 9.77106 8.18045 9.77482 8.19404C9.77858 8.20763 9.78047 8.21897 9.78033 8.22724C9.78019 8.2355 9.77804 8.24049 9.77403 8.24182C9.77002 8.24316 9.76425 8.24082 9.75715 8.23496C9.75004 8.22911 9.74178 8.2199 9.73296 8.20799C9.72415 8.19609 9.715 8.18179 9.70618 8.16615C9.69737 8.15051 9.68911 8.13391 9.68201 8.11758C9.67107 8.0924 9.66343 8.06908 9.66037 8.05155C9.6573 8.03401 9.659 8.02331 9.66519 8.02125C9.67137 8.01919 9.68165 8.02589 9.69432 8.04023C9.70698 8.05457 9.72126 8.07567 9.73475 8.1ZM9.64686 8.15625C9.66224 8.16077 9.67739 8.16603 9.69143 8.17171C9.70547 8.17739 9.71812 8.18339 9.72868 8.18937C9.73923 8.19534 9.74747 8.20117 9.75293 8.20653C9.7584 8.21189 9.76097 8.21666 9.76051 8.22059C9.76004 8.22451 9.75656 8.22751 9.75024 8.2294C9.74393 8.2313 9.73491 8.23205 9.7237 8.23163C9.7125 8.2312 9.69932 8.2296 9.68493 8.22693C9.67054 8.22425 9.65521 8.22054 9.63983 8.21601C9.60875 8.20687 9.57932 8.19496 9.55801 8.18289C9.53669 8.17083 9.52524 8.1596 9.52618 8.15167C9.52711 8.14375 9.54035 8.13978 9.56298 8.14063C9.58561 8.14149 9.61578 8.14711 9.64686 8.15625Z" fill="#009B3A" stroke="black" stroke-width="0.00625"/>
<path d="M9.66097 8.12461C9.67443 8.13368 9.6874 8.1433 9.69913 8.15291C9.71087 8.16253 9.72113 8.17196 9.72935 8.18066C9.73757 8.18936 9.74357 8.19716 9.74701 8.20362C9.75046 8.21007 9.75128 8.21506 9.74944 8.21829C9.74759 8.22152 9.74311 8.22294 9.73625 8.22245C9.72939 8.22196 9.72029 8.21959 9.70946 8.21546C9.69864 8.21133 9.6863 8.20553 9.67315 8.19839C9.66 8.19124 9.64631 8.1829 9.63284 8.17383C9.6173 8.16467 9.60153 8.15422 9.58674 8.14324C9.57194 8.13227 9.5585 8.12107 9.54744 8.1105C9.53638 8.09993 9.52799 8.09027 9.52291 8.08224C9.51783 8.07421 9.51619 8.06804 9.51812 8.06418C9.52005 8.06033 9.52549 8.05889 9.53404 8.05999C9.54258 8.06108 9.55401 8.06468 9.56744 8.07051C9.58087 8.07633 9.59596 8.08423 9.61156 8.09361C9.62715 8.10298 9.64285 8.11358 9.65745 8.12461H9.66097Z" fill="#009B3A" stroke="black" stroke-width="0.00625"/>
<path d="M9.69609 8.11056C9.71106 8.12286 9.72682 8.13764 9.74184 8.15347C9.75687 8.16929 9.77064 8.18562 9.78183 8.20087C9.79301 8.21612 9.80123 8.22978 9.80569 8.24051C9.81014 8.25124 9.81068 8.25868 9.80725 8.26211C9.80382 8.26554 9.79654 8.26484 9.78611 8.26008C9.77568 8.25533 9.76247 8.24667 9.74774 8.23496C9.73302 8.22324 9.71729 8.20887 9.70208 8.19324C9.68687 8.1776 9.67269 8.16123 9.66094 8.14572C9.64854 8.12937 9.63929 8.11458 9.63417 8.10293C9.62905 8.09128 9.62825 8.08321 9.63187 8.0796C9.63548 8.07598 9.64337 8.07695 9.65469 8.08241C9.666 8.08787 9.68032 8.0976 9.69609 8.11056Z" fill="#009B3A" stroke="black" stroke-width="0.00625"/>
<path d="M9.75578 8.21953L9.71711 8.24062C9.70656 8.24414 9.69601 8.23008 9.67492 8.24062C9.65383 8.25469 9.63976 8.27578 9.63273 8.28633C9.62922 8.30039 9.63976 8.30391 9.66789 8.29336C9.6925 8.2793 9.70304 8.2582 9.71359 8.25117C9.72414 8.24062 9.74875 8.23008 9.7593 8.22656L9.79445 8.17383C9.80148 8.15977 9.83664 8.13867 9.8507 8.10703C9.86125 8.08594 9.85773 8.06484 9.84015 8.07187C9.82245 8.08477 9.808 8.10163 9.79797 8.12109C9.78742 8.13867 9.79797 8.15625 9.78742 8.17383L9.75578 8.21953ZM10.03 8.31094C10.0308 8.36243 10.0271 8.4107 10.0197 8.44513C10.0123 8.47956 10.0019 8.49734 9.9907 8.49454C9.97952 8.49174 9.96848 8.46861 9.96003 8.43022C9.95157 8.39183 9.94639 8.34134 9.94562 8.28984C9.94524 8.26435 9.94596 8.23937 9.94773 8.21635C9.9495 8.19332 9.95228 8.1727 9.95593 8.15565C9.95958 8.1386 9.96402 8.12546 9.96899 8.11698C9.97397 8.10851 9.97938 8.10486 9.98492 8.10624C9.99046 8.10763 9.99602 8.11402 10.0013 8.12506C10.0065 8.13609 10.0114 8.15156 10.0156 8.17056C10.0198 8.18957 10.0232 8.21175 10.0257 8.23584C10.0282 8.25992 10.0296 8.28544 10.03 8.31094Z" fill="#009B3A" stroke="black" stroke-width="0.00625"/>
<path d="M9.98433 8.30743C9.99497 8.35723 10.0009 8.40518 10.0009 8.44072C10.0008 8.47627 9.99475 8.4965 9.98403 8.49696C9.97331 8.49743 9.9588 8.47809 9.94369 8.44321C9.92858 8.40832 9.91411 8.36074 9.90347 8.31094C9.89829 8.28651 9.89422 8.26231 9.89147 8.23974C9.88872 8.21716 9.88736 8.19665 9.88746 8.17938C9.88755 8.1621 9.88911 8.14839 9.89203 8.13904C9.89496 8.12969 9.8992 8.12488 9.90451 8.12488C9.90982 8.12488 9.91609 8.12969 9.92298 8.13904C9.92986 8.14839 9.93722 8.1621 9.94463 8.17938C9.95204 8.19665 9.95936 8.21716 9.96618 8.23974C9.97299 8.26231 9.97915 8.28651 9.98433 8.31094V8.30743Z" fill="#009B3A" stroke="black" stroke-width="0.00625"/>
<path d="M9.84384 8.35313C9.86545 8.36617 9.8873 8.38106 9.90783 8.39672C9.92835 8.41238 9.94701 8.4284 9.96246 8.44363C9.97791 8.45887 9.98975 8.47291 9.99712 8.48476C10.0045 8.4966 10.0072 8.50593 10.0051 8.51208C10.0029 8.51823 9.99599 8.52104 9.98476 8.5203C9.97353 8.51957 9.95828 8.5153 9.94014 8.50782C9.92199 8.50033 9.90141 8.48982 9.87988 8.47705C9.85836 8.46428 9.83644 8.44957 9.81572 8.43399C9.79638 8.42094 9.7776 8.40693 9.76045 8.39275C9.74329 8.37857 9.7281 8.36451 9.71573 8.35137C9.70337 8.33822 9.69407 8.32625 9.68838 8.31614C9.68269 8.30602 9.68071 8.29797 9.68255 8.29243C9.6844 8.28689 9.69004 8.28397 9.69914 8.28385C9.70825 8.28372 9.72064 8.28639 9.73562 8.2917C9.7506 8.29701 9.76786 8.30486 9.78643 8.3148C9.805 8.32473 9.82451 8.33656 9.84384 8.34961V8.35313Z" fill="#009B3A" stroke="black" stroke-width="0.00625"/>
<path d="M9.87189 8.31094C9.90385 8.3497 9.93172 8.39001 9.94938 8.42302C9.96703 8.45603 9.97302 8.47902 9.96603 8.48695C9.95903 8.49487 9.93963 8.48708 9.91209 8.46528C9.88454 8.44348 9.85112 8.40946 9.81916 8.37071C9.80333 8.35152 9.78834 8.33175 9.77505 8.31252C9.76175 8.29329 9.75041 8.27498 9.74167 8.25863C9.73293 8.24229 9.72696 8.22823 9.7241 8.21726C9.72124 8.20629 9.72156 8.19863 9.72502 8.19471C9.72848 8.19078 9.73503 8.19067 9.74428 8.19439C9.75354 8.19811 9.76532 8.20558 9.77896 8.21637C9.7926 8.22717 9.80782 8.24107 9.82377 8.2573C9.83971 8.27353 9.85607 8.29175 9.87189 8.31094Z" fill="#009B3A" stroke="black" stroke-width="0.00625"/>
<path d="M9.92801 8.30742C9.94065 8.33101 9.95231 8.35482 9.96231 8.3775C9.97231 8.40017 9.98046 8.42127 9.98629 8.43959C9.99213 8.4579 9.99554 8.47307 9.99632 8.48423C9.99711 8.49539 9.99526 8.50232 9.99087 8.50463C9.98648 8.50694 9.97965 8.50458 9.97076 8.49768C9.96187 8.49079 9.9511 8.47949 9.93906 8.46444C9.92702 8.4494 9.91395 8.43089 9.90059 8.40998C9.88724 8.38907 9.87385 8.36616 9.86121 8.34257C9.84857 8.31898 9.83692 8.29517 9.82692 8.27249C9.81692 8.24981 9.80877 8.22872 9.80293 8.2104C9.79709 8.19209 9.79369 8.17692 9.7929 8.16576C9.79211 8.1546 9.79397 8.14767 9.79835 8.14536C9.80274 8.14305 9.80957 8.14541 9.81846 8.15231C9.82735 8.1592 9.83812 8.17049 9.85016 8.18554C9.8622 8.20059 9.87528 8.2191 9.88863 8.24001C9.90199 8.26092 9.91537 8.28383 9.92801 8.30742Z" fill="#009B3A" stroke="black" stroke-width="0.00625"/>
<path d="M9.97744 8.49025L9.91064 8.50431C9.9001 8.50431 9.88955 8.4797 9.85439 8.48674C9.81924 8.49377 9.79111 8.51838 9.78408 8.53244C9.77002 8.5465 9.78408 8.56056 9.82627 8.55353C9.86846 8.5465 9.88252 8.51838 9.90361 8.51486L9.97744 8.5008L10.0407 8.44103C10.0583 8.42346 10.111 8.40588 10.1392 8.37072C10.1638 8.3426 10.1638 8.31447 10.1392 8.31799C10.1107 8.32781 10.0853 8.34476 10.0653 8.36721C10.0478 8.3883 10.0513 8.41994 10.0302 8.43752L9.97744 8.49025ZM10.1708 8.67306C10.1666 8.69811 10.1615 8.72245 10.1557 8.7447C10.15 8.76695 10.1436 8.78668 10.1371 8.80275C10.1306 8.81883 10.124 8.83093 10.1177 8.83838C10.1114 8.84583 10.1056 8.84848 10.1005 8.84617C10.0954 8.84386 10.0912 8.83665 10.0881 8.82493C10.085 8.81321 10.0831 8.79723 10.0824 8.77789C10.0818 8.75855 10.0824 8.73624 10.0843 8.71222C10.0862 8.6882 10.0893 8.66295 10.0935 8.63791C10.0976 8.61287 10.1027 8.58853 10.1085 8.56627C10.1143 8.54402 10.1206 8.5243 10.1272 8.50822C10.1337 8.49215 10.1403 8.48004 10.1466 8.47259C10.1528 8.46514 10.1587 8.46249 10.1638 8.4648C10.1689 8.46711 10.1731 8.47433 10.1762 8.48604C10.1793 8.49776 10.1812 8.51374 10.1819 8.53308C10.1825 8.55242 10.1819 8.57474 10.18 8.59875C10.1781 8.62277 10.175 8.64802 10.1708 8.67306Z" fill="#009B3A" stroke="black" stroke-width="0.00625"/>
<path d="M10.1249 8.66252C10.1276 8.69128 10.129 8.72166 10.1289 8.75116C10.1287 8.78066 10.1271 8.80845 10.1242 8.83223C10.1213 8.85602 10.1171 8.87512 10.112 8.88798C10.1069 8.90084 10.101 8.90709 10.0949 8.90621C10.0887 8.90533 10.0825 8.89736 10.0766 8.88293C10.0708 8.86851 10.0655 8.84805 10.0612 8.82323C10.0569 8.79842 10.0538 8.76996 10.052 8.74019C10.0503 8.71042 10.05 8.68019 10.0511 8.65197C10.0498 8.62556 10.0497 8.59906 10.0507 8.57416C10.0517 8.54927 10.0538 8.52654 10.0569 8.50743C10.06 8.48833 10.064 8.47327 10.0687 8.46322C10.0734 8.45318 10.0786 8.44837 10.084 8.44911C10.0894 8.44985 10.0949 8.45612 10.1002 8.46752C10.1054 8.47891 10.1103 8.49518 10.1145 8.51528C10.1187 8.53538 10.1221 8.55887 10.1245 8.58423C10.1269 8.60958 10.1282 8.63625 10.1284 8.66252H10.1249Z" fill="#009B3A" stroke="black" stroke-width="0.00625"/>
<path d="M9.98433 8.67658C10.0011 8.69304 10.0173 8.71051 10.0319 8.72795C10.0465 8.74538 10.0592 8.76243 10.0692 8.77805C10.0793 8.79368 10.0865 8.80757 10.0904 8.81889C10.0944 8.83021 10.0949 8.83873 10.0921 8.84394C10.0892 8.84915 10.0831 8.85094 10.0739 8.8492C10.0648 8.84746 10.0528 8.84224 10.0388 8.83383C10.0248 8.82543 10.009 8.81402 9.99243 8.80029C9.97582 8.78656 9.95871 8.77079 9.94214 8.75392C9.92309 8.73718 9.9039 8.71828 9.88605 8.69865C9.86819 8.67902 9.85214 8.65919 9.83911 8.64065C9.82608 8.62211 9.81642 8.60537 9.81086 8.59168C9.80529 8.57799 9.80398 8.56773 9.80701 8.56166C9.81004 8.5556 9.81734 8.5539 9.82835 8.55669C9.83936 8.55949 9.85379 8.5667 9.87055 8.57778C9.88731 8.58886 9.90595 8.60351 9.92506 8.62063C9.94416 8.63776 9.96323 8.65689 9.98082 8.67658H9.98433Z" fill="#009B3A" stroke="black" stroke-width="0.00625"/>
<path d="M10.0196 8.64491C10.0318 8.66728 10.0431 8.69006 10.0527 8.71196C10.0624 8.73386 10.0703 8.75445 10.076 8.77255C10.0817 8.79065 10.085 8.8059 10.0859 8.81745C10.0867 8.82899 10.085 8.8366 10.0808 8.83983C10.0767 8.84306 10.0702 8.84186 10.0617 8.83628C10.0531 8.83071 10.0428 8.82088 10.0313 8.80735C10.0197 8.79382 10.0071 8.77686 9.99426 8.75743C9.98141 8.73801 9.96851 8.7165 9.95631 8.69413C9.94233 8.67077 9.92893 8.64588 9.91708 8.62126C9.90524 8.59663 9.89523 8.57287 9.88777 8.55167C9.88032 8.53047 9.8756 8.51234 9.87395 8.49859C9.8723 8.48484 9.87376 8.4758 9.87824 8.47212C9.88271 8.46844 9.89008 8.4702 9.89983 8.47728C9.90957 8.48436 9.92145 8.49659 9.93462 8.51309C9.94778 8.52959 9.96191 8.54996 9.97599 8.57275C9.99007 8.59553 10.0038 8.62018 10.0161 8.64491H10.0196Z" fill="#009B3A" stroke="black" stroke-width="0.00625"/>
<path d="M10.0723 8.64845C10.0806 8.67444 10.0879 8.70054 10.0937 8.72525C10.0996 8.74997 10.104 8.77282 10.1065 8.79251C10.1091 8.81219 10.1099 8.82832 10.1088 8.83997C10.1077 8.85162 10.1047 8.85857 10.1001 8.86041C10.0955 8.86226 10.0893 8.85897 10.0819 8.85073C10.0744 8.84249 10.0659 8.82946 10.0568 8.81239C10.0477 8.79532 10.0382 8.77454 10.0288 8.75124C10.0194 8.72793 10.0103 8.70256 10.002 8.67657C9.99376 8.65059 9.98648 8.62449 9.98061 8.59977C9.97475 8.57505 9.9704 8.5522 9.96782 8.53252C9.96524 8.51284 9.96448 8.49671 9.96558 8.48506C9.96668 8.4734 9.96962 8.46646 9.97424 8.46461C9.97886 8.46276 9.98506 8.46605 9.99249 8.47429C9.99991 8.48253 10.0084 8.49556 10.0175 8.51263C10.0266 8.5297 10.0362 8.55048 10.0456 8.57379C10.055 8.59709 10.0641 8.62246 10.0723 8.64845Z" fill="#009B3A" stroke="black" stroke-width="0.00625"/>
<path d="M10.0898 8.84182H10.0194C10.0089 8.84182 10.0054 8.81369 9.97022 8.81369C9.93507 8.81369 9.89991 8.83127 9.88936 8.84533C9.8753 8.85588 9.88936 8.87346 9.92803 8.87346C9.97022 8.87346 9.99132 8.85236 10.0124 8.84885H10.0862L10.1566 8.80314C10.1776 8.78908 10.2374 8.78205 10.2691 8.75393C10.2972 8.73283 10.3042 8.70119 10.2796 8.70471C10.2489 8.70878 10.2198 8.72091 10.1952 8.73986C10.1741 8.75393 10.1741 8.78557 10.1495 8.79963L10.0862 8.84182M10.1812 9.07736C10.1542 9.12036 10.1254 9.15825 10.1011 9.18272C10.0767 9.20718 10.0589 9.21622 10.0514 9.20782C10.0439 9.19943 10.0475 9.17431 10.0613 9.13797C10.0751 9.10164 10.098 9.05707 10.1249 9.01408C10.1519 8.97109 10.1807 8.93319 10.205 8.90873C10.2293 8.88426 10.2472 8.87523 10.2547 8.88362C10.2621 8.89201 10.2586 8.91714 10.2448 8.95347C10.231 8.98981 10.2081 9.03437 10.1812 9.07736Z" fill="#009B3A"/>
<path d="M10.0898 8.84182H10.0194C10.0089 8.84182 10.0054 8.81369 9.97022 8.81369C9.93507 8.81369 9.89991 8.83127 9.88936 8.84533C9.8753 8.85588 9.88936 8.87346 9.92803 8.87346C9.97022 8.87346 9.99132 8.85236 10.0124 8.84885H10.0862L10.1566 8.80314C10.1776 8.78908 10.2374 8.78205 10.2691 8.75393C10.2972 8.73283 10.3042 8.70119 10.2796 8.70471C10.2489 8.70878 10.2198 8.72091 10.1952 8.73986C10.1741 8.75393 10.1741 8.78557 10.1495 8.79963L10.0862 8.84182M10.1812 9.07736C10.1542 9.12036 10.1254 9.15825 10.1011 9.18272C10.0767 9.20718 10.0589 9.21622 10.0514 9.20782C10.0439 9.19943 10.0475 9.17431 10.0613 9.13797C10.0751 9.10164 10.098 9.05707 10.1249 9.01408C10.1519 8.97109 10.1807 8.93319 10.205 8.90873C10.2293 8.88426 10.2472 8.87523 10.2547 8.88362C10.2621 8.89201 10.2586 8.91714 10.2448 8.95347C10.231 8.98981 10.2081 9.03437 10.1812 9.07736Z" stroke="black" stroke-width="0.00625"/>
<path d="M10.1462 9.04922C10.1364 9.07483 10.1258 9.09964 10.115 9.12225C10.1042 9.14485 10.0935 9.16479 10.0835 9.18094C10.0734 9.19709 10.0642 9.20913 10.0564 9.21637C10.0486 9.22362 10.0423 9.22592 10.0379 9.22315C10.0335 9.22038 10.0311 9.21259 10.0308 9.20023C10.0305 9.18787 10.0324 9.17118 10.0362 9.15111C10.0401 9.13104 10.0459 9.10799 10.0533 9.08327C10.0607 9.05855 10.0696 9.03264 10.0794 9.00703C10.0993 8.95531 10.1218 8.90793 10.1421 8.87531C10.1624 8.8427 10.1788 8.82751 10.1877 8.83311C10.1965 8.8387 10.1971 8.86461 10.1894 8.90514C10.1816 8.94567 10.1661 8.9975 10.1462 9.04922ZM10.0091 9.00352C10.0261 9.0475 10.0387 9.09264 10.0441 9.12902C10.0495 9.16539 10.0473 9.19001 10.038 9.19747C10.0286 9.20493 10.013 9.19461 9.99435 9.16879C9.97575 9.14296 9.95576 9.10375 9.93877 9.05977C9.92179 9.01579 9.90921 8.97064 9.90379 8.93427C9.89838 8.8979 9.90057 8.87327 9.90989 8.86581C9.91922 8.85835 9.93491 8.86867 9.95351 8.8945C9.97211 8.92032 9.9921 8.95954 10.0091 9.00352Z" fill="#009B3A" stroke="black" stroke-width="0.00625"/>
<path d="M10.0548 8.98946C10.06 9.04674 10.061 9.10278 10.0575 9.14526C10.0539 9.18774 10.0462 9.21318 10.0359 9.21598C10.0257 9.21877 10.0138 9.1987 10.0028 9.16018C9.99182 9.12166 9.9827 9.06783 9.97744 9.01056C9.97484 8.98219 9.97326 8.95384 9.9728 8.92711C9.97234 8.90037 9.973 8.87579 9.97475 8.85475C9.9765 8.83372 9.9793 8.81665 9.983 8.80452C9.98669 8.79238 9.99121 8.78543 9.99629 8.78404C10.0014 8.78266 10.0069 8.78687 10.0126 8.79644C10.0183 8.80602 10.024 8.82076 10.0294 8.83984C10.0349 8.85891 10.0399 8.88194 10.0443 8.90762C10.0486 8.93329 10.0522 8.9611 10.0548 8.98946Z" fill="#009B3A" stroke="black" stroke-width="0.00625"/>
<path d="M10.1039 9.01759C10.1012 9.0455 10.0976 9.07306 10.0931 9.09867C10.0887 9.12429 10.0836 9.14747 10.0781 9.16688C10.0726 9.1863 10.0669 9.20157 10.0611 9.21182C10.0554 9.22208 10.0499 9.22712 10.0448 9.22666C10.0397 9.2262 10.0352 9.22024 10.0315 9.20913C10.0279 9.19802 10.0251 9.18198 10.0234 9.16191C10.0217 9.14184 10.0211 9.11815 10.0217 9.09218C10.0222 9.06621 10.0239 9.03847 10.0266 9.01056C10.0292 8.98264 10.0329 8.95509 10.0373 8.92947C10.0417 8.90385 10.0468 8.88068 10.0523 8.86126C10.0578 8.84185 10.0636 8.82658 10.0693 8.81632C10.075 8.80606 10.0806 8.80102 10.0857 8.80148C10.0907 8.80194 10.0952 8.8079 10.0989 8.81901C10.1026 8.83012 10.1053 8.84617 10.107 8.86623C10.1087 8.8863 10.1093 8.91 10.1088 8.93596C10.1082 8.96193 10.1066 8.98967 10.1039 9.01759Z" fill="#009B3A" stroke="black" stroke-width="0.00625"/>
<path d="M10.0405 9.20041L9.98074 9.17228C9.97019 9.16525 9.97723 9.14064 9.94559 9.12658C9.91043 9.11252 9.87527 9.11252 9.86121 9.11955C9.84363 9.12658 9.84715 9.14416 9.88582 9.16525C9.92098 9.18283 9.9491 9.16877 9.97019 9.17931L10.0405 9.20744L10.1179 9.19338C10.1425 9.19338 10.1987 9.20744 10.2374 9.19338C10.2725 9.18634 10.2901 9.15822 10.269 9.15119C10.2395 9.14162 10.2078 9.14041 10.1776 9.14767C10.153 9.1547 10.1389 9.18283 10.1143 9.18986C10.0968 9.18986 10.044 9.20392 10.0405 9.20041ZM10.0757 9.48869C10.0539 9.50741 10.0317 9.52477 10.0105 9.53977C9.98934 9.55477 9.96949 9.56713 9.95212 9.57612C9.93475 9.58512 9.9202 9.59058 9.9093 9.5922C9.8984 9.59382 9.89136 9.59157 9.88859 9.58557C9.88582 9.57956 9.88737 9.56993 9.89316 9.55722C9.89894 9.54451 9.90884 9.52897 9.92229 9.51149C9.93575 9.494 9.95249 9.47492 9.97157 9.45532C9.99064 9.43573 10.0117 9.41601 10.0335 9.39728C10.0548 9.37905 10.0764 9.36217 10.097 9.34762C10.1177 9.33307 10.137 9.32113 10.1538 9.31248C10.1707 9.30383 10.1848 9.29864 10.1953 9.29721C10.2058 9.29577 10.2125 9.29812 10.215 9.30412C10.2176 9.31013 10.2159 9.31966 10.2101 9.33218C10.2043 9.34471 10.1944 9.35997 10.1812 9.37711C10.1679 9.39425 10.1515 9.41293 10.1328 9.43207C10.114 9.45121 10.0934 9.47045 10.0721 9.48869" fill="#009B3A"/>
<path d="M10.0757 9.48869C10.0539 9.50741 10.0317 9.52477 10.0105 9.53977C9.98934 9.55477 9.96949 9.56713 9.95212 9.57612C9.93475 9.58512 9.9202 9.59058 9.9093 9.5922C9.8984 9.59382 9.89136 9.59157 9.88859 9.58557C9.88582 9.57956 9.88737 9.56993 9.89316 9.55722C9.89894 9.54451 9.90884 9.52897 9.92229 9.51149C9.93575 9.494 9.95249 9.47492 9.97157 9.45532C9.99064 9.43573 10.0117 9.41601 10.0335 9.39728C10.0548 9.37905 10.0764 9.36217 10.097 9.34762C10.1177 9.33307 10.137 9.32113 10.1538 9.31248C10.1707 9.30383 10.1848 9.29864 10.1953 9.29721C10.2058 9.29577 10.2125 9.29812 10.215 9.30412C10.2176 9.31013 10.2159 9.31966 10.2101 9.33218C10.2043 9.34471 10.1944 9.35997 10.1812 9.37711C10.1679 9.39425 10.1515 9.41293 10.1328 9.43207C10.114 9.45121 10.0934 9.47045 10.0721 9.48869M10.0405 9.20041L9.98074 9.17228C9.97019 9.16525 9.97723 9.14064 9.94559 9.12658C9.91043 9.11252 9.87527 9.11252 9.86121 9.11955C9.84363 9.12658 9.84715 9.14416 9.88582 9.16525C9.92098 9.18283 9.9491 9.16877 9.97019 9.17931L10.0405 9.20744L10.1179 9.19338C10.1425 9.19338 10.1987 9.20744 10.2374 9.19338C10.2725 9.18634 10.2901 9.15822 10.269 9.15119C10.2395 9.14162 10.2078 9.14041 10.1776 9.14767C10.153 9.1547 10.1389 9.18283 10.1143 9.18986C10.0968 9.18986 10.044 9.20392 10.0405 9.20041Z" stroke="black" stroke-width="0.00625"/>
<path d="M10.0407 9.4465C10.022 9.47372 10.0011 9.50107 9.97964 9.52638C9.95821 9.55169 9.93688 9.57425 9.91733 9.59226C9.89779 9.61026 9.88058 9.62322 9.86709 9.6301C9.85359 9.63697 9.84418 9.63757 9.8396 9.63185C9.83502 9.62613 9.8354 9.61424 9.84072 9.59714C9.84603 9.58004 9.85613 9.55819 9.87021 9.53335C9.88429 9.50851 9.90196 9.48137 9.9218 9.45408C9.94164 9.42679 9.96311 9.40012 9.9845 9.37619C10.0032 9.34897 10.0242 9.32161 10.0456 9.29631C10.067 9.271 10.0884 9.24844 10.1079 9.23043C10.1275 9.21242 10.1447 9.19947 10.1582 9.19259C10.1717 9.18572 10.1811 9.18512 10.1856 9.19084C10.1902 9.19656 10.1898 9.20845 10.1845 9.22555C10.1792 9.24265 10.1691 9.2645 10.155 9.28934C10.141 9.31417 10.1233 9.34132 10.1034 9.36861C10.0836 9.3959 10.0621 9.42257 10.0407 9.4465Z" fill="#009B3A" stroke="black" stroke-width="0.00625"/>
<path d="M9.90698 9.34452C9.90913 9.37274 9.91008 9.40114 9.90976 9.4281C9.90945 9.45506 9.90788 9.48004 9.90516 9.50163C9.90243 9.52322 9.8986 9.54098 9.89387 9.55392C9.88915 9.56685 9.88363 9.57469 9.87763 9.577C9.87163 9.57931 9.86526 9.57604 9.8589 9.56737C9.85253 9.5587 9.84629 9.54481 9.84052 9.52649C9.83476 9.50817 9.82959 9.48577 9.82531 9.46058C9.82103 9.43539 9.81773 9.4079 9.81558 9.37968C9.81343 9.35146 9.81249 9.32306 9.8128 9.2961C9.81312 9.26915 9.81468 9.24416 9.81741 9.22257C9.82013 9.20099 9.82397 9.18322 9.82869 9.17029C9.83341 9.15735 9.83893 9.14951 9.84494 9.1472C9.85094 9.14489 9.8573 9.14817 9.86367 9.15683C9.87004 9.1655 9.87628 9.17939 9.88204 9.19772C9.8878 9.21604 9.89297 9.23843 9.89725 9.26362C9.90153 9.28881 9.90484 9.3163 9.90698 9.34452Z" fill="#009B3A" stroke="black" stroke-width="0.00625"/>
<path d="M9.95984 9.34454C9.94807 9.38901 9.93443 9.42773 9.92095 9.45495C9.90747 9.48217 9.89486 9.49644 9.885 9.49565C9.87514 9.49486 9.86854 9.47905 9.86619 9.45057C9.86384 9.42208 9.86586 9.38244 9.87195 9.33751C9.87637 9.30492 9.88278 9.27063 9.89068 9.23738C9.89858 9.20413 9.90775 9.17285 9.91745 9.14602C9.92715 9.11919 9.93711 9.09757 9.94654 9.08288C9.95597 9.06818 9.96461 9.06083 9.97177 9.0614C9.97892 9.06197 9.9844 9.07046 9.98775 9.08617C9.99111 9.10189 9.99225 9.1244 9.99109 9.15191C9.98993 9.17942 9.9865 9.21117 9.98108 9.24461C9.97565 9.27806 9.96838 9.31228 9.95984 9.34454Z" fill="#009B3A" stroke="black" stroke-width="0.00625"/>
<path d="M10.0055 9.39026C9.99409 9.41843 9.98173 9.44592 9.96914 9.47116C9.95655 9.49639 9.94398 9.51888 9.93215 9.53733C9.92031 9.55579 9.90945 9.56985 9.90017 9.57871C9.89089 9.58757 9.88338 9.59107 9.87807 9.58899C9.86735 9.58479 9.86624 9.55817 9.87497 9.51496C9.88371 9.47176 9.90158 9.41552 9.92465 9.35861C9.93629 9.33002 9.94886 9.30217 9.96165 9.27664C9.97443 9.25111 9.98718 9.2284 9.99916 9.20982C10.0111 9.19124 10.0221 9.17714 10.0315 9.16833C10.0408 9.15952 10.0484 9.15618 10.0537 9.15848C10.059 9.16079 10.062 9.16871 10.0624 9.18178C10.0629 9.19486 10.0608 9.21283 10.0563 9.23468C10.0519 9.25653 10.0451 9.28182 10.0364 9.30912C10.0276 9.33642 10.0172 9.36518 10.0055 9.39377" fill="#009B3A"/>
<path d="M10.0055 9.39026C9.99409 9.41843 9.98173 9.44592 9.96914 9.47116C9.95655 9.49639 9.94398 9.51888 9.93215 9.53733C9.92031 9.55579 9.90945 9.56985 9.90017 9.57871C9.89089 9.58757 9.88338 9.59107 9.87807 9.58899C9.86735 9.58479 9.86624 9.55817 9.87497 9.51496C9.88371 9.47176 9.90158 9.41552 9.92465 9.35861C9.93629 9.33002 9.94886 9.30217 9.96165 9.27664C9.97443 9.25111 9.98718 9.2284 9.99916 9.20982C10.0111 9.19124 10.0221 9.17714 10.0315 9.16833C10.0408 9.15952 10.0484 9.15618 10.0537 9.15848C10.059 9.16079 10.062 9.16871 10.0624 9.18178C10.0629 9.19486 10.0608 9.21283 10.0563 9.23468C10.0519 9.25653 10.0451 9.28182 10.0364 9.30912C10.0276 9.33642 10.0172 9.36518 10.0055 9.39377" stroke="black" stroke-width="0.00625"/>
<path d="M9.87882 9.57305L9.81906 9.52031C9.81202 9.50977 9.82609 9.48516 9.79445 9.45703C9.76934 9.43446 9.7368 9.42194 9.70304 9.42188C9.68195 9.42187 9.68195 9.44297 9.7171 9.47813C9.75226 9.51328 9.78741 9.50625 9.80499 9.52383C9.82951 9.53973 9.85195 9.55862 9.87179 9.58008L9.96671 9.59414C9.99132 9.59766 10.0476 9.63984 10.0968 9.63984C10.139 9.63984 10.1671 9.61875 10.1425 9.60117C10.1145 9.58138 10.0817 9.56926 10.0476 9.56602C10.0159 9.56602 9.99132 9.59063 9.95968 9.58711L9.87531 9.57305M9.79093 9.84727C9.75748 9.85479 9.72271 9.8607 9.68927 9.86454C9.65584 9.86838 9.62462 9.87004 9.59801 9.86941C9.5714 9.86877 9.55011 9.86586 9.53575 9.86088C9.5214 9.85591 9.51437 9.849 9.5152 9.8407C9.51603 9.8324 9.5247 9.82291 9.54055 9.81298C9.55639 9.80304 9.57899 9.79291 9.60662 9.78337C9.63424 9.77382 9.66616 9.76511 9.69994 9.75791C9.73371 9.7507 9.76844 9.74519 9.80148 9.7418C9.83492 9.73427 9.8697 9.72836 9.90313 9.72452C9.93657 9.72069 9.96779 9.71902 9.9944 9.71965C10.021 9.72029 10.0423 9.7232 10.0567 9.72818C10.071 9.73316 10.078 9.74006 10.0772 9.74836C10.0764 9.75667 10.0677 9.76615 10.0519 9.77609C10.036 9.78602 10.0134 9.79615 9.98579 9.8057C9.95817 9.81524 9.92624 9.82395 9.89247 9.83115C9.8587 9.83836 9.82396 9.84387 9.79093 9.84727Z" fill="#009B3A"/>
<path d="M9.87882 9.57305L9.81906 9.52031C9.81202 9.50977 9.82609 9.48516 9.79445 9.45703C9.76934 9.43446 9.7368 9.42194 9.70304 9.42188C9.68195 9.42187 9.68195 9.44297 9.7171 9.47813C9.75226 9.51328 9.78741 9.50625 9.80499 9.52383C9.82951 9.53973 9.85195 9.55862 9.87179 9.58008L9.96671 9.59414C9.99132 9.59766 10.0476 9.63984 10.0968 9.63984C10.139 9.63984 10.1671 9.61875 10.1425 9.60117C10.1145 9.58138 10.0817 9.56926 10.0476 9.56602C10.0159 9.56602 9.99132 9.59063 9.95968 9.58711L9.87531 9.57305M9.79093 9.84727C9.75748 9.85479 9.72271 9.8607 9.68927 9.86454C9.65584 9.86838 9.62462 9.87004 9.59801 9.86941C9.5714 9.86877 9.55011 9.86586 9.53575 9.86088C9.5214 9.85591 9.51437 9.849 9.5152 9.8407C9.51603 9.8324 9.5247 9.82291 9.54055 9.81298C9.55639 9.80304 9.57899 9.79291 9.60662 9.78337C9.63424 9.77382 9.66616 9.76511 9.69994 9.75791C9.73371 9.7507 9.76844 9.74519 9.80148 9.7418C9.83492 9.73427 9.8697 9.72836 9.90313 9.72452C9.93657 9.72069 9.96779 9.71902 9.9944 9.71965C10.021 9.72029 10.0423 9.7232 10.0567 9.72818C10.071 9.73316 10.078 9.74006 10.0772 9.74836C10.0764 9.75667 10.0677 9.76615 10.0519 9.77609C10.036 9.78602 10.0134 9.79615 9.98579 9.8057C9.95817 9.81524 9.92624 9.82395 9.89247 9.83115C9.8587 9.83836 9.82396 9.84387 9.79093 9.84727Z" stroke="black" stroke-width="0.00625"/>
<path d="M9.78738 9.78751C9.73137 9.80795 9.67829 9.82233 9.63869 9.8278C9.59909 9.83326 9.57588 9.82941 9.57366 9.81701C9.57145 9.8046 9.59039 9.78455 9.62674 9.76085C9.66308 9.73715 9.71415 9.71152 9.76981 9.68907C9.82582 9.66863 9.8789 9.65425 9.9185 9.64879C9.9581 9.64332 9.98131 9.64717 9.98353 9.65958C9.98574 9.67198 9.9668 9.69203 9.93045 9.71573C9.89411 9.73944 9.84303 9.76506 9.78738 9.78751Z" fill="#009B3A" stroke="black" stroke-width="0.00625"/>
<path d="M9.70656 9.61525C9.68159 9.66324 9.65427 9.706 9.62952 9.73586C9.60477 9.76572 9.58419 9.78073 9.57149 9.77819C9.55879 9.77565 9.5548 9.75573 9.56022 9.722C9.56565 9.68827 9.58014 9.64295 9.60109 9.59415C9.61385 9.56447 9.62859 9.53444 9.6443 9.50615C9.66001 9.47785 9.67633 9.45197 9.69211 9.43028C9.70789 9.40859 9.72277 9.39161 9.73572 9.38052C9.74867 9.36943 9.75937 9.36448 9.7671 9.36603C9.77483 9.36758 9.77939 9.37557 9.78048 9.38947C9.78157 9.40337 9.77915 9.42284 9.77339 9.44654C9.76764 9.47023 9.75868 9.49759 9.74714 9.52671C9.7356 9.55584 9.72176 9.58605 9.70656 9.61525Z" fill="#009B3A" stroke="black" stroke-width="0.00625"/>
<path d="M9.76286 9.64688C9.74135 9.67123 9.71896 9.69461 9.69696 9.71569C9.67497 9.73677 9.6538 9.75514 9.63467 9.76974C9.61554 9.78434 9.59882 9.7949 9.58547 9.8008C9.57212 9.80671 9.5624 9.80785 9.55686 9.80415C9.55132 9.80046 9.55007 9.79201 9.55318 9.77928C9.5563 9.76655 9.56371 9.74979 9.57501 9.72997C9.5863 9.71014 9.60125 9.68763 9.61901 9.66372C9.63676 9.63982 9.65697 9.61498 9.67849 9.59063C9.72193 9.54146 9.76804 9.49727 9.80668 9.46778C9.84531 9.43829 9.8733 9.42591 9.88449 9.43337C9.89568 9.44083 9.88915 9.46751 9.86634 9.50755C9.84353 9.5476 9.80631 9.59772 9.76286 9.64688Z" fill="#009B3A" stroke="black" stroke-width="0.00625"/>
<path d="M9.777 9.7172C9.75004 9.73879 9.72179 9.75951 9.69412 9.77798C9.66646 9.79646 9.63999 9.81228 9.61648 9.82439C9.59297 9.83651 9.57294 9.84464 9.55772 9.84827C9.5425 9.85189 9.53243 9.85092 9.52818 9.84541C9.52393 9.83991 9.52558 9.83 9.53305 9.81633C9.54051 9.80267 9.5536 9.78556 9.57147 9.76613C9.58933 9.74671 9.61156 9.72542 9.63668 9.70365C9.66181 9.68188 9.68926 9.66014 9.71724 9.63986C9.76986 9.59966 9.82366 9.56518 9.8668 9.544C9.90994 9.52283 9.93889 9.51669 9.94728 9.52695C9.95567 9.53721 9.94282 9.56301 9.91154 9.59869C9.88027 9.63437 9.83314 9.677 9.78052 9.7172" fill="#009B3A"/>
<path d="M9.777 9.7172C9.75004 9.73879 9.72179 9.75951 9.69412 9.77798C9.66646 9.79646 9.63999 9.81228 9.61648 9.82439C9.59297 9.83651 9.57294 9.84464 9.55772 9.84827C9.5425 9.85189 9.53243 9.85092 9.52818 9.84541C9.52393 9.83991 9.52558 9.83 9.53305 9.81633C9.54051 9.80267 9.5536 9.78556 9.57147 9.76613C9.58933 9.74671 9.61156 9.72542 9.63668 9.70365C9.66181 9.68188 9.68926 9.66014 9.71724 9.63986C9.76986 9.59966 9.82366 9.56518 9.8668 9.544C9.90994 9.52283 9.93889 9.51669 9.94728 9.52695C9.95567 9.53721 9.94282 9.56301 9.91154 9.59869C9.88027 9.63437 9.83314 9.677 9.78052 9.7172" stroke="black" stroke-width="0.00625"/>
<path d="M9.55552 9.81563L9.53091 9.73477C9.5274 9.71719 9.55552 9.69961 9.54146 9.65742C9.52959 9.6205 9.50457 9.58922 9.47115 9.56953C9.45357 9.55898 9.43599 9.58008 9.45357 9.63281C9.46763 9.68555 9.50631 9.70313 9.51685 9.72773L9.54498 9.81914C9.56607 9.82969 9.60474 9.86836 9.62935 9.88945C9.65396 9.90703 9.6856 9.97734 9.73482 10.0055C9.76998 10.0301 9.80513 10.0266 9.7981 9.99492C9.78137 9.95982 9.75596 9.92957 9.72427 9.90703C9.69615 9.88594 9.65396 9.89648 9.62935 9.87539C9.61177 9.86133 9.55552 9.81914 9.55904 9.81563" fill="#009B3A"/>
<path d="M9.55552 9.81563L9.53091 9.73477C9.5274 9.71719 9.55552 9.69961 9.54146 9.65742C9.52959 9.6205 9.50457 9.58922 9.47115 9.56953C9.45357 9.55898 9.43599 9.58008 9.45357 9.63281C9.46763 9.68555 9.50631 9.70313 9.51685 9.72773L9.54498 9.81914C9.56607 9.82969 9.60474 9.86836 9.62935 9.88945C9.65396 9.90703 9.6856 9.97734 9.73482 10.0055C9.76998 10.0301 9.80513 10.0266 9.7981 9.99492C9.78137 9.95982 9.75596 9.92957 9.72427 9.90703C9.69615 9.88594 9.65396 9.89648 9.62935 9.87539C9.61177 9.86133 9.55552 9.81914 9.55904 9.81563" stroke="black" stroke-width="0.00625"/>
<path d="M9.42194 10.0512C9.36201 10.0518 9.30487 10.0456 9.26284 10.0338C9.22082 10.0219 9.19727 10.0055 9.19727 9.98797C9.19727 9.97045 9.22082 9.95325 9.26284 9.94008C9.30487 9.92692 9.36201 9.91884 9.42194 9.91759C9.48186 9.91693 9.539 9.92318 9.58103 9.935C9.62305 9.94683 9.64661 9.96327 9.64661 9.9808C9.64661 9.99832 9.62305 10.0155 9.58103 10.0287C9.539 10.0419 9.48186 10.0499 9.42194 10.0512Z" fill="#009B3A" stroke="black" stroke-width="0.00625"/>
<path d="M9.39012 9.84374C9.35036 9.89499 9.30704 9.93969 9.26969 9.96801C9.23235 9.99633 9.20403 10.006 9.19098 9.99477C9.17792 9.98358 9.1812 9.95249 9.20009 9.90835C9.21897 9.8642 9.25192 9.81061 9.29169 9.75937C9.33145 9.70813 9.37477 9.66343 9.41212 9.6351C9.44946 9.60678 9.47778 9.59715 9.49083 9.60834C9.50389 9.61953 9.50061 9.65062 9.48172 9.69476C9.46284 9.73891 9.42989 9.7925 9.39012 9.84374Z" fill="#009B3A" stroke="black" stroke-width="0.00625"/>
<path d="M9.42198 9.94924C9.37247 9.96725 9.32597 9.97833 9.29043 9.98058C9.25488 9.98283 9.2325 9.97612 9.2271 9.96159C9.2217 9.94706 9.23363 9.92562 9.26084 9.90092C9.28805 9.87622 9.32885 9.84981 9.37628 9.82619C9.42579 9.80818 9.47229 9.7971 9.50784 9.79485C9.54338 9.79259 9.56577 9.79931 9.57116 9.81383C9.57656 9.82836 9.56463 9.84981 9.53742 9.87451C9.51021 9.8992 9.46941 9.92562 9.42198 9.94924ZM9.48526 7.94533C9.51059 7.96896 9.53166 7.99227 9.54434 8.01066C9.55702 8.02906 9.56038 8.04121 9.55377 8.04474C9.54717 8.04826 9.53106 8.0429 9.50862 8.02971C9.48619 8.01652 9.45905 7.99646 9.43253 7.97346C9.41777 7.96066 9.40367 7.94735 9.39112 7.93438C9.37857 7.9214 9.36785 7.90905 9.35964 7.89811C9.35143 7.88717 9.34591 7.87788 9.34343 7.87083C9.34095 7.86378 9.34157 7.85913 9.34525 7.85717C9.34893 7.85521 9.35558 7.85598 9.36479 7.85944C9.374 7.8629 9.38556 7.86897 9.39873 7.87727C9.4119 7.88556 9.4264 7.8959 9.4413 7.90762C9.4562 7.91933 9.47117 7.93218 9.48526 7.94533ZM9.41495 8.0051C9.4538 8.0102 9.49161 8.01824 9.52007 8.02745C9.54853 8.03666 9.56531 8.04629 9.56671 8.05422C9.56811 8.06214 9.55401 8.06772 9.52753 8.06971C9.50105 8.07171 9.46435 8.06996 9.4255 8.06486C9.38665 8.05976 9.34884 8.05172 9.32038 8.04251C9.29192 8.03329 9.27514 8.02366 9.27374 8.01574C9.27234 8.00781 9.28644 8.00224 9.31292 8.00024C9.3394 7.99825 9.3761 7.99999 9.41495 8.0051Z" fill="#009B3A" stroke="black" stroke-width="0.00625"/>
<path d="M9.44287 7.96641C9.47886 7.98466 9.51189 8.00477 9.53469 8.02229C9.5575 8.03982 9.56822 8.05333 9.56449 8.05986C9.56076 8.06638 9.54289 8.06539 9.51481 8.0571C9.48672 8.0488 9.45073 8.03388 9.41475 8.01563C9.39693 8.00658 9.37965 7.997 9.36389 7.98741C9.34814 7.97782 9.33422 7.96842 9.32292 7.95974C9.30011 7.94221 9.2894 7.9287 9.29313 7.92217C9.29686 7.91565 9.31473 7.91664 9.34281 7.92494C9.37089 7.93323 9.40689 7.94815 9.44287 7.96641ZM8.40576 9.82617C8.40576 9.82617 8.59912 9.86836 8.76787 9.92812C8.93311 9.98789 9.18975 10.1988 9.26006 10.2094C9.33389 10.2129 9.43936 10.1883 9.48154 10.0758C9.36201 10.1109 9.2917 10.1566 9.1792 10.0934C9.14053 10.0793 9.01045 9.95977 8.86279 9.89648C8.72281 9.84193 8.57956 9.79614 8.43389 9.75938L8.40576 9.82617ZM8.61318 8.08242L8.83467 7.96289L8.58857 8.02617L8.56045 8.06836L8.61318 8.08242Z" fill="#009B3A" stroke="black" stroke-width="0.00625"/>
<path d="M8.82417 8.13515C8.73628 8.12109 8.60269 8.08945 8.51831 8.08242C8.57808 8.01913 8.65894 7.91015 8.70815 7.84335C8.673 7.90663 8.62378 7.99101 8.60269 8.05429C8.66245 8.08593 8.75737 8.11054 8.82417 8.13515Z" fill="#009B3A" stroke="black" stroke-width="0.00625"/>
<path d="M8.57104 8.09649L8.76792 7.9418L8.5394 8.04727L8.51831 8.09297H8.57104" fill="#009B3A"/>
<path d="M8.57104 8.09649L8.76792 7.9418L8.5394 8.04727L8.51831 8.09297H8.57104" stroke="black" stroke-width="0.00625"/>
<path d="M8.78208 8.13165C8.69419 8.11759 8.56411 8.08595 8.47974 8.07892C8.53599 8.01212 8.61333 7.90314 8.66255 7.83282C8.62739 7.89611 8.58169 7.984 8.5606 8.04728C8.62036 8.08243 8.71528 8.10704 8.78208 8.13165Z" fill="#009B3A" stroke="black" stroke-width="0.00625"/>
<path d="M8.53955 8.10704L8.77158 8.01212L8.52197 8.05079L8.48682 8.09297L8.53955 8.10704Z" fill="#009B3A" stroke="black" stroke-width="0.00625"/>
<path d="M8.75386 8.13515C8.66948 8.12812 8.53237 8.11054 8.448 8.11406C8.49722 8.04023 8.5605 7.91718 8.60269 7.84335C8.57808 7.91367 8.5394 8.00507 8.52886 8.07187C8.59214 8.09999 8.68706 8.11757 8.75737 8.13515" fill="#009B3A"/>
<path d="M8.75386 8.13515C8.66948 8.12812 8.53237 8.11054 8.448 8.11406C8.49722 8.04023 8.5605 7.91718 8.60269 7.84335C8.57808 7.91367 8.5394 8.00507 8.52886 8.07187C8.59214 8.09999 8.68706 8.11757 8.75737 8.13515" stroke="black" stroke-width="0.00625"/>
<path d="M8.51479 8.11057L8.673 7.91721L8.47261 8.06486L8.46558 8.1176L8.51479 8.10705" fill="#009B3A"/>
<path d="M8.51479 8.11057L8.673 7.91721L8.47261 8.06486L8.46558 8.1176L8.51479 8.10705" stroke="black" stroke-width="0.00625"/>
<path d="M8.75396 8.14922C8.66255 8.14922 8.51489 8.13867 8.427 8.14922C8.47271 8.06133 8.52544 7.92422 8.5606 7.83984C8.54302 7.91719 8.51138 8.02266 8.50435 8.09648C8.57466 8.12109 8.68013 8.13164 8.75396 8.14922Z" fill="#009B3A" stroke="black" stroke-width="0.00625"/>
<path d="M8.48325 8.15627C8.5458 8.09342 8.60909 8.0313 8.6731 7.96994L8.44458 8.10002L8.427 8.15275H8.48325" fill="#009B3A"/>
<path d="M8.48325 8.15627C8.5458 8.09342 8.60909 8.0313 8.6731 7.96994L8.44458 8.10002L8.427 8.15275H8.48325" stroke="black" stroke-width="0.00625"/>
<path d="M8.71167 8.15626C8.61323 8.15626 8.45854 8.14923 8.36011 8.15977C8.42339 8.06485 8.51479 7.91368 8.57104 7.81876C8.53589 7.90313 8.47612 8.02266 8.45503 8.10001C8.52534 8.12813 8.63433 8.13516 8.71167 8.15274" fill="#009B3A"/>
<path d="M8.71167 8.15626C8.61323 8.15626 8.45854 8.14923 8.36011 8.15977C8.42339 8.06485 8.51479 7.91368 8.57104 7.81876C8.53589 7.90313 8.47612 8.02266 8.45503 8.10001C8.52534 8.12813 8.63433 8.13516 8.71167 8.15274" stroke="black" stroke-width="0.00625"/>
<path d="M8.41987 8.1668L8.66597 7.95938L8.38472 8.10704L8.36011 8.1668H8.41987Z" fill="#009B3A" stroke="black" stroke-width="0.00625"/>
<path d="M8.67651 8.15977C8.57808 8.17383 8.42339 8.19141 8.32495 8.21602C8.38292 8.09767 8.43571 7.97686 8.48315 7.85391C8.46206 7.9418 8.42339 8.06485 8.41284 8.14571C8.48667 8.15977 8.59565 8.15626 8.67651 8.15977Z" fill="#009B3A" stroke="black" stroke-width="0.00625"/>
<path d="M8.38838 8.20898C8.4497 8.12169 8.51181 8.03497 8.57471 7.94882L8.33916 8.15976L8.32861 8.22656L8.38486 8.20898" fill="#009B3A"/>
<path d="M8.38838 8.20898C8.4497 8.12169 8.51181 8.03497 8.57471 7.94882L8.33916 8.15976L8.32861 8.22656L8.38486 8.20898" stroke="black" stroke-width="0.00625"/>
<path d="M8.62036 8.19141C8.52192 8.20195 8.36724 8.20898 8.2688 8.22656C8.32505 8.13164 8.40239 7.97344 8.44458 7.875C8.41997 7.96289 8.37427 8.08242 8.36021 8.16328C8.43052 8.18086 8.54302 8.18086 8.62036 8.19141Z" fill="#009B3A" stroke="black" stroke-width="0.00625"/>
<path d="M8.35322 8.23712L8.59229 8.02618L8.32158 8.17384L8.29346 8.23712H8.35322Z" fill="#009B3A" stroke="black" stroke-width="0.00625"/>
<path d="M8.59229 8.20195C8.49033 8.22305 8.33564 8.24766 8.24072 8.2793C8.28643 8.17734 8.34619 8.01211 8.38135 7.91016C8.36377 8.00156 8.33213 8.12109 8.3251 8.20547C8.39893 8.21602 8.51143 8.20195 8.59229 8.20195Z" fill="#009B3A" stroke="black" stroke-width="0.00625"/>
<path d="M8.31455 8.24766L8.46572 7.96289L8.2583 8.20898V8.27227L8.31455 8.24766Z" fill="#009B3A" stroke="black" stroke-width="0.00625"/>
<path d="M8.59224 8.21954C8.48677 8.24415 8.31802 8.28282 8.21606 8.3215C8.25474 8.20548 8.30044 8.01915 8.32856 7.90314C8.31802 8.00509 8.29341 8.1422 8.30044 8.23361C8.3813 8.24064 8.50435 8.22306 8.59224 8.21954Z" fill="#009B3A" stroke="black" stroke-width="0.00625"/>
<path d="M8.28276 8.31094L8.47612 8.02969L8.23003 8.25821L8.21948 8.32852L8.28276 8.31094Z" fill="#009B3A" stroke="black" stroke-width="0.00625"/>
<path d="M8.55005 8.25119C8.44458 8.28635 8.27935 8.32853 8.18091 8.37072C8.21606 8.25471 8.25122 8.06838 8.27231 7.95236C8.26528 8.05432 8.25122 8.19142 8.25825 8.27932C8.34263 8.28283 8.46216 8.25822 8.55005 8.25119Z" fill="#009B3A" stroke="black" stroke-width="0.00625"/>
<path d="M8.24419 8.35312L8.39185 8.03671L8.18091 8.31093V8.38124L8.24419 8.35312Z" fill="#009B3A" stroke="black" stroke-width="0.00625"/>
<path d="M8.50786 8.29337C8.40239 8.31798 8.23364 8.34962 8.12817 8.38478C8.17388 8.27228 8.22661 8.08595 8.25825 7.97345C8.24419 8.0754 8.21606 8.209 8.21606 8.3004C8.30044 8.31095 8.41997 8.29337 8.50786 8.29337Z" fill="#009B3A" stroke="black" stroke-width="0.00625"/>
<path d="M8.20889 8.38477L8.44795 8.13867L8.1667 8.32148L8.14209 8.3918L8.2124 8.38477" fill="#009B3A"/>
<path d="M8.20889 8.38477L8.44795 8.13867L8.1667 8.32148L8.14209 8.3918L8.2124 8.38477" stroke="black" stroke-width="0.00625"/>
<path d="M8.46211 8.33557C8.35664 8.34963 8.18789 8.36369 8.08594 8.39182C8.13516 8.27932 8.19844 8.10002 8.23711 7.98752C8.21602 8.08596 8.18086 8.22307 8.17383 8.31447C8.25469 8.33205 8.37422 8.32853 8.46211 8.33557Z" fill="#009B3A" stroke="black" stroke-width="0.00625"/>
<path d="M8.16328 8.36016L8.325 8.05078L8.10352 8.31094V8.38125L8.16328 8.36016Z" fill="#009B3A" stroke="black" stroke-width="0.00625"/>
<path d="M8.47266 8.29688C8.35664 8.34609 8.17734 8.41289 8.06836 8.47266C8.10352 8.33203 8.13867 8.11406 8.16328 7.98047C8.15977 8.09648 8.14219 8.2582 8.15273 8.36016C8.24766 8.36016 8.37773 8.31797 8.47617 8.30039" fill="#009B3A"/>
<path d="M8.47266 8.29688C8.35664 8.34609 8.17734 8.41289 8.06836 8.47266C8.10352 8.33203 8.13867 8.11406 8.16328 7.98047C8.15977 8.09648 8.14219 8.2582 8.15273 8.36016C8.24766 8.36016 8.37773 8.31797 8.47617 8.30039" stroke="black" stroke-width="0.00625"/>
<path d="M8.13857 8.45157L8.33545 8.10001L8.07881 8.39883L8.07178 8.48321L8.14209 8.45157" fill="#009B3A"/>
<path d="M8.13857 8.45157L8.33545 8.10001L8.07881 8.39883L8.07178 8.48321L8.14209 8.45157" stroke="black" stroke-width="0.00625"/>
<path d="M8.43057 8.34259C8.31455 8.39532 8.13525 8.47267 8.02979 8.53595C8.05791 8.39532 8.08604 8.18087 8.10361 8.04376C8.10361 8.15978 8.09658 8.3215 8.11064 8.41993C8.20557 8.4129 8.33213 8.3672 8.42705 8.34259" fill="#009B3A"/>
<path d="M8.43057 8.34259C8.31455 8.39532 8.13525 8.47267 8.02979 8.53595C8.05791 8.39532 8.08604 8.18087 8.10361 8.04376C8.10361 8.15978 8.09658 8.3215 8.11064 8.41993C8.20557 8.4129 8.33213 8.3672 8.42705 8.34259" stroke="black" stroke-width="0.00625"/>
<path d="M8.1001 8.50783L8.24072 8.12814L8.02979 8.46564L8.0333 8.5465L8.1001 8.50783Z" fill="#009B3A" stroke="black" stroke-width="0.00625"/>
<path d="M8.37773 8.37423C8.26523 8.43048 8.08594 8.50782 7.98047 8.57111C8.00859 8.43048 8.03672 8.21603 8.05078 8.07892C8.0543 8.19493 8.04727 8.35314 8.06133 8.45509C8.15273 8.44454 8.28281 8.39884 8.37773 8.37423Z" fill="#009B3A" stroke="black" stroke-width="0.00625"/>
<path d="M8.06836 8.55353L8.28633 8.21603L8.00859 8.49025L7.99805 8.57463L8.06836 8.55353Z" fill="#009B3A" stroke="black" stroke-width="0.00625"/>
<path d="M8.36709 8.35664C8.26865 8.4375 8.10693 8.55703 8.01553 8.64844C8.01553 8.50781 7.99443 8.28984 7.98389 8.15625C8.01201 8.26875 8.03662 8.42344 8.07178 8.51484C8.15967 8.4832 8.2792 8.40586 8.37061 8.35664" fill="#009B3A"/>
<path d="M8.36709 8.35664C8.26865 8.4375 8.10693 8.55703 8.01553 8.64844C8.01553 8.50781 7.99443 8.28984 7.98389 8.15625C8.01201 8.26875 8.03662 8.42344 8.07178 8.51484C8.15967 8.4832 8.2792 8.40586 8.37061 8.35664" stroke="black" stroke-width="0.00625"/>
<path d="M8.07891 8.56759L8.10352 8.16681L7.99805 8.55353L8.02617 8.63087L8.07891 8.56759Z" fill="#009B3A" stroke="black" stroke-width="0.00625"/>
<path d="M8.33901 8.39531C8.23706 8.47617 8.07534 8.59219 7.98745 8.68008C7.98745 8.53945 7.96636 8.32852 7.95581 8.19141C7.98042 8.30391 8.00503 8.45859 8.04019 8.55C8.13159 8.51836 8.25112 8.44102 8.33901 8.39531Z" fill="#009B3A" stroke="black" stroke-width="0.00625"/>
<path d="M8.05078 8.63438C8.08476 8.50398 8.11991 8.3739 8.15625 8.24414L7.98047 8.60273L7.99102 8.68359L8.0543 8.63438" fill="#009B3A"/>
<path d="M8.05078 8.63438C8.08476 8.50398 8.11991 8.3739 8.15625 8.24414L7.98047 8.60273L7.99102 8.68359L8.0543 8.63438" stroke="black" stroke-width="0.00625"/>
<path d="M8.32852 8.40234C8.23359 8.49727 8.07891 8.63789 7.99453 8.73984C7.97695 8.59922 7.93477 8.37773 7.91016 8.24414C7.94531 8.35312 7.99102 8.50781 8.03672 8.59922C8.12813 8.55703 8.24062 8.46211 8.32852 8.40234Z" fill="#009B3A" stroke="black" stroke-width="0.00625"/>
<path d="M8.05083 8.68361L8.07192 8.26877L7.96997 8.67307L8.00161 8.75041L8.05435 8.68713" fill="#009B3A"/>
<path d="M8.05083 8.68361L8.07192 8.26877L7.96997 8.67307L8.00161 8.75041L8.05435 8.68713" stroke="black" stroke-width="0.00625"/>
<path d="M8.29678 8.47267C8.19482 8.55705 8.03311 8.68361 7.93818 8.77853C7.93818 8.63088 7.91006 8.40939 7.896 8.26877C7.92764 8.38478 7.95576 8.54299 7.99443 8.63791C8.08584 8.60275 8.20537 8.52189 8.29678 8.47267Z" fill="#009B3A" stroke="black" stroke-width="0.00625"/>
<path d="M8.02256 8.73283L8.1667 8.33908L7.94873 8.69064L7.95576 8.77502L8.02256 8.73283Z" fill="#009B3A" stroke="black" stroke-width="0.00625"/>
<path d="M8.29692 8.47266C8.20552 8.57109 8.06138 8.71523 7.98052 8.81719C7.96646 8.67305 7.92427 8.45156 7.89966 8.31445C7.93481 8.42344 7.977 8.58164 8.02271 8.67305C8.10708 8.63086 8.21255 8.53242 8.29692 8.47266Z" fill="#009B3A" stroke="black" stroke-width="0.00625"/>
<path d="M8.02979 8.75392L8.01221 8.33908L7.94189 8.75041L7.98408 8.82072L8.02979 8.75041" fill="#009B3A"/>
<path d="M8.02979 8.75392L8.01221 8.33908L7.94189 8.75041L7.98408 8.82072L8.02979 8.75041" stroke="black" stroke-width="0.00625"/>
<path d="M8.25112 8.50782C8.16323 8.60274 8.02261 8.74688 7.94526 8.85235C7.92769 8.70469 7.87847 8.48321 7.85034 8.3461C7.88901 8.4586 7.93472 8.6168 7.98394 8.70821C8.0648 8.66251 8.17026 8.56758 8.25112 8.5043" fill="#009B3A"/>
<path d="M8.25112 8.50782C8.16323 8.60274 8.02261 8.74688 7.94526 8.85235C7.92769 8.70469 7.87847 8.48321 7.85034 8.3461C7.88901 8.4586 7.93472 8.6168 7.98394 8.70821C8.0648 8.66251 8.17026 8.56758 8.25112 8.5043" stroke="black" stroke-width="0.00625"/>
<path d="M8.00508 8.79611L8.05078 8.37424L7.92773 8.7715L7.95234 8.85236L8.00508 8.79611Z" fill="#009B3A" stroke="black" stroke-width="0.00625"/>
<path d="M8.23359 8.52187C8.15273 8.62734 8.02266 8.78555 7.95234 8.89453C7.92422 8.75391 7.86094 8.53594 7.82227 8.40234C7.86797 8.50781 7.92773 8.6625 7.98047 8.75039C8.05781 8.69766 8.15625 8.58867 8.23359 8.52187Z" fill="#009B3A" stroke="black" stroke-width="0.00625"/>
<path d="M8.00166 8.83478L7.97705 8.4129L7.92432 8.83126L7.95947 8.90157L8.00166 8.83126" fill="#009B3A"/>
<path d="M8.00166 8.83478L7.97705 8.4129L7.92432 8.83126L7.95947 8.90157L8.00166 8.83126" stroke="black" stroke-width="0.00625"/>
<path d="M8.22656 8.54298C8.14922 8.65548 8.02617 8.82423 7.96289 8.93673C7.92773 8.79611 7.85039 8.58165 7.80469 8.44806C7.85742 8.55353 7.92422 8.7047 7.98047 8.78907C8.05781 8.73282 8.14922 8.62032 8.22656 8.54298Z" fill="#009B3A" stroke="black" stroke-width="0.00625"/>
<path d="M8.02974 8.87344L8.07192 8.45157L7.95239 8.84883L7.977 8.93321L8.02974 8.87344Z" fill="#009B3A" stroke="black" stroke-width="0.00625"/>
<path d="M8.20908 8.58515C8.14229 8.70468 8.03682 8.88749 7.98408 9.01054C7.93486 8.87343 7.84346 8.67304 7.78369 8.54648C7.84697 8.64492 7.92432 8.78554 7.99111 8.86288C8.06143 8.79257 8.14229 8.66953 8.20908 8.58163" fill="#009B3A"/>
<path d="M8.20908 8.58515C8.14229 8.70468 8.03682 8.88749 7.98408 9.01054C7.93486 8.87343 7.84346 8.67304 7.78369 8.54648C7.84697 8.64492 7.92432 8.78554 7.99111 8.86288C8.06143 8.79257 8.14229 8.66953 8.20908 8.58163" stroke="black" stroke-width="0.00625"/>
<path d="M8.01553 8.90859L7.896 8.50781L7.93467 8.92969L7.99092 8.98945L8.01553 8.90859Z" fill="#009B3A" stroke="black" stroke-width="0.00625"/>
<path d="M8.20547 8.63087C8.13516 8.7504 8.02969 8.93321 7.97344 9.05626C7.9207 8.91915 7.8293 8.71876 7.76953 8.59219C7.83281 8.69063 7.91016 8.83126 7.98047 8.9086C8.05078 8.83829 8.13867 8.71524 8.20547 8.63087Z" fill="#009B3A" stroke="black" stroke-width="0.00625"/>
<path d="M8.01909 8.98593L7.9769 8.56406L7.93823 8.98593L7.98042 9.05624L8.01909 8.98593Z" fill="#009B3A" stroke="black" stroke-width="0.00625"/>
<path d="M8.21255 8.66955C8.14224 8.78908 8.02974 8.96486 7.97349 9.08791C7.92427 8.9508 7.83286 8.74689 7.77661 8.62033C7.83989 8.71877 7.91724 8.85939 7.98052 8.93674C8.05786 8.87346 8.14224 8.75041 8.21255 8.66955Z" fill="#009B3A" stroke="black" stroke-width="0.00625"/>
<path d="M8.01567 9.0176L7.93833 8.60275L7.93481 9.02814L7.98052 9.09494L8.01567 9.0176Z" fill="#009B3A" stroke="black" stroke-width="0.00625"/>
<path d="M8.18447 8.72929C8.10713 8.84179 7.9876 9.01054 7.92432 9.13007C7.88213 8.98945 7.80127 8.77851 7.74854 8.65195C7.8083 8.7539 7.87861 8.89804 7.93838 8.98242C8.01572 8.91913 8.11064 8.80663 8.18447 8.72929Z" fill="#009B3A" stroke="black" stroke-width="0.00625"/>
<path d="M7.98052 9.06329L8.01567 8.64142L7.89966 9.0422L7.92778 9.12306L7.98052 9.06329Z" fill="#009B3A" stroke="black" stroke-width="0.00625"/>
<path d="M8.18799 8.73984C8.12471 8.86289 8.01924 9.04922 7.9665 9.17227C7.91377 9.03867 7.81182 8.8418 7.74854 8.71875C7.81885 8.81367 7.89971 8.95078 7.97002 9.02109C8.04033 8.95078 8.12119 8.82422 8.18799 8.73984Z" fill="#009B3A" stroke="black" stroke-width="0.00625"/>
<path d="M7.9665 9.09843L7.83643 8.70468L7.88564 9.12656L7.94189 9.18281L7.9665 9.09843Z" fill="#009B3A" stroke="black" stroke-width="0.00625"/>
<path d="M8.17031 8.77148C8.12461 8.90508 8.05078 9.1125 8.01562 9.24609C7.94531 9.12656 7.81523 8.9543 7.73438 8.84883C7.81523 8.92617 7.91719 9.04219 7.99805 9.09492C8.05781 9.01406 8.11758 8.86992 8.17031 8.77148Z" fill="#009B3A" stroke="black" stroke-width="0.00625"/>
<path d="M8.08252 9.13361L7.94189 8.74338L8.00166 9.16174L8.05791 9.21447L8.08252 9.1301" fill="#009B3A"/>
<path d="M8.08252 9.13361L7.94189 8.74338L8.00166 9.16174L8.05791 9.21447L8.08252 9.1301" stroke="black" stroke-width="0.00625"/>
<path d="M8.17021 8.81369C8.12451 8.94728 8.05068 9.15471 8.01904 9.2883C7.94873 9.16877 7.81514 9.00002 7.73779 8.89455C7.81514 8.97189 7.91709 9.08439 7.99795 9.14064C8.05771 9.05627 8.11748 8.91213 8.17021 8.81369Z" fill="#009B3A" stroke="black" stroke-width="0.00625"/>
<path d="M8.08247 9.19689L7.89966 8.83478L8.00513 9.23907L8.06841 9.28478L8.08247 9.19689Z" fill="#009B3A" stroke="black" stroke-width="0.00625"/>
<path d="M8.15625 8.84531C8.12812 8.98593 8.07891 9.20038 8.06133 9.33749C7.97344 9.23203 7.82578 9.08085 7.73438 8.98593C7.82227 9.05624 7.93828 9.15117 8.02266 9.19687C8.07187 9.10195 8.11406 8.95078 8.15625 8.84531Z" fill="#009B3A" stroke="black" stroke-width="0.00625"/>
<path d="M8.09297 9.25663L7.99805 8.84531L8.01211 9.2707L8.06484 9.33398L8.09297 9.25663Z" fill="#009B3A" stroke="black" stroke-width="0.00625"/>
<path d="M8.15625 8.89102C8.14219 9.03165 8.11055 9.25313 8.11055 9.39376C8.01211 9.29883 7.85039 9.16876 7.75195 9.0879C7.84688 9.14063 7.96992 9.22501 8.05781 9.25665C8.09648 9.15821 8.12812 9.00001 8.15625 8.89102Z" fill="#009B3A" stroke="black" stroke-width="0.00625"/>
<path d="M8.1 9.28478L7.83984 8.98947L8.03672 9.34807L8.10703 9.37267L8.1 9.28478Z" fill="#009B3A" stroke="black" stroke-width="0.00625"/>
<path d="M8.16318 8.94025C8.14561 9.08087 8.11396 9.30236 8.11396 9.44298C8.01553 9.34806 7.85381 9.21798 7.75537 9.13712C7.85029 9.18986 7.97334 9.27423 8.06123 9.30587C8.10342 9.20743 8.13154 9.05275 8.16318 8.94025Z" fill="#009B3A" stroke="black" stroke-width="0.00625"/>
<path d="M8.12812 9.35156C8.06021 9.23502 7.99341 9.11782 7.92773 9L8.0543 9.39727L8.12109 9.43945L8.12812 9.35508" fill="#009B3A"/>
<path d="M8.12812 9.35156C8.06021 9.23502 7.99341 9.11782 7.92773 9L8.0543 9.39727L8.12109 9.43945L8.12812 9.35508" stroke="black" stroke-width="0.00625"/>
<path d="M8.17388 9C8.16333 9.14062 8.14224 9.36562 8.14575 9.50625C8.0438 9.41484 7.87856 9.29531 7.77661 9.22148C7.87153 9.26719 7.9981 9.34453 8.0895 9.36914C8.12466 9.26719 8.14575 9.1125 8.17388 9Z" fill="#009B3A" stroke="black" stroke-width="0.00625"/>
<path d="M8.15625 9.42188C8.14922 9.42188 7.91016 9.10547 7.91016 9.10547L8.08594 9.47813L8.15625 9.50625V9.42188Z" fill="#009B3A" stroke="black" stroke-width="0.00625"/>
<path d="M8.1773 9.0668C8.16675 9.20743 8.14917 9.43243 8.15269 9.57305C8.03342 9.47292 7.90903 9.37904 7.78003 9.2918C7.87495 9.33751 8.00503 9.41133 8.09644 9.43594C8.13159 9.33399 8.14917 9.1793 8.1773 9.0668Z" fill="#009B3A" stroke="black" stroke-width="0.00625"/>
<path d="M8.17725 9.47111L8.00146 9.09845L8.0999 9.50626L8.15967 9.559L8.17725 9.47111Z" fill="#009B3A" stroke="black" stroke-width="0.00625"/>
<path d="M8.18442 9.10547C8.18442 9.25312 8.18794 9.47812 8.20552 9.61523C8.10005 9.54492 7.92075 9.44297 7.81177 9.3832C7.91021 9.41836 8.0438 9.47812 8.1352 9.48867C8.15981 9.3832 8.17036 9.225 8.18091 9.10898" fill="#009B3A"/>
<path d="M8.18442 9.10547C8.18442 9.25312 8.18794 9.47812 8.20552 9.61523C8.10005 9.54492 7.92075 9.44297 7.81177 9.3832C7.91021 9.41836 8.0438 9.47812 8.1352 9.48867C8.15981 9.3832 8.17036 9.225 8.18091 9.10898" stroke="black" stroke-width="0.00625"/>
<path d="M8.20557 9.45704L7.88916 9.24258L8.15635 9.53438L8.23018 9.54141L8.20557 9.45704Z" fill="#009B3A" stroke="black" stroke-width="0.00625"/>
<path d="M8.1915 9.12305C8.20557 9.26719 8.21611 9.49219 8.24072 9.6293C8.10968 9.551 7.97474 9.47942 7.83643 9.41484C7.93486 9.44297 8.07197 9.4957 8.16338 9.50625C8.18447 9.40078 8.18447 9.23906 8.1915 9.12305Z" fill="#009B3A" stroke="black" stroke-width="0.00625"/>
<path d="M8.24072 9.53791L7.97705 9.23557L8.17744 9.59767L8.24775 9.6258L8.24072 9.53791Z" fill="#009B3A" stroke="black" stroke-width="0.00625"/>
<path d="M8.21611 9.17578C8.23369 9.32344 8.25479 9.54492 8.28643 9.68203C8.17041 9.61875 7.9876 9.54141 7.87158 9.48867C7.97705 9.51328 8.11064 9.55898 8.20557 9.5625C8.21963 9.45703 8.2126 9.29531 8.21611 9.17578Z" fill="#009B3A" stroke="black" stroke-width="0.00625"/>
<path d="M8.28984 9.58711L7.98047 9.36914L8.24414 9.66797H8.31445L8.28984 9.58711Z" fill="#009B3A" stroke="black" stroke-width="0.00625"/>
<path d="M8.22666 9.23907C8.25479 9.3797 8.28994 9.60118 8.32861 9.73829C8.20908 9.68204 8.02275 9.62228 7.90674 9.58361C8.00869 9.59767 8.14932 9.62931 8.24072 9.62579C8.24775 9.51681 8.23018 9.35861 8.22666 9.23907Z" fill="#009B3A" stroke="black" stroke-width="0.00625"/>
<path d="M8.325 9.63283L8.06836 9.32697L8.26172 9.69259L8.33203 9.72072L8.325 9.63283Z" fill="#009B3A" stroke="black" stroke-width="0.00625"/>
<path d="M8.24072 9.28126C8.28291 9.41837 8.33916 9.63282 8.39189 9.7629C8.26885 9.72774 8.07549 9.68907 7.95947 9.66446C8.06143 9.66446 8.20205 9.67852 8.29346 9.66446C8.29346 9.55196 8.2583 9.39727 8.24072 9.27774" fill="#009B3A"/>
<path d="M8.24072 9.28126C8.28291 9.41837 8.33916 9.63282 8.39189 9.7629C8.26885 9.72774 8.07549 9.68907 7.95947 9.66446C8.06143 9.66446 8.20205 9.67852 8.29346 9.66446C8.29346 9.55196 8.2583 9.39727 8.24072 9.27774" stroke="black" stroke-width="0.00625"/>
<path d="M8.33906 9.63283L7.98047 9.55548L8.32148 9.72423L8.3918 9.69962L8.33906 9.63283Z" fill="#009B3A" stroke="black" stroke-width="0.00625"/>
<path d="M8.26523 9.32343C8.30742 9.46054 8.36367 9.67499 8.41289 9.80507C8.28984 9.76992 8.09648 9.73124 7.98047 9.70663C8.08242 9.70663 8.22656 9.7207 8.31445 9.70663C8.31445 9.59413 8.2793 9.43945 8.26523 9.31992" fill="#009B3A"/>
<path d="M8.26523 9.32343C8.30742 9.46054 8.36367 9.67499 8.41289 9.80507C8.28984 9.76992 8.09648 9.73124 7.98047 9.70663C8.08242 9.70663 8.22656 9.7207 8.31445 9.70663C8.31445 9.59413 8.2793 9.43945 8.26523 9.31992" stroke="black" stroke-width="0.00625"/>
<path d="M8.39873 9.66798C8.39873 9.67501 8.0542 9.50275 8.0542 9.50275L8.36357 9.75587L8.43389 9.74884L8.39873 9.6715" fill="#009B3A"/>
<path d="M8.39873 9.66798C8.39873 9.67501 8.0542 9.50275 8.0542 9.50275L8.36357 9.75587L8.43389 9.74884L8.39873 9.6715" stroke="black" stroke-width="0.00625"/>
<path d="M8.24766 9.34805C8.31797 9.4711 8.41641 9.67149 8.49375 9.78751C8.36719 9.77696 8.17031 9.78399 8.05078 9.78751C8.14922 9.7629 8.28984 9.74532 8.37422 9.71016C8.35312 9.60469 8.28633 9.45704 8.24766 9.34805Z" fill="#009B3A" stroke="black" stroke-width="0.00625"/>
<path d="M8.45161 9.70665L8.09302 9.60822L8.43052 9.79806L8.50083 9.77697L8.45161 9.70665Z" fill="#009B3A" stroke="black" stroke-width="0.00625"/>
<path d="M8.28623 9.40079C8.35654 9.52383 8.45498 9.72422 8.53232 9.83672C8.40576 9.82969 8.20889 9.83673 8.08936 9.84376C8.19131 9.81915 8.33193 9.79805 8.41631 9.7629C8.38818 9.65743 8.3249 9.50977 8.28271 9.40079" fill="#009B3A"/>
<path d="M8.28623 9.40079C8.35654 9.52383 8.45498 9.72422 8.53232 9.83672C8.40576 9.82969 8.20889 9.83673 8.08936 9.84376C8.19131 9.81915 8.33193 9.79805 8.41631 9.7629C8.38818 9.65743 8.3249 9.50977 8.28271 9.40079" stroke="black" stroke-width="0.00625"/>
<path d="M8.49731 9.73829L8.16333 9.5379L8.45513 9.81915H8.53247L8.49731 9.73829Z" fill="#009B3A" stroke="black" stroke-width="0.00625"/>
<path d="M8.31099 9.43243C8.39185 9.54845 8.51138 9.73478 8.59927 9.84025C8.47271 9.84728 8.28286 9.88243 8.16333 9.90353C8.26177 9.86837 8.39536 9.82618 8.47622 9.77697C8.44106 9.6715 8.3602 9.5379 8.31099 9.43243Z" fill="#009B3A" stroke="black" stroke-width="0.00625"/>
<path d="M8.52192 9.76641L8.16333 9.75938L8.51841 9.86485L8.58169 9.82618L8.52192 9.76641ZM8.73286 8.02266L8.9895 7.97696L8.73286 7.98399L8.68716 8.0086L8.73286 8.02266Z" fill="#009B3A" stroke="black" stroke-width="0.00625"/>
<path d="M8.87339 8.0754C8.79956 8.0543 8.68354 8.01563 8.6062 7.99805C8.70181 7.96013 8.79566 7.9179 8.88745 7.87149C8.82769 7.90665 8.74683 7.95587 8.70112 7.99102C8.74331 8.01915 8.82065 8.05079 8.8769 8.0754" fill="#009B3A"/>
<path d="M8.87339 8.0754C8.79956 8.0543 8.68354 8.01563 8.6062 7.99805C8.70181 7.96013 8.79566 7.9179 8.88745 7.87149C8.82769 7.90665 8.74683 7.95587 8.70112 7.99102C8.74331 8.01915 8.82065 8.05079 8.8769 8.0754" stroke="black" stroke-width="0.00625"/>
<path d="M8.7188 8.02969L8.97192 7.95938L8.71177 7.99454L8.6731 8.02266L8.7188 8.02969Z" fill="#009B3A" stroke="black" stroke-width="0.00625"/>
<path d="M8.8875 8.09648C8.79961 8.08594 8.6625 8.06836 8.57812 8.06836C8.64141 8.01211 8.73281 7.91367 8.78906 7.85742C8.75391 7.91016 8.69062 7.98398 8.66602 8.03672C8.72578 8.06133 8.8207 8.07539 8.8875 8.09648Z" fill="#009B3A" stroke="black" stroke-width="0.00625"/>
<path d="M8.62739 8.05079L8.88755 8.01563L8.63442 8.01212L8.58521 8.03321L8.62739 8.04727" fill="#009B3A"/>
<path d="M8.62739 8.05079L8.88755 8.01563L8.63442 8.01212L8.58521 8.03321L8.62739 8.04727" stroke="black" stroke-width="0.00625"/>
<path d="M8.8208 8.10351C8.73994 8.08945 8.62041 8.06132 8.53955 8.05429C8.61338 8.01913 8.72588 7.94882 8.79619 7.91367C8.74346 7.94882 8.66963 8.00156 8.63096 8.03671C8.68018 8.06132 8.76104 8.08242 8.8208 8.10703" fill="#009B3A"/>
<path d="M8.8208 8.10351C8.73994 8.08945 8.62041 8.06132 8.53955 8.05429C8.61338 8.01913 8.72588 7.94882 8.79619 7.91367C8.74346 7.94882 8.66963 8.00156 8.63096 8.03671C8.68018 8.06132 8.76104 8.08242 8.8208 8.10703" stroke="black" stroke-width="0.00625"/>
<path d="M8.6062 8.04375L8.83472 7.94531L8.58159 8.01562L8.55347 8.04375H8.6062Z" fill="#009B3A" stroke="black" stroke-width="0.00625"/>
<path d="M8.81367 8.13515C8.74336 8.10702 8.64492 8.06132 8.57812 8.04023C8.63086 7.99452 8.70117 7.91015 8.74688 7.86093C8.71172 7.91015 8.66602 7.97695 8.64844 8.02617C8.69063 8.06132 8.76094 8.09999 8.81367 8.13163" fill="#009B3A"/>
<path d="M8.81367 8.13515C8.74336 8.10702 8.64492 8.06132 8.57812 8.04023C8.63086 7.99452 8.70117 7.91015 8.74688 7.86093C8.71172 7.91015 8.66602 7.97695 8.64844 8.02617C8.69063 8.06132 8.76094 8.09999 8.81367 8.13163" stroke="black" stroke-width="0.00625"/>
<path d="M8.61689 8.06132L8.79619 7.98398L8.60283 8.0121L8.57822 8.04726L8.61689 8.06132ZM8.47275 9.73827H8.1001L8.47627 9.8332L8.53955 9.79101L8.46924 9.73827" fill="#009B3A"/>
<path d="M8.47275 9.73827H8.1001L8.47627 9.8332L8.53955 9.79101L8.46924 9.73827M8.61689 8.06132L8.79619 7.98398L8.60283 8.0121L8.57822 8.04726L8.61689 8.06132Z" stroke="black" stroke-width="0.00625"/>
<path d="M8.53594 9.75938L8.15625 9.66797L8.51836 9.84375L8.58867 9.82266L8.53242 9.75234" fill="#009B3A"/>
<path d="M8.53594 9.75938L8.15625 9.66797L8.51836 9.84375L8.58867 9.82266L8.53242 9.75234" stroke="black" stroke-width="0.00625"/>
<path d="M8.5958 9.784L8.22314 9.76291L8.5958 9.87892L8.65908 9.84377L8.5958 9.784Z" fill="#009B3A" stroke="black" stroke-width="0.00625"/>
<path d="M8.36025 9.52032C8.45518 9.62579 8.60283 9.79806 8.70479 9.89298C8.57822 9.91056 8.38838 9.96329 8.27588 9.99142C8.36729 9.94923 8.49736 9.8965 8.57119 9.84376C8.52197 9.74533 8.42354 9.61876 8.36025 9.52032Z" fill="#009B3A" stroke="black" stroke-width="0.00625"/>
<path d="M8.64854 9.80157L8.27588 9.67853L8.62744 9.88947L8.69775 9.87189L8.64854 9.80157Z" fill="#009B3A" stroke="black" stroke-width="0.00625"/>
<path d="M8.39526 9.54492C8.50073 9.63984 8.65894 9.79453 8.76792 9.87891C8.64839 9.91406 8.46909 9.98789 8.36011 10.0336C8.44448 9.97734 8.57105 9.91055 8.63433 9.84727C8.57808 9.75234 8.46558 9.63633 8.39526 9.54492Z" fill="#009B3A" stroke="black" stroke-width="0.00625"/>
<path d="M8.67651 9.82617L8.32495 9.89648L8.69761 9.92109L8.75034 9.86836L8.68003 9.82617" fill="#009B3A"/>
<path d="M8.67651 9.82617L8.32495 9.89648L8.69761 9.92109L8.75034 9.86836L8.68003 9.82617" stroke="black" stroke-width="0.00625"/>
<path d="M8.6062 9.80157L8.23706 9.8297L8.61675 9.8965L8.67651 9.85079L8.6062 9.80157Z" fill="#009B3A" stroke="black" stroke-width="0.00625"/>
<path d="M8.673 9.82267L8.28979 9.76291L8.66597 9.91408L8.73628 9.88596L8.673 9.82267Z" fill="#009B3A" stroke="black" stroke-width="0.00625"/>
<path d="M8.73643 9.84375L8.36377 9.85078L8.74346 9.93516L8.80322 9.89648L8.73291 9.84375H8.73643Z" fill="#009B3A" stroke="black" stroke-width="0.00625"/>
<path d="M8.47964 9.59766C8.58511 9.69609 8.74331 9.85781 8.85229 9.94219C8.72573 9.97031 8.54292 10.0336 8.43042 10.0723C8.51831 10.023 8.64487 9.9668 8.71519 9.90703C8.65894 9.80859 8.54995 9.68906 8.47964 9.59766Z" fill="#009B3A" stroke="black" stroke-width="0.00625"/>
<path d="M8.78911 9.85783L8.40942 9.76291L8.77505 9.94572L8.84536 9.92463L8.78911 9.85783Z" fill="#009B3A" stroke="black" stroke-width="0.00625"/>
<path d="M8.51489 9.61874C8.63091 9.70663 8.79966 9.85077 8.91567 9.9246C8.78104 9.98062 8.64853 10.0416 8.51841 10.1074C8.59927 10.0476 8.7188 9.97031 8.77856 9.90351C8.71528 9.8121 8.59575 9.70663 8.51489 9.61874Z" fill="#009B3A" stroke="black" stroke-width="0.00625"/>
<path d="M8.82422 9.87891L8.47266 9.97383H8.84883L8.89453 9.91758L8.82422 9.88242V9.87891Z" fill="#009B3A" stroke="black" stroke-width="0.00625"/>
<path d="M9.30244 9.35507L9.01768 9.1582L8.73643 9.35507L8.84189 9.03867L8.59229 8.84531H8.90869L9.01768 8.5289L9.12314 8.84531H9.44307L9.19697 9.04218L9.30244 9.35859V9.35507Z" fill="#FEDF00" stroke="black" stroke-width="0.03125"/>
</g>
<defs>
<clipPath id="clip0_14_1170">
<rect width="18" height="18" rx="9" fill="white"/>
</clipPath>
</defs>
</svg>
