<svg width="18" height="18" viewBox="0 0 18 18" fill="none" xmlns="http://www.w3.org/2000/svg">
<g clip-path="url(#clip0_8201_11186)">
<path d="M9 18C13.9706 18 18 13.9706 18 9C18 4.02944 13.9706 0 9 0C4.02944 0 0 4.02944 0 9C0 13.9706 4.02944 18 9 18Z" fill="#F0F0F0"/>
<path d="M18.0002 9C18.0002 4.02947 13.9708 0 9.00023 0C7.2396 0 5.59732 0.506074 4.21012 1.37992L6.18284 2.21808L3.52197 3.34863L6.18284 4.47915L3.52197 5.60964L6.18284 6.74009L3.52197 7.87039L6.18284 9.00063L3.52197 10.1311L6.18284 11.2615L3.52197 12.3918L6.18284 13.5223L3.52197 14.6527L6.18284 15.783L4.211 16.6208C5.59802 17.4942 7.23996 18 9.00023 18C13.9708 18 18.0002 13.9705 18.0002 9Z" fill="#751A46"/>
</g>
<defs>
<clipPath id="clip0_8201_11186">
<rect width="18" height="18" fill="white"/>
</clipPath>
</defs>
</svg>
