<svg width="18" height="18" viewBox="0 0 18 18" fill="none" xmlns="http://www.w3.org/2000/svg">
<g clip-path="url(#clip0_8201_11209)">
<path d="M12.1304 0.559758C11.1553 0.198035 10.1008 4.67921e-09 8.99995 4.67921e-09C7.89906 -3.51516e-05 6.84452 0.198035 5.86953 0.559758L5.08691 8.99996L5.86953 17.4402C6.84448 17.802 7.89903 18 8.99995 18C10.1008 18 11.1554 17.802 12.1304 17.4402L12.9129 9L12.1304 0.559758Z" fill="#FFDA44"/>
<path d="M18 9.00002C18 5.13037 15.5576 1.83142 12.1304 0.559814V17.4403C15.5576 16.1686 17.9999 12.8697 18 9.00002Z" fill="#D80027"/>
<path d="M0 8.99995C0 12.8697 2.44237 16.1685 5.86951 17.4402L5.86955 0.559814C2.44237 1.83142 0 5.13027 0 8.99995H0Z" fill="#0052B4"/>
</g>
<defs>
<clipPath id="clip0_8201_11209">
<rect width="18" height="18" fill="white"/>
</clipPath>
</defs>
</svg>
