<svg width="18" height="18" viewBox="0 0 18 18" fill="none" xmlns="http://www.w3.org/2000/svg">
<g clip-path="url(#clip0_8201_11301)">
<path d="M9 18C13.9706 18 18 13.9706 18 9C18 4.02944 13.9706 0 9 0C4.02944 0 0 4.02944 0 9C0 13.9706 4.02944 18 9 18Z" fill="#F0F0F0"/>
<path d="M9 0C4.02947 0 0 4.02947 0 9C0 10.1009 0.198035 11.1555 0.559793 12.1304H17.4402C17.802 11.1555 18 10.1009 18 9C18 4.02947 13.9705 0 9 0Z" fill="#0052B4"/>
<path d="M8.99978 0C5.13009 0 1.83121 2.44237 0.55957 5.86958H17.44C16.1683 2.44237 12.8695 0 8.99978 0Z" fill="#D80027"/>
<path d="M2.32715 5.08691V9.57658C2.32715 12.1305 5.66351 12.913 5.66351 12.913C5.66351 12.913 8.99984 12.1305 8.99984 9.57658V5.08691H2.32715Z" fill="#D80027"/>
<path d="M3.70703 5.86957H7.6201V4.30434L6.83748 4.69563L5.66358 3.52173L4.48964 4.69563L3.70703 4.30434V5.86957Z" fill="#FFDA44"/>
<path d="M8.21734 10.2017L5.67386 7.6582L3.13037 10.2017L3.96045 11.0318L5.67386 9.31835L7.38727 11.0318L8.21734 10.2017Z" fill="#FFDA44"/>
<path d="M8.21734 7.82605H7.03061C7.09733 7.71088 7.13614 7.5775 7.13614 7.43484C7.13614 7.00255 6.78574 6.65222 6.35353 6.65222C6.05488 6.65222 5.79553 6.8195 5.66359 7.06541C5.53165 6.81953 5.2723 6.65222 4.97365 6.65222C4.54144 6.65222 4.19104 7.00255 4.19104 7.43484C4.19104 7.5775 4.22985 7.71092 4.29657 7.82605H3.13037C3.13037 8.2583 3.50686 8.60867 3.93904 8.60867H3.91298C3.91298 9.04091 4.26335 9.39128 4.6956 9.39128C4.6956 9.77399 4.97045 10.0919 5.33344 10.16L4.7168 11.5523C5.01232 11.6724 5.33527 11.7391 5.67389 11.7391C6.01252 11.7391 6.33546 11.6724 6.63098 11.5523L6.01434 10.16C6.37733 10.092 6.65218 9.77403 6.65218 9.39128C7.08443 9.39128 7.4348 9.04091 7.4348 8.60867H7.40875C7.84089 8.60867 8.21734 8.25826 8.21734 7.82605Z" fill="#F0F0F0"/>
</g>
<defs>
<clipPath id="clip0_8201_11301">
<rect width="18" height="18" fill="white"/>
</clipPath>
</defs>
</svg>
