<svg width="18" height="18" viewBox="0 0 18 18" fill="none" xmlns="http://www.w3.org/2000/svg">
<g clip-path="url(#clip0_8201_11217)">
<path d="M0 9.00002C0 10.5592 0.396668 12.0257 1.09431 13.3044L9 14.087L16.9057 13.3044C17.6033 12.0257 18 10.5592 18 9.00002L9 8.21741L0 9.00002Z" fill="#FFDA44"/>
<path d="M16.9057 4.69564C15.3792 1.89805 12.4114 0 9 0C5.58861 0 2.62076 1.89805 1.09431 4.69564C0.396668 5.97431 0 7.44082 0 9H18C18 7.44082 17.6033 5.97431 16.9057 4.69564Z" fill="#338AF3"/>
<path d="M8.99993 18C12.4113 18 15.3792 16.1019 16.9056 13.3043H1.09424C2.62069 16.1019 5.58854 18 8.99993 18Z" fill="#496E2D"/>
<path d="M10.1738 5.26713L11.273 5.78418L10.6877 6.84871L11.8813 6.6204L12.0325 7.82609L12.8638 6.93931L13.6952 7.82609L13.8464 6.6204L15.0399 6.84864L14.4547 5.78414L15.5538 5.26713L14.4546 4.75016L15.0399 3.68563L13.8464 3.91394L13.6951 2.70825L12.8638 3.59503L12.0325 2.70825L11.8813 3.91394L10.6877 3.68563L11.273 4.7502L10.1738 5.26713Z" fill="#FFDA44"/>
</g>
<defs>
<clipPath id="clip0_8201_11217">
<rect width="18" height="18" fill="white"/>
</clipPath>
</defs>
</svg>
