<svg width="18" height="18" viewBox="0 0 18 18" fill="none" xmlns="http://www.w3.org/2000/svg">
<g clip-path="url(#clip0_14_1113)">
<path d="M0 0H18V18H0V0Z" fill="#20603D"/>
<path d="M0 0H18V13.5H0V0Z" fill="#FAD201"/>
<path d="M0 0H18V9H0V0Z" fill="#00A1DE"/>
<path d="M16.0649 4.70389L14.0549 4.82139L15.9649 5.45638L13.9949 5.04889L15.6774 6.15387L13.8774 5.24889L15.2124 6.75636L13.7099 5.41888L14.6149 7.21885L13.5074 5.53638L13.9124 7.50385L13.2799 5.59638L13.1625 7.60635L13.1375 4.67889L16.0649 4.70389Z" fill="#E5BE01"/>
<path d="M16.0649 4.70391L14.0549 4.58641L15.9649 3.95142L13.9949 4.35892L15.6774 3.25394L13.8774 4.15892L15.2124 2.65145L13.7099 3.98892L14.6149 2.18895L13.5074 3.87143L13.9124 1.90396L13.2799 3.81143L13.1625 1.80146L13.1375 4.72891L16.0649 4.70391Z" fill="#E5BE01"/>
<path d="M10.26 4.70389L12.27 4.82139L10.36 5.45638L12.33 5.04889L10.6475 6.15387L12.4475 5.24889L11.1125 6.75636L12.615 5.41888L11.71 7.21885L12.8175 5.53638L12.4125 7.50385L13.045 5.59638L13.1625 7.60635L13.1875 4.67889L10.26 4.70389Z" fill="#E5BE01"/>
<path d="M10.26 4.70391L12.27 4.58641L10.36 3.95142L12.33 4.35892L10.6475 3.25394L12.4475 4.15892L11.1125 2.65145L12.615 3.98892L11.71 2.18895L12.8175 3.87143L12.4125 1.90396L13.045 3.81143L13.1625 1.80146L13.1875 4.72891L10.26 4.70391Z" fill="#E5BE01"/>
<path d="M13.1624 5.56141C13.636 5.56141 14.0199 5.1775 14.0199 4.70392C14.0199 4.23035 13.636 3.84644 13.1624 3.84644C12.6888 3.84644 12.3049 4.23035 12.3049 4.70392C12.3049 5.1775 12.6888 5.56141 13.1624 5.56141Z" fill="#E5BE01" stroke="#00A1DE" stroke-width="0.151109"/>
</g>
<defs>
<clipPath id="clip0_14_1113">
<rect width="18" height="18" rx="9" fill="white"/>
</clipPath>
</defs>
</svg>
