<svg width="18" height="18" viewBox="0 0 18 18" fill="none" xmlns="http://www.w3.org/2000/svg">
<g clip-path="url(#clip0_8201_11279)">
<path d="M9 18C13.9706 18 18 13.9706 18 9C18 4.02944 13.9706 0 9 0C4.02944 0 0 4.02944 0 9C0 13.9706 4.02944 18 9 18Z" fill="#6DA544"/>
<path d="M5.0874 10.7609C5.0874 11.4092 5.61299 11.9348 6.2613 11.9348H9.78305C9.78305 12.475 10.221 12.913 10.7613 12.913H11.9352C12.4755 12.913 12.9135 12.475 12.9135 11.9348V10.7609H5.0874Z" fill="#F0F0F0"/>
<path d="M13.0111 5.08691V7.82604C13.0111 8.25759 12.6601 8.60866 12.2285 8.60866V9.78256C13.3074 9.78256 14.185 8.90485 14.185 7.82604V5.08691H13.0111Z" fill="#F0F0F0"/>
<path d="M4.59804 7.82616C4.59804 8.25771 4.24697 8.60878 3.81543 8.60878V9.78268C4.89427 9.78268 5.77194 8.90497 5.77194 7.82616V5.08704H4.59804V7.82616Z" fill="#F0F0F0"/>
<path d="M11.25 5.08691H12.4239V7.82604H11.25V5.08691Z" fill="#F0F0F0"/>
<path d="M9.48931 6.65214C9.48931 6.76003 9.40152 6.84778 9.29366 6.84778C9.1858 6.84778 9.09802 6.76 9.09802 6.65214V5.08691H7.92411V6.65214C7.92411 6.76003 7.83633 6.84778 7.72847 6.84778C7.62061 6.84778 7.53282 6.76 7.53282 6.65214V5.08691H6.35889V6.65214C6.35889 7.40733 6.97328 8.02172 7.72847 8.02172C8.01932 8.02172 8.28904 7.93032 8.51108 7.77507C8.73309 7.93028 9.00285 8.02172 9.2937 8.02172C9.35227 8.02172 9.40985 8.01761 9.46649 8.0104C9.38331 8.35314 9.07464 8.60866 8.70673 8.60866V9.78256C9.78557 9.78256 10.6632 8.90485 10.6632 7.82604V6.65214V5.08691H9.48934V6.65214H9.48931Z" fill="#F0F0F0"/>
<path d="M6.35889 8.60864H8.11976V9.78254H6.35889V8.60864Z" fill="#F0F0F0"/>
</g>
<defs>
<clipPath id="clip0_8201_11279">
<rect width="18" height="18" fill="white"/>
</clipPath>
</defs>
</svg>
