<svg width="18" height="18" viewBox="0 0 18 18" fill="none" xmlns="http://www.w3.org/2000/svg">
<g clip-path="url(#clip0_8201_11369)">
<path d="M15.364 15.3641C18.7394 11.9888 18.8727 6.59985 15.7653 3.06458L8.9998 8.99989L3.06445 15.7654C6.59972 18.8728 11.9886 18.7395 15.364 15.3641Z" fill="#496E2D"/>
<path d="M2.63578 2.6358C6.01116 -0.73958 11.4001 -0.872857 14.9353 2.23456L8.99997 9.00009L2.23458 14.9354C-0.872874 11.4001 -0.739562 6.01118 2.63578 2.6358Z" fill="#0052B4"/>
<path d="M14.9351 2.2345L2.23438 14.9353C2.36277 15.0814 2.49608 15.2247 2.63561 15.3641C2.77511 15.5036 2.91844 15.6369 3.06455 15.7654L15.7653 3.0646C15.6369 2.9185 15.5035 2.7752 15.364 2.63566C15.2245 2.49623 15.0812 2.36289 14.9351 2.2345Z" fill="#FFDA44"/>
<path d="M3.79214 3.13013L3.98645 3.72803H4.61507L4.10651 4.09748L4.30074 4.69539L3.79214 4.32586L3.28353 4.69539L3.47784 4.09748L2.96924 3.72803H3.5979L3.79214 3.13013Z" fill="#F0F0F0"/>
<path d="M7.00308 3.13013L7.19738 3.72803H7.82598L7.31741 4.09748L7.51168 4.69539L7.00308 4.32586L6.49447 4.69539L6.68878 4.09748L6.18018 3.72803H6.8088L7.00308 3.13013Z" fill="#F0F0F0"/>
<path d="M3.79214 6.26062L3.98645 6.85852H4.61507L4.10651 7.22801L4.30074 7.82591L3.79214 7.45639L3.28353 7.82591L3.47784 7.22801L2.96924 6.85852H3.5979L3.79214 6.26062Z" fill="#F0F0F0"/>
<path d="M7.00308 6.26062L7.19738 6.85852H7.82598L7.31741 7.22801L7.51168 7.82591L7.00308 7.45639L6.49447 7.82591L6.68878 7.22801L6.18018 6.85852H6.8088L7.00308 6.26062Z" fill="#F0F0F0"/>
<path d="M5.39764 4.69543L5.59195 5.29334H6.22054L5.71197 5.66283L5.90625 6.26073L5.39764 5.8912L4.88904 6.26073L5.08331 5.66283L4.57471 5.29334H5.20337L5.39764 4.69543Z" fill="#F0F0F0"/>
</g>
<defs>
<clipPath id="clip0_8201_11369">
<rect width="18" height="18" fill="white"/>
</clipPath>
</defs>
</svg>
