<svg width="18" height="18" viewBox="0 0 18 18" fill="none" xmlns="http://www.w3.org/2000/svg">
<g clip-path="url(#clip0_8201_11311)">
<path d="M9 18C13.9706 18 18 13.9706 18 9C18 4.02944 13.9706 0 9 0C4.02944 0 0 4.02944 0 9C0 13.9706 4.02944 18 9 18Z" fill="#F0F0F0"/>
<path d="M15.0752 2.36029C13.4742 0.894551 11.3416 0 8.99987 0C8.61652 0 8.23877 0.0241523 7.86801 0.0706641L3.52161 5.08697L0.284668 11.2546C0.493777 12.0653 0.813488 12.8315 1.22598 13.5368L8.99987 9L15.0752 2.36029Z" fill="#FFDA44"/>
<path d="M16.4927 13.9865L3.90088 16.4165C5.35034 17.4149 7.10667 18 8.99984 18C12.126 18 14.8794 16.4059 16.4927 13.9865Z" fill="#6DA544"/>
<path d="M15.0768 2.36145L1.23145 13.5455C1.59359 14.1632 2.02717 14.7338 2.52101 15.246L18.0002 8.99997C18.0002 6.37172 16.8734 4.00683 15.0768 2.36145Z" fill="#D80027"/>
<path d="M0 9.00002C0 9.77862 0.0989297 10.5341 0.284801 11.2546L7.86814 0.0706787C3.43188 0.627343 0 4.41283 0 9.00002Z" fill="#0052B4"/>
</g>
<defs>
<clipPath id="clip0_8201_11311">
<rect width="18" height="18" fill="white"/>
</clipPath>
</defs>
</svg>
