<svg width="18" height="18" viewBox="0 0 18 18" fill="none" xmlns="http://www.w3.org/2000/svg">
<g clip-path="url(#clip0_8201_11490)">
<path d="M9 18C13.9706 18 18 13.9706 18 9C18 4.02944 13.9706 0 9 0C4.02944 0 0 4.02944 0 9C0 13.9706 4.02944 18 9 18Z" fill="#FFDA44"/>
<path d="M7.04349 7.8261H17.9238C17.3485 3.41023 13.5726 0 8.99997 0C8.328 0 7.67342 0.0742852 7.04346 0.213926V7.8261H7.04349Z" fill="#0052B4"/>
<path d="M4.69563 7.82611V1.09436C2.22436 2.44274 0.455262 4.91602 0.0761719 7.82615H4.69563V7.82611Z" fill="#0052B4"/>
<path d="M4.6956 10.174H0.0761719C0.455262 13.0841 2.22436 15.5574 4.69563 16.9057L4.6956 10.174Z" fill="#0052B4"/>
<path d="M7.04346 10.174V17.7861C7.67342 17.9258 8.328 18 8.99997 18C13.5726 18 17.3485 14.5898 17.9238 10.174H7.04346V10.174Z" fill="#0052B4"/>
</g>
<defs>
<clipPath id="clip0_8201_11490">
<rect width="18" height="18" fill="white"/>
</clipPath>
</defs>
</svg>
