<svg width="18" height="18" viewBox="0 0 18 18" fill="none" xmlns="http://www.w3.org/2000/svg">
<g clip-path="url(#clip0_14_1110)">
<mask id="mask0_14_1110" style="mask-type:luminance" maskUnits="userSpaceOnUse" x="0" y="0" width="18" height="19">
<path d="M0.000488281 0H17.999V18.001H0.000488281V0Z" fill="white"/>
</mask>
<g mask="url(#mask0_14_1110)">
<path fill-rule="evenodd" clip-rule="evenodd" d="M-0.703125 0H26.2971V18.001H-0.703125V0Z" fill="white"/>
<path fill-rule="evenodd" clip-rule="evenodd" d="M-0.703125 0H26.2971V8.99923H-0.703125V0Z" fill="#DF0000"/>
<path fill-rule="evenodd" clip-rule="evenodd" d="M5.52496 1.50876C4.81443 1.661 4.17793 2.05311 3.72237 2.61923C3.26681 3.18535 3.01993 3.891 3.02321 4.61765C3.02649 5.34429 3.27972 6.04768 3.74037 6.60967C4.20102 7.17166 4.84103 7.55801 5.5529 7.70383C5.07359 7.8441 4.56824 7.87108 4.07672 7.78263C3.5852 7.69418 3.12096 7.49273 2.72061 7.19416C2.32027 6.89559 1.99478 6.50808 1.76983 6.0622C1.54487 5.61632 1.4266 5.12427 1.42435 4.62486C1.4221 4.12545 1.53592 3.63234 1.75685 3.18445C1.97777 2.73656 2.29975 2.34613 2.69739 2.04397C3.09502 1.7418 3.55743 1.53617 4.04813 1.44329C4.53883 1.35041 5.0444 1.37282 5.52496 1.50876Z" fill="white"/>
<path fill-rule="evenodd" clip-rule="evenodd" d="M4.42757 4.12497L3.94751 3.77445L4.54441 3.76937L4.72729 3.20295L4.91779 3.76937H5.51215L5.03463 4.12497L5.21751 4.69139L4.73237 4.34341L4.24977 4.69393L4.42757 4.12497ZM5.08797 6.07824L4.60537 5.72772L5.20227 5.72264L5.38769 5.15622L5.57565 5.7201H6.17255L5.68995 6.0757L5.87537 6.64212L5.39277 6.29668L4.91017 6.6472L5.08797 6.07824ZM7.27999 6.063L6.79739 5.71248L7.39175 5.7074L7.57717 5.14098L7.76514 5.7074H8.36458L7.88452 6.063L8.06994 6.62942L7.58479 6.28144L7.10219 6.63196L7.27999 6.063ZM7.93278 4.12751L7.45017 3.77699L8.04708 3.77191L8.22996 3.20549L8.42046 3.76937H9.01482L8.5373 4.12497L8.72018 4.69139L8.23504 4.34595L7.75243 4.69647L7.93278 4.12751ZM6.19795 2.84481L5.71535 2.49429L6.31225 2.48921L6.49767 1.92279L6.68563 2.48921H7.28253L6.79993 2.84481L6.98535 3.40869L6.50275 3.06325L6.02015 3.41377L6.19795 2.84481Z" fill="white"/>
</g>
</g>
<defs>
<clipPath id="clip0_14_1110">
<rect width="18" height="18" rx="9" fill="white"/>
</clipPath>
</defs>
</svg>
