<svg width="18" height="18" viewBox="0 0 18 18" fill="none" xmlns="http://www.w3.org/2000/svg">
<g clip-path="url(#clip0_8201_11321)">
<path d="M9 18C13.9706 18 18 13.9706 18 9C18 4.02944 13.9706 0 9 0C4.02944 0 0 4.02944 0 9C0 13.9706 4.02944 18 9 18Z" fill="#F0F0F0"/>
<path d="M0 9.00004C0 4.02947 4.02947 0 9 0C13.9705 0 18 4.02947 18 9.00004" fill="#D80027"/>
<path d="M5.47814 4.69564C5.47814 3.38438 6.39969 2.28898 7.6303 2.02021C7.44116 1.97894 7.24495 1.95654 7.04333 1.95654C5.53052 1.95654 4.3042 3.18286 4.3042 4.69567C4.3042 6.20848 5.53052 7.4348 7.04333 7.4348C7.24488 7.4348 7.44112 7.41241 7.6303 7.3711C6.39969 7.10233 5.47814 6.00693 5.47814 4.69564Z" fill="#F0F0F0"/>
<path d="M9.00011 2.15222L9.19439 2.75005H9.82302L9.31441 3.11958L9.50868 3.71741L9.00011 3.34796L8.49154 3.71741L8.68582 3.11958L8.17725 2.75005H8.80584L9.00011 2.15222Z" fill="#F0F0F0"/>
<path d="M7.47479 3.32605L7.66903 3.92392H8.29766L7.78909 4.29341L7.98336 4.89124L7.47479 4.52178L6.96615 4.89124L7.16046 4.29341L6.65186 3.92392H7.28048L7.47479 3.32605Z" fill="#F0F0F0"/>
<path d="M10.525 3.32605L10.7193 3.92392H11.3479L10.8393 4.29341L11.0336 4.89124L10.525 4.52178L10.0164 4.89124L10.2107 4.29341L9.70215 3.92392H10.3307L10.525 3.32605Z" fill="#F0F0F0"/>
<path d="M9.9381 5.08691L10.1324 5.68478H10.761L10.2524 6.05427L10.4467 6.65211L9.9381 6.28265L9.42953 6.65211L9.6238 6.05427L9.11523 5.68478H9.74379L9.9381 5.08691Z" fill="#F0F0F0"/>
<path d="M8.06167 5.08691L8.25591 5.68478H8.88457L8.37597 6.05427L8.57028 6.65211L8.06167 6.28265L7.55307 6.65211L7.74734 6.05427L7.23877 5.68478H7.8674L8.06167 5.08691Z" fill="#F0F0F0"/>
</g>
<defs>
<clipPath id="clip0_8201_11321">
<rect width="18" height="18" fill="white"/>
</clipPath>
</defs>
</svg>
