<svg width="18" height="18" viewBox="0 0 18 18" fill="none" xmlns="http://www.w3.org/2000/svg">
<g clip-path="url(#clip0_14_1108)">
<mask id="mask0_14_1108" style="mask-type:luminance" maskUnits="userSpaceOnUse" x="-1" y="0" width="19" height="18">
<path d="M-0.000732422 0H17.9982V17.999H-0.000732422V0Z" fill="white"/>
</mask>
<g mask="url(#mask0_14_1108)">
<path fill-rule="evenodd" clip-rule="evenodd" d="M-2.17969 0H33.8219V17.999H-2.17969V0Z" fill="white"/>
<path fill-rule="evenodd" clip-rule="evenodd" d="M-2.17969 12.0017H33.8219V17.9989H-2.17969V12.0017Z" fill="#D50000"/>
<path fill-rule="evenodd" clip-rule="evenodd" d="M-2.17969 6.00085H33.8219V12.0017H-2.17969V6.00085Z" fill="#0000BF"/>
<path fill-rule="evenodd" clip-rule="evenodd" d="M8.02678 3.26827C7.88562 5.43626 7.806 6.6234 7.47664 7.17354C7.11832 7.76349 6.77087 8.19419 5.37742 8.71537C3.9876 8.19419 3.64014 7.76349 3.28183 7.17354C2.95609 6.6234 2.87284 5.43626 2.73169 3.26827L2.93799 3.19951C3.3506 3.07283 3.66186 2.97149 3.88988 2.92806C4.21562 2.85567 4.49431 2.77966 5.3738 2.76157C6.2533 2.77604 6.53199 2.85929 6.85773 2.92806C7.08937 2.97511 7.41149 3.07283 7.82048 3.19951L8.02678 3.27189V3.26827Z" fill="#D50000"/>
<path fill-rule="evenodd" clip-rule="evenodd" d="M7.82409 3.19587C7.69018 5.36024 7.5816 6.35194 7.40425 6.82607C7.06765 7.64404 6.53199 8.09284 5.37742 8.5163C4.22647 8.08922 3.69081 7.64404 3.35059 6.82607C3.17686 6.35194 3.06467 5.36386 2.93799 3.19587C3.34335 3.0692 3.66186 2.97148 3.88987 2.92442C4.21561 2.85566 4.4943 2.77241 5.3738 2.75793C6.2533 2.77241 6.53561 2.85566 6.86135 2.92442C7.09299 2.97148 7.41511 3.0692 7.82409 3.19587Z" fill="#0000BF"/>
<path fill-rule="evenodd" clip-rule="evenodd" d="M5.37748 3.85822L5.43177 3.99213L5.67427 4.0247L5.51863 4.11881L5.67065 4.22015L5.44987 4.25634L5.3811 4.37578L5.30871 4.25272L5.09155 4.22377L5.23633 4.11881L5.09155 4.0247L5.32319 3.98851L5.37748 3.85822Z" fill="#FFDF00"/>
<path fill-rule="evenodd" clip-rule="evenodd" d="M7.32105 6.31574L7.18713 6.20716L7.08941 6.04791L6.9012 5.88142L6.79986 5.71493L6.61166 5.54483L6.51756 5.37834L6.41621 5.29509L6.34745 5.23356L6.17734 5.38196L6.08323 5.54845L5.9638 5.65341L5.83712 5.55206L5.7394 5.38196L5.37746 4.74133L5.01553 5.38196L4.92143 5.55206L4.79113 5.65341L4.67531 5.54483L4.58121 5.38196L4.4111 5.23356L4.34233 5.29509L4.24099 5.37834L4.14689 5.54483L3.95868 5.71493L3.85734 5.88142L3.66552 6.04791L3.57142 6.20716L3.4375 6.31574C3.51476 6.79853 3.74281 7.24448 4.08898 7.58975C4.32062 7.81053 4.79475 8.11094 5.37384 8.31C5.84943 8.1594 6.28915 7.91306 6.66595 7.58613C7.01277 7.24231 7.24206 6.79768 7.32105 6.31574Z" fill="white"/>
<path fill-rule="evenodd" clip-rule="evenodd" d="M5.95657 2.94976L6.01086 3.08005L6.25335 3.11625L6.09772 3.20673L6.24973 3.31169L6.02895 3.34788L5.96019 3.46732L5.8878 3.34426L5.67426 3.31531L5.81903 3.20673L5.67064 3.11625L5.90228 3.08005L5.95657 2.94976ZM4.79838 2.94976L4.85267 3.07643L5.09516 3.11263L4.93953 3.20673L5.09154 3.30807L4.87077 3.34426L4.802 3.4637L4.72599 3.34064L4.51607 3.31169L4.66084 3.20673L4.51245 3.11263L4.74409 3.07643L4.79838 2.94614V2.94976Z" fill="#FFDF00"/>
<path fill-rule="evenodd" clip-rule="evenodd" d="M7.0207 7.13734H6.76011L6.51761 7.11924L6.22445 6.97447L5.89147 6.97809L5.60554 7.11924L5.38114 7.13734L5.15312 7.11924L4.86719 6.97809H4.53784L4.24467 7.12286L4.00217 7.13734H3.73434L3.60767 6.92018L3.61129 6.91294L4.00579 6.97809L4.24467 6.95999L4.53784 6.81522H4.87081L5.16036 6.95999L5.38476 6.97809L5.60916 6.95637L5.89871 6.81884H6.22445L6.52123 6.95999L6.76373 6.97809L7.14376 6.90932L7.151 6.92018L7.0207 7.13734ZM3.98046 7.47394L4.24105 7.45584L4.53422 7.31106H4.86358L5.15312 7.45222L5.37752 7.47394L5.60192 7.45222L5.89147 7.31106H6.22083L6.51399 7.45584L6.7782 7.47394L6.94831 7.26401L6.94107 7.25677L6.76011 7.31106L6.51761 7.29297L6.22445 7.14819H5.89509L5.60554 7.29297L5.38114 7.31106L5.15674 7.29297L4.86719 7.14819H4.53784L4.24467 7.29297L4.00217 7.31106L3.82121 7.26763V7.27487L3.98046 7.47394Z" fill="#0000BF"/>
</g>
</g>
<defs>
<clipPath id="clip0_14_1108">
<rect width="18" height="18" rx="9" fill="white"/>
</clipPath>
</defs>
</svg>
