<svg width="18" height="18" viewBox="0 0 18 18" fill="none" xmlns="http://www.w3.org/2000/svg">
<g clip-path="url(#clip0_14_1136)">
<path d="M0 0H18V18H0V0Z" fill="#EE1C25"/>
<path d="M0 0H18V11.9988H0V0Z" fill="#0B4EA2"/>
<path d="M0 0H18V6.00117H0V0Z" fill="white"/>
<path d="M7.1438 13.9043C5.53013 13.1309 3.22388 11.584 3.22388 8.53242C3.22388 5.48086 3.36802 4.0957 3.36802 4.0957H10.9196C10.9196 4.0957 11.0672 5.48086 11.0672 8.53242C11.0672 11.584 8.75396 13.1273 7.1438 13.9043Z" fill="white"/>
<path d="M7.14385 13.5C5.66377 12.7863 3.54736 11.373 3.54736 8.57109C3.54736 5.76914 3.68096 4.5 3.68096 4.5H10.6067C10.6067 4.5 10.7403 5.77266 10.7403 8.57109C10.7403 11.3695 8.62393 12.7898 7.14385 13.5Z" fill="#EE1C25"/>
<path d="M7.46021 7.83986C7.86099 7.84689 8.64497 7.86095 9.34106 7.62892C9.34106 7.62892 9.31997 7.87501 9.31997 8.16681C9.31997 8.45861 9.34106 8.7047 9.34106 8.7047C8.72907 8.5361 8.09434 8.46491 7.46021 8.49376V10.0406H6.82739V8.49376C6.19325 8.46491 5.55853 8.5361 4.94653 8.7047C4.94653 8.7047 4.96763 8.45861 4.96763 8.16681C4.96763 7.87501 4.94653 7.62892 4.94653 7.62892C5.64614 7.86095 6.42661 7.84689 6.82739 7.83986V6.86603C6.32317 6.85367 5.82047 6.92616 5.34028 7.08048C5.34028 7.08048 5.35786 6.83439 5.35786 6.54259C5.35786 6.25079 5.34028 6.00118 5.34028 6.00118C5.93794 6.20157 6.46177 6.21915 6.82388 6.21212C6.8063 5.6004 6.627 4.82697 6.627 4.82697C6.627 4.82697 6.99614 4.85509 7.1438 4.85509C7.29146 4.85509 7.6606 4.82697 7.6606 4.82697C7.6606 4.82697 7.4813 5.6004 7.46021 6.21564C7.9643 6.23049 8.46723 6.15915 8.94731 6.0047C8.94731 6.0047 8.92974 6.25079 8.92974 6.54259C8.92974 6.83439 8.94731 7.08048 8.94731 7.08048C8.34966 6.88009 7.82583 6.86603 7.46021 6.86954V7.83986Z" fill="white"/>
<path d="M7.1438 9.87189C6.39849 9.87189 5.99771 10.9055 5.99771 10.9055C5.99771 10.9055 5.77622 10.4133 5.16802 10.4133C4.75669 10.4133 4.45435 10.7824 4.26099 11.1234C5.00981 12.3117 6.20513 13.0465 7.1438 13.5C8.08247 13.0465 9.27778 12.3117 10.0266 11.1199C9.83325 10.7824 9.53091 10.4168 9.11958 10.4168C8.51138 10.4168 8.28989 10.909 8.28989 10.909C8.28989 10.909 7.88911 9.87189 7.1438 9.87189Z" fill="#0B4EA2"/>
</g>
<defs>
<clipPath id="clip0_14_1136">
<rect width="18" height="18" rx="9" fill="white"/>
</clipPath>
</defs>
</svg>
