<svg width="18" height="18" viewBox="0 0 18 18" fill="none" xmlns="http://www.w3.org/2000/svg">
<g clip-path="url(#clip0_14_1105)">
<path fill-rule="evenodd" clip-rule="evenodd" d="M0 9H18V18H0V9Z" fill="#19B6EF"/>
<path fill-rule="evenodd" clip-rule="evenodd" d="M0 0H18V9H0V0Z" fill="white"/>
<path fill-rule="evenodd" clip-rule="evenodd" d="M8.89112 12.7195C10.8564 11.25 12.9728 8.24764 10.4942 6.66912C10.0302 6.57772 9.51339 6.60584 9.26378 6.80272C9.1337 6.72538 9.03175 6.73241 8.89816 6.87303C8.80675 6.76053 8.71534 6.7078 8.52198 6.76756C8.34293 6.67009 8.14623 6.60931 7.9434 6.58878C7.74057 6.56826 7.53568 6.5884 7.34073 6.64803C5.17863 7.94881 6.5005 11.0285 8.88761 12.7195H8.89112Z" fill="#FFDD00" stroke="#7D6C00" stroke-width="0.15"/>
<path fill-rule="evenodd" clip-rule="evenodd" d="M12.5261 9.37969C12.5261 9.37969 12.7475 9.08086 12.7546 9.08086C12.9761 8.95078 13.0007 8.78203 13.0007 8.78203C13.2221 8.71172 13.1518 8.53242 13.1694 8.50781C13.2039 8.47367 13.2274 8.42995 13.2368 8.38232C13.2462 8.33468 13.2411 8.28532 13.2221 8.24063C13.2221 8.20898 13.2995 7.92773 13.1905 7.88906C13.1975 7.59023 13.0112 7.61836 12.8636 7.81523C12.7053 7.86094 12.6702 7.99102 12.7229 8.13164C12.519 8.13164 12.512 8.43047 12.5718 8.59922C12.2975 8.59219 12.4522 8.89805 12.4417 8.91563C12.3503 8.95781 12.512 9.39375 12.5261 9.37969ZM10.7928 11.9355L10.9335 12.0199C10.9581 12.1254 11.0565 12.1887 11.1303 12.1711C11.1655 12.3328 11.3413 12.3117 11.4643 12.2168C11.5698 12.3645 11.6928 12.368 11.8616 12.3188C12.0163 12.4313 12.2132 12.382 12.3432 12.2625C12.4839 12.3785 12.5788 12.2977 12.6491 12.1711C12.7581 12.1992 12.846 12.1816 12.8846 12.0727C13.0991 12.0551 12.9901 11.8547 12.8143 11.7668C12.955 11.6473 13.1132 11.3941 12.8917 11.3555C12.8214 11.3063 12.6948 11.3168 12.5964 11.3625C12.5718 11.25 12.4136 11.2219 12.2448 11.3484C12.185 11.2219 11.9811 11.2816 11.8862 11.3695C11.7632 11.2641 11.619 11.2641 11.4046 11.3871L10.7928 11.9355ZM10.7928 11.6086C10.8175 11.468 10.7225 11.2148 10.8702 11.1867C10.8421 10.9547 10.8843 10.691 11.1514 10.7156C11.1971 10.4941 11.1866 10.2867 11.4432 10.2586C11.4432 10.2586 11.6507 9.53789 11.8651 10.0371C11.946 10.1777 11.9319 10.4168 11.7632 10.3711C11.7983 10.5469 11.7386 10.7051 11.5417 10.698C11.6296 10.8246 11.6014 10.9934 11.5065 11.0742L10.7928 11.6086ZM12.0374 10.7156L12.2589 10.6699C12.4874 10.5152 12.5788 10.4555 12.6948 10.6242C12.8846 10.582 13.0675 10.6031 13.0604 10.7543C13.2889 10.7684 13.2854 10.9125 13.2608 11.0285C13.296 11.2289 13.2081 11.4926 13.0675 11.1727C12.6245 10.902 12.3749 10.9371 11.6718 11.0953L12.0374 10.7156ZM12.1534 10.4941C12.1604 10.4871 12.8108 10.3184 12.7405 10.118C12.9233 10.0898 12.962 9.90703 12.969 9.90703C13.3522 9.78398 13.3276 9.5625 13.3276 9.5625C13.4366 9.44297 13.63 9.32695 13.5878 9.11953C13.6018 8.88398 13.6229 8.73633 13.3065 8.89102C13.0675 8.86641 12.9866 9.00352 12.9163 9.20742C12.8038 9.07734 12.6245 9.28828 12.6034 9.47813C12.6034 9.47813 12.3116 9.75937 12.3116 9.76641L12.069 10.2164L12.1534 10.4941Z" fill="#4FD46B" stroke="#3A9D4F" stroke-width="0.15" stroke-linejoin="round"/>
<path fill-rule="evenodd" clip-rule="evenodd" d="M12.1675 9.98788C12.0128 9.87186 11.925 9.73124 11.9566 9.59061C11.8511 9.4535 11.7808 9.36913 11.8793 9.2496L11.8019 8.96835C11.6015 8.89101 11.6859 8.72226 11.7421 8.66249C11.6472 8.53241 11.6437 8.3953 11.7316 8.27226C11.7316 8.02616 11.9039 8.11757 12.048 8.27226C12.048 8.27226 12.2835 8.44101 12.1078 8.59218C12.2835 8.65194 12.3363 8.80311 12.2378 8.8664C12.389 8.93671 12.4136 9.07382 12.3293 9.16522C12.4839 9.28827 12.4242 9.44647 12.4734 9.5871L12.1675 9.98788Z" fill="#4FD46B" stroke="#3A9D4F" stroke-width="0.15" stroke-linejoin="round"/>
<path fill-rule="evenodd" clip-rule="evenodd" d="M12.4453 8.85233C12.4348 8.8453 12.1816 8.52187 12.2519 8.50077C12.2379 8.40233 12.1605 8.29335 12.2062 8.19491C12.0832 8.07187 12.0797 7.92421 12.1746 7.80819C12.0902 7.69218 12.1289 7.53749 12.2449 7.43905C12.2098 7.25272 12.3398 7.20702 12.4559 7.17187C12.5437 6.86952 12.6844 6.94687 12.7652 7.1789C12.8848 7.28437 12.8672 7.44257 12.825 7.5621C12.9656 7.65702 12.8812 7.77655 12.818 7.82929L12.4418 8.85233H12.4453Z" fill="#4FD46B" stroke="#3A9D4F" stroke-width="0.15" stroke-linejoin="round"/>
<path fill-rule="evenodd" clip-rule="evenodd" d="M12.4064 7.24219L12.192 7.02773C12.2447 6.91523 12.2904 6.71133 12.1287 6.62344C12.0408 6.40547 11.6014 6.13828 11.5275 6.65156C11.4572 6.49687 11.3166 6.3457 11.2111 6.525C10.9826 6.32461 10.8596 6.38438 10.9791 6.6375C10.9791 6.6375 10.8736 6.80625 11.1549 6.93633C11.176 6.95742 11.06 7.24219 11.3975 7.24922C11.3342 7.34414 11.4396 7.48125 11.5732 7.4707C11.4748 7.59023 11.64 7.7168 11.742 7.66758C11.6963 7.80117 11.6998 7.86445 11.8826 7.88203L12.0935 8.11758L12.2588 8.34961L12.4029 7.24219H12.4064Z" fill="#4FD46B" stroke="#3A9D4F" stroke-width="0.15" stroke-linejoin="round"/>
<path d="M12.5366 9.24609C12.5437 9.23202 12.9444 8.31445 12.9972 8.0332M12.5753 7.61132C12.5753 7.61132 12.6456 8.36015 12.4593 8.9121M11.3483 6.85546C11.3483 6.85546 12.1675 7.64296 12.2448 7.9664M11.9179 6.77109C11.9179 6.77109 11.9741 7.41796 12.1991 8.05429M13.3663 9.12304C13.3663 9.12304 12.5472 9.8121 12.1464 10.4168M12.5894 11.5418C12.5894 11.5418 11.5101 11.6894 11.0354 11.7M12.2308 12.0059C12.2308 12.0059 10.8948 11.9707 10.7964 11.8758M11.5663 10.2656C11.5663 10.2762 10.8878 11.3977 10.8632 11.7668" stroke="#3A9D4F" stroke-width="0.1375" stroke-linecap="round"/>
<path fill-rule="evenodd" clip-rule="evenodd" d="M8.88389 12.5051C7.46709 11.1691 6.01514 8.65897 7.46006 7.39335C7.71319 7.53749 8.01905 7.40741 8.43389 7.24569C8.56045 7.3828 8.72217 7.41796 8.88037 7.316C9.06319 7.38983 9.19678 7.33007 9.28467 7.23163C9.69248 7.47069 10.2163 7.59374 10.3394 7.35819C11.7597 8.70819 10.3218 11.2254 8.88037 12.5051H8.88389Z" fill="#65C7FF" stroke="#7D6C00" stroke-width="0.15"/>
<path fill-rule="evenodd" clip-rule="evenodd" d="M8.89106 12.4664C8.2432 11.8405 7.70592 11.1095 7.302 10.3043C7.37231 10.241 7.40747 10.2234 7.44614 10.1144C7.65229 10.1513 7.86363 10.1477 8.06841 10.1039C8.12466 10.3184 8.13872 10.4977 8.27231 10.6769L8.5606 10.1144C8.76367 10.1656 8.97627 10.1656 9.17935 10.1144C9.29888 10.2762 9.25669 10.5187 9.46763 10.7016C9.59419 10.3289 9.72075 10.3043 9.84731 10.1039C10.0336 10.1707 10.1532 10.1391 10.3043 10.0934C10.3852 10.1848 10.3465 10.1812 10.4942 10.3184C10.0975 11.1265 9.55384 11.8537 8.89106 12.4629V12.4664Z" fill="#8FC753"/>
<path fill-rule="evenodd" clip-rule="evenodd" d="M7.22456 6.16289C7.22456 6.19646 7.21123 6.22865 7.18749 6.25238C7.16376 6.27612 7.13156 6.28945 7.098 6.28945C7.06443 6.28945 7.03224 6.27612 7.00851 6.25238C6.98477 6.22865 6.97144 6.19646 6.97144 6.16289C6.97144 6.12932 6.98477 6.09713 7.00851 6.0734C7.03224 6.04966 7.06443 6.03633 7.098 6.03633C7.13156 6.03633 7.16376 6.04966 7.18749 6.0734C7.21123 6.09713 7.22456 6.12932 7.22456 6.16289ZM7.09448 5.87109C7.09448 5.90466 7.08115 5.93685 7.05741 5.96059C7.03368 5.98432 7.00149 5.99766 6.96792 5.99766C6.93435 5.99766 6.90216 5.98432 6.87843 5.96059C6.85469 5.93685 6.84136 5.90466 6.84136 5.87109C6.84136 5.83753 6.85469 5.80534 6.87843 5.7816C6.90216 5.75787 6.93435 5.74453 6.96792 5.74453C7.00149 5.74453 7.03368 5.75787 7.05741 5.7816C7.08115 5.80534 7.09448 5.83753 7.09448 5.87109ZM6.93979 5.60391C6.94285 5.62205 6.94191 5.64064 6.93705 5.65839C6.93219 5.67613 6.92351 5.6926 6.91163 5.70665C6.89975 5.7207 6.88495 5.73199 6.86826 5.73973C6.85157 5.74748 6.83339 5.75149 6.81499 5.75149C6.79659 5.75149 6.77841 5.74748 6.76172 5.73973C6.74503 5.73199 6.73023 5.7207 6.71835 5.70665C6.70647 5.6926 6.6978 5.67613 6.69293 5.65839C6.68807 5.64064 6.68713 5.62205 6.69019 5.60391C6.69516 5.5744 6.71042 5.54761 6.73327 5.52829C6.75611 5.50897 6.78507 5.49836 6.81499 5.49836C6.84491 5.49836 6.87387 5.50897 6.89671 5.52829C6.91956 5.54761 6.93483 5.5744 6.93979 5.60391ZM6.83433 5.34375C6.83881 5.36236 6.83901 5.38174 6.83491 5.40044C6.83082 5.41914 6.82254 5.43666 6.8107 5.4517C6.79885 5.46673 6.78375 5.47888 6.76653 5.48724C6.74931 5.49559 6.73042 5.49994 6.71128 5.49994C6.69214 5.49994 6.67325 5.49559 6.65603 5.48724C6.63881 5.47888 6.62371 5.46673 6.61186 5.4517C6.60002 5.43666 6.59174 5.41914 6.58764 5.40044C6.58355 5.38174 6.58375 5.36236 6.58823 5.34375C6.59488 5.31612 6.61064 5.29154 6.63296 5.27396C6.65528 5.25637 6.68286 5.24681 6.71128 5.24681C6.73969 5.24681 6.76728 5.25637 6.7896 5.27396C6.81192 5.29154 6.82768 5.31612 6.83433 5.34375ZM6.8519 5.05898C6.85496 5.07713 6.85402 5.09572 6.84916 5.11346C6.8443 5.13121 6.83562 5.14768 6.82374 5.16173C6.81186 5.17578 6.79706 5.18707 6.78037 5.19481C6.76368 5.20256 6.7455 5.20657 6.7271 5.20657C6.7087 5.20657 6.69052 5.20256 6.67383 5.19481C6.65714 5.18707 6.64234 5.17578 6.63046 5.16173C6.61858 5.14768 6.6099 5.13121 6.60504 5.11346C6.60018 5.09572 6.59924 5.07713 6.6023 5.05898C6.60726 5.02948 6.62253 5.00269 6.64538 4.98337C6.66822 4.96404 6.69718 4.95344 6.7271 4.95344C6.75702 4.95344 6.78598 4.96404 6.80882 4.98337C6.83167 5.00269 6.84693 5.02948 6.8519 5.05898ZM7.51636 4.59141C7.51636 4.60803 7.51308 4.62448 7.50672 4.63984C7.50036 4.65519 7.49104 4.66915 7.47929 4.6809C7.46754 4.69265 7.45358 4.70197 7.43823 4.70833C7.42287 4.7147 7.40642 4.71797 7.3898 4.71797C7.37317 4.71797 7.35672 4.7147 7.34136 4.70833C7.32601 4.70197 7.31205 4.69265 7.3003 4.6809C7.28855 4.66915 7.27923 4.65519 7.27287 4.63984C7.26651 4.62448 7.26323 4.60803 7.26323 4.59141C7.26323 4.55784 7.27657 4.52565 7.3003 4.50191C7.32404 4.47818 7.35623 4.46484 7.3898 4.46484C7.42336 4.46484 7.45555 4.47818 7.47929 4.50191C7.50302 4.52565 7.51636 4.55784 7.51636 4.59141ZM7.26675 4.63359C7.2698 4.65174 7.26887 4.67033 7.264 4.68807C7.25914 4.70582 7.25046 4.72229 7.23858 4.73634C7.2267 4.75039 7.2119 4.76168 7.19521 4.76942C7.17852 4.77716 7.16034 4.78118 7.14194 4.78118C7.12354 4.78118 7.10537 4.77716 7.08868 4.76942C7.07199 4.76168 7.05718 4.75039 7.0453 4.73634C7.03342 4.72229 7.02475 4.70582 7.01988 4.68807C7.01502 4.67033 7.01408 4.65174 7.01714 4.63359C7.02211 4.60409 7.03737 4.5773 7.06022 4.55797C7.08307 4.53865 7.11202 4.52805 7.14194 4.52805C7.17187 4.52805 7.20082 4.53865 7.22367 4.55797C7.24652 4.5773 7.26178 4.60409 7.26675 4.63359ZM6.99605 4.79883C6.99605 4.81545 6.99277 4.83191 6.98641 4.84726C6.98005 4.86262 6.97073 4.87657 6.95898 4.88832C6.94722 4.90007 6.93327 4.9094 6.91792 4.91576C6.90256 4.92212 6.8861 4.92539 6.86948 4.92539C6.85286 4.92539 6.8364 4.92212 6.82105 4.91576C6.80569 4.9094 6.79174 4.90007 6.77999 4.88832C6.76824 4.87657 6.75891 4.86262 6.75255 4.84726C6.74619 4.83191 6.74292 4.81545 6.74292 4.79883C6.74292 4.76526 6.75625 4.73307 6.77999 4.70934C6.80372 4.6856 6.83592 4.67227 6.86948 4.67227C6.90305 4.67227 6.93524 4.6856 6.95898 4.70934C6.98271 4.73307 6.99605 4.76526 6.99605 4.79883ZM7.83628 4.59492C7.83628 4.62849 7.82295 4.66068 7.79921 4.68442C7.77548 4.70815 7.74328 4.72148 7.70972 4.72148C7.67615 4.72148 7.64396 4.70815 7.62022 4.68442C7.59649 4.66068 7.58315 4.62849 7.58315 4.59492C7.58315 4.56136 7.59649 4.52916 7.62022 4.50543C7.64396 4.48169 7.67615 4.46836 7.70972 4.46836C7.74328 4.46836 7.77548 4.48169 7.79921 4.50543C7.82295 4.52916 7.83628 4.56136 7.83628 4.59492ZM8.18433 4.62305C8.18738 4.64119 8.18645 4.65978 8.18158 4.67753C8.17672 4.69527 8.16804 4.71174 8.15616 4.72579C8.14428 4.73984 8.12948 4.75113 8.11279 4.75887C8.0961 4.76662 8.07792 4.77063 8.05952 4.77063C8.04112 4.77063 8.02294 4.76662 8.00625 4.75887C7.98956 4.75113 7.97476 4.73984 7.96288 4.72579C7.951 4.71174 7.94233 4.69527 7.93746 4.67753C7.9326 4.65978 7.93166 4.64119 7.93472 4.62305C7.94137 4.59542 7.95712 4.57084 7.97944 4.55325C8.00176 4.53567 8.02935 4.52611 8.05776 4.52611C8.08618 4.52611 8.11377 4.53567 8.13609 4.55325C8.15841 4.57084 8.17416 4.59542 8.18081 4.62305H8.18433ZM8.4937 4.60547C8.49676 4.62361 8.49582 4.6422 8.49096 4.65995C8.48609 4.67769 8.47742 4.69416 8.46554 4.70821C8.45366 4.72226 8.43885 4.73355 8.42216 4.7413C8.40547 4.74904 8.3873 4.75305 8.3689 4.75305C8.3505 4.75305 8.33232 4.74904 8.31563 4.7413C8.29894 4.73355 8.28414 4.72226 8.27226 4.70821C8.26038 4.69416 8.2517 4.67769 8.24684 4.65995C8.24197 4.6422 8.24104 4.62361 8.24409 4.60547C8.24906 4.57596 8.26432 4.54917 8.28717 4.52985C8.31002 4.51053 8.33897 4.49993 8.3689 4.49993C8.39882 4.49993 8.42777 4.51053 8.45062 4.52985C8.47347 4.54917 8.48873 4.57596 8.4937 4.60547Z" fill="white" stroke="black" stroke-width="0.06875"/>
<path fill-rule="evenodd" clip-rule="evenodd" d="M9.22158 4.40509C9.22158 4.49087 9.18751 4.57314 9.12685 4.63379C9.06619 4.69445 8.98393 4.72853 8.89814 4.72853C8.81236 4.72853 8.7301 4.69445 8.66944 4.63379C8.60878 4.57314 8.57471 4.49087 8.57471 4.40509C8.58303 4.32557 8.62051 4.25196 8.67992 4.19845C8.73932 4.14494 8.81644 4.11533 8.89639 4.11533C8.97634 4.11533 9.05346 4.14494 9.11286 4.19845C9.17226 4.25196 9.20974 4.32557 9.21807 4.40509H9.22158Z" fill="#FFDD00" stroke="#7D6C00" stroke-width="0.06875"/>
<path fill-rule="evenodd" clip-rule="evenodd" d="M9.55903 4.60197C9.55903 4.63553 9.5457 4.66772 9.52196 4.69146C9.49823 4.71519 9.46604 4.72853 9.43247 4.72853C9.3989 4.72853 9.36671 4.71519 9.34298 4.69146C9.31924 4.66772 9.30591 4.63553 9.30591 4.60197C9.30591 4.5684 9.31924 4.53621 9.34298 4.51247C9.36671 4.48874 9.3989 4.4754 9.43247 4.4754C9.46604 4.4754 9.49823 4.48874 9.52196 4.51247C9.5457 4.53621 9.55903 4.5684 9.55903 4.60197ZM9.88599 4.62657C9.88904 4.64472 9.88811 4.66331 9.88324 4.68105C9.87838 4.6988 9.8697 4.71527 9.85782 4.72932C9.84594 4.74337 9.83114 4.75466 9.81445 4.7624C9.79776 4.77015 9.77958 4.77416 9.76118 4.77416C9.74278 4.77416 9.7246 4.77015 9.70791 4.7624C9.69122 4.75466 9.67642 4.74337 9.66454 4.72932C9.65266 4.71527 9.64399 4.6988 9.63912 4.68105C9.63426 4.66331 9.63332 4.64472 9.63638 4.62657C9.64135 4.59707 9.65661 4.57028 9.67946 4.55096C9.7023 4.53163 9.73126 4.52103 9.76118 4.52103C9.7911 4.52103 9.82006 4.53163 9.84291 4.55096C9.86575 4.57028 9.88102 4.59707 9.88599 4.62657ZM10.2024 4.61251C10.2054 4.63066 10.2045 4.64925 10.1996 4.66699C10.1948 4.68474 10.1861 4.70121 10.1742 4.71526C10.1623 4.72931 10.1475 4.7406 10.1309 4.74834C10.1142 4.75608 10.096 4.7601 10.0776 4.7601C10.0592 4.7601 10.041 4.75608 10.0243 4.74834C10.0076 4.7406 9.99283 4.72931 9.98095 4.71526C9.96907 4.70121 9.96039 4.68474 9.95553 4.66699C9.95066 4.64925 9.94973 4.63066 9.95278 4.61251C9.95775 4.58301 9.97302 4.55621 9.99586 4.53689C10.0187 4.51757 10.0477 4.50697 10.0776 4.50697C10.1075 4.50697 10.1365 4.51757 10.1593 4.53689C10.1822 4.55621 10.1974 4.58301 10.2024 4.61251ZM10.4696 4.60197C10.4726 4.62011 10.4717 4.6387 10.4668 4.65645C10.462 4.67419 10.4533 4.69066 10.4414 4.70471C10.4295 4.71876 10.4147 4.73005 10.398 4.73779C10.3814 4.74554 10.3632 4.74955 10.3448 4.74955C10.3264 4.74955 10.3082 4.74554 10.2915 4.73779C10.2748 4.73005 10.26 4.71876 10.2481 4.70471C10.2363 4.69066 10.2276 4.67419 10.2227 4.65645C10.2179 4.6387 10.2169 4.62011 10.22 4.60197C10.2249 4.57246 10.2402 4.54567 10.2631 4.52635C10.2859 4.50702 10.3149 4.49642 10.3448 4.49642C10.3747 4.49642 10.4037 4.50702 10.4265 4.52635C10.4493 4.54567 10.4646 4.57246 10.4696 4.60197ZM10.8036 4.63712C10.8036 4.67069 10.7902 4.70288 10.7665 4.72661C10.7428 4.75035 10.7106 4.76368 10.677 4.76368C10.6434 4.76368 10.6112 4.75035 10.5875 4.72661C10.5638 4.70288 10.5504 4.67069 10.5504 4.63712C10.5504 4.60355 10.5638 4.57136 10.5875 4.54763C10.6112 4.52389 10.6434 4.51056 10.677 4.51056C10.7106 4.51056 10.7428 4.52389 10.7665 4.54763C10.7902 4.57136 10.8036 4.60355 10.8036 4.63712ZM11.0637 4.80236C11.0668 4.8205 11.0658 4.83909 11.061 4.85684C11.0561 4.87458 11.0474 4.89105 11.0356 4.9051C11.0237 4.91915 11.0089 4.93044 10.9922 4.93818C10.9755 4.94593 10.9573 4.94994 10.9389 4.94994C10.9205 4.94994 10.9023 4.94593 10.8856 4.93818C10.869 4.93044 10.8542 4.91915 10.8423 4.9051C10.8304 4.89105 10.8217 4.87458 10.8169 4.85684C10.812 4.83909 10.8111 4.8205 10.8141 4.80236C10.8191 4.77285 10.8343 4.74606 10.8572 4.72674C10.88 4.70742 10.909 4.69681 10.9389 4.69681C10.9688 4.69681 10.9978 4.70742 11.0206 4.72674C11.0435 4.74606 11.0588 4.77285 11.0637 4.80236Z" fill="white" stroke="black" stroke-width="0.06875"/>
<path fill-rule="evenodd" clip-rule="evenodd" d="M7.10156 5.68828L7.425 6.30703H10.3957L10.7367 5.70937C10.5363 5.57227 10.3992 5.4668 10.1145 5.53359C9.94922 5.29805 9.77344 5.25234 9.50977 5.28047C9.43814 5.19735 9.3376 5.14457 9.22852 5.13281L8.60273 5.15039C8.44102 5.16445 8.31445 5.29102 8.30742 5.29102C8.04023 5.25586 7.79766 5.26641 7.73438 5.52305C7.4918 5.46328 7.32305 5.53008 7.10156 5.68828Z" fill="#E40000" stroke="#AC0000" stroke-width="0.15"/>
<path fill-rule="evenodd" clip-rule="evenodd" d="M11.1727 5.07655C11.1758 5.09469 11.1748 5.11329 11.17 5.13103C11.1651 5.14878 11.1564 5.16525 11.1445 5.17929C11.1327 5.19334 11.1179 5.20463 11.1012 5.21238C11.0845 5.22012 11.0663 5.22413 11.0479 5.22413C11.0295 5.22413 11.0113 5.22012 10.9946 5.21238C10.9779 5.20463 10.9631 5.19334 10.9513 5.17929C10.9394 5.16525 10.9307 5.14878 10.9258 5.13103C10.921 5.11329 10.92 5.09469 10.9231 5.07655C10.9281 5.04704 10.9433 5.02025 10.9662 5.00093C10.989 4.98161 11.018 4.97101 11.0479 4.97101C11.0778 4.97101 11.1068 4.98161 11.1296 5.00093C11.1525 5.02025 11.1677 5.04704 11.1727 5.07655ZM11.1938 5.36835C11.1969 5.38649 11.1959 5.40508 11.1911 5.42283C11.1862 5.44057 11.1775 5.45704 11.1656 5.47109C11.1538 5.48514 11.139 5.49643 11.1223 5.50417C11.1056 5.51192 11.0874 5.51593 11.069 5.51593C11.0506 5.51593 11.0324 5.51192 11.0157 5.50417C10.999 5.49643 10.9842 5.48514 10.9724 5.47109C10.9605 5.45704 10.9518 5.44057 10.9469 5.42283C10.9421 5.40508 10.9411 5.38649 10.9442 5.36835C10.9492 5.33884 10.9644 5.31205 10.9873 5.29273C11.0101 5.27341 11.0391 5.2628 11.069 5.2628C11.0989 5.2628 11.1279 5.27341 11.1507 5.29273C11.1736 5.31205 11.1888 5.33884 11.1938 5.36835ZM11.1024 5.64257C11.1054 5.66071 11.1045 5.6793 11.0996 5.69705C11.0948 5.71479 11.0861 5.73126 11.0742 5.74531C11.0623 5.75936 11.0475 5.77065 11.0309 5.77839C11.0142 5.78614 10.996 5.79015 10.9776 5.79015C10.9592 5.79015 10.941 5.78614 10.9243 5.77839C10.9076 5.77065 10.8928 5.75936 10.8809 5.74531C10.8691 5.73126 10.8604 5.71479 10.8555 5.69705C10.8507 5.6793 10.8497 5.66071 10.8528 5.64257C10.8578 5.61306 10.873 5.58627 10.8959 5.56695C10.9187 5.54762 10.9477 5.53702 10.9776 5.53702C11.0075 5.53702 11.0365 5.54762 11.0593 5.56695C11.0822 5.58627 11.0974 5.61306 11.1024 5.64257ZM10.9864 5.86757C10.9909 5.88617 10.9911 5.90556 10.987 5.92425C10.9829 5.94295 10.9746 5.96048 10.9627 5.97551C10.9509 5.99055 10.9358 6.0027 10.9186 6.01105C10.9014 6.01941 10.8825 6.02375 10.8633 6.02375C10.8442 6.02375 10.8253 6.01941 10.8081 6.01105C10.7909 6.0027 10.7758 5.99055 10.7639 5.97551C10.7521 5.96048 10.7438 5.94295 10.7397 5.92425C10.7356 5.90556 10.7358 5.88617 10.7403 5.86757C10.7469 5.83994 10.7627 5.81536 10.785 5.79777C10.8073 5.78019 10.8349 5.77063 10.8633 5.77063C10.8917 5.77063 10.9193 5.78019 10.9417 5.79777C10.964 5.81536 10.9797 5.83994 10.9864 5.86757ZM10.8528 6.14882C10.8528 6.18238 10.8394 6.21457 10.8157 6.23831C10.792 6.26204 10.7598 6.27538 10.7262 6.27538C10.6927 6.27538 10.6605 6.26204 10.6367 6.23831C10.613 6.21457 10.5997 6.18238 10.5997 6.14882C10.5997 6.11525 10.613 6.08306 10.6367 6.05932C10.6605 6.03559 10.6927 6.02225 10.7262 6.02225C10.7598 6.02225 10.792 6.03559 10.8157 6.05932C10.8394 6.08306 10.8528 6.11525 10.8528 6.14882ZM9.09497 5.79022C9.09862 5.8166 9.09657 5.84345 9.08897 5.86896C9.08137 5.89448 9.06838 5.91807 9.05089 5.93815C9.0334 5.95823 9.01181 5.97432 8.98758 5.98535C8.96334 5.99638 8.93703 6.00208 8.9104 6.00208C8.88377 6.00208 8.85746 5.99638 8.83322 5.98535C8.80899 5.97432 8.7874 5.95823 8.76991 5.93815C8.75242 5.91807 8.73943 5.89448 8.73183 5.86896C8.72423 5.84345 8.72218 5.8166 8.72583 5.79022C8.732 5.74565 8.75408 5.70482 8.78801 5.67526C8.82193 5.64571 8.86541 5.62943 8.9104 5.62943C8.95539 5.62943 8.99887 5.64571 9.03279 5.67526C9.06672 5.70482 9.08881 5.74565 9.09497 5.79022ZM9.13013 5.36483C9.13411 5.3965 9.13131 5.42865 9.12191 5.45915C9.11251 5.48966 9.09673 5.51781 9.07562 5.54175C9.0545 5.56568 9.02854 5.58485 8.99945 5.59798C8.97035 5.61111 8.9388 5.6179 8.90688 5.6179C8.87497 5.6179 8.84342 5.61111 8.81432 5.59798C8.78523 5.58485 8.75927 5.56568 8.73815 5.54175C8.71704 5.51781 8.70126 5.48966 8.69186 5.45915C8.68246 5.42865 8.67966 5.3965 8.68364 5.36483C8.68364 5.30516 8.70735 5.24793 8.74954 5.20573C8.79174 5.16354 8.84897 5.13983 8.90864 5.13983C8.96832 5.13983 9.02555 5.16354 9.06774 5.20573C9.10994 5.24793 9.13364 5.30516 9.13364 5.36483H9.13013Z" fill="white" stroke="black" stroke-width="0.06875"/>
<path fill-rule="evenodd" clip-rule="evenodd" d="M9.10205 4.95001C9.10205 5.00363 9.08075 5.05504 9.04284 5.09295C9.00493 5.13086 8.95352 5.15216 8.8999 5.15216C8.84629 5.15216 8.79487 5.13086 8.75696 5.09295C8.71905 5.05504 8.69775 5.00363 8.69775 4.95001C8.69775 4.8964 8.71905 4.84498 8.75696 4.80707C8.79487 4.76916 8.84629 4.74786 8.8999 4.74786C8.95352 4.74786 9.00493 4.76916 9.04284 4.80707C9.08075 4.84498 9.10205 4.8964 9.10205 4.95001Z" fill="white" stroke="black" stroke-width="0.06875"/>
<path fill-rule="evenodd" clip-rule="evenodd" d="M8.83135 4.08868V3.92697H8.69775L8.70127 3.80743H8.81729V3.70197H8.98252V3.79689H9.1126V3.92345H8.97549V4.0922H8.83135V4.08868Z" fill="#FFDD00" stroke="#7D6C00" stroke-width="0.06875"/>
<path d="M7.40746 6.30704C7.14379 5.85353 6.75004 5.24181 6.99262 4.97814C7.33012 4.59493 8.11762 4.94298 8.62035 4.71798C8.65551 5.1504 8.53598 5.86056 8.72933 6.00822L8.55004 6.16642C8.44105 6.02579 8.23363 5.83595 7.97699 6.17345C7.83285 6.04689 7.66762 6.06798 7.59027 6.23673C7.51293 6.24728 7.51996 6.27892 7.40746 6.30704ZM10.4133 6.28947C10.677 5.83947 11.0707 5.22775 10.8282 4.96056C10.4907 4.58087 9.70316 4.9254 9.20043 4.70392C9.16527 5.13282 9.2848 5.84298 9.09144 5.99415L9.27074 6.14884C9.44652 5.90626 9.65746 5.89923 9.84027 6.15939C9.98793 6.02931 10.1391 6.04689 10.2305 6.22267C10.3079 6.23322 10.3008 6.26134 10.4133 6.29298V6.28947Z" stroke="#FFDD00" stroke-width="0.20625"/>
<path fill-rule="evenodd" clip-rule="evenodd" d="M7.40034 6.64453C8.38853 6.55456 9.38285 6.55456 10.371 6.64453L10.4871 6.30703C9.44995 6.11718 8.73276 6.09609 7.37573 6.28242L7.40034 6.64101V6.64453Z" fill="#FFDD00" stroke="#7D6C00" stroke-width="0.15"/>
<path fill-rule="evenodd" clip-rule="evenodd" d="M8.77847 12.3504L8.80308 12.1922C8.90854 12.2238 8.9894 12.2098 9.0773 12.1781L9.1687 12.041L9.09839 11.9602C9.03862 11.9742 8.99292 12.0305 8.95073 12.0797C8.89097 12.0797 8.83823 12.0516 8.77847 12.041L8.72222 11.7985C8.66597 11.7317 8.54644 11.7387 8.57104 11.8582L8.58511 11.9496C8.6062 12.0059 8.61675 12.0867 8.65542 12.1254V12.2238L8.77847 12.3504ZM8.82417 11.6649C8.74331 11.7035 8.64839 11.6367 8.54995 11.5945C8.45854 11.591 8.38472 11.6649 8.27222 11.6438C8.29331 11.584 8.34253 11.5735 8.37769 11.5383C8.35308 11.3836 8.43394 11.3309 8.45855 11.3309C8.47964 11.3309 8.57104 11.3555 8.57104 11.3555L8.66245 11.366C8.7187 11.4645 8.79253 11.5559 8.82417 11.6649Z" fill="#C76E2E"/>
<path fill-rule="evenodd" clip-rule="evenodd" d="M8.27925 13.7285C8.54292 13.2961 10.3886 12.4348 12.1183 10.568C10.3605 12.266 9.25659 12.6809 7.81519 13.718L8.27925 13.7285Z" fill="#FFE100" stroke="#E9BF00" stroke-width="0.15"/>
<path fill-rule="evenodd" clip-rule="evenodd" d="M10.8141 11.7422C10.8141 11.7776 10.8 11.8116 10.7749 11.8367C10.7499 11.8617 10.7159 11.8758 10.6805 11.8758C10.645 11.8758 10.6111 11.8617 10.586 11.8367C10.561 11.8116 10.5469 11.7776 10.5469 11.7422C10.5469 11.7068 10.561 11.6728 10.586 11.6477C10.6111 11.6227 10.645 11.6086 10.6805 11.6086C10.7159 11.6086 10.7499 11.6227 10.7749 11.6477C10.8 11.6728 10.8141 11.7068 10.8141 11.7422ZM12.1043 10.4379C12.1043 10.4785 12.0882 10.5173 12.0595 10.546C12.0308 10.5747 11.9919 10.5908 11.9514 10.5908C11.9108 10.5908 11.8719 10.5747 11.8432 10.546C11.8145 10.5173 11.7984 10.4785 11.7984 10.4379C11.7984 10.3973 11.8145 10.3584 11.8432 10.3298C11.8719 10.3011 11.9108 10.285 11.9514 10.285C11.9919 10.285 12.0308 10.3011 12.0595 10.3298C12.0882 10.3584 12.1043 10.3973 12.1043 10.4379ZM12.5332 9.32695C12.5332 9.36238 12.5191 9.39636 12.4941 9.42142C12.469 9.44647 12.435 9.46055 12.3996 9.46055C12.3642 9.46055 12.3302 9.44647 12.3051 9.42142C12.2801 9.39636 12.266 9.36238 12.266 9.32695C12.266 9.29152 12.2801 9.25754 12.3051 9.23249C12.3302 9.20743 12.3642 9.19336 12.3996 9.19336C12.435 9.19336 12.469 9.20743 12.4941 9.23249C12.5191 9.25754 12.5332 9.29152 12.5332 9.32695ZM12.1113 7.88555C12.1113 7.92098 12.0973 7.95496 12.0722 7.98001C12.0471 8.00507 12.0132 8.01914 11.9777 8.01914C11.9423 8.01914 11.9083 8.00507 11.8833 7.98001C11.8582 7.95496 11.8441 7.92098 11.8441 7.88555C11.8441 7.85012 11.8582 7.81614 11.8833 7.79108C11.9083 7.76603 11.9423 7.75195 11.9777 7.75195C12.0132 7.75195 12.0471 7.76603 12.0722 7.79108C12.0973 7.81614 12.1113 7.85012 12.1113 7.88555Z" fill="#9D4916" stroke="#68300E" stroke-width="0.06875"/>
<path fill-rule="evenodd" clip-rule="evenodd" d="M7.46724 10.1109V9.54141L7.40747 9.49219V9.3586L7.51294 9.34805L7.53403 8.71524L7.46372 8.67657L7.45669 8.5711C7.45669 8.5711 7.53403 8.59923 7.53403 8.57813L7.55161 8.45508C7.55161 8.45508 7.50591 8.44454 7.50591 8.42344C7.50591 8.40235 7.56216 8.35665 7.56216 8.35665C7.56216 8.35665 7.53403 8.32852 7.527 8.31094L7.49536 8.20547L7.52349 8.10001L7.50591 8.04024L7.45669 7.95235L7.527 7.88555L7.50591 7.78008C7.50591 7.76251 7.55161 7.68165 7.56216 7.67462L7.65005 7.5586L7.81177 7.51993L8.00513 7.54805L8.1106 7.61837L8.13169 7.79063C8.13169 7.79063 8.1106 7.8961 8.10356 7.8961L8.01567 7.93126C8.01567 7.93126 7.92075 7.9418 7.91021 7.93126C7.89966 7.92071 7.93833 8.04727 7.93833 8.04727V8.16329L7.92778 8.30743C7.92778 8.30743 7.92778 8.37774 7.92075 8.38477L7.88911 8.42344L7.88208 8.56758L8.03325 8.60626L8.02622 8.69415L7.92075 8.70469L7.93833 9.2918L8.09302 9.31993V9.48516L8.02271 9.52032L8.00513 10.1109H7.46724ZM9.80513 10.118V9.55196L9.74888 9.50274V9.36915L9.85435 9.3586L9.87544 8.72579L9.80513 8.6836L9.7981 8.57813C9.7981 8.57813 9.87544 8.60626 9.87544 8.58868L9.89302 8.46212C9.89302 8.46212 9.8438 8.45508 9.8438 8.43399C9.8438 8.4129 9.90356 8.36719 9.90356 8.36719C9.90356 8.36719 9.87544 8.33907 9.86489 8.31798C9.85435 8.29688 9.83677 8.21251 9.83677 8.21251L9.86489 8.10704L9.8438 8.05079L9.7981 7.9629L9.86489 7.89258L9.8438 7.78712C9.85746 7.74876 9.87769 7.71308 9.90356 7.68165L9.98794 7.56915L10.1532 7.53047L10.3465 7.5586L10.452 7.62891L10.4696 7.79766C10.4696 7.79766 10.452 7.90313 10.4415 7.90313C10.4309 7.90313 10.3536 7.94532 10.3536 7.94532C10.3536 7.94532 10.2586 7.95235 10.2481 7.94532C10.2375 7.93829 10.2797 8.05782 10.2797 8.05782V8.17383L10.2692 8.31798C10.2692 8.31798 10.2692 8.38829 10.2586 8.39532L10.2305 8.43399L10.22 8.57813L10.3747 8.6168L10.3641 8.70469L10.2586 8.71524L10.2797 9.30235L10.4309 9.33047V9.49219L10.3641 9.53087L10.3465 10.118H9.80513ZM8.62388 10.1391V9.56954L8.56411 9.52383V9.38673L8.66958 9.37969L8.69067 8.74337L8.62036 8.70469L8.61333 8.59923C8.61333 8.59923 8.69067 8.62735 8.69067 8.60977L8.70825 8.48321C8.70825 8.48321 8.65903 8.47266 8.65903 8.45508C8.65903 8.43751 8.7188 8.38477 8.7188 8.38477L8.68013 8.33907C8.66958 8.32149 8.652 8.2336 8.652 8.2336L8.68013 8.12813L8.65903 8.06837L8.61333 7.98399L8.68013 7.91368L8.65903 7.80821C8.6727 7.76986 8.69292 7.73417 8.7188 7.70274L8.80669 7.58673L8.96841 7.55157L9.16177 7.57969L9.26724 7.64649L9.28481 7.81876C9.28481 7.81876 9.26724 7.92422 9.25669 7.92422C9.24614 7.92422 9.17231 7.9629 9.17231 7.9629C9.17231 7.9629 9.07388 7.97344 9.06685 7.9629C9.05981 7.95235 9.09497 8.07891 9.09497 8.07891V8.19493L9.08442 8.33555C9.08442 8.33555 9.08442 8.40587 9.07388 8.41641C9.06333 8.42344 9.04575 8.45157 9.04575 8.45157L9.03521 8.59923L9.18989 8.63438L9.17935 8.72227L9.07388 8.73282L9.09497 9.31993L9.24966 9.34805V9.51329L9.17935 9.54844L9.16177 10.1391H8.62388Z" fill="white" stroke="#A9A9A9" stroke-width="0.06875"/>
<path fill-rule="evenodd" clip-rule="evenodd" d="M7.60791 10.1039V9.65741H7.86104V10.125L7.60791 10.1039ZM8.78916 10.1391L8.79971 9.68202H9.02471V10.132L8.79268 10.1426L8.78916 10.1391ZM9.95635 10.132L9.93877 9.70311L10.1778 9.69257V10.1426L9.95635 10.132ZM7.67119 8.7785H7.81182V9.01405H7.67119V8.7785ZM8.81025 8.78905H9.00713V9.01405H8.81025V8.78905ZM9.97041 8.80663H10.1462V9.02108H9.97041V8.80663Z" fill="black"/>
<path d="M7.74487 7.76249C7.89956 7.93475 7.91011 7.93475 7.91011 7.93475M8.89448 7.75897C8.91909 7.81874 8.96831 7.9453 9.02808 7.95233M10.125 7.79061C10.125 7.79061 10.1707 7.92421 10.241 7.94178" stroke="#A8A8A8" stroke-width="0.06875"/>
<path fill-rule="evenodd" clip-rule="evenodd" d="M7.58314 7.27734C8.03314 7.12968 7.47767 6.83789 7.38627 7.27734C7.23861 7.29843 7.22103 7.40742 6.90463 7.3582C6.14174 8.60273 6.70775 10.6031 8.93666 12.6773C4.94291 9.28125 6.56713 6.77109 7.67103 6.86249C8.27221 6.90468 7.96986 7.65351 7.58314 7.27734Z" fill="#B97700"/>
<path d="M7.7063 6.63749C7.7063 6.63749 8.07544 6.73593 8.07544 6.89413M8.07544 6.61288C8.07544 6.61288 8.32856 6.72187 8.38481 6.82382M10.0758 6.65507C10.0758 6.65507 9.75239 6.69374 9.68208 6.7957M9.58364 6.67968C9.58364 6.67968 9.40083 6.83788 9.41489 6.88007M9.54145 7.3582C9.51333 7.34413 9.38677 7.17538 9.41489 6.96445M8.30044 7.2457C8.30044 7.2457 8.38481 7.14726 8.38481 6.96445M8.89106 6.89413L8.90513 7.30195M9.25669 7.2457C9.25669 7.21757 9.37271 6.95038 9.24614 6.82382M8.48325 6.76757C8.48325 6.76757 8.38481 7.03476 8.45513 7.25976M9.20395 7.00663C9.20395 7.00663 9.04927 7.04882 8.97895 7.11913M8.5395 7.04882C8.5395 7.03476 8.70825 7.00663 8.7645 7.10507" stroke="#7D6C00" stroke-width="0.15"/>
<path fill-rule="evenodd" clip-rule="evenodd" d="M8.27217 11.3203C8.2792 11.3203 8.41279 11.2957 8.41279 11.2289C8.48311 11.1867 8.43037 11.0637 8.43037 11.0637L8.30381 11.0391L8.13154 10.8422C8.12451 10.7824 8.14561 10.7262 8.10693 10.6664C7.9874 10.6945 7.92061 10.793 7.87842 10.909C7.91006 10.9441 7.91357 10.9828 7.96631 11.0144C8.02256 11.025 8.06123 10.9933 8.11396 11.0039C8.14209 11.0496 8.13506 11.0918 8.14209 11.134C8.2124 11.1867 8.22998 11.257 8.27217 11.3203ZM8.11748 10.4871V10.2551L7.95225 10.2516C7.93115 10.2867 7.89248 10.3008 7.86787 10.3324L7.75537 10.3887C7.80107 10.4484 7.86084 10.4801 7.896 10.5082C7.98389 10.5328 8.05068 10.5328 8.11748 10.4871ZM7.59717 10.8281L7.50928 10.6769C7.56741 10.6608 7.62928 10.6645 7.68506 10.6875C7.68506 10.6875 7.72373 10.7824 7.69561 10.8176C7.68154 10.8527 7.59365 10.8351 7.59717 10.8281ZM8.96826 10.9828C8.99427 10.9726 9.01727 10.9559 9.0351 10.9344C9.05293 10.9129 9.06501 10.8872 9.07021 10.8598L8.90146 10.6664H8.75381C8.71865 10.6277 8.6624 10.6207 8.6167 10.6207C8.6167 10.6207 8.66592 10.691 8.72568 10.7086C8.77139 10.8035 8.95771 10.9828 8.97178 10.9828H8.96826ZM9.12998 11.0074C9.20187 10.9752 9.27972 10.9584 9.3585 10.9582C9.35147 10.8984 9.46748 10.7578 9.46748 10.7578L9.67842 11.032C9.63975 11.0637 9.57295 11.0531 9.52021 11.0637C9.52021 11.0637 9.41826 11.1621 9.40771 11.1656C9.39717 11.1691 9.21436 11.2113 9.12646 11.1586C9.08428 11.0812 9.1335 10.9933 9.12998 11.0074ZM9.24951 10.5258C9.27412 10.4379 9.28467 10.35 9.24951 10.2445C9.24951 10.2445 9.01045 10.2375 9.01045 10.2445L8.85225 10.3148C8.85225 10.3148 8.90498 10.473 8.96475 10.4555C8.99287 10.5398 9.07373 10.5187 9.1124 10.5469L9.24951 10.5258ZM10.1812 10.2867C10.1495 10.3851 10.1319 10.4906 10.1812 10.5891C10.2233 10.5961 10.2726 10.6242 10.3112 10.6172L10.5046 10.2726C10.371 10.2305 10.2655 10.234 10.1812 10.2867Z" fill="#C76E2E"/>
<path fill-rule="evenodd" clip-rule="evenodd" d="M10.241 7.24218C9.79097 7.10155 10.3464 6.80624 10.4378 7.24218C10.5855 7.26679 10.6031 7.37577 10.9195 7.33007C11.6789 8.57108 11.1164 10.575 8.88745 12.6457C12.8777 9.2496 11.257 6.73944 10.1531 6.83085C9.54839 6.87304 9.85425 7.62186 10.241 7.24569V7.24218Z" fill="#B97700"/>
<path fill-rule="evenodd" clip-rule="evenodd" d="M10.2868 10.6734C10.2798 10.6734 10.1708 10.7543 10.1708 10.7543L10.0161 10.8141L9.85089 10.8176L9.81574 10.7051L9.9423 10.5926C9.83683 10.575 9.72784 10.6172 9.64347 10.698C9.64347 10.698 9.64347 10.8211 9.71378 10.8844C9.76598 10.9391 9.8224 10.9897 9.88253 11.0355C9.96339 11.0496 10.0372 11.0355 10.09 10.9969L10.2868 10.6734ZM9.41495 11.8055C9.46769 11.8195 9.84034 11.3273 9.84034 11.3273C9.80719 11.2388 9.74193 11.166 9.65753 11.1234C9.65753 11.1234 9.47472 11.3344 9.4712 11.4082C9.44308 11.475 9.36222 11.7246 9.39738 11.7562C9.39386 11.7633 9.3798 11.8617 9.41495 11.8055Z" fill="#C76E2E"/>
<path fill-rule="evenodd" clip-rule="evenodd" d="M6.98901 11.9039C6.43354 11.4188 5.6812 11.1516 4.63354 11.5172C4.91479 11.6367 5.22065 11.6789 5.48081 11.809L6.98901 11.9039Z" fill="#006800" stroke="#004100" stroke-width="0.15" stroke-linejoin="round"/>
<path d="M5.37891 11.5594C6.47578 11.5805 6.7957 11.8547 6.73594 11.809" stroke="#00A400" stroke-width="0.1375" stroke-linecap="round"/>
<path fill-rule="evenodd" clip-rule="evenodd" d="M7.01016 11.9602C6.6832 12.0234 6.22969 12.3398 6.09609 12.3258C5.74102 12.2836 5.40352 12.1359 5.05898 12.027C4.91484 11.9812 4.7707 12.027 4.62305 12.027C5.85352 11.4434 6.27539 11.5242 7.01367 11.9566L7.01016 11.9602Z" fill="#006800" stroke="#004100" stroke-width="0.1375" stroke-linejoin="round"/>
<path fill-rule="evenodd" clip-rule="evenodd" d="M6.20161 11.1024C6.20161 11.1024 5.79028 11.1586 5.60395 11.1727C5.42466 11.1586 5.15747 10.9899 4.86567 10.6805C4.71099 10.5117 4.36294 10.5328 4.36294 10.5328C5.13638 10.3676 5.73403 10.5223 6.20161 11.1024ZM5.63911 10.3043C5.08013 10.2692 4.38403 9.76642 4.22583 9.17228C4.22583 9.18282 4.42974 9.30236 4.3981 9.334C5.31216 9.56603 5.37544 9.75236 5.64263 10.3043H5.63911ZM6.57778 11.2641C6.65864 10.7578 6.68325 10.4203 6.43716 10.1215C6.2438 9.89298 6.19106 9.75587 6.05044 9.43595C6.01177 10.1039 5.86763 10.6524 6.57778 11.2641ZM5.69888 9.85782C6.11372 9.25314 6.18403 8.79611 6.12075 8.07892C6.07668 8.21969 6.02263 8.35715 5.95903 8.49025C5.3438 8.87697 5.61802 9.48165 5.69888 9.86134V9.85782Z" fill="#006800" stroke="#004100" stroke-width="0.15" stroke-linejoin="round"/>
<path fill-rule="evenodd" clip-rule="evenodd" d="M5.33308 6.93634C5.74793 7.54103 5.68464 8.11056 5.61785 8.83126C5.57484 8.69061 5.52197 8.55316 5.45964 8.41993C4.84089 8.03322 5.25222 7.31251 5.33308 6.93634Z" fill="#006800" stroke="#004100" stroke-width="0.15" stroke-linejoin="round"/>
<path fill-rule="evenodd" clip-rule="evenodd" d="M5.67432 7.87499C6.67979 7.36523 6.29307 6.72187 6.47588 6.22617C5.77979 6.74648 5.68838 7.29843 5.67432 7.87148V7.87499Z" fill="#006800" stroke="#004100" stroke-width="0.15" stroke-linejoin="round"/>
<path d="M5.81128 7.74492C5.93784 7.39335 6.18745 6.78867 6.21206 6.78867M5.51597 8.49023C5.49136 8.2371 5.36831 7.5621 5.35425 7.49531" stroke="#00A400" stroke-width="0.1375" stroke-linecap="round"/>
<path fill-rule="evenodd" clip-rule="evenodd" d="M5.56172 9.61874C4.99922 9.58358 4.39805 8.82069 4.23633 8.22655C4.23633 8.23358 4.44375 8.35311 4.40859 8.38475C5.21016 8.74335 5.29453 9.06678 5.56172 9.61522V9.61874ZM5.39648 9.09139C4.98164 8.48671 4.90781 8.02968 4.97461 7.31249C4.98516 7.36874 5.12227 7.72382 5.13281 7.72382C5.74805 8.11053 5.47383 8.71522 5.39648 9.09491V9.09139ZM5.76562 8.03319C6.80625 7.57264 6.48633 7.08749 6.7957 6.58124C6.09961 7.09803 5.77617 7.46014 5.76562 8.03319Z" fill="#006800" stroke="#004100" stroke-width="0.15" stroke-linejoin="round"/>
<path d="M5.81128 7.92773C6.23315 7.50586 6.38433 7.1543 6.38433 7.1543" stroke="#00A400" stroke-width="0.1375" stroke-linecap="round"/>
<path fill-rule="evenodd" clip-rule="evenodd" d="M9.50627 13.7391L10.0125 13.7496C8.33557 12.1746 5.11526 11.4891 5.56526 8.5957C5.09768 11.7352 8.19143 12.0234 9.50627 13.7391Z" fill="#FFE100" stroke="#E9BF00" stroke-width="0.15"/>
<path fill-rule="evenodd" clip-rule="evenodd" d="M5.82886 7.97343C5.82886 7.99466 5.82467 8.01569 5.81655 8.03531C5.80842 8.05493 5.79651 8.07276 5.78149 8.08778C5.76647 8.10279 5.74865 8.11471 5.72903 8.12283C5.7094 8.13096 5.68838 8.13514 5.66714 8.13514C5.6459 8.13514 5.62487 8.13096 5.60525 8.12283C5.58563 8.11471 5.5678 8.10279 5.55279 8.08778C5.53777 8.07276 5.52586 8.05493 5.51773 8.03531C5.5096 8.01569 5.50542 7.99466 5.50542 7.97343C5.50542 7.93054 5.52246 7.8894 5.55279 7.85907C5.58311 7.82874 5.62425 7.81171 5.66714 7.81171C5.71003 7.81171 5.75116 7.82874 5.78149 7.85907C5.81182 7.8894 5.82886 7.93054 5.82886 7.97343ZM5.73042 8.85936C5.73042 8.89992 5.71431 8.93882 5.68563 8.9675C5.65695 8.99618 5.61805 9.01229 5.57749 9.01229C5.53693 9.01229 5.49803 8.99618 5.46935 8.9675C5.44067 8.93882 5.42456 8.89992 5.42456 8.85936C5.42456 8.8188 5.44067 8.77991 5.46935 8.75123C5.49803 8.72255 5.53693 8.70643 5.57749 8.70643C5.61805 8.70643 5.65695 8.72255 5.68563 8.75123C5.71431 8.77991 5.73042 8.8188 5.73042 8.85936ZM5.87104 10.125C5.87104 10.1604 5.85697 10.1944 5.83192 10.2195C5.80686 10.2445 5.77288 10.2586 5.73745 10.2586C5.70202 10.2586 5.66804 10.2445 5.64299 10.2195C5.61793 10.1944 5.60386 10.1604 5.60386 10.125C5.60386 10.0896 5.61793 10.0556 5.64299 10.0305C5.66804 10.0055 5.70202 9.99139 5.73745 9.99139C5.77288 9.99139 5.80686 10.0055 5.83192 10.0305C5.85697 10.0556 5.87104 10.0896 5.87104 10.125ZM7.04526 11.5207C7.04526 11.5566 7.031 11.591 7.00562 11.6164C6.98024 11.6418 6.94581 11.656 6.90991 11.656C6.87401 11.656 6.83959 11.6418 6.8142 11.6164C6.78882 11.591 6.77456 11.5566 6.77456 11.5207C6.77456 11.4848 6.78882 11.4504 6.8142 11.425C6.83959 11.3996 6.87401 11.3853 6.90991 11.3853C6.94581 11.3853 6.98024 11.3996 7.00562 11.425C7.031 11.4504 7.04526 11.4848 7.04526 11.5207ZM7.21401 11.9215C7.21401 11.9569 7.19994 11.9909 7.17488 12.0159C7.14983 12.041 7.11585 12.0551 7.08042 12.0551C7.04499 12.0551 7.01101 12.041 6.98595 12.0159C6.9609 11.9909 6.94683 11.9569 6.94683 11.9215C6.94683 11.886 6.9609 11.8521 6.98595 11.827C7.01101 11.802 7.04499 11.7879 7.08042 11.7879C7.11585 11.7879 7.14983 11.802 7.17488 11.827C7.19994 11.8521 7.21401 11.886 7.21401 11.9215Z" fill="#9D4916" stroke="#68300E" stroke-width="0.06875"/>
<path fill-rule="evenodd" clip-rule="evenodd" d="M7.80488 13.0886C7.72957 13.0312 7.66926 12.9564 7.6291 12.8707L7.10176 12.8109L7.09473 13.1133L7.8084 13.0886H7.80488Z" fill="white" stroke="black" stroke-width="0.06875"/>
<path fill-rule="evenodd" clip-rule="evenodd" d="M3.9481 12.7336C4.25396 12.7898 4.7145 12.7055 4.86567 12.9023C5.04849 13.1062 4.30317 13.4226 4.40864 13.5984C4.63716 13.8445 4.87622 13.7426 5.13286 13.609C5.19614 13.4754 5.24185 13.2398 5.27349 13.1695C5.18208 12.9551 4.92896 12.8496 4.99224 12.5226C5.42114 12.3609 6.24028 12.375 6.32817 12.4383C6.39849 12.5719 6.33521 12.6351 6.34927 12.7441C6.27896 12.8777 6.09614 13.1098 6.09614 13.2363C6.54263 13.391 6.65864 13.2082 7.06294 13.2187C7.53403 13.2258 7.82231 13.3523 7.92427 13.166C7.85395 13.0043 7.42153 13.1344 7.2563 13.0289C7.17544 13.0008 7.12271 12.9375 7.05239 12.8637C6.98208 12.7898 6.78169 12.7863 6.75005 12.607C6.83442 12.2238 7.38638 12.2836 7.47778 12.2238L8.91919 12.3223C9.17935 12.3152 9.327 12.7863 8.97544 12.9269C8.62388 13.0676 7.57974 12.716 7.12974 12.9621C7.10513 12.8601 6.77817 12.7125 6.75708 12.7055C6.61646 12.7476 6.34927 12.7336 6.34927 12.7336C6.28247 12.8566 6.20864 12.9445 6.14185 13.0676C5.84302 12.9375 5.56177 13.1695 5.23481 13.1027L4.72505 13.1555L4.40161 13.1273L3.90942 13.268L4.26099 12.9586L3.9481 12.7336Z" fill="white" stroke="black" stroke-width="0.06875" stroke-linejoin="round"/>
<path fill-rule="evenodd" clip-rule="evenodd" d="M3.92705 12.6738C3.93022 12.6934 3.92909 12.7135 3.92375 12.7326C3.91841 12.7517 3.90897 12.7695 3.8961 12.7846C3.88323 12.7997 3.86723 12.8118 3.8492 12.8202C3.83118 12.8285 3.81156 12.8328 3.7917 12.8328C3.77184 12.8328 3.75222 12.8285 3.7342 12.8202C3.71617 12.8118 3.70017 12.7997 3.6873 12.7846C3.67443 12.7695 3.66499 12.7517 3.65965 12.7326C3.6543 12.7135 3.65318 12.6934 3.65635 12.6738C3.66155 12.6417 3.67802 12.6124 3.70282 12.5913C3.72762 12.5702 3.75913 12.5586 3.7917 12.5586C3.82427 12.5586 3.85578 12.5702 3.88058 12.5913C3.90538 12.6124 3.92185 12.6417 3.92705 12.6738ZM3.89189 13.3453C3.89189 13.3817 3.87745 13.4165 3.85174 13.4423C3.82602 13.468 3.79115 13.4824 3.75479 13.4824C3.71842 13.4824 3.68355 13.468 3.65783 13.4423C3.63212 13.4165 3.61768 13.3817 3.61768 13.3453C3.61768 13.3089 3.63212 13.2741 3.65783 13.2484C3.68355 13.2226 3.71842 13.2082 3.75479 13.2082C3.79115 13.2082 3.82602 13.2226 3.85174 13.2484C3.87745 13.2741 3.89189 13.3089 3.89189 13.3453Z" fill="white" stroke="black" stroke-width="0.06875"/>
<path fill-rule="evenodd" clip-rule="evenodd" d="M9.98438 13.0922C10.0723 13.0113 10.125 12.9586 10.1602 12.8707L10.6875 12.8144L10.698 13.1168L9.98438 13.0922Z" fill="white" stroke="black" stroke-width="0.06875"/>
<path fill-rule="evenodd" clip-rule="evenodd" d="M13.841 12.7371C13.5352 12.7933 13.0746 12.709 12.9269 12.9058C12.7441 13.1097 13.4894 13.4262 13.384 13.6019C13.1519 13.848 12.9164 13.7461 12.6562 13.6125C12.5965 13.4789 12.5508 13.2433 12.5156 13.173C12.6105 12.9586 12.8637 12.8496 12.7969 12.5226C12.3715 12.3644 11.5523 12.3785 11.4609 12.4383C11.3906 12.5754 11.4574 12.6387 11.4434 12.7441C11.5137 12.8847 11.693 13.1133 11.693 13.2363C11.2465 13.3945 11.1305 13.2117 10.7262 13.2222C10.2551 13.2293 9.96679 13.3558 9.86484 13.166C9.93515 13.0043 10.3676 13.1379 10.5328 13.0324C10.6137 13.0043 10.6664 12.9375 10.7402 12.8672C10.8141 12.7969 11.0109 12.7898 11.0391 12.6105C10.9547 12.2273 10.4027 12.2871 10.3113 12.2273L8.86992 12.3258C8.60976 12.3187 8.46562 12.7898 8.81718 12.9305C9.16874 13.0711 10.2094 12.7195 10.6629 12.9621C10.6875 12.8637 11.0109 12.716 11.0355 12.709C11.1727 12.7512 11.4434 12.7371 11.4434 12.7371C11.5066 12.8566 11.584 12.948 11.6508 13.0711C11.9496 12.9375 12.2309 13.173 12.5578 13.1062L13.0641 13.159L13.391 13.1308L13.8832 13.2715L13.5316 12.9621L13.841 12.7371Z" fill="white" stroke="black" stroke-width="0.06875" stroke-linejoin="round"/>
<path fill-rule="evenodd" clip-rule="evenodd" d="M13.8656 12.6738C13.8624 12.6934 13.8635 12.7135 13.8689 12.7326C13.8742 12.7517 13.8837 12.7695 13.8965 12.7846C13.9094 12.7997 13.9254 12.8118 13.9434 12.8202C13.9615 12.8285 13.9811 12.8328 14.0009 12.8328C14.0208 12.8328 14.0404 12.8285 14.0584 12.8202C14.0765 12.8118 14.0925 12.7997 14.1053 12.7846C14.1182 12.7695 14.1276 12.7517 14.133 12.7326C14.1383 12.7135 14.1394 12.6934 14.1363 12.6738C14.1363 12.6375 14.1218 12.6026 14.0961 12.5769C14.0704 12.5512 14.0355 12.5367 13.9992 12.5367C13.9628 12.5367 13.9279 12.5512 13.9022 12.5769C13.8765 12.6026 13.8621 12.6375 13.8621 12.6738H13.8656ZM13.9007 13.3488C13.8976 13.3684 13.8987 13.3885 13.904 13.4076C13.9094 13.4267 13.9188 13.4445 13.9317 13.4596C13.9446 13.4747 13.9606 13.4868 13.9786 13.4952C13.9966 13.5035 14.0162 13.5078 14.0361 13.5078C14.0559 13.5078 14.0756 13.5035 14.0936 13.4952C14.1116 13.4868 14.1276 13.4747 14.1405 13.4596C14.1534 13.4445 14.1628 13.4267 14.1681 13.4076C14.1735 13.3885 14.1746 13.3684 14.1714 13.3488C14.1662 13.3167 14.1498 13.2874 14.125 13.2663C14.1002 13.2452 14.0687 13.2336 14.0361 13.2336C14.0035 13.2336 13.972 13.2452 13.9472 13.2663C13.9224 13.2874 13.9059 13.3167 13.9007 13.3488Z" fill="white" stroke="black" stroke-width="0.06875"/>
<path fill-rule="evenodd" clip-rule="evenodd" d="M8.8877 12.3504C8.76465 12.3258 8.72246 12.3328 8.6416 12.3258L8.44824 12.9199C8.74355 12.9445 9.02129 12.9445 9.02129 12.9445C8.84199 12.9094 8.88418 12.3539 8.8877 12.3469V12.3504Z" fill="white"/>
<path d="M7.62891 12.7617V12.3574H7.69922V12.6949H7.88906V12.7582L7.62891 12.7617Z" fill="black"/>
<path d="M7.94531 12.7793V12.375H8.01562V12.7758L7.94531 12.7793Z" fill="black"/>
<path d="M8.25464 12.8074H8.13159V12.4102L8.25112 12.4031C8.29097 12.4031 8.32144 12.4113 8.34253 12.4277C8.36597 12.4488 8.37769 12.4758 8.37769 12.5086C8.37769 12.5391 8.36245 12.5637 8.33198 12.5824C8.3812 12.6012 8.40581 12.6363 8.40581 12.6879C8.40581 12.7277 8.39175 12.7582 8.36362 12.7793C8.33784 12.7981 8.30269 12.8074 8.25815 12.8074H8.25464ZM8.20542 12.4664V12.5578H8.24058C8.28511 12.5578 8.30737 12.5414 8.30737 12.5086C8.30737 12.4805 8.28628 12.4664 8.24409 12.4664H8.20894H8.20542ZM8.20542 12.6141V12.7477H8.24058C8.27104 12.7477 8.29331 12.743 8.30737 12.7336C8.32378 12.7266 8.33198 12.7102 8.33198 12.6844C8.33198 12.6609 8.32495 12.6445 8.31089 12.6352C8.29917 12.6211 8.27573 12.6141 8.24058 12.6141H8.20542Z" fill="black"/>
<path d="M8.57461 12.491V12.5895H8.70469V12.6528H8.57812V12.7723H8.76445V12.832H8.50781V12.4348H8.76094V12.4981L8.57461 12.491Z" fill="black"/>
<path d="M9.08789 12.8391L8.98242 12.6703H8.92969V12.8391H8.85938V12.4453H8.90508L8.96836 12.4383C9.07148 12.4383 9.12305 12.4781 9.12305 12.5578C9.12305 12.5813 9.11719 12.6012 9.10547 12.6176C9.08906 12.641 9.07031 12.6563 9.04922 12.6633L9.17578 12.8426L9.08789 12.8391ZM8.92969 12.5016V12.607H8.96484L9.02461 12.6035C9.04102 12.5942 9.04922 12.5777 9.04922 12.5543C9.04922 12.5309 9.04336 12.5156 9.03164 12.5086C9.01523 12.5016 8.98945 12.4981 8.9543 12.4981H8.92969V12.5016Z" fill="black"/>
<path d="M9.37266 12.491V12.8285H9.30234V12.491H9.17578V12.4277H9.50625V12.491H9.37266Z" fill="black"/>
<path d="M9.78057 12.7723L9.74893 12.6914H9.6083L9.58721 12.7723H9.50635L9.66807 12.3645H9.69971L9.86143 12.7723H9.78057ZM9.67861 12.484L9.63643 12.6352H9.73135L9.67861 12.484Z" fill="black"/>
<path d="M9.91748 12.7406L9.94209 12.6774C9.97256 12.6938 9.99951 12.702 10.0229 12.702C10.0651 12.702 10.0862 12.6879 10.0862 12.6598L10.0722 12.6246L10.0124 12.5789L9.94912 12.5402L9.92451 12.5051L9.91748 12.4594C9.91748 12.4266 9.92803 12.3996 9.94912 12.3785C9.97256 12.3621 10.0019 12.3539 10.037 12.3539C10.0839 12.3539 10.119 12.3621 10.1425 12.3785L10.1179 12.4418C10.0944 12.4184 10.0675 12.4066 10.037 12.4066C10.0206 12.4066 10.0089 12.4113 10.0019 12.4207C9.99248 12.4301 9.98779 12.4418 9.98779 12.4559C9.98779 12.4793 10.0112 12.5027 10.0581 12.5262C10.0886 12.5402 10.1108 12.5531 10.1249 12.5648L10.1495 12.6L10.153 12.6527C10.153 12.6856 10.1413 12.7125 10.1179 12.7336C10.0944 12.7547 10.0604 12.7652 10.0159 12.7652C9.97607 12.7652 9.94326 12.7547 9.91748 12.7336V12.7406Z" fill="black"/>
<path d="M5.67432 11.9461C6.054 11.9918 6.57783 11.9601 6.80635 11.9461M5.10479 10.6559C5.42119 10.909 6.1208 11.0566 6.11025 11.0566M6.50752 11.1269C6.40557 10.5996 6.29307 10.4766 6.20166 10.1426M4.56689 9.54843C5.10479 9.79101 5.18564 9.94921 5.52666 10.1883M5.72002 9.66093C5.76572 9.01406 5.86064 8.84179 6.01885 8.69413M4.56689 8.61327C4.84218 8.91204 5.11992 9.20854 5.4001 9.50273M5.13994 8.01913C5.379 8.1914 5.379 8.80663 5.379 8.80663" stroke="#00A400" stroke-width="0.1375" stroke-linecap="round"/>
</g>
<defs>
<clipPath id="clip0_14_1105">
<rect width="18" height="18" rx="9" fill="white"/>
</clipPath>
</defs>
</svg>
