<svg width="18" height="18" viewBox="0 0 18 18" fill="none" xmlns="http://www.w3.org/2000/svg">
<g clip-path="url(#clip0_8201_11248)">
<path d="M18 8.99995C18 13.9705 13.9705 18 9 18C4.02947 18 0 13.9705 0 8.99995C0.391289 8.99995 9 7.82605 9 7.82605L18 8.99995Z" fill="#338AF3"/>
<path d="M0 9C0 4.02947 4.02947 0 9 0C13.9705 0 18 4.02947 18 9" fill="#F0F0F0"/>
<path d="M12.5726 6.21008L9.00012 9.78256L5.42768 6.21008C4.9657 6.89588 4.6958 7.72131 4.6958 8.60862V9.78252C4.6958 11.6675 5.91379 13.2731 7.604 13.8543C7.3784 14.2964 7.41644 14.8482 7.74701 15.2608C8.18604 14.9089 8.64058 14.5446 9.02617 14.2357C9.41177 14.5447 9.86634 14.9089 10.3053 15.2608C10.6398 14.8434 10.6751 14.2834 10.4406 13.8386C12.1077 13.2448 13.3044 11.6509 13.3044 9.78252V8.60865C13.3045 7.72131 13.0345 6.89591 12.5726 6.21008Z" fill="#6DA544"/>
<path d="M9.00005 12.913C7.27391 12.913 5.86963 11.5087 5.86963 9.78259V8.60869C5.86963 6.88255 7.27395 5.47827 9.00005 5.47827C10.7261 5.47827 12.1305 6.88259 12.1305 8.60869V9.78259C12.1305 11.5087 10.7262 12.913 9.00005 12.913Z" fill="#FFDA44"/>
<path d="M10.9565 9.78264V8.60874C10.9565 7.5299 10.0788 6.65222 8.99997 6.65222C7.92117 6.65222 7.04346 7.52993 7.04346 8.60874V9.78264L8.99997 10.1739L10.9565 9.78264Z" fill="#338AF3"/>
<path d="M7.04346 9.78259C7.04346 10.8614 7.92117 11.7391 8.99997 11.7391C10.0788 11.7391 10.9565 10.8614 10.9565 9.78259H7.04346Z" fill="#6DA544"/>
<path d="M11.348 5.47826C11.348 4.82995 10.8224 4.30436 10.1741 4.30436C9.87332 4.30436 9.59921 4.41757 9.39147 4.60351V3.91304H9.78276V3.13042H9.39147V2.73914H8.60886V3.13042H8.21757V3.91304H8.60886V4.60351C8.40112 4.41757 8.12697 4.30436 7.82625 4.30436C7.17793 4.30436 6.65234 4.82995 6.65234 5.47826C6.65234 5.82585 6.80355 6.13804 7.04363 6.35302V7.04349H10.9567V6.35302C11.1968 6.13804 11.348 5.82585 11.348 5.47826Z" fill="#FFDA44"/>
</g>
<defs>
<clipPath id="clip0_8201_11248">
<rect width="18" height="18" fill="white"/>
</clipPath>
</defs>
</svg>
