<svg width="18" height="18" viewBox="0 0 18 18" fill="none" xmlns="http://www.w3.org/2000/svg">
<g clip-path="url(#clip0_8201_11295)">
<path d="M12.9129 0.893039C11.7297 0.320906 10.4022 0 8.99984 0C7.59746 0 6.27003 0.320906 5.08681 0.893039L4.3042 9L5.08681 17.107C6.27003 17.6791 7.59746 18 8.99984 18C10.4022 18 11.7297 17.6791 12.9129 17.107L13.6955 9L12.9129 0.893039Z" fill="#FFDA44"/>
<path d="M8.99997 5.86951L9.77692 8.26084H12.2916L10.2573 9.73891L11.0343 12.1303L8.99997 10.6524L6.96565 12.1303L7.74278 9.73891L5.7085 8.26084H8.22298L8.99997 5.86951Z" fill="#496E2D"/>
<path d="M5.08697 0.893311C2.07654 2.34903 0 5.43184 0 8.99995C0 12.5681 2.07654 15.6509 5.08697 17.1066V0.893311Z" fill="#496E2D"/>
<path d="M12.9131 0.893311V17.1066C15.9235 15.6509 18.0001 12.5681 18.0001 8.99995C18.0001 5.43184 15.9235 2.34903 12.9131 0.893311Z" fill="#D80027"/>
</g>
<defs>
<clipPath id="clip0_8201_11295">
<rect width="18" height="18" fill="white"/>
</clipPath>
</defs>
</svg>
