<svg width="18" height="18" viewBox="0 0 18 18" fill="none" xmlns="http://www.w3.org/2000/svg">
<g clip-path="url(#clip0_8201_11468)">
<path d="M9 18C13.9706 18 18 13.9706 18 9C18 4.02944 13.9706 0 9 0C4.02944 0 0 4.02944 0 9C0 13.9706 4.02944 18 9 18Z" fill="#F0F0F0"/>
<path d="M17.4402 5.86963H0.559758C0.198035 6.84465 0 7.89916 0 9.00005C0 10.1009 0.198035 11.1555 0.559758 12.1305H17.4402C17.802 11.1555 18 10.1009 18 9.00005C18 7.89916 17.802 6.84465 17.4402 5.86963Z" fill="#A2001D"/>
<path d="M9.0259 18.0001C12.1085 18.0001 14.8287 16.45 16.4508 14.087H1.60107C3.22311 16.45 5.94329 18.0001 9.0259 18.0001Z" fill="#6DA544"/>
<path d="M9.0259 0.00012207C12.1085 0.00012207 14.8287 1.55023 16.4508 3.91315H1.60107C3.22311 1.55023 5.94329 0.00012207 9.0259 0.00012207Z" fill="#6DA544"/>
<path d="M9.00004 5.86963L9.77702 8.26096H12.2916L10.2573 9.73907L11.0344 12.1305L9.00004 10.6525L6.96572 12.1305L7.74281 9.73907L5.7085 8.26096H8.22305L9.00004 5.86963Z" fill="#FFDA44"/>
</g>
<defs>
<clipPath id="clip0_8201_11468">
<rect width="18" height="18" fill="white"/>
</clipPath>
</defs>
</svg>
