<svg width="18" height="18" viewBox="0 0 18 18" fill="none" xmlns="http://www.w3.org/2000/svg">
<g clip-path="url(#clip0_8201_11422)">
<path d="M9 18C13.9706 18 18 13.9706 18 9C18 4.02944 13.9706 0 9 0C4.02944 0 0 4.02944 0 9C0 13.9706 4.02944 18 9 18Z" fill="#F0F0F0"/>
<path d="M17.2978 5.51085C15.9348 2.27327 12.7331 0 8.9999 0C6.51456 0 4.26481 1.00754 2.63623 2.63633L4.8901 5.51085H17.2978Z" fill="black"/>
<path d="M4.91566 12.4565L2.63623 15.3636C4.26481 16.9924 6.51456 18 8.9999 18C12.7457 18 15.9565 15.7115 17.3117 12.4565H4.91566Z" fill="#496E2D"/>
<path d="M1.95654 6.61963V11.3479H17.69C17.8919 10.5994 18 9.81241 18 9.00006C18 8.17593 17.889 7.37788 17.6815 6.61963H1.95654Z" fill="#A2001D"/>
<path d="M2.63603 2.63599C-0.878678 6.1507 -0.878678 11.8492 2.63603 15.364C4.08844 13.9115 5.48531 12.5147 9.00002 8.99997L2.63603 2.63599Z" fill="#0052B4"/>
<path d="M2.93142 6.76233L4.02988 8.29518L5.82735 7.72406L4.70899 9.24257L5.80745 10.7755L4.01772 10.1811L2.89933 11.6996L2.91163 9.81368L1.12183 9.21922L2.91915 8.64815L2.93142 6.76233Z" fill="#FFDA44"/>
</g>
<defs>
<clipPath id="clip0_8201_11422">
<rect width="18" height="18" fill="white"/>
</clipPath>
</defs>
</svg>
