<svg width="18" height="18" viewBox="0 0 18 18" fill="none" xmlns="http://www.w3.org/2000/svg">
<g clip-path="url(#clip0_8201_11256)">
<path d="M9 18C13.9706 18 18 13.9706 18 9C18 4.02944 13.9706 0 9 0C4.02944 0 0 4.02944 0 9C0 13.9706 4.02944 18 9 18Z" fill="#FFDA44"/>
<path d="M5.47816 5.86958H17.4401C16.1685 2.44237 12.8695 0 8.9999 0C6.51456 0 4.26481 1.00754 2.63623 2.63633L5.47816 5.86958Z" fill="#6DA544"/>
<path d="M5.47816 12.1304H17.4401C16.1685 15.5576 12.8695 18 8.9999 18C6.51456 18 4.26481 16.9924 2.63623 15.3636L5.47816 12.1304Z" fill="#6DA544"/>
<path d="M2.63603 2.63599C-0.878678 6.1507 -0.878678 11.8492 2.63603 15.364C4.08844 13.9115 5.48531 12.5147 9.00002 8.99997L2.63603 2.63599Z" fill="#D80027"/>
<path d="M11.4285 7.43481L11.817 8.63055H13.0743L12.0571 9.36953L12.4456 10.5653L11.4285 9.82625L10.4113 10.5653L10.7998 9.36953L9.78271 8.63055H11.04L11.4285 7.43481Z" fill="black"/>
<path d="M15.3416 7.43481L15.7301 8.63055H16.9873L15.9702 9.36953L16.3587 10.5653L15.3416 9.82625L14.3244 10.5653L14.7129 9.36953L13.6958 8.63055H14.9531L15.3416 7.43481Z" fill="black"/>
</g>
<defs>
<clipPath id="clip0_8201_11256">
<rect width="18" height="18" fill="white"/>
</clipPath>
</defs>
</svg>
