<svg width="18" height="18" viewBox="0 0 18 18" fill="none" xmlns="http://www.w3.org/2000/svg">
<g clip-path="url(#clip0_8201_10357)">
<path d="M9 18C13.9706 18 18 13.9706 18 9C18 4.02944 13.9706 0 9 0C4.02944 0 0 4.02944 0 9C0 13.9706 4.02944 18 9 18Z" fill="#F0F0F0"/>
<path d="M9.00003 0C5.43188 0 2.34882 2.0765 0.893066 5.08697H17.107C15.6512 2.0765 12.5681 0 9.00003 0Z" fill="#0052B4"/>
<path d="M9.00003 18.0001C12.5681 18.0001 15.6512 15.9236 17.107 12.9131H0.893066C2.34882 15.9236 5.43188 18.0001 9.00003 18.0001Z" fill="#0052B4"/>
<path d="M7.19238 9.39128L8.99977 6.26086L10.8071 9.39128H7.19238Z" fill="#FFDA44"/>
<path d="M11.348 10.4249L9.00018 11.5989L6.65234 10.4249V8.85974H11.348V10.4249Z" fill="#6DA544"/>
<path d="M11.2136 6.39514L10.3835 7.22522C10.7375 7.57927 10.9566 8.0684 10.9566 8.60868C10.9566 9.68925 10.0806 10.5652 9.00005 10.5652C7.91952 10.5652 7.04353 9.68921 7.04353 8.60868C7.04353 8.0684 7.26255 7.57927 7.61661 7.22522L6.78654 6.39514C6.22 6.96158 5.86963 7.74419 5.86963 8.60868C5.86963 10.3376 7.27117 11.7391 9.00005 11.7391C10.7289 11.7391 12.1305 10.3376 12.1305 8.60868C12.1304 7.74419 11.7801 6.96158 11.2136 6.39514Z" fill="#FFDA44"/>
</g>
<defs>
<clipPath id="clip0_8201_10357">
<rect width="18" height="18" fill="white"/>
</clipPath>
</defs>
</svg>
