<svg width="18" height="18" viewBox="0 0 18 18" fill="none" xmlns="http://www.w3.org/2000/svg">
<g clip-path="url(#clip0_14_1100)">
<mask id="mask0_14_1100" style="mask-type:luminance" maskUnits="userSpaceOnUse" x="0" y="0" width="19" height="19">
<path d="M0 0H18.0004V18.0004H0V0Z" fill="white"/>
</mask>
<g mask="url(#mask0_14_1100)">
<path fill-rule="evenodd" clip-rule="evenodd" d="M0 0H27.0005V9.00018H12.0002L0 0Z" fill="#ED2939"/>
<path fill-rule="evenodd" clip-rule="evenodd" d="M0 18.0004H27.0005V9.00018H12.0002L0 18.0004Z" fill="#002395"/>
<path fill-rule="evenodd" clip-rule="evenodd" d="M0 0L12.0002 9.00018L0 18.0004V0Z" fill="white"/>
<path d="M6.05617 6.79214L6.06017 6.65614C6.06017 6.65614 5.98417 6.53613 6.07217 6.40813C6.07217 6.40813 5.88817 6.30813 5.93217 6.15613C5.93217 6.15613 5.76417 6.11613 5.77617 5.93212C5.77617 5.93212 5.59616 5.92012 5.57616 5.76412C5.57616 5.76412 5.39616 5.79612 5.32016 5.64412C5.32016 5.64412 5.14416 5.68012 5.09216 5.55611C5.09216 5.55611 4.92415 5.61612 4.82015 5.47211C4.82015 5.47211 4.64015 5.54411 4.56414 5.40811C4.49214 5.54411 4.31214 5.47211 4.31214 5.47211C4.21214 5.61612 4.04013 5.55211 4.04013 5.55211C3.99213 5.68012 3.81613 5.64412 3.81613 5.64412C3.73613 5.79212 3.55612 5.76412 3.55612 5.76412C3.54012 5.91612 3.35612 5.92812 3.35612 5.92812C3.36208 5.97745 3.35052 6.02729 3.32347 6.06897C3.29642 6.11064 3.25559 6.14149 3.20812 6.15613C3.24812 6.30813 3.06812 6.40413 3.06812 6.40413C3.15612 6.53213 3.08012 6.65214 3.08012 6.65214V6.78014L6.05617 6.79214Z" fill="#FFFF00"/>
<path d="M6.05734 6.79368V6.65264C6.05734 6.65264 5.98479 6.53175 6.07346 6.41086C6.07346 6.41086 5.88807 6.31012 5.9324 6.15699C5.9324 6.15699 5.76314 6.11669 5.77523 5.93133C5.77523 5.93133 5.59388 5.91924 5.57373 5.76611C5.57373 5.76611 5.3964 5.79432 5.31983 5.64522C5.31983 5.64522 5.14251 5.67746 5.09415 5.55657C5.09415 5.55657 4.92085 5.61701 4.8201 5.47194C4.8201 5.47194 4.63875 5.54448 4.56621 5.40747C4.48963 5.54448 4.30828 5.47194 4.30828 5.47194C4.21156 5.61298 4.03827 5.55254 4.03827 5.55254C3.9899 5.67746 3.81661 5.64522 3.81661 5.64522C3.73601 5.79432 3.55466 5.76611 3.55466 5.76611C3.53854 5.91521 3.35718 5.9273 3.35718 5.9273C3.36384 5.97659 3.3524 6.02662 3.32498 6.06811C3.29756 6.10961 3.25602 6.13976 3.20807 6.15296C3.24837 6.30609 3.06702 6.4028 3.06702 6.4028C3.15568 6.53175 3.07911 6.65264 3.07911 6.65264V6.78159L6.05734 6.79368Z" stroke="black" stroke-width="0.0214927"/>
<path d="M5.98816 6.62013C5.52015 6.57213 4.98014 6.46013 4.56413 6.69613C4.28413 6.53213 3.89612 6.54013 3.56412 6.57613C3.38811 6.60413 3.17611 6.60413 2.9881 6.63613L2.9601 6.64013C2.6161 6.66413 2.30809 6.56013 2.01208 6.43213C2.10809 6.96414 2.21209 7.51215 2.26409 8.07216C2.37609 8.89618 1.87208 9.59219 2.07609 10.4082C2.20009 10.8002 2.6321 11.0282 3.0281 11.0722C3.40761 11.0971 3.78469 11.1505 4.15613 11.2322C4.22342 11.2488 4.28904 11.2715 4.35213 11.3002C4.43819 11.3376 4.51576 11.392 4.58014 11.4602C4.79614 11.2402 5.10815 11.1802 5.42015 11.1482C5.97216 11.0802 6.66018 11.1162 7.00018 10.6122V10.5842C7.18419 10.3042 7.16019 9.8802 7.08018 9.56419C7.07218 9.45619 7.04418 9.36019 7.02818 9.25218C6.68818 8.35617 6.98018 7.34815 7.12418 6.44413C6.94818 6.54013 6.74818 6.58813 6.54817 6.63613C6.38817 6.65613 6.21617 6.64813 6.05216 6.63613L5.98816 6.62013Z" fill="#FF0000"/>
<path d="M6.68813 9.19618C6.68413 9.25618 6.71613 9.30019 6.72813 9.35619C6.79213 9.74819 6.85613 10.2682 6.44812 10.5122C6.00811 10.7922 5.4201 10.6722 4.90409 10.8242C4.80009 10.8522 4.65609 10.9442 4.58408 11.0122C4.53608 10.9842 4.49208 10.9362 4.43208 10.9082C4.00407 10.6842 3.45206 10.7562 2.97205 10.6362C2.73205 10.5562 2.48004 10.3722 2.41604 10.1242C2.26004 9.47619 2.63605 8.92418 2.59205 8.28417C2.56134 7.80361 2.48635 7.32691 2.36804 6.86014C2.75569 7.02942 3.18703 7.07143 3.60007 6.98014C3.91207 6.94014 4.28008 6.94014 4.56808 7.06814C4.73641 7.00426 4.91274 6.96388 5.0921 6.94814C5.4241 6.98014 5.78011 7.04014 6.12012 7.04014C6.33943 7.02411 6.5538 6.96713 6.75213 6.87214C6.63213 7.63215 6.40812 8.43217 6.68413 9.19218" fill="#80CFE1"/>
<path d="M6.01207 9.34819L6.00807 8.63218H6.09607L5.00005 7.92417V7.56016H5.10405L4.55604 7.16815L4.01203 7.56016H4.11603V7.92417L3.03601 8.63218H3.11601L3.12401 9.34419H6.00407" fill="white"/>
<path d="M6.00887 9.34851V8.63123H6.0935L5.00538 7.92604L5.00135 7.56337H5.10613L4.55804 7.16846L4.01398 7.55933H4.11876L4.12279 7.92604L3.03467 8.63123H3.12333V9.34448H6.00887V9.34851Z" stroke="black" stroke-width="0.0859707"/>
<path d="M6.34807 10.2842V10.5082H2.828V10.2802H6.34807" fill="white"/>
<path d="M6.34748 10.2874V10.509H2.8252V10.2834H6.34748V10.2874Z" stroke="black" stroke-width="0.0859707"/>
<path d="M3.06 10.2722V9.51217H3.2L3.192 10.2802L3.2 9.52017L3 9.51617V9.35617H6.14406V9.51617H5.94806H6.09206V10.2762" fill="white"/>
<path d="M3.05886 10.2713V9.51373H3.19992L3.19186 10.2794L3.19992 9.52179L2.99841 9.51373V9.35254L6.14187 9.35657V9.51776H5.94843L5.95246 10.2834L5.9444 9.51776H6.08948L6.09351 10.2753" stroke="black" stroke-width="0.0859707"/>
<path d="M3.7359 10.0859V9.55804H3.30872V10.0819L3.73187 10.0859" stroke="black" stroke-width="0.0859707"/>
<path d="M3.42969 9.66685V9.9731H3.62313V9.66685H3.42566M5.80341 10.0859L5.79938 9.56207H5.38025V10.0859H5.80341Z" stroke="black" stroke-width="0.0859707"/>
<path d="M5.49309 9.67089V9.97714H5.68654V9.67089H5.49309ZM5.79938 9.22762V8.70377H5.37622V9.22762H5.79938Z" stroke="black" stroke-width="0.0859707"/>
<path d="M5.48899 8.81257V9.11882H5.68243V8.81257H5.48899ZM3.73187 9.22762V8.69974H3.30872V9.2236H3.73187V9.22762Z" stroke="black" stroke-width="0.0859707"/>
<path d="M4.49766 9.22762V8.69974H4.0745V9.2236H4.49766M3.42566 8.80854V9.11479H3.6191V8.80854H3.42566Z" stroke="black" stroke-width="0.0859707"/>
<path d="M4.18738 8.80854V9.11479H4.38082V8.80854H4.18738ZM5.08609 9.22762V8.70377L4.66293 8.69974V9.2236L5.08609 9.22762Z" stroke="black" stroke-width="0.0859707"/>
<path d="M4.77576 8.80853V9.11479H4.97323V8.80853H4.77576Z" stroke="black" stroke-width="0.0859707"/>
<path d="M5.19207 9.06818L5.19607 10.2842H3.97605L3.97205 9.06418H5.19207" fill="white"/>
<path d="M3.96163 9.41299H5.19484M4.11477 10.2834V9.42105M5.04572 10.2834V9.42508M5.19081 9.06643L5.19484 10.2834H3.97372L3.96969 9.06643H5.19081ZM5.63814 8.5466L4.95303 8.04693H4.17523L3.49011 8.5466H5.63814ZM4.23568 7.62784V7.9341H4.88855V7.62784H4.23568Z" stroke="black" stroke-width="0.0859707"/>
<path d="M4.55814 7.27322L4.92085 7.53112H4.19946L4.56217 7.27322M4.41306 7.7044V7.85753H4.71128V7.7044H4.41306Z" stroke="black" stroke-width="0.0859707"/>
<path d="M6.02411 7.10415C6.12812 7.10415 6.15212 7.52816 6.15212 7.74017C6.29512 7.79586 6.42269 7.88502 6.52412 8.00017H5.5321C5.63127 7.88605 5.75599 7.79696 5.89611 7.74017C5.89611 7.52816 5.92011 7.10015 6.02411 7.10415Z" fill="white"/>
<path d="M4.82811 9.09866H4.91677L4.88856 9.15105C4.88856 9.15105 4.93289 9.20344 4.88856 9.26791L4.91274 9.30821H4.83214L4.85229 9.26791C4.85229 9.26791 4.81199 9.19538 4.85229 9.14702L4.82811 9.1027M6.02101 7.10397C6.12579 7.10397 6.14997 7.52709 6.14997 7.74066C6.23864 7.76484 6.43611 7.88976 6.52074 7.99856H5.52934C5.61397 7.88976 5.81145 7.76484 5.89608 7.74066C5.89608 7.52709 5.92026 7.10397 6.02101 7.10397ZM4.02612 9.09866H4.11479L4.0906 9.14702C4.0906 9.14702 4.13091 9.20344 4.0906 9.26791L4.11479 9.30821H4.02612L4.0503 9.26791C4.0503 9.26791 4.01 9.19538 4.0503 9.14702L4.02612 9.09866ZM4.20748 9.09866H4.29614L4.27196 9.14702C4.27196 9.14702 4.31226 9.20344 4.27196 9.26791L4.29614 9.30821H4.20748L4.23166 9.26791C4.23166 9.26791 4.19136 9.19538 4.23166 9.14702L4.20748 9.09866ZM4.40898 9.09866H4.49361L4.46943 9.14702C4.46943 9.14702 4.50973 9.20344 4.46943 9.26791L4.49361 9.30821H4.40898L4.42913 9.26791C4.42913 9.26791 4.38883 9.19538 4.42913 9.14702L4.40495 9.09866H4.40898ZM4.63063 9.09866H4.7193L4.69109 9.15105C4.69109 9.15105 4.73542 9.20344 4.69109 9.26791L4.71527 9.30821H4.63063L4.65482 9.26791C4.65482 9.26791 4.61451 9.19538 4.65482 9.14702L4.63063 9.1027V9.09866ZM5.02558 9.1027H5.11424L5.08603 9.15105C5.08603 9.15105 5.13037 9.20344 5.08603 9.26791L5.11022 9.30821H5.02961L5.04976 9.26791C5.04976 9.26791 5.00946 9.19538 5.04976 9.14702L5.02558 9.1027Z" stroke="black" stroke-width="0.0859707"/>
<path d="M4.58811 11.8402C5.02545 11.8517 5.46067 11.7755 5.86814 11.6162L6.45215 11.5642L6.46015 12.2682C5.97214 12.5402 4.84011 12.6002 4.58811 12.5962C4.34011 12.5962 3.19208 12.5402 2.70007 12.2682L2.70807 11.5602L3.28808 11.6122C3.70262 11.7719 4.14392 11.8507 4.58811 11.8442" fill="#FFFF00"/>
<path d="M4.58627 11.8429C5.0457 11.8429 5.60588 11.7502 5.87187 11.6132L6.44817 11.5648L6.46026 12.27C5.97262 12.54 4.83614 12.6004 4.5903 12.5964C4.34044 12.5964 3.19187 12.54 2.69617 12.266L2.70423 11.5608L3.28456 11.6132C3.55054 11.7502 4.13088 11.8429 4.58627 11.8429Z" stroke="black" stroke-width="0.0214927"/>
<path d="M1.20806 8.82819L1.72007 8.98819L1.56407 9.81621L1.08406 9.89221C1.08406 9.89221 1.00406 9.4562 1.20806 8.82819Z" fill="#FFFF00"/>
<path d="M1.20914 8.82867L1.71693 8.98986L1.56379 9.81595L1.08018 9.89251C1.08018 9.89251 0.999576 9.4573 1.20914 8.82867Z" stroke="black" stroke-width="0.0214927"/>
<path d="M1.56399 9.80818L1.08398 9.89219L1.38799 9.45618L1.56399 9.80818Z" fill="#7E7E7E"/>
<path d="M1.56369 9.80789L1.08008 9.88848L1.38636 9.45731L1.56369 9.80789Z" stroke="black" stroke-width="0.0214927"/>
<path d="M0.903976 9.42419L1.39599 9.46019C1.40799 9.8762 1.45599 11.4642 3.35602 11.5522L3.29602 12.1322C0.983978 12.1562 0.811974 10.1802 0.903976 9.42419Z" fill="#FFFF00"/>
<path d="M2.70828 12.2499L3.28861 12.125M0.902801 9.42508L1.39447 9.45732C1.40656 9.8764 1.45492 11.4641 3.35712 11.5527L3.29667 12.133C0.983403 12.1572 0.810109 10.1827 0.902801 9.42508Z" stroke="black" stroke-width="0.0214927"/>
<path d="M7.92415 8.83218L7.41614 8.99219L7.57614 9.8202L8.06015 9.9002C8.06015 9.9002 8.14015 9.4602 7.92415 8.83218Z" fill="#FFFF00"/>
<path d="M7.9232 8.8327L7.41541 8.99389L7.57661 9.81997L8.06022 9.90057C8.06022 9.90057 8.14082 9.46536 7.9232 8.8327Z" stroke="black" stroke-width="0.0214927"/>
<path d="M7.57617 9.81218L8.06018 9.89618L7.75218 9.46417L7.57617 9.81218Z" fill="#7E7E7E"/>
<path d="M7.57666 9.81191L8.06027 9.89654L7.74995 9.46536L7.57666 9.81191Z" stroke="black" stroke-width="0.0214927"/>
<path d="M8.23622 9.42819L7.74421 9.46419C7.73621 9.8802 7.70021 11.4722 5.80017 11.5562L5.86417 12.1322C8.17622 12.1602 8.33622 10.1842 8.23622 9.42819Z" fill="#FFFF00"/>
<path d="M6.45219 12.2499L5.87186 12.129M8.23348 9.42911L7.74181 9.46134C7.73375 9.88043 7.70151 11.4722 5.79932 11.5568L5.8638 12.133C8.17706 12.1612 8.33424 10.1867 8.23348 9.43314V9.42911Z" stroke="black" stroke-width="0.0214927"/>
<path d="M4.28012 12.1922C4.26812 12.2002 4.24812 12.2002 4.22812 12.2002L4.13612 12.1962L4.14412 12.0802L4.23612 12.0842C4.25212 12.0842 4.26812 12.0922 4.27612 12.0962C4.29613 12.1042 4.30413 12.1242 4.30013 12.1482C4.30013 12.1682 4.29213 12.1842 4.28012 12.1882M4.12412 12.3722L4.13612 12.2322L4.24012 12.2402C4.2688 12.2421 4.29719 12.2336 4.32013 12.2162C4.33613 12.1962 4.34813 12.1762 4.34813 12.1482C4.34975 12.1352 4.34844 12.122 4.34429 12.1095C4.34013 12.0971 4.33325 12.0857 4.32413 12.0762C4.30421 12.0587 4.27869 12.0487 4.25212 12.0482L4.10012 12.0402L4.08012 12.3682H4.12412M4.46013 12.0962H4.57213L4.61213 12.1042C4.62413 12.1122 4.63213 12.1282 4.63213 12.1522C4.63213 12.1762 4.62813 12.1922 4.61613 12.2002C4.60413 12.2082 4.58413 12.2122 4.56413 12.2122H4.45613V12.0962M4.45613 12.3882V12.2482H4.56013C4.58013 12.2482 4.59613 12.2482 4.60413 12.2562C4.62013 12.2602 4.62813 12.2762 4.62813 12.2962V12.3522L4.63213 12.3802L4.63613 12.3922H4.69213V12.3842C4.68807 12.3824 4.68449 12.3796 4.68171 12.3762C4.67893 12.3727 4.67702 12.3686 4.67613 12.3642V12.2922C4.67613 12.2722 4.66813 12.2562 4.66013 12.2522C4.65355 12.2415 4.64375 12.2331 4.63213 12.2282L4.67213 12.2002L4.68013 12.1482C4.68013 12.1122 4.66413 12.0842 4.63213 12.0722C4.61181 12.064 4.59005 12.0599 4.56813 12.0602H4.41213V12.3882H4.45613ZM4.80813 12.3202C4.78673 12.2941 4.77413 12.2619 4.77213 12.2282C4.77213 12.1802 4.78013 12.1482 4.80013 12.1242C4.82014 12.0962 4.84814 12.0842 4.88414 12.0842C4.92414 12.0842 4.94814 12.0922 4.97214 12.1162C4.99214 12.1362 5.00814 12.1682 5.01214 12.2082C5.01214 12.2442 5.00414 12.2762 4.98814 12.3042C4.96814 12.3322 4.94414 12.3482 4.90014 12.3522C4.86014 12.3522 4.82814 12.3442 4.80813 12.3202ZM4.75213 12.1122C4.73045 12.1468 4.72062 12.1876 4.72413 12.2282C4.72545 12.2726 4.74246 12.3152 4.77213 12.3482C4.78884 12.3632 4.80852 12.3745 4.82988 12.3814C4.85124 12.3883 4.87382 12.3906 4.89614 12.3882C4.92069 12.389 4.94508 12.384 4.96732 12.3736C4.98957 12.3631 5.00903 12.3476 5.02414 12.3282C5.04811 12.2915 5.05935 12.248 5.05614 12.2042C5.05621 12.1634 5.04206 12.1238 5.01614 12.0922C4.98414 12.0562 4.93614 12.0402 4.88014 12.0442C4.82014 12.0442 4.78013 12.0682 4.75213 12.1122ZM6.30016 11.6362C6.32805 11.6304 6.35696 11.6318 6.38417 11.6402C6.42417 11.6522 6.44817 11.6802 6.46417 11.7202L6.41617 11.7282C6.41306 11.7179 6.40792 11.7084 6.40105 11.7002C6.39417 11.6919 6.38571 11.6851 6.37617 11.6802C6.35432 11.6726 6.33076 11.6712 6.30816 11.6762C6.29305 11.6776 6.27842 11.6822 6.26529 11.6898C6.25216 11.6974 6.24086 11.7078 6.23216 11.7202C6.21616 11.7482 6.21216 11.7802 6.22016 11.8282C6.22416 11.8682 6.24016 11.8962 6.26016 11.9162C6.28416 11.9402 6.31216 11.9482 6.35217 11.9402C6.38038 11.9365 6.40612 11.9222 6.42417 11.9002C6.44017 11.8842 6.44817 11.8522 6.44017 11.8162L6.33617 11.8322L6.32816 11.7962L6.47617 11.7722L6.50417 11.9482H6.47617L6.46017 11.9082C6.44932 11.9238 6.43577 11.9374 6.42017 11.9482C6.3994 11.965 6.37456 11.9761 6.34817 11.9802C6.31043 11.9861 6.27187 11.9775 6.24016 11.9562C6.2215 11.9417 6.20588 11.9236 6.19421 11.903C6.18254 11.8824 6.17505 11.8597 6.17216 11.8362C6.16701 11.8131 6.16648 11.7892 6.1706 11.7658C6.17472 11.7425 6.18341 11.7202 6.19616 11.7002C6.20775 11.6826 6.22307 11.6677 6.24104 11.6567C6.25902 11.6456 6.2792 11.6386 6.30016 11.6362ZM6.63617 11.6122L6.74017 11.5722C6.75295 11.5675 6.76672 11.5661 6.78017 11.5682C6.79617 11.5682 6.81217 11.5802 6.82017 11.6042C6.82817 11.6242 6.82817 11.6402 6.82017 11.6522L6.77617 11.6802L6.67617 11.7202L6.63617 11.6122ZM6.74017 11.8842L6.68817 11.7522L6.78817 11.7162C6.80095 11.7113 6.81448 11.7086 6.82817 11.7082C6.84418 11.7082 6.85618 11.7202 6.86818 11.7402L6.88818 11.7922L6.90018 11.8162L6.90818 11.8242L6.96018 11.8042V11.8002C6.95218 11.8002 6.94418 11.7922 6.93618 11.7842L6.92418 11.7602L6.90818 11.7202C6.90018 11.7002 6.89218 11.6882 6.88018 11.6802C6.86892 11.6749 6.85662 11.6722 6.84418 11.6722C6.85618 11.6602 6.86418 11.6482 6.86818 11.6322C6.87133 11.6162 6.86995 11.5995 6.86418 11.5842C6.84818 11.5482 6.82417 11.5282 6.78817 11.5282C6.77217 11.5282 6.74817 11.5282 6.72417 11.5362L6.57617 11.5922L6.69617 11.9002L6.74017 11.8842ZM7.12418 11.7242L6.93618 11.4442L7.14418 11.3122L7.16818 11.3482L6.99618 11.4562L7.05618 11.5362L7.21218 11.4402L7.23218 11.4722L7.07618 11.5722L7.14018 11.6642L7.31218 11.5522L7.33618 11.5842L7.12418 11.7202M7.29218 11.2362L7.34419 11.1762C7.36819 11.1482 7.39619 11.1362 7.42419 11.1402C7.45883 11.1445 7.49114 11.1599 7.51619 11.1842C7.53912 11.2044 7.55578 11.2308 7.56419 11.2602C7.57219 11.2802 7.56819 11.3002 7.56419 11.3162L7.54019 11.3442L7.48419 11.4042L7.29218 11.2362ZM7.57219 11.3642C7.61219 11.3242 7.62419 11.2762 7.60019 11.2242C7.58613 11.1936 7.56567 11.1663 7.54019 11.1442C7.51045 11.1168 7.47249 11.0999 7.43219 11.0962C7.411 11.0943 7.38966 11.0976 7.37011 11.106C7.35055 11.1144 7.33339 11.1275 7.32018 11.1442L7.22818 11.2402L7.48419 11.4642L7.57619 11.3642M7.77219 11.1082L7.48019 10.9362L7.50419 10.8962L7.79619 11.0682L7.77219 11.1082ZM7.8882 10.9082L7.56819 10.7842L7.66419 10.5602L7.70419 10.5762L7.62419 10.7602L7.72019 10.7962L7.79219 10.6282L7.83219 10.6442L7.76019 10.8122L7.8642 10.8522L7.9442 10.6682L7.9842 10.6842L7.8882 10.9082ZM8.0322 10.5202L7.70019 10.4482L7.71219 10.3962L8.0162 10.2922L7.74819 10.2362L7.75619 10.1962L8.0882 10.2642L8.0802 10.3162L7.77219 10.4202L8.0402 10.4802L8.0322 10.5202ZM8.0042 10.1002L8.0082 10.0602C8.0282 10.0602 8.0482 10.0602 8.0562 10.0482C8.0802 10.0362 8.0962 10.0122 8.0962 9.97619V9.92819C8.0882 9.90019 8.0722 9.88819 8.0482 9.88419C8.0282 9.88419 8.0162 9.88419 8.0082 9.89619C8.0002 9.90819 7.9882 9.92419 7.9842 9.94819L7.9682 9.98819L7.9402 10.0522C7.9242 10.0722 7.9002 10.0802 7.8722 10.0762C7.85804 10.075 7.8443 10.0708 7.83189 10.0639C7.81947 10.057 7.80867 10.0476 7.80019 10.0362C7.78019 10.0162 7.77619 9.98819 7.78019 9.94819C7.78019 9.91619 7.79219 9.88819 7.81219 9.86419C7.83219 9.84419 7.86019 9.83219 7.8962 9.83619V9.87619C7.8762 9.87619 7.8602 9.88019 7.8522 9.88819C7.83219 9.90019 7.82019 9.92019 7.82019 9.95619C7.81619 9.98019 7.82019 9.99619 7.82819 10.0122C7.84019 10.0242 7.85219 10.0322 7.8682 10.0322C7.8842 10.0322 7.8962 10.0322 7.9082 10.0162L7.9322 9.96019L7.9442 9.91619C7.9522 9.89219 7.9602 9.87619 7.9722 9.86419C7.98165 9.85507 7.99302 9.84818 8.00548 9.84402C8.01794 9.83987 8.03117 9.83856 8.0442 9.84019C8.0842 9.84419 8.1082 9.86019 8.1242 9.88819C8.1362 9.91619 8.1402 9.94819 8.1362 9.98419C8.13657 10.0015 8.13318 10.0187 8.12628 10.0346C8.11937 10.0505 8.10911 10.0646 8.0962 10.0762C8.08331 10.0862 8.0685 10.0936 8.05268 10.0977C8.03686 10.1018 8.02036 10.1027 8.0042 10.1002ZM1.12806 10.0802L1.13606 10.1202C1.12006 10.1242 1.10406 10.1322 1.09606 10.1442C1.07206 10.1602 1.06806 10.1842 1.07206 10.2242L1.08806 10.2682C1.10406 10.2922 1.12406 10.3042 1.14806 10.3002C1.16406 10.2962 1.17606 10.2882 1.18406 10.2762L1.19206 10.2202V10.1722L1.20806 10.1082C1.21607 10.0882 1.23607 10.0722 1.26407 10.0682C1.27806 10.0656 1.29243 10.0661 1.30622 10.0696C1.32002 10.073 1.33292 10.0794 1.34407 10.0882C1.36807 10.1042 1.38407 10.1282 1.38407 10.1682C1.38888 10.1833 1.39065 10.1992 1.38927 10.215C1.3879 10.2308 1.38341 10.2461 1.37607 10.2602C1.36407 10.2842 1.34007 10.3002 1.30407 10.3082L1.29607 10.2682C1.31207 10.2602 1.32407 10.2562 1.33607 10.2442C1.34807 10.2282 1.35207 10.2042 1.34807 10.1722C1.34407 10.1482 1.33607 10.1322 1.32007 10.1202C1.31459 10.1155 1.30821 10.1121 1.30132 10.11C1.29444 10.1079 1.2872 10.1073 1.28007 10.1082C1.27264 10.1094 1.2657 10.1126 1.26004 10.1176C1.25438 10.1225 1.25023 10.129 1.24807 10.1362C1.24161 10.1555 1.23889 10.1759 1.24007 10.1962V10.2442C1.23941 10.2639 1.23392 10.2831 1.22407 10.3002C1.21789 10.3111 1.20925 10.3204 1.19883 10.3273C1.18841 10.3343 1.1765 10.3387 1.16406 10.3402C1.12406 10.3482 1.09606 10.3402 1.07606 10.3162C1.05459 10.2913 1.04071 10.2607 1.03606 10.2282C1.02712 10.1946 1.03141 10.1588 1.04806 10.1282C1.05696 10.1147 1.06877 10.1034 1.08261 10.0951C1.09646 10.0868 1.11199 10.0817 1.12806 10.0802ZM1.10806 10.5162L1.43207 10.4162L1.51207 10.6442L1.47207 10.6602L1.40807 10.4722L1.30807 10.5002L1.36407 10.6722L1.32407 10.6842L1.27207 10.5122L1.16006 10.5442L1.22407 10.7362L1.18406 10.7482L1.10806 10.5162ZM1.25207 10.9122L1.55207 10.7522L1.58407 10.8082L1.37607 11.0242L1.67607 10.9762L1.70807 11.0282L1.40807 11.1882L1.38807 11.1482L1.56407 11.0562L1.59607 11.0402L1.64007 11.0162L1.34007 11.0682L1.32007 11.0282L1.52407 10.8122L1.51207 10.8202L1.48007 10.8362C1.46994 10.8437 1.45924 10.8504 1.44807 10.8562L1.27207 10.9482L1.25207 10.9082M1.80808 11.3482C1.79208 11.3482 1.78008 11.3402 1.76408 11.3242L1.70007 11.2602L1.78408 11.1802L1.84808 11.2442L1.87208 11.2802C1.88008 11.3002 1.87208 11.3202 1.85608 11.3322C1.84008 11.3482 1.82408 11.3562 1.80808 11.3522M1.56807 11.3802L1.67207 11.2842L1.74408 11.3642C1.76483 11.3835 1.79176 11.3949 1.82008 11.3962C1.84594 11.3944 1.87019 11.383 1.88808 11.3642C1.90808 11.3442 1.92008 11.3242 1.92008 11.2962C1.92008 11.2722 1.90808 11.2522 1.88808 11.2282L1.78408 11.1202L1.53607 11.3482L1.56807 11.3802ZM1.86808 11.6442L2.04408 11.3642L2.25609 11.4922L2.23609 11.5282L2.06008 11.4242L2.00808 11.5082L2.16808 11.6042L2.14408 11.6362L1.98408 11.5402L1.92408 11.6362L2.10008 11.7402L2.08008 11.7762L1.86408 11.6442M2.39609 11.5922L2.50409 11.6242L2.53609 11.6442C2.54809 11.6562 2.55209 11.6762 2.54409 11.6962C2.54009 11.7162 2.52809 11.7282 2.51209 11.7362L2.46009 11.7322L2.36009 11.7002L2.39609 11.5922ZM2.30409 11.8682L2.34409 11.7322L2.44809 11.7642L2.48809 11.7842C2.49609 11.7962 2.50009 11.8122 2.49209 11.8322L2.48009 11.8802L2.47209 11.9082V11.9162L2.52809 11.9362V11.9282L2.52009 11.9042C2.52009 11.9002 2.52009 11.8882 2.52809 11.8762L2.54009 11.8362C2.54409 11.8162 2.54809 11.8042 2.54009 11.7962C2.53658 11.7839 2.52964 11.7728 2.52009 11.7642C2.53609 11.7602 2.55209 11.7562 2.56409 11.7442C2.57609 11.7362 2.58409 11.7202 2.59209 11.7042C2.60409 11.6642 2.59609 11.6362 2.57209 11.6122C2.55609 11.6042 2.54009 11.5922 2.51209 11.5842L2.36409 11.5362L2.26009 11.8482L2.30009 11.8642" fill="#009FC5"/>
<path d="M2.76007 6.17613C2.80007 6.08013 3.15608 5.82812 4.3361 5.93612C4.3361 5.93612 4.53611 6.06013 4.65211 6.04413C4.71611 6.03613 4.61211 6.04813 4.52411 5.97612C4.4361 5.90412 4.4161 5.75612 4.62011 5.76012C4.82011 5.76412 5.58013 5.80812 5.59213 5.87612C5.60413 5.94412 5.19212 5.97212 5.04012 5.96812C4.88411 5.96812 4.90411 6.04413 5.05612 6.03612C5.53613 6.02012 6.05613 5.85212 6.61615 6.24413C6.68015 6.28813 6.44414 6.29613 6.26414 6.22013C6.26414 6.22013 5.77613 6.24813 5.56813 6.21213C5.56813 6.21213 5.40812 6.34413 5.19212 6.33213C5.22012 6.40013 5.11212 6.65214 4.4521 6.46413C4.3401 6.49613 3.94409 6.56414 3.98409 6.44413C3.88009 6.44413 3.69609 6.47613 3.66809 6.41613C3.64409 6.36013 3.9921 6.26813 4.0561 6.20413C4.0561 6.20413 3.31208 6.21213 3.17208 6.16413C3.17208 6.16413 2.73207 6.26013 2.76007 6.17613Z" fill="#BC715F"/>
<path d="M3.00009 7.21614C3.01209 7.19614 3.02009 7.15614 3.05209 7.15614C3.12809 7.17614 3.17609 7.31214 3.26809 7.22414C3.30009 7.21614 3.30809 7.26014 3.3361 7.26414C3.3561 7.34014 3.4161 7.25214 3.4561 7.25614C3.56107 7.21249 3.67673 7.20134 3.7881 7.22414C3.7881 7.29614 3.7321 7.37614 3.6601 7.42014C3.6601 7.49214 3.7281 7.54014 3.7281 7.61615C3.7161 7.64415 3.7281 7.68815 3.6881 7.69615C3.6321 7.68415 3.5801 7.68015 3.5361 7.65215C3.5281 7.64415 3.5241 7.63615 3.5161 7.63615C3.5081 7.66415 3.5481 7.68815 3.5641 7.71615C3.5361 7.75615 3.4921 7.71615 3.4561 7.71615C3.4441 7.74415 3.4561 7.77615 3.4281 7.79615C3.3801 7.79215 3.3681 7.74015 3.3401 7.71615C3.31209 7.74815 3.3641 7.76815 3.3681 7.79215C3.3521 7.88815 3.3521 7.98415 3.25609 8.04815L3.19209 8.08016C3.17609 8.02815 3.18409 7.95615 3.17209 7.90415C3.13209 7.96815 3.10409 8.02415 3.05209 8.07616C2.98409 8.05215 2.94409 7.97615 2.93209 7.91215C2.91761 7.87482 2.91445 7.83405 2.92298 7.79493C2.93152 7.75581 2.95138 7.72006 2.98009 7.69215C2.96009 7.65215 2.88809 7.66415 2.88009 7.60815C2.77608 7.54014 2.72008 7.72815 2.65208 7.62815C2.64142 7.58128 2.64203 7.53255 2.65385 7.48597C2.66567 7.43938 2.68837 7.39626 2.72008 7.36014C2.70808 7.32014 2.66008 7.33214 2.63208 7.31214C2.56408 7.25614 2.47208 7.20014 2.47608 7.10014C2.56474 7.0675 2.66093 7.06109 2.75314 7.08166C2.84536 7.10223 2.9297 7.14892 2.99609 7.21614" fill="#008737"/>
<path d="M3.08805 7.20814C3.08805 7.28814 3.14405 7.22814 3.18805 7.27614C3.15205 7.26414 3.12805 7.33614 3.09605 7.29614L3.07205 7.31614C3.08405 7.34414 3.11205 7.34814 3.08405 7.37614C3.04805 7.39214 3.04405 7.34414 3.02405 7.32814C3.02405 7.32014 3.02805 7.30414 3.01605 7.30014C2.99605 7.31614 2.97605 7.32414 2.94405 7.32014C2.93605 7.30414 2.92005 7.28014 2.93605 7.27214C2.96405 7.23214 3.00805 7.28414 3.02805 7.26014C3.03205 7.23614 3.01205 7.20814 3.04005 7.18814C3.05605 7.19214 3.08005 7.18414 3.08805 7.20414M3.30805 7.27214C3.30805 7.28814 3.30005 7.31214 3.32005 7.32014C3.34805 7.30814 3.37605 7.32014 3.39205 7.34414C3.39205 7.36014 3.39605 7.37614 3.37605 7.38415L3.33605 7.37614C3.33605 7.36814 3.32405 7.36414 3.32005 7.35614C3.30005 7.34814 3.29205 7.36414 3.28005 7.37214C3.28805 7.38815 3.31205 7.40015 3.30405 7.42015C3.28005 7.44415 3.26805 7.39614 3.24005 7.40815C3.22405 7.40015 3.24805 7.36414 3.22005 7.35214C3.18405 7.35214 3.20805 7.40815 3.16405 7.38814C3.14805 7.36814 3.13205 7.34814 3.15205 7.32414C3.16224 7.31872 3.17386 7.31657 3.18532 7.318C3.19677 7.31944 3.20751 7.32438 3.21605 7.33214C3.24405 7.30414 3.24405 7.18814 3.30805 7.27214ZM3.03605 7.39215C3.05205 7.41615 3.03205 7.45215 3.05205 7.48015C3.09205 7.41215 3.12405 7.49615 3.16805 7.48815C3.18005 7.50415 3.16805 7.52815 3.17205 7.54415C3.12005 7.56015 3.05605 7.57615 3.01205 7.53215L2.99605 7.54815C3.02405 7.57215 3.05205 7.60415 3.02805 7.64815C2.98805 7.65615 2.92805 7.65615 2.90804 7.61615C2.90004 7.58015 2.93205 7.55615 2.89604 7.53215C2.87204 7.56415 2.87204 7.60815 2.81604 7.57615C2.8083 7.57234 2.80141 7.56701 2.79578 7.56048C2.79015 7.55394 2.7859 7.54634 2.78329 7.53812C2.78067 7.5299 2.77974 7.52123 2.78056 7.51265C2.78138 7.50406 2.78392 7.49573 2.78804 7.48815C2.82804 7.43215 2.88804 7.48815 2.92405 7.46015C2.93205 7.41215 2.91205 7.37214 2.95605 7.34414C2.99605 7.34014 3.01205 7.36814 3.03605 7.39215Z" fill="#FFFF00"/>
<path d="M3.18405 7.42015C3.16805 7.50016 3.10405 7.41615 3.07605 7.41215C3.11605 7.34415 3.14005 7.43615 3.18405 7.42015ZM3.37606 7.50816C3.33605 7.52016 3.33605 7.46816 3.31605 7.44815L3.33605 7.43215L3.37606 7.51216" fill="white"/>
<path d="M3.32012 7.49214C3.32812 7.52014 3.28812 7.54414 3.32412 7.56414L3.35212 7.53614C3.38412 7.54414 3.41612 7.55214 3.43612 7.57614C3.46012 7.64014 3.39612 7.64014 3.36412 7.65614H3.33212C3.34012 7.63614 3.31612 7.62814 3.30812 7.61614C3.30119 7.61441 3.29389 7.61505 3.28737 7.61795C3.28084 7.62085 3.27548 7.62584 3.27212 7.63214C3.28012 7.67215 3.32812 7.70015 3.27612 7.73215C3.23612 7.73215 3.17612 7.74815 3.18012 7.69215C3.16412 7.66015 3.22012 7.61214 3.16012 7.61214C3.14012 7.65215 3.12012 7.69215 3.06812 7.65215L3.07212 7.59214C3.12012 7.59214 3.18012 7.60014 3.20412 7.54414C3.21612 7.50414 3.18012 7.46814 3.21212 7.43614C3.26412 7.42414 3.29212 7.46014 3.31612 7.49214" fill="#FFFF00"/>
<path d="M3.28008 7.58415C3.29608 7.61615 3.26008 7.61615 3.24008 7.63215C3.22008 7.63215 3.20808 7.62415 3.19207 7.60815C3.18407 7.57215 3.21208 7.56815 3.23208 7.55615C3.25608 7.54415 3.26408 7.57215 3.28008 7.58415Z" fill="black"/>
<path d="M3.25212 7.60014C3.24812 7.61214 3.24012 7.60814 3.23212 7.61214L3.22412 7.57214C3.24012 7.57214 3.26012 7.58014 3.25212 7.60414" fill="white"/>
</g>
</g>
<defs>
<clipPath id="clip0_14_1100">
<rect width="18" height="18" rx="9" fill="white"/>
</clipPath>
</defs>
</svg>
