<svg width="18" height="18" viewBox="0 0 18 18" fill="none" xmlns="http://www.w3.org/2000/svg">
<g clip-path="url(#clip0_14_1340)">
<path d="M0 0H18V18H0V0Z" fill="#3E5EB9"/>
<path d="M0 3.375H18V14.625H0V3.375Z" fill="#FFD900"/>
<path d="M0 4.5H18V13.5H0V4.5Z" fill="#B10C0C"/>
<path d="M15.5964 7.41623L14.754 7.71436L15.593 8.00903L16.4354 7.71436L15.5964 7.41623Z" fill="white" stroke="black" stroke-width="0.0616294"/>
<path d="M15.0383 7.61383H2.87382C2.81447 7.61383 2.76636 7.65806 2.76636 7.71263C2.76636 7.7672 2.81447 7.81143 2.87382 7.81143H15.0383C15.0977 7.81143 15.1458 7.7672 15.1458 7.71263C15.1458 7.65806 15.0977 7.61383 15.0383 7.61383Z" fill="#FFD900" stroke="black" stroke-width="0.0616294"/>
<path d="M14.851 7.81143C14.8769 7.81063 14.9015 7.80024 14.92 7.7823C14.9386 7.76436 14.9499 7.74014 14.9516 7.71436C14.9507 7.68798 14.9398 7.6629 14.9212 7.64424C14.9025 7.62557 14.8774 7.6147 14.851 7.61383M14.754 7.81143C14.7792 7.8098 14.8029 7.79905 14.8208 7.78119C14.8387 7.76332 14.8494 7.73957 14.851 7.71436C14.8502 7.68854 14.8399 7.66395 14.8219 7.64536C14.804 7.62678 14.7798 7.61554 14.754 7.61383M14.6534 7.81143C14.6793 7.81063 14.7039 7.80024 14.7224 7.7823C14.741 7.76436 14.7523 7.74014 14.754 7.71436C14.7531 7.68798 14.7422 7.6629 14.7236 7.64424C14.7049 7.62557 14.6798 7.6147 14.6534 7.61383" fill="#FFD900"/>
<path d="M14.851 7.81143C14.8769 7.81063 14.9015 7.80024 14.92 7.7823C14.9386 7.76436 14.9499 7.74014 14.9516 7.71436C14.9507 7.68798 14.9398 7.6629 14.9212 7.64424C14.9025 7.62557 14.8774 7.6147 14.851 7.61383M14.754 7.81143C14.7792 7.8098 14.8029 7.79905 14.8208 7.78119C14.8387 7.76332 14.8494 7.73957 14.851 7.71436C14.8502 7.68854 14.8399 7.66395 14.8219 7.64536C14.804 7.62678 14.7798 7.61554 14.754 7.61383M14.6534 7.81143C14.6793 7.81063 14.7039 7.80024 14.7224 7.7823C14.741 7.76436 14.7523 7.74014 14.754 7.71436C14.7531 7.68798 14.7422 7.6629 14.7236 7.64424C14.7049 7.62557 14.6798 7.6147 14.6534 7.61383" stroke="black" stroke-width="0.0616294"/>
<path d="M14.7887 8.00903L13.9463 8.30716L14.7852 8.60183L15.6276 8.30716L14.7887 8.00903Z" fill="white" stroke="black" stroke-width="0.0616294"/>
<path d="M14.2306 8.20663H2.06608C2.00673 8.20663 1.95862 8.25087 1.95862 8.30543C1.95862 8.36 2.00673 8.40423 2.06608 8.40423H14.2306C14.2899 8.40423 14.338 8.36 14.338 8.30543C14.338 8.25087 14.2899 8.20663 14.2306 8.20663Z" fill="#FFD900" stroke="black" stroke-width="0.0616294"/>
<path d="M14.0434 8.40423C14.0692 8.40343 14.0938 8.39304 14.1124 8.3751C14.131 8.35716 14.1422 8.33294 14.144 8.30717C14.1431 8.28078 14.1322 8.25571 14.1136 8.23704C14.0949 8.21837 14.0698 8.2075 14.0434 8.20663M13.9464 8.40423C13.9716 8.4026 13.9953 8.39185 14.0132 8.37399C14.031 8.35613 14.0418 8.33238 14.0434 8.30717C14.0426 8.28135 14.0322 8.25675 14.0143 8.23817C13.9963 8.21958 13.9721 8.20834 13.9464 8.20663M13.8458 8.40423C13.8716 8.40343 13.8962 8.39304 13.9148 8.3751C13.9334 8.35716 13.9446 8.33294 13.9464 8.30717C13.9455 8.28078 13.9346 8.25571 13.916 8.23704C13.8973 8.21837 13.8722 8.2075 13.8458 8.20663" fill="#FFD900"/>
<path d="M14.0434 8.40423C14.0692 8.40343 14.0938 8.39304 14.1124 8.3751C14.131 8.35716 14.1422 8.33294 14.144 8.30717C14.1431 8.28078 14.1322 8.25571 14.1136 8.23704C14.0949 8.21837 14.0698 8.2075 14.0434 8.20663M13.9464 8.40423C13.9716 8.4026 13.9953 8.39185 14.0132 8.37399C14.031 8.35613 14.0418 8.33238 14.0434 8.30717C14.0426 8.28135 14.0322 8.25675 14.0143 8.23817C13.9963 8.21958 13.9721 8.20834 13.9464 8.20663M13.8458 8.40423C13.8716 8.40343 13.8962 8.39304 13.9148 8.3751C13.9334 8.35716 13.9446 8.33294 13.9464 8.30717C13.9455 8.28078 13.9346 8.25571 13.916 8.23704C13.8973 8.21837 13.8722 8.2075 13.8458 8.20663" stroke="black" stroke-width="0.0616294"/>
<path d="M17.2743 8.85141H0.727997C0.647585 8.85141 0.582397 8.91815 0.582397 9.00048C0.582397 9.0828 0.647585 9.14954 0.727997 9.14954H17.2743C17.3547 9.14954 17.4199 9.0828 17.4199 9.00048C17.4199 8.91815 17.3547 8.85141 17.2743 8.85141Z" fill="#FFD900" stroke="black" stroke-width="0.0677923"/>
<path d="M13.8586 9C12.8707 9.99141 11.5488 11.9707 8.90857 11.9707C6.59529 11.9707 4.94646 9.99141 3.95154 9C4.94646 8.00859 6.59529 6.0293 8.90857 6.0293C11.5453 6.0293 12.8707 8.00859 13.8586 9Z" fill="white" stroke="black" stroke-width="0.0625"/>
<path d="M8.56055 7.06289C8.82422 7.3582 8.60625 7.47773 8.88398 7.49883C9.1793 7.51992 9.01055 7.81172 9.26016 7.82227C9.43242 7.8293 9.24258 8.51836 9.40781 8.74688C9.57656 8.98594 9.7207 8.81719 9.72422 8.98945C9.72422 9.16523 9.26016 9.14766 9.25313 9.69258C9.23906 10.009 8.85938 10.0301 8.8418 10.234C8.8207 10.4238 9.58711 10.5328 9.58008 10.7016C9.56602 10.8738 8.75039 10.8457 8.71172 11.0391C8.69414 11.2148 9.83672 11.3555 9.93164 11.8617C9.59581 11.9364 9.25262 11.973 8.90859 11.9707C6.59531 11.9707 4.94648 9.99141 3.95508 9C4.94648 8.00859 6.59531 6.0293 8.90859 6.0293C8.90859 6.0293 8.22305 6.65508 8.56055 7.06289Z" fill="black"/>
<path d="M5.92798 8.73704V7.94318ZM6.40638 7.94318V8.73704ZM6.88477 7.94318V8.73704Z" fill="black"/>
<path d="M5.92798 8.73704V7.94318M6.40638 7.94318V8.73704M6.88477 7.94318V8.73704" stroke="white" stroke-width="0.425243"/>
<path d="M5.92798 10.0578V9.26398ZM6.40638 9.26398V10.0578ZM6.88477 9.26398V10.0578Z" fill="black"/>
<path d="M5.92798 10.0578V9.26398M6.40638 9.26398V10.0578M6.88477 9.26398V10.0578" stroke="white" stroke-width="0.425243"/>
<path d="M7.37012 8.73704V7.94318ZM7.84852 7.94318V8.73704ZM8.32691 7.94318V8.73704Z" fill="black"/>
<path d="M7.37012 8.73704V7.94318M7.84852 7.94318V8.73704M8.32691 7.94318V8.73704" stroke="white" stroke-width="0.425243"/>
<path d="M7.37012 10.0578V9.26398ZM7.84852 9.26398V10.0578ZM8.32691 9.26398V10.0578Z" fill="black"/>
<path d="M7.37012 10.0578V9.26398M7.84852 9.26398V10.0578M8.32691 9.26398V10.0578" stroke="white" stroke-width="0.425243"/>
<path d="M9.56104 8.73704V7.94318ZM10.0394 7.94318V8.73704ZM10.5178 7.94318V8.73704Z" fill="black"/>
<path d="M9.56104 8.73704V7.94318M10.0394 7.94318V8.73704M10.5178 7.94318V8.73704" stroke="black" stroke-width="0.425243"/>
<path d="M9.56104 10.0578V9.26398ZM10.0394 9.26398V10.0578ZM10.5178 9.26398V10.0578Z" fill="black"/>
<path d="M9.56104 10.0578V9.26398M10.0394 9.26398V10.0578M10.5178 9.26398V10.0578" stroke="black" stroke-width="0.425243"/>
<path d="M11.0032 8.73704V7.94318ZM11.4816 7.94318V8.73704ZM11.96 7.94318V8.73704Z" fill="black"/>
<path d="M11.0032 8.73704V7.94318M11.4816 7.94318V8.73704M11.96 7.94318V8.73704" stroke="black" stroke-width="0.425243"/>
<path d="M11.0032 10.0578V9.26398ZM11.4816 9.26398V10.0578ZM11.96 9.26398V10.0578Z" fill="black"/>
<path d="M11.0032 10.0578V9.26398M11.4816 9.26398V10.0578M11.96 9.26398V10.0578" stroke="black" stroke-width="0.425243"/>
<path d="M16.2351 8.88397C16.084 9.14061 16.3511 8.79608 16.998 9.2285C17.0639 9.28293 17.1179 9.35035 17.1567 9.42656C17.1954 9.50277 17.218 9.58614 17.223 9.67147C17.1914 9.65389 17.1703 9.60819 17.1351 9.58007C17.0894 9.62577 17.1844 9.84022 17.1949 9.94217C17.0929 9.88592 17.1035 9.86132 17.0683 9.791C17.0754 9.87538 17.0508 10.1074 17.0929 10.1953C17.0121 10.1707 17.0191 10.1074 16.9769 10.0969C17.0051 10.1953 16.9523 10.3043 16.9664 10.4203C16.9207 10.3746 16.8679 10.3359 16.8469 10.3148C16.8433 10.3746 16.759 10.5152 16.7554 10.5644C16.7409 10.5549 16.7284 10.5425 16.7188 10.528C16.7091 10.5135 16.7024 10.4972 16.6992 10.4801C16.6059 10.5892 16.5268 10.7097 16.4636 10.8387C16.3301 10.7191 15.9855 10.4308 15.9398 10.2762C15.9011 10.364 15.8414 10.3922 15.7289 10.4555C15.6867 10.2129 15.5179 9.94217 15.6058 9.73124C15.5453 9.76933 15.4866 9.8104 15.4301 9.85428C15.4816 9.64146 15.5813 9.4433 15.7215 9.27508C15.8617 9.10686 16.0386 8.97305 16.2386 8.88397H16.2351Z" fill="#333333" stroke="black" stroke-width="0.05625"/>
<path d="M15.6761 10.1707C15.7394 10.0442 15.7957 10.0055 15.8379 9.92462C15.9082 9.784 15.9187 9.6715 15.9785 9.68907C16.0418 9.70665 16.0418 9.7629 15.9609 9.90001C15.8836 10.0406 15.8449 10.0723 15.6761 10.1707ZM16.098 10.466C16.091 10.3746 16.1191 10.3324 16.1121 10.2727C16.1051 10.1637 16.0594 10.0899 16.1191 10.0828C16.1719 10.0828 16.2 10.118 16.2 10.2234C16.2 10.3289 16.1859 10.3641 16.0945 10.466H16.098ZM16.4179 10.6524C16.3933 10.5188 16.4109 10.4625 16.3933 10.3746C16.3687 10.227 16.3125 10.1285 16.3652 10.1109C16.4179 10.0969 16.4496 10.1461 16.4707 10.3008C16.4883 10.452 16.4812 10.4942 16.4179 10.6524ZM16.7519 9.72775C16.6711 9.66446 16.6254 9.66095 16.5761 9.62228C16.4883 9.55196 16.4426 9.48517 16.4144 9.52032C16.3863 9.55548 16.4074 9.59415 16.4988 9.65743C16.5902 9.72071 16.6254 9.72423 16.7519 9.72775ZM16.6957 10.1637C16.6535 10.0758 16.6113 10.0582 16.5832 10.002C16.5375 9.90353 16.5375 9.82267 16.4847 9.84025C16.4355 9.86485 16.4285 9.91056 16.4847 10.002C16.541 10.0969 16.5691 10.1109 16.6957 10.1637Z" fill="#B3B3B3"/>
<path d="M1.31128 9.13361C1.30073 9.05978 1.31831 9.04923 1.27261 8.99298C1.34292 9.01759 1.34292 9.09845 1.42378 9.0422C1.45542 9.02462 1.46597 9.02462 1.43081 8.94025C1.51519 8.94376 1.79644 9.0422 1.84214 9.04571C1.96167 9.04571 2.17612 8.91915 2.32729 9.08087C2.46792 9.2215 2.42222 9.37618 2.42222 9.57306C2.36597 9.54845 2.39058 9.5379 2.33081 9.46408C2.37651 9.63986 2.33081 9.95626 2.33081 10.1461C2.3062 10.0969 2.30972 10.118 2.28511 10.0758C2.22534 10.241 2.15151 10.2762 2.15151 10.4801C2.1269 10.3992 2.15151 10.4168 2.1269 10.3746C2.06714 10.5047 1.66284 10.6172 1.82104 10.7438C1.68042 10.6629 1.62065 10.6734 1.55737 10.5996C1.52925 10.6172 1.50815 10.6524 1.48354 10.6945C1.23745 10.582 1.32534 10.343 1.13198 10.1777C1.09683 10.2481 1.11792 10.2375 1.07925 10.3465C1.04409 10.1918 1.03003 10.0969 0.987842 9.98439C0.952686 10.0442 0.952686 10.0195 0.882373 10.1145C0.854248 9.92814 0.812061 9.88243 0.826123 9.7629C0.755811 9.81212 0.805029 9.79103 0.731201 9.85431C0.801514 9.37618 1.09683 9.02111 1.30776 9.13361H1.31128Z" fill="#333333" stroke="black" stroke-width="0.06875"/>
<path d="M1.00891 9.91406C1.07219 9.75938 1.12844 9.71367 1.17063 9.61524C1.24094 9.43946 1.25149 9.29883 1.31125 9.31992C1.37102 9.34102 1.37102 9.41133 1.29016 9.5836C1.2093 9.75938 1.17415 9.79453 1.00891 9.91406ZM1.24797 10.3008C1.27258 10.1602 1.31125 10.1145 1.32883 10.023C1.36047 9.86836 1.3429 9.75235 1.39915 9.75586C1.4554 9.76289 1.46946 9.82617 1.43079 9.97735C1.39211 10.1355 1.3675 10.1707 1.24446 10.3008H1.24797ZM1.52922 10.5715C1.53977 10.4379 1.57141 10.3852 1.57493 10.2973C1.58547 10.1461 1.55383 10.0371 1.61008 10.0371C1.66282 10.0371 1.6804 10.0898 1.66633 10.2445C1.64875 10.3957 1.63118 10.4344 1.53274 10.5715H1.52922ZM2.14446 9.69258C2.02844 9.57656 1.95813 9.55196 1.88079 9.48164C1.75071 9.34805 1.68391 9.225 1.63469 9.27071C1.58899 9.31289 1.61711 9.37617 1.75774 9.50274C1.89836 9.6293 1.94758 9.64688 2.14446 9.69258ZM2.07415 10.1461C2.00032 10.0301 1.94055 9.99492 1.89133 9.9211C1.80344 9.7875 1.77883 9.675 1.7261 9.70313C1.67688 9.73125 1.69094 9.79102 1.78235 9.9211C1.87727 10.0477 1.91243 10.0723 2.07415 10.1461Z" fill="#B3B3B3"/>
<path d="M7.30896 6.55664C7.16833 6.82031 7.54802 6.46875 8.13865 6.91523C8.28354 7.06933 8.37691 7.26469 8.40584 7.47422C8.28463 7.43524 8.16795 7.38338 8.05779 7.31953C8.05779 7.31953 8.32146 7.5832 8.32146 7.88555C8.22654 7.8293 8.18084 7.83633 8.14568 7.76602C8.14568 7.86445 8.23357 7.92422 8.23357 8.07539C8.17632 8.03018 8.11514 7.99017 8.05076 7.95586C8.13865 8.10703 7.89255 8.40234 8.0156 8.49727C7.9113 8.48313 7.811 8.44776 7.7209 8.39334C7.6308 8.33892 7.55282 8.2666 7.49177 8.18086C7.44607 8.20898 7.44255 8.2582 7.43904 8.31094C7.44607 8.31797 7.11209 8.06484 7.14373 7.96641C7.10535 8.01457 7.0832 8.07364 7.08044 8.13516C6.95328 8.02918 6.85729 7.89065 6.80271 7.73438L6.69021 7.875C6.65154 7.62891 6.65154 7.63594 6.7324 7.425C6.67643 7.46324 6.62246 7.50431 6.57068 7.54805C6.61251 7.33839 6.70046 7.14066 6.82815 6.96919C6.95584 6.79772 7.12008 6.6568 7.30896 6.55664Z" fill="#333333" stroke="black" stroke-width="0.05"/>
<path d="M6.9679 7.8504C6.9925 7.66759 7.03821 7.60431 7.05227 7.48126C7.0804 7.27736 7.04876 7.12267 7.12258 7.1297C7.1929 7.13322 7.21399 7.21056 7.17883 7.41447C7.14368 7.6254 7.10852 7.67111 6.9679 7.85392V7.8504ZM7.35461 8.1879C7.33704 8.03322 7.36516 7.96642 7.35461 7.86798C7.34055 7.6922 7.2843 7.57618 7.34758 7.56564C7.41438 7.55509 7.44602 7.61134 7.45305 7.79064C7.46008 7.96642 7.44251 8.01212 7.3511 8.1879H7.35461ZM7.95227 8.46212C7.88547 8.32853 7.82922 8.28634 7.78704 8.20197C7.71672 8.05079 7.69563 7.92775 7.63938 7.94884C7.58313 7.97345 7.58665 8.03673 7.66751 8.18439C7.75188 8.33204 7.78704 8.36017 7.94876 8.46212H7.95227ZM8.15969 7.26681C7.99094 7.17892 7.90657 7.1754 7.8011 7.12267C7.61125 7.02072 7.50227 6.91173 7.4636 6.97501C7.42844 7.03478 7.47766 7.09454 7.67102 7.18595C7.86438 7.27384 7.92415 7.27736 8.15618 7.26329L8.15969 7.26681ZM8.21946 7.76251C8.09641 7.66408 8.0261 7.65001 7.94876 7.58673C7.80813 7.47072 7.74133 7.36173 7.69915 7.40743C7.65344 7.45314 7.68157 7.5129 7.82571 7.61837C7.96633 7.72384 8.01907 7.7379 8.21946 7.76251Z" fill="#B3B3B3"/>
</g>
<defs>
<clipPath id="clip0_14_1340">
<rect width="18" height="18" rx="9" fill="white"/>
</clipPath>
</defs>
</svg>
