<svg width="18" height="18" viewBox="0 0 18 18" fill="none" xmlns="http://www.w3.org/2000/svg">
<g clip-path="url(#clip0_14_1318)">
<path d="M18 18V0H0V18H18Z" fill="#000066"/>
<path d="M16.5621 7.71329C16.5621 9.74532 16.2386 11.9391 13.5949 12.9867C10.9652 11.9391 10.6417 9.74532 10.6277 7.71329H16.5621Z" fill="#8FC5FF" stroke="white" stroke-width="0.21875"/>
<path d="M13.5949 12.9727C14.5966 12.6225 15.4324 11.912 15.9398 10.9793H15.6902C15.6164 10.9688 13.1589 10.7332 12.8601 10.6066C12.614 10.5188 11.6367 10.6945 11.1902 10.8527C11.6827 11.8482 12.5461 12.6106 13.5949 12.9762V12.9727Z" fill="#366CC9" stroke="black" stroke-width="0.21875"/>
<path d="M11.7493 11.7281H11.9005C11.9356 11.7281 11.9356 11.7281 11.9497 11.693C11.9638 11.6543 11.9989 11.6649 12.0235 11.6789C12.0481 11.6895 12.1009 11.6789 12.1255 11.6543C12.1501 11.6297 12.1501 11.6297 12.1747 11.6543C12.1993 11.6789 12.2099 11.6649 12.238 11.6543C12.2485 11.6543 12.2978 11.6297 12.3083 11.591C12.3224 11.5559 12.361 11.5418 12.3751 11.5664C12.3856 11.591 12.4103 11.591 12.4349 11.591C12.463 11.591 12.463 11.6051 12.463 11.6402C12.463 11.6649 12.463 11.6754 12.5228 11.6297C12.572 11.6789 12.586 11.6543 12.586 11.6051C12.586 11.5524 12.586 11.3555 12.5614 11.3414C12.5368 11.3309 12.5263 11.243 12.5122 11.1797C12.5122 11.0567 12.5122 11.0567 12.3856 10.9934C12.3856 10.9582 12.361 10.9441 12.2626 10.9441C12.2731 10.9301 12.2626 10.8914 12.238 10.8809C12.2134 10.8668 12.2134 10.8563 12.238 10.807C12.2626 10.807 12.3083 10.807 12.3224 10.7684C12.3505 10.7438 12.4243 10.7438 12.4735 10.7684C12.5228 10.793 12.572 10.793 12.6599 10.7684L12.811 10.6945C12.8743 10.6594 12.8849 10.6453 12.8849 10.5926C12.8849 10.4695 12.8497 10.3465 12.8216 10.2832C12.7864 10.2199 12.7864 10.1567 12.7372 10.0442C12.6845 9.94571 12.6845 9.9211 12.6353 9.85782C12.6106 9.83321 12.6001 9.82267 12.6001 9.78399C12.5965 9.73513 12.5737 9.68966 12.5368 9.65743C12.4349 9.57306 12.4103 9.28478 12.361 9.07384C12.3364 8.94728 12.361 8.66251 12.3118 8.60978C12.2239 8.55001 12.1853 8.56056 12.1255 8.53946C12.0763 8.47267 12.0622 8.36368 12.013 8.25118C11.9497 8.26173 11.911 8.32149 11.8724 8.34962C11.8372 8.37423 11.8267 8.37423 11.8267 8.43751C11.8267 8.48673 11.788 8.56056 11.7388 8.66251C11.6896 8.76095 11.5771 8.72228 11.4892 8.85938C11.3134 8.64845 11.3134 8.58517 11.3028 8.5254C11.3028 8.46212 11.2642 8.44806 11.1622 8.36017V8.17384C11.0778 8.11407 11.0286 8.12462 10.9899 8.17384C10.9548 8.20899 10.9267 8.27579 10.8669 8.3004C10.8388 8.34962 10.7403 8.44806 10.6665 8.58517C10.7403 9.71017 10.9899 10.8317 11.7493 11.7281Z" fill="#5D3100" stroke="black" stroke-width="0.025"/>
<path d="M16.5621 7.71327C16.5621 6.93983 16.5269 6.191 16.5375 5.54413C15.5996 5.17981 14.601 4.99727 13.5949 5.00624C12.9339 5.00624 11.6367 5.10819 10.6523 5.54413C10.6769 6.191 10.6277 6.93983 10.6277 7.71327H16.5621Z" fill="#FFFF00" stroke="white" stroke-width="0.21875"/>
<path d="M10.793 8.5957C10.8246 8.64844 10.8844 8.73633 10.8879 8.78554C10.916 8.73984 10.9301 8.71523 10.9336 8.69062C10.9406 8.6625 10.9758 8.60273 10.9617 8.57461C10.9441 8.54297 10.9406 8.51836 10.9758 8.53945C11.0109 8.56406 11.0039 8.60273 10.9969 8.65898C10.9758 8.81719 10.909 8.85234 10.8984 8.96133C10.9934 9.18281 10.923 9.26367 11.025 9.48515C11.0426 9.4957 11.0848 9.47812 11.0988 9.48515C11.1551 9.44297 11.1938 9.45703 11.2746 9.47109C11.3484 9.48867 11.3906 9.5414 11.3906 9.59414C11.3906 9.64336 11.3906 9.6539 11.4082 9.68203C11.4258 9.71719 11.4609 9.75937 11.4504 9.7875C11.4434 9.82265 11.4574 9.84023 11.468 9.85781C11.4785 9.87539 11.4645 9.90703 11.4539 9.93164C11.4434 9.95976 11.4469 9.98437 11.4891 10.0371C11.5242 10.0828 11.6156 10.2832 11.6156 10.4062C11.6156 10.5223 11.6227 10.582 11.6719 10.6031C11.7211 10.6277 11.7387 10.6453 11.7281 10.698C11.7312 10.8193 11.7418 10.9402 11.7598 11.0602C11.7668 11.1023 11.7809 11.0953 11.7984 11.1164C11.8195 11.1375 11.8336 11.1656 11.8969 11.1656C11.9672 11.1656 12.0234 11.1551 12.0691 11.1656C12.1254 11.243 12.1605 11.352 12.1746 11.4223C12.1852 11.4926 12.1852 11.584 12.2098 11.584C12.2309 11.584 12.2555 11.584 12.2449 11.5031C12.2379 11.4187 12.2344 11.4047 12.2063 11.3625C12.1746 11.3203 12.1605 11.2992 12.1746 11.2746C12.1922 11.25 12.1957 11.2043 12.1887 11.1727C12.1816 11.141 12.1746 11.0918 12.2273 11.1551L12.3187 11.2605C12.3363 11.2852 12.3398 11.3238 12.3363 11.366C12.3328 11.4012 12.3398 11.4187 12.3609 11.4012C12.3855 11.3801 12.4137 11.4152 12.3996 11.4574C12.3891 11.4996 12.3996 11.5277 12.4418 11.5383C12.484 11.5488 12.498 11.5594 12.5051 11.5875C12.5121 11.6156 12.5508 11.6297 12.5508 11.5734C12.5508 11.5137 12.5262 11.3906 12.5121 11.352C12.4945 11.3133 12.4805 11.2289 12.477 11.1762C12.477 11.1305 12.4664 11.1199 12.4418 11.1059C12.4207 11.0988 12.3996 11.0848 12.3961 11.0566C12.3961 11.032 12.3715 11.032 12.3609 11.032C12.3469 11.032 12.3328 11.018 12.3258 11.0039C12.3188 10.9863 12.3082 10.9863 12.2906 10.9828C12.2766 10.9828 12.2484 10.9898 12.2414 10.9652C12.2344 10.9406 12.2203 10.902 12.2063 10.8809C12.1922 10.8562 12.1746 10.8527 12.1711 10.7754C12.1711 10.7051 12.1711 10.698 12.1465 10.6699C12.1171 10.6313 12.0912 10.5901 12.0691 10.5469C12.0551 10.5223 12.034 10.4906 12.034 10.5504C12.034 10.6102 12.034 10.6453 12.0762 10.6664C12.1148 10.691 12.1254 10.691 12.1078 10.7227C12.0902 10.7543 12.1078 10.7789 12.1148 10.8C12.1219 10.8246 12.1359 10.8457 12.1148 10.8703C12.0938 10.8914 12.0762 10.8844 12.0797 10.8492C12.0813 10.8125 12.0728 10.776 12.0551 10.7437C12.0375 10.7121 12.0234 10.691 12.0059 10.7086C11.9848 10.7262 11.9707 10.7086 11.9812 10.6945C11.9953 10.684 11.9918 10.6699 11.9812 10.6594C11.9707 10.6559 11.9707 10.6418 11.9883 10.6242C12.0059 10.6031 12.0023 10.5926 11.9918 10.5469C11.9813 10.5047 11.9109 10.2762 11.8793 10.2234C11.8441 10.1707 11.8512 10.132 11.8898 10.1883C11.932 10.2375 11.9707 10.2797 11.9707 10.3254C11.9777 10.3676 11.9883 10.3957 11.9953 10.4098C12.0059 10.4273 12.0234 10.4168 12.027 10.3852C12.0305 10.35 12.0621 10.3605 12.0129 10.2902C11.9707 10.2234 11.8863 10.1109 11.8547 9.90351C11.8195 9.69961 11.809 9.56601 11.7738 9.51328C11.7422 9.45703 11.7316 9.44297 11.7281 9.39023C11.7281 9.3375 11.7281 9.28476 11.7035 9.24961C11.6789 9.21445 11.6684 9.2039 11.6648 9.26367C11.6605 9.33446 11.6665 9.4055 11.6824 9.47461C11.7 9.4957 11.693 9.55195 11.6859 9.58711C11.6824 9.61875 11.6332 9.65039 11.7387 9.71719C11.7809 9.74179 11.7738 9.77695 11.7668 9.79805C11.7633 9.82265 11.7563 9.81914 11.7316 9.78398C11.7105 9.74883 11.6859 9.7207 11.6613 9.69961C11.6402 9.67851 11.6402 9.66445 11.6402 9.62226C11.6438 9.58008 11.6543 9.54492 11.6402 9.52734C11.6297 9.51328 11.6227 9.52734 11.6156 9.55195C11.6086 9.57656 11.6051 9.64687 11.591 9.66445C11.577 9.68203 11.5699 9.675 11.5594 9.62929C11.5488 9.58711 11.5629 9.52383 11.584 9.45C11.6086 9.37265 11.6227 9.29883 11.6051 9.20039C11.584 9.10195 11.5945 9.07383 11.5172 8.98945C11.4434 8.91211 11.3625 8.83476 11.3238 8.73281C11.2887 8.63086 11.2816 8.54648 11.243 8.50078C11.2066 8.45395 11.1626 8.41355 11.1129 8.38125V8.22656C11.1129 8.1914 11.0953 8.17031 11.0566 8.17734C11.0145 8.18437 10.9863 8.21601 10.9617 8.26875C10.9371 8.31445 10.916 8.29336 10.8809 8.37422C10.8422 8.45859 10.793 8.50078 10.793 8.59219V8.5957Z" fill="#CF6200"/>
<path d="M11.0285 9.54845C11.0531 9.56603 11.0777 9.57306 11.1164 9.55548C11.1516 9.5379 11.2008 9.47814 11.257 9.53439C11.3067 9.59624 11.3339 9.67306 11.3344 9.75236C11.3344 9.82267 11.3344 9.95626 11.4152 10.0301C11.4961 10.1039 11.5418 10.1813 11.5418 10.2797C11.5453 10.3781 11.5805 10.5258 11.5945 10.568C11.6016 10.6031 11.6227 10.6488 11.6473 10.6734C11.6754 10.7016 11.693 10.7789 11.7 10.8492C11.7 10.9336 11.6895 10.9899 11.7 11.025C11.7106 11.0602 11.7 11.0953 11.6684 11.0742C11.6402 11.0567 11.6332 11.0496 11.6192 11.0145C11.6051 10.9793 11.5805 10.9899 11.5981 11.0391C11.6156 11.0918 11.6613 11.1305 11.7035 11.1305C11.7457 11.1305 11.7598 11.1375 11.7844 11.1656C11.809 11.1902 11.816 11.2043 11.8617 11.2043C11.9074 11.2043 11.9109 11.2043 11.9531 11.2184C11.9953 11.2289 11.9953 11.2219 12.0199 11.2184C12.041 11.2113 12.0656 11.2289 12.0797 11.2711C12.0938 11.3168 12.1359 11.4328 12.1359 11.4609C12.1359 11.4926 12.1359 11.5277 12.157 11.5594C12.1817 11.5945 12.1746 11.6262 12.1465 11.6051C12.1219 11.584 12.1219 11.5945 12.1043 11.5945C12.0832 11.5981 12.0692 11.591 12.0445 11.5734C12.0199 11.5559 12.034 11.5594 12.0094 11.5207C11.9848 11.4856 11.9672 11.468 11.9672 11.4961C11.9672 11.5242 11.9672 11.5629 11.9426 11.5488C11.925 11.5313 11.9145 11.5313 11.8969 11.5488C11.8793 11.5664 11.8758 11.577 11.8547 11.5453C11.8371 11.5137 11.816 11.5102 11.7949 11.5031C11.7738 11.4961 11.7738 11.4996 11.7668 11.468C11.7563 11.4399 11.7281 11.4328 11.7 11.4328C11.6754 11.4328 11.6613 11.4223 11.6578 11.4012C11.6578 11.3801 11.6402 11.366 11.6262 11.359C11.6121 11.3484 11.6227 11.3238 11.6156 11.3027C11.6121 11.2817 11.5945 11.2887 11.5805 11.2852C11.5664 11.2817 11.5594 11.2852 11.5594 11.25C11.5594 11.2149 11.5453 11.2078 11.5348 11.1832C11.5277 11.1586 11.5348 11.1375 11.5418 11.1129C11.5447 11.102 11.545 11.0906 11.5425 11.0795C11.5401 11.0685 11.535 11.0583 11.5277 11.0496C11.5067 11.025 11.5242 11.0039 11.4715 10.9582C11.4223 10.9125 11.3942 10.9512 11.3766 10.8422C11.3642 10.719 11.3382 10.5976 11.2992 10.4801C11.2746 10.4449 11.25 10.4203 11.2219 10.4098C11.1938 10.3992 11.1727 10.4098 11.1727 10.343C11.1656 10.2832 11.1481 10.2059 11.1094 10.1672L11.032 10.0969C11.0145 10.0863 11.0074 10.0547 11.032 9.99845C11.0602 9.9422 11.0496 9.86837 11.0461 9.83322C11.0461 9.79806 11.032 9.75236 11.0426 9.71368C11.0496 9.67853 11.0426 9.62579 11.032 9.60118C11.025 9.57657 11.0109 9.56603 11.0285 9.54845ZM11.809 8.62736C11.7663 8.68391 11.7154 8.73369 11.6578 8.77501C11.5945 8.8172 11.5172 8.84884 11.5594 8.92618C11.6051 8.9965 11.6402 9.00704 11.6473 9.06329C11.6578 9.11954 11.6684 9.16525 11.7106 9.17931C11.7563 9.19337 11.7738 9.18282 11.7738 9.27423C11.7738 9.36564 11.7738 9.40079 11.8125 9.43243C11.8547 9.46759 11.8477 9.50275 11.8617 9.58712C11.8793 9.66798 11.8793 9.84376 11.932 9.96329C11.9883 10.0828 12.1043 10.3149 12.0902 10.3606C12.0762 10.4063 12.0586 10.4449 12.1113 10.5012C12.1582 10.5538 12.1898 10.6182 12.2027 10.6875C12.2063 10.7367 12.2133 10.7543 12.266 10.7367C12.3188 10.7192 12.3434 10.7016 12.3609 10.677C12.3785 10.6559 12.4102 10.6629 12.4594 10.6875C12.5086 10.7121 12.5824 10.7367 12.6246 10.7121C12.6668 10.6875 12.6914 10.6488 12.7301 10.6488C12.7899 10.6031 12.8109 10.5117 12.825 10.4871C12.8356 10.4625 12.825 10.4625 12.8004 10.4379C12.7758 10.4133 12.7899 10.3676 12.7828 10.3254C12.7748 10.2531 12.7507 10.1834 12.7125 10.1215C12.6598 10.0266 12.6281 9.91056 12.593 9.8754C12.5578 9.84728 12.5438 9.77697 12.5402 9.74181C12.5332 9.70665 12.4945 9.67501 12.4699 9.6504C12.4418 9.62579 12.4172 9.58712 12.3891 9.43243C12.3574 9.28126 12.3363 9.17579 12.3363 9.15118C12.3363 9.12306 12.3293 9.11603 12.3012 9.11251C12.2801 9.10197 12.266 9.05978 12.2731 9.03517C12.2801 9.01407 12.266 8.99298 12.2555 8.96486C12.2449 8.94376 12.2555 8.89454 12.2731 8.86642C12.2906 8.84181 12.2871 8.76798 12.2695 8.70821C12.252 8.64845 12.2344 8.59571 12.1676 8.58517C12.0973 8.57814 12.0867 8.56056 12.0586 8.50431C12.0305 8.44806 12.0059 8.34962 11.9953 8.32853C11.9883 8.30392 11.9777 8.30392 11.925 8.34611C11.8723 8.38829 11.8547 8.40236 11.8547 8.48322C11.8547 8.53243 11.8617 8.55353 11.8793 8.58517C11.8969 8.61329 11.9039 8.62032 11.9145 8.7047C11.9285 8.78907 12.0024 8.91564 11.9074 8.98946C11.809 9.06681 11.8266 9.08087 11.8301 9.13009C11.8301 9.18282 11.8055 9.21798 11.7879 9.14415C11.7703 9.07384 11.7879 9.02814 11.8371 8.99298C11.8899 8.95782 11.9391 8.91564 11.9039 8.86642C11.8688 8.82071 11.8547 8.70821 11.8547 8.65548C11.8512 8.60626 11.8371 8.58517 11.809 8.62736Z" fill="#CF6200"/>
<path d="M11.0391 9.72773L11.0461 9.8332C11.0461 9.86836 11.0602 9.94219 11.032 9.99492C11.0074 10.0512 11.0145 10.0828 11.032 10.1004C11.0426 10.0973 11.0524 10.092 11.0608 10.0849C11.0692 10.0777 11.0759 10.0688 11.0806 10.0588C11.0852 10.0488 11.0877 10.038 11.0878 10.0269C11.0879 10.0159 11.0857 10.005 11.0813 9.99492C11.0743 9.97918 11.0713 9.96199 11.0726 9.94483C11.0738 9.92767 11.0792 9.91107 11.0883 9.89648C11.1024 9.86836 11.1024 9.85078 11.0883 9.82969C11.0742 9.80859 11.0742 9.80859 11.0883 9.74531C11.1059 9.69258 11.0672 9.69258 11.0391 9.72773ZM11.5945 10.568C11.5805 10.5258 11.5453 10.3781 11.5418 10.2797C11.5389 10.2316 11.5262 10.1847 11.5044 10.1417C11.4827 10.0988 11.4523 10.0608 11.4152 10.0301C11.352 9.97383 11.3414 9.87891 11.3344 9.80859C11.2887 9.77695 11.2676 9.79102 11.2746 9.84375C11.2746 9.90352 11.3344 9.93164 11.3274 10.0125C11.3168 10.1004 11.3168 10.0758 11.359 10.118C11.3977 10.1637 11.4152 10.1988 11.3942 10.2164C11.3731 10.234 11.3695 10.2621 11.3977 10.2727C11.4293 10.2867 11.4328 10.3184 11.4258 10.35C11.4258 10.3781 11.4504 10.3852 11.468 10.4062C11.4772 10.4223 11.4821 10.4405 11.4821 10.459C11.4821 10.4775 11.4772 10.4957 11.468 10.5117C11.4539 10.5398 11.4504 10.5855 11.482 10.5609C11.5137 10.5363 11.5242 10.5609 11.5488 10.6031C11.5664 10.6383 11.584 10.6277 11.6086 10.6137C11.6012 10.5979 11.5953 10.5814 11.591 10.5645L11.5945 10.568ZM12.0129 11.3203C11.9918 11.3555 11.9707 11.3449 11.9531 11.3238C11.932 11.3062 11.9074 11.3062 11.918 11.2711C11.9285 11.2359 11.925 11.2289 11.8969 11.2078C11.8945 11.2078 11.8922 11.2078 11.8899 11.2078H11.8617C11.816 11.2078 11.809 11.1902 11.7844 11.1656C11.78 11.1595 11.7753 11.1537 11.7703 11.148V11.1727C11.7703 11.2078 11.7703 11.2008 11.7352 11.2113C11.7 11.2219 11.7035 11.1762 11.6965 11.148C11.6958 11.1421 11.6946 11.1362 11.693 11.1305C11.6543 11.1234 11.6121 11.0812 11.5981 11.0391C11.5805 10.9863 11.5981 10.9828 11.6156 11.0145C11.6297 11.0426 11.6402 11.0566 11.6684 11.0742C11.6965 11.0918 11.7035 11.0637 11.6965 11.025C11.6947 11.011 11.6947 10.9968 11.6965 10.9828C11.6859 10.9687 11.6789 10.9582 11.6649 10.9512C11.6156 10.9301 11.6297 10.923 11.6332 10.8809C11.6332 10.8422 11.6262 10.8422 11.5945 10.8598C11.5594 10.8879 11.5594 10.8598 11.5594 10.793C11.5594 10.7297 11.5137 10.7297 11.5067 10.7754C11.4961 10.8211 11.482 10.7895 11.4609 10.7262C11.4434 10.6594 11.4152 10.6453 11.4117 10.7086C11.4117 10.7578 11.3977 10.7719 11.3625 10.7437L11.3766 10.8422C11.3942 10.9477 11.4188 10.9125 11.4715 10.9582C11.5242 11.0039 11.5067 11.0285 11.5242 11.0496C11.5453 11.0707 11.5488 11.0848 11.5418 11.1129C11.5348 11.1375 11.5242 11.1621 11.5348 11.1832C11.5453 11.2078 11.5594 11.2184 11.5594 11.2465C11.5594 11.2781 11.5664 11.2781 11.5805 11.2852L11.6051 11.2887L11.6297 11.2535C11.6719 11.2184 11.7352 11.257 11.7492 11.3062C11.7668 11.352 11.7914 11.3695 11.8195 11.3309C11.8477 11.2957 11.8406 11.2957 11.8723 11.3309C11.9004 11.366 11.918 11.3625 11.918 11.3625C11.918 11.3625 11.9531 11.3484 11.9742 11.3695C11.9953 11.3871 12.0094 11.3836 12.0481 11.3238C12.0938 11.2641 12.0305 11.2816 12.0129 11.3238V11.3203ZM12.1289 9.54141C12.1395 9.44648 12.1289 9.35156 12.1711 9.31641C12.2063 9.28125 12.2555 9.21445 12.252 9.36211C12.252 9.50625 12.2449 9.50273 12.2168 9.53086C12.1817 9.56602 12.157 9.57656 12.1887 9.63633C12.2203 9.68906 12.2238 9.69258 12.2203 9.77695C12.2133 9.86484 12.2133 9.9 12.2484 9.94219C12.2836 9.98789 12.2906 9.99141 12.2977 10.0406C12.3104 10.0946 12.337 10.1443 12.375 10.1848C12.4102 10.2199 12.4594 10.3184 12.4629 10.3887C12.4699 10.459 12.5297 10.4766 12.5859 10.5223C12.6387 10.5715 12.5719 10.6031 12.5297 10.5855C12.4875 10.5574 12.5051 10.5855 12.477 10.6102C12.4524 10.6453 12.4418 10.6453 12.4207 10.5961C12.3961 10.5469 12.3258 10.5082 12.2906 10.4941C12.259 10.4836 12.2274 10.4273 12.1957 10.3711C12.1839 10.3469 12.166 10.3261 12.1439 10.3107C12.1217 10.2953 12.096 10.2859 12.0692 10.2832C12.0867 10.3184 12.0938 10.35 12.0867 10.3605C12.0762 10.4098 12.0586 10.4449 12.1113 10.5012C12.1582 10.5538 12.1898 10.6182 12.2027 10.6875C12.2027 10.7332 12.2133 10.7508 12.2625 10.7332C12.3188 10.7156 12.3434 10.698 12.3609 10.677C12.3785 10.6559 12.4102 10.6594 12.4594 10.6875C12.5051 10.7121 12.5789 10.7367 12.6211 10.7121C12.6668 10.6875 12.6879 10.6488 12.7266 10.6488C12.7899 10.6031 12.8074 10.5117 12.8215 10.4871C12.8356 10.4625 12.825 10.4625 12.8004 10.4379C12.7758 10.4133 12.7899 10.3676 12.7828 10.3254C12.7793 10.2797 12.7617 10.2164 12.709 10.1215C12.6563 10.023 12.6281 9.91055 12.593 9.87539C12.5578 9.84727 12.5438 9.77695 12.5367 9.73828C12.5367 9.70312 12.4945 9.675 12.4664 9.64687C12.4418 9.62227 12.4172 9.58711 12.3856 9.43594L12.3363 9.17578C12.3082 9.22852 12.2871 9.23906 12.2731 9.20391C12.2625 9.16875 12.2449 9.14414 12.2274 9.16875C12.2098 9.19336 12.2027 9.14766 12.2027 9.12656C12.2027 9.10547 12.2027 9.10195 12.1781 9.10195C12.157 9.10195 12.1746 9.0668 12.1641 9C12.157 8.93672 12.143 8.92969 12.1359 9.00703C12.1289 9.08438 12.0867 9.13008 12.1008 9.14766C12.1184 9.16523 12.1113 9.20039 12.0938 9.25313C12.0762 9.30234 12.0832 9.33398 12.0973 9.36914C12.1113 9.4043 12.0867 9.47109 12.0797 9.52383C12.0692 9.58008 12.1149 9.63633 12.1289 9.54141ZM11.3379 8.76797C11.3027 8.76797 11.2817 8.79609 11.3027 8.89453C11.3133 8.9543 11.2676 8.94375 11.2535 8.91211C11.2324 8.88047 11.2184 8.81719 11.1832 8.76094C11.1516 8.70469 11.1656 8.79609 11.1656 8.85234C11.1586 8.90156 11.1938 8.90156 11.2254 8.94727C11.257 8.99297 11.2254 9.00703 11.1938 9.00703C11.1621 9.00703 11.1762 9.07734 11.1832 9.12305C11.1938 9.17227 11.1762 9.1793 11.1516 9.14062C11.127 9.10195 11.141 9.04219 11.1481 8.96484C11.1516 8.89453 11.1551 8.91211 11.1059 8.89453C11.0602 8.87695 11.0707 8.86992 11.0848 8.82422C11.1024 8.78203 11.1199 8.76094 11.0988 8.73633C11.0777 8.71875 11.0813 8.70469 11.1164 8.70117C11.1516 8.69414 11.1375 8.66953 11.1656 8.65898C11.1973 8.65195 11.2113 8.66602 11.2184 8.60977C11.2184 8.56055 11.2359 8.53242 11.2676 8.55C11.2922 8.62031 11.3168 8.73281 11.3379 8.76445V8.76797ZM11.7703 9.27422C11.7703 9.36562 11.7703 9.40078 11.809 9.43242C11.8512 9.46758 11.8442 9.50273 11.8617 9.58711C11.8793 9.66797 11.8793 9.84375 11.932 9.96328L11.9883 10.0934C12.0149 10.0712 12.0365 10.0437 12.0516 10.0125C12.0656 9.98437 12.027 9.92461 11.9953 9.87187C11.9637 9.81914 11.9988 9.80156 12.0305 9.73828C12.0586 9.66797 12.0234 9.66797 11.9777 9.65039C11.9285 9.63281 11.9285 9.59062 11.9039 9.52031C11.8793 9.45 11.8828 9.42187 11.9039 9.3832C11.9145 9.34453 11.9039 9.31289 11.8688 9.30586C11.8336 9.29531 11.8442 9.2707 11.8547 9.22852C11.8723 9.18281 11.8793 9.17578 11.8266 9.18633C11.7879 9.19687 11.7774 9.20391 11.7633 9.22148C11.7703 9.23203 11.7703 9.24961 11.7703 9.27422Z" fill="#00B800"/>
<path d="M12.2695 9.45704C12.2695 9.50626 12.2695 9.53087 12.2555 9.54845C12.2414 9.56603 12.2484 9.59415 12.2625 9.61876C12.273 9.64689 12.2836 9.68204 12.273 9.72423C12.259 9.77345 12.2801 9.81564 12.3047 9.8297C12.3293 9.84025 12.3434 9.8297 12.3363 9.88947C12.3333 9.917 12.3365 9.94485 12.3456 9.971C12.3548 9.99716 12.3696 10.0209 12.3891 10.0406C12.4207 10.0652 12.4418 10.1074 12.4418 10.132C12.4348 10.1567 12.4594 10.1848 12.491 10.1988C12.5227 10.2094 12.5156 10.2164 12.5156 10.234C12.5156 10.2516 12.5297 10.2516 12.5648 10.2586C12.6 10.2656 12.6246 10.2902 12.6668 10.336C12.7055 10.3852 12.7582 10.4133 12.7512 10.357C12.7441 10.3008 12.7512 10.2727 12.702 10.2445C12.6457 10.2199 12.607 10.0934 12.5859 10.009C12.5641 9.92244 12.5191 9.84345 12.4559 9.78048C12.4523 9.72423 12.4594 9.69259 12.4207 9.66447C12.4051 9.65246 12.3926 9.637 12.3841 9.6193C12.3755 9.6016 12.3712 9.58216 12.3715 9.56251C12.3715 9.53087 12.3469 9.4922 12.3328 9.48868C12.3152 9.47814 12.3082 9.45353 12.3082 9.42892C12.3082 9.40431 12.273 9.40783 12.273 9.45353L12.2695 9.45704Z" fill="#5D3100"/>
<path d="M12.041 11.7703C12.1485 11.7558 12.2537 11.7274 12.3539 11.6859C12.4071 11.7263 12.4682 11.755 12.5332 11.7703C12.4594 11.7879 12.4102 11.7774 12.3926 11.7633C12.3996 11.7879 12.4277 11.8231 12.4418 11.8266C12.3715 11.8231 12.2906 11.8055 12.266 11.7809C12.2027 11.8055 12.1008 11.8125 12.041 11.7738V11.7703ZM12.1816 11.8758L12.3645 11.9004C12.3188 11.9426 12.3574 11.9777 12.4348 11.9707C12.3961 11.9777 12.3574 11.9918 12.382 11.9953C12.4783 11.9964 12.5739 11.9785 12.6633 11.9426C12.6035 12.0199 12.3047 12.0938 12.1816 11.8723V11.8758ZM12.3047 12.0656C12.3398 12.0481 12.4348 12.0551 12.4805 12.0762C12.4277 12.0938 12.3328 12.0938 12.3047 12.0656Z" fill="#00D860"/>
<path d="M12.4454 12.0656C12.5087 12.0551 12.695 12.1008 12.7618 12.0586C12.7372 12.1184 12.6212 12.1289 12.5825 12.1148C12.5403 12.1008 12.5052 12.0832 12.4771 12.0867C12.4876 12.0762 12.4665 12.0762 12.4419 12.0656H12.4454Z" fill="black"/>
<path d="M12.5122 12.157C12.5614 12.1641 12.7407 12.143 12.7935 12.1219C12.8532 12.1395 12.9692 12.1746 12.9938 12.1676C12.9411 12.2027 12.8356 12.1817 12.8005 12.1676C12.7021 12.2027 12.6247 12.2098 12.5122 12.157Z" fill="#00D860"/>
<path d="M12.5965 12.1887C12.6703 12.2027 12.7301 12.1922 12.8004 12.1676C12.8396 12.1827 12.8814 12.1899 12.9234 12.1887C12.9586 12.2062 13.0008 12.2309 13.043 12.2344C12.9642 12.2477 12.8833 12.2417 12.8074 12.2168C12.7194 12.2159 12.6322 12.2326 12.5508 12.266C12.5508 12.2414 12.5648 12.2098 12.5965 12.1887Z" fill="#00D860"/>
<path d="M12.5122 11.823C12.5685 11.8406 12.7724 11.8336 12.8743 11.7879C12.9165 11.7633 12.9411 11.7949 12.8919 11.8125C12.7267 11.8688 12.5931 11.8934 12.4946 11.8441C12.456 11.8195 12.4524 11.802 12.5122 11.823Z" fill="black"/>
<path d="M13.5034 11.5453C13.2573 11.6648 13.0921 11.7 12.7441 11.5945C12.7124 11.584 12.6913 11.5945 12.7265 11.6156C12.813 11.653 12.904 11.679 12.9972 11.693C13.0429 11.693 13.0253 11.7176 12.9972 11.7246C12.9691 11.7316 12.962 11.7527 12.9972 11.7352C13.0394 11.7211 13.2433 11.7176 13.3312 11.7633C13.3663 11.7809 13.3804 11.7774 13.3734 11.7633C13.3698 11.7457 13.3909 11.7387 13.4191 11.7352C13.4472 11.7352 13.4613 11.7246 13.4402 11.7141C13.4226 11.7035 13.4156 11.7 13.4331 11.693C13.4507 11.6859 13.4507 11.6789 13.4261 11.6719C13.4015 11.6719 13.3874 11.6613 13.4085 11.6473C13.4331 11.6367 13.4648 11.6297 13.4929 11.6297C13.4964 11.6121 13.4859 11.5594 13.5034 11.5488V11.5453Z" fill="#00D860"/>
<path d="M13.0922 11.577C13.2905 11.5797 13.4834 11.5125 13.6371 11.3871C13.6828 11.4152 13.7531 11.4469 13.7883 11.4574C13.8234 11.4609 13.8586 11.4926 13.7988 11.4926C13.7461 11.4926 13.6652 11.468 13.6301 11.4574C13.4682 11.5551 13.281 11.6028 13.0922 11.5945C13.057 11.591 13.0429 11.5734 13.0922 11.577Z" fill="black"/>
<path d="M12.6704 10.8C12.7404 10.855 12.8275 10.8836 12.9165 10.8808C12.9703 10.921 13.0311 10.9508 13.0958 10.9687C13.022 11.0004 12.9411 11.025 12.92 11.0496C12.8849 11.018 12.8427 11.025 12.8286 11.0074C12.8005 11.032 12.804 11.0496 12.8251 11.0637C12.8427 11.0777 13.0079 11.1023 13.0501 11.0918C13.0888 11.0777 13.0993 11.1164 13.0677 11.1269C12.9763 11.1551 12.8075 11.1269 12.7513 11.032C12.6915 10.9406 12.6458 10.9055 12.4841 10.9898C12.4665 10.9441 12.4665 10.9336 12.4349 10.9336C12.3997 10.9336 12.347 10.8914 12.3892 10.8949C12.4349 10.8949 12.565 10.8773 12.6704 10.8Z" fill="#00D860"/>
<path d="M12.709 11.0039C12.6844 11.0145 12.6036 11.0566 12.5755 11.0566C12.5508 11.0602 12.5016 11.1023 12.5508 11.1023C12.6036 11.1023 12.6669 11.0496 12.702 11.0426C12.7407 11.0355 12.7407 10.9969 12.709 11.0074V11.0039ZM12.8637 11.1727C12.8462 11.1727 12.7618 11.1937 12.7372 11.1902C12.7126 11.1902 12.695 11.1973 12.6985 11.2113C12.6985 11.2289 12.7055 11.2359 12.6739 11.2359C12.6387 11.2359 12.6071 11.2465 12.5965 11.2535C12.586 11.2641 12.586 11.2746 12.6212 11.2816C12.6563 11.2852 12.6704 11.2852 12.709 11.2676C12.7512 11.25 12.7864 11.2219 12.8286 11.2184C12.8708 11.2184 12.913 11.1656 12.8637 11.1691V11.1727Z" fill="#00D860"/>
<path d="M12.7477 11.2711C12.7829 11.2957 12.9586 11.352 13.0219 11.3484C13.0852 11.3449 13.0747 11.3731 13.0254 11.3836C12.927 11.4047 12.8075 11.3625 12.7231 11.2992C12.6879 11.2641 12.7231 11.2535 12.7477 11.2711Z" fill="black"/>
<path d="M13.5773 11.3555C13.4437 11.3977 13.3066 11.3836 13.2538 11.3695C13.1976 11.359 13.1484 11.352 13.1835 11.3871C13.2222 11.4223 13.3417 11.4469 13.412 11.4293C13.1695 11.4856 13.1062 11.4785 13.0464 11.468C12.9727 11.4609 12.8986 11.4609 12.8249 11.468C12.7898 11.468 12.7405 11.468 12.7195 11.4504C12.7019 11.4363 12.6913 11.4152 12.7546 11.4223C12.8179 11.4293 12.8249 11.4152 12.7722 11.4047C12.7159 11.3977 12.6386 11.4223 12.7159 11.468C12.7898 11.5172 12.9515 11.468 13.057 11.4961C13.1624 11.5242 13.3804 11.5453 13.5913 11.3766C13.6019 11.3695 13.6195 11.3414 13.5773 11.3555ZM12.9198 11.1586V11.2043C12.9163 11.2149 12.9163 11.2289 12.9339 11.2148C12.955 11.2008 12.9691 11.1797 12.9902 11.1902C13.0233 11.1997 13.058 11.2021 13.0921 11.1973C13.1167 11.1973 13.1202 11.1902 13.0851 11.1727C13.0499 11.1586 13.0148 11.1551 12.9937 11.1551C12.9761 11.1586 12.9515 11.1551 12.9339 11.1481C12.9163 11.1375 12.9163 11.1445 12.9198 11.1586Z" fill="#00D860"/>
<path d="M13.2643 11.2219C13.2305 11.2185 13.1974 11.2102 13.1659 11.1973C13.1378 11.1867 13.0956 11.1832 13.1272 11.2184C13.1554 11.257 13.2749 11.2781 13.3171 11.2605C13.3628 11.243 13.3417 11.2254 13.3839 11.2465C13.4261 11.2711 13.4682 11.2922 13.4999 11.2922C13.5315 11.2922 13.5421 11.2922 13.5069 11.2711C13.4718 11.2535 13.4577 11.2465 13.4577 11.2324C13.4577 11.2184 13.4472 11.2078 13.4788 11.2184C13.5069 11.2289 13.5421 11.243 13.5667 11.2289C13.5948 11.2184 13.637 11.1902 13.6792 11.1902L13.6897 11.1656C13.63 11.1586 13.5948 11.1762 13.5737 11.1832C13.5502 11.1921 13.5247 11.1945 13.4999 11.1902C13.4682 11.1832 13.4296 11.1797 13.419 11.1727C13.4085 11.1656 13.4085 11.1551 13.4331 11.1516C13.4577 11.148 13.4682 11.1305 13.4331 11.1375C13.3979 11.1445 13.303 11.1375 13.2538 11.1234C13.2011 11.1094 13.1835 11.1059 13.1589 11.1129C13.1378 11.1199 13.1413 11.1445 13.1729 11.148C13.2011 11.148 13.2714 11.1551 13.2995 11.1762C13.3241 11.2008 13.3171 11.2008 13.2889 11.1902C13.2643 11.1762 13.2151 11.1832 13.2643 11.2254V11.2219Z" fill="#00D860"/>
<path d="M13.6862 11.1656L13.6792 11.1902C13.7653 11.1867 13.8512 11.1998 13.9323 11.2289C13.978 11.1938 13.9675 11.1832 14.0026 11.1902C14.0378 11.1938 14.0729 11.2078 14.094 11.1973C14.1116 11.1867 14.1222 11.1902 14.1433 11.1902C14.1608 11.1973 14.203 11.1902 14.2276 11.1727C14.2487 11.1586 14.3015 11.1375 14.3331 11.1375C14.3612 11.1375 14.3964 11.134 14.3437 11.1234C14.2891 11.1203 14.2345 11.1262 14.1819 11.141C14.1538 11.1516 14.0694 11.1586 14.0202 11.1586C13.9745 11.1586 13.9042 11.1832 13.8515 11.1691C13.7952 11.1551 13.7179 11.1656 13.6862 11.1656Z" fill="#00D860"/>
<path d="M14.4386 11.1375C14.3437 11.2078 14.2242 11.2219 14.0871 11.2324C14.0449 11.2324 14.0589 11.2465 14.0941 11.25C14.2347 11.2641 14.407 11.2148 14.4597 11.1516C14.4773 11.1375 14.4773 11.1094 14.4386 11.1375Z" fill="black"/>
<path d="M13.7778 11.2992C13.8165 11.2992 13.9642 11.3414 14.0134 11.3555C14.0485 11.3555 14.0591 11.3449 14.0485 11.3308C14.0415 11.3168 14.038 11.3062 14.1013 11.3062H14.3474C14.3685 11.2992 14.4177 11.2605 14.4423 11.257C14.3825 11.2641 14.1364 11.2746 14.1083 11.2711C14.0855 11.2672 14.062 11.2709 14.0415 11.2816C14.0204 11.2922 14.0134 11.2992 13.9853 11.2887C13.9606 11.2816 13.9185 11.264 13.8974 11.2816C13.8692 11.2957 13.82 11.2816 13.7778 11.2992Z" fill="#00D860"/>
<path d="M14.3437 11.3062C14.3683 11.2992 14.4175 11.257 14.4422 11.257C14.4843 11.257 14.53 11.2711 14.5547 11.2746C14.5758 11.2746 14.6004 11.2746 14.5828 11.257C14.5652 11.2394 14.5828 11.2078 14.6531 11.2184C14.7164 11.2254 14.7515 11.2359 14.8148 11.2289C14.8781 11.2254 14.9097 11.2711 15.0293 11.2219C15.0222 11.2711 15.0468 11.2711 15.0679 11.2641C15.0925 11.257 15.1172 11.257 15.1558 11.2887C15.191 11.3168 15.43 11.3238 15.4863 11.3098C15.539 11.2992 15.5707 11.3273 15.5285 11.3449C15.4863 11.3555 15.4758 11.373 15.4863 11.3871C15.4933 11.4012 15.5039 11.4152 15.4511 11.4117C15.4019 11.4047 15.3914 11.4187 15.3668 11.4398C15.3422 11.4609 15.3316 11.4644 15.2613 11.4504C15.191 11.4398 15.1769 11.4504 15.1383 11.4574C15.0961 11.4644 15.0925 11.4609 15.0504 11.4504C14.9939 11.4307 14.933 11.427 14.8746 11.4398C14.8218 11.4539 14.7867 11.475 14.741 11.4609C14.6953 11.4469 14.6918 11.4504 14.7199 11.4258C14.7515 11.3976 14.755 11.3976 14.8113 11.3906C14.8675 11.3836 14.9097 11.366 14.8711 11.3449C14.8289 11.3238 14.8183 11.3238 14.7656 11.3519C14.7164 11.3766 14.6883 11.3941 14.6285 11.3625C14.5722 11.3273 14.5441 11.3344 14.5019 11.3449C14.4633 11.3555 14.4 11.3344 14.3437 11.3098V11.3062ZM14.5406 11.4047C14.4633 11.4152 14.4457 11.3695 14.3648 11.3801C14.3437 11.3801 14.2945 11.4152 14.3578 11.4082C14.4175 11.4047 14.4843 11.4363 14.5406 11.4328C14.6004 11.4258 14.5758 11.4012 14.5406 11.4047ZM14.4492 11.4609C14.4914 11.4469 14.5722 11.475 14.6039 11.468C14.639 11.4644 14.6742 11.482 14.6355 11.4961C14.5968 11.5066 14.5125 11.475 14.4738 11.4855C14.4386 11.4961 14.3965 11.482 14.4492 11.4609ZM13.6758 11.6719C13.7285 11.6719 13.9218 11.6648 13.9992 11.5031C14.0027 11.4891 14.0097 11.4855 14.0343 11.5031C14.0554 11.5207 14.1468 11.5734 14.3156 11.584C14.3613 11.591 14.4105 11.6121 14.3156 11.6051C14.2207 11.598 14.073 11.5769 14.0238 11.5418C13.9394 11.6754 13.7883 11.693 13.6722 11.6894C13.609 11.6894 13.6265 11.6684 13.6722 11.6719H13.6758Z" fill="#00D860"/>
<path d="M14.0976 11.4504C14.0694 11.4855 13.9815 11.5488 13.9429 11.5559C13.8972 11.5559 13.7776 11.5418 13.746 11.5312C13.7179 11.5207 13.6757 11.5242 13.7214 11.5559C13.7819 11.5876 13.8503 11.601 13.9183 11.5945C13.964 11.5875 14.0132 11.5699 14.0448 11.5945C14.08 11.6191 14.1468 11.6543 14.1819 11.6473C14.2285 11.6379 14.2765 11.6391 14.3226 11.6508C14.3437 11.6613 14.3858 11.6965 14.3226 11.6754C14.2593 11.6543 14.2101 11.6754 14.1784 11.6578C14.2136 11.7035 14.2839 11.7773 14.3472 11.7773C14.3612 11.7773 14.3718 11.8019 14.3401 11.816C14.3683 11.8336 14.4421 11.8441 14.4808 11.809C14.4702 11.823 14.4772 11.8336 14.4913 11.8406C14.5054 11.8476 14.5265 11.8617 14.4983 11.8617C14.4702 11.8652 14.4034 11.8723 14.3823 11.8652C14.4456 11.9039 14.6108 11.9707 14.7761 11.9355C14.8112 11.9355 14.8253 11.918 14.7761 11.9215C14.6636 11.9215 14.6601 11.9215 14.639 11.9109C14.6179 11.9004 14.6249 11.8898 14.6565 11.8793C14.6847 11.8687 14.762 11.8617 14.7972 11.8617C14.8288 11.8617 14.8605 11.8441 14.7972 11.8441C14.7339 11.8441 14.646 11.8441 14.6144 11.8336C14.5827 11.8266 14.5581 11.809 14.5897 11.7844C14.6249 11.7598 14.6601 11.7703 14.6776 11.7492C14.5722 11.7492 14.4386 11.693 14.5124 11.6367C14.53 11.6262 14.523 11.6262 14.4948 11.6227C14.4667 11.6227 14.3894 11.598 14.3542 11.5769C14.319 11.5559 14.3437 11.5418 14.3683 11.5383C14.3085 11.5488 14.1819 11.5137 14.094 11.4504H14.0976ZM15.0468 11.4469C14.9823 11.4869 14.9082 11.5087 14.8323 11.5101C14.7866 11.5101 14.7761 11.5242 14.8147 11.5312C14.8499 11.5348 14.8886 11.5383 14.9062 11.5348C14.9237 11.5312 14.9308 11.5312 14.9589 11.5383C14.9971 11.5534 15.0394 11.5546 15.0784 11.5418C15.1276 11.5281 15.1786 11.5222 15.2296 11.5242C15.2612 11.5242 15.2964 11.5242 15.2296 11.5101C15.1692 11.4987 15.1072 11.4987 15.0468 11.5101C15.0257 11.5137 14.9589 11.5102 14.994 11.5031C15.0237 11.4932 15.0511 11.4776 15.0749 11.4574C15.0644 11.4574 15.0573 11.4504 15.0468 11.4469ZM15.0151 11.5734C14.9578 11.6161 14.8895 11.6417 14.8183 11.6473C14.8886 11.6719 14.9448 11.7457 14.987 11.7422C14.9659 11.7527 14.9378 11.7703 14.9132 11.7773C14.9554 11.7879 15.0257 11.7773 15.0819 11.7422C15.1804 11.7703 15.3069 11.7527 15.3491 11.7176C15.2877 11.7179 15.2276 11.6995 15.1769 11.6648C15.2085 11.6648 15.2366 11.6473 15.2542 11.6297C15.1769 11.6402 15.0503 11.6016 15.0151 11.5734Z" fill="#00D860"/>
<path d="M14.9133 11.7774C14.9415 11.7774 14.9661 11.7527 14.9872 11.7422C14.8623 11.7513 14.7375 11.7232 14.6286 11.6613C14.5618 11.5981 14.5618 11.6473 14.611 11.6895C14.6508 11.7271 14.699 11.7547 14.7515 11.77C14.8041 11.7853 14.8596 11.7878 14.9133 11.7774ZM15.0821 11.925C15.054 11.9426 14.9133 11.9496 14.8711 11.9426C14.8254 11.932 14.8008 11.9356 14.8149 11.9531C14.829 11.9707 14.8325 11.9883 14.7938 11.9848C14.7502 11.9792 14.7059 11.9828 14.6637 11.9953C14.6391 12.0059 14.6004 12.0305 14.6637 12.0199C14.7165 12.0129 14.7692 11.9988 14.8149 12.0129C14.8571 12.0234 15.0153 12.027 15.0469 12.0129C15.075 11.9953 15.0575 11.9988 15.0399 11.9988C15.0258 11.9988 15.0223 11.9918 15.0399 11.9813C15.061 11.9707 15.0786 11.9461 15.0821 11.925ZM13.7356 11.7352C13.6376 11.7717 13.5364 11.7988 13.4333 11.816C13.3862 11.8406 13.3349 11.8561 13.2821 11.8617C13.3067 11.8828 13.3911 11.9039 13.4262 11.8934C13.4022 11.9142 13.3749 11.9309 13.3454 11.9426C13.3981 11.9391 13.4579 11.9496 13.486 11.9531C13.4214 11.9881 13.3483 12.0039 13.275 11.9988C13.2891 12.0234 13.3102 12.0445 13.3454 12.0445C13.288 12.0606 13.2275 12.0618 13.1696 12.0481C13.1836 12.0832 13.2012 12.1008 13.2223 12.1043C13.1731 12.1113 13.1063 12.1184 13.05 12.0867C13.0922 12.143 13.1872 12.1641 13.3313 12.1465C13.4334 12.135 13.5311 12.0988 13.6161 12.041C13.5563 12.0481 13.479 12.0516 13.4403 12.041C13.5383 12.0168 13.6319 11.9777 13.718 11.925C13.6869 11.9258 13.6563 11.9173 13.6301 11.9004C13.6723 11.9039 13.834 11.8863 13.8797 11.8652C13.8362 11.8556 13.7975 11.8307 13.7708 11.7949C13.9469 11.8463 14.1331 11.8523 14.3122 11.8125C14.3368 11.8055 14.3438 11.7703 14.2911 11.7774C14.1997 11.7809 14.0239 11.7563 13.9782 11.7352C14.0168 11.7633 14.0613 11.7825 14.1083 11.7914C14.0239 11.816 13.9043 11.8336 13.7356 11.7352Z" fill="#00D860"/>
<path d="M13.3453 11.9461L13.4262 11.8969C13.3762 11.8995 13.3263 11.8886 13.282 11.8652C13.3137 11.8652 13.3664 11.8477 13.4332 11.8195C13.3137 11.816 13.2328 11.816 13.1871 11.7949C13.1397 11.7783 13.0887 11.7747 13.0395 11.7844C13.0113 11.7914 13.0219 11.8371 13.1449 11.8266C13.0693 11.862 12.9849 11.8743 12.9023 11.8617C12.9164 11.9039 12.927 11.9461 12.9129 11.9672C12.9832 12.0059 13.159 12.0586 13.2469 12.0481C13.1695 12.0199 13.1273 11.9883 13.1906 11.9813C13.2539 11.9742 13.2891 11.9602 13.3453 11.9461Z" fill="#00D860"/>
<path d="M13.1485 12.157C13.2996 12.143 13.5071 12.1395 13.6758 12.0024C13.718 11.9637 13.7461 11.9777 13.7039 12.0129C13.5558 12.1259 13.3767 12.1909 13.1906 12.1992C13.1063 12.1992 13.0676 12.1641 13.1485 12.157Z" fill="black"/>
<path d="M14.3087 11.8969C14.27 11.9145 14.161 11.932 14.1294 11.9285C14.0942 11.925 14.0485 11.9215 14.0239 11.9356C13.9958 11.9496 13.9958 11.9602 14.0309 11.9672L14.1364 11.9707C14.1143 11.9828 14.0951 11.9996 14.0801 12.0199C14.1294 12.0059 14.2278 12.0305 14.2559 12.0481C14.2313 12.0516 14.2102 12.0445 14.1926 12.034C14.2805 12.1289 14.5407 12.1289 14.5794 12.1113C14.5618 12.1254 14.5442 12.1395 14.5231 12.1465C14.5969 12.157 14.6813 12.157 14.7622 12.1078C14.7187 12.1093 14.6752 12.107 14.6321 12.1008C14.6501 12.0842 14.6718 12.0722 14.6954 12.0656C14.6424 12.0593 14.5888 12.0629 14.5372 12.0762C14.5477 12.0551 14.5618 12.0305 14.5829 12.0234C14.468 12.0318 14.3526 12.0199 14.2419 11.9883C14.3333 11.9988 14.4317 11.9461 14.4774 11.9461C14.4071 11.9461 14.3262 11.9285 14.3087 11.8969ZM13.9817 11.9707C13.9196 11.9823 13.8584 11.9987 13.7989 12.0199C13.7708 12.034 13.7462 12.0481 13.7989 12.0481C13.8059 12.0457 13.8129 12.0434 13.82 12.041C13.7989 12.041 13.7708 12.041 13.8129 12.027C13.8551 12.0129 13.9114 11.9848 13.9817 11.9707ZM13.8551 12.1219C13.8762 12.1219 13.9782 12.1219 14.0133 12.0867C14.0555 12.1184 14.1329 12.1641 14.1821 12.1641C14.2348 12.1641 14.2278 12.1746 14.1821 12.1816C14.1399 12.1852 14.0555 12.157 14.0133 12.1254C13.9536 12.1465 13.9044 12.1289 13.8516 12.1184L13.8551 12.1219ZM13.1028 12.5578C13.2047 12.5965 13.3348 12.6281 13.4333 12.593C13.4895 12.6422 13.602 12.6457 13.6653 12.6316C13.7251 12.6211 13.7813 12.6106 13.8481 12.6316C13.9184 12.6563 14.0555 12.6598 14.0942 12.6914C14.059 12.6914 13.9852 12.6914 13.9641 12.6984C13.9465 12.702 13.9571 12.7125 13.9887 12.7336C13.8634 12.7292 13.7392 12.7596 13.6301 12.8215C13.6462 12.7849 13.6729 12.754 13.7068 12.7327C13.7406 12.7114 13.78 12.7007 13.82 12.702C13.7637 12.6809 13.5739 12.6809 13.5141 12.716C13.4965 12.6984 13.4754 12.6668 13.4754 12.6563C13.3735 12.709 13.1837 12.6281 13.1028 12.5578ZM12.8462 12.375C12.9657 12.3609 13.0501 12.3223 13.0852 12.2836C13.1028 12.3047 13.1907 12.3258 13.2856 12.2941C13.2776 12.3008 13.2719 12.3099 13.2694 12.32C13.2669 12.3301 13.2676 12.3407 13.2715 12.3504C13.1951 12.3569 13.1203 12.3759 13.0501 12.4066C13.0114 12.4242 12.8919 12.4418 12.8532 12.4207C12.818 12.3996 12.8145 12.3785 12.8462 12.375Z" fill="#00D860"/>
<path d="M13.2715 12.3504C13.2083 12.3504 13.0922 12.3855 13.05 12.4066L13.0676 12.4664C13.2239 12.4212 13.3869 12.4034 13.5493 12.4137C13.5036 12.4137 13.4086 12.4664 13.3594 12.4734C13.486 12.4629 13.6055 12.491 13.6407 12.498C13.6723 12.5051 13.6758 12.5332 13.6547 12.5543C13.6301 12.5754 13.6196 12.5789 13.6723 12.5789C13.7215 12.5789 13.8305 12.5789 13.8797 12.5297C13.8586 12.5086 13.8094 12.5156 13.7954 12.5016C13.8271 12.4905 13.8559 12.4725 13.8797 12.4488C13.8303 12.4511 13.7807 12.4475 13.7321 12.4383C13.704 12.4312 13.6829 12.4242 13.718 12.4031C13.7421 12.3909 13.7635 12.3742 13.7813 12.3539C13.718 12.3715 13.6196 12.389 13.5352 12.3187C13.5704 12.3328 13.6407 12.3258 13.6653 12.3152C13.6372 12.2976 13.6161 12.2906 13.595 12.2906C13.6583 12.2555 13.7883 12.2273 13.9536 12.2906C14.03 12.2844 14.107 12.2892 14.1821 12.3047C14.2102 12.2801 14.2629 12.2168 14.2911 12.2027C14.1012 12.2168 13.7602 12.1816 13.7637 12.0832C13.704 12.1641 13.5633 12.2098 13.5 12.1957C13.493 12.2238 13.5176 12.259 13.5387 12.2801C13.479 12.2906 13.3665 12.3047 13.3137 12.2906C13.3418 12.3223 13.3981 12.3469 13.4333 12.3433C13.3629 12.3433 13.3278 12.3574 13.2715 12.3504Z" fill="#00D860"/>
<path d="M13.6724 12.5789C13.7216 12.5789 13.8306 12.5789 13.8798 12.5297C13.8587 12.5086 13.8095 12.5156 13.7954 12.5016C13.8271 12.4904 13.8559 12.4724 13.8798 12.4488C14.0169 12.4348 14.1364 12.4418 14.1962 12.4242C14.256 12.4066 14.4071 12.4172 14.4317 12.4066C14.3052 12.4312 14.2806 12.4418 14.27 12.4629C14.263 12.484 14.3157 12.498 14.3438 12.498C14.2876 12.498 14.2138 12.5578 14.2032 12.5824C14.1329 12.5402 14.0942 12.593 14.0837 12.6105C14.0502 12.6023 14.0154 12.6012 13.9815 12.6072C13.9476 12.6133 13.9153 12.6264 13.8868 12.6457C13.8165 12.6281 13.7708 12.6141 13.7005 12.6281C13.7462 12.6176 13.7356 12.5859 13.6724 12.5824V12.5789ZM14.2911 12.1992C14.3368 12.1992 14.4317 12.2063 14.4669 12.1992C14.4447 12.2097 14.4244 12.224 14.4071 12.2414C14.5196 12.2273 14.6673 12.2203 14.7095 12.2273C14.6603 12.2168 14.604 12.252 14.5759 12.273C14.5478 12.2906 14.5653 12.2977 14.6005 12.3047C14.6392 12.3082 14.6919 12.3398 14.6216 12.3293C14.5433 12.3208 14.4645 12.3196 14.386 12.3258C14.3544 12.3293 14.3368 12.3152 14.386 12.3082C14.4282 12.2977 14.4634 12.2836 14.4845 12.273C14.4402 12.2801 14.3951 12.2801 14.3509 12.273C14.3263 12.266 14.3122 12.252 14.3368 12.2484C14.3614 12.2449 14.3474 12.2309 14.3192 12.2344C14.2911 12.2414 14.2208 12.2695 14.1821 12.3047C14.2243 12.2625 14.263 12.2238 14.2911 12.2027V12.1992Z" fill="#00D860"/>
<path d="M13.7989 12.2766C13.826 12.3075 13.8595 12.3321 13.8972 12.3485C13.9349 12.3649 13.9758 12.3728 14.0169 12.3715C14.038 12.3715 14.0766 12.3996 14.0239 12.4031C13.8903 12.4066 13.8235 12.3785 13.7638 12.2906C13.7497 12.2695 13.7708 12.2449 13.7989 12.273V12.2766ZM14.6075 11.141C14.7125 11.1829 14.8249 11.2032 14.938 11.2008C14.9591 11.2008 14.9942 11.2184 14.9485 11.2254C14.8284 11.24 14.7067 11.2166 14.6005 11.1586C14.5759 11.1445 14.5829 11.1305 14.611 11.141H14.6075Z" fill="black"/>
<path d="M14.6813 11.1445C14.7938 11.1375 14.8782 11.1375 14.9099 11.1727C14.9731 11.1516 15.0856 11.1375 15.1103 11.1481C15.1384 11.1551 15.1665 11.1375 15.1067 11.1234C15.047 11.1094 14.9063 11.1023 14.8642 11.1129C14.822 11.1199 14.6884 11.127 14.6392 11.1199C14.6567 11.1234 14.6708 11.127 14.6813 11.1375V11.1445ZM15.1103 11.1832C15.163 11.1551 15.3142 11.1832 15.3563 11.1621C15.3212 11.2008 15.4618 11.2043 15.5778 11.1727C15.5321 11.2008 15.4372 11.2078 15.395 11.2254C15.3528 11.243 15.3282 11.2289 15.2966 11.2184C15.2614 11.2043 15.1806 11.1727 15.1103 11.1832Z" fill="#00D860"/>
<path d="M15.5778 11.1727C15.4618 11.2078 15.3247 11.2008 15.3599 11.1621C15.3106 11.1832 15.163 11.1551 15.1138 11.1832C15.163 11.1516 15.2052 11.1762 15.2438 11.1094C15.272 11.1164 15.3247 11.1199 15.3493 11.0918C15.3867 11.0994 15.4225 11.1137 15.4548 11.134C15.4759 11.1516 15.504 11.1305 15.4794 11.0988C15.5286 11.0813 15.497 11.127 15.6235 11.0918C15.6481 11.0848 15.7114 11.0742 15.736 11.0742C15.6886 11.1131 15.6367 11.1462 15.5813 11.1727H15.5778Z" fill="#00D860"/>
<path d="M13.2856 10.6313L13.2575 7.86446C13.2575 7.7379 13.1978 7.76251 13.1978 7.86446V10.6066L13.2856 10.6313ZM14.1821 7.71329L14.2806 10.6313L14.27 10.6559H14.2032L14.1399 7.71329H14.1821ZM15.0294 10.1813L14.9802 7.81172C14.9802 7.74141 14.9169 7.75196 14.9169 7.82579L14.9661 10.1813H15.0294Z" fill="#FFFF00" stroke="black" stroke-width="0.025"/>
<path d="M13.6828 8.19845L12.8109 8.1879C12.7757 8.36368 12.9867 8.34962 13.057 8.31095C13.1625 8.37423 13.2328 8.37423 13.2855 8.31095C13.3558 8.37423 13.4613 8.36017 13.4964 8.31095C13.5949 8.39884 13.7074 8.31095 13.6828 8.1879V8.19845ZM13.746 8.62384H12.8742C12.7089 8.77501 12.9093 8.84884 13.0851 8.74689C13.1097 8.79962 13.2082 8.82423 13.2855 8.78556C13.3558 8.83478 13.4613 8.79962 13.507 8.7504C13.5949 8.78556 13.7074 8.79962 13.7566 8.62384H13.746ZM13.7214 9.18634H12.8742C12.8601 9.32345 13.0359 9.30939 13.0957 9.27072C13.1589 9.37267 13.3066 9.34806 13.3593 9.28478C13.4472 9.34806 13.5211 9.334 13.5597 9.28478C13.6441 9.35861 13.7355 9.26017 13.7214 9.18634ZM13.7707 9.73478L12.8109 9.72072C12.7617 9.88243 12.9093 9.90704 12.9726 9.87189C12.9972 9.95626 13.1203 9.93165 13.1589 9.87189C13.2082 9.90704 13.2714 9.88243 13.2996 9.84728C13.3101 9.93165 13.4226 9.94571 13.5105 9.87189C13.6863 9.99493 13.8445 9.84728 13.7566 9.73126L13.7707 9.73478ZM14.6039 9.50978H13.8199C13.855 9.65743 13.9324 9.69611 14.0554 9.60821C14.1574 9.71017 14.305 9.6715 14.3437 9.62228C14.5195 9.75939 14.6039 9.59767 14.6039 9.49572V9.50978ZM14.5335 8.96134L13.7601 8.93673C13.7707 9.13361 13.957 9.12306 14.0554 9.04923C14.1187 9.13361 14.2453 9.109 14.305 9.04923C14.3929 9.14767 14.5546 9.08439 14.53 8.96134H14.5335ZM14.632 8.34962H13.8093C13.8093 8.48673 13.9957 8.56056 14.1328 8.43751C14.1679 8.59923 14.3191 8.55001 14.3789 8.48673C14.4808 8.60978 14.6953 8.46212 14.632 8.36017V8.34962ZM14.5793 7.93829L13.8339 7.94884C13.8339 8.0754 14.0097 8.12462 14.0695 8.02618C14.1046 8.08595 14.2312 8.0754 14.2699 8.02618C14.3191 8.11407 14.3929 8.05079 14.4175 8.02618C14.5054 8.08595 14.5933 8.05079 14.5793 7.93829ZM15.4406 8.21251L14.5441 8.19845C14.5441 8.28634 14.632 8.32501 14.6918 8.28634C14.6918 8.38829 14.8183 8.4129 14.9027 8.33556C14.9554 8.42345 15.1136 8.43751 15.1804 8.33556C15.3035 8.44806 15.4546 8.36017 15.4265 8.21251H15.4406ZM15.43 8.95079H14.5546C14.5546 9.07384 14.6953 9.109 14.7796 9.04923C14.7937 9.14767 14.9062 9.15821 14.966 9.09845C15.0539 9.18634 15.1769 9.19689 15.2543 9.09845C15.3527 9.13361 15.4406 9.04923 15.43 8.94728V8.95079ZM15.3773 9.60821H14.6812C14.6812 9.73478 14.8289 9.73478 14.8921 9.6715C14.966 9.75939 15.0679 9.75939 15.1277 9.69611C15.2156 9.76993 15.3668 9.74532 15.3773 9.60821Z" fill="white" stroke="black" stroke-width="0.025"/>
<path d="M14.2698 10.6559C13.8937 10.6559 13.5069 10.6559 13.2468 10.6313C12.9831 10.6066 12.9093 10.5574 12.723 10.4449L12.0234 10.0195C11.9636 9.99141 11.9003 10.0301 11.9882 10.0793L12.6843 10.5398C12.8741 10.6664 12.9972 10.7789 13.1062 10.916C13.2573 11.0777 13.3593 11.0777 13.4331 11.0531C13.5069 11.0285 13.6089 10.9898 13.7214 11.0145C13.8198 11.0391 13.9675 11.0496 14.0448 11.0391C14.1081 11.1023 14.2698 11.0883 14.3577 11.0637C14.426 11.0423 14.4986 11.0387 14.5687 11.0531H14.7796C14.8429 11.0531 15.0046 11.0145 15.1171 11.0285C15.2401 11.0531 15.3526 11.0285 15.43 11.0285C15.5103 11.0075 15.5939 11.0027 15.6761 11.0145C15.737 10.9719 15.7817 10.9099 15.8026 10.8387C15.8765 10.8281 15.9011 10.8141 15.9151 10.7789L15.989 10.5785H16.0136V10.5047L15.9644 10.4273L15.989 10.3043L16.0523 10.2797L16.0276 10.1531L14.9308 10.1777C14.89 10.2147 14.8628 10.2642 14.8534 10.3184L14.53 10.3676C14.4948 10.3781 14.4562 10.3781 14.4175 10.4273L14.2698 10.6559Z" fill="black" stroke="black" stroke-width="0.025"/>
<path d="M15.5777 10.1707L15.7394 9.559C15.764 9.49572 15.7042 9.48517 15.6761 9.559L15.5144 10.1707H15.5777Z" fill="black" stroke="black" stroke-width="0.025"/>
<path d="M16.214 9.48517C16.0769 9.54493 16.003 9.58361 15.9397 9.559C15.8765 9.53439 15.7991 9.52384 15.7534 9.54493C15.7539 9.54961 15.7539 9.55432 15.7534 9.559C15.7072 9.71739 15.6603 9.87559 15.6128 10.0336C15.7183 10.0688 15.8905 10.0688 15.9292 10.0336C15.9784 9.98439 16.0909 9.99845 16.1507 9.99845C16.1858 9.94572 16.1999 9.88243 16.1858 9.85782C16.1753 9.83322 16.1858 9.76993 16.1858 9.73478C16.1858 9.69611 16.2386 9.559 16.214 9.48517Z" fill="white" stroke="black" stroke-width="0.025"/>
<path d="M13.0711 8.31093C12.8302 8.94052 12.4947 9.52971 12.0762 10.0582M12.3223 10.2059C12.8759 9.76082 13.3563 9.23174 13.7461 8.63788M12.8742 9.17226C12.8355 9.50976 12.7336 10.1074 12.6844 10.4203M13.0113 9.92109C12.8848 10.0441 12.723 10.2445 12.5859 10.357M14.168 9.24609C14.0695 9.34804 13.957 9.47109 13.8445 9.4957M14.2312 9.2707C14.3229 9.3763 14.4387 9.45829 14.5687 9.50976M14.168 8.73632C14.0594 8.8313 13.9326 8.90308 13.7953 8.94726M14.2172 8.74687C14.2947 8.83503 14.3892 8.90675 14.4949 8.95781M13.8164 8.35312C13.9414 8.31697 14.0567 8.25331 14.1539 8.16679M14.1891 8.16679C14.277 8.25468 14.4387 8.34257 14.5266 8.36367M13.841 7.95234C13.9584 7.93132 14.0644 7.86897 14.1398 7.77656M14.175 7.75546C14.2664 7.82929 14.4281 7.93124 14.516 7.94179M14.9133 8.04023C14.8641 8.10351 14.727 8.20195 14.6391 8.20195M14.9766 8.04023C15.0117 8.10351 15.1137 8.20195 15.177 8.20195M14.5793 8.95078C14.7123 8.90095 14.8316 8.82021 14.9273 8.71523M14.9871 8.72577C15.0478 8.81867 15.1298 8.8958 15.2262 8.95078M14.7164 9.59765C14.7691 9.59765 14.9062 9.52031 14.9414 9.43593M15.0188 9.39726C15.0869 9.48234 15.1703 9.55388 15.2648 9.6082M12.934 9.7207C13.1763 9.62535 13.3939 9.4763 13.5703 9.28476M13.2715 9.52031C13.3913 9.61414 13.5271 9.6856 13.6723 9.73124M12.8988 9.17226C13.0087 9.12835 13.1099 9.06526 13.1977 8.98593M13.2574 8.97187C13.2961 9.02109 13.5598 9.18281 13.6723 9.18281M13.1977 8.44804C13.1026 8.5217 12.9971 8.58093 12.8848 8.62382M13.2574 8.44804C13.3453 8.51132 13.5316 8.62382 13.6441 8.62382M13.1977 7.94882C13.1123 8.04489 13.0113 8.12573 12.8988 8.18788M13.2574 7.96288C13.3102 8.05077 13.4578 8.17382 13.5598 8.18788M14.5547 8.50781C14.8273 8.97922 15.1977 9.38679 15.641 9.70312M13.8832 8.04726C14.2348 8.54648 14.9027 9.62929 15.5531 10.0301M15.6762 9.6082C15.5099 9.83355 15.3037 10.0266 15.068 10.1777M15.6305 9.74179C15.416 9.39023 15.3035 8.95781 15.1277 8.3707M13.6301 10.6664L13.384 9.91757H13.2715M13.3348 9.90351L13.5703 10.6523M13.2715 9.86835L13.4965 10.6418M13.2469 9.8789L13.4227 10.6418M13.4227 10.6137H13.6336M13.609 10.5434H13.4086M13.5844 10.4766H13.384M13.5598 10.4168H13.3594M13.5211 10.3394H13.3594M13.3453 10.2797H13.507M13.3313 10.2305H13.4965M13.3207 10.1672H13.4719M13.3102 10.118H13.4473M13.2961 10.0547H13.4227M13.282 10.0055H13.4086M13.2715 9.96679H13.3945M13.0605 9.91757L12.9094 10.5398M13.0957 9.91757L12.9727 10.5644M13.1344 9.89296L13.0359 10.5785M13.1836 9.8789L13.1098 10.6031M13.1977 10.5539H12.948M13.1941 10.4906H12.9129M13.1941 10.4168H12.9375M13.1871 10.3535H12.9516M13.1977 10.2902H12.9621M13.2012 10.2164H12.9902M13.2012 10.1531H12.9902M13.1871 10.0898H13.0008M13.1871 10.0301H13.0254M13.1871 9.96679H13.0395M13.1871 9.93163H13.05M13.1766 10.6137V9.8789M13.9852 9.63281L13.4859 10.6418M14.0238 9.61874L13.602 10.6523M14.0484 9.60468L13.7109 10.6523M14.0871 9.63281L13.8129 10.6523M13.8234 10.6172H13.5105M13.848 10.5152H13.5492M13.8621 10.4414H13.6055M13.9043 10.3676H13.6547M13.9148 10.2902H13.6793M13.943 10.2164H13.718M13.9641 10.1285H13.7672M13.9781 10.0652H13.7918M14.0027 9.99492H13.827M14.0168 9.94218H13.8551M14.0309 9.89296H13.8551M14.0168 9.84374H13.8902M14.0168 9.80507H13.9043M14.0273 9.75585H13.9289M14.052 9.70663H13.957M14.0555 9.66796H13.9711M14.393 9.6539L14.6039 10.3535L14.8289 9.70663M14.4281 9.66796L14.6918 10.3394L14.8922 9.67851M14.4668 9.66796L14.7832 10.3289M14.8535 10.2656L14.5055 9.6539M14.857 10.2797H14.6039M14.8289 10.1777H14.5828M14.7937 10.1039H14.5547M14.741 10.016H14.5301M14.6918 9.94218H14.5055M14.6461 9.85429H14.4809M14.6039 9.7664H14.4563M14.5547 9.69257H14.4316M14.7797 10.3289L14.9309 9.70663M14.966 9.73124L14.843 10.3148M14.632 10.2797H14.843M14.6566 10.2023H14.8676M14.6813 10.118H14.8816M14.7164 10.0406H14.9062M14.741 9.95273H14.9168M14.7691 9.88242H14.9309M14.8043 9.79101H14.9555M14.8289 9.7207H14.9555M15.068 9.73124L15.1664 10.1777M15.1031 9.70663L15.2438 10.1637M15.1559 9.70663L15.3035 10.1637M15.2156 9.73124L15.3773 10.1672M15.3668 10.132H15.1559M15.3422 10.0652H15.1418M15.3176 10.0055H15.1277M15.293 9.92812H15.1031M15.2543 9.86835H15.0785M15.2297 9.80507H15.068M15.2051 9.74179H15.0539" stroke="black" stroke-width="0.025"/>
<path d="M13.1555 10.8879C13.211 10.8578 13.2736 10.8433 13.3367 10.8457C13.3998 10.8482 13.4611 10.8676 13.5141 10.902C13.6196 10.8422 13.8059 10.8598 13.8938 10.9371C14.0274 10.8457 14.1399 10.8316 14.27 10.9195C14.3754 10.8492 14.5231 10.8422 14.6461 10.9266C14.7622 10.8703 14.8922 10.8246 15.0047 10.9477C14.9344 10.8984 14.7938 10.8563 14.6461 10.9688C14.5301 10.8563 14.3333 10.8984 14.27 10.9758C14.2464 10.95 14.2176 10.9296 14.1855 10.9158C14.1534 10.9021 14.1187 10.8953 14.0838 10.896C14.0489 10.8966 14.0145 10.9047 13.983 10.9197C13.9514 10.9347 13.9234 10.9562 13.9008 10.9828C13.7848 10.8844 13.609 10.8809 13.5141 10.9582C13.4403 10.8984 13.3313 10.8492 13.1555 10.8879Z" fill="#00B800"/>
<path d="M14.9237 10.7508C14.2965 10.8169 13.6636 10.805 13.0393 10.7156C12.9585 10.691 12.9796 10.6629 13.0499 10.6805C13.4552 10.7358 13.8651 10.75 14.2733 10.7227L14.4737 10.452C14.5089 10.4133 14.5159 10.4063 14.5792 10.3957L14.8604 10.35V10.3887L14.8393 10.4098C14.8393 10.4731 14.8534 10.6348 14.8639 10.6981C14.878 10.6981 14.8956 10.6875 14.8991 10.6875C14.9272 10.6805 14.9483 10.7402 14.9272 10.7473L14.9237 10.7508Z" fill="#CF6200"/>
<path d="M15.7712 10.7754H15.838C15.8523 10.7746 15.866 10.7695 15.8773 10.7607C15.8887 10.7519 15.897 10.7398 15.9013 10.7262L15.9716 10.5223L15.9189 10.4449C15.9282 10.3888 15.9364 10.3326 15.9435 10.2762L16.0138 10.2516C16.0138 10.2375 16.0103 10.1953 15.9927 10.1812C15.7712 10.1918 15.1138 10.2164 14.9872 10.2164C14.9591 10.2164 14.945 10.2164 14.9345 10.2551C14.8712 10.4871 14.9591 10.8105 15.1911 10.9934C15.2087 11.0109 15.2263 10.9969 15.1982 10.9723C15.1447 10.9201 15.0986 10.861 15.061 10.7965L15.2263 10.7894C15.2403 10.8422 15.279 10.9582 15.2896 10.9758C15.2966 10.9969 15.3142 11.0039 15.3071 10.9758C15.2825 10.9055 15.272 10.8246 15.2614 10.7894L15.4372 10.7859L15.4442 10.9512C15.4442 10.9758 15.4653 10.9758 15.4653 10.9512V10.7824L15.6165 10.7789L15.6025 10.9441C15.6025 10.9687 15.613 10.9863 15.62 10.9441L15.6446 10.7789H15.7501C15.7501 10.807 15.715 10.916 15.7044 10.9406C15.6974 10.9687 15.7079 10.9687 15.7185 10.9406C15.7423 10.8877 15.76 10.8323 15.7712 10.7754Z" fill="#CF6200"/>
<path d="M15.0329 10.7473C15.0188 10.7121 14.9625 10.5855 14.959 10.4941L15.177 10.4871C15.1868 10.5733 15.2009 10.659 15.2192 10.7438L15.0329 10.7473ZM15.2192 10.4871L15.2543 10.7438H15.4301L15.4231 10.4836L15.2192 10.4871ZM14.9661 10.2621C14.959 10.3078 14.9555 10.4062 14.959 10.452L15.1735 10.4484L15.1559 10.2551L14.9661 10.2621ZM15.1981 10.2551L15.2122 10.4449L15.4231 10.4414L15.4125 10.248L15.1981 10.2551ZM15.4547 10.248C15.4547 10.2902 15.4618 10.4098 15.4583 10.4414L15.6446 10.4344C15.6446 10.3922 15.6516 10.2727 15.6481 10.241L15.4547 10.248ZM15.6833 10.241L15.6797 10.4344L15.8766 10.4273C15.8872 10.3887 15.9047 10.2762 15.9047 10.2305L15.6833 10.241ZM15.8872 10.4695L15.6762 10.4766C15.6709 10.5622 15.6638 10.6478 15.6551 10.7332L15.8555 10.7262C15.8829 10.662 15.9064 10.5963 15.9258 10.5293L15.8872 10.4695ZM15.4653 10.4801L15.4688 10.7367L15.62 10.7332L15.6411 10.4766L15.4653 10.4801ZM14.6004 10.4309L14.5196 10.4484C14.4542 10.5429 14.3862 10.6355 14.3157 10.7262L14.611 10.7191L14.6004 10.4344V10.4309ZM14.6391 10.4238L14.6497 10.7156L14.8254 10.7016L14.8008 10.3957L14.6391 10.4238Z" fill="black"/>
<path d="M13.7708 9.73477H12.811V9.71016L13.7708 9.7207V9.73477ZM14.5196 8.96133C14.5302 8.96133 14.5302 8.96133 14.5196 8.96133L13.7708 8.94727C13.7567 8.94727 13.7567 8.94727 13.7708 8.94727H14.5196V8.96133ZM13.7216 9.17227C13.7321 9.17227 13.7321 9.18633 13.7216 9.18633H12.8743C12.8603 9.18633 12.8743 9.17227 12.8743 9.17227H13.7216ZM13.7462 8.62383C13.7567 8.62383 13.7567 8.63789 13.7462 8.63789H12.8603C12.8462 8.63789 12.8462 8.62383 12.8603 8.62383H13.7462ZM13.6829 8.18789C13.697 8.18789 13.697 8.19844 13.6829 8.19844H12.8216C12.811 8.19844 12.8216 8.17383 12.8216 8.17383L13.697 8.18789H13.6829Z" fill="black"/>
<path d="M14.5196 8.96133C14.5302 8.96133 14.5302 8.96133 14.5196 8.96133ZM14.5196 8.96133L13.7708 8.94727M14.5196 8.96133V8.94727H13.7708M13.7708 8.94727C13.7567 8.94727 13.7567 8.94727 13.7708 8.94727ZM13.7708 9.73477H12.811V9.71016L13.7708 9.7207V9.73477ZM13.7216 9.17227C13.7321 9.17227 13.7321 9.18633 13.7216 9.18633H12.8743C12.8603 9.18633 12.8743 9.17227 12.8743 9.17227H13.7216ZM13.7462 8.62383C13.7567 8.62383 13.7567 8.63789 13.7462 8.63789H12.8603C12.8462 8.63789 12.8462 8.62383 12.8603 8.62383H13.7462ZM13.6829 8.18789C13.697 8.18789 13.697 8.19844 13.6829 8.19844H12.8216C12.811 8.19844 12.8216 8.17383 12.8216 8.17383L13.697 8.18789H13.6829Z" stroke="black" stroke-width="0.025"/>
<path d="M14.5793 7.93829L13.834 7.94884" stroke="black" stroke-width="0.025"/>
<path d="M14.618 8.36014C14.632 8.36014 14.632 8.36014 14.618 8.36014H13.8094C13.7953 8.36014 13.7953 8.36014 13.8094 8.36014H14.618ZM15.4266 8.93671V8.94725H14.5547C14.5301 8.94725 14.5301 8.94725 14.5547 8.94725H15.4336L15.4266 8.93671ZM15.4266 8.19843C15.4547 8.19843 15.4547 8.21249 15.4266 8.21249H14.5441C14.5301 8.21249 14.5301 8.19843 14.5441 8.19843H15.4406H15.4266ZM14.6039 9.49921C14.618 9.49921 14.618 9.50975 14.6039 9.50975H13.8094V9.49569L14.6039 9.49921ZM15.3773 9.60819C15.3914 9.60819 15.3914 9.60819 15.3773 9.60819Z" fill="black"/>
<path d="M14.618 8.36014C14.632 8.36014 14.632 8.36014 14.618 8.36014ZM14.618 8.36014H13.8094M13.8094 8.36014C13.7953 8.36014 13.7953 8.36014 13.8094 8.36014ZM14.5547 8.94725H15.4266V8.93671L15.4336 8.94725H14.5547ZM14.5547 8.94725C14.5301 8.94725 14.5301 8.94725 14.5547 8.94725ZM15.3773 9.60819C15.3914 9.60819 15.3914 9.60819 15.3773 9.60819ZM15.3773 9.60819H14.6813M15.4266 8.19843C15.4547 8.19843 15.4547 8.21249 15.4266 8.21249H14.5441C14.5301 8.21249 14.5301 8.19843 14.5441 8.19843H15.4406H15.4266ZM14.6039 9.49921C14.618 9.49921 14.618 9.50975 14.6039 9.50975H13.8094V9.49569L14.6039 9.49921Z" stroke="black" stroke-width="0.025"/>
<path d="M16.0136 9.73475C16.0276 9.677 16.0276 9.61673 16.0136 9.55897C15.9895 9.56572 15.9639 9.56572 15.9398 9.55897C15.9286 9.5501 15.9168 9.54188 15.9046 9.53436C15.9046 9.58358 15.8765 9.72069 15.8519 9.76991C15.8167 9.76991 15.7289 9.76991 15.6902 9.7453L15.655 9.87186C15.7164 9.88529 15.78 9.88529 15.8414 9.87186C15.8414 9.94217 15.8273 10.009 15.7886 10.0582C15.8519 10.0582 15.9152 10.0582 15.9292 10.023C15.9644 9.9703 15.9644 9.89647 15.9785 9.8578L16.0382 9.84725L16.1015 9.81913L16.1894 9.80858V9.73475L16.214 9.68202L16.0136 9.7453V9.73475Z" fill="#EF072D" stroke="black" stroke-width="0.025"/>
<path d="M12.9234 5.51954C12.7975 5.51336 12.6713 5.52162 12.5472 5.54415C12.5121 5.56876 12.498 5.5793 12.5718 5.59337C12.6492 5.60743 12.7828 5.65665 12.8601 5.6918C12.9005 5.71916 12.9331 5.75656 12.9547 5.80032C12.9762 5.84409 12.9861 5.89271 12.9832 5.94141C12.9557 6.09553 12.9772 6.25437 13.0447 6.39563C13.1121 6.53688 13.2222 6.65344 13.3593 6.72891C13.3699 6.73946 13.3839 6.75352 13.3699 6.80274L13.3347 6.94337C13.3347 6.96446 13.3207 6.98907 13.3593 6.97852C13.3203 7.04729 13.2781 7.11416 13.2328 7.17891C13.0359 7.15079 12.8601 7.17891 12.8601 7.4004C12.8601 7.42501 12.8601 7.45313 12.8847 7.4004C12.9199 7.35118 12.9585 7.30196 13.0464 7.27735C12.9972 7.36524 12.9726 7.43907 12.9832 7.48829C12.9832 7.52344 13.0113 7.55157 13.0359 7.48829C13.0464 7.43907 13.0957 7.38985 13.1343 7.35118C13.1589 7.34063 13.1589 7.34063 13.1484 7.37579C13.1343 7.41095 13.1589 7.48829 13.1835 7.51641C13.2082 7.53751 13.2187 7.52696 13.2082 7.48829C13.2082 7.43907 13.2082 7.35118 13.2714 7.32657C13.3453 7.27735 13.4226 7.30196 13.4472 7.35118C13.4824 7.41446 13.507 7.35118 13.4718 7.30196C13.4367 7.25274 13.3945 7.18946 13.3453 7.18946L13.4718 6.97852C13.4718 6.95391 13.4964 6.94337 13.521 6.95391C13.521 6.96446 13.5457 6.96446 13.5562 6.9293L13.6441 6.75352L13.7214 6.72891L13.8445 6.91524V6.98907C13.8445 7.0418 13.7953 7.15079 13.7812 7.18946C13.6335 7.18946 13.5597 7.18946 13.507 7.27735C13.4824 7.31251 13.521 7.32657 13.5597 7.31251C13.5969 7.29014 13.6394 7.27801 13.6828 7.27735C13.7074 7.27735 13.7179 7.30196 13.6828 7.31251C13.5949 7.35118 13.5316 7.41446 13.5316 7.50235C13.5316 7.52696 13.5597 7.53751 13.5703 7.50235C13.6054 7.43907 13.6722 7.38985 13.732 7.37579C13.732 7.43907 13.746 7.53751 13.7953 7.56212C13.8304 7.59024 13.8304 7.56212 13.8199 7.52696C13.7953 7.46368 13.8199 7.4004 13.855 7.36524C13.9183 7.2879 14.0695 7.38985 14.1082 7.41446C14.1328 7.43907 14.1574 7.44962 14.1328 7.3793C14.1187 7.2879 13.9921 7.25274 13.8832 7.22813L14.0308 6.70079C14.0941 6.73946 14.1574 6.64102 14.2558 6.67969C14.4316 6.75352 14.6917 6.91524 14.7304 6.95391C14.7796 6.98907 14.7937 6.97852 14.8183 6.95391C14.8429 6.93985 14.8816 6.95391 14.9167 6.95391C14.9414 6.96446 14.966 6.97852 14.9308 6.90469C14.8601 6.77243 14.7574 6.66002 14.632 6.57774C14.7304 6.57774 14.8535 6.57774 14.8535 6.55313C14.8535 6.52852 14.7058 6.4793 14.6425 6.4793C14.7171 6.46559 14.7865 6.43153 14.8429 6.38087C14.8675 6.35274 14.8429 6.34219 14.741 6.34219C14.4808 6.34219 14.3437 6.34219 14.2066 6.26837C13.9816 6.1418 13.8445 5.99415 13.732 5.94141C13.6828 5.90626 13.6441 5.82891 13.6089 5.76563C13.5457 5.58282 13.5457 5.48438 13.3839 5.41759C13.3048 5.39466 13.2211 5.39198 13.1407 5.4098C13.0602 5.42761 12.9855 5.46534 12.9234 5.51954Z" fill="black" stroke="black" stroke-width="0.025"/>
<path d="M12.9375 5.56874H12.7231L12.9094 5.61796C12.9446 5.61796 12.934 5.65312 12.9094 5.64257C12.8848 5.63202 12.8602 5.64257 12.8848 5.66718C13.0114 5.75507 13.036 5.79374 13.0114 6.13124L13.0711 6.18046C13.0958 6.18046 13.0852 6.20507 13.0711 6.19101C13.0606 6.18046 13.0114 6.19101 13.0465 6.21562C13.0817 6.24374 13.1098 6.24374 13.0711 6.24374C13.036 6.24374 12.9973 6.26835 13.0711 6.25429C13.1344 6.25429 13.1731 6.2789 13.0711 6.28944C12.9973 6.28944 13.0219 6.31757 13.0711 6.31757C13.159 6.31757 13.1344 6.34218 13.1063 6.34218C13.0852 6.34218 13.0711 6.36679 13.1344 6.36679H13.2223C13.2329 6.36679 13.2469 6.36679 13.2223 6.38085C13.1977 6.38085 13.1977 6.40546 13.2329 6.40546C13.2715 6.40546 13.2961 6.40546 13.2575 6.41601C13.2469 6.41601 13.2223 6.43007 13.2575 6.44062C13.3454 6.44062 13.3594 6.46523 13.3348 6.47577C13.3102 6.48983 13.2997 6.48984 13.3348 6.48984C13.37 6.48984 13.4086 6.5039 13.37 6.51796C13.3454 6.51796 13.3348 6.54257 13.37 6.54257C13.4086 6.54257 13.4333 6.56718 13.4086 6.57773C13.384 6.59179 13.3735 6.60233 13.4086 6.60233C13.4438 6.60233 13.4579 6.6164 13.4333 6.62694C13.4086 6.65507 13.3981 6.65507 13.37 6.62694C13.37 6.60233 13.3454 6.60233 13.3454 6.62694L13.3208 6.59179C13.3102 6.55663 13.2856 6.55663 13.2856 6.59179C13.2856 6.62694 13.2575 6.60233 13.2329 6.59179C13.293 6.66182 13.3749 6.70961 13.4654 6.72746C13.556 6.74532 13.6499 6.7322 13.7321 6.69023C13.7461 6.69023 13.7567 6.69023 13.7672 6.72538L13.8446 6.86601C13.8586 6.89062 13.8797 6.86601 13.8797 6.8414L13.9571 6.63046C13.9571 6.59179 14.0063 6.56718 13.9922 6.66562C14.0309 6.64101 14.1821 6.63046 14.3086 6.66562C14.4274 6.71344 14.5396 6.77604 14.6426 6.85194C14.6514 6.85895 14.6617 6.86386 14.6726 6.86629C14.6836 6.86873 14.695 6.86863 14.7059 6.86601C14.7411 6.86601 14.7551 6.86601 14.6918 6.80273C14.6321 6.73944 14.6567 6.71483 14.6918 6.73944C14.7305 6.76757 14.7551 6.75351 14.7165 6.71483L14.5934 6.60233C14.5793 6.60233 14.5793 6.57773 14.5196 6.57773H14.3297C14.3051 6.57773 14.2805 6.57773 14.3579 6.60233C14.4282 6.62694 14.5688 6.7289 14.604 6.75351C14.6426 6.77812 14.6567 6.82733 14.5934 6.77812C14.4514 6.68228 14.3007 6.59989 14.1434 6.53202C13.8094 6.56718 13.5317 6.60233 13.3348 6.3914C13.2329 6.2789 13.2329 6.03983 13.3946 5.9414C13.37 5.91679 13.37 5.89218 13.384 5.89218V5.81835C13.3594 5.80429 13.3348 5.78319 13.3348 5.75507C13.2997 5.75507 13.2715 5.69179 13.2083 5.71991C13.1485 5.74452 13.1344 5.71991 13.1098 5.70585C13.0958 5.68124 13.0852 5.68124 13.0465 5.68124C13.0114 5.68124 12.9833 5.68124 12.9833 5.65663C12.9833 5.63202 13.0114 5.63202 13.0606 5.65663C13.1485 5.69179 13.2223 5.71991 13.2856 5.63202C13.3348 5.55468 13.2575 5.4914 13.159 5.4703C13.0465 5.44569 12.9727 5.53007 12.9235 5.56874H12.9375Z" fill="white" stroke="black" stroke-width="0.025"/>
<path d="M13.4823 5.53009C13.4465 5.49854 13.4046 5.47462 13.3593 5.45978C13.3241 5.45978 13.3241 5.48087 13.3347 5.49493V5.56876C13.3593 5.58282 13.3698 5.60392 13.3347 5.60392C13.31 5.63204 13.3347 5.71993 13.3698 5.69181H13.3944C13.3944 5.69181 13.3944 5.73048 13.4225 5.73048C13.4472 5.73048 13.4225 5.75509 13.4225 5.76564H13.4472C13.4718 5.76564 13.4577 5.81837 13.4331 5.82892C13.4682 5.82892 13.4823 5.82892 13.4823 5.85704C13.4964 5.88165 13.5315 5.8922 13.5315 5.92736C13.5315 5.96954 13.5315 5.96954 13.4823 5.95548C13.4331 5.94142 13.4331 5.95548 13.4225 5.98009C13.4085 6.0047 13.3944 6.01525 13.4225 6.01525C13.4472 6.01525 13.4718 6.02931 13.4331 6.04337C13.3979 6.05392 13.3593 6.04337 13.3452 6.07853C13.3452 6.1172 13.3452 6.13126 13.3698 6.1172L13.4577 6.06798L13.521 6.07853C13.5456 6.09259 13.521 6.14181 13.4964 6.1172C13.4718 6.09259 13.4472 6.1172 13.4331 6.13126L13.3698 6.15587C13.3452 6.15587 13.3206 6.15587 13.3347 6.21564C13.3347 6.39142 13.4718 6.51798 13.7214 6.51798H14.1327C14.0554 6.46525 14.0061 6.44064 13.971 6.44064H13.9323C13.9464 6.43009 13.9323 6.40548 13.9182 6.40548C13.9077 6.40548 13.8831 6.38087 13.8585 6.40548L13.7319 6.46525C13.7073 6.46525 13.6722 6.46525 13.7073 6.44064L13.8198 6.39142C13.8444 6.39142 13.8339 6.36681 13.8339 6.36681C13.8339 6.36681 13.8339 6.33165 13.869 6.3422C13.937 6.39229 14.0131 6.43035 14.094 6.4547C14.1292 6.4547 14.1432 6.43009 14.1186 6.41954C14.1091 6.41412 14.1009 6.40652 14.0948 6.39736C14.0887 6.3882 14.0848 6.37774 14.0835 6.36681C14.0835 6.35275 14.094 6.3422 14.1432 6.36681C14.1934 6.39891 14.2479 6.42376 14.305 6.44064C14.3436 6.4547 14.3682 6.4547 14.305 6.41603L14.0202 6.20509C13.985 6.16993 13.985 6.20509 13.9956 6.2297C14.0061 6.25431 13.9604 6.26486 13.9323 6.24376C13.9077 6.21564 13.8972 6.20509 13.9323 6.19103C13.9675 6.18048 13.9569 6.16642 13.9182 6.13126C13.869 6.09259 13.8585 6.09259 13.869 6.13126C13.8831 6.16642 13.8831 6.19103 13.8444 6.18048C13.8093 6.16642 13.7706 6.14532 13.8093 6.13126C13.8339 6.10665 13.869 6.09259 13.8093 6.05392C13.746 6.01876 13.7811 6.05392 13.7706 6.07853C13.7565 6.10665 13.7214 6.10665 13.7073 6.07853C13.6968 6.05392 13.6722 6.04337 13.6827 6.02931C13.6968 6.01876 13.6968 6.0047 13.7179 6.02931C13.746 6.05392 13.7706 6.02931 13.7319 5.99415C13.6968 5.95548 13.6827 5.96954 13.6968 5.99415C13.7073 6.01876 13.6722 6.04337 13.6194 5.99415C13.5948 5.98009 13.5948 5.95548 13.6194 5.94142C13.644 5.94142 13.644 5.93087 13.6194 5.90626C13.5315 5.75509 13.5702 5.64259 13.4718 5.53009H13.4823Z" fill="white" stroke="black" stroke-width="0.025"/>
<path d="M13.4894 5.55468C13.4824 5.56874 13.4789 5.56874 13.4648 5.57928C13.4437 5.58983 13.4402 5.6285 13.4719 5.62147C13.4965 5.62147 13.507 5.60389 13.514 5.59686C13.5071 5.58211 13.4988 5.568 13.4894 5.55468ZM13.3875 5.47382C13.3629 5.49843 13.3593 5.50897 13.3699 5.50897C13.3875 5.50897 13.3804 5.50897 13.3699 5.52655C13.3593 5.54413 13.391 5.55116 13.4051 5.54413C13.4156 5.53358 13.4191 5.52655 13.4261 5.54413C13.4332 5.55468 13.4508 5.54413 13.4683 5.53007C13.4441 5.50769 13.4169 5.48876 13.3875 5.47382ZM13.3418 5.61444C13.3101 5.63202 13.3242 5.71288 13.3699 5.69178C13.3875 5.68475 13.4015 5.68475 13.398 5.69882V5.71991C13.4195 5.71148 13.4387 5.69825 13.4543 5.68124C13.4859 5.64608 13.4543 5.64608 13.4121 5.64608C13.3664 5.64608 13.3523 5.64257 13.398 5.61444C13.4332 5.58983 13.4086 5.57577 13.3558 5.5828C13.3629 5.59335 13.3558 5.60741 13.3418 5.61444ZM13.5316 5.80428C13.5035 5.77968 13.5211 5.76561 13.5492 5.75507L13.5597 5.741L13.5386 5.66014C13.5246 5.66014 13.5105 5.69178 13.5035 5.70936C13.5 5.73046 13.4929 5.74452 13.4719 5.73397C13.4508 5.73046 13.4332 5.75155 13.4297 5.77616H13.4402C13.4508 5.77616 13.4578 5.79022 13.4543 5.80077C13.514 5.80077 13.5246 5.83944 13.5316 5.87108C13.5422 5.89921 13.5562 5.89218 13.5668 5.87811C13.5738 5.86053 13.5527 5.82889 13.5316 5.80077V5.80428Z" fill="#CF6200"/>
<path d="M13.5457 6.14179C13.5351 6.1664 13.5351 6.1664 13.5 6.1664C13.4648 6.1664 13.4226 6.17695 13.405 6.19452C13.3945 6.20507 13.3347 6.20859 13.3347 6.23671C13.3347 6.26132 13.3347 6.28242 13.3593 6.28593C13.3839 6.28593 13.3875 6.29296 13.3804 6.31054C13.3699 6.32812 13.3628 6.36327 13.405 6.36327C13.4507 6.36679 13.4859 6.35624 13.4964 6.38085C13.507 6.40546 13.4964 6.45117 13.5035 6.46171C13.514 6.47929 13.5457 6.48984 13.5914 6.5039C13.6265 6.51093 13.7425 6.51796 13.7812 6.51445C13.8164 6.50742 13.8058 6.48984 13.7671 6.48281C13.732 6.48281 13.7003 6.47577 13.6898 6.44765C13.6828 6.42304 13.6757 6.40898 13.7003 6.38437C13.7179 6.35976 13.739 6.3457 13.7285 6.30702C13.7144 6.27187 13.6933 6.22265 13.6511 6.2121C13.6089 6.20156 13.623 6.14179 13.5808 6.13828L13.5457 6.14179Z" fill="#FFFF00"/>
<path d="M13.3348 6.49686C13.3734 6.49686 13.4051 6.50741 13.377 6.51795C13.3418 6.52499 13.3242 6.54256 13.3664 6.54608C13.4051 6.5496 13.4367 6.56366 13.4086 6.5742C13.3805 6.58475 13.3734 6.60233 13.4086 6.59881C13.4437 6.59881 13.4613 6.61991 13.4367 6.63397C13.4121 6.64803 13.3945 6.65858 13.377 6.63397C13.3629 6.60936 13.3523 6.59881 13.3453 6.61991C13.3418 6.63749 13.3312 6.62342 13.3172 6.5953C13.3066 6.56366 13.282 6.56014 13.2891 6.58124C13.2961 6.60585 13.2645 6.60585 13.2363 6.5953C13.2651 6.62446 13.2969 6.65039 13.3313 6.67264C13.3664 6.65858 13.4156 6.67264 13.4297 6.67264C13.4438 6.67264 13.4965 6.6867 13.5211 6.69725C13.5492 6.71131 13.5668 6.6867 13.5563 6.6621C13.5457 6.62694 13.5422 6.641 13.5316 6.65506C13.5141 6.67264 13.5141 6.64803 13.5141 6.61288C13.5141 6.58827 13.4965 6.5953 13.4859 6.61288C13.4789 6.63046 13.4684 6.60233 13.4754 6.58475C13.4824 6.56717 13.4754 6.56014 13.4578 6.56366C13.4437 6.57069 13.4437 6.56366 13.4402 6.5285C13.4402 6.49686 13.4262 6.50389 13.4227 6.51444C13.4156 6.5285 13.4051 6.51092 13.384 6.48631C13.3664 6.4617 13.3488 6.47577 13.3137 6.48983L13.3383 6.49686H13.3348Z" fill="#CF6200"/>
<path d="M13.7286 6.69374C13.5528 6.76757 13.4262 6.73593 13.3278 6.66913C13.37 6.65858 13.4157 6.66913 13.4298 6.66913C13.4617 6.67493 13.4925 6.6856 13.5212 6.70077C13.5493 6.71483 13.5669 6.68671 13.5563 6.65858C13.5845 6.69022 13.5985 6.71132 13.6266 6.71132C13.6618 6.7078 13.704 6.70428 13.7321 6.69374H13.7286ZM13.3524 5.88163C13.3419 5.84647 13.3313 5.83593 13.3102 5.83593L13.261 5.82889C13.2399 5.81835 13.2083 5.82889 13.2083 5.86757C13.2083 5.90975 13.1802 5.92733 13.1485 5.94843C13.1134 5.97303 13.0958 5.99413 13.0958 6.0328C13.0958 6.06796 13.0852 6.08202 13.0677 6.10663L13.029 6.14882L13.0712 6.17694C13.0923 6.18397 13.0852 6.20155 13.0606 6.19452C13.036 6.191 13.0149 6.20155 13.0536 6.2121C13.0887 6.21913 13.1098 6.23671 13.0747 6.23671C13.036 6.23671 12.9938 6.26483 13.0677 6.2578C13.138 6.25077 13.1661 6.28241 13.0817 6.28241C12.9938 6.28944 13.029 6.31757 13.0747 6.31757C13.1555 6.31757 13.1309 6.33866 13.1098 6.33866C13.0887 6.33866 13.0782 6.36327 13.1309 6.35975H13.1345C13.1415 6.35272 13.1485 6.34218 13.152 6.32811C13.1591 6.3035 13.1696 6.22968 13.2012 6.20507C13.2294 6.18397 13.247 6.15585 13.247 6.13475C13.2592 6.08236 13.2846 6.03396 13.3208 5.99413C13.3524 5.96952 13.363 5.91678 13.3559 5.88163H13.3524Z" fill="#FFFF00"/>
<path d="M13.289 5.88165C13.2574 5.86055 13.2258 5.87461 13.2258 5.90977C13.2258 5.94844 13.2082 5.9625 13.1836 5.97305C13.1697 5.9814 13.1579 5.99263 13.1488 6.00598C13.1397 6.01932 13.1336 6.03447 13.1308 6.0504C13.1238 6.07852 13.1344 6.09961 13.1097 6.12422C13.0922 6.14883 13.0851 6.16641 13.1027 6.18047C13.1203 6.19454 13.1203 6.19454 13.1238 6.21563C13.1308 6.23321 13.166 6.21563 13.166 6.19102C13.166 6.16641 13.1765 6.16641 13.2011 6.15586C13.2258 6.1418 13.2644 6.07852 13.2539 6.06094C13.2469 6.04688 13.2258 6.03282 13.2539 6.00821C13.282 5.98008 13.3101 5.98008 13.3101 5.95547C13.3101 5.93086 13.3172 5.92735 13.3277 5.9168C13.3347 5.90977 13.3066 5.89571 13.289 5.88165Z" fill="#CF6200"/>
<path d="M13.289 5.85C13.2679 5.84297 13.2574 5.88516 13.2855 5.89219C13.3136 5.8957 13.3171 5.85703 13.2855 5.85H13.289ZM13.282 5.90625C13.2644 5.90625 13.2363 5.93438 13.275 5.93086C13.3101 5.92734 13.3242 5.89922 13.282 5.90625ZM13.2433 5.95547C13.2187 5.96953 13.2257 5.99766 13.2539 5.97656C13.2855 5.95195 13.296 5.93086 13.2433 5.95898V5.95547ZM13.2082 6.00469C13.1835 6.01523 13.1906 6.04336 13.2222 6.02227C13.2539 6.00117 13.2644 5.97656 13.2082 6.00469Z" fill="black"/>
<path d="M13.1625 6.02227C13.1379 6.03282 13.1554 6.06446 13.1871 6.04336C13.2222 6.02579 13.2187 5.99414 13.1625 6.02579V6.02227ZM13.1871 6.05039C13.166 6.06094 13.1836 6.09258 13.2117 6.07149C13.2433 6.05039 13.2468 6.02227 13.1871 6.05039Z" fill="black"/>
<path d="M13.152 6.06094C13.1274 6.075 13.1415 6.10312 13.1766 6.08203C13.2118 6.06094 13.2048 6.03281 13.152 6.06094ZM13.1766 6.09609C13.152 6.10664 13.1661 6.13476 13.2013 6.11367C13.2329 6.09258 13.2294 6.06797 13.1731 6.09609H13.1766Z" fill="black"/>
<path d="M13.1379 6.11368C13.1133 6.12422 13.1309 6.15235 13.1661 6.13126C13.2012 6.11368 13.1907 6.08555 13.1379 6.11368Z" fill="black"/>
<path d="M13.1413 6.14178C13.1167 6.15233 13.1307 6.18046 13.1659 6.15936C13.2011 6.14178 13.194 6.11366 13.1413 6.14178Z" fill="black"/>
<path d="M13.1239 6.41603C13.0993 6.41603 13.0888 6.45118 13.1134 6.4547C13.1415 6.46173 13.1485 6.46173 13.1485 6.48634C13.1485 6.50743 13.1556 6.53556 13.1872 6.53907C13.2188 6.53907 13.247 6.50392 13.2188 6.49689C13.1907 6.48634 13.1661 6.47579 13.1661 6.4547C13.1661 6.42657 13.1415 6.41251 13.1239 6.41603Z" fill="#CF6200"/>
<path d="M13.9219 6.22969L13.9325 6.24375C13.9536 6.26133 13.9957 6.24375 13.9887 6.22969C13.9852 6.21211 13.9641 6.16641 14.0133 6.20508L14.3121 6.4125C14.3719 6.45469 14.3332 6.46172 14.3051 6.44766L14.1469 6.37383C14.0977 6.34571 14.0942 6.35625 14.0836 6.36328C14.0801 6.37383 14.0836 6.39141 14.1012 6.40899C14.0731 6.4125 14.0274 6.40899 14.0133 6.37383C13.9957 6.33868 13.9571 6.29297 13.9325 6.25782C13.9219 6.24375 13.9149 6.23672 13.9184 6.22969H13.9219Z" fill="#FFFF00"/>
<path d="M15.5285 11.5383C15.4863 11.5629 15.4301 11.6121 15.4688 11.6789L15.4793 11.6719C15.6347 11.4834 15.7724 11.2809 15.8906 11.0672V11.0496C15.8483 11.0856 15.8009 11.1152 15.75 11.1375C15.7676 11.1902 15.6797 11.257 15.627 11.2781C15.6481 11.3133 15.641 11.359 15.5988 11.3695C15.6094 11.3977 15.5742 11.3977 15.5391 11.4152C15.5004 11.4328 15.4793 11.4399 15.4688 11.4645C15.4863 11.4504 15.518 11.4399 15.532 11.4469C15.5461 11.4539 15.5531 11.475 15.5215 11.482C15.4934 11.4891 15.4723 11.5031 15.4652 11.5172C15.5074 11.5031 15.5672 11.5102 15.525 11.5383H15.5285Z" fill="#00D860"/>
<path d="M13.6054 6.16641C13.5597 6.13125 13.5457 6.15586 13.5597 6.16641C13.5703 6.18047 13.5597 6.21562 13.521 6.22969H13.3945C13.3699 6.22969 13.3347 6.27891 13.3945 6.26484L13.5949 6.22969C13.6195 6.22969 13.6441 6.20508 13.5949 6.16641H13.6054ZM13.6968 6.24375C13.6582 6.20508 13.6441 6.21562 13.6582 6.24375C13.6722 6.26836 13.6441 6.27891 13.623 6.27891L13.4472 6.32812C13.3945 6.32812 13.3945 6.3668 13.4578 6.3668C13.521 6.3668 13.6441 6.30351 13.6582 6.30351C13.6722 6.30351 13.6828 6.26836 13.6933 6.27891C13.7074 6.29297 13.732 6.27891 13.6933 6.24375H13.6968ZM13.732 6.34219L13.6089 6.40547C13.5738 6.40547 13.5457 6.44062 13.6089 6.44062C13.6722 6.44062 13.732 6.38086 13.7566 6.3668L13.8093 6.34219C13.8093 6.34219 13.8585 6.32812 13.8093 6.29297C13.7566 6.25781 13.7074 6.29297 13.732 6.30351C13.7566 6.31758 13.732 6.33867 13.732 6.33867V6.34219Z" fill="black" stroke="black" stroke-width="0.025"/>
<path d="M13.2223 5.53008C13.1449 5.48086 13.0535 5.58633 13.1414 5.64609C13.2188 5.69883 13.2996 5.57929 13.2223 5.53008Z" fill="black"/>
<path d="M13.1239 5.57928H13.1485C13.1415 5.60389 13.1661 5.63905 13.2048 5.63202C13.1731 5.65311 13.1169 5.6285 13.1239 5.57928ZM13.4333 6.75702C13.4579 6.76405 13.5387 6.7746 13.5669 6.7746L13.5317 6.84491C13.5212 6.866 13.5176 6.86952 13.5176 6.83788C13.5176 6.80272 13.4965 6.78163 13.4825 6.81678L13.4473 6.87655C13.4403 6.89061 13.4262 6.89764 13.4298 6.86249V6.76053L13.4333 6.75702Z" fill="white"/>
<path d="M16.5621 7.71327C16.5621 9.7453 16.2386 11.939 13.5949 12.9867C10.9652 11.939 10.6417 9.7453 10.6277 7.71327M16.5621 7.71327H10.6277M16.5621 7.71327C16.5621 6.93983 16.5269 6.191 16.5375 5.54413C15.5996 5.17981 14.601 4.99727 13.5949 5.00624C12.9339 5.00624 11.6367 5.10819 10.6523 5.54413C10.6769 6.191 10.6277 6.93983 10.6277 7.71327" stroke="black" stroke-width="0.06875"/>
<path d="M0 0H9V9H0V0Z" fill="#012169"/>
<path d="M9 0V1.125L5.66016 4.5L9 7.78711V9H7.82227L4.46484 5.69531L1.19531 9H0V7.80469L3.26953 4.51758L0 1.30078V0H1.08984L4.46484 3.30469L7.73438 0H9Z" fill="white"/>
<path d="M3.23438 5.69531L3.42773 6.29297L0.738281 9H0V8.94727L3.23438 5.69531ZM5.41406 5.48438L6.36328 5.625L9 8.20898V9L5.41406 5.48438ZM9 0L5.625 3.44531L5.55469 2.67188L8.19141 0H9ZM0 0.0175781L3.39258 3.33984L2.35547 3.19922L0 0.861328V0.0175781Z" fill="#C8102E"/>
<path d="M3.09375 0V9H5.90625V0H3.09375ZM0 3.09375V5.90625H9V3.09375H0Z" fill="white"/>
<path d="M0 3.65625V5.34375H9V3.65625H0ZM3.65625 0V9H5.34375V0H3.65625Z" fill="#C8102E"/>
</g>
<defs>
<clipPath id="clip0_14_1318">
<rect width="18" height="18" rx="9" fill="white"/>
</clipPath>
</defs>
</svg>
