<svg width="18" height="18" viewBox="0 0 18 18" fill="none" xmlns="http://www.w3.org/2000/svg">
<g clip-path="url(#clip0_8201_11624)">
<path d="M18 9C18 13.9705 13.9705 18 9 18C4.02947 18 0 13.9705 0 9C0 9.00214 9 0.000984375 9 0C13.9705 0 18 4.02947 18 9Z" fill="#0052B4"/>
<path d="M8.97607 9.00003H9.00016C9.00016 8.99195 9.00016 8.98407 9.00016 8.97595C8.99214 8.984 8.98413 8.99202 8.97607 9.00003Z" fill="#F0F0F0"/>
<path d="M9 4.69564C9 3.11203 9 2.07439 9 0H8.99849C4.02859 0.00084375 0 4.02993 0 9H4.69564V6.35586L7.33978 9H8.97595C8.98397 8.99198 8.99198 8.98397 9.00004 8.97592C9.00004 8.36958 9.00004 7.82856 9.00004 7.33985L6.35583 4.69564H9Z" fill="#F0F0F0"/>
<path d="M4.55319 1.17395C3.14557 1.97548 1.97532 3.14569 1.17383 4.55331V9.00005H3.52167V3.52186V3.52179H8.99993C8.99993 2.78129 8.99993 2.07585 8.99993 1.17395H4.55319Z" fill="#D80027"/>
<path d="M9.00016 7.89325L5.80252 4.69568H4.6958V4.69575L9.00009 9H9.00016C9.00016 9 9.00016 8.23686 9.00016 7.89325Z" fill="#D80027"/>
<path d="M10.1738 4.69568V9C10.1738 11.0967 12.913 11.7392 12.913 11.7392C12.913 11.7392 15.6521 11.0967 15.6521 9V4.69568H10.1738Z" fill="#FFDA44"/>
<path d="M12.5218 6.26088C12.5218 6.69313 12.1714 7.82611 11.7392 7.82611C11.3069 7.82611 10.9565 6.69313 10.9565 6.26088C10.9565 5.82864 11.7392 5.47827 11.7392 5.47827C11.7392 5.47827 12.5218 5.82864 12.5218 6.26088Z" fill="#FF9811"/>
<path d="M14.5986 7.11325C14.7249 6.8051 14.8231 6.35468 14.8231 6.13045C14.8231 5.77024 14.3536 5.47827 14.3536 5.47827C14.3536 5.47827 13.884 5.77028 13.884 6.13045C13.884 6.35468 13.9822 6.8051 14.1085 7.11325L13.8374 7.72532C13.9967 7.79008 14.1709 7.82608 14.3535 7.82608C14.5362 7.82608 14.7103 7.79008 14.8697 7.72532L14.5986 7.11325Z" fill="#A2001D"/>
<path d="M12.3259 9.00005C12.3259 9.00005 11.9346 9.78267 11.9346 10.5653H13.8911C13.8911 9.78267 13.4998 9.00005 13.4998 9.00005L12.9128 8.60876L12.3259 9.00005Z" fill="#6DA544"/>
<path d="M13.5001 9.00002V8.80438C13.5001 8.48024 13.2373 8.21741 12.9131 8.21741C12.589 8.21741 12.3262 8.4802 12.3262 8.80438V9.00002H13.5001Z" fill="#D80027"/>
</g>
<defs>
<clipPath id="clip0_8201_11624">
<rect width="18" height="18" fill="white"/>
</clipPath>
</defs>
</svg>
