<svg width="18" height="18" viewBox="0 0 18 18" fill="none" xmlns="http://www.w3.org/2000/svg">
<g clip-path="url(#clip0_14_1285)">
<path d="M0 0H18V18H0V0Z" fill="#002395"/>
<path d="M0 0H10.9793V7.38281H0V0Z" fill="white"/>
<path d="M0 0H3.6V7.2H0V0Z" fill="#002395"/>
<path d="M7.19995 0H10.8V7.2H7.19995V0Z" fill="#ED2939"/>
<path d="M9.92817 8.23358L10.5083 9.15819H12.1571V12.375L10.9161 10.4414L9.25317 13.0957H10.0618L10.9196 11.5664L12.6739 14.7164L14.4282 11.5664L15.2825 13.0957H16.0911L14.4317 10.4414L13.1942 12.375V10.5961H13.936L14.4879 9.71718H13.1942V9.15468H14.843L15.4231 8.23358H9.92817ZM11.8618 12.1711H10.0618V12.8039H11.8618V12.1711ZM15.2825 12.1711H13.4825V12.8039H15.2825V12.1711Z" fill="white"/>
<path d="M12.6732 15.345L13.2267 17.055L11.7732 15.9975H13.5732L12.1197 17.055L12.6732 15.345Z" fill="white"/>
<path d="M10.648 13.815L11.2015 15.525L9.74805 14.4675H11.548L10.0945 15.525L10.648 13.815Z" fill="white"/>
<path d="M14.6981 13.815L15.2516 15.525L13.7981 14.4675H15.5981L14.1446 15.525L14.6981 13.815Z" fill="white"/>
<path d="M8.93809 9.26999L9.49159 10.98L8.03809 9.92249H9.83809L8.38459 10.98L8.93809 9.26999Z" fill="white"/>
<path d="M16.4081 9.26999L16.9616 10.98L15.5081 9.92249H17.3081L15.8546 10.98L16.4081 9.26999Z" fill="white"/>
</g>
<defs>
<clipPath id="clip0_14_1285">
<rect width="18" height="18" rx="9" fill="white"/>
</clipPath>
</defs>
</svg>
