<svg width="18" height="18" viewBox="0 0 18 18" fill="none" xmlns="http://www.w3.org/2000/svg">
<g clip-path="url(#clip0_8201_11553)">
<path d="M9 18C13.9706 18 18 13.9706 18 9C18 4.02944 13.9706 0 9 0C4.02944 0 0 4.02944 0 9C0 13.9706 4.02944 18 9 18Z" fill="#FFDA44"/>
<path d="M9.00018 0C8.99364 7.03125e-05 8.60889 3.6 8.60889 3.6H16.2006C14.5586 1.41409 11.9446 0 9.00018 0Z" fill="#496E2D"/>
<path d="M9.00019 18C11.9446 18 14.5586 16.5859 16.2006 14.4H1.7998C3.44174 16.5859 6.05579 18 9.00019 18Z" fill="#496E2D"/>
<path d="M17.82 7.19995H8.60889L9.00018 10.8H17.82C17.9381 10.2184 18.0002 9.61642 18.0002 8.99995C18.0002 8.38349 17.938 7.78154 17.82 7.19995Z" fill="#496E2D"/>
<path d="M9 10.8C9 8.92174 9 2.11303 9 0C4.02947 0 0 4.02947 0 9C0 9.61646 0.0621562 10.2184 0.180211 10.8H9Z" fill="#D80027"/>
<path d="M4.96616 4.30432L5.54891 6.09782H7.43487L5.90919 7.2064L6.49187 8.99997L4.96616 7.89149L3.44045 8.99997L4.02323 7.2064L2.49756 6.09782H4.38345L4.96616 4.30432Z" fill="#F0F0F0"/>
</g>
<defs>
<clipPath id="clip0_8201_11553">
<rect width="18" height="18" fill="white"/>
</clipPath>
</defs>
</svg>
