<svg width="18" height="18" viewBox="0 0 18 18" fill="none" xmlns="http://www.w3.org/2000/svg">
<g clip-path="url(#clip0_8201_11531)">
<path d="M9 18C13.9706 18 18 13.9706 18 9C18 4.02944 13.9706 0 9 0C4.02944 0 0 4.02944 0 9C0 13.9706 4.02944 18 9 18Z" fill="#F0F0F0"/>
<path d="M17.4402 5.86963H0.559793C0.198 6.84462 0 7.89916 0 9.00005C0 10.1009 0.198 11.1555 0.559793 12.1305H17.4402C17.802 11.1555 18 10.1009 18 9.00005C18 7.89916 17.802 6.84462 17.4402 5.86963Z" fill="#0052B4"/>
<path d="M9.00019 0C6.27238 0 3.82821 1.21373 2.17773 3.13042H15.8226C14.1722 1.21373 11.728 0 9.00019 0Z" fill="#D80027"/>
<path d="M15.8226 14.8696H2.17773C3.82821 16.7863 6.27238 18 9.00019 18C11.728 18 14.1722 16.7863 15.8226 14.8696Z" fill="#D80027"/>
</g>
<defs>
<clipPath id="clip0_8201_11531">
<rect width="18" height="18" fill="white"/>
</clipPath>
</defs>
</svg>
