<svg width="18" height="18" viewBox="0 0 18 18" fill="none" xmlns="http://www.w3.org/2000/svg">
<g clip-path="url(#clip0_8201_11513)">
<path d="M0.893039 5.08693C0.320906 6.27015 0 7.59758 0 8.99997C0 10.4023 0.320906 11.7298 0.893039 12.913L9 13.6956L17.107 12.913C17.6791 11.7298 18 10.4023 18 8.99997C18 7.59758 17.6791 6.27015 17.107 5.08693L9 4.30432L0.893039 5.08693Z" fill="#F0F0F0"/>
<path d="M0.893555 12.9131C2.34927 15.9235 5.43209 18.0001 9.0002 18.0001C12.5683 18.0001 15.6512 15.9235 17.1068 12.9131H0.893555Z" fill="#6DA544"/>
<path d="M0.893555 5.08697H17.1068C15.6512 2.07654 12.5683 0 9.0002 0C5.43209 0 2.34927 2.07654 0.893555 5.08697Z" fill="#D80027"/>
<path d="M7.43457 11.3478H10.565V10.0173L9.93893 10.3304L8.9998 9.39124L8.06067 10.3304L7.43457 10.0173V11.3478Z" fill="#FFDA44"/>
<path d="M5.64353 9.78259L5.78926 10.231H6.2607L5.87926 10.5081L6.02498 10.9565L5.64353 10.6794L5.26209 10.9565L5.40781 10.5081L5.02637 10.231H5.49781L5.64353 9.78259Z" fill="#FFDA44"/>
<path d="M6.0952 8.21729L6.24092 8.66567H6.71236L6.33092 8.9428L6.47661 9.39119L6.0952 9.11409L5.71375 9.39119L5.85947 8.9428L5.47803 8.66567H5.94947L6.0952 8.21729Z" fill="#FFDA44"/>
<path d="M7.3867 7.04346L7.53242 7.49184H8.00383L7.62246 7.76898L7.76811 8.21736L7.3867 7.94026L7.00529 8.21736L7.15098 7.76898L6.76953 7.49184H7.24101L7.3867 7.04346Z" fill="#FFDA44"/>
<path d="M12.3559 9.78259L12.2102 10.231H11.7388L12.1202 10.5081L11.9745 10.9565L12.3559 10.6794L12.7373 10.9565L12.5917 10.5081L12.9731 10.231H12.5017L12.3559 9.78259Z" fill="#FFDA44"/>
<path d="M11.9043 8.21729L11.7586 8.66567H11.2871L11.6686 8.9428L11.5228 9.39119L11.9043 9.11409L12.2857 9.39119L12.14 8.9428L12.5214 8.66567H12.05L11.9043 8.21729Z" fill="#FFDA44"/>
<path d="M10.6132 7.04346L10.4675 7.49184H9.99609L10.3775 7.76898L10.2318 8.21736L10.6132 7.94026L10.9946 8.21736L10.8489 7.76898L11.2304 7.49184H10.7589L10.6132 7.04346Z" fill="#FFDA44"/>
<path d="M8.99998 6.45642L9.1457 6.9048H9.61715L9.2357 7.18194L9.38143 7.63032L8.99998 7.35322L8.61853 7.63032L8.76426 7.18194L8.38281 6.9048H8.85426L8.99998 6.45642Z" fill="#FFDA44"/>
</g>
<defs>
<clipPath id="clip0_8201_11513">
<rect width="18" height="18" fill="white"/>
</clipPath>
</defs>
</svg>
