<svg width="18" height="18" viewBox="0 0 18 18" fill="none" xmlns="http://www.w3.org/2000/svg">
<g clip-path="url(#clip0_8201_11561)">
<path d="M9 18C13.9706 18 18 13.9706 18 9C18 4.02944 13.9706 0 9 0C4.02944 0 0 4.02944 0 9C0 13.9706 4.02944 18 9 18Z" fill="#FFDA44"/>
<path d="M14.4783 4.30436C14.3975 4.6923 14.3609 5.1055 14.3609 5.51739C14.3609 7.89163 15.7762 9.94655 17.8046 10.8716C17.9323 10.2678 18 9.64181 18 9C18 4.02947 13.9705 0 9 0C4.02947 0 0 4.02947 0 9C0 13.9705 4.02947 18 9 18C12.0826 18 14.8028 16.4499 16.4249 14.087H5.08697V12.9131H17.107C17.23 12.6587 17.3411 12.3975 17.4402 12.1305H5.08697L14.4783 4.30436Z" fill="#0052B4"/>
<path d="M6.61197 4.69568L6.80624 5.29355H7.43483L6.9263 5.66307L7.12057 6.26091L6.61197 5.89145L6.10343 6.26091L6.29767 5.66307L5.78906 5.29355H6.41769L6.61197 4.69568Z" fill="#F0F0F0"/>
<path d="M4.05835 9L4.30121 9.74739H5.08695L4.45122 10.2092L4.69408 10.9565L4.05835 10.4946L3.42266 10.9565L3.66548 10.2092L3.02979 9.74739H3.81553L4.05835 9Z" fill="#F0F0F0"/>
<path d="M4.05835 2.73914L4.30121 3.48652H5.08695L4.45122 3.9483L4.69408 4.69565L4.05835 4.23377L3.42266 4.69565L3.66548 3.9483L3.02979 3.48652H3.81553L4.05835 2.73914Z" fill="#F0F0F0"/>
<path d="M2.10181 6.26086L2.34467 7.00825H3.13037L2.49468 7.47003L2.73754 8.21738L2.10181 7.7555L1.46611 8.21738L1.70894 7.47003L1.07324 7.00825H1.85895L2.10181 6.26086Z" fill="#F0F0F0"/>
</g>
<defs>
<clipPath id="clip0_8201_11561">
<rect width="18" height="18" fill="white"/>
</clipPath>
</defs>
</svg>
