<svg width="18" height="18" viewBox="0 0 18 18" fill="none" xmlns="http://www.w3.org/2000/svg">
<g clip-path="url(#clip0_14_1320)">
<mask id="mask0_14_1320" style="mask-type:luminance" maskUnits="userSpaceOnUse" x="0" y="0" width="18" height="18">
<path d="M0 0H17.9972V17.9972H0V0Z" fill="white"/>
</mask>
<g mask="url(#mask0_14_1320)">
<path fill-rule="evenodd" clip-rule="evenodd" d="M0 0H36.2485V17.9972H0V0Z" fill="#CB000F"/>
<path fill-rule="evenodd" clip-rule="evenodd" d="M0 0C0.112483 0 17.9972 9.02402 17.9972 9.02402L0 18.0009V0Z" fill="#F8C00C"/>
<path fill-rule="evenodd" clip-rule="evenodd" d="M0 0C0.0725695 0 11.974 9.02402 11.974 9.02402L0 18.0009V0Z" fill="black"/>
<path fill-rule="evenodd" clip-rule="evenodd" d="M6.60025 10.4827L4.45945 10.011L3.37454 11.8651L3.19311 9.76787L1.05957 9.29617L2.98629 8.42533L2.87018 6.33896L4.28529 7.86292L6.23015 6.97757L5.21418 8.87164L6.593 10.4827H6.60025Z" fill="white"/>
</g>
</g>
<defs>
<clipPath id="clip0_14_1320">
<rect width="18" height="18" rx="9" fill="white"/>
</clipPath>
</defs>
</svg>
