<svg width="18" height="18" viewBox="0 0 18 18" fill="none" xmlns="http://www.w3.org/2000/svg">
<g clip-path="url(#clip0_8201_10340)">
<path d="M9 18C13.9706 18 18 13.9706 18 9C18 4.02944 13.9706 0 9 0C4.02944 0 0 4.02944 0 9C0 13.9706 4.02944 18 9 18Z" fill="#FFDA44"/>
<path d="M9.00006 0C6.79657 0 4.77839 0.792316 3.21387 2.10705L12.9131 9L3.21387 15.8929C4.77839 17.2077 6.79657 18 9.00006 18C13.9706 18 18.0001 13.9705 18.0001 9C18.0001 4.02947 13.9706 0 9.00006 0Z" fill="#D80027"/>
<path d="M2.63603 2.63599C-0.878678 6.1507 -0.878678 11.8492 2.63603 15.364C4.08844 13.9115 5.48531 12.5147 9.00002 8.99997L2.63603 2.63599Z" fill="black"/>
<path d="M2.49543 6.93823L3.86512 8.23451L5.52126 7.33226L4.71179 9.03558L6.08151 10.3319L4.21141 10.0883L3.40183 11.7916L3.05565 9.93776L1.18555 9.69413L2.84162 8.79199L2.49543 6.93823Z" fill="#F0F0F0"/>
</g>
<defs>
<clipPath id="clip0_8201_10340">
<rect width="18" height="18" fill="white"/>
</clipPath>
</defs>
</svg>
