<svg width="18" height="18" viewBox="0 0 18 18" fill="none" xmlns="http://www.w3.org/2000/svg">
<g clip-path="url(#clip0_8201_11596)">
<path d="M9.00011 0C8.32814 0 7.67356 0.0742852 7.04363 0.213926L6.65234 8.99996L7.04363 17.786C7.6736 17.9257 8.32817 18 9.00011 18C13.9707 18 18.0001 13.9705 18.0001 8.99996C18.0001 4.02943 13.9707 0 9.00011 0V0Z" fill="#496E2D"/>
<path d="M2.3478 2.93799C0.889383 4.53746 0 6.66476 0 8.99991C0 11.3351 0.889418 13.4624 2.34784 15.0619L2.73913 8.99991L2.3478 2.93799Z" fill="#496E2D"/>
<path d="M13.1631 6.78861C13.6059 5.55441 13.1085 4.21211 12.0409 3.54358C12.2329 3.56858 12.4251 3.61379 12.6148 3.68181C14.0388 4.1927 14.779 5.76109 14.2681 7.18499C13.7572 8.609 12.1888 9.34911 10.7649 8.83822C10.5751 8.77015 10.398 8.68279 10.2339 8.58003C11.483 8.7427 12.7203 8.0228 13.1631 6.78861Z" fill="#F0F0F0"/>
<path d="M10.7075 3.20532L10.3227 3.7025L9.73103 3.49019L10.0849 4.00973L9.7002 4.50684L10.3037 4.33085L10.6576 4.85032L10.6766 4.22201L11.2801 4.04598L10.6884 3.83374L10.7075 3.20532Z" fill="#F0F0F0"/>
<path d="M11.7466 4.82532L11.3618 5.32246L10.7701 5.11015L11.124 5.62969L10.7393 6.1268L11.3427 5.95074L11.6967 6.47031L11.7157 5.84197L12.3192 5.6659L11.7275 5.45363L11.7466 4.82532Z" fill="#F0F0F0"/>
<path d="M8.87543 3.79529L8.49064 4.2924L7.899 4.08016L8.25291 4.59966L7.86816 5.09681L8.47159 4.92078L8.82554 5.44028L8.84459 4.81197L9.44805 4.63594L8.85641 4.42364L8.87543 3.79529Z" fill="#F0F0F0"/>
<path d="M8.83347 5.65088L8.44872 6.14802L7.85704 5.93575L8.21099 6.45529L7.82617 6.9524L8.4297 6.77641L8.78362 7.29588L8.80264 6.66756L9.40613 6.49154L8.81441 6.27923L8.83347 5.65088Z" fill="#F0F0F0"/>
<path d="M10.5991 6.28442L10.2143 6.78153L9.62266 6.56926L9.97662 7.0888L9.5918 7.58587L10.1953 7.40988L10.5492 7.92942L10.5683 7.30104L11.1718 7.12505L10.58 6.91277L10.5991 6.28442Z" fill="#F0F0F0"/>
<path d="M2.34766 2.93798V15.0619C3.57391 16.4067 5.2027 17.3779 7.0433 17.7859V0.213867C5.20266 0.621891 3.57394 1.59308 2.34766 2.93798Z" fill="#D80027"/>
<path d="M4.13964 4.73854L3.35352 4.15291V3.32473L4.13964 2.73914H5.25146L6.03759 3.32473V4.15291L5.25146 4.73854H4.13964Z" fill="#F0F0F0"/>
<path d="M4.69557 2.73914H4.13964L3.35352 3.32473V3.72963H4.69557V2.73914Z" fill="#FF9811"/>
<path d="M4.6958 4.73857H5.25169L6.03782 4.15294V3.73047H4.6958V4.73857Z" fill="#FF9811"/>
<path d="M4.13964 15.2608L3.35352 14.6751V13.847L4.13964 13.2614H5.25146L6.03759 13.847V14.6751L5.25146 15.2608H4.13964Z" fill="#F0F0F0"/>
<path d="M4.69557 13.2614H4.13964L3.35352 13.847V14.2519H4.69557V13.2614Z" fill="#FF9811"/>
<path d="M4.6958 15.2608H5.25169L6.03782 14.6751V14.2527H4.6958V15.2608Z" fill="#FF9811"/>
<path d="M4.13964 9.99965L3.35352 9.41402V8.58588L4.13964 8.00024H5.25146L6.03759 8.58588V9.41402L5.25146 9.99965H4.13964Z" fill="#496E2D"/>
<path d="M6.06527 11.2881H5.72284V10.9457H5.12114L4.69568 10.5203L4.27026 10.9457H3.66856V11.2881H3.32617V11.9729H3.66856V12.3153H4.27022L4.69572 12.7408L5.12114 12.3153H5.72284V11.9729H6.06527V11.2881Z" fill="#496E2D"/>
<path d="M6.06527 6.02692H5.72284V5.68449H5.12114L4.69568 5.25903L4.27026 5.68449H3.66856V6.02692H3.32617V6.71169H3.66856V7.05408H4.27022L4.69572 7.47961L5.12114 7.05408H5.72284V6.71169H6.06527V6.02692Z" fill="#496E2D"/>
<path d="M4.3042 8.60864H5.08681V9.39126H4.3042V8.60864Z" fill="#D80027"/>
<path d="M4.69549 6.76048C4.91159 6.76048 5.08678 6.5853 5.08678 6.36919C5.08678 6.15309 4.91159 5.97791 4.69549 5.97791C4.47939 5.97791 4.3042 6.15309 4.3042 6.36919C4.3042 6.5853 4.47939 6.76048 4.69549 6.76048Z" fill="#D80027"/>
<path d="M4.69549 12.022C4.91159 12.022 5.08678 11.8468 5.08678 11.6307C5.08678 11.4146 4.91159 11.2394 4.69549 11.2394C4.47939 11.2394 4.3042 11.4146 4.3042 11.6307C4.3042 11.8468 4.47939 12.022 4.69549 12.022Z" fill="#D80027"/>
</g>
<defs>
<clipPath id="clip0_8201_11596">
<rect width="18" height="18" fill="white"/>
</clipPath>
</defs>
</svg>
