<svg width="18" height="18" viewBox="0 0 18 18" fill="none" xmlns="http://www.w3.org/2000/svg">
<g clip-path="url(#clip0_14_1199)">
<mask id="mask0_14_1199" style="mask-type:luminance" maskUnits="userSpaceOnUse" x="0" y="0" width="18" height="18">
<path d="M0 0H17.9972V17.9972H0V0Z" fill="white"/>
</mask>
<g mask="url(#mask0_14_1199)">
<path fill-rule="evenodd" clip-rule="evenodd" d="M0 0H26.9959V17.9972H0V0Z" fill="#00843D"/>
<path fill-rule="evenodd" clip-rule="evenodd" d="M9.2561 4.83311C10.2358 5.30481 11.4042 4.83311 11.8287 4.17998C12.2641 3.5704 12.3149 2.54717 11.5638 1.60739C12.7249 2.57257 12.9862 3.66474 12.4056 4.5646C11.6364 5.59146 9.92374 5.56243 9.2561 4.83311Z" fill="white"/>
<path fill-rule="evenodd" clip-rule="evenodd" d="M10.7765 2.76488L10.8309 2.56894L10.6712 2.4492L10.8672 2.44195L10.9325 2.24964L10.9978 2.44195H11.1937L11.0377 2.56894L11.0958 2.76125L10.9361 2.64514L10.7765 2.76488ZM9.79677 3.98405L9.85483 3.79174L9.69517 3.66837L9.89474 3.66474L9.95642 3.47243L10.0254 3.66111L10.2213 3.66474L10.0653 3.78811L10.1233 3.98405L9.96005 3.86794L9.79677 3.98405ZM9.86208 3.0225L9.92014 2.82656L9.76049 2.70682L9.95642 2.69957L10.0217 2.50726L10.087 2.69957H10.2866L10.1306 2.82656L10.1886 3.01887L10.0254 2.90276L9.86208 3.0225ZM9.86208 2.05733L9.92014 1.86139L9.76049 1.74165L9.95642 1.73439L10.0217 1.54208L10.087 1.73439H10.2866L10.1306 1.86139L10.1886 2.0537L10.0254 1.94122L9.86208 2.05733ZM8.7808 3.28012L8.83522 3.08419L8.6792 2.96082L8.87514 2.95719L8.94045 2.76488L9.00576 2.95356L9.2017 2.95719L9.04568 3.08056L9.10373 3.2765L8.94045 3.16038L8.7808 3.28012Z" fill="white"/>
<path fill-rule="evenodd" clip-rule="evenodd" d="M1.66919 0H7.45661V17.9972H1.67282L1.66919 0Z" fill="#CA3745"/>
<path fill-rule="evenodd" clip-rule="evenodd" d="M1.66919 4.69163V4.56463L1.9123 4.2417L1.8615 4.18001L2.00664 3.98408L1.95947 3.92239L1.8615 4.04939L1.81433 3.98408L2.15178 3.53415L2.19895 3.59946L2.15178 3.66477L2.24975 3.7954L2.48923 3.46883L2.24612 3.16041L2.15178 3.28015L2.19895 3.34184L2.15178 3.40715L1.81433 2.95722L1.8615 2.8919L1.95947 3.02253L2.00664 2.95722L1.8615 2.76491L1.9123 2.6996L1.67282 2.38029V2.24966L2.00664 2.6996L1.95947 2.76491L2.10461 2.95722L2.00664 3.08421L2.10461 3.21484L2.24975 3.02253L2.58719 3.47972L2.24975 3.91876L2.10461 3.72645L2.00664 3.85345L2.10461 3.98045L1.95947 4.17639L2.00664 4.23807L1.67282 4.688L1.66919 4.69163Z" fill="#FAAE29"/>
<path fill-rule="evenodd" clip-rule="evenodd" d="M1.66919 3.08423L1.71999 3.21485V3.40716H1.86513L1.95947 3.47248L1.86513 3.53416H1.71999V3.7301L1.67282 3.85709V3.08423H1.66919Z" fill="#FAAE29"/>
<path fill-rule="evenodd" clip-rule="evenodd" d="M1.66919 7.77946V7.64883L1.9123 7.32952L1.8615 7.26421L2.00664 7.0719L1.95947 7.00296L1.8615 7.12996L1.81433 7.07553L2.15178 6.6256L2.19895 6.68728L2.15178 6.7526L2.24975 6.88322L2.48923 6.56029L2.24612 6.24824L2.15178 6.36798L2.19895 6.43329L2.15178 6.49497L1.81433 6.04504L1.8615 5.98336L1.95947 6.11036L2.00664 6.04504L1.8615 5.85273L1.9123 5.79105L1.67282 5.46449V5.33386L2.00664 5.78379L1.95947 5.84911L2.10461 6.04142L2.00664 6.17204L2.10461 6.29904L2.24975 6.10673L2.58719 6.56392L2.24975 7.00659L2.10461 6.81428L2.00664 6.94128L2.10461 7.07553L1.95947 7.26784L2.00664 7.33315L1.67282 7.78308L1.66919 7.77946Z" fill="#FAAE29"/>
<path fill-rule="evenodd" clip-rule="evenodd" d="M1.66919 6.16843L1.71999 6.29905V6.49136H1.86513L1.95947 6.55667L1.86513 6.62199H1.71999V6.8143L1.67282 6.94129V6.17206L1.66919 6.16843Z" fill="#FAAE29"/>
<path fill-rule="evenodd" clip-rule="evenodd" d="M1.66919 10.8637V10.7367L1.9123 10.4137L1.8615 10.3484L2.00664 10.1561L1.95947 10.0944L1.8615 10.2214L1.81433 10.1561L2.15178 9.70617L2.19895 9.77148L2.15178 9.8368L2.24975 9.96379L2.48923 9.64086L2.24612 9.32881L2.15178 9.44855L2.19895 9.51386L2.15178 9.57918L1.81433 9.12924L1.8615 9.06393L1.95947 9.19093L2.00664 9.12924L1.8615 8.93694L1.9123 8.87162L1.67282 8.54869V8.42169L2.00664 8.87162L1.95947 8.93694L2.10461 9.12924L2.00664 9.25624L2.10461 9.38687L2.24975 9.19456L2.58719 9.65175L2.24975 10.0944L2.10461 9.89848L2.00664 10.0291L2.10461 10.1561L1.95947 10.3484L2.00664 10.4137L1.67282 10.8637H1.66919Z" fill="#FAAE29"/>
<path fill-rule="evenodd" clip-rule="evenodd" d="M1.66919 9.25625L1.71999 9.38688V9.57919H1.86513L1.95947 9.6445L1.86513 9.70618H1.71999V9.89849L1.67282 10.0291V9.25262L1.66919 9.25625Z" fill="#FAAE29"/>
<path fill-rule="evenodd" clip-rule="evenodd" d="M1.66919 13.7555V13.6285L1.9123 13.3056L1.8615 13.2439L2.00664 13.048L1.95947 12.9899L1.8615 13.1169L1.81433 13.0516L2.15178 12.6017L2.19895 12.667L2.15178 12.7323L2.24975 12.8629L2.48923 12.5364L2.24612 12.2279L2.15178 12.3477L2.19895 12.4094L2.15178 12.4747L1.81433 12.0248L1.8615 11.9594L1.95947 12.0901L2.00664 12.0248L1.8615 11.8324L1.9123 11.7671L1.67282 11.4478V11.3172L2.00664 11.7671L1.95947 11.8288L2.10461 12.0211L2.00664 12.1481L2.10461 12.2787L2.24975 12.0864L2.58719 12.5436L2.24975 12.9863L2.10461 12.794L2.00664 12.921L2.10461 13.048L1.95947 13.2439L2.00664 13.3056L1.67282 13.7555H1.66919Z" fill="#FAAE29"/>
<path fill-rule="evenodd" clip-rule="evenodd" d="M1.66919 12.1481L1.71999 12.2788V12.4711H1.86513L1.95947 12.5364L1.86513 12.5981H1.71999V12.794L1.66919 12.9174V12.1445V12.1481Z" fill="#FAAE29"/>
<path fill-rule="evenodd" clip-rule="evenodd" d="M7.45661 4.69163V4.56463L7.21713 4.2417L7.2643 4.18001L7.11916 3.98408L7.16996 3.92239L7.26793 4.04939L7.3151 3.98408L6.97765 3.53415L6.92685 3.59946L6.97765 3.66477L6.87606 3.7954L6.64021 3.46883L6.87968 3.16041L6.97765 3.28015L6.92685 3.34184L6.97765 3.40715L7.3151 2.95722L7.2643 2.8919L7.16996 3.02253L7.12279 2.95722L7.26793 2.76491L7.21713 2.6996L7.45661 2.37666V2.24966L7.12279 2.6996L7.16996 2.76491L7.02482 2.95722L7.12279 3.08421L7.02482 3.21484L6.87968 3.02253L6.54224 3.47972L6.87968 3.92239L7.02482 3.73008L7.12279 3.85708L7.02482 3.98408L7.16996 4.18001L7.12279 4.2417L7.45661 4.69163Z" fill="#FAAE29"/>
<path fill-rule="evenodd" clip-rule="evenodd" d="M7.45654 3.08423L7.40937 3.21485V3.40716H7.26423L7.16626 3.47248L7.26423 3.53416H7.40937V3.7301L7.45654 3.85709V3.08423Z" fill="#FAAE29"/>
<path fill-rule="evenodd" clip-rule="evenodd" d="M7.47465 7.77946V7.64883L7.23154 7.32953L7.28234 7.26421L7.1372 7.07191L7.18437 7.00659L7.28234 7.13722L7.32951 7.07191L6.99206 6.62197L6.94489 6.68366L6.99206 6.74897L6.89409 6.8796L6.65461 6.55666L6.89772 6.24461L6.99206 6.36435L6.94489 6.42967L6.99206 6.49135L7.32951 6.04142L7.28234 5.97973L7.18437 6.10673L7.1372 6.04142L7.28234 5.84911L7.23517 5.78742L7.47102 5.46086V5.33749L7.1372 5.78742L7.18437 5.84911L7.03923 6.04142L7.1372 6.17204L7.03923 6.29904L6.89409 6.10673L6.55664 6.56392L6.89772 7.00659L7.04286 6.81428L7.1372 6.94128L7.03923 7.07191L7.18437 7.26421L7.1372 7.32953L7.47465 7.77946Z" fill="#FAAE29"/>
<path fill-rule="evenodd" clip-rule="evenodd" d="M7.4746 6.16843L7.42381 6.29905V6.49136H7.27867L7.18433 6.55667L7.27867 6.62199H7.42381V6.8143L7.47098 6.94129V6.17206L7.4746 6.16843Z" fill="#FAAE29"/>
<path fill-rule="evenodd" clip-rule="evenodd" d="M7.4564 10.8637V10.7367L7.22055 10.4137L7.26772 10.3484L7.12258 10.1561L7.17338 10.0944L7.27135 10.2214L7.31852 10.1561L6.98107 9.70617L6.93027 9.77148L6.98107 9.8368L6.87947 9.96379L6.64362 9.64086L6.8831 9.32881L6.98107 9.44855L6.93027 9.51386L6.98107 9.57918L7.31852 9.12924L7.26772 9.06393L7.17338 9.19093L7.12621 9.12924L7.27135 8.93694L7.22055 8.87162L7.46003 8.54869V8.42169L7.12621 8.87162L7.17338 8.93694L7.02824 9.12924L7.12621 9.25624L7.02824 9.38687L6.8831 9.19456L6.54565 9.65175L6.8831 10.0944L7.02824 9.89848L7.12621 10.0291L7.02824 10.1561L7.17338 10.3484L7.12621 10.4137L7.46003 10.8637H7.4564Z" fill="#FAAE29"/>
<path fill-rule="evenodd" clip-rule="evenodd" d="M7.45629 9.25625L7.40912 9.38688V9.57919H7.26398L7.16602 9.6445L7.26398 9.70618H7.40912V9.89849L7.45629 10.0291V9.25262V9.25625Z" fill="#FAAE29"/>
<path fill-rule="evenodd" clip-rule="evenodd" d="M7.45661 13.7556V13.6286L7.21713 13.3056L7.2643 13.2439L7.11916 13.048L7.16996 12.9863L7.26793 13.1133L7.3151 13.048L6.97765 12.5981L6.92685 12.6634L6.97765 12.7287L6.87606 12.8593L6.64021 12.5328L6.87968 12.2243L6.97765 12.3441L6.92685 12.4058L6.97765 12.4711L7.3151 12.0212L7.2643 11.9558L7.16996 12.0865L7.12279 12.0212L7.26793 11.8288L7.21713 11.7635L7.45661 11.4442V11.3136L7.12279 11.7635L7.16996 11.8288L7.02482 12.0212L7.12279 12.1481L7.02482 12.2788L6.87968 12.0865L6.54224 12.5437L6.87968 12.9863L7.02482 12.794L7.12279 12.921L7.02482 13.048L7.16996 13.2439L7.12279 13.3056L7.45661 13.7556Z" fill="#FAAE29"/>
<path fill-rule="evenodd" clip-rule="evenodd" d="M7.45654 12.1482L7.40937 12.2788V12.4711H7.26423L7.16626 12.5364L7.26423 12.5981H7.40937V12.794L7.45654 12.921V12.1482Z" fill="#FAAE29"/>
<path fill-rule="evenodd" clip-rule="evenodd" d="M1.66919 1.22279V1.08854L1.9123 0.769231L1.8615 0.703918L2.00664 0.511609L1.95947 0.446296L1.8615 0.573293L1.81433 0.511609L2.15178 0.0616779L2.19895 0.123362L2.15178 0.188675L2.24975 0.326557L2.48923 -6.23081e-06H2.58719L2.24975 0.449925L2.10461 0.257616L2.00664 0.384612L2.10461 0.515237L1.95947 0.707547L2.00664 0.772859L1.67282 1.22279H1.66919ZM1.66919 -6.23081e-06H1.95947L1.86513 0.0653063H1.71999V0.253987L1.67282 0.380984V-6.23081e-06H1.66919ZM7.45661 1.22279V1.08854L7.21713 0.769231L7.2643 0.703918L7.11916 0.511609L7.16996 0.446296L7.2643 0.573293L7.3151 0.511609L6.97765 0.0616779L6.92685 0.123362L6.97765 0.188675L6.87605 0.3193L6.6402 -0.00726318H6.54223L6.87968 0.446296L7.02482 0.253987L7.12279 0.380984L7.02482 0.511609L7.16996 0.703918L7.12279 0.769231L7.45661 1.21916V1.22279ZM7.45661 -6.23081e-06H7.16633L7.2643 0.0653063H7.40944V0.253987L7.45661 0.380984V-6.23081e-06ZM4.08213 17.7432C4.08213 17.7432 4.28895 17.3804 4.81508 17.2679C5.33758 17.1591 5.42829 17.511 5.72583 17.511C6.02336 17.511 6.49869 17.2679 6.49869 17.2679C6.49869 17.2679 6.02699 17.7324 5.66051 17.7215C5.29767 17.7106 5.17067 17.4784 4.79694 17.511C4.4232 17.5473 4.08213 17.7541 4.08213 17.7432Z" fill="#FAAE29"/>
<path fill-rule="evenodd" clip-rule="evenodd" d="M5.09064 17.7432C5.09064 17.7432 4.88381 17.3804 4.36131 17.2679C3.83881 17.159 3.74447 17.511 3.44694 17.511C3.1494 17.511 2.67407 17.2679 2.67407 17.2679C2.67407 17.2679 3.1494 17.7323 3.51588 17.7215C3.87873 17.7106 4.00572 17.4784 4.37946 17.511C4.75319 17.5473 5.09064 17.7541 5.09064 17.7432Z" fill="#FAAE29"/>
<path fill-rule="evenodd" clip-rule="evenodd" d="M3.38183 17.1409C3.33466 17.0429 3.22218 16.622 3.28023 16.5712C3.37457 16.5349 3.61768 16.9667 3.59591 17.3514C3.43626 17.4384 2.89198 17.3151 2.89924 17.2026C2.93553 17.0429 3.24395 17.0937 3.38183 17.1409Z" fill="#FAAE29"/>
<path fill-rule="evenodd" clip-rule="evenodd" d="M3.05161 16.7744C3.02258 16.6656 2.97541 16.2229 3.04435 16.1866C3.13869 16.1794 3.31286 16.6656 3.2294 17.0357C3.05887 17.0792 2.54362 16.8107 2.56902 16.6982C2.63071 16.5531 2.92461 16.691 3.05161 16.7708V16.7744Z" fill="#FAAE29"/>
<path fill-rule="evenodd" clip-rule="evenodd" d="M2.78671 16.3644C2.76494 16.2519 2.75769 15.802 2.82663 15.7802C2.9246 15.7839 3.05159 16.2955 2.93548 16.6511C2.76494 16.6656 2.27873 16.3173 2.31138 16.2157C2.38395 16.0778 2.66335 16.2592 2.78308 16.3608L2.78671 16.3644Z" fill="#FAAE29"/>
<path fill-rule="evenodd" clip-rule="evenodd" d="M2.57644 15.9218C2.56556 15.8093 2.61273 15.3666 2.6853 15.3557C2.77964 15.3811 2.84495 15.9145 2.69255 16.2411C2.51839 16.2193 2.07571 15.773 2.12288 15.6786C2.21359 15.5625 2.46759 15.7984 2.57281 15.9218H2.57644Z" fill="#FAAE29"/>
<path fill-rule="evenodd" clip-rule="evenodd" d="M2.42755 15.4646C2.43118 15.3484 2.52552 14.9203 2.59809 14.9239C2.68517 14.9675 2.69606 15.5081 2.50738 15.802C2.34047 15.7476 1.95222 15.2214 2.00665 15.1344C2.10825 15.0364 2.33321 15.3194 2.42755 15.4609V15.4646Z" fill="#FAAE29"/>
<path fill-rule="evenodd" clip-rule="evenodd" d="M2.46736 14.9421C2.45648 15.3992 2.37302 15.4029 2.22063 15.0654C2.15532 14.9384 2.14806 14.4123 2.20611 14.3905C2.2932 14.3905 2.46374 14.7643 2.46736 14.9421Z" fill="#FAAE29"/>
<path fill-rule="evenodd" clip-rule="evenodd" d="M5.76937 17.1881C5.81292 17.0938 5.92903 16.6692 5.86734 16.6184C5.773 16.5822 5.52989 17.0139 5.55167 17.3986C5.71495 17.4856 6.25922 17.3623 6.25196 17.2498C6.21205 17.0938 5.90363 17.1446 5.76575 17.1881H5.76937Z" fill="#FAAE29"/>
<path fill-rule="evenodd" clip-rule="evenodd" d="M6.09602 16.8216C6.12504 16.7128 6.17221 16.2701 6.1069 16.2338C6.00893 16.2266 5.83477 16.7164 5.91822 17.0865C6.08876 17.1264 6.60763 16.8579 6.5786 16.7491C6.51692 16.6039 6.22301 16.7382 6.09602 16.8216Z" fill="#FAAE29"/>
<path fill-rule="evenodd" clip-rule="evenodd" d="M6.36437 16.408C6.38251 16.2991 6.3934 15.8492 6.32083 15.8274C6.22649 15.8347 6.09586 16.3463 6.21197 16.6983C6.38614 16.7164 6.87236 16.3644 6.83607 16.2628C6.7635 16.1286 6.48411 16.31 6.36437 16.408Z" fill="#FAAE29"/>
<path fill-rule="evenodd" clip-rule="evenodd" d="M6.57492 15.9726C6.58217 15.8565 6.53863 15.4138 6.46606 15.4065C6.37172 15.4319 6.30278 15.9617 6.45881 16.2919C6.62935 16.2701 7.07202 15.8202 7.02485 15.7258C6.93414 15.6097 6.68377 15.8456 6.57492 15.9726Z" fill="#FAAE29"/>
<path fill-rule="evenodd" clip-rule="evenodd" d="M6.72012 15.5117C6.71649 15.3993 6.62578 14.9675 6.55321 14.9711C6.4625 15.0146 6.45161 15.5553 6.64029 15.8492C6.81083 15.7948 7.19545 15.2686 7.14102 15.1852C7.03942 15.0872 6.81446 15.3666 6.72012 15.5117Z" fill="#FAAE29"/>
<path fill-rule="evenodd" clip-rule="evenodd" d="M6.68018 14.9892C6.69469 15.4464 6.77814 15.4537 6.92691 15.1126C6.99585 14.9856 7.00311 14.4595 6.94143 14.4377C6.85434 14.4377 6.6838 14.8151 6.68018 14.9892Z" fill="#FAAE29"/>
<path fill-rule="evenodd" clip-rule="evenodd" d="M6.55821 11.5636H6.27045V11.7567H5.99317V11.9497H4.88401L4.69567 12.1482L4.78984 12.2475H5.25547L5.34442 12.1482H4.88401L4.97295 12.049H5.6217L5.34442 12.3413H4.7009L4.51778 12.2475L4.32944 12.3413H3.68069L3.4034 12.049H4.05215L4.14632 12.1482H3.68069L3.77486 12.2475H4.24049L4.32944 12.1482L4.14632 11.9497H3.12611V11.7567H2.84882V11.5636H2.57153V10.6812H2.84882V10.4881H3.12611V10.2896H4.14632L4.32944 10.0966L4.24049 9.99729H3.77486L3.68069 10.0966H4.14632L4.05215 10.1903H3.4034L3.68069 9.89801H4.33467L4.52301 9.99729L4.70613 9.89801H5.35488L5.63217 10.1903H4.98342L4.89448 10.0966H5.35488L5.26071 9.99729H4.8003L4.7009 10.0966L4.88924 10.2896H5.9984V10.4881H6.27569V10.6812H6.55821V11.5636Z" fill="#CA3745" stroke="black" stroke-width="0.00954967"/>
<path fill-rule="evenodd" clip-rule="evenodd" d="M2.66455 10.7839V11.4678H2.94184V11.6608H3.21912V11.8539H4.14776L4.51922 12.1489L4.88806 11.8566H5.90826V11.6636L6.18554 11.6608V11.4678H6.46806V10.7812H6.18816V10.5881H5.91087V10.3896H4.89068L4.52183 10.0973L4.15038 10.3896H3.22174V10.5881H2.94445V10.7812H2.66717L2.66455 10.7839Z" fill="#00843D" stroke="#FAAE29" stroke-width="0.063664"/>
<path fill-rule="evenodd" clip-rule="evenodd" d="M3.9609 10.4853L3.40552 10.9745V10.4853H3.9609ZM5.07167 10.4853L5.63057 10.9745V10.4853H5.07167ZM3.9609 11.7574L3.40552 11.2681V11.7574H3.9609ZM5.07167 11.7574L5.63057 11.2681V11.7574H5.07167ZM5.25797 10.7788L5.07167 10.9745H5.44427L5.25797 10.7788ZM3.7746 10.7788L3.59182 10.9745H3.9609L3.7746 10.7788ZM3.7746 11.4638L3.59182 11.2681H3.9609L3.7746 11.4638ZM5.25797 11.4638L5.07167 11.2681H5.44427L5.25797 11.4638Z" fill="#CA3745"/>
<path fill-rule="evenodd" clip-rule="evenodd" d="M4.51638 11.9531L4.33008 11.7574H4.70268L4.51638 11.9531ZM4.51638 10.9745L4.33008 10.7788H4.70268L4.51638 10.9745ZM4.51638 10.2896L4.33008 10.4897H4.70268L4.51638 10.2896ZM4.51638 11.2681L4.33008 11.4638H4.70268L4.51638 11.2681Z" fill="#FAAE29"/>
<path fill-rule="evenodd" clip-rule="evenodd" d="M5.07373 10.977H5.4478V11.0735H5.07635L5.07373 10.977Z" fill="#FAAE29" stroke="black" stroke-width="0.0047748"/>
<path fill-rule="evenodd" clip-rule="evenodd" d="M3.68457 11.0735H3.86768V11.1727H3.68457V11.0735ZM5.16778 11.0735H5.35089V11.1727H5.16778V11.0735Z" fill="#CC0000" stroke="black" stroke-width="0.0047748"/>
<path fill-rule="evenodd" clip-rule="evenodd" d="M4.3335 10.4889H4.70234V10.5854H4.3335V10.4889ZM4.3335 10.6819H4.70234V10.7812H4.3335V10.6819Z" fill="#990000" stroke="black" stroke-width="0.0047748"/>
<path fill-rule="evenodd" clip-rule="evenodd" d="M4.23926 10.5854H4.79644V10.6846H4.23926V10.5854ZM4.33343 11.4678H4.70227V11.5616H4.33343V11.4678ZM4.33343 11.6608H4.70227V11.7573H4.33343V11.6608ZM4.23926 11.5643H4.79644V11.6608H4.23926V11.5643Z" fill="#990000" stroke="black" stroke-width="0.0047748"/>
<path fill-rule="evenodd" clip-rule="evenodd" d="M5.07379 11.1728H5.44786V11.2693H5.07641L5.07379 11.1728ZM3.59058 10.977H3.96204V11.0735H3.59058V10.977ZM3.59058 11.17H3.96204V11.2693H3.59058V11.17ZM3.49902 11.0735H3.68214V11.1728H3.49902V11.0735ZM3.87048 11.0735H4.05359V11.1728H3.87048V11.0735ZM4.98223 11.0735H5.16535V11.1728H4.98223V11.0735ZM5.35369 11.0735H5.5368V11.1728H5.35369V11.0735Z" fill="#FAAE29" stroke="black" stroke-width="0.0047748"/>
<path d="M4.29039 11.6327C4.30339 11.6327 4.31393 11.6216 4.31393 11.6079C4.31393 11.5942 4.30339 11.5831 4.29039 11.5831C4.27739 11.5831 4.26685 11.5942 4.26685 11.6079C4.26685 11.6216 4.27739 11.6327 4.29039 11.6327Z" fill="white"/>
<path d="M4.51866 11.6327C4.53166 11.6327 4.5422 11.6216 4.5422 11.6079C4.5422 11.5942 4.53166 11.5831 4.51866 11.5831C4.50566 11.5831 4.49512 11.5942 4.49512 11.6079C4.49512 11.6216 4.50566 11.6327 4.51866 11.6327Z" fill="white"/>
<path d="M4.75084 11.6327C4.76384 11.6327 4.77438 11.6216 4.77438 11.6079C4.77438 11.5942 4.76384 11.5831 4.75084 11.5831C4.73784 11.5831 4.72729 11.5942 4.72729 11.6079C4.72729 11.6216 4.73784 11.6327 4.75084 11.6327Z" fill="white"/>
<path d="M4.3817 11.5393C4.3947 11.5393 4.40524 11.5282 4.40524 11.5145C4.40524 11.5008 4.3947 11.4897 4.3817 11.4897C4.3687 11.4897 4.35815 11.5008 4.35815 11.5145C4.35815 11.5282 4.3687 11.5393 4.3817 11.5393Z" fill="white"/>
<path d="M4.65587 11.5393C4.66887 11.5393 4.67941 11.5282 4.67941 11.5145C4.67941 11.5008 4.66887 11.4897 4.65587 11.4897C4.64287 11.4897 4.63232 11.5008 4.63232 11.5145C4.63232 11.5282 4.64287 11.5393 4.65587 11.5393Z" fill="white"/>
<path d="M4.37828 11.7306C4.39128 11.7306 4.40182 11.7195 4.40182 11.7058C4.40182 11.6921 4.39128 11.6809 4.37828 11.6809C4.36528 11.6809 4.35474 11.6921 4.35474 11.7058C4.35474 11.7195 4.36528 11.7306 4.37828 11.7306Z" fill="white"/>
<path d="M4.65587 11.735C4.66887 11.735 4.67941 11.7239 4.67941 11.7102C4.67941 11.6965 4.66887 11.6854 4.65587 11.6854C4.64287 11.6854 4.63232 11.6965 4.63232 11.7102C4.63232 11.7239 4.64287 11.735 4.65587 11.735Z" fill="white"/>
<path d="M5.02501 11.1435C5.03801 11.1435 5.04855 11.1324 5.04855 11.1187C5.04855 11.105 5.03801 11.0938 5.02501 11.0938C5.01201 11.0938 5.00146 11.105 5.00146 11.1187C5.00146 11.1324 5.01201 11.1435 5.02501 11.1435Z" fill="white"/>
<path d="M5.25694 11.1435C5.26994 11.1435 5.28048 11.1324 5.28048 11.1187C5.28048 11.105 5.26994 11.0938 5.25694 11.0938C5.24394 11.0938 5.2334 11.105 5.2334 11.1187C5.2334 11.1324 5.24394 11.1435 5.25694 11.1435Z" fill="white"/>
<path d="M5.48888 11.1435C5.50188 11.1435 5.51242 11.1324 5.51242 11.1187C5.51242 11.105 5.50188 11.0938 5.48888 11.0938C5.47587 11.0938 5.46533 11.105 5.46533 11.1187C5.46533 11.1324 5.47587 11.1435 5.48888 11.1435Z" fill="white"/>
<path d="M5.11998 11.0456C5.13298 11.0456 5.14352 11.0345 5.14352 11.0208C5.14352 11.0071 5.13298 10.996 5.11998 10.996C5.10698 10.996 5.09644 11.0071 5.09644 11.0208C5.09644 11.0345 5.10698 11.0456 5.11998 11.0456Z" fill="white"/>
<path d="M5.39415 11.0456C5.40715 11.0456 5.41769 11.0345 5.41769 11.0208C5.41769 11.0071 5.40715 10.996 5.39415 10.996C5.38115 10.996 5.37061 11.0071 5.37061 11.0208C5.37061 11.0345 5.38115 11.0456 5.39415 11.0456Z" fill="white"/>
<path d="M5.11632 11.2369C5.12932 11.2369 5.13986 11.2258 5.13986 11.2121C5.13986 11.1984 5.12932 11.1873 5.11632 11.1873C5.10331 11.1873 5.09277 11.1984 5.09277 11.2121C5.09277 11.2258 5.10331 11.2369 5.11632 11.2369Z" fill="white"/>
<path d="M5.39415 11.2413C5.40715 11.2413 5.41769 11.2302 5.41769 11.2165C5.41769 11.2028 5.40715 11.1917 5.39415 11.1917C5.38115 11.1917 5.37061 11.2028 5.37061 11.2165C5.37061 11.2302 5.38115 11.2413 5.39415 11.2413Z" fill="white"/>
<path d="M4.28673 10.6587C4.29973 10.6587 4.31027 10.6476 4.31027 10.6339C4.31027 10.6202 4.29973 10.609 4.28673 10.609C4.27372 10.609 4.26318 10.6202 4.26318 10.6339C4.26318 10.6476 4.27372 10.6587 4.28673 10.6587Z" fill="white"/>
<path d="M4.51866 10.6587C4.53166 10.6587 4.5422 10.6476 4.5422 10.6339C4.5422 10.6202 4.53166 10.609 4.51866 10.609C4.50566 10.609 4.49512 10.6202 4.49512 10.6339C4.49512 10.6476 4.50566 10.6587 4.51866 10.6587Z" fill="white"/>
<path d="M4.75084 10.6542C4.76384 10.6542 4.77438 10.6431 4.77438 10.6294C4.77438 10.6157 4.76384 10.6046 4.75084 10.6046C4.73784 10.6046 4.72729 10.6157 4.72729 10.6294C4.72729 10.6431 4.73784 10.6542 4.75084 10.6542Z" fill="white"/>
<path d="M4.37828 10.5608C4.39128 10.5608 4.40182 10.5497 4.40182 10.536C4.40182 10.5223 4.39128 10.5112 4.37828 10.5112C4.36528 10.5112 4.35474 10.5223 4.35474 10.536C4.35474 10.5497 4.36528 10.5608 4.37828 10.5608Z" fill="white"/>
<path d="M4.65587 10.5608C4.66887 10.5608 4.67941 10.5497 4.67941 10.536C4.67941 10.5223 4.66887 10.5112 4.65587 10.5112C4.64287 10.5112 4.63232 10.5223 4.63232 10.536C4.63232 10.5497 4.64287 10.5608 4.65587 10.5608Z" fill="white"/>
<path d="M4.37828 10.7521C4.39128 10.7521 4.40182 10.7409 4.40182 10.7272C4.40182 10.7135 4.39128 10.7024 4.37828 10.7024C4.36528 10.7024 4.35474 10.7135 4.35474 10.7272C4.35474 10.7409 4.36528 10.7521 4.37828 10.7521Z" fill="white"/>
<path d="M4.65587 10.7565C4.66887 10.7565 4.67941 10.7454 4.67941 10.7317C4.67941 10.718 4.66887 10.7069 4.65587 10.7069C4.64287 10.7069 4.63232 10.718 4.63232 10.7317C4.63232 10.7454 4.64287 10.7565 4.65587 10.7565Z" fill="white"/>
<path d="M3.54503 11.1524C3.55803 11.1524 3.56857 11.1412 3.56857 11.1275C3.56857 11.1138 3.55803 11.1027 3.54503 11.1027C3.53203 11.1027 3.52148 11.1138 3.52148 11.1275C3.52148 11.1412 3.53203 11.1524 3.54503 11.1524Z" fill="white"/>
<path d="M3.77721 11.1524C3.79021 11.1524 3.80075 11.1412 3.80075 11.1275C3.80075 11.1138 3.79021 11.1027 3.77721 11.1027C3.7642 11.1027 3.75366 11.1138 3.75366 11.1275C3.75366 11.1412 3.7642 11.1524 3.77721 11.1524Z" fill="white"/>
<path d="M4.00914 11.1479C4.02214 11.1479 4.03268 11.1368 4.03268 11.1231C4.03268 11.1094 4.02214 11.0983 4.00914 11.0983C3.99614 11.0983 3.9856 11.1094 3.9856 11.1231C3.9856 11.1368 3.99614 11.1479 4.00914 11.1479Z" fill="white"/>
<path d="M3.64 11.0545C3.653 11.0545 3.66354 11.0434 3.66354 11.0297C3.66354 11.016 3.653 11.0049 3.64 11.0049C3.627 11.0049 3.61646 11.016 3.61646 11.0297C3.61646 11.0434 3.627 11.0545 3.64 11.0545Z" fill="white"/>
<path d="M3.91417 11.0545C3.92717 11.0545 3.93771 11.0434 3.93771 11.0297C3.93771 11.016 3.92717 11.0049 3.91417 11.0049C3.90117 11.0049 3.89062 11.016 3.89062 11.0297C3.89062 11.0434 3.90117 11.0545 3.91417 11.0545Z" fill="white"/>
<path d="M3.63658 11.2458C3.64958 11.2458 3.66012 11.2347 3.66012 11.221C3.66012 11.2072 3.64958 11.1961 3.63658 11.1961C3.62358 11.1961 3.61304 11.2072 3.61304 11.221C3.61304 11.2347 3.62358 11.2458 3.63658 11.2458Z" fill="white"/>
<path d="M3.91417 11.2502C3.92717 11.2502 3.93771 11.2391 3.93771 11.2254C3.93771 11.2117 3.92717 11.2006 3.91417 11.2006C3.90117 11.2006 3.89062 11.2117 3.89062 11.2254C3.89062 11.2391 3.90117 11.2502 3.91417 11.2502Z" fill="white"/>
<path fill-rule="evenodd" clip-rule="evenodd" d="M4.88394 8.99135L5.0436 8.91878L5.20325 8.99135H4.88394ZM4.40498 8.99135L4.56464 8.91878L4.72429 8.99135H4.40498ZM3.92603 8.99135L4.08568 8.91878L4.24533 8.99135H3.92603ZM4.88394 7.27145L5.0436 7.34765L5.20325 7.27508H4.88394V7.27145ZM4.40498 7.27145L4.56464 7.34765L4.72429 7.27508H4.40498V7.27145ZM3.92603 7.27145L4.08568 7.34765L4.24533 7.27508H3.92603V7.27145Z" fill="white"/>
<path fill-rule="evenodd" clip-rule="evenodd" d="M4.75322 9.21633L4.56454 9.3651L4.37949 9.21633L4.19081 9.3651L4.00939 9.21633V9.2889L4.12913 9.3651L4.06744 9.43767V9.51386H4.12913L4.19081 9.4413L4.25249 9.51386H4.31418V9.4413L4.25249 9.3651L4.37949 9.29253L4.50286 9.3651L4.44118 9.43767V9.51386H4.50286L4.56454 9.4413L4.62623 9.51386H4.68791V9.4413L4.62623 9.3651L4.7496 9.29253L4.87296 9.3651L4.81128 9.43767V9.51386H4.87296L4.93465 9.4413L4.99633 9.51386H5.05802V9.4413L4.99633 9.3651L5.12333 9.29253V9.21633L4.93465 9.36147L4.75322 9.2127V9.21633ZM4.75322 7.05013L4.56454 6.89773L4.37949 7.05013L4.19081 6.89773L4.00939 7.05013V6.97393L4.12913 6.90136L4.06744 6.82516V6.75259H4.12913L4.19081 6.82516L4.25249 6.75259H4.31781V6.82516L4.25612 6.89773L4.37949 6.97393L4.50286 6.90136L4.44118 6.82516V6.75259H4.50286L4.56454 6.82516L4.62623 6.75259H4.68791V6.82516L4.62623 6.89773L4.7496 6.97393L4.87296 6.90136L4.81128 6.82516V6.75259H4.87296L4.93465 6.82516L4.99633 6.75259H5.06164V6.82516L4.99996 6.89773L5.12333 6.97393V7.0465L4.93465 6.90136L4.75322 7.0465V7.05013ZM6.15744 8.2947L6.35701 8.13142L6.15744 7.97176L6.35701 7.80848L6.15744 7.6452H6.25904L6.35701 7.75405L6.45861 7.69963H6.55658V7.75405L6.45861 7.80848L6.55658 7.86291V7.91733H6.45861L6.35701 7.86291L6.25904 7.97176L6.35701 8.08062L6.45861 8.02256H6.55658V8.07699L6.45861 8.13142L6.55658 8.18584V8.24027H6.45861L6.35701 8.18584L6.25904 8.2947L6.35701 8.40355L6.45861 8.34912H6.55658V8.40355L6.45861 8.45435L6.55658 8.50878V8.5632H6.45861L6.35701 8.50878L6.25904 8.61763H6.15744L6.35701 8.45435L6.15744 8.2947ZM2.96801 8.2947L2.76845 8.13142L2.96801 7.97176L2.76845 7.80848L2.96801 7.6452H2.87004L2.76845 7.75405L2.67048 7.69963H2.57251V7.75405L2.67048 7.80848L2.57251 7.86291V7.91733H2.67048L2.77208 7.86291L2.87004 7.97176L2.76845 8.08062L2.67048 8.02256H2.57251V8.07699L2.67048 8.13142L2.57251 8.18584V8.24027H2.67048L2.77208 8.18584L2.87004 8.2947L2.76845 8.40355L2.67048 8.34912H2.57251V8.40355L2.67048 8.45435L2.57251 8.50878V8.5632H2.67048L2.77208 8.50878L2.87004 8.61763H2.96801L2.76845 8.45435L2.96801 8.2947Z" fill="#00843D"/>
<path fill-rule="evenodd" clip-rule="evenodd" d="M6.23805 8.84172H6.31903V8.91341H6.23805V8.84172ZM6.15706 8.91341H6.23805V8.98931H6.16156L6.15706 8.91341ZM5.76112 9.28872H5.84211V9.36463H5.76112V9.28872ZM5.84211 9.21282H5.91859V9.28872H5.84211V9.21282ZM3.21001 9.21282H3.291V9.28872H3.20551L3.21001 9.21282ZM2.80957 8.84172H2.89056V8.91341H2.80957V8.84172ZM2.89056 8.91341H2.97155V8.98931H2.89056V8.91341ZM2.89056 7.26877H2.97155V7.34468H2.89056V7.26877ZM2.80957 7.34468H2.89056V7.42058H2.80957V7.34468ZM3.291 6.89767H3.36748V6.97358H3.2955L3.291 6.89767ZM3.21001 6.97358H3.291V7.04949H3.20551L3.21001 6.97358ZM5.76112 6.89767H5.84211V6.97358H5.76112V6.89767ZM5.84211 6.97358H5.91859V7.04949H5.84211V6.97358ZM6.15706 7.26877H6.23805V7.34468H6.16156L6.15706 7.26877ZM6.23805 7.3489H6.31903V7.42058H6.23805V7.3489ZM3.2955 9.28872H3.37198V9.36463H3.2955V9.28872Z" fill="#00843D"/>
<path d="M6.23805 8.91341H6.31903V8.84172H6.23805V8.91341ZM6.23805 8.91341H6.15706L6.16156 8.98931H6.23805V8.91341ZM5.84211 9.28872H5.76112V9.36463H5.84211V9.28872ZM5.84211 9.28872H5.91859V9.21282H5.84211V9.28872ZM2.89056 8.91341V8.84172H2.80957V8.91341H2.89056ZM2.89056 8.91341H2.97155V8.98931H2.89056V8.91341ZM2.89056 7.34468H2.97155V7.26877H2.89056V7.34468ZM2.89056 7.34468H2.80957V7.42058H2.89056V7.34468ZM5.84211 6.97358V6.89767H5.76112V6.97358H5.84211ZM5.84211 6.97358H5.91859V7.04949H5.84211V6.97358ZM3.21001 9.21282H3.291V9.28872H3.20551L3.21001 9.21282ZM3.291 6.89767H3.36748V6.97358H3.2955L3.291 6.89767ZM3.21001 6.97358H3.291V7.04949H3.20551L3.21001 6.97358ZM6.15706 7.26877H6.23805V7.34468H6.16156L6.15706 7.26877ZM6.23805 7.3489H6.31903V7.42058H6.23805V7.3489ZM3.2955 9.28872H3.37198V9.36463H3.2955V9.28872Z" stroke="black" stroke-width="0.0232313"/>
<path fill-rule="evenodd" clip-rule="evenodd" d="M4.31792 8.13142H4.08569V7.98628H4.24172V7.8484H4.39774V7.72141H4.5574V7.87743C4.42677 7.87743 4.32154 7.98628 4.32154 8.13142H4.31792Z" fill="white"/>
<path fill-rule="evenodd" clip-rule="evenodd" d="M4.7896 8.13142H5.02545V7.98628H4.86942V7.8484H4.7134V7.72141H4.55737V7.87743C4.68437 7.87743 4.7896 7.98628 4.7896 8.13142Z" fill="#FAAE29"/>
<path fill-rule="evenodd" clip-rule="evenodd" d="M4.7896 8.13141H5.02545V8.27655H4.86942V8.41806H4.7134V8.54143H4.55737V8.3854C4.68437 8.3854 4.7896 8.27655 4.7896 8.13141Z" fill="white"/>
<path fill-rule="evenodd" clip-rule="evenodd" d="M4.31792 8.13141H4.08569V8.27655H4.24172V8.41806H4.39774V8.54143H4.5574V8.3854C4.42677 8.3854 4.32154 8.27655 4.32154 8.13141H4.31792Z" fill="#FAAE29"/>
<path fill-rule="evenodd" clip-rule="evenodd" d="M4.7896 8.1314H4.55737V7.87741C4.68437 7.87741 4.7896 7.99352 4.7896 8.1314Z" fill="#00843D"/>
<path fill-rule="evenodd" clip-rule="evenodd" d="M4.7896 8.13141H4.55737V8.3854C4.68437 8.3854 4.7896 8.27292 4.7896 8.13141Z" fill="#CA3745"/>
<path fill-rule="evenodd" clip-rule="evenodd" d="M4.31787 8.13141H4.55735V8.3854C4.42673 8.3854 4.3215 8.27292 4.3215 8.13141H4.31787Z" fill="#00843D"/>
<path fill-rule="evenodd" clip-rule="evenodd" d="M4.31787 8.1314H4.55735V7.87741C4.42673 7.87741 4.3215 7.99352 4.3215 8.1314H4.31787Z" fill="#CA3745"/>
<path fill-rule="evenodd" clip-rule="evenodd" d="M4.80411 9.06392L4.56463 8.91878L4.32515 9.06392L4.08567 8.91878L3.84619 9.06392V8.99135L4.00584 8.91878L3.92602 8.84258V8.77001H4.00584L4.08567 8.84258L4.1655 8.77001H4.24532V8.84258L4.1655 8.91515L4.32515 8.99135L4.4848 8.91878L4.40498 8.84258V8.77001H4.4848L4.56463 8.84258L4.64446 8.77001H4.72428V8.84258L4.64446 8.91515L4.80411 8.99135L4.96376 8.91878L4.88394 8.84258V8.77001H4.96376L5.04359 8.84258L5.12342 8.77001H5.20324V8.84258L5.12342 8.91515L5.28307 8.99135V9.06392L5.04359 8.91878L4.80411 9.06392ZM4.80411 7.19888L4.56463 7.34765L4.32515 7.19888L4.08567 7.34765L3.84619 7.19888V7.27145L4.00584 7.34765L3.92602 7.42022V7.49642H4.00584L4.08567 7.42385L4.1655 7.49642H4.24532V7.42385L4.1655 7.35128L4.32515 7.27145L4.4848 7.34765L4.40498 7.42022V7.49642H4.4848L4.56463 7.42385L4.64446 7.49642H4.72428V7.42385L4.64446 7.35128L4.80411 7.27145L4.96376 7.34765L4.88394 7.42022V7.49642H4.96376L5.04359 7.42385L5.12342 7.49642H5.20324V7.42385L5.12342 7.35128L5.28307 7.27145V7.19888L5.04359 7.34765L4.80411 7.19888ZM5.67857 8.32008L5.55883 8.1314L5.67857 7.94635L5.55883 7.75767L5.67857 7.57262H5.62414L5.56246 7.69598L5.50441 7.6343H5.44272V7.69598L5.50441 7.75767L5.44272 7.81935V7.88104H5.50441L5.56246 7.81935L5.62414 7.94635L5.56246 8.06972L5.50441 8.00803H5.44272V8.06972L5.50441 8.1314L5.44272 8.19309V8.2584H5.50441L5.56246 8.19309L5.62414 8.32008L5.56246 8.44345L5.50441 8.38177H5.44272V8.44345L5.50441 8.50513L5.44272 8.56682V8.63213H5.50441L5.56246 8.56682L5.62414 8.69382H5.6822L5.56246 8.50513L5.6822 8.32008H5.67857Z" fill="#00843D"/>
<path fill-rule="evenodd" clip-rule="evenodd" d="M3.84465 7.27298L3.5297 7.56817V8.68989L3.84465 8.9893H5.28443L5.59938 8.69411V7.57238L5.27993 7.27298H3.84465ZM3.76366 7.04526L2.96729 7.79589V8.47061L3.76816 9.2128H5.36092L6.1573 8.46639V7.79167L5.36092 7.04526H3.76816H3.76366Z" fill="#00843D" stroke="black" stroke-width="0.0309751"/>
<path fill-rule="evenodd" clip-rule="evenodd" d="M4.18182 9.06738L4.3078 9.2192L4.43738 9.06738H4.17822H4.18182Z" fill="#FAAE29" stroke="black" stroke-width="0.0169658"/>
<path fill-rule="evenodd" clip-rule="evenodd" d="M4.18182 7.19904L4.3078 7.04722L4.43738 7.19904H4.17822H4.18182Z" fill="#FAAE29" stroke="black" stroke-width="0.0169658"/>
<path fill-rule="evenodd" clip-rule="evenodd" d="M4.68988 7.19904L4.81586 7.04722L4.94544 7.19904H4.68628H4.68988Z" fill="#FAAE29" stroke="black" stroke-width="0.0169658"/>
<path fill-rule="evenodd" clip-rule="evenodd" d="M4.68988 9.06738L4.81586 9.2192L4.94544 9.06738H4.68628H4.68988Z" fill="#FAAE29" stroke="black" stroke-width="0.0169658"/>
<path fill-rule="evenodd" clip-rule="evenodd" d="M3.92792 7.19904L4.0539 7.04722L4.18348 7.19904H3.92432H3.92792Z" fill="#CA3745" stroke="black" stroke-width="0.0169658"/>
<path fill-rule="evenodd" clip-rule="evenodd" d="M4.43597 7.19904L4.56195 7.04722L4.69153 7.19904H4.43237H4.43597Z" fill="#CA3745" stroke="black" stroke-width="0.0169658"/>
<path fill-rule="evenodd" clip-rule="evenodd" d="M4.94745 7.19904L5.07343 7.04722L5.20301 7.19904H4.94385H4.94745Z" fill="#CA3745" stroke="black" stroke-width="0.0169658"/>
<path fill-rule="evenodd" clip-rule="evenodd" d="M3.60815 8.84274L3.84436 9.06412H3.60815V8.84274Z" fill="#CA3745" stroke="black" stroke-width="0.0348451"/>
<path fill-rule="evenodd" clip-rule="evenodd" d="M3.44702 8.3201L3.56676 8.13142L3.44702 7.94637L3.56676 7.75768L3.44702 7.57263H3.50871L3.56676 7.696L3.62845 7.63432H3.6865V7.696L3.62845 7.75768L3.6865 7.81937V7.88468H3.62845L3.56676 7.81937L3.50871 7.94637L3.56676 8.06973L3.62845 8.00805H3.6865V8.06973L3.62845 8.13142L3.6865 8.1931V8.25841H3.62845L3.56676 8.1931L3.50871 8.3201L3.56676 8.44347L3.62845 8.38178H3.6865V8.44347L3.62845 8.50515L3.6865 8.56683V8.63215H3.62845L3.56676 8.56683L3.50871 8.69383H3.44702L3.56676 8.50515L3.44702 8.3201Z" fill="#00843D"/>
<path fill-rule="evenodd" clip-rule="evenodd" d="M5.75879 7.92781H6.07824L6.15923 7.99612L6.07824 8.06444H5.76329V7.92401L5.75879 7.92781Z" fill="#CA3745" stroke="black" stroke-width="0.0220394"/>
<path fill-rule="evenodd" clip-rule="evenodd" d="M3.60638 7.42056L3.44441 7.57238V8.68988L3.60638 8.8417H3.36792V7.42056H3.60638Z" fill="#CA3745" stroke="black" stroke-width="0.0309751"/>
<path fill-rule="evenodd" clip-rule="evenodd" d="M3.92792 9.06738L4.0539 9.2192L4.18348 9.06738H3.92432H3.92792Z" fill="#CA3745" stroke="black" stroke-width="0.0169658"/>
<path fill-rule="evenodd" clip-rule="evenodd" d="M4.43597 9.06738L4.56195 9.2192L4.69153 9.06738H4.43237H4.43597Z" fill="#CA3745" stroke="black" stroke-width="0.0169658"/>
<path fill-rule="evenodd" clip-rule="evenodd" d="M4.94745 9.06738L5.07343 9.2192L5.20301 9.06738H4.94385H4.94745Z" fill="#CA3745" stroke="black" stroke-width="0.0169658"/>
<path fill-rule="evenodd" clip-rule="evenodd" d="M5.5191 7.42056L5.68108 7.57238V8.68988L5.5191 8.8417H5.75757V7.42056H5.5191Z" fill="#CA3745" stroke="black" stroke-width="0.0309751"/>
<path fill-rule="evenodd" clip-rule="evenodd" d="M5.51733 8.84274L5.28113 9.06412H5.51733V8.84274Z" fill="#CA3745" stroke="black" stroke-width="0.0348451"/>
<path fill-rule="evenodd" clip-rule="evenodd" d="M5.51733 7.42008L5.28113 7.1987H5.51733V7.42008Z" fill="#CA3745" stroke="black" stroke-width="0.0348451"/>
<path fill-rule="evenodd" clip-rule="evenodd" d="M3.60815 7.42008L3.84436 7.1987H3.60815V7.42008Z" fill="#CA3745" stroke="black" stroke-width="0.0348451"/>
<path fill-rule="evenodd" clip-rule="evenodd" d="M3.84467 7.27299L3.52972 7.56818V8.68991L3.84467 8.98931H5.28445L5.5994 8.69412V7.5724L5.27995 7.27299H3.84467ZM3.84467 7.19708L3.44873 7.56818V8.68991L3.84467 9.06522H5.28445L5.68039 8.68991V7.56818L5.27995 7.19708H3.84467Z" fill="#00843D" stroke="black" stroke-width="0.0309751"/>
<path fill-rule="evenodd" clip-rule="evenodd" d="M5.75879 8.06245H6.07824L6.15923 8.13077L6.07824 8.19909H5.76329V8.05865L5.75879 8.06245Z" fill="#FAAE29" stroke="black" stroke-width="0.0220401"/>
<path fill-rule="evenodd" clip-rule="evenodd" d="M5.75879 8.19993H6.07824L6.15923 8.26825L6.07824 8.33657H5.76329V8.19614L5.75879 8.19993Z" fill="#CA3745" stroke="black" stroke-width="0.0220394"/>
<path fill-rule="evenodd" clip-rule="evenodd" d="M5.75879 8.33094H6.07824L6.15923 8.39927L6.07824 8.46759H5.76329V8.32715L5.75879 8.33094Z" fill="#FAAE29" stroke="black" stroke-width="0.0220401"/>
<path fill-rule="evenodd" clip-rule="evenodd" d="M5.75879 7.79393H6.07824L6.15923 7.86225L6.07824 7.93057H5.76329V7.79013L5.75879 7.79393Z" fill="#FAAE29" stroke="black" stroke-width="0.0220401"/>
<path fill-rule="evenodd" clip-rule="evenodd" d="M3.37036 7.92781H3.05091L2.96992 7.99612L3.05091 8.06444H3.36586V7.92401L3.37036 7.92781Z" fill="#CA3745" stroke="black" stroke-width="0.0220394"/>
<path fill-rule="evenodd" clip-rule="evenodd" d="M3.37036 8.06245H3.05091L2.96992 8.13077L3.05091 8.19909H3.36586V8.05865L3.37036 8.06245Z" fill="#FAAE29" stroke="black" stroke-width="0.0220401"/>
<path fill-rule="evenodd" clip-rule="evenodd" d="M3.37036 8.19993H3.05091L2.96992 8.26825L3.05091 8.33657H3.36586V8.19614L3.37036 8.19993Z" fill="#CA3745" stroke="black" stroke-width="0.0220394"/>
<path fill-rule="evenodd" clip-rule="evenodd" d="M3.37036 8.33458H3.05091L2.96992 8.4029L3.05091 8.47122H3.36586V8.33078L3.37036 8.33458Z" fill="#FAAE29" stroke="black" stroke-width="0.0220401"/>
<path fill-rule="evenodd" clip-rule="evenodd" d="M3.37036 7.79393H3.05091L2.96992 7.86225L3.05091 7.93057H3.36586V7.79013L3.37036 7.79393Z" fill="#FAAE29" stroke="black" stroke-width="0.0220401"/>
<path fill-rule="evenodd" clip-rule="evenodd" d="M2.89038 7.34888V8.90918H3.29082V9.28449H5.84193V8.90918H6.23787V7.34888H5.84193V6.97778H3.29082V7.34888H2.89038ZM2.97137 7.42057V8.8417H3.36731V9.2128H5.76094V8.8417H6.16138V7.42057H5.76094V7.05369H3.36731V7.42479H2.97137V7.42057Z" fill="#970000" stroke="black" stroke-width="0.0232313"/>
<path fill-rule="evenodd" clip-rule="evenodd" d="M6.55611 1.51402L6.31765 1.2261V1.01118L6.07918 0.796254H5.60225L5.20182 0.581329H3.92851L3.52807 0.796254H3.05115L2.81268 1.01118V1.2261L2.57422 1.50997V2.08986L2.81268 2.37372V2.5927L3.05115 2.80763H3.52807L3.92851 3.02255H5.20182L5.60225 2.80763H6.07918L6.32214 2.5927V2.37778L6.56061 2.08986V1.50997L6.55611 1.51402Z" fill="#CA3745" stroke="black" stroke-width="0.0227812"/>
<path fill-rule="evenodd" clip-rule="evenodd" d="M2.64868 1.79971V2.01742L2.89179 2.30407V2.52178L3.13127 2.73586H3.6066L4.00573 2.94994H4.56452V1.79971H2.65231H2.64868Z" fill="#FAAE29"/>
<path fill-rule="evenodd" clip-rule="evenodd" d="M3.89332 2.30407L3.60304 2.4855H3.42524L3.4833 2.55081L3.36719 2.67418L3.42524 2.73586L3.59941 2.67418L3.65747 2.73586L3.68649 2.56895L4.0058 2.37302L3.88969 2.30045L3.89332 2.30407Z" fill="#CA3745"/>
<path fill-rule="evenodd" clip-rule="evenodd" d="M3.57397 2.15893L3.28369 2.34398H3.10589L3.16395 2.40567L3.04784 2.52903L3.10589 2.59072L3.28006 2.52903L3.33811 2.59072L3.36714 2.42381L3.68645 2.2315L3.57397 2.15893ZM3.41431 1.86865L3.12403 2.05733H2.94624L3.0043 2.11902L2.88818 2.24239L2.94624 2.30407L3.12041 2.24239L3.17846 2.30407L3.20749 2.13716L3.5268 1.94485L3.41431 1.87228V1.86865Z" fill="#CA3745"/>
<path fill-rule="evenodd" clip-rule="evenodd" d="M6.4769 1.79973V1.58202L6.23742 1.299V1.08129L5.99795 0.863586H5.51899L5.11985 0.649506H4.5647V1.79973H6.4769Z" fill="#FAAE29"/>
<path fill-rule="evenodd" clip-rule="evenodd" d="M4.56471 2.94995H4.41957L4.2454 2.80481H3.97326L3.82812 2.73224L3.90069 2.65967L4.04583 2.73224H4.1946L4.33974 2.51816L4.56471 2.59073V2.73587H4.34337L4.56108 2.94995H4.56471Z" fill="#CA3745"/>
<path fill-rule="evenodd" clip-rule="evenodd" d="M2.64868 1.79973V1.58202L2.89179 1.299V1.08129L3.13127 0.863586H3.6066L4.00573 0.649506H4.56452V1.79973H2.65231H2.64868Z" fill="white"/>
<path fill-rule="evenodd" clip-rule="evenodd" d="M4.56471 0.653134H4.41957L4.2454 0.794645H3.97326L3.82812 0.867214L3.90069 0.939784L4.04583 0.867214H4.1946L4.33974 1.08129L4.56471 1.00872V0.863586H4.34337L4.56108 0.649506L4.56471 0.653134ZM4.56471 0.653134H4.70984L4.88401 0.794645H5.15615L5.30129 0.867214L5.22872 0.939784L5.08358 0.867214H4.93481L4.78604 1.08129L4.56471 1.00872V0.863586H4.78241L4.56471 0.649506V0.653134Z" fill="#CA3745"/>
<path fill-rule="evenodd" clip-rule="evenodd" d="M6.4769 1.79971V2.01742L6.23742 2.30407V2.52178L5.99795 2.73586H5.51899L5.11985 2.94994H4.5647V1.79971H6.4769Z" fill="white"/>
<path fill-rule="evenodd" clip-rule="evenodd" d="M4.56455 2.94993H4.70969L4.88386 2.80479H5.156L5.30114 2.73222L5.22857 2.65965L5.08343 2.73222H4.93466L4.78589 2.51814L4.56455 2.59071V2.73585H4.78226L4.56455 2.94993ZM3.57398 1.44049L3.2837 1.25906H3.10591L3.16396 1.19375L3.04785 1.07038L3.10591 1.0087L3.28007 1.07038L3.33813 1.0087L3.36716 1.17561L3.68646 1.36792L3.57398 1.44049ZM5.23582 1.29535L5.5261 1.11392H5.70027L5.64584 1.04861L5.76195 0.928872L5.70027 0.867188L5.52973 0.928872L5.46805 0.867188L5.44265 1.03047L5.12334 1.22641L5.23582 1.29898V1.29535Z" fill="#CA3745"/>
<path fill-rule="evenodd" clip-rule="evenodd" d="M3.89324 1.29898L3.60296 1.11392H3.42516L3.48322 1.04861L3.36711 0.928872L3.42516 0.867188L3.59933 0.928872L3.65739 0.867188L3.68641 1.03047L4.00572 1.22641L3.88961 1.29898H3.89324ZM3.41065 1.72351L3.12037 1.54208H2.94258L3.00063 1.47677L2.88452 1.3534L2.94258 1.29172L3.11674 1.3534L3.1748 1.29172L3.20383 1.45863L3.52313 1.65094L3.41065 1.72351Z" fill="#CA3745"/>
<path fill-rule="evenodd" clip-rule="evenodd" d="M2.79391 1.79971H2.86648L2.93905 1.87228L3.01162 1.79971H4.56461V2.8048H4.49204L4.56461 2.87737V2.94994L4.34327 2.73223V2.65966H4.41584V2.73223H4.48841V2.65966L3.89334 2.34398H3.38535V2.03556L3.16402 1.87228H3.01162L2.93905 1.94485L3.01162 2.01742H2.93905L2.79028 1.79971H2.79391Z" fill="white"/>
<path fill-rule="evenodd" clip-rule="evenodd" d="M2.79391 1.79973H2.86648L2.93905 1.72716L3.01162 1.79973H4.56461V0.794645H4.49204L4.56461 0.722075V0.649506L4.34327 0.867214V0.939784H4.41584V0.867214H4.48841V0.939784L3.89334 1.25546H3.38535V1.56751L3.16402 1.72716H3.01162L2.93905 1.65459L3.01162 1.58202H2.93905L2.79028 1.79973H2.79391Z" fill="#FAAE29"/>
<path fill-rule="evenodd" clip-rule="evenodd" d="M3.13135 1.79971H4.5646V2.66329L3.92598 2.30044H3.44702V2.01379L3.13135 1.79971Z" fill="#00843D"/>
<path fill-rule="evenodd" clip-rule="evenodd" d="M5.55511 1.44049L5.84539 1.25906H6.01955L5.9615 1.19375L6.07761 1.07038L6.01955 1.0087L5.84539 1.07038L5.78733 1.0087L5.76193 1.17561L5.44263 1.36792L5.55511 1.44049ZM5.71476 1.73076L6.00504 1.54208H6.17921L6.12115 1.4804L6.23726 1.35703L6.17921 1.29535L6.00504 1.35703L5.94698 1.29535L5.92159 1.46226L5.60228 1.65457L5.71476 1.72714V1.73076Z" fill="#CA3745"/>
<path fill-rule="evenodd" clip-rule="evenodd" d="M6.33539 1.79973H6.26282L6.19025 1.72716L6.11406 1.79973H4.5647V0.794645H4.63727L4.5647 0.722075V0.649506L4.78241 0.867214V0.939784H4.70984V0.867214H4.63727V0.939784L5.23597 1.25546H5.74395V1.56751L5.96529 1.72716H6.11043L6.18663 1.65459L6.11406 1.58202H6.18663L6.33177 1.79973H6.33539Z" fill="white"/>
<path fill-rule="evenodd" clip-rule="evenodd" d="M5.99795 1.79971H4.5647V0.94339L5.20331 1.30261H5.67864V1.58926L5.99795 1.80697V1.79971Z" fill="#00843D"/>
<path fill-rule="evenodd" clip-rule="evenodd" d="M5.23577 2.30407L5.52605 2.4855H5.70385L5.64579 2.55081L5.7619 2.67418L5.70385 2.73586L5.52968 2.67418L5.47163 2.73586L5.4426 2.56895L5.12329 2.37302L5.23577 2.30045V2.30407Z" fill="#CA3745"/>
<path fill-rule="evenodd" clip-rule="evenodd" d="M5.55511 2.15893L5.84539 2.34398H6.01955L5.9615 2.40567L6.07761 2.52903L6.01955 2.59072L5.84539 2.52903L5.78733 2.59072L5.76193 2.42381L5.44263 2.2315L5.55511 2.15893ZM5.71476 1.86865L6.00504 2.05733H6.17921L6.12115 2.11902L6.23726 2.24239L6.17921 2.30407L6.00504 2.24239L5.94698 2.30407L5.92159 2.13716L5.60228 1.94485L5.71476 1.87228V1.86865Z" fill="#CA3745"/>
<path fill-rule="evenodd" clip-rule="evenodd" d="M6.33539 1.79971H6.26282L6.19025 1.87228L6.11406 1.79971H4.5647V2.8048H4.63727L4.5647 2.87737V2.94994L4.78241 2.73223V2.65966H4.70984V2.73223H4.63727V2.65966L5.23597 2.34398H5.74395V2.03556L5.96529 1.87228H6.11043L6.18663 1.94485L6.11406 2.01742H6.18663L6.33177 1.79971H6.33539Z" fill="#FAAE29"/>
<path fill-rule="evenodd" clip-rule="evenodd" d="M5.99784 1.79971H4.5646V2.66329L5.20321 2.30044H5.67854V2.01379L5.99784 1.79971ZM3.13135 1.79971H4.5646V0.94339L3.92598 1.30261H3.44702V1.58926L3.13135 1.80697V1.79971Z" fill="#CA3745"/>
<path fill-rule="evenodd" clip-rule="evenodd" d="M4.72064 1.79971L5.11977 1.582H5.36288L5.28305 1.50943L5.44271 1.36792L5.35925 1.29535L5.1234 1.36792L5.04357 1.29535L5.00729 1.48766L4.56461 1.71625L4.72064 1.79971ZM4.40859 1.79971L4.00946 2.01742H3.76635L3.84618 2.08999L3.68652 2.2315L3.76635 2.30407L4.00583 2.2315L4.08566 2.30407L4.12194 2.11176L4.56461 1.88316L4.40496 1.79971H4.40859Z" fill="#CA3745"/>
<path fill-rule="evenodd" clip-rule="evenodd" d="M4.40859 1.79971L4.00946 1.582H3.76635L3.84618 1.50943L3.68652 1.36792L3.76635 1.29535L4.00583 1.36792L4.08566 1.29535L4.12194 1.48766L4.56461 1.71625L4.40496 1.79971H4.40859ZM4.72064 1.79971L5.11977 2.01742H5.36288L5.28305 2.08999L5.44271 2.2315L5.35925 2.30407L5.1234 2.2315L5.04357 2.30407L5.00729 2.11176L4.56461 1.88316L4.72064 1.79971Z" fill="#00843D"/>
<path fill-rule="evenodd" clip-rule="evenodd" d="M4.08569 1.79971L4.56465 1.44049L5.04361 1.79971L4.56465 2.15893L4.08569 1.79971Z" fill="white"/>
<path fill-rule="evenodd" clip-rule="evenodd" d="M3.01168 1.94485L3.08788 2.01742L3.01531 2.08999H2.94274L2.71777 1.79971H2.79034L2.93911 2.01742H3.01168L2.93911 1.94485L3.01168 1.87228H3.16045V1.94485H3.01531H3.01168ZM3.01168 1.65457L3.08788 1.582L3.01531 1.50943H2.94274L2.71777 1.79971H2.79034L2.93911 1.582H3.01168L2.93911 1.65457L3.01168 1.72714H3.16045V1.65457H3.01531H3.01168ZM6.11403 1.94485L6.04146 2.01742L6.11403 2.08999H6.1866L6.40793 1.79971H6.33536L6.19023 2.01742H6.11403L6.1866 1.94485L6.11403 1.87228H5.96889V1.94485H6.11403ZM6.11403 1.65457L6.04146 1.582L6.11403 1.50943H6.1866L6.40793 1.79971H6.33536L6.19023 1.582H6.11403L6.1866 1.65457L6.11403 1.72714H5.96889V1.65457H6.11403ZM4.48847 1.50943H4.63724V2.08999H4.4921L4.48847 1.50943Z" fill="#CA3745"/>
<path fill-rule="evenodd" clip-rule="evenodd" d="M4.27075 1.65457H4.85857V1.94485H4.27075V1.65457Z" fill="#CA3745"/>
<path fill-rule="evenodd" clip-rule="evenodd" d="M3.88923 12.7193L2.56445 13.4496V14.6398L3.90173 15.3701H5.22651L6.55129 14.6398V13.4496L5.22651 12.7328H3.90173L3.88923 12.7193Z" fill="#00843D" stroke="black" stroke-width="0.023113"/>
<path fill-rule="evenodd" clip-rule="evenodd" d="M3.06613 13.9334H3.14595V13.7846H3.30198V13.9297H3.38181V13.5886H3.30198V13.7338H3.14233V13.5886H3.0625V13.9297L3.06613 13.9334ZM5.09808 15.0763H5.18153V14.9312H5.34118V15.0763H5.42101V14.7316H5.34118V14.8804H5.18153V14.7352H5.1017V15.0763H5.09808ZM3.81359 13.3601H3.89342V13.2077H4.0567V13.3528H4.13653V13.0117H4.0567V13.1569H3.89705V13.0117H3.80997V13.3564L3.81359 13.3601ZM4.99285 13.3601H5.07268V13.2077H5.23233V13.3528H5.31578V13.0117H5.23233V13.1569H5.07268V13.0117H4.99285V13.3564V13.3601ZM5.74394 13.9297H5.82377V13.7846H5.98342V13.9297H6.06325V13.5886H5.98705V13.7338H5.8274V13.5886H5.74757V13.9297H5.74394ZM5.74394 14.503H5.82377V14.3579H5.98342V14.503H6.06325V14.1619H5.98705V14.3071H5.8274V14.1619H5.74757V14.503H5.74394Z" fill="#CC0000"/>
<path fill-rule="evenodd" clip-rule="evenodd" d="M4.56463 15.3085V14.0422H6.49135V14.6155L5.20687 15.3049H4.56463V15.3085ZM4.56463 12.7867V14.0422H2.63428V13.4689L3.92239 12.7795H4.56463V12.7867Z" fill="#FAAE29"/>
<path fill-rule="evenodd" clip-rule="evenodd" d="M4.56463 12.7867V14.0422H6.49135V13.4689L5.20687 12.7795H4.56463V12.7867ZM4.56463 15.3085V14.0422H2.63428V14.6155L3.92239 15.3049H4.56463V15.3085Z" fill="white"/>
<path fill-rule="evenodd" clip-rule="evenodd" d="M5.59156 13.5322H6.36442L5.59156 13.1894V13.5322ZM6.49142 13.474V14.0464H5.27225V13.5904H5.01463L4.69169 13.419V13.018L4.88763 12.8433H4.63001V13.419H4.5647V12.7884H5.20694L6.49142 13.474Z" fill="#FAAE29" stroke="black" stroke-width="0.00608995"/>
<path fill-rule="evenodd" clip-rule="evenodd" d="M3.9187 13.6431V14.4486H4.11464L4.56457 14.6772L5.0145 14.4486H5.20681V13.6431H5.0145L4.56457 13.4109L4.11464 13.6431H3.9187Z" fill="#CA3745"/>
<path fill-rule="evenodd" clip-rule="evenodd" d="M3.53784 14.5631H2.76497L3.53784 14.9059V14.5631ZM2.63798 14.6213V14.0489H3.85714V14.5049H4.11477L4.4377 14.6763V15.0773L4.24176 15.252H4.49938V14.6763H4.5647V15.3069H3.92246L2.63798 14.6213Z" fill="#FAAE29" stroke="black" stroke-width="0.00608995"/>
<path fill-rule="evenodd" clip-rule="evenodd" d="M3.53784 13.5322H2.76497L3.53784 13.1894V13.5322ZM2.63798 13.474V14.0464H3.85714V13.5904H4.11477L4.4377 13.419V13.018L4.24176 12.8433H4.49938V13.419H4.5647V12.7884H3.92246L2.63798 13.474Z" fill="white" stroke="black" stroke-width="0.00608995"/>
<path fill-rule="evenodd" clip-rule="evenodd" d="M5.59156 14.5631H6.36442L5.59156 14.9059V14.5631ZM6.49142 14.6213V14.0489H5.27225V14.5049H5.01463L4.69169 14.6763V15.0773L4.88763 15.252H4.63001V14.6763H4.5647V15.3069H5.20694L6.49142 14.6213Z" fill="white" stroke="black" stroke-width="0.00608995"/>
<path fill-rule="evenodd" clip-rule="evenodd" d="M3.02246 14.5067H3.10229V14.3325H3.26194V14.503H3.34177V14.1039H3.26557V14.2744H3.10592V14.1039H3.02609V14.503L3.02246 14.5067ZM3.7917 15.0763H3.87152V14.9058H4.03481V15.0763H4.11463V14.6772H4.03481V14.8477H3.87152V14.6772H3.7917V15.0763ZM3.02246 13.5886H3.10229V13.7592H3.26194V13.5886H3.34177V13.9878H3.26557V13.8172H3.10592V13.9878H3.02609V13.5886H3.02246ZM3.7917 13.0154H3.87152V13.1859H4.03481V13.0154H4.11463V13.4145H4.03481V13.2439H3.87152V13.4145H3.7917V13.0154ZM5.01449 15.0763H5.09432V14.9058H5.25397V15.0763H5.33743V14.6772H5.25397V14.8477H5.09432V14.6772H5.01449V15.0763ZM5.78736 13.9878H5.86719V13.8172H6.02684V13.9878H6.10667V13.5886H6.02684V13.7592H5.86719V13.5886H5.78736V13.9878Z" fill="#CA3745"/>
<path fill-rule="evenodd" clip-rule="evenodd" d="M5.01465 15.0763H5.09447V14.9058H5.25413V15.0763H5.33758V14.6772H5.25413V14.8477H5.09447V14.6772H5.01465V15.0763Z" fill="#CA3745"/>
<path fill-rule="evenodd" clip-rule="evenodd" d="M5.01465 15.0763H5.09447V14.9058H5.25413V15.0763H5.33758V14.6772H5.25413V14.8477H5.09447V14.6772H5.01465V15.0763ZM5.78751 14.503H5.86734V14.3325H6.02699V14.503H6.10682V14.1039H6.02699V14.2744H5.86734V14.1039H5.78751V14.503ZM5.01465 13.4145H5.09447V13.2439H5.25413V13.4145H5.33758V13.0154H5.25413V13.1859H5.09447V13.0154H5.01465V13.4145Z" fill="#CA3745"/>
<path fill-rule="evenodd" clip-rule="evenodd" d="M4.62987 14.0458L4.88387 13.8354H5.01449V13.9442H4.88749V13.995H5.0798V13.7846H4.88749V13.6285H4.62987V13.7846H4.69156V13.6793H4.82218V13.7882L4.56456 13.995L4.31057 13.7846V13.6793H4.43393V13.7882H4.49925V13.6285H4.24525V13.7846H4.04932V13.995H4.24163V13.9406H4.11463V13.839H4.24163L4.49925 14.0458L4.24525 14.2563H4.11463V14.1474H4.24163V14.0966H4.04932V14.3071H4.24163V14.4631H4.49925V14.3071H4.43393V14.4123H4.30694V14.3071L4.56093 14.0966L4.82218 14.3071V14.4123H4.69156V14.3071H4.62987V14.4631H4.88387V14.3071H5.0798V14.0966H4.88387V14.151H5.01449V14.2563H4.88749L4.62987 14.0458Z" fill="white"/>
<path fill-rule="evenodd" clip-rule="evenodd" d="M2.7612 5.16358L2.88457 5.03554H3.63203L4.19082 4.47287H4.93828L5.49707 5.03891H6.24453L6.3679 5.16358L6.24453 5.28824H5.49344L4.93465 5.85428H4.18719L3.63203 5.28824H2.88094L2.75757 5.16358H2.7612Z" fill="#CA3745"/>
<path fill-rule="evenodd" clip-rule="evenodd" d="M2.82446 5.17384L2.89203 5.11259H3.66227L4.23995 4.51837H4.88182L5.46288 5.11565H6.23312L6.29731 5.17691L6.23312 5.2351H5.46288L4.94601 5.77112H4.17577L3.66227 5.2351H2.88865L2.82446 5.17384Z" fill="#CA3745" stroke="black" stroke-width="0.017156"/>
<path fill-rule="evenodd" clip-rule="evenodd" d="M4.87664 5.22758L5.12338 5.47691L5.00001 5.60158L4.9347 5.54093H4.87664V5.60158L4.93833 5.66559H5.06533L5.18869 5.54093V5.4129L4.93833 5.16357L5.18869 4.91087V4.78621L5.06533 4.66154H4.93833L4.87664 4.72219V4.78621H4.93833L5.00364 4.72219L5.12701 4.85022L4.87664 5.09955L4.62991 4.85022L4.87664 4.59753V4.53351H4.81496L4.56822 4.78621L4.31786 4.53351H4.25618V4.59753L4.50291 4.85022L4.25618 5.09955L4.00581 4.85022L4.13281 4.72219L4.19449 4.78621H4.25618V4.72219L4.19449 4.66154H4.06749L3.94413 4.78621V4.91087L4.19449 5.16357L3.94413 5.4129V5.54093L4.06749 5.66559H4.19449L4.25618 5.60158V5.54093H4.18723L4.12555 5.60158L3.99855 5.47691L4.24892 5.22758L4.49565 5.47691L4.24892 5.72961V5.79026H4.3106L4.56097 5.54093L4.8077 5.79026H4.86939V5.72961L4.62265 5.47691L4.86939 5.22758H4.87664ZM4.5646 4.91087L4.31423 5.16357L4.5646 5.4129L4.81133 5.16357L4.5646 4.91087ZM4.19086 5.85427V6.35967L4.25255 6.29228L4.31423 6.35967L4.37592 6.29228L4.4376 6.35967L4.50291 6.29228L4.5646 6.35967L4.62628 6.29228L4.68796 6.35967L4.74965 6.29228L4.81133 6.35967L4.87302 6.29228L4.93833 6.35967V5.85427H4.18723H4.19086ZM4.93833 4.47286V3.96747L4.87302 4.03485L4.81133 3.96747L4.74965 4.03485L4.68796 3.96747L4.62628 4.03485L4.5646 3.96747L4.49928 4.03485L4.4376 3.96747L4.37592 4.03485L4.31423 3.96747L4.25255 4.03485L4.19086 3.96747V4.47286H4.93833ZM5.99059 5.0389V4.53351L5.93253 4.6009L5.87085 4.53351L5.80916 4.6009L5.74385 4.53351L5.68217 4.6009L5.62048 4.53351L5.5588 4.6009L5.49711 4.53351V5.0389H5.99422H5.99059ZM3.63208 5.0389V4.53351L3.56676 4.6009L3.50508 4.53351L3.4434 4.6009L3.38171 4.53351L3.32003 4.6009L3.25834 4.53351L3.19303 4.6009L3.13135 4.53351V5.0389H3.62845H3.63208ZM5.99422 5.28823V5.79363L5.93253 5.72624L5.87085 5.79363L5.80916 5.72624L5.74385 5.79363L5.68217 5.72624L5.62048 5.79363L5.5588 5.72624L5.49711 5.79363V5.28823H5.99422ZM3.62845 5.28823V5.79363L3.56676 5.72624L3.50508 5.79363L3.4434 5.72624L3.38171 5.79363L3.32003 5.72624L3.25834 5.79363L3.19303 5.72624L3.13135 5.79363V5.28823H3.62845Z" fill="#FAAE29"/>
<path fill-rule="evenodd" clip-rule="evenodd" d="M4.93473 5.8543V6.16765L5.00004 6.10363L5.06173 6.17101L5.12341 6.10363L5.1851 6.17101L5.24678 6.10363L5.30846 6.17101L5.37378 6.10363L5.43546 6.17101L5.49715 6.10363V5.28826L4.93473 5.8543ZM4.19089 5.8543V6.16765L4.12558 6.10363L4.0639 6.17101L4.00221 6.10363L3.94053 6.17101L3.87884 6.10363L3.81716 6.17101L3.75548 6.10363L3.69379 6.17101L3.62848 6.10363V5.28826L4.19089 5.8543ZM4.19089 4.47289V4.15955L4.12558 4.22019L4.0639 4.15955L4.00221 4.22019L3.94053 4.15955L3.87884 4.22019L3.81716 4.15955L3.75548 4.22019L3.69379 4.15955L3.62848 4.22019V5.03893L4.19089 4.47289ZM4.93473 4.47289V4.15955L5.00004 4.22019L5.06173 4.15955L5.12341 4.22019L5.1851 4.15955L5.24678 4.22019L5.30846 4.15955L5.37015 4.22019L5.43546 4.15955L5.49715 4.22019V5.03893L4.93473 4.47289ZM3.13138 5.66562L3.06969 5.6016L3.00801 5.66899L2.94633 5.6016L2.88464 5.66899L2.82296 5.6016L2.75765 5.66899L2.69596 5.6016L2.63428 5.66899V4.6582L2.69596 4.72559L2.75765 4.6582L2.82296 4.72559L2.88464 4.6582L2.94633 4.72559L3.00801 4.6582L3.06969 4.72559L3.13138 4.6582V5.03893H2.88464L2.75765 5.1636L2.88464 5.28826H3.13138V5.66562ZM5.99425 5.66562L6.05593 5.6016L6.11761 5.66899L6.1793 5.6016L6.24461 5.66899L6.3063 5.6016L6.36798 5.66899L6.42966 5.6016L6.49135 5.66899V4.6582L6.42966 4.72559L6.36798 4.6582L6.3063 4.72559L6.24461 4.6582L6.1793 4.72559L6.11761 4.6582L6.05593 4.72559L5.99425 4.6582V5.03893H6.24461L6.36798 5.1636L6.24461 5.28826H5.99425V5.66562Z" fill="#00843D"/>
<path fill-rule="evenodd" clip-rule="evenodd" d="M3.88229 5.89471C3.88229 5.89471 3.83149 5.94188 3.83149 5.96883C3.83149 5.99242 3.88592 6.04296 3.91132 6.04296C3.94035 6.04296 3.98752 5.99242 3.98752 5.96883C3.98752 5.94525 3.93672 5.89471 3.93672 5.89471V5.79363C3.93672 5.79363 4.04557 5.96546 4.04557 5.89134C4.04557 5.83743 3.93672 5.74646 3.93672 5.74646H3.88229C3.88229 5.74646 3.77344 5.85428 3.77344 5.89134C3.77344 5.96546 3.88229 5.79363 3.88229 5.79363V5.89471Z" fill="white"/>
<path fill-rule="evenodd" clip-rule="evenodd" d="M4.53177 6.08676C4.53177 6.08676 4.47009 6.15415 4.47009 6.18784C4.47009 6.22154 4.5354 6.29566 4.56443 6.29566C4.60071 6.29566 4.65514 6.22491 4.65514 6.19121C4.65514 6.15752 4.59345 6.08676 4.59345 6.08676V5.94525C4.59345 5.94525 4.70231 6.17437 4.70231 6.06992C4.70231 6.00253 4.59345 5.87787 4.59345 5.87787H4.53177C4.53177 5.87787 4.40477 6.03286 4.42292 6.06992C4.42292 6.17437 4.53177 5.94525 4.53177 5.94525V6.08676Z" fill="#CA3745"/>
<path d="M3.87778 5.2238C3.94566 5.2238 4.00068 5.19522 4.00068 5.15997C4.00068 5.12471 3.94566 5.09613 3.87778 5.09613C3.80991 5.09613 3.75488 5.12471 3.75488 5.15997C3.75488 5.19522 3.80991 5.2238 3.87778 5.2238Z" fill="#00843D"/>
<path d="M4.56357 5.2238C4.63145 5.2238 4.68647 5.19522 4.68647 5.15997C4.68647 5.12471 4.63145 5.09613 4.56357 5.09613C4.4957 5.09613 4.44067 5.12471 4.44067 5.15997C4.44067 5.19522 4.4957 5.2238 4.56357 5.2238Z" fill="#00843D"/>
<path d="M5.2457 5.2238C5.31358 5.2238 5.3686 5.19522 5.3686 5.15997C5.3686 5.12471 5.31358 5.09613 5.2457 5.09613C5.17783 5.09613 5.1228 5.12471 5.1228 5.15997C5.1228 5.19522 5.17783 5.2238 5.2457 5.2238Z" fill="#00843D"/>
<path fill-rule="evenodd" clip-rule="evenodd" d="M3.87152 4.43919C3.87152 4.43919 3.82072 4.38865 3.82072 4.36506C3.82072 4.34148 3.87514 4.28757 3.89692 4.28757C3.92594 4.28757 3.97311 4.33811 3.97311 4.36169C3.97311 4.38865 3.92231 4.43919 3.92231 4.43919V4.54026C3.92231 4.54026 4.0348 4.36506 4.0348 4.43919C4.0348 4.49309 3.92594 4.58743 3.92594 4.58743H3.87152C3.87152 4.58743 3.75903 4.47962 3.75903 4.44255C3.75903 4.36843 3.86789 4.53689 3.86789 4.53689V4.43582L3.87152 4.43919Z" fill="white"/>
<path fill-rule="evenodd" clip-rule="evenodd" d="M4.51733 4.24377C4.51733 4.24377 4.45565 4.17638 4.45565 4.14269C4.45565 4.10899 4.52459 4.03824 4.54999 4.03824C4.58627 4.03824 4.64433 4.10562 4.64433 4.13932C4.64433 4.17301 4.58265 4.24713 4.58265 4.24713V4.38191C4.58265 4.38191 4.6915 4.15616 4.6915 4.26061C4.6915 4.328 4.58265 4.45603 4.58265 4.45603H4.5137C4.5137 4.45603 4.38671 4.29767 4.40485 4.26061C4.40485 4.15953 4.5137 4.38528 4.5137 4.38528V4.24377H4.51733Z" fill="#CA3745"/>
<path fill-rule="evenodd" clip-rule="evenodd" d="M5.20686 5.89472C5.20686 5.89472 5.15607 5.94189 5.15607 5.96884C5.15607 5.99243 5.21049 6.04297 5.23589 6.04297C5.26492 6.04297 5.31209 5.99243 5.31209 5.96884C5.31209 5.94526 5.26129 5.89472 5.26129 5.89472V5.79364C5.26129 5.79364 5.37015 5.96548 5.37015 5.89135C5.37015 5.83744 5.26129 5.74647 5.26129 5.74647H5.20324C5.20324 5.74647 5.09438 5.85429 5.09438 5.89135C5.09438 5.96548 5.20324 5.79364 5.20324 5.79364V5.89472H5.20686ZM5.19598 4.43919C5.19598 4.43919 5.14518 4.38865 5.14518 4.36169C5.14518 4.34148 5.19961 4.28757 5.22138 4.28757C5.25041 4.28757 5.29758 4.33811 5.29758 4.36169C5.29758 4.38865 5.24678 4.43919 5.24678 4.43919V4.54026C5.24678 4.54026 5.35926 4.36506 5.35926 4.43919C5.35926 4.49309 5.25041 4.58743 5.25041 4.58743H5.19598C5.19598 4.58743 5.0835 4.47962 5.0835 4.44255C5.0835 4.36843 5.19235 4.53689 5.19235 4.53689V4.43582L5.19598 4.43919Z" fill="white"/>
<path fill-rule="evenodd" clip-rule="evenodd" d="M3.34185 5.54431C3.34185 5.54431 3.27291 5.59148 3.27291 5.6117C3.27291 5.63529 3.34548 5.68582 3.37814 5.68246C3.41442 5.68246 3.47974 5.63865 3.47974 5.61507C3.47974 5.59148 3.41079 5.54431 3.41079 5.54431V5.44997C3.41079 5.44997 3.53416 5.60159 3.53416 5.53421C3.53416 5.48704 3.41079 5.4028 3.41079 5.4028H3.34185C3.34185 5.4028 3.20034 5.51062 3.22211 5.53421C3.22211 5.60159 3.34185 5.44997 3.34185 5.44997V5.54431ZM3.32734 4.83339C3.32734 4.83339 3.2584 4.78622 3.2584 4.76264C3.2584 4.73905 3.33097 4.69188 3.36362 4.69525C3.39991 4.69525 3.46522 4.73905 3.46522 4.76264C3.46522 4.78622 3.39628 4.83002 3.39628 4.83002V4.92436C3.39628 4.92436 3.51965 4.77275 3.51965 4.8435C3.51965 4.8873 3.39628 4.97153 3.39628 4.97153H3.32734C3.32734 4.97153 3.18583 4.86709 3.2076 4.8435C3.2076 4.77612 3.32734 4.92436 3.32734 4.92436V4.83339ZM5.73302 5.52747C5.73302 5.52747 5.66045 5.57464 5.66045 5.59822C5.66045 5.62181 5.73665 5.66898 5.7693 5.66898C5.80559 5.66898 5.8709 5.62181 5.8709 5.60159C5.8709 5.57464 5.79833 5.52747 5.79833 5.52747V5.4365C5.79833 5.4365 5.9217 5.58812 5.9217 5.51736C5.9217 5.47356 5.80196 5.38933 5.80196 5.38933H5.72939C5.72939 5.38933 5.59151 5.49378 5.60965 5.51736C5.60965 5.58812 5.73302 5.4365 5.73302 5.4365V5.53084V5.52747ZM5.71851 4.81992C5.71851 4.81992 5.64594 4.77275 5.64594 4.74916C5.64594 4.72558 5.72213 4.67841 5.75479 4.67841C5.79107 4.67841 5.85639 4.72558 5.85639 4.74579C5.85639 4.77275 5.78382 4.81655 5.78382 4.81655V4.91089C5.78382 4.91089 5.90719 4.75927 5.90719 4.82665C5.90719 4.87382 5.78745 4.95806 5.78745 4.95806H5.71488C5.71488 4.95806 5.57699 4.85361 5.59514 4.83002C5.59514 4.75927 5.71851 4.91089 5.71851 4.91089V4.81655V4.81992Z" fill="#CA3745"/>
<path fill-rule="evenodd" clip-rule="evenodd" d="M2.83379 5.53756C2.81202 5.49376 2.81928 5.47354 2.81928 5.44996C2.81928 5.42637 2.88096 5.38257 2.90273 5.38257C2.93176 5.38257 2.97893 5.42974 2.97893 5.45669C2.97893 5.48028 2.97893 5.5005 2.96804 5.5443L2.93902 5.47354C2.8991 5.57462 2.89547 5.57462 2.8737 5.47017L2.83742 5.53756H2.83379ZM2.83379 4.81316C2.81565 4.85696 2.81928 4.87718 2.81928 4.90076C2.81928 4.92435 2.88096 4.96815 2.90636 4.96815C2.93539 4.96815 2.98256 4.92098 2.98256 4.89402C2.98256 4.87044 2.98256 4.85022 2.97167 4.80642L2.93902 4.87718C2.90273 4.7761 2.8991 4.7761 2.8737 4.88055L2.83742 4.81316H2.83379ZM6.19013 5.52745C6.16836 5.48365 6.17199 5.46343 6.17199 5.43985C6.17199 5.41626 6.2373 5.37246 6.25907 5.37246C6.2881 5.37246 6.33527 5.423 6.33527 5.44659C6.33527 5.47017 6.33527 5.49376 6.32438 5.53419L6.29173 5.46343C6.25544 5.56451 6.25182 5.56788 6.22642 5.46343L6.19013 5.52745ZM6.19013 4.80642C6.16836 4.84685 6.17562 4.86707 6.17562 4.89402C6.17562 4.91424 6.2373 4.96141 6.25907 4.96141C6.2881 4.96141 6.3389 4.91087 6.3389 4.88728C6.3389 4.86033 6.3389 4.84011 6.32801 4.79631L6.29173 4.87044C6.25544 4.76599 6.25544 4.76262 6.23004 4.87044L6.19376 4.80305L6.19013 4.80642Z" fill="white"/>
<path fill-rule="evenodd" clip-rule="evenodd" d="M4.17992 6.3731V6.19116H3.59937V5.83402H3.08412V5.71609H2.63419V4.63793H3.08412V4.52H3.59937V4.16286H4.17992V3.98429H4.94916V4.16286H5.52972V4.52H6.04133V4.6413H6.49489V5.71609H6.04496V5.83402H5.53335V6.19116H4.95279V6.36973H4.18355L4.17992 6.3731ZM4.11461 6.43037V6.2518H3.53406V5.89466H3.02244V5.77337H2.57251V4.58065H3.02244V4.46273H3.53406V4.10222H4.11461V3.92365H5.01447V4.10222H5.59503V4.46273H6.10665V4.58065H6.55658V5.77337H6.10665V5.89466H5.5914V6.2518H5.01085V6.43037H4.11461Z" fill="#CA3745" stroke="black" stroke-width="0.00621597"/>
</g>
</g>
<defs>
<clipPath id="clip0_14_1199">
<rect width="18" height="18" rx="9" fill="white"/>
</clipPath>
</defs>
</svg>
