<svg width="18" height="18" viewBox="0 0 18 18" fill="none" xmlns="http://www.w3.org/2000/svg">
<g clip-path="url(#clip0_8201_11585)">
<path d="M9 18C13.9706 18 18 13.9706 18 9C18 4.02944 13.9706 0 9 0C4.02944 0 0 4.02944 0 9C0 13.9706 4.02944 18 9 18Z" fill="#D80027"/>
<path d="M9.00016 13.3044C11.3774 13.3044 13.3045 11.3773 13.3045 9.00003C13.3045 6.6228 11.3774 4.69568 9.00016 4.69568C6.62293 4.69568 4.6958 6.6228 4.6958 9.00003C4.6958 11.3773 6.62293 13.3044 9.00016 13.3044Z" fill="#F0F0F0"/>
<path d="M9.53022 7.35413L10.2686 8.37172L11.4645 7.98395L10.725 9.00067L11.4633 10.0182L10.2678 9.62898L9.52821 10.6457L9.52898 9.38848L8.3335 8.99923L9.52944 8.61145L9.53022 7.35413Z" fill="#D80027"/>
<path d="M9.9783 11.5434C8.5736 11.5434 7.43482 10.4047 7.43482 8.99996C7.43482 7.59526 8.5736 6.45648 9.9783 6.45648C10.4163 6.45648 10.8284 6.56722 11.1882 6.76219C10.6238 6.21021 9.85192 5.86951 9.00005 5.86951C7.2712 5.86951 5.86963 7.27105 5.86963 8.99992C5.86963 10.7288 7.2712 12.1303 9.00005 12.1303C9.85192 12.1303 10.6238 11.7896 11.1882 11.2377C10.8284 11.4327 10.4163 11.5434 9.9783 11.5434Z" fill="#D80027"/>
</g>
<defs>
<clipPath id="clip0_8201_11585">
<rect width="18" height="18" fill="white"/>
</clipPath>
</defs>
</svg>
