<svg width="18" height="18" viewBox="0 0 18 18" fill="none" xmlns="http://www.w3.org/2000/svg">
<g clip-path="url(#clip0_8201_11591)">
<path d="M9 18C13.9706 18 18 13.9706 18 9C18 4.02944 13.9706 0 9 0C4.02944 0 0 4.02944 0 9C0 13.9706 4.02944 18 9 18Z" fill="#D80027"/>
<path d="M8.63129 7.35413L9.36975 8.37172L10.5657 7.98395L9.82604 9.00067L10.5644 10.0182L9.3689 9.62898L8.62932 10.6457L8.63009 9.38848L7.43457 8.99923L8.63052 8.61145L8.63129 7.35413Z" fill="#F0F0F0"/>
<path d="M6.616 11.5434C5.2113 11.5434 4.07252 10.4047 4.07252 8.99996C4.07252 7.59526 5.2113 6.45648 6.616 6.45648C7.05398 6.45648 7.46608 6.56725 7.82587 6.76219C7.26143 6.21017 6.48951 5.86951 5.63774 5.86951C3.90883 5.86951 2.50732 7.27105 2.50732 8.99992C2.50732 10.7288 3.90886 12.1303 5.63774 12.1303C6.48958 12.1303 7.26147 11.7896 7.82587 11.2377C7.46608 11.4327 7.05398 11.5434 6.616 11.5434Z" fill="#F0F0F0"/>
</g>
<defs>
<clipPath id="clip0_8201_11591">
<rect width="18" height="18" fill="white"/>
</clipPath>
</defs>
</svg>
