<svg width="18" height="18" viewBox="0 0 18 18" fill="none" xmlns="http://www.w3.org/2000/svg">
<g clip-path="url(#clip0_14_1091)">
<path fill-rule="evenodd" clip-rule="evenodd" d="M0 0H18V18H0V0Z" fill="#E30A17"/>
<path fill-rule="evenodd" clip-rule="evenodd" d="M12.2625 9.28124C12.2625 11.7633 10.2129 13.7777 7.6887 13.7777C5.16448 13.7777 3.11487 11.7633 3.11487 9.27773C3.11487 6.79218 5.16096 4.78476 7.68518 4.78476C10.2094 4.78476 12.266 6.7957 12.266 9.28124H12.2625Z" fill="white"/>
<path fill-rule="evenodd" clip-rule="evenodd" d="M12.4911 9.28124C12.4911 11.2676 10.8528 12.8777 8.8313 12.8777C6.80981 12.8777 5.17505 11.2676 5.17505 9.28124C5.17505 7.29491 6.80981 5.68475 8.8313 5.68475C10.8528 5.68475 12.4875 7.29491 12.4875 9.28124H12.4911Z" fill="#E30A17"/>
<path fill-rule="evenodd" clip-rule="evenodd" d="M13.1519 7.17889L13.1168 8.84178L11.5629 9.26366L13.0922 9.80858L13.057 11.3308L14.0519 10.1426L15.5601 10.6629L14.6883 9.38671L15.75 8.11757L14.1187 8.56757L13.1519 7.17889Z" fill="white"/>
</g>
<defs>
<clipPath id="clip0_14_1091">
<rect width="18" height="18" rx="9" fill="white"/>
</clipPath>
</defs>
</svg>
