<svg width="18" height="18" viewBox="0 0 18 18" fill="none" xmlns="http://www.w3.org/2000/svg">
<g clip-path="url(#clip0_14_1090)">
<path d="M0 0H18V18H0V0Z" fill="#009FCA"/>
<path fill-rule="evenodd" clip-rule="evenodd" d="M16.8047 7.95587L17.0543 8.67306L16.4075 8.23009L15.7571 8.67306L16.0067 7.95587L15.3563 7.5129H16.1614L16.4075 6.79572L16.6536 7.5129H17.4551L16.8047 7.95587ZM14.7938 13.6793L15.0399 14.3965L14.393 13.95L13.7461 14.3965L13.9922 13.6793L13.3454 13.2328H14.1469L14.393 12.5156L14.6391 13.2363H15.4442L14.7938 13.6793ZM16.8083 12.382L17.0543 13.0992L16.4075 12.6563L15.7571 13.0992L16.0067 12.382L15.3563 11.9391H16.1614L16.4075 11.2219L16.6536 11.9391H17.4551L16.8083 12.382ZM8.15278 16.5305L8.40239 17.2512L7.75552 16.8047L7.10513 17.2512L7.35474 16.534L6.70435 16.091H7.50591L7.752 15.3738L8.00161 16.091H8.80317L8.15278 16.5305ZM9.66802 13.4227L9.42192 12.7055L10.0688 13.1484L10.7157 12.7055L10.4696 13.4227L11.1165 13.8656H10.3149L10.0688 14.5828L9.8227 13.8656H9.02114L9.66802 13.4227ZM12.034 10.1531L11.7844 9.43595L12.4313 9.87892L13.0817 9.43595L12.8356 10.1531L13.4825 10.5961H12.6809L12.4348 11.3133L12.1887 10.5961H11.3836L12.034 10.1531ZM14.0204 9.47462L13.7743 8.75743L14.4211 9.2004L15.068 8.75743L14.8219 9.47462L15.4688 9.91759H14.6672L14.4211 10.6348L14.175 9.91759H13.37L14.0204 9.47462ZM12.034 15.1348L11.7844 14.4176L12.4313 14.8606L13.0817 14.4176L12.8356 15.1348L13.4825 15.5777H12.6809L12.4348 16.2949L12.1887 15.5777H11.3836L12.034 15.1348ZM9.66802 15.7113L9.42192 14.9942L10.0688 15.4371L10.7157 14.9942L10.4696 15.7113L11.1165 16.1543H10.3149L10.0688 16.8715L9.8227 16.1543H9.02114L9.66802 15.7113Z" fill="#FFF40D"/>
<path d="M0 0H9V9H0V0Z" fill="#012169"/>
<path d="M9 0V1.125L5.66016 4.5L9 7.78711V9H7.82227L4.46484 5.69531L1.19531 9H0V7.80469L3.26953 4.51758L0 1.30078V0H1.08984L4.46484 3.30469L7.73438 0H9Z" fill="white"/>
<path d="M3.23438 5.69531L3.42773 6.29297L0.738281 9H0V8.94727L3.23438 5.69531ZM5.41406 5.48438L6.36328 5.625L9 8.20898V9L5.41406 5.48438ZM9 0L5.625 3.44531L5.55469 2.67188L8.19141 0H9ZM0 0.0175781L3.39258 3.33984L2.35547 3.19922L0 0.861328V0.0175781Z" fill="#C8102E"/>
<path d="M3.09375 0V9H5.90625V0H3.09375ZM0 3.09375V5.90625H9V3.09375H0Z" fill="white"/>
<path d="M0 3.65625V5.34375H9V3.65625H0ZM3.65625 0V9H5.34375V0H3.65625Z" fill="#C8102E"/>
</g>
<defs>
<clipPath id="clip0_14_1090">
<rect width="18" height="18" rx="9" fill="white"/>
</clipPath>
</defs>
</svg>
