<svg width="18" height="18" viewBox="0 0 18 18" fill="none" xmlns="http://www.w3.org/2000/svg">
<g clip-path="url(#clip0_8201_11638)">
<path d="M18 9C18 13.9705 13.9705 18 9.00004 18C4.02947 18 0 13.9705 0 9C0 9.00214 9.00004 0.000984375 9.00004 0C13.9705 0 18 4.02947 18 9Z" fill="#338AF3"/>
<path d="M4.3042 8.99992H7.33966L4.69549 5.86951L4.3042 7.04341V8.99992Z" fill="#0052B4"/>
<path d="M9.00008 7.33982L5.86963 4.30432H9.00005L9.00008 7.33982Z" fill="#0052B4"/>
<path d="M8.97607 9.00003H9.00016C9.00016 8.99195 9.00016 8.98407 9.00016 8.97595C8.99214 8.984 8.98413 8.99202 8.97607 9.00003Z" fill="#F0F0F0"/>
<path d="M9.00004 4.69564C9.00004 3.11203 9.00004 2.07436 9.00004 0H8.99852C4.02863 0.00084375 0 4.02993 0 9H4.69568V6.35586L7.33982 9H8.97599C8.984 8.99198 8.99202 8.98397 9.00007 8.97592C9.00007 8.36958 9.00007 7.82856 9.00007 7.33985L6.35583 4.69564H9.00004Z" fill="#F0F0F0"/>
<path d="M4.55319 1.17395C3.14557 1.97548 1.97536 3.14569 1.17383 4.55331V9.00005H3.52167V3.52186V3.52179H8.99993C8.99993 2.78129 8.99993 2.07585 8.99993 1.17395H4.55319Z" fill="#D80027"/>
<path d="M9.00016 7.89325L5.80252 4.69568H4.6958V4.69575L9.00009 9H9.00016C9.00016 9 9.00016 8.23686 9.00016 7.89325Z" fill="#D80027"/>
<path d="M9.82287 14.8695L10.0171 15.4674H10.6458L10.1372 15.8369L10.3315 16.4347L9.82287 16.0652L9.31433 16.4347L9.50861 15.8369L9 15.4674H9.62859L9.82287 14.8695Z" fill="#FFDA44"/>
<path d="M14.8293 10.9564L15.0235 11.5543H15.6521L15.1436 11.9238L15.3379 12.5216L14.8293 12.1522L14.3207 12.5216L14.515 11.9238L14.0063 11.5543H14.635L14.8293 10.9564Z" fill="#FFDA44"/>
<path d="M16.0836 5.08691L16.2779 5.68478H16.9065L16.398 6.05427L16.5922 6.65211L16.0836 6.28265L15.5751 6.65211L15.7693 6.05427L15.2607 5.68478H15.8894L16.0836 5.08691Z" fill="#FFDA44"/>
<path d="M16.3947 9.39124L16.5889 9.98914H17.2175L16.709 10.3586L16.9033 10.9565L16.3947 10.587L15.8861 10.9565L16.0804 10.3586L15.5718 9.98914H16.2004L16.3947 9.39124Z" fill="#FFDA44"/>
<path d="M10.7245 13.4634L11.2847 13.7488L11.7292 13.3043L11.6309 13.9251L12.1909 14.2105L11.57 14.3089L11.4717 14.9298L11.1864 14.3697L10.5654 14.4681L11.0099 14.0236L10.7245 13.4634Z" fill="#FFDA44"/>
<path d="M10.7245 11.1155L11.2847 11.4009L11.7292 10.9564L11.6309 11.5773L12.1909 11.8626L11.57 11.961L11.4717 12.5819L11.1864 12.0218L10.5654 12.1202L11.0099 11.6757L10.7245 11.1155Z" fill="#FFDA44"/>
<path d="M12.681 12.6205L13.2412 12.9059L13.6857 12.4614L13.5874 13.0822L14.1475 13.3676L13.5266 13.466L13.4282 14.0869L13.1429 13.5267L12.522 13.6252L12.9665 13.1807L12.681 12.6205Z" fill="#FFDA44"/>
<path d="M12.681 7.59377L13.2412 7.87917L13.6857 7.43469L13.5874 8.05555L14.1475 8.34092L13.5266 8.43928L13.4282 9.06018L13.1429 8.50007L12.522 8.59843L12.9665 8.15395L12.681 7.59377Z" fill="#FFDA44"/>
<path d="M14.577 7.53359L15.1372 7.81899L15.5817 7.37451L15.4834 7.99537L16.0435 8.28073L15.4226 8.3791L15.3242 9L15.0389 8.43989L14.418 8.53825L14.8624 8.09377L14.577 7.53359Z" fill="#FFDA44"/>
</g>
<defs>
<clipPath id="clip0_8201_11638">
<rect width="18" height="18" fill="white"/>
</clipPath>
</defs>
</svg>
