<svg width="18" height="18" viewBox="0 0 18 18" fill="none" xmlns="http://www.w3.org/2000/svg">
<g clip-path="url(#clip0_14_1089)">
<mask id="mask0_14_1089" style="mask-type:luminance" maskUnits="userSpaceOnUse" x="0" y="0" width="18" height="18">
<path d="M0 0H18V18H0V0Z" fill="white"/>
</mask>
<g mask="url(#mask0_14_1089)">
<path d="M0 0H27V18H0V0Z" fill="#FF0000"/>
<path d="M0 0H13.5V9H0V0Z" fill="#000095"/>
<path d="M5.7762 4.76015L5.68127 5.11874L6.03635 5.21367L5.96604 4.95351L5.7762 4.76015ZM7.53401 4.95351L7.4637 5.21367L7.81877 5.11874L7.72385 4.76015L7.53401 4.95351ZM5.96604 4.04648L5.7762 4.23984L5.84651 4.49999L5.96604 4.04648Z" fill="white"/>
<path d="M5.84644 4.5L5.77612 4.76016L5.96597 4.95352L5.84644 4.5Z" fill="white"/>
<path d="M5.77615 4.23984L5.51599 4.49999L5.77615 4.76015L5.84646 4.49999L5.77615 4.23984ZM6.29646 5.28398L6.48982 5.47382L6.74998 5.40351L6.29646 5.28398ZM7.01013 5.47382L7.36873 5.56874L7.46365 5.21367L7.20349 5.28398L7.01013 5.47382Z" fill="white"/>
<path d="M7.20356 5.28399L7.46372 5.21368L7.53403 4.95352L7.20356 5.28399ZM6.03638 5.21368L6.1313 5.56876L6.48989 5.47383L6.29653 5.28399L6.03638 5.21368ZM6.75005 5.40352L7.0102 5.47383L7.20356 5.28399L6.75005 5.40352Z" fill="white"/>
<path d="M6.48987 5.47382L6.75002 5.73397L7.01018 5.47382L6.75002 5.4035L6.48987 5.47382ZM6.03635 3.78632L5.68127 3.88124L5.7762 4.23983L5.96604 4.04647L6.03635 3.78632ZM5.96604 4.9535L6.03635 5.21366L6.29651 5.28397L5.96604 4.9535ZM7.65354 4.49999L7.72385 4.23983L7.53401 4.04647L7.65354 4.49999Z" fill="white"/>
<path d="M6.29653 3.716L6.03638 3.78632L5.96606 4.04647L6.29653 3.716ZM7.53403 4.04647L7.46372 3.78632L7.20356 3.716L7.53403 4.04647ZM7.72388 4.76014L7.98403 4.49999L7.72388 4.23983L7.65356 4.49999L7.72388 4.76014Z" fill="white"/>
<path d="M7.53394 4.0465L7.20347 3.71603L6.74995 3.5965L6.29644 3.71603L5.96597 4.0465L5.84644 4.50001L5.96597 4.95353L6.29644 5.284L6.74995 5.40353L7.20347 5.284L7.53394 4.95353L7.65347 4.50001L7.53394 4.0465Z" fill="white"/>
<path d="M7.53403 4.95351L7.72388 4.76015L7.65356 4.49999L7.53403 4.95351ZM7.72388 4.23984L7.8188 3.88124L7.46372 3.78632L7.53403 4.04648L7.72388 4.23984ZM7.46372 3.78632L7.3688 3.43124L7.0102 3.52617L7.20356 3.71601L7.46372 3.78632ZM6.48989 3.52617L6.1313 3.43124L6.03638 3.78632L6.29653 3.71601L6.48989 3.52617Z" fill="white"/>
<path d="M6.75002 3.5965L6.48987 3.52618L6.29651 3.71603L6.75002 3.5965Z" fill="white"/>
<path d="M7.01018 3.52618L6.75002 3.26602L6.48987 3.52618L6.75002 3.59649L7.01018 3.52618Z" fill="white"/>
<path d="M7.20349 3.71603L7.01013 3.52618L6.74998 3.5965L7.20349 3.71603ZM6.48982 5.47384L6.13123 5.56876L6.29646 6.18751L6.74998 5.734L6.48982 5.47384ZM6.29646 6.18751L6.74998 7.87501L7.20349 6.18751L6.74998 5.734L6.29646 6.18751ZM6.0363 5.21368L5.68123 5.11876L5.51599 5.734L6.13123 5.56876L6.0363 5.21368Z" fill="white"/>
<path d="M5.51599 5.73399L5.06248 7.42149L6.29646 6.18751L6.13123 5.56876L5.51599 5.73399ZM5.06248 4.95352L3.82849 6.18751L5.51599 5.73399L5.68123 5.11876L5.06248 4.95352Z" fill="white"/>
<path d="M5.77617 4.76016L5.51602 4.50001L5.0625 4.95352L5.68125 5.11876L5.77617 4.76016ZM5.77617 4.23985L5.68125 3.88126L5.0625 4.04649L5.51602 4.50001L5.77617 4.23985Z" fill="white"/>
<path d="M5.0625 4.04648L3.375 4.49999L5.0625 4.95351L5.51602 4.49999L5.0625 4.04648ZM8.4375 4.95351L7.81875 5.11874L7.98398 5.73398L9.67148 6.18749L8.4375 4.95351Z" fill="white"/>
<path d="M7.46367 5.21368L7.36875 5.56876L7.98398 5.73399L7.81875 5.11876L7.46367 5.21368ZM7.01016 5.47383L6.75 5.73399L7.20352 6.18751L7.36875 5.56876L7.01016 5.47383ZM7.72383 4.76016L7.81875 5.11876L8.4375 4.95352L7.98398 4.50001L7.72383 4.76016ZM7.20352 6.18751L8.4375 7.42149L7.98398 5.73399L7.36875 5.56876L7.20352 6.18751ZM7.46367 3.78633L7.81875 3.88126L7.98398 3.26602L7.36875 3.43126L7.46367 3.78633ZM8.4375 4.04649L9.67148 2.81251L7.98398 3.26602L7.81875 3.88126L8.4375 4.04649ZM7.98398 3.26602L8.4375 1.57852L7.20352 2.81251L7.36875 3.43126L7.98398 3.26602ZM8.4375 4.95352L10.125 4.50001L8.4375 4.04649L7.98398 4.50001L8.4375 4.95352Z" fill="white"/>
<path d="M7.72383 4.23985L7.98398 4.50001L8.4375 4.04649L7.81875 3.88126L7.72383 4.23985ZM6.29648 2.81251L5.0625 1.57852L5.51602 3.26602L6.13125 3.43126L6.29648 2.81251ZM6.03633 3.78633L6.13125 3.43126L5.51602 3.26602L5.68125 3.88126L6.03633 3.78633Z" fill="white"/>
<path d="M5.51599 3.26602L3.82849 2.8125L5.06248 4.04648L5.68123 3.88125L5.51599 3.26602ZM7.01013 3.52617L7.36873 3.43125L7.20349 2.8125L6.74998 3.26602L7.01013 3.52617Z" fill="white"/>
<path d="M7.20354 2.8125L6.75002 1.125L6.29651 2.8125L6.75002 3.26602L7.20354 2.8125Z" fill="white"/>
<path d="M6.48982 3.52617L6.74998 3.26602L6.29646 2.8125L6.13123 3.43125L6.48982 3.52617Z" fill="white"/>
<path d="M6.75002 6.41249C7.80627 6.41249 8.66252 5.55624 8.66252 4.49999C8.66252 3.44375 7.80627 2.58749 6.75002 2.58749C5.69378 2.58749 4.83752 3.44375 4.83752 4.49999C4.83752 5.55624 5.69378 6.41249 6.75002 6.41249Z" fill="#000095"/>
<path d="M6.75 6.1875C7.68198 6.1875 8.4375 5.43198 8.4375 4.5C8.4375 3.56802 7.68198 2.8125 6.75 2.8125C5.81802 2.8125 5.0625 3.56802 5.0625 4.5C5.0625 5.43198 5.81802 6.1875 6.75 6.1875Z" fill="white"/>
</g>
</g>
<defs>
<clipPath id="clip0_14_1089">
<rect width="18" height="18" rx="9" fill="white"/>
</clipPath>
</defs>
</svg>
