<svg width="18" height="18" viewBox="0 0 18 18" fill="none" xmlns="http://www.w3.org/2000/svg">
<g clip-path="url(#clip0_8201_11507)">
<path d="M18 9C18 13.9705 13.9705 18 9 18C4.02947 18 0 13.9705 0 9C3.09129 5.90871 5.71303 3.28697 9 0C13.9705 0 18 4.02947 18 9Z" fill="#D80027"/>
<path d="M9 9C9 4.02947 9 3.44348 9 0C4.02947 0 0 4.02947 0 9H9Z" fill="#0052B4"/>
<path d="M7.82625 5.26713L6.72709 5.78421L7.31237 6.84871L6.11885 6.62033L5.96757 7.82609L5.13627 6.93931L4.30489 7.82609L4.15369 6.62033L2.96013 6.84864L3.54541 5.78414L2.44629 5.26713L3.54545 4.75016L2.96013 3.68563L4.15365 3.91397L4.30493 2.70825L5.13627 3.59503L5.96761 2.70825L6.11885 3.91397L7.31241 3.68563L6.72709 4.7502L7.82625 5.26713Z" fill="#F0F0F0"/>
<path d="M5.13624 6.94228C6.06148 6.94228 6.81154 6.19222 6.81154 5.26698C6.81154 4.34173 6.06148 3.59167 5.13624 3.59167C4.211 3.59167 3.46094 4.34173 3.46094 5.26698C3.46094 6.19222 4.211 6.94228 5.13624 6.94228Z" fill="#0052B4"/>
<path d="M5.1363 6.15989C4.64408 6.15989 4.24365 5.75942 4.24365 5.2672C4.24365 4.77498 4.64412 4.37451 5.1363 4.37451C5.62853 4.37451 6.02899 4.77498 6.02899 5.2672C6.02896 5.75942 5.62846 6.15989 5.1363 6.15989Z" fill="#F0F0F0"/>
</g>
<defs>
<clipPath id="clip0_8201_11507">
<rect width="18" height="18" fill="white"/>
</clipPath>
</defs>
</svg>
