<svg width="18" height="18" viewBox="0 0 18 18" fill="none" xmlns="http://www.w3.org/2000/svg">
<g clip-path="url(#clip0_8201_11526)">
<path d="M9 18C13.9706 18 18 13.9706 18 9C18 4.02944 13.9706 0 9 0C4.02944 0 0 4.02944 0 9C0 13.9706 4.02944 18 9 18Z" fill="#FFDA44"/>
<path d="M2.63609 15.3639C3.01363 15.7415 3.41645 16.0782 3.839 16.3746L16.3747 3.83891C16.0783 3.41637 15.7416 3.01355 15.364 2.636C14.9864 2.25846 14.5837 1.9218 14.1611 1.62537L1.62549 14.1611C1.92186 14.5835 2.25858 14.9864 2.63609 15.3639Z" fill="black"/>
<path d="M2.63616 2.63599C-0.203133 5.47535 -0.748231 9.73949 0.999843 13.1265L13.1267 0.999714C9.73965 -0.74836 5.47548 -0.203228 2.63616 2.63599Z" fill="#6DA544"/>
<path d="M15.3641 15.364C18.2033 12.5247 18.7484 8.26047 17.0004 4.87341L4.87354 17.0003C8.26052 18.7484 12.5247 18.2033 15.3641 15.364Z" fill="#338AF3"/>
</g>
<defs>
<clipPath id="clip0_8201_11526">
<rect width="18" height="18" fill="white"/>
</clipPath>
</defs>
</svg>
