<svg width="18" height="18" viewBox="0 0 18 18" fill="none" xmlns="http://www.w3.org/2000/svg">
<g clip-path="url(#clip0_8201_11660)">
<path d="M15.7076 15C17.1329 13.4077 18 11.3053 18 9.00006C18 6.6948 17.1329 4.59235 15.7075 3.00005L9 2.3479L2.29247 3.00005C0.867129 4.59235 0 6.6948 0 9.00006C0 11.3053 0.867094 13.4077 2.29243 15L9 15.6522L15.7076 15Z" fill="#FFDA44"/>
<path d="M2.29248 2.99999H15.7076C14.0596 1.15896 11.6653 0 9.00001 0C6.33471 0 3.94039 1.15896 2.29248 2.99999Z" fill="black"/>
<path d="M0 9.00002L9 9.78264L18 9.00002C18 7.94801 17.8189 6.93839 17.4871 6H0.512859C0.18109 6.93839 0 7.94801 0 9.00002H0Z" fill="#D80027"/>
<path d="M0.512859 12H17.4872C17.8189 11.0616 18 10.052 18 9H0C0 10.052 0.18109 11.0616 0.512859 12Z" fill="black"/>
<path d="M15.7076 15H2.29248C3.94039 16.8411 6.33471 18 9.00005 18C11.6654 18 14.0597 16.8411 15.7076 15Z" fill="#D80027"/>
<path d="M12.0031 8.99996C12.0031 10.6587 10.6586 12.0032 8.99984 12.0032C7.34106 12.0032 5.99658 10.6587 5.99658 8.99996C5.99658 7.34118 7.34106 5.9967 8.99984 5.9967C10.6586 5.9967 12.0031 7.34118 12.0031 8.99996Z" fill="#F0F0F0"/>
<path d="M10.1001 9.1531L8.99993 8.67634C8.99993 8.67634 9.25734 7.82194 9.27105 7.76348C9.28107 7.72076 9.28642 7.67622 9.28642 7.63044C9.28642 7.46834 9.22071 7.3216 9.11447 7.21542L9.39115 6.93874C9.21414 6.76173 8.96955 6.65222 8.69941 6.65222C8.42927 6.65222 8.18469 6.7617 8.00768 6.93874L8.28436 7.21542C8.17812 7.32163 8.11245 7.46837 8.11245 7.63044C8.11245 7.68972 8.12141 7.74685 8.13776 7.80081L7.72119 8.21734H8.47832C8.47832 8.21734 8.16529 8.68752 7.99439 9.07364C7.8235 9.45973 7.99675 9.93107 8.39169 10.1066L8.62007 10.2081L8.99993 10.5652V10.9565L8.60864 11.3478H9.39125V10.5651L9.74834 10.2081H10.4869C10.4904 10.2007 10.4942 10.1935 10.4976 10.186C10.673 9.79111 10.4951 9.3286 10.1001 9.1531Z" fill="black"/>
</g>
<defs>
<clipPath id="clip0_8201_11660">
<rect width="18" height="18" fill="white"/>
</clipPath>
</defs>
</svg>
