<svg width="18" height="18" viewBox="0 0 18 18" fill="none" xmlns="http://www.w3.org/2000/svg">
<g clip-path="url(#clip0_14_1086)">
<mask id="mask0_14_1086" style="mask-type:luminance" maskUnits="userSpaceOnUse" x="-1" y="0" width="19" height="18">
<path d="M-0.000732422 0H17.9965V17.9972H-0.000732422V0Z" fill="white"/>
</mask>
<g mask="url(#mask0_14_1086)">
<path fill-rule="evenodd" clip-rule="evenodd" d="M-4.5 11.9994H22.4959V15.0001H-4.5V11.9994Z" fill="#FFE700"/>
<path fill-rule="evenodd" clip-rule="evenodd" d="M-4.5 8.9986H22.4959V11.9993H-4.5V8.9986Z" fill="black"/>
<path fill-rule="evenodd" clip-rule="evenodd" d="M-4.5 6.00153H22.4959V8.99865H-4.5V6.00153Z" fill="#DE3908"/>
<path fill-rule="evenodd" clip-rule="evenodd" d="M-4.5 3.00073H22.4959V6.00148H-4.5V3.00073Z" fill="#FFE700"/>
<path fill-rule="evenodd" clip-rule="evenodd" d="M-4.5 0H22.4959V3.00075H-4.5V0Z" fill="black"/>
<path fill-rule="evenodd" clip-rule="evenodd" d="M11.8028 8.99862C11.8028 9.74202 11.5075 10.455 10.9818 10.9806C10.4561 11.5063 9.74318 11.8016 8.99978 11.8016C8.25637 11.8016 7.54342 11.5063 7.01776 10.9806C6.49209 10.455 6.19678 9.74202 6.19678 8.99862C6.19678 8.25521 6.49209 7.54226 7.01776 7.0166C7.54342 6.49093 8.25637 6.19562 8.99978 6.19562C9.74318 6.19562 10.4561 6.49093 10.9818 7.0166C11.5075 7.54226 11.8028 8.25521 11.8028 8.99862Z" fill="#FFFDFF" stroke="black" stroke-width="0.0580556"/>
<path fill-rule="evenodd" clip-rule="evenodd" d="M8.50442 6.85056L8.323 6.51674C8.39557 6.44417 8.51168 6.39337 8.70036 6.39337L8.68222 6.75622L8.50442 6.85056Z" fill="#DE3108" stroke="black" stroke-width="0.0580556"/>
<path fill-rule="evenodd" clip-rule="evenodd" d="M8.68234 6.76349L8.70411 6.39339C8.70411 6.39339 9.08147 6.37161 9.28467 6.61472L9.0851 6.905L8.67871 6.75986L8.68234 6.76349Z" fill="#FFE700" stroke="black" stroke-width="0.0580556"/>
<path fill-rule="evenodd" clip-rule="evenodd" d="M9.09229 6.90136L9.27734 6.61108C9.40071 6.74171 9.4515 6.83605 9.47328 6.97393C9.47328 6.98119 9.17937 7.0465 9.17937 7.0465L9.09229 6.90136Z" fill="#DE3108" stroke="black" stroke-width="0.0580556"/>
<path fill-rule="evenodd" clip-rule="evenodd" d="M8.59874 11.6438C8.59874 11.6438 8.94708 11.2446 9.62197 11.3281C9.52038 11.1648 9.19018 11.183 9.19018 11.183C9.19018 11.183 9.08859 10.4065 9.16841 10.3702C9.24824 10.3339 9.58569 10.3702 9.58569 10.3702C9.63286 10.3702 9.70906 10.2504 9.64737 10.1742C9.58569 10.098 9.40789 9.80414 9.48046 9.74608C9.55303 9.68802 9.95216 9.77874 9.95216 9.77874L8.82734 8.3346C8.82734 8.3346 8.71122 7.79033 8.94345 7.53271C9.21921 7.30049 9.19018 7.05375 9.18293 7.05738C9.14664 6.80339 8.76202 6.62196 8.50077 6.85418C8.34838 7.03924 8.44997 7.18075 8.44997 7.18075C8.44997 7.18075 8.05084 7.2896 8.0327 7.36217C8.01819 7.42748 8.48626 7.34766 8.48626 7.34766L8.44272 7.66696C8.44272 7.66696 7.52834 8.50151 8.22501 9.21632C8.2359 9.21632 8.25041 9.18367 8.25041 9.18367C8.25041 9.18367 8.49714 9.48846 8.75477 9.55377C8.99787 9.80413 8.97247 9.76422 8.97247 9.76422C8.97247 9.76422 9.02327 10.1561 8.9761 10.2359C8.7208 10.2043 8.46272 10.2019 8.20687 10.2287C8.12341 10.2541 7.80411 10.2396 7.8803 10.7584L7.99641 10.4935C7.99641 10.4935 7.98916 10.6822 8.06536 10.7475C8.05084 10.5516 8.13793 10.4173 8.13793 10.4173C8.13793 10.4173 8.15244 10.6351 8.20324 10.6641C8.25041 10.7004 8.25041 10.3158 8.51529 10.3448C8.78017 10.3811 8.97247 10.3702 8.97247 10.3702C8.97247 10.3702 9.05956 11.1176 9.03053 11.1902C8.84185 11.143 8.38466 11.2084 8.35563 11.3245C8.62414 11.3063 8.74751 11.339 8.74751 11.339C8.74751 11.339 8.5298 11.5313 8.59874 11.6438Z" fill="black" stroke="black" stroke-width="0.051605" stroke-linecap="round" stroke-linejoin="round"/>
<path fill-rule="evenodd" clip-rule="evenodd" d="M8.70763 7.54724C8.70763 7.54724 8.03999 8.28019 8.32664 8.84261C8.34478 8.76278 8.33753 8.71561 8.34478 8.71924C8.33027 8.70835 8.42824 8.78455 8.41735 8.77004C8.42461 8.73012 8.39195 8.64304 8.39195 8.64304L8.47904 8.66481L8.42824 8.56684L8.55523 8.58499C8.55523 8.58499 8.51169 8.46162 8.52621 8.46162C8.56132 8.46349 8.5964 8.46591 8.63143 8.46887C8.44275 8.13143 8.62055 7.85203 8.704 7.55087L8.70763 7.54724Z" fill="#9CA69C" stroke="#9CA69C" stroke-width="0.051605" stroke-linecap="round" stroke-linejoin="round"/>
<path fill-rule="evenodd" clip-rule="evenodd" d="M8.93634 6.92316C8.93634 6.92316 8.97263 7.17715 8.83475 7.24972C8.81298 7.26423 8.72589 7.29326 8.73678 7.34406C8.75492 7.413 8.7912 7.39849 8.84563 7.3876C8.99077 7.3622 9.15768 7.05378 8.93634 6.92316Z" fill="#9CA69C" stroke="#9CA69C" stroke-width="0.0580556"/>
<path fill-rule="evenodd" clip-rule="evenodd" d="M8.68942 7.13719C8.68942 7.15163 8.68369 7.16547 8.67348 7.17568C8.66327 7.18588 8.64943 7.19162 8.63499 7.19162C8.62056 7.19162 8.60671 7.18588 8.59651 7.17568C8.5863 7.16547 8.58057 7.15163 8.58057 7.13719C8.58057 7.12276 8.5863 7.10891 8.59651 7.09871C8.60671 7.0885 8.62056 7.08276 8.63499 7.08276C8.64943 7.08276 8.66327 7.0885 8.67348 7.09871C8.68369 7.10891 8.68942 7.12276 8.68942 7.13719Z" fill="white"/>
<path fill-rule="evenodd" clip-rule="evenodd" d="M8.4755 7.34766C8.43921 7.37668 8.25779 7.56899 8.43921 7.63793C8.6279 7.58714 8.57347 7.55448 8.61701 7.51094C8.61701 7.42748 8.52267 7.40208 8.4755 7.34766Z" fill="#DE3108" stroke="black" stroke-width="0.0580556"/>
<path fill-rule="evenodd" clip-rule="evenodd" d="M8.87825 9.15826C8.86736 9.20181 8.82745 9.3542 8.88551 9.47031C9.04516 9.405 9.11773 9.42314 9.17216 9.45943C9.04153 9.35057 8.99073 9.31066 8.87825 9.15826Z" fill="#9CA69C" stroke="#9CA69C" stroke-width="0.051605" stroke-linecap="round" stroke-linejoin="round"/>
<path fill-rule="evenodd" clip-rule="evenodd" d="M9.15405 9.88397L9.16131 10.2396C9.16131 10.2396 9.28831 10.265 9.34273 10.2396C9.40079 10.2178 9.34273 9.99283 9.15405 9.88397Z" fill="white" stroke="white" stroke-width="0.051605" stroke-linecap="round" stroke-linejoin="round"/>
<path fill-rule="evenodd" clip-rule="evenodd" d="M10.0574 9.92752C10.0574 9.92752 9.82513 9.37237 9.24095 9.23086C8.65676 9.08935 8.72933 8.46888 8.7765 8.42896C8.8019 8.37454 8.82004 8.29108 8.99058 8.37091C9.16112 8.45073 9.93762 8.84261 10.0501 8.86075C10.1626 8.87889 10.0646 9.94204 10.0574 9.92752Z" fill="#9CA69C" stroke="black" stroke-width="0.0580556"/>
<path fill-rule="evenodd" clip-rule="evenodd" d="M9.49865 9.23083C9.48776 9.23446 10.2824 9.6989 10.0429 10.098C10.2715 9.94927 10.1953 9.68439 10.1953 9.68439C10.1953 9.68439 10.3804 10.167 9.93044 10.4028C9.98123 10.4464 10.0103 10.4355 10.0103 10.4355L9.93769 10.5117C9.93769 10.5117 9.90141 10.5697 10.2026 10.4246C10.1191 10.4899 10.1119 10.5371 10.1119 10.5371C10.1119 10.5371 10.1373 10.6024 10.3332 10.4282C10.2552 10.505 10.1891 10.5931 10.1373 10.6895C10.5727 10.6496 11.5088 9.24897 9.84335 8.83533L9.91592 8.91515L9.49865 9.23083Z" fill="#DE3108" stroke="black" stroke-width="0.051605" stroke-linejoin="round"/>
<path fill-rule="evenodd" clip-rule="evenodd" d="M9.53123 9.09299C9.64008 9.16556 9.67636 9.19458 9.69088 9.23087C9.59291 9.2091 9.5022 9.21635 9.5022 9.21635C9.5022 9.21635 9.29175 9.01316 9.25183 8.99865C9.2228 8.99865 9.0559 8.88979 9.0559 8.88979C8.97244 8.84988 8.89624 8.56323 9.20103 8.64668C9.52034 8.79545 9.56388 8.80634 9.56388 8.80634L9.94124 8.92608L10.159 9.16918C10.159 9.16918 9.7707 8.97687 9.72353 8.97325C9.83239 9.06033 9.89044 9.17644 9.89044 9.17644C9.76708 9.14016 9.66185 9.11113 9.53123 9.09299Z" fill="white" stroke="black" stroke-width="0.051605" stroke-linecap="round" stroke-linejoin="round"/>
<path d="M8.02905 7.37669C8.02905 7.37669 8.39916 7.28961 8.4427 7.30412" stroke="white" stroke-width="0.051605" stroke-linecap="round"/>
<path fill-rule="evenodd" clip-rule="evenodd" d="M-4.5 15.0001H22.4959V18.0009H-4.5V15.0001Z" fill="#DE3908"/>
</g>
</g>
<defs>
<clipPath id="clip0_14_1086">
<rect width="18" height="18" rx="9" fill="white"/>
</clipPath>
</defs>
</svg>
