<svg width="18" height="18" viewBox="0 0 18 18" fill="none" xmlns="http://www.w3.org/2000/svg">
<g clip-path="url(#clip0_8201_11693)">
<path d="M9 18C13.9706 18 18 13.9706 18 9C18 4.02944 13.9706 0 9 0C4.02944 0 0 4.02944 0 9C0 13.9706 4.02944 18 9 18Z" fill="#338AF3"/>
<path d="M8.97417 5.86951C7.24522 5.86951 5.84375 7.27105 5.84375 8.99992C5.84375 10.7288 7.24525 12.1303 8.97417 12.1303C10.703 12.1303 12.1046 10.7288 12.1046 8.99992C12.1046 7.27105 10.703 5.86951 8.97417 5.86951ZM8.19155 8.99992C8.19155 8.56771 8.54192 8.21731 8.97417 8.21731C9.40638 8.21731 9.75678 8.56771 9.75678 8.99992C9.75678 9.43217 9.40638 9.78254 8.97417 9.78254C8.54192 9.78254 8.19155 9.43217 8.19155 8.99992ZM9.78557 7.66121C9.66411 7.58742 9.53171 7.53011 9.39151 7.49141V6.68984C9.74451 6.75319 10.07 6.89519 10.3493 7.09748L9.78557 7.66121ZM8.60893 7.47801C8.46208 7.51313 8.32336 7.56892 8.19588 7.64216L7.62951 7.07579C7.91582 6.87533 8.24868 6.73685 8.60893 6.68049V7.47801ZM8.19584 10.3577C8.32332 10.4309 8.46205 10.4867 8.60889 10.5218V11.3193C8.24861 11.263 7.91582 11.1245 7.62951 10.924L8.19584 10.3577ZM9.39154 10.5084C9.53171 10.4697 9.66418 10.4125 9.78557 10.3387L10.3493 10.9024C10.07 11.1047 9.74451 11.2467 9.39151 11.31V10.5085H9.39154V10.5084ZM10.3319 9.77828C10.4008 9.6583 10.4547 9.5285 10.4901 9.39125H11.2889C11.2301 9.74148 11.0939 10.0652 10.8983 10.3446L10.3319 9.77828ZM10.4901 8.60864C10.4547 8.47135 10.4008 8.34166 10.3319 8.22164L10.8983 7.65527C11.0939 7.93466 11.2301 8.25837 11.2889 8.6086H10.49V8.60864H10.4901ZM7.07169 7.62479L7.63542 8.18852C7.55705 8.31754 7.49683 8.45873 7.45823 8.60864H6.65941C6.72034 8.24561 6.86444 7.911 7.07169 7.62479ZM6.65941 9.39121H7.45823C7.4968 9.54112 7.55702 9.68231 7.63542 9.81133L7.07169 10.3751C6.86444 10.0889 6.72034 9.75427 6.65941 9.39121Z" fill="#F0F0F0"/>
<path d="M14.0611 8.99997C14.0611 7.60848 13.5022 6.34774 12.5969 5.42932L11.7668 6.2594C12.4597 6.96533 12.8872 7.93269 12.8872 8.99997C12.8872 11.1611 11.1352 12.913 8.97414 12.913C6.81298 12.913 5.06111 11.1611 5.06111 8.99997C5.06111 7.91937 5.49905 6.94111 6.2072 6.23303L5.37713 5.40295C4.45656 6.32352 3.88721 7.59526 3.88721 8.99997C3.88721 11.3278 5.45085 13.2905 7.58515 13.8949C7.35115 14.3395 7.3868 14.8991 7.72107 15.3162C8.1601 14.9644 8.61463 14.6001 9.00023 14.2912C9.38582 14.6001 9.84039 14.9644 10.2794 15.3162C10.617 14.895 10.6502 14.3282 10.4084 13.8816C12.5194 13.2623 14.0611 11.3113 14.0611 8.99997Z" fill="#F0F0F0"/>
</g>
<defs>
<clipPath id="clip0_8201_11693">
<rect width="18" height="18" fill="white"/>
</clipPath>
</defs>
</svg>
