<svg width="18" height="18" viewBox="0 0 18 18" fill="none" xmlns="http://www.w3.org/2000/svg">
<g clip-path="url(#clip0_14_1336)">
<path fill-rule="evenodd" clip-rule="evenodd" d="M0 0H18V18H0V0Z" fill="#4B92DB"/>
<path d="M10.4131 13.2075C10.3478 13.2783 10.2763 13.3431 10.1993 13.401C9.72232 12.906 9.15982 12.3615 8.62657 12.3615C8.29582 12.3615 8.05957 12.6135 7.78057 12.789C7.39582 13.0365 6.86707 13.176 6.41482 12.9937C6.15904 12.9061 5.93192 12.7506 5.75782 12.5437C5.94932 12.6632 6.16635 12.7356 6.3912 12.7552C6.61605 12.7747 6.84233 12.7408 7.05157 12.6562C7.49482 12.4717 7.94932 12.2265 8.45557 12.2265C9.20257 12.2265 9.91357 12.7327 10.4131 13.2075ZM4.88707 11.655C5.38207 12.2175 6.18982 12.0375 6.84907 12.177C6.94132 12.1995 7.02907 12.2287 7.12807 12.213C7.04932 12.1635 6.94357 12.1567 6.85357 12.123C6.34057 11.9295 6.26182 11.3805 5.98057 11.0047C6.34057 11.2432 6.63532 11.5672 6.97057 11.8755C7.20688 12.0709 7.49269 12.1971 7.79632 12.24C7.72432 12.267 7.62982 12.2625 7.54882 12.2805C7.00882 12.4155 6.41032 12.627 5.83432 12.438C5.43265 12.3041 5.09557 12.0248 4.88932 11.655H4.88707ZM4.09507 10.35C4.40332 11.0497 5.17957 11.106 5.69257 11.5335C5.78456 11.6152 5.88664 11.6847 5.99632 11.7405L6.00307 11.736C5.87623 11.6254 5.76226 11.5009 5.66332 11.3647C5.36857 10.9372 5.46532 10.3522 5.23807 9.89773C5.44916 10.1324 5.62431 10.397 5.75782 10.683C5.94907 11.1375 6.01432 11.6572 6.44407 12.0037C5.97832 11.8507 5.44282 11.88 5.02657 11.6077C4.58557 11.3197 4.17832 10.8652 4.09507 10.3522V10.35ZM3.76432 8.93699C3.80932 9.55349 4.46182 9.88199 4.77682 10.3882C4.84432 10.4962 4.91182 10.6087 5.00857 10.6942C4.99282 10.629 4.94107 10.5705 4.90957 10.5075C4.80628 10.28 4.76513 10.0293 4.79032 9.78074C4.81957 9.46574 4.95007 9.17324 4.90057 8.84249C5.17057 9.42524 5.08282 10.152 5.23807 10.7797C5.27407 10.9192 5.35732 11.0407 5.40907 11.1735C5.14582 10.971 4.79932 10.791 4.50907 10.566C4.2197 10.358 3.9938 10.0736 3.85657 9.74474C3.76822 9.48522 3.73675 9.20974 3.76432 8.93699ZM3.78232 7.80298C3.81382 7.66573 3.83857 7.52398 3.89707 7.39798C3.78457 7.97848 4.17157 8.39699 4.30207 8.90099C4.35157 9.08999 4.36957 9.29023 4.44607 9.46798C4.45282 9.47023 4.45957 9.46349 4.46407 9.45899C4.27282 8.92349 4.55407 8.42849 4.82407 8.00774C4.89023 7.89229 4.93733 7.76693 4.96357 7.63649C4.99282 7.87949 4.94107 8.15849 4.89607 8.40824C4.83982 8.72999 4.72957 9.03149 4.64182 9.34199C4.5943 9.54435 4.59047 9.75452 4.63057 9.95849L4.60132 9.93599C4.39882 9.56249 3.99832 9.26998 3.87907 8.86048C3.76508 8.52029 3.73196 8.15821 3.78232 7.80298ZM3.99607 7.17749C4.00342 6.76418 4.15459 6.36637 4.42357 6.05249C4.43032 6.04799 4.43707 6.04124 4.44607 6.04349C4.16257 6.47099 4.42132 7.01549 4.38307 7.50374L4.34707 8.00324C4.35157 8.00774 4.35157 8.02348 4.36507 8.01673C4.38307 7.96048 4.38757 7.90199 4.39657 7.84349C4.46407 7.43849 4.81957 7.15949 5.11882 6.87599C5.18804 6.81064 5.24184 6.73071 5.27632 6.64199C5.25157 6.84449 5.19532 7.04924 5.10532 7.23149C4.87357 7.69949 4.42807 8.07749 4.34707 8.61074C4.30882 8.09999 3.99607 7.71974 3.99607 7.17749ZM4.73857 5.69474C4.86792 5.53922 5.04002 5.42501 5.23357 5.36624C4.86232 5.62049 4.88257 6.07274 4.77007 6.45074C4.72957 6.58799 4.66882 6.71849 4.63507 6.86024L4.64632 6.86923C4.71263 6.69905 4.81645 6.54601 4.95007 6.42149C5.20882 6.17849 5.59807 6.02999 5.72632 5.67224C5.71957 6.16949 5.29657 6.54749 4.90957 6.83999C4.7373 6.96996 4.59719 7.13777 4.50007 7.33048C4.51357 7.19548 4.52257 7.07849 4.50907 6.94574C4.46857 6.51149 4.44157 6.02324 4.74082 5.69474H4.73857ZM6.23482 4.85999C5.96257 5.10074 5.78032 5.40899 5.56882 5.68574C5.39557 5.91749 5.15482 6.05924 4.95007 6.25274C5.06257 6.02324 5.08057 5.75774 5.22232 5.53499C5.46307 5.15249 5.86357 5.00399 6.23482 4.85999Z" fill="white"/>
<path d="M7.58717 13.2075C7.65244 13.2783 7.72399 13.3431 7.80092 13.401C8.27792 12.906 8.84042 12.3615 9.37367 12.3615C9.70442 12.3615 9.94067 12.6135 10.2197 12.789C10.6044 13.0365 11.1332 13.176 11.5854 12.9937C11.8412 12.9061 12.0683 12.7506 12.2424 12.5437C12.0509 12.6632 11.8339 12.7356 11.609 12.7552C11.3842 12.7747 11.1579 12.7408 10.9487 12.6562C10.5054 12.4717 10.0509 12.2265 9.54467 12.2265C8.79767 12.2265 8.08667 12.7327 7.58717 13.2075ZM13.1132 11.655C12.6182 12.2175 11.8104 12.0375 11.1512 12.177C11.0589 12.1995 10.9712 12.2287 10.8722 12.213C10.9509 12.1635 11.0567 12.1567 11.1467 12.123C11.6597 11.9295 11.7384 11.3805 12.0197 11.0047C11.6597 11.2432 11.3649 11.5672 11.0297 11.8755C10.7934 12.0709 10.5075 12.1971 10.2039 12.24C10.2759 12.267 10.3704 12.2625 10.4514 12.2805C10.9914 12.4155 11.5899 12.627 12.1659 12.438C12.5676 12.3041 12.9047 12.0248 13.1109 11.655H13.1132ZM13.9052 10.35C13.5969 11.0497 12.8207 11.106 12.3077 11.5335C12.2157 11.6152 12.1136 11.6847 12.0039 11.7405L11.9972 11.736C12.124 11.6254 12.238 11.5009 12.3369 11.3647C12.6317 10.9372 12.5349 10.3522 12.7622 9.89773C12.5511 10.1324 12.3759 10.397 12.2424 10.683C12.0512 11.1375 11.9859 11.6572 11.5562 12.0037C12.0219 11.8507 12.5574 11.88 12.9737 11.6077C13.4147 11.3197 13.8219 10.8652 13.9052 10.3522V10.35ZM14.2359 8.93699C14.1909 9.55349 13.5384 9.88199 13.2234 10.3882C13.1559 10.4962 13.0884 10.6087 12.9917 10.6942C13.0074 10.629 13.0592 10.5705 13.0907 10.5075C13.194 10.28 13.2351 10.0293 13.2099 9.78074C13.1807 9.46574 13.0502 9.17324 13.0997 8.84249C12.8297 9.42524 12.9174 10.152 12.7622 10.7797C12.7262 10.9192 12.6429 11.0407 12.5912 11.1735C12.8544 10.971 13.2009 10.791 13.4912 10.566C13.7805 10.358 14.0064 10.0736 14.1437 9.74474C14.232 9.48522 14.2635 9.20974 14.2359 8.93699ZM14.2179 7.80298C14.1864 7.66573 14.1617 7.52398 14.1032 7.39798C14.2157 7.97848 13.8287 8.39699 13.6982 8.90099C13.6487 9.08999 13.6307 9.29023 13.5542 9.46798C13.5474 9.47023 13.5407 9.46349 13.5362 9.45899C13.7274 8.92349 13.4462 8.42849 13.1762 8.00774C13.11 7.89229 13.0629 7.76693 13.0367 7.63649C13.0074 7.87949 13.0592 8.15849 13.1042 8.40824C13.1604 8.72999 13.2707 9.03149 13.3584 9.34199C13.4059 9.54435 13.4098 9.75452 13.3697 9.95849L13.3989 9.93599C13.6014 9.56249 14.0019 9.26998 14.1212 8.86048C14.2352 8.52029 14.2683 8.15821 14.2179 7.80298ZM14.0042 7.17749C13.9968 6.76418 13.8456 6.36637 13.5767 6.05249C13.5699 6.04799 13.5632 6.04124 13.5542 6.04349C13.8377 6.47099 13.5789 7.01549 13.6172 7.50374L13.6532 8.00324C13.6487 8.00774 13.6487 8.02348 13.6352 8.01673C13.6172 7.96048 13.6127 7.90199 13.6037 7.84349C13.5362 7.43849 13.1807 7.15949 12.8814 6.87599C12.8122 6.81064 12.7584 6.73071 12.7239 6.64199C12.7487 6.84449 12.8049 7.04924 12.8949 7.23149C13.1267 7.69949 13.5722 8.07749 13.6532 8.61074C13.6914 8.09999 14.0042 7.71974 14.0042 7.17749ZM13.2617 5.69474C13.1323 5.53922 12.9602 5.42501 12.7667 5.36624C13.1379 5.62049 13.1177 6.07274 13.2302 6.45074C13.2707 6.58799 13.3314 6.71849 13.3652 6.86024L13.3539 6.86923C13.2876 6.69905 13.1838 6.54601 13.0502 6.42149C12.7914 6.17849 12.4022 6.02999 12.2739 5.67224C12.2807 6.16949 12.7037 6.54749 13.0907 6.83999C13.2629 6.96996 13.4031 7.13777 13.5002 7.33048C13.4867 7.19548 13.4777 7.07849 13.4912 6.94574C13.5317 6.51149 13.5587 6.02324 13.2594 5.69474H13.2617ZM11.7654 4.85999C12.0377 5.10074 12.2199 5.40899 12.4314 5.68574C12.6047 5.91749 12.8454 6.05924 13.0502 6.25274C12.9377 6.02324 12.9197 5.75774 12.7779 5.53499C12.5372 5.15249 12.1367 5.00399 11.7654 4.85999Z" fill="white"/>
<path d="M12.3398 9.82615L12.2555 9.78044C12.0854 10.1318 11.8599 10.4535 11.5875 10.7332L11.1164 10.2621C11.3451 10.0265 11.5328 9.75441 11.6719 9.45701L11.591 9.41482C11.4562 9.703 11.2745 9.96676 11.0531 10.1953L10.6242 9.76638C10.8057 9.57884 10.9533 9.36114 11.0602 9.12302L10.9793 9.08083C10.877 9.31093 10.7354 9.52149 10.5609 9.7031L10.0898 9.23552C10.2198 9.09795 10.3225 8.93688 10.3922 8.76091L10.3113 8.71873C10.2463 8.8867 10.1496 9.04065 10.0266 9.17224L9.59766 8.74333C9.72024 8.60763 9.79226 8.43379 9.80156 8.25115H10.4063C10.4016 8.41129 10.3695 8.56945 10.3113 8.71873L10.3922 8.76091C10.4565 8.59958 10.4922 8.42826 10.4977 8.25466H11.1656C11.1593 8.54087 11.096 8.82294 10.9793 9.08435L11.0602 9.12654C11.1827 8.85067 11.2484 8.55296 11.2535 8.25115H11.8582C11.8531 8.65477 11.762 9.05268 11.591 9.41833L11.6719 9.46052C11.8477 9.08787 11.9426 8.67654 11.9496 8.25115H12.6176C12.6111 8.78137 12.4874 9.30361 12.2555 9.78044L12.3363 9.82615C12.5817 9.32236 12.7091 8.76932 12.709 8.20896C12.709 7.7238 12.6141 7.25271 12.4383 6.81677L12.3574 6.85193C12.5227 7.26326 12.6105 7.70623 12.6176 8.16326H11.9496C11.9434 7.80528 11.8719 7.45143 11.7387 7.11912L11.6578 7.15427C11.7852 7.47567 11.8531 7.81756 11.8582 8.16326H11.2535C11.249 7.89856 11.1978 7.63673 11.1023 7.38982L11.0215 7.42498C11.1111 7.66097 11.1587 7.91084 11.1621 8.16326H10.4941C10.4904 8.00252 10.4607 7.84344 10.4063 7.69216L10.3219 7.72732C10.3729 7.86725 10.4014 8.01439 10.4063 8.16326H9.80156C9.79226 7.98062 9.72024 7.80678 9.59766 7.67107L10.0266 7.24568C10.158 7.38416 10.2597 7.54807 10.3254 7.72732L10.4063 7.69216C10.3364 7.50255 10.2288 7.32912 10.0898 7.1824L10.5609 6.70779C10.7598 6.91516 10.9152 7.16019 11.018 7.42849L11.1023 7.39334C10.9944 7.11439 10.8319 6.8598 10.6242 6.64451L11.0531 6.21912C11.3142 6.48806 11.5197 6.80584 11.6578 7.15427L11.7422 7.11912C11.5989 6.76003 11.3863 6.4327 11.1164 6.15584L11.591 5.68123C11.9205 6.01769 12.1808 6.41541 12.3574 6.85193L12.4383 6.81677C12.2519 6.35597 11.9745 5.93748 11.6227 5.5863C11.2697 5.23245 10.8488 4.9538 10.3852 4.76716L10.35 4.85154C10.789 5.02733 11.1892 5.28774 11.5277 5.61794L11.0531 6.09255C10.7808 5.82721 10.4596 5.61709 10.1074 5.4738L10.0723 5.55818C10.4139 5.69624 10.7255 5.8992 10.9898 6.15584L10.5609 6.58474C10.3568 6.38679 10.117 6.22933 9.8543 6.12068L9.81914 6.20505C10.0712 6.30855 10.3015 6.45886 10.4977 6.64802L10.0266 7.11912C9.89539 6.99551 9.74293 6.89665 9.57656 6.82732L9.54141 6.91169C9.69711 6.97594 9.84 7.06763 9.96328 7.1824L9.53438 7.6113C9.39867 7.48872 9.22483 7.4167 9.04219 7.4074V6.80271C9.21483 6.80662 9.38526 6.84238 9.54492 6.90818L9.58008 6.82732C9.41061 6.7561 9.22945 6.71677 9.0457 6.7113V6.04333C9.31127 6.04919 9.57347 6.10402 9.81914 6.20505L9.8543 6.12068C9.59726 6.01622 9.32312 5.9602 9.0457 5.95544V5.34373C9.39916 5.34965 9.74845 5.42118 10.0758 5.55466L10.1109 5.47029C9.77225 5.3333 9.41102 5.26057 9.0457 5.25584V4.58787C9.50273 4.59138 9.94219 4.68279 10.3535 4.84802L10.3887 4.76365C9.94701 4.58738 9.47553 4.49786 9 4.49998C8.42369 4.49964 7.85534 4.6345 7.34063 4.89373L7.38281 4.97107C7.87108 4.727 8.40846 4.59717 8.9543 4.59138V5.25935C8.51601 5.26556 8.0847 5.37009 7.69219 5.56521L7.73438 5.64255C8.11391 5.45438 8.53072 5.35348 8.9543 5.34724V5.95544C8.62877 5.96132 8.30844 6.0381 8.01563 6.18044L8.0543 6.25779C8.33523 6.12199 8.64231 6.04882 8.9543 6.04333V6.7113C8.75104 6.71754 8.55122 6.7654 8.36719 6.85193L8.40586 6.92927C8.57799 6.84925 8.76457 6.805 8.9543 6.79919V7.4074C8.85938 7.41091 8.77149 7.43552 8.68711 7.47068L8.7293 7.54802C8.81522 7.51292 8.90719 7.49501 9 7.49529C9.09356 7.4956 9.18614 7.51439 9.27242 7.55059C9.35869 7.58679 9.43696 7.63968 9.50273 7.70623C9.56928 7.772 9.62217 7.85027 9.65837 7.93654C9.69457 8.02282 9.71336 8.1154 9.71367 8.20896C9.71367 8.59919 9.39375 8.92263 9 8.92263C8.90582 8.92298 8.81252 8.9045 8.72558 8.86828C8.63864 8.83206 8.55982 8.77882 8.49375 8.71169C8.42784 8.64563 8.3756 8.56723 8.34001 8.48097C8.30442 8.39471 8.28618 8.30228 8.28633 8.20896C8.28633 8.0156 8.36016 7.8363 8.49727 7.70271C8.56369 7.63639 8.64253 7.58383 8.7293 7.54802L8.68711 7.46716C8.60606 7.50156 8.53123 7.54907 8.46563 7.60779L8.03672 7.1824C8.14414 7.07792 8.26757 6.99128 8.40234 6.92576L8.36719 6.85544C8.22257 6.92301 8.08965 7.0132 7.97344 7.12263L7.49883 6.64451C7.66257 6.48728 7.85002 6.35679 8.0543 6.25779L8.01563 6.18044C7.80353 6.28431 7.60899 6.42073 7.43906 6.58474L7.01016 6.15232C7.22336 5.94455 7.46771 5.77137 7.73438 5.63904L7.69219 5.56169C7.418 5.69792 7.16658 5.87581 6.94688 6.08904L6.47227 5.61443C6.7405 5.35301 7.04767 5.13479 7.38281 4.96755L7.34063 4.89021C6.61817 5.25393 6.03338 5.84243 5.67422 6.56716L5.75156 6.60935C5.92013 6.26603 6.14202 5.95159 6.40899 5.67771L6.88359 6.15232C6.6626 6.38057 6.47979 6.64291 6.34219 6.92927L6.41953 6.97146C6.55332 6.69267 6.73141 6.43741 6.94688 6.2156L7.37578 6.64451C7.20211 6.82485 7.05955 7.03275 6.95391 7.25974L7.03125 7.30193C7.13159 7.08147 7.26826 6.87944 7.43555 6.70427L7.91016 7.17888C7.78862 7.30833 7.69102 7.45831 7.62188 7.62185L7.69922 7.66404C7.76445 7.50803 7.85735 7.36511 7.97344 7.24216L8.40234 7.67107C8.28074 7.80601 8.20881 7.97839 8.19844 8.15974H7.59375C7.5986 7.98948 7.63433 7.82152 7.69922 7.66404L7.62188 7.62185C7.54887 7.79214 7.50833 7.97456 7.50234 8.15974H6.83438C6.84029 7.86331 6.90732 7.57128 7.03125 7.30193L6.95391 7.25974C6.82177 7.54181 6.74993 7.84834 6.74297 8.15974H6.13828C6.145 7.74797 6.24096 7.34256 6.41953 6.97146L6.34219 6.92927C6.15647 7.31328 6.05688 7.73323 6.05039 8.15974H5.38242C5.38862 7.62305 5.51474 7.09453 5.75156 6.61287L5.67422 6.56716C5.42184 7.07639 5.29068 7.6371 5.29102 8.20544C5.29154 8.55891 5.34244 8.91049 5.44219 9.24959L5.53008 9.22849C5.43619 8.90984 5.3865 8.5798 5.38242 8.24763H6.05039C6.05419 8.52409 6.09679 8.79865 6.17695 9.06326L6.26484 9.04216C6.18669 8.78442 6.14527 8.51694 6.1418 8.24763H6.74648C6.75003 8.46724 6.78556 8.68515 6.85195 8.89451L6.93984 8.87341C6.8742 8.67112 6.83866 8.46027 6.83438 8.24763H7.50234C7.50728 8.40481 7.53694 8.56023 7.59023 8.70818L7.67813 8.68709C7.62672 8.54604 7.59824 8.39768 7.59375 8.24763H8.19844C8.20774 8.43027 8.27976 8.60411 8.40234 8.73982L7.97344 9.16873C7.84335 9.02987 7.74288 8.866 7.67813 8.68709L7.59023 8.70818C7.65938 8.90309 7.76833 9.08148 7.91016 9.23201L7.43906 9.7031C7.21188 9.46799 7.04116 9.18426 6.93984 8.87341L6.85195 8.89451C6.95738 9.22146 7.13661 9.51978 7.37578 9.76638L6.94688 10.1953C6.63095 9.87071 6.39712 9.47536 6.26484 9.04216L6.17695 9.06326C6.3125 9.51213 6.5536 9.922 6.88008 10.2586L6.4125 10.7297C5.99983 10.3091 5.69681 9.79361 5.53008 9.22849L5.44219 9.24959C5.61595 9.84613 5.93763 10.3891 6.37734 10.8281C6.67969 11.1304 7.02774 11.373 7.40039 11.5523L7.44609 11.475C7.08485 11.3032 6.75459 11.0728 6.46875 10.7929L6.94336 10.3219C7.18553 10.5566 7.46616 10.748 7.77305 10.8879L7.81524 10.8105C7.51597 10.6744 7.24242 10.4877 7.00664 10.2586L7.43555 9.82966C7.63247 10.0197 7.86241 10.1722 8.11406 10.2797L8.15977 10.2023C7.91446 10.099 7.69038 9.9512 7.49883 9.76638L7.96992 9.29529C8.11974 9.43544 8.29687 9.54315 8.49023 9.61169L8.53594 9.53435C8.34892 9.47013 8.1776 9.3671 8.0332 9.23201L8.46211 8.8031C8.59782 8.92569 8.77166 8.99771 8.9543 9.00701V9.61169C8.81054 9.60764 8.66827 9.58155 8.53242 9.53435L8.49023 9.61521C8.63836 9.66736 8.79379 9.69584 8.95078 9.69958V10.3676C8.67906 10.3628 8.41069 10.3067 8.15977 10.2023L8.11406 10.2797C8.37891 10.3925 8.66296 10.4534 8.95078 10.459V11.0636C8.55888 11.0583 8.1723 10.9721 7.81524 10.8105L7.77305 10.8879C8.1429 11.0575 8.54394 11.1485 8.95078 11.1551V11.823C8.42344 11.816 7.91016 11.6965 7.43906 11.4715L7.39688 11.5523C7.89701 11.7931 8.44495 11.918 9 11.9179C9.59063 11.9179 10.1602 11.7773 10.6699 11.5207L10.6277 11.4363C10.1369 11.6846 9.5957 11.8169 9.0457 11.823V11.1551C9.489 11.1496 9.9253 11.0438 10.3219 10.8457L10.2797 10.7648C9.89646 10.9575 9.47458 11.0608 9.0457 11.0672V10.4625C9.37913 10.4561 9.70696 10.3756 10.0055 10.2269L9.96328 10.1461C9.67815 10.2893 9.36472 10.3674 9.0457 10.3746V9.70662C9.25807 9.7005 9.46666 9.64895 9.65742 9.55544L9.61523 9.47458C9.43746 9.56118 9.24335 9.60911 9.0457 9.61521V9.01052C9.22712 9.00043 9.39959 8.92846 9.53438 8.80662L9.96328 9.23552C9.85989 9.33219 9.74257 9.41278 9.61523 9.47458L9.65742 9.55544C9.79268 9.48896 9.91713 9.40244 10.0266 9.2988L10.4977 9.7699C10.3396 9.92155 10.1594 10.0484 9.96328 10.1461L10.0055 10.2269C10.2095 10.1245 10.3968 9.99176 10.5609 9.83318L10.9898 10.2621C10.7801 10.4648 10.5406 10.6343 10.2797 10.7648L10.3219 10.8457C10.5907 10.7106 10.8373 10.5351 11.0531 10.3254L11.5242 10.7965C11.2597 11.0541 10.9574 11.2698 10.6277 11.4363L10.6699 11.5207C11.0208 11.3427 11.3412 11.1101 11.6191 10.8316C11.9127 10.5389 12.1551 10.199 12.3363 9.82615H12.3398Z" fill="white"/>
<path d="M9.18989 7.34767V7.37931H9.2145V7.35118L9.18989 7.34767ZM9.15474 7.31251H9.18989V7.33712H9.15474V7.31251ZM9.13013 7.31251V7.2879L9.10552 7.28439V7.30548L9.13013 7.31251ZM9.08091 7.29845L9.0563 7.29493V7.27032L9.08442 7.27384L9.08091 7.29845ZM8.86645 7.27032H8.89458V7.29142H8.86645V7.27032ZM8.82427 7.31251V7.29142L8.79966 7.2879V7.309L8.82427 7.31251ZM8.79966 7.34767L8.76802 7.33712L8.77505 7.31603L8.80317 7.32306L8.79966 7.34767ZM8.74692 7.37228L8.74341 7.35118L8.7645 7.34767L8.76802 7.36876L8.74692 7.37228ZM5.80083 9.66798H5.78325V9.70314H5.81489V9.75587H5.83599L5.83247 9.69611L5.80083 9.68556V9.66798ZM6.09614 9.99845L6.08208 10.0231L6.03989 9.9879L6.01177 9.94572L5.99771 9.91056L5.96958 9.84025L6.02583 9.86837L6.04341 9.92111L6.07153 9.9422L6.09614 9.99845ZM6.85552 11.0039L6.82739 10.9582L6.8731 10.9652L6.9188 11.0074L6.93989 11.0567L6.91177 11.0707L6.8977 11.0496L6.86255 11.0391L6.85552 11.0039ZM8.88755 7.59376H8.84536L8.83833 7.50939L8.86294 7.49181V7.45314H8.72935V7.41798L8.74692 7.40392L8.71528 7.39337L8.69419 7.42501L8.68716 7.46017L8.64849 7.4672V7.48478H8.62036V7.534L8.51489 7.62189L8.30747 7.61486C8.29341 7.65001 8.25474 7.61134 8.25474 7.61134C8.24771 7.58673 8.19497 7.61134 8.19497 7.61134C8.19497 7.65001 8.12466 7.59025 8.12466 7.59025L7.99458 7.49532C7.92075 7.42501 7.80825 7.51642 7.80474 7.534C7.80474 7.58673 7.71685 7.54454 7.71685 7.54454C7.71685 7.54454 7.64302 7.52345 7.63247 7.55157C7.61841 7.58322 7.5727 7.57618 7.5727 7.57618L7.56216 7.59025L7.527 7.59728L7.51997 7.62189L7.47427 7.62892L7.58677 7.6254C7.61489 7.62189 7.57622 7.68868 7.55513 7.68517L7.50239 7.68868L7.48481 7.70978H7.4356L7.4145 7.7379H7.34419C7.34419 7.7379 7.302 7.76954 7.30552 7.78009C7.30903 7.79064 7.29849 7.82579 7.28794 7.82579C7.27739 7.82579 7.25278 7.86095 7.25981 7.8715C7.26685 7.88204 7.23872 7.92072 7.23872 7.92072L7.23169 7.95587L7.20708 7.96642V8.07189L7.16489 8.10001V8.14572L7.09458 8.21603L7.10513 8.27931L7.04888 8.33907L7.05591 8.39884L7.02075 8.40939L7.01372 8.43751L6.99966 8.51837H7.03481C7.05591 8.51486 7.05239 8.57111 7.03481 8.57814C7.02075 8.58517 6.97856 8.59923 6.99966 8.61329C7.02427 8.63087 6.94341 8.62736 6.94341 8.60275C6.94341 8.58165 6.8977 8.56407 6.88716 8.56759C6.87661 8.57814 6.85552 8.53595 6.85552 8.53595C6.81685 8.49376 6.69028 8.53947 6.69028 8.53947L6.66919 8.59923C6.627 8.60978 6.60239 8.67657 6.60239 8.67657C6.56724 8.68712 6.54263 8.72931 6.55317 8.73986C6.56372 8.75392 6.5356 8.75743 6.5356 8.75743V8.83829L6.51802 8.86642V8.95782C6.54263 8.95782 6.53911 9.00001 6.53911 9.00001C6.50395 9.00001 6.50747 9.05275 6.50747 9.05275L6.43013 9.07736L6.41606 9.10197L6.31763 9.09845L6.29302 9.12306L6.26489 9.09845H6.07856L6.07153 9.07736L6.03638 9.07032L6.02935 9.02814L5.9731 9.03165L5.96255 9.05626H5.90278C5.9063 9.09845 5.84302 9.1547 5.83247 9.14064C5.82895 9.12306 5.78677 9.08439 5.80435 9.07384L5.87466 9.05978V9.03165H5.73403L5.71997 9.05275H5.6602V9.11603L5.6356 9.12306C5.6145 9.13712 5.6356 9.17579 5.6356 9.17579C5.66372 9.20392 5.6356 9.24611 5.6356 9.24611C5.61099 9.2672 5.65317 9.30939 5.65317 9.30939C5.6813 9.31642 5.6356 9.34103 5.6356 9.34103C5.64263 9.37618 5.66372 9.39025 5.66372 9.39025C5.64263 9.4254 5.67778 9.4465 5.67778 9.4465L5.6813 9.50978L5.70942 9.52736V9.56954L5.72349 9.59415H5.78325L5.77974 9.49923C5.727 9.43947 5.82544 9.4254 5.82896 9.4465C5.82896 9.47111 5.87466 9.48165 5.87466 9.48165C5.88169 9.5379 5.94497 9.57306 5.96255 9.51681C5.98013 9.45704 5.9977 9.4922 6.00825 9.51681C6.0188 9.54493 6.08911 9.61173 6.08911 9.61173H6.14536L6.15239 9.66447C6.21567 9.66095 6.23677 9.66447 6.26138 9.75587C6.26874 9.77975 6.28143 9.80165 6.29848 9.81992C6.31553 9.83818 6.3365 9.85235 6.35981 9.86134H6.41255C6.41255 9.81564 6.46528 9.86837 6.46528 9.89298C6.46528 9.91407 6.56372 9.99845 6.56372 9.99845L6.66919 10.0231L6.7606 10.1004L6.83091 10.0934H6.86255C6.88013 10.0266 6.96802 10.0934 6.97856 10.118C6.9856 10.1426 7.04536 10.1813 7.04888 10.1602C7.05942 10.1426 7.10161 10.1531 7.10864 10.2094C7.11567 10.2656 7.1438 10.2551 7.1438 10.2551H7.35474L7.42856 10.1848H7.61841C7.71685 10.1813 7.65708 10.0442 7.6395 10.0442C7.60435 10.0195 7.65005 9.91056 7.65005 9.91056L7.37583 9.65743C7.31255 9.65743 7.3688 9.56251 7.3688 9.56251C7.41802 9.53439 7.35825 9.48517 7.35825 9.48517C7.36528 9.43946 7.33364 9.38673 7.33364 9.38673C7.26333 9.34103 7.28442 9.25314 7.28442 9.25314V9.19337C7.22817 9.14064 7.30552 9.13009 7.30552 9.13009C7.33364 9.08439 7.28794 9.05275 7.28794 9.05275L7.28442 9.00353L7.22466 8.9965L7.21763 8.8172L7.08052 8.62384C7.05591 8.61681 7.07349 8.57111 7.07349 8.57111C7.10864 8.55001 7.06645 8.50431 7.06645 8.50431L7.06294 8.42345L7.14028 8.4129L7.16138 8.38478H7.19653V8.28634C7.2106 8.23712 7.2563 8.26173 7.2563 8.26173L7.30903 8.26525L7.34067 8.209L7.3477 8.16329H7.30552C7.25981 8.13165 7.28442 8.03322 7.28442 8.03322C7.35474 7.92775 7.4356 7.98751 7.4356 7.98751H7.48833C7.56919 8.03673 7.49536 8.13868 7.49536 8.13868C7.4813 8.15978 7.48833 8.23361 7.48833 8.23361L7.50942 8.35314L7.4602 8.39532C7.41802 8.41642 7.41802 8.47267 7.4602 8.48322C7.49536 8.48322 7.4813 8.55704 7.4356 8.50782C7.3688 8.50782 7.47075 8.57111 7.44263 8.55353C7.51294 8.58868 7.49536 8.5254 7.49536 8.5254L7.58677 8.45509C7.62192 8.42697 7.67817 8.50782 7.67817 8.52189C7.67817 8.53243 7.82935 8.52189 7.82935 8.52189C7.87153 8.55001 7.8856 8.62032 7.8856 8.62032C7.92778 8.56759 8.01216 8.61681 7.94888 8.64493C8.00864 8.68361 8.00864 8.71525 8.00864 8.71525C8.05786 8.70118 8.05786 8.73986 8.05786 8.7504L8.07192 8.69415C8.01567 8.65197 8.14575 8.6379 8.10708 8.71525L8.08599 8.7504L8.12466 8.77853L8.12817 8.86642C8.21255 8.85939 8.18794 8.75743 8.18794 8.75743L8.2231 8.74689C8.2231 8.71173 8.25122 8.73282 8.25122 8.73282C8.22661 8.60275 8.31099 8.58165 8.31099 8.58165C8.3602 8.57111 8.36372 8.46564 8.36372 8.46564C8.32856 8.45157 8.34966 8.39884 8.38833 8.44454C8.42349 8.49025 8.36372 8.35314 8.36372 8.35314L8.3356 8.32853L8.29341 8.3215L8.28989 8.28282H8.21958L8.21255 8.33556L8.18442 8.34259L8.17739 8.32853L8.16685 8.3672H8.09653V8.3215L8.1352 8.31095L8.15278 8.28986L8.16333 8.22657H8.21255L8.27583 8.209C8.27583 8.14572 8.31099 8.15978 8.31099 8.15978L8.3356 8.17736L8.37075 8.20548V8.22657L8.34966 8.24064L8.34614 8.26876L8.35669 8.31095H8.38833C8.39888 8.25118 8.47622 8.25118 8.50083 8.28986L8.52192 8.23712C8.46919 8.209 8.52192 8.16681 8.53599 8.1879C8.55005 8.20548 8.5852 8.13868 8.5852 8.13868C8.5852 8.13868 8.60981 8.17384 8.5852 8.12462C8.55708 8.07892 8.60278 8.05431 8.60278 8.05431C8.59575 8.01212 8.652 8.01915 8.652 8.01915L8.65552 7.95939L8.60278 7.95587C8.59224 8.00861 8.54653 7.9629 8.56763 7.95236C8.58872 7.94181 8.61333 7.9172 8.61333 7.9172V7.88204L8.63794 7.8715V7.83634H8.6977L8.74692 7.81173L8.75747 7.79064H8.81021L8.88403 7.72032L8.877 7.68868C8.8313 7.68868 8.877 7.65353 8.877 7.65353L8.88403 7.59728L8.88755 7.59376Z" fill="white"/>
<path d="M7.37587 8.34608L7.30907 8.33905L7.31259 8.36718H7.33368C7.36181 8.41991 7.33368 8.54647 7.33368 8.54647C7.33368 8.54647 7.2915 8.54999 7.28446 8.52889C7.27743 8.50428 7.25634 8.57811 7.27392 8.58866C7.28798 8.59921 7.34071 8.58866 7.34423 8.63085C7.34423 8.67303 7.37939 8.60624 7.37939 8.60624V8.34608H7.37587Z" fill="white"/>
<path d="M7.39336 8.77147L7.40039 8.73632L7.37227 8.72577L7.37578 8.66952L7.40039 8.666V8.63788L7.34766 8.67655L7.3125 8.65546V8.74686L7.36875 8.82421L7.39336 8.77147ZM7.40742 8.86991L7.3793 8.87343V8.90507H7.40742V8.86991ZM7.37227 9.06327L7.34063 9.06678V9.09491L7.37578 9.09139L7.37227 9.06327ZM7.41797 8.97186C7.425 8.97186 7.43203 8.96835 7.43203 8.9578C7.43203 8.94725 7.425 8.94022 7.41797 8.94022C7.41094 8.94022 7.40039 8.94725 7.40039 8.9578C7.40039 8.96483 7.40742 8.97186 7.41797 8.97186Z" fill="white"/>
<path d="M7.44263 9.05627C7.45234 9.05627 7.46021 9.0484 7.46021 9.0387C7.46021 9.02899 7.45234 9.02112 7.44263 9.02112C7.43292 9.02112 7.42505 9.02899 7.42505 9.0387C7.42505 9.0484 7.43292 9.05627 7.44263 9.05627Z" fill="white"/>
<path d="M7.44263 8.6203C7.45234 8.6203 7.46021 8.61243 7.46021 8.60272C7.46021 8.59301 7.45234 8.58514 7.44263 8.58514C7.43292 8.58514 7.42505 8.59301 7.42505 8.60272C7.42505 8.61243 7.43292 8.6203 7.44263 8.6203Z" fill="white"/>
<path d="M8.49019 8.48673L8.50073 8.45157L8.52183 8.43751V8.40235L8.5394 8.37423L8.56401 8.3461L8.57104 8.31446L8.6062 8.29337L8.6519 8.28634L8.66948 8.26173L8.68003 8.21602V8.18087L8.69761 8.15977L8.74331 8.1422V8.07188H8.7187V8.04376L8.67651 8.04024L8.66597 8.05782H8.64839L8.64487 8.08946H8.66597L8.66948 8.11055L8.65542 8.12462L8.64839 8.14571L8.62026 8.15274L8.54995 8.21602V8.24766L8.52886 8.27579L8.50776 8.33204H8.4269L8.41284 8.40235L8.42339 8.4586L8.49019 8.48673ZM8.82065 8.3004V8.24766L8.81362 8.19845L8.75737 8.17032L8.71519 8.20899L8.70815 8.26173V8.29688L8.673 8.30391L8.66245 8.40938L8.63433 8.41993V8.45509L8.59917 8.46915L8.55347 8.4797L8.54644 8.52891L8.51831 8.54649L8.50425 8.5922L8.48315 8.7047C8.48315 8.7047 8.51831 8.76798 8.53589 8.73985C8.54096 8.7307 8.54801 8.72279 8.55652 8.71671C8.56504 8.71063 8.5748 8.70652 8.58511 8.7047L8.59565 8.67657L8.69761 8.68009C8.70464 8.6379 8.75386 8.65548 8.75386 8.67305C8.75386 8.69063 8.78901 8.67657 8.78901 8.67657L8.81714 8.63438H8.85933V8.58868L8.88042 8.57813V8.50782C8.94019 8.49024 8.93315 8.43399 8.93315 8.43399L8.94722 8.41641L8.94019 8.38829C8.90854 8.37774 8.92612 8.35313 8.9437 8.35665C8.96128 8.3672 8.91909 8.32149 8.91909 8.32149C8.89448 8.34259 8.8769 8.3004 8.8769 8.3004H8.82065ZM8.88042 8.75743C8.8769 8.80665 8.82065 8.82071 8.82065 8.82071L8.77847 8.81016L8.75737 8.78907L8.75386 8.73634H8.78901L8.79253 8.75743H8.88042ZM9.08081 8.51837C9.09136 8.55352 9.08784 8.46563 9.10542 8.46915C9.11948 8.46915 9.10542 8.41641 9.10542 8.41641L9.04214 8.46563C9.0773 8.46563 9.07729 8.50079 9.08081 8.51837ZM9.2812 8.31798C9.29526 8.35313 9.29175 8.40235 9.348 8.44102C9.36558 8.45509 9.33745 8.47618 9.31636 8.46915C9.29878 8.45509 9.24604 8.37423 9.24604 8.37423V8.32501C9.25659 8.29337 9.27417 8.30391 9.2812 8.32149V8.31798ZM9.33042 9.46407L9.30581 9.45352L9.2812 9.47462L9.29175 9.48516L9.3023 9.50274L9.33042 9.46407ZM9.18979 9.41134V9.46056ZM9.75933 9.33751L9.74526 9.31993L9.71714 9.33751L9.72769 9.3586L9.75933 9.33751ZM10.8105 10.1496L10.8457 10.1637V10.2305C10.8914 10.2762 11.039 10.2375 11.039 10.227L11.032 10.0863L11.0109 10.0652V9.97032C11.025 9.9211 10.9406 9.85079 10.93 9.86485C10.923 9.87891 10.8738 9.86837 10.8738 9.88243C10.8738 9.90001 10.8421 9.97384 10.8597 10.002C10.8738 10.0266 10.8492 10.0266 10.8421 10.0547C10.8421 10.0828 10.8035 10.125 10.807 10.1496H10.8105ZM10.7261 9.99845C10.7191 10.0266 10.6945 10.0441 10.6804 10.0336C10.6628 10.0195 10.698 10.0512 10.705 10.0688C10.707 10.0717 10.7096 10.074 10.7126 10.0757C10.7157 10.0773 10.7191 10.0782 10.7226 10.0782C10.7261 10.0782 10.7295 10.0773 10.7326 10.0757C10.7356 10.074 10.7383 10.0717 10.7402 10.0688C10.7507 10.0512 10.7472 10.016 10.7542 9.99845C10.7613 9.9879 10.7332 9.98438 10.7261 9.99845ZM10.5539 9.30235H10.5785V9.37266H10.5539V9.30235ZM10.9406 8.5711C10.923 8.55001 11.0144 8.51134 11.032 8.55704C11.046 8.60274 11.032 8.5922 11.0144 8.5922C11.0003 8.58516 10.9617 8.59923 10.9441 8.5711H10.9406ZM11.0179 8.08595L11.0601 8.09298V8.06837L11.025 8.06134L11.0179 8.08595ZM10.9195 8.13516L10.9406 8.12462L10.9335 8.10704L10.9265 8.09649L10.916 8.10001L10.8878 8.11759L10.8632 8.10001L10.8527 8.1211L10.8843 8.13868L10.8878 8.1422H10.8949L10.916 8.12813L10.9195 8.13516ZM11.0601 7.20352H11.0003C11.0003 7.20352 11.0179 7.21055 10.9652 7.16134C10.9125 7.11212 10.8808 7.17188 10.8808 7.17188L10.821 7.18243V7.2422L10.7929 7.25274V7.2879H10.8351C10.8351 7.2879 10.8351 7.3336 10.8492 7.31251C10.8632 7.29141 10.9546 7.31602 10.9441 7.36173C10.9441 7.38282 11.039 7.43204 11.0285 7.49181C11.0742 7.49884 11.0636 7.54805 11.0636 7.54805L11.1269 7.5586L11.148 7.51993H11.1656V7.49884L11.1234 7.48829L11.1164 7.36876L11.0917 7.34766L11.0988 7.31954L11.0671 7.30548L11.0847 7.25626L11.0566 7.20352H11.0601ZM11.2218 7.59024H11.1902L11.1234 7.59727L11.0882 7.66759C11.0882 7.66759 11.1058 7.68165 11.1234 7.70977C11.1339 7.73438 11.1445 7.89259 11.0988 7.92071C11.0531 7.94532 11.0988 7.92774 11.0988 7.92774L11.0953 8.01212C11.1058 8.04727 11.1234 8.03321 11.1339 8.01212C11.148 7.99454 11.1585 7.99102 11.1726 7.96993C11.1922 7.9476 11.2066 7.92118 11.2148 7.89259C11.2148 7.86446 11.2359 7.82227 11.2253 7.81173C11.2148 7.80118 11.2359 7.74845 11.2359 7.74845C11.2359 7.74845 11.25 7.71329 11.2359 7.68516C11.2218 7.65704 11.2394 7.62188 11.25 7.60782L11.2218 7.59024ZM11.2675 7.74493V7.7168H11.2921V7.75196L11.2675 7.74493ZM11.2675 7.8504L11.2464 7.83985L11.257 7.81876L11.2781 7.8293L11.2675 7.8504ZM11.2324 7.54805L11.2183 7.5129C11.2183 7.5129 11.2183 7.48477 11.2253 7.47071C11.2324 7.45313 11.2113 7.43907 11.1972 7.43555C11.1867 7.43204 11.1902 7.4004 11.1867 7.38634C11.1867 7.37227 11.1585 7.35821 11.1585 7.35821L11.1515 7.29141C11.1515 7.28087 11.1164 7.26329 11.1269 7.25626L11.1585 7.2211C11.1691 7.21055 11.148 7.15782 11.1656 7.16837C11.1832 7.18243 11.1832 7.20352 11.1902 7.21407C11.1972 7.23165 11.1902 7.28438 11.2078 7.29493C11.2253 7.30548 11.2042 7.34415 11.2324 7.34415C11.264 7.34415 11.2429 7.41446 11.2429 7.41446C11.2429 7.41446 11.2359 7.47071 11.2535 7.47423C11.2746 7.47423 11.264 7.56915 11.264 7.56915L11.2324 7.54805ZM10.9898 6.93282C11.0003 6.9504 11.025 6.96095 11.025 6.97501C11.025 6.99259 11.0144 7.00313 11.039 7.00665C11.0601 7.01016 11.0742 7.00313 11.0847 7.02071C11.092 7.04239 11.092 7.06583 11.0847 7.08751C11.0847 7.10157 11.0917 7.12266 11.1093 7.12266C11.1269 7.12266 11.1304 7.1297 11.1304 7.14024C11.1304 7.15079 11.155 7.09805 11.155 7.09805C11.1339 7.08399 11.1199 7.04884 11.1199 7.04884L11.1023 6.98907C11.1023 6.97852 11.0777 6.97149 11.0671 6.96798C11.0531 6.96798 11.032 6.93282 11.032 6.93282H10.9898ZM11.025 6.89766C11.0158 6.88459 11.0038 6.87377 10.9898 6.86602C10.9757 6.85899 10.9652 6.85196 10.9476 6.85196C10.9436 6.85177 10.9396 6.85059 10.9361 6.84851C10.9326 6.84643 10.9297 6.84352 10.9276 6.84004C10.9255 6.83656 10.9244 6.83262 10.9242 6.82856C10.924 6.82451 10.9248 6.82047 10.9265 6.8168C10.9335 6.79923 10.916 6.78868 10.916 6.77462C10.916 6.76055 10.9265 6.76055 10.9441 6.77462C10.9652 6.78165 10.9617 6.78516 10.9757 6.80626C10.9898 6.82384 10.9968 6.84141 11.0109 6.84141C11.0285 6.83438 11.039 6.87657 11.0531 6.86251C11.0671 6.85196 11.0636 6.89063 11.0636 6.89063L11.0285 6.90118L11.025 6.89766ZM10.589 7.33009C10.6101 7.35118 10.4765 7.34415 10.4765 7.33009C10.4765 7.31602 10.4906 7.25977 10.5222 7.27032C10.5574 7.28438 10.5574 7.20352 10.5574 7.20352C10.5574 7.20352 10.5292 7.20704 10.5574 7.19298C10.582 7.17891 10.5574 7.15782 10.5433 7.14376L10.5222 7.11212H10.575C10.596 7.09806 10.6031 7.02423 10.6031 7.02423C10.6488 7.04181 10.6734 7.01016 10.6734 7.01016C10.6734 7.01016 10.6804 7.03477 10.6945 7.05235C10.7085 7.06993 10.6593 7.08048 10.6769 7.08751C10.6945 7.10157 10.7015 7.13673 10.6945 7.14727C10.6875 7.15782 10.6453 7.14727 10.6453 7.13673C10.6453 7.11915 10.6312 7.1543 10.6453 7.17188C10.6593 7.19298 10.6277 7.2211 10.6207 7.2211C10.6136 7.2211 10.5644 7.22813 10.6031 7.24923C10.6453 7.27384 10.691 7.25977 10.691 7.25977C10.691 7.25977 10.7261 7.25977 10.7367 7.27735C10.7472 7.29493 10.7332 7.29845 10.7121 7.29845L10.6066 7.29141C10.6066 7.29141 10.5785 7.31954 10.589 7.32657V7.33009ZM10.35 7.36524C10.3675 7.35821 10.4132 7.3547 10.4203 7.36524C10.4273 7.3793 10.3957 7.39337 10.3957 7.39337L10.35 7.4004C10.3359 7.38282 10.3324 7.36524 10.35 7.36524ZM10.8316 7.04532C10.8632 7.02774 10.9265 7.02774 10.923 7.00665C10.9195 6.98204 10.9582 6.97501 10.9582 6.97501L10.9722 7.02071L11.0074 7.04532V7.08751C11.0074 7.08751 11.0214 7.08048 10.9792 7.08751C10.9371 7.10157 10.9652 7.12266 10.9652 7.12266H10.8738L10.8632 7.08751L10.8316 7.04532ZM10.6875 6.8379C10.7085 6.8379 10.6804 6.92579 10.7402 6.91876C10.8 6.91173 10.7402 6.94688 10.7894 6.9504C10.8316 6.9504 10.8246 6.91524 10.8351 6.88712C10.8527 6.86251 10.8457 6.84845 10.8175 6.8379C10.7929 6.83087 10.7929 6.83087 10.7824 6.80274C10.7753 6.7711 10.7472 6.76407 10.7472 6.76407L10.7367 6.71837L10.6875 6.75001L10.6382 6.81329C10.6382 6.86251 10.6628 6.8379 10.6875 6.8379ZM10.7859 7.16134L10.7964 7.13673L10.8175 7.14727L10.807 7.17188L10.7859 7.16134ZM10.7472 7.12618H10.7683V7.15079H10.7472V7.12618ZM10.7648 6.61993L10.7683 6.65509H10.7472L10.7437 6.61993H10.7648ZM10.7015 6.97149H10.7261V6.99259H10.7015V6.97149ZM10.6417 6.97149V6.9504L10.6769 6.94688L10.6804 6.96798L10.6417 6.97149ZM10.3359 7.33712L10.3148 7.32657L10.3253 7.30196L10.3464 7.30899L10.3359 7.33712ZM10.2164 7.2668V7.24571L10.2515 7.2422V7.26329L10.2164 7.2668ZM9.48511 7.2668V7.2879L9.56948 7.28438V7.25977L9.48511 7.2668ZM9.43237 7.29493L9.42534 7.25977L9.44644 7.25626L9.45347 7.29141L9.43237 7.29493ZM9.41479 7.31602L9.40776 7.29493H9.41831L9.42534 7.31251L9.41479 7.31602ZM9.60112 7.25274V7.28087H9.63628C9.63628 7.28087 9.65737 7.29845 9.65737 7.30899C9.65737 7.31954 9.6855 7.3336 9.69956 7.3336C9.71362 7.3336 9.75581 7.30196 9.75581 7.30196C9.75581 7.30196 9.77339 7.24923 9.75581 7.25274C9.74526 7.25626 9.71362 7.28087 9.71011 7.25626C9.71011 7.23516 9.66089 7.24571 9.66089 7.24571L9.60112 7.25274ZM9.78745 7.21056C9.78745 7.22462 9.78042 7.23868 9.80503 7.2422C9.82612 7.2422 9.86831 7.22813 9.87183 7.24923C9.87183 7.27384 9.87183 7.28438 9.90698 7.29845C9.9292 7.30791 9.95314 7.3127 9.97729 7.31251L10.0476 7.30548C10.0476 7.30548 10.1003 7.31602 10.1109 7.32657C10.1531 7.36876 10.1812 7.3793 10.1882 7.36173C10.2023 7.34063 10.1882 7.29845 10.1812 7.28438C10.1812 7.27032 10.125 7.19649 10.1074 7.21407C10.0898 7.22813 10.0863 7.21407 10.0511 7.22462C10.016 7.23516 9.94565 7.22462 9.94565 7.21056C9.93862 7.19649 9.88589 7.18946 9.88589 7.1754C9.88589 7.15782 9.85073 7.14024 9.85073 7.16134C9.85776 7.18595 9.82612 7.19649 9.81558 7.18946C9.81206 7.18243 9.78745 7.21056 9.78745 7.21056ZM10.6488 6.7254L10.6769 6.64102C10.6382 6.63399 10.6453 6.5918 10.6453 6.5918C10.6453 6.55665 10.589 6.52149 10.5714 6.53204C10.5539 6.54259 10.5609 6.45118 10.5609 6.45118C10.5609 6.45118 10.596 6.43009 10.6101 6.44063C10.6242 6.45118 10.48 6.25079 10.4519 6.26837C10.4203 6.28946 10.3535 6.25079 10.357 6.21563C10.3605 6.18048 10.2234 6.06798 10.2234 6.06798C10.2234 6.06798 10.1777 6.03985 10.1707 6.06095C10.1636 6.08204 10.1496 6.0961 10.1707 6.11016C10.1917 6.12071 10.1882 6.09259 10.2164 6.1172C10.241 6.14532 10.2902 6.17696 10.2726 6.20157C10.2515 6.22266 10.2304 6.23321 10.2304 6.23321L10.2585 6.26134H10.2972L10.3042 6.32813C10.3042 6.32813 10.35 6.34923 10.3605 6.37735C10.3746 6.40196 10.3746 6.41954 10.3605 6.4336C10.35 6.44766 10.3253 6.47579 10.3324 6.50391C10.3324 6.52852 10.3675 6.53907 10.3675 6.53907L10.3957 6.54259L10.4167 6.55313V6.60235C10.4484 6.59532 10.4976 6.63751 10.4941 6.66563C10.4906 6.69024 10.5011 6.67618 10.5363 6.70079C10.5714 6.72891 10.5644 6.73595 10.589 6.75352C10.6171 6.7711 10.6382 6.76056 10.6488 6.7254Z" fill="white"/>
<path d="M10.0335 6.20862C10.03 6.19456 10.0194 6.13831 10.044 6.14534C10.0651 6.14534 10.0511 6.14534 10.0792 6.15588C10.1038 6.16643 10.1073 6.13831 10.1073 6.13831H10.1495L10.2022 6.18049L10.1917 6.21565H10.1565C10.1354 6.18752 10.1003 6.19807 10.1073 6.2262C10.1144 6.25081 10.0897 6.30002 10.0722 6.30354C10.0581 6.30706 10.0089 6.30706 10.0124 6.28596L10.0335 6.20862ZM10.0019 6.10666V6.07502C10.0019 6.07502 10.0019 6.0469 9.98076 6.0469C9.95967 6.0469 9.92803 6.02229 9.93506 6.00823C9.94209 5.99416 9.87178 5.97659 9.87178 5.97659C9.87178 5.97659 9.8085 5.91682 9.82959 5.92385C9.8542 5.93088 9.84014 5.89924 9.84014 5.89924C9.84014 5.89924 9.79795 5.90627 9.78389 5.89924C9.77334 5.89924 9.77686 5.86409 9.77686 5.86409C9.77686 5.86409 9.73115 5.85354 9.73115 5.86409C9.73115 5.87463 9.74873 5.87463 9.75576 5.89924C9.76279 5.92034 9.75576 5.95901 9.79092 5.96956C9.82607 5.97307 9.8331 5.9801 9.83662 5.99768C9.84014 6.01174 9.88232 6.01526 9.88232 6.01526L9.91396 6.02932L10.0019 6.10666ZM9.58701 5.68831L9.55889 5.68127V5.71643H9.59756L9.58701 5.68831ZM9.58701 5.56174C9.54834 5.5301 9.63975 5.58284 9.63975 5.58284C9.66787 5.58284 9.68896 5.60745 9.68896 5.61799C9.68896 5.62854 9.72764 5.62502 9.72764 5.62502L9.73467 5.5969L9.70303 5.56174L9.67842 5.54065C9.67842 5.54065 9.63623 5.54065 9.63623 5.52659C9.63623 5.51604 9.60107 5.57229 9.58701 5.56174ZM10.2761 5.58284C10.2655 5.61799 10.2585 5.6637 10.2409 5.6637C10.2233 5.6637 10.2304 5.71291 10.2304 5.71291H10.2937C10.3077 5.71995 10.3077 5.75862 10.3077 5.75862C10.364 5.7551 10.3886 5.82893 10.378 5.85002C10.3745 5.8676 10.4026 5.8676 10.4026 5.8676C10.4026 5.8676 10.4026 5.92737 10.3956 5.94495C10.3886 5.95901 10.4448 5.96956 10.4589 5.99416C10.4729 6.01526 10.4519 6.0926 10.4413 6.09612C10.4272 6.09612 10.4694 6.11018 10.4659 6.13127C10.4624 6.14885 10.4765 6.13127 10.48 6.1594L10.494 6.25432L10.5433 6.25784C10.5538 6.20862 10.6487 6.20862 10.6628 6.21213C10.7296 6.23674 10.7753 6.33518 10.7753 6.35627C10.7753 6.38088 10.7366 6.3844 10.7366 6.3844L10.7437 6.49338C10.8069 6.51448 10.8597 6.60588 10.8491 6.61995C10.8421 6.63401 10.8948 6.63049 10.8948 6.63049C10.9019 6.56018 10.9651 6.58479 10.9722 6.6094C10.9722 6.63049 10.9862 6.67971 10.9862 6.67971L11.0038 6.71487L11.0319 6.73948H11.0706L11.0812 6.76057L11.1304 6.7676C11.1304 6.7676 11.1726 6.81331 11.1761 6.82385C11.1796 6.8344 11.2358 6.83088 11.2499 6.8344C11.2675 6.83791 11.2886 6.85198 11.2921 6.86956C11.2956 6.89065 11.3202 6.91877 11.3202 6.91877C11.3202 6.91877 11.3624 6.92932 11.3659 6.9469L11.3905 6.99612L11.4257 7.02424L11.4292 7.0594L11.4714 7.06291L11.4819 7.10862H11.5522L11.5874 7.08049C11.6366 7.05237 11.6718 7.01721 11.6753 7.00315C11.6753 6.98909 11.6858 6.93284 11.721 6.94338C11.7597 6.95393 11.7351 6.85901 11.7351 6.85901C11.7351 6.85901 11.6823 6.82385 11.6858 6.80276C11.6858 6.78166 11.6331 6.74651 11.6366 6.73245C11.6401 6.71487 11.5874 6.68323 11.5909 6.66916C11.5944 6.6551 11.5663 6.61292 11.5663 6.61292L11.5101 6.56018L11.503 6.52502L11.4573 6.52151L11.3659 6.41252L11.3694 6.37737H11.3448V6.33518L11.3202 6.32112L11.278 6.3176L11.1937 6.2262L11.1866 6.18401H11.1479L11.155 6.10315C11.1796 6.06799 11.1655 6.00471 11.1655 6.00471C11.1655 6.00471 11.1128 6.03284 11.0882 6.01877C11.0601 6.00823 11.0987 5.98362 11.0987 5.98362V5.94846L11.0741 5.92737C11.0741 5.92737 11.0108 5.93792 11.0073 5.92737L10.9933 5.86409L10.9897 5.80081L10.9616 5.78674V5.76565H10.9194V5.72346L10.8948 5.71643L10.8737 5.70588L10.8702 5.66018L10.7858 5.65666L10.7612 5.61799L10.7296 5.57229L10.6382 5.56526L10.6136 5.54065L10.5784 5.53362L10.5503 5.52307L10.5397 5.54065L10.4694 5.54416L10.4659 5.56877C10.4308 5.58635 10.2796 5.56877 10.2761 5.58284ZM10.6663 5.4844C10.6628 5.45627 10.7437 5.42815 10.7612 5.44924C10.7788 5.47385 10.8315 5.47737 10.8386 5.58987C10.8421 5.63206 10.7718 5.54768 10.7718 5.54768L10.7155 5.5301C10.6874 5.52307 10.6698 5.50198 10.6663 5.4844ZM9.57295 5.5301L9.55186 5.52307L9.56592 5.48792L9.58701 5.49846L9.57295 5.5301ZM9.37607 5.15745L9.33037 5.10823V5.06604L9.31279 5.05198L9.29873 4.99924L9.24951 4.98518L9.20029 5.00276L9.15107 5.03791L9.09131 5.04495L9.06318 5.0801L9.18272 5.09065L9.20381 5.12581L9.2917 5.13635L9.34795 5.1926C9.39717 5.20666 9.40772 5.18557 9.37607 5.15745ZM9.36904 4.97112C9.36201 4.93596 9.31279 5.01331 9.36201 5.02737C9.41123 5.04495 9.46045 5.02737 9.46045 5.02737L9.471 5.00627L9.65732 5.00979L9.68193 4.97463C9.68193 4.97463 9.72412 4.95706 9.74522 4.96409C9.76279 4.97112 9.74522 4.91135 9.72764 4.91838C9.71006 4.92541 9.67139 4.9219 9.67139 4.9219H9.60459C9.60459 4.89729 9.54131 4.90784 9.53779 4.9219C9.53779 4.93596 9.51318 4.94299 9.51318 4.94299L9.42529 4.95002C9.41826 4.97112 9.37256 4.98518 9.36904 4.97112ZM8.9999 5.61096C9.05615 5.63206 9.07725 5.61799 9.08076 5.60041C9.08428 5.58635 9.08779 5.58284 9.1124 5.57932C9.1335 5.57581 9.10889 5.5301 9.08779 5.53362C9.06318 5.53713 9.04209 5.52659 9.03857 5.50549C9.03506 5.48792 8.99639 5.4387 8.99287 5.47737C8.98936 5.51252 8.96475 5.51252 8.96826 5.54065C8.97529 5.56877 8.98584 5.61096 8.9999 5.61096ZM8.571 5.65666C8.56748 5.6426 8.64482 5.63909 8.65537 5.64963C8.66592 5.6637 8.65889 5.68479 8.69053 5.68479C8.72217 5.68479 8.71162 5.70588 8.70811 5.71643C8.70459 5.72698 8.66592 5.72346 8.6624 5.71291C8.6624 5.69885 8.60264 5.69534 8.60264 5.69534C8.60264 5.69534 8.57451 5.67424 8.56748 5.65666H8.571ZM9.81201 4.86565L9.79443 4.84456L9.77686 4.86213L9.80498 4.89026L9.81201 4.89729L9.81904 4.89026L9.8542 4.85862L9.84365 4.84104L9.81201 4.86565ZM9.61162 4.76018L9.60107 4.77776L9.6292 4.79534L9.63623 4.79885H9.64326L9.68193 4.77073L9.67139 4.74963L9.63623 4.77424L9.61162 4.76018ZM9.50967 5.5512H9.47451L9.471 5.57229H9.50264L9.52725 5.61096L9.54482 5.60041L9.5167 5.55823V5.55471L9.50967 5.5512ZM8.2792 6.61292V6.6551H8.33896C8.36006 6.6551 8.31787 6.62698 8.31787 6.62698C8.31787 6.62698 8.27568 6.63049 8.2792 6.61292ZM8.34951 6.61292L8.36357 6.59534L8.38467 6.61292L8.37061 6.63049L8.34951 6.61292ZM7.66748 5.90276L7.68506 5.88518L7.70615 5.90979L7.69209 5.92737L7.66748 5.90276ZM8.71865 10.7684L8.70811 10.7895L8.7292 10.8035L8.72217 10.8106L8.73975 10.8246L8.75732 10.8071L8.76787 10.7965L8.75381 10.7895L8.71865 10.7684ZM8.45146 10.4977L8.42686 10.5153L8.41631 10.5258L8.43037 10.5364L8.45498 10.5539L8.46904 10.5364L8.45498 10.5258L8.46553 10.5153L8.45146 10.4977ZM11.2464 9.79456C11.2429 9.77698 11.2183 9.76643 11.2183 9.76643L11.2112 9.78752L11.2183 9.79104V9.81916L11.2323 9.83323C11.2429 9.81917 11.2499 9.80862 11.2464 9.79807V9.79456ZM11.2464 9.72073V9.68557L11.2815 9.6926V9.72424L11.2464 9.72073ZM12.1464 9.42893C12.164 9.41838 12.1815 9.39729 12.1815 9.43948C12.1815 9.48518 12.1604 9.47112 12.1464 9.48518C12.1323 9.49924 12.1253 9.44299 12.1464 9.42542V9.42893ZM12.3362 9.26721V9.26018C12.3363 9.253 12.3351 9.24587 12.3327 9.23909L12.3116 9.24612V9.2637C12.3151 9.27073 12.3151 9.27776 12.3222 9.28127L12.3362 9.28479V9.2637V9.26721ZM12.287 9.28479L12.3011 9.33049L12.3222 9.32346C12.3167 9.30849 12.312 9.29323 12.3081 9.27776L12.287 9.28479ZM12.2062 9.37268H12.1851C12.1851 9.39026 12.1851 9.41135 12.2026 9.41487L12.2097 9.39377L12.2062 9.3762V9.37268ZM12.1077 8.92268C12.1076 8.9191 12.1066 8.9156 12.1047 8.91252C12.1029 8.90945 12.1003 8.90689 12.0972 8.9051C12.0796 8.89807 12.0515 8.90862 12.0374 8.91916L12.0479 8.93674C12.0655 8.92971 12.0831 8.92268 12.0866 8.9262L12.1077 8.92268ZM11.0706 7.70979C11.0565 7.72385 11.0249 7.73088 11.0249 7.73088L11.0108 7.77307L10.9933 7.78713V7.82581C10.9897 7.85393 10.9581 7.86799 10.9581 7.86799L10.9405 7.88557C10.9405 7.88557 10.8526 7.8926 10.8386 7.88557C10.8034 7.87151 10.828 7.82581 10.8526 7.82932C10.8737 7.83284 10.8491 7.76604 10.8491 7.76604L10.8772 7.76252C10.8772 7.76252 10.8808 7.69221 10.8913 7.69221C10.9019 7.69221 10.8913 7.67112 10.8737 7.65706C10.8597 7.64651 10.8386 7.61135 10.8245 7.61487H10.7507L10.7401 7.63596L10.6979 7.64299C10.6979 7.64299 10.7015 7.67463 10.6944 7.68166C10.6733 7.70979 10.5854 7.76604 10.6241 7.67112L10.6347 7.65002V7.61487L10.5644 7.61135C10.5644 7.61135 10.5327 7.59729 10.5327 7.58323V7.54807L10.4519 7.4637L10.3569 7.44963L10.3499 7.43206L10.2937 7.42502C10.2233 7.38987 10.1671 7.42151 10.1776 7.47776C10.1882 7.53401 10.2093 7.55862 10.1706 7.55862C10.1354 7.55862 10.1249 7.52346 10.1249 7.52346C10.1249 7.52346 10.0968 7.51643 10.0968 7.53049C10.0968 7.54456 10.0862 7.5762 10.0968 7.59026C10.1073 7.60784 10.0827 7.62893 10.0687 7.61838C10.0581 7.60784 10.03 7.57268 10.0335 7.56213C10.044 7.54807 9.98428 7.47776 10.044 7.46721C10.1038 7.45315 10.0405 7.42151 10.0616 7.41448L10.0933 7.3969H10.1214L10.1425 7.38284L10.0933 7.37581L10.0616 7.37229L10.0054 7.36877C9.97456 7.38735 9.951 7.41587 9.93857 7.44963C9.91045 7.5094 9.83662 7.42854 9.86475 7.3969C9.88936 7.36877 9.78037 7.3969 9.76279 7.41096C9.74522 7.42502 9.68896 7.41799 9.68896 7.41799C9.67842 7.45315 9.62568 7.41448 9.63975 7.38987C9.65381 7.36877 9.65381 7.35471 9.65381 7.35471L9.63623 7.34768L9.61514 7.38987C9.5624 7.38987 9.54482 7.42151 9.55889 7.43909C9.56943 7.46018 9.54131 7.43909 9.53428 7.4637C9.52725 7.48831 9.53779 7.48831 9.5624 7.49885C9.5835 7.51291 9.54834 7.51291 9.5624 7.53049C9.57998 7.54807 9.62568 7.53049 9.59756 7.55862C9.57295 7.58323 9.52021 7.57268 9.52021 7.57268C9.5167 7.60784 9.44639 7.59729 9.43936 7.58674C9.41756 7.56056 9.39529 7.53477 9.37256 7.5094L9.30225 7.50588C9.29521 7.44963 9.3374 7.47776 9.35146 7.43557C9.36553 7.39338 9.37256 7.32659 9.37256 7.32659C9.37256 7.32659 9.31279 7.32307 9.30928 7.34065C9.30928 7.35823 9.27061 7.37229 9.27061 7.37229C9.27061 7.37229 9.23896 7.38284 9.24951 7.3969C9.26357 7.41448 9.22842 7.42151 9.22842 7.42151C9.22842 7.42151 9.23545 7.44612 9.2249 7.45667C9.19326 7.48479 9.11943 7.45666 9.10889 7.44612L9.06318 7.42854L9.01748 7.3969L8.96475 7.42151L8.95068 7.43557H8.89443V7.48127L8.99287 7.49182L8.9999 7.58674L8.95771 7.57268H8.93311L8.92256 7.54807H8.89795V7.62893L8.92256 7.64651L8.94014 7.6676H8.97529L8.98584 7.71682H9.07725L9.09131 7.73792L9.14756 7.74143L9.25303 7.85393L9.246 7.88909L9.22842 7.89963C9.23545 7.92424 9.1792 7.91018 9.1792 7.91018V7.93127L9.20732 7.93479L9.23193 7.95237L9.26709 7.88557C9.30928 7.86096 9.33037 7.89963 9.33389 7.92073C9.33389 7.94534 9.31279 7.94182 9.31279 7.94182V7.99456L9.3374 8.00159C9.37256 8.04729 9.32334 8.0719 9.32334 8.0719L9.30928 8.11057C9.29873 8.14573 9.25654 8.1387 9.25654 8.1387L9.24248 8.15979L9.19678 8.17034L9.28818 8.1844C9.29522 8.15276 9.31631 8.14573 9.33037 8.15979C9.34092 8.17385 9.34092 8.20198 9.34092 8.20198L9.36201 8.20549V8.24768L9.38311 8.25471V8.37776L9.40771 8.40588C9.45342 8.38831 9.45342 8.41995 9.42881 8.43401C9.4042 8.44807 9.42178 8.51838 9.42178 8.51838L9.4042 8.53596V8.5676L9.38311 8.58167V8.62385C9.34443 8.60276 9.29873 8.61331 9.28818 8.62385C9.25303 8.59924 9.18272 8.60979 9.18272 8.62737C9.20732 8.65901 9.15811 8.66252 9.15811 8.66252L9.12998 8.69768C9.15107 8.73284 9.1124 8.73635 9.1124 8.73635V8.80666L9.0667 8.85237L9.07021 8.95081C9.07021 8.97542 9.12646 8.97893 9.14053 8.96487C9.15107 8.95081 9.19326 8.99651 9.19326 8.99651H9.22842L9.23545 8.9262L9.21436 8.91565V8.80666L9.24951 8.76448C9.29521 8.7469 9.28115 8.86291 9.28115 8.87346C9.28115 8.91565 9.30225 8.91213 9.32334 8.9051C9.3585 8.88752 9.33037 8.94729 9.29873 8.94026C9.27061 8.94026 9.28818 8.97893 9.28818 8.97893L9.30576 8.98948L9.27061 9.01409L9.24248 9.04924L9.20732 9.0387L9.16162 9.03518L9.14756 9.00706L9.11943 9.00354L9.11592 9.05627L9.09834 9.08088L9.05264 9.12659C9.1124 9.12659 9.04561 9.16526 9.03154 9.16526C9.0667 9.17932 9.02803 9.21096 8.94014 9.18635V9.21096L8.9085 9.21448L8.93662 9.24612L8.96475 9.24963L8.9542 9.31291C8.9542 9.36213 8.83115 9.33049 8.82061 9.31643L8.81709 9.38674H8.796V9.49924L8.83467 9.49221V9.52034H8.93662L9.08076 9.36916L9.16865 9.34807C9.17568 9.31291 9.21436 9.3551 9.21436 9.3551C9.24951 9.3551 9.25654 9.37971 9.25654 9.37971L9.30576 9.38674C9.34795 9.39729 9.32334 9.40081 9.32685 9.41838C9.32685 9.43948 9.34795 9.43245 9.34795 9.43245L9.35498 9.38323H9.37959L9.35498 9.35862L9.31279 9.34104L9.27061 9.32346C9.23897 9.28127 9.27764 9.28831 9.30576 9.28831H9.35498C9.35498 9.28831 9.41123 9.36916 9.41123 9.38674C9.41123 9.40432 9.43936 9.40784 9.43936 9.40784H9.471L9.48154 9.43245H9.5167L9.52725 9.45354H9.59756V9.41838L9.53428 9.40784V9.37268L9.48506 9.35862C9.471 9.29534 9.49912 9.27776 9.5167 9.30588L9.53779 9.3094L9.53076 9.25315L9.55889 9.24612L9.54834 9.16526L9.52725 9.15823V9.13362H9.62217C9.61514 9.08791 9.62217 9.06331 9.62217 9.06331H9.65029L9.65381 9.0844L9.76982 9.09495L9.85068 9.00002C9.84717 8.99299 9.85772 8.98948 9.85068 8.97893C9.83662 8.96838 9.82256 8.97893 9.80498 8.96838C9.78389 8.95784 9.80498 8.89456 9.80146 8.87698C9.79795 8.86291 9.86475 8.84182 9.8542 8.87698C9.84014 8.90862 9.8542 8.92268 9.8542 8.92268C9.8999 8.87698 9.94209 8.9262 9.93857 8.94026C9.93506 8.95081 9.96318 8.96135 9.98428 8.95081C10.0019 8.94026 10.0265 8.98596 10.0194 9.00706C10.0089 9.02815 9.94209 9.02463 9.93857 9.00354C9.93506 8.97893 9.92451 8.98948 9.91748 9.00002C9.91045 9.01057 9.87529 9.0176 9.85771 9.00706C9.85474 9.00544 9.8523 9.003 9.85068 9.00002L9.76982 9.09495H9.77334C9.81904 9.11956 9.79795 9.15471 9.78037 9.16526L9.7417 9.16877L9.73467 9.18635L9.63623 9.19338L9.6292 9.22854C9.57998 9.22502 9.55889 9.27776 9.57295 9.30237C9.5835 9.33049 9.57295 9.35159 9.57295 9.35159L9.61162 9.37268L9.66436 9.3551C9.67139 9.31995 9.70654 9.3094 9.73467 9.28479C9.76631 9.2637 9.81553 9.33049 9.80146 9.35862C9.78389 9.39026 9.78389 9.40081 9.78389 9.40081L9.7874 9.43596L9.75225 9.45002L9.72061 9.4676V9.48518H9.61514L9.59756 9.50276L9.54834 9.50627L9.53428 9.53088L9.49912 9.5344C9.49912 9.5344 9.44639 9.56252 9.46748 9.59065C9.48857 9.62229 9.37256 9.61877 9.34795 9.57659C9.34092 9.61174 9.29873 9.57659 9.29873 9.57659L9.25654 9.56956V9.51331C9.246 9.47463 9.17568 9.47463 9.1792 9.49924C9.18271 9.52737 9.0456 9.51331 9.0456 9.51331L8.9999 9.5344L8.95771 9.55901V9.57659L8.8874 9.58362L8.85928 9.59768L8.84521 9.57659H8.81709L8.78545 9.61877C8.70811 9.61877 8.63428 9.66799 8.64131 9.68909C8.64834 9.70667 8.60967 9.72424 8.60967 9.72424L8.57451 9.73479L8.55342 9.76995L8.51123 9.78401L8.5042 9.86487L8.47959 9.87893V9.91409L8.45498 9.92112V9.94221H8.41631L8.4374 10.002L8.46904 10.016C8.52178 10.0231 8.49717 10.0864 8.49717 10.0864L8.52881 10.0934L8.54287 10.1356L8.57451 10.1953C8.58506 10.241 8.62021 10.2305 8.63428 10.227C8.64834 10.2235 8.6624 10.2727 8.6624 10.2727H8.81357C8.81357 10.2727 8.80654 10.2903 8.83115 10.2973C8.85928 10.3043 9.03154 10.3114 9.03857 10.3008C9.03154 10.2656 9.12998 10.2586 9.17217 10.2903C9.21436 10.3219 9.27061 10.3008 9.27061 10.3008L9.32685 10.3711L9.36201 10.452L9.42529 10.4731L9.471 10.4836L9.48506 10.5469L9.52021 10.5504L9.53076 10.5926C9.57295 10.6242 9.52021 10.6875 9.52021 10.6875V10.7719L9.54834 10.786V10.8176L9.59404 10.8668L9.65029 10.8703L9.79092 11.0215L9.90693 11.0567L9.92451 11.1164H9.95264L9.97725 11.0953L10.0651 11.0918L10.1108 11.0496L10.1601 11.0426L10.5749 10.691L10.5397 10.6664V10.5821C10.603 10.5328 10.6101 10.4449 10.5433 10.4414C10.4976 10.4309 10.5187 10.3817 10.5644 10.3711L10.589 10.3641V10.3289L10.6769 10.2481V10.1883L10.4905 10.0336C10.4062 9.99846 10.4905 9.81916 10.5433 9.82268C10.5995 9.8262 10.5433 9.54143 10.5433 9.54143L10.5081 9.52737L10.5187 9.43596H10.4765L10.4097 9.52385L10.3921 9.58362C10.3851 9.66448 10.153 9.6469 10.1425 9.63635L10.0511 9.59065C10.0511 9.59065 9.99131 9.54143 9.98076 9.55549C9.97021 9.57307 9.91748 9.53792 9.91748 9.54846C9.91748 9.56252 9.86826 9.52385 9.86826 9.52385L9.79443 9.49573L9.85068 9.48518L9.83662 9.43948L9.93506 9.4887C9.94561 9.50276 9.99482 9.49924 9.99482 9.49924L10.0089 9.52034C10.0089 9.52034 10.0405 9.51682 10.0581 9.53791C10.0757 9.56252 10.1741 9.54143 10.1741 9.54143L10.2022 9.56604L10.2409 9.5801L10.3569 9.58362L10.3604 9.51331L10.3851 9.4887L10.3815 9.44299L10.4062 9.4219V9.38323L10.4272 9.3762L10.4308 9.29182L10.4519 9.28831V9.10549L10.3956 9.05276C10.3921 9.07034 10.3323 9.07034 10.3323 9.07034C10.3323 9.07034 10.3183 9.09846 10.3042 9.09846C10.2901 9.09846 10.3218 9.13362 10.3112 9.15471C10.3042 9.17932 10.2761 9.17932 10.2761 9.17932L10.2198 9.19338L10.2058 9.21096H10.146L10.1354 9.16174L10.2058 9.14417L10.2409 9.12307L10.262 9.08791C10.262 9.04924 10.3077 9.05276 10.3077 9.05276C10.3077 9.05276 10.3956 8.98245 10.3991 8.94729C10.3991 8.91213 10.4343 8.81721 10.4835 8.81721H10.5819C10.6171 8.80315 10.6065 8.75393 10.6065 8.75393L10.6558 8.74338L10.6628 8.77151C10.6628 8.77151 10.7331 8.77854 10.7401 8.76799C10.7472 8.75745 10.7612 8.73284 10.7788 8.73987C10.7999 8.75393 10.8597 8.71526 10.8597 8.71526C10.8597 8.68713 10.9546 8.69768 10.9546 8.69768L10.9687 8.66252C10.9687 8.66252 10.9019 8.57815 10.8913 8.57815C10.8808 8.57815 10.821 8.52541 10.814 8.54299C10.7542 8.52893 10.7577 8.44456 10.7577 8.44456L10.7366 8.39182C10.7366 8.36018 10.6804 8.2969 10.6663 8.30393C10.6101 8.26174 10.6522 8.21252 10.6663 8.20901C10.6839 8.20901 10.719 8.15276 10.719 8.15276L10.7401 8.10002L10.8034 8.08245L10.8104 8.03323L10.7753 8.0262C10.7753 8.0262 10.8104 7.95588 10.8315 7.95588L10.9862 7.95237C10.9968 7.94534 11.0214 7.88206 11.0214 7.87151C11.0214 7.86096 11.0495 7.85745 11.0601 7.85393C11.0706 7.85041 11.0952 7.81877 11.1058 7.80471C11.1128 7.78713 11.0882 7.69221 11.0706 7.70979Z" fill="white"/>
<path d="M9.00005 9.07736C9.00708 9.07033 9.0106 9.09494 9.02114 9.09142C9.03521 9.09142 9.03872 9.11251 9.02817 9.11251C9.01763 9.11251 9.01763 9.12658 9.01763 9.13009C9.01763 9.13712 9.01763 9.15119 9.00708 9.15822C9.00005 9.16876 8.99302 9.16173 8.97895 9.15822C8.96841 9.15119 8.96489 9.15119 8.95083 9.15119C8.93677 9.15119 8.94731 9.17228 8.94731 9.17228C8.94731 9.17228 8.88755 9.17228 8.8981 9.16173C8.91216 9.1547 8.92271 9.15119 8.91216 9.14416C8.90513 9.14064 8.91216 9.13361 8.91216 9.12306C8.91216 9.11251 8.94028 9.11603 8.93325 9.109C8.92622 9.09845 8.93325 9.06681 8.94731 9.08439L8.95435 9.06681C8.94731 9.05626 8.95435 9.05626 8.93677 9.04923C8.91919 9.0422 8.93325 9.01056 8.93325 9.01056V8.98595C8.94028 8.95783 8.99653 8.95431 9.00005 8.97892V9.02462L9.01763 9.02814C9.01763 9.02814 9.01411 9.04572 9.00005 9.04572C8.98599 9.04572 9.00005 9.05626 8.99302 9.0633L9.00005 9.07736ZM8.81372 9.10548C8.82427 9.0879 8.84185 9.01408 8.86646 9.03517C8.88755 9.05978 8.90161 9.03517 8.90161 9.03517C8.90161 9.03517 8.91216 9.04923 8.90864 9.07033C8.90161 9.09494 8.89458 9.11603 8.88052 9.11955C8.86646 9.11955 8.85591 9.13009 8.83833 9.13361C8.82427 9.13712 8.81372 9.10548 8.81372 9.10548Z" fill="white"/>
</g>
<defs>
<clipPath id="clip0_14_1336">
<rect width="18" height="18" rx="9" fill="white"/>
</clipPath>
</defs>
</svg>
