<svg width="18" height="18" viewBox="0 0 18 18" fill="none" xmlns="http://www.w3.org/2000/svg">
<g clip-path="url(#clip0_8201_11706)">
<path d="M9 18C13.9706 18 18 13.9706 18 9C18 4.02944 13.9706 0 9 0C4.02944 0 0 4.02944 0 9C0 13.9706 4.02944 18 9 18Z" fill="#F0F0F0"/>
<path d="M9 6.65216H17.69C17.4643 5.81495 17.1213 5.02601 16.679 4.30432H9V6.65216Z" fill="#338AF3"/>
<path d="M3.39745 16.0435H14.6022C15.4236 15.3893 16.1279 14.5947 16.6788 13.6957H1.3208C1.87173 14.5947 2.57612 15.3893 3.39745 16.0435Z" fill="#338AF3"/>
<path d="M9 0V1.95652H14.6024C13.065 0.732094 11.1181 0 9 0Z" fill="#338AF3"/>
<path d="M9 6.65216H17.69C17.4643 5.81495 17.1213 5.02601 16.679 4.30432H9V6.65216Z" fill="#338AF3"/>
<path d="M0 9C0 9.81236 0.108281 10.5992 0.310043 11.3478H17.69C17.8917 10.5992 18 9.81236 18 9H0Z" fill="#338AF3"/>
<path d="M7.82625 5.26713L6.72705 5.78418L7.31237 6.84871L6.11882 6.6204L5.96757 7.82609L5.13627 6.93931L4.30489 7.82609L4.15369 6.6204L2.96013 6.84864L3.54541 5.78414L2.44629 5.26713L3.54545 4.75016L2.96013 3.68563L4.15365 3.91394L4.30493 2.70825L5.13627 3.59503L5.96761 2.70825L6.11882 3.91394L7.31241 3.68563L6.72709 4.7502L7.82625 5.26713Z" fill="#FFDA44"/>
</g>
<defs>
<clipPath id="clip0_8201_11706">
<rect width="18" height="18" fill="white"/>
</clipPath>
</defs>
</svg>
