<svg width="18" height="18" viewBox="0 0 18 18" fill="none" xmlns="http://www.w3.org/2000/svg">
<g clip-path="url(#clip0_8201_11763)">
<path d="M9.00007 0C13.9706 0 18.0001 4.02947 18.0001 9C18.0001 13.9705 13.9706 18 9.00007 18C9.00007 17.6087 7.82617 9 7.82617 9L9.00007 0Z" fill="#F0F0F0"/>
<path d="M9 18C4.02947 18 0 13.9705 0 9C0 4.02947 4.02947 0 9 0" fill="#FFDA44"/>
<path d="M12.4464 7.83155L14.1378 10.0691C13.8713 10.4726 13.8727 11.0163 14.1809 11.424C14.5719 11.9412 15.3081 12.0436 15.8253 11.6526C16.3425 11.2616 16.4449 10.5254 16.0539 10.0083C15.7457 9.60054 15.223 9.45092 14.7621 9.59724L12.1261 6.10999L11.5017 6.58192L10.5652 7.28976L11.5091 8.53833L12.4464 7.83155ZM14.8814 10.4039C15.0538 10.2736 15.2993 10.3077 15.4296 10.4801C15.5599 10.6525 15.5258 10.8979 15.3534 11.0283C15.181 11.1585 14.9356 11.1245 14.8053 10.9521C14.6749 10.7796 14.7091 10.5342 14.8814 10.4039Z" fill="#ACABB1"/>
<path d="M15.3474 8.53828L16.2913 7.28971L15.3548 6.5818L14.7305 6.10986L12.0945 9.59712C11.6336 9.4508 11.1109 9.60046 10.8027 10.0081C10.4117 10.5253 10.5141 11.2615 11.0313 11.6525C11.5485 12.0434 12.2847 11.9411 12.6756 11.4239C12.9838 11.0162 12.9852 10.4725 12.7187 10.069L14.4101 7.83143L15.3474 8.53828ZM12.0513 10.952C11.921 11.1244 11.6756 11.1585 11.5032 11.0282C11.3308 10.8979 11.2967 10.6524 11.427 10.48C11.5573 10.3077 11.8027 10.2735 11.9752 10.4039C12.1476 10.5342 12.1816 10.7796 12.0513 10.952Z" fill="#FFDA44"/>
</g>
<defs>
<clipPath id="clip0_8201_11763">
<rect width="18" height="18" fill="white"/>
</clipPath>
</defs>
</svg>
