<svg width="18" height="18" viewBox="0 0 18 18" fill="none" xmlns="http://www.w3.org/2000/svg">
<g clip-path="url(#clip0_14_1080)">
<path d="M0 0H18V18H0V0Z" fill="#CF142B"/>
<path d="M0 0H18V11.9988H0V0Z" fill="#00247D"/>
<path d="M0 0H18V6.00117H0V0Z" fill="#FFCC00"/>
<path d="M10.1012 6.57011L9.73934 7.17723L10.071 7.4213L10.1012 6.57011Z" fill="white"/>
<path d="M10.1048 6.56685L10.1319 7.30077L9.73745 7.30815L10.1048 6.56685Z" fill="white"/>
<path d="M10.7023 7.2592L9.97887 6.96238L9.81251 7.45785L10.7023 7.2592Z" fill="white"/>
<path d="M10.7086 7.25313L9.95519 7.4929L9.84464 6.98673L10.7086 7.25313Z" fill="white"/>
<path d="M9.29662 6.92339L9.79858 7.46564L10.1319 7.18013L9.29662 6.92339Z" fill="white"/>
<path d="M9.29517 6.92201L10.03 7.08728L9.92861 7.50545L9.29517 6.92201Z" fill="white"/>
<path d="M10.2659 7.96728L10.1794 7.21569L9.72651 7.2553L10.2659 7.96728Z" fill="white"/>
<path d="M10.2673 7.96869L9.7556 7.39287L10.0964 7.10437L10.2673 7.96869Z" fill="white"/>
<path d="M9.39943 7.79593L10.0793 7.48095L9.90685 7.07103L9.39943 7.79593Z" fill="white"/>
<path d="M9.39818 7.79715L9.78604 7.14056L10.1586 7.36831L9.39818 7.79715Z" fill="white"/>
<path d="M12.0858 7.27809L11.5301 7.78363L11.8223 8.11365L12.0858 7.27809Z" fill="white"/>
<path d="M12.0861 7.27782L11.9163 8.01239L11.4881 7.91489L12.0861 7.27782Z" fill="white"/>
<path d="M12.4453 8.07703L11.7815 7.71015L11.5662 8.10313L12.4453 8.07703Z" fill="white"/>
<path d="M12.4449 8.07641L11.6927 8.15912L11.6425 7.71285L12.4449 8.07641Z" fill="white"/>
<path d="M11.2114 7.36509L11.5169 8.05248L11.9247 7.87955L11.2114 7.36509Z" fill="white"/>
<path d="M11.2108 7.36458L11.8575 7.75811L11.6284 8.13372L11.2108 7.36458Z" fill="white"/>
<path d="M11.7556 8.68395L11.9868 7.93607L11.5046 7.81325L11.7556 8.68395Z" fill="white"/>
<path d="M11.7598 8.68592L11.4793 7.95499L11.9523 7.80053L11.7598 8.68592Z" fill="white"/>
<path d="M11.0116 8.21762L11.7691 8.16271L11.7539 7.70451L11.0116 8.21762Z" fill="white"/>
<path d="M11.0097 8.21927L11.6141 7.72826L11.8846 8.08411L11.0097 8.21927Z" fill="white"/>
<path d="M13.72 8.64866L13.024 8.93839L13.1899 9.34712L13.72 8.64866Z" fill="white"/>
<path d="M13.7199 8.64864L13.3125 9.28343L12.9397 9.04805L13.7199 8.64864Z" fill="white"/>
<path d="M13.7813 9.52759L13.2899 8.9555L12.9531 9.24018L13.7813 9.52759Z" fill="white"/>
<path d="M13.7812 9.52758L13.0517 9.33709L13.1596 8.90944L13.7812 9.52758Z" fill="white"/>
<path d="M12.8654 8.43469L12.9248 9.18661L13.3657 9.15582L12.8654 8.43469Z" fill="white"/>
<path d="M12.8653 8.43464L13.3431 9.01931L13.003 9.30072L12.8653 8.43464Z" fill="white"/>
<path d="M12.9648 9.8585L13.3567 9.21267L12.9803 8.98132L12.9648 9.8585Z" fill="white"/>
<path d="M12.9651 9.85836L12.919 9.10519L13.3602 9.07423L12.9651 9.85836Z" fill="white"/>
<path d="M12.3972 9.1818L13.1311 9.35806L13.2376 8.92855L12.3972 9.1818Z" fill="white"/>
<path d="M12.397 9.18191L13.1006 8.90781L13.2637 9.31897L12.397 9.18191Z" fill="white"/>
<path d="M14.788 10.4982L14.0342 10.5309L14.0491 10.9729L14.788 10.4982Z" fill="white"/>
<path d="M14.7882 10.4981L14.1866 10.9551L13.9175 10.605L14.7882 10.4981Z" fill="white"/>
<path d="M14.5438 11.3451L14.2796 10.6391L13.8648 10.7898L14.5438 11.3451Z" fill="white"/>
<path d="M14.5438 11.3452L13.9238 10.9149L14.1729 10.5511L14.5438 11.3452Z" fill="white"/>
<path d="M14.0594 10.0035L13.8531 10.7314L14.2814 10.8543L14.0594 10.0035Z" fill="white"/>
<path d="M14.0588 10.0034L14.3073 10.718L13.8869 10.8656L14.0588 10.0034Z" fill="white"/>
<path d="M13.6633 11.375L14.2525 10.9051L13.9808 10.5578L13.6633 11.375Z" fill="white"/>
<path d="M13.6633 11.375L13.8804 10.6528L14.3033 10.7766L13.6633 11.375Z" fill="white"/>
<path d="M13.3628 10.5471L13.9919 10.9618L14.2378 10.5958L13.3628 10.5471Z" fill="white"/>
<path d="M13.3628 10.547L14.1164 10.5297L14.1298 10.9701L13.3628 10.547Z" fill="white"/>
<path d="M3.25323 10.4818L3.80229 10.9496L4.10345 10.6403L3.25323 10.4818Z" fill="white"/>
<path d="M3.25068 10.4794L3.99272 10.5606L3.93365 10.9729L3.25068 10.4794Z" fill="white"/>
<path d="M4.0192 10.0539L3.73314 10.6386L4.01134 10.8656L4.0192 10.0539Z" fill="white"/>
<path d="M4.02743 10.0473L4.06444 10.7463L3.73956 10.76L4.02743 10.0473Z" fill="white"/>
<path d="M3.44782 11.3122L4.08703 10.9669L3.91062 10.5511L3.44782 11.3122Z" fill="white"/>
<path d="M3.44354 11.3165L3.7943 10.6295L4.15634 10.8517L3.44354 11.3165Z" fill="white"/>
<path d="M4.66399 10.6775L3.99922 10.3324L3.77512 10.9612L4.66399 10.6775Z" fill="white"/>
<path d="M4.67878 10.6613L3.91718 10.9915L3.87383 10.3598L4.67878 10.6613Z" fill="white"/>
<path d="M4.28615 11.423L4.25298 10.6691L3.71772 10.6732L4.28615 11.423Z" fill="white"/>
<path d="M4.29563 11.4304L3.74737 10.8181L4.17362 10.5578L4.29563 11.4304Z" fill="white"/>
<path d="M4.32017 8.62986L4.6778 9.27705L5.08107 9.08855L4.32017 8.62986Z" fill="white"/>
<path d="M4.31777 8.62697L5.00275 8.97248L4.79498 9.34712L4.31777 8.62697Z" fill="white"/>
<path d="M5.17145 8.45672L4.6834 8.98444L4.9847 9.30066L5.17145 8.45672Z" fill="white"/>
<path d="M5.17376 8.45386L5.06817 9.19312L4.65556 9.11446L5.17376 8.45386Z" fill="white"/>
<path d="M4.2121 9.4995L4.95992 9.38108L4.92097 8.90938L4.2121 9.4995Z" fill="white"/>
<path d="M4.20782 9.50325L4.78121 8.94718L5.06788 9.29241L4.20782 9.50325Z" fill="white"/>
<path d="M5.62025 9.19351L4.92563 8.91173L4.75705 9.29389L5.62025 9.19351Z" fill="white"/>
<path d="M5.62072 9.19522L4.88877 9.33697L4.78988 8.92855L5.62072 9.19522Z" fill="white"/>
<path d="M5.01878 9.87886L5.16035 9.11217L4.66077 9.03012L5.01878 9.87886Z" fill="white"/>
<path d="M5.02395 9.88207L4.65327 9.17546L5.10989 8.98126L5.02395 9.88207Z" fill="white"/>
<path d="M5.94651 7.26545L6.08704 8.00816L6.53311 7.94144L5.94651 7.26545Z" fill="white"/>
<path d="M5.94509 7.26379L6.49427 7.80595L6.17752 8.11359L5.94509 7.26379Z" fill="white"/>
<path d="M6.82189 7.37929L6.16741 7.73483L6.36738 8.13366L6.82189 7.37929Z" fill="white"/>
<path d="M6.82338 7.37779L6.48308 8.05673L6.09659 7.85186L6.82338 7.37779Z" fill="white"/>
<path d="M5.56766 8.06537L6.32549 8.17631L6.39694 7.71279L5.56766 8.06537Z" fill="white"/>
<path d="M5.56589 8.0675L6.25493 7.70689L6.45477 8.12359L5.56589 8.0675Z" fill="white"/>
<path d="M6.98564 8.23977L6.44733 7.73528L6.13635 8.04017L6.98564 8.23977Z" fill="white"/>
<path d="M6.98702 8.24119L6.2442 8.12566L6.31497 7.70451L6.98702 8.24119Z" fill="white"/>
<path d="M6.22119 8.65842L6.52808 7.99822L6.15482 7.80053L6.22119 8.65842Z" fill="white"/>
<path d="M6.21924 8.66006L6.1067 7.92791L6.51639 7.86454L6.21924 8.66006Z" fill="white"/>
<path d="M7.95831 6.53473L7.82224 7.28993L8.2833 7.37775L7.95831 6.53473Z" fill="white"/>
<path d="M7.95624 6.53296L8.29392 7.2358L7.87067 7.42136L7.95624 6.53296Z" fill="white"/>
<path d="M8.74502 6.9445L7.9974 7.05225L8.0506 7.50558L8.74502 6.9445Z" fill="white"/>
<path d="M8.74644 6.94289L8.1871 7.47235L7.88885 7.13849L8.74644 6.94289Z" fill="white"/>
<path d="M7.34261 7.16813L7.99381 7.49872L8.20434 7.13086L7.34261 7.16813Z" fill="white"/>
<path d="M7.34098 7.16635L8.07828 7.07843L8.1281 7.49179L7.34098 7.16635Z" fill="white"/>
<path d="M8.60195 7.8145L8.26712 7.14647L7.86212 7.331L8.60195 7.8145Z" fill="white"/>
<path d="M8.60337 7.81593L7.93534 7.44951L8.15231 7.07103L8.60337 7.81593Z" fill="white"/>
<path d="M7.73556 7.94615L8.25921 7.42846L7.96364 7.10443L7.73556 7.94615Z" fill="white"/>
<path d="M7.73416 7.94771L7.87444 7.20904L8.29449 7.29751L7.73416 7.94771Z" fill="white"/>
</g>
<defs>
<clipPath id="clip0_14_1080">
<rect width="18" height="18" rx="9" fill="white"/>
</clipPath>
</defs>
</svg>
