<svg width="18" height="18" viewBox="0 0 18 18" fill="none" xmlns="http://www.w3.org/2000/svg">
<g clip-path="url(#clip0_8201_11768)">
<path d="M17.107 12.913C17.6791 11.7298 18 10.4024 18 8.99997C18 7.59755 17.6791 6.27015 17.107 5.08693L9 4.30432L0.893039 5.08693C0.320871 6.27015 0 7.59755 0 8.99997C0 10.4024 0.320871 11.7298 0.893039 12.913L9 13.6956L17.107 12.913Z" fill="#0052B4"/>
<path d="M9.00003 18.0001C12.5681 18.0001 15.6512 15.9236 17.107 12.9131H0.893066C2.34882 15.9236 5.43188 18.0001 9.00003 18.0001Z" fill="#D80027"/>
<path d="M15.5873 10.7667L15.1119 11.1381L15.3182 11.7049L14.8181 11.3676L14.3427 11.739L14.5089 11.1591L14.0088 10.8218L14.6117 10.8007L14.778 10.2208L14.9844 10.7877L15.5873 10.7667Z" fill="#F0F0F0"/>
<path d="M14.3701 8.65833L14.0505 9.16996L14.4383 9.63199L13.8529 9.48623L13.5332 9.99772L13.4911 9.39595L12.9058 9.24994L13.4652 9.02392L13.4231 8.42212L13.8109 8.88432L14.3701 8.65833Z" fill="#F0F0F0"/>
<path d="M12.5053 7.09338L12.3799 7.68348L12.9023 7.98512L12.3024 8.04837L12.1769 8.63829L11.9316 8.08725L11.3315 8.15022L11.7799 7.74655L11.5346 7.19551L12.057 7.49708L12.5053 7.09338Z" fill="#F0F0F0"/>
<path d="M10.2171 6.26086L10.3012 6.85827L10.8952 6.96297L10.353 7.22756L10.437 7.82493L10.018 7.39096L9.47565 7.65541L9.75894 7.12268L9.33984 6.68879L9.93398 6.79352L10.2171 6.26086Z" fill="#F0F0F0"/>
<path d="M7.78304 6.26086L8.06629 6.79352L8.66029 6.68872L8.24134 7.12279L8.52445 7.65548L7.98227 7.39096L7.56314 7.82482L7.6472 7.22756L7.10498 6.96311L7.69909 6.85827L7.78304 6.26086Z" fill="#F0F0F0"/>
<path d="M5.49509 7.09338L5.94348 7.49708L6.46579 7.19551L6.22051 7.74676L6.66878 8.15036L6.06884 8.08725L5.82338 8.63829L5.69812 8.04826L5.09814 7.98526L5.62057 7.68355L5.49509 7.09338Z" fill="#F0F0F0"/>
<path d="M3.63053 8.65835L4.18997 8.88434L4.5776 8.42224L4.53566 9.02415L5.09493 9.25017L4.50961 9.39603L4.46746 9.99773L4.14789 9.48625L3.5625 9.63211L3.95027 9.16998L3.63053 8.65835Z" fill="#F0F0F0"/>
<path d="M2.41309 10.7667L3.01609 10.7877L3.22231 10.2209L3.38878 10.8009L3.9916 10.8219L3.49147 11.1593L3.65769 11.7392L3.18237 11.3678L2.68221 11.705L2.88854 11.1382L2.41309 10.7667Z" fill="#F0F0F0"/>
<path d="M17.107 5.08697C15.6512 2.0765 12.5681 0 9.00003 0C5.43188 0 2.34882 2.0765 0.893066 5.08697H17.107Z" fill="#FFDA44"/>
</g>
<defs>
<clipPath id="clip0_8201_11768">
<rect width="18" height="18" fill="white"/>
</clipPath>
</defs>
</svg>
