<svg width="18" height="18" viewBox="0 0 18 18" fill="none" xmlns="http://www.w3.org/2000/svg">
<g clip-path="url(#clip0_8201_10008)">
<path d="M18 9C18 13.9705 13.9705 18 9 18C4.02947 18 0 13.9705 0 9C0 9.00214 9 0.000984375 9 0C13.9705 0 18 4.02947 18 9Z" fill="#0052B4"/>
<path d="M8.97583 9.00003H8.99991C8.99991 8.99195 8.99991 8.98407 8.99991 8.97595C8.9919 8.984 8.98388 8.99202 8.97583 9.00003Z" fill="#F0F0F0"/>
<path d="M9 4.69564C9 3.11203 9 2.07439 9 0H8.99849C4.02859 0.00084375 0 4.02993 0 9H4.69564V6.35586L7.33978 9H8.97595C8.98397 8.99198 8.99198 8.98397 9.00004 8.97592C9.00004 8.36958 9.00004 7.82856 9.00004 7.33985L6.35583 4.69564H9Z" fill="#F0F0F0"/>
<path d="M4.55319 1.17395C3.14557 1.97548 1.97532 3.14569 1.17383 4.55331V9.00005H3.52167V3.52186V3.52179H8.99993C8.99993 2.78129 8.99993 2.07585 8.99993 1.17395H4.55319Z" fill="#D80027"/>
<path d="M12.913 9L10.4805 11.4326C10.9364 12.3119 11.8542 12.913 12.913 12.913C13.9718 12.913 14.8897 12.3119 15.3456 11.4326L12.913 9Z" fill="#FFDA44"/>
<path d="M8.99991 7.89325L5.80228 4.69568H4.69556V4.69575L8.99984 9H8.99991C8.99991 9 8.99991 8.23686 8.99991 7.89325Z" fill="#D80027"/>
<path d="M10.1738 4.69568V9V9.00003C10.1739 11.0967 12.913 11.7392 12.913 11.7392C12.913 11.7392 15.6521 11.0967 15.6521 9.00003V9V4.69568H10.1738Z" fill="#6DA544"/>
<path d="M12.3262 6.6521H13.5001V9.78252H12.3262V6.6521Z" fill="#F0F0F0"/>
<path d="M12.9131 7.23912C13.2373 7.23912 13.5001 6.97633 13.5001 6.65215C13.5001 6.32798 13.2373 6.06519 12.9131 6.06519C12.589 6.06519 12.3262 6.32798 12.3262 6.65215C12.3262 6.97633 12.589 7.23912 12.9131 7.23912Z" fill="#A2001D"/>
<path d="M10.9565 5.47827H11.7392V6.26088H10.9565V5.47827Z" fill="#FFDA44"/>
<path d="M10.9565 7.23914H11.7392V8.02175H10.9565V7.23914Z" fill="#FFDA44"/>
<path d="M10.9565 9H11.7392V9.78261H10.9565V9Z" fill="#FFDA44"/>
<path d="M14.0869 5.47827H14.8695V6.26088H14.0869V5.47827Z" fill="#FFDA44"/>
<path d="M14.0869 7.23914H14.8695V8.02175H14.0869V7.23914Z" fill="#FFDA44"/>
<path d="M14.0869 9H14.8695V9.78261H14.0869V9Z" fill="#FFDA44"/>
</g>
<defs>
<clipPath id="clip0_8201_10008">
<rect width="18" height="18" fill="white"/>
</clipPath>
</defs>
</svg>
