<svg width="18" height="18" viewBox="0 0 18 18" fill="none" xmlns="http://www.w3.org/2000/svg">
<g clip-path="url(#clip0_8201_11784)">
<path d="M9 18C13.9706 18 18 13.9706 18 9C18 4.02944 13.9706 0 9 0C4.02944 0 0 4.02944 0 9C0 13.9706 4.02944 18 9 18Z" fill="#FCFCFC"/>
<path d="M10.5287 6.28756C10.5287 5.44338 9.84438 4.75903 9.00018 4.75903C8.15597 4.75903 7.47162 5.44338 7.47162 6.28756H4.10889C4.10889 7.11869 4.83289 7.79253 5.66402 7.79253H5.61396C5.61396 8.62372 6.2877 9.2976 7.11896 9.2976C7.11896 10.0335 7.6475 10.645 8.34553 10.7757L8.34163 10.7845H9.65876L9.65486 10.7757C10.3529 10.645 10.8814 10.0335 10.8814 9.2976C11.7127 9.2976 12.3864 8.62372 12.3864 7.79253H12.3363C13.1674 7.79253 13.8915 7.11869 13.8915 6.28756H10.5287Z" fill="#FFDA44"/>
<path d="M8.32811 10.6285L7.38037 12.7683C7.88043 12.9715 8.42701 13.0845 9.00009 13.0845C9.57317 13.0845 10.1197 12.9716 10.6198 12.7683L9.67207 10.6285H8.32811Z" fill="#FFDA44"/>
<path d="M7.04346 7.03918V9.67207C7.04346 11.1697 8.99997 11.6286 8.99997 11.6286C8.99997 11.6286 10.9565 11.1697 10.9565 9.67207V7.03918H7.04346Z" fill="#F0F0F0"/>
<path d="M2.18244 9.06335L3.24061 12.0229L4.28777 9.06335H5.08694L3.56025 12.9764H2.92093L1.3833 9.06335H2.18244Z" fill="#338AF3"/>
<path d="M14.478 12.9764V9.06335H15.2386V12.9764H14.478Z" fill="#338AF3"/>
<path d="M7.82617 7.8894V11.08C8.09515 11.2779 8.38456 11.4141 8.60879 11.5013V7.8894H7.82617Z" fill="#D80027"/>
<path d="M10.1742 7.8894V11.08C9.90523 11.2779 9.61583 11.4141 9.3916 11.5013V7.8894H10.1742Z" fill="#D80027"/>
<path d="M7.04346 7.03918H10.9565V8.28076H7.04346V7.03918Z" fill="#0052B4"/>
</g>
<defs>
<clipPath id="clip0_8201_11784">
<rect width="18" height="18" fill="white"/>
</clipPath>
</defs>
</svg>
