<svg width="18" height="18" viewBox="0 0 18 18" fill="none" xmlns="http://www.w3.org/2000/svg">
<g clip-path="url(#clip0_14_1078)">
<path d="M0 0H18V18H0V0Z" fill="white"/>
<path d="M5.74814 11.1094C5.74814 11.1094 5.73408 11.0074 5.92041 10.9336C6.10674 10.8633 6.1208 10.5926 6.08564 10.4133C6.08564 10.4133 5.98721 10.5855 5.86768 10.6418C5.86768 10.6418 5.67432 10.7437 5.66377 10.9371C5.66377 10.9371 5.66377 11.0074 5.64971 11.0601C5.64268 11.0918 5.55479 10.8211 5.72002 10.6172C5.88525 10.4098 5.93096 10.241 5.80088 9.91405C5.80088 9.91405 5.78682 10.1109 5.65674 10.2269C5.52314 10.3394 5.50908 10.35 5.50908 10.6207C5.50908 10.6207 5.50908 10.7156 5.46338 10.7473C5.46338 10.7473 5.35791 10.5961 5.3333 10.5012C5.30518 10.3992 5.29463 10.3605 5.41064 10.2445C5.41064 10.2445 5.7833 10.0019 5.51611 9.47108C5.51611 9.47108 5.50557 9.65741 5.37549 9.76288C5.24893 9.86835 5.25947 9.94218 5.25244 10.1285C5.24541 10.3148 5.23135 10.3043 5.21728 10.3289C5.21728 10.3289 4.98174 9.89296 5.16455 9.66092C5.34736 9.42889 5.44932 9.37968 5.24893 8.94725C5.24893 8.94725 5.25596 9.16874 5.09424 9.27772C4.93252 9.38671 4.97119 9.64686 4.97119 9.64686C4.97119 9.64686 4.98174 9.74178 4.94658 9.8121C4.94658 9.8121 4.71807 9.36561 4.93603 9.12655C5.12236 8.92264 5.13643 8.7785 5.03447 8.49022C5.03447 8.49022 5.02393 8.62382 4.92197 8.69764C4.8165 8.76796 4.73916 8.83827 4.75674 9.11952C4.75674 9.11952 4.76377 9.31288 4.73916 9.36561C4.73916 9.36561 4.64424 9.18983 4.61611 9.07382C4.5915 8.9578 4.58096 8.891 4.65127 8.77499C4.72158 8.65897 5.00283 8.32499 4.66533 7.84686C4.66533 7.84686 4.65479 8.00155 4.57041 8.14218C4.48604 8.2828 4.52471 8.44803 4.54228 8.5746C4.56338 8.70116 4.5001 8.82421 4.5001 8.82421C4.5001 8.82421 4.35596 8.55702 4.38408 8.25116C4.41924 7.9453 4.29268 7.68866 4.00791 7.51288C4.00791 7.51288 3.804 7.98749 4.08525 8.23007C4.08525 8.23007 4.32432 8.46913 4.38408 8.75741C4.38408 8.75741 4.20127 8.73632 4.03955 8.41639C3.87432 8.09999 3.5333 8.14921 3.51221 8.14569C3.51221 8.14569 3.56494 8.63788 4.08877 8.7785C4.08877 8.7785 4.42627 8.83827 4.48604 9.08436C4.48604 9.08436 4.54228 9.25311 4.56689 9.34452C4.56689 9.34452 4.46143 9.30233 4.36299 9.15819C4.26455 9.01053 4.27861 8.99296 3.94814 8.96132C3.94814 8.96132 3.81455 8.94725 3.74424 8.85233C3.74424 8.85233 3.88486 9.37616 4.23994 9.37264C4.23994 9.37264 4.56689 9.33749 4.74971 9.76639L4.66533 9.71014C4.61963 9.67499 4.49658 9.61522 4.25752 9.64686C4.01846 9.6785 3.95166 9.6328 3.89189 9.61171C3.89189 9.61171 4.13447 10.0582 4.47549 9.92811C4.8165 9.79452 4.98174 10.2726 4.98525 10.2832C4.98525 10.2832 4.93955 10.248 4.87979 10.1883C4.82002 10.1285 4.69346 10.0582 4.45791 10.132C4.45791 10.132 4.28564 10.1988 4.11338 10.1461C4.11338 10.1461 4.27861 10.466 4.66885 10.4133C5.05557 10.357 5.15752 10.7016 5.15752 10.7016L5.06963 10.6418C5.03447 10.6137 4.90088 10.5363 4.61963 10.6207C4.33838 10.7051 4.23643 10.6066 4.23643 10.6066C4.23643 10.6066 4.39463 10.8914 4.69346 10.923C4.69346 10.923 4.85869 10.923 4.93252 10.8984C5.0004 10.8697 5.07618 10.8656 5.14679 10.8867C5.21739 10.9079 5.27839 10.9531 5.31924 11.0144C5.31924 11.0144 5.28408 11.0215 5.22783 10.9969C5.22783 10.9969 5.02744 10.9266 4.87627 11.0531C4.87627 11.0531 4.74268 11.1937 4.54932 11.1656C4.54932 11.1656 4.79541 11.4047 5.19268 11.2008C5.19268 11.2008 5.32627 11.1058 5.42119 11.1797C5.51963 11.2535 5.74814 11.1094 5.74814 11.1094Z" fill="#369443" stroke="#010002" stroke-width="0.075" stroke-miterlimit="10"/>
<path d="M7.93822 5.16797C7.93822 5.16797 7.89251 4.75664 8.21947 4.71797C8.55697 4.6793 8.72572 4.74961 8.72572 4.74961L8.87689 5.04844L8.82415 5.25235L8.61322 5.34727C8.61322 5.34727 8.64837 5.03789 8.36712 5.03086C8.29681 5.03086 8.25111 5.05899 8.13861 5.04141C8.02259 5.02032 7.96283 5.14688 7.93822 5.16446V5.16797Z" fill="#F4C53D" stroke="#010002" stroke-width="0.075" stroke-miterlimit="10"/>
<path d="M10.2304 6.17696C10.1812 6.24024 9.98784 6.26133 9.98784 6.26133C9.98784 6.26133 10.1882 6.4125 10.2726 6.63399C10.3605 6.85196 7.95933 6.63399 7.95933 6.63399C7.95933 6.63399 8.06479 6.56016 8.13511 6.42305C8.13511 6.42305 8.02964 6.45821 7.92065 6.35274C7.92065 6.35274 8.00151 6.38086 8.10347 6.22266C8.10347 6.22266 8.25815 6.02578 8.36714 5.97305C8.36714 5.97305 8.3144 6.00469 8.19487 5.93789C8.19487 5.93789 8.40581 5.90977 8.47612 5.55469C8.47612 5.55469 8.49019 5.47735 8.57104 5.36133C8.64839 5.24883 8.63081 5.38594 8.77847 5.21016C8.77847 5.21016 8.84526 5.0836 8.7855 5.00977C8.72573 4.93594 8.66597 4.96055 8.54292 4.88672C8.41987 4.81289 8.36714 4.77422 8.40933 4.66172C8.45151 4.54922 8.55698 4.5668 8.57456 4.5668C8.58862 4.5668 8.59917 4.46836 8.72925 4.40157C8.90547 4.34931 9.09253 4.34567 9.27065 4.39102C9.32339 4.42266 9.53784 4.48594 9.66089 4.79883C9.78745 5.11524 9.62573 5.23477 9.97026 5.71289C9.97026 5.71289 9.82964 5.74102 9.74526 5.71289C9.74526 5.71289 9.92104 6.0293 10.2304 6.17696Z" fill="#F4C53D" stroke="#010002" stroke-width="0.075" stroke-miterlimit="10"/>
<path d="M8.74337 4.84451C8.46916 4.83044 8.57462 4.56677 8.57462 4.56677" stroke="#010002" stroke-width="0.075" stroke-miterlimit="10"/>
<path d="M9.22505 4.8797C9.22505 4.8797 9.17583 4.8551 9.13716 4.80236C9.07739 4.72502 8.94731 4.68986 8.877 4.76017C8.877 4.76017 8.80669 4.84103 8.74341 4.84455C8.74341 4.84455 8.81372 4.86564 8.86294 4.91134C8.91216 4.95705 8.96489 4.98869 9.03872 4.98166C9.10903 4.96759 9.1231 4.92892 9.15474 4.90783C9.18989 4.88322 9.22505 4.8797 9.22505 4.8797Z" fill="#F4C53D" stroke="#010002" stroke-width="0.075" stroke-miterlimit="10"/>
<path d="M5.70583 11.7141C5.70583 11.7141 5.6988 11.5383 5.9238 11.5207L6.58474 12.4418C6.58474 12.4418 6.56013 12.5015 6.2613 12.4945C6.2613 12.4945 6.22615 12.4945 6.21208 12.5297C6.18748 12.5859 5.70583 11.7141 5.70583 11.7141Z" fill="#369443" stroke="#010002" stroke-width="0.075" stroke-miterlimit="10"/>
<path d="M6.43204 10.6433C6.43204 10.6433 6.22075 11.0058 5.96543 11.0117C5.96543 11.0117 5.52634 10.9584 5.40228 11.0731C5.31547 11.1531 5.22698 11.2192 5.19057 11.4237C5.155 11.6282 5.26043 11.6722 5.28541 11.6811C5.28541 11.6811 5.30489 11.8272 5.44928 11.7891C5.44928 11.7891 5.45774 11.9415 5.71264 11.8683C5.96797 11.795 6.07382 11.8183 6.12336 11.5643C6.17375 11.3098 6.2199 11.314 6.26521 11.2835C6.32618 11.2425 6.44093 11.2039 6.52604 11.1548C6.60225 11.1108 6.89526 10.9617 6.99519 10.9503C7.09512 10.9385 7.0731 10.6023 7.0731 10.6023H6.81481L6.6899 10.4181L6.43161 10.6433H6.43204ZM7.24501 8.82516C7.24501 8.82516 6.98672 9.0356 6.76993 8.82516C6.76993 8.82516 6.6827 8.93017 6.50741 8.89968C6.33296 8.86877 6.30374 8.77689 6.28723 8.72439C6.28723 8.72439 6.13564 8.81246 6.00777 8.74259C5.88074 8.67315 5.88074 8.56772 5.88074 8.56772C5.88074 8.56772 5.65845 8.61176 5.54455 8.46102C5.43065 8.3107 5.50009 8.16166 5.56148 8.14387C5.56148 8.14387 5.3214 8.20696 5.25577 8.00076C5.2383 7.95471 5.2356 7.90437 5.24804 7.85672C5.26048 7.80907 5.28746 7.76647 5.32521 7.73485C5.32521 7.73485 4.81965 7.73231 4.61217 7.57395C4.61217 7.57395 4.43984 7.46555 4.54273 7.35165C4.54273 7.35165 4.08755 7.27882 3.97365 7.0976C3.97365 7.0976 3.92369 7.04764 3.9402 6.95999C3.9402 6.95999 3.94316 6.91045 3.99313 6.90748C3.99313 6.90748 3.47401 6.82703 3.32412 6.65597C3.32412 6.65597 3.25214 6.57721 3.28813 6.47178C3.28813 6.47178 3.29575 6.44426 3.30803 6.42521C3.30803 6.42521 2.83549 6.3257 2.60261 6.11526C2.60261 6.11526 2.46796 5.99543 2.5374 5.83453C2.5374 5.83453 1.74772 5.61859 1.93064 5.27053C1.93064 5.27053 1.56142 5.15071 1.67828 4.81747C1.67828 4.81747 1.37299 4.6625 1.50595 4.41692C1.6334 4.18192 2.02506 4.45799 2.48829 4.58628C2.48829 4.58628 3.74331 4.98091 4.36108 5.08592L6.11659 7.69971L7.14085 8.09433L7.24458 8.82516H7.24501Z" fill="#F4C53D" stroke="#010002" stroke-width="0.075275"/>
<path d="M7.25734 6.90031C7.25734 6.90031 7.09263 6.77667 6.7992 6.9219C6.7992 6.9219 6.70054 6.99007 6.62263 6.91555C6.60574 6.89943 6.59263 6.87977 6.58425 6.85797C6.57587 6.83618 6.57243 6.8128 6.57417 6.78951C6.57591 6.76623 6.58279 6.74362 6.59432 6.72331C6.60585 6.70301 6.62174 6.68551 6.64084 6.67208C6.85975 6.50991 6.94062 6.0234 6.60781 5.82143C6.60781 5.82143 6.12511 5.5352 4.35394 5.08467C4.35394 5.08467 4.20574 5.04318 4.12614 5.06308C4.08763 5.0729 4.05249 5.09297 4.02446 5.12115C3.99643 5.14933 3.97655 5.18457 3.96693 5.22313C3.96693 5.22313 3.88733 5.44882 4.15408 5.57796C4.15408 5.57796 4.27434 5.63301 4.3984 5.66857C4.3984 5.66857 4.26206 5.63893 4.20362 5.77358C4.14858 5.9023 4.22903 6.03399 4.47885 6.11867C4.47885 6.11867 4.5466 6.14492 4.64271 6.16821C4.64271 6.16821 4.42888 6.22961 4.53178 6.40236C4.53178 6.40236 4.62323 6.58359 4.94673 6.61577C4.94673 6.61577 4.70538 6.64202 4.87559 6.87151C4.87559 6.87151 4.95054 6.99727 5.18639 7.04385C5.18639 7.04385 5.0077 7.04977 5.09747 7.21025C5.18808 7.37115 5.40021 7.46176 5.60938 7.47658C5.60938 7.47658 5.72244 7.48251 5.80162 7.46473C5.80162 7.46473 5.60261 7.56423 5.71947 7.73064C5.71947 7.73064 5.80543 7.8492 6.02053 7.84327C6.02053 7.84327 5.96506 8.02957 6.12257 8.09986C6.24536 8.15491 6.34741 8.06683 6.34741 8.06683C6.34741 8.06683 6.30591 8.26627 6.48502 8.33655C6.48502 8.33655 6.57436 8.38271 6.70774 8.33655C6.70774 8.33655 6.80936 8.56478 7.17181 8.4043C7.53426 8.24467 7.25734 6.90073 7.25734 6.90073V6.90031ZM7.27851 8.97253C7.27851 8.97253 7.22559 9.25792 6.80428 9.61698C6.80428 9.61698 6.47909 9.90364 6.48714 10.2339C6.49561 10.5705 6.42913 10.6082 6.30126 10.7221C6.30126 10.7221 6.56505 10.7429 6.6925 10.5671C6.6925 10.5671 6.68699 10.8593 6.64804 10.886C6.64804 10.886 6.73103 10.8911 6.85086 10.7602C6.85086 10.7602 6.92284 10.684 6.98974 10.6548C6.98974 10.6548 6.91183 10.8568 6.9728 11.0439C6.9728 11.0439 6.99228 10.9707 7.09517 10.9385C7.09517 10.9385 7.28148 10.9004 7.35346 10.6315C7.35346 10.6315 7.40046 10.4537 7.6922 10.2953C7.6922 10.2953 8.02247 10.1708 8.014 10.0082C8.00553 9.84521 7.27894 8.97253 7.27894 8.97253H7.27851Z" fill="#F4C53D" stroke="#010002" stroke-width="0.075275"/>
<path d="M8.80944 12.6516C8.80944 12.6516 8.73365 12.9853 8.4707 12.9586C8.4707 12.9586 8.28482 12.9408 8.29879 12.6309C8.29879 12.6309 8.02399 12.7774 7.97953 12.4149C7.97953 12.4149 7.72971 12.4729 7.73268 12.1342C7.73268 12.1342 7.49979 12.1748 7.52732 11.8738C7.52732 11.8738 7.27453 11.9415 7.27453 11.6578C7.27453 11.6578 6.68344 11.5596 7.91559 10.4359L9.0148 11.0905L8.80944 12.6516Z" fill="#F4C53D" stroke="#010002" stroke-width="0.075275" stroke-miterlimit="10"/>
<path d="M8.93193 11.1531C8.93193 11.1531 8.74859 11.3157 8.61818 11.0727C8.61818 11.0727 8.44034 11.0642 8.41282 10.9296C8.41282 10.9296 8.26843 10.9152 8.24049 10.7776C8.24049 10.7776 8.04359 10.7572 8.0491 10.5908C8.0491 10.5908 7.69088 10.5629 8.0491 10.1572C8.40731 9.75161 9.01492 10.8305 9.01492 10.8305L8.93193 11.1531ZM9.13602 11.0524C9.31386 11.0524 9.51499 12.1617 9.4629 12.8303C9.44385 13.0729 9.31386 13.2711 9.13602 13.2711C8.95819 13.2711 8.82862 13.0729 8.80999 12.8303C8.75748 12.1617 8.95861 11.0524 9.13602 11.0524Z" fill="#F4C53D" stroke="#010002" stroke-width="0.075275"/>
<path d="M9.13597 11.408C9.2716 11.408 9.38155 11.245 9.38155 11.0439C9.38155 10.8428 9.2716 10.6797 9.13597 10.6797C9.00033 10.6797 8.89038 10.8428 8.89038 11.0439C8.89038 11.245 9.00033 11.408 9.13597 11.408Z" fill="#F4C53D" stroke="#010002" stroke-width="0.075275"/>
<path d="M8.29898 12.6309C8.29898 12.6309 8.32693 12.0436 8.83588 11.2014M7.97972 12.4149C7.97972 12.4149 7.90054 12.0758 8.61824 11.0727C8.61824 11.0727 8.53483 10.8335 8.79015 10.6798M7.73287 12.1342C7.73287 12.1342 7.71042 11.7671 8.41288 10.9296C8.41288 10.9296 8.35064 10.7136 8.60511 10.5409M7.52751 11.8738C7.52751 11.8738 7.55376 11.5029 8.24055 10.7776C8.24055 10.7776 8.20667 10.5557 8.45226 10.4181M7.27515 11.6579C7.27515 11.6579 7.32469 11.234 8.04916 10.5908C8.04916 10.5908 8.02418 10.424 8.26553 10.2546" stroke="#010002" stroke-width="0.075275" stroke-miterlimit="10"/>
<path d="M1.67822 4.81744C1.67822 4.81744 2.24688 5.14687 4.01932 5.47629M1.93058 5.27051C1.93058 5.27051 3.47057 5.77268 4.18784 5.8345M2.53692 5.8345C2.53692 5.8345 3.4405 6.1182 4.49864 6.2973M3.30797 6.4256C3.30797 6.4256 4.32842 6.67076 4.8162 6.71141M3.99307 6.90745C3.99307 6.90745 4.85643 7.08741 5.07491 7.109M4.54267 7.35162C4.54267 7.35162 5.17272 7.44732 5.42339 7.44224M5.32516 7.7344C5.32516 7.7344 5.58005 7.72254 5.70242 7.70222M5.561 8.14385C5.561 8.14385 5.77779 8.08541 5.90524 8.00369M5.88026 8.56769C5.88026 8.56769 6.04709 8.50333 6.12754 8.32803M6.28717 8.72436C6.28717 8.72436 6.41589 8.60876 6.42436 8.48004M6.76987 8.82513C6.76987 8.82513 6.7216 8.78321 6.75463 8.60199M6.70763 8.33608C6.70763 8.33608 6.68222 8.28442 6.69069 8.20228M5.79727 5.74093C5.79727 5.74093 6.08858 5.85779 6.18555 6.01869C6.28294 6.17959 6.219 6.33583 6.18555 6.42518C6.16903 6.47048 5.96368 6.86638 6.20503 7.15304M5.80108 7.46383C5.80108 7.46383 5.80277 7.46256 5.90524 7.42996M5.18627 7.04295C5.18627 7.04295 5.35988 7.07767 5.53051 7.07936M4.94619 6.61445C4.94619 6.61445 5.15028 6.63519 5.34209 6.63223M4.6426 6.16731C4.6426 6.16731 4.93688 6.22574 5.09481 6.22871M4.39828 5.66852C4.39828 5.66852 4.76116 5.77184 5.03088 5.80867M5.63044 6.02208C5.63044 6.02208 5.36961 6.2647 5.68337 6.48996C5.68337 6.48996 5.55296 6.69447 5.81378 6.90788M5.74434 7.00865C5.74434 7.00865 5.70539 7.39905 6.18301 7.39905C6.18301 7.39905 6.09113 7.74668 6.55223 7.73524C6.55223 7.73524 6.60474 8.01301 6.93755 7.95712M6.2046 11.0121C6.2046 11.0121 6.12881 11.029 5.96495 11.0121M5.50426 11.2166C5.50426 11.2166 5.27392 11.1815 5.28493 11.6815M5.64314 11.3305C5.64314 11.3305 5.43482 11.3043 5.44837 11.7895M7.65313 10.1615C7.65313 10.1615 7.5532 10.1818 7.48376 10.261C7.41474 10.3397 7.28136 10.3249 7.28136 10.3249C7.28136 10.3249 7.35335 10.2665 7.37875 10.1204C7.40331 9.9743 7.48418 9.93026 7.48418 9.93026M7.2458 9.79223C7.2458 9.79223 7.14587 9.81255 7.07643 9.89131C7.00699 9.97049 6.87361 9.95567 6.87361 9.95567C6.87361 9.95567 6.94559 9.89724 6.971 9.75116C6.99598 9.60507 7.07643 9.56104 7.07643 9.56104M7.17678 10.3592C7.17678 10.3592 7.08955 10.3774 7.029 10.446C6.96846 10.515 6.85201 10.5023 6.85201 10.5023C6.85201 10.5023 6.91553 10.4515 6.9367 10.3236C6.95872 10.1962 7.029 10.1576 7.029 10.1576" stroke="#010002" stroke-width="0.075275"/>
<path d="M11.7718 10.6433C11.7718 10.6433 11.9831 11.0058 12.2384 11.0117C12.2384 11.0117 12.6775 10.9584 12.8016 11.0731C12.8884 11.1531 12.9769 11.2192 13.0133 11.4237C13.0489 11.6282 12.9434 11.6722 12.9184 11.6811C12.9184 11.6811 12.899 11.8272 12.7546 11.7891C12.7546 11.7891 12.7461 11.9415 12.4912 11.8683C12.2359 11.795 12.13 11.8183 12.0805 11.5643C12.0301 11.3098 11.984 11.314 11.9386 11.2835C11.8777 11.2425 11.7629 11.2039 11.6778 11.1548C11.6016 11.1108 11.3086 10.9617 11.2087 10.9503C11.1087 10.9385 11.1308 10.6023 11.1308 10.6023H11.389L11.514 10.4181L11.7722 10.6433H11.7718ZM10.9588 8.82516C10.9588 8.82516 11.2171 9.0356 11.4339 8.82516C11.4339 8.82516 11.5212 8.93017 11.6965 8.89968C11.8709 8.86877 11.9001 8.77689 11.9166 8.72439C11.9166 8.72439 12.0682 8.81246 12.1961 8.74259C12.3231 8.67315 12.3231 8.56772 12.3231 8.56772C12.3231 8.56772 12.5454 8.61176 12.6593 8.46102C12.7732 8.3107 12.7038 8.16166 12.6424 8.14387C12.6424 8.14387 12.8825 8.20696 12.9481 8.00076C12.9656 7.95471 12.9683 7.90437 12.9558 7.85672C12.9434 7.80907 12.9164 7.76647 12.8786 7.73485C12.8786 7.73485 13.3842 7.73231 13.5917 7.57395C13.5917 7.57395 13.764 7.46555 13.6611 7.35165C13.6611 7.35165 14.1163 7.27882 14.2302 7.0976C14.2302 7.0976 14.2802 7.04764 14.2637 6.95999C14.2637 6.95999 14.2607 6.91045 14.2107 6.90748C14.2107 6.90748 14.7298 6.82703 14.8797 6.65597C14.8797 6.65597 14.9517 6.57721 14.9157 6.47178C14.9157 6.47178 14.9081 6.44426 14.8958 6.42521C14.8958 6.42521 15.3684 6.3257 15.6012 6.11526C15.6012 6.11526 15.7359 5.99543 15.6665 5.83453C15.6665 5.83453 16.4561 5.61859 16.2732 5.27053C16.2732 5.27053 16.6424 5.15071 16.5256 4.81747C16.5256 4.81747 16.8309 4.6625 16.6979 4.41692C16.5705 4.18192 16.1788 4.45799 15.7156 4.58628C15.7156 4.58628 14.4605 4.98091 13.8428 5.08592L12.0873 7.69971L11.063 8.09433L10.9593 8.82516H10.9588Z" fill="#F4C53D" stroke="#010002" stroke-width="0.075275"/>
<path d="M10.9465 6.90031C10.9465 6.90031 11.1112 6.77667 11.4047 6.9219C11.4047 6.9219 11.5033 6.99007 11.5812 6.91555C11.5981 6.89943 11.6112 6.87977 11.6196 6.85797C11.628 6.83618 11.6314 6.8128 11.6297 6.78951C11.6279 6.76623 11.6211 6.74362 11.6095 6.72331C11.598 6.70301 11.5821 6.68551 11.563 6.67208C11.3441 6.50991 11.2632 6.0234 11.596 5.82143C11.596 5.82143 12.0787 5.5352 13.8499 5.08467C13.8499 5.08467 13.9981 5.04318 14.0777 5.06308C14.1162 5.0729 14.1514 5.09297 14.1794 5.12115C14.2074 5.14933 14.2273 5.18457 14.2369 5.22313C14.2369 5.22313 14.3165 5.44882 14.0498 5.57796C14.0498 5.57796 13.9295 5.63301 13.8055 5.66857C13.8055 5.66857 13.9418 5.63893 14.0002 5.77358C14.0553 5.9023 13.9748 6.03399 13.725 6.11867C13.725 6.11867 13.6573 6.14492 13.5611 6.16821C13.5611 6.16821 13.775 6.22961 13.6721 6.40236C13.6721 6.40236 13.5806 6.58359 13.2571 6.61577C13.2571 6.61577 13.4985 6.64202 13.3283 6.87151C13.3283 6.87151 13.2533 6.99727 13.0175 7.04385C13.0175 7.04385 13.1962 7.04977 13.1064 7.21025C13.0158 7.37115 12.8036 7.46176 12.5945 7.47658C12.5945 7.47658 12.4814 7.48251 12.4022 7.46473C12.4022 7.46473 12.6012 7.56423 12.4844 7.73064C12.4844 7.73064 12.3984 7.8492 12.1833 7.84327C12.1833 7.84327 12.2388 8.02957 12.0813 8.09986C11.9585 8.15491 11.8564 8.06683 11.8564 8.06683C11.8564 8.06683 11.8979 8.26627 11.7188 8.33655C11.7188 8.33655 11.6295 8.38271 11.4961 8.33655C11.4961 8.33655 11.3945 8.56478 11.032 8.4043C10.6696 8.24467 10.9465 6.90073 10.9465 6.90073V6.90031ZM10.9253 8.97253C10.9253 8.97253 10.9783 9.25792 11.3996 9.61698C11.3996 9.61698 11.7248 9.90364 11.7167 10.2339C11.7083 10.5705 11.7747 10.6082 11.9026 10.7221C11.9026 10.7221 11.6388 10.7429 11.5114 10.5671C11.5114 10.5671 11.5169 10.8593 11.5558 10.886C11.5558 10.886 11.4728 10.8911 11.353 10.7602C11.353 10.7602 11.281 10.684 11.2141 10.6548C11.2141 10.6548 11.292 10.8568 11.2311 11.0439C11.2311 11.0439 11.2116 10.9707 11.1087 10.9385C11.1087 10.9385 10.9224 10.9004 10.8504 10.6315C10.8504 10.6315 10.8034 10.4537 10.5117 10.2953C10.5117 10.2953 10.1814 10.1708 10.1899 10.0082C10.1983 9.84521 10.9249 8.97253 10.9249 8.97253H10.9253Z" fill="#F4C53D" stroke="#010002" stroke-width="0.075275"/>
<path d="M9.39442 12.6516C9.39442 12.6516 9.47021 12.9853 9.73316 12.9586C9.73316 12.9586 9.91904 12.9408 9.90507 12.6309C9.90507 12.6309 10.1799 12.7774 10.2243 12.4149C10.2243 12.4149 10.4741 12.4729 10.4712 12.1342C10.4712 12.1342 10.7041 12.1748 10.6765 11.8738C10.6765 11.8738 10.9293 11.9415 10.9293 11.6578C10.9293 11.6578 11.5204 11.5596 10.2883 10.4359L9.18906 11.0905L9.39442 12.6516Z" fill="#F4C53D" stroke="#010002" stroke-width="0.075275" stroke-miterlimit="10"/>
<path d="M9.27192 11.1531C9.27192 11.1531 9.45527 11.3157 9.58568 11.0727C9.58568 11.0727 9.76352 11.0642 9.79104 10.9296C9.79104 10.9296 9.93543 10.9152 9.96337 10.7776C9.96337 10.7776 10.1603 10.7572 10.1548 10.5908C10.1548 10.5908 10.513 10.5629 10.1548 10.1572C9.79654 9.75161 9.18893 10.8305 9.18893 10.8305L9.27192 11.1531ZM9.06783 11.0524C8.89 11.0524 8.68887 12.1617 8.74095 12.8303C8.76001 13.0729 8.89 13.2711 9.06783 13.2711C9.24567 13.2711 9.37524 13.0729 9.39387 12.8303C9.44637 12.1617 9.24525 11.0524 9.06783 11.0524Z" fill="#F4C53D" stroke="#010002" stroke-width="0.075275"/>
<path d="M9.06789 11.408C8.93226 11.408 8.82231 11.245 8.82231 11.0439C8.82231 10.8428 8.93226 10.6797 9.06789 10.6797C9.20352 10.6797 9.31348 10.8428 9.31348 11.0439C9.31348 11.245 9.20352 11.408 9.06789 11.408Z" fill="#F4C53D" stroke="#010002" stroke-width="0.075275"/>
<path d="M9.90488 12.6309C9.90488 12.6309 9.87693 12.0436 9.36798 11.2014M10.2241 12.4149C10.2241 12.4149 10.3033 12.0758 9.58562 11.0727C9.58562 11.0727 9.66903 10.8335 9.41371 10.6798M10.471 12.1342C10.471 12.1342 10.4934 11.7671 9.79098 10.9296C9.79098 10.9296 9.85322 10.7136 9.59874 10.5409M10.6764 11.8738C10.6764 11.8738 10.6501 11.5029 9.96331 10.7776C9.96331 10.7776 9.99718 10.5557 9.7516 10.4181M10.9287 11.6579C10.9287 11.6579 10.8792 11.234 10.1547 10.5908C10.1547 10.5908 10.1797 10.424 9.93833 10.2546" stroke="#010002" stroke-width="0.075275" stroke-miterlimit="10"/>
<path d="M16.5256 4.81744C16.5256 4.81744 15.957 5.14687 14.1845 5.47629M16.2733 5.27051C16.2733 5.27051 14.7333 5.77268 14.016 5.8345M15.6669 5.8345C15.6669 5.8345 14.7634 6.1182 13.7052 6.2973M14.8959 6.4256C14.8959 6.4256 13.8754 6.67076 13.3877 6.71141M14.2108 6.90745C14.2108 6.90745 13.3474 7.08741 13.1289 7.109M13.6612 7.35162C13.6612 7.35162 13.0311 7.44732 12.7805 7.44224M12.8787 7.7344C12.8787 7.7344 12.6238 7.72254 12.5014 7.70222M12.6429 8.14385C12.6429 8.14385 12.4261 8.08541 12.2986 8.00369M12.3236 8.56769C12.3236 8.56769 12.1568 8.50333 12.0763 8.32803M11.9167 8.72436C11.9167 8.72436 11.788 8.60876 11.7795 8.48004M11.434 8.82513C11.434 8.82513 11.4823 8.78321 11.4492 8.60199M11.4962 8.33608C11.4962 8.33608 11.5216 8.28442 11.5132 8.20228M12.4066 5.74093C12.4066 5.74093 12.1153 5.85779 12.0183 6.01869C11.9209 6.17959 11.9849 6.33583 12.0183 6.42518C12.0348 6.47048 12.2402 6.86638 11.9988 7.15304M12.4028 7.46383C12.4028 7.46383 12.4011 7.46256 12.2986 7.42996M13.0176 7.04295C13.0176 7.04295 12.844 7.07767 12.6733 7.07936M13.2577 6.61445C13.2577 6.61445 13.0536 6.63519 12.8618 6.63223M13.5613 6.16731C13.5613 6.16731 13.267 6.22574 13.109 6.22871M13.8056 5.66852C13.8056 5.66852 13.4427 5.77184 13.173 5.80867M12.5734 6.02208C12.5734 6.02208 12.8342 6.2647 12.5205 6.48996C12.5205 6.48996 12.6509 6.69447 12.3901 6.90788M12.4595 7.00865C12.4595 7.00865 12.4985 7.39905 12.0209 7.39905C12.0209 7.39905 12.1127 7.74668 11.6516 7.73524C11.6516 7.73524 11.5991 8.01301 11.2663 7.95712M11.9993 11.0121C11.9993 11.0121 12.075 11.029 12.2389 11.0121M12.6996 11.2166C12.6996 11.2166 12.9299 11.1815 12.9189 11.6815M12.5607 11.3305C12.5607 11.3305 12.769 11.3043 12.7555 11.7895M10.5507 10.1615C10.5507 10.1615 10.6507 10.1818 10.7201 10.261C10.7891 10.3397 10.9225 10.3249 10.9225 10.3249C10.9225 10.3249 10.8505 10.2665 10.8251 10.1204C10.8005 9.9743 10.7197 9.93026 10.7197 9.93026M10.9581 9.79223C10.9581 9.79223 11.058 9.81255 11.1274 9.89131C11.1969 9.97049 11.3302 9.95567 11.3302 9.95567C11.3302 9.95567 11.2583 9.89724 11.2329 9.75116C11.2079 9.60507 11.1274 9.56104 11.1274 9.56104M11.0271 10.3592C11.0271 10.3592 11.1143 10.3774 11.1749 10.446C11.2354 10.515 11.3518 10.5023 11.3518 10.5023C11.3518 10.5023 11.2883 10.4515 11.2672 10.3236C11.2451 10.1962 11.1749 10.1576 11.1749 10.1576" stroke="#010002" stroke-width="0.075275"/>
<path d="M13.3489 9.58712L13.1063 9.4465L12.7055 11.1867L12.5403 11.0672L12.9305 9.40079L12.6563 9.40782L13.3067 8.21954L13.3489 9.59064V9.58712ZM14.2981 10.0582L14.1469 9.81212L12.9375 11.243L12.8075 11.0953L14.0133 9.68907L13.7672 9.55548L14.8711 8.82775L14.2981 10.0582Z" fill="#0081C6" stroke="#010002" stroke-width="0.075" stroke-miterlimit="10"/>
<path d="M14.0554 9.26013L13.855 9.05623L12.7722 11.1375L12.6069 11.039L13.6968 8.96482L13.4296 8.89451L14.3472 7.92419L14.0519 9.26013H14.0554ZM12.505 11.7738L12.4241 12.1043L12.6456 12.3258L12.3292 13.6476L12.0515 13.275L11.6401 13.4683L11.9565 12.1429L12.2448 12.0621L12.3187 11.7316C12.3187 11.7316 12.4065 11.6965 12.505 11.7738Z" fill="#0081C6" stroke="#010002" stroke-width="0.075" stroke-miterlimit="10"/>
<path d="M12.579 11.5524L12.4208 11.8512L12.579 12.1254L11.9497 13.3207L11.7739 12.8813L11.3274 12.9551L11.9567 11.7598H12.2555L12.4102 11.4645C12.4102 11.4645 12.5227 11.4645 12.579 11.5524Z" fill="#0081C6" stroke="#010002" stroke-width="0.075" stroke-miterlimit="10"/>
<path d="M12.607 11.6402L12.1816 12.1816L12.2801 12.484L11.4117 13.5L11.3309 13.0324L10.8809 12.9973L11.7492 11.9812L12.041 12.0516L12.491 11.482C12.491 11.482 12.6141 11.5418 12.607 11.6402ZM1.84219 10.3746C1.94414 10.3324 2.01797 10.2938 2.01797 10.1848C2.01797 10.1602 2.00391 10.1039 1.97227 10.016L1.29375 7.93828C1.27071 7.86147 1.24252 7.7863 1.20938 7.71328C1.17773 7.65352 1.11797 7.62891 1.03711 7.59727H1.90195C1.80703 7.63945 1.72266 7.67461 1.72617 7.77305C1.72617 7.81523 1.7332 7.86797 1.7543 7.93828L2.27813 9.5625L2.79844 7.93477C2.81953 7.86445 2.83359 7.81172 2.83359 7.77305C2.83008 7.66758 2.73867 7.63242 2.65078 7.59375H3.49102C3.41367 7.62539 3.35039 7.64648 3.31875 7.70977C3.30469 7.73789 3.27305 7.8082 3.23438 7.93477L2.55586 10.009C2.53563 10.0662 2.52034 10.125 2.51016 10.1848C2.51016 10.1848 2.47852 10.3148 2.68594 10.3711H1.84219V10.3746ZM16.3336 10.1637V7.8082C16.3348 7.7764 16.3275 7.74485 16.3125 7.7168C16.302 7.69219 16.2422 7.63242 16.1578 7.59727H16.9383C16.8761 7.61926 16.8221 7.65974 16.7836 7.71328C16.7683 7.7425 16.761 7.77525 16.7625 7.8082V10.1637C16.7625 10.2023 16.7695 10.234 16.7836 10.2586C16.7977 10.2797 16.8539 10.3359 16.9383 10.3746H16.1578C16.2422 10.3395 16.2984 10.2797 16.3125 10.2586C16.3266 10.234 16.3336 10.2023 16.3336 10.1602V10.1637Z" fill="#0081C6" stroke="#010002" stroke-width="0.075" stroke-miterlimit="10"/>
<path d="M9.13721 10.9617C9.13721 10.9617 11.2185 10.0371 11.2255 7.90314H7.04541C7.05244 10.0371 9.13721 10.9617 9.13721 10.9617Z" fill="white" stroke="#010002" stroke-width="0.075"/>
<path d="M7.36865 7.90314V9.2672C7.36865 9.2672 7.52686 9.58361 7.68857 9.784V7.90314H7.36865ZM8.01201 7.90314V10.1531C8.01201 10.1531 8.2124 10.35 8.33193 10.4449V7.90314H8.0085H8.01201ZM8.65186 7.90314V10.6805C8.65186 10.6805 8.88389 10.8317 8.97529 10.8809V7.90314H8.64834H8.65186ZM10.9019 7.90314V9.2672C10.9019 9.2672 10.7437 9.58361 10.5819 9.784V7.90314H10.9019ZM10.2585 7.90314V10.1531C10.2585 10.1531 10.0581 10.35 9.94209 10.4449V7.90314H10.2585ZM9.61865 7.90314V10.6805C9.61865 10.6805 9.38662 10.8317 9.29521 10.8809V7.90314H9.61865Z" fill="#A60032" stroke="#010002" stroke-width="0.075"/>
<path d="M11.2255 6.34919C11.2255 6.34919 10.2024 6.88357 9.13721 6.30701C8.06846 6.88357 7.04541 6.34919 7.04541 6.34919V7.9031H11.2255V6.34919Z" fill="#162667" stroke="#010002" stroke-width="0.075" stroke-miterlimit="10"/>
</g>
<defs>
<clipPath id="clip0_14_1078">
<rect width="18" height="18" rx="9" fill="white"/>
</clipPath>
</defs>
</svg>
