<svg width="18" height="18" viewBox="0 0 18 18" fill="none" xmlns="http://www.w3.org/2000/svg">
<g clip-path="url(#clip0_14_1192)">
<path d="M0 0H18V18H0V0Z" fill="#009543"/>
<path d="M0 0H18V9H0V0Z" fill="#D21034"/>
<mask id="mask0_14_1192" style="mask-type:luminance" maskUnits="userSpaceOnUse" x="0" y="0" width="18" height="18">
<path d="M0 0V18.0001L8.40002 10.6106H18V7.38951H8.40002L0 0Z" fill="white"/>
</mask>
<g mask="url(#mask0_14_1192)">
<path d="M0 0L8.40002 7.38951H18V10.6106H8.40002L0 18.0001" fill="black"/>
<path d="M0 0L8.40002 7.38951H18V10.6106H8.40002L0 18.0001" stroke="#FDCE12" stroke-width="5.38364"/>
<path d="M0 0L8.40002 7.38951H18M18 10.6106H8.40002L0 18.0001" stroke="black" stroke-width="2.93653"/>
</g>
<path d="M2.37703 10.5448V11.4613C3.17471 11.4613 4.74293 10.8503 4.74293 8.87817C4.74293 6.90602 3.06949 6.53943 2.57051 6.53943C2.06814 6.53943 0.523682 6.89924 0.523682 8.50818C0.523682 10.1239 2.04098 10.2733 2.33969 10.2733C2.6384 10.2733 3.75855 10.0017 3.62956 8.79331C3.59612 9.08824 3.455 9.36045 3.23326 9.55776C3.01152 9.75508 2.72476 9.86361 2.42794 9.86255C1.61329 9.86255 1.10413 9.25835 1.10413 8.66093C1.10413 8.06352 1.59971 7.26244 2.45849 7.26244C3.31728 7.26244 3.94524 8.02618 3.94524 8.79331C3.94524 9.56384 3.34104 10.5414 2.37703 10.5414V10.5448Z" fill="#FDCE12"/>
<path d="M1.67444 9.34659L1.72196 9.38053C1.72196 9.38053 2.10213 8.51496 3.11706 7.90057C2.98807 7.96846 2.30919 8.3079 1.67444 9.34659Z" fill="#FDCE12" stroke="#FDCE12" stroke-width="0.048276"/>
<path d="M1.77285 9.19726C1.77285 9.19726 1.65744 8.95965 1.75927 8.85103C1.86111 8.7458 1.81698 9.13277 1.81698 9.13277L1.86111 9.06827C1.86111 9.06827 1.79322 8.77635 1.86789 8.71525C1.94597 8.65076 1.90863 8.99699 1.90863 8.99699L1.95615 8.93589C1.95615 8.93589 1.90523 8.65076 1.97991 8.59645C2.05798 8.54214 2.01046 8.868 2.01046 8.868L2.06477 8.80011C2.06477 8.80011 2.02404 8.52856 2.11569 8.46407C2.20734 8.39957 2.12587 8.72204 2.12587 8.72204L2.18697 8.65415C2.18697 8.65415 2.15981 8.40636 2.23788 8.34866C2.31596 8.29435 2.25146 8.58627 2.25146 8.58627L2.30577 8.52517C2.30577 8.52517 2.2888 8.29435 2.36348 8.24004C2.44155 8.18573 2.37027 8.46067 2.37027 8.46067L2.42797 8.40636C2.42797 8.40636 2.41439 8.17215 2.50944 8.12802C2.60448 8.08389 2.49247 8.34526 2.49247 8.34526L2.56035 8.29095C2.56035 8.29095 2.57733 8.0194 2.65879 7.99564C2.74026 7.96848 2.62485 8.23325 2.62485 8.23325L2.68255 8.18573C2.68255 8.18573 2.7131 7.95491 2.80136 7.92775C2.89301 7.8972 2.74705 8.1382 2.74705 8.1382L2.80475 8.09408C2.80475 8.09408 2.86924 7.86326 2.9541 7.8361C3.03557 7.81234 2.86585 8.05674 2.86585 8.05674L2.92355 8.01601C2.92355 8.01601 3.0152 7.80555 3.09328 7.79197C3.16456 7.7784 3.00502 7.96509 3.00502 7.96509L3.0763 7.92436C3.0763 7.92436 3.19511 7.70712 3.23923 7.77161C3.27997 7.8395 3.06951 7.93793 3.06951 7.93793L3.00163 7.97867C3.00163 7.97867 3.25621 7.85647 3.28676 7.91757C3.31731 7.97867 2.93713 8.0194 2.93713 8.0194L2.87603 8.06013C2.87603 8.06013 3.13061 7.99224 3.10006 8.05674C3.06612 8.12123 2.81493 8.10765 2.81493 8.10765L2.75723 8.14839C2.75723 8.14839 3.01181 8.08729 2.97787 8.14839C2.94392 8.2027 2.69613 8.1993 2.69613 8.1993L2.63503 8.25022C2.63503 8.25022 2.88282 8.18233 2.84548 8.2604C2.81154 8.33508 2.52641 8.33169 2.52641 8.33169L2.45852 8.39957C2.45852 8.39957 2.71989 8.30792 2.69613 8.37921C2.67576 8.4471 2.37706 8.48104 2.37706 8.48104L2.30917 8.54893C2.30917 8.54893 2.5909 8.45728 2.50604 8.54214C2.42458 8.63039 2.21752 8.65076 2.21752 8.65076L2.13945 8.75259C2.13945 8.75259 2.41779 8.58287 2.37706 8.67792C2.33972 8.77296 2.06477 8.83745 2.06477 8.83745L2.01046 8.90534C2.01046 8.90534 2.26165 8.75938 2.23449 8.83745C2.21073 8.92231 1.94257 9.00717 1.94257 9.00717L1.89844 9.06827C1.89844 9.06827 2.19376 8.89176 2.17 8.98341C2.14284 9.07167 1.86111 9.13616 1.86111 9.13616L1.82716 9.19386C1.82716 9.19386 2.09871 9.03433 2.09871 9.1124C2.1055 9.18708 1.77964 9.26175 1.77964 9.26175L1.77285 9.19726Z" fill="#FDCE12"/>
<path d="M3.29016 9.34659L3.24264 9.38053C3.24264 9.38053 2.86247 8.51496 1.84754 7.90057C1.97653 7.96846 2.65541 8.3079 3.29016 9.34659Z" fill="#FDCE12" stroke="#FDCE12" stroke-width="0.048276"/>
<path d="M3.19175 9.19726C3.19175 9.19726 3.30716 8.95965 3.20533 8.85103C3.10349 8.7458 3.14762 9.13277 3.14762 9.13277L3.10349 9.06827C3.10349 9.06827 3.17138 8.77635 3.09671 8.71525C3.01863 8.65076 3.05597 8.99699 3.05597 8.99699L3.00845 8.93589C3.00845 8.93589 3.05937 8.65076 2.98469 8.59645C2.90662 8.54214 2.95414 8.868 2.95414 8.868L2.89983 8.80011C2.89983 8.80011 2.94056 8.52856 2.84891 8.46407C2.75726 8.39957 2.83873 8.72204 2.83873 8.72204L2.77763 8.65415C2.77763 8.65415 2.80479 8.40636 2.72671 8.34866C2.64864 8.29435 2.71314 8.58627 2.71314 8.58627L2.65883 8.52517C2.65883 8.52517 2.6758 8.29435 2.60112 8.24004C2.52305 8.18573 2.59433 8.46067 2.59433 8.46067L2.53663 8.40636C2.53663 8.40636 2.55021 8.17215 2.45516 8.12802C2.36012 8.08389 2.47213 8.34526 2.47213 8.34526L2.40425 8.29095C2.40425 8.29095 2.38727 8.0194 2.30581 7.99564C2.22434 7.96848 2.33975 8.23325 2.33975 8.23325L2.28205 8.18573C2.28205 8.18573 2.2515 7.95491 2.16324 7.92775C2.07159 7.8972 2.21755 8.1382 2.21755 8.1382L2.15985 8.09408C2.15985 8.09408 2.09536 7.86326 2.0105 7.8361C1.92903 7.81234 2.09875 8.05674 2.09875 8.05674L2.04104 8.01601C2.04104 8.01601 1.9494 7.80555 1.87132 7.79197C1.80004 7.7784 1.95958 7.96509 1.95958 7.96509L1.8883 7.92436C1.8883 7.92436 1.76949 7.70712 1.72536 7.77161C1.68463 7.8395 1.89509 7.93793 1.89509 7.93793L1.96297 7.97867C1.96297 7.97867 1.70839 7.85647 1.67784 7.91757C1.64729 7.97867 2.02747 8.0194 2.02747 8.0194L2.08857 8.06013C2.08857 8.06013 1.83399 7.99224 1.86454 8.05674C1.89848 8.12123 2.14967 8.10765 2.14967 8.10765L2.20737 8.14839C2.20737 8.14839 1.95279 8.08729 1.98673 8.14839C2.02068 8.2027 2.26847 8.1993 2.26847 8.1993L2.32957 8.25022C2.32957 8.25022 2.08178 8.18233 2.11912 8.2604C2.15306 8.33508 2.43819 8.33169 2.43819 8.33169L2.50608 8.39957C2.50608 8.39957 2.24471 8.30792 2.26847 8.37921C2.28884 8.4471 2.58754 8.48104 2.58754 8.48104L2.65543 8.54893C2.65543 8.54893 2.3737 8.45728 2.45856 8.54214C2.54002 8.63039 2.74708 8.65076 2.74708 8.65076L2.82515 8.75259C2.82515 8.75259 2.54681 8.58287 2.58754 8.67792C2.62488 8.77296 2.89983 8.83745 2.89983 8.83745L2.95414 8.90534C2.95414 8.90534 2.70295 8.75938 2.73011 8.83745C2.75387 8.92231 3.02203 9.00717 3.02203 9.00717L3.06616 9.06827C3.06616 9.06827 2.77084 8.89176 2.7946 8.98341C2.82176 9.07167 3.10349 9.13616 3.10349 9.13616L3.13744 9.19386C3.13744 9.19386 2.86589 9.03433 2.86589 9.1124C2.8591 9.18708 3.18496 9.26175 3.18496 9.26175L3.19175 9.19726Z" fill="#FDCE12"/>
</g>
<defs>
<clipPath id="clip0_14_1192">
<rect width="18" height="18" rx="9" fill="white"/>
</clipPath>
</defs>
</svg>
