<svg width="18" height="18" viewBox="0 0 18 18" fill="none" xmlns="http://www.w3.org/2000/svg">
<g clip-path="url(#clip0_14_1287)">
<path fill-rule="evenodd" clip-rule="evenodd" d="M0 0H18V18H0V0Z" fill="#CE1126"/>
<path fill-rule="evenodd" clip-rule="evenodd" d="M0 0H9V9H0V0Z" fill="#002B7F"/>
<path fill-rule="evenodd" clip-rule="evenodd" d="M5.16797 8.13513L4.47891 7.66755L3.81445 8.14216L4.02539 7.31599L3.39258 6.79919L4.2082 6.75349L4.47891 5.96599L4.77773 6.76755L5.5793 6.78513L4.93945 7.33005L5.16797 8.13513ZM5.04844 2.62263L4.5 2.27107L3.95859 2.62263L4.10625 1.95466L3.62461 1.52927L4.26797 1.47302L4.50703 0.857788L4.75664 1.48005L5.38945 1.52927L4.89727 1.96873L5.04844 2.62263ZM2.61211 4.60544L2.07773 4.22576L1.53633 4.59138L1.69805 3.94802L1.19531 3.52263L1.83516 3.49451L2.0707 2.85818L2.30273 3.48396L2.94609 3.52263L2.44336 3.94451L2.61211 4.60544ZM7.49883 4.15896L6.98203 3.82498L6.4793 4.16599L6.61992 3.55427L6.16289 3.16052L6.77109 3.1113L6.98203 2.53474L7.21406 3.11833L7.80469 3.15349L7.34063 3.5613L7.49883 4.15896ZM6.05391 5.61091L5.71289 5.39294L5.37539 5.61091L5.46328 5.2031L5.15742 4.9324L5.5582 4.89724L5.71289 4.51052L5.87109 4.89724L6.26484 4.9324L5.96602 5.2031L6.05391 5.61091Z" fill="white"/>
</g>
<defs>
<clipPath id="clip0_14_1287">
<rect width="18" height="18" rx="9" fill="white"/>
</clipPath>
</defs>
</svg>
