<svg width="18" height="18" viewBox="0 0 18 18" fill="none" xmlns="http://www.w3.org/2000/svg">
<g clip-path="url(#clip0_8201_11239)">
<path d="M18 9C18 13.9705 13.9705 18 9 18C4.02947 18 0 13.9705 0 9C3.09129 5.90871 5.71303 3.28697 9 0C13.9705 0 18 4.02947 18 9Z" fill="#D80027"/>
<path d="M9 9C9 4.02947 9 3.44348 9 0C4.02947 0 0 4.02947 0 9H9Z" fill="#0052B4"/>
<path d="M7.20897 5.86963L7.35469 6.31805H7.82613L7.44469 6.59511L7.59041 7.04353L7.20897 6.76639L6.82752 7.04353L6.97324 6.59511L6.5918 6.31805H7.06324L7.20897 5.86963Z" fill="#F0F0F0"/>
<path d="M4.8411 2.3479L5.08393 3.09529H5.86974L5.23397 3.55706L5.47687 4.30442L4.8411 3.8425L4.20537 4.30442L4.44823 3.55706L3.8125 3.09529H4.59824L4.8411 2.3479Z" fill="#F0F0F0"/>
<path d="M7.18876 3.13049L7.43158 3.87792H8.21736L7.58163 4.33969L7.82445 5.08704L7.18876 4.62513L6.55303 5.08704L6.79589 4.33969L6.16016 3.87792H6.9459L7.18876 3.13049Z" fill="#F0F0F0"/>
<path d="M5.3328 6.26099L5.57566 7.00837H6.3614L5.72567 7.47015L5.96853 8.2175L5.3328 7.75562L4.69707 8.2175L4.93993 7.47015L4.3042 7.00837H5.08998L5.3328 6.26099Z" fill="#F0F0F0"/>
<path d="M3.27564 4.30444L3.5185 5.05183H4.30427L3.66851 5.51361L3.91137 6.26096L3.27564 5.79908L2.63994 6.26096L2.88277 5.51361L2.24707 5.05183H3.03281L3.27564 4.30444Z" fill="#F0F0F0"/>
</g>
<defs>
<clipPath id="clip0_8201_11239">
<rect width="18" height="18" fill="white"/>
</clipPath>
</defs>
</svg>
