<svg width="18" height="18" viewBox="0 0 18 18" fill="none" xmlns="http://www.w3.org/2000/svg">
<g clip-path="url(#clip0_14_1077)">
<path d="M0 0H18V18H0V0Z" fill="#244AA5"/>
<path d="M7.11206 8.63791L7.15776 8.6133L7.21401 8.59572C7.21401 8.59572 7.24214 8.58166 7.2562 8.58166C7.27026 8.58166 7.3019 8.59924 7.30894 8.6133C7.31948 8.62736 7.3687 8.64846 7.3687 8.64846C7.3687 8.64846 7.40386 8.66252 7.40737 8.64846C7.4144 8.64142 7.42847 8.63088 7.44253 8.63088C7.45659 8.63088 7.46362 8.61682 7.46362 8.60627C7.46362 8.59572 7.47065 8.58166 7.4812 8.5676C7.49175 8.55353 7.51636 8.5465 7.51636 8.5465C7.51636 8.5465 7.55151 8.53244 7.55151 8.51135C7.55151 8.49025 7.59019 8.47619 7.61128 8.47619C7.62886 8.47267 7.61128 8.46213 7.65698 8.46916C7.7062 8.47267 7.71323 8.45861 7.71675 8.44455C7.71675 8.42697 7.71675 8.41291 7.74839 8.41642C7.77651 8.41994 7.79409 8.41994 7.79409 8.40236C7.79409 8.3883 7.82222 8.37775 7.773 8.36721C7.72378 8.34963 7.72729 8.36017 7.72378 8.33908C7.72026 8.31447 7.72378 8.31799 7.68862 8.31447C7.65347 8.31447 7.67456 8.29689 7.67104 8.27932C7.67104 8.26174 7.6605 8.25471 7.65347 8.24416C7.64644 8.2301 7.62886 8.2301 7.62886 8.21603C7.62886 8.19846 7.62886 8.18791 7.60776 8.18791C7.58667 8.18791 7.58315 8.18791 7.58315 8.17385C7.58315 8.15627 7.58667 8.14221 7.60425 8.14221C7.62183 8.14221 7.63237 8.12814 7.62886 8.11057V8.05783L7.64995 8.02971L7.73081 7.95939C7.73784 7.94885 7.76245 7.9383 7.773 7.95939C7.78355 7.984 7.79058 7.99103 7.80112 8.00158C7.80815 8.01213 7.83628 8.00158 7.84331 7.99455C7.85034 7.98049 7.85034 7.94182 7.86792 7.91721C7.8855 7.89611 7.89604 7.88205 7.89956 7.86799C7.90308 7.85392 7.91011 7.83283 7.9312 7.83283C7.9523 7.83283 7.96284 7.80822 7.96284 7.79416C7.96284 7.7801 7.96987 7.76252 7.998 7.759C8.01909 7.759 8.03315 7.74142 8.04019 7.76252C8.04722 7.78713 8.05425 7.78713 8.07183 7.79416C8.08589 7.80119 8.10698 7.81174 8.12104 7.80119C8.13511 7.79064 8.13862 7.77307 8.1562 7.78361C8.17378 7.79416 8.18784 7.78361 8.19136 7.76252L8.19839 7.70978C8.19839 7.70978 8.2019 7.69572 8.23354 7.69572C8.26519 7.69572 8.24058 7.67814 8.25464 7.6676C8.27222 7.65353 8.27222 7.64299 8.28979 7.65002C8.31089 7.65705 8.34253 7.64299 8.32495 7.62541C8.31089 7.60432 8.27573 7.57619 8.29331 7.5551C8.3144 7.534 8.32144 7.49533 8.30386 7.49182C8.28276 7.4883 8.25464 7.49533 8.25112 7.47424C8.24761 7.45314 8.24058 7.43908 8.26167 7.43205C8.28628 7.43205 8.32847 7.43205 8.33901 7.41799C8.34956 7.40392 8.39175 7.40041 8.39175 7.36877C8.39175 7.33361 8.4023 7.33361 8.40581 7.31252C8.40933 7.29494 8.40933 7.25627 8.39526 7.23869C8.37803 7.22165 8.36271 7.20279 8.34956 7.18244C8.34525 7.17405 8.33929 7.16661 8.33204 7.16057C8.32479 7.15453 8.3164 7.15001 8.30737 7.14728C8.28276 7.14025 8.26167 7.13674 8.26167 7.11916C8.26167 7.09807 8.27925 7.11916 8.27925 7.07346C8.27925 7.02775 8.24409 7.01721 8.24409 7.01721L8.19839 6.98908C8.19839 6.98908 8.11401 6.96799 8.09292 6.96799C8.07183 6.96799 8.0437 6.94338 8.06831 6.92932C8.09644 6.91174 8.10347 6.88713 8.09292 6.86603C8.08237 6.84494 8.07534 6.83088 8.04019 6.82033C8.00503 6.80978 7.99448 6.80275 8.00854 6.78166C8.02612 6.76057 8.02964 6.7465 8.05073 6.76057C8.06831 6.77463 8.09995 6.78166 8.12808 6.7676C8.15269 6.75705 8.16323 6.7465 8.1773 6.76057C8.18784 6.77111 8.20542 6.78517 8.22651 6.7676C8.24409 6.7465 8.27925 6.7465 8.29683 6.75353C8.3144 6.76408 8.35308 6.76057 8.36714 6.75353C8.37769 6.7465 8.40229 6.72541 8.40229 6.71486C8.40229 6.70432 8.41987 6.67971 8.43745 6.67267C8.45151 6.66213 8.47261 6.634 8.49019 6.634C8.50776 6.634 8.51128 6.61642 8.51128 6.60236C8.51128 6.5883 8.52534 6.56721 8.52886 6.56018C8.52886 6.54963 8.56401 6.53557 8.58511 6.55666C8.60972 6.57424 8.63784 6.58127 8.63784 6.58127H8.68706C8.70464 6.57424 8.72573 6.56721 8.75034 6.58127C8.77144 6.59885 8.80659 6.59885 8.80659 6.59885L8.81011 6.56369C8.81011 6.54963 8.81714 6.52853 8.80659 6.5215C8.79253 6.51096 8.77495 6.50041 8.80308 6.47932C8.82769 6.46174 8.82769 6.46525 8.85229 6.46525L8.91558 6.46877C8.93667 6.46877 8.96831 6.48635 8.96831 6.50392C8.96831 6.5215 8.98237 6.53557 8.99644 6.5426C9.01401 6.55314 9.03159 6.56018 9.02808 6.57775C9.02104 6.59182 9.02105 6.60236 9.03862 6.60236C9.05972 6.59885 9.06675 6.60939 9.06675 6.62346C9.06675 6.63752 9.07026 6.64807 9.09136 6.6551C9.11245 6.66213 9.11948 6.67267 9.11948 6.69025L9.123 6.72541C9.12651 6.73947 9.15112 6.76408 9.15112 6.76408C9.15112 6.76408 9.18628 6.80627 9.14058 6.78517C9.09487 6.76408 9.08433 6.75705 9.07026 6.76057C9.05269 6.76057 9.04214 6.77111 9.04214 6.77111L9.00698 6.77814C8.98589 6.77814 8.97183 6.8133 8.99644 6.81682C9.02456 6.82385 9.03159 6.82736 9.03159 6.85197C9.03159 6.87658 9.02456 6.86603 9.0105 6.8801C8.99644 6.89416 8.98589 6.88713 8.96479 6.88713C8.94019 6.88713 8.93667 6.90471 8.93667 6.92228C8.93667 6.93986 8.9437 6.93635 8.95425 6.95041C8.96479 6.96799 8.98237 6.96799 8.99644 6.95392C9.01401 6.93986 9.02808 6.92932 9.03511 6.95744C9.04214 6.98557 9.05972 6.98557 9.0773 6.98557C9.09839 6.98557 9.10542 6.98557 9.11948 6.97502C9.13706 6.96799 9.15464 6.97502 9.16167 6.99963C9.16167 7.02424 9.17925 7.02775 9.19683 7.03478C9.21089 7.04533 9.22144 7.05236 9.22495 7.06642C9.22847 7.08049 9.23901 7.08752 9.25308 7.07697C9.27065 7.06994 9.29526 7.06291 9.30581 7.07697L9.33394 7.11213V7.14025L9.39722 7.16135L9.40425 7.18947C9.40425 7.20353 9.4148 7.20705 9.42886 7.20353H9.47456C9.47456 7.20353 9.49917 7.19299 9.49917 7.17541C9.49917 7.15783 9.50972 7.15432 9.52378 7.15432C9.54136 7.15432 9.57651 7.16486 9.58706 7.14728C9.59761 7.12971 9.62573 7.12267 9.64683 7.13322L9.7312 7.16486C9.7312 7.16486 9.72417 7.16486 9.74175 7.20002C9.76284 7.22814 9.798 7.22814 9.798 7.22814L9.80854 7.26682C9.81558 7.27736 9.8437 7.28439 9.86128 7.27385C9.87534 7.25978 9.89644 7.24572 9.91753 7.24572C9.93862 7.24572 9.95269 7.24572 9.95269 7.23517C9.95269 7.22463 9.93159 7.21408 9.93159 7.19299C9.93159 7.17541 9.95269 7.17541 9.9562 7.15783C9.9562 7.14025 9.9773 7.15783 9.99136 7.16838C10.0019 7.17541 10.0195 7.19299 10.0195 7.20353C10.0195 7.21408 10.0476 7.25627 10.0617 7.2633C10.0792 7.27033 10.1214 7.27385 10.132 7.25627C10.146 7.24221 10.1777 7.23517 10.1777 7.27385C10.1742 7.309 10.1671 7.309 10.1882 7.32307C10.2128 7.33713 10.2164 7.37932 10.1953 7.38986C10.1777 7.40041 10.1707 7.40392 10.1707 7.42502C10.1707 7.44611 10.1636 7.47072 10.1777 7.48127C10.1953 7.49533 10.2058 7.50236 10.2058 7.51642C10.2058 7.53049 10.2234 7.58322 10.2234 7.58322C10.2234 7.58322 10.2339 7.63596 10.2304 7.6465C10.2269 7.65705 10.2234 7.68166 10.2515 7.67814C10.2796 7.67463 10.2867 7.67463 10.2867 7.69924C10.2867 7.72385 10.2972 7.73439 10.2796 7.74142C10.2656 7.74846 10.255 7.77658 10.2691 7.78713C10.2867 7.79064 10.3007 7.80119 10.3042 7.81174C10.3042 7.8258 10.3324 7.84689 10.35 7.83283C10.364 7.82228 10.3675 7.81525 10.3816 7.81174C10.3957 7.81174 10.4027 7.80119 10.3921 7.78713C10.3781 7.76955 10.3746 7.75549 10.3886 7.74494C10.4027 7.73791 10.4062 7.70978 10.4062 7.70978C10.4062 7.70978 10.4273 7.68166 10.4484 7.70978C10.473 7.73439 10.4765 7.72385 10.4906 7.72385C10.5082 7.72385 10.5152 7.74142 10.5152 7.75549C10.5152 7.76955 10.5503 7.76603 10.5503 7.79064L10.5539 7.8715C10.5539 7.8715 10.5539 7.90666 10.575 7.91721C10.5925 7.93127 10.589 7.93127 10.5785 7.94885C10.5714 7.96291 10.575 7.984 10.575 7.99807C10.575 8.01213 10.5785 8.01564 10.5644 8.02971C10.5468 8.04025 10.5398 8.05432 10.5503 8.07189C10.5609 8.09299 10.5574 8.10353 10.5855 8.12463C10.6101 8.14572 10.6066 8.15627 10.6066 8.17033C10.6066 8.18439 10.6312 8.20549 10.6312 8.21955C10.6312 8.23713 10.6523 8.25471 10.6664 8.25471C10.6804 8.25471 10.7015 8.28635 10.7015 8.30041L10.7085 8.35666C10.7085 8.35666 10.705 8.36369 10.7226 8.36369C10.7437 8.36369 10.7578 8.38478 10.7613 8.36369C10.7683 8.33908 10.7894 8.33557 10.8 8.32853C10.814 8.3215 10.8421 8.31096 10.8527 8.31799C10.8667 8.32853 10.8843 8.32853 10.8949 8.32853H10.9722C10.9722 8.32853 10.9863 8.32853 10.9968 8.35314C11.0074 8.37775 11.0355 8.40236 11.0214 8.41642C11.0039 8.42697 11.0039 8.45158 11.0214 8.45158C11.0425 8.45158 11.0636 8.45158 11.0636 8.46564C11.0636 8.48322 11.0636 8.49377 11.0812 8.48322C11.0988 8.47267 11.1093 8.47267 11.1164 8.48322C11.1199 8.49728 11.1339 8.49728 11.1515 8.50432C11.1656 8.51486 11.1726 8.50783 11.1832 8.49728C11.1937 8.48322 11.2324 8.47267 11.2324 8.47267C11.2324 8.47267 11.2851 8.46213 11.3027 8.46564L11.3484 8.48322C11.3484 8.48322 11.3625 8.51486 11.3554 8.53244C11.3484 8.55002 11.3414 8.5465 11.3484 8.57463C11.3554 8.60275 11.3414 8.60627 11.3308 8.60275C11.3167 8.59924 11.3027 8.59924 11.3027 8.62385C11.3027 8.64846 11.2886 8.65197 11.2886 8.67307C11.2886 8.69416 11.2886 8.69064 11.2781 8.70119C11.264 8.70822 11.2605 8.7258 11.2781 8.72932C11.2992 8.72932 11.2921 8.75041 11.2921 8.76447V8.79963C11.2921 8.79963 11.2921 8.81721 11.271 8.81721C11.2464 8.81721 11.2289 8.81721 11.2253 8.83127C11.2218 8.84533 11.1972 8.86642 11.2183 8.884C11.2429 8.89807 11.2359 8.90861 11.2218 8.91213C11.2078 8.91916 11.2007 8.94728 11.2218 8.95783C11.25 8.96838 11.2464 8.97541 11.2324 8.98947C11.2148 9.00002 11.1832 9.01057 11.1832 9.02463C11.1832 9.04572 11.1761 9.04572 11.155 9.04924C11.1339 9.05275 11.1269 9.07385 11.1515 9.10549C11.1726 9.13713 11.1796 9.1301 11.1972 9.1301C11.2113 9.1301 11.2113 9.10549 11.2113 9.10549H11.2816C11.2992 9.10549 11.3238 9.10549 11.3343 9.09846C11.3484 9.09142 11.3835 9.07385 11.3835 9.10197C11.3835 9.1301 11.3906 9.12658 11.4082 9.13713C11.4222 9.15119 11.4257 9.14064 11.4433 9.15822C11.4539 9.1758 11.4574 9.16174 11.4644 9.14064C11.475 9.11955 11.496 9.09846 11.5101 9.12307C11.5242 9.14767 11.5277 9.14064 11.5453 9.14064C11.5664 9.14064 11.5734 9.15119 11.5734 9.16525C11.5734 9.17932 11.5945 9.17932 11.6156 9.1758C11.6367 9.17228 11.6402 9.18986 11.6507 9.20392C11.6613 9.21799 11.6648 9.21799 11.6789 9.21799C11.6894 9.21799 11.7035 9.21799 11.714 9.20392C11.7246 9.19338 11.7351 9.1758 11.7492 9.19689C11.7632 9.21799 11.7878 9.21096 11.7949 9.18986C11.8019 9.16877 11.83 9.15119 11.8476 9.1758C11.8617 9.19689 11.8757 9.19689 11.8933 9.20041C11.9074 9.20393 11.932 9.20393 11.9425 9.21799C11.9531 9.23557 11.9847 9.26017 11.9601 9.27775C11.939 9.29533 11.9109 9.31994 11.932 9.32346C11.9531 9.33049 11.9671 9.33752 11.9777 9.35158C11.9917 9.36564 12.0339 9.37268 12.0515 9.37619C12.0726 9.37619 12.0867 9.38322 12.1113 9.36213C12.1324 9.34455 12.157 9.34455 12.1535 9.36916C12.15 9.39377 12.164 9.42189 12.164 9.42189C12.164 9.42189 12.1781 9.45705 12.1781 9.47463C12.1781 9.48869 12.1781 9.49221 12.2062 9.50978C12.2343 9.52736 12.2308 9.54142 12.2554 9.52385C12.2765 9.50275 12.2835 9.49572 12.2835 9.48166V9.43244C12.2835 9.43244 12.3187 9.42541 12.3292 9.41838C12.3398 9.41135 12.396 9.38322 12.4066 9.39377C12.4171 9.40432 12.4382 9.4008 12.4488 9.39377H12.5015C12.5156 9.39377 12.5367 9.39377 12.5648 9.37268C12.5894 9.35158 12.5894 9.35861 12.607 9.37268C12.6246 9.38674 12.621 9.40783 12.614 9.41838C12.6035 9.42892 12.614 9.45353 12.6351 9.45353C12.6597 9.45353 12.6632 9.4676 12.6632 9.48517L12.6703 9.53088C12.6738 9.54494 12.6738 9.54846 12.7089 9.559C12.7441 9.56603 12.7406 9.58713 12.7441 9.60471C12.7511 9.61877 12.7511 9.62932 12.7335 9.62932C12.7125 9.62932 12.7054 9.63986 12.7054 9.65393C12.7019 9.66799 12.6703 9.67502 12.6703 9.67502L12.6421 9.66799C12.6421 9.66799 12.621 9.66799 12.614 9.68205C12.6035 9.6926 12.5824 9.71721 12.5964 9.7383C12.6105 9.75939 12.6105 9.77346 12.5964 9.78049C12.5824 9.79103 12.5753 9.83322 12.5613 9.82619C12.5472 9.81916 12.5332 9.82619 12.5226 9.83322C12.5085 9.84025 12.5121 9.88244 12.5367 9.8965C12.5648 9.91408 12.5718 9.93166 12.5718 9.93166L12.6 9.97736L12.5824 10.002C12.5753 10.016 12.5578 10.0477 12.5753 10.0547C12.5929 10.0617 12.5859 10.0899 12.5683 10.0899C12.5472 10.0899 12.5261 10.0828 12.5226 10.1074C12.5191 10.132 12.5085 10.125 12.4875 10.1215C12.4699 10.1215 12.4171 10.1074 12.4066 10.1321C12.396 10.1567 12.3925 10.1672 12.3714 10.1602C12.3468 10.1602 12.3539 10.1953 12.3609 10.2129C12.3679 10.227 12.3925 10.2481 12.3925 10.2481C12.3925 10.2481 12.4101 10.2621 12.4101 10.2938C12.4101 10.3254 12.396 10.3219 12.3855 10.3008C12.375 10.2797 12.3468 10.2832 12.3433 10.3043C12.3398 10.3289 12.3363 10.3641 12.3117 10.3641C12.2906 10.3641 12.28 10.3711 12.2695 10.3852C12.2625 10.3957 12.2449 10.4168 12.2449 10.4274C12.2449 10.4379 12.2414 10.452 12.2238 10.4555C12.2097 10.4555 12.2062 10.4906 12.2062 10.4906C12.2062 10.4906 12.1675 10.4977 12.164 10.5117C12.1605 10.5258 12.164 10.5504 12.1324 10.5539C12.1007 10.5574 12.0832 10.5785 12.0726 10.5926C12.0621 10.6102 12.0585 10.6207 12.0726 10.6348C12.0867 10.6488 12.0937 10.6981 12.1078 10.7051C12.1289 10.7156 12.1429 10.7192 12.1359 10.7403C12.1359 10.7684 12.1148 10.786 12.1394 10.786C12.1675 10.786 12.1816 10.793 12.1746 10.8141C12.164 10.8352 12.164 10.8352 12.1429 10.8457C12.1253 10.8563 12.1148 10.8563 12.1148 10.8809C12.1148 10.9055 12.1218 10.902 12.1042 10.9125C12.0867 10.9195 12.0867 10.9336 12.0867 10.9477C12.0867 10.9688 12.0832 10.9617 12.0621 10.9828C12.041 11.0039 12.0164 11.0039 11.9988 10.9969C11.9847 10.9934 11.9812 10.9934 11.9777 10.9758C11.9742 10.9547 11.9425 10.9547 11.9285 10.9582C11.9109 10.9617 11.8898 10.9793 11.8898 10.9793C11.8898 10.9793 11.8617 10.9969 11.8722 11.0145C11.8863 11.0285 11.8792 11.0496 11.8582 11.0496C11.8335 11.0496 11.7808 11.0742 11.7667 11.0496C11.7492 11.018 11.7035 11.0004 11.6964 11.0391C11.6894 11.0742 11.7175 11.0707 11.714 11.1094C11.7105 11.1445 11.7035 11.1445 11.6894 11.1551C11.6789 11.1656 11.6789 11.1762 11.6753 11.1903C11.6718 11.2043 11.6683 11.2395 11.6894 11.25C11.714 11.2641 11.7246 11.2957 11.7246 11.3133C11.7246 11.3309 11.7246 11.3485 11.7457 11.3485C11.7703 11.3485 11.7878 11.3485 11.7914 11.3238C11.7949 11.3028 11.8406 11.2922 11.8441 11.3344C11.8476 11.3766 11.8441 11.3977 11.8652 11.4153C11.8792 11.4328 11.8933 11.4574 11.9074 11.468C11.9214 11.4785 11.9425 11.5524 11.9425 11.5524C11.9074 11.5594 11.9003 11.6016 11.8792 11.6086C11.8687 11.6121 11.8582 11.6086 11.8441 11.6156C11.8371 11.6227 11.8371 11.6332 11.8265 11.6403C11.8019 11.6508 11.8089 11.6121 11.7773 11.6262C11.7527 11.6367 11.7492 11.6684 11.714 11.6543C11.6929 11.6473 11.6789 11.5735 11.6753 11.5559C11.6753 11.5453 11.6507 11.5137 11.6437 11.5031C11.6226 11.468 11.5804 11.5031 11.5664 11.4926C11.5417 11.4785 11.5523 11.4504 11.5207 11.4504C11.4503 11.4434 11.4996 11.4891 11.4714 11.4996C11.4187 11.5207 11.4187 11.4504 11.3765 11.4821C11.3625 11.4926 11.4011 11.5031 11.3906 11.5242C11.3835 11.5383 11.3414 11.5664 11.3449 11.5875C11.3484 11.6156 11.38 11.6227 11.3871 11.6473C11.4117 11.707 11.373 11.7528 11.3097 11.7035C11.2746 11.6754 11.271 11.6262 11.2183 11.6297C11.2042 11.6297 11.2007 11.6403 11.1867 11.6438C11.1761 11.6438 11.1656 11.6332 11.1515 11.6367C11.1339 11.6438 11.1515 11.6578 11.148 11.6684L11.1164 11.6965C11.1023 11.7141 11.1058 11.7317 11.0847 11.7492C11.0671 11.7598 11.0531 11.7528 11.0355 11.7738C11.0144 11.7949 11.0109 11.8266 10.9863 11.8477C10.9722 11.8582 10.9652 11.816 10.9511 11.8477C10.9441 11.8477 10.9441 11.8512 10.9406 11.8547V11.8758C10.9757 11.9461 10.9054 11.9672 10.8808 12.0164C10.8703 12.034 10.8984 12.0516 10.8878 12.0656C10.8808 12.0797 10.8492 12.1078 10.8457 12.1149C10.8457 12.1219 10.8421 12.136 10.8351 12.143C10.8281 12.15 10.8105 12.143 10.807 12.1535C10.807 12.1641 10.8281 12.1746 10.8351 12.1817C10.8421 12.1887 10.8316 12.1992 10.8351 12.2028C10.8703 12.2379 10.8492 12.2274 10.8667 12.259C10.8667 12.266 10.8808 12.259 10.8843 12.2695C10.8878 12.2801 10.8773 12.2801 10.8808 12.2906L10.9089 12.3293C10.9089 12.3399 10.8562 12.3645 10.8457 12.3645C10.814 12.3645 10.8738 12.3012 10.821 12.3012C10.8 12.3012 10.8 12.3504 10.7929 12.3574H10.7648C10.7332 12.3574 10.7121 12.3961 10.698 12.3996H10.6593C10.6453 12.3996 10.6312 12.4137 10.6171 12.4137C10.6101 12.4137 10.6066 12.4067 10.5996 12.4031L10.5433 12.3856C10.5328 12.3856 10.5152 12.3996 10.5082 12.3926C10.5011 12.3891 10.5187 12.368 10.4941 12.3574L10.473 12.3082C10.48 12.2801 10.4906 12.2485 10.4871 12.2203C10.48 12.1852 10.4343 12.1606 10.4167 12.136C10.4097 12.1184 10.4027 12.0656 10.3816 12.0551C10.3609 12.0391 10.3441 12.0187 10.3324 11.9953C10.3324 11.9883 10.3394 11.9778 10.3324 11.9672C10.3253 11.9567 10.3078 11.9531 10.3042 11.9391C10.3007 11.925 10.3042 11.8863 10.2902 11.8793C10.2761 11.8688 10.1742 11.8582 10.1496 11.8547C10.139 11.8547 10.1285 11.8547 10.1179 11.8442L10.1039 11.8266L10.0722 11.8301H10.0476C10.0125 11.8512 10.0089 11.8793 9.97729 11.9004C9.94565 11.9285 9.91401 11.925 9.88237 11.9531C9.86128 11.9707 9.84722 12.0129 9.82964 12.0305C9.82261 12.041 9.80854 12.0305 9.80503 12.034L9.74878 12.0867C9.74878 12.0867 9.74878 12.0973 9.74175 12.1008L9.70659 12.1078H9.67144C9.65737 12.1149 9.65737 12.1324 9.60112 12.143L9.59058 12.15L9.56948 12.1676H9.54839C9.53433 12.1676 9.52378 12.1781 9.51323 12.1817C9.48159 12.1817 9.43589 12.1676 9.41479 12.1781C9.40073 12.1817 9.36206 12.2238 9.34448 12.2274H9.32339C9.31636 12.2274 9.30581 12.2766 9.3023 12.2871L9.23198 12.3469L9.2144 12.375C9.20737 12.382 9.19683 12.3891 9.18628 12.3891C9.17222 12.3891 9.15112 12.3785 9.14058 12.375C9.11597 12.375 9.04565 12.368 9.02456 12.375C9.00347 12.375 9.0105 12.4418 8.95425 12.4453L8.85933 12.4594C8.85933 12.4594 8.83823 12.4453 8.81714 12.4524C8.81011 12.4524 8.78901 12.477 8.78901 12.4875V12.4981L8.79253 12.5086C8.78198 12.5262 8.75386 12.5438 8.74331 12.5649L8.73628 12.5754C8.72925 12.5824 8.69058 12.5965 8.68706 12.6035C8.67651 12.6246 8.71167 12.6457 8.70815 12.6563C8.70112 12.6844 8.65894 12.7125 8.64839 12.7406C8.64487 12.7512 8.66245 12.7863 8.65894 12.8004C8.65894 12.8356 8.64487 12.8813 8.64487 12.9164L8.6519 12.9621L8.673 12.9762C8.67651 12.9832 8.72222 13.0676 8.72222 13.0781C8.72925 13.1379 8.64136 13.1168 8.69409 13.1801L8.71519 13.2082L8.79604 13.2715C8.79604 13.282 8.73979 13.2926 8.73276 13.2996C8.70464 13.3278 8.68354 13.3735 8.65894 13.4016C8.64136 13.4156 8.62729 13.4016 8.60972 13.4367C8.60269 13.4508 8.60972 13.4824 8.59917 13.493C8.58511 13.507 8.57456 13.486 8.56401 13.493C8.55698 13.493 8.55347 13.5141 8.54995 13.5176C8.53237 13.5281 8.40229 13.5985 8.39175 13.5914C8.38472 13.5914 8.37769 13.5668 8.37769 13.5598C8.37415 13.5491 8.36813 13.5395 8.36011 13.5317C8.32495 13.5035 8.27573 13.4965 8.24409 13.5317C8.23354 13.5422 8.23354 13.5563 8.223 13.5668L8.16675 13.609C8.16675 13.609 8.1562 13.6231 8.14917 13.6195C8.13862 13.6195 8.10698 13.5844 8.09644 13.5738C8.08237 13.5563 8.04019 13.5141 8.03667 13.4965C8.03667 13.4262 7.98394 13.3594 7.96284 13.2926H7.998C8.03315 13.2715 8.02261 13.2082 8.08589 13.2328C8.09644 13.2223 8.09292 13.2117 8.1105 13.2012C8.11753 13.2012 8.12808 13.1942 8.12808 13.1906C8.15269 13.1555 8.17729 13.0289 8.1562 12.9938C8.13511 12.9656 8.11401 12.9656 8.09644 12.9164V12.8742C8.09644 12.8602 8.07183 12.7899 8.06831 12.7828C8.06479 12.7793 8.05073 12.7723 8.05073 12.7653C8.05073 12.7617 8.0437 12.6844 8.04722 12.6774C8.02612 12.6176 7.94878 12.5789 7.94526 12.5719L7.91714 12.5227C7.90659 12.5051 7.90659 12.4945 7.89956 12.477C7.89956 12.4699 7.8855 12.4629 7.8855 12.4524C7.8855 12.4383 7.92769 12.4031 7.92769 12.3785C7.92769 12.368 7.89956 12.3434 7.90308 12.3258C7.91011 12.3117 7.93823 12.2766 7.93823 12.2555C7.93823 12.2344 7.89253 12.1852 7.8855 12.1606C7.8855 12.1465 7.90308 12.136 7.89956 12.1289L7.83979 12.0656C7.83628 12.0551 7.85737 12.0446 7.83979 12.0305C7.82573 12.0129 7.83979 12.0199 7.83628 12.0059L7.80815 11.9637L7.76245 11.802C7.75542 11.7914 7.74487 11.7844 7.74136 11.7738L7.72729 11.7387C7.72729 11.7387 7.68159 11.7246 7.67456 11.7106C7.66753 11.7 7.66753 11.6684 7.65347 11.6508C7.64995 11.6403 7.6394 11.6438 7.63237 11.6367L7.62534 11.6192C7.61128 11.6016 7.58667 11.6192 7.56909 11.5488L7.49878 11.4996L7.49175 11.4891C7.47417 11.482 7.44956 11.4821 7.4355 11.468L7.37925 11.4645L7.36519 11.4434C7.34409 11.4363 7.30542 11.4399 7.28784 11.4223C7.27026 11.4082 7.26675 11.3449 7.24214 11.352H7.22808C7.2105 11.3274 7.15073 11.3238 7.12261 11.3098C7.11558 11.3063 7.09448 11.3098 7.09448 11.3028L7.098 11.2676L7.06284 11.2289C7.04175 11.2219 7.0523 11.2184 7.03472 11.2113C6.99605 11.2078 6.99253 11.2113 6.9644 11.2395L6.93628 11.25C6.92222 11.257 6.9187 11.2852 6.90112 11.2711L6.88354 11.2571C6.873 11.2465 6.86597 11.2535 6.86245 11.236C6.82729 11.2184 6.73589 11.2781 6.71479 11.236C6.69722 11.2254 6.68667 11.236 6.67261 11.2254C6.66558 11.2184 6.69019 11.141 6.62339 11.1129L6.67261 11.0778V11.0496C6.67261 11.0391 6.67964 11.0145 6.67612 11.0039L6.66206 10.9758C6.65503 10.9653 6.66206 10.9547 6.65503 10.9406L6.63394 10.9301C6.61636 10.916 6.59878 10.909 6.58472 10.8914L6.57417 10.8774C6.56362 10.8703 6.52144 10.8563 6.52495 10.8387C6.52495 10.8317 6.53198 10.8317 6.5355 10.8246C6.5355 10.8176 6.5355 10.8071 6.54253 10.8C6.56011 10.7754 6.6023 10.786 6.59526 10.7403C6.59526 10.7192 6.57769 10.7016 6.57417 10.677L6.56011 10.6594C6.51792 10.6559 6.52495 10.6137 6.51089 10.6031C6.46519 10.575 6.43354 10.5926 6.48276 10.5328C6.48979 10.5153 6.44058 10.4836 6.43003 10.4766C6.41245 10.459 6.423 10.4238 6.41597 10.4063C6.41245 10.3957 6.38081 10.3817 6.37378 10.3711L6.35972 10.343V10.336C6.37026 10.3289 6.36675 10.3184 6.35972 10.3078C6.35972 10.3008 6.34565 10.3043 6.34214 10.3008C6.29995 10.2656 6.25425 10.2481 6.20151 10.2305C6.18745 10.2235 6.19448 10.2129 6.18042 10.2059L6.09956 10.1707C6.08901 10.1707 6.0855 10.1391 6.07847 10.1321C6.072 10.1213 6.06367 10.1118 6.05386 10.1039C6.05386 10.0758 6.03628 10.0723 6.0187 10.0582L6.01167 10.0406L6.02925 9.98088C6.03276 9.97033 6.04683 9.95978 6.04683 9.94572L6.03276 9.88244C6.01167 9.82619 5.98706 9.83322 5.99761 9.75588C6.00112 9.7383 5.99761 9.73127 6.00815 9.71721L6.01519 9.70666L6.05034 9.68205C6.06089 9.66799 6.06792 9.62932 6.0855 9.61877C6.09253 9.60822 6.12769 9.59064 6.1312 9.58361C6.13823 9.57658 6.14526 9.559 6.14175 9.54846H6.10659C6.10308 9.54846 6.08901 9.53439 6.07495 9.53439L6.06792 9.52033L6.06089 9.5133L6.02573 9.50275C6.00815 9.49572 5.99058 9.49572 5.973 9.48517C5.94839 9.47111 5.92026 9.42893 5.89214 9.42541C5.85698 9.41838 5.83589 9.42541 5.80425 9.42541C5.78315 9.42893 5.78315 9.41838 5.76909 9.41135C5.74448 9.40432 5.76206 9.42541 5.70933 9.40783C5.70229 9.4008 5.70933 9.38322 5.71284 9.37619C5.70581 9.37619 5.69526 9.37971 5.68472 9.37619C5.64253 9.36564 5.65659 9.32697 5.64956 9.30588C5.64253 9.29533 5.62495 9.29885 5.6144 9.29885V9.2883C5.62495 9.27775 5.60034 9.24963 5.60034 9.24611C5.60034 9.23557 5.65308 9.22853 5.66011 9.22853C5.66362 9.2215 5.65659 9.21447 5.65659 9.20744L5.66714 9.15822L5.63198 9.12307C5.6355 9.11955 5.64605 9.11252 5.64605 9.10549C5.67065 9.03517 5.70933 9.09142 5.74448 9.02814L5.76206 8.99299H5.76909L5.79019 9.00002C5.7937 8.99299 5.80425 8.98947 5.81128 8.98596L5.82534 8.98947C5.88862 8.97541 5.87456 8.95432 5.90972 8.92619C5.92026 8.91916 5.94839 8.91916 5.96245 8.91213C5.97651 8.91916 5.99761 8.94025 6.02222 8.9508C6.03979 8.95783 6.10308 8.97189 6.11362 8.97892C6.12769 8.98596 6.1312 9.00353 6.14526 9.01057C6.18042 9.02814 6.15933 8.9965 6.19448 9.00353C6.22964 9.01057 6.25776 9.03869 6.29292 9.05275H6.31753C6.32808 9.05275 6.38784 9.03869 6.39136 9.04221L6.41597 9.05275C6.423 9.05275 6.43003 9.03517 6.43354 9.03517C6.45815 9.03869 6.46167 9.04924 6.49331 9.04572C6.49331 9.04572 6.51089 8.95432 6.52847 8.9508C6.5355 8.9508 6.56011 8.97189 6.56362 8.97541C6.57769 8.97541 6.56362 8.95432 6.56362 8.95432C6.56362 8.94728 6.54253 8.89103 6.54604 8.884C6.54604 8.884 6.56011 8.89103 6.56714 8.884C6.58823 8.884 6.60933 8.87697 6.62339 8.86291L6.65503 8.82072C6.65503 8.81369 6.648 8.79611 6.65151 8.7926L6.67612 8.77502C6.68667 8.76447 6.69019 8.74689 6.70425 8.73986C6.76401 8.73283 6.78159 8.68713 6.83433 8.6801H6.8519L6.86245 8.69767C6.86597 8.70119 6.89761 8.72228 6.90815 8.72228L6.9187 8.71174C6.92925 8.71174 6.95737 8.69416 6.96089 8.68361C6.96089 8.68361 6.95386 8.67658 6.96089 8.66955C6.96089 8.66603 6.99604 8.63439 7.00308 8.63439H7.04175L7.05933 8.65197H7.09097C7.098 8.65197 7.10151 8.63791 7.10854 8.63439L7.11206 8.63791Z" fill="#D0A650"/>
<path d="M9.89299 4.37695L10.3465 5.77266L9.15823 4.91133H10.6242L9.43948 5.77266L9.89299 4.37695ZM11.6578 4.68984L12.1114 6.08555L10.9231 5.22422H12.3926L11.2043 6.08203L11.6578 4.68633V4.68984ZM13.3418 5.30156L13.7989 6.69727L12.6106 5.83594H14.0766L12.8883 6.69727L13.3453 5.30156H13.3418ZM8.10002 4.37695L7.64299 5.77266L8.83127 4.91133H7.36526L8.55354 5.77266L8.09651 4.37695H8.10002ZM6.33518 4.68984L5.87815 6.08555L7.06643 5.22422H5.60042L6.78518 6.08203L6.32815 4.68633L6.33518 4.68984ZM4.65823 5.30156L5.11174 6.69727L3.92346 5.83594H5.38948L4.20471 6.69727L4.65823 5.30156Z" fill="white"/>
</g>
<defs>
<clipPath id="clip0_14_1077">
<rect width="18" height="18" rx="9" fill="white"/>
</clipPath>
</defs>
</svg>
