<svg width="18" height="18" viewBox="0 0 18 18" fill="none" xmlns="http://www.w3.org/2000/svg">
<g clip-path="url(#clip0_8201_11393)">
<path d="M9 18C13.9706 18 18 13.9706 18 9C18 4.02944 13.9706 0 9 0C4.02944 0 0 4.02944 0 9C0 13.9706 4.02944 18 9 18Z" fill="#F0F0F0"/>
<path d="M2.63603 15.364C-0.878678 11.8492 -0.878678 6.15073 2.63603 2.63599C2.63579 2.63637 7.82612 8.99997 7.82612 8.99997L2.63603 15.364Z" fill="black"/>
<path d="M7.82609 9.00003L1.19366 4.51807C0.988027 4.8755 0.806691 5.24858 0.650879 5.63473L4.00862 9.00007L0.650984 12.3656C0.806656 12.7514 0.987816 13.1243 1.1933 13.4815L7.82609 9.00003Z" fill="#FFDA44"/>
<path d="M17.9239 7.82605H7.8259L2.636 2.63611C2.07673 3.19537 1.59084 3.82787 1.19371 4.51802L5.66696 8.99995L1.19336 13.4813C1.59048 14.1716 2.07659 14.8044 2.636 15.3638L7.8259 10.1739H17.9239C17.9739 9.7896 18.0001 9.39782 18.0001 8.99995C18.0001 8.60209 17.9739 8.21031 17.9239 7.82605Z" fill="#6DA544"/>
<path d="M3.52051 16.1395C5.03817 17.306 6.93791 18.0001 9.00003 18.0001C13.1583 18.0001 16.6572 15.1798 17.69 11.3479H8.31213L3.52051 16.1395Z" fill="#0052B4"/>
<path d="M17.69 6.65216C16.6572 2.82027 13.1583 0 9.00003 0C6.93791 0 5.03817 0.69402 3.52051 1.86057L8.31209 6.65216H17.69Z" fill="#D80027"/>
</g>
<defs>
<clipPath id="clip0_8201_11393">
<rect width="18" height="18" fill="white"/>
</clipPath>
</defs>
</svg>
