<svg width="18" height="18" viewBox="0 0 18 18" fill="none" xmlns="http://www.w3.org/2000/svg">
<g clip-path="url(#clip0_14_1074)">
<mask id="mask0_14_1074" style="mask-type:luminance" maskUnits="userSpaceOnUse" x="-1" y="0" width="19" height="18">
<path d="M-0.00146484 0H17.9958V17.9972H-0.00146484V0Z" fill="white"/>
</mask>
<g mask="url(#mask0_14_1074)">
<path fill-rule="evenodd" clip-rule="evenodd" d="M-9 0H17.9959V17.9972H-9V0Z" fill="#198A00"/>
<path fill-rule="evenodd" clip-rule="evenodd" d="M14.8318 6.46594H17.9958V17.9972H14.8281L14.8318 6.46594Z" fill="#EF7D00"/>
<path fill-rule="evenodd" clip-rule="evenodd" d="M11.6677 6.45868H14.8318V17.9972H11.6677V6.45868Z" fill="black"/>
<path fill-rule="evenodd" clip-rule="evenodd" d="M8.43481 6.4696H11.6642V17.9973H8.43481V6.4696Z" fill="#DE2010"/>
<path fill-rule="evenodd" clip-rule="evenodd" d="M15.8768 2.30413C15.8768 2.30413 17.0706 1.79614 17.1831 1.69092C17.2375 1.7526 16.7077 2.39484 15.6772 2.63432C16.6134 2.40936 17.4117 1.71632 17.5713 1.73809C17.6185 1.74897 17.6076 2.41661 15.4668 2.99354C16.9472 2.60529 17.8108 1.89048 17.7999 1.97031C17.8108 1.98482 17.6548 2.53272 16.3558 2.95726C16.7186 2.8738 17.6983 2.2751 17.6874 2.39121C17.7201 2.43838 16.7368 3.69747 14.9624 3.28745C16.3775 3.65755 17.2992 2.76858 17.4298 2.78309C17.4588 2.79035 17.1686 3.55958 15.3833 3.60675C16.2397 3.51967 15.9929 3.60313 15.9929 3.60313C15.9929 3.60313 15.4849 3.99863 14.879 3.73012C15.3579 3.86075 15.4087 3.86438 15.4196 3.90792C15.387 3.95872 14.9951 4.03854 14.6141 3.83535C14.9189 3.95872 15.1947 3.98049 15.1983 4.02766C15.1447 4.06568 15.0825 4.08988 15.0173 4.09811C14.9521 4.10633 14.8859 4.09834 14.8246 4.07483C14.654 3.99863 13.0539 3.01531 13.0539 3.01531L15.7752 2.26785L15.8768 2.30413ZM12.6765 4.9638C12.6465 4.96026 12.616 4.96302 12.5871 4.97191C12.5582 4.9808 12.5314 4.99561 12.5085 5.01542C12.4857 5.03522 12.4672 5.05957 12.4542 5.08692C12.4413 5.11427 12.4342 5.14401 12.4334 5.17426C12.4334 5.17426 12.4116 5.1924 12.4261 5.294C12.4427 5.26205 12.4621 5.23168 12.4842 5.20328C12.5096 5.20328 12.6221 5.23957 12.7926 5.10531C12.6366 5.2686 12.7309 5.33028 12.7309 5.33028C12.7309 5.33028 12.6946 5.46091 12.8144 5.4863C12.7781 5.43188 12.7999 5.38834 12.7999 5.38834C12.7999 5.38834 12.9668 5.37019 12.9559 5.16337C12.9631 5.34842 13.0647 5.39559 13.0647 5.39559C13.0647 5.39559 13.0647 5.49719 13.1736 5.50445C13.1155 5.45365 13.1264 5.37382 13.1264 5.37382C13.1264 5.37382 13.2716 5.2686 13.1482 5.09443C13.2208 5.05452 13.2825 4.9384 13.2825 4.9384C13.2825 4.9384 13.1809 4.89486 13.1373 4.85858C13.1155 4.81504 13.1373 4.56104 13.1373 4.56104L13.0756 4.23448L12.9051 4.74247C12.9123 4.6699 12.916 4.96018 12.6765 4.96018V4.9638Z" fill="#EF7D00" stroke="black" stroke-width="0.0580556" stroke-linejoin="round"/>
<path fill-rule="evenodd" clip-rule="evenodd" d="M13.8593 4.22717C13.8629 4.23443 14.0407 4.42674 14.2076 4.41585C14.2693 4.36505 14.0734 4.24894 14.0734 4.22354C14.1459 4.28523 14.4326 4.53196 14.6176 4.44125C14.6902 4.33965 14.4834 4.35417 14.2584 4.07115C14.4144 4.17637 14.8099 4.40859 14.995 4.31788C15.0712 4.23443 14.585 3.96955 14.4217 3.76635L14.0008 3.54865L13.4275 4.02035L13.8593 4.22717Z" fill="#EF7D00" stroke="black" stroke-width="0.0580556" stroke-linejoin="round"/>
<path fill-rule="evenodd" clip-rule="evenodd" d="M13.2134 2.63066C13.2134 2.63066 13.4093 2.51455 14.1858 2.5726C14.2693 2.58349 14.7156 2.42021 14.8571 2.37304C15.082 2.33312 15.8005 2.17347 15.9964 2.02833C16.1343 2.01019 15.9601 2.28233 15.786 2.34401C15.6045 2.42746 14.9369 2.65969 14.6974 2.62703C14.9841 2.63066 14.8244 2.86288 14.3527 2.7504C14.5777 2.8774 14.4979 2.89917 14.4979 2.89917C14.4979 2.89917 14.0987 2.92094 13.9899 2.83023C14.2584 2.93182 14.1495 2.96811 14.1495 2.96811C14.1495 2.96811 13.8738 2.99351 13.7504 2.93545C13.9427 2.99351 13.8447 3.02979 13.8447 3.02979C13.8447 3.02979 13.6851 3.05519 13.5545 3.00802C13.4238 2.96085 13.2243 2.63066 13.2134 2.63066Z" fill="#EF7D00" stroke="black" stroke-width="0.0580556" stroke-linecap="round" stroke-linejoin="round"/>
<path fill-rule="evenodd" clip-rule="evenodd" d="M13.5254 4.33605L13.5544 4.85129L13.5254 4.8912C13.5109 4.90935 13.1625 4.83678 13.2097 5.10891C13.2097 5.21777 13.2097 5.24317 13.2823 5.30485C13.2641 5.23228 13.2714 5.18148 13.2714 5.18148C13.2714 5.18148 13.3694 5.24317 13.4673 5.07988C13.402 5.23954 13.4492 5.29759 13.4637 5.29759C13.4782 5.33025 13.4383 5.46087 13.5689 5.45725C13.5181 5.41008 13.5435 5.33751 13.5435 5.33751C13.5435 5.33751 13.6814 5.31574 13.6306 5.06537C13.6814 5.01457 13.7032 5.06537 13.7032 5.06537C13.7032 5.06537 13.7177 5.21051 13.8374 5.18148C13.8919 5.21414 13.8302 5.29396 13.8302 5.29396C13.8302 5.29396 13.9173 5.29396 13.9427 5.2214C13.9717 5.14883 14.0007 5.01457 13.8556 4.96015C13.8374 4.90572 13.9136 4.90209 13.9136 4.90209C13.9136 4.90209 14.0043 4.93112 14.0334 4.97829C14.0588 5.02546 14.0479 4.85855 13.9354 4.84041C13.7939 4.83678 13.7866 4.80412 13.7866 4.80049L13.7504 4.32153L13.5254 4.33605Z" fill="#EF7D00" stroke="black" stroke-width="0.0580556" stroke-linejoin="round"/>
<path fill-rule="evenodd" clip-rule="evenodd" d="M14.0153 4.7751C14.0153 4.7497 13.7759 4.42676 13.8339 4.38322C13.8956 4.39774 13.9972 4.5465 14.077 4.4957C14.0553 4.43765 13.9827 4.4703 13.8956 4.32517C13.8158 4.15826 13.8049 3.90789 13.5146 3.63576C13.7033 3.92603 14.1278 4.09294 14.146 4.00586C14.1641 3.91878 13.7722 3.60673 13.7904 3.5269C13.8666 3.68655 14.2621 4.03489 14.5524 4.00949C14.5705 3.94055 14.3129 3.80267 14.2476 3.67567C14.0661 3.5523 13.569 3.12414 13.5581 3.02617C13.4723 2.87766 13.3545 2.75002 13.2134 2.65244C13.1917 2.63067 13.188 2.60527 13.1844 2.59075C13.0719 2.3295 13.2207 2.24242 13.3078 2.22791C13.3804 2.22428 13.3985 2.23154 13.4529 2.20976L13.2679 2.13719C13.3477 2.19525 13.5509 2.14445 13.5037 2.31136C13.5944 2.27871 13.7831 2.05737 13.2896 2.00294C13.13 1.82152 12.4732 1.71266 12.31 2.51456C12.3208 2.52544 12.3281 2.53633 12.3716 2.56898C12.1612 2.46739 11.6024 2.38756 11.3992 2.35853C10.8549 2.19888 10.2889 1.82152 10.2345 1.86506C10.1619 1.90134 10.561 2.27508 10.5429 2.28233C10.1909 2.07914 9.87525 1.934 9.57771 1.80337C9.36726 1.72355 9.16044 1.54212 9.13504 1.57841C9.06247 1.73806 9.47249 2.13719 9.54868 2.18436C9.62125 2.22791 10.2272 2.51093 10.2163 2.51093C9.3092 2.10091 9.15681 2.02471 9.11327 1.97754C9.03344 1.9594 8.8375 1.69815 8.7867 1.71266C8.75405 1.74169 8.8121 2.15897 9.24752 2.34402C9.32009 2.39482 10.1728 2.70687 10.1655 2.72864L9.14592 2.30773C8.95724 2.23516 8.72502 1.97391 8.68148 2.00294C8.64156 2.03197 8.79033 2.31136 8.97901 2.40207C9.08061 2.44562 9.4616 2.6343 9.80993 2.75404C9.8317 2.76492 9.18946 2.51093 8.87742 2.3803C8.73953 2.30773 8.67059 2.20614 8.65245 2.22791C8.61616 2.24968 8.70325 2.66332 9.69745 2.89917C9.72285 2.91006 10.0458 2.82298 10.0313 2.83386C9.84752 2.87952 9.6608 2.91225 9.47249 2.93183C9.4616 2.96086 9.53417 3.10963 10.0494 3.07697C10.1147 3.07697 10.4703 2.94997 10.4413 2.97537C10.4268 2.98989 9.95507 3.14228 9.91879 3.14591C9.88976 3.14591 9.72285 3.16768 9.71922 3.1822C9.71197 3.2076 9.83896 3.31282 10.1184 3.32733C10.3615 3.34185 10.8223 3.1822 10.815 3.19308C10.8041 3.20397 10.3687 3.35273 10.3542 3.35999C10.3397 3.37088 10.18 3.37813 10.1728 3.39265C10.1619 3.42168 10.405 3.65027 11.1271 3.40716C11.0545 3.50513 10.7062 3.57044 10.7062 3.58859C10.7062 3.6031 10.7824 3.6793 10.9057 3.7047C10.9674 3.71921 11.0509 3.71558 11.1234 3.7047C11.3027 3.66945 11.4671 3.58093 11.5951 3.4507C11.6133 3.50513 11.1343 3.75187 11.1561 3.77364C11.2613 3.87161 11.606 3.75912 11.6278 3.74824C11.8616 3.62466 12.086 3.48397 12.2991 3.32733C12.31 3.38176 11.4645 3.84258 11.4754 3.86072C11.5298 3.94418 11.8201 3.85346 11.831 3.84621L12.2084 3.64301C12.2192 3.63576 11.7947 3.89338 11.831 3.93329C11.8129 4.09657 12.495 3.81718 12.5494 3.78089C12.5748 3.76275 12.2229 3.93692 12.2229 4.02037C12.3317 4.21268 12.7018 4.151 12.7563 4.10746C12.7853 4.08931 12.72 4.2526 12.7417 4.23808C12.7856 4.19312 12.8223 4.14173 12.8506 4.08569C12.8433 4.14011 12.7998 4.22357 12.778 4.32154C12.7563 4.41951 12.749 4.53199 12.7163 4.6481C12.7091 4.6989 12.9413 4.5465 12.9087 4.18366C12.9268 4.37234 12.8361 4.72793 12.8579 4.74244C12.9087 4.77873 13.0393 4.56827 13.0574 4.42313C13.0937 4.4957 13.1808 4.6481 13.2534 4.68439C13.2461 4.57553 13.2534 4.57553 13.2207 4.4703C13.2388 4.32517 13.2425 4.12923 13.2461 3.90426C13.4457 4.28162 13.5219 4.44128 13.4674 4.73156C13.5255 4.75695 13.6198 4.52836 13.6126 4.41225C13.6851 4.73881 14.0117 4.78598 14.019 4.7751H14.0153Z" fill="#EF7D00" stroke="black" stroke-width="0.0645062" stroke-linecap="round" stroke-linejoin="round"/>
<path fill-rule="evenodd" clip-rule="evenodd" d="M10.7352 2.38031C10.7352 2.38031 10.601 2.48191 10.4341 2.47465C10.474 2.64156 10.8223 2.51456 10.8223 2.51456C10.8223 2.51456 10.6554 2.69962 10.5321 2.73227C10.6046 2.7867 10.9058 2.76856 10.9566 2.73953C11.0074 2.70687 11.0981 2.59439 11.0981 2.59439C11.0981 2.59439 10.7897 2.94998 10.7425 2.94635C10.7389 2.98627 11.0691 2.97175 11.138 2.91007C11.2069 2.84838 11.3775 2.75404 11.3775 2.75404C11.3775 2.75404 10.9239 3.06972 10.9058 3.06972C11.0727 3.11689 11.4138 3.01892 11.6315 2.88467C11.3085 3.09875 11.2795 3.13866 11.1162 3.21123C11.2614 3.24026 11.3339 3.33823 11.831 3.12415C12.1141 2.98989 12.2737 2.74679 12.2737 2.74679C12.0581 2.99971 11.8003 3.21333 11.5117 3.37814C11.4972 3.41443 11.8419 3.55957 12.2846 3.10238" fill="#EF7D00"/>
<path d="M10.7352 2.38031C10.7352 2.38031 10.601 2.48191 10.4341 2.47465C10.474 2.64156 10.8223 2.51456 10.8223 2.51456C10.8223 2.51456 10.6554 2.69962 10.5321 2.73227C10.6046 2.7867 10.9058 2.76856 10.9566 2.73953C11.0074 2.70687 11.0981 2.59439 11.0981 2.59439C11.0981 2.59439 10.7897 2.94998 10.7425 2.94635C10.7389 2.98627 11.0691 2.97175 11.138 2.91007C11.2069 2.84838 11.3775 2.75404 11.3775 2.75404C11.3775 2.75404 10.9239 3.06972 10.9058 3.06972C11.0727 3.11689 11.4138 3.01892 11.6315 2.88467C11.3085 3.09875 11.2795 3.13866 11.1162 3.21123C11.2614 3.24026 11.3339 3.33823 11.831 3.12415C12.1141 2.98989 12.2737 2.74679 12.2737 2.74679C12.0581 2.99971 11.8003 3.21333 11.5117 3.37814C11.4972 3.41443 11.8419 3.55957 12.2846 3.10238" stroke="black" stroke-width="0.0645062" stroke-linecap="round" stroke-linejoin="round"/>
<path fill-rule="evenodd" clip-rule="evenodd" d="M13.1299 3.37449C13.1299 3.37449 13.1589 3.516 13.275 3.62123C13.3948 3.73008 13.4057 3.83531 13.4057 3.83531M13.0682 2.46375C13.0682 2.46375 13.1118 2.59074 13.2315 2.67057C13.3624 2.77545 13.4731 2.90333 13.5581 3.04793C13.5955 3.2082 13.6234 3.37056 13.6415 3.53415M12.3099 2.65605C12.3171 2.70685 12.1357 2.94633 12.3861 3.22935C12.1575 3.50875 12.1575 3.54503 12.1575 3.54503C12.1575 3.54503 12.2845 3.6176 12.5167 3.41803C12.8941 3.88248 12.7707 4.09656 12.7707 4.09656" fill="#EF7D00"/>
<path d="M13.1299 3.37449C13.1299 3.37449 13.1589 3.516 13.275 3.62123C13.3948 3.73008 13.4057 3.83531 13.4057 3.83531M13.0682 2.46375C13.0682 2.46375 13.1118 2.59074 13.2315 2.67057C13.3624 2.77545 13.4731 2.90333 13.5581 3.04793C13.5955 3.2082 13.6234 3.37056 13.6415 3.53415M12.3099 2.65605C12.3171 2.70685 12.1357 2.94633 12.3861 3.22935C12.1575 3.50875 12.1575 3.54503 12.1575 3.54503C12.1575 3.54503 12.2845 3.6176 12.5167 3.41803C12.8941 3.88248 12.7707 4.09656 12.7707 4.09656" stroke="black" stroke-width="0.0645062" stroke-linecap="round"/>
<path fill-rule="evenodd" clip-rule="evenodd" d="M12.7345 3.77003C12.7345 3.77003 12.7018 3.71923 12.7635 3.53418C12.8216 3.59949 12.8832 3.61401 12.9086 3.64303C12.934 3.67206 13.2243 3.71197 13.2425 3.90066" fill="#EF7D00"/>
<path d="M12.7345 3.77003C12.7345 3.77003 12.7018 3.71923 12.7635 3.53418C12.8216 3.59949 12.8832 3.61401 12.9086 3.64303C12.934 3.67206 13.2243 3.71197 13.2425 3.90066" stroke="black" stroke-width="0.0645062" stroke-linecap="round" stroke-linejoin="round"/>
<path fill-rule="evenodd" clip-rule="evenodd" d="M13.0719 2.02108C13.0719 2.00657 13.0139 1.8832 12.7998 2.0356C12.9159 2.04285 13.0284 2.10817 13.0719 2.02108Z" fill="#EF7D00" stroke="black" stroke-width="0.0645062"/>
<path fill-rule="evenodd" clip-rule="evenodd" d="M15.1185 2.5835C15.1294 2.59075 15.7607 2.72864 15.9712 2.65607C15.7027 3.01528 15.1657 2.77218 15.1657 2.77218C15.4305 2.852 15.4414 2.84475 15.5249 2.91732C15.5503 2.98989 15.0423 2.95723 14.8718 2.86289C15.3435 3.00803 15.3507 3.00077 15.3652 3.0552C15.387 3.13502 14.6033 3.03706 14.5307 2.93183C14.7411 3.09511 14.8572 3.12414 14.9734 3.20034C14.8282 3.26202 14.567 3.32371 14.0844 2.98263C14.7194 3.56318 15.2927 3.5269 15.3834 3.6285C15.162 3.95506 14.3057 3.43619 13.9102 3.17131C13.5183 2.91006 14.7738 3.80629 14.8899 3.79178C14.8319 3.88249 14.4182 3.80266 14.3892 3.75912" fill="#EF7D00"/>
<path d="M15.1185 2.5835C15.1294 2.59075 15.7607 2.72864 15.9712 2.65607C15.7027 3.01528 15.1657 2.77218 15.1657 2.77218C15.4305 2.852 15.4414 2.84475 15.5249 2.91732C15.5503 2.98989 15.0423 2.95723 14.8718 2.86289C15.3435 3.00803 15.3507 3.00077 15.3652 3.0552C15.387 3.13502 14.6033 3.03706 14.5307 2.93183C14.7411 3.09511 14.8572 3.12414 14.9734 3.20034C14.8282 3.26202 14.567 3.32371 14.0844 2.98263C14.7194 3.56318 15.2927 3.5269 15.3834 3.6285C15.162 3.95506 14.3057 3.43619 13.9102 3.17131C13.5183 2.91006 14.7738 3.80629 14.8899 3.79178C14.8319 3.88249 14.4182 3.80266 14.3892 3.75912" stroke="black" stroke-width="0.0645062" stroke-linejoin="round"/>
<path fill-rule="evenodd" clip-rule="evenodd" d="M15.2816 3.18945C15.2091 3.20034 14.9914 3.20034 14.9551 3.19308Z" fill="#EF7D00"/>
<path d="M15.2816 3.18945C15.2091 3.20034 14.9914 3.20034 14.9551 3.19308" stroke="black" stroke-width="0.0645062" stroke-linecap="round"/>
<path fill-rule="evenodd" clip-rule="evenodd" d="M10.55 2.28595C10.55 2.28595 11.029 2.53994 11.2322 2.5218C11.1778 2.5726 11.098 2.59437 11.098 2.59437C11.1487 2.61251 11.2866 2.68871 11.4971 2.63791C11.4499 2.68871 11.3846 2.74677 11.3846 2.74677C11.3846 2.74677 11.566 2.81571 11.7692 2.71048C11.7343 2.75231 11.7016 2.79591 11.6712 2.84111L11.8164 2.85199" fill="#EF7D00"/>
<path d="M10.55 2.28595C10.55 2.28595 11.029 2.53994 11.2322 2.5218C11.1778 2.5726 11.098 2.59437 11.098 2.59437C11.1487 2.61251 11.2866 2.68871 11.4971 2.63791C11.4499 2.68871 11.3846 2.74677 11.3846 2.74677C11.3846 2.74677 11.566 2.81571 11.7692 2.71048C11.7343 2.75231 11.7016 2.79591 11.6712 2.84111L11.8164 2.85199" stroke="black" stroke-width="0.0645062" stroke-linecap="round" stroke-linejoin="round"/>
</g>
</g>
<defs>
<clipPath id="clip0_14_1074">
<rect width="18" height="18" rx="9" fill="white"/>
</clipPath>
</defs>
</svg>
