<svg width="18" height="18" viewBox="0 0 18 18" fill="none" xmlns="http://www.w3.org/2000/svg">
<g clip-path="url(#clip0_8201_11811)">
<path d="M9 18C13.9706 18 18 13.9706 18 9C18 4.02944 13.9706 0 9 0C4.02944 0 0 4.02944 0 9C0 13.9706 4.02944 18 9 18Z" fill="#F0F0F0"/>
<path d="M17.1384 5.15404C16.6812 4.18816 16.0571 3.31688 15.3034 2.57702L8.99986 1.95654L2.69634 2.57705C2.67623 2.59677 2.65662 2.61695 2.63672 2.63689L5.15391 5.15407L8.99986 5.27153L17.1384 5.15404Z" fill="#FFDA44"/>
<path d="M2.63672 15.3632C2.66984 15.3963 2.70288 15.4295 2.73649 15.4621L8.99996 16.0435L15.2634 15.4621C16.0249 14.7238 16.6566 13.8525 17.1202 12.8851L5.47819 12.5217C4.47648 13.5235 3.32111 14.6788 2.63672 15.3632Z" fill="#FFDA44"/>
<path d="M17.9103 7.73108L7.43457 7.43481L8.9998 9.00004C8.53619 9.46365 7.84411 10.1557 7.43457 10.5653L17.9048 10.3081C17.967 9.88102 17.9998 9.44438 17.9998 9.00004C17.9998 8.56924 17.9689 8.14574 17.9103 7.73108Z" fill="black"/>
<path d="M8.9998 0C6.54491 0 4.32002 0.98332 2.69629 2.57702H15.3033C13.6796 0.98332 11.4547 0 8.9998 0Z" fill="#6DA544"/>
<path d="M7.73083 7.73108H17.9103C17.7819 6.82127 17.5176 5.95523 17.1384 5.15405H5.15381L7.73083 7.73108Z" fill="#D80027"/>
<path d="M5.11475 12.8851H17.1202C17.5039 12.0846 17.7723 11.2184 17.9049 10.3081H7.69177C6.69379 11.3061 5.848 12.1519 5.11475 12.8851Z" fill="#D80027"/>
<path d="M9.00022 18.0001C11.435 18.0001 13.6435 17.0328 15.2636 15.4622H2.73682C4.35696 17.0328 6.56547 18.0001 9.00022 18.0001Z" fill="#6DA544"/>
<path d="M3.21402 2.10706C3.01395 2.27517 2.82091 2.45141 2.63623 2.63602L9.00021 9L2.63623 15.364C2.82087 15.5486 3.01395 15.7248 3.21402 15.8929L10.107 9L3.21402 2.10706Z" fill="black"/>
<path d="M3.6185 6.6521L4.20122 8.44563H6.08718L4.56146 9.55418L5.14421 11.3478L3.6185 10.2393L2.09276 11.3478L2.67558 9.55418L1.1499 8.44563H3.03575L3.6185 6.6521Z" fill="#D80027"/>
<path d="M5.22138 9.14671L3.7027 8.60868C3.7027 8.60868 3.59048 7.556 3.5837 7.52032C3.53216 7.2488 3.29355 7.04346 3.00703 7.04346C2.68289 7.04346 2.42006 7.30625 2.42006 7.63043C2.42006 7.68418 2.4279 7.73596 2.44144 7.78546L2.01562 8.21412H2.77275C2.77275 8.99997 2.18634 8.99997 2.18634 9.78259L2.51164 10.5652H4.46816L4.79427 9.78259H4.79413C4.82679 9.70749 4.84662 9.63004 4.85481 9.55266C5.13592 9.43897 5.22138 9.14671 5.22138 9.14671Z" fill="#FFDA44"/>
</g>
<defs>
<clipPath id="clip0_8201_11811">
<rect width="18" height="18" fill="white"/>
</clipPath>
</defs>
</svg>
