<svg width="20" height="15" viewBox="0 0 20 15" fill="none" xmlns="http://www.w3.org/2000/svg">
<g clip-path="url(#clip0_14_474)">
<path d="M0 0H20V15H0V0Z" fill="#D0103A"/>
<path d="M0 0H13.6V15H0V0Z" fill="#FEDF00"/>
<path d="M0 0H6.4V15H0V0Z" fill="#0018A8"/>
<path d="M9.38748 4.26874C9.6281 4.26874 9.7281 4.47499 9.96873 4.47499C10.1156 4.47499 10.2031 4.42811 10.3344 4.35311C10.425 4.30311 10.4812 4.27499 10.5844 4.27499C10.6906 4.27499 10.7562 4.30624 10.8125 4.39999C10.8437 4.44999 10.8687 4.55311 10.8531 4.60936C10.8345 4.69864 10.8062 4.78562 10.7687 4.86874C10.7469 4.91874 10.7281 4.94686 10.7281 4.99999C10.7281 5.12811 10.9031 5.17186 11.0219 5.17499C11.0469 5.17499 11.2625 5.17499 11.3969 5.04374C11.325 5.04061 11.2437 4.98124 11.2437 4.90936C11.2437 4.82811 11.3 4.77499 11.3781 4.74999C11.3937 4.74686 11.4187 4.75936 11.4312 4.74999C11.4531 4.74061 11.4437 4.71874 11.4625 4.70624C11.5 4.67499 11.525 4.65624 11.575 4.65624C11.6062 4.65624 11.625 4.65936 11.6531 4.67811C11.6656 4.69061 11.6719 4.70311 11.6844 4.70311C11.7219 4.70311 11.7406 4.67811 11.7781 4.67811C11.8032 4.67849 11.8279 4.68493 11.85 4.69686C11.8687 4.70624 11.8687 4.74374 11.8937 4.74374C11.9062 4.74374 11.9687 4.71561 12.0031 4.71561C12.0719 4.71561 12.1094 4.74061 12.1531 4.79374C12.1656 4.80936 12.1719 4.83749 12.1844 4.83749C12.215 4.84009 12.2446 4.84994 12.2707 4.86625C12.2968 4.88255 12.3186 4.90483 12.3344 4.93124C12.3437 4.94374 12.3562 4.97499 12.3687 4.97811C12.3875 4.98749 12.4 4.98436 12.4219 4.99999C12.4475 5.01608 12.4688 5.03813 12.484 5.06425C12.4993 5.09037 12.5079 5.11978 12.5094 5.14999C12.5094 5.17186 12.5 5.19999 12.4937 5.21874C12.4375 5.42186 12.2969 5.48749 12.1562 5.66561C12.0937 5.74061 12.0469 5.79999 12.0469 5.89686C12.0469 5.91874 12.0781 5.96249 12.0875 5.98124C12.0812 5.93749 12.1031 5.88124 12.15 5.87811C12.1811 5.87796 12.2111 5.8894 12.2342 5.9102C12.2573 5.931 12.2719 5.95967 12.275 5.99061C12.2757 6.00981 12.2725 6.02895 12.2656 6.04686C12.3035 6.02315 12.3462 6.0082 12.3906 6.00311H12.45C12.5531 6.00311 12.6687 6.06249 12.7406 6.12186C12.8158 6.18646 12.8754 6.26725 12.9149 6.35818C12.9544 6.44911 12.9728 6.54781 12.9687 6.64686C12.9437 6.80936 12.9594 7.10936 12.5375 7.22811C12.6156 7.25936 12.6687 7.32186 12.6687 7.39061C12.6696 7.40934 12.6667 7.42804 12.6602 7.44563C12.6537 7.46321 12.6437 7.47932 12.6309 7.493C12.6181 7.50669 12.6027 7.51767 12.5856 7.52531C12.5684 7.53295 12.55 7.53709 12.5312 7.53749C12.5109 7.53875 12.4905 7.53549 12.4716 7.52792C12.4527 7.52035 12.4357 7.50868 12.4219 7.49374C12.3344 7.58124 12.3187 7.67186 12.3187 7.79686C12.3187 7.87186 12.3312 7.91561 12.3625 7.98436C12.3937 8.05311 12.4187 8.09374 12.4781 8.14374C12.5094 8.09686 12.5437 8.06249 12.6031 8.06249C12.6562 8.06249 12.7031 8.08124 12.725 8.13124C12.7312 8.14686 12.725 8.15936 12.7344 8.17499C12.7437 8.19374 12.7594 8.19686 12.7687 8.21561C12.7844 8.24686 12.7687 8.27186 12.7844 8.29999C12.7937 8.32186 12.8125 8.32499 12.8219 8.34374C12.8344 8.37499 12.8375 8.39374 12.8375 8.42811C12.8375 8.52186 12.7531 8.59061 12.6594 8.59061C12.6281 8.59061 12.6156 8.57811 12.5875 8.58124C12.6406 8.63436 12.6812 8.65936 12.7219 8.72186C12.7856 8.81687 12.8184 8.92933 12.8156 9.04374C12.8181 9.16611 12.7879 9.28694 12.7281 9.39374C12.6815 9.501 12.6057 9.59303 12.5094 9.65936C12.362 9.76666 12.1901 9.83541 12.0094 9.85936C11.896 9.88248 11.7811 9.8971 11.6656 9.90311L11.225 9.92811C11 9.94061 10.8437 9.97499 10.6844 10.1344C10.7594 10.1875 10.8094 10.2437 10.8094 10.3344C10.8094 10.4281 10.7531 10.5 10.6625 10.5281C10.6406 10.5344 10.625 10.5281 10.6031 10.5406C10.5812 10.5531 10.5812 10.5812 10.5594 10.5937C10.5242 10.6168 10.4825 10.6277 10.4406 10.625C10.4036 10.6276 10.3664 10.622 10.3318 10.6085C10.2972 10.595 10.266 10.5739 10.2406 10.5469C10.1719 10.6031 10.1469 10.6531 10.0687 10.7C10.0437 10.7125 10.0312 10.7312 10.0031 10.7312C9.95623 10.7312 9.93435 10.7 9.89685 10.675C9.8458 10.6394 9.79958 10.5974 9.75935 10.55C9.68748 10.5906 9.64685 10.625 9.56248 10.625C9.51862 10.6274 9.47506 10.6165 9.43748 10.5937C9.41873 10.5781 9.41248 10.5562 9.3906 10.5437C9.36873 10.5281 9.34998 10.5344 9.32498 10.5219C9.23123 10.4812 9.16873 10.4125 9.16873 10.3094C9.16873 10.2187 9.22498 10.1625 9.30623 10.1219C9.14998 9.96561 8.99373 9.94061 8.77498 9.92811L8.33748 9.90311C8.19998 9.89374 8.12498 9.88124 7.99373 9.85936C7.8906 9.84374 7.83123 9.83749 7.73748 9.79374C7.41873 9.64374 7.21248 9.44061 7.17498 9.09061C7.16873 9.05936 7.16873 9.04374 7.16873 9.01249C7.16873 8.83124 7.2406 8.71874 7.36873 8.59061C7.33748 8.58124 7.3156 8.59061 7.28123 8.58124C7.2031 8.54999 7.14373 8.49686 7.14373 8.40936C7.14373 8.37811 7.14373 8.35624 7.15935 8.32811C7.17185 8.30936 7.1906 8.30624 7.19685 8.28436C7.2031 8.25311 7.19685 8.23436 7.20935 8.20624C7.21873 8.19061 7.23435 8.18749 7.2406 8.16874C7.27185 8.10936 7.3031 8.06249 7.36873 8.06249C7.42498 8.06249 7.46248 8.09374 7.48748 8.14061C7.54373 8.11561 7.55623 8.07499 7.58748 8.02499C7.62534 7.96337 7.64891 7.89406 7.65648 7.82214C7.66406 7.75022 7.65543 7.67751 7.63123 7.60936C7.61873 7.56249 7.61248 7.53124 7.57498 7.49374C7.54373 7.52499 7.51248 7.53749 7.46873 7.53749C7.3781 7.53749 7.31248 7.45936 7.31248 7.37186C7.31152 7.34119 7.32 7.31096 7.33676 7.28526C7.35353 7.25955 7.37777 7.23961 7.40623 7.22811C7.35623 7.18436 7.31248 7.18124 7.25935 7.14686C7.1781 7.09686 7.14998 7.04061 7.09685 6.95936C7.05935 6.90936 7.04998 6.87186 7.03435 6.81249C7.00705 6.73431 6.99641 6.65128 7.0031 6.56874C7.02185 6.41249 7.04998 6.31874 7.14685 6.19686C7.2031 6.12499 7.2406 6.08124 7.3281 6.04374C7.39998 6.01249 7.44373 5.99061 7.52185 5.99061L7.58435 5.99374C7.61497 5.99575 7.6448 6.00427 7.67185 6.01874C7.68435 6.02499 7.70623 6.04686 7.70623 6.03124C7.70623 6.01561 7.69685 6.00624 7.69685 5.99061C7.69685 5.92811 7.74373 5.86561 7.80935 5.86561C7.85623 5.86561 7.87498 5.90936 7.89998 5.94999C7.91248 5.92499 7.92185 5.90624 7.92185 5.87811C7.92185 5.77186 7.86248 5.71561 7.79685 5.63124C7.64998 5.44999 7.46873 5.36561 7.46873 5.13124C7.46873 5.06249 7.49998 5.01561 7.56248 4.97811C7.5781 4.96874 7.6031 4.97811 7.61873 4.96874C7.63435 4.95936 7.63123 4.93749 7.6406 4.92499C7.65623 4.90311 7.67185 4.89374 7.6906 4.87499C7.72185 4.84374 7.7531 4.85624 7.78748 4.82811C7.80623 4.81561 7.81248 4.79686 7.82498 4.78436C7.8656 4.73436 7.9031 4.70936 7.96873 4.70936C7.99998 4.70936 8.01873 4.70936 8.04685 4.72186L8.0781 4.73749C8.08748 4.73124 8.1031 4.71249 8.12498 4.70311C8.14559 4.69032 8.16948 4.68381 8.19373 4.68436C8.2281 4.68436 8.24998 4.70311 8.28748 4.70311C8.29685 4.70311 8.29998 4.69061 8.31248 4.68436C8.34373 4.66249 8.35935 4.65311 8.39685 4.65311C8.43435 4.65311 8.4531 4.66249 8.48435 4.68436C8.5156 4.69999 8.5156 4.72499 8.54685 4.74061C8.56248 4.74999 8.5781 4.74686 8.59373 4.75311C8.67498 4.78124 8.73435 4.83436 8.73435 4.91874C8.73435 4.96561 8.72498 4.99686 8.6906 5.02811C8.66248 5.04999 8.63748 5.04686 8.6031 5.05936C8.70252 5.13959 8.82887 5.17873 8.95623 5.16874C9.08748 5.16874 9.24685 5.11561 9.24685 4.98436C9.24685 4.92186 9.2156 4.89061 9.1906 4.83436C9.14813 4.75222 9.12564 4.66121 9.12498 4.56874C9.12498 4.48124 9.13435 4.42811 9.18435 4.35936C9.23435 4.28749 9.29685 4.26874 9.38748 4.26874Z" fill="#C7B37F"/>
<path d="M8.51251 4.96877C8.51788 4.98648 8.52754 5.00259 8.54062 5.01567C8.5537 5.02875 8.56981 5.0384 8.58751 5.04377C8.61251 5.05315 8.67189 5.05002 8.70626 5.00002C8.73751 4.96252 8.73751 4.91252 8.72501 4.87502C8.71464 4.84727 8.69612 4.82331 8.67189 4.80627L8.51251 4.96877Z" stroke="#703D29" stroke-width="0.035" stroke-linejoin="round"/>
<path d="M12.5313 7.3781C12.4938 7.28748 12.3969 7.3281 12.3938 7.3781C12.3781 7.49373 12.4781 7.5281 12.55 7.50935C12.5666 7.50487 12.5822 7.49701 12.5956 7.48626C12.609 7.4755 12.6201 7.46209 12.6281 7.44685C12.6469 7.4156 12.6531 7.37185 12.6406 7.33123C12.6354 7.31317 12.627 7.29622 12.6156 7.28123C12.6044 7.26641 12.5907 7.25371 12.575 7.24373C12.5469 7.22498 12.5156 7.22498 12.4688 7.22498C12.2969 7.22498 12.1438 7.4281 12.0938 7.64373C12.075 7.71248 12.0531 7.87185 12.0844 8.01873C12.1103 8.15181 12.1744 8.27448 12.2688 8.37185C12.3569 8.45481 12.4627 8.51677 12.5781 8.5531C12.6188 8.56485 12.6619 8.56593 12.7031 8.55623C12.8031 8.53435 12.85 8.43748 12.7969 8.33748C12.7563 8.25935 12.6313 8.21248 12.5719 8.31873C12.5688 8.3281 12.5594 8.34685 12.5594 8.3656C12.5594 8.39373 12.5719 8.4281 12.5906 8.4406C12.6375 8.46873 12.7094 8.45935 12.7063 8.3781" stroke="#703D29" stroke-width="0.035" stroke-linecap="round"/>
<path d="M11.9938 8.5625C12.0472 8.50141 12.12 8.46057 12.2 8.44688C12.2938 8.43438 12.375 8.4625 12.4563 8.50938C12.5578 8.55586 12.6437 8.63077 12.7036 8.72505C12.7635 8.81933 12.7948 8.92894 12.7938 9.04063C12.7938 9.15313 12.7625 9.275 12.7313 9.33438C12.7063 9.3875 12.6375 9.61563 12.2531 9.77188C12.0313 9.86563 11.6906 9.88438 11.45 9.89688C11.125 9.90625 10.825 9.91875 10.6531 10.1344" stroke="#703D29" stroke-width="0.04"/>
<path d="M12.075 8.9281C12.0657 8.89685 12.075 8.86247 12.1 8.82497C12.1375 8.77497 12.2157 8.75935 12.2875 8.79372C12.3185 8.81041 12.3452 8.83392 12.3657 8.86247L12.4 8.91247C12.4219 8.94685 12.4313 8.97497 12.4313 8.9906C12.5094 9.20935 12.3875 9.44372 12.2282 9.5406C12.1032 9.6156 11.9563 9.64685 11.7782 9.6656C11.7 9.6781 11.6532 9.67497 11.575 9.68122H11.275C11.2001 9.67737 11.125 9.67737 11.05 9.68122C10.9594 9.6906 10.8938 9.69372 10.8125 9.70622C10.7625 9.71247 10.7063 9.72185 10.6438 9.73747C10.625 9.73747 10.6063 9.74372 10.5875 9.74997L10.55 9.75935C10.4375 9.79372 10.3313 9.83435 10.2438 9.8906C10.2188 9.90622 10.1875 9.92185 10.1657 9.94372L10.125 9.98122C10.0625 10.0437 10.0032 10.1062 9.98754 10.1906V10.2406C9.98754 10.2968 10.0313 10.375 10.1563 10.3968M10.3282 5.08435C10.3532 5.1281 10.3688 5.15622 10.3532 5.20622C10.3344 5.25935 10.2969 5.29372 10.2407 5.29372C10.1157 5.29372 10.0438 5.14372 10.1 5.04997C10.2 4.88435 10.3907 4.9781 10.5688 5.05935C10.5594 5.01872 10.5438 5.0031 10.5469 4.94997C10.55 4.81872 10.6469 4.76247 10.6875 4.63747C10.7094 4.5656 10.7188 4.5031 10.6657 4.44997C10.6188 4.40935 10.5657 4.40935 10.5063 4.43122C10.3875 4.4781 10.2407 4.6156 9.98754 4.61872C9.73129 4.6156 9.58754 4.4781 9.46567 4.43122C9.40317 4.40935 9.35317 4.40935 9.30629 4.4531C9.25317 4.5031 9.26254 4.5656 9.28442 4.6406C9.32504 4.75935 9.42192 4.81872 9.42504 4.9531C9.42504 5.0031 9.41254 5.0156 9.40317 5.05935C9.58129 4.9781 9.77817 4.87497 9.87192 5.04997C9.92504 5.14997 9.85629 5.2906 9.73129 5.2906C9.67504 5.2906 9.63754 5.25935 9.61879 5.20622C9.60629 5.15935 9.61879 5.11872 9.64379 5.08122" stroke="#703D29" stroke-width="0.035"/>
<path d="M9.83129 4.99683C9.857 5.0134 9.87762 5.03678 9.89086 5.06436C9.90409 5.09194 9.90944 5.12265 9.90629 5.15308C9.90004 5.2312 9.88129 5.24995 9.81879 5.2937M9.89379 5.17495C9.89066 5.22183 9.87191 5.25308 9.82191 5.27183" stroke="#703D29" stroke-width="0.035" stroke-linecap="round"/>
<path d="M8.64689 4.79065L8.66876 4.80627L8.69376 4.83127L8.70939 4.86252L8.71564 4.88752V4.9469L8.70939 4.9719L8.69376 4.99065L8.67501 5.0094L8.64689 5.02502L8.61564 5.03127L8.58439 5.03752L8.55314 5.0219L8.52501 5.00315L8.50939 4.97815L8.49689 4.9469V4.9344L8.64689 4.79065Z" fill="#C7B37F"/>
<path d="M8.6 4.91253C8.59063 4.8594 8.53125 4.85003 8.50625 4.88128C8.47188 4.92815 8.49688 5.00628 8.56875 5.02815C8.59113 5.03269 8.61431 5.031 8.6358 5.02329C8.65728 5.01558 8.67624 5.00213 8.69063 4.9844C8.72188 4.94378 8.71875 4.8969 8.70625 4.8594C8.69625 4.83145 8.67765 4.80739 8.65313 4.79065C8.56875 4.72815 8.43125 4.74065 8.38438 4.85315C8.32813 4.99065 8.45313 5.0969 8.57188 5.17503C8.71563 5.27503 8.88438 5.29378 9.00938 5.29378C9.29688 5.29065 9.51563 5.15315 9.65625 5.07503C9.6875 5.05628 9.72188 5.0594 9.74063 5.08128C9.74998 5.09394 9.7542 5.10966 9.75246 5.1253C9.75073 5.14094 9.74315 5.15535 9.73125 5.16565" stroke="#703D29" stroke-width="0.035" stroke-linecap="round"/>
<path d="M7.75002 8.78748L7.68752 8.80935L7.62502 8.85935L7.59377 8.89997L7.5594 8.96247L7.54377 9.00935L7.53127 9.0656L7.52502 9.10935M8.11877 8.79373L8.11565 8.84998L8.10627 8.88748L8.07502 8.95623L8.0344 9.01248L7.98752 9.04998L7.95315 9.0656L7.90315 9.0781" stroke="#703D29" stroke-width="0.035"/>
<path d="M9.99065 10.2844C9.98128 10.3375 9.93127 10.3969 9.82502 10.4156L9.80627 10.4219" stroke="#703D29" stroke-width="0.04"/>
<path d="M12.6313 8.63123C12.6878 8.68575 12.7326 8.75135 12.7627 8.82393C12.7928 8.89652 12.8076 8.97453 12.8062 9.0531C12.8062 9.1656 12.775 9.28748 12.7437 9.34685C12.7187 9.39998 12.65 9.6281 12.2656 9.78435C12.0069 9.86666 11.7371 9.90881 11.4656 9.90935C11.1437 9.91873 10.8469 9.93123 10.6719 10.1375" stroke="#703D29" stroke-width="0.045"/>
<path d="M12.1094 8.84065C12.1344 8.8094 12.2187 8.76565 12.2906 8.80627C12.3194 8.8208 12.3441 8.84229 12.3625 8.86877" stroke="#703D29" stroke-width="0.03"/>
<path d="M12.55 8.55627L12.5938 8.5719C12.6346 8.58406 12.678 8.58406 12.7188 8.5719C12.8063 8.5469 12.8625 8.46565 12.8188 8.35627C12.8054 8.33032 12.7862 8.30785 12.7625 8.29065" stroke="#703D29" stroke-width="0.045"/>
<path d="M7.50939 6.24375C7.44689 6.27813 7.40626 6.2875 7.35939 6.34062C7.3232 6.40764 7.29589 6.47907 7.27814 6.55312M8.71564 4.9375C8.71564 4.99375 8.67814 5.025 8.62189 5.0375" stroke="#703D29" stroke-width="0.035" stroke-linecap="round"/>
<path d="M12.4094 6C12.4885 6.00159 12.5664 6.01897 12.6387 6.0511C12.711 6.08323 12.7761 6.12947 12.8302 6.1871C12.8844 6.24474 12.9264 6.31261 12.954 6.38674C12.9815 6.46086 12.994 6.53974 12.9907 6.61875C12.9907 7.11875 12.6813 7.19687 12.5594 7.23125" stroke="#703D29" stroke-width="0.03"/>
<path d="M12.45 6.00003C12.7031 5.99065 12.9656 6.17815 12.9781 6.6469C12.9875 7.01253 12.7281 7.17815 12.6031 7.2094" stroke="#703D29" stroke-width="0.035"/>
<path d="M12.3063 7.76248L12.3094 7.71248L12.3282 7.63435L12.35 7.57185L12.3782 7.52185L12.4094 7.48123M12.6532 7.37498V7.42185L12.6375 7.4531L12.6157 7.48748L12.5907 7.50623L12.5532 7.52185H12.5188L12.4938 7.51873M12.0469 5.86873L12.0563 5.8156L12.0813 5.7656L12.1125 5.71873L12.1625 5.64998L12.2063 5.60623L12.2688 5.53748L12.3313 5.4781L12.3657 5.43748L12.4125 5.3781L12.4563 5.3156L12.4813 5.26248L12.4969 5.19373L12.5 5.10935L12.4938 5.08435M12.1094 9.0906L12.1594 9.0781L12.1969 9.05935L12.2188 9.03748L12.2344 9.01248L12.2438 8.97498V8.94685M7.30005 8.56873H7.38442L7.43442 8.54998M7.59067 7.40935L7.58442 7.4531L7.57192 7.47185L7.55942 7.4906L7.53755 7.50623L7.51567 7.5156L7.48442 7.51873H7.46567M7.77505 7.03435L7.76567 7.09998L7.75005 7.13123L7.72505 7.16873L7.68755 7.19685L7.65005 7.2156L7.57817 7.23123M8.0563 5.9906L8.04067 6.03123L8.02505 6.06248L8.00005 6.09373L7.9688 6.12498L7.9313 6.1406L7.89692 6.14998L7.87817 6.14685M7.88755 5.9531V5.98435" stroke="#703D29" stroke-width="0.03"/>
<path d="M7.94691 7C7.92791 7.01849 7.90567 7.03333 7.88129 7.04375M12.5844 8.44375L12.6 8.45C12.6438 8.475 12.7313 8.44375 12.7063 8.375" stroke="#703D29" stroke-width="0.03" stroke-linecap="round"/>
<path d="M12.4313 7.48751C12.4625 7.52814 12.5219 7.54064 12.5688 7.52814C12.5854 7.52366 12.6009 7.5158 12.6144 7.50504C12.6278 7.49429 12.6389 7.48087 12.6469 7.46564C12.6657 7.43439 12.6719 7.39064 12.6594 7.35001C12.6533 7.33172 12.6437 7.31476 12.6313 7.30001C12.6201 7.28248 12.6064 7.26669 12.5907 7.25314L12.5782 7.24689M12.7782 8.30939C12.7798 8.3022 12.7809 8.29488 12.7813 8.28751C12.7815 8.26991 12.778 8.25245 12.771 8.2363C12.764 8.22014 12.7537 8.20565 12.7407 8.19376L12.7157 8.16876M12.7282 8.18439C12.7282 8.12814 12.6813 8.08439 12.6219 8.07501M12.4907 8.16251L12.45 8.13126C12.3645 8.04089 12.3164 7.92136 12.3157 7.79689C12.3157 7.66564 12.3657 7.53439 12.4282 7.48439M10.6625 10.125L10.7188 10.075L10.7563 10.0438L10.8282 10L10.8969 9.96876L10.9469 9.95314L11.0407 9.93439L11.1532 9.91564M10.2313 10.5219C10.1724 10.6072 10.0899 10.6735 9.99379 10.7125C9.89834 10.6724 9.81606 10.6064 9.75629 10.5219" stroke="#703D29" stroke-width="0.03"/>
<path d="M9.82504 10.3937C9.81297 10.4424 9.78939 10.4874 9.75629 10.525" stroke="#703D29" stroke-width="0.03" stroke-linecap="round"/>
<path d="M9.8344 10.3281L9.8219 10.3969M9.75002 10.5313L9.71877 10.5625L9.66565 10.5906L9.60315 10.6094M9.42815 5.05313C9.43752 5.02813 9.44377 5.00938 9.44377 4.97188C9.44065 4.84063 9.34377 4.78125 9.30315 4.65938M9.30315 4.65938C9.28127 4.5875 9.2719 4.525 9.32502 4.47188C9.36877 4.42813 9.42502 4.42813 9.48127 4.45313C9.60627 4.5 9.75002 4.63438 10.0031 4.64063C9.75002 4.63438 9.60315 4.5 9.4844 4.45313C9.4219 4.42813 9.36565 4.42188 9.31877 4.46875C9.26565 4.51875 9.28127 4.5875 9.30315 4.65938ZM9.30315 4.65938C9.34377 4.78125 9.4344 4.84063 9.43752 4.97188C9.43752 5.00938 9.42815 5.02813 9.4219 5.05313M10 4.625C10.25 4.6125 10.4656 4.44375 10.5344 4.42813C10.5969 4.41563 10.6281 4.42188 10.675 4.4625C10.6313 4.42188 10.5813 4.425 10.5188 4.44688C10.4 4.49375 10.2563 4.62813 10 4.63438M12.4875 8.16251C12.4274 8.11739 12.3785 8.05888 12.3449 7.99162C12.3113 7.92437 12.2938 7.8502 12.2938 7.775C12.2938 7.64688 12.3469 7.5125 12.4063 7.4625M10.2188 10.5125C10.1781 10.575 10.0844 10.6688 9.98127 10.7063C9.88544 10.6653 9.80311 10.5982 9.74377 10.5125" stroke="#703D29" stroke-width="0.03"/>
<path d="M9.58441 5.11562L9.65629 5.07499C9.68754 5.05624 9.72816 5.05937 9.74691 5.08124C9.76566 5.10312 9.76879 5.14374 9.74066 5.16874" stroke="#703D29" stroke-width="0.03" stroke-linecap="round"/>
<path d="M9.20942 5.29063C9.3813 5.25313 9.52192 5.17813 9.62817 5.11875M10.6344 10.25C10.65 10.2594 10.6594 10.2812 10.6594 10.2812C10.6625 10.2875 10.6688 10.2969 10.6688 10.3062C10.6782 10.3531 10.6469 10.3812 10.6063 10.3875C10.5532 10.3937 10.5125 10.3625 10.4969 10.325M9.20005 5.28125C9.37192 5.24687 9.51255 5.16875 9.6188 5.10938M12.6688 8.45C12.6375 8.4625 12.6188 8.45938 12.575 8.44375L12.5188 8.4125C12.4048 8.34754 12.3133 8.24945 12.2563 8.13125C12.2324 8.08586 12.2145 8.03753 12.2032 7.9875C12.1932 7.95402 12.1879 7.91931 12.1875 7.88438C12.1841 7.7134 12.2356 7.54583 12.3344 7.40625C12.3688 7.35625 12.4 7.32812 12.4657 7.325M7.97505 6.09688C8.00189 6.11806 8.02346 6.14516 8.0381 6.17605C8.05274 6.20695 8.06003 6.24082 8.05942 6.275C8.05942 6.37188 7.97817 6.53125 7.77817 6.5875C7.71183 6.60559 7.64101 6.5966 7.5813 6.5625" stroke="#703D29" stroke-width="0.03"/>
<path d="M8.00939 6.42499C8.04376 6.44999 8.05939 6.47811 8.05939 6.52811C8.05939 6.55936 8.03751 6.60311 8.00001 6.64374C7.96488 6.68192 7.92243 6.71267 7.87519 6.73414C7.82796 6.75561 7.77688 6.76738 7.72501 6.76874C7.66251 6.76874 7.60001 6.75624 7.53751 6.71561C7.47798 6.67644 7.43554 6.61613 7.41876 6.54686" stroke="#703D29" stroke-width="0.03"/>
<path d="M8.00625 6.63437C8.04688 6.67187 8.05937 6.71875 8.05937 6.77812C8.05937 6.8625 8.025 6.92812 7.94375 6.99687C7.925 7.01562 7.90625 7.02812 7.88125 7.04375M11.9281 6.35312V6.4625M11.9187 6.325V6.48125M11.9281 5.9875V6.19375M11.9187 5.94375V6.22187M11.8594 8.78437C11.827 8.85045 11.7825 8.90982 11.7281 8.95937C11.676 9.01276 11.6146 9.05618 11.5469 9.0875C11.4817 9.12007 11.4123 9.14322 11.3406 9.15625C11.271 9.17298 11.1997 9.1824 11.1281 9.18437C11.05 9.18437 11.0063 9.18437 10.9281 9.17812C10.8469 9.17187 10.8031 9.15937 10.7188 9.15312C10.65 9.14687 10.6125 9.14062 10.5437 9.14375C10.4266 9.13952 10.3097 9.15864 10.2 9.2C10.1187 9.23125 10.0219 9.29375 10.0031 9.31875C9.94369 9.26809 9.87605 9.22793 9.80313 9.2C9.75195 9.17906 9.69844 9.16437 9.64375 9.15625C9.57188 9.14375 9.53437 9.14375 9.4625 9.14375C9.39375 9.14375 9.35625 9.14687 9.2875 9.15312C9.20625 9.1625 9.1625 9.17187 9.07812 9.17812C9 9.18437 8.95625 9.1875 8.87813 9.18437C8.73351 9.18283 8.59084 9.15089 8.45938 9.09062C8.38306 9.05498 8.31496 9.00391 8.25937 8.94062M9.575 10.6094L9.63125 10.6031M10.5781 10.5281L10.6344 10.525L10.6875 10.5031L10.725 10.4781L10.7781 10.4156L10.7875 10.3969L10.7969 10.3437V10.3187M12.2656 6.04687C12.2875 5.96562 12.2594 5.87812 12.1781 5.88125M8.05313 7.33437C8.036 7.39513 7.99705 7.44743 7.94375 7.48125M8.05625 6.02187C8.04751 6.04953 8.03295 6.075 8.01354 6.09656C7.99414 6.11812 7.97034 6.13528 7.94375 6.14687C7.88437 6.17187 7.81875 6.14687 7.78125 6.12187" stroke="#703D29" stroke-width="0.03"/>
<path d="M7.61877 6.32502C7.66565 6.35002 7.71565 6.31252 7.70627 6.25002C7.70189 6.23193 7.69204 6.21562 7.67806 6.20332C7.66409 6.19102 7.64666 6.18332 7.62815 6.18127" stroke="#703D29" stroke-width="0.03" stroke-linecap="round"/>
<path d="M7.8188 8.95628C7.82817 8.96565 7.8313 8.97815 7.8438 8.98128C7.86567 8.98753 7.8813 8.99378 7.90317 8.96565C7.92817 8.93128 7.91255 8.87815 7.88755 8.84378C7.86452 8.82007 7.83458 8.80427 7.80201 8.79866C7.76944 8.79304 7.73593 8.7979 7.7063 8.81253C7.6813 8.82815 7.65317 8.84378 7.62505 8.88128L7.59067 8.93128C7.5688 8.96565 7.55942 8.99378 7.5563 9.00628C7.4938 9.19065 7.5688 9.38128 7.68442 9.4969" stroke="#703D29" stroke-width="0.03"/>
<path d="M10.6313 10.2438L10.6531 10.2688L10.6594 10.2969C10.6688 10.3438 10.6375 10.3719 10.5969 10.3781C10.5469 10.3844 10.5094 10.3531 10.4938 10.3156" stroke="#703D29" stroke-width="0.03" stroke-linecap="round"/>
<path d="M12.1688 4.83752C12.2219 4.84546 12.2706 4.87162 12.3065 4.91154C12.3424 4.95145 12.3633 5.00263 12.3657 5.05627C12.3657 5.19377 12.3188 5.24377 12.2469 5.34377C12.1688 5.45002 11.9125 5.64377 11.9125 5.86565C11.9125 6.00002 11.95 6.0844 12.0469 6.12815C12.1094 6.1594 12.1813 6.12815 12.2157 6.0969C12.2969 6.0219 12.2625 5.89377 12.1782 5.87815C12.0782 5.8594 12.0563 6.0219 12.1563 6.01252M12.7157 8.16877C12.7106 8.14256 12.6967 8.11891 12.6761 8.10182C12.6556 8.08473 12.6299 8.07526 12.6032 8.07502C12.5725 8.07502 12.5431 8.08721 12.5214 8.10889C12.4997 8.13057 12.4875 8.15998 12.4875 8.19065C12.4875 8.2219 12.5 8.25315 12.5188 8.2719" stroke="#703D29" stroke-width="0.03"/>
<path d="M11.9969 6.09686C11.9701 6.11805 11.9485 6.14514 11.9338 6.17604C11.9192 6.20694 11.9119 6.2408 11.9125 6.27499C11.9125 6.37186 11.9938 6.53124 12.1938 6.58749C12.2688 6.60936 12.3438 6.60624 12.3875 6.57811M7.51251 6.25624C7.45201 6.27552 7.39938 6.3139 7.36252 6.36561C7.28807 6.48363 7.26335 6.62631 7.29376 6.76249C7.30622 6.82491 7.33063 6.88433 7.36564 6.93749C7.37481 6.95098 7.38528 6.96354 7.39689 6.97499L7.43439 7.00624M9.43439 9.88124C9.58751 9.94686 9.69689 9.99686 9.79064 10.1469C9.81602 10.1939 9.82893 10.2466 9.82814 10.3C9.82814 10.3844 9.79689 10.4781 9.72502 10.5375C9.69676 10.5625 9.66339 10.5811 9.62723 10.5919C9.59107 10.6027 9.55298 10.6054 9.51564 10.6C9.45627 10.5937 9.40002 10.55 9.39064 10.5187M7.93752 7.00311C8.02189 7.07186 8.05939 7.13436 8.05939 7.23749C8.06128 7.28414 8.0507 7.33045 8.02872 7.37165C8.00675 7.41285 7.97419 7.44744 7.93439 7.47186" stroke="#703D29" stroke-width="0.03"/>
<path d="M7.85938 7.38751C7.98437 7.54689 8.05625 7.64064 8.05937 7.82814C8.0625 8.00626 8.00625 8.12814 7.90312 8.25626" stroke="#703D29" stroke-width="0.03" stroke-linecap="round"/>
<path d="M10.3063 5.29061C10.3291 5.27355 10.3456 5.24936 10.3531 5.22186C10.3688 5.17499 10.3688 5.13436 10.3469 5.09686C10.3781 5.14061 10.3781 5.17499 10.3688 5.22186C10.3656 5.25311 10.3438 5.26874 10.3188 5.29374M11.9282 7.98436V8.49061L11.925 8.56874C11.9223 8.58652 11.9192 8.60424 11.9156 8.62186" stroke="#703D29" stroke-width="0.03"/>
<path d="M11.9188 7.93751V8.55939L11.9031 8.64064M11.9188 7.29689V7.75314M11.9281 7.33439V7.70314M11.9281 6.86564V7.14064M11.9188 6.83126V7.17501M11.9281 6.58126V6.69064M11.9188 6.55939V6.71564M11.8625 8.75314L11.85 8.77501C11.8189 8.84194 11.7755 8.90238 11.7219 8.95314C11.6686 9.00572 11.6061 9.04809 11.5375 9.07814C11.4734 9.11043 11.405 9.13357 11.3344 9.14689C11.25 9.16564 11.2031 9.17189 11.1188 9.17501C11.0406 9.17501 10.9969 9.17501 10.9219 9.16876C10.8375 9.16251 10.7938 9.15314 10.7094 9.14376C10.6406 9.13751 10.6031 9.13439 10.5344 9.13439C10.4656 9.13439 10.425 9.13439 10.3563 9.14689C10.3005 9.15476 10.2459 9.16945 10.1938 9.19064C10.1094 9.22501 10.0156 9.28439 9.99377 9.30939C9.97502 9.28439 9.87815 9.22501 9.7969 9.19064C9.74473 9.16945 9.69015 9.15476 9.6344 9.14689C9.56565 9.13439 9.52502 9.13439 9.45315 9.13439C9.3844 9.13439 9.3469 9.13751 9.27815 9.14376C9.1969 9.15314 9.15315 9.16251 9.06877 9.16876C8.99065 9.17501 8.9469 9.17814 8.8719 9.17501C8.72623 9.17391 8.58245 9.14196 8.45002 9.08126C8.38227 9.05001 8.32084 9.00658 8.26877 8.95314C8.24029 8.92625 8.21415 8.89698 8.19065 8.86564M8.12815 8.76564C8.13327 8.80853 8.12954 8.85202 8.11717 8.89341C8.10481 8.9348 8.08408 8.97321 8.05627 9.00626C8.03127 9.03439 7.97502 9.08751 7.90002 9.08751C7.7844 9.08751 7.75002 9.00939 7.74377 8.98751" stroke="#703D29" stroke-width="0.03"/>
<path d="M7.98752 8.71564C8.0094 8.73751 8.02815 8.76251 8.0469 8.79376C8.07815 8.85001 8.06565 8.94376 8.04377 8.98751C8.04089 8.99185 8.03776 8.99603 8.0344 9.00001M7.40002 9.56251C7.4719 9.63751 7.57815 9.71876 7.74065 9.78439C7.96252 9.87814 8.30627 9.89689 8.54377 9.90939C8.85627 9.91876 9.1469 9.93126 9.32502 10.1281M9.86565 10.0031C9.92302 10.0472 9.96643 10.1069 9.99065 10.175M9.76252 10.5344C9.75568 10.5421 9.74838 10.5494 9.74065 10.5563C9.71276 10.5809 9.67991 10.5992 9.64432 10.6099C9.60874 10.6207 9.57125 10.6237 9.5344 10.6188C9.4719 10.6125 9.41565 10.5688 9.40002 10.5375M9.23127 10.4469L9.24065 10.4594C9.2822 10.5039 9.33925 10.5307 9.40002 10.5344M10.2438 10.5344C10.1828 10.619 10.0995 10.685 10.0031 10.725C9.90771 10.6849 9.82542 10.6189 9.76565 10.5344L9.75627 10.5188M10.2438 10.5313L10.2656 10.5531C10.2939 10.5782 10.3273 10.5967 10.3634 10.6075C10.3996 10.6183 10.4377 10.6211 10.475 10.6156C10.5004 10.6127 10.5247 10.6042 10.5463 10.5907C10.5679 10.5771 10.5863 10.559 10.6 10.5375L10.6156 10.5156" stroke="#703D29" stroke-width="0.03"/>
<path d="M10.5938 10.5187L10.5719 10.5562L10.5375 10.5875L10.4844 10.6094H10.4344" stroke="#703D29" stroke-width="0.03"/>
<path d="M10.7188 10.1656C10.7509 10.1892 10.7767 10.2203 10.7938 10.2563C10.8032 10.2781 10.8063 10.3031 10.8094 10.3281C10.8107 10.352 10.8072 10.3759 10.7991 10.3984C10.7911 10.421 10.7786 10.4417 10.7625 10.4594C10.741 10.4827 10.7149 10.5013 10.6859 10.5142C10.6569 10.5271 10.6255 10.534 10.5938 10.5344C10.5896 10.5345 10.5855 10.5345 10.5813 10.5344M10.5875 10.5281C10.5571 10.529 10.5269 10.5233 10.4988 10.5114C10.4708 10.4996 10.4456 10.4818 10.425 10.4594M12.4157 8.3375C12.3547 8.27977 12.304 8.21215 12.2657 8.1375C12.242 8.09309 12.2242 8.04583 12.2125 7.99687C12.2026 7.9634 12.1973 7.92869 12.1969 7.89375C12.1935 7.72324 12.2438 7.55596 12.3407 7.41563C12.3625 7.39063 12.3844 7.35938 12.4063 7.34688M12.3657 4.975C12.4438 4.98125 12.5157 5.06875 12.5157 5.15312C12.5157 5.27187 12.475 5.325 12.3782 5.44375C12.2969 5.54375 12.0469 5.725 12.0563 5.89687C12.0563 5.92812 12.0719 5.95937 12.0907 5.98438M11.9907 6.09375C12.0088 6.11188 12.0299 6.12669 12.0532 6.1375C12.0749 6.14606 12.0982 6.14966 12.1214 6.14804C12.1447 6.14641 12.1673 6.13961 12.1875 6.12813M11.5313 4.78125C11.5616 4.80112 11.5855 4.82934 11.6 4.8625C11.6563 5.00313 11.5313 5.10938 11.4125 5.1875C11.3344 5.23982 11.2459 5.27497 11.1532 5.29063" stroke="#703D29" stroke-width="0.03"/>
<path d="M11.3938 5.05C11.3752 5.04948 11.357 5.04503 11.3403 5.03695C11.3236 5.02887 11.3088 5.01734 11.2969 5.00313C11.2878 4.99411 11.2804 4.98353 11.275 4.97188M10.8063 5.125C10.7921 5.1168 10.7794 5.10623 10.7688 5.09375C10.7375 5.0625 10.7219 5.02188 10.7438 4.95625C10.7625 4.89688 10.8594 4.73125 10.8625 4.61562C10.8688 4.44062 10.8 4.33438 10.6969 4.29688" stroke="#703D29" stroke-width="0.03"/>
<path d="M10.8532 4.57812L10.85 4.64062L10.8313 4.70937L10.8 4.80312L10.7688 4.8625L10.7438 4.92188L10.7313 4.9625L10.725 4.99375L10.7282 5.02187M11.9157 8.96875L11.9344 8.99375C11.9563 9.025 12.0344 9.0875 12.1063 9.0875C12.2219 9.0875 12.25 9.00625 12.2532 8.9875C12.2688 8.89688 12.2375 8.875 12.1907 8.84688C12.1907 8.84688 12.1657 8.83437 12.1313 8.84062" stroke="#703D29" stroke-width="0.03" stroke-linecap="round"/>
<path d="M7.4063 8.57502C7.36848 8.58555 7.3285 8.58555 7.29067 8.57502C7.20005 8.5469 7.12817 8.46252 7.16567 8.35627M7.58442 7.36252C7.5938 7.3719 7.59692 7.3844 7.59692 7.39377C7.60942 7.51252 7.50942 7.54377 7.44067 7.52502C7.40204 7.51266 7.3689 7.48725 7.34692 7.45315C7.33352 7.43149 7.32599 7.40672 7.32505 7.38127M8.01255 6.64377C8.0313 6.6594 8.0438 6.67502 8.05317 6.6969M8.0188 6.43127C8.03442 6.44377 8.04692 6.4594 8.05317 6.4719" stroke="#703D29" stroke-width="0.03"/>
<path d="M8.05937 6.57811C8.0471 6.60578 8.03019 6.63114 8.00937 6.65311C7.97424 6.6913 7.9318 6.72204 7.88456 6.74351C7.83732 6.76499 7.78625 6.77675 7.73437 6.77811C7.67187 6.77811 7.60937 6.76561 7.54687 6.72499C7.4848 6.68433 7.44021 6.62189 7.42188 6.54999" stroke="#703D29" stroke-width="0.03" stroke-linecap="round"/>
<path d="M7.98126 6.10315C8.01542 6.13112 8.04135 6.16784 8.05626 6.2094" stroke="#703D29" stroke-width="0.03"/>
<path d="M8.0563 6.34998C8.02817 6.44373 7.94692 6.55623 7.78755 6.59685C7.71255 6.6156 7.61255 6.5906 7.5813 6.5656" stroke="#703D29" stroke-width="0.03" stroke-linecap="round"/>
<path d="M7.5 6.33123C7.50938 6.41248 7.5625 6.47498 7.66875 6.47498C7.81562 6.4781 7.90625 6.2656 7.775 6.1156" stroke="#703D29" stroke-width="0.03"/>
<path d="M7.16876 7.0469C7.19064 7.07502 7.21564 7.10002 7.24376 7.1219C7.29852 7.16878 7.36235 7.20389 7.43126 7.22502M7.59376 7.24065C7.72501 7.22502 7.80001 7.12502 7.78126 7.01252C7.77189 6.92502 7.69376 6.85627 7.63751 6.85315" stroke="#703D29" stroke-width="0.03" stroke-linecap="round"/>
<path d="M7.80627 5.87811C7.86565 5.87811 7.90002 5.92811 7.8969 5.97186" stroke="#703D29" stroke-width="0.03"/>
<path d="M7.79376 5.09375C7.823 5.1714 7.87821 5.23655 7.95001 5.27812M12.4563 6.24687C12.5094 6.31875 12.475 6.46562 12.3313 6.46562C12.3031 6.46593 12.2753 6.45888 12.2506 6.44518C12.2259 6.43149 12.2053 6.41161 12.1906 6.3875" stroke="#703D29" stroke-width="0.03" stroke-linecap="round"/>
<path d="M11.9282 5.28436V5.78124" stroke="#703D29" stroke-width="0.03"/>
<path d="M7.61877 6.32186C7.66252 6.35311 7.72189 6.29998 7.69689 6.24061C7.68127 6.20311 7.62814 6.15936 7.55002 6.21248C7.46252 6.27186 7.48752 6.45623 7.65002 6.45936C7.79689 6.45936 7.88752 6.24686 7.75627 6.09686C7.63127 5.95311 7.40314 5.98436 7.25627 6.10311C7.14313 6.19694 7.06405 6.32544 7.03127 6.46873C7.01147 6.56354 7.01147 6.66142 7.03127 6.75623C7.04698 6.83971 7.07883 6.91932 7.12502 6.99061L7.16564 7.04373C7.19064 7.06873 7.19689 7.08123 7.22814 7.10623C7.31784 7.18468 7.43405 7.22603 7.55314 7.22186C7.69689 7.21561 7.78127 7.11561 7.76564 6.99373C7.75314 6.87498 7.63439 6.81561 7.55627 6.87186C7.50314 6.90936 7.48439 7.02498 7.57814 7.05311C7.62814 7.06873 7.67502 6.99998 7.64064 6.95936M11.6875 4.71561C11.7719 4.67186 11.8375 4.67811 11.8844 4.74686C11.9294 4.81262 11.9473 4.89322 11.9344 4.97186C11.9223 5.04399 11.8832 5.1088 11.825 5.15311" stroke="#703D29" stroke-width="0.03" stroke-linecap="round"/>
<path d="M11.8906 4.75002C11.9875 4.68752 12.0937 4.71565 12.15 4.80002C12.1906 4.86252 12.2031 4.91252 12.2 4.99065C12.197 5.04972 12.1791 5.10706 12.148 5.15734C12.1168 5.20762 12.0734 5.24918 12.0219 5.27815" stroke="#703D29" stroke-width="0.03" stroke-linecap="round"/>
<path d="M12.3438 4.97498C12.425 4.98123 12.4875 5.0531 12.4875 5.13435C12.4875 5.2531 12.4563 5.30623 12.3625 5.42498C12.2782 5.5281 12.0313 5.70623 12.0375 5.88123C12.0375 5.94685 12.0938 6.00623 12.1407 6.01248" stroke="#703D29" stroke-width="0.03"/>
<path d="M12.3563 6.32186C12.3094 6.35311 12.2532 6.30311 12.2782 6.24686C12.2938 6.20936 12.3469 6.15936 12.425 6.21248C12.5094 6.27186 12.4875 6.45623 12.3219 6.45936C12.175 6.45936 12.0719 6.25311 12.2157 6.09686C12.3407 5.95311 12.5813 5.98123 12.7313 6.09998C12.7938 6.14998 12.9219 6.28748 12.95 6.47498C12.9813 6.69373 12.9782 6.96248 12.75 7.13123C12.6563 7.19686 12.5313 7.22811 12.4188 7.22498C12.275 7.21873 12.1907 7.11561 12.2063 6.99373C12.2219 6.87498 12.3313 6.82498 12.4157 6.87186C12.5032 6.91873 12.4875 7.04061 12.3938 7.05311C12.3407 7.05936 12.2969 6.99998 12.3313 6.95936" stroke="#703D29" stroke-width="0.03" stroke-linecap="round"/>
<path d="M12.2781 6.24686C12.3031 6.13749 12.3938 6.12811 12.4719 6.12811C12.675 6.13124 12.8188 6.37811 12.8219 6.61249C12.8219 6.90936 12.6969 7.08749 12.4781 7.09686C12.4188 7.09686 12.3219 7.07186 12.3219 7.00311" stroke="#703D29" stroke-width="0.03"/>
<path d="M12.4063 6.1969C12.6219 6.2469 12.6969 6.44065 12.6969 6.62815C12.6969 6.78127 12.6813 6.99065 12.3844 7.06252" stroke="#703D29" stroke-width="0.03" stroke-linecap="square"/>
<path d="M12.7625 8.29064C12.766 8.2695 12.7638 8.24781 12.7563 8.22777C12.7487 8.20772 12.736 8.19003 12.7194 8.17647C12.7028 8.16292 12.6829 8.15398 12.6617 8.15055C12.6406 8.14713 12.6189 8.14934 12.5989 8.15697C12.5788 8.1646 12.5612 8.17737 12.5477 8.194C12.5342 8.21063 12.5253 8.23053 12.5219 8.2517C12.5185 8.27286 12.5208 8.29453 12.5285 8.31454C12.5362 8.33455 12.549 8.35217 12.5656 8.36564" stroke="#703D29" stroke-width="0.03"/>
<path d="M12.325 8.10626C12.3688 8.16876 12.4188 8.23439 12.5219 8.29376M12.4813 8.62189C12.3813 8.55314 12.1844 8.46564 12.0125 8.55314C11.9812 8.56506 11.9528 8.58347 11.9291 8.60717C11.9054 8.63087 11.887 8.65931 11.875 8.69064C11.8586 8.74084 11.8551 8.79441 11.8649 8.84633C11.8747 8.89824 11.8976 8.94682 11.9313 8.98751C11.9594 9.01876 12.0157 9.06876 12.0875 9.07189C12.2063 9.07189 12.2344 8.99064 12.2375 8.97189C12.25 8.88439 12.2 8.85001 12.175 8.84376C12.1532 8.83439 12.0875 8.83751 12.075 8.88439C12.0688 8.90001 12.0688 8.92501 12.0813 8.94689" stroke="#703D29" stroke-width="0.03" stroke-linecap="round"/>
<path d="M10.6406 10.2625C10.6719 10.3313 10.6344 10.3625 10.5906 10.3688C10.5219 10.3781 10.4875 10.325 10.4844 10.275C10.4831 10.2564 10.4856 10.2378 10.4918 10.2202C10.4979 10.2027 10.5075 10.1865 10.5201 10.1728C10.5327 10.1591 10.5479 10.148 10.5648 10.1403C10.5818 10.1327 10.6001 10.1285 10.6187 10.1281C10.6906 10.1281 10.7469 10.175 10.775 10.2375C10.7844 10.2594 10.7906 10.2844 10.7906 10.3125C10.7931 10.3593 10.7775 10.4052 10.7469 10.4406C10.7256 10.4645 10.6996 10.4837 10.6706 10.4971C10.6416 10.5106 10.6101 10.5179 10.5781 10.5188C10.4469 10.5219 10.3438 10.4 10.3438 10.275C10.3438 10.0344 10.7 9.90001 10.8437 9.86876C11.027 9.82373 11.2145 9.79858 11.4031 9.79376C11.5125 9.79063 11.5969 9.79376 11.7187 9.77813C11.8281 9.76876 11.8875 9.76251 12 9.73751C12.1466 9.7067 12.2824 9.6377 12.3937 9.53751C12.4844 9.45313 12.5344 9.39688 12.5781 9.28126C12.6025 9.2101 12.6115 9.13459 12.6045 9.05971C12.5975 8.98483 12.5746 8.91228 12.5375 8.84688C12.5031 8.78967 12.4564 8.74089 12.4007 8.70412C12.345 8.66735 12.2817 8.64352 12.2156 8.63438C12.1 8.61876 11.9969 8.66876 11.9344 8.78438C11.9031 8.84063 11.9156 8.93438 11.9375 8.97813C11.9529 9.00489 11.9746 9.02745 12.0007 9.04381C12.0269 9.06016 12.0567 9.0698 12.0875 9.07188C12.2062 9.07188 12.2344 8.99063 12.2375 8.97188C12.25 8.88438 12.2 8.85001 12.175 8.84063C12.1531 8.83438 12.0875 8.83751 12.075 8.88438C12.0687 8.90001 12.0687 8.92501 12.0812 8.94688" stroke="#703D29" stroke-width="0.03" stroke-linecap="round"/>
<path d="M10.5375 9.88123C10.3875 9.94685 10.275 9.99685 10.1813 10.1469C10.1558 10.1938 10.1429 10.2466 10.1438 10.3C10.1438 10.3844 10.1782 10.4781 10.2469 10.5375C10.2752 10.5625 10.3085 10.5811 10.3447 10.5918C10.3809 10.6026 10.4189 10.6054 10.4563 10.6C10.5188 10.5937 10.5719 10.55 10.5813 10.5187" stroke="#703D29" stroke-width="0.03" stroke-linecap="round"/>
<path d="M12.0344 7.00311C11.9625 7.02811 11.9125 7.13436 11.9125 7.23749C11.9106 7.28414 11.9212 7.33045 11.9432 7.37165C11.9651 7.41285 11.9977 7.44744 12.0375 7.47186" stroke="#703D29" stroke-width="0.03"/>
<path d="M12.1125 7.38751C11.9875 7.54689 11.9157 7.64064 11.9125 7.82814C11.9125 8.00626 11.9657 8.12814 12.0719 8.25626" stroke="#703D29" stroke-width="0.03" stroke-linecap="round"/>
<path d="M11.4344 4.75002L11.4438 4.73439C11.4969 4.65939 11.5906 4.63752 11.6594 4.68752C11.7406 4.75002 11.7625 4.85627 11.7406 4.96877C11.725 5.03752 11.6781 5.09689 11.6156 5.14064" stroke="#703D29" stroke-width="0.03"/>
<path d="M8.28438 4.71247C8.20313 4.67497 8.1375 4.68122 8.0875 4.74372C8.0632 4.77528 8.04612 4.81178 8.03748 4.85066C8.02884 4.88954 8.02885 4.92985 8.0375 4.96872C8.05625 5.0531 8.08125 5.08747 8.14688 5.14997" stroke="#703D29" stroke-width="0.03" stroke-linecap="round"/>
<path d="M8.08129 4.75C8.06123 4.7355 8.03842 4.72526 8.01426 4.71992C7.99009 4.71457 7.96509 4.71423 7.94079 4.71891C7.91649 4.7236 7.89341 4.73321 7.87296 4.74716C7.85252 4.7611 7.83514 4.77909 7.82192 4.8C7.78306 4.85555 7.76533 4.92316 7.77192 4.99063C7.77817 5.12188 7.85942 5.22813 7.95317 5.27813" stroke="#703D29" stroke-width="0.03"/>
<path d="M7.80316 4.83752C7.7523 4.84354 7.70532 4.86772 7.67087 4.90561C7.63642 4.94351 7.61681 4.99257 7.61566 5.04377C7.61566 5.1844 7.64691 5.24065 7.72504 5.34377C7.80316 5.45002 8.05941 5.64377 8.05941 5.86565C8.05941 6.00002 8.02191 6.0844 7.92504 6.12815C7.86254 6.1594 7.79066 6.12815 7.75629 6.0969C7.67504 6.0219 7.70941 5.89377 7.79379 5.87815C7.89691 5.8594 7.91566 6.0219 7.81566 6.01252" stroke="#703D29" stroke-width="0.03"/>
<path d="M7.625 4.97498C7.54688 4.98123 7.46875 5.04685 7.46875 5.13123C7.46875 5.24998 7.51563 5.30623 7.6125 5.42498C7.69375 5.5281 7.92813 5.70623 7.92188 5.8781C7.92188 5.9406 7.875 6.02185 7.83125 6.01248" stroke="#703D29" stroke-width="0.03"/>
<path d="M7.43753 7.3781C7.47816 7.28748 7.57503 7.3281 7.58128 7.3781C7.59378 7.49373 7.49378 7.5281 7.42191 7.50935C7.40529 7.50487 7.38977 7.49701 7.37632 7.48626C7.36288 7.4755 7.3518 7.46209 7.34378 7.44685C7.33411 7.42938 7.32802 7.41015 7.32587 7.3903C7.32373 7.37044 7.32557 7.35036 7.33128 7.33123C7.33743 7.31294 7.34697 7.29597 7.35941 7.28123C7.36968 7.26668 7.38236 7.254 7.39691 7.24373C7.42816 7.22498 7.45628 7.22498 7.50316 7.22498C7.67503 7.22498 7.82816 7.4281 7.87816 7.64373C7.89691 7.71248 7.91878 7.87185 7.88753 8.01873C7.86245 8.15146 7.79951 8.2741 7.70628 8.37185C7.61717 8.45513 7.51032 8.5171 7.39378 8.5531C7.35428 8.56567 7.31201 8.56675 7.27191 8.55623C7.18441 8.5281 7.12816 8.44685 7.17191 8.33748C7.20941 8.25623 7.34066 8.21248 7.40003 8.31873C7.40628 8.3281 7.41253 8.34685 7.41253 8.3656C7.41253 8.39373 7.40003 8.4281 7.38128 8.4406C7.33753 8.46873 7.26566 8.45935 7.26878 8.3781" stroke="#703D29" stroke-width="0.03" stroke-linecap="round"/>
<path d="M7.30625 8.45001C7.3375 8.46251 7.35625 8.45939 7.39687 8.44376L7.45312 8.41251C7.53437 8.36564 7.62812 8.29376 7.71562 8.12814C7.73928 8.08373 7.75713 8.03647 7.76875 7.98751C7.77812 7.95626 7.78437 7.91876 7.7875 7.88439C7.78999 7.71306 7.73741 7.54546 7.6375 7.40626C7.60312 7.35626 7.575 7.32814 7.50625 7.32501M7.20937 8.29376C7.2054 8.27261 7.20709 8.25079 7.21429 8.2305C7.22148 8.21022 7.23392 8.19221 7.25033 8.17829C7.26675 8.16437 7.28655 8.15505 7.30774 8.15127C7.32892 8.14749 7.35073 8.14938 7.37095 8.15676C7.39116 8.16414 7.40906 8.17674 7.42283 8.19329C7.43659 8.20983 7.44574 8.22972 7.44932 8.25094C7.45291 8.27216 7.45081 8.29395 7.44325 8.31409C7.43568 8.33424 7.42292 8.35202 7.40625 8.36564" stroke="#703D29" stroke-width="0.03"/>
<path d="M7.25629 8.16872C7.26143 8.14198 7.27585 8.11791 7.29701 8.10076C7.31816 8.08361 7.34468 8.07448 7.37191 8.07497C7.40203 8.07578 7.43065 8.08832 7.45166 8.10992C7.47267 8.13152 7.48442 8.16046 7.48441 8.1906C7.48466 8.22066 7.47349 8.24969 7.45316 8.27185" stroke="#703D29" stroke-width="0.03"/>
<path d="M7.48126 8.16564C7.54142 8.12052 7.59025 8.06201 7.62388 7.99476C7.6575 7.9275 7.67501 7.85333 7.67501 7.77814C7.67501 7.65001 7.62501 7.51564 7.56251 7.46564" stroke="#703D29" stroke-width="0.03"/>
<path d="M7.64689 8.10626C7.59922 8.18525 7.53123 8.25 7.45001 8.29376" stroke="#703D29" stroke-width="0.03" stroke-linecap="round"/>
<path d="M7.95629 8.55311C7.92504 8.48436 7.86879 8.45311 7.77504 8.44373C7.68129 8.43436 7.60316 8.45936 7.51879 8.50311C7.41746 8.54991 7.33176 8.62489 7.27191 8.7191C7.21206 8.8133 7.1806 8.92275 7.18129 9.03436C7.18252 9.13645 7.20375 9.23731 7.24379 9.33123C7.27191 9.38123 7.33754 9.61248 7.72191 9.76873C7.98191 9.84977 8.2527 9.89086 8.52503 9.89061C8.85003 9.90311 9.15004 9.91561 9.32504 10.1281" stroke="#703D29" stroke-width="0.03"/>
<path d="M7.49066 8.6219C7.59379 8.55315 7.78754 8.46565 7.96254 8.55315C7.9929 8.56607 8.02041 8.58487 8.04347 8.60847C8.06653 8.63207 8.0847 8.66 8.09691 8.69065C8.1134 8.74085 8.11689 8.79442 8.10705 8.84634C8.09722 8.89826 8.07437 8.94683 8.04066 8.98752C8.01254 9.01877 7.95629 9.06877 7.88441 9.0719C7.76566 9.0719 7.73754 8.99065 7.73441 8.9719C7.72191 8.8844 7.77191 8.85002 7.79691 8.84065C7.81879 8.8344 7.88441 8.83752 7.89691 8.8844C7.90316 8.90002 7.90316 8.92502 7.89066 8.9469" stroke="#703D29" stroke-width="0.03" stroke-linecap="round"/>
<path d="M7.89691 8.92812C7.90629 8.89687 7.90316 8.85937 7.87191 8.82499C7.84816 8.80033 7.8171 8.78398 7.78333 8.77835C7.74956 8.77272 7.71488 8.77812 7.68441 8.79374C7.66254 8.80937 7.63441 8.82499 7.60941 8.86249C7.59691 8.87499 7.57816 8.89687 7.57191 8.91249C7.55004 8.94687 7.54066 8.97499 7.54066 8.99062C7.46254 9.20937 7.58754 9.44062 7.74379 9.54062C7.88129 9.62812 8.01879 9.65312 8.19379 9.66562C8.27191 9.67499 8.31879 9.67499 8.39691 9.68124H8.69691C8.77186 9.67739 8.84696 9.67739 8.92191 9.68124C9.01566 9.69062 9.08129 9.69374 9.15941 9.70624C9.20941 9.71249 9.26879 9.72187 9.32816 9.73749C9.34691 9.73749 9.36566 9.74374 9.38441 9.74999L9.42191 9.75937C9.53441 9.79374 9.64066 9.83437 9.72816 9.89062C9.75316 9.90624 9.78441 9.92187 9.80629 9.94374L9.84691 9.98124C9.90941 10.0437 9.97191 10.1062 9.98441 10.1906V10.2406C9.98441 10.2969 9.94066 10.375 9.81879 10.3969" stroke="#703D29" stroke-width="0.03"/>
<path d="M9.3313 10.2625C9.30005 10.3313 9.33755 10.3625 9.3813 10.3688C9.45005 10.3781 9.48442 10.325 9.49067 10.275C9.49196 10.2562 9.48935 10.2373 9.48302 10.2195C9.47669 10.2017 9.46677 10.1854 9.45387 10.1717C9.44097 10.1579 9.42537 10.1469 9.40805 10.1394C9.39072 10.1319 9.37204 10.1281 9.35317 10.1281C9.31924 10.1289 9.28629 10.1397 9.25848 10.1592C9.23068 10.1786 9.20925 10.2059 9.19692 10.2375C9.18728 10.2614 9.18198 10.2868 9.1813 10.3125C9.17878 10.3593 9.19446 10.4052 9.22505 10.4406C9.24636 10.4645 9.27232 10.4837 9.30134 10.4971C9.33036 10.5106 9.36183 10.5179 9.3938 10.5188C9.52505 10.5219 9.62817 10.4 9.62817 10.275C9.62817 10.0344 9.27192 9.90001 9.12817 9.86876C8.94495 9.82373 8.75741 9.79858 8.5688 9.79376C8.45942 9.79063 8.37505 9.79376 8.25317 9.77813C8.1438 9.76876 8.08442 9.76251 7.97192 9.73751C7.82645 9.70618 7.69175 9.63722 7.5813 9.53751C7.47726 9.46048 7.40492 9.34812 7.37787 9.22153C7.35083 9.09493 7.37094 8.96282 7.43442 8.85001C7.46845 8.79222 7.51506 8.74283 7.57078 8.7055C7.6265 8.66817 7.6899 8.64387 7.7563 8.63438C7.87505 8.61876 7.97505 8.66876 8.03755 8.78438C8.0688 8.84063 8.0563 8.93438 8.03442 8.97813C8.01906 9.00489 7.99734 9.02745 7.97117 9.04381C7.945 9.06016 7.91521 9.0698 7.88442 9.07188C7.76567 9.07188 7.73755 8.99063 7.73442 8.97188C7.72192 8.88438 7.77192 8.85001 7.79692 8.84063C7.8188 8.83438 7.88442 8.83751 7.89692 8.88438C7.90317 8.90001 7.90317 8.92501 7.89067 8.94688" stroke="#703D29" stroke-width="0.03"/>
<path d="M8.54063 4.75002L8.52813 4.73439C8.47501 4.65939 8.38126 4.63752 8.31251 4.68752C8.23126 4.75002 8.20938 4.85627 8.23438 4.96877C8.25197 5.0402 8.29684 5.10191 8.35938 5.14064" stroke="#703D29" stroke-width="0.03" stroke-linecap="round"/>
<path d="M11.4625 4.9875C11.3375 5.125 11.2094 5.16875 11.0219 5.175C10.9594 5.175 10.85 5.15625 10.7844 5.10938C10.7438 5.07813 10.6969 5.02813 10.725 4.9375C10.7438 4.87813 10.8406 4.7125 10.8438 4.59688C10.8531 4.42188 10.7844 4.325 10.6781 4.2875C10.4844 4.21875 10.2719 4.4125 10.1469 4.45625C10.0813 4.47813 10.0469 4.48125 9.98751 4.48125C9.92501 4.48125 9.89376 4.47813 9.82501 4.45625C9.70001 4.4125 9.49064 4.21875 9.29376 4.2875C9.18751 4.325 9.12189 4.42188 9.12814 4.6C9.13126 4.7125 9.22814 4.88125 9.24689 4.9375C9.27814 5.02813 9.23126 5.07813 9.18751 5.10938C9.12501 5.15625 9.00939 5.175 8.95314 5.17188C8.76564 5.16875 8.63751 5.125 8.51251 4.9875" stroke="#703D29" stroke-width="0.03"/>
<path d="M9.29065 9.82501C9.31565 9.83439 9.2969 9.81876 9.45627 9.88751C9.60182 9.93803 9.72618 10.036 9.8094 10.1656C9.84597 10.2358 9.85596 10.3168 9.83752 10.3938" stroke="#703D29" stroke-width="0.03" stroke-linecap="round"/>
<path d="M9.30316 10.5C9.33416 10.5163 9.36823 10.5258 9.40316 10.5281C9.53441 10.5312 9.63754 10.4094 9.63754 10.2844C9.63754 10.1969 9.59066 10.1219 9.52504 10.0656" stroke="#703D29" stroke-width="0.03"/>
<path d="M9.33126 10.2625C9.30001 10.3344 9.34376 10.3719 9.38751 10.3781C9.45626 10.3844 9.49376 10.3344 9.50001 10.2844C9.5019 10.2583 9.49647 10.2322 9.48432 10.209C9.47217 10.1858 9.4538 10.1664 9.43126 10.1531" stroke="#703D29" stroke-width="0.03" stroke-linecap="round"/>
<path d="M12.1906 4.83752C12.2906 4.83752 12.3781 4.95002 12.3781 5.06252C12.3781 5.1969 12.3094 5.27815 12.2563 5.33752C12.2157 5.38752 12.1719 5.43127 12.1188 5.4844" stroke="#703D29" stroke-width="0.03"/>
<path d="M12.0719 4.73127C12.1059 4.74997 12.1357 4.7755 12.1594 4.80627C12.2 4.86877 12.2125 4.9219 12.2094 5.00002C12.2031 5.13127 12.1094 5.2219 12.0219 5.28127M11.875 4.73127L11.8938 4.75315C11.9531 4.8219 11.9563 4.9219 11.9438 4.97815C11.9367 5.01297 11.9226 5.04596 11.9021 5.07501C11.8817 5.10406 11.8554 5.12854 11.825 5.1469M11.6687 4.6969C11.75 4.7594 11.775 4.86565 11.7469 4.97815C11.7281 5.05627 11.6781 5.10315 11.6156 5.14065M11.9625 6.42502C11.9719 6.45627 11.9906 6.46565 12.0094 6.48752C12.063 6.54066 12.1299 6.57843 12.2031 6.5969C12.2781 6.61877 12.3469 6.60315 12.4 6.56877M7.30625 8.25627C7.34375 8.25627 7.38438 8.2844 7.40938 8.32815C7.4125 8.3344 7.42188 8.35315 7.42188 8.37502C7.42188 8.40315 7.40938 8.43127 7.39062 8.44377C7.34375 8.47502 7.26562 8.4594 7.26562 8.38127" stroke="#703D29" stroke-width="0.03" stroke-linecap="round"/>
<path d="M7.54689 7.22815C7.70314 7.2594 7.85001 7.44377 7.89689 7.64377C7.91564 7.71565 7.93751 7.8719 7.90626 8.01877C7.87999 8.15332 7.8148 8.2772 7.71876 8.37502C7.69863 8.39666 7.67667 8.41652 7.65314 8.4344L7.62189 8.45627M7.37189 8.07815C7.43439 8.07815 7.49064 8.13752 7.49064 8.20315C7.49088 8.23321 7.47971 8.26225 7.45939 8.2844" stroke="#703D29" stroke-width="0.03"/>
<path d="M7.3313 8.14685C7.39692 8.14685 7.45942 8.20935 7.45942 8.2781C7.45945 8.29598 7.45555 8.31365 7.44799 8.32985C7.44043 8.34605 7.4294 8.36039 7.41567 8.37185" stroke="#703D29" stroke-width="0.03"/>
<path d="M7.93754 7.48438C7.99595 7.55383 8.03669 7.63639 8.05629 7.725M8.05629 7.99062C8.04589 8.03407 8.03014 8.07606 8.00941 8.11563C7.98037 8.17052 7.94235 8.22016 7.89691 8.2625" stroke="#703D29" stroke-width="0.03" stroke-linecap="round"/>
<path d="M7.9469 7.0094C8.00315 7.05627 8.04065 7.10315 8.05627 7.1594" stroke="#703D29" stroke-width="0.03"/>
<path d="M8.0594 6.85939C8.03873 6.91663 8.00181 6.96659 7.95315 7.00314M7.66565 6.46564L7.7344 6.44689L7.77502 6.41564L7.80002 6.38126L7.8219 6.32501L7.83127 6.27814" stroke="#703D29" stroke-width="0.03" stroke-linecap="round"/>
<path d="M7.53126 6.22815C7.50938 6.2344 7.48126 6.24065 7.45313 6.25315C7.40915 6.27437 7.37146 6.30668 7.34376 6.3469C7.26963 6.46504 7.24494 6.60759 7.27501 6.74377C7.28746 6.8062 7.31187 6.86562 7.34688 6.91877L7.37813 6.96252C7.42188 7.00315 7.45938 7.02502 7.52188 7.01565" stroke="#703D29" stroke-width="0.03"/>
<path d="M7.90625 5.93127C7.89687 5.9719 7.875 6.0219 7.8125 6.01565" stroke="#703D29" stroke-width="0.03" stroke-linecap="round"/>
<path d="M7.67813 6.20311C7.61563 6.14374 7.49063 6.12811 7.3625 6.20936L7.3125 6.24999C7.29595 6.26482 7.28126 6.28161 7.26875 6.29999C7.23561 6.34775 7.21029 6.4005 7.19375 6.45624C7.17188 6.54999 7.17188 6.63123 7.175 6.65311C7.175 6.68436 7.18125 6.71249 7.18438 6.73749C7.20313 6.82499 7.22813 6.88749 7.25625 6.93124C7.28438 6.97811 7.35 7.08749 7.49688 7.09999C7.55313 7.10311 7.64688 7.07811 7.65313 7.00624" stroke="#703D29" stroke-width="0.03"/>
<path d="M11.3688 4.90628C11.3781 4.85628 11.4406 4.8469 11.4625 4.87503C11.5 4.92503 11.475 5.00628 11.4 5.02815C11.3781 5.03209 11.3556 5.03011 11.3347 5.02242C11.3138 5.01473 11.2954 5.0016 11.2813 4.9844C11.25 4.94378 11.2531 4.8969 11.2656 4.8594C11.2719 4.8344 11.2938 4.81253 11.3188 4.79065C11.4031 4.72815 11.5406 4.74065 11.5875 4.85315C11.6438 4.99065 11.5188 5.0969 11.4 5.17503C11.2563 5.27503 11.0875 5.29378 10.9625 5.29065C10.675 5.29065 10.4594 5.15315 10.3156 5.0719C10.2844 5.05628 10.25 5.0594 10.2313 5.08128C10.2219 5.09394 10.2177 5.10966 10.2194 5.1253C10.2212 5.14094 10.2288 5.15535 10.2406 5.16565" stroke="#703D29" stroke-width="0.03" stroke-linecap="round"/>
<path d="M11.425 4.85938C11.4563 4.85938 11.4625 4.87188 11.4719 4.88438C11.5094 4.93125 11.4813 5.0125 11.4094 5.0375M11.9657 6.64687C11.8563 6.76562 11.9594 6.96875 12.0407 7.01562C12.0688 7.0375 12.0813 7.025 12.1032 7.0375" stroke="#703D29" stroke-width="0.03" stroke-linecap="round"/>
<path d="M11.9719 6.41877C11.9375 6.44377 11.925 6.4719 11.9219 6.5219C11.9202 6.54462 11.9232 6.56745 11.9307 6.58896C11.9383 6.61047 11.9501 6.63019 11.9656 6.6469C12.045 6.71994 12.1484 6.76111 12.2563 6.76252C12.3188 6.76252 12.3813 6.75002 12.4438 6.7094C12.5033 6.67023 12.5457 6.60991 12.5625 6.54065M11.9125 8.4719L11.9063 8.55002C11.8998 8.6263 11.8786 8.7006 11.8438 8.76877C11.8114 8.83485 11.7669 8.89422 11.7125 8.94377C11.6592 8.99636 11.5967 9.03873 11.5281 9.06877C11.4641 9.10215 11.3958 9.12635 11.325 9.14065C11.1893 9.16772 11.0502 9.17404 10.9125 9.1594C10.8281 9.15315 10.7844 9.14377 10.7 9.1344C10.6313 9.13127 10.5938 9.12502 10.525 9.12502C10.4087 9.12221 10.2929 9.14239 10.1844 9.1844C10.1 9.21565 10.0063 9.27815 9.98439 9.30315C9.96564 9.27502 9.86876 9.21565 9.78751 9.1844C9.73548 9.16215 9.6809 9.1464 9.62501 9.13752C9.55626 9.12502 9.51564 9.12502 9.44376 9.12502C9.37501 9.12502 9.33751 9.13127 9.26876 9.13752C9.18751 9.14377 9.14376 9.15627 9.05939 9.1594C8.98126 9.16565 8.93751 9.16877 8.86251 9.16565C8.78891 9.16515 8.71558 9.15676 8.64376 9.14065C8.57317 9.12733 8.5048 9.10419 8.44064 9.0719C8.37292 9.04059 8.3115 8.99716 8.25939 8.94377C8.20469 8.8933 8.16015 8.83284 8.12814 8.76565C8.09378 8.6984 8.07257 8.62522 8.06564 8.55002C8.05939 8.51877 8.05939 8.4719 8.05939 8.4719V5.29065H11.9094V8.4719H11.9125Z" stroke="#703D29" stroke-width="0.03"/>
<path d="M7.75 8.92498C7.75 8.90426 7.75823 8.88438 7.77288 8.86973C7.78753 8.85508 7.8074 8.84685 7.82812 8.84685C7.84884 8.84685 7.86872 8.85508 7.88337 8.86973C7.89802 8.88438 7.90625 8.90426 7.90625 8.92498C7.90625 8.9457 7.89802 8.96557 7.88337 8.98022C7.86872 8.99487 7.84884 9.0031 7.82812 9.0031C7.8074 9.0031 7.78753 8.99487 7.77288 8.98022C7.75823 8.96557 7.75 8.9457 7.75 8.92498ZM7.26562 8.37498C7.26562 8.33435 7.29063 8.3031 7.32188 8.3031C7.35313 8.3031 7.375 8.33435 7.375 8.37498C7.375 8.41248 7.35 8.44373 7.32188 8.44373C7.29063 8.44373 7.26562 8.41248 7.26562 8.37498Z" fill="#C7B37F" stroke="#C7B37F" stroke-width="0.015"/>
<path d="M7.54065 6.98749C7.54065 6.95624 7.56565 6.93124 7.59377 6.93124C7.62502 6.93124 7.6469 6.95624 7.6469 6.98749C7.6469 7.01874 7.62502 7.04374 7.59377 7.04374C7.56252 7.04374 7.54065 7.01874 7.54065 6.98749ZM8.50002 4.93749C8.50002 4.90624 8.51565 4.87499 8.54377 4.87499C8.5719 4.87187 8.5969 4.89374 8.60002 4.92499C8.60002 4.95624 8.5844 4.98749 8.55627 4.98749C8.52815 4.99062 8.50627 4.96874 8.50002 4.93749Z" fill="#C7B37F"/>
<path d="M7.47816 7.3125C7.46566 7.31563 7.45941 7.31875 7.45316 7.32812C7.44379 7.3375 7.44066 7.34062 7.43441 7.35625L7.42816 7.39375M7.57504 8.22812L7.60629 8.19687L7.62504 8.16562L7.64066 8.13437L7.66254 8.09375M7.62191 8.53125L7.57504 8.55313L7.54066 8.57187C7.52676 8.57961 7.51321 8.58795 7.50004 8.59688L7.46254 8.62813M7.93129 7.44375L7.90629 7.41875L7.87504 7.39375L7.84691 7.36875" stroke="#C7B37F" stroke-width="0.03" stroke-linecap="round"/>
<path d="M7.94375 7.03125L7.90625 7.04688C7.89119 7.05234 7.87538 7.0555 7.85938 7.05625" stroke="#C7B37F" stroke-width="0.03"/>
<path d="M7.41876 6.51248C7.42501 6.53123 7.42501 6.54373 7.43439 6.55935C7.44064 6.58123 7.45001 6.59373 7.46251 6.61248C7.48281 6.64643 7.5106 6.67529 7.54376 6.69685L7.59064 6.72185M7.55939 6.5406L7.60001 6.55935C7.62962 6.57206 7.66155 6.57845 7.69376 6.5781L7.75001 6.57498M7.97501 5.3031L7.91251 5.2656C7.88439 5.24998 7.87189 5.23748 7.85001 5.21873C7.83734 5.20626 7.82583 5.19267 7.81564 5.1781L7.79064 5.13748M8.02501 4.99373L8.04376 5.04685C8.05497 5.06985 8.06974 5.09094 8.08751 5.10935C8.11876 5.1406 8.14064 5.14998 8.17501 5.1781M8.21876 4.9906C8.22814 5.01248 8.22814 5.02185 8.24064 5.0406C8.24689 5.05623 8.25314 5.0656 8.26564 5.0781L8.30626 5.11873C8.32814 5.13748 8.34376 5.1406 8.36876 5.1531" stroke="#C7B37F" stroke-width="0.03" stroke-linecap="round"/>
<path d="M10.4156 4.73752C10.4156 4.6844 10.3625 4.68127 10.3406 4.68127C10.2844 4.68127 10.2687 4.71565 10.1969 4.75315C10.1349 4.79448 10.062 4.81625 9.9875 4.81565C9.91305 4.81606 9.84016 4.7943 9.77812 4.75315C9.70625 4.71565 9.69375 4.68127 9.63437 4.68127C9.62493 4.68168 9.61566 4.68394 9.60709 4.68792C9.59853 4.69191 9.59083 4.69755 9.58444 4.70452C9.57806 4.71148 9.57311 4.71964 9.56988 4.72852C9.56665 4.7374 9.5652 4.74683 9.56562 4.75627V4.7844L9.575 4.79065C9.575 4.76565 9.57812 4.75315 9.59062 4.73752C9.59674 4.73009 9.60435 4.72402 9.61297 4.71971C9.62158 4.71541 9.631 4.71296 9.64062 4.71252C9.69687 4.71252 9.71875 4.75002 9.79062 4.78752C9.88437 4.83752 9.92187 4.8469 10 4.85002C10.0755 4.85106 10.1496 4.82928 10.2125 4.78752C10.2844 4.75002 10.3062 4.7094 10.3625 4.7094C10.3812 4.7094 10.3937 4.7219 10.4031 4.74065V4.76877L10.4094 4.7719C10.4094 4.76252 10.4156 4.7594 10.4156 4.74065V4.73752Z" fill="#703D29" stroke="#703D29" stroke-width="0.01"/>
<path d="M8.26251 9.18752C8.27814 9.17189 8.29064 9.17814 8.29376 9.16877C8.29376 9.16252 8.29376 9.16252 8.28439 9.15939L8.25626 9.15314L8.23126 9.14064C8.22814 9.14064 8.21876 9.13439 8.21564 9.14064C8.21251 9.15314 8.24689 9.15314 8.23439 9.18439C8.22859 9.19841 8.2201 9.21115 8.20939 9.22189L8.12814 9.31564L8.12189 9.31877V9.18439L8.12501 9.12814C8.13126 9.11564 8.15001 9.12814 8.15314 9.11564C8.15314 9.11252 8.15314 9.10939 8.14376 9.10627C8.13751 9.10627 8.12814 9.10627 8.10939 9.09689L8.07814 9.08127C8.07189 9.08127 8.06251 9.07502 8.05939 9.08127L8.06251 9.09064C8.07501 9.09689 8.07814 9.10314 8.07814 9.12189V9.35314C8.07814 9.36877 8.08126 9.37189 8.08439 9.37502C8.08751 9.37502 8.09064 9.37502 8.09689 9.36564L8.26251 9.18752Z" fill="#703D29"/>
<path d="M8.35939 9.22501C8.36876 9.19064 8.39064 9.21251 8.39064 9.20001C8.39376 9.19376 8.39064 9.19376 8.38439 9.19064L8.34376 9.17814C8.33126 9.17814 8.31876 9.16876 8.30626 9.16563C8.30626 9.16563 8.29689 9.16251 8.29376 9.16563C8.29064 9.18126 8.32814 9.18126 8.31876 9.21251L8.26564 9.38438C8.25626 9.41563 8.23439 9.40313 8.23126 9.41563V9.41876L8.26876 9.43126L8.31876 9.44688H8.32814C8.33439 9.43438 8.29064 9.43751 8.30626 9.39376L8.35939 9.22501ZM8.47501 9.25626C8.48126 9.23751 8.49064 9.24063 8.50314 9.24376C8.53439 9.25313 8.54689 9.28438 8.53439 9.32188C8.52814 9.34063 8.52189 9.35939 8.47189 9.34689C8.46251 9.34376 8.45001 9.34064 8.45314 9.33126L8.47501 9.25938V9.25626ZM8.38751 9.41251C8.37189 9.45626 8.35001 9.43751 8.34689 9.45001C8.34689 9.45626 8.35314 9.45626 8.35626 9.45939L8.40626 9.47189L8.43126 9.48126H8.44376C8.44689 9.46563 8.41251 9.47188 8.42189 9.43438L8.44064 9.37188C8.44376 9.35938 8.44376 9.35626 8.45939 9.36251C8.47814 9.36564 8.48126 9.37188 8.48439 9.38751L8.49376 9.45001C8.50001 9.47813 8.50314 9.50313 8.52501 9.51251C8.54064 9.51251 8.56251 9.51251 8.56876 9.50001L8.56251 9.49376H8.55314C8.55314 9.49376 8.54376 9.49376 8.54376 9.48438L8.52189 9.37188C8.52189 9.36563 8.53439 9.36564 8.54689 9.36251C8.55467 9.35833 8.56148 9.35255 8.56687 9.34555C8.57225 9.33855 8.5761 9.33048 8.57814 9.32188C8.58126 9.30626 8.59064 9.25313 8.52189 9.23126L8.45626 9.21563L8.41876 9.20313H8.40939C8.40626 9.21876 8.44376 9.21564 8.43126 9.25626L8.38439 9.41251H8.38751ZM8.65001 9.49064C8.63751 9.53439 8.60626 9.50626 8.60314 9.52189C8.60314 9.52814 8.60626 9.53126 8.61251 9.53126L8.65939 9.54063L8.70314 9.55314C8.71251 9.55314 8.71876 9.55939 8.72189 9.55001C8.72189 9.54064 8.68126 9.54063 8.69064 9.49376L8.73126 9.33126C8.73126 9.31251 8.73751 9.31251 8.75001 9.31564L8.78126 9.32188C8.81564 9.33126 8.79689 9.36876 8.81251 9.37188C8.81876 9.37188 8.81876 9.35938 8.81876 9.35313L8.82189 9.32188V9.30938L8.71876 9.28751L8.61876 9.26251C8.61564 9.26251 8.61251 9.26251 8.61251 9.26876L8.59689 9.31564C8.59376 9.31876 8.59064 9.32813 8.59689 9.32813C8.61251 9.33126 8.61251 9.28126 8.65001 9.29063L8.67814 9.29688C8.69064 9.30001 8.69376 9.30313 8.69064 9.32188L8.65001 9.49064ZM9.04689 9.38751C9.05939 9.36876 9.07189 9.37189 9.07501 9.36564C9.07501 9.35939 9.06876 9.35938 9.06251 9.35626H9.03439L9.00626 9.34689C9.00314 9.34689 8.99376 9.34376 8.99376 9.35001C8.99064 9.36251 9.02501 9.35626 9.01876 9.39063C9.01876 9.39688 9.01564 9.40938 9.00001 9.43126L8.93751 9.53439L8.92814 9.54063V9.53439L8.90626 9.40939C8.90208 9.39094 8.90102 9.37193 8.90314 9.35313C8.90314 9.33751 8.92501 9.34688 8.92501 9.33751C8.92501 9.33126 8.92501 9.33126 8.91251 9.32813L8.87814 9.32501C8.86564 9.32501 8.85626 9.31876 8.84689 9.31564C8.84064 9.31564 8.83126 9.31251 8.82814 9.31876L8.83126 9.32501C8.84689 9.33126 8.85001 9.33751 8.85314 9.35313L8.89376 9.58126C8.89689 9.59689 8.90001 9.60313 8.90314 9.60313C8.90626 9.60313 8.90939 9.60313 8.91564 9.59376L9.04689 9.38751ZM9.06564 9.60001C9.06564 9.60939 9.06564 9.60939 9.07189 9.61564C9.09064 9.62189 9.10314 9.63438 9.12501 9.63751C9.16876 9.64376 9.20626 9.61564 9.21251 9.56876C9.22189 9.52189 9.20314 9.50313 9.16876 9.47813C9.12814 9.45001 9.11251 9.44376 9.11564 9.41563C9.11876 9.39376 9.13751 9.38438 9.15939 9.38438C9.21564 9.39376 9.20939 9.46563 9.21564 9.46563C9.22501 9.46563 9.22501 9.46251 9.22501 9.45313L9.23126 9.40313V9.39063H9.21251C9.20001 9.39063 9.19064 9.37501 9.16251 9.36876C9.12501 9.36251 9.09064 9.39063 9.08439 9.43126C9.07814 9.46876 9.09689 9.48751 9.12189 9.50626C9.17189 9.54064 9.19064 9.55001 9.18439 9.58126C9.18126 9.61251 9.15626 9.62501 9.13126 9.62188C9.09376 9.61563 9.08126 9.57813 9.07501 9.54063C9.07501 9.53438 9.07501 9.53126 9.06876 9.53126C9.06251 9.53126 9.06251 9.54063 9.06251 9.54688V9.60001H9.06564ZM9.55939 9.45939C9.56876 9.43751 9.58439 9.44063 9.58439 9.43126C9.58439 9.42501 9.58126 9.42814 9.57189 9.42501H9.54376L9.51564 9.42188C9.51251 9.42188 9.50314 9.42189 9.50314 9.42814C9.50314 9.44064 9.53439 9.42813 9.53439 9.46251C9.53439 9.46876 9.53126 9.48126 9.51876 9.50626L9.46251 9.61564L9.45939 9.62501L9.45626 9.61564L9.42189 9.49064C9.41625 9.47454 9.41309 9.45768 9.41251 9.44064C9.41251 9.42501 9.43439 9.43126 9.43439 9.42188C9.43439 9.41563 9.43439 9.41563 9.42189 9.41563H9.38439L9.35314 9.40939C9.34689 9.40939 9.33751 9.40626 9.33439 9.41251L9.34064 9.41876C9.35314 9.42501 9.35939 9.42814 9.36251 9.44376L9.42814 9.66563L9.44064 9.68751C9.44376 9.68751 9.44689 9.68751 9.45001 9.67501L9.55939 9.45626V9.45939Z" fill="#703D29"/>
<path d="M9.61251 9.64064C9.61251 9.67814 9.58126 9.67189 9.58126 9.68752C9.58126 9.69377 9.58439 9.69064 9.59064 9.69064H9.65939L9.67189 9.68752C9.67189 9.66877 9.62814 9.69377 9.62814 9.62502V9.49377L9.63126 9.49064L9.63751 9.49377L9.79689 9.69064L9.80626 9.69377L9.81251 9.68439V9.47502C9.81251 9.43439 9.84376 9.44377 9.84376 9.43439C9.84376 9.43439 9.84376 9.42814 9.83439 9.42814H9.76251C9.75626 9.42814 9.75626 9.43127 9.75626 9.43439C9.75626 9.44689 9.79689 9.44064 9.79689 9.47502V9.60002L9.79376 9.61252L9.78126 9.60314L9.65001 9.43752C9.64376 9.42814 9.64689 9.42814 9.63751 9.42814H9.58126L9.57501 9.43127C9.57501 9.45002 9.61251 9.42502 9.61251 9.49689V9.64064ZM9.93751 9.46877C9.93751 9.43439 9.96251 9.44689 9.96251 9.43439C9.96251 9.43127 9.96251 9.42814 9.95001 9.42814H9.86876C9.86876 9.42814 9.85939 9.42814 9.85939 9.43439C9.85939 9.44689 9.89376 9.43439 9.89376 9.47189V9.65002C9.89376 9.68439 9.86876 9.67502 9.86876 9.68752C9.86876 9.68752 9.86876 9.69377 9.87501 9.69377H9.96251C9.96876 9.69377 9.97189 9.69377 9.97189 9.68752C9.97189 9.67502 9.93439 9.69377 9.93439 9.64689L9.93751 9.46877ZM10.0781 9.64064C10.0781 9.68752 10.0406 9.67189 10.0406 9.68439C10.0406 9.69064 10.0469 9.69064 10.0531 9.69064H10.1469C10.1563 9.69064 10.1625 9.69064 10.1625 9.68127C10.1625 9.67189 10.1188 9.68127 10.1188 9.63752V9.46877C10.1188 9.45002 10.1188 9.45002 10.1344 9.45002H10.1656C10.2031 9.44689 10.1906 9.48752 10.2063 9.48752C10.2125 9.48752 10.2094 9.47502 10.2094 9.46877L10.2063 9.43752C10.2063 9.43127 10.2063 9.42502 10.2 9.42502L10.0969 9.42814H9.99376L9.98751 9.43752L9.98439 9.48752L9.98751 9.50002C10.0031 9.50002 9.99376 9.45002 10.0313 9.45002H10.0594C10.0719 9.45002 10.075 9.45002 10.0781 9.46877V9.64377V9.64064ZM10.275 9.57189H10.2625L10.2656 9.55627L10.2875 9.48752V9.48127L10.2938 9.48439L10.325 9.55002L10.3313 9.56252C10.3313 9.56877 10.325 9.56877 10.3188 9.56877H10.275V9.57189ZM10.3313 9.58752C10.3406 9.58752 10.3406 9.58752 10.3563 9.61877L10.3625 9.64377C10.3625 9.66564 10.3406 9.66252 10.3406 9.67502C10.3406 9.67814 10.3469 9.67814 10.3531 9.67502H10.3906L10.4313 9.67189C10.4406 9.67189 10.4438 9.67189 10.4438 9.66564C10.4438 9.65314 10.425 9.66564 10.4125 9.64377L10.3063 9.42502L10.2969 9.41252C10.2906 9.41252 10.2906 9.41877 10.2875 9.42502L10.2188 9.65627C10.2125 9.67814 10.1938 9.67814 10.1969 9.68752H10.2688C10.275 9.68439 10.2844 9.68752 10.2844 9.67814C10.2844 9.66877 10.2469 9.67814 10.2438 9.65002L10.25 9.61877C10.2563 9.59377 10.2625 9.59377 10.2688 9.59377L10.3344 9.58752H10.3313ZM10.5906 9.43127C10.5875 9.40627 10.5906 9.40627 10.6281 9.40002C10.6906 9.39377 10.6719 9.44064 10.6906 9.43752C10.6969 9.43752 10.6906 9.42502 10.6906 9.41877L10.6875 9.38439C10.6875 9.38127 10.6844 9.37814 10.6781 9.37814C10.6469 9.37814 10.625 9.38439 10.6031 9.38752L10.5156 9.40002C10.5094 9.40002 10.5063 9.40002 10.5063 9.40627C10.5094 9.42189 10.5469 9.40627 10.55 9.43752L10.5719 9.60939C10.5781 9.65627 10.55 9.64064 10.5531 9.65627C10.5531 9.65627 10.5531 9.65939 10.5594 9.65627L10.6031 9.65314L10.6406 9.65002C10.65 9.65002 10.6563 9.65002 10.6563 9.64064C10.6563 9.63127 10.6188 9.64377 10.6125 9.60314L10.6063 9.55002C10.6031 9.52814 10.6031 9.52189 10.6156 9.51877H10.6406C10.675 9.51252 10.6719 9.55314 10.6813 9.55002C10.6906 9.55002 10.6875 9.53752 10.6844 9.53439L10.675 9.46877C10.675 9.45939 10.6688 9.45939 10.6688 9.45939C10.6594 9.45939 10.6656 9.49377 10.6375 9.49689L10.6156 9.50002C10.6 9.50314 10.6 9.50002 10.5969 9.48439L10.5906 9.43127ZM10.7156 9.51877C10.7281 9.59064 10.7813 9.63439 10.8469 9.62189C10.9531 9.60002 10.9563 9.50939 10.9469 9.45627C10.9313 9.37814 10.875 9.34064 10.8094 9.35314C10.7313 9.36877 10.7 9.43752 10.7156 9.51877ZM10.75 9.48752C10.7406 9.43752 10.75 9.38127 10.8031 9.37189C10.8469 9.36252 10.8969 9.39689 10.9094 9.47814C10.9188 9.54064 10.9094 9.59064 10.8531 9.60314C10.7938 9.61564 10.7594 9.54064 10.75 9.49064V9.48752ZM11.0094 9.35939C11.0063 9.33752 11.0156 9.33439 11.0281 9.33127C11.0594 9.32502 11.0844 9.34689 11.0938 9.38127C11.1 9.40314 11.1031 9.42502 11.0531 9.43752C11.0438 9.43752 11.0313 9.44064 11.0281 9.43127L11.0125 9.35939H11.0094ZM11.0094 9.53752C11.0219 9.58127 10.9938 9.57814 10.9938 9.58752C10.9969 9.59689 11.0031 9.59377 11.0063 9.59064C11.025 9.59064 11.0375 9.58127 11.0563 9.57814L11.0875 9.57189C11.0938 9.57189 11.0938 9.56877 11.0938 9.56564C11.0938 9.55314 11.0625 9.57502 11.0531 9.53439L11.0375 9.47189C11.0375 9.45939 11.0313 9.45939 11.05 9.45627C11.0656 9.45002 11.0719 9.45314 11.0844 9.46564L11.125 9.51564C11.1406 9.53439 11.1563 9.55627 11.1813 9.55002C11.1969 9.54689 11.2125 9.53439 11.2125 9.52189L11.2063 9.51877L11.1969 9.52189C11.1969 9.52189 11.1875 9.52502 11.1844 9.52189L11.1094 9.43127L11.125 9.41252C11.1313 9.40002 11.1375 9.38439 11.1313 9.36252C11.1281 9.34689 11.1094 9.29689 11.0375 9.31252L10.9719 9.33127L10.9344 9.33752C10.9281 9.33752 10.925 9.34064 10.9281 9.34377C10.9281 9.35939 10.9625 9.33752 10.9719 9.37502L11.0094 9.53752ZM11.2813 9.47502C11.2906 9.51877 11.25 9.51252 11.2531 9.52502C11.2531 9.53439 11.2625 9.53127 11.2688 9.53127L11.3125 9.51564L11.3594 9.50627C11.3688 9.50627 11.375 9.50627 11.3719 9.49377C11.3719 9.48439 11.3313 9.50627 11.3188 9.46252L11.2781 9.29689C11.2719 9.28127 11.2781 9.27814 11.2875 9.27502L11.3188 9.26877C11.3531 9.25627 11.3531 9.30002 11.3656 9.29689C11.375 9.29689 11.3656 9.28127 11.3656 9.27502L11.3531 9.24377C11.3531 9.24377 11.3531 9.23439 11.3469 9.23752L11.2469 9.26564L11.1469 9.28752V9.29689L11.15 9.34689C11.15 9.35314 11.15 9.35939 11.1594 9.35939C11.175 9.35627 11.15 9.30939 11.1906 9.30002L11.2156 9.29377C11.2281 9.29064 11.2344 9.29377 11.2375 9.30939L11.2813 9.47502ZM11.4531 9.24689C11.4438 9.21564 11.4719 9.21877 11.4656 9.20627H11.4563L11.4125 9.21877L11.375 9.22814C11.375 9.22814 11.3656 9.22814 11.3656 9.23439C11.3688 9.24689 11.4031 9.22814 11.4125 9.25939L11.4625 9.43439C11.4688 9.46564 11.4438 9.46564 11.4469 9.47502C11.4469 9.47814 11.4469 9.48127 11.4531 9.47814L11.4875 9.46877L11.5375 9.45627C11.5469 9.45627 11.5469 9.45314 11.5469 9.44689C11.5438 9.43752 11.5125 9.46252 11.5 9.41877L11.4531 9.24689ZM11.525 9.33127C11.5469 9.40314 11.6063 9.43752 11.6719 9.41564C11.7719 9.38127 11.7656 9.28752 11.7469 9.23752C11.7219 9.16252 11.6594 9.13439 11.5969 9.15314C11.5219 9.18127 11.4969 9.25314 11.525 9.33127ZM11.5563 9.30002C11.5375 9.24689 11.5375 9.19064 11.5906 9.17502C11.6313 9.15939 11.6844 9.18752 11.7125 9.26564C11.7313 9.32189 11.7281 9.37814 11.675 9.39689C11.6188 9.41564 11.575 9.35002 11.5563 9.29689V9.30002ZM11.7938 9.12814C11.7875 9.10627 11.7938 9.10314 11.8063 9.09689C11.8375 9.08752 11.8688 9.10627 11.8813 9.14064C11.8875 9.15939 11.8938 9.18127 11.8469 9.20002C11.8375 9.20002 11.825 9.20627 11.8219 9.20002L11.7938 9.12814ZM11.8188 9.30314C11.8375 9.34689 11.8063 9.34689 11.8125 9.35627C11.8125 9.36564 11.8188 9.35939 11.825 9.35939L11.8719 9.33752L11.9 9.33127C11.9063 9.32814 11.9063 9.32502 11.9063 9.32189C11.9 9.30939 11.875 9.33439 11.8625 9.29689L11.8375 9.23752C11.8313 9.22502 11.8313 9.22189 11.8469 9.21564C11.8625 9.20939 11.8688 9.21252 11.8813 9.22502L11.9313 9.26877C11.9469 9.28439 11.9656 9.30314 11.9938 9.29377C12.0031 9.28752 12.0219 9.27189 12.0156 9.26252L12.0094 9.25939L12.0031 9.26564H11.9875L11.9 9.18752L11.9125 9.16564C11.916 9.15776 11.9177 9.14924 11.9177 9.14064C11.9177 9.13204 11.916 9.12353 11.9125 9.11564C11.9094 9.09689 11.8813 9.05314 11.8156 9.07814L11.7531 9.10627L11.7156 9.11877L11.7094 9.12502C11.7156 9.13752 11.7438 9.11252 11.7594 9.15002L11.8219 9.30627L11.8188 9.30314Z" fill="#703D29"/>
<path d="M8.25403 5.48602H9.89603V7.12602H8.25403V5.48602Z" fill="#D52B1E"/>
<path d="M9.02404 6.77603C9.02404 6.77603 9.02404 6.83603 9.00804 6.88203C8.98804 6.93603 8.98804 6.93603 8.97004 6.96203C8.95062 6.99376 8.92472 7.02102 8.89404 7.04203C8.85404 7.06603 8.81404 7.07803 8.77404 7.07403C8.66604 7.06603 8.61404 6.94603 8.59004 6.85003C8.56404 6.74803 8.49004 6.69003 8.44004 6.73003C8.41204 6.75003 8.41204 6.78603 8.43404 6.82203C8.45558 6.84802 8.48399 6.86742 8.51604 6.87803L8.45804 6.95203C8.45804 6.95203 8.33204 6.93603 8.30804 6.80403C8.29804 6.75403 8.32204 6.66203 8.40604 6.63403C8.51204 6.59803 8.57804 6.67403 8.61204 6.73803C8.65604 6.82603 8.67604 6.98603 8.80004 6.96203C8.86804 6.94803 8.90004 6.85003 8.90004 6.80403L8.94804 6.75203L9.02204 6.77603H9.02404Z" fill="white"/>
<path d="M9.12605 6.77603C9.12605 6.77603 9.12605 6.83603 9.14205 6.88203C9.16205 6.93603 9.16205 6.93603 9.18005 6.96203C9.19946 6.99376 9.22536 7.02102 9.25605 7.04203C9.29605 7.06603 9.33605 7.07803 9.37605 7.07403C9.48405 7.06603 9.53605 6.94603 9.56005 6.85003C9.58605 6.74803 9.66005 6.69003 9.71005 6.73003C9.73805 6.75003 9.73805 6.78603 9.71605 6.82203C9.69451 6.84802 9.66609 6.86742 9.63405 6.87803L9.69205 6.95203C9.69205 6.95203 9.81805 6.93603 9.84205 6.80403C9.85205 6.75403 9.82805 6.66203 9.74405 6.63403C9.63805 6.59803 9.57205 6.67403 9.53805 6.73803C9.49405 6.82603 9.47405 6.98603 9.35005 6.96203C9.28205 6.94803 9.25005 6.85003 9.25005 6.80403L9.20205 6.75203L9.12805 6.77603H9.12605Z" fill="white"/>
<path d="M9.22203 6.08005L9.43803 5.84605C9.43803 5.84605 9.47003 5.82005 9.47003 5.77805L9.42603 5.78605L9.41603 5.76205L9.41403 5.74005L9.47403 5.72605V5.70005L9.48003 5.67405L9.41603 5.67805L9.42203 5.65005L9.43203 5.63005L9.47003 5.62205H9.50803C9.54403 5.55405 9.69203 5.49405 9.79603 5.60205C9.87203 5.68205 9.85603 5.82605 9.75603 5.86605C9.73367 5.87598 9.70891 5.87919 9.68476 5.87528C9.66061 5.87138 9.63812 5.86053 9.62003 5.84405L9.66003 5.76405C9.71403 5.79805 9.76003 5.75805 9.75603 5.71605C9.75203 5.66205 9.71603 5.63005 9.67003 5.62605C9.62403 5.62205 9.59003 5.64605 9.57003 5.68605C9.55803 5.71205 9.56403 5.73005 9.56003 5.75805C9.55603 5.78805 9.56003 5.80405 9.55003 5.83405C9.54027 5.86167 9.52378 5.88642 9.50203 5.90605L9.28203 6.14605L8.42203 7.07405L8.35803 7.01405L9.22203 6.08005Z" fill="#FEDF00"/>
<path d="M8.59001 6.16004C8.59001 6.16004 8.64401 6.42804 8.82801 6.83004C8.92201 6.79604 8.97601 6.77404 9.07601 6.77404C9.17401 6.77404 9.22801 6.79404 9.32201 6.83004C9.42441 6.61558 9.50417 6.39103 9.56001 6.16004L9.07601 5.54004L8.58801 6.16004H8.59001Z" fill="white"/>
<path d="M9.12202 5.74805L9.45802 6.18205C9.45802 6.18205 9.41402 6.39205 9.27802 6.70805C9.22402 6.69605 9.17802 6.68605 9.12202 6.68205V5.74805ZM9.02802 5.74805L8.69202 6.18205C8.69202 6.18205 8.73602 6.39205 8.87202 6.70805C8.92602 6.69605 8.97202 6.68605 9.02802 6.68205V5.74805Z" fill="#FEDF00"/>
<path d="M10.0719 5.48438H11.7156V7.125H10.0719V5.48438Z" fill="#FEDF00"/>
<path d="M10.3032 5.48438H10.5469V7.125H10.3032V5.48438ZM10.7719 5.48438H11.0157V7.125H10.7719V5.48438ZM11.2407 5.48438H11.4875V7.125H11.2407V5.48438Z" fill="#D52B1E"/>
<path d="M8.25936 8.54685C8.26249 8.5781 8.27499 8.6281 8.30311 8.68123C8.33436 8.7281 8.32186 8.72498 8.38749 8.79998C8.42397 8.83676 8.46619 8.86736 8.51249 8.8906C8.66017 8.95418 8.82077 8.98202 8.98124 8.97185C9.06561 8.96873 9.13124 8.95935 9.18749 8.94998C9.30141 8.93483 9.41634 8.92856 9.53124 8.93123C9.57811 8.93123 9.62499 8.9406 9.67811 8.94998C9.78749 8.97185 9.89686 9.01248 9.89686 9.01248V7.3031H8.25311V8.46873L8.25936 8.54373V8.54685Z" fill="#FEDF00"/>
<path d="M8.45001 8.84686L8.52814 8.89374L8.63439 8.93124V7.29999H8.45001V8.84686ZM9.36251 8.92186V7.29999H9.18126V8.94999L9.36251 8.92811V8.92186ZM9.72814 7.29999H9.54689V8.92811C9.60626 8.93436 9.66564 8.94686 9.72814 8.95936V7.30311V7.29999ZM8.99689 7.29999V8.96874C8.99689 8.96874 8.87814 8.97499 8.81564 8.96874V7.29999H8.99689Z" fill="#D52B1E" stroke="#D52B1E" stroke-width="0.015"/>
<path d="M11.71 8.54799C11.7029 8.59415 11.688 8.63877 11.666 8.67999C11.636 8.72599 11.646 8.72599 11.58 8.79999C11.5085 8.87052 11.4183 8.9191 11.32 8.93999C11.2118 8.96852 11.0997 8.97932 10.988 8.97199C10.902 8.96799 10.838 8.95799 10.782 8.95199C10.706 8.93999 10.648 8.93399 10.562 8.93199C10.5207 8.92995 10.4793 8.92995 10.438 8.93199C10.3132 8.94611 10.1905 8.97428 10.072 9.01599V7.29999H11.716V8.46999L11.71 8.54599V8.54799Z" fill="#FEDF00"/>
<path d="M10.492 7.43997L10.48 7.44397L10.464 7.45997C10.456 7.46797 10.45 7.46997 10.44 7.47597L10.428 7.48597C10.422 7.49197 10.428 7.49797 10.422 7.50597C10.42 7.51397 10.416 7.51797 10.41 7.52597C10.402 7.53397 10.396 7.53597 10.39 7.54597L10.366 7.56597L10.36 7.56797H10.348C10.34 7.57197 10.338 7.57997 10.332 7.58397L10.338 7.59597L10.354 7.62397C10.358 7.62997 10.358 7.63797 10.364 7.63997C10.374 7.64397 10.382 7.64397 10.39 7.64197C10.406 7.64597 10.416 7.64597 10.43 7.65197L10.46 7.66797C10.47 7.67397 10.476 7.67597 10.486 7.67797H10.522V7.68397L10.562 7.70397C10.561 7.70655 10.5604 7.70924 10.56 7.71197C10.558 7.71797 10.556 7.72597 10.558 7.72797C10.57 7.76597 10.582 7.78797 10.588 7.79197C10.6 7.79597 10.604 7.80997 10.61 7.82197L10.604 7.82797C10.592 7.83997 10.58 7.84797 10.57 7.86397C10.556 7.88797 10.546 7.88797 10.564 7.91997L10.594 7.96797C10.602 7.98197 10.606 7.99197 10.61 8.00797C10.614 8.02197 10.616 8.03197 10.616 8.04797L10.636 8.05397L10.65 8.04197L10.662 8.01797V7.99797C10.658 7.99597 10.656 7.98997 10.658 7.98397C10.658 7.97597 10.668 7.97797 10.672 7.97197C10.678 7.96197 10.664 7.95597 10.658 7.94997C10.646 7.93597 10.63 7.93197 10.626 7.91197C10.626 7.90797 10.626 7.90397 10.634 7.89797L10.674 7.86197C10.678 7.86397 10.686 7.86597 10.694 7.86397L10.72 7.87197C10.732 7.87597 10.738 7.87197 10.744 7.87197H10.752L10.754 7.88397C10.756 7.90397 10.752 7.94397 10.758 7.95397L10.764 7.96597L10.768 7.97797V8.01797L10.764 8.05197C10.764 8.05997 10.76 8.06597 10.754 8.07197C10.75 8.07997 10.742 8.07997 10.734 8.08597V8.10597L10.756 8.11597L10.782 8.12197L10.796 8.11597L10.798 8.10397L10.808 8.09397C10.816 8.08997 10.824 8.09397 10.826 8.09197C10.83 8.08597 10.826 8.08397 10.826 8.07597C10.826 8.06397 10.822 8.05597 10.82 8.04397C10.8171 8.02545 10.8165 8.00665 10.818 7.98797C10.818 7.97597 10.818 7.96797 10.822 7.95797C10.824 7.93797 10.83 7.92997 10.834 7.91397C10.84 7.89397 10.84 7.88197 10.842 7.86397C10.9095 7.87413 10.9783 7.87004 11.044 7.85197C11.06 7.86597 11.078 7.87597 11.098 7.88397V7.90397C11.098 7.90997 11.098 7.91197 11.102 7.91797L11.108 7.92397C11.114 7.92397 11.118 7.92397 11.122 7.91997C11.126 7.91597 11.126 7.91197 11.126 7.90597V7.89197H11.162V7.91397C11.164 7.91997 11.168 7.92197 11.172 7.92197C11.1739 7.92286 11.176 7.92333 11.178 7.92333C11.1801 7.92333 11.1822 7.92286 11.184 7.92197C11.19 7.91797 11.188 7.90997 11.19 7.90197V7.88797L11.21 7.87997C11.2106 7.88596 11.2106 7.89199 11.21 7.89797L11.204 7.91597C11.2 7.92797 11.194 7.93197 11.188 7.94397C11.18 7.95597 11.178 7.96397 11.168 7.97397L11.156 7.98797L11.144 8.00597L11.126 8.02597C11.112 8.03797 11.102 8.02997 11.086 8.04397L11.08 8.06397L11.108 8.07597L11.134 8.07997L11.142 8.07597C11.142 8.06997 11.142 8.06397 11.148 8.05997C11.152 8.05397 11.156 8.05397 11.162 8.05197C11.17 8.05197 11.178 8.05197 11.182 8.04797C11.19 8.04197 11.19 8.02797 11.196 8.01797C11.2108 7.98831 11.2311 7.96181 11.256 7.93997L11.29 7.91197C11.294 7.90397 11.3 7.90197 11.3 7.89197L11.296 7.87997L11.292 7.85997C11.322 7.87397 11.312 7.87397 11.316 7.88797C11.322 7.89997 11.316 7.90797 11.318 7.92197C11.32 7.93797 11.328 7.94397 11.328 7.95997C11.33 7.97797 11.326 7.98797 11.322 8.00597C11.32 8.02197 11.32 8.03197 11.312 8.04597C11.3073 8.05764 11.2997 8.06795 11.29 8.07597L11.278 8.08597L11.276 8.10597L11.298 8.11397L11.33 8.12197L11.338 8.11597C11.342 8.10197 11.338 8.08197 11.346 8.08197C11.354 8.07997 11.36 8.08197 11.362 8.07597V8.06197L11.376 7.97197L11.384 7.93397L11.392 7.89997C11.406 7.85997 11.388 7.85397 11.372 7.82797C11.362 7.81397 11.358 7.80797 11.358 7.79797V7.73997C11.3574 7.72131 11.3574 7.70264 11.358 7.68397L11.366 7.67997C11.39 7.66597 11.4 7.66197 11.414 7.62997C11.4183 7.62056 11.4203 7.6103 11.42 7.59997V7.57997L11.412 7.55997C11.4089 7.55405 11.4048 7.54865 11.4 7.54397C11.386 7.52397 11.366 7.52197 11.346 7.51397C11.316 7.50397 11.296 7.50597 11.266 7.50397C11.23 7.49997 11.212 7.49997 11.178 7.50397C11.138 7.50397 11.116 7.51197 11.076 7.51797L10.978 7.52597C10.932 7.52597 10.89 7.51597 10.862 7.51797C10.814 7.52197 10.812 7.53397 10.738 7.53997C10.7127 7.54203 10.6874 7.54336 10.662 7.54397L10.618 7.52997C10.636 7.52397 10.64 7.51997 10.648 7.50997C10.654 7.50197 10.652 7.49597 10.66 7.48797L10.674 7.46797C10.6687 7.46398 10.6626 7.46125 10.656 7.45997H10.636C10.6277 7.46029 10.6195 7.46233 10.612 7.46597L10.596 7.47797L10.552 7.45397C10.5333 7.44444 10.5129 7.43834 10.492 7.43597V7.43997Z" fill="#D52B1E"/>
<path d="M11.376 7.68996L11.36 7.69596C11.342 7.70396 11.328 7.70396 11.308 7.70596C11.256 7.70996 11.222 7.68396 11.168 7.68796C11.14 7.68996 11.128 7.71196 11.098 7.71996C11.0868 7.72234 11.0754 7.72368 11.064 7.72396L11.074 7.70396C11.074 7.70396 11.05 7.70996 11.034 7.70996C11.0232 7.70979 11.0125 7.70844 11.002 7.70596L11.022 7.68596L10.996 7.68196C10.9887 7.67835 10.9819 7.67363 10.976 7.66796C10.9874 7.66644 10.9988 7.66444 11.01 7.66196C11.04 7.65396 11.05 7.63796 11.088 7.63396C11.11 7.63396 11.148 7.63396 11.24 7.64996C11.3 7.65996 11.328 7.65396 11.35 7.64396C11.366 7.63796 11.37 7.62396 11.372 7.60796C11.374 7.59196 11.364 7.57996 11.356 7.57196C11.354 7.57196 11.346 7.56596 11.334 7.56396" stroke="#FEDF00" stroke-width="0.032" stroke-linecap="round"/>
<path d="M10.496 7.51196C10.486 7.51196 10.478 7.51196 10.47 7.51796C10.46 7.52396 10.458 7.53196 10.45 7.53996C10.46 7.54196 10.466 7.54796 10.474 7.54596C10.482 7.54596 10.484 7.54196 10.49 7.53596C10.496 7.52796 10.498 7.52196 10.498 7.51196H10.496Z" fill="#FCD900" stroke="#FEDF00" stroke-width="0.016"/>
<path d="M10.72 7.77597C10.7253 7.79188 10.732 7.80728 10.74 7.82197C10.744 7.83797 10.74 7.84597 10.744 7.86197V7.89397M10.88 7.75397L10.874 7.77997L10.854 7.84997V7.86397M10.634 7.78397C10.652 7.78797 10.646 7.84997 10.672 7.86397" stroke="#FEDF00" stroke-width="0.032" stroke-linecap="round"/>
<path d="M11.202 7.89594L11.21 7.88994C11.2302 7.88166 11.2486 7.86942 11.264 7.85394" stroke="#FEDF00" stroke-width="0.032"/>
<path d="M11.048 7.85994C11.118 7.84194 11.166 7.80794 11.2 7.80194M11.12 7.77194H11.136C11.166 7.76594 11.17 7.78394 11.19 7.79594C11.228 7.81594 11.232 7.84194 11.276 7.86394L11.284 7.86594L11.3 7.87394" stroke="#FEDF00" stroke-width="0.032" stroke-linecap="round"/>
<path d="M10.354 7.58994H10.368L10.384 7.58594C10.39 7.58594 10.394 7.58594 10.398 7.58994C10.402 7.58994 10.402 7.59194 10.404 7.59594C10.404 7.59994 10.408 7.60194 10.406 7.60594C10.406 7.60994 10.4 7.61394 10.394 7.61394C10.39 7.61394 10.386 7.61394 10.384 7.60794C10.3835 7.60668 10.3832 7.60531 10.3832 7.60394C10.3832 7.60256 10.3835 7.6012 10.384 7.59994C10.3812 7.60134 10.3781 7.60208 10.375 7.60208C10.3719 7.60208 10.3688 7.60134 10.366 7.59994C10.3634 7.59916 10.361 7.59788 10.359 7.59616C10.3569 7.59444 10.3552 7.59232 10.354 7.58994Z" fill="#FCD900" stroke="#FEDF00" stroke-width="0.016"/>
<path d="M10.502 7.78398L10.462 7.76598C10.47 7.76198 10.476 7.76198 10.482 7.75598C10.488 7.74798 10.488 7.73998 10.492 7.72998C10.496 7.71998 10.496 7.70998 10.506 7.70198C10.512 7.69798 10.522 7.69798 10.528 7.69998C10.536 7.69998 10.544 7.70798 10.546 7.71398C10.546 7.72598 10.542 7.73398 10.54 7.74398C10.54 7.75598 10.534 7.76198 10.536 7.77198C10.536 7.77998 10.54 7.78398 10.544 7.79198L10.504 7.78398H10.502ZM10.482 7.80398C10.4817 7.80164 10.482 7.79926 10.483 7.79712C10.484 7.79498 10.4856 7.79318 10.4876 7.79194C10.4896 7.79071 10.492 7.79009 10.4943 7.79017C10.4967 7.79026 10.4989 7.79103 10.5009 7.7924C10.5028 7.79377 10.5043 7.79568 10.5051 7.79788C10.5059 7.80009 10.5061 7.80249 10.5056 7.80479C10.5051 7.8071 10.5039 7.80919 10.5022 7.81083C10.5005 7.81246 10.4984 7.81356 10.496 7.81398C10.4943 7.81427 10.4925 7.81418 10.4908 7.81371C10.4891 7.81324 10.4876 7.8124 10.4862 7.81125C10.4849 7.81011 10.4838 7.80868 10.4831 7.80708C10.4824 7.80548 10.482 7.80373 10.482 7.80198V7.80398ZM10.448 7.47198H10.444C10.436 7.46398 10.436 7.45598 10.432 7.44798C10.4288 7.44033 10.4268 7.43224 10.426 7.42398V7.38398C10.426 7.37798 10.426 7.37198 10.422 7.36598C10.422 7.36198 10.414 7.35998 10.416 7.35798C10.416 7.35598 10.422 7.35798 10.424 7.35798C10.432 7.35798 10.436 7.35998 10.444 7.36598C10.45 7.37198 10.454 7.37798 10.456 7.38598L10.464 7.41598L10.47 7.43198L10.48 7.44398L10.466 7.45998L10.448 7.47198ZM10.52 7.68398L10.564 7.70398C10.5941 7.68585 10.6184 7.65947 10.634 7.62798C10.652 7.59198 10.654 7.57398 10.662 7.53998L10.626 7.52998H10.618C10.608 7.56598 10.604 7.58398 10.586 7.61398C10.57 7.63998 10.552 7.65998 10.534 7.67398L10.52 7.68398ZM10.62 8.04798L10.636 8.02198L10.664 7.99998H10.672C10.6718 8.01906 10.6684 8.03798 10.662 8.05598L10.654 8.07598L10.644 8.08598C10.634 8.06998 10.618 8.05998 10.618 8.04598L10.62 8.04798ZM11.28 8.08398L11.308 8.09598L11.338 8.11398V8.12398L11.308 8.12798C11.2994 8.12865 11.2907 8.12865 11.282 8.12798H11.262L11.25 8.11998C11.26 8.10598 11.266 8.08798 11.278 8.08398H11.28ZM11.084 8.04398L11.112 8.05398L11.142 8.07398C11.142 8.07598 11.144 8.07998 11.142 8.08198C11.1244 8.0867 11.1062 8.08872 11.088 8.08798L11.068 8.08598L11.054 8.07998C11.066 8.06598 11.072 8.04598 11.084 8.04398ZM10.736 8.08598L10.766 8.09598L10.796 8.11598V8.12598C10.7777 8.13023 10.7588 8.13158 10.74 8.12998H10.72L10.708 8.12198C10.718 8.10798 10.724 8.08998 10.736 8.08598ZM10.556 7.48998C10.544 7.48398 10.536 7.46998 10.544 7.45798C10.546 7.45398 10.552 7.45398 10.556 7.44998C10.56 7.44398 10.558 7.43998 10.556 7.43398L10.554 7.41398L10.55 7.39398C10.55 7.38198 10.55 7.37398 10.558 7.36198C10.562 7.35598 10.572 7.34998 10.574 7.34998C10.578 7.35198 10.574 7.35998 10.574 7.36598C10.574 7.37598 10.576 7.37998 10.58 7.38998L10.594 7.41598C10.598 7.42798 10.602 7.43198 10.602 7.44398C10.602 7.45398 10.602 7.45798 10.598 7.46798C10.5955 7.47424 10.5913 7.47974 10.586 7.48398C10.5814 7.48782 10.5759 7.49055 10.57 7.49198C10.5661 7.49309 10.562 7.49309 10.558 7.49198L10.556 7.48998Z" fill="#0065BD"/>
<path d="M10.492 8.17197L10.48 8.17597L10.464 8.19197C10.456 8.19997 10.45 8.20197 10.44 8.20797L10.428 8.21797C10.422 8.22397 10.428 8.22997 10.422 8.23797C10.42 8.24597 10.416 8.24997 10.41 8.25797C10.402 8.26597 10.396 8.26797 10.39 8.27797L10.366 8.29797L10.36 8.29997H10.348C10.34 8.30397 10.338 8.31197 10.332 8.31597L10.338 8.32797L10.354 8.35597C10.358 8.36197 10.358 8.36997 10.364 8.37197C10.374 8.37597 10.382 8.37597 10.39 8.37397C10.406 8.37797 10.416 8.37797 10.43 8.38397L10.46 8.39997C10.47 8.40597 10.476 8.40797 10.486 8.40997H10.522V8.41597L10.562 8.43597C10.561 8.43854 10.5604 8.44123 10.56 8.44397C10.558 8.44997 10.556 8.45797 10.558 8.45997C10.57 8.49797 10.582 8.51997 10.588 8.52397C10.6 8.52797 10.604 8.54197 10.61 8.55397L10.604 8.55997C10.592 8.57197 10.58 8.57997 10.57 8.59597C10.556 8.61997 10.546 8.61997 10.564 8.65197L10.594 8.69997C10.602 8.71397 10.606 8.72397 10.61 8.73997C10.614 8.75397 10.616 8.76397 10.616 8.77997L10.636 8.78597L10.65 8.77397L10.662 8.74997V8.72997C10.658 8.72797 10.656 8.72197 10.658 8.71597C10.658 8.70797 10.668 8.70997 10.672 8.70397C10.678 8.69397 10.664 8.68797 10.658 8.68197C10.646 8.66797 10.63 8.66397 10.626 8.64397C10.626 8.63997 10.626 8.63597 10.634 8.62997L10.674 8.59397C10.678 8.59597 10.686 8.59797 10.694 8.59597L10.72 8.60397C10.732 8.60797 10.738 8.60397 10.744 8.60397H10.752L10.754 8.61597C10.756 8.63597 10.752 8.67597 10.758 8.68597L10.764 8.69797L10.768 8.70997V8.74997L10.764 8.78397C10.764 8.79197 10.76 8.79797 10.754 8.80397C10.75 8.81197 10.742 8.81197 10.734 8.81797V8.83797L10.756 8.84797L10.782 8.85397L10.796 8.84797L10.798 8.83597L10.808 8.82597C10.816 8.82197 10.824 8.82597 10.826 8.82397C10.83 8.81797 10.826 8.81597 10.826 8.80797C10.826 8.79597 10.822 8.78797 10.82 8.77597C10.8171 8.75745 10.8165 8.73865 10.818 8.71997C10.818 8.70797 10.818 8.69997 10.822 8.68997C10.824 8.66997 10.83 8.66197 10.834 8.64597C10.84 8.62597 10.84 8.61397 10.842 8.59597C10.9095 8.60613 10.9783 8.60204 11.044 8.58397C11.06 8.59797 11.078 8.60797 11.098 8.61597V8.63597C11.098 8.64197 11.098 8.64397 11.102 8.64997L11.108 8.65597C11.114 8.65597 11.118 8.65597 11.122 8.65197C11.126 8.64797 11.126 8.64397 11.126 8.63797V8.62397H11.162V8.64597C11.164 8.65197 11.168 8.65397 11.172 8.65397C11.1739 8.65486 11.176 8.65532 11.178 8.65532C11.1801 8.65532 11.1822 8.65486 11.184 8.65397C11.19 8.64997 11.188 8.64197 11.19 8.63397V8.61997L11.21 8.61197C11.2106 8.61796 11.2106 8.62398 11.21 8.62997L11.204 8.64797C11.2 8.65997 11.194 8.66397 11.188 8.67597C11.18 8.68797 11.178 8.69597 11.168 8.70597L11.156 8.71997L11.144 8.73797L11.126 8.75797C11.112 8.76997 11.102 8.76197 11.086 8.77597L11.08 8.79597L11.108 8.80797L11.134 8.81197L11.142 8.80797C11.142 8.80197 11.142 8.79597 11.148 8.79197C11.152 8.78597 11.156 8.78597 11.162 8.78397C11.17 8.78397 11.178 8.78397 11.182 8.77997C11.19 8.77397 11.19 8.75997 11.196 8.74997C11.2108 8.72031 11.2311 8.69381 11.256 8.67197L11.29 8.64397C11.294 8.63597 11.3 8.63397 11.3 8.62397L11.296 8.61197L11.292 8.59197C11.322 8.60597 11.312 8.60597 11.316 8.61997C11.322 8.63197 11.316 8.63997 11.318 8.65397C11.32 8.66997 11.328 8.67597 11.328 8.69197C11.33 8.70997 11.326 8.71997 11.322 8.73797C11.32 8.75397 11.32 8.76397 11.312 8.77797C11.3073 8.78964 11.2997 8.79995 11.29 8.80797L11.278 8.81797L11.276 8.83797L11.298 8.84597L11.33 8.85397L11.338 8.84797C11.342 8.83397 11.338 8.81397 11.346 8.81397C11.354 8.81197 11.36 8.81397 11.362 8.80797V8.79397L11.376 8.70397L11.384 8.66597L11.392 8.63197C11.406 8.59197 11.388 8.58597 11.372 8.55997C11.362 8.54597 11.358 8.53997 11.358 8.52997V8.47197C11.3574 8.45331 11.3574 8.43463 11.358 8.41597L11.366 8.41197C11.39 8.39797 11.4 8.39397 11.414 8.36197C11.4183 8.35255 11.4203 8.34229 11.42 8.33197V8.31197L11.412 8.29197C11.4089 8.28604 11.4048 8.28064 11.4 8.27597C11.386 8.25597 11.366 8.25397 11.346 8.24597C11.316 8.23597 11.296 8.23797 11.266 8.23597C11.23 8.23197 11.212 8.23197 11.178 8.23597C11.138 8.23597 11.116 8.24397 11.076 8.24997L10.978 8.25797C10.932 8.25797 10.89 8.24797 10.862 8.24997C10.814 8.25397 10.812 8.26597 10.738 8.27197C10.7127 8.27402 10.6874 8.27536 10.662 8.27597L10.618 8.26197C10.636 8.25597 10.64 8.25197 10.648 8.24197C10.654 8.23397 10.652 8.22797 10.66 8.21997L10.674 8.19997C10.6687 8.19598 10.6626 8.19324 10.656 8.19197H10.636C10.6277 8.19228 10.6195 8.19432 10.612 8.19797L10.596 8.20997L10.552 8.18597C10.5333 8.17643 10.5129 8.17033 10.492 8.16797V8.17197Z" fill="#D52B1E"/>
<path d="M11.376 8.42196L11.36 8.42796C11.342 8.43596 11.328 8.43596 11.308 8.43796C11.256 8.44196 11.222 8.41596 11.168 8.41996C11.14 8.42196 11.128 8.44396 11.098 8.45196C11.0868 8.45433 11.0754 8.45567 11.064 8.45596L11.074 8.43596C11.074 8.43596 11.05 8.44196 11.034 8.44196C11.0232 8.44178 11.0125 8.44044 11.002 8.43796L11.022 8.41796L10.996 8.41396C10.9887 8.41034 10.9819 8.40562 10.976 8.39996C10.9874 8.39844 10.9988 8.39644 11.01 8.39396C11.04 8.38596 11.05 8.36996 11.088 8.36596C11.11 8.36596 11.148 8.36596 11.24 8.38196C11.3 8.39196 11.328 8.38596 11.35 8.37596C11.366 8.36996 11.37 8.35596 11.372 8.33996C11.374 8.32396 11.364 8.31196 11.356 8.30396C11.354 8.30396 11.346 8.29796 11.334 8.29596" stroke="#FEDF00" stroke-width="0.032" stroke-linecap="round"/>
<path d="M10.496 8.24396C10.486 8.24396 10.478 8.24396 10.47 8.24996C10.46 8.25596 10.458 8.26396 10.45 8.27196C10.46 8.27396 10.466 8.27996 10.474 8.27796C10.482 8.27796 10.484 8.27396 10.49 8.26796C10.496 8.25996 10.498 8.25396 10.498 8.24396H10.496Z" fill="#FCD900" stroke="#FEDF00" stroke-width="0.016"/>
<path d="M10.72 8.50796C10.7253 8.52388 10.732 8.53928 10.74 8.55396C10.744 8.56996 10.74 8.57796 10.744 8.59396V8.62596M10.88 8.48596L10.874 8.51196L10.854 8.58196V8.59596M10.634 8.51596C10.652 8.51996 10.646 8.58196 10.672 8.59596" stroke="#FEDF00" stroke-width="0.032" stroke-linecap="round"/>
<path d="M11.202 8.62794L11.21 8.62194C11.2302 8.61365 11.2486 8.60141 11.264 8.58594" stroke="#FEDF00" stroke-width="0.032"/>
<path d="M11.048 8.59194C11.118 8.57394 11.166 8.53994 11.2 8.53394M11.12 8.50394H11.136C11.166 8.49794 11.17 8.51594 11.19 8.52794C11.228 8.54794 11.232 8.57394 11.276 8.59594L11.284 8.59794L11.3 8.60594" stroke="#FEDF00" stroke-width="0.032" stroke-linecap="round"/>
<path d="M10.354 8.32193H10.368L10.384 8.31793C10.39 8.31793 10.394 8.31793 10.398 8.32193C10.402 8.32193 10.402 8.32393 10.404 8.32793C10.404 8.33193 10.408 8.33393 10.406 8.33793C10.406 8.34193 10.4 8.34593 10.394 8.34593C10.39 8.34593 10.386 8.34593 10.384 8.33993C10.3835 8.33867 10.3832 8.33731 10.3832 8.33593C10.3832 8.33456 10.3835 8.33319 10.384 8.33193C10.3812 8.33334 10.3781 8.33407 10.375 8.33407C10.3719 8.33407 10.3688 8.33334 10.366 8.33193C10.3634 8.33116 10.361 8.32987 10.359 8.32815C10.3569 8.32643 10.3552 8.32432 10.354 8.32193Z" fill="#FCD900" stroke="#FEDF00" stroke-width="0.016"/>
<path d="M10.502 8.51597L10.462 8.49797C10.47 8.49397 10.476 8.49397 10.482 8.48797C10.488 8.47997 10.488 8.47197 10.492 8.46197C10.496 8.45197 10.496 8.44197 10.506 8.43397C10.512 8.42997 10.522 8.42997 10.528 8.43197C10.536 8.43197 10.544 8.43997 10.546 8.44597C10.546 8.45797 10.542 8.46597 10.54 8.47597C10.54 8.48797 10.534 8.49397 10.536 8.50397C10.536 8.51197 10.54 8.51597 10.544 8.52397L10.504 8.51597H10.502ZM10.482 8.53597C10.4817 8.53364 10.482 8.53125 10.483 8.52911C10.484 8.52697 10.4856 8.52517 10.4876 8.52394C10.4896 8.5227 10.492 8.52209 10.4943 8.52217C10.4967 8.52225 10.4989 8.52303 10.5009 8.5244C10.5028 8.52577 10.5043 8.52768 10.5051 8.52988C10.5059 8.53208 10.5061 8.53449 10.5056 8.53679C10.5051 8.53909 10.5039 8.54119 10.5022 8.54282C10.5005 8.54445 10.4984 8.54555 10.496 8.54597C10.4943 8.54626 10.4925 8.54617 10.4908 8.5457C10.4891 8.54523 10.4876 8.54439 10.4862 8.54325C10.4849 8.5421 10.4838 8.54068 10.4831 8.53908C10.4824 8.53747 10.482 8.53573 10.482 8.53397V8.53597ZM10.448 8.20397H10.444C10.436 8.19597 10.436 8.18797 10.432 8.17997C10.4288 8.17233 10.4268 8.16423 10.426 8.15597V8.11597C10.426 8.10997 10.426 8.10397 10.422 8.09797C10.422 8.09397 10.414 8.09197 10.416 8.08997C10.416 8.08797 10.422 8.08997 10.424 8.08997C10.432 8.08997 10.436 8.09197 10.444 8.09797C10.45 8.10397 10.454 8.10997 10.456 8.11797L10.464 8.14797L10.47 8.16397L10.48 8.17597L10.466 8.19197L10.448 8.20397ZM10.52 8.41597L10.564 8.43597C10.5941 8.41784 10.6184 8.39147 10.634 8.35997C10.652 8.32397 10.654 8.30597 10.662 8.27197L10.626 8.26197H10.618C10.608 8.29797 10.604 8.31597 10.586 8.34597C10.57 8.37197 10.552 8.39197 10.534 8.40597L10.52 8.41597ZM10.62 8.77997L10.636 8.75397L10.664 8.73197H10.672C10.6718 8.75106 10.6684 8.76998 10.662 8.78797L10.654 8.80797L10.644 8.81797C10.634 8.80197 10.618 8.79197 10.618 8.77797L10.62 8.77997ZM11.28 8.81597L11.308 8.82797L11.338 8.84597V8.85597L11.308 8.85997C11.2994 8.86064 11.2907 8.86064 11.282 8.85997H11.262L11.25 8.85197C11.26 8.83797 11.266 8.81997 11.278 8.81597H11.28ZM11.084 8.77597L11.112 8.78597L11.142 8.80597C11.142 8.80797 11.144 8.81197 11.142 8.81397C11.1244 8.81869 11.1062 8.82071 11.088 8.81997L11.068 8.81797L11.054 8.81197C11.066 8.79797 11.072 8.77797 11.084 8.77597ZM10.736 8.81797L10.766 8.82797L10.796 8.84797V8.85797C10.7777 8.86222 10.7588 8.86357 10.74 8.86197H10.72L10.708 8.85397C10.718 8.83997 10.724 8.82197 10.736 8.81797ZM10.556 8.22197C10.544 8.21597 10.536 8.20197 10.544 8.18997C10.546 8.18597 10.552 8.18597 10.556 8.18197C10.56 8.17597 10.558 8.17197 10.556 8.16597L10.554 8.14597L10.55 8.12597C10.55 8.11397 10.55 8.10597 10.558 8.09397C10.562 8.08797 10.572 8.08197 10.574 8.08197C10.578 8.08397 10.574 8.09197 10.574 8.09797C10.574 8.10797 10.576 8.11197 10.58 8.12197L10.594 8.14797C10.598 8.15997 10.602 8.16397 10.602 8.17597C10.602 8.18597 10.602 8.18997 10.598 8.19997C10.5955 8.20623 10.5913 8.21174 10.586 8.21597C10.5814 8.21981 10.5759 8.22255 10.57 8.22397C10.5661 8.22508 10.562 8.22508 10.558 8.22397L10.556 8.22197Z" fill="#0065BD"/>
<path d="M8.25311 5.48438H9.89686V7.125H8.25311V5.48438ZM10.0719 5.48438H11.7156V7.125H10.0719V5.48438ZM8.25936 8.54688C8.26249 8.57812 8.27499 8.62812 8.30311 8.68125C8.33436 8.72812 8.32186 8.725 8.38749 8.8C8.42397 8.83678 8.46619 8.86739 8.51249 8.89062C8.66017 8.95421 8.82077 8.98205 8.98124 8.97188C9.06561 8.96875 9.13124 8.95937 9.18749 8.95C9.30141 8.93486 9.41634 8.92859 9.53124 8.93125C9.57811 8.93125 9.62499 8.94062 9.67811 8.95C9.78749 8.97187 9.89686 9.0125 9.89686 9.0125V7.30312H8.25311V8.46875L8.25936 8.54375V8.54688ZM11.7094 8.54688C11.7027 8.59388 11.6879 8.63936 11.6656 8.68125C11.6344 8.72812 11.6469 8.725 11.5812 8.8C11.5447 8.83674 11.5025 8.86734 11.4562 8.89062C11.4156 8.9125 11.3844 8.92188 11.3187 8.94063C11.2108 8.96912 11.0989 8.97968 10.9875 8.97188C10.9031 8.96875 10.8375 8.95625 10.7844 8.95C10.7097 8.93994 10.6346 8.93368 10.5594 8.93125C10.5188 8.92929 10.4781 8.92929 10.4375 8.93125C10.3906 8.93125 10.3437 8.94062 10.2906 8.95C10.1812 8.97187 10.0719 9.0125 10.0719 9.0125V7.3H11.7187V8.47188L11.7125 8.54688H11.7094Z" stroke="#703D29" stroke-width="0.025"/>
</g>
<defs>
<clipPath id="clip0_14_474">
<rect width="20" height="15" fill="white"/>
</clipPath>
</defs>
</svg>
