<svg width="20" height="15" viewBox="0 0 20 15" fill="none" xmlns="http://www.w3.org/2000/svg">
<mask id="mask0_1825_40445" style="mask-type:luminance" maskUnits="userSpaceOnUse" x="0" y="0" width="20" height="15">
<rect width="20" height="15" fill="white"/>
</mask>
<g mask="url(#mask0_1825_40445)">
<path fill-rule="evenodd" clip-rule="evenodd" d="M14 0H20V15H14V0Z" fill="#67BD38"/>
<path fill-rule="evenodd" clip-rule="evenodd" d="M6 0H14V15H6V0Z" fill="#D51700"/>
<path fill-rule="evenodd" clip-rule="evenodd" d="M0 0H6V15H0V0Z" fill="#272727"/>
<path fill-rule="evenodd" clip-rule="evenodd" d="M7.70493 4.9856L7.92118 5.12131C7.5608 5.72787 7.31873 6.28368 7.19354 6.78891C7.24652 6.83777 7.2797 6.88058 7.31361 6.9393C7.41138 7.10866 7.49362 7.27305 7.56026 7.43257L7.27286 7.55493C7.22774 7.44694 7.17458 7.33591 7.11336 7.22185C7.08407 7.46832 7.08608 7.70121 7.11919 7.92054C7.17175 7.92594 7.21589 7.93699 7.26694 7.95557C7.4507 8.02245 7.61937 8.09553 7.77296 8.17488L7.63144 8.45336C7.50051 8.38571 7.35669 8.32255 7.2 8.26396L7.2031 8.27341C7.3367 8.67713 7.54114 9.04855 7.817 9.38786C7.86011 9.37858 7.90028 9.37506 7.94723 9.37506C8.14278 9.37506 8.32627 9.38604 8.49773 9.40808L8.46 9.71817C8.34329 9.70317 8.21984 9.69366 8.08968 9.68969C8.33758 9.93775 8.62859 10.1665 8.96297 10.3761L8.83106 10.5984C8.41639 10.3385 8.06348 10.0488 7.77277 9.72935C7.73487 9.74416 7.68873 9.76377 7.63001 9.78943L7.60794 9.79901C7.8617 10.0651 8.16171 10.3098 8.50826 10.5332L8.37361 10.7538C7.97314 10.4956 7.63033 10.2088 7.34557 9.89356C7.20963 9.92846 7.09501 9.92771 6.96091 9.88837L7.04437 9.58788C7.06454 9.59379 7.08427 9.59817 7.10407 9.60098C6.83965 9.2491 6.64041 8.86539 6.5068 8.45C6.4832 8.37664 6.46298 8.30195 6.44615 8.22593C6.34259 8.20618 6.25522 8.16732 6.16455 8.10059L6.34575 7.84676C6.3614 7.85827 6.37715 7.86843 6.39338 7.87733C6.36092 7.49452 6.40566 7.08129 6.52694 6.63768C6.45099 6.55025 6.40453 6.45964 6.37591 6.34179L6.64138 6.27324C6.78446 5.86804 6.98683 5.43927 7.24803 4.98699L7.46592 5.11992C7.18109 5.6131 6.97006 6.07383 6.83217 6.50217C6.87082 6.53724 6.91809 6.57481 6.97598 6.61775C7.11445 6.11396 7.3578 5.56986 7.70493 4.9856ZM6.89895 6.94911C6.87088 6.92725 6.83716 6.90199 6.79614 6.87177C6.77646 6.85726 6.7576 6.84312 6.73955 6.82927C6.64304 7.22669 6.61458 7.59391 6.6536 7.931C6.70012 7.93136 6.75284 7.92936 6.81368 7.92552L6.86323 7.92251C6.82191 7.61839 6.83395 7.2939 6.89895 6.94911ZM6.82713 8.23645C6.86424 8.23411 6.89667 8.23224 6.9253 8.2309C6.93679 8.27346 6.94943 8.31558 6.96322 8.35726C7.09728 8.7624 7.29727 9.1365 7.56271 9.47942L7.51102 9.50185C7.46668 9.52124 7.42675 9.53778 7.39024 9.55156C7.09978 9.19264 6.88569 8.79829 6.74737 8.36826C6.734 8.32669 6.72183 8.28457 6.71088 8.24192C6.74738 8.24092 6.78601 8.23905 6.82713 8.23645Z" fill="#F7FCFF"/>
<path fill-rule="evenodd" clip-rule="evenodd" d="M12.0871 4.9856L11.8708 5.12131C12.2312 5.72787 12.4733 6.28368 12.5984 6.78891C12.5455 6.83777 12.5123 6.88058 12.4784 6.9393C12.3806 7.10866 12.2984 7.27305 12.2317 7.43257L12.5191 7.55493C12.5643 7.44694 12.6174 7.33591 12.6786 7.22185C12.7079 7.46832 12.7059 7.70121 12.6728 7.92054C12.6202 7.92594 12.5761 7.93699 12.525 7.95557C12.3413 8.02245 12.1726 8.09553 12.019 8.17488L12.1605 8.45336C12.2915 8.38571 12.4353 8.32255 12.592 8.26396L12.5889 8.27341C12.4553 8.67713 12.2509 9.04855 11.975 9.38786C11.9319 9.37858 11.8917 9.37506 11.8448 9.37506C11.6492 9.37506 11.4657 9.38604 11.2943 9.40808L11.332 9.71817C11.4487 9.70317 11.5722 9.69366 11.7023 9.68969C11.4544 9.93775 11.1634 10.1665 10.829 10.3761L10.9609 10.5984C11.3756 10.3385 11.7285 10.0488 12.0192 9.72935C12.0571 9.74416 12.1033 9.76377 12.162 9.78943L12.1841 9.79901C11.9303 10.0651 11.6303 10.3098 11.2837 10.5332L11.4184 10.7538C11.8189 10.4956 12.1617 10.2088 12.4464 9.89356C12.5824 9.92846 12.697 9.92771 12.8311 9.88837L12.7476 9.58788C12.7275 9.59379 12.7077 9.59817 12.6879 9.60098C12.9523 9.2491 13.1516 8.86539 13.2852 8.45C13.3088 8.37664 13.329 8.30195 13.3458 8.22593C13.4494 8.20618 13.5368 8.16732 13.6274 8.10059L13.4462 7.84676C13.4306 7.85827 13.4148 7.86843 13.3986 7.87733C13.4311 7.49452 13.3863 7.08129 13.265 6.63768C13.341 6.55025 13.3875 6.45964 13.4161 6.34179L13.1506 6.27324C13.0075 5.86804 12.8052 5.43927 12.544 4.98699L12.3261 5.11992C12.6109 5.6131 12.8219 6.07383 12.9598 6.50217C12.9212 6.53724 12.8739 6.57481 12.816 6.61775C12.6775 6.11396 12.4342 5.56986 12.0871 4.9856ZM12.893 6.94911C12.9211 6.92725 12.9548 6.90199 12.9958 6.87177C13.0155 6.85726 13.0344 6.84312 13.0524 6.82927C13.149 7.22669 13.1774 7.59391 13.1384 7.931C13.0919 7.93136 13.0392 7.92936 12.9783 7.92552L12.9288 7.92251C12.9701 7.61839 12.958 7.2939 12.893 6.94911ZM12.9649 8.23645C12.9278 8.23411 12.8953 8.23224 12.8667 8.2309C12.8552 8.27346 12.8426 8.31558 12.8288 8.35726C12.6947 8.7624 12.4947 9.1365 12.2293 9.47942L12.281 9.50185C12.3253 9.52124 12.3652 9.53778 12.4018 9.55156C12.6922 9.19264 12.9063 8.79829 13.0446 8.36826C13.058 8.32669 13.0702 8.28457 13.0811 8.24192C13.0446 8.24092 13.006 8.23905 12.9649 8.23645Z" fill="#F7FCFF"/>
<path fill-rule="evenodd" clip-rule="evenodd" d="M8.80805 10.1652L8.11035 10.8555C8.11035 10.8555 8.71201 11.224 9.84594 11.224C10.9799 11.224 11.6402 10.8555 11.6402 10.8555L11.1098 10.1652C11.1098 10.1652 10.3871 10.4452 9.87526 10.4452C9.36341 10.4452 8.80805 10.1652 8.80805 10.1652Z" fill="#F7FCFF"/>
<path d="M8.82275 10.6057C8.82275 10.6057 9.41345 10.7451 9.86628 10.7451C10.3191 10.7451 10.9098 10.6057 10.9098 10.6057" stroke="#C00001" stroke-width="0.5"/>
<path fill-rule="evenodd" clip-rule="evenodd" d="M10.4574 5.91154C10.4574 6.18481 10.2079 6.40633 9.90001 6.40633C9.59215 6.40633 9.34258 6.18481 9.34258 5.91154C9.34258 5.63827 9.59215 5.41675 9.90001 5.41675C10.2079 5.41675 10.4574 5.63827 10.4574 5.91154ZM9.90001 6.40633H9.29989L9.1346 6.53302H9.10238V5.54258H8.79833V6.53302H8.53177V6.70194H8.79833V8.48795C8.76227 8.77325 8.67894 8.93456 8.56214 8.9906L7.94141 9.28843H11.6773L11.4088 9.02015C11.173 8.78453 11.0603 8.60333 11.0603 8.49786V6.70194H11.1669V6.53302H11.0603V5.54258H10.7562V6.53302H10.658L10.462 6.40633H9.90001ZM9.10238 6.70194H10.7562V8.49786C10.7562 8.6427 10.8247 8.79988 10.9585 8.97593H8.97697C9.03817 8.85274 9.07909 8.69917 9.10238 8.50758V6.70194ZM9.95069 7.50008H9.2919V8.80216H10.6095L9.95069 7.50008Z" fill="#F7FCFF"/>
<path fill-rule="evenodd" clip-rule="evenodd" d="M10.6313 3.84766L10.6325 3.84955L10.6322 3.84883L10.6313 3.84766ZM11.5946 4.18617L11.5952 4.19198L11.5948 4.18775L11.5946 4.18617ZM11.7817 4.20923L11.7826 4.20638L11.7822 4.20778L11.7817 4.20923ZM11.0243 4.59277L11.0279 4.59274L11.0262 4.59296L11.0243 4.59277Z" fill="#F7FCFF"/>
<path fill-rule="evenodd" clip-rule="evenodd" d="M8.0209 6.6676L7.89636 6.75722L8.02476 6.94569C7.91476 6.98516 7.7379 7.08513 7.7379 7.32005C7.7379 7.661 7.61816 7.94032 7.61816 7.94032L7.9758 8.17C7.9758 8.17 8.01311 7.77235 8.11045 7.5462C8.15926 7.43281 8.23525 7.37627 8.29889 7.34808L8.85483 8.16411L8.97936 8.07449L8.0209 6.6676Z" fill="#F7FCFF"/>
<path fill-rule="evenodd" clip-rule="evenodd" d="M11.8194 6.6676L11.944 6.75722L11.8156 6.94569C11.9256 6.98516 12.1024 7.08513 12.1024 7.32005C12.1024 7.661 12.2222 7.94032 12.2222 7.94032L11.8645 8.17C11.8645 8.17 11.8272 7.77235 11.7299 7.5462C11.6811 7.43281 11.6051 7.37627 11.5414 7.34808L10.9855 8.16411L10.861 8.07449L11.8194 6.6676Z" fill="#F7FCFF"/>
</g>
</svg>
