<svg width="20" height="15" viewBox="0 0 20 15" fill="none" xmlns="http://www.w3.org/2000/svg">
<g clip-path="url(#clip0_14_528)">
<path fill-rule="evenodd" clip-rule="evenodd" d="M0 0H20V15H0V0Z" fill="black"/>
<path fill-rule="evenodd" clip-rule="evenodd" d="M13.3344 0H20V15H13.3344V0Z" fill="#009900"/>
<path fill-rule="evenodd" clip-rule="evenodd" d="M6.66565 0H13.3344V15H6.66565V0Z" fill="#BF0000"/>
<path fill-rule="evenodd" clip-rule="evenodd" d="M10.6492 8.35718H10.925C10.925 8.46352 10.9915 8.57652 11.0746 8.63966H10.5428C10.6259 8.56655 10.6492 8.47349 10.6492 8.35718Z" fill="white" stroke="#BD6B00" stroke-width="0.0265865"/>
<path fill-rule="evenodd" clip-rule="evenodd" d="M8.89453 6.78527L9.0474 6.95144L10.9417 6.95808L11.0946 6.79192L10.6094 6.78195L10.3767 6.61578H9.61237L9.39303 6.78527H8.89453Z" fill="white"/>
<path fill-rule="evenodd" clip-rule="evenodd" d="M9.66884 6.59253H10.3235C10.4099 6.546 10.4398 6.39645 10.4398 6.31337C10.4398 6.06745 10.2637 5.94781 10.0909 5.94116C10.0643 5.94116 10.0344 5.92122 10.0278 5.89796C10.0111 5.84478 10.0145 5.80823 9.99452 5.81155C9.98123 5.81155 9.98455 5.84478 9.97126 5.89131C9.96129 5.9179 9.9347 5.94116 9.90479 5.94448C9.6921 5.95445 9.55252 6.11065 9.55584 6.31337C9.55917 6.4463 9.57578 6.52606 9.66884 6.59253Z" fill="white" stroke="#BD6B00" stroke-width="0.0265865"/>
<path fill-rule="evenodd" clip-rule="evenodd" d="M8.59543 8.92214H11.397L11.1477 8.71942H8.84135L8.5921 8.92214H8.59543Z" fill="white"/>
<path fill-rule="evenodd" clip-rule="evenodd" d="M9.88156 8.15444L9.93141 8.30732H10.0477L9.95467 8.15444H9.88156ZM9.8151 8.30732L9.84833 8.46019H9.98126L9.93141 8.30732H9.8151ZM10.0477 8.30732L10.1408 8.46019H10.3369L10.184 8.30732H10.0477ZM8.90118 8.65294C9.00421 8.55656 9.07067 8.4768 9.07067 8.36049H9.32325C9.32325 8.42695 9.34651 8.46351 9.38306 8.46019H9.63896V8.31064H9.45285V7.48978C9.44621 7.19733 9.80513 7.03116 9.95135 7.03116H9.07732V7.00458H10.9151V7.03116H10.0344C10.297 7.03116 10.5495 7.28041 10.5529 7.48978V7.72241H10.5196L10.5163 7.4931C10.5163 7.2638 10.2272 7.0511 9.99455 7.05775C9.79515 7.06107 9.48276 7.25383 9.48609 7.48978V7.56289L9.96132 7.56622L9.958 7.6493L10.0311 7.69583L10.1807 7.74235V7.86864L10.287 7.89855V8.02151L10.4133 8.07801V8.20429L10.4964 8.25414L10.4931 8.38375L10.6027 8.46019H10.3435L10.5063 8.64297H10.2637L10.1441 8.46019H9.98791L10.0577 8.63965H9.89153L9.84833 8.46019H9.64228V8.65294H8.90451H8.90118ZM9.63896 8.15444V8.30732H9.8151L9.78186 8.15444H9.63564H9.63896Z" fill="white"/>
<path d="M9.93141 8.30732L9.88156 8.15444H9.95467L10.0477 8.30732M9.93141 8.30732H10.0477M9.93141 8.30732L9.98126 8.46019H9.84833M9.93141 8.30732H9.8151M10.0477 8.30732L10.1408 8.46019H10.3369L10.184 8.30732H10.0477ZM9.8151 8.30732L9.84833 8.46019M9.8151 8.30732H9.63896V8.15444H9.63564H9.78186L9.8151 8.30732ZM9.84833 8.46019L9.89153 8.63965H10.0577L9.98791 8.46019H10.1441L10.2637 8.64297H10.5063L10.3435 8.46019H10.6027L10.4931 8.38375L10.4964 8.25414L10.4133 8.20429V8.07801L10.287 8.02151V7.89855L10.1807 7.86864V7.74235L10.0311 7.69583L9.958 7.6493L9.96132 7.56622L9.48609 7.56289V7.48978C9.48276 7.25383 9.79515 7.06107 9.99455 7.05775C10.2272 7.0511 10.5163 7.2638 10.5163 7.4931L10.5196 7.72241H10.5529V7.48978C10.5495 7.28041 10.297 7.03116 10.0344 7.03116H10.9151V7.00458H9.07732V7.03116H9.95135C9.80513 7.03116 9.44621 7.19733 9.45285 7.48978V8.31064H9.63896V8.46019H9.38306C9.34651 8.46351 9.32325 8.42695 9.32325 8.36049H9.07067C9.07067 8.4768 9.00421 8.55656 8.90118 8.65294H8.90451H9.64228V8.46019H9.84833Z" stroke="#BD6B00" stroke-width="0.0265865"/>
<path fill-rule="evenodd" clip-rule="evenodd" d="M9.64893 7.88861H9.7586V8.14118H9.64893V7.88861Z" stroke="#BD6B00" stroke-width="0.0265865"/>
<path fill-rule="evenodd" clip-rule="evenodd" d="M9.49268 8.15782H9.59902V7.97171C9.59902 7.89195 9.67213 7.80887 9.70537 7.80555C9.74525 7.80555 9.80174 7.88198 9.80507 7.96507V8.15782H9.91806V7.67926H9.49268V8.15782ZM10.3434 8.26749H10.4764V8.37383H10.3434V8.26749ZM10.2637 8.09135H10.3966V8.19437H10.2637V8.09135ZM10.1341 7.91189H10.267V8.01492H10.1341V7.91189ZM10.0244 7.76234H10.1573V7.86537H10.0244V7.76234Z" stroke="#BD6B00" stroke-width="0.0265865"/>
<path fill-rule="evenodd" clip-rule="evenodd" d="M9.93469 8.15779L10.0743 8.16444L10.3169 8.37713V8.25084L10.2338 8.19102V8.09132L10.1142 8.02486V7.91519L9.99784 7.87531V7.73241L9.94134 7.68256L9.93802 8.16111L9.93469 8.15779Z" stroke="#BD6B00" stroke-width="0.0265865"/>
<path fill-rule="evenodd" clip-rule="evenodd" d="M10.5129 7.8421H10.5462V8.07806H10.5129V7.8421Z" fill="white" stroke="#BD6B00" stroke-width="0.0265865"/>
<path fill-rule="evenodd" clip-rule="evenodd" d="M8.58216 7.05118C8.54228 6.98471 8.49243 7.14423 8.32294 7.26055C8.24651 7.31372 8.19001 7.45662 8.19001 7.54967C8.19001 7.61614 8.19666 7.67928 8.19001 7.74243C8.18669 7.77898 8.14349 7.86871 8.17339 7.89198C8.24651 7.94515 8.34288 8.07143 8.38609 8.11464C8.42597 8.14787 8.4592 7.9385 8.48579 7.84877C8.51902 7.74907 8.50573 7.62611 8.59213 7.53638C8.65195 7.46992 8.80482 7.4101 8.79153 7.38351L8.58216 7.05118Z" fill="white" stroke="#BD6B00" stroke-width="0.0265865"/>
<path fill-rule="evenodd" clip-rule="evenodd" d="M8.57216 7.56294C8.55896 7.53159 8.54103 7.50245 8.51899 7.47653C8.4978 7.45027 8.47038 7.4297 8.43923 7.41671C8.40862 7.40764 8.38105 7.3904 8.35947 7.36687C8.34675 7.35261 8.33764 7.33552 8.33288 7.31702C8.3291 7.29502 8.3291 7.27254 8.33288 7.25055L8.32291 7.26052C8.24648 7.31369 8.18998 7.45659 8.18998 7.54965C8.18895 7.57512 8.18895 7.60062 8.18998 7.62608C8.19663 7.6427 8.19995 7.65932 8.20992 7.66929L8.24648 7.69587L8.33621 7.71914C8.3698 7.73424 8.39939 7.75701 8.42261 7.7856C8.4468 7.81122 8.46697 7.84035 8.48243 7.87201L8.48908 7.84542C8.51566 7.75569 8.51234 7.64935 8.57548 7.56294H8.57216Z" fill="#BF0000" stroke="#BD6B00" stroke-width="0.0265865"/>
<path d="M8.3329 7.24725C8.31628 7.35692 8.37942 7.3968 8.43924 7.41674C8.49906 7.44001 8.54891 7.50315 8.57218 7.56297M8.18335 7.61282C8.20994 7.71252 8.2764 7.69922 8.33622 7.71916C8.39604 7.74243 8.45918 7.81886 8.48577 7.87868" stroke="#BD6B00" stroke-width="0.0265865"/>
<path fill-rule="evenodd" clip-rule="evenodd" d="M8.52563 6.98466L8.55887 6.96472L9.14709 7.95839L9.11386 7.97833L8.52563 6.98134V6.98466Z" fill="white" stroke="#BD6B00" stroke-width="0.0265865"/>
<path fill-rule="evenodd" clip-rule="evenodd" d="M8.5888 6.94479C8.5888 6.96242 8.5818 6.97933 8.56934 6.99179C8.55687 7.00426 8.53997 7.01126 8.52234 7.01126C8.50471 7.01126 8.4878 7.00426 8.47534 6.99179C8.46287 6.97933 8.45587 6.96242 8.45587 6.94479C8.45587 6.92716 8.46287 6.91026 8.47534 6.89779C8.4878 6.88533 8.50471 6.87833 8.52234 6.87833C8.53997 6.87833 8.55687 6.88533 8.56934 6.89779C8.5818 6.91026 8.5888 6.92716 8.5888 6.94479ZM9.09395 6.1472H9.33323V6.20037H9.09395V6.1472ZM9.09395 6.25022H9.33323V6.70884H9.09395V6.25022ZM9.08065 6.08405H9.34652C9.35317 5.99432 9.26344 5.89795 9.21359 5.89795C9.16041 5.90127 9.07733 5.99765 9.08065 6.08405Z" fill="white" stroke="#BD6B00" stroke-width="0.0265865"/>
<path fill-rule="evenodd" clip-rule="evenodd" d="M9.75522 6.03092C9.70537 6.05086 9.66549 6.10736 9.64223 6.17382C9.61896 6.24029 9.60899 6.31673 9.62229 6.37655C9.62229 6.39981 9.63226 6.4131 9.6389 6.4264C9.64555 6.43637 9.6522 6.44301 9.65884 6.44301C9.66881 6.44301 9.67878 6.44301 9.68211 6.43304L9.68875 6.40646C9.68543 6.33999 9.68543 6.28017 9.69872 6.227C9.71351 6.16795 9.74886 6.1161 9.79842 6.08077C9.80839 6.07413 9.81172 6.06416 9.81504 6.05751C9.81491 6.04874 9.81133 6.04038 9.80507 6.03425C9.79178 6.02428 9.77184 6.02095 9.75522 6.03092ZM9.76187 6.04422C9.77516 6.03757 9.78845 6.04422 9.7951 6.04754L9.79842 6.05419C9.79842 6.05751 9.79842 6.06083 9.78845 6.06748C9.7374 6.10492 9.70097 6.15897 9.68543 6.22035C9.67164 6.28138 9.66827 6.3443 9.67546 6.40646C9.67546 6.41365 9.67313 6.42064 9.66881 6.4264C9.66881 6.4264 9.66881 6.42972 9.66217 6.4264C9.66217 6.4264 9.65552 6.4264 9.64887 6.41643C9.6423 6.40394 9.63781 6.39047 9.63558 6.37655C9.62561 6.31673 9.63558 6.24361 9.65884 6.17715C9.68211 6.11733 9.71866 6.06416 9.75854 6.04422H9.76187Z" fill="#BD6B00"/>
<path fill-rule="evenodd" clip-rule="evenodd" d="M9.84163 6.09403C9.79178 6.1173 9.75855 6.17047 9.74193 6.23361C9.72428 6.29745 9.72088 6.36439 9.73196 6.42969C9.73861 6.47289 9.76519 6.49616 9.78513 6.49616C9.7951 6.49948 9.80507 6.49616 9.81172 6.48619C9.81836 6.47622 9.82169 6.46625 9.81837 6.45295C9.80507 6.39978 9.80175 6.33996 9.8084 6.28346C9.81837 6.22697 9.84163 6.17712 9.88151 6.14721C9.89148 6.13724 9.89812 6.13059 9.89812 6.12062C9.89843 6.11702 9.898 6.11339 9.89686 6.10997C9.89571 6.10654 9.89388 6.10338 9.89148 6.10068C9.87819 6.09071 9.85825 6.08739 9.84163 6.09403ZM9.84827 6.11065C9.86157 6.104 9.87486 6.10733 9.88151 6.11065L9.88483 6.12062L9.87486 6.13391C9.85255 6.1518 9.83401 6.17393 9.82032 6.19903C9.80663 6.22413 9.79806 6.2517 9.7951 6.28014C9.78513 6.33996 9.79178 6.4031 9.80175 6.45295C9.80507 6.46625 9.80175 6.47289 9.80175 6.47954L9.78513 6.48286C9.77516 6.48286 9.7519 6.46625 9.74525 6.42637C9.73528 6.36987 9.73861 6.29676 9.75522 6.23694C9.77184 6.17712 9.80507 6.12727 9.84827 6.11065Z" fill="#BD6B00"/>
<path fill-rule="evenodd" clip-rule="evenodd" d="M9.08068 7.08105H9.34654V7.44662H9.08068V7.08105ZM9.09729 7.65931H9.35319V7.73907H9.09729V7.65931ZM9.09065 7.79557H9.35651V8.0847H9.09065V7.79557ZM9.07071 8.14451H9.35983V8.30736H9.07071V8.14451ZM9.10726 7.59285H9.33989L9.38642 7.51309H9.06738L9.10726 7.59285ZM9.41965 7.30704L9.42298 7.10764H9.5825C9.51392 7.16103 9.45826 7.22918 9.41965 7.30704Z" fill="white" stroke="#BD6B00" stroke-width="0.0265865"/>
<path fill-rule="evenodd" clip-rule="evenodd" d="M9.12378 7.3901C9.12378 7.43331 9.17363 7.41669 9.17363 7.39343V7.20732C9.17363 7.17409 9.25339 7.18073 9.25339 7.204V7.4034C9.25339 7.43663 9.30988 7.43331 9.30656 7.4034V7.17076C9.30656 7.09765 9.12378 7.10097 9.12378 7.16744V7.3901ZM9.12378 7.8321H9.31321V8.06474H9.12378V7.8321Z" stroke="#BD6B00" stroke-width="0.0265865"/>
<path fill-rule="evenodd" clip-rule="evenodd" d="M9.24349 7.93183H9.30996V7.96506H9.24349V7.93183ZM9.12718 7.93183H9.19364V7.96506H9.12718V7.93183ZM9.19364 7.83213H9.24349V7.93183H9.19364V7.83213ZM9.19364 7.96506H9.24349V8.06809H9.19364V7.96506ZM8.14015 5.47258C8.15344 5.65536 8.09362 5.75838 7.99725 5.74177C7.97066 5.64207 8.03048 5.57228 8.14015 5.47258ZM7.92414 5.88135C7.83773 5.83814 7.90087 5.49916 7.93411 5.35626C7.95737 5.53904 8.00057 5.79826 7.92414 5.88135Z" fill="white"/>
<path d="M9.24349 7.93183H9.30996V7.96506H9.24349M9.24349 7.93183V7.96506M9.24349 7.93183V7.83213H9.19364V7.93183M9.24349 7.93183H9.19364M9.24349 7.96506H9.19364M9.24349 7.96506V8.06809H9.19364V7.96506M9.19364 7.93183H9.12718V7.96506H9.19364M9.19364 7.93183V7.96506M8.14015 5.47258C8.15344 5.65536 8.09362 5.75838 7.99725 5.74177C7.97066 5.64207 8.03048 5.57228 8.14015 5.47258ZM7.92414 5.88135C7.83773 5.83814 7.90087 5.49916 7.93411 5.35626C7.95737 5.53904 8.00057 5.79826 7.92414 5.88135Z" stroke="#BD6B00" stroke-width="0.0265865"/>
<path fill-rule="evenodd" clip-rule="evenodd" d="M7.95402 5.89795C8.10025 5.9478 8.21989 5.7916 8.25644 5.60882C8.13681 5.77498 7.94073 5.77498 7.95735 5.89795H7.95402ZM7.84435 6.06744C7.73136 6.03753 7.79783 5.67861 7.82109 5.53571C7.84435 5.68525 7.92411 6.01759 7.84435 6.06744ZM7.88423 6.05747C7.89088 5.9345 8.01384 5.96774 8.10025 5.90127C8.08363 5.96774 8.03378 6.07408 7.88423 6.05747ZM7.74465 6.22363C7.63166 6.1904 7.69813 5.80489 7.69148 5.64537C7.72471 5.78495 7.83106 6.18708 7.74465 6.22363ZM7.79783 6.20702C7.89088 6.23692 8.01384 6.17378 8.02381 6.06411C7.94073 6.12061 7.81444 6.07741 7.79783 6.20702Z" fill="white" stroke="#BD6B00" stroke-width="0.0265865"/>
<path fill-rule="evenodd" clip-rule="evenodd" d="M7.65827 6.39315C7.55192 6.40312 7.59845 6.07412 7.59845 5.76837C7.63833 6.05418 7.748 6.31672 7.65827 6.39315Z" fill="white" stroke="#BD6B00" stroke-width="0.0265865"/>
<path fill-rule="evenodd" clip-rule="evenodd" d="M7.69812 6.37987C7.77123 6.4131 7.90084 6.3566 7.9374 6.23364C7.80447 6.29014 7.71806 6.23364 7.69812 6.37987ZM8.54889 5.64209C8.52895 5.80493 8.46248 5.89798 8.36611 5.88137C8.33952 5.78167 8.41928 5.7152 8.54889 5.64209ZM8.28967 6.05418C8.45251 6.07744 8.50901 5.95448 8.622 5.79164C8.46581 5.90463 8.28302 5.92457 8.28967 6.0575V6.05418Z" fill="white" stroke="#BD6B00" stroke-width="0.0265865"/>
<path fill-rule="evenodd" clip-rule="evenodd" d="M8.23986 6.03754C8.15346 5.93119 8.23986 5.79494 8.30633 5.68195C8.29304 5.85143 8.34953 5.94781 8.23986 6.03754ZM8.20663 6.21368C8.19334 6.10733 8.3728 6.08407 8.45256 6.02757C8.42265 6.08739 8.38609 6.25023 8.20331 6.21368H8.20663Z" fill="white" stroke="#BD6B00" stroke-width="0.0265865"/>
<path fill-rule="evenodd" clip-rule="evenodd" d="M8.16672 6.21371C8.04376 6.20041 8.09361 5.99104 8.18334 5.87805C8.14678 6.03757 8.24981 6.14724 8.16672 6.21371Z" fill="white" stroke="#BD6B00" stroke-width="0.0265865"/>
<path fill-rule="evenodd" clip-rule="evenodd" d="M8.07368 6.38979C7.9341 6.32332 8.02383 6.15051 8.07368 6.04749C8.05374 6.18374 8.16673 6.28676 8.07368 6.38646V6.38979Z" fill="white" stroke="#BD6B00" stroke-width="0.0265865"/>
<path fill-rule="evenodd" clip-rule="evenodd" d="M8.10023 6.36989C8.17334 6.46959 8.31625 6.34331 8.34615 6.19708C8.22319 6.30011 8.13014 6.28349 8.10023 6.37322V6.36989ZM7.78119 7.04453C7.7679 6.90162 7.87424 6.64573 7.79781 6.50615C7.78784 6.48621 7.82107 6.43636 7.84434 6.46627C7.87757 6.51612 7.9108 6.6557 7.92742 6.60253C7.94071 6.54603 7.94403 6.44965 7.99388 6.42971C8.02712 6.41974 8.07032 6.40977 8.05703 6.46295C8.04373 6.50947 8.01715 6.57594 8.04706 6.57926C8.06367 6.57926 8.11352 6.5128 8.15673 6.47956C8.18996 6.45298 8.24313 6.4995 8.18996 6.53938C8.03044 6.67232 7.87424 6.73546 7.78119 7.04453ZM7.49206 9.18806C7.47212 9.18806 7.44886 9.17809 7.47212 9.208C7.66155 9.44064 7.71473 9.5071 7.99056 9.47387C8.2664 9.43731 8.33286 9.36088 8.52894 9.25121C8.5857 9.22134 8.64783 9.20302 8.71171 9.19732C8.7756 9.19161 8.83999 9.19863 8.90115 9.21797C8.95432 9.23459 8.98755 9.23459 8.94767 9.19471C8.90779 9.15815 8.86459 9.10498 8.81474 9.06842C8.69077 8.9855 8.53967 8.95338 8.39268 8.97869C8.19328 9.01193 8.02379 9.14154 7.82107 9.19139C7.7125 9.21332 7.60064 9.21332 7.49206 9.19139V9.18806ZM9.08061 9.60348C9.11384 9.61012 9.1371 9.67659 9.15704 9.63339C9.18363 9.55695 9.16369 9.50045 9.13046 9.50378C9.09058 9.51375 9.02743 9.60348 9.08061 9.60348Z" fill="white" stroke="#BD6B00" stroke-width="0.0265865"/>
<path fill-rule="evenodd" clip-rule="evenodd" d="M7.36246 6.93486C7.32258 6.88834 7.33255 6.87504 7.3957 6.87172C7.44222 6.87172 7.53528 6.90495 7.57183 6.87504C7.60507 6.85178 7.58845 6.75208 7.60507 6.70888C7.61171 6.67897 7.62833 6.64241 7.67153 6.70223C7.79117 6.89498 7.9374 7.12761 8.00386 7.3536C8.0371 7.47989 8.00386 7.67928 7.89087 7.81222C7.89087 7.69922 7.85099 7.62279 7.80114 7.52641C7.73468 7.40345 7.49872 7.06115 7.36246 6.93154V6.93486Z" fill="white"/>
<path fill-rule="evenodd" clip-rule="evenodd" d="M7.85763 7.9451C7.99056 7.9451 8.01383 7.76897 8.01383 7.71912C7.94736 7.73241 7.83437 7.84208 7.85763 7.9451ZM9.00417 9.6699C9.09723 9.68984 9.0939 9.46386 8.99753 9.36748C9.04073 9.51371 8.93106 9.64664 9.00085 9.66658L9.00417 9.6699ZM8.96429 9.66658C8.97094 9.77292 8.69843 9.65328 8.63196 9.56688C8.79148 9.63667 8.95765 9.58017 8.96429 9.66658ZM8.84798 9.5137C8.85795 9.61673 8.61535 9.52367 8.53891 9.44392C8.70175 9.49709 8.83801 9.4273 8.84798 9.51038V9.5137ZM8.89118 9.527C8.98756 9.55026 8.97094 9.31431 8.87789 9.23455C8.92441 9.39074 8.81807 9.50373 8.89118 9.527ZM8.79148 9.3841C8.88786 9.40736 8.83136 9.20464 8.76157 9.12488C8.77487 9.2711 8.72834 9.37413 8.79481 9.3841H8.79148ZM8.74163 9.3841C8.7516 9.49044 8.56217 9.41068 8.48906 9.30766C8.64858 9.35751 8.73166 9.29769 8.74163 9.3841ZM8.69178 9.30101C8.7516 9.25781 8.68846 9.14149 8.56882 9.14814C8.58211 9.21793 8.62199 9.34422 8.69178 9.30101ZM9.15705 9.78954C9.16037 9.89589 8.89118 9.84271 8.80477 9.72972C8.97759 9.76295 9.14708 9.70313 9.15372 9.78954H9.15705ZM8.08029 9.59679C8.09026 9.70313 7.79449 9.58349 7.72137 9.4838C7.87757 9.53697 8.07032 9.51038 8.08029 9.59679ZM8.25975 9.63999C8.32289 9.59679 8.19661 9.48379 8.09359 9.45721C8.10688 9.527 8.19329 9.68319 8.25975 9.64331V9.63999ZM8.27969 9.71643C8.28634 9.8128 7.96398 9.75963 7.88089 9.6699C8.15673 9.71975 8.26972 9.63334 8.27969 9.71643Z" fill="white" stroke="#BD6B00" stroke-width="0.0265865"/>
<path fill-rule="evenodd" clip-rule="evenodd" d="M8.43256 9.77957C8.4658 9.8693 8.15673 9.84604 8.04706 9.79619C8.22319 9.79619 8.40598 9.71643 8.43256 9.77957Z" fill="white" stroke="#BD6B00" stroke-width="0.0265865"/>
<path fill-rule="evenodd" clip-rule="evenodd" d="M8.5755 9.84607C8.60873 9.92583 8.32293 9.92583 8.18335 9.8793C8.36946 9.8793 8.54227 9.76631 8.5755 9.84607ZM8.78487 9.88927C8.83804 9.98565 8.5323 9.99229 8.43592 9.94577C8.60873 9.9225 8.74167 9.81283 8.78487 9.88927ZM8.42927 9.72643C8.3329 9.78625 8.33955 9.60679 8.26311 9.48383C8.38275 9.59349 8.49574 9.66993 8.42927 9.72643Z" fill="white" stroke="#BD6B00" stroke-width="0.0265865"/>
<path fill-rule="evenodd" clip-rule="evenodd" d="M8.6021 9.7929C8.52234 9.86269 8.45588 9.61677 8.38277 9.47719C8.5024 9.61012 8.67522 9.73308 8.6021 9.78958V9.7929ZM8.82809 9.85937C8.76162 9.93913 8.56222 9.62674 8.48911 9.46057C8.59878 9.59018 8.88126 9.7929 8.82809 9.85937ZM8.63534 10.0986C8.6021 10.2183 8.09696 9.98566 8.03714 9.86269C8.32959 10.0156 8.64198 9.98233 8.63534 10.0953V10.0986ZM7.01688 7.64604C7.00359 7.62943 6.97036 7.64604 6.977 7.6826C6.98697 7.73245 7.06009 7.98835 7.18637 8.07475C7.2761 8.14122 7.75134 8.24424 7.96403 8.29077C8.08367 8.31403 8.18004 8.37385 8.2598 8.4669C8.23249 8.35662 8.19921 8.24789 8.1601 8.14122C8.12022 8.04152 8.01388 7.93517 7.90089 7.93185C7.69816 7.92188 7.4323 7.90526 7.23622 7.82218C7.14741 7.78473 7.07045 7.72385 7.01356 7.64604H7.01688Z" fill="white" stroke="#BD6B00" stroke-width="0.0265865"/>
<path fill-rule="evenodd" clip-rule="evenodd" d="M8.18998 8.65964C8.25645 8.70617 8.32623 8.53668 8.24648 8.37384C8.24315 8.53004 8.12019 8.58321 8.18998 8.65964Z" fill="white" stroke="#BD6B00" stroke-width="0.0265865"/>
<path fill-rule="evenodd" clip-rule="evenodd" d="M8.2531 8.81586C8.34283 8.84245 8.36942 8.68293 8.31292 8.55664C8.32289 8.6929 8.17002 8.77598 8.2531 8.81586Z" fill="white" stroke="#BD6B00" stroke-width="0.0265865"/>
<path fill-rule="evenodd" clip-rule="evenodd" d="M8.32291 8.94213C8.40932 8.98533 8.43923 8.82249 8.37941 8.70618C8.38606 8.85573 8.25645 8.90225 8.32291 8.93881V8.94213Z" fill="white" stroke="#BD6B00" stroke-width="0.0265865"/>
<path fill-rule="evenodd" clip-rule="evenodd" d="M8.28637 8.95209C8.25314 9.05179 8.05374 8.86236 8.02051 8.75934C8.14347 8.8823 8.30964 8.86568 8.28637 8.94877V8.95209Z" fill="white" stroke="#BD6B00" stroke-width="0.0265865"/>
<path fill-rule="evenodd" clip-rule="evenodd" d="M8.19664 8.7959C8.15676 8.8956 7.90751 8.62974 7.85101 8.50677C7.97398 8.62974 8.22322 8.72279 8.19664 8.79258V8.7959Z" fill="white" stroke="#BD6B00" stroke-width="0.0265865"/>
<path fill-rule="evenodd" clip-rule="evenodd" d="M8.14676 8.63966C8.10688 8.75598 7.83769 8.44691 7.75793 8.33724C7.89087 8.45688 8.17667 8.55658 8.14676 8.63966ZM8.13679 8.52667C8.23649 8.50673 8.13347 8.42697 8.01383 8.29736C8.01051 8.43362 8.03045 8.52999 8.13679 8.52667Z" fill="white" stroke="#BD6B00" stroke-width="0.0265865"/>
<path fill-rule="evenodd" clip-rule="evenodd" d="M7.97398 8.44694C8.01718 8.40374 7.93742 8.3838 7.83772 8.2708C7.8211 8.34724 7.93077 8.48682 7.9773 8.44694H7.97398ZM8.43924 8.95208C8.49241 8.98532 8.52565 8.87565 8.4625 8.77927C8.44589 8.88562 8.39271 8.9122 8.43924 8.95208ZM7.30267 8.27745C7.193 8.34392 7.01686 8.07805 6.97034 7.96838C7.06671 8.09467 7.32261 8.20766 7.30267 8.27745Z" fill="white" stroke="#BD6B00" stroke-width="0.0265865"/>
<path fill-rule="evenodd" clip-rule="evenodd" d="M7.39902 8.43032C7.33588 8.49678 7.14313 8.314 7.07666 8.22095C7.17636 8.31068 7.42561 8.32065 7.39902 8.43032Z" fill="white" stroke="#BD6B00" stroke-width="0.0265865"/>
<path fill-rule="evenodd" clip-rule="evenodd" d="M7.50204 8.5699C7.4821 8.66295 7.20294 8.45358 7.13647 8.35388C7.25611 8.4702 7.52198 8.46023 7.50204 8.5699Z" fill="white" stroke="#BD6B00" stroke-width="0.0265865"/>
<path fill-rule="evenodd" clip-rule="evenodd" d="M7.45883 8.67295C7.41563 8.75604 7.18632 8.54667 7.12982 8.44032C7.27272 8.55996 7.49539 8.58987 7.46215 8.67295H7.45883ZM7.34251 8.26419C7.4123 8.18775 7.38239 8.15119 7.32922 8.03156C7.30263 8.15452 7.25943 8.20437 7.34251 8.26419ZM7.43889 8.40709C7.57182 8.41374 7.43889 8.25422 7.40566 8.11796C7.41895 8.27083 7.37242 8.3938 7.43889 8.40709Z" fill="white" stroke="#BD6B00" stroke-width="0.0265865"/>
<path fill-rule="evenodd" clip-rule="evenodd" d="M7.522 8.53335C7.61173 8.51341 7.58846 8.3838 7.51535 8.2276C7.53197 8.39709 7.43891 8.49347 7.522 8.53335ZM7.48876 8.78924C7.45553 8.88894 7.19631 8.65631 7.15643 8.56325C7.28937 8.67625 7.51203 8.7128 7.48876 8.78924Z" fill="white" stroke="#BD6B00" stroke-width="0.0265865"/>
<path fill-rule="evenodd" clip-rule="evenodd" d="M7.64496 8.94877C7.6084 9.04847 7.33589 8.84242 7.25281 8.72943C7.41565 8.86236 7.6649 8.84907 7.64496 8.94877Z" fill="white" stroke="#BD6B00" stroke-width="0.0265865"/>
<path fill-rule="evenodd" clip-rule="evenodd" d="M7.80449 9.11162C7.76128 9.25452 7.47548 9.02521 7.3924 8.91222C7.57185 9.0518 7.82443 9.01192 7.80449 9.11162ZM7.53862 8.74606C7.61506 8.78261 7.64497 8.5666 7.60176 8.4104C7.60176 8.57657 7.44557 8.70285 7.5353 8.74273L7.53862 8.74606Z" fill="white" stroke="#BD6B00" stroke-width="0.0265865"/>
<path fill-rule="evenodd" clip-rule="evenodd" d="M7.66825 8.91888C7.76131 8.94547 7.73472 8.70951 7.65164 8.55332C7.64167 8.70951 7.5752 8.85241 7.66825 8.91888ZM7.83442 9.08172C7.93412 9.08505 7.86765 8.879 7.78125 8.76268C7.79454 8.91223 7.74801 9.06178 7.83442 9.08172ZM7.65164 9.16813C7.61841 9.2213 7.54529 9.12493 7.41901 9.05181C7.532 9.08505 7.66493 9.11828 7.65164 9.16813ZM7.59182 7.41674C7.69152 7.34363 7.61508 7.2107 7.59182 7.08441C7.55859 7.20405 7.47883 7.36357 7.59182 7.41674ZM7.59182 7.59288C7.44227 7.57626 7.46553 7.39016 7.45889 7.27052C7.50541 7.43336 7.62505 7.45995 7.59182 7.5962V7.59288ZM7.61176 7.56962C7.73472 7.56297 7.72807 7.42339 7.73472 7.28381C7.67158 7.41342 7.60179 7.43336 7.61176 7.56962Z" fill="white" stroke="#BD6B00" stroke-width="0.0265865"/>
<path fill-rule="evenodd" clip-rule="evenodd" d="M7.60843 7.74242C7.50873 7.75239 7.4622 7.65601 7.44226 7.50979C7.53199 7.64604 7.61175 7.60284 7.60843 7.74242ZM7.64166 7.73245C7.76462 7.74907 7.74136 7.60616 7.74136 7.49982C7.70148 7.59952 7.60178 7.63275 7.64166 7.73245Z" fill="white" stroke="#BD6B00" stroke-width="0.0265865"/>
<path fill-rule="evenodd" clip-rule="evenodd" d="M7.44891 7.67261C7.45888 7.76566 7.5187 7.92518 7.61508 7.88862C7.65164 7.77563 7.52867 7.75237 7.44891 7.67261Z" fill="white" stroke="#BD6B00" stroke-width="0.0265865"/>
<path fill-rule="evenodd" clip-rule="evenodd" d="M7.64161 7.89862C7.60173 7.81886 7.74131 7.77566 7.7679 7.66931C7.78451 7.82218 7.77122 7.92188 7.64161 7.90194V7.89862ZM7.24614 6.92821C7.32257 6.84845 7.25611 6.71552 7.23284 6.58923C7.19961 6.70887 7.14976 6.86839 7.24614 6.92821ZM7.24614 7.08108C7.1132 7.0977 7.07997 6.82519 7.06335 6.70555C7.10988 6.86839 7.26275 6.93818 7.24614 7.08441V7.08108ZM7.27272 7.08108C7.36578 7.03123 7.34584 6.92489 7.37242 6.84845C7.3126 6.94483 7.25278 6.95812 7.27272 7.08108Z" fill="white" stroke="#BD6B00" stroke-width="0.0265865"/>
<path fill-rule="evenodd" clip-rule="evenodd" d="M7.24283 7.26054C7.10658 7.27051 7.02349 6.96809 7.01685 6.84845C7.06005 7.01129 7.26277 7.0977 7.24615 7.26054H7.24283ZM7.27274 7.25389C7.40567 7.22398 7.38906 7.13758 7.36912 7.00132C7.32591 7.1409 7.2528 7.11099 7.27274 7.25389Z" fill="white" stroke="#BD6B00" stroke-width="0.0265865"/>
<path fill-rule="evenodd" clip-rule="evenodd" d="M7.24285 7.43332C7.08998 7.4599 7.09995 7.21398 6.97699 7.03784C7.08334 7.17077 7.27609 7.33694 7.24285 7.43332ZM7.27609 7.42335C7.39573 7.42999 7.40902 7.25386 7.40237 7.18074C7.37246 7.25386 7.23621 7.32032 7.27941 7.42667L7.27609 7.42335Z" fill="white" stroke="#BD6B00" stroke-width="0.0265865"/>
<path fill-rule="evenodd" clip-rule="evenodd" d="M7.00354 7.2439C7.06004 7.43333 7.14312 7.62275 7.24282 7.60946C7.29267 7.49979 7.14644 7.4865 7.00354 7.2439Z" fill="white" stroke="#BD6B00" stroke-width="0.0265865"/>
<path fill-rule="evenodd" clip-rule="evenodd" d="M7.27941 7.57953C7.23953 7.49645 7.37911 7.45657 7.4057 7.35022C7.42231 7.50309 7.40902 7.60279 7.27941 7.57953ZM7.04346 7.45989C7.12654 7.62938 7.1631 7.82545 7.27609 7.79554C7.31929 7.66261 7.1498 7.63602 7.04346 7.45989Z" fill="white" stroke="#BD6B00" stroke-width="0.0265865"/>
<path fill-rule="evenodd" clip-rule="evenodd" d="M7.29934 7.76564C7.24949 7.67259 7.38907 7.64268 7.42562 7.51972C7.44224 7.67924 7.42562 7.79555 7.29934 7.76232V7.76564ZM7.53861 6.6191C7.61837 6.63904 7.70478 6.54931 7.67487 6.41305C7.58182 6.43299 7.54194 6.5194 7.53861 6.6191ZM7.27607 6.54931C7.28272 6.58919 7.33257 6.59251 7.31595 6.53602C7.30354 6.49937 7.30354 6.45967 7.31595 6.42302C7.33197 6.37332 7.33197 6.31985 7.31595 6.27015C7.30266 6.23692 7.25613 6.25686 7.27607 6.28344C7.29601 6.31335 7.29934 6.3765 7.28272 6.40641C7.26278 6.44961 7.26943 6.50611 7.27607 6.54931ZM8.03711 7.08104C8.00388 7.12424 7.94074 7.09433 7.99059 7.03119C8.03047 6.98134 8.09028 6.93814 8.09028 6.88496C8.09693 6.8185 8.13349 6.7188 8.17004 6.68224C8.2066 6.64568 8.2498 6.69554 8.20992 6.72212C8.16672 6.74871 8.13681 6.86835 8.14013 6.91487C8.13681 6.98134 8.07367 7.03119 8.03711 7.08104ZM7.93741 7.0046C7.90418 7.05113 7.85765 7.02122 7.88424 6.94811C7.9075 6.89826 7.91083 6.83179 7.93741 6.79523C7.97729 6.73874 8.03711 6.69221 8.07367 6.65566C8.11355 6.62242 8.14013 6.65566 8.1069 6.68889C8.06616 6.72958 8.02944 6.77409 7.99723 6.82182C7.95071 6.89493 7.97065 6.95475 7.93741 7.0046ZM7.41565 6.76532C7.41233 6.83179 7.4655 6.84508 7.46218 6.75203C7.46218 6.65233 7.38907 6.55928 7.42895 6.40973C7.45553 6.33662 7.45553 6.20036 7.44224 6.13057C7.42895 6.05746 7.37577 6.10399 7.39904 6.16048C7.41898 6.22695 7.39571 6.34659 7.3791 6.40973C7.32925 6.58919 7.41898 6.67559 7.41233 6.76532H7.41565ZM7.55856 6.39976C7.55191 6.4629 7.49874 6.46623 7.51535 6.38314C7.52865 6.31668 7.52865 6.2635 7.51535 6.20701C7.49541 6.13722 7.50206 6.01758 7.51535 5.96773C7.53197 5.91456 7.58182 5.94447 7.56188 5.98435C7.53868 6.04717 7.5352 6.11557 7.55191 6.18042C7.57185 6.24689 7.56852 6.33994 7.55856 6.40308V6.39976ZM7.04012 7.63271C7.0667 7.66262 7.10658 7.64268 7.07335 7.59948C7.04012 7.56624 7.05009 7.5596 7.03015 7.51972C7.01021 7.47319 7.01353 7.44993 6.99027 7.42002C6.96701 7.38678 6.9371 7.42002 6.95704 7.44328C6.98362 7.47651 6.97698 7.49645 6.99027 7.52636C7.0235 7.57621 7.01353 7.6028 7.04012 7.63271ZM7.71807 8.45024C7.7587 8.4727 7.79324 8.5047 7.81871 8.5435C7.84419 8.58229 7.85984 8.62671 7.8643 8.67291C7.86778 8.75566 7.89054 8.83646 7.93077 8.90886C7.8643 8.89224 7.83107 8.7859 7.8211 8.68288C7.81113 8.57653 7.75463 8.53333 7.7214 8.45024H7.71807ZM7.88756 8.64632C7.94406 8.74934 8.0205 8.78922 8.02714 8.86566C8.03379 8.95539 8.04044 8.95871 8.0637 9.04512C7.99723 9.0285 7.98062 9.02185 7.964 8.88892C7.95403 8.79587 7.87759 8.73273 7.88756 8.64632Z" fill="white" stroke="#BD6B00" stroke-width="0.0265865"/>
<path fill-rule="evenodd" clip-rule="evenodd" d="M9.63567 9.60348C9.6689 9.6633 9.70214 9.75302 9.7686 9.73641C9.7686 9.6932 9.69881 9.65997 9.63567 9.60348ZM9.73537 9.62342C9.85833 9.67659 9.968 9.6633 9.98462 9.74306C9.86498 9.75635 9.81845 9.70982 9.73205 9.62342H9.73537ZM9.20032 9.20135C9.2829 9.26555 9.34143 9.3557 9.36648 9.45725C9.39327 9.54912 9.43359 9.63648 9.48612 9.71647C9.39969 9.6584 9.33714 9.57107 9.30999 9.47054C9.28672 9.37084 9.25681 9.29441 9.20032 9.20468V9.20135ZM9.30334 9.20135C9.39639 9.27447 9.4828 9.36087 9.50939 9.4639C9.53597 9.56027 9.55259 9.63339 9.61573 9.72976C9.51603 9.66662 9.47948 9.57357 9.44957 9.47054C9.4263 9.37084 9.36648 9.29773 9.30334 9.20468V9.20135ZM9.60909 9.44396C9.60778 9.43565 9.60939 9.42714 9.61362 9.41988C9.61786 9.41262 9.62447 9.40703 9.63235 9.40408C9.66078 9.39404 9.6896 9.38518 9.71875 9.37749C9.75199 9.36752 9.77193 9.39078 9.77193 9.4074V9.47387C9.77193 9.49713 9.76528 9.50045 9.74866 9.50378C9.7254 9.5071 9.69217 9.51042 9.6689 9.52704C9.64896 9.54033 9.62902 9.53036 9.61905 9.51042L9.60909 9.44396ZM9.96136 9.44396C9.96136 9.42402 9.95471 9.4074 9.94142 9.40408C9.91619 9.39364 9.88891 9.38909 9.86166 9.39078C9.82842 9.39078 9.8251 9.39743 9.8251 9.41072V9.48051C9.8251 9.5071 9.8251 9.5071 9.83839 9.51375C9.86166 9.51375 9.89821 9.51375 9.92148 9.53369C9.93809 9.54366 9.95471 9.53369 9.95803 9.51375L9.96136 9.44396Z" fill="white"/>
<path fill-rule="evenodd" clip-rule="evenodd" d="M11.4202 7.05118C11.4601 6.98471 11.5099 7.14423 11.6794 7.26055C11.7559 7.31372 11.8124 7.45662 11.8124 7.54967C11.8124 7.61614 11.8057 7.67928 11.8124 7.74243C11.8157 7.77898 11.8589 7.86871 11.829 7.89198C11.7559 7.94515 11.6595 8.07143 11.6163 8.11464C11.5764 8.14787 11.5432 7.9385 11.5166 7.84877C11.4834 7.74907 11.4967 7.62611 11.4102 7.53638C11.3504 7.46992 11.1976 7.4101 11.2108 7.38351L11.4202 7.05118Z" fill="white" stroke="#BD6B00" stroke-width="0.0265865"/>
<path fill-rule="evenodd" clip-rule="evenodd" d="M11.4302 7.56294C11.4434 7.53159 11.4613 7.50245 11.4833 7.47653C11.5045 7.45027 11.5319 7.4297 11.5631 7.41671C11.5937 7.40764 11.6213 7.3904 11.6428 7.36687C11.6556 7.35261 11.6647 7.33552 11.6694 7.31702C11.6732 7.29502 11.6732 7.27254 11.6694 7.25055L11.6794 7.26052C11.7558 7.31369 11.8123 7.45659 11.8123 7.54965C11.8134 7.57512 11.8134 7.60062 11.8123 7.62608C11.8057 7.6427 11.8024 7.65932 11.7924 7.66929L11.7558 7.69587L11.6661 7.71914C11.6325 7.73424 11.6029 7.75701 11.5797 7.7856C11.5555 7.81122 11.5354 7.84035 11.5199 7.87201L11.5132 7.84542C11.4867 7.75569 11.49 7.64935 11.4268 7.56294H11.4302Z" fill="#BF0000" stroke="#BD6B00" stroke-width="0.0265865"/>
<path d="M11.6695 7.24725C11.6862 7.35692 11.623 7.3968 11.5632 7.41674C11.5034 7.44001 11.4535 7.50315 11.4303 7.56297M11.8191 7.61282C11.7925 7.71252 11.726 7.69922 11.6662 7.71916C11.6064 7.74243 11.5433 7.81886 11.5167 7.87868" stroke="#BD6B00" stroke-width="0.0265865"/>
<path fill-rule="evenodd" clip-rule="evenodd" d="M11.4767 6.98466L11.4435 6.96472L10.8552 7.95839L10.8885 7.97833L11.4767 6.98134V6.98466Z" fill="white" stroke="#BD6B00" stroke-width="0.0265865"/>
<path fill-rule="evenodd" clip-rule="evenodd" d="M11.4136 6.94479C11.4136 6.96242 11.4206 6.97933 11.433 6.99179C11.4455 7.00426 11.4624 7.01126 11.48 7.01126C11.4977 7.01126 11.5146 7.00426 11.527 6.99179C11.5395 6.97933 11.5465 6.96242 11.5465 6.94479C11.5465 6.92716 11.5395 6.91026 11.527 6.89779C11.5146 6.88533 11.4977 6.87833 11.48 6.87833C11.4624 6.87833 11.4455 6.88533 11.433 6.89779C11.4206 6.91026 11.4136 6.92716 11.4136 6.94479ZM10.9084 6.1472H10.6692V6.20037H10.9084V6.1472ZM10.9084 6.25022H10.6692V6.70884H10.9084V6.25022ZM10.9217 6.08405H10.6559C10.6492 5.99432 10.7389 5.89795 10.7888 5.89795C10.842 5.90127 10.925 5.99765 10.9217 6.08405Z" fill="white" stroke="#BD6B00" stroke-width="0.0265865"/>
<path fill-rule="evenodd" clip-rule="evenodd" d="M10.2471 6.03092C10.2969 6.05086 10.3368 6.10736 10.3601 6.17382C10.3834 6.24029 10.3933 6.31673 10.38 6.37655C10.38 6.39981 10.3701 6.4131 10.3634 6.4264C10.3568 6.43637 10.3501 6.44301 10.3435 6.44301C10.3335 6.44301 10.3235 6.44301 10.3202 6.43304L10.3136 6.40646C10.3169 6.33999 10.3169 6.28017 10.3036 6.227C10.2888 6.16795 10.2535 6.1161 10.2039 6.08077C10.1939 6.07413 10.1906 6.06416 10.1873 6.05751C10.1874 6.04874 10.191 6.04038 10.1973 6.03425C10.2105 6.02428 10.2305 6.02095 10.2471 6.03092ZM10.2405 6.04422C10.2272 6.03757 10.2139 6.04422 10.2072 6.04754L10.2039 6.05419C10.2039 6.05751 10.2039 6.06083 10.2139 6.06748C10.2649 6.10492 10.3014 6.15897 10.3169 6.22035C10.3307 6.28138 10.3341 6.3443 10.3269 6.40646C10.3269 6.41365 10.3292 6.42064 10.3335 6.4264C10.3335 6.4264 10.3335 6.42972 10.3402 6.4264C10.3402 6.4264 10.3468 6.4264 10.3534 6.41643C10.36 6.40394 10.3645 6.39047 10.3667 6.37655C10.3767 6.31673 10.3667 6.24361 10.3435 6.17715C10.3202 6.11733 10.2837 6.06416 10.2438 6.04422H10.2405Z" fill="#BD6B00"/>
<path fill-rule="evenodd" clip-rule="evenodd" d="M10.1607 6.09403C10.2105 6.1173 10.2438 6.17047 10.2604 6.23361C10.278 6.29745 10.2814 6.36439 10.2704 6.42969C10.2637 6.47289 10.2371 6.49616 10.2172 6.49616C10.2072 6.49948 10.1972 6.49616 10.1906 6.48619C10.184 6.47622 10.1806 6.46625 10.184 6.45295C10.1972 6.39978 10.2006 6.33996 10.1939 6.28346C10.184 6.22697 10.1607 6.17712 10.1208 6.14721C10.1108 6.13724 10.1042 6.13059 10.1042 6.12062C10.1039 6.11702 10.1043 6.11339 10.1055 6.10997C10.1066 6.10654 10.1084 6.10338 10.1108 6.10068C10.1241 6.09071 10.1441 6.08739 10.1607 6.09403ZM10.154 6.11065C10.1408 6.104 10.1275 6.10733 10.1208 6.11065L10.1175 6.12062L10.1275 6.13391C10.1498 6.1518 10.1683 6.17393 10.182 6.19903C10.1957 6.22413 10.2043 6.2517 10.2072 6.28014C10.2172 6.33996 10.2105 6.4031 10.2006 6.45295C10.1972 6.46625 10.2006 6.47289 10.2006 6.47954L10.2172 6.48286C10.2272 6.48286 10.2504 6.46625 10.2571 6.42637C10.267 6.36987 10.2637 6.29676 10.2471 6.23694C10.2305 6.17712 10.1972 6.12727 10.154 6.11065Z" fill="#BD6B00"/>
<path fill-rule="evenodd" clip-rule="evenodd" d="M10.9218 7.08105H10.6559V7.44662H10.9218V7.08105ZM10.9051 7.65931H10.6493V7.73907H10.9051V7.65931ZM10.9118 7.79557H10.6459V8.0847H10.9118V7.79557ZM10.9317 8.14451H10.6426V8.30736H10.9317V8.14451ZM10.8952 7.59285H10.6625L10.616 7.51309H10.9351L10.8952 7.59285ZM10.5828 7.30704L10.5795 7.10764H10.4199C10.4885 7.16103 10.5442 7.22918 10.5828 7.30704Z" fill="white" stroke="#BD6B00" stroke-width="0.0265865"/>
<path fill-rule="evenodd" clip-rule="evenodd" d="M10.8785 7.3901C10.8785 7.43331 10.8287 7.41669 10.8287 7.39343V7.20732C10.8287 7.17409 10.7489 7.18073 10.7489 7.204V7.4034C10.7489 7.43663 10.6924 7.43331 10.6958 7.4034V7.17076C10.6958 7.09765 10.8785 7.10097 10.8785 7.16744V7.3901ZM10.8785 7.8321H10.6891V8.06474H10.8785V7.8321Z" stroke="#BD6B00" stroke-width="0.0265865"/>
<path fill-rule="evenodd" clip-rule="evenodd" d="M10.7589 7.93183H10.6924V7.96506H10.7589V7.93183ZM10.8752 7.93183H10.8087V7.96506H10.8752V7.93183ZM10.8087 7.83213H10.7589V7.93183H10.8087V7.83213ZM10.8087 7.96506H10.7589V8.06809H10.8087V7.96506ZM11.8622 5.47258C11.8489 5.65536 11.9088 5.75838 12.0051 5.74177C12.0317 5.64207 11.9719 5.57228 11.8622 5.47258ZM12.0782 5.88135C12.1647 5.83814 12.1015 5.49916 12.0683 5.35626C12.045 5.53904 12.0018 5.79826 12.0782 5.88135Z" fill="white"/>
<path d="M10.7589 7.93183H10.6924V7.96506H10.7589M10.7589 7.93183V7.96506M10.7589 7.93183V7.83213H10.8087V7.93183M10.7589 7.93183H10.8087M10.7589 7.96506H10.8087M10.7589 7.96506V8.06809H10.8087V7.96506M10.8087 7.93183H10.8752V7.96506H10.8087M10.8087 7.93183V7.96506M11.8622 5.47258C11.8489 5.65536 11.9088 5.75838 12.0051 5.74177C12.0317 5.64207 11.9719 5.57228 11.8622 5.47258ZM12.0782 5.88135C12.1647 5.83814 12.1015 5.49916 12.0683 5.35626C12.045 5.53904 12.0018 5.79826 12.0782 5.88135Z" stroke="#BD6B00" stroke-width="0.0265865"/>
<path fill-rule="evenodd" clip-rule="evenodd" d="M12.0484 5.89795C11.9021 5.9478 11.7825 5.7916 11.7459 5.60882C11.8656 5.77498 12.0617 5.77498 12.045 5.89795H12.0484ZM12.158 6.06744C12.271 6.03753 12.2046 5.67861 12.1813 5.53571C12.158 5.68525 12.0783 6.01759 12.158 6.06744ZM12.1181 6.05747C12.1115 5.9345 11.9885 5.96774 11.9021 5.90127C11.9187 5.96774 11.9686 6.07408 12.1181 6.05747ZM12.2577 6.22363C12.3707 6.1904 12.3043 5.80489 12.3109 5.64537C12.2777 5.78495 12.1713 6.18708 12.2577 6.22363ZM12.2046 6.20702C12.1115 6.23692 11.9885 6.17378 11.9786 6.06411C12.0617 6.12061 12.1879 6.07741 12.2046 6.20702Z" fill="white" stroke="#BD6B00" stroke-width="0.0265865"/>
<path fill-rule="evenodd" clip-rule="evenodd" d="M12.3441 6.39315C12.4505 6.40312 12.4039 6.07412 12.4039 5.76837C12.3641 6.05418 12.2544 6.31672 12.3441 6.39315Z" fill="white" stroke="#BD6B00" stroke-width="0.0265865"/>
<path fill-rule="evenodd" clip-rule="evenodd" d="M12.3042 6.37987C12.2311 6.4131 12.1015 6.3566 12.0649 6.23364C12.1979 6.29014 12.2843 6.23364 12.3042 6.37987ZM11.4534 5.64209C11.4734 5.80493 11.5398 5.89798 11.6362 5.88137C11.6628 5.78167 11.583 5.7152 11.4534 5.64209ZM11.7126 6.05418C11.5498 6.07744 11.4933 5.95448 11.3803 5.79164C11.5365 5.90463 11.7193 5.92457 11.7126 6.0575V6.05418Z" fill="white" stroke="#BD6B00" stroke-width="0.0265865"/>
<path fill-rule="evenodd" clip-rule="evenodd" d="M11.7625 6.03754C11.8489 5.93119 11.7625 5.79494 11.696 5.68195C11.7093 5.85143 11.6528 5.94781 11.7625 6.03754ZM11.7957 6.21368C11.809 6.10733 11.6296 6.08407 11.5498 6.02757C11.5797 6.08739 11.6163 6.25023 11.7991 6.21368H11.7957Z" fill="white" stroke="#BD6B00" stroke-width="0.0265865"/>
<path fill-rule="evenodd" clip-rule="evenodd" d="M11.8357 6.21371C11.9587 6.20041 11.9088 5.99104 11.8191 5.87805C11.8557 6.03757 11.7526 6.14724 11.8357 6.21371Z" fill="white" stroke="#BD6B00" stroke-width="0.0265865"/>
<path fill-rule="evenodd" clip-rule="evenodd" d="M11.9288 6.38979C12.0683 6.32332 11.9786 6.15051 11.9288 6.04749C11.9487 6.18374 11.8357 6.28676 11.9288 6.38646V6.38979Z" fill="white" stroke="#BD6B00" stroke-width="0.0265865"/>
<path fill-rule="evenodd" clip-rule="evenodd" d="M11.9021 6.36989C11.829 6.46959 11.6861 6.34331 11.6562 6.19708C11.7791 6.30011 11.8722 6.28349 11.9021 6.37322V6.36989ZM12.2211 7.04453C12.2344 6.90162 12.1281 6.64573 12.2045 6.50615C12.2145 6.48621 12.1812 6.43636 12.158 6.46627C12.1248 6.51612 12.0915 6.6557 12.0749 6.60253C12.0616 6.54603 12.0583 6.44965 12.0084 6.42971C11.9752 6.41974 11.932 6.40977 11.9453 6.46295C11.9586 6.50947 11.9852 6.57594 11.9553 6.57926C11.9386 6.57926 11.8888 6.5128 11.8456 6.47956C11.8124 6.45298 11.7592 6.4995 11.8124 6.53938C11.9719 6.67232 12.1281 6.73546 12.2211 7.04453ZM12.5103 9.18806C12.5302 9.18806 12.5535 9.17809 12.5302 9.208C12.3408 9.44064 12.2876 9.5071 12.0118 9.47387C11.7359 9.43731 11.6695 9.36088 11.4734 9.25121C11.4166 9.22134 11.3545 9.20302 11.2906 9.19732C11.2267 9.19161 11.1623 9.19863 11.1012 9.21797C11.048 9.23459 11.0148 9.23459 11.0546 9.19471C11.0945 9.15815 11.1377 9.10498 11.1876 9.06842C11.3116 8.9855 11.4626 8.95338 11.6096 8.97869C11.809 9.01193 11.9785 9.14154 12.1812 9.19139C12.2898 9.21332 12.4017 9.21332 12.5103 9.19139V9.18806ZM10.9217 9.60348C10.8885 9.61012 10.8652 9.67659 10.8453 9.63339C10.8187 9.55695 10.8386 9.50045 10.8719 9.50378C10.9117 9.51375 10.9749 9.60348 10.9217 9.60348Z" fill="white" stroke="#BD6B00" stroke-width="0.0265865"/>
<path fill-rule="evenodd" clip-rule="evenodd" d="M12.6399 6.93486C12.6797 6.88834 12.6698 6.87504 12.6066 6.87172C12.5601 6.87172 12.467 6.90495 12.4305 6.87504C12.3973 6.85178 12.4139 6.75208 12.3973 6.70888C12.3906 6.67897 12.374 6.64241 12.3308 6.70223C12.2111 6.89498 12.0649 7.12761 11.9985 7.3536C11.9652 7.47989 11.9985 7.67928 12.1114 7.81222C12.1114 7.69922 12.1513 7.62279 12.2012 7.52641C12.2676 7.40345 12.5036 7.06115 12.6399 6.93154V6.93486Z" fill="white"/>
<path fill-rule="evenodd" clip-rule="evenodd" d="M12.1447 7.9451C12.0118 7.9451 11.9886 7.76897 11.9886 7.71912C12.055 7.73241 12.168 7.84208 12.1447 7.9451ZM10.9982 9.6699C10.9052 9.68984 10.9085 9.46386 11.0049 9.36748C10.9617 9.51371 11.0713 9.64664 11.0015 9.66658L10.9982 9.6699ZM11.0381 9.66658C11.0314 9.77292 11.304 9.65328 11.3704 9.56688C11.2109 9.63667 11.0447 9.58017 11.0381 9.66658ZM11.1544 9.5137C11.1444 9.61673 11.387 9.52367 11.4635 9.44392C11.3006 9.49709 11.1644 9.4273 11.1544 9.51038V9.5137ZM11.1112 9.527C11.0148 9.55026 11.0314 9.31431 11.1245 9.23455C11.078 9.39074 11.1843 9.50373 11.1112 9.527ZM11.2109 9.3841C11.1145 9.40736 11.171 9.20464 11.2408 9.12488C11.2275 9.2711 11.274 9.37413 11.2076 9.3841H11.2109ZM11.2607 9.3841C11.2508 9.49044 11.4402 9.41068 11.5133 9.30766C11.3538 9.35751 11.2707 9.29769 11.2607 9.3841ZM11.3106 9.30101C11.2508 9.25781 11.3139 9.14149 11.4336 9.14814C11.4203 9.21793 11.3804 9.34422 11.3106 9.30101ZM10.8453 9.78954C10.842 9.89589 11.1112 9.84271 11.1976 9.72972C11.0248 9.76295 10.8553 9.70313 10.8487 9.78954H10.8453ZM11.9221 9.59679C11.9121 9.70313 12.2079 9.58349 12.281 9.4838C12.1248 9.53697 11.9321 9.51038 11.9221 9.59679ZM11.7426 9.63999C11.6795 9.59679 11.8058 9.48379 11.9088 9.45721C11.8955 9.527 11.8091 9.68319 11.7426 9.64331V9.63999ZM11.7227 9.71643C11.716 9.8128 12.0384 9.75963 12.1215 9.6699C11.8457 9.71975 11.7327 9.63334 11.7227 9.71643Z" fill="white" stroke="#BD6B00" stroke-width="0.0265865"/>
<path fill-rule="evenodd" clip-rule="evenodd" d="M11.5698 9.77957C11.5366 9.8693 11.8457 9.84604 11.9553 9.79619C11.7792 9.79619 11.5964 9.71643 11.5698 9.77957Z" fill="white" stroke="#BD6B00" stroke-width="0.0265865"/>
<path fill-rule="evenodd" clip-rule="evenodd" d="M11.4269 9.84607C11.3937 9.92583 11.6795 9.92583 11.8191 9.8793C11.633 9.8793 11.4602 9.76631 11.4269 9.84607ZM11.2176 9.88927C11.1644 9.98565 11.4701 9.99229 11.5665 9.94577C11.3937 9.9225 11.2608 9.81283 11.2176 9.88927ZM11.5732 9.72643C11.6695 9.78625 11.6629 9.60679 11.7393 9.48383C11.6197 9.59349 11.5067 9.66993 11.5732 9.72643Z" fill="white" stroke="#BD6B00" stroke-width="0.0265865"/>
<path fill-rule="evenodd" clip-rule="evenodd" d="M11.4003 9.7929C11.48 9.86269 11.5465 9.61677 11.6196 9.47719C11.5 9.61012 11.3272 9.73308 11.4003 9.78958V9.7929ZM11.1743 9.85937C11.2408 9.93913 11.4402 9.62674 11.5133 9.46057C11.4036 9.59018 11.1211 9.7929 11.1743 9.85937ZM11.367 10.0986C11.4003 10.2183 11.9054 9.98566 11.9652 9.86269C11.6728 10.0156 11.3604 9.98233 11.367 10.0953V10.0986ZM12.9855 7.64604C12.9988 7.62943 13.032 7.64604 13.0254 7.6826C13.0154 7.73245 12.9423 7.98835 12.816 8.07475C12.7263 8.14122 12.251 8.24424 12.0384 8.29077C11.9187 8.31403 11.8223 8.37385 11.7426 8.4669C11.7699 8.35662 11.8032 8.24789 11.8423 8.14122C11.8822 8.04152 11.9885 7.93517 12.1015 7.93185C12.3042 7.92188 12.5701 7.90526 12.7662 7.82218C12.855 7.78473 12.9319 7.72385 12.9888 7.64604H12.9855Z" fill="white" stroke="#BD6B00" stroke-width="0.0265865"/>
<path fill-rule="evenodd" clip-rule="evenodd" d="M11.8123 8.65964C11.7459 8.70617 11.6761 8.53668 11.7558 8.37384C11.7592 8.53004 11.8821 8.58321 11.8123 8.65964Z" fill="white" stroke="#BD6B00" stroke-width="0.0265865"/>
<path fill-rule="evenodd" clip-rule="evenodd" d="M11.7492 8.81586C11.6595 8.84245 11.6329 8.68293 11.6894 8.55664C11.6794 8.6929 11.8323 8.77598 11.7492 8.81586Z" fill="white" stroke="#BD6B00" stroke-width="0.0265865"/>
<path fill-rule="evenodd" clip-rule="evenodd" d="M11.6795 8.94213C11.5931 8.98533 11.5632 8.82249 11.623 8.70618C11.6163 8.85573 11.7459 8.90225 11.6795 8.93881V8.94213Z" fill="white" stroke="#BD6B00" stroke-width="0.0265865"/>
<path fill-rule="evenodd" clip-rule="evenodd" d="M11.7161 8.95209C11.7493 9.05179 11.9487 8.86236 11.9819 8.75934C11.859 8.8823 11.6928 8.86568 11.7161 8.94877V8.95209Z" fill="white" stroke="#BD6B00" stroke-width="0.0265865"/>
<path fill-rule="evenodd" clip-rule="evenodd" d="M11.8057 8.7959C11.8456 8.8956 12.0949 8.62974 12.1514 8.50677C12.0284 8.62974 11.7792 8.72279 11.8057 8.79258V8.7959Z" fill="white" stroke="#BD6B00" stroke-width="0.0265865"/>
<path fill-rule="evenodd" clip-rule="evenodd" d="M11.8556 8.63966C11.8954 8.75598 12.1646 8.44691 12.2444 8.33724C12.1115 8.45688 11.8256 8.55658 11.8556 8.63966ZM11.8655 8.52667C11.7658 8.50673 11.8689 8.42697 11.9885 8.29736C11.9918 8.43362 11.9719 8.52999 11.8655 8.52667Z" fill="white" stroke="#BD6B00" stroke-width="0.0265865"/>
<path fill-rule="evenodd" clip-rule="evenodd" d="M12.0285 8.44694C11.9853 8.40374 12.065 8.3838 12.1647 8.2708C12.1813 8.34724 12.0717 8.48682 12.0251 8.44694H12.0285ZM11.5632 8.95208C11.51 8.98532 11.4768 8.87565 11.5399 8.77927C11.5566 8.88562 11.6097 8.9122 11.5632 8.95208ZM12.6998 8.27745C12.8094 8.34392 12.9856 8.07805 13.0321 7.96838C12.9357 8.09467 12.6798 8.20766 12.6998 8.27745Z" fill="white" stroke="#BD6B00" stroke-width="0.0265865"/>
<path fill-rule="evenodd" clip-rule="evenodd" d="M12.6033 8.43032C12.6664 8.49678 12.8592 8.314 12.9257 8.22095C12.826 8.31068 12.5767 8.32065 12.6033 8.43032Z" fill="white" stroke="#BD6B00" stroke-width="0.0265865"/>
<path fill-rule="evenodd" clip-rule="evenodd" d="M12.5003 8.5699C12.5202 8.66295 12.7994 8.45358 12.8658 8.35388C12.7462 8.4702 12.4803 8.46023 12.5003 8.5699Z" fill="white" stroke="#BD6B00" stroke-width="0.0265865"/>
<path fill-rule="evenodd" clip-rule="evenodd" d="M12.5436 8.67295C12.5868 8.75604 12.8161 8.54667 12.8726 8.44032C12.7297 8.55996 12.507 8.58987 12.5402 8.67295H12.5436ZM12.6599 8.26419C12.5901 8.18775 12.62 8.15119 12.6732 8.03156C12.6997 8.15452 12.7429 8.20437 12.6599 8.26419ZM12.5635 8.40709C12.4306 8.41374 12.5635 8.25422 12.5967 8.11796C12.5834 8.27083 12.63 8.3938 12.5635 8.40709Z" fill="white" stroke="#BD6B00" stroke-width="0.0265865"/>
<path fill-rule="evenodd" clip-rule="evenodd" d="M12.4804 8.53335C12.3907 8.51341 12.4139 8.3838 12.487 8.2276C12.4704 8.39709 12.5635 8.49347 12.4804 8.53335ZM12.5136 8.78924C12.5468 8.88894 12.8061 8.65631 12.8459 8.56325C12.713 8.67625 12.4904 8.7128 12.5136 8.78924Z" fill="white" stroke="#BD6B00" stroke-width="0.0265865"/>
<path fill-rule="evenodd" clip-rule="evenodd" d="M12.3574 8.94877C12.3939 9.04847 12.6664 8.84242 12.7495 8.72943C12.5867 8.86236 12.3374 8.84907 12.3574 8.94877Z" fill="white" stroke="#BD6B00" stroke-width="0.0265865"/>
<path fill-rule="evenodd" clip-rule="evenodd" d="M12.1979 9.11162C12.2411 9.25452 12.5269 9.02521 12.61 8.91222C12.4305 9.0518 12.178 9.01192 12.1979 9.11162ZM12.4638 8.74606C12.3873 8.78261 12.3574 8.5666 12.4006 8.4104C12.4006 8.57657 12.5568 8.70285 12.4671 8.74273L12.4638 8.74606Z" fill="white" stroke="#BD6B00" stroke-width="0.0265865"/>
<path fill-rule="evenodd" clip-rule="evenodd" d="M12.3341 8.91888C12.2411 8.94547 12.2677 8.70951 12.3507 8.55332C12.3607 8.70951 12.4272 8.85241 12.3341 8.91888ZM12.168 9.08172C12.0683 9.08505 12.1347 8.879 12.2211 8.76268C12.2078 8.91223 12.2544 9.06178 12.168 9.08172ZM12.3507 9.16813C12.384 9.2213 12.4571 9.12493 12.5834 9.05181C12.4704 9.08505 12.3374 9.11828 12.3507 9.16813ZM12.4106 7.41674C12.3109 7.34363 12.3873 7.2107 12.4106 7.08441C12.4438 7.20405 12.5236 7.36357 12.4106 7.41674ZM12.4106 7.59288C12.5601 7.57626 12.5368 7.39016 12.5435 7.27052C12.497 7.43336 12.3773 7.45995 12.4106 7.5962V7.59288ZM12.3906 7.56962C12.2677 7.56297 12.2743 7.42339 12.2677 7.28381C12.3308 7.41342 12.4006 7.43336 12.3906 7.56962Z" fill="white" stroke="#BD6B00" stroke-width="0.0265865"/>
<path fill-rule="evenodd" clip-rule="evenodd" d="M12.394 7.74242C12.4937 7.75239 12.5402 7.65601 12.5602 7.50979C12.4705 7.64604 12.3907 7.60284 12.394 7.74242ZM12.3608 7.73245C12.2378 7.74907 12.2611 7.60616 12.2611 7.49982C12.301 7.59952 12.4007 7.63275 12.3608 7.73245Z" fill="white" stroke="#BD6B00" stroke-width="0.0265865"/>
<path fill-rule="evenodd" clip-rule="evenodd" d="M12.5535 7.67261C12.5435 7.76566 12.4837 7.92518 12.3873 7.88862C12.3507 7.77563 12.4737 7.75237 12.5535 7.67261Z" fill="white" stroke="#BD6B00" stroke-width="0.0265865"/>
<path fill-rule="evenodd" clip-rule="evenodd" d="M12.3607 7.89862C12.4006 7.81886 12.261 7.77566 12.2344 7.66931C12.2178 7.82218 12.2311 7.92188 12.3607 7.90194V7.89862ZM12.7562 6.92821C12.6797 6.84845 12.7462 6.71552 12.7695 6.58923C12.8027 6.70887 12.8526 6.86839 12.7562 6.92821ZM12.7562 7.08108C12.8891 7.0977 12.9223 6.82519 12.939 6.70555C12.8924 6.86839 12.7396 6.93818 12.7562 7.08441V7.08108ZM12.7296 7.08108C12.6365 7.03123 12.6565 6.92489 12.6299 6.84845C12.6897 6.94483 12.7495 6.95812 12.7296 7.08108Z" fill="white" stroke="#BD6B00" stroke-width="0.0265865"/>
<path fill-rule="evenodd" clip-rule="evenodd" d="M12.7595 7.26054C12.8957 7.27051 12.9788 6.96809 12.9855 6.84845C12.9423 7.01129 12.7395 7.0977 12.7562 7.26054H12.7595ZM12.7296 7.25389C12.5966 7.22398 12.6133 7.13758 12.6332 7.00132C12.6764 7.1409 12.7495 7.11099 12.7296 7.25389Z" fill="white" stroke="#BD6B00" stroke-width="0.0265865"/>
<path fill-rule="evenodd" clip-rule="evenodd" d="M12.7595 7.43332C12.9124 7.4599 12.9024 7.21398 13.0254 7.03784C12.919 7.17077 12.7263 7.33694 12.7595 7.43332ZM12.7263 7.42335C12.6067 7.42999 12.5934 7.25386 12.6 7.18074C12.6299 7.25386 12.7662 7.32032 12.723 7.42667L12.7263 7.42335Z" fill="white" stroke="#BD6B00" stroke-width="0.0265865"/>
<path fill-rule="evenodd" clip-rule="evenodd" d="M12.9988 7.2439C12.9423 7.43333 12.8592 7.62275 12.7595 7.60946C12.7097 7.49979 12.8559 7.4865 12.9988 7.2439Z" fill="white" stroke="#BD6B00" stroke-width="0.0265865"/>
<path fill-rule="evenodd" clip-rule="evenodd" d="M12.723 7.57953C12.7629 7.49645 12.6233 7.45657 12.5967 7.35022C12.5801 7.50309 12.5934 7.60279 12.723 7.57953ZM12.959 7.45989C12.8759 7.62938 12.8393 7.82545 12.7264 7.79554C12.6831 7.66261 12.8526 7.63602 12.959 7.45989Z" fill="white" stroke="#BD6B00" stroke-width="0.0265865"/>
<path fill-rule="evenodd" clip-rule="evenodd" d="M12.703 7.76564C12.7529 7.67259 12.6133 7.64268 12.5768 7.51972C12.5601 7.67924 12.5768 7.79555 12.703 7.76232V7.76564ZM12.4638 6.6191C12.384 6.63904 12.2976 6.54931 12.3275 6.41305C12.4206 6.43299 12.4604 6.5194 12.4638 6.6191ZM12.7263 6.54931C12.7197 6.58919 12.6698 6.59251 12.6864 6.53602C12.6988 6.49937 12.6988 6.45967 12.6864 6.42302C12.6704 6.37332 12.6704 6.31985 12.6864 6.27015C12.6997 6.23692 12.7462 6.25686 12.7263 6.28344C12.7064 6.31335 12.703 6.3765 12.7197 6.40641C12.7396 6.44961 12.733 6.50611 12.7263 6.54931ZM11.9653 7.08104C11.9985 7.12424 12.0616 7.09433 12.0118 7.03119C11.9719 6.98134 11.9121 6.93814 11.9121 6.88496C11.9054 6.8185 11.8689 6.7188 11.8323 6.68224C11.7958 6.64568 11.7526 6.69554 11.7925 6.72212C11.8357 6.74871 11.8656 6.86835 11.8622 6.91487C11.8656 6.98134 11.9287 7.03119 11.9653 7.08104ZM12.065 7.0046C12.0982 7.05113 12.1447 7.02122 12.1181 6.94811C12.0949 6.89826 12.0916 6.83179 12.065 6.79523C12.0251 6.73874 11.9653 6.69221 11.9287 6.65566C11.8888 6.62242 11.8622 6.65566 11.8955 6.68889C11.9362 6.72958 11.9729 6.77409 12.0051 6.82182C12.0517 6.89493 12.0317 6.95475 12.065 7.0046ZM12.5867 6.76532C12.5901 6.83179 12.5369 6.84508 12.5402 6.75203C12.5402 6.65233 12.6133 6.55928 12.5734 6.40973C12.5468 6.33662 12.5468 6.20036 12.5601 6.13057C12.5734 6.05746 12.6266 6.10399 12.6033 6.16048C12.5834 6.22695 12.6067 6.34659 12.6233 6.40973C12.6731 6.58919 12.5834 6.67559 12.5901 6.76532H12.5867ZM12.4438 6.39976C12.4505 6.4629 12.5036 6.46623 12.487 6.38314C12.4737 6.31668 12.4737 6.2635 12.487 6.20701C12.507 6.13722 12.5003 6.01758 12.487 5.96773C12.4704 5.91456 12.4206 5.94447 12.4405 5.98435C12.4637 6.04717 12.4672 6.11557 12.4505 6.18042C12.4305 6.24689 12.4339 6.33994 12.4438 6.40308V6.39976ZM12.9623 7.63271C12.9357 7.66262 12.8958 7.64268 12.929 7.59948C12.9623 7.56624 12.9523 7.5596 12.9722 7.51972C12.9922 7.47319 12.9888 7.44993 13.0121 7.42002C13.0354 7.38678 13.0653 7.42002 13.0453 7.44328C13.0188 7.47651 13.0254 7.49645 13.0121 7.52636C12.9789 7.57621 12.9888 7.6028 12.9623 7.63271ZM12.2843 8.45024C12.2437 8.4727 12.2091 8.5047 12.1837 8.5435C12.1582 8.58229 12.1425 8.62671 12.1381 8.67291C12.1346 8.75566 12.1118 8.83646 12.0716 8.90886C12.1381 8.89224 12.1713 8.7859 12.1813 8.68288C12.1913 8.57653 12.2478 8.53333 12.281 8.45024H12.2843ZM12.1148 8.64632C12.0583 8.74934 11.9819 8.78922 11.9752 8.86566C11.9686 8.95539 11.9619 8.95871 11.9387 9.04512C12.0051 9.0285 12.0218 9.02185 12.0384 8.88892C12.0484 8.79587 12.1248 8.73273 12.1148 8.64632Z" fill="white" stroke="#BD6B00" stroke-width="0.0265865"/>
<path fill-rule="evenodd" clip-rule="evenodd" d="M10.3668 9.60348C10.3335 9.6633 10.3003 9.75302 10.2338 9.73641C10.2338 9.6932 10.3036 9.65997 10.3668 9.60348ZM10.2671 9.62342C10.1441 9.67659 10.0344 9.6633 10.0178 9.74306C10.1375 9.75635 10.184 9.70982 10.2704 9.62342H10.2671ZM10.8021 9.20135C10.7195 9.26555 10.661 9.3557 10.636 9.45725C10.6092 9.54912 10.5688 9.63648 10.5163 9.71647C10.6027 9.6584 10.6653 9.57107 10.6925 9.47054C10.7157 9.37084 10.7456 9.29441 10.8021 9.20468V9.20135ZM10.6991 9.20135C10.606 9.27447 10.5196 9.36087 10.4931 9.4639C10.4665 9.56027 10.4499 9.63339 10.3867 9.72976C10.4864 9.66662 10.523 9.57357 10.5529 9.47054C10.5761 9.37084 10.636 9.29773 10.6991 9.20468V9.20135ZM10.3934 9.44396C10.3947 9.43565 10.3931 9.42714 10.3888 9.41988C10.3846 9.41262 10.378 9.40703 10.3701 9.40408C10.3417 9.39404 10.3128 9.38518 10.2837 9.37749C10.2505 9.36752 10.2305 9.39078 10.2305 9.4074V9.47387C10.2305 9.49713 10.2372 9.50045 10.2538 9.50378C10.277 9.5071 10.3103 9.51042 10.3335 9.52704C10.3535 9.54033 10.3734 9.53036 10.3834 9.51042L10.3934 9.44396ZM10.0411 9.44396C10.0411 9.42402 10.0477 9.4074 10.061 9.40408C10.0863 9.39364 10.1135 9.38909 10.1408 9.39078C10.174 9.39078 10.1773 9.39743 10.1773 9.41072V9.48051C10.1773 9.5071 10.1773 9.5071 10.164 9.51375C10.1408 9.51375 10.1042 9.51375 10.081 9.53369C10.0643 9.54366 10.0477 9.53369 10.0444 9.51375L10.0411 9.44396Z" fill="white"/>
<path fill-rule="evenodd" clip-rule="evenodd" d="M10.9483 10.3778C10.9483 10.4177 10.955 10.4509 10.9816 10.4808C10.8295 10.4349 10.6658 10.4479 10.523 10.5174C10.4631 10.5439 10.39 10.4841 10.4598 10.4276C10.5595 10.3512 10.7822 10.3944 10.9483 10.3778ZM9.03743 10.3778C9.04033 10.4116 9.03579 10.4456 9.02414 10.4775C9.17037 10.421 9.32656 10.4708 9.47611 10.5306C9.57581 10.5739 9.58578 10.4974 9.56916 10.4742C9.55078 10.4464 9.52621 10.4232 9.49738 10.4065C9.46856 10.3898 9.43625 10.3799 9.403 10.3778H9.03743ZM9.16372 9.65662C9.12052 9.64 9.07399 9.65662 9.03079 9.70314C8.88788 9.84272 8.7184 9.97898 8.58214 10.0886C8.53229 10.1319 8.48244 10.2116 8.69513 10.288C8.7051 10.2947 8.8613 10.3545 8.961 10.3545C9.0042 10.3545 9.0042 10.4143 8.99423 10.4309C8.97761 10.4642 8.99091 10.4775 8.95767 10.5074C8.92112 10.5406 8.95767 10.5772 8.99091 10.5506C9.11055 10.4442 9.30995 10.514 9.49937 10.5739C9.5459 10.5871 9.62566 10.5838 9.62566 10.5207C9.62566 10.4542 9.67551 10.4077 9.70542 10.4044C9.78518 10.4177 10.1707 10.421 10.287 10.4077C10.3535 10.3977 10.3601 10.5041 10.3967 10.5406C10.4233 10.5705 10.5196 10.5772 10.5894 10.5473C10.7224 10.4874 10.9218 10.4874 11.0048 10.5473C11.0381 10.5705 11.068 10.5473 11.048 10.524C11.0215 10.4908 11.0248 10.4708 11.0115 10.4442C10.9782 10.3778 11.0048 10.3645 11.0381 10.3612C11.4036 10.3113 11.5233 10.1883 11.4103 10.0853C11.2641 9.95904 11.1045 9.82943 10.965 9.67988C10.9251 9.64 10.8985 9.62338 10.8221 9.65662C10.5574 9.77662 10.2717 9.84325 9.98125 9.85269C9.69989 9.83452 9.42356 9.76937 9.16372 9.65994V9.65662Z" fill="white"/>
<path fill-rule="evenodd" clip-rule="evenodd" d="M10.8852 9.67651L10.832 9.68981C10.5329 9.79615 10.2604 9.86927 9.97791 9.86927C9.70208 9.86927 9.41295 9.78951 9.15041 9.68316C9.13426 9.67759 9.11671 9.67759 9.10056 9.68316C9.08394 9.68648 9.06732 9.69645 9.05735 9.70642C8.93453 9.82927 8.80351 9.94363 8.6652 10.0487C8.64194 10.0653 8.64526 10.1085 8.68182 10.1218C8.95765 10.2215 9.22684 10.4043 9.99785 10.3977C10.7788 10.391 11.0547 10.2116 11.3006 10.1285C11.3172 10.1218 11.3338 10.1119 11.3438 10.0953C11.3462 10.0913 11.3477 10.0869 11.3483 10.0823C11.3488 10.0777 11.3484 10.0731 11.3471 10.0687C11.3428 10.0583 11.336 10.0491 11.3272 10.0421C11.1843 9.92576 11.0347 9.83271 10.935 9.69645C10.9251 9.67984 10.9051 9.67651 10.8852 9.67984V9.67651ZM10.8852 9.69313C10.9018 9.69313 10.9184 9.69313 10.9217 9.7031C11.0214 9.846 11.1776 9.93573 11.3172 10.052L11.3305 10.0753C11.3314 10.0774 11.3319 10.0797 11.3319 10.082C11.3319 10.0842 11.3314 10.0865 11.3305 10.0886C11.3272 10.0986 11.3106 10.1085 11.2973 10.1119C11.0447 10.1983 10.7755 10.3777 10.0012 10.3844C9.23017 10.391 8.9643 10.2082 8.68847 10.1085C8.66188 10.0953 8.6652 10.0687 8.67517 10.062C8.81475 9.95567 8.94768 9.83603 9.06732 9.71639C9.07762 9.70675 9.0902 9.69989 9.10388 9.69645H9.14376C9.40641 9.81057 9.68836 9.87373 9.97459 9.88256C10.2637 9.88256 10.5396 9.80945 10.8386 9.70642C10.8547 9.70008 10.8714 9.69561 10.8885 9.69313H10.8852Z" fill="#BD6B00"/>
<path fill-rule="evenodd" clip-rule="evenodd" d="M8.99423 4.66166C8.99423 4.61514 9.0607 4.61181 9.05405 4.67496C9.04408 4.75139 9.2036 4.95079 9.21689 5.07375C9.22686 5.15684 9.16704 5.22663 9.11055 5.27315C9.07796 5.29623 9.03969 5.30998 8.99986 5.3129C8.96004 5.31583 8.92017 5.30783 8.88456 5.28977C8.85465 5.26318 8.82806 5.1801 8.85133 5.14687C8.85797 5.1369 8.89453 5.26983 8.97429 5.26983C9.08396 5.26983 9.17369 5.18675 9.17369 5.11363C9.18033 4.98735 8.99755 4.78795 8.99423 4.66166ZM9.30994 4.97405C9.32988 4.96076 9.35647 5.01726 9.33653 5.03055C9.31991 5.04052 9.28668 4.98735 9.30994 4.97073V4.97405ZM9.35979 4.85774C9.34982 4.86439 9.33321 4.85774 9.33653 4.85109C9.36847 4.80672 9.40919 4.76939 9.45617 4.74142C9.46946 4.73478 9.4894 4.75472 9.48276 4.76469C9.44885 4.80409 9.40693 4.83582 9.35979 4.85774ZM9.77853 4.52541C9.7885 4.50547 9.84832 4.4822 9.86494 4.46891C9.87823 4.4523 9.88488 4.4822 9.87823 4.49217C9.86826 4.51544 9.81509 4.54867 9.79182 4.55199C9.78185 4.55199 9.77188 4.5387 9.77853 4.52873V4.52541ZM9.92143 4.53538C9.93893 4.49118 9.96755 4.45226 10.0045 4.42239C10.0211 4.41242 10.0477 4.42239 10.0411 4.43568C10.0185 4.47963 9.98539 4.51731 9.9447 4.54535C9.93473 4.55532 9.91811 4.54535 9.92143 4.53538ZM9.79847 4.62511C9.7885 4.63175 9.79515 4.64837 9.80179 4.65169C9.82173 4.65834 9.85164 4.65834 9.86826 4.65169C9.8882 4.6384 9.87823 4.55532 9.85164 4.59852C9.8317 4.62511 9.81841 4.61846 9.79847 4.62511ZM9.55587 4.81121C9.51267 4.77798 9.56916 4.73145 9.61236 4.76469C9.70209 4.83115 9.47943 5.09037 9.35979 5.21001C9.33653 5.23327 9.31659 5.17678 9.3465 5.14687C9.43302 5.07438 9.50809 4.98923 9.56916 4.8943C9.58246 4.87768 9.59243 4.84112 9.55587 4.81121ZM10.0643 4.59187C10.0677 4.55864 10.0112 4.59187 10.0112 4.54867C10.0112 4.52541 10.0743 4.50879 10.1009 4.53538C10.1441 4.5819 10.1109 4.65834 10.0344 4.66499C9.97461 4.66499 9.86826 4.75472 9.88488 4.77133C9.90149 4.7946 10.0643 4.80789 10.1607 4.7946C10.2205 4.78463 10.2072 4.8378 10.1474 4.84445C10.0876 4.85109 10.0411 4.84445 9.9879 4.86439C9.92143 4.881 9.89485 4.96408 9.85829 4.99732C9.85164 5.00396 9.8317 4.97073 9.83835 4.95744C9.86494 4.91756 9.90482 4.85774 9.95134 4.8378C9.97793 4.82783 9.87158 4.82451 9.83835 4.81454C9.81176 4.80789 9.81841 4.77133 9.82838 4.75139C9.84167 4.72481 9.94137 4.62178 9.98458 4.62511C10.0211 4.62511 10.061 4.61514 10.0643 4.59187ZM10.2305 4.59852C10.2504 4.5819 10.2637 4.55532 10.2804 4.5387C10.2903 4.52873 10.3103 4.5387 10.3069 4.56529C10.3036 4.58855 10.2737 4.60517 10.2571 4.62178C10.2405 4.63175 10.2239 4.60849 10.2338 4.59852H10.2305ZM10.4465 4.52208C10.4764 4.52208 10.4798 4.57526 10.4532 4.5819C10.4332 4.58855 10.4199 4.52541 10.4465 4.52208ZM10.3767 4.68825C10.3767 4.7381 10.4 4.73478 10.4432 4.73145C10.4864 4.73145 10.523 4.73145 10.523 4.69157C10.523 4.64837 10.4997 4.60849 10.4897 4.6384C10.4864 4.66499 10.4797 4.71151 10.4631 4.69157C10.4498 4.67496 10.4565 4.67163 10.4299 4.69822C10.4133 4.71484 10.4133 4.69157 10.4033 4.67828C10.3967 4.66831 10.3767 4.68493 10.3767 4.69157V4.68825ZM10.071 4.92753C10.061 4.99067 10.071 5.07708 10.1009 5.07708C10.1408 5.07708 10.2205 4.94415 10.2604 4.87103C10.2837 4.83115 10.3202 4.82451 10.3036 4.86771C10.2804 4.93085 10.2837 5.06711 10.3036 5.10699C10.3169 5.12693 10.4033 5.08705 10.4166 5.05714C10.4432 5.00064 10.4199 4.89762 10.4299 4.83448C10.4332 4.7946 10.4731 4.78463 10.4698 4.82451C10.4645 4.90748 10.4634 4.99067 10.4665 5.07375C10.4665 5.10699 10.5628 5.15351 10.5761 5.05381C10.5828 4.99399 10.616 4.93085 10.5761 4.86439C10.5495 4.82118 10.6127 4.82451 10.6459 4.88433C10.6692 4.92421 10.626 4.99067 10.6293 5.04052C10.6293 5.12028 10.5695 5.16681 10.5263 5.16681C10.4864 5.16681 10.4598 5.11696 10.4266 5.11696C10.3933 5.11696 10.3535 5.17345 10.3269 5.17013C10.2072 5.16348 10.2704 4.99399 10.2338 4.99067C10.1939 4.99067 10.1507 5.15684 10.1009 5.15351C10.0544 5.14687 10.0012 5.01393 10.0245 4.96076C10.0411 4.90759 10.0743 4.8943 10.071 4.92753ZM10.6326 4.66166C10.5761 4.62843 10.6326 4.5387 10.6625 4.56861C10.7157 4.63508 10.7689 4.78463 10.8088 4.79792C10.832 4.80457 10.8287 4.68493 10.8453 4.63175C10.8586 4.58855 10.9051 4.60184 10.8985 4.65502C10.8952 4.67163 10.832 4.86771 10.8387 4.87436C10.8829 4.95729 10.9196 5.04405 10.9483 5.13357C10.9583 5.17345 10.9118 5.14687 10.9051 5.14022C10.8752 5.09369 10.8254 4.92421 10.8254 4.93418L10.7689 5.19007C10.7622 5.2233 10.7124 5.21666 10.7257 5.15684C10.7356 5.11031 10.8021 4.881 10.7988 4.87103C10.7607 4.78909 10.7038 4.71734 10.6326 4.66166Z" fill="white"/>
<path fill-rule="evenodd" clip-rule="evenodd" d="M10.7323 5.21332C10.719 5.21332 10.6924 5.24656 10.7722 5.26317C10.8752 5.28311 10.9915 5.24656 11.0248 5.14354C11.068 5.02057 11.0912 4.90426 11.1145 4.86105C11.1411 4.8112 11.1743 4.81453 11.1477 4.74141C11.1311 4.68492 11.0979 4.70153 11.0912 4.73144C11.0746 4.80788 11.0048 5.06378 10.9816 5.10698C10.9417 5.19338 10.8586 5.22662 10.7323 5.21332Z" fill="white"/>
<path fill-rule="evenodd" clip-rule="evenodd" d="M10.945 4.80791C10.9318 4.78464 10.9052 4.80791 10.9118 4.83117C10.9134 4.84056 10.9183 4.84907 10.9256 4.85516C10.9329 4.86126 10.9422 4.86453 10.9517 4.8644C10.975 4.8644 11.0248 4.86772 11.0248 4.83117C11.0248 4.80458 11.0015 4.78132 10.9883 4.81123C10.9716 4.83782 10.955 4.83449 10.945 4.81123V4.80791ZM10.9683 4.70821C10.9617 4.71485 10.9683 4.74476 10.9783 4.74144C11.0165 4.74171 11.0541 4.73258 11.088 4.71485C11.0946 4.70821 11.0913 4.69159 11.0813 4.69159C11.0481 4.69159 10.9949 4.69159 10.9683 4.70821ZM11.2608 4.78464C11.2874 4.74476 11.3538 4.74144 11.3272 4.79794C11.259 4.93497 11.1892 5.07124 11.1179 5.2067C11.0913 5.25323 11.0713 5.22997 11.0913 5.19341C11.1145 5.14688 11.2541 4.79461 11.2608 4.78464Z" fill="white"/>
<path fill-rule="evenodd" clip-rule="evenodd" d="M11.0048 5.27314C10.9982 5.24655 10.955 5.20667 10.9616 5.27978C10.9683 5.40607 11.1444 5.36619 11.1943 5.32299C11.2441 5.27978 11.2042 5.46589 11.2674 5.48583C11.3006 5.4958 11.3671 5.44927 11.4003 5.40607C11.49 5.28975 11.5499 5.12027 11.6329 5.00727C11.6662 4.96075 11.6163 4.92751 11.5997 4.96407C11.5199 5.09036 11.4269 5.34957 11.3239 5.41604C11.2408 5.46921 11.2674 5.34957 11.2641 5.30969C11.2607 5.28311 11.2275 5.24323 11.1843 5.27978C11.1495 5.30761 11.1058 5.32179 11.0613 5.31966C11.0381 5.31966 11.0148 5.31966 11.0048 5.27314Z" fill="white"/>
<path fill-rule="evenodd" clip-rule="evenodd" d="M11.3172 5.0405C11.3172 5.03053 11.2807 5.02721 11.284 5.06376C11.284 5.09035 11.3172 5.09699 11.3205 5.09699C11.3704 5.05711 11.3106 5.07705 11.3172 5.03718V5.0405ZM11.2408 5.18672C11.2308 5.18672 11.2208 5.21996 11.2474 5.22328L11.377 5.21663C11.3903 5.21663 11.397 5.18672 11.3637 5.19005C11.3239 5.19005 11.274 5.18008 11.2408 5.19005V5.18672ZM9.18033 4.63505C9.19695 4.63505 9.2335 4.68158 9.23018 4.6982C9.23018 4.70484 9.1903 4.6982 9.18033 4.68823C9.17036 4.67826 9.17368 4.63505 9.18033 4.63505ZM9.00419 4.98068C8.97096 5.00062 9.01084 5.03718 9.03743 5.02056C9.13048 4.95742 9.27006 4.89427 9.30329 4.77131C9.31326 4.73143 9.34982 4.66829 9.38637 4.65499C9.41961 4.63838 9.47278 4.71814 9.50601 4.65499C9.52595 4.62176 9.59574 4.67826 9.61236 4.6417C9.6323 4.5985 9.62233 4.57523 9.62233 4.52871C9.62233 4.50212 9.59907 4.49548 9.58245 4.53868C9.5758 4.55862 9.58245 4.57856 9.57913 4.59185C9.57248 4.5985 9.55919 4.60514 9.54589 4.5985C9.53925 4.59185 9.54589 4.57523 9.52595 4.56526C9.51931 4.56526 9.50601 4.56194 9.49937 4.57191C9.4761 4.61511 9.46613 4.65499 9.42958 4.60514C9.39967 4.57191 9.38305 4.50212 9.36311 4.59517C9.35646 4.62841 9.30662 4.67493 9.27671 4.67493C9.24015 4.67493 9.25012 4.57523 9.17036 4.59185C9.12716 4.60182 9.13048 4.68158 9.13713 4.70817C9.1471 4.75137 9.27006 4.72146 9.26009 4.74805C9.24015 4.83778 9.11386 4.92751 9.00419 4.98068ZM8.2498 5.41936C8.24648 5.43597 8.26642 5.47585 8.28636 5.47918C8.3063 5.47918 8.31959 5.43597 8.31294 5.41936C8.3063 5.40939 8.25313 5.40939 8.2498 5.41936ZM8.35947 5.5822C8.34618 5.56891 8.3063 5.60546 8.33953 5.63205C8.35615 5.64866 8.42261 5.6686 8.43923 5.63869C8.46582 5.59881 8.41597 5.45591 8.43923 5.4393C8.45585 5.42268 8.53228 5.53235 8.57216 5.539C8.66189 5.55229 8.63863 5.38612 8.73833 5.39942C8.80147 5.40606 8.80812 5.3263 8.79815 5.27313C8.7915 5.22328 8.71174 5.15349 8.67519 5.12026C8.62866 5.08038 8.6054 5.15349 8.63531 5.17343C8.67519 5.20666 8.74498 5.26981 8.75495 5.30969C8.75827 5.32963 8.70842 5.36951 8.68848 5.35954C8.64195 5.33295 8.60207 5.2266 8.56219 5.20334C8.5489 5.19669 8.51567 5.21331 8.52896 5.24654C8.5489 5.2831 8.62866 5.33627 8.63198 5.37615C8.63531 5.40939 8.59875 5.4825 8.57216 5.4825C8.54225 5.4825 8.47246 5.39277 8.4492 5.34957C8.43591 5.33295 8.39935 5.33295 8.3927 5.36286C8.39054 5.42424 8.39613 5.48565 8.40932 5.54564C8.41597 5.59881 8.37941 5.60214 8.35947 5.5822ZM8.22654 5.29639C8.21325 5.30969 8.25313 5.33627 8.25977 5.32963C8.27307 5.31633 8.32956 5.25319 8.31959 5.22993C8.30962 5.20999 8.23318 5.16346 8.21989 5.18672C8.19663 5.22328 8.293 5.24322 8.27639 5.25319C8.2578 5.26515 8.24102 5.2797 8.22654 5.29639ZM8.36279 5.01724C8.36279 5.01724 8.38938 5.10032 8.40932 5.06376C8.42261 5.0405 8.36279 5.01724 8.36279 5.01724ZM8.40267 5.15017C8.39603 5.15017 8.36944 5.17343 8.38606 5.1834C8.41264 5.19669 8.48243 5.20999 8.46582 5.16014C8.45585 5.13023 8.57216 5.16014 8.54225 5.08038C8.53024 5.05578 8.51035 5.0359 8.48576 5.02388C8.47246 5.02388 8.43591 5.0405 8.45917 5.05379C8.47579 5.06044 8.52564 5.09035 8.50902 5.11029C8.48576 5.13023 8.47246 5.10032 8.44588 5.10696C8.43258 5.10696 8.44255 5.14684 8.43258 5.15681C8.43258 5.16346 8.40932 5.14352 8.40267 5.14684V5.15017ZM8.58546 4.83445C8.56495 4.8514 8.55088 4.87486 8.54558 4.90092C8.54558 4.90757 8.55555 4.92086 8.56219 4.91754C8.58268 4.902 8.59685 4.87957 8.60207 4.85439C8.60207 4.84442 8.59543 4.82781 8.58546 4.83445ZM8.67851 4.82448C8.65192 4.79125 8.71174 4.73808 8.73501 4.80787C8.75162 4.85107 8.91779 5.07041 8.95102 5.14352C8.97761 5.19337 8.95102 5.21331 8.92111 5.17675C8.83803 5.07041 8.76824 4.93748 8.67851 4.82448ZM8.85132 4.82781C8.88123 4.79457 8.94105 4.72811 8.92443 4.69487C8.91114 4.66164 8.87458 4.66164 8.86794 4.67161C8.8347 4.71481 8.89452 4.70484 8.88455 4.71814C8.86794 4.75137 8.85132 4.77131 8.84135 4.80454C8.83803 4.81451 8.84467 4.83445 8.85132 4.82781ZM11.4369 4.93415C11.4136 4.91754 11.4568 4.83445 11.4867 4.86769C11.5631 4.95742 11.5997 5.25319 11.623 5.47585C11.623 5.47585 11.5897 5.50576 11.5897 5.49912C11.5897 5.3828 11.5399 5.02056 11.4369 4.93415ZM9.67218 4.64835C9.64559 4.58853 9.70874 4.56859 9.71871 4.60847C9.76191 4.80122 9.86825 4.94745 9.95134 5.07705C9.9746 5.11693 9.95134 5.14352 9.89484 5.10364C9.85496 5.07705 9.81176 4.97403 9.79514 4.97071C9.75526 4.96406 9.66886 5.13687 9.49272 5.08702C9.44619 5.07373 9.44952 4.93748 9.44619 4.87766C9.44619 4.84775 9.47943 4.84442 9.47943 4.87766C9.47943 4.93415 9.47943 5.05047 9.54922 5.05712C9.60904 5.05712 9.73532 4.97736 9.76191 4.91089C9.78849 4.84442 9.69877 4.71481 9.67218 4.64502V4.64835Z" fill="white"/>
<path fill-rule="evenodd" clip-rule="evenodd" d="M11.4834 5.45262C11.4967 5.41274 11.6861 5.0937 11.7127 5.02391C11.726 4.99068 11.7792 5.08373 11.726 5.13358C11.6795 5.17346 11.5432 5.39945 11.5167 5.47921C11.5034 5.51244 11.4701 5.49582 11.4834 5.45262Z" fill="white"/>
<path fill-rule="evenodd" clip-rule="evenodd" d="M11.8057 5.15019C11.839 5.01726 11.9254 5.17013 11.8489 5.24325C11.736 5.35624 11.6994 5.57225 11.5166 5.60549C11.4701 5.61546 11.3837 5.58222 11.3571 5.56228C11.3471 5.55564 11.3637 5.50911 11.3937 5.53237C11.4369 5.56561 11.5299 5.57558 11.5798 5.5357C11.6883 5.42983 11.7664 5.29666 11.8057 5.15019ZM9.91145 5.57225C9.90148 5.58222 9.87822 5.58222 9.8749 5.59552C9.86493 5.64204 9.8749 5.66863 9.86493 5.71516C9.85496 5.76168 9.82173 5.76168 9.82505 5.72513C9.82505 5.6786 9.86825 5.60881 9.83834 5.60549C9.8184 5.60216 9.80511 5.57558 9.82505 5.56228C9.86161 5.53902 9.88155 5.54234 9.90481 5.54899C9.91478 5.55231 9.9181 5.56561 9.91145 5.57225Z" fill="white"/>
<path fill-rule="evenodd" clip-rule="evenodd" d="M9.88485 5.5058C9.83832 5.55233 9.7918 5.56894 9.7486 5.62212C9.72866 5.64206 9.73198 5.67197 9.71869 5.70188C9.70872 5.73179 9.67216 5.73511 9.66219 5.73179C9.64557 5.71849 9.6489 5.66532 9.62896 5.69191C9.60902 5.72182 9.59905 5.75837 9.57246 5.75837C9.5492 5.75837 9.50599 5.70852 9.52926 5.70852C9.60569 5.69855 9.60237 5.64206 9.62896 5.63541C9.66219 5.63209 9.66219 5.68526 9.68545 5.67529C9.69875 5.66864 9.70872 5.6055 9.72533 5.58888C9.77518 5.53571 9.81506 5.50912 9.86823 5.46924C9.8915 5.4493 9.91144 5.48586 9.88485 5.50912V5.5058ZM10.061 5.67197C10.0211 5.67861 10.0278 5.72846 10.041 5.73179C10.0577 5.74176 10.0876 5.74508 10.0975 5.68858C10.1042 5.66532 10.1075 5.8049 10.1574 5.75173C10.1906 5.71849 10.2604 5.75837 10.2903 5.71849C10.3136 5.68858 10.3235 5.66864 10.3036 5.62876C10.2969 5.61879 10.2704 5.62212 10.2704 5.65203C10.2704 5.67861 10.2537 5.70852 10.2272 5.7052C10.2139 5.70188 10.2338 5.64206 10.2205 5.62544C10.2174 5.6224 10.2132 5.62069 10.2089 5.62069C10.2045 5.62069 10.2003 5.6224 10.1972 5.62544C10.1873 5.63873 10.2072 5.69855 10.1773 5.7052C10.1374 5.71185 10.1574 5.66532 10.1441 5.65867C10.0876 5.63209 10.0842 5.66532 10.061 5.66864V5.67197ZM10.3601 5.57227C10.39 5.56562 10.38 5.56562 10.4266 5.52906C10.4432 5.51577 10.4465 5.55565 10.4432 5.57227C10.4432 5.59553 10.4099 5.57891 10.4 5.60218C10.3867 5.63209 10.3933 5.70188 10.3867 5.72846C10.3867 5.74176 10.3601 5.74176 10.3601 5.72846C10.3534 5.69523 10.3634 5.662 10.3601 5.61879C10.3601 5.6055 10.3435 5.58224 10.3601 5.57559V5.57227ZM10.1939 5.48918C10.1873 5.51909 10.1873 5.54236 10.1873 5.56562C10.1873 5.58224 10.2205 5.57227 10.2205 5.56894C10.2205 5.54236 10.2272 5.50248 10.2205 5.49251C10.2139 5.48918 10.1972 5.48254 10.1939 5.48918Z" fill="white"/>
<path fill-rule="evenodd" clip-rule="evenodd" d="M9.9846 5.18011L9.93807 5.36622L9.87161 5.23993V5.36954L9.72538 5.19673L9.77523 5.38284L9.6423 5.26984L9.71541 5.39613L9.48278 5.24658L9.629 5.41939L9.4429 5.32634L9.57583 5.43933L9.27673 5.32634L9.56586 5.46924C9.69721 5.40945 9.84031 5.37992 9.9846 5.38284C10.1474 5.38284 10.2937 5.41607 10.4 5.46924L10.6925 5.32634L10.3934 5.43933L10.5263 5.32634L10.3435 5.41939L10.4864 5.24658L10.2538 5.39613L10.3269 5.26984L10.194 5.37951L10.2438 5.19673L10.1009 5.36954V5.23993L10.0344 5.36622L9.9846 5.18011Z" fill="white"/>
<path d="M9.72812 9.21877L9.71875 9.30002H9.70625L9.70312 9.24377C9.69943 9.22667 9.6942 9.20994 9.6875 9.19378C9.6836 9.17977 9.67837 9.16616 9.67187 9.15315L9.64062 9.1094L9.66562 9.04065C9.68649 9.06197 9.70248 9.08755 9.7125 9.11565C9.72345 9.14783 9.72874 9.18166 9.72812 9.21565M9.94687 9.0844C9.94687 9.10628 9.94062 9.1219 9.93125 9.13128C9.925 9.14065 9.9125 9.15002 9.89062 9.15315L9.90312 9.20002C9.90625 9.22074 9.90625 9.24181 9.90312 9.26252C9.90248 9.27609 9.90143 9.28964 9.9 9.30315H9.8875C9.88754 9.28955 9.88649 9.27596 9.88437 9.26252C9.88326 9.25194 9.88117 9.24148 9.87813 9.23127L9.86563 9.20002C9.85943 9.18492 9.85212 9.17029 9.84375 9.15627L9.8125 9.10315L9.83125 9.04065L9.8625 9.0719C9.87188 9.07815 9.88125 9.08127 9.89375 9.08127C9.91875 9.08127 9.93125 9.06877 9.93125 9.04065H9.94375V9.0844M10.1438 9.2344L10.1281 9.30002C10.1156 9.30002 10.1094 9.29065 10.1031 9.27815L10.0906 9.23752C10.0884 9.21991 10.0873 9.20216 10.0875 9.1844C10.0774 9.18781 10.0669 9.18991 10.0562 9.19065C10.0417 9.19136 10.0273 9.18693 10.0156 9.17815C10.0109 9.17443 10.007 9.1697 10.0043 9.16429C10.0016 9.15888 10.0001 9.15294 10 9.1469C10 9.11878 10.0094 9.09377 10.0219 9.07502C10.0375 9.05315 10.0531 9.04377 10.0688 9.04065C10.0844 9.04065 10.0938 9.04378 10.1 9.05315C10.1053 9.06164 10.1086 9.07128 10.1094 9.08127V9.14377C10.1094 9.1719 10.1125 9.19065 10.1187 9.20315C10.1187 9.21252 10.1281 9.2219 10.1438 9.2344ZM10.0813 9.12502C10.0813 9.10627 10.0719 9.10003 10.0562 9.10003C10.0498 9.09909 10.0433 9.10019 10.0375 9.10315C10.0313 9.10627 10.0312 9.1094 10.0312 9.11252C10.0312 9.1219 10.0406 9.12815 10.0625 9.12815L10.0813 9.12502ZM10.3531 9.21877L10.3437 9.30002C10.3281 9.28752 10.3125 9.26877 10.3 9.23752C10.2829 9.19604 10.2693 9.15318 10.2594 9.1094C10.2438 9.16768 10.225 9.22505 10.2031 9.28127C10.1962 9.29004 10.1877 9.29746 10.1781 9.30315V9.22503C10.1969 9.20315 10.2063 9.19065 10.2094 9.17815C10.2199 9.16154 10.2283 9.1437 10.2344 9.12502L10.25 9.04065H10.2625L10.2906 9.12502C10.2969 9.14377 10.3063 9.16252 10.3188 9.17502L10.35 9.21877" fill="white"/>
<path d="M10.9625 9.98125C10.975 9.99375 10.9812 10.0063 10.9844 10.0188L10.9969 10.0688L10.9719 10.0719C10.9633 10.0551 10.9528 10.0394 10.9406 10.025C10.9297 10.012 10.9182 9.9995 10.9062 9.9875C10.8889 9.97144 10.8712 9.95581 10.8531 9.94063C10.833 9.92213 10.8121 9.90441 10.7906 9.8875C10.7781 9.88125 10.7719 9.875 10.7719 9.87187C10.7669 9.86436 10.7637 9.85581 10.7625 9.84688C10.7592 9.83038 10.7571 9.81367 10.7562 9.79688L10.8406 9.86563C10.8675 9.88755 10.8936 9.91049 10.9187 9.93437L10.9625 9.98125ZM10.6656 9.8L10.6594 9.8625H10.5625L10.5719 9.8H10.6656ZM10.9281 10.0781L10.6906 10.15L10.65 10.0875L10.8531 10.025L10.8312 10C10.8232 9.99198 10.8136 9.98561 10.8031 9.98125C10.8032 9.98703 10.8021 9.99276 10.8 9.99813C10.7978 10.0035 10.7946 10.0084 10.7906 10.0125C10.7823 10.0217 10.7714 10.0282 10.7594 10.0312C10.7409 10.0363 10.7215 10.0363 10.7031 10.0312C10.6873 10.0294 10.6727 10.0216 10.6625 10.0094C10.6486 9.98911 10.641 9.96519 10.6406 9.94063C10.6406 9.90938 10.65 9.89062 10.6687 9.88437C10.6906 9.87812 10.725 9.88438 10.7625 9.90625C10.7993 9.92337 10.8314 9.94909 10.8562 9.98125L10.9281 10.0781ZM10.7469 9.95312C10.7389 9.94907 10.7305 9.94593 10.7219 9.94375C10.7157 9.94201 10.7092 9.94201 10.7031 9.94375C10.7 9.9441 10.697 9.94512 10.6943 9.94673C10.6916 9.94835 10.6893 9.95053 10.6875 9.95312C10.6854 9.95583 10.6844 9.95912 10.6844 9.9625C10.6844 9.96588 10.6854 9.96917 10.6875 9.97188L10.7031 9.97812H10.7219L10.7344 9.96875L10.7469 9.95312ZM10.4969 9.90312L10.4812 9.96562L10.3812 9.95625L10.3969 9.89375L10.4937 9.90312M10.7281 10.1438L10.675 10.1562C10.6574 10.1591 10.6394 10.1591 10.6219 10.1562C10.6055 10.1555 10.5895 10.1513 10.575 10.1438C10.5656 10.1594 10.55 10.175 10.5281 10.1812C10.5122 10.1894 10.4954 10.1957 10.4781 10.2L10.4406 10.2094L10.4094 10.1469L10.4437 10.1375C10.4576 10.1344 10.4711 10.1302 10.4844 10.125L10.5125 10.1094L10.4812 10.0938H10.4594C10.4573 10.0932 10.4552 10.0932 10.4531 10.0938C10.4501 10.0962 10.4479 10.0994 10.4469 10.1031H10.4312C10.4156 10.0781 10.4125 10.0562 10.4219 10.0406C10.4312 10.025 10.45 10.0156 10.4844 10.0094C10.5108 10.0021 10.5384 9.99995 10.5656 10.0031C10.5906 10.0063 10.6062 10.0156 10.6125 10.0312C10.6187 10.0375 10.6187 10.0469 10.6187 10.0531L10.6062 10.0906H10.6219C10.6281 10.0916 10.6344 10.0916 10.6406 10.0906L10.6937 10.0813L10.725 10.1438M10.475 10.2L10.425 10.2094C10.4013 10.2142 10.3767 10.2097 10.3562 10.1969C10.3311 10.1755 10.3126 10.1473 10.3031 10.1156L10.2781 10.0469C10.2734 10.034 10.2646 10.023 10.2531 10.0156C10.2443 10.0094 10.2349 10.0041 10.225 10L10.2437 9.93437C10.2625 9.94375 10.275 9.95312 10.2875 9.96562L10.3187 10.0188L10.3344 10.0656L10.3687 10.1344C10.3781 10.1437 10.3906 10.1469 10.4 10.1438L10.4531 10.1375L10.475 10.2ZM10.2562 9.96562L10.225 10.025L10.1312 10.0031L10.1625 9.94375L10.2562 9.96562ZM10.3125 10.2281L10.0781 10.25L10.0656 10.1875L10.2594 10.1656C10.255 10.156 10.2486 10.1475 10.2406 10.1406C10.2306 10.1337 10.2202 10.1274 10.2094 10.1219L10.225 10.0594C10.2469 10.0719 10.2625 10.0875 10.275 10.1C10.2844 10.1156 10.2937 10.1375 10.3 10.1656L10.3125 10.2281ZM10.125 10.2594C10.1019 10.2588 10.079 10.2567 10.0562 10.2531C10.0381 10.2494 10.0203 10.2442 10.0031 10.2375C9.99012 10.2433 9.97647 10.2475 9.96248 10.25C9.9448 10.2515 9.92703 10.2515 9.90935 10.25H9.84685C9.83376 10.2501 9.82087 10.2468 9.80935 10.2406C9.79998 10.2344 9.79373 10.225 9.78435 10.2094C9.77124 10.2231 9.75523 10.2338 9.73748 10.2406L9.68435 10.2437H9.63123L9.63748 10.1781H9.6906C9.7156 10.1781 9.73748 10.1781 9.75623 10.1656C9.7678 10.1613 9.77783 10.1537 9.78506 10.1437C9.79229 10.1336 9.79639 10.1217 9.79685 10.1094L9.81873 10.1125C9.81739 10.126 9.81635 10.1396 9.8156 10.1531C9.8156 10.1625 9.8156 10.1688 9.82498 10.175C9.83435 10.1813 9.84373 10.1844 9.85623 10.1844H9.9031C9.93435 10.1844 9.9531 10.1844 9.9656 10.1781C9.98435 10.1719 9.99373 10.1625 9.99685 10.1438L9.99998 10.1313C9.99998 10.1313 10.0094 10.1313 10.0156 10.125L10.0312 10.1187V10.1313C10.0313 10.1344 10.0313 10.1375 10.0312 10.1406L10.0219 10.175C10.0422 10.1819 10.0631 10.1872 10.0844 10.1906C10.0875 10.1844 10.0844 10.1781 10.0812 10.1687L10.0719 10.15C10.0719 10.1466 10.0729 10.1433 10.075 10.1406L10.0844 10.1344L10.1156 10.1062L10.1312 10.1375V10.1687L10.125 10.2594ZM9.77185 9.9875L9.70935 10.0281L9.66873 10L9.62498 10.0312L9.5656 10L9.62185 9.95938L9.66873 9.98438L9.7156 9.95312L9.77185 9.98438M9.6781 10.2406L9.44998 10.2031L9.47498 10.1406L9.66873 10.1719C9.66873 10.1594 9.66873 10.15 9.66248 10.1406C9.65804 10.1318 9.65281 10.1235 9.64685 10.1156L9.69685 10.0625C9.70935 10.0813 9.7156 10.0938 9.71873 10.1125C9.71873 10.1281 9.71248 10.15 9.7031 10.1781L9.6781 10.2406ZM9.48748 10.2094L9.43748 10.2C9.40935 10.1937 9.39373 10.1813 9.3906 10.1625C9.38435 10.1438 9.39373 10.1156 9.4156 10.075L9.4531 10.0125C9.46248 9.99687 9.4656 9.98438 9.46248 9.975C9.46065 9.96722 9.45747 9.95982 9.4531 9.95312L9.52185 9.90312C9.53123 9.91875 9.53123 9.93437 9.53123 9.94687C9.53123 9.9625 9.52185 9.98125 9.50935 10.0031L9.48435 10.0469C9.47033 10.0676 9.46075 10.091 9.45623 10.1156C9.45623 10.1281 9.46248 10.1344 9.47185 10.1375L9.52185 10.15L9.48748 10.2125M9.36873 9.9625L9.2906 9.99687L9.23435 9.94375L9.3156 9.9125L9.36873 9.96562M9.33748 10.1719C9.32321 10.189 9.30633 10.2038 9.28748 10.2156C9.27133 10.2256 9.25321 10.232 9.23435 10.2344L9.15935 10.2312C9.12954 10.2268 9.10023 10.2195 9.07185 10.2094C9.03161 10.1981 8.99499 10.1766 8.9656 10.1469C8.94685 10.1219 8.94685 10.1 8.9656 10.0781C8.98318 10.0578 9.00437 10.0408 9.0281 10.0281C9.0531 10.0125 9.0906 9.99687 9.14685 9.97812L9.15935 9.99375L9.07185 10.0312C9.05623 10.0406 9.0406 10.05 9.03123 10.0625C9.01873 10.075 9.02185 10.0938 9.03748 10.1125C9.09388 10.1562 9.163 10.1804 9.23435 10.1812C9.27185 10.1812 9.29685 10.1719 9.30623 10.1594C9.3156 10.15 9.31873 10.1406 9.32185 10.1281L9.3281 10.0781L9.40623 10.0312C9.40666 10.0469 9.40561 10.0626 9.4031 10.0781C9.39642 10.0969 9.38576 10.1139 9.37185 10.1281L9.33435 10.1719" fill="#BF0000"/>
</g>
<defs>
<clipPath id="clip0_14_528">
<rect width="20" height="15" fill="white"/>
</clipPath>
</defs>
</svg>
