<svg width="20" height="15" viewBox="0 0 20 15" fill="none" xmlns="http://www.w3.org/2000/svg">
<g clip-path="url(#clip0_14_536)">
<path d="M0 0H20V15H0V0Z" fill="#FF0000"/>
<path d="M8.50002 2.91565C8.35627 2.91565 8.11565 2.96252 8.11877 3.0719C7.71252 3.00627 7.6719 3.1719 7.6969 3.3219C7.7344 3.26252 7.78127 3.22815 7.81877 3.22502C7.8719 3.21565 7.92815 3.2344 7.98752 3.26877C8.04353 3.30391 8.09407 3.34708 8.13752 3.3969C7.99377 3.43127 7.88127 3.4094 7.76877 3.39065C7.7052 3.3771 7.64477 3.35165 7.59065 3.31565C7.54377 3.2844 7.52815 3.25315 7.45627 3.18127C7.3719 3.09377 7.28127 3.11877 7.3094 3.25315C7.37502 3.37815 7.4844 3.4344 7.6219 3.4594C7.68752 3.46877 7.78752 3.49065 7.90002 3.49065C8.01252 3.49065 8.13752 3.47502 8.20627 3.49065C8.16565 3.51565 8.11877 3.56252 8.02502 3.57815C7.93127 3.5969 7.79065 3.5219 7.70315 3.50315C7.71252 3.57502 7.80627 3.64377 7.98752 3.68127C8.28752 3.74377 8.5344 3.79377 8.70002 3.8844C8.831 3.95743 8.94666 4.05505 9.04065 4.1719C9.18752 4.34377 9.1969 4.47815 9.20315 4.5094C9.2344 4.7844 9.13752 4.94065 8.95627 4.99065C8.86877 5.01252 8.70627 4.96877 8.65002 4.90002C8.58752 4.83127 8.5344 4.71252 8.55002 4.52502C8.56565 4.45627 8.6469 4.26565 8.57815 4.22815C8.2523 4.04909 7.91513 3.89146 7.56877 3.75627C7.49065 3.72502 7.42815 3.83127 7.40315 3.87502C7.1724 3.84286 6.95171 3.7597 6.75712 3.63159C6.56252 3.50348 6.39891 3.33364 6.27815 3.1344C6.1469 2.8969 5.92502 3.1344 5.96252 3.36252C6.0219 3.61252 6.21252 3.79377 6.44377 3.92502C6.67815 4.05315 6.97502 4.18127 7.2719 4.17502C7.4344 4.20627 7.43127 4.41252 7.24065 4.45315C6.86252 4.45315 6.5594 4.4469 6.27502 4.1719C6.0594 3.97502 5.94065 4.2094 6.00002 4.34065C6.10627 4.75002 6.69065 4.86565 7.28127 4.7344C7.51252 4.6969 7.37502 4.94065 7.31252 4.94377C7.06252 5.1219 6.6219 5.29377 6.23127 4.94377C6.05315 4.80627 5.93127 4.91877 6.00002 5.11565C6.1719 5.63127 6.8344 5.5219 7.28752 5.2719C7.40315 5.20627 7.5094 5.35627 7.36877 5.4719C6.80315 5.86565 6.5219 5.8719 6.26565 5.7219C5.9469 5.59377 5.9219 5.9469 6.1094 6.06565C6.31877 6.19065 6.85315 6.0969 7.2469 5.8469C7.41565 5.7219 7.4219 5.91877 7.31565 5.9969C6.85002 6.40002 6.66565 6.50627 6.18127 6.44065C5.94065 6.4219 5.94377 6.71877 6.13127 6.8344C6.39065 6.99377 6.8969 6.73127 7.28752 6.40315C7.45315 6.31565 7.48127 6.4594 7.40002 6.63127C7.22703 6.87605 6.99186 7.07023 6.71877 7.19377C6.50002 7.27815 6.29377 7.26565 6.1469 7.21565C5.96565 7.15315 5.94377 7.34065 6.04377 7.5094C6.10315 7.61252 6.35002 7.64377 6.61877 7.55002C6.88752 7.45627 7.17502 7.23127 7.3719 6.9719C7.54377 6.81877 7.52502 7.0219 7.44377 7.16565C7.05002 7.79065 6.68752 8.0219 6.2094 7.9844C6.00002 7.9469 5.95002 8.1094 6.0844 8.26565C6.3219 8.4594 6.61565 8.45315 6.87815 8.2594C7.10627 8.04065 7.5469 7.5594 7.77815 7.30315C7.94065 7.17502 7.99377 7.30315 7.94377 7.56565C7.90002 7.71565 7.79377 7.87815 7.4969 7.99065C7.29377 8.10627 7.4469 8.26565 7.5969 8.2719C7.68127 8.2719 7.85002 8.1719 7.98127 8.02815C8.15002 7.8344 8.16252 7.70627 8.25627 7.40627C8.34377 7.26252 8.50315 7.33127 8.50315 7.48127C8.42502 7.78127 8.36252 7.8344 8.20627 7.95627C8.0594 8.0969 8.3094 8.14377 8.39377 8.0844C8.63752 7.9219 8.72502 7.7094 8.80627 7.51565C8.86877 7.37815 9.03752 7.44377 8.95627 7.6719C8.76877 8.21565 8.45627 8.42815 7.91565 8.54065C7.86252 8.55002 7.82815 8.58127 7.8469 8.64377L8.06565 8.86252C7.73127 8.96252 7.4594 9.01877 7.1219 9.11252L6.6594 8.80627C6.61877 8.70627 6.5969 8.55002 6.35315 8.6594C6.19065 8.5844 6.11252 8.61252 6.0219 8.69065C6.15315 8.69065 6.2094 8.72815 6.26252 8.78752C6.33127 8.96565 6.48752 8.9844 6.6469 8.9344C6.75002 9.01877 6.80315 9.08752 6.9094 9.17502L6.38752 9.1594C6.20002 8.96252 6.05627 8.9719 5.92502 9.12815C5.8219 9.14377 5.78127 9.14377 5.71252 9.26565C5.81877 9.2219 5.88752 9.2094 5.9344 9.25627C6.13127 9.3719 6.2594 9.3469 6.35627 9.25627L6.90315 9.29065C6.8344 9.35315 6.74065 9.3844 6.66877 9.44065C6.38752 9.3594 6.23752 9.4719 6.18752 9.70002C6.14803 9.79147 6.13503 9.89217 6.15002 9.99065C6.17502 9.8969 6.2219 9.81877 6.30315 9.7719C6.55315 9.8344 6.6469 9.73127 6.66252 9.58127C6.78752 9.48127 6.96877 9.4594 7.09065 9.3594C7.2344 9.40315 7.30315 9.43127 7.4469 9.47815C7.4969 9.6344 7.61252 9.69377 7.80002 9.65315C8.01877 9.6594 7.98127 9.75315 8.00002 9.82502C8.06252 9.7219 8.0594 9.61877 7.9219 9.52502C7.8719 9.39065 7.7594 9.32815 7.61565 9.40627C7.47815 9.36877 7.44377 9.31252 7.30627 9.2719C7.65002 9.16252 7.89377 9.13752 8.23752 9.02815L8.47815 9.24065C8.52502 9.26877 8.56877 9.27502 8.5969 9.24065C8.81252 8.92815 8.9094 8.65627 9.10627 8.45002C9.1844 8.36252 9.28127 8.25002 9.38752 8.2219C9.44065 8.20627 9.50627 8.21565 9.55002 8.26252C9.59065 8.30627 9.62502 8.39065 9.61252 8.51877C9.59065 8.6969 9.5469 8.75627 9.4969 8.86252C9.44377 8.9719 9.3844 9.03752 9.31877 9.1219C9.19377 9.28752 9.02502 9.3844 8.92502 9.45002C8.72502 9.57815 8.64377 9.5219 8.48752 9.51252C8.28752 9.5344 8.23752 9.63127 8.40002 9.76565C8.55002 9.8469 8.68752 9.85627 8.80002 9.8344C8.89377 9.81565 9.00627 9.69377 9.08752 9.62815C9.17502 9.52502 9.32502 9.6469 9.2219 9.76877C9.03752 9.98752 8.85627 10.1313 8.62815 10.1281C8.38752 10.1594 8.4344 10.2938 8.59065 10.3594C8.87815 10.475 9.1344 10.2563 9.26565 10.1094C9.36565 10 9.43752 9.9969 9.4219 10.1688C9.31877 10.4781 9.1844 10.5969 8.9594 10.6125C8.77815 10.5938 8.77502 10.7375 8.9094 10.8313C9.2094 11.0375 9.42815 10.6813 9.53127 10.4688C9.60315 10.275 9.71565 10.3656 9.72815 10.525C9.72815 10.7406 9.6344 10.9125 9.37502 11.1313C9.5719 11.4469 9.80315 11.7688 10 12.0844L10.6 5.3969L10 4.34377C9.93752 4.28752 9.72502 4.03752 9.6719 4.00002C9.65002 3.98127 9.64065 3.96877 9.66877 3.95627C9.6969 3.94377 9.76252 3.93127 9.8094 3.92502C9.6844 3.7969 9.5719 3.75627 9.33127 3.68752C9.39065 3.66252 9.4469 3.67502 9.6219 3.66877C9.51452 3.5245 9.36815 3.41391 9.20002 3.35002C9.33127 3.25627 9.35627 3.25002 9.48752 3.14065C9.28051 3.12466 9.07603 3.08481 8.87815 3.0219C8.75998 2.96574 8.63322 2.92983 8.50315 2.91565H8.50002ZM8.52502 3.17815C8.64377 3.17815 8.71565 3.21877 8.71565 3.26877C8.71565 3.31877 8.64377 3.3594 8.52502 3.3594C8.40627 3.3594 8.33127 3.31252 8.33127 3.26565C8.33127 3.21565 8.40627 3.17815 8.52502 3.17815Z" fill="black"/>
<path d="M11.5 2.91565C11.6437 2.91565 11.8844 2.96252 11.8812 3.0719C12.2875 3.00627 12.3281 3.1719 12.3031 3.3219C12.2656 3.26252 12.2187 3.22815 12.1812 3.22502C12.1281 3.21565 12.0719 3.2344 12.0125 3.26877C11.9565 3.30391 11.9059 3.34708 11.8625 3.3969C12.0062 3.43127 12.1187 3.4094 12.2312 3.39065C12.2948 3.3771 12.3552 3.35165 12.4094 3.31565C12.4562 3.2844 12.4719 3.25315 12.5437 3.18127C12.6281 3.09377 12.7187 3.11877 12.6906 3.25315C12.625 3.37815 12.5156 3.4344 12.3781 3.4594C12.3125 3.46877 12.2125 3.49065 12.1 3.49065C11.9875 3.49065 11.8625 3.47502 11.7937 3.49065C11.8344 3.51565 11.8812 3.56252 11.975 3.57815C12.0687 3.5969 12.2094 3.5219 12.2969 3.50315C12.2875 3.57502 12.1937 3.64377 12.0125 3.68127C11.7125 3.74377 11.4656 3.79377 11.3 3.8844C11.169 3.95743 11.0533 4.05505 10.9594 4.1719C10.8125 4.34377 10.8031 4.47815 10.7969 4.5094C10.7656 4.7844 10.8625 4.94065 11.0437 4.99065C11.1312 5.01252 11.2937 4.96877 11.35 4.90002C11.4125 4.83127 11.4656 4.71252 11.45 4.52502C11.4344 4.45627 11.3531 4.26565 11.4219 4.22815C11.7477 4.04909 12.0849 3.89146 12.4312 3.75627C12.5094 3.72502 12.5719 3.83127 12.5969 3.87502C12.8276 3.84286 13.0483 3.7597 13.2429 3.63159C13.4375 3.50348 13.6011 3.33364 13.7219 3.1344C13.8531 2.8969 14.075 3.1344 14.0375 3.36252C13.9781 3.61252 13.7875 3.79377 13.5562 3.92502C13.3219 4.05315 13.025 4.18127 12.7281 4.17502C12.5656 4.20627 12.5687 4.41252 12.7594 4.45315C13.1375 4.45315 13.4406 4.4469 13.725 4.1719C13.9406 3.97502 14.0594 4.2094 14 4.34065C13.8937 4.75002 13.3094 4.86565 12.7187 4.7344C12.4875 4.6969 12.625 4.94065 12.6875 4.94377C12.9375 5.1219 13.3781 5.29377 13.7687 4.94377C13.9469 4.80627 14.0687 4.91877 14 5.11565C13.8281 5.63127 13.1656 5.5219 12.7125 5.2719C12.5969 5.20627 12.4906 5.35627 12.6312 5.4719C13.1969 5.86565 13.4781 5.8719 13.7344 5.7219C14.0531 5.59377 14.0781 5.9469 13.8906 6.06565C13.6812 6.19065 13.1469 6.0969 12.7531 5.8469C12.5844 5.7219 12.5781 5.91877 12.6844 5.9969C13.15 6.40002 13.3344 6.50627 13.8187 6.44065C14.0594 6.4219 14.0562 6.71877 13.8687 6.8344C13.6094 6.99377 13.1031 6.73127 12.7125 6.40315C12.5469 6.31565 12.5187 6.4594 12.6 6.63127C12.773 6.87605 13.0081 7.07023 13.2812 7.19377C13.5 7.27815 13.7062 7.26565 13.8531 7.21565C14.0344 7.15315 14.0562 7.34065 13.9562 7.5094C13.8969 7.61252 13.65 7.64377 13.3812 7.55002C13.1125 7.45627 12.825 7.23127 12.6281 6.9719C12.4562 6.81877 12.475 7.0219 12.5562 7.16565C12.95 7.79065 13.3125 8.0219 13.7906 7.9844C14 7.9469 14.05 8.1094 13.9156 8.26565C13.6781 8.4594 13.3844 8.45315 13.1219 8.2594C12.8937 8.04065 12.4531 7.5594 12.2219 7.30315C12.0594 7.17502 12.0062 7.30315 12.0562 7.56565C12.1 7.71565 12.2062 7.87815 12.5031 7.99065C12.7062 8.10627 12.5531 8.26565 12.4031 8.2719C12.3187 8.2719 12.15 8.1719 12.0187 8.02815C11.85 7.8344 11.8375 7.70627 11.7437 7.40627C11.6562 7.26252 11.4969 7.33127 11.4969 7.48127C11.575 7.78127 11.6375 7.8344 11.7937 7.95627C11.9406 8.0969 11.6906 8.14377 11.6062 8.0844C11.3625 7.9219 11.275 7.7094 11.1937 7.51565C11.1312 7.37815 10.9625 7.44377 11.0437 7.6719C11.2312 8.21565 11.5437 8.42815 12.0844 8.54065C12.1375 8.55002 12.1719 8.58127 12.1531 8.64377L11.9344 8.86252C12.2687 8.96252 12.5406 9.01877 12.8781 9.11252L13.3406 8.80627C13.3812 8.70627 13.4031 8.55002 13.6469 8.6594C13.8094 8.5844 13.8875 8.61252 13.9781 8.69065C13.8469 8.69065 13.7906 8.72815 13.7375 8.78752C13.6687 8.96565 13.5125 8.9844 13.3531 8.9344C13.25 9.01877 13.1969 9.08752 13.0906 9.17502L13.6125 9.1594C13.8 8.96252 13.9437 8.9719 14.075 9.12815C14.1781 9.14377 14.2187 9.14377 14.2875 9.26565C14.1812 9.2219 14.1125 9.2094 14.0656 9.25627C13.8687 9.3719 13.7406 9.3469 13.6437 9.25627L13.0969 9.29065C13.1656 9.35315 13.2594 9.3844 13.3312 9.44065C13.6125 9.3594 13.7625 9.4719 13.8125 9.70002C13.852 9.79147 13.865 9.89217 13.85 9.99065C13.825 9.8969 13.7781 9.81877 13.6969 9.7719C13.4469 9.8344 13.3531 9.73127 13.3375 9.58127C13.2125 9.48127 13.0312 9.4594 12.9094 9.3594C12.7656 9.40315 12.6969 9.43127 12.5531 9.47815C12.5031 9.6344 12.3875 9.69377 12.2 9.65315C11.9812 9.6594 12.0187 9.75315 12 9.82502C11.9375 9.7219 11.9406 9.61877 12.0781 9.52502C12.1281 9.39065 12.2406 9.32815 12.3844 9.40627C12.5219 9.36877 12.5562 9.31252 12.6937 9.2719C12.35 9.16252 12.1062 9.13752 11.7625 9.02815L11.5219 9.24065C11.475 9.26877 11.4312 9.27502 11.4031 9.24065C11.1875 8.92815 11.0906 8.65627 10.8937 8.45002C10.8156 8.36252 10.7187 8.25002 10.6125 8.2219C10.5594 8.20627 10.4937 8.21565 10.45 8.26252C10.4094 8.30627 10.375 8.39065 10.3875 8.51877C10.4094 8.6969 10.4531 8.75627 10.5031 8.86252C10.5562 8.9719 10.6156 9.03752 10.6812 9.1219C10.8062 9.28752 10.975 9.3844 11.075 9.45002C11.275 9.57815 11.3562 9.5219 11.5125 9.51252C11.7125 9.5344 11.7625 9.63127 11.6 9.76565C11.45 9.8469 11.3125 9.85627 11.2 9.8344C11.1062 9.81565 10.9937 9.69377 10.9125 9.62815C10.825 9.52502 10.675 9.6469 10.7781 9.76877C10.9625 9.98752 11.1437 10.1313 11.3719 10.1281C11.6125 10.1594 11.5656 10.2938 11.4094 10.3594C11.1219 10.475 10.8656 10.2563 10.7344 10.1094C10.6344 10 10.5625 9.9969 10.5781 10.1688C10.6812 10.4781 10.8156 10.5969 11.0406 10.6125C11.2219 10.5938 11.225 10.7375 11.0906 10.8313C10.7906 11.0375 10.5719 10.6813 10.4687 10.4688C10.3969 10.275 10.2844 10.3656 10.2719 10.525C10.2719 10.7406 10.3656 10.9125 10.625 11.1313C10.4281 11.4469 10.1969 11.7688 9.99998 12.0844L9.39998 5.3969L9.99998 4.34377C10.0625 4.28752 10.275 4.03752 10.3281 4.00002C10.35 3.98127 10.3594 3.96877 10.3312 3.95627C10.3031 3.94377 10.2375 3.93127 10.1906 3.92502C10.3156 3.7969 10.4281 3.75627 10.6687 3.68752C10.6094 3.66252 10.5531 3.67502 10.3781 3.66877C10.4855 3.5245 10.6319 3.41391 10.8 3.35002C10.6687 3.25627 10.6437 3.25002 10.5125 3.14065C10.7195 3.12466 10.924 3.08481 11.1219 3.0219C11.24 2.96574 11.3668 2.92983 11.4969 2.91565H11.5ZM11.475 3.17815C11.3562 3.17815 11.2844 3.21877 11.2844 3.26877C11.2844 3.31877 11.3562 3.3594 11.475 3.3594C11.5937 3.3594 11.6687 3.31252 11.6687 3.26565C11.6687 3.21565 11.5937 3.17815 11.475 3.17815Z" fill="black"/>
</g>
<defs>
<clipPath id="clip0_14_536">
<rect width="20" height="15" fill="white"/>
</clipPath>
</defs>
</svg>
