<svg width="20" height="15" viewBox="0 0 20 15" fill="none" xmlns="http://www.w3.org/2000/svg">
<g clip-path="url(#clip0_14_377)">
<path fill-rule="evenodd" clip-rule="evenodd" d="M0 0H20V7.6125H0V0Z" fill="#FF0000"/>
<path fill-rule="evenodd" clip-rule="evenodd" d="M0 7.38751H20V15H0V7.38751Z" fill="black"/>
<path fill-rule="evenodd" clip-rule="evenodd" d="M7.14692 4.63124C12.3094 5.98436 8.99067 12.6187 4.9188 9.85624L4.6438 10.2812C7.04067 11.9875 9.41255 10.6125 10.0813 8.83124C10.775 6.99374 9.8438 4.40936 7.18755 4.14374L7.14692 4.63124Z" fill="#FFEC00"/>
<path fill-rule="evenodd" clip-rule="evenodd" d="M5.31252 10.3375L5.99065 10.6531L5.6719 11.3344L4.99377 11.0156L5.31252 10.3375ZM9.96877 7.22813H10.7188V7.97813H9.96877V7.22813ZM9.60315 6.0125L10.3 5.74375L10.5719 6.44063L9.87502 6.7125L9.60315 6.0125ZM8.79065 5.10313L9.32502 4.575L9.85315 5.10625L9.3219 5.63438L8.79065 5.10313ZM7.9719 3.85938L8.6719 4.12187L8.40627 4.82188L7.70627 4.55937L7.9719 3.85938ZM9.87502 8.4375L10.5719 8.71562L10.2906 9.40938L9.5969 9.13125L9.87502 8.4375ZM7.69065 10.625L8.37815 10.3344L8.67502 11.0219L7.98752 11.3156L7.69065 10.625ZM6.45627 10.7125H7.20627V11.4625H6.45627V10.7125ZM7.7469 7.0875L7.11252 6.61875L6.47815 7.075L6.72815 6.35625L6.09377 5.8875H6.8594L7.12502 5.18125L7.36877 5.89062L8.14065 5.88125L7.52815 6.35938L7.7469 7.09062V7.0875Z" fill="#FFEC00"/>
<path fill-rule="evenodd" clip-rule="evenodd" d="M10.5 10.825C10.4625 10.8375 10.3063 11.2125 10.1969 11.3938L10.3125 11.425C10.7375 11.575 10.95 11.7125 11.1313 11.9719C11.1732 12.0127 11.2283 12.0373 11.2866 12.0413C11.345 12.0453 11.4029 12.0285 11.45 11.9938C11.45 11.9938 11.5375 11.9625 11.65 11.8375C11.7438 11.6969 11.7188 11.5875 11.6063 11.4906C11.2625 11.2406 10.8906 11.0531 10.5 10.825Z" fill="#FFEE00"/>
<path fill-rule="evenodd" clip-rule="evenodd" d="M11.4156 11.65C11.4156 11.686 11.4013 11.7206 11.3758 11.7461C11.3503 11.7716 11.3157 11.7859 11.2797 11.7859C11.2436 11.7859 11.209 11.7716 11.1835 11.7461C11.158 11.7206 11.1437 11.686 11.1437 11.65C11.1437 11.6143 11.1579 11.5802 11.1831 11.555C11.2083 11.5298 11.2425 11.5156 11.2781 11.5156C11.3137 11.5156 11.3479 11.5298 11.3731 11.555C11.3983 11.5802 11.4125 11.6143 11.4125 11.65H11.4156ZM10.7468 11.225C10.7468 11.261 10.7325 11.2956 10.707 11.3211C10.6815 11.3466 10.647 11.3609 10.6109 11.3609C10.5749 11.3609 10.5403 11.3466 10.5148 11.3211C10.4893 11.2956 10.475 11.261 10.475 11.225C10.475 11.1889 10.4893 11.1544 10.5148 11.1289C10.5403 11.1034 10.5749 11.0891 10.6109 11.0891C10.647 11.0891 10.6815 11.1034 10.707 11.1289C10.7325 11.1544 10.7468 11.1889 10.7468 11.225ZM11.0875 11.4437C11.0875 11.4798 11.0732 11.5144 11.0477 11.5399C11.0222 11.5654 10.9876 11.5797 10.9515 11.5797C10.9155 11.5797 10.8809 11.5654 10.8554 11.5399C10.8299 11.5144 10.8156 11.4798 10.8156 11.4437C10.8156 11.4077 10.8299 11.3731 10.8554 11.3476C10.8809 11.3221 10.9155 11.3078 10.9515 11.3078C10.9876 11.3078 11.0222 11.3221 11.0477 11.3476C11.0732 11.3731 11.0875 11.4077 11.0875 11.4437Z" fill="black"/>
<path fill-rule="evenodd" clip-rule="evenodd" d="M10.1406 11.3656C8.80937 10.6063 7.41249 9.78751 6.07812 9.02814C5.49374 8.66251 5.46562 7.98439 5.85937 7.46876C5.89687 7.39689 5.94687 7.41251 5.96562 7.45314C6.01249 7.70314 6.15312 7.96251 6.32187 8.12501C7.70691 8.99625 9.07894 9.88802 10.4375 10.8C10.3312 10.9813 10.25 11.1844 10.1406 11.3625V11.3656Z" fill="#FFEE00"/>
<path fill-rule="evenodd" clip-rule="evenodd" d="M9.28748 9.54688L9.84373 10.0469L9.34373 10.6031L8.78748 10.1031L9.28748 9.54688Z" fill="#FFEC00"/>
<path d="M10.3594 10.9L6.45312 8.54065M9.87812 10.3563L8.5625 9.50315M9.13125 10.8375L7.79062 10.0625" stroke="black" stroke-width="0.15"/>
</g>
<defs>
<clipPath id="clip0_14_377">
<rect width="20" height="15" fill="white"/>
</clipPath>
</defs>
</svg>
