<svg width="20" height="15" viewBox="0 0 20 15" fill="none" xmlns="http://www.w3.org/2000/svg">
<g clip-path="url(#clip0_14_513)">
<path d="M0 0V15H20V0H0Z" fill="#006233"/>
<path fill-rule="evenodd" clip-rule="evenodd" d="M8.11525 7.76953C7.821 8.17166 8.03345 8.4332 8.33679 8.45181C8.53674 8.46524 8.95255 8.1944 8.95142 7.87601L8.83781 7.81812C8.90143 7.98145 8.83553 8.03314 8.70034 8.14478C8.43336 8.36497 7.88803 8.38048 8.11525 7.76953Z" fill="white" stroke="white" stroke-width="0.00693577"/>
<path fill-rule="evenodd" clip-rule="evenodd" d="M10.4477 8.82394C12.1041 8.86633 12.6313 7.40771 11.6088 6.15894L11.5077 6.29642C11.5736 6.87843 11.669 7.45216 11.6781 8.04863C11.4781 8.26262 11.1873 8.18302 11.1294 7.94526C11.1328 7.62273 11.0169 7.34982 10.8703 7.08931L10.7885 7.2268C10.884 7.44079 10.9873 7.68165 11.0089 7.94526C10.5363 8.4611 10.0137 8.56551 10.208 7.88737C9.83421 8.48177 10.4 8.90044 11.0407 7.98557C11.1782 8.60996 11.7099 8.2223 11.7417 8.08791C11.7996 7.67855 11.7701 7.01902 11.6531 6.49801C12.1143 7.22473 12.1303 7.74885 11.8849 8.09929C11.6122 8.48901 11.0192 8.67095 10.4477 8.82394Z" fill="white" stroke="white" stroke-width="0.0173394"/>
<path fill-rule="evenodd" clip-rule="evenodd" d="M11.3873 7.17515C11.0328 7.19892 10.851 7.13276 11.043 6.89397C11.2327 6.66034 11.41 6.84641 11.4577 7.15861C11.502 7.45116 10.8351 7.82434 10.6045 7.82434C10.2557 7.82434 10.0944 7.41601 10.4159 7.04903C10.0024 8.11999 11.3089 7.49871 11.3873 7.17515ZM11.1419 6.92705C11.0987 6.92498 11.0669 6.99424 11.0885 7.00768C11.1509 7.04696 11.2498 7.02319 11.26 7.00354C11.2816 6.96013 11.2021 6.92911 11.1419 6.92705Z" fill="white" stroke="white" stroke-width="0.0173394"/>
<path fill-rule="evenodd" clip-rule="evenodd" d="M9.46268 7.68063C9.12185 8.29055 9.46155 8.54278 9.89894 8.47248C10.1534 8.4301 10.4761 8.26573 10.6624 8.04141C10.6658 7.54728 10.6579 7.05728 10.6101 6.57865C10.7806 6.39361 10.5954 6.39465 10.5306 6.19617C10.5011 6.31195 10.4295 6.43703 10.4988 6.52697C10.5477 7.00973 10.5749 7.49869 10.5738 7.99696C10.2307 8.24816 9.97279 8.3412 9.78874 8.33913C9.40815 8.33603 9.32635 8.04451 9.46268 7.68063Z" fill="white" stroke="white" stroke-width="0.0173394"/>
<path fill-rule="evenodd" clip-rule="evenodd" d="M10.1591 7.84193C10.1534 7.38191 10.1455 6.85986 10.1 6.53837C10.2773 6.35953 10.091 6.35539 10.033 6.15485C9.99893 6.26856 9.92395 6.39261 9.98984 6.48461C10.0194 6.97668 10.0478 7.46874 10.0535 7.96081C10.0944 7.93703 10.1409 7.92773 10.1591 7.84193Z" fill="white" stroke="white" stroke-width="0.0173394"/>
<path fill-rule="evenodd" clip-rule="evenodd" d="M8.83671 7.82022C8.79353 7.7706 8.76286 7.71478 8.72764 7.66619C8.72196 7.59693 8.77308 7.53284 8.7799 7.49769C8.83784 7.57936 8.87192 7.64138 8.9185 7.6817M8.97985 7.71375C9.06506 7.74476 9.16958 7.74476 9.26615 7.74683C9.63879 7.75303 10.0307 7.69721 9.9887 8.15619C9.97642 8.32811 9.89333 8.48948 9.75602 8.6081C9.61871 8.72671 9.43729 8.79384 9.24797 8.79608C8.77422 8.79195 8.36977 8.31642 9.10028 7.44083C9.17072 7.4305 9.26274 7.44807 9.33886 7.45427C9.46951 7.46358 9.60357 7.45221 9.75694 7.34056C9.73876 7.05215 9.73876 6.77924 9.70014 6.51873C9.63424 6.42673 9.70922 6.30371 9.74331 6.18896C9.80125 6.38951 9.98643 6.39365 9.81034 6.57352C9.85237 6.86297 9.85692 7.15759 9.85692 7.33333C9.7683 7.45634 9.699 7.58659 9.43997 7.63621C9.17526 7.60107 9.05597 7.26407 8.7799 7.37571C8.85602 7.07179 9.55699 7.00253 9.62743 7.24236C9.58085 7.49252 8.92646 7.39225 8.75263 8.20064C8.69924 8.44977 8.98781 8.67927 9.28433 8.66066C9.57403 8.64309 9.88305 8.46011 9.91372 8.15206C9.93758 7.89465 9.53881 7.92463 9.37181 7.92773C9.12868 7.9329 8.97531 7.89879 8.88328 7.8502M9.13209 7.29301C9.17526 7.2558 9.32636 7.22995 9.38089 7.28991C9.34 7.31472 9.30023 7.34159 9.26729 7.37364C9.21048 7.34676 9.17299 7.31989 9.13209 7.29301Z" fill="white"/>
<path d="M8.83671 7.82022C8.79353 7.7706 8.76286 7.71478 8.72764 7.66619C8.72196 7.59693 8.77308 7.53284 8.7799 7.49769C8.83784 7.57936 8.87192 7.64138 8.9185 7.6817M8.97985 7.71375C9.06506 7.74476 9.16958 7.74476 9.26615 7.74683C9.63879 7.75303 10.0307 7.69721 9.9887 8.15619C9.97642 8.32811 9.89333 8.48948 9.75602 8.6081C9.61871 8.72671 9.43729 8.79384 9.24797 8.79608C8.77422 8.79195 8.36977 8.31642 9.10028 7.44083C9.17072 7.4305 9.26274 7.44807 9.33886 7.45427C9.46951 7.46358 9.60357 7.45221 9.75694 7.34056C9.73876 7.05215 9.73876 6.77924 9.70014 6.51873C9.63424 6.42673 9.70922 6.30371 9.74331 6.18896C9.80125 6.38951 9.98643 6.39365 9.81034 6.57352C9.85237 6.86297 9.85692 7.15759 9.85692 7.33333C9.7683 7.45634 9.699 7.58659 9.43997 7.63621C9.17526 7.60107 9.05597 7.26407 8.7799 7.37571C8.85602 7.07179 9.55699 7.00253 9.62743 7.24236C9.58085 7.49252 8.92646 7.39225 8.75263 8.20064C8.69924 8.44977 8.98781 8.67927 9.28433 8.66066C9.57403 8.64309 9.88305 8.46011 9.91372 8.15206C9.93758 7.89465 9.53881 7.92463 9.37181 7.92773C9.12868 7.9329 8.97531 7.89879 8.88328 7.8502M9.13209 7.29301C9.17526 7.2558 9.32636 7.22995 9.38089 7.28991C9.34 7.31472 9.30023 7.34159 9.26729 7.37364C9.21048 7.34676 9.17299 7.31989 9.13209 7.29301Z" stroke="white" stroke-width="0.00693577"/>
<path fill-rule="evenodd" clip-rule="evenodd" d="M9.50247 6.43805C9.54009 6.50542 9.56066 6.57959 9.56268 6.65514C9.53769 6.76265 9.43658 6.86292 9.33206 6.86602C9.2673 6.86809 9.19459 6.85155 9.14346 6.75955C9.13778 6.74818 9.11052 6.7213 9.08439 6.7337C8.96964 6.90531 8.88444 6.97767 8.78105 6.97663C8.57428 6.97353 8.63563 6.80607 8.44477 6.75438C8.36524 6.75231 8.23459 6.82571 8.16756 6.9694C7.91307 7.62583 7.68131 6.96733 7.78015 6.66134C7.79492 6.95389 7.87218 7.12756 7.9517 7.12239C8.00964 7.11723 8.06077 6.99524 8.13461 6.86706C8.19142 6.76885 8.32775 6.59208 8.47203 6.59208C8.60382 6.59518 8.52089 6.81537 8.78446 6.81227C8.9117 6.8102 9.02872 6.7213 9.14687 6.54349C9.173 6.53936 9.17982 6.58174 9.1855 6.59621C9.20368 6.6572 9.31956 6.82467 9.47634 6.67168C9.46839 6.6386 9.4718 6.58381 9.43203 6.57244L9.50247 6.43805Z" fill="white" stroke="white" stroke-width="0.0173394"/>
<path fill-rule="evenodd" clip-rule="evenodd" d="M10.3306 5.89432C10.1909 5.95738 10.0887 5.89949 10.0307 5.84366C10.1318 5.82506 10.2102 5.79198 10.2329 5.71961C10.1875 5.62658 10.0796 5.58626 9.92733 5.58523C9.72397 5.59039 9.61945 5.66483 9.60695 5.76717C9.70125 5.77027 9.78645 5.74649 9.82281 5.82919C9.6558 5.90362 9.45926 5.9305 9.24567 5.92946C8.89576 5.946 8.84463 5.80231 8.75261 5.6762C8.74579 5.66793 8.71512 5.65449 8.69921 5.65656C8.59128 5.65656 8.51176 5.99976 8.39019 5.99873C8.26863 5.98425 8.2959 5.77751 8.26068 5.65966C8.23114 5.8447 8.29817 6.53318 8.67422 5.78577C8.68558 5.76096 8.70148 5.7682 8.71171 5.78888C8.81282 5.99769 9.01845 6.07006 9.23999 6.08039C9.42518 6.0897 9.66148 6.0163 9.91483 5.88605C9.98186 5.95324 10.0353 6.02974 10.1761 6.04421C10.3409 6.05145 10.517 5.9429 10.5567 5.80852C10.5772 5.73926 10.5806 5.6028 10.4999 5.60073C10.3874 5.59763 10.3056 5.84573 10.3318 6.06902C10.334 6.06592 10.3465 6.0132 10.3465 6.0132M9.84894 5.71548C9.92278 5.68447 9.99436 5.66999 10.0512 5.73822C10.017 5.74695 9.98472 5.76094 9.95573 5.77957C9.92392 5.75683 9.88075 5.74546 9.84894 5.71548ZM10.392 5.86951C10.4102 5.79611 10.4204 5.73719 10.4863 5.69894C10.4999 5.77647 10.5022 5.81989 10.392 5.86951ZM10.8351 5.98322C10.8135 5.92016 10.7919 5.86537 10.7851 5.79714C10.7692 5.65862 10.8998 5.58006 11.018 5.59143C11.1395 5.6028 11.2202 5.64415 11.3361 5.68033C11.427 5.70824 11.5497 5.72995 11.6667 5.75993C11.7326 5.78681 11.6667 5.8571 11.6496 5.86641C11.3565 5.97082 11.1486 6.13621 10.9623 6.14345C10.851 6.14862 10.7521 6.08246 10.6624 5.94704C10.6567 5.68447 10.6465 5.37641 10.6181 5.1831C10.6612 5.14382 10.6703 5.11487 10.6908 5.08282C10.7135 5.33816 10.7226 5.60693 10.7283 5.87778C10.7521 5.9243 10.7817 5.96358 10.8351 5.98322ZM11.0225 6.00389C10.8657 6.04421 10.8851 5.92326 10.8703 5.84883C10.8532 5.762 10.8646 5.66379 10.9862 5.6886C11.1441 5.72685 11.2884 5.7775 11.4281 5.83126L11.0225 6.00389Z" fill="white"/>
<path d="M10.3306 5.89432C10.1909 5.95738 10.0887 5.89949 10.0307 5.84366C10.1318 5.82506 10.2102 5.79198 10.2329 5.71961C10.1875 5.62658 10.0796 5.58626 9.92733 5.58523C9.72397 5.59039 9.61945 5.66483 9.60695 5.76717C9.70125 5.77027 9.78645 5.74649 9.82281 5.82919C9.6558 5.90362 9.45926 5.9305 9.24567 5.92946C8.89576 5.946 8.84463 5.80231 8.75261 5.6762C8.74579 5.66793 8.71512 5.65449 8.69921 5.65656C8.59128 5.65656 8.51176 5.99976 8.39019 5.99873C8.26863 5.98425 8.2959 5.77751 8.26068 5.65966C8.23114 5.8447 8.29817 6.53318 8.67422 5.78577C8.68558 5.76096 8.70148 5.7682 8.71171 5.78888C8.81282 5.99769 9.01845 6.07006 9.23999 6.08039C9.42518 6.0897 9.66148 6.0163 9.91483 5.88605C9.98186 5.95324 10.0353 6.02974 10.1761 6.04421C10.3409 6.05145 10.517 5.9429 10.5567 5.80852C10.5772 5.73926 10.5806 5.6028 10.4999 5.60073C10.3874 5.59763 10.3056 5.84573 10.3318 6.06902C10.334 6.06592 10.3465 6.0132 10.3465 6.0132M9.84894 5.71548C9.92278 5.68447 9.99436 5.66999 10.0512 5.73822C10.017 5.74695 9.98472 5.76094 9.95573 5.77957C9.92392 5.75683 9.88075 5.74546 9.84894 5.71548ZM10.392 5.86951C10.4102 5.79611 10.4204 5.73719 10.4863 5.69894C10.4999 5.77647 10.5022 5.81989 10.392 5.86951ZM10.8351 5.98322C10.8135 5.92016 10.7919 5.86537 10.7851 5.79714C10.7692 5.65862 10.8998 5.58006 11.018 5.59143C11.1395 5.6028 11.2202 5.64415 11.3361 5.68033C11.427 5.70824 11.5497 5.72995 11.6667 5.75993C11.7326 5.78681 11.6667 5.8571 11.6496 5.86641C11.3565 5.97082 11.1486 6.13621 10.9623 6.14345C10.851 6.14862 10.7521 6.08246 10.6624 5.94704C10.6567 5.68447 10.6465 5.37641 10.6181 5.1831C10.6612 5.14382 10.6703 5.11487 10.6908 5.08282C10.7135 5.33816 10.7226 5.60693 10.7283 5.87778C10.7521 5.9243 10.7817 5.96358 10.8351 5.98322ZM11.0225 6.00389C10.8657 6.04421 10.8851 5.92326 10.8703 5.84883C10.8532 5.762 10.8646 5.66379 10.9862 5.6886C11.1441 5.72685 11.2884 5.7775 11.4281 5.83126L11.0225 6.00389Z" stroke="white" stroke-width="0.00693577"/>
<path fill-rule="evenodd" clip-rule="evenodd" d="M10.8691 6.13208L10.8907 6.22822H10.9078L10.901 6.13828" fill="white"/>
<path d="M10.8691 6.13208L10.8907 6.22822H10.9078L10.901 6.13828" stroke="white" stroke-width="0.00693577"/>
<path fill-rule="evenodd" clip-rule="evenodd" d="M8.36869 7.13688L8.44821 7.06245L8.54024 7.13378L8.45503 7.20304L8.36869 7.13688ZM8.57091 7.11207L8.65157 7.03764L8.7436 7.10897L8.65839 7.17823L8.57091 7.11207ZM8.00854 6.3409L8.08921 6.26647L8.18123 6.33779L8.09602 6.40705L8.00854 6.3409ZM8.0449 6.56005L8.12556 6.48562L8.21645 6.55695L8.13124 6.62621L8.0449 6.56005ZM9.50478 6.92703L9.57863 6.87224L9.64679 6.93944L9.56954 6.98906L9.50478 6.92703ZM8.53001 5.52423L8.58227 5.47565L8.64249 5.52217L8.58682 5.56765L8.53001 5.52423ZM8.66293 5.50873L8.71519 5.45911L8.77541 5.50666L8.71974 5.55111L8.66293 5.50873ZM11.4532 6.06385L11.4032 6.1021L11.3555 6.05765L11.4077 6.0225L11.4532 6.06385Z" fill="white" stroke="white" stroke-width="0.0693577" stroke-linecap="round" stroke-linejoin="round"/>
<path fill-rule="evenodd" clip-rule="evenodd" d="M9.10138 7.43561L9.0957 7.51728L9.23885 7.52968L9.3536 7.45111L9.10138 7.43561Z" fill="white" stroke="white" stroke-width="0.00693577"/>
<path fill-rule="evenodd" clip-rule="evenodd" d="M10.3114 5.90982L10.3534 5.90155L10.3489 6.00803L10.3228 6.01733L10.3114 5.90982Z" fill="white" stroke="white" stroke-width="0.0173394"/>
<path d="M9.99995 10.1969C11.6125 10.1969 12.925 9.00311 12.925 7.53436C12.9202 7.14338 12.8258 6.75869 12.6492 6.40983C12.4726 6.06097 12.2185 5.75721 11.9062 5.52186C12.2897 5.92733 12.5043 6.46374 12.5062 7.02186C12.5062 8.29686 11.3843 9.33124 9.99995 9.33124C8.61558 9.33124 7.4937 8.29686 7.4937 7.01874C7.4937 6.44686 7.7187 5.92186 8.0937 5.51874C7.78044 5.75456 7.52562 6.05928 7.34897 6.40934C7.17231 6.7594 7.07856 7.1454 7.07495 7.53749C7.07495 9.00311 8.38745 10.1969 9.99995 10.1969Z" fill="white"/>
<path d="M9.60414 11.679C8.95905 11.9725 8.15268 11.8925 7.47093 11.4923C7.44161 11.4789 7.42695 11.4989 7.45627 11.5723C7.52958 11.7657 7.58822 11.9192 7.3683 12.206C7.273 12.3327 7.38296 12.3527 7.54424 12.3394C8.36527 12.266 9.17164 12.0993 9.56016 11.9592L9.60414 11.679ZM9.58948 12.0259C9.33291 12.1193 8.89307 12.2327 8.40192 12.3127C8.20399 12.3394 8.21132 12.4528 8.56319 12.4928C8.92239 12.5262 9.38422 12.2927 9.66279 12.0859L9.58948 12.0259Z" fill="white" stroke="black" stroke-width="0.0895063"/>
<path d="M10 11.3855C10.088 11.3855 10.2493 11.3522 10.4105 11.3322C10.7111 11.2855 10.4912 11.7057 10 11.7057V11.8458C10.4985 11.8458 11.019 11.3522 10.909 11.1321C10.7551 10.8119 10.3299 11.0854 10 11.0854C9.67014 11.0854 9.24496 10.8119 9.09102 11.1321C8.98106 11.3522 9.50154 11.8458 10 11.8458V11.7057C9.50887 11.7057 9.28895 11.2855 9.5895 11.3322C9.75078 11.3522 9.91205 11.3855 10 11.3855Z" fill="white"/>
<path d="M10 11.7057C10.4912 11.7057 10.7111 11.2855 10.4105 11.3322C10.2493 11.3522 10.088 11.3855 10 11.3855C9.91205 11.3855 9.75078 11.3522 9.5895 11.3322C9.28895 11.2855 9.50887 11.7057 10 11.7057ZM10 11.7057V11.8458M10 11.8458C10.4985 11.8458 11.019 11.3522 10.909 11.1321C10.7551 10.8119 10.3299 11.0854 10 11.0854C9.67014 11.0854 9.24496 10.8119 9.09102 11.1321C8.98106 11.3522 9.50154 11.8458 10 11.8458Z" stroke="black" stroke-width="0.0895063"/>
<path d="M10.3958 11.679C11.0409 11.9725 11.8473 11.8925 12.529 11.4923C12.5583 11.4789 12.573 11.4989 12.5437 11.5723C12.4704 11.7657 12.4117 11.9192 12.6316 12.206C12.7269 12.3327 12.617 12.3527 12.4557 12.3394C11.6347 12.266 10.8283 12.0993 10.4398 11.9592L10.3958 11.679ZM10.4105 12.0259C10.667 12.1193 11.0995 12.2327 11.598 12.3127C11.796 12.3394 11.7886 12.4528 11.4368 12.4928C11.0776 12.5262 10.6157 12.2927 10.3372 12.0859L10.4105 12.0259Z" fill="white" stroke="black" stroke-width="0.0895063"/>
<path d="M10.0219 11.9592C10.0366 12.0726 10.0586 12.3194 10.2272 12.2127C10.4545 12.0726 10.5058 11.9659 10.5058 11.7658C10.5058 11.639 10.3372 11.4523 9.99995 11.4523C9.66274 11.4523 9.49414 11.639 9.49414 11.7658C9.49414 11.9659 9.54545 12.0726 9.7727 12.2127C9.94131 12.3194 9.95597 12.0726 9.97796 11.9592C9.98529 11.9192 10.0219 11.9325 10.0219 11.9592Z" fill="white" stroke="black" stroke-width="0.0895063"/>
<path d="M9.78737 3.41448C9.69207 2.92087 8.89303 2.88752 8.76841 2.80748C8.6218 2.72076 8.64379 2.80748 8.69511 2.94088C8.84172 3.28774 9.3402 3.42782 9.56745 3.46784C9.75072 3.49452 9.80936 3.50786 9.78737 3.41448Z" fill="white" stroke="black" stroke-width="0.0895063"/>
<path d="M10.0293 3.42784C10.1099 2.9209 9.31822 2.68077 9.22292 2.56737C9.11296 2.44731 9.0983 2.52068 9.14962 2.66076C9.24491 2.96092 9.58945 3.31445 9.79471 3.40783C9.96332 3.48788 10.0146 3.52123 10.0293 3.42784Z" fill="white" stroke="black" stroke-width="0.0895063"/>
<path d="M10.6818 3.72137C10.7551 3.11437 10.11 3.02098 9.94141 2.82754C9.83145 2.70748 9.82412 2.77418 9.86077 2.91426C9.93408 3.22109 10.2566 3.58129 10.4546 3.69468C10.6085 3.7814 10.6745 3.81475 10.6818 3.72137Z" fill="white" stroke="black" stroke-width="0.0895063"/>
<path d="M10.4839 3.58791C9.81679 3.19437 9.34763 3.41449 9.15703 3.39447C8.97377 3.37446 8.91512 3.48119 9.23034 3.64128C9.61886 3.83472 10.1613 3.80803 10.3739 3.73466C10.5938 3.65462 10.5279 3.61459 10.4839 3.58791ZM11.4882 3.85473C11.2829 3.20104 10.8064 3.30776 10.6671 3.22772C10.5279 3.14767 10.5132 3.16768 10.5425 3.31443C10.6012 3.57457 11.0923 3.8614 11.3342 3.94811C11.4222 3.97479 11.5322 4.01481 11.4882 3.85473Z" fill="white" stroke="black" stroke-width="0.0895063"/>
<path d="M11.3928 3.96816C10.821 3.54793 10.3739 3.86144 10.1979 3.81475C10.066 3.78139 10.1246 3.86144 10.1759 3.89479C10.5425 4.12825 10.997 4.25499 11.3488 4.10824C11.4881 4.05488 11.4955 4.04154 11.3928 3.96816ZM12.6317 4.39506C12.639 3.9815 11.7007 3.80808 11.5028 3.5546C11.3855 3.40119 11.2829 3.48123 11.3415 3.72803C11.4295 4.04821 12.0746 4.40173 12.4264 4.46844C12.639 4.50846 12.6317 4.44175 12.6317 4.39506Z" fill="white" stroke="black" stroke-width="0.0895063"/>
<path d="M12.6023 4.46842C12.0086 3.98148 11.5101 4.14157 11.3268 4.09488C11.1436 4.05486 11.0702 4.15491 11.3561 4.35502C11.708 4.59515 12.2505 4.64184 12.4777 4.59515C12.705 4.54846 12.6463 4.50177 12.6023 4.46842ZM13.6653 5.18214C13.4967 4.47509 12.9615 4.32834 12.8296 4.19493C12.705 4.06153 12.573 4.10155 12.683 4.42172C12.8149 4.80193 13.2474 5.13545 13.4747 5.21549C13.6946 5.3022 13.6799 5.2355 13.6653 5.18214Z" fill="white" stroke="black" stroke-width="0.0895063"/>
<path d="M13.6579 5.27549C13.2254 4.64182 12.661 4.66183 12.485 4.57511C12.3164 4.48173 12.1991 4.56177 12.4264 4.83525C12.6903 5.16877 13.2328 5.35554 13.482 5.36888C13.7312 5.38222 13.6873 5.32219 13.6579 5.27549Z" fill="white" stroke="black" stroke-width="0.0895063"/>
<path d="M14.2151 6.02927C14.4644 5.30887 13.8926 5.04206 13.8339 4.922C13.768 4.80193 13.702 4.80193 13.6653 4.92867C13.5041 5.44228 14.0245 5.94255 14.1052 6.04261C14.1858 6.13599 14.2005 6.0893 14.2151 6.02927Z" fill="white" stroke="black" stroke-width="0.0895063"/>
<path d="M14.0978 6.22937C13.8999 5.42226 13.3794 5.46896 13.2621 5.35556C13.1375 5.24217 13.1228 5.32221 13.1448 5.46896C13.2035 5.86251 13.724 6.12932 13.9585 6.26272C14.0318 6.30275 14.1198 6.34944 14.0978 6.22937ZM14.5963 7.17656C14.9555 6.41614 14.5303 5.90253 14.3984 5.78913C14.2664 5.68241 14.1858 5.63571 14.2298 5.78913C14.2884 6.02259 14.0832 6.62292 14.3984 7.06316C14.501 7.20991 14.5157 7.34998 14.5963 7.17656Z" fill="white" stroke="black" stroke-width="0.0895063"/>
<path d="M14.4057 7.32996C14.4863 6.86304 14.1931 6.43614 13.8779 6.26938C13.6946 6.16932 13.6873 6.19601 13.6873 6.33608C13.7019 6.76965 14.1491 7.12985 14.281 7.32996C14.4057 7.51673 14.3983 7.37665 14.4057 7.32996Z" fill="white" stroke="black" stroke-width="0.0895063"/>
<path d="M14.325 8.54397C14.0611 7.66349 14.6109 7.15655 14.7795 7.05649C14.9408 6.94977 15.0434 6.90975 14.9701 7.0765C14.8602 7.32331 14.9774 8.01035 14.5596 8.44392C14.4276 8.59066 14.3763 8.74408 14.325 8.54397Z" fill="white" stroke="black" stroke-width="0.0895063"/>
<path d="M14.3837 8.35052C14.6036 7.58344 14.1271 7.14987 13.9805 7.06315C13.8412 6.97644 13.7532 6.94309 13.8192 7.08316C13.9072 7.29661 13.8119 7.89694 14.1784 8.27048C14.2957 8.39721 14.3397 8.52395 14.3837 8.35052Z" fill="white" stroke="black" stroke-width="0.0895063"/>
<path d="M14.1124 7.99032C13.7166 8.3772 13.7093 8.94418 13.8852 9.2777C13.9952 9.47113 14.0098 9.45779 14.1124 9.31772C14.391 8.91083 14.2224 8.32384 14.2371 8.0637C14.2444 7.8169 14.1564 7.9503 14.1124 7.99032Z" fill="white" stroke="black" stroke-width="0.0895063"/>
<path d="M14.7649 8.60402C14.7649 9.13765 14.4057 9.57122 14.0245 9.70462C13.8046 9.778 13.8046 9.75798 13.8339 9.5979C13.9365 8.99757 14.4423 8.77745 14.6256 8.58401C14.8015 8.39724 14.7649 8.55066 14.7649 8.60402Z" fill="white" stroke="black" stroke-width="0.0895063"/>
<path d="M13.4014 10.1916C14.0465 9.65794 13.7019 9.2844 13.7313 8.93755C13.7459 8.75078 13.6653 8.79747 13.592 8.86417C13.1815 9.23104 13.1595 9.88473 13.2474 10.1382C13.2841 10.2516 13.3427 10.2383 13.4014 10.1916Z" fill="white" stroke="black" stroke-width="0.0895063"/>
<path d="M14.2664 9.84471C14.0538 10.4317 13.4893 10.7919 13.0128 10.8119C12.7343 10.8252 12.7416 10.8052 12.8369 10.6318C13.1961 10.0048 13.8339 9.93142 14.1198 9.77134C14.3837 9.62459 14.2884 9.78468 14.2664 9.84471Z" fill="white" stroke="black" stroke-width="0.0895063"/>
<path d="M12.5144 10.9453C13.3501 10.5651 13.1815 9.93139 13.3355 9.7713C13.4454 9.65791 13.3135 9.67125 13.2475 9.71127C12.7563 9.97141 12.3605 10.385 12.3531 10.8252C12.3531 10.992 12.3678 11.012 12.5144 10.9453Z" fill="white" stroke="black" stroke-width="0.0895063"/>
<path d="M11.3708 11.6523C12.4264 11.8057 12.9176 11.0787 13.2255 11.012C13.3868 10.9786 13.2695 10.9186 13.1888 10.9119C12.4851 10.8385 11.5908 11.1387 11.3195 11.4722C11.2096 11.6056 11.2096 11.6323 11.3708 11.6523Z" fill="white" stroke="black" stroke-width="0.0895063"/>
<path d="M12.4412 10.5117C12.2286 11.1454 11.4369 11.6657 10.8431 11.7057C10.5645 11.7257 10.5645 11.699 10.6671 11.5322C11.1436 10.7451 11.972 10.6117 12.2652 10.4116C12.5145 10.2382 12.4631 10.4517 12.4412 10.5117ZM10.2126 3.41448C10.3079 2.92087 11.107 2.88752 11.2316 2.80748C11.3782 2.72076 11.3562 2.80748 11.3049 2.94088C11.1583 3.28774 10.6598 3.42782 10.4326 3.46784C10.2493 3.49452 10.1907 3.50786 10.2126 3.41448Z" fill="white" stroke="black" stroke-width="0.0895063"/>
<path d="M9.97072 3.42784C9.89008 2.9209 10.6818 2.68077 10.7771 2.56737C10.887 2.44731 10.9017 2.52068 10.8504 2.66076C10.7551 2.96092 10.4106 3.31445 10.2053 3.40783C10.0367 3.48788 9.98538 3.52123 9.97072 3.42784Z" fill="white" stroke="black" stroke-width="0.0895063"/>
<path d="M9.31828 3.72137C9.24497 3.11437 9.89007 3.02098 10.0587 2.82754C10.1686 2.70748 10.176 2.77418 10.1393 2.91426C10.066 3.22109 9.74346 3.58129 9.54553 3.69468C9.39159 3.7814 9.32561 3.81475 9.31828 3.72137Z" fill="white" stroke="black" stroke-width="0.0895063"/>
<path d="M9.51614 3.58791C10.1832 3.19437 10.6524 3.41449 10.843 3.39447C11.0262 3.37446 11.0849 3.48119 10.7697 3.64128C10.3812 3.83472 9.83869 3.80803 9.6261 3.73466C9.40618 3.65462 9.47216 3.61459 9.51614 3.58791ZM8.51184 3.85473C8.7171 3.20104 9.19359 3.30776 9.33287 3.22772C9.47216 3.14767 9.48682 3.16768 9.4575 3.31443C9.39885 3.57457 8.9077 3.8614 8.66579 3.94811C8.57782 3.97479 8.46786 4.01481 8.51184 3.85473Z" fill="white" stroke="black" stroke-width="0.0895063"/>
<path d="M8.6072 3.96816C9.17899 3.54793 9.62616 3.86144 9.8021 3.81475C9.93405 3.78139 9.8754 3.86144 9.82409 3.89479C9.45756 4.12825 9.00306 4.25499 8.65119 4.10824C8.51191 4.05488 8.50458 4.04154 8.6072 3.96816ZM7.36833 4.39506C7.361 3.9815 8.29932 3.80808 8.49725 3.5546C8.61454 3.40119 8.71716 3.48123 8.65852 3.72803C8.57055 4.04821 7.92546 4.40173 7.57359 4.46844C7.361 4.50846 7.36833 4.44175 7.36833 4.39506Z" fill="white" stroke="black" stroke-width="0.0895063"/>
<path d="M7.39766 4.46842C7.99144 3.98148 8.48993 4.14157 8.67319 4.09488C8.85646 4.05486 8.92976 4.15491 8.64387 4.35502C8.292 4.59515 7.74953 4.64184 7.52228 4.59515C7.29504 4.54846 7.35368 4.50177 7.39766 4.46842ZM6.33472 5.18214C6.50333 4.47509 7.03846 4.32834 7.17041 4.19493C7.29504 4.06153 7.42699 4.10155 7.31703 4.42172C7.18508 4.80193 6.75257 5.13545 6.52532 5.21549C6.3054 5.3022 6.32006 5.2355 6.33472 5.18214Z" fill="white" stroke="black" stroke-width="0.0895063"/>
<path d="M6.34197 5.27549C6.77448 4.64182 7.33894 4.66183 7.51487 4.57511C7.68348 4.48173 7.80077 4.56177 7.57352 4.83525C7.30962 5.16877 6.76715 5.35554 6.51791 5.36888C6.26867 5.38222 6.31265 5.32219 6.34197 5.27549Z" fill="white" stroke="black" stroke-width="0.0895063"/>
<path d="M5.78487 6.02927C5.53563 5.30887 6.10742 5.04206 6.16606 4.922C6.23204 4.80193 6.29801 4.80193 6.33467 4.92867C6.49594 5.44228 5.97547 5.94255 5.89483 6.04261C5.81419 6.13599 5.79953 6.0893 5.78487 6.02927Z" fill="white" stroke="black" stroke-width="0.0895063"/>
<path d="M5.90223 6.22937C6.10016 5.42226 6.62063 5.46896 6.73792 5.35556C6.86254 5.24217 6.8772 5.32221 6.85521 5.46896C6.79657 5.86251 6.27609 6.12932 6.04151 6.26272C5.9682 6.30275 5.88024 6.34944 5.90223 6.22937ZM5.40375 7.17656C5.04455 6.41614 5.46972 5.90253 5.60167 5.78913C5.73362 5.68241 5.81426 5.63571 5.77028 5.78913C5.71163 6.02259 5.91689 6.62292 5.60167 7.06316C5.49904 7.20991 5.48438 7.34998 5.40375 7.17656Z" fill="white" stroke="black" stroke-width="0.0895063"/>
<path d="M5.59433 7.32996C5.5137 6.86304 5.80692 6.43614 6.12214 6.26938C6.3054 6.16932 6.31273 6.19601 6.31273 6.33608C6.29807 6.76965 5.85091 7.12985 5.71895 7.32996C5.59433 7.51673 5.60166 7.37665 5.59433 7.32996Z" fill="white" stroke="black" stroke-width="0.0895063"/>
<path d="M5.67493 8.54397C5.93883 7.66349 5.38904 7.15655 5.22043 7.05649C5.05916 6.94977 4.95653 6.90975 5.02983 7.0765C5.13979 7.32331 5.0225 8.01035 5.44035 8.44392C5.5723 8.59066 5.61628 8.74408 5.67493 8.54397Z" fill="white" stroke="black" stroke-width="0.0895063"/>
<path d="M5.61626 8.35052C5.39634 7.58344 5.87284 7.14987 6.01945 7.06315C6.15873 6.97644 6.2467 6.94309 6.18072 7.08316C6.09275 7.29661 6.18805 7.89694 5.82152 8.27048C5.70423 8.39721 5.66025 8.52395 5.61626 8.35052Z" fill="white" stroke="black" stroke-width="0.0895063"/>
<path d="M5.88751 7.99032C6.28336 8.3772 6.29069 8.94418 6.11476 9.2777C6.0048 9.47113 5.99014 9.45779 5.88751 9.31772C5.60894 8.91083 5.77755 8.32384 5.76289 8.0637C5.75556 7.8169 5.84352 7.9503 5.88751 7.99032Z" fill="white" stroke="black" stroke-width="0.0895063"/>
<path d="M5.2351 8.60402C5.2351 9.13765 5.5943 9.57122 5.9755 9.70462C6.19542 9.778 6.19542 9.75798 6.16609 9.5979C6.06346 8.99757 5.55765 8.77745 5.37439 8.58401C5.19845 8.39724 5.2351 8.55066 5.2351 8.60402Z" fill="white" stroke="black" stroke-width="0.0895063"/>
<path d="M6.59864 10.1916C5.95355 9.65794 6.29809 9.2844 6.26877 8.93755C6.25411 8.75078 6.33474 8.79747 6.40805 8.86417C6.81856 9.23104 6.84056 9.88473 6.75259 10.1382C6.71593 10.2516 6.65729 10.2383 6.59864 10.1916Z" fill="white" stroke="black" stroke-width="0.0895063"/>
<path d="M5.73354 9.84471C5.94613 10.4317 6.51059 10.7919 6.98708 10.8119C7.26564 10.8252 7.25831 10.8052 7.16301 10.6318C6.80381 10.0048 6.16605 9.93142 5.88015 9.77134C5.61625 9.62459 5.71155 9.78468 5.73354 9.84471Z" fill="white" stroke="black" stroke-width="0.0895063"/>
<path d="M7.48558 10.9453C6.64989 10.5651 6.81849 9.93139 6.66455 9.7713C6.55459 9.65791 6.68654 9.67125 6.75252 9.71127C7.24367 9.97141 7.63952 10.385 7.64685 10.8252C7.64685 10.992 7.63219 11.012 7.48558 10.9453Z" fill="white" stroke="black" stroke-width="0.0895063"/>
<path d="M8.62921 11.6523C7.5736 11.8057 7.08244 11.0787 6.77456 11.012C6.61328 10.9786 6.73057 10.9186 6.81121 10.9119C7.51495 10.8385 8.40929 11.1387 8.68052 11.4722C8.79048 11.6056 8.79048 11.6323 8.62921 11.6523Z" fill="white" stroke="black" stroke-width="0.0895063"/>
<path d="M7.55895 10.5117C7.77153 11.1454 8.56324 11.6657 9.15702 11.7057C9.43559 11.7257 9.43559 11.699 9.33296 11.5323C8.85647 10.7452 8.02811 10.6118 7.73488 10.4116C7.48564 10.2382 7.53695 10.4517 7.55895 10.5117Z" fill="white" stroke="black" stroke-width="0.0895063"/>
<path d="M11.2375 4.02814C11.1 3.93439 10.5875 3.98751 10.4906 3.92501C10.675 4.06564 11.0844 3.96564 11.2406 4.02814H11.2375ZM12.4781 4.26564C12.3688 4.08751 11.7156 3.96564 11.6188 3.80626C11.7906 4.11251 12.2938 4.07189 12.4781 4.26564ZM12.3844 4.47189C12.1406 4.25939 11.5781 4.34689 11.4063 4.22189C11.8031 4.54689 12.0219 4.29376 12.3813 4.47189H12.3844ZM10.9688 3.52501C11.1219 3.60001 11.3125 3.67189 11.4063 3.84689C11.2969 3.71251 11.1 3.65939 10.9375 3.54689C10.9469 3.54689 10.9594 3.53439 10.9688 3.52501ZM13.375 4.90001C13.2781 4.70001 12.9375 4.48126 12.9094 4.40626C13.0031 4.66564 13.2844 4.72814 13.3719 4.90001H13.375ZM13.4594 5.25314C13.1657 4.83439 12.7063 4.87814 12.5219 4.72189C12.6625 4.87501 13.1907 4.97189 13.4594 5.25314ZM14.1406 5.90001C14.1625 5.45314 13.7969 5.28751 13.7844 5.03439C13.775 5.33439 14.1594 5.74064 14.1406 5.90001ZM13.9594 6.14064C13.8844 5.75314 13.3875 5.72814 13.3 5.50001C13.3 5.71251 13.8844 5.93439 13.9563 6.14064H13.9594ZM14.3688 5.92189C14.6344 6.21564 14.45 6.66251 14.5594 6.98751C14.4281 6.74689 14.4938 6.14689 14.3719 5.92189H14.3688ZM13.9375 7.17189C14.3313 7.56251 14.1719 7.99376 14.3313 8.18126C14.1344 7.92189 14.1625 7.41564 13.9375 7.17501V7.17189ZM14.7594 7.22814C14.4188 7.56876 14.625 8.08126 14.4469 8.32189C14.6469 8.11564 14.6188 7.47814 14.7594 7.22814ZM14.3313 7.22814C14.2875 6.83439 13.8844 6.62814 13.85 6.41564C13.8032 6.62814 14.2375 6.96251 14.3313 7.22814ZM14.1281 8.16564C14.1906 8.44064 13.95 9.02814 14.025 9.20939C13.8625 8.89689 14.1625 8.30314 14.1281 8.16876V8.16564ZM14.6469 8.79376C14.4875 9.28126 14.1625 9.25001 14.0625 9.54376C14.1344 9.26251 14.5625 9.00939 14.6469 8.79376ZM13.6 9.02189C13.3875 9.35001 13.5625 9.72189 13.3875 9.95626C13.6375 9.72189 13.5032 9.28751 13.6 9.02189ZM14.1125 9.91564C13.8563 10.35 13.3281 10.3094 13.1156 10.6219C13.3281 10.2281 13.9813 10.1625 14.1157 9.91564H14.1125ZM13.1813 9.86251C12.7281 10.15 12.8688 10.45 12.5219 10.7688C12.9531 10.45 12.9188 10.0969 13.1813 9.86251ZM12.9688 11.025C12.5313 11.0094 11.9 11.5313 11.5188 11.4906C11.9 11.5656 12.6031 11.0969 12.9688 11.0219V11.025ZM12.2594 10.5563C12.2281 10.9625 11.0844 11.225 10.9625 11.4969C11.1 11.1375 12.1063 10.8719 12.2594 10.5594V10.5563ZM9.6719 3.05626C9.52502 2.94064 9.3469 2.84689 9.2969 2.73439C9.3344 2.88126 9.47815 2.98439 9.62502 3.08751C9.64065 3.08126 9.65627 3.05939 9.6719 3.05314V3.05626ZM9.4219 3.17189C9.19377 3.07189 8.93127 3.07814 8.81252 2.94064C8.88752 3.07814 9.1344 3.13126 9.3469 3.20626C9.36877 3.19376 9.40002 3.17814 9.4219 3.17501V3.17189ZM8.76252 4.02501C8.90002 3.93126 9.41252 3.98751 9.5094 3.92501C9.32502 4.06564 8.91565 3.96564 8.7594 4.02501H8.76252ZM7.5219 4.26564C7.63127 4.08751 8.2844 3.96564 8.38127 3.80626C8.21252 4.11251 7.70627 4.07189 7.5219 4.26564ZM7.61565 4.47189C7.8594 4.25939 8.42502 4.34689 8.59377 4.22189C8.1969 4.54689 7.97815 4.29376 7.61877 4.47189H7.61565ZM8.59377 3.84689C8.73127 3.57814 9.12502 3.54689 9.23127 3.38439C9.07502 3.62501 8.74065 3.66564 8.59377 3.84689ZM9.71877 3.61251C10.125 3.44064 10.5219 3.58751 10.7125 3.50626C10.4781 3.61876 9.91877 3.56564 9.7219 3.61251H9.71877ZM6.62815 4.90001C6.7219 4.70001 7.0594 4.47814 7.09065 4.40626C6.9969 4.66564 6.71565 4.72814 6.62815 4.90001ZM6.54065 5.25314C6.8344 4.83439 7.29377 4.87814 7.47815 4.72189C7.34065 4.87501 6.81252 4.97189 6.54065 5.25314ZM5.8594 5.90001C5.83752 5.45314 6.20315 5.28751 6.21877 5.03439C6.22502 5.33439 5.84377 5.74064 5.8594 5.90001ZM6.04065 6.14064C6.11565 5.75314 6.61252 5.72814 6.70002 5.50001C6.70002 5.71251 6.11565 5.93439 6.04377 6.14064H6.04065ZM5.63127 5.92189C5.36877 6.21564 5.55002 6.65939 5.44377 6.98751C5.5719 6.74689 5.50627 6.14689 5.63127 5.92189ZM6.06252 7.17189C5.66877 7.56251 5.82815 7.99376 5.66877 8.18126C5.86565 7.92189 5.83752 7.41564 6.06252 7.17501V7.17189ZM5.24377 7.22814C5.58127 7.56876 5.37502 8.08126 5.55002 8.32189C5.35315 8.11564 5.38127 7.47814 5.24377 7.22814ZM5.66877 7.22814C5.71252 6.83439 6.11565 6.62814 6.15002 6.41564C6.1969 6.62814 5.76252 6.96251 5.66877 7.22814ZM5.8719 8.16564C5.8094 8.44064 6.05002 9.02814 5.97502 9.20939C6.13752 8.89689 5.83752 8.30314 5.8719 8.16876V8.16564ZM5.35315 8.79376C5.51565 9.28126 5.83752 9.25001 5.94065 9.54376C5.86565 9.26251 5.44065 9.00939 5.35315 8.79376ZM6.40002 9.02189C6.61252 9.35001 6.43752 9.72189 6.61252 9.95626C6.36252 9.72189 6.4969 9.28751 6.40002 9.02189ZM5.88752 9.91564C6.14377 10.35 6.6719 10.3094 6.88752 10.6219C6.6719 10.2281 6.01877 10.1625 5.88752 9.91564ZM6.81877 9.86251C7.2719 10.15 7.1344 10.45 7.47815 10.7688C7.0469 10.45 7.0844 10.0969 6.81877 9.86251ZM7.03127 11.0219C7.46877 11.0094 8.10315 11.5313 8.48127 11.4906C8.10315 11.5625 7.3969 11.0969 7.03127 11.0219ZM7.74377 10.5531C7.7719 10.9625 8.91565 11.2219 9.04065 11.4969C8.90002 11.1375 7.8969 10.8719 7.74065 10.5563L7.74377 10.5531ZM9.40627 3.62501C9.49377 3.26564 9.93752 3.20001 9.99377 2.98439C9.9719 3.21251 9.45002 3.46564 9.40627 3.62501ZM10.7031 2.73126C10.6406 3.00626 10.1625 3.15939 10.0969 3.36564C10.1188 3.08439 10.6094 2.92814 10.7031 2.73126ZM10.3281 3.38126C10.5563 3.04689 11.025 3.13126 11.1875 2.94064C11.0688 3.16564 10.4906 3.17189 10.3281 3.37814V3.38126Z" fill="#006233"/>
<path d="M13.4312 7.49998C13.4312 9.23435 11.8906 10.6375 9.98435 10.6375C8.08123 10.6375 6.53748 9.23435 6.53748 7.5031C6.53748 5.76873 8.08123 4.3656 9.98435 4.3656C11.8906 4.3656 13.4312 5.77185 13.4312 7.5031V7.49998Z" stroke="#F7C608" stroke-width="0.09" stroke-linecap="round" stroke-linejoin="round"/>
<path d="M9.31244 10.6406L9.29681 10.6781C9.28744 10.7031 9.26244 10.7187 9.23119 10.7156L8.98119 10.6562L9.06244 10.4156L9.31244 10.4687C9.34056 10.475 9.35619 10.5 9.34369 10.525L9.33744 10.5562M8.74369 10.4062L8.75619 10.3687C8.76244 10.3406 8.79056 10.3281 8.81869 10.3375C8.89878 10.367 8.9801 10.3931 9.06244 10.4156L8.98431 10.6562C8.89681 10.6344 8.81556 10.6125 8.73744 10.5844C8.71244 10.5719 8.70619 10.5219 8.71556 10.4937" fill="#F7C608"/>
<path d="M9.26251 10.6188L9.25313 10.6469C9.24688 10.6657 9.22188 10.675 9.20001 10.6719L8.99376 10.6219L9.05001 10.4469C9.12501 10.4688 9.20313 10.4844 9.25626 10.4938C9.28126 10.5 9.29376 10.5188 9.28751 10.5375L9.28126 10.5594M8.78751 10.4344L8.79688 10.4032C8.80313 10.3875 8.82501 10.3782 8.84688 10.3844C8.90626 10.4032 8.97188 10.4282 9.05001 10.4469L8.99376 10.6219C8.92539 10.6044 8.85764 10.5846 8.79063 10.5625C8.76876 10.55 8.75938 10.5157 8.76876 10.4969" fill="#006233"/>
<path d="M8.36559 10.3375L8.34371 10.3687C8.32809 10.3937 8.29684 10.4 8.26871 10.3906C8.20621 10.3531 8.12184 10.3125 8.04996 10.2687L8.19996 10.0562C8.27195 10.0984 8.346 10.137 8.42184 10.1719C8.44684 10.1844 8.45309 10.2125 8.43746 10.2344L8.41871 10.2656M7.89684 9.96561L7.91871 9.93436C7.93434 9.90936 7.96559 9.90311 7.99059 9.91874C8.04684 9.95936 8.11871 10.0094 8.19996 10.0562L8.04684 10.2687C7.97518 10.228 7.90532 10.1842 7.83746 10.1375C7.81559 10.1156 7.82496 10.0656 7.83746 10.0437" fill="#F7C608"/>
<path d="M8.32815 10.3031L8.3094 10.3281C8.30002 10.3438 8.27502 10.3469 8.25002 10.3375C8.20002 10.3063 8.13127 10.275 8.06877 10.2375L8.17815 10.0844C8.24065 10.125 8.31252 10.1594 8.36252 10.1813C8.38127 10.1938 8.39065 10.2125 8.37815 10.2313L8.36252 10.25M7.93127 10.0031L7.9469 9.97814C7.9594 9.96251 7.98127 9.95939 8.00315 9.97189C8.06007 10.0115 8.11844 10.0491 8.17815 10.0844L8.06877 10.2375C8.00627 10.2 7.94377 10.1656 7.89377 10.1281C7.87502 10.1125 7.87815 10.075 7.89065 10.0594" fill="#006233"/>
<path d="M7.55625 9.8031L7.525 9.8281C7.5 9.84685 7.46875 9.84373 7.44375 9.8281C7.39687 9.7781 7.32812 9.71873 7.27187 9.65623L7.48125 9.4906C7.54375 9.55623 7.6125 9.6156 7.65937 9.65935C7.68125 9.6781 7.67812 9.70623 7.65625 9.72185L7.62812 9.74685M7.22187 9.3281L7.25312 9.29998C7.275 9.28435 7.30625 9.28435 7.325 9.30623C7.3737 9.37147 7.42586 9.43406 7.48125 9.49373L7.27187 9.65623C7.2125 9.59373 7.15625 9.53435 7.10937 9.47498C7.09375 9.44998 7.11875 9.40623 7.14062 9.38748" fill="#F7C608"/>
<path d="M7.52817 9.76249L7.50318 9.78124C7.48755 9.79374 7.46568 9.79061 7.4438 9.77499L7.30005 9.63124L7.45318 9.51249C7.50013 9.56141 7.54913 9.60833 7.60005 9.65311C7.61568 9.67186 7.61568 9.69374 7.60005 9.70624L7.57818 9.72186M7.24068 9.37186L7.26255 9.35311C7.2813 9.34061 7.30318 9.34374 7.3188 9.35936C7.3563 9.40624 7.40005 9.45936 7.45318 9.51561L7.30005 9.63124L7.16568 9.48124C7.15318 9.46249 7.1688 9.42811 7.18442 9.41561" fill="#006233"/>
<path d="M6.94381 9.08438L6.90318 9.1C6.87818 9.1125 6.84693 9.1 6.82818 9.08125L6.71568 8.86875L6.96881 8.76563C7.00943 8.84375 7.05318 8.92188 7.08756 8.97188C7.10006 8.99688 7.08756 9.02188 7.06256 9.03438L7.03131 9.04688M6.76881 8.54063L6.80631 8.52188C6.83443 8.5125 6.86256 8.52188 6.87506 8.54688C6.90235 8.62143 6.93364 8.69445 6.96881 8.76563L6.71881 8.86875C6.68001 8.80015 6.64557 8.72917 6.61568 8.65625C6.60943 8.625 6.64693 8.59063 6.67506 8.57813" fill="#F7C608"/>
<path d="M6.92808 9.03752L6.89995 9.04689C6.8812 9.05627 6.85933 9.04689 6.8437 9.02814L6.74995 8.85314L6.9312 8.77814C6.96183 8.83697 6.9952 8.89432 7.0312 8.95002C7.04058 8.97189 7.03433 8.99377 7.01558 9.00002L6.99058 9.00939M6.77183 8.58752L6.80308 8.57814C6.82183 8.56877 6.8437 8.57814 6.85308 8.59689C6.87663 8.65835 6.90269 8.71882 6.9312 8.77814L6.75308 8.85314C6.72174 8.79534 6.69358 8.73588 6.6687 8.67502C6.66245 8.65314 6.68745 8.62502 6.7062 8.61564" fill="#006233"/>
<path d="M6.57817 8.23439L6.53442 8.24064C6.52139 8.24171 6.50835 8.23867 6.49714 8.23194C6.48593 8.22522 6.47711 8.21514 6.47192 8.20314L6.42505 7.97189L6.70005 7.93751C6.71326 8.01453 6.731 8.09071 6.75317 8.16564C6.7563 8.19376 6.73755 8.21564 6.70942 8.21876L6.67192 8.22502M6.57817 7.67189L6.62192 7.66564C6.65005 7.65939 6.67505 7.67814 6.67817 7.70314C6.6813 7.77189 6.68755 7.85001 6.70005 7.93751L6.42505 7.97189C6.4108 7.89537 6.40037 7.81819 6.3938 7.74064C6.40005 7.71251 6.44692 7.68751 6.47505 7.68439" fill="#F7C608"/>
<path d="M6.57817 8.18752L6.54692 8.19065C6.52817 8.19377 6.50942 8.18127 6.50005 8.1594L6.46567 7.96565L6.66255 7.94065C6.673 8.00481 6.68656 8.06843 6.70317 8.13127C6.7063 8.15315 6.6938 8.1719 6.67192 8.17502L6.64692 8.17815M6.5688 7.71877L6.60005 7.71252C6.62192 7.71252 6.64067 7.72502 6.64067 7.7469C6.64692 7.80315 6.65005 7.8719 6.66255 7.94065L6.46567 7.96565C6.45317 7.90315 6.4438 7.8344 6.44067 7.77502C6.44067 7.75315 6.47505 7.73127 6.49692 7.72815" fill="#006233"/>
<path d="M6.4906 7.32816L6.44685 7.32191C6.4156 7.32191 6.39998 7.29691 6.39685 7.26878C6.40623 7.20628 6.41248 7.11878 6.4281 7.03753L6.69998 7.07503C6.68826 7.15163 6.68095 7.22884 6.6781 7.30628C6.67498 7.33441 6.64998 7.35003 6.62185 7.34691L6.58435 7.34065M6.6656 6.78753L6.70935 6.79066C6.73748 6.79691 6.75623 6.81878 6.7531 6.84378C6.73114 6.91983 6.71341 6.99703 6.69998 7.07503L6.42498 7.03753C6.43748 6.95941 6.44998 6.88128 6.46873 6.80628C6.48123 6.78128 6.53435 6.76878 6.56248 6.77503" fill="#F7C608"/>
<path d="M6.5063 7.28123H6.47505C6.45317 7.27498 6.4438 7.25623 6.44067 7.23435L6.46567 7.04373L6.66255 7.06873C6.65321 7.13297 6.64695 7.19763 6.6438 7.26248C6.64067 7.28435 6.62192 7.29685 6.60005 7.29373H6.57505M6.64067 6.8281L6.67192 6.83435C6.6938 6.83435 6.7063 6.85623 6.70317 6.8781C6.69067 6.93123 6.67192 6.99685 6.66255 7.0656L6.46567 7.04373L6.50005 6.84998C6.50942 6.8281 6.54692 6.81873 6.5688 6.81873" fill="#006233"/>
<path d="M6.6875 6.43752L6.64687 6.41877C6.61875 6.4094 6.60937 6.3844 6.61562 6.35627C6.64687 6.29377 6.67812 6.21252 6.71562 6.14065L6.96562 6.2469C6.93041 6.31805 6.89912 6.39108 6.87187 6.46565C6.8625 6.48752 6.83437 6.4969 6.80937 6.48752L6.77187 6.4719M7.02187 5.9594L7.0625 5.97815C7.0875 5.98752 7.1 6.01565 7.0875 6.04065C7.04433 6.10727 7.00469 6.17611 6.96875 6.2469L6.71562 6.14065C6.75 6.06877 6.7875 5.99377 6.82812 5.93127C6.84687 5.9094 6.90312 5.9094 6.92812 5.9219" fill="#F7C608"/>
<path d="M6.71873 6.39687L6.68748 6.38437C6.66873 6.37812 6.66248 6.35312 6.66873 6.33437L6.74998 6.15624L6.93123 6.23124C6.90232 6.29038 6.87625 6.35087 6.8531 6.41249C6.84373 6.43124 6.82185 6.44062 6.8031 6.43124L6.7781 6.42187M6.98748 5.99687L7.0156 6.00937C7.03435 6.01562 7.0406 6.03749 7.03123 6.05937C6.99535 6.11514 6.96198 6.17249 6.93123 6.23124L6.7531 6.15624C6.78435 6.09374 6.81248 6.03124 6.84685 5.98124C6.85935 5.96249 6.89998 5.95937 6.91873 5.96874" fill="#006233"/>
<path d="M7.15319 5.63128L7.11881 5.60315C7.09694 5.58753 7.09381 5.5594 7.10631 5.5344C7.15631 5.4844 7.21256 5.41253 7.26881 5.35315L7.48131 5.51878C7.42587 5.5784 7.37371 5.641 7.32506 5.70628C7.3151 5.7162 7.30162 5.72177 7.28756 5.72177C7.2735 5.72177 7.26002 5.7162 7.25006 5.70628L7.22194 5.68753M7.62194 5.2594L7.65319 5.2844C7.67819 5.30315 7.67819 5.33128 7.65944 5.35315C7.59735 5.40538 7.53791 5.46065 7.48131 5.51878L7.26881 5.35315C7.32819 5.29065 7.38444 5.23128 7.44381 5.18128C7.46881 5.16565 7.52194 5.18128 7.54381 5.1969" fill="#F7C608"/>
<path d="M7.19376 5.60001L7.16876 5.58126C7.15313 5.56876 7.15313 5.54688 7.16563 5.52813L7.30001 5.37501L7.45001 5.49376C7.40389 5.54381 7.3601 5.59595 7.31876 5.65001C7.30313 5.66563 7.28126 5.66876 7.26251 5.65626L7.24376 5.64063M7.57501 5.28438L7.60001 5.30313C7.61563 5.31563 7.61563 5.33751 7.60001 5.35313C7.54804 5.39895 7.49799 5.44691 7.45001 5.49688L7.30001 5.37813C7.35001 5.32501 7.39376 5.27501 7.44376 5.23438C7.46563 5.21876 7.50626 5.22813 7.51876 5.24063" fill="#006233"/>
<path d="M7.84379 4.97499L7.82191 4.94374C7.80629 4.91874 7.81254 4.89374 7.83441 4.87187C7.89691 4.83749 7.97191 4.78437 8.04691 4.74062L8.19691 4.95312C8.12481 4.99533 8.05493 5.04123 7.98754 5.09062C7.9765 5.0972 7.96346 5.09956 7.95082 5.09726C7.93818 5.09497 7.9268 5.08816 7.91879 5.07812L7.89691 5.04687M8.41254 4.74062L8.43441 4.77187C8.45316 4.79687 8.44379 4.82499 8.42191 4.83749C8.35316 4.86874 8.27816 4.90624 8.19691 4.95312L8.04691 4.74062C8.11879 4.69687 8.19379 4.65312 8.26566 4.61874C8.29691 4.61249 8.34066 4.64062 8.35629 4.66249" fill="#F7C608"/>
<path d="M7.89693 4.95628L7.87818 4.9344C7.86881 4.91565 7.87506 4.8969 7.89068 4.88128C7.94381 4.85003 8.00631 4.80628 8.06881 4.7719L8.17506 4.9219C8.11647 4.95847 8.05914 4.99704 8.00318 5.03753C7.98131 5.05003 7.95943 5.0469 7.94693 5.02815L7.93131 5.0094M8.35943 4.75315L8.37818 4.77815C8.38756 4.79378 8.38131 4.81565 8.36256 4.82503C8.29878 4.85477 8.23622 4.88709 8.17506 4.9219L8.06881 4.7719L8.25006 4.66878C8.27506 4.66253 8.30943 4.68128 8.32193 4.6969" fill="#006233"/>
<path d="M8.71876 4.52815L8.70313 4.48752C8.69688 4.46252 8.70938 4.43752 8.73438 4.42502L8.98126 4.35315L9.05938 4.59377C8.97683 4.61679 8.89548 4.64391 8.81563 4.67502C8.78751 4.68127 8.76251 4.66877 8.75313 4.64377L8.74376 4.61252M9.33126 4.44377L9.34376 4.4844C9.35313 4.5094 9.33751 4.5344 9.31251 4.54065C9.22735 4.55442 9.14289 4.57215 9.05938 4.59377L8.98126 4.35315C9.06353 4.32828 9.14696 4.30743 9.23126 4.29065C9.25938 4.29065 9.29376 4.33127 9.30313 4.35315" fill="#F7C608"/>
<path d="M8.76876 4.52189L8.75939 4.49064C8.75626 4.47502 8.76876 4.45939 8.79064 4.44689L8.99376 4.38439L9.05001 4.55939C8.98146 4.57738 8.91369 4.59823 8.84689 4.62189C8.82501 4.63127 8.80314 4.6219 8.79689 4.60315L8.78751 4.58127M9.27814 4.44377L9.28751 4.4719C9.29376 4.49065 9.28126 4.50939 9.25626 4.51564C9.19689 4.52502 9.12501 4.54064 9.05001 4.55939L8.99376 4.38752C9.06186 4.36826 9.13066 4.35159 9.20001 4.33752C9.22501 4.33439 9.25001 4.36252 9.25626 4.38127" fill="#006233"/>
<path d="M9.6875 4.31875V4.27812C9.6875 4.25312 9.7125 4.23125 9.74063 4.225L9.99687 4.21875V4.47188C9.91131 4.47186 9.82579 4.47603 9.74063 4.48438C9.70938 4.48438 9.69063 4.46562 9.69063 4.4375V4.40625M10.3062 4.4V4.4375C10.3062 4.46562 10.2844 4.48438 10.2531 4.48438C10.1679 4.47631 10.0824 4.47214 9.99687 4.47188V4.21875C10.0844 4.21875 10.175 4.21875 10.2531 4.225C10.2844 4.23125 10.3062 4.27813 10.3062 4.30625" fill="#F7C608"/>
<path d="M9.74377 4.3281V4.29685C9.74377 4.2781 9.7594 4.2656 9.7844 4.25935L10 4.25623V4.43748C9.91877 4.43748 9.84065 4.4406 9.7844 4.44685C9.76252 4.44685 9.74377 4.43123 9.74377 4.4156V4.38748M10.2531 4.38435V4.41248C10.2531 4.43123 10.2375 4.44373 10.2125 4.44373C10.1418 4.43872 10.0709 4.43663 10 4.43748V4.25623L10.2125 4.25935C10.2375 4.2656 10.2531 4.29685 10.2531 4.31873" fill="#006233"/>
<path d="M10.6249 4.36248L10.6343 4.32498C10.6437 4.29998 10.6687 4.28748 10.6999 4.28748L10.9499 4.34373L10.8718 4.58748C10.7893 4.56679 10.7059 4.55011 10.6218 4.53748C10.5937 4.5281 10.5781 4.50623 10.5874 4.4781L10.5968 4.44685M11.1906 4.59373L11.1781 4.63123C11.1718 4.65935 11.1437 4.67185 11.1156 4.66248C11.0355 4.6337 10.9542 4.60867 10.8718 4.58748L10.9499 4.34373C11.0343 4.3656 11.1187 4.38748 11.1937 4.4156C11.2187 4.4281 11.2249 4.4781 11.2187 4.5031" fill="#F7C608"/>
<path d="M10.6719 4.38441L10.6782 4.35628C10.6844 4.33753 10.7094 4.32816 10.7313 4.33128L10.9375 4.37816L10.8844 4.55316C10.8152 4.53572 10.7454 4.52112 10.675 4.50941C10.6532 4.50316 10.6407 4.48441 10.6438 4.46566L10.6532 4.44378M11.1469 4.56878L11.1375 4.59378C11.1313 4.61253 11.1094 4.62503 11.0875 4.61566C11.0207 4.59217 10.9529 4.57132 10.8844 4.55316L10.9375 4.37816C11.0094 4.39691 11.0813 4.41566 11.1438 4.43753C11.1657 4.44691 11.175 4.48441 11.1657 4.50003" fill="#006233"/>
<path d="M11.5688 4.65938L11.5906 4.62813C11.6063 4.60313 11.6375 4.59687 11.6656 4.60625C11.7281 4.64062 11.8125 4.68125 11.8875 4.725L11.7406 4.94063C11.6665 4.89931 11.5904 4.86176 11.5125 4.82812C11.4906 4.8125 11.4813 4.78437 11.4969 4.7625L11.5188 4.73125M12.0438 5.02812L12.0188 5.05937C12.0112 5.06993 12 5.07736 11.9874 5.08024C11.9747 5.08311 11.9614 5.08125 11.95 5.075C11.8824 5.02686 11.8126 4.98201 11.7406 4.94063L11.8875 4.725C11.9625 4.76875 12.0375 4.80937 12.1 4.85625C12.1219 4.875 12.1125 4.925 12.0969 4.95" fill="#F7C608"/>
<path d="M11.6094 4.69378L11.625 4.66878C11.6375 4.65315 11.6594 4.65003 11.6844 4.65628C11.7344 4.68753 11.8031 4.71878 11.8656 4.75628L11.7594 4.91253C11.6983 4.87759 11.6357 4.84527 11.5719 4.81565C11.5531 4.80315 11.5469 4.7844 11.5594 4.76565L11.5719 4.74378M12.0094 4.99065L11.9906 5.01565C11.9781 5.03128 11.9594 5.0344 11.9344 5.0219C11.8776 4.98203 11.8192 4.9445 11.7594 4.9094L11.8656 4.75628L12.0437 4.86253C12.0625 4.88128 12.0594 4.91565 12.0469 4.9344" fill="#006233"/>
<path d="M12.3844 5.18749L12.4156 5.15936C12.4375 5.14374 12.4688 5.14374 12.4938 5.15936L12.6688 5.33124L12.4625 5.49686C12.4051 5.43851 12.3446 5.38323 12.2813 5.33124C12.2625 5.31249 12.2625 5.28436 12.2844 5.26874L12.3125 5.24374M12.725 5.65936L12.6938 5.68749C12.6884 5.69201 12.6823 5.69544 12.6756 5.69758C12.669 5.69971 12.6619 5.70051 12.655 5.69993C12.648 5.69935 12.6412 5.6974 12.635 5.69419C12.6288 5.69099 12.6233 5.68658 12.6188 5.68124C12.57 5.61702 12.5179 5.55548 12.4625 5.49686L12.6719 5.33124C12.7281 5.39374 12.7875 5.44999 12.8344 5.50936C12.8469 5.53436 12.825 5.58124 12.8031 5.59686" fill="#F7C608"/>
<path d="M12.4125 5.22812L12.4343 5.20937C12.45 5.19687 12.475 5.2 12.4968 5.2125C12.5343 5.25625 12.5906 5.30625 12.6406 5.35625L12.4906 5.475C12.4427 5.42591 12.3926 5.37899 12.3406 5.33437C12.325 5.31875 12.325 5.29687 12.3406 5.28437L12.3625 5.26875M12.7062 5.6125L12.6812 5.63437C12.6656 5.64687 12.6406 5.64375 12.625 5.62812C12.5824 5.57516 12.5376 5.52407 12.4906 5.475L12.6406 5.35625L12.7781 5.50312C12.7906 5.525 12.775 5.55937 12.7593 5.57187" fill="#006233"/>
<path d="M13.0032 5.90311L13.0438 5.88436C13.0688 5.87498 13.1 5.88436 13.1188 5.90623L13.2344 6.11248L12.9813 6.22186C12.9407 6.14061 12.8938 6.06561 12.8563 6.01561C12.8469 5.99061 12.8563 5.96561 12.8844 5.95311L12.9157 5.93748M13.1844 6.44373L13.1438 6.45936C13.1188 6.47186 13.0875 6.45936 13.0782 6.43748C13.0499 6.36287 13.0175 6.28985 12.9813 6.21873L13.2313 6.11248C13.269 6.1827 13.3035 6.25465 13.3344 6.32811C13.3407 6.35623 13.3032 6.39061 13.2782 6.40311" fill="#F7C608"/>
<path d="M13.0188 5.95002L13.0469 5.93752C13.0657 5.92814 13.0876 5.93752 13.1032 5.95627L13.1969 6.12814L13.0157 6.20627C12.9848 6.14757 12.9515 6.09023 12.9157 6.03439C12.9063 6.01564 12.9126 5.99377 12.9313 5.98439L12.9563 5.97502M13.1751 6.39689L13.1501 6.40627C13.1282 6.41564 13.1094 6.40627 13.0969 6.38752C13.0751 6.33439 13.0501 6.27189 13.0157 6.20627L13.1969 6.12814L13.2844 6.30627C13.2876 6.33127 13.2626 6.35939 13.2438 6.36877" fill="#006233"/>
<path d="M13.375 6.74689L13.4188 6.74064C13.4323 6.73887 13.446 6.74158 13.4579 6.74835C13.4697 6.75512 13.4791 6.76558 13.4844 6.77814L13.5313 7.00627L13.2563 7.04689C13.2429 6.9699 13.2252 6.89373 13.2032 6.81877C13.2 6.79064 13.2157 6.76877 13.2469 6.76564L13.2813 6.75939M13.3813 7.31252L13.3375 7.31877C13.3094 7.32189 13.2844 7.30627 13.2813 7.27814C13.277 7.20067 13.2686 7.12348 13.2563 7.04689L13.5313 7.00627C13.5438 7.08752 13.5563 7.16564 13.5625 7.24064C13.5625 7.26877 13.5125 7.29377 13.4844 7.29689" fill="#F7C608"/>
<path d="M13.375 6.79375L13.4063 6.79062C13.4281 6.7875 13.4469 6.80312 13.4531 6.82187C13.4625 6.87812 13.4813 6.94687 13.4906 7.0125L13.2938 7.04375C13.2834 6.97854 13.2699 6.91388 13.2531 6.85C13.25 6.82812 13.2594 6.80937 13.2844 6.80937L13.3094 6.80312M13.3906 7.2625L13.3594 7.26875C13.3375 7.26875 13.3188 7.25625 13.3156 7.2375C13.3115 7.17156 13.3042 7.10587 13.2938 7.04062L13.4906 7.0125C13.5031 7.08125 13.5156 7.14687 13.5188 7.20625C13.5188 7.22812 13.4844 7.25 13.4625 7.25312" fill="#006233"/>
<path d="M13.4719 7.65313L13.5156 7.65625C13.5469 7.65938 13.5656 7.68438 13.5687 7.7125L13.5406 7.94375L13.2656 7.90938C13.2781 7.825 13.2844 7.7375 13.2844 7.675C13.2875 7.65 13.3156 7.63125 13.3437 7.6375L13.3781 7.64063M13.3031 8.19688L13.2594 8.19063C13.2281 8.19063 13.2125 8.16563 13.2156 8.1375C13.2344 8.075 13.2531 7.99375 13.2656 7.90938L13.5406 7.94063C13.5281 8.02188 13.5156 8.10313 13.5 8.17188C13.4875 8.2 13.4344 8.2125 13.4062 8.20938" fill="#F7C608"/>
<path d="M13.4562 7.69997H13.4875C13.5094 7.70622 13.5219 7.72497 13.525 7.74685L13.5 7.9406L13.3031 7.9156L13.3219 7.72185C13.3219 7.69997 13.3406 7.68435 13.3625 7.68747H13.3906M13.3281 8.1531L13.2969 8.14997C13.275 8.14685 13.2625 8.1281 13.2656 8.10622C13.2781 8.04997 13.2937 7.98747 13.3031 7.9156L13.5 7.9406C13.4921 8.00348 13.4816 8.06603 13.4687 8.1281C13.4594 8.1531 13.4187 8.1656 13.4 8.15935" fill="#006233"/>
<path d="M13.2844 8.54685L13.325 8.56248C13.3532 8.57498 13.3625 8.59998 13.3563 8.62498L13.2625 8.84373L13.0063 8.7406C13.0417 8.66955 13.073 8.59651 13.1 8.52185C13.1094 8.49685 13.1375 8.48748 13.1625 8.49685L13.2 8.50935M12.9532 9.02498L12.9157 9.00935C12.8875 8.99685 12.875 8.97185 12.8875 8.94685C12.925 8.8906 12.9688 8.81873 13.0063 8.7406L13.2594 8.84373C13.2263 8.91524 13.1898 8.98511 13.15 9.0531C13.1313 9.07498 13.075 9.07498 13.0469 9.06248" fill="#F7C608"/>
<path d="M13.2563 8.5875L13.2876 8.59687C13.3032 8.60625 13.3094 8.62812 13.3063 8.65L13.2251 8.82812L13.0407 8.75625C13.0696 8.69711 13.0957 8.63662 13.1188 8.575C13.1282 8.55312 13.1501 8.54375 13.1688 8.55L13.1938 8.5625M12.9907 8.9875L12.9594 8.97812C12.9407 8.96875 12.9344 8.94687 12.9469 8.92812C12.9807 8.87223 13.012 8.81489 13.0407 8.75625L13.2251 8.82812C13.1961 8.88766 13.1648 8.94604 13.1313 9.00312C13.1157 9.02187 13.0751 9.025 13.0563 9.01562" fill="#006233"/>
<path d="M12.8281 9.35626L12.8625 9.38126C12.8844 9.40001 12.8875 9.42814 12.875 9.45314C12.825 9.50314 12.7687 9.57189 12.7125 9.63439L12.5 9.46876C12.5625 9.40626 12.6187 9.33439 12.6562 9.28126C12.675 9.26251 12.7062 9.26251 12.7281 9.27814L12.7562 9.30001M12.3625 9.73126L12.3312 9.70626C12.3062 9.68751 12.3031 9.65939 12.3219 9.64064C12.375 9.59376 12.4375 9.53751 12.5 9.46876L12.7125 9.63439C12.6578 9.69524 12.6005 9.75364 12.5406 9.80939C12.5156 9.82501 12.4625 9.80939 12.4406 9.79064" fill="#F7C608"/>
<path d="M12.7875 9.38751L12.8125 9.40626C12.8281 9.41876 12.8281 9.43751 12.8156 9.45939L12.6813 9.60939L12.5281 9.49376C12.5813 9.43751 12.6281 9.38126 12.6594 9.33751C12.675 9.32189 12.7 9.31876 12.7156 9.33126L12.7344 9.34689M12.4094 9.70626L12.3844 9.68751C12.3688 9.67501 12.3688 9.65314 12.3844 9.63439C12.4343 9.58953 12.4822 9.54262 12.5281 9.49376L12.6844 9.60939C12.6344 9.66251 12.5875 9.71251 12.5375 9.75626C12.5188 9.76876 12.4813 9.75939 12.4625 9.74689" fill="#006233"/>
<path d="M12.1406 10.0156L12.1625 10.0469C12.1781 10.0719 12.1719 10.1 12.1531 10.1188L11.9438 10.2531L11.7875 10.0406C11.8596 9.99842 11.9295 9.95253 11.9969 9.90313C12.0079 9.89655 12.021 9.89419 12.0336 9.89649C12.0462 9.89879 12.0576 9.90559 12.0656 9.91563L12.0875 9.94376M11.575 10.2563L11.5531 10.225C11.5344 10.2 11.5406 10.1719 11.5656 10.1563C11.6424 10.1213 11.7175 10.0828 11.7906 10.0406L11.9406 10.2531L11.7219 10.3781C11.6938 10.3844 11.65 10.3563 11.6313 10.3344" fill="#F7C608"/>
<path d="M12.0907 10.0344L12.1063 10.0594C12.1188 10.075 12.1125 10.0969 12.0938 10.1125L11.9188 10.2219L11.8094 10.0719L11.9844 9.95626C12.0032 9.94376 12.0282 9.94689 12.0375 9.96251L12.0532 9.98439M11.6282 10.2438L11.6094 10.2188C11.6 10.2031 11.6063 10.1813 11.625 10.1688C11.6888 10.139 11.7514 10.1067 11.8125 10.0719L11.9188 10.2219C11.8563 10.2594 11.7938 10.2969 11.7375 10.325C11.7157 10.3344 11.6782 10.3156 11.6688 10.3" fill="#006233"/>
<path d="M11.275 10.4719L11.2875 10.5094C11.2969 10.5344 11.2813 10.5625 11.2563 10.5719L11.0125 10.65L10.9313 10.4063C11.0129 10.3835 11.0932 10.3564 11.1719 10.325C11.2 10.3188 11.2282 10.3313 11.2344 10.3563L11.2469 10.3875M10.6594 10.5594L10.6469 10.5188C10.6375 10.4938 10.6532 10.4688 10.6782 10.4625C10.7532 10.45 10.8375 10.4313 10.9282 10.4063L11.0125 10.65C10.9282 10.6719 10.8438 10.6969 10.7625 10.7125C10.7313 10.7125 10.7 10.6719 10.6907 10.65" fill="#F7C608"/>
<path d="M11.2188 10.4781L11.2313 10.5063C11.2375 10.525 11.2219 10.5438 11.2 10.5531L11 10.6156L10.9406 10.4406C11.0081 10.4225 11.0748 10.4017 11.1406 10.3781C11.1656 10.3688 11.1875 10.3781 11.1938 10.3969L11.2 10.4188M10.7125 10.5594L10.7031 10.5313C10.6969 10.5125 10.7094 10.4938 10.7344 10.4875C10.8037 10.4747 10.8726 10.4591 10.9406 10.4406L11 10.6156C10.9318 10.6346 10.8631 10.6513 10.7938 10.6656C10.7688 10.6656 10.7406 10.6406 10.7313 10.6219" fill="#006233"/>
<path d="M10.3031 10.6875V10.7281C10.3031 10.7562 10.2813 10.775 10.2531 10.7812C10.1781 10.7812 10.0844 10.7906 9.99687 10.7906L9.99375 10.5375C10.0794 10.5365 10.1649 10.5313 10.25 10.5219C10.2812 10.5219 10.3 10.5406 10.3 10.5687V10.6M9.6875 10.6125V10.575C9.6875 10.5469 9.70625 10.5281 9.7375 10.5281C9.80938 10.5312 9.89687 10.5375 9.99375 10.5375V10.7906L9.7375 10.7875C9.70938 10.7812 9.6875 10.7344 9.6875 10.7062" fill="#F7C608"/>
<path d="M10.25 10.6812V10.7094C10.25 10.7281 10.2313 10.7406 10.2063 10.7469L9.9938 10.7531V10.575C10.0719 10.575 10.15 10.5656 10.2063 10.5625C10.2313 10.5625 10.2469 10.575 10.25 10.5938V10.6187M9.73755 10.6281V10.5969C9.73755 10.5813 9.75317 10.5656 9.77817 10.5656C9.84067 10.5688 9.91255 10.575 9.9938 10.5719V10.7531H9.7813C9.7563 10.7469 9.73755 10.7125 9.73755 10.6938" fill="#006233"/>
</g>
<defs>
<clipPath id="clip0_14_513">
<rect width="20" height="15" fill="white"/>
</clipPath>
</defs>
</svg>
