<svg width="20" height="15" viewBox="0 0 20 15" fill="none" xmlns="http://www.w3.org/2000/svg">
<mask id="mask0_1825_40583" style="mask-type:luminance" maskUnits="userSpaceOnUse" x="0" y="0" width="20" height="15">
<rect width="20" height="15" fill="white"/>
</mask>
<g mask="url(#mask0_1825_40583)">
<path fill-rule="evenodd" clip-rule="evenodd" d="M0 0H20V15H0V0Z" fill="#F7FCFF"/>
<path d="M0 -0.625H-0.625V0V7.06687L-1.78 7.5L-0.625 7.93313V15V15.625H0H20L20.2195 14.4148L1.78 7.5L20.2195 0.585206L20 -0.625H0Z" fill="#3547A0" stroke="#E31D1C" stroke-width="1.25"/>
<path fill-rule="evenodd" clip-rule="evenodd" d="M17.5562 3.76697C17.5562 3.76697 12.5167 5.07546 12.5167 5.27679C12.5167 5.47813 12.0632 6.11606 12.1561 6.28259C12.2489 6.44912 12.4901 6.66982 12.6881 6.55947C12.8861 6.44912 13.3565 6.00572 13.1986 6.28259C13.0408 6.55947 14.0473 6.88139 13.623 7.49285C13.623 7.49285 14.1328 7.19899 13.886 8.87014L15.0995 9.216C15.0995 9.216 16.4548 8.86066 15.8362 7.84373H16.5546C16.5546 7.84373 16.2569 6.52591 16.6968 6.28259C17.1367 6.03927 16.2484 5.85433 16.2484 5.85433C18.1264 4.78525 17.5562 3.76697 17.5562 3.76697Z" fill="#C44800"/>
<path fill-rule="evenodd" clip-rule="evenodd" d="M16.7219 9.35653L13.6798 8.84241L13.2813 8.30908L11.5542 8.65683L13.0703 9.51572L13.58 9.24142L16.7219 9.74304V9.35653Z" fill="#FFC221"/>
<path fill-rule="evenodd" clip-rule="evenodd" d="M17.189 9.82426V9.52287L13.7782 9.31534C13.7782 9.31534 13.5725 9.125 13.0652 9.125C12.5579 9.125 12.5 9.52287 12.5 9.52287C12.5 9.52287 12.7909 10.1027 13.3549 10.1027C13.919 10.1027 14.7961 10.2382 15.0336 10.5171C15.2712 10.796 16.2556 10.3738 16.2556 10.3738C16.2556 10.3738 15.835 9.65032 15.2953 9.87653C14.7556 10.1027 13.7782 9.76696 13.7782 9.64492C13.7782 9.52287 17.189 9.82426 17.189 9.82426Z" fill="#FFC221"/>
<path fill-rule="evenodd" clip-rule="evenodd" d="M11.4286 7.38379C11.4286 7.38379 11.098 8.09245 11.218 8.36042C11.7461 8.91192 12.7062 8.03338 12.7062 8.03338L11.4286 7.38379Z" fill="#FFC221"/>
<path fill-rule="evenodd" clip-rule="evenodd" d="M16.6424 7.72187C16.9932 7.54141 17.1722 7.20718 17.1722 6.7712C17.1722 6.43558 17.0923 6.17043 16.9156 6.00095V5.77215L16.606 5.76931C13.8318 5.74385 12.2699 6.01837 11.8172 6.70514C11.3594 7.39965 11.3994 7.9929 12.0225 8.28086L12.2981 8.27424C13.6449 7.57152 15.0154 7.39706 16.4241 7.74724L16.6424 7.72187ZM12.0781 6.87712C12.4437 6.32258 13.952 6.05747 16.6031 6.0818V6.16061C16.7742 6.24269 16.8597 6.44621 16.8597 6.7712C16.8597 7.09618 16.7396 7.32044 16.4995 7.44397C15.0159 7.07516 13.5672 7.25957 12.1535 7.99718C11.7377 7.80502 11.7126 7.43167 12.0781 6.87712Z" fill="#979797"/>
<path d="M16.6033 6.08186C13.9521 6.05753 12.4438 6.32263 12.0783 6.87718C11.7128 7.43173 11.7379 7.80508 12.1537 7.99724C13.5674 7.25962 15.016 7.07522 16.4996 7.44403C16.7398 7.3205 16.8599 7.09624 16.8599 6.77125C16.8599 6.44627 16.7743 6.24274 16.6033 6.16067V6.08186Z" fill="#F7FCFF"/>
</g>
</svg>
