<svg width="20" height="15" viewBox="0 0 20 15" fill="none" xmlns="http://www.w3.org/2000/svg">
<g clip-path="url(#clip0_14_499)">
<mask id="mask0_14_499" style="mask-type:luminance" maskUnits="userSpaceOnUse" x="0" y="0" width="20" height="15">
<path d="M0 0H19.9998V14.9999H0V0Z" fill="white"/>
</mask>
<g mask="url(#mask0_14_499)">
<path d="M0 0V14.9999H22.4998V0H0Z" fill="#3399CC"/>
<path d="M0 9.99988V10.8332H22.4998V9.99988H0ZM0 11.6665V12.4999H22.4998V11.6665H0Z" fill="#FFFF00"/>
</g>
<path d="M4.45935 0.875L4.54998 0.96875L4.45623 0.875H4.45935Z" fill="#99CCCC"/>
<path d="M4.3656 1.15626L4.45935 1.24689L4.3656 1.15314" fill="#CCCCFF"/>
<path d="M4.45942 1.33752L4.55005 1.43127L4.4563 1.33752H4.45942Z" fill="#CC6666"/>
<path d="M4.64375 1.33752L4.73438 1.43127L4.64062 1.33752H4.64375Z" fill="#66CCCC"/>
<path d="M4.64373 1.43127L4.73435 1.52502L4.6406 1.43127H4.64373Z" fill="#CCCCFF"/>
<path d="M4.44377 1.0625L3.7969 3.51562L1.33752 4.1875L3.78752 4.82812L4.44377 7.27812L5.0969 4.82812L7.5469 4.17188L5.0969 3.51875L4.44065 1.06875L4.44377 1.0625Z" fill="#CC0000" stroke="white" stroke-width="0.185"/>
<path d="M4.64373 1.79999L4.73435 1.89374L4.6406 1.79999H4.64373Z" fill="#FFCCCC"/>
<path d="M3.9062 2.44685L3.99683 2.53748L3.90308 2.44373L3.9062 2.44685Z" fill="#6699CC"/>
<path d="M4.08752 2.44685L4.18127 2.53748L4.08752 2.44373" fill="#FFCCCC"/>
<path d="M5.01245 2.44685L5.1062 2.53748L5.01245 2.44373V2.44685Z" fill="#6699CC"/>
<path d="M3.9062 2.53748L3.99683 2.63123L3.90308 2.53748H3.9062Z" fill="#99CCCC"/>
<path d="M3.9062 2.63123L3.99683 2.72498L3.90308 2.63123" fill="#CCFFFF"/>
<path d="M3.9062 3L3.99683 3.09375L3.90308 3" fill="#FFCCCC"/>
<path d="M3.71875 3.09376L3.8125 3.18439L3.71875 3.09064V3.09376Z" fill="#99CCCC"/>
<path d="M3.93745 3.15314L3.96558 3.21564L3.93433 3.15314" fill="#CC3333"/>
<path d="M5.1969 3.09376L5.29065 3.18439L5.1969 3.09064V3.09376Z" fill="#99CCCC"/>
<path d="M3.34998 3.46252L3.44373 3.55315L3.34998 3.4594V3.46252Z" fill="#99CCCC"/>
<path d="M5.47498 3.45935L5.5656 3.5531L5.47185 3.45935H5.47498Z" fill="#CCCCFF"/>
<path d="M5.8437 3.5531L5.93433 3.64685L5.84058 3.5531H5.8437Z" fill="#99CCCC"/>
<path d="M2.15002 3.83124L2.24377 3.92186L2.15002 3.82811V3.83124Z" fill="#6699CC"/>
<path d="M1.9687 3.92188L2.05933 4.01562L1.96558 3.92188H1.9687Z" fill="#99CCFF"/>
<path d="M2.33748 3.92188L2.4281 4.01562L2.33435 3.92188H2.33748ZM6.58123 3.92188L6.67185 4.01562L6.5781 3.92188H6.58123Z" fill="#FFCCCC"/>
<path d="M1.59692 4.01562L1.69067 4.10625L1.59692 4.0125V4.01562Z" fill="#66CCCC"/>
<path d="M1.13745 4.20001L1.2312 4.29064L1.13745 4.19689V4.20001Z" fill="#99CCCC"/>
<path d="M7.78127 4.1969L7.8719 4.29065L7.77815 4.1969" fill="#99CCCC"/>
<path d="M1.59692 4.38435L1.69067 4.47498L1.59692 4.38123V4.38435Z" fill="#66CCCC"/>
<path d="M1.6875 4.38435L1.78125 4.47498L1.6875 4.38123V4.38435Z" fill="#CCCCFF"/>
<path d="M2.05933 4.38435L2.15308 4.47498L2.05933 4.38123V4.38435Z" fill="#FFCCCC"/>
<path d="M6.8562 4.38435L6.94995 4.47498L6.8562 4.38123V4.38435Z" fill="#FFCCCC"/>
<path d="M7.22498 4.38435L7.31873 4.47498L7.22498 4.38123V4.38435Z" fill="#CCCCFF"/>
<path d="M7.31875 4.38435L7.4125 4.47498L7.31875 4.38123" fill="#66CCCC"/>
<path d="M1.9687 4.47498L2.05933 4.56873L1.96558 4.47498H1.9687Z" fill="#99CCFF"/>
<path d="M2.33748 4.47498L2.4281 4.56873L2.33435 4.47498H2.33748ZM6.58123 4.47498L6.67185 4.56873L6.5781 4.47498H6.58123Z" fill="#FFCCCC"/>
<path d="M2.15002 4.56874L2.24377 4.65936L2.15002 4.56561V4.56874Z" fill="#6699CC"/>
<path d="M2.24377 4.56874L2.33752 4.65936L2.24377 4.56561V4.56874Z" fill="#99CCFF"/>
<path d="M2.7063 4.56874L2.80005 4.65936L2.7063 4.56561V4.56874Z" fill="#FFCCCC"/>
<path d="M6.20935 4.56874L6.3031 4.65936L6.20935 4.56561V4.56874Z" fill="#FFCCCC"/>
<path d="M6.67188 4.56874L6.76562 4.65936L6.67188 4.56561V4.56874Z" fill="#99CCFF"/>
<path d="M6.76248 4.56874L6.85623 4.65936L6.76248 4.56561" fill="#6699CC"/>
<path d="M2.70625 4.75311L2.79687 4.84374L2.70312 4.74999L2.70625 4.75311Z" fill="#6699CC"/>
<path d="M5.84373 4.84375L5.93435 4.9375L5.8406 4.84375" fill="#99CCCC"/>
<path d="M5.47498 4.9375L5.5656 5.03125L5.47185 4.9375H5.47498Z" fill="#CCCCFF"/>
<path d="M3.625 5.03125L3.71875 5.12187L3.625 5.02812V5.03125Z" fill="#99CCCC"/>
<path d="M3.8125 5.03126L3.90625 5.12189L3.8125 5.02814" fill="#CC3333"/>
<path d="M5.28748 5.03126L5.38123 5.12189L5.28748 5.02814V5.03126Z" fill="#99CCCC"/>
<path d="M3.93745 5.27502L3.96558 5.33752L3.93433 5.27502" fill="#CC3333"/>
<path d="M3.9062 5.39685L3.99683 5.4906L3.90308 5.39685" fill="#FFCCCC"/>
<path d="M3.9062 5.76562L3.99683 5.85938L3.90308 5.76562H3.9062Z" fill="#CCFFFF"/>
<path d="M3.9062 5.85938L3.99683 5.95312L3.90308 5.85938" fill="#99CCCC"/>
<path d="M3.9062 5.95001L3.99683 6.04376L3.90308 5.95001H3.9062Z" fill="#6699CC"/>
<path d="M4.08752 6.50624L4.18127 6.59686L4.08752 6.50311" fill="#6699CC"/>
<path d="M4.64373 6.59686L4.73435 6.69061L4.6406 6.59686H4.64373Z" fill="#FFCCCC"/>
<path d="M4.64373 6.96564L4.73435 7.05939L4.6406 6.96564H4.64373Z" fill="#CCCCFF"/>
<path d="M4.45942 7.05939L4.55005 7.15314L4.4563 7.05939H4.45942Z" fill="#CC6666"/>
<path d="M4.64375 7.05939L4.73438 7.15314L4.64062 7.05939H4.64375Z" fill="#66CCCC"/>
<path d="M4.45623 7.52185L4.54998 7.61248L4.45623 7.51873V7.52185Z" fill="#99CCCC"/>
</g>
<defs>
<clipPath id="clip0_14_499">
<rect width="20" height="15" fill="white"/>
</clipPath>
</defs>
</svg>
