<svg width="20" height="15" viewBox="0 0 20 15" fill="none" xmlns="http://www.w3.org/2000/svg">
<g clip-path="url(#clip0_14_442)">
<mask id="mask0_14_442" style="mask-type:luminance" maskUnits="userSpaceOnUse" x="0" y="0" width="20" height="15">
<path d="M0.000976562 0H19.999V15H0.000976562V0Z" fill="white"/>
</mask>
<g mask="url(#mask0_14_442)">
<path fill-rule="evenodd" clip-rule="evenodd" d="M0.000976562 0H19.999V15H0.000976562V0Z" fill="#000099"/>
<path fill-rule="evenodd" clip-rule="evenodd" d="M4.15527 0L19.126 15.0088V0.00878906L4.15527 0Z" fill="#FFCC00"/>
<path fill-rule="evenodd" clip-rule="evenodd" d="M15.3877 14.1064L14.5703 13.5117L13.7324 14.1035L14.0488 13.1309L13.2227 12.5303H14.248L14.5645 11.5576L14.8779 12.5332H15.9033L15.083 13.1396L15.3877 14.1064ZM17.7695 14.4111L16.7441 14.4082L16.4307 13.4326L16.1143 14.4053H15.0889L15.915 15.0059L15.5986 15.9785L16.4365 15.3867L17.2568 15.9814L16.9492 15.0146L17.7695 14.4111ZM13.2109 11.2705L14.0313 10.6641L13.0059 10.6611L12.6924 9.68848L12.376 10.6611L11.3506 10.6582L12.1768 11.2588L11.8604 12.2344L12.6982 11.6396L13.5186 12.2373L13.2109 11.2705ZM11.3271 9.38086L12.1475 8.77734L11.1221 8.77441L10.8086 7.79883L10.4893 8.77149H9.4668L10.293 9.37207L9.97656 10.3447L10.8145 9.75293L11.6318 10.3477L11.3271 9.38086ZM9.46094 7.51758L10.2813 6.91113H9.25586L8.94531 5.93262L8.62891 6.90527H7.60352L8.42969 7.50293L8.11328 8.47852L8.95117 7.88379L9.77148 8.48145L9.46387 7.51465L9.46094 7.51758ZM7.57422 5.63379L8.39453 5.03027L7.36914 5.02734L7.05566 4.05176L6.73633 5.02441H5.71387L6.54297 5.625L6.22656 6.59766L7.06445 6.00586L7.88184 6.60059L7.57715 5.63379H7.57422ZM5.71094 3.76172L6.52832 3.15527H5.50293L5.19238 2.17676L4.87305 3.15234H3.84766L4.67969 3.75L4.36035 4.72266L5.19824 4.13086L6.0127 4.72852L5.71094 3.76172ZM3.83594 1.88672L4.65332 1.28027H3.62793L3.31738 0.301758L2.99805 1.27734H1.97266L2.80469 1.875L2.48242 2.85059L3.32324 2.25586L4.1377 2.85352L3.83594 1.88672ZM1.96094 0.0117189L2.77539 -0.594727H1.75L1.43652 -1.57031L1.12305 -0.597656H0.0976562L0.926758 5.51343e-08L0.610352 0.972657L1.44824 0.380859L2.2627 0.978516L1.96094 0.0117189Z" fill="white"/>
</g>
</g>
<defs>
<clipPath id="clip0_14_442">
<rect width="20" height="15" fill="white"/>
</clipPath>
</defs>
</svg>
