<svg width="21" height="15" viewBox="0 0 21 15" fill="none" xmlns="http://www.w3.org/2000/svg">
<mask id="mask0_1825_40670" style="mask-type:luminance" maskUnits="userSpaceOnUse" x="0" y="0" width="22" height="15">
<rect width="21.25" height="15" fill="white"/>
</mask>
<g mask="url(#mask0_1825_40670)">
<path fill-rule="evenodd" clip-rule="evenodd" d="M0 0H20.25V15H0V0Z" fill="#2E42A5"/>
<path fill-rule="evenodd" clip-rule="evenodd" d="M6.25 0H19V15L6.25 0Z" fill="#FECA00"/>
<path fill-rule="evenodd" clip-rule="evenodd" d="M4.44273 1.74609L3.708 2.13236L3.84832 1.31423L3.25391 0.734823L4.07536 0.615458L4.44273 -0.128906L4.81009 0.615458L5.63155 0.734823L5.03714 1.31423L5.17746 2.13236L4.44273 1.74609Z" fill="#F7FCFF"/>
<path fill-rule="evenodd" clip-rule="evenodd" d="M6.62193 4.42114L5.88719 4.80741L6.02752 3.98928L5.43311 3.40987L6.25456 3.29051L6.62193 2.54614L6.98929 3.29051L7.81075 3.40987L7.21634 3.98928L7.35666 4.80741L6.62193 4.42114Z" fill="#F7FCFF"/>
<path fill-rule="evenodd" clip-rule="evenodd" d="M8.66489 7.02405L7.93016 7.41032L8.07048 6.59218L7.47607 6.01278L8.29753 5.89341L8.66489 5.14905L9.03226 5.89341L9.85372 6.01278L9.25931 6.59218L9.39963 7.41032L8.66489 7.02405Z" fill="#F7FCFF"/>
<path fill-rule="evenodd" clip-rule="evenodd" d="M10.6659 9.51831L9.93114 9.90458L10.0715 9.08645L9.47705 8.50704L10.2985 8.38767L10.6659 7.64331L11.0332 8.38767L11.8547 8.50704L11.2603 9.08645L11.4006 9.90458L10.6659 9.51831Z" fill="#F7FCFF"/>
<path fill-rule="evenodd" clip-rule="evenodd" d="M12.8216 12.0854L12.0869 12.4717L12.2272 11.6536L11.6328 11.0742L12.4543 10.9548L12.8216 10.2104L13.189 10.9548L14.0105 11.0742L13.416 11.6536L13.5564 12.4717L12.8216 12.0854Z" fill="#F7FCFF"/>
<path fill-rule="evenodd" clip-rule="evenodd" d="M15.2044 14.5693L14.4697 14.9556L14.61 14.1375L14.0156 13.5581L14.8371 13.4387L15.2044 12.6943L15.5718 13.4387L16.3933 13.5581L15.7989 14.1375L15.9392 14.9556L15.2044 14.5693Z" fill="#F7FCFF"/>
</g>
</svg>
