<svg width="20" height="15" viewBox="0 0 20 15" fill="none" xmlns="http://www.w3.org/2000/svg">
<g clip-path="url(#clip0_14_418)">
<mask id="mask0_14_418" style="mask-type:luminance" maskUnits="userSpaceOnUse" x="0" y="0" width="20" height="15">
<path d="M0.00170898 0H19.9968V15H0.00170898V0Z" fill="white"/>
</mask>
<g mask="url(#mask0_14_418)">
<path fill-rule="evenodd" clip-rule="evenodd" d="M-2.56177 0L10.0007 7.5L-2.56177 15V0ZM22.5632 0L10.0007 7.5L22.5632 15V0Z" fill="#18B637"/>
<path fill-rule="evenodd" clip-rule="evenodd" d="M-2.56177 0L10.0007 7.5L22.5632 0H-2.56177ZM-2.56177 15L10.0007 7.5L22.5632 15H-2.56177Z" fill="#CF0921"/>
<path fill-rule="evenodd" clip-rule="evenodd" d="M22.5632 0H20.2224L-2.56177 13.6025V15H-0.220947L22.5632 1.39746V0Z" fill="white"/>
<path fill-rule="evenodd" clip-rule="evenodd" d="M14.3396 7.5C14.3396 8.65035 13.8826 9.75359 13.0692 10.567C12.2558 11.3804 11.1525 11.8374 10.0022 11.8374C8.85185 11.8374 7.74861 11.3804 6.93519 10.567C6.12177 9.75359 5.66479 8.65035 5.66479 7.5C5.66479 6.35004 6.12162 5.24718 6.93476 4.43403C7.74791 3.62088 8.85077 3.16406 10.0007 3.16406C11.1507 3.16406 12.2536 3.62088 13.0667 4.43403C13.8798 5.24718 14.3367 6.35004 14.3367 7.5H14.3396Z" fill="white"/>
<path fill-rule="evenodd" clip-rule="evenodd" d="M-2.56177 0V1.39746L20.2224 15H22.5632V13.6025L-0.220947 0H-2.56177Z" fill="white"/>
<path fill-rule="evenodd" clip-rule="evenodd" d="M10.8562 5.86523L10.2908 5.87402L9.9978 6.35449L9.70776 5.87402L9.14526 5.8623L9.41772 5.36719L9.14819 4.875L9.71069 4.86328L10.0037 4.38281L10.2937 4.86621L10.8562 4.87793L10.5837 5.37012L10.8562 5.86523ZM8.96362 9.13476L8.40112 9.14355L8.10815 9.62402L7.81812 9.14355L7.25562 9.13184L7.52808 8.63672L7.25854 8.14453L7.82104 8.13281L8.11401 7.65234L8.40405 8.13574L8.96655 8.14746L8.69409 8.63965L8.96362 9.13476ZM12.7898 9.13476L12.2273 9.14355L11.9343 9.62402L11.6414 9.14355L11.0818 9.13184L11.3542 8.63672L11.0818 8.14453L11.6443 8.13281L11.9373 7.65234L12.2302 8.13574L12.7927 8.14746L12.5173 8.63965L12.7898 9.13476Z" fill="#CF0921" stroke="#18B637" stroke-width="0.182812"/>
</g>
</g>
<defs>
<clipPath id="clip0_14_418">
<rect width="20" height="15" fill="white"/>
</clipPath>
</defs>
</svg>
