<svg width="20" height="15" viewBox="0 0 20 15" fill="none" xmlns="http://www.w3.org/2000/svg">
<g clip-path="url(#clip0_14_488)">
<path d="M0 0H20V15H0V0Z" fill="#CF142B"/>
<path d="M17.4907 4.08124V9.13124C17.4907 10.4781 14.7969 10.9187 14.7969 10.9187C14.7969 10.9187 12.0969 10.4812 12.0969 9.12499V4.08124H17.4875H17.4907Z" fill="white"/>
<path d="M17.4907 9.13125C17.4907 10.4781 14.7969 10.9187 14.7969 10.9187C14.7969 10.9187 12.0969 10.4813 12.0969 9.125C12.0969 9.125 12.0969 9.01563 12.1532 8.95625C12.1532 8.95625 12.1219 9.17813 12.2938 9.35C12.2938 9.35 12.1594 9.10625 12.2938 8.87187C12.2938 8.87187 12.2407 9.17813 12.4313 9.35C12.4313 9.35 12.3282 9.10313 12.4438 8.82812C12.4438 8.82812 12.3875 9.275 12.5907 9.36875C12.5907 9.36875 12.6469 9.10625 12.5657 8.94375C12.5657 8.94375 12.7063 9 12.7 9.375C12.7 9.375 12.7438 9.31875 12.7563 9.04688C12.7563 9.04688 12.7625 9.35937 12.8657 9.43125C12.8657 9.43125 12.9032 9.4 12.8563 9.25937C12.8063 9.12187 12.875 9.07187 12.8875 9.07187C12.8875 9.07187 12.8625 9.22813 12.9938 9.34688C12.9938 9.34688 12.9375 9.1 13.0157 9.06563C13.0157 9.06563 12.9969 9.275 13.1657 9.31875C13.1657 9.31875 13.175 9.25938 13.1407 9.19375C13.1407 9.19375 13.1094 9.11563 13.1313 9.05313C13.1313 9.05313 13.1844 9.24063 13.2563 9.27188C13.2563 9.27188 13.2125 9.15938 13.2563 9.05313C13.2563 9.05313 13.2625 9.20937 13.4032 9.275C13.4032 9.275 13.3094 9.15 13.3438 9.01875L14.2407 9.0625L14.7094 9.08438L16.1063 8.99063L16.3438 8.78125C16.3438 8.78125 16.4407 8.90937 16.2875 9.11875C16.2875 9.11875 16.4375 9.09375 16.4844 8.85938C16.4844 8.85938 16.5469 8.9875 16.4625 9.13437C16.4625 9.13437 16.6282 8.96563 16.65 8.78125C16.65 8.78125 16.7157 8.9625 16.5594 9.15625C16.5594 9.15625 16.6969 9.10625 16.7563 8.90312C16.7563 8.90312 16.8063 9.02812 16.6719 9.2C16.6719 9.2 16.925 9.07187 16.9188 8.79375C16.9188 8.79375 17.0219 8.94375 16.9032 9.15625C16.9032 9.15625 17.0282 9.04063 17.0438 8.86563C17.0438 8.86563 17.1157 8.94375 17.0375 9.15938C17.0375 9.15938 17.1938 9.00938 17.2188 8.85C17.2188 8.85 17.25 9 17.1188 9.1875C17.1188 9.1875 17.2094 9.1625 17.2969 8.98125C17.2969 8.98125 17.3188 9.05625 17.2407 9.1875C17.2407 9.1875 17.3282 9.17188 17.3844 9.00313C17.3844 9.00313 17.3938 9.10313 17.3688 9.19063C17.3688 9.19063 17.4344 9.15 17.45 8.9625C17.4505 9.01079 17.4634 9.05815 17.4875 9.1V9.125L17.4907 9.13125Z" fill="#2F8F22"/>
<path d="M16.1062 6.20936C16.1062 6.20936 16.0125 6.22811 15.8875 6.19061C15.7687 6.15311 15.7219 6.16874 15.6844 6.19061C15.6844 6.19061 15.7312 6.09374 15.6125 6.01561C15.6125 6.01561 15.65 6.11561 15.5969 6.15936C15.5969 6.15936 15.575 6.18124 15.5469 6.14999C15.5469 6.14999 15.5062 6.10311 15.4594 6.07499C15.4594 6.07499 15.5625 6.03749 15.5437 5.93436C15.525 5.83124 15.4687 5.82186 15.4406 5.80624C15.4355 5.83098 15.4355 5.85649 15.4406 5.88124C15.4406 5.88124 15.3312 5.81874 15.4781 5.73436C15.6281 5.64999 15.6031 5.59686 15.575 5.55311C15.5461 5.50891 15.509 5.47071 15.4656 5.44061C15.4656 5.44061 15.4969 5.49061 15.4875 5.53124C15.4844 5.56874 15.4125 5.59374 15.425 5.52811C15.4406 5.45311 15.425 5.46561 15.425 5.39374C15.425 5.39374 15.5562 5.43749 15.6125 5.30624C15.6125 5.30624 15.6625 5.17186 15.4937 5.10624C15.4937 5.10624 15.5344 5.16249 15.5156 5.19999C15.5156 5.19999 15.4781 5.26874 15.4375 5.21874C15.3969 5.16561 15.3687 5.14999 15.3719 5.08749C15.3719 5.08749 15.525 5.10936 15.4844 4.94061C15.4844 4.94061 15.4562 5.05311 15.2593 4.90311C15.2593 4.90311 15.3906 4.77186 15.3375 4.66561C15.3375 4.66561 15.3219 4.61874 15.1844 4.64374C15.1844 4.64374 15.3031 4.56874 15.2562 4.50311C15.2562 4.50311 15.2281 4.46249 15.1125 4.51561C15.1125 4.51561 15.1594 4.44374 15.0469 4.35936C15.0469 4.35936 14.9719 4.39686 14.9344 4.43436C14.9344 4.43436 14.8594 4.34061 14.8094 4.29999C14.8094 4.29999 14.7219 4.33436 14.7 4.43436C14.7 4.43436 14.6594 4.38749 14.5656 4.35936C14.5656 4.35936 14.5219 4.44686 14.5812 4.51561C14.5812 4.51561 14.5375 4.51561 14.4562 4.48124C14.4562 4.48124 14.3687 4.44374 14.3843 4.51561C14.3937 4.59061 14.4031 4.60936 14.4219 4.64686C14.4219 4.64686 14.2187 4.59999 14.2281 4.70936C14.2299 4.7463 14.2391 4.7825 14.2552 4.81579C14.2713 4.84908 14.294 4.87878 14.3218 4.90311C14.3218 4.90311 14.2125 5.05311 14.1156 4.94061C14.1156 4.94061 14.0781 4.97811 14.1531 5.07186C14.1531 5.07186 14.2281 5.14999 14.1625 5.20311C14.1625 5.20311 14.0844 5.26561 14.0469 5.14061C14.0469 5.14061 13.9187 5.26874 14.0718 5.36561C14.0718 5.36561 14.1656 5.42186 14.2687 5.33436C14.2687 5.33436 14.2375 5.58436 14.1437 5.53436C14.1437 5.53436 14.0844 5.49686 14.1875 5.44374C14.1875 5.44374 14.0375 5.42499 14.0156 5.56874C14.0156 5.56874 13.9969 5.67811 14.125 5.72499C14.125 5.72499 14.2219 5.76249 14.125 5.83749C14.125 5.83749 14.0469 5.89061 14.0969 5.97499C14.0969 5.97499 14.1531 6.06249 14.0062 6.07499C14.0062 6.07499 13.9312 6.07499 13.9031 6.06249C13.9031 6.06249 13.8719 6.12499 13.8906 6.18749C13.8906 6.18749 13.8187 6.13436 13.6562 6.19374C13.4937 6.25624 13.5031 6.21249 13.4937 6.23124L13.4437 6.30624C13.4437 6.30624 13.5312 6.41874 13.5344 6.40936L13.5156 6.53436L13.5594 6.55311L13.8969 6.40311L14.2406 6.22499L14.5187 6.23749L14.6937 6.27811L14.9187 6.29686L15.0875 6.20936H15.325L15.5875 6.34061L15.8843 6.51874L16.0406 6.54999L16.1625 6.54061V6.29686L16.1062 6.20936Z" fill="#D40000" stroke="black" stroke-width="0.06" stroke-linejoin="round"/>
<path d="M13.3812 6.4906C13.3812 6.4906 13.5125 6.55935 13.5687 6.48123C13.5687 6.48123 13.6375 6.34373 13.4812 6.29373C13.4812 6.29373 13.5687 6.19373 13.475 6.09998C13.475 6.09998 13.425 6.04998 13.3437 6.08435C13.3437 6.08435 13.3062 6.01248 13.2281 6.0156C13.2281 6.0156 13.1531 6.0156 13.1343 6.09373C13.1343 6.09373 13.0343 6.05623 12.9812 6.11248C12.9812 6.11248 12.8875 6.21248 13.0156 6.29373L13.1062 6.3031L13.1937 6.25935L13.2968 6.28748C13.2968 6.28748 13.2687 6.38748 13.3812 6.4906Z" fill="#D40000" stroke="black" stroke-width="0.06" stroke-linejoin="round"/>
<path d="M16.3 6.2531C16.3439 6.24759 16.3884 6.25611 16.4271 6.27744C16.4658 6.29877 16.4968 6.33182 16.5156 6.37185C16.5969 6.5656 16.4219 6.67185 16.4219 6.67185C16.4344 6.71248 16.4375 6.77185 16.4375 6.77185C16.6813 6.8031 16.6375 7.0781 16.6375 7.0781L16.5563 7.00935C16.4156 6.9531 16.2656 7.0781 16.1625 7.2781C16.0563 7.48435 16.1063 7.57498 16.125 7.81873C16.1438 8.05935 16.5313 8.20623 16.5313 8.20623L16.2281 8.98748C16.1094 9.29998 15.8531 9.17185 15.7813 9.1031C15.7094 9.0406 15.6906 9.0781 15.6563 9.1031C15.6219 9.13435 15.8219 9.2906 15.4531 9.4406C15.0875 9.58748 15.025 9.69998 14.9625 9.73748C14.9 9.77498 14.65 9.7531 14.625 9.71873C14.5938 9.68748 14.6125 9.68748 14.5156 9.6281C14.4219 9.57498 14.2594 9.51873 14.0844 9.43435C13.9094 9.34998 13.9156 9.2406 13.9188 9.21873C13.9188 9.19685 13.9781 9.0156 13.7719 9.15935C13.5688 9.30623 13.3938 9.0906 13.3938 9.0906C13.3563 9.03748 13.1813 8.5781 13.1813 8.5781C13.1451 8.45016 13.1002 8.32486 13.0469 8.2031C13.0469 8.2031 13.0344 8.2281 13.1875 8.1406C13.3375 8.05623 13.4063 7.91248 13.4594 7.76873C13.5125 7.62498 13.4594 7.3781 13.4406 7.33123C13.4219 7.28123 13.3094 7.0531 13.1688 7.00623C13.0313 6.95623 12.9344 7.08123 12.9344 7.08123C12.9344 7.08123 12.8938 6.79998 13.1406 6.76873C13.1406 6.76873 13.1406 6.71248 13.1531 6.67185C13.1531 6.67185 12.9781 6.5656 13.0594 6.37185C13.0594 6.37185 13.1156 6.23748 13.2719 6.2531L13.2375 6.3281C13.2375 6.3281 13.2 6.72185 13.775 6.45935C14.3531 6.1906 14.3375 6.1406 14.6719 6.30935L14.9094 6.30623C14.9094 6.30623 15.2531 6.1406 15.3688 6.21248C15.4781 6.28435 15.8781 6.50623 15.8781 6.50623C15.8781 6.50623 16.2656 6.6531 16.3438 6.38123L16.3 6.2531Z" fill="#64B4D1" stroke="black" stroke-width="0.06"/>
<path d="M14.5563 7.96876C14.5563 7.96876 14.5375 7.84689 14.5188 7.76876C14.5188 7.76876 14.4719 7.64689 14.55 7.55626L14.6375 7.45314C14.6375 7.45314 14.6938 7.37814 14.7625 7.36876C14.7625 7.36876 14.8344 7.36876 14.8375 7.35314C14.8469 7.33751 14.925 7.21251 15.1063 7.35314C15.1063 7.35314 15.1625 7.25939 15.2563 7.24064C15.2563 7.24064 15.35 7.21564 15.3969 7.28439C15.3969 7.28439 15.5063 7.20314 15.5969 7.33751C15.5969 7.33751 15.725 7.26251 15.8219 7.40939C15.8219 7.40939 15.9469 7.34689 16.0219 7.47501C16.1 7.60939 16.0844 7.66251 16.0844 7.66251L16.1469 7.87501L16.35 8.12501L15.875 8.30626H15.6563L15.2281 8.41876L14.4688 8.47814L14.2594 8.22814L14.5594 7.96876H14.5563Z" fill="white" stroke="#00247D" stroke-width="0.06" stroke-miterlimit="10"/>
<path d="M13.9156 9.23437C13.9156 9.23437 13.8031 9.23749 13.7437 9.27187C13.6875 9.29687 13.6406 9.32812 13.575 9.37187C13.575 9.37187 13.5438 9.41249 13.4125 9.38749C13.4125 9.38749 13.1875 9.33437 13.1875 9.51249C13.1875 9.51249 12.9125 9.53124 13.025 9.77187C13.025 9.77187 13.0969 9.95937 13.2531 9.82812C13.2531 9.82812 13.1531 9.96874 13.3469 10.025C13.3469 10.025 13.4844 10.0625 13.5281 9.91562C13.5281 9.91562 13.55 9.85937 13.4969 9.79062C13.4969 9.79062 13.5625 9.77812 13.6094 9.70624C13.6094 9.70624 13.4656 9.88749 13.625 9.95624C13.625 9.95624 13.8219 10.0031 13.8313 9.79999C13.8313 9.79999 13.8125 9.69999 13.8938 9.66562C13.8938 9.66562 14.05 9.62812 14.1125 9.45937C14.1125 9.45937 13.8937 9.33749 13.9156 9.23437ZM13.4563 7.43749C13.4563 7.43749 13.2813 7.35937 13.1938 7.43749C13.1938 7.43749 13.0844 7.36874 12.9594 7.43749C12.9594 7.43749 12.8437 7.51249 12.7625 7.59999C12.7625 7.59999 12.7063 7.64687 12.725 7.79999C12.725 7.79999 12.7563 7.90937 12.7406 7.95937C12.7406 7.95937 12.7031 7.95312 12.625 8.04687C12.625 8.04687 12.5281 8.15624 12.4375 8.05624C12.4375 8.05624 12.4688 8.19999 12.6281 8.17499C12.6281 8.17499 12.55 8.23749 12.6187 8.39374C12.6187 8.39374 12.6687 8.50624 12.5875 8.64999C12.5875 8.64999 12.7281 8.59374 12.725 8.42499C12.725 8.42499 12.7094 8.31249 12.7563 8.23749C12.7563 8.23749 12.7094 8.30624 12.8062 8.45937C12.8062 8.45937 12.8812 8.57187 12.8219 8.68437C12.8219 8.68437 12.9594 8.63437 12.9469 8.46562C12.9344 8.29687 12.8531 8.36562 12.9031 8.20937C12.9031 8.20937 12.9188 8.29062 12.9594 8.33437C12.9905 8.36063 13.0139 8.39485 13.0271 8.43337C13.0403 8.4719 13.0428 8.51328 13.0344 8.55312C13.0344 8.55312 13.1156 8.44687 13.0969 8.34062C13.0915 8.29275 13.0778 8.2462 13.0562 8.20312L13.3188 8.05312L13.4531 7.81874L13.4563 7.43749Z" fill="#D40000" stroke="black" stroke-width="0.06" stroke-linejoin="round"/>
<path d="M13.0562 8.10935C13.0562 8.10935 12.9468 8.1031 12.9312 8.0156M12.7406 7.95935C12.7406 7.95935 12.7781 7.95935 12.8156 7.99685C12.8156 7.99685 12.8375 8.03435 12.875 8.0281" stroke="black" stroke-width="0.06" stroke-miterlimit="10"/>
<path d="M13.2188 7.78748C13.2188 7.78748 13.1625 7.78748 13.125 7.76248C13.125 7.76248 13.0969 7.7406 13.0782 7.77498C13.0782 7.77498 13.0469 7.82498 13.1032 7.84685C13.1032 7.84685 13.1719 7.88435 13.0657 7.9531C13.0657 7.9531 13.1907 7.9031 13.1407 7.8406C13.1407 7.8406 13.0844 7.8031 13.1032 7.78748C13.1032 7.78748 13.1094 7.77498 13.1344 7.78748C13.1532 7.80623 13.1969 7.79998 13.2188 7.78748Z" fill="black"/>
<path d="M14.925 8.09376L14.9907 8.07501L14.5532 6.57501H14.5406L14.925 8.09376Z" fill="#784421" stroke="black" stroke-width="0.06"/>
<path d="M13.475 9.75938C13.475 9.75938 13.375 9.70001 13.2875 9.76876C13.2875 9.76876 13.3 9.73126 13.3625 9.71563C13.3625 9.71563 13.4 9.61563 13.4969 9.62501C13.4969 9.62501 13.4562 9.67501 13.4031 9.71251C13.4031 9.71251 13.4593 9.71876 13.4781 9.75938H13.475Z" fill="black"/>
<path d="M13.1156 9.99372C13.1156 9.99372 12.9531 9.89372 13.0437 9.72185C13.0437 9.72185 13.0687 9.67497 13.1156 9.68435C13.1156 9.68435 13.2187 9.7156 13.1406 9.85622C13.1406 9.85622 13.0968 9.94685 13.1156 9.99685V9.99372ZM13.4437 10.1593C13.4437 10.1593 13.2125 10.0531 13.2843 9.87185C13.2843 9.87185 13.3062 9.80935 13.3593 9.8156C13.3593 9.8156 13.4468 9.82185 13.4312 9.9406C13.4312 9.9406 13.4031 10.0531 13.4437 10.1593Z" fill="#64B4D1" stroke="#00247D" stroke-width="0.06" stroke-miterlimit="2.6"/>
<path d="M13.3968 9.48749C13.3968 9.48749 13.325 9.54061 13.3 9.57499C13.3 9.57499 13.2687 9.53749 13.2312 9.51874C13.2312 9.51874 13.2781 9.50936 13.3 9.52811C13.3 9.52811 13.3375 9.49686 13.3937 9.48749H13.3968Z" fill="black"/>
<path d="M13.6 10.1125C13.6 10.1125 13.7875 10.0687 13.75 9.8781C13.75 9.8781 13.7312 9.79685 13.6562 9.80935C13.6562 9.80935 13.5625 9.83435 13.625 9.9531C13.625 9.9531 13.6594 10.0344 13.6 10.1125Z" fill="#64B4D1" stroke="#00247D" stroke-width="0.06" stroke-miterlimit="2.6"/>
<path d="M14.425 6.14687L14.6032 6.20625C14.6032 6.20625 14.7719 6.27813 14.9875 6.20625L15.15 6.14375L15.0407 6.3125V6.40312L15.1063 6.50313C15.1063 6.50313 15.0657 6.52188 14.9375 6.44063C14.9375 6.44063 14.8 6.33438 14.6375 6.44063C14.6375 6.44063 14.5438 6.50313 14.4688 6.50313L14.5782 6.38438L14.5375 6.275L14.425 6.14062V6.14687Z" fill="#F5CE00" stroke="black" stroke-width="0.06" stroke-miterlimit="2.6"/>
<path d="M13.6719 9.89062C13.6719 9.89062 13.6782 9.87813 13.6719 9.875L13.6563 9.88125C13.6563 9.88125 13.6375 9.9125 13.6563 9.95625C13.6563 9.95625 13.6719 9.98437 13.6657 10.0125V10.025C13.6657 10.025 13.675 10.0219 13.675 10.0125C13.675 10.0125 13.6875 9.9875 13.6688 9.95625C13.6688 9.95625 13.65 9.9125 13.6719 9.89062Z" fill="white"/>
<path d="M16.1875 6.4906C16.1875 6.4906 16.0563 6.55935 16 6.48123C16 6.48123 15.9344 6.34373 16.0906 6.29373C16.0906 6.29373 16.0031 6.19373 16.0938 6.09998C16.0938 6.09998 16.1438 6.04998 16.225 6.08435C16.225 6.08435 16.2625 6.01248 16.3406 6.0156C16.3406 6.0156 16.4156 6.0156 16.4344 6.09373C16.4344 6.09373 16.5375 6.05623 16.5906 6.11248C16.5906 6.11248 16.6781 6.21248 16.5531 6.29373L16.4625 6.3031L16.3719 6.25935L16.2781 6.28748C16.2781 6.28748 16.3031 6.38748 16.1844 6.4906H16.1875Z" fill="#D40000" stroke="black" stroke-width="0.06" stroke-linejoin="round"/>
<path d="M15.15 6.38747C15.15 6.38747 15.15 6.41247 15.125 6.41872C15.125 6.41872 15.0938 6.4281 15.0781 6.3906V6.38122C15.0781 6.3656 15.0688 6.31872 15.1219 6.2781C15.1219 6.2781 15.2031 6.21247 15.3594 6.29372C15.5101 6.37848 15.6644 6.45667 15.8219 6.5281C15.8219 6.5281 15.9188 6.5781 16.0688 6.58435C16.0688 6.58435 16.2719 6.59997 16.3594 6.45622C16.3594 6.45622 16.425 6.34685 16.3594 6.27497C16.3594 6.27497 16.3313 6.24372 16.2875 6.24997C16.2648 6.25504 16.2447 6.26841 16.2313 6.28747C16.2313 6.28747 16.2 6.33122 16.2344 6.3656C16.2344 6.3656 16.2844 6.39685 16.3031 6.33435C16.3031 6.3406 16.3188 6.38747 16.2906 6.42497C16.2906 6.42497 16.1656 6.61247 15.825 6.42185L15.3781 6.16872C15.3781 6.16872 15.1563 6.0531 15.0156 6.23435C15.0156 6.23435 14.9094 6.38435 15.05 6.48122C15.05 6.48122 15.1563 6.54372 15.2188 6.44372C15.2188 6.44372 15.275 6.34685 15.1875 6.30622C15.1875 6.30622 15.1125 6.26872 15.0844 6.34372C15.0531 6.41872 15.1406 6.43747 15.1469 6.38435C15.1469 6.38435 15.1469 6.37185 15.1563 6.38435L15.15 6.38747Z" fill="#F5CE00" stroke="black" stroke-width="0.06" stroke-miterlimit="2.6"/>
<path d="M13.375 7.1625V6.88125C13.375 6.85625 13.375 6.84375 13.4125 6.8125C13.4437 6.7875 13.4781 6.74063 13.5281 6.86563C13.5281 6.86563 13.6281 6.75625 13.6593 6.74063C13.6593 6.74063 13.7218 6.69375 13.7625 6.7625C13.7625 6.7625 13.8125 6.68125 13.8562 6.6625C13.8562 6.6625 13.9562 6.6 13.9593 6.79375L14.0375 6.71875C14.0375 6.71875 14.1 6.67188 14.1687 6.74063C14.1687 6.74063 14.2781 6.85313 14.2937 6.88438C14.2937 6.88438 14.3187 6.91563 14.325 6.96875C14.325 6.96875 14.325 7.03125 14.3562 7.0625C14.3562 7.0625 14.3906 7.09375 14.425 7.1C14.425 7.1 14.5031 7.10313 14.5375 7.18125C14.5375 7.18125 14.5468 7.16563 14.5875 7.53125V8.20313L14.1375 8.7375L13.4156 8.53125L13.1281 8.40938L13.0593 8.20313L13.3406 8.01876L13.4906 7.61251L13.4437 7.32188L13.375 7.15938V7.1625Z" fill="#E4CB5E" stroke="black" stroke-width="0.06" stroke-miterlimit="2.6"/>
<path d="M15.3625 7.51251L15.4 7.46564L15.4782 7.40314C15.4782 7.40314 15.6032 7.72814 15.6094 7.80001V7.90001C15.6094 7.90001 15.7969 7.95001 15.8344 8.23439L15.6782 8.52189L15.4344 8.38439L15.3625 8.33751V7.51564V7.51251Z" fill="#784421" stroke="black" stroke-width="0.06"/>
<path d="M13.0719 9.76252C13.0719 9.76252 13.0781 9.75315 13.0719 9.74377L13.0563 9.75628C13.0563 9.75628 13.0094 9.8094 13.05 9.89377C13.05 9.89377 13.05 9.90627 13.0594 9.90002C13.0594 9.90002 13.0688 9.90002 13.0594 9.89065C13.0594 9.89065 13.025 9.81565 13.0719 9.76565V9.76252Z" fill="white"/>
<path d="M13.8031 9.70626C13.8031 9.70626 13.8062 9.68126 13.7906 9.65626C13.7906 9.65626 13.7812 9.63751 13.7843 9.60939M13.9593 6.79376C13.9593 6.79376 13.9593 6.86564 13.9812 6.91876C14 6.96876 14.0718 7.05939 14.075 7.10314" stroke="black" stroke-width="0.06" stroke-miterlimit="10"/>
<path d="M15.6563 9.23438C15.6563 9.23438 15.7688 9.2375 15.8282 9.27188C15.8907 9.29688 15.9344 9.32812 16 9.37187C16 9.37187 16.0313 9.4125 16.1625 9.3875C16.1625 9.3875 16.3875 9.33437 16.3875 9.5125C16.3875 9.5125 16.6594 9.53125 16.55 9.77188C16.55 9.77188 16.475 9.95937 16.3188 9.82812C16.3188 9.82812 16.4188 9.96875 16.225 10.025C16.225 10.025 16.0875 10.0625 16.0469 9.91562C16.0469 9.91562 16.0219 9.85937 16.0782 9.79062C16.0782 9.79062 16.0125 9.77813 15.9688 9.70625C15.9688 9.70625 16.1094 9.8875 15.9532 9.95625C15.9532 9.95625 15.7563 10.0031 15.7438 9.8C15.7438 9.8 15.7594 9.7 15.6813 9.66562C15.6813 9.66562 15.525 9.62813 15.4563 9.45938C15.4563 9.45938 15.6813 9.3375 15.6594 9.23438H15.6563Z" fill="#D40000" stroke="black" stroke-width="0.06" stroke-linejoin="round"/>
<path d="M13.8688 7.10624L14.0563 8.59999M13.9156 7.10311L14.1219 8.49686M13.95 7.09686L14.1938 8.47811" stroke="black" stroke-width="0.06" stroke-miterlimit="10"/>
<path d="M14.3313 8.3594L14.4 8.33752L13.9625 6.83752H13.9469L14.3313 8.3594Z" fill="#784421" stroke="black" stroke-width="0.06"/>
<path d="M14.0844 7.04065L14.525 8.15002M14.0563 7.05627L14.4813 8.21252" stroke="black" stroke-width="0.06" stroke-miterlimit="10"/>
<path d="M13.3625 10.05C13.3625 10.05 13.3093 10.0031 13.3187 9.91564C13.3187 9.91564 13.3187 9.8969 13.3093 9.89377C13.3093 9.89377 13.3 9.89065 13.3 9.91252C13.3 9.91252 13.2843 10.0031 13.3468 10.0531C13.3468 10.0531 13.35 10.0625 13.3593 10.0594C13.3593 10.0594 13.3656 10.0594 13.3593 10.05H13.3625Z" fill="white"/>
<path d="M14.1094 7.02502L14.5562 8.03752M13.9844 7.08752L14.2656 8.45315" stroke="black" stroke-width="0.06" stroke-miterlimit="10"/>
<path d="M16.25 8.09375C16.0531 7.98125 16.0094 7.7375 16.0094 7.7375C15.9811 7.58689 15.9986 7.43127 16.0594 7.29063C16.1844 7.02188 16.4063 6.96875 16.4063 6.96875C16.4063 6.96875 16.1906 7.11875 16.1313 7.31875C16.1313 7.31875 16.0875 7.49062 16.1125 7.65312C16.1375 7.825 16.1281 7.78125 16.1688 7.9125L16.25 8.1V8.09375Z" fill="#F5CE00" stroke="black" stroke-width="0.06" stroke-miterlimit="2.6"/>
<path d="M15.3969 7.45935L14.5656 7.72498L14.5219 8.09998C14.325 8.38435 13.9219 8.43435 13.9219 8.43435L14.2344 8.76873L14.8281 8.89373L15.1469 8.64998L15.4344 8.38748C15.4031 8.24685 15.4187 8.03748 15.4187 8.03748C15.4187 7.99998 15.4344 7.91873 15.4344 7.91873C15.4344 7.91873 15.3875 7.58435 15.3969 7.4656V7.45935Z" fill="#784421" stroke="black" stroke-width="0.06"/>
<path d="M14.5313 8.00623C14.5313 8.00623 15.0813 7.83435 15.4063 7.69373M14.2688 8.31873C14.2688 8.31873 14.9563 8.19373 15.4344 7.91873L15.6094 7.79998" stroke="black" stroke-width="0.06" stroke-miterlimit="10"/>
<path d="M15.6094 7.90002L15.4219 8.03752C15.4219 8.03752 14.6563 8.38752 14.0719 8.40002M15.4188 8.28752C15.4188 8.28752 14.8313 8.59377 14.5 8.59377" stroke="black" stroke-width="0.06" stroke-miterlimit="10"/>
<path d="M16.1188 7.43749C16.1188 7.43749 16.2938 7.35937 16.3813 7.43749C16.3813 7.43749 16.4938 7.36874 16.6188 7.43749C16.6188 7.43749 16.7313 7.51249 16.8125 7.59999C16.8125 7.59999 16.8688 7.64687 16.85 7.79999C16.85 7.79999 16.8188 7.90937 16.8407 7.95937C16.8407 7.95937 16.875 7.95312 16.95 8.04687C16.95 8.04687 17.0532 8.15624 17.1375 8.05624C17.1375 8.05624 17.1125 8.19999 16.95 8.17499C16.95 8.17499 17.025 8.23749 16.9594 8.39374C16.9594 8.39374 16.9094 8.50624 16.9907 8.64999C16.9907 8.64999 16.8469 8.59374 16.8531 8.42499C16.8531 8.42499 16.8656 8.31249 16.8219 8.23749C16.8219 8.23749 16.8656 8.30624 16.7688 8.45937C16.7688 8.45937 16.6938 8.57187 16.7563 8.68437C16.7563 8.68437 16.6157 8.63437 16.6313 8.46562C16.6407 8.29687 16.725 8.36562 16.6719 8.20937C16.6719 8.20937 16.6594 8.29062 16.6188 8.33437C16.5876 8.36063 16.5642 8.39485 16.551 8.43337C16.5378 8.47189 16.5353 8.51328 16.5438 8.55312C16.5438 8.55312 16.4625 8.44687 16.4813 8.34062C16.5 8.23124 16.5188 8.20312 16.5188 8.20312L16.2594 8.05312L16.1281 7.81874L16.1188 7.43749Z" fill="#D40000" stroke="black" stroke-width="0.06" stroke-linejoin="round"/>
<path d="M13.1438 8.38749C13.1438 8.38749 13.1687 8.27186 13.2781 8.31249C13.2781 8.31249 13.3156 8.12499 13.5188 8.11874C13.7219 8.11249 13.7312 8.31874 13.7312 8.33124C13.7312 8.33124 13.7937 8.24374 13.8906 8.25311C13.8906 8.25311 14.0625 8.24374 14.0031 8.51874L14.0344 8.55624C14.0344 8.55624 14.1625 8.24686 14.4312 8.32499C14.4312 8.32499 14.6937 8.40624 14.525 8.65936C14.525 8.65936 14.6562 8.83124 14.7625 8.81561C14.875 8.79999 14.9719 8.76561 15.0813 8.57186C15.1938 8.37811 15.4469 8.34686 15.5094 8.35936C15.5719 8.36874 15.625 8.41561 15.6344 8.45936C15.6344 8.45936 15.7687 8.01249 16.2531 8.07811L16.4469 8.18124L16.5219 8.21249L16.4094 8.52499L16.1469 9.12499L15.9406 9.18749L15.7281 9.06561L15.6531 9.10311V9.28749L15.3719 9.48749L15.1781 9.56561L14.9656 9.71561L14.9125 9.84686C14.9125 9.84686 14.7969 9.79374 14.6625 9.84686L14.6187 9.73436L14.4937 9.61874L14.0063 9.38749L13.9219 9.10624L13.8313 9.06561L13.7312 9.17811L13.5906 9.19686L13.3719 9.04686L13.1406 8.39061L13.1438 8.38749Z" fill="white" stroke="#00247D" stroke-width="0.06" stroke-miterlimit="10"/>
<path d="M15.2562 6.18752C15.2562 6.18752 15.0687 6.18127 15.0781 6.37502" stroke="black" stroke-width="0.06" stroke-miterlimit="2.6"/>
<path d="M16.4688 8.22813C16.15 8.12813 16.0625 7.78126 16.0625 7.78126C16.0243 7.61983 16.0374 7.4505 16.1 7.29688C16.25 6.95313 16.4969 6.95313 16.4969 6.95313C16.5287 6.94853 16.561 6.95635 16.5872 6.97497C16.6134 6.99359 16.6314 7.02158 16.6375 7.05313C16.65 7.12813 16.5969 7.15626 16.5969 7.15626C16.5125 7.20313 16.4563 7.14063 16.4563 7.14063C16.4188 7.09063 16.4469 7.05001 16.4469 7.05001C16.4688 7.01876 16.5094 7.03751 16.5094 7.03751C16.55 7.04376 16.5406 7.08751 16.5406 7.08751C16.5406 7.08751 16.5531 7.03751 16.5031 7.03126C16.5031 7.03126 16.4031 7.00938 16.2906 7.15001C16.2906 7.15001 16.1438 7.34063 16.1438 7.59063C16.1438 7.59063 16.125 8.05313 16.6031 8.17188C16.6031 8.17188 16.5531 8.24688 16.4594 8.51876C16.4594 8.51876 16.3563 8.86876 16.2594 9.05938C16.2594 9.05938 16.125 9.32813 15.825 9.21876C15.825 9.21876 15.65 9.14063 15.65 9.01563C15.65 9.01563 15.6406 8.89688 15.7438 8.89063C15.7438 8.89063 15.8469 8.88126 15.8469 8.96876C15.8469 8.96876 15.8469 9.06251 15.7375 9.04376C15.7375 9.04376 15.7 9.03438 15.7031 8.99688C15.7031 8.99688 15.7094 8.95938 15.7594 8.97813C15.8063 8.99688 15.7594 8.97813 15.7594 8.97501C15.7594 8.97501 15.7406 8.96563 15.7219 8.97501C15.7219 8.97501 15.7031 8.97501 15.7031 9.00626C15.7031 9.00626 15.7031 9.02501 15.725 9.04063L15.7781 9.04688C15.7781 9.04688 15.8094 9.10938 15.8719 9.13126C15.9092 9.14278 15.9487 9.14539 15.9873 9.13888C16.0258 9.13237 16.0623 9.11691 16.0938 9.09376C16.1357 9.05743 16.1679 9.01125 16.1875 8.95938C16.2506 8.82236 16.3049 8.68145 16.35 8.53751C16.35 8.53751 16.4063 8.35938 16.4563 8.26563L16.4688 8.22813Z" fill="#F5CE00" stroke="black" stroke-width="0.06" stroke-miterlimit="2.6"/>
<path d="M15.5625 9.10626C15.5625 9.10626 15.625 9.10001 15.625 9.15314C15.625 9.15314 15.6219 9.22814 15.525 9.21251C15.525 9.21251 15.4313 9.19376 15.4625 9.08751C15.4625 9.08751 15.4875 9.01564 15.575 9.02501C15.575 9.02501 15.6625 9.02501 15.7 9.14376C15.7 9.14376 15.7313 9.24689 15.6782 9.33126C15.6219 9.42501 15.4844 9.48751 15.4157 9.51876C15.4157 9.51876 15.1438 9.62189 15.0625 9.68439C15.0625 9.68439 14.9375 9.77501 14.9938 9.85939C14.9938 9.85939 15.0157 9.89376 15.0469 9.89376C15.0469 9.89376 15.0844 9.89376 15.0875 9.85626C15.0875 9.85626 15.0875 9.87814 15.0657 9.88751C15.0657 9.88751 15.0407 9.90001 15.0125 9.87814C15.0125 9.87814 14.9813 9.84689 15.0063 9.80314C15.0063 9.80314 15.0375 9.75314 15.1188 9.78439C15.1188 9.78439 15.1813 9.81876 15.1563 9.88751C15.1563 9.88751 15.1282 9.95314 15.05 9.95001C15.05 9.95001 14.9907 9.95001 14.95 9.91251C14.8875 9.84689 14.8875 9.72501 14.9438 9.66251C14.9438 9.66251 14.9907 9.59689 15.0907 9.55001L15.3719 9.44064C15.4532 9.40626 15.525 9.36876 15.5719 9.31251C15.5719 9.31251 15.6125 9.26876 15.6282 9.18751C15.6282 9.18751 15.6407 9.12501 15.6032 9.11251L15.5657 9.10314L15.5625 9.10626Z" fill="#F5CE00" stroke="black" stroke-width="0.06" stroke-miterlimit="2.6"/>
<path d="M15.5687 9.10624C15.5687 9.10624 15.6344 9.09374 15.6781 9.17499C15.6781 9.17499 15.7 9.22186 15.7031 9.25311M15.725 8.97186C15.725 8.97186 15.6594 8.98124 15.6937 9.07811C15.7281 9.16874 15.7875 9.19374 15.8031 9.20936" stroke="black" stroke-width="0.06" stroke-miterlimit="2.6"/>
<path d="M14.425 6.38753C14.425 6.38753 14.425 6.41253 14.4563 6.41878C14.4563 6.41878 14.4812 6.42503 14.4969 6.39066V6.38128C14.4969 6.36566 14.5063 6.31878 14.4594 6.27815C14.4594 6.27815 14.3719 6.21253 14.2156 6.29378C14.2156 6.29378 14.0906 6.35628 14.0063 6.40628C14.0063 6.40628 13.7844 6.52503 13.7563 6.53128C13.7563 6.53128 13.6563 6.58128 13.5063 6.58753C13.5063 6.58753 13.3031 6.60316 13.2188 6.45941C13.2188 6.45941 13.15 6.35003 13.2188 6.27815C13.2188 6.27815 13.2438 6.24691 13.2875 6.25316C13.3063 6.25628 13.325 6.26566 13.3438 6.29066C13.3438 6.29066 13.375 6.33441 13.3406 6.36878C13.3406 6.36878 13.2906 6.40003 13.2719 6.33753C13.2719 6.34378 13.2625 6.38753 13.2875 6.43128C13.2875 6.43128 13.4125 6.61566 13.75 6.42191L14.1969 6.17191C14.1969 6.17191 14.4219 6.05628 14.5594 6.23441C14.5594 6.23441 14.6656 6.38441 14.5281 6.48441C14.5281 6.48441 14.425 6.54691 14.3562 6.44691C14.3562 6.44691 14.3062 6.35315 14.3875 6.3094C14.3875 6.3094 14.4625 6.27191 14.4969 6.34691C14.5281 6.42191 14.4344 6.44065 14.4281 6.38753C14.4281 6.38753 14.4281 6.37503 14.425 6.38753ZM13.325 8.09691C13.5219 7.98753 13.5688 7.73753 13.5688 7.73753C13.6125 7.48753 13.5156 7.29066 13.5156 7.29066C13.3906 7.02191 13.1719 6.96878 13.1719 6.96878C13.1719 6.96878 13.3844 7.11878 13.4438 7.31878C13.4438 7.31878 13.4937 7.49065 13.4625 7.65315C13.4375 7.82503 13.4469 7.78128 13.4062 7.91253L13.325 8.09691Z" fill="#F5CE00" stroke="black" stroke-width="0.06" stroke-miterlimit="2.6"/>
<path d="M14.325 6.18752C14.325 6.18752 14.5125 6.18127 14.5 6.37502" stroke="black" stroke-width="0.06" stroke-miterlimit="2.6"/>
<path d="M13.1031 8.22813C13.4249 8.12813 13.5093 7.78126 13.5093 7.78126C13.5485 7.62015 13.5365 7.45083 13.475 7.29688C13.325 6.95313 13.0781 6.95313 13.0781 6.95313C13.0463 6.94853 13.0139 6.95635 12.9877 6.97497C12.9616 6.99359 12.9435 7.02158 12.9375 7.05313C12.9281 7.12813 12.9781 7.15626 12.9781 7.15626C13.0656 7.20313 13.1218 7.14063 13.1218 7.14063C13.1562 7.09063 13.1281 7.05001 13.1281 7.05001C13.1062 7.01876 13.0656 7.03751 13.0656 7.03751C13.0281 7.04376 13.0343 7.08751 13.0343 7.08751C13.0343 7.08751 13.0249 7.03751 13.0718 7.03126C13.0718 7.03126 13.1718 7.00938 13.2843 7.15001C13.2843 7.15001 13.4343 7.34063 13.4343 7.59063C13.4343 7.59063 13.4531 8.05313 12.9718 8.17188C12.9718 8.17188 13.025 8.24688 13.1156 8.51876C13.1156 8.51876 13.2218 8.86876 13.3218 9.05938C13.3218 9.05938 13.4531 9.32813 13.75 9.21876C13.75 9.21876 13.925 9.14063 13.925 9.01563C13.925 9.01563 13.9375 8.89688 13.8312 8.89063C13.8312 8.89063 13.7281 8.88126 13.7281 8.96876C13.7281 8.96876 13.7281 9.06251 13.8406 9.04376C13.8406 9.04376 13.8781 9.03438 13.8718 8.99688C13.8718 8.99688 13.8656 8.95938 13.8187 8.97813C13.7687 8.99688 13.8187 8.97813 13.8187 8.97501C13.8187 8.97501 13.8343 8.96563 13.8531 8.97501C13.8531 8.97501 13.8718 8.97501 13.8718 9.00626C13.8718 9.00626 13.8718 9.02501 13.85 9.04063L13.8031 9.04688C13.8031 9.04688 13.7718 9.10938 13.7031 9.13126C13.6664 9.14357 13.6272 9.14658 13.589 9.14004C13.5508 9.1335 13.5149 9.11759 13.4843 9.09376C13.4424 9.05743 13.4102 9.01125 13.3906 8.95938C13.3264 8.82243 13.2711 8.68152 13.225 8.53751C13.225 8.53751 13.1687 8.35938 13.125 8.26563L13.1062 8.22813H13.1031Z" fill="#F5CE00" stroke="black" stroke-width="0.06" stroke-miterlimit="2.6"/>
<path d="M14.0156 9.10626C14.0156 9.10626 13.9531 9.10001 13.9531 9.15314C13.9531 9.15314 13.9531 9.22814 14.0531 9.21251C14.0531 9.21251 14.1469 9.19376 14.1125 9.08751C14.1125 9.08751 14.0906 9.01564 14 9.02501C14 9.02501 13.9156 9.02501 13.875 9.14376C13.875 9.14376 13.8469 9.24689 13.9 9.33126C13.9562 9.42501 14.0937 9.48751 14.1594 9.51876C14.1594 9.51876 14.4312 9.62189 14.5156 9.68439C14.5156 9.68439 14.6375 9.77501 14.5812 9.85939C14.5812 9.85939 14.5625 9.89376 14.5281 9.89376C14.5281 9.89376 14.4906 9.89376 14.4875 9.85626C14.4875 9.85626 14.4875 9.87814 14.5094 9.88751C14.5094 9.88751 14.5375 9.90001 14.5625 9.87814C14.5625 9.87814 14.5937 9.84689 14.5687 9.80314C14.5687 9.80314 14.5375 9.75314 14.4625 9.78439C14.4625 9.78439 14.3937 9.81876 14.425 9.88751C14.425 9.88751 14.4469 9.95314 14.525 9.95001C14.525 9.95001 14.5875 9.95001 14.625 9.91251C14.6875 9.84689 14.6875 9.72501 14.6375 9.66251C14.6375 9.66251 14.5844 9.59689 14.4875 9.55001C14.4281 9.53126 14.3156 9.48439 14.2062 9.44064C14.1219 9.40626 14.05 9.36876 14.0031 9.31251C14.0031 9.31251 13.9625 9.26876 13.9469 9.18751C13.9469 9.18751 13.9375 9.12501 13.975 9.11251L14.0125 9.10314L14.0156 9.10626Z" fill="#F5CE00" stroke="black" stroke-width="0.06" stroke-miterlimit="2.6"/>
<path d="M14.0063 9.10626C14.0063 9.10626 13.9406 9.09376 13.9 9.17501C13.9 9.17501 13.8781 9.22189 13.8719 9.25314M13.85 8.97189C13.85 8.97189 13.9187 8.98126 13.8844 9.07814C13.8469 9.16876 13.7906 9.19376 13.7719 9.20939M14.6281 6.36251C14.6281 6.36251 14.7906 6.25939 14.9531 6.37189M13.7125 7.35001C13.7125 7.35001 13.7344 7.25626 13.6313 7.10001C13.6313 7.10001 13.5625 6.95314 13.5312 6.86564M13.7625 6.76251L13.8344 6.96876L13.9281 7.18126" stroke="black" stroke-width="0.06" stroke-miterlimit="2.6"/>
<path d="M13.7875 7.44685C13.7875 7.44685 13.85 7.51248 13.8437 7.62185M13.5906 7.37498C13.5906 7.37498 13.6562 7.40623 13.65 7.58748C13.65 7.58748 13.6469 7.71248 13.7437 7.78123M13.5781 7.82498C13.5781 7.82498 13.7875 7.8031 13.8031 7.93435C13.8031 7.93435 13.8031 8.05935 13.8781 8.06873C13.8781 8.06873 13.9813 8.0781 14.0031 8.18123M13.6469 7.96873C13.6469 7.96873 13.6844 8.02185 13.7219 8.04998M13.9156 7.83123C13.9156 7.83123 13.9656 7.9156 13.9781 7.95935M14.1438 6.8656C14.1438 6.8656 14.1938 6.93123 14.2406 6.95935M14.3375 7.25935C14.3375 7.25935 14.4437 7.30935 14.4312 7.57185C14.4312 7.57185 14.4125 7.7281 14.4594 7.81248" stroke="black" stroke-width="0.06" stroke-miterlimit="10"/>
<path d="M13.8469 7.08124L13.8594 7.10624C13.8594 7.10624 14.0469 7.11562 14.1438 6.98749L14.1344 6.96249C14.1344 6.96249 13.9688 6.95312 13.8532 7.08124H13.8469Z" fill="#784421" stroke="black" stroke-width="0.06"/>
<path d="M14.5219 8.07814C14.5219 8.07814 15.1656 7.89064 15.4156 7.77814" stroke="black" stroke-width="0.06" stroke-miterlimit="10"/>
<path d="M14.4531 6.89064L14.4469 6.87189L14.7625 6.74689L14.7719 6.77189L14.4531 6.89064Z" fill="#784421" stroke="black" stroke-width="0.06"/>
<path d="M14.4812 6.87813L14.6937 7.91875M14.5187 6.86875L14.7593 7.9M14.5593 6.85L14.8218 7.87813M14.6656 6.8125L15.025 7.58125M14.7125 6.8L15.0968 7.55625M14.7437 6.78125L15.1625 7.54063M14.6781 7.92812L14.8406 7.87813M14.5562 7.82812C14.5562 7.82812 15.0312 7.6875 15.4 7.54063M14.5437 7.875C14.5437 7.875 15.1531 7.71875 15.3937 7.6M14.7312 8.36875L14.7625 8.47188L14.85 8.44063L14.8187 8.34375M14.975 8.30313L15.0062 8.39688L15.0937 8.36875L15.0625 8.275M14.5625 7.725L14.5562 7.59375L15.3531 7.35313L15.3937 7.46562M14.8937 7.49062L14.9343 7.60938M15.1718 7.40938L15.2218 7.52187M15.2375 7.3875L15.2875 7.49062M15.3 7.36562L15.35 7.47813M15.35 7.35313L15.4375 7.30312L15.475 7.4M15.3937 7.32812L15.4375 7.43125" stroke="black" stroke-width="0.06" stroke-miterlimit="10"/>
<path d="M13.4219 8.84686C13.4219 8.84686 13.2656 8.68749 13.4219 8.53436C13.4219 8.53436 13.25 8.45311 13.2781 8.31561M13.7031 8.97186C13.7031 8.97186 13.5375 8.99374 13.5875 8.67811C13.5875 8.67811 13.5188 8.80311 13.4969 8.86561C13.4871 8.89669 13.488 8.93013 13.4993 8.96068C13.5106 8.99123 13.5317 9.01715 13.5594 9.03436C13.5875 9.05311 13.7313 9.09061 13.7781 8.99686M13.5188 8.49061C13.5188 8.49061 13.4531 8.54999 13.5 8.65936M13.5875 8.50311C13.5875 8.50311 13.5938 8.61249 13.65 8.67186M13.6344 8.46249C13.6344 8.46249 13.6344 8.58749 13.725 8.66874M13.6781 8.41874C13.6781 8.41874 13.6781 8.55936 13.7844 8.64999M14.2063 8.62811C14.2063 8.62811 14.2563 8.50624 14.3688 8.51561C14.3688 8.51561 14.3156 8.54061 14.3156 8.59374C14.3156 8.59374 14.3094 8.68749 14.4063 8.69374C14.4063 8.69374 14.4844 8.70624 14.525 8.66249" stroke="#00247D" stroke-width="0.06" stroke-miterlimit="10"/>
<path d="M14.4719 9.15935C14.4719 9.15935 14.1938 9.0281 14.2219 8.84373C14.2219 8.84373 14.2344 8.73123 14.3469 8.67498M14.2844 8.79373C14.2844 8.79373 14.2594 8.87185 14.3157 8.9281M14.35 8.7406C14.35 8.7406 14.3125 8.8281 14.3719 8.8906M14.4188 8.69373C14.4188 8.69373 14.375 8.76873 14.425 8.83435M14.1625 9.1781C14.1625 9.1781 14.3125 9.31248 14.4313 9.31248M14.1157 9.22185C14.1157 9.22185 14.2563 9.33435 14.3469 9.3531M14.0657 9.2531C14.0657 9.2531 14.2375 9.40622 14.3469 9.4156M14.775 9.55935C14.775 9.55935 14.6032 9.6531 14.7375 9.7531M14.6625 9.45935L14.9438 9.3156M14.7344 9.50935C14.7344 9.50935 15.0157 9.33748 15.1 9.29998M14.8813 9.52497C14.8813 9.52497 15.1219 9.36247 15.2532 9.2906M15.0407 9.51248C15.0407 9.51248 15.2063 9.38747 15.3688 9.2906M15.4219 9.13123C15.4219 9.13123 15.3407 9.00935 15.0719 9.13123C15.0719 9.13123 15.175 9.0406 15.3688 8.96873M15.6344 8.45935C15.6344 8.45935 15.6594 8.55623 15.6344 8.6156" stroke="#00247D" stroke-width="0.06" stroke-miterlimit="10"/>
<path d="M15.2031 8.9281C15.2031 8.9281 15.2594 8.84685 15.4 8.8031C15.4 8.8031 15.4375 8.89685 15.55 8.88122C15.55 8.88122 15.7125 8.84685 15.6625 8.66247C15.6625 8.66247 15.6281 8.53122 15.4375 8.51559M16.0031 8.28747C16.0031 8.28747 16.1937 8.32497 16.1906 8.47809C16.1906 8.47809 16.2094 8.71559 15.9594 8.75934M16.1656 8.38434C16.1656 8.38434 16.2156 8.26872 16.3375 8.22185M16.1938 8.15309C16.1938 8.15309 16.2469 8.24059 16.2812 8.24997M16.1688 8.21872C16.1688 8.21872 16.2156 8.28434 16.2313 8.29684M16.15 8.28122C16.1633 8.29996 16.179 8.31678 16.1969 8.33122M15.1562 7.36872C15.1562 7.36872 15.1937 7.30622 15.2906 7.33122M15.6687 7.82497C15.6687 7.82497 15.7312 7.58122 15.9344 7.66872M15.8531 7.64997C15.8531 7.64997 15.8719 7.53747 15.8219 7.4781M15.7094 7.64059C15.7094 7.64059 15.7375 7.68747 15.7125 7.72497" stroke="#00247D" stroke-width="0.06" stroke-miterlimit="10"/>
<path d="M16.1313 10.1562C16.1313 10.1562 16.3625 10.0531 16.2907 9.87187C16.2907 9.87187 16.2688 9.80937 16.2157 9.81562C16.2157 9.81562 16.1282 9.81875 16.1438 9.94062C16.1438 9.94062 16.175 10.0594 16.1282 10.1594L16.1313 10.1562Z" fill="#64B4D1" stroke="#00247D" stroke-width="0.06" stroke-miterlimit="2.6"/>
<path d="M16.2125 10.05C16.2125 10.05 16.2656 10.0031 16.2594 9.91564C16.2594 9.91564 16.2531 9.8969 16.2594 9.89377C16.2594 9.89377 16.2719 9.89065 16.2719 9.91252C16.2719 9.91252 16.2875 10.0031 16.2281 10.0531C16.2281 10.0531 16.225 10.0625 16.2157 10.0594C16.2157 10.0594 16.2094 10.0594 16.2157 10.05H16.2125Z" fill="white"/>
<path d="M16.4594 9.99372C16.4594 9.99372 16.6219 9.89372 16.5344 9.72185C16.5344 9.72185 16.5063 9.67497 16.4594 9.68435C16.4594 9.68435 16.3594 9.7156 16.4376 9.85622C16.4376 9.85622 16.4751 9.94685 16.4594 9.99685V9.99372Z" fill="#64B4D1" stroke="#00247D" stroke-width="0.06" stroke-miterlimit="2.6"/>
<path d="M16.5 9.76252C16.5 9.76252 16.4937 9.75315 16.5 9.74377L16.5125 9.75628C16.5125 9.75628 16.5593 9.8094 16.5218 9.89377C16.5218 9.89377 16.5187 9.90627 16.5062 9.90002V9.89065C16.5062 9.89065 16.5437 9.81565 16.5 9.76565V9.76252Z" fill="white"/>
<path d="M15.9687 10.1125C15.9687 10.1125 15.7875 10.0687 15.8218 9.8781C15.8218 9.8781 15.8406 9.79685 15.9187 9.80935C15.9187 9.80935 16.0125 9.83435 15.95 9.9531C15.95 9.9531 15.9156 10.0344 15.9718 10.1125H15.9687Z" fill="#64B4D1" stroke="#00247D" stroke-width="0.06" stroke-miterlimit="2.6"/>
<path d="M15.9 9.89062V9.875C15.9 9.875 15.9125 9.875 15.9156 9.88125C15.9156 9.88125 15.9343 9.9125 15.9187 9.95625C15.9187 9.95625 15.9031 9.98437 15.9125 10.0125C15.9125 10.0125 15.9125 10.0219 15.9031 10.025L15.8968 10.0125C15.8968 10.0125 15.8875 9.9875 15.9031 9.95625C15.9031 9.95625 15.9218 9.9125 15.9031 9.89062H15.9Z" fill="white"/>
<path d="M16.1 9.75936C16.1 9.75936 16.2063 9.69999 16.2875 9.76874C16.2875 9.76874 16.2813 9.73124 16.2125 9.71561C16.2125 9.71561 16.1813 9.61561 16.0813 9.62499C16.0813 9.62499 16.1188 9.67499 16.175 9.71249C16.175 9.71249 16.1188 9.71874 16.1 9.75936ZM16.175 9.48749C16.175 9.48749 16.25 9.54061 16.275 9.57499C16.275 9.57499 16.3032 9.53749 16.3375 9.51874C16.3375 9.51874 16.3 9.50936 16.275 9.52811C16.275 9.52811 16.2407 9.49686 16.1813 9.48749H16.175Z" fill="black"/>
<path d="M15.775 9.70623C15.775 9.70623 15.7657 9.68123 15.7844 9.65623C15.7844 9.65623 15.7969 9.63748 15.7907 9.60935M16.5219 8.10935C16.5219 8.10935 16.6313 8.1031 16.6469 8.0156M16.8344 7.95935C16.8344 7.95935 16.7969 7.95935 16.7657 7.99685C16.7657 7.99685 16.7375 8.03435 16.7032 8.0281" stroke="black" stroke-width="0.06" stroke-miterlimit="10"/>
<path d="M16.3625 7.78748C16.3625 7.78748 16.4188 7.78748 16.4469 7.76248C16.4469 7.76248 16.4813 7.7406 16.5 7.77498C16.5 7.77498 16.5313 7.82498 16.475 7.84685C16.475 7.84685 16.4063 7.88435 16.5157 7.9531C16.5157 7.9531 16.3844 7.9031 16.4407 7.8406C16.4407 7.8406 16.4969 7.8031 16.4719 7.78748C16.4719 7.78748 16.4657 7.77498 16.4438 7.78748C16.4219 7.80623 16.3782 7.79998 16.3625 7.78748Z" fill="black"/>
<path d="M16.4375 6.42501C16.4375 6.42501 16.4625 6.38751 16.4531 6.28751C16.4406 6.18751 16.5344 6.17188 16.5656 6.20001C16.5656 6.20001 16.6031 6.23126 16.5656 6.29688C16.5397 6.3536 16.4942 6.39909 16.4375 6.42501Z" fill="#64B4D1" stroke="#00247D" stroke-width="0.06" stroke-miterlimit="2.6"/>
<path d="M16.4688 6.34373C16.4688 6.34373 16.5062 6.30935 16.4875 6.23123L16.4937 6.22498H16.5031C16.5031 6.22498 16.5219 6.31248 16.4844 6.35623C16.4844 6.35623 16.4781 6.3656 16.4688 6.35623V6.34373Z" fill="white"/>
<path d="M16.4094 6.38751C16.4094 6.38751 16.4094 6.34376 16.3376 6.27501C16.2626 6.20001 16.3219 6.13751 16.3688 6.13751C16.3688 6.13751 16.4094 6.13751 16.4313 6.20939C16.4454 6.26947 16.4377 6.33263 16.4094 6.38751Z" fill="#64B4D1" stroke="#00247D" stroke-width="0.06" stroke-miterlimit="2.6"/>
<path d="M16.4 6.29373C16.4 6.29373 16.4 6.24373 16.3313 6.1906V6.1781H16.3438C16.3438 6.1781 16.4157 6.23435 16.4157 6.29685C16.4157 6.29685 16.4157 6.30623 16.4063 6.30623C16.4063 6.30623 16.4 6.30623 16.4 6.29373Z" fill="white"/>
<path d="M16.3125 6.35315C16.3125 6.35315 16.2906 6.3219 16.2031 6.28753C16.1125 6.25628 16.1344 6.17815 16.1719 6.16253C16.1719 6.16253 16.2125 6.1469 16.2531 6.1969C16.2901 6.24052 16.3101 6.296 16.3094 6.35315H16.3125Z" fill="#64B4D1" stroke="#00247D" stroke-width="0.06" stroke-miterlimit="2.6"/>
<path d="M16.2687 6.29061C16.2687 6.29061 16.25 6.24686 16.1687 6.22498C16.1687 6.22498 16.1625 6.22498 16.1625 6.21561C16.1625 6.21561 16.1625 6.20936 16.1719 6.21248C16.1719 6.21248 16.2625 6.23123 16.2875 6.28748L16.2843 6.29686C16.2843 6.29686 16.275 6.29686 16.2719 6.29061H16.2687Z" fill="white"/>
<path d="M16.3657 6.38753C16.3657 6.38753 16.3251 6.40315 16.2282 6.35628C16.1313 6.3094 16.0907 6.39065 16.1094 6.42815C16.1094 6.42815 16.1251 6.47815 16.1969 6.46565C16.2605 6.4622 16.3205 6.43551 16.3657 6.39065V6.38753Z" fill="#64B4D1" stroke="#00247D" stroke-width="0.06" stroke-miterlimit="2.6"/>
<path d="M16.1437 6.41876C16.1437 6.41876 16.1874 6.45001 16.2656 6.41876H16.2749C16.2749 6.41876 16.2749 6.42501 16.2687 6.42814C16.2687 6.42814 16.1874 6.46564 16.1312 6.43126C16.1312 6.43126 16.1249 6.43126 16.1312 6.42189H16.1437V6.41876Z" fill="white"/>
<path d="M16.2281 6.08435C16.2281 6.08435 16.2719 6.10935 16.2656 6.16248" stroke="black" stroke-width="0.06" stroke-miterlimit="2.6"/>
<path d="M16.4375 6.09375C16.4375 6.09375 16.4563 6.15312 16.4375 6.1875" stroke="black" stroke-width="0.06" stroke-miterlimit="10"/>
<path d="M13.1312 6.42499C13.1312 6.42499 13.1062 6.38749 13.1156 6.28749C13.1281 6.18124 13.0375 6.17186 13.0062 6.19999C13.0062 6.19999 12.9687 6.23124 13 6.29686C13.0267 6.35413 13.0733 6.39969 13.1312 6.42499Z" fill="#64B4D1" stroke="#00247D" stroke-width="0.06" stroke-miterlimit="2.6"/>
<path d="M13.0969 6.34373C13.0969 6.34373 13.0656 6.30935 13.0781 6.23123V6.22498H13.0656C13.0656 6.22498 13.05 6.31248 13.0875 6.35623C13.0875 6.35623 13.0937 6.3656 13.0969 6.35623V6.34373Z" fill="white"/>
<path d="M13.1625 6.38751C13.1625 6.38751 13.1625 6.34376 13.2375 6.27501C13.3094 6.20001 13.25 6.13751 13.2063 6.13751C13.2063 6.13751 13.1563 6.13751 13.1438 6.20939C13.1287 6.26911 13.1353 6.33225 13.1625 6.38751Z" fill="#64B4D1" stroke="#00247D" stroke-width="0.06" stroke-miterlimit="2.6"/>
<path d="M13.1718 6.29373C13.1718 6.29373 13.1718 6.24373 13.2343 6.1906C13.2343 6.1906 13.2437 6.18123 13.2343 6.1781H13.2281C13.2281 6.1781 13.1531 6.23435 13.1531 6.29685C13.1531 6.29685 13.1531 6.30623 13.1656 6.30623C13.1656 6.30623 13.1718 6.30623 13.1718 6.29373Z" fill="white"/>
<path d="M13.2594 6.35315C13.2594 6.35315 13.2782 6.3219 13.3688 6.28753C13.4563 6.25628 13.4313 6.17815 13.3969 6.16253C13.3969 6.16253 13.3594 6.1469 13.3157 6.1969C13.2787 6.24052 13.2588 6.296 13.2594 6.35315Z" fill="#64B4D1" stroke="#00247D" stroke-width="0.06" stroke-miterlimit="2.6"/>
<path d="M13.3 6.29061C13.3 6.29061 13.3188 6.24686 13.4 6.22498C13.4 6.22498 13.4063 6.22498 13.4063 6.21561C13.4063 6.21561 13.4063 6.20936 13.4 6.21248C13.4 6.21248 13.3094 6.23123 13.2844 6.28748V6.29686C13.2844 6.29686 13.2969 6.29686 13.3 6.29061Z" fill="white"/>
<path d="M13.2031 6.38753C13.2031 6.38753 13.2469 6.40315 13.3406 6.35628C13.4344 6.3094 13.4781 6.39065 13.4656 6.42815C13.4656 6.42815 13.4437 6.47815 13.3719 6.46565C13.3083 6.4622 13.2483 6.43551 13.2031 6.39065V6.38753Z" fill="#64B4D1" stroke="#00247D" stroke-width="0.06" stroke-miterlimit="2.6"/>
<path d="M13.425 6.41876C13.425 6.41876 13.3844 6.45001 13.3031 6.41876H13.2969V6.42814C13.2969 6.42814 13.3844 6.46564 13.4375 6.43126C13.4375 6.43126 13.4437 6.43126 13.4375 6.42189H13.425V6.41876Z" fill="white"/>
<path d="M13.3438 6.08435C13.3438 6.08435 13.2969 6.10935 13.3063 6.16248" stroke="black" stroke-width="0.06" stroke-miterlimit="2.6"/>
<path d="M13.1313 6.09375C13.1313 6.09375 13.1125 6.15312 13.1313 6.1875" stroke="black" stroke-width="0.06" stroke-miterlimit="10"/>
<path d="M15.2094 5.55C15.2094 5.55 15.2406 5.63438 15.2281 5.7125C15.2188 5.7875 15.2344 5.80313 15.2594 5.81875C15.2813 5.82813 15.3344 5.80625 15.3375 5.75C15.3375 5.75 15.4 5.86875 15.2813 5.94688C15.2813 5.94688 15.1969 6 15.125 5.93438C15.1 5.90625 15.0875 5.84063 15.1031 5.77813C15.1031 5.77813 15.1219 5.69375 15.0875 5.60625C15.0875 5.60625 15.1375 5.65625 15.125 5.75938C15.125 5.75938 15.1 5.94688 15.2375 5.93438C15.2375 5.93438 15.3313 5.93438 15.3313 5.82188C15.3313 5.82188 15.2969 5.85938 15.2563 5.84688C15.2374 5.8424 15.221 5.83078 15.2105 5.81446C15.2 5.79815 15.1963 5.7784 15.2 5.75938C15.2031 5.70938 15.2188 5.625 15.2094 5.55ZM15.0625 5.84375C15.0625 5.84375 15.05 5.99375 14.9188 6.02813C14.9188 6.02813 14.9375 6 14.9094 5.925C14.9094 5.925 14.8781 5.8875 14.8781 5.82188C14.8781 5.82188 14.8406 5.85313 14.8875 5.94063C14.9188 5.99375 14.8875 6.05313 14.8844 6.05625C14.8719 6.05938 15.1 6.025 15.0594 5.84688L15.0625 5.84375ZM14.8875 5.70313C14.8875 5.70313 14.8532 5.66563 14.85 5.58438C14.85 5.5 14.8344 5.47813 14.8219 5.47188C14.8219 5.47188 14.8375 5.54375 14.8344 5.58438C14.8317 5.61616 14.8359 5.64816 14.8469 5.67813C14.8469 5.67813 14.7719 5.6875 14.725 5.58438C14.6844 5.48125 14.6406 5.49063 14.6188 5.49063C14.6188 5.49063 14.6438 5.49375 14.6938 5.58438C14.7438 5.67813 14.7594 5.7 14.8875 5.7V5.70313ZM14.55 5.48438C14.55 5.48438 14.5875 5.58438 14.5938 5.63438C14.5938 5.63438 14.4969 5.60313 14.4688 5.525C14.4688 5.525 14.3688 5.55625 14.4063 5.67188C14.4063 5.67188 14.3156 5.64063 14.275 5.57188C14.275 5.57188 14.325 5.60938 14.3719 5.625C14.3719 5.625 14.3656 5.52813 14.4844 5.49375C14.4844 5.49375 14.5031 5.57813 14.5656 5.59688L14.55 5.48438ZM14.7063 5.31563C14.7063 5.31563 14.7438 5.3625 14.8125 5.3625C14.8318 5.36395 14.8512 5.36039 14.8687 5.35218C14.8862 5.34397 14.9013 5.33138 14.9125 5.31563C14.9125 5.31563 14.9094 5.39688 14.8125 5.4C14.8125 5.4 14.7094 5.4 14.7094 5.31563H14.7063ZM14.2875 5.89375L14.35 5.95313C14.35 5.95313 14.3875 5.99063 14.4125 5.94375C14.4125 5.94375 14.4531 5.86875 14.5031 5.875C14.5031 5.875 14.4657 5.89688 14.4282 5.96875C14.4282 5.96875 14.4219 5.99063 14.3906 5.99375C14.375 5.99375 14.3594 6 14.3344 5.97188C14.3344 5.97188 14.3125 5.94375 14.2875 5.89688V5.89375ZM14.8094 4.975C14.7094 4.975 14.7938 5.05 14.7938 5.05C14.7938 5.175 14.6969 5.21875 14.6281 5.18125C14.5594 5.14375 14.6157 5.05625 14.6157 5.05625C14.6157 5.05625 14.5407 5.10313 14.5844 5.17813C14.6344 5.25313 14.7625 5.21563 14.8094 5.15C14.8563 5.21875 14.9875 5.25313 15.0313 5.17813C15.0844 5.10313 15.0063 5.05313 15.0063 5.05313C15.0063 5.05313 15.0625 5.14375 14.9907 5.17813C14.925 5.21875 14.8219 5.17813 14.8281 5.05313C14.8281 5.05313 14.9125 4.975 14.8125 4.975H14.8094ZM14.8719 4.8375C14.8719 4.8375 14.9094 4.9 14.9031 4.99375C14.9031 4.99375 14.9313 4.9 14.8719 4.84063V4.8375ZM14.5594 4.98438C14.5594 4.98438 14.55 4.91563 14.4844 4.90938C14.4844 4.90938 14.5438 4.95 14.5594 4.98438ZM15.0594 4.98438C15.0594 4.98438 15.0688 4.91563 15.1375 4.90938C15.1375 4.90938 15.0813 4.95 15.0625 4.98438H15.0594ZM14.4594 5.08438C14.4594 5.08438 14.5094 5.1 14.5406 5.0625L14.4594 5.08438ZM14.2906 4.675C14.2906 4.675 14.35 4.67188 14.4094 4.75938C14.4094 4.75938 14.35 4.79063 14.3344 4.80938C14.3344 4.80938 14.3344 4.77813 14.3657 4.75625C14.3657 4.75625 14.3531 4.7125 14.2906 4.67813V4.675ZM15.2906 4.675C15.2906 4.675 15.2281 4.67188 15.1688 4.75938C15.1688 4.75938 15.2313 4.79063 15.2438 4.80938C15.2438 4.80938 15.2438 4.77813 15.2125 4.75625C15.2125 4.75625 15.225 4.7125 15.2906 4.67813V4.675ZM14.8313 4.74375C14.8313 4.74375 14.8844 4.75938 14.95 4.72188C14.95 4.72188 15.0313 4.67813 15.0844 4.72188C15.0844 4.72188 15.0406 4.7 14.95 4.74375C14.95 4.74375 14.8656 4.79375 14.8313 4.74375Z" fill="black"/>
<path d="M14.8875 4.79998C14.8875 4.79998 14.9312 4.72185 15.075 4.73748C15.075 4.73748 15.0343 4.84998 14.8875 4.79998Z" fill="white"/>
<path d="M14.9813 4.80935C14.9951 4.80935 15.0063 4.79396 15.0063 4.77498C15.0063 4.75599 14.9951 4.7406 14.9813 4.7406C14.9675 4.7406 14.9563 4.75599 14.9563 4.77498C14.9563 4.79396 14.9675 4.80935 14.9813 4.80935Z" fill="#784421"/>
<path d="M14.9812 4.79686C14.9898 4.79686 14.9968 4.78707 14.9968 4.77499C14.9968 4.76291 14.9898 4.75311 14.9812 4.75311C14.9726 4.75311 14.9656 4.76291 14.9656 4.77499C14.9656 4.78707 14.9726 4.79686 14.9812 4.79686Z" fill="black"/>
<path d="M14.5875 4.62811C14.5875 4.62811 14.675 4.63749 14.7313 4.66561C14.7313 4.66561 14.7875 4.70311 14.85 4.65624C14.85 4.65624 14.9188 4.61249 14.9656 4.55936C14.9656 4.55936 14.8563 4.63124 14.8156 4.64374C14.8156 4.64374 14.7781 4.61249 14.7688 4.57186C14.7688 4.57186 14.7688 4.54061 14.8313 4.48749C14.8313 4.48749 14.7531 4.51249 14.7375 4.57811C14.7475 4.60461 14.7623 4.62899 14.7813 4.64999C14.7813 4.64999 14.7688 4.65936 14.7313 4.63124C14.7313 4.63124 14.6438 4.60624 14.5875 4.63124V4.62811ZM14.8125 5.15936C14.7375 5.22499 14.8125 5.21874 14.8125 5.21874C14.8125 5.21874 14.8875 5.22499 14.8125 5.15624V5.15936ZM14.7688 4.74686C14.7688 4.74686 14.7125 4.76249 14.6438 4.72499C14.6438 4.72499 14.5625 4.68124 14.5094 4.72499C14.5094 4.72499 14.5563 4.70311 14.6438 4.74686C14.6438 4.74686 14.7344 4.79686 14.7688 4.74686Z" fill="black"/>
<path d="M14.7125 4.79998C14.7125 4.79998 14.6656 4.72185 14.525 4.73748C14.525 4.73748 14.5625 4.84998 14.7125 4.79998Z" fill="white"/>
<path d="M14.6156 4.80935C14.6294 4.80935 14.6406 4.79396 14.6406 4.77498C14.6406 4.75599 14.6294 4.7406 14.6156 4.7406C14.6018 4.7406 14.5906 4.75599 14.5906 4.77498C14.5906 4.79396 14.6018 4.80935 14.6156 4.80935Z" fill="#784421"/>
<path d="M14.6156 4.79686C14.6242 4.79686 14.6312 4.78707 14.6312 4.77499C14.6312 4.76291 14.6242 4.75311 14.6156 4.75311C14.607 4.75311 14.6 4.76291 14.6 4.77499C14.6 4.78707 14.607 4.79686 14.6156 4.79686Z" fill="black"/>
<path d="M17.5 4.08124V9.13124C17.5 10.4781 14.8062 10.9187 14.8062 10.9187C14.8062 10.9187 12.1062 10.4812 12.1062 9.13124V4.08124H17.5031H17.5Z" stroke="black" stroke-width="0.06"/>
<path d="M0 0H10V7.5H0V0Z" fill="#000066"/>
<path d="M1.17188 0L4.98438 2.82812L8.78125 0H10V0.96875L6.25 3.76562L10 6.54688V7.5H8.75L5 4.70312L1.26562 7.5H0V6.5625L3.73438 3.78125L0 1V0H1.17188Z" fill="white"/>
<path d="M6.625 4.39062L10 6.875V7.5L5.76562 4.39062H6.625ZM3.75 4.70312L3.84375 5.25L0.84375 7.5H0L3.75 4.70312ZM10 0V0.046875L6.10938 2.98438L6.14062 2.29688L9.21875 0H10ZM0 0L3.73438 2.75H2.79688L0 0.65625V0Z" fill="#C8102E"/>
<path d="M3.76562 0V7.5H6.26562V0H3.76562ZM0 2.5V5H10V2.5H0Z" fill="white"/>
<path d="M0 3.01562V4.51562H10V3.01562H0ZM4.26562 0V7.5H5.76562V0H4.26562Z" fill="#C8102E"/>
</g>
<defs>
<clipPath id="clip0_14_488">
<rect width="20" height="15" fill="white"/>
</clipPath>
</defs>
</svg>
