<svg width="20" height="15" viewBox="0 0 20 15" fill="none" xmlns="http://www.w3.org/2000/svg">
<mask id="mask0_1825_40794" style="mask-type:luminance" maskUnits="userSpaceOnUse" x="0" y="0" width="20" height="15">
<rect width="20" height="15" fill="white"/>
</mask>
<g mask="url(#mask0_1825_40794)">
<path fill-rule="evenodd" clip-rule="evenodd" d="M0 0V15H20V0H0Z" fill="#FFD221"/>
<mask id="mask1_1825_40794" style="mask-type:luminance" maskUnits="userSpaceOnUse" x="0" y="0" width="20" height="15">
<path fill-rule="evenodd" clip-rule="evenodd" d="M0 0V15H20V0H0Z" fill="white"/>
</mask>
<g mask="url(#mask1_1825_40794)">
<path d="M-1.91699 6.63451L-0.661998 3.77258L21.1047 13.3176L19.8497 16.1795L-1.91699 6.63451Z" fill="#313131"/>
<path d="M-1.88574 3.48093L-0.631274 0.618774L22.2178 10.6334L20.9634 13.4956L-1.88574 3.48093Z" fill="#FAF9F9"/>
<path fill-rule="evenodd" clip-rule="evenodd" d="M4.58167 7.74832C3.69507 6.66033 3.84329 5.92444 3.84329 5.92444C3.84329 5.92444 4.75064 5.9576 4.74052 6.5427C4.74052 6.78992 5.06598 7.02394 5.34636 7.22556C5.55854 7.37812 5.7449 7.51213 5.7449 7.61926C5.7449 7.86796 5.93216 10.3754 5.93216 10.3754C5.93216 10.3754 5.80137 10.6037 5.1749 10.6037C4.54842 10.6037 4.58167 10.2428 4.58167 10.2428C4.96148 9.7771 4.58167 7.74832 4.58167 7.74832ZM15.4184 7.74832C16.305 6.66033 16.1568 5.92444 16.1568 5.92444C16.1568 5.92444 15.2495 5.9576 15.2596 6.5427C15.2596 6.78992 14.9341 7.02394 14.6538 7.22556C14.4416 7.37812 14.2552 7.51213 14.2552 7.61926C14.2552 7.86796 14.068 10.3754 14.068 10.3754C14.068 10.3754 14.1987 10.6037 14.8252 10.6037C15.4517 10.6037 15.4184 10.2428 15.4184 10.2428C15.0386 9.7771 15.4184 7.74832 15.4184 7.74832Z" fill="#CF1225"/>
<path fill-rule="evenodd" clip-rule="evenodd" d="M10.0374 1.79675L10.7416 2.29947L10.2801 2.42278L10.7416 2.82166L10.167 2.6761V3.07908H10.7416L10.9337 4.0237L10.7114 3.86599L10.489 4.0237L10.2667 3.86599L10.0444 4.0237L9.81532 3.86599L9.58629 4.0237L9.35724 3.86599L9.12822 4.0237L9.41671 3.07908H9.94835V1.79675H10.0374ZM13.1782 4.96966C13.1782 4.96966 12.9635 5.15942 12.5032 4.96966C12.3494 4.90626 12.1808 4.79543 12.0049 4.6798C11.6543 4.4493 11.2747 4.19974 10.9254 4.26895C10.401 4.37288 10.168 4.62317 10.168 4.62317V4.0467H10.1044H10.0059H9.94234V4.62317C9.94234 4.62317 9.70928 4.37288 9.18485 4.26895C8.8356 4.19974 8.456 4.4493 8.10539 4.6798C7.92951 4.79543 7.76093 4.90626 7.60714 4.96966C7.14676 5.15942 6.93213 4.96966 6.93213 4.96966C6.93213 4.96966 6.93213 5.13029 7.27437 5.37769C7.42285 5.48502 7.59263 5.47729 7.73728 5.43414C7.63016 5.51496 7.57823 5.60992 7.74898 5.68601C8.10287 5.84372 8.68459 5.42856 8.74819 5.38191C8.67732 5.43459 7.97414 5.96338 8.29637 5.96338C8.6355 5.96338 9.18485 5.51901 9.18485 5.51901C9.18485 5.51901 8.51826 6.15859 8.87688 6.25823C9.10515 6.32165 9.37771 5.989 9.5058 5.79194C9.50992 5.83382 9.5484 5.85946 9.59033 5.88738C9.64406 5.92317 9.70344 5.96272 9.70344 6.04505C9.70344 6.1506 9.72963 6.16871 9.75259 6.18459C9.77051 6.19699 9.78647 6.20803 9.78647 6.25823V6.40404L9.70344 6.52649C9.70344 6.52649 9.70344 6.71697 9.78647 6.86837C9.84935 6.98304 9.81698 7.07947 9.76149 7.24473C9.74372 7.29765 9.72358 7.35764 9.70344 7.42754C9.62042 7.71571 9.78647 8.20789 9.78647 8.20789H9.70344C9.70344 8.20789 9.78647 8.26851 9.78647 8.51123C9.78647 8.70887 9.73143 8.82109 9.62747 9.03304C9.60375 9.0814 9.57749 9.13495 9.54875 9.19589C9.39406 9.52393 9.70344 9.94099 9.70344 9.94099C9.70344 9.94099 9.18485 9.71338 9.2888 9.94099C9.36863 10.1158 9.80682 10.2858 10.0059 10.3553V10.3881C10.0059 10.3881 10.0241 10.3825 10.0551 10.3722C10.0862 10.3825 10.1044 10.3881 10.1044 10.3881V10.3553C10.3035 10.2858 10.7417 10.1158 10.8215 9.94099C10.9254 9.71338 10.4068 9.94099 10.4068 9.94099C10.4068 9.94099 10.7162 9.52393 10.5615 9.19589C10.5328 9.13495 10.5065 9.0814 10.4828 9.03304C10.3789 8.82109 10.3238 8.70887 10.3238 8.51123C10.3238 8.26851 10.4068 8.20789 10.4068 8.20789H10.3238C10.3238 8.20789 10.4899 7.71571 10.4068 7.42754C10.3867 7.35764 10.3666 7.29765 10.3488 7.24473C10.2933 7.07947 10.2609 6.98304 10.3238 6.86837C10.4068 6.71697 10.4068 6.52649 10.4068 6.52649L10.3238 6.40404V6.25823C10.3238 6.20803 10.3398 6.19699 10.3577 6.18459C10.3807 6.16871 10.4068 6.1506 10.4068 6.04505C10.4068 5.96272 10.4662 5.92317 10.52 5.88738C10.5619 5.85946 10.6004 5.83382 10.6045 5.79194C10.7326 5.989 11.0051 6.32165 11.2334 6.25823C11.592 6.15859 10.9254 5.51901 10.9254 5.51901C10.9254 5.51901 11.4748 5.96338 11.8139 5.96338C12.1362 5.96338 11.433 5.43459 11.3621 5.38191C11.4257 5.42856 12.0074 5.84372 12.3613 5.68601C12.5321 5.60992 12.4801 5.51496 12.373 5.43414C12.5177 5.47729 12.6874 5.48502 12.8359 5.37769C13.1782 5.13029 13.1782 4.96966 13.1782 4.96966ZM12.0383 5.26118C12.0383 5.26118 12.1842 5.37782 12.373 5.43414C12.245 5.33758 12.0383 5.26118 12.0383 5.26118ZM10.5615 5.68601C10.5053 5.6111 10.5313 5.67942 10.6045 5.79194C10.6071 5.765 10.5956 5.73134 10.5615 5.68601ZM9.54875 5.68601C9.60498 5.6111 9.57895 5.67942 9.5058 5.79194C9.50315 5.765 9.51473 5.73134 9.54875 5.68601ZM8.07202 5.26118C8.07202 5.26118 7.92605 5.37782 7.73728 5.43414C7.86526 5.33758 8.07202 5.26118 8.07202 5.26118Z" fill="#CF1225"/>
<path fill-rule="evenodd" clip-rule="evenodd" d="M7.01799 5.98633C7.01799 5.98633 6.27197 7.00109 6.35499 8.08533C6.43802 9.16957 7.32265 11.6922 9.94704 11.6922C9.96959 11.6922 9.99202 11.6916 10.0143 11.6916C12.7952 11.6916 13.5846 8.91017 13.5846 7.90996C13.5846 6.90109 12.9554 5.98633 12.9554 5.98633C12.9554 5.98633 13.0289 7.34008 12.9554 7.90996C12.7337 9.62903 11.6507 10.423 9.9957 10.423C8.33051 10.423 7.3001 9.59901 7.01799 7.90996C6.92678 7.36386 7.01799 5.98633 7.01799 5.98633Z" fill="#CF1225"/>
<path fill-rule="evenodd" clip-rule="evenodd" d="M5.66602 12.3445C5.66602 12.3445 5.80143 11.9567 5.96789 11.9567C6.13435 11.9567 5.6494 11.6202 5.96789 11.525C6.28638 11.4298 6.77648 11.9043 6.77648 11.4298C6.77648 10.9552 6.36201 10.6962 6.66655 10.6962C6.97108 10.6962 7.28881 10.6053 7.28881 10.6053C7.28881 10.6053 8.58453 11.9567 9.88174 11.9567C11.1789 11.9567 12.7389 10.6962 12.7389 10.6962C12.7389 10.6962 13.3138 10.55 13.3138 10.778C13.3138 11.0061 13.1877 11.3503 13.1877 11.3503C13.1877 11.3503 13.5906 11.2709 13.7955 11.3503C14.0005 11.4298 13.7955 11.8097 13.7955 11.8097V11.9567C13.7955 11.9567 14.3288 11.8393 14.3288 12.0494C14.3288 12.2596 14.0714 12.1395 13.5497 12.1995C13.028 12.2596 12.8301 12.6674 12.5023 12.6674C12.1746 12.6674 12.104 12.3445 12.104 12.3445C12.104 12.3445 11.0885 12.895 9.88174 12.895C8.67501 12.895 7.94607 12.3445 7.94607 12.3445C7.94607 12.3445 8.0599 12.9096 7.67436 12.7885C7.28881 12.6674 6.89439 11.8993 6.43114 12.0494C5.96789 12.1995 5.66602 12.3445 5.66602 12.3445Z" fill="#CF1225"/>
<path fill-rule="evenodd" clip-rule="evenodd" d="M7.53857 10.103C7.56139 10.0817 7.5843 10.0581 7.61435 10.0255C7.69946 9.93309 7.7225 9.90862 7.73992 9.89742C7.74343 9.91321 7.74581 9.93902 7.74581 9.97449C7.74581 10.2098 7.75417 10.3875 7.77708 10.511C7.79341 10.5991 7.81609 10.6561 7.85613 10.6832C7.91465 10.7228 7.97363 10.6883 8.02834 10.6061C8.15353 10.4179 8.38913 10.3947 8.38913 10.4665C8.38913 10.4851 8.3818 10.5052 8.33604 10.6173C8.32813 10.6367 8.3219 10.6523 8.31612 10.6676C8.28398 10.7521 8.26966 10.8133 8.27663 10.8666C8.28702 10.946 8.34557 10.9907 8.44035 10.9907C8.54578 10.9907 8.61508 10.9225 8.69166 10.7881C8.69912 10.775 8.71922 10.7384 8.72773 10.7229L8.72777 10.7228L8.72778 10.7228L8.73155 10.716C8.74558 10.6908 8.75584 10.6739 8.76529 10.6607C8.79322 10.6218 8.7993 10.6248 8.86117 10.771C8.87746 10.8095 8.91088 10.8906 8.93984 10.9609L8.93988 10.961C8.96275 11.0165 8.98283 11.0653 8.98946 11.0808C9.03009 11.1763 9.05856 11.2326 9.08856 11.272C9.15745 11.3625 9.23967 11.3618 9.33786 11.2778C9.3573 11.2612 9.37903 11.2448 9.40413 11.2275C9.41719 11.2185 9.4483 11.1985 9.47805 11.1794L9.4781 11.1793L9.47814 11.1793L9.47815 11.1793C9.50637 11.1611 9.53335 11.1438 9.54248 11.1374C9.59945 11.0976 9.62773 11.0663 9.62717 11.0201C9.62646 10.9616 9.57767 10.9249 9.48041 10.8887C9.46113 10.8816 9.4462 10.8748 9.43537 10.8698L9.43537 10.8698L9.43535 10.8698C9.42737 10.8662 9.42163 10.8636 9.41801 10.8626C9.42043 10.8621 9.42399 10.8603 9.42955 10.8575L9.43442 10.8551C9.49543 10.8248 9.61861 10.8026 9.72857 10.8026L9.72918 10.8026C9.73432 10.8026 9.7374 10.8026 9.73922 10.8041C9.74193 10.8064 9.74181 10.8121 9.74149 10.8262V10.8262L9.74145 10.8278C9.74071 10.861 9.73353 10.893 9.7064 10.9949L9.69704 11.0305C9.66628 11.1501 9.65772 11.2224 9.67889 11.2848C9.7099 11.3761 9.79802 11.4079 9.93489 11.3808C10.1201 11.3442 10.2102 11.2706 10.2338 11.1579C10.2397 11.1296 10.2409 11.1081 10.2409 11.064C10.241 10.9914 10.2414 10.9907 10.3035 10.9907C10.3917 10.9907 10.4267 11.0221 10.4638 11.1089L10.477 11.1407C10.5202 11.2447 10.5603 11.29 10.6506 11.29C10.7109 11.29 10.7529 11.2646 10.7454 11.2062C10.7435 11.1913 10.7385 11.1781 10.7295 11.1598L10.7222 11.1456L10.7093 11.1202C10.6532 11.0056 10.6755 10.9181 10.8682 10.7946C10.9233 10.7594 11.0084 10.6998 11.0821 10.6481C11.1351 10.6109 11.1823 10.5779 11.2081 10.561C11.2102 10.5767 11.2117 10.5982 11.2131 10.6295L11.2161 10.7118L11.2176 10.7522C11.2258 10.9614 11.2693 11.1529 11.3328 11.2307C11.4403 11.3624 11.5442 11.2407 11.6148 10.9509C11.6824 10.6737 11.7788 10.4122 11.8728 10.2536C11.9189 10.1758 11.962 10.127 11.9949 10.1122C12.0167 10.1024 12.032 10.1094 12.0546 10.1504C12.1395 10.3046 12.2702 10.4476 12.3806 10.4902C12.5446 10.5534 12.6418 10.4203 12.6418 10.1245C12.6418 9.87654 12.6821 9.67879 12.7487 9.52621C12.7717 9.47374 12.796 9.43076 12.8201 9.39666C12.8339 9.3771 12.844 9.36528 12.8488 9.36061L12.778 9.28458C12.7455 9.31643 12.6998 9.38115 12.6552 9.48322C12.5826 9.64947 12.5394 9.86188 12.5394 10.1245C12.5394 10.3584 12.4934 10.4213 12.4167 10.3918C12.3333 10.3597 12.218 10.2334 12.1438 10.0987C12.0972 10.0141 12.0281 9.98243 11.9537 10.0159C11.8968 10.0416 11.8413 10.1043 11.7852 10.1989C11.6852 10.3679 11.5853 10.6387 11.5154 10.9254C11.485 11.0501 11.4535 11.1293 11.4114 11.1632C11.3666 11.1084 11.3274 10.9355 11.32 10.7479L11.3186 10.7088L11.3154 10.6248C11.3137 10.5855 11.3117 10.5595 11.3085 10.5385C11.2981 10.4711 11.264 10.4314 11.2027 10.4475C11.1786 10.4537 11.063 10.5341 10.9591 10.6064L10.9591 10.6064C10.9011 10.6467 10.8468 10.6844 10.814 10.7054C10.5756 10.8581 10.5383 11.005 10.6177 11.1674L10.624 11.18C10.605 11.1712 10.5917 11.1487 10.5713 11.0995L10.5577 11.0667C10.5058 10.9454 10.439 10.8856 10.3035 10.8856C10.1731 10.8856 10.1386 10.9403 10.1385 11.0638C10.1384 11.1007 10.1375 11.1171 10.1336 11.1358C10.1197 11.2025 10.0636 11.2482 9.91549 11.2776C9.82289 11.2959 9.78673 11.2829 9.77565 11.2502C9.76372 11.2151 9.77069 11.1561 9.7961 11.0573L9.80523 11.0226C9.83527 10.9098 9.84286 10.8759 9.84388 10.8302C9.84565 10.751 9.80685 10.6975 9.72857 10.6975C9.60443 10.6975 9.46664 10.7223 9.38975 10.7605C9.2636 10.8232 9.2886 10.9292 9.44548 10.9876C9.4763 10.999 9.49668 11.0088 9.50905 11.0148C9.51784 11.019 9.52257 11.0213 9.52412 11.0208C9.52297 11.0211 9.52013 11.0234 9.51528 11.0273C9.50887 11.0326 9.49895 11.0406 9.48483 11.0505C9.47738 11.0557 9.45368 11.0709 9.42751 11.0878C9.39654 11.1077 9.36211 11.1298 9.34705 11.1402C9.31919 11.1594 9.29468 11.1779 9.27226 11.197C9.21496 11.2461 9.19891 11.2462 9.1693 11.2073C9.14624 11.177 9.12065 11.1264 9.08336 11.0388C9.07697 11.0237 9.05734 10.9761 9.03479 10.9214C9.00571 10.8508 8.97178 10.7684 8.95515 10.7291C8.86707 10.5209 8.7719 10.4741 8.68278 10.5984C8.67046 10.6155 8.65844 10.6354 8.64262 10.6638L8.63792 10.6723C8.62899 10.6885 8.61006 10.723 8.6032 10.735C8.54381 10.8393 8.49677 10.8856 8.44035 10.8856C8.3938 10.8856 8.38124 10.876 8.37818 10.8526C8.37424 10.8225 8.38548 10.7744 8.41158 10.7058C8.417 10.6915 8.42293 10.6766 8.43053 10.658C8.48757 10.5183 8.49158 10.5072 8.49158 10.4665C8.49158 10.2533 8.11421 10.2906 7.94373 10.5468C7.92924 10.5686 7.91684 10.5828 7.90775 10.5899C7.89901 10.5764 7.88713 10.542 7.87774 10.4914C7.85641 10.3764 7.84827 10.2033 7.84827 9.97449C7.84827 9.82951 7.80472 9.75281 7.71107 9.79462C7.66872 9.81353 7.66712 9.81514 7.53989 9.95325C7.51149 9.98408 7.49019 10.006 7.4697 10.0251C7.44319 10.0498 7.42023 10.0674 7.40049 10.0778C7.3714 10.0931 7.36023 10.0836 7.34452 10.0159C7.32823 9.94567 7.32289 9.84652 7.32295 9.68141L7.32315 9.6122L7.32335 9.54092C7.32335 9.42372 7.29198 9.35806 7.21549 9.35806C7.18929 9.35806 7.16299 9.36696 7.12971 9.3839C7.11804 9.38984 7.10583 9.39659 7.08947 9.40603L7.04836 9.42984C6.97782 9.4701 6.93097 9.48835 6.88693 9.48835C6.87871 9.48835 6.87391 9.48965 6.87174 9.49024C6.87087 9.49048 6.87043 9.4906 6.87035 9.49048C6.87026 9.49035 6.8706 9.48995 6.8713 9.48911C6.87319 9.48685 6.87773 9.48141 6.8837 9.46967C6.91279 9.4125 6.99104 9.32023 7.11691 9.19654L7.04604 9.12061C6.91251 9.25182 6.82864 9.35073 6.79288 9.421C6.74342 9.5182 6.78173 9.59349 6.88693 9.59349C6.95341 9.59349 7.01331 9.57015 7.09816 9.52172C7.19634 9.46568 7.2012 9.4632 7.21549 9.4632C7.21552 9.4632 7.22089 9.47445 7.22089 9.54092L7.22069 9.61176L7.22049 9.68137C7.22043 9.85491 7.22604 9.95919 7.24485 10.0403C7.2738 10.165 7.3447 10.2254 7.44734 10.1713C7.47632 10.156 7.50598 10.1333 7.53857 10.103ZM7.7507 9.89105C7.75145 9.89114 7.75199 9.89114 7.75222 9.89104L7.7507 9.89105ZM9.41493 10.8576C9.41309 10.8564 9.41218 10.8556 9.41215 10.8555C9.41317 10.8599 9.41413 10.8625 9.41574 10.8636L9.41493 10.8576ZM11.2282 10.5493L11.2271 10.5496L11.2278 10.5495L11.2282 10.5493Z" fill="#F6E017"/>
<path fill-rule="evenodd" clip-rule="evenodd" d="M8.64544 12.3439C8.6 12.4665 8.5283 12.5071 8.44729 12.4458C8.42268 12.4272 8.39876 12.4007 8.36542 12.3578L8.35795 12.348L8.35795 12.348C8.34017 12.3247 8.29601 12.2666 8.27976 12.2464C8.20997 12.1595 8.14986 12.1052 8.08456 12.0773L8.07858 12.0748L8.07858 12.0748C7.99897 12.0409 7.98186 12.0336 7.96508 12.0256L7.94678 12.0167C7.85099 11.97 7.79634 11.9216 7.74373 11.831C7.70258 11.7601 7.66273 11.6641 7.59521 11.4785L7.6912 11.4418C7.75658 11.6215 7.79479 11.7135 7.83175 11.7771C7.87346 11.849 7.91254 11.8836 7.99079 11.9218L8.00715 11.9297C8.02314 11.9373 8.03945 11.9443 8.11827 11.9779L8.11829 11.9779L8.11829 11.9779L8.12386 11.9802C8.20809 12.0161 8.27929 12.0805 8.35881 12.1795C8.37657 12.2016 8.424 12.264 8.4401 12.2852L8.44011 12.2852L8.44549 12.2922C8.47352 12.3283 8.49278 12.3496 8.5081 12.3612C8.51641 12.3675 8.51689 12.3679 8.51581 12.3686C8.52294 12.3643 8.53558 12.3446 8.54968 12.3065C8.5811 12.2218 8.55352 12.1561 8.47713 12.0877C8.4743 12.0852 8.46649 12.0789 8.45625 12.0707L8.45625 12.0707C8.42697 12.0472 8.37787 12.0079 8.36881 11.9944C8.33969 11.9511 8.36463 11.9071 8.4096 11.8952C8.42985 11.8898 8.45978 11.8878 8.50756 11.8878C8.673 11.8878 8.7185 11.985 8.74918 12.2335L8.74969 12.2376C8.77386 12.4335 8.79832 12.4873 8.88193 12.4873C8.97626 12.4873 9.0337 12.4497 9.13398 12.3426L9.15595 12.3192C9.28374 12.1831 9.37323 12.1374 9.52357 12.179C9.64365 12.2123 9.69497 12.2713 9.70705 12.3629C9.70839 12.3731 9.70905 12.3804 9.71037 12.3978C9.71623 12.475 9.72985 12.4873 9.87927 12.4873C9.9926 12.4873 10.0981 12.4933 10.2356 12.5055L10.2522 12.507L10.2522 12.507C10.2845 12.5099 10.3531 12.5161 10.3737 12.5178C10.4185 12.5215 10.4502 12.5233 10.4753 12.5233C10.4932 12.5233 10.507 12.5223 10.5164 12.5207C10.5203 12.4906 10.5381 12.4694 10.6099 12.3881C10.6182 12.3787 10.6246 12.3714 10.6305 12.3643C10.6641 12.3247 10.6789 12.2982 10.678 12.294C10.6778 12.2932 10.6478 12.2823 10.5667 12.2823C10.4922 12.2823 10.455 12.2731 10.4483 12.2206C10.4426 12.1766 10.468 12.1554 10.5243 12.1254C10.5887 12.0912 10.7062 12.0466 10.8472 12.0017C10.9829 11.9585 11.1261 11.9196 11.2351 11.8968C11.294 11.8844 11.342 11.8769 11.3769 11.8749C11.4435 11.8712 11.4831 11.8804 11.4831 11.9404C11.4831 11.9654 11.5534 12.0513 11.6236 12.0903C11.7073 12.1369 11.7668 12.1192 11.8078 12.0099C11.8677 11.8503 11.9926 11.6779 12.1143 11.5792C12.1796 11.5263 12.2397 11.4978 12.2916 11.5025C12.3618 11.5088 12.3985 11.569 12.3985 11.66H12.296C12.296 11.6174 12.2903 11.6079 12.2827 11.6072C12.2633 11.6055 12.2244 11.6239 12.1778 11.6617C12.0704 11.7488 11.9567 11.9058 11.9034 12.0477C11.8389 12.2197 11.71 12.258 11.5747 12.1828C11.4918 12.1366 11.4125 12.049 11.3882 11.9797C11.3536 11.9816 11.31 11.9884 11.2556 11.9998C11.1502 12.0219 11.0102 12.0599 10.8776 12.1021C10.7897 12.1301 10.7114 12.1579 10.6515 12.1824C10.7246 12.1929 10.7669 12.2201 10.778 12.2712C10.789 12.3223 10.7642 12.3669 10.7078 12.4333C10.7014 12.441 10.6945 12.4488 10.6858 12.4587C10.6362 12.5149 10.6179 12.5389 10.6179 12.5398C10.6179 12.6093 10.5651 12.6284 10.4753 12.6284C10.4469 12.6284 10.4128 12.6265 10.3655 12.6226C10.3443 12.6209 10.2744 12.6146 10.2426 12.6117L10.2268 12.6102C10.0919 12.5983 9.98912 12.5924 9.87927 12.5924C9.67751 12.5924 9.61833 12.5392 9.60822 12.406C9.60705 12.3906 9.60651 12.3845 9.60551 12.377C9.59901 12.3277 9.57743 12.3028 9.49688 12.2805C9.39179 12.2514 9.33428 12.2808 9.22971 12.3921L9.20786 12.4155C9.08982 12.5415 9.01199 12.5924 8.88193 12.5924C8.73483 12.5924 8.68664 12.5137 8.65609 12.3102C8.65322 12.3212 8.64968 12.3325 8.64544 12.3439ZM8.65401 12.2508L8.65339 12.2467C8.64368 12.1822 8.63371 12.1328 8.62091 12.0954C8.67155 12.1595 8.68922 12.23 8.66383 12.3102C8.6604 12.2915 8.65715 12.2717 8.65401 12.2508ZM10.5283 12.1745L10.5314 12.1755L10.5296 12.1747L10.5283 12.1745ZM10.5263 12.5184L10.5237 12.5193L10.5254 12.5189L10.5263 12.5184Z" fill="#F6E017"/>
</g>
</g>
</svg>
