<svg width="20" height="15" viewBox="0 0 20 15" fill="none" xmlns="http://www.w3.org/2000/svg">
<mask id="mask0_1825_40824" style="mask-type:luminance" maskUnits="userSpaceOnUse" x="0" y="0" width="20" height="15">
<rect width="20" height="15" fill="white"/>
</mask>
<g mask="url(#mask0_1825_40824)">
<path fill-rule="evenodd" clip-rule="evenodd" d="M0 0V15H20V0H0Z" fill="#FECA00"/>
<mask id="mask1_1825_40824" style="mask-type:luminance" maskUnits="userSpaceOnUse" x="0" y="0" width="20" height="15">
<path fill-rule="evenodd" clip-rule="evenodd" d="M0 0V15H20V0H0Z" fill="white"/>
</mask>
<g mask="url(#mask1_1825_40824)">
<path fill-rule="evenodd" clip-rule="evenodd" d="M0 0V5H20V0H0Z" fill="#DB501C"/>
<path fill-rule="evenodd" clip-rule="evenodd" d="M0 10V15H20V10H0Z" fill="#5EAA22"/>
<path d="M7.27984 7.03748C7.27984 7.03748 7.04741 9.41817 9.16336 9.41817C11.2793 9.41817 10.7407 9.41817 10.7407 9.41817C10.7407 9.41817 12.9666 9.27295 12.7081 7.03748" stroke="#DB501C" stroke-width="0.9375"/>
<path d="M11.4062 7.375C11.4062 8.15165 10.7767 8.78125 10 8.78125C9.22335 8.78125 8.59375 8.15165 8.59375 7.375C8.59375 6.59835 9.22335 5.96875 10 5.96875C10.7767 5.96875 11.4062 6.59835 11.4062 7.375Z" fill="#FECA00" stroke="#68B9E8" stroke-width="0.9375"/>
<path fill-rule="evenodd" clip-rule="evenodd" d="M10 7.5C10.3452 7.5 10.625 7.22018 10.625 6.875C10.625 6.52982 10.3452 6.25 10 6.25C9.65482 6.25 9.375 6.52982 9.375 6.875C9.375 7.22018 9.65482 7.5 10 7.5Z" fill="#DB501C"/>
<path fill-rule="evenodd" clip-rule="evenodd" d="M10.063 8.5C10.6498 8.5 11.1255 8.27614 11.1255 8C11.1255 7.72386 10.6498 7.5 10.063 7.5C9.47619 7.5 9.00049 7.72386 9.00049 8C9.00049 8.27614 9.47619 8.5 10.063 8.5Z" fill="#5EAA22"/>
<path fill-rule="evenodd" clip-rule="evenodd" d="M10.063 6.25C10.8914 6.25 11.563 6.02614 11.563 5.75C11.563 5.47386 10.8914 5.25 10.063 5.25C9.23456 5.25 8.56299 5.47386 8.56299 5.75C8.56299 6.02614 9.23456 6.25 10.063 6.25Z" fill="#674F28"/>
</g>
</g>
</svg>
