<svg width="20" height="15" viewBox="0 0 20 15" fill="none" xmlns="http://www.w3.org/2000/svg">
<g clip-path="url(#clip0_14_479)">
<path d="M0.00311279 0H20.0062V15H0.00311279V0Z" fill="#FFD520"/>
<path d="M0.00311279 15H20.0062V0L0.00311279 15Z" fill="#FF4E12"/>
<path d="M10.7938 4.6875C10.6688 4.64688 10.5875 4.70938 10.5938 4.87188C10.5938 5.03125 10.6813 5.12188 10.8063 5.0625L10.7938 4.6875Z" fill="white" stroke="black" stroke-width="0.02"/>
<path d="M10.9031 4.38747C10.8 4.30622 10.7031 4.3406 10.6531 4.49372C10.6063 4.64997 10.6563 4.76247 10.7938 4.74372L10.9031 4.38747Z" fill="white" stroke="black" stroke-width="0.02"/>
<path d="M11.075 4.09373C10.9875 3.99998 10.8875 4.01873 10.8125 4.16248C10.7406 4.30623 10.7719 4.42811 10.9125 4.43436L11.075 4.09686V4.09373ZM10.9625 5.51561C10.8094 5.57186 10.7938 5.78123 10.8906 5.90936C10.9844 6.03748 11.1625 6.06248 11.2594 5.90936L10.9625 5.51561Z" fill="white" stroke="black" stroke-width="0.02"/>
<path d="M10.7844 5.07187C10.6406 5.02499 10.5094 5.21874 10.4875 5.39374C10.4594 5.61249 10.1437 5.68749 10.3187 6.02187C10.3562 5.80937 10.4969 5.69062 10.6094 5.68437C10.7219 5.67499 10.8906 5.65312 10.9625 5.51562L10.7844 5.07187ZM11.2437 5.93437C11.075 5.97499 11.05 6.19999 11.1719 6.35937C11.275 6.49687 11.6 6.46562 11.5906 6.32812L11.2469 5.93437H11.2437ZM11.7219 7.29062C11.7312 7.14374 11.4969 7.08749 11.3844 7.11562C11.2719 7.14687 11.0562 7.11249 11.0094 6.99062C10.9656 7.08749 11.025 7.19374 11.1875 7.24687C11.3125 7.28437 11.3094 7.37187 11.2719 7.41562C11.3656 7.43124 11.6375 7.43124 11.7219 7.29062Z" fill="white" stroke="black" stroke-width="0.02"/>
<path d="M11.5906 6.3656C11.425 6.2906 11.3281 6.4031 11.2656 6.50935C11.1719 6.6656 10.8875 6.4656 10.7906 6.67498C10.9219 6.61873 11.0532 6.73748 11.1157 6.7781C11.2938 6.89373 11.6344 6.85935 11.6844 6.58435L11.5906 6.3656Z" fill="white" stroke="black" stroke-width="0.02"/>
<path d="M11.6875 6.55621C11.5219 6.68121 11.4563 6.83121 11.4625 6.93121C11.4656 7.03121 11.6063 7.25309 11.7594 7.26559C11.8469 7.08434 11.8938 6.70309 11.6875 6.55621ZM11 7.33434C11 7.27184 11.0875 7.24996 11.15 7.27184C11.2094 7.29059 11.3031 7.34996 11.2688 7.41559L11 7.33434ZM10.0938 6.99996C10.0781 6.92809 10.1938 6.80309 10.35 6.87184C10.5063 6.94059 10.5281 7.07184 10.4625 7.12496L10.0938 6.99996Z" fill="white" stroke="black" stroke-width="0.02"/>
<path d="M10.475 7.13749C10.4625 7.09686 10.5782 7.01561 10.7688 7.06249C10.9625 7.11249 11.0094 7.23749 11.0032 7.33436L10.475 7.13749ZM10.0719 7.00311C10.175 6.92811 10.1344 6.78436 10.0438 6.73749C9.88128 6.65624 9.94066 6.44999 9.83441 6.40936C9.73128 6.36874 9.63128 6.29686 9.62503 6.22186C9.57503 6.32499 9.60628 6.41561 9.67816 6.48124C9.75003 6.54374 9.62191 6.80624 9.71566 6.87499L10.0719 7.00311ZM7.91566 6.94686C7.83128 6.81561 7.63128 6.83749 7.54691 6.93124C7.46253 7.02499 7.47503 7.15936 7.55316 7.22186L7.91566 6.94686ZM8.40003 6.74999C8.36878 6.57186 8.15316 6.55311 8.03753 6.59686C7.91878 6.64061 7.84066 6.81874 7.91566 6.94686L8.40003 6.74999Z" fill="white"/>
<path d="M7.91566 6.94686C7.83128 6.81561 7.63128 6.83749 7.54691 6.93124C7.46253 7.02499 7.47503 7.15936 7.55316 7.22186L7.91566 6.94686ZM7.91566 6.94686C7.84066 6.81874 7.91878 6.64061 8.03753 6.59686C8.15316 6.55311 8.36878 6.57186 8.40003 6.74999L7.91566 6.94686ZM10.475 7.13749C10.4625 7.09686 10.5782 7.01561 10.7688 7.06249C10.9625 7.11249 11.0094 7.23749 11.0032 7.33436L10.475 7.13749ZM10.0719 7.00311C10.175 6.92811 10.1344 6.78436 10.0438 6.73749C9.88128 6.65624 9.94066 6.44999 9.83441 6.40936C9.73128 6.36874 9.63128 6.29686 9.62503 6.22186C9.57503 6.32499 9.60628 6.41561 9.67816 6.48124C9.75003 6.54374 9.62191 6.80624 9.71566 6.87499L10.0719 7.00311Z" stroke="black" stroke-width="0.02"/>
<path d="M8.71879 6.72499C8.79692 6.57811 8.64692 6.35624 8.47817 6.32499C8.33754 6.29374 8.17192 6.29686 8.11567 6.15936C8.08442 6.27811 8.17192 6.35624 8.27817 6.42499C8.38129 6.49374 8.25942 6.66874 8.42817 6.76874L8.72192 6.72499H8.71879Z" fill="white" stroke="black" stroke-width="0.02"/>
<path d="M8.70625 6.73124C8.66875 6.62499 8.74063 6.48124 8.88438 6.49374C9.03125 6.50312 9.1125 6.60624 9.05 6.74062L8.70625 6.73124Z" fill="white" stroke="black" stroke-width="0.02"/>
<path d="M9.02815 6.74062C9.00627 6.62812 9.0969 6.49687 9.24065 6.52812C9.38127 6.55937 9.4469 6.675 9.36565 6.79375L9.02815 6.7375V6.74062Z" fill="white" stroke="black" stroke-width="0.02"/>
<path d="M9.34376 6.79059C9.33126 6.67809 9.42813 6.55309 9.56876 6.59059C9.70938 6.62809 9.76876 6.74684 9.68126 6.86246L9.34688 6.79059H9.34376ZM6.91876 8.63434C6.64688 8.63434 6.58126 8.69684 6.54376 8.97809C6.49376 9.32184 6.96563 9.36246 6.91876 8.63434Z" fill="white" stroke="black" stroke-width="0.02"/>
<path d="M7.03752 8.27188C6.62502 8.11563 6.40002 8.77187 5.98752 8.65312C6.1344 8.8875 6.49065 8.65313 6.62502 8.67813C6.85002 8.71875 7.33752 8.63438 7.03752 8.27188ZM6.76877 9.16875C6.56252 9.075 6.34377 9.3875 6.38127 9.52812C6.4344 9.7 6.90315 9.55937 6.76877 9.16875ZM5.81252 10.5219C5.92502 10.5531 6.06252 10.6156 6.03752 10.8344C6.01252 11.0531 5.60002 11.4938 5.23127 11.5219C4.86252 11.5438 4.73127 11.9906 4.4094 11.8656C4.7094 11.8094 4.7094 11.4719 4.94065 11.3656C4.7719 11.3031 4.6844 11.6875 4.46565 11.6875C4.2469 11.6875 4.14377 12.0344 3.87815 12.0094C3.61252 11.9875 3.58752 12.4312 3.05315 12.4375C2.6469 12.4406 2.1469 12.9156 1.96252 12.7094C2.3594 12.6531 2.51877 12.4344 2.75315 12.1938C3.12815 11.8094 3.55627 11.9812 3.70315 11.6406C3.53447 11.7545 3.33473 11.8134 3.13127 11.8094C2.88127 11.8031 2.61252 12.2031 2.3344 12.0281C2.49377 12.0062 2.60002 11.9375 2.76877 11.7594C2.94065 11.5781 3.1969 11.6969 3.3969 11.5094C3.7094 11.2219 3.98127 11.4625 4.28127 11.1031C4.1969 11.0594 4.01565 11.0875 3.8469 11.1781C3.67815 11.2656 3.46252 11.1156 3.26877 11.2219C3.29065 10.9844 3.74377 11.1187 4.02502 10.9562C4.34377 10.7687 4.60627 10.825 4.85627 10.8469C4.50627 10.8469 4.3719 10.5125 3.88752 10.6094C3.67815 10.6531 3.5094 10.3187 3.30002 10.4875C3.30627 10.3625 3.52502 10.2625 3.75002 10.3844C3.97502 10.5062 4.06565 10.2781 4.51565 10.5625C4.70315 10.6781 5.01877 10.4875 5.21877 10.6125C5.19377 10.5375 5.07815 10.4875 4.94377 10.5C5.02815 10.325 5.57502 10.3469 5.81252 10.5219Z" fill="white" stroke="black" stroke-width="0.02"/>
<path d="M6.16876 10.2593C5.99376 10.1218 5.74689 10.2875 5.57501 10.2219C5.57501 10.3344 5.63439 10.5031 5.81876 10.5687C5.87501 10.5281 6.13126 10.3062 6.16876 10.2593Z" fill="white" stroke="black" stroke-width="0.02"/>
<path d="M6.44689 9.86875C6.16876 9.72812 6.12189 10.0781 5.90314 10.0062C5.91251 10.1062 5.99376 10.2312 6.16876 10.2594L6.45001 9.86875H6.44689Z" fill="white" stroke="black" stroke-width="0.02"/>
<path d="M6.61255 9.54996C6.20317 9.39059 6.15005 9.78434 5.90942 9.70621C5.96567 9.84371 6.30942 9.91871 6.48755 9.86871L6.61255 9.54996ZM7.17505 7.82496C7.06567 7.66871 6.83755 7.79371 6.80005 7.97809C6.76567 8.15934 6.85317 8.41246 7.0063 8.35309L7.17505 7.82184V7.82496Z" fill="white" stroke="black" stroke-width="0.02"/>
<path d="M7.45316 7.34374C7.26566 7.29686 7.04691 7.31874 7.07191 7.49999C6.99691 7.53436 6.97816 7.77186 7.17503 7.82499L7.45316 7.34061V7.34374Z" fill="white" stroke="black" stroke-width="0.02"/>
<path d="M7.57817 7.21874C7.39067 6.99999 7.18755 7.00311 7.07192 7.09374C6.8563 7.26561 6.65005 7.16874 6.6438 7.33749C6.77192 7.23749 6.88755 7.35624 6.98755 7.32186C7.0938 7.28436 7.17192 7.48749 7.46255 7.40311L7.57817 7.21561V7.21874ZM7.1313 10.4656C7.15942 10.5187 7.3313 10.5406 7.41567 10.4531C7.52817 10.3344 7.4063 10.0094 7.22817 9.98436C7.05005 9.96249 7.03442 10.3531 7.1313 10.4656Z" fill="white" stroke="black" stroke-width="0.02"/>
<path d="M6.93127 10.4719C7.18127 10.5656 7.29065 10.3562 7.15627 10.2219C7.08697 10.3102 7.0118 10.3937 6.93127 10.4719Z" fill="white" stroke="black" stroke-width="0.02"/>
<path d="M5.98125 10.8187C5.93125 10.9656 5.68125 10.9875 5.4 11.4375C5.11875 11.8906 4.85 11.7 4.78125 12.0094C5.11875 11.7375 5.38438 11.9156 5.5875 11.6469C5.89063 11.2375 6.14375 11.2969 6.2625 11.0219C6.43125 10.625 7.16875 10.6344 7.2125 10.0125C6.9625 9.96561 6.17187 10.6344 5.98125 10.8187ZM12.3313 4.73436C12.6531 4.84061 12.6594 5.25624 13.0312 5.39374C13.4 5.53124 13.4375 5.86249 13.7406 5.78124C13.4594 5.70311 13.4781 5.37811 13.1844 5.29686C12.8406 5.20311 12.7094 4.67811 12.4344 4.59686M13.8094 6.91874C13.8656 7.04999 13.8562 7.27811 13.6531 7.33749C13.7625 7.40624 13.925 7.34374 14.0125 7.19374C13.8812 7.48749 13.9688 7.75311 14.1781 7.80624C14.0781 7.59999 14.3031 7.50311 14.2312 7.36874C14.3625 7.42811 14.4813 7.60936 14.475 7.72186C14.65 7.52811 14.35 7.26874 14.4031 7.08749L13.8094 6.91874ZM11.7188 8.98749C11.5219 8.81561 11.4375 9.03436 11.3438 8.95624C11.25 8.88749 11.1313 8.87811 11.0844 8.94686C11.2531 8.95311 11.1719 9.08436 11.5 9.11561C11.1719 9.13749 11.2312 9.50624 11.0125 9.48749C11.2437 9.70624 11.3656 9.29061 11.5562 9.35936C11.5 9.37499 11.6437 9.50624 11.5437 9.68436C11.7062 9.68124 11.7719 9.45624 11.7937 9.34061L11.7188 8.98749ZM7.375 10.8687C7.30625 10.8062 7.09375 10.7781 7.01562 10.8281C6.93438 10.875 6.9625 10.8906 7.05937 10.8969C7.15625 10.9031 7.27813 11.0594 7.07188 11.0687C6.975 11.0719 7.00938 11.3062 6.80625 11.3219C6.8875 11.4219 7.125 11.3562 7.20937 11.2469C7.19375 11.3375 7.3125 11.4187 7.26562 11.5281C7.4125 11.5437 7.32812 11.225 7.5625 11.2406C7.46875 11.2531 7.50625 11.4719 7.675 11.4156C7.575 11.4625 7.62813 11.5812 7.7375 11.5531C7.66875 11.575 7.64375 11.6687 7.74375 11.7219C7.84063 11.5875 7.73125 11.1125 7.37813 10.8687H7.375ZM16.1437 6.42811C16.2205 6.43386 16.2976 6.42371 16.3703 6.39828C16.443 6.37285 16.5096 6.3327 16.566 6.28034C16.6224 6.22798 16.6675 6.16454 16.6982 6.09398C16.729 6.02343 16.7449 5.94728 16.7449 5.8703C16.7449 5.79332 16.729 5.71717 16.6982 5.64662C16.6675 5.57606 16.6224 5.51262 16.566 5.46026C16.5096 5.4079 16.443 5.36775 16.3703 5.34232C16.2976 5.31689 16.2205 5.30674 16.1437 5.31249C16.003 5.32303 15.8715 5.38637 15.7755 5.48982C15.6795 5.59327 15.6262 5.72918 15.6262 5.8703C15.6262 6.01142 15.6795 6.14733 15.7755 6.25078C15.8715 6.35423 16.003 6.41757 16.1437 6.42811Z" fill="white"/>
<path d="M12.3313 4.73436C12.6531 4.84061 12.6594 5.25624 13.0312 5.39374C13.4 5.53124 13.4375 5.86249 13.7406 5.78124C13.4594 5.70311 13.4781 5.37811 13.1844 5.29686C12.8406 5.20311 12.7094 4.67811 12.4344 4.59686M5.98125 10.8187C5.93125 10.9656 5.68125 10.9875 5.4 11.4375C5.11875 11.8906 4.85 11.7 4.78125 12.0094C5.11875 11.7375 5.38438 11.9156 5.5875 11.6469C5.89063 11.2375 6.14375 11.2969 6.2625 11.0219C6.43125 10.625 7.16875 10.6344 7.2125 10.0125C6.9625 9.96561 6.17187 10.6344 5.98125 10.8187ZM13.8094 6.91874C13.8656 7.04999 13.8562 7.27811 13.6531 7.33749C13.7625 7.40624 13.925 7.34374 14.0125 7.19374C13.8812 7.48749 13.9688 7.75311 14.1781 7.80624C14.0781 7.59999 14.3031 7.50311 14.2312 7.36874C14.3625 7.42811 14.4813 7.60936 14.475 7.72186C14.65 7.52811 14.35 7.26874 14.4031 7.08749L13.8094 6.91874ZM11.7188 8.98749C11.5219 8.81561 11.4375 9.03436 11.3438 8.95624C11.25 8.88749 11.1313 8.87811 11.0844 8.94686C11.2531 8.95311 11.1719 9.08436 11.5 9.11561C11.1719 9.13749 11.2312 9.50624 11.0125 9.48749C11.2437 9.70624 11.3656 9.29061 11.5562 9.35936C11.5 9.37499 11.6437 9.50624 11.5437 9.68436C11.7062 9.68124 11.7719 9.45624 11.7937 9.34061L11.7188 8.98749ZM7.375 10.8687C7.30625 10.8062 7.09375 10.7781 7.01562 10.8281C6.93438 10.875 6.9625 10.8906 7.05937 10.8969C7.15625 10.9031 7.27813 11.0594 7.07188 11.0687C6.975 11.0719 7.00938 11.3062 6.80625 11.3219C6.8875 11.4219 7.125 11.3562 7.20937 11.2469C7.19375 11.3375 7.3125 11.4187 7.26562 11.5281C7.4125 11.5437 7.32812 11.225 7.5625 11.2406C7.46875 11.2531 7.50625 11.4719 7.675 11.4156C7.575 11.4625 7.62813 11.5812 7.7375 11.5531C7.66875 11.575 7.64375 11.6687 7.74375 11.7219C7.84063 11.5875 7.73125 11.1125 7.37813 10.8687H7.375ZM16.1437 6.42811C16.2205 6.43386 16.2976 6.42371 16.3703 6.39828C16.443 6.37285 16.5096 6.3327 16.566 6.28034C16.6224 6.22798 16.6675 6.16454 16.6982 6.09398C16.729 6.02343 16.7449 5.94728 16.7449 5.8703C16.7449 5.79332 16.729 5.71717 16.6982 5.64662C16.6675 5.57606 16.6224 5.51262 16.566 5.46026C16.5096 5.4079 16.443 5.36775 16.3703 5.34232C16.2976 5.31689 16.2205 5.30674 16.1437 5.31249C16.003 5.32303 15.8715 5.38637 15.7755 5.48982C15.6795 5.59327 15.6262 5.72918 15.6262 5.8703C15.6262 6.01142 15.6795 6.14733 15.7755 6.25078C15.8715 6.35423 16.003 6.41757 16.1437 6.42811Z" stroke="black" stroke-width="0.02"/>
<path d="M13.2313 7.09998C13.4031 6.9406 13.6594 6.85935 13.8375 6.98123C14.0125 7.09998 14.6 7.24373 14.8906 7.04373C15.1813 6.84373 15.3188 6.73748 15.4469 6.76248C15.5406 6.90623 15.6594 6.97498 15.8031 6.98748C15.8469 7.03748 16.0063 7.07498 16.0938 7.0656C16.2219 7.09685 16.3781 7.05623 16.5031 6.91873C16.6969 6.94998 16.8781 6.8031 16.9469 6.58435C17.1531 6.56248 17.1656 6.33435 17.0344 6.1781C16.9156 6.15623 17.0063 5.74685 16.5688 5.8281C16.7563 5.9406 16.6125 6.1656 16.7656 6.27185C16.6625 6.27185 16.525 6.3156 16.4938 6.47185C16.5344 6.3656 16.4875 6.2906 16.4625 6.26873C16.4625 6.17498 16.2594 5.94685 16.0656 6.03123C16.2031 6.06248 16.1281 6.28123 16.2281 6.36873C16.1902 6.37027 16.153 6.38034 16.1195 6.3982C16.086 6.41605 16.0569 6.44122 16.0344 6.47185C15.9813 6.3781 15.7969 6.28435 15.6844 6.27498C15.6844 6.24373 15.6781 6.18123 15.6625 6.14685C15.6125 6.04998 15.5688 5.93435 15.5906 5.78748C15.4992 5.89505 15.4235 6.01498 15.3656 6.14373C15.2125 6.03748 14.8344 6.1906 14.6563 6.23123C14.4813 6.27185 13.8844 6.17498 13.75 6.03123C13.5588 5.87835 13.3338 5.77335 13.0938 5.72498C12.75 5.62498 12.75 5.24998 12.3719 4.9906C12.3625 5.45935 13.0719 6.9406 13.2313 7.09998ZM9.28751 10.6594C9.4309 10.6594 9.56841 10.6024 9.66979 10.501C9.77118 10.3996 9.82814 10.2621 9.82814 10.1187C9.82814 9.97534 9.77118 9.83783 9.66979 9.73645C9.56841 9.63506 9.4309 9.5781 9.28751 9.5781C9.14413 9.5781 9.00662 9.63506 8.90523 9.73645C8.80385 9.83783 8.74689 9.97534 8.74689 10.1187C8.74689 10.2621 8.80385 10.3996 8.90523 10.501C9.00662 10.6024 9.14413 10.6594 9.28751 10.6594Z" fill="white" stroke="black" stroke-width="0.02"/>
<path d="M8.00001 10.2437C8.10939 10.3843 8.29376 10.375 8.37189 10.3656C8.43439 10.5343 8.64064 10.5281 8.72814 10.6218C8.81876 10.7156 9.11876 10.7062 9.20626 10.6531C9.12814 10.6468 9.02189 10.5968 8.92501 10.5125C8.80001 10.4125 8.85626 10.2062 8.76251 10.1375C8.79201 10.0999 8.81336 10.0566 8.8252 10.0103C8.83704 9.96406 8.8391 9.91583 8.83126 9.86872C8.90626 9.82497 8.96251 9.75309 8.96876 9.71559C9.08088 9.71018 9.18733 9.66472 9.26876 9.58747C9.33751 9.64997 9.50939 9.56872 9.60314 9.67497C9.62189 9.40934 9.36876 9.26872 9.19689 9.35934C9.13126 9.32184 8.95001 9.34684 8.91564 9.39372C8.86251 9.36872 8.70314 9.44997 8.63439 9.50309C8.71251 9.45934 8.72501 9.32497 8.69376 9.27809C8.76251 9.24684 8.83751 9.15622 8.84689 9.09059C8.94064 9.10622 9.08751 9.04059 9.15001 9.05622C9.04689 8.91872 8.87501 8.86872 8.69689 8.88434C8.51251 8.89372 8.43439 9.02184 8.40939 9.15934C8.30314 9.22497 8.26564 9.44059 8.30626 9.51872C8.24376 9.51872 8.18439 9.57809 8.16251 9.61247C8.06918 9.57404 7.96965 9.55286 7.86876 9.54997M7.90939 9.33122C7.87189 9.22497 7.91876 9.13122 7.94376 9.04997C8.00626 8.83747 7.96876 8.78122 7.77814 8.80934C7.78937 8.9899 7.83387 9.16683 7.90939 9.33122Z" fill="white"/>
<path d="M8.00001 10.2437C8.10939 10.3843 8.29376 10.375 8.37189 10.3656C8.43439 10.5343 8.64064 10.5281 8.72814 10.6218C8.81876 10.7156 9.11876 10.7062 9.20626 10.6531C9.12814 10.6468 9.02189 10.5968 8.92501 10.5125C8.80001 10.4125 8.85626 10.2062 8.76251 10.1375C8.79201 10.0999 8.81336 10.0566 8.8252 10.0103C8.83704 9.96406 8.8391 9.91583 8.83126 9.86872C8.90626 9.82497 8.96251 9.75309 8.96876 9.71559C9.08088 9.71018 9.18733 9.66472 9.26876 9.58747C9.33751 9.64997 9.50939 9.56872 9.60314 9.67497C9.62189 9.40934 9.36876 9.26872 9.19689 9.35934C9.13126 9.32184 8.95001 9.34684 8.91564 9.39372C8.86251 9.36872 8.70314 9.44997 8.63439 9.50309C8.71251 9.45934 8.72501 9.32497 8.69376 9.27809C8.76251 9.24684 8.83751 9.15622 8.84689 9.09059C8.94064 9.10622 9.08751 9.04059 9.15001 9.05622C9.04689 8.91872 8.87501 8.86872 8.69689 8.88434C8.51251 8.89372 8.43439 9.02184 8.40939 9.15934C8.30314 9.22497 8.26564 9.44059 8.30626 9.51872C8.24376 9.51872 8.18439 9.57809 8.16251 9.61247C8.06918 9.57404 7.96965 9.55286 7.86876 9.54997M7.90939 9.33122C7.87189 9.22497 7.91876 9.13122 7.94376 9.04997C8.00626 8.83747 7.96876 8.78122 7.77814 8.80934C7.78937 8.9899 7.83387 9.16683 7.90939 9.33122Z" stroke="black" stroke-width="0.02"/>
<path d="M7.7688 8.82185C7.8188 8.87185 7.98755 8.89372 8.0063 8.7406C8.02817 8.5656 7.9563 8.49685 7.80317 8.5656C7.79067 8.60622 7.77817 8.76872 7.77192 8.82185H7.7688Z" fill="white" stroke="black" stroke-width="0.02"/>
<path d="M7.80627 8.55933C7.86877 8.58433 8.0094 8.63745 8.08752 8.48745C8.15002 8.36245 8.06565 8.2687 7.93127 8.27495C7.90002 8.31245 7.83752 8.44058 7.80627 8.55933Z" fill="white" stroke="black" stroke-width="0.02"/>
<path d="M7.92505 8.26249C7.94067 8.31249 8.1063 8.47186 8.22505 8.35624C8.34692 8.24061 8.34692 8.06561 8.16567 8.00311C8.1188 8.00936 7.97192 8.17811 7.92505 8.26249Z" fill="white" stroke="black" stroke-width="0.02"/>
<path d="M8.16565 7.99999C8.20002 8.10311 8.31565 8.27499 8.52502 8.19686C8.7344 8.11561 8.64377 7.85311 8.5469 7.79999C8.4069 7.84002 8.27697 7.90925 8.16565 8.00311V7.99999Z" fill="white" stroke="black" stroke-width="0.02"/>
<path d="M8.5469 7.79998C8.53128 7.8906 8.5469 8.13123 8.8344 8.1281C9.11878 8.12185 9.04065 7.78748 8.96565 7.7406C8.85003 7.7406 8.65315 7.74373 8.5469 7.8031V7.79998Z" fill="white" stroke="black" stroke-width="0.02"/>
<path d="M8.97816 7.75C8.94691 7.82188 8.87503 8.27188 9.43441 8.14688C9.50628 8.13125 9.69378 7.71563 8.97816 7.75313V7.75Z" fill="white" stroke="black" stroke-width="0.02"/>
<path d="M9.28441 7.7937C9.22816 7.84995 9.37191 8.30308 9.75316 8.22808C10.1282 8.14995 9.81253 7.7187 9.28441 7.79058V7.7937Z" fill="white" stroke="black" stroke-width="0.02"/>
<path d="M9.6063 7.86249C9.5438 7.98749 9.63755 8.35624 10.1032 8.35624C10.525 8.35624 10.0813 7.86874 9.6063 7.86249Z" fill="white" stroke="black" stroke-width="0.02"/>
<path d="M9.9719 7.96872C9.94065 8.0406 9.90627 8.43122 10.4563 8.4656C10.8531 8.4906 10.7563 7.92497 9.9719 7.96872Z" fill="white" stroke="black" stroke-width="0.02"/>
<path d="M10.5625 8.13434C10.4969 8.25621 10.425 8.55621 11.0281 8.58121C11.4125 8.59684 11.175 8.14371 10.5656 8.13434H10.5625Z" fill="white" stroke="black" stroke-width="0.02"/>
<path d="M11.0657 8.22809C10.9782 8.34684 11.0438 8.58434 11.2688 8.62809C11.5501 8.68434 11.5907 8.41871 11.3969 8.29059C11.2032 8.16559 11.0657 8.22809 11.0657 8.22809Z" fill="white" stroke="black" stroke-width="0.02"/>
<path d="M11.3438 8.28125C11.2782 8.39688 11.3157 8.66875 11.7438 8.66875C11.8313 8.66875 12.1688 8.325 11.3407 8.28438L11.3438 8.28125ZM8.03442 13.5312C8.20018 13.5313 8.35915 13.4654 8.47637 13.3482C8.59358 13.231 8.65942 13.072 8.65942 12.9062C8.65942 12.7405 8.59358 12.5815 8.47637 12.4643C8.35915 12.3471 8.20018 12.2812 8.03442 12.2812C7.86866 12.2812 7.70969 12.3471 7.59248 12.4643C7.47527 12.5815 7.40942 12.7405 7.40942 12.9062C7.40942 13.072 7.47527 13.231 7.59248 13.3482C7.70969 13.4654 7.86866 13.5312 8.03442 13.5312Z" fill="white" stroke="black" stroke-width="0.02"/>
<path d="M12.6281 4.4281C12.5607 4.50329 12.5039 4.58741 12.4594 4.6781C12.25 5.3031 12.8094 5.77185 13.1344 6.44997C13.2681 6.75513 13.3222 7.08923 13.2916 7.42099C13.261 7.75274 13.1467 8.07131 12.9594 8.34685C12.8219 8.5281 12.8625 8.58122 12.6844 8.7656C12.6156 8.83747 12.5406 8.9281 12.5656 9.18435C12.6781 9.14372 12.8375 9.24685 12.8688 9.3406C12.95 9.29685 13.0625 9.31247 13.1031 9.36247C13.2406 9.29997 13.3531 9.33122 13.475 9.45622C13.5781 9.44372 13.6938 9.45622 13.7969 9.57185C13.8531 9.45935 13.9656 9.4156 14.0469 9.44372C14.0375 9.29685 14.1813 9.19372 14.3094 9.24997C14.2994 9.20872 14.3006 9.16553 14.3129 9.12491C14.3253 9.08428 14.3483 9.04771 14.3795 9.01899C14.4108 8.99027 14.4492 8.97046 14.4907 8.96162C14.5322 8.95278 14.5754 8.95523 14.6156 8.96872C14.7625 8.85622 15.0531 8.84685 15.1969 9.0156C14.9375 8.94372 14.9469 9.21872 14.7281 9.19372C14.7844 9.3531 14.6406 9.44685 14.4969 9.49997C14.5906 9.45622 14.6906 9.4031 14.7219 9.45935C14.8031 9.38747 14.9625 9.4156 15.0031 9.44997C15.1094 9.41872 15.2125 9.44372 15.2594 9.57185C15.4063 9.65935 15.5031 9.88435 15.3969 10.0531C15.3656 9.8781 15.2438 9.88435 15.1969 9.81247C15.0844 9.8531 14.9719 9.8531 14.9375 9.78122C14.875 9.84372 14.6563 9.9031 14.5625 9.80622C14.525 9.94997 14.4 10.0718 14.2531 10.0718C14.2938 10.1843 14.1813 10.375 14.0938 10.4718C14.2313 10.5437 14.1875 10.7062 14.1563 10.8031C14.3688 10.8343 14.1875 11.0218 14.5531 11.1406C14.375 11.1968 14.0281 11.1406 13.9813 10.9218C13.8031 10.9156 13.6844 10.7375 13.6906 10.5531C13.5531 10.425 13.5344 10.2406 13.7219 10.1093C13.5625 10.1593 13.4719 9.89997 13.2406 10.0062C13.125 10.0593 12.8188 9.96872 12.8219 9.86247C12.775 9.9406 12.4781 9.90935 12.4406 9.77185C12.3438 9.82497 12.1188 9.73747 12.1219 9.6031C11.9969 9.65935 11.8281 9.55935 11.8375 9.43122C11.7188 9.4156 11.7063 9.30935 11.7125 9.22185C11.6094 9.17185 11.6375 9.07185 11.6813 8.9531C11.6063 8.87185 11.6375 8.75935 11.6938 8.6531C11.6156 8.57185 11.6313 8.4781 11.6531 8.36247C11.2688 8.33122 10.7844 8.23747 9.675 7.89685C8 7.38122 7.55 8.5906 7.91875 9.34685C8.34688 10.2218 7.87188 10.4093 8.01563 11.0593C8.17188 11.0906 8.25 11.2218 8.24063 11.3593C8.33438 11.3625 8.39688 11.4468 8.36563 11.6093C8.40808 11.6024 8.45156 11.6052 8.49273 11.6177C8.53391 11.6301 8.57167 11.6519 8.60313 11.6812C8.65938 11.575 8.84688 11.55 8.94063 11.6718C9.15 11.6562 9.25625 11.8281 9.24688 12.0343C9.29733 12.1289 9.31973 12.2359 9.31142 12.3427C9.30312 12.4496 9.26446 12.5519 9.2 12.6375C9.2125 12.5531 9.2 12.4343 9.19688 12.3593C9.1875 12.2281 9.00313 12.2 9.02188 12.0906C8.92813 12.1 8.83438 12.0468 8.80313 11.975C8.77523 11.999 8.74154 12.0155 8.70538 12.0226C8.66922 12.0297 8.63183 12.0273 8.59688 12.0156C8.70313 12.0625 8.79063 12.2562 8.75625 12.3843C8.8125 12.4812 8.8 12.6593 8.73438 12.7343C8.70313 12.8906 8.57813 12.9468 8.42188 12.8781C8.5125 12.8218 8.54375 12.7218 8.54063 12.6375C8.4879 12.5848 8.45576 12.5149 8.45 12.4406C8.29375 12.4656 8.075 12.3312 8.0375 12.2781C7.95516 12.2781 7.87364 12.2944 7.7976 12.326C7.72157 12.3576 7.65253 12.4039 7.59445 12.4623C7.53638 12.5206 7.4904 12.5899 7.45918 12.6661C7.42795 12.7423 7.41209 12.8239 7.4125 12.9062C7.39375 12.7781 7.23125 12.65 7.25313 12.5406C7.15625 12.2437 7.29375 11.9656 7.6875 11.9093C7.6375 11.7968 7.80625 11.6812 7.74375 11.5531C7.61825 11.3249 7.46386 11.1137 7.28438 10.925C7.42188 10.6906 7.37813 10.3781 7.3 10.1843C7.18438 9.90622 7.075 9.97497 6.66563 10.425C5.99688 11.1593 5.10313 10.9562 4.31563 11.4406C4.10625 11.5656 3.89688 11.6156 4.12188 11.3906C4.34688 11.1656 4.94063 10.9406 5.32813 10.7468C6.05313 10.3843 6.66563 9.78122 6.90625 8.60622C7.47188 5.84372 9.5625 6.75622 10.8813 7.26872C12.1219 7.7531 11.8969 6.65935 11.2688 5.99685C10.5125 5.20622 10.6656 4.58122 11.0188 4.08122C11.6531 3.99372 12.875 4.2156 12.6281 4.4281Z" fill="white" stroke="black" stroke-width="0.02"/>
<path d="M14.8719 11.2125C14.9624 11.2125 15.052 11.1947 15.1356 11.16C15.2192 11.1254 15.2951 11.0746 15.3591 11.0107C15.4231 10.9467 15.4739 10.8707 15.5085 10.7871C15.5431 10.7035 15.561 10.6139 15.561 10.5234C15.561 10.4329 15.5431 10.3433 15.5085 10.2597C15.4739 10.1761 15.4231 10.1002 15.3591 10.0362C15.2951 9.97219 15.2192 9.92143 15.1356 9.8868C15.052 9.85217 14.9624 9.83435 14.8719 9.83435C14.6896 9.83435 14.5147 9.90678 14.3858 10.0357C14.2568 10.1646 14.1844 10.3395 14.1844 10.5219C14.1844 10.7042 14.2568 10.8791 14.3858 11.008C14.5147 11.1369 14.6896 11.2094 14.8719 11.2094V11.2125Z" fill="white" stroke="black" stroke-width="0.02"/>
<path d="M12.2438 4.45935C12.0875 5.13748 12.2188 5.44373 12.4438 5.7406C12.9094 6.35623 13.2813 7.75935 12.75 8.6781" stroke="black" stroke-width="0.02"/>
<path d="M13.0469 7.88438C13.1094 7.8625 13.2344 7.78437 13.2594 7.65312M13.0969 7.59062C13.1156 7.475 13.2969 7.425 13.3 7.3M13.1 7.1375C13.0875 7.01562 13.2813 6.90625 13.2531 6.7875M12.9937 6.70312C12.9781 6.63437 13.1562 6.50625 13.1062 6.39687M12.8625 6.27812C12.825 6.20312 12.9469 6.11563 12.8938 6.03438M12.6687 5.94063C12.6562 5.89063 12.7313 5.775 12.6906 5.70625M12.475 5.54375C12.4906 5.52187 12.5563 5.475 12.5312 5.41563M12.3438 5.25C12.3688 5.2375 12.4469 5.2125 12.4375 5.15625" stroke="black" stroke-width="0.02" stroke-linecap="round"/>
<path d="M8.31248 12.8406C8.15623 12.7844 7.9531 12.8625 7.91248 13M8.03435 13.125C8.0531 12.9875 8.26248 12.9282 8.32498 12.9907C8.19373 12.9188 8.1281 13.1782 8.24685 13.1844M9.3281 9.94065C9.23435 9.99065 9.2031 10.1657 9.3281 10.3M9.47185 9.98127C9.40623 10.0375 9.40935 10.2063 9.50935 10.2469C9.42498 10.1844 9.50935 10.0813 9.57185 10.0781C9.63123 10.075 9.67185 10.1469 9.59685 10.2188M15.1281 10.3813C14.9031 10.3188 14.7219 10.5813 14.9281 10.8157C14.9219 10.5907 15.0843 10.4406 15.2812 10.4813M15.1875 10.6375C15.1651 10.6375 15.1436 10.6464 15.1278 10.6622C15.112 10.6781 15.1031 10.6995 15.1031 10.7219C15.1031 10.7657 15.1406 10.8094 15.2031 10.8094C15.2437 10.8094 15.2781 10.7625 15.2781 10.725M15.9843 5.69377C16.0218 5.83127 16.2093 5.89065 16.3593 5.85627M16.3593 5.76877C16.2437 5.7719 16.1468 5.66252 16.1531 5.5719C16.1531 5.64065 16.3093 5.6719 16.3593 5.62815" stroke="black" stroke-width="0.02" stroke-linecap="round" stroke-linejoin="round"/>
<path d="M8.37186 10.3656C8.34061 10.2844 8.46561 10.2031 8.47186 10.1281C8.47499 10.05 8.61561 9.9906 8.76249 10.1344M8.69374 9.2781L8.61561 9.3156M8.97186 9.7156C8.93749 9.7156 8.86561 9.7156 8.82811 9.68748M8.82811 9.86873C8.80311 9.88435 8.74061 9.90623 8.70311 9.9156M7.44999 12.3C7.44374 12.3719 7.51874 12.4781 7.55624 12.5093M7.76249 12.1281C7.74034 12.163 7.72534 12.202 7.71836 12.2428C7.71139 12.2835 7.71258 12.3253 7.72186 12.3656M8.36249 12.3656C8.29061 12.3187 8.33749 12.1969 8.33124 12.1156C8.32186 12.0344 8.41561 11.9062 8.59686 12.0156M7.68749 11.9062C7.75936 11.8937 7.83436 11.8969 7.88436 11.9187M8.60311 11.6781C8.57796 11.7153 8.56288 11.7584 8.55936 11.8031M8.94374 11.6687C8.88749 11.6687 8.83749 11.7094 8.81249 11.75M8.16249 9.60935C8.22499 9.63123 8.39374 9.73435 8.39999 9.8406M8.84686 9.08435C8.64999 9.08123 8.57186 8.88123 8.72186 8.88123M9.19999 9.35623C9.12499 9.38748 9.15936 9.51873 9.26874 9.58435M8.72811 10.6187C8.69061 10.5687 8.74061 10.4312 8.86561 10.4719M9.02186 12.0875C9.03124 11.9625 9.18436 11.8937 9.24686 12.0312M8.44999 12.4375C8.44061 12.3031 8.51249 12.2594 8.56874 12.25C8.63124 12.2437 8.71561 12.2937 8.75624 12.3812M7.25311 12.5375C7.25936 12.4562 7.32811 12.3718 7.39999 12.3843M14.6187 8.9656C14.5656 9.0031 14.5312 9.17498 14.7281 9.1906M14.3125 9.24998C14.3125 9.26873 14.3375 9.29685 14.3531 9.31248M15.2594 9.57185C15.2094 9.53123 15.0719 9.69685 15.1969 9.81248M13.9781 10.925C13.95 10.8094 14.0562 10.7781 14.1594 10.8031M13.7219 10.1094C13.7844 10.0719 13.8469 10.025 13.9219 10.0062M13.6906 10.5531C13.6906 10.4594 13.7406 10.375 13.7844 10.3531M14.0469 9.44373C14.0422 9.54494 14.0683 9.64521 14.1219 9.73123M15.0031 9.44998C14.9437 9.46873 14.8937 9.4906 14.8719 9.5406M14.9375 9.78123C14.9687 9.75623 15 9.7281 15.0125 9.70935M16.4594 6.2656C16.4594 6.3781 16.3187 6.4406 16.225 6.36873M16.7656 6.27185C16.8281 6.31873 17.0437 6.27185 16.9937 6.14685M16.5 6.91873C16.4415 6.90159 16.3887 6.86924 16.3469 6.82498M16.9437 6.58435C16.8719 6.59998 16.8219 6.58435 16.7875 6.56873M15.8 6.98748C15.8703 6.98444 15.9394 6.96744 16.0031 6.93748M15.6875 6.27498C15.6344 6.26873 15.5937 6.2781 15.5656 6.29998M16.4969 6.47185C16.4813 6.53366 16.4488 6.58992 16.4031 6.63435" stroke="black" stroke-width="0.02" stroke-linecap="round"/>
<path d="M15.5469 6.64999C15.6469 6.60624 15.7719 6.94686 16.0156 6.82811M16.0344 6.47186C16.0005 6.52421 15.9811 6.58459 15.9781 6.64686" stroke="black" stroke-width="0.02" stroke-linecap="round" stroke-linejoin="round"/>
<path d="M11.2188 5.94998C11.25 5.94373 11.3094 5.93435 11.3219 5.89373M7.07812 9.69685C7.2 9.7656 7.28438 9.88123 7.23438 10.0531M12.6125 5.5781C12.65 5.6031 12.7844 5.6031 12.8625 5.5781M12.9563 5.65935C12.9563 5.7156 12.9719 5.9281 12.8625 5.97185M12.9031 5.94685C13.0031 5.9781 13.2031 5.9656 13.2688 5.78123M13.1281 5.93748C13.1813 6.01873 13.1969 6.17498 13.0406 6.25935M13.1656 6.07185C13.2844 6.10935 13.5531 6.1156 13.525 5.88435M13.4312 6.07185C13.5156 6.18123 13.8687 6.3156 13.8125 6.08123M13.1094 6.39373C13.2438 6.4281 13.4375 6.33435 13.3594 6.09373M13.7437 6.2156C13.7625 6.30935 14.2125 6.4031 14.1531 6.19373M14.0688 6.3156C14.1531 6.50935 14.6 6.49373 14.4594 6.23435M14.3875 6.43748C14.475 6.54373 14.8719 6.48123 14.7125 6.21873M14.7094 6.43123C14.9563 6.61873 15.2406 6.3531 14.9281 6.15935M15.0719 6.37185C15.2906 6.54373 15.5563 6.23123 15.3656 6.14373M13.3531 6.29998C13.4219 6.31873 13.5656 6.31248 13.6 6.18748M13.5437 6.27185C13.5375 6.4531 13.8438 6.52185 13.9219 6.31248M13.8188 6.4281C13.875 6.54998 14.1469 6.59685 14.1906 6.42498M14.1469 6.50623C14.1906 6.62498 14.425 6.61248 14.4906 6.48748M14.4031 6.56873C14.475 6.72498 14.775 6.72498 14.8406 6.49685M14.7906 6.59685C14.9062 6.66873 15.1562 6.6406 15.1344 6.4156M15.0875 6.5781C15.2625 6.71873 15.5062 6.58123 15.3844 6.34373M15.375 6.76248C15.4688 6.74685 15.5156 6.56248 15.4187 6.51248M13.2312 6.79373C13.4187 6.6906 13.4594 6.51248 13.325 6.3406M13.3938 6.61873C13.5156 6.6906 13.7438 6.61248 13.7844 6.43748M13.5594 6.63748C13.6281 6.72498 13.6406 6.83435 13.55 6.93435M13.6125 6.74998C13.8281 6.61873 14.0938 6.86248 13.8938 7.01248M13.8625 6.73748C13.9094 6.72498 13.9937 6.63748 14 6.53748M13.9563 6.83123C14.0469 6.73748 14.65 6.92498 14.2688 7.12185M14.2375 6.5781C14.3563 6.62185 14.4156 6.78748 14.2375 6.84373M14.3938 6.98123C14.5188 6.84685 14.925 6.93123 14.7781 7.09998M14.6812 6.9281C14.7531 6.68123 15.1844 6.83435 15.0437 6.93435M14.5938 6.68435C14.6063 6.73123 14.6094 6.84998 14.5312 6.9156M14.9563 6.63435C14.965 6.66204 14.9672 6.69135 14.9629 6.72006C14.9586 6.74876 14.9478 6.77609 14.9312 6.79998M15.2281 6.63748C15.2531 6.68123 15.2906 6.7656 15.2031 6.83435M11.7844 4.78748C11.7875 5.0156 11.8688 5.16873 12.1781 5.02498M11.8813 5.05935C11.725 5.2656 11.9 5.48748 12.2031 5.2656M11.4062 5.15623C11.6156 5.38123 11.9906 5.21873 11.75 4.87498M12 5.34998C11.9625 5.57185 12.1437 5.6156 12.2906 5.5156M11.2219 5.19373C11.2594 5.4156 11.4875 5.5906 11.7094 5.45623M11.4937 5.49998C11.4937 5.81873 11.9313 5.8531 12.0344 5.52498M11.8781 5.72498C12.0188 6.0156 12.325 5.89685 12.425 5.72185M11.5688 5.26248C11.625 5.4031 11.7375 5.55935 11.9969 5.44373M10.7625 5.19373C10.8 5.30935 11.0094 5.44998 11.25 5.28748M10.9125 5.34373C10.7813 5.53123 11.0375 5.70935 11.35 5.4281M11.0656 5.57498C11.1156 5.8406 11.2219 6.05623 11.5969 5.71248M11.4094 5.84998C11.5469 6.01873 11.7562 6.12185 11.9531 5.83748" stroke="black" stroke-width="0.02"/>
<path d="M12.1032 5.89996C12.0907 6.10309 12.1282 6.20309 12.2875 6.19371C12.4125 6.18746 12.5282 6.09059 12.5969 5.98434M12.2594 6.19371C12.2532 6.42496 12.4344 6.60621 12.775 6.37184M12.4 6.46559C12.3375 6.63746 12.5282 6.91871 12.9063 6.77496M11.5969 6.00621C11.575 6.22496 11.7782 6.37496 12.1094 6.09059M11.7594 6.24996C11.7719 6.43121 11.9782 6.64996 12.2782 6.33434M11.9032 6.48121C11.8813 6.79059 12.1657 6.87809 12.4063 6.64059M11.475 6.24996C11.5375 6.25621 11.5907 6.19996 11.6219 6.15621M11.6094 6.47496C11.6657 6.48746 11.7657 6.43746 11.7969 6.37184M11.7532 6.84059C11.8157 6.91246 12.0344 6.86246 12.0625 6.76871M11.9938 6.83746C12.1125 7.11871 12.4344 7.10934 12.5688 6.79059M12.5063 6.90309C12.5688 7.06871 12.7219 7.17184 12.9719 7.11559M12.6282 7.07184C12.4875 7.29996 12.6719 7.57184 12.9875 7.30621M12.7063 7.41559C12.6907 7.55934 12.8219 7.72496 13.0032 7.74371M12.1094 6.99371C12.0625 7.31871 12.2969 7.47496 12.5875 7.29996M11.7688 7.14996C11.8438 7.20934 11.9813 7.21559 12.1125 7.16871M12.2688 7.35621C12.1938 7.63121 12.475 7.82809 12.7157 7.52184M11.875 7.19371C11.8813 7.33434 12.0157 7.48746 12.2532 7.44371M12.9188 7.72496C12.7563 7.83121 12.725 8.02496 12.95 8.14996M12.525 7.66871C12.5313 7.83121 12.6094 7.92496 12.7907 7.94059M12.2875 7.58434C12.0438 7.80309 12.2813 8.06246 12.5688 7.84371M12.4563 7.91246C12.375 8.16559 12.675 8.31871 12.8375 8.06246M11.9563 7.37496C11.8688 7.62496 11.9813 7.78746 12.1875 7.77184M11.6375 7.32496C11.65 7.47496 11.7782 7.52809 11.925 7.49371M11.7313 7.48121C11.6219 7.69059 11.7875 7.80309 12.0063 7.72496M12.6625 8.19371C12.6313 8.32496 12.65 8.41871 12.8469 8.46559M12.6782 8.38121C12.4407 8.48746 12.4188 8.71871 12.6032 8.86559M12.4844 8.12496C12.456 8.14982 12.4339 8.1811 12.42 8.2162C12.4061 8.2513 12.4007 8.28921 12.4044 8.32679C12.4081 8.36436 12.4206 8.40053 12.4411 8.43228C12.4615 8.46402 12.4892 8.49044 12.5219 8.50934M11.4282 7.39059C11.2938 7.52496 11.4219 7.89684 11.725 7.69371M12.2157 7.85934C12.0282 8.01559 12.1125 8.29059 12.4188 8.21559M11.9094 7.74684C11.8125 8.01871 11.9032 8.11559 12.1219 8.11871" stroke="black" stroke-width="0.02"/>
<path d="M11.2281 7.37811C11.1982 7.39866 11.1729 7.42533 11.1541 7.45638C11.1352 7.48742 11.1232 7.52212 11.1187 7.55817C11.1143 7.59422 11.1176 7.6308 11.1284 7.66549C11.1391 7.70018 11.1572 7.73217 11.1813 7.75936C11.2531 7.84061 11.3906 7.80311 11.4313 7.69999M10.8813 7.26874C10.6969 7.50624 10.8813 7.78749 11.1438 7.70624M11.8719 7.97499C11.6844 8.04061 11.5375 8.21249 11.6531 8.36561C11.725 8.45311 12.0219 8.46561 12.1063 8.12186M11.5313 7.75311C11.4219 7.90936 11.4563 8.05936 11.6563 8.13436M11.5188 8.04686C11.4 8.10936 11.325 8.18749 11.3531 8.32811M11.2563 7.79999C11.2125 7.98749 11.2656 8.10624 11.3813 8.16249M11.2531 8.02499C11.0719 8.01249 10.9781 8.08749 11.0406 8.26874M11.0563 8.06874C10.8781 8.00624 10.85 7.84999 10.9281 7.69374M10.9031 7.93124C10.7094 7.93749 10.6219 8.03436 10.6219 8.16561" stroke="black" stroke-width="0.02"/>
<path d="M10.6406 7.17812C10.5 7.2375 10.4531 7.42813 10.5063 7.53125C10.5594 7.63437 10.725 7.64375 10.825 7.575M10.25 7.02812C10.1219 7.17187 10.2688 7.45625 10.5 7.3875M9.91876 6.91563C9.80001 7.08438 9.93126 7.36563 10.2406 7.28438M10.2563 8.06875C10.225 7.86875 10.4344 7.7375 10.6938 7.99687M10.5688 7.59062C10.532 7.62371 10.5034 7.665 10.4855 7.71114C10.4676 7.75728 10.4608 7.80699 10.4656 7.85625M9.59064 6.81875C9.45626 7.04375 9.61876 7.25 9.90314 7.16875M10.3344 7.37813C10.1469 7.56563 10.2094 7.75625 10.35 7.86562M10.2125 7.6C9.92814 7.60312 9.91251 7.93438 10.1438 8.0375M9.99689 7.26875C9.87814 7.35 9.84064 7.57188 10.0438 7.65938M9.98751 7.76562C9.86564 7.70938 9.72189 7.77812 9.73439 7.91875M9.80626 7.76875C9.69689 7.5125 9.38126 7.55625 9.40939 7.82188M9.89376 7.45C9.82814 7.4625 9.69064 7.50312 9.63751 7.60625M9.65626 7.15938C9.63113 7.18531 9.6128 7.21707 9.60293 7.25181C9.59305 7.28655 9.59193 7.3232 9.59967 7.35848C9.60741 7.39376 9.62376 7.42657 9.64727 7.45399C9.67077 7.48142 9.70071 7.50259 9.73439 7.51562M9.27189 6.75C9.24689 6.925 9.31564 7.00938 9.53439 6.99375M9.34689 6.97188C9.26564 7.18125 9.37814 7.275 9.59689 7.2625M9.39689 7.23125C9.26876 7.38437 9.35626 7.54687 9.48126 7.61562M9.33751 7.425C9.10626 7.39375 9.07189 7.6625 9.15001 7.78438" stroke="black" stroke-width="0.02"/>
<path d="M9.15311 6.73438C9.01249 6.79688 8.93124 6.97187 9.00624 7.07812C9.08436 7.1875 9.23749 7.15313 9.31874 7.09688M9.05624 7.12813C8.93749 7.30625 9.04374 7.44062 9.16874 7.49062" stroke="black" stroke-width="0.02"/>
<path d="M8.6031 6.71246C8.50935 6.80934 8.56873 7.00621 8.7906 7.01246C8.97498 7.01246 9.0656 6.84371 9.00935 6.72184M8.75935 7.01246C8.68748 7.17184 8.73435 7.34684 9.00935 7.31871M9.12185 7.56871C8.95623 7.49371 8.7281 7.56871 8.82498 7.77184M8.8031 7.28434C8.73435 7.38121 8.75623 7.51871 8.83435 7.60309M8.7906 7.54059C8.6781 7.56246 8.56873 7.62184 8.63435 7.79996M8.61873 7.65621C8.47498 7.61246 8.2906 7.71871 8.39998 7.86559M8.3781 7.72496C8.2531 7.70309 8.10623 7.83746 8.22498 7.96871M8.1781 7.85934C8.0656 7.89059 7.93123 8.01559 8.04998 8.11871M8.74685 7.22809C8.58435 7.29996 8.56873 7.48121 8.64373 7.61559M8.57498 6.89684C8.33435 6.99059 8.33748 7.30934 8.60623 7.40934M8.4906 7.33746C8.34685 7.42184 8.31873 7.58434 8.4156 7.68746M8.23748 6.77496C8.14373 6.80621 8.14998 7.10309 8.40623 7.09684M7.97185 6.87496C7.7781 7.00309 8.01248 7.32809 8.32498 7.09371M8.1531 7.17809C8.12498 7.30934 8.16248 7.45309 8.37498 7.47184M8.1656 7.35309C8.01248 7.40934 7.98435 7.72496 8.25935 7.74996M7.6781 7.06871C7.48123 7.24996 7.8406 7.40621 7.97185 7.14371M7.40623 7.36871C7.30935 7.48746 7.64685 7.79371 7.79685 7.28121M7.83123 7.27184C7.8406 7.39684 7.91248 7.46559 8.05935 7.47496M8.05935 7.59059C7.81873 7.62809 7.74373 7.92496 8.00935 7.99059M7.61873 7.55309C7.60935 7.66246 7.7281 7.75621 7.85935 7.73746M7.98123 7.98121C7.76248 8.03121 7.73435 8.31246 7.9281 8.29371M7.8281 8.55621C7.64685 8.50309 7.6406 8.28746 7.8031 8.20621" stroke="black" stroke-width="0.02"/>
<path d="M7.67812 8.36874C7.525 8.46249 7.58438 8.68124 7.66563 8.71249C7.74688 8.74374 7.8125 8.70624 7.82188 8.63749M7.80625 8.94999C7.825 9.05311 7.43438 9.01249 7.63438 8.68749M7.63438 8.96561C7.50313 9.17186 7.71562 9.34061 7.85 9.16249M7.65 9.21249C7.59688 9.37811 7.79688 9.49686 7.925 9.36874M7.21875 7.66874C7.14687 7.81561 7.50937 7.87186 7.53125 7.56561M7.11875 7.88749C7.04688 8.17811 7.59375 8.11874 7.45312 7.74374M7.46562 7.93749C7.50197 7.95451 7.54181 7.96276 7.58193 7.96156C7.62205 7.96037 7.66133 7.94976 7.6966 7.93061C7.73187 7.91145 7.76215 7.88428 7.78499 7.85128C7.80784 7.81828 7.82261 7.78037 7.82812 7.74061M7.6625 7.94686C7.67241 7.9879 7.69054 8.0265 7.71578 8.06034C7.74103 8.09417 7.77286 8.12254 7.80937 8.14374M7.4 8.02186C7.375 8.17811 7.53438 8.30936 7.7125 8.29686M7.42812 8.17499C7.34062 8.29686 7.3125 8.52811 7.59062 8.54374M7 8.21874C6.95625 8.34374 7.21875 8.47186 7.36875 8.26561M6.91875 8.53749C6.89687 8.63124 7.13125 8.75624 7.2625 8.35624M7.15938 8.55936C7.21563 8.65936 7.40625 8.74061 7.52187 8.54374M7.33437 8.66561C7.28437 8.80624 7.41875 8.93749 7.57812 8.89999M7.03125 8.63436C7 8.83436 7.23437 8.94999 7.375 8.84686M6.87813 8.72186C6.80938 8.97811 7.14062 9.07499 7.26562 8.88124M7.18125 8.95936C7.19375 9.10311 7.41875 9.22811 7.59375 9.10936M6.77812 9.07811C6.7625 9.14374 7.03125 9.20936 7.07188 8.98436M6.93437 9.13749C6.99687 9.29999 7.21562 9.34061 7.34062 9.13749M7.26875 9.21874C7.3 9.37499 7.49375 9.45936 7.66875 9.35311M7.74062 9.41561C7.69687 9.61874 7.90937 9.78436 8.04062 9.67186M7.39687 9.37811C7.33437 9.60311 7.61562 9.73124 7.77187 9.60624M7.05937 9.26249C7.04375 9.47499 7.20937 9.59999 7.39687 9.50624M6.7 9.28749C6.64375 9.42186 6.94375 9.53436 7.08437 9.41874M6.51562 9.65936C6.59375 9.74686 6.85937 9.65936 6.88125 9.46249M6.80937 9.60624C6.90625 9.71874 7.1375 9.78124 7.22813 9.53749M7.14687 9.66249C7.14687 9.83749 7.45312 9.96249 7.55312 9.64374M7.91875 9.70624C7.8875 9.79061 7.95625 9.92499 8.09688 9.94061M7.6625 9.65311C7.64375 9.74686 7.78437 9.88436 7.93437 9.83124M7.9625 9.87186C7.92188 9.97499 7.95625 10.125 8.09688 10.1219M7.975 10.0656C7.86875 10.1531 7.9125 10.3125 8.06563 10.3156M7.92187 10.2156C7.77187 10.3156 7.825 10.5375 8.02188 10.525M7.46875 9.78124C7.46875 9.99999 7.74063 10.0312 7.79063 9.83124M7.6875 9.95624C7.64687 10.0875 7.75 10.2125 7.91563 10.175M7.71875 11.5125C7.75625 11.5656 7.90625 11.475 7.86562 11.3875C7.825 11.3 7.66562 11.3469 7.68437 11.4406M7.82812 11.35C7.84687 11.175 7.64063 11.1469 7.5875 11.3M7.6625 11.2094C7.71562 11.1219 7.5375 11 7.46562 11.1312M7.52812 11.0781C7.57812 10.95 7.37813 10.8906 7.3625 11.0094M7.31563 10.8406C7.34063 10.7781 7.56563 10.8156 7.47188 10.95M7.64375 11.1094C7.73125 11.0281 7.58125 10.8656 7.4875 10.9219M8.2375 11.3562C8.16875 11.3625 8.09688 11.4094 8.14688 11.5594C8.18438 11.6625 8.3375 11.6656 8.3625 11.6062" stroke="black" stroke-width="0.02"/>
<path d="M8.14061 11.4344C8.07186 11.3875 7.92186 11.4656 7.99061 11.6094M7.99061 11.6094C8.04061 11.7188 8.17186 11.6719 8.19061 11.6156M7.99061 11.6094C7.95936 11.6719 7.79061 11.7031 7.75311 11.6406M7.87186 11.4406C7.90936 11.4156 7.97499 11.4469 7.98749 11.4781M7.86249 10.4469C7.74374 10.525 7.81561 10.7594 7.99686 10.6969M7.82186 10.6375C7.72811 10.7094 7.81561 10.9375 7.98749 10.85M7.85311 10.85C7.78749 10.9156 7.84999 11.0937 8.01561 11.0594M7.82811 10.9406C7.79061 10.925 7.69686 10.9344 7.65624 10.9969M7.72186 10.1219C7.63436 10.2094 7.67811 10.3813 7.84061 10.3969M7.69061 10.3031C7.56561 10.3656 7.56561 10.6156 7.81561 10.625M7.68124 10.5844C7.60936 10.6406 7.64374 10.8594 7.82499 10.8313M7.73749 10.8219C7.71249 10.85 7.70624 10.9156 7.73124 10.9438M7.65936 10.7406C7.59686 10.7406 7.50936 10.7875 7.48749 10.8562M7.37186 10.6219C7.39374 10.5594 7.59374 10.5594 7.60936 10.75M7.62811 10.525C7.59999 10.5312 7.54686 10.5563 7.53436 10.6125M7.54061 9.93437C7.45624 10.0156 7.41561 10.2625 7.67499 10.3094M7.36561 10.4469C7.36561 10.3812 7.54686 10.3219 7.60936 10.4219M7.24999 10.0875C7.27499 10.1375 7.39999 10.2062 7.47499 10.15M6.59999 9.69375C6.59877 9.72267 6.60394 9.7515 6.61513 9.77819C6.62633 9.80489 6.64327 9.82878 6.66476 9.84818C6.68624 9.86758 6.71174 9.882 6.73944 9.89041C6.76713 9.89883 6.79634 9.90104 6.82499 9.89688C6.95936 9.88125 6.98749 9.76563 6.94686 9.6875M6.84686 9.90312C6.75624 10.0094 6.86561 10.1625 6.96561 10.1187M6.94686 9.825C6.99999 9.80625 7.17186 9.78125 7.22499 9.8625M6.38749 9.85625C6.34686 9.91875 6.59686 9.97813 6.68124 9.8625M6.59686 9.92188C6.58749 10.0031 6.62811 10.1406 6.83436 10.0813" stroke="black" stroke-width="0.02"/>
<path d="M6.86874 10.2063C6.89999 10.1375 6.74999 10.025 6.63124 10.15C6.51561 10.275 6.64999 10.4156 6.72186 10.3687M6.33436 9.9375C6.27186 10.0438 6.50624 10.2344 6.64061 10.0562" stroke="black" stroke-width="0.02"/>
<path d="M6.17811 10.1187C6.09374 10.2062 6.19999 10.3656 6.32499 10.3156C6.45311 10.2687 6.44061 10.1344 6.40936 10.1" stroke="black" stroke-width="0.02"/>
<path d="M6.01563 10.2812C5.94688 10.3437 6.01563 10.4875 6.10938 10.4875C6.20313 10.4875 6.26251 10.4156 6.24376 10.3187M6.40001 10.2687C6.38751 10.3625 6.52501 10.425 6.61563 10.3375M6.61563 10.1687C6.63126 10.15 6.62188 10.1156 6.60001 10.0969M5.86876 10.4031C5.79063 10.4656 5.96251 10.6406 6.06563 10.4812M6.47501 10.3719C6.42501 10.4187 6.50626 10.5437 6.58751 10.5062M6.20001 10.4594C6.21251 10.5437 6.38126 10.6094 6.48751 10.4781M6.29063 10.5437C6.26563 10.6 6.31876 10.6844 6.38438 10.675M7.89376 11.0437C7.83126 11.1656 8.03125 11.3094 8.175 11.1594M8.03751 11.225C8.00626 11.2906 8.04376 11.3844 8.10001 11.4187M7.85 11.3656C7.8625 11.3031 7.95 11.2469 8.02813 11.275M7.74688 11.2062C7.75625 11.15 7.82813 11.0969 7.88438 11.1125M12.5656 9.0656C12.3188 9.15623 12.1969 8.69685 12.4844 8.69373C12.3125 8.73123 12.1781 8.65935 12.1656 8.5656M12.3906 9.03435C12.3344 9.12498 12.4438 9.27185 12.5656 9.18435M12.5344 9.2031C12.4469 9.34373 12.75 9.55935 12.8719 9.33748M12.775 9.42185C12.775 9.55623 13.1656 9.6406 13.1094 9.37498M13.0719 9.51873C13.1656 9.67498 13.5094 9.6906 13.475 9.45623M13.3969 9.61873C13.4688 9.72498 13.8094 9.78748 13.7969 9.57185M12.025 8.29685C12.0719 8.42185 12.2375 8.4656 12.4188 8.3906M11.9188 8.38435C12.0344 8.45623 11.8688 8.78748 11.6969 8.6531M11.9219 8.5906C12.0469 8.64998 12.2 8.60623 12.2438 8.4281M11.8563 8.66248C12.0188 8.79998 11.7844 9.08123 11.6781 8.9531M11.9156 8.7656C11.9938 8.82185 12.1906 8.7906 12.2094 8.6406M12.1219 8.7656C12.1375 8.86248 12.2156 8.89998 12.3219 8.9031M11.8719 8.89998C11.9531 9.01248 12.1531 9.04373 12.2438 8.89685M12.1531 8.98123C12.1469 9.08748 12.2656 9.1781 12.3906 9.1531M11.7188 9.21873C11.8219 9.27185 11.9375 9.07185 11.8469 8.93748M11.8406 9.4281C11.9656 9.43435 11.9813 9.24685 11.8625 9.1406M12.125 9.59998C12.2313 9.57498 12.1969 9.34685 11.9438 9.3281M12.4438 9.76873C12.5438 9.7406 12.4625 9.48748 12.1844 9.5031M12.825 9.85935C12.8938 9.7531 12.6688 9.5781 12.4813 9.67185M13.0125 10.0031C13.1375 10.0406 13.225 9.70935 12.8281 9.76248M13.2438 10.0031C13.3531 9.97185 13.4313 9.7781 13.1125 9.8406M13.4875 10.0187C13.5813 10.0687 13.625 9.78435 13.3313 9.86248M11.8625 9.14373C11.9844 9.20935 12.175 9.13123 12.1563 8.9781M12.1094 9.10935C12.15 9.18123 12.1344 9.32185 12.0563 9.35935M12.1188 9.2781C12.2 9.30935 12.3094 9.28123 12.375 9.1531M12.2625 9.2781C12.2844 9.33435 12.2938 9.44685 12.2406 9.5031M12.2813 9.37498C12.3719 9.42498 12.475 9.35935 12.5188 9.2656M12.4625 9.34685C12.525 9.38748 12.5844 9.57498 12.475 9.6531M12.5375 9.5656C12.6125 9.5656 12.725 9.5656 12.7969 9.47185M12.7438 9.52498C12.8125 9.54373 12.8938 9.65623 12.8656 9.75623M12.8688 9.72185C12.9469 9.71248 13.0781 9.65935 13.1156 9.5656M13.0781 9.6281C13.1128 9.64852 13.1407 9.67862 13.1585 9.71472C13.1763 9.75081 13.1831 9.79131 13.1781 9.83123M13.1781 9.7656C13.2563 9.76248 13.325 9.72185 13.3438 9.63748M13.325 9.69373C13.3813 9.71248 13.45 9.7781 13.4531 9.8531M13.4438 9.80623C13.5 9.79685 13.5406 9.76248 13.5781 9.70623M13.7313 9.69685C13.8031 9.76873 13.7063 10.0094 13.5563 9.9656M12.1844 4.81873C12.0375 4.90935 11.6125 4.88123 11.8219 4.53123M12.2281 4.58123C11.9313 4.69998 11.5719 4.47185 11.9469 4.2281M11.8469 4.14685C11.6031 4.14685 11.4375 4.5406 11.7656 4.6781M10.8938 4.31248C10.8313 4.43748 11.0594 4.57498 11.2156 4.44998C11.3375 4.3531 11.3281 4.0906 11.2563 3.9906M10.7688 4.60935C10.6875 4.87498 11.2813 4.8906 11.1875 4.46873M10.7375 5.00623C10.7563 5.20623 11.3031 5.1406 11.1281 4.73435M11.1906 4.62185C11.2344 4.68435 11.3563 4.78748 11.5625 4.7656M11.2813 4.34373C11.3 4.4156 11.4219 4.46873 11.5781 4.4156M5.79376 10.4625C5.65313 10.5594 5.86876 10.7156 5.94688 10.5437M5.68438 10.5375C5.54688 10.6375 5.75938 10.7937 5.83751 10.6219M5.56876 10.6125C5.43126 10.7125 5.64376 10.8656 5.72501 10.6969M5.45001 10.6812C5.31563 10.7531 5.47188 10.925 5.60626 10.775M5.31876 10.7469C5.18438 10.8187 5.34063 10.9906 5.47501 10.8406M5.99376 10.5406C5.99063 10.6437 6.18438 10.6844 6.25626 10.5312M6.11563 10.6344C6.05313 10.7125 6.16563 10.8062 6.22501 10.7719M5.85626 10.6219C5.85001 10.7094 6.01876 10.7594 6.10001 10.6625M5.94688 10.7125C5.89376 10.7812 6.00001 10.8781 6.07188 10.85M5.74376 10.7C5.75001 10.7687 5.84688 10.8469 5.95001 10.8031M5.80626 10.7937C5.76563 10.8281 5.78438 10.9125 5.84063 10.9406M5.59688 10.7844C5.58126 10.8469 5.68751 10.9594 5.79688 10.8875M5.61876 10.8562C5.55626 10.9094 5.56251 10.9844 5.64376 10.9969M5.46251 10.85C5.45626 10.8937 5.50938 10.9625 5.57813 10.9531M5.11876 10.8469C5.05626 10.8812 5.21876 11.0562 5.32188 10.8937M4.95938 10.9187C4.87813 10.9562 5.07813 11.15 5.16876 10.9531M5.48126 10.9125C5.41876 10.925 5.37813 11.0156 5.43126 11.0531M5.27501 10.9437C5.26876 10.9812 5.34688 11.0375 5.40938 11.0187M5.22501 10.9594C5.16251 10.9969 5.19688 11.1031 5.26876 11.0875M5.00938 11.0312C4.95313 11.0719 4.99376 11.1562 5.07188 11.1375M5.11251 11.025C5.11251 11.0469 5.16563 11.0812 5.20626 11.0656M4.81563 10.9875C4.74376 11.0187 4.75001 11.1937 4.98751 11.1M4.65626 11.0594C4.55626 11.1062 4.59063 11.2406 4.80626 11.1125M4.82188 11.1219C4.79688 11.1437 4.76876 11.2312 4.86876 11.1969M4.64376 11.1656C4.60313 11.2 4.62813 11.275 4.71563 11.2469M4.43438 11.1781C4.36251 11.2187 4.52188 11.275 4.62813 11.1625M4.48438 11.2281C4.45313 11.2594 4.45313 11.3562 4.53438 11.3219M4.27813 11.2687C4.23126 11.3031 4.30938 11.3531 4.46563 11.2844M4.34063 11.3187C4.28126 11.3656 4.28751 11.425 4.37188 11.4062M4.17188 11.3437C4.10938 11.4031 4.20001 11.4406 4.30938 11.3937M4.17188 11.4094C4.06563 11.4562 4.11251 11.5469 4.17813 11.5125M7.73438 11.7156C7.70938 11.7687 7.79063 11.8125 7.86876 11.8C7.94063 11.7906 8.01251 11.7281 7.95626 11.6437M7.95938 11.75C8.03438 11.8062 8.16251 11.7406 8.16251 11.6562" stroke="black" stroke-width="0.02"/>
<path d="M12.4 3.21874C12.0781 3.06249 11.4094 2.76249 11.2188 3.00311C11.3937 2.93124 11.9 3.00624 12.3188 3.39374L12.4 3.22186V3.21874Z" fill="white" stroke="black" stroke-width="0.02"/>
<path d="M12.5937 3.20311C12.2219 2.76873 12 2.86561 11.7344 2.71873C11.4844 2.57811 11.0844 2.54998 11.0062 2.77186C11.3719 2.59373 11.7093 2.86561 11.9187 2.90311C12.2 2.94686 12.3625 3.16873 12.4468 3.26873L12.5937 3.20623V3.20311ZM13.9968 3.14686C13.8031 2.70623 13.3906 2.82186 13.2094 2.63436C12.9437 2.35936 12.2719 2.10311 11.9906 2.29373C12.6031 2.26248 12.8656 2.71561 13.1906 2.87498C13.425 2.98748 13.675 3.22811 13.9968 3.14686Z" fill="white" stroke="black" stroke-width="0.02"/>
<path d="M13.2719 3.10001C12.9437 2.69063 12.4344 2.32813 12.2031 2.46251C12.5094 2.48126 12.6062 2.69376 12.8218 2.83126C13.0406 2.96563 12.9437 3.16563 13.2719 3.10001ZM11.7031 3.82501C11.3594 3.69688 10.6812 3.63126 10.3656 4.02501C10.8906 4.11563 11.6781 4.06563 11.7031 3.82501Z" fill="white" stroke="black" stroke-width="0.02"/>
<path d="M11.6375 3.97813C11.2937 3.81563 11.0219 4.04063 10.6969 4.00938C10.0781 3.94688 9.63437 3.98438 9.57812 4.28438C9.93125 3.96563 10.5281 4.22813 10.7688 4.1625C11.0094 4.1 11.9031 4.15313 12.1844 4.275C12.0406 4.09688 11.8156 4.05 11.6375 3.97813ZM12.725 3.05625C12.6438 2.79063 12.65 2.50938 13.0469 2.52813C12.9469 2.40313 12.5781 2.34063 12.5156 2.80625C12.0781 2.48438 11.5969 2.42813 11.5094 2.70625C11.7344 2.5125 12.0844 2.65313 12.5031 3.12813C12.5728 3.09265 12.6477 3.06839 12.725 3.05625Z" fill="white" stroke="black" stroke-width="0.02"/>
<path d="M12.1219 3.42189C11.8719 3.25939 11.5344 3.00001 12.125 2.89376C11.875 2.75939 11.5 2.81876 11.5406 3.28439C10.8656 3.01251 10.3812 3.10314 10.2781 3.37501C10.1656 3.67189 10.5844 3.83751 10.6562 3.64689C10.5812 3.67814 10.3187 3.59064 10.4562 3.42189C10.5937 3.25314 11.2937 3.38126 11.9594 3.72814C12.1469 3.82189 12.7812 3.80939 12.1219 3.42189Z" fill="white" stroke="black" stroke-width="0.02"/>
<path d="M11.9438 3.86562C11.7531 3.47187 11.1281 3.82813 11.0031 3.44688C10.8281 4.00625 11.8906 3.69687 11.9438 3.86562ZM15.9156 4.29063C16.0469 4.35625 16.1594 4.25313 15.9594 4.175C16.0906 4.2375 16.2063 4.14062 16.0063 4.05937C16.1375 4.12187 16.25 4.025 16.05 3.94375C15.9969 3.99687 15.9219 4.19375 15.9156 4.29063ZM15.9844 3.53437C16.275 3.22812 15.9625 3.125 16.3156 2.80938C16.6063 2.55313 16.3719 2.38125 16.6438 2.18438C16.7344 2.11875 16.925 1.99062 16.9438 1.85938C17.0594 2.15 16.5813 2.19063 16.6125 2.65625C16.6344 2.95312 16.4313 2.92813 16.3563 3.43125C16.3406 3.53438 16.2656 3.76875 15.9844 3.53437Z" fill="white" stroke="black" stroke-width="0.02"/>
<path d="M16.1125 3.6719C16.275 3.32815 16.4594 3.33127 16.55 3.1969C16.7187 2.93752 17.075 3.24065 17.3781 3.0094C17.325 3.33752 16.9187 3.2219 16.7406 3.43127C16.5656 3.64065 16.4187 3.7344 16.1156 3.6719H16.1125Z" fill="white" stroke="black" stroke-width="0.02"/>
<path d="M16.1562 3.78437C16.4375 3.55937 16.6437 3.70937 16.8375 3.59062C17.3281 3.29374 17.525 3.65312 17.9625 3.50937C17.85 3.79062 17.2 3.54999 16.9187 3.75937C16.6375 3.96874 15.6469 4.17187 16.1531 3.78437H16.1562ZM15.3344 5.39062C15.3281 5.26249 15.2094 5.09687 15.0406 5.07812C14.8719 5.05624 14.7969 4.87812 14.6687 4.87187C14.5406 4.86249 14.4562 4.60624 14.2781 4.60937C14.1031 4.61249 14.0281 4.84374 14.4437 5.05312C14.8594 5.26249 15.3187 5.50312 15.3344 5.39062ZM14.8094 5.49999C14.6344 5.50624 14.6094 5.76562 14.4406 5.77187C14.6719 5.89687 14.8437 5.71562 14.9625 5.55312L14.8125 5.49999H14.8094Z" fill="white" stroke="black" stroke-width="0.02"/>
<path d="M14.9562 5.53125C14.8 5.65937 14.7562 5.92812 14.9781 6.00625C14.8469 5.82187 15.2125 5.74062 15.1 5.56875L14.9562 5.53125Z" fill="white" stroke="black" stroke-width="0.02"/>
<path d="M15.1062 5.54063C14.9875 5.77188 15.2969 5.8 15.2156 5.97813C15.3937 5.9375 15.4219 5.60312 15.2594 5.51562L15.1062 5.5375V5.54063Z" fill="white" stroke="black" stroke-width="0.02"/>
<path d="M13.925 5.04065C14.2156 5.02503 14.4781 5.18128 14.6562 5.4344C14.7687 5.59378 15.1469 5.6594 15.2781 5.52815C15.4031 5.40315 15.3344 5.12815 15.0125 5.21565C14.9312 5.08128 14.7 5.12815 14.5844 5.01565C14.4719 4.90315 14.0375 4.58128 13.925 5.04065Z" fill="white" stroke="black" stroke-width="0.02"/>
<path d="M15.0125 5.21873C14.9344 5.23435 14.9094 5.3656 14.9594 5.43435ZM15.1782 5.29685C15.2 5.33748 15.1844 5.39373 15.1719 5.42185ZM14.3844 5.0531C14.5313 5.05935 14.5594 5.16873 14.7219 5.20935Z" fill="white"/>
<path d="M15.0125 5.21873C14.9344 5.23435 14.9094 5.3656 14.9594 5.43435M15.1782 5.29685C15.2 5.33748 15.1844 5.39373 15.1719 5.42185M14.3844 5.0531C14.5313 5.05935 14.5594 5.16873 14.7219 5.20935" stroke="black" stroke-width="0.02" stroke-linecap="round"/>
<path d="M14.2844 4.68752C14.6904 4.76686 15.085 4.89596 15.4594 5.0719C15.7125 5.21565 16.1063 5.2594 16.4469 5.1594C16.7906 5.06565 17.4531 4.97502 17.4188 5.40315C17.6 5.18752 17.3719 4.9594 16.9125 4.91877C16.9219 4.7094 16.6969 4.5219 16.5375 4.6469C16.6844 4.62502 16.8125 4.90315 16.5188 5.01565C16.532 4.96722 16.531 4.91602 16.516 4.86812C16.501 4.82022 16.4725 4.77763 16.4341 4.7454C16.3956 4.71317 16.3487 4.69265 16.2989 4.68627C16.2491 4.67988 16.1985 4.68791 16.1531 4.7094C16.2906 4.75002 16.4344 4.9844 16.1219 5.0719C15.925 5.12815 15.6406 5.05627 15.4281 4.92815C15.2156 4.80002 14.0219 4.3344 14.2844 4.6844V4.68752Z" fill="white" stroke="black" stroke-width="0.02"/>
<path d="M15.5812 4.47813C15.4219 4.55 15.525 4.71875 15.2781 4.81563C15.0281 4.90938 14.8531 5.13125 14.9094 5.32188C15.0781 4.95 15.3781 4.96875 15.4812 4.82188C15.5875 4.67813 15.7406 4.46563 15.5812 4.47813Z" fill="white" stroke="black" stroke-width="0.02"/>
<path d="M15.625 4.5C15.6188 4.79375 15.3875 4.6875 15.4781 5.1C15.5063 5.22813 15.5594 5.4375 15.4688 5.64688C15.7281 5.45938 15.5625 5.0625 15.6782 4.9125C15.7344 4.8375 15.8094 4.725 15.8344 4.63125C15.775 4.79688 15.7813 5.1125 15.9438 5.19375C15.8125 4.88125 16.3031 4.62188 15.9656 4.25625C15.9156 4.35 15.7625 4.50625 15.6281 4.5H15.625ZM14.8063 4.20625C14.8469 4.26875 14.8875 4.41875 14.85 4.50625C14.9313 4.45625 15.0469 4.33125 15.0844 4.24688C15.25 4.27188 15.3125 4.475 15.1563 4.56563C15.25 4.56563 15.4188 4.56563 15.5094 4.45625C15.3969 4.33125 15.0469 4.1375 14.8063 4.20625Z" fill="white" stroke="black" stroke-width="0.02"/>
<path d="M12.3031 3.6281C12.2595 3.59441 12.2078 3.57284 12.1531 3.5656C11.9094 3.5156 12.0375 3.29685 12.2437 3.29998C12.6875 2.8156 12.9344 3.18748 13.475 3.03748C13.6625 2.98123 13.7938 2.99685 13.8938 3.04373C14.1375 2.88123 14.4188 2.92498 14.625 3.1156C14.6458 3.07976 14.6792 3.053 14.7188 3.0406C14.9094 2.98748 15.0625 3.14685 15.1156 3.35623C15.2625 3.33123 15.4312 3.4031 15.5437 3.5031C15.6969 3.42498 15.8 3.42185 15.8406 3.5031C15.9781 3.4406 16.1531 3.39685 16.2437 3.6156C16.3344 3.83435 16.0344 3.76873 15.9844 4.2281C15.9531 4.50935 15.6406 4.62185 15.3906 4.4531C14.9906 4.18123 14.6 4.1406 14.4062 4.54685C14.2156 4.95935 14.0625 5.19685 13.5938 5.06248C13.4964 5.04038 13.3947 5.04792 13.3017 5.08412C13.2087 5.12032 13.1287 5.18353 13.0719 5.2656C12.9344 5.4531 12.7281 5.2781 12.4781 5.29685C12.7906 5.24998 12.6688 5.17185 12.9438 5.1531C13.1938 5.13748 13.1281 4.9031 13.2875 4.87185C12.6625 5.03123 12.6844 4.79685 12.1687 4.95935C12.3937 4.66873 12.75 4.83123 12.925 4.66248C12.4594 4.6531 12.25 4.34998 12.0406 4.47498C11.7125 4.6781 11.8531 5.24998 10.9937 5.19998C10.575 5.1781 10.3094 5.23123 10.0625 5.48123C10.4969 4.58123 11.0875 5.07498 11.375 4.7906C11.5242 4.65639 11.6536 4.50173 11.7594 4.33123C11.7717 4.30649 11.7893 4.28474 11.8109 4.26747C11.8325 4.2502 11.8575 4.23784 11.8844 4.23123C11.1687 4.00623 11.6031 3.6531 12.3031 3.6281Z" fill="white" stroke="black" stroke-width="0.02"/>
<path d="M15.8406 3.5C15.85 3.525 15.8563 3.55625 15.8563 3.59375C15.8563 3.76875 15.5906 3.775 15.575 4.0375C15.5656 4.175 15.55 4.25 15.4594 4.23438C15.3656 4.21875 15.2844 4.075 15.3719 3.90625" fill="white"/>
<path d="M15.8406 3.5C15.85 3.525 15.8563 3.55625 15.8563 3.59375C15.8563 3.76875 15.5906 3.775 15.575 4.0375C15.5656 4.175 15.55 4.25 15.4594 4.23438C15.3656 4.21875 15.2844 4.075 15.3719 3.90625" stroke="black" stroke-width="0.02" stroke-linecap="round"/>
<path d="M12.4375 3.36565C12.3812 3.32444 12.3136 3.30153 12.2438 3.30002ZM13.8938 3.04065C14.1063 3.1344 14.2094 3.35315 14.5188 3.36565C14.8188 3.37502 15.0031 3.8094 15.5031 3.52502C15.5155 3.51855 15.528 3.5123 15.5406 3.50627M14.625 3.11565C14.5821 3.19373 14.5667 3.28399 14.5813 3.3719ZM13.65 4.02815C13.275 4.02815 13.175 4.21877 13.175 4.40315C13.175 4.59065 13.3531 4.83127 13.6656 4.83127C13.9781 4.83127 14.15 4.63752 14.15 4.42815C14.15 4.21877 13.9563 4.02502 13.65 4.02502V4.02815Z" fill="white"/>
<path d="M12.4375 3.36565C12.3812 3.32444 12.3136 3.30153 12.2438 3.30002M13.8938 3.04065C14.1063 3.1344 14.2094 3.35315 14.5188 3.36565C14.8188 3.37502 15.0031 3.8094 15.5031 3.52502C15.5155 3.51855 15.528 3.5123 15.5406 3.50627M14.625 3.11565C14.5821 3.19373 14.5667 3.28399 14.5813 3.3719M13.65 4.02815C13.275 4.02815 13.175 4.21877 13.175 4.40315C13.175 4.59065 13.3531 4.83127 13.6656 4.83127C13.9781 4.83127 14.15 4.63752 14.15 4.42815C14.15 4.21877 13.9563 4.02502 13.65 4.02502V4.02815Z" stroke="black" stroke-width="0.02"/>
<path d="M13.7188 4.82188C13.7125 4.71876 13.5219 4.73438 13.5313 4.65313C13.5375 4.57188 13.6344 4.54063 13.6344 4.42813C13.6344 4.31563 13.8032 4.30626 13.8594 4.39688C13.9157 4.48438 14.0844 4.65626 14.1219 4.56876M13.8594 4.39688C13.8078 4.45187 13.778 4.52382 13.7757 4.5992C13.7734 4.67459 13.7987 4.74822 13.8469 4.80626M13.9813 4.53126C13.95 4.59376 13.9438 4.68751 13.9782 4.74376Z" fill="white"/>
<path d="M13.7188 4.82188C13.7125 4.71876 13.5219 4.73438 13.5313 4.65313C13.5375 4.57188 13.6344 4.54063 13.6344 4.42813C13.6344 4.31563 13.8032 4.30626 13.8594 4.39688M13.8594 4.39688C13.9157 4.48438 14.0844 4.65626 14.1219 4.56876M13.8594 4.39688C13.8078 4.45187 13.778 4.52382 13.7757 4.5992C13.7734 4.67459 13.7987 4.74822 13.8469 4.80626M13.9813 4.53126C13.95 4.59376 13.9438 4.68751 13.9782 4.74376" stroke="black" stroke-width="0.02"/>
<path d="M15.4844 4.2375C15.7813 4.2625 15.8281 3.93437 15.6094 3.91562M15.1188 3.35937C15.0188 3.22812 14.7813 3.18437 14.775 3.45937" stroke="black" stroke-width="0.02"/>
<path d="M14.75 3.77499C14.65 3.52499 14.3906 3.49061 14.2562 3.61561C14.1406 3.71874 14.1375 3.99061 14.3812 4.04686C14.4687 3.94374 14.6312 3.81249 14.75 3.77499ZM14.6406 3.61874C14.4937 3.49061 14.2812 3.73436 14.475 3.95624ZM11.8812 4.22811C11.9812 4.20624 12.1219 4.25311 12.3406 4.35311C12.475 4.41874 12.8875 4.55624 13.1437 4.41874C12.8781 4.51561 12.675 4.11561 12.475 4.16249C12.275 4.21249 11.9062 4.28749 11.7531 4.13749C12.1281 4.16249 12.3312 3.86249 12.7656 4.12186C12.8884 4.19801 13.0305 4.23707 13.175 4.23436C12.8219 3.80936 12.3562 4.08124 12.3062 3.73436C12.5187 3.96561 13.0406 3.68436 13.3062 4.11249M12.3844 3.79999C12.3344 3.73749 12.3531 3.67499 12.3031 3.62811Z" fill="white"/>
<path d="M14.6406 3.61874C14.4937 3.49061 14.2812 3.73436 14.475 3.95624M11.8812 4.22811C11.9812 4.20624 12.1219 4.25311 12.3406 4.35311C12.475 4.41874 12.8875 4.55624 13.1437 4.41874C12.8781 4.51561 12.675 4.11561 12.475 4.16249C12.275 4.21249 11.9062 4.28749 11.7531 4.13749C12.1281 4.16249 12.3312 3.86249 12.7656 4.12186C12.8884 4.19801 13.0305 4.23707 13.175 4.23436C12.8219 3.80936 12.3562 4.08124 12.3062 3.73436C12.5187 3.96561 13.0406 3.68436 13.3062 4.11249M12.3844 3.79999C12.3344 3.73749 12.3531 3.67499 12.3031 3.62811M14.75 3.77499C14.65 3.52499 14.3906 3.49061 14.2562 3.61561C14.1406 3.71874 14.1375 3.99061 14.3812 4.04686C14.4687 3.94374 14.6312 3.81249 14.75 3.77499Z" stroke="black" stroke-width="0.02"/>
<path d="M15.1188 3.35935C15.0313 3.2656 14.8375 3.33748 14.8938 3.5281C14.9142 3.48315 14.9455 3.44393 14.9847 3.41395C15.024 3.38397 15.07 3.36414 15.1188 3.35623V3.35935ZM14.5719 3.87498C14.6257 3.83259 14.6858 3.79886 14.75 3.77498C14.7255 3.7113 14.6845 3.65524 14.6313 3.61248C14.5844 3.58123 14.4532 3.75935 14.5719 3.87185V3.87498Z" fill="black"/>
<path d="M14.3344 3.54688C14.1907 3.45001 14.0563 3.45938 14.0125 3.53751C13.9094 3.53751 13.8219 3.61251 13.8188 3.76251M14.0407 3.82813C13.8688 3.70938 13.6313 3.75313 13.6469 4.01876M13.5407 4.17188C13.625 4.10313 13.7469 4.05313 13.8407 4.17188M14.8344 3.90938C14.8032 3.95313 14.7782 4.02188 14.8313 4.12813C14.7688 4.04063 14.6063 4.04063 14.4313 4.26563M15.2157 3.89688C15.0063 3.92188 15.0125 4.05938 15.1813 4.11563M13.7282 3.38438C13.55 3.35001 13.4219 3.45313 13.6657 3.54063M14.0657 3.26563C13.8157 3.20313 13.7157 3.26876 13.8282 3.32813M13.3438 4.26563C13.3375 4.35626 13.3844 4.47188 13.5313 4.34063M13.3938 4.53126C13.3938 4.55626 13.3907 4.58438 13.3719 4.60626M12.8125 3.35626C12.6594 3.30938 12.6313 3.16876 12.8125 3.18126M12.7625 3.68126C12.5938 3.62188 12.5938 3.45938 12.7313 3.47501M13.075 3.59376C12.8782 3.54688 12.8719 3.40938 13.0188 3.43126M13.1 3.17501C12.9938 3.16876 12.8344 3.28438 13.1032 3.35313M13.3938 3.40938C13.1469 3.37501 13.1532 3.47188 13.2969 3.53751M13.5782 3.17501C13.3907 3.14063 13.325 3.25313 13.4532 3.30001M12.9844 3.87188C12.9375 3.83438 12.9 3.65313 13.1188 3.70626M13.4407 3.81563C13.2938 3.77501 13.1532 3.92188 13.2875 4.00313M13.6375 3.64376C13.4813 3.61251 13.35 3.65938 13.4344 3.71563" stroke="black" stroke-width="0.02" stroke-linecap="round"/>
<path d="M15.1125 3.35938C15.0652 3.36791 15.0207 3.3877 14.9826 3.41707C14.9445 3.44644 14.9141 3.48453 14.8938 3.52813" fill="white"/>
<path d="M15.1125 3.35938C15.0652 3.36791 15.0207 3.3877 14.9826 3.41707C14.9445 3.44644 14.9141 3.48453 14.8938 3.52813" stroke="black" stroke-width="0.02"/>
</g>
<defs>
<clipPath id="clip0_14_479">
<rect width="20" height="15" fill="white"/>
</clipPath>
</defs>
</svg>
