<svg width="20" height="15" viewBox="0 0 20 15" fill="none" xmlns="http://www.w3.org/2000/svg">
<path d="M19.9998 0.00012207H0V14.9999H19.9998V0.00012207Z" fill="#F0F0F0"/>
<path d="M19.9998 0.00012207H0V7.49977H19.9998V0.00012207Z" fill="#F0F0F0"/>
<path d="M19.9998 3.04688H0V4.45311H19.9998V3.04688Z" fill="#D80027"/>
<path d="M14.8711 5.05408L20.0019 6.49707V5.05408H14.8711Z" fill="#0052B4"/>
<path d="M11.3047 5.05408L20.0003 7.49965V6.80805L13.7636 5.05408H11.3047Z" fill="#0052B4"/>
<path d="M17.6841 7.49968L11.3047 5.70532V7.49968H17.6841Z" fill="#0052B4"/>
<path d="M11.3047 5.05408L20.0003 7.49965V6.80805L13.7636 5.05408H11.3047Z" fill="#F0F0F0"/>
<path d="M11.3047 5.05408L20.0003 7.49965V6.80805L13.7636 5.05408H11.3047Z" fill="#D80027"/>
<path d="M3.921 5.05408L0 6.15679V5.05408H3.921Z" fill="#0052B4"/>
<path d="M8.69466 5.36511V7.4997H1.10547L8.69466 5.36511Z" fill="#0052B4"/>
<path d="M6.23661 5.05408L0 6.80805V7.49965L8.69559 5.05408H6.23661Z" fill="#D80027"/>
<path d="M5.13084 2.44556L0 1.00256V2.44556H5.13084Z" fill="#0052B4"/>
<path d="M8.69559 2.44557L0 0V0.691555L6.23665 2.44557H8.69559Z" fill="#0052B4"/>
<path d="M2.31641 0L8.6958 1.79431V0H2.31641Z" fill="#0052B4"/>
<path d="M8.69559 2.44557L0 0V0.691555L6.23665 2.44557H8.69559Z" fill="#F0F0F0"/>
<path d="M8.69559 2.44557L0 0V0.691555L6.23665 2.44557H8.69559Z" fill="#D80027"/>
<path d="M16.0781 2.44565L19.9991 1.3429V2.44565H16.0781Z" fill="#0052B4"/>
<path d="M11.3047 2.13463V0.00012207H18.8939L11.3047 2.13463Z" fill="#0052B4"/>
<path d="M13.7637 2.44557L20.0003 0.691599V0L11.3047 2.44557H13.7637Z" fill="#D80027"/>
<path d="M10.6246 0.00012207H9.375V7.49977H10.6246V0.00012207Z" fill="#D80027"/>
<path d="M19.9998 8.19579V9.17697C19.8268 9.20976 19.4977 9.41955 19.2525 9.57656C18.8246 9.84999 18.4203 10.1082 18.0338 10.1082C17.6468 10.1082 17.2429 9.84999 16.8146 9.57656C16.5477 9.40587 16.182 9.17256 16.0251 9.17256C15.8681 9.17256 15.5024 9.40587 15.2355 9.57656C14.8077 9.84999 14.4033 10.1082 14.0168 10.1082C13.6303 10.1082 13.2259 9.84999 12.7977 9.57656C12.5307 9.40587 12.1651 9.17256 12.0081 9.17256C11.8516 9.17256 11.4859 9.40587 11.219 9.57656C10.7907 9.84999 10.3864 10.1082 9.99984 10.1082C9.6133 10.1082 9.20899 9.84999 8.78071 9.57656C8.51377 9.40587 8.1481 9.17256 7.99158 9.17256C7.83464 9.17256 7.46896 9.40587 7.20202 9.57656C6.77378 9.84999 6.36943 10.1082 5.98289 10.1082C5.59639 10.1082 5.19204 9.84999 4.76419 9.57656C4.49725 9.40587 4.13157 9.17256 3.97463 9.17256C3.81768 9.17256 3.45201 9.40587 3.18507 9.57656C2.75683 9.84999 2.35291 10.1082 1.96594 10.1082C1.57943 10.1082 1.17508 9.84999 0.747234 9.57656C0.502183 9.41959 0.17303 9.20976 0 9.17697V8.19579C0.373479 8.21291 0.764336 8.46238 1.17696 8.72601C1.4439 8.89622 1.80958 9.13002 1.96609 9.13002C2.12304 9.13002 2.48871 8.89622 2.75565 8.72601C3.18389 8.45258 3.58824 8.19434 3.97479 8.19434C4.36133 8.19434 4.76564 8.45258 5.19349 8.72601C5.46043 8.89622 5.8261 9.13002 5.98305 9.13002C6.13999 9.13002 6.50567 8.89622 6.77261 8.72601C7.20085 8.45258 7.60477 8.19434 7.99174 8.19434C8.37824 8.19434 8.78259 8.45258 9.21044 8.72601C9.47738 8.89622 9.84305 9.13002 10 9.13002C10.1569 9.13002 10.5226 8.89622 10.7896 8.72601C11.2174 8.45258 11.6217 8.19434 12.0083 8.19434C12.3952 8.19434 12.7991 8.45258 13.2274 8.72601C13.4943 8.89622 13.86 9.13002 14.017 9.13002C14.1739 9.13002 14.5396 8.89622 14.8065 8.72601C15.2343 8.45258 15.6387 8.19434 16.0252 8.19434C16.4117 8.19434 16.8161 8.45258 17.2443 8.72601C17.5113 8.89622 17.877 9.13002 18.0339 9.13002C18.1904 9.13002 18.5561 8.89622 18.823 8.72601C19.2355 8.46238 19.6264 8.21291 19.9998 8.19579Z" fill="#0052B4"/>
<path d="M20 10.6415V11.6226C19.827 11.6554 19.4978 11.8652 19.2526 12.0222C18.8248 12.2957 18.4204 12.5539 18.0339 12.5539C17.647 12.5539 17.2431 12.2957 16.8148 12.0222C16.5478 11.8515 16.1822 11.6182 16.0252 11.6182C15.8683 11.6182 15.5026 11.8515 15.2357 12.0222C14.8078 12.2957 14.4035 12.5539 14.017 12.5539C13.6304 12.5539 13.2261 12.2957 12.7978 12.0222C12.5309 11.8515 12.1652 11.6182 12.0083 11.6182C11.8517 11.6182 11.4861 11.8515 11.2191 12.0222C10.7909 12.2957 10.3865 12.5539 10 12.5539C9.61346 12.5539 9.20915 12.2957 8.78087 12.0222C8.51393 11.8515 8.14825 11.6182 7.99174 11.6182C7.83479 11.6182 7.46912 11.8515 7.20218 12.0222C6.77394 12.2957 6.36959 12.5539 5.98305 12.5539C5.59654 12.5539 5.19219 12.2957 4.76434 12.0222C4.49741 11.8515 4.13173 11.6182 3.97478 11.6182C3.81784 11.6182 3.45216 11.8515 3.18523 12.0222C2.75699 12.2957 2.35307 12.5539 1.96609 12.5539C1.57959 12.5539 1.17524 12.2957 0.74739 12.0222C0.502183 11.8652 0.17303 11.6554 0 11.6226V10.6415C0.373479 10.6586 0.764336 10.9081 1.17696 11.1717C1.4439 11.3419 1.80958 11.5757 1.96609 11.5757C2.12304 11.5757 2.48871 11.3419 2.75565 11.1717C3.18389 10.8983 3.58824 10.64 3.97478 10.64C4.36133 10.64 4.76564 10.8983 5.19349 11.1717C5.46043 11.3419 5.8261 11.5757 5.98305 11.5757C6.13999 11.5757 6.50567 11.3419 6.77261 11.1717C7.20085 10.8983 7.60477 10.64 7.99174 10.64C8.37824 10.64 8.78259 10.8983 9.21044 11.1717C9.47738 11.3419 9.84305 11.5757 10 11.5757C10.1569 11.5757 10.5226 11.3419 10.7896 11.1717C11.2174 10.8983 11.6217 10.64 12.0083 10.64C12.3952 10.64 12.7991 10.8983 13.2274 11.1717C13.4943 11.3419 13.86 11.5757 14.017 11.5757C14.1739 11.5757 14.5396 11.3419 14.8065 11.1717C15.2343 10.8983 15.6387 10.64 16.0252 10.64C16.4117 10.64 16.8161 10.8983 17.2443 11.1717C17.5113 11.3419 17.877 11.5757 18.0339 11.5757C18.1904 11.5757 18.5561 11.3419 18.823 11.1717C19.2357 10.908 19.6265 10.6585 20 10.6415Z" fill="#0052B4"/>
<path d="M20 13.087V14.0682C19.827 14.101 19.4978 14.3108 19.2526 14.4678C18.8248 14.7412 18.4204 14.9995 18.0339 14.9995C17.647 14.9995 17.2431 14.7412 16.8148 14.4678C16.5478 14.2971 16.1822 14.0638 16.0252 14.0638C15.8683 14.0638 15.5026 14.2971 15.2357 14.4678C14.8078 14.7412 14.4035 14.9995 14.017 14.9995C13.6304 14.9995 13.2261 14.7412 12.7978 14.4678C12.5309 14.2971 12.1652 14.0638 12.0083 14.0638C11.8517 14.0638 11.4861 14.2971 11.2191 14.4678C10.7909 14.7412 10.3865 14.9995 10 14.9995C9.61346 14.9995 9.20915 14.7412 8.78087 14.4678C8.51393 14.2971 8.14825 14.0638 7.99174 14.0638C7.83479 14.0638 7.46912 14.2971 7.20218 14.4678C6.77394 14.7412 6.36959 14.9995 5.98305 14.9995C5.59654 14.9995 5.19219 14.7412 4.76434 14.4678C4.49741 14.2971 4.13173 14.0638 3.97478 14.0638C3.81784 14.0638 3.45216 14.2971 3.18523 14.4678C2.75699 14.7412 2.35307 14.9995 1.96609 14.9995C1.57959 14.9995 1.17524 14.7412 0.74739 14.4678C0.502183 14.3108 0.17303 14.1009 0 14.0682V13.087C0.373479 13.1041 0.764336 13.3536 1.17696 13.6172C1.4439 13.7875 1.80958 14.0213 1.96609 14.0213C2.12304 14.0213 2.48871 13.7875 2.75565 13.6172C3.18389 13.3438 3.58824 13.0856 3.97478 13.0856C4.36133 13.0856 4.76564 13.3438 5.19349 13.6172C5.46043 13.7875 5.8261 14.0213 5.98305 14.0213C6.13999 14.0213 6.50567 13.7875 6.77261 13.6172C7.20085 13.3438 7.60477 13.0856 7.99174 13.0856C8.37824 13.0856 8.78259 13.3438 9.21044 13.6172C9.47738 13.7875 9.84305 14.0213 10 14.0213C10.1569 14.0213 10.5226 13.7875 10.7896 13.6172C11.2174 13.3438 11.6217 13.0856 12.0083 13.0856C12.3952 13.0856 12.7991 13.3438 13.2274 13.6172C13.4943 13.7875 13.86 14.0213 14.017 14.0213C14.1739 14.0213 14.5396 13.7875 14.8065 13.6172C15.2343 13.3438 15.6387 13.0856 16.0252 13.0856C16.4117 13.0856 16.8161 13.3438 17.2443 13.6172C17.5113 13.7875 17.877 14.0213 18.0339 14.0213C18.1904 14.0213 18.5561 13.7875 18.823 13.6172C19.2357 13.3536 19.6265 13.1041 20 13.087Z" fill="#0052B4"/>
<path d="M12.0221 13.375L12.7658 11.8532L11.2491 12.1795L11.0569 10.4558L10.0004 11.7236L8.944 10.4558L8.75175 12.1795L7.23504 11.8532L7.97882 13.3749L6.58203 14.1141L7.97878 14.8531L7.90723 14.9997H12.0936L12.022 14.8532L13.4188 14.1141L12.0221 13.375Z" fill="#FFDA44"/>
</svg>
