<svg width="20" height="15" viewBox="0 0 20 15" fill="none" xmlns="http://www.w3.org/2000/svg">
<g clip-path="url(#clip0_14_475)">
<path d="M4.69063 0H15.3062V15H4.6875L4.69063 0Z" fill="white"/>
<path d="M-0.615601 0H4.69065V15H-0.615601V0ZM15.3063 0H20.6125V15H15.3094L15.3063 0ZM6.28127 7.25L5.86565 7.3875L7.7844 9.075C7.93127 9.50312 7.7344 9.63125 7.6094 9.85625L9.69065 9.59375L9.64065 11.6875L10.075 11.6781L9.97815 9.59688L12.0625 9.84688C11.9344 9.575 11.8188 9.43125 11.9375 8.99687L13.8531 7.40312L13.5188 7.27812C13.2438 7.06562 13.6375 6.25937 13.6938 5.75C13.6938 5.75 12.5782 6.13438 12.5063 5.93125L12.2188 5.38438L11.2 6.50313C11.0906 6.53125 11.0438 6.4875 11.0156 6.39375L11.4844 4.05625L10.7407 4.475C10.6782 4.50312 10.6156 4.47812 10.5781 4.40625L9.8594 2.96875L9.1219 4.4625C9.06565 4.51563 9.0094 4.52188 8.96565 4.48438L8.25002 4.0875L8.67815 6.40312C8.64378 6.49687 8.56252 6.52188 8.46877 6.47188L7.49377 5.36875C7.36877 5.57188 7.28127 5.90313 7.11252 5.97813C6.94377 6.05 6.37815 5.8375 6.00002 5.75938C6.13127 6.22188 6.53127 6.99687 6.28127 7.25Z" fill="#D52B1E"/>
</g>
<defs>
<clipPath id="clip0_14_475">
<rect width="20" height="15" fill="white"/>
</clipPath>
</defs>
</svg>
