<svg width="20" height="15" viewBox="0 0 20 15" fill="none" xmlns="http://www.w3.org/2000/svg">
<g clip-path="url(#clip0_14_434)">
<path d="M0 0H20V15H0V0Z" fill="#008000"/>
<path d="M10 9.5844C11.1512 9.5844 12.0844 8.65119 12.0844 7.50002C12.0844 6.34886 11.1512 5.41565 10 5.41565C8.84886 5.41565 7.91565 6.34886 7.91565 7.50002C7.91565 8.65119 8.84886 9.5844 10 9.5844Z" fill="#FFE000"/>
<path d="M10.65 9.21561C11.5975 9.21561 12.3656 8.4475 12.3656 7.49999C12.3656 6.55247 11.5975 5.78436 10.65 5.78436C9.70244 5.78436 8.93433 6.55247 8.93433 7.49999C8.93433 8.4475 9.70244 9.21561 10.65 9.21561Z" fill="#008000"/>
<path d="M3.43125 7.59688C4.63592 7.59688 5.6125 6.6203 5.6125 5.41563C5.6125 4.21095 4.63592 3.23438 3.43125 3.23438C2.22658 3.23438 1.25 4.21095 1.25 5.41563C1.25 6.6203 2.22658 7.59688 3.43125 7.59688Z" fill="#FFE000"/>
<path d="M3.28125 7.0625H3.82812C3.82812 7.0625 3.85 7.0125 3.82188 6.9875C3.79063 6.9625 3.675 6.95625 3.70625 6.86875C3.76875 6.6875 3.78125 6.74375 3.82188 6.3125C3.8516 5.94326 3.87244 5.57336 3.88438 5.20312H3.80312C3.80312 5.20312 3.81875 5.4125 3.77187 5.6875C3.72812 5.9625 3.7125 5.98438 3.6625 6.19688C3.63895 6.31646 3.60443 6.43362 3.55938 6.54688C3.51563 6.67188 3.50937 6.675 3.44062 6.79063C3.36875 6.90313 3.39375 6.85937 3.35625 6.92812C3.33438 6.9625 3.3125 6.95313 3.29688 6.97813C3.28437 7.00313 3.28125 7.0625 3.28125 7.0625Z" fill="#802000" stroke="#7B3100" stroke-width="0.075"/>
<path d="M3.6969 3.82812C3.70406 3.92551 3.6913 4.02333 3.6594 4.11562C3.61609 4.21218 3.5917 4.31614 3.58752 4.42187C3.53127 4.44062 3.4719 4.3 3.41565 4.38438C3.45627 4.5 3.55315 4.59062 3.61565 4.69375C3.62815 4.725 3.7219 4.80937 3.66565 4.82812C3.53127 4.78125 3.4969 4.60937 3.41565 4.50625C3.3681 4.41731 3.29867 4.34195 3.21393 4.28728C3.12918 4.2326 3.03191 4.20041 2.93127 4.19375C2.85315 4.19687 2.60627 4.17812 2.66877 4.30937C2.76252 4.37187 2.88127 4.41563 2.97502 4.4875C3.0469 4.49375 3.1719 4.6125 3.16565 4.65625C3.04065 4.60625 2.9844 4.54688 2.85315 4.49375C2.6719 4.425 2.42502 4.46563 2.3219 4.64375C2.30627 4.69063 2.27815 4.825 2.33752 4.84062C2.40627 4.73437 2.50315 4.6125 2.6469 4.64687C2.7594 4.65625 2.5219 4.85625 2.61252 4.81563C2.64377 4.80313 2.70627 4.75938 2.75627 4.75313C2.80315 4.75313 2.82815 4.78437 2.86252 4.79062C2.9344 4.8 2.95627 4.82813 2.9469 4.84688C2.94065 4.86563 2.91565 4.84687 2.84377 4.87187C2.8094 4.88437 2.79065 4.91562 2.75002 4.93125C2.70627 4.94375 2.61877 4.94687 2.58752 4.93125C2.4719 4.88437 2.2844 4.89063 2.25002 5.03438C2.25002 5.09688 2.19377 5.02812 2.16877 5.05625C2.1469 5.125 2.14377 5.19375 2.04377 5.1875C1.98127 5.25 1.91877 5.31875 1.83752 5.36562C1.8844 5.47187 2.06565 5.25937 2.05627 5.35C1.97815 5.45937 2.10002 5.48125 2.15002 5.39687C2.24065 5.30312 2.35315 5.1875 2.4844 5.28438C2.5469 5.34375 2.5844 5.25313 2.63127 5.25313C2.66252 5.33125 2.6969 5.25938 2.73127 5.2375C2.7844 5.23125 2.76877 5.30625 2.83127 5.25937C2.9594 5.175 3.11565 5.24687 3.24065 5.16562C3.37502 5.10312 3.2594 5.2125 3.22502 5.25625C3.16565 5.36875 3.21565 5.51875 3.09065 5.5875C3.03752 5.72187 3.15002 5.9 3.03752 6C3.0219 6.0625 3.18127 6.05625 3.22502 6.08125C3.30627 6.08125 3.22502 5.9 3.30315 5.875C3.4094 5.9375 3.40315 5.75625 3.38127 5.7C3.39377 5.575 3.40002 5.43125 3.46252 5.31563C3.53127 5.175 3.59377 5.375 3.51877 5.43125C3.47502 5.55937 3.41252 5.725 3.5094 5.84687C3.54065 5.85312 3.56252 5.92187 3.5969 5.94062C3.6344 5.9625 3.6844 5.9375 3.69065 5.875C3.74065 5.6875 3.71565 5.4875 3.7844 5.30312C3.83127 5.24687 3.8969 5.29375 3.92502 5.34688C4.01877 5.45625 4.0844 5.59062 4.1969 5.68125C4.30339 5.7248 4.39015 5.806 4.44065 5.90937C4.44065 5.99062 4.6719 6.00312 4.60315 5.90937C4.53752 5.825 4.58127 5.73437 4.6469 5.675C4.6844 5.68437 4.67502 5.61875 4.6469 5.64375C4.60002 5.63437 4.5969 5.55 4.6594 5.59062C4.76877 5.625 4.65315 5.5125 4.61252 5.50937C4.5219 5.45312 4.41877 5.39062 4.37502 5.29062C4.49377 5.29062 4.61565 5.35625 4.7344 5.31875C4.83127 5.26875 4.92815 5.31875 4.96252 5.40625C5.03752 5.39375 5.00627 5.31875 4.96252 5.29375C5.01565 5.27187 5.05627 5.225 4.98752 5.18437C4.95627 5.14062 5.0344 5.05938 4.9344 5.06563C4.93752 4.9875 4.9094 4.91875 4.82502 4.89062C4.74065 4.82187 4.49377 4.99687 4.50315 4.8375C4.47815 4.75 4.60315 4.825 4.63752 4.78125C4.6719 4.6875 4.46565 4.7 4.5344 4.625C4.57815 4.6 4.78752 4.55937 4.62502 4.52812C4.58829 4.53889 4.54962 4.5414 4.5118 4.53545C4.47398 4.52951 4.43794 4.51527 4.40627 4.49375C4.3469 4.59063 4.18127 4.4375 4.2094 4.6125C4.18752 4.67813 4.03752 4.85 3.9969 4.71875C4.02815 4.61562 4.2094 4.58437 4.15315 4.44375C4.14377 4.35937 4.0719 4.45937 4.04065 4.45312C4.0219 4.4 4.09065 4.33438 4.14065 4.32188C4.2344 4.39688 4.2344 4.22813 4.32815 4.24375C4.39377 4.22813 4.30627 4.2 4.28752 4.1875C4.30627 4.14062 4.4094 4.11563 4.3094 4.07188C4.21877 4.00938 4.15315 4.1375 4.08127 4.14375C4.01252 4.06563 4.14377 4.02812 4.18127 3.9875C4.1844 3.95625 4.10627 3.97813 4.12815 3.95C4.15002 3.91563 4.29065 3.9125 4.2219 3.85625C4.11683 3.82419 4.00374 3.83084 3.90315 3.875C3.84065 3.89375 3.82502 4.03125 3.7719 4.025C3.75002 3.9625 3.78127 3.84375 3.6969 3.82812ZM4.16565 5.15C4.24065 5.1375 4.16565 5.26562 4.1344 5.2625C4.1344 5.21875 4.0219 5.22187 4.09377 5.18125C4.11575 5.16676 4.14007 5.15619 4.16565 5.15Z" fill="#008000"/>
<path d="M15.0019 10.12L15.1397 10.5482L15.5603 10.3889L15.3115 10.7637L15.6985 10.9933L15.25 11.0324L15.3117 11.4781L15.0019 11.1519L14.692 11.4779L14.7537 11.0324L14.3054 10.9931L14.6924 10.7635L14.4433 10.3887L14.864 10.548L15.0019 10.12Z" fill="#FFE000"/>
<path d="M12.5016 6.16119L12.6393 6.58942L13.06 6.43008L12.8111 6.80493L13.1981 7.03452L12.7496 7.07361L12.8113 7.5193L12.5016 7.19307L12.1916 7.5191L12.2533 7.07361L11.8051 7.03432L12.192 6.80473L11.943 6.42988L12.3637 6.58922L12.5016 6.16119Z" fill="#FFE000"/>
<path d="M15.0019 3.45251L15.1397 3.88074L15.5603 3.7214L15.3115 4.09625L15.6985 4.32584L15.25 4.36493L15.3117 4.81062L15.0019 4.48439L14.692 4.81042L14.7537 4.36493L14.3054 4.32564L14.6924 4.09605L14.4433 3.7212L14.864 3.88054L15.0019 3.45251Z" fill="#FFE000"/>
<path d="M17.2243 5.49445L17.3621 5.92267L17.7828 5.76333L17.5339 6.13818L17.9209 6.36777L17.4724 6.40686L17.5341 6.85255L17.2243 6.52632L16.9144 6.85235L16.9761 6.40686L16.5278 6.36757L16.9148 6.13798L16.6657 5.76313L17.0864 5.92248L17.2243 5.49445Z" fill="#FFE000"/>
<path d="M16.0019 7.50061L16.1109 7.76751L16.3982 7.78854L16.178 7.97468L16.2468 8.25447L16.0019 8.10247L15.7571 8.25467L15.8257 7.97488L15.6055 7.78874L15.8932 7.76771L16.0019 7.50061Z" fill="#FFE000"/>
</g>
<defs>
<clipPath id="clip0_14_434">
<rect width="20" height="15" fill="white"/>
</clipPath>
</defs>
</svg>
