<svg width="20" height="15" viewBox="0 0 20 15" fill="none" xmlns="http://www.w3.org/2000/svg">
<mask id="mask0_1825_41074" style="mask-type:luminance" maskUnits="userSpaceOnUse" x="0" y="0" width="20" height="15">
<rect width="20" height="15" fill="white"/>
</mask>
<g mask="url(#mask0_1825_41074)">
<path fill-rule="evenodd" clip-rule="evenodd" d="M0 0V15H20V0H0Z" fill="#2E42A5"/>
<mask id="mask1_1825_41074" style="mask-type:luminance" maskUnits="userSpaceOnUse" x="0" y="0" width="20" height="15">
<path fill-rule="evenodd" clip-rule="evenodd" d="M0 0V15H20V0H0Z" fill="white"/>
</mask>
<g mask="url(#mask1_1825_41074)">
<rect width="11" height="9" fill="#2E42A5"/>
<mask id="mask2_1825_41074" style="mask-type:luminance" maskUnits="userSpaceOnUse" x="0" y="0" width="11" height="9">
<rect width="11" height="9" fill="white"/>
</mask>
<g mask="url(#mask2_1825_41074)">
<path d="M-1.25293 8.12482L1.22266 9.21057L11.3059 1.1804L12.6117 -0.43306L9.96444 -0.795949L5.85172 2.66448L2.54141 4.996L-1.25293 8.12482Z" fill="#F7FCFF"/>
<path d="M-0.914062 8.88555L0.347138 9.51562L12.1428 -0.582947H10.3719L-0.914062 8.88555Z" fill="#F50100"/>
<path d="M12.5024 8.12493L10.3054 9.52063L-0.0564003 1.1805L-1.36222 -0.432954L1.28507 -0.795844L5.39779 2.66459L8.7081 4.99611L12.5024 8.12493Z" fill="#F7FCFF"/>
<path d="M12.418 8.67082L11.1568 9.3009L6.13406 4.97718L4.64494 4.4941L-1.48787 -0.427482H0.283002L6.41237 4.37728L8.04046 4.95655L12.418 8.67082Z" fill="#F50100"/>
<mask id="path-10-outside-1_1825_41074" maskUnits="userSpaceOnUse" x="-1" y="-1" width="13" height="11" fill="black">
<rect fill="white" x="-1" y="-1" width="13" height="11"/>
<path fill-rule="evenodd" clip-rule="evenodd" d="M6 0H5V4H0V5H5V9H6V5H11V4H6V0Z"/>
</mask>
<path fill-rule="evenodd" clip-rule="evenodd" d="M6 0H5V4H0V5H5V9H6V5H11V4H6V0Z" fill="#F50100"/>
<path d="M5 0V-0.9375H4.0625V0H5ZM6 0H6.9375V-0.9375H6V0ZM5 4V4.9375H5.9375V4H5ZM0 4V3.0625H-0.9375V4H0ZM0 5H-0.9375V5.9375H0V5ZM5 5H5.9375V4.0625H5V5ZM5 9H4.0625V9.9375H5V9ZM6 9V9.9375H6.9375V9H6ZM6 5V4.0625H5.0625V5H6ZM11 5V5.9375H11.9375V5H11ZM11 4H11.9375V3.0625H11V4ZM6 4H5.0625V4.9375H6V4ZM5 0.9375H6V-0.9375H5V0.9375ZM5.9375 4V0H4.0625V4H5.9375ZM0 4.9375H5V3.0625H0V4.9375ZM0.9375 5V4H-0.9375V5H0.9375ZM5 4.0625H0V5.9375H5V4.0625ZM5.9375 9V5H4.0625V9H5.9375ZM6 8.0625H5V9.9375H6V8.0625ZM5.0625 5V9H6.9375V5H5.0625ZM11 4.0625H6V5.9375H11V4.0625ZM10.0625 4V5H11.9375V4H10.0625ZM6 4.9375H11V3.0625H6V4.9375ZM5.0625 0V4H6.9375V0H5.0625Z" fill="#F7FCFF" mask="url(#path-10-outside-1_1825_41074)"/>
</g>
<path fill-rule="evenodd" clip-rule="evenodd" d="M14.907 9.28445L15.5694 8.82303L16.2103 9.28445L16.011 8.46332L16.5257 7.94295H15.8707L15.5684 7.27283L15.3107 7.94295H14.5423L15.1306 8.46332L14.907 9.28445ZM16.6649 10.0709L17.3273 9.60948L17.7186 9.89116L17.5931 10.2175H16.8247L17.413 10.7378L17.304 11.138L17.2279 10.9692L16.9701 11.6393H16.2017L16.79 12.1597L16.5664 12.9808L17.2288 12.5194L17.8697 12.9808L17.6704 12.1597L18.1852 11.6393H17.5301L17.4211 11.3976L17.8518 11.0975L18.4927 11.559L18.2934 10.7378L18.8081 10.2175H18.153L17.8508 9.54734L17.8449 9.56268L17.769 9.24977L18.2837 8.7294H17.6286L17.3264 8.05928L17.0687 8.7294H16.3002L16.8886 9.24977L16.6649 10.0709ZM15.6361 13.2982L14.9737 13.7596L15.1974 12.9385L14.6624 12.4653L14.7935 13.0055L14.1526 12.544L13.4902 13.0055L13.7138 12.1843L13.1255 11.664H13.8939L13.9459 11.5288L13.3611 11.1078L12.6987 11.5693L12.9223 10.7481L12.334 10.2278H13.1024L13.3602 9.55764L13.3957 9.63638L13.4931 9.2788L12.9047 8.75843H13.6732L13.9309 8.08831L14.2331 8.75843H14.8882L14.3735 9.2788L14.5727 10.0999L13.9318 9.63851L13.5246 9.9222L13.6624 10.2278H14.3174L13.8027 10.7481L13.9743 11.455L14.1516 10.9938L14.4538 11.664H15.1089L14.5942 12.1843L14.6509 12.4181H15.3775L15.6352 11.748L15.9374 12.4181H16.5925L16.0778 12.9385L16.2771 13.7596L15.6361 13.2982Z" fill="white"/>
</g>
</g>
</svg>
