<svg width="20" height="15" viewBox="0 0 20 15" fill="none" xmlns="http://www.w3.org/2000/svg">
<g clip-path="url(#clip0_14_515)">
<mask id="mask0_14_515" style="mask-type:luminance" maskUnits="userSpaceOnUse" x="-1" y="0" width="22" height="16">
<path d="M-0.00244141 0H20.0519V15.04H-0.00244141V0Z" fill="white"/>
</mask>
<g mask="url(#mask0_14_515)">
<path fill-rule="evenodd" clip-rule="evenodd" d="M-0.00244141 0H22.5576V15.04H-0.00244141V0Z" fill="#002A8F"/>
<path fill-rule="evenodd" clip-rule="evenodd" d="M-0.00244141 3.008H22.5576V6.016H-0.00244141V3.008ZM-0.00244141 9.024H22.5576V12.032H-0.00244141V9.024Z" fill="white"/>
<path fill-rule="evenodd" clip-rule="evenodd" d="M-0.00244141 0L12.9431 7.51119L-0.00244141 15.0106V0Z" fill="#CB1515"/>
<path fill-rule="evenodd" clip-rule="evenodd" d="M5.69038 9.56157L4.29506 8.51876L2.90856 9.57039L3.42556 7.8637L2.03906 6.8062L3.75163 6.79445L4.28331 5.0907L4.82675 6.78857L6.53931 6.79151L5.16163 7.85782L5.69038 9.56157Z" fill="white"/>
</g>
</g>
<defs>
<clipPath id="clip0_14_515">
<rect width="20" height="15" fill="white"/>
</clipPath>
</defs>
</svg>
