<svg width="20" height="15" viewBox="0 0 20 15" fill="none" xmlns="http://www.w3.org/2000/svg">
<mask id="mask0_1825_41167" style="mask-type:luminance" maskUnits="userSpaceOnUse" x="0" y="0" width="20" height="15">
<rect width="20" height="15" fill="white"/>
</mask>
<g mask="url(#mask0_1825_41167)">
<path fill-rule="evenodd" clip-rule="evenodd" d="M0 0V15H20V0H0Z" fill="#4141DB"/>
<mask id="mask1_1825_41167" style="mask-type:luminance" maskUnits="userSpaceOnUse" x="0" y="0" width="20" height="15">
<path fill-rule="evenodd" clip-rule="evenodd" d="M0 0V15H20V0H0Z" fill="white"/>
</mask>
<g mask="url(#mask1_1825_41167)">
<path d="M0 8.125H-0.625V8.75V10V10.625H0H20H20.625V10V8.75V8.125H20H0Z" fill="#F90000" stroke="#F7FCFF" stroke-width="1.25"/>
<g filter="url(#filter0_d_1825_41167)">
<path fill-rule="evenodd" clip-rule="evenodd" d="M5.11861 6.32063L5.64966 5.95072L6.246 6.38004L6.23726 6.41213L6.26436 6.39325L6.29058 6.41213L6.28287 6.38036L6.89966 5.95072L7.496 6.38004L7.48726 6.41213L7.51436 6.39325L7.54058 6.41213L7.53287 6.38036L8.14966 5.95072L8.66348 6.32063H8.37256L8.96089 6.841L8.73726 7.66213L9.39966 7.20072L9.91348 7.57063H9.62256L10.2109 8.091L10.0122 8.82063H9.62256L10.2109 9.341L10.0122 10.0706H9.62256L10.2109 10.591L10.0122 11.3206H9.70094L9.39874 10.6505L9.141 11.3206H8.37256L8.96089 11.841L8.76218 12.5706H8.45094L8.14874 11.9005L7.891 12.5706H7.85602H7.20094L6.89874 11.9005L6.641 12.5706H6.60602H5.95094L5.64873 11.9005L5.391 12.5706H5.01837L4.84131 11.841L5.35602 11.3206H4.70094L4.39873 10.6505L4.141 11.3206H3.76837L3.59131 10.591L4.10602 10.0706H3.76837L3.59131 9.341L4.10602 8.82063H3.76837L3.59131 8.091L4.10602 7.57063H3.86861L4.39966 7.20072L5.04058 7.66213L4.84131 6.841L5.35602 6.32063H5.11861ZM5.01218 6.32063L5.21089 5.591L4.62256 5.07063H5.391L5.64873 4.40051L5.95094 5.07063H6.60602H6.641L6.89874 4.40051L7.20094 5.07063H7.85602H7.891L8.14874 4.40051L8.45094 5.07063H9.10602L8.59131 5.591L8.76837 6.32063H9.141L9.39874 5.65051L9.70094 6.32063H10.356L9.84131 6.841L10.0184 7.57063H10.391L10.6487 6.90051L10.9509 7.57063H11.606L11.0913 8.091L11.2684 8.82063H11.606L11.0913 9.341L11.2684 10.0706H11.606L11.0913 10.591L11.2906 11.4121L10.6497 10.9507L10.1186 11.3206H10.356L9.84131 11.841L10.0406 12.6621L9.39966 12.2007L8.86861 12.5706H9.10602L8.59131 13.091L8.79058 13.9121L8.14966 13.4507L7.53287 13.8804L7.54058 13.9121L7.51436 13.8933L7.48726 13.9121L7.496 13.88L6.89966 13.4507L6.28287 13.8804L6.29058 13.9121L6.26436 13.8933L6.23726 13.9121L6.246 13.88L5.64966 13.4507L4.98726 13.9121L5.21089 13.091L4.62256 12.5706H4.91348L4.39966 12.2007L3.73726 12.6621L3.96089 11.841L3.37256 11.3206H3.66348L3.14966 10.9507L2.48726 11.4121L2.71089 10.591L2.12256 10.0706H2.51218L2.71089 9.341L2.12256 8.82063H2.51218L2.71089 8.091L2.12256 7.57063H2.891L3.14873 6.90051L3.45094 7.57063H3.76218L3.96089 6.841L3.37256 6.32063H4.141L4.39873 5.65051L4.70094 6.32063H5.01218ZM3.34876 8.59406L3.66348 8.82063H3.45094L3.34876 8.59406ZM2.61861 8.82063L2.99068 8.56146L2.891 8.82063H2.61861ZM2.61861 10.0706H2.891L2.99068 9.81146L2.61861 10.0706ZM3.34876 9.84406L3.45094 10.0706H3.66348L3.34876 9.84406ZM6.09131 13.091L6.26377 12.9167L6.46089 13.091L6.26546 13.8086L6.09131 13.091ZM7.51546 13.8086L7.71089 13.091L7.51377 12.9167L7.34131 13.091L7.51546 13.8086ZM10.391 10.0706H10.1186L10.4907 9.81146L10.391 10.0706ZM10.9509 10.0706L10.8488 9.84406L11.1635 10.0706H10.9509ZM11.1635 8.82063L10.8488 8.59406L10.9509 8.82063H11.1635ZM10.4907 8.56146L10.1186 8.82063H10.391L10.4907 8.56146ZM7.71089 5.591L7.51546 6.30861L7.34131 5.591L7.51377 5.41665L7.71089 5.591ZM6.26377 5.41665L6.09131 5.591L6.26546 6.30861L6.46089 5.591L6.26377 5.41665Z" fill="#FFDE00"/>
</g>
</g>
</g>
<defs>
<filter id="filter0_d_1825_41167" x="-0.877441" y="1.40051" width="15.4834" height="15.5116" filterUnits="userSpaceOnUse" color-interpolation-filters="sRGB">
<feFlood flood-opacity="0" result="BackgroundImageFix"/>
<feColorMatrix in="SourceAlpha" type="matrix" values="0 0 0 0 0 0 0 0 0 0 0 0 0 0 0 0 0 0 127 0" result="hardAlpha"/>
<feOffset/>
<feGaussianBlur stdDeviation="1.5"/>
<feColorMatrix type="matrix" values="0 0 0 0 0 0 0 0 0 0 0 0 0 0 0 0 0 0 0.24 0"/>
<feBlend mode="normal" in2="BackgroundImageFix" result="effect1_dropShadow_1825_41167"/>
<feBlend mode="normal" in="SourceGraphic" in2="effect1_dropShadow_1825_41167" result="shape"/>
</filter>
</defs>
</svg>
