<svg width="20" height="15" viewBox="0 0 20 15" fill="none" xmlns="http://www.w3.org/2000/svg">
<g clip-path="url(#clip0_14_454)">
<mask id="mask0_14_454" style="mask-type:luminance" maskUnits="userSpaceOnUse" x="0" y="0" width="21" height="16">
<path d="M0 0H20.0543V15.04H0V0Z" fill="white"/>
</mask>
<g mask="url(#mask0_14_454)">
<path d="M0 0H22.56V15.04H0V0Z" fill="#002B7F"/>
<path d="M0 9.40002H22.56V11.28H0V9.40002Z" fill="#F9E814"/>
<path d="M2.50687 1.25342L2.75756 2.13082H3.7603L2.8829 2.50685L3.13359 3.38425L2.50687 3.00822L1.75481 3.50959L2.0055 2.63219L1.37878 2.13082H2.25619L2.50687 1.25342Z" fill="white"/>
<path d="M5.0143 3.3429L5.34859 4.5129H6.68574L5.51573 5.01433L5.85002 6.18434L5.0143 5.68291L4.01144 6.35148L4.34573 5.18148L3.51001 4.5129H4.68002L5.0143 3.3429Z" fill="white"/>
</g>
</g>
<defs>
<clipPath id="clip0_14_454">
<rect width="20" height="15" fill="white"/>
</clipPath>
</defs>
</svg>
