<svg width="20" height="15" viewBox="0 0 20 15" fill="none" xmlns="http://www.w3.org/2000/svg">
<g clip-path="url(#clip0_14_334)">
<path d="M0 0H20V15H0V0Z" fill="#0021AD"/>
<path d="M0 0H20V15L0 0Z" fill="#1C8A42"/>
<path d="M9.99998 9.30623C10.9975 9.30623 11.8062 8.49754 11.8062 7.49998C11.8062 6.50241 10.9975 5.69373 9.99998 5.69373C9.00241 5.69373 8.19373 6.50241 8.19373 7.49998C8.19373 8.49754 9.00241 9.30623 9.99998 9.30623Z" fill="#FFC639"/>
<path d="M8.89688 6.68748C9.02188 6.85935 9.20938 7.14373 9.35938 7.06873C9.47501 7.06873 9.53751 7.0781 9.55313 7.15623C9.74884 7.17559 9.94625 7.14471 10.1267 7.06652C10.3072 6.98832 10.4647 6.86539 10.5844 6.70935C10.5844 6.70935 10.6094 6.70935 10.6 6.56873C10.6 6.50623 10.6875 6.51873 10.6875 6.53748C10.7 6.56873 10.7 6.5906 10.7156 6.59373C10.7469 6.58123 10.8 6.49998 10.8406 6.44998C10.85 6.4281 10.8438 6.4031 10.8469 6.37498C10.8688 6.32185 10.9219 6.33435 10.9344 6.36248L10.9531 6.41248C11.0094 6.44998 11.1094 6.41248 11.1156 6.41248C11.125 6.36873 11.1531 6.37498 11.1531 6.37498C11.1906 6.3656 11.175 6.36873 11.2 6.38123C11.1781 6.62185 11.2469 6.63123 11.2406 6.75623C11.2438 6.89373 11.2 6.93123 11.2 6.98435C11.2125 7.04685 11.4188 7.04998 11.3438 7.10623C11.2813 7.13748 11.3438 7.19998 11.25 7.22498C10.975 7.3656 10.925 7.48435 10.925 7.48435C10.925 7.48435 10.8563 7.6156 10.8469 7.6156C10.8 7.7031 10.7438 7.6531 10.7094 7.69685C10.6938 7.74998 10.6781 7.86873 10.7094 7.9281C10.725 8.01248 10.7094 8.05935 10.6875 8.14373C10.6688 8.31873 10.6 8.34685 10.5906 8.40623C10.5594 8.47498 10.5969 8.78123 10.5656 8.78123C10.3625 8.78748 10.2063 8.74373 10.125 8.7281C10.2031 8.38748 10.1719 8.0906 10.1719 8.05935C10.1531 7.8156 9.80938 7.87498 9.75626 7.8406C9.71251 7.83435 9.68438 7.79998 9.67188 7.78435C9.62188 7.7781 9.60313 7.7656 9.55626 7.76248C9.53126 7.77498 9.54688 7.78748 9.49376 7.8031C9.35313 7.81873 9.29376 7.68435 9.29376 7.68435C9.30001 7.63748 8.98438 7.69373 8.81563 7.6531C8.74376 7.69373 8.71251 7.80935 8.65626 7.82185C8.65626 7.85623 8.56251 7.7906 8.54376 7.75935C8.53751 7.6531 8.63126 7.60935 8.63126 7.60935C8.70626 7.55623 8.75001 7.54685 8.78751 7.51248C8.80313 7.42185 8.79376 7.35623 8.83438 7.2906C8.86563 7.23748 8.91251 7.25935 8.94376 7.2406C8.97813 7.2156 8.99376 7.0656 8.96251 7.02185L8.81563 6.8906C8.77188 6.76248 8.86876 6.6781 8.89688 6.68748Z" fill="#1C8A42"/>
<path d="M17.5594 4.44997C17.4781 4.1281 16.7469 3.4281 16.1937 2.98435C16.0625 2.89685 15.975 2.94997 15.9937 3.0781C16.0625 3.1906 16.1125 3.3156 16.1812 3.43122C16.2 3.50935 16.2375 3.56247 16.2562 3.63747C16.2562 3.63747 16.2625 3.76872 16.275 3.78122C16.4437 3.96872 16.4687 4.1281 16.4687 4.1281C16.5549 4.3129 16.6771 4.47864 16.8281 4.6156C17.0219 4.73747 16.8781 5.1156 16.8844 5.31872C16.8844 5.44372 16.7937 5.43122 16.7125 5.41247C16.0844 4.83435 15.4594 4.83435 14.9062 4.6656C14.6937 4.64372 14.6875 4.74685 14.7594 4.8031C15.1038 5.18672 15.5186 5.50073 15.9812 5.7281L16.2219 5.8781L16.4969 6.10622C16.7094 6.24372 16.725 6.36872 16.725 6.38122C16.7312 6.63747 16.5937 6.83747 16.5531 6.91872C16.4812 7.1906 16.3344 7.23747 16.3344 7.23747C15.1594 8.03122 14.5406 8.23747 12.6344 7.9906C12.6031 7.9781 12.4219 8.00622 12.6344 8.08435C13.1187 8.24685 14.3125 8.50622 15.4656 7.95935C15.7469 7.7656 15.9281 7.8281 16.1312 7.70935C16.4168 7.53251 16.7121 7.37184 17.0156 7.2281C17.275 7.08747 17.9937 6.93435 18.1594 6.79685C18.35 6.78122 18.5469 6.75622 18.5594 6.59372C18.6219 6.5531 18.7156 6.58435 18.7844 6.44997C18.9344 6.42185 18.9094 6.36872 18.9094 6.36872C18.8719 6.26247 18.7281 6.21872 18.6281 6.1406C18.4781 6.0906 18.3781 6.0781 18.2687 6.1281L18.1656 6.17497C18.1656 6.17497 18.0062 6.1531 18.0062 6.1406C17.65 6.12185 17.6844 4.94372 17.5594 4.4531V4.44997Z" fill="#FFC639"/>
<path d="M18.3938 6.38124C18.3913 6.38829 18.3866 6.39458 18.3801 6.39976C18.3735 6.40494 18.3652 6.4089 18.3556 6.41141C18.346 6.41393 18.3353 6.41496 18.3241 6.41443C18.3129 6.4139 18.3014 6.41184 18.2903 6.40835C18.2793 6.40486 18.2688 6.40002 18.2595 6.3941C18.2502 6.38818 18.2423 6.3813 18.2363 6.37385C18.2302 6.3664 18.2261 6.35853 18.2242 6.35068C18.2222 6.34283 18.2225 6.33517 18.225 6.32812C18.2301 6.31389 18.2438 6.30303 18.2632 6.29795C18.2826 6.29287 18.3061 6.29397 18.3285 6.30101C18.3509 6.30806 18.3703 6.32047 18.3826 6.33552C18.3948 6.35056 18.3988 6.36701 18.3938 6.38124Z" fill="#1C8A42"/>
<path d="M3.76388 6.31997L3.50788 6.07997L3.24988 6.31597L3.27788 5.96797L2.93188 5.91197L3.22188 5.71597L3.04988 5.41197L3.38388 5.51797L3.51388 5.19397L3.63988 5.51997L3.97388 5.41997L3.79788 5.71997L4.08588 5.91997L3.73988 5.96997L3.76388 6.31797V6.31997Z" fill="white"/>
<path d="M4.668 9.20998L4.392 9.02798L4.124 9.21998L4.22 8.90998L3.948 8.71998L4.28 8.71198L4.38 8.40198L4.492 8.70798L4.826 8.70598L4.56 8.89998L4.666 9.20798L4.668 9.20998Z" fill="white"/>
<path d="M3.81393 11.702L3.55793 11.462L3.29993 11.698L3.32793 11.35L2.98193 11.294L3.27193 11.098L3.09993 10.794L3.43393 10.9L3.56393 10.576L3.68993 10.902L4.02393 10.802L3.84793 11.102L4.13593 11.302L3.78993 11.352L3.81393 11.7V11.702Z" fill="white"/>
<path d="M1.52194 8.78396L1.26594 8.54396L1.00794 8.77996L1.03594 8.43196L0.689941 8.37596L0.979941 8.17996L0.807941 7.87596L1.14194 7.98196L1.27194 7.65796L1.39794 7.98396L1.73194 7.88396L1.55594 8.18396L1.84394 8.38396L1.49794 8.43396L1.52194 8.78196V8.78396Z" fill="white"/>
<path d="M5.93198 8.01998L5.67598 7.77998L5.41798 8.01598L5.44598 7.66798L5.09998 7.61198L5.38998 7.41598L5.21798 7.11198L5.55198 7.21798L5.68198 6.89398L5.80798 7.21998L6.14198 7.11998L5.96598 7.41998L6.25398 7.61998L5.90798 7.66998L5.93198 8.01798V8.01998Z" fill="white"/>
</g>
<defs>
<clipPath id="clip0_14_334">
<rect width="20" height="15" fill="white"/>
</clipPath>
</defs>
</svg>
