<svg width="20" height="15" viewBox="0 0 20 15" fill="none" xmlns="http://www.w3.org/2000/svg">
<g clip-path="url(#clip0_14_451)">
<path d="M0 0H20V15H0V0Z" fill="white"/>
<path d="M9.61872 12.4562C9.61628 12.4545 9.61417 12.4524 9.61247 12.45H9.60934L9.56872 12.4062L9.44997 12.2656L9.29684 12.0687L9.27809 12.0406L9.08435 11.9812L8.9406 11.9156L9.01559 11.8312L9.27809 11.9406L9.47185 11.9812L9.83122 12.2469L9.72809 12.3375C9.6914 12.3717 9.65695 12.4082 9.62497 12.4469L9.64685 12.4312L9.67184 12.45L9.62184 12.4562H9.61872ZM8.28747 12.0562C8.11126 12.0547 7.93866 12.0061 7.78747 11.9156C7.78747 11.9156 7.80935 11.875 7.85935 11.8406C7.90935 11.8031 7.99685 11.7625 8.1406 11.7594C8.30935 11.7594 8.51559 11.8187 8.74997 11.9281C8.60993 12.0108 8.4501 12.054 8.28747 12.0531V12.0562ZM7.5531 11.8937C7.52185 11.8937 7.4906 11.8812 7.47185 11.8625C7.45413 11.8409 7.44229 11.815 7.43747 11.7875C7.42917 11.7527 7.42601 11.7169 7.4281 11.6812C7.44112 11.6766 7.45491 11.6745 7.46872 11.675C7.53122 11.675 7.58122 11.7281 7.6031 11.7812C7.6156 11.8125 7.61872 11.8375 7.60935 11.8594C7.6031 11.8781 7.5781 11.8906 7.5531 11.8906V11.8937ZM8.84372 11.7437C8.40934 11.6812 8.22497 11.525 8.14685 11.4031C8.0656 11.275 8.08435 11.1531 8.08435 11.1531C8.08435 11.1531 8.10935 11.1469 8.14685 11.1469C8.2656 11.1469 8.55934 11.2062 8.84372 11.7406V11.7437ZM7.9531 11.6562C7.76872 11.6562 7.6281 11.625 7.53435 11.5625C7.49427 11.5373 7.46185 11.5017 7.4406 11.4594C7.43389 11.4434 7.42968 11.4266 7.4281 11.4094C7.49935 11.3797 7.5759 11.3648 7.6531 11.3656C7.76463 11.3696 7.87427 11.3957 7.97565 11.4424C8.07703 11.489 8.16815 11.5554 8.24372 11.6375C8.13747 11.65 8.0406 11.6562 7.9531 11.6562ZM7.05622 11.625C6.86247 11.625 6.59372 11.5625 6.42497 11.3969C6.42497 11.3969 6.60935 11.35 6.81247 11.3437H6.84997C7.03435 11.3437 7.17497 11.3781 7.26872 11.45C7.29997 11.475 7.31872 11.4969 7.32185 11.5187C7.32497 11.5375 7.3156 11.5562 7.29685 11.5719C7.2531 11.6031 7.1781 11.6219 7.07185 11.6219H7.05622V11.625ZM6.42185 11.2969C6.40976 11.2966 6.39788 11.2937 6.38706 11.2883C6.37625 11.2829 6.36678 11.2751 6.35935 11.2656C6.34629 11.247 6.33773 11.2256 6.33435 11.2031C6.32497 11.1594 6.3281 11.1156 6.3281 11.1125C6.33794 11.1082 6.3486 11.1061 6.35935 11.1062C6.38747 11.1062 6.40935 11.1219 6.42185 11.1375C6.44085 11.1549 6.45579 11.1762 6.4656 11.2C6.47185 11.2281 6.47497 11.25 6.4656 11.2687C6.4656 11.2812 6.44685 11.3 6.42497 11.3L6.42185 11.2969ZM7.88747 11.2656C7.85622 11.2656 7.82497 11.2531 7.80622 11.2344C7.7885 11.2127 7.77666 11.1869 7.77185 11.1594C7.76354 11.1246 7.76038 11.0888 7.76247 11.0531C7.7755 11.0485 7.78928 11.0464 7.8031 11.0469C7.8656 11.0469 7.91872 11.1 7.93747 11.1531C7.94997 11.1844 7.9531 11.2094 7.94685 11.2312C7.93747 11.25 7.9156 11.2625 7.88435 11.2625L7.88747 11.2656ZM7.17497 11.2344C6.78122 11.2219 6.57497 11.1094 6.47497 11.0156C6.43139 10.9779 6.39534 10.9323 6.36872 10.8812C6.3531 10.85 6.34685 10.825 6.34685 10.8187C6.34685 10.8125 6.38435 10.8062 6.4406 10.8062H6.4531C6.58435 10.8062 6.85622 10.8625 7.17185 11.2344H7.17497ZM7.59997 11.1969C7.37506 11.1724 7.16595 11.0695 7.00935 10.9062C6.9517 10.8432 6.90804 10.7686 6.88122 10.6875C6.88122 10.6875 6.91872 10.6781 6.97497 10.675C6.98538 10.6746 6.99581 10.6746 7.00622 10.675C7.16247 10.6781 7.4531 10.75 7.59997 11.1969ZM5.97497 11.0406C5.87515 11.0415 5.77554 11.031 5.6781 11.0094C5.51247 10.9656 5.4406 10.9031 5.40935 10.8562C5.39657 10.8375 5.38804 10.8161 5.38435 10.7937C5.38336 10.7854 5.38336 10.777 5.38435 10.7687C5.38435 10.7687 5.49372 10.7375 5.64685 10.7344C5.72438 10.7324 5.80189 10.7387 5.8781 10.7531C6.03751 10.7867 6.1795 10.8766 6.2781 11.0062C6.2781 11.0062 6.1531 11.0437 5.97497 11.0437V11.0406ZM6.70935 10.7781C6.69488 10.7785 6.68049 10.7759 6.66706 10.7706C6.65362 10.7652 6.64143 10.7571 6.63122 10.7469C6.6135 10.7252 6.60166 10.6994 6.59685 10.6719C6.58435 10.6219 6.58747 10.5719 6.58747 10.5656C6.59931 10.5603 6.61201 10.5571 6.62497 10.5562H6.6281C6.6906 10.5562 6.7406 10.6125 6.76247 10.6656C6.77497 10.6969 6.77497 10.7219 6.76872 10.7406C6.75935 10.7625 6.73747 10.775 6.70935 10.775V10.7781ZM6.15935 10.7C6.05384 10.6701 5.95291 10.6259 5.85935 10.5687C5.72185 10.4844 5.54997 10.3344 5.53122 10.1L5.56247 10.0969H5.57185C5.61247 10.0969 5.69685 10.1062 5.79997 10.1844C5.93122 10.2844 6.04997 10.4594 6.15935 10.7ZM6.51872 10.6875C6.43254 10.6483 6.35253 10.5967 6.28122 10.5344C6.09833 10.3765 5.95583 10.1772 5.8656 9.95312C5.8656 9.95312 5.89372 9.93749 5.93747 9.93437C5.93955 9.9343 5.94164 9.9343 5.94372 9.93437H5.95622C6.01872 9.93437 6.10935 9.96249 6.20935 10.0719C6.3281 10.1969 6.43122 10.4031 6.52185 10.6875H6.51872ZM5.58435 10.6594C5.46247 10.6594 5.42185 10.5969 5.40935 10.5656C5.39724 10.5359 5.39293 10.5037 5.39685 10.4719C5.41736 10.4673 5.43834 10.4652 5.45935 10.4656C5.49816 10.4644 5.53672 10.4722 5.57198 10.4885C5.60724 10.5048 5.63822 10.529 5.66247 10.5594C5.66872 10.5719 5.68747 10.6031 5.67185 10.6312C5.65935 10.65 5.63122 10.6625 5.58435 10.6625V10.6594ZM5.31872 10.3219C5.22451 10.3229 5.13039 10.3156 5.03747 10.3C4.93122 10.2812 4.87185 10.1906 4.83747 10.1156C4.80622 10.0375 4.79372 9.95937 4.79372 9.95937C5.12497 9.96874 5.28434 10.0656 5.35622 10.1469C5.40161 10.1936 5.43019 10.254 5.43747 10.3187C5.43747 10.3187 5.38747 10.325 5.31872 10.325V10.3219ZM5.66247 9.97812C5.63576 9.94394 5.61073 9.90848 5.58747 9.87187C5.54685 9.80937 5.51247 9.74687 5.51247 9.69687C5.51247 9.64374 5.49997 9.54062 5.49372 9.47812L5.47497 9.33749C5.48435 9.33749 5.68122 9.41249 5.68122 9.59999C5.68122 9.78749 5.66247 9.97499 5.66247 9.97499V9.97812ZM5.40622 9.95937H5.39997C5.1856 9.89517 4.99029 9.77927 4.83122 9.62187C4.7781 9.55937 4.74372 9.45937 4.73435 9.32812C4.7281 9.23437 4.73435 9.15624 4.73435 9.14687C4.74555 9.1439 4.75717 9.14285 4.76872 9.14374C4.81247 9.14374 4.86247 9.16249 4.92497 9.20624C4.98299 9.24732 5.03735 9.29333 5.08747 9.34374C5.18747 9.44374 5.2656 9.54374 5.2656 9.54374C5.27497 9.55624 5.3281 9.65937 5.37497 9.75937C5.39691 9.80528 5.41368 9.8535 5.42497 9.90312C5.4281 9.92187 5.43122 9.93437 5.42497 9.94687C5.42349 9.95205 5.42015 9.9565 5.4156 9.95937C5.41148 9.9603 5.40721 9.9603 5.40309 9.95937H5.40622Z" fill="#435125"/>
<path d="M8.93438 12.4562C8.93682 12.4545 8.93893 12.4524 8.94063 12.45H8.94376L8.98438 12.4062L9.10313 12.2656L9.25626 12.0687L9.27501 12.0406L9.46876 11.9812L9.61251 11.9156L9.53751 11.8312L9.27501 11.9406L9.08126 11.9812L8.72188 12.2469L8.82501 12.3375C8.8617 12.3717 8.89615 12.4082 8.92813 12.4469L8.90626 12.4312L8.88126 12.45L8.93126 12.4562H8.93438ZM10.2656 12.0562C10.4418 12.0547 10.6144 12.0061 10.7656 11.9156C10.7656 11.9156 10.7438 11.875 10.6938 11.8406C10.6438 11.8031 10.5563 11.7625 10.4125 11.7594C10.2438 11.7594 10.0375 11.8187 9.80313 11.9281C9.94317 12.0108 10.103 12.054 10.2656 12.0531V12.0562ZM11 11.8937C11.0313 11.8937 11.0625 11.8812 11.0813 11.8625C11.099 11.8409 11.1108 11.815 11.1156 11.7875C11.1239 11.7527 11.1271 11.7169 11.125 11.6812C11.112 11.6766 11.0982 11.6745 11.0844 11.675C11.0219 11.675 10.9719 11.7281 10.95 11.7812C10.9375 11.8125 10.9344 11.8375 10.9438 11.8594C10.95 11.8781 10.975 11.8906 11 11.8906V11.8937ZM9.70938 11.7437C10.1438 11.6812 10.3281 11.525 10.4063 11.4031C10.4875 11.275 10.4688 11.1531 10.4688 11.1531C10.4688 11.1531 10.4438 11.1469 10.4063 11.1469C10.2875 11.1469 9.99376 11.2062 9.70938 11.7406V11.7437ZM10.6 11.6562C10.7844 11.6562 10.925 11.625 11.0188 11.5625C11.0588 11.5373 11.0912 11.5017 11.1125 11.4594C11.1192 11.4434 11.1234 11.4266 11.125 11.4094C11.0538 11.3797 10.9772 11.3648 10.9 11.3656C10.7885 11.3696 10.6788 11.3957 10.5775 11.4424C10.4761 11.489 10.385 11.5554 10.3094 11.6375C10.4156 11.65 10.5125 11.6562 10.6 11.6562ZM11.4969 11.625C11.6906 11.625 11.9594 11.5625 12.1281 11.3969C12.1281 11.3969 11.9438 11.35 11.7406 11.3437H11.7031C11.5188 11.3437 11.3781 11.3781 11.2844 11.45C11.2531 11.475 11.2344 11.4969 11.2313 11.5187C11.2281 11.5375 11.2375 11.5562 11.2563 11.5719C11.3 11.6031 11.375 11.6219 11.4813 11.6219H11.4969V11.625ZM12.1313 11.2969C12.1433 11.2966 12.1552 11.2937 12.166 11.2883C12.1768 11.2829 12.1863 11.2751 12.1938 11.2656C12.2068 11.247 12.2154 11.2256 12.2188 11.2031C12.2281 11.1594 12.225 11.1156 12.225 11.1125C12.2152 11.1082 12.2045 11.1061 12.1938 11.1062C12.1656 11.1062 12.1438 11.1219 12.1313 11.1375C12.1123 11.1549 12.0973 11.1762 12.0875 11.2C12.0813 11.2281 12.0781 11.25 12.0875 11.2687C12.0875 11.2812 12.1063 11.3 12.1281 11.3L12.1313 11.2969ZM10.6656 11.2656C10.6969 11.2656 10.7281 11.2531 10.7469 11.2344C10.7646 11.2127 10.7764 11.1869 10.7813 11.1594C10.7896 11.1246 10.7927 11.0888 10.7906 11.0531C10.7776 11.0485 10.7638 11.0464 10.75 11.0469C10.6875 11.0469 10.6344 11.1 10.6156 11.1531C10.6031 11.1844 10.6 11.2094 10.6063 11.2312C10.6156 11.25 10.6375 11.2625 10.6688 11.2625L10.6656 11.2656ZM11.3781 11.2344C11.7719 11.2219 11.9781 11.1094 12.0781 11.0156C12.1217 10.9779 12.1578 10.9323 12.1844 10.8812C12.2 10.85 12.2063 10.825 12.2063 10.8187C12.2063 10.8125 12.1688 10.8062 12.1125 10.8062H12.1C11.9688 10.8062 11.6969 10.8625 11.3813 11.2344H11.3781ZM10.9531 11.1969C11.178 11.1724 11.3872 11.0695 11.5438 10.9062C11.6014 10.8432 11.6451 10.7686 11.6719 10.6875C11.6719 10.6875 11.6344 10.6781 11.5781 10.675C11.5677 10.6746 11.5573 10.6746 11.5469 10.675C11.3906 10.6781 11.1 10.75 10.9531 11.1969ZM12.5781 11.0406C12.678 11.0415 12.7776 11.031 12.875 11.0094C13.0406 10.9656 13.1125 10.9031 13.1438 10.8562C13.1565 10.8375 13.1651 10.8161 13.1688 10.7937C13.1697 10.7854 13.1697 10.777 13.1688 10.7687C13.1688 10.7687 13.0594 10.7375 12.9063 10.7344C12.8287 10.7324 12.7512 10.7387 12.675 10.7531C12.5156 10.7867 12.3736 10.8766 12.275 11.0062C12.275 11.0062 12.4 11.0437 12.5781 11.0437V11.0406ZM11.8438 10.7781C11.8582 10.7785 11.8726 10.7759 11.886 10.7706C11.8995 10.7652 11.9117 10.7571 11.9219 10.7469C11.9396 10.7252 11.9514 10.6994 11.9563 10.6719C11.9688 10.6219 11.9656 10.5719 11.9656 10.5656C11.9538 10.5603 11.9411 10.5571 11.9281 10.5562H11.925C11.8625 10.5562 11.8125 10.6125 11.7906 10.6656C11.7781 10.6969 11.7781 10.7219 11.7844 10.7406C11.7938 10.7625 11.8156 10.775 11.8438 10.775V10.7781ZM12.3938 10.7C12.4993 10.6701 12.6002 10.6259 12.6938 10.5687C12.8313 10.4844 13.0031 10.3344 13.0219 10.1L12.9906 10.0969H12.9813C12.9406 10.0969 12.8563 10.1062 12.7531 10.1844C12.6219 10.2844 12.5031 10.4594 12.3938 10.7ZM12.0344 10.6875C12.1206 10.6483 12.2006 10.5967 12.2719 10.5344C12.4548 10.3765 12.5973 10.1772 12.6875 9.95312C12.6875 9.95312 12.6594 9.93749 12.6156 9.93437C12.6135 9.9343 12.6115 9.9343 12.6094 9.93437H12.5969C12.5344 9.93437 12.4438 9.96249 12.3438 10.0719C12.225 10.1969 12.1219 10.4031 12.0313 10.6875H12.0344ZM12.9688 10.6594C13.0906 10.6594 13.1313 10.5969 13.1438 10.5656C13.1559 10.5359 13.1602 10.5037 13.1563 10.4719C13.1357 10.4673 13.1148 10.4652 13.0938 10.4656C13.0549 10.4644 13.0164 10.4722 12.9811 10.4885C12.9459 10.5048 12.9149 10.529 12.8906 10.5594C12.8844 10.5719 12.8656 10.6031 12.8813 10.6312C12.8938 10.65 12.9219 10.6625 12.9688 10.6625V10.6594ZM13.2344 10.3219C13.3286 10.3229 13.4227 10.3156 13.5156 10.3C13.6219 10.2812 13.6813 10.1906 13.7156 10.1156C13.7469 10.0375 13.7594 9.95937 13.7594 9.95937C13.4281 9.96874 13.2688 10.0656 13.1969 10.1469C13.1515 10.1936 13.1229 10.254 13.1156 10.3187C13.1156 10.3187 13.1656 10.325 13.2344 10.325V10.3219ZM12.8906 9.97812C12.9173 9.94394 12.9424 9.90848 12.9656 9.87187C13.0063 9.80937 13.0406 9.74687 13.0406 9.69687C13.0406 9.64374 13.0531 9.54062 13.0594 9.47812L13.0781 9.33749C13.0688 9.33749 12.8719 9.41249 12.8719 9.59999C12.8719 9.78749 12.8906 9.97499 12.8906 9.97499V9.97812ZM13.1469 9.95937H13.1531C13.3675 9.89517 13.5628 9.77927 13.7219 9.62187C13.775 9.55937 13.8094 9.45937 13.8188 9.32812C13.825 9.23437 13.8188 9.15624 13.8188 9.14687C13.8076 9.1439 13.7959 9.14285 13.7844 9.14374C13.7406 9.14374 13.6906 9.16249 13.6281 9.20624C13.5701 9.24732 13.5157 9.29333 13.4656 9.34374C13.3656 9.44374 13.2875 9.54374 13.2875 9.54374C13.2781 9.55624 13.225 9.65937 13.1781 9.75937C13.1562 9.80528 13.1394 9.8535 13.1281 9.90312C13.125 9.92187 13.1219 9.93437 13.1281 9.94687C13.1296 9.95205 13.1329 9.9565 13.1375 9.95937C13.1416 9.9603 13.1459 9.9603 13.15 9.95937H13.1469Z" fill="#435125"/>
<path d="M16.2188 2.38751L16.1625 2.40939L16.1375 2.41876L16.0688 2.41564L16 2.44689L15.8813 2.52814L15.8781 2.53126L15.8313 2.54376L15.7906 2.52501L15.7688 2.53751L15.7594 2.58439L15.7375 2.61876L15.7094 2.63751L15.6156 2.64689L15.5375 2.69064L15.4313 2.65939L15.3844 2.68126L15.2813 2.77501L15.2281 2.79689H15.2125L15.1406 2.79376L15.1125 2.80314L15.0688 2.84376L14.9875 2.85001L14.9594 2.86876L14.9188 2.95001L14.875 3.00001L14.85 3.00314L14.825 2.99376L14.8031 2.99689L14.7938 3.05001L14.775 3.07189L14.7188 3.09064L14.675 3.12814L14.6344 3.14689H14.5719L14.5188 3.17814L14.4219 3.18439L14.3813 3.22189L14.3719 3.23126L14.3531 3.24064L14.3219 3.25939L14.3156 3.26564L14.2781 3.25939L14.2344 3.27501L14.2156 3.25001L14.1844 3.26564L14.1469 3.26876L14.0969 3.24689L14.0563 3.22814L14.0281 3.23439L14.0188 3.28126V3.28751L13.9875 3.32501L13.9344 3.35939L13.9281 3.36876L13.8656 3.45001L13.7469 3.57501L13.6469 3.62501L13.5438 3.65626L13.4719 3.71564L13.2844 3.80939L12.9813 3.95939L12.9188 3.97814L12.8313 3.99064L12.675 4.05001L12.5375 4.09064L12.5281 4.09376L12.5031 4.10314L12.3063 4.16251L12.2156 4.15001L12.1625 4.17189L12.0219 4.15626H11.925L11.8625 4.16876L11.7469 4.22501L11.55 4.31876L11.4875 4.38126L11.3875 4.43126L11.2688 4.46876V4.41876L11.2281 4.43126L11.1969 4.44064L11.1031 4.45314H11.05L11.0156 4.44376H11.0094L10.8156 4.50939L10.5969 4.53126L10.4875 4.56564H10.4063L10.3563 4.58126L10.2563 4.59376L10.2188 4.58439L10.2125 4.58126L9.91877 4.59376L9.7844 4.57814L9.7219 4.59376L9.61252 4.55626L9.45627 4.53751L9.41877 4.52814L9.33752 4.50314L9.30002 4.52501L9.26877 4.52814L9.20627 4.50314H9.18127L9.12502 4.52189L9.09377 4.51564L9.06252 4.49064L8.9969 4.48126L8.95315 4.44689L8.71877 4.47814L8.65627 4.45939L8.44065 4.39689H8.4094L8.36565 4.42814L8.30315 4.45314L8.24377 4.46564L8.16877 4.46876L8.08127 4.44689L7.99377 4.40314L7.9594 4.39376L7.8844 4.40314H7.86252L7.72502 4.33126L7.55002 4.22189L7.43127 4.16251L7.3844 4.15626L7.37815 4.17814L7.40002 4.24689L7.4094 4.31876V4.38126L7.40627 4.42189L7.41565 4.45626L7.4594 4.50626L7.47815 4.55314L7.49065 4.68439V4.81876L7.46877 5.03126L7.46252 5.06251L7.43752 5.17501L7.41565 5.27814L7.32502 5.55001L7.30315 5.58126L7.24065 5.62189L7.10627 5.71564L7.00627 5.77189L6.97502 5.78439L6.89377 5.79064H6.84377L6.78127 5.75626L6.71877 5.74064L6.63752 5.68126L6.55002 5.66251L6.45002 5.60626L6.42502 5.57501L6.3719 5.56876L6.2969 5.54689L6.26877 5.53751L6.25002 5.53439L6.15627 5.53126L6.06565 5.49064L6.01877 5.47814H5.95627L5.89065 5.50939L5.85627 5.52189L5.81252 5.50626H5.78127L5.75002 5.55939L5.74377 5.56876L5.71877 5.58126H5.66565L5.64065 5.59064L5.60627 5.60626L5.57502 5.61876L5.5594 5.62501H5.55002L5.5344 5.63126H5.51565L5.47815 5.61251L5.4594 5.60314L5.42815 5.59689L5.41252 5.60626L5.4094 5.66564L5.39377 5.70001L5.34377 5.74376L5.29377 5.78751L5.26252 5.83751L5.16877 6.04689L5.1094 6.13126L5.09377 6.15314L5.03127 6.21876L4.97815 6.25939L4.85627 6.35314L4.74065 6.40001L4.64065 6.41876H4.59065L4.4969 6.40626L4.41565 6.38126L4.3219 6.32501L4.22502 6.24376L4.07815 6.10314L4.0594 6.09064L4.05315 6.08751L4.0094 6.05626H3.97502L3.96252 6.08126L3.95315 6.11251L3.9469 6.14064L3.93127 6.29689V6.30626L3.94065 6.37189L4.05315 6.52814L4.0844 6.60939L4.09065 6.61876L4.11252 6.65626L4.13127 6.68751L4.1719 6.80001L4.14377 6.86251L4.15627 6.90626L4.12502 6.93126L4.11877 6.96876L4.21565 7.09376L4.23752 7.14689L4.21565 7.22189L4.17502 7.26564L4.16565 7.27501L4.1719 7.30626L4.21565 7.35001L4.29377 7.41876L4.3344 7.51876L4.36565 7.55001L4.40315 7.54064L4.4219 7.55626H4.45315L4.4844 7.58751L4.50315 7.59376L4.5344 7.60939L4.5594 7.64064L4.56252 7.74064L4.6094 7.85939V7.93751L4.64065 7.98439L4.6469 8.02189L4.63127 8.12501L4.66877 8.15626L4.70627 8.15001L4.73127 8.15314L4.7719 8.18751L4.8219 8.26251L4.8719 8.25626L4.90315 8.26876L5.05002 8.40314L5.08127 8.42189L5.1094 8.43439L5.14065 8.46564L5.1844 8.43439H5.19065L5.24065 8.42814L5.26252 8.44376L5.30627 8.47189H5.3594L5.4844 8.50939L5.5344 8.52189L5.64065 8.58751L5.68752 8.61564L5.71252 8.63751L5.75002 8.66876L5.81877 8.70001L5.88127 8.71251L5.91252 8.71876L5.94065 8.72814L6.0719 8.78126L6.14377 8.79689L6.20627 8.82189L6.25627 8.83751H6.29377L6.34377 8.79689H6.39065L6.43127 8.80314L6.4719 8.79689L6.5344 8.75939L6.54377 8.74064L6.58752 8.72189L6.73752 8.70314L6.78127 8.71564L6.89377 8.66876L6.96877 8.68751L7.03127 8.66564L7.17815 8.69689L7.21565 8.72501L7.2594 8.77189H7.31252L7.29065 8.80626L7.35315 8.87501L7.41252 8.95939L7.41565 8.97189L7.45627 9.09376L7.48752 9.13751L7.5094 9.19689V9.23439L7.47815 9.26251L7.4719 9.27501V9.28126L7.47815 9.29689L7.49065 9.29064L7.51252 9.27814L7.54377 9.27189L7.59377 9.27814L7.62815 9.28126L7.68127 9.25626L7.71877 9.23751L7.77502 9.26251H7.83752L7.86565 9.27189L7.94065 9.30626L7.97815 9.30939L7.99065 9.30001L8.00002 9.28126L7.9969 9.25626L7.96565 9.22189L7.90315 9.14689L7.87815 9.10939L7.8594 9.05626L7.85315 8.98751L7.8469 8.94064L7.85627 8.87814L7.8719 8.85626L7.8844 8.80626L7.88752 8.79376L7.92502 8.74689L8.01877 8.68439L8.11877 8.59689L8.1969 8.54376L8.27815 8.50939V8.50001L8.29065 8.50314L8.4969 8.43126L8.59065 8.41564L9.21565 8.45939L9.23752 8.45314L9.2594 8.39376L9.26877 8.38439L9.27815 8.37814L9.3469 8.34689L9.37815 8.34064L9.46565 8.36251L9.50315 8.37189L9.56252 8.34064H9.60315L9.68752 8.29376H9.74065L9.76252 8.28751L9.86565 8.21251L9.96252 8.18439L9.98752 8.17189L9.9969 8.16564L10.1 8.11251L10.1625 8.06251L10.2188 8.03126L10.2813 8.01876L10.4375 8.00626L10.4719 7.95314L10.5406 7.94376L10.5813 7.89689L10.6281 7.87814L10.6625 7.82814L10.6938 7.78751L10.7313 7.76564L10.8594 7.75626L11.0094 7.77501L11.0313 7.76251L11.0625 7.64064L11.1 7.61876L11.1938 7.47814V7.42814L11.1969 7.38439L11.2125 7.32189L11.2031 7.21564L11.2156 7.10314L11.275 6.96251L11.3281 6.90626L11.4125 6.84689L11.4563 6.82814L11.5188 6.81876H11.525L11.5406 6.81251H11.8281L11.9 6.80939L12.0781 6.84064H12.0906L12.15 6.86251L12.2188 6.91564L12.2938 6.98751L12.3063 7.00001L12.3531 7.02189L12.3688 7.02814L12.4063 7.02189L12.4625 6.99064L12.5063 6.95939L12.5625 6.92814V6.92189L12.5969 6.87501L12.6094 6.85314L12.7219 6.80939L12.8531 6.80314L12.8688 6.79376H12.875L12.9094 6.75001H12.9406L13.0219 6.78126L13.075 6.76876L13.1188 6.78439L13.1531 6.78126L13.2156 6.77189L13.2875 6.82189L13.3281 6.82814L13.4688 6.90939H13.4813L13.4875 6.91251L13.5031 6.90626L13.5281 6.90001H13.5313L13.5344 6.90314L13.5531 6.92501L13.575 6.92814L13.6 6.89689L13.5906 6.87814L13.5875 6.87189L13.5344 6.86251L13.4906 6.78439L13.5344 6.73751L13.4656 6.65626L13.4531 6.64064V6.63751L13.4281 6.60001L13.3094 6.41876L13.1531 6.29376L13.1 6.25314L13.0813 6.23751L12.9969 6.15314L12.9375 6.07501L12.9313 6.05939L12.9188 6.03126L12.8844 5.95626L12.8219 5.90939L12.7719 5.85314L12.6656 5.70939L12.65 5.68751L12.625 5.67189H12.5719L12.5688 5.66564H12.5656V5.66251L12.5906 5.63751L12.6219 5.63126L12.6313 5.60314L12.5781 5.45001V5.44376L12.575 5.39689L12.6156 5.17501L12.6219 5.14689L12.6969 5.00001L12.7406 4.96251L12.7906 4.86564L12.8344 4.80314L12.875 4.76251L12.8813 4.75939L12.9531 4.71564L13.0156 4.70626L13.075 4.69689L13.1781 4.72814H13.2719L13.2938 4.72501L13.3375 4.71876L13.4094 4.69689L13.4438 4.67501L13.4625 4.65001L13.5 4.52501L13.5125 4.48439L13.5344 4.44064L13.6688 4.28751L13.7688 4.19376L13.9938 4.03126L14.1031 3.96564L14.1594 3.93126L14.6625 3.70626L14.7938 3.57501L14.8625 3.50626L14.9813 3.42501L15.1219 3.36564L15.2469 3.27189L15.2719 3.23751L15.3031 3.12814L15.3344 3.12189L15.3563 3.06876L15.3656 3.05314L15.4625 2.98439L15.475 2.97814L15.8594 2.78439L15.9156 2.79376L15.9469 2.74689L16.0563 2.72814H16.0781L16.1063 2.71251L16.1281 2.67189V2.66251L16.1313 2.55626L16.1563 2.52814L16.1688 2.45939L16.1813 2.44064L16.1938 2.42501L16.225 2.40314L16.2188 2.39064V2.38751Z" fill="#D47600"/>
</g>
<defs>
<clipPath id="clip0_14_451">
<rect width="20" height="15" fill="white"/>
</clipPath>
</defs>
</svg>
