<svg width="20" height="15" viewBox="0 0 20 15" fill="none" xmlns="http://www.w3.org/2000/svg">
<g clip-path="url(#clip0_14_421)">
<mask id="mask0_14_421" style="mask-type:luminance" maskUnits="userSpaceOnUse" x="-1" y="0" width="22" height="16">
<path d="M-0.00622559 0H20.0481V15.04H-0.00622559V0Z" fill="white"/>
</mask>
<g mask="url(#mask0_14_421)">
<path fill-rule="evenodd" clip-rule="evenodd" d="M-5.09692 0H25.0859V15.04H-5.09692V0Z" fill="#108C00"/>
<path fill-rule="evenodd" clip-rule="evenodd" d="M-5.14685 5.23462H25.1858V6.70631H-5.14685V5.23462Z" fill="#FFD600"/>
<path fill-rule="evenodd" clip-rule="evenodd" d="M7.8075 0H9.23218V15.04H7.81043L7.8075 0Z" fill="#FFD600"/>
<path fill-rule="evenodd" clip-rule="evenodd" d="M9.18225 0H10.604V15.04H9.18225V0Z" fill="black"/>
<path fill-rule="evenodd" clip-rule="evenodd" d="M-5.14685 6.65637H25.1858V8.131H-5.14685V6.65637Z" fill="black"/>
<path fill-rule="evenodd" clip-rule="evenodd" d="M-5.14685 8.13098H25.1858V9.60267H-5.14685V8.13098Z" fill="white"/>
<path fill-rule="evenodd" clip-rule="evenodd" d="M10.604 0H12.0287V15.04H10.604V0Z" fill="white"/>
<path d="M6.03916 7.53174C6.03916 9.76245 7.83962 11.5708 10.0606 11.5708C12.2816 11.5708 14.082 9.76245 14.082 7.53174C14.082 5.30103 12.2816 3.49268 10.0606 3.49268C7.83962 3.49268 6.03916 5.30103 6.03916 7.53174Z" fill="#E72910"/>
<path fill-rule="evenodd" clip-rule="evenodd" d="M9.84908 4.02438L10.0136 3.55438L10.1634 4.01557C10.1634 4.01557 10.6657 4.03026 10.6657 4.02144C10.6657 4.01263 10.2691 4.32401 10.2691 4.32401L10.4483 4.84101C10.4425 4.82632 10.0136 4.52082 10.0136 4.52082C10.0136 4.52082 9.57883 4.82632 9.58764 4.82632C9.59645 4.82632 9.75214 4.32694 9.75214 4.32694L9.36145 4.03026L9.84908 4.02144V4.02438Z" fill="black"/>
<path fill-rule="evenodd" clip-rule="evenodd" d="M9.87259 4.04495L10.0107 3.64252L10.1399 4.04202C10.1399 4.04202 10.5776 4.05377 10.5776 4.04789C10.5776 4.04202 10.2339 4.31227 10.2339 4.31227L10.3867 4.75877C10.3808 4.74408 10.0107 4.48264 10.0107 4.48264C10.0107 4.48264 9.63466 4.74702 9.64053 4.74702C9.64641 4.74702 9.78741 4.31227 9.78741 4.31227L9.44666 4.05377L9.86966 4.04789L9.87259 4.04495Z" fill="#FFE700"/>
<path fill-rule="evenodd" clip-rule="evenodd" d="M9.9313 4.1125L10.0136 3.8775L10.0899 4.10956C10.0899 4.10956 10.3396 4.11544 10.3396 4.10956C10.3396 4.10369 10.1428 4.26232 10.1428 4.26232L10.2309 4.52081C10.228 4.512 10.0136 4.36219 10.0136 4.36219L9.80205 4.51494C9.80793 4.51494 9.8843 4.26525 9.8843 4.26525L9.69043 4.11838L9.9313 4.1125Z" fill="#108C00"/>
<path fill-rule="evenodd" clip-rule="evenodd" d="M12.9746 6.22165L13.1391 5.75165L13.2859 6.21284C13.2859 6.21284 13.7912 6.23046 13.7912 6.22165C13.7912 6.21284 13.3946 6.52421 13.3946 6.52421L13.5709 7.04121C13.565 7.02652 13.1391 6.72102 13.1391 6.72102C13.1391 6.72102 12.7043 7.02652 12.7131 7.02652C12.7219 7.02652 12.8776 6.52715 12.8776 6.52715L12.4869 6.22752L12.9746 6.21871V6.22165Z" fill="black"/>
<path fill-rule="evenodd" clip-rule="evenodd" d="M12.9951 6.24517L13.1391 5.83685L13.2683 6.23929C13.2683 6.23929 13.7031 6.25104 13.7031 6.24517C13.7031 6.23929 13.3594 6.50954 13.3594 6.50954L13.5151 6.9531C13.5092 6.94135 13.1391 6.67698 13.1391 6.67698C13.1391 6.67698 12.7631 6.94135 12.7689 6.94135C12.7748 6.94135 12.9129 6.5066 12.9129 6.5066L12.5751 6.25104L12.9951 6.24517Z" fill="#FFE700"/>
<path fill-rule="evenodd" clip-rule="evenodd" d="M13.0568 6.3127L13.1391 6.0777L13.2125 6.30682L13.4651 6.3127L13.2654 6.46251C13.2654 6.46251 13.3594 6.72689 13.3535 6.72101C13.3535 6.7122 13.1391 6.56239 13.1391 6.56239L12.9246 6.7122L13.0069 6.46251L12.813 6.31564L13.0568 6.3127Z" fill="#108C00"/>
<path fill-rule="evenodd" clip-rule="evenodd" d="M12.0639 9.71139L12.2284 9.24139L12.3753 9.70552C12.3753 9.70552 12.8805 9.72021 12.8805 9.71433C12.8805 9.70846 12.484 10.0169 12.484 10.0169L12.6602 10.531C12.6544 10.5163 12.2284 10.2137 12.2284 10.2137C12.2284 10.2137 11.7937 10.5163 11.7995 10.5163C11.8054 10.5163 11.967 10.0169 11.967 10.0169L11.5763 9.72314L12.0639 9.71433V9.71139Z" fill="black"/>
<path fill-rule="evenodd" clip-rule="evenodd" d="M12.0845 9.7349L12.2284 9.32953L12.3577 9.72903C12.3577 9.72903 12.7924 9.74372 12.7924 9.7349C12.7924 9.72609 12.4487 9.99928 12.4487 9.99928L12.6044 10.4458C12.5986 10.4311 12.2284 10.1697 12.2284 10.1697C12.2284 10.1697 11.8524 10.434 11.8583 10.434C11.8642 10.434 12.0022 9.99928 12.0022 9.99928L11.6644 9.74372L12.0845 9.7349Z" fill="#FFE700"/>
<path fill-rule="evenodd" clip-rule="evenodd" d="M12.1462 9.80244L12.2284 9.56744L12.3018 9.79951C12.3018 9.79951 12.5545 9.80832 12.5545 9.80244C12.5545 9.79657 12.3547 9.95519 12.3547 9.95519L12.4428 10.2108C12.4428 10.2049 12.2284 10.0521 12.2284 10.0521L12.014 10.2049L12.0962 9.95519L11.9023 9.80832L12.1462 9.80244Z" fill="#108C00"/>
<path fill-rule="evenodd" clip-rule="evenodd" d="M7.69588 9.71139L7.86038 9.24139L8.00725 9.70552C8.00725 9.70552 8.50956 9.72021 8.50956 9.71433C8.50956 9.70846 8.113 10.0169 8.113 10.0169L8.29513 10.531C8.28631 10.5163 7.86038 10.2137 7.86038 10.2137C7.86038 10.2137 7.42563 10.5163 7.4315 10.5163C7.43738 10.5163 7.59894 10.0169 7.59894 10.0169L7.20825 9.72314L7.69588 9.71433V9.71139Z" fill="black"/>
<path fill-rule="evenodd" clip-rule="evenodd" d="M7.71939 9.7349L7.86039 9.32953L7.98964 9.72903C7.98964 9.72903 8.42439 9.74372 8.42439 9.7349C8.42439 9.72609 8.0807 9.99928 8.0807 9.99928L8.23639 10.4458C8.23051 10.4311 7.86039 10.1697 7.86039 10.1697C7.86039 10.1697 7.48439 10.434 7.49026 10.434C7.49614 10.434 7.6342 9.99928 7.6342 9.99928L7.29639 9.74372L7.71645 9.7349H7.71939Z" fill="#FFE700"/>
<path fill-rule="evenodd" clip-rule="evenodd" d="M7.77811 9.80244L7.86036 9.56744L7.9338 9.79951C7.9338 9.79951 8.18643 9.80832 8.18643 9.80244C8.18643 9.79657 7.98668 9.95519 7.98668 9.95519L8.0748 10.2108C8.0748 10.2049 7.86036 10.0521 7.86036 10.0521L7.64593 10.2049L7.72818 9.95519L7.5343 9.80832L7.77811 9.80244Z" fill="#108C00"/>
<path fill-rule="evenodd" clip-rule="evenodd" d="M6.89693 6.13058L7.06143 5.66058L7.21124 6.12471C7.21124 6.12471 7.71355 6.1394 7.71355 6.13058C7.71355 6.12177 7.31699 6.43608 7.31699 6.43608L7.49618 6.95015C7.48736 6.93546 7.06143 6.6329 7.06143 6.6329C7.06143 6.6329 6.62668 6.93252 6.63549 6.93252C6.6443 6.93252 6.79999 6.43315 6.79999 6.43315L6.4093 6.1394L6.89693 6.13058Z" fill="black"/>
<path fill-rule="evenodd" clip-rule="evenodd" d="M6.92044 6.15409L7.06144 5.74872L7.19362 6.14822C7.19362 6.14822 7.62544 6.16291 7.62544 6.15409C7.62544 6.14528 7.28175 6.41847 7.28175 6.41847L7.43744 6.86497C7.43156 6.85028 7.06144 6.58884 7.06144 6.58884C7.06144 6.58884 6.68544 6.85322 6.69425 6.85322C6.70306 6.85322 6.83525 6.41847 6.83525 6.41847L6.49744 6.16291L6.92044 6.15409Z" fill="#FFE700"/>
<path fill-rule="evenodd" clip-rule="evenodd" d="M6.97916 6.22163L7.06141 5.98663L7.13778 6.2187L7.38747 6.22163L7.19066 6.37438L7.27878 6.62995C7.27584 6.62407 7.06141 6.47132 7.06141 6.47132L6.84991 6.62407C6.85578 6.62407 6.93216 6.37438 6.93216 6.37438L6.73828 6.22751L6.97916 6.22163Z" fill="#108C00"/>
<path fill-rule="evenodd" clip-rule="evenodd" d="M12.0257 5.11417L11.8612 5.58417L11.7144 5.12298C11.7144 5.12298 11.2091 5.1083 11.2091 5.11417C11.2091 5.12005 11.6057 4.81161 11.6057 4.81161L11.4294 4.29755C11.4353 4.31223 11.8612 4.6148 11.8612 4.6148C11.8612 4.6148 12.296 4.31223 12.2872 4.31223C12.2784 4.31223 12.1227 4.81161 12.1227 4.81161L12.5134 5.10536L12.0257 5.11417Z" fill="black"/>
<path fill-rule="evenodd" clip-rule="evenodd" d="M12.0052 5.09069C12.0052 5.0995 11.8583 5.499 11.8583 5.499L11.732 5.0995C11.732 5.0995 11.2972 5.08481 11.2972 5.09069C11.2972 5.09656 11.6409 4.82925 11.6409 4.82925L11.4852 4.38275C11.4911 4.39744 11.8612 4.65888 11.8612 4.65888C11.8612 4.65888 12.2372 4.3945 12.2314 4.3945C12.2255 4.3945 12.0874 4.82925 12.0874 4.82925L12.4252 5.08481L12.0022 5.09069H12.0052Z" fill="#FFE700"/>
<path fill-rule="evenodd" clip-rule="evenodd" d="M11.9435 5.02311L11.8612 5.25811L11.7878 5.02899C11.7878 5.02899 11.5352 5.02017 11.5352 5.02605C11.5352 5.03192 11.7349 4.8733 11.7349 4.8733L11.6468 4.61774C11.6468 4.62361 11.8612 4.77636 11.8612 4.77636L12.0757 4.62361C12.0698 4.62361 11.9905 4.8733 11.9905 4.8733L12.1873 5.02017L11.9435 5.02605V5.02311Z" fill="#108C00"/>
<path fill-rule="evenodd" clip-rule="evenodd" d="M13.2801 8.52757L13.1156 8.99757L12.9688 8.53345C12.9688 8.53345 12.4635 8.51876 12.4635 8.52757C12.4635 8.53638 12.8601 8.22501 12.8601 8.22501L12.6838 7.70801C12.6897 7.7227 13.1156 8.02526 13.1156 8.02526C13.1156 8.02526 13.5504 7.7227 13.5416 7.7227C13.5328 7.7227 13.3771 8.22207 13.3771 8.22207L13.7707 8.51876L13.2831 8.52757H13.2801Z" fill="black"/>
<path fill-rule="evenodd" clip-rule="evenodd" d="M13.2596 8.50409L13.1156 8.90946L12.9864 8.50996C12.9864 8.50996 12.5516 8.49821 12.5516 8.50409C12.5516 8.50996 12.8953 8.23971 12.8953 8.23971L12.7396 7.79321C12.7455 7.8079 13.1156 8.06934 13.1156 8.06934C13.1156 8.06934 13.4916 7.80496 13.4858 7.80496C13.4799 7.80496 13.3418 8.23971 13.3418 8.23971L13.6796 8.49821L13.2566 8.50409H13.2596Z" fill="#FFE700"/>
<path fill-rule="evenodd" clip-rule="evenodd" d="M13.1979 8.43651L13.1156 8.67151L13.0422 8.43945C13.0422 8.43945 12.7896 8.43357 12.7896 8.43945C12.7896 8.44532 12.9893 8.2867 12.9893 8.2867L12.9012 8.0282C12.9012 8.03701 13.1156 8.18682 13.1156 8.18682L13.3301 8.03407C13.3242 8.03407 13.2449 8.2867 13.2449 8.2867L13.4417 8.43357L13.1979 8.43651Z" fill="#108C00"/>
<path fill-rule="evenodd" clip-rule="evenodd" d="M10.1693 11.0245L10.0048 11.4945L9.85791 11.0303C9.85791 11.0303 9.35266 11.0156 9.35266 11.0215C9.35266 11.0274 9.74922 10.719 9.74922 10.719L9.57297 10.2049C9.57885 10.2196 10.0048 10.5221 10.0048 10.5221C10.0048 10.5221 10.4395 10.2196 10.4307 10.2196C10.4219 10.2196 10.2662 10.719 10.2662 10.719L10.6569 11.0156L10.1693 11.0245Z" fill="black"/>
<path fill-rule="evenodd" clip-rule="evenodd" d="M10.1487 10.998L10.0048 11.4093L9.87555 11.0069C9.87555 11.0069 9.4408 10.9922 9.4408 11.001C9.4408 11.0098 9.78448 10.7366 9.78448 10.7366L9.6288 10.2901C9.63467 10.3048 10.0048 10.5662 10.0048 10.5662C10.0048 10.5662 10.3808 10.3019 10.3749 10.3019C10.369 10.3019 10.231 10.7366 10.231 10.7366L10.5688 10.9922L10.1487 11.001V10.998Z" fill="#FFE700"/>
<path fill-rule="evenodd" clip-rule="evenodd" d="M10.087 10.9334L10.0048 11.1684L9.93134 10.9363C9.93134 10.9363 9.67871 10.9275 9.67871 10.9334C9.67871 10.9393 9.87846 10.7806 9.87846 10.7806L9.79034 10.5251C9.79034 10.531 10.0048 10.6837 10.0048 10.6837L10.2192 10.531L10.137 10.7806L10.3308 10.9275L10.087 10.9334Z" fill="#108C00"/>
<path fill-rule="evenodd" clip-rule="evenodd" d="M7.24937 8.52757L7.08193 8.99757L6.93506 8.53345C6.93506 8.53345 6.42981 8.51876 6.42981 8.52757C6.42981 8.53638 6.82637 8.22501 6.82637 8.22501L6.65012 7.70801C6.656 7.7227 7.08193 8.02526 7.08193 8.02526L7.51375 7.72563L7.34631 8.22501L7.737 8.5217L7.24937 8.53051V8.52757Z" fill="black"/>
<path fill-rule="evenodd" clip-rule="evenodd" d="M7.22588 8.50409L7.08194 8.90946L6.95269 8.50996C6.95269 8.50996 6.51794 8.49821 6.51794 8.50409C6.51794 8.50996 6.86163 8.23971 6.86163 8.23971L6.70594 7.79321C6.71182 7.8079 7.08194 8.06934 7.08194 8.06934C7.08194 8.06934 7.45794 7.80496 7.45207 7.80496C7.44619 7.80496 7.30813 8.23971 7.30813 8.23971L7.64594 8.49821L7.22588 8.50409Z" fill="#FFE700"/>
<path fill-rule="evenodd" clip-rule="evenodd" d="M7.16417 8.43651L7.08192 8.67151L7.00848 8.43945C7.00848 8.43945 6.75586 8.43357 6.75586 8.43945C6.75586 8.44532 6.95561 8.2867 6.95561 8.2867L6.86748 8.0282C6.86748 8.03701 7.08192 8.18682 7.08192 8.18682L7.29636 8.03407L7.21411 8.2867L7.40798 8.43357L7.16417 8.43651Z" fill="#108C00"/>
<path fill-rule="evenodd" clip-rule="evenodd" d="M8.32749 5.1641L8.16299 5.6341L8.01024 5.17291C8.01024 5.17291 7.51086 5.15822 7.51086 5.1641C7.51086 5.16997 7.90743 4.86154 7.90743 4.86154L7.72824 4.34747C7.73411 4.36216 8.16005 4.66472 8.16005 4.66472C8.16005 4.66472 8.5948 4.36216 8.58893 4.36216C8.58305 4.36216 8.42443 4.86154 8.42443 4.86154L8.81218 5.15529L8.32749 5.16704V5.1641Z" fill="black"/>
<path fill-rule="evenodd" clip-rule="evenodd" d="M8.30401 5.14062L8.16007 5.55187L8.03082 5.14943C8.03082 5.14943 7.59607 5.13474 7.59607 5.14355C7.59607 5.15237 7.93976 4.87918 7.93976 4.87918L7.78407 4.43268C7.78994 4.44737 8.16007 4.7088 8.16007 4.7088C8.16007 4.7088 8.53607 4.44443 8.53019 4.44443C8.52432 4.44443 8.38919 4.87918 8.38919 4.87918L8.72407 5.13474L8.30401 5.14355V5.14062Z" fill="#FFE700"/>
<path fill-rule="evenodd" clip-rule="evenodd" d="M8.24229 5.07598L8.16004 5.31098L8.0866 5.07891C8.0866 5.07891 7.83691 5.0701 7.83691 5.07598C7.83691 5.08185 8.03373 4.92323 8.03373 4.92323L7.9456 4.66766C7.9456 4.67354 8.16004 4.82629 8.16004 4.82629L8.37448 4.67354L8.29223 4.92323L8.4861 5.0701L8.24229 5.07598Z" fill="#108C00"/>
<path d="M10.3028 9.42687C10.4192 9.40938 10.5136 8.9303 10.5136 8.35681C10.5136 7.78333 10.4192 7.33261 10.3028 7.3501C10.1864 7.36759 10.092 7.84668 10.092 8.42016C10.092 8.99364 10.1864 9.44436 10.3028 9.42687Z" fill="#009200" stroke="black" stroke-width="0.0246329"/>
<path d="M10.5723 9.41097C10.697 9.39224 10.7981 8.91232 10.7981 8.33903C10.7981 7.76575 10.697 7.31619 10.5723 7.33492C10.4475 7.35365 10.3464 7.83358 10.3464 8.40686C10.3464 8.98015 10.4475 9.4297 10.5723 9.41097Z" fill="#009200" stroke="black" stroke-width="0.0254974"/>
<path d="M10.4653 9.56117C10.5651 9.54615 10.646 9.02202 10.646 8.39051C10.646 7.75899 10.5651 7.25923 10.4653 7.27425C10.3656 7.28927 10.2847 7.8134 10.2847 8.44491C10.2847 9.07643 10.3656 9.5762 10.4653 9.56117Z" fill="#009200" stroke="black" stroke-width="0.0239187"/>
<path fill-rule="evenodd" clip-rule="evenodd" d="M9.2251 8.63884C9.4084 8.62967 9.32897 8.53802 9.42062 8.48609C9.51227 8.43721 9.64363 8.46776 9.68335 8.52886C9.72306 8.58996 9.69251 8.65106 9.74445 8.65106C9.79638 8.65106 11.1803 8.57468 11.2292 8.62356C11.2781 8.6755 11.2903 8.77631 11.2383 8.81603C11.1895 8.8588 9.43895 8.90768 9.37785 8.86491C9.31675 8.82214 9.2251 8.65106 9.2251 8.63884Z" fill="#A95600" stroke="black" stroke-width="0.02444"/>
<path fill-rule="evenodd" clip-rule="evenodd" d="M10.1826 9.00087C10.1826 9.12307 10.3916 9.0858 10.397 9.18783C10.3938 9.29598 10.0456 9.19853 10.0369 9.00087C10.0456 8.8029 10.3806 8.70148 10.3883 8.81451C10.3938 8.90799 10.1821 8.87867 10.1821 9.00087H10.1826Z" fill="#FFFF00" stroke="black" stroke-width="0.0233476"/>
<path fill-rule="evenodd" clip-rule="evenodd" d="M10.3048 9.00392C10.3048 9.12612 10.5137 9.08885 10.5192 9.19088C10.516 9.29903 10.1678 9.20158 10.1591 9.00392C10.1678 8.80595 10.5027 8.70453 10.5105 8.81756C10.516 8.91105 10.3043 8.88172 10.3043 9.00392H10.3048Z" fill="#FFFF00" stroke="black" stroke-width="0.0233476"/>
<path fill-rule="evenodd" clip-rule="evenodd" d="M10.4361 8.99781C10.4361 9.12001 10.6451 9.08274 10.6506 9.18478C10.6474 9.29293 10.2991 9.19547 10.2904 8.99781C10.2991 8.79985 10.6341 8.69842 10.6419 8.81146C10.6474 8.90494 10.4357 8.87561 10.4357 8.99781H10.4361Z" fill="#FFFF00" stroke="black" stroke-width="0.0233476"/>
<path fill-rule="evenodd" clip-rule="evenodd" d="M10.5583 8.99781C10.5583 9.12001 10.7673 9.08274 10.7728 9.18478C10.7696 9.29293 10.4213 9.19547 10.4126 8.99781C10.4213 8.79985 10.7563 8.69842 10.7641 8.81146C10.7696 8.90494 10.5579 8.87561 10.5579 8.99781H10.5583Z" fill="#FFFF00" stroke="black" stroke-width="0.0233476"/>
<path d="M11.1465 9.3694C11.2115 9.37058 11.2651 9.31806 11.2662 9.25208C11.2674 9.18611 11.2157 9.13168 11.1507 9.1305C11.0857 9.12931 11.0322 9.18184 11.031 9.24781C11.0299 9.31378 11.0816 9.36822 11.1465 9.3694Z" fill="#A95600" stroke="black" stroke-width="0.021994"/>
<path d="M10.4181 9.26328C10.4757 9.25624 10.5104 9.14641 10.4956 9.01797C10.4807 8.88953 10.4219 8.79112 10.3643 8.79816C10.3066 8.8052 10.2719 8.91503 10.2868 9.04347C10.3016 9.17191 10.3604 9.27032 10.4181 9.26328Z" fill="#009200" stroke="black" stroke-width="0.0285017"/>
<path d="M10.2384 9.24778C10.296 9.24073 10.3307 9.1309 10.3159 9.00247C10.301 8.87403 10.2422 8.77562 10.1846 8.78266C10.1269 8.7897 10.0922 8.89953 10.1071 9.02797C10.122 9.15641 10.1807 9.25482 10.2384 9.24778Z" fill="#009200" stroke="black" stroke-width="0.0285017"/>
<path d="M10.1107 9.01816C10.1683 9.01112 10.203 8.90129 10.1882 8.77285C10.1733 8.64441 10.1145 8.546 10.0569 8.55304C9.99925 8.56009 9.96456 8.66992 9.97941 8.79836C9.99427 8.92679 10.053 9.02521 10.1107 9.01816Z" fill="#009200" stroke="black" stroke-width="0.0285017"/>
<path d="M10.2425 8.97644C10.2966 8.96982 10.3273 8.85044 10.3112 8.7098C10.295 8.56915 10.2381 8.46051 10.184 8.46713C10.1299 8.47376 10.0992 8.59314 10.1153 8.73378C10.1315 8.87442 10.1884 8.98306 10.2425 8.97644Z" fill="#009200" stroke="black" stroke-width="0.0289178"/>
<path d="M10.4942 9.00663C10.5483 9.00001 10.5798 8.88719 10.5646 8.75464C10.5493 8.62209 10.493 8.52001 10.4389 8.52664C10.3847 8.53326 10.3532 8.64609 10.3685 8.77863C10.3837 8.91118 10.44 9.01326 10.4942 9.00663Z" fill="#009200" stroke="black" stroke-width="0.0280794"/>
<path d="M10.3567 8.92234C10.4109 8.91572 10.4424 8.8029 10.4271 8.67035C10.4119 8.5378 10.3556 8.43572 10.3014 8.44235C10.2473 8.44897 10.2157 8.5618 10.231 8.69434C10.2463 8.82689 10.3026 8.92897 10.3567 8.92234Z" fill="#009200" stroke="black" stroke-width="0.0280794"/>
<path d="M10.1847 8.80162C10.2389 8.79499 10.2704 8.68217 10.2551 8.54962C10.2399 8.41708 10.1836 8.315 10.1294 8.32162C10.0753 8.32825 10.0437 8.44107 10.059 8.57362C10.0743 8.70616 10.1306 8.80824 10.1847 8.80162Z" fill="#009200" stroke="black" stroke-width="0.0280794"/>
<path d="M10.0241 8.73198C10.0782 8.72535 10.1098 8.61253 10.0945 8.47998C10.0792 8.34743 10.0229 8.24535 9.96879 8.25198C9.91463 8.25861 9.8831 8.37143 9.89837 8.50397C9.91364 8.63652 9.96992 8.7386 10.0241 8.73198Z" fill="#009200" stroke="black" stroke-width="0.0280794"/>
<path fill-rule="evenodd" clip-rule="evenodd" d="M9.87272 6.24982C9.87272 6.24982 9.51528 6.55532 9.56416 7.37712C9.61915 8.20197 10.3737 8.58384 10.3737 8.58384C10.3737 8.58384 10.5631 8.34861 10.5326 7.68262C10.4715 6.71113 10.111 6.28648 10.111 6.28648L9.87272 6.24677V6.24982Z" fill="#804BFF" stroke="black" stroke-width="0.02444"/>
<path d="M10.617 9.29694C10.675 9.30247 10.7315 9.20248 10.7432 9.07361C10.7549 8.94474 10.7174 8.83579 10.6594 8.83026C10.6014 8.82473 10.545 8.92472 10.5332 9.05359C10.5215 9.18246 10.5591 9.29141 10.617 9.29694Z" fill="#009200" stroke="black" stroke-width="0.0285017"/>
<path d="M10.4431 9.24952C10.5011 9.25505 10.5576 9.15506 10.5693 9.02619C10.581 8.89732 10.5435 8.78837 10.4855 8.78284C10.4275 8.77731 10.371 8.8773 10.3593 9.00617C10.3476 9.13504 10.3851 9.24399 10.4431 9.24952Z" fill="#009200" stroke="black" stroke-width="0.0285017"/>
<path d="M10.3585 9.0008C10.4165 9.00633 10.473 8.90634 10.4847 8.77747C10.4964 8.6486 10.4589 8.53965 10.4009 8.53412C10.3429 8.52859 10.2864 8.62858 10.2747 8.75745C10.263 8.88632 10.3005 8.99527 10.3585 9.0008Z" fill="#009200" stroke="black" stroke-width="0.0285017"/>
<path d="M10.4954 8.98328C10.5498 8.98848 10.6042 8.87832 10.617 8.73724C10.6297 8.59615 10.5959 8.47757 10.5415 8.47237C10.4871 8.46717 10.4327 8.57732 10.4199 8.71841C10.4072 8.85949 10.441 8.97808 10.4954 8.98328Z" fill="#009200" stroke="black" stroke-width="0.0289178"/>
<path d="M10.7379 9.05804C10.7924 9.06324 10.8463 8.95966 10.8583 8.82669C10.8704 8.69371 10.836 8.5817 10.7815 8.5765C10.727 8.57129 10.6731 8.67488 10.6611 8.80785C10.649 8.94083 10.6834 9.05284 10.7379 9.05804Z" fill="#009200" stroke="black" stroke-width="0.0280794"/>
<path d="M10.6177 8.9505C10.6721 8.9557 10.7261 8.85212 10.7381 8.71914C10.7501 8.58617 10.7157 8.47415 10.6613 8.46895C10.6068 8.46375 10.5529 8.56733 10.5408 8.70031C10.5288 8.83328 10.5632 8.9453 10.6177 8.9505Z" fill="#009200" stroke="black" stroke-width="0.0280794"/>
<path d="M10.4701 8.80102C10.5246 8.80623 10.5785 8.70264 10.5905 8.56967C10.6025 8.43669 10.5681 8.32468 10.5137 8.31948C10.4592 8.31428 10.4053 8.41786 10.3932 8.55083C10.3812 8.68381 10.4156 8.79582 10.4701 8.80102Z" fill="#009200" stroke="black" stroke-width="0.0280794"/>
<path d="M10.3245 8.70373C10.3789 8.70894 10.4328 8.60535 10.4449 8.47238C10.4569 8.3394 10.4225 8.22739 10.368 8.22219C10.3136 8.21699 10.2597 8.32057 10.2476 8.45354C10.2356 8.58652 10.27 8.69853 10.3245 8.70373Z" fill="#009200" stroke="black" stroke-width="0.0280794"/>
<path d="M10.9255 8.61516C11.0829 8.55615 11.0574 8.12567 10.8686 7.65366C10.6798 7.18166 10.3991 6.84687 10.2418 6.90589C10.0844 6.96491 10.1098 7.39539 10.2986 7.86739C10.4874 8.3394 10.7681 8.67418 10.9255 8.61516Z" fill="#C90000" stroke="black" stroke-width="0.0108287"/>
<path d="M10.4074 7.04939C10.48 7.05093 10.54 6.99948 10.5414 6.93447C10.5428 6.86945 10.485 6.81549 10.4124 6.81395C10.3398 6.81241 10.2798 6.86386 10.2784 6.92888C10.277 6.99389 10.3348 7.04785 10.4074 7.04939Z" fill="#009200" stroke="black" stroke-width="0.0253988"/>
<path d="M10.4499 6.88211C10.5134 6.88346 10.566 6.83182 10.5674 6.76678C10.5688 6.70173 10.5184 6.6479 10.4549 6.64655C10.3913 6.6452 10.3387 6.69684 10.3373 6.76188C10.336 6.82693 10.3863 6.88076 10.4499 6.88211Z" fill="#009200" stroke="black" stroke-width="0.0253423"/>
<path d="M10.2911 6.87936C10.3546 6.88071 10.4072 6.82908 10.4086 6.76403C10.41 6.69898 10.3596 6.64516 10.2961 6.6438C10.2325 6.64245 10.1799 6.69409 10.1785 6.75914C10.1772 6.82418 10.2275 6.87801 10.2911 6.87936Z" fill="#009200" stroke="black" stroke-width="0.0253423"/>
<path d="M10.3525 6.6179C10.4197 6.61933 10.4752 6.57305 10.4764 6.51455C10.4777 6.45604 10.4242 6.40745 10.357 6.40603C10.2898 6.4046 10.2343 6.45087 10.2331 6.50938C10.2319 6.56788 10.2853 6.61647 10.3525 6.6179Z" fill="#009200" stroke="black" stroke-width="0.0247192"/>
<path d="M10.3397 6.4802C10.4069 6.48163 10.4624 6.43536 10.4636 6.37685C10.4649 6.31834 10.4114 6.26976 10.3442 6.26833C10.277 6.2669 10.2215 6.31318 10.2203 6.37168C10.219 6.43019 10.2725 6.47878 10.3397 6.4802Z" fill="#009200" stroke="black" stroke-width="0.0247192"/>
<path d="M10.1398 6.79117C10.2033 6.79252 10.256 6.74088 10.2573 6.67583C10.2587 6.61079 10.2083 6.55696 10.1448 6.55561C10.0813 6.55426 10.0287 6.60589 10.0273 6.67094C10.0259 6.73599 10.0763 6.78982 10.1398 6.79117Z" fill="#009200" stroke="black" stroke-width="0.0253423"/>
<path d="M10.1719 6.70615C10.2355 6.7075 10.2881 6.65586 10.2894 6.59081C10.2908 6.52576 10.2404 6.47194 10.1769 6.47059C10.1134 6.46924 10.0608 6.52087 10.0594 6.58592C10.058 6.65097 10.1084 6.70479 10.1719 6.70615Z" fill="#009200" stroke="black" stroke-width="0.0253423"/>
<path d="M10.0417 6.64577C10.1143 6.64731 10.1743 6.59585 10.1757 6.53084C10.1771 6.46582 10.1193 6.41187 10.0467 6.41033C9.97405 6.40878 9.91404 6.46024 9.91266 6.52525C9.91128 6.59027 9.96905 6.64422 10.0417 6.64577Z" fill="#009200" stroke="black" stroke-width="0.0253988"/>
<path d="M10.251 6.31059C10.3182 6.31201 10.3736 6.26574 10.3749 6.20723C10.3761 6.14873 10.3227 6.10014 10.2555 6.09871C10.1883 6.09729 10.1328 6.14356 10.1315 6.20207C10.1303 6.26057 10.1838 6.30916 10.251 6.31059Z" fill="#009200" stroke="black" stroke-width="0.0247192"/>
<path d="M10.0586 6.53921C10.1222 6.54057 10.1748 6.48893 10.1762 6.42388C10.1775 6.35883 10.1272 6.30501 10.0636 6.30366C10.0001 6.3023 9.94749 6.35394 9.94611 6.41899C9.94473 6.48404 9.99511 6.53786 10.0586 6.53921Z" fill="#009200" stroke="black" stroke-width="0.0253423"/>
<path d="M9.80925 6.65097C9.87278 6.65232 9.9254 6.60068 9.92678 6.53564C9.92816 6.47059 9.87777 6.41676 9.81425 6.41541C9.75072 6.41406 9.6981 6.4657 9.69672 6.53074C9.69534 6.59579 9.74572 6.64962 9.80925 6.65097Z" fill="#009200" stroke="black" stroke-width="0.0253423"/>
<path d="M9.84929 6.63028C9.91282 6.63163 9.96544 6.57999 9.96682 6.51495C9.96819 6.4499 9.91781 6.39607 9.85429 6.39472C9.79076 6.39337 9.73814 6.445 9.73676 6.51005C9.73538 6.5751 9.78576 6.62893 9.84929 6.63028Z" fill="#009200" stroke="black" stroke-width="0.0253423"/>
<path d="M9.89983 6.53641C9.96336 6.53776 10.016 6.48612 10.0174 6.42107C10.0187 6.35603 9.96835 6.3022 9.90482 6.30085C9.84129 6.2995 9.78868 6.35113 9.7873 6.41618C9.78592 6.48123 9.8363 6.53506 9.89983 6.53641Z" fill="#009200" stroke="black" stroke-width="0.0253423"/>
<path d="M11.0129 9.04073C11.2135 8.97249 11.1939 8.42787 10.9691 7.82427C10.7444 7.22068 10.3995 6.78668 10.1989 6.85491C9.99831 6.92314 10.0179 7.46777 10.2427 8.07136C10.4675 8.67496 10.8123 9.10896 11.0129 9.04073Z" fill="#009200" stroke="black" stroke-width="0.0227291"/>
<path d="M11.0011 8.36506C11.0381 8.34723 11.0283 8.23035 10.9791 8.104C10.9299 7.97764 10.8599 7.88966 10.8229 7.90748C10.7858 7.92531 10.7956 8.04219 10.8448 8.16854C10.8941 8.2949 10.964 8.38288 11.0011 8.36506Z" fill="#009200" stroke="black" stroke-width="0.0232201"/>
<path fill-rule="evenodd" clip-rule="evenodd" d="M10.8642 8.12296C11.1656 8.53896 11.1201 8.79728 11.0827 9.01544C10.9905 8.76004 10.9423 8.59967 10.6409 8.18366C10.3395 7.76766 10.5002 7.48576 10.5247 7.335C10.5685 7.46721 10.5628 7.70695 10.8642 8.12296Z" fill="#009200" stroke="black" stroke-width="0.0234398"/>
<path fill-rule="evenodd" clip-rule="evenodd" d="M10.8857 8.45291C11.1871 8.86892 11.1416 9.12724 11.1042 9.3454C11.0119 9.09 10.9638 8.92963 10.6624 8.51362C10.3609 8.09761 10.5217 7.81571 10.5461 7.66495C10.59 7.79716 10.5842 8.03691 10.8857 8.45291Z" fill="#009200" stroke="black" stroke-width="0.0234398"/>
<path fill-rule="evenodd" clip-rule="evenodd" d="M10.9094 8.71757C11.2203 9.12653 11.1806 9.38596 11.148 9.60504C11.05 9.35178 10.9982 9.19252 10.6873 8.78356C10.3763 8.37461 10.5309 8.08887 10.552 7.93751C10.5988 8.0687 10.5984 8.30862 10.9094 8.71757Z" fill="#009200" stroke="black" stroke-width="0.0234554"/>
<path d="M10.8333 8.17469C10.906 8.15673 10.8947 7.95914 10.8079 7.73335C10.7212 7.50756 10.5919 7.33907 10.5192 7.35702C10.4465 7.37497 10.4579 7.57257 10.5446 7.79836C10.6314 8.02415 10.7606 8.19264 10.8333 8.17469Z" fill="#009200" stroke="black" stroke-width="0.0234336"/>
<path d="M10.7031 8.29617C10.7689 8.28585 10.768 8.12681 10.7011 7.94094C10.6342 7.75508 10.5266 7.61277 10.4608 7.62309C10.3949 7.63342 10.3958 7.79246 10.4627 7.97832C10.5296 8.16419 10.6372 8.30649 10.7031 8.29617Z" fill="#009200" stroke="black" stroke-width="0.0228313"/>
<path d="M10.4909 8.43507C10.5568 8.42609 10.5599 8.26702 10.4979 8.07978C10.436 7.89254 10.3324 7.74803 10.2666 7.757C10.2007 7.76598 10.1976 7.92504 10.2595 8.11229C10.3215 8.29953 10.4251 8.44404 10.4909 8.43507Z" fill="#009200" stroke="black" stroke-width="0.0227796"/>
<path d="M10.6258 7.77584C10.6783 7.76687 10.6737 7.64798 10.6154 7.5103C10.5572 7.37262 10.4674 7.26829 10.4149 7.27727C10.3624 7.28624 10.367 7.40513 10.4253 7.54281C10.4835 7.68048 10.5733 7.78482 10.6258 7.77584Z" fill="#009200" stroke="black" stroke-width="0.0233063"/>
<path d="M10.5207 7.9116C10.5744 7.90577 10.5777 7.78608 10.5282 7.64427C10.4786 7.50246 10.3949 7.39223 10.3412 7.39807C10.2874 7.4039 10.2841 7.52359 10.3336 7.6654C10.3832 7.80721 10.4669 7.91743 10.5207 7.9116Z" fill="#009200" stroke="black" stroke-width="0.0235306"/>
<path fill-rule="evenodd" clip-rule="evenodd" d="M10.3271 7.50643C10.4132 7.75157 10.445 7.97103 10.398 7.99638C10.351 8.02174 10.2432 7.84322 10.1572 7.59808" fill="#009200"/>
<path d="M10.3271 7.50643C10.4132 7.75157 10.445 7.97103 10.398 7.99638C10.351 8.02174 10.2432 7.84322 10.1572 7.59808" stroke="black" stroke-width="0.0235608"/>
<path d="M10.5119 7.62687C10.5656 7.62104 10.569 7.50135 10.5194 7.35954C10.4698 7.21773 10.3861 7.1075 10.3324 7.11334C10.2787 7.11917 10.2753 7.23886 10.3249 7.38067C10.3744 7.52248 10.4581 7.63271 10.5119 7.62687Z" fill="#009200" stroke="black" stroke-width="0.0235306"/>
<path d="M10.3565 7.73091C10.4103 7.72642 10.4156 7.60671 10.3685 7.46353C10.3215 7.32034 10.2397 7.20791 10.186 7.21239C10.1323 7.21688 10.1269 7.33659 10.174 7.47978C10.2211 7.62296 10.3028 7.7354 10.3565 7.73091Z" fill="#009200" stroke="black" stroke-width="0.0235422"/>
<path fill-rule="evenodd" clip-rule="evenodd" d="M10.1855 7.17502C10.2715 7.34121 10.3166 7.49536 10.286 7.51919C10.2555 7.54303 10.161 7.42736 10.075 7.26117" fill="#009200"/>
<path d="M10.1855 7.17502C10.2715 7.34121 10.3166 7.49536 10.286 7.51919C10.2555 7.54303 10.161 7.42736 10.075 7.26117" stroke="black" stroke-width="0.0235269"/>
<path fill-rule="evenodd" clip-rule="evenodd" d="M10.2493 7.06808C10.3353 7.23428 10.3805 7.38843 10.3499 7.41226C10.3193 7.4361 10.2248 7.32043 10.1388 7.15424" fill="#009200"/>
<path d="M10.2493 7.06808C10.3353 7.23428 10.3805 7.38843 10.3499 7.41226C10.3193 7.4361 10.2248 7.32043 10.1388 7.15424" stroke="black" stroke-width="0.0235269"/>
<path fill-rule="evenodd" clip-rule="evenodd" d="M10.5273 7.12665C10.6469 7.35516 10.7094 7.56686 10.6665 7.59931C10.6236 7.63177 10.4919 7.47247 10.3722 7.24396" fill="#009200"/>
<path d="M10.5273 7.12665C10.6469 7.35516 10.7094 7.56686 10.6665 7.59931C10.6236 7.63177 10.4919 7.47247 10.3722 7.24396" stroke="black" stroke-width="0.0235616"/>
<path fill-rule="evenodd" clip-rule="evenodd" d="M10.3455 6.96834C10.4315 7.15115 10.4766 7.32084 10.4461 7.34721C10.4155 7.37358 10.321 7.24647 10.235 7.06366" fill="#009200"/>
<path d="M10.3455 6.96834C10.4315 7.15115 10.4766 7.32084 10.4461 7.34721C10.4155 7.37358 10.321 7.24647 10.235 7.06366" stroke="black" stroke-width="0.0232273"/>
<path fill-rule="evenodd" clip-rule="evenodd" d="M10.4719 6.33198C10.4117 6.39381 10.4738 6.50135 10.5305 6.53831C10.5941 6.59007 10.9538 6.92948 11.1967 6.61897C10.9973 6.62434 10.6165 6.1942 10.4719 6.33198Z" fill="#804BFF" stroke="black" stroke-width="0.0229267"/>
<path fill-rule="evenodd" clip-rule="evenodd" d="M10.4291 6.15168C10.369 6.21352 10.4311 6.32105 10.4878 6.35802C10.5513 6.40977 10.9111 6.74918 11.154 6.43867C10.9546 6.44405 10.5738 6.0139 10.4291 6.15168Z" fill="#804BFF" stroke="black" stroke-width="0.0229267"/>
<path fill-rule="evenodd" clip-rule="evenodd" d="M10.3741 5.9806C10.314 6.04243 10.376 6.14997 10.4327 6.18694C10.4963 6.23869 10.856 6.5781 11.099 6.26759C10.8995 6.27296 10.5188 5.84282 10.3741 5.9806Z" fill="#804BFF" stroke="black" stroke-width="0.0229267"/>
<path fill-rule="evenodd" clip-rule="evenodd" d="M10.2549 5.78511C10.1948 5.84694 10.2569 5.95447 10.3136 5.99144C10.3771 6.04319 10.7369 6.3826 10.9798 6.07209C10.7804 6.07747 10.3996 5.64732 10.2549 5.78511Z" fill="#804BFF" stroke="black" stroke-width="0.0229267"/>
<path fill-rule="evenodd" clip-rule="evenodd" d="M9.70913 5.69589C9.82551 5.60545 10.043 5.57944 10.2146 5.6708C10.3577 5.74399 10.599 6.03895 10.7774 6.10934C10.7307 6.12006 10.6818 6.1222 10.6336 6.11564C10.5854 6.10907 10.5388 6.09394 10.4967 6.07113C10.3416 6.18879 10.2862 6.20565 10.1256 6.22847C9.90373 6.25991 9.71732 6.1985 9.65061 6.07741C9.58115 5.9632 9.60603 5.78048 9.70913 5.69589Z" fill="#804BFF" stroke="black" stroke-width="0.0238534"/>
<path d="M10.0474 5.89583C10.1071 5.8971 10.1561 5.87163 10.1568 5.83895C10.1575 5.80627 10.1096 5.77876 10.0499 5.77749C9.9901 5.77623 9.94109 5.8017 9.94039 5.83438C9.9397 5.86705 9.98759 5.89457 10.0474 5.89583Z" fill="#FF0000" stroke="black" stroke-width="0.0220299"/>
<path d="M9.78333 6.16109C9.86266 6.13124 9.91254 6.06963 9.89473 6.02348C9.87693 5.97733 9.79818 5.96413 9.71884 5.99398C9.63951 6.02383 9.58963 6.08544 9.60744 6.13159C9.62525 6.17774 9.70399 6.19094 9.78333 6.16109Z" fill="#FFFF00" stroke="black" stroke-width="0.0243181"/>
<path d="M9.87597 6.06116C9.89547 6.06157 9.91161 6.0461 9.91202 6.02661C9.91243 6.00711 9.89696 5.99097 9.87747 5.99056C9.85797 5.99014 9.84183 6.00561 9.84141 6.02511C9.841 6.0446 9.85647 6.06074 9.87597 6.06116Z" fill="black"/>
<path fill-rule="evenodd" clip-rule="evenodd" d="M9.92427 5.91297C9.93672 5.9571 9.90167 6.01728 9.82088 6.03895C9.73869 6.06937 9.67851 6.13779 9.64693 6.2497C9.5087 5.99527 9.58463 5.88698 9.71786 5.86057C9.83235 5.82792 9.90225 5.83184 9.92427 5.91297Z" fill="#FFFF00" stroke="black" stroke-width="0.0288549"/>
<path d="M9.5811 6.18373C9.5969 6.18407 9.60998 6.17154 9.61032 6.15574C9.61065 6.13994 9.59812 6.12686 9.58232 6.12652C9.56652 6.12619 9.55344 6.13872 9.5531 6.15452C9.55277 6.17032 9.56531 6.1834 9.5811 6.18373Z" fill="black"/>
</g>
</g>
<defs>
<clipPath id="clip0_14_421">
<rect width="20" height="15" fill="white"/>
</clipPath>
</defs>
</svg>
