<svg width="20" height="15" viewBox="0 0 20 15" fill="none" xmlns="http://www.w3.org/2000/svg">
<g clip-path="url(#clip0_14_445)">
<path d="M10 0H20V15H10V0Z" fill="white"/>
<path d="M0 0H10V15H0V0Z" fill="#006233"/>
<path d="M13.25 5.625C12.8373 4.91009 12.2002 4.35136 11.4375 4.03545C10.6748 3.71955 9.82925 3.66412 9.03187 3.87778C8.2345 4.09144 7.5299 4.56223 7.02737 5.21715C6.52483 5.87206 6.25244 6.6745 6.25244 7.5C6.25244 8.3255 6.52483 9.12794 7.02737 9.78286C7.5299 10.4378 8.2345 10.9086 9.03187 11.1222C9.82925 11.3359 10.6748 11.2805 11.4375 10.9645C12.2002 10.6486 12.8373 10.0899 13.25 9.375C12.8616 9.8602 12.332 10.2128 11.7345 10.384C11.137 10.5552 10.5011 10.5365 9.91459 10.3307C9.32812 10.1248 8.82007 9.74191 8.46064 9.23483C8.10122 8.72775 7.90816 8.12155 7.90816 7.5C7.90816 6.87845 8.10122 6.27225 8.46064 5.76517C8.82007 5.25809 9.32812 4.87516 9.91459 4.66931C10.5011 4.46346 11.137 4.44485 11.7345 4.61605C12.332 4.78725 12.8616 5.13981 13.25 5.625ZM13.375 7.5L10 6.4L12.1 9.275V5.725L10 8.6L13.375 7.5Z" fill="#D21034"/>
</g>
<defs>
<clipPath id="clip0_14_445">
<rect width="20" height="15" fill="white"/>
</clipPath>
</defs>
</svg>
