<svg width="20" height="15" viewBox="0 0 20 15" fill="none" xmlns="http://www.w3.org/2000/svg">
<path fill-rule="evenodd" clip-rule="evenodd" d="M10 0H20V15H10V0Z" fill="#F7FCFF"/>
<path fill-rule="evenodd" clip-rule="evenodd" d="M0 0H10V15H0V0Z" fill="#36A400"/>
<path fill-rule="evenodd" clip-rule="evenodd" d="M11.6375 3.90782C12.5374 3.90782 13.3755 4.15499 14.0783 4.58064C13.1021 3.4337 11.6478 2.70618 10.0236 2.70618C7.08411 2.70618 4.70117 5.08911 4.70117 8.02861C4.70117 10.9681 7.08411 13.351 10.0236 13.351C11.4878 13.351 12.814 12.7598 13.7763 11.803C13.1403 12.1252 12.4117 12.3081 11.6375 12.3081C9.15531 12.3081 7.14311 10.4277 7.14311 8.10798C7.14311 5.7883 9.15531 3.90782 11.6375 3.90782ZM13.3973 5.51615L12.1048 6.98104L10.2483 6.46952L11.2775 8.07938L10.2483 9.7931L12.1957 9.09203L13.2603 10.7538V8.82509L15 8.07938L13.2603 7.45621L13.3973 5.51615Z" fill="#FF0000"/>
</svg>
