<svg width="20" height="15" viewBox="0 0 20 15" fill="none" xmlns="http://www.w3.org/2000/svg">
<mask id="mask0_1825_41328" style="mask-type:luminance" maskUnits="userSpaceOnUse" x="0" y="0" width="20" height="15">
<rect width="20" height="15" fill="white"/>
</mask>
<g mask="url(#mask0_1825_41328)">
<path fill-rule="evenodd" clip-rule="evenodd" d="M0 0V15H20V0H0Z" fill="#2E42A5"/>
<mask id="mask1_1825_41328" style="mask-type:luminance" maskUnits="userSpaceOnUse" x="0" y="0" width="20" height="15">
<path fill-rule="evenodd" clip-rule="evenodd" d="M0 0V15H20V0H0Z" fill="white"/>
</mask>
<g mask="url(#mask1_1825_41328)">
<path fill-rule="evenodd" clip-rule="evenodd" d="M0 0V7.5H20V0H0Z" fill="#FECA00"/>
<path fill-rule="evenodd" clip-rule="evenodd" d="M0 11.25V15H20V11.25H0Z" fill="#E31D1C"/>
<path fill-rule="evenodd" clip-rule="evenodd" d="M5.75828 3.61993C5.68302 3.45018 8.57741 2.59119 8.79428 2.59119C9.01116 2.59119 9.28548 3.10556 9.28548 3.10556L11.0457 3.24794C11.0457 3.24794 10.8378 2.59119 11.0457 2.59119C11.2537 2.59119 14.4405 3.69816 14.4405 3.69816C14.4405 3.69816 10.4567 4.17838 10.4567 4.2865C10.4567 4.39463 10.7176 4.98823 10.7176 4.98823L9.9809 5.22964C9.9809 5.22964 10.0242 4.51428 9.90404 4.51428C9.78392 4.51428 9.42731 5.36989 9.42731 5.36989L9.07761 4.2865C9.07761 4.2865 5.83354 3.78968 5.75828 3.61993Z" fill="#7B2900"/>
<path d="M5.77052 6.26123L6.55849 6.44965C5.73405 9.89736 6.49608 11.5508 8.84251 11.7044L8.78957 12.5129C5.84907 12.3203 4.84341 10.1383 5.77052 6.26123Z" fill="#FECA00"/>
<path d="M6.25048 5.79651L7.05092 5.92177C6.48632 9.52972 6.93847 11.1611 8.20576 11.1165L8.23428 11.9262C6.20958 11.9975 5.61552 9.85407 6.25048 5.79651Z" fill="#07138E"/>
<path d="M7.06054 5.46558L7.86098 5.59084C7.29638 9.19878 7.74853 10.8302 9.01582 10.7855L9.04434 11.5952C7.01964 11.6665 6.42557 9.52313 7.06054 5.46558Z" fill="#E10001"/>
<path d="M8.56394 12.0458L9.37032 11.9674C9.43671 12.6502 9.38643 13.2389 9.21345 13.7332L8.44873 13.4656C8.57929 13.0925 8.6197 12.6193 8.56394 12.0458Z" fill="#07138E"/>
<path d="M13.4375 6.35547C13.4375 6.35547 14.7288 12.1635 10.7497 12.0629" stroke="#FECA00" stroke-width="0.810185"/>
<path d="M13.3516 5.79651L12.5511 5.92177C13.1157 9.52972 12.6636 11.1611 11.3963 11.1165L11.3678 11.9262C13.3925 11.9975 13.9865 9.85407 13.3516 5.79651Z" fill="#07138E"/>
<path d="M12.5415 5.46558L11.7411 5.59084C12.3057 9.19878 11.8535 10.8302 10.5862 10.7855L10.5577 11.5952C12.5824 11.6665 13.1765 9.52313 12.5415 5.46558Z" fill="#E10001"/>
<path d="M10.8806 12.0504L10.0751 11.963C10.0074 12.5865 10.0589 13.1266 10.2365 13.5814L10.9912 13.2867C10.8653 12.9642 10.8261 12.5527 10.8806 12.0504Z" fill="#07138E"/>
<rect x="8.66699" y="10.9375" width="2.43056" height="1.15809" fill="#908F89"/>
<path d="M9.88191 11.25C10.5672 11.25 11.1591 10.8637 11.5677 10.2964C11.9766 9.72853 12.2199 8.95984 12.2199 8.125C12.2199 7.29016 11.9766 6.52147 11.5677 5.95364C11.1591 5.38627 10.5672 5 9.88191 5C9.19662 5 8.6047 5.38627 8.1961 5.95364C7.78718 6.52147 7.54395 7.29016 7.54395 8.125C7.54395 8.95984 7.78718 9.72853 8.1961 10.2964C8.6047 10.8637 9.19662 11.25 9.88191 11.25Z" stroke="#FEE901" stroke-width="0.625"/>
<mask id="mask2_1825_41328" style="mask-type:luminance" maskUnits="userSpaceOnUse" x="7" y="4" width="6" height="8">
<path d="M9.88191 11.25C10.5672 11.25 11.1591 10.8637 11.5677 10.2964C11.9766 9.72853 12.2199 8.95984 12.2199 8.125C12.2199 7.29016 11.9766 6.52147 11.5677 5.95364C11.1591 5.38627 10.5672 5 9.88191 5C9.19662 5 8.6047 5.38627 8.1961 5.95364C7.78718 6.52147 7.54395 7.29016 7.54395 8.125C7.54395 8.95984 7.78718 9.72853 8.1961 10.2964C8.6047 10.8637 9.19662 11.25 9.88191 11.25Z" fill="white" stroke="white" stroke-width="0.625"/>
</mask>
<g mask="url(#mask2_1825_41328)">
<path fill-rule="evenodd" clip-rule="evenodd" d="M11.3487 9.62809C11.3487 9.62809 10.3641 9.09227 10.0815 8.90127C9.79885 8.71027 9.962 8.28417 9.47525 8.39805C8.98851 8.51193 8.59747 8.71027 8.59747 9.25401C8.59747 9.79775 8.21532 10.1206 8.08508 9.74906C7.95484 9.37757 7.34243 7.64038 8.08508 7.64038C8.82773 7.64038 10.5636 8.02997 11.0746 8.02997C11.5856 8.02997 11.8831 8.29511 11.8831 8.77456C11.8831 9.41945 11.3487 9.62809 11.3487 9.62809Z" fill="#8DDD61"/>
<path fill-rule="evenodd" clip-rule="evenodd" d="M9.88214 6.80145C10.1059 6.80145 10.2872 6.61627 10.2872 6.38785C10.2872 6.15942 10.1059 5.97424 9.88214 5.97424C9.65842 5.97424 9.47705 6.15942 9.47705 6.38785C9.47705 6.61627 9.65842 6.80145 9.88214 6.80145Z" fill="#FEE901"/>
<path fill-rule="evenodd" clip-rule="evenodd" d="M8.54339 6.8378C8.54339 6.8378 9.01462 6.72383 9.66574 7.16261C10.3169 7.60139 11.8955 7.85125 11.8955 7.50693C11.8955 7.16261 11.8955 8.17764 11.8955 8.17764C11.8955 8.17764 8.39266 7.95955 8.20526 8.17764C8.01786 8.39574 7.99916 6.95969 8.20526 6.8378C8.41136 6.71591 8.54339 6.8378 8.54339 6.8378Z" fill="#F7FCFF"/>
</g>
</g>
</g>
</svg>
