<svg width="20" height="15" viewBox="0 0 20 15" fill="none" xmlns="http://www.w3.org/2000/svg">
<mask id="mask0_1825_41365" style="mask-type:luminance" maskUnits="userSpaceOnUse" x="0" y="0" width="20" height="15">
<rect width="20" height="15" fill="white"/>
</mask>
<g mask="url(#mask0_1825_41365)">
<path fill-rule="evenodd" clip-rule="evenodd" d="M0 0V15H20V0H0Z" fill="#F7FCFF"/>
<mask id="mask1_1825_41365" style="mask-type:luminance" maskUnits="userSpaceOnUse" x="0" y="0" width="20" height="15">
<path fill-rule="evenodd" clip-rule="evenodd" d="M0 0V15H20V0H0Z" fill="white"/>
</mask>
<g mask="url(#mask1_1825_41365)">
<path fill-rule="evenodd" clip-rule="evenodd" d="M0 0V5H20V0H0Z" fill="#BF2714"/>
<path fill-rule="evenodd" clip-rule="evenodd" d="M0 10V15H20V10H0Z" fill="#272727"/>
<path d="M7.66258 6.3877L8.28692 6.41632L8.1302 9.83494L7.50586 9.80632L7.66258 6.3877Z" fill="#C09302"/>
<path d="M8.31492 6.59985L8.93893 6.63513L8.78221 9.40721L8.1582 9.37193L8.31492 6.59985Z" fill="#C09302"/>
<path d="M8.96776 6.8075L9.59066 6.85861L9.43394 8.76861L8.81104 8.7175L8.96776 6.8075Z" fill="#C09302"/>
<path d="M12.3369 6.3877L11.7126 6.41632L11.8693 9.83494L12.4937 9.80632L12.3369 6.3877Z" fill="#C09302"/>
<path d="M11.6846 6.59985L11.0606 6.63513L11.2173 9.40721L11.8413 9.37193L11.6846 6.59985Z" fill="#C09302"/>
<path d="M11.0318 6.8075L10.4088 6.85861L10.5656 8.76861L11.1885 8.7175L11.0318 6.8075Z" fill="#C09302"/>
<path d="M9.98324 9.57923L9.37402 9.43965L9.63188 8.31421L10.2411 8.45379L9.98324 9.57923Z" fill="#C09302"/>
<path d="M10.4494 9.57923L11.0586 9.43965L10.8007 8.31421L10.1915 8.45379L10.4494 9.57923Z" fill="#C09302"/>
<path d="M10.2949 9.56894H9.66992V8.46399H10.2949V9.56894Z" fill="#C09302"/>
<path d="M9.14637 6.8208L9.77118 6.83613L9.73468 8.32419L9.10986 8.30886L9.14637 6.8208Z" fill="#C09302"/>
<path d="M10.2333 6.8208L10.8581 6.83613L10.8216 8.32419L10.1968 8.30886L10.2333 6.8208Z" fill="#C09302"/>
<path d="M8.33594 9.95182L8.49825 9.34827C9.16141 9.52661 9.6706 9.61481 10.0178 9.61481C10.365 9.61481 10.8742 9.52661 11.5374 9.34827L11.6997 9.95182C10.9882 10.1432 10.4303 10.2398 10.0178 10.2398C9.60538 10.2398 9.04743 10.1432 8.33594 9.95182Z" fill="#C09302"/>
<path d="M7.67652 6.38922C7.63485 5.97634 7.8765 5.69686 8.28604 5.7325C8.4207 5.74422 8.57195 5.78406 8.77339 5.85241C8.83225 5.8726 8.83225 5.8726 8.88945 5.89285C9.16639 5.99135 9.24158 6.01666 9.25719 6.02C9.19583 6.0061 9.37656 5.67937 9.41802 5.6243C9.42292 5.65927 9.40211 5.65429 9.35215 5.6443L8.78838 5.53146L9.1897 5.11974C9.32998 4.97583 9.51679 4.90447 9.72997 4.90447C9.75207 4.90447 9.77269 4.90344 9.84041 4.89927C9.8905 4.89623 9.8905 4.89623 9.94681 4.8939C10.3368 4.88126 10.6165 4.99154 10.6165 5.39257C10.6165 5.53604 10.6346 5.76676 10.6645 5.94179C10.6745 6.00067 10.694 6.05578 10.6367 6.07999C10.639 6.0591 10.7756 6.0052 10.988 5.91637L11.0135 5.90571C11.6307 5.64813 11.7028 5.62423 11.9017 5.74513C12.0343 5.8257 12.1605 5.97062 12.3019 6.18669L11.779 6.529C11.6878 6.38963 11.6151 6.30507 11.5805 6.28145C11.6592 6.33608 11.3944 6.42401 11.2543 6.48249L11.2292 6.49298C10.7487 6.69393 10.6853 6.7179 10.5479 6.7179C10.1741 6.7179 10.0398 6.33492 10.0031 5.78645C9.88772 6.16619 9.54355 6.6454 9.25995 6.6454C9.13579 6.6454 9.19548 6.66505 8.68001 6.48171C8.626 6.46259 8.626 6.46259 8.57259 6.44427C8.41643 6.39129 8.30377 6.36157 8.2327 6.35522C8.23563 6.35187 8.2461 6.34062 8.25784 6.33056L7.67652 6.38922Z" fill="#C09302"/>
</g>
</g>
</svg>
