<svg width="20" height="15" viewBox="0 0 20 15" fill="none" xmlns="http://www.w3.org/2000/svg">
<g clip-path="url(#clip0_14_478)">
<path d="M0 10H20V15H0V10Z" fill="black"/>
<path d="M0 5H20V10H0V5Z" fill="white"/>
<path d="M0 0H20V5H0V0Z" fill="#CE1126"/>
<path d="M10.02 7.56002L11.7325 9.15002L11.61 6.26252C11.5925 5.82502 11.2125 5.92502 10.935 6.08252C10.6575 6.26252 10.335 6.26252 10 6.14502C9.66252 6.26252 9.34252 6.26252 9.06502 6.08252C8.79002 5.92502 8.40752 5.82502 8.39002 6.26252L8.26752 9.15002L10.02 7.56002Z" fill="white" stroke="#C09300" stroke-width="0.052" stroke-linejoin="round"/>
<path d="M8.58752 6.16248L8.46752 8.96998L8.26752 9.14998L8.39002 6.26248C8.44908 6.21718 8.51605 6.18327 8.58752 6.16248ZM8.82752 6.36248L8.72752 8.71248L8.52752 8.91748L8.64752 6.20498C8.68752 6.24498 8.80502 6.34248 8.82752 6.36248ZM9.04502 6.54248L8.96752 8.50248L8.80502 8.65998L8.90502 6.42498C8.94502 6.46248 9.02502 6.51998 9.04502 6.54248ZM9.28252 6.64248L9.20502 8.31248L9.04752 8.43998L9.12502 6.58248C9.16502 6.59998 9.24252 6.64248 9.28252 6.64248ZM9.50252 6.64248L9.44502 8.03498L9.28252 8.19248L9.34502 6.65998C9.38252 6.65998 9.48502 6.65998 9.50252 6.64248Z" fill="#C09300"/>
<path d="M11.4125 6.16248L11.5325 8.96998L11.7325 9.14998L11.61 6.26248C11.551 6.21718 11.484 6.18327 11.4125 6.16248ZM11.1725 6.36248L11.2725 8.71248L11.4725 8.91748L11.3525 6.20498C11.3125 6.24498 11.195 6.34248 11.1725 6.36248ZM10.955 6.54248L11.0325 8.50248L11.195 8.65998L11.095 6.42498C11.055 6.46248 10.975 6.51998 10.955 6.54248ZM10.7175 6.64248L10.795 8.31248L10.9525 8.43998L10.875 6.58248C10.835 6.59998 10.7575 6.64248 10.7175 6.64248ZM10.4975 6.64248L10.555 8.03498L10.7175 8.19248L10.655 6.65998C10.6175 6.65998 10.515 6.65998 10.4975 6.64248Z" fill="#C09300"/>
<path d="M10.08 7.875L10.32 8.97L10.24 9.05L10.1575 8.9875L10.0225 8.0125L10.08 8.9875L9.99999 9.0875L9.92249 8.9875L9.97999 8.0125L9.84249 8.9875L9.75999 9.05L9.67999 8.97L9.91999 7.8775H10.08V7.875Z" fill="#C09300" stroke="#C09300" stroke-width="0.044"/>
<path d="M9.46255 7.39496L8.98505 9.08746L9.64255 9.18746L9.92005 7.91496L9.46255 7.39496Z" fill="white" stroke="#C09300" stroke-width="0.048" stroke-linejoin="round"/>
<path d="M9.30505 7.97494L9.36255 8.11244L9.67255 7.81744" stroke="#C09300" stroke-width="0.052" stroke-linejoin="round"/>
<path d="M9.52003 7.62494L9.58503 8.23244L9.78253 7.97244M9.70253 8.07244L9.81003 8.44744M9.85253 8.30994L9.63503 8.63994M9.70253 8.96994L9.63253 8.63994M9.63253 8.63994L9.57253 8.30494L9.42503 8.50244L9.36253 8.27494L9.15753 8.48494L9.26003 8.86494L9.40503 8.62994L9.48253 8.86994L9.63253 8.63994Z" stroke="#C09300" stroke-width="0.052" stroke-linejoin="round"/>
<path d="M9.12506 9.04999L9.25756 8.86249L9.34256 9.14999L9.46256 8.94999L9.54006 9.18999" stroke="#C09300" stroke-width="0.052" stroke-linejoin="round"/>
<path d="M10.5375 7.39496L11.015 9.08746L10.3575 9.18746L10.08 7.91496L10.5375 7.39496Z" fill="white" stroke="#C09300" stroke-width="0.048" stroke-linejoin="round"/>
<path d="M10.695 7.97494L10.6375 8.11244L10.3275 7.81744" stroke="#C09300" stroke-width="0.052" stroke-linejoin="round"/>
<path d="M10.48 7.62494L10.415 8.23244L10.2175 7.97244M10.2975 8.07244L10.19 8.44744M10.1475 8.30994L10.365 8.63994M10.2975 8.96994L10.3675 8.63994M10.3675 8.63994L10.4275 8.30494L10.575 8.50244L10.6375 8.27494L10.8425 8.48494L10.74 8.86494L10.595 8.62994L10.5175 8.86994L10.3675 8.63994Z" stroke="#C09300" stroke-width="0.052" stroke-linejoin="round"/>
<path d="M10.875 9.04999L10.7425 8.86249L10.6575 9.14999L10.5375 8.94999L10.46 9.18999" stroke="#C09300" stroke-width="0.052" stroke-linejoin="round"/>
<path d="M9.99999 9.84497C10.5 9.84497 10.975 9.80497 11.255 9.72747C11.3725 9.70497 11.3725 9.64497 11.3725 9.56497C11.4925 9.52497 11.4325 9.38497 11.515 9.38497C11.43 9.40997 11.415 9.24747 11.315 9.26747C11.315 9.12747 11.1725 9.10997 11.055 9.14997C10.8175 9.22747 10.3975 9.24747 9.99999 9.24747C9.59999 9.22747 9.18499 9.22747 8.94499 9.14747C8.82749 9.10997 8.68749 9.12747 8.68749 9.26747C8.58749 9.24747 8.56999 9.40747 8.48749 9.38497C8.56999 9.38497 8.50749 9.52747 8.62749 9.56497C8.62749 9.64497 8.62749 9.70497 8.74749 9.72747C9.02249 9.80497 9.50249 9.84497 9.99999 9.84497Z" fill="white" stroke="#C09300" stroke-width="0.096" stroke-linecap="round" stroke-linejoin="round"/>
<path d="M9.32249 9.08748C9.48249 9.10998 9.66249 9.12748 9.80249 9.10998C9.88249 9.10998 9.93999 9.24748 9.77999 9.26748C9.64249 9.28498 9.42249 9.26748 9.30499 9.24748C9.15036 9.22041 8.9969 9.18705 8.84499 9.14748C8.70499 9.08748 8.80499 8.97248 8.88499 8.98748C9.02771 9.03321 9.17407 9.06666 9.32249 9.08748ZM10.6775 9.08748C10.5175 9.10998 10.3375 9.12748 10.2025 9.10998C10.1175 9.10998 10.06 9.24748 10.22 9.26748C10.36 9.28498 10.5775 9.26748 10.695 9.24748C10.795 9.22748 11.015 9.18998 11.155 9.14748C11.295 9.08748 11.195 8.97248 11.115 8.98748C10.9723 9.03322 10.8259 9.06667 10.6775 9.08748Z" fill="white" stroke="#C09300" stroke-width="0.052" stroke-linecap="round" stroke-linejoin="round"/>
<path d="M8.82498 9.00998C8.70498 8.98748 8.64998 9.12748 8.68748 9.20748C8.70498 9.16748 8.78748 9.16748 8.80498 9.12748C8.82748 9.06748 8.78748 9.06748 8.82748 9.00998H8.82498ZM9.30498 9.37748C9.30498 9.29748 9.38248 9.30748 9.38248 9.22748C9.38248 9.18998 9.36248 9.12748 9.32248 9.12748C9.30166 9.12868 9.28199 9.13749 9.26724 9.15224C9.25249 9.16699 9.24368 9.18666 9.24248 9.20748C9.22498 9.28498 9.30498 9.29748 9.30498 9.37748ZM9.87248 9.14998C9.98998 9.14998 9.97748 9.30748 9.92248 9.38748C9.92248 9.32998 9.82248 9.30748 9.82248 9.26748C9.82248 9.20748 9.91248 9.20748 9.87248 9.14998ZM11.1725 9.00998C11.295 8.98748 11.3525 9.12748 11.3125 9.20748C11.295 9.16748 11.2125 9.16748 11.195 9.12748C11.1725 9.06748 11.2125 9.06748 11.1725 9.00998ZM10.7 9.37498C10.7 9.29498 10.62 9.30498 10.62 9.22498C10.62 9.18748 10.64 9.12498 10.68 9.12498C10.7008 9.12618 10.7205 9.13499 10.7352 9.14974C10.75 9.16449 10.7588 9.18416 10.76 9.20498C10.7775 9.28248 10.6975 9.29498 10.6975 9.37498H10.7ZM10.125 9.14998C10.0075 9.14998 10.02 9.30748 10.075 9.38748C10.075 9.32998 10.175 9.30748 10.175 9.26748C10.175 9.20748 10.085 9.20748 10.125 9.14998Z" fill="white" stroke="#C09300" stroke-width="0.052" stroke-linecap="round" stroke-linejoin="round"/>
<path d="M8.86749 9.04999C8.90749 9.04999 8.96749 9.06749 8.98499 9.08999L8.86749 9.04999ZM9.06499 9.10999C9.08499 9.10999 9.16499 9.12749 9.20249 9.14999L9.06499 9.10999ZM9.77999 9.18999C9.74249 9.18999 9.66249 9.18999 9.64249 9.20749L9.77999 9.18749V9.18999ZM9.56249 9.18999C9.53999 9.16749 9.46249 9.16749 9.42249 9.18999H9.56249ZM11.1325 9.04999C11.0901 9.05052 11.0489 9.06453 11.015 9.08999L11.1325 9.04999ZM10.9375 9.10999C10.9125 9.10999 10.8375 9.12749 10.7975 9.14999L10.9375 9.10999ZM10.22 9.18999C10.2575 9.18999 10.3375 9.18999 10.36 9.20749L10.22 9.18749V9.18999ZM10.4375 9.18999C10.46 9.16749 10.5375 9.16749 10.5775 9.18999H10.4375Z" fill="white" stroke="#C09300" stroke-width="0.036" stroke-linecap="round" stroke-linejoin="round"/>
<path d="M8.83248 9.365C8.81998 9.3625 8.81248 9.35 8.81748 9.34C8.81998 9.3225 8.83248 9.315 8.84248 9.32C8.85248 9.32 8.86498 9.335 8.86498 9.34L8.85498 9.3575L8.84998 9.36C8.84998 9.365 8.83998 9.365 8.83248 9.365ZM10.2075 9.4625C10.2025 9.4625 10.1925 9.45 10.1925 9.445C10.1925 9.435 10.2075 9.42 10.2175 9.42L10.2375 9.43C10.245 9.4375 10.245 9.4525 10.235 9.46C10.23 9.465 10.215 9.465 10.2075 9.46V9.4625ZM10.215 9.525C10.205 9.52 10.2025 9.515 10.2 9.505C10.2 9.4925 10.2 9.49 10.2125 9.4825L10.2225 9.4775L10.2325 9.4825C10.2425 9.4875 10.25 9.4925 10.25 9.5025C10.25 9.51 10.2425 9.5175 10.2325 9.5225C10.225 9.5275 10.2225 9.5275 10.215 9.5225V9.525Z" fill="#C09300"/>
<path d="M8.94497 9.25C8.93497 9.25 8.92247 9.26 8.91497 9.265C8.89997 9.2675 8.87997 9.2775 8.86497 9.265C8.84997 9.2625 8.82997 9.265 8.82747 9.285C8.82997 9.3025 8.85247 9.31 8.86747 9.3C8.87747 9.2875 8.90497 9.2775 8.90997 9.3C8.89747 9.32 8.89997 9.3425 8.88997 9.36C8.88997 9.3725 8.88247 9.3825 8.87747 9.3925C8.86497 9.3925 8.85247 9.3925 8.84247 9.4C8.83471 9.4 8.82705 9.40181 8.82011 9.40528C8.81316 9.40875 8.80713 9.41379 8.80247 9.42C8.79247 9.435 8.78247 9.45 8.77997 9.47C8.78247 9.485 8.80497 9.49 8.81997 9.4925L8.86997 9.5075L8.94997 9.53C8.98997 9.5425 9.02997 9.5475 9.06997 9.5575L9.08247 9.56C9.09997 9.565 9.10747 9.5475 9.10747 9.535L9.13247 9.445C9.13747 9.4325 9.14497 9.4075 9.12247 9.4125C9.10997 9.42 9.09747 9.4325 9.08247 9.4325C9.05997 9.4325 9.07247 9.4575 9.08247 9.465C9.08247 9.48 9.07747 9.4975 9.06997 9.51C9.05497 9.5175 9.03997 9.51 9.02497 9.505C9.01247 9.505 8.98247 9.4975 8.99497 9.48L9.00747 9.435C9.01497 9.42 9.01497 9.4025 9.01997 9.385C9.00997 9.3675 8.99497 9.3925 8.98247 9.395C8.97247 9.4 8.94247 9.4025 8.95747 9.42C8.97247 9.43 8.96247 9.4475 8.95747 9.4625C8.95747 9.48 8.93747 9.4875 8.92247 9.48C8.90747 9.48 8.88497 9.4675 8.89747 9.4525L8.90997 9.4075L8.92747 9.3575C8.92747 9.34 8.93497 9.3275 8.94247 9.3125C8.94247 9.295 8.95497 9.28 8.95497 9.2625C8.95497 9.255 8.94997 9.2525 8.94497 9.2525V9.25ZM8.85247 9.4325C8.85361 9.43184 8.8549 9.43149 8.85622 9.43149C8.85753 9.43149 8.85883 9.43184 8.85997 9.4325C8.86497 9.4375 8.86497 9.4425 8.85997 9.4475L8.85247 9.4525C8.83997 9.4525 8.83747 9.45 8.83747 9.445C8.83747 9.4425 8.83747 9.44 8.84497 9.4375C8.84801 9.43531 8.85139 9.43362 8.85497 9.4325H8.85247ZM8.82747 9.5575C8.81497 9.5475 8.81747 9.54 8.83497 9.525C8.84497 9.52 8.84747 9.52 8.85747 9.5275C8.87247 9.54 8.87247 9.5475 8.85747 9.56C8.85247 9.565 8.84997 9.565 8.84497 9.565C8.83747 9.565 8.83497 9.565 8.82747 9.56V9.5575ZM8.90247 9.5825C8.89688 9.58076 8.8922 9.57692 8.8894 9.57179C8.8866 9.56666 8.8859 9.56063 8.88747 9.555C8.89247 9.545 8.89497 9.5425 8.90997 9.5425C8.92747 9.5425 8.92997 9.545 8.93247 9.56C8.93247 9.57 8.93247 9.5725 8.92497 9.5775C8.92218 9.57971 8.91896 9.58129 8.91551 9.58216C8.91206 9.58302 8.90847 9.58314 8.90497 9.5825H8.90247ZM11.1325 9.5825C11.1275 9.58 11.125 9.5775 11.125 9.57C11.125 9.56 11.13 9.5525 11.145 9.5475C11.16 9.54 11.17 9.54 11.175 9.5525C11.1825 9.5675 11.1825 9.5725 11.1725 9.5825C11.1675 9.59 11.165 9.59 11.1525 9.59C11.14 9.59 11.1375 9.59 11.1325 9.585V9.5825ZM9.00747 9.6125C8.99747 9.6125 8.99247 9.6025 8.99247 9.5925C8.99247 9.585 8.99247 9.5825 8.99747 9.5775L9.01247 9.5725L9.02747 9.575C9.03997 9.585 9.04247 9.595 9.03497 9.605C9.02747 9.615 9.01997 9.615 9.00497 9.6125H9.00747ZM9.55247 9.6375L9.54747 9.63C9.54747 9.615 9.54747 9.6025 9.55247 9.5875C9.55497 9.575 9.55247 9.5625 9.55747 9.55L9.56747 9.48C9.56747 9.4675 9.56747 9.455 9.57247 9.445C9.57497 9.425 9.57247 9.4075 9.57747 9.39C9.57747 9.3825 9.58497 9.365 9.59247 9.375C9.60247 9.39 9.61497 9.4 9.62747 9.4125C9.63747 9.42 9.62747 9.43 9.61997 9.4325C9.60997 9.435 9.60747 9.4475 9.60747 9.4575L9.60247 9.4875C9.60247 9.505 9.60247 9.52 9.59747 9.5375L9.59497 9.5825L9.58997 9.6125C9.58997 9.6225 9.58997 9.635 9.57997 9.64C9.57247 9.645 9.55997 9.645 9.55497 9.6375H9.55247ZM10.295 9.3925L10.2625 9.4225C10.2475 9.435 10.275 9.44 10.2775 9.45C10.2825 9.465 10.2825 9.48 10.2825 9.495C10.2875 9.51 10.29 9.5225 10.2875 9.5375C10.2875 9.555 10.2675 9.55 10.2575 9.56C10.245 9.565 10.24 9.5775 10.2325 9.585C10.2265 9.59754 10.2231 9.61114 10.2225 9.625C10.2225 9.6375 10.215 9.65 10.2225 9.66L10.225 9.665H10.2375L10.275 9.6625C10.305 9.6575 10.3375 9.6575 10.3675 9.655L10.4225 9.65C10.4375 9.6525 10.445 9.6375 10.445 9.625C10.435 9.6075 10.4425 9.59 10.435 9.575C10.43 9.555 10.4325 9.5375 10.43 9.52C10.43 9.505 10.4125 9.5 10.405 9.51C10.395 9.52 10.38 9.5225 10.375 9.5325C10.3675 9.5475 10.39 9.5475 10.395 9.5575L10.3975 9.595C10.4 9.61 10.385 9.61 10.3725 9.6125C10.36 9.6175 10.3425 9.62 10.335 9.605C10.33 9.5925 10.33 9.58 10.33 9.5675C10.33 9.5425 10.3225 9.5225 10.3225 9.5C10.3225 9.475 10.315 9.4475 10.315 9.42C10.315 9.4075 10.3125 9.39 10.295 9.3925ZM10.28 9.5975H10.2875V9.6175L10.28 9.62C10.2767 9.62104 10.2733 9.62188 10.27 9.6225C10.2683 9.62257 10.2666 9.62257 10.265 9.6225C10.26 9.6175 10.26 9.61 10.2675 9.6025L10.28 9.5975ZM9.52997 9.3675C9.52247 9.3675 9.50997 9.385 9.49997 9.3825C9.47747 9.385 9.47997 9.4075 9.49747 9.415V9.435C9.49997 9.455 9.48747 9.4725 9.48997 9.4925C9.48997 9.5125 9.48247 9.535 9.48247 9.5575C9.47497 9.58 9.47497 9.6025 9.47247 9.625C9.46997 9.645 9.45497 9.6375 9.44247 9.6325V9.6075C9.44497 9.585 9.42997 9.58 9.41247 9.5775C9.39497 9.5775 9.38747 9.565 9.39247 9.55C9.39997 9.54 9.41747 9.5425 9.42997 9.5425C9.45497 9.5475 9.45247 9.515 9.43997 9.5025C9.42997 9.4875 9.40997 9.4775 9.40497 9.4625C9.40497 9.4425 9.39247 9.42 9.37497 9.41C9.34747 9.4075 9.32497 9.43 9.31747 9.455C9.30497 9.455 9.29247 9.46 9.28247 9.465C9.26497 9.47 9.23997 9.5 9.26497 9.5125C9.27747 9.515 9.31997 9.525 9.29997 9.5425C9.28997 9.5625 9.26997 9.5625 9.25247 9.5575C9.23497 9.5575 9.21497 9.5475 9.21497 9.5275C9.21247 9.5075 9.21247 9.4875 9.20497 9.47C9.19997 9.45 9.17747 9.455 9.17497 9.475C9.15747 9.4875 9.15997 9.51 9.17247 9.525C9.17997 9.5425 9.17247 9.565 9.16497 9.58C9.15997 9.605 9.13497 9.605 9.11747 9.61C9.10997 9.615 9.07747 9.61 9.08997 9.6275C9.10871 9.63613 9.12967 9.63875 9.14997 9.635C9.16997 9.635 9.18747 9.6175 9.19997 9.6C9.21247 9.5875 9.23497 9.595 9.25497 9.595C9.27247 9.595 9.29247 9.6075 9.31247 9.5975C9.31747 9.585 9.34247 9.56 9.34997 9.585C9.34997 9.6075 9.36747 9.6175 9.38747 9.615C9.40997 9.615 9.39997 9.63 9.39997 9.645C9.39997 9.6675 9.41747 9.68 9.43747 9.69H9.45747C9.47497 9.6825 9.49497 9.675 9.50247 9.655C9.50997 9.6375 9.50997 9.6175 9.51497 9.6C9.51997 9.5725 9.52497 9.5425 9.52497 9.515C9.53247 9.49 9.52997 9.4625 9.53497 9.435L9.54247 9.3775C9.54247 9.365 9.53747 9.365 9.52997 9.3675ZM9.36247 9.47C9.36497 9.47 9.36747 9.475 9.36747 9.4825C9.36747 9.4925 9.37247 9.5 9.37997 9.5025V9.51L9.35997 9.515C9.34747 9.515 9.33747 9.51 9.32997 9.5025L9.32497 9.4975L9.33247 9.4925L9.34497 9.48C9.35247 9.4725 9.35747 9.47 9.36247 9.47ZM11.0125 9.2725C10.9981 9.27353 10.9838 9.27605 10.97 9.28C10.945 9.28 10.9325 9.305 10.9575 9.32C10.9725 9.3575 10.995 9.31 11.02 9.315C11.055 9.32 11.0575 9.36 11.065 9.39C11.065 9.4175 11.075 9.445 11.0825 9.4725C11.1075 9.5 11.065 9.5175 11.0475 9.4975C11.0325 9.48 10.9975 9.46 10.98 9.4825C10.9575 9.4925 10.955 9.5225 10.9375 9.5325C10.9075 9.54 10.905 9.5025 10.8875 9.4875C10.8725 9.465 10.845 9.4625 10.8225 9.4575C10.8125 9.435 10.8175 9.3975 10.7975 9.3825C10.7775 9.39 10.7425 9.425 10.7725 9.4425C10.7975 9.4675 10.76 9.4775 10.7475 9.4925C10.7275 9.515 10.7225 9.5425 10.7225 9.5675C10.69 9.585 10.685 9.5475 10.68 9.525C10.68 9.4975 10.655 9.505 10.6375 9.515C10.6125 9.525 10.6025 9.5475 10.5875 9.565V9.615C10.5925 9.6375 10.6175 9.6275 10.6325 9.625C10.6575 9.615 10.6675 9.6425 10.6475 9.6575C10.6325 9.6725 10.5925 9.665 10.5975 9.6925H10.6375C10.6625 9.685 10.6925 9.665 10.695 9.635C10.7 9.61 10.7375 9.6125 10.7575 9.6075C10.7825 9.6 10.815 9.5975 10.8225 9.6325C10.84 9.65 10.8775 9.67 10.8975 9.645C10.907 9.63897 10.9146 9.63037 10.9195 9.6202C10.9243 9.61003 10.9262 9.5987 10.925 9.5875C10.9225 9.5675 10.9575 9.5675 10.9675 9.58C10.98 9.6 11.02 9.595 11.04 9.58C11.06 9.5675 11.065 9.54 11.095 9.54L11.23 9.5025C11.265 9.495 11.225 9.4725 11.215 9.4575C11.19 9.445 11.165 9.5 11.135 9.4725C11.11 9.455 11.1125 9.4225 11.105 9.395C11.0975 9.36 11.1 9.32 11.075 9.295C11.06 9.2775 11.035 9.2725 11.0125 9.2725ZM10.8425 9.51C10.845 9.51 10.85 9.51 10.855 9.515C10.865 9.52 10.8725 9.53 10.8725 9.54C10.8725 9.545 10.8725 9.545 10.865 9.5475L10.8525 9.5525C10.8475 9.5525 10.835 9.545 10.835 9.54V9.53C10.83 9.52 10.83 9.52 10.835 9.515L10.8425 9.51ZM11.005 9.52C11.015 9.52 11.02 9.52 11.025 9.5275C11.0275 9.5375 11.025 9.5425 11.015 9.5475L11.0025 9.5525L10.9925 9.545C10.9875 9.5425 10.985 9.54 10.985 9.535C10.985 9.5275 10.995 9.52 11.005 9.5175V9.52ZM10.78 9.52C10.785 9.52 10.7875 9.52 10.79 9.525C10.795 9.53 10.7975 9.5325 10.7975 9.54V9.555C10.7975 9.5625 10.7975 9.56 10.7825 9.56C10.7675 9.56 10.765 9.56 10.765 9.545C10.765 9.535 10.765 9.5325 10.7725 9.5275C10.775 9.5225 10.78 9.5225 10.7825 9.5225L10.78 9.52ZM10.645 9.5575C10.6473 9.55822 10.6495 9.5595 10.6512 9.56125C10.653 9.56299 10.6543 9.56514 10.655 9.5675C10.655 9.575 10.655 9.58 10.65 9.5825C10.6425 9.585 10.63 9.5875 10.625 9.5825C10.6249 9.58167 10.6249 9.58083 10.625 9.58C10.62 9.5775 10.62 9.575 10.625 9.5725V9.57L10.63 9.5625C10.6315 9.56007 10.6338 9.55824 10.6366 9.55733C10.6393 9.55642 10.6423 9.55648 10.645 9.5575ZM10.875 9.5875L10.8875 9.59V9.605H10.8575L10.855 9.6C10.855 9.595 10.855 9.5925 10.86 9.59L10.875 9.5875ZM10.4475 9.7075C10.445 9.7075 10.44 9.705 10.445 9.7025C10.4475 9.695 10.4575 9.6925 10.465 9.6875C10.4786 9.68231 10.4906 9.6737 10.5 9.6625C10.5 9.6525 10.51 9.6475 10.51 9.6375L10.5075 9.6025C10.5041 9.592 10.497 9.5831 10.4875 9.5775C10.48 9.575 10.47 9.5725 10.4675 9.5625C10.4675 9.555 10.475 9.5475 10.4775 9.54L10.4925 9.51C10.5 9.5025 10.51 9.51 10.5125 9.515L10.525 9.54C10.5325 9.5475 10.5375 9.555 10.54 9.565C10.545 9.575 10.55 9.5825 10.55 9.59L10.555 9.6225C10.555 9.635 10.555 9.65 10.55 9.6625L10.535 9.6825C10.5275 9.69 10.52 9.6975 10.51 9.7C10.5025 9.7025 10.4975 9.71 10.4875 9.71H10.45L10.4475 9.7075ZM10.275 9.7175C10.27 9.7125 10.2675 9.71 10.2675 9.7025C10.2675 9.695 10.2675 9.695 10.275 9.6875C10.285 9.6775 10.29 9.6775 10.31 9.6875C10.3275 9.6975 10.335 9.6975 10.335 9.69C10.3375 9.685 10.3475 9.6775 10.36 9.6775C10.3646 9.67767 10.369 9.67944 10.3725 9.6825C10.3775 9.6875 10.38 9.69 10.38 9.7C10.38 9.7125 10.38 9.7125 10.3725 9.72C10.365 9.725 10.365 9.725 10.355 9.725C10.3505 9.72476 10.3463 9.7232 10.3427 9.72053C10.3391 9.71786 10.3364 9.7142 10.335 9.71C10.335 9.705 10.335 9.7025 10.33 9.7075L10.325 9.71C10.32 9.71 10.31 9.7175 10.305 9.7225L10.2925 9.725C10.2825 9.725 10.2825 9.725 10.275 9.7175ZM9.77997 9.495C9.76247 9.495 9.74497 9.51 9.74247 9.5275C9.74747 9.545 9.76247 9.565 9.75247 9.5825C9.75997 9.6075 9.73247 9.6175 9.71497 9.605C9.70497 9.58 9.69997 9.555 9.68247 9.53C9.66247 9.525 9.65497 9.5575 9.63997 9.57C9.64747 9.5875 9.66747 9.605 9.66997 9.6275C9.67497 9.6525 9.65997 9.6775 9.64247 9.6875C9.62497 9.705 9.59997 9.7 9.57997 9.7025C9.55497 9.7175 9.59747 9.7225 9.60997 9.7225C9.63497 9.725 9.66247 9.7225 9.68497 9.7025C9.70247 9.695 9.69997 9.66 9.72247 9.6575L9.84247 9.665C9.86247 9.67 9.89497 9.6625 9.90997 9.6775C9.90997 9.7025 9.93497 9.7225 9.95747 9.7325C9.96997 9.7375 9.98247 9.72 9.99497 9.7175C10.02 9.71 10.0125 9.68 10.0275 9.6675H10.1525C10.1575 9.6675 10.16 9.655 10.1675 9.65L10.1625 9.6025C10.155 9.5825 10.1625 9.5575 10.15 9.54C10.1275 9.535 10.11 9.5525 10.09 9.555C10.065 9.565 10.0475 9.5875 10.045 9.6125C10.0325 9.635 10.01 9.6075 10.02 9.5875L10.0175 9.5625C10.005 9.55 9.98247 9.555 9.96497 9.5525L9.88997 9.5475C9.86497 9.5475 9.84247 9.55 9.82247 9.545C9.79747 9.545 9.79747 9.52 9.79747 9.5C9.79247 9.49619 9.78622 9.49441 9.77997 9.495ZM9.82997 9.5875L9.85497 9.59H9.88747C9.91247 9.595 9.93747 9.595 9.96247 9.595C9.96747 9.595 9.97247 9.6 9.97747 9.605V9.655C9.97747 9.6625 9.97747 9.6725 9.97247 9.675C9.97116 9.67699 9.96946 9.67869 9.96747 9.68C9.9638 9.67935 9.96033 9.67789 9.95731 9.67573C9.95428 9.67357 9.95177 9.67075 9.94997 9.6675V9.6325C9.94501 9.62831 9.93892 9.6257 9.93247 9.625L9.86747 9.6225L9.81747 9.62C9.80997 9.6175 9.79997 9.62 9.79497 9.61C9.78997 9.605 9.79747 9.595 9.80497 9.5925C9.81282 9.58898 9.82137 9.58727 9.82997 9.5875ZM10.1125 9.595C10.115 9.595 10.1175 9.595 10.1175 9.6025L10.1225 9.615C10.1225 9.6175 10.1225 9.62 10.1175 9.62C10.105 9.625 10.0925 9.625 10.0875 9.62C10.0875 9.6175 10.0875 9.6075 10.0925 9.605L10.1125 9.595Z" fill="#C09300"/>
<path d="M10 8.17998C10.815 7.55498 10.745 6.63498 10.745 6.63498L10.6825 6.63998C10.51 6.63998 10.1025 6.53998 10.0075 6.41748C9.9075 6.52998 9.4875 6.64248 9.3175 6.64248L9.255 6.63498C9.255 6.63498 9.1825 7.55248 10 8.17998Z" fill="white" stroke="#C09300" stroke-width="0.044"/>
<path d="M10.68 6.7H10.66C10.505 6.7 10.145 6.6225 10.005 6.5025C9.86001 6.6125 9.49251 6.7025 9.34001 6.7025C9.33328 6.70224 9.32659 6.70141 9.32001 6.7C9.32137 6.85799 9.34322 7.01513 9.38501 7.1675C9.48528 7.5346 9.70088 7.85975 10 8.095C10.2993 7.85886 10.5149 7.53286 10.615 7.165C10.6566 7.01344 10.6784 6.85715 10.68 6.7Z" fill="white" stroke="#C09300" stroke-width="0.036"/>
<path d="M9.73501 6.625C9.60072 6.66873 9.4611 6.69396 9.32001 6.7L9.32251 6.8025C9.33104 6.92513 9.35199 7.04659 9.38501 7.165C9.45221 7.41087 9.57159 7.63938 9.73501 7.835V6.625ZM10.25 6.625V7.855C10.4213 7.65488 10.546 7.4192 10.615 7.165C10.648 7.04658 10.6689 6.92513 10.6775 6.8025L10.68 6.7025H10.66C10.565 6.7025 10.4 6.6725 10.25 6.6225V6.625Z" fill="#C09300"/>
<path d="M10.3075 6.32499C10.325 6.32749 10.285 6.23749 10.285 6.23749C10.33 6.28249 10.495 6.29499 10.495 6.29499C10.395 6.24999 10.295 5.91749 10.3075 5.64999C10.3175 5.38499 10.27 5.27999 10.2325 5.23999C10.1825 5.18999 10.02 5.14499 9.915 5.13999C9.8525 5.13749 9.865 5.18499 9.865 5.18499C9.7525 5.15749 9.64 5.14499 9.59 5.17999C9.545 5.20999 9.535 5.36749 9.57 5.33999C9.6525 5.27249 9.725 5.33499 9.775 5.40749C9.82 5.46999 9.8175 5.64999 9.7525 5.86249C9.69495 6.02313 9.6104 6.17278 9.5025 6.30499C9.6025 6.30499 9.7425 6.21749 9.7425 6.21749L9.71 6.35499C9.815 6.30499 9.8975 6.22749 9.8975 6.22749L9.9975 6.33249C10.03 6.28749 10.0975 6.22749 10.0975 6.22749C10.0975 6.22749 10.18 6.31499 10.3075 6.32749V6.32499Z" fill="white" stroke="#C09300" stroke-width="0.048"/>
<path d="M9.90249 5.68999C9.90249 5.68999 9.84749 6.09999 9.74249 6.21499M9.99249 5.67749C9.99249 5.67749 9.96749 6.09499 9.89749 6.22749M10.07 5.69499C10.07 5.69499 10.07 6.14999 10.095 6.22749M10.17 5.71749C10.17 5.71749 10.19 6.09999 10.285 6.23749" stroke="#C09300" stroke-width="0.052"/>
<path d="M9.80001 5.48999C9.79777 5.461 9.78924 5.43285 9.77501 5.40749C9.72501 5.33249 9.65251 5.27249 9.57001 5.33999C9.57001 5.33999 9.59751 5.25249 9.66001 5.24999C9.70501 5.24749 9.81251 5.28499 9.90751 5.44499C9.90751 5.44499 9.83751 5.42999 9.82001 5.44499C9.79001 5.46999 9.80251 5.48999 9.80251 5.48999H9.80001Z" fill="#C09300" stroke="#C09300" stroke-width="0.012"/>
<path d="M9.56 5.23249C9.5675 5.20749 9.5775 5.18749 9.5925 5.17999C9.6425 5.14499 9.7525 5.15499 9.865 5.18499C9.865 5.18499 9.855 5.13749 9.915 5.13999C10.02 5.14499 10.18 5.18999 10.23 5.23999C10.246 5.25757 10.2587 5.27789 10.2675 5.29999C10.2425 5.26499 10.1725 5.26749 10.155 5.26999C10.13 5.27249 10.1125 5.26999 10.0775 5.27999C10.06 5.28499 10.035 5.28999 10.02 5.29999C10.01 5.30999 10 5.33999 9.985 5.33999C9.96 5.33999 9.96 5.33499 9.9525 5.32749C9.945 5.31499 9.94 5.29999 9.93 5.30249C9.905 5.30499 9.86 5.28499 9.805 5.23999C9.7475 5.19499 9.725 5.18499 9.655 5.18999C9.58 5.19499 9.56 5.23749 9.56 5.23749V5.23249Z" fill="#C09300" stroke="#C09300" stroke-width="0.012"/>
<path d="M9.97 5.29749C9.98657 5.29749 10 5.28406 10 5.26749C10 5.25092 9.98657 5.23749 9.97 5.23749C9.95343 5.23749 9.94 5.25092 9.94 5.26749C9.94 5.28406 9.95343 5.29749 9.97 5.29749Z" fill="white"/>
</g>
<defs>
<clipPath id="clip0_14_478">
<rect width="20" height="15" fill="white"/>
</clipPath>
</defs>
</svg>
