<svg width="20" height="15" viewBox="0 0 20 15" fill="none" xmlns="http://www.w3.org/2000/svg">
<g clip-path="url(#clip0_14_431)">
<mask id="mask0_14_431" style="mask-type:luminance" maskUnits="userSpaceOnUse" x="-1" y="0" width="22" height="16">
<path d="M-0.0118408 0H20.0425V15.04H-0.0118408V0Z" fill="white"/>
</mask>
<g mask="url(#mask0_14_431)">
<path fill-rule="evenodd" clip-rule="evenodd" d="M-0.00012207 0H20.0013V7.49944H-0.00012207V0Z" fill="black"/>
<path fill-rule="evenodd" clip-rule="evenodd" d="M-0.00012207 7.49945H20.0013V14.9989H-0.00012207V7.49945Z" fill="#007A3D"/>
<path fill-rule="evenodd" clip-rule="evenodd" d="M-0.00012207 4.37396H20.0013V10.625H-0.00012207V4.37396Z" fill="white"/>
<path fill-rule="evenodd" clip-rule="evenodd" d="M-0.00012207 0L9.99913 7.49944L-0.00012207 14.9989V0Z" fill="#C4111B"/>
<path d="M14.9987 9.4999C16.1035 9.4999 16.9992 8.60427 16.9992 7.49946C16.9992 6.39465 16.1035 5.49902 14.9987 5.49902C13.8939 5.49902 12.9983 6.39465 12.9983 7.49946C12.9983 8.60427 13.8939 9.4999 14.9987 9.4999Z" fill="#C4111B"/>
<path d="M15.7508 9.4999C16.8556 9.4999 17.7512 8.60427 17.7512 7.49946C17.7512 6.39465 16.8556 5.49902 15.7508 5.49902C14.646 5.49902 13.7504 6.39465 13.7504 7.49946C13.7504 8.60427 14.646 9.4999 15.7508 9.4999Z" fill="white"/>
<path fill-rule="evenodd" clip-rule="evenodd" d="M14.4612 8.7097L15.316 8.10163L16.162 8.71851L15.8448 7.71976L16.6966 7.10582L15.648 7.09995L15.3248 6.1012L14.9958 7.09701L13.9471 7.09113L14.7902 7.71388L14.4641 8.71263L14.4612 8.7097Z" fill="#C4111B"/>
</g>
</g>
<defs>
<clipPath id="clip0_14_431">
<rect width="20" height="15" fill="white"/>
</clipPath>
</defs>
</svg>
