<svg width="20" height="15" viewBox="0 0 20 15" fill="none" xmlns="http://www.w3.org/2000/svg">
<mask id="mask0_1825_41428" style="mask-type:luminance" maskUnits="userSpaceOnUse" x="0" y="0" width="20" height="15">
<rect width="20" height="15" fill="white"/>
</mask>
<g mask="url(#mask0_1825_41428)">
<path fill-rule="evenodd" clip-rule="evenodd" d="M0 0V15H20V0H0Z" fill="#FFB400"/>
<mask id="mask1_1825_41428" style="mask-type:luminance" maskUnits="userSpaceOnUse" x="0" y="0" width="20" height="15">
<path fill-rule="evenodd" clip-rule="evenodd" d="M0 0V15H20V0H0Z" fill="white"/>
</mask>
<g mask="url(#mask1_1825_41428)">
<path fill-rule="evenodd" clip-rule="evenodd" d="M0 0V3.75H20V0H0Z" fill="#C51918"/>
<path fill-rule="evenodd" clip-rule="evenodd" d="M0 11.25V15H20V11.25H0Z" fill="#C51918"/>
<rect x="3.13037" y="6.41992" width="0.7" height="3.64" fill="#F1F9FF"/>
<path fill-rule="evenodd" clip-rule="evenodd" d="M4.1101 5.78992H2.8501V6.13992H3.0601V6.41992H3.9001V6.13992H4.1101V5.78992Z" fill="#C88A02"/>
<path fill-rule="evenodd" clip-rule="evenodd" d="M3.9001 10.27H4.1101V10.62H2.8501V10.27H3.0601V9.98999H3.9001V10.27Z" fill="#C88A02"/>
<path fill-rule="evenodd" clip-rule="evenodd" d="M3.48023 5.85997C3.63257 5.85997 3.64805 5.80261 3.73792 5.71693C3.80771 5.65041 3.97023 5.56791 3.97023 5.47497C3.97023 5.26234 3.75085 5.08997 3.48023 5.08997C3.20961 5.08997 2.99023 5.26234 2.99023 5.47497C2.99023 5.57851 3.10216 5.64774 3.18679 5.71693C3.27595 5.78983 3.3414 5.85997 3.48023 5.85997Z" fill="#AD1619"/>
<path fill-rule="evenodd" clip-rule="evenodd" d="M2.8501 10.62H4.1101V11.18C4.1101 11.18 3.9526 11.11 3.7951 11.11C3.6376 11.11 3.4801 11.18 3.4801 11.18C3.4801 11.18 3.3226 11.11 3.1651 11.11C3.0076 11.11 2.8501 11.18 2.8501 11.18V10.62Z" fill="#005BBF"/>
<mask id="mask2_1825_41428" style="mask-type:luminance" maskUnits="userSpaceOnUse" x="2" y="10" width="3" height="2">
<path fill-rule="evenodd" clip-rule="evenodd" d="M2.8501 10.62H4.1101V11.18C4.1101 11.18 3.9526 11.11 3.7951 11.11C3.6376 11.11 3.4801 11.18 3.4801 11.18C3.4801 11.18 3.3226 11.11 3.1651 11.11C3.0076 11.11 2.8501 11.18 2.8501 11.18V10.62Z" fill="white"/>
</mask>
<g mask="url(#mask2_1825_41428)">
<path d="M2.83854 11.0699L2.81104 11.0029C2.92452 10.9523 3.03841 10.927 3.15248 10.927C3.22617 10.927 3.26465 10.9373 3.33007 10.9664C3.38753 10.992 3.41732 10.9999 3.48016 10.9999C3.54301 10.9999 3.5728 10.992 3.63026 10.9664C3.69568 10.9373 3.73416 10.927 3.80785 10.927C3.92192 10.927 4.03581 10.9523 4.14929 11.0029L4.12179 11.0699C4.01682 11.0232 3.91225 10.9999 3.80785 10.9999C3.74501 10.9999 3.71522 11.0079 3.65776 11.0334C3.59234 11.0626 3.55386 11.0728 3.48016 11.0728C3.40647 11.0728 3.36799 11.0626 3.30257 11.0334C3.24511 11.0079 3.21532 10.9999 3.15248 10.9999C3.04808 10.9999 2.94351 11.0232 2.83854 11.0699Z" fill="white"/>
<path d="M2.83854 10.8599L2.81104 10.7929C2.92452 10.7424 3.03841 10.717 3.15248 10.717C3.22617 10.717 3.26465 10.7273 3.33007 10.7564C3.38753 10.782 3.41732 10.79 3.48016 10.79C3.54301 10.79 3.5728 10.782 3.63026 10.7564C3.69568 10.7273 3.73416 10.717 3.80785 10.717C3.92192 10.717 4.03581 10.7424 4.14929 10.7929L4.12179 10.8599C4.01682 10.8132 3.91225 10.79 3.80785 10.79C3.74501 10.79 3.71522 10.7979 3.65776 10.8235C3.59234 10.8526 3.55386 10.8629 3.48016 10.8629C3.40647 10.8629 3.36799 10.8526 3.30257 10.8235C3.24511 10.7979 3.21532 10.79 3.15248 10.79C3.04808 10.79 2.94351 10.8132 2.83854 10.8599Z" fill="white"/>
</g>
<rect x="9.99023" y="6.41992" width="0.7" height="3.64" fill="#F1F9FF"/>
<path fill-rule="evenodd" clip-rule="evenodd" d="M10.9704 5.78992H9.71045V6.13992H9.92045V6.41992H10.7604V6.13992H10.9704V5.78992Z" fill="#C88A02"/>
<path fill-rule="evenodd" clip-rule="evenodd" d="M10.7604 10.27H10.9704V10.62H9.71045V10.27H9.92045V9.98999H10.7604V10.27Z" fill="#C88A02"/>
<path fill-rule="evenodd" clip-rule="evenodd" d="M10.3401 5.85997C10.4924 5.85997 10.5079 5.80261 10.5978 5.71693C10.6676 5.65041 10.8301 5.56791 10.8301 5.47497C10.8301 5.26234 10.6107 5.08997 10.3401 5.08997C10.0695 5.08997 9.8501 5.26234 9.8501 5.47497C9.8501 5.57851 9.96202 5.64774 10.0466 5.71693C10.1358 5.78983 10.2013 5.85997 10.3401 5.85997Z" fill="#AD1619"/>
<path fill-rule="evenodd" clip-rule="evenodd" d="M9.71045 10.62H10.9704V11.18C10.9704 11.18 10.8129 11.11 10.6554 11.11C10.4979 11.11 10.3404 11.18 10.3404 11.18C10.3404 11.18 10.1829 11.11 10.0254 11.11C9.86795 11.11 9.71045 11.18 9.71045 11.18V10.62Z" fill="#005BBF"/>
<mask id="mask3_1825_41428" style="mask-type:luminance" maskUnits="userSpaceOnUse" x="9" y="10" width="2" height="2">
<path fill-rule="evenodd" clip-rule="evenodd" d="M9.71045 10.62H10.9704V11.18C10.9704 11.18 10.8129 11.11 10.6554 11.11C10.4979 11.11 10.3404 11.18 10.3404 11.18C10.3404 11.18 10.1829 11.11 10.0254 11.11C9.86795 11.11 9.71045 11.18 9.71045 11.18V10.62Z" fill="white"/>
</mask>
<g mask="url(#mask3_1825_41428)">
<path d="M9.69889 11.0699L9.67139 11.0029C9.78487 10.9523 9.89876 10.927 10.0128 10.927C10.0865 10.927 10.125 10.9373 10.1904 10.9664C10.2479 10.992 10.2777 10.9999 10.3405 10.9999C10.4034 10.9999 10.4331 10.992 10.4906 10.9664C10.556 10.9373 10.5945 10.927 10.6682 10.927C10.7823 10.927 10.8962 10.9523 11.0096 11.0029L10.9821 11.0699C10.8772 11.0232 10.7726 10.9999 10.6682 10.9999C10.6054 10.9999 10.5756 11.0079 10.5181 11.0334C10.4527 11.0626 10.4142 11.0728 10.3405 11.0728C10.2668 11.0728 10.2283 11.0626 10.1629 11.0334C10.1055 11.0079 10.0757 10.9999 10.0128 10.9999C9.90843 10.9999 9.80386 11.0232 9.69889 11.0699Z" fill="white"/>
<path d="M9.69889 10.8599L9.67139 10.7929C9.78487 10.7424 9.89876 10.717 10.0128 10.717C10.0865 10.717 10.125 10.7273 10.1904 10.7564C10.2479 10.782 10.2777 10.79 10.3405 10.79C10.4034 10.79 10.4331 10.782 10.4906 10.7564C10.556 10.7273 10.5945 10.717 10.6682 10.717C10.7823 10.717 10.8962 10.7424 11.0096 10.7929L10.9821 10.8599C10.8772 10.8132 10.7726 10.79 10.6682 10.79C10.6054 10.79 10.5756 10.7979 10.5181 10.8235C10.4527 10.8526 10.4142 10.8629 10.3405 10.8629C10.2668 10.8629 10.2283 10.8526 10.1629 10.8235C10.1055 10.7979 10.0757 10.79 10.0128 10.79C9.90843 10.79 9.80386 10.8132 9.69889 10.8599Z" fill="white"/>
</g>
<path fill-rule="evenodd" clip-rule="evenodd" d="M3.11772 9.79993C3.24392 9.64692 3.31449 9.50773 3.31449 9.35989C3.31449 9.26667 3.28675 9.18616 3.23815 9.12039L3.24636 9.11669C3.24561 9.11704 3.38481 9.05636 3.43328 9.03312C3.52337 8.98992 3.60275 8.94416 3.68014 8.88788C3.72954 8.85195 3.79574 8.81282 3.89666 8.75863L3.99149 8.70819L4.01709 8.69459C4.06614 8.66843 4.10266 8.64837 4.13659 8.62869C4.24232 8.56736 4.31219 8.51667 4.36563 8.4489C4.49221 8.2884 4.46593 8.07082 4.28856 7.95006C4.20166 7.89089 4.08439 7.85694 3.9125 7.83022L3.8769 7.82471L3.66665 7.79212C3.58439 7.7792 3.511 7.76714 3.44555 7.75571C3.87591 7.6841 4.49043 7.71042 4.76074 7.84999L5.01765 7.35239C4.46681 7.06799 3.21173 7.09703 2.7429 7.4199C2.39902 7.65672 2.44517 8.0147 2.80295 8.16885C2.95245 8.23326 3.14735 8.276 3.508 8.33394C3.44756 8.369 3.39746 8.40103 3.35077 8.43498C3.30342 8.46942 3.25269 8.49866 3.19116 8.52816C3.16173 8.54227 3.07459 8.58054 3.03465 8.59808L3.01456 8.60692C2.72314 8.73943 2.5817 8.92274 2.62397 9.25366L2.64684 9.43279L2.68788 9.4454L3.11772 9.79993ZM2.75747 9.337L2.75659 9.33958L2.75727 9.33775L2.75747 9.337ZM10.4415 9.35989C10.4415 9.50773 10.512 9.64692 10.6382 9.79993L11.0681 9.4454L11.1091 9.43279L11.132 9.25366C11.1743 8.92274 11.0328 8.73943 10.7414 8.60692L10.7213 8.59808L10.7212 8.59804C10.6813 8.58049 10.5942 8.54226 10.5648 8.52816C10.5033 8.49866 10.4525 8.46942 10.4052 8.43498C10.3585 8.40103 10.3084 8.369 10.248 8.33394C10.6086 8.276 10.8035 8.23326 10.953 8.16885C11.3108 8.0147 11.3569 7.65672 11.0131 7.4199C10.5442 7.09703 9.28914 7.06799 8.7383 7.35239L8.99521 7.84999C9.26552 7.71042 9.88005 7.6841 10.3104 7.75571C10.245 7.76714 10.1716 7.7792 10.0893 7.79212L9.87903 7.82472L9.84346 7.83022C9.67156 7.85694 9.5543 7.89089 9.4674 7.95006C9.29003 8.07082 9.26375 8.2884 9.39032 8.4489C9.44376 8.51667 9.51363 8.56736 9.61936 8.62869C9.65329 8.64837 9.68982 8.66843 9.73886 8.69459L9.76453 8.70823L9.8593 8.75863C9.96021 8.81282 10.0264 8.85195 10.0758 8.88788C10.1532 8.94416 10.2326 8.98992 10.3227 9.03312C10.3711 9.05636 10.5103 9.11704 10.5096 9.11669L10.5178 9.12039C10.4692 9.18616 10.4415 9.26667 10.4415 9.35989Z" fill="#AD1619"/>
<path d="M3.70247 7.75L3.90908 7.79274V8.1007C3.68902 8.27629 3.13037 8.57223 3.13037 8.57223V7.75H3.70247Z" fill="#F1F9FF"/>
<path d="M10.1969 7.75L9.99033 7.79274V8.1007C10.2104 8.27629 10.769 8.57223 10.769 8.57223V7.75H10.1969Z" fill="#F1F9FF"/>
<path fill-rule="evenodd" clip-rule="evenodd" d="M9.2357 4.50374V4.40125C8.87565 4.14284 8.4986 4.01364 8.10456 4.01364C7.72679 3.84647 7.34442 3.78158 6.95744 3.81897C6.95755 3.81777 6.9576 3.81717 6.9576 3.81717C6.37574 3.76023 5.78934 4.01364 5.78934 4.01364C5.19828 4.01364 4.6582 4.40125 4.6582 4.40125V4.50374L5.36422 5.21282C5.36422 5.21282 5.56295 5.89531 6.95473 5.73491V5.73664C6.95473 5.73664 7.87619 5.71149 7.94094 5.68995C7.96663 5.68141 7.99328 5.67363 8.0205 5.66568C8.20099 5.61299 8.40703 5.55283 8.52968 5.21282L9.2357 4.50374ZM6.95473 3.85033C6.93463 4.0864 6.81991 5.50948 6.95473 5.73011V3.85033Z" fill="#AD1619"/>
<path fill-rule="evenodd" clip-rule="evenodd" d="M5.19642 5.09346L5.19689 5.0913L4.7002 4.624L4.74816 4.57301L5.21424 5.01151L5.22617 4.95665C5.30242 4.97323 5.35815 4.97933 5.39063 4.97588V4.88075L5.49395 4.93667C5.54477 4.96417 5.61754 4.97156 5.7134 4.95596C5.7838 4.94451 5.8313 4.86275 5.84684 4.68852L5.8782 4.33679L5.98338 4.67388C6.03098 4.82642 6.10359 4.89366 6.20697 4.89366C6.30793 4.89366 6.34852 4.85665 6.353 4.76335L6.3657 4.49874L6.48537 4.73508C6.52848 4.82023 6.58793 4.85886 6.67247 4.85886C6.79337 4.85886 6.87414 4.75807 6.87414 4.59991H6.87642H7.01414H7.01642C7.01642 4.75807 7.09719 4.85886 7.21809 4.85886C7.30263 4.85886 7.36208 4.82023 7.40519 4.73508L7.52485 4.49874L7.53756 4.76335C7.54204 4.85665 7.58262 4.89366 7.68359 4.89366C7.78696 4.89366 7.85958 4.82642 7.90718 4.67388L8.01236 4.33679L8.04372 4.68852C8.05926 4.86275 8.10676 4.94451 8.17716 4.95596C8.27301 4.97156 8.34579 4.96417 8.39661 4.93667L8.49993 4.88075V4.97588C8.53241 4.97933 8.58814 4.97323 8.66439 4.95665L8.68652 5.05844L9.20249 4.57301L9.25045 4.624L8.60839 5.22807C8.51471 5.40058 8.46754 5.51445 8.46754 5.56175C8.46754 5.63392 8.2798 5.67675 7.91338 5.72074C7.62633 5.75521 7.28756 5.77834 7.01045 5.7818V5.78225L6.97532 5.78213L6.9402 5.78225V5.7818C6.66309 5.77834 6.32432 5.75521 6.03726 5.72074C5.67085 5.67675 5.48311 5.63392 5.48311 5.56175C5.48311 5.55281 5.48142 5.54147 5.47805 5.52782C5.4411 5.48076 5.41512 5.40379 5.39784 5.33435C5.38162 5.30188 5.36309 5.26642 5.34226 5.22807L5.20001 5.09423L5.19642 5.09346ZM8.63733 5.10473C8.52269 5.12502 8.4399 5.12297 8.39598 5.08721C8.32727 5.1072 8.24669 5.10912 8.15468 5.09415C8.0564 5.07816 7.98797 5.01279 7.94679 4.90435C7.89303 4.97284 7.82505 5.01512 7.74363 5.02879C8.19157 5.09232 8.50537 5.18162 8.50537 5.18162C8.50537 5.18162 8.49762 5.24796 8.47881 5.32596C8.49873 5.28513 8.52231 5.23976 8.54958 5.18968L8.55634 5.18093L8.63733 5.10473ZM7.53225 5.00219C7.49328 4.98283 7.46218 4.95476 7.43969 4.91858C7.40629 4.94808 7.3683 4.96965 7.32612 4.98296C7.39655 4.98835 7.46542 4.99486 7.53225 5.00219ZM7.079 4.96934C7.02447 4.94414 6.97914 4.90379 6.94528 4.85209C6.91166 4.90343 6.86673 4.94357 6.81271 4.9688C6.84471 4.96785 6.87689 4.96718 6.90923 4.96682V4.9665L6.9373 4.96658L6.96537 4.9665V4.96682C7.00347 4.96724 7.04137 4.9681 7.079 4.96934ZM5.38922 5.17614L5.32395 5.11473C5.4023 5.1225 5.46028 5.11513 5.49458 5.08721C5.56328 5.1072 5.64387 5.10912 5.73588 5.09415C5.83415 5.07816 5.90259 5.01279 5.94377 4.90435C5.99597 4.97086 6.06158 5.01265 6.13989 5.02754C5.75367 5.0818 5.46552 5.15562 5.38922 5.17614ZM6.5614 4.98199C6.49358 4.98702 6.42718 4.99312 6.36262 4.99999C6.39957 4.98073 6.42921 4.95342 6.45087 4.91858C6.48347 4.94737 6.52043 4.96861 6.5614 4.98199ZM8.28349 5.56312C8.33254 5.58608 8.37185 5.56318 8.40294 5.51923C8.40025 5.53137 8.39856 5.54234 8.39788 5.55217C8.39378 5.55486 8.38748 5.5581 8.37922 5.56157C8.35617 5.57126 8.32095 5.58159 8.27514 5.59204C8.1851 5.61258 8.05693 5.633 7.90504 5.65124C7.60842 5.68685 7.25572 5.71029 6.97532 5.71213C6.69493 5.71029 6.34223 5.68685 6.04561 5.65124C5.89371 5.633 5.76555 5.61258 5.67551 5.59204C5.63711 5.58328 5.60615 5.57461 5.58356 5.56632C5.58605 5.56538 5.58856 5.56431 5.5911 5.56312C5.74402 5.49157 6.7552 5.42442 6.9373 5.41284C7.1194 5.42442 8.13058 5.49157 8.28349 5.56312ZM8.47633 5.5503L8.47527 5.55153L8.47591 5.55064L8.47633 5.5503Z" fill="#C88A02"/>
<path fill-rule="evenodd" clip-rule="evenodd" d="M6.94584 3.34187C7.06182 3.34187 7.15584 3.24785 7.15584 3.13187C7.15584 3.0159 7.06182 2.92188 6.94584 2.92188C6.82986 2.92188 6.73584 3.0159 6.73584 3.13187C6.73584 3.24785 6.82986 3.34187 6.94584 3.34187Z" fill="#005BBF"/>
<path fill-rule="evenodd" clip-rule="evenodd" d="M6.80905 4.37293C6.81353 4.39598 6.82053 4.41744 6.82937 4.43656C6.80225 4.4262 6.77005 4.4202 6.73552 4.4202C6.63887 4.4202 6.56052 4.46721 6.56052 4.5252C6.56052 4.58319 6.63887 4.6302 6.73552 4.6302C6.83217 4.6302 6.91052 4.58319 6.91052 4.5252C6.91052 4.58319 6.98887 4.6302 7.08552 4.6302C7.18217 4.6302 7.26052 4.58319 7.26052 4.5252C7.26052 4.46721 7.18217 4.4202 7.08552 4.4202C7.06119 4.4202 7.03802 4.42318 7.01696 4.42856C7.02204 4.39985 7.02182 4.36694 7.0152 4.33286C6.99675 4.23799 6.93566 4.17005 6.87873 4.18111C6.82181 4.19218 6.79061 4.27806 6.80905 4.37293ZM6.91052 4.5252L6.91044 4.52199L6.91059 4.52204L6.91052 4.5252ZM5.77937 4.50656C5.77053 4.48744 5.76353 4.46598 5.75905 4.44293C5.74061 4.34806 5.77181 4.26218 5.82873 4.25111C5.88566 4.24005 5.94675 4.30799 5.9652 4.40286C5.97182 4.43694 5.97204 4.46985 5.96696 4.49856C5.98802 4.49318 6.01119 4.4902 6.03552 4.4902C6.13217 4.4902 6.21052 4.53721 6.21052 4.5952C6.21052 4.65319 6.13217 4.7002 6.03552 4.7002C5.93887 4.7002 5.86052 4.65319 5.86052 4.5952L5.86059 4.59204L5.86044 4.59199L5.86052 4.5952C5.86052 4.65319 5.78217 4.7002 5.68552 4.7002C5.58887 4.7002 5.51052 4.65319 5.51052 4.5952C5.51052 4.53721 5.58887 4.4902 5.68552 4.4902C5.72005 4.4902 5.75225 4.4962 5.77937 4.50656ZM7.97172 4.57055C7.96365 4.62797 7.87952 4.66362 7.78381 4.65017C7.6881 4.63672 7.61706 4.57926 7.62513 4.52184C7.6332 4.46441 7.71733 4.42876 7.81304 4.44221C7.84724 4.44702 7.87829 4.45745 7.90371 4.47148C7.89761 4.45131 7.89367 4.42909 7.89244 4.40564C7.88738 4.30913 7.93023 4.22842 7.98814 4.22539C8.04605 4.22235 8.09709 4.29814 8.10215 4.39465C8.10397 4.42932 8.09961 4.46194 8.09059 4.48966C8.11218 4.48726 8.13554 4.48754 8.15963 4.49092C8.25534 4.50438 8.32639 4.56183 8.31832 4.61926C8.31025 4.67668 8.22612 4.71233 8.13041 4.69888C8.0347 4.68543 7.96365 4.62797 7.97172 4.57055ZM7.97172 4.57055L7.97209 4.56736L7.97224 4.56744L7.97172 4.57055ZM8.63823 4.84821C8.72357 4.89358 8.81482 4.88886 8.84204 4.83765L8.84348 4.83479C8.85189 4.84369 8.86184 4.85016 8.87319 4.85363C8.92865 4.87059 8.99651 4.8094 9.02477 4.71698C9.05302 4.62455 9.03097 4.53588 8.97552 4.51892C8.92006 4.50197 8.8522 4.56315 8.82394 4.65558C8.81708 4.67803 8.81318 4.70026 8.81201 4.7213C8.79293 4.69942 8.76732 4.679 8.73682 4.66279C8.65149 4.61741 8.56024 4.62214 8.53301 4.67334C8.50579 4.72454 8.5529 4.80283 8.63823 4.84821ZM5.20353 4.86965C5.11819 4.91502 5.02694 4.9103 4.99972 4.8591C4.99921 4.85815 4.99874 4.8572 4.99828 4.85623C4.98988 4.86513 4.97992 4.8716 4.96857 4.87507C4.91312 4.89203 4.84525 4.83085 4.817 4.73842C4.78874 4.64599 4.81079 4.55732 4.86624 4.54037C4.9217 4.52341 4.98956 4.5846 5.01782 4.67702C5.02468 4.69948 5.02858 4.72171 5.02975 4.74274C5.04883 4.72086 5.07445 4.70044 5.10494 4.68423C5.19028 4.63886 5.28152 4.64358 5.30875 4.69478C5.33597 4.74598 5.28886 4.82428 5.20353 4.86965Z" fill="#C88A02"/>
<path fill-rule="evenodd" clip-rule="evenodd" d="M6.86728 2.54785H7.01311V2.63998H7.1084V2.78581H7.01311V3.07748H7.1084V3.22331H6.77051V3.07748H6.86728V2.78581H6.77051V2.63998H6.86728V2.54785Z" fill="#C88A02"/>
<rect x="6.84033" y="3.33997" width="0.28" height="0.91" fill="#C88A02"/>
<path d="M5.71335 3.49235L5.71213 3.56234C5.09144 3.5515 4.7354 3.64208 4.64503 3.82261C4.55159 4.00925 4.56896 4.23614 4.69989 4.50566L4.63692 4.53624C4.49724 4.24868 4.47816 3.99956 4.58243 3.79127C4.68977 3.57687 5.0664 3.48105 5.71335 3.49235Z" fill="white"/>
<path d="M5.83343 4.11309L5.79755 4.17319C5.66238 4.09249 5.59473 3.95475 5.59473 3.76494C5.59473 3.49214 5.73525 3.33217 6.0461 3.22269C6.24449 3.15282 6.51549 3.18147 6.85988 3.30633L6.83602 3.37214C6.50542 3.25228 6.24961 3.22523 6.06935 3.28872C5.78424 3.38913 5.66473 3.52518 5.66473 3.76494C5.66473 3.93151 5.72092 4.04591 5.83343 4.11309Z" fill="white"/>
<path d="M4.78812 4.39833L4.65603 4.44472C4.51898 4.05451 4.55811 3.7895 4.7923 3.67518C4.99865 3.57445 5.29939 3.53346 5.69601 3.54953L5.69035 3.68942C5.31482 3.6742 5.03545 3.71228 4.85371 3.80099C4.69981 3.87612 4.67166 4.06674 4.78812 4.39833Z" fill="#C88A02"/>
<path d="M6.33131 3.39916C6.01122 3.39916 5.87978 3.47711 5.80468 3.70729C5.75683 3.85398 5.80324 3.97918 5.95373 4.09604L5.86787 4.20662C5.67303 4.05532 5.60433 3.87002 5.67159 3.66387C5.76729 3.37053 5.95507 3.25916 6.33131 3.25916C6.57791 3.25916 6.77 3.32394 6.90376 3.45579L6.92462 3.47635V4.15133H6.78462V3.53619C6.68016 3.44546 6.5301 3.39916 6.33131 3.39916Z" fill="#C88A02"/>
<path d="M8.15628 3.56241L8.1575 3.6324C8.77819 3.62157 9.13423 3.71215 9.2246 3.89268C9.31804 4.07932 9.30066 4.30621 9.16974 4.57573L9.2327 4.60631C9.37239 4.31875 9.39147 4.06963 9.2872 3.86134C9.17986 3.64694 8.80323 3.55112 8.15628 3.56241Z" fill="white"/>
<path d="M7.93707 4.12762L7.97296 4.18772C8.10813 4.10701 8.17578 3.96928 8.17578 3.77946C8.17578 3.50666 8.03525 3.34669 7.72441 3.23722C7.52602 3.16735 7.25501 3.196 6.91063 3.32086L6.93449 3.38667C7.26509 3.2668 7.5209 3.23976 7.70116 3.30324C7.98627 3.40366 8.10578 3.5397 8.10578 3.77946C8.10578 3.94603 8.04959 4.06044 7.93707 4.12762Z" fill="white"/>
<path d="M9.12497 4.4684L9.25706 4.51479C9.39411 4.12457 9.35497 3.85957 9.12079 3.74525C8.91443 3.64452 8.61369 3.60353 8.21707 3.6196L8.22274 3.75948C8.59826 3.74427 8.87764 3.78235 9.05937 3.87106C9.21328 3.94619 9.24143 4.13681 9.12497 4.4684Z" fill="#C88A02"/>
<path d="M7.57396 3.41002C7.89405 3.41002 8.0255 3.48798 8.10059 3.71816C8.14845 3.86485 8.10203 3.99004 7.95154 4.10691L8.03741 4.21748C8.23224 4.06618 8.30094 3.88088 8.23369 3.67474C8.13798 3.38139 7.9502 3.27002 7.57396 3.27002C7.32737 3.27002 7.13527 3.33481 7.00151 3.46666L6.98066 3.48722V4.1622H7.12066V3.54706C7.22512 3.45632 7.37517 3.41002 7.57396 3.41002Z" fill="#C88A02"/>
<path opacity="0.3" fill-rule="evenodd" clip-rule="evenodd" d="M4.67041 5.79004H9.22041V9.87806C9.22041 9.87806 8.88243 11.25 6.94541 11.25C5.00839 11.25 4.67041 9.84188 4.67041 9.84188V5.79004Z" fill="#E1E5E8"/>
<mask id="mask4_1825_41428" style="mask-type:luminance" maskUnits="userSpaceOnUse" x="4" y="5" width="6" height="7">
<path fill-rule="evenodd" clip-rule="evenodd" d="M4.67041 5.79004H9.22041V9.87806C9.22041 9.87806 8.88243 11.25 6.94541 11.25C5.00839 11.25 4.67041 9.84188 4.67041 9.84188V5.79004Z" fill="white"/>
</mask>
<g mask="url(#mask4_1825_41428)">
<rect x="4.67041" y="8.31006" width="2.31" height="2.73" fill="#FFC034"/>
<rect x="4.9502" y="8.45007" width="0.28" height="2.59" fill="#AD1619"/>
<rect x="5.93018" y="8.45007" width="0.28" height="2.59" fill="#AD1619"/>
<rect x="5.44043" y="8.45007" width="0.28" height="2.59" fill="#AD1619"/>
<rect x="6.42041" y="8.45007" width="0.28" height="2.59" fill="#AD1619"/>
<rect x="4.67041" y="5.72009" width="2.31" height="2.66" fill="#AD1619"/>
<rect x="6.91064" y="8.23999" width="2.31" height="2.66" fill="#AD1619"/>
<rect x="6.91064" y="5.79004" width="2.45" height="2.59" fill="#F1F9FF"/>
<path fill-rule="evenodd" clip-rule="evenodd" d="M5.65064 6H5.86064V6.58074H6.00064V6.29037H6.21064V6.58074H6.42064V6.9437H6.21064V7.59704H6.42064V7.96H5.16064V7.59704H5.37064V6.9437H5.16064V6.58074H5.30064V6.29037H5.51064V6.58074H5.65064V6Z" fill="#C88A02"/>
<path d="M8.1123 6.12197L8.25566 5.96851L8.55662 6.24965L8.41327 6.40311L8.1123 6.12197Z" fill="#C88A02"/>
<path fill-rule="evenodd" clip-rule="evenodd" d="M8.97559 10.0876V8.55505H7.22559V10.0748L7.22836 10.0866C7.31695 10.4641 7.61864 10.6551 8.10059 10.6551C8.58207 10.6551 8.88372 10.469 8.97267 10.0997L8.97559 10.0876ZM8.10059 10.4451C7.7139 10.4451 7.50272 10.3148 7.43559 10.05V8.76505H8.76559V10.0622C8.69863 10.3183 8.48743 10.4451 8.10059 10.4451Z" fill="#FFC034"/>
<path fill-rule="evenodd" clip-rule="evenodd" d="M8.1729 8.68311H8.02707V9.3779L7.45218 8.75264L7.34912 8.84739L7.86903 9.41285H7.39797V9.62285H7.75982H7.88048L7.34912 10.2008L7.45218 10.2955L8.02707 9.67027V10.4824H8.1729V9.74335L8.68059 10.2955L8.78365 10.2008L8.25229 9.62285H8.8454V9.41285H8.26375L8.78365 8.84739L8.68059 8.75264L8.1729 9.30481V8.68311Z" fill="#FFC034"/>
<path fill-rule="evenodd" clip-rule="evenodd" d="M8.42721 10.9017C8.42721 10.9017 6.94459 11.0182 6.94459 10.062C6.94459 10.062 6.93045 10.9017 5.38232 10.9017V11.6566H8.42721V10.9017Z" fill="#F1F9FF"/>
<path fill-rule="evenodd" clip-rule="evenodd" d="M6.94541 8.87C7.23536 8.87 7.47041 8.61928 7.47041 8.31C7.47041 8.00072 7.23536 7.75 6.94541 7.75C6.65546 7.75 6.42041 8.00072 6.42041 8.31C6.42041 8.61928 6.65546 8.87 6.94541 8.87Z" fill="#005BBF" stroke="#AD1619" stroke-width="0.729167"/>
</g>
</g>
</g>
</svg>
