<svg width="20" height="15" viewBox="0 0 20 15" fill="none" xmlns="http://www.w3.org/2000/svg">
<mask id="mask0_1825_41577" style="mask-type:luminance" maskUnits="userSpaceOnUse" x="0" y="0" width="20" height="15">
<rect width="20" height="15" fill="white"/>
</mask>
<g mask="url(#mask0_1825_41577)">
<path fill-rule="evenodd" clip-rule="evenodd" d="M0 0V15H20V0H0Z" fill="#67BFE5"/>
<mask id="mask1_1825_41577" style="mask-type:luminance" maskUnits="userSpaceOnUse" x="0" y="0" width="20" height="15">
<path fill-rule="evenodd" clip-rule="evenodd" d="M0 0V15H20V0H0Z" fill="white"/>
</mask>
<g mask="url(#mask1_1825_41577)">
<rect width="11" height="9" fill="#2E42A5"/>
<mask id="mask2_1825_41577" style="mask-type:luminance" maskUnits="userSpaceOnUse" x="0" y="0" width="11" height="9">
<rect width="11" height="9" fill="white"/>
</mask>
<g mask="url(#mask2_1825_41577)">
<path d="M-1.25293 8.12482L1.22266 9.21057L11.3059 1.1804L12.6117 -0.43306L9.96444 -0.795949L5.85172 2.66448L2.54141 4.996L-1.25293 8.12482Z" fill="#F7FCFF"/>
<path d="M-0.914062 8.88555L0.347138 9.51562L12.1428 -0.582947H10.3719L-0.914062 8.88555Z" fill="#F50100"/>
<path d="M12.5024 8.12493L10.3054 9.52063L-0.0564003 1.1805L-1.36222 -0.432954L1.28507 -0.795844L5.39779 2.66459L8.7081 4.99611L12.5024 8.12493Z" fill="#F7FCFF"/>
<path d="M12.418 8.67082L11.1568 9.3009L6.13406 4.97718L4.64494 4.4941L-1.48787 -0.427482H0.283002L6.41237 4.37728L8.04046 4.95655L12.418 8.67082Z" fill="#F50100"/>
<mask id="path-10-outside-1_1825_41577" maskUnits="userSpaceOnUse" x="-1" y="-1" width="13" height="11" fill="black">
<rect fill="white" x="-1" y="-1" width="13" height="11"/>
<path fill-rule="evenodd" clip-rule="evenodd" d="M6 0H5V4H0V5H5V9H6V5H11V4H6V0Z"/>
</mask>
<path fill-rule="evenodd" clip-rule="evenodd" d="M6 0H5V4H0V5H5V9H6V5H11V4H6V0Z" fill="#F50100"/>
<path d="M5 0V-0.9375H4.0625V0H5ZM6 0H6.9375V-0.9375H6V0ZM5 4V4.9375H5.9375V4H5ZM0 4V3.0625H-0.9375V4H0ZM0 5H-0.9375V5.9375H0V5ZM5 5H5.9375V4.0625H5V5ZM5 9H4.0625V9.9375H5V9ZM6 9V9.9375H6.9375V9H6ZM6 5V4.0625H5.0625V5H6ZM11 5V5.9375H11.9375V5H11ZM11 4H11.9375V3.0625H11V4ZM6 4H5.0625V4.9375H6V4ZM5 0.9375H6V-0.9375H5V0.9375ZM5.9375 4V0H4.0625V4H5.9375ZM0 4.9375H5V3.0625H0V4.9375ZM0.9375 5V4H-0.9375V5H0.9375ZM5 4.0625H0V5.9375H5V4.0625ZM5.9375 9V5H4.0625V9H5.9375ZM6 8.0625H5V9.9375H6V8.0625ZM5.0625 5V9H6.9375V5H5.0625ZM11 4.0625H6V5.9375H11V4.0625ZM10.0625 4V5H11.9375V4H10.0625ZM6 4.9375H11V3.0625H6V4.9375ZM5.0625 0V4H6.9375V0H5.0625Z" fill="#F7FCFF" mask="url(#path-10-outside-1_1825_41577)"/>
</g>
<path fill-rule="evenodd" clip-rule="evenodd" d="M12.5 6.25H18.5345V11.4583C18.5345 11.4583 18.0284 13.75 15.5172 13.75C13.006 13.75 12.5 11.4583 12.5 11.4583V6.25Z" fill="#F7FCFF"/>
<mask id="mask3_1825_41577" style="mask-type:luminance" maskUnits="userSpaceOnUse" x="12" y="6" width="7" height="8">
<path fill-rule="evenodd" clip-rule="evenodd" d="M12.5 6.25H18.5345V11.4583C18.5345 11.4583 18.0284 13.75 15.5172 13.75C13.006 13.75 12.5 11.4583 12.5 11.4583V6.25Z" fill="white"/>
</mask>
<g mask="url(#mask3_1825_41577)">
<rect x="12.5" y="6.25" width="6.03448" height="1.875" fill="#C3352C"/>
<rect x="15.0864" y="7.91663" width="0.862069" height="5.83333" fill="#C3352C"/>
<path fill-rule="evenodd" clip-rule="evenodd" d="M12.5 10.2084H18.5345V11.0417H12.5V10.2084Z" fill="#C3352C"/>
<path fill-rule="evenodd" clip-rule="evenodd" d="M14.0881 12.9607C14.4509 13.4736 14.7466 13.6738 14.9556 13.3715C15.1025 13.1591 15.1176 12.9467 14.9084 12.9051C14.787 12.7508 14.7013 12.6305 14.6524 12.5466L14.6594 12.54C14.7181 12.4829 14.7203 12.4068 14.7087 12.3784C14.7043 12.3396 14.7334 12.2869 14.922 12.1427C15.0928 12.0121 15.1685 11.8892 15.0566 11.7537C14.9978 11.6826 14.9449 11.6683 14.7781 11.6426L14.7268 11.6346C14.6775 11.6267 14.6416 11.6188 14.619 11.612L14.503 11.3897C14.2607 11.3823 14.0714 11.425 13.8644 11.5125C13.7752 11.5501 13.7151 11.5757 13.6749 11.5928L13.6749 11.5928L13.6749 11.5928C13.6139 11.6188 13.5992 11.6251 13.5987 11.6241C13.5985 11.6239 13.5998 11.6228 13.6015 11.6215C13.6063 11.6177 13.6143 11.6113 13.6027 11.6113C13.559 11.6113 13.5117 11.6064 13.3805 11.5898L13.3548 11.5865C12.9776 11.5391 12.8831 11.5406 12.822 11.7162C12.729 11.9834 13.2796 12.4731 13.5719 12.532C13.7183 12.5615 13.8936 12.7016 14.0881 12.9607ZM14.4982 12.5929C14.5337 12.5929 14.561 12.5914 14.5851 12.5849L14.5924 12.5689C14.5728 12.5822 14.5433 12.5929 14.4982 12.5929ZM13.1215 11.8551C13.1138 11.8461 13.1117 11.8344 13.1171 11.819C13.116 11.8221 13.1195 11.829 13.1269 11.8387C13.1341 11.8483 13.145 11.8607 13.1589 11.8751C13.1421 11.8703 13.1291 11.864 13.1215 11.8551ZM13.6336 12.2256C13.5288 12.2045 13.2623 11.9828 13.1589 11.8751C13.186 11.8829 13.223 11.8867 13.2627 11.8907L13.2627 11.8907C13.2801 11.8925 13.298 11.8943 13.3158 11.8966L13.3412 11.8998C13.4886 11.9185 13.54 11.9238 13.6027 11.9238C13.6389 11.9238 13.6314 11.9363 13.6269 11.9439C13.6255 11.9462 13.6244 11.9481 13.6249 11.949C13.627 11.9525 13.6555 11.9404 13.7979 11.88L13.7979 11.88L13.9859 11.8004C14.0966 11.7536 14.1976 11.7234 14.3085 11.7098C14.3208 11.7621 14.3512 11.8094 14.4008 11.8479C14.4673 11.8995 14.5425 11.9212 14.6718 11.9423C14.5111 12.0745 14.4304 12.1851 14.4049 12.293C14.2604 12.3387 14.2736 12.5016 14.3603 12.6644C14.4208 12.7779 14.535 12.9388 14.705 13.1516L14.8271 13.2103C14.791 13.2103 14.7709 13.1938 14.7556 13.1812C14.7364 13.1654 14.7248 13.1559 14.6986 13.1938C14.6968 13.1964 14.5831 13.1194 14.3406 12.7766C14.1018 12.4585 13.8702 12.2733 13.6336 12.2256ZM14.3957 12.4129C14.3979 12.4111 14.3977 12.4086 14.3974 12.4062L14.3974 12.4061L14.3957 12.4129ZM14.4956 12.2804L14.4862 12.2805L14.4906 12.2809C14.4923 12.2806 14.494 12.2805 14.4956 12.2804ZM14.4982 12.2804C14.4973 12.2804 14.4965 12.2804 14.4956 12.2804Z" fill="#979797"/>
<path d="M13.5345 10.069C13.5345 10.069 13.2363 9.65646 13.2363 9.5094" stroke="#964C36" stroke-width="0.625"/>
<path d="M13.349 9.71435C13.349 9.71435 12.9678 9.55152 12.9678 9.71435" stroke="#2A8E51" stroke-width="0.625"/>
<path d="M13.3429 9.54316C13.3429 9.54316 13.0748 9.20203 12.8732 9.20203C12.6716 9.20203 12.6764 9.37259 12.6764 9.37259" stroke="#2A8E51" stroke-width="0.625"/>
<path d="M13.19 9.20129C13.19 9.20129 13.0703 8.64331 12.8786 8.64331C12.687 8.64331 12.687 8.9223 12.687 8.9223" stroke="#2A8E51" stroke-width="0.625"/>
<path d="M13.2385 9.20024C13.2385 9.20024 13.1851 8.72205 13.4319 8.72205" stroke="#2A8E51" stroke-width="0.625"/>
<path d="M13.913 9.98816C13.913 9.98816 13.7739 9.49854 13.8242 9.36035" stroke="#964C36" stroke-width="0.625"/>
<path d="M13.8602 9.59166C13.8602 9.59166 13.5576 9.30826 13.5019 9.46127" stroke="#2A8E51" stroke-width="0.625"/>
<path d="M13.9131 9.4287C13.9131 9.4287 13.7778 9.01642 13.5883 8.94747C13.3989 8.87852 13.3451 9.04045 13.3451 9.04045" stroke="#2A8E51" stroke-width="0.625"/>
<path d="M13.8863 9.05511C13.8863 9.05511 13.9647 8.48985 13.7846 8.42431C13.6045 8.35876 13.5091 8.62093 13.5091 8.62093" stroke="#2A8E51" stroke-width="0.625"/>
<path d="M13.9318 9.07064C13.9318 9.07064 14.0452 8.60303 14.2771 8.68743" stroke="#2A8E51" stroke-width="0.625"/>
<path d="M14.2201 10.1626C14.2201 10.1626 14.4178 9.69358 14.3848 9.55029" stroke="#964C36" stroke-width="0.5"/>
<path d="M14.3207 9.77532C14.3207 9.77532 14.6555 9.53091 14.6921 9.68955" stroke="#2A8E51" stroke-width="0.5"/>
<path d="M14.288 9.60711C14.288 9.60711 14.4725 9.2144 14.669 9.16905C14.8654 9.1237 14.8991 9.29098 14.8991 9.29098" stroke="#2A8E51" stroke-width="0.5"/>
<path d="M14.3606 9.2397C14.3606 9.2397 14.3516 8.6691 14.5384 8.62599C14.7251 8.58289 14.7879 8.85472 14.7879 8.85472" stroke="#2A8E51" stroke-width="0.5"/>
<path d="M14.3132 9.24944C14.3132 9.24944 14.2576 8.7715 14.0172 8.82701" stroke="#2A8E51" stroke-width="0.5"/>
<path d="M16.686 9.87621C16.686 9.87621 16.8373 9.1803 17.2677 9.1803C17.6981 9.1803 17.8907 9.91555 17.8907 9.91555" stroke="#2A8E51" stroke-width="0.5"/>
<path d="M16.3311 9.40111C16.3311 9.40111 16.5628 8.99005 17.3277 9.02366C18.0926 9.05727 18.232 9.40111 18.232 9.40111" stroke="#2A8E51" stroke-width="0.5"/>
<path d="M16.1763 8.87839C16.1763 8.87839 16.5964 8.35795 17.1853 8.79909L17.3848 8.87839C17.3848 8.87839 17.5848 8.2886 18.5513 8.87839" stroke="#2A8E51" stroke-width="0.5"/>
<path d="M17.3365 10.0231C17.3365 10.0231 17.3672 9.3736 17.4702 9.19519" stroke="#964C36" stroke-width="0.625"/>
<path d="M18.1867 11.4462C18.1867 11.4462 17.8004 11.2645 17.6848 11.4462C17.5692 11.6279 16.1768 13.2973 16.1768 13.2973" stroke="#964C36" stroke-width="0.625"/>
<path fill-rule="evenodd" clip-rule="evenodd" d="M16.8525 11.622L17.7155 12.2253C17.7155 12.2253 18.1127 11.9419 17.9141 11.782C17.7155 11.622 17.1744 11.34 17.1744 11.34L16.8525 11.622Z" fill="#FFF203"/>
<path fill-rule="evenodd" clip-rule="evenodd" d="M16.823 11.6528C16.823 11.6528 16.623 11.8621 16.623 12.0221C16.623 12.1821 16.437 12.6109 16.437 12.6109C16.437 12.6109 16.9573 12.9312 17.0653 12.7272C17.1733 12.5232 17.8749 12.6453 17.7512 12.3337C17.6274 12.0221 16.823 11.6528 16.823 11.6528Z" fill="#00A651"/>
<path fill-rule="evenodd" clip-rule="evenodd" d="M13.1603 6.9889C13.1603 6.9889 13.6211 6.75244 13.8492 6.9889C14.0773 7.22536 14.2642 6.9693 14.2642 6.82666C14.2642 6.68403 14.6264 6.19436 14.6264 6.59163C14.6264 6.9889 14.5137 7.2132 14.832 7.2132C15.1504 7.2132 16.584 6.66443 16.9277 6.82666C17.2715 6.9889 17.5346 6.94855 17.4472 6.71577C17.3598 6.483 17.1352 6.33751 16.7027 6.46457C16.2703 6.59163 16.3723 6.71577 15.9986 6.71577C15.6248 6.71577 15.2088 6.59163 15.2088 6.59163C15.2088 6.59163 15.3256 6.38288 15.7524 6.53136C16.1791 6.67985 16.7677 6.34747 16.9277 6.34747C17.0878 6.34747 17.5284 6.33751 17.572 6.46457C17.6157 6.59163 17.8817 6.70822 17.679 6.82666C17.4762 6.94511 17.1418 7.01931 17.3719 7.17106C17.6019 7.32282 18.131 7.29358 18.1565 7.45143C18.182 7.60929 18.4327 7.84502 18.3321 7.84502C18.2314 7.84502 18.0496 8.06733 17.8802 7.99964C17.7109 7.93195 17.691 7.87251 17.8534 7.81767C18.0157 7.76284 18.0142 7.53223 17.8802 7.53223C17.7463 7.53223 17.8117 7.61302 17.5067 7.53223C17.2018 7.45143 16.7982 7.36161 16.8224 7.53223C16.8467 7.70284 17.0452 7.96474 16.6789 7.99964C16.3126 8.03454 16.1411 8.17468 16.0699 8.06183C15.9986 7.94898 15.7437 7.79861 15.9441 7.75039C16.1445 7.70217 16.336 7.91428 16.4082 7.87965C16.4803 7.84502 16.6439 7.82574 16.5069 7.67898C16.3699 7.53223 16.144 7.44583 16.3534 7.33598C16.5628 7.22614 16.3976 7.22388 15.9986 7.45143C15.5995 7.67898 15.3776 7.87236 15.0273 7.84502C14.6769 7.81767 14.5457 7.85456 14.4331 7.81767C14.3205 7.78079 13.7722 8.22523 13.6142 8.11243C13.4563 7.99964 12.9465 7.95637 13.0383 7.81767C13.1301 7.67898 13.2533 7.60758 13.3905 7.67898C13.5278 7.75039 13.6641 7.82179 13.7567 7.75039C13.8492 7.67898 14.1165 7.43396 14.0492 7.38497C13.982 7.33598 14.047 7.17106 13.6664 7.17106C13.2858 7.17106 13.152 7.35486 13.0616 7.23906C12.9713 7.12325 13.1603 6.9889 13.1603 6.9889Z" fill="#FFD100"/>
</g>
</g>
</g>
</svg>
