<svg width="20" height="15" viewBox="0 0 20 15" fill="none" xmlns="http://www.w3.org/2000/svg">
<g clip-path="url(#clip0_14_450)">
<path d="M0 0V15H20V0H0Z" fill="#68BFE5"/>
<path d="M13.1532 6.03748V10.3C13.1532 11.6937 15.6719 12.5187 15.6719 12.5187C15.6719 12.5187 18.1876 11.6937 18.1876 10.3V6.03748H13.1532Z" fill="white"/>
<path d="M15.3219 7.53748V9.45623H13.1532V10.1531H15.3219V12.3875L15.6719 12.5219L16.0188 12.3875V10.1562H18.1876V9.45623H16.0188V7.53748H15.3219Z" fill="#D21034"/>
<path d="M13.1531 6.03748H18.1875V7.68748H13.15L13.1531 6.03748Z" fill="#D21034"/>
<path d="M13.556 7.26868C13.7121 7.26868 13.8386 7.16635 13.8386 7.04013C13.8386 6.91391 13.7121 6.81158 13.556 6.81158C13.3999 6.81158 13.2734 6.91391 13.2734 7.04013C13.2734 7.16635 13.3999 7.26868 13.556 7.26868Z" fill="white" stroke="black" stroke-width="0.0265944" stroke-miterlimit="3"/>
<path d="M13.556 7.04846C13.6948 7.04846 13.8074 6.99172 13.8074 6.92172C13.8074 6.85173 13.6948 6.79498 13.556 6.79498C13.4171 6.79498 13.3046 6.85173 13.3046 6.92172C13.3046 6.99172 13.4171 7.04846 13.556 7.04846Z" fill="white" stroke="black" stroke-width="0.0265944" stroke-miterlimit="3"/>
<path d="M13.556 7.30401C13.6948 7.30401 13.8074 7.24727 13.8074 7.17728C13.8074 7.10728 13.6948 7.05054 13.556 7.05054C13.4171 7.05054 13.3046 7.10728 13.3046 7.17728C13.3046 7.24727 13.4171 7.30401 13.556 7.30401Z" fill="white" stroke="black" stroke-width="0.0265944" stroke-miterlimit="3"/>
<path d="M13.556 7.16687C13.6948 7.16687 13.8074 7.11013 13.8074 7.04013C13.8074 6.97013 13.6948 6.91339 13.556 6.91339C13.4171 6.91339 13.3046 6.97013 13.3046 7.04013C13.3046 7.11013 13.4171 7.16687 13.556 7.16687Z" fill="white" stroke="black" stroke-width="0.0265944" stroke-miterlimit="3"/>
<path d="M18.0626 7.3562L18.0219 7.2437C18.0219 7.2437 17.9094 7.19683 17.9001 7.13745C17.8813 6.97808 17.8251 6.9187 17.7376 6.8937C17.6904 6.88035 17.64 6.88595 17.5969 6.90933C17.5719 6.94683 17.4407 6.94683 17.3719 6.94995C17.3001 6.94995 17.2969 6.9187 17.2969 6.9187C17.2438 6.9187 17.2188 6.87808 17.2188 6.87808C17.1844 6.8062 17.1563 6.77808 17.1376 6.7687C17.2313 6.7687 17.3001 6.72808 17.4063 6.6187C17.5188 6.49995 17.6001 6.5437 17.6001 6.5437C17.5438 6.6562 17.6188 6.64683 17.6188 6.64683C17.7688 6.5687 17.6376 6.37495 17.5938 6.38433C17.5469 6.3937 17.5344 6.36245 17.5344 6.36245C17.5344 6.39683 17.4844 6.41245 17.4844 6.41245C17.5219 6.19058 17.3907 6.1312 17.3907 6.1312C17.3719 6.14995 17.3594 6.19058 17.3594 6.19058C17.3219 6.32495 17.2001 6.30308 17.0626 6.23745C16.9251 6.17495 16.5626 6.3062 16.4469 6.35308C16.3313 6.39995 16.1219 6.4687 15.9344 6.36558C15.7469 6.25933 15.7001 6.27808 15.6251 6.29995C15.5532 6.3187 15.4219 6.34995 15.3751 6.32495C15.342 6.30827 15.3058 6.29869 15.2688 6.29683C15.2813 6.29058 15.2626 6.25933 15.2626 6.25933C15.2032 6.1812 15.2688 6.13433 15.2688 6.13433C15.2688 6.13433 15.1626 6.16558 15.2063 6.34683L15.2251 6.37183C15.2251 6.37183 15.2376 6.4312 15.2688 6.44683V6.45933C15.2688 6.45933 15.2969 6.44683 15.3032 6.48433C15.3126 6.52183 15.3532 6.48433 15.3688 6.45308C15.3688 6.45308 15.3407 6.62183 15.5469 6.66245C15.5469 6.66245 15.5251 6.63433 15.5313 6.6187C15.5407 6.59995 15.5063 6.58745 15.5094 6.56245C15.5126 6.53433 15.4594 6.52495 15.5001 6.50308C15.5438 6.48433 15.5626 6.4437 15.6563 6.49995C15.7469 6.55308 15.8188 6.54058 15.8188 6.54058C15.8188 6.54058 15.7626 6.42808 15.7938 6.42808C15.8251 6.42808 15.9626 6.59683 16.0282 6.59058C16.0969 6.5812 16.2282 6.50308 16.2938 6.5312C16.2938 6.5312 16.3001 6.49995 16.5501 6.4562C16.8001 6.41245 17.1126 6.28745 17.2282 6.39683C17.2282 6.39683 17.2407 6.48433 17.2907 6.5062C17.2907 6.5062 17.2813 6.68745 16.9719 6.58745L16.8594 6.5562C16.8594 6.5562 16.8407 6.50308 16.2501 6.6562C16.2501 6.6562 16.2157 6.6687 16.1907 6.68433C16.1688 6.69995 16.1376 6.67495 16.0188 6.71558C15.9032 6.76245 15.4657 6.90308 15.1969 6.85308C15.1376 6.83433 15.0844 6.8437 15.0813 6.83433C15.0813 6.82495 15.1126 6.83745 15.1126 6.83745C15.0938 6.81558 15.0844 6.81245 15.0844 6.81245C14.8594 6.78745 14.8969 6.68745 14.8969 6.68745L14.9094 6.7187C14.9469 6.6687 14.8969 6.5562 14.8969 6.5562H14.8938C14.8939 6.55308 14.8939 6.54995 14.8938 6.54683L14.9094 6.53433C15.0188 6.44058 15.1438 6.42495 15.1438 6.42495C15.0688 6.3312 14.9126 6.3812 14.9126 6.3812C14.9157 6.27183 14.8688 6.14058 14.8688 6.14058C14.7726 6.15638 14.6862 6.20906 14.6282 6.28745C14.6219 6.17183 14.4751 6.1062 14.4751 6.1062C14.5313 6.17183 14.4969 6.3312 14.4969 6.3312H14.5032H14.4876L14.4844 6.36558H14.4782C14.4782 6.36558 14.4251 6.38433 14.3626 6.52808C14.3626 6.52808 14.3563 6.55933 14.3313 6.59058V6.57808C14.3313 6.57808 14.2594 6.67183 14.1001 6.57808C14.1001 6.57808 13.8813 6.44995 13.8001 6.45308C13.7251 6.45933 13.6751 6.4937 13.6782 6.51558C13.6782 6.51558 13.5001 6.50308 13.4407 6.60308C13.4407 6.60308 13.3063 6.65308 13.4219 6.75933C13.4219 6.75933 13.4376 6.80933 13.4688 6.83433C13.4688 6.83433 13.4657 6.73433 13.4907 6.76245L13.5063 6.7812C13.5094 6.7937 13.5219 6.8312 13.5438 6.85308L13.5626 6.84683C13.5626 6.82183 13.5688 6.79058 13.5751 6.77808H13.5813L13.6126 6.82808L13.6438 6.80933C13.6626 6.80933 13.6844 6.82495 13.6844 6.82495L13.7251 6.79058C13.7657 6.79683 13.7782 6.71558 13.7782 6.71558C13.7946 6.71964 13.8116 6.72035 13.8282 6.71767C13.8449 6.71498 13.8608 6.70896 13.8751 6.69995C13.8938 6.76245 14.0376 6.83433 14.0376 6.83433H14.0438L14.0251 6.84683C14.0907 6.8937 14.2126 6.8812 14.2126 6.8812C14.1626 6.89995 14.1688 6.99683 14.1688 6.99683C14.1376 7.00933 14.1376 7.03745 14.1376 7.03745C14.2376 7.07808 14.3032 7.0437 14.3032 7.0437C14.3094 7.07495 14.3032 7.0812 14.3032 7.0812C14.2626 7.16558 14.2438 7.24995 14.2438 7.24995H14.2469V7.2562C14.2469 7.2562 14.0688 7.3187 13.9938 7.40308C13.9938 7.40308 13.9844 7.37808 13.9626 7.37808C13.9407 7.37808 13.8751 7.32183 13.8438 7.31245C13.8126 7.30308 13.7657 7.32183 13.7501 7.3062C13.7407 7.2937 13.7469 7.1937 13.7251 7.1812L13.7032 7.1187C13.6907 7.14995 13.6282 7.1437 13.6282 7.1437L13.6032 7.16245L13.5782 7.15933C13.5719 7.15933 13.5657 7.17495 13.5626 7.19058L13.5532 7.19995V7.1812C13.5438 7.19058 13.5188 7.17808 13.5094 7.17808C13.5032 7.17808 13.4969 7.19058 13.4938 7.2062L13.4344 7.20933C13.4251 7.21558 13.4344 7.29058 13.4344 7.29058C13.3626 7.32808 13.3969 7.38745 13.3969 7.38745C13.4344 7.57495 13.7563 7.49058 13.7813 7.51558C13.8063 7.54058 13.8626 7.54683 13.8907 7.54683C13.9219 7.54683 13.9563 7.61558 13.9969 7.62183C14.0376 7.62808 13.9969 7.56558 14.1876 7.52183C14.3782 7.47495 14.4438 7.39683 14.4438 7.39683C14.5032 7.38433 14.5188 7.31245 14.5219 7.28433L14.5282 7.32808C14.5376 7.3937 14.4907 7.42183 14.4907 7.42183L14.6563 7.3687C14.7219 7.35308 14.7126 7.2937 14.7126 7.2937C14.7751 7.47495 14.8907 7.48745 14.8907 7.48745C14.9126 7.4187 14.9094 7.39683 14.9094 7.39683H14.9626C14.9626 7.3562 14.9313 7.32808 14.9094 7.31558L14.9907 7.36245L15.0219 7.35933C15.0219 7.38745 15.0626 7.41245 15.0626 7.41245L15.0688 7.37495C15.1063 7.42495 15.1751 7.4062 15.1751 7.4062C15.1735 7.39776 15.1714 7.38941 15.1688 7.3812C15.3157 7.47183 15.5501 7.3562 15.5501 7.3562C15.6126 7.3687 15.6219 7.3312 15.6219 7.3312C15.6907 7.34058 15.7094 7.29058 15.7094 7.29058C15.8751 7.27808 15.9938 7.15933 15.9938 7.15933C16.0782 7.15308 16.0813 7.0937 16.0813 7.0937C16.0813 7.0937 16.1626 7.10933 16.2438 7.00933C16.4313 6.7437 16.7063 6.88433 16.7063 6.88433L16.5469 6.8937C16.1251 6.89058 16.3001 7.17495 16.3001 7.17495H16.3251C16.3657 7.1812 16.5032 7.29058 16.4501 7.3687V7.37495C16.3626 7.49058 16.2063 7.3812 16.1594 7.2812C16.1157 7.1812 16.0219 7.20308 16.0219 7.20308C16.0219 7.20308 15.7876 7.2437 15.8844 7.4312C15.8876 7.47808 15.9157 7.5312 16.0032 7.5812C16.0501 7.64995 16.2063 7.6562 16.3188 7.6312C16.3751 7.62495 16.6563 7.49995 16.6563 7.49995C16.6782 7.43745 16.7501 7.45308 16.8126 7.36245C16.8751 7.27495 16.7219 7.2437 16.6876 7.1937C16.6563 7.14683 16.6969 7.1562 16.6969 7.1562C16.8344 7.22808 16.8469 6.9937 16.8469 6.9937C16.851 7.03205 16.8658 7.06848 16.8895 7.09886C16.9133 7.12924 16.9451 7.15235 16.9813 7.16558C17.0532 7.0937 17.0001 6.94058 17.0001 6.94058C17.1782 7.25933 17.2844 7.2062 17.2844 7.2062C17.1907 7.14995 17.2376 7.0687 17.2376 7.0687C17.3219 7.4062 17.6751 7.11245 17.6751 7.11245C17.6563 7.16245 17.6751 7.19058 17.7063 7.22183C17.7376 7.25308 17.7751 7.26558 17.7563 7.32495C17.7407 7.3812 17.5751 7.3687 17.5751 7.3687C17.5751 7.3687 17.4188 7.36245 17.4313 7.4937C17.4407 7.52495 17.5438 7.53745 17.5876 7.52808C17.5876 7.52808 17.5688 7.53433 17.6282 7.54058H17.6969C17.7626 7.54058 17.8376 7.52808 17.8376 7.52808C17.9282 7.50933 17.9126 7.47808 17.9126 7.47808C18.0532 7.45308 18.0688 7.35933 18.0688 7.35933L18.0626 7.3562Z" fill="#FFD100" stroke="black" stroke-width="0.04" stroke-miterlimit="3"/>
<path d="M13.425 6.77184C13.425 6.77184 13.4344 6.75621 13.4469 6.75309C13.4594 6.75309 13.4719 6.75934 13.4844 6.77809L13.4937 6.77184C13.4937 6.77184 13.4562 6.71559 13.4688 6.67809C13.4781 6.65934 13.4938 6.64684 13.5188 6.64371V6.63434C13.4875 6.64059 13.4687 6.65309 13.4625 6.67496C13.4591 6.68181 13.457 6.68923 13.4563 6.69684C13.4563 6.71559 13.4625 6.73434 13.4719 6.74996C13.4647 6.74472 13.4557 6.74248 13.4469 6.74371C13.4414 6.74437 13.4363 6.74645 13.4319 6.74974C13.4275 6.75303 13.424 6.75742 13.4219 6.76246L13.425 6.77184ZM17.8312 7.52184C17.7375 7.53746 17.5969 7.54371 17.5844 7.51559C17.5844 7.50934 17.5844 7.49059 17.6594 7.44059L17.6531 7.42496C17.5875 7.46871 17.5594 7.49684 17.5688 7.51871C17.5906 7.57496 17.7938 7.54371 17.8344 7.53746L17.8312 7.52184ZM16.0063 7.57496C15.9844 7.54371 15.9969 7.49684 16.0375 7.44059L16.0219 7.43121C15.9781 7.49371 15.9688 7.54371 15.9906 7.58746L16.0063 7.57496Z" fill="black"/>
<path d="M15.8782 7.4312C15.8782 7.49058 15.9219 7.5437 16.0001 7.59058L16.0094 7.57495C15.9344 7.5312 15.8969 7.4812 15.8969 7.4312C15.8907 7.35308 15.9751 7.29058 15.9782 7.29058L15.9688 7.27808C15.9626 7.27808 15.8751 7.3437 15.8782 7.43433V7.4312ZM17.5032 7.45308C17.4782 7.4937 17.4876 7.54058 17.4876 7.54058H17.5032C17.5032 7.53745 17.4969 7.49683 17.5188 7.46245C17.5262 7.45234 17.5355 7.44382 17.5463 7.43738C17.557 7.43094 17.5689 7.42671 17.5813 7.42495V7.40933C17.5469 7.41558 17.5188 7.4312 17.5063 7.45308H17.5032ZM13.7813 6.72183H13.7751V6.72808C13.7751 6.72808 13.7688 6.77808 13.7438 6.79058C13.7378 6.79301 13.7311 6.79301 13.7251 6.79058L13.6844 6.7687C13.6782 6.76245 13.6719 6.75933 13.6594 6.76245C13.6544 6.75643 13.6507 6.74943 13.6486 6.7419C13.6464 6.73436 13.6459 6.72646 13.6469 6.7187C13.6501 6.69683 13.6657 6.67495 13.6969 6.6562L13.6907 6.64683C13.6594 6.6687 13.6407 6.6937 13.6376 6.7187C13.6376 6.74995 13.6532 6.7687 13.6532 6.7687V6.77183H13.6594C13.6688 6.7687 13.6688 6.77183 13.6782 6.77808L13.7219 6.80308H13.7532C13.7751 6.78745 13.7844 6.7437 13.7844 6.73433C13.8844 6.7562 13.9657 6.6312 13.9719 6.62808L13.9626 6.62183C13.9626 6.62183 13.8782 6.74683 13.7813 6.72183Z" fill="black"/>
<path d="M13.5344 6.70309C13.5312 6.72474 13.5356 6.74685 13.5469 6.76559C13.5563 6.78121 13.5688 6.79059 13.5782 6.79371C13.5938 6.79371 13.6032 6.78434 13.6157 6.77496C13.6219 6.76871 13.6282 6.76246 13.6344 6.76246L13.6438 6.76871L13.6501 6.76246L13.6344 6.75309C13.6251 6.75309 13.6157 6.75934 13.6094 6.76871C13.6032 6.77809 13.5907 6.78434 13.5782 6.78434C13.5719 6.78434 13.5626 6.77496 13.5532 6.75934C13.5481 6.75157 13.5447 6.74286 13.5431 6.73373C13.5415 6.7246 13.5417 6.71524 13.5438 6.70621C13.5563 6.66246 13.6094 6.62809 13.6094 6.62809L13.6063 6.61871C13.6032 6.61871 13.5469 6.65621 13.5344 6.70309ZM13.3969 7.34996C13.4001 7.33121 13.4157 7.31871 13.4376 7.30621C13.4313 7.30621 13.4563 7.32496 13.4782 7.32496L13.4938 7.31559C13.5001 7.32184 13.5376 7.35621 13.5376 7.39996C13.5376 7.40934 13.5376 7.41871 13.5313 7.42809L13.5407 7.43121C13.5688 7.36559 13.4969 7.30621 13.4969 7.30621H13.4907L13.4782 7.31559C13.4594 7.31559 13.4376 7.29684 13.4376 7.29684C13.4063 7.30934 13.3938 7.32809 13.3876 7.34684L13.3969 7.34996ZM13.7188 7.18121C13.6969 7.18434 13.6407 7.19371 13.6219 7.22496C13.6157 7.23746 13.6126 7.24996 13.6188 7.26246L13.6251 7.28121C13.6438 7.33121 13.6626 7.38121 13.6844 7.39371L13.6876 7.38434C13.6688 7.37496 13.6501 7.32184 13.6344 7.27809L13.6282 7.25934C13.6255 7.25459 13.624 7.2492 13.624 7.24371C13.624 7.23823 13.6255 7.23284 13.6282 7.22809C13.6438 7.20621 13.6969 7.19684 13.7219 7.19371C13.7344 7.19371 13.7376 7.24059 13.7407 7.26871H13.7501C13.7469 7.22496 13.7407 7.18121 13.7188 7.18121Z" fill="black"/>
<path d="M13.5594 7.23121C13.5469 7.24058 13.55 7.25621 13.55 7.25933C13.55 7.26246 13.5563 7.38433 13.6125 7.40933L13.6157 7.39996C13.5657 7.37808 13.5594 7.25933 13.5594 7.25621C13.5594 7.25621 13.5594 7.24371 13.5657 7.23746C13.575 7.23121 13.5907 7.22808 13.6157 7.23746L13.6188 7.22808C13.5907 7.21871 13.5719 7.22183 13.5594 7.22808V7.23121Z" fill="black"/>
<path d="M13.5125 7.2406C13.4875 7.25935 13.4906 7.30935 13.4906 7.31248H13.5C13.5 7.31248 13.5 7.26248 13.5187 7.24998C13.5281 7.24373 13.5375 7.24373 13.55 7.24998L13.5531 7.23748C13.5375 7.23123 13.5219 7.23123 13.5125 7.23748V7.2406Z" fill="black"/>
<path d="M14.8878 6.56855C14.8878 6.56855 14.9148 6.63088 14.9148 6.67867C14.9148 6.68698 14.9106 6.69321 14.9085 6.69944L14.8982 6.67243L14.8919 6.69321C14.8919 6.69321 14.8795 6.7223 14.8982 6.75346C14.9231 6.79502 14.9854 6.81995 15.0852 6.83034V6.83242C15.0822 6.83237 15.0794 6.83309 15.0768 6.83449L15.0727 6.83865V6.84696C15.0768 6.85735 15.0872 6.85735 15.1101 6.85735L15.1246 6.85943L15.1371 6.86358L15.135 6.8615C15.1558 6.8615 15.1828 6.86774 15.2098 6.87813L15.189 6.88228L15.2119 6.89267C15.214 6.89267 15.3926 6.96539 15.4654 7.02356C15.4446 7.04226 15.3553 7.10667 15.2015 7.06927L15.1766 7.06304L15.1932 7.08382C15.1932 7.08382 15.295 7.20017 15.3158 7.27081C15.2805 7.27081 15.1454 7.27081 15.0976 7.22925L15.0872 7.23964C15.0872 7.23964 15.1496 7.33522 15.1662 7.40794C15.1454 7.41209 15.1039 7.41417 15.0768 7.37885L15.0644 7.3643L15.0581 7.40586C15.0457 7.39547 15.0291 7.383 15.0291 7.36638V7.35807L14.9917 7.3643L14.9127 7.31652C14.9087 7.31356 14.9045 7.31079 14.9002 7.30821L14.8919 7.32275L14.9044 7.32898C14.921 7.34145 14.9501 7.3643 14.9522 7.39755H14.9023V7.40794C14.9023 7.41417 14.9023 7.43702 14.8836 7.48481C14.8608 7.48065 14.7735 7.44949 14.7216 7.30197L14.7049 7.30613V7.31028C14.7049 7.32483 14.7008 7.35807 14.6551 7.37054L14.52 7.41209C14.5319 7.39508 14.5377 7.37461 14.5366 7.35392V7.33729C14.5341 7.3194 14.5327 7.30135 14.5325 7.28327C14.5325 7.25211 14.5387 7.23341 14.5616 7.22094L14.5533 7.20432C14.5512 7.20432 14.3538 7.28535 14.2562 7.25211C14.2603 7.23133 14.2769 7.16485 14.3102 7.09421L14.306 7.09836C14.3123 7.0942 14.3185 7.08589 14.3123 7.05265V7.04226L14.3019 7.04642C14.3019 7.04642 14.2395 7.07551 14.1481 7.04226C14.1481 7.03395 14.1543 7.02149 14.173 7.01318L14.1793 7.0111V6.99448C14.1793 6.96954 14.1814 6.91137 14.2167 6.8989L14.2125 6.88228C14.2125 6.88228 14.1066 6.89059 14.0422 6.85527C14.07 6.83527 14.1019 6.82178 14.1356 6.81579H14.1419V6.80748C14.1416 6.79103 14.1381 6.77478 14.1315 6.7597C14.1564 6.76801 14.1855 6.77424 14.1959 6.76593L14.2001 6.76385L14.1959 6.69944H14.1793L14.1814 6.75346L14.119 6.73892L14.0941 6.73061L14.1107 6.75139C14.1208 6.76603 14.1259 6.7835 14.1253 6.80125C14.0876 6.8094 14.0521 6.82571 14.0214 6.84904L14.011 6.85735L14.0214 6.86358C14.0712 6.89682 14.1481 6.90098 14.1876 6.8989C14.1699 6.92688 14.1605 6.9593 14.1606 6.9924V7.00071C14.1523 7.00553 14.1452 7.01214 14.1398 7.02005C14.1344 7.02795 14.1309 7.03696 14.1294 7.04642V7.05265L14.1336 7.05473C14.1851 7.07844 14.2436 7.08214 14.2977 7.06512V7.08382C14.2562 7.17108 14.2354 7.25626 14.2354 7.25626V7.26458H14.2416C14.3226 7.29782 14.4639 7.25419 14.5283 7.23133C14.52 7.24588 14.5138 7.2625 14.5138 7.28327C14.514 7.30695 14.5161 7.33056 14.52 7.35392C14.52 7.4017 14.4889 7.4204 14.4868 7.4204L14.493 7.43702L14.6592 7.38716C14.6966 7.37677 14.7112 7.35392 14.7174 7.33522C14.7818 7.48897 14.8836 7.50143 14.8898 7.50351H14.8961L14.8982 7.49728C14.9091 7.47075 14.9161 7.44274 14.9189 7.41417C14.9356 7.41352 14.9522 7.41283 14.9688 7.41209V7.4017C14.9688 7.38716 14.9667 7.37469 14.9605 7.3643L14.9896 7.38093L15.0166 7.37677C15.0228 7.40378 15.0561 7.42663 15.0602 7.42871L15.0706 7.43495L15.0768 7.39963C15.1184 7.43495 15.1745 7.42456 15.1786 7.42456L15.1849 7.42248V7.41417C15.1766 7.35807 15.1392 7.29159 15.1163 7.25626C15.189 7.28951 15.322 7.28743 15.3282 7.28743H15.3366V7.27704C15.3092 7.2083 15.2698 7.14498 15.2202 7.09005C15.3906 7.12122 15.482 7.03187 15.4861 7.02772L15.4924 7.02149L15.4841 7.01733C15.4094 6.96397 15.3285 6.92001 15.2431 6.88644L15.2618 6.88228L15.241 6.87189C15.2037 6.85284 15.1624 6.84287 15.1205 6.8428C15.0997 6.81787 15.0893 6.81579 15.0872 6.81372C14.9709 6.80125 14.9293 6.77009 14.9127 6.74515V6.73892L14.9169 6.73269C14.9272 6.71814 14.9314 6.69944 14.9314 6.67867C14.9314 6.62465 14.9044 6.56439 14.9044 6.56232L14.8878 6.56855Z" fill="black"/>
<path d="M14.3579 6.53529C14.3579 6.53529 14.3455 6.59763 14.2915 6.62879C14.2499 6.64957 14.198 6.64957 14.1336 6.62256L14.1252 6.62048V6.62879C14.1299 6.65553 14.1448 6.67939 14.1668 6.69528C14.1938 6.71605 14.2354 6.72436 14.2894 6.72021C14.2707 6.74099 14.2146 6.81163 14.2146 6.88227V6.89266C14.2229 6.89681 14.3102 6.92174 14.3517 6.8698C14.3517 6.89058 14.36 6.9633 14.387 6.99031C14.4037 7.00693 14.4078 7.02771 14.4078 7.04641C14.4078 7.06303 14.4037 7.07549 14.4037 7.07549L14.3995 7.08796L14.4099 7.07965C14.414 7.07757 14.4951 7.01732 14.52 6.94044C14.52 6.94044 14.5345 6.91967 14.5595 6.91343V6.92382C14.5595 6.95499 14.5719 7.00901 14.6592 7.04225L14.6654 7.04433V7.0381C14.6652 7.03325 14.6652 7.0284 14.6654 7.02355C14.6654 7.0007 14.6654 6.96122 14.6883 6.94044C14.6975 6.93189 14.7037 6.92059 14.7059 6.90824C14.7082 6.89588 14.7064 6.88312 14.7008 6.87188C14.7195 6.87604 14.761 6.89058 14.7776 6.92174C14.8026 6.96745 14.8878 6.93006 14.8919 6.93006L14.8898 6.91967C14.8898 6.91967 14.8524 6.92798 14.8296 6.91343C14.8248 6.90968 14.8208 6.90498 14.818 6.89961C14.8151 6.89424 14.8134 6.88834 14.813 6.88227L14.8088 6.8324C14.8088 6.81163 14.8046 6.79708 14.7943 6.78669C14.8046 6.78669 14.8275 6.78669 14.8358 6.80747C14.8524 6.84071 14.9044 6.84279 14.9065 6.84279L14.9252 6.84487L14.9106 6.83448C14.9106 6.83448 14.8649 6.80539 14.8732 6.76592L14.8794 6.73683C14.8919 6.68489 14.9127 6.5997 14.894 6.54568L14.8857 6.54984C14.8898 6.5623 14.8919 6.57893 14.8919 6.59555C14.8919 6.64126 14.8774 6.69943 14.8711 6.73475L14.8628 6.76384C14.8625 6.76729 14.8625 6.77077 14.8628 6.77423C14.8628 6.80124 14.8774 6.81994 14.8898 6.83033C14.8753 6.82825 14.8545 6.81994 14.8483 6.80332C14.8337 6.77423 14.8005 6.77423 14.7859 6.77631L14.7735 6.77838L14.7818 6.78669C14.7963 6.79501 14.7984 6.80747 14.7984 6.83448L14.8026 6.88227C14.8046 6.89889 14.813 6.91136 14.8233 6.91967C14.8358 6.92798 14.8483 6.92798 14.8587 6.93006C14.8337 6.93629 14.7984 6.94044 14.7859 6.91759C14.7631 6.87188 14.6966 6.86149 14.6945 6.85941H14.6841L14.6883 6.86772C14.6883 6.86772 14.6966 6.88019 14.6966 6.89681C14.6966 6.9072 14.6925 6.92174 14.6821 6.93213C14.6592 6.95499 14.6551 6.99862 14.6551 7.02147V7.02978C14.5803 6.99862 14.5678 6.95291 14.5678 6.9259V6.90512L14.5719 6.89889H14.5636C14.5527 6.90075 14.5423 6.90509 14.5333 6.91157C14.5243 6.91805 14.5169 6.92651 14.5117 6.93629C14.491 6.98707 14.4574 7.0315 14.414 7.0651C14.4152 7.05824 14.4159 7.05129 14.4161 7.04433C14.4161 7.02563 14.412 7.00277 14.3953 6.98408C14.3642 6.95499 14.36 6.85941 14.36 6.85941V6.84279L14.3517 6.85734C14.3185 6.91551 14.2229 6.88642 14.2208 6.88642C14.2167 6.8137 14.3039 6.71813 14.3039 6.71605L14.3122 6.70774H14.2998C14.2437 6.71605 14.2 6.70774 14.171 6.68697C14.1544 6.6738 14.1427 6.65554 14.1377 6.63502C14.2 6.65788 14.2541 6.65996 14.2956 6.6371C14.3136 6.62619 14.3291 6.61171 14.3413 6.59456C14.3534 6.5774 14.3619 6.55794 14.3663 6.53737C14.4286 6.40025 14.4805 6.37739 14.4805 6.37739L14.4785 6.36908C14.4743 6.36908 14.4203 6.38986 14.3579 6.53529Z" fill="black"/>
<path d="M14.4971 6.3296H14.493L14.4431 6.39816H14.4577C14.6127 6.41037 14.7581 6.47827 14.867 6.58931L14.8732 6.59554L14.921 6.5436L14.9168 6.53736C14.7818 6.32544 14.4992 6.3296 14.4951 6.3296H14.4971ZM14.5013 6.34829C14.5345 6.34829 14.7755 6.35453 14.9002 6.54152L14.8732 6.57061C14.7636 6.46644 14.6226 6.40142 14.4722 6.38569C14.4819 6.37321 14.4916 6.36074 14.5013 6.34829Z" fill="black"/>
<path d="M14.4577 6.47091C14.4353 6.50015 14.4204 6.53436 14.4141 6.57064L14.4161 6.57895C14.4017 6.5941 14.3906 6.61207 14.3834 6.63174C14.3762 6.6514 14.3732 6.67234 14.3746 6.69322C14.3746 6.72023 14.3787 6.74724 14.387 6.77217L14.3933 6.78672C14.4182 6.85736 14.4411 6.91969 14.5553 6.88229C14.6634 6.84905 14.6675 6.84074 14.6945 6.79503L14.7029 6.78464C14.7174 6.75971 14.734 6.75555 14.7506 6.74932C14.7714 6.74308 14.7922 6.73685 14.813 6.69945L14.8296 6.67244C14.8504 6.64543 14.8753 6.61011 14.8774 6.56856H14.8691C14.8629 6.60463 14.8471 6.63836 14.8234 6.66621L14.8026 6.6953C14.798 6.70678 14.7907 6.71697 14.7813 6.72494C14.7719 6.73292 14.7606 6.73844 14.7486 6.74101C14.7374 6.74312 14.7269 6.74754 14.7176 6.75399C14.7083 6.76043 14.7004 6.76875 14.6945 6.77841L14.6862 6.79087C14.6613 6.8345 14.6571 6.84074 14.5512 6.87398C14.4473 6.90722 14.4265 6.85528 14.4016 6.78256L14.3954 6.76802C14.3663 6.68906 14.3891 6.61011 14.4286 6.58103L14.4411 6.57064L14.4224 6.57271V6.57064C14.4224 6.55609 14.4369 6.51662 14.4639 6.47714C14.4888 6.4439 14.547 6.41273 14.547 6.41065L14.5429 6.40234C14.5387 6.40442 14.4826 6.43766 14.4577 6.47091Z" fill="black"/>
<path d="M14.4078 6.75969C14.4265 6.77215 14.4514 6.77008 14.4846 6.75969C14.4846 6.77008 14.4846 6.79501 14.5054 6.81163C14.5304 6.83241 14.5678 6.83656 14.6197 6.8241V6.81371C14.5698 6.82617 14.5324 6.82202 14.5117 6.80332C14.505 6.7969 14.4999 6.78911 14.4967 6.78048C14.4935 6.77186 14.4922 6.76263 14.493 6.75345V6.74514L14.4867 6.7493C14.4556 6.76176 14.4306 6.76384 14.4119 6.7493C14.3808 6.72852 14.3828 6.67242 14.3828 6.67242H14.3745C14.3745 6.67242 14.3704 6.73475 14.4078 6.75969Z" fill="black"/>
<path d="M14.466 6.68278C14.4535 6.68694 14.4494 6.69733 14.4494 6.70564V6.71187C14.4535 6.7368 14.4805 6.75342 14.5034 6.75966C14.5283 6.76589 14.5574 6.76797 14.5678 6.75342C14.572 6.74719 14.5761 6.7368 14.5678 6.7181C14.5589 6.70057 14.5435 6.68713 14.525 6.68056C14.5064 6.67399 14.4861 6.67478 14.4681 6.68278H14.466ZM14.5076 6.75135C14.4868 6.74511 14.4618 6.73057 14.4598 6.70979C14.4598 6.70979 14.4577 6.69525 14.4702 6.69109C14.4862 6.68459 14.5041 6.6844 14.5203 6.69056C14.5365 6.69673 14.5498 6.7088 14.5574 6.72434C14.5636 6.73265 14.5636 6.74096 14.5595 6.74511C14.5533 6.7555 14.5304 6.75758 14.5076 6.75135ZM14.4992 6.80744C14.493 6.85939 14.4992 6.86146 14.5013 6.86146H14.5055L14.5096 6.85939L14.5387 6.81783L14.5013 6.80121V6.80744H14.4992ZM14.5096 6.81575L14.5242 6.82199L14.5076 6.84484V6.81575H14.5096ZM14.4224 6.76589L14.4203 6.81368L14.4618 6.76381L14.4203 6.75966V6.76589H14.4224ZM14.4307 6.77005H14.4431L14.4307 6.78667V6.77005Z" fill="black"/>
<path d="M14.3933 6.74931C14.3933 6.74931 14.4245 6.80956 14.4307 6.83241C14.4328 6.84488 14.4515 6.8615 14.4723 6.86773C14.493 6.87604 14.5138 6.87605 14.5284 6.86566L14.5554 6.8428C14.5637 6.83241 14.5678 6.83034 14.5762 6.83241V6.82203C14.5637 6.82203 14.5575 6.82618 14.5491 6.83449L14.5221 6.85527C14.5055 6.86773 14.4868 6.86358 14.4764 6.85942C14.4557 6.85319 14.4411 6.83865 14.439 6.82826C14.4328 6.80748 14.4037 6.74723 14.4016 6.74515L14.3933 6.74931ZM14.4349 6.57063C14.4114 6.58295 14.3936 6.60376 14.385 6.6288L14.3933 6.63088C14.3933 6.63088 14.4079 6.59348 14.437 6.57894C14.4448 6.57538 14.4533 6.57354 14.4619 6.57354C14.4705 6.57354 14.479 6.57538 14.4868 6.57894L14.4889 6.57063C14.4681 6.56231 14.4515 6.56231 14.4328 6.57063H14.4349ZM14.6593 6.67866C14.6634 6.67866 14.7258 6.72853 14.6904 6.7867L14.6967 6.79294C14.7382 6.72437 14.6655 6.67035 14.6655 6.66828L14.6593 6.67866ZM14.4681 6.68698C14.4681 6.68698 14.4577 6.7223 14.5097 6.73476C14.5097 6.73476 14.4619 6.73476 14.4577 6.7223C14.4557 6.70983 14.4577 6.68282 14.4681 6.68698ZM14.6239 6.72853C14.6239 6.73268 14.6198 6.73476 14.6177 6.73476C14.6164 6.73484 14.615 6.73448 14.6139 6.73373C14.6128 6.73298 14.6119 6.73188 14.6115 6.73061C14.6115 6.72645 14.6136 6.72437 14.6177 6.72437C14.6198 6.72437 14.6239 6.72645 14.6239 6.73061V6.72853ZM14.6281 6.75346C14.6281 6.75554 14.6281 6.75762 14.6239 6.75762C14.6226 6.75769 14.6213 6.75733 14.6201 6.75658C14.619 6.75583 14.6182 6.75474 14.6177 6.75346C14.6177 6.75181 14.6184 6.75022 14.6195 6.74905C14.6207 6.74789 14.6223 6.74723 14.6239 6.74723C14.626 6.74723 14.6281 6.74931 14.6281 6.75346Z" fill="black"/>
<path d="M14.5907 6.74721C14.5941 6.74721 14.5969 6.74442 14.5969 6.74097C14.5969 6.73753 14.5941 6.73474 14.5907 6.73474C14.5873 6.73474 14.5845 6.73753 14.5845 6.74097C14.5845 6.74442 14.5873 6.74721 14.5907 6.74721Z" fill="black"/>
<path d="M14.6072 6.77421C14.6072 6.77586 14.6066 6.77745 14.6054 6.77862C14.6043 6.77979 14.6027 6.78044 14.601 6.78044C14.5994 6.78044 14.5978 6.77979 14.5966 6.77862C14.5954 6.77745 14.5948 6.77586 14.5948 6.77421C14.5948 6.77213 14.5969 6.77005 14.601 6.77005L14.6072 6.77421ZM14.4597 6.62254C14.4597 6.62419 14.4591 6.62578 14.4579 6.62695C14.4567 6.62811 14.4552 6.62877 14.4535 6.62877C14.4518 6.62877 14.4503 6.62811 14.4491 6.62695C14.4479 6.62578 14.4473 6.62419 14.4473 6.62254C14.4478 6.62168 14.4486 6.62098 14.4495 6.62049C14.4504 6.62001 14.4514 6.61975 14.4525 6.61975C14.4535 6.61975 14.4545 6.62001 14.4554 6.62049C14.4563 6.62098 14.4571 6.62168 14.4577 6.62254H14.4597Z" fill="black"/>
<path d="M14.4576 6.65163C14.4611 6.65163 14.4639 6.64884 14.4639 6.64539C14.4639 6.64195 14.4611 6.63916 14.4576 6.63916C14.4542 6.63916 14.4514 6.64195 14.4514 6.64539C14.4514 6.64884 14.4542 6.65163 14.4576 6.65163Z" fill="black"/>
<path d="M14.4265 6.64125C14.43 6.64125 14.4328 6.63846 14.4328 6.63502C14.4328 6.63157 14.43 6.62878 14.4265 6.62878C14.4231 6.62878 14.4203 6.63157 14.4203 6.63502C14.4203 6.63846 14.4231 6.64125 14.4265 6.64125Z" fill="black"/>
<path d="M14.4411 6.66826C14.4411 6.66961 14.4408 6.67095 14.44 6.67207C14.4393 6.6732 14.4382 6.67405 14.4369 6.6745C14.4352 6.6745 14.4337 6.67384 14.4325 6.67267C14.4313 6.6715 14.4307 6.66992 14.4307 6.66826C14.4307 6.66661 14.4313 6.66503 14.4325 6.66386C14.4337 6.66269 14.4352 6.66203 14.4369 6.66203C14.4382 6.66248 14.4393 6.66333 14.44 6.66445C14.4408 6.66558 14.4411 6.66692 14.4411 6.66826ZM14.5408 6.46881C14.5408 6.46881 14.6135 6.51452 14.5429 6.5997C14.5429 6.5997 14.5782 6.57269 14.5803 6.52906C14.5844 6.48543 14.5553 6.45011 14.5387 6.46881H14.5408ZM14.8213 6.59139C14.7963 6.60386 14.7631 6.581 14.7465 6.56022C14.7299 6.53945 14.6945 6.53321 14.6717 6.57269C14.6509 6.61009 14.6197 6.62463 14.6197 6.62463C14.6197 6.62463 14.6509 6.60801 14.6821 6.57269C14.7132 6.53945 14.7319 6.56646 14.7631 6.58308C14.7922 6.5997 14.7984 6.60386 14.8192 6.59347V6.59139H14.8213Z" fill="black"/>
<path d="M14.815 6.59765C14.8084 6.60278 14.8002 6.60539 14.7918 6.60501C14.7834 6.60463 14.7754 6.60128 14.7693 6.59557C14.7485 6.57895 14.734 6.55817 14.7111 6.57064C14.6862 6.5831 14.6426 6.61635 14.6426 6.61635C14.6426 6.61635 14.7153 6.56648 14.7298 6.57895C14.7423 6.58934 14.7755 6.61635 14.7942 6.60803L14.815 6.59765Z" fill="black"/>
<path d="M14.7589 6.62673C14.7361 6.61011 14.7132 6.64751 14.6945 6.64336C14.6737 6.6392 14.6592 6.60596 14.6592 6.60596C14.6592 6.60596 14.6758 6.6392 14.7007 6.63297C14.7277 6.62466 14.7444 6.60803 14.761 6.6205C14.7755 6.63297 14.7589 6.62673 14.7589 6.62673Z" fill="black"/>
<path d="M14.7237 6.63292C14.7178 6.63414 14.7116 6.63404 14.7057 6.63263C14.6998 6.63123 14.6943 6.62855 14.6896 6.62479C14.6848 6.62103 14.6809 6.61627 14.6782 6.61086C14.6755 6.60545 14.674 6.5995 14.6738 6.59344C14.6738 6.59344 14.6884 6.63084 14.7278 6.62461L14.7237 6.63292Z" fill="black"/>
<path d="M14.7215 6.60385C14.7236 6.61424 14.7236 6.62047 14.7111 6.62047C14.6987 6.62047 14.6904 6.61632 14.6904 6.60385C14.6904 6.59346 14.7195 6.59554 14.7215 6.60385ZM14.5595 6.54152C14.559 6.54501 14.5572 6.54819 14.5545 6.55049C14.5519 6.55278 14.5485 6.55402 14.5449 6.55399C14.5366 6.55399 14.5345 6.54983 14.5345 6.54152C14.5345 6.53321 14.5345 6.52698 14.5449 6.52698C14.5553 6.52698 14.5595 6.53321 14.5595 6.54152Z" fill="black"/>
<path d="M14.5075 6.48958C14.5075 6.48958 14.5865 6.48958 14.5491 6.58723C14.5491 6.58723 14.5782 6.53945 14.5595 6.50413C14.5387 6.47088 14.5117 6.47919 14.5117 6.47919C14.5117 6.47919 14.5034 6.48543 14.5075 6.48958Z" fill="black"/>
<path d="M14.5076 6.52903C14.5076 6.54981 14.52 6.56851 14.545 6.58928L14.5512 6.58097C14.5283 6.56227 14.5159 6.54565 14.5159 6.52903C14.5159 6.51241 14.5283 6.50202 14.5283 6.50202L14.5221 6.49579C14.5221 6.49579 14.5076 6.50825 14.5055 6.52903H14.5076Z" fill="black"/>
<path d="M14.5241 6.54565C14.5262 6.55604 14.5366 6.56643 14.5491 6.57058L14.5532 6.56227C14.5428 6.55811 14.5345 6.5498 14.5324 6.54149C14.5283 6.52487 14.5408 6.50617 14.5408 6.50617L14.5324 6.49994C14.5324 6.49994 14.5179 6.52487 14.5241 6.54565ZM14.6301 6.59967C14.6301 6.59967 14.6446 6.63083 14.6239 6.66408L14.6031 6.69732C14.6031 6.69732 14.628 6.64953 14.6176 6.63083C14.6093 6.61006 14.6301 6.59967 14.6301 6.59967ZM14.9334 6.92794C15.0124 6.94249 15.1932 7.08377 15.1932 7.08377L15.2035 7.0713C15.1973 7.06507 15.0186 6.92586 14.9355 6.91132L14.9314 6.92794H14.9334ZM15.0041 7.12532C15.0082 7.19804 15.0872 7.24167 15.0872 7.24375L15.0976 7.22921C15.0976 7.22921 15.0249 7.18765 15.0207 7.12532H15.0041ZM14.8109 7.14194C14.8109 7.2209 14.8857 7.31647 14.8898 7.32063L14.9023 7.31024C14.9023 7.31024 14.8275 7.21466 14.8275 7.14194H14.8109ZM14.5595 7.15026C14.5719 7.17727 14.5719 7.18973 14.5678 7.19596C14.5636 7.20427 14.5553 7.20428 14.5553 7.20428L14.5574 7.2209C14.5636 7.2209 14.5761 7.21674 14.5823 7.20428C14.5906 7.18973 14.5885 7.16895 14.574 7.14194L14.5595 7.15026Z" fill="black"/>
<path d="M13.425 6.75934C13.425 6.75934 13.4282 6.81246 13.4688 6.84371C13.4688 6.84371 13.4657 6.78746 13.4782 6.76246C13.4782 6.76246 13.4563 6.73746 13.425 6.75934ZM13.5063 6.79059C13.5063 6.79059 13.5157 6.84059 13.5438 6.86246L13.5625 6.85934C13.5625 6.85934 13.5688 6.79684 13.5782 6.79059C13.5875 6.78434 13.5375 6.81246 13.5063 6.79059Z" fill="white" stroke="black" stroke-width="0.01" stroke-miterlimit="3"/>
<path d="M13.5782 6.7906L13.6094 6.8406L13.6469 6.81873L13.6407 6.76248C13.6407 6.76248 13.6188 6.75623 13.5782 6.7906ZM13.725 6.79998L13.6844 6.83435C13.6844 6.83435 13.6625 6.81873 13.6469 6.81873L13.6532 6.7656C13.6532 6.7656 13.6844 6.74373 13.725 6.79998ZM13.4344 7.29998C13.4344 7.29998 13.4282 7.22498 13.4344 7.22185C13.4344 7.22185 13.4657 7.23123 13.4782 7.22185C13.4782 7.22185 13.4938 7.2781 13.4907 7.3031C13.4844 7.3281 13.4563 7.31873 13.4344 7.3031V7.29998ZM13.6219 7.22498C13.6219 7.22498 13.6188 7.16248 13.6282 7.1531C13.6282 7.1531 13.6907 7.16248 13.7032 7.1281L13.725 7.1906C13.725 7.1906 13.6594 7.18123 13.6188 7.22185L13.6219 7.22498Z" fill="white"/>
<path d="M13.6469 6.81873L13.6094 6.8406L13.5782 6.7906C13.6188 6.75623 13.6407 6.76248 13.6407 6.76248L13.6469 6.81873ZM13.6469 6.81873C13.6625 6.81873 13.6844 6.83435 13.6844 6.83435L13.725 6.79998C13.6844 6.74373 13.6532 6.7656 13.6532 6.7656L13.6469 6.81873ZM13.4344 7.29998C13.4344 7.29998 13.4282 7.22498 13.4344 7.22185C13.4344 7.22185 13.4657 7.23123 13.4782 7.22185C13.4782 7.22185 13.4938 7.2781 13.4907 7.3031C13.4844 7.3281 13.4563 7.31873 13.4344 7.3031V7.29998ZM13.6219 7.22498C13.6219 7.22498 13.6188 7.16248 13.6282 7.1531C13.6282 7.1531 13.6907 7.16248 13.7032 7.1281L13.725 7.1906C13.725 7.1906 13.6594 7.18123 13.6188 7.22185L13.6219 7.22498Z" stroke="black" stroke-width="0.01" stroke-miterlimit="3"/>
<path d="M13.5562 7.23746C13.5562 7.23746 13.5656 7.17184 13.5781 7.16871C13.5781 7.16871 13.6094 7.17809 13.6187 7.16559V7.24684C13.6187 7.24684 13.6187 7.21246 13.5562 7.23746ZM13.4844 7.24684C13.4844 7.24684 13.5 7.18746 13.5094 7.18746C13.5187 7.18746 13.5406 7.20309 13.5531 7.19371V7.23746C13.5531 7.23746 13.5031 7.22496 13.4937 7.29684L13.4844 7.24684Z" fill="white" stroke="black" stroke-width="0.01" stroke-miterlimit="3"/>
<path d="M14.4282 8.44997C14.4282 8.44997 14.5907 8.60309 14.55 8.73747C14.55 8.73747 14.6532 8.50934 14.5407 8.44059C14.4282 8.37809 14.425 8.42497 14.4282 8.44997Z" fill="#00A651" stroke="black" stroke-width="0.025" stroke-miterlimit="4.8"/>
<path d="M14.2188 8.59683C14.2188 8.59683 14.1782 8.65933 14.225 8.69995C14.225 8.69995 14.1719 8.77495 14.2125 8.83745C14.2125 8.83745 14.1813 8.90308 14.1875 8.97495C14.1875 8.97495 14.1625 9.08433 14.2188 9.13433C14.2188 9.13433 14.2813 9.16558 14.3125 9.13745C14.3125 9.13745 14.3657 9.0562 14.3313 8.97183C14.3313 8.97183 14.3688 8.89995 14.325 8.80933C14.325 8.80933 14.3375 8.75933 14.3032 8.69995C14.3032 8.69995 14.325 8.66245 14.3063 8.6312C14.3063 8.6312 14.2282 8.54683 14.2188 8.59995V8.59683Z" fill="#964B36" stroke="black" stroke-width="0.025" stroke-miterlimit="4.8"/>
<path d="M14.2656 8.40623C14.2656 8.40623 14.0719 8.03123 13.9344 8.0156C13.7969 7.99998 13.7906 7.8656 13.7906 7.8656C13.7906 7.8656 13.8063 7.9281 13.9156 7.9281C14.025 7.9281 14.2344 8.08435 14.2594 8.19998C14.2813 8.3156 14.3063 8.29998 14.3063 8.29998L14.2656 8.40623Z" fill="#00A651" stroke="black" stroke-width="0.025" stroke-miterlimit="4.8"/>
<path d="M14.2656 8.37808C14.2656 8.37808 14.3375 7.9062 14.6469 7.89683C14.9562 7.89058 14.8531 7.92183 14.9281 7.87183C14.9281 7.87183 14.7219 7.97808 14.5937 7.99683C14.4625 8.00933 14.3562 8.26245 14.3625 8.30933C14.3625 8.3562 14.2906 8.44683 14.2562 8.41558C14.2187 8.38433 14.2656 8.37808 14.2656 8.37808Z" fill="#00A651" stroke="black" stroke-width="0.025" stroke-miterlimit="4.8"/>
<path d="M14.3375 8.55622C14.3375 8.55622 14.4094 8.36872 14.5281 8.43122C14.5281 8.43122 14.4344 8.24997 14.2656 8.40622C14.2656 8.40622 14.3406 8.50934 14.3375 8.55622ZM14.1031 8.36872C14.1031 8.36872 14.2031 8.78747 14.0469 8.91559C14.0469 8.91559 14.0531 8.69997 13.9563 8.57184C13.8625 8.44059 14.05 8.29997 14.1031 8.36872Z" fill="#00A651" stroke="black" stroke-width="0.025" stroke-miterlimit="4.8"/>
<path d="M14.1157 8.44058C14.1157 8.44058 14.3001 8.6187 14.3095 8.67808C14.322 8.73433 14.3657 8.49995 14.2782 8.43433C14.1907 8.3687 14.1001 8.3562 14.1001 8.3562L14.1157 8.4437V8.44058Z" fill="#00A651" stroke="black" stroke-width="0.025" stroke-miterlimit="4.8"/>
<path d="M13.775 8.90625C13.775 8.90625 13.7906 8.97812 13.8375 8.99375C13.8375 8.99375 13.8375 9.04688 13.8813 9.0625C13.8813 9.0625 13.8594 9.10937 13.8938 9.1375C13.8938 9.1375 13.8875 9.23125 13.9188 9.24687C13.9188 9.24687 14.0031 9.24375 14.0313 9.21875C14.0313 9.21875 14.0469 9.15938 14 9.1C14 9.1 14.0094 9.04375 13.9625 9.0125C13.9625 9.0125 13.9781 8.93437 13.9188 8.90625C13.9188 8.90625 13.9094 8.84375 13.875 8.8125C13.875 8.8125 13.8063 8.90938 13.775 8.90625Z" fill="#964B36" stroke="black" stroke-width="0.025" stroke-miterlimit="4.8"/>
<path d="M13.8657 8.81249C13.8657 8.81249 13.6251 8.72499 13.4907 8.84999C13.4907 8.84999 13.697 8.88124 13.722 8.92186C13.747 8.96249 13.8751 8.85311 13.8657 8.81249Z" fill="#00A651" stroke="black" stroke-width="0.025" stroke-miterlimit="4.8"/>
<path d="M13.7907 8.96246L13.7469 8.93121C13.725 8.91246 13.5219 8.85933 13.4938 9.05621C13.4938 9.05621 13.4188 8.85933 13.525 8.83746C13.6344 8.80621 13.7188 8.86871 13.7907 8.96246ZM13.6344 8.56246C13.6344 8.56246 13.7063 8.72496 13.7344 8.73121C13.7625 8.74058 13.7813 8.71246 13.7813 8.71246C13.7813 8.71246 13.6844 8.56871 13.6313 8.56246H13.6344ZM13.5782 8.31558C13.5782 8.31558 13.5157 8.10933 13.4407 8.16558C13.3657 8.21871 13.3844 8.36871 13.3844 8.36871C13.3844 8.36871 13.2375 8.21246 13.3219 8.09371C13.4094 7.97183 13.5782 8.10621 13.5782 8.31558Z" fill="#00A651" stroke="black" stroke-width="0.025" stroke-miterlimit="4.8"/>
<path d="M13.7469 8.74374C13.7469 8.74374 13.7469 8.78437 13.7751 8.79374C13.8001 8.80624 13.8532 8.825 13.8532 8.80312C13.8532 8.78125 13.8126 8.68749 13.7969 8.69999C13.7813 8.71249 13.7532 8.71249 13.7469 8.74374Z" fill="#964B36" stroke="black" stroke-width="0.025" stroke-miterlimit="4.8"/>
<path d="M13.7 8.49999C13.7 8.49999 13.6906 8.32186 13.8094 8.25311C13.8094 8.25311 13.8313 8.25936 13.8438 8.22186C13.8438 8.22186 13.75 8.44999 13.7781 8.56561L13.775 8.57811" fill="#00A651"/>
<path d="M13.7 8.49999C13.7 8.49999 13.6906 8.32186 13.8094 8.25311C13.8094 8.25311 13.8313 8.25936 13.8438 8.22186C13.8438 8.22186 13.75 8.44999 13.7781 8.56561L13.775 8.57811" stroke="black" stroke-width="0.025" stroke-miterlimit="4.8"/>
<path d="M13.7219 8.28124C13.7219 8.28124 13.9344 7.84374 14.1907 7.99687C14.1907 7.99687 13.9219 8.04999 13.825 8.24374L13.7282 8.38749L13.7219 8.28124Z" fill="#00A651" stroke="black" stroke-width="0.025" stroke-miterlimit="4.8"/>
<path d="M13.6094 8.44063C13.6094 8.44063 13.5469 8.14688 13.5063 8.10938C13.4688 8.06875 13.4031 8.02813 13.3219 8.09375C13.3219 8.09375 13.4594 7.97188 13.6031 8.075C13.75 8.175 13.7188 8.3375 13.7188 8.3375L13.7031 8.54062L13.6063 8.45" fill="#00A651"/>
<path d="M13.6094 8.44063C13.6094 8.44063 13.5469 8.14688 13.5063 8.10938C13.4688 8.06875 13.4031 8.02813 13.3219 8.09375C13.3219 8.09375 13.4594 7.97188 13.6031 8.075C13.75 8.175 13.7188 8.3375 13.7188 8.3375L13.7031 8.54062L13.6063 8.45" stroke="black" stroke-width="0.025" stroke-miterlimit="4.8"/>
<path d="M13.8376 8.79062C13.8376 8.79062 13.5782 8.3 13.4095 8.65C13.4095 8.65 13.3782 8.74062 13.4126 8.775C13.4126 8.775 13.3188 8.70312 13.3626 8.53125C13.4063 8.35937 13.6907 8.4375 13.7751 8.57812C13.8563 8.71875 13.8782 8.79062 13.8688 8.79687C13.8563 8.80625 13.8376 8.79062 13.8376 8.79062ZM14.5657 8.93125C14.5657 8.93125 14.7532 8.54375 14.8626 8.71875C14.8626 8.71875 14.8938 8.80625 14.847 8.84375C14.847 8.84375 14.772 8.75 14.7063 8.8625C14.6376 8.97187 14.6657 8.9625 14.6657 8.9625C14.6657 8.9625 14.597 8.98125 14.5657 8.93125Z" fill="#00A651" stroke="black" stroke-width="0.025" stroke-miterlimit="4.8"/>
<path d="M14.8438 8.84375C14.8438 8.84375 14.9469 8.89688 14.9125 9.00625C14.9125 9.00625 15.05 8.74375 14.8625 8.71875C14.8625 8.71875 14.8969 8.80313 14.8469 8.84375H14.8438ZM14.8594 8.575C14.8594 8.575 15.1063 8.64688 15.1125 8.75313C15.1125 8.75313 15.1562 8.54688 15.0156 8.48438C15.0156 8.48438 14.8469 8.51562 14.8594 8.57812V8.575Z" fill="#00A651" stroke="black" stroke-width="0.025" stroke-miterlimit="4.8"/>
<path d="M14.9688 8.24997C15.0751 8.04372 15.2063 8.31559 15.2063 8.31559C15.2063 8.31559 15.2532 8.09997 15.1219 8.06247C14.9876 8.02184 14.9032 8.52184 14.9032 8.52184L14.7469 8.55309C14.7469 8.55309 14.7876 8.12184 15.0219 8.08434H15.0532" fill="#00A651"/>
<path d="M14.9688 8.24997C15.0751 8.04372 15.2063 8.31559 15.2063 8.31559C15.2063 8.31559 15.2532 8.09997 15.1219 8.06247C14.9876 8.02184 14.9032 8.52184 14.9032 8.52184L14.7469 8.55309C14.7469 8.55309 14.7876 8.12184 15.0219 8.08434H15.0532" stroke="black" stroke-width="0.025" stroke-miterlimit="4.8"/>
<path d="M14.7813 8.37495C14.7813 8.37495 14.6313 8.0687 14.5313 8.03745C14.4313 8.0062 14.5844 7.95932 14.6469 8.0187C14.7094 8.07807 14.8282 8.15307 14.8157 8.30932L14.7813 8.37495ZM14.6251 8.7937C14.6251 8.7937 14.6688 8.58745 14.7876 8.52495C14.9063 8.46245 15.0157 8.48432 15.0157 8.48432C15.0157 8.48432 14.8751 8.51557 14.8501 8.58745C14.8282 8.6562 14.7876 8.66245 14.7876 8.66245L14.6282 8.7937H14.6251Z" fill="#00A651" stroke="black" stroke-width="0.025" stroke-miterlimit="4.8"/>
<path d="M14.5626 8.93121C14.5626 8.93121 14.5001 9.05621 14.5126 9.07496C14.5126 9.07496 14.4438 9.17809 14.472 9.23121C14.472 9.23121 14.5407 9.28434 14.572 9.26246C14.572 9.26246 14.6532 9.14684 14.6313 9.08434C14.6313 9.08434 14.6876 9.00934 14.6657 8.96246C14.6657 8.96246 14.5845 8.96559 14.5657 8.93121H14.5626Z" fill="#964B36" stroke="black" stroke-width="0.025" stroke-miterlimit="4.8"/>
<path d="M14.2188 8.70623C14.2251 8.70935 14.2657 8.7281 14.2907 8.71873L14.3095 8.7031L14.2938 8.69685C14.2845 8.7156 14.2407 8.69998 14.2282 8.69373L14.222 8.70623H14.2188ZM14.2157 8.83123L14.2095 8.84685C14.2126 8.84685 14.2938 8.86248 14.3313 8.8281L14.3188 8.8156C14.2876 8.84373 14.2157 8.8281 14.2126 8.8281L14.2157 8.83123ZM14.1938 8.96873L14.1845 8.98123C14.1845 8.98123 14.2782 9.04685 14.3376 8.97498L14.322 8.9656C14.2751 9.02498 14.197 8.97185 14.1938 8.9656V8.96873ZM13.8345 8.98748L13.8376 8.99685C13.8407 8.99685 13.9188 8.9656 13.9251 8.90623H13.9157C13.9126 8.95623 13.8376 8.98748 13.8345 8.98748ZM13.8782 9.05935V9.06873C13.8845 9.06873 13.9563 9.06248 13.9688 9.01248H13.9595C13.947 9.0531 13.8813 9.05935 13.8782 9.05935ZM13.8938 9.13435V9.14373C13.897 9.14373 13.9782 9.14685 14.0063 9.1031L13.997 9.09685C13.972 9.13748 13.8938 9.13435 13.8938 9.13435ZM14.5095 9.08123C14.5095 9.08123 14.5438 9.11873 14.5845 9.1156C14.5946 9.11541 14.6045 9.11308 14.6137 9.10877C14.6229 9.10446 14.631 9.09827 14.6376 9.0906L14.6251 9.0781C14.6126 9.09373 14.6001 9.09998 14.5845 9.09998C14.5532 9.09998 14.522 9.06873 14.522 9.06873L14.5095 9.08123Z" fill="black"/>
<path d="M16.9375 9.3687C16.9338 9.37119 16.9306 9.37437 16.9281 9.37808L16.9406 9.3687H16.9375ZM17.2281 9.29683C17.225 9.29058 17.2219 9.2937 17.2187 9.29058L17.2062 9.26558H17.1968L17.175 9.22183C17.1762 9.21882 17.1762 9.21546 17.175 9.21245C17.1751 9.20829 17.1751 9.20412 17.175 9.19995C17.175 9.19995 17.1687 9.19995 17.1656 9.1937V9.1437L17.1625 9.12808C17.1561 9.11777 17.1528 9.10583 17.1531 9.0937V9.06245C17.1562 9.04995 17.15 9.0437 17.15 9.0312L17.1531 9.00308V8.83433L17.15 8.80308L17.1469 8.79058V8.74058V8.82183L17.1406 8.68745L17.0343 8.63745C17.0343 8.63745 17.025 8.8312 17.0281 8.8562C17.0281 8.88433 17.0406 9.06558 17.0343 9.08745L17.0187 9.22183C17.0187 9.22183 16.9687 9.25933 16.95 9.29683C16.9281 9.33745 16.9344 9.34995 16.9281 9.34995L16.975 9.3437L16.9406 9.3687C16.9442 9.36723 16.9481 9.36675 16.952 9.3673C16.9558 9.36785 16.9594 9.36941 16.9625 9.37183L16.9687 9.37808L16.975 9.37183C16.9844 9.37183 16.9906 9.38433 16.9969 9.3812L17.0093 9.37495L17.0156 9.36245C17.0187 9.35933 17.025 9.36245 17.0281 9.36245H17.05C17.0593 9.36245 17.0687 9.34683 17.0781 9.34058C17.0844 9.33433 17.0906 9.3312 17.1 9.3312C17.1094 9.3312 17.1187 9.34058 17.1312 9.34058C17.1375 9.34058 17.1406 9.34058 17.1469 9.33433L17.1593 9.31558L17.1844 9.31245L17.1968 9.31558H17.2156L17.225 9.32183L17.2312 9.30933L17.2281 9.29683Z" fill="#964B36"/>
<path d="M16.9406 9.3687L16.9281 9.37808C16.9306 9.37437 16.9338 9.37119 16.9375 9.3687H16.9406ZM16.9406 9.3687L16.975 9.3437L16.9281 9.34995C16.9344 9.34995 16.9281 9.33745 16.95 9.29683C16.9687 9.25933 17.0187 9.22183 17.0187 9.22183L17.0343 9.08745C17.0406 9.06558 17.0281 8.88433 17.0281 8.8562C17.025 8.8312 17.0343 8.63745 17.0343 8.63745L17.1406 8.68745L17.1469 8.82183V8.74058V8.79058L17.15 8.80308L17.1531 8.83433V9.00308L17.15 9.0312C17.15 9.0437 17.1562 9.04995 17.1531 9.06245V9.0937C17.1528 9.10583 17.1561 9.11777 17.1625 9.12808L17.1656 9.1437V9.1937C17.1687 9.19995 17.175 9.19995 17.175 9.19995C17.1751 9.20412 17.1751 9.20829 17.175 9.21245C17.1762 9.21546 17.1762 9.21882 17.175 9.22183L17.1968 9.26558H17.2062L17.2187 9.29058C17.2219 9.2937 17.225 9.29058 17.2281 9.29683L17.2312 9.30933L17.225 9.32183L17.2156 9.31558H17.1968L17.1844 9.31245L17.1593 9.31558L17.1469 9.33433C17.1406 9.34058 17.1375 9.34058 17.1312 9.34058C17.1187 9.34058 17.1094 9.3312 17.1 9.3312C17.0906 9.3312 17.0844 9.33433 17.0781 9.34058C17.0687 9.34683 17.0593 9.36245 17.05 9.36245H17.0281C17.025 9.36245 17.0187 9.35933 17.0156 9.36245L17.0093 9.37495L16.9969 9.3812C16.9906 9.38433 16.9844 9.37183 16.975 9.37183L16.9687 9.37808L16.9625 9.37183C16.9594 9.36941 16.9558 9.36785 16.952 9.3673C16.9481 9.36675 16.9442 9.36723 16.9406 9.3687Z" stroke="black" stroke-width="0.015" stroke-miterlimit="4.8"/>
<path d="M17.0156 9.3656H17.0344V9.37185C17.0353 9.3724 17.0364 9.37268 17.0375 9.37268C17.0386 9.37268 17.0397 9.3724 17.0406 9.37185L17.05 9.3781H17.0594L17.0719 9.38122C17.0781 9.38435 17.0844 9.38122 17.0906 9.3781C17.0969 9.37185 17.1 9.3781 17.1094 9.38435C17.1125 9.38747 17.1125 9.38747 17.1156 9.38435L17.1187 9.38122L17.1281 9.3781L17.1375 9.37497L17.15 9.36872L17.1625 9.37497C17.1646 9.37471 17.1667 9.37471 17.1687 9.37497L17.1906 9.35935C17.2 9.3531 17.2062 9.35935 17.2125 9.35935H17.2219C17.225 9.35622 17.2281 9.35935 17.2344 9.35935C17.2344 9.35622 17.2344 9.3531 17.2406 9.34997L17.2625 9.36247C17.2656 9.3656 17.2844 9.36872 17.2812 9.35622C17.2812 9.34372 17.2687 9.3531 17.2656 9.34372V9.32497C17.2641 9.31979 17.2608 9.31534 17.2562 9.31247C17.25 9.31247 17.25 9.3156 17.2437 9.31247L17.2375 9.29372L17.2281 9.29997C17.2219 9.29997 17.2219 9.29685 17.2187 9.2906C17.2094 9.28122 17.2062 9.29685 17.1969 9.29372C17.1906 9.29372 17.1844 9.2781 17.1812 9.27185C17.1781 9.26872 17.1719 9.25622 17.1656 9.25935C17.1594 9.26247 17.1656 9.27497 17.1656 9.28122H17.15C17.1437 9.28122 17.1437 9.28122 17.1406 9.28747C17.1344 9.29997 17.1312 9.30935 17.1187 9.30622C17.1156 9.30622 17.1094 9.3031 17.1062 9.30622L17.0906 9.31247C17.0865 9.31331 17.0822 9.31331 17.0781 9.31247L17.0656 9.29997C17.0656 9.29914 17.0653 9.29835 17.0647 9.29776C17.0641 9.29718 17.0633 9.29685 17.0625 9.29685C17.0617 9.29685 17.0609 9.29718 17.0603 9.29776C17.0597 9.29835 17.0594 9.29914 17.0594 9.29997C17.0583 9.29788 17.0573 9.29579 17.0562 9.29372C17.05 9.29372 17.05 9.29372 17.0469 9.3031L17.0437 9.31872L17.0344 9.33122L17.0219 9.33435C17.0156 9.33435 17.0094 9.34372 17.0094 9.33435C17.0031 9.32185 17.0187 9.29997 17.0031 9.3031C17 9.3031 16.9969 9.3031 16.9937 9.30935V9.33122C16.9906 9.3406 16.9719 9.35622 16.975 9.36247C16.975 9.37185 16.9875 9.36247 16.9875 9.36247L16.9937 9.37497C17 9.38435 17.0156 9.36247 17.0156 9.37497M16.95 9.2906V9.28435L16.9375 9.28122C16.9312 9.28122 16.925 9.2906 16.9219 9.29372C16.9156 9.30622 16.9156 9.32497 16.9031 9.32497H16.8875V9.35622C16.8875 9.35622 16.8812 9.35622 16.8812 9.36247C16.8781 9.37497 16.8875 9.36872 16.8937 9.36872H16.925L16.9406 9.3656C16.9469 9.3656 16.9531 9.3656 16.9562 9.35935C16.9587 9.3554 16.9608 9.35122 16.9625 9.34685V9.33435C16.9625 9.3281 16.9719 9.33122 16.9719 9.32185C16.975 9.29997 16.9531 9.3156 16.9562 9.29372" fill="#964B36"/>
<path d="M17.0156 9.3656H17.0344V9.37185C17.0353 9.3724 17.0364 9.37268 17.0375 9.37268C17.0386 9.37268 17.0397 9.3724 17.0406 9.37185L17.05 9.3781H17.0594L17.0719 9.38122C17.0781 9.38435 17.0844 9.38122 17.0906 9.3781C17.0969 9.37185 17.1 9.3781 17.1094 9.38435C17.1125 9.38747 17.1125 9.38747 17.1156 9.38435L17.1187 9.38122L17.1281 9.3781L17.1375 9.37497L17.15 9.36872L17.1625 9.37497C17.1646 9.37471 17.1667 9.37471 17.1687 9.37497L17.1906 9.35935C17.2 9.3531 17.2062 9.35935 17.2125 9.35935H17.2219C17.225 9.35622 17.2281 9.35935 17.2344 9.35935C17.2344 9.35622 17.2344 9.3531 17.2406 9.34997L17.2625 9.36247C17.2656 9.3656 17.2844 9.36872 17.2812 9.35622C17.2812 9.34372 17.2687 9.3531 17.2656 9.34372V9.32497C17.2641 9.31979 17.2608 9.31534 17.2562 9.31247C17.25 9.31247 17.25 9.3156 17.2437 9.31247L17.2375 9.29372L17.2281 9.29997C17.2219 9.29997 17.2219 9.29685 17.2187 9.2906C17.2094 9.28122 17.2062 9.29685 17.1969 9.29372C17.1906 9.29372 17.1844 9.2781 17.1812 9.27185C17.1781 9.26872 17.1719 9.25622 17.1656 9.25935C17.1594 9.26247 17.1656 9.27497 17.1656 9.28122H17.15C17.1437 9.28122 17.1437 9.28122 17.1406 9.28747C17.1344 9.29997 17.1312 9.30935 17.1187 9.30622C17.1156 9.30622 17.1094 9.3031 17.1062 9.30622L17.0906 9.31247C17.0865 9.31331 17.0822 9.31331 17.0781 9.31247L17.0656 9.29997C17.0656 9.29914 17.0653 9.29835 17.0647 9.29776C17.0641 9.29718 17.0633 9.29685 17.0625 9.29685C17.0617 9.29685 17.0609 9.29718 17.0603 9.29776C17.0597 9.29835 17.0594 9.29914 17.0594 9.29997C17.0583 9.29788 17.0573 9.29579 17.0562 9.29372C17.05 9.29372 17.05 9.29372 17.0469 9.3031L17.0437 9.31872L17.0344 9.33122L17.0219 9.33435C17.0156 9.33435 17.0094 9.34372 17.0094 9.33435C17.0031 9.32185 17.0187 9.29997 17.0031 9.3031C17 9.3031 16.9969 9.3031 16.9937 9.30935V9.33122C16.9906 9.3406 16.9719 9.35622 16.975 9.36247C16.975 9.37185 16.9875 9.36247 16.9875 9.36247L16.9937 9.37497C17 9.38435 17.0156 9.36247 17.0156 9.37497M16.95 9.2906V9.28435L16.9375 9.28122C16.9312 9.28122 16.925 9.2906 16.9219 9.29372C16.9156 9.30622 16.9156 9.32497 16.9031 9.32497H16.8875V9.35622C16.8875 9.35622 16.8812 9.35622 16.8812 9.36247C16.8781 9.37497 16.8875 9.36872 16.8937 9.36872H16.925L16.9406 9.3656C16.9469 9.3656 16.9531 9.3656 16.9562 9.35935C16.9587 9.3554 16.9608 9.35122 16.9625 9.34685V9.33435C16.9625 9.3281 16.9719 9.33122 16.9719 9.32185C16.975 9.29997 16.9531 9.3156 16.9562 9.29372" stroke="black" stroke-width="0.015" stroke-miterlimit="4.8"/>
<path d="M17.2125 8.68434C17.2125 8.71246 17.1938 8.73434 17.1688 8.73434C17.1469 8.73434 17.125 8.71246 17.125 8.68434C17.125 8.65621 17.1469 8.63434 17.1688 8.63434C17.1938 8.63434 17.2125 8.65621 17.2125 8.68434ZM17.0719 8.62184C17.0719 8.64996 17.0531 8.67184 17.0281 8.67184C17.0031 8.67184 16.9844 8.64996 16.9844 8.62184C16.9844 8.59059 17.0063 8.57184 17.0281 8.57184C17.05 8.57184 17.0719 8.59371 17.0719 8.62184Z" fill="black" stroke="black" stroke-width="0.025" stroke-miterlimit="4.8"/>
<path d="M17.1468 8.64058C17.1468 8.67183 17.1281 8.69058 17.1031 8.69058C17.0781 8.69058 17.0593 8.6687 17.0593 8.64058C17.0593 8.61245 17.0781 8.59058 17.1031 8.59058C17.1281 8.59058 17.1468 8.61245 17.1468 8.64058Z" fill="black" stroke="black" stroke-width="0.025" stroke-miterlimit="4.8"/>
<path d="M17.0751 8.68745C17.0751 8.71558 17.0563 8.73745 17.0313 8.73745C17.0063 8.73745 16.9875 8.71558 16.9875 8.68745C16.9875 8.65933 17.0063 8.63745 17.0313 8.63745C17.0563 8.63745 17.0751 8.65933 17.0751 8.68745Z" fill="black" stroke="black" stroke-width="0.025" stroke-miterlimit="4.8"/>
<path d="M17.1406 8.72811C17.1406 8.75311 17.1218 8.77811 17.0968 8.77811C17.075 8.77811 17.0531 8.75624 17.0531 8.72811C17.0531 8.69686 17.075 8.67499 17.0968 8.67499C17.1218 8.67499 17.1406 8.69686 17.1406 8.72499V8.72811Z" fill="black" stroke="black" stroke-width="0.025" stroke-miterlimit="4.8"/>
<path d="M17.1625 8.17183C17.1625 8.17183 17.5969 7.56558 18.0625 8.1937C18.0625 8.1937 18.0656 8.2562 18.0219 8.32495L18.0125 8.27183L17.9813 8.2812L17.975 8.24995L17.925 8.24683L17.9406 8.17808L17.8875 8.22183L17.8937 8.17495L17.8312 8.23745L17.8406 8.10308L17.7719 8.2187L17.7812 8.14058L17.7563 8.17495L17.7437 8.12808L17.7219 8.17495L17.6906 8.15308V8.18433L17.6344 8.13745L17.6156 8.19995L17.5875 8.1312L17.5812 8.17808L17.5531 8.12495L17.55 8.18433L17.4594 8.1437L17.4781 8.19995L17.4375 8.1687L17.4438 8.19995L17.3844 8.18745L17.3906 8.22183L17.3281 8.20933L17.3375 8.24058L17.2531 8.2312L17.2844 8.26245L17.275 8.2812C17.275 8.2812 17.7437 8.12495 17.775 8.71245L17.6906 8.75308L17.7156 8.7062L17.6906 8.69058L17.6187 8.63745L17.6406 8.56245L17.6156 8.57183L17.6125 8.52808L17.6 8.53433L17.5719 8.4937L17.5656 8.50933L17.5469 8.4562L17.525 8.4937L17.5156 8.4062L17.4844 8.46245L17.4781 8.4312L17.4688 8.44995L17.4281 8.40308L17.4156 8.43433L17.4 8.40933L17.3906 8.44058L17.3469 8.39683V8.42808L17.3156 8.4062L17.3062 8.42183L17.2406 8.38745L17.2375 8.4187L17.2 8.38745L17.1906 8.4187C17.1906 8.4187 17.6156 8.66245 17.4844 9.0562L17.4594 9.1062L17.4531 8.97495L17.4125 9.0437L17.4406 8.89058L17.4125 8.92183L17.4094 8.85933L17.375 8.92183L17.3625 8.85308L17.3469 8.87183L17.3219 8.77183L17.3031 8.81245L17.2719 8.69995L17.2469 8.74683L17.2313 8.64995L17.2156 8.70933L17.1688 8.62183L17.1625 8.6562L17.1344 8.58745L17.1187 8.60933C17.1187 8.60933 17.0406 8.6062 17.0156 8.58745C16.9938 8.56558 16.9281 8.70308 16.9281 8.70308L16.9344 8.62183L16.9062 8.67808V8.62183L16.8563 8.78745L16.8438 8.6687L16.8188 8.77183L16.8062 8.74058L16.7969 8.7812L16.7812 8.76558L16.7687 8.81245L16.7437 8.7937V8.8562L16.7188 8.82495L16.7 8.9187L16.6875 8.8812V8.92183L16.6688 8.89995L16.65 8.9937L16.6187 8.95308V9.02183L16.6281 9.07183L16.5969 9.0562L16.6094 9.13745C16.6094 9.13745 16.4875 8.91245 16.6344 8.6937C16.7781 8.47495 16.975 8.41245 16.975 8.41245L16.9531 8.3937V8.37495L16.8344 8.43433V8.39995L16.8031 8.42495L16.7969 8.38745L16.7781 8.42183L16.775 8.4062L16.7437 8.44995L16.7313 8.38745L16.7125 8.46245L16.6938 8.40933L16.6531 8.5187V8.43745L16.6219 8.52495L16.6094 8.4312L16.5875 8.53745V8.4437L16.55 8.53745L16.5281 8.4437L16.5125 8.53745L16.4875 8.46558L16.4656 8.57183L16.4281 8.47808L16.4094 8.6187L16.3875 8.56245L16.3813 8.66558L16.3563 8.60308L16.3813 8.73433L16.35 8.68433L16.3594 8.76558L16.3094 8.67495V8.7812L16.2844 8.74683L16.2719 8.78745C16.2719 8.78745 16.2625 8.3812 16.5406 8.29995C16.8187 8.22183 16.9969 8.32495 16.9969 8.32495L16.8906 8.23745L16.9031 8.20933H16.8656L16.8813 8.17808L16.7969 8.1812L16.8219 8.14995L16.7594 8.15933V8.14058L16.7188 8.17183L16.7344 8.13433L16.6812 8.17183L16.6781 8.1187L16.6469 8.16245L16.6344 8.11558L16.5094 8.24058L16.5406 8.11245L16.5187 8.14058L16.5156 8.10933L16.4813 8.16558L16.4719 8.12808L16.4562 8.17495L16.4438 8.1187L16.4188 8.17495L16.3875 8.12495L16.3781 8.19058L16.3594 8.1562L16.3344 8.2062L16.3031 8.17495V8.2062L16.2406 8.17808L16.2531 8.22495L16.2062 8.18745L16.1938 8.24995L16.1688 8.2187L16.1469 8.29683L16.1281 8.22183L16.1094 8.2812C16.1094 8.2812 16.3531 7.64995 16.9719 8.06245C16.9719 8.06245 17.0406 8.12808 17.0562 8.17495C17.0719 8.22183 17.0594 8.1812 17.0594 8.1812L17.0469 7.74683L17.0719 7.93433L17.0875 7.87183L17.0844 7.96558L17.1469 7.8312C17.1469 7.8312 17.0719 8.0562 17.1 8.14058C17.1 8.14058 17.1281 7.87808 17.2219 7.84683L17.1344 8.03433L17.1625 8.0312L17.1437 8.0687H17.1656L17.1375 8.1312L17.1219 8.16245L17.1375 8.1937L17.1625 8.17183Z" fill="#00A651" stroke="black" stroke-width="0.025" stroke-miterlimit="4.8"/>
<path d="M17.0969 8.425L17.1094 8.4375C17.1094 8.4375 17.1501 8.39375 17.2157 8.45L17.2251 8.4375C17.1469 8.37188 17.1001 8.425 17.1001 8.425H17.0969ZM17.0782 8.2125V8.22812L17.1063 8.21562L17.0844 8.25313L17.1313 8.2375L17.0751 8.30937L17.0876 8.31875L17.1782 8.20312L17.1219 8.22188L17.1469 8.18125L17.0969 8.2L17.1063 8.14062H17.0907L17.0782 8.2125Z" fill="black"/>
<path d="M16.9969 8.21873L17.0156 8.25935L16.9844 8.24685L17.075 8.40935L17.0875 8.39373L17.0688 8.4406L17.0844 8.44685L17.1219 8.34685L17.1094 8.33747L17.0781 8.3781L17.0219 8.28123L17.0469 8.2906L17.0219 8.23748L17.0562 8.25623V8.19685H17.0406V8.2281L16.9844 8.19373L16.9969 8.21873ZM16.9375 8.41873L16.9438 8.43435C16.9688 8.42498 16.9906 8.42185 17.0063 8.4281C17.0219 8.43748 17.0281 8.45623 17.0281 8.45935L17.0438 8.4531C17.0438 8.4531 17.0375 8.42497 17.0125 8.4156C16.9938 8.40622 16.9687 8.40623 16.9375 8.41873ZM17.0094 8.58747L16.9937 8.49998H17.0125L17.025 8.58435L17.0094 8.58747ZM17.1281 8.57498L17.1063 8.50623L17.1219 8.5031L17.1437 8.5656L17.1281 8.57498ZM17.1719 8.62185L17.1562 8.55622L17.1719 8.5531L17.1906 8.61872L17.1719 8.62185Z" fill="black"/>
<path d="M13.8313 10.6313C13.8313 10.6313 13.7563 10.6 13.7219 10.625C13.6907 10.6469 13.6938 10.6844 13.6657 10.6812C13.6657 10.6812 13.7782 10.7063 13.8001 10.6781L13.8313 10.6406M13.8438 10.6625C13.8438 10.6625 13.7938 10.725 13.8126 10.7656C13.8282 10.8031 13.8657 10.8063 13.8563 10.8344C13.8563 10.8344 13.9032 10.7312 13.8813 10.7C13.8594 10.6687 13.8501 10.6656 13.8501 10.6656M13.7626 10.4844C13.7626 10.4844 13.6844 10.5094 13.6751 10.5469C13.6688 10.5906 13.6938 10.6125 13.6719 10.6313C13.6719 10.6313 13.7719 10.575 13.7688 10.5375V10.4906M13.8063 10.5125C13.8063 10.5125 13.8438 10.4406 13.8219 10.4062C13.7969 10.3687 13.7594 10.375 13.7657 10.3438C13.7657 10.3438 13.7344 10.4531 13.7657 10.4812L13.8001 10.5125M13.7313 10.4844C13.7313 10.4844 13.7313 10.4031 13.7001 10.3844C13.6626 10.3625 13.6313 10.3812 13.6219 10.3531C13.6219 10.3531 13.6438 10.4656 13.6782 10.4781L13.7251 10.4875M13.8626 10.6187C13.8626 10.6187 13.9469 10.5875 13.9563 10.6812C13.9626 10.775 13.9501 10.7437 13.9501 10.7437C13.9501 10.7437 13.9063 10.6438 13.8563 10.6281L13.8626 10.6187Z" fill="#00A651"/>
<path d="M13.8313 10.6313C13.8313 10.6313 13.7563 10.6 13.7219 10.625C13.6907 10.6469 13.6938 10.6844 13.6657 10.6812C13.6657 10.6812 13.7782 10.7063 13.8001 10.6781L13.8313 10.6406M13.8438 10.6625C13.8438 10.6625 13.7938 10.725 13.8126 10.7656C13.8282 10.8031 13.8657 10.8063 13.8563 10.8344C13.8563 10.8344 13.9032 10.7312 13.8813 10.7C13.8594 10.6687 13.8501 10.6656 13.8501 10.6656M13.7626 10.4844C13.7626 10.4844 13.6844 10.5094 13.6751 10.5469C13.6688 10.5906 13.6938 10.6125 13.6719 10.6313C13.6719 10.6313 13.7719 10.575 13.7688 10.5375V10.4906M13.8063 10.5125C13.8063 10.5125 13.8438 10.4406 13.8219 10.4062C13.7969 10.3687 13.7594 10.375 13.7657 10.3438C13.7657 10.3438 13.7344 10.4531 13.7657 10.4812L13.8001 10.5125M13.7313 10.4844C13.7313 10.4844 13.7313 10.4031 13.7001 10.3844C13.6626 10.3625 13.6313 10.3812 13.6219 10.3531C13.6219 10.3531 13.6438 10.4656 13.6782 10.4781L13.7251 10.4875M13.8626 10.6187C13.8626 10.6187 13.9469 10.5875 13.9563 10.6812C13.9626 10.775 13.9501 10.7437 13.9501 10.7437C13.9501 10.7437 13.9063 10.6438 13.8563 10.6281L13.8626 10.6187Z" stroke="black" stroke-width="0.025" stroke-miterlimit="4.8"/>
<path d="M13.8438 10.6656L13.8501 10.7343H13.8626L13.8532 10.6656L13.8844 10.5125H13.8719L13.8407 10.6656H13.8438Z" fill="black"/>
<path d="M13.7657 10.6437L13.7626 10.6531C13.8032 10.6687 13.8563 10.6219 13.8594 10.6219L13.8532 10.6125C13.8532 10.6125 13.8001 10.6531 13.7657 10.6437ZM13.8719 10.5531L13.6844 10.4594L13.6907 10.4437L13.8782 10.5375L13.8719 10.5531Z" fill="black"/>
<path d="M13.7344 10.5312L13.7219 10.5187L13.7594 10.4812L13.7719 10.4937L13.7344 10.5312ZM13.8 10.5125L13.7594 10.425L13.775 10.4187L13.8157 10.5062L13.8 10.5125ZM13.8563 10.6187V10.6375C13.9094 10.6343 13.9188 10.6687 13.9188 10.6687L13.9375 10.6625C13.9375 10.6531 13.9157 10.6156 13.8563 10.6187Z" fill="black"/>
<path d="M14.725 10.6562C14.7875 10.625 14.8 10.5 14.8 10.5C14.7844 10.5437 14.6688 10.5906 14.6688 10.5906C14.7532 10.5375 14.8563 10.2969 14.8563 10.2969C14.8313 10.3813 14.6063 10.4531 14.4625 10.5344C14.3188 10.6156 14.3938 10.8469 14.3938 10.8469C14.3532 10.8188 14.275 10.6969 14.2594 10.5875C14.2438 10.4781 14.2032 10.4344 14.1032 10.4219C14.0063 10.4094 13.9469 10.5219 13.9469 10.5219L13.8 10.5969L13.95 10.6031C13.95 10.6031 14.0563 10.6375 14.0563 10.7219C14.0563 10.8031 13.9625 11.1375 14.1188 11.325C14.2219 11.4531 14.6188 11.5281 14.6188 11.5281" fill="white"/>
<path d="M14.725 10.6562C14.7875 10.625 14.8 10.5 14.8 10.5C14.7844 10.5437 14.6688 10.5906 14.6688 10.5906C14.7532 10.5375 14.8563 10.2969 14.8563 10.2969C14.8313 10.3813 14.6063 10.4531 14.4625 10.5344C14.3188 10.6156 14.3938 10.8469 14.3938 10.8469C14.3532 10.8188 14.275 10.6969 14.2594 10.5875C14.2438 10.4781 14.2032 10.4344 14.1032 10.4219C14.0063 10.4094 13.9469 10.5219 13.9469 10.5219L13.8 10.5969L13.95 10.6031C13.95 10.6031 14.0563 10.6375 14.0563 10.7219C14.0563 10.8031 13.9625 11.1375 14.1188 11.325C14.2219 11.4531 14.6188 11.5281 14.6188 11.5281" stroke="black" stroke-width="0.035" stroke-miterlimit="4.8"/>
<path d="M14.4344 10.9156C14.4344 10.9156 14.4657 10.7656 14.5626 10.7718C14.6594 10.7781 14.6876 10.6593 14.7469 10.6437C14.8063 10.625 15.1063 10.5437 15.1376 10.4C15.1376 10.4 15.1094 10.6375 14.8344 10.7562C14.8344 10.7562 15.0563 10.6843 15.0844 10.6343C15.0844 10.6343 14.9844 10.8468 14.7438 10.8812C14.7438 10.8812 14.9688 10.8625 15.0001 10.8031C15.0001 10.8031 14.9001 10.9343 14.7344 10.9531C14.7344 10.9531 14.8907 11.0156 14.9282 10.9625C14.9282 10.9625 14.8438 11.0625 14.7407 11.0687L14.7719 11.075C14.7719 11.075 14.6719 11.1937 14.5626 11.1156C14.4532 11.0375 14.4501 11.1343 14.4501 11.1343" fill="white"/>
<path d="M14.4344 10.9156C14.4344 10.9156 14.4657 10.7656 14.5626 10.7718C14.6594 10.7781 14.6876 10.6593 14.7469 10.6437C14.8063 10.625 15.1063 10.5437 15.1376 10.4C15.1376 10.4 15.1094 10.6375 14.8344 10.7562C14.8344 10.7562 15.0563 10.6843 15.0844 10.6343C15.0844 10.6343 14.9844 10.8468 14.7438 10.8812C14.7438 10.8812 14.9688 10.8625 15.0001 10.8031C15.0001 10.8031 14.9001 10.9343 14.7344 10.9531C14.7344 10.9531 14.8907 11.0156 14.9282 10.9625C14.9282 10.9625 14.8438 11.0625 14.7407 11.0687L14.7719 11.075C14.7719 11.075 14.6719 11.1937 14.5626 11.1156C14.4532 11.0375 14.4501 11.1343 14.4501 11.1343" stroke="black" stroke-width="0.035" stroke-miterlimit="4.8"/>
<path d="M14.6563 11.1406C14.6563 11.1406 14.7844 11.3531 14.7969 11.4656C14.7969 11.4656 15.0407 11.7312 15.1313 11.7469C15.1313 11.7469 15.0875 11.7656 15.0063 11.7C15.0063 11.7 15.075 11.7688 15.0875 11.7719C15.1 11.7719 15.0344 11.7656 15.025 11.7469C15.0368 11.7649 15.0516 11.7808 15.0688 11.7937L15.0532 11.7875C15.0532 11.7875 15.0219 11.7844 15.0031 11.7719C14.9875 11.7594 15 11.8031 15 11.8031C15 11.8031 14.9625 11.7938 14.95 11.7812C14.9375 11.7687 14.9531 11.8094 14.9531 11.8094L14.9219 11.8L14.8969 11.8156C14.8969 11.8156 14.8969 11.8313 14.8813 11.8156C14.8657 11.8063 14.8375 11.8156 14.8375 11.8156C14.8375 11.8156 14.8188 11.8344 14.8063 11.8219C14.7969 11.8094 14.7594 11.8719 14.7594 11.8719L14.6031 11.4875" fill="white"/>
<path d="M14.6563 11.1406C14.6563 11.1406 14.7844 11.3531 14.7969 11.4656C14.7969 11.4656 15.0407 11.7312 15.1313 11.7469C15.1313 11.7469 15.0875 11.7656 15.0063 11.7C15.0063 11.7 15.075 11.7688 15.0875 11.7719C15.1 11.7719 15.0344 11.7656 15.025 11.7469C15.0368 11.7649 15.0516 11.7808 15.0688 11.7937L15.0532 11.7875C15.0532 11.7875 15.0219 11.7844 15.0031 11.7719C14.9875 11.7594 15 11.8031 15 11.8031C15 11.8031 14.9625 11.7938 14.95 11.7812C14.9375 11.7687 14.9531 11.8094 14.9531 11.8094L14.9219 11.8L14.8969 11.8156C14.8969 11.8156 14.8969 11.8313 14.8813 11.8156C14.8657 11.8063 14.8375 11.8156 14.8375 11.8156C14.8375 11.8156 14.8188 11.8344 14.8063 11.8219C14.7969 11.8094 14.7594 11.8719 14.7594 11.8719L14.6031 11.4875" stroke="black" stroke-width="0.035" stroke-miterlimit="4.8"/>
<path d="M14.8094 11.8344L14.6094 11.4531L14.6281 11.4406L14.8281 11.825L14.8094 11.8344ZM14.9844 11.8094L14.6406 11.425L14.6594 11.4094L15.0031 11.7937L14.9844 11.8094ZM15.0625 11.7781L14.6719 11.4062L14.6875 11.3906L15.0781 11.7563L15.0625 11.7781Z" fill="black"/>
<path d="M14.0796 10.5432C14.0796 10.5432 14.0547 10.4975 14.0318 10.5162C14.0111 10.5328 13.9986 10.5369 13.9944 10.5349C13.9944 10.5349 14.0152 10.5349 14.0298 10.5245C14.0422 10.512 14.063 10.5182 14.0796 10.5452V10.5432ZM13.9425 10.5224L13.9571 10.5515L13.9404 10.5993L13.9529 10.6034L13.9674 10.5515L13.9529 10.5182L13.9425 10.5224Z" fill="black"/>
<path d="M14.0755 10.5369C14.0755 10.5369 14.0547 10.5577 14.0298 10.5535L14.0028 10.5473H14.0402C14.0547 10.5473 14.0734 10.5411 14.0755 10.5369Z" fill="black"/>
<path d="M14.0693 10.5411C14.0693 10.5411 14.0443 10.5162 14.0277 10.5245C14.0277 10.5245 14.0568 10.5141 14.0734 10.539L14.0693 10.5411Z" fill="black"/>
<path d="M14.0651 10.5369C14.0651 10.5369 14.0381 10.5556 14.009 10.5369L14.007 10.5328H14.0111C14.0111 10.5328 14.0464 10.5473 14.0651 10.5369Z" fill="black"/>
<path d="M14.0422 10.5411C14.0468 10.5411 14.0506 10.5374 14.0506 10.5328C14.0506 10.5282 14.0468 10.5245 14.0422 10.5245C14.0377 10.5245 14.0339 10.5282 14.0339 10.5328C14.0339 10.5374 14.0377 10.5411 14.0422 10.5411Z" fill="black"/>
<path d="M14.0625 11.2375C14.0625 11.2375 14.0407 11.275 14.0532 11.3C14.0625 11.3219 14.1157 11.3312 14.1188 11.3625C14.125 11.3937 14.1438 11.3937 14.1657 11.3937L14.1938 11.3844C14.1938 11.3844 14.0969 11.3344 14.0688 11.25L14.0625 11.2375Z" fill="black"/>
<path d="M17.1688 10.4624C17.1688 10.4624 17.3438 10.2312 17.5001 10.2906C17.6563 10.3531 17.7532 10.3843 17.7532 10.3843C17.7532 10.3843 17.7563 10.5374 17.675 10.5374C17.5938 10.5374 17.5126 10.3812 17.4376 10.4281C17.3808 10.4599 17.3326 10.5049 17.2969 10.5593C17.2938 10.5812 17.1001 10.5843 17.1688 10.4624Z" fill="#964B36" stroke="black" stroke-width="0.015" stroke-miterlimit="4.8"/>
<path d="M16.5063 11.575C16.5063 11.575 16.4563 11.625 16.4782 11.6375C16.5001 11.65 16.5438 11.6375 16.5438 11.6187C16.5438 11.6 16.5126 11.5687 16.5063 11.575Z" fill="#964B36" stroke="black" stroke-width="0.025" stroke-miterlimit="4.8"/>
<path d="M16.4688 11.6249C16.4688 11.6249 16.375 11.5718 16.3063 11.6937C16.2344 11.8124 16.1782 12.0093 16.1375 12.0374C16.0969 12.0624 16.5375 11.8437 16.5438 11.7499C16.5438 11.7499 16.5719 11.6312 16.525 11.6343C16.4782 11.6343 16.475 11.6406 16.4657 11.6218L16.4688 11.6249Z" fill="#964B36" stroke="black" stroke-width="0.025" stroke-miterlimit="4.8"/>
<path d="M16.4781 11.6375C16.4781 11.6375 16.3844 11.6593 16.3656 11.7906C16.3469 11.9218 16.2187 11.9875 16.2094 11.9937M17.7531 10.3812C17.7531 10.3812 17.6156 10.4312 17.6375 10.5281Z" fill="#964B36"/>
<path d="M16.4781 11.6375C16.4781 11.6375 16.3844 11.6593 16.3656 11.7906C16.3469 11.9218 16.2187 11.9875 16.2094 11.9937M17.7531 10.3812C17.7531 10.3812 17.6156 10.4312 17.6375 10.5281" stroke="black" stroke-width="0.015" stroke-miterlimit="4.8"/>
<path d="M16.6781 10.6656C16.6781 10.6656 16.6843 10.3343 16.9562 10.3468C17.0062 10.3531 16.9812 10.4125 16.9812 10.4125C16.9812 10.4125 17.0437 10.3718 17.0687 10.4375C17.0687 10.4375 17.1531 10.4 17.1625 10.4843C17.1625 10.4843 17.2562 10.4718 17.2437 10.5468C17.2437 10.5468 17.3062 10.5312 17.3062 10.5843C17.3062 10.5843 17.3781 10.5562 17.3687 10.6312C17.3687 10.6312 17.45 10.5781 17.4406 10.675C17.4406 10.675 17.5218 10.6156 17.55 10.7125C17.5812 10.8125 17.4687 11.0187 17.3594 11.0718" fill="#FFF200"/>
<path d="M16.6781 10.6656C16.6781 10.6656 16.6843 10.3343 16.9562 10.3468C17.0062 10.3531 16.9812 10.4125 16.9812 10.4125C16.9812 10.4125 17.0437 10.3718 17.0687 10.4375C17.0687 10.4375 17.1531 10.4 17.1625 10.4843C17.1625 10.4843 17.2562 10.4718 17.2437 10.5468C17.2437 10.5468 17.3062 10.5312 17.3062 10.5843C17.3062 10.5843 17.3781 10.5562 17.3687 10.6312C17.3687 10.6312 17.45 10.5781 17.4406 10.675C17.4406 10.675 17.5218 10.6156 17.55 10.7125C17.5812 10.8125 17.4687 11.0187 17.3594 11.0718" stroke="black" stroke-width="0.015" stroke-miterlimit="4.8"/>
<path d="M17.4344 10.6875C17.4344 10.6875 17.4688 10.9437 17.325 11.0406L17.3281 11.0469C17.4813 10.9531 17.4438 10.6875 17.4438 10.6844H17.4344V10.6875ZM17.2563 10.9687L17.2625 10.975C17.3563 10.8844 17.3781 10.6437 17.3781 10.6312H17.3687C17.3687 10.6312 17.3469 10.8812 17.2563 10.9687ZM17.1719 10.9094H17.1812C17.2003 10.7941 17.244 10.6843 17.3094 10.5875L17.3031 10.5844C17.3031 10.5844 17.1844 10.7562 17.1719 10.9094ZM17.1031 10.8656H17.1125C17.1281 10.6875 17.25 10.5531 17.25 10.55L17.2437 10.5437C17.2437 10.5437 17.1187 10.6844 17.1031 10.8656ZM17.0094 10.8031H17.0187C17.0281 10.5937 17.1688 10.4906 17.1688 10.4906L17.1625 10.4812C17.1625 10.4812 17.0188 10.5875 17.0063 10.8062L17.0094 10.8031ZM16.9219 10.7531H16.9312C16.925 10.5594 17.0719 10.4406 17.075 10.4406L17.0688 10.4344C17.0688 10.4344 16.9125 10.5531 16.9219 10.7531ZM16.7656 10.6812H16.775C16.7823 10.622 16.8061 10.5659 16.8436 10.5195C16.8812 10.4731 16.931 10.4382 16.9875 10.4187V10.4094C16.9286 10.429 16.8764 10.465 16.8372 10.5131C16.7979 10.5613 16.7731 10.6196 16.7656 10.6812Z" fill="black"/>
<path d="M16.5188 11.0687C16.5188 11.0687 16.4719 10.7594 16.6563 10.6625C16.6563 10.6625 16.6906 10.6562 16.7094 10.7C16.7094 10.7 16.8063 10.6594 16.8094 10.7406C16.8094 10.7406 16.8594 10.7031 16.8719 10.7562C16.8719 10.7562 16.975 10.7344 16.9563 10.8125C16.9563 10.8125 17.0438 10.7875 17.0344 10.8625C17.0344 10.8625 17.1219 10.8312 17.1094 10.8937C17.1094 10.8937 17.2031 10.875 17.1781 10.95C17.1781 10.95 17.2938 10.9375 17.2594 11.0156C17.2594 11.0156 17.3438 10.9937 17.3219 11.0594C17.3219 11.0594 17.4344 11.0812 17.3844 11.1531C17.3025 11.2508 17.1971 11.326 17.0781 11.3719" fill="#00A651"/>
<path d="M16.5188 11.0687C16.5188 11.0687 16.4719 10.7594 16.6563 10.6625C16.6563 10.6625 16.6906 10.6562 16.7094 10.7C16.7094 10.7 16.8063 10.6594 16.8094 10.7406C16.8094 10.7406 16.8594 10.7031 16.8719 10.7562C16.8719 10.7562 16.975 10.7344 16.9563 10.8125C16.9563 10.8125 17.0438 10.7875 17.0344 10.8625C17.0344 10.8625 17.1219 10.8312 17.1094 10.8937C17.1094 10.8937 17.2031 10.875 17.1781 10.95C17.1781 10.95 17.2938 10.9375 17.2594 11.0156C17.2594 11.0156 17.3438 10.9937 17.3219 11.0594C17.3219 11.0594 17.4344 11.0812 17.3844 11.1531C17.3025 11.2508 17.1971 11.326 17.0781 11.3719" stroke="black" stroke-width="0.015" stroke-miterlimit="4.8"/>
<path d="M16.4187 11.3781C16.4187 11.3781 16.3437 11.1219 16.4875 11.0562C16.4875 11.0562 16.5156 11.05 16.5187 11.075C16.5187 11.075 16.55 11.0344 16.575 11.0719C16.575 11.0719 16.6469 11.0375 16.6656 11.0906C16.6656 11.0906 16.7125 11.05 16.7375 11.1094C16.7375 11.1094 16.7844 11.0906 16.7844 11.1406C16.7844 11.1406 16.8469 11.1094 16.8469 11.1719C16.8469 11.1719 16.9094 11.1469 16.8937 11.2094C16.8937 11.2094 16.9875 11.225 16.9594 11.2687C16.9594 11.2687 17.0437 11.2906 17.0125 11.325C17.0125 11.325 17.1 11.3156 17.0531 11.375C17.0531 11.375 17.1219 11.3531 17.0844 11.4281C17.0437 11.5031 16.9219 11.5844 16.8344 11.5969" fill="#00A651"/>
<path d="M16.4187 11.3781C16.4187 11.3781 16.3437 11.1219 16.4875 11.0562C16.4875 11.0562 16.5156 11.05 16.5187 11.075C16.5187 11.075 16.55 11.0344 16.575 11.0719C16.575 11.0719 16.6469 11.0375 16.6656 11.0906C16.6656 11.0906 16.7125 11.05 16.7375 11.1094C16.7375 11.1094 16.7844 11.0906 16.7844 11.1406C16.7844 11.1406 16.8469 11.1094 16.8469 11.1719C16.8469 11.1719 16.9094 11.1469 16.8937 11.2094C16.8937 11.2094 16.9875 11.225 16.9594 11.2687C16.9594 11.2687 17.0437 11.2906 17.0125 11.325C17.0125 11.325 17.1 11.3156 17.0531 11.375C17.0531 11.375 17.1219 11.3531 17.0844 11.4281C17.0437 11.5031 16.9219 11.5844 16.8344 11.5969" stroke="black" stroke-width="0.015" stroke-miterlimit="4.8"/>
<path d="M16.5094 11.5812C16.5094 11.5812 16.35 11.425 16.425 11.3812C16.425 11.3812 16.4562 11.3906 16.4719 11.425C16.4719 11.425 16.5094 11.3687 16.5344 11.425C16.5344 11.425 16.5906 11.4062 16.5906 11.4468L16.6344 11.4781C16.6344 11.4781 16.6875 11.475 16.6781 11.5093C16.6781 11.5093 16.7375 11.5 16.7344 11.5312C16.7344 11.5312 16.7844 11.5344 16.7812 11.5687C16.7812 11.5687 16.8687 11.5844 16.8281 11.6281C16.8281 11.6281 16.6781 11.6594 16.5687 11.6156C16.5687 11.6156 16.5156 11.5969 16.5094 11.5812Z" fill="#00A651" stroke="black" stroke-width="0.015" stroke-miterlimit="4.8"/>
<path d="M17.0595 11.325V11.3343C17.1639 11.2597 17.2548 11.1678 17.3282 11.0625L17.3188 11.0562C17.3188 11.0593 17.1501 11.2906 17.0595 11.325ZM17.0032 11.2843L17.0095 11.2937C17.0907 11.2468 17.2563 11.0281 17.2595 11.0187L17.2563 11.0125C17.2532 11.0156 17.0845 11.2375 17.0063 11.2843H17.0032ZM16.9563 11.2656L16.9626 11.2718C17.0492 11.1745 17.1227 11.0663 17.1813 10.95L17.1751 10.9468C17.1751 10.9468 17.0438 11.1937 16.9563 11.2656ZM16.9157 11.2093H16.9251C16.9407 11.0906 17.1126 10.9 17.1126 10.8968L17.1032 10.8937C17.097 10.9 16.9313 11.0875 16.9157 11.2093ZM16.5751 11.0625H16.5845C16.572 10.8906 16.7126 10.7031 16.7157 10.7031L16.7063 10.6968C16.7063 10.6968 16.5595 10.8906 16.5751 11.0625ZM16.6657 11.0781H16.6751C16.6501 10.9406 16.8126 10.7468 16.8126 10.7437L16.8063 10.7375C16.8001 10.7468 16.6407 10.9375 16.6657 11.0781ZM16.8032 11.1281H16.8126C16.8063 10.9718 16.9563 10.8156 16.9595 10.8156L16.9532 10.8062C16.9532 10.8093 16.797 10.9687 16.8032 11.1281ZM16.4751 11.4093H16.4845C16.4282 11.2625 16.522 11.0781 16.5251 11.0781L16.5157 11.0718C16.5157 11.0718 16.4188 11.2625 16.4751 11.4125V11.4093ZM16.5376 11.4218L16.547 11.4187C16.497 11.2718 16.5782 11.075 16.5782 11.075L16.572 11.0687C16.572 11.0687 16.4876 11.2718 16.5376 11.4218ZM16.797 11.5687V11.575C16.9532 11.5218 17.0563 11.3781 17.0563 11.3781L17.047 11.3718C17.047 11.3718 16.947 11.5125 16.797 11.5687ZM16.7657 11.5343V11.5437C16.8907 11.4875 17.0063 11.3312 17.0063 11.3312L17.0001 11.325C17.0001 11.325 16.8845 11.4812 16.7657 11.5343ZM16.7345 11.5218L16.7407 11.5312C16.8345 11.4593 16.9595 11.2812 16.9595 11.2812L16.9532 11.275C16.9532 11.275 16.8282 11.4531 16.7345 11.5218ZM16.5782 11.4312H16.5907C16.5855 11.3127 16.6125 11.195 16.6688 11.0906L16.6595 11.0875C16.6595 11.0875 16.5595 11.275 16.5813 11.4312H16.5782ZM16.647 11.475L16.6532 11.4812C16.7532 11.3906 16.7876 11.15 16.7876 11.1375H16.7782C16.7782 11.1375 16.747 11.3875 16.647 11.475ZM16.7157 11.5L16.722 11.5093C16.8128 11.433 16.8755 11.3285 16.9001 11.2125H16.8907C16.8907 11.2125 16.8532 11.4 16.7157 11.5031V11.5ZM16.7313 11.0812V11.1093L16.6251 11.4531L16.6345 11.4562L16.7407 11.1125C16.7251 10.9437 16.872 10.7593 16.8751 10.7593L16.8657 10.7531C16.8657 10.7531 16.7313 10.9187 16.7313 11.0812Z" fill="black"/>
<path d="M16.8438 11.1656C16.8438 11.1719 16.8094 11.4062 16.6813 11.4937L16.6876 11.5031C16.8188 11.4125 16.8501 11.1812 16.8501 11.1687C16.9063 11.1031 17.0376 10.8656 17.0376 10.8656L17.0313 10.8594C17.0313 10.8594 16.9001 11.0969 16.8438 11.1656ZM16.4688 11.425C16.4688 11.4281 16.4876 11.55 16.5126 11.5875L16.5219 11.5844C16.4969 11.5438 16.4751 11.425 16.4751 11.4219L16.4657 11.425H16.4688ZM16.5282 11.425L16.5251 11.5906H16.5344V11.425H16.5282Z" fill="black"/>
<path d="M16.5312 11.5937L16.5406 11.5968C16.5812 11.5093 16.5938 11.4468 16.5938 11.4468H16.5844C16.5844 11.4468 16.5719 11.5062 16.5312 11.5937ZM16.5406 11.5968L16.5469 11.6062C16.5933 11.5785 16.627 11.5336 16.6406 11.4812H16.6313C16.6313 11.4812 16.6125 11.5562 16.5406 11.5968ZM16.5562 11.6031V11.6125C16.6312 11.6062 16.6812 11.5156 16.6812 11.5093H16.675C16.675 11.5093 16.625 11.5968 16.5562 11.6031Z" fill="black"/>
<path d="M16.5625 11.6094V11.6187C16.6844 11.6094 16.7375 11.5375 16.7375 11.5344L16.7313 11.5312C16.7313 11.5312 16.6781 11.6 16.5625 11.6094Z" fill="black"/>
<path d="M16.5719 11.6094V11.6187C16.575 11.6187 16.7281 11.6531 16.7813 11.575L16.7719 11.5687C16.725 11.6437 16.5719 11.6125 16.5719 11.6094Z" fill="black"/>
<path d="M13.1532 6.03748V10.3C13.1532 11.6937 15.6719 12.5187 15.6719 12.5187C15.6719 12.5187 18.1876 11.6937 18.1876 10.3V6.03748H13.1532Z" stroke="black" stroke-width="0.14" stroke-miterlimit="4.8"/>
<path d="M0 0H10V7.5H0V0Z" fill="#012169"/>
<path d="M1.17188 0L4.98438 2.82812L8.78125 0H10V0.96875L6.25 3.76562L10 6.54688V7.5H8.75L5 4.70312L1.26562 7.5H0V6.5625L3.73438 3.78125L0 1V0H1.17188Z" fill="white"/>
<path d="M6.625 4.39062L10 6.875V7.5L5.76562 4.39062H6.625ZM3.75 4.70312L3.84375 5.25L0.84375 7.5H0L3.75 4.70312ZM10 0V0.046875L6.10938 2.98438L6.14062 2.29688L9.21875 0H10ZM0 0L3.73438 2.75H2.79688L0 0.65625V0Z" fill="#C8102E"/>
<path d="M3.76562 0V7.5H6.26562V0H3.76562ZM0 2.5V5H10V2.5H0Z" fill="white"/>
<path d="M0 3.01562V4.51562H10V3.01562H0ZM4.26562 0V7.5H5.76562V0H4.26562Z" fill="#C8102E"/>
</g>
<defs>
<clipPath id="clip0_14_450">
<rect width="20" height="15" fill="white"/>
</clipPath>
</defs>
</svg>
