<svg width="20" height="15" viewBox="0 0 20 15" fill="none" xmlns="http://www.w3.org/2000/svg">
<mask id="mask0_1825_41643" style="mask-type:luminance" maskUnits="userSpaceOnUse" x="0" y="0" width="20" height="15">
<rect width="20" height="15" fill="white"/>
</mask>
<g mask="url(#mask0_1825_41643)">
<path fill-rule="evenodd" clip-rule="evenodd" d="M0 0V15H20V0H0Z" fill="#2E42A5"/>
<mask id="mask1_1825_41643" style="mask-type:luminance" maskUnits="userSpaceOnUse" x="0" y="0" width="20" height="15">
<path fill-rule="evenodd" clip-rule="evenodd" d="M0 0V15H20V0H0Z" fill="white"/>
</mask>
<g mask="url(#mask1_1825_41643)">
<rect width="11" height="9" fill="#2E42A5"/>
<mask id="mask2_1825_41643" style="mask-type:luminance" maskUnits="userSpaceOnUse" x="0" y="0" width="11" height="9">
<rect width="11" height="9" fill="white"/>
</mask>
<g mask="url(#mask2_1825_41643)">
<path d="M-1.25293 8.12482L1.22266 9.21057L11.3059 1.1804L12.6117 -0.43306L9.96444 -0.795949L5.85172 2.66448L2.54141 4.996L-1.25293 8.12482Z" fill="#F7FCFF"/>
<path d="M-0.914062 8.88555L0.347138 9.51562L12.1428 -0.582947H10.3719L-0.914062 8.88555Z" fill="#F50100"/>
<path d="M12.5024 8.12493L10.3054 9.52063L-0.0564003 1.1805L-1.36222 -0.432954L1.28507 -0.795844L5.39779 2.66459L8.7081 4.99611L12.5024 8.12493Z" fill="#F7FCFF"/>
<path d="M12.418 8.67082L11.1568 9.3009L6.13406 4.97718L4.64494 4.4941L-1.48787 -0.427482H0.283002L6.41237 4.37728L8.04046 4.95655L12.418 8.67082Z" fill="#F50100"/>
<mask id="path-10-outside-1_1825_41643" maskUnits="userSpaceOnUse" x="-1" y="-1" width="13" height="11" fill="black">
<rect fill="white" x="-1" y="-1" width="13" height="11"/>
<path fill-rule="evenodd" clip-rule="evenodd" d="M6 0H5V4H0V5H5V9H6V5H11V4H6V0Z"/>
</mask>
<path fill-rule="evenodd" clip-rule="evenodd" d="M6 0H5V4H0V5H5V9H6V5H11V4H6V0Z" fill="#F50100"/>
<path d="M5 0V-0.9375H4.0625V0H5ZM6 0H6.9375V-0.9375H6V0ZM5 4V4.9375H5.9375V4H5ZM0 4V3.0625H-0.9375V4H0ZM0 5H-0.9375V5.9375H0V5ZM5 5H5.9375V4.0625H5V5ZM5 9H4.0625V9.9375H5V9ZM6 9V9.9375H6.9375V9H6ZM6 5V4.0625H5.0625V5H6ZM11 5V5.9375H11.9375V5H11ZM11 4H11.9375V3.0625H11V4ZM6 4H5.0625V4.9375H6V4ZM5 0.9375H6V-0.9375H5V0.9375ZM5.9375 4V0H4.0625V4H5.9375ZM0 4.9375H5V3.0625H0V4.9375ZM0.9375 5V4H-0.9375V5H0.9375ZM5 4.0625H0V5.9375H5V4.0625ZM5.9375 9V5H4.0625V9H5.9375ZM6 8.0625H5V9.9375H6V8.0625ZM5.0625 5V9H6.9375V5H5.0625ZM11 4.0625H6V5.9375H11V4.0625ZM10.0625 4V5H11.9375V4H10.0625ZM6 4.9375H11V3.0625H6V4.9375ZM5.0625 0V4H6.9375V0H5.0625Z" fill="#F7FCFF" mask="url(#path-10-outside-1_1825_41643)"/>
</g>
<path d="M16.2189 12.2274C15.5908 12.2274 15.1669 12.0794 14.8699 11.8327C14.5708 11.5841 14.3685 11.209 14.2371 10.6921C14.1054 10.1737 14.0506 9.5353 14.0302 8.7856C14.0158 8.259 14.0184 7.68828 14.0213 7.07444C14.0221 6.89349 14.023 6.7088 14.0234 6.52039H18.476C18.555 7.99475 18.5766 9.4109 18.2921 10.4731C18.1435 11.0281 17.9168 11.4632 17.5918 11.7592C17.272 12.0504 16.8344 12.2274 16.2189 12.2274Z" fill="#6DC2FF" stroke="#F7FCFF" stroke-width="0.5"/>
<mask id="mask3_1825_41643" style="mask-type:luminance" maskUnits="userSpaceOnUse" x="13" y="6" width="6" height="7">
<path d="M16.2189 12.2274C15.5908 12.2274 15.1669 12.0794 14.8699 11.8327C14.5708 11.5841 14.3685 11.209 14.2371 10.6921C14.1054 10.1737 14.0506 9.5353 14.0302 8.7856C14.0158 8.259 14.0184 7.68828 14.0213 7.07444C14.0221 6.89349 14.023 6.7088 14.0234 6.52039H18.476C18.555 7.99475 18.5766 9.4109 18.2921 10.4731C18.1435 11.0281 17.9168 11.4632 17.5918 11.7592C17.272 12.0504 16.8344 12.2274 16.2189 12.2274Z" fill="white" stroke="white" stroke-width="0.5"/>
</mask>
<g mask="url(#mask3_1825_41643)">
<path fill-rule="evenodd" clip-rule="evenodd" d="M15.3264 8.49183C15.3264 8.49183 15.0797 8.3094 14.9739 8.01383C14.8682 7.71826 14.6589 6.93142 14.6589 6.8631C14.6589 6.79477 14.3804 6.8631 14.3804 6.8631C14.3804 6.8631 14.3843 6.53036 14.4894 6.53036C14.5945 6.53036 14.5984 6.22184 14.8534 6.29953C15.1084 6.37723 15.3089 6.66215 15.5687 6.66215C15.8286 6.66215 16.9148 6.74501 17.0894 6.74501C17.264 6.74501 17.7243 7.11355 17.7243 7.38941C17.7243 7.66527 17.5988 8.07627 17.5001 8.07627C17.4013 8.07627 17.2771 8.31541 17.0894 8.23648C16.9018 8.15755 16.4537 7.995 16.0523 8.07627C15.651 8.15755 15.5687 8.10646 15.5687 8.23648C15.5687 8.3665 15.3264 8.49183 15.3264 8.49183Z" fill="#E1E5E8"/>
<path fill-rule="evenodd" clip-rule="evenodd" d="M14.75 8.29919H17.9722L17.4172 9.01641H15.1405L14.75 8.29919Z" fill="#49801E"/>
<path d="M14.7085 11.4347C14.7085 11.4347 15.2654 11.6339 15.4981 11.6097C15.7559 11.5829 15.9841 11.2891 16.1563 11.2891C16.3283 11.2891 16.6593 11.583 16.9165 11.6097C17.1495 11.6339 17.6041 11.4347 17.6041 11.4347" stroke="white" stroke-width="0.666667"/>
<path d="M14.0967 10.5852C14.2892 10.4221 14.7083 10.4102 14.7083 10.4102C14.7083 10.4102 15.2651 10.6094 15.4979 10.5852C15.7556 10.5583 15.9838 10.2645 16.1561 10.2645C16.328 10.2645 16.6591 10.5584 16.9162 10.5852C17.1493 10.6094 17.6039 10.4102 17.6039 10.4102C17.6039 10.4102 17.858 10.1245 18.177 10.4262" stroke="white" stroke-width="0.666667"/>
<path d="M14.0382 9.70611L13.6167 9.18958C13.782 9.05474 14.0594 8.92184 14.4645 8.77496L14.6611 8.76548C15.0811 8.8734 15.3618 8.92017 15.4647 8.90987C15.4986 8.90646 15.5553 8.87891 15.6588 8.81022C15.9529 8.61514 15.9815 8.59924 16.1561 8.59924C16.3157 8.59924 16.3486 8.61455 16.6822 8.7947C16.7441 8.82789 16.7674 8.83996 16.8009 8.85605C16.8713 8.88986 16.9217 8.90709 16.9494 8.90986C17.0296 8.91789 17.1908 8.88048 17.4165 8.78967C17.7099 8.52293 18.0817 8.55056 18.4015 8.84192C18.6148 9.03628 18.7861 9.19329 18.9153 9.31308L18.4622 9.80207C18.3345 9.68374 18.1646 9.52792 17.9525 9.33473C17.8682 9.25791 17.8863 9.2584 17.8489 9.299L17.7336 9.38001C17.3834 9.52785 17.107 9.59563 16.883 9.57321C16.7628 9.56118 16.6465 9.52147 16.5124 9.45705C16.4674 9.43548 16.4353 9.41882 16.3654 9.38129C16.2044 9.29434 16.1432 9.26591 16.1561 9.26591C16.1841 9.26591 16.1452 9.28758 16.0273 9.36578C15.8377 9.49158 15.7057 9.55571 15.5311 9.57321C15.3381 9.59256 15.0371 9.54601 14.5968 9.43684C14.3108 9.54499 14.1208 9.63866 14.0382 9.70611Z" fill="white"/>
</g>
<path d="M14.352 11.4961C14.352 11.4961 14.967 12.0851 14.5956 12.4842C14.2243 12.8834 13.8838 12.6515 13.8838 12.6515" stroke="#B85F3C" stroke-width="0.625"/>
<path d="M18.1563 11.4961C18.1563 11.4961 17.5413 12.0851 17.9127 12.4842C18.284 12.8834 18.6245 12.6515 18.6245 12.6515" stroke="#B85F3C" stroke-width="0.625"/>
<path d="M13.9502 11.9707C13.9502 11.9707 15.0097 12.9832 16.3122 12.9832C17.6146 12.9832 18.6627 12.2097 18.6627 12.2097" stroke="#CB8B73" stroke-width="0.625"/>
</g>
</g>
</svg>
