<svg width="20" height="15" viewBox="0 0 20 15" fill="none" xmlns="http://www.w3.org/2000/svg">
<g clip-path="url(#clip0_14_420)">
<mask id="mask0_14_420" style="mask-type:luminance" maskUnits="userSpaceOnUse" x="-1" y="0" width="22" height="16">
<path d="M-0.00378418 0H20.0476V15.04H-0.00378418V0Z" fill="white"/>
</mask>
<g mask="url(#mask0_14_420)">
<path fill-rule="evenodd" clip-rule="evenodd" d="M-5.01807 0H25.0619V15.04H-5.01807V0Z" fill="#6797D6"/>
<path fill-rule="evenodd" clip-rule="evenodd" d="M10.0161 3.61315L9.06432 4.26528L9.42857 3.21072L8.47388 2.55859H9.65182L10.0161 1.50403L10.3803 2.56153H11.5553L10.6036 3.21072L10.9678 4.26528M10.0161 11.4563L9.06432 10.8042L9.42857 11.8617L8.47388 12.5108H9.65182L10.0161 13.5654L10.3803 12.5079L11.5553 12.5108L10.6036 11.8587L10.9678 10.8042M5.43357 8.0899L4.71388 8.98878L4.755 7.87253L3.65344 7.52884L4.78144 7.18515L4.81963 6.0689L5.47469 6.97365L6.60269 6.62703L5.88007 7.52884L6.53807 8.43065M14.5927 8.08697L15.3153 8.98878L15.2742 7.87253L16.3758 7.52884L15.2478 7.18515L15.2096 6.0689L14.5545 6.97365L13.4265 6.62703L14.1491 7.52884L13.4911 8.43065" fill="white"/>
</g>
</g>
<defs>
<clipPath id="clip0_14_420">
<rect width="20" height="15" fill="white"/>
</clipPath>
</defs>
</svg>
