<svg width="20" height="15" viewBox="0 0 20 15" fill="none" xmlns="http://www.w3.org/2000/svg">
<g clip-path="url(#clip0_14_512)">
<path d="M0 7.5H20V15H0V7.5Z" fill="#00AB39"/>
<path d="M0 0H20V7.5H0V0Z" fill="white"/>
<path d="M13.0906 2.21252C11.8528 2.87867 10.6828 3.66362 9.5969 4.55627C9.06565 5.0219 9.21565 5.39065 9.19377 5.80627C9.21252 6.08752 9.1344 6.35002 8.96252 6.50627L7.78127 6.74377L7.66877 6.41877C7.70315 6.25002 7.84065 6.16877 8.1344 6.2719C8.15627 6.0594 7.98127 5.9719 7.78127 5.8969C7.7094 5.84065 7.62502 5.80315 7.6344 5.61565C7.60315 5.19377 8.27815 5.6469 8.2844 5.6469C8.29065 5.6469 8.2594 5.21877 7.95002 5.1344C7.78127 5.07502 7.7094 4.8969 7.77502 4.76565C7.9094 4.49377 8.16565 4.7844 8.3594 4.7969C8.35315 4.61877 8.30315 4.49377 8.15002 4.35315C8.06877 4.30002 7.86877 4.26252 7.86252 4.17815C7.8594 4.06565 8.05002 4.01565 8.31565 4.0469C8.2594 3.88752 8.08127 3.7844 7.83752 3.7094L7.69377 3.45627C7.62502 3.33127 7.59377 3.32502 7.75315 3.08752C7.89377 2.99377 8.0844 2.86252 8.22815 2.7719L8.0719 2.75315C8.09065 2.58127 8.09377 2.5219 8.1344 2.23752C7.97815 2.4469 7.79065 2.4094 7.61565 2.49377C7.61565 2.49377 7.12815 2.58127 6.96877 2.79065L5.73752 2.72815C5.47502 2.76252 5.25315 2.83752 5.2094 3.09065C4.61252 3.15315 3.98752 3.10002 3.53127 3.66877C3.84377 3.65627 4.11252 3.58127 4.46252 3.62502C4.46252 3.62502 4.7594 3.63127 4.81877 3.9469C4.82502 3.9594 4.9219 3.9594 4.9219 3.9594L5.0344 4.0469L5.07815 3.92815L5.17815 3.9969L5.2094 3.86565L5.3094 3.9344L5.31565 3.77815L5.4469 3.8719V3.66252C5.4469 3.66252 5.9344 3.66252 6.0844 3.97502C6.09065 3.97815 4.71877 4.22502 3.39377 4.1094L3.77502 3.9219C3.29377 3.8219 2.83752 3.7344 2.41252 3.40002C2.5719 4.00627 3.40315 4.71565 3.57502 4.71252L3.41252 4.41877L4.85002 4.48127C4.90315 4.64065 4.88127 4.81877 5.00627 4.9594C5.00627 4.9594 4.92815 5.2219 5.10627 5.32815C5.11252 5.34065 5.31565 4.7969 5.31565 4.7969C5.31565 4.7969 5.37815 4.94377 5.44065 5.04065C5.5344 4.5719 6.0469 4.49377 6.0469 4.49377L6.15315 4.74377C5.99377 4.76877 5.79377 5.09377 5.90315 5.27502C5.79377 5.27502 5.60315 5.59065 5.66252 5.76252C5.5719 5.85315 5.35002 5.9719 5.40315 6.35002C5.22815 6.38752 5.1219 6.7094 5.17815 7.05315C4.90315 7.30627 4.9719 7.7719 5.21565 7.96252C5.11565 8.05627 5.05315 8.1219 5.05315 8.2344C4.95627 8.20002 4.86565 8.22815 4.82502 8.29065C4.70627 8.16877 4.53752 8.06565 4.41877 8.17815C4.38752 8.0344 4.20002 7.87815 3.9969 7.8969C4.00525 7.80693 3.98163 7.71689 3.9302 7.6426C3.87877 7.5683 3.8028 7.5145 3.71565 7.49065C3.71565 7.49065 3.66877 6.7844 3.45627 6.55315C3.4344 6.42815 3.46877 6.34065 3.64377 6.2344C3.8219 6.14065 3.8594 6.06877 3.84377 5.80002C3.91565 5.6219 3.96877 5.44065 3.75002 5.31877C3.75627 5.53127 3.69377 5.63127 3.60627 5.72502C3.50315 5.71252 3.46877 5.83127 3.40002 5.88127C3.30315 5.75315 3.60315 5.55002 3.38127 5.2594C3.36877 5.2469 3.22502 4.8844 2.8719 4.89065C3.03752 4.98752 3.1094 5.15315 3.1094 5.32502C2.97915 5.61305 2.95914 5.93885 3.05315 6.24065C2.90627 6.0219 2.8219 5.60315 2.70002 5.53127C2.59377 5.5094 2.54377 5.2594 2.12815 5.33127C2.30627 5.37815 2.36565 5.51565 2.4094 5.63752C2.30315 5.69377 2.35627 5.84377 2.43752 5.9469C2.4219 6.18752 2.56565 6.32815 2.78127 6.41565L2.67502 7.40627C2.59065 7.3969 2.45627 7.73127 2.40627 7.74065C2.3219 7.79377 2.17502 7.9344 2.34377 7.97502C2.29377 8.15315 2.2469 8.26252 1.97815 8.30002C1.97815 8.30002 2.2594 8.46877 2.4969 8.18127C2.7469 8.17502 2.66565 7.87502 2.78752 7.74377C2.78752 7.7344 2.8594 7.69065 2.9594 7.42502C3.00315 7.66252 3.2469 8.38752 3.79377 8.7469C4.2719 9.2594 4.66877 9.74377 4.66252 10.425C4.84612 10.2231 4.97802 9.97971 5.0469 9.71565C5.35868 9.62211 5.68445 9.58404 6.0094 9.60315C5.95315 9.72502 5.88752 9.84065 5.96877 9.91565C5.73752 9.9969 5.68752 10.1656 5.78127 10.3313C5.53752 10.4969 5.5219 10.6031 5.51877 10.8781C5.06565 11.4563 4.78752 11.4375 4.34065 11.2844C4.1969 11.2 3.96565 11.0781 3.86252 11.1438C3.6719 11.0125 3.39377 10.9938 3.3469 11.2875C3.49377 11.1656 3.57815 11.1906 3.69377 11.3063C3.6719 11.3656 3.65315 11.4219 3.73752 11.4563L3.62502 11.5813C3.41877 11.55 3.13752 11.55 3.06565 11.8531C3.1719 11.7625 3.4094 11.7438 3.5969 11.8281L3.70627 11.8656L3.71877 12.0094C3.71877 12.0094 3.43752 11.9656 3.36252 12.425C3.62502 12.1438 3.81252 12.2156 3.81252 12.2156C3.91565 12.3656 4.29065 12.3438 4.56252 12.0969C4.94065 11.8844 5.05315 12.1906 5.2969 11.9906C5.50002 11.8406 5.74065 11.9406 5.90627 12.1156C6.0969 12.1875 6.2969 12.2469 6.45315 12.1156C6.45315 12.1156 6.6469 11.9938 6.83752 12.1906C6.83752 11.9719 6.68127 11.85 6.46877 11.8469L6.40627 11.7844C6.20315 11.7406 5.97815 11.7594 5.80002 11.6594C5.8691 11.3439 6.02123 11.0526 6.24065 10.8156C6.53127 10.5031 6.7469 10.3594 7.11565 9.88127C7.10002 10.1531 7.30627 10.4531 7.41565 10.725C7.41565 10.725 7.6344 10.3781 7.66565 10.0906C7.67502 10.0906 7.94377 9.95315 8.05627 9.83127C8.30002 9.9844 8.69377 9.71252 8.95002 9.48752C9.10627 9.55002 9.22815 9.54377 9.4094 9.48752C9.26252 9.78752 9.49377 10.0656 9.86252 10.1813C9.89377 10.4438 10.1625 10.5 10.5656 10.5C10.5844 10.6563 10.825 10.6781 10.825 10.6781C10.6688 10.7469 10.5938 10.8188 10.5969 10.9781C10.4406 10.9781 10.325 11.0188 10.2844 11.1969C10.0688 11.2031 9.85002 11.2188 9.66565 11.3219C9.46877 11.2938 9.22815 11.2125 9.07502 11.0531C8.9969 10.9875 8.97502 10.8906 8.83752 10.8531C8.75002 10.75 8.64377 10.7719 8.6094 10.8719C8.51877 10.8 8.17815 10.7688 8.11877 11.0906C8.28127 10.975 8.4219 10.9313 8.52502 11.075C8.46877 11.1719 8.65627 11.2313 8.81877 11.2688C8.9344 11.275 9.13752 11.3813 9.20002 11.5563C9.11238 11.5816 9.02024 11.5875 8.93008 11.5735C8.83992 11.5594 8.75393 11.5258 8.67815 11.475C8.62192 11.4281 8.55219 11.4004 8.47912 11.3959C8.40605 11.3914 8.33345 11.4104 8.2719 11.45C8.1344 11.3625 7.81252 11.5281 7.80002 11.7906C7.9344 11.6656 8.0594 11.6031 8.1844 11.6844C8.1219 11.6969 8.14377 11.7031 8.15315 11.7406L8.46565 11.9219C8.3094 11.9625 8.16565 12.025 8.2344 12.3125C8.2344 12.3125 8.3594 12.0625 8.64065 12.1563C8.6469 12.1469 8.68127 12.2438 8.76252 12.1781C8.8844 12.0406 9.16252 11.9781 9.4094 11.9531C9.60627 11.9313 9.80315 11.8719 9.9719 11.9844C10.1281 11.9063 10.2969 11.8531 10.4719 11.9781C10.6781 12.0406 10.8281 12.2844 11.0875 12.175C11.2188 12.0813 11.3781 12.0813 11.5406 12.2625C11.5406 12.0313 11.3688 11.9531 11.125 11.9031L10.9563 11.8031C10.8 11.7781 10.6438 11.8063 10.4844 11.7313C10.8581 11.6417 11.21 11.4783 11.5197 11.2507C11.8293 11.0232 12.0904 10.7361 12.2875 10.4063L12.6781 10.5438C12.7719 10.55 12.7781 10.5813 12.9688 10.6375C12.975 10.3594 12.8531 10.0719 12.35 10.0438L11.6938 9.79377C11.55 9.64377 11.4875 9.32815 11.6656 9.14377C11.8406 8.98752 11.8719 9.00627 11.9875 8.81565C12.1281 8.80315 12.2594 8.9469 12.3875 8.9469C12.45 9.13127 12.8063 9.29065 13.0313 9.23752C13.1719 9.36252 13.4375 9.43127 13.7344 9.33127C13.819 9.4102 13.9256 9.46145 14.0401 9.4782C14.1545 9.49495 14.2714 9.4764 14.375 9.42502C14.4438 9.49377 14.5875 9.55002 14.75 9.51252C14.7656 9.51252 14.8375 9.69377 15.0156 9.7594C14.9375 9.8344 14.9844 10.1656 15.0688 10.2875C15.0083 10.4112 14.9983 10.5535 15.0406 10.6844C14.8594 10.8 14.8219 10.8875 14.9031 11.0844C14.6656 11.4688 14.3813 11.5125 14.1125 11.3969L13.8219 11.2094L13.5156 10.9094C13.4625 10.8594 13.3531 10.8469 13.3313 10.9531C13.3313 10.9531 12.9375 10.8656 12.9031 11.2C13.0688 11.0406 13.3 11.1813 13.3 11.1875C13.3 11.1938 13.2438 11.2313 13.2875 11.2938C13.2969 11.2844 13.5781 11.3969 13.825 11.5031C13.9594 11.5563 13.9906 11.5719 14.05 11.6031C13.9754 11.5689 13.9004 11.5356 13.825 11.5031C13.7166 11.4531 13.6003 11.4225 13.4813 11.4125C13.3438 11.4 13.1938 11.3813 13.125 11.4875C12.975 11.55 12.7375 11.6031 12.75 11.8844C12.85 11.7156 12.9906 11.725 13.1688 11.7406L13.1563 11.7781C13.35 11.8656 13.3125 11.7531 13.4938 11.7375C13.6565 11.7351 13.8184 11.7615 13.9719 11.8156C13.8313 11.8563 13.6375 11.8375 13.5469 11.9406C13.5281 11.9719 13.4688 11.9594 13.4969 12.0406C13.4969 12.0406 13.2156 12.0344 13.1438 12.4156C13.425 12.2375 13.6406 12.2438 13.6438 12.2438L13.7344 12.2625L14.0781 12.0344C14.0875 12.0344 14.4094 11.8906 14.5563 12.0531C14.6875 12.1156 14.825 12.1219 14.9625 12.0406C15.225 11.925 15.4719 11.9156 15.7125 12.0781L15.9344 12.2094L16.0281 12.1469C16.0281 12.1469 16.2781 12.0781 16.4594 12.3C16.3844 11.9156 16.1094 11.9031 16.1094 11.9031L16.0469 11.8469L15.6594 11.6938C15.6 11.5531 15.4594 11.4438 15.6 11.275C15.7469 10.5531 15.9188 10.0125 15.6375 9.28127C15.9 9.39377 16.0969 9.74377 16.425 9.6219C16.425 9.32815 15.3438 8.76877 14.5188 8.3219C15.875 8.25002 17.5 7.25315 16.875 5.9844L17.1688 5.06565C17.3094 5.3469 17.5906 5.5594 17.8438 5.65002C17.6344 5.25315 17.5156 4.03752 17.6344 3.20002C17.0816 3.86367 16.4855 4.49004 15.85 5.07502C16.1625 5.15002 16.4406 5.0969 16.7438 5.0594L16.4875 5.59065C15.6563 5.10002 14.6813 5.46565 14.675 6.11565C14.7031 6.8719 15.6375 6.98127 16.1781 6.71565C16.0719 7.40627 14.4844 7.15315 14.4844 7.15315C13.9219 6.9594 13.3875 6.99065 12.7969 6.9969C12.9188 6.61877 13.6 6.28127 14.1219 6.43127C13.3938 5.61252 14.225 4.5969 15.2281 4.28752C14.1344 3.92502 15.075 3.09065 15.8938 2.49377C15.8938 2.49377 13.5406 3.4844 13.325 3.48127C12.6563 3.43127 12.8375 2.63752 13.0938 2.21252H13.0906ZM5.70315 3.16252C5.7594 3.16252 5.8219 3.16877 5.87502 3.18127C5.98127 3.2094 6.1094 3.2219 6.1094 3.25627C6.0594 3.33752 5.93752 3.4344 5.81877 3.43127C5.70002 3.42502 5.63127 3.35315 5.59377 3.17502C5.60627 3.16877 5.65002 3.16252 5.70315 3.16252ZM15.6094 5.95627C15.7656 5.95627 15.95 6.01877 16.1281 6.21252C16.0438 6.46252 15.2906 6.58752 15.2406 6.21877C15.225 6.10627 15.3844 5.9594 15.6094 5.95627Z" fill="#D21034"/>
<path d="M13.825 11.5031C13.5781 11.3969 13.2969 11.2844 13.2875 11.2938C13.2438 11.2313 13.3 11.1938 13.3 11.1875C13.3 11.1813 13.0688 11.0406 12.9031 11.2C12.9375 10.8656 13.3313 10.9531 13.3313 10.9531C13.3531 10.8469 13.4625 10.8594 13.5156 10.9094L13.8219 11.2094L14.1125 11.3969C14.3813 11.5125 14.6656 11.4688 14.9031 11.0844C14.8219 10.8875 14.8594 10.8 15.0406 10.6844C14.9983 10.5535 15.0083 10.4112 15.0688 10.2875C14.9844 10.1656 14.9375 9.8344 15.0156 9.7594C14.8375 9.69377 14.7656 9.51252 14.75 9.51252C14.5875 9.55002 14.4438 9.49377 14.375 9.42502C14.2714 9.4764 14.1545 9.49495 14.0401 9.4782C13.9256 9.46145 13.819 9.4102 13.7344 9.33127C13.4375 9.43127 13.1719 9.36252 13.0313 9.23752C12.8063 9.29065 12.45 9.13127 12.3875 8.9469C12.2594 8.9469 12.1281 8.80315 11.9875 8.81565C11.8719 9.00627 11.8406 8.98752 11.6656 9.14377C11.4875 9.32815 11.55 9.64377 11.6938 9.79377L12.35 10.0438C12.8531 10.0719 12.975 10.3594 12.9688 10.6375C12.7781 10.5813 12.7719 10.55 12.6781 10.5438L12.2875 10.4063C12.0904 10.7361 11.8293 11.0232 11.5197 11.2507C11.21 11.4783 10.8581 11.6417 10.4844 11.7313C10.6438 11.8063 10.8 11.7781 10.9563 11.8031L11.125 11.9031C11.3688 11.9531 11.5406 12.0313 11.5406 12.2625C11.3781 12.0813 11.2188 12.0813 11.0875 12.175C10.8281 12.2844 10.6781 12.0406 10.4719 11.9781C10.2969 11.8531 10.1281 11.9063 9.9719 11.9844C9.80315 11.8719 9.60627 11.9313 9.4094 11.9531C9.16252 11.9781 8.8844 12.0406 8.76252 12.1781C8.68127 12.2438 8.6469 12.1469 8.64065 12.1563C8.3594 12.0625 8.2344 12.3125 8.2344 12.3125C8.16565 12.025 8.3094 11.9625 8.46565 11.9219L8.15315 11.7406C8.14377 11.7031 8.1219 11.6969 8.1844 11.6844C8.0594 11.6031 7.9344 11.6656 7.80002 11.7906C7.81252 11.5281 8.1344 11.3625 8.2719 11.45C8.33345 11.4104 8.40605 11.3914 8.47912 11.3959C8.55219 11.4004 8.62192 11.4281 8.67815 11.475C8.75393 11.5258 8.83992 11.5594 8.93008 11.5735C9.02024 11.5875 9.11238 11.5816 9.20002 11.5563C9.13752 11.3813 8.9344 11.275 8.81877 11.2688C8.65627 11.2313 8.46877 11.1719 8.52502 11.075C8.4219 10.9313 8.28127 10.975 8.11877 11.0906C8.17815 10.7688 8.51877 10.8 8.6094 10.8719C8.64377 10.7719 8.75002 10.75 8.83752 10.8531C8.97502 10.8906 8.9969 10.9875 9.07502 11.0531C9.22815 11.2125 9.46877 11.2938 9.66565 11.3219C9.85002 11.2188 10.0688 11.2031 10.2844 11.1969C10.325 11.0188 10.4406 10.9781 10.5969 10.9781C10.5938 10.8188 10.6688 10.7469 10.825 10.6781C10.825 10.6781 10.5844 10.6563 10.5656 10.5C10.1625 10.5 9.89377 10.4438 9.86252 10.1813C9.49377 10.0656 9.26252 9.78752 9.4094 9.48752C9.22815 9.54377 9.10627 9.55002 8.95002 9.48752C8.69377 9.71252 8.30002 9.9844 8.05627 9.83127C7.94377 9.95315 7.67502 10.0906 7.66565 10.0906C7.6344 10.3781 7.41565 10.725 7.41565 10.725C7.30627 10.4531 7.10002 10.1531 7.11565 9.88127C6.7469 10.3594 6.53127 10.5031 6.24065 10.8156C6.02123 11.0526 5.8691 11.3439 5.80002 11.6594C5.97815 11.7594 6.20315 11.7406 6.40627 11.7844L6.46877 11.8469C6.68127 11.85 6.83752 11.9719 6.83752 12.1906C6.6469 11.9938 6.45315 12.1156 6.45315 12.1156C6.2969 12.2469 6.0969 12.1875 5.90627 12.1156C5.74065 11.9406 5.50002 11.8406 5.2969 11.9906C5.05315 12.1906 4.94065 11.8844 4.56252 12.0969C4.29065 12.3438 3.91565 12.3656 3.81252 12.2156C3.81252 12.2156 3.62502 12.1438 3.36252 12.425C3.43752 11.9656 3.71877 12.0094 3.71877 12.0094L3.70627 11.8656L3.5969 11.8281C3.4094 11.7438 3.1719 11.7625 3.06565 11.8531C3.13752 11.55 3.41877 11.55 3.62502 11.5813L3.73752 11.4563C3.65315 11.4219 3.6719 11.3656 3.69377 11.3063C3.57815 11.1906 3.49377 11.1656 3.3469 11.2875C3.39377 10.9938 3.6719 11.0125 3.86252 11.1438C3.96565 11.0781 4.1969 11.2 4.34065 11.2844C4.78752 11.4375 5.06565 11.4563 5.51877 10.8781C5.5219 10.6031 5.53752 10.4969 5.78127 10.3313C5.68752 10.1656 5.73752 9.9969 5.96877 9.91565C5.88752 9.84065 5.95315 9.72502 6.0094 9.60315C5.68445 9.58404 5.35868 9.62211 5.0469 9.71565C4.97802 9.97971 4.84612 10.2231 4.66252 10.425C4.66877 9.74377 4.2719 9.2594 3.79377 8.7469C3.2469 8.38752 3.00315 7.66252 2.9594 7.42502C2.8594 7.69065 2.78752 7.7344 2.78752 7.74377C2.66565 7.87502 2.7469 8.17502 2.4969 8.18127C2.2594 8.46877 1.97815 8.30002 1.97815 8.30002C2.2469 8.26252 2.29377 8.15315 2.34377 7.97502C2.17502 7.9344 2.3219 7.79377 2.40627 7.74065C2.45627 7.73127 2.59065 7.3969 2.67502 7.40627L2.78127 6.41565C2.56565 6.32815 2.4219 6.18752 2.43752 5.9469C2.35627 5.84377 2.30315 5.69377 2.4094 5.63752C2.36565 5.51565 2.30627 5.37815 2.12815 5.33127C2.54377 5.2594 2.59377 5.5094 2.70002 5.53127C2.8219 5.60315 2.90627 6.0219 3.05315 6.24065C2.95914 5.93885 2.97915 5.61305 3.1094 5.32502C3.1094 5.15315 3.03752 4.98752 2.8719 4.89065C3.22502 4.8844 3.36877 5.2469 3.38127 5.2594C3.60315 5.55002 3.30315 5.75315 3.40002 5.88127C3.46877 5.83127 3.50315 5.71252 3.60627 5.72502C3.69377 5.63127 3.75627 5.53127 3.75002 5.31877C3.96877 5.44065 3.91565 5.6219 3.84377 5.80002C3.8594 6.06877 3.8219 6.14065 3.64377 6.2344C3.46877 6.34065 3.4344 6.42815 3.45627 6.55315C3.66877 6.7844 3.71565 7.49065 3.71565 7.49065C3.8028 7.5145 3.87877 7.5683 3.9302 7.6426C3.98163 7.71689 4.00525 7.80693 3.9969 7.8969C4.20002 7.87815 4.38752 8.0344 4.41877 8.17815C4.53752 8.06565 4.70627 8.16877 4.82502 8.29065C4.86565 8.22815 4.95627 8.20002 5.05315 8.2344C5.05315 8.1219 5.11565 8.05627 5.21565 7.96252C4.9719 7.7719 4.90315 7.30627 5.17815 7.05315C5.1219 6.7094 5.22815 6.38752 5.40315 6.35002C5.35002 5.9719 5.5719 5.85315 5.66252 5.76252C5.60315 5.59065 5.79377 5.27502 5.90315 5.27502C5.79377 5.09377 5.99377 4.76877 6.15315 4.74377L6.0469 4.49377C6.0469 4.49377 5.5344 4.5719 5.44065 5.04065C5.37815 4.94377 5.31565 4.7969 5.31565 4.7969C5.31565 4.7969 5.11252 5.34065 5.10627 5.32815C4.92815 5.2219 5.00627 4.9594 5.00627 4.9594C4.88127 4.81877 4.90315 4.64065 4.85002 4.48127L3.41252 4.41877L3.57502 4.71252C3.40315 4.71565 2.5719 4.00627 2.41252 3.40002C2.83752 3.7344 3.29377 3.8219 3.77502 3.9219L3.39377 4.1094C4.71877 4.22502 6.09065 3.97815 6.0844 3.97502C5.9344 3.66252 5.4469 3.66252 5.4469 3.66252V3.8719L5.31565 3.77815L5.3094 3.9344L5.2094 3.86565L5.17815 3.9969L5.07815 3.92815L5.0344 4.0469L4.9219 3.9594C4.9219 3.9594 4.82502 3.9594 4.81877 3.9469C4.7594 3.63127 4.46252 3.62502 4.46252 3.62502C4.11252 3.58127 3.84377 3.65627 3.53127 3.66877C3.98752 3.10002 4.61252 3.15315 5.2094 3.09065C5.25315 2.83752 5.47502 2.76252 5.73752 2.72815L6.96877 2.79065C7.12815 2.58127 7.61565 2.49377 7.61565 2.49377C7.79065 2.4094 7.97815 2.4469 8.1344 2.23752C8.09377 2.5219 8.09065 2.58127 8.0719 2.75315L8.22815 2.7719C8.0844 2.86252 7.89377 2.99377 7.75315 3.08752C7.59377 3.32502 7.62502 3.33127 7.69377 3.45627L7.83752 3.7094C8.08127 3.7844 8.2594 3.88752 8.31565 4.0469C8.05002 4.01565 7.8594 4.06565 7.86252 4.17815C7.86877 4.26252 8.06877 4.30002 8.15002 4.35315C8.30315 4.49377 8.35315 4.61877 8.3594 4.7969C8.16565 4.7844 7.9094 4.49377 7.77502 4.76565C7.7094 4.8969 7.78127 5.07502 7.95002 5.1344C8.2594 5.21877 8.29065 5.6469 8.2844 5.6469C8.27815 5.6469 7.60315 5.19377 7.6344 5.61565C7.62502 5.80315 7.7094 5.84065 7.78127 5.8969C7.98127 5.9719 8.15627 6.0594 8.1344 6.2719C7.84065 6.16877 7.70315 6.25002 7.66877 6.41877L7.78127 6.74377L8.96252 6.50627C9.1344 6.35002 9.21252 6.08752 9.19377 5.80627C9.21565 5.39065 9.06565 5.0219 9.5969 4.55627C10.6828 3.66362 11.8528 2.87867 13.0906 2.21252H13.0938C12.8375 2.63752 12.6563 3.43127 13.325 3.48127C13.5406 3.4844 15.8938 2.49377 15.8938 2.49377C15.075 3.09065 14.1344 3.92502 15.2281 4.28752C14.225 4.5969 13.3938 5.61252 14.1219 6.43127C13.6 6.28127 12.9188 6.61877 12.7969 6.9969C13.3875 6.99065 13.9219 6.9594 14.4844 7.15315C14.4844 7.15315 16.0719 7.40627 16.1781 6.71565C15.6375 6.98127 14.7031 6.8719 14.675 6.11565C14.6813 5.46565 15.6563 5.10002 16.4875 5.59065L16.7438 5.0594C16.4406 5.0969 16.1625 5.15002 15.85 5.07502C16.4855 4.49004 17.0816 3.86367 17.6344 3.20002C17.5156 4.03752 17.6344 5.25315 17.8438 5.65002C17.5906 5.5594 17.3094 5.3469 17.1688 5.06565L16.875 5.9844C17.5 7.25315 15.875 8.25002 14.5188 8.3219C15.3438 8.76877 16.425 9.32815 16.425 9.6219C16.0969 9.74377 15.9 9.39377 15.6375 9.28127C15.9188 10.0125 15.7469 10.5531 15.6 11.275C15.4594 11.4438 15.6 11.5531 15.6594 11.6938L16.0469 11.8469L16.1094 11.9031C16.1094 11.9031 16.3844 11.9156 16.4594 12.3C16.2781 12.0781 16.0281 12.1469 16.0281 12.1469L15.9344 12.2094L15.7125 12.0781C15.4719 11.9156 15.225 11.925 14.9625 12.0406C14.825 12.1219 14.6875 12.1156 14.5563 12.0531C14.4094 11.8906 14.0875 12.0344 14.0781 12.0344L13.7344 12.2625L13.6438 12.2438C13.6406 12.2438 13.425 12.2375 13.1438 12.4156C13.2156 12.0344 13.4969 12.0406 13.4969 12.0406C13.4688 11.9594 13.5281 11.9719 13.5469 11.9406C13.6375 11.8375 13.8313 11.8563 13.9719 11.8156C13.8184 11.7615 13.6565 11.7351 13.4938 11.7375C13.3125 11.7531 13.35 11.8656 13.1563 11.7781L13.1688 11.7406C12.9906 11.725 12.85 11.7156 12.75 11.8844C12.7375 11.6031 12.975 11.55 13.125 11.4875C13.1938 11.3813 13.3438 11.4 13.4813 11.4125C13.6003 11.4225 13.7166 11.4531 13.825 11.5031ZM13.825 11.5031C13.9594 11.5563 13.9906 11.5719 14.05 11.6031C13.9754 11.5689 13.9004 11.5356 13.825 11.5031ZM5.70315 3.16252C5.7594 3.16252 5.8219 3.16877 5.87502 3.18127C5.98127 3.2094 6.1094 3.2219 6.1094 3.25627C6.0594 3.33752 5.93752 3.4344 5.81877 3.43127C5.70002 3.42502 5.63127 3.35315 5.59377 3.17502C5.60627 3.16877 5.65002 3.16252 5.70315 3.16252ZM15.6094 5.95627C15.7656 5.95627 15.95 6.01877 16.1281 6.21252C16.0438 6.46252 15.2906 6.58752 15.2406 6.21877C15.225 6.10627 15.3844 5.9594 15.6094 5.95627Z" stroke="black" stroke-width="0.07"/>
<path d="M6.48127 5.35L6.5969 5.51563M6.59065 5.51875C6.59065 5.51875 6.59065 5.74375 6.63752 5.74688M6.5344 5.86875L6.65315 6.06563M6.32502 6.11563C6.33127 6.11563 6.4719 6.27813 6.4719 6.27813M6.59377 6.15313C6.59377 6.15938 6.72502 6.40625 6.7344 6.40625M6.4219 6.325C6.4219 6.325 6.46565 6.625 6.50627 6.61563M6.22502 6.875L6.35627 7.07813M6.4719 6.6625C6.4719 6.6625 6.54377 6.94688 6.60002 6.92188M6.6594 6.49063C6.66252 6.49688 6.79377 6.68125 6.82815 6.65625M6.7969 6.72813L6.9219 6.97813M6.59065 6.92188L6.69377 7.21563M6.35002 7.07188C6.35002 7.07188 6.44377 7.3875 6.52815 7.3375M6.31565 7.49375C6.31565 7.49375 6.3219 7.65938 6.40315 7.66875M6.4594 7.40938C6.4594 7.41563 6.54377 7.52813 6.54377 7.52813M6.70002 7.2125L6.76565 7.32188M6.91877 7.00938L7.0219 7.1375M6.43752 5.52188C6.44065 5.6625 6.66252 5.47188 6.75002 5.35313M6.34377 6.00938C6.34377 6.00938 6.5844 5.8375 6.7719 5.57813M6.26252 6.41875C6.4344 6.37188 6.75002 5.99063 6.81252 5.7875M6.22815 6.79688C6.27502 6.81875 6.86252 6.39063 6.87815 6.08125M6.21252 7.125C6.21252 7.12188 6.75002 6.9875 6.9719 6.39688M6.18752 7.57188C6.18752 7.57188 7.0469 7.05625 7.09377 6.67813M12.8875 8.4375C12.8875 8.4375 12.8313 8.88125 12.3875 8.95M13.0281 9.23125C13.0313 9.225 13.4531 8.7625 13.3438 8.62188M14.0031 8.78438C14.0031 8.78438 13.9969 9.10625 13.7344 9.32813M14.5281 8.87813C14.5281 8.87813 14.5375 9.26563 14.3719 9.42188M15.0094 9.10938C15.0094 9.10938 14.8219 9.475 14.7563 9.5125M15.0031 9.75625C15.0031 9.75625 15.2469 9.81875 15.325 9.65625M15.0656 10.2844C15.0656 10.2844 15.2906 10.325 15.3969 10.1094M15.0406 10.6938C15.0406 10.6938 15.225 10.85 15.35 10.6438M12.4125 7.69375C12.4125 7.69375 12.3906 8.48438 13.5 8.64375C14.7406 8.9875 15.3281 8.80625 15.4 10.1969C15.3531 10.7281 15.2875 11.3219 14.9 11.0938M11.2313 8.42188C11.2313 8.42188 11.4094 8.7375 11.6219 8.71563C11.9031 8.63438 12.0063 8.80625 12.0063 8.80625M10.475 8.7375C10.475 8.7375 10.9438 8.96563 11.3406 8.59688M10.5281 8.40938C10.5688 8.95625 9.90002 9.26875 9.6344 9.21563M10.5594 10.4969C10.5625 10.4969 10.9219 10.2844 10.85 10.1344M9.8469 10.1813C9.85627 10.1688 10.45 10.1125 10.5594 9.9M9.5719 9.30625C9.5719 9.30625 10.4125 9.3125 10.4688 9.46563M10.6875 8.80938C10.6875 8.80938 9.86877 10.2125 11.3813 10.2125M9.81877 8.79063C9.81877 8.79063 9.64377 9.3125 9.39377 9.49063M8.95002 8.60938C8.95002 8.60938 9.25315 9.19688 8.95002 9.4875M8.15627 8.775C8.1594 8.78438 8.25315 9.60938 8.0469 9.84375M7.7594 8.8C7.7594 8.8 7.79065 9.325 7.6344 9.5125C7.47815 9.7 7.6719 10.0875 7.6719 10.0875M5.78127 10.3375C5.78127 10.3375 5.89377 10.5344 6.0469 10.4656M5.96877 9.90938C5.96877 9.90938 6.21877 10.0188 6.30315 9.97813M6.24065 9.02813C6.24065 9.02813 5.8719 9.13125 6.01252 9.56875C6.22502 9.74063 6.43127 9.7125 6.43127 9.7125M5.51252 10.8813C5.5094 10.8813 5.55627 11.225 5.79377 10.9656C5.9594 10.6156 6.48127 9.63438 6.60315 9.29688M6.8469 9.1375C6.8469 9.1375 6.59377 8.94063 6.60315 9.21563C6.5969 9.3875 6.68127 9.42813 6.68127 9.42813C6.69065 9.55313 6.80002 9.72813 6.88752 9.56875C6.92502 9.4125 6.86252 9.34375 6.86252 9.34375M7.0094 9.0625C6.78127 9.05 6.65627 9.55313 7.0969 9.2375M7.2469 8.89375C7.2469 8.89375 7.19065 8.97188 7.10002 8.8875C7.05315 8.80625 6.88752 9.2625 7.17815 9.27813C7.23127 9.14375 7.39065 9.10625 7.39065 9.10625M7.52815 8.675C7.52815 8.675 7.3969 8.7375 7.35002 8.72813C7.19377 8.7625 7.22502 9.12813 7.4219 9.10625C7.49065 9.02813 7.56252 8.91875 7.56252 8.91875M6.30315 8.2C6.2969 8.2 5.78752 9.00313 6.58752 9.21563M12.775 6.99688C12.775 6.99688 12.4625 7.25938 12.7531 7.68438C11.7844 7.66875 11.2688 8.11563 11.2281 8.41563C9.9969 8.32813 10.2219 8.69063 9.8219 8.80938C9.28752 8.3625 8.50315 8.6125 8.55315 9.05938C8.1969 8.55625 7.6469 8.8 7.57815 8.925C7.51252 9.05 7.53752 8.30625 7.53752 8.30625C7.53752 8.30625 7.17815 8.46875 6.93127 8.7625V8.14063C6.63127 8.20313 6.34065 8.20313 6.03127 8.19688M5.2219 7.96875C5.2219 7.96875 5.66877 8.21875 6.2219 7.88125M5.18752 7.07188C5.18752 7.07188 5.53127 7.38438 6.18752 7.28438M5.40627 6.35625C5.40627 6.35625 5.48127 6.60938 6.22815 6.625M5.65627 5.76875C5.65627 5.76875 5.93752 6.1125 6.31877 6.05938M5.8969 5.27813C5.8969 5.27813 6.00627 5.46563 6.4219 5.49688M6.14065 4.73125C6.14065 4.73125 6.3594 4.96875 6.6094 4.92813M7.43752 2.79063C7.43752 2.79063 7.5344 2.69688 7.6969 2.74375M7.36877 3.3C7.36877 3.3 7.06877 3.29063 7.08752 3.175C7.11252 3.0375 7.40627 2.94063 7.40627 2.94063C7.40627 2.94063 7.7969 2.69063 7.85627 2.60313M6.08752 3.97813L6.46877 4.70625L6.65002 4.43125L6.74377 4.61875L6.90002 4.34688L7.16877 4.51875L7.06877 4.18438L7.29377 4.16875C7.29377 4.16875 7.23127 4.00938 7.03127 3.975C7.0844 3.93438 7.2719 3.80938 7.2719 3.80938C7.2719 3.80938 7.16565 3.68438 6.9969 3.68125C7.05315 3.62188 7.12815 3.47813 7.1219 3.47813L6.95627 3.44063C6.95627 3.44063 7.33752 3.56563 7.63127 3.39063M6.90627 2.80312C6.9094 2.80625 6.8844 2.95312 6.80315 3.0375M5.43752 3.20313C5.43752 3.20313 5.6719 3.14063 5.8469 3.175C6.0219 3.2125 6.25627 3.275 6.25627 3.275C6.25627 3.275 6.53752 3.2375 6.62815 3.17188M4.85315 3.35938C4.85315 3.35938 4.8219 3.47188 4.8094 3.54688C4.8094 3.6 4.63752 3.67188 4.63752 3.67188M4.9594 3.12813C4.9594 3.12813 5.1094 3.31563 5.11565 3.425C5.11877 3.53125 5.00315 3.6125 5.00315 3.6125M3.40627 4.40625L3.25002 4.15625L3.39065 4.10625M6.21877 7.8875C6.09377 7.725 6.31252 5.25625 6.7719 4.6125C6.61252 5.775 7.1469 6.9625 7.28127 6.95625M4.81252 3.925C4.81252 3.925 5.02502 4.00313 5.4594 3.65625M6.05002 4.49375L6.36252 4.49688M15.7469 2.55938C15.7469 2.55938 10.5375 4.99063 10.4625 5.12188C11.3406 4.85313 15.0719 4.23125 15.1625 4.28438C14.9438 4.3375 10.4156 5.37813 10.2031 5.62813C11.3344 5.59063 13.7 5.99063 14.0719 6.37813C13.2656 6.19688 10.8625 5.84375 10.125 6C10.6625 6.12813 12.725 7.4625 12.725 7.675C12.4125 7.37813 9.9344 6.35625 9.83752 6.45625C10.4063 6.79688 11.2094 8.0625 11.2094 8.37188C11.0438 8.10938 9.6094 6.56875 9.52502 6.66875C9.67815 6.87813 9.97815 8.69688 9.82502 8.78125C9.82502 8.5625 9.26877 6.96875 9.2219 6.925C9.1094 6.95625 8.40002 8.8625 8.54065 9.04375C8.4469 8.40625 8.55627 7.075 8.72815 7.12813C8.41565 7.175 7.42502 8.48438 7.53127 8.69063C7.56252 8.3625 7.60627 8.14688 8.16877 7.0625C7.54377 7.1 6.25627 7.90938 6.03752 8.2C6.21252 7.68438 7.30315 6.8125 7.78127 6.75M10.0313 4.85313C10.5813 4.54688 12.2813 3.925 13.4188 3.46563M8.96252 6.49688C8.96252 6.49688 9.33752 6.49063 9.71252 5.47188C10.0813 4.07813 13.0156 2.525 13.075 2.23438M4.00002 7.9C4.00002 7.9 3.91252 8.0875 3.80627 8.1375M4.4219 8.18125C4.4219 8.18125 4.30627 8.40625 4.27815 8.5125M4.82502 8.29375C4.82502 8.29375 4.91877 8.6 4.84065 8.74375M3.70315 7.49063C3.4094 7.65625 3.8719 8.70938 5.26877 8.80938M5.04377 8.24063C5.04377 8.24063 5.00627 8.42813 5.26877 8.80313C5.19377 9.22188 5.58752 9.55 5.74377 9.60313M4.93127 4.47188L4.97502 4.35938L5.0219 4.48438L5.10002 4.48125L5.15002 4.35625L5.19377 4.48125H5.26877L5.31565 4.34375L5.38752 4.475H5.45002L5.4969 4.31875L5.59065 4.43125L5.62815 4.41875L5.6594 4.25625L5.75627 4.36875L5.78752 4.35313L5.83127 4.19688L5.9094 4.3125L5.95002 4.3L5.98752 4.16563L6.06252 4.29063M4.84377 4.48438L5.43127 4.475C5.61877 4.475 5.92502 4.21563 6.26565 4.29688M3.61252 5.73438C3.61252 5.73438 3.7094 5.94688 3.84377 5.82813M3.38752 5.875C3.38752 5.875 3.20002 6.38125 3.42502 6.5M3.11877 5.31875C3.11877 5.31875 3.11877 5.4375 3.36877 5.25625M2.35315 7.96563C2.35315 7.96563 2.55002 8.02813 2.51877 8.175M2.42502 5.65C2.42502 5.65 2.55002 5.70938 2.66877 5.525M3.73752 11.4531C3.92815 11.4406 3.9719 11.5281 4.14377 11.5281C4.35002 11.5344 4.5469 11.4531 4.80002 11.3813M6.4594 11.85C6.45315 11.85 6.36565 12.0313 6.44377 12.1219M3.7094 11.8656C3.7094 11.8656 4.01565 11.6156 4.17815 11.7688C4.33127 11.8219 4.41565 11.8125 4.41565 11.8125M3.86877 11.1469C3.86877 11.1469 3.94377 11.3406 3.69377 11.3125M3.61877 11.5938C3.61877 11.5938 3.77815 11.6938 3.5969 11.8281M3.71565 12.0094C3.71565 12.0094 3.9344 12.0406 3.80627 12.2188M10.6 10.9719C10.8219 11.15 10.7313 11.2563 11.4313 10.7875M10.2813 11.1938C10.2813 11.1938 10.6094 11.55 10.85 11.1188M9.65315 11.3219L9.20627 11.5563M8.40627 11.8844C8.40627 11.8844 8.67815 11.6531 8.80315 11.775C8.93127 11.9 9.46877 11.6688 9.46877 11.6688M8.6094 10.875C8.6094 10.875 8.70315 11.0625 8.5219 11.0844M8.25627 11.4563C8.25627 11.4563 8.35002 11.6313 8.16877 11.675M8.46565 11.9281C8.46565 11.9281 8.7469 11.9438 8.6469 12.1563M11.0969 11.8906C11.0969 11.8906 10.9406 12.0219 11.0563 12.1719M13.3375 10.9531C13.3375 10.9531 13.5156 11.0406 13.3031 11.1875M13.125 11.4969C13.125 11.4969 13.2594 11.6375 13.1688 11.7531M13.5 12.0344C13.5 12.0344 13.6844 12.0875 13.6625 12.2406M16.0938 11.8969C16.0938 11.8969 15.9375 12.0125 16.0219 12.1594M13.3438 7.38438C13.7125 7.34063 14.2438 8.16563 14.5156 8.325M16.1375 6.21875C16.1375 6.21875 16.325 6.38438 16.1594 6.78125M16.4844 5.5875C16.5375 5.62813 16.7375 5.7375 16.8719 5.9875M17 4.35625L16.7406 5.05938M17.2906 4.32188C17.2906 4.32188 17.2406 4.94688 17.1656 5.07188M10.8125 10.675C10.8125 10.675 11.4063 10.7375 11.4375 10.7813C11.5063 10.7094 12.0375 10.275 11.3844 10.2156C11.3543 10.3452 11.2816 10.4609 11.1779 10.5442C11.0742 10.6275 10.9455 10.6736 10.8125 10.675ZM16.125 6.2125C16.0406 6.4625 15.2875 6.5875 15.2375 6.21875C15.2094 6.03125 15.6813 5.74063 16.125 6.2125Z" stroke="black" stroke-width="0.07" stroke-linejoin="round"/>
<path d="M5.6969 3.16565L5.98752 3.21877C5.98752 3.21877 5.7844 3.49377 5.6969 3.16565Z" fill="black" stroke="black" stroke-width="0.07" stroke-linejoin="round"/>
</g>
<defs>
<clipPath id="clip0_14_512">
<rect width="20" height="15" fill="white"/>
</clipPath>
</defs>
</svg>
