<svg width="20" height="15" viewBox="0 0 20 15" fill="none" xmlns="http://www.w3.org/2000/svg">
<mask id="mask0_1825_41791" style="mask-type:luminance" maskUnits="userSpaceOnUse" x="0" y="0" width="20" height="15">
<rect width="20" height="15" fill="white"/>
</mask>
<g mask="url(#mask0_1825_41791)">
<path fill-rule="evenodd" clip-rule="evenodd" d="M0 0H20V13.75C20 14.4404 19.4404 15 18.75 15H1.25C0.559644 15 0 14.4404 0 13.75V0Z" fill="#C51918"/>
<path fill-rule="evenodd" clip-rule="evenodd" d="M3.75 3.75H16.25V11.25H3.75V3.75Z" fill="#FECA00"/>
<mask id="mask1_1825_41791" style="mask-type:luminance" maskUnits="userSpaceOnUse" x="3" y="3" width="14" height="9">
<path fill-rule="evenodd" clip-rule="evenodd" d="M3.75 3.75H16.25V11.25H3.75V3.75Z" fill="white"/>
</mask>
<g mask="url(#mask1_1825_41791)">
<path fill-rule="evenodd" clip-rule="evenodd" d="M3.75 3.75L10 7.5L3.75 11.25V3.75Z" fill="#23875F"/>
<path fill-rule="evenodd" clip-rule="evenodd" d="M16.25 3.75L10 7.5L16.25 11.25V3.75Z" fill="#23875F"/>
<mask id="mask2_1825_41791" style="mask-type:luminance" maskUnits="userSpaceOnUse" x="10" y="3" width="7" height="9">
<path fill-rule="evenodd" clip-rule="evenodd" d="M16.25 3.75L10 7.5L16.25 11.25V3.75Z" fill="white"/>
</mask>
<g mask="url(#mask2_1825_41791)">
</g>
<path fill-rule="evenodd" clip-rule="evenodd" d="M10 10C11.3807 10 12.5 8.88071 12.5 7.5C12.5 6.11929 11.3807 5 10 5C8.61929 5 7.5 6.11929 7.5 7.5C7.5 8.88071 8.61929 10 10 10Z" fill="#C51918"/>
<path fill-rule="evenodd" clip-rule="evenodd" d="M9.95591 8.32079L8.66158 9.21856L9.07517 7.6809L8.125 6.69863L9.41158 6.64552L9.95591 5.125L10.5002 6.64552H11.7846L10.8367 7.6809L11.3114 9.12781L9.95591 8.32079Z" fill="#FECA00"/>
</g>
<path fill-rule="evenodd" clip-rule="evenodd" d="M5.48525 2.77625L6.1926 2.33762L6.93339 2.7319L6.67393 2.02498L7.192 1.51913H6.49008L6.1926 0.776245L5.89513 1.51913L5.192 1.54508L5.71127 2.02498L5.48525 2.77625ZM9.23525 2.77625L9.9426 2.33762L10.6834 2.7319L10.4239 2.02498L10.942 1.51913H10.2401L9.9426 0.776245L9.64513 1.51913L8.942 1.54508L9.46128 2.02498L9.23525 2.77625ZM13.6926 2.33762L12.9852 2.77625L13.2113 2.02498L12.692 1.54508L13.3951 1.51913L13.6926 0.776245L13.9901 1.51913H14.692L14.1739 2.02498L14.4334 2.7319L13.6926 2.33762ZM5.48465 13.8545L6.192 13.4158L6.93279 13.8101L6.67333 13.1032L7.19141 12.5973H6.48948L6.192 11.8545L5.89453 12.5973L5.19141 12.6233L5.71068 13.1032L5.48465 13.8545ZM9.942 13.4158L9.23465 13.8545L9.46068 13.1032L8.94141 12.6233L9.64453 12.5973L9.942 11.8545L10.2395 12.5973H10.9414L10.4233 13.1032L10.6828 13.8101L9.942 13.4158ZM12.9847 13.8545L13.692 13.4158L14.4328 13.8101L14.1733 13.1032L14.6914 12.5973H13.9895L13.692 11.8545L13.3945 12.5973L12.6914 12.6233L13.2107 13.1032L12.9847 13.8545Z" fill="#FECA00"/>
<path fill-rule="evenodd" clip-rule="evenodd" d="M5.39655 7.98254C5.39655 7.98254 5.73315 8.2822 5.91647 8.38422C5.97968 8.14464 5.83865 7.60187 5.83865 7.60187C5.79907 7.47212 5.36501 7.2395 5.36501 7.2395C5.36501 7.2395 5.2431 7.6491 5.39655 7.98254Z" fill="#C51918"/>
<path fill-rule="evenodd" clip-rule="evenodd" d="M5.74713 8.7064C5.74713 8.7064 4.8826 8.3026 4.79475 7.73148C4.7069 7.16036 4.89321 6.24988 4.89321 6.24988C4.89321 6.24988 6.29709 6.56936 6.39261 7.25386C6.48812 7.93836 6.17103 8.36838 6.17103 8.36838C6.17103 8.36838 5.84631 7.53395 5.53989 7.4414C5.53989 7.4414 5.53989 8.26837 5.74713 8.7064Z" fill="#FECA00"/>
</g>
</svg>
