<svg width="20" height="15" viewBox="0 0 20 15" fill="none" xmlns="http://www.w3.org/2000/svg">
<g clip-path="url(#clip0_14_335)">
<path d="M0 0H20V15H0V0Z" fill="#CE1126"/>
<path d="M2.09998 2.09998H17.9V12.9H2.09998V2.09998Z" fill="#007A5E"/>
<path d="M2.09998 2.10315H17.9L2.09998 12.9031H17.9L2.09998 2.10315Z" fill="#FCD116"/>
<path d="M9.9969 9.30313C10.991 9.30313 11.7969 8.49724 11.7969 7.50313C11.7969 6.50901 10.991 5.70312 9.9969 5.70312C9.00279 5.70312 8.1969 6.50901 8.1969 7.50313C8.1969 8.49724 9.00279 9.30313 9.9969 9.30313Z" fill="#CE1126"/>
<path d="M10 5.84998L9.49012 7.41922L10.2747 7.67416" fill="#FCD116"/>
<path d="M10 5.84998L10.5099 7.41922L9.72526 7.67416" fill="#FCD116"/>
<path d="M11.5594 6.99005L9.9193 7.01305L9.92916 7.81505" fill="#FCD116"/>
<path d="M11.5692 6.96692L10.2547 7.95994L9.74941 7.31567" fill="#FCD116"/>
<path d="M10.9698 8.83655L10.4622 7.26557L9.67535 7.51878" fill="#FCD116"/>
<path d="M10.9731 8.83484L9.635 7.86854L10.1167 7.19755" fill="#FCD116"/>
<path d="M9.02686 8.83484L10.365 7.86854L9.88334 7.19755" fill="#FCD116"/>
<path d="M9.03015 8.83655L9.53777 7.26557L10.3247 7.51878" fill="#FCD116"/>
<path d="M8.43079 6.96692L9.74529 7.95994L10.2506 7.31567" fill="#FCD116"/>
<path d="M8.44055 6.99011L10.0807 7.01311L10.0708 7.81511" fill="#FCD116"/>
<path d="M5.9281 0.0750122L5.62681 1.00229L6.09045 1.15294" fill="#FCD116"/>
<path d="M5.9281 0.0750122L6.22939 1.00229L5.76575 1.15294" fill="#FCD116"/>
<path d="M6.84949 0.748718L5.88031 0.762309L5.88613 1.23622" fill="#FCD116"/>
<path d="M6.85535 0.735046L6.07859 1.32183L5.78001 0.941125" fill="#FCD116"/>
<path d="M6.50122 1.83984L6.20127 0.911541L5.73629 1.06116" fill="#FCD116"/>
<path d="M6.50305 1.83881L5.71233 1.26781L5.99695 0.87132" fill="#FCD116"/>
<path d="M5.35315 1.83881L6.14387 1.26781L5.85925 0.87132" fill="#FCD116"/>
<path d="M5.3551 1.83978L5.65506 0.911479L6.12003 1.0611" fill="#FCD116"/>
<path d="M5.00085 0.735046L5.77761 1.32183L6.07619 0.941125" fill="#FCD116"/>
<path d="M5.00671 0.748718L5.97589 0.762309L5.97007 1.23622" fill="#FCD116"/>
<path d="M10 0.0750122L9.69871 1.00229L10.1623 1.15294" fill="#FCD116"/>
<path d="M10 0.0750122L10.3013 1.00229L9.83765 1.15294" fill="#FCD116"/>
<path d="M10.9214 0.748718L9.95221 0.762309L9.95803 1.23622" fill="#FCD116"/>
<path d="M10.9272 0.735046L10.1505 1.32183L9.85191 0.941125" fill="#FCD116"/>
<path d="M10.5731 1.83984L10.2732 0.911541L9.80819 1.06116" fill="#FCD116"/>
<path d="M10.575 1.83881L9.78423 1.26781L10.0688 0.87132" fill="#FCD116"/>
<path d="M9.42505 1.83881L10.2158 1.26781L9.93115 0.87132" fill="#FCD116"/>
<path d="M9.427 1.83978L9.72696 0.911479L10.1919 1.0611" fill="#FCD116"/>
<path d="M9.07275 0.735046L9.84951 1.32183L10.1481 0.941125" fill="#FCD116"/>
<path d="M9.07861 0.748718L10.0478 0.762309L10.042 1.23622" fill="#FCD116"/>
<path d="M14.0719 0.0750122L13.7706 1.00229L14.2342 1.15294" fill="#FCD116"/>
<path d="M14.0719 0.0750122L14.3732 1.00229L13.9096 1.15294" fill="#FCD116"/>
<path d="M14.9933 0.748718L14.0241 0.762309L14.0299 1.23622" fill="#FCD116"/>
<path d="M14.9991 0.735046L14.2224 1.32183L13.9238 0.941125" fill="#FCD116"/>
<path d="M14.645 1.83984L14.3451 0.911541L13.8801 1.06116" fill="#FCD116"/>
<path d="M14.6469 1.83881L13.8561 1.26781L14.1407 0.87132" fill="#FCD116"/>
<path d="M13.4969 1.83881L14.2877 1.26781L14.0031 0.87132" fill="#FCD116"/>
<path d="M13.4989 1.83978L13.7989 0.911479L14.2638 1.0611" fill="#FCD116"/>
<path d="M13.1447 0.735046L13.9214 1.32183L14.22 0.941125" fill="#FCD116"/>
<path d="M13.1505 0.748718L14.1197 0.762309L14.1139 1.23622" fill="#FCD116"/>
<path d="M3.1969 7.52189C3.43429 7.9646 3.79894 8.32599 4.24377 8.55939C4.22644 8.071 4.1061 7.59178 3.89065 7.15314L3.1969 7.52189Z" fill="#CE1126"/>
<path d="M2.81567 6.08435C3.14067 6.76248 1.9688 8.38748 3.92505 8.76873C3.66089 8.38598 3.54027 7.9223 3.58442 7.45935C4.01921 7.66034 4.37602 7.99847 4.60005 8.42185C5.11255 6.56248 3.28755 6.6781 2.81567 6.08435Z" fill="#FCD116"/>
<path d="M5.9281 13.0312L5.62681 13.9585L6.09045 14.1092" fill="#FCD116"/>
<path d="M5.9281 13.0312L6.22939 13.9585L5.76575 14.1092" fill="#FCD116"/>
<path d="M6.84949 13.705L5.88031 13.7185L5.88613 14.1925" fill="#FCD116"/>
<path d="M6.85535 13.6913L6.07859 14.2781L5.78001 13.8974" fill="#FCD116"/>
<path d="M6.50122 14.7961L6.20127 13.8678L5.73629 14.0174" fill="#FCD116"/>
<path d="M6.50305 14.795L5.71233 14.2241L5.99695 13.8276" fill="#FCD116"/>
<path d="M5.35315 14.795L6.14387 14.2241L5.85925 13.8276" fill="#FCD116"/>
<path d="M5.3551 14.796L5.65506 13.8677L6.12003 14.0173" fill="#FCD116"/>
<path d="M5.00085 13.6913L5.77761 14.2781L6.07619 13.8974" fill="#FCD116"/>
<path d="M5.00671 13.705L5.97589 13.7185L5.97007 14.1925" fill="#FCD116"/>
<path d="M10 13.0312L9.69871 13.9585L10.1623 14.1092" fill="#FCD116"/>
<path d="M10 13.0312L10.3013 13.9585L9.83765 14.1092" fill="#FCD116"/>
<path d="M10.9214 13.705L9.95221 13.7185L9.95803 14.1925" fill="#FCD116"/>
<path d="M10.9272 13.6913L10.1505 14.2781L9.85191 13.8974" fill="#FCD116"/>
<path d="M10.5731 14.7961L10.2732 13.8678L9.80819 14.0174" fill="#FCD116"/>
<path d="M10.575 14.795L9.78423 14.2241L10.0688 13.8276" fill="#FCD116"/>
<path d="M9.42505 14.795L10.2158 14.2241L9.93115 13.8276" fill="#FCD116"/>
<path d="M9.427 14.796L9.72696 13.8677L10.1919 14.0173" fill="#FCD116"/>
<path d="M9.07275 13.6913L9.84951 14.2781L10.1481 13.8974" fill="#FCD116"/>
<path d="M9.07861 13.705L10.0478 13.7185L10.042 14.1925" fill="#FCD116"/>
<path d="M14.0719 13.0312L13.7706 13.9585L14.2342 14.1092" fill="#FCD116"/>
<path d="M14.0719 13.0312L14.3732 13.9585L13.9096 14.1092" fill="#FCD116"/>
<path d="M14.9933 13.705L14.0241 13.7185L14.0299 14.1925" fill="#FCD116"/>
<path d="M14.9991 13.6913L14.2224 14.2781L13.9238 13.8974" fill="#FCD116"/>
<path d="M14.645 14.7961L14.3451 13.8678L13.8801 14.0174" fill="#FCD116"/>
<path d="M14.6469 14.795L13.8561 14.2241L14.1407 13.8276" fill="#FCD116"/>
<path d="M13.4969 14.795L14.2877 14.2241L14.0031 13.8276" fill="#FCD116"/>
<path d="M13.4989 14.796L13.7989 13.8677L14.2638 14.0173" fill="#FCD116"/>
<path d="M13.1447 13.6913L13.9214 14.2781L14.22 13.8974" fill="#FCD116"/>
<path d="M13.1505 13.705L14.1197 13.7185L14.1139 14.1925" fill="#FCD116"/>
</g>
<defs>
<clipPath id="clip0_14_335">
<rect width="20" height="15" fill="white"/>
</clipPath>
</defs>
</svg>
