<svg width="20" height="15" viewBox="0 0 20 15" fill="none" xmlns="http://www.w3.org/2000/svg">
<g clip-path="url(#clip0_14_403)">
<path d="M0 0H20V15H0V0Z" fill="white"/>
<path d="M0 7.5H20V15H0V7.5ZM2.5 7.5C2.5 8.82608 3.02678 10.0979 3.96447 11.0355C4.90215 11.9732 6.17392 12.5 7.5 12.5C8.82608 12.5 10.0979 11.9732 11.0355 11.0355C11.9732 10.0979 12.5 8.82608 12.5 7.5C12.5 6.17392 11.9732 4.90215 11.0355 3.96447C10.0979 3.02678 8.82608 2.5 7.5 2.5C6.17392 2.5 4.90215 3.02678 3.96447 3.96447C3.02678 4.90215 2.5 6.17392 2.5 7.5Z" fill="#D00C33"/>
</g>
<defs>
<clipPath id="clip0_14_403">
<rect width="20" height="15" fill="white"/>
</clipPath>
</defs>
</svg>
