<svg width="20" height="15" viewBox="0 0 20 15" fill="none" xmlns="http://www.w3.org/2000/svg">
<g clip-path="url(#clip0_14_397)">
<path d="M0 0H20V15H0V0Z" fill="#E32118"/>
<path d="M0 0H20V10H0V0Z" fill="white"/>
<path d="M0 0H20V5H0V0Z" fill="#3E9A00"/>
<path d="M0 0V15L5.625 7.5L0 0Z" fill="#0073CE"/>
<path d="M8.80005 5.99371H11.1938V8.49996C11.1938 9.34371 10.0938 8.69371 10 9.14371C9.83755 8.68121 8.8063 9.34996 8.8063 8.44996L8.80005 5.99371Z" fill="white" stroke="black" stroke-width="0.05"/>
<path d="M10.1688 8.74371C10.1688 8.74371 10.1375 8.77496 10.0813 8.74996C10.025 8.72496 10.0188 7.14371 10.0188 7.14371C10.1438 7.00621 10.2438 6.96246 10.2438 6.96246L10.3188 7.02496C10.0375 7.16871 10.0625 7.37496 10.0875 7.73121C10.0938 7.86246 10.0938 8.03121 10.125 8.19371C10.1688 8.39996 10.2563 8.57496 10.2625 8.70621C10.2688 8.78746 10.1688 8.74371 10.1688 8.74371Z" fill="#73452B" stroke="black" stroke-width="0.01"/>
<path d="M9.97495 6.92499H10.0875C9.9937 7.83124 10.075 8.36874 10.075 8.63124C10.075 8.71874 10.125 8.74999 10.1187 8.74999C10.0062 8.87499 9.94995 8.74374 9.94995 8.74374L9.97495 6.92499Z" fill="#73452B" stroke="black" stroke-width="0.01"/>
<path d="M9.79998 8.74375C9.69373 8.79375 9.68123 8.69375 9.68748 8.68125C9.91873 8.2125 10.0187 7.18125 9.80623 7.06875L9.81873 6.96875C9.89998 6.99375 9.97498 7.1 9.97498 7.1C10.0062 8.25625 9.97498 8.73125 9.95623 8.75C9.84373 8.86875 9.79998 8.73125 9.79373 8.71875" fill="#A36629"/>
<path d="M9.79998 8.74375C9.69373 8.79375 9.68123 8.69375 9.68748 8.68125C9.91873 8.2125 10.0187 7.18125 9.80623 7.06875L9.81873 6.96875C9.89998 6.99375 9.97498 7.1 9.97498 7.1C10.0062 8.25625 9.97498 8.73125 9.95623 8.75C9.84373 8.86875 9.79998 8.73125 9.79373 8.71875" stroke="black" stroke-width="0.01"/>
<path d="M9.79372 8.72498C9.77497 8.62498 9.95622 8.36873 9.94372 8.09998M10.1 8.31873C10.1562 8.47498 10.1812 8.61247 10.1687 8.74372" stroke="black" stroke-width="0.01"/>
<path d="M10.3438 6.49999C10.3813 6.45624 10.3813 6.45624 10.45 6.45624C10.4625 6.36249 10.6188 6.36249 10.6313 6.48124C10.7563 6.45624 10.7813 6.53124 10.7313 6.60624C10.85 6.57499 10.9563 6.60624 10.925 6.74374C11.1375 6.79999 11.0563 6.94999 10.9625 6.98124C10.95 7.07499 10.8625 7.10624 10.7438 7.06874C10.5938 7.17499 10.5063 7.13749 10.4375 7.03124C10.2688 7.05624 10.2563 7.01874 10.1813 6.92499C10.05 6.98124 10.025 6.98124 9.91254 6.91249C9.90629 6.99999 9.87504 6.97499 9.81879 6.96874C9.82504 7.08124 9.78129 7.13124 9.68129 7.09374C9.75629 7.24999 9.56254 7.31874 9.46879 7.18749C9.38129 7.19374 9.37504 7.16874 9.33129 7.13749C9.29379 7.26249 9.15629 7.24374 9.13129 7.17499C8.95629 7.14999 8.97504 7.05624 9.11879 7.04999C9.13129 6.94999 9.21879 6.96874 9.27504 6.98124C9.28129 6.91874 9.31879 6.93124 9.35004 6.94374C9.33129 6.89999 9.34379 6.87499 9.40004 6.86249C9.31879 6.75624 9.36879 6.71874 9.45004 6.68124C9.40629 6.58124 9.48129 6.58749 9.53754 6.58124C9.53129 6.47499 9.56254 6.45624 9.67504 6.44374C9.66254 6.40624 9.68129 6.37499 9.74379 6.37499C9.70629 6.26874 9.75629 6.24374 9.86879 6.26249C9.88754 6.10624 10.2188 6.18124 10.1938 6.39374C10.2875 6.40624 10.3188 6.42499 10.3438 6.49999Z" fill="#009A3B" stroke="black" stroke-width="0.01"/>
<path d="M9.67498 6.44374C9.69998 6.45624 9.73123 6.44374 9.73748 6.51249C9.78748 6.42499 9.84998 6.47499 9.84998 6.57499M10.1937 6.39374C10.1687 6.43124 10.075 6.43124 10.0875 6.53124C10.0562 6.48749 9.99373 6.47499 9.96873 6.51874M10.3437 6.49999C10.3437 6.52499 10.3375 6.59999 10.3125 6.63749M10.7312 6.60624C10.7375 6.61249 10.6437 6.60624 10.6 6.63749M10.9625 6.98124C10.9375 6.96874 10.8875 6.93749 10.85 6.98749C10.85 6.96249 10.85 6.89374 10.7812 6.89374M10.7437 7.06874C10.7437 7.00624 10.7312 6.98749 10.7187 6.96874M10.5375 6.98124C10.4875 6.94374 10.4375 6.99999 10.4375 7.03124M10.175 6.92499C10.175 6.89999 10.1562 6.84999 10.2 6.83124M9.46247 7.18749C9.47497 7.12499 9.51873 7.12499 9.51248 7.09374M9.51248 7.09374C9.50623 7.04374 9.44998 6.99999 9.38123 7.06874M9.51248 7.09374C9.54998 7.08124 9.58748 7.08749 9.59998 7.10624M9.40623 6.86249C9.43123 6.83749 9.49373 6.84374 9.53123 6.86249M9.53123 6.71249C9.56248 6.71249 9.61873 6.69999 9.63748 6.75624C9.70623 6.64999 9.75623 6.66249 9.76873 6.68749M9.89373 6.67499C9.94373 6.65624 10.0312 6.70624 10.0812 6.79374C10.1062 6.72499 10.1437 6.73749 10.1812 6.73124M10.4187 6.79374C10.5 6.75624 10.55 6.83124 10.575 6.86249C10.6125 6.81249 10.6437 6.81249 10.6812 6.81249M9.66248 6.94374C9.68123 6.91249 9.72498 6.90624 9.75623 6.92499C9.74998 6.86874 9.78748 6.84374 9.81248 6.85624" stroke="black" stroke-width="0.01"/>
<path d="M9.91875 5.6406L9.78125 5.64685L9.7125 5.77185L9.6375 5.6531L9.5 5.65935L9.5625 5.53435L9.4875 5.41873L9.63125 5.41248L9.69375 5.28748L9.76875 5.40623L9.90625 5.39998L9.84375 5.52498L9.91875 5.6406ZM9.33125 5.68748L9.19375 5.71873L9.15625 5.8531L9.05625 5.7531L8.925 5.78435L8.9625 5.6531L8.86875 5.5531L9 5.51873L9.0375 5.38435L9.1375 5.48435L9.275 5.4531L9.23125 5.58748L9.33125 5.68748ZM8.7625 5.8031L8.6375 5.8656L8.63125 6.0031L8.5125 5.9281L8.3875 5.9906L8.4 5.84998L8.28125 5.77498L8.40625 5.71248L8.41875 5.57185L8.53125 5.64998L8.65625 5.58748L8.65 5.72498L8.7625 5.8031ZM10.1 5.6406L10.2375 5.64685L10.3 5.77185L10.375 5.6531L10.5125 5.65935L10.45 5.53435L10.525 5.41873L10.3875 5.41248L10.3188 5.28748L10.2437 5.40623L10.1062 5.39998L10.1687 5.52498L10.1 5.6406ZM10.6875 5.68748L10.8188 5.71873L10.8562 5.8531L10.9563 5.7531L11.0875 5.78435L11.05 5.6531L11.15 5.5531L11.0125 5.51873L10.975 5.38435L10.875 5.48435L10.7437 5.4531L10.7812 5.58748L10.6875 5.68748ZM11.25 5.8031L11.375 5.8656L11.3813 6.0031L11.5 5.9281L11.625 5.9906L11.6187 5.84998L11.7312 5.77498L11.6062 5.71248L11.6 5.57185L11.4812 5.64998L11.3562 5.58748L11.3687 5.72498L11.25 5.8031Z" fill="#FFD700" stroke="black" stroke-width="0.035"/>
<path d="M11.4188 8.45L11.575 8.675L11.7188 8.4625L11.6188 8.28125L11.4188 8.45ZM10.425 9.10625L10.4375 9.33125C10.4375 9.33125 10.5 9.33125 10.5563 9.3125C10.6063 9.29375 10.65 9.25625 10.65 9.25625L10.6438 9.1375L10.425 9.10625ZM9.58752 9.10625L9.57502 9.325C9.57502 9.325 9.51877 9.325 9.46252 9.3125C9.41252 9.3 9.36877 9.26875 9.36877 9.26875L9.30627 9.11875L9.58752 9.10625ZM8.58127 8.45L8.41877 8.675L8.24377 8.3875L8.37502 8.25L8.58127 8.45Z" fill="white" stroke="black" stroke-width="0.035"/>
<path d="M9.36255 9.55622C9.36255 9.76872 10.65 9.76872 10.65 9.55622V9.25623C10.65 9.41248 9.36255 9.38123 9.36255 9.25623V9.55622Z" fill="white" stroke="black" stroke-width="0.035"/>
<path d="M8.21252 8.8625C8.32502 9.4375 9.36252 9.45 9.36252 9.45V9.25625C9.33752 9.18125 9.38127 9.15625 9.55002 9.13125C9.61877 9.125 9.58752 9.025 9.58752 9.025C9.58752 9.025 9.13753 9.10625 8.81878 8.98125C8.38753 8.80625 8.32502 8.46875 8.32502 8.46875C8.32502 8.46875 8.29377 8.73125 8.21252 8.8625ZM11.7938 8.8625C11.6875 9.4375 10.65 9.45 10.65 9.45V9.25625C10.6688 9.18125 10.625 9.15625 10.4563 9.13125C10.3875 9.125 10.425 9.025 10.425 9.025C10.425 9.025 10.875 9.10625 11.1938 8.98125C11.6188 8.80625 11.6688 8.46875 11.6688 8.46875C11.6688 8.46875 11.7125 8.73125 11.7938 8.8625Z" fill="white" stroke="black" stroke-width="0.035"/>
<path d="M8.29376 8.64374C8.00626 8.48749 8.23126 8.32499 8.25626 7.86249C8.30001 8.14374 8.61876 8.26249 8.58126 8.44374C8.45001 8.44999 8.38751 8.24999 8.32501 8.46874L8.29376 8.64374ZM11.7125 8.64374C12 8.48124 11.7625 8.32499 11.7375 7.86249C11.6938 8.14374 11.3813 8.26249 11.4188 8.44374C11.5438 8.44999 11.6063 8.24999 11.6688 8.46874L11.7125 8.63749V8.64374Z" fill="white" stroke="black" stroke-width="0.035"/>
<path d="M8.4688 8.85625L8.50005 8.88125L8.4313 8.95625C8.40005 8.9875 8.39692 9.00625 8.41567 9.025C8.43755 9.04687 8.4563 9.0375 8.47817 9.0125L8.5563 8.93125L8.5813 8.95625L8.5063 9.04375C8.46567 9.09062 8.42817 9.08125 8.3938 9.05C8.3688 9.025 8.35005 8.9875 8.3938 8.94063L8.4688 8.85625ZM8.5938 8.9625L8.62505 8.98125L8.6188 9.13125L8.68755 9.025L8.7188 9.04375L8.6188 9.20625L8.5813 9.1875L8.58755 9.0375L8.5188 9.14375L8.48755 9.125L8.5938 8.9625ZM8.65005 9.225L8.73755 9.05L8.7688 9.06875L8.68755 9.2375L8.65005 9.225ZM8.78755 9.075L8.7188 9.25625L8.78755 9.28125C8.85005 9.30312 8.8813 9.275 8.90005 9.22188C8.92192 9.16563 8.91255 9.12813 8.85005 9.1L8.78755 9.075ZM8.81255 9.11875C8.87505 9.14062 8.8813 9.16562 8.86255 9.2125C8.8438 9.25312 8.8313 9.26875 8.7688 9.2375L8.81255 9.11875ZM8.9938 9.14375L8.8813 9.3125L8.92505 9.325L8.95005 9.28125L9.02505 9.3L9.0313 9.34375L9.07505 9.35L9.0313 9.15L8.9938 9.14375ZM9.0063 9.1875L9.0188 9.2625L8.9688 9.25625L9.0063 9.1875ZM9.10005 9.15938L9.0938 9.35312H9.16567C9.23442 9.35625 9.25317 9.32187 9.2563 9.25937C9.2563 9.20312 9.23442 9.16562 9.16567 9.16562L9.10005 9.15938ZM9.13755 9.19063C9.2063 9.19375 9.21567 9.21562 9.21567 9.2625C9.21255 9.30937 9.20317 9.32813 9.13442 9.31875V9.19375L9.13755 9.19063ZM9.7563 9.43125V9.63125H9.80005V9.55625C9.80005 9.55625 9.83755 9.55625 9.8688 9.55C9.89067 9.54375 9.90942 9.52813 9.90942 9.4875C9.90942 9.45 9.88755 9.43125 9.85005 9.43125H9.7563ZM9.80005 9.4625H9.8438C9.87817 9.4625 9.87505 9.51875 9.8438 9.51875H9.80005V9.4625ZM9.9813 9.43125L9.90005 9.63125H9.9438L9.96255 9.58125H10.0438L10.0625 9.63125H10.1063L10.025 9.43125H9.9813ZM10 9.475L10.0313 9.55H9.97505L10 9.475ZM10.1063 9.59375L10.2125 9.4625H10.1188V9.43125H10.2688V9.4625L10.1563 9.59375H10.2688V9.63125H10.1063V9.59375ZM10.7375 9.20625L10.775 9.2L10.7938 9.3125C10.8 9.35312 10.7813 9.37812 10.7532 9.39062C10.7219 9.40313 10.6782 9.39062 10.675 9.3375L10.7063 9.33125C10.7125 9.3625 10.725 9.36563 10.7375 9.3625C10.7532 9.35625 10.7594 9.3375 10.7563 9.31875L10.7375 9.20625ZM10.8 9.19375L10.8344 9.1875L10.8532 9.28125C10.8594 9.32187 10.8719 9.3375 10.9 9.33438C10.9313 9.32813 10.9344 9.30938 10.9282 9.27188L10.9063 9.175L10.9438 9.16875L10.9688 9.27188C10.9813 9.33438 10.95 9.35625 10.9063 9.36563C10.8719 9.37188 10.8313 9.36563 10.8188 9.30313L10.8 9.19375ZM10.9938 9.28125L11.025 9.26875C11.0407 9.29688 11.0625 9.29375 11.0813 9.2875C11.1063 9.275 11.1125 9.25312 11.0969 9.24375C11.0782 9.23437 11.0344 9.25 11.0125 9.24375C10.9844 9.23125 10.9719 9.2125 10.975 9.19063C10.975 9.15938 11 9.14687 11.0282 9.1375C11.0594 9.12812 11.0907 9.13125 11.1125 9.16875L11.075 9.18125C11.0625 9.15937 11.0438 9.1625 11.0313 9.16875C11.0188 9.175 11 9.18437 11.0125 9.2C11.0188 9.21562 11.0657 9.20625 11.0907 9.20625C11.1157 9.20625 11.1344 9.225 11.1375 9.24687C11.1438 9.28125 11.1313 9.3 11.0907 9.31563C11.0438 9.33438 11 9.31563 10.9938 9.28125ZM11.1625 9.125L11.1125 9.15L11.1 9.11875L11.2375 9.0625L11.25 9.0875L11.2 9.1125L11.2563 9.25L11.225 9.26875L11.1625 9.125ZM11.2438 9.05625L11.275 9.0375L11.3625 9.2L11.3313 9.21875L11.2438 9.05625ZM11.4563 9.06875L11.4938 9.05625C11.4986 9.06807 11.5003 9.08093 11.4988 9.09361C11.4973 9.10629 11.4925 9.11837 11.485 9.12869C11.4775 9.13902 11.4675 9.14726 11.4559 9.15263C11.4443 9.158 11.4315 9.16032 11.4188 9.15938C11.325 9.15938 11.3125 9.05313 11.3282 9.01875C11.3532 8.95938 11.4219 8.9625 11.4532 8.99375L11.4219 9.01875C11.4032 8.99375 11.3594 9.00938 11.3594 9.03125C11.3553 9.04952 11.3573 9.06864 11.3652 9.08562C11.3732 9.10259 11.3865 9.11645 11.4032 9.125C11.4344 9.1375 11.4782 9.1 11.4563 9.06875ZM11.4375 8.9375L11.4688 8.9125L11.5813 9.0625L11.55 9.0875L11.4375 8.9375ZM11.5563 8.84375L11.525 8.86875L11.5938 9.05625L11.625 9.025L11.6063 8.9875L11.6625 8.9375L11.7 8.95625L11.7313 8.93125L11.5563 8.84375ZM11.5688 8.8875L11.6313 8.91875L11.5938 8.95625L11.5688 8.8875Z" fill="black"/>
</g>
<defs>
<clipPath id="clip0_14_397">
<rect width="20" height="15" fill="white"/>
</clipPath>
</defs>
</svg>
