<svg width="20" height="15" viewBox="0 0 20 15" fill="none" xmlns="http://www.w3.org/2000/svg">
<mask id="mask0_1825_41979" style="mask-type:luminance" maskUnits="userSpaceOnUse" x="0" y="0" width="20" height="15">
<rect width="20" height="15" fill="white"/>
</mask>
<g mask="url(#mask0_1825_41979)">
<path fill-rule="evenodd" clip-rule="evenodd" d="M0 0V15.36H20.48V0H0Z" fill="#F7FCFF"/>
<mask id="mask1_1825_41979" style="mask-type:luminance" maskUnits="userSpaceOnUse" x="0" y="0" width="21" height="16">
<path fill-rule="evenodd" clip-rule="evenodd" d="M0 0V15.36H20.48V0H0Z" fill="white"/>
</mask>
<g mask="url(#mask1_1825_41979)">
<path fill-rule="evenodd" clip-rule="evenodd" d="M0 0V5.12H20.48V0H0Z" fill="#009D00"/>
<path fill-rule="evenodd" clip-rule="evenodd" d="M0 5.12V10.24H20.48V5.12H0Z" fill="white"/>
<path fill-rule="evenodd" clip-rule="evenodd" d="M0 10.24V15.36H20.48V10.24H0Z" fill="#F80000"/>
</g>
<path fill-rule="evenodd" clip-rule="evenodd" d="M0 0V15.36L5.12 7.77725L0 0Z" fill="#0075D5"/>
<mask id="mask2_1825_41979" style="mask-type:luminance" maskUnits="userSpaceOnUse" x="0" y="0" width="6" height="16">
<path fill-rule="evenodd" clip-rule="evenodd" d="M0 0V15.36L5.12 7.77725L0 0Z" fill="white"/>
</mask>
<g mask="url(#mask2_1825_41979)">
</g>
<path d="M9.32592 5.68898L9.31566 5.6913L9.30794 5.68416L9.18162 5.56746L9.16583 5.73871L9.16486 5.74918L9.15569 5.75432L9.00567 5.8384L9.16366 5.90634L9.17332 5.91049L9.17537 5.9208L9.20898 6.08946L9.32241 5.9602L9.32934 5.9523L9.33979 5.95353L9.51058 5.97369L9.42269 5.82587L9.41732 5.81683L9.42172 5.80728L9.49367 5.65108L9.32592 5.68898Z" fill="#FFD500" stroke="black" stroke-width="0.04"/>
<path d="M9.96606 5.68898L9.9558 5.6913L9.94808 5.68416L9.82176 5.56746L9.80597 5.73871L9.805 5.74918L9.79583 5.75432L9.64581 5.8384L9.8038 5.90634L9.81346 5.91049L9.81551 5.9208L9.84911 6.08946L9.96254 5.9602L9.96948 5.9523L9.97992 5.95353L10.1507 5.97369L10.0628 5.82587L10.0575 5.81683L10.0619 5.80728L10.1338 5.65108L9.96606 5.68898Z" fill="#FFD500" stroke="black" stroke-width="0.04"/>
<path d="M10.6057 5.68898L10.5954 5.6913L10.5877 5.68416L10.4614 5.56746L10.4456 5.73871L10.4447 5.74918L10.4355 5.75432L10.2855 5.8384L10.4434 5.90634L10.4531 5.91049L10.4552 5.9208L10.4888 6.08946L10.6022 5.9602L10.6091 5.9523L10.6196 5.95353L10.7904 5.97369L10.7025 5.82587L10.6971 5.81683L10.7015 5.80728L10.7735 5.65108L10.6057 5.68898Z" fill="#FFD500" stroke="black" stroke-width="0.04"/>
<path d="M11.2458 5.68898L11.2356 5.6913L11.2279 5.68416L11.1015 5.56746L11.0858 5.73871L11.0848 5.74918L11.0756 5.75432L10.9256 5.8384L11.0836 5.90634L11.0932 5.91049L11.0953 5.9208L11.1289 6.08946L11.2423 5.9602L11.2493 5.9523L11.2597 5.95353L11.4305 5.97369L11.3426 5.82587L11.3372 5.81683L11.3416 5.80728L11.4136 5.65108L11.2458 5.68898Z" fill="#FFD500" stroke="black" stroke-width="0.04"/>
<path d="M11.886 5.68898L11.8757 5.6913L11.868 5.68416L11.7417 5.56746L11.7259 5.73871L11.7249 5.74918L11.7158 5.75432L11.5657 5.8384L11.7237 5.90634L11.7334 5.91049L11.7354 5.9208L11.769 6.08946L11.8825 5.9602L11.8894 5.9523L11.8998 5.95353L12.0706 5.97369L11.9827 5.82587L11.9774 5.81683L11.9818 5.80728L12.0537 5.65108L11.886 5.68898Z" fill="#FFD500" stroke="black" stroke-width="0.04"/>
<path d="M12.5261 5.68898L12.5159 5.6913L12.5081 5.68416L12.3818 5.56746L12.366 5.73871L12.3651 5.74918L12.3559 5.75432L12.2059 5.8384L12.3639 5.90634L12.3735 5.91049L12.3756 5.9208L12.4092 6.08946L12.5226 5.9602L12.5295 5.9523L12.54 5.95353L12.7108 5.97369L12.6229 5.82587L12.6175 5.81683L12.6219 5.80728L12.6939 5.65108L12.5261 5.68898Z" fill="#FFD500" stroke="black" stroke-width="0.04"/>
<path d="M9.6401 6.44002H12.1201V8.32002C12.1201 9.00486 11.5649 9.56002 10.8801 9.56002C10.1953 9.56002 9.6401 9.00486 9.6401 8.32002V6.44002Z" stroke="#373737" stroke-width="0.08"/>
<path fill-rule="evenodd" clip-rule="evenodd" d="M10.705 7.65434C10.705 7.65434 10.5759 9.16812 10.447 9.25986C10.3182 9.3516 11.0646 9.39742 11.1359 9.32864C11.2073 9.25986 10.8104 8.02632 10.9469 7.65434C11.0834 7.28237 11.3033 7.25222 11.3033 7.25222C11.3033 7.25222 11.0261 7.19364 10.9469 7.30525C10.8677 7.41687 10.6315 7.25222 10.6315 7.25222L10.705 7.65434Z" fill="#6F3E1D"/>
<path fill-rule="evenodd" clip-rule="evenodd" d="M10.6765 7.56881H10.5772C10.5772 7.56881 10.51 7.83168 10.3557 7.70025C10.2015 7.56881 9.98389 7.61514 9.98389 7.61514C9.98389 7.61514 10.0034 7.45783 10.2402 7.3953C10.477 7.33276 10.5772 6.82497 10.5772 6.82497C10.5772 6.82497 10.9123 6.70022 11.1162 6.95586C11.3201 7.21149 11.6073 7.10243 11.6073 7.10243C11.6073 7.10243 11.8172 7.22179 11.7123 7.3953C11.6073 7.56881 11.4283 7.69574 11.2722 7.56881C11.1162 7.44188 10.6765 7.56881 10.6765 7.56881Z" fill="#009D29"/>
</g>
</svg>
