<svg width="20" height="15" viewBox="0 0 20 15" fill="none" xmlns="http://www.w3.org/2000/svg">
<g clip-path="url(#clip0_14_433)">
<path d="M0 0H20V15H0V0Z" fill="#000066"/>
<path d="M14.7188 10.7813C14.7188 10.7813 14.6375 10.9938 14.5938 10.9938C14.5438 10.9938 14.375 10.9 14.375 10.9C14.375 10.9 14.2531 11.1 14.1875 11.1094C14.125 11.1219 13.9563 11.0813 13.9563 11.0813C13.9563 11.0813 13.7938 11.0813 13.7875 11.0594C13.7813 11.0344 13.7938 10.9875 13.7938 10.9875C13.7938 10.9875 13.5594 11.175 13.5094 11.1625C13.4563 11.1532 13.2813 10.9313 13.2813 10.9313L13.25 11.0469L12.9188 11.0344L12.6281 10.8469C12.6281 10.8469 12.4657 11.1157 12.4594 11.1094C12.4532 11.1063 12.175 11.175 12.175 11.175L12.1563 11.1219L11.9688 11.0125C11.9688 11.0125 12.1157 10.8094 12.1157 10.8032C12.1157 10.7969 12.0469 10.7719 12.0469 10.7719L11.9406 10.8594L11.725 11L11.5094 10.9L11.6031 10.725L11.6157 10.6L11.7844 10.3407L13.8531 8.3313L14.8719 10.2125L14.7188 10.7813Z" fill="#6A4C2D" stroke="black" stroke-width="0.05"/>
<path d="M16.1875 10.9L16.7281 10.8812L16.4969 10.7687L18.55 10.6906L18.2594 10.5812L18.0031 10.2312L16.9406 10.1531C16.9406 10.1531 16.8594 10.0906 16.7313 10.1219C16.725 10.0406 16.625 9.93435 16.625 9.93435L15.9687 9.88123L15.5625 10.1625L15.8375 10.8687L16.1875 10.9Z" fill="white" stroke="black" stroke-width="0.05"/>
<path d="M14.0938 4.87505L14.15 4.68755C14.15 4.68755 14.2437 4.5313 14.2437 4.4563C14.2437 4.38755 14.3156 4.30317 14.3156 4.30317C14.3156 4.30317 14.5312 4.24067 14.5781 4.37505C14.8094 4.02192 15.0844 4.3563 15.0844 4.3563L15.1594 4.2688L15.3156 4.0813C15.3156 4.0813 15.5344 4.28442 15.5344 4.3188C15.5406 4.3563 15.575 4.3313 15.575 4.3313L15.8125 4.31255C15.8047 4.35944 15.809 4.40754 15.8248 4.45235C15.8407 4.49716 15.8676 4.53722 15.9031 4.5688C15.9875 4.6188 16.0625 4.91255 16.0625 4.91255L14.0938 4.87505Z" fill="url(#paint0_linear_14_433)" stroke="black" stroke-width="0.05"/>
<path d="M16.1875 7.06558C16.2312 7.04058 16.3594 6.99995 16.3437 6.80933C16.3281 6.62183 16.1656 6.59683 16.0718 6.60308C15.9781 6.60933 15.9 6.69058 15.9 6.69058L15.5937 6.49683C15.5937 6.49683 15.7469 5.53745 15.9062 5.47808C16.0625 5.3687 16.0875 5.32183 16.0875 5.29683C16.0875 5.2687 16.0312 5.2062 16.0312 5.2062L15.0406 5.09058L14.1031 5.19995C14.1031 5.19995 14.0343 5.31245 14.0406 5.3562C14.0531 5.39995 14.0562 5.44683 14.2219 5.57495C14.4094 5.7187 14.5344 6.53745 14.5344 6.53745C14.5344 6.53745 14.275 6.6687 14.2562 6.64995C14.2406 6.63433 14.1625 6.6187 14.1219 6.62495C14.0812 6.6312 13.9437 6.70308 13.9437 6.8812C13.9437 7.06245 14.0812 7.16558 14.0812 7.16558C14.0812 7.16558 14.975 7.06245 15.1094 7.30933C15.2375 7.01245 16.0875 7.11558 16.1906 7.06558H16.1875Z" fill="#656263" stroke="black" stroke-width="0.05"/>
<path d="M17.1531 6.06875C17.1531 6.06875 17.1625 5.96562 17.2375 5.91562C17.3125 5.86562 17.8062 5.84062 17.925 5.91562C18.0437 5.99062 18.0875 6.35625 18.0875 6.35625C18.0875 6.35625 18.1625 6.48437 18.1688 6.58125C18.1719 6.675 18.1844 6.7375 18.1844 6.7375C18.1844 6.7375 18.5781 7.25312 18.5844 7.71875C18.6281 8.03437 18.6187 8.88125 18.4937 9.20312C18.4946 9.43608 18.4354 9.66531 18.3219 9.86875C18.3219 9.86875 18.3625 9.9375 18.3563 10.0125C18.35 10.0844 18.3125 10.1562 18.3125 10.1562L18.8906 10.4406L18.6781 10.3625L18.8906 10.5406L18.65 10.4281L18.7906 10.5719C18.7875 10.5656 18.4406 10.4125 18.4406 10.4125L18.5969 10.5594L18.3312 10.4344C18.3312 10.4344 18.4875 10.6062 18.4875 10.5969C18.4119 10.5601 18.3348 10.5268 18.2563 10.4969L18.2687 10.5812C18.2687 10.5812 18.0875 10.5719 18.0875 10.4375C18.0325 10.406 17.9829 10.3659 17.9406 10.3187L17.5281 10.25L17.0625 8.85625L17.1719 6.50625L17.2031 6.3875L17.1531 6.06875Z" fill="black" stroke="black" stroke-width="0.05" stroke-linejoin="round"/>
<path d="M16.8437 13.5875C16.8437 13.5875 16.6031 13.0875 16.4844 13.0781C16.3781 12.8718 16.8594 11.2031 17.7875 11.1062C18.2969 11.1468 17.8281 11.6937 17.4937 11.525C17.5452 11.6545 17.6158 11.7757 17.7031 11.8843C17.7031 11.8843 17.0375 12.1718 16.8406 13.5875H16.8437ZM13.6469 13.6593C13.6469 13.6593 13.8437 13.0875 13.9625 13.0812C14.0844 13.075 13.6469 11.1781 12.6937 11.1656C12.1812 11.2062 12.6531 11.7562 12.9906 11.5875C12.9381 11.7172 12.8665 11.8383 12.7781 11.9468C12.7781 11.9468 13.45 12.2343 13.6469 13.6593Z" fill="#FFBB00" stroke="black" stroke-width="0.05"/>
<path d="M14.5188 10.0937C14.5188 10.0875 14.2813 10.1656 14.4344 10.4219C14.4438 10.3219 14.55 10.2656 14.55 10.2656C14.55 10.2656 14.3906 10.4531 14.5594 10.6125C14.5813 10.4625 14.6781 10.4156 14.6781 10.4156C14.6781 10.4156 14.5563 10.7656 14.6781 10.8375C14.6938 10.6969 14.7813 10.6344 14.7813 10.6344C14.7813 10.6344 14.675 10.9469 14.7719 11.0187C14.7813 10.9 14.8625 10.8469 14.8625 10.8469C14.8625 10.8469 14.8156 11.175 14.9406 11.1969C14.9406 11.0812 15.0344 10.9687 15.0344 10.9687C15.0344 10.9687 14.9938 11.2344 15.1906 11.2469C15.1906 11.1469 15.2281 11.0312 15.2281 11.0312C15.2281 11.0312 15.3188 11.3125 15.4469 11.2687V11.0281C15.4469 11.0281 15.5313 11.2969 15.6875 11.2469C15.6656 11.1719 15.6969 11.0812 15.6969 11.0812C15.6969 11.0812 15.7781 11.25 15.9281 11.1937C15.9531 11.1437 15.9219 11.0437 15.9219 11.0437C15.9219 11.0437 16.1406 11.2687 16.2031 11.1344C16.2719 11 16.0313 10.9531 16.0313 10.9531H16.1938C16.1938 10.9531 16.1406 10.8156 15.9219 10.7844C15.9969 10.7531 16.075 10.7781 16.075 10.7781C16.075 10.7781 16.0281 10.6062 15.8031 10.5875C15.8906 10.5562 15.9906 10.5781 15.9906 10.5781C15.9906 10.5781 15.9594 10.4156 15.7094 10.3687C15.75 10.325 15.8563 10.3375 15.8563 10.3375C15.8563 10.3375 15.7563 10.1844 15.6438 10.1937C15.5313 10.2031 14.5188 10.0906 14.5188 10.0937Z" fill="#00713D" stroke="black" stroke-width="0.05"/>
<path d="M15.5188 10.9219C15.5188 10.9219 15.6125 10.9656 15.6062 11.0031M15.5719 10.85C15.5719 10.85 15.6875 10.9313 15.6844 10.9906M15.675 10.8094C15.675 10.8094 15.7656 10.8656 15.7688 10.9563M15.8281 10.8438C15.8281 10.8438 15.8719 10.9437 15.8594 10.9625M15.9187 10.8969C15.925 10.975 15.9125 10.9844 15.9125 10.9844M14.7875 10.4062C14.7875 10.4062 14.8969 10.475 14.8875 10.5719M14.7812 10.4875C14.7812 10.4875 14.8312 10.5375 14.8219 10.5688M14.9156 10.4062C14.9156 10.4062 14.9875 10.5062 14.9625 10.575M15.0375 10.4719C15.0375 10.4719 15.0688 10.5344 15.0375 10.5656M15.0938 10.5C15.0938 10.5 15.1313 10.5625 15.0969 10.5844M15.05 10.7063C15.05 10.7063 15.15 10.7281 15.1656 10.8031M15.1094 10.6375C15.1094 10.6375 15.2156 10.6438 15.2281 10.7563M15.25 10.5969C15.25 10.5969 15.3219 10.7219 15.3094 10.7594M15.3844 10.6094C15.3844 10.6094 15.4125 10.725 15.3906 10.7656M15.4719 10.6562V10.7906M15.3406 10.4719C15.3406 10.4719 15.4031 10.4969 15.4031 10.5625M15.4 10.4125C15.4 10.4125 15.4844 10.4594 15.4781 10.5531M15.5 10.375C15.5 10.375 15.5719 10.4594 15.5469 10.5562M15.625 10.3938C15.625 10.3938 15.6 10.5031 15.6125 10.5469M15.7063 10.4688C15.7063 10.4688 15.6594 10.5031 15.6844 10.55M15.2875 10.8875C15.2875 10.8875 15.3031 10.9687 15.2875 10.9812M15.1844 10.8375C15.1844 10.8375 15.2344 10.9313 15.2156 10.975M15.0719 10.8344C15.0719 10.8344 15.1313 10.9031 15.1281 10.9594M14.9781 10.8469C14.9781 10.8469 15.0344 10.9 15.0281 10.9312M14.9312 10.9281C14.9312 10.9281 14.9844 10.9844 14.9812 10.9937" stroke="#3EC26D" stroke-width="0.05" stroke-linecap="round"/>
<path d="M13.7906 7.1656L14.55 7.14998C14.55 7.14998 15.05 7.14998 15.1031 7.31248C15.1969 7.09685 15.6344 7.10935 15.6344 7.10935L16.4156 7.08435L16.4313 8.9781C16.275 9.7156 15.7438 10.2344 15.1594 10.4562C14.8316 10.3447 14.5395 10.1478 14.3132 9.88574C14.0869 9.62373 13.9346 9.3061 13.8719 8.9656L13.7906 7.1656Z" fill="white" stroke="black" stroke-width="0.05"/>
<path d="M14.0625 7.15625L15.1656 10.1L16.1656 7.09375C15.8531 7.1125 15.1906 7.04375 15.1063 7.32813C14.9813 7.075 14.2813 7.175 14.0594 7.15625H14.0625Z" fill="#006B00" stroke="black" stroke-width="0.05"/>
<path d="M14.8125 8.75001C14.8562 8.77188 14.8531 7.95313 14.9094 7.92813L14.9531 7.75626C14.9062 7.67188 14.6906 7.67501 14.6094 7.75001L14.6625 7.90001C14.7719 8.07501 14.75 8.76876 14.8125 8.75001Z" fill="#FFC900" stroke="#006B00" stroke-width="0.025" stroke-linecap="round"/>
<path d="M14.5156 2.4062C14.5156 2.4062 14.5938 2.31558 14.5969 2.29683C14.6031 2.27495 14.9531 2.25933 15.1594 1.8687C15.2781 1.66558 15.1594 1.78433 15.1594 1.78433L15.1562 1.68745C15.1562 1.68745 15.3 1.54995 15.25 1.47495C15.1937 1.39995 15.2125 1.5687 15.125 1.5687C15.0406 1.56558 15.0875 1.3812 15.0875 1.3812C15.0875 1.3812 15.0812 1.36245 15.0562 1.34995C15.0219 1.3562 15.0312 1.4187 15 1.42495C14.9687 1.43433 14.9375 1.27808 14.9375 1.27808C14.9375 1.27808 14.8844 1.2062 14.8406 1.42808C14.8656 1.6687 15.0156 1.62183 15.0156 1.77808C15.0156 1.93433 14.8812 2.05308 14.8437 2.05933C14.8031 2.05933 14.8188 1.92495 14.8188 1.92495C14.8188 1.92495 14.7969 1.86245 14.7844 1.86245C14.7688 1.86245 14.8625 1.84683 14.8469 1.67183C14.8156 1.45933 14.7906 1.72183 14.7344 1.70933C14.675 1.69995 14.7188 1.51558 14.7406 1.49058C14.7625 1.47183 14.7156 1.38433 14.5906 1.60933C14.5812 1.72183 14.5656 1.5812 14.5406 1.59058C14.5 1.67808 14.5063 1.74058 14.5656 1.82183C14.6563 1.9062 14.7125 1.98745 14.7094 2.02808C14.7063 2.07183 14.6594 2.1687 14.5937 2.1687C14.5312 2.1687 14.5969 2.04995 14.5937 2.01245C14.5937 1.97183 14.4844 1.8312 14.4844 1.8312C14.4844 1.8312 14.4094 1.70933 14.4187 1.7062C14.425 1.70308 14.4094 1.68433 14.375 1.80933C14.3406 1.93433 14.2969 1.72808 14.2969 1.72808C14.2969 1.72808 14.2469 1.8812 14.3531 1.97183C14.2719 1.96245 14.2656 1.9937 14.2656 1.9937C14.2656 2.03745 14.375 2.0562 14.3906 2.12808C14.4031 2.20308 14.275 2.24683 14.275 2.24683C14.275 2.24683 14.3281 2.3187 14.4781 2.17495C14.4812 2.2687 14.4219 2.3312 14.4219 2.3312C14.4719 2.35308 14.5094 2.34995 14.5156 2.40933V2.4062Z" fill="#CDAD56" stroke="black" stroke-width="0.05" stroke-linejoin="round"/>
<path d="M14.0312 2.40627C14.0312 2.40627 13.9625 2.30627 13.9594 2.28752C13.9594 2.26877 13.6344 2.31252 13.4812 1.91877C13.3812 1.73127 13.4812 1.84064 13.4812 1.84064L13.4875 1.75002C13.4875 1.75002 13.3812 1.62189 13.425 1.55314C13.4719 1.48439 13.4562 1.64064 13.5125 1.64064C13.5844 1.63752 13.5437 1.47189 13.5437 1.47189C13.5437 1.47189 13.55 1.45314 13.575 1.44377C13.6031 1.44689 13.6156 1.54377 13.6406 1.55002C13.6687 1.55627 13.725 1.43752 13.7437 1.41252C13.7687 1.40939 13.7656 1.31252 13.8062 1.51564C13.7844 1.73127 13.6062 1.68752 13.6062 1.82814C13.6062 1.97189 13.7187 2.08127 13.7531 2.08439C13.7844 2.09064 13.775 1.96564 13.775 1.96564C13.775 1.96564 13.7937 1.90939 13.8062 1.90939C13.8156 1.90939 13.7 1.93127 13.7125 1.76877C13.7375 1.61877 13.7969 1.77814 13.8469 1.76877C13.8937 1.75939 13.8406 1.61252 13.8531 1.58752C13.8562 1.56252 13.9281 1.46564 13.9562 1.68127C13.9656 1.78439 14.0187 1.59689 14.0406 1.60314C14.0781 1.68439 14.025 1.79064 13.975 1.86564C13.9 1.94064 13.8656 2.02189 13.8687 2.05939C13.8687 2.10002 13.8875 2.14689 13.9437 2.14689C13.9969 2.14689 13.9594 2.07814 13.9625 2.04377C13.9656 2.00939 14.0562 1.89377 14.0562 1.89377C14.075 1.86252 14.0594 1.81252 14.0781 1.78752C14.1094 1.78752 14.1219 1.74689 14.15 1.85939C14.1812 1.97189 14.2156 1.78439 14.2156 1.78439C14.2156 1.78439 14.2594 1.92502 14.1687 2.00939C14.2375 2.00002 14.2437 2.02814 14.2437 2.02814C14.2437 2.06564 14.2125 2.08127 14.2 2.15314C14.1968 2.17183 14.1983 2.19101 14.2043 2.209C14.2103 2.22698 14.2206 2.24321 14.2344 2.25627C14.2344 2.25627 14.1906 2.32502 14.0625 2.19377C14.0622 2.24505 14.0799 2.29483 14.1125 2.33439C14.0687 2.35627 14.0375 2.35314 14.0312 2.40627Z" fill="#CDAD56" stroke="black" stroke-width="0.045" stroke-linejoin="round"/>
<path d="M15.9781 7.59375C15.9156 7.5375 15.9063 7.5875 15.8719 7.575C15.8563 7.56875 15.8438 7.55313 15.8313 7.54063C15.8188 7.52813 15.8032 7.52188 15.7875 7.51562L15.7688 7.56875C15.7625 7.5875 15.7875 7.61563 15.7875 7.64375C15.7813 7.68438 15.7656 7.71563 15.7156 7.72813C15.7313 7.7 15.7375 7.7 15.7344 7.66563C15.7344 7.65 15.6844 7.61875 15.6906 7.60313C15.6969 7.575 15.7125 7.54688 15.7031 7.51875C15.6813 7.53438 15.6563 7.525 15.6344 7.53438C15.6188 7.54375 15.6156 7.575 15.5938 7.5875C15.5688 7.6 15.5156 7.59375 15.4688 7.56875C15.4969 7.54687 15.5188 7.5625 15.5469 7.5375C15.5594 7.53125 15.5594 7.48437 15.575 7.475L15.6344 7.44375C15.6219 7.42812 15.6219 7.40625 15.6094 7.39375C15.5969 7.37813 15.5438 7.38125 15.5313 7.36875C15.5063 7.3375 15.5094 7.30313 15.4875 7.275C15.55 7.29688 15.5406 7.32812 15.5563 7.325C15.5875 7.30937 15.6188 7.30938 15.6344 7.31563C15.65 7.32188 15.6781 7.3625 15.6969 7.36875L15.7156 7.30937C15.7219 7.29062 15.6907 7.2625 15.6938 7.24375C15.7063 7.20938 15.7375 7.17813 15.75 7.14062L15.7625 7.2375C15.7656 7.25625 15.8 7.26562 15.8 7.28125C15.8031 7.3 15.7844 7.3375 15.7844 7.35625C15.8031 7.35312 15.8313 7.35625 15.8469 7.35C15.8688 7.34687 15.8782 7.30313 15.8969 7.3C15.9344 7.29375 15.9594 7.29688 16 7.3C15.9688 7.32813 15.95 7.325 15.9344 7.35C15.9188 7.35937 15.9375 7.39375 15.9 7.41875C15.8844 7.42812 15.8438 7.41875 15.8313 7.42812L15.8688 7.46875C15.8813 7.48438 15.9344 7.49062 15.9469 7.50625C15.9719 7.53125 15.9844 7.56875 15.9781 7.59688V7.59375ZM14.2813 7.625C14.3438 7.56563 14.3531 7.61875 14.3875 7.60313C14.4031 7.59688 14.4157 7.58438 14.4282 7.57188C14.4407 7.55625 14.4563 7.55312 14.4719 7.54375L14.4907 7.6C14.4969 7.61562 14.4719 7.64687 14.4719 7.67188C14.4781 7.7125 14.4938 7.74375 14.5438 7.75938C14.5281 7.72813 14.5219 7.72813 14.525 7.69688C14.525 7.67813 14.575 7.64687 14.5688 7.63125C14.5625 7.60625 14.5469 7.575 14.5563 7.55C14.5781 7.5625 14.6031 7.55625 14.625 7.5625C14.6406 7.57188 14.6438 7.60312 14.6656 7.61562C14.6906 7.62812 14.7438 7.62188 14.7906 7.59688C14.7625 7.575 14.7406 7.59062 14.7125 7.56875C14.7 7.55937 14.7 7.5125 14.6844 7.50625C14.6719 7.49375 14.6375 7.48125 14.625 7.47188C14.6375 7.45625 14.6375 7.43438 14.65 7.42188C14.6625 7.40625 14.7156 7.40937 14.7281 7.39687C14.7531 7.36562 14.75 7.33125 14.7719 7.30312C14.7094 7.325 14.7188 7.35625 14.7031 7.35313C14.6719 7.34063 14.6406 7.3375 14.625 7.34375C14.6094 7.35 14.5813 7.39062 14.5625 7.39687L14.5438 7.3375C14.5375 7.32188 14.5719 7.29063 14.5656 7.275C14.5531 7.2375 14.5219 7.20625 14.5094 7.16875L14.4969 7.26875C14.4938 7.28438 14.4594 7.29375 14.4594 7.30937C14.4563 7.32812 14.475 7.36875 14.475 7.38438C14.4563 7.38125 14.4282 7.38438 14.4125 7.37813C14.3907 7.37813 14.3813 7.33438 14.3625 7.32812C14.325 7.32187 14.3 7.325 14.2594 7.33125C14.2906 7.35625 14.3094 7.35625 14.3281 7.37813C14.3406 7.39063 14.3219 7.425 14.3594 7.44688C14.375 7.45625 14.4157 7.44688 14.4282 7.45625L14.3906 7.5C14.3781 7.5125 14.325 7.51875 14.3125 7.53125C14.2875 7.5625 14.275 7.59375 14.2813 7.625Z" fill="#FFC900"/>
<path d="M15.9188 7.78754C15.8594 7.83442 15.4719 7.93129 15.4688 8.26567C15.4656 8.60317 15.5375 8.67817 15.4656 8.68754C15.325 8.68754 15.3063 8.31254 15.3094 8.14692C15.3125 7.98129 15.3188 8.00629 15.3188 8.00629C15.3188 8.00629 15.4125 8.03129 15.4063 8.11254C15.3969 8.19379 15.5 7.91254 15.4656 7.83754C15.5281 7.90004 15.6125 7.87504 15.6125 7.86879C15.6125 7.86879 15.5656 7.81567 15.5438 7.77504C15.525 7.74067 15.6156 7.80004 15.6156 7.80004C15.6156 7.80004 15.6219 7.73754 15.5406 7.73754C15.4375 7.73754 15.5563 7.70629 15.5563 7.70629C15.5563 7.70629 15.6188 7.75942 15.6563 7.70004C15.6257 7.66963 15.5896 7.64525 15.55 7.62817C15.55 7.62817 15.4938 7.52192 15.4188 7.50317C15.3313 7.48129 15.3406 7.54067 15.2406 7.53129C15.2219 7.56879 15.2219 7.57504 15.2625 7.58754C15.1938 7.63442 15.2313 7.72504 15.2313 7.72504C15.2313 7.72504 15.3375 7.68129 15.3344 7.75629C15.3313 7.83442 15.2719 7.81879 15.2313 7.77192C15.1938 7.75317 15.1813 7.79379 15.1813 7.79379L15.2375 7.85629C15.2375 7.85629 15.1313 7.85004 15.1031 7.92192C15.1625 7.91879 15.1969 7.93442 15.1969 7.93442C15.1969 7.93442 15.0719 7.99067 15.0594 8.01879C15.0469 8.05004 15.0438 7.98754 15.0375 7.98754L14.9188 7.94379L14.8781 8.12817C14.8781 8.12817 14.9594 8.20629 15.0031 8.18129C15.0469 8.15629 15.1281 8.07817 15.175 8.10004C15.0344 8.20629 14.8938 8.35942 14.8188 8.38129C14.8 8.36254 14.7313 8.29692 14.7031 8.33129C14.675 8.36254 14.6969 8.40629 14.7344 8.40317C14.7656 8.39692 14.6156 8.43442 14.6469 8.50004C14.6781 8.56254 14.6781 8.55942 14.7031 8.54379C14.7344 8.52504 14.6813 8.52192 14.7844 8.49067C14.8875 8.45942 14.8844 8.43129 14.8844 8.43129C14.8844 8.43129 14.8625 8.47817 14.8063 8.49379C14.7531 8.50317 14.7094 8.50317 14.7188 8.52192C14.7313 8.53754 14.7563 8.56879 14.75 8.58442C14.7406 8.60317 14.8625 8.49692 14.8969 8.58129C14.9781 8.57504 15.0344 8.47504 14.9938 8.41567C15 8.47817 15.0375 8.50004 15.0156 8.53129C14.9906 8.55942 15.2031 8.43129 15.1 8.35629C15.125 8.41879 15.1313 8.46879 15.1313 8.46879C15.1313 8.46879 15.1781 8.46879 15.1906 8.45004C15.2031 8.43129 15.1656 8.49692 15.1813 8.50942C15.1969 8.52192 15.275 8.59379 15.2438 8.64379C15.2219 8.61254 15.2188 8.56879 15.1938 8.57192C15.1688 8.57504 15.0688 8.65004 15.0094 8.65317C14.95 8.65629 15.0813 8.87192 15.0813 8.87192C15.0813 8.87192 14.9906 8.86254 14.9781 8.87192C14.9656 8.87817 14.9063 8.79379 14.8969 8.84379C14.875 8.90629 14.9156 8.88129 14.9156 8.88129C14.9156 8.88129 14.8625 8.85629 14.8344 8.88754C14.8063 8.91879 14.7813 8.94692 14.8 8.95942C14.8188 8.97192 14.9063 8.97192 14.9188 8.96879C14.9313 8.96254 14.8188 8.97504 14.8125 8.98754C14.8031 9.00004 14.7875 9.05004 14.8125 9.06567C14.8344 9.08129 14.8969 9.05629 14.9 9.04379C14.9031 9.03129 14.9063 9.09067 14.9063 9.09067C14.9063 9.09067 15.0094 9.10004 15.0094 8.99379C15.0094 8.88754 15.0188 9.06879 15.0188 9.06879C15.0188 9.06879 15.1219 9.08754 15.125 8.98129C15.1313 8.87504 15.1375 9.05317 15.1375 9.05317C15.1375 9.05317 15.2063 9.03129 15.2063 9.01567C15.2063 8.99692 15.2031 9.22504 15.1531 9.29067C15.0781 9.24067 15.0281 9.32192 15.0281 9.32192C15.0281 9.32192 15.0344 9.44692 15.0281 9.47817C15.0188 9.50942 15.0781 9.45942 15.0813 9.44692C15.0875 9.43442 15.1594 9.40004 15.1625 9.39379L15.1875 9.34067C15.1875 9.34067 15.1688 9.40317 15.1438 9.40942C15.1125 9.41879 15.0875 9.44692 15.1 9.47192C15.1094 9.50004 15.1531 9.51567 15.1688 9.54067C15.1875 9.56567 15.2406 9.39379 15.2406 9.39379L15.2469 9.43129C15.2469 9.43129 15.3188 9.41254 15.325 9.37817C15.3344 9.34692 15.25 9.31567 15.3188 9.25942C15.3844 9.20629 15.3188 9.31254 15.3188 9.31254C15.3188 9.31254 15.3406 9.39379 15.3563 9.39379C15.375 9.39379 15.4125 9.23754 15.375 9.20004C15.3344 9.16254 15.4344 9.24692 15.4344 9.24692C15.4344 9.24692 15.4906 9.09067 15.4281 9.06879L15.3406 9.03754C15.3406 9.03754 15.3719 8.99692 15.3563 8.99379C15.3406 8.98754 15.4406 9.08754 15.4563 9.05942C15.4719 9.03442 15.4969 8.95942 15.3813 8.91567C15.2656 8.87504 15.3781 8.75629 15.3781 8.75629C15.3781 8.75629 15.45 8.84067 15.5031 8.79379C15.5531 8.74692 15.4969 8.74692 15.4969 8.74692C15.4969 8.74692 15.6438 8.65317 15.65 8.60629C15.6188 8.60317 15.5719 8.60942 15.5719 8.60942C15.5719 8.60942 15.6563 8.55629 15.6344 8.46567C15.6031 8.51254 15.5594 8.51254 15.5594 8.51254C15.5594 8.51254 15.6313 8.44067 15.6219 8.37192C15.5781 8.40629 15.5813 8.43442 15.5531 8.42504C15.525 8.41567 15.4781 8.14692 15.5875 8.13129C15.7 8.11254 15.6406 8.26254 15.6438 8.26254C15.65 8.26254 15.8125 8.19379 15.6438 8.08442C15.6844 8.07192 15.7688 8.14692 15.7688 8.14692C15.7688 8.14692 15.7313 7.95942 15.55 8.07504C15.5969 8.02817 15.625 8.00004 15.6594 8.00629C15.6969 8.01567 15.825 8.00317 15.825 7.96567C15.7938 7.94067 15.725 7.97817 15.6875 7.96567C15.6531 7.95317 15.9438 7.93129 15.9188 7.78754Z" fill="#FFC900" stroke="#006B00" stroke-width="0.025" stroke-linecap="round" stroke-linejoin="round"/>
<path d="M14.6562 7.89693C14.6562 7.89693 14.8156 7.8063 14.8938 7.9188M14.9594 8.08755C14.9563 8.08755 14.9031 8.1438 14.8906 8.1438M15.0656 8.26568C15.0656 8.26568 15.2156 8.27818 15.3094 8.12193" stroke="#006B00" stroke-width="0.025" stroke-linecap="round"/>
<path d="M15.225 8.21875C15.225 8.21875 15.2375 8.30313 15.2625 8.30313C15.2844 8.30313 15.2219 8.325 15.2 8.30937C15.225 8.34687 15.2406 8.41563 15.2 8.44063" stroke="#006B00" stroke-width="0.025" stroke-linecap="round"/>
<path d="M15.15 9.29065C15.15 9.29065 15.1 9.35002 15.0344 9.35315Z" fill="#E80000"/>
<path d="M15.15 9.29065C15.15 9.29065 15.1 9.35002 15.0344 9.35315" stroke="#006B00" stroke-width="0.025" stroke-linecap="round"/>
<path d="M15.2093 9.01875C15.2093 9.01875 15.1781 8.84687 15.1968 8.80625C15.2093 8.75 15.2593 8.72812 15.3031 8.65625" stroke="#006B00" stroke-width="0.025" stroke-linecap="round"/>
<path d="M15.1938 8.89375C15.1938 8.89375 15.1531 8.99687 14.9781 8.9625M15.2407 8.64063C15.2407 8.64063 15.2531 8.775 15.0938 8.725M15.0469 8.03125C15.0469 8.03125 14.9844 8.0875 15.0063 8.16875" stroke="#006B00" stroke-width="0.025" stroke-linecap="round"/>
<path d="M15.2844 7.87812C15.2844 7.87812 15.3687 7.84687 15.3844 7.82812C15.4066 7.80661 15.4246 7.78118 15.4375 7.75312C15.4437 7.72812 15.3812 7.69062 15.4125 7.63437C15.4344 7.60624 15.4625 7.60312 15.5062 7.63437C15.5562 7.66562 15.4656 7.54062 15.4187 7.53437C15.3687 7.53124 15.3375 7.56874 15.325 7.55936C15.3125 7.55311 15.3281 7.59374 15.3094 7.59374C15.2906 7.59374 15.35 7.62812 15.3469 7.64999C15.3406 7.67187 15.4094 7.74374 15.4062 7.75937C15.4 7.77812 15.3062 7.87499 15.2844 7.87812Z" fill="#006B00"/>
<path d="M15.3438 7.60003C15.3812 7.59065 15.3875 7.60003 15.3813 7.63128C15.3674 7.62391 15.3555 7.61316 15.3469 7.60003H15.3438Z" fill="#FFC900" stroke="#FFC900" stroke-width="0.025" stroke-linecap="round" stroke-linejoin="round"/>
<path d="M15.0937 9.49068C15.0937 9.49068 15.0781 9.5813 15.1094 9.58755C15.1094 9.5563 15.1187 9.5313 15.125 9.52193L15.0937 9.49068ZM15.0156 9.3813C14.9844 9.37818 14.9375 9.4063 14.9531 9.43755C14.975 9.41568 14.9969 9.43755 15.0156 9.41568V9.38443V9.3813ZM15.0156 9.3188C15.0156 9.3188 14.9687 9.31255 14.9625 9.34693C14.9937 9.34068 15.0062 9.33755 15.0156 9.34693V9.3188Z" fill="#E80000" stroke="#006B00" stroke-width="0.025" stroke-linejoin="round"/>
<path d="M14.8156 8.81878C14.8156 8.81878 14.8469 8.82815 14.8531 8.8594C14.875 8.8469 14.8844 8.77815 14.8156 8.81878ZM14.7437 8.89378C14.7437 8.89378 14.8062 8.85628 14.8094 8.89378C14.7969 8.90315 14.7937 8.91253 14.7844 8.91565C14.775 8.91565 14.7594 8.89065 14.7437 8.89378ZM14.7406 9.01565C14.7406 9.01565 14.7781 8.9844 14.7906 9.00315C14.8062 9.02815 14.7781 9.02503 14.7781 9.02503L14.7406 9.01565ZM14.6875 8.33128C14.6875 8.33128 14.6406 8.31253 14.6219 8.3469C14.6531 8.35315 14.6625 8.36253 14.6781 8.37503C14.6719 8.3594 14.6656 8.33753 14.6875 8.33128ZM14.5969 8.59065C14.5969 8.59065 14.5969 8.53128 14.6281 8.5094C14.6406 8.51878 14.6437 8.53128 14.6531 8.5469C14.6344 8.55315 14.6094 8.55315 14.5969 8.59065ZM14.7187 8.55003C14.7187 8.55003 14.6687 8.57503 14.6875 8.60315C14.7031 8.58128 14.7219 8.58753 14.7219 8.58753V8.55003H14.7187Z" fill="#E80000" stroke="#006B00" stroke-width="0.03" stroke-linejoin="round"/>
<path d="M14.6469 7.9937C14.6282 8.01557 14.6688 8.06245 14.7125 8.0562C14.725 8.0062 14.6594 7.97807 14.65 7.9937H14.6469Z" fill="#FFC900" stroke="#006B00" stroke-width="0.03" stroke-linejoin="round"/>
<path d="M14.6937 7.95623C14.6937 7.95623 14.7031 7.99685 14.7406 7.98748C14.7358 7.96521 14.725 7.94467 14.7094 7.9281C14.7094 7.93748 14.7125 7.9531 14.6937 7.95623ZM14.7187 8.07185C14.7187 8.07185 14.7406 8.09685 14.7812 8.04998C14.7625 8.0531 14.7312 8.03748 14.7312 8.03748C14.7312 8.03748 14.7312 8.06873 14.7187 8.07185Z" fill="#E80000" stroke="#006B00" stroke-width="0.03" stroke-linejoin="round"/>
<path d="M14.6438 7.90002C14.6282 7.9219 14.6531 7.95315 14.6969 7.9469C14.7063 7.89377 14.6563 7.8844 14.6438 7.90002Z" fill="#FFC900" stroke="#006B00" stroke-width="0.03" stroke-linejoin="round"/>
<path d="M14.6625 7.6969C14.6625 7.6969 14.8344 7.6469 14.925 7.7219C15.0188 7.79377 15.0188 7.72815 15.0188 7.72815C15.0188 7.72815 15.15 7.77815 15.1875 7.76565C15.225 7.75627 15.1594 7.7719 15.2125 7.73752C15.2656 7.70627 15.1063 7.7469 15.0938 7.67815C15.0688 7.63752 15.0938 7.5844 15.0406 7.60315C15.0031 7.55315 15.0656 7.51877 15.05 7.46565C15.0125 7.4969 14.9906 7.45627 14.9594 7.52815C14.8875 7.51252 14.95 7.4094 14.8688 7.40002C14.8688 7.4719 14.8094 7.47502 14.8063 7.51877C14.7719 7.54377 14.6188 7.6344 14.6625 7.6969Z" fill="url(#paint1_linear_14_433)"/>
<path d="M12.6875 13.2812C12.8 13.25 13.4031 13.4125 13.6344 13.6625C13.5844 13.2156 13.4625 12.8781 13.4625 12.8781C13.4625 12.8781 13.1031 12.775 13.0563 12.825C12.9162 12.9612 12.7925 13.1133 12.6875 13.2781V13.2812ZM12.5031 11.2281C12.4625 11.2343 12.4188 11.2625 12.3781 11.3343C12.3281 11.4531 12.2938 11.7562 12.2219 11.8281C12.1531 11.8968 12.0875 11.9031 12.0875 11.9687C12.0875 12.0312 12.0969 12.1781 12.2844 12.2343C12.475 12.2437 12.7781 11.9312 12.7781 11.9312C12.7781 11.9312 12.9344 11.7625 12.9969 11.5812C12.6313 11.7062 12.3719 11.3687 12.5031 11.2281ZM17.8032 13.2093C17.4545 13.232 17.122 13.3644 16.8531 13.5875C16.9031 13.1468 17.025 12.8062 17.025 12.8062C17.0656 12.7968 17.3781 12.7062 17.425 12.7562C17.4969 12.8312 17.7282 13.0593 17.8032 13.2093ZM17.975 11.1687C18.0157 11.175 18.0313 11.2312 18.0688 11.3C18.1157 11.4218 18.1625 11.5937 18.2344 11.6625C18.3063 11.7343 18.3688 11.8375 18.3688 11.9C18.3688 11.9625 18.3531 12.05 18.1656 12.1062C17.9781 12.1125 17.7031 11.8687 17.7031 11.8687C17.7031 11.8687 17.5469 11.7031 17.4844 11.5187C17.85 11.6437 18.0844 11.3218 17.975 11.1687Z" fill="#C01500" stroke="black" stroke-width="0.05"/>
<path d="M12.2938 12.8907C12.2938 12.8907 12.6719 13.1532 12.6813 13.2719C13.7031 11.7563 16.3094 11.2844 17.7969 13.1657C17.9938 12.9063 18.1969 12.8219 18.1969 12.8219C16.6344 10.7782 13.5188 11.0313 12.2906 12.8907H12.2938Z" fill="#FFBB00" stroke="black" stroke-width="0.05"/>
<path d="M16.1687 7.0937L16.3187 7.09058L16.0531 7.42808L16.3719 7.79995L15.7437 8.59058L16.3375 9.30308C16.2769 9.4595 16.1949 9.60675 16.0937 9.74058L15.7531 9.36558L16.375 8.5937L15.8687 8.0187L16.1687 7.0937ZM14.0406 7.16245H13.8843L14.1812 7.48745L13.8656 7.8812L14.5219 8.5937L13.9781 9.32183C14.0406 9.47808 14.1344 9.65933 14.2375 9.79058L14.5593 9.3812L13.8969 8.6437L14.3812 8.02808L14.0406 7.16245Z" fill="#1E5AA6" stroke="black" stroke-width="0.05"/>
<path d="M14.7812 9.07498L14.5437 9.38748L15.3812 10.3562C15.5312 10.2812 15.6469 10.1969 15.7719 10.0937L15.3344 9.5906L15.5125 9.06873L15.7687 9.36248L14.9719 10.3812C14.8375 10.325 14.6906 10.2375 14.5562 10.125L14.9781 9.5906L14.7812 9.07498ZM14.5219 8.5906L14.6719 8.78123L14.575 8.52185L14.5219 8.5906ZM15.6125 8.75935L15.7375 8.59685L15.6906 8.53435L15.6125 8.75935Z" fill="#1E5AA6" stroke="black" stroke-width="0.05"/>
<path d="M17.375 6.09375C17.375 6.09375 17.525 5.96875 17.6281 5.96875" stroke="#FFF700" stroke-width="0.05" stroke-linecap="round"/>
<path d="M17.3969 6.07812C17.4 6.075 18.275 5.95312 18.3031 5.92188M17.4 6.08437L18.3812 6M17.3969 6.0875C17.3969 6.0875 18.4375 6.04062 18.5 6.09375" stroke="#FFF700" stroke-width="0.05" stroke-linecap="round"/>
<path d="M17.3938 6.08435C17.3938 6.08435 18.4125 6.09373 18.4313 6.1156M17.3969 6.08435L18.3781 6.1656M17.3875 6.09373C17.3875 6.09373 18.3875 6.18123 18.4813 6.30623" stroke="#FFF700" stroke-width="0.05" stroke-linecap="round"/>
<path d="M18.5344 6.48435C18.5344 6.48122 18.1969 6.08122 17.3844 6.08747" stroke="#FFF700" stroke-width="0.05" stroke-linecap="round"/>
<path d="M17.3875 6.09375C17.3875 6.09375 17.95 6.13438 18.1281 6.33125" stroke="#FFF700" stroke-width="0.05" stroke-linecap="round"/>
<path d="M17.3969 6.08751C17.3969 6.08751 17.7625 6.01876 18.1437 6.47814" stroke="#FFF700" stroke-width="0.05" stroke-linecap="round"/>
<path d="M17.1687 6.50623C17.1687 6.50623 17.6719 6.52498 17.6719 6.57498C17.6719 6.62498 17.2969 6.71873 17.2906 6.92498C17.2875 7.13435 17.5781 7.14998 17.6 7.41248C17.6187 7.67498 17.3719 7.71248 17.3187 7.78435C17.2719 7.8156 17.1531 8.1906 17.1687 8.40935C17.1844 8.62498 17.2469 9.36248 17.3625 9.51248C17.45 9.58123 17.5812 9.8031 17.7281 9.73123C17.8719 9.6656 17.7719 9.41248 17.7594 9.34373C17.7437 9.27498 17.8156 9.15935 17.8156 9.05623C17.8156 8.94998 17.7625 8.86873 17.7687 8.84373C17.7719 8.81873 18.1687 8.93748 18.1437 9.3281C18.1187 9.71873 17.9594 9.59998 17.9594 9.59998C17.9594 9.59998 18.0094 10.0812 17.8875 10.1437C17.6625 10.2625 17.5 10.1187 17.5 10.1187L17.5219 10.2187L17.35 10.1312C17.35 10.1312 17.1312 9.81873 17.0844 9.6781C17.0204 9.38564 16.99 9.08683 16.9937 8.78748C17.0156 8.6531 17.0281 7.87185 17.0187 7.83123C17.0094 7.79373 16.9687 7.1406 16.9937 7.0406C17.0187 6.9406 17.1719 6.50623 17.1687 6.50623Z" fill="url(#paint2_linear_14_433)" stroke="black" stroke-width="0.05"/>
<path d="M16.625 6.37502C16.625 6.37502 16.975 6.0344 17.1781 6.07502C17.2813 6.07502 17.1844 6.15002 17.1844 6.15002C17.1844 6.15002 17.3625 6.16252 17.3875 6.24377C17.3906 6.27502 17.3031 6.28752 17.3031 6.28752C17.3031 6.28752 17.375 6.30315 17.3813 6.36565C17.3875 6.43127 16.6313 6.38127 16.6219 6.37815L16.625 6.37502Z" fill="#FF7000" stroke="black" stroke-width="0.05"/>
<path d="M16.6437 6.36245C16.6437 6.36245 17.0187 6.31245 17.1781 6.15308" stroke="black" stroke-width="0.05"/>
<path d="M17.025 6.25934C17.025 6.25934 17.3032 6.24684 17.3032 6.29059" stroke="black" stroke-width="0.05"/>
<path d="M18.0094 10.3094C18.0094 10.3094 18.2469 10.2531 18.3125 10.1688C18.35 10.1375 18.5594 10.4813 18.0094 10.3094Z" fill="white" stroke="black" stroke-width="0.05" stroke-linejoin="round"/>
<path d="M17.9469 8.34375C17.9469 8.34375 17.9781 8.525 17.8906 8.65C17.8469 8.7 17.7125 8.78438 17.7125 8.84375C17.7125 8.90312 17.7625 8.98125 17.7531 9.05C17.7437 9.11875 17.6687 9.19063 17.6719 9.25C17.6719 9.30937 17.7563 9.625 17.7469 9.63125M17.5094 7.75C17.5094 7.75 17.3219 7.8125 17.2812 8" stroke="white" stroke-width="0.05" stroke-linecap="round"/>
<path d="M17.4313 6.2594C17.4313 6.2594 17.4938 6.43753 17.7031 6.26878C17.5688 6.0844 17.4313 6.26253 17.4313 6.2594Z" fill="#C75B00" stroke="black" stroke-width="0.05"/>
<path d="M17.5844 6.25C17.5844 6.25938 17.575 6.26875 17.5625 6.26875C17.55 6.26875 17.5406 6.25938 17.5406 6.25C17.5406 6.24062 17.55 6.23438 17.5625 6.23438C17.575 6.23438 17.5844 6.24062 17.5844 6.25Z" fill="black"/>
<path d="M15.7313 5.84377C15.7313 5.84377 16.125 6.2719 16.3781 6.26565C16.425 6.39065 16.2625 6.5094 16.2 6.56252C16.0688 6.5219 15.95 6.5719 15.65 6.20002C15.6688 5.96252 15.7344 5.85627 15.7313 5.84377ZM16.2625 4.85002C16.3157 4.69377 16.4188 4.56877 16.5063 4.55315C16.4813 4.4344 16.6906 3.90002 17.2969 3.6969C17.3344 3.96877 17.0375 4.24065 17.0375 4.24065C17.0375 4.24065 17.9344 4.0844 18.1157 3.8594C18.0969 3.9594 17.9157 4.5969 16.9594 4.59065C17.3219 4.9344 16.8438 5.2094 16.6406 5.12502C17.0156 4.83752 16.5313 4.66565 16.2656 4.85002H16.2625Z" fill="white" stroke="black" stroke-width="0.05"/>
<path d="M16.5687 4.62807C16.75 4.51245 16.8156 4.51245 16.9656 4.53432L16.8562 4.55307C16.8562 4.55307 16.8469 4.5687 16.9125 4.62807C16.8375 4.60932 16.775 4.56557 16.5687 4.62807Z" fill="#CCCCCD" stroke="#CCCCCC" stroke-width="0.05"/>
<path d="M16.5 4.55312C16.5 4.55312 16.8562 4.36562 17.0562 4.23438" stroke="black" stroke-width="0.05"/>
<path d="M16.1937 6.56245C16.1937 6.56245 16.6844 6.69683 16.7406 5.9937C16.6344 5.68745 16.4875 5.02495 16.7125 4.83745C16.5062 4.6937 16.275 4.8437 16.275 4.8437C16.2625 4.87495 16.0781 5.14058 16.3281 5.60308C15.7344 5.44683 15.975 6.00933 15.975 6.00933C16 5.91558 16.3156 5.83433 16.3937 6.28433C16.425 6.39683 16.1812 6.56558 16.1937 6.56558V6.56245Z" fill="#0000FF" stroke="black" stroke-width="0.05"/>
<path d="M16.7469 6C16.7469 6 17.2656 5.71875 17.2531 5.0625C16.8094 5.075 16.6531 5.64375 16.6531 5.64375L16.7469 6Z" fill="#0000FF" stroke="black" stroke-width="0.05"/>
<path d="M14.4156 5.96558C14.4156 5.96558 14.0313 6.29995 13.8125 6.1937C13.6531 6.28745 13.4625 6.1187 13.4625 6.1187C13.4625 6.1187 13.6813 6.94058 14.4813 6.34683C14.4735 6.21794 14.4526 6.09019 14.4188 5.96558H14.4156Z" fill="white" stroke="black" stroke-width="0.05"/>
<path d="M13.8094 6.17813C13.8406 6.00625 13.975 5.92188 14.0844 6.08438C14.2281 6.11563 14.3719 5.52187 13.8594 5.62187C14.0031 4.85 13.5719 4.5625 13.5719 4.5625C13.5719 4.5625 13.4188 5.41875 13.4906 5.575C13.5594 5.73125 13.3875 5.28438 12.8344 5.15625C12.825 5.80313 13.4531 6.10313 13.4531 6.10313C13.4531 6.10313 13.6281 6.26563 13.8094 6.17813Z" fill="#0000FF" stroke="black" stroke-width="0.05"/>
<path d="M13.8593 5.61558C13.8593 5.61558 13.6187 5.82183 13.6718 6.09995M13.4937 5.59058C13.4937 5.59058 13.4375 5.78745 13.5562 6.07183" stroke="black" stroke-width="0.05"/>
<path d="M13.4562 6.13751C13.4562 6.13751 13.5687 5.95626 13.8094 6.18751" stroke="black" stroke-width="0.05"/>
<path d="M13.5031 4.8844C13.5031 4.87815 13.1375 4.8844 13.3531 5.25627C13.1937 5.30627 12.8312 5.06877 13.0812 4.75627C12.2594 4.7344 11.925 4.34065 11.925 3.97815C12.1656 4.22815 12.7437 4.12815 12.9469 4.28127C12.6969 4.05002 12.7469 3.72815 12.7469 3.72815C12.7469 3.72815 13.4469 3.93752 13.5719 4.5594C13.5312 4.68127 13.5125 4.89377 13.5031 4.8844Z" fill="white" stroke="black" stroke-width="0.05"/>
<path d="M12.9375 4.26562C13.075 4.40313 13.4219 4.44375 13.5969 4.59688" stroke="black" stroke-width="0.05"/>
<path d="M13.1 4.67193C13.1 4.67193 13.3875 4.63443 13.4719 4.73443C13.3594 4.73443 13.3219 4.7063 13.1594 4.76568C13.2031 4.7438 13.1906 4.70318 13.2156 4.70318C13.2406 4.70318 13.1125 4.67193 13.1 4.67193Z" fill="#CCCCCD" stroke="#CCCCCC" stroke-width="0.035"/>
<path d="M14.5313 2.42184C14.5313 2.42184 14.6906 2.28122 14.8625 2.40622C14.7844 2.63747 14.5063 2.54997 14.5063 2.54997C14.5063 2.54997 14.5156 2.66559 14.4875 2.72184C14.5438 2.76559 14.5875 2.90309 14.5875 2.90309C14.5875 2.90309 14.875 2.83434 14.9375 2.95934C15.0469 2.94372 15.125 2.95934 15.125 2.95934C15.125 2.95934 15.35 2.90309 15.4281 2.90309C15.5063 2.90309 15.7563 2.96559 15.7813 3.01559C15.8031 3.05934 15.8875 3.37184 15.9438 3.36559C16 3.36247 15.8094 3.44059 15.7563 3.36247C15.7063 3.28434 15.7219 3.46559 15.7219 3.46559C15.7219 3.46559 15.8781 3.63122 15.8969 3.66872C15.9156 3.70622 15.8 4.00622 15.8875 4.21559C15.8094 4.22184 15.8031 4.30309 15.8031 4.30309C15.8 4.39684 15.6844 4.41872 15.6844 4.41872L15.6531 4.29372L15.5781 4.34059L15.6094 4.24372C15.6094 4.24372 15.7156 3.98434 15.725 3.89997C15.7344 3.81559 15.6281 3.66872 15.5438 3.66872C15.4594 3.66872 15.4 3.93434 15.4 3.93434C15.4 3.93434 15.3594 4.13122 15.3719 4.15309L15.3156 4.08747C15.3156 4.08747 15.2813 4.20622 15.2531 4.24372C15.2219 4.28122 15.1625 4.29372 15.1625 4.29372C15.1625 4.29372 15.1219 4.17497 15.1375 4.12809C15.15 4.08122 15.3625 3.89997 15.3438 3.77184C15.325 3.64059 15.3438 3.67184 15.3406 3.66872C15.3344 3.66247 15.2281 3.57184 15.225 3.51872C15.2188 3.46872 15.0844 3.58434 14.9094 3.54997C14.8563 3.64372 14.8469 3.87809 14.8469 3.87809C14.8469 3.87809 14.8313 4.15934 14.8656 4.19059C14.9031 4.22497 14.7719 4.29372 14.7719 4.29372L14.6813 4.41872L14.65 4.34684L14.5844 4.39372L14.6219 4.29997C14.6188 4.22809 14.7125 4.03747 14.7125 3.87497C14.7125 3.71247 14.7219 3.53747 14.7219 3.53747C14.7219 3.53747 14.5531 3.52809 14.5563 3.70622C14.5594 3.88122 14.5156 3.89372 14.525 3.94059C14.5344 3.99372 14.5781 4.13747 14.5656 4.17809C14.5531 4.22184 14.4969 4.23434 14.4969 4.23434L14.4813 4.25622C14.4813 4.25622 14.3094 4.33747 14.3156 4.36872L14.3094 4.27497L14.3 4.14059C14.3 4.14059 14.4031 4.07809 14.4031 3.91559C14.4031 3.75309 14.3813 3.72809 14.3844 3.69059C14.3875 3.65309 14.4125 3.51872 14.4063 3.50309C14.4031 3.49059 14.3125 3.54372 14.2813 3.54372C14.2531 3.54372 14.3344 3.44684 14.3438 3.37497C14.3531 3.30622 14.25 3.44059 14.1656 3.36247C14.2063 3.27809 14.2625 3.24997 14.2719 3.18747C14.2813 3.12184 14.2094 3.24059 14.1438 3.19372C14.15 3.13122 14.2125 3.07809 14.2125 3.07809C14.2125 3.07809 14.1594 3.07184 14.1375 3.07809C14.0969 3.06559 14.1844 2.99997 14.1906 2.90622C14.1938 2.81247 14.1375 2.77809 14.1375 2.77184C14.1375 2.76872 14.0438 2.69059 14.0313 2.65622C14.0188 2.62497 14.0188 2.58747 14.0188 2.58747C14.0188 2.58747 13.8625 2.69997 13.6844 2.46247C13.85 2.32184 14.0281 2.42497 14.0281 2.42497C14.0281 2.42497 14.075 2.29372 14.2875 2.30309C14.5 2.31247 14.5438 2.43434 14.5344 2.42184H14.5313Z" fill="#923F00" stroke="black" stroke-width="0.05"/>
<path d="M15.7 4.81873C15.7031 4.81873 16.0937 4.83123 16.0969 5.0406C16.1031 5.24998 15.9781 5.19685 15.9719 5.19685L15.6906 5.15935L15.7 4.81873Z" fill="#0000FF" stroke="black" stroke-width="0.05"/>
<path d="M15.3219 4.76245C15.3219 4.76245 15.8094 4.75933 15.7813 4.97183C15.7531 5.18433 15.6313 5.14058 15.6313 5.14058L15.3938 5.12183L15.3219 4.76245Z" fill="#FFFEFF" stroke="black" stroke-width="0.05"/>
<path d="M15.0469 4.7406L15.3281 4.76248C15.3281 4.76248 15.5 4.78435 15.4906 4.94998C15.4844 5.10935 15.3188 5.11248 15.3188 5.11248L15.0438 5.09685L15.0469 4.7406Z" fill="#0000FF" stroke="black" stroke-width="0.05"/>
<path d="M14.3875 4.81873C14.3812 4.81873 13.9937 4.83123 13.9875 5.0406C13.9875 5.24998 14.1094 5.19685 14.1125 5.19685L14.3969 5.15935L14.3875 4.81873Z" fill="white" stroke="black" stroke-width="0.05"/>
<path d="M14.7656 4.76245C14.7656 4.76245 14.2781 4.75933 14.3062 4.97183C14.3312 5.18433 14.4562 5.14058 14.4562 5.14058L14.6906 5.12183L14.7656 4.76245Z" fill="#0000FF" stroke="black" stroke-width="0.05"/>
<path d="M15.0406 4.7406L14.7594 4.76248C14.7594 4.76248 14.5875 4.78435 14.5937 4.94998C14.6031 5.10935 14.7687 5.11248 14.7687 5.11248L15.0437 5.09685L15.0406 4.7406Z" fill="white" stroke="black" stroke-width="0.05"/>
<path d="M15.7938 7.08434C15.7938 7.08434 15.9969 6.78746 16.0844 6.81871C16.1594 6.84371 16.1 7.07496 16.0656 7.09684L15.7938 7.08434ZM14.4063 7.13746C14.3406 7.04996 14.25 6.80309 14.1625 6.87184C14.0875 6.89684 14.1438 7.12809 14.1813 7.14996L14.4063 7.13746Z" fill="#5E0043" stroke="black" stroke-width="0.05"/>
<path d="M14.5375 6.54683C14.5375 6.54683 14.9344 6.79058 15.0625 6.79683C15.1937 6.80308 15.6031 6.4812 15.6031 6.4812" stroke="black" stroke-width="0.05"/>
<path d="M14.5781 5.59375L14.6531 5.5L15.0312 5.6875L15.4187 5.51562L15.4937 5.59688L15.0625 5.9L14.5781 5.59375Z" fill="#5E0043" stroke="black" stroke-width="0.05"/>
<path d="M14.275 5.5875C14.4223 5.7574 14.532 5.95656 14.5969 6.17188C14.6406 6.41875 14.5719 5.83125 14.5719 5.83125C14.5719 5.83125 14.875 5.98125 14.8844 6.075C14.8937 6.16875 15.0281 6.06875 15.0344 6.05312L14.1594 5.48438L14.275 5.5875ZM15.775 5.57188C15.775 5.57188 15.4562 5.99063 15.4937 6.44688C15.4281 6.22813 15.4812 5.86875 15.4812 5.86875L15.4125 5.9125C15.4125 5.9125 15.3375 6.22188 15.2469 6.26875C15.2312 6.23125 15.2344 6.21875 15.2344 6.21875C15.2344 6.21875 15.1375 6.34375 15.1187 6.35625C15.1 6.36875 15.125 6.78438 15.125 6.78438C15.125 6.78438 15.1562 7.08438 15.1937 7.08125C15.1618 7.09764 15.1305 7.11536 15.1 7.13438L15.0594 6.33437L15.15 6.24375C15.15 6.24375 15.2687 6.09688 15.2781 5.95625C15.2281 6 15.1687 6.0125 15.1687 6.0125C15.1687 6.0125 15.1531 6.21563 15.1062 6.24375C15.0562 6.275 15.0562 6.325 15.0562 6.325L15.0437 6.05937L15.775 5.57188Z" fill="#474747" stroke="#474747" stroke-width="0.05" stroke-linejoin="round"/>
<path d="M15.0438 6.05627L15.1063 7.3219" stroke="black" stroke-width="0.05" stroke-linecap="round"/>
<path d="M14.2656 6.66248C14.2656 6.66248 14.4125 6.74685 14.4656 7.00623C14.9406 6.97185 15.0906 7.13748 15.0906 7.13748C15.0906 7.13748 15.4781 6.94998 15.6594 6.98748C15.7219 6.8531 15.9031 6.68435 15.9031 6.68435" stroke="black" stroke-width="0.05"/>
<path d="M14.0688 5.42193L15.0438 6.05943L15.925 5.46881C15.925 5.46881 16.1063 5.36881 16.0906 5.29693C16.075 5.22193 16.0125 5.25006 15.9813 5.26568C15.95 5.27506 15.0594 5.90631 15.0594 5.90631L14.1156 5.30631C14.1156 5.30631 14.0469 5.28443 14.0344 5.33131C14.0219 5.37506 14.0594 5.40006 14.0688 5.42193Z" fill="#B4B6B9" stroke="black" stroke-width="0.05"/>
<path d="M15.8125 5.2563C15.8125 5.2563 15.5625 5.15005 15.5625 5.24067C15.5625 5.33442 15.5719 5.3438 15.6125 5.40317C15.6531 5.45942 15.5813 5.49692 15.5813 5.49692L15.5563 5.43442C15.5438 5.3938 15.4094 5.36567 15.4 5.31567C15.3844 5.2688 15.425 5.1938 15.3469 5.18442C15.2656 5.17505 15.1875 5.21567 15.1719 5.30942C15.1402 5.41483 15.0994 5.5173 15.05 5.61567L15.0656 5.12817C15.2406 5.14067 15.5656 5.17817 15.8188 5.20942C15.7438 5.19692 15.85 5.21255 15.8438 5.24067C15.8375 5.25942 15.8125 5.26255 15.8125 5.2563ZM14.9313 5.13442C14.8206 5.13856 14.7112 5.15855 14.6063 5.1938C14.55 5.22505 14.7 5.27817 14.6781 5.3188C14.6594 5.36567 14.6563 5.4563 14.5844 5.43755C14.5156 5.4188 14.2781 5.30005 14.2719 5.25942C14.2625 5.22192 14.2156 5.2188 14.2156 5.2188C14.2156 5.2188 14.8969 5.12505 14.9313 5.13442Z" fill="#474747" stroke="#474747" stroke-width="0.05" stroke-linejoin="round"/>
<path d="M15.0375 5.07808V5.67495M14.5781 4.37183L14.2969 4.82808" stroke="black" stroke-width="0.05"/>
<path d="M15.0812 4.35938C15.0812 4.35938 15.2 4.52187 15.1875 4.56875C15.2344 4.60625 15.2906 4.75625 15.2906 4.75625" fill="url(#paint3_linear_14_433)"/>
<path d="M15.0812 4.35938C15.0812 4.35938 15.2 4.52187 15.1875 4.56875C15.2344 4.60625 15.2906 4.75625 15.2906 4.75625" stroke="black" stroke-width="0.05"/>
<path d="M15.5406 4.33435C15.5406 4.33435 15.2844 4.69685 15.2906 4.72498" stroke="black" stroke-width="0.05"/>
<path d="M14.2218 2.60628C14.2156 2.62503 14.1843 2.6344 14.15 2.62503C14.1156 2.61253 14.0906 2.58753 14.0968 2.56878C14.1031 2.5469 14.1375 2.53753 14.1718 2.55003C14.2031 2.5594 14.2281 2.5844 14.2218 2.60628ZM14.3281 2.60003C14.3343 2.61878 14.3656 2.62815 14.4 2.61565C14.4343 2.60628 14.4593 2.58128 14.4531 2.5594C14.4468 2.54065 14.4125 2.53128 14.3781 2.54378C14.3468 2.55315 14.3218 2.57815 14.3281 2.60003Z" fill="black"/>
<path d="M17.3437 10.125C17.3437 10.125 17.2437 10.1406 17.25 10.15C17.25 10.1594 16.9688 10.1688 16.9656 10.1594C16.9594 10.15 16.9219 10.2063 16.9219 10.2063L16.9687 10.1781C16.9687 10.1781 17.0375 10.25 17.0562 10.2437C17.0781 10.2406 17.0469 10.275 17.0562 10.2781C17.0594 10.2844 17.0812 10.2656 17.0812 10.2656L17.5438 10.2594L17.3437 10.125ZM17.5125 10.2656L17.1375 10.2781C17.1375 10.2781 17.0406 10.3656 17.0344 10.3844C17.0281 10.4062 17.0969 10.4125 17.0969 10.4125L17.1156 10.4844L17.1656 10.4656C17.1656 10.4656 17.4875 10.5125 17.7812 10.4469C17.9312 10.3969 17.9594 10.3344 17.8531 10.2937C17.75 10.2562 17.5156 10.2688 17.5125 10.2656Z" fill="#FF7000" stroke="black" stroke-width="0.05" stroke-linejoin="round"/>
<path d="M16.2187 11.0437L16.8969 11.0125L16.7719 10.9062L18.6156 10.8312L18.5531 10.6843L16.4875 10.7687L16.7375 10.8843L16.175 10.9L16.1938 10.9593L16.0469 10.9531C16.0469 10.9531 16.2125 11.0156 16.2156 11.0468L16.2187 11.0437Z" fill="url(#paint4_linear_14_433)" stroke="black" stroke-width="0.05"/>
<path d="M16.9813 7.27809C16.9281 7.24997 16.6875 7.21559 16.4219 7.39059L16.4344 8.0031C16.4344 8.0031 16.825 7.79372 17.0125 7.84059C17.0031 7.65309 17.0031 7.40934 16.9813 7.27809Z" fill="url(#paint5_linear_14_433)" stroke="black" stroke-width="0.05"/>
<path d="M13.2094 9.13745L11.6031 10.7312M13.9282 9.14683L12.6219 10.8656M13.8688 8.69995L12.1281 10.8093M12.075 10.7812L12.2438 10.5812M14.2 9.75933L13.525 10.6906M13.4969 10.8125L13.5125 11.1687M14.5094 10.0843L13.7906 10.9843M14.3813 10.9125L14.6719 10.4343M14.4938 10.3437L14.1438 10.7375M14.3875 9.9687L14.15 10.2593M14.0781 9.5437C14.0781 9.5437 13.35 10.6093 13.3625 10.7M14.0031 9.4062C13.9844 9.41558 13.375 10.225 13.375 10.225M13.3406 10.4812L13.2281 10.6156M13.0875 10.8187L12.9188 11.0406" stroke="black" stroke-width="0.05"/>
<path d="M13.1313 6.68121C13.1313 6.68121 13.0813 6.83746 13.1313 6.91559C13.1813 6.99371 13.4906 7.61871 13.4906 7.61871C13.4906 7.61871 13.7031 7.35934 13.7813 7.35309C13.8563 7.34371 13.8219 8.02809 13.8219 8.02809C13.8219 8.02809 13.6969 8.14684 13.6188 8.14059C13.5406 8.13434 13.8063 8.40934 13.8 8.64059C13.7938 8.87496 13.45 10.0312 13.3219 10.05C13.1969 10.0718 13.3781 9.84059 13.3719 9.77496C13.3625 9.71246 13.3281 9.75621 13.3 9.68434C13.2719 9.61559 13.3438 9.50934 13.3313 9.43746C13.3156 9.36871 13.25 9.38121 13.2438 9.33121C13.2375 9.28121 13.2875 9.26871 13.2781 9.21246C13.2719 9.15621 13.1938 9.16871 13.2031 9.11871C13.2094 9.07184 13.2156 9.09371 13.2094 8.99996C13.2031 8.90934 13.1875 9.06246 13.1094 9.07184C13.0313 9.07809 12.9688 9.25621 12.9688 9.25621C12.9688 9.25621 12.8125 9.47496 12.6594 9.37496C12.7531 9.57184 12.6813 9.65621 12.6438 9.66246C12.6125 9.67184 12.675 9.81871 12.5875 9.82496C12.5031 9.83121 12.65 10.1562 12.5563 10.1843C12.6594 10.2343 12.575 10.2968 12.575 10.2968C12.575 10.2968 12.3313 10.3187 12.3844 10.6375C11.6656 10.3812 11.3125 9.94684 11.3219 9.49996C11.3281 9.05621 11.4688 8.65621 11.8125 8.50934C11.9125 8.14059 12.0813 7.74684 12.0813 7.74684C12.0813 7.74684 12.0531 7.58434 12.075 7.47809C12.0981 7.40013 12.1387 7.3285 12.1938 7.26871C12.1938 7.26871 12.1813 7.01246 12.1875 6.88746C12.1938 6.76246 12.2438 6.70309 12.25 6.63434C12.2563 6.56246 12.2281 6.20309 12.3 6.14059C12.3688 6.07809 12.5031 6.08434 12.575 6.04059C12.6438 5.99996 12.7375 5.92184 12.8281 5.92809C12.9219 5.93434 12.9969 5.99996 12.9969 5.99996C12.9969 5.99996 13.3406 5.99996 13.3625 6.13121C13.3844 6.26559 13.2938 6.31871 13.2938 6.31871C13.2938 6.31871 13.3438 6.50621 13.1313 6.68121Z" fill="#8A9396" stroke="#2B2B2B" stroke-width="0.05"/>
<path d="M12.825 6.19379C12.8344 6.21566 12.8094 6.25004 12.7687 6.27191C12.725 6.29379 12.6844 6.29691 12.675 6.27816C12.6625 6.25629 12.6875 6.22191 12.7281 6.20004C12.7719 6.17504 12.8125 6.17504 12.8219 6.19379H12.825Z" fill="#CECFCF" stroke="#2B2B2B" stroke-width="0.05"/>
<path d="M12.7656 6.2313C12.7656 6.2438 12.7532 6.25317 12.7407 6.25317C12.725 6.25317 12.7125 6.2438 12.7125 6.2313C12.7125 6.21567 12.725 6.2063 12.7407 6.2063C12.7532 6.2063 12.7656 6.21567 12.7656 6.2313Z" fill="black"/>
<path d="M13.2812 6.46245C13.2812 6.46245 13.3656 6.8437 13.2656 7.10933M13.3094 6.29683C13.3094 6.29683 13.475 6.51558 13.4531 6.79058M13.325 6.24995C13.3281 6.24995 13.4656 6.36558 13.4594 6.44683M13.3562 6.19995C13.3562 6.19995 13.45 6.26245 13.4688 6.32808" stroke="#2B2B2B" stroke-width="0.025"/>
<path d="M13.3125 6.16248C13.3125 6.16248 12.9844 6.69373 13.0281 7.0281" stroke="black" stroke-width="0.05"/>
<path d="M13.3344 6.1438C13.3344 6.1438 12.8969 6.40317 12.8187 7.25005" stroke="#2B2B2B" stroke-width="0.025"/>
<path d="M13.2875 6.30005L13.1125 6.4313" stroke="black" stroke-width="0.05"/>
<path d="M12.6562 7.29692C12.6562 7.29692 12.9 6.29067 13.3281 6.1438" stroke="#2B2B2B" stroke-width="0.025"/>
<path d="M13.4969 7.63755C13.4969 7.63755 13.7281 7.34693 13.7813 7.3563C13.8344 7.3688 13.8188 8.0313 13.8188 8.0313C13.8188 8.0313 13.6469 8.15943 13.6094 8.1563C13.5719 8.15005 13.8031 8.4688 13.7969 8.58443C13.7938 8.70318 13.7875 8.70318 13.7875 8.70318C13.7875 8.70318 13.7875 8.63443 13.7344 8.52193C13.6781 8.4063 13.7125 8.27818 13.3594 7.99068C13.275 7.81568 13.5344 8.10005 13.5875 8.0563C13.6406 8.01568 13.4938 7.6438 13.4938 7.63755H13.4969Z" fill="#2B2B2B" stroke="#2B2B2B" stroke-width="0.05"/>
<path d="M13.0844 6C13.0844 6 12.9875 6.025 12.975 6.0625C12.9594 6.10625 12.9031 6.14375 12.8719 6.13125C12.8406 6.11875 12.7844 6.06875 12.7844 6.06875" stroke="#2B2B2B" stroke-width="0.05"/>
<path d="M12.5312 6.34058C12.5312 6.34058 12.3844 6.48433 12.4562 6.50308C12.5281 6.52183 12.6031 6.38745 12.6031 6.38745C12.6031 6.38745 12.6031 6.61558 12.6656 6.57808C12.7281 6.5437 12.9062 6.41558 12.9062 6.41558C12.9062 6.41558 12.9687 6.40933 12.9844 6.41558C12.9969 6.4187 13.15 6.55308 13.2531 6.50308C13.1937 6.65308 13.1281 6.67183 13.1281 6.67183C13.1281 6.67183 13.0219 6.80933 12.8844 6.77808C12.7469 6.74683 12.7125 6.69058 12.7125 6.69058C12.7125 6.69058 12.5969 6.69683 12.5625 6.6437L12.5125 6.56245C12.5125 6.56245 12.45 6.62495 12.4281 6.5937C12.4125 6.56245 12.4281 6.38433 12.5312 6.34058Z" fill="#2B2B2B" stroke="#2B2B2B" stroke-width="0.05" stroke-linejoin="round"/>
<path d="M13.3594 6.1375C13.3594 6.1375 13.0906 6.05625 12.9969 6.19063C12.9031 6.32188 12.925 6.39688 12.975 6.40938" stroke="#2B2B2B" stroke-width="0.05"/>
<path d="M13.4 6.12815C13.4 6.1594 13.3781 6.18752 13.35 6.18752C13.3187 6.18752 13.3 6.1594 13.3 6.12815C13.3 6.0969 13.3219 6.0719 13.35 6.0719C13.3781 6.0719 13.4 6.0969 13.4 6.12815Z" fill="black"/>
<path d="M12.6156 6.81869C12.6156 6.81869 12.725 6.98744 12.8563 7.03432C12.9875 7.08119 12.7625 7.11869 12.6344 7.03432C12.5406 6.90307 12.5656 6.80932 12.5656 6.80932C12.5656 6.80932 12.5906 6.78432 12.6156 6.81869ZM13.5563 7.81557C13.5563 7.81557 13.2469 7.38744 13.1594 7.36244C13.0688 7.34057 13.2281 7.32182 13.3219 7.41244C13.4156 7.50619 13.2969 7.26557 13.2969 7.26557L13.5563 7.81557Z" fill="#2B2B2B" stroke="#2B2B2B" stroke-width="0.05"/>
<path d="M12.5844 10.2999C12.7032 10.2687 13.2219 10.5968 13.3344 10.6781C13.4532 10.7624 13.6969 10.7093 13.6969 10.7093C13.6969 10.7093 13.5844 10.7781 13.5157 10.7937C13.4438 10.8093 13.7219 10.8093 13.7219 10.8093C13.7219 10.8093 13.0625 10.9937 12.3907 10.6406C12.3282 10.3656 12.5344 10.3031 12.5844 10.2999Z" fill="#2B2B2B" stroke="#2B2B2B" stroke-width="0.05" stroke-linejoin="round"/>
<path d="M13.3438 7.9219C13.3438 7.9219 13.2532 7.90627 13.2094 7.85627C13.1657 7.80315 13.1032 7.67815 13.0375 7.62502C12.9719 7.57502 12.6438 7.39377 12.525 7.40627C12.4063 7.41877 12.3688 7.39377 12.3532 7.37815C12.3407 7.36252 12.2907 7.3844 12.3 7.4469C12.3094 7.5094 12.2063 7.64377 12.2438 7.70627C12.3121 7.82488 12.3927 7.93591 12.4844 8.03752C12.5157 8.0469 12.4969 8.18752 12.4969 8.18752C12.4969 8.18752 12.6469 8.34065 12.6844 8.3469C12.7219 8.35627 12.7625 8.3844 12.7563 8.4219C12.7532 8.45627 12.5907 8.65315 12.5907 8.65315C12.5907 8.65315 12.4188 8.7469 12.4157 8.79377C12.4157 8.8469 12.4594 8.95002 12.5969 8.9844C12.7718 9.01243 12.9505 9.00392 13.1219 8.9594C13.1407 8.92815 13.1719 8.74065 13.1594 8.71877C13.1469 8.70002 13.0563 8.64377 13.0094 8.65002C12.9625 8.6594 12.9188 8.6969 12.925 8.70627C12.9282 8.71565 12.8594 8.75002 12.8594 8.71565C12.8594 8.6844 12.9969 8.52815 13.0094 8.54377C13.0219 8.55627 13.2157 8.57502 13.2532 8.6719C13.2875 8.76877 13.2875 8.84065 13.3907 8.82815C13.4907 8.81877 13.6344 8.72502 13.6469 8.53127C13.6517 8.4664 13.6409 8.40132 13.6154 8.3415C13.5898 8.28168 13.5502 8.22887 13.5 8.18752C13.4688 8.16565 13.3625 8.10315 13.3532 8.0719C13.3469 8.04065 13.3219 7.9469 13.3407 7.9219H13.3438Z" fill="#2B2B2B" stroke="#2B2B2B" stroke-width="0.05"/>
<path d="M11.5094 8.78129C11.5094 8.78129 11.8375 8.69691 11.9219 8.70004C12.0063 8.70004 12.3281 8.85004 12.4219 8.94066C12.5156 9.03441 12.7031 9.24691 12.8281 9.22816C12.9531 9.20941 12.9906 9.18441 12.9906 9.18441L12.9406 9.27816C12.9406 9.27816 12.8406 9.30629 12.7875 9.29379C12.7375 9.28129 12.6375 9.24691 12.5375 9.15004C12.4406 9.05629 12.1313 8.79066 11.8719 8.80941C11.6125 8.82816 11.4625 9.08441 11.4625 9.08441C11.4625 9.08441 11.4625 8.95941 11.475 8.93129C11.4844 8.90629 11.4188 8.99379 11.4188 8.99379L11.5094 8.78129Z" fill="#2B2B2B" stroke="#2B2B2B" stroke-width="0.05"/>
<path d="M12.7187 9.0375C12.7187 9.0375 12.8 9.05937 12.9375 9.05937C13.0719 9.05937 13.1437 9 13.1437 9L13.1344 8.94687L13.1562 8.875C13.1562 8.875 13.2594 8.97813 13.2594 9C13.2594 9.02187 13.2156 9.03125 13.2156 9.03125L13.2 8.97812L13.1656 9.025C13.1656 9.025 12.9687 9.18125 12.8594 9.15625C12.7531 9.13438 12.6531 9.0625 12.6812 9.04688C12.7094 9.03125 12.7219 9.0375 12.7187 9.0375ZM12.2406 9.3125C12.2406 9.3125 12.1219 9.3125 12.0687 9.3375C12.0156 9.3625 11.9969 9.39375 11.9594 9.39062C11.925 9.38437 11.8969 9.34062 11.9062 9.32187C11.9219 9.29062 11.9937 9.25312 12.125 9.2625C12.2594 9.275 12.2406 9.3125 12.2406 9.3125ZM12.6562 9.63437C12.6562 9.62812 12.6469 9.4625 12.5812 9.39375C12.5584 9.36954 12.5298 9.35143 12.4982 9.34107C12.4665 9.3307 12.4328 9.3284 12.4 9.33438C12.3625 9.34375 12.5312 9.41875 12.55 9.46562C12.5656 9.51562 12.6219 9.65312 12.6062 9.68437C12.5906 9.71562 12.5656 9.59063 12.4594 9.55313C12.3562 9.51563 12.2125 9.5375 12.2406 9.58438C12.2719 9.62813 12.3875 9.58438 12.4469 9.6875C12.4853 9.75306 12.5198 9.82089 12.55 9.89062L12.5719 9.81875L12.6219 9.80625L12.6312 9.66875L12.6562 9.63437Z" fill="#2B2B2B" stroke="#2B2B2B" stroke-width="0.05"/>
<path d="M12.5719 10.1781L12.4625 9.95932C12.4625 9.95932 12.4312 9.82495 12.3375 9.78745C12.2437 9.74682 12.125 9.7562 12.125 9.79995C12.1219 9.84682 12.3187 9.9062 12.3312 9.9312C12.3437 9.9562 12.3375 9.99995 12.3219 10.0031C12.3031 10.0031 12.2156 9.97182 12.1719 9.9812C12.1281 9.99057 12.1031 10.0499 12.0375 10.0312C11.9719 10.0156 11.9156 9.8062 11.9437 9.7812C11.9656 9.76245 11.8937 9.82182 11.8781 9.76557C11.8625 9.71245 11.9 9.54057 11.875 9.5187C11.85 9.49682 11.725 9.42495 11.725 9.40932C11.7219 9.3937 11.7312 8.56557 12.4219 9.25307C12.125 8.89995 12.0094 8.94057 11.9531 8.93745C11.9156 8.93745 11.6437 8.95932 11.5781 9.30307C11.5094 9.64682 11.4281 9.4312 11.4281 9.4312C11.4281 9.4312 11.4156 9.5812 11.4875 9.62182C11.5594 9.66557 11.4531 9.78745 11.4531 9.78745C11.4531 9.78745 11.3219 9.47495 11.3437 9.33432C11.3156 9.4437 11.3187 9.7187 11.4812 10.0156C11.7135 10.2788 12.0048 10.4833 12.3312 10.6124C12.5812 10.2281 12.5719 10.1812 12.5719 10.1749V10.1781Z" fill="#2B2B2B" stroke="#2B2B2B" stroke-width="0.05" stroke-linejoin="round"/>
<path d="M12.1188 10.1812C12.1188 10.1812 12.2563 10.1968 12.2938 10.2687C12.3344 10.3406 12.35 10.4499 12.35 10.4499C12.375 10.4031 12.3813 10.3656 12.4313 10.3312C12.4781 10.2968 12.5125 10.2906 12.5094 10.2687C12.5094 10.2406 12.3594 10.0874 12.2875 10.0781C12.2125 10.0687 12.0844 10.1593 12.0844 10.1593C12.0844 10.1593 12.0594 10.1906 12.1156 10.1812H12.1188Z" fill="#8A9396" stroke="#2B2B2B" stroke-width="0.05" stroke-linejoin="round"/>
<path d="M12.4375 10.5437C12.4375 10.5437 12.8 10.7093 13.3938 10.7187" stroke="#8A9396" stroke-width="0.05" stroke-linecap="round"/>
<path d="M13.6469 8.86255C13.6469 8.86255 13.6156 9.16567 13.3812 9.7688" stroke="#2B2B2B" stroke-width="0.05" stroke-linecap="round"/>
<path d="M13.6 9.05005C13.6 9.05005 13.5281 9.2688 13.3344 9.4313" stroke="#2B2B2B" stroke-width="0.05"/>
<path d="M12.5406 12.8219L12.6031 12.7532L12.6219 12.7688L12.6188 12.775L12.6125 12.7844V12.7907L12.6188 12.7969L12.7 12.8688L12.7063 12.875H12.7125L12.7156 12.8688C12.724 12.8605 12.7292 12.8521 12.7313 12.8438C12.7354 12.8355 12.7365 12.8271 12.7344 12.8188C12.7344 12.8084 12.7302 12.798 12.7219 12.7875L12.7469 12.775L12.7844 12.8375L12.6844 12.95L12.6656 12.9344L12.6719 12.925L12.675 12.9188V12.9125L12.6688 12.9063L12.5875 12.8344L12.5781 12.8282H12.575L12.5656 12.8344L12.5594 12.8407L12.5406 12.8219ZM12.6782 12.6688L12.7938 12.5563L12.85 12.5844L12.8406 12.6063L12.8094 12.6L12.7906 12.6063C12.7844 12.6084 12.7782 12.6136 12.7719 12.6219L12.75 12.6407L12.7813 12.675L12.7906 12.6688C12.7969 12.6646 12.8 12.6605 12.8 12.6563V12.65L12.7938 12.6407L12.7875 12.6344L12.8063 12.6157L12.8625 12.675L12.8438 12.6907L12.8375 12.6875L12.8281 12.6782H12.8219L12.8094 12.6875L12.8032 12.6938L12.8344 12.725L12.8406 12.7313H12.8438L12.85 12.725L12.8625 12.7157L12.8813 12.6907C12.8854 12.6823 12.8865 12.6719 12.8844 12.6594C12.8844 12.6511 12.8813 12.6417 12.875 12.6313L12.9 12.6188L12.9313 12.6907L12.8125 12.8063L12.7938 12.7875H12.8L12.8063 12.775V12.7688L12.8 12.7594L12.725 12.6844L12.7156 12.6782H12.7094L12.7031 12.6813L12.6969 12.6875L12.6782 12.6688ZM12.9188 12.4375C12.9438 12.4167 12.9688 12.4073 12.9938 12.4094C13.0209 12.4115 13.0438 12.424 13.0625 12.4469C13.075 12.4615 13.0834 12.4771 13.0875 12.4938C13.0917 12.5125 13.0907 12.5292 13.0844 12.5438C13.0782 12.5605 13.0667 12.5761 13.05 12.5907C13.0292 12.6094 13.0063 12.6188 12.9813 12.6188C12.9521 12.6188 12.9271 12.6063 12.9063 12.5813C12.8854 12.5605 12.8771 12.5365 12.8813 12.5094C12.8834 12.4823 12.8959 12.4584 12.9188 12.4375ZM12.9406 12.4594C12.9302 12.4698 12.925 12.4823 12.925 12.4969C12.925 12.5136 12.9323 12.5303 12.9469 12.5469C12.9615 12.5636 12.9771 12.574 12.9938 12.5782C13.0063 12.5782 13.0177 12.574 13.0281 12.5657C13.0406 12.5573 13.0469 12.5469 13.0469 12.5344C13.0469 12.5157 13.0386 12.498 13.0219 12.4813C13.0136 12.4709 13.0032 12.4625 12.9907 12.4563C12.9823 12.4521 12.9729 12.45 12.9625 12.45C12.9542 12.45 12.9469 12.4532 12.9406 12.4594ZM13.1313 12.2657L13.1469 12.2563L13.15 12.2594L13.2407 12.1969V12.1907L13.2531 12.1813L13.3125 12.2219L13.2969 12.2438L13.275 12.2344C13.2667 12.2303 13.2584 12.2292 13.25 12.2313L13.2375 12.2344L13.2344 12.2375V12.2438L13.3 12.3375L13.3063 12.3469H13.3156L13.3313 12.3375L13.3438 12.3594L13.2688 12.4157L13.2531 12.3938L13.2563 12.3907L13.2656 12.3813V12.375L13.2625 12.3657L13.1969 12.2719L13.1906 12.2657L13.1875 12.2688C13.1834 12.2709 13.1802 12.275 13.1782 12.2813C13.174 12.2875 13.1719 12.2948 13.1719 12.3032L13.175 12.3282L13.15 12.3344L13.1313 12.2657ZM13.3063 12.1563L13.4438 12.0688L13.4969 12.1094L13.4781 12.1313L13.4531 12.1188H13.4313C13.425 12.1188 13.4177 12.1219 13.4094 12.1282L13.3844 12.1438L13.4094 12.1844L13.4156 12.1782L13.4282 12.1719V12.1625L13.425 12.15L13.4219 12.1438L13.4438 12.1313L13.4844 12.2032L13.4625 12.2157L13.4594 12.2063L13.45 12.1969H13.4438L13.4313 12.2032L13.4219 12.2063L13.4469 12.2469L13.45 12.2532H13.4531L13.4625 12.25L13.475 12.2407L13.5 12.2219L13.5094 12.1938V12.1625L13.5344 12.1563L13.55 12.2313L13.4063 12.3188L13.3938 12.2969L13.3969 12.2938L13.4063 12.2844C13.4084 12.2844 13.4084 12.2823 13.4063 12.2782V12.2688L13.35 12.1782L13.3406 12.1688H13.3375L13.3281 12.1719L13.3219 12.175L13.3063 12.1532V12.1563ZM13.5 12.0375L13.6094 11.9813L13.6313 11.9719C13.6396 11.9678 13.649 11.9667 13.6594 11.9688C13.6677 11.9688 13.675 11.9709 13.6813 11.975L13.6969 11.9938C13.7052 12.0084 13.7063 12.0219 13.7 12.0344C13.6959 12.0469 13.6875 12.0573 13.675 12.0657L13.7313 12.0907H13.7344L13.7438 12.0938H13.7531L13.7594 12.0907L13.7688 12.0875L13.7781 12.1094L13.725 12.1407L13.6313 12.0938L13.6157 12.1L13.6344 12.1344L13.6406 12.1469H13.6563L13.6625 12.1407L13.675 12.1657L13.5906 12.2094L13.5781 12.1844L13.5875 12.1813L13.5938 12.175L13.5969 12.1688L13.5938 12.1594L13.5438 12.0625L13.5375 12.0563C13.5375 12.0542 13.5354 12.0542 13.5313 12.0563H13.5219L13.5156 12.0594L13.5031 12.0375H13.5ZM13.5813 12.0313L13.6031 12.075L13.6281 12.0625C13.6386 12.0584 13.6459 12.0532 13.65 12.0469L13.6563 12.0344V12.0188L13.6438 12.0094H13.6313L13.6094 12.0157L13.5781 12.0313H13.5813ZM13.7188 11.925L13.8313 11.875L13.8531 11.8688H13.8813C13.8896 11.8688 13.8969 11.8709 13.9031 11.875L13.9188 11.8969C13.925 11.9094 13.925 11.9219 13.9188 11.9344C13.9125 11.9469 13.9031 11.9573 13.8906 11.9657L13.9469 11.9938L13.9594 11.9969H13.975L13.9813 11.9907L13.9938 12.0157L13.9375 12.0407L13.8438 11.9907L13.8313 11.9969L13.8469 12.0313L13.8531 12.0438H13.8657L13.875 12.0407L13.8844 12.0625L13.8 12.1032L13.7875 12.0782L13.7969 12.075L13.8032 12.0688L13.8063 12.0625L13.8032 12.0532L13.7594 11.9532C13.7594 11.949 13.7573 11.9459 13.7531 11.9438H13.7375L13.7313 11.95L13.7219 11.925H13.7188ZM13.8 11.925L13.8188 11.9719L13.8469 11.9594L13.8688 11.9469C13.8729 11.9428 13.875 11.9375 13.875 11.9313V11.9188L13.8657 11.9063H13.85L13.8281 11.9125L13.7969 11.925H13.8ZM14.0125 11.8032L14.0532 11.7875L14.1594 11.9094L14.1719 11.9188H14.1875L14.1938 11.9438L14.1094 11.975L14.1 11.95L14.1063 11.9469C14.1104 11.9469 14.1136 11.9448 14.1157 11.9407V11.9344L14.1094 11.9282L14.0969 11.9125L14.0438 11.9313V11.9625L14.0532 11.9657L14.0656 11.9625L14.075 11.9875L14.0031 12.0125L13.9938 11.9875C13.9979 11.9875 14.0011 11.9855 14.0031 11.9813L14.0063 11.9782V11.9657L14.0125 11.8032ZM14.0438 11.9032L14.0781 11.8907L14.0438 11.8469V11.9032ZM14.1625 11.75L14.2469 11.725L14.3125 11.8282V11.7032L14.4 11.6813L14.4063 11.7063L14.3969 11.7094C14.3927 11.7094 14.3896 11.7115 14.3875 11.7157V11.7282L14.4188 11.8344L14.4219 11.8407L14.4282 11.8438H14.4469L14.4531 11.8657L14.3625 11.8938L14.3563 11.8657H14.3625C14.3688 11.8657 14.3719 11.8636 14.3719 11.8594L14.375 11.8563V11.8469L14.3438 11.7313L14.3406 11.9L14.3156 11.9063L14.2281 11.7688L14.2594 11.8844L14.2625 11.8875L14.2688 11.8907H14.2781L14.2875 11.8875L14.2938 11.9125L14.2188 11.9344L14.2094 11.9094H14.2188L14.2281 11.9032V11.8875L14.1969 11.7844V11.775L14.1906 11.7719H14.1719L14.1625 11.75ZM14.55 11.6469L14.65 11.6282H14.6813C14.6917 11.6282 14.7 11.6303 14.7063 11.6344C14.7146 11.6386 14.7209 11.6438 14.725 11.65L14.7344 11.6719C14.7365 11.6886 14.7323 11.7032 14.7219 11.7157C14.7115 11.7303 14.6959 11.7396 14.675 11.7438L14.6438 11.75L14.65 11.7844V11.7938H14.675L14.6782 11.8188L14.5844 11.8375V11.8125H14.5875L14.6 11.8063V11.7907L14.5813 11.6875V11.675L14.575 11.6719H14.5563L14.55 11.6469ZM14.625 11.6657L14.6375 11.7188H14.6531L14.675 11.7094L14.6844 11.6969V11.6813C14.6844 11.673 14.6802 11.6667 14.6719 11.6625C14.6656 11.6605 14.6573 11.6605 14.6469 11.6625H14.625V11.6657ZM14.7563 11.6094L14.875 11.5938H14.9L14.925 11.6C14.9334 11.6042 14.9396 11.6094 14.9438 11.6157C14.95 11.6219 14.9531 11.6292 14.9531 11.6375C14.9552 11.6521 14.9521 11.6646 14.9438 11.675C14.9334 11.6855 14.9219 11.6938 14.9094 11.7L14.9531 11.7407L14.9625 11.7469L14.9688 11.75H14.9875V11.775L14.9282 11.7844L14.8563 11.7094H14.8406L14.8469 11.7469V11.7594L14.8531 11.7657H14.8719V11.7907L14.7781 11.8032V11.775H14.7844L14.7938 11.7719L14.8 11.7657V11.7563L14.7844 11.6469V11.6375H14.7594L14.7563 11.6094ZM14.8313 11.6313L14.8375 11.6813H14.8688L14.8906 11.6719L14.9031 11.6625V11.6469L14.9 11.6344L14.8875 11.6282H14.8625L14.8313 11.6313ZM15.1063 11.5719C15.1354 11.5698 15.1604 11.5771 15.1813 11.5938C15.2021 11.6125 15.2125 11.6365 15.2125 11.6657C15.2125 11.6865 15.2094 11.7042 15.2031 11.7188C15.1948 11.7334 15.1844 11.7459 15.1719 11.7563C15.1552 11.7646 15.1365 11.7698 15.1157 11.7719C15.0865 11.7719 15.0625 11.7657 15.0438 11.7532C15.0209 11.7344 15.0084 11.7094 15.0063 11.6782C15.0063 11.649 15.0146 11.624 15.0313 11.6032C15.05 11.5823 15.075 11.5719 15.1063 11.5719ZM15.1063 11.6032C15.0917 11.6032 15.0813 11.6094 15.075 11.6219C15.0625 11.6344 15.0573 11.6521 15.0594 11.675C15.0594 11.6959 15.0656 11.7125 15.0781 11.725C15.0865 11.7355 15.0979 11.7407 15.1125 11.7407C15.1271 11.7407 15.1386 11.7344 15.1469 11.7219C15.1573 11.7094 15.1615 11.6917 15.1594 11.6688C15.1594 11.6542 15.1563 11.6417 15.15 11.6313C15.1459 11.6209 15.1396 11.6136 15.1313 11.6094C15.1229 11.6032 15.1146 11.6011 15.1063 11.6032ZM15.25 11.5688H15.3563L15.3875 11.5719L15.4094 11.5844L15.4219 11.6032L15.4282 11.6282C15.4282 11.6448 15.4219 11.6584 15.4094 11.6688C15.3969 11.6792 15.3792 11.6844 15.3563 11.6844H15.325V11.7313L15.3375 11.7344H15.3469V11.7625H15.2531V11.7344H15.2688L15.2719 11.7313V11.7188L15.275 11.6125V11.6L15.2719 11.5969H15.2531V11.5657L15.25 11.5688ZM15.3219 11.6V11.6563H15.3406L15.3625 11.6532L15.3719 11.6438C15.3761 11.6396 15.3781 11.6344 15.3781 11.6282C15.3781 11.6178 15.375 11.6105 15.3688 11.6063C15.3625 11.6021 15.3542 11.6 15.3438 11.6H15.3219ZM15.4625 11.5688L15.5813 11.5782L15.6063 11.5813L15.6313 11.5938C15.6375 11.598 15.6427 11.6042 15.6469 11.6125L15.65 11.6375C15.65 11.6521 15.6438 11.6625 15.6313 11.6688C15.6209 11.6792 15.6084 11.6855 15.5938 11.6875L15.6313 11.7344V11.7375L15.6375 11.7469H15.6438L15.6531 11.75H15.6625V11.7782L15.6 11.775L15.5406 11.6875H15.525V11.7375H15.5438V11.7688L15.45 11.7594V11.7344H15.4688L15.475 11.7282V11.7188L15.4813 11.6094V11.6L15.4719 11.5938H15.4594V11.5657L15.4625 11.5688ZM15.5313 11.6063L15.5281 11.6563H15.5563C15.5667 11.6584 15.575 11.6584 15.5813 11.6563C15.5875 11.6563 15.5917 11.6542 15.5938 11.65C15.5979 11.6459 15.6 11.6407 15.6 11.6344V11.6219L15.5875 11.6125L15.5625 11.6094H15.5313V11.6063ZM15.7 11.5875L15.7938 11.6V11.6282H15.7844C15.7781 11.6261 15.774 11.6261 15.7719 11.6282L15.7656 11.6407L15.7531 11.7469V11.7594H15.7563L15.7656 11.7657H15.775L15.7719 11.7938L15.6782 11.7813L15.6813 11.7532H15.6875C15.6938 11.7553 15.6979 11.7553 15.7 11.7532H15.7031L15.7063 11.7438L15.7188 11.6344V11.6188H15.7063L15.6969 11.6157L15.7 11.5875ZM15.9031 11.6157L15.9469 11.625L15.9781 11.7813C15.9781 11.7896 15.9802 11.7948 15.9844 11.7969L15.9969 11.8032L15.9907 11.8282L15.9 11.8125L15.9063 11.7875H15.9219L15.925 11.7844V11.7532L15.8625 11.7438L15.8531 11.7625V11.7688C15.8511 11.7709 15.8511 11.773 15.8531 11.775H15.8563L15.8688 11.7813L15.8657 11.8063L15.7906 11.7938L15.7938 11.7688H15.8063L15.8125 11.7657L15.8188 11.7563L15.9031 11.6157ZM15.8781 11.7188L15.9188 11.725L15.9094 11.6688L15.8781 11.7188ZM16.0625 11.6438L16.1469 11.6657L16.1532 11.7907L16.2157 11.6844L16.3 11.7063L16.2938 11.7313H16.2844C16.2802 11.7271 16.2771 11.7271 16.275 11.7313C16.2709 11.7313 16.2688 11.7344 16.2688 11.7407L16.2407 11.8469V11.8594L16.25 11.8625L16.2594 11.8657L16.2531 11.8938L16.1625 11.8688L16.1688 11.8438H16.1782L16.1875 11.8469H16.1938V11.8344L16.225 11.7188L16.1406 11.8657L16.1157 11.8563L16.1063 11.6969L16.0781 11.8094V11.8157L16.0813 11.8219H16.0907L16.1 11.825L16.0938 11.8532L16.0156 11.8344L16.0219 11.8063H16.0313L16.0406 11.8094H16.0438L16.05 11.7969L16.075 11.6907V11.6782L16.0656 11.675L16.0563 11.6719L16.0625 11.6438ZM16.4531 11.7532L16.5469 11.7875L16.5781 11.8032L16.5938 11.8219L16.6 11.8438L16.5969 11.8688C16.5906 11.8834 16.5802 11.8938 16.5656 11.9C16.549 11.9063 16.5302 11.9063 16.5094 11.9L16.4781 11.8875L16.4657 11.9188V11.9344L16.475 11.9407H16.4844L16.475 11.9688L16.3844 11.9375L16.3938 11.9094H16.4L16.4125 11.9157H16.4156L16.4219 11.9032L16.4594 11.8032V11.7875L16.45 11.7813H16.4438L16.4531 11.7532ZM16.5063 11.8063L16.4875 11.8594L16.5031 11.8657L16.525 11.8688L16.5406 11.8657L16.55 11.85C16.5521 11.8417 16.5511 11.8344 16.5469 11.8282C16.5427 11.8219 16.5365 11.8178 16.5282 11.8157L16.5063 11.8063ZM16.65 11.825L16.7594 11.875L16.7813 11.8875C16.7896 11.8917 16.7959 11.898 16.8 11.9063L16.8094 11.9282L16.8032 11.9532C16.7969 11.9678 16.7875 11.9771 16.775 11.9813H16.7344L16.75 12.0407L16.7563 12.05L16.7594 12.0563L16.7688 12.0625H16.775L16.7656 12.0907L16.7094 12.0657L16.6844 11.9625L16.6688 11.9563L16.6532 11.9907V12.0094L16.6594 12.0125L16.6688 12.0188L16.6563 12.0407L16.5719 12.0032L16.5813 11.9782L16.5907 11.9813L16.6 11.9844H16.6063L16.6094 11.975L16.6532 11.875L16.6563 11.8657V11.8594L16.65 11.8563H16.6438L16.6375 11.8532L16.65 11.825ZM16.7031 11.8844L16.6813 11.9313L16.7094 11.9407C16.7177 11.9469 16.725 11.95 16.7313 11.95L16.7469 11.9469C16.7511 11.9448 16.7542 11.9407 16.7563 11.9344C16.7584 11.9303 16.7584 11.9261 16.7563 11.9219L16.7531 11.9094L16.7313 11.8969L16.7 11.8844H16.7031ZM16.9688 11.975C16.9959 11.9896 17.0136 12.0094 17.0219 12.0344C17.0302 12.0594 17.0271 12.0855 17.0125 12.1125C17.0042 12.1292 16.9927 12.1417 16.9781 12.15C16.9636 12.1605 16.9469 12.1657 16.9282 12.1657C16.9115 12.1657 16.8938 12.1605 16.875 12.15C16.85 12.1375 16.8323 12.1198 16.8219 12.0969C16.8115 12.0698 16.8146 12.0428 16.8313 12.0157C16.8438 11.9886 16.8636 11.9709 16.8906 11.9625C16.9156 11.9563 16.9417 11.9605 16.9688 11.975ZM16.9563 12.0032C16.9438 11.9948 16.9302 11.9938 16.9156 12C16.9011 12.0063 16.8886 12.0198 16.8781 12.0407C16.8677 12.0594 16.8636 12.0771 16.8657 12.0938C16.8677 12.1063 16.8761 12.1167 16.8906 12.125C16.9031 12.1313 16.9157 12.1313 16.9282 12.125C16.9427 12.1188 16.9552 12.1063 16.9657 12.0875C16.974 12.073 16.9781 12.0605 16.9781 12.05C16.9781 12.0375 16.9761 12.0271 16.9719 12.0188L16.9563 12.0032ZM17.1125 12.05L17.1281 12.0594V12.0657L17.2219 12.125L17.225 12.1219L17.2407 12.1313L17.225 12.2L17.2 12.1938V12.1688C17.2 12.1605 17.1979 12.1532 17.1938 12.1469L17.1844 12.1344H17.1782L17.175 12.1407L17.1157 12.2344L17.1094 12.2469V12.25L17.1125 12.2532L17.125 12.2625L17.1125 12.2844L17.0313 12.2344L17.0469 12.2125L17.05 12.2157L17.0625 12.2219H17.0656L17.075 12.2094L17.1375 12.1157V12.1063H17.1344C17.1302 12.1021 17.124 12.1 17.1157 12.1L17.0969 12.1032L17.075 12.1157L17.0563 12.0969L17.1125 12.05ZM17.2875 12.1688L17.4188 12.2625L17.4 12.325L17.375 12.3188V12.2875L17.3688 12.2688C17.3646 12.2625 17.3584 12.2573 17.35 12.2532L17.3281 12.2344L17.2969 12.275L17.3063 12.2813L17.3188 12.2875H17.3281L17.3344 12.275L17.3407 12.2688L17.3594 12.2844L17.3125 12.35L17.2938 12.3375L17.2969 12.3313L17.3032 12.3188V12.3125L17.2906 12.3L17.2813 12.2969L17.2563 12.3313L17.2531 12.3407L17.2594 12.35L17.2719 12.3594L17.3032 12.3719C17.3115 12.374 17.3198 12.374 17.3281 12.3719C17.3386 12.3698 17.349 12.3646 17.3594 12.3563L17.3719 12.3782L17.3094 12.4219L17.175 12.3282L17.1906 12.3032L17.1938 12.3063L17.2063 12.3125H17.2125L17.2188 12.3032L17.2813 12.2157L17.2875 12.2063V12.2032L17.2782 12.1938L17.2719 12.1907L17.2875 12.1688ZM17.5031 12.4438L17.575 12.5063L17.5594 12.525L17.5532 12.5219L17.5469 12.5157H17.5406L17.5313 12.525L17.4938 12.5719L17.4719 12.5532L17.475 12.5375L17.4438 12.5313L17.4219 12.5157C17.4073 12.5032 17.3969 12.4896 17.3906 12.475C17.3865 12.4584 17.3865 12.4417 17.3906 12.425C17.3906 12.4084 17.3969 12.3917 17.4094 12.375C17.4219 12.3605 17.4365 12.35 17.4531 12.3438C17.4698 12.3375 17.4865 12.3365 17.5031 12.3407C17.5198 12.3428 17.5354 12.349 17.55 12.3594L17.5656 12.3782L17.5781 12.4L17.5875 12.3969L17.6031 12.4094L17.575 12.4719L17.55 12.4594V12.425L17.5469 12.4032L17.5344 12.3875L17.5094 12.3782L17.4813 12.3844C17.4729 12.3886 17.4636 12.3969 17.4531 12.4094L17.4344 12.4407V12.475C17.4365 12.4834 17.4417 12.4907 17.45 12.4969L17.4657 12.5063H17.4813L17.4938 12.5L17.4969 12.4938L17.5031 12.4844V12.4813L17.4938 12.4719L17.4875 12.4657L17.5031 12.4438ZM17.7125 12.5063L17.7438 12.5375L17.6844 12.6875C17.6802 12.6938 17.6792 12.699 17.6813 12.7032L17.6875 12.7125L17.6688 12.7344L17.6063 12.6719L17.6219 12.65L17.625 12.6563L17.6344 12.6594H17.6406L17.6469 12.65L17.6532 12.6344L17.6094 12.5938L17.5907 12.6032L17.5844 12.6063V12.6157L17.5938 12.625L17.575 12.6438L17.5219 12.5938L17.5406 12.575L17.5469 12.5813H17.5532L17.5656 12.5782L17.7125 12.5063ZM17.6375 12.5782L17.6656 12.6063L17.6875 12.5532L17.6375 12.5782ZM17.8407 12.6219L17.8531 12.6344L17.85 12.6407L17.925 12.7188H17.9313L17.9438 12.7282L17.9125 12.7907L17.8875 12.7813L17.8938 12.7563V12.7344C17.8938 12.7282 17.8917 12.723 17.8875 12.7188H17.8813L17.875 12.7219L17.7969 12.8L17.7875 12.8094V12.8157L17.7969 12.8282L17.7782 12.8469L17.7157 12.7782L17.7344 12.7594V12.7657L17.7469 12.7719H17.7531L17.7625 12.7657L17.8438 12.6875L17.8469 12.6813V12.6782L17.8313 12.6688H17.8094L17.7844 12.675L17.775 12.65L17.8375 12.6188L17.8407 12.6219Z" fill="black"/>
<path d="M0 0H10V7.5H0V0Z" fill="#012169"/>
<path d="M1.17188 0L4.98438 2.82812L8.78125 0H10V0.96875L6.25 3.76562L10 6.54688V7.5H8.75L5 4.70312L1.26562 7.5H0V6.5625L3.73438 3.78125L0 1V0H1.17188Z" fill="white"/>
<path d="M6.625 4.39062L10 6.875V7.5L5.76562 4.39062H6.625ZM3.75 4.70312L3.84375 5.25L0.84375 7.5H0L3.75 4.70312ZM10 0V0.046875L6.10938 2.98438L6.14062 2.29688L9.21875 0H10ZM0 0L3.73438 2.75H2.79688L0 0.65625V0Z" fill="#C8102E"/>
<path d="M3.76562 0V7.5H6.26562V0H3.76562ZM0 2.5V5H10V2.5H0Z" fill="white"/>
<path d="M0 3.01562V4.51562H10V3.01562H0ZM4.26562 0V7.5H5.76562V0H4.26562Z" fill="#C8102E"/>
</g>
<defs>
<linearGradient id="paint0_linear_14_433" x1="16.1486" y1="4.66896" x2="16.1596" y2="3.95157" gradientUnits="userSpaceOnUse">
<stop stop-color="#474747"/>
<stop offset="1" stop-color="#FF5500"/>
</linearGradient>
<linearGradient id="paint1_linear_14_433" x1="15.9047" y1="7.36176" x2="15.9059" y2="7.76704" gradientUnits="userSpaceOnUse">
<stop stop-color="#B50000"/>
<stop offset="1" stop-color="#FFC500"/>
</linearGradient>
<linearGradient id="paint2_linear_14_433" x1="17.6839" y1="7.60933" x2="18.3459" y2="7.60066" gradientUnits="userSpaceOnUse">
<stop stop-color="#D5DFFF"/>
<stop offset="1" stop-color="white"/>
</linearGradient>
<linearGradient id="paint3_linear_14_433" x1="16.0225" y1="4.53282" x2="16.2609" y2="4.53282" gradientUnits="userSpaceOnUse">
<stop stop-color="#474747"/>
<stop offset="1" stop-color="#FF5500"/>
</linearGradient>
<linearGradient id="paint4_linear_14_433" x1="19.4717" y1="10.9382" x2="19.3557" y2="10.2172" gradientUnits="userSpaceOnUse">
<stop stop-color="#D5DFFF"/>
<stop offset="1" stop-color="white"/>
</linearGradient>
<linearGradient id="paint5_linear_14_433" x1="17.8443" y1="7.85637" x2="17.5485" y2="7.37926" gradientUnits="userSpaceOnUse">
<stop stop-color="#D5DFFF"/>
<stop offset="1" stop-color="white"/>
</linearGradient>
<clipPath id="clip0_14_433">
<rect width="20" height="15" fill="white"/>
</clipPath>
</defs>
</svg>
