<svg width="20" height="15" viewBox="0 0 20 15" fill="none" xmlns="http://www.w3.org/2000/svg">
<g clip-path="url(#clip0_14_505)">
<path d="M0 0H20V15H0V0Z" fill="#4997D0"/>
<path d="M6.66565 0H13.3344V15H6.66565V0Z" fill="white"/>
<path d="M9.29381 9.4989C9.36226 9.48857 9.4003 9.46791 9.44593 9.45242M9.50425 9.34654C9.53792 9.38092 9.56387 9.42233 9.58031 9.46791M9.37494 9.33621C9.40716 9.36682 9.43302 9.4037 9.451 9.44467M8.19598 5.91698C8.17062 5.9583 8.11992 5.9867 8.07428 6.00478M8.06667 5.99962C8.06667 5.96346 8.0616 5.92214 8.06667 5.88599M8.0185 6.01511C8.0185 6.02544 8.02864 6.05127 8.03371 6.06676M8.08695 6.09259L8.03625 6.10033M7.93483 6.07709C7.93483 6.14424 7.94244 6.22171 7.94751 6.28111M7.90187 6.25528C7.91455 6.27594 7.92722 6.29402 7.94244 6.30435M7.82581 6.47221C7.83849 6.49546 7.85116 6.52386 7.85877 6.57551M7.95258 6.45414L7.90187 6.49287M7.94497 6.6065C7.91962 6.62975 7.88919 6.64524 7.85623 6.66074M7.75989 7.70407C7.78564 7.75085 7.82009 7.79207 7.8613 7.82544M7.87652 7.86935C7.84973 7.86598 7.82387 7.8572 7.80045 7.84352M7.91201 8.06303L7.95511 8.08886M7.94497 8.17666C7.9754 8.19732 8.00836 8.23606 8.03878 8.27738M8.00329 8.34969C8.03878 8.35744 8.06667 8.36777 8.08442 8.37552M8.05907 8.44008H8.10977M8.14273 8.30321L8.13006 8.41167M8.15541 8.45299L8.16555 8.41167M8.28472 8.56662L8.28218 8.64926M9.27606 9.36978L9.24564 9.4111M9.18479 9.31038L9.16704 9.2639" stroke="#24420E" stroke-width="0.0163766"/>
<path d="M10.1559 9.6926C10.1349 9.66189 10.1059 9.63775 10.0722 9.62287C9.87698 9.51957 9.68175 9.4705 9.4637 9.43435C9.41046 9.4266 9.35975 9.37753 9.30651 9.35171C9.17974 9.29231 9.04029 9.26907 8.91859 9.20451C8.91099 9.20192 8.88056 9.18385 8.86788 9.16577C8.81718 9.10895 8.72844 9.09088 8.67519 9.03664C8.46222 8.83521 8.2391 8.64927 8.12248 8.37811C7.98049 8.05013 7.80555 7.71182 7.82837 7.33994C7.84358 7.10235 7.81062 6.86476 7.8664 6.64267C7.9526 6.30694 8.05909 5.97896 8.25685 5.70264L8.22389 5.7233C8.03613 6.0075 7.90359 6.32572 7.83344 6.66074C7.77512 6.88542 7.80809 7.12559 7.79541 7.35802C7.77005 7.73248 7.94753 8.07079 8.08698 8.39877C8.20361 8.66735 8.42926 8.85587 8.6397 9.05989C8.69548 9.11154 8.78168 9.12961 8.83239 9.18901C8.84763 9.20403 8.86467 9.21705 8.8831 9.22775C9.00733 9.28973 9.14678 9.31297 9.27355 9.37495C9.32426 9.40078 9.37497 9.44726 9.42567 9.45759C9.6389 9.48453 9.84624 9.54736 10.0392 9.64353C10.0728 9.65864 10.1017 9.68273 10.1229 9.71326L10.1559 9.69002" fill="#406325"/>
<path d="M10.1559 9.6926C10.1349 9.66189 10.1059 9.63775 10.0722 9.62287C9.87698 9.51957 9.68175 9.4705 9.4637 9.43435C9.41046 9.4266 9.35975 9.37753 9.30651 9.35171C9.17974 9.29231 9.04029 9.26907 8.91859 9.20451C8.91099 9.20192 8.88056 9.18385 8.86788 9.16577C8.81718 9.10895 8.72844 9.09088 8.67519 9.03664C8.46222 8.83521 8.2391 8.64927 8.12248 8.37811C7.98049 8.05013 7.80555 7.71182 7.82837 7.33994C7.84358 7.10235 7.81062 6.86476 7.8664 6.64267C7.9526 6.30694 8.05909 5.97896 8.25685 5.70264L8.22389 5.7233C8.03613 6.0075 7.90359 6.32572 7.83344 6.66074C7.77512 6.88542 7.80809 7.12559 7.79541 7.35802C7.77005 7.73248 7.94753 8.07079 8.08698 8.39877C8.20361 8.66735 8.42926 8.85587 8.6397 9.05989C8.69548 9.11154 8.78168 9.12961 8.83239 9.18901C8.84763 9.20403 8.86467 9.21705 8.8831 9.22775C9.00733 9.28973 9.14678 9.31297 9.27355 9.37495C9.32426 9.40078 9.37497 9.44726 9.42567 9.45759C9.6389 9.48453 9.84624 9.54736 10.0392 9.64353C10.0728 9.65864 10.1017 9.68273 10.1229 9.71326L10.1559 9.69002" stroke="#24420E" stroke-width="0.0081883"/>
<path d="M8.1326 8.31355C8.08038 8.11497 8.07863 7.90612 8.12753 7.70667C8.29741 8.04239 8.24163 8.31872 8.1326 8.31355ZM9.29636 9.48601C9.08964 9.53426 8.89848 9.63561 8.7411 9.78041C9.12395 9.78299 9.3496 9.59189 9.29636 9.48601ZM9.48651 9.37496C9.31335 9.18103 9.19124 8.94559 9.13156 8.6906C9.51187 8.97209 9.61075 9.31815 9.48651 9.37496Z" fill="#67923D" stroke="#24420E" stroke-width="0.0081883"/>
<path d="M9.35722 9.37757C9.17472 9.21993 9.03504 9.01718 8.95156 8.78876C9.33947 9.00053 9.46624 9.31043 9.35722 9.37757ZM8.9617 9.20196C8.98705 9.00053 8.81971 8.577 8.77154 8.53051C8.69548 8.95663 8.8476 9.24328 8.9617 9.20196ZM8.26953 8.57442C8.22859 8.39547 8.23295 8.20886 8.28221 8.03209C8.42166 8.33424 8.36588 8.57958 8.26953 8.57442ZM7.92218 6.59106C8.06098 6.40811 8.24461 6.2656 8.45462 6.17786C8.28221 6.5549 7.99824 6.69177 7.92218 6.59106Z" fill="#67923D" stroke="#24420E" stroke-width="0.0081883"/>
<path d="M7.93991 6.44643C8.04049 6.2382 8.19253 6.06021 8.38107 5.92993C8.28726 6.33538 8.03372 6.52907 7.93991 6.44643ZM8.64729 9.00827C8.53014 8.80055 8.46647 8.56601 8.46221 8.32649C8.74617 8.6493 8.76646 8.97986 8.64476 9.00827H8.64729ZM7.91963 8.06566C7.74215 8.09407 7.37705 7.94686 7.33649 7.90296C7.70666 7.82032 7.95513 7.95461 7.91963 8.06566ZM7.86385 7.81516C7.88414 7.67312 8.0819 7.40712 8.125 7.38646C8.09964 7.69636 7.93738 7.86681 7.86385 7.81516ZM9.16451 9.3285C8.91755 9.38455 8.68937 9.50566 8.50277 9.67972C8.95915 9.6823 9.23044 9.45504 9.16451 9.3285Z" fill="#67923D" stroke="#24420E" stroke-width="0.0081883"/>
<path d="M8.13513 8.31104C8.24162 8.31621 8.2974 8.04246 8.12752 7.70674C8.15954 7.90667 8.1621 8.11034 8.13513 8.31104ZM8.4191 8.82754C8.26273 8.68519 8.07341 8.58566 7.86891 8.5383C8.09456 8.85078 8.37346 8.92826 8.4191 8.82754ZM7.80046 7.45882C7.72851 7.22337 7.59945 7.01021 7.42522 6.83902C7.46325 7.28321 7.69397 7.52854 7.80046 7.45882ZM8.01343 8.34461C7.88666 8.24906 7.5317 8.20516 7.481 8.22065C7.73961 8.43758 7.99315 8.44017 8.01343 8.34461ZM7.7751 7.70415C7.66559 7.54898 7.51778 7.42604 7.34662 7.34777C7.48607 7.668 7.71679 7.78679 7.7751 7.70157V7.70415ZM7.84609 6.47488C7.86638 6.27861 7.70411 5.87058 7.65847 5.82409C7.58495 6.23729 7.732 6.51362 7.84356 6.47488H7.84609ZM7.95765 6.09009C8.02611 5.92223 7.97793 5.51161 7.94497 5.45996C7.78271 5.8086 7.84863 6.09526 7.95765 6.09009Z" fill="#406325" stroke="#24420E" stroke-width="0.0081883"/>
<path d="M8.08445 5.89119C8.15429 5.73425 8.18478 5.56209 8.17319 5.39018C7.99064 5.64069 7.99571 5.87828 8.08445 5.89119ZM8.23657 5.73366C8.34911 5.60622 8.42768 5.4515 8.46476 5.2843C8.21882 5.46508 8.15544 5.69234 8.23657 5.73366ZM7.82837 6.8493C7.83091 6.87254 7.80302 6.63753 7.57483 6.3767C7.58497 6.75891 7.73202 6.90353 7.82837 6.8493ZM8.65491 9.06508C8.45326 8.95787 8.22818 8.90455 8.00078 8.91013C8.32024 9.17871 8.63209 9.18388 8.65491 9.06508ZM8.9617 9.20195C8.84507 9.24069 8.69548 8.95662 8.76901 8.5305C8.80192 8.76213 8.8659 8.98806 8.95916 9.20195H8.9617ZM9.29891 9.48603C9.34961 9.59191 9.1265 9.78302 8.74619 9.78043C9.05044 9.65131 9.28369 9.52477 9.29891 9.48861V9.48603ZM9.48399 9.3724C9.60823 9.313 9.51188 8.97211 9.12903 8.69062C9.34708 9.03151 9.49667 9.32591 9.48399 9.3724Z" fill="#406325" stroke="#24420E" stroke-width="0.0081883"/>
<path d="M9.35722 9.37497C9.46371 9.30525 9.33947 9.00051 8.95156 8.78875C9.19242 9.07799 9.36229 9.33107 9.35722 9.37497ZM8.27207 8.5744C8.36588 8.57956 8.42419 8.33423 8.28474 8.03207C8.30249 8.31615 8.29488 8.54857 8.27207 8.5744ZM7.92218 6.59362C7.99824 6.69175 8.27714 6.55746 8.45208 6.18042C8.29614 6.34369 8.11762 6.48289 7.92218 6.59362Z" fill="#406325" stroke="#24420E" stroke-width="0.0081883"/>
<path d="M7.94498 6.44643C8.03626 6.52907 8.28726 6.33538 8.38107 5.92993C8.17824 6.22175 7.98555 6.44127 7.94498 6.44643ZM8.64729 9.00569C8.76646 8.97728 8.74871 8.6493 8.46221 8.32649C8.58898 8.67513 8.66504 8.96695 8.64729 9.00569ZM7.91456 8.06566C7.95006 7.95461 7.70412 7.8229 7.33649 7.90296C7.64834 7.95978 7.89428 8.03209 7.91456 8.06566ZM7.86639 7.81774C7.93991 7.86422 8.09711 7.69636 8.12753 7.38646C8.06122 7.54222 7.97327 7.68747 7.86639 7.81774ZM9.16451 9.33108C9.2279 9.46021 8.96168 9.68489 8.50531 9.6823C8.86534 9.52994 9.14677 9.37757 9.16451 9.33108Z" fill="#406325" stroke="#24420E" stroke-width="0.0081883"/>
<path d="M7.95769 8.17671C7.85152 8.00465 7.7029 7.86396 7.52667 7.76868C7.65344 8.1199 7.8867 8.26193 7.95769 8.17671Z" fill="#406325" stroke="#24420E" stroke-width="0.0081883"/>
<path d="M7.78017 6.82604C7.88159 6.70466 8.22387 6.58845 8.27711 6.59361C8.07428 6.86477 7.82074 6.91901 7.78017 6.82604ZM8.41656 8.82747C8.37092 8.93077 8.09456 8.8533 7.86638 8.54082C8.03519 8.66298 8.22051 8.75954 8.41656 8.82747ZM7.79792 7.45875C7.69143 7.52848 7.46578 7.28314 7.42522 6.83895C7.59255 7.18242 7.75482 7.44584 7.79792 7.45875ZM8.0109 8.34455C7.99315 8.4401 7.73961 8.43752 7.48353 8.22317C7.65264 8.28935 7.83028 8.33023 8.0109 8.34455ZM7.77003 7.7015C7.71172 7.78414 7.48607 7.66793 7.34662 7.3477C7.55452 7.5543 7.73961 7.7015 7.77257 7.7015H7.77003ZM7.84102 6.47223C7.72947 6.51355 7.58495 6.23981 7.65594 5.82661C7.72439 6.17525 7.80806 6.45157 7.84102 6.47223ZM7.95512 6.08744C7.84609 6.09519 7.78017 5.80853 7.94244 5.45989C7.92216 5.79045 7.92976 6.06162 7.95512 6.08744ZM8.08189 5.89117C7.99568 5.87568 7.98808 5.64067 8.17316 5.39017C8.11834 5.55158 8.08757 5.72046 8.08189 5.89117ZM8.23401 5.73364C8.15541 5.68974 8.21626 5.46506 8.4622 5.28687C8.3649 5.4235 8.288 5.57406 8.23401 5.73364Z" fill="#67923D" stroke="#24420E" stroke-width="0.0081883"/>
<path d="M7.82836 6.84931C7.72948 6.90354 7.58496 6.75892 7.57482 6.37671C7.70159 6.67886 7.79286 6.83639 7.82836 6.84931ZM8.65236 9.06509C8.62955 9.18389 8.32023 9.17872 8.00077 8.91272C8.33544 9.02377 8.61687 9.08575 8.65236 9.06509ZM8.44446 8.81975C8.34875 8.67138 8.29121 8.50087 8.27712 8.32391C8.50531 8.54859 8.53574 8.79135 8.44953 8.81975H8.44446ZM8.01851 8.17413C7.92724 8.02434 7.9171 7.63439 7.94245 7.58015C8.15289 7.88747 8.12754 8.16638 8.01851 8.17413ZM7.95006 8.17671C7.8816 8.26193 7.64834 8.12248 7.52411 7.76868C7.64526 7.92562 7.78884 8.06316 7.95006 8.17671Z" fill="#67923D" stroke="#24420E" stroke-width="0.0081883"/>
<path d="M7.78021 6.82603C7.82078 6.919 8.06925 6.86477 8.27462 6.59619C7.97037 6.7718 7.8512 6.84928 7.78021 6.82603ZM8.01601 8.16893C8.12503 8.16119 8.15038 7.88486 7.93994 7.58012C7.99607 7.77187 8.02175 7.97152 8.01601 8.17152V8.16893ZM8.44702 8.81972C8.53323 8.7939 8.5028 8.54856 8.27715 8.32388C8.38871 8.57439 8.4597 8.78873 8.44702 8.81972Z" fill="#406325" stroke="#24420E" stroke-width="0.0081883"/>
<path d="M7.82585 7.28575C7.87656 7.06882 7.78275 6.70211 7.71683 6.62463C7.59766 7.02234 7.71176 7.31158 7.82585 7.28575Z" fill="#406325" stroke="#24420E" stroke-width="0.0081883"/>
<path d="M7.82076 7.33743C7.66864 7.371 7.60018 7.02753 7.71681 6.63757C7.74217 6.98621 7.7878 7.31161 7.81823 7.33485L7.82076 7.33743Z" fill="#67923D" stroke="#24420E" stroke-width="0.0081883"/>
<path d="M7.78778 7.33478C7.81004 7.10601 7.88852 6.88663 8.01597 6.6969C8.06668 7.10493 7.90187 7.3761 7.78778 7.33478Z" fill="#67923D" stroke="#24420E" stroke-width="0.0081883"/>
<path d="M7.79034 7.33219C7.90444 7.37351 8.0667 7.10493 8.016 6.6969C7.92726 7.04037 7.82584 7.31153 7.79034 7.33219Z" fill="#406325" stroke="#24420E" stroke-width="0.0081883"/>
<path d="M7.8233 7.58276C7.85842 7.35819 7.95113 7.14706 8.09206 6.9707C8.11234 7.38907 7.93233 7.63957 7.8233 7.58276Z" fill="#67923D" stroke="#24420E" stroke-width="0.0081883"/>
<path d="M7.82581 7.58528C7.93229 7.6421 8.11231 7.39418 8.09202 6.97839C7.98047 7.30895 7.86384 7.56979 7.82581 7.58528Z" fill="#406325" stroke="#24420E" stroke-width="0.0081883"/>
<path d="M7.89172 6.26824C7.90712 6.26824 7.91961 6.25552 7.91961 6.23983C7.91961 6.22414 7.90712 6.21143 7.89172 6.21143C7.87632 6.21143 7.86383 6.22414 7.86383 6.23983C7.86383 6.25552 7.87632 6.26824 7.89172 6.26824Z" fill="#BA1F3E" stroke="#511124" stroke-width="0.0081883"/>
<path d="M8.10473 6.10808C8.12014 6.10808 8.13262 6.09537 8.13262 6.07968C8.13262 6.06399 8.12014 6.05127 8.10473 6.05127C8.08933 6.05127 8.07684 6.06399 8.07684 6.07968C8.07684 6.09537 8.08933 6.10808 8.10473 6.10808Z" fill="#BA1F3E" stroke="#511124" stroke-width="0.0081883"/>
<path d="M8.01342 6.02032C8.02883 6.02032 8.04131 6.0076 8.04131 5.99191C8.04131 5.97622 8.02883 5.9635 8.01342 5.9635C7.99802 5.9635 7.98553 5.97622 7.98553 5.99191C7.98553 6.0076 7.99802 6.02032 8.01342 6.02032Z" fill="#BA1F3E" stroke="#511124" stroke-width="0.0081883"/>
<path d="M7.78272 7.86939C7.80092 7.86939 7.81568 7.85436 7.81568 7.83582C7.81568 7.81728 7.80092 7.80225 7.78272 7.80225C7.76451 7.80225 7.74976 7.81728 7.74976 7.83582C7.74976 7.85436 7.76451 7.86939 7.78272 7.86939Z" fill="#BA1F3E" stroke="#511124" stroke-width="0.0081883"/>
<path d="M7.84613 7.45618C7.86433 7.45618 7.87909 7.44115 7.87909 7.42261C7.87909 7.40407 7.86433 7.38904 7.84613 7.38904C7.82793 7.38904 7.81317 7.40407 7.81317 7.42261C7.81317 7.44115 7.82793 7.45618 7.84613 7.45618Z" fill="#BA1F3E" stroke="#511124" stroke-width="0.0081883"/>
<path d="M8.18079 8.422C8.19899 8.422 8.21375 8.40697 8.21375 8.38843C8.21375 8.36989 8.19899 8.35486 8.18079 8.35486C8.16258 8.35486 8.14783 8.36989 8.14783 8.38843C8.14783 8.40697 8.16258 8.422 8.18079 8.422Z" fill="#BA1F3E" stroke="#511124" stroke-width="0.0081883"/>
<path d="M8.03369 8.47108C8.0519 8.47108 8.06665 8.45604 8.06665 8.4375C8.06665 8.41896 8.0519 8.40393 8.03369 8.40393C8.01549 8.40393 8.00073 8.41896 8.00073 8.4375C8.00073 8.45604 8.01549 8.47108 8.03369 8.47108Z" fill="#BA1F3E" stroke="#511124" stroke-width="0.0081883"/>
<path d="M9.15692 9.27686C9.17513 9.27686 9.18988 9.26183 9.18988 9.24329C9.18988 9.22475 9.17513 9.20972 9.15692 9.20972C9.13872 9.20972 9.12396 9.22475 9.12396 9.24329C9.12396 9.26183 9.13872 9.27686 9.15692 9.27686Z" fill="#BA1F3E" stroke="#511124" stroke-width="0.0081883"/>
<path d="M9.23041 9.46021C9.24861 9.46021 9.26337 9.44518 9.26337 9.42664C9.26337 9.4081 9.24861 9.39307 9.23041 9.39307C9.21221 9.39307 9.19745 9.4081 9.19745 9.42664C9.19745 9.44518 9.21221 9.46021 9.23041 9.46021Z" fill="#BA1F3E" stroke="#511124" stroke-width="0.0081883"/>
<path d="M12.0574 6.43863C12.0751 6.45413 12.0878 6.45929 12.1157 6.4877M11.9484 5.99961C11.9484 5.96345 11.9332 5.90406 11.9256 5.87048M12.0143 5.94796C12.0143 5.99703 12.0067 6.04351 11.9864 6.08741M11.8799 6.0745C11.9256 6.11582 11.9687 6.15198 12.0143 6.17522M12.1106 6.20621C12.1132 6.25786 12.1081 6.30951 12.0929 6.36116M12.103 6.3999L12.136 6.3405M12.0878 6.65556C12.1233 6.66331 12.1588 6.70721 12.1766 6.74595M12.1892 6.71238L12.2298 6.65556M12.2729 7.45097C12.2552 7.48198 12.2348 7.51136 12.2121 7.53878M12.1106 7.53878C12.1309 7.57493 12.1512 7.61625 12.1766 7.64208M12.24 7.79445C12.2102 7.83737 12.1712 7.87272 12.1259 7.89775M12.1309 8.01396C12.103 8.03462 12.0675 8.09143 12.0371 8.13534M12.2501 7.61367L12.1968 7.63691M12.1614 7.44581L12.1918 7.47163M11.956 8.43749H11.9053M11.852 8.391L11.8672 8.43232M11.6746 8.56403C11.6669 8.6131 11.672 8.65958 11.6771 8.70865M11.7861 8.47623L11.8115 8.53304M11.9103 8.53046L11.847 8.53821M11.0661 9.19158L11.0407 9.23806M11.3424 9.13476C11.3044 9.13993 11.2714 9.13476 11.2385 9.1296M11.099 9.28455C11.0737 9.27164 11.0483 9.26647 11.023 9.25872M10.6503 9.32845C10.6274 9.34653 10.5995 9.39043 10.5742 9.43175M10.559 9.31554C10.4981 9.34911 10.4778 9.41109 10.4474 9.46532M10.5184 9.53763C10.4778 9.5273 10.4322 9.50664 10.384 9.48598M10.8074 9.46791C10.7491 9.43692 10.6883 9.44208 10.6274 9.43175M10.9013 9.42142C10.8074 9.40334 10.7238 9.40593 10.6401 9.41884M10.8379 9.35169L10.8024 9.3362M10.6604 9.47824L10.6021 9.44466M12.0701 8.17407C12.0397 8.19473 12.0067 8.23347 11.9763 8.27479M12.0219 6.21912L11.9661 6.19846" stroke="#24420E" stroke-width="0.0163766"/>
<path d="M9.85919 9.69004C9.87948 9.65646 9.91244 9.63839 9.94286 9.62031C10.1381 9.51701 10.3333 9.47052 10.5514 9.43437C10.6046 9.42404 10.6553 9.37497 10.7086 9.35173C10.8353 9.28975 10.9748 9.26651 11.0965 9.20453C11.1041 9.19936 11.1345 9.18128 11.1472 9.16321C11.1979 9.10639 11.2866 9.08831 11.3399 9.03408C11.5528 8.83265 11.776 8.64671 11.8926 8.37554C12.0346 8.04757 12.2095 7.70926 12.1867 7.33738C12.1715 7.09979 12.2044 6.8622 12.1487 6.6401C12.0783 6.30433 11.9458 5.9853 11.7582 5.70007L11.7912 5.72073C11.9792 6.00571 12.1118 6.32484 12.1816 6.66076C12.2399 6.88286 12.207 7.12303 12.2197 7.35804C12.245 7.72992 12.0675 8.06823 11.9281 8.39879C11.8115 8.66737 11.5858 8.85331 11.3754 9.05732C11.3196 9.10897 11.2334 9.12705 11.1827 9.18645C11.1674 9.20147 11.1504 9.21448 11.132 9.22519C11.0077 9.28717 10.8683 9.31299 10.7415 9.37239C10.6908 9.39821 10.6401 9.4447 10.5894 9.45503C10.3762 9.48197 10.1688 9.5448 9.97582 9.64097C9.94225 9.65607 9.91334 9.68017 9.89215 9.7107L9.85919 9.69004Z" fill="#406325" stroke="#24420E" stroke-width="0.0081883"/>
<path d="M11.8672 8.391C11.9382 8.1999 11.8672 7.75054 11.8317 7.69373C11.6619 8.09143 11.7455 8.4065 11.8672 8.391Z" fill="#406325" stroke="#24420E" stroke-width="0.0081883"/>
<path d="M11.6873 8.57181C11.7456 8.42719 11.705 8.07338 11.6771 8.02948C11.5377 8.33163 11.5934 8.57955 11.6873 8.57181ZM12.1157 6.65817C11.9878 6.49105 11.8191 6.36104 11.6264 6.28113C11.7836 6.6246 12.0447 6.75114 12.1157 6.65817Z" fill="#406325" stroke="#24420E" stroke-width="0.0081883"/>
<path d="M12.0752 6.45154C11.9913 6.27779 11.8647 6.12918 11.7075 6.02026C11.7861 6.35599 11.9966 6.51869 12.0752 6.45154ZM12.1943 6.83633C12.1056 6.73303 11.8089 6.63232 11.7633 6.63748C11.9408 6.86991 12.1588 6.91897 12.1943 6.83633ZM12.1233 8.03461C12.3047 8.03332 12.4825 7.98248 12.638 7.88741C12.3109 7.8151 12.0929 7.93648 12.1233 8.03461ZM12.1183 7.88741C12.1183 7.74279 11.9585 7.45355 11.9154 7.42256C11.9027 7.73246 12.0397 7.92615 12.1183 7.88741Z" fill="#406325" stroke="#24420E" stroke-width="0.0081883"/>
<path d="M12.1309 7.53366C12.0954 7.31001 12.0027 7.09982 11.8622 6.92419C11.8419 7.34256 12.0219 7.59048 12.1309 7.53366ZM10.7872 9.47829C10.947 9.62182 11.1411 9.71982 11.35 9.76236C11.1269 9.44471 10.8404 9.3724 10.7897 9.47829H10.7872Z" fill="#406325" stroke="#24420E" stroke-width="0.0081883"/>
<path d="M11.8672 8.38587C11.743 8.40136 11.6619 8.09146 11.8317 7.69376C11.8191 8.06047 11.8368 8.35746 11.8672 8.38587ZM10.5133 9.51184C10.7199 9.5619 10.9108 9.66402 11.0686 9.80882C10.6857 9.81141 10.4601 9.6203 10.5108 9.51442L10.5133 9.51184ZM10.5133 9.30782C10.564 9.10122 10.8936 8.76033 10.957 8.73709C10.8658 9.17869 10.6097 9.39562 10.5133 9.30782ZM11.0534 9.20194C11.0598 8.96531 11.1252 8.73424 11.2435 8.53049C11.3196 8.95402 11.1675 9.24067 11.0534 9.20194ZM11.5985 8.82489C11.7541 8.68293 11.9425 8.58342 12.1461 8.53565C11.9205 8.84813 11.6441 8.92561 11.596 8.82489H11.5985ZM12.2501 7.44842C12.2754 7.28572 12.496 6.98615 12.5442 6.96033C12.5138 7.31155 12.3338 7.50265 12.2501 7.451V7.44842Z" fill="#67923D" stroke="#24420E" stroke-width="0.0081883"/>
<path d="M11.9534 8.43235C12.1447 8.33291 12.3574 8.28407 12.5721 8.29031C12.2729 8.54081 11.9762 8.54339 11.9534 8.43235ZM12.2146 7.79963C12.3295 7.63764 12.4843 7.50936 12.6633 7.42775C12.5163 7.76348 12.2754 7.88744 12.2146 7.79963ZM12.1765 6.62201C12.1765 6.42574 12.3794 6.03579 12.4301 5.99705C12.458 6.41283 12.2856 6.67366 12.1765 6.62201ZM12.0016 5.95315C11.9583 5.78392 11.9574 5.60631 11.9991 5.43665C12.1385 5.71814 12.0929 5.95315 11.9991 5.95315H12.0016Z" fill="#67923D" stroke="#24420E" stroke-width="0.0081883"/>
<path d="M11.8926 5.89629C11.7594 5.73135 11.6688 5.53519 11.6289 5.32556C11.9281 5.56573 11.994 5.85239 11.8926 5.89629ZM12.1892 6.78726C12.1816 6.8105 12.2653 6.5884 12.5492 6.39213C12.4478 6.76143 12.2704 6.86473 12.1892 6.78726ZM11.3246 9.10892C11.5535 8.98946 11.8079 8.92999 12.065 8.9359C11.705 9.24063 11.35 9.2458 11.3246 9.10892ZM11.6872 8.57176C11.5934 8.57693 11.5351 8.33159 11.6745 8.02944C11.6568 8.31351 11.6644 8.54594 11.6872 8.57176ZM12.1157 6.65813C12.0472 6.7511 11.7861 6.62714 11.6289 6.28109C11.7712 6.43147 11.9354 6.55864 12.1157 6.65813ZM12.0726 6.45153C11.994 6.51868 11.7861 6.35856 11.7075 6.02025C11.8774 6.26301 12.0371 6.44637 12.0726 6.45153ZM12.1943 6.83891C12.1588 6.91896 11.9433 6.87248 11.7658 6.64005C12.0295 6.79242 12.1334 6.85698 12.1968 6.83891H12.1943ZM12.1284 8.03202C12.0954 7.93389 12.3135 7.81767 12.6405 7.88998C12.4637 7.91052 12.291 7.95842 12.1284 8.03202ZM12.1182 7.8874C12.0371 7.92614 11.9027 7.73503 11.9154 7.42513C11.9607 7.5892 12.029 7.74576 12.1182 7.88998V7.8874Z" fill="#67923D" stroke="#24420E" stroke-width="0.0081883"/>
<path d="M12.1284 7.53877C12.0194 7.59559 11.8419 7.34767 11.8622 6.93188C11.9737 7.26244 12.0904 7.52328 12.1284 7.53877ZM10.7922 9.47823C10.8429 9.36977 11.1244 9.44207 11.35 9.75714C11.0711 9.58411 10.8303 9.46532 10.7922 9.47823Z" fill="#67923D" stroke="#24420E" stroke-width="0.0081883"/>
<path d="M11.0534 9.1967C11.17 9.23802 11.3196 8.95394 11.2461 8.52783C11.1751 8.88938 11.0889 9.17604 11.0534 9.19928V9.1967Z" fill="#406325" stroke="#24420E" stroke-width="0.0081883"/>
<path d="M11.3145 9.06244C11.4105 8.84375 11.4506 8.60389 11.4312 8.36516C11.1776 8.71638 11.1928 9.04436 11.3145 9.06244ZM10.5108 9.51438C10.4601 9.62026 10.6807 9.81136 11.0635 9.8062C10.7593 9.68224 10.526 9.55311 10.5108 9.51438ZM10.5159 9.30519C10.6122 9.393 10.8658 9.17865 10.957 8.73704C10.7517 9.05727 10.559 9.30003 10.5159 9.30519ZM11.5985 8.82485C11.6441 8.92815 11.9205 8.85067 12.1487 8.53819C11.9799 8.66036 11.7945 8.75692 11.5985 8.82485ZM12.2526 7.44838C12.3363 7.50261 12.5138 7.3115 12.5442 6.96287C12.4711 7.13848 12.3728 7.30209 12.2526 7.44838ZM11.9534 8.43231C11.9788 8.54594 12.2704 8.54077 12.5721 8.29027C12.2552 8.39357 11.9889 8.45039 11.956 8.43231H11.9534ZM12.2171 7.79701C12.2805 7.88482 12.5188 7.76086 12.6659 7.42513C12.5358 7.57168 12.3845 7.69709 12.2171 7.79701ZM12.1816 6.61939C12.2881 6.67104 12.4605 6.41279 12.4301 5.99959C12.3287 6.33532 12.2171 6.60132 12.1791 6.61939H12.1816ZM12.0042 5.95053C12.0929 5.95311 12.1411 5.7181 11.9991 5.43403C12.0244 5.70519 12.0244 5.92728 12.0042 5.95053ZM11.8951 5.89371C11.9965 5.84981 11.9306 5.56573 11.6315 5.32556C11.7467 5.50048 11.8356 5.69198 11.8951 5.89371ZM12.1892 6.78984C12.2704 6.86731 12.4479 6.76401 12.5493 6.39213C12.3515 6.65297 12.2273 6.78467 12.1892 6.78984ZM11.3272 9.11151C11.3526 9.2458 11.705 9.24063 12.0625 8.93848C11.6847 9.06244 11.3678 9.13475 11.3272 9.11151Z" fill="#406325" stroke="#24420E" stroke-width="0.0081883"/>
<path d="M11.4996 8.91267C11.5725 8.75025 11.6039 8.57168 11.5909 8.39358C11.4007 8.65183 11.4083 8.89717 11.4996 8.91008V8.91267ZM11.9965 8.17149C12.0878 8.02429 12.098 7.63175 12.0726 7.57751C11.8622 7.88483 11.8875 8.16374 11.9965 8.17149Z" fill="#406325" stroke="#24420E" stroke-width="0.0081883"/>
<path d="M11.3145 9.05986C11.1928 9.04437 11.1801 8.71639 11.4286 8.36775C11.3373 8.72414 11.2917 9.02371 11.3145 9.05986ZM12.207 7.29602C12.1816 7.09458 12.3084 6.77693 12.3743 6.71495C12.4402 7.08683 12.3059 7.33475 12.207 7.29602ZM11.4996 8.91008C11.4083 8.89717 11.4007 8.65183 11.5909 8.39358C11.535 8.56006 11.5042 8.7342 11.4996 8.91008ZM12.0929 6.21911C12.0371 6.06416 12.0929 5.70261 12.1233 5.65613C12.2577 5.97119 12.1892 6.22686 12.0929 6.21911ZM10.6198 9.3207C10.6832 9.1141 11.0305 8.77837 11.0965 8.75255C10.9874 9.20448 10.7162 9.41367 10.6198 9.3207ZM12.0041 8.24638C12.1096 8.07465 12.2573 7.93399 12.4326 7.83834C12.3059 8.18956 12.0726 8.3316 12.0016 8.24638H12.0041ZM11.9991 8.1689C11.8901 8.15857 11.8647 7.88483 12.0751 7.57751C12.019 7.76925 11.9933 7.9689 11.9991 8.1689Z" fill="#67923D" stroke="#24420E" stroke-width="0.0081883"/>
<path d="M12.207 7.34244C12.3388 7.3915 12.4352 7.08935 12.3743 6.72522C12.3446 6.93822 12.2884 7.1465 12.207 7.34502V7.34244Z" fill="#406325" stroke="#24420E" stroke-width="0.0081883"/>
<path d="M12.2273 7.33217C12.24 7.13848 12.0498 6.7382 11.9991 6.69429C11.9484 7.10233 12.1132 7.37349 12.2273 7.33217ZM12.0929 6.21653C12.1918 6.22686 12.2577 5.97378 12.1233 5.65613C12.1335 5.95312 12.1183 6.19329 12.0929 6.21653ZM10.6224 9.31811C10.7187 9.41367 10.9875 9.20448 11.0965 8.75513C10.8734 9.07278 10.6655 9.31295 10.6224 9.31811ZM12.0067 8.24638C12.0777 8.3316 12.311 8.19214 12.4377 7.83834C12.315 7.99567 12.1697 8.13323 12.0067 8.24638Z" fill="#406325" stroke="#24420E" stroke-width="0.0081883"/>
<path d="M12.2247 7.32961C12.1106 7.37351 11.9483 7.10493 11.9991 6.6969C12.0878 7.03779 12.1892 7.30895 12.2247 7.32961Z" fill="#67923D" stroke="#24420E" stroke-width="0.0081883"/>
<path d="M12.1461 6.36114C12.1615 6.36114 12.174 6.34842 12.174 6.33273C12.174 6.31704 12.1615 6.30432 12.1461 6.30432C12.1307 6.30432 12.1182 6.31704 12.1182 6.33273C12.1182 6.34842 12.1307 6.36114 12.1461 6.36114Z" fill="#BA1F3E" stroke="#511124" stroke-width="0.0081883"/>
<path d="M12.2425 6.66839C12.2579 6.66839 12.2704 6.65567 12.2704 6.63998C12.2704 6.62429 12.2579 6.61157 12.2425 6.61157C12.2271 6.61157 12.2146 6.62429 12.2146 6.63998C12.2146 6.65567 12.2271 6.66839 12.2425 6.66839Z" fill="#BA1F3E" stroke="#511124" stroke-width="0.0081883"/>
<path d="M12.278 7.64197C12.2962 7.64197 12.3109 7.62694 12.3109 7.6084C12.3109 7.58986 12.2962 7.57483 12.278 7.57483C12.2598 7.57483 12.245 7.58986 12.245 7.6084C12.245 7.62694 12.2598 7.64197 12.278 7.64197Z" fill="#BA1F3E" stroke="#511124" stroke-width="0.0081883"/>
<path d="M12.1461 7.46119C12.1643 7.46119 12.1791 7.44616 12.1791 7.42762C12.1791 7.40907 12.1643 7.39404 12.1461 7.39404C12.1279 7.39404 12.1132 7.40907 12.1132 7.42762C12.1132 7.44616 12.1279 7.46119 12.1461 7.46119Z" fill="#BA1F3E" stroke="#511124" stroke-width="0.0081883"/>
<path d="M11.7734 8.49171C11.7916 8.49171 11.8064 8.47668 11.8064 8.45813C11.8064 8.43959 11.7916 8.42456 11.7734 8.42456C11.7552 8.42456 11.7405 8.43959 11.7405 8.45813C11.7405 8.47668 11.7552 8.49171 11.7734 8.49171Z" fill="#BA1F3E" stroke="#511124" stroke-width="0.0081883"/>
<path d="M11.9332 8.56141C11.9514 8.56141 11.9661 8.54638 11.9661 8.52783C11.9661 8.50929 11.9514 8.49426 11.9332 8.49426C11.915 8.49426 11.9002 8.50929 11.9002 8.52783C11.9002 8.54638 11.915 8.56141 11.9332 8.56141Z" fill="#BA1F3E" stroke="#511124" stroke-width="0.0081883"/>
<path d="M10.8582 9.39808C10.8764 9.39808 10.8911 9.38305 10.8911 9.3645C10.8911 9.34596 10.8764 9.33093 10.8582 9.33093C10.84 9.33093 10.8252 9.34596 10.8252 9.3645C10.8252 9.38305 10.84 9.39808 10.8582 9.39808Z" fill="#BA1F3E" stroke="#511124" stroke-width="0.0081883"/>
<path d="M10.6807 9.52723C10.6989 9.52723 10.7136 9.5122 10.7136 9.49366C10.7136 9.47511 10.6989 9.46008 10.6807 9.46008C10.6625 9.46008 10.6477 9.47511 10.6477 9.49366C10.6477 9.5122 10.6625 9.52723 10.6807 9.52723Z" fill="#BA1F3E" stroke="#511124" stroke-width="0.0081883"/>
<path d="M11.956 6.21648C11.9714 6.21648 11.9839 6.20376 11.9839 6.18808C11.9839 6.17239 11.9714 6.15967 11.956 6.15967C11.9406 6.15967 11.9281 6.17239 11.9281 6.18808C11.9281 6.20376 11.9406 6.21648 11.956 6.21648Z" fill="#BA1F3E" stroke="#511124" stroke-width="0.0081883"/>
<path d="M8.84251 8.43497C8.83744 8.46079 8.86279 8.49436 8.89322 8.48662C8.90589 8.48662 8.91096 8.4737 8.89829 8.4737C8.88814 8.47887 8.87547 8.4737 8.86786 8.46596C8.86178 8.45907 8.85763 8.45063 8.85584 8.44155C8.85406 8.43246 8.85471 8.42305 8.85772 8.41431L8.84251 8.43497Z" fill="#8C959D" stroke="#485654" stroke-width="0.00409415"/>
<path d="M8.91604 8.48665C8.89069 8.51764 8.85266 8.53055 8.82984 8.50989C8.81463 8.4944 8.80956 8.4789 8.81716 8.45824L8.79181 8.49182C8.79181 8.49182 8.80702 8.52539 8.83238 8.5383C8.86534 8.55121 8.90844 8.53055 8.93379 8.49698C8.95408 8.47116 8.97436 8.435 8.95915 8.40401C8.94757 8.38398 8.92971 8.36852 8.90844 8.36011L8.88308 8.38593C8.89576 8.38077 8.91351 8.38593 8.92619 8.39626C8.95915 8.42209 8.9414 8.46082 8.91604 8.48665Z" fill="#8C959D"/>
<path d="M8.91602 8.48655C8.90839 8.49685 8.89893 8.50561 8.88813 8.51237C8.87545 8.51754 8.86277 8.5227 8.8501 8.52012C8.84341 8.52002 8.83703 8.51724 8.83235 8.51237C8.82932 8.51079 8.82664 8.5086 8.82446 8.50594C8.82228 8.50328 8.82065 8.50019 8.81967 8.49688C8.8146 8.49171 8.8146 8.48655 8.81206 8.4788C8.81206 8.47105 8.81206 8.46589 8.81713 8.45814L8.81967 8.46072L8.79178 8.49429V8.49171L8.81713 8.52528L8.83488 8.53562L8.85517 8.5382C8.86962 8.53791 8.88369 8.53343 8.89573 8.52528C8.90841 8.52012 8.92109 8.50979 8.92869 8.49946L8.95405 8.4633C8.95912 8.45039 8.96419 8.43748 8.96165 8.42198C8.96165 8.41424 8.96165 8.40907 8.95658 8.40132C8.94498 8.38292 8.92819 8.36852 8.90841 8.36H8.91094L8.88559 8.38841H8.88306C8.88813 8.38325 8.89573 8.38325 8.9008 8.38325L8.92109 8.38841C8.93123 8.39616 8.94137 8.40649 8.9439 8.4194C8.94644 8.43232 8.94391 8.44523 8.93883 8.45556C8.93376 8.46847 8.92616 8.4788 8.91602 8.48655ZM8.91602 8.48655C8.92616 8.4788 8.93123 8.46847 8.9363 8.45556C8.94137 8.44523 8.94391 8.42973 8.94137 8.4194C8.93883 8.40649 8.92869 8.39874 8.91855 8.39358C8.90841 8.38583 8.8932 8.38325 8.88559 8.38841H8.88306L8.90841 8.35742C8.92948 8.36616 8.94725 8.38155 8.95912 8.40132C8.96419 8.40649 8.96672 8.41424 8.96672 8.42198C8.96672 8.43748 8.96419 8.45297 8.95658 8.46589C8.95151 8.4788 8.9439 8.49171 8.93123 8.50204C8.92362 8.51495 8.91094 8.5227 8.89827 8.53045C8.88559 8.5382 8.87291 8.54336 8.85517 8.54336C8.84773 8.54367 8.84031 8.54245 8.83335 8.53979C8.82638 8.53713 8.82001 8.53308 8.8146 8.52787C8.80416 8.5174 8.79558 8.50517 8.78925 8.49171L8.8146 8.45814H8.81967L8.81713 8.4788C8.81713 8.48396 8.81713 8.49171 8.82221 8.49688L8.83488 8.50979C8.83742 8.51496 8.84502 8.51754 8.8501 8.51754C8.86277 8.52012 8.87545 8.51754 8.88813 8.51237L8.91602 8.48655Z" fill="#485654"/>
<path d="M10.8937 6.18813L9.87696 7.20822L8.83491 8.22056L8.71828 8.36001C8.66757 8.41941 8.60672 8.49688 8.53573 8.56661C8.52305 8.58469 8.50784 8.57694 8.49263 8.58727C8.44699 8.6131 8.39882 8.65958 8.36586 8.69832L8.054 9.04696C8.03626 9.0702 8.02865 9.08311 8.04386 9.09861L8.2112 9.32587C8.24162 9.35686 8.27712 9.37235 8.29233 9.34653C8.37093 9.20449 8.57123 8.99014 8.64729 8.82228C8.69039 8.71898 8.74617 8.53562 8.78674 8.49172C8.83744 8.4349 8.96675 8.29028 9.08591 8.16374L9.11127 8.13792C9.11634 8.12759 9.12394 8.11984 9.13409 8.11209C9.72991 7.49229 10.4195 6.74078 10.9215 6.21137L10.8962 6.18555L10.8937 6.18813Z" fill="#6C301E" stroke="#351710" stroke-width="0.0081883" stroke-linejoin="round"/>
<path d="M8.78166 8.22317C8.75123 8.22317 8.73095 8.20509 8.70813 8.18701C8.73855 8.19734 8.76898 8.20767 8.79687 8.19476L8.78166 8.22317Z" fill="#8C959D" stroke="#485654" stroke-width="0.00409415"/>
<path d="M11.9535 5.43408L11.1472 6.1107C11.1396 6.12103 11.132 6.11844 11.1244 6.1107L11.0509 6.04872V6.03322L11.0864 5.99707C11.0914 5.9919 11.0864 5.98932 11.0838 5.98157L11.0686 5.96608C11.061 5.96349 11.0559 5.96608 11.0509 5.97124L11.0154 6.00998C10.9976 6.00998 10.9824 6.02547 10.9799 6.04613C10.4931 6.52906 10.0722 6.96034 9.58793 7.43552L9.01493 7.99334C8.99465 8.01916 8.90591 8.06823 8.84759 8.10697C8.82731 8.11988 8.80956 8.13279 8.80196 8.14571L8.75632 8.28774C8.7411 8.31873 8.69293 8.39104 8.69293 8.39621L8.78928 8.49176L9.07071 8.18444L9.09353 8.15862C9.0749 8.13232 9.0527 8.10885 9.02761 8.08889L9.00986 8.07598C9.00732 8.07081 9.01746 8.06307 9.02253 8.0579C9.69188 7.39678 10.417 6.6711 11.0052 6.07971C11.0134 6.08289 11.0224 6.08289 11.0306 6.07971L11.1041 6.15976C11.1193 6.17784 11.1345 6.17784 11.1472 6.17009L11.956 5.43408H11.9535Z" fill="#B2B6BA" stroke="#485654" stroke-width="0.0081883"/>
<path d="M8.75882 8.28262H8.77403L8.78671 8.28004L8.80446 8.21806L8.82474 8.15608L8.80699 8.21806L8.78925 8.28004L8.77403 8.28521L8.75629 8.28262H8.75882Z" fill="#485654"/>
<path d="M8.94142 8.23863C8.94982 8.23863 8.95663 8.23169 8.95663 8.22314C8.95663 8.21458 8.94982 8.20764 8.94142 8.20764C8.93302 8.20764 8.92621 8.21458 8.92621 8.22314C8.92621 8.23169 8.93302 8.23863 8.94142 8.23863Z" stroke="#485654" stroke-width="0.0081883"/>
<path d="M8.84505 8.33678C8.85345 8.33678 8.86026 8.32984 8.86026 8.32128C8.86026 8.31272 8.85345 8.30579 8.84505 8.30579C8.83664 8.30579 8.82983 8.31272 8.82983 8.32128C8.82983 8.32984 8.83664 8.33678 8.84505 8.33678Z" stroke="#485654" stroke-width="0.0081883"/>
<path d="M9.01237 8.07599C8.99581 8.06385 8.98051 8.05 8.96674 8.03467C8.98331 8.04679 8.99861 8.06064 9.01237 8.07599Z" fill="#485654"/>
<path d="M10.5641 6.43869L10.6528 6.52908L10.668 6.51359L10.5793 6.42578L10.5641 6.44128V6.43869Z" fill="#8C959D" stroke="#485654" stroke-width="0.00409415"/>
<path d="M10.7419 8.47098C10.7454 8.49686 10.7185 8.5286 10.6888 8.51912C10.6763 8.51837 10.672 8.50528 10.6846 8.50603C10.6943 8.51175 10.7071 8.50739 10.7151 8.50017C10.7215 8.49371 10.7261 8.4856 10.7283 8.47671C10.7306 8.46781 10.7305 8.45846 10.728 8.44962L10.7419 8.47098Z" fill="#8C959D" stroke="#485654" stroke-width="0.00409415"/>
<path d="M10.6662 8.51775C10.6895 8.54993 10.7264 8.56497 10.7502 8.54588C10.7661 8.53145 10.772 8.51641 10.7657 8.49551L10.7888 8.53025C10.7888 8.53025 10.7719 8.56257 10.7461 8.57384C10.7127 8.58466 10.6712 8.56165 10.6481 8.52692C10.6295 8.50016 10.6114 8.46317 10.6283 8.43341C10.6409 8.41428 10.6594 8.40003 10.6809 8.39297L10.7045 8.42004C10.6923 8.41417 10.6744 8.41823 10.6613 8.4277C10.6272 8.4513 10.6426 8.49069 10.6662 8.51775Z" fill="#8C959D"/>
<path d="M10.6662 8.51771C10.6731 8.52836 10.682 8.53759 10.6923 8.54492C10.7045 8.55079 10.7168 8.55665 10.7295 8.55485C10.7361 8.55515 10.7426 8.55277 10.7475 8.54824C10.7506 8.54685 10.7534 8.54484 10.7557 8.54234C10.758 8.53983 10.7598 8.53688 10.7609 8.53366C10.7662 8.52885 10.7665 8.52374 10.7695 8.51622C10.7699 8.50855 10.7702 8.50344 10.7656 8.49547L10.763 8.49788L10.7887 8.53276L10.7888 8.5302L10.7618 8.56192L10.7437 8.57109L10.7234 8.57244C10.7092 8.57129 10.6955 8.56602 10.684 8.55725C10.6718 8.55138 10.6598 8.54041 10.6529 8.52973L10.6299 8.49245C10.6256 8.47937 10.6213 8.46629 10.6247 8.45111C10.6251 8.44344 10.6254 8.43833 10.6309 8.43096C10.6434 8.41344 10.6608 8.40018 10.6809 8.39294L10.6784 8.39279L10.7019 8.4224L10.7044 8.42255C10.6996 8.41714 10.6921 8.41669 10.6871 8.41639L10.6667 8.4203C10.6563 8.42736 10.6456 8.43698 10.6424 8.44961C10.6392 8.46223 10.6409 8.47516 10.6454 8.48569C10.6496 8.49877 10.6566 8.50944 10.6662 8.51771ZM10.6662 8.51771C10.6566 8.50944 10.6521 8.49892 10.6479 8.48584C10.6434 8.47531 10.6418 8.45983 10.6449 8.44976C10.6481 8.43713 10.6586 8.43007 10.6689 8.42556C10.6794 8.41849 10.6946 8.41684 10.7019 8.4224L10.7044 8.42255L10.681 8.39038C10.6597 8.39778 10.6412 8.41195 10.6284 8.43081C10.6231 8.43562 10.6201 8.44314 10.6197 8.45081C10.6188 8.46614 10.6204 8.48162 10.6272 8.49485C10.6315 8.50793 10.6383 8.52116 10.6502 8.53214C10.657 8.54537 10.6691 8.55379 10.6812 8.56221C10.6933 8.57063 10.7056 8.57649 10.7232 8.57755C10.7305 8.57829 10.7379 8.57753 10.7449 8.57531C10.752 8.57309 10.7585 8.56946 10.7642 8.56463C10.7751 8.55489 10.7843 8.54329 10.7913 8.53035L10.7681 8.49562L10.7631 8.49532L10.7645 8.51592C10.7642 8.52103 10.7637 8.5287 10.7584 8.53351L10.7451 8.54553C10.7423 8.55049 10.7347 8.5526 10.7296 8.55229C10.7169 8.5541 10.7045 8.55079 10.6923 8.54492L10.6662 8.51771Z" fill="#485654"/>
<path d="M8.82901 6.12465L9.77657 7.19497L10.7496 8.25913L10.8571 8.40413C10.9038 8.46594 10.9596 8.54626 11.0259 8.61951C11.0374 8.63816 11.0529 8.6314 11.0673 8.64253C11.111 8.67081 11.156 8.71969 11.1864 8.76L11.475 9.12369C11.4912 9.14775 11.498 9.16099 11.4821 9.17542L11.3037 9.39046C11.2718 9.41933 11.2358 9.43257 11.2223 9.40609C11.1526 9.26081 10.9667 9.03669 10.901 8.86599C10.8642 8.76116 10.8195 8.57632 10.7819 8.53045C10.735 8.47119 10.6153 8.32033 10.5046 8.18797L10.481 8.16089C10.4766 8.15036 10.4695 8.14224 10.4599 8.13397C9.90586 7.48495 9.26651 6.69996 8.8001 6.146L8.82665 6.12194L8.82901 6.12465Z" fill="#6C301E" stroke="#351710" stroke-width="0.00818831" stroke-linejoin="round"/>
<path d="M10.813 8.26142C10.8432 8.2632 10.8645 8.2467 10.8882 8.23035C10.8573 8.23868 10.8265 8.24701 10.7994 8.23276L10.813 8.26142Z" fill="#8C959D" stroke="#485654" stroke-width="0.00409415"/>
<path d="M7.80604 5.3185L8.5661 6.03523C8.57304 6.04589 8.58073 6.04379 8.5887 6.03659L8.66505 5.97968L8.66593 5.96436L8.63283 5.92651C8.6281 5.9211 8.63327 5.91885 8.63622 5.91134L8.65217 5.89693C8.65985 5.89482 8.66473 5.89768 8.66946 5.90308L8.70241 5.94349C8.71999 5.94454 8.73417 5.96076 8.73551 5.98133C9.19018 6.48763 9.5825 6.93896 10.0351 7.43745L10.5709 8.0229C10.5895 8.04964 10.6746 8.10341 10.7302 8.14516C10.7495 8.15913 10.7664 8.17295 10.7732 8.18617L10.8103 8.32929C10.8236 8.36083 10.8672 8.43517 10.8669 8.44028L10.766 8.52902L10.5048 8.20852L10.4836 8.18163C10.5036 8.15674 10.5269 8.13485 10.5529 8.11661L10.5712 8.1049C10.574 8.09994 10.5644 8.09168 10.5597 8.08628C9.93435 7.39299 9.25744 6.63256 8.70849 6.01302C8.70022 6.01568 8.69128 6.01514 8.68338 6.01152L8.606 6.0863C8.5899 6.10326 8.57483 6.10236 8.56272 6.09395L7.80353 5.31835L7.80604 5.3185Z" fill="#B2B6BA" stroke="#485654" stroke-width="0.00818831"/>
<path d="M10.8318 8.32242L10.8169 8.32151L10.8046 8.31819L10.7907 8.25552L10.7743 8.19271L10.7882 8.25537L10.8021 8.31804L10.8168 8.32408L10.8343 8.32257L10.8318 8.32242Z" fill="#485654"/>
<path d="M10.6526 8.26938C10.6442 8.26888 10.6379 8.26161 10.6384 8.25315C10.6389 8.24468 10.646 8.23822 10.6543 8.23872C10.6626 8.23922 10.669 8.24649 10.6685 8.25495C10.668 8.26342 10.6609 8.26988 10.6526 8.26938Z" stroke="#485654" stroke-width="0.00818831"/>
<path d="M10.7441 8.37216C10.7358 8.37166 10.7294 8.3644 10.7299 8.35593C10.7304 8.34746 10.7376 8.341 10.7459 8.3415C10.7542 8.342 10.7605 8.34927 10.76 8.35774C10.7596 8.3662 10.7524 8.37266 10.7441 8.37216Z" stroke="#485654" stroke-width="0.00818831"/>
<path d="M10.5896 8.10307C10.6067 8.09206 10.6227 8.07928 10.6372 8.06494C10.6201 8.07594 10.6042 8.08872 10.5896 8.10307Z" fill="#485654"/>
<path d="M9.11822 6.3918L9.02524 6.47594L9.01106 6.45971L9.1039 6.37813L9.11808 6.39435L9.11822 6.3918Z" fill="#8C959D" stroke="#485654" stroke-width="0.00409415"/>
<path d="M8.83491 9.18636C8.58968 9.12654 8.33321 9.13456 8.09204 9.20961C8.50531 9.41621 8.83999 9.3284 8.83238 9.18378L8.83491 9.18636ZM11.0914 9.27159C11.2892 9.18636 11.7709 9.25351 11.8292 9.29741C11.4185 9.50143 11.0813 9.41362 11.0889 9.27159H11.0914Z" fill="#67923D" stroke="#24420E" stroke-width="0.0081883"/>
<path d="M8.82984 9.18898C8.83745 9.33102 8.50531 9.41883 8.09204 9.21223C8.47996 9.23805 8.79688 9.22256 8.82731 9.1864L8.82984 9.18898ZM11.0914 9.27421C11.0864 9.41624 11.4185 9.50405 11.8318 9.29745C11.4438 9.32327 11.1269 9.30778 11.094 9.27162L11.0914 9.27421Z" fill="#406325" stroke="#24420E" stroke-width="0.0081883"/>
<path d="M10.7238 9.04693C10.2132 8.32607 9.55485 7.72687 8.79437 7.29083C8.88311 7.28567 9.08341 7.39155 9.16708 7.44578C9.77304 7.84349 10.2903 8.37032 10.8303 8.99012C10.7999 9.02111 10.7796 9.04177 10.7441 9.06759L10.7238 9.04693Z" fill="#B2B6BA" stroke="#485654" stroke-width="0.0081883"/>
<path d="M10.777 9.04171L10.7365 9.0727C10.1533 8.30828 9.34199 7.57743 8.79181 7.29077C9.55497 7.64716 10.1964 8.36767 10.7694 9.03654H10.772L10.777 9.04171Z" fill="#8C959D"/>
<path d="M10.777 9.04174L10.7365 9.07273C10.467 8.72027 10.1684 8.39195 9.844 8.09138C9.60142 7.86456 9.3439 7.65489 9.07324 7.46384C8.98196 7.40186 8.88815 7.34246 8.79181 7.29081V7.28564C8.99464 7.3812 9.18226 7.49741 9.36228 7.62912C9.53975 7.75824 9.70709 7.90545 9.86936 8.05781C10.0296 8.21132 10.1844 8.37068 10.3333 8.53558C10.4855 8.70086 10.6274 8.8713 10.7745 9.03916L10.777 9.04174ZM10.777 9.04174C10.63 8.8713 10.4855 8.70602 10.3333 8.54074C10.1845 8.37576 10.0297 8.2164 9.86936 8.06298C9.70709 7.91061 9.53975 7.76599 9.36228 7.63428C9.1848 7.50516 8.99464 7.38636 8.79434 7.29339V7.28823C8.98555 7.39881 9.16935 7.52218 9.34453 7.65753C9.69376 7.92905 10.0179 8.23246 10.3131 8.56398C10.4619 8.72837 10.604 8.89896 10.739 9.07532L10.777 9.04174Z" fill="#485654"/>
<path d="M10.952 8.91772C10.9013 8.93322 10.8582 8.9513 10.8176 8.97712C10.8126 9.01328 10.7669 9.0546 10.7289 9.06234L10.7137 9.04168H10.7086L10.6934 9.04943C10.6782 9.04943 10.6604 9.0546 10.6528 9.07526C10.6427 9.10108 10.6604 9.13465 10.6832 9.15531C10.7086 9.17339 10.7187 9.18114 10.7441 9.18114C10.772 9.17339 10.7872 9.14757 10.7948 9.13982C10.8886 9.25603 10.9596 9.32059 11.0788 9.41356C11.132 9.41356 11.1599 9.37999 11.1422 9.34125C11.1371 9.32834 11.1219 9.32059 11.1092 9.32576V9.31285C11.17 9.25603 11.1979 9.18372 11.132 9.05976C11.0762 8.95646 11.0129 8.92031 10.9545 8.92031H10.952V8.91772ZM11.1092 9.03652C11.1219 9.0546 11.1269 9.07267 11.1346 9.08817C11.1751 9.16564 11.1422 9.2612 11.0762 9.2896H11.0712C11.0813 9.27153 11.0509 9.23279 11.0357 9.2457C11.0433 9.22762 11.0179 9.19405 10.9976 9.2018C11.0078 9.18372 10.985 9.15273 10.9621 9.16306C10.9723 9.14498 10.9545 9.11658 10.9292 9.12174C10.9368 9.10108 10.919 9.07526 10.8962 9.08042C10.8962 9.05976 10.8912 9.04943 10.8835 9.04168C10.9089 9.02102 10.9419 8.98745 10.9697 8.97196C11.0382 8.94097 11.0813 8.99778 11.1092 9.03652Z" fill="#FAB81C" stroke="#6C301E" stroke-width="0.0081883"/>
<path d="M11.1396 9.11913C11.1269 9.11138 11.1193 9.09847 11.1244 9.09072C11.1295 9.08039 11.1421 9.07781 11.1548 9.08556C11.1675 9.09072 11.1751 9.10364 11.1726 9.11138C11.1675 9.12171 11.1523 9.1243 11.1396 9.11913Z" fill="#FAB81C" stroke="#6C301E" stroke-width="0.00409415"/>
<path d="M11.132 9.0933C11.1194 9.08556 11.1118 9.07264 11.1168 9.06231C11.1219 9.05457 11.1346 9.05198 11.1472 9.05973C11.1599 9.0649 11.1675 9.07781 11.165 9.08556C11.1599 9.09589 11.1447 9.09847 11.132 9.0933Z" fill="#FAB81C" stroke="#6C301E" stroke-width="0.00409415"/>
<path d="M11.1168 9.0624C11.1041 9.05724 11.0965 9.04432 11.1016 9.03658C11.1066 9.02625 11.1193 9.02366 11.132 9.02883C11.1447 9.03657 11.1523 9.04949 11.1472 9.05724C11.1447 9.06757 11.1295 9.07015 11.1168 9.0624Z" fill="#FAB81C" stroke="#6C301E" stroke-width="0.00409415"/>
<path d="M11.0965 9.0365C11.0838 9.02876 11.0762 9.01584 11.0813 9.0081C11.0864 9.00035 11.099 8.99777 11.1117 9.00293C11.1244 9.01068 11.132 9.02359 11.1295 9.03134C11.1244 9.03909 11.1092 9.04425 11.0965 9.0365Z" fill="#FAB81C" stroke="#6C301E" stroke-width="0.00409415"/>
<path d="M11.0712 9.0107C11.056 9.00553 11.0509 8.99004 11.056 8.98487V8.97971C11.061 8.98229 11.0737 8.98487 11.0712 8.97713C11.0712 8.97196 11.0687 8.96938 11.0712 8.97196L11.0864 8.97713C11.0991 8.98487 11.1067 8.99779 11.1016 9.00553C11.0991 9.01586 11.0839 9.01845 11.0712 9.0107Z" fill="#FAB81C" stroke="#6C301E" stroke-width="0.00409415"/>
<path d="M10.7948 9.13988C10.8125 9.0934 10.8455 9.05208 10.8835 9.04175ZM10.7999 9.14763C10.8328 9.1528 10.8835 9.11406 10.8962 9.08049ZM10.8303 9.18379C10.8709 9.19412 10.914 9.1528 10.9317 9.12181ZM10.8683 9.22511C10.919 9.22511 10.9469 9.19153 10.9621 9.16313ZM10.9064 9.26384C10.9495 9.26384 10.9875 9.23027 10.9976 9.20186ZM10.9419 9.3C10.99 9.3 11.0205 9.27676 11.0357 9.24835ZM10.985 9.33615C11.0281 9.33874 11.061 9.31291 11.0712 9.28967ZM11.0306 9.37489C11.0712 9.37489 11.099 9.34907 11.1092 9.32324Z" fill="#FAB81C"/>
<path d="M10.7948 9.13988C10.8061 9.10722 10.8263 9.07853 10.8531 9.05724C10.8607 9.0495 10.8709 9.04433 10.8835 9.04175C10.8726 9.04513 10.8623 9.05037 10.8531 9.05724C10.8437 9.0648 10.8352 9.07347 10.8278 9.08307C10.8139 9.10009 10.8027 9.11927 10.7948 9.13988ZM10.7999 9.14763C10.81 9.14763 10.8202 9.14763 10.8303 9.14247L10.8557 9.12697L10.881 9.10631L10.8962 9.08049C10.8938 9.09044 10.8885 9.09943 10.881 9.10631C10.8671 9.12222 10.8497 9.1346 10.8303 9.14247C10.8202 9.14763 10.81 9.15021 10.7999 9.14763ZM10.8303 9.18379H10.8607L10.8861 9.16829C10.9037 9.15627 10.9184 9.14038 10.9292 9.12181L10.9114 9.14763L10.8886 9.17087L10.8633 9.18379H10.8303ZM10.8683 9.22511C10.8785 9.22511 10.8886 9.22511 10.8962 9.21994L10.9216 9.20703L10.9469 9.18637L10.9621 9.16054C10.9547 9.18051 10.9415 9.19765 10.9241 9.20961L10.8988 9.22252H10.8683V9.22511ZM10.9064 9.26384C10.9266 9.26384 10.9444 9.2561 10.9596 9.24318C10.975 9.23232 10.988 9.21823 10.9976 9.20186C10.9951 9.20961 10.99 9.21994 10.9824 9.22769L10.9621 9.24577L10.9368 9.26126C10.9269 9.26421 10.9166 9.26509 10.9064 9.26384ZM10.9419 9.3C10.952 9.3 10.9621 9.3 10.9697 9.29483C10.9885 9.2906 11.0059 9.28173 11.0205 9.26901L11.0357 9.24577L11.0205 9.27159C11.0128 9.27676 11.0052 9.2845 10.9951 9.28709C10.9799 9.29742 10.9621 9.3 10.9444 9.3H10.9419ZM10.985 9.33615C11.0026 9.3359 11.02 9.33148 11.0357 9.32324L11.0559 9.31033C11.061 9.30258 11.0686 9.29742 11.0712 9.28967C11.0712 9.29742 11.0636 9.30516 11.0585 9.31033C11.0486 9.32025 11.0366 9.32773 11.0234 9.3322C11.0102 9.33668 10.9962 9.33803 10.9824 9.33615H10.985ZM11.0306 9.37489L11.0559 9.37231L11.0762 9.36198L11.094 9.34648L11.1092 9.32582C11.1032 9.34164 11.0922 9.355 11.078 9.36387C11.0638 9.37273 11.0472 9.3766 11.0306 9.37489Z" fill="#6C301E"/>
<path d="M9.18639 8.95824C9.74095 8.28437 10.4333 7.74096 11.2154 7.36566C11.128 7.35422 10.9226 7.44424 10.8361 7.4917C10.2095 7.84028 9.66168 8.32246 9.08496 8.89463C9.11293 8.92734 9.13158 8.94916 9.16491 8.97714L9.18639 8.95824Z" fill="#B2B6BA" stroke="#485654" stroke-width="0.00818831"/>
<path d="M9.1346 8.94922L9.17259 8.98267C9.80172 8.27084 10.6542 7.60844 11.218 7.36523C10.4388 7.66194 9.75502 8.32631 9.14248 8.94467L9.13997 8.94449L9.1346 8.94922Z" fill="#8C959D"/>
<path d="M9.13463 8.94925L9.17262 8.98271C9.46325 8.65452 9.78103 8.35222 10.1225 8.07913C10.3779 7.87288 10.647 7.68461 10.9277 7.51563C11.0222 7.46106 11.1191 7.40922 11.2179 7.3652L11.2183 7.36011C11.0111 7.43979 10.8176 7.54093 10.6306 7.65789C10.4462 7.77248 10.2706 7.90562 10.0997 8.04422C9.93071 8.18408 9.76674 8.33011 9.60812 8.48201C9.44635 8.63406 9.29425 8.79193 9.13732 8.94689L9.13463 8.94925ZM9.13463 8.94925C9.29175 8.79175 9.446 8.63915 9.60777 8.4871C9.76631 8.33511 9.93029 8.18909 10.0994 8.04931C10.2703 7.91071 10.4457 7.78012 10.6302 7.66298C10.8146 7.54838 11.0108 7.44488 11.2152 7.36756L11.2156 7.36247C11.0189 7.4578 10.8287 7.56627 10.6462 7.68716C10.2822 7.92984 9.9408 8.20575 9.62623 8.51146C9.46776 8.66287 9.31554 8.82088 9.16994 8.98508L9.13463 8.94925Z" fill="#485654"/>
<path d="M8.97493 8.84332C9.02286 8.86289 9.06318 8.88427 9.10036 8.91291C9.10217 8.94831 9.14295 8.99239 9.17923 9.00333L9.19579 8.98474L9.20071 8.9852L9.21483 8.99407C9.22961 8.99545 9.2464 9.00205 9.25201 9.02271C9.25964 9.04858 9.2395 9.07942 9.21555 9.09732C9.18936 9.11249 9.17884 9.11905 9.1542 9.11675C9.12778 9.10673 9.11522 9.0804 9.1085 9.07222C9.00734 9.17602 8.9328 9.23197 8.80901 9.31101C8.75728 9.30618 8.73308 9.2712 8.75367 9.23537C8.75971 9.22335 8.77515 9.21725 8.78702 9.22339L8.78814 9.21091C8.73392 9.15048 8.71306 9.07807 8.78779 8.96425C8.85089 8.86948 8.91559 8.84029 8.97225 8.84558L8.97471 8.84581L8.97493 8.84332ZM8.81197 8.94386C8.79809 8.96018 8.79161 8.97719 8.78288 8.99148C8.73679 9.06267 8.76057 9.158 8.82216 9.19144L8.82709 9.1919C8.8188 9.17351 8.8517 9.13883 8.86536 9.15269C8.85953 9.13453 8.88706 9.10439 8.9061 9.11371C8.8978 9.09532 8.92264 9.06744 8.94392 9.0795C8.93563 9.06111 8.95532 9.03526 8.97951 9.04256C8.9739 9.0219 8.99337 8.99855 9.01509 9.00561C9.01688 8.98565 9.02269 8.97612 9.03075 8.96933C9.0079 8.94706 8.97877 8.91162 8.95301 8.89412C8.88918 8.85796 8.8424 8.90895 8.81197 8.94386Z" fill="#FAB81C" stroke="#6C301E" stroke-width="0.00818831"/>
<path d="M8.76719 9.02608C8.78023 9.01977 8.78876 9.00803 8.78448 9.00012C8.78042 8.98973 8.76828 8.98611 8.75524 8.99242C8.74243 8.99625 8.7339 9.00798 8.7357 9.01566C8.73976 9.02606 8.75438 9.02991 8.76719 9.02608Z" fill="#FAB81C" stroke="#6C301E" stroke-width="0.00409416"/>
<path d="M8.77628 9.00074C8.78931 8.99442 8.79784 8.98269 8.79378 8.9723C8.7895 8.96439 8.77736 8.96076 8.76432 8.96707C8.75151 8.9709 8.74298 8.98264 8.74479 8.99032C8.74884 9.00071 8.76346 9.00457 8.77628 9.00074Z" fill="#FAB81C" stroke="#6C301E" stroke-width="0.00409416"/>
<path d="M8.79331 8.97079C8.80612 8.96696 8.81464 8.95522 8.81037 8.9473C8.80631 8.9369 8.79418 8.93327 8.78137 8.9371C8.76834 8.94342 8.75981 8.95516 8.76409 8.96308C8.76567 8.97325 8.78028 8.97711 8.79331 8.97079Z" fill="#FAB81C" stroke="#6C301E" stroke-width="0.00409416"/>
<path d="M8.81508 8.94619C8.82812 8.93988 8.83665 8.92815 8.83237 8.92025C8.82809 8.91234 8.81594 8.90872 8.80312 8.91255C8.79008 8.91886 8.78154 8.93059 8.78335 8.93827C8.78763 8.94617 8.80204 8.9525 8.81508 8.94619Z" fill="#FAB81C" stroke="#6C301E" stroke-width="0.00409416"/>
<path d="M8.8418 8.92194C8.85704 8.91833 8.86332 8.90384 8.85883 8.8984L8.85927 8.89341C8.85412 8.89545 8.84156 8.89679 8.84469 8.88954C8.84514 8.88456 8.84783 8.8823 8.84514 8.88456L8.82989 8.88817C8.81689 8.8945 8.80837 8.90627 8.81264 8.9142C8.81421 8.9244 8.82879 8.92827 8.8418 8.92194Z" fill="#FAB81C" stroke="#6C301E" stroke-width="0.00409416"/>
<path d="M9.10985 9.07042C9.09551 9.02324 9.06581 8.98007 9.02897 8.96714ZM9.10431 9.07771C9.07141 9.08045 9.02401 9.03855 9.0138 9.00449ZM9.07179 9.11123C9.03103 9.11852 8.99131 9.07462 8.97592 9.04275ZM9.03141 9.14931C8.98135 9.14567 8.95612 9.11051 8.94305 9.08137ZM8.99121 9.18483C8.94865 9.18174 8.91341 9.14586 8.90535 9.11708ZM8.95369 9.21799C8.90613 9.21454 8.87768 9.1894 8.86461 9.16025ZM8.90865 9.2506C8.86592 9.25006 8.83515 9.22219 8.82673 9.19851ZM8.86094 9.28558C8.82089 9.28267 8.79513 9.25517 8.78688 9.22894Z" fill="#FAB81C"/>
<path d="M9.10985 9.07042C9.10096 9.03736 9.08295 9.00758 9.05794 8.98463C9.05097 8.97643 9.04131 8.9706 9.02897 8.96714C9.03952 8.97127 9.04932 8.97718 9.05794 8.98463C9.06673 8.99277 9.07453 9.00194 9.0812 9.01195C9.09376 9.02975 9.10343 9.0495 9.10985 9.07042ZM9.10431 9.07771C9.0943 9.07698 9.08428 9.07626 9.07463 9.07043L9.05066 9.05331L9.02704 9.03108L9.0138 9.00449C9.01552 9.0145 9.02013 9.02376 9.02704 9.03108C9.03969 9.04779 9.05598 9.06126 9.07463 9.07043C9.08428 9.07626 9.09412 9.07953 9.10431 9.07771ZM9.07179 9.11123L9.04176 9.10905L9.01779 9.09193C9.00124 9.07879 8.98779 9.06205 8.97842 9.04293L8.99417 9.06971L9.01511 9.0943L9.03925 9.10887L9.07179 9.11123ZM9.03141 9.14931C9.0214 9.14858 9.01139 9.14786 9.00423 9.14221L8.98009 9.12764L8.95647 9.10542L8.94323 9.07882C8.94916 9.09907 8.9611 9.11695 8.97741 9.13001L9.00155 9.14458L9.03159 9.14676L9.03141 9.14931ZM8.99121 9.18484C8.97118 9.18338 8.95419 9.17446 8.94006 9.16061C8.92559 9.14878 8.91375 9.13394 8.90535 9.11708C8.90732 9.12491 8.91162 9.13548 8.9186 9.14367L8.93738 9.16298L8.96135 9.1801C8.97089 9.18372 8.98105 9.18533 8.99121 9.18484ZM8.95369 9.21799C8.94368 9.21727 8.93366 9.21654 8.92651 9.21089C8.9083 9.20537 8.89172 9.19536 8.87822 9.18175L8.86479 9.15771L8.87804 9.1843C8.88519 9.18995 8.89217 9.19814 8.90201 9.20142C8.91632 9.21272 8.93366 9.21654 8.95118 9.21781L8.95369 9.21799ZM8.90866 9.25061C8.89124 9.24909 8.87441 9.24348 8.85948 9.23422L8.84034 9.22001C8.83587 9.212 8.82871 9.20635 8.82674 9.19852C8.82621 9.20617 8.83318 9.21436 8.83784 9.21983C8.84694 9.23033 8.85828 9.23858 8.87099 9.24395C8.88369 9.24931 8.89743 9.25165 8.91116 9.25079L8.90866 9.25061ZM8.86094 9.28559L8.83609 9.28122L8.81677 9.26956L8.80031 9.25299L8.78671 9.23149C8.79157 9.24754 8.80147 9.26153 8.81487 9.2713C8.82828 9.28107 8.84447 9.28609 8.86094 9.28559Z" fill="#6C301E"/>
<path d="M8.20615 5.94799C8.40708 5.83953 8.57731 5.68036 8.70056 5.48572C8.30503 5.59418 8.12502 5.85502 8.20615 5.95057V5.94799ZM11.9028 6.06936C11.8163 5.86637 11.6801 5.6894 11.5073 5.55545C11.5782 5.94799 11.8115 6.14426 11.9028 6.07195V6.06936Z" fill="#406325" stroke="#24420E" stroke-width="0.0081883"/>
<path d="M8.20614 5.94797C8.12247 5.855 8.30249 5.59675 8.69801 5.48828C8.41912 5.70521 8.21121 5.90665 8.20614 5.94797ZM11.9028 6.06934C11.809 6.14682 11.5808 5.95055 11.5098 5.56059C11.6923 5.84467 11.8647 6.06418 11.9028 6.06934Z" fill="#67923D" stroke="#24420E" stroke-width="0.0081883"/>
<path d="M9.29639 7.96488C9.29639 7.96488 9.14173 7.98296 9.0961 7.76345C9.05046 7.52844 9.23047 7.5052 9.23047 7.5052C9.23047 7.5052 9.43584 7.48195 9.56515 7.47937L9.62093 7.94422L9.29639 7.96488Z" fill="url(#paint0_radial_14_505)" stroke="#999270" stroke-width="0.0081883"/>
<path d="M9.31665 7.89522C9.31665 7.89522 9.21523 7.9133 9.19495 7.7506C9.17973 7.63439 9.25073 7.6189 9.25073 7.6189L9.48398 7.66022V7.87198L9.31665 7.89522Z" fill="url(#paint1_radial_14_505)" stroke="#999270" stroke-width="0.0081883"/>
<path d="M9.25073 7.61893C9.25073 7.61893 9.40286 7.6086 9.47892 7.59827L9.51188 7.74547L9.33187 7.7558C9.33187 7.7558 9.31919 7.62409 9.25073 7.61893Z" fill="url(#paint2_radial_14_505)" stroke="#999270" stroke-width="0.0081883"/>
<path d="M9.22034 7.50785C9.22034 7.50785 9.41049 7.45879 9.43585 7.67313C9.44092 7.72995 9.41049 7.85907 9.31668 7.89523L9.6691 7.85649L9.63614 7.46912L9.51951 7.47945C9.51951 7.47945 9.26597 7.48719 9.22034 7.50527V7.50785Z" fill="url(#paint3_radial_14_505)" stroke="#999270" stroke-width="0.0081883"/>
<path d="M9.29638 7.96494C9.29638 7.96494 10.6123 7.87455 10.7466 7.87971C11.1472 7.65762 10.7466 6.78215 10.4094 6.29148C10.4475 6.18043 9.65134 5.93251 9.29385 5.95575C9.24568 5.95575 9.20257 5.96092 9.16201 5.9635C8.96678 5.98416 8.96425 6.23983 9.04284 6.40252C9.11891 6.55747 9.81361 7.8229 9.32681 7.95977L9.29638 7.96494Z" fill="#F9F0AA" stroke="#999270" stroke-width="0.0081883"/>
<path d="M10.7061 6.80798C10.6173 6.61945 10.5108 6.43868 10.4094 6.29148C10.4475 6.18043 9.65134 5.93251 9.29385 5.95575C9.24568 5.95575 9.20257 5.96092 9.16201 5.9635C8.96678 5.98416 8.96425 6.23983 9.04284 6.40252C9.0682 6.44901 9.15187 6.60912 9.24314 6.80798" fill="url(#paint4_linear_14_505)"/>
<path d="M10.7061 6.80798C10.6173 6.61945 10.5108 6.43868 10.4094 6.29148C10.4475 6.18043 9.65134 5.93251 9.29385 5.95575C9.24568 5.95575 9.20257 5.96092 9.16201 5.9635C8.96678 5.98416 8.96425 6.23983 9.04284 6.40252C9.0682 6.44901 9.15187 6.60912 9.24314 6.80798" stroke="#999270" stroke-width="0.0081883"/>
<path d="M9.36738 7.11015C9.50936 7.48719 9.58796 7.8849 9.32681 7.95979L9.29639 7.96495C9.29639 7.96495 10.6148 7.87457 10.7466 7.87973C10.9647 7.75835 10.9444 7.44587 10.8278 7.10498" fill="url(#paint5_linear_14_505)"/>
<path d="M9.36738 7.11015C9.50936 7.48719 9.58796 7.8849 9.32681 7.95979L9.29639 7.96495C9.29639 7.96495 10.6148 7.87457 10.7466 7.87973C10.9647 7.75835 10.9444 7.44587 10.8278 7.10498" stroke="#999270" stroke-width="0.0081883"/>
<path d="M9.17466 6.03843C9.08085 6.03843 9.0555 6.1314 9.05803 6.18821C9.06057 6.34316 9.17466 6.34833 9.17466 6.34833L9.32678 6.34058L9.39778 6.02551L9.17466 6.03843Z" fill="url(#paint6_radial_14_505)" stroke="#999270" stroke-width="0.0081883"/>
<path d="M9.17468 6.03843L9.3978 6.02551L9.42315 6.26052L9.22539 6.27085C9.22539 6.27085 9.28878 6.08233 9.17468 6.03843Z" fill="url(#paint7_linear_14_505)" stroke="#999270" stroke-width="0.0081883"/>
<path d="M10.4094 6.29146C10.5793 6.26564 10.5768 6.03321 10.4601 5.93766C10.0671 5.92216 9.55246 5.93508 9.17722 5.96348C9.22032 5.96348 9.33948 5.97381 9.35216 6.13135C9.35478 6.1655 9.34923 6.19979 9.33598 6.23127C9.32274 6.26276 9.30219 6.2905 9.2761 6.31212C9.24677 6.33456 9.21134 6.34719 9.17468 6.34828H9.26596L9.34202 6.33795C9.87445 6.26822 10.4069 6.29146 10.4069 6.29146H10.4094Z" fill="url(#paint8_linear_14_505)" stroke="#999270" stroke-width="0.0081883"/>
<path d="M9.45609 6.65558C9.45102 6.64783 9.44595 6.6375 9.43581 6.63492C9.43074 6.63492 9.42059 6.63492 9.42313 6.62459H9.44341L9.48398 6.61943C9.49412 6.62201 9.49159 6.63234 9.48398 6.63234C9.4713 6.63234 9.47891 6.64525 9.48144 6.653L9.5144 6.73047C9.51694 6.7408 9.52455 6.74855 9.53215 6.74855L9.56004 6.74597C9.56765 6.7408 9.56511 6.73047 9.56511 6.72014C9.56258 6.7124 9.57779 6.71498 9.57779 6.72014L9.58793 6.7563C9.58793 6.76146 9.58286 6.75888 9.57779 6.75888L9.50173 6.76405C9.49412 6.76405 9.48144 6.77179 9.47637 6.76405C9.47637 6.75372 9.49159 6.75888 9.49159 6.75113L9.48398 6.72531L9.45609 6.65558ZM9.57779 6.64525C9.57525 6.64009 9.57018 6.62976 9.56004 6.62717C9.55497 6.62717 9.54483 6.62717 9.54483 6.61684C9.5499 6.61168 9.55751 6.61684 9.56258 6.61684L9.60568 6.61168C9.61328 6.61168 9.61582 6.62459 9.60568 6.62201C9.59807 6.62201 9.59807 6.63234 9.60061 6.64009L9.63864 6.72789C9.63864 6.73306 9.64371 6.7408 9.65132 6.74339C9.65639 6.74339 9.66653 6.74339 9.66906 6.75113C9.66906 6.75888 9.65892 6.75372 9.65385 6.75372C9.64117 6.75372 9.6285 6.75372 9.61329 6.75888C9.60821 6.75888 9.60061 6.75888 9.60061 6.75113C9.60061 6.74339 9.61328 6.75113 9.61582 6.7408C9.61582 6.73306 9.61075 6.72531 9.60568 6.71498L9.57779 6.64783V6.64525ZM9.69188 6.66591C9.69188 6.67108 9.70202 6.66591 9.70456 6.66591C9.71217 6.66591 9.71977 6.66333 9.71977 6.65558C9.71977 6.64267 9.71217 6.62976 9.70202 6.62459C9.69442 6.61684 9.68428 6.61943 9.67413 6.61943L9.67667 6.63234L9.69188 6.66591ZM9.70709 6.70723C9.71217 6.71498 9.7147 6.72531 9.72231 6.73306C9.72738 6.73822 9.73752 6.73564 9.74259 6.73306C9.7502 6.73306 9.75527 6.72531 9.75273 6.72014C9.7502 6.70207 9.74006 6.68657 9.72231 6.68141H9.69695L9.70202 6.69432L9.70709 6.70723ZM9.65639 6.64525C9.65132 6.6375 9.64878 6.62459 9.63864 6.61943C9.63357 6.61943 9.62343 6.62201 9.62089 6.61426C9.62089 6.60651 9.6361 6.61168 9.64117 6.6091C9.66399 6.6091 9.68681 6.60135 9.70709 6.6091C9.72484 6.61426 9.74259 6.62976 9.74513 6.65042C9.74513 6.66075 9.73752 6.66849 9.72991 6.67108L9.74259 6.67366C9.7578 6.67882 9.77048 6.68915 9.77809 6.70465C9.78316 6.71498 9.78569 6.72789 9.77809 6.73822C9.76794 6.74855 9.75273 6.74855 9.74259 6.74855C9.72231 6.74855 9.70456 6.74855 9.68428 6.75372C9.67667 6.75372 9.67413 6.7408 9.68428 6.7408C9.69188 6.7408 9.69188 6.73047 9.68935 6.72531L9.65639 6.64783V6.64525ZM9.84401 6.59618C9.85161 6.59618 9.85415 6.60393 9.85668 6.6091L9.86429 6.63234C9.85668 6.6375 9.85161 6.62717 9.84908 6.62201C9.84401 6.61684 9.83894 6.6091 9.83133 6.61168H9.80091C9.79583 6.61684 9.80091 6.62201 9.80344 6.62717L9.81865 6.66333C9.82372 6.66333 9.83387 6.66333 9.83894 6.65558C9.83894 6.65042 9.83133 6.6375 9.84401 6.64009C9.85161 6.64525 9.84908 6.65558 9.85415 6.66333L9.86683 6.69174C9.85922 6.69948 9.85415 6.68915 9.85161 6.68141C9.84654 6.67366 9.83387 6.67366 9.82626 6.67366C9.82119 6.67366 9.82626 6.67882 9.82626 6.68141L9.84147 6.72014C9.84654 6.72789 9.85922 6.72789 9.86683 6.72789C9.87443 6.72789 9.88711 6.72789 9.89218 6.71756C9.89725 6.7124 9.88457 6.69948 9.89218 6.6969C9.90232 6.6969 9.90232 6.70723 9.90486 6.7124C9.90486 6.72014 9.90993 6.72789 9.91246 6.73306C9.91246 6.73822 9.90486 6.73822 9.90232 6.73822L9.82626 6.74339C9.81612 6.74339 9.80344 6.74855 9.80091 6.73822C9.80091 6.73047 9.81865 6.73564 9.81612 6.72531L9.80598 6.69948L9.77809 6.62976C9.77302 6.62201 9.76794 6.61168 9.7578 6.61168C9.75273 6.61168 9.74259 6.61168 9.74766 6.60135H9.77302L9.84401 6.59618ZM9.90232 6.62976C9.89979 6.62201 9.89471 6.61168 9.88457 6.60651C9.8795 6.60651 9.86683 6.60651 9.86683 6.59618C9.87443 6.59102 9.88457 6.59618 9.89218 6.59618C9.91246 6.59618 9.93275 6.58844 9.95303 6.59618C9.97331 6.59877 9.99106 6.61943 9.9936 6.64267C9.9936 6.653 9.98599 6.66075 9.97585 6.66333C9.96824 6.66333 9.98092 6.66591 9.98345 6.66849C10.0012 6.67624 10.0088 6.69174 10.019 6.70723C10.0215 6.7124 10.0316 6.72531 10.0342 6.7124C10.0342 6.69948 10.0494 6.7124 10.0468 6.72014C10.0468 6.73047 10.0367 6.73564 10.0291 6.73564C10.0189 6.73564 10.0063 6.73047 10.0012 6.72014C9.99106 6.70465 9.98345 6.68657 9.96824 6.67624C9.96564 6.67359 9.96238 6.6717 9.9588 6.67079C9.95523 6.66988 9.95148 6.66998 9.94796 6.67108V6.68399L9.96317 6.71498C9.96824 6.72273 9.97838 6.72273 9.98852 6.72273C9.99613 6.72531 9.9936 6.73822 9.98345 6.73564H9.94035C9.93275 6.7408 9.91753 6.73564 9.9226 6.72789C9.93021 6.72789 9.94035 6.72273 9.93528 6.71498L9.90993 6.64783L9.90232 6.62976ZM9.93782 6.65558C9.94289 6.66075 9.95303 6.65558 9.96064 6.65558C9.96824 6.65558 9.96824 6.64267 9.96571 6.6375C9.96317 6.62459 9.95556 6.61168 9.94289 6.60651C9.93782 6.60651 9.9226 6.60135 9.92007 6.6091L9.93782 6.65042V6.653V6.65558ZM10.1204 6.6969C10.1229 6.70465 10.128 6.7124 10.1356 6.71498C10.1406 6.71498 10.1508 6.71498 10.1533 6.72273C10.1533 6.73047 10.1432 6.72531 10.1381 6.72789H10.0975C10.0899 6.73047 10.0823 6.72789 10.0823 6.72014C10.0874 6.71498 10.1001 6.72014 10.1001 6.70981L10.0874 6.68141L10.0595 6.60651C10.057 6.59877 10.0468 6.59877 10.0418 6.59877C10.0342 6.59877 10.024 6.59877 10.024 6.6091C10.024 6.61684 10.0291 6.62459 10.024 6.62976C10.0164 6.62976 10.0139 6.62201 10.0113 6.61684C10.0113 6.6091 10.0063 6.60135 10.0012 6.59102C10.0012 6.58585 10.0113 6.58844 10.0139 6.58844L10.1204 6.58327C10.128 6.58327 10.133 6.58844 10.133 6.59618L10.1432 6.62201C10.1406 6.62976 10.1305 6.62201 10.128 6.61426C10.1254 6.60651 10.1153 6.59618 10.1052 6.59618C10.1001 6.59618 10.0899 6.59618 10.0849 6.60135L10.0899 6.61943L10.1204 6.6969ZM10.2167 6.67366C10.2116 6.67366 10.2142 6.68141 10.2142 6.68399V6.70465C10.2167 6.71498 10.2269 6.7124 10.2345 6.71498C10.2395 6.71498 10.237 6.72789 10.2294 6.72531H10.199C10.1914 6.72789 10.1787 6.72273 10.1863 6.71498C10.1914 6.71498 10.1964 6.7124 10.199 6.70723V6.57811C10.204 6.57036 10.2116 6.57811 10.2142 6.58327L10.3055 6.69948C10.3105 6.70465 10.3181 6.70981 10.3257 6.70981C10.3333 6.70981 10.3359 6.72273 10.3257 6.72014H10.2877C10.2826 6.72014 10.275 6.72531 10.27 6.72014C10.2649 6.71756 10.27 6.70981 10.275 6.70981C10.2826 6.70981 10.275 6.69948 10.2725 6.69432L10.2573 6.67366H10.2167ZM10.2446 6.66075C10.2497 6.66075 10.2446 6.65816 10.2446 6.65558L10.2116 6.61168V6.66333H10.2446V6.66075ZM10.3232 6.61426C10.3207 6.60393 10.3156 6.58844 10.3029 6.58844C10.2953 6.58844 10.2852 6.58327 10.2902 6.57811H10.3333C10.3511 6.57552 10.3688 6.57552 10.384 6.58069C10.4221 6.5936 10.4525 6.62717 10.4601 6.66849C10.4601 6.68399 10.4576 6.70207 10.4449 6.70981C10.4246 6.72273 10.4018 6.72014 10.3815 6.71756L10.346 6.72014C10.3384 6.72014 10.3359 6.70723 10.346 6.70981C10.3562 6.70981 10.3562 6.6969 10.3511 6.69174L10.3232 6.61426ZM10.3739 6.67882C10.3764 6.68657 10.379 6.6969 10.3866 6.70465H10.4119C10.4246 6.70465 10.4297 6.69174 10.4297 6.68141C10.4286 6.66241 10.4234 6.64389 10.4145 6.62717C10.4043 6.6091 10.3891 6.59618 10.3688 6.59102C10.3604 6.58957 10.3519 6.58957 10.3435 6.59102C10.3409 6.59102 10.3435 6.59618 10.3435 6.60135L10.3739 6.67882ZM9.83894 6.99905C9.83894 7.0068 9.84908 7.01455 9.85922 7.01455C9.86429 7.01455 9.87697 7.01455 9.87697 7.02488C9.8719 7.03004 9.86175 7.02488 9.85668 7.02488L9.81865 7.03004H9.79583C9.79076 7.03004 9.79076 7.01971 9.79837 7.01971C9.80598 7.01971 9.81358 7.01713 9.81358 7.00938L9.80851 6.98872L9.77809 6.91641C9.77809 6.90867 9.76794 6.90867 9.76034 6.90867C9.75527 6.90867 9.74513 6.91125 9.74259 6.9035C9.74259 6.89575 9.75527 6.89834 9.76034 6.89317L9.78569 6.88542C9.79076 6.88542 9.7933 6.88801 9.7933 6.89317L9.83894 6.99647V6.99905ZM9.85668 6.88284H9.90739C9.91753 6.88284 9.91246 6.86993 9.91753 6.86993C9.92768 6.86993 9.92768 6.88284 9.92768 6.88801C9.92768 6.89834 9.92007 6.90608 9.91246 6.9035H9.87443L9.88711 6.93449L9.90232 6.92933C9.92768 6.92933 9.9581 6.94482 9.96824 6.97065C9.97331 6.98356 9.97585 6.99647 9.96824 7.00938C9.9581 7.0223 9.94289 7.02488 9.92768 7.02488C9.915 7.02488 9.90232 7.0223 9.89218 7.00938C9.88964 7.00422 9.88964 6.99131 9.89725 6.99389C9.90739 6.99389 9.915 6.99905 9.915 7.00938C9.91753 7.01455 9.92767 7.01197 9.93275 7.01197C9.94035 7.01197 9.94796 7.0068 9.94796 6.99905C9.94796 6.98614 9.94289 6.97323 9.93528 6.9629C9.93021 6.95257 9.91753 6.94482 9.90232 6.94482L9.88204 6.9474C9.87443 6.9474 9.87443 6.93966 9.8719 6.93449L9.85415 6.88542L9.85922 6.88284H9.85668ZM10.0316 6.90867C10.0266 6.89834 10.0215 6.88542 10.0088 6.88284C10.0037 6.88284 9.99106 6.88026 9.99867 6.87251H10.0392C10.057 6.86735 10.0773 6.86993 10.0925 6.87509C10.1305 6.88801 10.1609 6.92158 10.1685 6.9629C10.1685 6.97839 10.166 6.99389 10.1508 7.00422C10.133 7.01455 10.1102 7.01197 10.0899 7.01197L10.057 7.01713C10.0494 7.01713 10.0468 7.00422 10.057 7.00422C10.0646 7.00422 10.0646 6.99389 10.0621 6.98614L10.0316 6.90867ZM10.0823 6.97323C10.0849 6.98098 10.0899 6.99131 10.0975 6.99905H10.1229C10.133 6.99647 10.1381 6.98356 10.1381 6.97323C10.1381 6.95515 10.1305 6.93707 10.1204 6.919C10.1102 6.90092 10.095 6.88801 10.0747 6.88542C10.0663 6.88398 10.0578 6.88398 10.0494 6.88542V6.89575L10.0823 6.97323ZM10.2446 6.86218C10.2522 6.86218 10.2547 6.86993 10.2573 6.87509C10.2573 6.88284 10.2623 6.88801 10.2649 6.89575C10.2598 6.9035 10.2522 6.89575 10.2497 6.88801C10.2471 6.88284 10.2421 6.87509 10.2345 6.87509H10.2015C10.1964 6.88026 10.2015 6.88801 10.2015 6.89059L10.2167 6.92674C10.2243 6.92674 10.2319 6.92674 10.237 6.92158C10.2421 6.91641 10.2294 6.9035 10.2421 6.90608C10.2497 6.90608 10.2497 6.919 10.2522 6.92674L10.2649 6.95515C10.2623 6.96548 10.2522 6.95515 10.2497 6.9474C10.2471 6.93966 10.237 6.93966 10.2294 6.93966C10.2243 6.93966 10.2192 6.93966 10.2243 6.94482L10.2395 6.98356C10.2446 6.99389 10.2573 6.99131 10.2649 6.99131C10.275 6.99131 10.2852 6.99131 10.2902 6.98356C10.2953 6.97839 10.2852 6.96806 10.2902 6.9629C10.3004 6.9629 10.3029 6.97065 10.3029 6.97581L10.3105 7.00164C10.3105 7.00422 10.3029 7.00164 10.3004 7.00164L10.2218 7.0068C10.2142 7.0068 10.204 7.01197 10.199 7.00422C10.1939 6.99389 10.2116 6.99905 10.2142 6.99131L10.2066 6.96806L10.1787 6.89317C10.1736 6.88542 10.1685 6.87768 10.1584 6.87509C10.1533 6.87509 10.1432 6.87509 10.1483 6.86476H10.1736L10.2446 6.86218ZM9.55497 7.23148C9.55751 7.24439 9.57018 7.24956 9.58032 7.25214C9.60061 7.2573 9.62343 7.26505 9.6361 7.28055C9.64371 7.29088 9.64878 7.30379 9.64878 7.3167C9.64878 7.32961 9.6361 7.33994 9.62343 7.34253C9.61075 7.34769 9.59554 7.34511 9.58032 7.33994C9.57525 7.33736 9.57779 7.35027 9.56765 7.34769C9.56258 7.34253 9.56511 7.3322 9.56258 7.32445C9.55971 7.31564 9.55632 7.30702 9.55243 7.29862C9.55243 7.29088 9.56258 7.29862 9.56511 7.30379C9.57272 7.31928 9.58793 7.32961 9.60568 7.3322C9.61582 7.3322 9.62596 7.32703 9.62596 7.3167C9.62596 7.30379 9.61582 7.29088 9.60568 7.28571C9.58793 7.27796 9.57018 7.27538 9.55497 7.26505C9.54773 7.26082 9.54163 7.25484 9.53721 7.24763C9.53279 7.24042 9.53018 7.23221 9.52962 7.22373C9.52962 7.2134 9.53976 7.20307 9.5499 7.20049C9.56258 7.19532 9.57525 7.19532 9.59047 7.20049C9.59554 7.20049 9.59807 7.19274 9.60568 7.19791C9.60568 7.20307 9.60568 7.20824 9.61075 7.2134L9.61836 7.23664C9.61328 7.24181 9.60568 7.23664 9.60568 7.23148C9.59807 7.22115 9.593 7.21082 9.58032 7.21082C9.57018 7.21082 9.56004 7.21082 9.55497 7.21857V7.23148ZM9.72231 7.18758C9.73245 7.18758 9.73245 7.19532 9.73498 7.20049L9.74006 7.22115C9.74006 7.2289 9.72991 7.22115 9.72738 7.21598C9.72484 7.21082 9.71977 7.20307 9.70963 7.20307H9.67921C9.67413 7.20824 9.67921 7.21598 9.67921 7.21857L9.69188 7.25472C9.69949 7.25472 9.7071 7.25472 9.71217 7.24956C9.71724 7.24439 9.7071 7.23406 9.7147 7.23148C9.72484 7.23148 9.72484 7.24439 9.72738 7.24956C9.72738 7.25989 9.73498 7.27022 9.73752 7.28313C9.73498 7.29088 9.72484 7.28313 9.72484 7.27538C9.72231 7.26763 9.71217 7.26505 9.70456 7.26763C9.69949 7.26763 9.69442 7.26763 9.69695 7.2728L9.71217 7.31154C9.7147 7.31928 9.72231 7.31928 9.72991 7.31928C9.74005 7.31928 9.75273 7.31928 9.76034 7.31154C9.76541 7.30637 9.76034 7.29604 9.76034 7.29088C9.76794 7.28571 9.77555 7.29088 9.77555 7.29862L9.78062 7.32445C9.78062 7.32961 9.77302 7.32961 9.77048 7.32961L9.69442 7.33478C9.68428 7.33478 9.67413 7.34253 9.66906 7.33478C9.66906 7.32445 9.68174 7.32703 9.68428 7.31928C9.68428 7.31412 9.68428 7.30637 9.67921 7.29862L9.65385 7.22115C9.65385 7.2134 9.64625 7.20565 9.6361 7.20565C9.63103 7.20565 9.62089 7.20307 9.62596 7.19532H9.65132L9.72231 7.18758ZM9.82879 7.29604C9.83133 7.30379 9.8364 7.31154 9.84401 7.31412C9.85161 7.31412 9.86175 7.31154 9.86429 7.31928C9.86429 7.32961 9.85161 7.32445 9.84654 7.32445C9.83133 7.32445 9.82119 7.32445 9.80598 7.32961C9.8009 7.32961 9.7933 7.32961 9.79076 7.32445C9.79076 7.31412 9.80344 7.31928 9.80598 7.31412L9.80344 7.29346L9.77809 7.21598C9.77302 7.20824 9.77048 7.19791 9.76034 7.19791C9.75527 7.19791 9.74513 7.19791 9.74766 7.18758C9.7502 7.18241 9.7578 7.18758 9.76541 7.18758C9.78316 7.18758 9.8009 7.17983 9.82119 7.18241C9.83047 7.18305 9.83941 7.18628 9.84701 7.19175C9.85461 7.19721 9.86059 7.20471 9.86429 7.2134C9.86936 7.22373 9.86936 7.23923 9.86429 7.24697C9.85161 7.2573 9.8364 7.25989 9.82119 7.26247C9.81612 7.26247 9.82119 7.26763 9.82119 7.27022L9.82879 7.29604ZM9.81358 7.24956H9.83133C9.83894 7.24697 9.84401 7.23923 9.84147 7.23148C9.84147 7.21857 9.8364 7.20824 9.82879 7.20049C9.82119 7.19274 9.80851 7.19274 9.80091 7.19532C9.79583 7.19791 9.80091 7.20307 9.80091 7.20824L9.81358 7.24956ZM9.97078 7.28829C9.97078 7.29346 9.97585 7.30379 9.98345 7.30379C9.98852 7.30379 10.0012 7.30379 10.0012 7.31154C10.0012 7.31928 9.98852 7.3167 9.98345 7.3167L9.94289 7.31928C9.93782 7.31928 9.93021 7.31928 9.93021 7.31154C9.93528 7.30637 9.94796 7.31154 9.94796 7.30121L9.94035 7.27022L9.915 7.19532C9.915 7.18758 9.90486 7.19016 9.89725 7.19016C9.89218 7.19016 9.88204 7.19016 9.8795 7.19791V7.21857C9.87443 7.22373 9.86683 7.21857 9.86936 7.21082L9.85922 7.18499C9.85922 7.17725 9.86683 7.17983 9.8719 7.17725L9.97585 7.17208C9.98345 7.17208 9.98852 7.17725 9.98852 7.18499L9.99867 7.21082C9.99613 7.21598 9.98599 7.21082 9.98599 7.20565C9.98092 7.19791 9.97331 7.18758 9.96064 7.18758C9.95556 7.18758 9.94796 7.18499 9.94035 7.18758L9.94542 7.20565L9.97078 7.28829ZM10.024 7.20307C10.0215 7.19532 10.0189 7.18499 10.0088 7.18241C10.0037 7.18241 9.9936 7.18241 9.9936 7.17208C9.99613 7.16692 10.0037 7.17208 10.0088 7.17208L10.0544 7.16692C10.0621 7.16433 10.0671 7.17725 10.0595 7.17725C10.0519 7.17725 10.0443 7.18241 10.0468 7.19016L10.0595 7.23148L10.0773 7.28829C10.0773 7.29346 10.0849 7.29862 10.0899 7.29862C10.0975 7.29862 10.1077 7.29862 10.1052 7.30895H10.0874L10.0468 7.31412C10.0418 7.31412 10.0316 7.30895 10.0367 7.30379C10.0418 7.30121 10.0519 7.30379 10.0519 7.29346L10.0443 7.26247L10.024 7.20307ZM10.1711 7.16175C10.1787 7.16175 10.1787 7.1695 10.1812 7.17466L10.1863 7.19532C10.1838 7.20307 10.1736 7.19532 10.1736 7.19016C10.1711 7.18241 10.166 7.17466 10.1559 7.17466H10.128C10.1229 7.17983 10.128 7.18758 10.128 7.19274L10.1406 7.22631C10.1457 7.22631 10.1533 7.22631 10.1609 7.22115C10.166 7.21857 10.1559 7.20565 10.1635 7.20565C10.1736 7.20565 10.1736 7.21598 10.1761 7.22115C10.1761 7.23406 10.1838 7.24439 10.1863 7.25472C10.1838 7.26247 10.1736 7.25472 10.1736 7.24956C10.1711 7.24181 10.1609 7.23923 10.1533 7.23923C10.1508 7.23923 10.1406 7.23923 10.1457 7.24439L10.1584 7.28313C10.1609 7.29088 10.1711 7.29346 10.1761 7.29346C10.1863 7.29346 10.199 7.29346 10.2066 7.28571C10.2116 7.28055 10.2066 7.27022 10.2091 7.26247C10.2167 7.25989 10.2218 7.26505 10.2218 7.2728L10.2269 7.29862C10.2269 7.30379 10.2218 7.30379 10.2167 7.30379L10.1406 7.30637C10.1305 7.30637 10.1229 7.31154 10.1153 7.30637C10.1128 7.29604 10.128 7.29862 10.1305 7.29346C10.1315 7.29003 10.1318 7.28641 10.1314 7.28286C10.1309 7.2793 10.1298 7.27587 10.128 7.2728L10.1026 7.19532C10.1026 7.18758 10.095 7.17725 10.0849 7.17725C10.0798 7.17725 10.0697 7.17208 10.0747 7.16692H10.1001L10.1736 7.16175H10.1711ZM10.2218 7.18758C10.2192 7.17725 10.2116 7.1695 10.2015 7.1695C10.1939 7.17208 10.1888 7.154 10.2015 7.15917H10.2395L10.2573 7.18241L10.3131 7.2573C10.308 7.2573 10.3131 7.25214 10.3105 7.24956L10.3207 7.15659C10.3257 7.15142 10.3384 7.15659 10.346 7.15142C10.3536 7.15142 10.3714 7.15142 10.3663 7.16175C10.3562 7.16175 10.346 7.16692 10.3511 7.17725L10.3815 7.27022C10.3815 7.28055 10.3917 7.28571 10.4018 7.28313C10.4094 7.28313 10.4094 7.29862 10.4018 7.29604H10.3562C10.3486 7.29862 10.3359 7.29862 10.3384 7.28829C10.346 7.28829 10.3587 7.28313 10.3536 7.2728L10.3283 7.19016C10.3308 7.19274 10.3283 7.19791 10.3283 7.20049L10.3232 7.27796L10.3207 7.29862C10.3131 7.30121 10.3105 7.29604 10.308 7.29088L10.2345 7.19532L10.2395 7.20307C10.2471 7.2289 10.2522 7.25472 10.2623 7.27796C10.2623 7.28829 10.275 7.29088 10.2826 7.29088C10.2928 7.29604 10.2852 7.30379 10.2776 7.30121H10.2395C10.2319 7.30121 10.2319 7.29088 10.2395 7.29088C10.2522 7.29088 10.2497 7.27796 10.2446 7.27022L10.2192 7.18758H10.2218ZM10.4424 7.20824C10.4424 7.2134 10.4525 7.20824 10.455 7.20824C10.4626 7.20824 10.4703 7.20824 10.4728 7.19791C10.4728 7.18758 10.4677 7.17208 10.4601 7.16692C10.45 7.15917 10.4398 7.16175 10.4297 7.16175V7.17466L10.4424 7.20824ZM10.455 7.24956L10.4652 7.27538C10.4728 7.28055 10.4804 7.27796 10.488 7.27796C10.4931 7.27796 10.5007 7.2728 10.4981 7.26505C10.4981 7.24956 10.4905 7.23148 10.4753 7.22631H10.45V7.23406L10.455 7.24956ZM10.4069 7.18758C10.4043 7.17725 10.4018 7.16692 10.3917 7.16175C10.3866 7.16175 10.3764 7.16175 10.3764 7.154C10.3764 7.14626 10.3891 7.154 10.3942 7.15142C10.4195 7.15142 10.4398 7.14626 10.4626 7.15142C10.4804 7.15659 10.4956 7.17466 10.4956 7.19274C10.4956 7.20307 10.4855 7.21082 10.4779 7.21598C10.4779 7.21082 10.488 7.21598 10.4905 7.21598C10.5032 7.22115 10.5159 7.23148 10.521 7.24697C10.526 7.2573 10.5286 7.27022 10.521 7.28055C10.5108 7.29088 10.4956 7.29088 10.4829 7.29088L10.4246 7.29346C10.417 7.29346 10.4145 7.28055 10.4246 7.28313C10.4322 7.28313 10.4348 7.2728 10.4297 7.26505L10.4069 7.18758ZM10.5362 7.18241C10.5362 7.17466 10.5311 7.16175 10.521 7.15659C10.5159 7.15659 10.5057 7.15659 10.5057 7.14884C10.5108 7.14109 10.521 7.14884 10.5311 7.14626H10.5818C10.6021 7.14626 10.6198 7.16175 10.6249 7.18241C10.6274 7.19274 10.6249 7.20824 10.6148 7.2134L10.6046 7.21857C10.6198 7.22373 10.6325 7.23664 10.6401 7.24956L10.6528 7.27022C10.6579 7.27538 10.6604 7.26763 10.6604 7.26247C10.6705 7.2573 10.6756 7.27022 10.6705 7.27796C10.668 7.28829 10.6528 7.29088 10.6452 7.28829C10.6407 7.28804 10.6364 7.28644 10.6327 7.28368C10.6291 7.28092 10.6264 7.27714 10.6249 7.2728L10.5996 7.2289C10.592 7.22631 10.5843 7.22115 10.5767 7.22631V7.23664L10.5894 7.26763C10.592 7.27538 10.6021 7.27796 10.6097 7.27796C10.6198 7.27796 10.6198 7.29088 10.6097 7.28829H10.5641C10.559 7.28829 10.5488 7.29346 10.5463 7.28829C10.5412 7.27538 10.5565 7.28055 10.5615 7.27538L10.5565 7.25214L10.5362 7.18241ZM10.5691 7.20824C10.5717 7.21598 10.5843 7.20824 10.5894 7.20824C10.597 7.20824 10.6021 7.20049 10.5996 7.19532C10.5996 7.18241 10.5945 7.1695 10.5869 7.16175C10.5793 7.15659 10.5691 7.15659 10.5615 7.15917C10.5565 7.15917 10.559 7.16692 10.5615 7.17208L10.5691 7.20565V7.20824ZM10.7441 7.14109C10.7517 7.14109 10.7517 7.14884 10.7542 7.154C10.7542 7.16175 10.7593 7.1695 10.7618 7.17466C10.7568 7.18241 10.7491 7.17466 10.7466 7.1695C10.7466 7.16433 10.7415 7.154 10.7314 7.154H10.6984C10.6934 7.15659 10.6984 7.16433 10.6984 7.1695L10.7086 7.20565C10.7162 7.20565 10.7238 7.20565 10.7289 7.20049C10.7365 7.19791 10.7263 7.18758 10.7339 7.18241C10.7441 7.18241 10.7441 7.19274 10.7441 7.20049C10.7441 7.2134 10.7517 7.22373 10.7542 7.23406C10.7517 7.24181 10.7415 7.23406 10.7415 7.2289C10.7415 7.22115 10.7314 7.21598 10.7238 7.21857C10.7213 7.21857 10.7111 7.2134 10.7137 7.21857L10.7263 7.26247C10.7289 7.27022 10.7365 7.27022 10.7441 7.27022C10.7542 7.27022 10.7669 7.27022 10.7745 7.26505C10.7796 7.25989 10.7745 7.24956 10.777 7.24439C10.7846 7.23923 10.7922 7.24439 10.7897 7.25214L10.7948 7.27796C10.7948 7.28313 10.7872 7.28313 10.7846 7.28313H10.706C10.6984 7.28313 10.6908 7.28829 10.6858 7.28313C10.6782 7.2728 10.6908 7.27538 10.6959 7.27022C10.701 7.26505 10.6959 7.2573 10.6959 7.25214L10.6731 7.17208C10.6731 7.16433 10.6655 7.154 10.6579 7.154C10.6503 7.154 10.6427 7.15142 10.6452 7.14367H10.6705L10.7466 7.14109H10.7441ZM9.91246 7.4794C9.91246 7.47165 9.90739 7.45874 9.89725 7.45357C9.88964 7.45357 9.8795 7.45357 9.88457 7.44583L9.90993 7.44324C9.93021 7.44324 9.95049 7.43808 9.97078 7.44324C10.0012 7.44841 10.0291 7.47423 10.0367 7.50264C10.0418 7.5233 10.0443 7.54396 10.0316 7.56204C10.019 7.57753 9.99613 7.5827 9.97585 7.5827C9.9581 7.5827 9.94289 7.5827 9.92768 7.58786C9.9226 7.59045 9.91246 7.58528 9.91753 7.57753C9.92514 7.57753 9.93528 7.57495 9.93275 7.56462L9.9226 7.52588L9.91246 7.4794ZM9.95303 7.54396C9.95556 7.55171 9.9581 7.56204 9.96317 7.5672C9.97078 7.57237 9.98092 7.56979 9.98852 7.5672C9.99867 7.5672 10.0088 7.55687 10.0113 7.54396C10.0133 7.52443 10.0098 7.50472 10.0012 7.48715C9.99793 7.47915 9.99272 7.47211 9.98608 7.4667C9.97943 7.46128 9.97155 7.45766 9.96317 7.45616C9.95395 7.45441 9.9445 7.45441 9.93528 7.45616C9.93275 7.45616 9.93528 7.46132 9.93528 7.46649L9.95303 7.54396ZM10.133 7.42775C10.1406 7.42775 10.1406 7.4355 10.1432 7.44066L10.1483 7.4639C10.1432 7.46907 10.1356 7.4639 10.1356 7.45874C10.133 7.45099 10.128 7.44324 10.1204 7.44324H10.0874C10.0823 7.44583 10.0874 7.45357 10.0874 7.45874C10.0874 7.47165 10.0925 7.48456 10.095 7.49489C10.1026 7.49489 10.1102 7.49489 10.1153 7.48973C10.1204 7.48456 10.1128 7.47423 10.1204 7.47165C10.1305 7.47165 10.128 7.48456 10.1305 7.48973L10.1381 7.5233C10.1381 7.53105 10.1254 7.5233 10.1254 7.51814C10.1254 7.51039 10.1153 7.50522 10.1077 7.50781C10.1052 7.50781 10.095 7.50522 10.1001 7.51039C10.1001 7.5233 10.1052 7.53621 10.1102 7.55171C10.1102 7.55946 10.1204 7.55946 10.128 7.55946C10.1381 7.55946 10.1508 7.55946 10.1584 7.55171C10.1635 7.54654 10.1584 7.53621 10.1635 7.53105C10.1685 7.52588 10.1736 7.53363 10.1736 7.54138C10.1736 7.54913 10.1736 7.55687 10.1787 7.5672C10.1761 7.57237 10.1711 7.56979 10.166 7.56979L10.0899 7.57495C10.0823 7.57495 10.0747 7.58012 10.0671 7.57495C10.0621 7.56979 10.0697 7.56462 10.0773 7.56462C10.0849 7.56204 10.0823 7.55171 10.0798 7.54654L10.0621 7.4639C10.0595 7.45616 10.0544 7.44583 10.0468 7.44583C10.0392 7.44583 10.0316 7.44324 10.0342 7.4355H10.0595L10.133 7.42775ZM10.2978 7.53363C10.2978 7.54138 10.3055 7.54913 10.3131 7.55171C10.3181 7.55171 10.3283 7.55171 10.3308 7.55687C10.3333 7.56462 10.3207 7.56204 10.3156 7.56204L10.2725 7.56462C10.2649 7.56462 10.2573 7.5672 10.2522 7.56462C10.2446 7.56462 10.2471 7.55429 10.2547 7.55429C10.2623 7.55429 10.27 7.55171 10.2725 7.54396L10.27 7.5233L10.2522 7.45099C10.2522 7.44324 10.2446 7.44324 10.237 7.44324C10.2319 7.44324 10.2218 7.44841 10.2192 7.44066C10.2192 7.43033 10.2319 7.43291 10.237 7.43033L10.2649 7.42C10.27 7.42 10.2725 7.42258 10.2725 7.42775L10.2978 7.53363ZM10.3917 7.44841C10.3917 7.43808 10.384 7.42775 10.3739 7.42775C10.3663 7.42775 10.3562 7.42775 10.3536 7.4355C10.3511 7.44583 10.3536 7.45616 10.3638 7.46132L10.3866 7.47423L10.3917 7.45874V7.44841ZM10.4119 7.5233C10.4119 7.51039 10.3967 7.50264 10.3866 7.49748C10.3815 7.49748 10.3764 7.49231 10.3739 7.49489C10.37 7.49776 10.3669 7.50172 10.3651 7.5063C10.3633 7.51087 10.3629 7.51588 10.3638 7.52072C10.3688 7.53621 10.3764 7.54654 10.3891 7.54654C10.3993 7.54913 10.4094 7.54654 10.4145 7.53621V7.5233H10.4119ZM10.4373 7.51814C10.4373 7.53105 10.4322 7.54396 10.4221 7.55171C10.4094 7.56204 10.3891 7.56204 10.3714 7.55687C10.3562 7.55429 10.346 7.54138 10.3409 7.52588C10.3409 7.51297 10.3435 7.50006 10.3536 7.48973C10.3562 7.48973 10.3663 7.48715 10.3587 7.48456C10.346 7.4794 10.3333 7.46907 10.3333 7.45357C10.3283 7.44066 10.3333 7.42775 10.346 7.42C10.3572 7.41412 10.3702 7.41271 10.3824 7.41605C10.3946 7.41939 10.4051 7.42725 10.4119 7.43808C10.417 7.44841 10.417 7.46132 10.4119 7.46907L10.3967 7.48198C10.4094 7.48198 10.4221 7.49231 10.4271 7.50264C10.4322 7.50522 10.4348 7.51297 10.4348 7.51814H10.4373ZM10.5184 7.53363C10.5235 7.53363 10.5311 7.52847 10.5311 7.5233C10.5336 7.51814 10.5311 7.50522 10.5387 7.50781C10.5463 7.50781 10.5438 7.51555 10.5463 7.5233C10.5463 7.53363 10.5463 7.54396 10.5362 7.55171C10.5311 7.55687 10.5235 7.55429 10.5159 7.55429H10.4728C10.4677 7.55429 10.4601 7.55946 10.455 7.55429C10.45 7.54913 10.455 7.54138 10.455 7.53621C10.4601 7.51814 10.4703 7.50522 10.4804 7.49489C10.4905 7.48715 10.5007 7.4794 10.5007 7.46649C10.5007 7.45616 10.5007 7.44583 10.4956 7.4355C10.4938 7.43258 10.4914 7.43006 10.4887 7.42809C10.4859 7.42611 10.4828 7.42472 10.4795 7.424C10.4762 7.42328 10.4727 7.42324 10.4694 7.42388C10.4661 7.42453 10.4629 7.42584 10.4601 7.42775C10.4525 7.43033 10.4474 7.44066 10.4525 7.44583C10.4576 7.45099 10.4677 7.44583 10.4703 7.45616C10.4753 7.46132 10.4703 7.47165 10.4626 7.47165C10.4525 7.47165 10.4424 7.4639 10.4373 7.45357C10.4348 7.44066 10.4398 7.42517 10.4525 7.41742C10.4652 7.40967 10.4804 7.40967 10.4956 7.41225C10.5083 7.41742 10.521 7.42775 10.526 7.44324C10.5286 7.45357 10.5286 7.46649 10.5235 7.47682C10.5134 7.49489 10.4931 7.50264 10.4804 7.52072C10.4779 7.5233 10.4753 7.52847 10.4779 7.53621C10.4779 7.52847 10.488 7.53105 10.4905 7.53105H10.5159L10.5184 7.53363ZM10.6173 7.5233C10.6173 7.52847 10.6249 7.53621 10.6325 7.5388C10.6376 7.5388 10.6477 7.5388 10.6503 7.54396C10.6553 7.55171 10.6427 7.55171 10.6376 7.55171H10.5691C10.5641 7.54913 10.5691 7.5388 10.5742 7.54138C10.5818 7.54138 10.5894 7.5388 10.592 7.53105V7.51039L10.5742 7.43808C10.5742 7.43033 10.5666 7.43033 10.5615 7.43033C10.5539 7.43033 10.5463 7.4355 10.5438 7.43033C10.5387 7.42 10.5514 7.42 10.5565 7.41742L10.5869 7.40709C10.5945 7.40709 10.5945 7.40967 10.597 7.41484L10.6173 7.52072V7.5233Z" fill="#B07E09"/>
<path d="M9.89471 5.41602L9.79837 5.53481C9.76794 5.6691 9.844 5.7724 9.99359 5.86021C10.1128 5.93768 10.3359 5.95576 10.4069 5.89378L10.0595 5.55805L9.89471 5.4186V5.41602Z" fill="url(#paint9_radial_14_505)" stroke="#4C0505" stroke-width="0.0081883"/>
<path d="M10.5996 8.89976L10.5489 8.8352C10.3285 9.13985 10.0456 9.39191 9.71979 9.5738C10.1026 9.46533 10.3536 9.18126 10.5996 8.89976ZM10.2066 9.82172C10.3492 9.53741 10.5032 9.25913 10.668 8.98757L10.6148 8.91784C10.4272 9.23291 10.2091 9.60737 10.2091 9.82172H10.2066ZM11.2664 6.86476C11.2423 6.74909 11.2058 6.6365 11.1574 6.52903C10.8855 6.06225 10.5039 5.67174 10.0469 5.39273V5.38498H10.057L10.0545 5.3824H10.0646L10.0595 5.37465H10.0697L10.0621 5.36432H10.0722L10.0646 5.35658H10.0773L10.0697 5.34625H10.0798L10.0697 5.3385L10.0849 5.33592L10.0722 5.32817L10.0849 5.32559L10.0747 5.31784L10.09 5.31267L10.0773 5.30493L10.0925 5.29718L10.0773 5.28685L10.095 5.28168L10.0747 5.27394L10.0925 5.26361H10.0722L10.0849 5.24553H10.0671L10.0747 5.23262H10.0595L10.0671 5.2197L10.0494 5.22229L10.057 5.20679L10.0418 5.21712L10.0469 5.19904L10.0291 5.20937L10.0316 5.1913L10.0164 5.20421L10.019 5.18613L10.0063 5.19904V5.18097L9.99361 5.19646V5.17838L9.98347 5.1913L9.9784 5.1758L9.96826 5.1913L9.96572 5.17322L9.95812 5.1913L9.95305 5.17322L9.94544 5.1913L9.94037 5.1758L9.9353 5.1913L9.93023 5.1758L9.92516 5.19646L9.92008 5.17838L9.91248 5.19904L9.90487 5.18097V5.20163L9.89473 5.18355V5.20421L9.88205 5.18871V5.20937L9.87191 5.19388V5.21196L9.86177 5.20421L9.86684 5.22229L9.85416 5.21454L9.85923 5.23003L9.84909 5.22487L9.85163 5.24036H9.84149L9.84656 5.25069H9.83895L9.84402 5.26102C9.83483 5.29018 9.83138 5.32089 9.83388 5.35141C9.83388 5.35658 9.84909 5.36174 9.85163 5.36691C9.85924 5.37724 9.8567 5.3824 9.8567 5.3824C9.81613 5.44955 9.78064 5.5012 9.7781 5.57867C9.80853 5.53735 9.84402 5.4857 9.88966 5.4857C9.86684 5.52444 9.8567 5.64323 9.88205 5.66131L9.90234 5.62774C9.90234 5.65356 9.90487 5.67422 9.91248 5.68714C9.92008 5.67164 9.92769 5.65356 9.93783 5.64323C9.93783 5.68197 9.9429 5.71296 9.95305 5.72846C9.96572 5.7078 9.9784 5.69747 9.99361 5.68714C9.98854 5.71038 9.98093 5.73104 9.98601 5.75686C10.0012 5.73104 10.0164 5.71296 10.0342 5.6923C10.024 5.73362 10.0342 5.76461 10.0443 5.80851C10.0545 5.75686 10.0595 5.74912 10.0824 5.72846C10.0849 5.77752 10.0773 5.82143 10.0874 5.84983C10.1077 5.80593 10.1229 5.8111 10.1381 5.78269C10.1331 5.82401 10.1255 5.86791 10.1381 5.90407C10.1455 5.8764 10.1627 5.85248 10.1863 5.83692C10.1863 5.89374 10.199 5.88341 10.166 5.93247C10.1812 5.93764 10.2294 5.92214 10.2573 5.90923C10.2446 5.94022 10.2472 5.96346 10.2345 5.98671C10.2598 5.97121 10.2852 5.94797 10.308 5.92473C10.2979 5.96088 10.27 5.99704 10.2826 6.03061C10.2903 5.99704 10.3156 5.97121 10.341 5.96605C10.3359 5.98412 10.3334 6.02286 10.308 6.04094C10.3689 6.0461 10.3942 6.00478 10.4246 5.97121C10.4221 6.00478 10.4246 6.03319 10.4652 6.08226C10.4576 6.02028 10.4703 6.03319 10.4982 5.99704C10.5134 6.05127 10.5286 6.11067 10.5844 6.15199C10.559 6.09259 10.559 6.0616 10.5691 6.02544C10.5768 6.06418 10.6123 6.11067 10.6199 6.14424C10.6275 6.1055 10.6325 6.06676 10.6452 6.04094C10.6638 6.08714 10.6758 6.13586 10.6807 6.18556C10.6934 6.15973 10.7035 6.13391 10.7086 6.10808C11.2106 6.6375 11.3222 7.31411 10.772 8.02946C10.9697 7.89517 11.0205 7.68083 11.1295 7.49747C11.023 7.73764 10.9773 8.00622 10.7872 8.20507C10.9697 8.04496 11.0078 7.89776 11.1168 7.74281C11.0027 8.06562 10.8379 8.41942 10.6148 8.74481L10.7365 8.87911L10.8379 8.70091C11.0762 8.30321 11.4641 7.73248 11.2689 6.86476H11.2664Z" fill="#448127" stroke="#34541F" stroke-width="0.0081883"/>
<path d="M9.82879 5.31009C9.80344 5.31526 9.79329 5.32559 9.77301 5.34625C9.79836 5.35141 9.81611 5.35399 9.83893 5.35399C9.844 5.35399 9.84654 5.34366 9.84654 5.3385L9.84147 5.31267C9.84147 5.30751 9.82625 5.31009 9.82118 5.31267L9.82879 5.31009Z" fill="#EAC102" stroke="#A08307" stroke-width="0.0081883"/>
<path d="M9.77301 5.34629C9.79106 5.33983 9.80977 5.3355 9.82879 5.33337C9.81075 5.33985 9.79203 5.34418 9.77301 5.34629Z" fill="#A08307"/>
<path d="M9.94289 5.33331C9.95409 5.33331 9.96317 5.32406 9.96317 5.31265C9.96317 5.30124 9.95409 5.29199 9.94289 5.29199C9.93169 5.29199 9.92261 5.30124 9.92261 5.31265C9.92261 5.32406 9.93169 5.33331 9.94289 5.33331Z" fill="black" stroke="black" stroke-width="0.00409415"/>
<path d="M9.94797 5.32046C9.95218 5.32046 9.95558 5.31584 9.95558 5.31013C9.95558 5.30443 9.95218 5.2998 9.94797 5.2998C9.94377 5.2998 9.94037 5.30443 9.94037 5.31013C9.94037 5.31584 9.94377 5.32046 9.94797 5.32046Z" fill="url(#paint10_radial_14_505)"/>
<path d="M10.2091 9.814C10.2551 9.65924 10.318 9.51023 10.3967 9.36981C10.4531 9.26266 10.5131 9.15757 10.5767 9.05475L10.6427 8.95145L10.5793 9.05475C10.5183 9.15957 10.4591 9.26547 10.4018 9.3724C10.3276 9.514 10.2632 9.66069 10.2091 9.81142V9.814ZM9.72992 9.56867C10.0262 9.43744 10.2851 9.23226 10.4829 8.97211C10.3831 9.0685 10.2883 9.17022 10.199 9.27684C10.0584 9.39834 9.9002 9.49679 9.72992 9.56867ZM10.6756 8.81199C10.6959 8.78617 10.7137 8.75518 10.7314 8.72677C10.7858 8.64125 10.8366 8.55336 10.8835 8.46335C10.919 8.40396 10.9494 8.34198 10.9799 8.28258L11.0737 8.1018L11.0306 8.19219L10.9849 8.28516C10.9235 8.40598 10.8584 8.52483 10.7897 8.64155C10.7541 8.69999 10.716 8.75685 10.6756 8.81199ZM10.8252 8.16378C10.9122 8.05896 10.9847 7.94253 11.0407 7.81773C11.1231 7.6296 11.1745 7.42891 11.1928 7.22375C11.1908 7.25814 11.1899 7.2926 11.1903 7.32705C11.169 7.49792 11.1192 7.66385 11.0433 7.81773C10.986 7.94245 10.9127 8.05883 10.8252 8.16378Z" fill="#34541F"/>
<path d="M10.7847 8.01397C10.8734 7.91798 10.9477 7.80921 11.0052 7.69116C11.0477 7.6031 11.0849 7.51255 11.1168 7.42L11.1244 7.39675L11.132 7.37351L11.1472 7.32703C11.1732 7.19593 11.1749 7.06106 11.1523 6.92932C11.1539 6.99593 11.1598 7.06237 11.17 7.12817C11.17 7.19532 11.165 7.26246 11.1523 7.32703C11.1447 7.34252 11.1422 7.3606 11.1371 7.37609L11.1295 7.39934L11.1193 7.42258C11.0844 7.51476 11.0472 7.60604 11.0078 7.69632C10.9798 7.75548 10.9476 7.81245 10.9114 7.86677C10.8745 7.92115 10.832 7.97136 10.7847 8.01655V8.01397Z" fill="#34541F"/>
<path d="M10.6351 8.76806C10.668 8.72674 10.6959 8.68284 10.7263 8.63894L10.772 8.57438L10.8151 8.50981L10.8911 8.37036L10.9571 8.22832C11.0027 8.13277 11.0458 8.03722 11.0838 7.9365C11.1597 7.73996 11.205 7.5326 11.2182 7.32186C11.2396 7.11114 11.2171 6.89819 11.1523 6.6969C11.2238 6.89665 11.2482 7.11076 11.2233 7.32186C11.2098 7.53341 11.1645 7.74158 11.0889 7.93908C11.0509 8.03722 11.0078 8.13277 10.9621 8.22832L10.8911 8.37036C10.8683 8.41943 10.8455 8.46591 10.8176 8.50981C10.8049 8.53564 10.7897 8.55372 10.7745 8.57696L10.7289 8.64152L10.6376 8.77065L10.6351 8.76806Z" fill="#34541F"/>
<path d="M10.7061 8.84814C10.8253 8.64941 10.9386 8.44702 11.0458 8.24125C11.2007 7.92767 11.2765 7.57977 11.2664 7.22891C11.2664 7.1127 11.2562 6.99648 11.236 6.88285C11.2368 6.88285 11.2377 6.88285 11.2385 6.88285C11.2613 6.99648 11.2689 7.11528 11.2689 7.22891C11.2683 7.46183 11.2376 7.69366 11.1776 7.91844C11.1443 8.03028 11.1019 8.13912 11.0509 8.24383C10.9428 8.44877 10.8287 8.65029 10.7086 8.84814H10.7061ZM10.0012 5.45215H10.0367C10.0728 5.45794 10.1079 5.46926 10.1407 5.48572C10.2254 5.53161 10.3024 5.59088 10.3689 5.66133C10.3015 5.59333 10.2246 5.53589 10.1407 5.49089C10.0964 5.4709 10.0494 5.45784 10.0012 5.45215Z" fill="#34541F"/>
<path d="M10.417 5.731C10.417 5.731 10.4931 5.77748 10.5362 5.84463C10.5362 5.84463 10.417 5.82138 10.3334 5.72583" fill="#448127"/>
<path d="M10.417 5.731C10.4656 5.75891 10.5072 5.79778 10.5387 5.84463L10.5412 5.84979H10.5362C10.4967 5.84065 10.459 5.82495 10.4246 5.80331C10.3891 5.78265 10.3587 5.75682 10.3308 5.72583C10.3725 5.76998 10.4237 5.80359 10.4804 5.82397L10.5362 5.84204V5.84721C10.5209 5.82295 10.5021 5.80119 10.4804 5.78265C10.4608 5.76351 10.4396 5.74623 10.417 5.731Z" fill="#34541F"/>
<path d="M10.2446 5.70776C10.2446 5.70776 10.4272 5.82656 10.4551 5.83689C10.4551 5.83689 10.412 5.7465 10.3258 5.70776" fill="#448127"/>
<path d="M10.2446 5.70778L10.3486 5.77234C10.3746 5.78814 10.4008 5.80364 10.4272 5.81883L10.4525 5.83433V5.83691C10.439 5.80907 10.421 5.78376 10.3993 5.76202C10.3779 5.73986 10.3531 5.72153 10.3258 5.70778C10.3545 5.71919 10.3804 5.73681 10.4018 5.75943C10.4237 5.78205 10.4417 5.80823 10.4551 5.83691L10.4601 5.84207L10.4525 5.83949L10.3993 5.8085C10.3469 5.77532 10.2954 5.74088 10.2446 5.7052V5.70778Z" fill="#34541F"/>
<path d="M10.3181 5.64832C10.3181 5.64832 10.4119 5.68964 10.4348 5.75936C10.4348 5.75936 10.2624 5.68705 10.2319 5.64832" fill="#448127"/>
<path d="M10.3181 5.64832C10.3437 5.65836 10.3676 5.67229 10.3891 5.68964L10.417 5.72063L10.4373 5.75936V5.76453H10.4322C10.3715 5.73579 10.3123 5.7039 10.2548 5.66898L10.2319 5.64832L10.2548 5.66639L10.2801 5.68189C10.3291 5.71262 10.3809 5.73856 10.4348 5.75936H10.4322C10.4272 5.74903 10.4221 5.73354 10.4119 5.72579C10.4056 5.71386 10.397 5.70333 10.3866 5.6948C10.3662 5.67588 10.3431 5.66021 10.3181 5.64832Z" fill="#34541F"/>
<path d="M10.1736 5.72327C10.1736 5.72327 10.341 5.84464 10.3917 5.84464C10.3917 5.84464 10.341 5.75942 10.2548 5.72327" fill="#448127"/>
<path d="M10.1736 5.72327C10.2349 5.76247 10.2975 5.79951 10.3613 5.83431L10.3917 5.84206L10.3892 5.84723C10.3733 5.82034 10.3536 5.79598 10.3308 5.77492C10.308 5.75418 10.2824 5.7368 10.2548 5.72327C10.2983 5.74056 10.3368 5.76903 10.3663 5.80591L10.3917 5.84464L10.3968 5.84723H10.3917C10.379 5.84723 10.3689 5.84464 10.3587 5.83948L10.3334 5.82657C10.2765 5.79834 10.2229 5.76369 10.1736 5.72327Z" fill="#34541F"/>
<path d="M10.1736 5.75938C10.1736 5.75938 10.2598 5.83685 10.3106 5.83685C10.3106 5.83685 10.2598 5.75163 10.1736 5.71289" fill="#448127"/>
<path d="M10.1736 5.75936C10.2058 5.78339 10.2397 5.80497 10.2751 5.82392L10.2903 5.82908L10.3106 5.83425L10.308 5.83683C10.292 5.81086 10.2723 5.78738 10.2497 5.7671C10.2268 5.74637 10.2012 5.72899 10.1736 5.71545C10.2169 5.73202 10.2553 5.75958 10.2852 5.79551L10.3106 5.83425L10.3156 5.83941H10.3106C10.2965 5.83888 10.2827 5.83536 10.27 5.82908C10.2462 5.81755 10.224 5.80279 10.2041 5.78518C10.1924 5.77869 10.182 5.76992 10.1736 5.75936Z" fill="#34541F"/>
<path d="M10.128 5.59155C10.128 5.59155 10.3105 5.72326 10.3308 5.79557C10.3308 5.79557 10.1686 5.7181 10.1381 5.67936" fill="#448127"/>
<path d="M10.128 5.59155C10.1966 5.64197 10.2603 5.69905 10.3181 5.762L10.3359 5.79299V5.80074L10.3308 5.79815C10.2718 5.76748 10.2142 5.73387 10.1584 5.69744L10.1838 5.71293C10.2321 5.74336 10.283 5.76929 10.3359 5.79041L10.3308 5.79557L10.3131 5.76458C10.2761 5.71648 10.2335 5.67313 10.1863 5.63546L10.128 5.59155Z" fill="#34541F"/>
<path d="M9.11378 9.31293C8.95435 9.39789 8.77646 9.44053 8.59656 9.43689C8.8501 9.22513 9.09603 9.21996 9.11378 9.31293ZM10.8835 9.42915C11.0153 9.55052 11.4159 9.63575 11.4793 9.62025C11.2106 9.34392 10.919 9.31552 10.8835 9.42915Z" fill="#406325" stroke="#24420E" stroke-width="0.0081883"/>
<path d="M9.11378 9.31296C9.09603 9.21741 8.84756 9.22515 8.59656 9.43692C8.76183 9.36925 8.93622 9.32745 9.11378 9.31296ZM10.886 9.42659C10.9215 9.31296 11.2106 9.34137 11.4793 9.62028C11.2919 9.52644 11.092 9.46118 10.886 9.42659Z" fill="#67923D" stroke="#24420E" stroke-width="0.0081883"/>
</g>
<defs>
<radialGradient id="paint0_radial_14_505" cx="0" cy="0" r="1" gradientUnits="userSpaceOnUse" gradientTransform="translate(9.17469 7.7118) scale(0.418342 0.426113)">
<stop offset="0.2" stop-color="#F9F0AA"/>
<stop offset="1" stop-color="#B07E09"/>
</radialGradient>
<radialGradient id="paint1_radial_14_505" cx="0" cy="0" r="1" gradientUnits="userSpaceOnUse" gradientTransform="translate(9.28115 7.83324) scale(0.276359 0.281492)">
<stop offset="0.2" stop-color="#F9F0AA"/>
<stop offset="1" stop-color="#B07E09"/>
</radialGradient>
<radialGradient id="paint2_radial_14_505" cx="0" cy="0" r="1" gradientUnits="userSpaceOnUse" gradientTransform="translate(9.34454 7.71964) scale(0.24847 0.253085)">
<stop offset="0.2" stop-color="#F9F0AA"/>
<stop offset="1" stop-color="#B07E09"/>
</radialGradient>
<radialGradient id="paint3_radial_14_505" cx="0" cy="0" r="1" gradientUnits="userSpaceOnUse" gradientTransform="translate(9.45359 7.68088) scale(0.44116 0.449355)">
<stop offset="0.2" stop-color="#F9F0AA"/>
<stop offset="1" stop-color="#B07E09"/>
</radialGradient>
<linearGradient id="paint4_linear_14_505" x1="9.84657" y1="6.44384" x2="9.80712" y2="5.74148" gradientUnits="userSpaceOnUse">
<stop offset="0.2" stop-color="#B07E09" stop-opacity="0"/>
<stop offset="1" stop-color="#B07E09"/>
</linearGradient>
<linearGradient id="paint5_linear_14_505" x1="10.0798" y1="7.4123" x2="10.1429" y2="8.18428" gradientUnits="userSpaceOnUse">
<stop offset="0.2" stop-color="#B07E09" stop-opacity="0"/>
<stop offset="1" stop-color="#B07E09"/>
</linearGradient>
<radialGradient id="paint6_radial_14_505" cx="0" cy="0" r="1" gradientUnits="userSpaceOnUse" gradientTransform="translate(9.13916 6.26827) scale(0.329603 0.335725)">
<stop offset="0.2" stop-color="#F9F0AA"/>
<stop offset="1" stop-color="#B07E09"/>
</radialGradient>
<linearGradient id="paint7_linear_14_505" x1="9.27863" y1="6.19338" x2="9.38061" y2="5.96491" gradientUnits="userSpaceOnUse">
<stop offset="0.2" stop-color="#F9F0AA"/>
<stop offset="1" stop-color="#B07E09"/>
</linearGradient>
<linearGradient id="paint8_linear_14_505" x1="9.83135" y1="5.87568" x2="9.89973" y2="6.73287" gradientUnits="userSpaceOnUse">
<stop offset="0.2" stop-color="#F9F0AA"/>
<stop offset="1" stop-color="#B07E09"/>
</linearGradient>
<radialGradient id="paint9_radial_14_505" cx="0" cy="0" r="1" gradientUnits="userSpaceOnUse" gradientTransform="translate(9.94796 5.31013) scale(0.00760622 0.0077475)">
<stop offset="0.3" stop-color="#A50A0A"/>
<stop offset="1" stop-color="#4C0505"/>
</radialGradient>
<radialGradient id="paint10_radial_14_505" cx="0" cy="0" r="1" gradientUnits="userSpaceOnUse" gradientTransform="translate(9.94759 5.30842) scale(0.00743188 0.00792929)">
<stop stop-color="white"/>
<stop offset="1" stop-color="white" stop-opacity="0"/>
</radialGradient>
<clipPath id="clip0_14_505">
<rect width="20" height="15" fill="white"/>
</clipPath>
</defs>
</svg>
