<svg width="20" height="15" viewBox="0 0 20 15" fill="none" xmlns="http://www.w3.org/2000/svg">
<g clip-path="url(#clip0_14_386)">
<path fill-rule="evenodd" clip-rule="evenodd" d="M0 0H20V15H0V0Z" fill="#BE0027"/>
<path fill-rule="evenodd" clip-rule="evenodd" d="M0.799988 0.853149H19.2219V14.2407H0.799988V0.853149Z" fill="#3B5AA3"/>
<path fill-rule="evenodd" clip-rule="evenodd" d="M9.82501 12.9125C9.86592 12.932 9.91059 12.9424 9.95592 12.9429C10.0012 12.9435 10.0462 12.9342 10.0875 12.9156C14.3938 10.625 14.3938 4.34373 10.0906 2.08436C10.0478 2.06485 10.0011 2.05527 9.95399 2.05636C9.90691 2.05744 9.86068 2.06915 9.81876 2.09061C5.62189 4.38436 5.60939 10.5937 9.82189 12.9125H9.82501Z" fill="#CBE0E5"/>
<path fill-rule="evenodd" clip-rule="evenodd" d="M9.82502 13.0282C9.88752 13.0813 10.025 13.075 10.0875 13.0282C13.2594 10.6532 13.275 9.17505 13.1375 9.17505H6.85627C6.76252 9.17505 6.91252 10.6813 9.82502 13.0282Z" fill="#ADD2D9"/>
<path fill-rule="evenodd" clip-rule="evenodd" d="M7.3531 10.35C7.64038 10.26 7.95075 10.2789 8.22498 10.4031C8.46248 10.5281 8.59998 10.5281 8.85623 10.5281C9.12498 10.5344 9.33435 10.7313 9.62498 10.7407C10.1594 10.7532 10.3844 11.0188 9.96873 11.0219C9.77498 11.0219 9.3531 10.8875 9.14998 10.9156C8.72498 10.9594 8.45623 11.0532 8.05623 11.5L8.51873 11.8125C8.91873 11.6532 8.98435 11.4688 9.20623 11.4625C9.45623 11.4531 9.5406 11.3 9.83123 11.3C10.1782 11.329 10.5275 11.2951 10.8625 11.2C11.325 11.0938 11.1062 10.7688 10.825 10.6531C10.5969 10.5563 10.175 10.65 9.91248 10.5532C9.71248 10.475 9.87498 10.35 9.98435 10.325C10.0906 10.3031 10.2062 10.3407 10.3406 10.3625C10.5812 10.3813 10.8844 10.3594 11.0937 10.325C11.5312 10.2594 11.5125 10.1313 11.7187 10.1282C11.875 10.1188 11.9906 10.075 12.0937 10C12.2187 9.91565 12.3469 9.75003 12.4969 9.75628L12.8937 9.7719L12.3312 11.0344L10.7469 12.65L9.92498 12.9625L8.11873 11.7844L7.20935 10.3875L7.35623 10.35H7.3531Z" fill="#FDF9A1"/>
<path fill-rule="evenodd" clip-rule="evenodd" d="M9.43122 9.12505L13.0562 9.1063L13.1187 8.78442C13.1187 8.78442 12.9906 8.76567 12.8843 8.75942C12.7562 8.75005 12.5312 8.89692 12.3843 8.8938C12.275 8.8938 12.1562 8.7063 12.05 8.7063C11.8625 8.7063 11.85 8.87192 11.675 8.87817C11.5344 8.87192 11.475 8.76567 11.2906 8.77817C11.1031 8.78755 11.1156 8.8938 10.875 8.88755C10.5562 8.87817 10.4281 8.60317 10.1719 8.60005C9.74685 8.5938 9.73435 9.0063 9.4281 9.12192L9.43122 9.12505Z" fill="#179A3B"/>
<path fill-rule="evenodd" clip-rule="evenodd" d="M9.43125 9.20005L13.1625 9.1813V9.0813L9.34375 9.10005L9.42813 9.20005H9.43125Z" fill="#FDF9A1"/>
<path fill-rule="evenodd" clip-rule="evenodd" d="M10.9625 10.3218C11.0219 10.5406 11.0812 10.6156 11.3125 10.675C11.5406 10.7281 11.8906 10.5062 11.675 10.2906C11.4688 10.0906 11.25 10.0406 11.0656 9.85934C10.675 9.47497 10.0875 8.53122 10.0875 7.86559C10.0875 7.29372 10.0312 6.12184 10.0312 5.01247C10.0312 4.94059 9.8125 5.21247 9.8125 5.28747C9.825 6.26559 9.825 7.00622 9.8625 7.99372C9.925 8.71559 10.2687 9.20309 10.5719 9.64059C10.7062 9.85309 10.9031 10.0781 10.9625 10.3218Z" fill="#A79270"/>
<path d="M8.98323 7.91089C8.96993 7.87018 8.9524 7.8337 8.93063 7.80146C8.90927 7.76882 8.88368 7.74101 8.85386 7.71804C8.82444 7.69506 8.79098 7.67753 8.7535 7.66544C8.71602 7.65335 8.67491 7.6473 8.63017 7.6473C8.55682 7.6473 8.49012 7.66625 8.43007 7.70413C8.37002 7.74202 8.32226 7.79784 8.28679 7.87159C8.25133 7.94534 8.23359 8.03582 8.23359 8.14303C8.23359 8.25024 8.25153 8.34072 8.2874 8.41447C8.32327 8.48823 8.37183 8.54405 8.43309 8.58193C8.49435 8.61982 8.56327 8.63876 8.63985 8.63876C8.71078 8.63876 8.77325 8.62364 8.82726 8.59342C8.88167 8.56279 8.92398 8.51966 8.95421 8.46404C8.98484 8.40802 9.00016 8.34213 9.00016 8.26636L9.0461 8.27603H8.6737V8.14303H9.14525V8.27603C9.14525 8.378 9.12348 8.46666 9.07996 8.54203C9.03683 8.6174 8.97718 8.67584 8.90101 8.71735C8.82524 8.75846 8.73819 8.77901 8.63985 8.77901C8.53022 8.77901 8.4339 8.75322 8.35087 8.70163C8.26825 8.65004 8.20377 8.57669 8.15742 8.48158C8.11147 8.38646 8.0885 8.27361 8.0885 8.14303C8.0885 8.04509 8.1016 7.95703 8.1278 7.87884C8.1544 7.80025 8.19188 7.73335 8.24024 7.67814C8.28861 7.62292 8.34584 7.5806 8.41193 7.55118C8.47803 7.52176 8.55078 7.50705 8.63017 7.50705C8.69547 7.50705 8.75632 7.51692 8.81275 7.53667C8.86957 7.55602 8.92016 7.58362 8.96449 7.61949C9.00922 7.65496 9.04651 7.69748 9.07633 7.74705C9.10615 7.79622 9.12671 7.85083 9.13799 7.91089H8.98323Z" fill="#BD0728"/>
<path d="M8.98323 7.91089L8.93266 7.92741L8.94464 7.96409H8.98323V7.91089ZM8.93063 7.80146L8.88611 7.83059L8.88654 7.83123L8.93063 7.80146ZM8.85386 7.71804L8.82111 7.75997L8.82139 7.76018L8.85386 7.71804ZM8.7535 7.66544L8.76983 7.61481L8.76983 7.61481L8.7535 7.66544ZM8.28679 7.87159L8.33474 7.89464L8.33474 7.89464L8.28679 7.87159ZM8.2874 8.41447L8.23956 8.43774L8.23956 8.43774L8.2874 8.41447ZM8.82726 8.59342L8.85324 8.63984L8.85335 8.63978L8.82726 8.59342ZM8.95421 8.46404L8.90753 8.43852L8.90747 8.43864L8.95421 8.46404ZM9.00016 8.26636L9.01112 8.2143L8.94696 8.20079V8.26636H9.00016ZM9.0461 8.27603V8.32923L9.05706 8.22397L9.0461 8.27603ZM8.6737 8.27603H8.6205V8.32923H8.6737V8.27603ZM8.6737 8.14303V8.08983H8.6205V8.14303H8.6737ZM9.14525 8.14303H9.19845V8.08983H9.14525V8.14303ZM9.07996 8.54203L9.03389 8.51542L9.03378 8.51561L9.07996 8.54203ZM8.90101 8.71735L8.92638 8.76411L8.92647 8.76406L8.90101 8.71735ZM8.35087 8.70163L8.3227 8.74676L8.3228 8.74682L8.35087 8.70163ZM8.15742 8.48158L8.10952 8.50472L8.1096 8.50488L8.15742 8.48158ZM8.1278 7.87884L8.07741 7.86179L8.07735 7.86194L8.1278 7.87884ZM8.24024 7.67814L8.28026 7.71319L8.28026 7.71319L8.24024 7.67814ZM8.81275 7.53667L8.79517 7.58689L8.7956 7.58703L8.81275 7.53667ZM8.96449 7.61949L8.93102 7.66085L8.93144 7.66118L8.96449 7.61949ZM9.07633 7.74705L9.03074 7.77448L9.03084 7.77464L9.07633 7.74705ZM9.13799 7.91089V7.96409H9.20212L9.19028 7.90106L9.13799 7.91089ZM9.0338 7.89436C9.01912 7.84943 8.99952 7.80842 8.97473 7.7717L8.88654 7.83123C8.90528 7.85899 8.92074 7.89093 8.93266 7.92741L9.0338 7.89436ZM8.97515 7.77233C8.95065 7.73489 8.92103 7.70263 8.88632 7.67589L8.82139 7.76018C8.84633 7.77939 8.8679 7.80275 8.88612 7.83059L8.97515 7.77233ZM8.8866 7.6761C8.85199 7.64908 8.81292 7.62871 8.76983 7.61481L8.73717 7.71607C8.76904 7.72635 8.79688 7.74104 8.82112 7.75997L8.8866 7.6761ZM8.76983 7.61481C8.72641 7.6008 8.67971 7.5941 8.63017 7.5941V7.7005C8.67011 7.7005 8.70563 7.7059 8.73717 7.71607L8.76983 7.61481ZM8.63017 7.5941C8.54713 7.5941 8.47052 7.61571 8.40168 7.65914L8.45846 7.74912C8.50972 7.71678 8.56652 7.7005 8.63017 7.7005V7.5941ZM8.40168 7.65914C8.33196 7.70313 8.27797 7.76718 8.23885 7.84853L8.33474 7.89464C8.36655 7.82849 8.40808 7.7809 8.45846 7.74912L8.40168 7.65914ZM8.23885 7.84853C8.19902 7.93135 8.18039 8.03022 8.18039 8.14303H8.28679C8.28679 8.04143 8.30363 7.95934 8.33474 7.89464L8.23885 7.84853ZM8.18039 8.14303C8.18039 8.25592 8.19925 8.35486 8.23956 8.43774L8.33524 8.3912C8.30381 8.32657 8.28679 8.24455 8.28679 8.14303H8.18039ZM8.23956 8.43774C8.2792 8.51926 8.33414 8.58329 8.40511 8.62718L8.46107 8.53668C8.40952 8.5048 8.36733 8.45719 8.33524 8.3912L8.23956 8.43774ZM8.40511 8.62718C8.47532 8.67059 8.55404 8.69196 8.63985 8.69196V8.58556C8.57251 8.58556 8.51339 8.56904 8.46107 8.53668L8.40511 8.62718ZM8.63985 8.69196C8.71853 8.69196 8.7902 8.67512 8.85324 8.63984L8.80127 8.54699C8.7563 8.57216 8.70303 8.58556 8.63985 8.58556V8.69196ZM8.85335 8.63978C8.9166 8.60417 8.96602 8.55372 9.00095 8.48945L8.90747 8.43864C8.88195 8.4856 8.84673 8.5214 8.80116 8.54706L8.85335 8.63978ZM9.00089 8.48957C9.03653 8.42438 9.05336 8.34938 9.05336 8.26636H8.94696C8.94696 8.33487 8.93315 8.39167 8.90753 8.43852L9.00089 8.48957ZM8.9892 8.31842L9.03514 8.32809L9.05706 8.22397L9.01112 8.2143L8.9892 8.31842ZM9.0461 8.22283H8.6737V8.32923H9.0461V8.22283ZM8.7269 8.27603V8.14303H8.6205V8.27603H8.7269ZM8.6737 8.19623H9.14525V8.08983H8.6737V8.19623ZM9.09205 8.14303V8.27603H9.19845V8.14303H9.09205ZM9.09205 8.27603C9.09205 8.37027 9.072 8.44944 9.03389 8.51542L9.12603 8.56864C9.17497 8.48389 9.19845 8.38572 9.19845 8.27603H9.09205ZM9.03378 8.51561C8.99555 8.58243 8.94307 8.63384 8.87555 8.67064L8.92647 8.76406C9.0113 8.71783 9.07812 8.65236 9.12613 8.56845L9.03378 8.51561ZM8.87564 8.67059C8.8087 8.70691 8.73059 8.72581 8.63985 8.72581V8.83221C8.74579 8.83221 8.84179 8.81001 8.92638 8.76411L8.87564 8.67059ZM8.63985 8.72581C8.53891 8.72581 8.45255 8.70218 8.37895 8.65644L8.3228 8.74682C8.41524 8.80426 8.52154 8.83221 8.63985 8.83221V8.72581ZM8.37905 8.6565C8.30562 8.61066 8.24761 8.54522 8.20524 8.45827L8.1096 8.50488C8.15993 8.60816 8.23088 8.68943 8.3227 8.74676L8.37905 8.6565ZM8.20532 8.45844C8.16359 8.37204 8.1417 8.26745 8.1417 8.14303H8.0353C8.0353 8.27977 8.05936 8.40088 8.10952 8.50472L8.20532 8.45844ZM8.1417 8.14303C8.1417 8.04979 8.15418 7.96757 8.17824 7.89575L8.07735 7.86194C8.04903 7.94649 8.0353 8.0404 8.0353 8.14303H8.1417ZM8.17819 7.8959C8.20284 7.82307 8.23707 7.7625 8.28026 7.71319L8.20022 7.64308C8.14669 7.7042 8.10596 7.77744 8.07741 7.86179L8.17819 7.8959ZM8.28026 7.71319C8.32363 7.66368 8.37461 7.62603 8.43357 7.59978L8.3903 7.50258C8.31706 7.53518 8.25359 7.58216 8.20022 7.64308L8.28026 7.71319ZM8.43357 7.59978C8.49222 7.57368 8.5575 7.56025 8.63017 7.56025V7.45385C8.54406 7.45385 8.46385 7.46984 8.3903 7.50258L8.43357 7.59978ZM8.63017 7.56025C8.69003 7.56025 8.74489 7.56929 8.79517 7.58688L8.83032 7.48646C8.76775 7.46456 8.7009 7.45385 8.63017 7.45385V7.56025ZM8.7956 7.58703C8.84682 7.60447 8.89181 7.62912 8.93103 7.66085L8.99795 7.57814C8.9485 7.53812 8.89233 7.50757 8.82989 7.48631L8.7956 7.58703ZM8.93144 7.66118C8.97111 7.69263 9.00416 7.7303 9.03074 7.77448L9.12192 7.71963C9.08885 7.66466 9.04734 7.61729 8.99754 7.57781L8.93144 7.66118ZM9.03084 7.77464C9.05715 7.81801 9.07553 7.86654 9.08571 7.92071L9.19028 7.90106C9.17789 7.83512 9.15516 7.77443 9.12182 7.71946L9.03084 7.77464ZM9.13799 7.85769H8.98323V7.96409H9.13799V7.85769Z" fill="white"/>
<path d="M9.90537 7.52813H10.0553V8.34789C10.0553 8.43253 10.0353 8.50809 9.99545 8.57459C9.95595 8.64069 9.90013 8.69288 9.82799 8.73117C9.75584 8.76906 9.67121 8.788 9.57408 8.788C9.47695 8.788 9.39231 8.76906 9.32017 8.73117C9.24803 8.69288 9.192 8.64069 9.1521 8.57459C9.11261 8.50809 9.09286 8.43253 9.09286 8.34789V7.52813H9.24279V8.3358C9.24279 8.39625 9.25609 8.45006 9.28269 8.49721C9.30929 8.54396 9.34717 8.58084 9.39634 8.60784C9.44591 8.63444 9.50516 8.64774 9.57408 8.64774C9.643 8.64774 9.70224 8.63444 9.75181 8.60784C9.80139 8.58084 9.83927 8.54396 9.86547 8.49721C9.89207 8.45006 9.90537 8.39625 9.90537 8.3358V7.52813Z" fill="#BD0728"/>
<path d="M9.90537 7.52813V7.47493H9.85217V7.52813H9.90537ZM10.0553 7.52813H10.1085V7.47493H10.0553V7.52813ZM9.99545 8.57459L9.94983 8.54722L9.94978 8.54731L9.99545 8.57459ZM9.82799 8.73117L9.85272 8.77827L9.85293 8.77816L9.82799 8.73117ZM9.32017 8.73117L9.29523 8.77816L9.29543 8.77827L9.32017 8.73117ZM9.1521 8.57459L9.10636 8.60176L9.10656 8.60209L9.1521 8.57459ZM9.09286 7.52813V7.47493H9.03966V7.52813H9.09286ZM9.24279 7.52813H9.29599V7.47493H9.24279V7.52813ZM9.28269 8.49721L9.23635 8.52335L9.23645 8.52352L9.28269 8.49721ZM9.39634 8.60784L9.37073 8.65448L9.37119 8.65472L9.39634 8.60784ZM9.75181 8.60784L9.77697 8.65472L9.77726 8.65456L9.75181 8.60784ZM9.86547 8.49721L9.81913 8.47107L9.81906 8.47121L9.86547 8.49721ZM9.90537 7.58133H10.0553V7.47493H9.90537V7.58133ZM10.0021 7.52813V8.34789H10.1085V7.52813H10.0021ZM10.0021 8.34789C10.0021 8.42379 9.98432 8.48974 9.94983 8.54722L10.0411 8.60197C10.0864 8.52645 10.1085 8.44126 10.1085 8.34789H10.0021ZM9.94978 8.54731C9.91557 8.60455 9.86715 8.65016 9.80305 8.68418L9.85293 8.77816C9.9331 8.73561 9.99633 8.67683 10.0411 8.60188L9.94978 8.54731ZM9.80325 8.68407C9.74007 8.71725 9.66424 8.7348 9.57408 8.7348V8.8412C9.67818 8.8412 9.77161 8.82086 9.85272 8.77827L9.80325 8.68407ZM9.57408 8.7348C9.48392 8.7348 9.40808 8.71725 9.3449 8.68407L9.29543 8.77827C9.37654 8.82086 9.46998 8.8412 9.57408 8.8412V8.7348ZM9.34511 8.68418C9.28096 8.65013 9.23228 8.60447 9.19765 8.5471L9.10656 8.60209C9.15173 8.67691 9.21509 8.73563 9.29523 8.77816L9.34511 8.68418ZM9.19785 8.54743C9.16368 8.48991 9.14606 8.42389 9.14606 8.34789H9.03966C9.03966 8.44116 9.06153 8.52628 9.10636 8.60176L9.19785 8.54743ZM9.14606 8.34789V7.52813H9.03966V8.34789H9.14606ZM9.09286 7.58133H9.24279V7.47493H9.09286V7.58133ZM9.18959 7.52813V8.3358H9.29599V7.52813H9.18959ZM9.18959 8.3358C9.18959 8.40432 9.20474 8.46732 9.23635 8.52335L9.32902 8.47107C9.30743 8.4328 9.29599 8.38819 9.29599 8.3358H9.18959ZM9.23645 8.52352C9.26813 8.5792 9.31333 8.62295 9.37073 8.65448L9.42195 8.56121C9.38102 8.53873 9.35045 8.50873 9.32893 8.4709L9.23645 8.52352ZM9.37119 8.65472C9.43005 8.68631 9.49833 8.70094 9.57408 8.70094V8.59454C9.51198 8.59454 9.46178 8.58258 9.4215 8.56097L9.37119 8.65472ZM9.57408 8.70094C9.64982 8.70094 9.71811 8.68631 9.77697 8.65472L9.72666 8.56097C9.68638 8.58258 9.63617 8.59454 9.57408 8.59454V8.70094ZM9.77726 8.65456C9.83514 8.62304 9.88052 8.57919 9.91188 8.52322L9.81906 8.47121C9.79803 8.50874 9.76763 8.53865 9.72637 8.56113L9.77726 8.65456ZM9.9118 8.52335C9.94341 8.46732 9.95857 8.40432 9.95857 8.3358H9.85217C9.85217 8.38819 9.84073 8.4328 9.81913 8.47107L9.9118 8.52335ZM9.95857 8.3358V7.52813H9.85217V8.3358H9.95857Z" fill="white"/>
<path d="M10.3032 8.76624H10.146L10.6006 7.52813H10.7554L11.21 8.76624H11.0528L10.6828 7.724H10.6732L10.3032 8.76624ZM10.3612 8.2826H10.9948V8.4156H10.3612V8.2826Z" fill="#BD0728"/>
<path d="M10.3032 8.76624V8.81944H10.3408L10.3533 8.78403L10.3032 8.76624ZM10.146 8.76624L10.0961 8.7479L10.0698 8.81944H10.146V8.76624ZM10.6006 7.52813V7.47493H10.5635L10.5507 7.50979L10.6006 7.52813ZM10.7554 7.52813L10.8053 7.50979L10.7925 7.47493H10.7554V7.52813ZM11.21 8.76624V8.81944H11.2862L11.2599 8.7479L11.21 8.76624ZM11.0528 8.76624L11.0027 8.78403L11.0153 8.81944H11.0528V8.76624ZM10.6828 7.724L10.733 7.7062L10.7204 7.6708H10.6828V7.724ZM10.6732 7.724V7.6708H10.6356L10.623 7.7062L10.6732 7.724ZM10.3612 8.2826V8.2294H10.308V8.2826H10.3612ZM10.9948 8.2826H11.048V8.2294H10.9948V8.2826ZM10.9948 8.4156V8.4688H11.048V8.4156H10.9948ZM10.3612 8.4156H10.308V8.4688H10.3612V8.4156ZM10.3032 8.71304H10.146V8.81944H10.3032V8.71304ZM10.1959 8.78457L10.6506 7.54646L10.5507 7.50979L10.0961 8.7479L10.1959 8.78457ZM10.6006 7.58133H10.7554V7.47493H10.6006V7.58133ZM10.7054 7.54646L11.1601 8.78457L11.2599 8.7479L10.8053 7.50979L10.7054 7.54646ZM11.21 8.71304H11.0528V8.81944H11.21V8.71304ZM11.103 8.74844L10.733 7.7062L10.6327 7.7418L11.0027 8.78403L11.103 8.74844ZM10.6828 7.6708H10.6732V7.7772H10.6828V7.6708ZM10.623 7.7062L10.2531 8.74844L10.3533 8.78403L10.7233 7.7418L10.623 7.7062ZM10.3612 8.3358H10.9948V8.2294H10.3612V8.3358ZM10.9416 8.2826V8.4156H11.048V8.2826H10.9416ZM10.9948 8.3624H10.3612V8.4688H10.9948V8.3624ZM10.4144 8.4156V8.2826H10.308V8.4156H10.4144Z" fill="white"/>
<path d="M11.2292 7.52398H11.4081L11.8289 8.5517H11.8434L12.2641 7.52398H12.4431V8.76208H12.3028V7.82141H12.2907L11.9038 8.76208H11.7684L11.3815 7.82141H11.3694V8.76208H11.2292V7.52398Z" fill="#BD0728"/>
<path d="M11.2292 7.52398V7.47078H11.176V7.52398H11.2292ZM11.4081 7.52398L11.4573 7.50382L11.4438 7.47078H11.4081V7.52398ZM11.8289 8.5517L11.7796 8.57186L11.7932 8.6049H11.8289V8.5517ZM11.8434 8.5517V8.6049H11.8791L11.8926 8.57186L11.8434 8.5517ZM12.2641 7.52398V7.47078H12.2284L12.2149 7.50382L12.2641 7.52398ZM12.4431 7.52398H12.4963V7.47078H12.4431V7.52398ZM12.4431 8.76208V8.81528H12.4963V8.76208H12.4431ZM12.3028 8.76208H12.2496V8.81528H12.3028V8.76208ZM12.3028 7.82141H12.356V7.76821H12.3028V7.82141ZM12.2907 7.82141V7.76821H12.2551L12.2415 7.80118L12.2907 7.82141ZM11.9038 8.76208V8.81528H11.9395L11.953 8.78232L11.9038 8.76208ZM11.7684 8.76208L11.7192 8.78232L11.7328 8.81528H11.7684V8.76208ZM11.3815 7.82141L11.4307 7.80118L11.4171 7.76821H11.3815V7.82141ZM11.3694 7.82141V7.76821H11.3162V7.82141H11.3694ZM11.3694 8.76208V8.81528H11.4226V8.76208H11.3694ZM11.2292 8.76208H11.176V8.81528H11.2292V8.76208ZM11.2292 7.57718H11.4081V7.47078H11.2292V7.57718ZM11.3589 7.54413L11.7796 8.57186L11.8781 8.53155L11.4573 7.50382L11.3589 7.54413ZM11.8289 8.6049H11.8434V8.4985H11.8289V8.6049ZM11.8926 8.57186L12.3134 7.54413L12.2149 7.50382L11.7941 8.53155L11.8926 8.57186ZM12.2641 7.57718H12.4431V7.47078H12.2641V7.57718ZM12.3899 7.52398V8.76208H12.4963V7.52398H12.3899ZM12.4431 8.70888H12.3028V8.81528H12.4431V8.70888ZM12.356 8.76208V7.82141H12.2496V8.76208H12.356ZM12.3028 7.76821H12.2907V7.87461H12.3028V7.76821ZM12.2415 7.80118L11.8546 8.74185L11.953 8.78232L12.3399 7.84165L12.2415 7.80118ZM11.9038 8.70888H11.7684V8.81528H11.9038V8.70888ZM11.8176 8.74185L11.4307 7.80118L11.3323 7.84165L11.7192 8.78232L11.8176 8.74185ZM11.3815 7.76821H11.3694V7.87461H11.3815V7.76821ZM11.3162 7.82141V8.76208H11.4226V7.82141H11.3162ZM11.3694 8.70888H11.2292V8.81528H11.3694V8.70888ZM11.2824 8.76208V7.52398H11.176V8.76208H11.2824Z" fill="white"/>
<path fill-rule="evenodd" clip-rule="evenodd" d="M8.11249 5.02813C8.06562 5.12188 8.22499 5 8.26249 4.9875C8.47187 4.9125 8.55312 4.65 8.91249 4.80938C9.19374 4.93125 9.57187 4.85938 9.37499 4.98438C9.13124 5.13125 8.64062 5.29375 8.63124 6.02188C8.67187 6.09063 8.67499 6.08125 8.70937 6.00313C8.78437 5.83438 9.13749 5.375 9.31249 5.4125C9.38437 5.43125 9.59062 5.20313 9.59374 5.26875C9.61562 5.45 9.31249 5.81875 9.31874 6.30938C9.31874 6.425 9.45937 6.4625 9.52499 6.38125C9.59374 6.30938 9.63124 6.2375 9.74999 6.14375C9.95624 5.975 9.89999 5.25 9.92499 5.28438C10.0719 5.47188 10.0937 6.0125 10.3125 6.23125C10.4969 6.41563 10.6437 6.325 10.6031 6.075C10.525 5.5625 10.2844 5.70938 10.1687 5.18125C10.1437 5.07813 10.1375 4.9875 10.275 5.02813C10.4406 5.07813 10.5406 5.15313 10.6625 5.34063C10.7875 5.52188 11.0187 5.69375 11.1531 5.79688C11.3875 5.97813 11.4719 5.82188 11.3594 5.59063C11.2165 5.32799 10.9834 5.12596 10.7031 5.02188C10.5094 4.95313 10.4406 4.94688 10.2719 4.91563C10.225 4.90625 10.1781 4.80938 10.2594 4.75625C10.4401 4.62593 10.6507 4.54318 10.8719 4.51563C11.0812 4.50938 11.2469 4.67813 11.3937 4.72188C11.6875 4.79688 11.6875 4.6125 11.5562 4.47188C11.45 4.35625 11.225 4.15938 11.0156 4.1875C10.5937 4.24063 10.6219 4.22813 10.3594 4.4C10.2656 4.45625 10.1594 4.51875 10.2 4.45C10.2937 4.27813 10.2062 4.30938 10.3531 4.13438C10.4656 4.00938 10.55 3.91563 10.6656 3.88438C10.7719 3.85625 10.9156 3.74375 10.9562 3.68438C11.0625 3.54063 10.9719 3.45625 10.8094 3.50625C10.6656 3.54375 10.5906 3.6375 10.4969 3.6625C10.2656 3.7375 10.0812 4.25625 10.0531 4.33125C10.0187 4.41875 9.97812 4.375 9.98437 4.3C10.0156 3.93438 10.0469 3.31563 9.92187 3.0625C9.72187 2.6875 9.74062 2.8625 9.66562 3.04063C9.55312 3.32188 9.59374 3.5875 9.66562 3.8625C9.69687 4 9.80937 4.15625 9.83124 4.26563C9.84687 4.35 9.78124 4.24063 9.74374 4.1875C9.62187 4 9.53124 3.875 9.33124 3.77188C9.13149 3.68969 8.91199 3.66796 8.69999 3.70938C8.64374 3.72813 8.76249 3.80938 8.80937 3.84688C8.94374 3.95313 9.19687 3.9875 9.37187 4.09375C9.51562 4.18438 9.62812 4.24063 9.67812 4.36563C9.69687 4.45938 9.72812 4.59688 9.66562 4.59375C9.50624 4.58438 9.25937 4.44375 8.74687 4.5C8.48437 4.5375 8.25937 4.75938 8.11249 5.02813Z" fill="#239E46"/>
<path fill-rule="evenodd" clip-rule="evenodd" d="M9.22815 9.7063H9.37502V9.95317H9.22815V9.7063Z" fill="black"/>
<path fill-rule="evenodd" clip-rule="evenodd" d="M8.49063 8.05933C9.07813 8.87183 10.0219 9.34683 10.0406 9.71558H8.20312C8.625 9.20933 8.88438 8.86558 8.49063 8.05933Z" fill="#FDF9FF"/>
<path fill-rule="evenodd" clip-rule="evenodd" d="M7.95628 9.73435C8.75628 9.91248 9.7094 10.0125 10.3188 9.70935C10.325 9.88748 10.1219 10.1469 9.95315 10.1469H8.4219C8.60003 10.1187 8.70315 10.0656 8.99065 10.0531L8.17815 10.0594C8.0844 10.0625 7.92815 9.82185 7.95628 9.73435Z" fill="#A68861"/>
<path fill-rule="evenodd" clip-rule="evenodd" d="M9.76876 13.2813C9.85001 13.3282 9.97814 13.325 10.05 13.2875C14.6688 10.8282 14.6719 4.08754 10.0563 1.66254C10.0101 1.64114 9.95957 1.63058 9.90866 1.63167C9.85776 1.63275 9.80777 1.64545 9.76251 1.66879C5.26251 4.13129 5.25001 10.7938 9.76876 13.2844V13.2813ZM9.79064 12.7282C9.82945 12.7473 9.87203 12.7574 9.91528 12.758C9.95853 12.7585 10.0014 12.7494 10.0406 12.7313C13.9031 10.4563 13.95 4.44691 10.0438 2.29379C9.96876 2.23754 9.85939 2.25629 9.78439 2.29379C6.08439 4.48441 5.87814 10.2469 9.79064 12.7282Z" fill="#BE0027"/>
<path d="M8.40002 7.0437C8.47086 7.0437 8.53336 7.05828 8.58752 7.08745C8.66044 7.12495 8.70523 7.1937 8.7219 7.2937H8.62502C8.61252 7.23953 8.58544 7.19787 8.54377 7.1687C8.50627 7.1437 8.45732 7.1312 8.3969 7.1312C8.32815 7.1312 8.26877 7.15933 8.21877 7.21558C8.17086 7.26766 8.1469 7.34683 8.1469 7.45308C8.1469 7.54058 8.16669 7.61349 8.20627 7.67183C8.24794 7.72808 8.31357 7.7562 8.40315 7.7562C8.4719 7.7562 8.52815 7.73641 8.5719 7.69683C8.61982 7.65724 8.64377 7.59266 8.64377 7.50308H8.40627V7.4187H8.73752V7.82495H8.6719L8.6469 7.72495C8.61357 7.76453 8.58232 7.79266 8.55315 7.80933C8.50732 7.83433 8.45003 7.84683 8.38128 7.84683C8.29169 7.84683 8.21357 7.81766 8.1469 7.75933C8.07607 7.68433 8.04065 7.58328 8.04065 7.4562C8.04065 7.32912 8.07502 7.22808 8.14377 7.15308C8.21044 7.08016 8.29586 7.0437 8.40002 7.0437Z" fill="#BD0728"/>
<path d="M9.1375 7.06563V7.54063C9.1375 7.59479 9.14792 7.63958 9.16875 7.675C9.19792 7.73125 9.25 7.75938 9.325 7.75938C9.41042 7.75938 9.46979 7.73021 9.50313 7.67188C9.51979 7.63854 9.52812 7.59479 9.52812 7.54063V7.0625H9.63437V7.49375C9.63437 7.58542 9.61979 7.65833 9.59062 7.7125C9.54687 7.80208 9.46146 7.84688 9.33438 7.84688C9.20313 7.84688 9.11458 7.80104 9.06875 7.70937C9.04375 7.65729 9.03125 7.58542 9.03125 7.49375V7.0625L9.1375 7.06563Z" fill="#BD0728"/>
<path d="M10.575 7.51562L10.4594 7.18125L10.3344 7.51562H10.575ZM10.4063 7.0625H10.5219L10.8032 7.82812H10.6844L10.6094 7.6H10.3063L10.2219 7.82812H10.1188L10.4063 7.0625Z" fill="#BD0728"/>
<path d="M11.1562 7.0625H11.3094L11.525 7.70937L11.7437 7.0625H11.8906V7.825H11.7906V7.18125L11.5719 7.825H11.475L11.2563 7.18125V7.825H11.1562V7.0625Z" fill="#BD0728"/>
</g>
<defs>
<clipPath id="clip0_14_386">
<rect width="20" height="15" fill="white"/>
</clipPath>
</defs>
</svg>
