<svg width="20" height="15" viewBox="0 0 20 15" fill="none" xmlns="http://www.w3.org/2000/svg">
<g clip-path="url(#clip0_14_389)">
<path d="M0 0H20V15H0V0Z" fill="#18C3DF"/>
<path d="M0 5H20V10H0V5Z" fill="white"/>
<path d="M9.75 7.49996L10.1667 7.58329L10 6.66663L9.75 7.49996Z" fill="#18C3DF"/>
<path d="M10.25 7.49996L9.83333 7.58329L10 6.66663L10.25 7.49996Z" fill="#18C3DF"/>
<path d="M9.92222 7.27153L9.97851 7.68418L10.7901 7.23622L9.92222 7.27153Z" fill="#18C3DF"/>
<path d="M10.083 7.73674L9.86931 7.37746L10.7889 7.23827L10.083 7.73674Z" fill="#18C3DF"/>
<path d="M9.91714 7.73686L10.1308 7.37758L9.21124 7.23839L9.91714 7.73686Z" fill="#18C3DF"/>
<path d="M10.0778 7.27165L10.0215 7.6843L9.2099 7.23634L10.0778 7.27165Z" fill="#18C3DF"/>
<path d="M10.2018 7.35287L9.81625 7.53089L10.4902 8.17385L10.2018 7.35287Z" fill="#18C3DF"/>
<path d="M9.79778 7.64731L10.0853 7.33454L10.49 8.17381L9.79778 7.64731Z" fill="#18C3DF"/>
<path d="M10.2022 7.64743L9.91469 7.33466L9.50998 8.17393L10.2022 7.64743Z" fill="#18C3DF"/>
<path d="M9.79829 7.35299L10.1839 7.53102L9.50992 8.17397L9.79829 7.35299Z" fill="#18C3DF"/>
<path d="M13.9156 6.16561L14.3323 6.24894L14.1656 5.33228L13.9156 6.16561Z" fill="#18C3DF"/>
<path d="M14.4156 6.16561L13.999 6.24894L14.1656 5.33228L14.4156 6.16561Z" fill="#18C3DF"/>
<path d="M14.0879 5.93718L14.1442 6.34983L14.9557 5.90187L14.0879 5.93718Z" fill="#18C3DF"/>
<path d="M14.2486 6.40239L14.035 6.04311L14.9545 5.90392L14.2486 6.40239Z" fill="#18C3DF"/>
<path d="M14.0828 6.40251L14.2965 6.04323L13.3769 5.90404L14.0828 6.40251Z" fill="#18C3DF"/>
<path d="M14.2434 5.9373L14.1871 6.34995L13.3756 5.90199L14.2434 5.9373Z" fill="#18C3DF"/>
<path d="M14.3675 6.01852L13.9819 6.19654L14.6559 6.8395L14.3675 6.01852Z" fill="#18C3DF"/>
<path d="M13.9634 6.31295L14.251 6.00019L14.6557 6.83946L13.9634 6.31295Z" fill="#18C3DF"/>
<path d="M14.3679 6.31308L14.0803 6.00031L13.6756 6.83958L14.3679 6.31308Z" fill="#18C3DF"/>
<path d="M13.9639 6.01864L14.3495 6.19666L13.6756 6.83962L13.9639 6.01864Z" fill="#18C3DF"/>
<path d="M13.9156 8.66561L14.3323 8.74894L14.1656 7.83228L13.9156 8.66561Z" fill="#18C3DF"/>
<path d="M14.4156 8.66561L13.999 8.74894L14.1656 7.83228L14.4156 8.66561Z" fill="#18C3DF"/>
<path d="M14.0879 8.43718L14.1442 8.84983L14.9557 8.40187L14.0879 8.43718Z" fill="#18C3DF"/>
<path d="M14.2486 8.90239L14.035 8.54311L14.9545 8.40392L14.2486 8.90239Z" fill="#18C3DF"/>
<path d="M14.0828 8.90251L14.2965 8.54323L13.3769 8.40404L14.0828 8.90251Z" fill="#18C3DF"/>
<path d="M14.2434 8.4373L14.1871 8.84995L13.3756 8.40199L14.2434 8.4373Z" fill="#18C3DF"/>
<path d="M14.3675 8.51852L13.9819 8.69654L14.6559 9.3395L14.3675 8.51852Z" fill="#18C3DF"/>
<path d="M13.9634 8.81295L14.251 8.50019L14.6557 9.33946L13.9634 8.81295Z" fill="#18C3DF"/>
<path d="M14.3679 8.81308L14.0803 8.50031L13.6756 9.33958L14.3679 8.81308Z" fill="#18C3DF"/>
<path d="M13.9639 8.51864L14.3495 8.69666L13.6756 9.33962L13.9639 8.51864Z" fill="#18C3DF"/>
<path d="M5.58435 6.16561L6.00102 6.24894L5.83435 5.33228L5.58435 6.16561Z" fill="#18C3DF"/>
<path d="M6.08435 6.16561L5.66768 6.24894L5.83435 5.33228L6.08435 6.16561Z" fill="#18C3DF"/>
<path d="M5.75657 5.93718L5.81286 6.34983L6.62445 5.90187L5.75657 5.93718Z" fill="#18C3DF"/>
<path d="M5.91734 6.40239L5.70367 6.04311L6.62323 5.90392L5.91734 6.40239Z" fill="#18C3DF"/>
<path d="M5.75149 6.40251L5.96516 6.04323L5.04559 5.90404L5.75149 6.40251Z" fill="#18C3DF"/>
<path d="M5.91213 5.9373L5.85584 6.34995L5.04426 5.90199L5.91213 5.9373Z" fill="#18C3DF"/>
<path d="M6.03618 6.01852L5.6506 6.19654L6.32456 6.8395L6.03618 6.01852Z" fill="#18C3DF"/>
<path d="M5.63213 6.31295L5.91966 6.00019L6.32437 6.83946L5.63213 6.31295Z" fill="#18C3DF"/>
<path d="M6.03657 6.31308L5.74904 6.00031L5.34433 6.83958L6.03657 6.31308Z" fill="#18C3DF"/>
<path d="M5.63264 6.01864L6.01823 6.19666L5.34427 6.83962L5.63264 6.01864Z" fill="#18C3DF"/>
<path d="M5.58435 8.66561L6.00102 8.74894L5.83435 7.83228L5.58435 8.66561Z" fill="#18C3DF"/>
<path d="M6.08435 8.66561L5.66768 8.74894L5.83435 7.83228L6.08435 8.66561Z" fill="#18C3DF"/>
<path d="M5.75657 8.43718L5.81286 8.84983L6.62445 8.40187L5.75657 8.43718Z" fill="#18C3DF"/>
<path d="M5.91734 8.90239L5.70367 8.54311L6.62323 8.40392L5.91734 8.90239Z" fill="#18C3DF"/>
<path d="M5.75149 8.90251L5.96516 8.54323L5.04559 8.40404L5.75149 8.90251Z" fill="#18C3DF"/>
<path d="M5.91213 8.4373L5.85584 8.84995L5.04426 8.40199L5.91213 8.4373Z" fill="#18C3DF"/>
<path d="M6.03618 8.51852L5.6506 8.69654L6.32456 9.3395L6.03618 8.51852Z" fill="#18C3DF"/>
<path d="M5.63213 8.81295L5.91966 8.50019L6.32437 9.33946L5.63213 8.81295Z" fill="#18C3DF"/>
<path d="M6.03657 8.81308L5.74904 8.50031L5.34433 9.33958L6.03657 8.81308Z" fill="#18C3DF"/>
<path d="M5.63264 8.51864L6.01823 8.69666L5.34427 9.33962L5.63264 8.51864Z" fill="#18C3DF"/>
</g>
<defs>
<clipPath id="clip0_14_389">
<rect width="20" height="15" fill="white"/>
</clipPath>
</defs>
</svg>
