<svg width="20" height="15" viewBox="0 0 20 15" fill="none" xmlns="http://www.w3.org/2000/svg">
<mask id="mask0_1825_42250" style="mask-type:luminance" maskUnits="userSpaceOnUse" x="0" y="0" width="20" height="15">
<rect width="20" height="15" fill="white"/>
</mask>
<g mask="url(#mask0_1825_42250)">
<path fill-rule="evenodd" clip-rule="evenodd" d="M0 0V15H20V0H0Z" fill="#2E42A5"/>
<mask id="mask1_1825_42250" style="mask-type:luminance" maskUnits="userSpaceOnUse" x="0" y="0" width="20" height="15">
<path fill-rule="evenodd" clip-rule="evenodd" d="M0 0V15H20V0H0Z" fill="white"/>
</mask>
<g mask="url(#mask1_1825_42250)">
<path fill-rule="evenodd" clip-rule="evenodd" d="M0 7.5V15H20V7.5H0Z" fill="#E31D1C"/>
<rect x="6.25" y="5" width="7.5" height="5" fill="white"/>
<mask id="mask2_1825_42250" style="mask-type:luminance" maskUnits="userSpaceOnUse" x="6" y="5" width="8" height="5">
<rect x="6.25" y="5" width="7.5" height="5" fill="white"/>
</mask>
<g mask="url(#mask2_1825_42250)">
<path fill-rule="evenodd" clip-rule="evenodd" d="M6.25 9.11114C6.25 9.11114 8.05021 8.63781 10 8.6667C11.9498 8.69559 13.75 9.22226 13.75 9.22226V10H6.25V9.11114Z" fill="#279E19"/>
<path d="M10.0458 5.56326C10.0458 5.56326 9.46387 5.30115 9.05766 5.30115C8.65144 5.30115 8.42578 5.70122 8.42578 5.70122" stroke="#026A16" stroke-width="0.5"/>
<path d="M10.1753 5.82603C10.1753 5.82603 9.6398 5.63452 9.26601 5.63452C8.89222 5.63452 8.68457 5.92683 8.68457 5.92683" stroke="#026A16" stroke-width="0.5"/>
<path d="M10.175 6.0482C10.175 6.0482 9.77891 5.85669 9.50239 5.85669C9.22588 5.85669 9.07227 6.149 9.07227 6.149" stroke="#026A16" stroke-width="0.5"/>
<path d="M10.0123 6.27049C10.0123 6.27049 9.76762 6.07898 9.59679 6.07898C9.42596 6.07898 9.33105 6.37129 9.33105 6.37129" stroke="#026A16" stroke-width="0.5"/>
<path d="M9.99116 6.42206C9.99116 6.42206 9.89331 6.30115 9.825 6.30115C9.7567 6.30115 9.71875 6.4857 9.71875 6.4857" stroke="#026A16" stroke-width="0.5"/>
<path d="M9.95374 5.56326C9.95374 5.56326 10.5356 5.30115 10.9419 5.30115C11.3481 5.30115 11.5737 5.70122 11.5737 5.70122" stroke="#026A16" stroke-width="0.5"/>
<path d="M9.82426 5.82603C9.82426 5.82603 10.3597 5.63452 10.7335 5.63452C11.1073 5.63452 11.3149 5.92683 11.3149 5.92683" stroke="#026A16" stroke-width="0.5"/>
<path d="M9.82449 6.0482C9.82449 6.0482 10.2206 5.85669 10.4971 5.85669C10.7736 5.85669 10.9272 6.149 10.9272 6.149" stroke="#026A16" stroke-width="0.5"/>
<path d="M9.98717 6.27049C9.98717 6.27049 10.2319 6.07898 10.4027 6.07898C10.5736 6.07898 10.6685 6.37129 10.6685 6.37129" stroke="#026A16" stroke-width="0.5"/>
<path d="M10.0084 6.42206C10.0084 6.42206 10.1062 6.30115 10.1745 6.30115C10.2428 6.30115 10.2808 6.4857 10.2808 6.4857" stroke="#026A16" stroke-width="0.5"/>
<path fill-rule="evenodd" clip-rule="evenodd" d="M9.92932 6.4989C9.92932 6.4989 9.85791 7.33478 9.85791 7.67497C9.85791 8.01516 9.92932 8.74917 9.92932 8.74917H10.113C10.113 8.74917 10.113 7.95896 10.113 7.67497C10.113 7.39098 10.0052 6.4989 10.0052 6.4989H9.92932Z" fill="#FECA00"/>
<path fill-rule="evenodd" clip-rule="evenodd" d="M9.2075 7.4491C9.2075 7.4491 8.75488 7.69136 8.75488 8.40854L9.2075 9.27452H10.0243V7.84844L9.2075 7.4491Z" fill="#C51918"/>
<path fill-rule="evenodd" clip-rule="evenodd" d="M8.53674 6.76624C8.53674 6.76624 7.47998 7.0793 7.47998 8.23418L8.84911 8.35097C8.84911 8.35097 8.77432 7.68001 9.19565 7.36964L8.53674 6.76624Z" fill="#0A328C"/>
<path d="M8.10059 6.32556L9.91338 7.98685" stroke="#FFD018" stroke-width="0.5"/>
<path d="M7.4707 6.70178L9.99912 8.34364" stroke="#FFD018" stroke-width="0.5"/>
<path d="M7.03564 7.33716L9.88539 8.64045" stroke="#FFD018" stroke-width="0.5"/>
<path fill-rule="evenodd" clip-rule="evenodd" d="M7.4873 8.2251L9.37834 8.43653L9.27188 8.70044H8.97207L9.17626 8.84955L9.6367 8.95731V8.70044H10.0399V9.24617H9.17626L8.845 8.84955C8.845 8.84955 8.56678 9.12381 8.29525 9.12381C8.02372 9.12381 7.75603 9.03474 7.75603 8.73563C7.75603 8.43653 7.75603 8.52754 7.75603 8.52754L7.4873 8.43653V8.2251Z" fill="#FECA00"/>
<path fill-rule="evenodd" clip-rule="evenodd" d="M10.5337 7.4491C10.5337 7.4491 10.9863 7.69136 10.9863 8.40854L10.5337 9.27452H9.71689V7.84844L10.5337 7.4491Z" fill="#C51918"/>
<path fill-rule="evenodd" clip-rule="evenodd" d="M11.2045 6.76624C11.2045 6.76624 12.2612 7.0793 12.2612 8.23418L10.8921 8.35097C10.8921 8.35097 10.9669 7.68001 10.5456 7.36964L11.2045 6.76624Z" fill="#0A328C"/>
<path d="M11.6406 6.32556L9.82783 7.98685" stroke="#FFD018" stroke-width="0.5"/>
<path d="M12.2705 6.70178L9.74209 8.34364" stroke="#FFD018" stroke-width="0.5"/>
<path d="M12.7056 7.33716L9.85582 8.64045" stroke="#FFD018" stroke-width="0.5"/>
<path fill-rule="evenodd" clip-rule="evenodd" d="M12.2539 8.2251L10.3629 8.43653L10.4693 8.70044H10.7691L10.565 8.84955L10.1045 8.95731V8.70044H9.70126V9.24617H10.565L10.8962 8.84955C10.8962 8.84955 11.1744 9.12381 11.446 9.12381C11.7175 9.12381 11.9852 9.03474 11.9852 8.73563C11.9852 8.43653 11.9852 8.52754 11.9852 8.52754L12.2539 8.43653V8.2251Z" fill="#FECA00"/>
</g>
</g>
</g>
</svg>
