<svg width="20" height="15" viewBox="0 0 20 15" fill="none" xmlns="http://www.w3.org/2000/svg">
<g clip-path="url(#clip0_14_387)">
<path d="M0 0H20V15H0V0Z" fill="#D21034"/>
<path d="M0 0H20V7.5H0V0Z" fill="#00209F"/>
<path d="M7.6344 5.6156H12.3656V9.38123H7.6344V5.6156Z" fill="white"/>
<path d="M10.9531 8.33752L9.98435 8.36877L9.02498 8.37815C9.02498 8.37815 8.53123 8.5594 8.3281 8.60003C8.1281 8.64065 8.1531 8.70627 7.99998 8.74377C7.87498 8.7719 7.85935 8.77815 7.78748 8.7844C7.7406 8.7844 7.68748 8.8219 7.63123 8.8594V9.38128H12.3656V8.8844C12.3156 8.85627 12.2656 8.83752 12.2156 8.8219C12.1469 8.7969 12.1 8.7719 11.975 8.74377C11.8187 8.7094 11.8437 8.64065 11.6437 8.60003C11.4406 8.5594 10.9531 8.33752 10.9531 8.33752Z" fill="#016A16" stroke="#016A16" stroke-width="0.015"/>
<path d="M9.72498 7.17505H9.79498L9.92498 7.71005L9.89498 7.88005L9.72498 7.18005V7.17505Z" fill="#F1B517" stroke="black" stroke-width="0.016"/>
<path d="M9.6499 6.81506L9.6999 7.23006H9.7499L9.6499 6.82006V6.81506Z" fill="white" stroke="black" stroke-width="0.016"/>
<path d="M9.78495 7.73002L9.56995 7.15502L9.64995 7.15002L9.89995 7.85002L9.78495 7.73002Z" fill="#F1B517" stroke="black" stroke-width="0.016"/>
<path d="M9.46997 6.82507L9.55997 7.22507H9.62997L9.46997 6.82507Z" fill="white" stroke="black" stroke-width="0.016"/>
<path d="M9.59497 7.53L9.46997 7.255L9.51997 7.245L9.75497 7.695L9.59497 7.53Z" fill="#F1B517" stroke="black" stroke-width="0.016"/>
<path d="M9.29993 6.94006L9.44493 7.32006H9.51493L9.30493 6.94006H9.29993Z" fill="white" stroke="black" stroke-width="0.016"/>
<path d="M9.61496 7.57007L9.03996 6.94507C8.85996 7.08507 8.89496 7.34507 8.89496 7.34507L9.54496 7.85507L9.60996 7.57007H9.61496Z" fill="#0A328C" stroke="black" stroke-width="0.016"/>
<path d="M9.945 7.90998L9.52 7.47998C9.34 7.48998 9.48 7.75498 9.49 7.78998L9.94 8.17498V7.90998H9.945Z" fill="#D20014" stroke="black" stroke-width="0.016"/>
<path d="M9.90491 7.84003L9.02991 6.90003L8.99491 6.92503L9.92491 7.95503L9.90491 7.84003ZM8.97991 6.84003L8.95991 6.81503V6.77003L8.77991 6.65503L8.85991 6.84003L8.92491 6.85003L8.93991 6.87003L8.97991 6.84003Z" fill="#F1B517" stroke="black" stroke-width="0.016"/>
<path d="M8.88501 6.90504C8.92183 6.85935 8.96782 6.82188 9.02001 6.79504L9.07001 6.87004L8.96001 6.96004L8.88501 6.91004V6.90504Z" fill="#F1B517" stroke="black" stroke-width="0.016"/>
<path d="M8.78992 7.06499L8.81992 7.11499C8.83992 7.10999 9.01992 6.93999 9.01992 6.93999H9.15492L9.18992 6.89499C9.08992 6.79499 9.00492 6.90999 9.00492 6.90999L8.78992 7.05999V7.06499Z" fill="#0A328C" stroke="#0A328C" stroke-width="0.016"/>
<path d="M8.89995 7.15002C8.89995 7.10002 8.98995 6.99002 8.99995 6.98502C9.06495 7.00502 9.12495 7.04502 9.19495 6.89502C9.13495 6.96502 9.01995 6.89502 9.01995 6.89502L8.96995 6.93502V6.95502L8.81995 7.09502L8.89495 7.15002H8.89995Z" fill="#D20014" stroke="#D20014" stroke-width="0.016"/>
<path d="M9.365 7.73504L8.645 7.16504C8.52 7.29004 8.625 7.67504 8.625 7.67504L9.325 8.05504L9.36 7.73504H9.365Z" fill="#0A328C" stroke="black" stroke-width="0.016"/>
<path d="M9.95992 8.19997L9.36493 7.71997C9.16493 7.74997 9.32493 8.04497 9.33493 8.07997L9.95992 8.41997V8.19497V8.19997Z" fill="#D20014" stroke="black" stroke-width="0.016"/>
<path d="M9.93499 8.10007L8.65499 7.14007L8.62999 7.17007L9.96999 8.22007L9.93499 8.10007ZM8.59499 7.09007L8.57499 7.07007L8.56499 7.03007L8.36499 6.94507L8.47999 7.11007H8.54499L8.56499 7.13007L8.59499 7.09007Z" fill="#F1B517" stroke="black" stroke-width="0.016"/>
<path d="M8.51501 7.17004C8.54363 7.119 8.58284 7.07467 8.63001 7.04004L8.69001 7.10504L8.60001 7.21004L8.51501 7.17004Z" fill="#F1B517" stroke="black" stroke-width="0.016"/>
<path d="M8.44995 7.33V7.385C8.46995 7.375 8.63495 7.2 8.63495 7.2L8.75995 7.175L8.78995 7.135C8.69995 7.03 8.60495 7.17 8.60495 7.17L8.44495 7.33H8.44995Z" fill="#0A328C" stroke="#0A328C" stroke-width="0.016"/>
<path d="M8.54996 7.425C8.53996 7.375 8.60996 7.235 8.61996 7.225C8.69996 7.25 8.76996 7.285 8.79496 7.125C8.74496 7.205 8.61996 7.145 8.61996 7.145L8.57996 7.195V7.22L8.45496 7.385L8.54996 7.425Z" fill="#D20014" stroke="#D20014" stroke-width="0.016"/>
<path d="M9.30992 8.08506C9.00092 7.91124 8.69259 7.73624 8.38492 7.56006C8.31992 7.67506 8.37992 7.83506 8.40992 7.86006C8.40992 7.93506 8.37992 7.97506 8.44492 8.13506C8.46492 8.23506 8.50992 8.33006 8.57992 8.38506C8.65992 8.70506 8.98992 8.73006 9.11492 8.46506L9.31492 8.08506H9.30992Z" fill="#0A328C" stroke="black" stroke-width="0.016"/>
<path d="M9.915 8.42506L9.29 8.06006C9.09 8.08506 9.29 8.46006 9.305 8.49506L9.915 8.71006V8.42506Z" fill="#D20014" stroke="black" stroke-width="0.016"/>
<path d="M9.80996 8.29002L8.39496 7.54002L8.36996 7.57002L9.86996 8.40502L9.80996 8.29002ZM8.32496 7.50002L8.29996 7.48502L8.28496 7.44502L8.07996 7.39502L8.21496 7.54002L8.27496 7.53002L8.30496 7.54502L8.32496 7.50002Z" fill="#F1B517" stroke="black" stroke-width="0.016"/>
<path d="M8.26001 7.59006C8.28001 7.54006 8.30001 7.49506 8.35001 7.44006L8.42001 7.49506L8.35001 7.61506L8.26001 7.59006Z" fill="#F1B517" stroke="black" stroke-width="0.016"/>
<path d="M8.20496 7.76L8.23496 7.81999L8.38496 7.59L8.50996 7.545L8.53496 7.495C8.43496 7.405 8.35996 7.565 8.35996 7.565L8.20496 7.76Z" fill="#0A328C" stroke="#0A328C" stroke-width="0.016"/>
<path d="M8.33999 7.84C8.32999 7.79 8.36499 7.63 8.37499 7.625C8.44999 7.65 8.51499 7.655 8.53499 7.495C8.48499 7.57 8.36999 7.545 8.36999 7.545L8.33499 7.595L8.33999 7.615L8.23999 7.815L8.33999 7.84Z" fill="#D20014" stroke="#D20014" stroke-width="0.016"/>
<path d="M10.2699 7.17505H10.1999L10.0699 7.71005L10.0999 7.88005L10.2699 7.18005V7.17505Z" fill="#F1B517" stroke="black" stroke-width="0.016"/>
<path d="M10.345 6.81506L10.295 7.23006H10.245L10.345 6.82006V6.81506Z" fill="white" stroke="black" stroke-width="0.016"/>
<path d="M10.2099 7.73002L10.4249 7.15502L10.3449 7.15002L10.0949 7.85002L10.2099 7.73002Z" fill="#F1B517" stroke="black" stroke-width="0.016"/>
<path d="M10.5249 6.82507L10.4349 7.22507H10.3649L10.5249 6.82507Z" fill="white" stroke="black" stroke-width="0.016"/>
<path d="M10.3999 7.53L10.5249 7.255L10.4749 7.245L10.2399 7.695L10.3999 7.53Z" fill="#F1B517" stroke="black" stroke-width="0.016"/>
<path d="M10.6949 6.94006L10.5499 7.32006H10.4799L10.6899 6.94006H10.6949Z" fill="white" stroke="black" stroke-width="0.016"/>
<path d="M10.3799 7.57007L10.9549 6.94507C11.1349 7.08507 11.0999 7.34507 11.0999 7.34507L10.4499 7.85507L10.3849 7.57007H10.3799Z" fill="#0A328C" stroke="black" stroke-width="0.016"/>
<path d="M10.0499 7.90998L10.4749 7.47998C10.6549 7.48998 10.5149 7.75498 10.5049 7.78998L10.0549 8.17498V7.90998H10.0499Z" fill="#D20014" stroke="black" stroke-width="0.016"/>
<path d="M10.09 7.84003L10.965 6.90003L11 6.92503L10.07 7.95503L10.09 7.84003ZM11.015 6.84003L11.035 6.81503V6.77003L11.215 6.65503L11.135 6.84003L11.07 6.85003L11.055 6.87003L11.015 6.84003Z" fill="#F1B517" stroke="black" stroke-width="0.016"/>
<path d="M11.1099 6.90504C11.073 6.85935 11.0271 6.82188 10.9749 6.79504L10.9249 6.87004L11.0349 6.96004L11.1099 6.91004V6.90504Z" fill="#F1B517" stroke="black" stroke-width="0.016"/>
<path d="M11.205 7.06499L11.175 7.11499C11.155 7.10999 10.975 6.93999 10.975 6.93999H10.84L10.805 6.89499C10.905 6.79499 10.99 6.90999 10.99 6.90999L11.205 7.05999V7.06499Z" fill="#0A328C" stroke="#0A328C" stroke-width="0.016"/>
<path d="M11.0949 7.15002C11.0949 7.10002 11.0049 6.99002 10.9949 6.98502C10.9299 7.00502 10.8699 7.04502 10.7999 6.89502C10.8599 6.96502 10.9749 6.89502 10.9749 6.89502L11.0249 6.93502V6.95502L11.1749 7.09502L11.0999 7.15002H11.0949Z" fill="#D20014" stroke="#D20014" stroke-width="0.016"/>
<path d="M10.6299 7.73504L11.3499 7.16504C11.4749 7.29004 11.3699 7.67504 11.3699 7.67504L10.6699 8.05504L10.6349 7.73504H10.6299Z" fill="#0A328C" stroke="black" stroke-width="0.016"/>
<path d="M10.0349 8.19997L10.6299 7.71997C10.8299 7.74997 10.6699 8.04497 10.6599 8.07997L10.0349 8.41997V8.19497V8.19997Z" fill="#D20014" stroke="black" stroke-width="0.016"/>
<path d="M10.0599 8.10007L11.3399 7.14007L11.3649 7.17007L10.0249 8.22007L10.0599 8.10007ZM11.3999 7.09007L11.4199 7.07007L11.4299 7.03007L11.6299 6.94507L11.5149 7.11007H11.4499L11.4299 7.13007L11.3999 7.09007Z" fill="#F1B517" stroke="black" stroke-width="0.016"/>
<path d="M11.4799 7.17004C11.4512 7.119 11.412 7.07467 11.3649 7.04004L11.3049 7.10504L11.3949 7.21004L11.4799 7.17004Z" fill="#F1B517" stroke="black" stroke-width="0.016"/>
<path d="M11.5449 7.33V7.385C11.5249 7.375 11.3599 7.2 11.3599 7.2L11.2349 7.175L11.2049 7.135C11.2949 7.03 11.3899 7.17 11.3899 7.17L11.5499 7.33H11.5449Z" fill="#0A328C" stroke="#0A328C" stroke-width="0.016"/>
<path d="M11.4449 7.425C11.4549 7.375 11.3849 7.235 11.3749 7.225C11.2949 7.25 11.2249 7.285 11.1999 7.125C11.2499 7.205 11.3749 7.145 11.3749 7.145L11.4149 7.195V7.22L11.5399 7.385L11.4449 7.425Z" fill="#D20014" stroke="#D20014" stroke-width="0.016"/>
<path d="M10.685 8.08506C10.994 7.91124 11.3023 7.73624 11.61 7.56006C11.675 7.67506 11.615 7.83506 11.585 7.86006C11.585 7.93506 11.615 7.97506 11.55 8.13506C11.53 8.23506 11.485 8.33006 11.415 8.38506C11.335 8.70506 11.005 8.73006 10.88 8.46506L10.68 8.08506H10.685Z" fill="#0A328C" stroke="black" stroke-width="0.016"/>
<path d="M10.0799 8.42506L10.7049 8.06006C10.9049 8.08506 10.7049 8.46006 10.6899 8.49506L10.0799 8.71006V8.42506Z" fill="#D20014" stroke="black" stroke-width="0.016"/>
<path d="M10.1849 8.29002L11.5999 7.54002L11.6249 7.57002L10.1249 8.40502L10.1849 8.29002ZM11.6699 7.50002L11.6949 7.48502L11.7099 7.44502L11.9149 7.39502L11.7799 7.54002L11.7199 7.53002L11.6899 7.54502L11.6699 7.50002Z" fill="#F1B517" stroke="black" stroke-width="0.016"/>
<path d="M11.7349 7.59006C11.7149 7.54006 11.6949 7.49506 11.6449 7.44006L11.5749 7.49506L11.6449 7.61506L11.7349 7.59006Z" fill="#F1B517" stroke="black" stroke-width="0.016"/>
<path d="M11.7899 7.76L11.7599 7.81999L11.6099 7.59L11.4849 7.545L11.4599 7.495C11.5599 7.405 11.6349 7.565 11.6349 7.565L11.7899 7.76Z" fill="#0A328C" stroke="#0A328C" stroke-width="0.016"/>
<path d="M11.6549 7.84C11.6649 7.79 11.6299 7.63 11.6199 7.625C11.5449 7.65 11.4799 7.655 11.4599 7.495C11.5099 7.57 11.6249 7.545 11.6249 7.545L11.6599 7.595L11.6549 7.615L11.7549 7.815L11.6549 7.84Z" fill="#D20014" stroke="#D20014" stroke-width="0.016"/>
<path d="M9.93993 6.28008L9.91493 6.73008H10.0599L10.0399 6.28008L10.1899 6.26508L10.1749 6.08508L9.79993 6.10008V6.26008L9.93993 6.28008Z" fill="#016A16" stroke="#016A16" stroke-width="0.016"/>
<path d="M9.98998 6.09502C9.59998 5.70502 9.29498 5.89502 9.22498 5.95002C9.27498 5.96002 9.31498 5.93002 9.33998 5.92502L9.28998 5.98502C9.28998 5.98502 9.41498 5.93502 9.42998 5.93502C9.40998 5.95002 9.38998 5.98502 9.38998 5.98502C9.39998 5.98502 9.46998 5.93002 9.47998 5.93002C9.45998 5.95002 9.45498 6.00502 9.45498 6.00502L9.51498 5.98002C9.52998 5.99002 9.50998 6.01002 9.51998 6.01002C9.61998 6.00002 9.75498 6.09502 9.76998 6.12502" fill="#016A16"/>
<path d="M9.98998 6.09502C9.59998 5.70502 9.29498 5.89502 9.22498 5.95002C9.27498 5.96002 9.31498 5.93002 9.33998 5.92502L9.28998 5.98502C9.28998 5.98502 9.41498 5.93502 9.42998 5.93502C9.40998 5.95002 9.38998 5.98502 9.38998 5.98502C9.39998 5.98502 9.46998 5.93002 9.47998 5.93002C9.45998 5.95002 9.45498 6.00502 9.45498 6.00502L9.51498 5.98002C9.52998 5.99002 9.50998 6.01002 9.51998 6.01002C9.61998 6.00002 9.75498 6.09502 9.76998 6.12502" stroke="black" stroke-width="0.016"/>
<path d="M9.89497 6.16504C9.85497 6.07504 9.11497 5.91504 8.96497 6.18004C9.02497 6.19504 9.07997 6.13004 9.07997 6.13004V6.19004L9.17497 6.11004L9.13997 6.19004L9.21497 6.12504V6.19004L9.31497 6.09004L9.29997 6.14504L9.38497 6.11004L9.37497 6.16004" fill="#016A16"/>
<path d="M9.89497 6.16504C9.85497 6.07504 9.11497 5.91504 8.96497 6.18004C9.02497 6.19504 9.07997 6.13004 9.07997 6.13004V6.19004L9.17497 6.11004L9.13997 6.19004L9.21497 6.12504V6.19004L9.31497 6.09004L9.29997 6.14504L9.38497 6.11004L9.37497 6.16004" stroke="black" stroke-width="0.016"/>
<path d="M9.85995 6.18004C9.66995 6.05504 9.37995 6.14004 9.37995 6.14004C9.18995 6.24004 9.08995 6.22504 9.06995 6.42004C9.08495 6.41504 9.13495 6.35004 9.13495 6.35004L9.17495 6.42504L9.18495 6.32004L9.21495 6.40504L9.26495 6.26504L9.27495 6.36004L9.34495 6.26504L9.37495 6.29504L9.40495 6.22004L9.43495 6.27004C9.43495 6.27004 9.48495 6.24004 9.50995 6.25504L9.55995 6.19504L9.57495 6.24004L9.62495 6.19004L9.63995 6.22504L9.68495 6.18504V6.21504H9.83495" fill="#016A16"/>
<path d="M9.85995 6.18004C9.66995 6.05504 9.37995 6.14004 9.37995 6.14004C9.18995 6.24004 9.08995 6.22504 9.06995 6.42004C9.08495 6.41504 9.13495 6.35004 9.13495 6.35004L9.17495 6.42504L9.18495 6.32004L9.21495 6.40504L9.26495 6.26504L9.27495 6.36004L9.34495 6.26504L9.37495 6.29504L9.40495 6.22004L9.43495 6.27004C9.43495 6.27004 9.48495 6.24004 9.50995 6.25504L9.55995 6.19504L9.57495 6.24004L9.62495 6.19004L9.63995 6.22504L9.68495 6.18504V6.21504H9.83495" stroke="black" stroke-width="0.016"/>
<path d="M9.81996 6.20007C9.68496 6.20007 9.30496 6.34507 9.20996 6.49007C9.23107 6.47891 9.25277 6.4689 9.27496 6.46007L9.28996 6.52007L9.31496 6.46007L9.31996 6.51007C9.33496 6.47007 9.34996 6.47007 9.37996 6.50507L9.38996 6.45007L9.40496 6.50007L9.42996 6.44507C9.42996 6.44507 9.44496 6.50507 9.45496 6.50507C9.45496 6.50507 9.49496 6.39507 9.51496 6.39007L9.51996 6.46007L9.54496 6.39007L9.56996 6.44007V6.37007L9.59996 6.42007C9.59996 6.42007 9.60996 6.37007 9.62996 6.36007L9.66996 6.39507L9.83996 6.27007" fill="#016A16"/>
<path d="M9.81996 6.20007C9.68496 6.20007 9.30496 6.34507 9.20996 6.49007C9.23107 6.47891 9.25277 6.4689 9.27496 6.46007L9.28996 6.52007L9.31496 6.46007L9.31996 6.51007C9.33496 6.47007 9.34996 6.47007 9.37996 6.50507L9.38996 6.45007L9.40496 6.50007L9.42996 6.44507C9.42996 6.44507 9.44496 6.50507 9.45496 6.50507C9.45496 6.50507 9.49496 6.39507 9.51496 6.39007L9.51996 6.46007L9.54496 6.39007L9.56996 6.44007V6.37007L9.59996 6.42007C9.59996 6.42007 9.60996 6.37007 9.62996 6.36007L9.66996 6.39507L9.83996 6.27007" stroke="black" stroke-width="0.016"/>
<path d="M9.84502 6.23499C9.67002 6.29999 9.51003 6.54499 9.52503 6.64499C9.60003 6.54499 9.58502 6.55999 9.62002 6.67499C9.62002 6.67499 9.63002 6.57499 9.64502 6.56499L9.67002 6.63499L9.67503 6.53999H9.70003L9.69502 6.48499L9.73003 6.50999C9.72003 6.47499 9.71503 6.46499 9.75003 6.43499C9.75003 6.43499 9.70003 6.43999 9.74003 6.35999L9.77503 6.38999C9.77503 6.38999 9.76503 6.35499 9.77503 6.33999L9.90503 6.29999" fill="#016A16"/>
<path d="M9.84502 6.23499C9.67002 6.29999 9.51003 6.54499 9.52503 6.64499C9.60003 6.54499 9.58502 6.55999 9.62002 6.67499C9.62002 6.67499 9.63002 6.57499 9.64502 6.56499L9.67002 6.63499L9.67503 6.53999H9.70003L9.69502 6.48499L9.73003 6.50999C9.72003 6.47499 9.71503 6.46499 9.75003 6.43499C9.75003 6.43499 9.70003 6.43999 9.74003 6.35999L9.77503 6.38999C9.77503 6.38999 9.76503 6.35499 9.77503 6.33999L9.90503 6.29999" stroke="black" stroke-width="0.016"/>
<path d="M9.85996 6.25L9.79496 6.38L9.82996 6.39L9.74996 6.445L9.81496 6.44C9.81496 6.44 9.71496 6.475 9.70496 6.575L9.80496 6.525C9.80496 6.525 9.71996 6.615 9.70496 6.67L9.76996 6.62C9.76996 6.62 9.70996 6.68 9.71996 6.77L9.76496 6.72C9.75496 6.835 9.75496 6.845 9.80496 6.93C9.80496 6.93 9.79496 6.8 9.80496 6.78L9.91996 6.9L9.85996 6.735C9.85996 6.735 9.92996 6.835 9.96996 6.83L9.87996 6.695L9.96996 6.765L9.86996 6.615L9.95996 6.645C9.95996 6.645 9.89496 6.56 9.89996 6.505L9.96496 6.575C9.96496 6.575 9.93996 6.5 9.94496 6.475L9.97996 6.48L9.91496 6.41L9.95996 6.4L9.95496 6.35L9.98496 6.345V6.29M9.92996 6.29C9.81996 6.44 9.87496 6.665 9.80996 6.785Z" fill="#016A16"/>
<path d="M9.85996 6.25L9.79496 6.38L9.82996 6.39L9.74996 6.445L9.81496 6.44C9.81496 6.44 9.71496 6.475 9.70496 6.575L9.80496 6.525C9.80496 6.525 9.71996 6.615 9.70496 6.67L9.76996 6.62C9.76996 6.62 9.70996 6.68 9.71996 6.77L9.76496 6.72C9.75496 6.835 9.75496 6.845 9.80496 6.93C9.80496 6.93 9.79496 6.8 9.80496 6.78L9.91996 6.9L9.85996 6.735C9.85996 6.735 9.92996 6.835 9.96996 6.83L9.87996 6.695L9.96996 6.765L9.86996 6.615L9.95996 6.645C9.95996 6.645 9.89496 6.56 9.89996 6.505L9.96496 6.575C9.96496 6.575 9.93996 6.5 9.94496 6.475L9.97996 6.48L9.91496 6.41L9.95996 6.4L9.95496 6.35L9.98496 6.345V6.29M9.92996 6.29C9.81996 6.44 9.87496 6.665 9.80996 6.785" stroke="black" stroke-width="0.016"/>
<path d="M10.0049 6.09502C10.3949 5.70502 10.6999 5.89502 10.7699 5.95002C10.7199 5.96002 10.6799 5.93002 10.6549 5.92502L10.7049 5.98502C10.7049 5.98502 10.5799 5.93502 10.5649 5.93502C10.5849 5.95002 10.6049 5.98502 10.6049 5.98502C10.5949 5.98502 10.5249 5.93002 10.5149 5.93002C10.5349 5.95002 10.5399 6.00502 10.5399 6.00502L10.4799 5.98002C10.4649 5.99002 10.4849 6.01002 10.4749 6.01002C10.3749 6.00002 10.2399 6.09502 10.2249 6.12502" fill="#016A16"/>
<path d="M10.0049 6.09502C10.3949 5.70502 10.6999 5.89502 10.7699 5.95002C10.7199 5.96002 10.6799 5.93002 10.6549 5.92502L10.7049 5.98502C10.7049 5.98502 10.5799 5.93502 10.5649 5.93502C10.5849 5.95002 10.6049 5.98502 10.6049 5.98502C10.5949 5.98502 10.5249 5.93002 10.5149 5.93002C10.5349 5.95002 10.5399 6.00502 10.5399 6.00502L10.4799 5.98002C10.4649 5.99002 10.4849 6.01002 10.4749 6.01002C10.3749 6.00002 10.2399 6.09502 10.2249 6.12502" stroke="black" stroke-width="0.016"/>
<path d="M10.0999 6.16504C10.1399 6.07504 10.8799 5.91504 11.0299 6.18004C10.9699 6.19504 10.9149 6.13004 10.9149 6.13004V6.19004L10.8199 6.11004L10.8549 6.19004L10.7799 6.12504V6.19004L10.6799 6.09004L10.6949 6.14504L10.6099 6.11004L10.6199 6.16004" fill="#016A16"/>
<path d="M10.0999 6.16504C10.1399 6.07504 10.8799 5.91504 11.0299 6.18004C10.9699 6.19504 10.9149 6.13004 10.9149 6.13004V6.19004L10.8199 6.11004L10.8549 6.19004L10.7799 6.12504V6.19004L10.6799 6.09004L10.6949 6.14504L10.6099 6.11004L10.6199 6.16004" stroke="black" stroke-width="0.016"/>
<path d="M10.1349 6.18004C10.3249 6.05504 10.6149 6.14004 10.6149 6.14004C10.8049 6.24004 10.9049 6.22504 10.9249 6.42004C10.9099 6.41504 10.8599 6.35004 10.8599 6.35004L10.8199 6.42504L10.8099 6.32004L10.7799 6.40504L10.7299 6.26504L10.7199 6.36004L10.6499 6.26504L10.6199 6.29504L10.5899 6.22004L10.5599 6.27004C10.5599 6.27004 10.5099 6.24004 10.4849 6.25504L10.4349 6.19504L10.4199 6.24004L10.3699 6.19004L10.3549 6.22504L10.3099 6.18504V6.21504H10.1599" fill="#016A16"/>
<path d="M10.1349 6.18004C10.3249 6.05504 10.6149 6.14004 10.6149 6.14004C10.8049 6.24004 10.9049 6.22504 10.9249 6.42004C10.9099 6.41504 10.8599 6.35004 10.8599 6.35004L10.8199 6.42504L10.8099 6.32004L10.7799 6.40504L10.7299 6.26504L10.7199 6.36004L10.6499 6.26504L10.6199 6.29504L10.5899 6.22004L10.5599 6.27004C10.5599 6.27004 10.5099 6.24004 10.4849 6.25504L10.4349 6.19504L10.4199 6.24004L10.3699 6.19004L10.3549 6.22504L10.3099 6.18504V6.21504H10.1599" stroke="black" stroke-width="0.016"/>
<path d="M10.1749 6.20007C10.3099 6.20007 10.6899 6.34507 10.7849 6.49007C10.7638 6.47891 10.7421 6.4689 10.7199 6.46007L10.7049 6.52007L10.6799 6.46007L10.6749 6.51007C10.6599 6.47007 10.6449 6.47007 10.6149 6.50507L10.6049 6.45007L10.5899 6.50007L10.5649 6.44507C10.5649 6.44507 10.5499 6.50507 10.5399 6.50507C10.5399 6.50507 10.4999 6.39507 10.4799 6.39007L10.4749 6.46007L10.4499 6.39007L10.4249 6.44007V6.37007L10.3949 6.42007C10.3949 6.42007 10.3849 6.37007 10.3649 6.36007L10.3249 6.39507L10.1549 6.27007" fill="#016A16"/>
<path d="M10.1749 6.20007C10.3099 6.20007 10.6899 6.34507 10.7849 6.49007C10.7638 6.47891 10.7421 6.4689 10.7199 6.46007L10.7049 6.52007L10.6799 6.46007L10.6749 6.51007C10.6599 6.47007 10.6449 6.47007 10.6149 6.50507L10.6049 6.45007L10.5899 6.50007L10.5649 6.44507C10.5649 6.44507 10.5499 6.50507 10.5399 6.50507C10.5399 6.50507 10.4999 6.39507 10.4799 6.39007L10.4749 6.46007L10.4499 6.39007L10.4249 6.44007V6.37007L10.3949 6.42007C10.3949 6.42007 10.3849 6.37007 10.3649 6.36007L10.3249 6.39507L10.1549 6.27007" stroke="black" stroke-width="0.016"/>
<path d="M10.1498 6.23499C10.3248 6.29999 10.4848 6.54499 10.4698 6.64499C10.3948 6.54499 10.4098 6.55999 10.3748 6.67499C10.3748 6.67499 10.3648 6.57499 10.3498 6.56499L10.3248 6.63499L10.3198 6.53999H10.2948L10.2998 6.48499L10.2648 6.50999C10.2748 6.47499 10.2798 6.46499 10.2448 6.43499C10.2448 6.43499 10.2948 6.43999 10.2548 6.35999L10.2198 6.38999C10.2198 6.38999 10.2298 6.35499 10.2198 6.33999L10.0898 6.29999" fill="#016A16"/>
<path d="M10.1498 6.23499C10.3248 6.29999 10.4848 6.54499 10.4698 6.64499C10.3948 6.54499 10.4098 6.55999 10.3748 6.67499C10.3748 6.67499 10.3648 6.57499 10.3498 6.56499L10.3248 6.63499L10.3198 6.53999H10.2948L10.2998 6.48499L10.2648 6.50999C10.2748 6.47499 10.2798 6.46499 10.2448 6.43499C10.2448 6.43499 10.2948 6.43999 10.2548 6.35999L10.2198 6.38999C10.2198 6.38999 10.2298 6.35499 10.2198 6.33999L10.0898 6.29999" stroke="black" stroke-width="0.016"/>
<path d="M10.1349 6.25L10.1999 6.38L10.1649 6.39L10.2449 6.445L10.1799 6.44C10.1799 6.44 10.2799 6.475 10.2899 6.575L10.1899 6.525C10.1899 6.525 10.2749 6.615 10.2899 6.67L10.2249 6.62C10.2249 6.62 10.2849 6.68 10.2749 6.77L10.2299 6.72C10.2399 6.835 10.2399 6.845 10.1899 6.93C10.1899 6.93 10.1999 6.8 10.1899 6.78L10.0749 6.9L10.1349 6.735C10.1349 6.735 10.0649 6.835 10.0249 6.83L10.1149 6.695L10.0249 6.765L10.1249 6.615L10.0349 6.645C10.0349 6.645 10.0999 6.56 10.0949 6.505L10.0299 6.575C10.0299 6.575 10.0549 6.5 10.0499 6.475L10.0149 6.48L10.0799 6.41L10.0349 6.4L10.0399 6.35L10.0099 6.345V6.29M10.0649 6.29C10.1749 6.44 10.1199 6.665 10.1849 6.785Z" fill="#016A16"/>
<path d="M10.1349 6.25L10.1999 6.38L10.1649 6.39L10.2449 6.445L10.1799 6.44C10.1799 6.44 10.2799 6.475 10.2899 6.575L10.1899 6.525C10.1899 6.525 10.2749 6.615 10.2899 6.67L10.2249 6.62C10.2249 6.62 10.2849 6.68 10.2749 6.77L10.2299 6.72C10.2399 6.835 10.2399 6.845 10.1899 6.93C10.1899 6.93 10.1999 6.8 10.1899 6.78L10.0749 6.9L10.1349 6.735C10.1349 6.735 10.0649 6.835 10.0249 6.83L10.1149 6.695L10.0249 6.765L10.1249 6.615L10.0349 6.645C10.0349 6.645 10.0999 6.56 10.0949 6.505L10.0299 6.575C10.0299 6.575 10.0549 6.5 10.0499 6.475L10.0149 6.48L10.0799 6.41L10.0349 6.4L10.0399 6.35L10.0099 6.345V6.29M10.0649 6.29C10.1749 6.44 10.1199 6.665 10.1849 6.785" stroke="black" stroke-width="0.016"/>
<path d="M10.0499 8.32507C10.0499 8.32507 10.1049 7.82507 10.1049 7.61507C10.1049 7.44507 10.0649 7.07507 10.0649 7.07507H9.89993C9.89993 7.07507 9.87493 7.44507 9.87993 7.61507C9.87993 7.82507 9.93493 8.32507 9.93493 8.32507H10.0499Z" fill="#F1B517" stroke="black" stroke-width="0.016"/>
<path d="M9.88501 7.09997H10.085L10.06 6.96497H9.91501L9.88501 7.09497V7.09997Z" fill="#F1B517" stroke="black" stroke-width="0.016"/>
<path d="M9.90002 6.98998H10.075L10.04 6.85498H9.93002L9.89502 6.98998H9.90002Z" fill="#F1B517" stroke="black" stroke-width="0.016"/>
<path d="M9.90991 6.885H10.0599L10.0299 6.75H9.93491L9.90991 6.885Z" fill="#F1B517" stroke="black" stroke-width="0.016"/>
<path d="M10.035 6.73499H9.935L9.92 6.78499H10.045L10.035 6.73499ZM10.055 8.21999H9.925ZM10.065 8.11999H9.915ZM10.085 8.01999H9.895ZM10.095 7.91499H9.895ZM10.095 7.80499H9.89ZM10.1 7.70499H9.88ZM10.1 7.61999H9.87ZM10.1 7.50999H9.87ZM10.095 7.40499H9.87ZM10.085 7.29499H9.88ZM10.075 7.19499H9.89Z" fill="#F1B517"/>
<path d="M10.055 8.21999H9.925M10.065 8.11999H9.915M10.085 8.01999H9.895M10.095 7.91499H9.895M10.095 7.80499H9.89M10.1 7.70499H9.88M10.1 7.61999H9.87M10.1 7.50999H9.87M10.095 7.40499H9.87M10.085 7.29499H9.88M10.075 7.19499H9.89M10.035 6.73499H9.935L9.92 6.78499H10.045L10.035 6.73499Z" stroke="black" stroke-width="0.016"/>
<path d="M9.99994 5.95002C9.95994 5.93502 9.88494 5.88502 9.90494 5.85502L9.93994 5.79502C9.98994 5.68502 9.93994 5.72502 9.93994 5.69502C9.92994 5.65502 10.1299 5.68502 10.1299 5.76002C10.1299 5.78502 10.1149 5.77002 10.1199 5.89002L10.0799 5.96502C10.0512 5.96878 10.022 5.96534 9.99494 5.95502L9.99994 5.95002Z" fill="#0A328C" stroke="#0A328C" stroke-width="0.016"/>
<path d="M10.02 6.24998L9.96997 6.20498L9.98497 5.84998L10.035 5.86498L10.02 6.24498V6.24998Z" fill="#F1B517" stroke="black" stroke-width="0.016"/>
<path d="M10.085 5.96504C10.115 5.94504 10.135 5.89004 10.115 5.86004C10.065 5.79504 10.03 5.82004 9.94502 5.79004C9.93002 5.81004 9.89502 5.84004 9.90002 5.87004C10.015 5.92004 9.97002 5.88004 10.01 5.88504C10.03 5.88504 10.04 5.91004 10.085 5.96004V5.96504Z" fill="#D20014" stroke="#D20014" stroke-width="0.016"/>
<path d="M9.42503 8.01501C9.41503 7.99001 9.37503 7.97001 9.32503 7.97001C9.27503 7.97001 9.24003 7.99001 9.22503 8.01501C9.22333 8.00846 9.22333 8.00157 9.22503 7.99501C9.22503 7.96001 9.27003 7.93502 9.32503 7.93502C9.38503 7.93502 9.43003 7.96001 9.43003 7.99501C9.43172 8.00157 9.43172 8.00846 9.43003 8.01501H9.42503Z" fill="#016A16" stroke="white" stroke-width="0.016" stroke-linecap="round"/>
<path d="M9.41999 8.09002C9.41999 8.15002 9.37499 8.20502 9.32499 8.20502C9.27499 8.20502 9.23499 8.15502 9.23499 8.08502V8.02502H9.41999V8.08502V8.09002Z" fill="#016A16" stroke="white" stroke-width="0.016" stroke-linecap="round"/>
<path d="M9.32499 8.04996C9.37469 8.04996 9.41499 8.02981 9.41499 8.00496C9.41499 7.98011 9.37469 7.95996 9.32499 7.95996C9.27528 7.95996 9.23499 7.98011 9.23499 8.00496C9.23499 8.02981 9.27528 8.04996 9.32499 8.04996Z" fill="white"/>
<path d="M9.30504 8.05001L9.29004 7.89001H9.36004L9.35004 8.05501H9.30504V8.05001Z" fill="#016A16" stroke="#F1B517" stroke-width="0.016"/>
<path d="M9.42503 8.005C9.41503 8.03 9.37503 8.05 9.32503 8.05C9.27503 8.05 9.24003 8.03 9.22503 8.005C9.22333 8.01156 9.22333 8.01845 9.22503 8.025C9.22503 8.06 9.27003 8.085 9.32503 8.085C9.38503 8.085 9.43003 8.06 9.43003 8.025C9.43172 8.01845 9.43172 8.01156 9.43003 8.005H9.42503Z" fill="#016A16" stroke="white" stroke-width="0.016" stroke-linecap="round"/>
<path d="M9.8 8.63999L9.45 8.52999L9.295 8.26499L8.75 8.23999L8.77 8.43999L9.235 8.52499L9.275 8.60499L9.81 8.75499L9.8 8.63999Z" fill="#F1B517" stroke="black" stroke-width="0.016"/>
<path d="M9.43498 8.71501L8.87498 7.89001L8.84998 7.91501L9.39998 8.73501L9.43498 8.71501Z" fill="#503200" stroke="black" stroke-width="0.016"/>
<path d="M8.92995 7.925L8.86995 7.825C8.85495 7.805 8.83995 7.8 8.81495 7.815C8.78995 7.825 8.79495 7.85 8.80495 7.87L8.85495 7.965L8.92995 7.925Z" fill="white" stroke="black" stroke-width="0.016"/>
<path d="M9.49997 8.20497L8.37497 8.08997L8.34497 8.25497L9.46497 8.36997L9.49997 8.20497Z" fill="#F1B517" stroke="black" stroke-width="0.016"/>
<path d="M8.34995 8.05005L8.32495 8.27505H8.37495L8.40495 8.07005L8.35495 8.05005H8.34995ZM8.53995 8.08505L8.52995 8.29005H8.55995L8.58495 8.11505L8.54495 8.08505H8.53995ZM9.30495 8.17505L9.27495 8.36505H9.32995L9.35495 8.17505H9.30495ZM9.46995 8.18005L9.43495 8.40005L9.49495 8.41005L9.51495 8.29505C9.51495 8.32005 9.53995 8.33505 9.56495 8.33505C9.59495 8.33505 9.61495 8.31005 9.61495 8.28505C9.61495 8.25505 9.59495 8.23505 9.56495 8.23505C9.55453 8.23419 9.54409 8.23662 9.53512 8.24201C9.52616 8.24739 9.5191 8.25545 9.51495 8.26505L9.52995 8.18505L9.46995 8.18005ZM9.06995 8.21505L8.90995 8.39005L8.92995 8.41005L9.12995 8.27505L9.06495 8.21505H9.06995ZM8.69995 8.65005L8.85495 8.47505L8.83995 8.45505L8.63995 8.59005L8.69995 8.65005ZM9.10495 8.60505L8.91995 8.46005L8.89995 8.47505L9.04995 8.66505L9.10495 8.60505ZM8.63995 8.27005L8.83495 8.41005L8.85495 8.39505L8.70495 8.20505L8.63995 8.27005ZM8.84995 8.15505L8.86995 8.38505H8.89495L8.95495 8.16005L8.84995 8.15505ZM8.90995 8.70505L8.89495 8.48005H8.86495L8.82995 8.71005H8.90995V8.70505ZM9.16495 8.40505L8.92495 8.42505V8.45005L9.16495 8.48005V8.40005V8.40505ZM8.59495 8.48005L8.82995 8.44505V8.42505L8.58995 8.40005V8.48005H8.59495Z" fill="#F1B517" stroke="black" stroke-width="0.016"/>
<path d="M8.88495 8.49C8.92084 8.49 8.94995 8.46313 8.94995 8.43C8.94995 8.39686 8.92084 8.37 8.88495 8.37C8.84905 8.37 8.81995 8.39686 8.81995 8.43C8.81995 8.46313 8.84905 8.49 8.88495 8.49Z" fill="#F1B517" stroke="black" stroke-width="0.016"/>
<path fill-rule="evenodd" clip-rule="evenodd" d="M9.22005 8.43002C9.22005 8.60502 9.07005 8.75502 8.88505 8.75502C8.84171 8.75568 8.79867 8.7478 8.75838 8.73182C8.71809 8.71585 8.68134 8.69209 8.65023 8.66191C8.61912 8.63173 8.59426 8.59572 8.57707 8.55593C8.55988 8.51614 8.5507 8.47336 8.55005 8.43002C8.55005 8.25002 8.70005 8.10502 8.88505 8.10502C8.92839 8.10436 8.97143 8.11224 9.01172 8.12821C9.05201 8.14419 9.08876 8.16795 9.11987 8.19813C9.15098 8.22831 9.17584 8.26432 9.19303 8.30411C9.21021 8.3439 9.2194 8.38668 9.22005 8.43002ZM9.15505 8.43002C9.1544 8.46482 9.1469 8.49915 9.13298 8.53106C9.11905 8.56296 9.09898 8.59181 9.07391 8.61595C9.04884 8.6401 9.01925 8.65906 8.98685 8.67177C8.95444 8.68448 8.91985 8.69068 8.88505 8.69002C8.84983 8.69068 8.81483 8.68432 8.7821 8.6713C8.74937 8.65828 8.71956 8.63887 8.69443 8.61419C8.66929 8.58952 8.64932 8.56008 8.63569 8.5276C8.62206 8.49512 8.61504 8.46024 8.61505 8.42502C8.61766 8.35561 8.64741 8.29 8.69791 8.24231C8.7484 8.19462 8.8156 8.16866 8.88505 8.17002C8.91985 8.16936 8.95444 8.17556 8.98685 8.18826C9.01925 8.20097 9.04884 8.21994 9.07391 8.24409C9.09898 8.26823 9.11905 8.29708 9.13298 8.32898C9.1469 8.36088 9.1544 8.39522 9.15505 8.43002Z" fill="#F1B517" stroke="black" stroke-width="0.016" stroke-linecap="round"/>
<path d="M8.675 8.26498L8.625 8.22498ZM9.05 8.22498L9.1 8.17498ZM9.15 8.63498L9.095 8.58998ZM8.675 8.68498L8.725 8.63498ZM9.81 8.10498L9.865 8.40498L9.82 8.42498L9.77 8.10998H9.81V8.10498Z" fill="#F1B517"/>
<path d="M8.675 8.26498L8.625 8.22498M9.05 8.22498L9.1 8.17498M9.15 8.63498L9.095 8.58998M8.675 8.68498L8.725 8.63498M9.81 8.10498L9.865 8.40498L9.82 8.42498L9.77 8.10998H9.81V8.10498Z" stroke="black" stroke-width="0.016"/>
<path d="M9.78003 8.07C9.75503 8.055 9.72003 8.075 9.66003 8.005C9.56503 8.09 9.66003 8.105 9.67003 8.19C9.69503 8.2 9.71503 8.12 9.78503 8.115L9.90003 8.105L9.87503 8.07H9.77503H9.78003Z" fill="white" stroke="black" stroke-width="0.016"/>
<path d="M9.82001 8.12498L9.81001 8.03998C9.79501 8.00498 9.76001 8.03498 9.76001 8.04998L9.77001 8.13498L9.82001 8.12498Z" fill="white" stroke="black" stroke-width="0.016"/>
<path fill-rule="evenodd" clip-rule="evenodd" d="M9.54004 8.37V8.45C9.51004 8.46 9.51504 8.48 9.51504 8.51V8.745C9.51004 8.765 9.48004 8.765 9.46504 8.775C9.45004 8.79 9.45504 8.815 9.51504 8.825L9.56504 8.83C9.64004 8.815 9.65504 8.79 9.61504 8.78C9.60004 8.77 9.57004 8.76 9.56504 8.75V8.69H9.61504C9.62504 8.69 9.65004 8.66 9.65004 8.635V8.51C9.65004 8.44 9.60004 8.43 9.58004 8.435V8.37H9.54004ZM9.62004 8.505C9.62004 8.485 9.59004 8.465 9.58004 8.465C9.57004 8.465 9.54504 8.49 9.54504 8.51V8.56C9.54504 8.58 9.56004 8.64 9.59004 8.645C9.60004 8.645 9.62004 8.625 9.62004 8.605V8.505Z" fill="#F1B517" stroke="black" stroke-width="0.016"/>
<path d="M9.21502 8.61499C9.18002 8.60499 9.18002 8.67499 9.18002 8.67499H9.23002C9.25502 8.68499 9.27002 8.71499 9.26002 8.73499C9.24502 8.74499 9.15002 8.70999 9.14502 8.73499C9.16002 8.82999 9.29002 8.86499 9.33502 8.82499C9.38002 8.77999 9.39002 8.67499 9.24502 8.63999L9.21502 8.61499ZM9.24502 8.64499L9.23002 8.67499Z" fill="white"/>
<path d="M9.23002 8.67499H9.18002C9.18002 8.67499 9.18002 8.60499 9.21502 8.61499L9.24502 8.63999C9.39002 8.67499 9.38002 8.77999 9.33502 8.82499C9.29002 8.86499 9.16002 8.82999 9.14502 8.73499C9.15002 8.70999 9.24502 8.74499 9.26002 8.73499C9.27002 8.71499 9.25502 8.68499 9.23002 8.67499ZM9.23002 8.67499L9.24502 8.64499" stroke="black" stroke-width="0.016"/>
<path d="M8.24995 8.64995L8.19995 8.44995ZM8.30495 8.63995L8.22995 8.48495ZM8.42995 8.59995L8.26495 8.50995ZM8.50495 8.57995L8.19495 8.44495Z" fill="#F1B517"/>
<path d="M8.24995 8.64995L8.19995 8.44995M8.30495 8.63995L8.22995 8.48495M8.42995 8.59995L8.26495 8.50995M8.50495 8.57995L8.19495 8.44495" stroke="black" stroke-width="0.016"/>
<path d="M8.01 8.29997L7.88 8.30497C7.87 8.30997 7.905 8.34997 7.9 8.35997C7.87 8.41497 7.68 8.40997 7.665 8.39997C7.64 8.37497 7.84 8.35997 7.845 8.34997C7.845 8.32997 7.815 8.28997 7.82 8.26497C7.82 8.22997 7.905 8.21497 7.905 8.21497L8.01 8.29997Z" fill="#D20014" stroke="#D20014" stroke-width="0.016"/>
<path d="M8.16006 8.39999L7.91006 8.18999C7.91006 8.18999 7.89506 8.17999 7.88506 8.18999C7.87506 8.19999 7.88506 8.20999 7.88506 8.20999L8.15506 8.42999L8.16006 8.40499V8.39999Z" fill="#503200" stroke="black" stroke-width="0.016"/>
<path d="M8.40999 8.61L8.19999 8.43L8.18499 8.38L8.14499 8.41C8.12999 8.42 8.11499 8.45 8.11499 8.45H8.16999L8.34999 8.62L8.40499 8.61H8.40999Z" fill="#F1B517" stroke="black" stroke-width="0.016"/>
<path d="M9.12497 8.88995C9.1443 8.88995 9.15997 8.87428 9.15997 8.85495C9.15997 8.83562 9.1443 8.81995 9.12497 8.81995C9.10564 8.81995 9.08997 8.83562 9.08997 8.85495C9.08997 8.87428 9.10564 8.88995 9.12497 8.88995Z" fill="#F1B517" stroke="black" stroke-width="0.016"/>
<path d="M9.03 8.82C9.04933 8.82 9.065 8.80433 9.065 8.785C9.065 8.76567 9.04933 8.75 9.03 8.75C9.01067 8.75 8.995 8.76567 8.995 8.785C8.995 8.80433 9.01067 8.82 9.03 8.82Z" fill="#F1B517" stroke="black" stroke-width="0.016"/>
<path d="M8.905 8.86504C8.92433 8.86504 8.94 8.84937 8.94 8.83004C8.94 8.81071 8.92433 8.79504 8.905 8.79504C8.88567 8.79504 8.87 8.81071 8.87 8.83004C8.87 8.84937 8.88567 8.86504 8.905 8.86504Z" fill="#F1B517" stroke="black" stroke-width="0.016"/>
<path d="M8.71005 8.90496C8.72938 8.90496 8.74505 8.88929 8.74505 8.86996C8.74505 8.85063 8.72938 8.83496 8.71005 8.83496C8.69072 8.83496 8.67505 8.85063 8.67505 8.86996C8.67505 8.88929 8.69072 8.90496 8.71005 8.90496Z" fill="#F1B517" stroke="black" stroke-width="0.016"/>
<path d="M8.62497 8.91497C8.6443 8.91497 8.65997 8.8993 8.65997 8.87997C8.65997 8.86064 8.6443 8.84497 8.62497 8.84497C8.60564 8.84497 8.58997 8.86064 8.58997 8.87997C8.58997 8.8993 8.60564 8.91497 8.62497 8.91497Z" fill="#F1B517" stroke="black" stroke-width="0.016"/>
<path d="M8.54 8.91497C8.55933 8.91497 8.575 8.8993 8.575 8.87997C8.575 8.86064 8.55933 8.84497 8.54 8.84497C8.52067 8.84497 8.505 8.86064 8.505 8.87997C8.505 8.8993 8.52067 8.91497 8.54 8.91497Z" fill="#F1B517" stroke="black" stroke-width="0.016"/>
<path d="M8.46005 8.91497C8.47938 8.91497 8.49505 8.8993 8.49505 8.87997C8.49505 8.86064 8.47938 8.84497 8.46005 8.84497C8.44072 8.84497 8.42505 8.86064 8.42505 8.87997C8.42505 8.8993 8.44072 8.91497 8.46005 8.91497Z" fill="#F1B517" stroke="black" stroke-width="0.016"/>
<path d="M8.49997 8.85003C8.5193 8.85003 8.53497 8.83436 8.53497 8.81503C8.53497 8.7957 8.5193 8.78003 8.49997 8.78003C8.48064 8.78003 8.46497 8.7957 8.46497 8.81503C8.46497 8.83436 8.48064 8.85003 8.49997 8.85003Z" fill="#F1B517" stroke="black" stroke-width="0.016"/>
<path d="M8.58004 8.85503C8.59937 8.85503 8.61504 8.83936 8.61504 8.82003C8.61504 8.8007 8.59937 8.78503 8.58004 8.78503C8.56071 8.78503 8.54504 8.8007 8.54504 8.82003C8.54504 8.83936 8.56071 8.85503 8.58004 8.85503Z" fill="#F1B517" stroke="black" stroke-width="0.016"/>
<path d="M8.655 8.84502C8.67433 8.84502 8.69 8.82935 8.69 8.81002C8.69 8.79069 8.67433 8.77502 8.655 8.77502C8.63567 8.77502 8.62 8.79069 8.62 8.81002C8.62 8.82935 8.63567 8.84502 8.655 8.84502Z" fill="#F1B517" stroke="black" stroke-width="0.016"/>
<path d="M8.61996 8.78497C8.63929 8.78497 8.65496 8.7693 8.65496 8.74997C8.65496 8.73064 8.63929 8.71497 8.61996 8.71497C8.60063 8.71497 8.58496 8.73064 8.58496 8.74997C8.58496 8.7693 8.60063 8.78497 8.61996 8.78497Z" fill="#F1B517" stroke="black" stroke-width="0.016"/>
<path d="M8.54 8.77996C8.55933 8.77996 8.575 8.76429 8.575 8.74496C8.575 8.72563 8.55933 8.70996 8.54 8.70996C8.52067 8.70996 8.505 8.72563 8.505 8.74496C8.505 8.76429 8.52067 8.77996 8.54 8.77996Z" fill="#F1B517" stroke="black" stroke-width="0.016"/>
<path fill-rule="evenodd" clip-rule="evenodd" d="M9.32503 8.90002C9.32503 8.88502 9.28503 8.89002 9.28503 8.87002C9.28503 8.85002 9.34503 8.87002 9.35003 8.88502C9.38503 8.85502 9.40003 8.87502 9.42003 8.88502C9.45003 8.84502 9.48503 8.84502 9.52003 8.87502C9.54003 8.85502 9.59003 8.86002 9.60503 8.88502C9.64003 8.85502 9.67003 8.86002 9.69003 8.88502C9.70003 8.87002 9.71503 8.87002 9.72503 8.88502C9.74003 8.85002 9.78503 8.86002 9.80503 8.88502C9.82003 8.86502 9.84003 8.88002 9.86003 8.89002C9.87503 8.88002 9.90003 8.88002 9.90003 8.89002C9.90003 8.91002 9.87003 8.90502 9.87003 8.92002C9.87003 8.93002 9.89003 8.92002 9.89003 8.94002C9.89003 8.95502 9.86003 8.96002 9.85503 8.94002C9.84003 8.96002 9.80003 8.95002 9.79503 8.93002C9.79128 8.93428 9.78666 8.93769 9.78149 8.94002C9.77632 8.94236 9.77071 8.94356 9.76503 8.94356C9.75936 8.94356 9.75375 8.94236 9.74858 8.94002C9.7434 8.93769 9.73879 8.93428 9.73503 8.93002C9.72003 8.94002 9.70003 8.94002 9.69503 8.93002C9.67003 8.95502 9.62503 8.95002 9.61003 8.92002H9.59503C9.59034 8.92534 9.58457 8.9296 9.57811 8.93252C9.57164 8.93544 9.56463 8.93695 9.55753 8.93695C9.55044 8.93695 9.54343 8.93544 9.53696 8.93252C9.5305 8.9296 9.52473 8.92534 9.52003 8.92002C9.47503 8.95002 9.45003 8.94002 9.42503 8.92002C9.40003 8.95502 9.35503 8.95502 9.35003 8.92002C9.33003 8.93502 9.29003 8.94002 9.29003 8.92002C9.29003 8.91002 9.32503 8.91502 9.32503 8.90002ZM9.40503 8.90502C9.40503 8.91502 9.39503 8.92002 9.38503 8.92002C9.37503 8.92002 9.36503 8.91502 9.36503 8.90502C9.36503 8.89502 9.37003 8.89502 9.38503 8.89502C9.40003 8.89502 9.40503 8.90002 9.40503 8.90502ZM9.50003 8.89502C9.50003 8.90502 9.48503 8.91002 9.47003 8.91002C9.45503 8.91002 9.44503 8.90502 9.44503 8.89502C9.44503 8.89002 9.45503 8.88002 9.47003 8.88002C9.48503 8.88002 9.49503 8.89002 9.49503 8.89502H9.50003ZM9.67503 8.90502C9.67503 8.91502 9.66503 8.92002 9.65003 8.92002C9.63503 8.92002 9.63003 8.91502 9.63003 8.90502C9.63003 8.90002 9.64003 8.89002 9.65003 8.89002C9.66003 8.89002 9.67503 8.89502 9.67503 8.90502ZM9.58003 8.90502C9.58003 8.91502 9.57003 8.92002 9.55503 8.92002C9.54003 8.92002 9.53503 8.91502 9.53503 8.90002C9.53503 8.89002 9.54503 8.88002 9.55503 8.88002C9.56503 8.88002 9.58003 8.89002 9.58003 8.90002V8.90502ZM9.78003 8.90502C9.78003 8.91002 9.77503 8.92002 9.76503 8.92002C9.75003 8.92002 9.74003 8.91002 9.74003 8.90002C9.74003 8.89002 9.75003 8.88502 9.76503 8.88502C9.77503 8.88502 9.78503 8.89002 9.78503 8.90002L9.78003 8.90502ZM9.72003 8.90502C9.72003 8.91502 9.72003 8.92002 9.71003 8.92002C9.70003 8.92002 9.69503 8.91502 9.69503 8.90502C9.69503 8.89502 9.70003 8.89502 9.71003 8.89502L9.72003 8.90502ZM9.84003 8.91002C9.84003 8.92002 9.84003 8.93002 9.82503 8.93002C9.82003 8.93002 9.81003 8.92002 9.81003 8.91002C9.81003 8.90002 9.82003 8.89502 9.82503 8.89502C9.83503 8.89502 9.84003 8.90002 9.84003 8.91002Z" fill="#F1B517" stroke="black" stroke-width="0.016"/>
<path d="M10.195 8.63999L10.545 8.52999L10.7 8.26499L11.245 8.23999L11.225 8.43999L10.76 8.52499L10.72 8.60499L10.185 8.75499L10.195 8.63999Z" fill="#F1B517" stroke="black" stroke-width="0.016"/>
<path d="M10.56 8.71501L11.12 7.89001L11.145 7.91501L10.595 8.73501L10.56 8.71501Z" fill="#503200" stroke="black" stroke-width="0.016"/>
<path d="M11.065 7.925L11.125 7.825C11.14 7.805 11.155 7.8 11.18 7.815C11.205 7.825 11.2 7.85 11.19 7.87L11.14 7.965L11.065 7.925Z" fill="white" stroke="black" stroke-width="0.016"/>
<path d="M10.495 8.20497L11.62 8.08997L11.65 8.25497L10.53 8.36997L10.495 8.20497Z" fill="#F1B517" stroke="black" stroke-width="0.016"/>
<path d="M11.645 8.05005L11.67 8.27505H11.62L11.59 8.07005L11.64 8.05005H11.645ZM11.455 8.08505L11.465 8.29005H11.435L11.41 8.11505L11.45 8.08505H11.455ZM10.69 8.17505L10.72 8.36505H10.665L10.64 8.17505H10.69ZM10.525 8.18005L10.56 8.40005L10.5 8.41005L10.48 8.29505C10.48 8.32005 10.455 8.33505 10.43 8.33505C10.4 8.33505 10.38 8.31005 10.38 8.28505C10.38 8.25505 10.4 8.23505 10.43 8.23505C10.4405 8.23419 10.4509 8.23662 10.4599 8.24201C10.4688 8.24739 10.4759 8.25545 10.48 8.26505L10.465 8.18505L10.525 8.18005ZM10.925 8.21505L11.085 8.39005L11.065 8.41005L10.865 8.27505L10.93 8.21505H10.925ZM11.295 8.65005L11.14 8.47505L11.155 8.45505L11.355 8.59005L11.295 8.65005ZM10.89 8.60505L11.075 8.46005L11.095 8.47505L10.945 8.66505L10.89 8.60505ZM11.355 8.27005L11.16 8.41005L11.14 8.39505L11.29 8.20505L11.355 8.27005ZM11.145 8.15505L11.125 8.38505H11.1L11.04 8.16005L11.145 8.15505ZM11.085 8.70505L11.1 8.48005H11.13L11.165 8.71005H11.085V8.70505ZM10.83 8.40505L11.07 8.42505V8.45005L10.83 8.48005V8.40005V8.40505ZM11.4 8.48005L11.165 8.44505V8.42505L11.405 8.40005V8.48005H11.4Z" fill="#F1B517" stroke="black" stroke-width="0.016"/>
<path d="M11.11 8.49C11.0742 8.49 11.045 8.46313 11.045 8.43C11.045 8.39686 11.0742 8.37 11.11 8.37C11.1459 8.37 11.175 8.39686 11.175 8.43C11.175 8.46313 11.1459 8.49 11.11 8.49Z" fill="#F1B517" stroke="black" stroke-width="0.016"/>
<path fill-rule="evenodd" clip-rule="evenodd" d="M10.7749 8.43002C10.7749 8.60502 10.9249 8.75502 11.1099 8.75502C11.1533 8.75568 11.1963 8.7478 11.2366 8.73182C11.2769 8.71585 11.3137 8.69209 11.3448 8.66191C11.3759 8.63173 11.4007 8.59572 11.4179 8.55593C11.4351 8.51614 11.4443 8.47336 11.4449 8.43002C11.4449 8.25002 11.2949 8.10502 11.1099 8.10502C11.0666 8.10436 11.0236 8.11224 10.9833 8.12821C10.943 8.14419 10.9062 8.16795 10.8751 8.19813C10.844 8.22831 10.8192 8.26432 10.802 8.30411C10.7848 8.3439 10.7756 8.38668 10.7749 8.43002ZM10.8399 8.43002C10.8406 8.46482 10.8481 8.49915 10.862 8.53106C10.8759 8.56296 10.896 8.59181 10.9211 8.61595C10.9462 8.6401 10.9757 8.65906 11.0081 8.67177C11.0406 8.68448 11.0751 8.69068 11.1099 8.69002C11.1452 8.69068 11.1802 8.68432 11.2129 8.6713C11.2456 8.65828 11.2754 8.63887 11.3006 8.61419C11.3257 8.58952 11.3457 8.56008 11.3593 8.5276C11.3729 8.49512 11.38 8.46024 11.3799 8.42502C11.3773 8.35561 11.3476 8.29 11.2971 8.24231C11.2466 8.19462 11.1794 8.16866 11.1099 8.17002C11.0751 8.16936 11.0406 8.17556 11.0081 8.18826C10.9757 8.20097 10.9462 8.21994 10.9211 8.24409C10.896 8.26823 10.8759 8.29708 10.862 8.32898C10.8481 8.36088 10.8406 8.39522 10.8399 8.43002Z" fill="#F1B517" stroke="black" stroke-width="0.016" stroke-linecap="round"/>
<path d="M11.32 8.26498L11.37 8.22498ZM10.945 8.22498L10.895 8.17498ZM10.845 8.63498L10.9 8.58998ZM11.32 8.68498L11.27 8.63498ZM10.185 8.10498L10.13 8.40498L10.175 8.42498L10.225 8.10998H10.185V8.10498Z" fill="#F1B517"/>
<path d="M11.32 8.26498L11.37 8.22498M10.945 8.22498L10.895 8.17498M10.845 8.63498L10.9 8.58998M11.32 8.68498L11.27 8.63498M10.185 8.10498L10.13 8.40498L10.175 8.42498L10.225 8.10998H10.185V8.10498Z" stroke="black" stroke-width="0.016"/>
<path d="M10.215 8.07C10.24 8.055 10.275 8.075 10.335 8.005C10.43 8.09 10.335 8.105 10.325 8.19C10.3 8.2 10.28 8.12 10.21 8.115L10.095 8.105L10.12 8.07H10.22H10.215Z" fill="white" stroke="black" stroke-width="0.016"/>
<path d="M10.175 8.12498L10.185 8.03998C10.2 8.00498 10.235 8.03498 10.235 8.04998L10.225 8.13498L10.175 8.12498Z" fill="white" stroke="black" stroke-width="0.016"/>
<path fill-rule="evenodd" clip-rule="evenodd" d="M10.455 8.37V8.45C10.485 8.46 10.48 8.48 10.48 8.51V8.745C10.485 8.765 10.515 8.765 10.53 8.775C10.545 8.79 10.54 8.815 10.48 8.825L10.43 8.83C10.355 8.815 10.34 8.79 10.38 8.78C10.395 8.77 10.425 8.76 10.43 8.75V8.69H10.38C10.37 8.69 10.345 8.66 10.345 8.635V8.51C10.345 8.44 10.395 8.43 10.415 8.435V8.37H10.455ZM10.375 8.505C10.375 8.485 10.405 8.465 10.415 8.465C10.425 8.465 10.45 8.49 10.45 8.51V8.56C10.45 8.58 10.435 8.64 10.405 8.645C10.395 8.645 10.375 8.625 10.375 8.605V8.505Z" fill="#F1B517" stroke="black" stroke-width="0.016"/>
<path d="M10.78 8.61499C10.815 8.60499 10.815 8.67499 10.815 8.67499H10.765C10.74 8.68499 10.725 8.71499 10.735 8.73499C10.75 8.74499 10.845 8.70999 10.85 8.73499C10.835 8.82999 10.705 8.86499 10.66 8.82499C10.615 8.77999 10.605 8.67499 10.75 8.63999L10.78 8.61499ZM10.75 8.64499L10.765 8.67499Z" fill="white"/>
<path d="M10.765 8.67499H10.815C10.815 8.67499 10.815 8.60499 10.78 8.61499L10.75 8.63999C10.605 8.67499 10.615 8.77999 10.66 8.82499C10.705 8.86499 10.835 8.82999 10.85 8.73499C10.845 8.70999 10.75 8.74499 10.735 8.73499C10.725 8.71499 10.74 8.68499 10.765 8.67499ZM10.765 8.67499L10.75 8.64499" stroke="black" stroke-width="0.016"/>
<path d="M11.745 8.64995L11.795 8.44995ZM11.69 8.63995L11.765 8.48495ZM11.565 8.59995L11.73 8.50995ZM11.49 8.57995L11.8 8.44495Z" fill="#F1B517"/>
<path d="M11.745 8.64995L11.795 8.44995M11.69 8.63995L11.765 8.48495M11.565 8.59995L11.73 8.50995M11.49 8.57995L11.8 8.44495" stroke="black" stroke-width="0.016"/>
<path d="M11.985 8.29997L12.115 8.30497C12.125 8.30997 12.09 8.34997 12.095 8.35997C12.125 8.41497 12.315 8.40997 12.33 8.39997C12.355 8.37497 12.155 8.35997 12.15 8.34997C12.15 8.32997 12.18 8.28997 12.175 8.26497C12.175 8.22997 12.09 8.21497 12.09 8.21497L11.985 8.29997Z" fill="#D20014" stroke="#D20014" stroke-width="0.016"/>
<path d="M11.8349 8.39999L12.0849 8.18999C12.0849 8.18999 12.0999 8.17999 12.1099 8.18999C12.1199 8.19999 12.1099 8.20999 12.1099 8.20999L11.8399 8.42999L11.8349 8.40499V8.39999Z" fill="#503200" stroke="black" stroke-width="0.016"/>
<path d="M11.585 8.61L11.795 8.43L11.81 8.38L11.85 8.41C11.865 8.42 11.88 8.45 11.88 8.45H11.825L11.645 8.62L11.59 8.61H11.585Z" fill="#F1B517" stroke="black" stroke-width="0.016"/>
<path d="M10.87 8.88995C10.8507 8.88995 10.835 8.87428 10.835 8.85495C10.835 8.83562 10.8507 8.81995 10.87 8.81995C10.8894 8.81995 10.905 8.83562 10.905 8.85495C10.905 8.87428 10.8894 8.88995 10.87 8.88995Z" fill="#F1B517" stroke="black" stroke-width="0.016"/>
<path d="M10.965 8.82C10.9457 8.82 10.93 8.80433 10.93 8.785C10.93 8.76567 10.9457 8.75 10.965 8.75C10.9843 8.75 11 8.76567 11 8.785C11 8.80433 10.9843 8.82 10.965 8.82Z" fill="#F1B517" stroke="black" stroke-width="0.016"/>
<path d="M11.09 8.86504C11.0707 8.86504 11.055 8.84937 11.055 8.83004C11.055 8.81071 11.0707 8.79504 11.09 8.79504C11.1093 8.79504 11.125 8.81071 11.125 8.83004C11.125 8.84937 11.1093 8.86504 11.09 8.86504Z" fill="#F1B517" stroke="black" stroke-width="0.016"/>
<path d="M11.2849 8.90496C11.2656 8.90496 11.2499 8.88929 11.2499 8.86996C11.2499 8.85063 11.2656 8.83496 11.2849 8.83496C11.3043 8.83496 11.3199 8.85063 11.3199 8.86996C11.3199 8.88929 11.3043 8.90496 11.2849 8.90496Z" fill="#F1B517" stroke="black" stroke-width="0.016"/>
<path d="M11.37 8.91497C11.3507 8.91497 11.335 8.8993 11.335 8.87997C11.335 8.86064 11.3507 8.84497 11.37 8.84497C11.3894 8.84497 11.405 8.86064 11.405 8.87997C11.405 8.8993 11.3894 8.91497 11.37 8.91497Z" fill="#F1B517" stroke="black" stroke-width="0.016"/>
<path d="M11.455 8.91497C11.4357 8.91497 11.42 8.8993 11.42 8.87997C11.42 8.86064 11.4357 8.84497 11.455 8.84497C11.4743 8.84497 11.49 8.86064 11.49 8.87997C11.49 8.8993 11.4743 8.91497 11.455 8.91497Z" fill="#F1B517" stroke="black" stroke-width="0.016"/>
<path d="M11.5349 8.91497C11.5156 8.91497 11.4999 8.8993 11.4999 8.87997C11.4999 8.86064 11.5156 8.84497 11.5349 8.84497C11.5543 8.84497 11.5699 8.86064 11.5699 8.87997C11.5699 8.8993 11.5543 8.91497 11.5349 8.91497Z" fill="#F1B517" stroke="black" stroke-width="0.016"/>
<path d="M11.495 8.85003C11.4757 8.85003 11.46 8.83436 11.46 8.81503C11.46 8.7957 11.4757 8.78003 11.495 8.78003C11.5144 8.78003 11.53 8.7957 11.53 8.81503C11.53 8.83436 11.5144 8.85003 11.495 8.85003Z" fill="#F1B517" stroke="black" stroke-width="0.016"/>
<path d="M11.415 8.85503C11.3956 8.85503 11.38 8.83936 11.38 8.82003C11.38 8.8007 11.3956 8.78503 11.415 8.78503C11.4343 8.78503 11.45 8.8007 11.45 8.82003C11.45 8.83936 11.4343 8.85503 11.415 8.85503Z" fill="#F1B517" stroke="black" stroke-width="0.016"/>
<path d="M11.34 8.84502C11.3207 8.84502 11.305 8.82935 11.305 8.81002C11.305 8.79069 11.3207 8.77502 11.34 8.77502C11.3593 8.77502 11.375 8.79069 11.375 8.81002C11.375 8.82935 11.3593 8.84502 11.34 8.84502Z" fill="#F1B517" stroke="black" stroke-width="0.016"/>
<path d="M11.375 8.78497C11.3557 8.78497 11.34 8.7693 11.34 8.74997C11.34 8.73064 11.3557 8.71497 11.375 8.71497C11.3944 8.71497 11.41 8.73064 11.41 8.74997C11.41 8.7693 11.3944 8.78497 11.375 8.78497Z" fill="#F1B517" stroke="black" stroke-width="0.016"/>
<path d="M11.455 8.77996C11.4357 8.77996 11.42 8.76429 11.42 8.74496C11.42 8.72563 11.4357 8.70996 11.455 8.70996C11.4743 8.70996 11.49 8.72563 11.49 8.74496C11.49 8.76429 11.4743 8.77996 11.455 8.77996Z" fill="#F1B517" stroke="black" stroke-width="0.016"/>
<path fill-rule="evenodd" clip-rule="evenodd" d="M10.67 8.90002C10.67 8.88502 10.71 8.89002 10.71 8.87002C10.71 8.85002 10.65 8.87002 10.645 8.88502C10.61 8.85502 10.595 8.87502 10.575 8.88502C10.545 8.84502 10.51 8.84502 10.475 8.87502C10.455 8.85502 10.405 8.86002 10.39 8.88502C10.355 8.85502 10.325 8.86002 10.305 8.88502C10.295 8.87002 10.28 8.87002 10.27 8.88502C10.255 8.85002 10.21 8.86002 10.19 8.88502C10.175 8.86502 10.155 8.88002 10.135 8.89002C10.12 8.88002 10.095 8.88002 10.095 8.89002C10.095 8.91002 10.125 8.90502 10.125 8.92002C10.125 8.93002 10.105 8.92002 10.105 8.94002C10.105 8.95502 10.135 8.96002 10.14 8.94002C10.155 8.96002 10.195 8.95002 10.2 8.93002C10.2037 8.93428 10.2083 8.93769 10.2135 8.94002C10.2187 8.94236 10.2243 8.94356 10.23 8.94356C10.2356 8.94356 10.2412 8.94236 10.2464 8.94002C10.2516 8.93769 10.2562 8.93428 10.26 8.93002C10.275 8.94002 10.295 8.94002 10.3 8.93002C10.325 8.95502 10.37 8.95002 10.385 8.92002H10.4C10.4047 8.92534 10.4104 8.9296 10.4169 8.93252C10.4234 8.93544 10.4304 8.93695 10.4375 8.93695C10.4446 8.93695 10.4516 8.93544 10.458 8.93252C10.4645 8.9296 10.4703 8.92534 10.475 8.92002C10.52 8.95002 10.545 8.94002 10.57 8.92002C10.595 8.95502 10.64 8.95502 10.645 8.92002C10.665 8.93502 10.705 8.94002 10.705 8.92002C10.705 8.91002 10.67 8.91502 10.67 8.90002ZM10.59 8.90502C10.59 8.91502 10.6 8.92002 10.61 8.92002C10.62 8.92002 10.63 8.91502 10.63 8.90502C10.63 8.89502 10.625 8.89502 10.61 8.89502C10.595 8.89502 10.59 8.90002 10.59 8.90502ZM10.495 8.89502C10.495 8.90502 10.51 8.91002 10.525 8.91002C10.54 8.91002 10.55 8.90502 10.55 8.89502C10.55 8.89002 10.54 8.88002 10.525 8.88002C10.51 8.88002 10.5 8.89002 10.5 8.89502H10.495ZM10.32 8.90502C10.32 8.91502 10.33 8.92002 10.345 8.92002C10.36 8.92002 10.365 8.91502 10.365 8.90502C10.365 8.90002 10.355 8.89002 10.345 8.89002C10.335 8.89002 10.32 8.89502 10.32 8.90502ZM10.415 8.90502C10.415 8.91502 10.425 8.92002 10.44 8.92002C10.455 8.92002 10.46 8.91502 10.46 8.90002C10.46 8.89002 10.45 8.88002 10.44 8.88002C10.43 8.88002 10.415 8.89002 10.415 8.90002V8.90502ZM10.215 8.90502C10.215 8.91002 10.22 8.92002 10.23 8.92002C10.245 8.92002 10.255 8.91002 10.255 8.90002C10.255 8.89002 10.245 8.88502 10.23 8.88502C10.22 8.88502 10.21 8.89002 10.21 8.90002L10.215 8.90502ZM10.275 8.90502C10.275 8.91502 10.275 8.92002 10.285 8.92002C10.295 8.92002 10.3 8.91502 10.3 8.90502C10.3 8.89502 10.295 8.89502 10.285 8.89502L10.275 8.90502ZM10.155 8.91002C10.155 8.92002 10.155 8.93002 10.17 8.93002C10.175 8.93002 10.185 8.92002 10.185 8.91002C10.185 8.90002 10.175 8.89502 10.17 8.89502C10.16 8.89502 10.155 8.90002 10.155 8.91002Z" fill="#F1B517" stroke="black" stroke-width="0.016"/>
<path d="M9.99001 8.28503C9.86501 8.28503 9.76501 8.33503 9.76501 8.39003C9.76501 8.40003 9.76501 8.41003 9.77501 8.42003C9.80001 8.45003 9.89001 8.47003 9.99501 8.47003C10.095 8.47003 10.175 8.45503 10.205 8.42503C10.215 8.41503 10.22 8.40503 10.22 8.39003C10.22 8.33503 10.12 8.29003 9.99001 8.29003V8.28503Z" fill="#0A328C" stroke="#0A328C" stroke-width="0.016"/>
<path d="M10.22 8.40002V8.75002C10.22 8.79502 10.12 8.82502 9.99501 8.82502C9.87001 8.82502 9.76501 8.79502 9.76501 8.75002V8.40002C9.76501 8.44002 9.86501 8.47502 9.99001 8.47502C10.12 8.47502 10.22 8.44002 10.22 8.40002Z" fill="#F1B517" stroke="black" stroke-width="0.016"/>
<path d="M9.76501 8.40002V8.45002L9.87501 8.80002L9.96501 8.53002L10.065 8.80502L10.13 8.54502L10.22 8.72002V8.62502L10.14 8.45502C10.1301 8.45874 10.1201 8.46207 10.11 8.46502L10.06 8.65502L9.98501 8.47502C9.97335 8.47531 9.96168 8.47531 9.95001 8.47502L9.87501 8.65502L9.79501 8.43502C9.77501 8.42502 9.76501 8.41002 9.76501 8.40002Z" fill="#D20014" stroke="#D20014" stroke-width="0.016"/>
<path d="M10.22 8.68494V8.74994C10.22 8.79494 10.12 8.82494 9.99501 8.82494C9.87001 8.82494 9.76501 8.79494 9.76501 8.74994V8.68494C9.76501 8.72994 9.86501 8.75994 9.99001 8.75994C10.12 8.75994 10.22 8.72994 10.22 8.68494Z" fill="#0A328C" stroke="#0A328C" stroke-width="0.016"/>
<path d="M10.085 8.74994L10.03 8.75994V8.82494L10.09 8.81994V8.75494L10.085 8.74994ZM9.84501 8.74494V8.80994L9.90001 8.81994V8.75494C9.88149 8.75276 9.86312 8.74942 9.84501 8.74494ZM9.76501 8.68494V8.74994C9.76501 8.76494 9.77501 8.77494 9.79001 8.78494V8.71994C9.77501 8.70994 9.76501 8.69994 9.76501 8.68494ZM10.22 8.69494C10.22 8.70494 10.2 8.71994 10.18 8.72994V8.79494C10.205 8.78494 10.22 8.76994 10.22 8.74994V8.69994V8.69494Z" fill="#F1B517" stroke="black" stroke-width="0.016"/>
<path d="M10.22 8.40002V8.75002C10.22 8.79502 10.12 8.82502 9.99501 8.82502C9.87001 8.82502 9.76501 8.79502 9.76501 8.75002V8.40002" stroke="black" stroke-width="0.016"/>
<path d="M10.1701 8.37496C10.1701 8.39996 10.0901 8.42496 9.99506 8.42496C9.89506 8.42496 9.81506 8.39996 9.81506 8.37496C9.81506 8.34996 9.89506 8.32996 9.99006 8.32996C10.0901 8.32996 10.1701 8.34996 10.1701 8.37996V8.37496Z" fill="white" stroke="white" stroke-width="0.016"/>
<path d="M9.93501 8.41L9.94501 8.47H9.99501L10 8.41H9.93501ZM10.14 8.395L10.09 8.405L10.095 8.465L10.145 8.455V8.4L10.14 8.395ZM9.87001 8.295L9.83501 8.31L9.84001 8.36L9.87001 8.35V8.3V8.295ZM9.99001 8.28H9.97501L9.98501 8.34H10.015L10.025 8.28C10.0133 8.27958 10.0017 8.27958 9.99001 8.28ZM10.125 8.3L10.12 8.35L10.155 8.365V8.315C10.1453 8.30937 10.1353 8.30436 10.125 8.3ZM9.80001 8.44L9.81001 8.375L9.76001 8.35V8.425L9.80001 8.44ZM10.22 8.425V8.36L10.18 8.375L10.22 8.425ZM10.685 8C10.725 8 10.785 8.05 10.79 8.125C10.79 8.175 10.705 8.175 10.705 8.175C10.705 8.2 10.655 8.22 10.615 8.225C10.575 8.225 10.625 8.15 10.625 8.15C10.6 8.085 10.635 8.015 10.635 8.015L10.685 8Z" fill="#F1B517" stroke="black" stroke-width="0.016"/>
<path d="M10.625 8.15002H10.665C10.665 8.15002 10.665 8.16502 10.675 8.16502C10.685 8.16502 10.69 8.14502 10.69 8.14502H10.75" fill="#F1B517"/>
<path d="M10.625 8.15002H10.665C10.665 8.15002 10.665 8.16502 10.675 8.16502C10.685 8.16502 10.69 8.14502 10.69 8.14502H10.75" stroke="black" stroke-width="0.016"/>
<path d="M10.705 8.04497C10.74 8.01997 10.71 7.96997 10.685 7.96997H10.635C10.605 7.96997 10.565 7.99997 10.57 8.01997C10.57 8.04497 10.59 8.05497 10.61 8.04997C10.62 8.04997 10.64 8.01997 10.65 8.01997C10.665 8.01997 10.7 8.04997 10.705 8.04497Z" fill="#D20014" stroke="#F1B517" stroke-width="0.016"/>
<path fill-rule="evenodd" clip-rule="evenodd" d="M8.20998 8.73999C8.17998 8.74499 8.17498 8.77999 8.18498 8.81499C8.05498 8.84999 7.93498 8.89999 7.81498 8.93499C7.80998 8.90999 7.87498 8.84499 7.87498 8.84499C7.88998 8.84999 7.90498 8.88999 7.90498 8.88999C7.90498 8.80999 7.98498 8.75999 7.98498 8.75999C7.93498 8.74999 7.79998 8.80999 7.78498 8.82999C7.78498 8.82999 7.83498 8.81999 7.84498 8.82999C7.84498 8.82999 7.73498 8.94499 7.72998 8.97999C7.74998 9.01499 7.92998 9.04499 7.92998 9.04499C7.92998 9.05499 7.87998 9.09499 7.87998 9.09499C7.95498 9.10499 8.06498 9.05499 8.09498 9.02499C8.09498 9.02499 8.00998 9.01499 7.94498 8.95999C7.94498 8.95999 7.95498 8.99499 7.94498 9.00999C7.94498 9.00999 7.84498 8.97999 7.82998 8.95999C7.82998 8.95999 8.07998 8.89999 8.19998 8.85999C8.20498 8.88499 8.22998 8.92499 8.25998 8.91499C8.27498 8.90999 8.26998 8.87499 8.25998 8.84499C8.26404 8.84861 8.26879 8.85136 8.27395 8.85308C8.27911 8.8548 8.28456 8.85545 8.28998 8.85499C8.30998 8.85499 8.32498 8.83999 8.32498 8.81999C8.32498 8.79999 8.30998 8.78499 8.28998 8.78499C8.28237 8.78539 8.27503 8.78796 8.26883 8.79239C8.26263 8.79681 8.25783 8.80292 8.25498 8.80999C8.24998 8.78499 8.23498 8.73999 8.21498 8.74499L8.20998 8.73999ZM8.30998 8.81999C8.30998 8.82999 8.29998 8.83499 8.28998 8.83499C8.28765 8.83582 8.28515 8.83606 8.2827 8.83569C8.28025 8.83531 8.27794 8.83434 8.27596 8.83286C8.27397 8.83137 8.27239 8.82942 8.27135 8.82717C8.27031 8.82493 8.26984 8.82246 8.26998 8.81999C8.26998 8.80999 8.27998 8.79999 8.28998 8.79999C8.29998 8.79999 8.30498 8.80999 8.30498 8.81999H8.30998Z" fill="#F1B517" stroke="black" stroke-width="0.016"/>
<path d="M12.15 8.895C12.16 8.875 12.15 8.785 12.15 8.785C12.125 8.785 12.1 8.82 12.1 8.82C12.125 8.74 12.06 8.62 12.06 8.62C12.105 8.625 12.255 8.77 12.26 8.8C12.26 8.8 12.195 8.775 12.185 8.78C12.2 8.855 12.25 8.89 12.27 8.93C12.27 8.93 12.185 8.945 12.19 9.02H12.135C12.115 8.995 12.14 8.955 12.14 8.955L11.755 8.795C11.73 8.785 11.675 8.755 11.685 8.725C11.69 8.7 11.785 8.74 11.805 8.75L12.155 8.895H12.15Z" fill="#F1B517" stroke="black" stroke-width="0.016"/>
<path d="M11.78 8.82501L11.83 8.74501C11.845 8.72001 11.81 8.69501 11.785 8.72501L11.735 8.80001C11.715 8.84501 11.76 8.85501 11.785 8.82501H11.78Z" fill="#F1B517" stroke="black" stroke-width="0.016"/>
<path d="M9.0687 9.01868L9.06558 8.92493L8.9562 8.9343L8.94995 9.03118L9.0687 9.01868Z" fill="white" stroke="black" stroke-width="0.015"/>
<path d="M8.26243 9.14694L8.11555 9.06256C8.7218 9.11881 8.8468 8.90631 8.99368 8.89694C9.08743 8.88756 9.0968 8.99694 8.9218 8.94381L8.96868 9.05631C8.96868 9.05631 8.53743 9.30006 8.11243 9.20006L8.26243 9.14694ZM10.9124 9.01881L10.9156 8.92506L11.0499 8.93131L11.0562 9.02819L10.9124 9.01881Z" fill="white" stroke="black" stroke-width="0.015"/>
<path d="M11.7468 9.12493L11.8875 9.0468C11.1875 9.06868 11.3468 8.9343 11 8.8968C10.9062 8.8843 10.8437 9.00305 11.0687 8.94368L11.025 9.05618H11.1343C11.3718 9.21243 11.6906 9.22805 11.9031 9.17805L11.7468 9.12493Z" fill="white" stroke="black" stroke-width="0.015"/>
<path d="M8.92175 8.94678V9.10303C8.92175 9.10303 9.30613 9.24678 9.99675 9.24678C10.6905 9.24678 11.0718 9.10303 11.0718 9.10303V8.94678C11.0718 8.94678 10.7811 9.08115 9.99675 9.08115C9.2155 9.08115 8.92175 8.94678 8.92175 8.94678Z" fill="white" stroke="black" stroke-width="0.015"/>
<path d="M8.97815 9.10305L9.01252 8.98743L9.02815 8.99368L8.9969 9.09368L9.0594 9.1093L9.05315 9.12493L8.97815 9.10305ZM9.09065 9.05305V9.03118L9.0969 9.0093L9.11565 9.01555L9.1094 9.0343L9.10003 9.05618L9.09065 9.05305ZM9.25628 9.04368L9.2719 9.04993L9.2594 9.11555L9.2469 9.1468C9.24292 9.15231 9.23752 9.15663 9.23127 9.1593H9.20002C9.18975 9.15754 9.18009 9.15325 9.1719 9.1468C9.16555 9.14232 9.16109 9.13564 9.1594 9.12805L9.16253 9.0968L9.17815 9.02805L9.19378 9.03118L9.17815 9.09993C9.17655 9.10818 9.17655 9.11667 9.17815 9.12493C9.17881 9.12966 9.18101 9.13406 9.1844 9.13743L9.20002 9.14368H9.23127L9.24377 9.11243L9.25628 9.04368ZM9.27502 9.16868L9.29377 9.05305H9.31252L9.3594 9.1593L9.37502 9.06555H9.39065L9.3719 9.18743L9.35627 9.1843L9.30627 9.08118L9.29065 9.17493L9.27502 9.1718V9.16868ZM9.40002 9.19055L9.41877 9.0718H9.4344L9.41877 9.19055H9.40315H9.40002ZM9.45002 9.13743C9.45002 9.11868 9.4594 9.10305 9.4719 9.09368C9.48439 9.08416 9.50001 9.0797 9.51565 9.08118C9.52815 9.08118 9.53752 9.0843 9.5469 9.09055L9.56252 9.11555C9.56877 9.12493 9.56877 9.13743 9.56565 9.1468C9.56508 9.15782 9.56186 9.16854 9.55627 9.17805C9.55049 9.18783 9.54173 9.19549 9.53127 9.19993C9.52129 9.20361 9.51054 9.20469 9.50002 9.20305C9.48896 9.20275 9.47818 9.19951 9.46877 9.19368C9.46131 9.18698 9.4559 9.17832 9.45315 9.16868C9.44959 9.15867 9.44852 9.14794 9.45002 9.13743ZM9.46565 9.13743C9.46565 9.15305 9.46565 9.16868 9.47503 9.17493C9.48128 9.1843 9.49065 9.19055 9.50315 9.19055C9.51565 9.19055 9.52502 9.19055 9.5344 9.18118C9.54377 9.17493 9.5469 9.16243 9.55002 9.14993C9.55282 9.1397 9.55282 9.12891 9.55002 9.11868C9.5465 9.11202 9.54106 9.10657 9.5344 9.10305C9.52821 9.09781 9.52059 9.09455 9.51252 9.09368C9.50315 9.09368 9.49065 9.09368 9.48127 9.10305C9.47502 9.1093 9.46877 9.1218 9.46565 9.14055V9.13743ZM9.58127 9.2093L9.59065 9.09055H9.6094L9.66565 9.19055L9.6719 9.0968H9.68752L9.67815 9.21868H9.66253L9.60315 9.11868L9.5969 9.21243H9.58127V9.2093ZM9.75628 9.2218L9.7594 9.10305L9.84377 9.10618V9.1218L9.77815 9.11868L9.77502 9.15305L9.8344 9.15618V9.1718L9.7719 9.16868V9.22493H9.75628V9.2218ZM9.85003 9.22493L9.8969 9.10618H9.91565L9.96252 9.23118H9.94378L9.93127 9.19055H9.87815L9.86565 9.22805H9.8469L9.85003 9.22493ZM9.88128 9.17805H9.92502L9.91253 9.1468C9.91 9.13753 9.90792 9.12814 9.90627 9.11868L9.90002 9.14368L9.8844 9.17805H9.88128ZM9.97815 9.22805V9.1093H9.9969V9.22805H9.97815ZM10.0563 9.22805V9.12493H10.0156V9.11243H10.1125V9.12493H10.0719V9.23118H10.0563V9.22805ZM10.1813 9.22805L10.1719 9.10305H10.1906L10.1938 9.2093H10.2563V9.2218L10.1782 9.22493L10.1813 9.22805ZM10.2625 9.2218L10.3 9.0968H10.3188L10.3813 9.21243H10.3594L10.3438 9.18118H10.2906L10.2813 9.2218H10.2625ZM10.2938 9.16868H10.3375L10.3219 9.13743L10.3094 9.1093C10.3091 9.11771 10.308 9.12607 10.3063 9.1343L10.2938 9.16868ZM10.4406 9.20618L10.4282 9.08743L10.5094 9.07805L10.5125 9.09368L10.4469 9.09993V9.13743L10.5094 9.13118V9.1468L10.45 9.15305L10.4563 9.20618H10.4406ZM10.5344 9.14055C10.5319 9.13224 10.5312 9.1235 10.5323 9.11489C10.5333 9.10629 10.5362 9.098 10.5406 9.09055C10.5509 9.07835 10.5654 9.07052 10.5813 9.06868L10.6125 9.0718C10.625 9.07493 10.6313 9.08118 10.6375 9.09055L10.65 9.1218L10.6469 9.15305C10.6435 9.16317 10.6369 9.17194 10.6281 9.17805C10.62 9.1845 10.6103 9.18879 10.6 9.19055C10.5895 9.19219 10.5788 9.19111 10.5688 9.18743C10.5588 9.18382 10.55 9.17729 10.5438 9.16868C10.537 9.15952 10.5327 9.14875 10.5313 9.13743L10.5344 9.14055ZM10.55 9.13743C10.55 9.14993 10.5563 9.16243 10.5656 9.16868C10.575 9.17805 10.5844 9.17805 10.5969 9.17805C10.6094 9.17805 10.6188 9.1718 10.6281 9.16243C10.6344 9.15305 10.6344 9.14055 10.6344 9.12493C10.6331 9.11602 10.6299 9.10749 10.625 9.09993C10.6205 9.09292 10.614 9.08747 10.6063 9.0843C10.5991 9.08245 10.5916 9.08245 10.5844 9.0843C10.5719 9.0843 10.5625 9.08743 10.5532 9.0968C10.55 9.10618 10.5469 9.11868 10.55 9.13743ZM10.6782 9.17805L10.6594 9.0593L10.7125 9.04993H10.7375C10.7438 9.04993 10.75 9.04993 10.7531 9.05618L10.7625 9.07493C10.7625 9.0843 10.7625 9.09055 10.7563 9.0968C10.7532 9.10305 10.7438 9.1093 10.7344 9.11243C10.7376 9.11311 10.7408 9.11416 10.7438 9.11555L10.7594 9.13118L10.7906 9.1593H10.7688L10.7469 9.14055C10.7419 9.1351 10.7367 9.12988 10.7313 9.12493C10.7285 9.12238 10.7253 9.12028 10.7219 9.11868C10.7188 9.11809 10.7156 9.11809 10.7125 9.11868H10.7031L10.6844 9.1218L10.6969 9.17493H10.6782V9.17805ZM10.6844 9.1093L10.7156 9.10305C10.7222 9.10216 10.7286 9.10004 10.7344 9.0968C10.7377 9.09497 10.7403 9.0922 10.742 9.08886C10.7436 9.08552 10.7443 9.08176 10.7438 9.07805C10.7434 9.07324 10.7411 9.06876 10.7375 9.06555H10.7156L10.675 9.06868L10.6844 9.1093ZM10.8813 9.0968H10.8969C10.8969 9.1093 10.8938 9.1218 10.8875 9.12805C10.8792 9.13727 10.8683 9.1438 10.8563 9.1468C10.846 9.14945 10.8353 9.14945 10.825 9.1468C10.8149 9.14338 10.8061 9.13681 10.8 9.12805C10.7926 9.11889 10.7873 9.10823 10.7844 9.0968C10.782 9.08652 10.782 9.07583 10.7844 9.06555C10.7844 9.05305 10.7938 9.04368 10.8 9.03743L10.8281 9.02493H10.8594C10.8719 9.03118 10.8781 9.03743 10.8844 9.04993L10.8688 9.05618C10.8653 9.04952 10.8598 9.04407 10.8531 9.04055C10.8461 9.03817 10.8384 9.03817 10.8313 9.04055C10.823 9.04067 10.8152 9.04404 10.8094 9.04993C10.8038 9.05587 10.8004 9.06363 10.8 9.0718V9.09368C10.8025 9.10275 10.8068 9.11124 10.8125 9.11868C10.8156 9.12493 10.8219 9.13118 10.8313 9.13118H10.8531C10.8602 9.13008 10.8668 9.1268 10.8719 9.1218C10.8781 9.11555 10.8813 9.10618 10.8813 9.0968ZM10.925 9.12805L10.8938 9.01243L10.9781 8.99055L10.9844 9.00305L10.9125 9.0218L10.9219 9.05618L10.9875 9.04055L10.9938 9.05305L10.925 9.0718L10.9375 9.1093L11.0125 9.09055V9.10305L10.925 9.12805Z" fill="black"/>
</g>
<defs>
<clipPath id="clip0_14_387">
<rect width="20" height="15" fill="white"/>
</clipPath>
</defs>
</svg>
