<svg width="20" height="15" viewBox="0 0 20 15" fill="none" xmlns="http://www.w3.org/2000/svg">
<g clip-path="url(#clip0_14_511)">
<mask id="mask0_14_511" style="mask-type:luminance" maskUnits="userSpaceOnUse" x="-1" y="0" width="22" height="16">
<path d="M-0.0045166 0H20.0469V15.04H-0.0045166V0Z" fill="white"/>
</mask>
<g mask="url(#mask0_14_511)">
<path fill-rule="evenodd" clip-rule="evenodd" d="M20.7636 15.04H-0.721313V0H20.7636V15.04Z" fill="#BA0000"/>
<path fill-rule="evenodd" clip-rule="evenodd" d="M10.5293 11.045C10.5352 11.0273 10.547 10.8452 10.5411 10.8452C10.5352 10.8452 10.265 10.525 10.2708 10.525C10.2767 10.525 10.6175 10.6014 10.6175 10.5897C10.6175 10.5779 10.7555 10.2518 10.7555 10.246L10.92 10.6425L11.2578 10.7894L11.0228 10.9862L11.0728 11.3681C11.0728 11.3769 10.8378 11.1448 10.8378 11.1448L10.5763 11.1742C10.5763 11.1742 10.5411 11.0567 10.5293 11.045Z" fill="#FFEF00" stroke="black" stroke-width="0.1034"/>
<path fill-rule="evenodd" clip-rule="evenodd" d="M8.69923 6.07766C8.47304 6.19516 7.61236 7.17922 7.49486 7.33197C7.37488 7.58999 7.20747 7.82317 7.00136 8.01935C6.78692 8.18091 6.66942 8.40122 6.69879 8.60685C6.69879 8.87122 6.84273 9.04747 6.95729 9.22666C7.02486 9.31185 7.11886 9.36472 7.21579 9.37353C7.41848 9.39703 7.43611 9.46166 7.53892 9.49691C7.93254 10.0374 8.52592 10.4369 8.94892 10.7512C9.14355 10.8435 9.32208 10.9665 9.47767 11.1155C9.60104 11.3563 9.57754 11.5855 9.55992 11.703L9.24561 12.8956C9.18979 13.2187 9.47473 13.1482 9.48942 13.0836C9.61573 12.9162 9.80667 13.0337 10.0769 12.076L10.4529 11.5737C10.4529 11.5737 10.5969 11.515 10.5969 11.5003C10.8172 11.2359 10.6497 11.089 10.5234 11.0391L10.2532 10.9392C10.2532 10.9392 9.93592 10.622 9.92123 10.622C9.77142 10.1843 9.03117 9.2531 8.86079 9.12385C8.74329 8.99753 8.68454 8.9476 8.57292 8.8771C8.39961 8.79485 8.34379 8.76547 8.23804 8.72435C8.14992 8.6891 8.21161 8.59216 8.26742 8.5481C8.85492 8.22791 9.31611 7.87541 9.87717 7.51703L9.96529 7.45828L9.76261 6.30678L8.82848 5.97778C8.77854 6.0101 8.74036 6.04535 8.69923 6.07766Z" fill="white" stroke="black" stroke-width="0.1222"/>
<path fill-rule="evenodd" clip-rule="evenodd" d="M9.48064 12.1348C9.48064 12.1231 10.0681 12.0173 10.0681 12.0173L9.9947 12.2347L9.41602 12.411L9.48064 12.1378V12.1348Z" fill="#FFEC00"/>
<path d="M7.96191 9.94349C8.02186 9.80602 8.10896 9.68207 8.218 9.5791C8.32703 9.47612 8.45574 9.39624 8.59641 9.34424" stroke="black" stroke-width="0.1034"/>
<path d="M9.46012 12.1407C9.49831 12.1319 9.66575 12.082 9.71275 12.0732C9.76562 12.0614 9.81556 12.0497 9.86549 12.0321C9.92424 12.0203 9.9595 12.0086 10.0182 11.9997C10.0662 11.9828 10.1153 11.969 10.1651 11.9586M9.35437 12.5021C9.37662 12.4798 9.40125 12.4601 9.42781 12.4433C9.46012 12.4316 9.57468 12.3846 9.61875 12.3757C9.66536 12.3641 9.71143 12.3504 9.75681 12.3346L9.89193 12.2994C9.93599 12.2817 9.97712 12.27 10.0212 12.2582" stroke="black" stroke-width="0.1128"/>
<path d="M9.58932 10.0286H9.58345C9.60695 10.0286 9.59226 10.0286 9.55701 10.0697C9.54526 10.102 9.43951 10.1784 9.35726 10.1784C9.31139 10.1834 9.26533 10.1863 9.2192 10.1872L9.18101 10.1784M9.58345 11.75H9.62457C9.66864 11.75 9.7127 11.7588 9.74795 11.7588C9.79201 11.7588 9.83314 11.7705 9.87426 11.7705C9.91833 11.7764 9.96826 11.7735 10.0123 11.7823C10.0593 11.7823 10.1004 11.7911 10.1504 11.7911M10.1504 11.7911C10.1915 11.794 10.215 11.7999 10.2591 11.7999L10.1504 11.7911ZM9.29851 12.7693C9.31876 12.7472 9.34142 12.7275 9.36607 12.7105C9.39545 12.7017 9.5012 12.6518 9.54232 12.6459C9.58413 12.6332 9.6253 12.6185 9.6657 12.6018L9.79201 12.5725C9.8302 12.5519 9.86839 12.5401 9.90951 12.5284M10.0799 11.3181C10.0564 11.3857 10.0887 11.4033 10.1004 11.4327C10.1458 11.4811 10.2038 11.5157 10.2679 11.5326C10.3031 11.5414 10.3266 11.5502 10.3678 11.5678C10.3942 11.5678 10.4059 11.5766 10.4265 11.5825M6.77226 8.79777H6.78107C6.75464 8.79777 6.77226 8.80071 6.81339 8.7684C6.84276 8.73609 6.86333 8.7214 6.88976 8.68909M7.31276 9.39409C7.31864 9.39409 7.80039 9.15321 7.85032 9.10034L7.95901 9.01515C7.98839 9.00046 8.00895 8.98284 8.03539 8.96521C8.05595 8.93584 8.08532 8.91527 8.10295 8.8859C8.13232 8.85946 8.11764 8.83302 8.14407 8.80071L8.18226 8.68909M8.79326 9.04746C8.7962 9.06509 8.78739 9.11796 8.78739 9.15909C8.78739 9.20609 8.7257 9.35002 8.65226 9.39409" stroke="black" stroke-width="0.1034"/>
<path d="M7.93253 9.04168L8.12934 9.10337C8.27621 9.15624 8.58171 9.35012 8.61403 9.37656C8.6434 9.40006 8.70215 9.42356 8.71978 9.44999C8.75503 9.47937 8.77853 9.51168 8.80496 9.54399C8.83434 9.57924 8.86371 9.61155 8.8784 9.64387C9.03881 9.8666 9.17102 10.1083 9.27203 10.3636C9.29259 10.3841 9.3014 10.4135 9.32196 10.4458C9.33959 10.4869 9.36015 10.5046 9.38071 10.5369C9.41009 10.5574 9.44534 10.5956 9.48059 10.6132C9.51878 10.6456 9.55403 10.6573 9.5834 10.6808C9.62159 10.6984 10.0622 10.9746 10.0828 10.9892C10.1239 11.0216 10.2443 11.1479 10.1592 11.2419C10.1239 11.2712 10.0887 11.3153 10.0593 11.33C10.027 11.3652 9.9829 11.3799 9.94471 11.3946C9.7479 11.4534 9.64509 11.4328 9.6069 11.4328H9.56578M6.95728 8.05762C7.01603 8.08112 6.99253 8.06349 7.04246 8.08699C7.07771 8.10168 7.10121 8.10168 7.13059 8.11637C7.16878 8.12518 7.26865 8.14574 7.31565 8.19274C7.3509 8.22212 7.3744 8.25149 7.41553 8.27206C7.4576 8.30085 7.50296 8.32452 7.55065 8.34256C7.59765 8.36018 7.65053 8.38074 7.69753 8.38074H7.92665H7.80915" stroke="black" stroke-width="0.1034"/>
<path fill-rule="evenodd" clip-rule="evenodd" d="M6.9456 8.61565C7.06898 8.60684 7.27754 8.64503 7.28341 8.64503L7.55954 8.63915C7.70641 8.6274 7.73579 8.57159 7.75929 8.53046C7.8151 8.44821 7.85035 8.41884 7.89441 8.35421C7.95904 8.30721 8.05304 8.42178 8.05598 8.42178C8.29098 8.64503 8.10298 8.91528 8.09123 8.92409C7.97373 9.03278 7.94729 9.03865 7.87679 8.97109C7.80629 8.8859 7.78573 8.84772 7.72698 8.81834C7.61241 8.76547 7.38035 8.80659 7.37448 8.80659L7.25404 8.85359C7.19529 8.87415 7.16004 8.92409 7.0631 8.94171C6.96029 8.94759 6.92798 8.93878 6.87804 8.85653C6.81048 8.75371 6.84279 8.6274 6.9456 8.61565Z" fill="#FFE606" stroke="black" stroke-width="0.1034"/>
<path fill-rule="evenodd" clip-rule="evenodd" d="M13.4903 3.54553C13.4727 3.54553 13.3052 3.62778 13.3082 3.63366C13.3111 3.63659 13.1672 4.03022 13.1642 4.02728C13.1613 4.02141 13.0614 3.68359 13.0497 3.68947C13.0409 3.69534 12.6884 3.73647 12.6854 3.73941L12.9498 3.40159L12.9116 3.03441L13.1995 3.14603L13.5079 2.91103C13.5138 2.90809 13.4286 3.22828 13.4286 3.22828L13.5814 3.43978C13.5814 3.43978 13.4932 3.52791 13.4903 3.54553Z" fill="#FFEF00" stroke="black" stroke-width="0.1034"/>
<path fill-rule="evenodd" clip-rule="evenodd" d="M10.0593 7.57584C10.2679 7.7139 11.5486 7.98415 11.7425 8.01059C12.026 7.98885 12.311 8.02074 12.5826 8.10459C12.8265 8.21034 13.0761 8.20446 13.2436 8.07521C13.4727 7.95184 13.555 7.74034 13.6548 7.54646C13.676 7.50038 13.6869 7.45028 13.6869 7.39959C13.6869 7.3489 13.676 7.2988 13.6548 7.25271C13.5785 7.06471 13.6255 7.01771 13.6078 6.91196C13.884 6.30096 13.9427 5.59009 14.0073 5.06428C14.0015 4.75584 14.0338 4.52084 14.0661 4.42684C14.1801 4.25995 14.345 4.13428 14.5361 4.06846L15.7316 3.75709C16.043 3.64546 15.8403 3.43396 15.7757 3.45159C15.5701 3.42221 15.576 3.19896 14.6095 3.43103L13.9868 3.35171C13.9868 3.35171 13.8693 3.25478 13.8546 3.26359C13.5168 3.2019 13.4698 3.41928 13.4874 3.55146L13.5344 3.83934C13.5344 3.83934 13.414 4.26821 13.4198 4.27996C13.1114 4.62659 12.6561 5.73696 12.6267 5.9514C12.612 6.15115 12.5386 6.11296 12.5562 6.30978C12.5562 6.46253 12.5386 6.36853 12.5885 6.6799C12.6032 6.7739 12.4857 6.76803 12.4211 6.73865C11.8571 6.38615 11.3225 6.15409 10.732 5.84271L10.641 5.79571L9.73621 6.53596L9.90658 7.51121C9.95946 7.54059 10.0065 7.55528 10.0564 7.57584H10.0593Z" fill="white" stroke="black" stroke-width="0.1222"/>
<path fill-rule="evenodd" clip-rule="evenodd" d="M14.9561 3.92454C14.8218 3.77731 14.6915 3.62646 14.5654 3.47216L14.7887 3.4281L15.2234 3.84816L14.9561 3.92454Z" fill="#FFEC00"/>
<path d="M13.7899 6.32149C13.6406 6.33686 13.4898 6.32188 13.3464 6.27746C13.203 6.23304 13.0701 6.16009 12.9557 6.06299" stroke="black" stroke-width="0.1034"/>
<path d="M14.9708 3.93919C14.9415 3.91275 14.8181 3.79231 14.7887 3.75119C14.753 3.71249 14.7158 3.67525 14.6771 3.63956C14.6389 3.5955 14.6095 3.56906 14.5713 3.52206C14.5337 3.48928 14.4984 3.45394 14.4656 3.41631M15.3351 3.85694C15.3263 3.85694 15.2763 3.83638 15.247 3.82169C15.2235 3.79525 15.1236 3.72181 15.0971 3.68656C15.0644 3.65175 15.0301 3.61842 14.9943 3.58669C14.9591 3.5485 14.9326 3.52794 14.8974 3.48388C14.8619 3.45704 14.8286 3.42758 14.7975 3.39575" stroke="black" stroke-width="0.1128"/>
<path d="M13.0644 4.86154L13.0673 4.87035C13.0556 4.84685 13.0614 4.86154 13.1173 4.87035C13.1525 4.86447 13.27 4.92029 13.3082 4.99079C13.3317 5.0231 13.3669 5.07304 13.3846 5.10829C13.3904 5.1171 13.3904 5.13766 13.3963 5.14647M14.5713 4.02435L14.5654 4.01847L14.5478 3.9891L14.4949 3.87454C14.4744 3.83929 14.4656 3.79522 14.445 3.75997C14.4274 3.71885 14.4009 3.67772 14.3863 3.6366C14.3628 3.59254 14.351 3.55435 14.3275 3.50735M14.3275 3.50735C14.3069 3.4721 14.304 3.4486 14.2805 3.41041L14.3275 3.50735ZM15.5965 3.77172C15.568 3.76538 15.5404 3.75551 15.5143 3.74235C15.4908 3.72179 15.3968 3.65422 15.3674 3.62485C15.3365 3.59396 15.3041 3.56455 15.2704 3.53672C15.2411 3.49854 15.2146 3.47797 15.1823 3.43979C15.1489 3.4159 15.1175 3.38938 15.0883 3.36047M13.9456 3.8011C14.0191 3.78935 14.0191 3.7541 14.0367 3.72766C14.0514 3.69829 14.0631 3.62485 14.0426 3.53379L14.0249 3.43097C14.0132 3.40454 14.0132 3.38985 14.0103 3.37222M13.3728 7.91947L13.3699 7.9136C13.3816 7.9371 13.3758 7.92241 13.3229 7.89891L13.2201 7.86954M13.6284 7.15572C13.6254 7.14985 13.1789 6.85022 13.1084 6.8326C13.0673 6.81204 13.0291 6.80322 12.9821 6.77972L12.8999 6.7386C12.8617 6.73272 12.8294 6.71804 12.7971 6.71804C12.7618 6.70629 12.7413 6.72979 12.7031 6.72391L12.5856 6.74447M12.6003 6.03654C12.612 6.02479 12.6649 6.00716 12.7001 5.9866C12.7413 5.96604 12.8969 5.94841 12.9704 5.98954" stroke="black" stroke-width="0.1034"/>
<path d="M13.0174 6.79149L12.9733 6.58587C12.956 6.40219 12.956 6.21729 12.9733 6.03362C12.9792 5.99543 12.9733 5.93374 12.988 5.90143C12.9968 5.8603 13.0115 5.82212 13.0262 5.78393C13.0438 5.73987 13.0585 5.70168 13.0762 5.66937C13.0967 5.55187 13.4287 5.07893 13.4522 5.05543C13.4707 5.02824 13.4903 5.00178 13.5109 4.97612C13.5197 4.94674 13.5403 4.92324 13.5579 4.88799C13.5873 4.85568 13.5931 4.82924 13.6108 4.79399C13.6137 4.76168 13.6284 4.7088 13.6284 4.67062C13.6372 4.62068 13.6284 4.58249 13.6372 4.55018C13.6313 4.50612 13.6578 3.98618 13.6607 3.96268C13.6695 3.9098 13.7195 3.74237 13.8428 3.77174C13.8869 3.78643 13.9398 3.79524 13.9721 3.8158C14.0132 3.82755 14.0485 3.85987 14.0808 3.88337C14.2276 4.0273 14.26 4.12424 14.2805 4.15949L14.3011 4.19474M12.6326 8.10749L12.6297 8.10162C12.6414 8.12218 12.6355 8.11043 12.6208 8.0693C12.6179 8.03112 12.6062 7.98118 12.6003 7.94593C12.5915 7.90774 12.5738 7.86662 12.5797 7.84312C12.565 7.80493 12.5738 7.77555 12.5797 7.73737C12.5885 7.69037 12.5944 7.65805 12.5944 7.61399C12.6003 7.55524 12.5944 7.51999 12.5973 7.46712C12.5827 7.42305 12.5797 7.3878 12.5592 7.34374L12.5004 7.22624L12.4417 7.12343L12.5004 7.2233" stroke="black" stroke-width="0.1034"/>
<path fill-rule="evenodd" clip-rule="evenodd" d="M13.1289 7.86075C13.0614 7.755 12.9909 7.55525 12.9879 7.55231L12.8499 7.31144C12.7676 7.19394 12.703 7.19394 12.656 7.19394C12.5561 7.18512 12.5121 7.16456 12.4386 7.16162C12.3623 7.12637 12.4181 6.98831 12.4151 6.98537C12.4944 6.674 12.8264 6.70337 12.8381 6.70925C12.9879 6.75919 13.0056 6.77975 12.9821 6.87375C12.9439 6.97656 12.9233 7.01475 12.9233 7.07937C12.9321 7.20275 13.0849 7.38781 13.0849 7.39075L13.1848 7.473C13.2318 7.51412 13.2934 7.52 13.3551 7.59931C13.4109 7.6845 13.4198 7.71681 13.3728 7.79906C13.314 7.91069 13.1906 7.943 13.1289 7.86075Z" fill="#FFE606" stroke="black" stroke-width="0.1034"/>
<path fill-rule="evenodd" clip-rule="evenodd" d="M5.36515 4.95561C5.37984 4.96736 5.53553 5.0643 5.5414 5.05843C5.54728 5.05255 5.95265 4.95855 5.94678 4.96443C5.9409 4.9703 5.71765 5.23761 5.7294 5.24349C5.74115 5.24936 5.9644 5.51961 5.97028 5.52255L5.54434 5.4873L5.25646 5.71643L5.19184 5.4168L4.83053 5.28755C4.82465 5.28461 5.13896 5.1818 5.13896 5.1818L5.23296 4.93799C5.23296 4.93799 5.3534 4.95855 5.37103 4.95561H5.36515Z" fill="#FFEF00" stroke="black" stroke-width="0.1034"/>
<path fill-rule="evenodd" clip-rule="evenodd" d="M10.6174 5.61939C10.6174 5.36383 10.1415 4.14477 10.0593 3.97145C9.88574 3.74599 9.7562 3.48989 9.67739 3.21652C9.63332 2.95214 9.49232 2.74652 9.29551 2.67602C9.06345 2.55558 8.8402 2.60258 8.62576 2.62314C8.52001 2.6437 8.42895 2.70245 8.37901 2.7847C8.26151 2.95214 8.19982 2.93745 8.11757 3.01089C7.45664 3.1137 6.83095 3.45445 6.35507 3.68652C6.18346 3.81627 5.99202 3.91745 5.78814 3.98614C5.58609 3.98318 5.39038 3.9152 5.23001 3.79227L4.31645 2.96095C4.05207 2.76414 3.98745 3.04908 4.03739 3.09314C4.12551 3.28114 3.93457 3.3957 4.66014 4.08014L4.93332 4.64414C4.93332 4.64414 4.91864 4.79689 4.93332 4.80277C5.06257 5.12002 5.27407 5.0407 5.37395 4.95258L5.58839 4.75577C5.58839 4.75577 6.01432 4.62064 6.0202 4.60889C6.47845 4.67645 7.65932 4.4532 7.8532 4.3592C8.02945 4.26227 8.03826 4.34452 8.19101 4.22114C8.31732 4.13595 8.24976 4.20352 8.48476 3.98908C8.55526 3.93033 8.61107 4.02727 8.62576 4.09777C8.63751 4.76458 8.73739 5.33739 8.79907 6.00127L8.81082 6.10408L9.92707 6.45658L10.6497 5.78095L10.6203 5.61645L10.6174 5.61939Z" fill="white" stroke="black" stroke-width="0.1222"/>
<path fill-rule="evenodd" clip-rule="evenodd" d="M4.8805 3.51916C4.88931 3.52797 4.716 4.09491 4.716 4.09491L4.55737 3.93335L4.669 3.33704L4.8805 3.51916Z" fill="#FFEC00"/>
<path d="M7.52722 3.1842C7.73872 3.4192 7.80628 3.80695 7.7681 4.02433" stroke="black" stroke-width="0.1034"/>
<path d="M4.88927 3.49861C4.88046 3.5368 4.84521 3.71011 4.83052 3.75417C4.81667 3.80557 4.80491 3.85751 4.79527 3.90986L4.75415 4.06261C4.74827 4.11255 4.73946 4.15955 4.72477 4.20949M4.61609 3.24011C4.61902 3.24892 4.63077 3.29886 4.63371 3.33117C4.62784 3.36642 4.61902 3.4898 4.60434 3.53386C4.59342 3.58044 4.5846 3.62749 4.5779 3.67486L4.54852 3.80999C4.54414 3.85556 4.53629 3.90073 4.52502 3.94511" stroke="black" stroke-width="0.1128"/>
<path d="M6.70172 4.59127L6.70466 4.58246C6.69291 4.60596 6.70466 4.59127 6.68116 4.54134C6.65472 4.51196 6.64004 4.38565 6.67529 4.31221C6.69304 4.26928 6.71265 4.22714 6.73404 4.1859C6.73697 4.17709 6.75166 4.16534 6.75754 4.15652M5.17716 3.78934L5.17422 3.79521L5.1566 3.82459C5.13897 3.86571 5.1096 3.90096 5.09197 3.93327C5.07435 3.97146 5.04204 4.00084 5.02441 4.03902L4.95391 4.15652C4.92747 4.19765 4.90104 4.22996 4.87754 4.27402L4.81879 4.36802M4.40166 3.06671C4.40754 3.07259 4.42222 3.12252 4.42516 3.15484C4.41929 3.18421 4.41341 3.30171 4.40166 3.3399L4.3811 3.46915C4.36935 3.51615 4.36641 3.54846 4.35172 3.59546C4.35016 3.63692 4.34525 3.67818 4.33704 3.71884M5.32991 4.43559C5.27997 4.37977 5.2506 4.40034 5.21829 4.3974C5.15386 4.41511 5.09579 4.45076 5.05085 4.50021C5.02735 4.52665 5.00679 4.54721 4.97447 4.57365C4.95979 4.59715 4.94804 4.60302 4.93335 4.61771M9.08991 2.65546L9.08697 2.66427C9.09872 2.64077 9.08991 2.65252 9.10166 2.70834C9.11635 2.74652 9.11635 2.77296 9.13104 2.80821M8.31147 2.86109C8.31147 2.86696 8.30266 3.40452 8.32616 3.47502C8.33204 3.51909 8.34379 3.55434 8.34966 3.61015C8.34966 3.63952 8.35847 3.6689 8.36141 3.69827C8.37904 3.73352 8.38197 3.76877 8.40254 3.79521C8.41135 3.8334 8.44072 3.83634 8.45835 3.86865C8.47891 3.89509 8.5171 3.93915 8.5406 3.95677M7.93841 4.33571C7.92079 4.32984 7.87966 4.29459 7.84441 4.27696C7.80329 4.25346 7.70047 4.13302 7.69754 4.04784" stroke="black" stroke-width="0.1034"/>
<path d="M8.34085 3.57202L8.19397 3.7189C8.04976 3.83501 7.89428 3.93637 7.72985 4.02146C7.6946 4.03908 7.65053 4.08021 7.61235 4.08315C7.57416 4.10077 7.53303 4.10665 7.49485 4.11546C7.21683 4.16584 6.93354 4.18065 6.65178 4.15952C6.61843 4.15888 6.58511 4.15692 6.55191 4.15365C6.52253 4.15952 6.49316 4.15658 6.45497 4.15952C6.40797 4.15658 6.38447 4.1654 6.34628 4.16833C6.31691 4.18596 6.26697 4.20065 6.23172 4.22415C6.18766 4.24177 6.15828 4.26821 6.12597 4.2829C6.0966 4.30933 5.64422 4.57077 5.62072 4.58252C5.57372 4.60308 5.40628 4.65596 5.36222 4.53552C5.35047 4.48852 5.33285 4.43858 5.32991 4.40333C5.31522 4.36221 5.32403 4.31521 5.32403 4.27408C5.36516 4.0714 5.42978 3.99208 5.44741 3.95683L5.46797 3.92158M9.64803 3.17252L9.6451 3.18133C9.65391 3.16077 9.65097 3.16958 9.6216 3.20483C9.59222 3.22833 9.55697 3.26358 9.53053 3.29296C9.50116 3.31646 9.47766 3.35171 9.45416 3.36346C9.43066 3.39283 9.40128 3.40458 9.36603 3.42221C9.32695 3.4368 9.28953 3.45551 9.25441 3.47802C9.20447 3.50152 9.1751 3.52796 9.13103 3.5544C9.10166 3.58965 9.07228 3.61315 9.04878 3.65427C9.02528 3.69246 9.00178 3.72477 8.98122 3.76883L8.92835 3.87165M9.27203 6.01896L9.28085 6.00427C9.26616 6.03365 9.2691 6.02483 9.28378 5.97783C9.28378 5.92496 9.29847 5.8574 9.29847 5.80746C9.30728 5.75458 9.3161 5.69877 9.3161 5.6459C9.31316 5.58715 9.31316 5.5284 9.30435 5.46965C9.30435 5.41677 9.29553 5.36096 9.29553 5.30515C9.29553 5.25227 9.28966 5.20821 9.27791 5.15827C9.27784 5.11103 9.27391 5.06387 9.26616 5.01727C9.2691 4.98202 9.26028 4.94677 9.25147 4.9174L9.21622 4.76758L9.18685 4.64715C9.18097 4.60015 9.15747 4.5414 9.14572 4.50321C9.1306 4.47148 9.11974 4.4379 9.11341 4.40333C9.09872 4.37102 9.07816 4.33283 9.07522 4.29758L9.02822 4.1889L8.9871 4.08315C8.97241 4.04202 8.95478 4.00677 8.94303 3.96565C8.92835 3.95096 8.92541 3.93627 8.91953 3.92452" stroke="black" stroke-width="0.1034"/>
<path fill-rule="evenodd" clip-rule="evenodd" d="M9.17508 2.89342C9.12381 2.99411 9.06281 3.08955 8.99296 3.17836L8.86958 3.42511C8.81671 3.56024 8.84902 3.61605 8.87252 3.65424C8.92246 3.74236 8.93127 3.78936 8.96652 3.85399C8.98121 3.93624 8.83433 3.96561 8.83433 3.96855C8.52883 4.0743 8.37315 3.78055 8.37315 3.76586C8.33202 3.61311 8.3379 3.58961 8.4319 3.5573C8.53765 3.53086 8.57877 3.52792 8.63165 3.49267C8.73446 3.4163 8.80496 3.19011 8.8079 3.18717L8.81965 3.05792C8.82846 2.99917 8.80202 2.94042 8.8314 2.84642C8.87252 2.75242 8.89602 2.72892 8.99002 2.72011C9.1134 2.7113 9.21033 2.79649 9.17508 2.89342Z" fill="#FFE606" stroke="black" stroke-width="0.1034"/>
<path fill-rule="evenodd" clip-rule="evenodd" d="M8.77567 5.86622C8.72867 5.82216 9.63929 6.19522 9.76561 6.19816C9.93598 6.13647 10.6439 5.54016 10.6439 5.54016C10.6498 5.59891 10.6762 5.74872 10.7438 5.78104C10.4706 6.00135 10.2239 6.21579 9.95067 6.4361C9.96829 6.7886 9.90661 7.16166 10.0829 7.55235C10.0829 7.55235 9.87136 7.55822 9.87136 7.55235C9.68336 7.36435 9.61579 6.4596 9.61579 6.4596L8.71692 6.0601C8.76098 6.03072 8.79329 5.94554 8.77567 5.86329V5.86622Z" fill="#FFEF00" stroke="black" stroke-width="0.1034"/>
<path d="M9.64216 6.79449C9.65685 6.78274 9.47766 6.87674 9.43066 6.90024C8.60523 7.34086 8.17929 7.98711 8.15285 8.01061L8.08823 8.11049L8.02066 8.19861C7.98768 8.24633 7.95239 8.29241 7.91491 8.33668C7.90904 8.3543 7.92666 8.32786 7.92079 8.34255M10.2091 6.26868C10.2704 6.3179 10.3341 6.36398 10.4 6.40674C11.1697 6.94136 11.9364 7.02655 11.9716 7.0383C12.001 7.0383 12.045 7.04711 12.0891 7.05299C12.1244 7.05299 12.1655 7.06474 12.2007 7.06768C12.2419 7.07355 12.33 7.09118 12.3711 7.10293C12.3887 7.09705 12.3564 7.09411 12.3711 7.09118" stroke="black" stroke-width="0.1034"/>
</g>
</g>
<defs>
<clipPath id="clip0_14_511">
<rect width="20" height="15" fill="white"/>
</clipPath>
</defs>
</svg>
