<svg width="20" height="15" viewBox="0 0 20 15" fill="none" xmlns="http://www.w3.org/2000/svg">
<g clip-path="url(#clip0_14_360)">
<path d="M0 0H20V5H0V0Z" fill="#FF9933"/>
<path d="M0 5H20V10H0V5Z" fill="white"/>
<path d="M0 10H20V15H0V10Z" fill="#128807"/>
<path d="M10 9.5C11.1046 9.5 12 8.60457 12 7.5C12 6.39543 11.1046 5.5 10 5.5C8.89543 5.5 8 6.39543 8 7.5C8 8.60457 8.89543 9.5 10 9.5Z" fill="#000088"/>
<path d="M10 9.25C10.9665 9.25 11.75 8.4665 11.75 7.5C11.75 6.5335 10.9665 5.75 10 5.75C9.0335 5.75 8.25 6.5335 8.25 7.5C8.25 8.4665 9.0335 9.25 10 9.25Z" fill="white"/>
<path d="M10 7.85002C10.1933 7.85002 10.35 7.69332 10.35 7.50002C10.35 7.30672 10.1933 7.15002 10 7.15002C9.80672 7.15002 9.65002 7.30672 9.65002 7.50002C9.65002 7.69332 9.80672 7.85002 10 7.85002Z" fill="#000088"/>
<path d="M11.7233 7.81838C11.7725 7.82487 11.8178 7.79018 11.8242 7.7409C11.8307 7.69162 11.796 7.64641 11.7468 7.63992C11.6975 7.63343 11.6523 7.66812 11.6458 7.7174C11.6393 7.76668 11.674 7.81189 11.7233 7.81838Z" fill="#000088"/>
<path d="M10 9.25007L10.06 8.20007L10 7.70007L9.94 8.20007L10 9.25007Z" fill="#000088"/>
<path d="M11.5804 8.2516C11.6254 8.27166 11.678 8.25153 11.698 8.20664C11.718 8.16176 11.6977 8.10911 11.6528 8.08905C11.6078 8.06899 11.5552 8.08912 11.5352 8.13401C11.5152 8.17889 11.5354 8.23154 11.5804 8.2516Z" fill="#000088"/>
<path d="M9.54559 9.18979L9.87583 8.19265L9.94972 7.69392L9.76288 8.16027L9.54559 9.18979Z" fill="#000088"/>
<path d="M11.3326 8.63667C11.3717 8.66727 11.4282 8.66039 11.4588 8.6213C11.4894 8.58221 11.4826 8.52571 11.4435 8.49511C11.4044 8.46451 11.3479 8.47139 11.3173 8.51048C11.2867 8.54957 11.2936 8.60606 11.3326 8.63667Z" fill="#000088"/>
<path d="M9.12484 9.01544L9.70187 8.13632L9.90022 7.67327L9.59833 8.07615L9.12484 9.01544Z" fill="#000088"/>
<path d="M10.9926 8.94271C11.0224 8.98261 11.0789 8.9908 11.1188 8.961C11.1587 8.93121 11.1669 8.87471 11.1371 8.83481C11.1073 8.79492 11.0508 8.78673 11.0109 8.81652C10.971 8.84632 10.9628 8.90282 10.9926 8.94271Z" fill="#000088"/>
<path d="M8.76164 8.73651L9.54686 8.03866L9.8595 7.64235L9.46385 7.95195L8.76164 8.73651Z" fill="#000088"/>
<path d="M10.5862 9.1518C10.6053 9.19758 10.658 9.21916 10.7038 9.19999C10.7496 9.18083 10.7713 9.12818 10.7521 9.0824C10.733 9.03662 10.6804 9.01505 10.6346 9.03421C10.5887 9.05338 10.5671 9.10603 10.5862 9.1518Z" fill="#000088"/>
<path d="M8.48458 8.37523L9.42389 7.90179L9.82685 7.59989L9.36382 7.79821L8.48458 8.37523Z" fill="#000088"/>
<path d="M10.138 9.2463C10.1442 9.2959 10.1894 9.33111 10.239 9.32494C10.2886 9.31878 10.3238 9.27357 10.3177 9.22397C10.3115 9.17437 10.2663 9.13915 10.2167 9.14532C10.1671 9.15149 10.1319 9.1967 10.138 9.2463Z" fill="#000088"/>
<path d="M8.30882 7.94987L9.33887 7.74321L9.80771 7.55476L9.30952 7.62123L8.30882 7.94987Z" fill="#000088"/>
<path d="M9.67732 9.22725C9.67328 9.27876 9.71192 9.32397 9.76364 9.32823C9.81536 9.33249 9.86057 9.29419 9.86462 9.24268C9.86867 9.19117 9.83002 9.14596 9.7783 9.1417C9.72658 9.13744 9.68137 9.17574 9.67732 9.22725Z" fill="#000088"/>
<path d="M8.25197 7.46298L9.29745 7.53608L9.79813 7.53685L9.30129 7.48996L8.25197 7.46298Z" fill="#000088"/>
<path d="M9.24373 9.08479C9.22629 9.13223 9.25065 9.18488 9.29815 9.20238C9.34565 9.21988 9.3983 9.1956 9.41574 9.14816C9.43319 9.10072 9.40882 9.04807 9.36132 9.03057C9.31382 9.01307 9.26118 9.03735 9.24373 9.08479Z" fill="#000088"/>
<path d="M8.3063 7.05694L9.31294 7.38312L9.81023 7.43817L9.33725 7.24726L8.3063 7.05694Z" fill="#000088"/>
<path d="M8.86343 8.83264C8.83284 8.87169 8.83974 8.92819 8.87885 8.95883C8.91795 8.98948 8.97445 8.98267 9.00504 8.94362C9.03563 8.90458 9.02872 8.84808 8.98962 8.81743C8.95051 8.78679 8.89402 8.7936 8.86343 8.83264Z" fill="#000088"/>
<path d="M8.48456 6.62491L9.36383 7.20194L9.82685 7.40028L9.42388 7.09839L8.48456 6.62491Z" fill="#000088"/>
<path d="M8.55749 8.49246C8.51748 8.52212 8.50911 8.57862 8.53879 8.61865C8.56847 8.65869 8.62497 8.6671 8.66498 8.63744C8.70499 8.60778 8.71337 8.55129 8.68368 8.51125C8.654 8.47122 8.59751 8.4628 8.55749 8.49246Z" fill="#000088"/>
<path d="M8.76354 6.26167L9.46142 7.04691L9.85772 7.35967L9.5481 6.96404L8.76354 6.26167Z" fill="#000088"/>
<path d="M8.35018 8.08444C8.30334 8.10261 8.28004 8.15526 8.29815 8.20204C8.31625 8.24881 8.3689 8.27201 8.41574 8.25384C8.46258 8.23567 8.48587 8.18303 8.46777 8.13625C8.44966 8.08947 8.39702 8.06628 8.35018 8.08444Z" fill="#000088"/>
<path d="M9.12756 5.98312L9.59473 6.92294L9.89757 7.32827L9.70363 6.86576L9.12756 5.98312Z" fill="#000088"/>
<path d="M8.25571 7.63634C8.205 7.64159 8.16799 7.6868 8.17304 7.73732C8.1781 7.78785 8.22331 7.82455 8.27402 7.81931C8.32473 7.81407 8.36175 7.76886 8.35669 7.71833C8.35164 7.66781 8.30643 7.6311 8.25571 7.63634Z" fill="#000088"/>
<path d="M9.55369 5.80797L9.75197 6.83833L9.94168 7.3086L9.88107 6.81072L9.55369 5.80797Z" fill="#000088"/>
<path d="M8.27807 7.18292C8.22949 7.17578 8.18428 7.20942 8.1771 7.25804C8.16991 7.30667 8.20347 7.35188 8.25206 7.35902C8.30064 7.36616 8.34585 7.33253 8.35303 7.2839C8.36022 7.23527 8.32666 7.19006 8.27807 7.18292Z" fill="#000088"/>
<path d="M10.038 5.75457L9.96455 6.79392L9.96213 7.29552L10.0087 6.80297L10.038 5.75457Z" fill="#000088"/>
<path d="M8.41907 6.74765C8.37382 6.72801 8.32118 6.74881 8.30148 6.79411C8.28179 6.8394 8.30251 6.89205 8.34776 6.9117C8.39301 6.93134 8.44565 6.91054 8.46535 6.86524C8.48504 6.81995 8.46432 6.7673 8.41907 6.74765Z" fill="#000088"/>
<path d="M10.4537 5.80969L10.1237 6.80835L10.051 7.30684L10.2381 6.83943L10.4537 5.80969Z" fill="#000088"/>
<path d="M8.66803 6.36383C8.62924 6.33295 8.57275 6.33939 8.54184 6.37821C8.51093 6.41702 8.51732 6.47352 8.55611 6.5044C8.5949 6.53527 8.6514 6.52884 8.6823 6.49002C8.71321 6.4512 8.70682 6.3947 8.66803 6.36383Z" fill="#000088"/>
<path d="M10.8763 5.98518L10.2989 6.86283L10.0989 7.3261L10.4004 6.92426L10.8763 5.98518Z" fill="#000088"/>
<path d="M9.00821 6.05784C8.97882 6.01757 8.92232 6.00878 8.88202 6.0382C8.84171 6.06762 8.83287 6.12412 8.86225 6.16439C8.89164 6.20466 8.94814 6.21345 8.98844 6.18403C9.02875 6.15461 9.0376 6.09811 9.00821 6.05784Z" fill="#000088"/>
<path d="M11.2394 6.26444L10.4538 6.96004L10.1396 7.35669L10.5349 7.04866L11.2394 6.26444Z" fill="#000088"/>
<path d="M9.41387 5.84807C9.39476 5.80229 9.34211 5.78072 9.29628 5.79989C9.25046 5.81905 9.2288 5.8717 9.24792 5.91748C9.26704 5.96326 9.31968 5.98483 9.36551 5.96566C9.41134 5.9465 9.43299 5.89385 9.41387 5.84807Z" fill="#000088"/>
<path d="M11.5155 6.62477L10.5762 7.09821L10.1733 7.40011L10.6363 7.20179L11.5155 6.62477Z" fill="#000088"/>
<path d="M9.86209 5.75362C9.85595 5.704 9.81074 5.66875 9.76111 5.67489C9.71148 5.68104 9.67623 5.72624 9.68237 5.77587C9.6885 5.82549 9.73371 5.86074 9.78334 5.8546C9.83297 5.84846 9.86823 5.80325 9.86209 5.75362Z" fill="#000088"/>
<path d="M11.6913 7.05009L10.6612 7.25657L10.1923 7.44504L10.6905 7.3787L11.6913 7.05009Z" fill="#000088"/>
<path d="M10.3227 5.77279C10.3268 5.72138 10.2882 5.67618 10.2365 5.67182C10.1848 5.66746 10.1395 5.7056 10.1355 5.75701C10.1314 5.80842 10.17 5.85363 10.2217 5.85799C10.2734 5.86235 10.3186 5.8242 10.3227 5.77279Z" fill="#000088"/>
<path d="M11.7473 7.54007L10.7036 7.46583L10.2027 7.45985L10.6983 7.50561L11.7473 7.54007Z" fill="#000088"/>
<path d="M10.7565 5.91494C10.7739 5.86742 10.7493 5.81478 10.7017 5.79735C10.6541 5.77992 10.6015 5.80431 10.5841 5.85183C10.5668 5.89935 10.5913 5.95199 10.6389 5.96942C10.6866 5.98685 10.7392 5.96246 10.7565 5.91494Z" fill="#000088"/>
<path d="M11.6946 7.94123L10.686 7.61566L10.189 7.56342L10.6633 7.75493L11.6946 7.94123Z" fill="#000088"/>
<path d="M11.1383 6.16571C11.168 6.12566 11.1596 6.06916 11.1196 6.03952C11.0796 6.00987 11.0231 6.0183 10.9935 6.05835C10.9638 6.09839 10.9721 6.15489 11.0121 6.18454C11.0521 6.21418 11.1086 6.20575 11.1383 6.16571Z" fill="#000088"/>
<path d="M11.5169 8.37289L10.6345 7.7967L10.1719 7.60224L10.5771 7.90497L11.5169 8.37289Z" fill="#000088"/>
<path d="M11.4446 6.5057C11.4835 6.47489 11.4901 6.41839 11.4594 6.37951C11.4286 6.34062 11.3721 6.33407 11.3332 6.36487C11.2942 6.39568 11.2876 6.45218 11.3184 6.49107C11.3492 6.52995 11.4057 6.5365 11.4446 6.5057Z" fill="#000088"/>
<path d="M11.2388 8.73617L10.5357 7.95177L10.1402 7.64287L10.4534 8.03933L11.2388 8.73617Z" fill="#000088"/>
<path d="M11.6525 6.91328C11.6979 6.8938 11.719 6.84115 11.6995 6.79569C11.68 6.75023 11.6273 6.72917 11.5819 6.74866C11.5364 6.76814 11.5154 6.82079 11.5349 6.86625C11.5544 6.91171 11.607 6.93277 11.6525 6.91328Z" fill="#000088"/>
<path d="M10.8764 9.01479L10.4002 8.07576L10.0987 7.67412L10.299 8.13743L10.8764 9.01479Z" fill="#000088"/>
<path d="M11.7477 7.36063C11.7966 7.35371 11.8306 7.3085 11.8236 7.25966C11.8167 7.21081 11.7715 7.17683 11.7226 7.18375C11.6738 7.19068 11.6398 7.23589 11.6468 7.28473C11.6537 7.33357 11.6989 7.36756 11.7477 7.36063Z" fill="#000088"/>
<path d="M10.4545 9.1898L10.2371 8.16024L10.0503 7.69366L10.1242 8.19234L10.4545 9.1898Z" fill="#000088"/>
</g>
<defs>
<clipPath id="clip0_14_360">
<rect width="20" height="15" fill="white"/>
</clipPath>
</defs>
</svg>
