<svg width="20" height="15" viewBox="0 0 20 15" fill="none" xmlns="http://www.w3.org/2000/svg">
<g clip-path="url(#clip0_14_384)">
<path d="M0 5H20V10H0V5Z" fill="white"/>
<path d="M0 0H20V5H0V0Z" fill="#CE1126"/>
<path d="M0 10H20V15H0V10Z" fill="black"/>
<path d="M12.2161 6.58172C12.1876 6.56804 12.1617 6.54951 12.1395 6.52698C12.1231 6.4996 12.134 6.4996 12.2052 6.51603C12.3311 6.55435 12.4132 6.53792 12.4953 6.47223L12.5665 6.41201L12.6486 6.45033C12.6979 6.47771 12.7472 6.49413 12.7581 6.48865C12.7964 6.47771 12.8731 6.37917 12.8676 6.34632C12.8676 6.308 12.9004 6.31895 12.9223 6.36274C12.9552 6.45033 12.9059 6.55435 12.8129 6.57625C12.7745 6.58719 12.7362 6.58172 12.6705 6.55982C12.5939 6.53245 12.5775 6.53245 12.5391 6.55982C12.4933 6.59449 12.4383 6.61502 12.3809 6.61891C12.3235 6.6228 12.2663 6.60988 12.2161 6.58172ZM12.5337 6.29157C12.4966 6.22462 12.4777 6.14912 12.4789 6.0726C12.4844 6.03975 12.4953 6.0288 12.5227 6.03975C12.5775 6.05617 12.5884 6.09449 12.5775 6.20398C12.5775 6.30252 12.561 6.3299 12.5337 6.29157ZM8.83294 6.18756C8.82747 6.25873 8.96433 6.43938 9.02455 6.47223C8.98075 6.48865 8.93148 6.48318 8.89316 6.4996C8.67418 6.71858 7.88586 7.485 7.74353 7.67113C8.17053 7.68208 8.64134 7.66566 9.04097 7.64923C9.04097 7.35909 9.31469 7.34267 9.50082 7.23865C9.59389 7.38646 9.82929 7.37551 9.86214 7.59997V8.56347H6.22163C6.20786 8.63652 6.17891 8.70587 6.13664 8.76703C6.09437 8.82819 6.03973 8.87979 5.97626 8.91849C5.91278 8.95719 5.84189 8.98214 5.76817 8.99171C5.69444 9.00128 5.61953 8.99526 5.54828 8.97405C5.65777 8.86456 5.8439 8.82076 5.90959 8.66201C5.96434 8.31164 5.8001 8.09814 5.69061 7.89558C5.82833 7.85143 5.95781 7.78484 6.07383 7.69851C5.94791 8.08172 6.41324 8.04339 6.75266 8.03245C6.7636 7.90106 6.75813 7.74778 6.65959 7.72588C6.7855 7.67661 6.8074 7.66018 7.0209 7.485V8.01055L9.54462 8.00507C9.54462 7.84084 9.58841 7.57259 9.45703 7.57259C9.33659 7.57259 9.45703 7.91201 9.35849 7.91201H7.40411V7.58354C7.48623 7.49595 7.47528 7.50142 8.03915 6.93756C8.09389 6.88281 8.49353 6.5215 8.83842 6.18756H8.83294ZM13.7107 6.17114C13.8475 6.24778 13.957 6.34632 14.1212 6.39011C14.1048 6.46128 14.0391 6.48865 14.0227 6.55982V8.03792C14.2088 8.07624 14.2526 7.96675 14.3402 7.91201C14.3621 8.14741 14.5154 8.37734 14.5045 8.56894H13.7107V6.17661V6.17114ZM12.6486 6.96493C12.6486 6.96493 12.9388 6.71858 12.9388 6.70763V7.99412H13.1468L13.1413 6.55435C13.2234 6.46676 13.3931 6.34632 13.4315 6.25873V8.55799H11.603C11.5756 8.08172 11.5702 7.58902 12.1286 7.69303V7.50143C12.1121 7.46858 12.0793 7.5069 12.0738 7.4631C12.1614 7.37551 12.1888 7.35362 12.4296 7.14559L12.4351 7.99412H12.6486V6.96493ZM11.9588 7.98318C11.9972 8.03792 12.134 8.03792 12.1231 7.93938C12.1067 7.85726 11.9315 7.88464 11.9588 7.98318Z" fill="#007A3D"/>
<path d="M6.6596 8.94664C6.72007 8.94664 6.76909 8.89762 6.76909 8.83715C6.76909 8.77668 6.72007 8.72766 6.6596 8.72766C6.59913 8.72766 6.55011 8.77668 6.55011 8.83715C6.55011 8.89762 6.59913 8.94664 6.6596 8.94664Z" fill="#007A3D"/>
<path d="M10.1085 6.17664C10.2453 6.2478 10.3548 6.35182 10.5245 6.39561C10.5026 6.46131 10.4424 6.48868 10.426 6.55985V8.03794C10.6121 8.07627 10.6504 7.97225 10.738 7.91203C10.7654 8.14743 10.9132 8.38283 10.9077 8.56896H10.1085V6.17664Z" fill="#007A3D"/>
</g>
<defs>
<clipPath id="clip0_14_384">
<rect width="20" height="15" fill="white"/>
</clipPath>
</defs>
</svg>
