<svg width="20" height="15" viewBox="0 0 20 15" fill="none" xmlns="http://www.w3.org/2000/svg">
<mask id="mask0_1825_42466" style="mask-type:luminance" maskUnits="userSpaceOnUse" x="0" y="0" width="20" height="15">
<rect width="20" height="15" fill="white"/>
</mask>
<g mask="url(#mask0_1825_42466)">
<path fill-rule="evenodd" clip-rule="evenodd" d="M0 0V15H20V0H0Z" fill="#F7FCFF"/>
<mask id="mask1_1825_42466" style="mask-type:luminance" maskUnits="userSpaceOnUse" x="0" y="0" width="20" height="15">
<path fill-rule="evenodd" clip-rule="evenodd" d="M0 0V15H20V0H0Z" fill="white"/>
</mask>
<g mask="url(#mask1_1825_42466)">
<path fill-rule="evenodd" clip-rule="evenodd" d="M0 0V5H20V0H0Z" fill="#5EAA22"/>
<path fill-rule="evenodd" clip-rule="evenodd" d="M0 10V15H20V10H0Z" fill="#E31D1C"/>
<path d="M0.232805 10.8544H-1.18848" stroke="#F7FCFF" stroke-width="0.625"/>
<path d="M-1.20312 11.4171V11.0908H-0.740458V11.4061H-0.272941V11.0912H-0.515496" stroke="#F7FCFF" stroke-width="0.625"/>
<path d="M0.211172 11.4039H-0.0244141V11.0977H0.471605V10.8469V11.4039H0.696065V10.8469" stroke="#F7FCFF" stroke-width="0.625"/>
<path d="M0.94881 10.88C0.94881 10.9108 0.94881 11.4062 0.94881 11.4062H0.71582" stroke="#F7FCFF" stroke-width="0.625"/>
<path d="M2.67177 10.8544H1.25049" stroke="#F7FCFF" stroke-width="0.625"/>
<path d="M1.23584 11.4171V11.0908H1.69851V11.4061H2.16602V11.0912H1.92347" stroke="#F7FCFF" stroke-width="0.625"/>
<path d="M2.69359 11.4039H2.45801V11.0977H2.95403V10.8469V11.4039H3.17849V10.8469" stroke="#F7FCFF" stroke-width="0.625"/>
<path d="M3.43123 10.88C3.43123 10.9108 3.43123 11.4062 3.43123 11.4062H3.19824" stroke="#F7FCFF" stroke-width="0.625"/>
<path d="M5.15419 10.8544H3.73291" stroke="#F7FCFF" stroke-width="0.625"/>
<path d="M3.71826 11.4171V11.0908H4.18093V11.4061H4.64845V11.0912H4.40589" stroke="#F7FCFF" stroke-width="0.625"/>
<path d="M5.13305 11.4039H4.89746V11.0977H5.39348V10.8469V11.4039H5.61794V10.8469" stroke="#F7FCFF" stroke-width="0.625"/>
<path d="M5.87069 10.88C5.87069 10.9108 5.87069 11.4062 5.87069 11.4062H5.6377" stroke="#F7FCFF" stroke-width="0.625"/>
<path d="M7.59364 10.8544H6.17236" stroke="#F7FCFF" stroke-width="0.625"/>
<path d="M6.15771 11.4171V11.0908H6.62038V11.4061H7.0879V11.0912H6.84534" stroke="#F7FCFF" stroke-width="0.625"/>
<path d="M7.57201 11.4039H7.33643V11.0977H7.83244V10.8469V11.4039H8.0569V10.8469" stroke="#F7FCFF" stroke-width="0.625"/>
<path d="M8.30965 10.88C8.30965 10.9108 8.30965 11.4062 8.30965 11.4062H8.07666" stroke="#F7FCFF" stroke-width="0.625"/>
<path d="M10.0326 10.8544H8.61133" stroke="#F7FCFF" stroke-width="0.625"/>
<path d="M8.59668 11.4171V11.0908H9.05935V11.4061H9.52686V11.0912H9.28431" stroke="#F7FCFF" stroke-width="0.625"/>
<path d="M10.0544 11.4039H9.81885V11.0977H10.3149V10.8469V11.4039H10.5393V10.8469" stroke="#F7FCFF" stroke-width="0.625"/>
<path d="M10.7921 10.88C10.7921 10.9108 10.7921 11.4062 10.7921 11.4062H10.5591" stroke="#F7FCFF" stroke-width="0.625"/>
<path d="M12.515 10.8544H11.0938" stroke="#F7FCFF" stroke-width="0.625"/>
<path d="M11.0791 11.4171V11.0908H11.5418V11.4061H12.0093V11.0912H11.7667" stroke="#F7FCFF" stroke-width="0.625"/>
<path d="M12.5369 11.4039H12.3013V11.0977H12.7973V10.8469V11.4039H13.0217V10.8469" stroke="#F7FCFF" stroke-width="0.625"/>
<path d="M13.2745 10.88C13.2745 10.9108 13.2745 11.4062 13.2745 11.4062H13.0415" stroke="#F7FCFF" stroke-width="0.625"/>
<path d="M14.9975 10.8544H13.5762" stroke="#F7FCFF" stroke-width="0.625"/>
<path d="M13.5615 11.4171V11.0908H14.0242V11.4061H14.4917V11.0912H14.2492" stroke="#F7FCFF" stroke-width="0.625"/>
<path d="M15.0198 11.4039H14.7842V11.0977H15.2802V10.8469V11.4039H15.5047V10.8469" stroke="#F7FCFF" stroke-width="0.625"/>
<path d="M15.7574 10.88C15.7574 10.9108 15.7574 11.4062 15.7574 11.4062H15.5244" stroke="#F7FCFF" stroke-width="0.625"/>
<path d="M17.4804 10.8544H16.0591" stroke="#F7FCFF" stroke-width="0.625"/>
<path d="M16.0444 11.4171V11.0908H16.5071V11.4061H16.9746V11.0912H16.7321" stroke="#F7FCFF" stroke-width="0.625"/>
<path d="M17.4587 11.4039H17.2231V11.0977H17.7192V10.8469V11.4039H17.9436V10.8469" stroke="#F7FCFF" stroke-width="0.625"/>
<path d="M18.1964 10.88C18.1964 10.9108 18.1964 11.4062 18.1964 11.4062H17.9634" stroke="#F7FCFF" stroke-width="0.625"/>
<path d="M19.9193 10.8544H18.498" stroke="#F7FCFF" stroke-width="0.625"/>
<path d="M18.4834 11.4171V11.0908H18.9461V11.4061H19.4136V11.0912H19.171" stroke="#F7FCFF" stroke-width="0.625"/>
<path d="M20.0281 11.4039H19.7925V11.0977H20.2885V10.8469V11.4039H20.513V10.8469" stroke="#F7FCFF" stroke-width="0.625"/>
<path d="M0.232805 3.22937H-1.18848" stroke="#F7FCFF" stroke-width="0.625"/>
<path d="M-1.20312 3.79207V3.46582H-0.740458V3.78112H-0.272941V3.46617H-0.515496" stroke="#F7FCFF" stroke-width="0.625"/>
<path d="M0.211172 3.77886H-0.0244141V3.47271H0.471605V3.22192V3.77886H0.696065V3.22192" stroke="#F7FCFF" stroke-width="0.625"/>
<path d="M0.94881 3.255C0.94881 3.28579 0.94881 3.78116 0.94881 3.78116H0.71582" stroke="#F7FCFF" stroke-width="0.625"/>
<path d="M2.67177 3.22937H1.25049" stroke="#F7FCFF" stroke-width="0.625"/>
<path d="M1.23584 3.79207V3.46582H1.69851V3.78112H2.16602V3.46617H1.92347" stroke="#F7FCFF" stroke-width="0.625"/>
<path d="M2.69359 3.77886H2.45801V3.47271H2.95403V3.22192V3.77886H3.17849V3.22192" stroke="#F7FCFF" stroke-width="0.625"/>
<path d="M3.43123 3.255C3.43123 3.28579 3.43123 3.78116 3.43123 3.78116H3.19824" stroke="#F7FCFF" stroke-width="0.625"/>
<path d="M5.15419 3.22937H3.73291" stroke="#F7FCFF" stroke-width="0.625"/>
<path d="M3.71826 3.79207V3.46582H4.18093V3.78112H4.64845V3.46617H4.40589" stroke="#F7FCFF" stroke-width="0.625"/>
<path d="M5.13305 3.77886H4.89746V3.47271H5.39348V3.22192V3.77886H5.61794V3.22192" stroke="#F7FCFF" stroke-width="0.625"/>
<path d="M5.87069 3.255C5.87069 3.28579 5.87069 3.78116 5.87069 3.78116H5.6377" stroke="#F7FCFF" stroke-width="0.625"/>
<path d="M7.59364 3.22937H6.17236" stroke="#F7FCFF" stroke-width="0.625"/>
<path d="M6.15771 3.79207V3.46582H6.62038V3.78112H7.0879V3.46617H6.84534" stroke="#F7FCFF" stroke-width="0.625"/>
<path d="M7.57201 3.77886H7.33643V3.47271H7.83244V3.22192V3.77886H8.0569V3.22192" stroke="#F7FCFF" stroke-width="0.625"/>
<path d="M8.30965 3.255C8.30965 3.28579 8.30965 3.78116 8.30965 3.78116H8.07666" stroke="#F7FCFF" stroke-width="0.625"/>
<path d="M10.0326 3.22937H8.61133" stroke="#F7FCFF" stroke-width="0.625"/>
<path d="M8.59668 3.79207V3.46582H9.05935V3.78112H9.52686V3.46617H9.28431" stroke="#F7FCFF" stroke-width="0.625"/>
<path d="M10.0544 3.77886H9.81885V3.47271H10.3149V3.22192V3.77886H10.5393V3.22192" stroke="#F7FCFF" stroke-width="0.625"/>
<path d="M10.7921 3.255C10.7921 3.28579 10.7921 3.78116 10.7921 3.78116H10.5591" stroke="#F7FCFF" stroke-width="0.625"/>
<path d="M12.515 3.22937H11.0938" stroke="#F7FCFF" stroke-width="0.625"/>
<path d="M11.0791 3.79207V3.46582H11.5418V3.78112H12.0093V3.46617H11.7667" stroke="#F7FCFF" stroke-width="0.625"/>
<path d="M12.5369 3.77886H12.3013V3.47271H12.7973V3.22192V3.77886H13.0217V3.22192" stroke="#F7FCFF" stroke-width="0.625"/>
<path d="M13.2745 3.255C13.2745 3.28579 13.2745 3.78116 13.2745 3.78116H13.0415" stroke="#F7FCFF" stroke-width="0.625"/>
<path d="M14.9975 3.22937H13.5762" stroke="#F7FCFF" stroke-width="0.625"/>
<path d="M13.5615 3.79207V3.46582H14.0242V3.78112H14.4917V3.46617H14.2492" stroke="#F7FCFF" stroke-width="0.625"/>
<path d="M15.0198 3.77886H14.7842V3.47271H15.2802V3.22192V3.77886H15.5047V3.22192" stroke="#F7FCFF" stroke-width="0.625"/>
<path d="M15.7574 3.255C15.7574 3.28579 15.7574 3.78116 15.7574 3.78116H15.5244" stroke="#F7FCFF" stroke-width="0.625"/>
<path d="M17.4804 3.22937H16.0591" stroke="#F7FCFF" stroke-width="0.625"/>
<path d="M16.0444 3.79207V3.46582H16.5071V3.78112H16.9746V3.46617H16.7321" stroke="#F7FCFF" stroke-width="0.625"/>
<path d="M17.4587 3.77886H17.2231V3.47271H17.7192V3.22192V3.77886H17.9436V3.22192" stroke="#F7FCFF" stroke-width="0.625"/>
<path d="M18.1964 3.255C18.1964 3.28579 18.1964 3.78116 18.1964 3.78116H17.9634" stroke="#F7FCFF" stroke-width="0.625"/>
<path d="M19.9193 3.22937H18.498" stroke="#F7FCFF" stroke-width="0.625"/>
<path d="M18.4834 3.79207V3.46582H18.9461V3.78112H19.4136V3.46617H19.171" stroke="#F7FCFF" stroke-width="0.625"/>
<path d="M20.0281 3.77886H19.7925V3.47271H20.2885V3.22192V3.77886H20.513V3.22192" stroke="#F7FCFF" stroke-width="0.625"/>
<path fill-rule="evenodd" clip-rule="evenodd" d="M9.12884 5.15625C9.12884 5.15625 9.39592 5.29688 9.66928 5.29688C9.94264 5.29688 10.2177 5.15625 10.2177 5.15625V5.34375C10.2177 5.34375 9.91742 5.48438 9.65148 5.48438C9.38555 5.48438 9.12884 5.34375 9.12884 5.34375V5.15625ZM7.16016 7.36913C7.16016 6.25788 8.6864 5.53125 8.6864 5.53125C8.6864 5.53125 7.80426 6.00388 7.80426 7.32256C7.80426 8.64123 8.2622 9.21229 8.2622 9.21229C8.2622 9.21229 7.16016 8.48038 7.16016 7.36913ZM12.3087 7.3078C12.3087 6.19655 10.7839 5.53125 10.7839 5.53125C10.7839 5.53125 11.666 6.00388 11.666 7.32256C11.666 8.64123 11.2081 9.21229 11.2081 9.21229C11.2081 9.21229 12.3087 8.41905 12.3087 7.3078ZM8.2021 7.61099C8.14394 6.50126 9.06711 5.50658 9.06711 5.50658C9.06711 5.50658 8.7311 5.96365 8.80012 7.28052C8.82381 7.73267 9.00191 8.40538 9.22629 8.80199V5.57812H10.1638V8.82995C10.3885 8.45948 10.5616 7.82785 10.5856 7.36913C10.6546 6.05226 10.3348 5.50658 10.3348 5.50658C10.3348 5.50658 11.2579 6.50126 11.1998 7.61099C11.1651 8.27191 10.6566 8.97089 10.2509 9.42817C10.448 9.47212 10.7122 9.52571 11.0754 9.59742C11.0832 9.6376 11.0023 9.63573 10.8414 9.63204C10.6639 9.62795 10.3889 9.62163 10.0284 9.66718C9.86269 9.83705 9.74734 9.93774 9.74734 9.93774C9.74734 9.93774 9.7291 9.9131 9.70093 9.87902C9.67276 9.9131 9.65452 9.93774 9.65452 9.93774C9.65452 9.93774 9.53917 9.83705 9.37344 9.66719C9.01295 9.62163 8.73799 9.62795 8.56043 9.63204C8.39961 9.63573 8.31867 9.6376 8.32642 9.59742C8.68963 9.52571 8.95386 9.47212 9.15099 9.42817C8.7453 8.97089 8.23674 8.27191 8.2021 7.61099Z" fill="#E31D1C"/>
</g>
</g>
</svg>
