<svg width="20" height="15" viewBox="0 0 20 15" fill="none" xmlns="http://www.w3.org/2000/svg">
<mask id="mask0_1825_42816" style="mask-type:luminance" maskUnits="userSpaceOnUse" x="0" y="0" width="20" height="15">
<rect width="20" height="15" fill="white"/>
</mask>
<g mask="url(#mask0_1825_42816)">
<path fill-rule="evenodd" clip-rule="evenodd" d="M0 0V5H20V0H0Z" fill="#272727"/>
<path fill-rule="evenodd" clip-rule="evenodd" d="M0 10V15H20V10H0Z" fill="#4E8B1D"/>
<path d="M0 4.375H-0.625V5V10V10.625H0H20H20.625V10V5V4.375H20H0Z" fill="#E31D1C" stroke="#F7FCFF" stroke-width="1.25"/>
</g>
<path d="M11.8115 2.41831C11.9257 2.17187 12.2327 1.90276 12.7325 1.61098C12.7497 1.60095 12.7704 1.60038 12.7881 1.60944C12.8179 1.62477 12.8303 1.6627 12.8156 1.69406L7.63683 12.871L7.36719 12.7325L11.9322 2.88017C11.7255 2.84473 11.6853 2.69077 11.8115 2.41831Z" fill="white"/>
<path d="M8.18264 2.41831C8.30889 2.69077 8.26865 2.84473 8.06193 2.88017L12.627 12.7325L12.3573 12.871L7.17857 1.69406C7.16384 1.6627 7.17624 1.62477 7.20612 1.60944C7.22377 1.60038 7.24451 1.60095 7.26168 1.61098C7.76147 1.90276 8.06846 2.17187 8.18264 2.41831Z" fill="white"/>
<path fill-rule="evenodd" clip-rule="evenodd" d="M10 12.5684C10.598 12.5684 13 10.3063 13 7.51577C13 4.72527 10.598 2.46313 10 2.46313C9.40197 2.46313 7 4.72527 7 7.51577C7 10.3063 9.40197 12.5684 10 12.5684Z" fill="#E31D1C"/>
<mask id="mask1_1825_42816" style="mask-type:luminance" maskUnits="userSpaceOnUse" x="7" y="2" width="6" height="11">
<path fill-rule="evenodd" clip-rule="evenodd" d="M10 12.5684C10.598 12.5684 13 10.3063 13 7.51577C13 4.72527 10.598 2.46313 10 2.46313C9.40197 2.46313 7 4.72527 7 7.51577C7 10.3063 9.40197 12.5684 10 12.5684Z" fill="white"/>
</mask>
<g mask="url(#mask1_1825_42816)">
<path d="M4.3001 11.9368C6.61969 11.9368 8.5001 9.95746 8.5001 7.51578C8.5001 5.0741 6.61969 3.09473 4.3001 3.09473C1.9805 3.09473 0.100098 5.0741 0.100098 7.51578C0.100098 9.95746 1.9805 11.9368 4.3001 11.9368Z" fill="#272727"/>
<path d="M15.7 11.9368C18.0196 11.9368 19.9 9.95746 19.9 7.51578C19.9 5.0741 18.0196 3.09473 15.7 3.09473C13.3804 3.09473 11.5 5.0741 11.5 7.51578C11.5 9.95746 13.3804 11.9368 15.7 11.9368Z" fill="#272727"/>
<path fill-rule="evenodd" clip-rule="evenodd" d="M10.1199 6.84006C10.3938 6.63525 10.5999 5.74319 10.5999 4.67375C10.5999 3.60432 10.3938 2.71226 10.1199 2.50745V6.84006ZM9.8199 6.78308C9.57648 6.5014 9.3999 5.66355 9.3999 4.67375C9.3999 3.68396 9.57648 2.84611 9.8199 2.56443V6.78308ZM9.8199 8.24864V12.4673C9.57648 12.1856 9.3999 11.3478 9.3999 10.358C9.3999 9.36817 9.57648 8.53032 9.8199 8.24864ZM10.1199 12.5243V8.19166C10.3938 8.39647 10.5999 9.28853 10.5999 10.358C10.5999 11.4274 10.3938 12.3195 10.1199 12.5243Z" fill="#F7FCFF"/>
<path d="M9.9999 6.88418C10.3313 6.88418 10.5999 7.16695 10.5999 7.51576C10.5999 7.86457 10.3313 8.14734 9.9999 8.14734C9.66853 8.14734 9.3999 7.86457 9.3999 7.51576C9.3999 7.16695 9.66853 6.88418 9.9999 6.88418Z" fill="#F7FCFF"/>
</g>
</svg>
