<svg width="20" height="15" viewBox="0 0 20 15" fill="none" xmlns="http://www.w3.org/2000/svg">
<g clip-path="url(#clip0_14_476)">
<path d="M0 0H20V15H0V0Z" fill="#032EA1"/>
<path d="M0 3.75H20V11.25H0V3.75Z" fill="#E00025"/>
<path d="M7.88745 7.06873H12.155V8.71123H7.88745V7.06873Z" fill="white" stroke="black" stroke-width="0.06" stroke-linejoin="bevel"/>
<path d="M11.9375 7.9725H12.0687V8.59125H11.9375V7.9725ZM7.88745 7.66875H12.155V7.85625H7.88745V7.66875ZM7.88745 7.40625H12.155V7.57875H7.88745V7.40625Z" fill="white" stroke="black" stroke-width="0.06" stroke-linejoin="bevel"/>
<path d="M7.88745 7.15125H12.155V7.31249H7.88745V7.15125Z" fill="white" stroke="black" stroke-width="0.054" stroke-linejoin="bevel"/>
<path d="M9.01255 7.97253H9.14755V8.59128H9.01255V7.97253ZM10.85 7.97253H10.985V8.59128H10.85V7.97253ZM7.92505 7.97253H8.0563V8.59128H7.92505V7.97253ZM8.18755 7.97253H8.3188V8.59128H8.18755V7.97253ZM8.4688 7.97253H8.60005V8.59128H8.4688V7.97253ZM8.75005 7.97253H8.8813V8.59128H8.75005V7.97253ZM11.105 7.97253H11.24V8.59128H11.105V7.97253ZM11.3863 7.97253H11.5213V8.59128H11.3863V7.97253ZM11.6675 7.97253H11.8025V8.59128H11.6675V7.97253Z" fill="white" stroke="black" stroke-width="0.06" stroke-linejoin="bevel"/>
<path d="M6.21875 8.79372C6.29716 8.75103 6.35622 8.6799 6.38375 8.59497H13.625C13.6525 8.6799 13.7116 8.75103 13.79 8.79372H6.21875Z" fill="white" stroke="black" stroke-width="0.06"/>
<path d="M9.91243 4.56753C9.91243 4.56753 9.90868 4.41378 9.99868 4.41003C10.0849 4.41003 10.0812 4.56753 10.0812 4.56753H9.91243ZM9.44368 6.61128V6.40503C9.44368 6.30003 9.33868 6.29253 9.33868 6.21753C9.33868 6.21753 9.32368 6.10504 9.35368 6.05254C9.39493 6.20254 9.46618 6.17629 9.46618 6.11254C9.46618 6.06004 9.42868 6.00754 9.34243 5.87629C9.31243 5.83504 9.33118 5.70378 9.36868 5.65503C9.38368 5.76753 9.40243 5.82378 9.45118 5.82378C9.48118 5.82378 9.50368 5.80503 9.50368 5.74878C9.50368 5.67378 9.45493 5.63629 9.42868 5.56879C9.41575 5.53519 9.41277 5.49859 9.42008 5.46335C9.4274 5.4281 9.4447 5.39571 9.46993 5.37004C9.48868 5.48254 9.48493 5.52754 9.53368 5.52754C9.63493 5.49379 9.53368 5.34753 9.51118 5.31003C9.48868 5.26878 9.54868 5.18254 9.54868 5.18254C9.57868 5.28379 9.58618 5.29128 9.62368 5.28003C9.66868 5.26878 9.66118 5.20504 9.60868 5.15254C9.57493 5.11504 9.57868 5.06628 9.61618 5.02878C9.65368 5.10003 9.69868 5.09629 9.70243 5.05129L9.67243 4.88628H10.3249L10.2912 5.04753C10.2837 5.09253 10.3437 5.10378 10.3812 5.02878C10.4187 5.06628 10.4224 5.11879 10.3887 5.15254C10.3362 5.20504 10.3287 5.26878 10.3737 5.28003C10.4112 5.29128 10.4187 5.28004 10.4487 5.18254C10.4487 5.18254 10.5049 5.23878 10.4862 5.31003C10.4637 5.34753 10.3624 5.49754 10.4637 5.52754C10.5124 5.52754 10.5087 5.48254 10.5274 5.37004C10.552 5.39611 10.5686 5.4287 10.5753 5.46392C10.5819 5.49915 10.5783 5.53554 10.5649 5.56879C10.5424 5.63629 10.4899 5.67378 10.4899 5.74878C10.4899 5.80503 10.5162 5.82378 10.5462 5.82378C10.5949 5.82378 10.6137 5.77128 10.6287 5.65503C10.6662 5.70378 10.6849 5.83503 10.6549 5.88003C10.5687 6.00753 10.5274 6.06004 10.5274 6.11254C10.5274 6.17629 10.6024 6.20254 10.6399 6.05254C10.6737 6.10504 10.6587 6.21753 10.6587 6.21753C10.6587 6.29253 10.5574 6.30003 10.5537 6.40503V6.61128H9.44368ZM9.71368 4.88628L9.69868 4.77004H10.2949L10.2799 4.88628H9.71368ZM9.75118 4.76628L9.74368 4.67253H10.2499L10.2387 4.76628H9.75118ZM9.83743 4.66879L9.82618 4.57129H10.1637L10.1599 4.66879H9.83743ZM11.0749 8.79379C10.9999 8.76754 10.8874 8.68504 10.8874 8.60629V7.69504L10.9849 7.56753H9.01243L9.10618 7.69504V8.60629C9.10618 8.68504 9.03118 8.76754 8.95618 8.79379H11.0749Z" fill="white" stroke="black" stroke-width="0.06"/>
<path d="M9.35742 7.97253H9.49242V8.59128H9.35742V7.97253ZM10.4974 7.97253H10.6324V8.59128H10.4974V7.97253Z" fill="white" stroke="black" stroke-width="0.06" stroke-linejoin="bevel"/>
<path d="M8.97494 6.53259V7.56759H10.9999V6.53259C10.9765 6.54114 10.9555 6.55511 10.9386 6.57336C10.9216 6.59162 10.9092 6.61363 10.9024 6.63759V7.08009H9.07619V6.63759C9.07619 6.63759 9.05369 6.56259 8.97119 6.53259H8.97494Z" fill="white" stroke="black" stroke-width="0.06"/>
<path d="M10.7225 8.79374C10.655 8.76749 10.5125 8.68499 10.5125 8.60624V7.58624C10.5275 7.52999 10.6025 7.49624 10.6512 7.45874H9.31245C9.3762 7.49624 9.44745 7.52249 9.4737 7.58624V8.60624C9.4737 8.68499 9.3612 8.76749 9.2937 8.79374H10.7225Z" fill="white" stroke="black" stroke-width="0.06"/>
<path d="M10.9024 7.47007V6.73507H10.7187V6.66382H9.26367V6.73882H9.07617V7.47007H10.9024ZM10.4374 8.79382C10.3699 8.76757 10.2762 8.68507 10.2762 8.60632V7.73632L10.3287 7.65757H9.66492L9.72117 7.73257V8.60632C9.72117 8.68507 9.62367 8.76757 9.55992 8.79382H10.4374Z" fill="white" stroke="black" stroke-width="0.06"/>
<path d="M9.82617 7.65759H10.1637V8.79384H9.82617V7.65759Z" fill="white" stroke="black" stroke-width="0.06"/>
<path d="M10.3399 7.40629C10.3399 7.33129 10.5574 7.32754 10.6699 7.26379H9.31995C9.43245 7.32754 9.6462 7.33129 9.6462 7.40629L9.6912 7.55254L10.2537 7.57504L10.3399 7.40629Z" fill="white" stroke="black" stroke-width="0.06" stroke-linejoin="bevel"/>
<path d="M10.6025 6.61133C10.6025 6.42758 10.61 6.36008 10.6662 6.36008V6.93758C10.5275 6.99008 10.43 7.16258 10.43 7.16258H9.55998C9.55998 7.16258 9.46248 6.99008 9.32373 6.93758V6.35633C9.39123 6.35633 9.39123 6.43133 9.39123 6.60758L10.6025 6.61133ZM10.6662 6.53633C10.6662 6.32633 10.85 6.30383 10.85 6.30383V6.49133C10.7787 6.48758 10.745 6.55133 10.745 6.64133C10.745 6.73508 10.8012 6.73508 10.8012 6.73508V7.26758H10.6662V6.53633Z" fill="white" stroke="black" stroke-width="0.06"/>
<path d="M9.32376 6.53633C9.32376 6.32633 9.14001 6.30383 9.14001 6.30383V6.49133C9.21126 6.48758 9.24501 6.55133 9.24501 6.64133C9.24501 6.73508 9.18876 6.73508 9.18876 6.73508V7.26758H9.32376V6.53633Z" fill="white" stroke="black" stroke-width="0.06"/>
<path d="M9.67993 5.08508H10.3249M9.60493 5.28758H10.3924M9.52993 5.53133H10.4637M9.45118 5.82758H10.5574M9.42493 6.16508H10.5649" stroke="black" stroke-width="0.048"/>
<path d="M9.07996 7.27502H10.9025M9.65746 7.27502H10.3325V7.52252H9.65746V7.27502Z" stroke="black" stroke-width="0.06"/>
<path d="M9.57495 6.72009C9.68745 6.85509 9.67245 7.08384 9.67245 7.21884H10.325C10.325 7.08384 10.31 6.85509 10.4225 6.72009H9.57495ZM9.9387 5.18259L9.8487 5.13384V5.00259C9.8862 5.01384 9.9237 5.01759 9.9312 5.07759C9.94245 4.99134 9.9687 4.99884 10.0025 4.96509C10.04 4.99884 10.0587 4.99134 10.0737 5.07759C10.0737 5.01759 10.1187 5.01384 10.1525 5.00259V5.13384L10.0662 5.17884L9.9387 5.18259Z" fill="white" stroke="black" stroke-width="0.06"/>
<path d="M9.93125 5.3963L9.78125 5.2913V5.17505C9.8375 5.1863 9.89375 5.1938 9.90125 5.25755C9.91625 5.1638 9.95 5.1188 10.0025 5.0813C10.0512 5.1188 10.085 5.1638 10.1038 5.25755C10.1075 5.1938 10.1675 5.1863 10.2163 5.17505V5.29505L10.07 5.3963H9.93125Z" fill="white" stroke="black" stroke-width="0.06"/>
<path d="M9.91992 5.73001L9.75117 5.58001V5.40376C9.81117 5.41876 9.87867 5.42626 9.88617 5.52001C9.90492 5.38876 9.94242 5.31751 9.99867 5.26501C10.0587 5.31751 10.0962 5.38876 10.1187 5.52001C10.1262 5.42626 10.1937 5.41876 10.2537 5.40376V5.58001L10.0812 5.73001H9.91992ZM10.2349 5.92876L10.0849 6.14251H9.90867L9.75492 5.92876H10.2349ZM9.66492 6.28501C9.73992 6.32626 9.76992 6.41251 9.77742 6.57001H10.2124C10.2199 6.41251 10.2499 6.32626 10.3249 6.28501H9.66492Z" fill="white" stroke="black" stroke-width="0.06"/>
<path d="M10.3325 5.92502V5.71502C10.3002 5.7219 10.2702 5.73686 10.2453 5.75851C10.2203 5.78015 10.2013 5.80777 10.19 5.83877C10.19 5.76377 10.0962 5.60252 9.99497 5.52002C9.89372 5.61002 9.79622 5.76002 9.79997 5.83502C9.78122 5.77877 9.73247 5.73377 9.65747 5.71502V5.92877L10.3325 5.92502Z" fill="white" stroke="black" stroke-width="0.06" stroke-linejoin="bevel"/>
<path d="M10.3624 6.285V6.07501C10.2837 6.09751 10.2312 6.13875 10.2087 6.19875C10.2087 6.12375 10.1074 5.9625 9.99494 5.88C9.88244 5.97375 9.77744 6.12 9.78119 6.19875C9.76244 6.1425 9.70619 6.09751 9.62744 6.07501V6.28876L10.3624 6.285Z" fill="white" stroke="black" stroke-width="0.06" stroke-linejoin="bevel"/>
<path d="M10.4524 6.72378V6.47628C10.3744 6.50067 10.3069 6.55093 10.2612 6.61878C10.2612 6.48753 10.1112 6.28128 9.99494 6.21753C9.87494 6.28503 9.72869 6.49503 9.72869 6.61878C9.68182 6.55046 9.61302 6.50019 9.53369 6.47628V6.72378H10.4524Z" fill="white" stroke="black" stroke-width="0.06" stroke-linejoin="bevel"/>
<path d="M10.4 7.27503V7.02003C10.31 7.05378 10.2875 7.13628 10.2575 7.19628C10.2687 6.93753 10.115 6.66378 9.99497 6.59253C9.87497 6.66378 9.71747 6.94503 9.73247 7.19253C9.70247 7.14003 9.67622 7.05378 9.58997 7.02003V7.27128L10.4 7.27503Z" fill="white" stroke="black" stroke-width="0.06" stroke-linejoin="bevel"/>
<path d="M10.34 7.65755V7.40256C10.2463 7.42506 10.2425 7.45881 10.2125 7.51506C10.2238 7.36131 10.115 7.18505 9.99502 7.11755C9.87502 7.18505 9.77002 7.36131 9.77752 7.51506C9.74752 7.45881 9.74377 7.42506 9.65002 7.40256V7.65755H10.34Z" fill="white" stroke="black" stroke-width="0.06"/>
<path d="M6.38747 8.59501V7.83001C6.36122 7.73251 6.27497 7.64251 6.21497 7.62751V6.95251L6.35372 7.02751L6.51497 7.73626V8.59876L6.38747 8.59501Z" fill="white" stroke="black" stroke-width="0.06"/>
<path d="M6.38747 8.59884V7.83009C6.36122 7.73259 6.27497 7.64259 6.21497 7.62759V6.90759C6.30872 6.90759 6.35372 7.02759 6.35372 7.02759L6.51497 7.73634V8.59509L6.38747 8.59884Z" fill="white" stroke="black" stroke-width="0.06"/>
<path d="M6.28625 8.79379C6.35 8.76754 6.44375 8.68504 6.44375 8.60629V7.64629L6.39875 7.57129H8.0375L7.97375 7.64629V8.60629C7.97651 8.64603 7.98976 8.68433 8.01216 8.71727C8.03456 8.75022 8.06531 8.77662 8.10125 8.79379H6.28625Z" fill="white" stroke="black" stroke-width="0.06"/>
<path d="M7.76743 8.79376C7.70368 8.76751 7.60993 8.68501 7.60993 8.60626V7.69501L7.74493 7.5675H6.63493L6.76993 7.69501V8.60626C6.76993 8.68501 6.67618 8.76751 6.61243 8.79376H7.76743Z" fill="white" stroke="black" stroke-width="0.06"/>
<path d="M7.61374 8.79384C7.54999 8.76759 7.45249 8.68509 7.45249 8.60634V7.78134L7.54249 7.65759H6.83749L6.92749 7.78134V8.60634C6.92749 8.68509 6.83374 8.76759 6.76624 8.79384H7.61374Z" fill="white" stroke="black" stroke-width="0.06"/>
<path d="M7.02499 7.65759H7.35874V8.79759H7.02124L7.02499 7.65759Z" fill="white" stroke="black" stroke-width="0.06"/>
<path d="M6.56376 7.97256H6.69876V8.59131H6.56376V7.97256ZM7.71876 7.97256H7.85001V8.59131H7.71501L7.71876 7.97256ZM6.44751 6.93006H6.61251V7.56756H6.44751V6.93006ZM6.44751 6.81006H6.60876V6.93006H6.44751V6.81006ZM7.78251 7.06881H8.01126V7.55631H7.78251V7.06881Z" fill="white"/>
<path d="M6.44751 6.93006H6.61251V7.56756H6.44751V6.93006ZM6.44751 6.93006H6.60876V6.81006H6.44751V6.93006ZM6.56376 7.97256H6.69876V8.59131H6.56376V7.97256ZM7.71876 7.97256H7.85001V8.59131H7.71501L7.71876 7.97256ZM7.78251 7.06881H8.01126V7.55631H7.78251V7.06881Z" stroke="black" stroke-width="0.06" stroke-linejoin="bevel"/>
<path d="M6.60873 7.56006V6.47256C6.65373 6.47256 6.66123 6.63381 6.76623 6.63381C6.82248 6.63381 6.81873 6.56631 6.78498 6.51381C6.75873 6.46506 6.72498 6.40131 6.76998 6.27756C6.80373 6.37131 6.88623 6.40131 6.87123 6.34506C6.84498 6.24381 6.76623 6.22506 6.82623 6.07131C6.84498 6.19881 6.92748 6.19506 6.90873 6.12006C6.88623 6.03381 6.83748 5.99631 6.89748 5.87631C6.93123 6.01506 6.97248 6.00756 6.97248 5.92131C6.97248 5.79381 6.97248 5.65881 7.12998 5.61006C7.12998 5.61006 7.14123 5.49756 7.20123 5.49756C7.25748 5.49756 7.26873 5.61006 7.26873 5.61006C7.42998 5.65881 7.42623 5.79756 7.42623 5.92131C7.42623 6.00756 7.46748 6.01506 7.50123 5.87631C7.56123 5.99631 7.51248 6.03381 7.48998 6.12006C7.47123 6.19506 7.55373 6.19881 7.57248 6.07131C7.63248 6.22506 7.55373 6.24381 7.52748 6.34506C7.51248 6.40131 7.59498 6.37131 7.62873 6.27756C7.67373 6.40131 7.63998 6.46506 7.61373 6.51381C7.58373 6.56631 7.57623 6.63381 7.63248 6.63381C7.73748 6.63381 7.74498 6.47631 7.78998 6.47631V7.56006H6.60873ZM6.34998 6.73881V7.56756H6.44373V6.73881C6.40998 6.72006 6.37998 6.72006 6.34998 6.73881Z" fill="white" stroke="black" stroke-width="0.06"/>
<path d="M6.35742 7.27509C6.47367 7.33509 6.58992 7.40634 6.61992 7.56759H6.35742V7.27509ZM7.97742 7.02759V7.56759H8.05242V7.02759C8.02992 7.01634 7.99617 7.01259 7.97742 7.02759Z" fill="white" stroke="black" stroke-width="0.06"/>
<path d="M8.05245 7.27505C7.9362 7.3313 7.81995 7.3988 7.78995 7.5638H8.05245V7.27505ZM7.27995 6.0113L7.34745 5.95505V5.88005C7.32495 5.88005 7.30995 5.8913 7.2912 5.91755C7.28392 5.89347 7.27187 5.8711 7.25576 5.85177C7.23966 5.83245 7.21983 5.81656 7.19745 5.80505C7.17475 5.81574 7.15442 5.83087 7.13768 5.84955C7.12093 5.86823 7.1081 5.89008 7.09995 5.9138C7.0812 5.88755 7.06995 5.8838 7.0437 5.8763V5.9513L7.1112 6.0113H7.27995Z" fill="white" stroke="black" stroke-width="0.06"/>
<path d="M7.31745 6.19508L7.34745 6.12383V6.03008C7.32495 6.03008 7.30995 6.04133 7.2912 6.06758C7.28392 6.0435 7.27187 6.02112 7.25576 6.0018C7.23966 5.98247 7.21983 5.96658 7.19745 5.95508C7.17475 5.96576 7.15442 5.98089 7.13768 5.99957C7.12093 6.01825 7.1081 6.0401 7.09995 6.06383C7.0812 6.03758 7.06995 6.03383 7.0437 6.03008V6.12383L7.0737 6.19508H7.31745Z" fill="white" stroke="black" stroke-width="0.06"/>
<path d="M7.325 6.44258L7.4225 6.31883V6.19883C7.385 6.19883 7.36625 6.21758 7.34 6.25883C7.31375 6.17258 7.265 6.15758 7.1975 6.11633C7.12625 6.15383 7.0775 6.17258 7.055 6.25508C7.025 6.21383 7.00625 6.20258 6.96875 6.19883V6.31883L7.07 6.44258H7.325Z" fill="white" stroke="black" stroke-width="0.06"/>
<path d="M7.35126 6.68625C7.35126 6.68625 7.47126 6.585 7.47501 6.52875V6.3975C7.43001 6.40125 7.38876 6.4125 7.35501 6.46875C7.32501 6.36 7.28001 6.33 7.19751 6.28125C7.11126 6.33 7.06626 6.36 7.04001 6.46875C7.00251 6.4125 6.96501 6.40125 6.91626 6.39375V6.52875C6.94775 6.58823 6.98967 6.64158 7.04001 6.68625H7.35126Z" fill="white" stroke="black" stroke-width="0.06"/>
<path d="M7.39992 7.13636C7.39992 7.13636 7.56492 6.96011 7.56867 6.88886V6.68636C7.50867 6.69386 7.44867 6.73511 7.40367 6.82136C7.36617 6.65261 7.30617 6.53636 7.19742 6.45386C7.08492 6.53636 7.02492 6.65261 6.98742 6.82136C6.94242 6.73511 6.88617 6.69386 6.82617 6.68636V6.88886C6.83742 6.96011 6.99117 7.13636 6.99117 7.13636H7.39992Z" fill="white" stroke="black" stroke-width="0.06"/>
<path d="M7.39992 7.4026C7.39992 7.4026 7.53867 7.26385 7.56867 7.20385V7.00135C7.50867 7.00885 7.44867 7.0501 7.40367 7.1326C7.39364 7.06436 7.37026 6.99877 7.33487 6.93958C7.29948 6.88038 7.25278 6.82874 7.19742 6.7876C7.08492 6.8701 7.02492 6.96385 6.98742 7.1326C6.94242 7.0501 6.88617 7.00885 6.82617 7.00135V7.20385C6.86367 7.26385 6.99117 7.4026 6.99117 7.4026H7.39992Z" fill="white" stroke="black" stroke-width="0.06"/>
<path d="M7.45617 7.56009C7.41867 7.38384 7.38117 7.25259 7.18992 7.12134C6.99492 7.25259 6.96117 7.38384 6.91992 7.56009H7.45617Z" fill="white" stroke="black" stroke-width="0.06"/>
<path d="M7.55742 7.6576V7.4026C7.46742 7.4401 7.38867 7.48885 7.35867 7.5451C7.32867 7.4026 7.26492 7.3426 7.18617 7.25635C7.10742 7.3426 7.05492 7.40635 7.02117 7.5451C6.99117 7.48885 6.91242 7.43635 6.82617 7.4026V7.6576H7.55742Z" fill="white" stroke="black" stroke-width="0.06"/>
<path d="M13.6138 8.59501V7.83001C13.64 7.73251 13.7263 7.64251 13.7863 7.62751V6.95251L13.6475 7.02751L13.4863 7.73626V8.59876L13.6138 8.59501Z" fill="white" stroke="black" stroke-width="0.06"/>
<path d="M13.6138 8.59884V7.83009C13.64 7.73259 13.7263 7.64259 13.7863 7.62759V6.90759C13.6925 6.90759 13.6475 7.02759 13.6475 7.02759L13.4863 7.73634V8.59509L13.6138 8.59884Z" fill="white" stroke="black" stroke-width="0.06"/>
<path d="M13.715 8.79379C13.6512 8.76754 13.5575 8.68504 13.5575 8.60629V7.64629L13.6025 7.57129H11.9637L12.0275 7.64629V8.60629C12.0247 8.64603 12.0115 8.68433 11.9891 8.71727C11.9667 8.75022 11.9359 8.77662 11.9 8.79379H13.715Z" fill="white" stroke="black" stroke-width="0.06"/>
<path d="M12.2338 8.79376C12.2975 8.76751 12.3913 8.68501 12.3913 8.60626V7.69501L12.2563 7.5675H13.3663L13.2313 7.69501V8.60626C13.2313 8.68501 13.325 8.76751 13.3888 8.79376H12.2338Z" fill="white" stroke="black" stroke-width="0.06"/>
<path d="M12.3875 8.79384C12.4512 8.76759 12.5487 8.68509 12.5487 8.60634V7.78134L12.4587 7.65759H13.1637L13.0737 7.78134V8.60634C13.0737 8.68509 13.1675 8.76759 13.235 8.79384H12.3875Z" fill="white" stroke="black" stroke-width="0.06"/>
<path d="M12.9762 7.65759H12.6425V8.79759H12.98L12.9762 7.65759Z" fill="white" stroke="black" stroke-width="0.06"/>
<path d="M13.4375 7.97256H13.3025V8.59131H13.4375V7.97256ZM12.2825 7.97256H12.1512V8.59131H12.2862L12.2825 7.97256ZM13.5537 6.93006H13.3887V7.56756H13.5537V6.93006ZM13.5537 6.81006H13.3925V6.93006H13.5537V6.81006ZM12.2187 7.06881H11.99V7.55631H12.2187V7.06881Z" fill="white"/>
<path d="M13.5537 6.93006H13.3887V7.56756H13.5537V6.93006ZM13.5537 6.93006H13.3925V6.81006H13.5537V6.93006ZM13.4375 7.97256H13.3025V8.59131H13.4375V7.97256ZM12.2825 7.97256H12.1512V8.59131H12.2862L12.2825 7.97256ZM12.2187 7.06881H11.99V7.55631H12.2187V7.06881Z" stroke="black" stroke-width="0.06" stroke-linejoin="bevel"/>
<path d="M13.3925 7.56006V6.47256C13.3475 6.47256 13.34 6.63381 13.235 6.63381C13.1787 6.63381 13.1825 6.56631 13.2162 6.51381C13.2425 6.46506 13.2762 6.40131 13.2312 6.27756C13.1975 6.37131 13.115 6.40131 13.13 6.34506C13.1562 6.24381 13.235 6.22506 13.175 6.07131C13.1562 6.19881 13.0737 6.19506 13.0925 6.12006C13.115 6.03381 13.1637 5.99631 13.1037 5.87631C13.07 6.01506 13.0287 6.00756 13.0287 5.92131C13.0287 5.79381 13.0287 5.65881 12.8712 5.61006C12.8712 5.61006 12.86 5.49756 12.8 5.49756C12.7437 5.49756 12.7325 5.61006 12.7325 5.61006C12.5712 5.65881 12.575 5.79756 12.575 5.92131C12.575 6.00756 12.5337 6.01506 12.5 5.87631C12.44 5.99631 12.4887 6.03381 12.5112 6.12006C12.53 6.19506 12.4475 6.19881 12.4287 6.07131C12.3687 6.22506 12.4475 6.24381 12.4737 6.34506C12.4887 6.40131 12.4062 6.37131 12.3725 6.27756C12.3275 6.40131 12.3612 6.46506 12.3875 6.51381C12.4175 6.56631 12.425 6.63381 12.3687 6.63381C12.2637 6.63381 12.2562 6.47631 12.2112 6.47631V7.56006H13.3925ZM13.6512 6.73881V7.56756H13.5575V6.73881C13.5912 6.72006 13.6212 6.72006 13.6512 6.73881Z" fill="white" stroke="black" stroke-width="0.06"/>
<path d="M13.6438 7.27509C13.5275 7.33509 13.4113 7.40634 13.3813 7.56759H13.6438V7.27509ZM12.0238 7.02759V7.56759H11.9488V7.02759C11.9713 7.01634 12.005 7.01259 12.0238 7.02759Z" fill="white" stroke="black" stroke-width="0.06"/>
<path d="M11.9488 7.27505C12.065 7.3313 12.1813 7.3988 12.2113 7.5638H11.9488V7.27505ZM12.7213 6.0113L12.6538 5.95505V5.88005C12.6763 5.88005 12.6913 5.8913 12.71 5.91755C12.7173 5.89347 12.7294 5.8711 12.7455 5.85177C12.7616 5.83245 12.7814 5.81656 12.8038 5.80505C12.8265 5.81574 12.8468 5.83087 12.8635 5.84955C12.8803 5.86823 12.8931 5.89008 12.9013 5.9138C12.92 5.88755 12.9313 5.8838 12.9575 5.8763V5.9513L12.89 6.0113H12.7213Z" fill="white" stroke="black" stroke-width="0.06"/>
<path d="M12.6838 6.19508L12.6538 6.12383V6.03008C12.6763 6.03008 12.6913 6.04133 12.71 6.06758C12.7173 6.0435 12.7294 6.02112 12.7455 6.0018C12.7616 5.98247 12.7814 5.96658 12.8038 5.95508C12.8265 5.96576 12.8468 5.98089 12.8635 5.99957C12.8803 6.01825 12.8931 6.0401 12.9013 6.06383C12.92 6.03758 12.9313 6.03383 12.9575 6.03008V6.12383L12.9275 6.19508H12.6838Z" fill="white" stroke="black" stroke-width="0.06"/>
<path d="M12.6762 6.44258L12.5787 6.31883V6.19883C12.6162 6.19883 12.635 6.21758 12.6612 6.25883C12.6875 6.17258 12.7362 6.15758 12.8037 6.11633C12.875 6.15383 12.9237 6.17258 12.9462 6.25508C12.9762 6.21383 12.995 6.20258 13.0325 6.19883V6.31883L12.9312 6.44258H12.6762Z" fill="white" stroke="black" stroke-width="0.06"/>
<path d="M12.65 6.68625C12.65 6.68625 12.53 6.585 12.5262 6.52875V6.3975C12.5712 6.40125 12.6125 6.4125 12.6462 6.46875C12.6762 6.36 12.7212 6.33 12.8037 6.28125C12.89 6.33 12.935 6.36 12.9612 6.46875C12.9987 6.4125 13.0362 6.40125 13.085 6.39375V6.52875C13.0535 6.58823 13.0116 6.64158 12.9612 6.68625H12.65Z" fill="white" stroke="black" stroke-width="0.06"/>
<path d="M12.6013 7.13636C12.6013 7.13636 12.4363 6.96011 12.4325 6.88886V6.68636C12.4925 6.69386 12.5525 6.73511 12.5975 6.82136C12.635 6.65261 12.695 6.53636 12.8038 6.45386C12.9163 6.53636 12.9763 6.65261 13.0138 6.82136C13.0588 6.73511 13.115 6.69386 13.175 6.68636V6.88886C13.1638 6.96011 13.01 7.13636 13.01 7.13636H12.6013Z" fill="white" stroke="black" stroke-width="0.06"/>
<path d="M12.6013 7.4026C12.6013 7.4026 12.4625 7.26385 12.4325 7.20385V7.00135C12.4925 7.00885 12.5525 7.0501 12.5975 7.1326C12.6076 7.06436 12.631 6.99877 12.6663 6.93958C12.7017 6.88038 12.7484 6.82874 12.8038 6.7876C12.9163 6.8701 12.9763 6.96385 13.0138 7.1326C13.0588 7.0501 13.115 7.00885 13.175 7.00135V7.20385C13.1375 7.26385 13.01 7.4026 13.01 7.4026H12.6013Z" fill="white" stroke="black" stroke-width="0.06"/>
<path d="M12.545 7.56009C12.5825 7.38384 12.62 7.25259 12.8113 7.12134C13.0063 7.25259 13.04 7.38384 13.0813 7.56009H12.545Z" fill="white" stroke="black" stroke-width="0.06"/>
<path d="M12.4438 7.6576V7.4026C12.5338 7.4401 12.6125 7.48885 12.6425 7.5451C12.6725 7.4026 12.7363 7.3426 12.815 7.25635C12.8938 7.3426 12.9463 7.40635 12.98 7.5451C13.01 7.48885 13.0888 7.43635 13.175 7.4026V7.6576H12.4438Z" fill="white" stroke="black" stroke-width="0.06"/>
<path d="M5.40122 9.7238H14.6V10.1925H5.40122V9.7238ZM5.15747 10.1925H14.8437V10.6613H5.15747V10.1925ZM5.88497 9.0188H14.1125V9.32255H5.88497V9.0188Z" fill="white" stroke="black" stroke-width="0.06"/>
<path d="M5.64502 9.3225H14.36V9.72001H5.64502V9.3225ZM6.02752 8.78625H13.9775V9.01876H6.02752V8.78625Z" fill="white" stroke="black" stroke-width="0.06"/>
<path d="M6.89001 8.78625H7.49001V10.6613H6.89001V8.78625Z" fill="white" stroke="black" stroke-width="0.06"/>
<path d="M7.02499 8.78625H7.35874V10.6613H7.02124L7.02499 8.78625ZM9.68749 8.78625H10.2875V10.6613H9.68749V8.78625Z" fill="white" stroke="black" stroke-width="0.06"/>
<path d="M9.82617 8.78625H10.1637V10.6613H9.82617V8.78625ZM12.5074 8.78625H13.1074V10.6613H12.5074V8.78625Z" fill="white" stroke="black" stroke-width="0.06"/>
<path d="M12.6387 8.78625H12.9762V10.6613H12.6387V8.78625Z" fill="white" stroke="black" stroke-width="0.06"/>
<path d="M6.38745 8.59509H13.625M7.01745 10.4251H7.36245M7.01745 10.1888H7.36245M7.01745 9.95634H7.36245M7.01745 9.72009H7.36245M7.01745 9.48759H7.36245M7.01745 9.25134H7.36245M7.01745 9.01884H7.36245M9.82995 10.4251H10.1525M9.82995 10.1888H10.1525M9.82995 9.95634H10.1525M9.82995 9.72009H10.1525M9.82995 9.48759H10.1525M9.82995 9.25134H10.1525M9.82995 9.01884H10.1525M12.635 10.4251H12.98M12.635 10.1888H12.98M12.635 9.95634H12.98M12.635 9.72009H12.98M12.635 9.48759H12.98M12.635 9.25134H12.98M12.635 9.01884H12.98" stroke="black" stroke-width="0.06"/>
</g>
<defs>
<clipPath id="clip0_14_476">
<rect width="20" height="15" fill="white"/>
</clipPath>
</defs>
</svg>
