<svg width="20" height="15" viewBox="0 0 20 15" fill="none" xmlns="http://www.w3.org/2000/svg">
<g clip-path="url(#clip0_14_368)">
<mask id="mask0_14_368" style="mask-type:luminance" maskUnits="userSpaceOnUse" x="0" y="0" width="21" height="15">
<path d="M0.00292969 0H20.001V15H0.00292969V0Z" fill="white"/>
</mask>
<g mask="url(#mask0_14_368)">
<path fill-rule="evenodd" clip-rule="evenodd" d="M-2.5 0H21.9863V8.97949H-2.5V0Z" fill="#E73E2D"/>
<path fill-rule="evenodd" clip-rule="evenodd" d="M8.5166 8.26465C7.94824 7.81934 6.8877 7.97168 6.71191 6.76172C7.52344 7.3916 7.37695 6.72656 8.58691 7.32715L8.5166 8.26465Z" fill="#FEC74A" stroke="#D8AA3F" stroke-width="0.0796875"/>
<path fill-rule="evenodd" clip-rule="evenodd" d="M8.66894 7.7168C8.26171 7.11914 7.20409 6.9375 7.40917 5.7334C7.99218 6.58008 8.0537 5.90039 9.02636 6.84375L8.66894 7.7168Z" fill="#FEC74A" stroke="#D8AA3F" stroke-width="0.0796875"/>
<path fill-rule="evenodd" clip-rule="evenodd" d="M8.85347 7.32422C8.70699 6.61816 7.79878 6.04688 8.44917 5.00977C8.66011 6.01758 8.97652 5.41406 9.51558 6.65625L8.85347 7.32422Z" fill="#FEC74A" stroke="#D8AA3F" stroke-width="0.0796875"/>
<path fill-rule="evenodd" clip-rule="evenodd" d="M9.27829 6.96094C9.35739 6.24316 8.66891 5.41992 9.60349 4.63477C9.49802 5.65723 9.98434 5.18262 10.1162 6.52734L9.27829 6.96094Z" fill="#FEC74A" stroke="#D8AA3F" stroke-width="0.0796875"/>
<path fill-rule="evenodd" clip-rule="evenodd" d="M9.65918 6.6709C10.0225 6.04687 9.73242 5.01562 10.9072 4.68164C10.3916 5.56934 11.0303 5.33496 10.5996 6.61523L9.65918 6.6709Z" fill="#FEC74A" stroke="#D8AA3F" stroke-width="0.0796875"/>
<path fill-rule="evenodd" clip-rule="evenodd" d="M10.207 6.74708C10.752 6.27247 10.8047 5.20021 12.0234 5.25587C11.2529 5.93556 11.9355 5.91505 11.1152 6.99611L10.207 6.74708Z" fill="#FEC74A" stroke="#D8AA3F" stroke-width="0.0796875"/>
<path fill-rule="evenodd" clip-rule="evenodd" d="M10.6934 7.0283C11.3525 6.7324 11.7158 5.72459 12.8643 6.13475C11.9268 6.55955 12.5859 6.74119 11.4873 7.53221L10.6934 7.0283Z" fill="#FEC74A" stroke="#D8AA3F" stroke-width="0.0796875"/>
<path fill-rule="evenodd" clip-rule="evenodd" d="M11.1006 7.47073C11.8154 7.37112 12.4482 6.50393 13.4355 7.22463C12.4189 7.36819 12.9961 7.72561 11.7217 8.17678L11.1006 7.4678V7.47073Z" fill="#FEC74A" stroke="#D8AA3F" stroke-width="0.0796875"/>
<path fill-rule="evenodd" clip-rule="evenodd" d="M13.6494 7.60547L10.3652 7.67871L10.5029 8.56348L13.6494 7.60547Z" fill="#FEC74A" stroke="#D8AA3F" stroke-width="0.0796875"/>
<path fill-rule="evenodd" clip-rule="evenodd" d="M13.166 6.39844L10.125 7.56738L10.6318 8.54297L13.166 6.39844Z" fill="#FEC74A" stroke="#D8AA3F" stroke-width="0.0796875"/>
<path fill-rule="evenodd" clip-rule="evenodd" d="M10.752 8.22363L12.3252 5.36426L9.91113 7.61133L10.752 8.22363Z" fill="#FEC74A" stroke="#D8AA3F" stroke-width="0.0796875"/>
<path fill-rule="evenodd" clip-rule="evenodd" d="M10.7197 7.98633L11.2236 4.78125L9.64746 7.62891L10.7197 7.98633Z" fill="#FEC74A" stroke="#D8AA3F" stroke-width="0.0796875"/>
<path fill-rule="evenodd" clip-rule="evenodd" d="M10.5293 7.72559L10.002 4.49707L9.41602 7.74024L10.5293 7.72559Z" fill="#FEC74A" stroke="#D8AA3F" stroke-width="0.0796875"/>
<path fill-rule="evenodd" clip-rule="evenodd" d="M10.2568 7.4502L8.72461 4.75488L9.31055 8.03027L10.2568 7.4502Z" fill="#FEC74A" stroke="#D8AA3F" stroke-width="0.0796875"/>
<path fill-rule="evenodd" clip-rule="evenodd" d="M10.0195 7.42969L7.64355 5.42285L9.33105 8.29395L10.0195 7.42969Z" fill="#FEC74A" stroke="#D8AA3F" stroke-width="0.0796875"/>
<path fill-rule="evenodd" clip-rule="evenodd" d="M6.80859 6.41309L9.35742 8.51953L9.75 7.41797L6.80859 6.41309Z" fill="#FEC74A" stroke="#D8AA3F" stroke-width="0.0796875"/>
<path fill-rule="evenodd" clip-rule="evenodd" d="M9.33105 7.64355L6.33398 7.59961L9.31934 8.5957L9.33105 7.64355Z" fill="#FEC74A" stroke="#D8AA3F" stroke-width="0.0796875"/>
<path fill-rule="evenodd" clip-rule="evenodd" d="M11.7627 8.17974C11.7725 8.42188 11.7332 8.6635 11.6473 8.89009C11.5614 9.11668 11.4306 9.32358 11.2627 9.49836C11.0948 9.67314 10.8934 9.8122 10.6704 9.90719C10.4475 10.0022 10.2077 10.0511 9.96533 10.0511C9.723 10.0511 9.48316 10.0022 9.26022 9.90719C9.03728 9.8122 8.83583 9.67314 8.66796 9.49836C8.5001 9.32358 8.36928 9.11668 8.28336 8.89009C8.19744 8.6635 8.15819 8.42188 8.16797 8.17974C8.18671 7.7156 8.38427 7.27671 8.71929 6.95495C9.05431 6.63318 9.50082 6.45349 9.96533 6.45349C10.4298 6.45349 10.8763 6.63318 11.2114 6.95495C11.5464 7.27671 11.744 7.7156 11.7627 8.17974Z" fill="#FEC74A" stroke="#D8AA3F" stroke-width="0.0796875"/>
<path fill-rule="evenodd" clip-rule="evenodd" d="M-2.30566 8.88867H22.3008V15H-2.30859L-2.30566 8.88867Z" fill="#005989"/>
<path fill-rule="evenodd" clip-rule="evenodd" d="M-2.32031 13.3008C-1.86328 13.5117 -1.20703 14.042 -0.503906 14.042C0.667969 14.0332 0.697266 13.2393 1.88672 13.2773C3.0791 13.3066 2.8623 14.1445 4.4707 14.1416C5.80078 14.1357 6.22852 13.125 7.37695 13.2451C8.22656 13.2012 8.57227 14.2031 9.87598 14.2178C11.2295 14.2471 11.7246 13.125 12.5713 13.2188C13.4795 13.2188 13.7725 14.1211 15.041 14.127C16.6582 14.1357 16.9424 13.1895 17.9502 13.248C18.6709 13.2334 19.2393 13.9424 20.2939 13.96C21.1318 13.9746 21.8379 13.3389 22.3154 13.1104L22.3359 12.0322C21.8379 12.2168 21.0937 12.8262 20.3525 12.832C19.2803 12.873 18.6211 12.1289 17.877 12.1377C16.9863 12.1465 16.6318 13.0547 15.123 13.0547C13.7402 13.0547 13.4238 12.1377 12.5332 12.1377C11.6631 12.1436 11.3965 13.1338 9.8877 13.1162C8.65723 13.1016 8.17969 12.1699 7.30957 12.1787C6.38672 12.1787 5.43457 13.084 4.40918 13.04C3.00293 12.9814 2.69531 12.1787 1.77246 12.1787C1.08398 12.1787 0.336914 12.9287 -0.492187 12.9404C-1.31836 12.9551 -2.24707 12.1934 -2.33203 12.1787L-2.32031 13.3008ZM-2.32031 11.1621C-1.86328 11.376 -1.20703 11.9063 -0.503906 11.9063C0.667969 11.8975 0.697266 11.1035 1.88672 11.1387C3.0791 11.168 2.8623 12.0088 4.4707 12.0029C5.80078 12.0029 6.22852 10.9893 7.37695 11.1094C8.22656 11.0654 8.57227 12.0674 9.87598 12.0791C11.2295 12.1084 11.7246 10.9893 12.5713 11.083C13.4795 11.083 13.7725 11.9854 15.041 11.9912C16.6582 12 16.9424 11.0537 17.9502 11.1123C18.6709 11.0977 19.2393 11.8066 20.2939 11.8242C21.1318 11.8389 21.8379 11.2031 22.3154 10.9746L22.3359 9.89648C21.8379 10.0811 21.0937 10.6875 20.3525 10.6963C19.2803 10.7344 18.6211 9.99316 17.877 10.002C16.9863 10.0107 16.6318 10.9189 15.123 10.9189C13.7402 10.9189 13.4238 10.002 12.5332 10.002C11.6631 10.0078 11.3965 10.998 9.8877 10.9805C8.65723 10.9658 8.17969 10.0342 7.30957 10.043C6.38672 10.043 5.43457 10.9453 4.40918 10.9014C3.00293 10.8428 2.69531 10.04 1.77246 10.04C1.08398 10.04 0.336914 10.793 -0.492187 10.8047C-1.31836 10.8164 -2.24707 10.0576 -2.33203 10.043L-2.32031 11.165V11.1621Z" fill="white"/>
<path fill-rule="evenodd" clip-rule="evenodd" d="M-2.32031 9.05273C-1.86328 9.26367 -1.20703 9.79102 -0.506836 9.79102C0.665039 9.78516 0.694336 8.98828 1.88379 9.02637C3.07324 9.05566 2.85645 9.89355 4.46484 9.89062C5.79199 9.8877 6.22266 8.87402 7.36523 8.99707C8.21484 8.95312 8.56055 9.95508 9.86426 9.9668C11.2148 9.99609 11.71 8.87402 12.5596 8.96777C13.4619 8.96777 13.7607 9.87012 15.0264 9.87598C16.6377 9.88477 16.9219 8.93848 17.9326 8.99707C18.6504 8.98242 19.2187 9.69141 20.2705 9.70898C21.1113 9.72363 21.8145 9.08789 22.292 8.85937L22.3125 7.78125C21.8145 7.96875 21.0732 8.57519 20.3291 8.58105C19.2627 8.62207 18.6006 7.88086 17.8564 7.88672C16.9687 7.89551 16.6143 8.80371 15.1025 8.80371C13.7256 8.80371 13.4092 7.88672 12.5186 7.88672C11.6484 7.89551 11.3818 8.88281 9.87891 8.86523C8.64844 8.85059 8.1709 7.92187 7.30078 7.92773C6.37793 7.92773 5.42578 8.83301 4.40625 8.78906C2.99707 8.73047 2.69238 7.92773 1.76953 7.92773C1.08105 7.92773 0.336914 8.67773 -0.492187 8.68945C-1.31836 8.7041 -2.24414 7.94531 -2.33203 7.92773L-2.32031 9.0498V9.05273Z" fill="white"/>
<path fill-rule="evenodd" clip-rule="evenodd" d="M6.53906 2.22656C8.32617 2.10352 8.00391 1.95117 8.72168 1.83398C9.62988 1.95996 9.73242 2.50781 10.2393 2.84473C10.2393 2.84473 10.0488 3.48926 9.42773 3.39844C9.34277 3.14063 9.72656 3.05859 8.62207 2.38477C7.97754 2.34668 6.82617 2.49902 6.54199 2.22656H6.53906ZM12.085 3.21973L10.7959 3.27246V3.5918C11.666 3.62109 11.8213 3.50391 12.085 3.21973Z" fill="#FFC84B" stroke="#D8AA3F" stroke-width="0.084375"/>
<path fill-rule="evenodd" clip-rule="evenodd" d="M7.65234 3.164C7.87793 3.04974 7.98926 3.09662 8.18555 3.09076C8.31738 3.33392 8.44336 3.35443 8.73633 3.38373C8.86596 3.57585 9.03975 3.7341 9.24313 3.84522C9.44652 3.95634 9.67357 4.0171 9.90527 4.0224C10.7812 3.99896 11.0596 3.38666 11.6484 3.31928H12.2695C12.167 3.14349 12.085 3.04096 11.8594 3.02924C11.3965 3.0058 10.7988 3.01752 10.2773 3.13471L9.54199 3.31928C9.3252 3.21381 8.80078 2.66303 8.46387 2.67474C8.26758 2.72748 8.26758 2.79486 8.1709 2.87103C7.98047 2.95307 7.79004 2.91205 7.65234 3.164Z" fill="#FFC84B" stroke="#D8AA3F" stroke-width="0.0796875" stroke-linejoin="round"/>
<path fill-rule="evenodd" clip-rule="evenodd" d="M8.54004 2.90036C8.54245 2.91386 8.54188 2.92772 8.53835 2.94097C8.53483 2.95422 8.52844 2.96653 8.51965 2.97704C8.51085 2.98756 8.49985 2.99601 8.48743 3.00181C8.47501 3.00761 8.46146 3.01062 8.44775 3.01062C8.43404 3.01062 8.4205 3.00761 8.40808 3.00181C8.39566 2.99601 8.38466 2.98756 8.37586 2.97704C8.36706 2.96653 8.36068 2.95422 8.35715 2.94097C8.35363 2.92772 8.35305 2.91386 8.35547 2.90036C8.35934 2.8787 8.37071 2.8591 8.38758 2.84498C8.40445 2.83086 8.42575 2.82312 8.44775 2.82312C8.46975 2.82312 8.49106 2.83086 8.50793 2.84498C8.5248 2.8591 8.53617 2.8787 8.54004 2.90036Z" fill="#FFC84B" stroke="#D8AA3F" stroke-width="0.0796875"/>
<path fill-rule="evenodd" clip-rule="evenodd" d="M9.14063 3.1582C10.4561 1.57324 11.6045 1.7666 13.1045 1.6582C13.1543 1.84277 13.1338 2.11816 12.4219 2.36133C11.4434 2.50781 9.69434 3.53906 9.68555 3.53906C9.36035 3.52148 9.13184 3.18164 9.14063 3.1582Z" fill="#FFC84B" stroke="#D8AA3F" stroke-width="0.084375"/>
<path d="M11.8447 2.12402L12.8145 2.16797M11.7393 2.28516L12.4453 2.34375" stroke="#D9A43E" stroke-width="0.084375" stroke-linecap="round"/>
</g>
</g>
<defs>
<clipPath id="clip0_14_368">
<rect width="20" height="15" fill="white"/>
</clipPath>
</defs>
</svg>
