<svg width="20" height="15" viewBox="0 0 20 15" fill="none" xmlns="http://www.w3.org/2000/svg">
<g clip-path="url(#clip0_14_524)">
<mask id="mask0_14_524" style="mask-type:luminance" maskUnits="userSpaceOnUse" x="-1" y="-1" width="21" height="16">
<path d="M-0.00354004 -0.000366211H19.9983V14.9996H-0.000609792L-0.00354004 -0.000366211Z" fill="white"/>
</mask>
<g mask="url(#mask0_14_524)">
<path fill-rule="evenodd" clip-rule="evenodd" d="M22.5887 14.9851H-2.37708V0.0114746H22.5887V14.9851Z" fill="white" stroke="black" stroke-width="0.046884"/>
<path fill-rule="evenodd" clip-rule="evenodd" d="M22.5887 12.2745H-2.37708V14.985H22.5887V12.2745Z" fill="#3E5698"/>
<path fill-rule="evenodd" clip-rule="evenodd" d="M22.5887 11.6475H-2.37708V3.349H22.5887V11.6475Z" fill="#C60000"/>
<path fill-rule="evenodd" clip-rule="evenodd" d="M22.5887 0.0144043H-2.37708V2.72196H22.5887V0.0144043Z" fill="#3E5698"/>
<path fill-rule="evenodd" clip-rule="evenodd" d="M9.47582 7.4982C9.47582 9.35891 7.92279 10.868 6.00054 10.868C4.0783 10.868 2.52527 9.35891 2.52527 7.4982C2.52527 5.6375 4.0783 4.13428 6.00054 4.13428C7.91986 4.13428 9.47582 5.64043 9.47582 7.50114V7.4982Z" fill="white"/>
<path fill-rule="evenodd" clip-rule="evenodd" d="M5.0013 7.92614L3.33105 6.73353L5.41153 6.72767L6.0767 4.78198L6.69498 6.71888L8.77546 6.70716L7.07884 7.91442L7.70299 9.85131L6.03274 8.6587L4.3332 9.8689L5.0013 7.92614Z" fill="#C40000"/>
</g>
</g>
<defs>
<clipPath id="clip0_14_524">
<rect width="20" height="15" fill="white"/>
</clipPath>
</defs>
</svg>
