<svg width="20" height="15" viewBox="0 0 20 15" fill="none" xmlns="http://www.w3.org/2000/svg">
<g clip-path="url(#clip0_14_312)">
<mask id="mask0_14_312" style="mask-type:luminance" maskUnits="userSpaceOnUse" x="-1" y="0" width="22" height="16">
<path d="M-0.000610352 0.000732422H20.0004V15.0007H-0.000610352V0.000732422Z" fill="white"/>
</mask>
<g mask="url(#mask0_14_312)">
<path fill-rule="evenodd" clip-rule="evenodd" d="M-0.000610352 0.000732422H20.0033V15.0007H-0.000610352V0.000732422Z" fill="white"/>
<path fill-rule="evenodd" clip-rule="evenodd" d="M2.19116 4.552L4.27946 1.43674L4.79752 1.78466L2.70923 4.89992L2.19116 4.552ZM2.96826 5.07388L5.05656 1.95862L5.57462 2.30654L3.48632 5.4218L2.96826 5.07388ZM3.74535 5.59576L5.83365 2.4805L6.35172 2.82842L4.26342 5.94368L3.74535 5.59576Z" fill="black"/>
<path fill-rule="evenodd" clip-rule="evenodd" d="M13.6306 12.1812L15.7189 9.06589L16.237 9.41381L14.1487 12.5291L13.6306 12.1812ZM14.4077 12.703L16.496 9.58777L17.0141 9.93569L14.9258 13.051L14.4077 12.703ZM15.1848 13.2249L17.2731 10.1096L17.7912 10.4576L15.7029 13.5728L15.1848 13.2249Z" fill="black"/>
<path fill-rule="evenodd" clip-rule="evenodd" d="M14.4109 10.4524L17.0107 12.1863Z" fill="black"/>
<path d="M14.4109 10.4524L17.0107 12.1863" stroke="white" stroke-width="0.5"/>
<path fill-rule="evenodd" clip-rule="evenodd" d="M6.87134 5.41504C7.42521 4.59003 8.28469 4.0185 9.26069 3.82618C10.2367 3.63387 11.2493 3.83652 12.0757 4.38955C12.9021 4.94259 13.4746 5.80071 13.6673 6.77514C13.8601 7.74956 13.6572 8.76048 13.1033 9.58549L6.87134 5.41504Z" fill="#CD2E3A"/>
<path fill-rule="evenodd" clip-rule="evenodd" d="M6.87897 5.42003C6.32511 6.24524 6.12203 7.25653 6.3144 8.23142C6.50677 9.20631 7.07883 10.0649 7.90474 10.6184C8.73064 11.1719 9.74274 11.3749 10.7184 11.1828C11.694 10.9907 12.5533 10.4191 13.1071 9.5939C13.3841 9.1813 13.4856 8.67565 13.3894 8.18821C13.2932 7.70076 13.0072 7.27144 12.5943 6.9947C12.1813 6.71795 11.6753 6.61645 11.1874 6.71252C10.6996 6.80859 10.27 7.09436 9.99306 7.50696L6.87897 5.42003Z" fill="#0047A0"/>
<path d="M9.98754 7.50856C10.5641 6.64907 10.3346 5.4849 9.47507 4.90831C8.61552 4.33172 7.45135 4.56107 6.87482 5.42056C6.2983 6.28005 6.52774 7.44422 7.38729 8.02081C8.24685 8.59739 9.41102 8.36805 9.98754 7.50856Z" fill="#CD2E3A"/>
<path fill-rule="evenodd" clip-rule="evenodd" d="M4.28809 13.574L2.19979 10.4587L2.71785 10.1108L4.80615 13.2261L4.28809 13.574ZM5.06518 13.0521L2.97689 9.93683L3.49495 9.58891L5.58325 12.7042L5.06518 13.0521ZM5.84228 12.5302L3.75398 9.41495L4.27205 9.06703L6.36034 12.1823L5.84228 12.5302Z" fill="black"/>
<path fill-rule="evenodd" clip-rule="evenodd" d="M15.7274 5.94482L13.6391 2.82956L14.1572 2.48164L16.2455 5.5969L15.7274 5.94482ZM16.5045 5.42295L14.4162 2.30768L14.9343 1.95976L17.0226 5.07503L16.5045 5.42295ZM17.2816 4.90107L15.1933 1.7858L15.7114 1.43788L17.7997 4.55315L17.2816 4.90107Z" fill="black"/>
<path fill-rule="evenodd" clip-rule="evenodd" d="M3.89001 11.5806L4.66997 11.0604ZM14.4194 4.55831L15.3294 3.95145ZM16.1093 3.43129L16.8893 2.91112Z" fill="black"/>
<path d="M3.89001 11.5806L4.66997 11.0604M14.4194 4.55831L15.3294 3.95145M16.1093 3.43129L16.8893 2.91112" stroke="white" stroke-width="0.5"/>
</g>
</g>
<defs>
<clipPath id="clip0_14_312">
<rect width="20" height="15" fill="white"/>
</clipPath>
</defs>
</svg>
