<svg width="20" height="15" viewBox="0 0 20 15" fill="none" xmlns="http://www.w3.org/2000/svg">
<mask id="mask0_1825_42860" style="mask-type:luminance" maskUnits="userSpaceOnUse" x="0" y="0" width="20" height="15">
<rect width="20" height="15" fill="white"/>
</mask>
<g mask="url(#mask0_1825_42860)">
<path fill-rule="evenodd" clip-rule="evenodd" d="M0 0V15H20V0H0Z" fill="#F7FCFF"/>
<mask id="mask1_1825_42860" style="mask-type:luminance" maskUnits="userSpaceOnUse" x="0" y="0" width="20" height="15">
<path fill-rule="evenodd" clip-rule="evenodd" d="M0 0V15H20V0H0Z" fill="white"/>
</mask>
<g mask="url(#mask1_1825_42860)">
<path fill-rule="evenodd" clip-rule="evenodd" d="M10.0004 11.3873C12.0021 11.3873 13.6248 9.66396 13.6248 7.53817C13.6248 5.41238 12.0021 3.68909 10.0004 3.68909C7.99868 3.68909 6.37598 5.41238 6.37598 7.53817C6.37598 9.66396 7.99868 11.3873 10.0004 11.3873Z" fill="#3D58DB"/>
<mask id="mask2_1825_42860" style="mask-type:luminance" maskUnits="userSpaceOnUse" x="6" y="3" width="8" height="9">
<path fill-rule="evenodd" clip-rule="evenodd" d="M10.0004 11.3873C12.0021 11.3873 13.6248 9.66396 13.6248 7.53817C13.6248 5.41238 12.0021 3.68909 10.0004 3.68909C7.99868 3.68909 6.37598 5.41238 6.37598 7.53817C6.37598 9.66396 7.99868 11.3873 10.0004 11.3873Z" fill="white"/>
</mask>
<g mask="url(#mask2_1825_42860)">
<path fill-rule="evenodd" clip-rule="evenodd" d="M13.7517 7.83306C13.7517 7.83306 13.5482 6.01809 12.0416 5.91957C10.5349 5.82104 10.1287 7.25056 10.0417 7.62929C9.95478 8.00802 9.73473 9.01834 8.14838 9.01834C6.56204 9.01834 6.41895 6.44932 6.41895 6.44932V3.42004H13.7517V7.83306Z" fill="#E31D1C"/>
</g>
<path fill-rule="evenodd" clip-rule="evenodd" d="M4.56227 1.28271L5.13412 1.79992L2.48396 4.89486L1.91211 4.37766L4.56227 1.28271ZM5.50539 2.11969L6.07724 2.63689L3.52208 5.687L2.95023 5.16979L5.50539 2.11969ZM7.01604 3.48418L6.44419 2.96697L3.88192 6.04023L4.45377 6.55743L7.01604 3.48418Z" fill="#272727"/>
<path fill-rule="evenodd" clip-rule="evenodd" d="M15.8528 1.0658L15.2808 1.58106L16.2729 2.74534L16.8449 2.23007L15.8528 1.0658ZM17.6163 3.20744L17.0443 3.72271L18.0364 4.88698L18.6084 4.37172L17.6163 3.20744ZM13.3929 3.25806L13.9649 2.74279L14.957 3.90706L14.385 4.42233L13.3929 3.25806ZM15.7284 4.88444L15.1564 5.39971L16.1486 6.56398L16.7205 6.04871L15.7284 4.88444ZM14.3727 2.39455L14.9446 1.87928L17.7062 5.24232L17.1343 5.75759L14.3727 2.39455Z" fill="#272727"/>
<path fill-rule="evenodd" clip-rule="evenodd" d="M16.2847 8.90204L15.7079 8.38477L14.7075 9.55358L15.2842 10.0709L16.2847 8.90204ZM14.6027 10.9589L14.0259 10.4416L13.0254 11.6105L13.6022 12.1277L14.6027 10.9589ZM17.5295 10.0206L18.1063 10.5379L17.1058 11.7067L16.529 11.1894L17.5295 10.0206ZM16.5064 12.6425L15.9297 12.1252L14.9292 13.294L15.506 13.8113L16.5064 12.6425ZM14.9795 11.2364L15.5563 11.7537L14.5119 13.0017L13.9351 12.4845L14.9795 11.2364ZM17.2697 9.67399L16.6929 9.15672L15.6485 10.4048L16.2253 10.9221L17.2697 9.67399Z" fill="#272727"/>
<path fill-rule="evenodd" clip-rule="evenodd" d="M4.00452 9.30624L4.57652 8.79041L7.12939 11.7157L6.55739 12.2315L4.00452 9.30624ZM4.60002 11.8648L5.17202 11.3489L6.25034 12.5337L5.67833 13.0495L4.60002 11.8648ZM2.69381 10.4318L2.1218 10.9476L4.68793 13.9123L5.25993 13.3964L2.69381 10.4318ZM3.1008 10.0952L3.6728 9.57935L4.60759 10.6755L4.03559 11.1914L3.1008 10.0952Z" fill="#272727"/>
</g>
</g>
</svg>
