<svg width="20" height="15" viewBox="0 0 20 15" fill="none" xmlns="http://www.w3.org/2000/svg">
<g clip-path="url(#clip0_14_364)">
<path d="M0 0H20V15H0V0Z" fill="#000066"/>
<path d="M0 0H10V7.5H0V0Z" fill="#012169"/>
<path d="M1.17188 0L4.98438 2.82812L8.78125 0H10V0.96875L6.25 3.76562L10 6.54688V7.5H8.75L5 4.70312L1.26562 7.5H0V6.5625L3.73438 3.78125L0 1V0H1.17188Z" fill="white"/>
<path d="M6.625 4.39062L10 6.875V7.5L5.76562 4.39062H6.625ZM3.75 4.70312L3.84375 5.25L0.84375 7.5H0L3.75 4.70312ZM10 0V0.046875L6.10938 2.98438L6.14062 2.29688L9.21875 0H10ZM0 0L3.73438 2.75H2.79688L0 0.65625V0Z" fill="#C8102E"/>
<path d="M3.76562 0V7.5H6.26562V0H3.76562ZM0 2.5V5H10V2.5H0Z" fill="white"/>
<path d="M0 3.01562V4.51562H10V3.01562H0ZM4.26562 0V7.5H5.76562V0H4.26562Z" fill="#C8102E"/>
<path d="M17.3621 5.68217V8.22545C17.3621 10.4311 16.3192 11.1881 14.9223 11.7871C13.5254 11.1881 12.4716 10.4311 12.4716 8.22545V5.67944H17.3621V5.68217Z" fill="white" stroke="white" stroke-width="0.418253" stroke-linejoin="round"/>
<path d="M10.9548 11.5802C11.0338 11.7871 11.5947 12.0622 12.2483 11.7109C12.6921 11.4604 12.978 11.1118 13.2531 10.4856C13.3293 10.3276 13.3701 10.1316 13.1877 10.0145C13.0434 9.90827 12.8065 9.79119 12.703 9.68771C12.6513 9.63325 12.5995 9.59513 12.5614 9.55701C12.5886 9.58424 12.6132 9.60874 12.6377 9.64687C12.8991 9.96001 12.6268 10.4175 12.3381 10.6925C12.1285 10.8886 11.7527 11.3705 11.2026 10.9131C11.0855 10.8096 10.8105 11.2398 10.9576 11.5802H10.9548ZM18.8897 11.5802C18.7971 11.7871 18.2361 12.0622 17.5962 11.7109C17.1551 11.4604 16.8665 11.1118 16.5806 10.4856C16.5152 10.3276 16.4744 10.1316 16.6568 10.0145C16.8011 9.90827 17.038 9.79119 17.1415 9.68771C17.1932 9.63325 17.2314 9.59513 17.2831 9.55701C17.2559 9.58424 17.2314 9.60874 17.2069 9.64687C16.9454 9.96001 17.2177 10.4175 17.4928 10.6925C17.7024 10.8886 18.0918 11.3705 18.6419 10.9131C18.759 10.8096 19.0204 11.2398 18.8869 11.5802H18.8897Z" fill="#FCEA83" stroke="white" stroke-width="0.418253" stroke-linejoin="round"/>
<path d="M14.9223 12.7021C15.9652 12.7021 17.5718 12.231 18.4349 10.5863C18.5765 10.314 18.4349 10.1697 18.2634 10.0798C18.0695 9.98216 17.8929 9.85338 17.7406 9.69861C17.9503 9.90828 17.9094 10.0526 17.7678 10.2868C17.1007 11.3978 16.1885 11.9587 14.9223 11.9587C13.6561 11.9587 12.7439 11.3978 12.0767 10.2868C11.9351 10.0526 11.8943 9.90828 12.0904 9.70133C11.9404 9.85801 11.7632 9.98625 11.5675 10.0798C11.3987 10.1697 11.2544 10.314 11.3987 10.5863C12.2592 12.231 13.8766 12.7021 14.9223 12.7021Z" fill="#FCEA83" stroke="white" stroke-width="0.418253" stroke-linejoin="round"/>
<path d="M12.5069 10.4964C12.4797 10.3657 12.3136 10.4174 12.2619 10.5754C12.1914 10.485 12.1294 10.3884 12.0767 10.2867C11.9215 10.0525 11.8943 9.8946 12.1176 9.67404C12.221 9.57056 12.4307 9.45075 12.5723 9.58146C12.8718 9.82925 12.7166 10.235 12.5069 10.4964ZM17.3239 10.4964C17.3512 10.3657 17.5336 10.4174 17.5853 10.5754C17.6507 10.4828 17.716 10.3929 17.7678 10.2867C17.923 10.0525 17.9502 9.8946 17.7133 9.67404C17.6235 9.57056 17.4138 9.45075 17.2586 9.58146C16.9699 9.82925 17.1143 10.235 17.3239 10.4964ZM10.9548 11.5801C10.8241 11.3841 10.7207 10.8722 10.6934 10.7442C10.6553 10.6271 10.6417 10.5209 10.786 10.4719C10.9303 10.4174 11.0583 10.5999 11.1237 10.7578C11.189 10.913 11.2952 11.1472 11.4123 11.4358C11.1237 11.267 10.8895 11.3814 10.9548 11.5801ZM18.8897 11.5801C19.0067 11.3841 19.1102 10.8722 19.1511 10.7442C19.1783 10.6271 19.2028 10.5209 19.0585 10.4719C18.9142 10.4174 18.7862 10.5999 18.7208 10.7578C18.6555 10.913 18.5493 11.1472 18.4322 11.4358C18.7208 11.267 18.9414 11.3814 18.8897 11.5801Z" fill="#C8102E" stroke="white" stroke-width="0.418253" stroke-linejoin="round"/>
<path d="M13.9175 5.66862C13.7486 5.70674 13.6315 5.72036 13.4736 5.57604C13.3701 5.47256 13.3946 5.29012 13.5008 5.22205C13.6179 5.1458 13.7214 5.09407 13.8657 5.13219C14.01 5.17303 14.3885 5.5243 14.296 5.53791C14.2034 5.53791 14.0618 5.62777 13.9175 5.66862ZM14.3205 5.04233C14.3749 5.00148 14.4403 4.97698 14.6091 4.96064C14.767 4.94975 14.8814 4.94975 14.9222 5.06956C14.9767 5.21115 15.0148 5.37998 15.1183 5.45895C15.0529 5.49707 14.7262 5.53791 14.6091 5.47256C14.4539 5.3936 14.413 5.09134 14.3232 5.04233H14.3205ZM15.4451 5.05594C15.4968 5.0151 15.5621 5.0151 15.731 5.02871C15.8998 5.04233 15.9652 5.05594 16.0033 5.17303C16.0441 5.30374 16.0033 5.47256 16.085 5.58965C16.0033 5.61688 15.7446 5.61688 15.652 5.5243C15.5104 5.42083 15.5213 5.11857 15.4451 5.05322V5.05594Z" fill="white" stroke="white" stroke-width="0.418253" stroke-linejoin="round"/>
<path d="M16.2266 5.13215C16.1095 5.10492 16.0305 5.09403 15.9815 5.13215C16.0441 5.21111 15.9924 5.52426 16.1231 5.62773C16.2129 5.69309 16.4498 5.70942 16.5016 5.56238C16.5669 5.43168 16.5669 5.23562 16.2293 5.13215H16.2266ZM14.8841 5.00144C14.9222 4.96332 15.0012 4.94971 15.1564 4.94971C15.328 4.94971 15.4287 4.97694 15.4832 5.08041C15.5376 5.21111 15.5213 5.37994 15.6139 5.48614C15.5758 5.53787 15.2218 5.53787 15.1183 5.45891C14.974 5.36633 14.9604 5.0668 14.8841 5.00144ZM13.7759 5.11853C13.7759 5.05318 13.8657 5.04229 14.1026 5.02867C14.3341 5.00144 14.3477 5.01506 14.4267 5.18388C14.4648 5.27647 14.5165 5.43168 14.6227 5.48341C14.3341 5.55149 14.2415 5.58961 14.0863 5.49703C13.9729 5.42614 13.8793 5.3278 13.814 5.21111C13.8004 5.17299 13.8004 5.13215 13.7731 5.11853H13.7759Z" fill="#073163" stroke="white" stroke-width="0.418253" stroke-linejoin="round"/>
<path d="M13.8004 3.95846C13.7078 3.95846 13.6315 3.92034 13.5771 3.85499C13.4872 3.73518 13.2394 3.68344 13.1332 3.78964C13.0951 3.81687 13.0434 3.81687 13.0052 3.82776C12.9399 3.82776 12.8609 3.89311 12.8854 4.02382C12.9399 3.98297 12.9508 4.02382 12.9916 4.02382C13.0189 4.0102 13.0052 4.03743 13.0052 4.06194C13.0052 4.12729 13.1468 4.25799 13.2775 4.24438C13.4219 4.24438 13.4872 4.29884 13.5117 4.32607C13.5526 4.36147 13.5253 4.35058 13.5526 4.41593C13.5907 4.45405 13.6043 4.46767 13.5389 4.5194C13.5092 4.54419 13.4853 4.57521 13.4689 4.61027C13.4525 4.64532 13.444 4.68356 13.444 4.72227C13.444 4.76097 13.4525 4.79921 13.4689 4.83426C13.4853 4.86932 13.5092 4.90034 13.5389 4.92513C13.7078 5.05311 14.138 5.25189 14.6227 4.87067C15.0911 4.50579 15.8208 4.71546 15.8753 4.84344C15.9406 4.97687 15.9651 5.05311 15.9788 5.11846C15.9924 5.17292 16.0577 5.22466 16.1503 5.21104C16.2402 5.21104 16.3436 5.24917 16.3954 5.29001C16.4635 5.32813 16.5533 5.31724 16.5288 5.19743C16.4743 4.83255 16.2538 4.78081 16.2293 4.61198C16.3573 4.62288 16.4471 4.62288 16.5016 4.57114C16.5397 4.5194 16.5914 4.42682 16.6459 4.40231C16.684 4.37508 16.684 4.34785 16.6323 4.36147C16.5669 4.37508 16.5288 4.40231 16.409 4.3887C15.8099 4.32335 14.1271 3.86588 13.8004 3.95846Z" fill="#059334" stroke="white" stroke-width="0.418253" stroke-linejoin="round"/>
<path d="M16.4635 4.40226C16.3639 4.47248 16.2789 4.56124 16.2129 4.66366C16.085 4.83249 15.6928 5.00132 15.2082 5.00132C14.7398 5.00132 14.4539 4.92507 14.2442 4.75625C14.1547 4.68467 14.058 4.62261 13.9556 4.57108C13.814 4.50573 13.7867 4.36141 13.8249 4.24432C13.7867 4.30967 13.7622 4.37503 13.6833 4.36141C13.6288 4.36141 13.5253 4.36141 13.5526 4.41587C13.539 4.38864 13.539 4.35052 13.5253 4.33418L13.4981 4.30968C13.539 4.33691 13.6315 4.25794 13.6969 4.25794C13.7486 4.27155 13.814 4.2062 13.8004 4.12723L13.7622 3.95841C13.8657 3.90395 15.2354 4.15446 15.5104 4.17897C15.7827 4.19259 16.5669 4.30967 16.4635 4.40226Z" fill="black" stroke="white" stroke-width="0.418253" stroke-linejoin="round"/>
<path d="M13.9828 3.90673C14.1135 3.77602 14.2687 3.71067 14.4266 3.74879H14.4647C14.5464 3.68344 14.7261 3.66982 14.8323 3.72156H14.8841C15.0393 3.66982 15.3388 3.72156 15.445 3.82776L15.4831 3.85499C15.8371 3.82776 16.0441 3.98297 16.2919 4.23349C16.3191 4.26072 16.3572 4.30973 16.4226 4.32334C16.5015 4.33696 16.5152 4.3778 16.4498 4.41593C16.3451 4.48068 16.2529 4.56368 16.1775 4.661C16.0577 4.81893 15.6792 4.97686 15.2081 4.97686C14.7534 4.97686 14.4784 4.89517 14.2687 4.73996C14.1516 4.6501 14.0617 4.59837 13.9964 4.55752C13.9174 4.53029 13.8139 4.42682 13.8521 4.32334C13.8793 4.21987 13.8139 4.08917 13.7622 3.95846C13.8003 3.93123 13.9038 3.89311 13.9555 3.92034L13.9828 3.90673Z" fill="#059334" stroke="white" stroke-width="0.418253" stroke-linejoin="round"/>
<path d="M16.2919 4.23349C16.0468 3.98297 15.8372 3.82776 15.4832 3.85227C15.4832 3.86588 15.4832 3.90673 15.4695 3.93396C15.7163 4.04466 15.9349 4.20937 16.1095 4.41593C16.1639 4.36147 16.2538 4.29884 16.2919 4.23349ZM15.445 3.82776C15.3388 3.72428 15.0393 3.66982 14.8841 3.72428C14.8841 3.77602 14.8841 3.85499 14.8569 3.90673C14.9495 3.94485 15.0257 4.03743 15.1047 4.12729C15.1591 4.11367 15.2871 4.07555 15.3525 4.06194C15.3915 3.98735 15.4225 3.90885 15.445 3.82776ZM14.8324 3.72156C14.7262 3.66982 14.5437 3.68344 14.4648 3.74879C14.4375 3.80325 14.4266 3.90673 14.4266 3.95846C14.4811 3.95846 14.5573 3.99658 14.5818 4.02381C14.6635 3.99658 14.767 3.94485 14.8051 3.90673C14.8187 3.85227 14.8433 3.77602 14.8324 3.72428V3.72156ZM13.9828 3.90673C14.1135 3.77602 14.2687 3.71067 14.4266 3.74879C14.3994 3.78964 14.3885 3.86588 14.3885 3.94485C14.2442 3.93123 14.0618 3.97208 13.9828 4.02381V3.90673Z" fill="#00493D" stroke="white" stroke-width="0.418253" stroke-linejoin="round"/>
<path d="M16.0577 4.4404C15.8937 4.24617 15.6892 4.09005 15.4587 3.98294C15.4587 3.99655 15.4314 4.04829 15.4178 4.08913C15.4968 4.20622 15.652 4.46763 15.7173 4.61195C15.7827 4.58472 15.9651 4.50575 16.0577 4.4404ZM15.0666 4.72904C15.0891 4.55107 15.1018 4.37198 15.1047 4.19261C15.17 4.17899 15.3007 4.14087 15.3525 4.12726C15.4178 4.23345 15.5758 4.50848 15.6411 4.63646C15.4832 4.67458 15.2218 4.73993 15.0666 4.72904ZM14.6091 4.10275C14.6744 4.07552 14.767 4.02106 14.8297 3.97205C14.8841 4.01017 14.9876 4.10275 15.0257 4.15449C15.0257 4.27158 14.9876 4.61195 14.974 4.72632C14.8705 4.72632 14.7017 4.70181 14.6091 4.65007C14.6227 4.45402 14.6363 4.23345 14.6091 4.10275ZM13.9556 4.25796C13.9692 4.23073 13.9828 4.14087 13.9828 4.10275C14.0863 4.0374 14.3477 3.97205 14.5437 4.07552C14.5574 4.20622 14.5437 4.53298 14.5301 4.61195C14.3555 4.46992 14.1633 4.35095 13.9583 4.25796H13.9556Z" fill="#00493D" stroke="white" stroke-width="0.418253" stroke-linejoin="round"/>
<path d="M13.3048 4.02107C13.2776 4.02107 13.2639 3.94482 13.2122 3.94482C13.1986 3.94482 13.1605 3.95844 13.1469 3.94482C13.1469 3.97205 13.1605 3.99928 13.1741 4.01018C13.1877 4.0483 13.253 4.02379 13.3048 4.02379V4.02107Z" fill="black"/>
<path d="M13.3048 4.24441C13.46 4.24441 13.4872 4.04836 13.5662 4.03747M13.3946 4.25803C13.5117 4.31249 13.6043 4.03747 13.6942 4.04836M13.1605 3.92038C13.1986 3.92038 13.2258 3.86592 13.2912 3.93127C13.3184 3.9585 13.3565 3.97211 13.3837 3.97211M13.3565 4.11371C13.3021 4.1954 13.2122 4.24441 13.1605 4.21991M13.1332 3.78967C13.0951 3.8169 13.0706 3.86592 13.0434 3.90676M13.0052 3.98301V4.04836" stroke="white" stroke-width="0.418253" stroke-linejoin="round"/>
<path d="M14.4022 3.78967C14.1271 3.58 13.8004 3.38395 13.5009 3.34583C13.8134 3.55419 14.1101 3.78537 14.3886 4.03747" fill="black"/>
<path d="M14.4022 3.78967C14.1271 3.58 13.8004 3.38395 13.5009 3.34583C13.8134 3.55419 14.1101 3.78537 14.3886 4.03747" stroke="white" stroke-width="0.418253" stroke-linejoin="round"/>
<path d="M14.5574 3.59362C14.2306 3.37033 13.8521 3.12254 13.4872 3.09803C13.8287 3.29591 14.1328 3.55212 14.3858 3.85502M14.974 3.22873C15.1214 2.89365 15.3397 2.59451 15.6139 2.35193C15.4832 2.62695 15.3416 3.18789 15.2735 3.41118" fill="black"/>
<path d="M14.5574 3.59362C14.2306 3.37033 13.8521 3.12254 13.4872 3.09803C13.8287 3.29591 14.1328 3.55212 14.3858 3.85502M14.974 3.22873C15.1214 2.89365 15.3397 2.59451 15.6139 2.35193C15.4832 2.62695 15.3416 3.18789 15.2735 3.41118" stroke="white" stroke-width="0.418253" stroke-linejoin="round"/>
<path d="M15.2626 3.16336C15.3888 2.85653 15.6261 2.60857 15.927 2.46899C15.7009 2.75109 15.5325 3.07493 15.4315 3.42204" fill="black"/>
<path d="M15.2626 3.16336C15.3888 2.85653 15.6261 2.60857 15.927 2.46899C15.7009 2.75109 15.5325 3.07493 15.4315 3.42204" stroke="white" stroke-width="0.418253" stroke-linejoin="round"/>
<path d="M15.3797 3.42211C15.6297 3.03941 15.988 2.73986 16.409 2.56165C16.0822 2.88841 15.6003 3.48747 15.4832 3.72437M15.5621 3.71075C15.7963 3.58005 16.2674 3.37038 16.605 3.43845C16.3981 3.5147 15.7718 3.80061 15.4968 4.06474" fill="black"/>
<path d="M15.3797 3.42211C15.6297 3.03941 15.988 2.73986 16.409 2.56165C16.0822 2.88841 15.6003 3.48747 15.4832 3.72437M15.5621 3.71075C15.7963 3.58005 16.2674 3.37038 16.605 3.43845C16.3981 3.5147 15.7718 3.80061 15.4968 4.06474" stroke="white" stroke-width="0.418253" stroke-linejoin="round"/>
<path d="M15.5104 3.61817C15.731 3.38399 16.1367 3.03273 16.567 2.88841C16.2538 3.18794 15.5867 3.86869 15.4968 3.97216M14.8842 3.47658C14.7262 2.99188 14.492 2.53714 14.1408 2.39282C14.4206 2.79283 14.6152 3.24605 14.7126 3.72437M14.5819 3.46296C14.3232 3.14982 13.9692 2.83667 13.5662 2.77132C13.9611 3.02974 14.2731 3.39657 14.4648 3.82784" fill="black"/>
<path d="M15.5104 3.61817C15.731 3.38399 16.1367 3.03273 16.567 2.88841C16.2538 3.18794 15.5867 3.86869 15.4968 3.97216M14.8842 3.47658C14.7262 2.99188 14.492 2.53714 14.1408 2.39282C14.4206 2.79283 14.6152 3.24605 14.7126 3.72437M14.5819 3.46296C14.3232 3.14982 13.9692 2.83667 13.5662 2.77132C13.9611 3.02974 14.2731 3.39657 14.4648 3.82784" stroke="white" stroke-width="0.418253" stroke-linejoin="round"/>
<path d="M14.7289 3.44936C14.4022 2.86119 14.1517 2.75771 14.0101 2.64062C14.1272 2.86119 14.4131 3.44936 14.5819 3.69715" fill="black"/>
<path d="M14.7289 3.44936C14.4022 2.86119 14.1517 2.75771 14.0101 2.64062C14.1272 2.86119 14.4131 3.44936 14.5819 3.69715" stroke="white" stroke-width="0.418253" stroke-linejoin="round"/>
<path d="M14.0754 3.41113C14.2617 3.52825 14.4212 3.68317 14.5438 3.86587" stroke="white" stroke-width="0.418253" stroke-linejoin="round"/>
<path d="M14.0754 3.68343C14.1517 3.74878 14.296 3.82775 14.4267 3.94484ZM15.6275 3.87949C15.7583 3.77601 16.0442 3.60719 16.1885 3.55273ZM15.535 3.78963C15.6657 3.61808 15.9271 3.3839 16.0197 3.30493ZM15.8998 2.97817C15.7244 3.17482 15.559 3.38021 15.4043 3.59357ZM15.5622 2.86108C15.4386 3.04388 15.3294 3.23597 15.2354 3.43564ZM14.5302 2.88831C14.6091 3.09798 14.7535 3.44925 14.8025 3.59357ZM14.4131 3.10888C14.4676 3.19057 14.571 3.37028 14.6091 3.50099Z" fill="black"/>
<path d="M14.0754 3.68343C14.1517 3.74878 14.296 3.82775 14.4267 3.94484M15.6275 3.87949C15.7583 3.77601 16.0442 3.60719 16.1885 3.55273M15.535 3.78963C15.6657 3.61808 15.9271 3.3839 16.0197 3.30493M15.8998 2.97817C15.7244 3.17482 15.559 3.38021 15.4043 3.59357M15.5622 2.86108C15.4386 3.04388 15.3294 3.23597 15.2354 3.43564M14.5302 2.88831C14.6091 3.09798 14.7535 3.44925 14.8025 3.59357M14.4131 3.10888C14.4676 3.19057 14.571 3.37028 14.6091 3.50099" stroke="white" stroke-width="0.418253" stroke-linejoin="round"/>
<path d="M14.8569 3.04353C14.8569 2.92644 14.9358 2.79846 15.0148 2.79846C15.1047 2.79846 15.17 2.95367 15.17 3.04353C15.17 3.14973 15.0911 3.23959 15.0148 3.23959C14.9331 3.23959 14.8569 3.16334 14.8569 3.04353Z" fill="black" stroke="white" stroke-width="0.418253" stroke-linejoin="round"/>
<path d="M14.688 3.14973C14.7016 3.01903 14.7915 2.91555 14.8705 2.92645C14.9494 2.94006 14.9876 3.098 14.9739 3.18785C14.9603 3.29133 14.8705 3.3703 14.8051 3.35668C14.7398 3.35668 14.6744 3.26682 14.688 3.14973ZM15.0393 3.18785C15.0121 3.07077 15.0665 2.94278 15.1455 2.92645C15.2217 2.91555 15.3007 3.04354 15.3143 3.14973C15.3416 3.25321 15.2735 3.35668 15.2081 3.35668C15.1455 3.3703 15.0529 3.30494 15.0393 3.18785Z" fill="black" stroke="white" stroke-width="0.418253" stroke-linejoin="round"/>
<path d="M14.8433 3.29133C14.8433 3.16335 14.9222 3.04626 15.0012 3.04626C15.0911 3.04626 15.1564 3.18786 15.1564 3.29133C15.1564 3.39753 15.0802 3.48739 15.0012 3.48739C14.9222 3.48739 14.8433 3.41115 14.8433 3.29133Z" fill="black" stroke="white" stroke-width="0.418253" stroke-linejoin="round"/>
<path d="M14.6091 3.35674C14.6091 3.23965 14.7017 3.11167 14.7779 3.11167C14.8596 3.11167 14.9358 3.26688 14.9358 3.35674C14.9358 3.46294 14.8432 3.5528 14.7779 3.5528C14.7017 3.5528 14.6091 3.47656 14.6091 3.35674ZM15.091 3.30501C15.091 3.18792 15.1727 3.05994 15.249 3.05994C15.3388 3.05994 15.4042 3.21515 15.4042 3.30501C15.4042 3.4112 15.3279 3.50106 15.249 3.50106C15.17 3.50106 15.091 3.4221 15.091 3.30501Z" fill="black" stroke="white" stroke-width="0.418253" stroke-linejoin="round"/>
<path d="M15.0393 3.41112C15.0393 3.28042 15.1319 3.16333 15.2081 3.16333C15.2898 3.16333 15.3661 3.30493 15.3661 3.4084C15.3661 3.5146 15.2871 3.60718 15.2081 3.60718C15.1319 3.60718 15.0393 3.52549 15.0393 3.41112Z" fill="black" stroke="white" stroke-width="0.418253" stroke-linejoin="round"/>
<path d="M14.8324 3.52825C14.8324 3.39755 14.9086 3.28046 14.9876 3.28046C15.0802 3.28046 15.1455 3.43567 15.1455 3.52553C15.1455 3.63445 15.0638 3.72431 14.9876 3.72431C14.9086 3.72431 14.8297 3.64262 14.8297 3.52825H14.8324ZM14.5056 3.52825C14.5056 3.39755 14.571 3.28046 14.6363 3.28046C14.7017 3.28046 14.7534 3.43567 14.7534 3.52553C14.7534 3.63445 14.6881 3.72431 14.6363 3.72431C14.571 3.72431 14.5056 3.64262 14.5056 3.52825ZM15.2354 3.50375C15.2354 3.38393 15.3007 3.26685 15.3661 3.26685C15.4314 3.26685 15.4968 3.41116 15.4968 3.50102C15.4968 3.61811 15.4178 3.69708 15.3661 3.69708C15.3007 3.69708 15.2354 3.61811 15.2354 3.50102V3.50375Z" fill="black" stroke="white" stroke-width="0.418253" stroke-linejoin="round"/>
<path d="M15.3144 3.72158C15.3416 3.5936 15.4178 3.4874 15.4696 3.50374C15.524 3.51463 15.5349 3.66984 15.5104 3.76243C15.4968 3.87951 15.4178 3.94487 15.3661 3.93125C15.3116 3.92036 15.2871 3.82778 15.3116 3.7243L15.3144 3.72158Z" fill="black" stroke="white" stroke-width="0.418253" stroke-linejoin="round"/>
<path d="M15.0665 3.68344C15.0802 3.56635 15.1564 3.44926 15.2218 3.46287C15.3007 3.46287 15.3388 3.61809 15.328 3.70794C15.3143 3.82776 15.2463 3.90672 15.1836 3.89311C15.1183 3.89311 15.0529 3.80053 15.0665 3.68344ZM14.7017 3.72156C14.6608 3.59358 14.5818 3.50372 14.5301 3.51461C14.4784 3.52823 14.4648 3.68344 14.492 3.77602C14.5192 3.87949 14.5955 3.94485 14.6472 3.93123C14.688 3.92034 14.7289 3.82776 14.7017 3.72428V3.72156Z" fill="black" stroke="white" stroke-width="0.418253" stroke-linejoin="round"/>
<path d="M14.6091 3.69707C14.6091 3.57998 14.6744 3.46289 14.7398 3.46289C14.8187 3.46289 14.8705 3.60721 14.8705 3.69707C14.8705 3.81416 14.8051 3.89312 14.7398 3.89312C14.6853 3.89312 14.6091 3.81416 14.6091 3.69707Z" fill="black" stroke="white" stroke-width="0.418253" stroke-linejoin="round"/>
<path d="M14.8051 3.74881C14.8051 3.6181 14.8841 3.50374 14.9604 3.50374C15.0529 3.50374 15.1183 3.64533 15.1183 3.74881C15.1183 3.855 15.0393 3.94486 14.9604 3.94486C14.8841 3.94486 14.8051 3.8659 14.8051 3.74881ZM14.8705 2.31379C14.8433 2.41726 14.7534 2.50984 14.816 2.65416C14.7017 2.61332 14.5982 2.5997 14.5056 2.7059C14.6227 2.69228 14.7262 2.73313 14.7779 2.80937C14.6744 2.79576 14.6227 2.85022 14.5955 2.91557C14.6881 2.88834 14.7779 2.86111 14.8188 2.87472C14.7779 2.91557 14.7126 2.9782 14.7017 3.03266C14.7779 2.96731 14.8705 2.9782 14.9222 2.94008C14.8841 3.03266 14.9604 3.12252 15.0257 3.21238C15.0148 3.08439 15.0911 2.99454 15.0529 2.92646C15.17 2.95369 15.1836 3.05716 15.3525 3.05716C15.2871 3.01904 15.249 2.88834 15.17 2.88834C15.2081 2.87472 15.3661 2.86111 15.3933 2.88834C15.3661 2.83388 15.2735 2.78486 15.2218 2.78486C15.2762 2.7304 15.3661 2.62693 15.4314 2.5997C15.3389 2.61332 15.1973 2.62693 15.1455 2.7059C15.2735 2.5997 15.249 2.40637 15.3906 2.37914C15.3143 2.36552 15.1973 2.41726 15.1047 2.50984C15.1455 2.43087 15.1455 2.3274 15.1973 2.30017C15.0911 2.3274 14.974 2.4581 14.9358 2.52346C14.9302 2.44952 14.9079 2.37783 14.8705 2.31379Z" fill="black" stroke="white" stroke-width="0.418253" stroke-linejoin="round"/>
<path d="M14.9359 2.5235C14.9359 2.56162 14.9359 2.64059 14.9222 2.6651ZM15.1047 2.50989C15.0775 2.53712 15.0257 2.62698 15.0257 2.70594Z" fill="black"/>
<path d="M14.9359 2.5235C14.9359 2.56162 14.9359 2.64059 14.9222 2.6651M15.1047 2.50989C15.0775 2.53712 15.0257 2.62698 15.0257 2.70594" stroke="white" stroke-width="0.418253" stroke-linejoin="round"/>
<path d="M15.1836 2.66504C15.1388 2.69185 15.1057 2.73465 15.0911 2.78485" stroke="white" stroke-width="0.418253" stroke-linejoin="round"/>
<path d="M10.9548 11.5802C11.0338 11.7871 11.5947 12.0622 12.2483 11.7109C12.6921 11.4604 12.978 11.1118 13.2531 10.4856C13.3293 10.3276 13.3701 10.1316 13.1877 10.0145C13.0434 9.90827 12.8065 9.79119 12.703 9.68771C12.6513 9.63325 12.5995 9.59513 12.5614 9.55701C12.5886 9.58424 12.6132 9.60874 12.6377 9.64687C12.8991 9.96001 12.6268 10.4175 12.3381 10.6925C12.1285 10.8886 11.7527 11.3705 11.2026 10.9131C11.0855 10.8096 10.8105 11.2398 10.9576 11.5802H10.9548ZM18.8897 11.5802C18.7971 11.7871 18.2361 12.0622 17.5962 11.7109C17.1551 11.4604 16.8665 11.1118 16.5806 10.4856C16.5152 10.3276 16.4744 10.1316 16.6568 10.0145C16.8011 9.90827 17.038 9.79119 17.1415 9.68771C17.1932 9.63325 17.2314 9.59513 17.2831 9.55701C17.2559 9.58424 17.2314 9.60874 17.2069 9.64687C16.9454 9.96001 17.2177 10.4175 17.4928 10.6925C17.7024 10.8886 18.0918 11.3705 18.6419 10.9131C18.759 10.8096 19.0204 11.2398 18.8869 11.5802H18.8897Z" fill="#FCEA83" stroke="black" stroke-width="0.0609952"/>
<path d="M14.9223 12.7021C15.9652 12.7021 17.5718 12.231 18.4349 10.5863C18.5765 10.314 18.4349 10.1697 18.2634 10.0798C18.0695 9.98216 17.8929 9.85338 17.7406 9.69861C17.9503 9.90828 17.9094 10.0526 17.7678 10.2868C17.1007 11.3978 16.1885 11.9587 14.9223 11.9587C13.6561 11.9587 12.7439 11.3978 12.0767 10.2868C11.9351 10.0526 11.8943 9.90828 12.0904 9.70133C11.9404 9.85801 11.7632 9.98625 11.5675 10.0798C11.3987 10.1697 11.2544 10.314 11.3987 10.5863C12.2592 12.231 13.8766 12.7021 14.9223 12.7021Z" fill="#FCEA83" stroke="black" stroke-width="0.0609952"/>
<path d="M12.5069 10.4964C12.4797 10.3657 12.3136 10.4174 12.2619 10.5754C12.1914 10.485 12.1294 10.3884 12.0767 10.2867C11.9215 10.0525 11.8943 9.8946 12.1176 9.67404C12.221 9.57056 12.4307 9.45075 12.5723 9.58146C12.8718 9.82925 12.7166 10.235 12.5069 10.4964ZM17.3239 10.4964C17.3512 10.3657 17.5336 10.4174 17.5853 10.5754C17.6507 10.4828 17.716 10.3929 17.7678 10.2867C17.923 10.0525 17.9502 9.8946 17.7133 9.67404C17.6235 9.57056 17.4138 9.45075 17.2586 9.58146C16.9699 9.82925 17.1143 10.235 17.3239 10.4964ZM10.9548 11.5801C10.8241 11.3841 10.7207 10.8722 10.6934 10.7442C10.6553 10.6271 10.6417 10.5209 10.786 10.4719C10.9303 10.4174 11.0583 10.5999 11.1237 10.7578C11.189 10.913 11.2952 11.1472 11.4123 11.4358C11.1237 11.267 10.8895 11.3814 10.9548 11.5801ZM18.8897 11.5801C19.0067 11.3841 19.1102 10.8722 19.1511 10.7442C19.1783 10.6271 19.2028 10.5209 19.0585 10.4719C18.9142 10.4174 18.7862 10.5999 18.7208 10.7578C18.6555 10.913 18.5493 11.1472 18.4322 11.4358C18.7208 11.267 18.9414 11.3814 18.8897 11.5801Z" fill="#C8102E" stroke="black" stroke-width="0.0609952"/>
<path d="M11.7118 10.4038L11.6083 10.4583C11.5811 10.4692 11.5811 10.4964 11.5811 10.51H11.5675L11.5157 10.3929H11.5294C11.5294 10.4038 11.543 10.4201 11.5675 10.4038L11.7908 10.2867C11.818 10.2731 11.818 10.2595 11.8044 10.2486L11.8153 10.235L11.8806 10.3657H11.8697C11.8561 10.3521 11.8425 10.3385 11.8153 10.3521L11.7254 10.4065L11.7635 10.4828L11.8697 10.4447C11.897 10.431 11.8806 10.4038 11.8806 10.3902H11.8942L11.9487 10.51C11.9351 10.4964 11.9215 10.4828 11.8942 10.4964L11.6737 10.6135C11.6465 10.6271 11.6465 10.6407 11.6601 10.6516L11.6465 10.6652L11.5811 10.5481L11.5947 10.5345C11.6083 10.5481 11.6219 10.5617 11.6492 10.5481L11.7526 10.4937L11.7118 10.4038ZM11.9351 10.5754C11.9623 10.5617 11.9623 10.5481 11.946 10.5209H11.9596L12.0903 10.717L12.0004 10.7823V10.7714C12.0522 10.7306 12.0522 10.6788 12.0386 10.6652C12.0249 10.6516 12.0113 10.638 12.0113 10.6271C12.0004 10.6271 12.0004 10.6135 11.9732 10.6407L11.8806 10.7061C11.8942 10.717 11.9079 10.7578 11.9732 10.717H11.9868L11.8425 10.8232V10.8095C11.9079 10.7551 11.8806 10.717 11.8697 10.7061L11.7772 10.7714C11.7499 10.7823 11.7499 10.7986 11.7499 10.8095C11.7635 10.8095 11.7635 10.8232 11.7772 10.8368C11.7908 10.864 11.8316 10.8885 11.8942 10.864L11.9079 10.8749L11.8044 10.913L11.6737 10.7061H11.6873C11.6982 10.717 11.7145 10.7333 11.739 10.717L11.9351 10.5754ZM12.142 11.0709L12.0522 11.1472C12.0386 11.1608 12.0386 11.188 12.0522 11.2017H12.0386L11.946 11.1091L11.9596 11.0955C11.9732 11.1091 11.9868 11.1227 12.0141 11.0955L12.1829 10.9266C12.2101 10.913 12.2101 10.8994 12.1938 10.8722L12.2864 10.9811C12.2727 10.9647 12.2482 10.9647 12.2319 10.9811L12.1557 11.0573L12.221 11.1227L12.3 11.0573C12.3272 11.0301 12.3136 11.0192 12.3 11.0029L12.3136 10.992L12.4034 11.0955H12.3898C12.3789 11.0955 12.3626 11.0846 12.3381 11.1091L12.1693 11.267C12.142 11.2942 12.142 11.3051 12.1557 11.3187V11.3324L12.0658 11.2262C12.0767 11.2262 12.1039 11.2398 12.1175 11.2262L12.2074 11.1363L12.142 11.0709ZM12.3381 11.346L12.3789 11.3841L12.4307 11.267C12.4307 11.267 12.3898 11.2779 12.3245 11.3187L12.3381 11.346L12.3245 11.3569L12.2972 11.3296C12.2864 11.3432 12.2727 11.3432 12.2591 11.3569C12.221 11.3841 12.2319 11.3977 12.2482 11.4113V11.4222L12.1829 11.3569H12.1938L12.2482 11.3432L12.5069 11.2017L12.5205 11.2125C12.5205 11.2125 12.5069 11.2262 12.3898 11.4876C12.3898 11.5148 12.3789 11.5257 12.3898 11.5529L12.2864 11.4631L12.3 11.4494C12.3136 11.4767 12.3381 11.4767 12.3517 11.4494C12.3517 11.4358 12.3653 11.4086 12.3653 11.395L12.3245 11.3569L12.3381 11.3432V11.346ZM12.4416 11.6047L12.4552 11.591C12.4688 11.6047 12.4824 11.6047 12.5096 11.591L12.6785 11.3705L12.6649 11.3569C12.6376 11.3432 12.5995 11.3432 12.5614 11.3841V11.3705L12.6131 11.3051L12.8092 11.4494L12.7438 11.5257H12.7302C12.7683 11.4876 12.7574 11.4358 12.7302 11.4222V11.4086L12.5614 11.6319C12.5341 11.6455 12.5478 11.67 12.5614 11.6836H12.5478L12.4416 11.6047Z" fill="#00493D"/>
<path d="M12.7819 11.6564L12.7166 11.749C12.703 11.7762 12.7166 11.7871 12.7302 11.8035L12.7166 11.8143L12.6131 11.7354V11.7218C12.6403 11.7354 12.6512 11.7354 12.6648 11.7109L12.8092 11.5148C12.82 11.4876 12.8092 11.474 12.7955 11.4604L12.8092 11.4495L12.9126 11.5257V11.5393C12.8854 11.5257 12.8745 11.5257 12.8582 11.5529L12.7955 11.6455L12.8745 11.6973L12.9399 11.6047C12.9508 11.5774 12.9399 11.5666 12.9262 11.5529L12.9399 11.5393L13.0433 11.6183V11.6319C13.0297 11.6183 13.0052 11.6183 12.9889 11.6455L12.8609 11.8525C12.8337 11.8661 12.8473 11.8797 12.8609 11.8933V11.9042L12.7438 11.828H12.7574C12.7683 11.828 12.7846 11.828 12.7955 11.8143L12.8609 11.7109L12.7819 11.6564ZM13.0433 12.024L13.0569 12.0104C13.0706 12.024 13.0951 12.024 13.1087 11.9968L13.2122 11.7762C13.2258 11.749 13.2122 11.7354 13.1985 11.7218L13.4218 11.828L13.3674 11.9314L13.3565 11.9178C13.3946 11.8661 13.3565 11.8143 13.3429 11.8007C13.3292 11.8007 13.3156 11.7871 13.3047 11.7871C13.2911 11.7871 13.2911 11.7871 13.2775 11.8143C13.2639 11.828 13.2258 11.9042 13.2258 11.9042C13.2394 11.9178 13.2639 11.945 13.3184 11.877H13.3292L13.253 12.0349L13.2394 12.024C13.2775 11.9423 13.2258 11.9314 13.2122 11.9314L13.1604 12.0349C13.1468 12.0621 13.1604 12.0758 13.174 12.0758V12.0894L13.0433 12.024ZM13.4218 12.2065C13.3837 12.1792 13.3837 12.1003 13.4218 12.024C13.4491 11.9423 13.5008 11.8797 13.5525 11.9042C13.5907 11.9178 13.5798 11.9968 13.5525 12.0758C13.5117 12.1656 13.46 12.2173 13.4218 12.2065H13.4082C13.5008 12.2446 13.5661 12.1928 13.6043 12.1003C13.6424 12.024 13.6315 11.9314 13.5498 11.8933C13.4736 11.8525 13.3946 11.9042 13.3565 11.9968C13.3184 12.0894 13.3292 12.1792 13.4109 12.2065H13.4218ZM13.8248 12.231L13.8793 12.0758C13.8902 12.0485 13.8793 12.0349 13.8657 12.0213L13.931 12.0349V12.0485C13.9174 12.0485 13.9038 12.0485 13.8902 12.0758L13.8384 12.231C13.8112 12.2963 13.7731 12.3481 13.6969 12.3235C13.6424 12.3099 13.6043 12.2446 13.6315 12.1792L13.6969 12.0104C13.7077 11.9832 13.6969 11.9696 13.6832 11.9559V11.945L13.8003 11.9968V12.0104C13.7867 11.9968 13.7622 11.9968 13.7622 12.024L13.6941 12.1901C13.6805 12.2419 13.6805 12.2936 13.7214 12.3072C13.7595 12.3208 13.7976 12.2936 13.8221 12.2282L13.8248 12.231ZM13.9446 12.0621C13.9446 12.0485 13.9446 12.0485 13.931 12.0485L14.0209 12.0621L14.1026 12.3099L14.1407 12.152C14.1516 12.1248 14.1407 12.1139 14.1271 12.1003L14.2033 12.1139L14.1924 12.1275C14.1788 12.1275 14.1652 12.1275 14.1516 12.1547L14.0862 12.4406H14.0753L13.9692 12.1275L13.9038 12.3372C13.9038 12.3753 13.9174 12.3753 13.931 12.3889V12.4025L13.8521 12.3753V12.3617C13.8657 12.3753 13.8902 12.3617 13.8902 12.3344L13.9555 12.1003L13.9446 12.0621ZM14.3885 12.3235C14.3613 12.4406 14.3068 12.4679 14.2823 12.4679H14.2551C14.2551 12.4679 14.2442 12.4543 14.2551 12.4406L14.2959 12.1792C14.3095 12.1656 14.3095 12.152 14.3231 12.1656H14.3504C14.3749 12.1656 14.3994 12.2201 14.3885 12.3235L14.4266 12.3372C14.4538 12.2065 14.3994 12.152 14.334 12.1411C14.2823 12.1275 14.2033 12.1139 14.2033 12.1139V12.1275C14.2169 12.1411 14.2442 12.1411 14.2306 12.182L14.1924 12.4134C14.1788 12.4406 14.1652 12.4543 14.1516 12.4543H14.1407L14.2687 12.4815C14.334 12.4924 14.3994 12.4815 14.4266 12.3372L14.3885 12.3235ZM14.5056 12.2173C14.5056 12.1901 14.4784 12.1792 14.4647 12.1792V12.1656L14.7016 12.1928L14.688 12.2963C14.688 12.231 14.6472 12.2065 14.6227 12.2065C14.6091 12.1928 14.5954 12.1928 14.5818 12.1928C14.5709 12.1928 14.5709 12.1928 14.5709 12.231L14.5573 12.3372C14.5709 12.3372 14.6091 12.3481 14.6363 12.2718L14.6227 12.4406H14.6091C14.6091 12.3617 14.5709 12.3617 14.5546 12.3617L14.5437 12.4788C14.5437 12.506 14.5437 12.506 14.5573 12.506L14.5846 12.5196C14.6227 12.5196 14.6608 12.506 14.688 12.427H14.7016L14.6744 12.5305L14.4266 12.5033C14.4538 12.5033 14.4647 12.4924 14.4811 12.4679L14.5056 12.2173ZM14.9358 12.3753C14.9358 12.4924 14.895 12.5305 14.8569 12.5305C14.8432 12.5196 14.8432 12.5196 14.8296 12.5196L14.8187 12.506L14.8323 12.2337C14.8323 12.2173 14.8323 12.2173 14.8432 12.2173H14.8705C14.8977 12.2173 14.9358 12.2582 14.9358 12.3753H14.9876C14.9876 12.2446 14.9222 12.2065 14.8569 12.2065C14.8024 12.1928 14.7261 12.1928 14.7261 12.1928V12.2065C14.7398 12.2065 14.767 12.2173 14.767 12.2446L14.7534 12.4924C14.7534 12.5196 14.7398 12.5305 14.7261 12.5305V12.5441H14.8432C14.9086 12.5441 14.9739 12.5169 14.9876 12.3753H14.9331H14.9358ZM15.3143 12.4788C15.3143 12.506 15.3279 12.506 15.3524 12.506V12.5196L15.2081 12.5305C15.2217 12.5196 15.249 12.5033 15.249 12.4788L15.2217 12.2337C15.2081 12.2065 15.1945 12.2065 15.17 12.2065V12.1928L15.3143 12.1792C15.3007 12.1928 15.2735 12.2065 15.2871 12.2337L15.3143 12.4788ZM15.445 12.506V12.4924C15.4586 12.4924 15.4722 12.4788 15.4722 12.4543L15.4178 12.182H15.4042C15.3769 12.1928 15.3524 12.2173 15.3661 12.2718H15.3524L15.3388 12.1792L15.5757 12.1411L15.5866 12.231H15.5757C15.5757 12.1792 15.5349 12.1656 15.494 12.1656H15.4831L15.5376 12.4379C15.5376 12.4651 15.5485 12.4788 15.5757 12.4788V12.4924L15.445 12.506ZM16.006 12.2446L15.9515 12.0894C15.9515 12.0621 15.927 12.0621 15.9134 12.0621V12.0485L15.9787 12.0213V12.0349C15.9651 12.0485 15.9651 12.0485 15.9651 12.0758L16.0196 12.2446C16.0305 12.299 16.0305 12.3753 15.9542 12.4025C15.8998 12.4134 15.8371 12.3889 15.8235 12.3099L15.7691 12.1411C15.7582 12.1139 15.7445 12.1139 15.7309 12.1139L15.7173 12.1003L15.848 12.0621V12.0758C15.8371 12.0894 15.8208 12.103 15.8371 12.1275L15.8753 12.2963C15.8889 12.3508 15.9297 12.3753 15.9651 12.3753C16.006 12.3617 16.0196 12.3099 16.006 12.2446ZM16.1503 12.152C16.2129 12.1248 16.202 12.0894 16.1884 12.0485C16.1748 12.0104 16.1503 11.9832 16.123 11.9968C16.1094 11.9968 16.0958 12.0104 16.1094 12.024L16.1503 12.152L16.1612 12.1656L16.1884 12.2718C16.202 12.299 16.2265 12.299 16.2429 12.2827V12.2963L16.123 12.3508L16.1094 12.3372C16.1367 12.3235 16.1367 12.3099 16.1367 12.2827L16.0441 12.0621C16.0305 12.024 16.0168 12.0349 15.9923 12.0349V12.024L16.123 11.9696C16.1775 11.9587 16.2265 11.9696 16.2537 12.024C16.2674 12.0894 16.2401 12.1275 16.1884 12.1547C16.1748 12.1547 16.1612 12.1656 16.1612 12.1656L16.1503 12.152Z" fill="#00493D"/>
<path d="M16.4743 12.1901C16.4362 12.2065 16.3845 12.152 16.3436 12.0622C16.3055 11.9832 16.3055 11.9042 16.3436 11.8933C16.3845 11.8797 16.4362 11.9315 16.4743 12.0104C16.5152 12.0894 16.5152 12.1656 16.4743 12.1929C16.556 12.1656 16.5805 12.0758 16.5397 11.9832C16.5015 11.9042 16.4226 11.8525 16.3436 11.8797C16.3253 11.8889 16.309 11.9017 16.2957 11.9173C16.2825 11.933 16.2725 11.9511 16.2664 11.9707C16.2603 11.9902 16.2582 12.0108 16.2602 12.0312C16.2623 12.0516 16.2684 12.0714 16.2783 12.0894C16.3191 12.1793 16.3981 12.231 16.4743 12.1929V12.1901ZM16.4879 11.828H16.4634L16.5397 11.7735L16.7766 11.9042L16.6949 11.7626C16.684 11.7354 16.6568 11.7354 16.6459 11.7354V11.7218L16.7112 11.6946C16.6976 11.7109 16.684 11.7218 16.7112 11.749L16.8419 12.0104L16.8283 12.024L16.5397 11.8661L16.6459 12.0622C16.6568 12.0894 16.684 12.0894 16.6976 12.0758V12.0894L16.6323 12.1275V12.1139C16.6459 12.1003 16.6459 12.0867 16.6323 12.0622L16.5288 11.8525L16.4879 11.8253V11.828ZM17.0761 11.8661V11.8525C17.0761 11.8389 17.0897 11.8253 17.0761 11.8008L16.9182 11.5802H16.9046C16.8773 11.5911 16.8664 11.6455 16.9046 11.6837L16.8937 11.6973L16.8392 11.6047L17.0353 11.474L17.0897 11.5557C17.0489 11.5148 17.008 11.5148 16.9835 11.5285L16.9699 11.5394L17.1278 11.7626C17.1415 11.7899 17.166 11.7899 17.1823 11.7763V11.7871L17.0761 11.8661Z" fill="#00493D"/>
<path d="M17.2204 11.553L17.2967 11.6455C17.3103 11.6564 17.3375 11.6564 17.3511 11.6455V11.6564L17.2449 11.749V11.7354C17.2586 11.7218 17.2586 11.7082 17.2449 11.6837L17.0897 11.4876C17.0761 11.4604 17.0625 11.474 17.0353 11.474L17.1415 11.3841V11.3977C17.1415 11.4086 17.1279 11.425 17.1415 11.4495L17.2068 11.5257L17.2831 11.474L17.2204 11.3841C17.2068 11.3569 17.1796 11.3705 17.166 11.3705L17.2722 11.2779V11.2915C17.2586 11.3052 17.2586 11.3188 17.2722 11.346L17.4274 11.5393C17.441 11.553 17.4546 11.553 17.4682 11.5393L17.4791 11.553L17.3757 11.6455L17.362 11.6319C17.3757 11.6183 17.3893 11.6047 17.3757 11.5775L17.2967 11.4876L17.2204 11.553ZM17.3375 11.2779C17.3239 11.267 17.2967 11.267 17.2831 11.2779V11.267L17.4546 11.1091L17.5336 11.1881H17.52C17.4791 11.1336 17.4274 11.1608 17.4029 11.1745C17.4029 11.1881 17.3893 11.1881 17.3757 11.2017C17.3757 11.2017 17.3757 11.2126 17.3893 11.2398L17.4682 11.3188C17.4791 11.3052 17.52 11.2779 17.4682 11.2126H17.4791L17.5853 11.3324V11.3433C17.52 11.2779 17.4927 11.3161 17.4791 11.3324L17.5608 11.4086C17.5717 11.4359 17.5853 11.4359 17.5853 11.4359L17.6234 11.3977C17.6371 11.3841 17.6507 11.3433 17.6234 11.267H17.6371L17.6888 11.3569L17.52 11.5257L17.5064 11.5148C17.52 11.5012 17.5336 11.4876 17.5064 11.4604L17.3375 11.2779ZM17.6507 10.913C17.6371 10.9267 17.6371 10.9539 17.6616 10.9675C17.6888 10.992 17.716 10.992 17.7678 10.9675C17.795 10.9539 17.844 10.9403 17.8849 10.9784C17.9502 11.0438 17.923 11.0955 17.9121 11.1227C17.8985 11.1363 17.8712 11.15 17.8576 11.1608C17.844 11.1608 17.844 11.1608 17.844 11.1745V11.1881L17.7541 11.1091H17.7678C17.8195 11.1363 17.8712 11.1472 17.8985 11.1091C17.9257 11.0819 17.8985 11.0546 17.8849 11.0438C17.8576 11.0165 17.8304 11.0165 17.7923 11.0438C17.7541 11.0574 17.7024 11.0574 17.6616 11.0301C17.6098 10.9784 17.6098 10.9403 17.6343 10.8994L17.6888 10.8613C17.7024 10.8613 17.7024 10.8613 17.6888 10.8341L17.7814 10.8994H17.7678C17.7024 10.8722 17.6616 10.8885 17.6507 10.913ZM17.7678 10.8096C17.7405 10.796 17.7269 10.8096 17.7133 10.8232H17.7024L17.8467 10.6135L17.9366 10.6789L17.923 10.6925C17.9067 10.6785 17.8859 10.6708 17.8644 10.6708C17.843 10.6708 17.8222 10.6785 17.8059 10.6925C17.8059 10.7061 17.7923 10.7197 17.7923 10.7306C17.7814 10.7306 17.7814 10.7442 17.8059 10.7578C17.8195 10.7715 17.8985 10.8232 17.8985 10.8232C17.9121 10.8096 17.9366 10.7823 17.8849 10.7306V10.717L18.0156 10.8232C17.9366 10.7823 17.923 10.8232 17.9121 10.8341L18.0019 10.8994C18.0292 10.913 18.0401 10.913 18.0401 10.913C18.0401 10.8994 18.0537 10.8858 18.0673 10.8749C18.0809 10.8477 18.0945 10.8096 18.0401 10.7578L18.0537 10.7442L18.119 10.8232L17.9883 11.0192H17.9747C17.9883 10.992 17.9883 10.9784 17.9638 10.9539L17.7678 10.8096ZM18.119 10.5754L18.0809 10.6407C18.0264 10.5863 18.0019 10.5482 18.0019 10.5482L18.119 10.5754H18.1463C18.1599 10.5754 18.1844 10.5863 18.198 10.5863C18.2361 10.5999 18.2252 10.6135 18.2116 10.6407H18.2252L18.2906 10.5209C18.2634 10.5482 18.2497 10.5346 18.2252 10.5346C17.9502 10.4828 17.9257 10.4692 17.9257 10.4692V10.4828L18.1326 10.717C18.1463 10.7306 18.1463 10.7578 18.1463 10.7715H18.1599L18.198 10.7061L18.1844 10.6925C18.1708 10.7197 18.1572 10.7306 18.1326 10.6925L18.1054 10.6653L18.1463 10.5754H18.119ZM18.0401 10.2868C18.0292 10.3004 18.0292 10.3276 18.0673 10.3412C18.1054 10.3521 18.1218 10.3412 18.1599 10.314C18.198 10.2868 18.2361 10.2595 18.2879 10.2868C18.3695 10.3276 18.3532 10.393 18.3423 10.4175L18.3015 10.4719V10.4964L18.198 10.442C18.2634 10.4556 18.3151 10.442 18.3287 10.4038C18.3423 10.3766 18.3151 10.3521 18.3015 10.3385C18.2742 10.3276 18.2497 10.3385 18.2116 10.3657C18.1708 10.4038 18.1299 10.4202 18.0809 10.393C18.0264 10.3657 18.0019 10.3276 18.0264 10.2868C18.0264 10.2595 18.0537 10.2486 18.0673 10.235C18.0673 10.2214 18.0673 10.2214 18.0537 10.2078V10.1969L18.1599 10.2486H18.1463C18.0809 10.235 18.0401 10.2623 18.0401 10.2868Z" fill="#00493D"/>
<path d="M13.9175 5.66862C13.7486 5.70674 13.6315 5.72036 13.4736 5.57604C13.3701 5.47256 13.3946 5.29012 13.5008 5.22205C13.6179 5.1458 13.7214 5.09407 13.8657 5.13219C14.01 5.17303 14.3885 5.5243 14.296 5.53791C14.2034 5.53791 14.0618 5.62777 13.9175 5.66862ZM14.3205 5.04233C14.3749 5.00148 14.4403 4.97698 14.6091 4.96064C14.767 4.94975 14.8814 4.94975 14.9222 5.06956C14.9767 5.21115 15.0148 5.37998 15.1183 5.45895C15.0529 5.49707 14.7262 5.53791 14.6091 5.47256C14.4539 5.3936 14.413 5.09134 14.3232 5.04233H14.3205ZM15.4451 5.05594C15.4968 5.0151 15.5621 5.0151 15.731 5.02871C15.8998 5.04233 15.9652 5.05594 16.0033 5.17303C16.0441 5.30374 16.0033 5.47256 16.085 5.58965C16.0033 5.61688 15.7446 5.61688 15.652 5.5243C15.5104 5.42083 15.5213 5.11857 15.4451 5.05322V5.05594Z" fill="white" stroke="black" stroke-width="0.0609952"/>
<path d="M16.2266 5.13215C16.1095 5.10492 16.0305 5.09403 15.9815 5.13215C16.0441 5.21111 15.9924 5.52426 16.1231 5.62773C16.2129 5.69309 16.4498 5.70942 16.5016 5.56238C16.5669 5.43168 16.5669 5.23562 16.2293 5.13215H16.2266ZM14.8841 5.00144C14.9222 4.96332 15.0012 4.94971 15.1564 4.94971C15.328 4.94971 15.4287 4.97694 15.4832 5.08041C15.5376 5.21111 15.5213 5.37994 15.6139 5.48614C15.5758 5.53787 15.2218 5.53787 15.1183 5.45891C14.974 5.36633 14.9604 5.0668 14.8841 5.00144ZM13.7759 5.11853C13.7759 5.05318 13.8657 5.04229 14.1026 5.02867C14.3341 5.00144 14.3477 5.01506 14.4267 5.18388C14.4648 5.27647 14.5165 5.43168 14.6227 5.48341C14.3341 5.55149 14.2415 5.58961 14.0863 5.49703C13.9729 5.42614 13.8793 5.3278 13.814 5.21111C13.8004 5.17299 13.8004 5.13215 13.7731 5.11853H13.7759Z" fill="#073163" stroke="black" stroke-width="0.0609952"/>
<path d="M14.4022 3.78967C14.1271 3.58 13.8004 3.38395 13.5009 3.34583C13.8134 3.55419 14.1101 3.78537 14.3886 4.03747" fill="#F9D050"/>
<path d="M14.4022 3.78967C14.1271 3.58 13.8004 3.38395 13.5009 3.34583C13.8134 3.55419 14.1101 3.78537 14.3886 4.03747" stroke="black" stroke-width="0.0261408"/>
<path d="M14.5574 3.59362C14.2306 3.37033 13.8521 3.12254 13.4872 3.09803C13.8287 3.29591 14.1328 3.55212 14.3858 3.85502M14.974 3.22873C15.1214 2.89365 15.3397 2.59451 15.6139 2.35193C15.4832 2.62695 15.3416 3.18789 15.2735 3.41118" fill="#F9D050"/>
<path d="M14.5574 3.59362C14.2306 3.37033 13.8521 3.12254 13.4872 3.09803C13.8287 3.29591 14.1328 3.55212 14.3858 3.85502M14.974 3.22873C15.1214 2.89365 15.3397 2.59451 15.6139 2.35193C15.4832 2.62695 15.3416 3.18789 15.2735 3.41118" stroke="black" stroke-width="0.0261408"/>
<path d="M15.2626 3.16336C15.3888 2.85653 15.6261 2.60857 15.927 2.46899C15.7009 2.75109 15.5325 3.07493 15.4315 3.42204" fill="#F9D050"/>
<path d="M15.2626 3.16336C15.3888 2.85653 15.6261 2.60857 15.927 2.46899C15.7009 2.75109 15.5325 3.07493 15.4315 3.42204" stroke="black" stroke-width="0.0261408"/>
<path d="M15.3797 3.42211C15.6297 3.03941 15.988 2.73986 16.409 2.56165C16.0822 2.88841 15.6003 3.48747 15.4832 3.72437M15.5621 3.71075C15.7963 3.58005 16.2674 3.37038 16.605 3.43845C16.3981 3.5147 15.7718 3.80061 15.4968 4.06474" fill="#F9D050"/>
<path d="M15.3797 3.42211C15.6297 3.03941 15.988 2.73986 16.409 2.56165C16.0822 2.88841 15.6003 3.48747 15.4832 3.72437M15.5621 3.71075C15.7963 3.58005 16.2674 3.37038 16.605 3.43845C16.3981 3.5147 15.7718 3.80061 15.4968 4.06474" stroke="black" stroke-width="0.0261408"/>
<path d="M15.5104 3.61817C15.731 3.38399 16.1367 3.03273 16.567 2.88841C16.2538 3.18794 15.5867 3.86869 15.4968 3.97216M14.8842 3.47658C14.7262 2.99188 14.492 2.53714 14.1408 2.39282C14.4206 2.79283 14.6152 3.24605 14.7126 3.72437M14.5819 3.46296C14.3232 3.14982 13.9692 2.83667 13.5662 2.77132C13.9611 3.02974 14.2731 3.39657 14.4648 3.82784" fill="#F9D050"/>
<path d="M15.5104 3.61817C15.731 3.38399 16.1367 3.03273 16.567 2.88841C16.2538 3.18794 15.5867 3.86869 15.4968 3.97216M14.8842 3.47658C14.7262 2.99188 14.492 2.53714 14.1408 2.39282C14.4206 2.79283 14.6152 3.24605 14.7126 3.72437M14.5819 3.46296C14.3232 3.14982 13.9692 2.83667 13.5662 2.77132C13.9611 3.02974 14.2731 3.39657 14.4648 3.82784" stroke="black" stroke-width="0.0261408"/>
<path d="M14.7289 3.44936C14.4022 2.86119 14.1517 2.75771 14.0101 2.64062C14.1272 2.86119 14.4131 3.44936 14.5819 3.69715" fill="#F9D050"/>
<path d="M14.7289 3.44936C14.4022 2.86119 14.1517 2.75771 14.0101 2.64062C14.1272 2.86119 14.4131 3.44936 14.5819 3.69715" stroke="black" stroke-width="0.0261408"/>
<path d="M14.0754 3.41113C14.2617 3.52825 14.4212 3.68317 14.5438 3.86587" stroke="black" stroke-width="0.0261408"/>
<path d="M14.0754 3.68343C14.1517 3.74878 14.296 3.82775 14.4267 3.94484ZM15.6275 3.87949C15.7583 3.77601 16.0442 3.60719 16.1885 3.55273ZM15.535 3.78963C15.6657 3.61808 15.9271 3.3839 16.0197 3.30493ZM15.8998 2.97817C15.7244 3.17482 15.559 3.38021 15.4043 3.59357ZM15.5622 2.86108C15.4386 3.04388 15.3294 3.23597 15.2354 3.43564ZM14.5302 2.88831C14.6091 3.09798 14.7535 3.44925 14.8025 3.59357ZM14.4131 3.10888C14.4676 3.19057 14.571 3.37028 14.6091 3.50099Z" fill="#F9D050"/>
<path d="M14.0754 3.68343C14.1517 3.74878 14.296 3.82775 14.4267 3.94484M15.6275 3.87949C15.7583 3.77601 16.0442 3.60719 16.1885 3.55273M15.535 3.78963C15.6657 3.61808 15.9271 3.3839 16.0197 3.30493M15.8998 2.97817C15.7244 3.17482 15.559 3.38021 15.4043 3.59357M15.5622 2.86108C15.4386 3.04388 15.3294 3.23597 15.2354 3.43564M14.5302 2.88831C14.6091 3.09798 14.7535 3.44925 14.8025 3.59357M14.4131 3.10888C14.4676 3.19057 14.571 3.37028 14.6091 3.50099" stroke="black" stroke-width="0.0261408"/>
<path d="M14.8569 3.04353C14.8569 2.92644 14.9359 2.79846 15.0149 2.79846C15.1047 2.79846 15.1701 2.95367 15.1701 3.04353C15.1701 3.14973 15.0911 3.23959 15.0149 3.23959C14.9332 3.23959 14.8569 3.16334 14.8569 3.04353Z" fill="#F9D050" stroke="black" stroke-width="0.0261408"/>
<path d="M14.6881 3.14973C14.7017 3.01903 14.7916 2.91555 14.8705 2.92645C14.9495 2.94006 14.9876 3.098 14.974 3.18785C14.9604 3.29133 14.8705 3.3703 14.8052 3.35668C14.7398 3.35668 14.6745 3.26682 14.6881 3.14973ZM15.0394 3.18785C15.0121 3.07077 15.0666 2.94278 15.1456 2.92645C15.2218 2.91555 15.3008 3.04354 15.3144 3.14973C15.3416 3.25321 15.2735 3.35668 15.2082 3.35668C15.1456 3.3703 15.053 3.30494 15.0394 3.18785Z" fill="#F9D050" stroke="black" stroke-width="0.0261408"/>
<path d="M14.8433 3.29133C14.8433 3.16335 14.9223 3.04626 15.0013 3.04626C15.0911 3.04626 15.1565 3.18786 15.1565 3.29133C15.1565 3.39753 15.0802 3.48739 15.0013 3.48739C14.9223 3.48739 14.8433 3.41115 14.8433 3.29133Z" fill="#F9D050" stroke="black" stroke-width="0.0261408"/>
<path d="M14.6091 3.35674C14.6091 3.23965 14.7017 3.11167 14.778 3.11167C14.8596 3.11167 14.9359 3.26688 14.9359 3.35674C14.9359 3.46294 14.8433 3.5528 14.778 3.5528C14.7017 3.5528 14.6091 3.47656 14.6091 3.35674ZM15.0911 3.30501C15.0911 3.18792 15.1728 3.05994 15.249 3.05994C15.3389 3.05994 15.4042 3.21515 15.4042 3.30501C15.4042 3.4112 15.328 3.50106 15.249 3.50106C15.1701 3.50106 15.0911 3.4221 15.0911 3.30501Z" fill="#F9D050" stroke="black" stroke-width="0.0261408"/>
<path d="M15.0394 3.41112C15.0394 3.28042 15.1319 3.16333 15.2082 3.16333C15.2899 3.16333 15.3661 3.30493 15.3661 3.4084C15.3661 3.5146 15.2872 3.60718 15.2082 3.60718C15.1319 3.60718 15.0394 3.52549 15.0394 3.41112Z" fill="#F9D050" stroke="black" stroke-width="0.0261408"/>
<path d="M14.8324 3.52825C14.8324 3.39755 14.9087 3.28046 14.9876 3.28046C15.0802 3.28046 15.1456 3.43567 15.1456 3.52553C15.1456 3.63445 15.0639 3.72431 14.9876 3.72431C14.9087 3.72431 14.8297 3.64262 14.8297 3.52825H14.8324ZM14.5057 3.52825C14.5057 3.39755 14.571 3.28046 14.6364 3.28046C14.7017 3.28046 14.7535 3.43567 14.7535 3.52553C14.7535 3.63445 14.6881 3.72431 14.6364 3.72431C14.571 3.72431 14.5057 3.64262 14.5057 3.52825ZM15.2354 3.50375C15.2354 3.38393 15.3008 3.26685 15.3661 3.26685C15.4315 3.26685 15.4968 3.41116 15.4968 3.50102C15.4968 3.61811 15.4179 3.69708 15.3661 3.69708C15.3008 3.69708 15.2354 3.61811 15.2354 3.50102V3.50375Z" fill="#F9D050" stroke="black" stroke-width="0.0261408"/>
<path d="M15.3144 3.72158C15.3416 3.5936 15.4179 3.4874 15.4696 3.50374C15.5241 3.51463 15.535 3.66984 15.5105 3.76243C15.4969 3.87951 15.4179 3.94487 15.3662 3.93125C15.3117 3.92036 15.2872 3.82778 15.3117 3.7243L15.3144 3.72158Z" fill="#F9D050" stroke="black" stroke-width="0.0261408"/>
<path d="M15.0666 3.68344C15.0802 3.56635 15.1565 3.44926 15.2218 3.46287C15.3008 3.46287 15.3389 3.61809 15.328 3.70794C15.3144 3.82776 15.2463 3.90672 15.1837 3.89311C15.1183 3.89311 15.053 3.80053 15.0666 3.68344ZM14.7017 3.72156C14.6609 3.59358 14.5819 3.50372 14.5302 3.51461C14.4784 3.52823 14.4648 3.68344 14.492 3.77602C14.5193 3.87949 14.5955 3.94485 14.6473 3.93123C14.6881 3.92034 14.729 3.82776 14.7017 3.72428V3.72156Z" fill="#F9D050" stroke="black" stroke-width="0.0261408"/>
<path d="M14.6091 3.69707C14.6091 3.57998 14.6745 3.46289 14.7398 3.46289C14.8188 3.46289 14.8705 3.60721 14.8705 3.69707C14.8705 3.81416 14.8052 3.89312 14.7398 3.89312C14.6854 3.89312 14.6091 3.81416 14.6091 3.69707Z" fill="#F9D050" stroke="black" stroke-width="0.0261408"/>
<path d="M14.8052 3.74881C14.8052 3.6181 14.8842 3.50374 14.9604 3.50374C15.053 3.50374 15.1184 3.64533 15.1184 3.74881C15.1184 3.855 15.0394 3.94486 14.9604 3.94486C14.8842 3.94486 14.8052 3.8659 14.8052 3.74881ZM14.8706 2.31379C14.8433 2.41726 14.7535 2.50984 14.8161 2.65416C14.7017 2.61332 14.5983 2.5997 14.5057 2.7059C14.6228 2.69228 14.7262 2.73313 14.778 2.80937C14.6745 2.79576 14.6228 2.85022 14.5955 2.91557C14.6881 2.88834 14.778 2.86111 14.8188 2.87472C14.778 2.91557 14.7126 2.9782 14.7017 3.03266C14.778 2.96731 14.8706 2.9782 14.9223 2.94008C14.8842 3.03266 14.9604 3.12252 15.0258 3.21238C15.0149 3.08439 15.0911 2.99454 15.053 2.92646C15.1701 2.95369 15.1837 3.05716 15.3525 3.05716C15.2872 3.01904 15.2491 2.88834 15.1701 2.88834C15.2082 2.87472 15.3661 2.86111 15.3934 2.88834C15.3661 2.83388 15.2736 2.78486 15.2218 2.78486C15.2763 2.7304 15.3661 2.62693 15.4315 2.5997C15.3389 2.61332 15.1973 2.62693 15.1456 2.7059C15.2736 2.5997 15.2491 2.40637 15.3907 2.37914C15.3144 2.36552 15.1973 2.41726 15.1047 2.50984C15.1456 2.43087 15.1456 2.3274 15.1973 2.30017C15.0911 2.3274 14.974 2.4581 14.9359 2.52346C14.9303 2.44952 14.9079 2.37783 14.8706 2.31379Z" fill="#F9D050" stroke="black" stroke-width="0.0261408"/>
<path d="M14.9359 2.5235C14.9359 2.56162 14.9359 2.64059 14.9223 2.6651ZM15.1047 2.50989C15.0775 2.53712 15.0258 2.62698 15.0258 2.70594Z" fill="#F9D050"/>
<path d="M14.9359 2.5235C14.9359 2.56162 14.9359 2.64059 14.9223 2.6651M15.1047 2.50989C15.0775 2.53712 15.0258 2.62698 15.0258 2.70594" stroke="black" stroke-width="0.0261408"/>
<path d="M15.1837 2.66504C15.1388 2.69185 15.1057 2.73465 15.0911 2.78485" stroke="black" stroke-width="0.0261408"/>
<path d="M13.8004 3.95846C13.7078 3.95846 13.6315 3.92034 13.5771 3.85499C13.4872 3.73518 13.2394 3.68344 13.1332 3.78964C13.0951 3.81687 13.0434 3.81687 13.0052 3.82776C12.9399 3.82776 12.8609 3.89311 12.8854 4.02382C12.9399 3.98297 12.9508 4.02382 12.9916 4.02382C13.0189 4.0102 13.0052 4.03743 13.0052 4.06194C13.0052 4.12729 13.1468 4.25799 13.2775 4.24438C13.4219 4.24438 13.4872 4.29884 13.5117 4.32607C13.5526 4.36147 13.5253 4.35058 13.5526 4.41593C13.5907 4.45405 13.6043 4.46767 13.5389 4.5194C13.5092 4.54419 13.4853 4.57521 13.4689 4.61027C13.4525 4.64532 13.444 4.68356 13.444 4.72227C13.444 4.76097 13.4525 4.79921 13.4689 4.83426C13.4853 4.86932 13.5092 4.90034 13.5389 4.92513C13.7078 5.05311 14.138 5.25189 14.6227 4.87067C15.0911 4.50579 15.8208 4.71546 15.8753 4.84344C15.9406 4.97687 15.9651 5.05311 15.9788 5.11846C15.9924 5.17292 16.0577 5.22466 16.1503 5.21104C16.2402 5.21104 16.3436 5.24917 16.3954 5.29001C16.4635 5.32813 16.5533 5.31724 16.5288 5.19743C16.4743 4.83255 16.2538 4.78081 16.2293 4.61198C16.3573 4.62288 16.4471 4.62288 16.5016 4.57114C16.5397 4.5194 16.5914 4.42682 16.6459 4.40231C16.684 4.37508 16.684 4.34785 16.6323 4.36147C16.5669 4.37508 16.5288 4.40231 16.409 4.3887C15.8099 4.32335 14.1271 3.86588 13.8004 3.95846Z" fill="#059334" stroke="black" stroke-width="0.0609952"/>
<path d="M16.4635 4.40226C16.3639 4.47248 16.2789 4.56124 16.2129 4.66366C16.085 4.83249 15.6928 5.00132 15.2082 5.00132C14.7398 5.00132 14.4539 4.92507 14.2442 4.75625C14.1547 4.68467 14.058 4.62261 13.9556 4.57108C13.814 4.50573 13.7867 4.36141 13.8249 4.24432C13.7867 4.30967 13.7622 4.37503 13.6833 4.36141C13.6288 4.36141 13.5253 4.36141 13.5526 4.41587C13.539 4.38864 13.539 4.35052 13.5253 4.33418L13.4981 4.30968C13.539 4.33691 13.6315 4.25794 13.6969 4.25794C13.7486 4.27155 13.814 4.2062 13.8004 4.12723L13.7622 3.95841C13.8657 3.90395 15.2354 4.15446 15.5104 4.17897C15.7827 4.19259 16.5669 4.30967 16.4635 4.40226Z" fill="black" stroke="black" stroke-width="0.0609952"/>
<path d="M13.9828 3.90673C14.1135 3.77602 14.2687 3.71067 14.4266 3.74879H14.4647C14.5464 3.68344 14.7261 3.66982 14.8323 3.72156H14.8841C15.0393 3.66982 15.3388 3.72156 15.445 3.82776L15.4831 3.85499C15.8371 3.82776 16.0441 3.98297 16.2919 4.23349C16.3191 4.26072 16.3572 4.30973 16.4226 4.32334C16.5015 4.33696 16.5152 4.3778 16.4498 4.41593C16.3451 4.48068 16.2529 4.56368 16.1775 4.661C16.0577 4.81893 15.6792 4.97686 15.2081 4.97686C14.7534 4.97686 14.4784 4.89517 14.2687 4.73996C14.1516 4.6501 14.0617 4.59837 13.9964 4.55752C13.9174 4.53029 13.8139 4.42682 13.8521 4.32334C13.8793 4.21987 13.8139 4.08917 13.7622 3.95846C13.8003 3.93123 13.9038 3.89311 13.9555 3.92034L13.9828 3.90673Z" fill="#059334" stroke="black" stroke-width="0.0609952"/>
<path d="M16.2919 4.23349C16.0468 3.98297 15.8372 3.82776 15.4832 3.85227C15.4832 3.86588 15.4832 3.90673 15.4695 3.93396C15.7163 4.04466 15.9349 4.20937 16.1095 4.41593C16.1639 4.36147 16.2538 4.29884 16.2919 4.23349ZM15.445 3.82776C15.3388 3.72428 15.0393 3.66982 14.8841 3.72428C14.8841 3.77602 14.8841 3.85499 14.8569 3.90673C14.9495 3.94485 15.0257 4.03743 15.1047 4.12729C15.1591 4.11367 15.2871 4.07555 15.3525 4.06194C15.3915 3.98735 15.4225 3.90885 15.445 3.82776ZM14.8324 3.72156C14.7262 3.66982 14.5437 3.68344 14.4648 3.74879C14.4375 3.80325 14.4266 3.90673 14.4266 3.95846C14.4811 3.95846 14.5573 3.99658 14.5818 4.02381C14.6635 3.99658 14.767 3.94485 14.8051 3.90673C14.8187 3.85227 14.8433 3.77602 14.8324 3.72428V3.72156ZM13.9828 3.90673C14.1135 3.77602 14.2687 3.71067 14.4266 3.74879C14.3994 3.78964 14.3885 3.86588 14.3885 3.94485C14.2442 3.93123 14.0618 3.97208 13.9828 4.02381V3.90673Z" fill="#00493D" stroke="black" stroke-width="0.0609952"/>
<path d="M16.0577 4.4404C15.8937 4.24617 15.6892 4.09005 15.4587 3.98294C15.4587 3.99655 15.4314 4.04829 15.4178 4.08913C15.4968 4.20622 15.652 4.46763 15.7173 4.61195C15.7827 4.58472 15.9651 4.50575 16.0577 4.4404ZM15.0666 4.72904C15.0891 4.55107 15.1018 4.37198 15.1047 4.19261C15.17 4.17899 15.3007 4.14087 15.3525 4.12726C15.4178 4.23345 15.5758 4.50848 15.6411 4.63646C15.4832 4.67458 15.2218 4.73993 15.0666 4.72904ZM14.6091 4.10275C14.6744 4.07552 14.767 4.02106 14.8297 3.97205C14.8841 4.01017 14.9876 4.10275 15.0257 4.15449C15.0257 4.27158 14.9876 4.61195 14.974 4.72632C14.8705 4.72632 14.7017 4.70181 14.6091 4.65007C14.6227 4.45402 14.6363 4.23345 14.6091 4.10275ZM13.9556 4.25796C13.9692 4.23073 13.9828 4.14087 13.9828 4.10275C14.0863 4.0374 14.3477 3.97205 14.5437 4.07552C14.5574 4.20622 14.5437 4.53298 14.5301 4.61195C14.3555 4.46992 14.1633 4.35095 13.9583 4.25796H13.9556Z" fill="#00493D" stroke="black" stroke-width="0.0609952"/>
<path d="M13.3048 4.02107C13.2776 4.02107 13.2639 3.94482 13.2122 3.94482C13.1986 3.94482 13.1605 3.95844 13.1469 3.94482C13.1469 3.97205 13.1605 3.99928 13.1741 4.01018C13.1877 4.0483 13.253 4.02379 13.3048 4.02379V4.02107Z" fill="black"/>
<path d="M13.3048 4.24441C13.46 4.24441 13.4872 4.04836 13.5662 4.03747M13.3946 4.25803C13.5117 4.31249 13.6043 4.03747 13.6942 4.04836M13.1605 3.92038C13.1986 3.92038 13.2258 3.86592 13.2912 3.93127C13.3184 3.9585 13.3565 3.97211 13.3837 3.97211M13.3565 4.11371C13.3021 4.1954 13.2122 4.24441 13.1605 4.21991M13.1332 3.78967C13.0951 3.8169 13.0706 3.86592 13.0434 3.90676M13.0052 3.98301V4.04836" stroke="black" stroke-width="0.0609952"/>
<path d="M17.3621 5.68204V8.22533C17.3621 10.431 16.3192 11.188 14.9223 11.787C13.5254 11.188 12.4716 10.431 12.4716 8.22533V5.67932H17.3621V5.68204Z" fill="white"/>
<path d="M14.9222 7.83318C15.0393 7.83318 15.2218 7.7297 15.3797 7.57177C15.5485 7.38933 15.8372 7.3267 16.1367 7.57177C16.4362 7.81956 16.6187 7.71609 16.7766 7.57177C16.9318 7.43017 17.0625 7.37571 17.362 7.37571V5.68201H12.4688V7.37844C12.7683 7.37844 12.899 7.4329 13.057 7.57449C13.2122 7.71881 13.3946 7.82228 13.6969 7.57449C14.01 7.32942 14.2823 7.39205 14.4648 7.57449C14.6091 7.73243 14.7915 7.8359 14.9222 7.8359V7.83318Z" fill="#C8102E"/>
<path d="M14.9222 9.14026C15.0802 9.14026 15.3933 8.96871 15.4696 8.93059C15.7582 8.75904 15.9651 8.91698 16.1367 8.99594C16.3191 9.07219 16.6568 9.16477 16.8665 8.99594C17.0761 8.82439 17.1932 8.83801 17.3375 8.83801C17.3648 8.64195 17.3648 8.4459 17.3648 8.22533V8.0674C17.1796 8.02928 17.0897 8.08101 16.8937 8.25256C16.6976 8.42139 16.4743 8.38327 16.1857 8.27979C15.9134 8.15998 15.6411 7.95303 15.3661 8.27979C15.252 8.40726 15.0928 8.48538 14.9222 8.49763C14.7262 8.49763 14.5574 8.36965 14.4784 8.27979C14.1925 7.95303 13.9311 8.15998 13.656 8.27979C13.3701 8.38327 13.1332 8.42139 12.9399 8.25256C12.7574 8.08101 12.6649 8.02928 12.4688 8.0674V8.22533C12.4688 8.4459 12.4824 8.64195 12.5069 8.83801C12.6513 8.83801 12.7574 8.82439 12.9644 8.99594C13.1741 9.16477 13.5253 9.07219 13.6969 8.99594C13.8793 8.91698 14.0863 8.75904 14.3749 8.93059C14.4539 8.96871 14.7534 9.13754 14.9222 9.13754V9.14026ZM14.9222 9.7012C15.1483 9.68899 15.368 9.62168 15.5621 9.50514C15.8235 9.36082 16.006 9.42345 16.2674 9.55688C16.5397 9.68758 16.763 9.64674 16.9209 9.55688C16.9972 9.50242 17.0625 9.39895 17.2313 9.43979C17.1551 9.76655 17.0353 10.0525 16.8937 10.2866C16.7824 10.3235 16.665 10.3379 16.5481 10.3291C16.4313 10.3202 16.3173 10.2882 16.2129 10.2349C15.9406 10.1042 15.6003 10.0252 15.4178 10.1423C15.2699 10.2386 15.0986 10.2932 14.9222 10.3003C14.7779 10.3003 14.5955 10.2458 14.4266 10.1423C14.2442 10.0252 13.9038 10.1042 13.6315 10.2349C13.5273 10.2886 13.4135 10.3211 13.2966 10.3304C13.1798 10.3398 13.0622 10.3258 12.9508 10.2894C12.8092 10.0525 12.6921 9.76383 12.6131 9.43979C12.782 9.39895 12.8473 9.50514 12.9263 9.55688C13.0239 9.612 13.1341 9.64096 13.2462 9.64096C13.3583 9.64096 13.4686 9.612 13.5662 9.55688C13.8385 9.42618 14.0209 9.36082 14.2823 9.50242C14.4762 9.61992 14.6959 9.68816 14.9222 9.7012ZM14.9222 11.787C15.4269 11.5914 15.8982 11.3186 16.3191 10.9783C16.2129 10.9402 16.1503 10.9647 16.0577 10.8993C15.9651 10.834 15.6928 10.8095 15.4587 10.9402C15.2963 11.0349 15.1116 11.0848 14.9236 11.0848C14.7356 11.0848 14.5509 11.0349 14.3885 10.9402C14.1516 10.8095 13.8793 10.834 13.7895 10.8993C13.6969 10.9647 13.6315 10.9402 13.5253 10.981C13.9446 11.3231 14.4163 11.5952 14.9222 11.787Z" fill="#0B50A0"/>
<path d="M14.5818 6.31917C14.5954 6.3464 14.5709 6.41176 14.5818 6.43626C14.609 6.49072 14.609 6.51795 14.6472 6.54246H14.7397C15.0257 6.54246 15.366 6.42537 15.6519 6.42537C15.927 6.42537 16.0958 6.51523 16.251 6.51523C16.3436 6.51523 16.4226 6.44988 16.4226 6.38453C16.4226 6.31917 16.3191 6.28105 16.0958 6.28105C15.7826 6.28105 15.6138 6.36002 15.3524 6.36002C14.9603 6.36002 14.8949 6.2157 14.8949 6.15035C14.8949 6.085 14.9603 5.99514 15.17 5.99514C15.2353 5.99514 15.2871 5.98152 15.3143 5.95429C15.3279 5.92706 15.366 5.87532 15.445 5.8372C15.5349 5.78274 15.7173 5.8372 15.8099 5.77185C15.8099 5.82631 15.7309 5.90255 15.6656 5.92978C15.7963 5.88894 15.9379 5.88894 15.9651 5.99514C15.8997 5.95429 15.7963 5.98152 15.7581 5.99514C15.7037 6.00603 15.6792 6.02237 15.6274 6.03326C15.6792 6.01964 15.7064 6.12312 15.7826 6.12312C15.7064 6.18847 15.5757 6.18847 15.445 6.13673C15.4041 6.12312 15.3007 6.085 15.2353 6.085C15.1046 6.085 15.0257 6.11223 15.0257 6.16396C15.0257 6.22931 15.1073 6.26744 15.3388 6.26744C15.5757 6.26744 15.7064 6.20208 16.0577 6.20208C16.0304 6.16396 16.0713 6.12312 16.0195 6.085C16.1503 6.085 16.2918 6.12312 16.3463 6.2157C16.3327 6.12312 16.4089 6.04687 16.3844 5.96791C16.4634 5.98152 16.5287 6.05777 16.5396 6.12312C16.5396 6.085 16.5941 6.085 16.5941 6.04687C16.6305 6.06656 16.66 6.09699 16.6785 6.13402C16.697 6.17104 16.7037 6.21288 16.6976 6.25382C16.7357 6.18847 16.7765 6.2157 16.801 6.13673C16.8283 6.19119 16.8147 6.3464 16.7221 6.39814C16.8038 6.34368 16.9181 6.34368 16.9971 6.43626C16.9181 6.42537 16.88 6.46349 16.8419 6.47711C16.6519 6.57422 16.4396 6.61931 16.2265 6.60781C16.0195 6.5942 15.9923 6.55335 15.8616 6.55335C15.9406 6.56697 16.0958 6.7249 16.2428 6.7249C16.3327 6.7249 16.398 6.7249 16.4362 6.71129C16.4743 6.69767 16.5396 6.71129 16.5914 6.73852C16.6322 6.77664 16.7112 6.81476 16.7629 6.80387C16.7493 6.8556 16.7221 6.88011 16.684 6.89373C16.7493 6.93457 16.7112 6.95908 16.7765 7.01082C16.7493 7.01082 16.7221 7.03805 16.684 7.02443C16.7221 7.06255 16.7221 7.11701 16.7629 7.14152C16.7493 7.14152 16.7085 7.15513 16.684 7.14152C16.7221 7.19598 16.684 7.25861 16.7221 7.28584C16.7629 7.3403 16.684 7.40293 16.6186 7.35119C16.6322 7.38931 16.5914 7.43016 16.5533 7.41654C16.5151 7.40293 16.4879 7.36208 16.4988 7.35119C16.4988 7.33758 16.4988 7.33758 16.5151 7.32396C16.4879 7.36481 16.4362 7.36481 16.4089 7.35119C16.398 7.33758 16.3817 7.32396 16.3817 7.31307C16.2918 7.3403 16.2537 7.25861 16.2673 7.22049C16.2782 7.18236 16.3572 7.16603 16.3844 7.18236C16.4117 7.19326 16.4362 7.20959 16.4634 7.18236C16.4906 7.16875 16.5015 7.14152 16.5015 7.11701C16.5015 7.07617 16.4634 6.95908 16.2918 6.97269C16.0958 6.98631 15.7826 6.93457 15.6274 6.88011C15.6138 6.86922 15.6002 6.86922 15.5866 6.85288C15.5866 6.90734 15.5349 6.93457 15.5349 6.98631C15.5349 7.05166 15.5621 7.1034 15.641 7.1279C15.6002 7.19326 15.5349 7.18236 15.5103 7.14152C15.5103 7.18236 15.4559 7.20687 15.4559 7.25861C15.445 7.23138 15.4287 7.22049 15.4178 7.19326C15.3796 7.28584 15.2734 7.33758 15.2217 7.31307C15.1564 7.36481 15.0801 7.35119 15.0529 7.29945C15.0148 7.32668 14.9603 7.32668 14.9358 7.29945C14.9358 7.33758 14.9086 7.32668 14.8949 7.37842C14.8949 7.40565 14.8432 7.41654 14.8187 7.40565C14.7915 7.38931 14.7779 7.33758 14.8051 7.31307C14.767 7.3403 14.7261 7.3403 14.7016 7.31307C14.7016 7.28584 14.7016 7.24772 14.7288 7.23138H14.7534C14.7261 7.22049 14.688 7.23138 14.6608 7.22049C14.6335 7.19326 14.6335 7.16603 14.6472 7.14152C14.6608 7.1279 14.7016 7.1034 14.7288 7.1279L14.7397 7.14152C14.7397 7.11429 14.7534 7.08978 14.767 7.08978C14.7942 7.07617 14.8296 7.07617 14.8704 7.11701C14.8977 7.15513 14.9222 7.15513 15.0011 7.14424C15.0665 7.14424 15.17 7.07617 15.2462 7.01082C15.0284 6.97269 15.1564 6.82837 15.2217 6.77664C15.17 6.76302 15.091 6.76302 15.0393 6.79025C14.767 6.93457 14.4783 7.1034 14.2959 7.05166C14.2984 7.07896 14.3078 7.10518 14.3231 7.1279C14.2823 7.1279 14.2033 7.1279 14.1788 7.08978C14.1652 7.11701 14.1407 7.18236 14.1652 7.2341C14.138 7.20687 14.0617 7.17964 14.0209 7.16875C14.0481 7.19598 14.0209 7.24772 14.0345 7.28584C13.9964 7.24772 13.931 7.22049 13.9038 7.24772C13.8765 7.27495 13.8248 7.28584 13.7867 7.27495C13.7613 7.31084 13.725 7.33757 13.6832 7.35119C13.6832 7.32396 13.6832 7.28584 13.6696 7.27222C13.656 7.31307 13.6151 7.36481 13.5661 7.38931C13.5661 7.36208 13.5661 7.32396 13.5525 7.29945C13.5525 7.35119 13.449 7.37842 13.4354 7.41654C13.449 7.37842 13.449 7.33758 13.449 7.31307C13.4346 7.33622 13.4155 7.35614 13.393 7.3716C13.3705 7.38706 13.3451 7.39772 13.3183 7.40293C13.3292 7.3757 13.3456 7.34847 13.3292 7.32396C13.3183 7.37842 13.2394 7.40565 13.174 7.38931C13.174 7.41654 13.1196 7.45466 13.0569 7.41654C13.0161 7.40293 12.9916 7.36208 13.0161 7.33758C12.9643 7.33758 12.9126 7.28584 12.9398 7.24772C12.9398 7.2341 12.9507 7.22049 12.9507 7.20687C12.9126 7.17964 12.899 7.1279 12.9398 7.08978C12.9507 7.07617 12.9916 7.07617 13.0161 7.07617C13.0161 6.97269 13.1087 6.97269 13.1468 7.04894C13.174 7.08978 13.253 7.15513 13.3183 7.14152C13.3456 7.14152 13.3565 7.1279 13.3837 7.1279C13.5008 7.08919 13.6111 7.03222 13.7104 6.95908C13.7213 6.92096 13.7213 6.89373 13.7213 6.86922C13.6696 6.89645 13.6179 6.92096 13.5906 6.95908V6.92096C13.5525 6.92096 13.4872 6.90734 13.4599 6.90734C13.4735 6.89373 13.4872 6.82837 13.5144 6.81476C13.449 6.82837 13.3837 6.81476 13.3292 6.80387C13.3565 6.77664 13.3565 6.73852 13.3701 6.69767C13.3428 6.71129 13.2775 6.68678 13.2257 6.69767C13.2394 6.65955 13.253 6.60781 13.2911 6.5942C13.2366 6.60781 13.174 6.5942 13.1087 6.56697C13.1631 6.56697 13.1876 6.50161 13.2257 6.50161C13.1223 6.50161 13.095 6.44988 13.0433 6.42537C13.0814 6.43626 13.1087 6.39814 13.1468 6.39814C13.1087 6.38453 13.0433 6.31917 13.0705 6.28105C13.0569 6.29467 13.0433 6.31917 13.0161 6.33551C12.9888 6.3464 12.9398 6.33551 12.899 6.29467C12.8718 6.24021 12.8854 6.17758 12.9398 6.16396C12.9279 6.16319 12.9164 6.15902 12.9068 6.15192C12.8971 6.14483 12.8897 6.13512 12.8854 6.12395C12.8811 6.11277 12.8801 6.1006 12.8825 6.08887C12.8849 6.07714 12.8906 6.06634 12.899 6.05777C12.9126 6.03054 12.9643 5.99514 12.9916 6.03054L13.0297 6.085C13.0161 6.05777 13.0161 6.00603 13.0161 5.96791C13.0297 5.92978 13.0569 5.92978 13.0978 5.91345C13.1332 5.91345 13.1604 5.95429 13.1604 5.99514C13.1604 6.03326 13.174 6.05777 13.1876 6.11223L13.1985 6.05777C13.1985 6.00603 13.2639 6.01964 13.3047 6.03054C13.3428 6.04687 13.3565 6.12312 13.3047 6.16396C13.2775 6.19119 13.2911 6.22931 13.3183 6.25382C13.4082 6.39814 13.5634 6.51523 13.6968 6.52884C13.6968 6.47438 13.7241 6.42537 13.7622 6.38453C13.7622 6.3573 13.7731 6.31917 13.7894 6.29467C13.8003 6.2157 13.8384 6.17758 13.8902 6.20208C13.8793 6.18847 13.8629 6.17485 13.8629 6.16396C13.8248 6.12312 13.7867 6.05777 13.8139 6.00603C13.8411 5.95429 13.9174 5.96791 13.9446 5.99514C13.931 5.91345 14.0209 5.85082 14.0209 5.80997C14.0345 5.85082 14.0617 5.90255 14.0481 5.94068C14.0617 5.88894 14.1516 5.82359 14.2169 5.79908C14.1897 5.8372 14.2714 5.90255 14.2578 5.94068C14.285 5.87532 14.3885 5.8372 14.4647 5.8372C14.4375 5.86443 14.4375 5.91617 14.4375 5.94068C14.4783 5.94068 14.5464 5.92978 14.5709 5.88894C14.5709 5.9434 14.5437 5.99514 14.5165 6.01964C14.5301 6.00603 14.5818 6.00603 14.6226 6.00603C14.5818 6.04687 14.5954 6.08772 14.5573 6.11223C14.609 6.085 14.6744 6.085 14.688 6.13946C14.7152 6.17758 14.6744 6.24293 14.6472 6.28105C14.6199 6.29467 14.5954 6.31917 14.5818 6.31917Z" fill="#F9D050" stroke="black" stroke-width="0.0609952"/>
<path d="M13.7758 6.47717C13.6832 6.51529 13.656 6.60788 13.6424 6.65961" stroke="black" stroke-width="0.0609952"/>
<path d="M13.7622 6.56702C13.6315 6.64871 13.5771 6.71134 13.6043 6.85565M13.8249 6.96185C13.9066 6.93462 13.9556 6.90739 14.0209 6.7903" stroke="black" stroke-width="0.0609952"/>
<path d="M13.9828 6.84204C13.9555 6.8965 13.9828 6.98636 13.9446 7.02448C13.9797 7.00705 14.0099 6.98131 14.0327 6.94951C14.0555 6.91771 14.0701 6.88081 14.0753 6.84204" stroke="black" stroke-width="0.0609952"/>
<path d="M14.01 6.98631C14.0617 6.95908 14.1407 6.88011 14.1788 6.79025C14.1652 6.82837 14.1788 6.89372 14.1516 6.93457C14.217 6.86922 14.2442 6.82837 14.2578 6.76302L14.2687 6.81748C14.2959 6.79025 14.3232 6.76302 14.3232 6.71128M14.3204 6.74941V6.81476C14.3749 6.77664 14.3885 6.7249 14.3885 6.65955" stroke="black" stroke-width="0.0609952"/>
<path d="M14.3749 6.73856C14.4538 6.6841 14.4647 6.60786 14.4647 6.49077M14.4647 6.62147C14.5192 6.58063 14.5301 6.55612 14.5301 6.43631M14.3613 6.08504C14.334 6.08504 14.3068 6.09866 14.3068 6.1395C14.3068 6.16401 14.2687 6.20213 14.2687 6.24298C14.2578 6.29471 14.2306 6.30833 14.1924 6.29471C14.1516 6.26748 14.1516 6.26748 14.1516 6.22936C14.1516 6.1749 14.2169 6.16401 14.2169 6.11227C14.2306 6.08504 14.2442 6.04692 14.2578 6.04692C14.1924 6.08504 14.0999 6.05781 14.0862 5.98157" stroke="black" stroke-width="0.0609952"/>
<path d="M14.4784 6.12321C14.4512 6.13683 14.4239 6.09598 14.3885 6.11232C14.3749 6.11232 14.3341 6.12321 14.3232 6.11232" stroke="black" stroke-width="0.0609952"/>
<path d="M14.2959 6.18848C14.3095 6.20209 14.3749 6.22932 14.4402 6.20209C14.3858 6.21571 14.3476 6.15036 14.3994 6.11224M14.1788 6.05778C14.1244 6.05778 14.0862 6.09862 14.0998 6.13947C14.1135 6.17759 14.1652 6.17759 14.2033 6.15036M14.0862 6.7113C14.0998 6.69768 14.1135 6.67317 14.1135 6.65684C14.1407 6.65684 14.1679 6.64594 14.1788 6.63233C14.2306 6.63233 14.2687 6.59421 14.2823 6.55608C14.3095 6.55608 14.3231 6.49073 14.3367 6.4635C14.3476 6.47712 14.3749 6.4635 14.3885 6.40904C14.4157 6.42538 14.4538 6.40904 14.4647 6.37092M13.931 6.28106C13.931 6.29468 13.9038 6.31918 13.8766 6.33552C13.8902 6.36003 13.8766 6.42538 13.8521 6.43627C13.8657 6.4635 13.8521 6.50162 13.8384 6.52885C13.8384 6.54247 13.8521 6.58331 13.8521 6.59421M13.9828 6.01965C13.9555 6.08501 13.9691 6.16397 14.0209 6.17759" stroke="black" stroke-width="0.0609952"/>
<path d="M14.01 6.22666C13.9964 6.29473 13.9964 6.38459 13.9828 6.42544C13.9692 6.45267 13.9447 6.54253 14.0481 6.56703C14.1652 6.59426 14.2306 6.58065 14.2959 6.38459M14.492 6.89379C14.492 6.90741 14.4784 6.93464 14.4539 6.93464M14.5818 6.86929C14.5818 6.89652 14.5546 6.93464 14.5437 6.94553M14.6744 6.84206C14.6744 6.86929 14.6744 6.90741 14.6472 6.92102M13.8793 6.03333C13.8902 6.03333 13.9065 6.06056 13.9174 6.08506C13.8793 6.05783 13.8385 6.12318 13.863 6.16403M13.8385 6.25389L13.7867 6.29473M13.8003 6.37098C13.7867 6.37098 13.7731 6.38459 13.7622 6.38459M13.1741 6.1368C13.1741 6.12318 13.1741 6.12318 13.1877 6.10957M13.057 6.09868C13.0434 6.09868 13.0434 6.09868 13.0297 6.08506M13.0679 6.28112H13.0951M13.0161 6.20215C12.9954 6.18161 12.9687 6.16825 12.9399 6.16403M13.735 6.68685C13.6424 6.76309 13.6043 6.82844 13.5907 6.92102M13.8249 6.74947C13.8017 6.79797 13.766 6.83935 13.7214 6.86929M13.3184 7.14159C13.2748 7.15564 13.2286 7.15951 13.1832 7.1529C13.1379 7.14629 13.0947 7.12938 13.057 7.10346C13.0434 7.08985 13.0297 7.08985 13.0161 7.07623M13.7078 6.96187C13.6969 7.01088 13.6805 7.07623 13.656 7.08985C13.7622 7.03539 13.8521 6.95915 13.8657 6.84206M12.9508 7.20694C12.9916 7.19332 13.0325 7.22055 13.057 7.19332M15.2218 6.7767C15.249 6.79032 15.2871 6.80393 15.3007 6.81483C15.3143 6.7876 15.3661 6.74947 15.4042 6.73858M14.2959 7.05173C14.2823 6.99727 14.3095 6.93464 14.3885 6.90741M13.7867 7.27229C13.8003 7.24506 13.8003 7.20694 13.814 7.18243M13.2122 7.31314C13.1986 7.34037 13.1741 7.36487 13.1741 7.38938M13.0161 7.33764C13.0161 7.33764 13.0161 7.32403 13.0297 7.32403C13.057 7.31314 13.0951 7.28591 13.1087 7.25868M14.7915 7.1552C14.7643 7.16882 14.7534 7.1552 14.7398 7.14159M14.7779 7.22055C14.7779 7.22055 14.767 7.23417 14.7507 7.23417M14.8433 7.28591C14.8296 7.29952 14.816 7.31314 14.8051 7.31314M15.2218 7.31314C15.249 7.29952 15.2626 7.27229 15.2762 7.22055M15.0529 7.29952C15.0911 7.28591 15.1183 7.25868 15.1564 7.22055M15.4178 7.19332C15.4178 7.16609 15.4178 7.14159 15.4314 7.11708M16.3845 7.31314C16.3572 7.28591 16.3572 7.24778 16.3981 7.22055C16.4253 7.20694 16.4362 7.19332 16.4634 7.18243" stroke="black" stroke-width="0.0609952"/>
<path d="M15.5867 6.85295C15.3797 6.76309 15.3933 6.646 15.2218 6.65962M16.5152 7.2614C16.5288 7.27229 16.5152 7.31314 16.5152 7.32403M16.6323 7.2614C16.6187 7.29952 16.6187 7.31314 16.6187 7.35126M15.6275 6.03333H15.5186M14.5301 6.47717C14.5301 6.5044 14.571 6.55614 14.6745 6.55614C14.6608 6.55614 14.6472 6.54253 14.6472 6.54253M14.5819 6.31924C14.571 6.33286 14.5546 6.31924 14.5546 6.31924C14.5301 6.29201 14.571 6.243 14.6091 6.21577C14.571 6.22938 14.5437 6.22938 14.5165 6.22938C14.4893 6.30835 14.413 6.34647 14.3613 6.29473C14.3477 6.34647 14.2823 6.41182 14.2306 6.39821C14.1761 6.37098 14.1653 6.33286 14.1761 6.29473C14.1135 6.37098 14.0345 6.32196 14.01 6.29473C13.9964 6.2675 14.01 6.20215 14.0373 6.12318" stroke="black" stroke-width="0.0609952"/>
<path d="M15.4178 6.81482C15.3797 6.84205 15.3388 6.81482 15.3007 6.85566C15.2735 6.88289 15.3143 6.89379 15.3388 6.89379C15.3279 6.93463 15.3279 6.94825 15.3933 6.94825C15.3661 6.98637 15.445 6.99998 15.4314 7.05172C15.4478 7.03472 15.4591 7.01343 15.4639 6.9903C15.4687 6.96717 15.4669 6.94315 15.4586 6.92102C15.445 6.88017 15.3769 6.85566 15.4178 6.81482Z" fill="black"/>
<path d="M14.2306 6.39819C14.1761 6.37096 14.1652 6.33284 14.1761 6.29472C14.1652 6.32195 14.1407 6.33284 14.1135 6.33284C14.059 6.44993 13.9964 6.55612 13.9174 6.55612C13.8248 6.56702 13.8384 6.6596 13.9038 6.6596C14.0481 6.68683 14.1135 6.63237 14.2306 6.39819ZM12.9399 6.08505C12.978 6.04692 12.9508 6.00608 12.9262 5.99519C12.8854 5.98157 12.8092 5.99519 12.7683 6.05782C12.8092 6.04692 12.85 6.04692 12.8609 6.07143C12.8745 6.09866 12.899 6.12589 12.9399 6.08505ZM13.0052 5.85087C13.0951 5.85087 13.1223 5.86448 13.1332 5.9026C13.1468 5.92983 13.1223 5.96796 13.0951 5.96796C13.0569 5.96796 13.0161 5.94073 13.0297 5.92983C13.0433 5.9026 13.0433 5.86448 13.0025 5.84814L13.0052 5.85087ZM13.2639 6.05782C13.3292 6.07143 13.3565 6.03059 13.3184 5.98157C13.3047 5.94073 13.2639 5.91622 13.1985 5.92711C13.2639 5.96796 13.1985 6.03331 13.2639 6.05782ZM12.7819 6.2811C12.7936 6.30427 12.8133 6.32248 12.8372 6.33247C12.8612 6.34245 12.8879 6.34355 12.9126 6.33556C12.9508 6.31922 12.9671 6.2811 12.9508 6.25387C12.9235 6.21575 12.8854 6.20213 12.8745 6.25387C12.8473 6.30833 12.8092 6.29472 12.7819 6.2811ZM12.978 7.07622C12.9508 7.02448 12.8745 7.02448 12.8092 7.07622C12.8364 7.0626 12.8854 7.07622 12.899 7.10345C12.9126 7.13068 12.9399 7.13068 12.9535 7.13068C12.9644 7.11706 12.9916 7.10345 12.978 7.07622ZM13.0815 6.99997C13.0815 6.93462 12.9916 6.91828 12.9399 6.94551C12.9671 6.94551 13.0052 6.97274 13.0052 6.99997C13.0161 7.0272 13.0433 7.03809 13.0569 7.03809C13.0842 7.02448 13.0951 7.01087 13.0842 6.99997H13.0815ZM12.9508 7.23415C12.8745 7.22054 12.8337 7.31312 12.8337 7.37575C12.8473 7.33763 12.8881 7.31312 12.9262 7.32401C12.9644 7.32401 12.978 7.31312 12.978 7.28589C12.9916 7.25866 12.978 7.24777 12.9508 7.23143V7.23415ZM12.9644 7.45471C12.9916 7.46833 13.0188 7.4411 13.0297 7.40298C13.0297 7.37575 13.0842 7.37575 13.0951 7.38936C13.1223 7.40298 13.1223 7.45471 13.0815 7.48194C13.0542 7.49556 12.9916 7.50917 12.9644 7.45471ZM14.7779 7.0626C14.7507 7.05171 14.688 7.02448 14.6363 7.0626C14.6744 7.05171 14.7016 7.07622 14.7125 7.10345C14.7125 7.13068 14.7534 7.14157 14.767 7.11706C14.7779 7.10345 14.7942 7.07622 14.7779 7.0626ZM14.6608 7.15518C14.6091 7.12795 14.5437 7.19331 14.5301 7.24777C14.5567 7.22606 14.5887 7.21195 14.6227 7.20692C14.6499 7.22054 14.6744 7.20692 14.6744 7.17969C14.688 7.1688 14.688 7.15518 14.6608 7.15518ZM14.7289 7.26138C14.688 7.26138 14.6363 7.31312 14.6363 7.36485C14.6472 7.33762 14.6744 7.32401 14.7016 7.33762C14.7289 7.33762 14.767 7.32401 14.767 7.2995C14.767 7.27227 14.7534 7.25866 14.7261 7.25866L14.7289 7.26138ZM14.8432 7.36485C14.816 7.35124 14.7779 7.36486 14.7779 7.40298C14.7779 7.4411 14.7779 7.48194 14.767 7.49556C14.7942 7.46833 14.8187 7.45471 14.8432 7.4411C14.8569 7.43021 14.8705 7.38936 14.8432 7.36485ZM16.3191 7.24777C16.2919 7.22054 16.2538 7.23415 16.2401 7.25866C16.2265 7.28589 16.2129 7.35124 16.2401 7.40298C16.2401 7.37575 16.2674 7.33762 16.2946 7.33762C16.3327 7.32401 16.3436 7.27227 16.3191 7.24777ZM16.3981 7.2995C16.3436 7.32673 16.3436 7.41659 16.3845 7.46833C16.3845 7.4411 16.3981 7.40298 16.4226 7.38936C16.4634 7.38936 16.477 7.33763 16.4634 7.31312C16.4362 7.28589 16.409 7.2995 16.3981 7.2995ZM16.5533 7.35124C16.5261 7.33762 16.4988 7.36486 16.4988 7.38936C16.4879 7.43021 16.5152 7.48194 16.5533 7.50645C16.5533 7.47922 16.5669 7.45471 16.5805 7.4411C16.6186 7.41387 16.6077 7.36485 16.5533 7.35124ZM16.6704 7.33762C16.6431 7.33762 16.6186 7.37575 16.6431 7.41659C16.6568 7.44382 16.684 7.45471 16.7357 7.44382C16.7221 7.44382 16.6976 7.40298 16.7085 7.38936C16.7221 7.36213 16.7085 7.33762 16.6704 7.33762Z" fill="#073163"/>
<path d="M13.0434 9.7774L13.6969 7.76782L14.3504 9.7774L12.6376 8.53843H14.7561L13.0434 9.7774Z" fill="#F9D050"/>
<path d="M13.174 9.59499L14.5301 8.60382H12.8609L14.2033 9.59499L13.6969 8.00476L13.174 9.59499Z" fill="#024919"/>
<path d="M15.4968 9.7774L16.1503 7.76782L16.8038 9.7774L15.0911 8.53843H17.2096L15.4968 9.7774Z" fill="#F9D050"/>
<path d="M15.6275 9.59499L16.9835 8.60382H15.3143L16.6568 9.59499L16.1503 8.00476L15.6275 9.59499Z" fill="#024919"/>
<path d="M14.2687 11.1988L14.9222 9.18921L15.5757 11.1988L13.863 9.95982H15.9815L14.2687 11.1988Z" fill="#F9D050"/>
<path d="M14.3994 11.0164L15.7554 10.0252H14.0862L15.4287 11.0164L14.9222 9.42615L14.3994 11.0164Z" fill="#024919"/>
<path d="M17.3621 5.68204V8.22533C17.3621 10.431 16.3192 11.188 14.9223 11.787C13.5254 11.188 12.4716 10.431 12.4716 8.22533V5.67932H17.3621V5.68204Z" stroke="black" stroke-width="0.0609952"/>
</g>
<defs>
<clipPath id="clip0_14_364">
<rect width="20" height="15" fill="white"/>
</clipPath>
</defs>
</svg>
