<svg width="20" height="15" viewBox="0 0 20 15" fill="none" xmlns="http://www.w3.org/2000/svg">
<mask id="mask0_1825_42906" style="mask-type:luminance" maskUnits="userSpaceOnUse" x="0" y="0" width="20" height="15">
<rect width="20" height="15" fill="white"/>
</mask>
<g mask="url(#mask0_1825_42906)">
<path fill-rule="evenodd" clip-rule="evenodd" d="M0 0H20V15H0V0Z" fill="#2E42A5"/>
</g>
<rect width="11" height="9" fill="#2E42A5"/>
<mask id="mask1_1825_42906" style="mask-type:luminance" maskUnits="userSpaceOnUse" x="0" y="0" width="11" height="9">
<rect width="11" height="9" fill="white"/>
</mask>
<g mask="url(#mask1_1825_42906)">
<path d="M-1.25293 8.12482L1.22266 9.21057L11.3059 1.1804L12.6117 -0.43306L9.96444 -0.795949L5.85172 2.66448L2.54141 4.996L-1.25293 8.12482Z" fill="#F7FCFF"/>
<path d="M-0.914062 8.88555L0.347138 9.51562L12.1428 -0.582947H10.3719L-0.914062 8.88555Z" fill="#F50100"/>
<path d="M12.5024 8.12493L10.3054 9.52063L-0.0564003 1.1805L-1.36222 -0.432954L1.28507 -0.795844L5.39779 2.66459L8.7081 4.99611L12.5024 8.12493Z" fill="#F7FCFF"/>
<path d="M12.418 8.67082L11.1568 9.3009L6.13406 4.97718L4.64494 4.4941L-1.48787 -0.427482H0.283002L6.41237 4.37728L8.04046 4.95655L12.418 8.67082Z" fill="#F50100"/>
<mask id="path-9-outside-1_1825_42906" maskUnits="userSpaceOnUse" x="-1" y="-1" width="13" height="11" fill="black">
<rect fill="white" x="-1" y="-1" width="13" height="11"/>
<path fill-rule="evenodd" clip-rule="evenodd" d="M6 0H5V4H0V5H5V9H6V5H11V4H6V0Z"/>
</mask>
<path fill-rule="evenodd" clip-rule="evenodd" d="M6 0H5V4H0V5H5V9H6V5H11V4H6V0Z" fill="#F50100"/>
<path d="M5 0V-0.9375H4.0625V0H5ZM6 0H6.9375V-0.9375H6V0ZM5 4V4.9375H5.9375V4H5ZM0 4V3.0625H-0.9375V4H0ZM0 5H-0.9375V5.9375H0V5ZM5 5H5.9375V4.0625H5V5ZM5 9H4.0625V9.9375H5V9ZM6 9V9.9375H6.9375V9H6ZM6 5V4.0625H5.0625V5H6ZM11 5V5.9375H11.9375V5H11ZM11 4H11.9375V3.0625H11V4ZM6 4H5.0625V4.9375H6V4ZM5 0.9375H6V-0.9375H5V0.9375ZM5.9375 4V0H4.0625V4H5.9375ZM0 4.9375H5V3.0625H0V4.9375ZM0.9375 5V4H-0.9375V5H0.9375ZM5 4.0625H0V5.9375H5V4.0625ZM5.9375 9V5H4.0625V9H5.9375ZM6 8.0625H5V9.9375H6V8.0625ZM5.0625 5V9H6.9375V5H5.0625ZM11 4.0625H6V5.9375H11V4.0625ZM10.0625 4V5H11.9375V4H10.0625ZM6 4.9375H11V3.0625H6V4.9375ZM5.0625 0V4H6.9375V0H5.0625Z" fill="#F7FCFF" mask="url(#path-9-outside-1_1825_42906)"/>
</g>
<g clip-path="url(#clip0_1825_42906)">
<path d="M13.4807 9.27166V6.99543H18.1219V6.99692V7.00095V7.00499V7.00904V7.0131V7.01716V7.02124V7.02533V7.02942V7.03353V7.03764V7.04177V7.0459V7.05004V7.05419V7.05835V7.06252V7.0667V7.07089V7.07508V7.07929V7.0835V7.08772V7.09195V7.09619V7.10044V7.10469V7.10896V7.11323V7.11751V7.1218V7.1261V7.13041V7.13472V7.13904V7.14338V7.14771V7.15206V7.15642V7.16078V7.16515V7.16953V7.17392V7.17831V7.18271V7.18712V7.19154V7.19596V7.2004V7.20484V7.20928V7.21374V7.2182V7.22267V7.22715V7.23163V7.23612V7.24062V7.24512V7.24964V7.25416V7.25868V7.26321V7.26775V7.2723V7.27685V7.28142V7.28598V7.29056V7.29514V7.29972V7.30432V7.30892V7.31352V7.31813V7.32275V7.32738V7.33201V7.33665V7.34129V7.34594V7.35059V7.35526V7.35992V7.3646V7.36928V7.37396V7.37865V7.38335V7.38805V7.39276V7.39747V7.40219V7.40692V7.41165V7.41638V7.42112V7.42587V7.43062V7.43538V7.44014V7.44491V7.44968V7.45445V7.45924V7.46402V7.46882V7.47361V7.47841V7.48322V7.48803V7.49285V7.49767V7.50249V7.50732V7.51216V7.517V7.52184V7.52669V7.53154V7.53639V7.54125V7.54612V7.55099V7.55586V7.56074V7.56562V7.5705V7.57539V7.58028V7.58518V7.59008V7.59498V7.59989V7.6048V7.60972V7.61463V7.61956V7.62448V7.62941V7.63434V7.63928V7.64422V7.64916V7.6541V7.65905V7.664V7.66896V7.67392V7.67888V7.68384V7.68881V7.69377V7.69875V7.70372V7.7087V7.71368V7.71866V7.72365V7.72863V7.73362V7.73862V7.74361V7.74861V7.75361V7.75861V7.76361V7.76862V7.77363V7.77864V7.78365V7.78867V7.79368V7.7987V7.80372V7.80874V7.81376V7.81879V7.82382V7.82885V8.15195V8.17209V8.17712V8.18215V8.18718V8.1922V8.19723V8.20225V8.20727V8.21229V8.21731V8.22232V8.22734V8.23235V8.23736V8.24236V8.24737V8.25237V8.25737V8.26237V8.26736V8.27236V8.27735V8.28234V8.28732V8.29231V8.29729V8.30227V8.30724V8.31221V8.31719V8.32215V8.32712V8.33208V8.33704V8.34199V8.34695V8.35189V8.35684V8.36178V8.36672V8.37166V8.37659V8.38152V8.38645V8.39137V8.39629V8.40121V8.40612V8.41103V8.41594V8.42084V8.42574V8.43063V8.43552V8.44041V8.44529V8.45017V8.45504V8.45991V8.46478V8.46964V8.4745V8.47935V8.4842V8.48904V8.49388V8.49872V8.50355V8.50838V8.5132V8.51802V8.52283V8.52764V8.53244V8.53724V8.54203V8.54682V8.55161V8.55639V8.56116V8.56593V8.57069V8.57545V8.5802V8.58495V8.58969V8.59443V8.59916V8.60389V8.60861V8.61333V8.61804V8.62274V8.62744V8.63213V8.63682V8.6415V8.64618V8.65085V8.65551V8.66017V8.66482V8.66947V8.67411V8.67874V8.68337V8.68799V8.6926V8.69721V8.70181V8.70641V8.711V8.71558V8.72016V8.72473V8.72929V8.73385V8.7384V8.74294V8.74747V8.752V8.75652V8.76104V8.76555V8.77005V8.77454V8.77903V8.78351V8.78798V8.79244V8.7969V8.80135V8.80579V8.81023V8.81466V8.81908V8.82349V8.82789V8.83229V8.83668V8.84106V8.84544V8.8498V8.85416V8.85851V8.86285V8.86719V8.87151V8.87583V8.88014V8.88444V8.88873V8.89302V8.89729V8.90156V8.90582V8.91007V8.91432V8.91855V8.92277V8.92699V8.9312V8.9354V8.93959V8.94377V8.94794V8.9521V8.95626V8.9604V8.96454V8.96867V8.97278V8.97689V8.98099V8.98508V8.98916V8.99323V8.9973V9.00135V9.00539V9.00942V9.01345V9.01746V9.02146V9.02546V9.02944V9.03342V9.03738V9.04134V9.04528V9.04922V9.05314V9.05705V9.06096V9.06485V9.06874V9.07261V9.07647V9.08033V9.08417V9.088V9.09182V9.09563V9.09943V9.10322V9.107V9.11077V9.11452V9.11827V9.122V9.12573V9.12944V9.13314V9.13684V9.14052V9.14418V9.14784V9.15149V9.15512V9.15875V9.16236V9.16596V9.16955V9.17313V9.17669V9.18025V9.18379V9.18732V9.19084V9.19435V9.19784V9.2048V9.20826V9.21171V9.21514V9.21857V9.22198V9.22538V9.22876V9.23214V9.2355V9.23885V9.24219V9.24551V9.24883V9.25213V9.25541V9.25869V9.26195V9.2652V9.26843V9.27166C18.1219 10.7369 17.5785 11.706 17.0258 12.309C16.7492 12.6108 16.4699 12.8212 16.2546 12.9559C16.147 13.0233 16.0556 13.0716 15.9889 13.1029C15.9555 13.1186 15.9286 13.1298 15.9092 13.137C15.8995 13.1406 15.8921 13.143 15.887 13.1445C15.8867 13.1445 15.8864 13.1446 15.8861 13.1447C15.8858 13.1446 15.8853 13.1445 15.8849 13.1444C15.8795 13.1429 15.8716 13.1404 15.8613 13.1367C15.8407 13.1295 15.8121 13.1181 15.7765 13.1024C15.7053 13.071 15.6074 13.0226 15.4919 12.9551C15.2608 12.8202 14.9602 12.6096 14.6622 12.3076C14.0668 11.7044 13.4807 10.7356 13.4807 9.27166Z" fill="white"/>
<path d="M13.4807 9.27166V6.99543H18.1219V6.99692V7.00095V7.00499V7.00904V7.0131V7.01716V7.02124V7.02533V7.02942V7.03353V7.03764V7.04177V7.0459V7.05004V7.05419V7.05835V7.06252V7.0667V7.07089V7.07508V7.07929V7.0835V7.08772V7.09195V7.09619V7.10044V7.10469V7.10896V7.11323V7.11751V7.1218V7.1261V7.13041V7.13472V7.13904V7.14338V7.14771V7.15206V7.15642V7.16078V7.16515V7.16953V7.17392V7.17831V7.18271V7.18712V7.19154V7.19596V7.2004V7.20484V7.20928V7.21374V7.2182V7.22267V7.22715V7.23163V7.23612V7.24062V7.24512V7.24964V7.25416V7.25868V7.26321V7.26775V7.2723V7.27685V7.28142V7.28598V7.29056V7.29514V7.29972V7.30432V7.30892V7.31352V7.31813V7.32275V7.32738V7.33201V7.33665V7.34129V7.34594V7.35059V7.35526V7.35992V7.3646V7.36928V7.37396V7.37865V7.38335V7.38805V7.39276V7.39747V7.40219V7.40692V7.41165V7.41638V7.42112V7.42587V7.43062V7.43538V7.44014V7.44491V7.44968V7.45445V7.45924V7.46402V7.46882V7.47361V7.47841V7.48322V7.48803V7.49285V7.49767V7.50249V7.50732V7.51216V7.517V7.52184V7.52669V7.53154V7.53639V7.54125V7.54612V7.55099V7.55586V7.56074V7.56562V7.5705V7.57539V7.58028V7.58518V7.59008V7.59498V7.59989V7.6048V7.60972V7.61463V7.61956V7.62448V7.62941V7.63434V7.63928V7.64422V7.64916V7.6541V7.65905V7.664V7.66896V7.67392V7.67888V7.68384V7.68881V7.69377V7.69875V7.70372V7.7087V7.71368V7.71866V7.72365V7.72863V7.73362V7.73862V7.74361V7.74861V7.75361V7.75861V7.76361V7.76862V7.77363V7.77864V7.78365V7.78867V7.79368V7.7987V7.80372V7.80874V7.81376V7.81879V7.82382V7.82885V8.15195V8.17209V8.17712V8.18215V8.18718V8.1922V8.19723V8.20225V8.20727V8.21229V8.21731V8.22232V8.22734V8.23235V8.23736V8.24236V8.24737V8.25237V8.25737V8.26237V8.26736V8.27236V8.27735V8.28234V8.28732V8.29231V8.29729V8.30227V8.30724V8.31221V8.31719V8.32215V8.32712V8.33208V8.33704V8.34199V8.34695V8.35189V8.35684V8.36178V8.36672V8.37166V8.37659V8.38152V8.38645V8.39137V8.39629V8.40121V8.40612V8.41103V8.41594V8.42084V8.42574V8.43063V8.43552V8.44041V8.44529V8.45017V8.45504V8.45991V8.46478V8.46964V8.4745V8.47935V8.4842V8.48904V8.49388V8.49872V8.50355V8.50838V8.5132V8.51802V8.52283V8.52764V8.53244V8.53724V8.54203V8.54682V8.55161V8.55639V8.56116V8.56593V8.57069V8.57545V8.5802V8.58495V8.58969V8.59443V8.59916V8.60389V8.60861V8.61333V8.61804V8.62274V8.62744V8.63213V8.63682V8.6415V8.64618V8.65085V8.65551V8.66017V8.66482V8.66947V8.67411V8.67874V8.68337V8.68799V8.6926V8.69721V8.70181V8.70641V8.711V8.71558V8.72016V8.72473V8.72929V8.73385V8.7384V8.74294V8.74747V8.752V8.75652V8.76104V8.76555V8.77005V8.77454V8.77903V8.78351V8.78798V8.79244V8.7969V8.80135V8.80579V8.81023V8.81466V8.81908V8.82349V8.82789V8.83229V8.83668V8.84106V8.84544V8.8498V8.85416V8.85851V8.86285V8.86719V8.87151V8.87583V8.88014V8.88444V8.88873V8.89302V8.89729V8.90156V8.90582V8.91007V8.91432V8.91855V8.92277V8.92699V8.9312V8.9354V8.93959V8.94377V8.94794V8.9521V8.95626V8.9604V8.96454V8.96867V8.97278V8.97689V8.98099V8.98508V8.98916V8.99323V8.9973V9.00135V9.00539V9.00942V9.01345V9.01746V9.02146V9.02546V9.02944V9.03342V9.03738V9.04134V9.04528V9.04922V9.05314V9.05705V9.06096V9.06485V9.06874V9.07261V9.07647V9.08033V9.08417V9.088V9.09182V9.09563V9.09943V9.10322V9.107V9.11077V9.11452V9.11827V9.122V9.12573V9.12944V9.13314V9.13684V9.14052V9.14418V9.14784V9.15149V9.15512V9.15875V9.16236V9.16596V9.16955V9.17313V9.17669V9.18025V9.18379V9.18732V9.19084V9.19435V9.19784V9.2048V9.20826V9.21171V9.21514V9.21857V9.22198V9.22538V9.22876V9.23214V9.2355V9.23885V9.24219V9.24551V9.24883V9.25213V9.25541V9.25869V9.26195V9.2652V9.26843V9.27166C18.1219 10.7369 17.5785 11.706 17.0258 12.309C16.7492 12.6108 16.4699 12.8212 16.2546 12.9559C16.147 13.0233 16.0556 13.0716 15.9889 13.1029C15.9555 13.1186 15.9286 13.1298 15.9092 13.137C15.8995 13.1406 15.8921 13.143 15.887 13.1445C15.8867 13.1445 15.8864 13.1446 15.8861 13.1447C15.8858 13.1446 15.8853 13.1445 15.8849 13.1444C15.8795 13.1429 15.8716 13.1404 15.8613 13.1367C15.8407 13.1295 15.8121 13.1181 15.7765 13.1024C15.7053 13.071 15.6074 13.0226 15.4919 12.9551C15.2608 12.8202 14.9602 12.6096 14.6622 12.3076C14.0668 11.7044 13.4807 10.7356 13.4807 9.27166Z" stroke="#0B50A0" stroke-width="0.1"/>
<path d="M13.4807 9.27166V6.99543H18.1219V6.99692V7.00095V7.00499V7.00904V7.0131V7.01716V7.02124V7.02533V7.02942V7.03353V7.03764V7.04177V7.0459V7.05004V7.05419V7.05835V7.06252V7.0667V7.07089V7.07508V7.07929V7.0835V7.08772V7.09195V7.09619V7.10044V7.10469V7.10896V7.11323V7.11751V7.1218V7.1261V7.13041V7.13472V7.13904V7.14338V7.14771V7.15206V7.15642V7.16078V7.16515V7.16953V7.17392V7.17831V7.18271V7.18712V7.19154V7.19596V7.2004V7.20484V7.20928V7.21374V7.2182V7.22267V7.22715V7.23163V7.23612V7.24062V7.24512V7.24964V7.25416V7.25868V7.26321V7.26775V7.2723V7.27685V7.28142V7.28598V7.29056V7.29514V7.29972V7.30432V7.30892V7.31352V7.31813V7.32275V7.32738V7.33201V7.33665V7.34129V7.34594V7.35059V7.35526V7.35992V7.3646V7.36928V7.37396V7.37865V7.38335V7.38805V7.39276V7.39747V7.40219V7.40692V7.41165V7.41638V7.42112V7.42587V7.43062V7.43538V7.44014V7.44491V7.44968V7.45445V7.45924V7.46402V7.46882V7.47361V7.47841V7.48322V7.48803V7.49285V7.49767V7.50249V7.50732V7.51216V7.517V7.52184V7.52669V7.53154V7.53639V7.54125V7.54612V7.55099V7.55586V7.56074V7.56562V7.5705V7.57539V7.58028V7.58518V7.59008V7.59498V7.59989V7.6048V7.60972V7.61463V7.61956V7.62448V7.62941V7.63434V7.63928V7.64422V7.64916V7.6541V7.65905V7.664V7.66896V7.67392V7.67888V7.68384V7.68881V7.69377V7.69875V7.70372V7.7087V7.71368V7.71866V7.72365V7.72863V7.73362V7.73862V7.74361V7.74861V7.75361V7.75861V7.76361V7.76862V7.77363V7.77864V7.78365V7.78867V7.79368V7.7987V7.80372V7.80874V7.81376V7.81879V7.82382V7.82885V8.15195V8.17209V8.17712V8.18215V8.18718V8.1922V8.19723V8.20225V8.20727V8.21229V8.21731V8.22232V8.22734V8.23235V8.23736V8.24236V8.24737V8.25237V8.25737V8.26237V8.26736V8.27236V8.27735V8.28234V8.28732V8.29231V8.29729V8.30227V8.30724V8.31221V8.31719V8.32215V8.32712V8.33208V8.33704V8.34199V8.34695V8.35189V8.35684V8.36178V8.36672V8.37166V8.37659V8.38152V8.38645V8.39137V8.39629V8.40121V8.40612V8.41103V8.41594V8.42084V8.42574V8.43063V8.43552V8.44041V8.44529V8.45017V8.45504V8.45991V8.46478V8.46964V8.4745V8.47935V8.4842V8.48904V8.49388V8.49872V8.50355V8.50838V8.5132V8.51802V8.52283V8.52764V8.53244V8.53724V8.54203V8.54682V8.55161V8.55639V8.56116V8.56593V8.57069V8.57545V8.5802V8.58495V8.58969V8.59443V8.59916V8.60389V8.60861V8.61333V8.61804V8.62274V8.62744V8.63213V8.63682V8.6415V8.64618V8.65085V8.65551V8.66017V8.66482V8.66947V8.67411V8.67874V8.68337V8.68799V8.6926V8.69721V8.70181V8.70641V8.711V8.71558V8.72016V8.72473V8.72929V8.73385V8.7384V8.74294V8.74747V8.752V8.75652V8.76104V8.76555V8.77005V8.77454V8.77903V8.78351V8.78798V8.79244V8.7969V8.80135V8.80579V8.81023V8.81466V8.81908V8.82349V8.82789V8.83229V8.83668V8.84106V8.84544V8.8498V8.85416V8.85851V8.86285V8.86719V8.87151V8.87583V8.88014V8.88444V8.88873V8.89302V8.89729V8.90156V8.90582V8.91007V8.91432V8.91855V8.92277V8.92699V8.9312V8.9354V8.93959V8.94377V8.94794V8.9521V8.95626V8.9604V8.96454V8.96867V8.97278V8.97689V8.98099V8.98508V8.98916V8.99323V8.9973V9.00135V9.00539V9.00942V9.01345V9.01746V9.02146V9.02546V9.02944V9.03342V9.03738V9.04134V9.04528V9.04922V9.05314V9.05705V9.06096V9.06485V9.06874V9.07261V9.07647V9.08033V9.08417V9.088V9.09182V9.09563V9.09943V9.10322V9.107V9.11077V9.11452V9.11827V9.122V9.12573V9.12944V9.13314V9.13684V9.14052V9.14418V9.14784V9.15149V9.15512V9.15875V9.16236V9.16596V9.16955V9.17313V9.17669V9.18025V9.18379V9.18732V9.19084V9.19435V9.19784V9.2048V9.20826V9.21171V9.21514V9.21857V9.22198V9.22538V9.22876V9.23214V9.2355V9.23885V9.24219V9.24551V9.24883V9.25213V9.25541V9.25869V9.26195V9.2652V9.26843V9.27166C18.1219 10.7369 17.5785 11.706 17.0258 12.309C16.7492 12.6108 16.4699 12.8212 16.2546 12.9559C16.147 13.0233 16.0556 13.0716 15.9889 13.1029C15.9555 13.1186 15.9286 13.1298 15.9092 13.137C15.8995 13.1406 15.8921 13.143 15.887 13.1445C15.8867 13.1445 15.8864 13.1446 15.8861 13.1447C15.8858 13.1446 15.8853 13.1445 15.8849 13.1444C15.8795 13.1429 15.8716 13.1404 15.8613 13.1367C15.8407 13.1295 15.8121 13.1181 15.7765 13.1024C15.7053 13.071 15.6074 13.0226 15.4919 12.9551C15.2608 12.8202 14.9602 12.6096 14.6622 12.3076C14.0668 11.7044 13.4807 10.7356 13.4807 9.27166Z" stroke="#F7FCFF" stroke-width="0.1"/>
<mask id="mask2_1825_42906" style="mask-type:luminance" maskUnits="userSpaceOnUse" x="13" y="6" width="6" height="8">
<path d="M13.4807 9.27166V6.99543H18.1219V6.99692V7.00095V7.00499V7.00904V7.0131V7.01716V7.02124V7.02533V7.02942V7.03353V7.03764V7.04177V7.0459V7.05004V7.05419V7.05835V7.06252V7.0667V7.07089V7.07508V7.07929V7.0835V7.08772V7.09195V7.09619V7.10044V7.10469V7.10896V7.11323V7.11751V7.1218V7.1261V7.13041V7.13472V7.13904V7.14338V7.14771V7.15206V7.15642V7.16078V7.16515V7.16953V7.17392V7.17831V7.18271V7.18712V7.19154V7.19596V7.2004V7.20484V7.20928V7.21374V7.2182V7.22267V7.22715V7.23163V7.23612V7.24062V7.24512V7.24964V7.25416V7.25868V7.26321V7.26775V7.2723V7.27685V7.28142V7.28598V7.29056V7.29514V7.29972V7.30432V7.30892V7.31352V7.31813V7.32275V7.32738V7.33201V7.33665V7.34129V7.34594V7.35059V7.35526V7.35992V7.3646V7.36928V7.37396V7.37865V7.38335V7.38805V7.39276V7.39747V7.40219V7.40692V7.41165V7.41638V7.42112V7.42587V7.43062V7.43538V7.44014V7.44491V7.44968V7.45445V7.45924V7.46402V7.46882V7.47361V7.47841V7.48322V7.48803V7.49285V7.49767V7.50249V7.50732V7.51216V7.517V7.52184V7.52669V7.53154V7.53639V7.54125V7.54612V7.55099V7.55586V7.56074V7.56562V7.5705V7.57539V7.58028V7.58518V7.59008V7.59498V7.59989V7.6048V7.60972V7.61463V7.61956V7.62448V7.62941V7.63434V7.63928V7.64422V7.64916V7.6541V7.65905V7.664V7.66896V7.67392V7.67888V7.68384V7.68881V7.69377V7.69875V7.70372V7.7087V7.71368V7.71866V7.72365V7.72863V7.73362V7.73862V7.74361V7.74861V7.75361V7.75861V7.76361V7.76862V7.77363V7.77864V7.78365V7.78867V7.79368V7.7987V7.80372V7.80874V7.81376V7.81879V7.82382V7.82885V8.15195V8.17209V8.17712V8.18215V8.18718V8.1922V8.19723V8.20225V8.20727V8.21229V8.21731V8.22232V8.22734V8.23235V8.23736V8.24236V8.24737V8.25237V8.25737V8.26237V8.26736V8.27236V8.27735V8.28234V8.28732V8.29231V8.29729V8.30227V8.30724V8.31221V8.31719V8.32215V8.32712V8.33208V8.33704V8.34199V8.34695V8.35189V8.35684V8.36178V8.36672V8.37166V8.37659V8.38152V8.38645V8.39137V8.39629V8.40121V8.40612V8.41103V8.41594V8.42084V8.42574V8.43063V8.43552V8.44041V8.44529V8.45017V8.45504V8.45991V8.46478V8.46964V8.4745V8.47935V8.4842V8.48904V8.49388V8.49872V8.50355V8.50838V8.5132V8.51802V8.52283V8.52764V8.53244V8.53724V8.54203V8.54682V8.55161V8.55639V8.56116V8.56593V8.57069V8.57545V8.5802V8.58495V8.58969V8.59443V8.59916V8.60389V8.60861V8.61333V8.61804V8.62274V8.62744V8.63213V8.63682V8.6415V8.64618V8.65085V8.65551V8.66017V8.66482V8.66947V8.67411V8.67874V8.68337V8.68799V8.6926V8.69721V8.70181V8.70641V8.711V8.71558V8.72016V8.72473V8.72929V8.73385V8.7384V8.74294V8.74747V8.752V8.75652V8.76104V8.76555V8.77005V8.77454V8.77903V8.78351V8.78798V8.79244V8.7969V8.80135V8.80579V8.81023V8.81466V8.81908V8.82349V8.82789V8.83229V8.83668V8.84106V8.84544V8.8498V8.85416V8.85851V8.86285V8.86719V8.87151V8.87583V8.88014V8.88444V8.88873V8.89302V8.89729V8.90156V8.90582V8.91007V8.91432V8.91855V8.92277V8.92699V8.9312V8.9354V8.93959V8.94377V8.94794V8.9521V8.95626V8.9604V8.96454V8.96867V8.97278V8.97689V8.98099V8.98508V8.98916V8.99323V8.9973V9.00135V9.00539V9.00942V9.01345V9.01746V9.02146V9.02546V9.02944V9.03342V9.03738V9.04134V9.04528V9.04922V9.05314V9.05705V9.06096V9.06485V9.06874V9.07261V9.07647V9.08033V9.08417V9.088V9.09182V9.09563V9.09943V9.10322V9.107V9.11077V9.11452V9.11827V9.122V9.12573V9.12944V9.13314V9.13684V9.14052V9.14418V9.14784V9.15149V9.15512V9.15875V9.16236V9.16596V9.16955V9.17313V9.17669V9.18025V9.18379V9.18732V9.19084V9.19435V9.19784V9.2048V9.20826V9.21171V9.21514V9.21857V9.22198V9.22538V9.22876V9.23214V9.2355V9.23885V9.24219V9.24551V9.24883V9.25213V9.25541V9.25869V9.26195V9.2652V9.26843V9.27166C18.1219 10.7369 17.5785 11.706 17.0258 12.309C16.7492 12.6108 16.4699 12.8212 16.2546 12.9559C16.147 13.0233 16.0556 13.0716 15.9889 13.1029C15.9555 13.1186 15.9286 13.1298 15.9092 13.137C15.8995 13.1406 15.8921 13.143 15.887 13.1445C15.8867 13.1445 15.8864 13.1446 15.8861 13.1447C15.8858 13.1446 15.8853 13.1445 15.8849 13.1444C15.8795 13.1429 15.8716 13.1404 15.8613 13.1367C15.8407 13.1295 15.8121 13.1181 15.7765 13.1024C15.7053 13.071 15.6074 13.0226 15.4919 12.9551C15.2608 12.8202 14.9602 12.6096 14.6622 12.3076C14.0668 11.7044 13.4807 10.7356 13.4807 9.27166Z" fill="white"/>
<path d="M13.4807 9.27166V6.99543H18.1219V6.99692V7.00095V7.00499V7.00904V7.0131V7.01716V7.02124V7.02533V7.02942V7.03353V7.03764V7.04177V7.0459V7.05004V7.05419V7.05835V7.06252V7.0667V7.07089V7.07508V7.07929V7.0835V7.08772V7.09195V7.09619V7.10044V7.10469V7.10896V7.11323V7.11751V7.1218V7.1261V7.13041V7.13472V7.13904V7.14338V7.14771V7.15206V7.15642V7.16078V7.16515V7.16953V7.17392V7.17831V7.18271V7.18712V7.19154V7.19596V7.2004V7.20484V7.20928V7.21374V7.2182V7.22267V7.22715V7.23163V7.23612V7.24062V7.24512V7.24964V7.25416V7.25868V7.26321V7.26775V7.2723V7.27685V7.28142V7.28598V7.29056V7.29514V7.29972V7.30432V7.30892V7.31352V7.31813V7.32275V7.32738V7.33201V7.33665V7.34129V7.34594V7.35059V7.35526V7.35992V7.3646V7.36928V7.37396V7.37865V7.38335V7.38805V7.39276V7.39747V7.40219V7.40692V7.41165V7.41638V7.42112V7.42587V7.43062V7.43538V7.44014V7.44491V7.44968V7.45445V7.45924V7.46402V7.46882V7.47361V7.47841V7.48322V7.48803V7.49285V7.49767V7.50249V7.50732V7.51216V7.517V7.52184V7.52669V7.53154V7.53639V7.54125V7.54612V7.55099V7.55586V7.56074V7.56562V7.5705V7.57539V7.58028V7.58518V7.59008V7.59498V7.59989V7.6048V7.60972V7.61463V7.61956V7.62448V7.62941V7.63434V7.63928V7.64422V7.64916V7.6541V7.65905V7.664V7.66896V7.67392V7.67888V7.68384V7.68881V7.69377V7.69875V7.70372V7.7087V7.71368V7.71866V7.72365V7.72863V7.73362V7.73862V7.74361V7.74861V7.75361V7.75861V7.76361V7.76862V7.77363V7.77864V7.78365V7.78867V7.79368V7.7987V7.80372V7.80874V7.81376V7.81879V7.82382V7.82885V8.15195V8.17209V8.17712V8.18215V8.18718V8.1922V8.19723V8.20225V8.20727V8.21229V8.21731V8.22232V8.22734V8.23235V8.23736V8.24236V8.24737V8.25237V8.25737V8.26237V8.26736V8.27236V8.27735V8.28234V8.28732V8.29231V8.29729V8.30227V8.30724V8.31221V8.31719V8.32215V8.32712V8.33208V8.33704V8.34199V8.34695V8.35189V8.35684V8.36178V8.36672V8.37166V8.37659V8.38152V8.38645V8.39137V8.39629V8.40121V8.40612V8.41103V8.41594V8.42084V8.42574V8.43063V8.43552V8.44041V8.44529V8.45017V8.45504V8.45991V8.46478V8.46964V8.4745V8.47935V8.4842V8.48904V8.49388V8.49872V8.50355V8.50838V8.5132V8.51802V8.52283V8.52764V8.53244V8.53724V8.54203V8.54682V8.55161V8.55639V8.56116V8.56593V8.57069V8.57545V8.5802V8.58495V8.58969V8.59443V8.59916V8.60389V8.60861V8.61333V8.61804V8.62274V8.62744V8.63213V8.63682V8.6415V8.64618V8.65085V8.65551V8.66017V8.66482V8.66947V8.67411V8.67874V8.68337V8.68799V8.6926V8.69721V8.70181V8.70641V8.711V8.71558V8.72016V8.72473V8.72929V8.73385V8.7384V8.74294V8.74747V8.752V8.75652V8.76104V8.76555V8.77005V8.77454V8.77903V8.78351V8.78798V8.79244V8.7969V8.80135V8.80579V8.81023V8.81466V8.81908V8.82349V8.82789V8.83229V8.83668V8.84106V8.84544V8.8498V8.85416V8.85851V8.86285V8.86719V8.87151V8.87583V8.88014V8.88444V8.88873V8.89302V8.89729V8.90156V8.90582V8.91007V8.91432V8.91855V8.92277V8.92699V8.9312V8.9354V8.93959V8.94377V8.94794V8.9521V8.95626V8.9604V8.96454V8.96867V8.97278V8.97689V8.98099V8.98508V8.98916V8.99323V8.9973V9.00135V9.00539V9.00942V9.01345V9.01746V9.02146V9.02546V9.02944V9.03342V9.03738V9.04134V9.04528V9.04922V9.05314V9.05705V9.06096V9.06485V9.06874V9.07261V9.07647V9.08033V9.08417V9.088V9.09182V9.09563V9.09943V9.10322V9.107V9.11077V9.11452V9.11827V9.122V9.12573V9.12944V9.13314V9.13684V9.14052V9.14418V9.14784V9.15149V9.15512V9.15875V9.16236V9.16596V9.16955V9.17313V9.17669V9.18025V9.18379V9.18732V9.19084V9.19435V9.19784V9.2048V9.20826V9.21171V9.21514V9.21857V9.22198V9.22538V9.22876V9.23214V9.2355V9.23885V9.24219V9.24551V9.24883V9.25213V9.25541V9.25869V9.26195V9.2652V9.26843V9.27166C18.1219 10.7369 17.5785 11.706 17.0258 12.309C16.7492 12.6108 16.4699 12.8212 16.2546 12.9559C16.147 13.0233 16.0556 13.0716 15.9889 13.1029C15.9555 13.1186 15.9286 13.1298 15.9092 13.137C15.8995 13.1406 15.8921 13.143 15.887 13.1445C15.8867 13.1445 15.8864 13.1446 15.8861 13.1447C15.8858 13.1446 15.8853 13.1445 15.8849 13.1444C15.8795 13.1429 15.8716 13.1404 15.8613 13.1367C15.8407 13.1295 15.8121 13.1181 15.7765 13.1024C15.7053 13.071 15.6074 13.0226 15.4919 12.9551C15.2608 12.8202 14.9602 12.6096 14.6622 12.3076C14.0668 11.7044 13.4807 10.7356 13.4807 9.27166Z" stroke="white" stroke-width="0.1"/>
</mask>
<g mask="url(#mask2_1825_42906)">
<rect x="13.1265" y="6.63293" width="5.4" height="2.125" fill="#F50100"/>
<path d="M15.5334 9.19543C15.7062 9.19543 16.0518 8.99952 16.1382 8.95431C16.455 8.7584 16.6854 8.93924 16.8726 9.02966C17.0742 9.12008 17.4486 9.22557 17.679 9.02966C17.9094 8.83375 18.039 8.84882 18.1974 8.84882C18.2262 8.62277 18.2262 8.39672 18.2262 8.14052V7.95968C18.0246 7.91447 17.9238 7.97475 17.7078 8.17066C17.4918 8.36658 17.247 8.32137 16.9302 8.2008C16.6278 8.06517 16.3254 7.82405 16.023 8.2008C15.9366 8.3063 15.735 8.457 15.5334 8.457C15.3174 8.457 15.1302 8.3063 15.0438 8.2008C14.727 7.82405 14.439 8.06517 14.1366 8.2008C13.8198 8.32137 13.5606 8.36658 13.3446 8.17066C13.143 7.97475 13.0422 7.91447 12.8262 7.95968V8.14052C12.8262 8.39672 12.8406 8.62277 12.8694 8.84882C13.0278 8.84882 13.143 8.83375 13.3734 9.02966C13.6038 9.22557 13.9926 9.12008 14.1798 9.02966C14.3814 8.93924 14.6118 8.7584 14.9286 8.95431C15.015 8.99952 15.3462 9.19543 15.5334 9.19543H15.5334Z" fill="#F50100"/>
<path fill-rule="evenodd" clip-rule="evenodd" d="M14.0766 7.60103C14.0766 7.60103 14.2067 7.60731 14.3608 7.77304C14.5149 7.93876 15.0821 7.83328 15.0821 7.73331C15.0821 7.63334 14.7379 7.57362 14.8701 7.40268C15.0024 7.23175 15.2263 7.23144 15.4063 7.32049C15.458 7.32049 15.4522 7.90522 15.5701 7.87312C15.9432 7.77147 16.545 7.57005 16.7215 7.65646C16.9538 7.77016 17.1315 7.74188 17.0725 7.57874C17.0134 7.4156 16.8617 7.31364 16.5695 7.40268C16.2773 7.49173 16.3463 7.57874 16.0938 7.57874C15.8412 7.57874 15.408 7.72105 15.6004 7.40268C15.7728 7.1174 15.9785 7.11182 16.057 7.23175C16.0971 7.2931 15.7695 7.42859 15.7695 7.49173C15.7695 7.57874 16.6134 7.32062 16.7215 7.32062C16.8297 7.32062 17.1273 7.31364 17.1568 7.40268C17.1864 7.49173 17.3661 7.57344 17.2291 7.65646C17.0921 7.73947 16.8662 7.79147 17.0216 7.89783C17.177 8.00419 17.5709 8.05256 17.5881 8.1632C17.6054 8.27383 17.7748 8.43904 17.7068 8.43904C17.6388 8.43904 17.5159 8.59485 17.4015 8.54741C17.2871 8.49997 17.2736 8.45831 17.3833 8.41988C17.493 8.38145 17.492 8.21982 17.4015 8.21982C17.311 8.21982 17.3187 8.20758 17.1127 8.15096C16.9067 8.09433 16.634 8.03138 16.6504 8.15096C16.6668 8.27053 16.8063 8.52718 16.5588 8.55164C16.3113 8.57611 16.1955 8.67432 16.1473 8.59523C16.0991 8.51614 15.9269 8.41075 16.0623 8.37695C16.1977 8.34316 16.3271 8.49182 16.3759 8.46755C16.4246 8.44328 16.5298 8.35666 16.4372 8.25381C16.3446 8.15096 16.1649 8.14747 16.3063 8.07049C16.4478 7.9935 16.3634 7.93485 16.0938 8.09433C15.8242 8.25381 15.6742 8.38934 15.4375 8.37018C15.2009 8.35101 15.0946 8.43871 15.0186 8.41286C14.9425 8.38701 14.572 8.69849 14.4653 8.61944C14.3586 8.54039 14.0142 8.51006 14.0762 8.41286C14.1382 8.31565 14.2215 8.26561 14.3142 8.31565C14.4069 8.3657 14.499 8.41574 14.5615 8.3657C14.6241 8.31565 14.8222 8.08209 14.7768 8.04775C14.7313 8.01342 14.5713 7.95463 14.3142 7.95463C14.057 7.95463 14.0511 7.77665 13.99 7.69549C13.929 7.61432 14.0766 7.60103 14.0766 7.60103Z" fill="#FFD100"/>
<path d="M15.5334 10.6954C15.7062 10.6954 16.0518 10.4995 16.1382 10.4543C16.455 10.2584 16.6854 10.4392 16.8726 10.5297C17.0742 10.6201 17.4486 10.7256 17.679 10.5297C17.9094 10.3338 18.039 10.3488 18.1974 10.3488C18.2262 10.1228 18.2262 9.89672 18.2262 9.64052V9.45968C18.0246 9.41447 17.9238 9.47475 17.7078 9.67066C17.4918 9.86658 17.247 9.82137 16.9302 9.7008C16.6278 9.56517 16.3254 9.32405 16.023 9.7008C15.9366 9.8063 15.735 9.957 15.5334 9.957C15.3174 9.957 15.1302 9.8063 15.0438 9.7008C14.727 9.32405 14.439 9.56517 14.1366 9.7008C13.8198 9.82137 13.5606 9.86658 13.3446 9.67066C13.143 9.47475 13.0422 9.41447 12.8262 9.45968V9.64052C12.8262 9.89672 12.8406 10.1228 12.8694 10.3488C13.0278 10.3488 13.143 10.3338 13.3734 10.5297C13.6038 10.7256 13.9926 10.6201 14.1798 10.5297C14.3814 10.4392 14.6118 10.2584 14.9286 10.4543C15.015 10.4995 15.3462 10.6954 15.5334 10.6954H15.5334Z" fill="#0B50A0"/>
<path d="M15.5334 12.1329C15.7062 12.1329 16.0518 11.937 16.1382 11.8918C16.455 11.6959 16.6854 11.8767 16.8726 11.9672C17.0742 12.0576 17.4486 12.1631 17.679 11.9672C17.9094 11.7713 18.039 11.7863 18.1974 11.7863C18.2262 11.5603 18.2262 11.3342 18.2262 11.078V10.8972C18.0246 10.852 17.9238 10.9123 17.7078 11.1082C17.4918 11.3041 17.247 11.2589 16.9302 11.1383C16.6278 11.0027 16.3254 10.7616 16.023 11.1383C15.9366 11.2438 15.735 11.3945 15.5334 11.3945C15.3174 11.3945 15.1302 11.2438 15.0438 11.1383C14.727 10.7616 14.439 11.0027 14.1366 11.1383C13.8198 11.2589 13.5606 11.3041 13.3446 11.1082C13.143 10.9123 13.0422 10.852 12.8262 10.8972V11.078C12.8262 11.3342 12.8406 11.5603 12.8694 11.7863C13.0278 11.7863 13.143 11.7713 13.3734 11.9672C13.6038 12.1631 13.9926 12.0576 14.1798 11.9672C14.3814 11.8767 14.6118 11.6959 14.9286 11.8918C15.015 11.937 15.3462 12.1329 15.5334 12.1329H15.5334Z" fill="#0B50A0"/>
<path d="M15.5334 13.5704C15.7062 13.5704 16.0518 13.3745 16.1382 13.3293C16.455 13.1334 16.6854 13.3142 16.8726 13.4047C17.0742 13.4951 17.4486 13.6006 17.679 13.4047C17.9094 13.2088 18.039 13.2238 18.1974 13.2238C18.2262 12.9978 18.2262 12.7717 18.2262 12.5155V12.3347C18.0246 12.2895 17.9238 12.3498 17.7078 12.5457C17.4918 12.7416 17.247 12.6964 16.9302 12.5758C16.6278 12.4402 16.3254 12.1991 16.023 12.5758C15.9366 12.6813 15.735 12.832 15.5334 12.832C15.3174 12.832 15.1302 12.6813 15.0438 12.5758C14.727 12.1991 14.439 12.4402 14.1366 12.5758C13.8198 12.6964 13.5606 12.7416 13.3446 12.5457C13.143 12.3498 13.0422 12.2895 12.8262 12.3347V12.5155C12.8262 12.7717 12.8406 12.9978 12.8694 13.2238C13.0278 13.2238 13.143 13.2088 13.3734 13.4047C13.6038 13.6006 13.9926 13.4951 14.1798 13.4047C14.3814 13.3142 14.6118 13.1334 14.9286 13.3293C15.015 13.3745 15.3462 13.5704 15.5334 13.5704H15.5334Z" fill="#0B50A0"/>
<path d="M15.8708 11.656L15.8461 11.643L15.822 11.6572L15.5517 11.8174L15.6307 11.4844L15.6374 11.456L15.616 11.4362L15.3539 11.194H15.691H15.7259L15.7379 11.1613L15.8506 10.8552L15.9838 11.1638L15.9969 11.194H16.0298H16.3099L16.0784 11.4385L16.0577 11.4603L16.0673 11.4888L16.1774 11.818L15.8708 11.656Z" fill="#059334" stroke="#FFD100" stroke-width="0.1"/>
<path d="M14.6711 10.406L14.6464 10.393L14.6223 10.4072L14.352 10.5674L14.431 10.2344L14.4377 10.206L14.4162 10.1862L14.1542 9.944H14.4913H14.5262L14.5382 9.91127L14.6509 9.60516L14.7841 9.91381L14.7972 9.944H14.83H15.1102L14.8787 10.1885L14.858 10.2103L14.8675 10.2388L14.9777 10.568L14.6711 10.406Z" fill="#059334" stroke="#FFD100" stroke-width="0.1"/>
<path d="M17.071 10.406L17.0463 10.393L17.0222 10.4072L16.7519 10.5674L16.8309 10.2344L16.8376 10.206L16.8161 10.1862L16.5541 9.944H16.8912H16.9261L16.9381 9.91127L17.0508 9.60516L17.184 9.91381L17.1971 9.944H17.2299H17.5101L17.2786 10.1885L17.2579 10.2103L17.2675 10.2388L17.3776 10.568L17.071 10.406Z" fill="#059334" stroke="#FFD100" stroke-width="0.1"/>
</g>
</g>
<path d="M13.0286 12.9669C13.0837 13.0898 13.4787 13.2511 13.9381 13.0437C14.2504 12.8978 14.4525 12.6904 14.6454 12.3218C14.7006 12.2296 14.7281 12.1144 14.5995 12.0453C14.4984 11.9839 14.3331 11.9147 14.2596 11.8533C14.2229 11.8226 14.1861 11.7995 14.1585 11.7765C14.1769 11.7918 14.1953 11.8072 14.2137 11.8302C14.3974 12.0146 14.2045 12.2834 14.0024 12.4447C13.8554 12.5599 13.589 12.844 13.2031 12.5752C13.1205 12.5138 12.9275 12.7672 13.0286 12.9669L13.0286 12.9669Z" fill="#FFD100"/>
<path d="M18.6141 12.9669C18.5497 13.0898 18.1547 13.2511 17.7046 13.0437C17.3922 12.8978 17.1901 12.6904 16.988 12.3218C16.9421 12.2296 16.9145 12.1144 17.0431 12.0453C17.1442 11.9839 17.3096 11.9147 17.383 11.8533C17.4198 11.8226 17.4473 11.7995 17.4841 11.7765C17.4657 11.7918 17.4473 11.8072 17.429 11.8302C17.2452 12.0146 17.4382 12.2834 17.6311 12.4447C17.7781 12.5599 18.0537 12.844 18.4395 12.5752C18.5222 12.5138 18.7059 12.7672 18.6141 12.9669L18.6141 12.9669Z" fill="#FFD100"/>
<path d="M15.8211 13.6274C16.556 13.6274 17.686 13.3509 18.2923 12.3832C18.3934 12.2219 18.2923 12.1374 18.1729 12.0837C18.0443 12.0376 17.8881 11.9301 17.8054 11.861C17.9524 11.9838 17.9248 12.0683 17.8238 12.2066C17.3553 12.8594 16.7122 13.1896 15.8211 13.1896C14.93 13.1896 14.2869 12.8594 13.8184 12.2066C13.7174 12.0683 13.6898 11.9838 13.8276 11.861C13.7541 11.9301 13.5888 12.0376 13.4602 12.0837C13.3407 12.1374 13.2397 12.2219 13.3407 12.3832C13.947 13.3509 15.0862 13.6274 15.8211 13.6274H15.8211Z" fill="#FFD100"/>
<path d="M14.1217 12.3295C14.1034 12.2527 13.9839 12.2834 13.9472 12.3756C13.9013 12.3218 13.8553 12.268 13.8186 12.2066C13.7083 12.0684 13.69 11.9762 13.8461 11.8456C13.9196 11.7842 14.0666 11.7151 14.1677 11.7919C14.379 11.9378 14.2687 12.1759 14.1217 12.3295L14.1217 12.3295Z" fill="#F50100"/>
<path d="M17.5115 12.3295C17.5298 12.2527 17.6584 12.2834 17.6952 12.3756C17.7411 12.3218 17.7871 12.268 17.8238 12.2066C17.934 12.0684 17.9524 11.9762 17.7871 11.8456C17.7228 11.7842 17.5758 11.7151 17.4655 11.7919C17.2634 11.9378 17.3645 12.1759 17.5115 12.3295L17.5115 12.3295Z" fill="#F50100"/>
<path d="M14.8811 5.92317C14.8089 5.8205 14.6129 5.77486 14.5304 5.86613C14.4995 5.88895 14.4583 5.88895 14.4273 5.90036C14.3757 5.90036 14.3099 5.92908 14.3305 6.04317C14.3861 6.04317 14.3861 6.07148 14.417 6.07148C14.4376 6.06007 14.4913 6.26934 14.5944 6.25793C14.7078 6.25793 14.8089 6.31106 14.8295 6.33387C14.8605 6.3681 14.9017 6.45936 14.8501 6.505C14.7779 6.57345 14.7264 6.73316 14.8501 6.85866C14.9842 6.97274 15.3245 7.14387 15.7061 6.81302C16.0774 6.49359 16.6549 6.67612 16.6961 6.79021C16.7477 6.90429 16.7683 6.97274 16.7786 7.02978C16.789 7.07542 17.0674 7.14387 17.1087 7.17809C17.1602 7.21232 17.2324 7.20091 17.2118 7.09823C17.1705 6.7788 16.9952 6.73317 16.9746 6.58486C17.0777 6.59627 17.1499 6.59627 17.1912 6.55063C17.2221 6.505 17.2634 6.42514 17.3046 6.40232C17.3355 6.37951 17.3355 6.35669 17.2943 6.3681C17.2427 6.37951 17.2118 6.40232 17.119 6.39092C16.8994 6.36451 16.9537 5.49912 16.2276 5.33078C15.7788 5.22675 15.2193 5.94013 15.0658 6.01076C15.0625 6.0123 15.0593 6.01353 15.0564 6.01444C14.9842 6.01444 14.9223 5.98021 14.8811 5.92317Z" fill="#059334"/>
<defs>
<clipPath id="clip0_1825_42906">
<rect width="5" height="7" fill="white" transform="translate(13.4263 6.94543)"/>
</clipPath>
</defs>
</svg>
