<svg width="20" height="15" viewBox="0 0 20 15" fill="none" xmlns="http://www.w3.org/2000/svg">
<mask id="mask0_1825_43099" style="mask-type:luminance" maskUnits="userSpaceOnUse" x="0" y="0" width="20" height="15">
<rect width="20" height="15" fill="white"/>
</mask>
<g mask="url(#mask0_1825_43099)">
<path fill-rule="evenodd" clip-rule="evenodd" d="M20 0H0V3.75H20V0ZM20 11.25H0V15H20V11.25Z" fill="#F50101"/>
<path fill-rule="evenodd" clip-rule="evenodd" d="M0 3.75H20V11.25H0V3.75Z" fill="#F7FCFF"/>
<path fill-rule="evenodd" clip-rule="evenodd" d="M13.447 7.8207C13.4936 8.36279 11.4931 7.59579 11.4931 7.81284C11.4931 8.02989 13.6361 8.41099 13.6325 8.89688C13.6289 9.38276 11.0914 8.75824 11.6605 8.97674C12.2295 9.19523 13.4512 9.71832 13.3124 10.0442C13.0158 10.7402 11.0461 9.56138 10.8823 9.79378C10.6179 10.1686 12.3358 11.0429 12.3213 11.1265C12.2933 11.2867 11.1479 10.8747 10.8823 11.2074C10.6672 11.1467 10.5678 10.8571 10.501 10.8187L10.0783 5.36655C10.0783 5.36655 10.4578 10.4999 9.97285 10.6476C9.4879 10.7952 8.14074 11.2441 8.10154 11.0199C8.08695 10.9363 9.72361 10.1686 9.45922 9.79378C9.26449 9.51754 7.28938 10.4971 7.16336 9.92989C6.602 9.52523 8.98132 9.17507 8.98132 8.76125C8.98132 8.34738 6.8047 9.25106 7.06509 8.67497C7.32548 8.09889 9.06803 7.89263 9.10054 7.81284C9.15997 7.66693 7.16336 8.03999 7.16336 7.81284C7.16336 7.38303 8.35847 7.29846 9.10054 6.91166C9.14439 6.47028 7.30034 7.3462 7.16336 6.99237C7.02637 6.63855 9.52033 5.7219 9.45922 5.65049C9.3627 5.53772 7.35275 6.04658 7.68422 5.77936C8.32754 5.26073 9.58325 4.55549 9.87218 4.36738C9.87218 4.36738 9.90698 4.2964 9.94417 4.32049C9.98145 4.2964 10.0224 4.27002 10.0224 4.27002C10.0224 4.27002 10.0224 4.71379 10.0163 4.36738C10.0101 4.02097 12.9598 5.53675 12.9933 5.92101C13.0322 6.3699 11.1707 5.58259 11.2145 6.02397C11.5929 6.25843 12.6692 6.71215 13.1139 6.91166C13.3156 7.00215 11.6278 6.72012 11.6634 6.8586C11.7542 7.2115 13.3984 7.25532 13.447 7.8207Z" fill="#52AB0B"/>
</g>
</svg>
