<svg width="20" height="15" viewBox="0 0 20 15" fill="none" xmlns="http://www.w3.org/2000/svg">
<g clip-path="url(#clip0_14_363)">
<mask id="mask0_14_363" style="mask-type:luminance" maskUnits="userSpaceOnUse" x="0" y="0" width="20" height="15">
<path d="M0.000976562 0H19.999V15H0.000976562V0Z" fill="white"/>
</mask>
<g mask="url(#mask0_14_363)">
<path fill-rule="evenodd" clip-rule="evenodd" d="M-1.25 11.25H21.25V15H-1.25V11.25ZM-1.25 0H21.25V3.75H-1.25V0Z" fill="#EE161F"/>
<path fill-rule="evenodd" clip-rule="evenodd" d="M-1.25 3.75H21.25V11.25H-1.25V3.75Z" fill="white"/>
<path d="M9.88578 3.80859C9.65727 4.2627 9.50492 4.2627 9.12406 4.57031C8.97172 4.71973 8.7432 4.7959 9.04789 4.95117C8.74028 5.10059 8.58793 5.17676 8.43559 5.48145L8.51176 5.55762C8.51176 5.55762 8.80473 5.41699 8.81645 5.48145C8.86918 5.54297 8.43559 5.77441 8.37992 5.8125L8.05766 6.01758C7.67387 6.31934 7.44242 6.24316 7.21684 6.7002L7.97856 6.62402C8.1309 7.15723 7.5977 7.2334 7.21684 7.46191L6.60453 7.84277C6.75981 8.37598 7.21684 8.07129 7.5977 7.91894L7.67387 7.99512V8.14746L6.91215 8.52832C6.91215 8.52832 6.00981 9.04394 5.99516 9.06152C5.9893 9.09082 5.99516 9.21387 5.99516 9.21387C6.29985 9.29004 6.75688 9.36621 7.06449 9.21387C7.44535 9.06152 7.52152 8.90918 7.97856 8.90918C7.53866 9.25241 7.01038 9.46373 6.45512 9.51855V9.82324C6.91215 9.82324 7.21684 9.82324 7.5977 9.74707L8.58793 9.44238C8.81645 9.44238 9.04789 9.6709 8.96879 9.89941C8.7432 10.7373 7.82621 10.585 7.52152 11.2705L8.74028 10.8105C9.04496 10.6582 9.34965 10.5088 9.73051 10.585C10.1875 10.7373 10.1875 11.042 10.7969 11.1943L10.6446 10.8135C10.7969 10.8896 10.9493 10.8896 11.1045 10.9658C11.4854 11.1182 11.5616 11.2705 12.0186 11.1943C11.6377 10.7373 11.5616 10.8135 11.2569 10.5088C10.9522 10.0518 10.7969 9.36621 11.2569 9.29004L11.7901 9.44238C12.3233 9.51855 12.3233 9.36621 13.085 9.6709C13.545 9.82324 13.6973 10.0518 14.2276 9.89941C14.002 9.36621 13.1641 8.98535 12.628 8.83301C13.2403 8.45215 13.085 8.98535 13.9258 8.75684V8.60449C13.3194 8.14453 13.0879 7.76367 12.25 7.76367L13.5479 7.61133V7.45898C13.5479 7.45898 12.2676 7.125 12.2383 7.11035C12.2471 7.07227 12.2793 7.01367 12.3643 6.97852C12.6075 7.13672 13.3399 7.11914 13.3838 7.11621C13.3604 6.92871 13.0118 6.77344 12.71 6.62109C12.71 6.62109 11.4004 5.81543 11.3946 5.74512C11.4209 5.54004 11.9307 5.77734 12.4786 5.93555C12.3262 5.63086 12.0215 5.47852 11.7168 5.40234L12.1739 5.32617C11.8692 4.64063 11.1075 4.7168 10.6504 4.41211C10.3428 4.18359 10.3428 4.03125 9.88578 3.80566V3.80859Z" fill="#00A850"/>
<path fill-rule="evenodd" clip-rule="evenodd" d="M9.0625 8.87695C9.11816 8.69823 9.19141 8.5371 8.85156 8.38183C8.51172 8.22655 9.02148 8.99999 9.0625 8.87987V8.87695ZM9.46387 8.51659C9.39648 8.52538 9.3584 8.77441 9.49609 8.84472C9.64844 8.86816 9.52539 8.51952 9.46387 8.51659ZM9.85937 8.4873C9.78906 8.51073 9.78613 8.8623 10.0352 8.79784C10.2871 8.73632 10.0352 8.46093 9.85937 8.49023V8.4873ZM10.3223 7.58788C10.375 7.49999 10.3193 7.14843 10.1055 7.29491C9.88867 7.44433 10.252 7.61132 10.3223 7.58788ZM9.85352 7.29491C9.9209 7.26855 9.92676 7.05175 9.73633 7.11034C9.55176 7.16601 9.80371 7.33886 9.85352 7.29491ZM9.43164 7.37987C9.43164 7.37987 9.2998 7.19823 9.19727 7.23632C9.07129 7.35937 9.44043 7.3828 9.43164 7.37987ZM7.97852 7.95995C8.03418 7.96581 8.44727 7.89257 8.59082 7.73144C8.73437 7.5703 7.85547 7.79882 7.85547 7.80175C7.85547 7.80468 7.9375 7.9453 7.97852 7.95995ZM12.1123 6.93456C12.1328 6.89648 11.8926 6.72655 11.749 6.79394C11.7109 6.91991 12.1123 6.96093 12.1123 6.93456ZM11.2979 6.52441C11.3447 6.45995 11.1953 6.19335 10.8965 6.34277C10.5977 6.48925 11.21 6.62987 11.2979 6.52734V6.52441ZM10.3574 6.36913C10.3574 6.36913 10.4307 6.1289 10.6094 6.17577C10.8145 6.33105 10.3662 6.37792 10.3574 6.36913ZM10.1816 6.18749C10.1523 6.12011 9.96777 6.1582 9.75391 6.30175C9.53711 6.43945 10.2461 6.34277 10.1816 6.18456V6.18749ZM10.7295 5.54003C10.7295 5.54003 10.9199 5.45214 10.9785 5.54003C11.0576 5.66601 10.7266 5.54003 10.7295 5.54003ZM10.5684 5.45507C10.5303 5.3789 10.3193 5.37011 10.3252 5.48437C10.29 5.57226 10.6006 5.55468 10.5684 5.45507ZM10.0645 5.45507C10.0439 5.41112 9.74219 5.45507 9.6543 5.63671C9.80078 5.70702 10.1318 5.56933 10.0645 5.45507ZM9.41992 5.63964C9.41992 5.63964 9.02734 5.8828 9.00098 6.05859C9.0127 6.21093 9.49316 5.78319 9.49316 5.78319C9.49316 5.78319 9.53418 5.61327 9.42285 5.63964H9.41992ZM8.9834 5.41991C8.99512 5.37011 9.17969 5.25585 9.19434 5.26464C9.20898 5.31444 9.04492 5.44921 8.9834 5.41991ZM9.10938 6.3457C9.11816 6.27245 8.64062 6.27831 8.81934 6.49804C8.97168 6.68261 9.1416 6.37792 9.10938 6.3457ZM8.66992 6.65917C8.64648 6.6123 8.61133 6.48339 8.54687 6.47167C8.49121 6.47167 8.2041 6.53027 8.18066 6.57714C8.16895 6.61523 8.30078 6.85253 8.34473 6.85839C8.39746 6.8789 8.66406 6.68261 8.67285 6.65917H8.66992ZM11.2598 8.27636C11.2744 8.22362 11.7666 8.05663 11.9336 8.21777C12.1328 8.49023 11.248 8.36425 11.2598 8.27636ZM12.6074 8.59569C12.7158 8.41405 12.2764 8.19726 12.0918 8.40527C12.1562 8.65429 12.5195 8.74511 12.6074 8.59569Z" fill="white" stroke="white" stroke-width="0.15" stroke-linecap="round" stroke-linejoin="round"/>
</g>
</g>
<defs>
<clipPath id="clip0_14_363">
<rect width="20" height="15" fill="white"/>
</clipPath>
</defs>
</svg>
