<svg width="20" height="15" viewBox="0 0 20 15" fill="none" xmlns="http://www.w3.org/2000/svg">
<g clip-path="url(#clip0_14_357)">
<path d="M0 0H20V7.5H0V0Z" fill="#002B7F"/>
<path d="M0 7.5H20V15H0V7.5Z" fill="#CE1126"/>
<path d="M5.41011 3.05751L5.36261 4.62001H3.77761C3.58261 4.24001 3.42261 3.92001 3.42261 3.48251C3.42261 3.11751 3.71011 2.82751 4.12261 2.82751C4.56011 2.82751 5.04261 2.97501 5.41011 3.05751Z" fill="#FFD83D"/>
<path d="M3.61255 3.12996V4.02996ZM3.73755 3.03746V4.23746ZM3.86755 2.97496V4.40496ZM3.99255 2.94496V4.06746ZM4.12005 2.93996V4.07246ZM4.24755 2.89746V4.07246ZM4.37505 2.89746V4.07246ZM4.50255 2.90996V4.08496ZM4.63005 2.92246V4.09496ZM4.75755 2.99496V4.16996ZM4.88255 3.00746V4.32996ZM5.01255 3.00746V4.18246ZM5.13755 3.00746V4.18246Z" fill="#FFD83D"/>
<path d="M3.61255 3.12996V4.02996M3.73755 3.03746V4.23746M3.86755 2.97496V4.40496M3.99255 2.94496V4.06746M4.12005 2.93996V4.07246M4.24755 2.89746V4.07246M4.37505 2.89746V4.07246M4.50255 2.90996V4.08496M4.63005 2.92246V4.09496M4.75755 2.99496V4.16996M4.88255 3.00746V4.32996M5.01255 3.00746V4.18246M5.13755 3.00746V4.18246" stroke="black" stroke-width="0.06" stroke-linecap="round" stroke-linejoin="round"/>
<path d="M4.41007 2.94995C4.68007 2.99245 5.27007 3.26995 5.20257 3.64245C5.10757 4.17245 4.79757 3.95995 4.38757 3.88495L4.07757 3.98745C3.96507 4.09995 3.80257 4.20495 3.69257 4.06745H3.50757V4.78745H5.54257V3.04995L4.41007 2.94995Z" fill="black" stroke="black" stroke-width="0.06" stroke-linecap="round" stroke-linejoin="round"/>
<path d="M5.32013 2.94751C5.38779 2.94751 5.44263 2.89267 5.44263 2.82501C5.44263 2.75736 5.38779 2.70251 5.32013 2.70251C5.25248 2.70251 5.19763 2.75736 5.19763 2.82501C5.19763 2.89267 5.25248 2.94751 5.32013 2.94751Z" fill="#FFD83D" stroke="black" stroke-width="0.08" stroke-linecap="round" stroke-linejoin="round"/>
<path d="M5.04254 2.88001C5.1102 2.88001 5.16504 2.82516 5.16504 2.75751C5.16504 2.68985 5.1102 2.63501 5.04254 2.63501C4.97489 2.63501 4.92004 2.68985 4.92004 2.75751C4.92004 2.82516 4.97489 2.88001 5.04254 2.88001Z" fill="#FFD83D" stroke="black" stroke-width="0.08" stroke-linecap="round" stroke-linejoin="round"/>
<path d="M4.76007 2.80994C4.82773 2.80994 4.88257 2.7551 4.88257 2.68744C4.88257 2.61979 4.82773 2.56494 4.76007 2.56494C4.69242 2.56494 4.63757 2.61979 4.63757 2.68744C4.63757 2.7551 4.69242 2.80994 4.76007 2.80994Z" fill="#FFD83D" stroke="black" stroke-width="0.08" stroke-linecap="round" stroke-linejoin="round"/>
<path d="M4.4776 2.76246C4.54526 2.76246 4.6001 2.70761 4.6001 2.63996C4.6001 2.5723 4.54526 2.51746 4.4776 2.51746C4.40995 2.51746 4.3551 2.5723 4.3551 2.63996C4.3551 2.70761 4.40995 2.76246 4.4776 2.76246Z" fill="#FFD83D" stroke="black" stroke-width="0.08" stroke-linecap="round" stroke-linejoin="round"/>
<path d="M4.19513 2.73499C4.26279 2.73499 4.31763 2.68015 4.31763 2.61249C4.31763 2.54484 4.26279 2.48999 4.19513 2.48999C4.12748 2.48999 4.07263 2.54484 4.07263 2.61249C4.07263 2.68015 4.12748 2.73499 4.19513 2.73499Z" fill="#FFD83D" stroke="black" stroke-width="0.08" stroke-linecap="round" stroke-linejoin="round"/>
<path d="M3.92011 2.75C3.98776 2.75 4.04261 2.69516 4.04261 2.6275C4.04261 2.55985 3.98776 2.505 3.92011 2.505C3.85245 2.505 3.79761 2.55985 3.79761 2.6275C3.79761 2.69516 3.85245 2.75 3.92011 2.75Z" fill="#FFD83D" stroke="black" stroke-width="0.08" stroke-linecap="round" stroke-linejoin="round"/>
<path d="M3.65509 2.83997C3.72275 2.83997 3.77759 2.78513 3.77759 2.71747C3.77759 2.64982 3.72275 2.59497 3.65509 2.59497C3.58744 2.59497 3.53259 2.64982 3.53259 2.71747C3.53259 2.78513 3.58744 2.83997 3.65509 2.83997Z" fill="#FFD83D" stroke="black" stroke-width="0.08" stroke-linecap="round" stroke-linejoin="round"/>
<path d="M3.43256 3.00501C3.50021 3.00501 3.55506 2.95016 3.55506 2.88251C3.55506 2.81485 3.50021 2.76001 3.43256 2.76001C3.3649 2.76001 3.31006 2.81485 3.31006 2.88251C3.31006 2.95016 3.3649 3.00501 3.43256 3.00501Z" fill="#FFD83D" stroke="black" stroke-width="0.08" stroke-linecap="round" stroke-linejoin="round"/>
<path d="M3.27509 3.23255C3.34274 3.23255 3.39759 3.1777 3.39759 3.11005C3.39759 3.04239 3.34274 2.98755 3.27509 2.98755C3.20743 2.98755 3.15259 3.04239 3.15259 3.11005C3.15259 3.1777 3.20743 3.23255 3.27509 3.23255Z" fill="#FFD83D" stroke="black" stroke-width="0.08" stroke-linecap="round" stroke-linejoin="round"/>
<path d="M3.19757 3.50245C3.26523 3.50245 3.32007 3.4476 3.32007 3.37995C3.32007 3.31229 3.26523 3.25745 3.19757 3.25745C3.12992 3.25745 3.07507 3.31229 3.07507 3.37995C3.07507 3.4476 3.12992 3.50245 3.19757 3.50245Z" fill="#FFD83D" stroke="black" stroke-width="0.08" stroke-linecap="round" stroke-linejoin="round"/>
<path d="M3.20001 3.78003C3.26767 3.78003 3.32251 3.72519 3.32251 3.65753C3.32251 3.58988 3.26767 3.53503 3.20001 3.53503C3.13236 3.53503 3.07751 3.58988 3.07751 3.65753C3.07751 3.72519 3.13236 3.78003 3.20001 3.78003Z" fill="#FFD83D" stroke="black" stroke-width="0.08" stroke-linecap="round" stroke-linejoin="round"/>
<path d="M3.25507 4.0525C3.32272 4.0525 3.37757 3.99765 3.37757 3.92999C3.37757 3.86234 3.32272 3.8075 3.25507 3.8075C3.18741 3.8075 3.13257 3.86234 3.13257 3.92999C3.13257 3.99765 3.18741 4.0525 3.25507 4.0525Z" fill="#FFD83D" stroke="black" stroke-width="0.08" stroke-linecap="round" stroke-linejoin="round"/>
<path d="M5.37509 2.98745L5.36259 3.14995C5.05509 3.09995 4.62009 2.92995 4.21259 2.92995C3.83759 2.92995 3.54759 3.07995 3.54759 3.45995C3.54759 3.83245 3.70509 4.17245 3.91509 4.51745L3.69759 4.61745C3.50259 4.24245 3.34009 3.91745 3.34009 3.48245C3.34009 3.11745 3.62759 2.75745 4.12259 2.75745C4.56009 2.75745 5.00759 2.90745 5.37509 2.98745Z" fill="#FFD83D" stroke="black" stroke-width="0.08" stroke-linecap="round" stroke-linejoin="round"/>
<path d="M5.68999 3.05751L5.73749 4.62001H7.32249C7.51749 4.24001 7.67749 3.92001 7.67749 3.48251C7.67749 3.11751 7.38999 2.82751 6.97749 2.82751C6.53999 2.82751 6.05749 2.97501 5.68999 3.05751Z" fill="#FFD83D"/>
<path d="M7.48755 3.12996V4.02996ZM7.36255 3.03746V4.23746ZM7.23255 2.97496V4.40496ZM7.10755 2.94496V4.06746ZM6.98005 2.93996V4.07246ZM6.85255 2.89746V4.07246ZM6.72505 2.89746V4.07246ZM6.59755 2.90996V4.08496ZM6.47005 2.92246V4.09496ZM6.34255 2.99496V4.16996ZM6.21755 3.00746V4.32996ZM6.08755 3.00746V4.18246ZM5.96255 3.00746V4.18246Z" fill="#FFD83D"/>
<path d="M7.48755 3.12996V4.02996M7.36255 3.03746V4.23746M7.23255 2.97496V4.40496M7.10755 2.94496V4.06746M6.98005 2.93996V4.07246M6.85255 2.89746V4.07246M6.72505 2.89746V4.07246M6.59755 2.90996V4.08496M6.47005 2.92246V4.09496M6.34255 2.99496V4.16996M6.21755 3.00746V4.32996M6.08755 3.00746V4.18246M5.96255 3.00746V4.18246" stroke="black" stroke-width="0.06" stroke-linecap="round" stroke-linejoin="round"/>
<path d="M6.69003 2.94995C6.42003 2.99245 5.83003 3.26995 5.89753 3.64245C5.99253 4.17245 6.30253 3.95995 6.71253 3.88495L7.02253 3.98745C7.13503 4.09995 7.29753 4.20495 7.40753 4.06745H7.59253V4.78745H5.55753V3.04995L6.69003 2.94995Z" fill="black" stroke="black" stroke-width="0.06" stroke-linecap="round" stroke-linejoin="round"/>
<path d="M5.77997 2.94751C5.71231 2.94751 5.65747 2.89267 5.65747 2.82501C5.65747 2.75736 5.71231 2.70251 5.77997 2.70251C5.84762 2.70251 5.90247 2.75736 5.90247 2.82501C5.90247 2.89267 5.84762 2.94751 5.77997 2.94751Z" fill="#FFD83D" stroke="black" stroke-width="0.08" stroke-linecap="round" stroke-linejoin="round"/>
<path d="M6.05755 2.88001C5.9899 2.88001 5.93505 2.82516 5.93505 2.75751C5.93505 2.68985 5.9899 2.63501 6.05755 2.63501C6.12521 2.63501 6.18005 2.68985 6.18005 2.75751C6.18005 2.82516 6.12521 2.88001 6.05755 2.88001Z" fill="#FFD83D" stroke="black" stroke-width="0.08" stroke-linecap="round" stroke-linejoin="round"/>
<path d="M6.34002 2.80994C6.27237 2.80994 6.21752 2.7551 6.21752 2.68744C6.21752 2.61979 6.27237 2.56494 6.34002 2.56494C6.40768 2.56494 6.46252 2.61979 6.46252 2.68744C6.46252 2.7551 6.40768 2.80994 6.34002 2.80994Z" fill="#FFD83D" stroke="black" stroke-width="0.08" stroke-linecap="round" stroke-linejoin="round"/>
<path d="M6.62249 2.76246C6.55484 2.76246 6.5 2.70761 6.5 2.63996C6.5 2.5723 6.55484 2.51746 6.62249 2.51746C6.69015 2.51746 6.745 2.5723 6.745 2.63996C6.745 2.70761 6.69015 2.76246 6.62249 2.76246Z" fill="#FFD83D" stroke="black" stroke-width="0.08" stroke-linecap="round" stroke-linejoin="round"/>
<path d="M6.90497 2.73499C6.83731 2.73499 6.78247 2.68015 6.78247 2.61249C6.78247 2.54484 6.83731 2.48999 6.90497 2.48999C6.97262 2.48999 7.02747 2.54484 7.02747 2.61249C7.02747 2.68015 6.97262 2.73499 6.90497 2.73499Z" fill="#FFD83D" stroke="black" stroke-width="0.08" stroke-linecap="round" stroke-linejoin="round"/>
<path d="M7.17999 2.75C7.11234 2.75 7.05749 2.69516 7.05749 2.6275C7.05749 2.55985 7.11234 2.505 7.17999 2.505C7.24764 2.505 7.30249 2.55985 7.30249 2.6275C7.30249 2.69516 7.24764 2.75 7.17999 2.75Z" fill="#FFD83D" stroke="black" stroke-width="0.08" stroke-linecap="round" stroke-linejoin="round"/>
<path d="M7.44501 2.83997C7.37735 2.83997 7.3225 2.78513 7.3225 2.71747C7.3225 2.64982 7.37735 2.59497 7.44501 2.59497C7.51266 2.59497 7.5675 2.64982 7.5675 2.71747C7.5675 2.78513 7.51266 2.83997 7.44501 2.83997Z" fill="#FFD83D" stroke="black" stroke-width="0.08" stroke-linecap="round" stroke-linejoin="round"/>
<path d="M7.66754 3.00501C7.59988 3.00501 7.54504 2.95016 7.54504 2.88251C7.54504 2.81485 7.59988 2.76001 7.66754 2.76001C7.73519 2.76001 7.79004 2.81485 7.79004 2.88251C7.79004 2.95016 7.73519 3.00501 7.66754 3.00501Z" fill="#FFD83D" stroke="black" stroke-width="0.08" stroke-linecap="round" stroke-linejoin="round"/>
<path d="M7.82501 3.23255C7.75735 3.23255 7.70251 3.1777 7.70251 3.11005C7.70251 3.04239 7.75735 2.98755 7.82501 2.98755C7.89266 2.98755 7.94751 3.04239 7.94751 3.11005C7.94751 3.1777 7.89266 3.23255 7.82501 3.23255Z" fill="#FFD83D" stroke="black" stroke-width="0.08" stroke-linecap="round" stroke-linejoin="round"/>
<path d="M7.90252 3.50245C7.83487 3.50245 7.78002 3.4476 7.78002 3.37995C7.78002 3.31229 7.83487 3.25745 7.90252 3.25745C7.97018 3.25745 8.02502 3.31229 8.02502 3.37995C8.02502 3.4476 7.97018 3.50245 7.90252 3.50245Z" fill="#FFD83D" stroke="black" stroke-width="0.08" stroke-linecap="round" stroke-linejoin="round"/>
<path d="M7.90008 3.78003C7.83243 3.78003 7.77758 3.72519 7.77758 3.65753C7.77758 3.58988 7.83243 3.53503 7.90008 3.53503C7.96774 3.53503 8.02258 3.58988 8.02258 3.65753C8.02258 3.72519 7.96774 3.78003 7.90008 3.78003Z" fill="#FFD83D" stroke="black" stroke-width="0.08" stroke-linecap="round" stroke-linejoin="round"/>
<path d="M7.84503 4.0525C7.77737 4.0525 7.72253 3.99765 7.72253 3.92999C7.72253 3.86234 7.77737 3.8075 7.84503 3.8075C7.91268 3.8075 7.96753 3.86234 7.96753 3.92999C7.96753 3.99765 7.91268 4.0525 7.84503 4.0525Z" fill="#FFD83D" stroke="black" stroke-width="0.08" stroke-linecap="round" stroke-linejoin="round"/>
<path d="M5.72501 2.98745L5.73751 3.14995C6.04501 3.09995 6.48001 2.92995 6.88751 2.92995C7.26251 2.92995 7.55251 3.07995 7.55251 3.45995C7.55251 3.83245 7.39501 4.17245 7.18501 4.51745L7.40251 4.61745C7.59751 4.24245 7.76001 3.91745 7.76001 3.48245C7.76001 3.11745 7.47251 2.75745 6.97751 2.75745C6.54001 2.75745 6.09251 2.90745 5.72501 2.98745Z" fill="#FFD83D" stroke="black" stroke-width="0.08" stroke-linecap="round" stroke-linejoin="round"/>
<path d="M5.55009 1.32745L5.42009 1.56995L5.55009 1.80995L5.67759 1.56995L5.55009 1.32495V1.32745ZM5.55009 1.93745L5.42009 2.17745L5.55009 2.41995L5.67509 2.17495L5.54759 1.93495L5.55009 1.93745ZM5.09009 1.87495L5.29259 2.00245L5.49509 1.87495L5.29509 1.74495L5.09009 1.87495ZM5.60259 1.87495L5.80509 2.00245L6.01009 1.87495L5.80509 1.74495L5.60509 1.87495H5.60259Z" fill="#FFD83D" stroke="black" stroke-width="0.08" stroke-linecap="round" stroke-linejoin="round"/>
<path d="M5.55001 1.97491C5.60386 1.97491 5.64751 1.93126 5.64751 1.87741C5.64751 1.82356 5.60386 1.77991 5.55001 1.77991C5.49617 1.77991 5.45251 1.82356 5.45251 1.87741C5.45251 1.93126 5.49617 1.97491 5.55001 1.97491Z" fill="#FFD83D" stroke="black" stroke-width="0.08" stroke-linecap="round" stroke-linejoin="round"/>
<path d="M5.5501 2.76243C5.69507 2.76243 5.8126 2.6449 5.8126 2.49993C5.8126 2.35495 5.69507 2.23743 5.5501 2.23743C5.40512 2.23743 5.2876 2.35495 5.2876 2.49993C5.2876 2.6449 5.40512 2.76243 5.5501 2.76243Z" fill="#FFD83D" stroke="black" stroke-width="0.08" stroke-linecap="round" stroke-linejoin="round"/>
<path d="M5.48254 2.24744V2.41244C5.42053 2.41542 5.35876 2.4221 5.29754 2.43244M5.80254 2.43244C5.74051 2.42198 5.67789 2.4153 5.61504 2.41244V2.24744M5.29504 2.56494C5.37927 2.55035 5.46457 2.54282 5.55004 2.54244C5.63504 2.54244 5.72004 2.54994 5.80004 2.56494" stroke="black" stroke-width="0.06" stroke-linecap="round" stroke-linejoin="round"/>
<path d="M5.29511 2.9425C5.27011 3.3675 5.22011 3.80501 5.05261 4.12001L5.32261 4.01C5.41761 3.6525 5.43761 3.19001 5.46511 2.97001L5.29511 2.9425ZM5.80511 2.9425L5.63261 2.97001C5.66261 3.19001 5.68261 3.6525 5.77511 4.01L6.04511 4.12001C5.88011 3.80501 5.83011 3.37 5.80511 2.9425Z" fill="#FFD83D" stroke="black" stroke-width="0.08" stroke-linecap="round" stroke-linejoin="round"/>
<path d="M5.55006 3.86743C5.22506 3.86743 4.98756 4.01743 4.97506 4.40743C4.89506 4.26743 4.56256 3.83243 4.25006 3.88993C4.06506 3.92493 3.90006 4.18243 3.93006 4.47493C3.77506 4.03493 3.32756 3.96243 2.99756 4.22493C3.29006 4.46243 3.42006 5.16993 3.66506 5.47493H7.43256C7.67756 5.16993 7.80756 4.46243 8.10006 4.22493C7.77256 3.96243 7.32256 4.03493 7.17006 4.47493C7.19506 4.18243 7.03256 3.92493 6.84506 3.88993C6.53506 3.83243 6.20256 4.26743 6.12256 4.40743C6.11006 4.01993 5.87256 3.86743 5.54756 3.86743H5.55006Z" fill="#FFD83D" stroke="black" stroke-width="0.08" stroke-linecap="round" stroke-linejoin="round"/>
<path d="M7.42767 5.47495C7.42767 5.61495 6.58767 5.76745 5.55017 5.76745C4.51267 5.76745 3.67017 5.61745 3.67017 5.47495C3.67017 5.33745 4.51267 5.26245 5.55017 5.26245C6.58517 5.26245 7.42767 5.33745 7.42767 5.47495Z" fill="black" stroke="black" stroke-width="0.06" stroke-linecap="round" stroke-linejoin="round"/>
<path d="M5.55015 2.94746C5.59847 2.94746 5.63765 2.90829 5.63765 2.85996C5.63765 2.81164 5.59847 2.77246 5.55015 2.77246C5.50182 2.77246 5.46265 2.81164 5.46265 2.85996C5.46265 2.90829 5.50182 2.94746 5.55015 2.94746Z" fill="#FFD83D" stroke="black" stroke-width="0.06" stroke-linecap="round" stroke-linejoin="round"/>
<path d="M5.55014 3.14252C5.60123 3.14252 5.64264 3.10111 5.64264 3.05002C5.64264 2.99893 5.60123 2.95752 5.55014 2.95752C5.49906 2.95752 5.45764 2.99893 5.45764 3.05002C5.45764 3.10111 5.49906 3.14252 5.55014 3.14252Z" fill="#FFD83D" stroke="black" stroke-width="0.06" stroke-linecap="round" stroke-linejoin="round"/>
<path d="M5.55013 3.35747C5.60674 3.35747 5.65263 3.31157 5.65263 3.25497C5.65263 3.19836 5.60674 3.15247 5.55013 3.15247C5.49352 3.15247 5.44763 3.19836 5.44763 3.25497C5.44763 3.31157 5.49352 3.35747 5.55013 3.35747Z" fill="#FFD83D" stroke="black" stroke-width="0.06" stroke-linecap="round" stroke-linejoin="round"/>
<path d="M5.55012 3.59999C5.61501 3.59999 5.66762 3.54738 5.66762 3.48249C5.66762 3.4176 5.61501 3.36499 5.55012 3.36499C5.48522 3.36499 5.43262 3.4176 5.43262 3.48249C5.43262 3.54738 5.48522 3.59999 5.55012 3.59999Z" fill="#FFD83D" stroke="black" stroke-width="0.06" stroke-linecap="round" stroke-linejoin="round"/>
<path d="M5.55011 3.86242C5.62052 3.86242 5.67761 3.80534 5.67761 3.73492C5.67761 3.66451 5.62052 3.60742 5.55011 3.60742C5.47969 3.60742 5.42261 3.66451 5.42261 3.73492C5.42261 3.80534 5.47969 3.86242 5.55011 3.86242Z" fill="#FFD83D" stroke="black" stroke-width="0.06" stroke-linecap="round" stroke-linejoin="round"/>
<path d="M5.50011 3.97998C5.48511 3.97998 5.47261 3.99248 5.47511 4.01498L5.49011 4.12248C5.49511 4.15998 5.51511 4.14748 5.52261 4.12248C5.52761 4.09248 5.52511 4.07248 5.52761 4.01998C5.52761 3.99248 5.51261 3.97998 5.49761 3.97998H5.50011ZM5.60011 3.97998C5.58511 3.97998 5.57261 3.99248 5.57261 4.01998C5.57261 4.07248 5.57261 4.09248 5.57761 4.11998C5.58261 4.14998 5.60261 4.15998 5.61011 4.11998L5.62261 4.01498C5.62761 3.98998 5.61261 3.97998 5.60011 3.97998ZM5.40761 3.99498C5.40098 3.99498 5.39462 3.99761 5.38994 4.0023C5.38525 4.00699 5.38261 4.01335 5.38261 4.01998C5.38261 4.04498 5.39011 4.07748 5.39261 4.11498C5.39761 4.15248 5.42511 4.13998 5.42761 4.11498C5.42761 4.09498 5.43261 4.05998 5.42761 4.01748C5.42761 4.00248 5.42261 3.99498 5.41261 3.99248C5.41095 3.99227 5.40927 3.99227 5.40761 3.99248V3.99498ZM5.68511 3.99498C5.67761 3.99498 5.67011 4.00248 5.66761 4.01998C5.66627 4.05173 5.66795 4.08354 5.67261 4.11498C5.67261 4.13998 5.70261 4.15248 5.70511 4.11498C5.70511 4.07748 5.71511 4.04748 5.71511 4.02248C5.71511 4.00748 5.70261 3.99748 5.69011 3.99498C5.68845 3.99477 5.68677 3.99477 5.68511 3.99498ZM5.30011 4.03748C5.28761 4.03998 5.27511 4.05498 5.28011 4.06998C5.28761 4.10248 5.29511 4.13748 5.29511 4.16998C5.29511 4.19748 5.31761 4.18748 5.32011 4.16998C5.32206 4.13668 5.3229 4.10333 5.32261 4.06998C5.32261 4.04498 5.31011 4.03498 5.29761 4.03748H5.30011ZM5.79011 4.03748C5.78261 4.03998 5.77511 4.04998 5.77511 4.06998L5.78011 4.16998C5.78011 4.18748 5.80511 4.19748 5.80511 4.16998C5.80511 4.13748 5.81011 4.10248 5.81761 4.06998C5.82261 4.05498 5.81011 4.03998 5.80011 4.03748C5.79765 4.03685 5.79507 4.03685 5.79261 4.03748H5.79011ZM4.31511 4.04248C4.30011 4.04248 4.29011 4.05998 4.30011 4.07998C4.31511 4.11498 4.33261 4.13498 4.34761 4.16998C4.36011 4.20248 4.38261 4.18248 4.37511 4.15998L4.34011 4.06748C4.33261 4.04998 4.32261 4.04248 4.31511 4.04248ZM6.78511 4.04248C6.77511 4.04248 6.76761 4.04998 6.76011 4.06748C6.73761 4.11498 6.73011 4.13748 6.72261 4.15998C6.71761 4.18498 6.73761 4.20248 6.75261 4.16998L6.79761 4.07998C6.80761 4.05998 6.79761 4.04248 6.78511 4.04248ZM4.41511 4.04248C4.40261 4.04748 4.39761 4.05998 4.40261 4.07498C4.41761 4.10498 4.43511 4.13748 4.44761 4.16998C4.45761 4.19748 4.48261 4.18998 4.47261 4.16498L4.44761 4.07248C4.43761 4.04748 4.42261 4.03998 4.41511 4.04248ZM6.67761 4.04248C6.66761 4.04498 6.65761 4.05498 6.65261 4.07248C6.63511 4.12248 6.63261 4.13748 6.62511 4.16498C6.61511 4.18998 6.64011 4.19748 6.65011 4.16998L6.69511 4.07498C6.70011 4.05998 6.69511 4.04748 6.68511 4.04248C6.68265 4.04185 6.68007 4.04185 6.67761 4.04248ZM4.54011 4.06748C4.52511 4.06998 4.51511 4.08998 4.52511 4.11498C4.53511 4.14498 4.55011 4.17248 4.56511 4.20748C4.58011 4.24248 4.60261 4.23498 4.59761 4.21248C4.59011 4.18998 4.58511 4.15498 4.56761 4.09998C4.56011 4.07498 4.55011 4.06498 4.54011 4.06748ZM6.56011 4.06748C6.55011 4.06748 6.53761 4.07498 6.53011 4.09998C6.51511 4.15498 6.50511 4.18998 6.50261 4.21248C6.49511 4.23748 6.52011 4.24248 6.53261 4.20748C6.54761 4.17248 6.56261 4.14498 6.57261 4.11498C6.58261 4.08998 6.57261 4.06998 6.56011 4.06748ZM4.23011 4.08498C4.21511 4.08498 4.20511 4.10998 4.21261 4.12748C4.22511 4.15248 4.23511 4.16248 4.24761 4.19248C4.26261 4.22248 4.27761 4.19998 4.27261 4.17998C4.26511 4.15998 4.25761 4.13748 4.25261 4.10998C4.24761 4.08998 4.23761 4.08498 4.22761 4.08498H4.23011ZM6.87011 4.08498C6.86011 4.08498 6.85261 4.08998 6.84511 4.10998L6.82761 4.17998C6.82261 4.19998 6.83761 4.22248 6.85261 4.19248C6.86511 4.16248 6.87261 4.15498 6.88761 4.12748C6.89511 4.10998 6.88261 4.08748 6.87011 4.08498ZM5.19511 4.15498C5.17761 4.15498 5.16261 4.17498 5.17011 4.19248C5.17511 4.22248 5.19011 4.24748 5.19761 4.28498C5.20761 4.31748 5.23011 4.30248 5.22761 4.27998C5.2258 4.2464 5.22162 4.21298 5.21511 4.17998C5.21011 4.16248 5.20261 4.15498 5.19261 4.15498H5.19511ZM5.90511 4.15498C5.89761 4.15498 5.88761 4.16248 5.88511 4.17998C5.87777 4.21292 5.87276 4.24634 5.87011 4.27998C5.87011 4.30248 5.89261 4.31748 5.90011 4.28498L5.93011 4.19248C5.93511 4.17498 5.92011 4.15498 5.90511 4.15498ZM5.55011 4.18498C5.53011 4.18498 5.52761 4.20998 5.52761 4.22748C5.52609 4.28442 5.50878 4.33981 5.47761 4.38748C5.45261 4.41748 5.42011 4.40998 5.39011 4.39248C5.36103 4.37663 5.33343 4.35823 5.30761 4.33748C5.27261 4.31248 5.24761 4.32748 5.28761 4.38498C5.40261 4.54998 5.52761 4.68998 5.52761 4.95998C5.52761 4.99248 5.53511 5.00248 5.55011 5.00248C5.56511 5.00248 5.57011 4.99248 5.57011 4.95748C5.57011 4.68998 5.69511 4.54998 5.81011 4.38248C5.85011 4.32748 5.82511 4.31248 5.79261 4.33748C5.76691 4.35838 5.73929 4.37679 5.71011 4.39248C5.67761 4.40998 5.64511 4.41748 5.62261 4.38748C5.59145 4.33981 5.57414 4.28442 5.57261 4.22748C5.57011 4.20998 5.56761 4.18498 5.54761 4.18498H5.55011ZM4.66761 4.14498C4.66596 4.1447 4.66427 4.1447 4.66261 4.14498C4.65511 4.14748 4.65261 4.15498 4.65511 4.16998L4.68261 4.26748C4.69011 4.29248 4.71761 4.28498 4.71261 4.25498L4.69761 4.17748C4.69261 4.15748 4.67761 4.14498 4.66761 4.14498ZM6.43261 4.14498C6.42011 4.14498 6.40761 4.15748 6.40261 4.17748C6.39261 4.21248 6.39261 4.22248 6.38761 4.25248C6.38011 4.28498 6.41011 4.28998 6.41511 4.26748L6.44511 4.16748C6.44511 4.15498 6.44261 4.14748 6.43511 4.14498C6.43346 4.1447 6.43177 4.1447 6.43011 4.14498H6.43261ZM4.14261 4.15498C4.12761 4.15498 4.11761 4.17498 4.13261 4.19998C4.14761 4.22998 4.17511 4.26498 4.18761 4.28748C4.20011 4.30748 4.22261 4.29248 4.20761 4.26748C4.19261 4.24248 4.18761 4.20998 4.16761 4.17248C4.16596 4.16721 4.16262 4.16264 4.15809 4.15947C4.15357 4.15631 4.14813 4.15473 4.14261 4.15498ZM6.95511 4.15498C6.94761 4.15498 6.93761 4.15998 6.93011 4.17248C6.91261 4.20998 6.90511 4.23998 6.89261 4.26748C6.87761 4.29248 6.89761 4.30748 6.91011 4.28748C6.92261 4.26498 6.95011 4.22998 6.96511 4.19998C6.98011 4.17498 6.97011 4.15498 6.95511 4.15498ZM3.35011 4.23748C3.33511 4.23748 3.33011 4.26748 3.34511 4.28748C3.36453 4.31205 3.3863 4.33465 3.41011 4.35498C3.43011 4.37498 3.43511 4.34998 3.42511 4.32998L3.38011 4.26248C3.36761 4.24498 3.35761 4.23748 3.35011 4.23748ZM7.74761 4.23748C7.74011 4.23748 7.73011 4.24498 7.72011 4.26248L7.67261 4.32998C7.66261 4.34998 7.66761 4.37498 7.69011 4.35498C7.71395 4.33468 7.73572 4.31207 7.75511 4.28748C7.77011 4.26748 7.76511 4.23748 7.74761 4.23748ZM3.47761 4.26248C3.46261 4.26248 3.45261 4.27248 3.46511 4.29498L3.51261 4.38998C3.52511 4.41498 3.56261 4.42248 3.54761 4.38498L3.51511 4.28998C3.50761 4.27248 3.49011 4.26498 3.47761 4.26498V4.26248ZM7.62261 4.26248C7.60761 4.26248 7.59011 4.27248 7.58261 4.28998L7.55261 4.38498C7.53761 4.42248 7.57511 4.41498 7.58761 4.38998C7.60011 4.36498 7.62011 4.32748 7.63261 4.29498C7.64511 4.27248 7.63511 4.26248 7.62261 4.26248ZM3.23261 4.27248C3.21261 4.27248 3.21261 4.28998 3.23011 4.30248C3.25261 4.31998 3.28011 4.33748 3.30511 4.35998C3.33761 4.38498 3.34761 4.35998 3.33011 4.33998C3.31511 4.31998 3.30011 4.29998 3.25761 4.27748C3.24761 4.27248 3.24011 4.27248 3.23261 4.27248ZM7.86511 4.27248C7.86011 4.27248 7.85011 4.27248 7.84011 4.27748C7.80011 4.29998 7.78261 4.31998 7.76511 4.33998C7.75011 4.36248 7.76261 4.38498 7.79261 4.35998C7.81761 4.33748 7.84761 4.31998 7.86761 4.30248C7.88761 4.28998 7.88511 4.27248 7.86761 4.27248H7.86511ZM5.12511 4.28998C5.11261 4.28998 5.10511 4.30248 5.10761 4.31998L5.13261 4.40998C5.13761 4.43748 5.17011 4.43748 5.16511 4.40998C5.16011 4.38498 5.15761 4.35248 5.14761 4.31248C5.14511 4.29748 5.13761 4.28998 5.12761 4.28748C5.12678 4.28741 5.12595 4.28741 5.12511 4.28748V4.28998ZM5.97011 4.28998C5.96261 4.28998 5.95511 4.29748 5.95011 4.31498C5.94011 4.35248 5.93761 4.38498 5.93261 4.41248C5.92761 4.43748 5.96011 4.43748 5.96511 4.40998L5.99011 4.31998C5.99511 4.30248 5.98511 4.28998 5.97511 4.28998C5.97346 4.2897 5.97177 4.2897 5.97011 4.28998ZM4.37011 4.23998C4.36261 4.23998 4.35761 4.25748 4.36511 4.28248C4.39163 4.35453 4.40517 4.43071 4.40511 4.50748C4.39761 4.53748 4.38011 4.53998 4.35761 4.53248C4.33309 4.52038 4.30967 4.50616 4.28761 4.48998C4.26761 4.47748 4.24511 4.49248 4.27511 4.51748C4.42511 4.64248 4.53261 4.78498 4.57511 4.95748C4.58011 4.99248 4.60261 4.99748 4.59761 4.95748C4.56261 4.73998 4.55511 4.55998 4.60761 4.44998C4.62761 4.40748 4.60761 4.36748 4.57761 4.43498C4.55511 4.47998 4.52261 4.49748 4.49511 4.45998C4.45602 4.39897 4.42255 4.33454 4.39511 4.26748C4.39011 4.24998 4.38261 4.24248 4.37511 4.23998C4.37429 4.23984 4.37344 4.23984 4.37261 4.23998H4.37011ZM6.72261 4.23998C6.71511 4.23998 6.70761 4.24998 6.70261 4.26498C6.68511 4.31498 6.63011 4.41998 6.60261 4.45998C6.57511 4.49998 6.54261 4.47998 6.52261 4.43498C6.49011 4.36748 6.47261 4.40748 6.49011 4.44998C6.54261 4.55998 6.53511 4.73998 6.50261 4.95748C6.49511 4.99748 6.51761 4.99248 6.52761 4.95748C6.57385 4.7819 6.67774 4.62694 6.82261 4.51748C6.85261 4.49248 6.83011 4.47748 6.81011 4.49248C6.78793 4.50702 6.76451 4.51957 6.74011 4.52998C6.71511 4.53998 6.70011 4.53748 6.69261 4.50498C6.68761 4.47498 6.69761 4.40748 6.73511 4.27998C6.74011 4.25998 6.73511 4.24248 6.72761 4.23998C6.726 4.23941 6.72423 4.23941 6.72261 4.23998ZM3.61011 4.29998C3.59761 4.29998 3.58511 4.30998 3.59261 4.32998C3.60261 4.36498 3.62261 4.39998 3.63011 4.41998C3.63761 4.44248 3.66011 4.43248 3.65511 4.40248L3.64261 4.32498C3.64261 4.30998 3.62511 4.29998 3.61011 4.29998ZM7.48761 4.29998C7.47261 4.29998 7.45761 4.30998 7.45511 4.32498L7.44511 4.40248C7.44011 4.43248 7.46261 4.44248 7.47011 4.41998C7.47511 4.39998 7.49511 4.36498 7.50511 4.32998C7.51261 4.30998 7.50261 4.29998 7.48761 4.29998ZM4.08011 4.25748C4.06511 4.25498 4.06261 4.29498 4.07511 4.31248L4.14511 4.38998C4.16511 4.41498 4.17761 4.39248 4.16511 4.37248L4.10011 4.27748C4.09261 4.26498 4.08511 4.25748 4.08011 4.25748ZM7.01761 4.25748C7.01261 4.25748 7.00511 4.26498 6.99761 4.27748L6.93261 4.37248C6.92011 4.39248 6.93261 4.41498 6.95511 4.38998L7.02261 4.31248C7.03511 4.29498 7.03511 4.25498 7.01761 4.25748ZM3.71761 4.35748C3.70761 4.35748 3.70011 4.36248 3.70511 4.38248C3.71011 4.41248 3.71761 4.43248 3.72511 4.45998C3.73261 4.48498 3.75011 4.48248 3.75011 4.45748L3.74261 4.37748C3.74152 4.37149 3.73848 4.36603 3.73395 4.36196C3.72943 4.35789 3.72368 4.35544 3.71761 4.35498V4.35748ZM7.38011 4.35748C7.37426 4.35736 7.36856 4.3593 7.36399 4.36295C7.35942 4.36661 7.35628 4.37175 7.35511 4.37748L7.34761 4.45748C7.34761 4.48248 7.36761 4.48748 7.37261 4.45998L7.39511 4.38498C7.40011 4.36248 7.39011 4.35498 7.38011 4.35498V4.35748ZM4.04511 4.39248C4.03011 4.39248 4.01761 4.40998 4.03511 4.43248C4.06261 4.46998 4.09511 4.49498 4.10761 4.50748C4.11761 4.52248 4.14511 4.51748 4.12761 4.48998L4.07011 4.40248C4.06511 4.39248 4.05511 4.38998 4.04511 4.39248ZM7.04511 4.39248C7.04011 4.39248 7.03261 4.39498 7.03011 4.40248L6.97011 4.48998C6.95261 4.51748 6.98011 4.52248 6.99261 4.50998C7.00261 4.49498 7.03511 4.46998 7.06511 4.43248C7.08261 4.40748 7.06761 4.39248 7.05261 4.39248C7.05095 4.39229 7.04927 4.39229 7.04761 4.39248H7.04511ZM3.52761 4.49498C3.51761 4.49498 3.51261 4.50498 3.52761 4.52748C3.56622 4.57431 3.59435 4.62887 3.61011 4.68748C3.61261 4.72248 3.59761 4.72248 3.58261 4.72248C3.53511 4.72248 3.51261 4.68748 3.47261 4.67748C3.43011 4.66998 3.42261 4.68998 3.45261 4.71248C3.59591 4.8031 3.72063 4.92019 3.82011 5.05748C3.84511 5.10498 3.87761 5.11998 3.86011 5.07748C3.81154 4.97999 3.79078 4.871 3.80011 4.76248C3.81261 4.69248 3.83011 4.64748 3.82761 4.60748C3.82761 4.56998 3.80261 4.57248 3.79511 4.60748L3.77011 4.67748C3.76011 4.68998 3.72511 4.69748 3.69511 4.65498C3.6526 4.60281 3.60576 4.5543 3.55511 4.50998C3.54761 4.50248 3.53761 4.49748 3.53011 4.49498H3.52761ZM7.57011 4.49498C7.56261 4.49498 7.55261 4.49998 7.54261 4.50998C7.49284 4.55442 7.44685 4.60292 7.40511 4.65498C7.37261 4.69748 7.33761 4.68998 7.33011 4.67998C7.31871 4.65698 7.31031 4.63262 7.30511 4.60748C7.29511 4.57248 7.27261 4.56998 7.27011 4.60748C7.27011 4.64748 7.28511 4.69248 7.29761 4.76248C7.31011 4.83248 7.29761 4.94248 7.24011 5.07748C7.22011 5.11998 7.25511 5.10248 7.28011 5.05748C7.37867 4.92026 7.50256 4.80316 7.64511 4.71248C7.67511 4.68998 7.67011 4.66998 7.62761 4.67748C7.58511 4.68748 7.56261 4.72248 7.51761 4.72248C7.50261 4.72248 7.48511 4.72248 7.48761 4.68748C7.49011 4.65498 7.53261 4.57748 7.57011 4.52748C7.58511 4.50248 7.58261 4.49498 7.57011 4.49498Z" fill="black"/>
<path d="M3.75256 5.31745L3.80256 5.46995ZM3.85256 5.28745L3.89756 5.44245ZM3.96256 5.26745L3.99256 5.42745ZM4.06256 5.24995L4.09506 5.40745ZM4.19006 5.23745L4.21506 5.39745ZM4.32756 5.23745L4.35506 5.39495ZM4.46256 5.19245L4.48256 5.35245ZM4.58756 5.19995L4.60756 5.35995ZM4.71006 5.18495L4.73006 5.34495ZM4.83006 5.16995L4.84256 5.33245ZM4.96256 5.16995L4.97256 5.33245ZM5.08256 5.16245L5.09006 5.32495ZM5.21256 5.15495L5.22006 5.31495ZM5.36256 5.14995L5.37006 5.31245ZM7.34506 5.31745L7.29506 5.46995ZM7.24506 5.28745L7.20256 5.44245ZM7.13756 5.26745L7.10756 5.42745ZM7.03756 5.24995L7.00506 5.40745ZM6.90506 5.23745L6.88006 5.39745ZM6.77006 5.23745L6.74256 5.39745ZM6.63756 5.19245L6.61756 5.35245ZM6.51006 5.19995L6.49006 5.35995ZM6.39006 5.18495L6.36756 5.34495ZM6.26756 5.16995L6.25506 5.33245ZM6.13506 5.16995L6.12506 5.33245ZM6.01756 5.16245L6.01006 5.32495ZM5.88506 5.15495L5.88006 5.31495ZM5.73506 5.14995L5.73006 5.31245ZM5.55006 5.13745V5.31745Z" fill="#FFD83D"/>
<path d="M3.75256 5.31745L3.80256 5.46995M3.85256 5.28745L3.89756 5.44245M3.96256 5.26745L3.99256 5.42745M4.06256 5.24995L4.09506 5.40745M4.19006 5.23745L4.21506 5.39745M4.32756 5.23745L4.35506 5.39495M4.46256 5.19245L4.48256 5.35245M4.58756 5.19995L4.60756 5.35995M4.71006 5.18495L4.73006 5.34495M4.83006 5.16995L4.84256 5.33245M4.96256 5.16995L4.97256 5.33245M5.08256 5.16245L5.09006 5.32495M5.21256 5.15495L5.22006 5.31495M5.36256 5.14995L5.37006 5.31245M7.34506 5.31745L7.29506 5.46995M7.24506 5.28745L7.20256 5.44245M7.13756 5.26745L7.10756 5.42745M7.03756 5.24995L7.00506 5.40745M6.90506 5.23745L6.88006 5.39745M6.77006 5.23745L6.74256 5.39745M6.63756 5.19245L6.61756 5.35245M6.51006 5.19995L6.49006 5.35995M6.39006 5.18495L6.36756 5.34495M6.26756 5.16995L6.25506 5.33245M6.13506 5.16995L6.12506 5.33245M6.01756 5.16245L6.01006 5.32495M5.88506 5.15495L5.88006 5.31495M5.73506 5.14995L5.73006 5.31245M5.55006 5.13745V5.31745" stroke="black" stroke-width="0.06" stroke-linecap="round" stroke-linejoin="round"/>
</g>
<defs>
<clipPath id="clip0_14_357">
<rect width="20" height="15" fill="white"/>
</clipPath>
</defs>
</svg>
