<svg width="20" height="15" viewBox="0 0 20 15" fill="none" xmlns="http://www.w3.org/2000/svg">
<g clip-path="url(#clip0_14_359)">
<path d="M0 0H20V15H0V0Z" fill="#FFB700"/>
<path d="M0.834351 7.49998L3.58435 0.834351H6.33435V14.1656H3.58435L0.834351 7.49998Z" fill="#FF5B00"/>
<path d="M0.834351 0.834351H3.58435V14.1656H0.834351V0.834351Z" fill="#005641"/>
<path d="M7.16565 0.834351H19.25V14.1656H7.16565V0.834351Z" fill="#8D2029"/>
<path d="M18.1031 12.7688C18.1031 12.7688 18.2157 12.9969 18.3407 13.0938C18.5282 13.2313 18.9032 13.2188 19.0688 13.3844C19.2594 13.575 19.0532 13.8282 19.0532 13.8532L19.0656 13.9844C19.0656 13.9844 18.9344 13.9844 18.8781 13.9938C18.7969 14.0063 18.7656 14.075 18.6094 14.0657C18.225 14.0407 18.2406 13.6907 18.2188 13.3938C18.2 13.2813 18.1563 13.1313 18.1281 13.0188C18.1063 12.925 18.1031 12.7688 18.1031 12.7688Z" fill="#FFB700" stroke="black" stroke-width="0.055"/>
<path d="M8.3125 12.7688C8.3125 12.7688 8.2 12.9969 8.075 13.0938C7.8875 13.2313 7.5125 13.2188 7.34687 13.3844C7.15625 13.575 7.3625 13.8282 7.3625 13.8532L7.35 13.9844C7.35 13.9844 7.48125 13.9844 7.5375 13.9938C7.61875 14.0063 7.65 14.075 7.80625 14.0657C8.19062 14.0407 8.175 13.6907 8.19687 13.3938C8.21562 13.2813 8.25938 13.1313 8.2875 13.0188C8.30938 12.925 8.3125 12.7688 8.3125 12.7688Z" fill="#FFB700" stroke="black" stroke-width="0.055"/>
<path d="M18.1031 2.2312C18.1031 2.2312 18.2157 2.00308 18.3407 1.9062C18.5282 1.7687 18.9032 1.7812 19.0688 1.61558C19.2594 1.42495 19.0532 1.17183 19.0532 1.14683L19.0656 1.01558C19.0656 1.01558 18.9344 1.01558 18.8781 1.0062C18.7969 0.993702 18.7656 0.924951 18.6094 0.934326C18.225 0.959326 18.2406 1.30933 18.2188 1.6062C18.2 1.7187 18.1563 1.8687 18.1281 1.9812C18.1063 2.07495 18.1031 2.2312 18.1031 2.2312Z" fill="#FFB700" stroke="black" stroke-width="0.055"/>
<path d="M8.31567 2.2312C8.31567 2.2312 8.20317 2.00308 8.07817 1.9062C7.89067 1.7687 7.51567 1.7812 7.35005 1.61558C7.15942 1.42495 7.36567 1.17183 7.36567 1.14683L7.35317 1.01558C7.35317 1.01558 7.48442 1.01558 7.54067 1.0062C7.62192 0.993702 7.65317 0.924951 7.80942 0.934326C8.1938 0.959326 8.17817 1.30933 8.20005 1.6062C8.2188 1.7187 8.26255 1.8687 8.29067 1.9812C8.31255 2.07495 8.31567 2.2312 8.31567 2.2312Z" fill="#FFB700" stroke="black" stroke-width="0.055"/>
<path d="M11.3594 10.6188L11.4312 10.575L11.4625 10.6188C11.5031 10.675 11.6187 10.6719 11.6937 10.6188L11.7531 10.5719L11.8031 10.6156C11.8656 10.675 11.9844 10.675 12.0625 10.6156C12.1156 10.5781 12.125 10.575 12.1562 10.6063C12.1781 10.625 12.2406 10.6438 12.2937 10.6531C12.3937 10.6656 12.3937 10.6656 12.45 10.5781C12.5 10.5063 12.5062 10.4781 12.4969 10.4063C12.4881 10.3514 12.4819 10.2961 12.4781 10.2406C12.4718 10.1594 12.475 10.1594 12.5906 10.1156C12.648 10.098 12.7043 10.0772 12.7593 10.0531C12.8062 10.025 12.9375 9.87189 12.9375 9.84064C12.9375 9.83439 12.8875 9.82189 12.825 9.81564C12.575 9.78439 12.5343 9.65314 12.6968 9.40939C12.9562 9.00314 13.1156 8.61252 13.1156 8.36565C13.1156 8.25315 13.125 8.21565 13.1375 8.24065C13.1969 8.33752 13.0906 8.75314 12.9344 9.05314L12.8719 9.17189L12.9312 9.15939C12.9625 9.15002 13.1625 9.06564 13.3687 8.97189C13.9375 8.71564 14.1312 8.66564 14.5 8.68127C14.8094 8.69377 14.9375 8.75314 15.1562 8.98127C15.2719 9.10627 15.3843 9.19064 15.5875 9.31877C16.0187 9.58752 16.0375 9.61252 16.0594 9.93127C16.0812 10.2531 16.0687 10.2719 15.825 10.325C15.6156 10.3719 15.4844 10.4688 15.45 10.6063C15.4312 10.675 15.4719 10.6781 15.575 10.6094L15.6531 10.5594L15.6875 10.6094C15.7344 10.675 15.8281 10.675 15.9062 10.6094L15.9687 10.5625L16.0312 10.6094C16.125 10.6875 16.25 10.6688 16.2875 10.5719C16.2937 10.5563 16.3125 10.5594 16.35 10.5938C16.4219 10.6563 16.6 10.6813 16.6187 10.6313C16.625 10.6125 16.6125 10.5688 16.5875 10.5313C16.4843 10.375 16.45 10.3031 16.45 10.2188C16.45 10.1 16.4812 10.0406 16.6187 9.94689C16.7812 9.82814 16.8312 9.67814 16.7062 9.67814C16.6312 9.67814 16.5531 9.60939 16.5031 9.50002C16.4031 9.27502 16.425 9.02502 16.575 8.60627C16.69 8.35988 16.7477 8.09065 16.7437 7.81877C16.7437 7.58752 16.7375 7.55002 16.6875 7.42189C16.6484 7.33281 16.6002 7.24799 16.5437 7.16877L16.4562 7.05315L16.5656 6.9594C16.9031 6.68127 16.8344 6.22502 16.4281 6.05002C16.3031 5.99377 16.2719 5.99065 16.0531 5.99065C15.9281 5.99065 15.725 6.00939 15.6156 6.03127C15.4688 6.0545 15.3205 6.06703 15.1719 6.06877C14.9594 6.06877 14.9219 6.06252 14.8406 6.01877C14.7562 5.97502 14.7406 5.95314 14.725 5.84689C14.7235 5.83688 14.7196 5.82738 14.7136 5.81922C14.7076 5.81105 14.6997 5.80446 14.6906 5.80002C14.6594 5.79064 14.5281 5.90627 14.5093 5.95627C14.4968 5.98439 14.4906 5.98127 14.4625 5.94689C14.436 5.91284 14.4149 5.87489 14.4 5.8344C14.3687 5.73127 14.4094 5.65627 14.5312 5.59689L14.625 5.55314L14.5687 5.51877C14.4562 5.44689 14.2625 5.49689 14.1937 5.61252C14.1719 5.64377 14.15 5.67502 14.1437 5.67502C14.1375 5.67502 14.1 5.64377 14.0625 5.60314C13.9156 5.45939 13.9656 5.24689 14.1625 5.18439C14.2656 5.15002 14.3594 5.17502 14.3781 5.24689C14.4094 5.35002 14.4969 5.21252 14.4812 5.08439C14.4719 5.00002 14.4719 4.99689 14.5312 4.99689C14.6125 4.99689 14.7812 5.10314 14.8375 5.18439C14.9 5.28127 14.8937 5.43439 14.825 5.54689L14.7719 5.63439L14.8437 5.62189C14.9437 5.60002 15.0437 5.53752 15.0937 5.45939C15.1201 5.40964 15.1349 5.35458 15.137 5.29832C15.1392 5.24206 15.1287 5.18603 15.1062 5.13439C15.0594 5.05002 15.0656 5.03752 15.1343 5.06564C15.2468 5.11252 15.3093 5.16564 15.3531 5.25627C15.3968 5.33752 15.4 5.35627 15.3781 5.44377C15.3631 5.49705 15.3399 5.54766 15.3094 5.59377C15.2719 5.64377 15.2687 5.65314 15.3 5.65314C15.3562 5.65314 15.4687 5.60002 15.5093 5.55939C15.5312 5.53439 15.5625 5.48127 15.5781 5.43439L15.6094 5.35627L15.6406 5.41877C15.6875 5.50314 15.7812 5.58127 15.8937 5.63127C16.0156 5.68127 16.0656 5.68439 16.0031 5.63752C15.9593 5.60627 15.8781 5.37189 15.9062 5.35002C16.0411 5.42554 16.1643 5.52029 16.2719 5.63127C16.45 5.79065 16.5625 5.84377 16.725 5.84377C16.9344 5.84377 17.0562 5.66252 16.9625 5.49064C16.9093 5.39064 16.7875 5.37502 16.7125 5.45939C16.6812 5.50002 16.6718 5.53127 16.6812 5.57502C16.6937 5.62502 16.6906 5.63127 16.6437 5.63127C16.5812 5.63127 16.4625 5.55314 16.25 5.37502C15.9542 5.12047 15.6142 4.92239 15.2469 4.79064C14.998 4.73313 14.741 4.71938 14.4875 4.75002C14.2875 4.78752 14.05 4.90314 13.9187 5.02502C13.6906 5.24377 13.6875 5.53439 13.9094 5.80002L13.9719 5.87502L13.9312 5.94377C13.9007 5.99301 13.8855 6.05027 13.8878 6.10818C13.89 6.16609 13.9095 6.22202 13.9437 6.26877C13.975 6.31252 14.0062 6.34689 14.0156 6.34689C14.0219 6.34689 14.0281 6.31877 14.0312 6.28439C14.0375 6.20002 14.075 6.14377 14.1375 6.12189C14.1937 6.10002 14.2312 6.11252 14.4875 6.21564C14.7594 6.32189 15.2062 6.32814 15.6812 6.23439C15.8871 6.18685 16.1013 6.18899 16.3062 6.24065C16.5312 6.3344 16.5812 6.57502 16.4187 6.75627C16.3469 6.83752 16.2812 6.86877 16.0531 6.93127C15.8545 6.98365 15.648 6.99953 15.4437 6.97814C15.1062 6.97502 14.9844 6.98127 14.85 7.00939C14.6969 7.04064 14.6062 7.04377 14.1687 7.03439L13.6594 7.0219L13.7156 7.06564C13.7457 7.0924 13.7781 7.11645 13.8125 7.13752C13.8531 7.15939 13.85 7.16252 13.7937 7.18439C13.7625 7.19689 13.6875 7.20627 13.6281 7.20627H13.525L13.5125 7.29377C13.5041 7.33501 13.5041 7.37753 13.5125 7.41877C13.525 7.45002 13.5187 7.45627 13.4875 7.44377C13.4656 7.4344 13.4062 7.41877 13.3531 7.40939C13.2995 7.3979 13.2472 7.38115 13.1968 7.35939C13.1375 7.32814 13.1312 7.32814 13.1094 7.36877C13.0906 7.40002 12.9156 7.53127 12.8906 7.53127C12.8793 7.4502 12.8561 7.37122 12.8218 7.29689C12.7906 7.23127 12.7625 7.15627 12.7531 7.13439C12.7437 7.10002 12.7375 7.09689 12.7219 7.12502C12.7125 7.14064 12.7 7.18752 12.6906 7.22502C12.6797 7.27564 12.6607 7.32417 12.6343 7.36877L12.5875 7.43752L12.5562 7.37814C12.525 7.31564 12.475 7.24689 12.4562 7.24689C12.45 7.24689 12.4406 7.26564 12.4344 7.29377C12.4187 7.34377 12.2969 7.49065 12.2656 7.49065C12.2562 7.49065 12.2469 7.45002 12.2469 7.3969C12.2469 7.35002 12.2375 7.30627 12.225 7.30627C12.2125 7.30627 12.2031 7.32189 12.2031 7.33752C12.2031 7.37502 12.1 7.49377 12.0625 7.49377C12.05 7.49377 12.025 7.50627 12.0093 7.52502C11.9718 7.56564 11.9406 7.55939 11.9562 7.51252C11.9606 7.4725 11.9563 7.432 11.9437 7.39377L11.9125 7.29377C11.9062 7.27814 11.8687 7.28439 11.7875 7.30939C11.6625 7.35002 11.6187 7.34064 11.6844 7.29064C11.7094 7.27189 11.7469 7.20627 11.7656 7.1469C11.7875 7.0844 11.8187 7.03127 11.8344 7.02502C11.8562 7.01877 11.8562 7.02502 11.8281 7.06252C11.81 7.08629 11.7982 7.11423 11.7937 7.14377C11.7937 7.15939 11.7781 7.20002 11.7625 7.23439C11.7437 7.26564 11.7312 7.29689 11.7344 7.30002C11.7375 7.30314 11.7875 7.28439 11.8437 7.25939L11.9437 7.2094V7.25314C11.9437 7.27814 11.9562 7.34064 11.9719 7.39377L12 7.48752L12.0687 7.45627C12.1375 7.42502 12.2031 7.31252 12.2031 7.22189C12.2031 7.17814 12.2281 7.18439 12.2406 7.23127C12.2406 7.24377 12.2594 7.29689 12.2719 7.34689L12.3031 7.43439L12.35 7.37814C12.3781 7.34689 12.4094 7.28439 12.4219 7.24377C12.4469 7.16877 12.4844 7.13439 12.4844 7.19064C12.4844 7.22814 12.5906 7.37189 12.6094 7.35939C12.6219 7.35314 12.6406 7.30002 12.6562 7.24065C12.6875 7.11565 12.7344 7.0344 12.7656 7.05315C12.7781 7.0594 12.7812 7.0719 12.775 7.0844C12.7687 7.09065 12.7937 7.17189 12.8312 7.25939C12.8584 7.32498 12.8855 7.39061 12.9125 7.45627C12.925 7.48752 12.9375 7.48752 13.0156 7.41564C13.0625 7.37189 13.1094 7.32502 13.1125 7.30939C13.1219 7.28439 13.1312 7.28752 13.175 7.31564C13.2671 7.36432 13.368 7.39407 13.4719 7.40314C13.4781 7.39689 13.4844 7.34064 13.4844 7.27814L13.4875 7.16252L13.55 7.17502C13.5812 7.18439 13.6531 7.18439 13.7062 7.17502L13.8 7.16252L13.7156 7.10002C13.6687 7.06877 13.6219 7.02814 13.6094 7.00939C13.6 6.99064 13.5562 6.97189 13.5093 6.96877C13.3812 6.95627 13.1531 6.83127 13.1531 6.76877C13.1531 6.75627 13.1844 6.77814 13.2219 6.81252C13.3094 6.89064 13.4281 6.93752 13.5344 6.93752H13.6094L13.5625 6.87502C13.5291 6.82656 13.5077 6.77087 13.5 6.71252C13.4937 6.61877 13.4844 6.60627 13.3875 6.54064C13.3313 6.50084 13.279 6.45585 13.2312 6.40627L13.1781 6.34689L13.15 6.41877C13.1343 6.45939 13.1187 6.49065 13.1094 6.49065C13.1031 6.49065 13.0719 6.46564 13.0469 6.43752C13.0293 6.41715 13.0081 6.4002 12.9844 6.38752C12.975 6.38752 12.9531 6.42502 12.9281 6.47189L12.8843 6.55627L12.8531 6.50939C12.8253 6.47107 12.7939 6.4355 12.7593 6.40314C12.7218 6.37189 12.7062 6.34689 12.7187 6.34689C12.7312 6.34689 12.7719 6.37814 12.8125 6.41877L12.8812 6.49065L12.9125 6.43752C12.9305 6.40071 12.936 6.359 12.9281 6.31877C12.9156 6.26252 12.9187 6.25939 12.9375 6.29689C12.9644 6.33217 12.996 6.36369 13.0312 6.39064L13.1 6.44689L13.1469 6.36252C13.1937 6.27502 13.1937 6.27502 13.2125 6.32814C13.2437 6.39377 13.4468 6.56252 13.6187 6.65939C13.65 6.67502 13.6375 6.62502 13.5875 6.50314C13.5725 6.4631 13.564 6.42089 13.5625 6.37814C13.5625 6.32189 13.5469 6.2969 13.475 6.24065C13.4303 6.21208 13.3929 6.17347 13.3658 6.12789C13.3386 6.08232 13.3225 6.03104 13.3187 5.97814C13.3094 5.92502 13.2906 5.86877 13.275 5.85002C13.2562 5.81877 13.25 5.83752 13.2562 5.93127C13.2625 5.99689 13.2531 6.07814 13.2375 6.11252L13.2125 6.17502L13.1937 6.12189C13.1812 6.09377 13.1312 6.04377 13.0844 6.01252C13.0375 5.98127 13.0031 5.95002 13.0093 5.94377C13.0156 5.93752 13.0656 5.96565 13.1187 6.00627C13.2031 6.0719 13.2187 6.07814 13.2312 6.05002C13.2437 6.01877 13.2312 5.87502 13.2062 5.77502C13.1937 5.72502 13.1937 5.72502 13.2562 5.78752C13.3 5.83127 13.325 5.88752 13.3469 5.98127C13.3719 6.10002 13.3843 6.12189 13.4937 6.21877C13.5593 6.27814 13.6187 6.3219 13.6219 6.31877C13.6281 6.31252 13.6344 6.16252 13.6406 5.98127C13.6531 5.63439 13.6406 5.55002 13.5562 5.44377L13.5125 5.38752L13.5812 5.31564C13.6582 5.24197 13.7097 5.14562 13.7281 5.04064L13.7406 4.95627L13.6656 5.02814C13.6031 5.08752 13.5719 5.10002 13.5 5.10002C13.4281 5.10002 13.4 5.08752 13.3531 5.03752C13.2801 4.96723 13.1911 4.91575 13.0937 4.88752C13.0562 4.87502 13.0437 4.88127 13.0437 4.90627C13.0437 4.92502 13.025 4.97502 13 5.02189L12.9562 5.10314L12.8625 5.00939C12.8031 4.95627 12.7375 4.90939 12.6844 4.89689C12.5562 4.86564 12.55 4.86564 12.55 4.96252C12.55 5.10939 12.4875 5.13752 12.375 5.04064C12.2875 4.96564 12.2187 4.94689 12.0531 4.96877L11.9281 4.98127L11.95 5.03752C11.9687 5.08439 11.9656 5.10627 11.925 5.15939C11.8594 5.24689 11.775 5.28439 11.6437 5.28439C11.5812 5.28439 11.5062 5.29689 11.475 5.31252C11.4437 5.32814 11.3625 5.34377 11.2969 5.35002C11.2344 5.35627 11.1625 5.36877 11.1406 5.37502C11.1094 5.38752 11.1093 5.37502 11.1187 5.30627C11.1343 5.20002 11.0562 5.11877 10.9406 5.11877C10.7875 5.11877 10.7187 5.25627 10.7781 5.43752C10.7903 5.47662 10.8007 5.51625 10.8094 5.55627C10.8504 5.63441 10.9055 5.70433 10.9719 5.76252C11.0531 5.84377 11.1281 5.92814 11.1406 5.95002C11.1658 5.98261 11.1978 6.00928 11.2344 6.02814L11.3031 6.06564L11.2937 5.99065C11.2844 5.9094 11.3 5.89689 11.3437 5.95627C11.3594 5.97502 11.4 6.00939 11.4312 6.02814C11.4843 6.05939 11.4937 6.05939 11.4937 6.03439C11.4937 6.01564 11.5031 5.97502 11.5156 5.94377L11.5375 5.88752L11.5781 5.96564C11.6 6.00939 11.6719 6.10627 11.7375 6.18439C11.8656 6.33127 11.9469 6.49689 11.9062 6.53439C11.8875 6.55002 11.8437 6.55002 11.75 6.53127C11.6812 6.51877 11.5937 6.50939 11.5562 6.51564C11.4843 6.52502 11.4781 6.51565 11.525 6.4594C11.5718 6.3969 11.5625 6.38752 11.4687 6.38752C11.3594 6.38752 11.0875 6.33439 10.9812 6.29377C10.8812 6.25314 10.8562 6.26252 10.825 6.35939L10.7719 6.53439L10.7406 6.62814L10.8531 6.61877C10.9111 6.6127 10.9686 6.60226 11.025 6.58752C11.0471 6.58014 11.0704 6.57697 11.0937 6.57814C11.1 6.58127 11.0844 6.61877 11.0625 6.66252L11.0187 6.73752L11.0875 6.72502C11.125 6.71565 11.1812 6.69689 11.2125 6.68127C11.2687 6.65627 11.275 6.65627 11.3187 6.72814C11.3719 6.81252 11.4125 6.80939 11.4219 6.71877C11.4312 6.62502 11.4625 6.63752 11.5219 6.76252C11.5781 6.88127 11.6344 6.92502 11.6469 6.85627C11.65 6.83127 11.6781 6.79377 11.7125 6.76877C11.7812 6.72189 11.8312 6.73752 11.8594 6.80939C11.8906 6.88752 11.8219 6.96565 11.6281 7.0844C11.4487 7.18346 11.2943 7.32226 11.1767 7.49017C11.0592 7.65808 10.9816 7.85065 10.95 8.05315C10.8906 8.4219 11.075 8.80314 11.4375 9.08127C11.6125 9.21252 11.8906 9.35002 11.8719 9.30002C11.7969 9.07189 11.8 8.64377 11.875 8.57189C11.8875 8.55939 11.8844 8.60314 11.8656 8.66877C11.8031 8.91564 11.8344 9.10939 11.9906 9.56564C12.1281 9.97814 12.1094 10.1563 11.9094 10.2719C11.8469 10.3094 11.8062 10.3156 11.6343 10.3125C11.4468 10.3125 11.425 10.3125 11.3656 10.3625C11.2938 10.4358 11.2468 10.5298 11.2312 10.6313C11.2312 10.6719 11.275 10.6656 11.3562 10.6188H11.3594Z" fill="#FFB700" stroke="black" stroke-width="0.28"/>
<path d="M14.3906 10.6094L14.4687 10.5594L14.5218 10.6094C14.5906 10.675 14.6749 10.6719 14.7406 10.6063C14.7718 10.575 14.7968 10.5563 14.7999 10.5594L14.8281 10.6094C14.8437 10.6375 14.8781 10.65 14.9406 10.6563C15.0124 10.6594 15.0343 10.6563 15.0656 10.6125L15.0968 10.5594L15.1749 10.6094C15.3874 10.7469 15.4999 10.6032 15.4031 10.3188C15.3562 10.175 15.3843 10.0938 15.5374 9.91253C15.6031 9.8344 15.6562 9.75003 15.6562 9.72503C15.6562 9.69065 15.6437 9.6844 15.5562 9.68753C15.4749 9.68753 15.4499 9.67815 15.4062 9.63128C15.3343 9.55315 15.3406 9.46253 15.4187 9.36253L15.4812 9.2844L15.3687 9.2094C15.2789 9.14307 15.1952 9.06882 15.1187 8.98753C15.0505 8.90702 14.9671 8.84074 14.8732 8.79248C14.7794 8.74423 14.677 8.71493 14.5718 8.70628L14.4249 8.69065V8.80315C14.4249 8.94378 14.4937 9.08128 14.6749 9.31253C14.8812 9.57503 14.8937 9.61565 14.9031 9.9594L14.9124 10.25L14.8499 10.3063C14.7968 10.3563 14.7749 10.3657 14.5999 10.375C14.4343 10.3844 14.3968 10.3938 14.3499 10.4375C14.2951 10.4775 14.2572 10.5366 14.2437 10.6031C14.2343 10.65 14.2374 10.6594 14.2718 10.6594C14.2937 10.6594 14.3468 10.6375 14.3906 10.6094ZM9.94682 9.8594C9.96572 9.83165 9.97654 9.79919 9.97807 9.76565C9.97807 9.7344 9.99682 9.7219 10.0781 9.7094L10.1749 9.6969L10.1124 9.64378C10.0343 9.58128 10.0249 9.5344 10.0937 9.5344C10.1624 9.5344 10.2749 9.46565 10.2937 9.41253C10.3031 9.38753 10.2937 9.35628 10.2812 9.34065C10.2437 9.2969 10.1718 9.30315 10.1593 9.35315C10.1437 9.40315 10.1218 9.40315 10.0656 9.35315C9.98744 9.27502 9.98432 9.11565 10.0656 9.0219C10.0999 8.97815 10.0999 8.97815 10.0531 8.93127C10.0031 8.88127 9.96557 8.78753 9.99057 8.76253C9.99682 8.75628 10.0374 8.76253 10.0781 8.77815C10.1406 8.7969 10.1624 8.7969 10.1874 8.77815C10.2593 8.71878 10.1812 8.64378 10.0624 8.66253C10.0124 8.66878 9.99369 8.66253 9.98744 8.63753C9.98119 8.61878 9.94057 8.59378 9.89369 8.58128C9.80932 8.5594 9.80932 8.5594 9.80932 8.61877C9.80932 8.68127 9.77182 8.69378 9.70307 8.65315C9.64682 8.6219 9.59369 8.6469 9.59369 8.70628C9.59369 8.76253 9.64682 8.78753 9.74994 8.78128C9.82494 8.77815 9.82807 8.8344 9.7562 8.91565L9.70307 8.97815L9.74369 9.03753C9.80619 9.12503 9.79994 9.2719 9.73432 9.3469L9.68119 9.40315L9.64682 9.35628C9.59682 9.29378 9.53119 9.2969 9.51244 9.36565C9.50307 9.4094 9.51245 9.42815 9.5687 9.47815C9.6062 9.5094 9.66244 9.5344 9.69057 9.5344C9.76244 9.5344 9.75932 9.59377 9.68432 9.65002L9.62182 9.6969L9.71557 9.7094C9.76557 9.71878 9.80932 9.73128 9.80932 9.74065C9.80932 9.78128 9.87182 9.90315 9.89057 9.90315C9.90307 9.90315 9.92807 9.88127 9.94682 9.85627V9.8594Z" fill="#FFB700" stroke="black" stroke-width="0.28"/>
<path d="M11.1405 9.34067C11.2249 9.30942 11.4062 9.15317 11.4062 9.1188C11.4062 9.1063 11.3562 9.05005 11.2937 8.9938C11.1687 8.8813 11.028 8.68442 10.9905 8.57192C10.9718 8.50942 10.8812 8.40942 10.6249 8.15942L10.2843 7.8313L10.1874 7.8563C10.1312 7.8688 10.0655 7.8813 10.0405 7.8813C9.99365 7.8813 9.99365 7.8813 10.0562 7.9313L10.1187 7.9813L10.2124 7.9313C10.2968 7.8813 10.2999 7.8813 10.3093 7.92192C10.3155 7.9438 10.303 7.98442 10.278 8.01255C10.2562 8.04067 10.2437 8.07505 10.2468 8.08442C10.2562 8.0938 10.2343 8.11567 10.1999 8.13442C10.1374 8.16567 10.0905 8.2688 10.1405 8.2688C10.1874 8.2688 10.2874 8.1438 10.2749 8.10317C10.2687 8.0813 10.2749 8.05942 10.2812 8.05317C10.3218 8.0313 10.3187 8.12817 10.2812 8.17817C10.2562 8.20317 10.2437 8.23442 10.2499 8.24692C10.2562 8.2563 10.2343 8.27817 10.1999 8.29692C10.1374 8.32817 10.0905 8.4313 10.1405 8.4313C10.1905 8.4313 10.2874 8.31255 10.278 8.2688C10.2718 8.24692 10.2718 8.22192 10.2812 8.21567C10.3093 8.20317 10.3218 8.27817 10.2999 8.31567C10.2942 8.32622 10.2912 8.33804 10.2912 8.35005C10.2912 8.36206 10.2942 8.37388 10.2999 8.38442C10.3218 8.42505 10.2999 8.50005 10.2593 8.52505C10.2437 8.53442 10.253 8.5563 10.2968 8.58755C10.3593 8.6313 10.3593 8.63755 10.3593 8.83755C10.3593 9.0063 10.3655 9.05005 10.3968 9.07817C10.428 9.10942 10.4343 9.10942 10.4343 9.07817C10.4343 9.04692 10.4968 9.00317 10.5437 9.00317C10.5593 9.00317 10.6499 9.0813 10.7468 9.17505C10.8437 9.2688 10.9468 9.35317 10.9749 9.3563L11.0437 9.3688C11.053 9.3688 11.0968 9.35942 11.1405 9.33755V9.34067ZM10.0999 8.52505C10.0999 8.47192 9.9874 8.41255 9.85303 8.40005C9.74365 8.38442 9.74365 8.38755 9.74365 8.44067C9.74365 8.48442 9.75928 8.50317 9.8374 8.53442C9.95615 8.58755 10.0999 8.5813 10.0999 8.52505Z" fill="#FFB700" stroke="black" stroke-width="0.28"/>
<path d="M10.2218 8.51883C10.2781 8.46883 10.3031 8.41258 10.2687 8.41258C10.2312 8.41258 10.1312 8.50008 10.1312 8.53758C10.1312 8.58758 10.15 8.58446 10.225 8.51883H10.2218ZM10.1062 8.35946C10.1093 8.32821 10.0906 8.30946 10.0343 8.28133C9.90934 8.22821 9.76558 8.20008 9.73121 8.22821C9.66558 8.28133 9.70934 8.35008 9.81246 8.36258C9.85621 8.36571 9.91246 8.37821 9.94059 8.39071C10.0218 8.42196 10.0968 8.40633 10.1062 8.35946ZM10.1062 8.19383C10.1125 8.15321 10.0843 8.13758 9.85621 8.05633C9.68433 7.99383 9.60933 8.02508 9.66558 8.12821C9.68433 8.16258 9.71559 8.17821 9.78746 8.19071C9.84059 8.19696 9.91246 8.21258 9.94683 8.22508C10.0406 8.25633 10.0968 8.24383 10.1031 8.19383H10.1062ZM10.2187 8.04071C10.2531 8.00633 10.2812 7.96571 10.2812 7.94696C10.2812 7.90008 10.1468 7.98758 10.1281 8.05008C10.1093 8.12196 10.1437 8.11883 10.2218 8.04071H10.2187ZM10.1062 8.03133C10.1125 7.98133 10.0312 7.93758 9.86871 7.90321C9.74683 7.87508 9.69371 7.89071 9.70309 7.94696C9.70934 7.97821 9.74996 8.00008 9.85934 8.03446C10.0437 8.09071 10.0968 8.09071 10.1062 8.03133ZM10.2625 7.80008C10.475 7.70633 10.4906 7.47196 10.2937 7.40946C10.2125 7.38446 10.1625 7.40008 10.1312 7.45321C10.1062 7.49696 10.1218 7.57196 10.1531 7.57196C10.1656 7.57196 10.175 7.58758 10.175 7.60321C10.175 7.68758 9.85621 7.72196 9.72496 7.65633C9.67809 7.63446 9.66246 7.57196 9.69683 7.57196C9.72808 7.57196 9.74683 7.50946 9.73121 7.46883C9.71246 7.40633 9.64996 7.38758 9.56559 7.41258C9.36871 7.46258 9.37496 7.69383 9.57496 7.78758C9.79623 7.8688 10.0384 7.8732 10.2625 7.80008Z" fill="#FFB700" stroke="black" stroke-width="0.28"/>
<path d="M10.1343 7.6188C10.1468 7.6063 10.1406 7.58755 10.1218 7.57505C10.0781 7.54067 10.0812 7.48755 10.1281 7.42817C10.1656 7.38442 10.1687 7.31567 10.1812 6.6438C10.2031 5.48442 10.2906 4.61255 10.4031 4.40005C10.45 4.3188 10.4437 4.3188 10.325 4.40005C10.1692 4.50859 10.0434 4.6548 9.95933 4.82505C9.76558 5.18442 9.69995 5.6688 9.69995 6.7063C9.69995 7.2938 9.70308 7.37192 9.73745 7.42505C9.7687 7.4813 9.7687 7.50005 9.74995 7.5563C9.73433 7.59067 9.72808 7.62817 9.73433 7.63442C9.77808 7.67505 10.0906 7.66567 10.1343 7.6188ZM11.8875 6.51255C11.8968 6.50317 11.8812 6.45005 11.8562 6.40005C11.8187 6.3188 11.8031 6.3063 11.75 6.3063C11.5001 6.28458 11.2564 6.21677 11.0312 6.1063C10.8718 6.03442 10.8125 6.0188 10.7968 6.03755C10.7468 6.08442 10.8281 6.1938 10.9531 6.25317C11.137 6.31946 11.3297 6.35842 11.525 6.3688C11.6093 6.3688 11.6125 6.3688 11.5625 6.44067L11.5312 6.49067H11.625L11.7812 6.50942C11.875 6.5313 11.875 6.5313 11.8875 6.51255Z" fill="#FFB700" stroke="black" stroke-width="0.28"/>
<path d="M12.875 7.03447C12.875 7.00322 12.7844 6.9251 12.6969 6.87197C12.625 6.83135 12.6125 6.82822 12.6125 6.8626C12.6125 6.9126 12.5687 7.04072 12.55 7.04072C12.5406 7.04072 12.525 7.01572 12.5187 6.9876C12.5094 6.95635 12.475 6.89385 12.4406 6.85322L12.3781 6.7751L12.3344 6.84697C12.2906 6.91572 12.2125 6.98135 12.1781 6.98135C12.1719 6.98135 12.1687 6.94385 12.1781 6.90322C12.1812 6.85322 12.1781 6.81572 12.1625 6.80947C12.15 6.8001 12.1375 6.80322 12.1375 6.81572C12.1375 6.84072 12.0312 6.95947 12.0125 6.95947C12 6.95947 11.9875 6.92822 11.9812 6.88447L11.9562 6.73447C11.95 6.69697 11.9656 6.72197 11.9875 6.79697L12.0375 6.9251L12.0875 6.84697C12.1101 6.81469 12.127 6.77874 12.1375 6.74072C12.1375 6.7251 12.1469 6.71885 12.1594 6.7251C12.1719 6.73135 12.1875 6.78447 12.1937 6.84072L12.2094 6.94697L12.2656 6.88447C12.2951 6.85312 12.3222 6.8197 12.3469 6.78447C12.3687 6.74697 12.3719 6.74697 12.4187 6.78447C12.4437 6.80947 12.4844 6.8626 12.5094 6.90635C12.5344 6.9501 12.5562 6.98135 12.5594 6.97822L12.5781 6.87822L12.5906 6.78447C12.5937 6.76885 12.7594 6.87822 12.8219 6.93135C12.8594 6.96572 12.8969 6.99072 12.9031 6.98447C12.9094 6.97822 12.9156 6.92822 12.9156 6.86885C12.9156 6.78135 12.9062 6.75635 12.8531 6.70947C12.7906 6.65322 12.7906 6.65322 12.7656 6.69385C12.7344 6.74697 12.7 6.74697 12.7 6.69385C12.7 6.65635 12.5812 6.50947 12.5531 6.50947C12.5437 6.50947 12.5187 6.54072 12.4969 6.58135C12.475 6.62197 12.45 6.65322 12.4437 6.65322C12.4125 6.65322 12.2469 6.46572 12.2469 6.43447C12.2469 6.40947 12.2594 6.41572 12.2875 6.45947C12.3154 6.50052 12.3479 6.53826 12.3844 6.57197C12.4469 6.62822 12.4719 6.61572 12.4969 6.50635C12.5062 6.4751 12.5187 6.4501 12.5281 6.4501C12.5531 6.4501 12.6969 6.60322 12.7156 6.65322L12.7375 6.70322L12.7531 6.64697C12.7719 6.57822 12.7937 6.57822 12.825 6.64072C12.8375 6.66572 12.9 6.72197 12.9625 6.75947L13.0781 6.83447L13.1 6.75947C13.1125 6.71885 13.1312 6.69697 13.1375 6.70947C13.15 6.7251 13.1187 6.8501 13.0969 6.8751C13.0969 6.87822 13.0562 6.85635 13.0156 6.82822L12.9375 6.77197V6.87197C12.9375 6.9251 12.9312 6.99072 12.925 7.01572C12.9094 7.06572 12.8719 7.07822 12.8719 7.03447H12.875ZM12.2969 6.24072C12.1594 6.12822 12.1406 6.10322 12.1406 6.04697L12.1437 5.99072L12.1531 6.04385C12.1594 6.0751 12.1969 6.1251 12.2406 6.1626L12.3219 6.2251L12.3687 6.16885C12.3969 6.1376 12.4187 6.1001 12.4187 6.0876C12.4187 6.0501 12.425 6.05322 12.5187 6.13447C12.6 6.20635 12.6031 6.20635 12.6125 6.15947C12.6219 6.13447 12.6187 6.08447 12.6125 6.0501C12.5812 5.95635 12.5875 5.94385 12.6281 6.0001L12.7031 6.0876C12.7344 6.12197 12.7375 6.12197 12.75 6.07822C12.7594 6.0501 12.7656 6.00322 12.7656 5.97197V5.9126L12.8375 5.99697C12.9094 6.07822 12.9156 6.08135 12.9344 6.04072C12.95 6.01885 12.9594 5.96572 12.9594 5.9251C12.9594 5.86885 12.9656 5.85635 12.9781 5.8751C13.0031 5.9126 12.9875 6.00635 12.9437 6.0876L12.9125 6.1501L12.8719 6.08447C12.8187 6.00322 12.8 6.00322 12.7687 6.09072C12.7375 6.1751 12.7156 6.18135 12.6844 6.11572C12.6656 6.0751 12.6594 6.08135 12.6469 6.16885L12.6312 6.2626L12.5375 6.19072L12.4437 6.11885L12.3969 6.16572C12.375 6.19385 12.3562 6.22822 12.3562 6.24072C12.3562 6.27197 12.3312 6.27197 12.2969 6.24072ZM13.5156 5.81572C13.4687 5.77197 13.4344 5.72822 13.4406 5.72197C13.45 5.7126 13.4562 5.70947 13.4594 5.71572C13.4896 5.74795 13.5209 5.77922 13.5531 5.80947C13.6594 5.92197 13.6375 5.9251 13.5187 5.81572H13.5156ZM11.8906 5.64697C11.8469 5.58447 11.85 5.54697 11.9062 5.47822C11.9437 5.43135 11.9625 5.4251 12.0312 5.43447C12.0781 5.4376 12.175 5.47822 12.2469 5.52197C12.3507 5.58403 12.4696 5.61645 12.5906 5.61572L12.5375 5.52822C12.4687 5.4251 12.4687 5.4126 12.55 5.4751C12.6312 5.54072 12.7281 5.55947 12.9469 5.55322L13.0531 5.5501L12.9906 5.4876C12.9062 5.40322 12.9312 5.39385 13.0281 5.47822C13.1156 5.55635 13.1125 5.5626 12.9219 5.58135C12.8424 5.58937 12.7621 5.58409 12.6844 5.56572C12.5781 5.53447 12.5719 5.5376 12.5937 5.57197C12.6062 5.59385 12.625 5.60947 12.6344 5.60947C12.6469 5.60947 12.6562 5.62197 12.6562 5.63447C12.6562 5.6751 12.425 5.6376 12.3125 5.58447C12.0625 5.45635 12.0312 5.44385 11.9687 5.4626C11.9521 5.469 11.9369 5.47865 11.924 5.49099C11.9111 5.50333 11.9008 5.51811 11.8937 5.53447C11.8531 5.6376 12 5.71885 12.0594 5.62822C12.0781 5.6001 12.075 5.58447 12.0437 5.5501C12 5.50635 12.0062 5.5001 12.0625 5.51885C12.1031 5.53447 12.1062 5.63135 12.0687 5.66885C12.0281 5.70947 11.9281 5.7001 11.8906 5.64697Z" fill="black" stroke="black" stroke-width="0.28"/>
<path d="M12.8875 5.39376C12.8562 5.36251 12.8812 5.35626 13.0218 5.35314C13.1968 5.35001 13.3031 5.32189 13.4281 5.24064C13.5281 5.17814 13.5562 5.19064 13.4593 5.25626C13.375 5.31876 13.2406 5.36251 13.1062 5.37501L12.9468 5.39689C12.9218 5.40314 12.8937 5.40001 12.8843 5.39376H12.8875Z" fill="black" stroke="black" stroke-width="0.28"/>
<path d="M11.3594 10.6188L11.4312 10.575L11.4625 10.6188C11.5031 10.675 11.6187 10.6719 11.6937 10.6188L11.7531 10.5719L11.8031 10.6156C11.8656 10.675 11.9844 10.675 12.0625 10.6156C12.1156 10.5781 12.125 10.575 12.1562 10.6063C12.1781 10.625 12.2406 10.6438 12.2937 10.6531C12.3937 10.6656 12.3937 10.6656 12.45 10.5781C12.5 10.5063 12.5062 10.4781 12.4969 10.4063C12.4881 10.3514 12.4819 10.2961 12.4781 10.2406C12.4718 10.1594 12.475 10.1594 12.5906 10.1156C12.648 10.098 12.7043 10.0772 12.7593 10.0531C12.8062 10.025 12.9375 9.87189 12.9375 9.84064C12.9375 9.83439 12.8875 9.82189 12.825 9.81564C12.575 9.78439 12.5343 9.65314 12.6968 9.40939C12.9562 9.00314 13.1156 8.61252 13.1156 8.36565C13.1156 8.25315 13.125 8.21565 13.1375 8.24065C13.1969 8.33752 13.0906 8.75314 12.9344 9.05314L12.8719 9.17189L12.9312 9.15939C12.9625 9.15002 13.1625 9.06564 13.3687 8.97189C13.9375 8.71564 14.1312 8.66564 14.5 8.68127C14.8094 8.69377 14.9375 8.75314 15.1562 8.98127C15.2719 9.10627 15.3843 9.19064 15.5875 9.31877C16.0187 9.58752 16.0375 9.61252 16.0594 9.93127C16.0812 10.2531 16.0687 10.2719 15.825 10.325C15.6156 10.3719 15.4844 10.4688 15.45 10.6063C15.4312 10.675 15.4719 10.6781 15.575 10.6094L15.6531 10.5594L15.6875 10.6094C15.7344 10.675 15.8281 10.675 15.9062 10.6094L15.9687 10.5625L16.0312 10.6094C16.125 10.6875 16.25 10.6688 16.2875 10.5719C16.2937 10.5563 16.3125 10.5594 16.35 10.5938C16.4219 10.6563 16.6 10.6813 16.6187 10.6313C16.625 10.6125 16.6125 10.5688 16.5875 10.5313C16.4843 10.375 16.45 10.3031 16.45 10.2188C16.45 10.1 16.4812 10.0406 16.6187 9.94689C16.7812 9.82814 16.8312 9.67814 16.7062 9.67814C16.6312 9.67814 16.5531 9.60939 16.5031 9.50002C16.4031 9.27502 16.425 9.02502 16.575 8.60627C16.69 8.35988 16.7477 8.09065 16.7437 7.81877C16.7437 7.58752 16.7375 7.55002 16.6875 7.42189C16.6484 7.33281 16.6002 7.24799 16.5437 7.16877L16.4562 7.05315L16.5656 6.9594C16.9031 6.68127 16.8344 6.22502 16.4281 6.05002C16.3031 5.99377 16.2719 5.99065 16.0531 5.99065C15.9281 5.99065 15.725 6.00939 15.6156 6.03127C15.4688 6.0545 15.3205 6.06703 15.1719 6.06877C14.9594 6.06877 14.9219 6.06252 14.8406 6.01877C14.7562 5.97502 14.7406 5.95314 14.725 5.84689C14.7235 5.83688 14.7196 5.82738 14.7136 5.81922C14.7076 5.81105 14.6997 5.80446 14.6906 5.80002C14.6594 5.79064 14.5281 5.90627 14.5093 5.95627C14.4968 5.98439 14.4906 5.98127 14.4625 5.94689C14.436 5.91284 14.4149 5.87489 14.4 5.8344C14.3687 5.73127 14.4094 5.65627 14.5312 5.59689L14.625 5.55314L14.5687 5.51877C14.4562 5.44689 14.2625 5.49689 14.1937 5.61252C14.1719 5.64377 14.15 5.67502 14.1437 5.67502C14.1375 5.67502 14.1 5.64377 14.0625 5.60314C13.9156 5.45939 13.9656 5.24689 14.1625 5.18439C14.2656 5.15002 14.3594 5.17502 14.3781 5.24689C14.4094 5.35002 14.4969 5.21252 14.4812 5.08439C14.4719 5.00002 14.4719 4.99689 14.5312 4.99689C14.6125 4.99689 14.7812 5.10314 14.8375 5.18439C14.9 5.28127 14.8937 5.43439 14.825 5.54689L14.7719 5.63439L14.8437 5.62189C14.9437 5.60002 15.0437 5.53752 15.0937 5.45939C15.1201 5.40964 15.1349 5.35458 15.137 5.29832C15.1392 5.24206 15.1287 5.18603 15.1062 5.13439C15.0594 5.05002 15.0656 5.03752 15.1343 5.06564C15.2468 5.11252 15.3093 5.16564 15.3531 5.25627C15.3968 5.33752 15.4 5.35627 15.3781 5.44377C15.3631 5.49705 15.3399 5.54766 15.3094 5.59377C15.2719 5.64377 15.2687 5.65314 15.3 5.65314C15.3562 5.65314 15.4687 5.60002 15.5093 5.55939C15.5312 5.53439 15.5625 5.48127 15.5781 5.43439L15.6094 5.35627L15.6406 5.41877C15.6875 5.50314 15.7812 5.58127 15.8937 5.63127C16.0156 5.68127 16.0656 5.68439 16.0031 5.63752C15.9593 5.60627 15.8781 5.37189 15.9062 5.35002C16.0411 5.42554 16.1643 5.52029 16.2719 5.63127C16.45 5.79065 16.5625 5.84377 16.725 5.84377C16.9344 5.84377 17.0562 5.66252 16.9625 5.49064C16.9093 5.39064 16.7875 5.37502 16.7125 5.45939C16.6812 5.50002 16.6718 5.53127 16.6812 5.57502C16.6937 5.62502 16.6906 5.63127 16.6437 5.63127C16.5812 5.63127 16.4625 5.55314 16.25 5.37502C15.9542 5.12047 15.6142 4.92239 15.2469 4.79064C14.998 4.73313 14.741 4.71938 14.4875 4.75002C14.2875 4.78752 14.05 4.90314 13.9187 5.02502C13.6906 5.24377 13.6875 5.53439 13.9094 5.80002L13.9719 5.87502L13.9312 5.94377C13.9007 5.99301 13.8855 6.05027 13.8878 6.10818C13.89 6.16609 13.9095 6.22202 13.9437 6.26877C13.975 6.31252 14.0062 6.34689 14.0156 6.34689C14.0219 6.34689 14.0281 6.31877 14.0312 6.28439C14.0375 6.20002 14.075 6.14377 14.1375 6.12189C14.1937 6.10002 14.2312 6.11252 14.4875 6.21564C14.7594 6.32189 15.2062 6.32814 15.6812 6.23439C15.8871 6.18685 16.1013 6.18899 16.3062 6.24065C16.5312 6.3344 16.5812 6.57502 16.4187 6.75627C16.3469 6.83752 16.2812 6.86877 16.0531 6.93127C15.8545 6.98365 15.648 6.99953 15.4437 6.97814C15.1062 6.97502 14.9844 6.98127 14.85 7.00939C14.6969 7.04064 14.6062 7.04377 14.1687 7.03439L13.6594 7.0219L13.7156 7.06564C13.7457 7.0924 13.7781 7.11645 13.8125 7.13752C13.8531 7.15939 13.85 7.16252 13.7937 7.18439C13.7625 7.19689 13.6875 7.20627 13.6281 7.20627H13.525L13.5125 7.29377C13.5041 7.33501 13.5041 7.37753 13.5125 7.41877C13.525 7.45002 13.5187 7.45627 13.4875 7.44377C13.4656 7.4344 13.4062 7.41877 13.3531 7.40939C13.2995 7.3979 13.2472 7.38115 13.1968 7.35939C13.1375 7.32814 13.1312 7.32814 13.1094 7.36877C13.0906 7.40002 12.9156 7.53127 12.8906 7.53127C12.8793 7.4502 12.8561 7.37122 12.8218 7.29689C12.7906 7.23127 12.7625 7.15627 12.7531 7.13439C12.7437 7.10002 12.7375 7.09689 12.7219 7.12502C12.7125 7.14064 12.7 7.18752 12.6906 7.22502C12.6797 7.27564 12.6607 7.32417 12.6343 7.36877L12.5875 7.43752L12.5562 7.37814C12.525 7.31564 12.475 7.24689 12.4562 7.24689C12.45 7.24689 12.4406 7.26564 12.4344 7.29377C12.4187 7.34377 12.2969 7.49065 12.2656 7.49065C12.2562 7.49065 12.2469 7.45002 12.2469 7.3969C12.2469 7.35002 12.2375 7.30627 12.225 7.30627C12.2125 7.30627 12.2031 7.32189 12.2031 7.33752C12.2031 7.37502 12.1 7.49377 12.0625 7.49377C12.05 7.49377 12.025 7.50627 12.0093 7.52502C11.9718 7.56564 11.9406 7.55939 11.9562 7.51252C11.9606 7.4725 11.9563 7.432 11.9437 7.39377L11.9125 7.29377C11.9062 7.27814 11.8687 7.28439 11.7875 7.30939C11.6625 7.35002 11.6187 7.34064 11.6844 7.29064C11.7094 7.27189 11.7469 7.20627 11.7656 7.1469C11.7875 7.0844 11.8187 7.03127 11.8344 7.02502C11.8562 7.01877 11.8562 7.02502 11.8281 7.06252C11.81 7.08629 11.7982 7.11423 11.7937 7.14377C11.7937 7.15939 11.7781 7.20002 11.7625 7.23439C11.7437 7.26564 11.7312 7.29689 11.7344 7.30002C11.7375 7.30314 11.7875 7.28439 11.8437 7.25939L11.9437 7.2094V7.25314C11.9437 7.27814 11.9562 7.34064 11.9719 7.39377L12 7.48752L12.0687 7.45627C12.1375 7.42502 12.2031 7.31252 12.2031 7.22189C12.2031 7.17814 12.2281 7.18439 12.2406 7.23127C12.2406 7.24377 12.2594 7.29689 12.2719 7.34689L12.3031 7.43439L12.35 7.37814C12.3781 7.34689 12.4094 7.28439 12.4219 7.24377C12.4469 7.16877 12.4844 7.13439 12.4844 7.19064C12.4844 7.22814 12.5906 7.37189 12.6094 7.35939C12.6219 7.35314 12.6406 7.30002 12.6562 7.24065C12.6875 7.11565 12.7344 7.0344 12.7656 7.05315C12.7781 7.0594 12.7812 7.0719 12.775 7.0844C12.7687 7.09065 12.7937 7.17189 12.8312 7.25939C12.8584 7.32498 12.8855 7.39061 12.9125 7.45627C12.925 7.48752 12.9375 7.48752 13.0156 7.41564C13.0625 7.37189 13.1094 7.32502 13.1125 7.30939C13.1219 7.28439 13.1312 7.28752 13.175 7.31564C13.2671 7.36432 13.368 7.39407 13.4719 7.40314C13.4781 7.39689 13.4844 7.34064 13.4844 7.27814L13.4875 7.16252L13.55 7.17502C13.5812 7.18439 13.6531 7.18439 13.7062 7.17502L13.8 7.16252L13.7156 7.10002C13.6687 7.06877 13.6219 7.02814 13.6094 7.00939C13.6 6.99064 13.5562 6.97189 13.5093 6.96877C13.3812 6.95627 13.1531 6.83127 13.1531 6.76877C13.1531 6.75627 13.1844 6.77814 13.2219 6.81252C13.3094 6.89064 13.4281 6.93752 13.5344 6.93752H13.6094L13.5625 6.87502C13.5291 6.82656 13.5077 6.77087 13.5 6.71252C13.4937 6.61877 13.4844 6.60627 13.3875 6.54064C13.3313 6.50084 13.279 6.45585 13.2312 6.40627L13.1781 6.34689L13.15 6.41877C13.1343 6.45939 13.1187 6.49065 13.1094 6.49065C13.1031 6.49065 13.0719 6.46564 13.0469 6.43752C13.0293 6.41715 13.0081 6.4002 12.9844 6.38752C12.975 6.38752 12.9531 6.42502 12.9281 6.47189L12.8843 6.55627L12.8531 6.50939C12.8253 6.47107 12.7939 6.4355 12.7593 6.40314C12.7218 6.37189 12.7062 6.34689 12.7187 6.34689C12.7312 6.34689 12.7719 6.37814 12.8125 6.41877L12.8812 6.49065L12.9125 6.43752C12.9305 6.40071 12.936 6.359 12.9281 6.31877C12.9156 6.26252 12.9187 6.25939 12.9375 6.29689C12.9644 6.33217 12.996 6.36369 13.0312 6.39064L13.1 6.44689L13.1469 6.36252C13.1937 6.27502 13.1937 6.27502 13.2125 6.32814C13.2437 6.39377 13.4468 6.56252 13.6187 6.65939C13.65 6.67502 13.6375 6.62502 13.5875 6.50314C13.5725 6.4631 13.564 6.42089 13.5625 6.37814C13.5625 6.32189 13.5469 6.2969 13.475 6.24065C13.4303 6.21208 13.3929 6.17347 13.3658 6.12789C13.3386 6.08232 13.3225 6.03104 13.3187 5.97814C13.3094 5.92502 13.2906 5.86877 13.275 5.85002C13.2562 5.81877 13.25 5.83752 13.2562 5.93127C13.2625 5.99689 13.2531 6.07814 13.2375 6.11252L13.2125 6.17502L13.1937 6.12189C13.1812 6.09377 13.1312 6.04377 13.0844 6.01252C13.0375 5.98127 13.0031 5.95002 13.0093 5.94377C13.0156 5.93752 13.0656 5.96565 13.1187 6.00627C13.2031 6.0719 13.2187 6.07814 13.2312 6.05002C13.2437 6.01877 13.2312 5.87502 13.2062 5.77502C13.1937 5.72502 13.1937 5.72502 13.2562 5.78752C13.3 5.83127 13.325 5.88752 13.3469 5.98127C13.3719 6.10002 13.3843 6.12189 13.4937 6.21877C13.5593 6.27814 13.6187 6.3219 13.6219 6.31877C13.6281 6.31252 13.6344 6.16252 13.6406 5.98127C13.6531 5.63439 13.6406 5.55002 13.5562 5.44377L13.5125 5.38752L13.5812 5.31564C13.6582 5.24197 13.7097 5.14562 13.7281 5.04064L13.7406 4.95627L13.6656 5.02814C13.6031 5.08752 13.5719 5.10002 13.5 5.10002C13.4281 5.10002 13.4 5.08752 13.3531 5.03752C13.2801 4.96723 13.1911 4.91575 13.0937 4.88752C13.0562 4.87502 13.0437 4.88127 13.0437 4.90627C13.0437 4.92502 13.025 4.97502 13 5.02189L12.9562 5.10314L12.8625 5.00939C12.8031 4.95627 12.7375 4.90939 12.6844 4.89689C12.5562 4.86564 12.55 4.86564 12.55 4.96252C12.55 5.10939 12.4875 5.13752 12.375 5.04064C12.2875 4.96564 12.2187 4.94689 12.0531 4.96877L11.9281 4.98127L11.95 5.03752C11.9687 5.08439 11.9656 5.10627 11.925 5.15939C11.8594 5.24689 11.775 5.28439 11.6437 5.28439C11.5812 5.28439 11.5062 5.29689 11.475 5.31252C11.4437 5.32814 11.3625 5.34377 11.2969 5.35002C11.2344 5.35627 11.1625 5.36877 11.1406 5.37502C11.1094 5.38752 11.1093 5.37502 11.1187 5.30627C11.1343 5.20002 11.0562 5.11877 10.9406 5.11877C10.7875 5.11877 10.7187 5.25627 10.7781 5.43752C10.7903 5.47662 10.8007 5.51625 10.8094 5.55627C10.8504 5.63441 10.9055 5.70433 10.9719 5.76252C11.0531 5.84377 11.1281 5.92814 11.1406 5.95002C11.1658 5.98261 11.1978 6.00928 11.2344 6.02814L11.3031 6.06564L11.2937 5.99065C11.2844 5.9094 11.3 5.89689 11.3437 5.95627C11.3594 5.97502 11.4 6.00939 11.4312 6.02814C11.4843 6.05939 11.4937 6.05939 11.4937 6.03439C11.4937 6.01564 11.5031 5.97502 11.5156 5.94377L11.5375 5.88752L11.5781 5.96564C11.6 6.00939 11.6719 6.10627 11.7375 6.18439C11.8656 6.33127 11.9469 6.49689 11.9062 6.53439C11.8875 6.55002 11.8437 6.55002 11.75 6.53127C11.6812 6.51877 11.5937 6.50939 11.5562 6.51564C11.4843 6.52502 11.4781 6.51565 11.525 6.4594C11.5718 6.3969 11.5625 6.38752 11.4687 6.38752C11.3594 6.38752 11.0875 6.33439 10.9812 6.29377C10.8812 6.25314 10.8562 6.26252 10.825 6.35939L10.7719 6.53439L10.7406 6.62814L10.8531 6.61877C10.9111 6.6127 10.9686 6.60226 11.025 6.58752C11.0471 6.58014 11.0704 6.57697 11.0937 6.57814C11.1 6.58127 11.0844 6.61877 11.0625 6.66252L11.0187 6.73752L11.0875 6.72502C11.125 6.71565 11.1812 6.69689 11.2125 6.68127C11.2687 6.65627 11.275 6.65627 11.3187 6.72814C11.3719 6.81252 11.4125 6.80939 11.4219 6.71877C11.4312 6.62502 11.4625 6.63752 11.5219 6.76252C11.5781 6.88127 11.6344 6.92502 11.6469 6.85627C11.65 6.83127 11.6781 6.79377 11.7125 6.76877C11.7812 6.72189 11.8312 6.73752 11.8594 6.80939C11.8906 6.88752 11.8219 6.96565 11.6281 7.0844C11.4487 7.18346 11.2943 7.32226 11.1767 7.49017C11.0592 7.65808 10.9816 7.85065 10.95 8.05315C10.8906 8.4219 11.075 8.80314 11.4375 9.08127C11.6125 9.21252 11.8906 9.35002 11.8719 9.30002C11.7969 9.07189 11.8 8.64377 11.875 8.57189C11.8875 8.55939 11.8844 8.60314 11.8656 8.66877C11.8031 8.91564 11.8344 9.10939 11.9906 9.56564C12.1281 9.97814 12.1094 10.1563 11.9094 10.2719C11.8469 10.3094 11.8062 10.3156 11.6343 10.3125C11.4468 10.3125 11.425 10.3125 11.3656 10.3625C11.2938 10.4358 11.2468 10.5298 11.2312 10.6313C11.2312 10.6719 11.275 10.6656 11.3562 10.6188H11.3594Z" fill="#FFB700"/>
<path d="M14.3906 10.6094L14.4687 10.5594L14.5218 10.6094C14.5906 10.675 14.6749 10.6719 14.7406 10.6063C14.7718 10.575 14.7968 10.5563 14.7999 10.5594L14.8281 10.6094C14.8437 10.6375 14.8781 10.65 14.9406 10.6563C15.0124 10.6594 15.0343 10.6563 15.0656 10.6125L15.0968 10.5594L15.1749 10.6094C15.3874 10.7469 15.4999 10.6032 15.4031 10.3188C15.3562 10.175 15.3843 10.0938 15.5374 9.91253C15.6031 9.8344 15.6562 9.75003 15.6562 9.72503C15.6562 9.69065 15.6437 9.6844 15.5562 9.68753C15.4749 9.68753 15.4499 9.67815 15.4062 9.63128C15.3343 9.55315 15.3406 9.46253 15.4187 9.36253L15.4812 9.2844L15.3687 9.2094C15.2789 9.14307 15.1952 9.06882 15.1187 8.98753C15.0505 8.90702 14.9671 8.84074 14.8732 8.79248C14.7794 8.74423 14.677 8.71493 14.5718 8.70628L14.4249 8.69065V8.80315C14.4249 8.94378 14.4937 9.08128 14.6749 9.31253C14.8812 9.57503 14.8937 9.61565 14.9031 9.9594L14.9124 10.25L14.8499 10.3063C14.7968 10.3563 14.7749 10.3657 14.5999 10.375C14.4343 10.3844 14.3968 10.3938 14.3499 10.4375C14.2951 10.4775 14.2572 10.5366 14.2437 10.6031C14.2343 10.65 14.2374 10.6594 14.2718 10.6594C14.2937 10.6594 14.3468 10.6375 14.3906 10.6094ZM9.94682 9.8594C9.96572 9.83165 9.97654 9.79919 9.97807 9.76565C9.97807 9.7344 9.99682 9.7219 10.0781 9.7094L10.1749 9.6969L10.1124 9.64378C10.0343 9.58128 10.0249 9.5344 10.0937 9.5344C10.1624 9.5344 10.2749 9.46565 10.2937 9.41253C10.3031 9.38753 10.2937 9.35628 10.2812 9.34065C10.2437 9.2969 10.1718 9.30315 10.1593 9.35315C10.1437 9.40315 10.1218 9.40315 10.0656 9.35315C9.98744 9.27502 9.98432 9.11565 10.0656 9.0219C10.0999 8.97815 10.0999 8.97815 10.0531 8.93127C10.0031 8.88127 9.96557 8.78753 9.99057 8.76253C9.99682 8.75628 10.0374 8.76253 10.0781 8.77815C10.1406 8.7969 10.1624 8.7969 10.1874 8.77815C10.2593 8.71878 10.1812 8.64378 10.0624 8.66253C10.0124 8.66878 9.99369 8.66253 9.98744 8.63753C9.98119 8.61878 9.94057 8.59378 9.89369 8.58128C9.80932 8.5594 9.80932 8.5594 9.80932 8.61877C9.80932 8.68127 9.77182 8.69378 9.70307 8.65315C9.64682 8.6219 9.59369 8.6469 9.59369 8.70628C9.59369 8.76253 9.64682 8.78753 9.74994 8.78128C9.82494 8.77815 9.82807 8.8344 9.7562 8.91565L9.70307 8.97815L9.74369 9.03753C9.80619 9.12503 9.79994 9.2719 9.73432 9.3469L9.68119 9.40315L9.64682 9.35628C9.59682 9.29378 9.53119 9.2969 9.51244 9.36565C9.50307 9.4094 9.51245 9.42815 9.5687 9.47815C9.6062 9.5094 9.66244 9.5344 9.69057 9.5344C9.76244 9.5344 9.75932 9.59377 9.68432 9.65002L9.62182 9.6969L9.71557 9.7094C9.76557 9.71878 9.80932 9.73128 9.80932 9.74065C9.80932 9.78128 9.87182 9.90315 9.89057 9.90315C9.90307 9.90315 9.92807 9.88127 9.94682 9.85627V9.8594Z" fill="#FFB700"/>
<path d="M11.1405 9.34067C11.2249 9.30942 11.4062 9.15317 11.4062 9.1188C11.4062 9.1063 11.3562 9.05005 11.2937 8.9938C11.1687 8.8813 11.028 8.68442 10.9905 8.57192C10.9718 8.50942 10.8812 8.40942 10.6249 8.15942L10.2843 7.8313L10.1874 7.8563C10.1312 7.8688 10.0655 7.8813 10.0405 7.8813C9.99365 7.8813 9.99365 7.8813 10.0562 7.9313L10.1187 7.9813L10.2124 7.9313C10.2968 7.8813 10.2999 7.8813 10.3093 7.92192C10.3155 7.9438 10.303 7.98442 10.278 8.01255C10.2562 8.04067 10.2437 8.07505 10.2468 8.08442C10.2562 8.0938 10.2343 8.11567 10.1999 8.13442C10.1374 8.16567 10.0905 8.2688 10.1405 8.2688C10.1874 8.2688 10.2874 8.1438 10.2749 8.10317C10.2687 8.0813 10.2749 8.05942 10.2812 8.05317C10.3218 8.0313 10.3187 8.12817 10.2812 8.17817C10.2562 8.20317 10.2437 8.23442 10.2499 8.24692C10.2562 8.2563 10.2343 8.27817 10.1999 8.29692C10.1374 8.32817 10.0905 8.4313 10.1405 8.4313C10.1905 8.4313 10.2874 8.31255 10.278 8.2688C10.2718 8.24692 10.2718 8.22192 10.2812 8.21567C10.3093 8.20317 10.3218 8.27817 10.2999 8.31567C10.2942 8.32622 10.2912 8.33804 10.2912 8.35005C10.2912 8.36206 10.2942 8.37388 10.2999 8.38442C10.3218 8.42505 10.2999 8.50005 10.2593 8.52505C10.2437 8.53442 10.253 8.5563 10.2968 8.58755C10.3593 8.6313 10.3593 8.63755 10.3593 8.83755C10.3593 9.0063 10.3655 9.05005 10.3968 9.07817C10.428 9.10942 10.4343 9.10942 10.4343 9.07817C10.4343 9.04692 10.4968 9.00317 10.5437 9.00317C10.5593 9.00317 10.6499 9.0813 10.7468 9.17505C10.8437 9.2688 10.9468 9.35317 10.9749 9.3563L11.0437 9.3688C11.053 9.3688 11.0968 9.35942 11.1405 9.33755V9.34067ZM10.0999 8.52505C10.0999 8.47192 9.9874 8.41255 9.85303 8.40005C9.74365 8.38442 9.74365 8.38755 9.74365 8.44067C9.74365 8.48442 9.75928 8.50317 9.8374 8.53442C9.95615 8.58755 10.0999 8.5813 10.0999 8.52505Z" fill="#FFB700"/>
<path d="M10.2218 8.51883C10.2781 8.46883 10.3031 8.41258 10.2687 8.41258C10.2312 8.41258 10.1312 8.50008 10.1312 8.53758C10.1312 8.58758 10.15 8.58446 10.225 8.51883H10.2218ZM10.1062 8.35946C10.1093 8.32821 10.0906 8.30946 10.0343 8.28133C9.90934 8.22821 9.76558 8.20008 9.73121 8.22821C9.66558 8.28133 9.70934 8.35008 9.81246 8.36258C9.85621 8.36571 9.91246 8.37821 9.94059 8.39071C10.0218 8.42196 10.0968 8.40633 10.1062 8.35946ZM10.1062 8.19383C10.1125 8.15321 10.0843 8.13758 9.85621 8.05633C9.68433 7.99383 9.60933 8.02508 9.66558 8.12821C9.68433 8.16258 9.71559 8.17821 9.78746 8.19071C9.84059 8.19696 9.91246 8.21258 9.94683 8.22508C10.0406 8.25633 10.0968 8.24383 10.1031 8.19383H10.1062ZM10.2187 8.04071C10.2531 8.00633 10.2812 7.96571 10.2812 7.94696C10.2812 7.90008 10.1468 7.98758 10.1281 8.05008C10.1093 8.12196 10.1437 8.11883 10.2218 8.04071H10.2187ZM10.1062 8.03133C10.1125 7.98133 10.0312 7.93758 9.86871 7.90321C9.74683 7.87508 9.69371 7.89071 9.70309 7.94696C9.70934 7.97821 9.74996 8.00008 9.85934 8.03446C10.0437 8.09071 10.0968 8.09071 10.1062 8.03133ZM10.2625 7.80008C10.475 7.70633 10.4906 7.47196 10.2937 7.40946C10.2125 7.38446 10.1625 7.40008 10.1312 7.45321C10.1062 7.49696 10.1218 7.57196 10.1531 7.57196C10.1656 7.57196 10.175 7.58758 10.175 7.60321C10.175 7.68758 9.85621 7.72196 9.72496 7.65633C9.67809 7.63446 9.66246 7.57196 9.69683 7.57196C9.72808 7.57196 9.74683 7.50946 9.73121 7.46883C9.71246 7.40633 9.64996 7.38758 9.56559 7.41258C9.36871 7.46258 9.37496 7.69383 9.57496 7.78758C9.79623 7.8688 10.0384 7.8732 10.2625 7.80008Z" fill="#FFB700"/>
<path d="M10.1343 7.6188C10.1468 7.6063 10.1406 7.58755 10.1218 7.57505C10.0781 7.54067 10.0812 7.48755 10.1281 7.42817C10.1656 7.38442 10.1687 7.31567 10.1812 6.6438C10.2031 5.48442 10.2906 4.61255 10.4031 4.40005C10.45 4.3188 10.4437 4.3188 10.325 4.40005C10.1692 4.50859 10.0434 4.6548 9.95933 4.82505C9.76558 5.18442 9.69995 5.6688 9.69995 6.7063C9.69995 7.2938 9.70308 7.37192 9.73745 7.42505C9.7687 7.4813 9.7687 7.50005 9.74995 7.5563C9.73433 7.59067 9.72808 7.62817 9.73433 7.63442C9.77808 7.67505 10.0906 7.66567 10.1343 7.6188ZM11.8875 6.51255C11.8968 6.50317 11.8812 6.45005 11.8562 6.40005C11.8187 6.3188 11.8031 6.3063 11.75 6.3063C11.5001 6.28458 11.2564 6.21677 11.0312 6.1063C10.8718 6.03442 10.8125 6.0188 10.7968 6.03755C10.7468 6.08442 10.8281 6.1938 10.9531 6.25317C11.137 6.31946 11.3297 6.35842 11.525 6.3688C11.6093 6.3688 11.6125 6.3688 11.5625 6.44067L11.5312 6.49067H11.625L11.7812 6.50942C11.875 6.5313 11.875 6.5313 11.8875 6.51255Z" fill="#FFB700"/>
<path d="M12.875 7.03447C12.875 7.00322 12.7844 6.9251 12.6969 6.87197C12.625 6.83135 12.6125 6.82822 12.6125 6.8626C12.6125 6.9126 12.5687 7.04072 12.55 7.04072C12.5406 7.04072 12.525 7.01572 12.5187 6.9876C12.5094 6.95635 12.475 6.89385 12.4406 6.85322L12.3781 6.7751L12.3344 6.84697C12.2906 6.91572 12.2125 6.98135 12.1781 6.98135C12.1719 6.98135 12.1687 6.94385 12.1781 6.90322C12.1812 6.85322 12.1781 6.81572 12.1625 6.80947C12.15 6.8001 12.1375 6.80322 12.1375 6.81572C12.1375 6.84072 12.0312 6.95947 12.0125 6.95947C12 6.95947 11.9875 6.92822 11.9812 6.88447L11.9562 6.73447C11.95 6.69697 11.9656 6.72197 11.9875 6.79697L12.0375 6.9251L12.0875 6.84697C12.1101 6.81469 12.127 6.77874 12.1375 6.74072C12.1375 6.7251 12.1469 6.71885 12.1594 6.7251C12.1719 6.73135 12.1875 6.78447 12.1937 6.84072L12.2094 6.94697L12.2656 6.88447C12.2951 6.85312 12.3222 6.8197 12.3469 6.78447C12.3687 6.74697 12.3719 6.74697 12.4187 6.78447C12.4437 6.80947 12.4844 6.8626 12.5094 6.90635C12.5344 6.9501 12.5562 6.98135 12.5594 6.97822L12.5781 6.87822L12.5906 6.78447C12.5937 6.76885 12.7594 6.87822 12.8219 6.93135C12.8594 6.96572 12.8969 6.99072 12.9031 6.98447C12.9094 6.97822 12.9156 6.92822 12.9156 6.86885C12.9156 6.78135 12.9062 6.75635 12.8531 6.70947C12.7906 6.65322 12.7906 6.65322 12.7656 6.69385C12.7344 6.74697 12.7 6.74697 12.7 6.69385C12.7 6.65635 12.5812 6.50947 12.5531 6.50947C12.5437 6.50947 12.5187 6.54072 12.4969 6.58135C12.475 6.62197 12.45 6.65322 12.4437 6.65322C12.4125 6.65322 12.2469 6.46572 12.2469 6.43447C12.2469 6.40947 12.2594 6.41572 12.2875 6.45947C12.3154 6.50052 12.3479 6.53826 12.3844 6.57197C12.4469 6.62822 12.4719 6.61572 12.4969 6.50635C12.5062 6.4751 12.5187 6.4501 12.5281 6.4501C12.5531 6.4501 12.6969 6.60322 12.7156 6.65322L12.7375 6.70322L12.7531 6.64697C12.7719 6.57822 12.7937 6.57822 12.825 6.64072C12.8375 6.66572 12.9 6.72197 12.9625 6.75947L13.0781 6.83447L13.1 6.75947C13.1125 6.71885 13.1312 6.69697 13.1375 6.70947C13.15 6.7251 13.1187 6.8501 13.0969 6.8751C13.0969 6.87822 13.0562 6.85635 13.0156 6.82822L12.9375 6.77197V6.87197C12.9375 6.9251 12.9312 6.99072 12.925 7.01572C12.9094 7.06572 12.8719 7.07822 12.8719 7.03447H12.875ZM12.2969 6.24072C12.1594 6.12822 12.1406 6.10322 12.1406 6.04697L12.1437 5.99072L12.1531 6.04385C12.1594 6.0751 12.1969 6.1251 12.2406 6.1626L12.3219 6.2251L12.3687 6.16885C12.3969 6.1376 12.4187 6.1001 12.4187 6.0876C12.4187 6.0501 12.425 6.05322 12.5187 6.13447C12.6 6.20635 12.6031 6.20635 12.6125 6.15947C12.6219 6.13447 12.6187 6.08447 12.6125 6.0501C12.5812 5.95635 12.5875 5.94385 12.6281 6.0001L12.7031 6.0876C12.7344 6.12197 12.7375 6.12197 12.75 6.07822C12.7594 6.0501 12.7656 6.00322 12.7656 5.97197V5.9126L12.8375 5.99697C12.9094 6.07822 12.9156 6.08135 12.9344 6.04072C12.95 6.01885 12.9594 5.96572 12.9594 5.9251C12.9594 5.86885 12.9656 5.85635 12.9781 5.8751C13.0031 5.9126 12.9875 6.00635 12.9437 6.0876L12.9125 6.1501L12.8719 6.08447C12.8187 6.00322 12.8 6.00322 12.7687 6.09072C12.7375 6.1751 12.7156 6.18135 12.6844 6.11572C12.6656 6.0751 12.6594 6.08135 12.6469 6.16885L12.6312 6.2626L12.5375 6.19072L12.4437 6.11885L12.3969 6.16572C12.375 6.19385 12.3562 6.22822 12.3562 6.24072C12.3562 6.27197 12.3312 6.27197 12.2969 6.24072ZM13.5156 5.81572C13.4687 5.77197 13.4344 5.72822 13.4406 5.72197C13.45 5.7126 13.4562 5.70947 13.4594 5.71572C13.4896 5.74795 13.5209 5.77922 13.5531 5.80947C13.6594 5.92197 13.6375 5.9251 13.5187 5.81572H13.5156ZM11.8906 5.64697C11.8469 5.58447 11.85 5.54697 11.9062 5.47822C11.9437 5.43135 11.9625 5.4251 12.0312 5.43447C12.0781 5.4376 12.175 5.47822 12.2469 5.52197C12.3507 5.58403 12.4696 5.61645 12.5906 5.61572L12.5375 5.52822C12.4687 5.4251 12.4687 5.4126 12.55 5.4751C12.6312 5.54072 12.7281 5.55947 12.9469 5.55322L13.0531 5.5501L12.9906 5.4876C12.9062 5.40322 12.9312 5.39385 13.0281 5.47822C13.1156 5.55635 13.1125 5.5626 12.9219 5.58135C12.8424 5.58937 12.7621 5.58409 12.6844 5.56572C12.5781 5.53447 12.5719 5.5376 12.5937 5.57197C12.6062 5.59385 12.625 5.60947 12.6344 5.60947C12.6469 5.60947 12.6562 5.62197 12.6562 5.63447C12.6562 5.6751 12.425 5.6376 12.3125 5.58447C12.0625 5.45635 12.0312 5.44385 11.9687 5.4626C11.9521 5.469 11.9369 5.47865 11.924 5.49099C11.9111 5.50333 11.9008 5.51811 11.8937 5.53447C11.8531 5.6376 12 5.71885 12.0594 5.62822C12.0781 5.6001 12.075 5.58447 12.0437 5.5501C12 5.50635 12.0062 5.5001 12.0625 5.51885C12.1031 5.53447 12.1062 5.63135 12.0687 5.66885C12.0281 5.70947 11.9281 5.7001 11.8906 5.64697Z" fill="black"/>
<path d="M12.8875 5.39376C12.8562 5.36251 12.8812 5.35626 13.0218 5.35314C13.1968 5.35001 13.3031 5.32189 13.4281 5.24064C13.5281 5.17814 13.5562 5.19064 13.4593 5.25626C13.375 5.31876 13.2406 5.36251 13.1062 5.37501L12.9468 5.39689C12.9218 5.40314 12.8937 5.40001 12.8843 5.39376H12.8875Z" fill="black"/>
</g>
<defs>
<clipPath id="clip0_14_359">
<rect width="20" height="15" fill="white"/>
</clipPath>
</defs>
</svg>
