<svg width="20" height="15" viewBox="0 0 20 15" fill="none" xmlns="http://www.w3.org/2000/svg">
<g clip-path="url(#clip0_14_354)">
<path d="M0 0H20V15H0V0Z" fill="white"/>
<path d="M0 10.5H20V15H0V10.5Z" fill="#009543"/>
<path d="M0 0H20V4.5H0V0Z" fill="#00209F"/>
<path d="M9.98755 4.78128C9.90317 4.78128 9.8188 4.87503 9.8188 4.87503L9.82817 5.88753L9.5063 6.2219H9.76567V6.80003L8.23442 8.86253L8.00942 8.78128L7.61255 9.62503C7.61255 9.62503 8.59067 10.2375 10.0094 10.2188C11.5657 10.2032 12.4125 9.5969 12.4125 9.5969L12.0063 8.76565L11.8032 8.85315L10.2532 6.80315V6.20628H10.5094L10.1594 5.87503V4.86878C10.1594 4.86878 10.075 4.77503 9.98755 4.77815V4.78128Z" fill="black" stroke="black" stroke-width="0.08"/>
<path d="M10.5219 7.19995H9.46255C9.46255 7.19995 9.0813 6.39058 9.14068 5.82495C9.20318 5.24995 9.53443 4.97808 9.97193 4.97183C10.4907 4.9687 10.7594 5.22495 10.8407 5.80308C10.9219 6.37495 10.5219 7.19995 10.5219 7.19995Z" stroke="black" stroke-width="0.4"/>
<path d="M8.14065 9.12808C8.1219 9.14995 7.99377 9.4062 7.99377 9.4062L8.21252 9.35933L8.14065 9.12808ZM8.26565 9.4562L8.0344 9.5312L8.31252 9.64058L8.26565 9.4562ZM8.36877 9.13433L8.4844 9.47495L8.76565 9.3937L8.69377 9.2312L8.36877 9.13433ZM8.55002 9.59683L8.58752 9.73433L8.96252 9.82808L8.81252 9.50933L8.55002 9.59683ZM8.96252 9.3062L9.0969 9.62495L9.37815 9.51558L9.2844 9.37495L8.96252 9.3062ZM9.15002 9.74058L9.19377 9.85933L9.63127 9.92183L9.4469 9.63433L9.1469 9.74058H9.15002ZM9.56877 9.39683L9.73127 9.6812L10.1375 9.5312L10.0938 9.42183L9.56877 9.39995V9.39683ZM9.80627 9.78433L9.89065 9.93433L10.3969 9.9187L10.2094 9.63745L9.80315 9.78433H9.80627ZM10.3406 9.40933L10.4781 9.64683L10.8031 9.49058L10.7156 9.36558L10.3406 9.40933ZM10.8719 9.59058L10.55 9.74995L10.6344 9.89058L11.0656 9.82183L10.8719 9.59058ZM10.975 9.34058L11.1406 9.54995L11.4125 9.33433L11.3188 9.24058L10.975 9.34058ZM11.4719 9.44995L11.2125 9.64683L11.2813 9.7687L11.6375 9.67495L11.4719 9.44995ZM11.8281 9.0437L11.8906 9.13433L11.7125 9.39995L11.5281 9.16245L11.8281 9.0437ZM11.95 9.27183L12.0594 9.49058L11.8406 9.56558L11.8219 9.46245L11.9469 9.27495L11.95 9.27183Z" fill="white"/>
</g>
<defs>
<clipPath id="clip0_14_354">
<rect width="20" height="15" fill="white"/>
</clipPath>
</defs>
</svg>
