<svg width="20" height="15" viewBox="0 0 20 15" fill="none" xmlns="http://www.w3.org/2000/svg">
<g clip-path="url(#clip0_14_350)">
<mask id="mask0_14_350" style="mask-type:luminance" maskUnits="userSpaceOnUse" x="0" y="0" width="20" height="15">
<path d="M0.000976562 0H19.999V15H0.000976562V0Z" fill="white"/>
</mask>
<g mask="url(#mask0_14_350)">
<path d="M-5 0H25V15H-5V0Z" fill="#239E46"/>
<path d="M-5 0H25V11.25H-5V0Z" fill="black"/>
<path d="M-5 0H25V3.75H-5V0Z" fill="#E70013"/>
<path d="M11.326 6.174C11.0824 6.00018 10.7957 5.89681 10.4972 5.87524C10.1987 5.85367 9.9001 5.91473 9.63405 6.05172C9.368 6.1887 9.14483 6.39633 8.98902 6.65181C8.83321 6.90729 8.75078 7.20076 8.75078 7.5C8.75078 7.79925 8.83321 8.09271 8.98902 8.34819C9.14483 8.60367 9.368 8.8113 9.63405 8.94829C9.9001 9.08528 10.1987 9.14633 10.4972 9.12476C10.7957 9.10319 11.0824 8.99982 11.326 8.826C11.0638 9.08818 10.7297 9.2667 10.366 9.33901C10.0023 9.41132 9.6253 9.37416 9.28272 9.23223C8.94014 9.0903 8.64733 8.84998 8.44133 8.54164C8.23532 8.23331 8.12537 7.87082 8.12537 7.5C8.12537 7.12918 8.23532 6.76669 8.44133 6.45836C8.64733 6.15003 8.94014 5.9097 9.28272 5.76777C9.6253 5.62585 10.0023 5.58868 10.366 5.66099C10.7297 5.7333 11.0638 5.91183 11.326 6.174ZM10.912 7.5L13.435 6.681L11.875 8.826V6.174L13.435 8.319L10.912 7.5Z" fill="white"/>
</g>
</g>
<defs>
<clipPath id="clip0_14_350">
<rect width="20" height="15" fill="white"/>
</clipPath>
</defs>
</svg>
