<svg width="20" height="15" viewBox="0 0 20 15" fill="none" xmlns="http://www.w3.org/2000/svg">
<mask id="mask0_1825_43259" style="mask-type:luminance" maskUnits="userSpaceOnUse" x="0" y="0" width="20" height="15">
<rect width="20" height="15" fill="white"/>
</mask>
<g mask="url(#mask0_1825_43259)">
<path fill-rule="evenodd" clip-rule="evenodd" d="M13 0H20V15H13V0Z" fill="#D9071E"/>
<path fill-rule="evenodd" clip-rule="evenodd" d="M0 0H7V15H0V0Z" fill="#3D58DB"/>
<path fill-rule="evenodd" clip-rule="evenodd" d="M6 0H14V15H6V0Z" fill="#FBCD17"/>
<path fill-rule="evenodd" clip-rule="evenodd" d="M13.5741 12.2589L12.916 12.6185L10.7344 8.62547L11.3925 8.26587L13.5741 12.2589ZM6.57104 12.3549L7.22922 12.7145L9.41082 8.72148L8.75264 8.36188L6.57104 12.3549Z" fill="#FD1900"/>
<path fill-rule="evenodd" clip-rule="evenodd" d="M7.11137 5.86808V9.33765C7.11137 10.1084 6.44771 11.1129 6.113 11.4865C5.77829 11.8602 5.11353 12.7163 5.11353 12.7163V3.38014C5.11353 2.33291 6.113 1.97317 6.113 1.97317C6.113 1.97317 6.94289 2.13735 7.11137 3.38014V4.59136C7.36823 4.79364 8.22595 5.41401 8.78004 5.15213C9.43793 4.84119 9.66517 3.94934 9.66517 3.94934C9.66517 3.94934 9.60365 3.04941 9.33362 3.04941C9.06358 3.04941 9.04201 1.78174 10.0761 1.78174C11.1103 1.78174 11.2308 2.27037 11.2308 2.65989C11.2308 2.86407 11.0672 3.19176 10.9114 3.50358C10.77 3.78663 10.6352 4.05662 10.6352 4.20932C10.6352 4.53025 10.877 5.15213 11.2308 5.15213C11.479 5.15213 12.6727 4.68838 13.3635 4.41137V3.38014C13.532 2.13735 14.3619 1.97317 14.3619 1.97317C14.3619 1.97317 15.3614 2.33291 15.3614 3.38014V12.7163C15.3614 12.7163 14.6966 11.8602 14.3619 11.4865C14.0272 11.1129 13.3635 10.1084 13.3635 9.33765V5.86808H7.11137ZM8.21894 12.395C8.89493 11.9549 9.88377 9.98128 9.88377 9.98128L10.2121 10.0575C10.2121 10.0575 10.7134 11.3648 12.1873 12.395C10.6162 12.8143 10.2121 13.6563 10.2121 13.6563C10.2121 12.9827 8.21894 12.395 8.21894 12.395ZM8.11008 11.1458C8.56571 11.1458 8.93508 10.796 8.93508 10.3645C8.93508 9.93305 8.56571 9.58327 8.11008 9.58327C7.65444 9.58327 7.28508 9.93305 7.28508 10.3645C7.28508 10.796 7.65444 11.1458 8.11008 11.1458ZM12.9501 10.3645C12.9501 10.796 12.5807 11.1458 12.1251 11.1458C11.6694 11.1458 11.3001 10.796 11.3001 10.3645C11.3001 9.93305 11.6694 9.58327 12.1251 9.58327C12.5807 9.58327 12.9501 9.93305 12.9501 10.3645Z" fill="#A77B3B"/>
<path d="M15.7125 6.50476L16.2862 6.75273L13.9489 12.1602L13.3752 11.9122L15.7125 6.50476Z" fill="#FDFF00"/>
<path opacity="0.3" fill-rule="evenodd" clip-rule="evenodd" d="M6.90015 4.89575H13.5001V9.67006C13.5001 9.67006 11.8207 10.1759 10.2001 11.006C9.00388 10.1185 6.90015 9.67006 6.90015 9.67006V4.89575Z" fill="#E1E5E8"/>
<mask id="mask1_1825_43259" style="mask-type:luminance" maskUnits="userSpaceOnUse" x="6" y="4" width="8" height="8">
<path fill-rule="evenodd" clip-rule="evenodd" d="M6.90015 4.89575H13.5001V9.67006C13.5001 9.67006 11.8207 10.1759 10.2001 11.006C9.00388 10.1185 6.90015 9.67006 6.90015 9.67006V4.89575Z" fill="white"/>
</mask>
<g mask="url(#mask1_1825_43259)">
<rect x="6.90015" y="8.02075" width="6.6" height="3.125" fill="#3D58DB"/>
<rect x="6.90015" y="4.89575" width="6.6" height="3.125" fill="#FD1900"/>
<path fill-rule="evenodd" clip-rule="evenodd" d="M9.8669 6.30121L9.36669 6.3426L9.65518 5.95344L9.34774 5.55042L9.8505 5.61515L10.0433 5.17073L10.2575 5.62462L10.7577 5.58323L10.4692 5.97239L10.7767 6.37542L10.2739 6.31068L10.0812 6.7551L9.8669 6.30121Z" fill="#FDFF00"/>
<path fill-rule="evenodd" clip-rule="evenodd" d="M8.96895 5.41976C8.96895 5.41976 7.62526 6.23725 8.07316 6.82409C8.52105 7.41092 9.08486 7.48604 9.08486 7.48604C9.08486 7.48604 7.71036 9.54811 10.1295 10.7262C12.7195 9.58891 11.3574 7.48604 11.3574 7.48604C11.3574 7.48604 12.1547 7.30966 12.3143 6.67515C12.474 6.04063 11.2722 5.31287 11.2722 5.31287C11.2722 5.31287 12.022 6.39962 11.8508 6.67515C11.6797 6.95068 10.7627 7.23119 10.1295 7.23119C9.49635 7.23119 8.5186 7.0534 8.3608 6.57194C8.20301 6.09048 8.96895 5.41976 8.96895 5.41976Z" fill="#FDFF00"/>
<path fill-rule="evenodd" clip-rule="evenodd" d="M7.72515 7.49988L8.55015 8.02071L7.72515 8.54154L6.90015 8.02071L7.72515 7.49988Z" fill="#FDFF00"/>
<path fill-rule="evenodd" clip-rule="evenodd" d="M12.6751 7.49988L13.5001 8.02071L12.6751 8.54154L11.8501 8.02071L12.6751 7.49988Z" fill="#FDFF00"/>
<path fill-rule="evenodd" clip-rule="evenodd" d="M7.7002 9.56238C7.83827 9.56238 7.9502 9.45045 7.9502 9.31238C7.9502 9.17431 7.83827 9.06238 7.7002 9.06238C7.56212 9.06238 7.4502 9.17431 7.4502 9.31238C7.4502 9.45045 7.56212 9.56238 7.7002 9.56238Z" fill="#FDFF00"/>
<path fill-rule="evenodd" clip-rule="evenodd" d="M13.0188 9.08919C12.8042 8.91541 12.4753 8.9659 12.2841 9.20196C12.093 9.43803 12.112 9.77027 12.3266 9.94405C12.4432 10.0385 12.3823 9.66324 12.5589 9.42446C12.7072 9.22392 13.1168 9.16852 13.0188 9.08919Z" fill="#FDFF00"/>
</g>
<path fill-rule="evenodd" clip-rule="evenodd" d="M2.96045 7.20559C2.96045 7.20559 3.61928 7.98447 4.23963 7.72981C4.85998 7.47515 4.70958 6.56213 4.70958 6.56213L4.23963 6.98846H3.83959V7.20559L3.52715 6.98846V7.20559H2.96045ZM3.40603 8.40251C3.40603 8.40251 4.20902 9.10284 4.75001 8.90493C5.29101 8.70703 5.15516 7.75905 5.15516 7.75905L4.68521 8.18538H4.28517V8.40251L3.97273 8.18538V8.40251H3.40603ZM5.56841 9.9918C5.02741 10.1897 4.22442 9.48938 4.22442 9.48938H4.79113V9.27225L5.10356 9.48938V9.27225H5.5036L5.97355 8.84592C5.97355 8.84592 6.1094 9.7939 5.56841 9.9918Z" fill="#048F02"/>
<path fill-rule="evenodd" clip-rule="evenodd" d="M8.73704 1.40527H8.11204V1.77752H7.81787V2.40252H8.11204V3.49291H8.73704V2.40252H9.09464V1.77752H8.73704V1.40527Z" fill="#FDFF00"/>
<path fill-rule="evenodd" clip-rule="evenodd" d="M9.47396 2.11536L8.02637 2.48826L9.47396 2.94569V2.11536Z" fill="#DB4400"/>
</g>
</svg>
