<svg width="20" height="15" viewBox="0 0 20 15" fill="none" xmlns="http://www.w3.org/2000/svg">
<g clip-path="url(#clip0_14_412)">
<path fill-rule="evenodd" clip-rule="evenodd" d="M0 0H6.66562V15H0V0Z" fill="#00319C"/>
<path fill-rule="evenodd" clip-rule="evenodd" d="M6.66565 0H13.3344V15H6.66565V0Z" fill="#FFDE00"/>
<path fill-rule="evenodd" clip-rule="evenodd" d="M13.3344 0H20V15H13.3344V0Z" fill="#DE2110"/>
<path fill-rule="evenodd" clip-rule="evenodd" d="M11.2625 10.0125L12.0187 11.1062C12.0625 11.1687 12.1031 11.2281 12.0406 11.2687C11.9781 11.3093 11.9968 11.4687 12.0406 11.5312C12.125 11.6531 12.2281 11.6718 12.2906 11.6312L12.8656 11.2687C12.9281 11.2312 12.95 11.1281 12.8656 11.0062C12.8187 10.9437 12.6781 10.8656 12.6156 10.9062C12.55 10.9468 12.5062 10.8843 12.4656 10.825L11.7062 9.7312" fill="#FF1900"/>
<path d="M11.2625 10.0125L12.0187 11.1062C12.0625 11.1687 12.1031 11.2281 12.0406 11.2687C11.9781 11.3093 11.9968 11.4687 12.0406 11.5312C12.125 11.6531 12.2281 11.6718 12.2906 11.6312L12.8656 11.2687C12.9281 11.2312 12.95 11.1281 12.8656 11.0062C12.8187 10.9437 12.6781 10.8656 12.6156 10.9062C12.55 10.9468 12.5062 10.8843 12.4656 10.825L11.7062 9.7312" stroke="black" stroke-width="0.035"/>
<path fill-rule="evenodd" clip-rule="evenodd" d="M11.5593 9.24154C11.8975 9.62574 12.0152 10.0662 11.8224 10.2212C11.6296 10.3762 11.1956 10.19 10.8574 9.80581C10.5191 9.42161 10.4031 8.97979 10.5959 8.82482C10.7887 8.66985 11.2213 8.85445 11.561 9.24022L11.5593 9.24154Z" fill="#A77B3B" stroke="black" stroke-width="0.084238"/>
<path fill-rule="evenodd" clip-rule="evenodd" d="M8.18748 9.56567L7.51561 10.7125C7.47811 10.775 7.44061 10.8375 7.37498 10.8063C7.30936 10.7688 7.16873 10.8594 7.13123 10.925C7.05623 11.05 7.08436 11.15 7.15311 11.1875L7.75311 11.5063C7.81561 11.5407 7.92186 11.5125 7.99686 11.3875C8.03123 11.3188 8.04061 11.1594 7.97498 11.125C7.90936 11.0907 7.94373 11.025 7.98436 10.9625L8.65311 9.81567" fill="#FF1900"/>
<path d="M8.18748 9.56567L7.51561 10.7125C7.47811 10.775 7.44061 10.8375 7.37498 10.8063C7.30936 10.7688 7.16873 10.8594 7.13123 10.925C7.05623 11.05 7.08436 11.15 7.15311 11.1875L7.75311 11.5063C7.81561 11.5407 7.92186 11.5125 7.99686 11.3875C8.03123 11.3188 8.04061 11.1594 7.97498 11.125C7.90936 11.0907 7.94373 11.025 7.98436 10.9625L8.65311 9.81567" stroke="black" stroke-width="0.035"/>
<path fill-rule="evenodd" clip-rule="evenodd" d="M10.35 8.76876H9.73755C9.7188 8.78751 9.5438 9.88126 9.3563 10.3C9.12817 10.8094 8.4438 11.2594 8.4438 11.2594C8.4438 11.2594 8.85317 11.3844 8.97505 11.4656C9.0063 11.4563 9.66255 11.3188 9.73755 10.5188C9.81255 11.3188 9.2813 11.6844 9.2813 11.6844C9.2813 11.6844 10.0438 11.9031 10.0438 12.4125C10.0438 11.9031 10.8063 11.6844 10.8063 11.6844C10.8063 11.6844 10.425 11.3188 10.3469 10.5188C10.5032 11.3188 11.0813 11.4563 11.1125 11.4656C11.2344 11.3844 11.6438 11.2594 11.6438 11.2594C11.6438 11.2594 10.9594 10.8094 10.7313 10.3C10.5438 9.88126 10.3688 8.78751 10.35 8.76876ZM7.7563 5.12188L8.90005 5.48751C9.27817 5.48751 9.66255 5.12188 9.66255 4.75626C9.67505 3.94376 9.3563 3.66251 9.2813 3.66251L9.4313 3.51876L9.20317 3.30001C9.20317 3.30001 9.2813 2.92189 10.0438 2.93439C10.8063 2.95001 10.8063 3.30001 10.8063 3.66251C10.8063 4.02501 10.425 4.02814 10.425 4.75626C10.425 5.12188 10.8063 5.48751 11.1875 5.48751L12.3313 5.12188V8.76876H7.75317V5.12188H7.7563Z" fill="#A77B3B" stroke="black" stroke-width="0.085"/>
<path d="M9.50879 5.26782L9.58485 5.48707L9.66144 5.26782L9.73751 5.48707L9.89016 5.26782L9.96466 5.49876L10.0428 5.26782L10.1553 5.49876L10.2715 5.26782L10.3476 5.48707L10.4242 5.26782" stroke="black" stroke-width="0.00698122"/>
<path d="M9.81487 4.46704L9.66199 5.2695M9.89023 4.46704V5.2695M10.0431 4.46704V5.2695M10.196 4.46704L10.2714 5.2695M10.3489 4.46704L10.4242 5.2695" stroke="black" stroke-width="0.00673566"/>
<path fill-rule="evenodd" clip-rule="evenodd" d="M6.9894 2.93616C6.22714 3.30035 6.22714 4.0308 6.22714 4.39499C6.25298 4.72626 6.22714 11.685 6.22714 11.685C6.22714 11.685 6.27667 11.2735 6.60827 10.9567L6.98725 10.5925L7.36838 10.2283C7.64831 9.98547 7.74951 9.49782 7.74951 9.13363V4.0308C7.74951 4.0308 7.74951 3.66455 6.98725 2.93616H6.9894Z" fill="#A77B3B" stroke="black" stroke-width="0.0841958"/>
<path d="M7.75171 4.39496C7.7431 4.39496 7.37058 4.03076 7.37058 4.03076L6.98945 4.39496L6.60832 4.03076L6.22719 4.39496" stroke="black" stroke-width="0.0841958"/>
<path d="M7.75171 4.75812C7.7431 4.75812 7.37058 5.12231 7.37058 5.12231L6.98945 4.75812L6.60832 5.12231L6.22719 4.75812" stroke="black" stroke-width="0.0841958"/>
<path d="M7.75171 5.85125C7.7431 5.85125 7.37058 5.48706 7.37058 5.48706L6.98945 5.85125L6.60832 5.48706L6.22719 5.85125" stroke="black" stroke-width="0.0841958"/>
<path d="M7.3663 4.02979L7.37061 10.2285" stroke="black" stroke-width="0.115967"/>
<path d="M6.9913 4.39417L6.99561 10.5778" stroke="black" stroke-width="0.109865"/>
<path d="M6.60995 4.03149L6.61426 10.9586" stroke="black" stroke-width="0.116282"/>
<path fill-rule="evenodd" clip-rule="evenodd" d="M13.0949 2.93616C13.8572 3.30035 13.8572 4.0308 13.8572 4.39499C13.8314 4.72626 13.8572 11.685 13.8572 11.685C13.8572 11.685 13.8077 11.2735 13.4761 10.9567L13.0971 10.5925L12.716 10.2283C12.436 9.98547 12.3348 9.49782 12.3348 9.13363V4.0308C12.3348 4.0308 12.3348 3.66455 13.0971 2.93616H13.0949Z" fill="#A77B3B" stroke="black" stroke-width="0.0841958"/>
<path d="M12.3326 4.39496C12.3413 4.39496 12.7138 4.03076 12.7138 4.03076L13.0949 4.39496L13.476 4.03076L13.8572 4.39496" stroke="black" stroke-width="0.0841958"/>
<path d="M12.3326 4.75812C12.3413 4.75812 12.7138 5.12231 12.7138 5.12231L13.0949 4.75812L13.476 5.12231L13.8572 4.75812" stroke="black" stroke-width="0.0841958"/>
<path d="M12.3326 5.85125C12.3413 5.85125 12.7138 5.48706 12.7138 5.48706L13.0949 5.85125L13.476 5.48706L13.8572 5.85125" stroke="black" stroke-width="0.0841958"/>
<path d="M12.7181 4.02979L12.7137 10.2285" stroke="black" stroke-width="0.115967"/>
<path d="M13.0962 4.39417L13.0919 10.5778" stroke="black" stroke-width="0.109865"/>
<path d="M13.4775 4.03149L13.4731 10.9586" stroke="black" stroke-width="0.116282"/>
<path fill-rule="evenodd" clip-rule="evenodd" d="M9.03979 9.46464C8.83771 9.92807 8.48209 10.2301 8.24953 10.1375C8.01698 10.0449 7.99097 9.59096 8.19305 9.12753C8.39513 8.6641 8.75274 8.36289 8.98529 8.45548C9.21785 8.54807 9.24468 9.0001 9.04178 9.46543L9.03979 9.46464Z" fill="#A77B3B" stroke="black" stroke-width="0.0842175"/>
<path fill-rule="evenodd" clip-rule="evenodd" d="M7.75317 5.48755H12.3313V7.67505H7.75317V5.48755Z" fill="#FF0000"/>
<path fill-rule="evenodd" clip-rule="evenodd" d="M7.75313 7.67505H12.3312V8.7688C12.3312 9.49692 11.1875 9.49692 10.0437 10.225C8.89687 9.50005 7.75 9.50005 7.75 8.7688V7.67505H7.75313Z" fill="#564DFF"/>
<path d="M7.75415 5.48755H12.332V8.77147C12.332 9.49986 11.1886 9.49986 10.0431 10.2303C8.8997 9.49986 7.75415 9.49986 7.75415 8.76941V5.48961V5.48755Z" stroke="#FFFF00" stroke-width="0.0673566"/>
<path fill-rule="evenodd" clip-rule="evenodd" d="M9.20276 5.63318C9.20276 5.63318 8.44006 6.1694 8.44006 6.68242C8.44006 7.19545 9.24045 7.36743 9.24045 7.36743C9.24045 7.36743 8.97365 7.36743 8.97365 8.05147C8.97365 8.39445 9.77404 8.22344 9.77404 8.39445C9.77404 8.56546 9.76348 8.97898 9.77404 9.25047C9.77404 9.42148 9.24045 9.25047 9.24045 9.42148C9.24045 9.5065 9.64139 9.93451 10.0423 9.93451C10.4433 9.93451 10.8427 9.5065 10.8427 9.42148C10.8427 9.25047 10.3091 9.42148 10.3091 9.25047V8.39445C10.3091 8.22344 11.1095 8.39445 11.1095 8.05147C11.1095 7.36743 10.8427 7.36743 10.8427 7.36743C10.8427 7.36743 11.6446 7.19642 11.6446 6.68242C11.6446 6.16843 10.8804 5.63318 10.8804 5.63318C10.8804 5.63318 11.31 6.34041 11.31 6.68242C11.31 6.85343 11.1095 7.19642 10.5759 7.19642C10.5759 7.19642 10.4403 7.02444 10.3091 7.19642C10.3091 7.19642 10.1554 7.02444 10.0423 7.19642C10.0031 7.25439 9.93381 7.02444 9.77404 7.19642C9.70771 7.24183 9.65345 7.02444 9.50724 7.19642C9.24045 7.19642 8.70686 7.02444 8.70686 6.68242C8.70686 6.34041 9.20276 5.63318 9.20276 5.63318Z" fill="#FFFF00" stroke="black" stroke-width="0.0482709"/>
<path fill-rule="evenodd" clip-rule="evenodd" d="M9.21852 8.6961C9.16426 8.73088 9.28786 9.28836 9.32404 9.31251C9.3783 9.34632 9.69936 9.34632 9.75211 9.31251C9.7898 9.28836 9.75211 8.7647 9.69936 8.73088C9.64509 8.6961 9.25621 8.67291 9.21702 8.6961H9.21852Z" fill="#FFFF00" stroke="black" stroke-width="0.0482709"/>
<path fill-rule="evenodd" clip-rule="evenodd" d="M10.869 8.6961C10.9233 8.73088 10.7997 9.28836 10.7635 9.31251C10.7092 9.34632 10.3882 9.34632 10.3354 9.31251C10.2977 9.28836 10.3354 8.7647 10.3882 8.73088C10.4424 8.6961 10.8313 8.67291 10.8705 8.6961H10.869Z" fill="#FFFF00" stroke="black" stroke-width="0.0482709"/>
<path fill-rule="evenodd" clip-rule="evenodd" d="M9.76729 8.49276C9.76729 8.54387 9.73809 8.59289 9.6861 8.62903C9.63412 8.66517 9.56361 8.68547 9.49009 8.68547C9.41657 8.68547 9.34607 8.66517 9.29408 8.62903C9.2421 8.59289 9.21289 8.54387 9.21289 8.49276C9.21289 8.44165 9.2421 8.39263 9.29408 8.35649C9.34607 8.32035 9.41657 8.30005 9.49009 8.30005C9.56361 8.30005 9.63412 8.32035 9.6861 8.35649C9.73809 8.39263 9.76729 8.44165 9.76729 8.49276Z" fill="#FFFF00" stroke="black" stroke-width="0.0577815"/>
<path fill-rule="evenodd" clip-rule="evenodd" d="M10.8706 8.49289C10.8706 8.544 10.8414 8.59301 10.7894 8.62916C10.7374 8.6653 10.6669 8.6856 10.5934 8.6856C10.5198 8.6856 10.4493 8.6653 10.3974 8.62916C10.3454 8.59301 10.3162 8.544 10.3162 8.49289C10.3162 8.44177 10.3454 8.39276 10.3974 8.35662C10.4493 8.32047 10.5198 8.30017 10.5934 8.30017C10.6669 8.30017 10.7374 8.32047 10.7894 8.35662C10.8414 8.39276 10.8706 8.44177 10.8706 8.49289Z" fill="#FFFF00" stroke="black" stroke-width="0.0577828"/>
<path fill-rule="evenodd" clip-rule="evenodd" d="M10.525 9.6094C10.525 9.65627 10.4625 9.69378 10.3906 9.69378C10.3156 9.69378 10.2563 9.65627 10.2563 9.6094C10.2563 9.56252 10.3187 9.52502 10.3906 9.52502C10.4625 9.52502 10.525 9.56252 10.525 9.6094ZM9.82812 9.6094C9.82812 9.65627 9.76875 9.69378 9.69687 9.69378C9.62187 9.69378 9.5625 9.65627 9.5625 9.6094C9.5625 9.56252 9.62187 9.52502 9.69687 9.52502C9.76875 9.52502 9.82812 9.56252 9.82812 9.6094Z" fill="black"/>
<path fill-rule="evenodd" clip-rule="evenodd" d="M10.0433 6.8751L9.87947 6.66834L9.61057 6.70246L9.64839 6.44551L9.43201 6.29094L9.64839 6.13436L9.61057 5.87742L9.87947 5.91355L10.0433 5.70679L10.2072 5.91355L10.474 5.87742L10.4383 6.13436L10.6526 6.29094L10.4383 6.44752L10.474 6.70246L10.2051 6.66834L10.0433 6.8751Z" fill="#FFFF00" stroke="black" stroke-width="0.0361427"/>
<path fill-rule="evenodd" clip-rule="evenodd" d="M11.1865 7.67477L11.6452 7.89493L12.1038 7.67477L11.6452 7.45667L11.1887 7.67477H11.1865Z" fill="#FFFF00" stroke="black" stroke-width="0.0370461"/>
<path fill-rule="evenodd" clip-rule="evenodd" d="M7.90527 7.67477L8.36392 7.89493L8.82257 7.67477L8.36392 7.45667L7.90743 7.67477H7.90527Z" fill="#FFFF00" stroke="black" stroke-width="0.0370461"/>
<path fill-rule="evenodd" clip-rule="evenodd" d="M11.8944 8.97952C11.7539 8.89048 11.5174 8.93487 11.3848 9.00762C11.2522 9.08037 11.1197 9.15312 11.1018 9.41679C10.9496 9.16343 11.0695 8.92915 11.2711 8.81848C11.3781 8.76824 11.5006 8.75706 11.6155 8.78705C11.7305 8.81703 11.83 8.88611 11.8954 8.9813L11.8944 8.97952Z" fill="#FFFF00" stroke="black" stroke-width="0.0370605"/>
<path fill-rule="evenodd" clip-rule="evenodd" d="M8.74404 8.54985C8.74404 8.58832 8.72805 8.62521 8.69958 8.65242C8.67111 8.67962 8.6325 8.69491 8.59224 8.69491C8.55197 8.69491 8.51336 8.67962 8.48489 8.65242C8.45642 8.62521 8.44043 8.58832 8.44043 8.54985C8.44043 8.51137 8.45642 8.47448 8.48489 8.44727C8.51336 8.42007 8.55197 8.40479 8.59224 8.40479C8.6325 8.40479 8.67111 8.42007 8.69958 8.44727C8.72805 8.47448 8.74404 8.51137 8.74404 8.54985Z" fill="#FFFF00" stroke="black" stroke-width="0.0370461"/>
<path fill-rule="evenodd" clip-rule="evenodd" d="M8.59097 9.05924C8.59097 9.09772 8.57497 9.13461 8.5465 9.16182C8.51803 9.18902 8.47942 9.2043 8.43916 9.2043C8.3989 9.2043 8.36029 9.18902 8.33182 9.16182C8.30335 9.13461 8.28735 9.09772 8.28735 9.05924C8.28735 9.02077 8.30335 8.98388 8.33182 8.95667C8.36029 8.92947 8.3989 8.91418 8.43916 8.91418C8.47942 8.91418 8.51803 8.92947 8.5465 8.95667C8.57497 8.98388 8.59097 9.02077 8.59097 9.05924Z" fill="#FFFF00" stroke="black" stroke-width="0.0370461"/>
<path fill-rule="evenodd" clip-rule="evenodd" d="M8.51602 8.7686C8.51602 8.80707 8.50002 8.84396 8.47155 8.87117C8.44308 8.89837 8.40447 8.91366 8.36421 8.91366C8.32395 8.91366 8.28533 8.89837 8.25687 8.87117C8.2284 8.84396 8.2124 8.80707 8.2124 8.7686C8.2124 8.73012 8.2284 8.69323 8.25687 8.66602C8.28533 8.63882 8.32395 8.62354 8.36421 8.62354C8.40447 8.62354 8.44308 8.63882 8.47155 8.66602C8.50002 8.69323 8.51602 8.73012 8.51602 8.7686Z" fill="#FFFF00" stroke="black" stroke-width="0.0370461"/>
<path fill-rule="evenodd" clip-rule="evenodd" d="M8.89724 9.05924C8.89724 9.09772 8.88125 9.13461 8.85278 9.16182C8.82431 9.18902 8.7857 9.2043 8.74543 9.2043C8.70517 9.2043 8.66656 9.18902 8.63809 9.16182C8.60962 9.13461 8.59363 9.09772 8.59363 9.05924C8.59363 9.02077 8.60962 8.98388 8.63809 8.95667C8.66656 8.92947 8.70517 8.91418 8.74543 8.91418C8.7857 8.91418 8.82431 8.92947 8.85278 8.95667C8.88125 8.98388 8.89724 9.02077 8.89724 9.05924Z" fill="#FFFF00" stroke="black" stroke-width="0.0370461"/>
<path fill-rule="evenodd" clip-rule="evenodd" d="M8.97219 8.7686C8.97219 8.80707 8.9562 8.84396 8.92773 8.87117C8.89926 8.89837 8.86065 8.91366 8.82039 8.91366C8.78012 8.91366 8.74151 8.89837 8.71304 8.87117C8.68457 8.84396 8.66858 8.80707 8.66858 8.7686C8.66858 8.73012 8.68457 8.69323 8.71304 8.66602C8.74151 8.63882 8.78012 8.62354 8.82039 8.62354C8.86065 8.62354 8.89926 8.63882 8.92773 8.66602C8.9562 8.69323 8.97219 8.73012 8.97219 8.7686Z" fill="#FFFF00" stroke="black" stroke-width="0.0370461"/>
<path fill-rule="evenodd" clip-rule="evenodd" d="M8.74404 8.84049C8.74404 8.87897 8.72805 8.91586 8.69958 8.94307C8.67111 8.97027 8.6325 8.98555 8.59224 8.98555C8.55197 8.98555 8.51336 8.97027 8.48489 8.94307C8.45642 8.91586 8.44043 8.87897 8.44043 8.84049C8.44043 8.80202 8.45642 8.76513 8.48489 8.73792C8.51336 8.71072 8.55197 8.69543 8.59224 8.69543C8.6325 8.69543 8.67111 8.71072 8.69958 8.73792C8.72805 8.76513 8.74404 8.80202 8.74404 8.84049Z" fill="#FFFF00" stroke="black" stroke-width="0.0370461"/>
<path fill-rule="evenodd" clip-rule="evenodd" d="M9.30622 3.76243C8.91872 3.76243 8.86873 3.82493 8.69373 3.8843C8.69373 3.71555 9.12498 3.51868 9.50623 3.51868C9.50623 3.64055 9.40622 3.76243 9.30622 3.76243Z" fill="#DA4500"/>
<path fill-rule="evenodd" clip-rule="evenodd" d="M9.8906 3.3749C9.8906 3.45303 9.82185 3.51865 9.73748 3.51865C9.6531 3.51865 9.58435 3.45303 9.58435 3.37178C9.58435 3.29053 9.6531 3.22803 9.73748 3.22803C9.82185 3.22803 9.8906 3.29053 9.8906 3.37178V3.3749Z" fill="#CAC9C7"/>
<path fill-rule="evenodd" clip-rule="evenodd" d="M8.28816 2.86408V3.08218H8.6693V4.17476H8.8997V3.08218H9.28083V2.86408H8.8997V2.5719H8.66714V2.86408H8.28601H8.28816Z" fill="#FFFF00" stroke="black" stroke-width="0.0370461"/>
<path fill-rule="evenodd" clip-rule="evenodd" d="M9.50937 3.5187C9.1992 3.50098 8.88849 3.54234 8.59375 3.64058C8.59375 3.41558 8.85625 3.15308 9.30625 3.15308C9.40625 3.15308 9.50937 3.39683 9.50937 3.5187Z" fill="#DA4500"/>
<path fill-rule="evenodd" clip-rule="evenodd" d="M5.53934 7.39024C5.42952 7.15352 5.43207 7.07798 5.62743 7.34882L7.9807 11.8102L7.90866 11.8305L5.54055 7.39117L5.53934 7.39024Z" fill="#008500" stroke="black" stroke-width="0.0128415"/>
<path fill-rule="evenodd" clip-rule="evenodd" d="M7.13747 10.325C7.16247 9.9938 6.55622 9.63755 6.53122 9.65942C6.50934 9.68442 6.56872 9.87817 6.68434 9.97505C6.46559 9.86255 6.23435 9.7938 6.2281 9.84067C6.20935 9.90942 6.57185 10.0657 6.6031 10.1282C6.6031 10.1719 6.33434 10.1657 6.34059 10.2094C6.34684 10.2532 7.09997 10.6344 7.13747 10.325ZM6.53122 9.36255C6.55622 9.0313 5.94997 8.67505 5.92809 8.69692C5.90309 8.7188 5.96247 8.91255 6.0781 9.01255C5.85935 8.90005 5.62809 8.82817 5.62184 8.87817C5.60622 8.9438 5.96559 9.10317 5.99684 9.16567C5.99997 9.20942 5.73122 9.20317 5.73435 9.24692C5.7406 9.29067 6.49372 9.6688 6.53122 9.36255ZM6.06872 8.48755C6.09372 8.1563 5.48747 7.80005 5.46247 7.82192C5.4406 7.8438 5.49997 8.03755 5.61559 8.13755C5.39685 8.02505 5.1656 7.95317 5.15935 8.00317C5.14372 8.0688 5.5031 8.22817 5.53435 8.29067C5.53435 8.33442 5.26872 8.32817 5.27185 8.37192C5.2781 8.41567 6.03122 8.79692 6.06872 8.48755ZM5.61247 7.53755C5.63435 7.20942 5.03122 6.85005 5.00622 6.87192C4.98122 6.89692 5.04372 7.09067 5.15622 7.19067C4.93747 7.07505 4.70622 7.0063 4.7031 7.0563C4.68435 7.12192 5.04684 7.2813 5.07497 7.34067C5.07809 7.38442 4.80935 7.3813 4.8156 7.42505C4.81872 7.4688 5.57185 7.84692 5.61247 7.53755Z" fill="#008F00"/>
<path fill-rule="evenodd" clip-rule="evenodd" d="M5.76875 7.4969C6.0625 7.31878 6.00312 6.64065 5.97187 6.6344C5.9375 6.63128 5.80937 6.79065 5.79375 6.94065C5.75937 6.70315 5.68125 6.4844 5.6375 6.5094C5.57187 6.5344 5.65 6.90628 5.61562 6.96565C5.58437 6.9969 5.42812 6.7844 5.39687 6.81565C5.35937 6.8469 5.48437 7.65003 5.77187 7.4969H5.76875ZM6.19375 8.32815C6.53125 8.25315 6.71562 7.5969 6.68437 7.58128C6.65312 7.56565 6.47812 7.67503 6.4125 7.81253C6.4625 7.57815 6.46562 7.3469 6.4125 7.35628C6.34062 7.3594 6.2875 7.7344 6.23437 7.77815C6.19375 7.7969 6.11875 7.55003 6.07812 7.56565C6.03437 7.5844 5.87187 8.38128 6.19375 8.32815ZM6.7 9.17815C7.00937 9.02815 7.0125 8.3469 6.98125 8.34065C6.95 8.33128 6.80937 8.48128 6.77812 8.62815C6.76562 8.38753 6.70937 8.16565 6.6625 8.18753C6.59375 8.20628 6.6375 8.58128 6.6 8.63753C6.5625 8.66565 6.42812 8.44065 6.39062 8.46878C6.35312 8.49378 6.40312 9.30628 6.70312 9.17815H6.7ZM7.25 10.2907C7.57187 10.1688 7.65 9.49378 7.61875 9.48128C7.5875 9.4719 7.43125 9.60628 7.38437 9.75003C7.39687 9.5094 7.36562 9.28128 7.31562 9.30003C7.24375 9.31253 7.25 9.69065 7.20625 9.74378C7.16562 9.76565 7.05625 9.53128 7.01875 9.55628C6.97812 9.57503 6.94062 10.3907 7.25 10.2907Z" fill="#008F00"/>
<path fill-rule="evenodd" clip-rule="evenodd" d="M7.95884 11.4501C7.87697 11.5903 7.61802 11.603 7.37736 11.4746C7.1367 11.3462 7.01211 11.1289 7.09399 10.9888C7.17586 10.8486 7.43669 10.837 7.67547 10.9643C7.91425 11.0917 8.04072 11.31 7.95884 11.4501Z" fill="#FF1900" stroke="black" stroke-width="0.0370602"/>
<path fill-rule="evenodd" clip-rule="evenodd" d="M14.1724 6.7565L14.2129 6.65193L14.322 6.6863L14.3625 6.58173L14.4717 6.61609L14.4317 6.71919L14.544 6.75454L14.5029 6.86058L14.3906 6.82523L14.2896 7.08592L14.1805 7.05156L14.2815 6.79087L14.1724 6.7565ZM13.938 7.6775L14.0471 7.71187L12.8745 10.7385L12.7654 10.7041L13.938 7.6775Z" fill="#FFFF00" stroke="black" stroke-width="0.0128539"/>
<path fill-rule="evenodd" clip-rule="evenodd" d="M12.7292 10.6349L12.9506 10.7046L12.627 11.5397L12.4056 11.4699L12.7292 10.6349ZM14.0309 7.12171L14.3629 7.22628C14.5827 7.2955 14.0842 7.783 14.0842 7.783L13.8644 7.71378C13.8644 7.71378 13.8095 7.05199 14.0309 7.12171ZM14.336 7.12858C14.3189 7.17277 14.2569 7.19289 14.1961 7.17375C14.1353 7.1546 14.0991 7.10354 14.1157 7.06083C14.1322 7.01812 14.1948 6.99652 14.2556 7.01567C14.3164 7.03481 14.3526 7.08587 14.3355 7.13005L14.336 7.12858Z" fill="#FFFF00" stroke="black" stroke-width="0.0128539"/>
<path fill-rule="evenodd" clip-rule="evenodd" d="M12.9069 11.0687C12.9996 11.2025 12.8926 11.4282 12.6628 11.5737C12.433 11.7191 12.1738 11.7252 12.0811 11.5914C11.9883 11.4576 12.0971 11.2308 12.3251 11.0865C12.5531 10.9422 12.8142 10.9349 12.9069 11.0687Z" fill="#FF1900" stroke="black" stroke-width="0.0370626"/>
</g>
<defs>
<clipPath id="clip0_14_412">
<rect width="20" height="15" fill="white"/>
</clipPath>
</defs>
</svg>
