<svg width="20" height="15" viewBox="0 0 20 15" fill="none" xmlns="http://www.w3.org/2000/svg">
<mask id="mask0_1825_43300" style="mask-type:luminance" maskUnits="userSpaceOnUse" x="0" y="0" width="20" height="15">
<rect width="20" height="15" fill="white"/>
</mask>
<g mask="url(#mask0_1825_43300)">
<path fill-rule="evenodd" clip-rule="evenodd" d="M0 0H20V15H0V0Z" fill="#E8AA00"/>
<path fill-rule="evenodd" clip-rule="evenodd" d="M2 2H18V13H2V2Z" fill="#C51918"/>
<mask id="mask1_1825_43300" style="mask-type:luminance" maskUnits="userSpaceOnUse" x="2" y="2" width="16" height="11">
<path fill-rule="evenodd" clip-rule="evenodd" d="M2 2H18V13H2V2Z" fill="white"/>
</mask>
<g mask="url(#mask1_1825_43300)">
<path fill-rule="evenodd" clip-rule="evenodd" d="M12.6442 9.84463C12.8991 9.84463 13.1057 9.63287 13.1057 9.37165C13.1057 9.11044 12.8991 8.89868 12.6442 8.89868C12.3893 8.89868 12.1826 9.11044 12.1826 9.37165C12.1826 9.63287 12.3893 9.84463 12.6442 9.84463Z" fill="#1E5E91"/>
<path fill-rule="evenodd" clip-rule="evenodd" d="M6.64212 7.70742C5.43134 6.30026 7.16666 3.85828 7.16666 3.85828C7.16666 3.85828 7.42609 5.31675 8.38631 6.29816C8.38631 6.36784 8.29563 6.47066 8.20383 6.57476C8.13972 6.64746 8.07506 6.72078 8.04034 6.78388C7.95592 6.93733 8.24575 7.02479 8.38631 7.02479C8.44939 7.02479 8.48425 7.11628 8.51571 7.19886C8.55434 7.30026 8.58785 7.38821 8.66223 7.27679C8.79717 7.07462 8.52729 6.63043 8.52729 6.63043L8.95452 6.17981L9.099 5.88851H8.95452V5.58861L8.85328 5.67174C8.85328 5.67174 8.7422 5.40359 8.52729 5.40359C8.31238 5.40359 8.24575 5.28097 8.24575 5.28097H8.52729C8.66827 5.28097 8.50476 5.09416 8.38631 4.99685C8.33321 4.95323 8.25267 4.96827 8.17995 4.98185C8.09044 4.99856 8.01279 5.01305 8.01279 4.91323C8.01279 4.80381 8.09799 4.78931 8.19643 4.77256C8.26076 4.76161 8.33075 4.7497 8.38631 4.7097C8.47819 4.64354 8.60204 4.66388 8.7361 4.6859C8.80712 4.69757 8.881 4.7097 8.95452 4.7097H9.30262C9.42832 4.7097 9.099 4.91323 9.099 4.91323L9.30262 5.09416L9.60542 5.40359L9.45399 5.49347L9.76645 5.79647C9.76645 5.79647 9.66038 5.96892 9.76645 5.96892C9.81017 5.96892 9.83894 6.00475 9.85765 6.04687C9.87636 6.00475 9.90513 5.96892 9.94885 5.96892C10.0549 5.96892 9.94885 5.79647 9.94885 5.79647L10.2613 5.49347L10.1099 5.40359L10.4127 5.09416L10.6163 4.91323C10.6163 4.91323 10.287 4.7097 10.4127 4.7097H10.7608C10.8343 4.7097 10.9082 4.69757 10.9792 4.6859C11.1133 4.66388 11.2371 4.64354 11.329 4.7097C11.3845 4.7497 11.4545 4.76161 11.5189 4.77256C11.6173 4.78931 11.7025 4.80381 11.7025 4.91323C11.7025 5.01305 11.6249 4.99856 11.5354 4.98185C11.4626 4.96827 11.3821 4.95323 11.329 4.99685C11.2105 5.09416 11.047 5.28097 11.188 5.28097H11.4695C11.4695 5.28097 11.4029 5.40359 11.188 5.40359C10.9731 5.40359 10.862 5.67174 10.862 5.67174L10.7608 5.58861V5.88851H10.6163L10.7608 6.17981L11.188 6.63043C11.188 6.63043 10.9181 7.07462 11.0531 7.27679C11.1274 7.38821 11.161 7.30026 11.1996 7.19886C11.2311 7.11628 11.2659 7.02479 11.329 7.02479C11.4695 7.02479 11.7594 6.93733 11.675 6.78388C11.6402 6.72078 11.5756 6.64746 11.5115 6.57476C11.4197 6.47066 11.329 6.36784 11.329 6.29816C12.2892 5.31675 12.5486 3.85828 12.5486 3.85828C12.5486 3.85828 14.284 6.30026 13.0732 7.70742C11.8624 9.11457 10.9731 8.69025 10.9731 8.69025L11.4695 9.13543L11.329 9.25707H11.7426L11.5905 9.35877L11.7025 9.40781L11.821 9.45972C11.821 9.45972 11.5015 9.69469 11.821 9.69469C11.8715 9.69469 11.9249 9.69321 11.9799 9.69168C12.0402 9.69 12.1024 9.68827 12.1645 9.68839C12.1812 9.68843 12.1438 9.59633 12.1067 9.50501C12.0701 9.41489 12.0338 9.32554 12.0502 9.32624C12.0847 9.32772 12.1526 9.40964 12.2207 9.49184C12.275 9.55737 12.3294 9.62308 12.3672 9.64837C12.3916 9.66466 12.4867 9.63162 12.5748 9.60101C12.6494 9.57512 12.7189 9.55097 12.7364 9.55983C12.8107 9.59733 12.7917 9.67322 12.7737 9.74548C12.769 9.76406 12.7644 9.7824 12.7615 9.79978C12.7588 9.81559 12.854 9.75385 12.9541 9.68891C13.0592 9.62072 13.1698 9.549 13.1782 9.55983C13.18 9.56211 13.1819 9.56442 13.1839 9.56681C13.2196 9.60981 13.2772 9.67909 12.8522 10.0067C12.8522 10.0696 12.8544 10.121 12.8562 10.1628C12.8621 10.2968 12.8636 10.3315 12.7728 10.3315C12.7323 10.3315 12.6758 10.3516 12.6102 10.3748C12.4421 10.4344 12.2151 10.5149 12.0502 10.3315C11.821 10.0767 11.4695 9.69469 11.4695 9.69469V9.88243L11.0531 9.45972L10.9731 9.69469L10.4127 9.051L10.2613 9.13543C10.2613 9.13543 10.7772 10.559 11.0531 10.5689C11.1902 10.5738 10.982 10.7069 10.7062 10.8831C10.427 11.0616 10.0785 11.2843 9.94885 11.4632C9.91026 11.5164 9.88045 11.4352 9.85765 11.2587C9.83485 11.4352 9.80504 11.5164 9.76645 11.4632C9.63682 11.2843 9.28833 11.0616 9.00912 10.8831C8.73332 10.7069 8.52512 10.5738 8.66223 10.5689C8.93815 10.559 9.45399 9.13543 9.45399 9.13543L9.30262 9.051L8.7422 9.69469L8.66223 9.45972L8.24575 9.88243V9.69469C8.24575 9.69469 7.89427 10.0767 7.6651 10.3315C7.50022 10.5149 7.2732 10.4344 7.10509 10.3748C7.03954 10.3516 6.98295 10.3315 6.9425 10.3315C6.79832 10.3315 6.75006 10.1298 6.9425 9.88243C7.10456 9.67414 7.44202 9.68352 7.73536 9.69168C7.79036 9.69321 7.84382 9.69469 7.89427 9.69469C8.2138 9.69469 7.89427 9.45972 7.89427 9.45972L8.01279 9.40781L8.12476 9.35877L7.97267 9.25707H8.38631L8.24575 9.13543L8.7422 8.69025C8.7422 8.69025 7.85289 9.11457 6.64212 7.70742Z" fill="#F6C540"/>
<path fill-rule="evenodd" clip-rule="evenodd" d="M7.77064 10.6439L7.22369 9.68505C7.22369 9.68505 6.50858 8.03624 6.50858 7.83605C6.50858 7.63587 6.2207 7.04306 6.2207 7.21514C6.2207 7.38722 6.2207 7.83605 6.2207 7.83605L7.42725 10.5542V10.7683H7.58973L7.77064 10.6439Z" fill="#F6C540"/>
<path d="M12.1511 9.3531L12.2343 9.0769L13.2505 9.38305L13.1673 9.65925L12.1511 9.3531Z" fill="#F6C540"/>
<path d="M12.6923 8.85022L12.9671 8.94017L12.6986 9.80143L12.4238 9.71148L12.6923 8.85022Z" fill="#F6C540"/>
<path fill-rule="evenodd" clip-rule="evenodd" d="M12.9481 8.56937L12.8891 8.55591L12.8651 8.65092L12.7565 8.62427L12.7432 8.68225L12.8505 8.7086L12.8231 8.8169L12.8822 8.83036L12.9093 8.72304L13.0161 8.74927L13.0294 8.69128L12.9239 8.66536L12.9481 8.56937Z" fill="#F6C540"/>
<path fill-rule="evenodd" clip-rule="evenodd" d="M9.80881 3.26404L9.83851 3.36767H9.92875L9.95846 3.26404C10.0335 3.28664 10.1017 3.31236 10.1627 3.34107L10.1648 3.31838C10.6472 3.36244 10.8975 3.56437 10.8707 3.91939C10.8485 4.21326 10.6998 4.36722 10.4517 4.36328V4.58279C10.4517 4.58279 10.0479 4.73782 9.84595 4.73782C9.64403 4.73782 9.24018 4.58279 9.24018 4.58279V4.35957C9.03594 4.33431 8.91398 4.18325 8.89404 3.91939C8.86721 3.56437 9.11754 3.36244 9.59993 3.31838L9.60214 3.3422C9.66381 3.31303 9.73273 3.28694 9.80881 3.26404ZM9.29811 4.16672C9.27092 4.17433 9.25181 4.17994 9.24404 4.18225C9.13329 4.16148 9.07923 4.07299 9.06667 3.90675C9.05397 3.73868 9.13293 3.62175 9.31912 3.55431C9.19209 3.71689 9.18277 3.92369 9.29811 4.16672ZM9.47007 4.12192C9.57186 4.09747 9.68962 4.07315 9.78397 4.0648V3.45813C9.39658 3.59408 9.30351 3.80207 9.47007 4.12192ZM9.95704 4.07025C10.0869 4.08727 10.2445 4.12627 10.3464 4.1537L10.2953 4.12552C10.4682 3.7965 10.3679 3.58539 9.95704 3.44917V4.07025ZM10.4491 3.55559C10.5787 3.72249 10.5846 3.93583 10.4593 4.18702C10.6119 4.18931 10.6834 4.10124 10.6981 3.90675C10.7107 3.73974 10.6328 3.62322 10.4491 3.55559Z" fill="#F6C540"/>
<path fill-rule="evenodd" clip-rule="evenodd" d="M9.84597 3.4495C9.95749 3.4495 10.0479 3.3591 10.0479 3.24758C10.0479 3.13606 9.95749 3.04565 9.84597 3.04565C9.73445 3.04565 9.64404 3.13606 9.64404 3.24758C9.64404 3.3591 9.73445 3.4495 9.84597 3.4495Z" fill="#3D58DB"/>
<path fill-rule="evenodd" clip-rule="evenodd" d="M9.87425 2.81138L9.81368 2.8126L9.81338 2.9106L9.7016 2.911L9.70268 2.97049L9.81319 2.9701L9.81284 3.08179L9.87341 3.08057L9.87375 2.96988L9.98372 2.96949L9.98263 2.91L9.87394 2.91039L9.87425 2.81138Z" fill="#F6C540"/>
<path fill-rule="evenodd" clip-rule="evenodd" d="M8.72094 6.47464C8.72094 6.47464 9.432 6.34045 9.8171 6.34045C10.1628 6.34045 10.9133 6.47464 10.9133 6.47464C10.9133 7.32467 11.1525 7.84508 10.9133 8.42565C10.674 9.00623 10.0895 8.72715 9.8249 9.28272C9.48677 8.75575 9.03012 9.04582 8.72094 8.29543C8.41177 7.54504 8.9089 7.19943 8.72094 6.47464Z" fill="#1E5E91"/>
<mask id="mask2_1825_43300" style="mask-type:luminance" maskUnits="userSpaceOnUse" x="8" y="6" width="4" height="4">
<path fill-rule="evenodd" clip-rule="evenodd" d="M8.72094 6.47464C8.72094 6.47464 9.432 6.34045 9.8171 6.34045C10.1628 6.34045 10.9133 6.47464 10.9133 6.47464C10.9133 7.32467 11.1525 7.84508 10.9133 8.42565C10.674 9.00623 10.0895 8.72715 9.8249 9.28272C9.48677 8.75575 9.03012 9.04582 8.72094 8.29543C8.41177 7.54504 8.9089 7.19943 8.72094 6.47464Z" fill="white"/>
</mask>
<g mask="url(#mask2_1825_43300)">
<rect x="8.72095" y="8.24829" width="2.19231" height="1.06419" fill="#5EAA22"/>
<path fill-rule="evenodd" clip-rule="evenodd" d="M9.36922 6.89357C9.28544 6.71553 9.80941 6.69482 9.80941 6.69482C9.80941 6.69482 9.9224 6.89357 9.80941 7.17638C9.72723 7.38205 9.86428 7.36371 10.0534 7.3384C10.1243 7.32891 10.2025 7.31844 10.2793 7.31844C10.3968 7.31844 10.4587 7.30982 10.51 7.32913C10.5816 7.35603 10.6329 7.43716 10.786 7.67144C10.856 7.77842 10.8529 7.84886 10.8107 7.89099C10.8143 7.99981 10.6959 8.09002 10.477 8.14777L10.4482 8.03326C10.564 8.00272 10.6349 7.9735 10.6678 7.94122C10.5028 7.95127 10.2793 7.86972 10.2793 7.76496C10.2793 7.61003 9.75116 7.64265 9.43337 7.66228C9.35242 7.66728 9.28511 7.67144 9.24366 7.67144C9.05883 7.67144 9.20054 7.44557 9.32951 7.24001C9.34301 7.21848 9.35638 7.19718 9.36922 7.17638C9.43545 7.06906 9.45694 7.04166 9.4518 7.02084C9.44643 6.99909 9.41202 6.98452 9.36922 6.89357ZM10.6262 6.86601C10.3096 6.81576 10.132 6.86437 10.132 7.0415C10.132 7.21009 10.3005 7.2832 10.6087 7.28207C10.6207 7.28599 10.6313 7.28985 10.6403 7.29358C10.6288 7.29904 10.6147 7.30481 10.5982 7.31077L10.6365 7.42231C10.8308 7.35223 10.8308 7.22755 10.6341 7.16633L10.6257 7.16371L10.6169 7.16378C10.3607 7.1659 10.2474 7.11785 10.2474 7.0415C10.2474 6.97204 10.3549 6.94261 10.6085 6.98286L10.6262 6.86601Z" fill="#F6C540"/>
</g>
</g>
</g>
</svg>
