<svg width="20" height="15" viewBox="0 0 20 15" fill="none" xmlns="http://www.w3.org/2000/svg">
<g clip-path="url(#clip0_14_344)">
<path fill-rule="evenodd" clip-rule="evenodd" d="M0 0H19.9969V15H0V0Z" fill="#3B5AA3"/>
<path fill-rule="evenodd" clip-rule="evenodd" d="M0 14.5938L19.9969 0V2.71875L0 15V14.5938Z" fill="#E2AE57"/>
<path fill-rule="evenodd" clip-rule="evenodd" d="M0.7 15L20 5.59998L19.9969 2.6156L0 15H0.7ZM5.48125 0.474976L5.28125 3.68748L4.4375 1.63748L4.7625 3.81873L3.45312 2.05623L4.3125 4.0656L2.59375 2.73435L3.93125 4.40935L1.99063 3.54685L3.69062 4.83435L1.575 4.5531L3.575 5.34685L0.4375 5.63435L3.58125 5.84373L1.59063 6.66248L3.68438 6.38123L1.9875 7.63123L3.95625 6.76873L2.6125 8.45623L4.31875 7.1656L3.475 9.13123L4.8375 7.42185L4.46875 9.54998L5.32812 7.55935L5.52187 10.7062L5.825 7.56873L6.56563 9.56873L6.28438 7.41248L7.64062 9.12498L6.74687 7.12498L8.45312 8.49998L7.09688 6.78435L9.125 7.6281L7.33125 6.31873L9.51562 6.68748L7.42188 5.88435L10.675 5.68123L7.425 5.3781L9.56563 4.6656L7.34688 4.94685L9.17813 3.6656L7.11562 4.49373L8.54062 2.7656L6.80312 4.12185L7.6375 2.04685L6.29063 3.80935L6.58125 1.60935L5.77812 3.68748L5.47813 0.474976H5.48125Z" fill="white"/>
</g>
<defs>
<clipPath id="clip0_14_344">
<rect width="20" height="15" fill="white"/>
</clipPath>
</defs>
</svg>
