<svg width="20" height="15" viewBox="0 0 20 15" fill="none" xmlns="http://www.w3.org/2000/svg">
<g clip-path="url(#clip0_14_396)">
<path d="M0 0H20V15H0V0Z" fill="#DA2032"/>
<path d="M6.66565 0H13.3344V15H6.66565V0Z" fill="#0066B3"/>
<path d="M3.33435 6.93127C4.02471 6.93127 4.58435 6.37163 4.58435 5.68127C4.58435 4.99092 4.02471 4.43127 3.33435 4.43127C2.64399 4.43127 2.08435 4.99092 2.08435 5.68127C2.08435 6.37163 2.64399 6.93127 3.33435 6.93127Z" fill="#FFD900"/>
<path d="M3.33442 6.475C4.08691 6.475 4.69692 5.86499 4.69692 5.1125C4.69692 4.36001 4.08691 3.75 3.33442 3.75C2.58194 3.75 1.97192 4.36001 1.97192 5.1125C1.97192 5.86499 2.58194 6.475 3.33442 6.475Z" fill="#DA2032"/>
<path d="M3.33442 6.25002C3.83666 6.25002 4.2438 5.84288 4.2438 5.34065C4.2438 4.83842 3.83666 4.43127 3.33442 4.43127C2.83219 4.43127 2.42505 4.83842 2.42505 5.34065C2.42505 5.84288 2.83219 6.25002 3.33442 6.25002Z" fill="#FFD900"/>
<path d="M3.4281 2.38745C3.38197 2.40764 3.34234 2.44024 3.31365 2.48162C3.28496 2.523 3.26832 2.57154 3.2656 2.62183C3.25935 2.69995 3.29373 2.78745 3.29685 2.86245C3.29685 2.9937 3.16248 3.03745 3.16248 3.22183C3.16248 3.28433 3.22185 3.3562 3.22185 3.52183C3.20935 3.60933 3.15935 3.6312 3.10623 3.63745C3.09119 3.63746 3.0763 3.63445 3.06244 3.6286C3.04858 3.62275 3.03604 3.61418 3.02555 3.6034C3.01506 3.59262 3.00684 3.57985 3.00138 3.56584C2.99591 3.55183 2.99331 3.53686 2.99373 3.52183C2.99364 3.49272 3.00485 3.46472 3.02498 3.4437C3.02892 3.44029 3.0331 3.43716 3.03748 3.43433C3.06248 3.4062 3.09998 3.39683 3.09998 3.32808C3.09998 3.2937 3.07498 3.25933 3.0531 3.19683C3.03123 3.13433 3.04685 3.03433 3.09685 2.97495C3.0156 3.0062 2.96873 3.0812 2.9406 3.14995C2.9156 3.23433 2.9406 3.2812 2.9031 3.35308C2.88123 3.39683 2.85623 3.41558 2.83123 3.45308C2.79998 3.49683 2.76873 3.59058 2.76873 3.63745C2.77936 3.78061 2.84373 3.91444 2.94893 4.01212C3.05412 4.10979 3.19236 4.16407 3.33591 4.16407C3.47946 4.16407 3.6177 4.10979 3.7229 4.01212C3.8281 3.91444 3.89247 3.78061 3.9031 3.63745C3.9031 3.59058 3.86873 3.49683 3.8406 3.45308C3.81248 3.41558 3.78748 3.39683 3.7656 3.35308C3.7281 3.2812 3.7531 3.23433 3.72498 3.14995C3.69998 3.0812 3.6531 3.0062 3.57185 2.97495C3.62185 3.03745 3.63435 3.13745 3.6156 3.19683C3.59373 3.25933 3.57185 3.29058 3.57185 3.32808C3.57185 3.39683 3.60623 3.4062 3.63435 3.43433C3.63766 3.43726 3.64079 3.44039 3.64373 3.4437C3.66386 3.46472 3.67506 3.49272 3.67498 3.52183C3.67539 3.53686 3.67279 3.55183 3.66733 3.56584C3.66186 3.57985 3.65364 3.59262 3.64315 3.6034C3.63266 3.61418 3.62012 3.62275 3.60626 3.6286C3.5924 3.63445 3.57752 3.63746 3.56248 3.63745C3.49998 3.62808 3.4531 3.59995 3.44685 3.52183C3.44685 3.30308 3.5406 3.29058 3.5406 3.12808C3.5406 2.89683 3.33435 2.78745 3.33435 2.6187C3.33435 2.56245 3.34685 2.46245 3.4281 2.38745ZM0.834351 7.1562H1.96873V12.6093H0.834351V7.1562ZM4.69685 7.1562H5.83435V12.6093H4.69685V7.1562ZM2.19685 7.1562H4.46873L3.33435 7.83745L2.19685 7.1562ZM2.19685 8.06245H4.46873V8.5187H2.19685V8.06245ZM2.19685 11.2468H4.46873V11.7031H2.19685V11.2468ZM2.19685 11.9281H4.46873L3.33435 12.6093L2.19685 11.9281Z" fill="#FFD900"/>
<path d="M3.3344 11.025C3.96262 11.025 4.4719 10.5157 4.4719 9.8875C4.4719 9.25928 3.96262 8.75 3.3344 8.75C2.70618 8.75 2.1969 9.25928 2.1969 9.8875C2.1969 10.5157 2.70618 11.025 3.3344 11.025Z" fill="#FFD900"/>
<path d="M3.33298 9.51057C3.4585 9.51057 3.56026 9.40882 3.56026 9.2833C3.56026 9.15778 3.4585 9.05603 3.33298 9.05603C3.20747 9.05603 3.10571 9.15778 3.10571 9.2833C3.10571 9.40882 3.20747 9.51057 3.33298 9.51057Z" fill="#DA2032"/>
<path d="M3.33298 10.715C3.4585 10.715 3.56026 10.6133 3.56026 10.4878C3.56026 10.3623 3.4585 10.2605 3.33298 10.2605C3.20747 10.2605 3.10571 10.3623 3.10571 10.4878C3.10571 10.6133 3.20747 10.715 3.33298 10.715Z" fill="#DA2032"/>
<path d="M3.33293 8.61279C3.51074 8.61279 3.68127 8.68343 3.80701 8.80916C3.93274 8.9349 4.00338 9.10543 4.00338 9.28325C4.00338 9.46106 3.93274 9.63159 3.80701 9.75733C3.68127 9.88306 3.51074 9.9537 3.33293 9.9537C3.19128 9.9537 3.05543 10.01 2.95527 10.1101C2.85511 10.2103 2.79884 10.3461 2.79884 10.4878C2.79884 10.6294 2.85511 10.7653 2.95527 10.8654C3.05543 10.9656 3.19128 11.0219 3.33293 11.0219V11.1582C3.15511 11.1582 2.98458 11.0876 2.85885 10.9619C2.73311 10.8361 2.66248 10.6656 2.66248 10.4878C2.66248 10.31 2.73311 10.1394 2.85885 10.0137C2.98458 9.88797 3.15511 9.81733 3.33293 9.81733C3.47458 9.81733 3.61042 9.76106 3.71059 9.6609C3.81075 9.56074 3.86702 9.42489 3.86702 9.28325C3.86702 9.1416 3.81075 9.00575 3.71059 8.90559C3.61042 8.80543 3.47458 8.74916 3.33293 8.74916V8.61279Z" fill="#DA2032"/>
</g>
<defs>
<clipPath id="clip0_14_396">
<rect width="20" height="15" fill="white"/>
</clipPath>
</defs>
</svg>
