<svg width="20" height="15" viewBox="0 0 20 15" fill="none" xmlns="http://www.w3.org/2000/svg">
<g clip-path="url(#clip0_14_429)">
<path d="M0 0H20V15H0V0Z" fill="#00785E"/>
<path d="M9.21875 3.39687L10.4844 4.31875L10 2.82812L9.51562 4.31875L10.7844 3.39687H9.21875Z" fill="#FBD116"/>
<path d="M9.99998 10.3624H6.79685C6.75649 10.3215 6.71689 10.2798 6.6781 10.2374H9.99998C10.0129 10.242 10.024 10.2505 10.0319 10.2617C10.0397 10.2729 10.0439 10.2862 10.0437 10.2999C10.0437 10.3249 10.0281 10.3531 9.99998 10.3624ZM9.99998 9.3843C10.0362 9.31073 10.0492 9.22794 10.0375 9.1468C10.0315 9.10546 10.0188 9.06535 9.99998 9.02805C9.71206 9.30205 9.36436 9.50533 8.98435 9.6218C8.74627 9.69416 8.49881 9.73101 8.24998 9.73118H6.2781C6.33565 9.81655 6.3961 9.89994 6.45935 9.98118H8.3656C8.9906 9.98118 9.55935 9.75618 9.99998 9.3843ZM6.57498 8.61243C6.47775 8.64872 6.3755 8.6698 6.27185 8.67493C6.50934 8.9449 6.80163 9.16118 7.12924 9.30936C7.45686 9.45754 7.81228 9.53423 8.17185 9.5343C8.51355 9.53438 8.85172 9.46519 9.16593 9.33092C9.48014 9.19664 9.76387 9.00006 9.99998 8.75305C10.0878 8.14438 10.1348 7.5305 10.1406 6.91555C10.1481 6.20778 10.1011 5.50048 9.99998 4.79993C9.79373 4.98743 9.40623 5.3843 9.22498 5.9968C9.157 6.23134 9.12331 6.47449 9.12498 6.71868C9.12487 7.21954 9.27391 7.70909 9.5531 8.12493C9.20909 7.68264 9.02217 7.13838 9.02185 6.57805C9.02185 6.19055 9.10935 5.8218 9.2656 5.49368C9.15685 5.3784 9.07658 5.23927 9.03123 5.08743C8.81513 5.46852 8.70204 5.89933 8.7031 6.33743C8.7031 6.89993 8.88748 7.4218 9.19998 7.84055C8.90605 7.53168 8.54903 7.28974 8.15323 7.1312C7.75742 6.97266 7.33211 6.90124 6.90623 6.9218C6.99257 7.00156 7.06447 7.09565 7.11873 7.19993C7.51957 7.20041 7.91617 7.28206 8.2846 7.43996C8.65304 7.59786 8.98568 7.82874 9.26248 8.11868C8.72823 7.67077 8.05339 7.42518 7.35623 7.42493C6.96259 7.42418 6.57274 7.50173 6.20935 7.65305C6.40423 8.16828 6.76149 8.60611 7.22715 8.90039C7.69281 9.19467 8.24159 9.32942 8.7906 9.2843C8.64373 9.3093 8.49373 9.32493 8.3406 9.32493C7.68271 9.32611 7.05035 9.07047 6.5781 8.61243H6.57498ZM9.99998 11.3874H8.3406C8.86874 11.5968 9.43185 11.7039 9.99998 11.7031C10.0257 11.6549 10.0397 11.6014 10.0406 11.5468C10.0402 11.4912 10.0262 11.4365 9.99998 11.3874ZM9.99998 10.6218H7.07498C7.15396 10.6892 7.23526 10.7538 7.31873 10.8156H9.99998C10.0253 10.7895 10.0398 10.7549 10.0406 10.7187C10.0413 10.7005 10.038 10.6825 10.031 10.6658C10.0239 10.649 10.0134 10.634 9.99998 10.6218ZM9.99998 11.0124H7.6031C7.74819 11.1043 7.89844 11.1878 8.0531 11.2624H9.99998C10.025 11.2233 10.0381 11.1777 10.0375 11.1312C10.0359 11.0889 10.023 11.0479 9.99998 11.0124Z" fill="white"/>
<path d="M6.26562 5.46245L7.05937 6.19995L6.85 5.13745L6.39375 6.1187L7.34062 5.5937L6.26562 5.46245ZM7.41875 4.46245L8.50313 4.4812L7.6375 3.82495L7.95312 4.86558L8.30625 3.83745L7.41875 4.46245Z" fill="#FBD116"/>
<path d="M10 10.3624H13.2031C13.2435 10.3215 13.2831 10.2798 13.3219 10.2374H10C9.98713 10.242 9.97598 10.2505 9.96813 10.2617C9.96029 10.2729 9.95614 10.2862 9.95627 10.2999C9.95627 10.3249 9.9719 10.3531 10 10.3624ZM10 9.3843C9.96385 9.31073 9.95077 9.22794 9.96252 9.1468C9.96854 9.10546 9.9812 9.06535 10 9.02805C10.2879 9.30205 10.6356 9.50533 11.0156 9.6218C11.2537 9.69416 11.5012 9.73101 11.75 9.73118H13.7219C13.6644 9.81655 13.6039 9.89994 13.5406 9.98118H11.6344C11.0094 9.98118 10.4406 9.75618 10 9.3843ZM13.425 8.61243C13.5223 8.64872 13.6245 8.6698 13.7281 8.67493C13.4907 8.9449 13.1984 9.16118 12.8708 9.30936C12.5431 9.45754 12.1877 9.53423 11.8281 9.5343C11.4865 9.53438 11.1483 9.46519 10.8341 9.33092C10.5199 9.19664 10.2361 9.00006 10 8.75305C9.9122 8.14438 9.86522 7.5305 9.8594 6.91555C9.85188 6.20778 9.89889 5.50048 10 4.79993C10.2063 4.98743 10.5938 5.3843 10.775 5.9968C10.843 6.23134 10.8767 6.47449 10.875 6.71868C10.8751 7.21954 10.7261 7.70909 10.4469 8.12493C10.7909 7.68264 10.9778 7.13838 10.9781 6.57805C10.9781 6.19055 10.8906 5.8218 10.7344 5.49368C10.8432 5.3784 10.9234 5.23927 10.9688 5.08743C11.1849 5.46852 11.298 5.89933 11.2969 6.33743C11.2969 6.89993 11.1125 7.4218 10.8 7.84055C11.094 7.53168 11.451 7.28974 11.8468 7.1312C12.2426 6.97266 12.6679 6.90124 13.0938 6.9218C13.0074 7.00156 12.9355 7.09565 12.8813 7.19993C12.4804 7.20041 12.0838 7.28206 11.7154 7.43996C11.347 7.59786 11.0143 7.82874 10.7375 8.11868C11.2718 7.67077 11.9466 7.42518 12.6438 7.42493C13.0374 7.42418 13.4273 7.50173 13.7906 7.65305C13.5958 8.16828 13.2385 8.60611 12.7728 8.90039C12.3072 9.19467 11.7584 9.32942 11.2094 9.2843C11.3563 9.3093 11.5063 9.32493 11.6594 9.32493C12.3173 9.32611 12.9497 9.07047 13.4219 8.61243H13.425ZM10 11.3874H11.6594C11.1313 11.5968 10.5681 11.7039 10 11.7031C9.97427 11.6549 9.96035 11.6014 9.9594 11.5468C9.95985 11.4912 9.97379 11.4365 10 11.3874ZM10 10.6218H12.925C12.846 10.6892 12.7647 10.7538 12.6813 10.8156H10C9.97475 10.7895 9.96024 10.7549 9.9594 10.7187C9.95874 10.7005 9.96203 10.6825 9.96904 10.6658C9.97606 10.649 9.98663 10.634 10 10.6218ZM10 11.0124H12.3969C12.2518 11.1043 12.1016 11.1878 11.9469 11.2624H10C9.97495 11.2233 9.96191 11.1777 9.96252 11.1312C9.96409 11.0889 9.97705 11.0479 10 11.0124Z" fill="white"/>
<path d="M13.7344 5.46245L12.9406 6.19995L13.15 5.13745L13.6062 6.1187L12.6594 5.5937L13.7344 5.46245ZM12.5813 4.46245L11.4969 4.4812L12.3625 3.82495L12.0469 4.86558L11.6938 3.83745L12.5813 4.46245Z" fill="#FBD116"/>
</g>
<defs>
<clipPath id="clip0_14_429">
<rect width="20" height="15" fill="white"/>
</clipPath>
</defs>
</svg>
