<svg width="20" height="15" viewBox="0 0 20 15" fill="none" xmlns="http://www.w3.org/2000/svg">
<mask id="mask0_1825_43423" style="mask-type:luminance" maskUnits="userSpaceOnUse" x="0" y="0" width="20" height="15">
<rect width="20" height="15" fill="white"/>
</mask>
<g mask="url(#mask0_1825_43423)">
<path fill-rule="evenodd" clip-rule="evenodd" d="M0 0V15H20V0H0Z" fill="#1C9975"/>
<mask id="mask1_1825_43423" style="mask-type:luminance" maskUnits="userSpaceOnUse" x="0" y="0" width="20" height="15">
<path fill-rule="evenodd" clip-rule="evenodd" d="M0 0V15H20V0H0Z" fill="white"/>
</mask>
<g mask="url(#mask1_1825_43423)">
<path fill-rule="evenodd" clip-rule="evenodd" d="M10.0135 4.28358L8.9924 4.9L9.22531 3.69712L8.375 2.79687L9.52636 2.7482L10.0135 1.625L10.5006 2.7482H11.65L10.8017 3.69712L11.0571 4.9L10.0135 4.28358Z" fill="#FECA00"/>
<path fill-rule="evenodd" clip-rule="evenodd" d="M7.11418 4.74029L6.48283 5.12144L6.62684 4.37767L6.10107 3.82103L6.81298 3.79093L7.11418 3.09644L7.41538 3.79093H8.12607L7.60152 4.37767L7.75944 5.12144L7.11418 4.74029Z" fill="#FECA00"/>
<path fill-rule="evenodd" clip-rule="evenodd" d="M12.8632 4.74029L12.2319 5.12144L12.3759 4.37767L11.8501 3.82103L12.562 3.79093L12.8632 3.09644L13.1644 3.79093H13.8751L13.3505 4.37767L13.5085 5.12144L12.8632 4.74029Z" fill="#FECA00"/>
<path fill-rule="evenodd" clip-rule="evenodd" d="M5.479 6.00664L4.97236 6.3125L5.08792 5.71565L4.66602 5.26896L5.2373 5.24481L5.479 4.6875L5.7207 5.24481H6.29102L5.87008 5.71565L5.99681 6.3125L5.479 6.00664Z" fill="#FECA00"/>
<path fill-rule="evenodd" clip-rule="evenodd" d="M14.7256 6.00664L14.2189 6.3125L14.3345 5.71565L13.9126 5.26896L14.4839 5.24481L14.7256 4.6875L14.9673 5.24481H15.5376L15.1167 5.71565L15.2434 6.3125L14.7256 6.00664Z" fill="#FECA00"/>
<mask id="mask2_1825_43423" style="mask-type:luminance" maskUnits="userSpaceOnUse" x="5" y="3" width="10" height="11">
<path fill-rule="evenodd" clip-rule="evenodd" d="M10 13.75C12.7614 13.75 15 11.5114 15 8.75C15 5.98858 12.7614 3.75 10 3.75C7.23858 3.75 5 5.98858 5 8.75C5 11.5114 7.23858 13.75 10 13.75Z" fill="white"/>
</mask>
<g mask="url(#mask2_1825_43423)">
<path fill-rule="evenodd" clip-rule="evenodd" d="M7.92529 13.1649H12.0742V13.8351H7.92529V13.1649Z" fill="#F7FCFF"/>
<path fill-rule="evenodd" clip-rule="evenodd" d="M6.22363 12.1625H14.2024V12.7768H6.22363V12.1625Z" fill="#F7FCFF"/>
<path d="M7.88771 11.8879H5.44727V11.2629L7.88332 11.2629C8.74626 11.2508 9.37683 11.0043 9.79756 10.5301L10.0072 10.2938L10.2412 10.506C10.8031 11.0155 11.3644 11.2629 11.9322 11.2629H14.6224V11.8879H11.9322C11.2799 11.8879 10.6501 11.6425 10.048 11.162C9.51467 11.6347 8.79054 11.8752 7.88771 11.8879Z" fill="#F7FCFF"/>
</g>
<path fill-rule="evenodd" clip-rule="evenodd" d="M10.0216 4.75488C10.0216 4.75488 8.95359 5.80988 8.95359 7.25775C8.95359 7.56759 9.0025 7.8603 9.07938 8.12903C8.73531 7.36645 8.71147 6.53954 9.00842 5.63754L8.60423 5.50447C8.30214 6.42206 8.30084 7.28477 8.60075 8.08429C7.98036 7.7105 7.26659 7.45935 6.53397 7.37837L6.48722 7.80132C7.12748 7.8721 7.7524 8.08559 8.30106 8.40162C8.1656 8.347 8.02356 8.29949 7.87538 8.26167C6.52353 7.91665 5.19727 8.40587 5.19727 8.40587C5.19727 8.40587 5.96232 10.1223 7.44413 10.3754C7.51801 10.388 7.59104 10.3978 7.66313 10.4051L7.65194 10.4051C6.94544 10.4051 6.28843 10.1163 5.6732 9.52942L5.37949 9.83734C6.07053 10.4965 6.83059 10.8306 7.65194 10.8306C8.45521 10.8306 9.20124 10.511 9.88291 9.88038C9.99226 9.81434 10.0562 9.76709 10.0665 9.75941L10.0933 9.78222C10.0793 9.80636 10.0722 9.81952 10.0722 9.81952C10.0722 9.81952 10.1394 9.86021 10.2606 9.91752C10.9337 10.4392 11.7758 10.8306 12.4421 10.8306C13.2634 10.8306 14.0235 10.4965 14.7145 9.83734L14.4208 9.52942C13.8056 10.1163 13.1486 10.4051 12.4421 10.4051C12.184 10.4051 11.931 10.3637 11.6829 10.2802C12.0303 10.2989 12.4131 10.2676 12.8092 10.1465C14.2689 9.70023 14.8773 8.35045 14.8773 8.35045C14.8773 8.35045 14.1007 7.93139 13.1142 7.92668C13.3352 7.86968 13.5659 7.8279 13.8064 7.80132L13.7596 7.37837C12.8345 7.48063 12.0341 7.79289 11.3627 8.31394C11.7552 7.45072 11.7856 6.51059 11.4544 5.50447L11.0502 5.63754C11.3209 6.45969 11.325 7.21946 11.0631 7.92499C11.1079 7.71637 11.1345 7.49338 11.1345 7.25775C11.1345 5.7314 10.0216 4.75488 10.0216 4.75488ZM10.4914 9.22215L10.4755 9.24497L10.4949 9.22194L10.4914 9.22215ZM9.45915 9.12248L9.50098 9.08401C9.53901 9.14719 9.57696 9.20667 9.61404 9.26219C9.56594 9.2169 9.51427 9.17009 9.45915 9.12248Z" fill="#F7FCFF"/>
</g>
</g>
</svg>
