<svg width="20" height="15" viewBox="0 0 20 15" fill="none" xmlns="http://www.w3.org/2000/svg">
<g clip-path="url(#clip0_14_339)">
<path d="M0 0H20V15H0V0Z" fill="#012169"/>
<path d="M12.0282 3.46875H18.45L18.4407 8.04062C18.4938 9.875 17.35 11.0156 15.2438 11.5312C13.7469 11.1562 12.025 10.3906 12.0188 8.09375L12.0282 3.46875Z" fill="white"/>
<path d="M12.1687 3.6062H18.3062L18.3 7.98745C18.35 9.74683 17.2562 10.8375 15.2437 11.3312C13.8125 10.975 12.1656 10.2375 12.1625 8.03745L12.1687 3.6062Z" fill="#00A2BD" stroke="black" stroke-width="0.09"/>
<path d="M18.2594 8.50623C18.0344 10.1844 16.7406 10.9187 15.2438 11.3093C13.9156 10.9531 12.4875 10.3843 12.2125 8.51248L18.2594 8.50623Z" fill="#A53D08"/>
<path d="M15 4.42183L14.9906 3.87183L15.4281 3.87495L15.4312 4.42183H16.625L16.6281 4.84995L15.4312 4.8562L15.4219 9.89995L14.9968 9.90308L14.9906 4.84995L13.8031 4.8562V4.4187L15 4.42183Z" fill="black"/>
<path fill-rule="evenodd" clip-rule="evenodd" d="M14.0312 8.71245L15.125 9.84683C15.5031 9.4312 15.2406 7.87808 14.7437 7.5937C14.6844 7.77808 14.5844 7.99995 14.475 8.0687C14.2406 8.2312 13.6594 8.4187 13.8531 8.53745C13.8969 8.47808 14.0125 8.42183 14.0687 8.5562C14.1312 8.77183 13.825 8.78433 13.825 8.78433C13.825 8.78433 13.6312 8.75933 13.5969 8.56558C13.5656 8.36558 13.8875 8.18433 13.9156 8.17183C13.9406 8.16245 14.3625 8.04683 14.4344 7.67495C14.525 7.3062 14.6156 7.36245 14.6312 7.3562C15.1844 7.40933 15.5437 8.39683 15.5656 9.09058C15.5844 9.78433 15.2844 10.2468 15.2281 10.2781C15.175 10.3062 13.9156 8.7812 13.9156 8.7812L14.0344 8.71245H14.0312Z" fill="#FF9A08" stroke="black" stroke-width="0.04"/>
<path d="M14.8312 7.65625L14.8375 9.70312ZM14.7062 7.69688L14.7156 9.55313ZM14.575 7.96562L14.5812 9.44063ZM14.4656 8.06875L14.4719 9.29062ZM14.35 8.125V9.15625ZM14.225 8.20625V9.02188ZM14.1156 8.27188V8.89688Z" fill="#FF9A08"/>
<path d="M14.8312 7.65625L14.8375 9.70312M14.7062 7.69688L14.7156 9.55313M14.575 7.96562L14.5812 9.44063M14.4656 8.06875L14.4719 9.29062M14.35 8.125V9.15625M14.225 8.20625V9.02188M14.1156 8.27188V8.89688" stroke="black" stroke-width="0.04"/>
<path d="M14.0156 8.84375L15.1406 10.1313" stroke="#FFDF00" stroke-width="0.04" stroke-linecap="round"/>
<path d="M15.1969 8.03125C15.1969 8.03125 15.7094 9.14688 15.2344 10.0625M13.8844 8.60625C13.8844 8.60625 13.9219 8.50938 13.9688 8.55M13.7969 8.32187C13.7969 8.32187 13.5906 8.5 13.7031 8.61875" stroke="#FFDF00" stroke-width="0.07" stroke-linecap="round"/>
<path d="M15.4375 5.48122C15.5094 5.41872 15.55 5.37809 15.5969 5.38747C15.6438 5.39372 15.7063 5.38747 15.7532 5.37497C15.8761 5.3464 16.0035 5.34216 16.1281 5.36247C16.1594 5.36872 16.2063 5.38435 16.2719 5.4406C16.3375 5.49685 16.4344 5.59684 16.4032 5.86559C16.3719 6.13434 16.3813 6.24997 16.3657 6.40309C16.3407 6.66872 16.2813 6.88747 16.1782 6.87184C16.3188 7.12184 16.3344 7.3406 16.4282 7.51247C16.5219 7.68435 16.5782 8.03747 16.5438 8.41872C16.5063 8.8031 16.4063 9.65935 16.7094 10.2375C16.6594 10.2718 16.5375 10.2375 16.4282 10.1218C16.3188 10.0062 16.2719 10.0093 16.1844 10.0781C15.9094 10.2875 15.6532 10.5406 15.275 10.2875C15.1875 10.2312 15.1625 10.1625 15.225 9.98435C15.3813 9.54685 15.4594 8.9406 15.4344 8.65935V5.48122H15.4375Z" fill="#008021" stroke="black" stroke-width="0.015"/>
<path d="M15.6969 5.21244C15.7218 5.28129 15.7207 5.35687 15.6937 5.42494C15.6748 5.46666 15.6663 5.51238 15.669 5.55813C15.6717 5.60388 15.6856 5.64827 15.7094 5.68744C15.7937 5.56244 15.9156 5.58744 15.9906 5.51869C16.0594 5.44682 16.075 5.37807 16.1281 5.36244C16.075 5.31557 15.9937 5.26244 16.0094 5.12807C16.0281 4.99057 16.2187 4.87807 16.0469 4.67182C16.0212 4.6388 15.9876 4.61276 15.9492 4.59608C15.9109 4.5794 15.8689 4.57261 15.8273 4.57634C15.7856 4.58007 15.7455 4.5942 15.7107 4.61744C15.6759 4.64067 15.6475 4.67226 15.6281 4.70932C15.6187 4.73432 15.6344 4.78432 15.6062 4.81557C15.5884 4.84023 15.5661 4.86141 15.5406 4.87807C15.525 4.89057 15.5156 4.90619 15.5344 4.92807C15.5406 4.93744 15.5531 4.93744 15.5656 4.94057L15.5406 4.98744C15.5312 4.99682 15.5344 5.00619 15.5469 5.01869C15.5312 5.05932 15.5594 5.06557 15.5406 5.09682C15.5219 5.12494 15.5031 5.15932 15.5594 5.19057C15.5781 5.19994 15.6531 5.21557 15.6969 5.21244ZM14.9937 5.93119C14.8937 5.95619 14.7312 5.91244 14.6094 5.92494C14.5531 5.93119 14.5094 5.90307 14.5156 5.84994C14.525 5.79682 14.5344 5.71244 14.5219 5.63744C14.523 5.47588 14.5638 5.31708 14.6406 5.17494C14.7024 5.06255 14.7427 4.93961 14.7594 4.81244C14.7594 4.75307 14.7656 4.69057 14.8156 4.65619C14.8531 4.63432 14.8594 4.61244 14.8719 4.59369C14.9031 4.54682 14.9344 4.53744 14.9344 4.56244C14.9375 4.57807 14.9344 4.59369 14.9187 4.61244C14.95 4.58744 15.0062 4.55619 15.0187 4.54994C15.0312 4.53744 15.0937 4.49369 15.0969 4.53744C15.1219 4.52494 15.1406 4.52494 15.1469 4.53744C15.1531 4.55307 15.1469 4.55932 15.1375 4.56869C15.1562 4.56869 15.175 4.59682 15.1375 4.62494C15.1594 4.61869 15.1781 4.64994 15.1437 4.67807C15.1125 4.70932 15.0687 4.72807 15.0594 4.75307C15.0469 4.77807 14.9594 4.84369 14.925 4.85619C14.8906 4.87182 14.8875 4.89057 14.8875 4.94057C14.8875 5.49682 14.825 5.44994 14.825 5.58744C14.825 5.61869 14.8156 5.65307 14.85 5.64369C14.8961 5.62684 14.9446 5.61735 14.9937 5.61557V5.92807V5.93119ZM15.0156 7.12494C15.1781 7.04369 15.3656 7.01244 15.4625 6.98744C15.5748 6.95153 15.6835 6.90551 15.7875 6.84994C15.8656 6.80932 15.9281 6.75619 15.9719 6.74057C16.0231 6.72427 16.0658 6.68831 16.0906 6.64057C16.2137 6.433 16.2875 6.19992 16.3062 5.95932C16.3062 5.83432 16.275 5.69057 16.15 5.79057C16.0225 5.90049 15.9274 6.04311 15.875 6.20307C15.825 6.40307 15.7812 6.44994 15.7719 6.48744C15.7594 6.52807 15.7219 6.52807 15.6719 6.53744C15.514 6.56204 15.3665 6.63145 15.2469 6.73744C15.1051 6.84239 14.9569 6.93841 14.8031 7.02494C14.6875 7.09057 14.6656 7.09682 14.6406 7.14994C14.6156 7.19994 14.5906 7.24369 14.5719 7.26244C14.5469 7.28744 14.5406 7.31244 14.5469 7.34369C14.55 7.36869 14.5406 7.47494 14.5375 7.51244C14.5375 7.54994 14.5469 7.55619 14.5594 7.55932C14.5719 7.55932 14.5906 7.55307 14.6 7.50932C14.5937 7.55307 14.6531 7.54057 14.6562 7.50619C14.6562 7.55307 14.7187 7.52494 14.7187 7.48119C14.7187 7.51244 14.7719 7.49057 14.7719 7.48119C14.7844 7.44057 14.7937 7.40307 14.8094 7.37494C14.8281 7.33119 14.85 7.27494 14.8937 7.24994C14.9406 7.21244 14.9187 7.17494 15.0156 7.12494ZM16.1844 10.0781C16.1937 10.1187 16.2156 10.1624 16.2219 10.1906C16.2281 10.2156 16.2156 10.2249 16.2094 10.2406C16.1674 10.3277 16.1379 10.4202 16.1219 10.5156C16.1219 10.5531 16.0906 10.5906 16.0812 10.6156C16.0656 10.6406 16.0719 10.6624 16.1062 10.6874C16.1187 10.6968 16.1687 10.6812 16.1719 10.6562C16.1937 10.6749 16.2219 10.6687 16.2375 10.6406C16.2562 10.6562 16.2844 10.6468 16.3 10.6187C16.3156 10.6281 16.3406 10.6093 16.35 10.5937C16.375 10.6062 16.4 10.5937 16.4 10.5437C16.4 10.5312 16.4094 10.5124 16.4156 10.5031C16.4219 10.4906 16.425 10.4687 16.425 10.4499C16.425 10.4281 16.4344 10.3874 16.4531 10.3624C16.4719 10.3312 16.5 10.2843 16.4875 10.2374C16.475 10.1937 16.4562 10.1968 16.4406 10.1374C16.4 10.0937 16.3469 10.0374 16.2906 10.0312C16.2344 10.0312 16.2031 10.0656 16.1844 10.0781ZM15.1562 10.3874C15.2094 10.4374 15.3219 10.4374 15.4 10.3562C15.3719 10.3437 15.3062 10.3124 15.2812 10.2937C15.2464 10.3331 15.2038 10.365 15.1562 10.3874Z" fill="#FFE1CF" stroke="black" stroke-width="0.015"/>
<path d="M15.6687 4.65628C15.6875 4.53128 15.7781 4.53128 15.8343 4.54691C15.8593 4.55003 15.9156 4.55628 15.9718 4.54066C16.0781 4.51253 16.1593 4.55003 16.1468 4.65316C16.1781 4.67503 16.2093 4.72503 16.2 4.76878C16.1968 4.81253 16.2062 4.83128 16.2437 4.83441C16.2843 4.84066 16.3687 4.89066 16.3125 4.95941C16.3656 4.99066 16.4062 5.07503 16.3781 5.12816C16.35 5.18441 16.2656 5.19378 16.2281 5.14378C16.1875 5.16253 16.125 5.16566 16.0843 5.12503C16.0562 5.15628 15.9906 5.15316 15.975 5.12503C15.9625 5.09378 15.9437 5.08128 15.9156 5.07191C15.8875 5.06253 15.8843 4.98441 15.9281 4.97503C15.925 4.95003 15.9281 4.92503 15.9375 4.91253C15.9468 4.90003 15.9375 4.87503 15.9125 4.85628C15.8875 4.83441 15.8656 4.76253 15.8906 4.71878C15.8468 4.73441 15.7531 4.69066 15.7343 4.66253C15.7125 4.63128 15.6843 4.63128 15.6687 4.65628Z" fill="#870F00" stroke="black" stroke-width="0.015"/>
<path d="M15.6969 5.21249C15.7656 5.20311 15.7906 5.16249 15.8406 5.16249M15.5469 5.01561L15.5625 5.02499C15.575 5.03436 15.5937 5.03749 15.6062 5.03749M15.5656 4.94061L15.5969 4.95936M15.7281 4.65624C15.6875 4.61561 15.7969 4.53749 15.9156 4.64999C15.9406 4.67499 15.9937 4.67499 16.0094 4.66874M15.8906 4.71874C15.9469 4.70624 16.025 4.70624 16.05 4.76874C16.075 4.83124 16.1219 4.78749 16.1594 4.86249C16.1969 4.93436 16.2531 5.01249 16.3156 4.95624M16.0844 5.12499C16.0755 5.1101 16.0698 5.09352 16.0676 5.0763C16.0654 5.05909 16.0669 5.04161 16.0719 5.02499C16.05 4.99999 16.0594 4.94686 16.0719 4.92186M15.9281 4.97499C15.9281 4.99686 15.9594 5.03749 16.0031 5.04374M16.2281 5.14374C16.2031 5.11249 16.2062 5.08124 16.2125 5.04374" stroke="black" stroke-width="0.015"/>
<path d="M15.9656 4.7812C15.9656 4.81558 15.9844 4.85933 16.0156 4.87495C16.025 4.8937 16.0594 4.9437 16.1344 4.93745M16.1469 4.6562C16.1011 4.61491 16.0449 4.58682 15.9844 4.57495M15.7094 5.68745C15.6469 5.77183 15.6094 5.88745 15.6344 6.04995C15.6656 6.21245 15.7094 6.44995 15.5938 6.5562M16.175 6.87183C16.0937 6.84995 15.975 6.84995 15.9094 6.89995C15.8469 6.94683 15.7344 6.94995 15.6625 6.91245" stroke="black" stroke-width="0.015"/>
<path d="M16.0001 6.86245C15.9282 6.87495 15.897 6.92807 15.897 7.06245C15.897 7.1937 15.8657 7.38745 15.8907 7.5812M15.872 6.92182C15.822 6.93432 15.772 6.93432 15.7845 7.06245M15.6251 7.06245C15.6282 6.98745 15.6564 6.91245 15.7064 6.92807M16.147 7.0812C16.147 6.9062 16.1095 6.85932 16.0595 6.86245C16.1282 6.86245 16.1751 6.87182 16.2064 7.14995C16.2251 7.36245 16.2689 7.4312 16.322 7.59995C16.4501 8.02495 16.3845 8.67807 16.4501 8.91245M16.047 7.1312C16.2259 7.62993 16.2214 8.17606 16.0345 8.67182C16.1845 9.09057 16.3345 9.3937 16.3626 9.56557M15.6157 8.06557C15.6407 7.97495 15.547 7.96557 15.6282 7.64995C15.6626 7.51245 15.6689 7.4312 15.647 7.38745" stroke="black" stroke-width="0.015"/>
<path d="M15.6469 7.57495C15.6157 7.71245 15.7501 7.97495 15.6844 8.1687M15.5126 8.20308C15.5126 8.32808 15.5407 8.48433 15.5344 8.60933C15.5282 8.7312 15.5782 8.78745 15.6344 8.90308C15.8469 9.32183 15.9844 9.6187 15.9688 10.0125C15.9626 10.0875 15.9876 10.2375 15.9126 10.2812M15.5188 10.3875C15.5407 10.3875 15.5626 10.375 15.5907 10.3125C15.6586 10.0793 15.684 9.83584 15.6657 9.5937M15.7094 9.8937C15.7219 9.97495 15.7219 10.1437 15.6688 10.2812" stroke="black" stroke-width="0.015"/>
<path d="M15.8469 9.64685C15.8782 9.82185 15.8782 9.98123 15.8501 10.0937M15.7751 10.0937C15.7813 10.1625 15.8126 10.3437 15.7594 10.3594M16.0469 9.25623C16.1813 9.4656 16.2844 9.98123 16.3969 10.0875M16.1594 10.0062C16.1594 9.94998 16.1563 9.86873 16.1219 9.83123M14.7188 7.48123C14.7219 7.44373 14.7157 7.40623 14.7594 7.34373M14.6563 7.50623C14.6626 7.36873 14.6594 7.35623 14.7001 7.31873M14.6001 7.50935C14.6001 7.40935 14.5907 7.37498 14.6313 7.31248M15.0969 4.53748L14.9563 4.64373M15.1376 4.56873C15.1219 4.56873 15.0719 4.61248 14.9813 4.68123M15.1407 4.62498C15.1094 4.63748 15.0594 4.68748 15.0094 4.72498M14.9188 4.6156L14.8688 4.6656M16.1719 10.6562C16.1657 10.65 16.1657 10.6156 16.1813 10.5812M16.2407 10.6406C16.2282 10.6312 16.2407 10.5875 16.2469 10.5594M16.3001 10.6187C16.2876 10.6125 16.2844 10.5875 16.3001 10.5562M16.3469 10.5937C16.3407 10.5937 16.3376 10.575 16.3501 10.5375" stroke="black" stroke-width="0.015"/>
<path d="M15.6406 4.77192C15.6656 4.80317 15.6938 4.80317 15.6969 4.82192C15.7031 4.84692 15.7063 4.84692 15.7094 4.85317C15.7156 4.85942 15.6969 4.85942 15.6906 4.85317H15.6469C15.6344 4.85317 15.6219 4.83755 15.6281 4.83755C15.6375 4.83442 15.6375 4.8313 15.6344 4.82505C15.6344 4.81567 15.6406 4.8063 15.6469 4.80317L15.6438 4.7938C15.6375 4.78442 15.6344 4.76255 15.6406 4.7688V4.77192ZM15.6563 4.73755C15.6959 4.74321 15.7329 4.76063 15.7625 4.78755C15.7844 4.81255 15.7656 4.8063 15.7563 4.8063C15.7469 4.8063 15.725 4.80005 15.7125 4.78755C15.6961 4.77033 15.6757 4.75745 15.6531 4.75005C15.6438 4.75005 15.6344 4.73755 15.6531 4.73755H15.6563Z" fill="black"/>
<path d="M0 0H10V7.5H0V0Z" fill="#012169"/>
<path d="M1.17188 0L4.98438 2.82812L8.78125 0H10V0.96875L6.25 3.76562L10 6.54688V7.5H8.75L5 4.70312L1.26562 7.5H0V6.5625L3.73438 3.78125L0 1V0H1.17188Z" fill="white"/>
<path d="M6.625 4.39062L10 6.875V7.5L5.76562 4.39062H6.625ZM3.75 4.70312L3.84375 5.25L0.84375 7.5H0L3.75 4.70312ZM10 0V0.046875L6.10938 2.98438L6.14062 2.29688L9.21875 0H10ZM0 0L3.73438 2.75H2.79688L0 0.65625V0Z" fill="#C8102E"/>
<path d="M3.76562 0V7.5H6.26562V0H3.76562ZM0 2.5V5H10V2.5H0Z" fill="white"/>
<path d="M0 3.01562V4.51562H10V3.01562H0ZM4.26562 0V7.5H5.76562V0H4.26562Z" fill="#C8102E"/>
</g>
<defs>
<clipPath id="clip0_14_339">
<rect width="20" height="15" fill="white"/>
</clipPath>
</defs>
</svg>
