<svg width="20" height="15" viewBox="0 0 20 15" fill="none" xmlns="http://www.w3.org/2000/svg">
<g clip-path="url(#clip0_14_419)">
<path fill-rule="evenodd" clip-rule="evenodd" d="M10 0H20V15H10V0Z" fill="#CE0000"/>
<path fill-rule="evenodd" clip-rule="evenodd" d="M0 0H10V15H0V0Z" fill="white"/>
<path fill-rule="evenodd" clip-rule="evenodd" d="M4.8479 4.43273C4.8479 4.47769 4.80294 4.50767 4.74798 4.50767C4.68804 4.50767 4.64807 4.47769 4.64807 4.43773C4.64807 4.39776 4.68804 4.36279 4.74798 4.36279C4.80294 4.36279 4.8479 4.39776 4.8479 4.43773V4.43273Z" fill="#F1EEEE"/>
<path fill-rule="evenodd" clip-rule="evenodd" d="M1.64575 4.08305V5.94143H3.50912C3.50912 6.25116 3.81885 6.56088 4.12858 6.56088V8.41926H5.99195V6.56088C6.30167 6.56088 6.6114 6.25116 6.6114 5.94143H8.46978V4.08305H6.60641C6.60641 3.77333 6.29668 3.4636 5.98695 3.4636V1.60522H4.12858V3.4636C3.81385 3.4636 3.50412 3.77333 3.50412 4.08305H1.64575Z" fill="#CC0000"/>
<path fill-rule="evenodd" clip-rule="evenodd" d="M1.71069 4.14299V5.88147H3.56907C3.56907 6.1912 3.87879 6.50093 4.18852 6.50093V8.3593H5.92201V6.50592C6.23173 6.50592 6.54146 6.19619 6.54146 5.88646H8.40483V4.14799H6.54646C6.54646 3.83826 6.23673 3.52853 5.927 3.52853V1.66516H4.18852V3.52353C3.87879 3.52353 3.56907 3.83326 3.56907 4.14299H1.71069Z" fill="#FFE600"/>
<path fill-rule="evenodd" clip-rule="evenodd" d="M1.77063 4.20793V5.81652H3.629C3.629 6.12625 3.93873 6.43598 4.24846 6.43598V8.29435H5.86205V6.43598C6.17177 6.43598 6.4815 6.12625 6.4815 5.81652H8.33988V4.20793H6.4815C6.4815 3.8982 6.17177 3.58847 5.86205 3.58847V1.7301H4.24846V3.58348C3.93873 3.58348 3.629 3.89321 3.629 4.20294H1.77063V4.20793Z" fill="#707070"/>
<path fill-rule="evenodd" clip-rule="evenodd" d="M1.83556 4.26787V5.75657H3.69393C3.69393 6.06629 4.00366 6.37602 4.31339 6.37602V8.2294H5.79709V6.37103C6.10682 6.37103 6.41655 6.0613 6.41655 5.75157H8.27492V4.26287H6.41655C6.41655 3.95314 6.10682 3.64342 5.79709 3.64342V1.79004H4.31339V3.64841C4.00366 3.64841 3.69393 3.95814 3.69393 4.26787H1.83057H1.83556Z" fill="#A0A0A0"/>
<path fill-rule="evenodd" clip-rule="evenodd" d="M4.3284 3.49362C4.43331 3.60352 4.34839 3.86829 4.12858 4.0881C3.90877 4.3079 3.649 4.38783 3.53909 4.28792C3.42919 4.17302 3.51911 3.90825 3.73892 3.68845C3.95873 3.46864 4.2185 3.38871 4.3284 3.49362Z" fill="#D0D0D0"/>
<path fill-rule="evenodd" clip-rule="evenodd" d="M4.19357 3.62346C4.30347 3.73336 4.2735 3.93818 4.12862 4.08805C3.98375 4.23792 3.77893 4.2629 3.66903 4.153C3.55912 4.04309 3.5891 3.83827 3.73397 3.6934C3.87884 3.54853 4.08366 3.51855 4.19357 3.62346Z" fill="#808080"/>
<path fill-rule="evenodd" clip-rule="evenodd" d="M3.64905 3.95316L3.68901 3.9132L3.86386 3.99812L3.77893 3.82328L3.82389 3.77831L3.99874 4.12801L3.64905 3.95316ZM3.90882 3.69339L3.95878 3.64343L4.21855 3.9132L4.17359 3.95316L3.90882 3.69339Z" fill="#D0D0D0"/>
<path fill-rule="evenodd" clip-rule="evenodd" d="M6.57142 4.28287C6.46151 4.39277 6.19674 4.30285 5.98193 4.08305C5.76712 3.86324 5.6722 3.60347 5.78211 3.49356C5.89201 3.38366 6.15678 3.47358 6.37659 3.69339C6.59639 3.91319 6.67632 4.17297 6.57641 4.28287H6.57142Z" fill="#D0D0D0"/>
<path fill-rule="evenodd" clip-rule="evenodd" d="M6.44157 4.15304C6.33167 4.26294 6.12685 4.23297 5.98197 4.0881C5.8371 3.94322 5.80713 3.7384 5.91203 3.6285C6.02194 3.5186 6.23175 3.54857 6.37663 3.69344C6.5215 3.83831 6.55147 4.04314 6.44157 4.15304Z" fill="#808080"/>
<path fill-rule="evenodd" clip-rule="evenodd" d="M6.11186 3.60352L6.15682 3.64848L6.0669 3.82332L6.24174 3.7334L6.2917 3.78336L5.93701 3.95321L6.11186 3.60352ZM6.37663 3.86828L6.41659 3.90825L6.15682 4.17302L6.11186 4.12806L6.37663 3.86828Z" fill="#D0D0D0"/>
<path fill-rule="evenodd" clip-rule="evenodd" d="M5.78214 6.53092C5.67223 6.42101 5.76215 6.15624 5.98196 5.93644C6.20177 5.71663 6.46154 5.6317 6.57144 5.73661C6.68135 5.84651 6.59143 6.11128 6.37162 6.33109C6.15181 6.5509 5.89204 6.63582 5.78214 6.53092Z" fill="#D0D0D0"/>
<path fill-rule="evenodd" clip-rule="evenodd" d="M5.91707 6.39608C5.80717 6.28618 5.83714 6.08136 5.98202 5.93648C6.12689 5.79161 6.33171 5.76164 6.44161 5.87154C6.55152 5.98144 6.52154 6.18626 6.37667 6.33114C6.2318 6.47601 6.02698 6.50599 5.91208 6.39608H5.91707Z" fill="#808080"/>
<path fill-rule="evenodd" clip-rule="evenodd" d="M6.4616 6.06633L6.41664 6.11628L6.24179 6.02636L6.33171 6.20121L6.28675 6.24117L6.11191 5.89148L6.4616 6.06633ZM6.20682 6.33109L6.15687 6.37605L5.89709 6.11129L5.94206 6.06633L6.20682 6.33109Z" fill="#D0D0D0"/>
<path fill-rule="evenodd" clip-rule="evenodd" d="M3.5391 5.74161C3.64901 5.6317 3.91377 5.72163 4.12859 5.93644C4.3434 6.15125 4.43332 6.42101 4.32841 6.52592C4.21851 6.63583 3.95374 6.5509 3.73393 6.33109C3.51412 6.11128 3.43419 5.84652 3.53411 5.74161H3.5391Z" fill="#D0D0D0"/>
<path fill-rule="evenodd" clip-rule="evenodd" d="M3.66903 5.87154C3.77893 5.76164 3.98375 5.79161 4.12862 5.93648C4.2735 6.08136 4.30347 6.28618 4.19357 6.39608C4.08866 6.50599 3.87884 6.47601 3.73397 6.33114C3.5891 6.18626 3.55912 5.98144 3.66903 5.87154Z" fill="#808080"/>
<path fill-rule="evenodd" clip-rule="evenodd" d="M3.9987 6.42106L3.95374 6.37111L4.04366 6.20126L3.86882 6.28618L3.81886 6.24122L4.17355 6.06637L3.9987 6.41607V6.42106ZM3.73393 6.1563L3.69397 6.11134L3.95374 5.85156L3.9987 5.89153L3.73393 6.1563Z" fill="#D0D0D0"/>
<path d="M6.3604 5.01337C6.3604 5.73031 5.77795 6.31435 5.05886 6.31435C4.33977 6.31435 3.75903 5.73206 3.75903 5.01337C3.75903 4.29469 4.34148 3.7124 5.06057 3.7124C5.77966 3.7124 6.36211 4.29469 6.36211 5.01337H6.3604Z" stroke="#707070" stroke-width="0.0368686"/>
<path d="M6.04447 5.01075C6.04447 5.55699 5.60071 6.00197 5.05284 6.00197C4.50496 6.00197 4.0625 5.55832 4.0625 5.01075C4.0625 4.46318 4.50626 4.01953 5.05414 4.01953C5.60201 4.01953 6.04577 4.46318 6.04577 5.01075H6.04447Z" stroke="#707070" stroke-width="0.0280903"/>
<path fill-rule="evenodd" clip-rule="evenodd" d="M4.62318 6.06635C4.62318 6.08291 4.6166 6.0988 4.60489 6.11051C4.59318 6.12222 4.5773 6.1288 4.56074 6.1288C4.54417 6.1288 4.52829 6.12222 4.51658 6.11051C4.50487 6.0988 4.49829 6.08291 4.49829 6.06635C4.49829 6.04979 4.50487 6.03391 4.51658 6.0222C4.52829 6.01049 4.54417 6.00391 4.56074 6.00391C4.5773 6.00391 4.59318 6.01049 4.60489 6.0222C4.6166 6.03391 4.62318 6.04979 4.62318 6.06635ZM5.61232 6.06635C5.61232 6.08291 5.60574 6.0988 5.59403 6.11051C5.58231 6.12222 5.56643 6.1288 5.54987 6.1288C5.53331 6.1288 5.51743 6.12222 5.50571 6.11051C5.494 6.0988 5.48742 6.08291 5.48742 6.06635C5.48742 6.04979 5.494 6.03391 5.50571 6.0222C5.51743 6.01049 5.53331 6.00391 5.54987 6.00391C5.56643 6.00391 5.58231 6.01049 5.59403 6.0222C5.60574 6.03391 5.61232 6.04979 5.61232 6.06635ZM5.01284 6.06635V6.13129H4.93291C4.84798 6.13129 4.84798 6.19624 4.93291 6.19624H5.01284V6.25619C5.01284 6.32612 5.08777 6.33112 5.09277 6.26118V6.19124H5.1777C5.26262 6.19124 5.26262 6.13129 5.1777 6.13129H5.09777V6.06635C5.09777 6.00141 5.01284 6.00141 5.01284 6.06635Z" fill="#D0D0D0"/>
<path fill-rule="evenodd" clip-rule="evenodd" d="M4.748 5.14709V5.18705C4.748 5.18705 4.72802 5.21203 4.60313 5.22202C4.47824 5.23201 4.45825 5.22202 4.45825 5.22202C4.46325 5.25699 4.48823 5.31694 4.47824 5.38688C4.48323 5.4718 4.45825 5.54674 4.45825 5.54674C4.45825 5.55173 4.44327 5.55673 4.41829 5.55173C4.43827 5.53175 4.43827 5.4818 4.43827 5.40187C4.43827 5.33193 4.36334 5.21703 4.37832 5.18705C4.39331 5.15708 4.748 5.14709 4.748 5.14709ZM5.23757 5.0172L5.56229 5.01221C5.56229 5.01221 5.61224 5.11212 5.60725 5.16208C5.60725 5.21203 5.58727 5.26199 5.56728 5.23701C5.5423 5.21203 5.57727 5.21703 5.58227 5.16208C5.58227 5.10213 5.5423 5.04718 5.5423 5.04718C5.5423 5.04718 5.45238 5.08215 5.3225 5.07715C5.19261 5.06716 5.25256 5.0172 5.23757 5.0172Z" fill="#D0D0D0" stroke="#707070" stroke-width="0.007993"/>
<path fill-rule="evenodd" clip-rule="evenodd" d="M5.27756 5.11214C5.39746 5.10714 5.47739 5.12213 5.47739 5.12213C5.47739 5.12213 5.52734 5.22204 5.52734 5.272C5.52235 5.32196 5.50736 5.37191 5.48238 5.34693C5.4624 5.32695 5.49237 5.33195 5.49737 5.272C5.49737 5.21705 5.4574 5.1571 5.4574 5.1571C5.4574 5.1571 5.37248 5.19207 5.24259 5.18707C5.11271 5.17708 5.15267 5.17209 5.13768 5.16709C5.1227 5.16709 5.1177 5.20706 4.92287 5.21205C4.72305 5.21205 4.62314 5.16709 4.62314 5.16709C4.62314 5.16709 4.60315 5.19706 4.48326 5.20706H4.33339C4.33838 5.23703 4.36336 5.29698 4.35837 5.37191C4.35837 5.45184 4.33339 5.53177 4.33339 5.53177H4.29842C4.3184 5.51678 4.31341 5.46183 4.3184 5.3869C4.3184 5.31196 4.23847 5.20206 4.25346 5.16709C4.27344 5.13712 4.36336 5.16709 4.37835 5.1521C4.39334 5.13212 4.29842 5.01722 4.3184 4.91231C4.33339 4.80741 4.4383 4.83738 4.56319 4.83738C4.68808 4.84238 4.96284 4.87734 5.03278 4.83738C5.10271 4.80241 5.07274 4.66753 5.13269 4.5826C5.15259 4.55831 5.1778 4.53892 5.20639 4.52593C5.23497 4.51293 5.26616 4.50669 5.29754 4.50767C5.34251 4.50767 5.39746 4.65754 5.39746 4.69251L5.38247 4.71249H5.36249V4.72748C5.31253 4.73247 5.30754 4.68751 5.27756 4.65754C5.26757 4.70749 5.31753 4.87734 5.31753 4.98725C5.31753 5.07717 5.28256 5.11713 5.27756 5.11214Z" fill="#D0D0D0" stroke="#707070" stroke-width="0.007993"/>
<path fill-rule="evenodd" clip-rule="evenodd" d="M4.88296 4.95229C4.88296 4.98725 4.72809 5.07218 4.7131 5.10215C4.70311 5.13712 4.75307 5.15211 4.73808 5.17209C4.7231 5.19208 4.70811 5.18208 4.70311 5.18708L4.64317 5.06219C4.64317 5.06219 4.79303 4.99225 4.78804 4.96228C4.78304 4.9323 4.67814 4.91232 4.65815 4.84238C4.63817 4.77244 4.64816 4.62757 4.63317 4.5976C4.61819 4.56762 4.43335 4.53765 4.43335 4.49768C4.43335 4.44773 4.62318 4.32783 4.64317 4.30785C4.66315 4.28787 4.68313 4.32783 4.66315 4.34282C4.64317 4.3628 4.49829 4.4777 4.49829 4.49269C4.49829 4.51267 4.61819 4.53265 4.65815 4.53265C4.70311 4.53265 4.7231 4.51267 4.7231 4.49269C4.7231 4.4777 4.67814 4.4777 4.67814 4.44273C4.67814 4.40776 4.70311 4.38278 4.74308 4.38278C4.76306 4.38278 4.80303 4.40776 4.80303 4.43774C4.80303 4.46771 4.76806 4.47271 4.76306 4.49269C4.75807 4.51767 4.80303 4.53265 4.84299 4.53265C4.88296 4.53265 5.02283 4.63756 5.04282 4.65754C5.06779 4.67253 5.08778 4.67253 5.06779 4.69251C5.04781 4.7125 5.0578 4.73248 5.03782 4.7125C5.02809 4.70288 5.02118 4.69079 5.01784 4.67753C5.01784 4.66254 4.86797 4.5876 4.84299 4.60259C4.82301 4.62257 4.84299 4.84238 4.84299 4.86236C4.84299 4.89733 4.88795 4.89733 4.88296 4.95229Z" fill="#D0D0D0" stroke="#707070" stroke-width="0.007993"/>
<path fill-rule="evenodd" clip-rule="evenodd" d="M4.62317 4.52771H4.87295V4.78249H4.62317V4.52771Z" fill="#A7A7A7"/>
<path d="M5.41778 5.44709L4.59795 4.21647C4.59031 4.20499 4.58016 4.19778 4.57529 4.20038C4.57042 4.20298 4.57267 4.21439 4.58032 4.22587L5.40015 5.45649C5.40779 5.46797 5.41794 5.47517 5.42281 5.47258C5.42768 5.46998 5.42543 5.45857 5.41778 5.44709Z" fill="#808080"/>
<path fill-rule="evenodd" clip-rule="evenodd" d="M4.68786 4.32771C4.68786 4.33744 4.68354 4.34677 4.67585 4.35365C4.66816 4.36054 4.65772 4.3644 4.64685 4.3644C4.63597 4.3644 4.62554 4.36054 4.61785 4.35365C4.61016 4.34677 4.60583 4.33744 4.60583 4.32771C4.60583 4.31798 4.61016 4.30864 4.61785 4.30176C4.62554 4.29488 4.63597 4.29102 4.64685 4.29102C4.65772 4.29102 4.66816 4.29488 4.67585 4.30176C4.68354 4.30864 4.68786 4.31798 4.68786 4.32771Z" fill="#D0D0D0" stroke="#707070" stroke-width="0.011656"/>
<path fill-rule="evenodd" clip-rule="evenodd" d="M5.40244 4.65754C5.40244 4.67252 5.30253 4.69251 5.19762 4.69251C5.08772 4.69251 4.9928 4.67252 4.9928 4.65754C4.9928 4.64255 5.08771 4.68252 5.19262 4.68252C5.30752 4.68252 5.40244 4.64255 5.40244 4.65754Z" fill="#808080"/>
<path fill-rule="evenodd" clip-rule="evenodd" d="M4.64307 4.78247H4.84789V4.85741H4.64806L4.64307 4.78247Z" fill="#A7A7A7"/>
<path fill-rule="evenodd" clip-rule="evenodd" d="M5.30754 4.60264C5.28756 4.64261 5.27257 4.66759 5.26758 4.66259C5.26758 4.66259 5.27757 4.62263 5.29755 4.58766L5.33752 4.52771C5.34251 4.53271 5.32753 4.56767 5.30754 4.60264ZM5.3575 4.70256L5.31753 4.72753C5.32789 4.71015 5.34145 4.6949 5.3575 4.68257C5.38248 4.66259 5.40246 4.6526 5.40246 4.6576L5.3625 4.69756L5.3575 4.70256Z" fill="#808080"/>
<path fill-rule="evenodd" clip-rule="evenodd" d="M5.33747 4.65262L5.36245 4.71256L5.32248 4.66261L5.2975 4.60266L5.33747 4.65262ZM5.31748 4.81248C5.31748 4.81248 5.25754 4.82247 5.17761 4.82247C5.09768 4.82247 5.03273 4.81747 5.03273 4.81248L5.17761 4.80249C5.25754 4.80249 5.31748 4.80249 5.31748 4.81248ZM4.8479 4.79249C4.8479 4.79749 4.80294 4.80249 4.74798 4.80249C4.68804 4.80249 4.64807 4.80249 4.64807 4.79249C4.64807 4.79249 4.68804 4.7825 4.74798 4.7825C4.80294 4.7825 4.8479 4.7875 4.8479 4.79249Z" fill="#808080"/>
<path fill-rule="evenodd" clip-rule="evenodd" d="M4.39832 5.43191C4.39832 5.43191 4.43328 5.51184 4.57816 5.51184C4.71804 5.51184 4.76799 5.48686 4.71304 5.4469C4.65809 5.40693 4.54319 5.41692 4.56317 5.45189C4.57316 5.49186 4.51821 5.50185 4.50822 5.47687C4.49323 5.45189 4.44328 5.37196 4.5332 5.36697C4.62811 5.36197 4.82294 5.332 4.8729 5.38695C4.92286 5.4419 4.81795 5.48686 4.89788 5.50185C4.97281 5.51184 4.9878 5.48686 5.12268 5.48186C5.25756 5.47187 5.31251 5.50684 5.35748 5.50185C5.40743 5.50185 5.39744 5.41692 5.35748 5.40193C5.32251 5.37696 5.25257 5.37196 5.23258 5.35198C5.2176 5.327 5.16764 5.35198 5.17264 5.322C5.17264 5.29703 5.24258 5.33699 5.24258 5.327L5.25257 5.31701H5.23758L5.24258 5.30702L5.23258 5.31201L5.23758 5.30202C5.23758 5.30202 5.22259 5.31201 5.22259 5.30202H5.2126C5.22259 5.29203 5.2176 5.29203 5.2126 5.28704H5.19762V5.27205C5.18762 5.27205 5.18762 5.27205 5.18263 5.28204V5.25706C5.18263 5.25207 5.19262 5.24707 5.20761 5.24707C5.24258 5.24707 5.25756 5.28704 5.27255 5.28704C5.28254 5.28704 5.29753 5.24707 5.34249 5.26206L5.41742 5.29203C5.4424 5.30702 5.40244 5.322 5.41742 5.34199C5.43241 5.36197 5.52233 5.42691 5.49735 5.50185C5.47237 5.57179 5.39744 5.58178 5.39744 5.61175C5.38745 5.64172 5.61225 5.63173 5.6672 5.64172C5.70541 5.64865 5.73944 5.67015 5.76212 5.70167L5.66221 5.70667C5.66221 5.70667 5.61225 5.68169 5.48736 5.67669C5.36247 5.67669 5.31751 5.62674 5.26755 5.61675L5.06773 5.62674L4.91786 5.61175C4.88789 5.60676 4.70804 5.69168 4.70804 5.71166H4.58815C4.58815 5.71166 4.60314 5.6667 4.67307 5.66171C4.73802 5.65172 4.80796 5.62174 4.80296 5.60176L4.82294 5.47187C4.82294 5.4419 4.85292 5.42192 4.84792 5.41193C4.84293 5.39194 4.763 5.37696 4.68806 5.37696C4.61313 5.37696 4.5332 5.38195 4.51821 5.39694C4.50822 5.41692 4.51821 5.47187 4.5332 5.46188C4.54818 5.46188 4.5282 5.42192 4.54319 5.41692C4.57556 5.40697 4.60924 5.40192 4.6431 5.40193C4.68307 5.40193 4.74801 5.4369 4.74801 5.45189C4.74801 5.45689 4.76799 5.49186 4.73802 5.50684C4.68815 5.52337 4.63558 5.53016 4.58315 5.52682C4.53096 5.5241 4.47991 5.51049 4.43328 5.48686C4.4133 5.47187 4.39832 5.4369 4.39832 5.43191Z" fill="#D0D0D0" stroke="#808080" stroke-width="0.007993"/>
<path fill-rule="evenodd" clip-rule="evenodd" d="M5.30756 5.30698C5.30756 5.30895 5.30717 5.3109 5.30642 5.31271C5.30567 5.31453 5.30456 5.31619 5.30317 5.31758C5.30178 5.31897 5.30013 5.32007 5.29831 5.32083C5.29649 5.32158 5.29454 5.32197 5.29257 5.32197C5.29061 5.32197 5.28866 5.32158 5.28684 5.32083C5.28502 5.32007 5.28337 5.31897 5.28198 5.31758C5.28059 5.31619 5.27948 5.31453 5.27873 5.31271C5.27798 5.3109 5.27759 5.30895 5.27759 5.30698C5.27759 5.303 5.27917 5.29919 5.28198 5.29638C5.28479 5.29357 5.2886 5.29199 5.29257 5.29199C5.29655 5.29199 5.30036 5.29357 5.30317 5.29638C5.30598 5.29919 5.30756 5.303 5.30756 5.30698Z" fill="black"/>
<path d="M6.08185 5.07214L6.16178 5.08713L6.29666 4.99721L6.28667 5.04716L6.21673 5.09212L6.17676 5.11211L6.20174 5.15207L6.2467 5.22201L6.23671 5.27197L6.15179 5.12709L6.07186 5.11211L6.08185 5.07214ZM5.94697 4.48266L6.09683 4.41272L6.05687 4.3228L6.07685 4.31281L6.17676 4.53261L6.16178 4.5426L6.11682 4.44769L5.96695 4.52262L5.94697 4.48266ZM5.70718 4.19291L5.84705 4.06302L5.87703 4.093V4.31281L5.98693 4.21289L6.01191 4.24287L5.87203 4.37275L5.84206 4.34278V4.12297L5.73215 4.22288L5.70718 4.19291ZM5.08772 3.94313L5.1127 3.7533H5.15266L5.12768 3.92814L5.27755 3.94313V3.96811L5.08772 3.94313ZM4.78298 3.9731L4.74802 3.78327L4.78798 3.77328L4.81795 3.94313L4.96782 3.91316V3.93813L4.78298 3.9731ZM4.21848 4.24786L4.20349 4.23288L4.3034 4.15295L4.35336 4.2029C4.34263 4.2245 4.3292 4.24464 4.3134 4.26285C4.30043 4.28122 4.28534 4.29799 4.26844 4.31281C4.24734 4.32968 4.22375 4.34317 4.1985 4.35277C4.17352 4.35777 4.14854 4.36276 4.13355 4.35277C4.11444 4.35072 4.0967 4.34186 4.0836 4.32779C4.07349 4.31312 4.06824 4.29565 4.06861 4.27784C4.06861 4.25785 4.07361 4.23288 4.08859 4.21289C4.09858 4.19291 4.11857 4.17293 4.13855 4.15794C4.15519 4.14384 4.17368 4.13208 4.1935 4.12297L4.23846 4.11298C4.24845 4.11298 4.26344 4.11298 4.27343 4.12297L4.25345 4.14795C4.24399 4.14394 4.23372 4.14223 4.22347 4.14295L4.1935 4.14795C4.18077 4.15466 4.16901 4.16307 4.15853 4.17293C4.14354 4.18292 4.12856 4.19291 4.12356 4.2079C4.11514 4.2166 4.10837 4.22675 4.10358 4.23787V4.26285C4.10358 4.27784 4.10858 4.29282 4.11857 4.30281L4.15354 4.32779L4.20349 4.3228C4.24947 4.30339 4.28677 4.26786 4.3084 4.22288L4.28842 4.19291L4.21848 4.24786ZM4.21348 5.63165L4.05362 5.74655L3.93373 5.5767L3.95371 5.56171L4.05362 5.69659L4.09858 5.66162L4.01865 5.54673L4.03364 5.53673L4.11857 5.65163L4.18851 5.60168L4.21348 5.63165ZM3.97869 5.38187C4.00367 5.37687 4.01865 5.36189 4.02865 5.33691V5.26197C4.02076 5.23618 4.00505 5.21349 3.98368 5.19703C3.9687 5.18204 3.94372 5.17705 3.92374 5.18204C3.90793 5.1855 3.8938 5.19432 3.88377 5.20702C3.87878 5.21701 3.86879 5.232 3.86879 5.24699L3.87378 5.30194C3.88377 5.33191 3.89376 5.3519 3.91375 5.37188C3.92873 5.38687 3.95371 5.39186 3.97869 5.38187ZM3.99368 5.42183C3.97904 5.4265 3.96341 5.4271 3.94845 5.42358C3.9335 5.42006 3.91977 5.41255 3.90875 5.40185C3.8821 5.37785 3.863 5.3466 3.8538 5.31193C3.84381 5.28196 3.84381 5.26197 3.84381 5.232C3.84381 5.20203 3.8538 5.19204 3.86379 5.17705C3.87517 5.15925 3.89313 5.14668 3.91375 5.14208C3.9305 5.13834 3.94802 5.14009 3.9637 5.14708C3.98368 5.15707 3.99867 5.16706 4.01366 5.18704C4.04434 5.23067 4.0585 5.28379 4.05362 5.33691C4.05181 5.35664 4.04493 5.37557 4.03364 5.39186C4.02365 5.40685 4.00866 5.41684 3.99368 5.42183ZM4.00866 5.03218H3.80884V4.8923L3.81883 4.83235L3.83881 4.79738C3.84287 4.79377 3.84762 4.79102 3.85277 4.7893C3.85792 4.78758 3.86337 4.78693 3.86879 4.78739C3.88377 4.78739 3.89376 4.79239 3.90375 4.80737C3.90875 4.82236 3.91874 4.84234 3.91874 4.87232C3.92533 4.85123 3.9374 4.83227 3.95371 4.81736L4.00866 4.76741V4.81736L3.9687 4.85233L3.93872 4.88231C3.93277 4.88819 3.92772 4.89493 3.92374 4.90229C3.9229 4.90892 3.9229 4.91564 3.92374 4.92227V4.94225L3.91874 4.99221H4.00866V5.03218ZM3.89876 4.98722V4.90229C3.90045 4.88735 3.90045 4.87227 3.89876 4.85733C3.89698 4.85 3.89356 4.84317 3.88877 4.83735C3.88519 4.83227 3.87985 4.82871 3.87378 4.82736C3.86379 4.82736 3.8538 4.83235 3.8488 4.84234L3.83881 4.8923V4.99221H3.90375L3.89876 4.98722ZM4.43329 4.14295V3.91815L4.47326 3.89317L4.67808 3.99309L4.63811 4.01806L4.57816 3.98809L4.47326 4.05303V4.12297L4.43329 4.14295ZM4.46826 4.02806L4.55818 3.9781L4.50823 3.94813C4.49274 3.94074 4.47772 3.9324 4.46326 3.92315L4.46826 3.96311V4.02806ZM5.39745 3.96811L5.60726 3.88318L5.64223 3.90816L5.62725 4.13796L5.59228 4.10799L5.59727 4.04304L5.49736 3.96811L5.43242 3.99309L5.39745 3.96811ZM5.51734 3.95812L5.60227 4.01806V3.95812C5.60458 3.94128 5.60792 3.92459 5.61226 3.90816C5.60161 3.91782 5.58988 3.9262 5.57729 3.93314L5.51734 3.95812ZM6.03189 4.67249L6.22172 4.62753L6.2517 4.76241L6.26169 4.82236L6.2517 4.85733C6.24914 4.8622 6.24559 4.86649 6.2413 4.86993C6.237 4.87337 6.23204 4.87588 6.22672 4.87731C6.21173 4.87731 6.19675 4.87731 6.18676 4.86732C6.17025 4.85059 6.15822 4.82998 6.15179 4.80737C6.15262 4.81568 6.15262 4.82405 6.15179 4.83235L6.1318 4.87232L6.09184 4.93226L6.08185 4.88231L6.11182 4.83235L6.1318 4.80238C6.13857 4.79016 6.14201 4.77638 6.14179 4.76241C6.14071 4.75398 6.13904 4.74564 6.1368 4.73743L6.12681 4.69247L6.04188 4.71246L6.03189 4.67249ZM6.14679 4.68748L6.16677 4.7724C6.16677 4.78739 6.17676 4.80238 6.18176 4.81237C6.18176 4.82236 6.19175 4.82736 6.19675 4.83235L6.21673 4.83735C6.22172 4.83735 6.23172 4.82736 6.23172 4.81736C6.23574 4.80095 6.23574 4.78382 6.23172 4.76741L6.20674 4.67249L6.14679 4.68748Z" fill="#D0D0D0"/>
</g>
<defs>
<clipPath id="clip0_14_419">
<rect width="20" height="15" fill="white"/>
</clipPath>
</defs>
</svg>
