<svg width="20" height="15" viewBox="0 0 20 15" fill="none" xmlns="http://www.w3.org/2000/svg">
<g clip-path="url(#clip0_14_417)">
<path fill-rule="evenodd" clip-rule="evenodd" d="M0 0H20V15H0V0Z" fill="#F41408"/>
<path fill-rule="evenodd" clip-rule="evenodd" d="M0 10H20V15H0V10Z" fill="#21873B"/>
<path fill-rule="evenodd" clip-rule="evenodd" d="M0 0H20V5H0V0Z" fill="black"/>
<path fill-rule="evenodd" clip-rule="evenodd" d="M6.89064 4.40625C7.58751 2.86875 9.53126 2.13125 11.2281 2.76562C11.6264 2.90063 11.9927 3.11588 12.3044 3.39807C12.6162 3.68026 12.8668 4.02339 13.0406 4.40625H6.89064ZM6.07814 4.60625C5.52669 4.56871 4.97912 4.4872 4.44064 4.3625C4.31252 4.32188 4.30627 4.25 4.32189 4.19688C4.33752 4.14375 4.41877 4.08438 4.51564 4.10313C4.69064 4.14688 5.41564 4.32187 6.07814 4.60625ZM9.97189 1.92188C9.84064 1.26562 9.80939 0.546875 9.82189 0.421875C9.83439 0.3 9.90626 0.28125 9.96876 0.28125C10.0313 0.28125 10.1156 0.3375 10.1156 0.428125C10.1156 0.59375 10.1125 1.27188 9.97189 1.92813V1.92188ZM10.3344 1.9375C10.2826 1.4369 10.2794 0.932455 10.325 0.43125C10.35 0.309375 10.425 0.29375 10.4844 0.3C10.5469 0.303125 10.625 0.365625 10.6156 0.45625C10.6 0.621875 10.5344 1.29688 10.3344 1.9375ZM10.6594 1.97812C10.6531 1.3125 10.7531 0.59375 10.7875 0.478125C10.8219 0.35625 10.9 0.346875 10.9594 0.35625C11.0219 0.365625 11.0938 0.434375 11.0781 0.521875C11.0469 0.6875 10.9156 1.35312 10.6594 1.97812ZM11.0031 2.04688C11.0594 1.38437 11.2313 0.678125 11.2781 0.5625C11.325 0.446875 11.4031 0.44375 11.4594 0.45625C11.5219 0.471875 11.5844 0.54375 11.5625 0.63125C11.5125 0.790625 11.3219 1.44375 11.0063 2.04688H11.0031ZM11.3438 2.14687C11.4656 1.49062 11.7031 0.8 11.7594 0.6875C11.8188 0.578125 11.8938 0.578125 11.9531 0.596875C12.0094 0.615625 12.0688 0.696875 12.0375 0.778125C11.8493 1.25494 11.617 1.71317 11.3438 2.14687ZM11.6594 2.26562C11.8406 1.61875 12.1438 0.953125 12.2125 0.84375C12.2813 0.7375 12.3563 0.746875 12.4125 0.771875C12.4688 0.79375 12.5188 0.878125 12.4781 0.959375C12.4 1.10938 12.0875 1.72188 11.6594 2.26562ZM11.9719 2.4125C12.1578 1.93476 12.3879 1.47547 12.6594 1.04062C12.7344 0.940625 12.8125 0.95625 12.8656 0.984375C12.8814 0.993689 12.8951 1.00605 12.906 1.02072C12.9169 1.0354 12.9247 1.0521 12.9291 1.06985C12.9335 1.0876 12.9342 1.10604 12.9314 1.12409C12.9285 1.14215 12.9221 1.15945 12.9125 1.175C12.8188 1.31875 12.4469 1.90625 11.9719 2.4125ZM12.2656 2.58437C12.5688 1.97812 12.9938 1.36563 13.0813 1.27188C13.1688 1.17813 13.2438 1.2 13.2938 1.23125C13.3087 1.24181 13.3213 1.25524 13.331 1.27074C13.3407 1.28625 13.3471 1.30353 13.35 1.32157C13.353 1.33961 13.3522 1.35804 13.3479 1.3758C13.3436 1.39356 13.3359 1.41029 13.325 1.425C13.2156 1.5625 12.7875 2.11562 12.2625 2.58125L12.2656 2.58437ZM12.5406 2.77813C12.9031 2.19688 13.3844 1.62188 13.4813 1.5375C13.575 1.45 13.65 1.475 13.6969 1.5125C13.7106 1.5244 13.7217 1.53893 13.7296 1.55524C13.7375 1.57154 13.742 1.58928 13.7429 1.60738C13.7438 1.62547 13.741 1.64356 13.7347 1.66056C13.7284 1.67755 13.7187 1.69309 13.7063 1.70625C13.5875 1.83437 13.1094 2.35313 12.5406 2.77813ZM12.8 2.99375C13.117 2.57579 13.4705 2.18677 13.8563 1.83125C13.9594 1.75312 14.0281 1.78437 14.0719 1.82187C14.0848 1.83509 14.0949 1.85083 14.1015 1.86812C14.1081 1.88541 14.1111 1.90388 14.1102 1.92236C14.1093 1.94084 14.1046 1.95894 14.0964 1.97553C14.0882 1.99212 14.0767 2.00683 14.0625 2.01875C13.9344 2.1375 13.4063 2.61563 12.8 2.99375ZM13.0375 3.22813C13.3917 2.83629 13.7808 2.47751 14.2 2.15625C14.3125 2.08438 14.3781 2.12188 14.4188 2.16563C14.4563 2.20625 14.4656 2.30313 14.3875 2.35938C13.9627 2.68629 13.5111 2.97689 13.0375 3.22813ZM13.2406 3.47187C13.6314 3.10816 14.0527 2.77881 14.5 2.4875C14.6156 2.425 14.6781 2.46875 14.7125 2.51562C14.75 2.55937 14.7469 2.65625 14.6688 2.70625C14.5188 2.8 13.9094 3.19375 13.2406 3.47187ZM13.425 3.73125C13.8476 3.40152 14.2971 3.10778 14.7688 2.85313C14.8938 2.8 14.9531 2.84687 14.9844 2.89375C15.0156 2.94375 15.0031 3.0375 14.9219 3.08125C14.4404 3.33839 13.9388 3.55578 13.4219 3.73125H13.425ZM13.5938 4.03125C14.0489 3.73795 14.5277 3.48291 15.025 3.26875C15.1531 3.225 15.2063 3.27812 15.2313 3.32812C15.2594 3.37813 15.2406 3.47188 15.15 3.50938C14.9844 3.57813 14.3063 3.86562 13.5938 4.03125ZM13.725 4.31875C14.2064 4.06151 14.7081 3.84412 15.225 3.66875C15.3563 3.6375 15.4031 3.69375 15.425 3.74688C15.4438 3.79688 15.4156 3.89063 15.325 3.91875C15.1531 3.97813 14.45 4.20937 13.725 4.31875ZM13.8313 4.625C14.3349 4.40714 14.8553 4.23052 15.3875 4.09688C15.5188 4.07813 15.5625 4.13438 15.5781 4.19063C15.5938 4.24375 15.5563 4.33125 15.4625 4.35625C15.2844 4.39687 14.5625 4.575 13.8313 4.625ZM9.61876 1.9375C9.47052 1.4546 9.36902 0.958568 9.31564 0.45625C9.31564 0.334375 9.38751 0.30625 9.44689 0.3C9.50939 0.296875 9.60314 0.346875 9.60939 0.434375C9.62501 0.6 9.69064 1.275 9.62189 1.9375H9.61876ZM9.27501 1.97812C9.07955 1.51037 8.92989 1.02476 8.82814 0.528125C8.81564 0.403125 8.88439 0.371875 8.94377 0.3625C9.00627 0.353125 9.10001 0.39375 9.11876 0.48125C9.21652 0.974379 9.26882 1.47544 9.27501 1.97812ZM8.93126 2.04688C8.69127 1.59565 8.49456 1.1227 8.34376 0.634375C8.31876 0.5125 8.38439 0.475 8.44377 0.459375C8.50314 0.446875 8.60001 0.478125 8.62814 0.565625C8.67501 0.725 8.86877 1.37813 8.92814 2.04375L8.93126 2.04688ZM8.60314 2.14062C8.32392 1.71062 8.08538 1.25553 7.89064 0.78125C7.85627 0.6625 7.91564 0.61875 7.97189 0.6C8.03127 0.58125 8.13126 0.60625 8.16564 0.6875C8.22814 0.84375 8.48439 1.48125 8.60314 2.1375V2.14062ZM8.28752 2.25C7.9672 1.84442 7.68476 1.41031 7.44376 0.953125C7.40001 0.8375 7.45626 0.7875 7.51251 0.765625C7.56876 0.740625 7.66877 0.759375 7.71252 0.840625C7.79064 0.990625 8.10314 1.60625 8.28752 2.25ZM7.96564 2.40625C7.60629 2.0281 7.28204 1.61808 6.99689 1.18125C6.94376 1.07187 6.99377 1.01875 7.04689 0.990625C7.10002 0.9625 7.20314 0.971875 7.25314 1.05C7.34689 1.19375 7.72189 1.77812 7.96564 2.40625ZM7.67189 2.575C7.27939 2.22525 6.91861 1.84147 6.59377 1.42813C6.52814 1.32188 6.57189 1.26563 6.62502 1.23125C6.67189 1.2 6.78126 1.2 6.83439 1.275C6.94064 1.40937 7.36877 1.9625 7.67189 2.57188V2.575ZM7.40002 2.7625C6.97519 2.44446 6.5789 2.09 6.21564 1.70312C6.14064 1.60312 6.18127 1.54687 6.22814 1.50937C6.26117 1.48891 6.30016 1.48024 6.33875 1.48478C6.37735 1.48932 6.41326 1.5068 6.44064 1.53437C6.55939 1.65937 7.04064 2.18125 7.40002 2.7625ZM7.13439 2.98125C6.68065 2.6987 6.252 2.37773 5.85314 2.02187C5.76564 1.92812 5.80002 1.86563 5.84377 1.825C5.87537 1.8017 5.914 1.78992 5.95323 1.79162C5.99246 1.79333 6.02993 1.80842 6.05939 1.83438C6.19064 1.95 6.71564 2.42813 7.13439 2.97813V2.98125ZM6.90314 3.2C6.42469 2.95345 5.96786 2.66702 5.53751 2.34375C5.44376 2.25625 5.47189 2.19375 5.51251 2.15C5.55001 2.10625 5.65314 2.08438 5.72814 2.14062C6.14987 2.46006 6.54301 2.81557 6.90314 3.20312V3.2ZM6.68439 3.45625C6.18335 3.24878 5.70044 3.00001 5.24064 2.7125C5.13751 2.63438 5.15939 2.56562 5.19376 2.52187C5.22814 2.475 5.32814 2.44375 5.40939 2.49375C5.55939 2.59063 6.16876 2.97812 6.68439 3.45625ZM6.48752 3.73125C5.79377 3.5125 5.08439 3.18125 4.97501 3.10938C4.86251 3.04062 4.88127 2.97188 4.90939 2.92188C4.93752 2.87187 5.03439 2.83437 5.12189 2.87812C5.27814 2.9625 5.92814 3.3 6.48752 3.73125ZM6.32189 4.0125C5.60939 3.84687 4.87501 3.575 4.75626 3.5125C4.64064 3.45 4.64689 3.38125 4.67502 3.33125C4.70002 3.28125 4.79064 3.23437 4.88126 3.26875C5.04689 3.34062 5.72502 3.625 6.32189 4.0125ZM6.19064 4.29375C5.64586 4.20999 5.1087 4.0825 4.58439 3.9125C4.45939 3.8625 4.46564 3.79062 4.48439 3.74062C4.50627 3.6875 4.59376 3.63437 4.68439 3.6625C4.85939 3.72187 5.55939 3.95312 6.19064 4.29375Z" fill="#F31509"/>
<path fill-rule="evenodd" clip-rule="evenodd" d="M6.07814 4.60627C5.52669 4.56872 4.97912 4.48721 4.44064 4.36252C4.31252 4.3219 4.30627 4.25002 4.32189 4.1969C4.33752 4.14377 4.41877 4.0844 4.51564 4.10315C4.69064 4.1469 5.41564 4.3219 6.07814 4.60627Z" fill="#F31509"/>
<path fill-rule="evenodd" clip-rule="evenodd" d="M4.0437 4.42188H15.9562V4.81563H4.0437V4.42188Z" fill="black"/>
</g>
<defs>
<clipPath id="clip0_14_417">
<rect width="20" height="15" fill="white"/>
</clipPath>
</defs>
</svg>
