<svg width="20" height="15" viewBox="0 0 20 15" fill="none" xmlns="http://www.w3.org/2000/svg">
<mask id="mask0_1825_43596" style="mask-type:luminance" maskUnits="userSpaceOnUse" x="0" y="0" width="20" height="15">
<rect width="20" height="15" fill="white"/>
</mask>
<g mask="url(#mask0_1825_43596)">
<path fill-rule="evenodd" clip-rule="evenodd" d="M0 0V15H20V0H0Z" fill="#E11C1B"/>
<mask id="mask1_1825_43596" style="mask-type:luminance" maskUnits="userSpaceOnUse" x="0" y="0" width="20" height="15">
<path fill-rule="evenodd" clip-rule="evenodd" d="M0 0V15H20V0H0Z" fill="white"/>
</mask>
<g mask="url(#mask1_1825_43596)">
<path fill-rule="evenodd" clip-rule="evenodd" d="M0 0V6H20V0H0Z" fill="#272727"/>
<path fill-rule="evenodd" clip-rule="evenodd" d="M0 10V15H20V10H0Z" fill="#5EAA22"/>
<path fill-rule="evenodd" clip-rule="evenodd" d="M2.50096 8.66613V8.66461L2.49512 8.6656L2.50096 8.66613ZM2.89375 6.2792H2.95812L2.85946 6.26409L2.89375 6.2792ZM4.72345 6.2792C4.75617 6.2163 4.79034 6.15408 4.82591 6.09257L3.395 5.14538L5.08274 5.6944C5.17713 5.56241 5.27833 5.43443 5.38592 5.31085L4.14566 4.13002L5.72618 4.95479C5.84213 4.84408 5.96365 4.73781 6.09037 4.63631L5.08732 3.25066L6.5039 4.33434C6.63568 4.24674 6.77189 4.16387 6.91218 4.08601L6.18969 2.53554L7.38634 3.84912C7.52896 3.78535 7.67499 3.72649 7.82413 3.67279L7.41737 2.00767L8.34396 3.51014C8.49313 3.47028 8.64485 3.43541 8.79884 3.40576L8.73088 1.68401L9.34721 3.32364C9.49939 3.30723 9.65339 3.29585 9.80896 3.28971L10.088 1.57495L10.3671 3.29021C10.5225 3.29663 10.6763 3.30827 10.8283 3.32492L11.4451 1.68401L11.3771 3.40813C11.5305 3.43796 11.6817 3.47299 11.8303 3.51298L12.7586 2.00767L12.3509 3.67687C12.4991 3.73058 12.6443 3.78938 12.7861 3.85304L13.9863 2.53554L13.2613 4.09145C13.4005 4.16903 13.5356 4.25155 13.6664 4.33873L15.0887 3.25066L14.0811 4.64256C14.2066 4.74344 14.327 4.84901 14.4419 4.95895L16.0304 4.13002L14.7834 5.31726C14.8897 5.43988 14.9899 5.56679 15.0833 5.69765L16.781 5.14538L15.3412 6.09847C15.3755 6.15806 15.4086 6.21831 15.4402 6.2792H14.2122C13.3659 5.10608 11.819 4.32068 10.0511 4.32068C8.28311 4.32068 6.73629 5.10608 5.88998 6.2792H4.72345ZM6.59973 6.2792C7.40154 5.45221 8.66053 4.91936 10.0762 4.91936C11.4919 4.91936 12.7508 5.45221 13.5527 6.2792H6.59973ZM17.2179 6.2792H17.2823L17.3166 6.26409L17.2179 6.2792ZM17.6759 8.66476L17.6809 8.6656L17.6759 8.66605V8.66476Z" fill="#E11C1B"/>
</g>
</g>
</svg>
