<svg width="20" height="15" viewBox="0 0 20 15" fill="none" xmlns="http://www.w3.org/2000/svg">
<g clip-path="url(#clip0_14_328)">
<mask id="mask0_14_328" style="mask-type:luminance" maskUnits="userSpaceOnUse" x="0" y="0" width="20" height="15">
<path d="M0 0H20V15H0V0Z" fill="white"/>
</mask>
<g mask="url(#mask0_14_328)">
<path d="M0 0H20V15H0V0Z" fill="#CC0000"/>
<path d="M0 0H20V1.07187H0V0Z" fill="#CC0000"/>
<path d="M0 1.0719H20V2.14377H0V1.0719Z" fill="white"/>
<path d="M0 2.1438H20V3.21567H0V2.1438Z" fill="#CC0000"/>
<path d="M0 3.21558H20V4.2812H0V3.21558Z" fill="white"/>
<path d="M0 4.28442H20V5.3563H0V4.28442Z" fill="#CC0000"/>
<path d="M0 5.3562H20V6.42808H0V5.3562Z" fill="white"/>
<path d="M0 6.4281H20V7.49998H0V6.4281Z" fill="#CC0000"/>
<path d="M0 7.5H20V8.57187H0V7.5Z" fill="white"/>
<path d="M0 8.5719H20V9.64377H0V8.5719Z" fill="#CC0000"/>
<path d="M0 9.6438H20V10.7157H0V9.6438Z" fill="white"/>
<path d="M0 10.7156H20V11.7812H0V10.7156Z" fill="#CC0000"/>
<path d="M0 11.7844H20V12.8563H0V11.7844Z" fill="white"/>
<path d="M0 12.8562H20V13.9281H0V12.8562Z" fill="#CC0000"/>
<path d="M0 13.9281H20V15H0V13.9281Z" fill="white"/>
<path d="M0 0.015625H10V8.5875H0V0.015625Z" fill="#000066"/>
<path d="M6.48436 2.30628L6.67186 3.57815L7.39061 2.51565L7.00311 3.74065L8.11249 3.09065L7.23436 4.02815L8.51561 3.92815L7.31874 4.39065L8.51561 4.85315L7.23436 4.75315L8.11249 5.69065L7.00311 5.04065L7.38749 6.26878L6.66874 5.20315L6.48124 6.47503L6.29686 5.20315L5.57811 6.26565L5.96561 5.04065L4.85624 5.69065L5.73124 4.75315L4.44999 4.85315L5.64999 4.39065L4.45311 3.92815L5.73436 4.02815L4.85624 3.09065L5.96561 3.74065L5.57811 2.51253L6.29686 3.57815L6.48436 2.30628ZM5.44374 2.3594C5.10535 2.20886 4.73471 2.1453 4.3655 2.17449C3.9963 2.20368 3.64024 2.32469 3.32972 2.52653C3.01919 2.72838 2.76405 3.00464 2.58748 3.3302C2.41092 3.65576 2.31854 4.0203 2.31874 4.39065C2.31854 4.76101 2.41092 5.12555 2.58748 5.45111C2.76405 5.77667 3.01919 6.05293 3.32972 6.25477C3.64024 6.45661 3.9963 6.57763 4.3655 6.60682C4.73471 6.63601 5.10535 6.57244 5.44374 6.4219C5.07013 6.69027 4.62973 6.85036 4.171 6.88455C3.71226 6.91873 3.25299 6.82569 2.84374 6.61565C2.43495 6.40533 2.09208 6.08637 1.8528 5.69383C1.61353 5.30129 1.48713 4.85037 1.48749 4.39065C1.48764 3.93105 1.61449 3.48039 1.85409 3.08818C2.09369 2.69597 2.43677 2.37741 2.84563 2.16749C3.25449 1.95756 3.7133 1.86442 4.17166 1.89827C4.63001 1.93213 5.07016 2.09169 5.44374 2.3594Z" fill="#FFCC00"/>
</g>
</g>
<defs>
<clipPath id="clip0_14_328">
<rect width="20" height="15" fill="white"/>
</clipPath>
</defs>
</svg>
