<svg width="20" height="15" viewBox="0 0 20 15" fill="none" xmlns="http://www.w3.org/2000/svg">
<mask id="mask0_1825_43653" style="mask-type:luminance" maskUnits="userSpaceOnUse" x="0" y="0" width="20" height="15">
<rect width="20" height="15" fill="white"/>
</mask>
<g mask="url(#mask0_1825_43653)">
<path fill-rule="evenodd" clip-rule="evenodd" d="M0 0V15H20V0H0Z" fill="#F7FCFF"/>
<mask id="mask1_1825_43653" style="mask-type:luminance" maskUnits="userSpaceOnUse" x="0" y="0" width="20" height="15">
<path fill-rule="evenodd" clip-rule="evenodd" d="M0 0V15H20V0H0Z" fill="white"/>
</mask>
<g mask="url(#mask1_1825_43653)">
<path fill-rule="evenodd" clip-rule="evenodd" d="M0 0V5H20V0H0Z" fill="#FECA00"/>
<path fill-rule="evenodd" clip-rule="evenodd" d="M0 10V15H20V10H0Z" fill="#009933"/>
<path d="M0 4.375H-0.625V5V10V10.625H0H20H20.625V10V5V4.375H20H0Z" fill="#272727" stroke="white" stroke-width="1.25"/>
</g>
<path fill-rule="evenodd" clip-rule="evenodd" d="M0 0V15L11.25 7.5L0 0Z" fill="#F50100"/>
<mask id="mask2_1825_43653" style="mask-type:luminance" maskUnits="userSpaceOnUse" x="0" y="0" width="12" height="15">
<path fill-rule="evenodd" clip-rule="evenodd" d="M0 0V15L11.25 7.5L0 0Z" fill="white"/>
</mask>
<g mask="url(#mask2_1825_43653)">
<path fill-rule="evenodd" clip-rule="evenodd" d="M5.04282 8.97076L2.68099 10.8773L3.76434 8.32942L1.90283 6.53678H4.10009L5.0017 4.375L5.95932 6.53678H8.15283L6.19299 8.32942L7.17383 10.8773L5.04282 8.97076Z" fill="#FECA00"/>
<path fill-rule="evenodd" clip-rule="evenodd" d="M3.84734 7.49015L3.44678 8.82793C3.44678 8.82793 4.79905 8.81455 4.96147 8.95119C5.45084 8.64603 6.45831 8.82793 6.45831 8.82793L5.92246 7.39622C5.92246 7.39622 5.24305 7.08837 4.96147 7.25716C4.27129 7.10126 3.84734 7.49015 3.84734 7.49015Z" fill="#F7FCFF"/>
<path d="M7.22745 9.5102C7.33127 9.64807 7.30366 9.844 7.16579 9.94782C7.02791 10.0516 6.83199 10.024 6.72817 9.88616L4.11561 6.41663C4.01179 6.27876 4.0394 6.08283 4.17727 5.97902C4.31515 5.8752 4.51107 5.9028 4.61489 6.04068L7.22745 9.5102Z" fill="black"/>
<path d="M4.35889 6.14985L4.10889 5.84985" stroke="black" stroke-width="0.625" stroke-linecap="round" stroke-linejoin="round"/>
<path fill-rule="evenodd" clip-rule="evenodd" d="M3.50288 5.85156L2.74756 7.06115L3.12522 7.71533L3.98908 6.43143L4.14446 6.03443L3.98908 5.85156H3.50288Z" fill="black"/>
<path fill-rule="evenodd" clip-rule="evenodd" d="M2.52441 9.44282L2.88855 9.95642L5.69831 6.63199L5.81486 6.76224L6.46255 6.15291L7.49765 5.02686L6.46255 5.87285L6.12779 5.78003L5.81486 6.27166H5.50093L3.20588 8.82642L2.52441 9.44282Z" fill="black"/>
</g>
</g>
</svg>
