<svg width="20" height="15" viewBox="0 0 20 15" fill="none" xmlns="http://www.w3.org/2000/svg">
<g clip-path="url(#clip0_14_333)">
<path d="M0 0H20V15H0V0Z" fill="#009543"/>
<path d="M0 0H20V10H0V0Z" fill="#ED4135"/>
<path d="M0 0H20V5H0V0Z" fill="#0035AD"/>
<path d="M7.49998 12.4156C10.2148 12.4156 12.4156 10.2148 12.4156 7.49998C12.4156 4.78515 10.2148 2.58435 7.49998 2.58435C4.78515 2.58435 2.58435 4.78515 2.58435 7.49998C2.58435 10.2148 4.78515 12.4156 7.49998 12.4156Z" fill="#FAE600" stroke="black" stroke-width="0.265"/>
<path d="M6.66565 8.23435H8.33127ZM6.66565 6.99998H8.33127ZM7.50002 2.59998V11Z" fill="black"/>
<path d="M6.66565 8.23435H8.33127M6.66565 6.99998H8.33127M7.50002 2.59998V11" stroke="black" stroke-width="0.32"/>
<path d="M5.5188 12.0125C7.52505 12.8344 9.4063 12.0657 9.4063 12.0657C9.4063 12.0657 8.69692 11.2969 8.33442 10.9969C7.97817 10.7032 6.93442 10.7157 6.57817 10.9969C6.20898 11.3183 5.85544 11.6572 5.5188 12.0125Z" fill="black"/>
<path d="M7.49995 10.5656C7.80371 10.5656 8.04995 10.2074 8.04995 9.76558C8.04995 9.32375 7.80371 8.96558 7.49995 8.96558C7.19619 8.96558 6.94995 9.32375 6.94995 9.76558C6.94995 10.2074 7.19619 10.5656 7.49995 10.5656Z" fill="black"/>
<path d="M7.49998 8.03748C7.86759 8.03748 8.1656 7.8486 8.1656 7.6156C8.1656 7.38261 7.86759 7.19373 7.49998 7.19373C7.13236 7.19373 6.83435 7.38261 6.83435 7.6156C6.83435 7.8486 7.13236 8.03748 7.49998 8.03748Z" fill="black"/>
<path d="M7.49998 6.33125C7.86759 6.33125 8.1656 6.03324 8.1656 5.66563C8.1656 5.29801 7.86759 5 7.49998 5C7.13236 5 6.83435 5.29801 6.83435 5.66563C6.83435 6.03324 7.13236 6.33125 7.49998 6.33125Z" fill="black"/>
<path d="M8.29998 3.1844C8.29998 3.1844 8.35623 3.27815 8.23748 3.4969C7.65623 4.54377 7.07185 4.56565 6.96248 4.65627C6.83748 4.75627 6.78748 4.75002 6.78748 4.75002C6.79685 4.6594 6.8031 4.29377 6.80935 4.2594C6.89998 3.76877 7.63748 3.77502 8.2156 3.27502C8.30623 3.1969 8.29998 3.18127 8.29998 3.18127V3.1844ZM6.34998 5.4344C6.34998 5.4344 6.48435 5.8094 6.49998 6.1844C6.53123 6.7844 7.10623 6.80002 7.49998 6.80002V6.46565C7.2031 6.46565 6.94685 6.4219 6.73435 5.9844C6.62254 5.79019 6.49393 5.60615 6.34998 5.4344ZM6.33435 10.2656C6.33435 10.2656 6.54373 10.0063 6.7906 9.40002C6.9156 9.0844 7.22185 8.90002 7.49998 8.90002V8.43127C6.8656 8.43127 6.56248 8.66565 6.53123 9.01252C6.49146 9.43389 6.42571 9.85239 6.33435 10.2656Z" fill="black"/>
<path d="M8.65 5.43433C8.65 5.43433 8.51562 5.80933 8.5 6.18433C8.46875 6.78433 7.89375 6.79995 7.5 6.79995V6.4687C7.79688 6.4687 8.05312 6.42495 8.26562 5.98433C8.37812 5.79058 8.50625 5.6062 8.65 5.43433ZM8.66562 10.2687C8.66562 10.2687 8.45625 10.0062 8.20938 9.39995C8.08438 9.08433 7.77812 8.89995 7.5 8.89995V8.43745C8.13437 8.43745 8.4375 8.67183 8.46875 9.0187C8.50865 9.43902 8.5744 9.85647 8.66562 10.2687Z" fill="black"/>
</g>
<defs>
<clipPath id="clip0_14_333">
<rect width="20" height="15" fill="white"/>
</clipPath>
</defs>
</svg>
