<svg width="20" height="15" viewBox="0 0 20 15" fill="none" xmlns="http://www.w3.org/2000/svg">
<g clip-path="url(#clip0_14_525)">
<path fill-rule="evenodd" clip-rule="evenodd" d="M6.08752 0H13.9125V15H6.08752V0Z" fill="white"/>
<path fill-rule="evenodd" clip-rule="evenodd" d="M0 0H6.0875V15H0V0ZM13.9125 0H20V15H13.9125V0Z" fill="#198200"/>
<path fill-rule="evenodd" clip-rule="evenodd" d="M9.79688 10.9781V12.6218L10.4625 12.6281C10.4625 12.6281 10.25 11.1968 10.3656 11.0031C10.4813 10.8156 10.5906 10.8406 10.5906 10.8406C10.5906 10.8406 11.025 10.9718 11.0719 10.95C11.1188 10.9312 11.0656 10.7875 11.2969 10.8062C11.3719 10.7781 11.3313 10.65 11.4 10.6437C11.4688 10.6343 12.7906 11.0125 13.0781 10.6562C13.0031 10.4562 12.7438 10.6406 12.675 10.65C12.6125 10.65 12.3531 10.525 12.2031 10.65C12.0656 10.5468 11.4406 10.4781 11.4406 10.4781C11.3594 10.3968 12.9281 10.5187 13.0188 10.4562C13.2031 10.2718 12.675 10.2937 12.5938 10.3531C12.5273 10.313 12.4518 10.2902 12.3743 10.2869C12.2967 10.2837 12.2196 10.3 12.15 10.3343C12.0969 10.2062 11.5875 10.2593 11.3063 10.225C11.2125 10.1718 11.2281 10.1406 11.2906 10.1062C11.8844 10.1312 12.4719 10.2093 13.0656 10.1843C13.225 9.97495 12.8625 9.8937 12.6406 10.075C12.5094 9.8562 12.2438 10.0656 12.0656 10.0437C11.8875 10.025 11.9719 9.8062 12.1969 9.84058C12.4219 9.87183 12.825 9.82808 12.9 9.72495C12.975 9.62183 12.8563 9.51558 12.4844 9.61558C12.3594 9.49058 12.0781 9.61558 11.95 9.6562C11.775 9.55933 11.3719 9.64058 11.2375 9.67495C11.1031 9.5937 11.9406 9.4562 11.9406 9.4562C12.2656 9.44995 12.45 9.3937 12.55 9.3687C13.0406 9.1062 12.5438 9.07808 12.2875 9.2687C12.1281 9.1437 11.975 9.27808 11.8313 9.32495C11.6965 9.37057 11.5547 9.39174 11.4125 9.38745C11.4125 9.3687 11.8063 9.12808 11.8063 9.12808C11.8063 9.12808 12.2844 9.0937 12.3813 9.0812C12.475 9.06558 12.9688 8.81558 12.2969 8.98433C12.0656 9.00308 11.9281 8.99058 11.8375 8.99683C11.3219 8.9437 11.8875 8.8937 11.8875 8.8937C11.8875 8.8937 12.6188 8.82808 12.6281 8.79058C12.6406 8.50933 12.0313 8.64058 12.025 8.64058C12.025 8.43745 11.4563 8.64683 11.4563 8.64058C11.3469 8.57808 11.5188 8.51245 11.5188 8.51245C11.6688 8.47495 11.8938 8.46245 11.9531 8.41558C11.9531 8.41558 12.3781 8.41245 12.4281 8.29995C12.325 8.00933 11.5281 8.34995 11.4219 8.39995C11.2781 8.39995 11.5156 8.1687 11.525 8.16245C11.5313 8.15308 12.1813 8.12808 12.4906 7.70933C12.5125 7.4562 12.1281 7.85308 12.1281 7.85308C12.0969 7.52183 11.7094 7.87495 11.4844 7.89995C11.2563 7.9312 11.25 7.79683 11.4063 7.77495C11.5625 7.7562 11.7438 7.77183 11.8313 7.5312C11.9219 7.29058 12.1875 7.5437 12.2375 7.4562C12.2844 7.36558 12.1406 7.29058 12.1406 7.29058C12.1406 7.29058 12.3406 7.08433 12.0156 7.0937C11.6969 7.09995 11.2781 7.04995 11.2781 7.04995C11.2781 7.04995 11.6125 6.92183 11.9281 6.92495C12.2406 6.93433 12.0719 6.70308 11.7719 6.70308C11.4688 6.70308 11.3125 6.59995 11.3125 6.59995L11.825 6.4062L11.7938 6.26245C11.7938 6.26245 12.0938 6.02183 11.6688 6.07808L11.1938 6.14058L10.3375 6.2687C10.3313 6.2687 10.1063 6.19995 10.325 6.1437C10.5438 6.08745 11.3188 5.93433 11.4344 5.97495C11.55 6.01558 11.4219 5.68745 11.0094 5.64683C10.6 5.6062 10.3438 5.74995 10.3438 5.74995C10.3438 5.74995 10.0781 5.65308 10.325 5.57183C10.5719 5.48745 10.9625 5.59995 10.9625 5.59995C10.9625 5.59995 11.4 5.4687 11.0375 5.41245C10.675 5.35933 10.5594 5.46245 10.3938 5.4687C10.3281 5.38433 10.9625 5.36558 11.0031 5.29683C10.9344 5.17183 10.5406 5.29683 10.3094 5.29683C10.2156 5.2562 10.2063 5.18745 10.3188 5.14683C10.5531 5.13745 10.775 5.14995 11.0094 5.14058C11.0031 5.01558 11.0094 4.8687 11.0031 4.74058C10.7031 4.68745 10.3531 4.7812 10.1875 4.77183C10.2313 4.63745 10.875 4.59995 10.9469 4.56245C11.0969 4.37495 10.3188 4.56245 10.3094 4.56245C10.175 4.5437 10.1844 4.4562 10.2688 4.4062C10.4688 4.38433 10.9125 4.43745 10.8813 4.29995C10.8563 4.17495 10.5688 4.24058 10.4563 4.2687C10.3375 4.29683 10.1656 4.27495 10.1656 4.27495C10.0938 4.17495 10.8375 4.21558 10.8313 4.13745C10.8219 4.04995 10.3594 4.11245 10.2 4.1187C10.0781 4.03433 10.7938 3.97808 10.8031 3.9687C10.8313 3.74058 10.325 3.9687 10.2281 3.9687C10.1344 3.9687 10.1813 3.82495 10.1813 3.82495C10.1813 3.82495 10.3781 3.73433 10.3719 3.72183C10.3206 3.69419 10.266 3.67319 10.2094 3.65933C10.1938 3.65933 10.2094 3.50308 10.2094 3.50308C10.2094 3.50308 10.3719 3.37808 10.3594 3.3437C10.3438 3.30933 10.1656 3.37183 10.1656 3.37183V3.23433C10.1656 3.23433 10.2969 3.22183 10.3094 3.15933C10.325 3.09683 10.1531 3.09058 10.1531 3.09058L10.0844 2.37183L10.0219 3.0437L9.79688 3.07495C9.79688 3.07495 9.95313 3.16558 9.98438 3.2562C10.0094 3.3437 9.79063 3.3187 9.79063 3.3187C9.79063 3.3187 9.96876 3.4687 9.98126 3.52183C9.99688 3.57808 9.73438 3.59058 9.73438 3.59058C9.73438 3.59058 9.95313 3.74683 9.96876 3.83745C9.98126 3.92495 9.96876 3.97495 9.96876 3.97495C9.96876 3.97495 9.60626 3.65933 9.37501 3.74683C9.25001 3.80933 9.65001 3.84058 9.91251 4.0687C9.91251 4.12183 9.27188 3.91245 9.25001 4.0437C9.26251 4.07808 9.93438 4.17495 9.98126 4.26245C9.73751 4.27183 9.23126 4.20933 9.25001 4.29058C9.19688 4.38433 9.72501 4.3312 9.94688 4.4062C10.0125 4.4812 10.0063 4.5437 9.89376 4.54995C9.67813 4.44683 9.20313 4.37183 9.20001 4.50308C9.20313 4.53433 9.69376 4.51558 9.87188 4.6312C9.63438 4.68745 8.82813 4.52183 8.82501 4.59995C8.84688 4.64058 8.97501 4.80308 9.19376 4.79683C9.41251 4.79058 9.92188 4.88433 9.95626 4.95308C9.98751 5.02183 9.29688 4.80933 9.03751 4.93433C8.77501 5.05933 9.78438 4.9812 9.94688 5.1312C10.1125 5.28433 9.61876 5.1187 9.61876 5.1187C9.61876 5.1187 8.93126 5.02495 8.83126 5.07183C8.72813 5.1187 8.61251 5.22808 8.61251 5.22808C8.61251 5.22808 8.68126 5.36558 8.75001 5.33745C8.81876 5.30933 8.72813 5.42183 8.72813 5.42183C8.72813 5.42183 9.68751 5.65308 9.90001 5.85933C10.1125 6.06558 8.68126 5.53745 8.68126 5.53745C8.68126 5.53745 8.10313 5.74995 8.71251 5.76245C8.64376 5.86558 8.75001 5.92808 8.75001 5.92808C8.75001 5.92808 9.76251 6.14058 9.86563 6.30308C9.96876 6.4687 9.17501 6.14683 8.99376 6.0562C8.81563 5.9687 8.30938 6.11245 8.31563 6.14683C8.32501 6.17808 8.56563 6.22808 8.56876 6.29058C8.57813 6.35308 8.27501 6.37183 8.27501 6.42808C8.27501 6.4812 9.55626 6.74995 9.90001 7.03745C10.2438 7.32495 8.89376 6.6937 8.89376 6.6937C8.89376 6.6937 8.96876 6.79683 8.89376 6.82495C8.81563 6.85308 8.55001 6.44058 8.11251 6.6937C8.03126 6.79995 8.49376 6.8812 8.61251 6.8937C8.57188 6.99683 8.53751 7.0312 8.70001 7.13433C8.86251 7.23745 8.37813 6.98433 8.37813 6.99683L8.41251 7.17495C8.26251 7.04995 8.07813 7.01558 7.90626 7.14058C7.90626 7.14058 7.90001 7.26558 8.07813 7.34058C7.98126 7.53745 8.18751 7.47495 8.51563 7.66245C8.02813 7.53433 7.98751 7.77183 8.33751 7.82495C8.68751 7.87808 9.64688 7.91558 9.87188 8.20933C10.1 8.50308 9.55001 8.09683 9.48751 8.08433C9.47501 8.0937 9.46251 8.23745 9.46251 8.23745C9.31563 8.15308 9.18126 8.07495 9.00626 8.04058C8.99063 8.0687 8.99688 8.1062 8.98126 8.13433C8.82501 8.0187 8.68438 7.94058 8.45313 7.92808L8.42501 8.03745C8.42501 8.03745 8.23438 7.79683 7.85626 8.03745C7.64688 8.19058 8.65313 8.0937 8.81563 8.27183C8.98126 8.44995 8.85001 8.47808 8.85001 8.47808L8.44063 8.32495C8.44063 8.32495 7.95313 8.23745 7.81563 8.34683C7.67813 8.4562 9.81563 8.72183 9.87813 9.0187C9.92188 9.17495 9.37813 8.84995 8.90626 8.70933L8.85001 8.86558C8.85001 8.86558 8.66251 8.67808 8.45313 8.64683C8.44688 8.64683 8.49376 8.83433 8.49376 8.83433C8.49376 8.83433 7.96876 8.58433 7.70001 8.71558C7.43438 8.84683 8.63126 8.91558 8.74063 9.03745C8.85001 9.16245 8.37813 8.9562 8.33438 9.03745C8.29688 9.12183 7.71251 8.88745 7.72188 8.99683C7.72813 9.1062 7.80313 9.1687 7.80313 9.1687C7.80313 9.1687 9.01563 9.28433 9.05626 9.42808C9.09688 9.57183 8.38438 9.34683 8.38438 9.34683C8.38438 9.34683 8.31563 9.44995 8.37188 9.49683C8.42501 9.54683 7.95938 9.22495 8.00313 9.43433C7.85001 9.37495 7.45938 9.19058 7.51563 9.33433C7.56876 9.47808 8.61876 9.68433 8.61876 9.68433C8.61876 9.68433 8.15938 9.71558 8.18126 9.83433C7.58751 9.47495 7.60313 9.70308 7.61876 9.70933C7.63126 9.71558 6.85626 9.5187 7.44063 9.83433C8.02501 10.15 7.75313 10.0937 7.76251 10.1C7.76876 10.1062 7.82501 10.2562 7.80938 10.2562C7.79688 10.2562 7.41251 10.0531 7.28126 10.0375C7.15313 10.025 6.53438 10.2093 7.19376 10.5C7.85313 10.7906 8.25626 10.4312 8.61876 10.4687C8.98126 10.5125 9.15001 10.575 9.11876 10.6875C9.08438 10.8062 8.74688 10.3093 8.39376 10.7406C7.98751 10.6593 7.71563 10.6156 7.92501 10.9093C7.26876 10.6625 6.86251 10.9843 7.69376 11.1156C8.50626 11.1406 9.00626 10.9156 9.00626 10.9156C9.00626 10.9156 9.14688 11.1687 9.34376 10.9906C9.54376 10.8125 9.55001 11.0593 9.55626 11.0593L9.75001 10.9781H9.79688Z" fill="#198200" stroke="black" stroke-width="0.035" stroke-linecap="round" stroke-linejoin="round"/>
<path fill-rule="evenodd" clip-rule="evenodd" d="M9.875 10.0063V9.89063C9.875 9.89063 9.61875 9.84375 9.49063 9.86875C9.41875 9.82813 9.34688 9.77188 9.25625 9.81875C9.24063 9.85625 9.42187 9.95313 9.48125 9.95313C9.60995 9.99147 9.74387 10.0094 9.87813 10.0063H9.875ZM9.875 10.1938C9.875 10.1938 9.61562 10.0969 9.5125 10.2063C9.52812 10.3219 9.81563 10.3781 9.87813 10.3469C9.9375 10.3156 9.87813 10.1969 9.875 10.1906V10.1938ZM10.3125 10.2375V10.3188C10.3125 10.3188 10.6188 10.3781 10.675 10.3125C10.7281 10.2469 10.425 10.2031 10.3094 10.2375H10.3125ZM10.2969 9.91875L10.3062 10.0094C10.3062 10.0094 10.575 10.0688 10.6781 9.92188C10.7813 9.775 10.4437 9.92188 10.2969 9.91875ZM10.3094 9.60625V9.66875C10.3094 9.66875 10.5125 9.7 10.5594 9.6125C10.6031 9.525 10.3156 9.6125 10.3094 9.60625ZM9.89062 9.41875C9.85938 9.37813 9.75 9.26875 9.45938 9.2375C9.25625 9.2375 9.825 9.53438 9.89062 9.42188V9.41875ZM10.3031 9.11563L10.2969 9.2C10.2969 9.2 10.9844 8.99375 11.1438 9.00938C11.2875 8.96875 11.3188 8.86875 11.3125 8.86875C11.1875 8.77813 10.5969 8.94063 10.3031 9.11563ZM10.3188 8.87188L10.3094 8.95313C10.3094 8.95313 10.7938 8.85938 10.925 8.76563C11.0531 8.67188 10.325 8.875 10.3188 8.87188ZM10.3 8.63438V8.71563C10.3 8.71563 10.6219 8.70313 10.6906 8.64063C10.7313 8.575 10.4031 8.63125 10.3 8.63438ZM10.975 9.3125C10.975 9.3125 11.1438 9.3375 11.175 9.2875C11.1688 9.2 10.975 9.31875 10.975 9.3125ZM10.3125 8.33125L10.3156 8.50938C10.3156 8.50938 11.0938 8.2625 11.1438 8.21875C11.1906 8.17188 11.3 8.03125 10.3125 8.33125ZM10.2906 8.08438V8.21563C10.2906 8.21563 10.6031 8.19063 10.7469 8.075C10.8906 7.95625 10.2906 8.0875 10.2906 8.08438ZM9.91562 7.79375L9.93437 7.90938L8.90625 7.57813C8.90938 7.57813 8.85625 7.40938 9.91562 7.79375ZM9.93125 7.37813C9.93125 7.39063 9.93125 7.49063 9.925 7.4875C9.925 7.4875 9.2125 7.19063 9.18437 7.21563C9.09062 6.99688 9.93437 7.38438 9.93437 7.37813H9.93125ZM10.2781 7.56563L10.2906 7.6625C10.2906 7.6625 10.7281 7.57188 10.7531 7.52813C10.7781 7.48438 10.2781 7.56563 10.2781 7.5625V7.56563ZM10.2875 7.79688C10.2938 7.81875 10.3 7.9 10.3 7.9C10.3 7.9 10.475 7.88438 10.5031 7.84375C10.5281 7.80313 10.2875 7.79688 10.2875 7.79688ZM10.2625 7.26563V7.35938C10.2625 7.35938 10.7437 7.26563 10.7937 7.22188C10.8469 7.175 10.2531 7.26563 10.2625 7.26563ZM10.2625 7C10.2625 7.00625 10.2469 7.09688 10.2594 7.09688C10.2719 7.09688 10.8406 7.00313 10.9312 6.91875C11.0187 6.84063 10.275 7.00938 10.2656 7H10.2625ZM10.2563 6.53438V6.6375C10.2563 6.6375 10.625 6.55938 10.6938 6.48125C10.7625 6.40313 10.2563 6.54375 10.2563 6.53438ZM10.1938 5.85938L10.2 6.00938C10.2 6.00938 10.7 5.94063 10.7688 5.85938C10.8406 5.775 10.1906 5.85938 10.1938 5.85938ZM9.9625 4.71875V4.8125C9.9625 4.8125 9.72813 4.80312 9.78438 4.7625C9.84063 4.72187 9.9625 4.72813 9.9625 4.71875ZM10.1812 4.84375L10.1875 4.975C10.1875 4.975 10.4906 4.94375 10.5125 4.89687C10.5375 4.85 10.1875 4.84688 10.1812 4.84688V4.84375ZM10.1625 5.03125C10.1625 5.03125 10.1688 5.1125 10.175 5.1125C10.1813 5.1125 10.2969 5.10313 10.3219 5.07188C10.3469 5.04063 10.175 5.04063 10.1656 5.03125H10.1625ZM9.90625 5.4C9.90625 5.40938 9.91563 5.525 9.90625 5.51875C9.89687 5.5125 9.24375 5.32813 9.18125 5.33125C9.12187 5.33125 9.10625 5.17813 9.90625 5.4ZM9.95938 5.61563C9.95938 5.6375 9.975 5.75938 9.95 5.75313C9.92812 5.74688 9.50313 5.6125 9.54688 5.57188C9.59062 5.53125 9.95938 5.625 9.95938 5.61563ZM9.92188 6.52188L9.925 6.63125C9.925 6.63125 9.18438 6.40625 9.15938 6.36875C9.13438 6.33125 9.0625 6.15625 9.92188 6.52188ZM9.95312 6.7875V6.89063L8.94687 6.5375C8.94687 6.5375 8.86562 6.275 9.95 6.7875H9.95312Z" fill="white" stroke="black" stroke-width="0.04" stroke-linecap="round" stroke-linejoin="round"/>
<path fill-rule="evenodd" clip-rule="evenodd" d="M8.75933 10.2719L8.75308 10.3813C8.75308 10.3813 8.55933 10.325 8.49683 10.2157C8.60933 10.1844 8.76245 10.275 8.75933 10.2719Z" fill="white" stroke="black" stroke-width="0.04" stroke-linejoin="round"/>
</g>
<defs>
<clipPath id="clip0_14_525">
<rect width="20" height="15" fill="white"/>
</clipPath>
</defs>
</svg>
