<svg width="20" height="15" viewBox="0 0 20 15" fill="none" xmlns="http://www.w3.org/2000/svg">
<g clip-path="url(#clip0_14_329)">
<path d="M0 0H20V15H0V0Z" fill="#0067C6"/>
<path d="M0 5H20V10H0V5Z" fill="white"/>
<path d="M7.75 7.48438L8 7.5V7.4625L7.90625 7.45625L7.9125 7.3375L8.01562 7.2625L8.01875 7.21562L7.90938 7.29375C7.90625 7.26875 7.89062 7.24062 7.86562 7.23125C7.84062 7.225 7.81562 7.225 7.79375 7.24062C7.76875 7.25937 7.7625 7.29062 7.7625 7.31875L7.75 7.48438ZM7.7875 7.45L7.79688 7.325C7.8 7.30625 7.80313 7.28125 7.82188 7.26875C7.82584 7.2661 7.83036 7.26439 7.83508 7.26375C7.83981 7.26311 7.84462 7.26356 7.84914 7.26507C7.85367 7.26658 7.85779 7.2691 7.86119 7.27245C7.86458 7.2758 7.86717 7.27987 7.86875 7.28438C7.88125 7.31563 7.875 7.35 7.87187 7.38438L7.86875 7.45312L7.7875 7.45ZM7.78125 7.1L8.025 7.15625L8.08125 6.91875C8.06979 6.9167 8.05833 6.91462 8.04688 6.9125L8 7.1125L7.925 7.09688L7.96875 6.91563L7.93437 6.90625L7.89062 7.0875L7.82812 7.07188L7.87187 6.87813L7.83437 6.87187L7.78125 7.1ZM7.86875 6.77187L8.10625 6.85625L8.11875 6.82188L8.025 6.79063L8.0625 6.68125C8.06875 6.65 8.075 6.61875 8.05937 6.5875C8.0521 6.5778 8.04266 6.56992 8.03181 6.5645C8.02097 6.55907 8.009 6.55625 7.99687 6.55625C7.96562 6.55625 7.94687 6.57813 7.93437 6.60313C7.91562 6.63438 7.90313 6.67187 7.89375 6.70937L7.86875 6.77187ZM7.91563 6.75L7.95312 6.64375C7.9625 6.625 7.97188 6.60313 7.99375 6.59688C7.99809 6.59597 8.00257 6.59601 8.0069 6.59697C8.01123 6.59794 8.0153 6.59981 8.01885 6.60247C8.0224 6.60513 8.02534 6.60852 8.02747 6.6124C8.02961 6.61629 8.0309 6.62058 8.03125 6.625C8.0375 6.65625 8.02187 6.6875 8.0125 6.71875L7.99062 6.77812L7.91563 6.75ZM8 6.46875L8.13437 6.55C8.15937 6.5625 8.19063 6.56875 8.21875 6.55625C8.25263 6.53327 8.27877 6.50059 8.29375 6.4625C8.30625 6.43125 8.31875 6.39375 8.3 6.3625C8.28125 6.33125 8.24687 6.31875 8.21562 6.3L8.13125 6.25L8.1125 6.28125L8.2375 6.35625C8.25938 6.36875 8.275 6.3875 8.27188 6.41563C8.26565 6.44424 8.2528 6.47099 8.23438 6.49375C8.22187 6.5125 8.19688 6.52813 8.17188 6.525C8.14687 6.51875 8.125 6.5 8.10312 6.4875L8.01875 6.44063L8 6.47188V6.46875ZM8.18125 6.17812L8.37813 6.32812L8.47188 6.20937C8.49063 6.18125 8.50312 6.14687 8.49375 6.11562C8.48794 6.1036 8.47915 6.09326 8.4682 6.0856C8.45726 6.07794 8.44454 6.07322 8.43125 6.07188C8.41562 6.07188 8.4 6.08125 8.39375 6.08437C8.4 6.05625 8.37812 6.03125 8.35625 6.025C8.325 6.01563 8.29375 6.03438 8.275 6.05625L8.2125 6.13438L8.18125 6.17812ZM8.23125 6.16875C8.25312 6.1375 8.275 6.10625 8.3 6.08125C8.3125 6.06875 8.33125 6.05 8.34688 6.0625C8.3625 6.06875 8.36875 6.09063 8.35938 6.10313C8.34687 6.13125 8.32812 6.15 8.30937 6.175L8.28438 6.20937L8.23125 6.16875ZM8.3125 6.23125L8.38437 6.1375C8.39687 6.125 8.41562 6.10625 8.43437 6.1125C8.45312 6.11563 8.46563 6.13437 8.45938 6.15312C8.45 6.18437 8.425 6.20938 8.40312 6.2375L8.37187 6.27812L8.30937 6.23125H8.3125ZM8.40625 5.9125L8.57812 6.09375L8.725 5.95312L8.7 5.92812L8.58125 6.04063H8.57812L8.43125 5.88438L8.40625 5.9125ZM8.625 5.71875L8.77812 5.91563L8.80937 5.89375L8.65312 5.69688L8.625 5.71875ZM8.85 5.56563C8.82558 5.57996 8.80432 5.59909 8.7875 5.62187C8.7733 5.64067 8.76537 5.66345 8.76481 5.687C8.76425 5.71054 8.77109 5.73367 8.78438 5.75313C8.79648 5.773 8.81376 5.78921 8.83438 5.8C8.85357 5.8101 8.87527 5.81445 8.89688 5.8125C8.92698 5.80852 8.95581 5.79784 8.98125 5.78125C9.00727 5.76634 9.02884 5.74477 9.04375 5.71875C9.05625 5.69375 9.05938 5.66875 9.05313 5.64375L9.02188 5.65625C9.02813 5.70625 8.99688 5.73125 8.95938 5.75C8.90313 5.7875 8.85 5.78438 8.81563 5.73438C8.78125 5.675 8.81563 5.62813 8.86563 5.59688C8.9 5.575 8.93437 5.55938 8.96562 5.58125L8.99375 5.55625C8.9756 5.54319 8.95359 5.53659 8.93125 5.5375C8.90312 5.5375 8.87813 5.55 8.85 5.56875V5.56563ZM9.14688 5.41875L9.11875 5.7L9.15938 5.68437L9.16562 5.59688L9.29062 5.54688L9.35938 5.60313L9.39688 5.5875L9.18437 5.40312L9.14688 5.41875ZM9.17813 5.45L9.2625 5.51875L9.16875 5.55625L9.17813 5.44688V5.45ZM9.69375 5.2625L9.70938 5.5125L9.84375 5.50625C9.88125 5.5 9.91875 5.49375 9.94063 5.4625C9.97188 5.43125 9.97812 5.37812 9.9625 5.33437C9.95659 5.31538 9.9456 5.29836 9.93074 5.28515C9.91587 5.27193 9.89768 5.26302 9.87813 5.25938C9.84063 5.25313 9.80313 5.25938 9.76562 5.25938L9.69375 5.26562V5.2625ZM9.73125 5.29688L9.84062 5.29375C9.86056 5.29284 9.88027 5.29831 9.89688 5.30937C9.92188 5.32812 9.9375 5.35625 9.93437 5.3875C9.93302 5.40494 9.92627 5.42152 9.91507 5.43496C9.90388 5.44839 9.88878 5.45802 9.87187 5.4625C9.85312 5.46875 9.83125 5.46875 9.8125 5.47188L9.74375 5.475L9.73125 5.29688ZM10.0437 5.25L10.0281 5.5L10.2719 5.5125V5.47813L10.0656 5.46562L10.0688 5.39062L10.2563 5.4V5.36562L10.0719 5.35625L10.075 5.2875L10.275 5.3V5.2625L10.0406 5.25H10.0437ZM10.6938 5.35313L10.6031 5.5875L10.6344 5.6L10.7094 5.4125V5.40625L10.7156 5.41563L10.8031 5.66563L10.8438 5.68125L10.9344 5.44688L10.9031 5.43437L10.8313 5.62187L10.8281 5.62813L10.8219 5.61875L10.7375 5.36875L10.6938 5.35313ZM11.0312 5.5L10.9156 5.71875L10.8844 5.70312L10.9969 5.48125L11.0312 5.5ZM11.2188 5.60938C11.196 5.59416 11.1706 5.58354 11.1438 5.57812C11.1206 5.57157 11.096 5.57258 11.0735 5.58102C11.0511 5.58945 11.0319 5.60486 11.0188 5.625C11.0067 5.64478 11.0002 5.66746 11 5.69063C11 5.7125 11.0031 5.73437 11.0188 5.75625C11.0313 5.77812 11.05 5.79687 11.0813 5.81875C11.1064 5.83586 11.1354 5.84659 11.1656 5.85C11.1904 5.85069 11.2146 5.84298 11.2344 5.82812L11.2094 5.8C11.1656 5.83125 11.1313 5.80937 11.0969 5.7875C11.0406 5.75 11.0188 5.7 11.0531 5.64687C11.0906 5.59062 11.15 5.60625 11.2 5.6375C11.2312 5.65937 11.2625 5.68438 11.2563 5.72188L11.2875 5.73438C11.2912 5.71308 11.2879 5.69115 11.2781 5.67188C11.2656 5.64687 11.2469 5.62813 11.2188 5.60938ZM11.4563 5.7875L11.1969 5.89375L11.2281 5.92188L11.3094 5.89062L11.4125 5.97813L11.3906 6.0625L11.4219 6.09062L11.4875 5.81563L11.4563 5.7875ZM11.4469 5.83125L11.4219 5.9375L11.3438 5.875L11.4469 5.83125ZM11.6469 5.9625L11.4531 6.11875L11.475 6.15L11.5531 6.0875L11.6281 6.18125L11.6062 6.30625L11.6344 6.34062L11.6594 6.20937C11.6813 6.225 11.7125 6.23438 11.7375 6.22188C11.7594 6.20938 11.7812 6.19063 11.7812 6.16563C11.7812 6.13125 11.7594 6.10313 11.7406 6.07812L11.6469 5.9625ZM11.6406 6.0125L11.7219 6.1125C11.7344 6.13125 11.75 6.15625 11.7344 6.175C11.725 6.19375 11.7 6.19375 11.6844 6.18125C11.6531 6.15938 11.6344 6.12812 11.6094 6.1L11.5781 6.06563L11.6406 6.0125ZM11.9375 6.35938L11.6562 6.37187L11.6781 6.40938L11.7656 6.40625L11.8344 6.525L11.7844 6.59688L11.8062 6.63438L11.9594 6.39687L11.9375 6.35938ZM11.9156 6.39687L11.8531 6.49062L11.8062 6.40312L11.9156 6.39687ZM12.1 6.69063C12.0844 6.65 12.0594 6.60625 12.0156 6.58437C11.992 6.57345 11.9654 6.5706 11.94 6.57624C11.9146 6.58189 11.8918 6.59572 11.875 6.61562C11.8438 6.64687 11.8437 6.69375 11.8531 6.7375C11.8625 6.78438 11.8844 6.83125 11.9156 6.86562L11.8969 6.87187L11.9094 6.90625L12.0281 6.86562L11.9812 6.7375L11.9563 6.74687L11.9875 6.84062L11.95 6.85625C11.9161 6.82462 11.8931 6.78304 11.8844 6.7375C11.875 6.70313 11.875 6.6625 11.9 6.6375C11.9312 6.60625 11.9812 6.59687 12.0156 6.62187C12.05 6.64687 12.0687 6.6875 12.0781 6.72813C12.0875 6.75625 12.0844 6.7875 12.0656 6.80937C12.0594 6.80937 12.0656 6.81875 12.0688 6.82188L12.0781 6.8375C12.0887 6.82941 12.0973 6.81902 12.1033 6.8071C12.1092 6.79519 12.1124 6.78207 12.1125 6.76875C12.1131 6.74217 12.1089 6.71569 12.1 6.69063ZM12.1719 6.8875L12.0312 6.9125C12.0097 6.91564 11.9892 6.92425 11.9719 6.9375C11.9583 6.94972 11.9495 6.96631 11.9469 6.98438V7.05937C11.9562 7.09062 11.9656 7.1125 11.9781 7.13125C11.9875 7.15 12 7.1625 12.0156 7.1625C12.0361 7.16779 12.0576 7.16779 12.0781 7.1625L12.2188 7.1375L12.2125 7.10313L12.075 7.12813C12.0125 7.14063 11.9937 7.10937 11.9812 7.05312C11.9719 6.99687 11.9812 6.95937 12.0406 6.95L12.1781 6.92188L12.1719 6.8875ZM12.2469 7.3125L11.9875 7.2L11.9906 7.24375L12.0719 7.275L12.0813 7.4125L12.0063 7.45937L12.0094 7.5L12.25 7.35313L12.2469 7.3125ZM12.2094 7.33437L12.1156 7.39375L12.1094 7.29375L12.2094 7.33437ZM7.94375 7.95937L7.90625 7.96875L7.94688 8.12187L7.98438 8.1125L7.94375 7.95937ZM12.0562 7.95937L12.0938 7.96875L12.0531 8.12187L12.0156 8.1125L12.0562 7.95937ZM8.33125 8.6L8.05 8.63125L8.075 8.66562L8.1625 8.65625L8.2375 8.76875L8.19375 8.84688L8.21875 8.87813L8.35312 8.63437L8.33125 8.6ZM8.30937 8.64062L8.25625 8.73438L8.2 8.65312L8.30937 8.64062ZM8.4375 8.75313L8.25937 8.91875L8.28438 8.94375L8.43437 8.80313L8.35312 9.02188L8.38437 9.05L8.59688 8.9875L8.45 9.12187L8.475 9.14688L8.65312 8.98125L8.61563 8.94375L8.39688 9.00625L8.47812 8.79688L8.4375 8.75313ZM8.69687 9.01562L8.54688 9.21875L8.74063 9.3625L8.7625 9.33438L8.59688 9.20938L8.64375 9.14688L8.79062 9.2625L8.8125 9.23125L8.66562 9.12187L8.70625 9.06875L8.8625 9.1875L8.88437 9.15625L8.69687 9.01562ZM8.94063 9.19687L8.825 9.41562L8.85625 9.43437L8.90312 9.34688L9.00937 9.40312L9.03438 9.52812L9.075 9.55L9.04688 9.41875C9.075 9.42812 9.10938 9.42187 9.125 9.4C9.14062 9.38125 9.15313 9.35938 9.14375 9.33438C9.1375 9.30313 9.10313 9.28438 9.07812 9.26875L8.94063 9.19687ZM8.95625 9.24375L9.06875 9.30625C9.0875 9.31875 9.10937 9.33437 9.10625 9.35625C9.10625 9.37812 9.08438 9.3875 9.06563 9.38437C9.02813 9.37812 8.99687 9.35625 8.96562 9.34062L8.91875 9.31563L8.95625 9.24375ZM9.225 9.34375L9.13125 9.575L9.1625 9.59062L9.25625 9.35938L9.225 9.34375ZM9.45 9.42188C9.42401 9.41238 9.39639 9.40813 9.36875 9.40938C9.34468 9.40977 9.32136 9.41787 9.30224 9.4325C9.28311 9.44712 9.26918 9.4675 9.2625 9.49063C9.2568 9.51213 9.2568 9.53475 9.2625 9.55625C9.2625 9.58125 9.275 9.6 9.29375 9.61875C9.3153 9.63787 9.34096 9.65178 9.36875 9.65938C9.39782 9.6697 9.42916 9.67186 9.45938 9.66562C9.48398 9.66088 9.50612 9.6476 9.52188 9.62813L9.49063 9.60938C9.45938 9.65 9.41875 9.64062 9.37813 9.625C9.31563 9.60313 9.28125 9.5625 9.3 9.5C9.32188 9.4375 9.38437 9.4375 9.4375 9.45312C9.475 9.46563 9.50937 9.48438 9.5125 9.51875L9.55 9.525C9.54828 9.5015 9.53832 9.47937 9.52188 9.4625C9.50165 9.44322 9.47695 9.42926 9.45 9.42188ZM9.7 9.47812L9.5375 9.70625L9.57812 9.7125L9.62813 9.64062L9.76562 9.6625L9.79375 9.74375L9.83438 9.75L9.74063 9.48438L9.7 9.47812ZM9.71562 9.51875L9.75313 9.625L9.65312 9.60938L9.71562 9.51875ZM10.2875 9.48125C10.2563 9.48437 10.2344 9.49375 10.2125 9.50937C10.1918 9.52141 10.1756 9.53971 10.166 9.56163C10.1565 9.58354 10.1541 9.60793 10.1594 9.63125C10.1625 9.65313 10.1719 9.67188 10.1906 9.69375C10.2031 9.70938 10.2219 9.71875 10.2469 9.725C10.2687 9.73125 10.3 9.73125 10.3344 9.725C10.3656 9.71875 10.3969 9.70625 10.4156 9.6875C10.4339 9.67125 10.4461 9.64917 10.45 9.625H10.4125C10.4031 9.675 10.3656 9.6875 10.325 9.69375C10.2594 9.70625 10.2094 9.68437 10.1969 9.62187C10.1844 9.55625 10.2375 9.525 10.2906 9.5125C10.3312 9.50625 10.3688 9.50313 10.3906 9.53438L10.4219 9.52188C10.4101 9.50319 10.3926 9.48891 10.3719 9.48125C10.3442 9.47411 10.3152 9.47411 10.2875 9.48125ZM10.4531 9.45L10.525 9.69063L10.7594 9.62187L10.7469 9.5875L10.55 9.64688L10.5281 9.57187L10.7063 9.51875L10.6969 9.4875L10.5188 9.5375L10.5 9.475L10.6875 9.41875L10.6781 9.38437L10.4531 9.45ZM10.725 9.36563L10.8281 9.59375L10.8594 9.57812L10.7719 9.39062L11.0156 9.5H11.0312L11.0625 9.48438L10.9563 9.25625L10.925 9.27188L11.0125 9.45938L10.7625 9.34688L10.725 9.36563ZM11 9.2375L11.0188 9.26875L11.1062 9.20625H11.1125L11.2281 9.38437L11.2594 9.3625L11.1438 9.1875V9.18437L11.2344 9.12187L11.2156 9.09375L11 9.2375ZM11.25 9.0625L11.4187 9.25L11.4469 9.22188L11.3813 9.15L11.4688 9.06875L11.5938 9.0875L11.6313 9.05625L11.4969 9.0375C11.5125 9.01563 11.5188 8.98125 11.5031 8.95625C11.4906 8.93438 11.4719 8.91562 11.4438 8.91875C11.4125 8.91875 11.3812 8.94375 11.3594 8.9625L11.25 9.06563V9.0625ZM11.3 9.06563L11.3938 8.97812C11.4125 8.96562 11.4375 8.95 11.4563 8.9625C11.4781 8.97187 11.4781 8.99687 11.4656 9.0125C11.4469 9.04375 11.4187 9.06563 11.3906 9.09375L11.3562 9.125L11.3 9.0625V9.06563ZM11.5406 8.77188L11.6531 9.03125L11.6781 9L11.6469 8.91875L11.7312 8.8125L11.8156 8.83125L11.8438 8.8L11.5688 8.7375L11.5406 8.77188ZM11.5844 8.78125L11.6938 8.80313L11.6313 8.88125L11.5844 8.78125ZM11.65 8.63125L11.8594 8.76562L11.9688 8.59688L11.9375 8.57812L11.8531 8.7125L11.85 8.71875H11.8469L11.6687 8.6L11.65 8.63125Z" fill="#C8A400"/>
<mask id="mask0_14_329" style="mask-type:luminance" maskUnits="userSpaceOnUse" x="8" y="5" width="4" height="4">
<path d="M9.99997 5.66003L8.40747 8.41753H11.5925L9.99997 5.66003Z" fill="white"/>
</mask>
<g mask="url(#mask0_14_329)">
<path d="M10 5.66003L9.21251 7.02253L8.82751 7.69003H11.1725L10.805 7.05503L10 5.66003Z" fill="white"/>
<path opacity="0.6" d="M9.99994 5.66003L9.93994 5.76003L9.99994 7.13503L10.0599 5.76003L9.99994 5.66003Z" fill="#17C0EB" stroke="#17C0EB" stroke-width="0.004"/>
<path d="M9.99994 6.9375H9.99744L9.99994 7.0125L10.0024 6.9375H9.99994Z" fill="white"/>
<path opacity="0.6" d="M11.4049 6.6799L11.2909 6.65495L10.0027 7.13783L11.3287 6.76695L11.4049 6.6799Z" fill="#17C0EB" stroke="#17C0EB" stroke-width="0.004"/>
<path d="M10.1902 7.0757L10.1895 7.07336L10.1189 7.09896L10.191 7.07804L10.1902 7.0757Z" fill="white"/>
<path opacity="0.6" d="M10.8685 8.33278L10.8582 8.21659L10.0014 7.13954L10.7612 8.28718L10.8685 8.33278Z" fill="#17C0EB" stroke="#17C0EB" stroke-width="0.004"/>
<path d="M10.1175 7.29932L10.1195 7.29785L10.0734 7.23865L10.1155 7.30079L10.1175 7.29932Z" fill="white"/>
<path opacity="0.6" d="M9.13143 8.33287L9.23872 8.28727L9.99849 7.13963L9.14171 8.21667L9.13143 8.33287Z" fill="#17C0EB" stroke="#17C0EB" stroke-width="0.004"/>
<path d="M9.88238 7.29931L9.8844 7.30078L9.92646 7.23864L9.88036 7.29784L9.88238 7.29931Z" fill="white"/>
<path opacity="0.6" d="M8.59517 6.67996L8.67135 6.76701L9.99731 7.13789L8.70911 6.65501L8.59517 6.67996Z" fill="#17C0EB" stroke="#17C0EB" stroke-width="0.004"/>
<path d="M9.80974 7.07566L9.80896 7.078L9.88105 7.09892L9.81053 7.07333L9.80974 7.07566Z" fill="white"/>
<path opacity="0.6" d="M10.209 5.67596L10.1386 5.76497L9.99695 7.13366L10.2507 5.7846L10.209 5.67596Z" fill="#17C0EB" stroke="#17C0EB" stroke-width="0.004"/>
<path d="M10.028 6.93961L10.0256 6.93921L10.0173 7.01377L10.0303 6.94001L10.028 6.93961Z" fill="white"/>
<path opacity="0.6" d="M11.4597 6.88283L11.355 6.83901L9.99755 7.13528L11.3662 6.96087L11.4597 6.88283Z" fill="#17C0EB" stroke="#17C0EB" stroke-width="0.004"/>
<path d="M10.197 7.10289L10.1968 7.10034L10.1228 7.11574L10.1972 7.10543L10.197 7.10289Z" fill="white"/>
<path opacity="0.6" d="M10.6918 8.44475L10.6999 8.33054L10.0029 7.1372L10.5903 8.38167L10.6918 8.44475Z" fill="#17C0EB" stroke="#17C0EB" stroke-width="0.004"/>
<path d="M10.0938 7.3143L10.0961 7.31323L10.0587 7.24786L10.0915 7.31536L10.0938 7.3143Z" fill="white"/>
<path opacity="0.6" d="M8.9713 8.19817L9.08198 8.17043L10.0004 7.14157L9.00017 8.08265L8.9713 8.19817Z" fill="#17C0EB" stroke="#17C0EB" stroke-width="0.004"/>
<path d="M9.86085 7.28137L9.86255 7.2832L9.91314 7.22761L9.85914 7.27954L9.86085 7.28137Z" fill="white"/>
<path opacity="0.6" d="M8.67406 6.48836L8.73522 6.58481L9.99552 7.138L8.79209 6.48L8.67406 6.48836Z" fill="#17C0EB" stroke="#17C0EB" stroke-width="0.004"/>
<path d="M9.82028 7.04982L9.81909 7.052L9.88751 7.08282L9.82146 7.04763L9.82028 7.04982Z" fill="white"/>
<path opacity="0.6" d="M10.4084 5.71838L10.3242 5.79679L9.99953 7.13417L10.4372 5.83194L10.4084 5.71838Z" fill="#17C0EB" stroke="#17C0EB" stroke-width="0.004"/>
<path d="M10.0552 6.94543L10.0529 6.9447L10.0345 7.01745L10.0576 6.94616L10.0552 6.94543Z" fill="white"/>
<path opacity="0.6" d="M11.4761 7.08382L11.3736 7.02978L10.003 7.13958L11.3788 7.14543L11.4761 7.08382Z" fill="#17C0EB" stroke="#17C0EB" stroke-width="0.004"/>
<path d="M10.1998 7.13033L10.1997 7.12805L10.1249 7.13339L10.1999 7.13261L10.1998 7.13033Z" fill="white"/>
<path opacity="0.6" d="M10.5013 8.53005L10.5281 8.41914L10.005 7.13571L10.4071 8.45189L10.5013 8.53005Z" fill="#17C0EB" stroke="#17C0EB" stroke-width="0.004"/>
<path d="M10.0683 7.32563L10.0708 7.32495L10.043 7.25481L10.0657 7.32631L10.0683 7.32563Z" fill="white"/>
<path opacity="0.6" d="M8.8319 8.04429L8.94431 8.03331L10.0019 7.14202L8.87814 7.93292L8.8319 8.04429Z" fill="#17C0EB" stroke="#17C0EB" stroke-width="0.004"/>
<path d="M9.84225 7.2606L9.84363 7.2627L9.90168 7.21467L9.84087 7.25851L9.84225 7.2606Z" fill="white"/>
<path opacity="0.6" d="M8.77737 6.30965L8.82418 6.41382L9.99571 7.1379L8.89577 6.31778L8.77737 6.30965Z" fill="#17C0EB" stroke="#17C0EB" stroke-width="0.004"/>
<path d="M9.83438 7.02571L9.83289 7.02771L9.89637 7.06779L9.83587 7.02371L9.83438 7.02571Z" fill="white"/>
<path opacity="0.6" d="M10.6012 5.7883L10.506 5.85472L10.0005 7.13484L10.6149 5.90447L10.6012 5.7883Z" fill="#17C0EB" stroke="#17C0EB" stroke-width="0.004"/>
<path d="M10.0813 6.95489L10.079 6.95386L10.0507 7.02337L10.0835 6.95593L10.0813 6.95489Z" fill="white"/>
<path opacity="0.6" d="M11.4719 7.27347L11.3758 7.18726L9.99984 7.15651L11.3683 7.34382L11.4719 7.27347Z" fill="#17C0EB" stroke="#17C0EB" stroke-width="0.004"/>
<path d="M10.1989 7.15759L10.1991 7.15417L10.1241 7.1516L10.1988 7.161L10.1989 7.15759Z" fill="white"/>
<path opacity="0.6" d="M10.2963 8.58693L10.3465 8.48024L10.0113 7.13586L10.2075 8.49688L10.2963 8.58693Z" fill="#17C0EB" stroke="#17C0EB" stroke-width="0.004"/>
<path d="M10.041 7.33335L10.0439 7.33301L10.0264 7.25965L10.0381 7.3337L10.041 7.33335Z" fill="white"/>
<path opacity="0.6" d="M8.71662 7.87398L8.82992 7.87867L10.0016 7.14129L8.77756 7.76994L8.71662 7.87398Z" fill="#17C0EB" stroke="#17C0EB" stroke-width="0.004"/>
<path d="M9.82667 7.23748L9.82776 7.23975L9.89194 7.20018L9.82558 7.23521L9.82667 7.23748Z" fill="white"/>
<path opacity="0.6" d="M8.90348 6.14752L8.93593 6.25778L9.99659 7.13735L9.01925 6.17147L8.90348 6.14752Z" fill="#17C0EB" stroke="#17C0EB" stroke-width="0.004"/>
<path d="M9.85135 7.0037L9.84961 7.00549L9.90695 7.054L9.85308 7.0019L9.85135 7.0037Z" fill="white"/>
<path opacity="0.6" d="M10.783 5.88469L10.6792 5.93757L10.0012 7.13533L10.7808 6.00139L10.783 5.88469Z" fill="#17C0EB" stroke="#17C0EB" stroke-width="0.004"/>
<path d="M10.1059 6.968L10.1038 6.96667L10.0661 7.0316L10.108 6.96933L10.1059 6.968Z" fill="white"/>
<path opacity="0.6" d="M11.4346 7.49346L11.3508 7.40963L10.0012 7.13992L11.324 7.52936L11.4346 7.49346Z" fill="#17C0EB" stroke="#17C0EB" stroke-width="0.004"/>
<path d="M10.194 7.18597L10.1946 7.18347L10.1212 7.16798L10.1935 7.18847L10.194 7.18597Z" fill="white"/>
<path opacity="0.6" d="M10.0472 8.61489L10.1548 8.51381L10.0558 7.13686L9.94076 8.51556L10.0472 8.61489Z" fill="#17C0EB" stroke="#17C0EB" stroke-width="0.004"/>
<path d="M10.0108 7.33732L10.0156 7.33728L10.0115 7.26222L10.006 7.33735L10.0108 7.33732Z" fill="white"/>
<path opacity="0.6" d="M8.62767 7.68968L8.74086 7.70943L9.99989 7.13992L8.70054 7.59539L8.62767 7.68968Z" fill="#17C0EB" stroke="#17C0EB" stroke-width="0.004"/>
<path d="M9.81435 7.21247L9.81519 7.21484L9.88408 7.18449L9.81351 7.21009L9.81435 7.21247Z" fill="white"/>
<path opacity="0.6" d="M9.05089 6.00505L9.06846 6.11956L9.99769 7.13651L9.16171 6.04397L9.05089 6.00505Z" fill="#17C0EB" stroke="#17C0EB" stroke-width="0.004"/>
<path d="M9.87145 6.98439L9.86951 6.98596L9.9196 7.04191L9.87339 6.98281L9.87145 6.98439Z" fill="white"/>
<path opacity="0.6" d="M10.9496 6.00574L10.8394 6.04377L10.0015 7.13564L10.9313 6.12091L10.9496 6.00574Z" fill="#17C0EB" stroke="#17C0EB" stroke-width="0.004"/>
<path d="M10.1285 6.9844L10.1266 6.98279L10.0803 7.04185L10.1304 6.986L10.1285 6.9844Z" fill="white"/>
<path opacity="0.6" d="M11.37 7.6909L11.2996 7.59769L10.0021 7.13863L11.255 7.70923L11.37 7.6909Z" fill="#17C0EB" stroke="#17C0EB" stroke-width="0.004"/>
<path d="M10.1854 7.21253L10.1863 7.21021L10.1158 7.18445L10.1844 7.21485L10.1854 7.21253Z" fill="white"/>
<path opacity="0.6" d="M9.90065 8.61263L9.9707 8.51568L9.99609 7.13879L9.84354 8.50975L9.90065 8.61263Z" fill="#17C0EB" stroke="#17C0EB" stroke-width="0.004"/>
<path d="M9.98622 7.33716L9.98889 7.33728L9.99108 7.26224L9.98354 7.33704L9.98622 7.33716Z" fill="white"/>
<path opacity="0.6" d="M8.56581 7.49462L8.67693 7.52908L9.99799 7.13855L8.64889 7.41188L8.56581 7.49462Z" fill="#17C0EB" stroke="#17C0EB" stroke-width="0.004"/>
<path d="M9.80581 7.18591L9.8064 7.18835L9.87863 7.1678L9.80523 7.18347L9.80581 7.18591Z" fill="white"/>
<path opacity="0.6" d="M9.21713 5.88437L9.21912 6.00084L9.99854 7.13554L9.3211 5.93755L9.21713 5.88437Z" fill="#17C0EB" stroke="#17C0EB" stroke-width="0.004"/>
<path d="M9.89397 6.96792L9.89185 6.96924L9.93371 7.03154L9.8961 6.9666L9.89397 6.96792Z" fill="white"/>
<path opacity="0.6" d="M11.098 6.14896L10.9835 6.17128L10.0019 7.13593L11.0638 6.26046L11.098 6.14896Z" fill="#17C0EB" stroke="#17C0EB" stroke-width="0.004"/>
<path d="M10.1486 7.00381L10.147 7.00195L10.0929 7.054L10.1503 7.00567L10.1486 7.00381Z" fill="white"/>
<path opacity="0.6" d="M11.2796 7.87622L11.223 7.77422L10.0021 7.1388L11.1631 7.87823L11.2796 7.87622Z" fill="#17C0EB" stroke="#17C0EB" stroke-width="0.004"/>
<path d="M10.1732 7.23752L10.1744 7.23535L10.1082 7.20002L10.1719 7.23969L10.1732 7.23752Z" fill="white"/>
<path opacity="0.6" d="M9.69302 8.58302L9.77271 8.4975L9.99921 7.13994L9.65485 8.47286L9.69302 8.58302Z" fill="#17C0EB" stroke="#17C0EB" stroke-width="0.004"/>
<path d="M9.95848 7.33323L9.96094 7.33374L9.97405 7.25985L9.95603 7.33271L9.95848 7.33323Z" fill="white"/>
<path opacity="0.6" d="M8.53032 7.29123L8.63586 7.34134L9.99766 7.13862L8.62374 7.22043L8.53032 7.29123Z" fill="#17C0EB" stroke="#17C0EB" stroke-width="0.004"/>
<path d="M9.80102 7.15849L9.80127 7.16101L9.87562 7.15072L9.80076 7.15597L9.80102 7.15849Z" fill="white"/>
<path opacity="0.6" d="M9.3991 5.7878L9.38491 5.9035L9.99894 7.13541L9.49462 5.85483L9.3991 5.7878Z" fill="#17C0EB" stroke="#17C0EB" stroke-width="0.004"/>
<path d="M9.91867 6.95492L9.91638 6.95593L9.94917 7.02344L9.92095 6.9539L9.91867 6.95492Z" fill="white"/>
<path opacity="0.6" d="M11.2249 6.31142L11.1084 6.31765L10.0022 7.13634L11.1756 6.41704L11.2249 6.31142Z" fill="#17C0EB" stroke="#17C0EB" stroke-width="0.004"/>
<path d="M10.1658 7.02587L10.1644 7.0238L10.1037 7.06782L10.1672 7.02795L10.1658 7.02587Z" fill="white"/>
<path opacity="0.6" d="M11.1649 8.04673L11.1223 7.93741L10.0012 7.13974L11.0498 8.03307L11.1649 8.04673Z" fill="#17C0EB" stroke="#17C0EB" stroke-width="0.004"/>
<path d="M10.1575 7.26066L10.1591 7.25867L10.0984 7.21453L10.156 7.26265L10.1575 7.26066Z" fill="white"/>
<path opacity="0.6" d="M9.49588 8.52735L9.5875 8.45236L9.99794 7.13858L9.47232 8.41403L9.49588 8.52735Z" fill="#17C0EB" stroke="#17C0EB" stroke-width="0.004"/>
<path d="M9.93168 7.32562L9.93408 7.32642L9.95723 7.25503L9.92928 7.32482L9.93168 7.32562Z" fill="white"/>
<path opacity="0.6" d="M8.52344 7.08551L8.62116 7.14837L9.99731 7.13853L8.62556 7.02983L8.52344 7.08551Z" fill="#17C0EB" stroke="#17C0EB" stroke-width="0.004"/>
<path d="M9.80014 7.13061L9.80005 7.13306L9.87508 7.13334L9.80024 7.12817L9.80014 7.13061Z" fill="white"/>
<path opacity="0.6" d="M9.59361 5.7161L9.56248 5.82773L9.99837 7.13635L9.67963 5.79704L9.59361 5.7161Z" fill="#17C0EB" stroke="#17C0EB" stroke-width="0.004"/>
<path d="M9.94483 6.94528L9.94238 6.94592L9.96542 7.01748L9.94727 6.94465L9.94483 6.94528Z" fill="white"/>
<path opacity="0.6" d="M11.3276 6.48965L11.2112 6.47978L10.0025 7.13663L11.2644 6.58725L11.3276 6.48965Z" fill="#17C0EB" stroke="#17C0EB" stroke-width="0.004"/>
<path d="M10.1796 7.04985L10.1785 7.04761L10.1122 7.08274L10.1807 7.05209L10.1796 7.04985Z" fill="white"/>
<path opacity="0.6" d="M11.0279 8.19887L10.9998 8.08392L10.0001 7.14094L10.9166 8.17037L11.0279 8.19887Z" fill="#17C0EB" stroke="#17C0EB" stroke-width="0.004"/>
<path d="M10.1389 7.28134L10.1406 7.27954L10.0867 7.22752L10.1372 7.28315L10.1389 7.28134Z" fill="white"/>
<path opacity="0.6" d="M9.30825 8.44486L9.40984 8.38168L9.99686 7.13712L9.30003 8.33073L9.30825 8.44486Z" fill="#17C0EB" stroke="#17C0EB" stroke-width="0.004"/>
<path d="M9.90616 7.31437L9.90845 7.31543L9.9412 7.24792L9.90387 7.31331L9.90616 7.31437Z" fill="white"/>
<path opacity="0.6" d="M8.53483 6.89152L8.63426 6.97701L10.0075 7.12676L8.63507 6.83793L8.53483 6.89152Z" fill="#17C0EB" stroke="#17C0EB" stroke-width="0.004"/>
<path d="M9.8025 7.10339L9.80249 7.10632L9.87721 7.11547L9.80251 7.10046L9.8025 7.10339Z" fill="white"/>
<path opacity="0.6" d="M9.80386 5.66842L9.74748 5.77051L9.98998 7.14129L9.88548 5.76603L9.80386 5.66842Z" fill="#17C0EB" stroke="#17C0EB" stroke-width="0.004"/>
<path d="M9.97255 6.93937L9.9696 6.93945L9.98205 7.01418L9.97549 6.9393L9.97255 6.93937Z" fill="white"/>
<path d="M10 6.64502C9.73371 6.64472 9.47625 6.7406 9.27501 6.91502L8.91001 7.55002C8.89694 7.61842 8.89024 7.68788 8.89001 7.75752H9.01501C9.02774 7.50519 9.13694 7.2674 9.32003 7.0933C9.50312 6.91921 9.74611 6.82213 9.99876 6.82213C10.2514 6.82213 10.4944 6.91921 10.6775 7.0933C10.8606 7.2674 10.9698 7.50519 10.9825 7.75752H11.1075C11.1081 7.68796 11.1022 7.6185 11.09 7.55002L10.725 6.91502C10.5237 6.74079 10.2663 6.64494 10 6.64502Z" fill="#FF0000"/>
<path d="M9.99991 6.6676C9.71738 6.66701 9.44571 6.7764 9.24241 6.9726L8.94241 7.4951C8.92116 7.58015 8.91025 7.66745 8.90991 7.7551H9.01741C9.03515 7.50664 9.14636 7.27412 9.32867 7.10437C9.51097 6.93462 9.75081 6.84024 9.99991 6.84024C10.249 6.84024 10.4889 6.93462 10.6712 7.10437C10.8535 7.27412 10.9647 7.50664 10.9824 7.7551H11.0899C11.0897 7.66661 11.0788 7.57847 11.0574 7.4926L10.7574 6.9726C10.5541 6.7764 10.2824 6.66701 9.99991 6.6676Z" fill="#FF6600"/>
<path d="M9.99997 6.68763C9.84892 6.68722 9.6995 6.71888 9.5616 6.78051C9.42369 6.84214 9.30043 6.93233 9.19997 7.04513L8.98247 7.42013C8.94782 7.52922 8.93093 7.64317 8.93247 7.75763H9.01497C9.02769 7.5053 9.13689 7.2675 9.31999 7.09341C9.50308 6.91932 9.74607 6.82223 9.99872 6.82223C10.2514 6.82223 10.4944 6.91932 10.6775 7.09341C10.8605 7.2675 10.9697 7.5053 10.9825 7.75763H11.07C11.07 7.64013 11.05 7.52763 11.0175 7.42263L10.7975 7.04513C10.6974 6.93252 10.5746 6.84243 10.4371 6.7808C10.2996 6.71918 10.1506 6.68742 9.99997 6.68763Z" fill="#FFFF00"/>
<path d="M9.99995 6.70758C9.82752 6.70749 9.65772 6.74986 9.50555 6.83096C9.35338 6.91206 9.22352 7.02939 9.12745 7.17258L9.05745 7.29508C8.9866 7.43895 8.94982 7.5972 8.94995 7.75758H9.01745C9.03519 7.50911 9.1464 7.27659 9.32871 7.10684C9.51101 6.93709 9.75085 6.84271 9.99995 6.84271C10.249 6.84271 10.4889 6.93709 10.6712 7.10684C10.8535 7.27659 10.9647 7.50911 10.9825 7.75758H11.05C11.0501 7.5972 11.0133 7.43895 10.9425 7.29508L10.8725 7.17008C10.7764 7.02689 10.6465 6.90956 10.4944 6.82846C10.3422 6.74736 10.1724 6.70499 9.99995 6.70508V6.70758Z" fill="#00FF00"/>
<path d="M9.99997 6.7251C9.8645 6.7251 9.73036 6.75182 9.60523 6.80374C9.4801 6.85566 9.36645 6.93175 9.27077 7.02766C9.17509 7.12357 9.09927 7.23741 9.04766 7.36267C8.99604 7.48792 8.96964 7.62213 8.96997 7.7576H9.01747C9.03521 7.50913 9.14643 7.27661 9.32873 7.10686C9.51103 6.93711 9.75088 6.84273 9.99997 6.84273C10.2491 6.84273 10.4889 6.93711 10.6712 7.10686C10.8535 7.27661 10.9647 7.50913 10.9825 7.7576H11.03C11.0303 7.62213 11.0039 7.48792 10.9523 7.36267C10.9007 7.23741 10.8249 7.12357 10.7292 7.02766C10.6335 6.93175 10.5198 6.85566 10.3947 6.80374C10.2696 6.75182 10.1354 6.7251 9.99997 6.7251Z" fill="#00CCFF"/>
<path d="M9.99999 6.74512C9.73212 6.74512 9.47522 6.85153 9.28581 7.04094C9.0964 7.23035 8.98999 7.48725 8.98999 7.75512H9.02499C9.02499 7.49653 9.12771 7.24854 9.31056 7.06569C9.49341 6.88284 9.7414 6.78012 9.99999 6.78012C10.2586 6.78012 10.5066 6.88284 10.6894 7.06569C10.8723 7.24854 10.975 7.49653 10.975 7.75512H11.01C11.0087 7.48812 10.9017 7.2325 10.7124 7.04417C10.5231 6.85584 10.267 6.75011 9.99999 6.75012V6.74512Z" fill="#0000FF"/>
<path d="M9.99992 6.76751C9.86843 6.76749 9.73824 6.79367 9.61698 6.84451C9.49571 6.89536 9.38579 6.96985 9.29362 7.06364C9.20146 7.15743 9.12891 7.26864 9.0802 7.39078C9.03149 7.51292 9.0076 7.64354 9.00992 7.77501H9.02992V7.75501C9.03257 7.49775 9.13731 7.25208 9.3211 7.07205C9.50488 6.89201 9.75266 6.79236 10.0099 6.79501C10.2672 6.79767 10.5128 6.90241 10.6929 7.08619C10.8729 7.26998 10.9726 7.51775 10.9699 7.77501H10.9899V7.75501C10.9899 7.62501 10.9643 7.49627 10.9146 7.37616C10.8648 7.25605 10.7919 7.14691 10.7 7.05498C10.608 6.96305 10.4989 6.89013 10.3788 6.84037C10.2587 6.79062 10.1299 6.76501 9.99992 6.76501V6.76751Z" fill="#800080"/>
<path d="M10.0099 7.20262C9.99245 7.20262 9.97995 7.19012 9.96495 7.18762C9.95765 7.19405 9.95219 7.20229 9.94911 7.21151C9.94604 7.22073 9.94546 7.23061 9.94745 7.24012C9.95495 7.24262 9.95495 7.25012 9.96995 7.26262C9.98495 7.27512 9.98245 7.28012 9.97995 7.31262C9.97995 7.32262 9.98245 7.35012 9.99495 7.35262C10.0074 7.35512 10.0199 7.34512 10.0224 7.32262C10.0249 7.30512 10.0324 7.29262 10.0399 7.28262C10.0474 7.23512 10.0349 7.21762 10.0099 7.20262Z" fill="#510000"/>
<path d="M9.92998 7.08754C9.91498 7.08754 9.88998 7.11254 9.87998 7.10004C9.87498 7.09254 9.87248 7.07754 9.87998 7.06504C9.89124 7.04017 9.91064 7.01989 9.93498 7.00754C9.99248 6.97254 10.0325 6.98254 10.06 7.03254C10.0875 7.07754 10.115 7.12754 10.1175 7.16754C10.1175 7.18004 10.125 7.20254 10.1125 7.21504C10.08 7.25004 9.99748 7.17754 9.94998 7.19004C9.93498 7.19254 9.91498 7.20504 9.89998 7.19504C9.88998 7.18754 9.89998 7.17004 9.90748 7.16254C9.92248 7.15004 9.94498 7.10254 9.94248 7.08254C9.94248 7.07254 9.94248 7.08754 9.92998 7.08754Z" fill="#FF0000"/>
<path d="M9.92502 7.0651C9.89502 7.0751 9.90002 7.0901 9.88502 7.1026C9.89002 7.1051 9.90502 7.1101 9.92002 7.0951C9.92502 7.0901 9.93252 7.0876 9.93752 7.0876L9.92002 7.1051C9.90517 7.11733 9.89322 7.1327 9.88502 7.1501C9.87752 7.1701 9.87502 7.1926 9.87752 7.1951C9.87752 7.1951 9.88752 7.2151 9.91502 7.2251C9.96502 7.2451 9.97502 7.2876 10.0275 7.2876C10.0675 7.2876 10.0625 7.2601 10.095 7.2651C10.12 7.2701 10.1375 7.2476 10.11 7.2351C10.0655 7.22634 10.0196 7.22634 9.97502 7.2351C9.96502 7.1351 9.97502 7.1701 9.97252 7.1251C9.97002 7.0826 9.95502 7.0801 9.97252 7.0426C9.96002 7.0676 9.94252 7.0626 9.92252 7.0626L9.92502 7.0651Z" fill="url(#paint0_linear_14_329)"/>
<path d="M10.025 6.99512L10.0225 7.01012L10.03 7.03512L10.035 7.06012C10.035 7.06762 10.045 7.07012 10.0525 7.07512C10.0625 7.08262 10.0525 7.10012 10.06 7.10262C10.065 7.10262 10.0725 7.07762 10.0725 7.07262V7.05512C10.0685 7.04748 10.0644 7.03997 10.06 7.03262C10.0584 7.03004 10.0568 7.02753 10.055 7.02512C10.0494 7.0167 10.0427 7.00912 10.035 7.00262C10.0325 7.00084 10.03 6.99917 10.0275 6.99762L10.0225 6.99512H10.025Z" fill="#FF2A2A"/>
<path d="M10.0324 7.18512L9.98245 7.16762C9.94995 7.15762 9.91745 7.13762 9.89495 7.14762C9.88745 7.15012 9.88745 7.15762 9.88495 7.17012C9.88495 7.18262 9.87245 7.20262 9.88495 7.19512C9.89995 7.18512 9.94495 7.21512 9.95995 7.22262C9.96745 7.22762 9.98495 7.23762 9.98745 7.24762C9.99245 7.26262 9.98745 7.29262 9.98745 7.30762C9.98745 7.32012 9.99245 7.35262 10.005 7.35762C10.02 7.36012 10.0325 7.34762 10.0375 7.32512C10.045 7.30262 10.0474 7.29012 10.0574 7.27762C10.0674 7.26512 10.0775 7.25762 10.09 7.25512C10.105 7.25512 10.125 7.26762 10.125 7.25012C10.125 7.24012 10.1149 7.23012 10.1199 7.21512C10.1224 7.20262 10.11 7.20512 10.0975 7.20012L10.03 7.18512H10.0324Z" fill="url(#paint1_linear_14_329)"/>
<path d="M9.96 7.22259C9.95 7.21759 9.9025 7.18509 9.885 7.19759C9.8775 7.19759 9.875 7.19759 9.875 7.19009L9.88 7.16759C9.88 7.16009 9.885 7.14759 9.8925 7.14259C9.91 7.12759 9.95 7.15509 9.97 7.16259L9.96 7.22259Z" fill="#910000"/>
<path d="M10.0449 7.28504C10.0674 7.24504 10.0824 7.25004 10.1099 7.25004C10.1199 7.25004 10.1224 7.24254 10.1199 7.23254C10.1124 7.24754 10.0774 7.23254 10.0574 7.24004C10.0199 7.25754 10.0274 7.33254 10.0074 7.34004C10.0274 7.35754 10.0349 7.29754 10.0449 7.28504Z" fill="#FF3A3A"/>
<path d="M8.82751 7.69006L8.57751 8.12256H11.425L11.175 7.69256H8.83001L8.82751 7.69006Z" fill="white"/>
<path d="M8.74255 8.03523C8.70326 8.03516 8.66401 8.03767 8.62505 8.04273L8.61255 8.06523C8.67255 8.05773 8.73005 8.04773 8.79255 8.04773C8.87255 8.04773 8.94755 8.06773 9.03505 8.06773H9.15005C9.23755 8.06773 9.31005 8.04773 9.39255 8.04773C9.47505 8.04773 9.55005 8.06773 9.63755 8.06773H9.75255C9.84005 8.06773 9.91255 8.04773 9.99505 8.04773C10.0775 8.04773 10.1525 8.06773 10.24 8.06773H10.3525C10.44 8.06773 10.515 8.04773 10.5975 8.04773C10.68 8.04773 10.755 8.06773 10.8425 8.06773H10.955C11.0425 8.06773 11.1175 8.04773 11.2 8.04773C11.265 8.04773 11.325 8.06023 11.3875 8.06523L11.375 8.04023C11.3385 8.03644 11.3018 8.03477 11.265 8.03523H11.1525C11.065 8.03523 10.99 8.05273 10.9075 8.05523C10.825 8.05523 10.75 8.03523 10.6625 8.03523H10.55C10.4625 8.03523 10.3875 8.05273 10.305 8.05523C10.2225 8.05523 10.1475 8.03523 10.06 8.03523H9.95005C9.86255 8.03523 9.78755 8.05273 9.70505 8.05523C9.62255 8.05523 9.54755 8.03523 9.46005 8.03523H9.34755C9.26005 8.03523 9.18505 8.05273 9.10255 8.05523C9.02005 8.05523 8.94755 8.03523 8.86005 8.03523H8.74505H8.74255Z" fill="url(#paint2_linear_14_329)"/>
<path d="M8.74255 8.00764C8.70326 8.00758 8.66401 8.01008 8.62505 8.01514L8.61255 8.03764C8.67255 8.03014 8.73005 8.02014 8.79255 8.02014C8.87255 8.02014 8.94755 8.04014 9.03505 8.04014H9.15005C9.23755 8.04014 9.31005 8.02014 9.39255 8.02014C9.47505 8.02014 9.55005 8.04014 9.63755 8.04014H9.75255C9.84005 8.04014 9.91255 8.02014 9.99505 8.02014C10.0775 8.02014 10.1525 8.04014 10.24 8.04014H10.3525C10.44 8.04014 10.515 8.02014 10.5975 8.02014C10.68 8.02014 10.755 8.04014 10.8425 8.04014H10.955C11.0425 8.04014 11.1175 8.02014 11.2 8.02014C11.265 8.02014 11.325 8.03264 11.3875 8.03764L11.375 8.01264C11.3385 8.00885 11.3018 8.00718 11.265 8.00764H11.1525C11.065 8.00764 10.99 8.02514 10.9075 8.02764C10.825 8.02764 10.75 8.00764 10.6625 8.00764H10.55C10.4625 8.00764 10.3875 8.02514 10.305 8.02764C10.2225 8.02764 10.1475 8.00764 10.06 8.00764H9.95005C9.86255 8.00764 9.78755 8.02514 9.70505 8.02764C9.62255 8.02764 9.54755 8.00764 9.46005 8.00764H9.34755C9.26005 8.00764 9.18505 8.02514 9.10255 8.02764C9.02005 8.02764 8.94755 8.00764 8.86005 8.00764H8.74505H8.74255Z" fill="url(#paint3_linear_14_329)"/>
<path d="M8.74255 7.98018C8.70326 7.98011 8.66401 7.98262 8.62505 7.98768L8.61255 8.01018C8.67255 8.00268 8.73005 7.99268 8.79255 7.99268C8.87255 7.99268 8.94755 8.01268 9.03505 8.01268H9.15005C9.23755 8.01268 9.31005 7.99268 9.39255 7.99268C9.47505 7.99268 9.55005 8.01268 9.63755 8.01268H9.75255C9.84005 8.01268 9.91255 7.99268 9.99505 7.99268C10.0775 7.99268 10.1525 8.01268 10.24 8.01268H10.3525C10.44 8.01268 10.515 7.99268 10.5975 7.99268C10.68 7.99268 10.755 8.01268 10.8425 8.01268H10.955C11.0425 8.01268 11.1175 7.99268 11.2 7.99268C11.265 7.99268 11.325 8.00518 11.3875 8.01018L11.375 7.98518C11.3385 7.98139 11.3018 7.97972 11.265 7.98018H11.1525C11.065 7.98018 10.99 7.99768 10.9075 8.00018C10.825 8.00018 10.75 7.98018 10.6625 7.98018H10.55C10.4625 7.98018 10.3875 7.99768 10.305 8.00018C10.2225 8.00018 10.1475 7.98018 10.06 7.98018H9.95005C9.86255 7.98018 9.78755 7.99768 9.70505 8.00018C9.62255 8.00018 9.54755 7.98018 9.46005 7.98018H9.34755C9.26005 7.98018 9.18505 7.99768 9.10255 8.00018C9.02005 8.00018 8.94755 7.98018 8.86005 7.98018H8.74505H8.74255Z" fill="url(#paint4_linear_14_329)"/>
<path d="M8.74255 7.95271C8.70326 7.95264 8.66401 7.95515 8.62505 7.96021L8.61255 7.98271C8.67255 7.97521 8.73005 7.96521 8.79255 7.96521C8.87255 7.96521 8.94755 7.98521 9.03505 7.98521H9.15005C9.23755 7.98521 9.31005 7.96521 9.39255 7.96521C9.47505 7.96521 9.55005 7.98521 9.63755 7.98521H9.75255C9.84005 7.98521 9.91255 7.96521 9.99505 7.96521C10.0775 7.96521 10.1525 7.98521 10.24 7.98521H10.3525C10.44 7.98521 10.515 7.96521 10.5975 7.96521C10.68 7.96521 10.755 7.98521 10.8425 7.98521H10.955C11.0425 7.98521 11.1175 7.96521 11.2 7.96521C11.265 7.96521 11.325 7.97771 11.3875 7.98271L11.375 7.95771C11.3385 7.95392 11.3018 7.95225 11.265 7.95271H11.1525C11.065 7.95271 10.99 7.97021 10.9075 7.97271C10.825 7.97271 10.75 7.95271 10.6625 7.95271H10.55C10.4625 7.95271 10.3875 7.97021 10.305 7.97271C10.2225 7.97271 10.1475 7.95271 10.06 7.95271H9.95005C9.86255 7.95271 9.78755 7.97021 9.70505 7.97271C9.62255 7.97271 9.54755 7.95271 9.46005 7.95271H9.34755C9.26005 7.95271 9.18505 7.97021 9.10255 7.97271C9.02005 7.97271 8.94755 7.95271 8.86005 7.95271H8.74505H8.74255Z" fill="url(#paint5_linear_14_329)"/>
<path d="M8.74255 7.92512C8.70326 7.92506 8.66401 7.92756 8.62505 7.93262L8.61255 7.95512C8.67255 7.94762 8.73005 7.93762 8.79255 7.93762C8.87255 7.93762 8.94755 7.95762 9.03505 7.95762H9.15005C9.23755 7.95762 9.31005 7.93762 9.39255 7.93762C9.47505 7.93762 9.55005 7.95762 9.63755 7.95762H9.75255C9.84005 7.95762 9.91255 7.93762 9.99505 7.93762C10.0775 7.93762 10.1525 7.95762 10.24 7.95762H10.3525C10.44 7.95762 10.515 7.93762 10.5975 7.93762C10.68 7.93762 10.755 7.95762 10.8425 7.95762H10.955C11.0425 7.95762 11.1175 7.93762 11.2 7.93762C11.265 7.93762 11.325 7.95012 11.3875 7.95512L11.375 7.93012C11.3385 7.92633 11.3018 7.92466 11.265 7.92512H11.1525C11.065 7.92512 10.99 7.94262 10.9075 7.94512C10.825 7.94512 10.75 7.92512 10.6625 7.92512H10.55C10.4625 7.92512 10.3875 7.94262 10.305 7.94512C10.2225 7.94512 10.1475 7.92512 10.06 7.92512H9.95005C9.86255 7.92512 9.78755 7.94262 9.70505 7.94512C9.62255 7.94512 9.54755 7.92512 9.46005 7.92512H9.34755C9.26005 7.92512 9.18505 7.94262 9.10255 7.94512C9.02005 7.94512 8.94755 7.92512 8.86005 7.92512H8.74505H8.74255Z" fill="url(#paint6_linear_14_329)"/>
<path d="M8.74255 7.89766C8.70326 7.89759 8.66401 7.9001 8.62505 7.90516L8.61255 7.92766C8.67255 7.92016 8.73005 7.91016 8.79255 7.91016C8.87255 7.91016 8.94755 7.93016 9.03505 7.93016H9.15005C9.23755 7.93016 9.31005 7.91016 9.39255 7.91016C9.47505 7.91016 9.55005 7.93016 9.63755 7.93016H9.75255C9.84005 7.93016 9.91255 7.91016 9.99505 7.91016C10.0775 7.91016 10.1525 7.93016 10.24 7.93016H10.3525C10.44 7.93016 10.515 7.91016 10.5975 7.91016C10.68 7.91016 10.755 7.93016 10.8425 7.93016H10.955C11.0425 7.93016 11.1175 7.91016 11.2 7.91016C11.265 7.91016 11.325 7.92266 11.3875 7.92766L11.375 7.90266C11.3385 7.89887 11.3018 7.8972 11.265 7.89766H11.1525C11.065 7.89766 10.99 7.91516 10.9075 7.91766C10.825 7.91766 10.75 7.89766 10.6625 7.89766H10.55C10.4625 7.89766 10.3875 7.91516 10.305 7.91766C10.2225 7.91766 10.1475 7.89766 10.06 7.89766H9.95005C9.86255 7.89766 9.78755 7.91516 9.70505 7.91766C9.62255 7.91766 9.54755 7.89766 9.46005 7.89766H9.34755C9.26005 7.89766 9.18505 7.91516 9.10255 7.91766C9.02005 7.91766 8.94755 7.89766 8.86005 7.89766H8.74505H8.74255Z" fill="url(#paint7_linear_14_329)"/>
<path d="M8.74255 7.86763C8.70326 7.86756 8.66401 7.87007 8.62505 7.87513L8.61255 7.89763C8.67255 7.89013 8.73005 7.88013 8.79255 7.88013C8.87255 7.88013 8.94755 7.90013 9.03505 7.90013H9.15005C9.23755 7.90013 9.31005 7.88013 9.39255 7.88013C9.47505 7.88013 9.55005 7.90013 9.63755 7.90013H9.75255C9.84005 7.90013 9.91255 7.88013 9.99505 7.88013C10.0775 7.88013 10.1525 7.90013 10.24 7.90013H10.3525C10.44 7.90013 10.515 7.88013 10.5975 7.88013C10.68 7.88013 10.755 7.90013 10.8425 7.90013H10.955C11.0425 7.90013 11.1175 7.88013 11.2 7.88013C11.265 7.88013 11.325 7.89263 11.3875 7.89763L11.375 7.87263C11.3385 7.86884 11.3018 7.86717 11.265 7.86763H11.1525C11.065 7.86763 10.99 7.88513 10.9075 7.88763C10.825 7.88763 10.75 7.86763 10.6625 7.86763H10.55C10.4625 7.86763 10.3875 7.88513 10.305 7.88763C10.2225 7.88763 10.1475 7.86763 10.06 7.86763H9.95005C9.86255 7.86763 9.78755 7.88513 9.70505 7.88763C9.62255 7.88763 9.54755 7.86763 9.46005 7.86763H9.34755C9.26005 7.86763 9.18505 7.88513 9.10255 7.88763C9.02005 7.88763 8.94755 7.86763 8.86005 7.86763H8.74505H8.74255Z" fill="url(#paint8_linear_14_329)"/>
<path d="M8.74255 7.84004C8.70326 7.83997 8.66401 7.84248 8.62505 7.84754L8.61255 7.87004C8.67255 7.86254 8.73005 7.85254 8.79255 7.85254C8.87255 7.85254 8.94755 7.87254 9.03505 7.87254H9.15005C9.23755 7.87254 9.31005 7.85254 9.39255 7.85254C9.47505 7.85254 9.55005 7.87254 9.63755 7.87254H9.75255C9.84005 7.87254 9.91255 7.85254 9.99505 7.85254C10.0775 7.85254 10.1525 7.87254 10.24 7.87254H10.3525C10.44 7.87254 10.515 7.85254 10.5975 7.85254C10.68 7.85254 10.755 7.87254 10.8425 7.87254H10.955C11.0425 7.87254 11.1175 7.85254 11.2 7.85254C11.265 7.85254 11.325 7.86504 11.3875 7.87004L11.375 7.84504C11.3385 7.84125 11.3018 7.83958 11.265 7.84004H11.1525C11.065 7.84004 10.99 7.85754 10.9075 7.86004C10.825 7.86004 10.75 7.84004 10.6625 7.84004H10.55C10.4625 7.84004 10.3875 7.85754 10.305 7.86004C10.2225 7.86004 10.1475 7.84004 10.06 7.84004H9.95005C9.86255 7.84004 9.78755 7.85754 9.70505 7.86004C9.62255 7.86004 9.54755 7.84004 9.46005 7.84004H9.34755C9.26005 7.84004 9.18505 7.85754 9.10255 7.86004C9.02005 7.86004 8.94755 7.84004 8.86005 7.84004H8.74505H8.74255Z" fill="url(#paint9_linear_14_329)"/>
<path d="M8.74255 7.81257C8.70326 7.81251 8.66401 7.81501 8.62505 7.82008L8.61255 7.84258C8.67255 7.83508 8.73005 7.82507 8.79255 7.82507C8.87255 7.82507 8.94755 7.84508 9.03505 7.84508H9.15005C9.23755 7.84508 9.31005 7.82507 9.39255 7.82507C9.47505 7.82507 9.55005 7.84508 9.63755 7.84508H9.75255C9.84005 7.84508 9.91255 7.82507 9.99505 7.82507C10.0775 7.82507 10.1525 7.84508 10.24 7.84508H10.3525C10.44 7.84508 10.515 7.82507 10.5975 7.82507C10.68 7.82507 10.755 7.84508 10.8425 7.84508H10.955C11.0425 7.84508 11.1175 7.82507 11.2 7.82507C11.265 7.82507 11.325 7.83758 11.3875 7.84258L11.375 7.81758C11.3385 7.81378 11.3018 7.81211 11.265 7.81257H11.1525C11.065 7.81257 10.99 7.83008 10.9075 7.83258C10.825 7.83258 10.75 7.81257 10.6625 7.81257H10.55C10.4625 7.81257 10.3875 7.83008 10.305 7.83258C10.2225 7.83258 10.1475 7.81257 10.06 7.81257H9.95005C9.86255 7.81257 9.78755 7.83008 9.70505 7.83258C9.62255 7.83258 9.54755 7.81257 9.46005 7.81257H9.34755C9.26005 7.81257 9.18505 7.83008 9.10255 7.83258C9.02005 7.83258 8.94755 7.81257 8.86005 7.81257H8.74505H8.74255Z" fill="url(#paint10_linear_14_329)"/>
<path d="M8.83001 7.68762V7.69262H11.1725L11.17 7.68762H8.83001ZM8.82501 7.69512L8.82251 7.70262H11.175L11.1725 7.69512H8.82251H8.82501ZM8.82001 7.70512L8.81501 7.71262H11.185L11.18 7.70512H8.82001ZM8.81251 7.71762L8.80501 7.73012H11.195L11.1875 7.71762H8.81251ZM8.80251 7.73512L8.79501 7.74762H11.205L11.1975 7.73512H8.80251ZM8.79251 7.75262L8.78751 7.76262H11.2125L11.2075 7.75262H8.79251ZM8.78251 7.77012L8.77751 7.78012H11.225L11.2175 7.77012H8.78251ZM8.77251 7.78762L8.76501 7.80262H11.235L11.2275 7.78762H8.77501H8.77251Z" fill="url(#paint11_linear_14_329)"/>
<path d="M8.93506 7.80762C9.02006 7.82512 9.02756 7.80762 9.02756 7.80762H8.93506ZM10.9726 7.80762C10.9726 7.80762 10.9801 7.82512 11.0651 7.80762H10.9726Z" fill="url(#paint12_linear_14_329)"/>
<path d="M10.7651 7.42505C10.7226 7.42505 10.7101 7.44755 10.7101 7.44755C10.6426 7.71255 10.4151 7.98005 10.1451 7.98005H9.94507V8.25005H11.4801L11.3251 7.97505C11.0826 7.94005 10.8851 7.69255 10.8226 7.44755C10.8226 7.44755 10.8076 7.42505 10.7651 7.42505Z" fill="url(#paint13_linear_14_329)"/>
<path d="M10.765 7.43755C10.745 7.43755 10.735 7.44005 10.7275 7.44505L10.72 7.45255C10.6825 7.59097 10.6102 7.71749 10.51 7.82005C10.41 7.92255 10.285 7.99255 10.145 7.99255H9.95251V8.24005H11.475L11.3325 7.99005C11.215 7.97255 11.1075 7.91005 11.0225 7.82005C10.9223 7.71749 10.85 7.59097 10.8125 7.45255L10.805 7.44505C10.7927 7.43865 10.7788 7.43604 10.765 7.43755Z" fill="#97C924"/>
<path d="M10.765 7.4375H10.775V7.7075C10.7726 7.76429 10.7554 7.81946 10.725 7.8675C10.7125 7.9075 10.7 7.8925 10.6675 7.94C10.6254 7.95454 10.5818 7.96459 10.5375 7.97C10.475 7.98 10.3375 7.99 10.265 7.9725C10.3581 7.94403 10.4424 7.89242 10.51 7.8225C10.5286 7.80262 10.5461 7.78175 10.5625 7.76C10.5904 7.72537 10.6155 7.68859 10.6375 7.65L10.6625 7.6C10.6745 7.57635 10.6853 7.55216 10.695 7.5275C10.7047 7.50296 10.713 7.47792 10.72 7.4525L10.7275 7.445L10.7425 7.44L10.7675 7.4375H10.765Z" fill="#EDE71F"/>
<path d="M10.7501 7.47253C10.7376 7.62253 10.6926 7.80253 10.5826 7.91753C10.5426 7.95003 10.4901 7.98253 10.4426 7.97503C10.6101 7.83753 10.7126 7.62503 10.7476 7.47253H10.7501Z" fill="#C6CB24"/>
<path d="M10.6126 7.73254C10.5876 7.80004 10.4926 7.90004 10.3926 7.98254H10.3201C10.3826 7.97754 10.5276 7.85754 10.6126 7.73254Z" fill="#9ECB34"/>
<path d="M10.3825 7.42505C10.34 7.42505 10.3275 7.44755 10.3275 7.44755C10.26 7.71255 10.0325 7.98005 9.7625 7.98005H9.5625V8.25005H11.0975L10.9425 7.97505C10.7 7.94005 10.5025 7.69255 10.44 7.44755C10.44 7.44755 10.425 7.42505 10.3825 7.42505Z" fill="url(#paint14_linear_14_329)"/>
<path d="M10.3824 7.43755C10.3624 7.43755 10.3524 7.44005 10.3449 7.44505L10.3374 7.45255C10.3 7.59097 10.2277 7.71749 10.1274 7.82005C10.0274 7.92255 9.90245 7.99255 9.76245 7.99255H9.56995V8.24005H11.0924L10.9499 7.99005C10.8324 7.97255 10.7249 7.91005 10.6399 7.82005C10.5397 7.71749 10.4674 7.59097 10.4299 7.45255L10.4224 7.44505C10.4102 7.43865 10.3962 7.43604 10.3824 7.43755Z" fill="#97C924"/>
<path d="M10.3824 7.4375H10.3924V7.7075C10.3901 7.76429 10.3728 7.81946 10.3424 7.8675C10.3299 7.9075 10.3174 7.8925 10.2849 7.94C10.2428 7.95454 10.1992 7.96459 10.1549 7.97C10.0924 7.98 9.95495 7.99 9.88245 7.9725C9.97549 7.94403 10.0598 7.89242 10.1274 7.8225C10.146 7.80262 10.1636 7.78175 10.1799 7.76C10.2078 7.72537 10.2329 7.68859 10.2549 7.65L10.2799 7.6C10.2919 7.57635 10.3028 7.55216 10.3124 7.5275C10.3221 7.50296 10.3304 7.47792 10.3374 7.4525L10.3449 7.445L10.3599 7.44L10.3849 7.4375H10.3824Z" fill="#EDE71F"/>
<path d="M10.3676 7.47253C10.3551 7.62253 10.3101 7.80253 10.2001 7.91753C10.1601 7.95003 10.1076 7.98253 10.0601 7.97503C10.2276 7.83753 10.3301 7.62503 10.3651 7.47253H10.3676Z" fill="#C6CB24"/>
<path d="M10.23 7.73254C10.205 7.80004 10.11 7.90004 10.01 7.98254H9.9375C10 7.97754 10.145 7.85754 10.23 7.73254Z" fill="#9ECB34"/>
<path d="M10.055 7.44999C10.125 7.71249 10.35 7.97999 10.62 7.97999H10.8225V8.24999H9.17749V7.97999H9.37749C9.64749 7.97999 9.87499 7.71249 9.94249 7.44749C9.94249 7.44749 9.95749 7.42749 9.99999 7.42749C10.0425 7.42749 10.055 7.44749 10.055 7.44749V7.44999Z" fill="url(#paint15_linear_14_329)"/>
<path d="M10 7.43743C10.02 7.43743 10.03 7.44243 10.0375 7.44493L10.045 7.45243C10.0825 7.59085 10.1548 7.71737 10.255 7.81993C10.355 7.92243 10.48 7.99243 10.62 7.99243H10.8125V8.23993H9.1875V7.98993H9.38C9.5175 7.98993 9.645 7.92243 9.745 7.81993C9.84431 7.71709 9.91574 7.5906 9.9525 7.45243L9.96 7.44493C9.97239 7.43879 9.98623 7.4362 10 7.43743Z" fill="#97C924"/>
<path d="M9.9825 7.43746C9.98 7.43735 9.9775 7.43735 9.975 7.43746L9.96 7.44496L9.9525 7.45246C9.94554 7.4779 9.9372 7.50294 9.9275 7.52746C9.91869 7.55292 9.90868 7.57795 9.8975 7.60246C9.88967 7.61855 9.88133 7.63439 9.8725 7.64996C9.85045 7.68855 9.82537 7.72534 9.7975 7.75996C9.78105 7.78086 9.76353 7.80088 9.745 7.81996C9.67762 7.89079 9.5933 7.94328 9.5 7.97246C9.57 7.98996 9.6 7.97246 9.6625 7.96246C9.7125 7.95496 9.7675 7.94746 9.8125 7.93246C9.85 7.88246 9.8375 7.89996 9.85 7.85996C9.88 7.80496 9.925 7.75496 9.935 7.69246C9.975 7.61746 9.9825 7.47746 9.9825 7.43746Z" fill="#EDE71F"/>
<path d="M9.98255 7.47253C9.97255 7.62253 9.92505 7.80253 9.81505 7.91753C9.77505 7.95003 9.72505 7.98253 9.67505 7.97503C9.84505 7.83753 9.94755 7.62503 9.98255 7.47253Z" fill="#C6CB24"/>
<path d="M9.84493 7.73254C9.79058 7.83083 9.71551 7.91614 9.62493 7.98254H9.55493C9.61743 7.97754 9.75993 7.85754 9.84493 7.73254Z" fill="#9ECB34"/>
<path d="M10.025 7.43994L10.0375 7.44494L10.0475 7.45244C10.0546 7.47783 10.0629 7.50286 10.0725 7.52744C10.0812 7.55291 10.0913 7.57794 10.1025 7.60244L10.1275 7.64994C10.1495 7.68853 10.1746 7.72532 10.2025 7.75994C10.2189 7.78084 10.2364 7.80086 10.255 7.81994C10.3219 7.89359 10.4061 7.94943 10.5 7.98244C10.3175 7.98244 10.24 7.96744 10.175 7.88244C10.1277 7.8324 10.0919 7.77269 10.07 7.70744C10.0575 7.65744 10.02 7.54494 10.0225 7.43994H10.025Z" fill="#EDE71F"/>
<path d="M10.0375 7.47253C10.0475 7.62253 10.0925 7.77253 10.2025 7.88753C10.2425 7.92253 10.2925 7.95253 10.3425 7.94503C10.1854 7.83111 10.0766 7.66257 10.0375 7.47253Z" fill="#C6CB24"/>
<path d="M9.62003 7.42505C9.57503 7.42505 9.56253 7.44755 9.56253 7.44755C9.50003 7.69255 9.26753 8.00505 9.02503 8.04255L8.90503 8.25005H10.13V7.96755C9.91003 7.90755 9.73253 7.67505 9.67503 7.44755C9.67503 7.44755 9.66253 7.42755 9.61753 7.42755L9.62003 7.42505Z" fill="url(#paint16_linear_14_329)"/>
<path d="M9.61998 7.43755C9.59998 7.43755 9.58748 7.44255 9.57998 7.44505L9.57248 7.45255C9.53043 7.58971 9.4616 7.71717 9.36998 7.82755C9.28498 7.93505 9.12748 8.04255 9.01998 8.05255L8.91248 8.24005H10.1125V7.97255C10.0222 7.94277 9.94066 7.89126 9.87498 7.82255C9.77439 7.71928 9.70207 7.59186 9.66498 7.45255L9.65748 7.44505C9.64587 7.43924 9.63292 7.43665 9.61998 7.43755Z" fill="#97C924"/>
<path d="M9.58508 7.47253C9.57008 7.69753 9.44508 7.98503 9.30258 8.03253C9.25508 8.05003 9.17508 8.05503 9.14758 8.05753C9.25781 7.99629 9.35395 7.91257 9.42974 7.81179C9.50554 7.71101 9.55932 7.59543 9.58758 7.47253H9.58508Z" fill="#93BC30"/>
<path d="M9.62004 7.43757H9.60754V7.70757C9.60754 7.76507 9.63004 7.81257 9.65754 7.86757L9.66254 7.88007C9.67504 7.90757 9.68254 7.91757 9.72004 7.94757C9.8274 8.02419 9.95871 8.05968 10.09 8.04757C10.0625 8.02507 10.0325 8.00507 10.005 7.98757L10.1175 7.97507C10.0249 7.9448 9.94143 7.89146 9.87504 7.82007C9.86296 7.80797 9.85129 7.79546 9.84004 7.78257L9.82504 7.76257C9.79546 7.72724 9.76871 7.68962 9.74504 7.65007C9.73617 7.63368 9.72783 7.61701 9.72004 7.60007C9.70471 7.56843 9.69135 7.53587 9.68004 7.50257C9.6745 7.48608 9.66949 7.4694 9.66504 7.45257L9.65754 7.44507C9.65281 7.44269 9.64776 7.44101 9.64254 7.44007C9.63437 7.43808 9.62595 7.43723 9.61754 7.43757H9.62004Z" fill="#EDE71F"/>
<path d="M9.63501 7.47253C9.64751 7.62253 9.69251 7.80253 9.80251 7.91753C9.84251 7.95003 9.89251 7.98253 9.94251 7.97503C9.79001 7.84379 9.68247 7.66806 9.63501 7.47253Z" fill="#CCD11E"/>
<path d="M9.73999 7.68255C9.82097 7.84093 9.94829 7.97087 10.105 8.05505H10.1675C10.0575 7.99505 9.87999 7.91005 9.74249 7.68005L9.73999 7.68255Z" fill="#9ECB34"/>
<path d="M9.23502 7.42505C9.19002 7.42505 9.17752 7.44755 9.17752 7.44755C9.11502 7.69255 8.88252 8.00505 8.64002 8.04255L8.52002 8.25005H9.74502V7.96755C9.52502 7.90755 9.34752 7.67505 9.29002 7.44755C9.29002 7.44755 9.27752 7.42755 9.23252 7.42755L9.23502 7.42505Z" fill="url(#paint17_linear_14_329)"/>
<path d="M9.23497 7.43755C9.21497 7.43755 9.20247 7.44255 9.19497 7.44505L9.18747 7.45255C9.14542 7.58971 9.07659 7.71717 8.98497 7.82755C8.89997 7.93505 8.74247 8.04255 8.63497 8.05255L8.52747 8.24005H9.72747V7.97255C9.6372 7.94277 9.55565 7.89126 9.48997 7.82255C9.38938 7.71928 9.31706 7.59186 9.27997 7.45255L9.27247 7.44505C9.26086 7.43924 9.24791 7.43665 9.23497 7.43755Z" fill="#97C924"/>
<path d="M9.20007 7.47253C9.18507 7.69753 9.06007 7.98503 8.91757 8.03253C8.87007 8.05003 8.79007 8.05503 8.76257 8.05753C8.8728 7.99629 8.96894 7.91257 9.04473 7.81179C9.12053 7.71101 9.17431 7.59543 9.20257 7.47253H9.20007Z" fill="#93BC30"/>
<path d="M9.23503 7.43757H9.22253V7.70757C9.22253 7.76507 9.24503 7.81257 9.27253 7.86757L9.27753 7.88007C9.29003 7.90757 9.29753 7.91757 9.33503 7.94757C9.44239 8.02419 9.5737 8.05968 9.70503 8.04757C9.67753 8.02507 9.64753 8.00507 9.62003 7.98757L9.73253 7.97507C9.63987 7.9448 9.55642 7.89146 9.49003 7.82007C9.47795 7.80797 9.46628 7.79546 9.45503 7.78257L9.44003 7.76257C9.41045 7.72724 9.3837 7.68962 9.36003 7.65007C9.35116 7.63368 9.34282 7.61701 9.33503 7.60007C9.3197 7.56843 9.30634 7.53587 9.29503 7.50257C9.28949 7.48608 9.28448 7.4694 9.28003 7.45257L9.27253 7.44507C9.2678 7.44269 9.26275 7.44101 9.25753 7.44007C9.24936 7.43808 9.24094 7.43723 9.23253 7.43757H9.23503Z" fill="#EDE71F"/>
<path d="M9.25 7.47253C9.2625 7.62253 9.3075 7.80253 9.4175 7.91753C9.4575 7.95003 9.5075 7.98253 9.5575 7.97503C9.405 7.84379 9.29746 7.66806 9.25 7.47253Z" fill="#C6CB24"/>
<path d="M9.35498 7.68255C9.43596 7.84093 9.56328 7.97087 9.71998 8.05505H9.78248C9.67248 7.99505 9.49498 7.91005 9.35748 7.68005L9.35498 7.68255Z" fill="#9ECB34"/>
<path d="M11.4125 8.11753C11.3975 8.12253 11.3025 8.11253 11.2525 8.11753L11.22 8.12503H11.1375C11.0475 8.12503 10.97 8.15003 10.885 8.15003C10.8 8.15003 10.7225 8.12503 10.635 8.12503H10.55C10.46 8.12503 10.3825 8.15003 10.2975 8.15003C10.2125 8.15003 10.135 8.12503 10.0475 8.12503H9.96247C9.87247 8.12503 9.79497 8.15003 9.71247 8.15003C9.62497 8.15003 9.54997 8.12503 9.45997 8.12503H9.37497C9.28497 8.12503 9.20997 8.15003 9.12497 8.15003C9.03747 8.15003 8.96247 8.12503 8.87247 8.12503H8.78747C8.71747 8.12503 8.63247 8.14003 8.56497 8.14503L8.40747 8.41753H11.5925L11.4125 8.11753Z" fill="white"/>
<path d="M11.2 8.07751H11.185C11.105 8.08001 11.045 8.10501 10.905 8.10501C10.765 8.10501 10.75 8.08001 10.59 8.08501C10.44 8.08501 10.38 8.11501 10.2975 8.11501C10.2175 8.11501 10.0875 8.09751 9.98502 8.10751C9.88502 8.11751 9.76502 8.14001 9.68502 8.14001C9.58752 8.14001 9.49002 8.12251 9.39002 8.13251C9.28752 8.14251 9.24002 8.17001 9.11252 8.17001C9.00252 8.17001 8.88752 8.15251 8.79252 8.15251C8.70752 8.15251 8.61252 8.17751 8.54252 8.18751L8.52002 8.22501C8.57752 8.21751 8.73502 8.19251 8.79002 8.19251C8.85002 8.19251 9.05752 8.20501 9.17252 8.20001C9.29002 8.19751 9.30252 8.17001 9.44002 8.17001C9.53502 8.17001 9.60502 8.18001 9.70252 8.18001C9.76502 8.18001 9.82002 8.15001 9.91252 8.15001L9.98252 8.14751C10.06 8.13501 10.1925 8.14751 10.2825 8.15251C10.365 8.15751 10.42 8.13751 10.5075 8.13501L10.6175 8.13251C10.705 8.12751 10.7775 8.14751 10.86 8.14751C10.94 8.14251 11.02 8.12251 11.105 8.12251L11.2175 8.11751C11.275 8.11751 11.365 8.11751 11.425 8.13001L11.405 8.09501C11.345 8.09251 11.2725 8.07751 11.2 8.07751Z" fill="url(#paint18_linear_14_329)"/>
<path d="M8.75742 8.37005C8.67242 8.37005 8.59742 8.39005 8.51742 8.39255C8.4873 8.39176 8.45725 8.38926 8.42742 8.38505L8.41492 8.40505H8.56492C8.65242 8.40505 8.72492 8.38505 8.80492 8.38255C8.88742 8.38505 8.95992 8.40755 9.04742 8.40755H9.15992C9.24492 8.40755 9.31992 8.38505 9.39992 8.38255C9.48242 8.38505 9.55742 8.40755 9.64242 8.40755H9.75492C9.84242 8.40755 9.91492 8.38505 9.99742 8.38255C10.0774 8.38505 10.1499 8.40755 10.2374 8.40755H10.3499C10.4349 8.40755 10.5099 8.38505 10.5924 8.38255C10.6724 8.38505 10.7474 8.40755 10.8324 8.40755H10.9449C11.0324 8.40755 11.1049 8.38505 11.1849 8.38255C11.2674 8.38505 11.3399 8.40755 11.4274 8.40755H11.5399L11.5849 8.40505L11.5724 8.38505C11.5474 8.38755 11.5199 8.39255 11.4924 8.39255C11.4099 8.39255 11.3374 8.36755 11.2499 8.36755H11.1374C11.0524 8.36755 10.9774 8.39255 10.8974 8.39255C10.8149 8.39005 10.7424 8.36755 10.6549 8.36755H10.5424C10.4574 8.36755 10.3824 8.39255 10.3024 8.39255C10.2199 8.39005 10.1474 8.36755 10.0599 8.36755H9.94742C9.85992 8.36755 9.78742 8.39255 9.70742 8.39255C9.62492 8.39005 9.55242 8.36755 9.46492 8.36755H9.35242C9.26742 8.36755 9.19242 8.39255 9.11242 8.39255C9.02992 8.39005 8.95742 8.36755 8.86992 8.36755H8.75742V8.37005Z" fill="url(#paint19_linear_14_329)"/>
<path d="M8.75742 8.33758C8.67242 8.33758 8.59742 8.35758 8.51742 8.36008C8.4873 8.35929 8.45725 8.35679 8.42742 8.35258L8.41492 8.37258H8.56492C8.65242 8.37258 8.72492 8.35258 8.80492 8.35008C8.88742 8.35258 8.95992 8.37508 9.04742 8.37508H9.15992C9.24492 8.37508 9.31992 8.35258 9.39992 8.35008C9.48242 8.35258 9.55742 8.37508 9.64242 8.37508H9.75492C9.84242 8.37508 9.91492 8.35258 9.99742 8.35008C10.0774 8.35258 10.1499 8.37508 10.2374 8.37508H10.3499C10.4349 8.37508 10.5099 8.35258 10.5924 8.35008C10.6724 8.35258 10.7474 8.37508 10.8324 8.37508H10.9449C11.0324 8.37508 11.1049 8.35258 11.1849 8.35008C11.2674 8.35258 11.3399 8.37508 11.4274 8.37508H11.5399L11.5849 8.37258L11.5724 8.35258C11.5474 8.35508 11.5199 8.36008 11.4924 8.36008C11.4099 8.36008 11.3374 8.33508 11.2499 8.33508H11.1374C11.0524 8.33508 10.9774 8.36008 10.8974 8.36008C10.8149 8.35758 10.7424 8.33508 10.6549 8.33508H10.5424C10.4574 8.33508 10.3824 8.36008 10.3024 8.36008C10.2199 8.35758 10.1474 8.33508 10.0599 8.33508H9.94742C9.85992 8.33508 9.78742 8.36008 9.70742 8.36008C9.62492 8.35758 9.55242 8.33508 9.46492 8.33508H9.35242C9.26742 8.33508 9.19242 8.36008 9.11242 8.36008C9.02992 8.35758 8.95742 8.33508 8.86992 8.33508H8.75742V8.33758Z" fill="url(#paint20_linear_14_329)"/>
<path d="M8.75742 8.30511C8.67242 8.30511 8.59742 8.32511 8.51742 8.32761C8.4873 8.32682 8.45725 8.32432 8.42742 8.32011L8.41492 8.34011H8.56492C8.65242 8.34011 8.72492 8.32011 8.80492 8.31761C8.88742 8.32011 8.95992 8.34261 9.04742 8.34261H9.15992C9.24492 8.34261 9.31992 8.32011 9.39992 8.31761C9.48242 8.32011 9.55742 8.34261 9.64242 8.34261H9.75492C9.84242 8.34261 9.91492 8.32011 9.99742 8.31761C10.0774 8.32011 10.1499 8.34261 10.2374 8.34261H10.3499C10.4349 8.34261 10.5099 8.32011 10.5924 8.31761C10.6724 8.32011 10.7474 8.34261 10.8324 8.34261H10.9449C11.0324 8.34261 11.1049 8.32011 11.1849 8.31761C11.2674 8.32011 11.3399 8.34261 11.4274 8.34261H11.5399L11.5849 8.34011L11.5724 8.32011C11.5474 8.32261 11.5199 8.32761 11.4924 8.32761C11.4099 8.32761 11.3374 8.30261 11.2499 8.30261H11.1374C11.0524 8.30261 10.9774 8.32761 10.8974 8.32761C10.8149 8.32511 10.7424 8.30261 10.6549 8.30261H10.5424C10.4574 8.30261 10.3824 8.32761 10.3024 8.32761C10.2199 8.32511 10.1474 8.30261 10.0599 8.30261H9.94742C9.85992 8.30261 9.78742 8.32761 9.70742 8.32761C9.62492 8.32511 9.55242 8.30261 9.46492 8.30261H9.35242C9.26742 8.30261 9.19242 8.32761 9.11242 8.32761C9.02992 8.32511 8.95742 8.30261 8.86992 8.30261H8.75742V8.30511Z" fill="url(#paint21_linear_14_329)"/>
<path d="M8.75742 8.27252C8.67242 8.27252 8.59742 8.29252 8.51742 8.29502C8.4873 8.29423 8.45725 8.29172 8.42742 8.28752L8.41492 8.30752H8.56492C8.65242 8.30752 8.72492 8.28752 8.80492 8.28502C8.88742 8.28752 8.95992 8.31002 9.04742 8.31002H9.15992C9.24492 8.31002 9.31992 8.28752 9.39992 8.28502C9.48242 8.28752 9.55742 8.31002 9.64242 8.31002H9.75492C9.84242 8.31002 9.91492 8.28752 9.99742 8.28502C10.0774 8.28752 10.1499 8.31002 10.2374 8.31002H10.3499C10.4349 8.31002 10.5099 8.28752 10.5924 8.28502C10.6724 8.28752 10.7474 8.31002 10.8324 8.31002H10.9449C11.0324 8.31002 11.1049 8.28752 11.1849 8.28502C11.2674 8.28752 11.3399 8.31002 11.4274 8.31002H11.5399L11.5849 8.30752L11.5724 8.28752C11.5474 8.29002 11.5199 8.29502 11.4924 8.29502C11.4099 8.29502 11.3374 8.27002 11.2499 8.27002H11.1374C11.0524 8.27002 10.9774 8.29502 10.8974 8.29502C10.8149 8.29252 10.7424 8.27002 10.6549 8.27002H10.5424C10.4574 8.27002 10.3824 8.29502 10.3024 8.29502C10.2199 8.29252 10.1474 8.27002 10.0599 8.27002H9.94742C9.85992 8.27002 9.78742 8.29502 9.70742 8.29502C9.62492 8.29252 9.55242 8.27002 9.46492 8.27002H9.35242C9.26742 8.27002 9.19242 8.29502 9.11242 8.29502C9.02992 8.29252 8.95742 8.27002 8.86992 8.27002H8.75742V8.27252Z" fill="url(#paint22_linear_14_329)"/>
<path d="M8.75742 8.24005C8.67242 8.24005 8.59742 8.26005 8.51742 8.26255C8.4873 8.26176 8.45725 8.25925 8.42742 8.25505L8.41492 8.27505H8.56492C8.65242 8.27505 8.72492 8.25505 8.80492 8.25255C8.88742 8.25505 8.95992 8.27755 9.04742 8.27755H9.15992C9.24492 8.27755 9.31992 8.25505 9.39992 8.25255C9.48242 8.25505 9.55742 8.27755 9.64242 8.27755H9.75492C9.84242 8.27755 9.91492 8.25505 9.99742 8.25255C10.0774 8.25505 10.1499 8.27755 10.2374 8.27755H10.3499C10.4349 8.27755 10.5099 8.25505 10.5924 8.25255C10.6724 8.25505 10.7474 8.27755 10.8324 8.27755H10.9449C11.0324 8.27755 11.1049 8.25505 11.1849 8.25255C11.2674 8.25505 11.3399 8.27755 11.4274 8.27755H11.5399L11.5849 8.27505L11.5724 8.25505C11.5474 8.25755 11.5199 8.26255 11.4924 8.26255C11.4099 8.26255 11.3374 8.23755 11.2499 8.23755H11.1374C11.0524 8.23755 10.9774 8.26255 10.8974 8.26255C10.8149 8.26005 10.7424 8.23755 10.6549 8.23755H10.5424C10.4574 8.23755 10.3824 8.26255 10.3024 8.26255C10.2199 8.26005 10.1474 8.23755 10.0599 8.23755H9.94742C9.85992 8.23755 9.78742 8.26255 9.70742 8.26255C9.62492 8.26005 9.55242 8.23755 9.46492 8.23755H9.35242C9.26742 8.23755 9.19242 8.26255 9.11242 8.26255C9.02992 8.26005 8.95742 8.23755 8.86992 8.23755H8.75742V8.24005Z" fill="url(#paint23_linear_14_329)"/>
<path d="M8.75742 8.20758C8.67242 8.20758 8.59742 8.22758 8.51742 8.23008C8.4873 8.22929 8.45725 8.22678 8.42742 8.22258L8.41492 8.24258H8.56492C8.65242 8.24258 8.72492 8.22258 8.80492 8.22008C8.88742 8.22258 8.95992 8.24508 9.04742 8.24508H9.15992C9.24492 8.24508 9.31992 8.22258 9.39992 8.22008C9.48242 8.22258 9.55742 8.24508 9.64242 8.24508H9.75492C9.84242 8.24508 9.91492 8.22258 9.99742 8.22008C10.0774 8.22258 10.1499 8.24508 10.2374 8.24508H10.3499C10.4349 8.24508 10.5099 8.22258 10.5924 8.22008C10.6724 8.22258 10.7474 8.24508 10.8324 8.24508H10.9449C11.0324 8.24508 11.1049 8.22258 11.1849 8.22008C11.2674 8.22258 11.3399 8.24508 11.4274 8.24508H11.5399L11.5849 8.24258L11.5724 8.22258C11.5474 8.22508 11.5199 8.23008 11.4924 8.23008C11.4099 8.23008 11.3374 8.20508 11.2499 8.20508H11.1374C11.0524 8.20508 10.9774 8.23008 10.8974 8.23008C10.8149 8.22758 10.7424 8.20508 10.6549 8.20508H10.5424C10.4574 8.20508 10.3824 8.23008 10.3024 8.23008C10.2199 8.22758 10.1474 8.20508 10.0599 8.20508H9.94742C9.85992 8.20508 9.78742 8.23008 9.70742 8.23008C9.62492 8.22758 9.55242 8.20508 9.46492 8.20508H9.35242C9.26742 8.20508 9.19242 8.23008 9.11242 8.23008C9.02992 8.22758 8.95742 8.20508 8.86992 8.20508H8.75742V8.20758Z" fill="url(#paint24_linear_14_329)"/>
<path d="M8.75742 8.17755C8.67242 8.17755 8.59742 8.19755 8.51742 8.20005C8.4873 8.19926 8.45725 8.19675 8.42742 8.19255L8.41492 8.21255H8.56492C8.65242 8.21255 8.72492 8.19255 8.80492 8.19005C8.88742 8.19255 8.95992 8.21505 9.04742 8.21505H9.15992C9.24492 8.21505 9.31992 8.19255 9.39992 8.19005C9.48242 8.19255 9.55742 8.21505 9.64242 8.21505H9.75492C9.84242 8.21505 9.91492 8.19255 9.99742 8.19005C10.0774 8.19255 10.1499 8.21505 10.2374 8.21505H10.3499C10.4349 8.21505 10.5099 8.19255 10.5924 8.19005C10.6724 8.19255 10.7474 8.21505 10.8324 8.21505H10.9449C11.0324 8.21505 11.1049 8.19255 11.1849 8.19005C11.2674 8.19255 11.3399 8.21505 11.4274 8.21505H11.5399L11.5849 8.21255L11.5724 8.19255C11.5474 8.19505 11.5199 8.20005 11.4924 8.20005C11.4099 8.20005 11.3374 8.17505 11.2499 8.17505H11.1374C11.0524 8.17505 10.9774 8.20005 10.8974 8.20005C10.8149 8.19755 10.7424 8.17505 10.6549 8.17505H10.5424C10.4574 8.17505 10.3824 8.20005 10.3024 8.20005C10.2199 8.19755 10.1474 8.17505 10.0599 8.17505H9.94742C9.85992 8.17505 9.78742 8.20005 9.70742 8.20005C9.62492 8.19755 9.55242 8.17505 9.46492 8.17505H9.35242C9.26742 8.17505 9.19242 8.20005 9.11242 8.20005C9.02992 8.19755 8.95742 8.17505 8.86992 8.17505H8.75742V8.17755Z" fill="url(#paint25_linear_14_329)"/>
<path d="M8.75742 8.14508C8.67242 8.14508 8.59742 8.16508 8.51742 8.16758C8.4873 8.16679 8.45725 8.16428 8.42742 8.16008L8.41492 8.18008H8.56492C8.65242 8.18008 8.72492 8.16008 8.80492 8.15758C8.88742 8.16008 8.95992 8.18258 9.04742 8.18258H9.15992C9.24492 8.18258 9.31992 8.16008 9.39992 8.15758C9.48242 8.16008 9.55742 8.18258 9.64242 8.18258H9.75492C9.84242 8.18258 9.91492 8.16008 9.99742 8.15758C10.0774 8.16008 10.1499 8.18258 10.2374 8.18258H10.3499C10.4349 8.18258 10.5099 8.16008 10.5924 8.15758C10.6724 8.16008 10.7474 8.18258 10.8324 8.18258H10.9449C11.0324 8.18258 11.1049 8.16008 11.1849 8.15758C11.2674 8.16008 11.3399 8.18258 11.4274 8.18258H11.5399L11.5849 8.18008L11.5724 8.16008C11.5474 8.16258 11.5199 8.16758 11.4924 8.16758C11.4099 8.16758 11.3374 8.14258 11.2499 8.14258H11.1374C11.0524 8.14258 10.9774 8.16758 10.8974 8.16758C10.8149 8.16508 10.7424 8.14258 10.6549 8.14258H10.5424C10.4574 8.14258 10.3824 8.16758 10.3024 8.16758C10.2199 8.16508 10.1474 8.14258 10.0599 8.14258H9.94742C9.85992 8.14258 9.78742 8.16758 9.70742 8.16758C9.62492 8.16508 9.55242 8.14258 9.46492 8.14258H9.35242C9.26742 8.14258 9.19242 8.16758 9.11242 8.16758C9.02992 8.16508 8.95742 8.14258 8.86992 8.14258H8.75742V8.14508Z" fill="url(#paint26_linear_14_329)"/>
<path d="M8.75742 8.11261C8.67242 8.11261 8.59742 8.13261 8.51742 8.13511C8.4873 8.13431 8.45725 8.13181 8.42742 8.12761L8.41492 8.14761H8.56492C8.65242 8.14761 8.72492 8.12761 8.80492 8.12511C8.88742 8.12761 8.95992 8.15011 9.04742 8.15011H9.15992C9.24492 8.15011 9.31992 8.12761 9.39992 8.12511C9.48242 8.12761 9.55742 8.15011 9.64242 8.15011H9.75492C9.84242 8.15011 9.91492 8.12761 9.99742 8.12511C10.0774 8.12761 10.1499 8.15011 10.2374 8.15011H10.3499C10.4349 8.15011 10.5099 8.12761 10.5924 8.12511C10.6724 8.12761 10.7474 8.15011 10.8324 8.15011H10.9449C11.0324 8.15011 11.1049 8.12761 11.1849 8.12511C11.2674 8.12761 11.3399 8.15011 11.4274 8.15011H11.5399L11.5849 8.14761L11.5724 8.12761C11.5474 8.13011 11.5199 8.13511 11.4924 8.13511C11.4099 8.13511 11.3374 8.11011 11.2499 8.11011H11.1374C11.0524 8.11011 10.9774 8.13511 10.8974 8.13511C10.8149 8.13261 10.7424 8.11011 10.6549 8.11011H10.5424C10.4574 8.11011 10.3824 8.13511 10.3024 8.13511C10.2199 8.13261 10.1474 8.11011 10.0599 8.11011H9.94742C9.85992 8.11011 9.78742 8.13511 9.70742 8.13511C9.62492 8.13261 9.55242 8.11011 9.46492 8.11011H9.35242C9.26742 8.11011 9.19242 8.13511 9.11242 8.13511C9.02992 8.13261 8.95742 8.11011 8.86992 8.11011H8.75742V8.11261Z" fill="url(#paint27_linear_14_329)"/>
<path d="M8.59741 8.11759L8.53491 8.22259C8.60741 8.21009 8.71241 8.18009 8.80241 8.18009C8.89241 8.18009 9.00241 8.20259 9.11241 8.20509C9.23741 8.20509 9.28741 8.17509 9.38741 8.16509C9.48991 8.15509 9.58741 8.17759 9.68741 8.18009C9.76491 8.18009 9.88491 8.15259 9.98741 8.14259C10.0874 8.13009 10.1799 8.15009 10.2999 8.15009C10.4224 8.15259 10.4424 8.12009 10.5899 8.11759C10.7499 8.11509 10.7649 8.14009 10.9049 8.14009C11.0099 8.14509 11.1024 8.11759 11.1974 8.11259C11.2924 8.10509 11.3349 8.11259 11.4049 8.11259L11.3574 8.03259L8.82491 8.09009L8.59741 8.11759Z" fill="#97C924"/>
<path d="M11.25 8.11511L11.35 8.12261C11.3741 8.1255 11.3983 8.128 11.4225 8.13011L11.4125 8.11761C11.3975 8.12261 11.3025 8.11261 11.2525 8.11761L11.25 8.11511Z" fill="white"/>
</g>
<path d="M10 5.62183L9.19687 7.01245L8.375 8.43745H11.625L10.8219 7.0437L10 5.62495V5.62183ZM10 5.69683L10.7875 7.06245L11.5594 8.39995H8.44063L9.22812 7.0312L10 5.69683Z" fill="#C8A400"/>
</g>
<defs>
<linearGradient id="paint0_linear_14_329" x1="9.96752" y1="7.2276" x2="10.015" y2="7.0851" gradientUnits="userSpaceOnUse">
<stop stop-color="#510000"/>
<stop offset="0.3" stop-color="#8A0000"/>
<stop offset="1" stop-color="#AA0000"/>
</linearGradient>
<linearGradient id="paint1_linear_14_329" x1="10.035" y1="7.28512" x2="10.0725" y2="7.18512" gradientUnits="userSpaceOnUse">
<stop stop-color="#FF2A2A"/>
<stop offset="1" stop-color="#FF0000"/>
</linearGradient>
<linearGradient id="paint2_linear_14_329" x1="8.61255" y1="7.93773" x2="13.36" y2="7.93773" gradientUnits="userSpaceOnUse">
<stop stop-color="#002255"/>
<stop offset="0.5" stop-color="#0044AA"/>
<stop offset="1" stop-color="#002255"/>
</linearGradient>
<linearGradient id="paint3_linear_14_329" x1="8.61255" y1="7.91014" x2="13.36" y2="7.91014" gradientUnits="userSpaceOnUse">
<stop stop-color="#002255"/>
<stop offset="0.5" stop-color="#0044AA"/>
<stop offset="1" stop-color="#002255"/>
</linearGradient>
<linearGradient id="paint4_linear_14_329" x1="8.61255" y1="7.88268" x2="13.36" y2="7.88268" gradientUnits="userSpaceOnUse">
<stop stop-color="#002255"/>
<stop offset="0.5" stop-color="#0044AA"/>
<stop offset="1" stop-color="#002255"/>
</linearGradient>
<linearGradient id="paint5_linear_14_329" x1="8.61255" y1="7.85521" x2="13.36" y2="7.85521" gradientUnits="userSpaceOnUse">
<stop stop-color="#002255"/>
<stop offset="0.5" stop-color="#0044AA"/>
<stop offset="1" stop-color="#002255"/>
</linearGradient>
<linearGradient id="paint6_linear_14_329" x1="8.61255" y1="7.82762" x2="13.36" y2="7.82762" gradientUnits="userSpaceOnUse">
<stop stop-color="#002255"/>
<stop offset="0.5" stop-color="#0044AA"/>
<stop offset="1" stop-color="#002255"/>
</linearGradient>
<linearGradient id="paint7_linear_14_329" x1="8.61255" y1="7.80016" x2="13.36" y2="7.80016" gradientUnits="userSpaceOnUse">
<stop stop-color="#002255"/>
<stop offset="0.5" stop-color="#0044AA"/>
<stop offset="1" stop-color="#002255"/>
</linearGradient>
<linearGradient id="paint8_linear_14_329" x1="8.61255" y1="7.77013" x2="13.36" y2="7.77013" gradientUnits="userSpaceOnUse">
<stop stop-color="#002255"/>
<stop offset="0.5" stop-color="#0044AA"/>
<stop offset="1" stop-color="#002255"/>
</linearGradient>
<linearGradient id="paint9_linear_14_329" x1="8.61255" y1="7.74254" x2="13.36" y2="7.74254" gradientUnits="userSpaceOnUse">
<stop stop-color="#002255"/>
<stop offset="0.5" stop-color="#0044AA"/>
<stop offset="1" stop-color="#002255"/>
</linearGradient>
<linearGradient id="paint10_linear_14_329" x1="8.61255" y1="7.71507" x2="13.36" y2="7.71507" gradientUnits="userSpaceOnUse">
<stop stop-color="#002255"/>
<stop offset="0.5" stop-color="#0044AA"/>
<stop offset="1" stop-color="#002255"/>
</linearGradient>
<linearGradient id="paint11_linear_14_329" x1="8.61251" y1="7.93762" x2="13.36" y2="7.93762" gradientUnits="userSpaceOnUse">
<stop stop-color="#002255"/>
<stop offset="0.5" stop-color="#0044AA"/>
<stop offset="1" stop-color="#002255"/>
</linearGradient>
<linearGradient id="paint12_linear_14_329" x1="8.61256" y1="7.93762" x2="13.3601" y2="7.93762" gradientUnits="userSpaceOnUse">
<stop stop-color="#002255"/>
<stop offset="0.5" stop-color="#0044AA"/>
<stop offset="1" stop-color="#002255"/>
</linearGradient>
<linearGradient id="paint13_linear_14_329" x1="9.62007" y1="7.79255" x2="9.62007" y2="7.94005" gradientUnits="userSpaceOnUse">
<stop stop-color="#F5F549"/>
<stop offset="1" stop-color="#97C924"/>
</linearGradient>
<linearGradient id="paint14_linear_14_329" x1="9.2375" y1="7.79255" x2="9.2375" y2="7.94005" gradientUnits="userSpaceOnUse">
<stop stop-color="#F5F549"/>
<stop offset="1" stop-color="#97C924"/>
</linearGradient>
<linearGradient id="paint15_linear_14_329" x1="9.61999" y1="7.79249" x2="9.61999" y2="7.93999" gradientUnits="userSpaceOnUse">
<stop stop-color="#F5F549"/>
<stop offset="1" stop-color="#97C924"/>
</linearGradient>
<linearGradient id="paint16_linear_14_329" x1="9.62003" y1="7.79255" x2="9.62003" y2="7.94005" gradientUnits="userSpaceOnUse">
<stop stop-color="#F5F549"/>
<stop offset="1" stop-color="#97C924"/>
</linearGradient>
<linearGradient id="paint17_linear_14_329" x1="9.23502" y1="7.79255" x2="9.23502" y2="7.94005" gradientUnits="userSpaceOnUse">
<stop stop-color="#F5F549"/>
<stop offset="1" stop-color="#97C924"/>
</linearGradient>
<linearGradient id="paint18_linear_14_329" x1="8.52032" y1="8.0781" x2="11.4286" y2="8.0781" gradientUnits="userSpaceOnUse">
<stop stop-color="#002255"/>
<stop offset="0.5" stop-color="#0044AA"/>
<stop offset="1" stop-color="#002255"/>
</linearGradient>
<linearGradient id="paint19_linear_14_329" x1="8.42597" y1="8.36856" x2="11.5738" y2="8.36856" gradientUnits="userSpaceOnUse">
<stop stop-color="#002255"/>
<stop offset="0.5" stop-color="#0044AA"/>
<stop offset="1" stop-color="#002255"/>
</linearGradient>
<linearGradient id="paint20_linear_14_329" x1="8.42597" y1="8.33609" x2="11.5738" y2="8.33609" gradientUnits="userSpaceOnUse">
<stop stop-color="#002255"/>
<stop offset="0.5" stop-color="#0044AA"/>
<stop offset="1" stop-color="#002255"/>
</linearGradient>
<linearGradient id="paint21_linear_14_329" x1="8.42597" y1="8.30362" x2="11.5738" y2="8.30362" gradientUnits="userSpaceOnUse">
<stop stop-color="#002255"/>
<stop offset="0.5" stop-color="#0044AA"/>
<stop offset="1" stop-color="#002255"/>
</linearGradient>
<linearGradient id="paint22_linear_14_329" x1="8.42597" y1="8.27103" x2="11.5738" y2="8.27103" gradientUnits="userSpaceOnUse">
<stop stop-color="#002255"/>
<stop offset="0.5" stop-color="#0044AA"/>
<stop offset="1" stop-color="#002255"/>
</linearGradient>
<linearGradient id="paint23_linear_14_329" x1="8.42597" y1="8.23856" x2="11.5738" y2="8.23856" gradientUnits="userSpaceOnUse">
<stop stop-color="#002255"/>
<stop offset="0.5" stop-color="#0044AA"/>
<stop offset="1" stop-color="#002255"/>
</linearGradient>
<linearGradient id="paint24_linear_14_329" x1="8.42597" y1="8.20609" x2="11.5738" y2="8.20609" gradientUnits="userSpaceOnUse">
<stop stop-color="#002255"/>
<stop offset="0.5" stop-color="#0044AA"/>
<stop offset="1" stop-color="#002255"/>
</linearGradient>
<linearGradient id="paint25_linear_14_329" x1="8.42597" y1="8.17606" x2="11.5738" y2="8.17606" gradientUnits="userSpaceOnUse">
<stop stop-color="#002255"/>
<stop offset="0.5" stop-color="#0044AA"/>
<stop offset="1" stop-color="#002255"/>
</linearGradient>
<linearGradient id="paint26_linear_14_329" x1="8.42597" y1="8.14359" x2="11.5738" y2="8.14359" gradientUnits="userSpaceOnUse">
<stop stop-color="#002255"/>
<stop offset="0.5" stop-color="#0044AA"/>
<stop offset="1" stop-color="#002255"/>
</linearGradient>
<linearGradient id="paint27_linear_14_329" x1="8.42597" y1="8.11112" x2="11.5738" y2="8.11112" gradientUnits="userSpaceOnUse">
<stop stop-color="#002255"/>
<stop offset="0.5" stop-color="#0044AA"/>
<stop offset="1" stop-color="#002255"/>
</linearGradient>
<clipPath id="clip0_14_329">
<rect width="20" height="15" fill="white"/>
</clipPath>
</defs>
</svg>
