<svg width="20" height="15" viewBox="0 0 20 15" fill="none" xmlns="http://www.w3.org/2000/svg">
<g clip-path="url(#clip0_14_482)">
<path d="M0 0H20V15H0V0Z" fill="#FEDD00"/>
<path d="M0 0H10V7.5H0V0Z" fill="#012169"/>
<path d="M1.17188 0L4.98438 2.82812L8.78125 0H10V0.96875L6.25 3.76562L10 6.54688V7.5H8.75L5 4.70312L1.26562 7.5H0V6.5625L3.73438 3.78125L0 1V0H1.17188Z" fill="white"/>
<path d="M6.625 4.39062L10 6.875V7.5L5.76562 4.39062H6.625ZM3.75 4.70312L3.84375 5.25L0.84375 7.5H0L3.75 4.70312ZM10 0V0.046875L6.10938 2.98438L6.14062 2.29688L9.21875 0H10ZM0 0L3.73438 2.75H2.79688L0 0.65625V0Z" fill="#C8102E"/>
<path d="M3.76562 0V7.5H6.26562V0H3.76562ZM0 2.5V5H10V2.5H0Z" fill="white"/>
<path d="M0 3.01562V4.51562H10V3.01562H0ZM4.26562 0V7.5H5.76562V0H4.26562Z" fill="#C8102E"/>
<path d="M4.99998 5.02498C5.70414 5.02498 6.27498 4.45414 6.27498 3.74998C6.27498 3.04581 5.70414 2.47498 4.99998 2.47498C4.29581 2.47498 3.72498 3.04581 3.72498 3.74998C3.72498 4.45414 4.29581 5.02498 4.99998 5.02498Z" fill="#012169"/>
<path d="M4.99995 2.47502L5.74995 4.78127L3.78745 3.35627H6.21245L4.24995 4.78127M2.08433 3.0719L2.52183 4.42815L1.37183 3.59377H2.79995L1.6437 4.43127M7.91558 3.0719L8.3562 4.42815L7.20308 3.59065H8.6312L7.47495 4.42815M4.99995 5.5719L5.44058 6.92815L4.28433 6.09065H5.71245L4.5562 6.92815M4.99995 0.571899L5.44058 1.92815L4.28433 1.09065H5.71245L4.5562 1.92815" fill="#FEDD00"/>
</g>
<defs>
<clipPath id="clip0_14_482">
<rect width="20" height="15" fill="white"/>
</clipPath>
</defs>
</svg>
