<svg width="20" height="15" viewBox="0 0 20 15" fill="none" xmlns="http://www.w3.org/2000/svg">
<g clip-path="url(#clip0_14_321)">
<path fill-rule="evenodd" clip-rule="evenodd" d="M0 0H20V15H0V0Z" fill="#00247D"/>
<path d="M15.3258 3.34973V3.82377L16.2739 3.34973H15.3258Z" fill="white"/>
<path d="M15.5154 3.91858L15.3258 3.53935L16.2739 3.34973L15.5154 3.91858Z" fill="white"/>
<path d="M15.3258 3.34973V3.82377L14.3777 3.34973H15.3258Z" fill="white"/>
<path d="M15.1362 3.91858L15.3258 3.53935L14.3777 3.34973L15.1362 3.91858Z" fill="white"/>
<path d="M15.5852 3.54626L15.1455 3.70173L15.8893 4.43896L15.5852 3.54626Z" fill="white"/>
<path d="M15.1163 3.91097L15.4077 3.60844L15.8892 4.43721L15.1163 3.91097Z" fill="white"/>
<path d="M15.0552 3.53723L15.4949 3.6927L15.3593 2.64453L15.0552 3.53723Z" fill="white"/>
<path d="M15.645 3.54385L15.2314 3.59769L15.3604 2.64457L15.645 3.54385Z" fill="white"/>
<path d="M15.0663 3.54626L15.506 3.70173L14.7622 4.43896L15.0663 3.54626Z" fill="white"/>
<path d="M15.5352 3.91097L15.2437 3.60844L14.7623 4.43721L15.5352 3.91097Z" fill="white"/>
<path d="M15.3258 3.44617V3.75941L15.9523 3.44617H15.3258Z" fill="#CC142B"/>
<path d="M15.4511 3.82206L15.3258 3.57146L15.9523 3.44617L15.4511 3.82206Z" fill="#CC142B"/>
<path d="M15.3258 3.44617V3.75941L14.6993 3.44617H15.3258Z" fill="#CC142B"/>
<path d="M15.2005 3.82206L15.3258 3.57146L14.6993 3.44617L15.2005 3.82206Z" fill="#CC142B"/>
<path d="M15.4972 3.57605L15.2066 3.67878L15.6981 4.16594L15.4972 3.57605Z" fill="#CC142B"/>
<path d="M15.1874 3.81704L15.38 3.61713L15.6982 4.16478L15.1874 3.81704Z" fill="#CC142B"/>
<path d="M15.147 3.57007L15.4375 3.6728L15.3479 2.98018L15.147 3.57007Z" fill="#CC142B"/>
<path d="M15.5367 3.57447L15.2634 3.61005L15.3487 2.98024L15.5367 3.57447Z" fill="#CC142B"/>
<path d="M15.1544 3.57605L15.445 3.67878L14.9535 4.16594L15.1544 3.57605Z" fill="#CC142B"/>
<path d="M15.4642 3.81704L15.2716 3.61713L14.9534 4.16478L15.4642 3.81704Z" fill="#CC142B"/>
<path d="M17.8099 5.58496L17.835 5.95924L18.6286 5.53741L17.8099 5.58496Z" fill="white"/>
<path d="M18.004 6.03342L17.8205 5.74021L18.622 5.53744L18.004 6.03342Z" fill="white"/>
<path d="M17.785 5.53748L17.81 5.91175L16.9664 5.58503L17.785 5.53748Z" fill="white"/>
<path d="M17.6477 6.00282L17.789 5.68919L16.9664 5.58854L17.6477 6.00282Z" fill="white"/>
<path d="M18.0166 5.7124L17.6495 5.87389L18.3114 6.48364L18.0166 5.7124Z" fill="white"/>
<path d="M17.6287 6.05808L17.8658 5.77654L18.3114 6.4788L17.6287 6.05808Z" fill="white"/>
<path d="M17.5693 5.73474L17.9991 5.84273L17.8015 4.91L17.5693 5.73474Z" fill="white"/>
<path d="M18.127 5.70307L17.7398 5.78177L17.8 4.90994L18.127 5.70307Z" fill="white"/>
<path d="M17.5408 5.7124L17.9705 5.82039L17.3087 6.53714L17.5408 5.7124Z" fill="white"/>
<path d="M18.0047 6.00853L17.7098 5.75589L17.3087 6.54074L18.0047 6.00853Z" fill="white"/>
<path d="M17.8099 5.66345L17.8254 5.89506L18.3165 5.63402L17.8099 5.66345Z" fill="#CC142B"/>
<path d="M17.93 5.94097L17.8165 5.75953L18.3124 5.63405L17.93 5.94097Z" fill="#CC142B"/>
<path d="M17.7944 5.63391L17.8099 5.86552L17.2878 5.66334L17.7944 5.63391Z" fill="#CC142B"/>
<path d="M17.7095 5.92187L17.7969 5.72779L17.2879 5.66551L17.7095 5.92187Z" fill="#CC142B"/>
<path d="M17.9379 5.74219L17.7107 5.84212L18.1203 6.21944L17.9379 5.74219Z" fill="#CC142B"/>
<path d="M17.6978 5.9561L17.8445 5.78187L18.1203 6.21644L17.6978 5.9561Z" fill="#CC142B"/>
<path d="M17.661 5.7561L17.927 5.82293L17.8046 5.24574L17.661 5.7561Z" fill="#CC142B"/>
<path d="M18.0061 5.73651L17.7665 5.78521L17.8037 5.24571L18.0061 5.73651Z" fill="#CC142B"/>
<path d="M17.6433 5.74219L17.9093 5.80901L17.4997 6.25255L17.6433 5.74219Z" fill="#CC142B"/>
<path d="M17.9303 5.92543L17.7478 5.7691L17.4996 6.25478L17.9303 5.92543Z" fill="#CC142B"/>
<path d="M12.4323 6.31641L12.4604 6.73701L13.3522 6.26297L12.4323 6.31641Z" fill="white"/>
<path d="M12.6503 6.8203L12.4441 6.4908L13.3448 6.26293L12.6503 6.8203Z" fill="white"/>
<path d="M12.4042 6.26294L12.4323 6.68354L11.4842 6.31638L12.4042 6.26294Z" fill="white"/>
<path d="M12.2498 6.78588L12.4086 6.43343L11.4842 6.32032L12.2498 6.78588Z" fill="white"/>
<path d="M12.6646 6.45947L12.252 6.64095L12.9958 7.32616L12.6646 6.45947Z" fill="white"/>
<path d="M12.2286 6.84794L12.495 6.53154L12.9958 7.32072L12.2286 6.84794Z" fill="white"/>
<path d="M12.1617 6.48462L12.6447 6.60597L12.4226 5.55781L12.1617 6.48462Z" fill="white"/>
<path d="M12.7884 6.44908L12.3533 6.53751L12.4209 5.55779L12.7884 6.44908Z" fill="white"/>
<path d="M12.1296 6.45947L12.6126 6.58082L11.8688 7.38629L12.1296 6.45947Z" fill="white"/>
<path d="M12.651 6.79225L12.3197 6.50834L11.8689 7.39033L12.651 6.79225Z" fill="white"/>
<path d="M12.4324 6.39465L12.4509 6.67258L13.0403 6.35934L12.4324 6.39465Z" fill="#CC142B"/>
<path d="M12.5765 6.72773L12.4402 6.51L13.0354 6.35942L12.5765 6.72773Z" fill="#CC142B"/>
<path d="M12.4138 6.35938L12.4324 6.6373L11.8059 6.39469L12.4138 6.35938Z" fill="#CC142B"/>
<path d="M12.3117 6.70493L12.4166 6.47203L11.8058 6.39729L12.3117 6.70493Z" fill="#CC142B"/>
<path d="M12.5858 6.48914L12.3132 6.60905L12.8047 7.06184L12.5858 6.48914Z" fill="#CC142B"/>
<path d="M12.2979 6.74583L12.4739 6.53676L12.8048 7.05824L12.2979 6.74583Z" fill="#CC142B"/>
<path d="M12.2537 6.50574L12.5728 6.58593L12.426 5.89331L12.2537 6.50574Z" fill="#CC142B"/>
<path d="M12.6677 6.48228L12.3803 6.54071L12.4249 5.89332L12.6677 6.48228Z" fill="#CC142B"/>
<path d="M12.2324 6.48926L12.5516 6.56945L12.0601 7.10169L12.2324 6.48926Z" fill="#CC142B"/>
<path d="M12.5769 6.70915L12.3579 6.52155L12.0601 7.10436L12.5769 6.70915Z" fill="#CC142B"/>
<path d="M15.3258 10.8362V11.3624L16.3783 10.8362H15.3258Z" fill="white"/>
<path d="M15.5363 11.4677L15.3258 11.0467L16.3783 10.8362L15.5363 11.4677Z" fill="white"/>
<path d="M15.3258 10.8362V11.3624L14.2733 10.8362H15.3258Z" fill="white"/>
<path d="M15.1153 11.4677L15.3258 11.0467L14.2733 10.8362L15.1153 11.4677Z" fill="white"/>
<path d="M15.6138 11.0543L15.1256 11.2269L15.9513 12.0453L15.6138 11.0543Z" fill="white"/>
<path d="M15.0932 11.4592L15.4168 11.1233L15.9513 12.0434L15.0932 11.4592Z" fill="white"/>
<path d="M15.0255 11.0444L15.5137 11.217L15.3631 10.0534L15.0255 11.0444Z" fill="white"/>
<path d="M15.6802 11.0517L15.2212 11.1115L15.3644 10.0534L15.6802 11.0517Z" fill="white"/>
<path d="M15.0378 11.0543L15.526 11.2269L14.7003 12.0453L15.0378 11.0543Z" fill="white"/>
<path d="M15.5584 11.4592L15.2348 11.1233L14.7003 12.0434L15.5584 11.4592Z" fill="white"/>
<path d="M15.3259 10.9327V11.2982L16.0568 10.9327H15.3259Z" fill="#CC142B"/>
<path d="M15.4721 11.3713L15.3259 11.0789L16.0568 10.9327L15.4721 11.3713Z" fill="#CC142B"/>
<path d="M15.3259 10.9327V11.2982L14.595 10.9327H15.3259Z" fill="#CC142B"/>
<path d="M15.1797 11.3713L15.3259 11.0789L14.595 10.9327L15.1797 11.3713Z" fill="#CC142B"/>
<path d="M15.5258 11.0841L15.1868 11.204L15.7602 11.7723L15.5258 11.0841Z" fill="#CC142B"/>
<path d="M15.1644 11.3653L15.389 11.132L15.7602 11.771L15.1644 11.3653Z" fill="#CC142B"/>
<path d="M15.1173 11.0773L15.4563 11.1971L15.3517 10.3891L15.1173 11.0773Z" fill="#CC142B"/>
<path d="M15.572 11.0823L15.2532 11.1239L15.3526 10.3891L15.572 11.0823Z" fill="#CC142B"/>
<path d="M15.126 11.0841L15.465 11.204L14.8916 11.7723L15.126 11.0841Z" fill="#CC142B"/>
<path d="M15.4874 11.3653L15.2627 11.132L14.8915 11.771L15.4874 11.3653Z" fill="#CC142B"/>
<path d="M0 0H10V7.5H0V0Z" fill="#012169"/>
<path d="M1.17188 0L4.98438 2.82812L8.78125 0H10V0.96875L6.25 3.76562L10 6.54688V7.5H8.75L5 4.70312L1.26562 7.5H0V6.5625L3.73438 3.78125L0 1V0H1.17188Z" fill="white"/>
<path d="M6.625 4.39062L10 6.875V7.5L5.76562 4.39062H6.625ZM3.75 4.70312L3.84375 5.25L0.84375 7.5H0L3.75 4.70312ZM10 0V0.046875L6.10938 2.98438L6.14062 2.29688L9.21875 0H10ZM0 0L3.73438 2.75H2.79688L0 0.65625V0Z" fill="#C8102E"/>
<path d="M3.76562 0V7.5H6.26562V0H3.76562ZM0 2.5V5H10V2.5H0Z" fill="white"/>
<path d="M0 3.01562V4.51562H10V3.01562H0ZM4.26562 0V7.5H5.76562V0H4.26562Z" fill="#C8102E"/>
</g>
<defs>
<clipPath id="clip0_14_321">
<rect width="20" height="15" fill="white"/>
</clipPath>
</defs>
</svg>
