<svg width="20" height="15" viewBox="0 0 20 15" fill="none" xmlns="http://www.w3.org/2000/svg">
<g clip-path="url(#clip0_14_319)">
<mask id="mask0_14_319" style="mask-type:luminance" maskUnits="userSpaceOnUse" x="0" y="0" width="20" height="15">
<path d="M0 0H20V15H0V0Z" fill="white"/>
</mask>
<g mask="url(#mask0_14_319)">
<path fill-rule="evenodd" clip-rule="evenodd" d="M-0.103149 -0.674927H21.8437V16.6063H-0.103149V-0.674927Z" fill="#EF2D29"/>
<path fill-rule="evenodd" clip-rule="evenodd" d="M5.45618 9.91565H22.1968V16.4063H5.45618V9.91565Z" fill="#009025"/>
<path fill-rule="evenodd" clip-rule="evenodd" d="M5.45625 -1.1062H23.1094V4.8313H5.45312L5.45625 -1.1062Z" fill="white"/>
<path d="M4.37487 2.17468H3.65786C3.61915 2.17468 3.58777 2.20398 3.58777 2.24011V2.58058C3.58777 2.61671 3.61915 2.64601 3.65786 2.64601H4.37487C4.41357 2.64601 4.44495 2.61671 4.44495 2.58058V2.24011C4.44495 2.20398 4.41357 2.17468 4.37487 2.17468Z" fill="white" stroke="#EF2D28" stroke-width="0.0131366"/>
<path d="M4.35689 2.1947H3.67647C3.63982 2.1947 3.61011 2.22176 3.61011 2.25514V2.56677C3.61011 2.60015 3.63982 2.62721 3.67647 2.62721H4.35689C4.39354 2.62721 4.42326 2.60015 4.42326 2.56677V2.25514C4.42326 2.22176 4.39354 2.1947 4.35689 2.1947Z" fill="white" stroke="#EF2D28" stroke-width="0.0121982"/>
<path fill-rule="evenodd" clip-rule="evenodd" d="M3.98824 2.31189L4.02921 2.31351L4.0309 2.33233L4.0647 2.34953L4.09089 2.32779L4.12257 2.34499L4.093 2.36381L4.10018 2.38977L4.13736 2.38815V2.42222L4.10779 2.42092L4.09258 2.44234L4.12637 2.46667L4.10018 2.48679L4.07188 2.46537L4.0309 2.47381L4.03302 2.50529L3.98824 2.50853L3.98232 2.47803L3.94515 2.46245L3.92445 2.48387L3.89277 2.46797L3.91135 2.44363L3.88896 2.42806H3.85728L3.85559 2.3836L3.88727 2.38652L3.90966 2.36056L3.88347 2.34045L3.91727 2.31773L3.94135 2.33623L3.98232 2.33039L3.98824 2.31189Z" fill="white" stroke="#EF2D28" stroke-width="0.00770103"/>
<path d="M3.9999 2.44404C4.02493 2.44404 4.04522 2.42678 4.04522 2.40549C4.04522 2.3842 4.02493 2.36694 3.9999 2.36694C3.97488 2.36694 3.95459 2.3842 3.95459 2.40549C3.95459 2.42678 3.97488 2.44404 3.9999 2.44404Z" fill="white" stroke="#EF2D28" stroke-width="0.00829308"/>
<path fill-rule="evenodd" clip-rule="evenodd" d="M3.71994 2.21411L3.65357 2.27289ZM3.76398 2.21411L3.69761 2.27289ZM3.8074 2.21411L3.74165 2.27289ZM3.85143 2.21411L3.78569 2.27289ZM3.89547 2.21411L3.82973 2.27289ZM3.93951 2.21411L3.87376 2.27289ZM3.98355 2.21411L3.9178 2.27289ZM4.02759 2.21411L3.96184 2.27289ZM4.07162 2.21411L4.00526 2.27289ZM4.11566 2.21411L4.04867 2.27289ZM4.15846 2.21411L4.09271 2.27289ZM4.2025 2.21411L4.13675 2.27289ZM4.02696 2.21411L3.96184 2.27289ZM4.24715 2.21411L4.18141 2.27289ZM4.29119 2.21411L4.22544 2.27289ZM4.33523 2.21411L4.26948 2.27289ZM4.37927 2.21411L4.31352 2.27289ZM4.31352 2.21411L4.37927 2.27289ZM4.26948 2.21411L4.33523 2.27289ZM4.22544 2.21411L4.29119 2.27289ZM4.18141 2.21411L4.24715 2.27289ZM4.13737 2.21411L4.20312 2.27289ZM4.09333 2.21411L4.15908 2.27289ZM4.04929 2.21411L4.11566 2.27289ZM4.00526 2.21411L4.071 2.27289ZM3.9606 2.21411L4.02696 2.27289ZM3.91718 2.21411L3.98293 2.27289ZM3.87314 2.21411L3.93889 2.27289ZM3.82911 2.21411L3.89485 2.27289ZM4.00526 2.21411L4.071 2.27289ZM3.78569 2.21411L3.85081 2.27289ZM3.74103 2.21411L3.8074 2.27289ZM3.69699 2.21411L3.76336 2.27289ZM3.65295 2.21411L3.71994 2.27289ZM3.71994 2.54792L3.65419 2.60725ZM3.76336 2.54792L3.69699 2.60725ZM3.80802 2.54792L3.74165 2.60725ZM3.85143 2.54792L3.78569 2.60725ZM3.89547 2.54792L3.82973 2.60725ZM3.93951 2.54792L3.87376 2.60725ZM3.98355 2.54792L3.91842 2.60725ZM4.02759 2.54792L3.96184 2.60725ZM4.07162 2.54792L4.00526 2.60725ZM4.11504 2.54792L4.04867 2.60725ZM4.16032 2.54792L4.09395 2.60725ZM4.20374 2.54792L4.13799 2.60725ZM4.02759 2.54792L3.96184 2.60725ZM4.24715 2.54792L4.18141 2.60725ZM4.29119 2.54792L4.22544 2.60725ZM4.33523 2.54792L4.26948 2.60725ZM4.37927 2.54792L4.31352 2.60725ZM4.31352 2.54792L4.37927 2.60725ZM4.26948 2.54792L4.33523 2.60725ZM4.22544 2.54792L4.29119 2.60725ZM4.18141 2.54792L4.24715 2.60725ZM4.13737 2.54792L4.20312 2.60725ZM4.09333 2.54792L4.1597 2.60725ZM4.04867 2.54792L4.11504 2.60725ZM4.00526 2.54792L4.071 2.60725ZM3.96184 2.54792L4.02759 2.60725ZM3.9178 2.54792L3.98355 2.60725ZM3.87376 2.54792L3.93951 2.60725ZM3.82973 2.54792L3.89547 2.60725ZM4.00588 2.54792L4.07162 2.60725ZM3.78631 2.54792L3.85143 2.60725ZM3.74165 2.54792L3.80802 2.60725ZM3.69761 2.54792L3.76398 2.60725ZM3.65419 2.54792L3.71994 2.60725Z" fill="white"/>
<path d="M3.71994 2.21411L3.65357 2.27289M3.76398 2.21411L3.69761 2.27289M3.8074 2.21411L3.74165 2.27289M3.85143 2.21411L3.78569 2.27289M3.89547 2.21411L3.82973 2.27289M3.93951 2.21411L3.87376 2.27289M3.98355 2.21411L3.9178 2.27289M4.02759 2.21411L3.96184 2.27289L4.02696 2.21411M4.07162 2.21411L4.00526 2.27289M4.11566 2.21411L4.04867 2.27289M4.15846 2.21411L4.09271 2.27289M4.2025 2.21411L4.13675 2.27289M4.24715 2.21411L4.18141 2.27289M4.29119 2.21411L4.22544 2.27289M4.33523 2.21411L4.26948 2.27289M4.37927 2.21411L4.31352 2.27289M4.31352 2.21411L4.37927 2.27289M4.26948 2.21411L4.33523 2.27289M4.22544 2.21411L4.29119 2.27289M4.18141 2.21411L4.24715 2.27289M4.13737 2.21411L4.20312 2.27289M4.09333 2.21411L4.15908 2.27289M4.04929 2.21411L4.11566 2.27289M4.00526 2.21411L4.071 2.27289M3.9606 2.21411L4.02696 2.27289M3.91718 2.21411L3.98293 2.27289M3.87314 2.21411L3.93889 2.27289M3.82911 2.21411L3.89485 2.27289M3.78569 2.21411L3.85081 2.27289M3.74103 2.21411L3.8074 2.27289M3.69699 2.21411L3.76336 2.27289M3.65295 2.21411L3.71994 2.27289M3.71994 2.54792L3.65419 2.60725M3.76336 2.54792L3.69699 2.60725M3.80802 2.54792L3.74165 2.60725M3.85143 2.54792L3.78569 2.60725M3.89547 2.54792L3.82973 2.60725M3.93951 2.54792L3.87376 2.60725M3.98355 2.54792L3.91842 2.60725M4.02759 2.54792L3.96184 2.60725M4.07162 2.54792L4.00526 2.60725M4.11504 2.54792L4.04867 2.60725M4.16032 2.54792L4.09395 2.60725M4.20374 2.54792L4.13799 2.60725M4.24715 2.54792L4.18141 2.60725M4.29119 2.54792L4.22544 2.60725M4.33523 2.54792L4.26948 2.60725M4.37927 2.54792L4.31352 2.60725M4.31352 2.54792L4.37927 2.60725M4.26948 2.54792L4.33523 2.60725M4.22544 2.54792L4.29119 2.60725M4.18141 2.54792L4.24715 2.60725M4.13737 2.54792L4.20312 2.60725M4.09333 2.54792L4.1597 2.60725M4.04867 2.54792L4.11504 2.60725M4.00526 2.54792L4.071 2.60725M3.96184 2.54792L4.02759 2.60725M3.9178 2.54792L3.98355 2.60725M3.87376 2.54792L3.93951 2.60725M3.82973 2.54792L3.89547 2.60725M4.00588 2.54792L4.07162 2.60725M3.78631 2.54792L3.85143 2.60725M3.74165 2.54792L3.80802 2.60725M3.69761 2.54792L3.76398 2.60725M3.65419 2.54792L3.71994 2.60725" stroke="#EF2D28" stroke-width="0.0121982"/>
<path d="M1.49364 2.15601H0.776631C0.737923 2.15601 0.706543 2.1853 0.706543 2.22144V2.5619C0.706543 2.59804 0.737923 2.62733 0.776631 2.62733H1.49364C1.53235 2.62733 1.56373 2.59804 1.56373 2.5619V2.22144C1.56373 2.1853 1.53235 2.15601 1.49364 2.15601Z" fill="white" stroke="#EF2D28" stroke-width="0.0131366"/>
<path d="M1.47566 2.17603H0.795249C0.758595 2.17603 0.728882 2.20309 0.728882 2.23647V2.5481C0.728882 2.58148 0.758595 2.60854 0.795249 2.60854H1.47566C1.51232 2.60854 1.54203 2.58148 1.54203 2.5481V2.23647C1.54203 2.20309 1.51232 2.17603 1.47566 2.17603Z" fill="white" stroke="#EF2D28" stroke-width="0.0121982"/>
<path fill-rule="evenodd" clip-rule="evenodd" d="M1.10701 2.29321L1.14799 2.29484L1.14968 2.31366L1.18347 2.33085L1.20966 2.30911L1.24135 2.32631L1.21178 2.34513L1.21896 2.37109L1.25613 2.36947V2.40354L1.22656 2.40224L1.21135 2.42366L1.24515 2.448L1.21896 2.46811L1.19065 2.4467L1.14968 2.45514L1.15179 2.48661L1.10701 2.48986L1.1011 2.45935L1.06392 2.44378L1.04322 2.46519L1.01154 2.44929L1.03013 2.42496L1.00774 2.40938H0.976055L0.974365 2.36493L1.00605 2.36785L1.02844 2.34189L1.00225 2.32177L1.03604 2.29905L1.06012 2.31755L1.1011 2.31171L1.10701 2.29321Z" fill="white" stroke="#EF2D28" stroke-width="0.00770103"/>
<path d="M1.11868 2.42537C1.14371 2.42537 1.16399 2.40811 1.16399 2.38682C1.16399 2.36553 1.14371 2.34827 1.11868 2.34827C1.09365 2.34827 1.07336 2.36553 1.07336 2.38682C1.07336 2.40811 1.09365 2.42537 1.11868 2.42537Z" fill="white" stroke="#EF2D28" stroke-width="0.00829308"/>
<path fill-rule="evenodd" clip-rule="evenodd" d="M0.838716 2.19543L0.772349 2.25421ZM0.882753 2.19543L0.816387 2.25421ZM0.926171 2.19543L0.860424 2.25421ZM0.970209 2.19543L0.904462 2.25421ZM1.01425 2.19543L0.9485 2.25421ZM1.05828 2.19543L0.992538 2.25421ZM1.10232 2.19543L1.03658 2.25421ZM1.14636 2.19543L1.08061 2.25421ZM1.1904 2.19543L1.12403 2.25421ZM1.23444 2.19543L1.16745 2.25421ZM1.27723 2.19543L1.21149 2.25421ZM1.32127 2.19543L1.25552 2.25421ZM1.14574 2.19543L1.08061 2.25421ZM1.36593 2.19543L1.30018 2.25421ZM1.40997 2.19543L1.34422 2.25421ZM1.454 2.19543L1.38826 2.25421ZM1.49804 2.19543L1.43229 2.25421ZM1.43229 2.19543L1.49804 2.25421ZM1.38826 2.19543L1.454 2.25421ZM1.34422 2.19543L1.40997 2.25421ZM1.30018 2.19543L1.36593 2.25421ZM1.25614 2.19543L1.32189 2.25421ZM1.21211 2.19543L1.27785 2.25421ZM1.16807 2.19543L1.23444 2.25421ZM1.12403 2.19543L1.18978 2.25421ZM1.07937 2.19543L1.14574 2.25421ZM1.03596 2.19543L1.1017 2.25421ZM0.991917 2.19543L1.05766 2.25421ZM0.94788 2.19543L1.01363 2.25421ZM1.12403 2.19543L1.18978 2.25421ZM0.904462 2.19543L0.969588 2.25421ZM0.859804 2.19543L0.926171 2.25421ZM0.815766 2.19543L0.882133 2.25421ZM0.771729 2.19543L0.838716 2.25421ZM0.838716 2.52924L0.772969 2.58858ZM0.882133 2.52924L0.815766 2.58858ZM0.926791 2.52924L0.860424 2.58858ZM0.970209 2.52924L0.904462 2.58858ZM1.01425 2.52924L0.9485 2.58858ZM1.05828 2.52924L0.992538 2.58858ZM1.10232 2.52924L1.0372 2.58858ZM1.14636 2.52924L1.08061 2.58858ZM1.1904 2.52924L1.12403 2.58858ZM1.23381 2.52924L1.16745 2.58858ZM1.27909 2.52924L1.21273 2.58858ZM1.32251 2.52924L1.25676 2.58858ZM1.14636 2.52924L1.08061 2.58858ZM1.36593 2.52924L1.30018 2.58858ZM1.40997 2.52924L1.34422 2.58858ZM1.454 2.52924L1.38826 2.58858ZM1.49804 2.52924L1.43229 2.58858ZM1.43229 2.52924L1.49804 2.58858ZM1.38826 2.52924L1.454 2.58858ZM1.34422 2.52924L1.40997 2.58858ZM1.30018 2.52924L1.36593 2.58858ZM1.25614 2.52924L1.32189 2.58858ZM1.21211 2.52924L1.27847 2.58858ZM1.16745 2.52924L1.23381 2.58858ZM1.12403 2.52924L1.18978 2.58858ZM1.08061 2.52924L1.14636 2.58858ZM1.03658 2.52924L1.10232 2.58858ZM0.992538 2.52924L1.05828 2.58858ZM0.9485 2.52924L1.01425 2.58858ZM1.12465 2.52924L1.1904 2.58858ZM0.905082 2.52924L0.970209 2.58858ZM0.860424 2.52924L0.926791 2.58858ZM0.816387 2.52924L0.882753 2.58858ZM0.772969 2.52924L0.838716 2.58858Z" fill="white"/>
<path d="M0.838716 2.19543L0.772349 2.25421M0.882753 2.19543L0.816387 2.25421M0.926171 2.19543L0.860424 2.25421M0.970209 2.19543L0.904462 2.25421M1.01425 2.19543L0.9485 2.25421M1.05828 2.19543L0.992538 2.25421M1.10232 2.19543L1.03658 2.25421M1.14636 2.19543L1.08061 2.25421L1.14574 2.19543M1.1904 2.19543L1.12403 2.25421M1.23444 2.19543L1.16745 2.25421M1.27723 2.19543L1.21149 2.25421M1.32127 2.19543L1.25552 2.25421M1.36593 2.19543L1.30018 2.25421M1.40997 2.19543L1.34422 2.25421M1.454 2.19543L1.38826 2.25421M1.49804 2.19543L1.43229 2.25421M1.43229 2.19543L1.49804 2.25421M1.38826 2.19543L1.454 2.25421M1.34422 2.19543L1.40997 2.25421M1.30018 2.19543L1.36593 2.25421M1.25614 2.19543L1.32189 2.25421M1.21211 2.19543L1.27785 2.25421M1.16807 2.19543L1.23444 2.25421M1.12403 2.19543L1.18978 2.25421M1.07937 2.19543L1.14574 2.25421M1.03596 2.19543L1.1017 2.25421M0.991917 2.19543L1.05766 2.25421M0.94788 2.19543L1.01363 2.25421M0.904462 2.19543L0.969588 2.25421M0.859804 2.19543L0.926171 2.25421M0.815766 2.19543L0.882133 2.25421M0.771729 2.19543L0.838716 2.25421M0.838716 2.52924L0.772969 2.58858M0.882133 2.52924L0.815766 2.58858M0.926791 2.52924L0.860424 2.58858M0.970209 2.52924L0.904462 2.58858M1.01425 2.52924L0.9485 2.58858M1.05828 2.52924L0.992538 2.58858M1.10232 2.52924L1.0372 2.58858M1.14636 2.52924L1.08061 2.58858M1.1904 2.52924L1.12403 2.58858M1.23381 2.52924L1.16745 2.58858M1.27909 2.52924L1.21273 2.58858M1.32251 2.52924L1.25676 2.58858M1.36593 2.52924L1.30018 2.58858M1.40997 2.52924L1.34422 2.58858M1.454 2.52924L1.38826 2.58858M1.49804 2.52924L1.43229 2.58858M1.43229 2.52924L1.49804 2.58858M1.38826 2.52924L1.454 2.58858M1.34422 2.52924L1.40997 2.58858M1.30018 2.52924L1.36593 2.58858M1.25614 2.52924L1.32189 2.58858M1.21211 2.52924L1.27847 2.58858M1.16745 2.52924L1.23381 2.58858M1.12403 2.52924L1.18978 2.58858M1.08061 2.52924L1.14636 2.58858M1.03658 2.52924L1.10232 2.58858M0.992538 2.52924L1.05828 2.58858M0.9485 2.52924L1.01425 2.58858M1.12465 2.52924L1.1904 2.58858M0.905082 2.52924L0.970209 2.58858M0.860424 2.52924L0.926791 2.58858M0.816387 2.52924L0.882753 2.58858M0.772969 2.52924L0.838716 2.58858" stroke="#EF2D28" stroke-width="0.0121982"/>
<path fill-rule="evenodd" clip-rule="evenodd" d="M2.05228 3.14256C0.985729 4.18858 0.530749 4.32071 0.744654 4.40514C0.95856 4.48957 1.64518 3.9496 2.35953 3.23302C3.07388 2.51643 3.51145 1.87816 3.29754 1.79374C3.08364 1.70931 3.18698 2.03099 2.05228 3.14256Z" fill="white" stroke="#EF2D28" stroke-width="0.020415"/>
<path fill-rule="evenodd" clip-rule="evenodd" d="M1.1559 3.90369L1.52991 4.00183C1.17823 4.3362 0.782506 4.47316 0.672722 4.41438C0.562938 4.3556 0.870582 4.21809 1.15652 3.90424L1.1559 3.90369Z" fill="white" stroke="#EF2D28" stroke-width="0.0112599"/>
<path fill-rule="evenodd" clip-rule="evenodd" d="M1.15573 3.94263L1.46387 4.02101C1.12129 4.34252 0.782344 4.43369 0.694737 4.39424C0.606525 4.35531 0.877805 4.24494 1.15573 3.94263Z" fill="white" stroke="#EF2D28" stroke-width="0.0118056"/>
<path d="M2.30127 3.0979C2.3004 3.10294 2.29778 3.12544 2.29559 3.13437C2.29559 3.14678 2.29428 3.15609 2.29297 3.16579C2.28948 3.17432 2.28991 3.18208 2.27943 3.18519C2.27459 3.19295 2.26687 3.19898 2.25759 3.20226C2.24919 3.20823 2.23994 3.21319 2.23007 3.217C2.21974 3.22098 2.20822 3.2218 2.19731 3.21932C2.1877 3.21351 2.18071 3.2073 2.17285 3.20226C2.1711 3.1945 2.16935 3.18325 2.16717 3.17549C2.17058 3.18583 2.17249 3.19652 2.17285 3.2073C2.17197 3.21894 2.16717 3.22437 2.16193 3.23368" stroke="#EF2D28" stroke-width="0.0118555"/>
<path d="M2.20212 3.26021L2.1995 3.25788C2.20605 3.2637 2.20343 3.26099 2.18858 3.25284C2.1781 3.24819 2.16674 3.24586 2.1532 3.24353H2.11476C2.09991 3.24353 2.08986 3.24547 2.07938 3.24819C2.07151 3.25517 2.06016 3.25905 2.05186 3.26525C2.04448 3.2702 2.03887 3.27694 2.03569 3.28465C2.02827 3.29125 2.02346 3.30133 2.01647 3.30638C2.01342 3.31763 2.0073 3.31724 2.00293 3.32577C2.01604 3.32655 2.02608 3.3281 2.03307 3.33547C2.04443 3.34051 2.02346 3.33043 2.0191 3.32577C2.01036 3.32345 2.00818 3.32112 1.99463 3.32112C1.9824 3.31724 1.97454 3.32383 1.96187 3.32577C1.95445 3.32965 1.95226 3.33082 1.94265 3.33082" stroke="#EF2D28" stroke-width="0.0118555"/>
<path d="M2.05505 3.38103C2.04938 3.38103 2.02404 3.3853 2.01399 3.38103C2.00264 3.37831 1.99652 3.37327 1.98953 3.36396C1.98604 3.35737 1.98953 3.3756 1.98953 3.38336C1.98822 3.39771 1.98342 3.39771 1.97555 3.40741C1.96769 3.41206 1.95939 3.41827 1.95109 3.42215C1.94381 3.42742 1.93553 3.4315 1.92663 3.43418C1.91789 3.43806 1.90872 3.44116 1.90217 3.4462C1.893 3.45202 1.89343 3.459 1.88819 3.46832C1.8895 3.47995 1.89169 3.48694 1.89911 3.49237C1.90261 3.50051 1.9096 3.50866 1.91571 3.51409C1.92226 3.52573 1.93013 3.53077 1.91309 3.53349C1.90348 3.53737 1.89824 3.53426 1.88819 3.53349" stroke="#EF2D28" stroke-width="0.0118555"/>
<path d="M1.88184 3.54999C1.87485 3.54844 1.85126 3.54146 1.84078 3.53796H1.80234C1.78792 3.53913 1.78486 3.54301 1.77263 3.54766C1.76433 3.55503 1.75909 3.56008 1.74773 3.56473C1.74206 3.57133 1.73026 3.58296 1.72589 3.5915C1.7223 3.60153 1.72053 3.61201 1.72065 3.62253C1.72065 3.63689 1.72502 3.6396 1.72589 3.65202C1.72895 3.66268 1.73462 3.67262 1.74249 3.68111C1.7438 3.68422 1.74468 3.68499 1.74773 3.68577" stroke="#EF2D28" stroke-width="0.0118555"/>
<path d="M1.75305 3.71743C1.75181 3.71743 1.74933 3.72355 1.7453 3.72876C1.73631 3.73795 1.73537 3.73856 1.72204 3.73856C1.70963 3.73795 1.71118 3.73366 1.7025 3.7309C1.69847 3.72478 1.69351 3.71988 1.68886 3.71161C1.68575 3.70671 1.68296 3.69906 1.67955 3.69446C1.67583 3.68864 1.67149 3.68436 1.66777 3.67915C1.66405 3.67762 1.66281 3.67609 1.65784 3.67517C1.66901 3.67701 1.67025 3.68099 1.67738 3.68681C1.6809 3.69235 1.68411 3.69807 1.68699 3.70396C1.68824 3.71222 1.69072 3.71865 1.69103 3.72876C1.69103 3.73948 1.69103 3.74683 1.68699 3.75571C1.68234 3.7603 1.67924 3.7652 1.67335 3.76918C1.66845 3.77388 1.66399 3.779 1.66001 3.78449L1.64234 3.79582C1.63675 3.79919 1.63024 3.80256 1.62125 3.80348C1.60977 3.80256 1.60636 3.7995 1.59799 3.79582C1.59055 3.79062 1.58496 3.78725 1.57845 3.78235C1.57311 3.77799 1.5685 3.77282 1.56481 3.76704C1.55457 3.76459 1.54775 3.76551 1.54155 3.77102C1.53629 3.77464 1.53176 3.77921 1.52821 3.78449C1.52511 3.78602 1.51953 3.79062 1.51643 3.79215" stroke="#EF2D28" stroke-width="0.0113405"/>
<path d="M1.5387 3.79846C1.54178 3.79961 1.55335 3.80763 1.55797 3.81031C1.56106 3.82063 1.56607 3.82598 1.56761 3.83706C1.57031 3.847 1.57031 3.85846 1.57031 3.87031C1.56761 3.88254 1.5626 3.89133 1.55797 3.90088C1.55026 3.90623 1.54641 3.91005 1.53638 3.9154C1.52674 3.91693 1.5171 3.91808 1.50515 3.91808C1.49744 3.92037 1.48356 3.92152 1.47624 3.91808C1.46544 3.91655 1.45734 3.91234 1.44963 3.90852C1.44076 3.90356 1.43537 3.89859 1.42573 3.894C1.42071 3.88712 1.41339 3.88063 1.40645 3.8726C1.40028 3.86458 1.39604 3.85999 1.3918 3.8512C1.39565 3.86114 1.40067 3.87031 1.40375 3.87986C1.40953 3.8898 1.41262 3.89362 1.41339 3.90585C1.41724 3.91578 1.41609 3.92801 1.41609 3.93948C1.41493 3.94712 1.41455 3.96164 1.41108 3.96814V3.9754" stroke="#EF2D28" stroke-width="0.0116692"/>
<path d="M1.18308 4.01287V4.01675C1.18308 4.00732 1.18308 4.01176 1.18742 4.03061C1.19424 4.03837 1.21223 4.04059 1.22588 4.03727C1.23828 4.02784 1.23828 4.02063 1.26061 4.01675C1.28294 4.01786 1.29162 4.0234 1.30403 4.03061C1.31722 4.03499 1.32822 4.04345 1.33504 4.05445C1.33938 4.0661 1.34186 4.07442 1.32698 4.07885C1.31401 4.08661 1.29909 4.09138 1.28356 4.09272C1.26619 4.09272 1.25317 4.09105 1.24511 4.09992C1.2327 4.11101 1.23394 4.11767 1.23394 4.13763C1.2296 4.14373 1.22898 4.16203 1.22588 4.16924C1.2152 4.17426 1.20319 4.17656 1.19114 4.17589C1.1868 4.1648 1.18246 4.14595 1.17936 4.1343C1.17626 4.1221 1.17564 4.10436 1.16757 4.09604C1.16046 4.08649 1.15142 4.07822 1.1409 4.07164C1.13463 4.06529 1.12645 4.06067 1.11733 4.05834C1.13284 4.06499 1.1347 4.07275 1.13656 4.08939C1.12354 4.09493 1.11981 4.09937 1.09811 4.09992C1.0764 4.09826 1.07144 4.09327 1.06337 4.08218C1.06151 4.09992 1.05531 4.10547 1.05097 4.12099C1.04352 4.13098 1.04042 4.14151 1.03236 4.15537C1.03546 4.17201 1.0429 4.17256 1.04352 4.19308C1.04849 4.20694 1.04849 4.2197 1.05903 4.22801C1.06399 4.23356 1.06771 4.23411 1.07888 4.23467C1.05655 4.23467 1.0429 4.23245 1.02802 4.22469C1.01685 4.21803 1.00817 4.21027 0.997005 4.20362C0.983014 4.19419 0.967264 4.18706 0.950487 4.18254C0.932499 4.18254 0.919474 4.18088 0.912031 4.18975C0.900867 4.19696 0.893424 4.20916 0.888462 4.22469C0.88536 4.24243 0.8835 4.25463 0.892803 4.26627C0.899006 4.27958 0.900867 4.28457 0.892803 4.30065C0.8835 4.31174 0.870474 4.31341 0.849386 4.31784C0.83512 4.31729 0.820854 4.31452 0.81093 4.31119" stroke="#EF2D28" stroke-width="0.0112599"/>
<path fill-rule="evenodd" clip-rule="evenodd" d="M3.27046 2.19948C3.74345 1.38077 4.05715 0.683128 3.97162 0.643636C3.8852 0.603737 3.43131 1.23665 2.95832 2.05535L3.27046 2.19948Z" fill="white" stroke="#EF2D28" stroke-width="0.0155077"/>
<path fill-rule="evenodd" clip-rule="evenodd" d="M3.23919 2.18557C3.69549 1.39575 4.00973 0.728094 3.9413 0.6965C3.87217 0.664581 3.44577 1.28045 2.98947 2.07027" fill="white"/>
<path d="M3.23919 2.18557C3.69549 1.39575 4.00973 0.728094 3.9413 0.6965C3.87217 0.664581 3.44577 1.28045 2.98947 2.07027" stroke="#EF2D28" stroke-width="0.0136237"/>
<path fill-rule="evenodd" clip-rule="evenodd" d="M3.16091 1.77354C3.10535 1.86584 3.04649 1.97159 2.98956 2.07013L3.23998 2.18575C3.29691 2.08722 3.35929 1.98309 3.41133 1.88916L3.16091 1.77354Z" fill="white" stroke="#EF2D28" stroke-width="0.015462"/>
<path fill-rule="evenodd" clip-rule="evenodd" d="M3.18265 1.80542C3.1268 1.89821 3.08844 1.96849 3.03123 2.06752L3.21816 2.15383C3.27508 2.05529 3.31755 1.98566 3.36958 1.89173L3.18265 1.80542Z" fill="white" stroke="#EF2D28" stroke-width="0.015462"/>
<path fill-rule="evenodd" clip-rule="evenodd" d="M3.31848 1.91251L3.19327 1.8547L3.08227 2.04684L3.20748 2.10465L3.31848 1.91251ZM3.31848 1.91251L3.08227 2.04684ZM3.20748 2.10465L3.19327 1.8547ZM3.88318 0.935059L3.75797 0.877246Z" fill="white"/>
<path d="M3.31848 1.91251L3.19327 1.8547M3.31848 1.91251L3.20748 2.10465M3.31848 1.91251L3.08227 2.04684M3.19327 1.8547L3.08227 2.04684M3.19327 1.8547L3.20748 2.10465M3.08227 2.04684L3.20748 2.10465M3.88318 0.935059L3.75797 0.877246" stroke="#EF2D28" stroke-width="0.015462"/>
<path d="M3.8825 0.844131C3.86326 0.848995 3.84415 0.83922 3.83981 0.822299C3.83546 0.805378 3.84754 0.787718 3.86678 0.782854C3.88602 0.777991 3.90513 0.787765 3.90947 0.804686C3.91382 0.821608 3.90174 0.839268 3.8825 0.844131Z" fill="#EF0000" stroke="#EF2D28" stroke-width="0.0200346"/>
<path fill-rule="evenodd" clip-rule="evenodd" d="M3.08505 3.12376C4.1516 4.16978 4.60658 4.30191 4.39267 4.38634C4.17877 4.47077 3.49215 3.9308 2.7778 3.21422C2.06345 2.49764 1.62588 1.85936 1.83979 1.77494C2.05369 1.69051 1.95035 2.01219 3.08505 3.12376Z" fill="white" stroke="#EF2D28" stroke-width="0.020415"/>
<path fill-rule="evenodd" clip-rule="evenodd" d="M3.98155 3.88489L3.60754 3.98303C3.95923 4.3174 4.35495 4.45436 4.46473 4.39558C4.57451 4.33681 4.26687 4.19929 3.98093 3.88544L3.98155 3.88489Z" fill="white" stroke="#EF2D28" stroke-width="0.0112599"/>
<path fill-rule="evenodd" clip-rule="evenodd" d="M3.9816 3.92078L3.67346 3.99915C4.01604 4.32067 4.35499 4.41184 4.44259 4.37239C4.5308 4.33346 4.25952 4.22309 3.9816 3.92078Z" fill="white" stroke="#EF2D28" stroke-width="0.0118056"/>
<path d="M2.83606 3.07605C2.83693 3.08109 2.83955 3.10359 2.84174 3.11252C2.84174 3.12493 2.84305 3.13424 2.84436 3.14394C2.84785 3.15247 2.84742 3.16023 2.8579 3.16334C2.86274 3.17109 2.87046 3.17713 2.87974 3.1804C2.88814 3.18638 2.89739 3.19134 2.90726 3.19515C2.91759 3.19913 2.92911 3.19995 2.94002 3.19747C2.94963 3.19166 2.95662 3.18545 2.96448 3.1804C2.96623 3.17265 2.96798 3.1614 2.97016 3.15364C2.96675 3.16398 2.96484 3.17467 2.96448 3.18545C2.96536 3.19709 2.97016 3.20252 2.9754 3.21183" stroke="#EF2D28" stroke-width="0.0118555"/>
<path d="M2.93521 3.23836L2.93783 3.23603C2.93128 3.24185 2.9339 3.23914 2.94875 3.23099C2.95923 3.22633 2.97059 3.22401 2.98413 3.22168H3.02257C3.03742 3.22168 3.04747 3.22362 3.05795 3.22633C3.06582 3.23332 3.07717 3.2372 3.08547 3.2434C3.09285 3.24835 3.09846 3.25509 3.10163 3.2628C3.10906 3.2694 3.11387 3.27948 3.12085 3.28453C3.12391 3.29578 3.13003 3.29539 3.1344 3.30392C3.12129 3.3047 3.11124 3.30625 3.10426 3.31362C3.0929 3.31866 3.11387 3.30858 3.11823 3.30392C3.12697 3.30159 3.12915 3.29927 3.1427 3.29927C3.15493 3.29539 3.16279 3.30198 3.17546 3.30392C3.18288 3.3078 3.18507 3.30897 3.19468 3.30897" stroke="#EF2D28" stroke-width="0.0118555"/>
<path d="M3.0824 3.36223C3.08808 3.36223 3.11341 3.3665 3.12346 3.36223C3.13481 3.35951 3.14093 3.35447 3.14792 3.34516C3.15141 3.33857 3.14792 3.3568 3.14792 3.36456C3.14923 3.37891 3.15403 3.37891 3.1619 3.38861C3.16976 3.39327 3.17806 3.39947 3.18636 3.40335C3.19364 3.40863 3.20192 3.4127 3.21082 3.41538C3.21956 3.41926 3.22873 3.42236 3.23528 3.4274C3.24445 3.43322 3.24402 3.44021 3.24926 3.44952C3.24795 3.46115 3.24577 3.46814 3.23834 3.47357C3.23484 3.48172 3.22786 3.48986 3.22174 3.49529C3.21519 3.50693 3.20733 3.51197 3.22436 3.51469C3.23397 3.51857 3.23921 3.51547 3.24926 3.51469" stroke="#EF2D28" stroke-width="0.0118555"/>
<path d="M3.25549 3.53131C3.26248 3.52976 3.28607 3.52278 3.29655 3.51929H3.33499C3.34941 3.52045 3.35247 3.52433 3.3647 3.52899C3.373 3.53636 3.37824 3.5414 3.38959 3.54605C3.39527 3.55265 3.40707 3.56429 3.41144 3.57282C3.41503 3.58285 3.4168 3.59333 3.41668 3.60386C3.41668 3.61821 3.41231 3.62093 3.41144 3.63334C3.40838 3.644 3.40271 3.65394 3.39484 3.66244C3.39353 3.66554 3.39265 3.66632 3.38959 3.66709" stroke="#EF2D28" stroke-width="0.0118555"/>
<path d="M3.38745 3.69863C3.38869 3.69863 3.39117 3.70475 3.3952 3.70996C3.4042 3.71915 3.40513 3.71976 3.41846 3.71976C3.43087 3.71915 3.42932 3.71486 3.438 3.7121C3.44203 3.70598 3.447 3.70108 3.45165 3.69281C3.45475 3.68791 3.45754 3.68026 3.46095 3.67566C3.46467 3.66985 3.46901 3.66556 3.47274 3.66035C3.47646 3.65882 3.4777 3.65729 3.48266 3.65637C3.4715 3.65821 3.47025 3.66219 3.46312 3.66801C3.4596 3.67355 3.4564 3.67927 3.45351 3.68516C3.45227 3.69342 3.44979 3.69986 3.44948 3.70996C3.44948 3.72068 3.44948 3.72803 3.45351 3.73691C3.45816 3.7415 3.46126 3.7464 3.46715 3.75038C3.47205 3.75508 3.47652 3.7602 3.48049 3.76569L3.49817 3.77702C3.50375 3.78039 3.51026 3.78376 3.51925 3.78468C3.53073 3.78376 3.53414 3.7807 3.54251 3.77702C3.54996 3.77182 3.55554 3.76845 3.56205 3.76355C3.5674 3.75919 3.572 3.75403 3.5757 3.74824C3.58593 3.74579 3.59275 3.74671 3.59896 3.75222C3.60422 3.75584 3.60874 3.76042 3.61229 3.76569C3.61539 3.76722 3.62098 3.77182 3.62408 3.77335" stroke="#EF2D28" stroke-width="0.0113405"/>
<path d="M3.59863 3.77649C3.59555 3.77764 3.58398 3.78566 3.57935 3.78834C3.57627 3.79865 3.57126 3.804 3.56972 3.81509C3.56702 3.82502 3.56702 3.83649 3.56702 3.84833C3.56972 3.86056 3.57473 3.86935 3.57935 3.87891C3.58707 3.88426 3.59092 3.88808 3.60095 3.89343C3.61059 3.89496 3.62022 3.8961 3.63218 3.8961C3.63989 3.8984 3.65377 3.89954 3.66109 3.8961C3.67189 3.89458 3.67999 3.89037 3.6877 3.88655C3.69657 3.88158 3.70196 3.87661 3.7116 3.87203C3.71661 3.86515 3.72394 3.85865 3.73088 3.85063C3.73705 3.8426 3.74129 3.83802 3.74553 3.82923C3.74168 3.83916 3.73666 3.84833 3.73358 3.85789C3.7278 3.86782 3.72471 3.87165 3.72394 3.88388C3.72008 3.89381 3.72124 3.90604 3.72124 3.91751C3.7224 3.92515 3.72278 3.93967 3.72625 3.94617V3.95343" stroke="#EF2D28" stroke-width="0.0116692"/>
<path d="M3.95425 3.99419V3.99807C3.95425 3.98865 3.95425 3.99308 3.94991 4.01193C3.94308 4.0197 3.9251 4.02192 3.91145 4.01859C3.89905 4.00916 3.89905 4.00195 3.87672 3.99807C3.85439 3.99918 3.8457 4.00473 3.8333 4.01193C3.82011 4.01632 3.80911 4.02477 3.80229 4.03578C3.79795 4.04742 3.79546 4.05574 3.81035 4.06018C3.82332 4.06794 3.83824 4.0727 3.85377 4.07404C3.87114 4.07404 3.88416 4.07238 3.89222 4.08125C3.90463 4.09234 3.90339 4.09899 3.90339 4.11895C3.90773 4.12505 3.90835 4.14335 3.91145 4.15056C3.92213 4.15558 3.93414 4.15789 3.94619 4.15721C3.95053 4.14612 3.95487 4.12727 3.95797 4.11563C3.96107 4.10343 3.96169 4.08568 3.96975 4.07737C3.97687 4.06782 3.98591 4.05954 3.99643 4.05297C4.0027 4.04661 4.01088 4.04199 4.02 4.03966C4.00449 4.04631 4.00263 4.05408 4.00077 4.07071C4.01379 4.07626 4.01751 4.08069 4.03922 4.08125C4.06093 4.07958 4.06589 4.07459 4.07396 4.0635C4.07582 4.08125 4.08202 4.08679 4.08636 4.10232C4.0938 4.1123 4.09691 4.12283 4.10497 4.1367C4.10187 4.15333 4.09443 4.15389 4.0938 4.1744C4.08884 4.18827 4.08884 4.20102 4.0783 4.20934C4.07334 4.21488 4.06962 4.21544 4.05845 4.21599C4.08078 4.21599 4.09443 4.21377 4.10931 4.20601C4.12048 4.19936 4.12916 4.19159 4.14032 4.18494C4.15432 4.17551 4.17007 4.16838 4.18684 4.16387C4.20483 4.16387 4.21786 4.1622 4.2253 4.17108C4.23646 4.17828 4.24391 4.19048 4.24887 4.20601C4.25197 4.22375 4.25383 4.23595 4.24453 4.2476C4.23832 4.26091 4.23646 4.2659 4.24453 4.28198C4.25383 4.29307 4.26685 4.29473 4.28794 4.29917C4.30221 4.29861 4.31647 4.29584 4.3264 4.29251" stroke="#EF2D28" stroke-width="0.0112599"/>
<path fill-rule="evenodd" clip-rule="evenodd" d="M1.86687 2.18068C1.39388 1.36197 1.08018 0.664329 1.16571 0.624837C1.25212 0.584938 1.70602 1.21785 2.17901 2.03655L1.86687 2.18068Z" fill="white" stroke="#EF2D28" stroke-width="0.0155077"/>
<path fill-rule="evenodd" clip-rule="evenodd" d="M1.89814 2.16677C1.44184 1.37696 1.1276 0.709295 1.19602 0.677701C1.26515 0.645782 1.69156 1.26165 2.14785 2.05147" fill="white"/>
<path d="M1.89814 2.16677C1.44184 1.37696 1.1276 0.709295 1.19602 0.677701C1.26515 0.645782 1.69156 1.26165 2.14785 2.05147" stroke="#EF2D28" stroke-width="0.0136237"/>
<path fill-rule="evenodd" clip-rule="evenodd" d="M1.97642 1.75474C2.03198 1.84704 2.09084 1.95279 2.14777 2.05133L1.89735 2.16695C1.84042 2.06842 1.77803 1.96429 1.726 1.87037L1.97642 1.75474Z" fill="white" stroke="#EF2D28" stroke-width="0.015462"/>
<path fill-rule="evenodd" clip-rule="evenodd" d="M1.95468 1.78662C2.01052 1.87941 2.04889 1.94969 2.1061 2.04872L1.91917 2.13503C1.86225 2.03649 1.81978 1.96686 1.76775 1.87293L1.95468 1.78662Z" fill="white" stroke="#EF2D28" stroke-width="0.015462"/>
<path fill-rule="evenodd" clip-rule="evenodd" d="M1.81885 1.89371L1.94406 1.8359L2.05506 2.02804L1.92985 2.08585L1.81885 1.89371ZM1.81885 1.89371L2.05506 2.02804ZM1.92985 2.08585L1.94406 1.8359ZM1.25415 0.91626L1.37936 0.858447Z" fill="white"/>
<path d="M1.81885 1.89371L1.94406 1.8359M1.81885 1.89371L1.92985 2.08585M1.81885 1.89371L2.05506 2.02804M1.94406 1.8359L2.05506 2.02804M1.94406 1.8359L1.92985 2.08585M2.05506 2.02804L1.92985 2.08585M1.25415 0.91626L1.37936 0.858447" stroke="#EF2D28" stroke-width="0.015462"/>
<path d="M1.25483 0.825332C1.27407 0.830196 1.29318 0.820421 1.29752 0.8035C1.30187 0.786579 1.28979 0.768919 1.27055 0.764055C1.25131 0.759192 1.2322 0.768966 1.22786 0.785888C1.22351 0.802809 1.23559 0.820469 1.25483 0.825332Z" fill="#EF0000" stroke="#EF2D28" stroke-width="0.0200346"/>
<path fill-rule="evenodd" clip-rule="evenodd" d="M2.24509 1.76343C2.24509 2.45101 2.24922 2.70996 2.19878 2.74545C2.15081 2.78371 0.816895 2.74545 0.816895 2.94174C0.816895 3.13803 1.91512 3.33544 2.24509 3.33544C2.68504 3.33544 2.90419 3.13859 2.90419 2.74545V1.76398H2.24509V1.76343Z" fill="white" stroke="#EF2D28" stroke-width="0.0140851"/>
<path fill-rule="evenodd" clip-rule="evenodd" d="M2.24536 1.95972V2.05786C2.46341 2.09055 2.68602 2.09055 2.90407 2.05786V1.95972C2.68602 1.9924 2.46341 1.9924 2.24536 1.95972Z" fill="white" stroke="#EF2D28" stroke-width="0.0121982"/>
<path fill-rule="evenodd" clip-rule="evenodd" d="M2.24536 1.76343V1.86157C2.46341 1.89426 2.68602 1.89426 2.90407 1.86157V1.76343C2.68602 1.79611 2.46341 1.79611 2.24536 1.76343Z" fill="white" stroke="#EF2D28" stroke-width="0.0121982"/>
<path fill-rule="evenodd" clip-rule="evenodd" d="M2.24536 1.86157V1.95972C2.46341 1.9924 2.68602 1.9924 2.90407 1.95972V1.86157C2.68602 1.89426 2.46341 1.89426 2.24536 1.86157Z" fill="white" stroke="#EF2D28" stroke-width="0.0121982"/>
<path fill-rule="evenodd" clip-rule="evenodd" d="M2.24536 2.05786V2.15601C2.46341 2.18869 2.68602 2.18869 2.90407 2.15601V2.05786C2.68602 2.09055 2.46341 2.09055 2.24536 2.05786Z" fill="white" stroke="#EF2D28" stroke-width="0.0121982"/>
<path d="M2.27535 1.9383C2.29198 1.9383 2.30546 1.9288 2.30546 1.91709C2.30546 1.90537 2.29198 1.89587 2.27535 1.89587C2.25872 1.89587 2.24524 1.90537 2.24524 1.91709C2.24524 1.9288 2.25872 1.9383 2.27535 1.9383Z" fill="white" stroke="#EF2D28" stroke-width="0.011564"/>
<path d="M2.3951 1.94892C2.41173 1.94892 2.42521 1.93943 2.42521 1.92771C2.42521 1.91599 2.41173 1.90649 2.3951 1.90649C2.37847 1.90649 2.36499 1.91599 2.36499 1.92771C2.36499 1.93943 2.37847 1.94892 2.3951 1.94892Z" fill="white" stroke="#EF2D28" stroke-width="0.011564"/>
<path d="M2.51522 1.95967C2.53185 1.95967 2.54533 1.95017 2.54533 1.93845C2.54533 1.92673 2.53185 1.91724 2.51522 1.91724C2.49859 1.91724 2.48511 1.92673 2.48511 1.93845C2.48511 1.95017 2.49859 1.95967 2.51522 1.95967Z" fill="white" stroke="#EF2D28" stroke-width="0.011564"/>
<path d="M2.63497 1.95967C2.6516 1.95967 2.66508 1.95017 2.66508 1.93845C2.66508 1.92673 2.6516 1.91724 2.63497 1.91724C2.61834 1.91724 2.60486 1.92673 2.60486 1.93845C2.60486 1.95017 2.61834 1.95967 2.63497 1.95967Z" fill="white" stroke="#EF2D28" stroke-width="0.011564"/>
<path d="M2.75472 1.94892C2.77135 1.94892 2.78483 1.93943 2.78483 1.92771C2.78483 1.91599 2.77135 1.90649 2.75472 1.90649C2.73809 1.90649 2.72461 1.91599 2.72461 1.92771C2.72461 1.93943 2.73809 1.94892 2.75472 1.94892Z" fill="white" stroke="#EF2D28" stroke-width="0.011564"/>
<path d="M2.87484 1.9383C2.89147 1.9383 2.90495 1.9288 2.90495 1.91709C2.90495 1.90537 2.89147 1.89587 2.87484 1.89587C2.85821 1.89587 2.84473 1.90537 2.84473 1.91709C2.84473 1.9288 2.85821 1.9383 2.87484 1.9383Z" fill="white" stroke="#EF2D28" stroke-width="0.011564"/>
<path fill-rule="evenodd" clip-rule="evenodd" d="M2.24533 2.25415L2.90404 2.78481ZM2.31108 2.25415L2.90466 2.72548ZM2.39853 2.27411L2.90466 2.66725ZM2.46428 2.27356L2.90466 2.60792ZM2.53065 2.27411L2.90404 2.54914ZM2.59639 2.27411L2.90404 2.49037ZM2.66214 2.27411L2.90404 2.43104ZM2.72913 2.27411L2.90528 2.39167ZM2.79425 2.27411L2.90466 2.35285ZM2.86062 2.27411L2.90404 2.31293ZM2.24533 2.31293L2.90404 2.84414ZM2.90404 2.2547L2.17834 2.84358ZM2.83767 2.25415L2.20067 2.7654ZM2.75022 2.27411L2.24471 2.6667ZM2.68385 2.27411L2.24471 2.60792ZM2.61872 2.27411L2.24533 2.54914ZM2.55298 2.27411L2.24533 2.49037ZM2.48723 2.27411L2.24533 2.43104ZM2.42024 2.27411L2.24471 2.39167ZM2.3545 2.27411L2.24471 2.35285ZM2.28813 2.27411L2.24471 2.31293ZM2.90404 2.31293L2.17834 2.90347ZM2.90404 2.37281L2.17834 2.96169ZM2.90404 2.43104L2.17834 3.02047ZM2.90404 2.48981L2.17834 3.08036ZM2.90404 2.5497L2.17834 3.13858ZM2.90404 2.60792L2.17834 3.19735ZM2.90404 2.6667L2.17834 3.25613ZM2.90404 2.72603L2.17834 3.31546ZM2.90404 2.78481L2.22238 3.33487ZM2.90404 2.84358L2.28875 3.33487ZM2.88171 2.92232L2.39791 3.31546ZM2.86062 3.00051L2.4649 3.31491ZM2.81658 3.09865L2.6181 3.25558ZM2.24533 2.3717L2.88233 2.8824ZM2.24533 2.43048L2.88233 2.94173ZM2.24533 2.49037L2.86062 2.9811ZM2.24533 2.54859L2.86062 3.04043ZM2.24533 2.60792L2.83829 3.07925ZM2.223 2.64729L2.81658 3.11862ZM2.223 2.70662L2.77254 3.13913ZM2.20129 2.74544L2.75084 3.17795ZM2.17834 2.78425L2.70556 3.1968ZM2.17834 2.84303L2.68385 3.23617ZM2.17834 2.90236L2.61872 3.25558Z" fill="white"/>
<path d="M2.24533 2.25415L2.90404 2.78481L2.22238 3.33487M2.31108 2.25415L2.90466 2.72548M2.39853 2.27411L2.90466 2.66725M2.46428 2.27356L2.90466 2.60792M2.53065 2.27411L2.90404 2.54914M2.59639 2.27411L2.90404 2.49037M2.66214 2.27411L2.90404 2.43104L2.17834 3.02047M2.72913 2.27411L2.90528 2.39167M2.79425 2.27411L2.90466 2.35285M2.86062 2.27411L2.90404 2.31293L2.17834 2.90347M2.24533 2.31293L2.90404 2.84414M2.90404 2.2547L2.17834 2.84358M2.83767 2.25415L2.20067 2.7654M2.75022 2.27411L2.24471 2.6667M2.68385 2.27411L2.24471 2.60792M2.61872 2.27411L2.24533 2.54914M2.55298 2.27411L2.24533 2.49037L2.86062 2.9811M2.48723 2.27411L2.24533 2.43104M2.42024 2.27411L2.24471 2.39167M2.3545 2.27411L2.24471 2.35285M2.28813 2.27411L2.24471 2.31293M2.90404 2.37281L2.17834 2.96169M2.90404 2.48981L2.17834 3.08036M2.90404 2.5497L2.17834 3.13858M2.90404 2.60792L2.17834 3.19735M2.90404 2.6667L2.17834 3.25613M2.90404 2.72603L2.17834 3.31546M2.90404 2.84358L2.28875 3.33487M2.88171 2.92232L2.39791 3.31546M2.86062 3.00051L2.4649 3.31491M2.81658 3.09865L2.6181 3.25558M2.24533 2.3717L2.88233 2.8824M2.24533 2.43048L2.88233 2.94173M2.24533 2.54859L2.86062 3.04043M2.24533 2.60792L2.83829 3.07925M2.223 2.64729L2.81658 3.11862M2.223 2.70662L2.77254 3.13913M2.20129 2.74544L2.75084 3.17795M2.17834 2.78425L2.70556 3.1968M2.17834 2.84303L2.68385 3.23617M2.17834 2.90236L2.61872 3.25558" stroke="#EF2D28" stroke-width="0.0121982"/>
<path fill-rule="evenodd" clip-rule="evenodd" d="M2.24536 2.15649V2.25464C2.46341 2.28733 2.68602 2.28733 2.90407 2.25464V2.15649C2.68602 2.18918 2.46341 2.18918 2.24536 2.15649Z" fill="white" stroke="#EF2D28" stroke-width="0.0121982"/>
<path fill-rule="evenodd" clip-rule="evenodd" d="M2.17897 2.96167L2.57468 3.27607ZM2.17897 3.021L2.53065 3.29548ZM2.17897 3.07922L2.48661 3.31544ZM2.17897 3.138L2.39915 3.31544ZM2.17834 3.19733L2.3545 3.33485ZM2.17834 3.25611L2.28813 3.33485Z" fill="white"/>
<path d="M2.17897 2.96167L2.57468 3.27607M2.17897 3.021L2.53065 3.29548M2.17897 3.07922L2.48661 3.31544M2.17897 3.138L2.39915 3.31544M2.17834 3.19733L2.3545 3.33485M2.17834 3.25611L2.28813 3.33485" stroke="#EF2D28" stroke-width="0.0121982"/>
<path d="M2.27535 2.23335C2.29198 2.23335 2.30546 2.22385 2.30546 2.21213C2.30546 2.20042 2.29198 2.19092 2.27535 2.19092C2.25872 2.19092 2.24524 2.20042 2.24524 2.21213C2.24524 2.22385 2.25872 2.23335 2.27535 2.23335Z" fill="white" stroke="#EF2D28" stroke-width="0.011564"/>
<path d="M2.3951 2.24384C2.41173 2.24384 2.42521 2.23435 2.42521 2.22263C2.42521 2.21091 2.41173 2.20142 2.3951 2.20142C2.37847 2.20142 2.36499 2.21091 2.36499 2.22263C2.36499 2.23435 2.37847 2.24384 2.3951 2.24384Z" fill="white" stroke="#EF2D28" stroke-width="0.011564"/>
<path d="M2.51522 2.2541C2.53185 2.2541 2.54533 2.2446 2.54533 2.23288C2.54533 2.22117 2.53185 2.21167 2.51522 2.21167C2.49859 2.21167 2.48511 2.22117 2.48511 2.23288C2.48511 2.2446 2.49859 2.2541 2.51522 2.2541Z" fill="white" stroke="#EF2D28" stroke-width="0.011564"/>
<path d="M2.63497 2.2541C2.6516 2.2541 2.66508 2.2446 2.66508 2.23288C2.66508 2.22117 2.6516 2.21167 2.63497 2.21167C2.61834 2.21167 2.60486 2.22117 2.60486 2.23288C2.60486 2.2446 2.61834 2.2541 2.63497 2.2541Z" fill="white" stroke="#EF2D28" stroke-width="0.011564"/>
<path d="M2.75472 2.24384C2.77135 2.24384 2.78483 2.23435 2.78483 2.22263C2.78483 2.21091 2.77135 2.20142 2.75472 2.20142C2.73809 2.20142 2.72461 2.21091 2.72461 2.22263C2.72461 2.23435 2.73809 2.24384 2.75472 2.24384Z" fill="white" stroke="#EF2D28" stroke-width="0.011564"/>
<path d="M2.87484 2.23335C2.89147 2.23335 2.90495 2.22385 2.90495 2.21213C2.90495 2.20042 2.89147 2.19092 2.87484 2.19092C2.85821 2.19092 2.84473 2.20042 2.84473 2.21213C2.84473 2.22385 2.85821 2.23335 2.87484 2.23335Z" fill="white" stroke="#EF2D28" stroke-width="0.011564"/>
<path fill-rule="evenodd" clip-rule="evenodd" d="M1.30009 3.17793L2.09091 2.76538ZM1.25605 3.15797L2.00346 2.76538ZM1.23435 3.1186L1.91538 2.76538ZM1.21202 3.07978L1.8056 2.76538ZM1.16736 3.04041L1.7169 2.76538ZM1.18969 2.98164L1.56308 2.78479ZM1.16736 2.94171L1.45267 2.78479ZM1.16736 2.88293L1.36584 2.78479ZM1.36584 3.19734L2.11262 2.8042ZM1.43221 3.21674L2.13495 2.84357ZM1.49795 3.23671L2.15728 2.88293ZM1.5637 3.25611L2.11324 2.96167ZM1.65115 3.25611L2.13495 3.00104ZM1.7169 3.27608L2.13433 3.05982ZM1.78265 3.29548L2.11262 3.1186ZM1.87072 3.29604L2.13433 3.15797ZM1.9588 3.31544L2.13495 3.21674ZM2.04811 3.31544L2.1579 3.25667Z" fill="white"/>
<path d="M1.30009 3.17793L2.09091 2.76538M1.25605 3.15797L2.00346 2.76538M1.23435 3.1186L1.91538 2.76538M1.21202 3.07978L1.8056 2.76538M1.16736 3.04041L1.7169 2.76538M1.18969 2.98164L1.56308 2.78479M1.16736 2.94171L1.45267 2.78479M1.16736 2.88293L1.36584 2.78479M1.36584 3.19734L2.11262 2.8042M1.43221 3.21674L2.13495 2.84357M1.49795 3.23671L2.15728 2.88293M1.5637 3.25611L2.11324 2.96167M1.65115 3.25611L2.13495 3.00104M1.7169 3.27608L2.13433 3.05982M1.78265 3.29548L2.11262 3.1186M1.87072 3.29604L2.13433 3.15797M1.9588 3.31544L2.13495 3.21674M2.04811 3.31544L2.1579 3.25667" stroke="#EF2D28" stroke-width="0.0121982"/>
<path fill-rule="evenodd" clip-rule="evenodd" d="M2.20068 2.74597H2.0909C2.05434 2.9409 2.05434 3.13992 2.0909 3.33485H2.20068C2.16412 3.13992 2.16412 2.9409 2.20068 2.74597Z" fill="white" stroke="#EF2D28" stroke-width="0.0121982"/>
<path fill-rule="evenodd" clip-rule="evenodd" d="M0.904419 3.02051L1.16803 2.82422ZM0.904419 2.883L1.16803 3.11866Z" fill="white"/>
<path d="M0.904419 3.02051L1.16803 2.82422M0.904419 2.883L1.16803 3.11866" stroke="#EF2D28" stroke-width="0.0121982"/>
<path fill-rule="evenodd" clip-rule="evenodd" d="M1.30005 2.78442L1.16806 2.80409C1.13878 2.92876 1.13878 3.03341 1.16806 3.15808L1.30005 3.19706C1.27077 3.07274 1.27077 2.90909 1.30005 2.78442Z" fill="white" stroke="#EF2D28" stroke-width="0.00868275"/>
<path fill-rule="evenodd" clip-rule="evenodd" d="M2.90413 1.80226V1.703C2.80469 1.70411 2.73871 1.64478 2.73871 1.58545L2.40973 1.586C2.40973 1.64478 2.34468 1.70411 2.24524 1.70411V1.80226H2.90413Z" fill="white" stroke="#EF2D28" stroke-width="0.0149313"/>
<path fill-rule="evenodd" clip-rule="evenodd" d="M2.43262 1.4684H2.71545V1.58651H2.43262V1.4684ZM2.45681 1.35029H2.69188V1.4684H2.45619L2.45681 1.35029ZM2.45681 1.23274H2.69188V1.35029H2.45619L2.45681 1.23274ZM2.48038 1.07526H2.66831V1.23274H2.48038V1.07526ZM2.47231 0.937744H2.677V1.07526H2.47231V0.937744Z" fill="white"/>
<path d="M2.69188 1.35029H2.45681L2.45619 1.4684H2.69188V1.35029ZM2.69188 1.35029V1.23274H2.45681L2.45619 1.35029H2.69188ZM2.43262 1.4684H2.71545V1.58651H2.43262V1.4684ZM2.48038 1.07526H2.66831V1.23274H2.48038V1.07526ZM2.47231 0.937744H2.677V1.07526H2.47231V0.937744Z" stroke="#EF2D28" stroke-width="0.0131366"/>
<path d="M2.58525 0.997146C2.73568 0.997146 2.85763 0.913483 2.85763 0.81028C2.85763 0.707076 2.73568 0.623413 2.58525 0.623413C2.43482 0.623413 2.31287 0.707076 2.31287 0.81028C2.31287 0.913483 2.43482 0.997146 2.58525 0.997146Z" fill="white" stroke="#EF2D28" stroke-width="0.0123997"/>
<path fill-rule="evenodd" clip-rule="evenodd" d="M2.72182 0.800232C2.72182 0.851801 2.78976 0.937748 2.78976 0.937748C2.74041 0.972127 2.66029 0.99708 2.58531 0.99708C2.51032 0.99708 2.41675 0.982663 2.38086 0.937748C2.38086 0.937748 2.4488 0.852355 2.4488 0.800787C2.4488 0.749218 2.38086 0.682678 2.38086 0.682678C2.44035 0.644861 2.51213 0.624288 2.58595 0.623901C2.66029 0.623901 2.73977 0.648854 2.78976 0.682678C2.78976 0.682678 2.72182 0.749218 2.72182 0.800787V0.800232Z" fill="white" stroke="#EF2D28" stroke-width="0.0123997"/>
<path fill-rule="evenodd" clip-rule="evenodd" d="M2.67634 0.800232C2.67634 0.851801 2.74428 0.95771 2.74428 0.95771C2.69493 0.99098 2.66096 0.996525 2.58534 0.996525C2.50971 0.996525 2.46228 1.00262 2.42639 0.95771C2.42639 0.95771 2.49433 0.852355 2.49433 0.800232C2.49433 0.748109 2.42639 0.662716 2.42639 0.662716C2.47574 0.629446 2.50971 0.623901 2.58534 0.623901C2.66032 0.623901 2.69493 0.629446 2.74428 0.662716C2.74428 0.662716 2.67634 0.748664 2.67634 0.800232Z" fill="white" stroke="#EF2D28" stroke-width="0.0123997"/>
<path d="M2.31293 0.878418C2.35045 0.878418 2.38087 0.852103 2.38087 0.819641C2.38087 0.78718 2.35045 0.760864 2.31293 0.760864C2.27541 0.760864 2.245 0.78718 2.245 0.819641C2.245 0.852103 2.27541 0.878418 2.31293 0.878418Z" fill="white" stroke="#EF2D28" stroke-width="0.0123997"/>
<path d="M2.8581 0.878418C2.89562 0.878418 2.92603 0.852103 2.92603 0.819641C2.92603 0.78718 2.89562 0.760864 2.8581 0.760864C2.82058 0.760864 2.79016 0.78718 2.79016 0.819641C2.79016 0.852103 2.82058 0.878418 2.8581 0.878418Z" fill="white" stroke="#EF2D28" stroke-width="0.0123997"/>
<path d="M2.58576 0.878418C2.62328 0.878418 2.65369 0.852103 2.65369 0.819641C2.65369 0.78718 2.62328 0.760864 2.58576 0.760864C2.54824 0.760864 2.51782 0.78718 2.51782 0.819641C2.51782 0.852103 2.54824 0.878418 2.58576 0.878418Z" fill="white" stroke="#EF2D28" stroke-width="0.0123997"/>
<path d="M2.58576 0.682129C2.62328 0.682129 2.65369 0.655814 2.65369 0.623352C2.65369 0.590891 2.62328 0.564575 2.58576 0.564575C2.54824 0.564575 2.51782 0.590891 2.51782 0.623352C2.51782 0.655814 2.54824 0.682129 2.58576 0.682129Z" fill="white" stroke="#EF2D28" stroke-width="0.0123997"/>
<path d="M2.38665 1.80225C2.42551 1.80225 2.45701 1.77593 2.45701 1.74347C2.45701 1.71101 2.42551 1.68469 2.38665 1.68469C2.34779 1.68469 2.31628 1.71101 2.31628 1.74347C2.31628 1.77593 2.34779 1.80225 2.38665 1.80225Z" fill="white" stroke="#EF2D28" stroke-width="0.0126191"/>
<path d="M2.7625 1.80225C2.80136 1.80225 2.83286 1.77593 2.83286 1.74347C2.83286 1.71101 2.80136 1.68469 2.7625 1.68469C2.72364 1.68469 2.69214 1.71101 2.69214 1.74347C2.69214 1.77593 2.72364 1.80225 2.7625 1.80225Z" fill="white" stroke="#EF2D28" stroke-width="0.0126191"/>
<path fill-rule="evenodd" clip-rule="evenodd" d="M2.40991 1.58594H2.73915L2.57453 1.76282L2.40991 1.58594Z" fill="white" stroke="#EF2D28" stroke-width="0.0126191"/>
<path d="M2.57429 1.80188C2.6261 1.80188 2.66811 1.76679 2.66811 1.72351C2.66811 1.68023 2.6261 1.64514 2.57429 1.64514C2.52247 1.64514 2.48047 1.68023 2.48047 1.72351C2.48047 1.76679 2.52247 1.80188 2.57429 1.80188Z" fill="white" stroke="#EF2D28" stroke-width="0.0168257"/>
<path d="M2.69258 2.31091H2.24042C2.22569 2.31091 2.21375 2.3201 2.21375 2.33143V2.4085C2.21375 2.41984 2.22569 2.42902 2.24042 2.42902H2.69258C2.70731 2.42902 2.71925 2.41984 2.71925 2.4085V2.33143C2.71925 2.3201 2.70731 2.31091 2.69258 2.31091Z" fill="white" stroke="#EF2D28" stroke-width="0.0112599"/>
<path fill-rule="evenodd" clip-rule="evenodd" d="M2.87309 2.21283C2.81231 2.21283 2.76331 2.25886 2.76331 2.31542V2.40469C2.7629 2.41789 2.76542 2.43103 2.77073 2.44335C2.77604 2.45568 2.78403 2.46693 2.79424 2.47648C2.80445 2.48602 2.81668 2.49365 2.83022 2.49894C2.84375 2.50422 2.85833 2.50706 2.87309 2.50727C2.88786 2.50706 2.90244 2.50422 2.91597 2.49894C2.92951 2.49365 2.94174 2.48602 2.95195 2.47648C2.96216 2.46693 2.97015 2.45568 2.97546 2.44335C2.98077 2.43103 2.98329 2.41789 2.98288 2.40469V2.31597C2.98337 2.30272 2.98092 2.28952 2.97564 2.27714C2.97037 2.26475 2.96239 2.25343 2.95217 2.24382C2.94195 2.23422 2.9297 2.22654 2.91612 2.22122C2.90254 2.2159 2.88792 2.21305 2.87309 2.21283ZM2.87309 2.25165C2.8365 2.25165 2.80735 2.2888 2.80735 2.33427V2.38584C2.80735 2.43131 2.8365 2.4679 2.87309 2.4679C2.90969 2.4679 2.93884 2.43131 2.93884 2.38584V2.33427C2.93884 2.2888 2.90969 2.2522 2.87309 2.2522V2.25165ZM2.30184 2.23224C2.26463 2.23224 2.2361 2.26884 2.2361 2.31486V2.4058C2.2361 2.45127 2.26525 2.48786 2.30184 2.48786C2.33844 2.48786 2.36759 2.45127 2.36759 2.4058V2.31431C2.36759 2.26828 2.33844 2.23169 2.30184 2.23169V2.23224ZM2.30184 2.19343C2.28708 2.19364 2.2725 2.19647 2.25897 2.20176C2.24543 2.20705 2.2332 2.21468 2.22299 2.22422C2.21278 2.23376 2.20479 2.24502 2.19948 2.25734C2.19417 2.26967 2.19165 2.28281 2.19206 2.29601V2.42465C2.19165 2.43785 2.19417 2.45099 2.19948 2.46332C2.20479 2.47564 2.21278 2.4869 2.22299 2.49644C2.2332 2.50598 2.24543 2.51361 2.25897 2.5189C2.2725 2.52419 2.28708 2.52702 2.30184 2.52723C2.36263 2.52723 2.41163 2.48121 2.41163 2.42465V2.29601C2.41212 2.28276 2.40966 2.26956 2.40439 2.25717C2.39912 2.24479 2.39114 2.23346 2.38092 2.22386C2.3707 2.21426 2.35845 2.20658 2.34487 2.20126C2.33129 2.19593 2.31667 2.19308 2.30184 2.19287V2.19343Z" fill="white" stroke="#EF2D28" stroke-width="0.0112599"/>
<path fill-rule="evenodd" clip-rule="evenodd" d="M2.12557 2.27155C2.08898 2.27155 2.05983 2.30814 2.05983 2.35361V2.37524C2.05983 2.42071 2.08898 2.4573 2.12557 2.4573C2.16279 2.4573 2.19194 2.42071 2.19194 2.37524V2.35361C2.19194 2.30814 2.16217 2.27155 2.12557 2.27155ZM2.12557 2.23273C2.11081 2.23295 2.09623 2.23578 2.0827 2.24107C2.06916 2.24635 2.05693 2.25399 2.04672 2.26353C2.03651 2.27307 2.02852 2.28433 2.02321 2.29665C2.0179 2.30897 2.01538 2.32211 2.01579 2.33531V2.39409C2.01538 2.40729 2.0179 2.42043 2.02321 2.43276C2.02852 2.44508 2.03651 2.45634 2.04672 2.46588C2.05693 2.47542 2.06916 2.48305 2.0827 2.48834C2.09623 2.49363 2.11081 2.49646 2.12557 2.49667C2.18636 2.49667 2.23598 2.45065 2.23598 2.39409V2.33531C2.23648 2.32202 2.234 2.30878 2.22869 2.29635C2.22338 2.28393 2.21534 2.27258 2.20506 2.26297C2.19477 2.25337 2.18244 2.24569 2.16879 2.2404C2.15514 2.23511 2.14045 2.23232 2.12557 2.23218V2.23273Z" fill="white" stroke="#EF2D28" stroke-width="0.0112599"/>
<path fill-rule="evenodd" clip-rule="evenodd" d="M1.86278 2.21734C1.79579 2.21734 1.74332 2.25824 1.74332 2.30906V2.41131C1.74332 2.4615 1.79691 2.50303 1.86278 2.50303C1.92754 2.50303 1.98112 2.46212 1.98112 2.41069V2.30906C1.98112 2.25824 1.92754 2.21734 1.86278 2.21734ZM1.86278 2.17396C1.8362 2.17412 1.80994 2.17721 1.78552 2.18304C1.7611 2.18887 1.73901 2.19734 1.72053 2.20794C1.70204 2.21855 1.68754 2.23108 1.67784 2.24482C1.66815 2.25856 1.66346 2.27323 1.66405 2.28799V2.43176C1.66316 2.44656 1.66759 2.46132 1.67708 2.47516C1.68657 2.489 1.70093 2.50166 1.71932 2.51239C1.73772 2.52312 1.75978 2.53171 1.78422 2.53765C1.80866 2.5436 1.83498 2.54679 1.86166 2.54702C1.97219 2.54702 2.06039 2.49559 2.06039 2.43176V2.28799C2.06113 2.27323 2.0566 2.25855 2.04704 2.24478C2.03748 2.231 2.0231 2.21842 2.00472 2.20776C1.98634 2.1971 1.96433 2.18856 1.93996 2.18265C1.9156 2.17675 1.88936 2.17358 1.86278 2.17334V2.17396Z" fill="white" stroke="#EF2D28" stroke-width="0.0119778"/>
<path fill-rule="evenodd" clip-rule="evenodd" d="M3.29125 2.23675C3.22426 2.23675 3.17179 2.27765 3.17179 2.32847V2.43072C3.17179 2.48091 3.22538 2.52243 3.29125 2.52243C3.356 2.52243 3.40959 2.48153 3.40959 2.4301V2.32847C3.40959 2.27765 3.356 2.23675 3.29125 2.23675ZM3.29125 2.19337C3.26467 2.19353 3.23841 2.19662 3.21399 2.20245C3.18957 2.20828 3.16748 2.21675 3.14899 2.22735C3.13051 2.23796 3.116 2.25049 3.10631 2.26423C3.09661 2.27797 3.09193 2.29264 3.09252 2.3074V2.45117C3.09163 2.46597 3.09605 2.48072 3.10554 2.49457C3.11503 2.50841 3.12939 2.52107 3.14779 2.5318C3.16618 2.54253 3.18824 2.55112 3.21268 2.55706C3.23712 2.56301 3.26345 2.5662 3.29013 2.56643C3.40066 2.56643 3.48886 2.515 3.48886 2.45117V2.3074C3.4896 2.29264 3.48506 2.27796 3.47551 2.26418C3.46595 2.25041 3.45156 2.23783 3.43318 2.22717C3.4148 2.2165 3.39279 2.20797 3.36843 2.20206C3.34407 2.19616 3.31783 2.19299 3.29125 2.19275V2.19337Z" fill="white" stroke="#EF2D28" stroke-width="0.0119778"/>
<path d="M3.16645 2.31091H2.93138C2.9235 2.31091 2.91711 2.3201 2.91711 2.33143V2.4085C2.91711 2.41984 2.9235 2.42902 2.93138 2.42902H3.16645C3.17433 2.42902 3.18072 2.41984 3.18072 2.4085V2.33143C3.18072 2.3201 3.17433 2.31091 3.16645 2.31091Z" fill="white" stroke="#EF2D28" stroke-width="0.0112599"/>
<path d="M2.82093 2.2915H2.68323C2.67878 2.2915 2.67517 2.30367 2.67517 2.31867V2.42181C2.67517 2.43682 2.67878 2.44898 2.68323 2.44898H2.82093C2.82538 2.44898 2.82899 2.43682 2.82899 2.42181V2.31867C2.82899 2.30367 2.82538 2.2915 2.82093 2.2915Z" fill="white" stroke="#EF2D28" stroke-width="0.0112599"/>
<path d="M2.09583 2.2915H1.95814C1.95368 2.2915 1.95007 2.30367 1.95007 2.31867V2.42181C1.95007 2.43682 1.95368 2.44898 1.95814 2.44898H2.09583C2.10029 2.44898 2.1039 2.43682 2.1039 2.42181V2.31867C2.1039 2.30367 2.10029 2.2915 2.09583 2.2915Z" fill="white" stroke="#EF2D28" stroke-width="0.0112599"/>
<path d="M1.75783 2.27161H1.48244C1.47353 2.27161 1.46631 2.28675 1.46631 2.30543V2.43407C1.46631 2.45276 1.47353 2.4679 1.48244 2.4679H1.75783C1.76673 2.4679 1.77395 2.45276 1.77395 2.43407V2.30543C1.77395 2.28675 1.76673 2.27161 1.75783 2.27161Z" fill="white" stroke="#EF2D28" stroke-width="0.0112599"/>
<path d="M3.64897 2.2915H3.39405C3.38548 2.2915 3.37854 2.30665 3.37854 2.32533V2.45397C3.37854 2.47265 3.38548 2.4878 3.39405 2.4878H3.64897C3.65753 2.4878 3.66448 2.47265 3.66448 2.45397V2.32533C3.66448 2.30665 3.65753 2.2915 3.64897 2.2915Z" fill="white" stroke="#EF2D28" stroke-width="0.0112599"/>
</g>
</g>
<defs>
<clipPath id="clip0_14_319">
<rect width="20" height="15" fill="white"/>
</clipPath>
</defs>
</svg>
