<svg width="20" height="15" viewBox="0 0 20 15" fill="none" xmlns="http://www.w3.org/2000/svg">
<mask id="mask0_1825_43891" style="mask-type:luminance" maskUnits="userSpaceOnUse" x="0" y="0" width="20" height="15">
<rect width="20" height="15" fill="white"/>
</mask>
<g mask="url(#mask0_1825_43891)">
<path fill-rule="evenodd" clip-rule="evenodd" d="M0 0V15H20V0H0Z" fill="#F7FCFF"/>
<mask id="mask1_1825_43891" style="mask-type:luminance" maskUnits="userSpaceOnUse" x="0" y="0" width="20" height="15">
<path fill-rule="evenodd" clip-rule="evenodd" d="M0 0V15H20V0H0Z" fill="white"/>
</mask>
<g mask="url(#mask1_1825_43891)">
<path fill-rule="evenodd" clip-rule="evenodd" d="M10 0V7.5H20V0H10Z" fill="#E31D1C"/>
<path fill-rule="evenodd" clip-rule="evenodd" d="M14.3882 11.9686L12.9492 12.859L13.5078 11.3642L12.2847 10.2325H13.7683L14.3882 8.6156L14.8613 10.2325H16.3472L15.2763 11.3642L15.8006 12.859L14.3882 11.9686Z" fill="#E31D1C"/>
<path fill-rule="evenodd" clip-rule="evenodd" d="M5.63819 5.228L4.19917 6.11845L4.75784 4.62362L3.53467 3.49194H5.01829L5.63819 1.875L6.11126 3.49194H7.59717L6.52631 4.62362L7.05061 6.11845L5.63819 5.228Z" fill="#2E42A5"/>
<path fill-rule="evenodd" clip-rule="evenodd" d="M0 7.5V15H10V7.5H0Z" fill="#2E42A5"/>
</g>
</g>
</svg>
