<svg width="20" height="15" viewBox="0 0 20 15" fill="none" xmlns="http://www.w3.org/2000/svg">
<g clip-path="url(#clip0_14_381)">
<mask id="mask0_14_381" style="mask-type:luminance" maskUnits="userSpaceOnUse" x="0" y="0" width="20" height="15">
<path d="M0 0H20V15H0V0Z" fill="white"/>
</mask>
<g mask="url(#mask0_14_381)">
<path d="M0 0H20V15H0V0Z" fill="white"/>
<path d="M2.5 0H17.5V15H2.5V0Z" fill="white"/>
<path fill-rule="evenodd" clip-rule="evenodd" d="M8.66567 10.65C8.66567 10.65 9.00317 10.375 9.33442 10.375C9.66567 10.375 9.75317 10.6031 9.98442 10.6219C10.2125 10.6406 10.4032 10.3938 10.6875 10.3844C10.9719 10.375 11.3282 10.5844 11.3282 10.5844L10.0844 10.9594L8.66567 10.6469V10.65ZM7.95004 10.2438L12.1813 10.2656C12.1813 10.2656 11.8157 9.86877 11.3844 9.8594C10.9532 9.85315 11.0719 10.0469 10.7438 10.0719C10.4125 10.1 10.3313 9.8719 10.0282 9.87815C9.72817 9.88752 9.55317 10.0719 9.32504 10.0813C9.09379 10.0906 8.80317 9.85315 8.62817 9.86252C8.45317 9.8719 7.83129 10.1344 7.83129 10.1344L7.95004 10.2469V10.2438ZM7.40942 9.74377L12.6282 9.7594C12.7125 9.64065 12.3719 9.35627 12.0625 9.33127C11.8063 9.34065 11.625 9.5969 11.4125 9.60627C11.2 9.61565 10.9625 9.34065 10.725 9.35003C10.4875 9.3594 10.2407 9.60627 10.0032 9.60627C9.76254 9.60627 9.59067 9.34065 9.28754 9.34065C8.98442 9.34065 8.85004 9.63128 8.61879 9.61565C8.39067 9.5969 8.18754 9.3219 7.96879 9.3219C7.75004 9.3219 7.38442 9.65002 7.31254 9.6344C7.23754 9.61252 7.40317 9.76878 7.40942 9.74065V9.74377Z" fill="#083D9C" stroke="#083D9C" stroke-width="0.133333"/>
<path fill-rule="evenodd" clip-rule="evenodd" d="M9.41562 6.84067L10.6156 7.15942V5.44692C10.0656 5.47817 9.60938 4.40317 10.5781 4.3313C9.625 4.1938 9.51562 4.44067 9.40625 4.7063L9.41562 6.84067Z" fill="#FF0000" stroke="black" stroke-width="0.125" stroke-linejoin="round"/>
<path fill-rule="evenodd" clip-rule="evenodd" d="M8.65625 8.08435L11.3656 8.09373Z" fill="#083D9C"/>
<path d="M8.65625 8.08435L11.3656 8.09373" stroke="#083D9C" stroke-width="0.25" stroke-linecap="round"/>
<path d="M8.78442 7.4375L9.1063 7.86562M8.78442 7.86562L9.1313 7.44375M8.9688 7.40625L8.95942 7.67188M9.29692 7.43437L9.6188 7.86562M9.29692 7.86562L9.6438 7.44375M9.4813 7.40625L9.47192 7.67188M9.8188 7.43437L10.1407 7.86562M9.8188 7.86562L10.1657 7.44375M10.0032 7.40625L9.9938 7.67188M10.3594 7.43437L10.6782 7.86562M10.3594 7.86562L10.7063 7.44375M10.5407 7.40625L10.5344 7.67188M10.8782 7.43437L11.2 7.86562M10.8813 7.86562L11.2282 7.44375M11.0625 7.40625L11.0532 7.67188" stroke="black" stroke-width="0.2" stroke-linecap="round"/>
<path fill-rule="evenodd" clip-rule="evenodd" d="M6.83433 8.11248L7.98745 8.12185V7.39998L6.6687 7.33435L6.83433 8.11248ZM6.77808 7.11248L8.0062 7.23435L7.99683 6.72185L6.79683 6.24373L6.77808 7.1156V7.11248ZM7.02808 6.0906L7.9687 6.54685L8.10308 6.40623C8.10308 6.40623 8.01558 6.34685 8.02183 6.2906C8.02183 6.23748 8.10933 6.2281 8.10933 6.1656C8.10933 6.11248 8.01558 6.1031 8.01245 6.04998C8.0062 5.98748 8.08745 5.92498 8.08745 5.92498L7.23745 5.18435L7.02495 6.0906H7.02808ZM13.2156 8.12185H11.9968L11.9875 7.4156L13.325 7.3156L13.2156 8.12185ZM12.0062 7.24998L13.4531 7.07498L13.1406 6.2406L11.9968 6.7281L12.0062 7.24998ZM13.0593 6.01248L12.0156 6.56248C12 6.49998 11.9875 6.44373 11.9156 6.39685C11.9156 6.39685 11.9781 6.35935 11.9781 6.29685C11.9781 6.23435 11.8968 6.22185 11.8968 6.18748C11.8968 6.1531 11.9718 6.11873 11.9781 6.03435C11.9687 5.9781 11.8968 5.89685 11.9093 5.88123L12.7218 5.26248L13.0593 6.01248ZM10.7968 7.23435L11.3187 7.21248L11.3281 7.0031L10.7968 7.23435ZM9.20308 7.21873L8.6562 7.2031V6.98435L9.2062 7.21873H9.20308ZM9.20308 7.15623L8.6562 6.87498V6.50623C8.6562 6.50623 8.5937 6.5156 8.59995 6.44373C8.60308 6.2906 9.00308 6.72185 9.2062 6.86248L9.20308 7.15623ZM10.7968 7.12185V6.88123C10.7968 6.88123 11.2906 6.43748 11.3937 6.3531C11.3937 6.44685 11.3375 6.5156 11.3375 6.5156V6.8656L10.7968 7.12185ZM7.5937 5.11873L8.14995 5.73435C8.16245 5.6781 8.29058 5.66873 8.4187 5.6781C8.5437 5.68748 8.64683 5.66873 8.64683 5.75935C8.64683 5.84998 8.58433 5.83748 8.58433 5.9031C8.58433 5.96873 8.67808 5.96248 8.67808 6.04373C8.67808 6.12498 8.60933 6.10935 8.60933 6.17185C8.60933 6.22498 8.68433 6.2281 8.68433 6.2281L9.20308 6.73123V6.19373L8.13433 4.5156L7.5937 5.11873ZM8.44995 4.48123L9.17808 5.9656C9.17808 5.9656 9.18433 4.59685 9.3062 4.52498L9.10308 4.14998L8.44995 4.48123ZM11.6062 4.5406L10.7937 5.98435V5.37498C10.7937 5.37498 10.8625 5.27498 10.7562 5.28123C10.65 5.2906 10.5218 5.27498 10.5218 5.27498L10.8468 4.13123L11.6062 4.53748V4.5406ZM12.4375 5.15623C12.4281 5.17185 11.8906 5.71873 11.8906 5.71873C11.8656 5.65623 11.7031 5.68748 11.5468 5.68748C11.3937 5.68748 11.3718 5.73748 11.3812 5.7781C11.3968 5.88123 11.45 5.8031 11.45 5.9031C11.45 5.99998 11.375 5.9656 11.3656 6.03435C11.375 6.11873 11.4843 6.09685 11.4187 6.15935L10.7968 6.75935V6.1906L11.9562 4.3906L12.4375 5.15623Z" fill="#EF7D08"/>
<path fill-rule="evenodd" clip-rule="evenodd" d="M9.68125 8.38755C9.42187 8.8188 8.725 8.69067 8.55937 8.38755C8.5125 8.37505 8.54062 6.52817 8.54062 6.52817C8.54062 6.52817 8.4625 6.4938 8.45938 6.43442C8.45625 6.37817 8.56563 6.37192 8.56563 6.30005C8.56563 6.22817 8.45312 6.2563 8.45 6.1813C8.45 6.11255 8.57188 6.1188 8.56563 6.0563C8.55938 5.9813 8.43125 5.9938 8.425 5.92505C8.425 5.87192 8.51875 5.82505 8.54375 5.80005C8.51459 5.80072 8.48541 5.80072 8.45625 5.80005L8.25625 5.80317C8.1125 5.80317 8.25625 5.83442 8.25625 5.91567C8.25625 5.9688 8.18438 6.0063 8.17813 6.05005C8.175 6.10005 8.27812 6.1313 8.28125 6.19067C8.28125 6.24067 8.17812 6.2438 8.18125 6.2938C8.1875 6.37192 8.275 6.39067 8.27188 6.44067C8.27188 6.48755 8.15938 6.5063 8.15625 6.5438C8.1625 6.6188 8.175 8.4438 8.175 8.4438C8.35313 9.37505 9.3875 9.60942 9.68125 8.38755ZM10.3656 8.38755C10.625 8.8188 11.3219 8.69067 11.4844 8.38755C11.5344 8.37505 11.5063 6.52817 11.5063 6.52817C11.5063 6.52817 11.5844 6.4938 11.5875 6.43442C11.5906 6.37817 11.4875 6.37192 11.4875 6.30005C11.4875 6.22817 11.5938 6.2563 11.5938 6.1813C11.5938 6.11255 11.4844 6.1188 11.4906 6.05005C11.4969 5.97817 11.5844 5.98755 11.5875 5.9188C11.5906 5.85942 11.5344 5.82505 11.5063 5.80005H11.5906L11.7906 5.80317C11.9312 5.80317 11.7906 5.83442 11.7906 5.91567C11.7906 5.9688 11.8625 6.0063 11.8687 6.05005C11.8687 6.10005 11.7688 6.1313 11.7656 6.19067C11.7656 6.24067 11.8688 6.2438 11.8656 6.2938C11.8594 6.37192 11.7719 6.39067 11.7719 6.44067C11.775 6.48755 11.8875 6.5063 11.8875 6.5438L11.8719 8.4438C11.6937 9.37505 10.6563 9.60942 10.3656 8.38755Z" fill="#FF0000" stroke="black" stroke-width="0.125" stroke-linejoin="round"/>
<path fill-rule="evenodd" clip-rule="evenodd" d="M9.42817 9.2375H10.5938C10.6032 9.22813 10.3313 8.83125 10.0125 8.8625C9.65317 8.87188 9.40942 9.2375 9.42817 9.2375ZM13.1438 9.20625H11.55C11.55 9.20625 11.7563 9.0875 11.8125 8.975C11.9157 9.03125 11.8875 9.0875 12.0938 9.09688C12.3 9.10625 12.4969 8.8625 12.6938 8.87187C12.8907 8.88125 13.1438 9.21563 13.1438 9.20938V9.20625ZM6.86255 9.20625H8.4563C8.4563 9.20625 8.25005 9.0875 8.1938 8.975C8.09067 9.03125 8.1188 9.0875 7.91255 9.09688C7.7063 9.10625 7.5063 8.8625 7.31255 8.87187C7.11567 8.88125 6.86255 9.21563 6.86255 9.20938V9.20625ZM6.9813 8.70625L8.11567 8.71562C8.11567 8.71562 8.0438 8.55937 8.03442 8.36875C7.74067 8.26875 7.50317 8.5875 7.29067 8.59688C7.0813 8.60625 6.86255 8.36875 6.86255 8.36875L6.9813 8.70625ZM13.0438 8.70625L11.9063 8.71562C11.9063 8.71562 11.9782 8.55937 11.9875 8.36875C12.2813 8.26875 12.5188 8.5875 12.7313 8.59688C12.9407 8.60625 13.1594 8.36875 13.1594 8.36875L13.0407 8.70625H13.0438ZM9.7188 8.71875L10.2938 8.70312C10.2938 8.70312 10.3032 8.52812 10.0032 8.52812C9.70317 8.52812 9.72817 8.72813 9.7188 8.71875ZM9.3688 8.47188C9.47855 8.42386 9.56885 8.34017 9.62505 8.23438L9.2313 8.24375C9.2313 8.24375 9.05005 8.35313 8.95942 8.47188H9.3688ZM10.6438 8.47188C10.534 8.42386 10.4437 8.34017 10.3875 8.23438L10.7813 8.24375C10.7813 8.24375 10.9625 8.35313 11.0532 8.47188H10.6438Z" fill="#083D9C" stroke="#083D9C" stroke-width="0.133333"/>
<path fill-rule="evenodd" clip-rule="evenodd" d="M-1.25 11.25H21.25V15H-1.25V11.25ZM-1.25 0H21.25V3.75H-1.25V0Z" fill="#DE2010"/>
</g>
</g>
<defs>
<clipPath id="clip0_14_381">
<rect width="20" height="15" fill="white"/>
</clipPath>
</defs>
</svg>
