<svg width="20" height="15" viewBox="0 0 20 15" fill="none" xmlns="http://www.w3.org/2000/svg">
<mask id="mask0_1825_43947" style="mask-type:luminance" maskUnits="userSpaceOnUse" x="0" y="0" width="20" height="15">
<rect width="20" height="15" fill="white"/>
</mask>
<g mask="url(#mask0_1825_43947)">
<path fill-rule="evenodd" clip-rule="evenodd" d="M0 0V15H20V0H0Z" fill="#F7FCFF"/>
<mask id="mask1_1825_43947" style="mask-type:luminance" maskUnits="userSpaceOnUse" x="0" y="0" width="20" height="15">
<path fill-rule="evenodd" clip-rule="evenodd" d="M0 0V15H20V0H0Z" fill="white"/>
</mask>
<g mask="url(#mask1_1825_43947)">
<path fill-rule="evenodd" clip-rule="evenodd" d="M0 0V3.75H20V0H0Z" fill="#BF2714"/>
<path fill-rule="evenodd" clip-rule="evenodd" d="M0 11.25V15H20V11.25H0Z" fill="#BF2714"/>
<mask id="mask2_1825_43947" style="mask-type:luminance" maskUnits="userSpaceOnUse" x="6" y="3" width="8" height="9">
<path fill-rule="evenodd" clip-rule="evenodd" d="M10 11.25C12.0711 11.25 13.75 9.57107 13.75 7.5C13.75 5.42893 12.0711 3.75 10 3.75C7.92893 3.75 6.25 5.42893 6.25 7.5C6.25 9.57107 7.92893 11.25 10 11.25Z" fill="white"/>
</mask>
<g mask="url(#mask2_1825_43947)">
<path fill-rule="evenodd" clip-rule="evenodd" d="M6.59308 8.60299C6.55887 8.49583 6.67462 8.40279 6.77192 8.45926L7.00548 8.59479C7.04032 8.61501 7.08285 8.61688 7.11933 8.5998L7.69586 8.32985C7.73628 8.31093 7.78377 8.31539 7.81995 8.3415L8.44276 8.791L9.30367 8.32748C9.33685 8.30962 9.37638 8.30796 9.41094 8.32297L10.0593 8.60464C10.0921 8.61888 10.1295 8.61815 10.1617 8.60266L10.7433 8.32265C10.7744 8.3077 10.8103 8.30647 10.8423 8.31925L11.5619 8.60671C11.5944 8.61966 11.6308 8.61822 11.6621 8.60273L12.2195 8.32695C12.2548 8.30951 12.2962 8.30999 12.3311 8.32823L12.8424 8.59598C12.8794 8.61536 12.9237 8.61463 12.96 8.59404L13.2259 8.44341C13.3207 8.38972 13.4333 8.47669 13.4053 8.58197L13.3498 8.791H6.6531L6.59308 8.60299Z" fill="#5277B9"/>
<path fill-rule="evenodd" clip-rule="evenodd" d="M6.59074 9.34414C6.55753 9.23631 6.67493 9.14443 6.77161 9.20258L6.9841 9.33039C7.01972 9.35181 7.06376 9.35379 7.10115 9.33564L7.64942 9.06956C7.6908 9.04948 7.73992 9.05417 7.77675 9.08172L8.37422 9.52867L9.20151 9.067C9.23549 9.04804 9.27643 9.04628 9.31191 9.06226L9.9305 9.34079C9.96416 9.35594 10.0028 9.35517 10.0359 9.33869L10.5907 9.06188C10.6225 9.04599 10.6597 9.04468 10.6926 9.0583L11.3802 9.34298C11.4135 9.35678 11.4512 9.35525 11.4833 9.33879L12.0144 9.06647C12.0505 9.04794 12.0935 9.04845 12.1292 9.06781L12.6152 9.33161C12.653 9.35217 12.6989 9.3514 12.7361 9.32958L12.9799 9.18642C13.0742 9.13107 13.1884 9.21708 13.1612 9.32299L13.1085 9.52867H6.64758L6.59074 9.34414Z" fill="#5277B9"/>
<path fill-rule="evenodd" clip-rule="evenodd" d="M6.71379 9.83596C6.68057 9.72813 6.79798 9.63625 6.89466 9.6944L7.10715 9.82221C7.14277 9.84363 7.1868 9.84561 7.2242 9.82746L7.77247 9.56138C7.81384 9.5413 7.86297 9.54599 7.8998 9.57354L8.49727 10.0205L9.32456 9.55882C9.35853 9.53986 9.39948 9.5381 9.43495 9.55408L10.0535 9.83261C10.0872 9.84776 10.1259 9.847 10.1589 9.83052L10.7137 9.55371C10.7456 9.53781 10.7827 9.53651 10.8156 9.55012L11.5032 9.8348C11.5366 9.8486 11.5743 9.84707 11.6064 9.83061L12.1374 9.55829C12.1736 9.53976 12.2165 9.54027 12.2522 9.55964L12.7382 9.82343C12.7761 9.84399 12.822 9.84322 12.8591 9.8214L13.1029 9.67824C13.1972 9.62289 13.3114 9.7089 13.2843 9.81481L13.2315 10.0205H6.77062L6.71379 9.83596Z" fill="#5277B9"/>
<path fill-rule="evenodd" clip-rule="evenodd" d="M7.45109 10.3278C7.41788 10.22 7.53528 10.1281 7.63196 10.1862L7.84445 10.314C7.88007 10.3355 7.92411 10.3374 7.9615 10.3193L8.50977 10.0532C8.55115 10.0331 8.60027 10.0378 8.6371 10.0654L9.23457 10.5123L10.0619 10.0506C10.0958 10.0317 10.1368 10.0299 10.1723 10.0459L10.7909 10.3244C10.8245 10.3396 10.8632 10.3388 10.8962 10.3223L11.451 10.0455C11.4829 10.0296 11.5201 10.0283 11.5529 10.0419L12.2405 10.3266C12.2739 10.3404 12.3116 10.3389 12.3437 10.3224L12.8748 10.0501C12.9109 10.0316 12.9538 10.0321 12.9895 10.0515L13.4755 10.3153C13.5134 10.3358 13.5593 10.335 13.5964 10.3132L13.8402 10.1701C13.9345 10.1147 14.0487 10.2007 14.0216 10.3066L13.9688 10.5123H7.50793L7.45109 10.3278Z" fill="#5277B9"/>
<path fill-rule="evenodd" clip-rule="evenodd" d="M6.46769 10.9425C6.43448 10.8347 6.55189 10.7428 6.64857 10.801L6.86105 10.9288C6.89667 10.9502 6.94071 10.9522 6.97811 10.934L7.52637 10.6679C7.56775 10.6479 7.61688 10.6526 7.6537 10.6801L8.25118 11.1271L9.07846 10.6654C9.11244 10.6464 9.15338 10.6447 9.18886 10.6606L9.80745 10.9392C9.84111 10.9543 9.8798 10.9536 9.91282 10.9371L10.4676 10.6603C10.4995 10.6444 10.5367 10.6431 10.5695 10.6567L11.2571 10.9414C11.2905 10.9552 11.3282 10.9536 11.3603 10.9372L11.8914 10.6649C11.9275 10.6463 11.9704 10.6468 12.0061 10.6662L12.4921 10.93C12.53 10.9506 12.5759 10.9498 12.613 10.928L12.8568 10.7848C12.9511 10.7295 13.0653 10.8155 13.0382 10.9214L12.9854 11.1271H6.52453L6.46769 10.9425Z" fill="#5277B9"/>
<path d="M7.91699 5.90369H8.54199L8.52751 8.37375C8.63244 8.70632 8.78214 8.83626 9.01406 8.83626V9.46126C8.48636 9.46126 8.11301 9.1372 7.91699 8.46778V5.90369Z" fill="#FF0000"/>
<path d="M12.1421 5.90369H11.5171L11.5316 8.37375C11.4266 8.70632 11.2769 8.83626 11.045 8.83626V9.46126C11.5727 9.46126 11.9461 9.1372 12.1421 8.46778V5.90369Z" fill="#FF0000"/>
<path fill-rule="evenodd" clip-rule="evenodd" d="M10.4528 4.31789C10.4528 4.31789 9.41602 4.04678 9.41602 4.73424C9.41602 5.42171 9.41602 6.89809 9.41602 6.89809L10.6247 7.25705V5.48842C10.6247 5.48842 10.0204 5.11913 10.0204 4.83034C10.0204 4.54155 10.4528 4.31789 10.4528 4.31789Z" fill="#FF0000"/>
<path d="M8.7085 8.05669L9.10268 7.55298" stroke="black" stroke-width="0.625"/>
<path d="M9.06812 8.04004L8.69043 7.53333" stroke="black" stroke-width="0.625"/>
<path d="M9.27393 8.05669L9.66811 7.55298" stroke="black" stroke-width="0.625"/>
<path d="M9.63355 8.04004L9.25586 7.53333" stroke="black" stroke-width="0.625"/>
<path d="M9.81494 8.05669L10.2091 7.55298" stroke="black" stroke-width="0.625"/>
<path d="M10.1746 8.04004L9.79688 7.53333" stroke="black" stroke-width="0.625"/>
<path d="M10.3804 8.05669L10.7746 7.55298" stroke="black" stroke-width="0.625"/>
<path d="M10.74 8.04004L10.3623 7.53333" stroke="black" stroke-width="0.625"/>
<path d="M10.9463 8.05669L11.3405 7.55298" stroke="black" stroke-width="0.625"/>
<path d="M11.3059 8.04004L10.9282 7.53333" stroke="black" stroke-width="0.625"/>
<path fill-rule="evenodd" clip-rule="evenodd" d="M8.40909 4.43423L9.15714 5.89565L9.24923 4.43423L9.15714 4.14636L8.40909 4.43423ZM8.03435 5.68136L7.49541 5.10993L8.03435 4.46771L9.16713 6.27855V6.73883L8.62244 6.27855V5.68136H8.03435ZM6.84787 6.1216L7.83089 6.59221L7.90769 5.86514L7.08926 5.16583L6.84787 6.1216ZM7.88048 7.32848L6.58742 7.19621V6.28427L7.88048 6.78165V7.32848ZM6.55239 8.22426L6.39893 7.44883L7.85643 7.52151V8.22426H6.55239ZM8.60458 6.95015V6.51247L9.14967 6.95015L9.09051 7.18125L8.60458 6.95015ZM13.6755 7.44883L13.522 8.22426H12.218V7.52151L13.6755 7.44883ZM12.1939 7.32848L13.487 7.19621V6.28427L12.1939 6.78165V7.32848ZM13.2265 6.1216L12.2435 6.59221L12.1667 5.86514L12.9851 5.16583L13.2265 6.1216ZM12.04 5.68136L12.579 5.10993L12.04 4.46771L10.9072 6.27855V6.73883L11.4519 6.27855V5.68136H12.04ZM11.6653 4.43423L10.9172 5.89565L10.8252 4.43423L10.9172 4.14636L11.6653 4.43423ZM11.4698 6.95015V6.51247L10.9247 6.95015L10.9839 7.18125L11.4698 6.95015Z" fill="#FA8F21"/>
</g>
</g>
</g>
</svg>
