<svg width="20" height="15" viewBox="0 0 20 15" fill="none" xmlns="http://www.w3.org/2000/svg">
<g clip-path="url(#clip0_14_317)">
<path fill-rule="evenodd" clip-rule="evenodd" d="M0.0499878 0L0.0343628 15H20.0344L0.0499878 0Z" fill="black"/>
<path fill-rule="evenodd" clip-rule="evenodd" d="M20.0187 15L20.0344 0H0.0343628L20.0187 15Z" fill="#FF0000"/>
<path d="M12.3825 3.73266L12.1189 3.71884C12.0357 3.52529 11.8067 3.45617 11.6611 3.53912C11.3928 3.53917 11.1245 3.53456 10.8564 3.52529L11.3489 3.73958C11.4807 4.07828 11.8969 4.1474 11.8969 4.1474C11.8553 4.75569 11.2795 4.07137 10.7939 4.41698C10.4471 4.62435 10.4471 4.86628 10.2598 5.2672C10.1973 5.37779 9.95453 5.66811 9.95453 5.66811L10.3638 5.63355L10.232 5.80636L10.7176 5.73723L10.6136 5.83401C10.6829 5.84783 11.1685 5.7165 11.1685 5.7165L11.1338 5.87548L11.6888 5.67502C11.6888 5.67502 11.7998 5.76488 11.8969 5.80636L11.9663 5.52987L12.2438 5.59899L12.3132 5.3225C12.7294 5.87548 12.8681 6.42847 13.6312 6.56671L13.5618 6.29022C13.7647 6.37872 13.9659 6.47089 14.1654 6.56671L14.2278 6.4492C14.5608 6.68422 14.8313 6.67731 15.0187 6.70496L14.8799 6.35934L15.0187 6.42847L14.8105 5.87548L15.0187 5.9446L14.7412 5.52987L14.8452 5.46074L14.8105 5.25337C15.2268 5.39162 15.7817 5.59899 15.8511 6.08285C15.9205 6.8432 15.088 7.05057 14.5331 6.98145C14.9493 7.32707 15.7124 7.18882 16.0592 6.8432C16.198 6.70496 16.2673 6.49759 16.3367 6.29022C16.4061 6.49759 16.5448 6.77408 16.5448 7.05057C16.4755 7.67268 15.643 7.88005 15.088 7.94917C15.7124 8.29479 16.8223 7.88005 16.8917 6.98145C16.8917 6.2211 16.4061 5.87548 16.198 5.52987L16.1286 5.1566L16.3367 5.25337C16.3367 5.25337 16.2118 5.02527 16.198 4.97688C16.198 4.97688 15.9829 4.38933 15.9066 4.258L16.0592 4.28565L15.4904 3.57368L15.6499 3.55986C15.6499 3.55986 14.9909 3.04143 14.8105 2.97231L15.0187 2.90319C14.6024 2.69582 14.1168 2.83406 13.7006 3.11056L13.77 2.90319L13.6451 2.91701V2.67508L13.77 2.48845L13.5618 2.41932L13.7006 2.07371L13.4925 2.14283L13.5618 1.79722C13.5618 1.79722 13.4092 1.86634 13.3121 1.85943C13.352 1.78245 13.389 1.70406 13.4231 1.62441C13.3537 1.52072 13.4231 1.31335 13.4231 1.31335C12.9375 1.38248 12.8681 1.4516 12.5906 1.86634C12.1744 2.62669 12.3132 2.97231 12.3825 3.73266Z" fill="#FFCC00" stroke="#FFCC00" stroke-width="0.121875"/>
<path fill-rule="evenodd" clip-rule="evenodd" d="M15.0048 4.86621C15.0394 4.92842 15.4349 5.11505 15.7262 5.28095C15.6499 4.96298 15.0741 4.89386 15.0048 4.86621Z" fill="#FF0000" stroke="#FF0000" stroke-width="0.155114"/>
<path fill-rule="evenodd" clip-rule="evenodd" d="M5.46877 12.4688L5.02502 12.1875L4.43127 12.4719L4.56565 11.9656L4.11252 11.4938L4.6344 11.4625L4.9469 10.8875L5.13752 11.3719L5.7844 11.4907L5.37815 11.8219L5.46877 12.4688ZM6.60002 10L6.39377 9.90627L6.1969 10.0188L6.22815 9.79377L6.0594 9.64065L6.28127 9.60003L6.37502 9.39378L6.4844 9.59377L6.7094 9.61877L6.55315 9.78127L6.60002 10ZM7.60002 8.58752L7.1469 8.36877L6.71252 8.61252L6.7844 8.1219L6.41565 7.7844L6.90627 7.6969L7.11252 7.2469L7.35002 7.6844L7.84377 7.74065L7.50002 8.10003L7.60002 8.58752ZM5.54377 6.61877L5.01252 6.35315L4.4969 6.63752L4.5844 6.05627L4.15315 5.65002L4.73752 5.55627L4.98752 5.02502L5.2594 5.5469L5.8469 5.61877L5.43127 6.03752L5.54377 6.61877ZM3.64377 8.66253L3.11252 8.35003L2.58127 8.6719L2.71565 8.06878L2.24377 7.66252L2.8594 7.60627L3.10002 7.0344L3.3469 7.60315L3.96565 7.65315L3.50002 8.0594L3.64377 8.66253Z" fill="white"/>
</g>
<defs>
<clipPath id="clip0_14_317">
<rect width="20" height="15" fill="white"/>
</clipPath>
</defs>
</svg>
