<svg width="20" height="15" viewBox="0 0 20 15" fill="none" xmlns="http://www.w3.org/2000/svg">
<mask id="mask0_1825_43996" style="mask-type:luminance" maskUnits="userSpaceOnUse" x="0" y="0" width="20" height="15">
<rect width="20" height="15" fill="white"/>
</mask>
<g mask="url(#mask0_1825_43996)">
<rect width="20" height="15" rx="1.25" fill="#E11C1B"/>
<path fill-rule="evenodd" clip-rule="evenodd" d="M0 0L20 15H0V0Z" fill="#1D1D1D"/>
<path fill-rule="evenodd" clip-rule="evenodd" d="M4.42725 11.4178H5.25963L5.6555 10.4845L6.1208 11.4115L6.97363 11.4582L6.24479 12.2514L6.61902 13.2071L5.6926 12.6751L4.83711 13.2119L5.15982 12.284L4.42725 11.4178Z" fill="#EEEEF6"/>
<path fill-rule="evenodd" clip-rule="evenodd" d="M1.92725 8.9178H2.75963L3.1555 7.9845L3.6208 8.91152L4.47363 8.95816L3.74479 9.75144L4.11902 10.7071L3.1926 10.1751L2.33711 10.7119L2.65982 9.78397L1.92725 8.9178Z" fill="#EEEEF6"/>
<path fill-rule="evenodd" clip-rule="evenodd" d="M4.42725 7.6678H5.25963L5.6555 6.7345L6.1208 7.66152L6.97363 7.70816L6.24479 8.50144L6.61902 9.45711L5.6926 8.92513L4.83711 9.46187L5.15982 8.53397L4.42725 7.6678Z" fill="#EEEEF6"/>
<path fill-rule="evenodd" clip-rule="evenodd" d="M6.06982 10.3527L6.642 10.3337L6.84854 9.74353L7.08042 10.3305L7.60692 10.3811L7.13281 10.7163L7.51519 11.3099L6.85178 11.0618L6.2768 11.3179L6.58044 10.7327L6.06982 10.3527Z" fill="#EEEEF6"/>
<path fill-rule="evenodd" clip-rule="evenodd" d="M7.31982 9.10268L7.892 9.08366L8.09854 8.49353L8.33042 9.08051L8.85692 9.13112L8.38281 9.46634L8.76519 10.0599L8.10178 9.8118L7.5268 10.0679L7.83044 9.48265L7.31982 9.10268Z" fill="#EEEEF6"/>
<path fill-rule="evenodd" clip-rule="evenodd" d="M13.1774 1.25C13.1774 1.25 11.2469 1.63512 11.7887 4.31865H11.5133C11.5133 4.31865 11.5359 4.17862 11.2711 4.09652C11.0063 4.01441 11.0593 4.04524 10.9227 4.09652C10.786 4.1478 9.95467 4.09652 9.95467 4.09652V4.19924L10.543 4.45332C10.543 4.45332 10.5285 4.66488 10.7744 4.78211C11.0204 4.89934 11.1989 4.95583 11.1989 4.95583C11.1989 4.95583 11.2353 5.18928 11.0049 5.18928C10.7744 5.18928 9.84749 4.88882 9.51782 5.62702C9.18815 6.36522 8.75 6.90685 8.75 6.90685H9.24432L9.11167 7.07169H9.66828L9.51782 7.15709C9.51782 7.15709 10.2064 7.14944 10.2601 7.07169C10.3138 6.99395 10.2601 7.28246 10.2601 7.28246C10.2601 7.28246 10.9272 6.97784 10.9637 6.90685L11.2751 7.12043L11.3638 6.759L11.6978 6.90685L11.7887 6.56248C11.7887 6.56248 12.7338 8.14299 13.4506 8.05228V7.78997L14.1047 8.05228L14.1877 7.93563C14.1877 7.93563 14.9779 8.25783 15.2211 8.2877L15.0476 7.93563H15.2211L15.0476 7.28246H15.2211L14.8741 6.759L14.9713 6.61727L14.907 6.43101C14.907 6.43101 16.1792 6.83627 16.1218 7.48105C16.0644 8.12583 15.4978 8.38601 15.4978 8.38601C15.4978 8.38601 14.9545 8.55245 14.4638 8.51664C14.4638 8.51664 14.8533 8.97679 15.6776 8.82088C16.5018 8.66496 16.775 7.86575 16.775 7.86575C16.775 7.86575 17.153 8.65077 16.8418 9.06352C16.5307 9.47628 15.1454 9.76607 15.1454 9.76607C15.1454 9.76607 15.6466 10.0599 16.1218 9.98464C16.597 9.90934 17.336 9.49573 17.4793 8.82088C17.6226 8.14602 16.985 6.90074 16.6962 6.759L16.5822 6.32696L16.8418 6.43101L16.3091 5.12822L16.5674 5.18482L15.8137 4.24723L16.0212 4.1833L14.9799 3.43479L15.2915 3.35247C15.2915 3.35247 14.5218 2.96241 13.6438 3.43479L13.6521 3.27159L13.4214 3.3106L13.435 3.13108L13.6644 2.78364L13.3201 2.65099C13.3201 2.65099 13.5984 2.23292 13.5566 2.23866C13.5566 2.23866 13.2465 2.32767 13.2641 2.29037C13.2641 2.29037 13.4205 1.88744 13.3794 1.89823C13.3794 1.89823 13.0197 2.02056 13.0729 1.95934L13.2111 1.71319L13.1774 1.25Z" fill="#FBCD17"/>
</g>
</svg>
