<svg width="20" height="15" viewBox="0 0 20 15" fill="none" xmlns="http://www.w3.org/2000/svg">
<mask id="mask0_1825_44010" style="mask-type:luminance" maskUnits="userSpaceOnUse" x="0" y="0" width="20" height="15">
<rect width="20" height="15" fill="white"/>
</mask>
<g mask="url(#mask0_1825_44010)">
<path fill-rule="evenodd" clip-rule="evenodd" d="M0 0V15H20V0H0Z" fill="#BF2714"/>
<mask id="mask1_1825_44010" style="mask-type:luminance" maskUnits="userSpaceOnUse" x="0" y="0" width="20" height="15">
<path fill-rule="evenodd" clip-rule="evenodd" d="M0 0V15H20V0H0Z" fill="white"/>
</mask>
<g mask="url(#mask1_1825_44010)">
<path fill-rule="evenodd" clip-rule="evenodd" d="M0 -1.25V7.5H20V-1.25H0Z" fill="#3D58DB"/>
</g>
<path fill-rule="evenodd" clip-rule="evenodd" d="M0 0V15L11.25 7.5L0 0Z" fill="#F7FCFF"/>
<mask id="mask2_1825_44010" style="mask-type:luminance" maskUnits="userSpaceOnUse" x="0" y="0" width="12" height="15">
<path fill-rule="evenodd" clip-rule="evenodd" d="M0 0V15L11.25 7.5L0 0Z" fill="white"/>
</mask>
<g mask="url(#mask2_1825_44010)">
<path fill-rule="evenodd" clip-rule="evenodd" d="M8.50303 6.82507L9.30046 7.13259L9.7749 6.57426L9.78748 7.32098L10.5214 7.5597L9.7489 7.82191L9.79981 8.5081L9.29101 7.98246L8.49124 8.13458L8.96342 7.52918L8.50303 6.82507Z" fill="#FECA00"/>
<path fill-rule="evenodd" clip-rule="evenodd" d="M1.00303 10.5751L1.73601 10.8991L2.2749 10.3243L2.22304 11.0875L3.0214 11.3097L2.18445 11.5885L2.29981 12.2581L1.71708 11.7796L0.991243 11.8846L1.39898 11.2957L1.00303 10.5751Z" fill="#FECA00"/>
<path fill-rule="evenodd" clip-rule="evenodd" d="M1.00303 3.07507L1.81413 3.37396L2.2749 2.82426L2.30116 3.56235L3.0214 3.8097L2.26257 4.06328L2.29981 4.7581L1.7952 4.25443L0.991243 4.38458L1.4771 3.77055L1.00303 3.07507Z" fill="#FECA00"/>
<path fill-rule="evenodd" clip-rule="evenodd" d="M5.07617 9.08301C5.93912 9.08301 6.63867 8.38345 6.63867 7.52051C6.63867 6.65756 5.93912 5.95801 5.07617 5.95801C4.21323 5.95801 3.51367 6.65756 3.51367 7.52051C3.51367 8.38345 4.21323 9.08301 5.07617 9.08301Z" fill="#FECA00"/>
<path fill-rule="evenodd" clip-rule="evenodd" d="M4.89104 5.14987L4.97501 6.15362C4.98303 6.21458 5.02993 6.26314 5.09056 6.27329C5.16673 6.28604 5.23882 6.23462 5.25157 6.15845L5.36239 5.1581C5.36433 5.14647 5.36541 5.13471 5.36562 5.12291C5.36792 4.99131 5.26309 4.88276 5.13149 4.88046C5.1197 4.88026 5.1079 4.88093 5.09621 4.88247C4.96571 4.89966 4.87386 5.01938 4.89104 5.14987ZM4.62973 5.63498L4.75949 6.07162C4.77153 6.11216 4.81201 6.13725 4.85779 6.12918C4.89532 6.12031 4.91855 6.0827 4.90968 6.04518L4.80612 5.60695C4.79421 5.55656 4.74539 5.52393 4.69427 5.5322C4.69085 5.53275 4.68748 5.53352 4.68416 5.53451C4.64139 5.54722 4.61701 5.5922 4.62973 5.63498ZM5.33149 6.08982C5.32132 6.12701 5.34322 6.16541 5.3845 6.17657C5.42589 6.18525 5.46722 6.16158 5.48067 6.12149L5.62559 5.68964C5.63978 5.64733 5.617 5.60153 5.57469 5.58733C5.57141 5.58623 5.56807 5.58534 5.56467 5.58467C5.51387 5.57462 5.46394 5.60553 5.45028 5.65548L5.33149 6.08982ZM6.62969 5.65096L5.93112 6.42234C5.89369 6.47112 5.89252 6.53862 5.92821 6.58867C5.97306 6.65155 6.06039 6.66616 6.12326 6.62132L6.95716 5.99007C6.96676 5.98322 6.97584 5.97567 6.98433 5.96748C7.07901 5.87604 7.08164 5.72517 6.99021 5.63048C6.98202 5.622 6.9732 5.61413 6.96385 5.60695C6.85942 5.52683 6.70981 5.54654 6.62969 5.65096ZM6.41718 7.28843L7.46027 7.2077C7.59077 7.19051 7.71049 7.28237 7.72768 7.41287C7.72922 7.42456 7.72989 7.43635 7.72968 7.44815C7.72739 7.57975 7.61884 7.68458 7.48723 7.68228C7.47544 7.68207 7.46368 7.68099 7.45205 7.67904L6.41235 7.56499C6.33618 7.55224 6.28476 7.48016 6.29751 7.40399C6.30766 7.34335 6.35622 7.29646 6.41718 7.28843ZM6.95853 8.9498L6.14846 8.24454C6.09968 8.20712 6.03219 8.20594 5.98213 8.24164C5.91926 8.28648 5.90464 8.37381 5.94948 8.43669L6.61943 9.27727C6.62628 9.28687 6.63383 9.29595 6.64202 9.30444C6.73346 9.39912 6.88433 9.40175 6.97902 9.31032C6.9875 9.30213 6.99536 9.29332 7.00254 9.28396C7.08267 9.17953 7.06296 9.02992 6.95853 8.9498ZM5.28237 8.7306L5.34422 9.78374C5.3614 9.91424 5.26955 10.034 5.13905 10.0511C5.12736 10.0527 5.11557 10.0534 5.10377 10.0532C4.97217 10.0509 4.86734 9.94231 4.86964 9.8107C4.86985 9.79891 4.87093 9.78715 4.87287 9.77551L5.00581 8.72577C5.01856 8.6496 5.09064 8.59819 5.16681 8.61094C5.22745 8.62109 5.27434 8.66965 5.28237 8.7306ZM3.63795 9.29955L4.32626 8.46188C4.36368 8.41311 4.36486 8.34561 4.32916 8.29556C4.28432 8.23268 4.19699 8.21806 4.13411 8.26291L3.31048 8.96045C3.30087 8.96729 3.29179 8.97485 3.28331 8.98304C3.18863 9.07447 3.18599 9.22535 3.27743 9.32003C3.28562 9.32852 3.29443 9.33638 3.30379 9.34356C3.40822 9.42369 3.55783 9.40398 3.63795 9.29955ZM3.8402 7.59579L2.7907 7.68228C2.6602 7.69947 2.54048 7.60761 2.52329 7.47711C2.52175 7.46542 2.52108 7.45363 2.52128 7.44183C2.52358 7.31023 2.63213 7.2054 2.76373 7.2077C2.77553 7.20791 2.78729 7.20899 2.79892 7.21094L3.84503 7.31923C3.9212 7.33198 3.97261 7.40407 3.95986 7.48024C3.94971 7.54087 3.90115 7.58777 3.8402 7.59579ZM3.21878 5.95137L4.10892 6.63968C4.1577 6.67711 4.22519 6.67828 4.27524 6.64259C4.33812 6.59774 4.35274 6.51041 4.30789 6.44754L3.55788 5.6239C3.55103 5.6143 3.54348 5.60522 3.53529 5.59673C3.44386 5.50205 3.29298 5.49942 3.1983 5.59085C3.18981 5.59904 3.18195 5.60786 3.17477 5.61721C3.09464 5.72164 3.11435 5.87125 3.21878 5.95137ZM5.83671 6.21196L6.05371 5.81145C6.07496 5.77222 6.124 5.75765 6.16324 5.7789C6.16628 5.78055 6.16921 5.78239 6.17202 5.78442C6.21402 5.81472 6.22547 5.87231 6.19825 5.91637L5.96161 6.29947C5.94134 6.33227 5.89832 6.34244 5.86552 6.32217C5.82744 6.29551 5.81656 6.24914 5.83671 6.21196ZM6.93582 6.94315L6.49918 7.07291C6.45865 7.08495 6.43355 7.12543 6.44162 7.17121C6.45049 7.20874 6.4881 7.23197 6.52563 7.2231L6.96385 7.11955C7.01424 7.10764 7.04687 7.05881 7.0386 7.00769C7.03805 7.00428 7.03728 7.0009 7.03629 6.99758C7.02358 6.95481 6.9786 6.93044 6.93582 6.94315ZM6.35884 8.15013L6.75935 8.36713C6.79858 8.38839 6.81315 8.43743 6.7919 8.47666C6.79025 8.4797 6.78841 8.48264 6.78638 8.48544C6.75609 8.52744 6.69849 8.53889 6.65443 8.51168L6.27133 8.27503C6.23853 8.25477 6.22836 8.21175 6.24863 8.17894C6.27529 8.14086 6.32166 8.12999 6.35884 8.15013ZM5.62765 9.24925L5.49789 8.8126C5.48585 8.77207 5.44537 8.74697 5.39959 8.75504C5.36206 8.76391 5.33883 8.80152 5.3477 8.83905L5.45125 9.27727C5.46316 9.32767 5.51199 9.3603 5.56311 9.35202C5.56652 9.35147 5.5699 9.3507 5.57322 9.34972C5.61599 9.337 5.64036 9.29202 5.62765 9.24925ZM4.42067 8.67226L4.20367 9.07277C4.18241 9.112 4.13337 9.12658 4.09414 9.10532C4.0911 9.10367 4.08816 9.10183 4.08536 9.09981C4.04336 9.06951 4.03191 9.01191 4.05912 8.96785L4.29577 8.58476C4.31603 8.55195 4.35905 8.54179 4.39186 8.56205C4.42994 8.58871 4.44082 8.63508 4.42067 8.67226ZM3.32155 7.94108L3.7582 7.81132C3.79873 7.79927 3.82383 7.75879 3.81576 7.71301C3.80689 7.67549 3.76928 7.65225 3.73175 7.66112L3.29353 7.76468C3.24313 7.77659 3.2105 7.82541 3.21878 7.87653C3.21933 7.87995 3.2201 7.88332 3.22109 7.88664C3.2338 7.92942 3.27878 7.95379 3.32155 7.94108ZM3.89854 6.7341L3.49803 6.51709C3.4588 6.49584 3.44422 6.4468 3.46548 6.40756C3.46713 6.40452 3.46897 6.40159 3.47099 6.39878C3.50129 6.35678 3.55889 6.34533 3.60295 6.37255L3.98604 6.60919C4.01885 6.62946 4.02902 6.67248 4.00875 6.70528C3.98209 6.74336 3.93572 6.75424 3.89854 6.7341ZM6.22831 6.6293C6.19481 6.6484 6.18315 6.69105 6.20445 6.72813C6.22758 6.76353 6.27354 6.77601 6.3114 6.75718L6.71924 6.55429C6.75919 6.53441 6.77546 6.48591 6.75559 6.44596C6.75405 6.44286 6.75231 6.43987 6.75038 6.43699C6.72157 6.39396 6.66441 6.38051 6.61943 6.40617L6.22831 6.6293ZM6.39423 7.69793C6.40539 7.65665 6.44379 7.63474 6.48098 7.64491L6.91532 7.7637C6.96527 7.77736 6.99618 7.8273 6.98613 7.8781C6.98546 7.88149 6.98457 7.88484 6.98347 7.88812C6.96927 7.93042 6.92347 7.95321 6.88116 7.93901L6.44931 7.79409C6.40922 7.78064 6.38555 7.73931 6.39423 7.69793ZM5.9415 8.54173C5.9224 8.50824 5.87975 8.49658 5.84268 8.51787C5.80727 8.541 5.79479 8.58696 5.81362 8.62482L6.01651 9.03266C6.03639 9.07261 6.08489 9.08889 6.12484 9.06901C6.12794 9.06747 6.13094 9.06573 6.13381 9.06381C6.17684 9.035 6.19029 8.97783 6.16463 8.93285L5.9415 8.54173ZM4.87287 8.70766C4.91415 8.71881 4.93606 8.75721 4.92589 8.79441L4.8071 9.22875C4.79344 9.2787 4.7435 9.30961 4.6927 9.29955C4.68931 9.29888 4.68596 9.29799 4.68268 9.29689C4.64038 9.28269 4.61759 9.23689 4.63179 9.19459L4.77671 8.76274C4.79016 8.72265 4.83149 8.69898 4.87287 8.70766ZM4.02907 8.25493C4.06256 8.23582 4.07422 8.19318 4.05293 8.1561C4.0298 8.1207 3.98384 8.10821 3.94598 8.12705L3.53814 8.32994C3.49819 8.34981 3.48191 8.39831 3.50179 8.43827C3.50333 8.44136 3.50507 8.44436 3.50699 8.44723C3.5358 8.49026 3.59297 8.50372 3.63795 8.47806L4.02907 8.25493ZM3.86314 7.1863C3.85199 7.22758 3.81359 7.24948 3.77639 7.23931L3.34205 7.12052C3.2921 7.10686 3.26119 7.05693 3.27125 7.00613C3.27192 7.00273 3.27281 6.99939 3.27391 6.99611C3.28811 6.9538 3.33391 6.93102 3.37621 6.94521L3.80807 7.09013C3.84815 7.10358 3.87182 7.14491 3.86314 7.1863ZM4.31587 6.34249C4.33498 6.37599 4.37762 6.38765 4.4147 6.36635C4.4501 6.34323 4.46259 6.29726 4.44375 6.2594L4.24086 5.85157C4.22099 5.81161 4.17249 5.79534 4.13253 5.81521C4.12944 5.81675 4.12644 5.81849 4.12357 5.82042C4.08054 5.84923 4.06708 5.90639 4.09274 5.95137L4.31587 6.34249Z" fill="#FECA00"/>
</g>
</g>
</svg>
