<svg width="20" height="15" viewBox="0 0 20 15" fill="none" xmlns="http://www.w3.org/2000/svg">
<g clip-path="url(#clip0_14_369)">
<path d="M8 0H20V15H8V0Z" fill="#FF0000"/>
<path d="M0 0H8V15H0V0Z" fill="#006600"/>
<path fill-rule="evenodd" clip-rule="evenodd" d="M10.6094 9.56873C9.6 9.53748 4.98437 6.65623 4.95312 6.19373L5.20625 5.77185C5.66563 6.43748 10.3844 9.2406 10.85 9.1406L10.6094 9.56873Z" fill="#FFFF00" stroke="black" stroke-width="0.03" stroke-linecap="round" stroke-linejoin="round"/>
<path fill-rule="evenodd" clip-rule="evenodd" d="M5.1531 5.71252C5.06247 5.95627 6.35935 6.75627 7.9156 7.70627C9.47497 8.65315 10.8187 9.23752 10.9156 9.15627L10.9625 9.06877C10.9437 9.10002 10.9 9.1094 10.8281 9.08752C10.4062 8.96565 9.30935 8.46252 7.94997 7.63752C6.58747 6.81252 5.40622 6.05315 5.22185 5.73127C5.20747 5.7011 5.20102 5.66776 5.2031 5.6344H5.19685L5.15935 5.70315L5.1531 5.71252ZM10.6312 9.58127C10.6156 9.61252 10.5812 9.61252 10.5218 9.60627C10.1468 9.56565 9.0031 9.0094 7.64997 8.20002C6.07497 7.25627 4.77497 6.40002 4.91872 6.17502L4.95622 6.10627L4.96247 6.1094C4.83747 6.49065 7.5281 8.02815 7.68747 8.12815C9.24372 9.09065 10.5562 9.65627 10.6718 9.5094L10.6312 9.58127Z" fill="#FFFF00" stroke="black" stroke-width="0.03" stroke-linecap="round" stroke-linejoin="round"/>
<path fill-rule="evenodd" clip-rule="evenodd" d="M8.00627 6.475C9.01252 6.46562 10.2563 6.3375 10.975 6.05L10.8188 5.8C10.3969 6.03438 9.1469 6.19063 7.9969 6.2125C6.64065 6.2 5.68127 6.07188 5.20002 5.75L5.05627 6.01875C5.93752 6.39375 6.84377 6.47187 8.00627 6.475Z" fill="#FFFF00" stroke="black" stroke-width="0.03" stroke-linecap="round" stroke-linejoin="round"/>
<path fill-rule="evenodd" clip-rule="evenodd" d="M11.0156 6.0563C10.9906 6.09692 10.5219 6.2563 9.83435 6.37505C9.2283 6.46689 8.61607 6.51181 8.0031 6.50942C7.41582 6.51163 6.82905 6.47404 6.24685 6.39692C5.52498 6.28442 5.1531 6.12817 5.01248 6.07192L5.04685 6.00317C5.44373 6.15942 5.81873 6.25317 6.25623 6.32192C6.83418 6.39996 7.41678 6.43859 7.99998 6.43755C8.60977 6.43819 9.21875 6.39327 9.82185 6.30317C10.525 6.18755 10.9094 6.04067 10.9656 5.97505L11.0156 6.05942V6.0563ZM10.8781 5.80317C10.8031 5.86567 10.4219 6.00005 9.7531 6.1063C9.17561 6.18985 8.59285 6.23162 8.00935 6.2313C7.32185 6.2313 6.75623 6.1813 6.3281 6.1188C5.64685 6.0313 5.28435 5.8688 5.1531 5.82505L5.19373 5.7563C5.29685 5.80942 5.64373 5.95005 6.33435 6.04692C6.88953 6.12129 7.44922 6.15679 8.00935 6.15317C8.58869 6.15335 9.16729 6.11158 9.7406 6.02817C10.4125 5.93442 10.775 5.76567 10.8312 5.72192L10.8781 5.80317ZM4.69685 7.68755C5.3156 8.02192 6.69373 8.18755 7.99685 8.20005C9.18435 8.20317 10.7281 8.0188 11.3062 7.71255L11.2906 7.37817C11.1093 7.65942 9.4531 7.9313 7.98435 7.92192C6.5156 7.90942 5.14998 7.68442 4.69373 7.39067V7.68755" fill="#FFFF00"/>
<path d="M4.69685 7.68755C5.3156 8.02192 6.69373 8.18755 7.99685 8.20005C9.18435 8.20317 10.7281 8.0188 11.3062 7.71255L11.2906 7.37817C11.1093 7.65942 9.4531 7.9313 7.98435 7.92192C6.5156 7.90942 5.14998 7.68442 4.69373 7.39067V7.68755M11.0156 6.0563C10.9906 6.09692 10.5219 6.2563 9.83435 6.37505C9.2283 6.46689 8.61607 6.51181 8.0031 6.50942C7.41582 6.51163 6.82905 6.47404 6.24685 6.39692C5.52498 6.28442 5.1531 6.12817 5.01248 6.07192L5.04685 6.00317C5.44373 6.15942 5.81873 6.25317 6.25623 6.32192C6.83418 6.39996 7.41678 6.43859 7.99998 6.43755C8.60977 6.43819 9.21875 6.39327 9.82185 6.30317C10.525 6.18755 10.9094 6.04067 10.9656 5.97505L11.0156 6.05942V6.0563ZM10.8781 5.80317C10.8031 5.86567 10.4219 6.00005 9.7531 6.1063C9.17561 6.18985 8.59285 6.23162 8.00935 6.2313C7.32185 6.2313 6.75623 6.1813 6.3281 6.1188C5.64685 6.0313 5.28435 5.8688 5.1531 5.82505L5.19373 5.7563C5.29685 5.80942 5.64373 5.95005 6.33435 6.04692C6.88953 6.12129 7.44922 6.15679 8.00935 6.15317C8.58869 6.15335 9.16729 6.11158 9.7406 6.02817C10.4125 5.93442 10.775 5.76567 10.8312 5.72192L10.8781 5.80317Z" stroke="black" stroke-width="0.03" stroke-linecap="round" stroke-linejoin="round"/>
<path fill-rule="evenodd" clip-rule="evenodd" d="M11.3375 7.64067V7.7188C11.25 7.82505 10.7062 7.9813 10.025 8.0938C9.34819 8.19109 8.66499 8.23705 7.98125 8.2313C7.33291 8.23682 6.68512 8.1919 6.04375 8.09692C5.56517 8.04162 5.09753 7.91523 4.65625 7.72192V7.6313C4.95937 7.8313 5.77812 7.9813 6.05312 8.02505C6.54687 8.10005 7.18125 8.1563 7.98125 8.1563C8.82187 8.1563 9.49375 8.09692 10.0125 8.0188C10.5031 7.94692 11.2 7.76255 11.3375 7.64067ZM11.3375 7.35942V7.43755C11.25 7.54067 10.7062 7.69692 10.025 7.80942C9.34827 7.90776 8.66507 7.95476 7.98125 7.95005C7.33296 7.95386 6.6853 7.90895 6.04375 7.81567C5.56517 7.76037 5.09753 7.63398 4.65625 7.44067V7.34692C4.95937 7.55005 5.78125 7.69692 6.05312 7.74067C6.69151 7.83419 7.33607 7.87911 7.98125 7.87505C8.82187 7.87505 9.49687 7.81255 10.0125 7.73442C10.5031 7.66567 11.2 7.4813 11.3375 7.35942ZM7.99375 9.50942C6.56875 9.50317 5.34688 9.12192 5.0875 9.05942L5.275 9.35317C6.15153 9.66362 7.07648 9.81495 8.00625 9.80005C9.09063 9.7688 10.0375 9.68442 10.7031 9.35942L10.8969 9.05317C10.4438 9.2688 8.89687 9.50942 7.99062 9.50942" fill="#FFFF00"/>
<path d="M7.99375 9.50942C6.56875 9.50317 5.34688 9.12192 5.0875 9.05942L5.275 9.35317C6.15153 9.66362 7.07648 9.81495 8.00625 9.80005C9.09063 9.7688 10.0375 9.68442 10.7031 9.35942L10.8969 9.05317C10.4438 9.2688 8.89687 9.50942 7.99062 9.50942M11.3375 7.64067V7.7188C11.25 7.82505 10.7062 7.9813 10.025 8.0938C9.34819 8.19109 8.66499 8.23705 7.98125 8.2313C7.33291 8.23682 6.68512 8.1919 6.04375 8.09692C5.56517 8.04162 5.09753 7.91523 4.65625 7.72192V7.6313C4.95937 7.8313 5.77812 7.9813 6.05312 8.02505C6.54687 8.10005 7.18125 8.1563 7.98125 8.1563C8.82187 8.1563 9.49375 8.09692 10.0125 8.0188C10.5031 7.94692 11.2 7.76255 11.3375 7.64067ZM11.3375 7.35942V7.43755C11.25 7.54067 10.7062 7.69692 10.025 7.80942C9.34827 7.90776 8.66507 7.95476 7.98125 7.95005C7.33296 7.95386 6.6853 7.90895 6.04375 7.81567C5.56517 7.76037 5.09753 7.63398 4.65625 7.44067V7.34692C4.95937 7.55005 5.78125 7.69692 6.05312 7.74067C6.69151 7.83419 7.33607 7.87911 7.98125 7.87505C8.82187 7.87505 9.49687 7.81255 10.0125 7.73442C10.5031 7.66567 11.2 7.4813 11.3375 7.35942Z" stroke="black" stroke-width="0.03" stroke-linecap="round" stroke-linejoin="round"/>
<path fill-rule="evenodd" clip-rule="evenodd" d="M10.7781 9.2907C10.7497 9.33286 10.7205 9.37453 10.6906 9.4157C10.3781 9.5282 9.87812 9.64695 9.67187 9.6782C9.11843 9.78133 8.55672 9.83363 7.99375 9.83445C6.73125 9.8157 5.69688 9.56882 5.2125 9.35632L5.17187 9.2907L5.17812 9.2782L5.24375 9.30632C6.13314 9.60064 7.0632 9.75354 8 9.75945C8.5875 9.75945 9.17187 9.69382 9.64375 9.60945C10.3687 9.46257 10.6625 9.3532 10.7531 9.3032L10.775 9.2907H10.7781ZM10.9438 9.0157C10.9232 9.0523 10.9023 9.08876 10.8813 9.12507C10.7125 9.18757 10.2562 9.31882 9.59062 9.41257C9.15312 9.47195 8.88125 9.53132 8.00937 9.54695C7.01269 9.53694 6.02214 9.38973 5.06563 9.10945L5.03125 9.03132C6.00308 9.29991 7.00448 9.44687 8.0125 9.46882C8.80937 9.4532 9.15 9.39382 9.58438 9.33445C10.3594 9.2157 10.75 9.08445 10.8656 9.05007C10.8657 9.04799 10.8657 9.04591 10.8656 9.04382L10.9469 9.01257L10.9438 9.0157Z" fill="#FFFF00" stroke="black" stroke-width="0.03" stroke-linecap="round" stroke-linejoin="round"/>
<path fill-rule="evenodd" clip-rule="evenodd" d="M10.9625 7.425C10.9656 8.3625 10.4844 9.20625 10.1 9.575C9.53228 10.1287 8.77414 10.444 7.98123 10.4563C7.03436 10.4719 6.14373 9.85625 5.90311 9.58438C5.3648 9.01352 5.05843 8.26262 5.04373 7.47813C5.09998 6.45313 5.50311 5.74062 6.08436 5.25C6.64899 4.78518 7.35928 4.53403 8.09061 4.54063C8.51752 4.56132 8.9354 4.67097 9.31747 4.86255C9.69955 5.05412 10.0374 5.3234 10.3094 5.65312C10.7 6.12812 10.8719 6.64375 10.9625 7.425ZM7.98748 4.21875C8.8617 4.21873 9.70048 4.56429 10.321 5.1801C10.9415 5.79592 11.2934 6.63206 11.3 7.50625C11.3 7.94002 11.2145 8.36955 11.0485 8.7703C10.8825 9.17105 10.6392 9.53519 10.3325 9.84191C10.0258 10.1486 9.66166 10.3919 9.26091 10.5579C8.86015 10.7239 8.43063 10.8094 7.99686 10.8094C7.56308 10.8094 7.13356 10.7239 6.7328 10.5579C6.33205 10.3919 5.96792 10.1486 5.66119 9.84191C5.35447 9.53519 5.11116 9.17105 4.94517 8.7703C4.77917 8.36955 4.69373 7.94002 4.69373 7.50625C4.69061 5.69375 6.17186 4.21875 7.98748 4.21875Z" fill="#FFFF00" stroke="black" stroke-width="0.03" stroke-linecap="round" stroke-linejoin="round"/>
<path fill-rule="evenodd" clip-rule="evenodd" d="M7.99683 4.20312C9.81558 4.20312 11.2968 5.68438 11.2968 7.50313C11.2968 9.32188 9.81558 10.8031 7.99995 10.8031C6.18433 10.8031 4.69995 9.32188 4.69995 7.50313C4.69995 5.68438 6.1812 4.20312 7.99995 4.20312H7.99683ZM4.7687 7.5C4.7687 9.275 6.22808 10.7281 7.99683 10.7281C9.76558 10.7281 11.225 9.275 11.225 7.5C11.225 5.725 9.76558 4.27187 7.99683 4.27187C6.22808 4.27187 4.7687 5.725 4.7687 7.5Z" fill="#FFFF00" stroke="black" stroke-width="0.03" stroke-linecap="round" stroke-linejoin="round"/>
<path fill-rule="evenodd" clip-rule="evenodd" d="M8.00002 4.47815C8.80071 4.48062 9.5679 4.79979 10.1341 5.36597C10.7003 5.93214 11.0194 6.69933 11.0219 7.50002C11.0194 8.301 10.7004 9.06852 10.1343 9.63519C9.56819 10.2019 8.801 10.5217 8.00002 10.525C6.34377 10.525 4.97815 9.16252 4.97815 7.50002C4.98144 6.69959 5.30087 5.93287 5.86687 5.36687C6.43287 4.80087 7.19959 4.48144 8.00002 4.47815ZM5.05002 7.50002C5.05002 9.12502 6.38127 10.45 8.00002 10.45C9.61877 10.45 10.95 9.1219 10.95 7.50002C10.95 5.87502 9.61877 4.55002 8.00002 4.55002C7.21865 4.55331 6.47021 4.86517 5.91769 5.41769C5.36517 5.97021 5.05331 6.71865 5.05002 7.50002Z" fill="#FFFF00" stroke="black" stroke-width="0.03" stroke-linecap="round" stroke-linejoin="round"/>
<path fill-rule="evenodd" clip-rule="evenodd" d="M8.13435 4.1875H7.84998V10.8219H8.13123L8.13435 4.1875Z" fill="#FFFF00" stroke="black" stroke-width="0.03" stroke-linecap="round" stroke-linejoin="round"/>
<path fill-rule="evenodd" clip-rule="evenodd" d="M8.10315 4.15002H8.17502V10.8594H8.10627V4.15002H8.10315ZM7.8219 4.15002H7.8969V10.8594H7.82502V4.15002H7.8219Z" fill="#FFFF00" stroke="black" stroke-width="0.03" stroke-linecap="round" stroke-linejoin="round"/>
<path fill-rule="evenodd" clip-rule="evenodd" d="M11.3 7.63125V7.3875L11.1 7.2L9.96558 6.9L8.33433 6.73438L6.36558 6.83437L4.96558 7.16563L4.68433 7.375V7.62187L5.39995 7.3L7.09995 7.03438H8.73433L9.93433 7.16563L10.7656 7.36562L11.3 7.63125Z" fill="#FFFF00" stroke="black" stroke-width="0.03" stroke-linecap="round" stroke-linejoin="round"/>
<path fill-rule="evenodd" clip-rule="evenodd" d="M8 6.99379C8.77812 6.99379 9.53125 7.06566 10.1344 7.18129C10.7531 7.30629 11.1875 7.46254 11.3375 7.63441V7.72191C11.1562 7.50316 10.5719 7.34691 10.1187 7.25316C9.525 7.14066 8.775 7.06566 7.99687 7.06566C7.18125 7.06566 6.41875 7.14691 5.83125 7.25941C5.3625 7.35316 4.73437 7.54066 4.65625 7.72191V7.63129C4.69687 7.50629 5.16563 7.31879 5.82188 7.18441C6.4125 7.06879 7.175 6.99379 7.99687 6.99379H8ZM8 6.70941C8.71563 6.70798 9.42995 6.77073 10.1344 6.89691C10.7531 7.02191 11.1875 7.17816 11.3375 7.35316V7.43754C11.1562 7.22191 10.5719 7.06254 10.1187 6.97191C9.525 6.85629 8.775 6.78441 7.99687 6.78441C7.27161 6.78212 6.54768 6.84698 5.83437 6.97816C5.38125 7.06254 4.72812 7.25629 4.65625 7.43754V7.35004C4.7 7.22504 5.175 7.02816 5.82188 6.90316C6.41562 6.78754 7.175 6.70941 8 6.70941ZM7.98125 5.26566C9.20937 5.25941 10.2813 5.43754 10.7719 5.68754L10.95 6.00004C10.525 5.76879 9.36875 5.53129 7.98437 5.56254C6.85625 5.57191 5.65 5.68754 5.04687 6.01254L5.25938 5.65629C5.75625 5.39691 6.925 5.26566 7.98125 5.26566Z" fill="#FFFF00" stroke="black" stroke-width="0.03" stroke-linecap="round" stroke-linejoin="round"/>
<path fill-rule="evenodd" clip-rule="evenodd" d="M8.00002 5.52185C8.64125 5.51103 9.28221 5.55599 9.91565 5.65623C10.4156 5.74998 10.8938 5.88748 10.9625 5.96248L11.0156 6.05623C10.85 5.94998 10.4344 5.8281 9.90315 5.7281C9.3719 5.6281 8.69377 5.59373 7.9969 5.59685C7.20627 5.59373 6.59065 5.63435 6.06565 5.7281C5.70374 5.77883 5.35237 5.88751 5.02502 6.04998L5.07815 5.9531C5.26565 5.85935 5.55627 5.74373 6.05002 5.6531C6.5969 5.5531 7.21877 5.52498 8.00002 5.52185ZM8.00002 5.2406C8.66877 5.23435 9.33127 5.27185 9.8469 5.3656C10.181 5.4152 10.5043 5.52085 10.8031 5.6781L10.8813 5.8031C10.75 5.65623 10.2563 5.5156 9.81565 5.4406C9.30315 5.34998 8.66877 5.3156 8.00002 5.30935C7.3775 5.3038 6.75559 5.34979 6.14065 5.44685C5.81911 5.49166 5.50682 5.58766 5.21565 5.73123L5.2844 5.6281C5.46565 5.53435 5.7594 5.44685 6.12815 5.37498C6.74714 5.27665 7.37331 5.23065 8.00002 5.23748V5.2406ZM9.63752 8.87498C9.09587 8.7812 8.54651 8.73934 7.9969 8.74998C5.95002 8.77498 5.29065 9.17185 5.2094 9.2906L5.05315 9.0406C5.57815 8.6656 6.69065 8.4531 8.0094 8.47185C8.69377 8.48435 9.2844 8.53123 9.77815 8.6281L9.63752 8.8781" fill="#FFFF00"/>
<path d="M9.63752 8.87498C9.09587 8.7812 8.54651 8.73934 7.9969 8.74998C5.95002 8.77498 5.29065 9.17185 5.2094 9.2906L5.05315 9.0406C5.57815 8.6656 6.69065 8.4531 8.0094 8.47185C8.69377 8.48435 9.2844 8.53123 9.77815 8.6281L9.63752 8.8781M8.00002 5.52185C8.64125 5.51103 9.28221 5.55599 9.91565 5.65623C10.4156 5.74998 10.8938 5.88748 10.9625 5.96248L11.0156 6.05623C10.85 5.94998 10.4344 5.8281 9.90315 5.7281C9.3719 5.6281 8.69377 5.59373 7.9969 5.59685C7.20627 5.59373 6.59065 5.63435 6.06565 5.7281C5.70374 5.77883 5.35237 5.88751 5.02502 6.04998L5.07815 5.9531C5.26565 5.85935 5.55627 5.74373 6.05002 5.6531C6.5969 5.5531 7.21877 5.52498 8.00002 5.52185ZM8.00002 5.2406C8.66877 5.23435 9.33127 5.27185 9.8469 5.3656C10.181 5.4152 10.5043 5.52085 10.8031 5.6781L10.8813 5.8031C10.75 5.65623 10.2563 5.5156 9.81565 5.4406C9.30315 5.34998 8.66877 5.3156 8.00002 5.30935C7.3775 5.3038 6.75559 5.34979 6.14065 5.44685C5.81911 5.49166 5.50682 5.58766 5.21565 5.73123L5.2844 5.6281C5.46565 5.53435 5.7594 5.44685 6.12815 5.37498C6.74714 5.27665 7.37331 5.23065 8.00002 5.23748V5.2406Z" stroke="black" stroke-width="0.03" stroke-linecap="round" stroke-linejoin="round"/>
<path fill-rule="evenodd" clip-rule="evenodd" d="M7.98745 8.71561C8.5562 8.72498 9.11245 8.74686 9.65308 8.84686L9.61558 8.91561C9.11558 8.82186 8.57808 8.79061 7.99058 8.79061C7.2312 8.78436 6.4687 8.85623 5.80308 9.04686C5.5937 9.10623 5.24683 9.24061 5.20933 9.35311L5.17183 9.29061C5.18433 9.22186 5.39058 9.08436 5.78433 8.97811C6.54683 8.75936 7.25933 8.71873 7.98745 8.71561ZM8.01245 8.42811C8.61276 8.42749 9.21195 8.47978 9.80308 8.58436L9.76245 8.65623C9.18522 8.55035 8.5993 8.49908 8.01245 8.50311C7.2562 8.50311 6.45308 8.55936 5.72183 8.77186C5.48745 8.84061 5.07808 8.99061 5.06558 9.10623L5.02808 9.03748C5.03433 8.93123 5.38745 8.79061 5.7062 8.69998C6.44058 8.48436 7.24683 8.43123 8.01245 8.42811Z" fill="#FFFF00" stroke="black" stroke-width="0.03" stroke-linecap="round" stroke-linejoin="round"/>
<path fill-rule="evenodd" clip-rule="evenodd" d="M10.9188 9.07815L10.675 9.46252L9.96565 8.8344L8.1344 7.60002L6.06565 6.46565L4.99377 6.10002L5.2219 5.67502L5.30002 5.6344L5.96565 5.80002L8.16565 6.9344L9.4344 7.7344L10.5 8.50002L10.9344 9.00002L10.9188 9.07815Z" fill="#FFFF00" stroke="black" stroke-width="0.03" stroke-linecap="round" stroke-linejoin="round"/>
<path fill-rule="evenodd" clip-rule="evenodd" d="M4.95627 6.10942C5.14377 5.98442 6.52502 6.59692 7.97502 7.47192C9.41565 8.34692 10.7969 9.33442 10.6719 9.5188L10.6313 9.58442L10.6125 9.60005C10.6156 9.59692 10.6375 9.5688 10.6125 9.50317C10.55 9.30005 9.56877 8.5188 7.9469 7.53755C6.36252 6.59692 5.04377 6.02817 4.91565 6.19067L4.95627 6.10942ZM10.9688 9.07505C11.0875 8.83755 9.80627 7.87192 8.21565 6.9313C6.59065 6.00942 5.41565 5.46567 5.20002 5.62817L5.15627 5.7188C5.15627 5.72192 5.15627 5.71255 5.16877 5.70317C5.20627 5.67192 5.2719 5.67192 5.30002 5.67192C5.66877 5.67817 6.7219 6.16255 8.20002 7.00942C8.85002 7.38442 10.9375 8.72817 10.9281 9.10317C10.9281 9.13442 10.9313 9.14067 10.9188 9.15942L10.9719 9.07817L10.9688 9.07505Z" fill="#FFFF00" stroke="black" stroke-width="0.03" stroke-linecap="round" stroke-linejoin="round"/>
<path d="M6.02002 7.86771C6.02051 8.12646 6.07233 8.38255 6.17246 8.62114C6.27258 8.85973 6.41904 9.0761 6.60335 9.25771C6.78542 9.44258 7.00226 9.58959 7.2414 9.69028C7.48053 9.79097 7.73723 9.84334 7.99669 9.84438C8.52181 9.84434 9.0254 9.63571 9.3967 9.26438C9.58036 9.08176 9.72614 8.86467 9.82567 8.62556C9.92521 8.38645 9.97653 8.13004 9.9767 7.87104V5.23103L6.02002 5.22437V7.86771Z" fill="white" stroke="black" stroke-width="0.0373334"/>
<path d="M6.09338 7.87104C6.09409 8.11925 6.14393 8.36487 6.24005 8.59371C6.33617 8.82256 6.47665 9.03011 6.65339 9.20438C7.00827 9.56113 7.49019 9.76253 7.99339 9.76438C8.49571 9.76466 8.97762 9.56566 9.33339 9.21105C9.50953 9.0365 9.6494 8.82883 9.74493 8.59999C9.84047 8.37116 9.88979 8.12569 9.89006 7.87771V5.31104H6.10005V7.87104M9.13339 6.08104V7.71104L9.13006 7.88104C9.13118 8.02996 9.10224 8.17757 9.04496 8.31503C8.98769 8.4525 8.90325 8.57699 8.79673 8.68105C8.58475 8.89376 8.29702 9.01364 7.99672 9.01438C7.68339 9.01438 7.40672 8.88105 7.20005 8.67438C6.98734 8.4624 6.86746 8.17467 6.86672 7.87438V6.07437L9.13339 6.08104Z" fill="#FF0000"/>
<path d="M6.09338 7.87104C6.09409 8.11925 6.14393 8.36487 6.24005 8.59371C6.33617 8.82256 6.47665 9.03011 6.65339 9.20438C7.00827 9.56113 7.49019 9.76253 7.99339 9.76438C8.49571 9.76466 8.97762 9.56566 9.33339 9.21105C9.50953 9.0365 9.6494 8.82883 9.74493 8.59999C9.84047 8.37116 9.88979 8.12569 9.89006 7.87771V5.31104H6.10005V7.87104M9.13339 6.08104V7.71104L9.13006 7.88104C9.13118 8.02996 9.10224 8.17757 9.04496 8.31503C8.98769 8.4525 8.90325 8.57699 8.79673 8.68105C8.58475 8.89376 8.29702 9.01364 7.99672 9.01438C7.68339 9.01438 7.40672 8.88105 7.20005 8.67438C6.98734 8.4624 6.86746 8.17467 6.86672 7.87438V6.07437L9.13339 6.08104Z" stroke="black" stroke-width="0.0266667"/>
<path d="M6.33997 5.98106C6.3433 5.79773 6.4733 5.75439 6.4733 5.75439C6.47663 5.75439 6.61663 5.80106 6.61663 5.9844H6.33997" fill="#FFFF00"/>
<path d="M6.22667 5.75773L6.20334 5.96773H6.34334C6.34334 5.79439 6.47667 5.76773 6.47667 5.76773C6.48001 5.76773 6.61001 5.80439 6.61334 5.96773H6.75334L6.72668 5.75439H6.22667V5.75773ZM6.19334 5.97106H6.76001C6.77001 5.97106 6.78001 5.98106 6.78001 5.9944C6.78001 6.01106 6.77001 6.02106 6.76001 6.02106H6.19334C6.18334 6.02106 6.17334 6.01106 6.17334 5.9944C6.17334 5.98106 6.18334 5.97106 6.19667 5.97106H6.19334Z" fill="#FFFF00" stroke="black" stroke-width="0.0266667"/>
<path d="M6.39998 5.96775C6.39998 5.85775 6.47665 5.82775 6.47665 5.82775C6.47665 5.82775 6.55331 5.86109 6.55331 5.96775H6.39998ZM6.20665 5.66775H6.74998C6.75998 5.66775 6.76998 5.68109 6.76998 5.69442C6.76998 5.70442 6.75998 5.71442 6.74998 5.71442H6.20665C6.19665 5.71442 6.18665 5.70442 6.18665 5.69108C6.18665 5.68108 6.19665 5.67109 6.20665 5.67109V5.66775ZM6.21998 5.71775H6.73331C6.74331 5.71775 6.75331 5.72775 6.75331 5.74108C6.75331 5.75442 6.74331 5.76442 6.73331 5.76442H6.21665C6.20331 5.76442 6.19665 5.75442 6.19665 5.74108C6.19665 5.72775 6.20331 5.71775 6.21665 5.71775H6.21998ZM6.38665 5.36442H6.42665V5.39108H6.45665V5.36442H6.49998V5.39442H6.52998V5.36108H6.56998V5.42775C6.56998 5.44108 6.56331 5.44775 6.55331 5.44775H6.40665C6.39665 5.44775 6.38665 5.44108 6.38665 5.43108V5.36442ZM6.53998 5.45442L6.54998 5.66775H6.40665L6.41665 5.45108H6.53998" fill="#FFFF00"/>
<path d="M6.53998 5.45442L6.54998 5.66775H6.40665L6.41665 5.45108H6.53998M6.39998 5.96775C6.39998 5.85775 6.47665 5.82775 6.47665 5.82775C6.47665 5.82775 6.55331 5.86109 6.55331 5.96775H6.39998ZM6.20665 5.66775H6.74998C6.75998 5.66775 6.76998 5.68109 6.76998 5.69442C6.76998 5.70442 6.75998 5.71442 6.74998 5.71442H6.20665C6.19665 5.71442 6.18665 5.70442 6.18665 5.69108C6.18665 5.68108 6.19665 5.67109 6.20665 5.67109V5.66775ZM6.21998 5.71775H6.73331C6.74331 5.71775 6.75331 5.72775 6.75331 5.74108C6.75331 5.75442 6.74331 5.76442 6.73331 5.76442H6.21665C6.20331 5.76442 6.19665 5.75442 6.19665 5.74108C6.19665 5.72775 6.20331 5.71775 6.21665 5.71775H6.21998ZM6.38665 5.36442H6.42665V5.39108H6.45665V5.36442H6.49998V5.39442H6.52998V5.36108H6.56998V5.42775C6.56998 5.44108 6.56331 5.44775 6.55331 5.44775H6.40665C6.39665 5.44775 6.38665 5.44108 6.38665 5.43108V5.36442Z" stroke="black" stroke-width="0.0266667"/>
<path d="M6.36673 5.55444V5.66778H6.2334V5.55444H6.36673Z" fill="#FFFF00" stroke="black" stroke-width="0.0266667"/>
<path d="M6.72 5.55444V5.66778H6.58667V5.55444H6.72Z" fill="#FFFF00" stroke="black" stroke-width="0.0266667"/>
<path d="M6.20996 5.46777H6.24996V5.50111H6.27996V5.46777H6.31996V5.50111H6.34996V5.46777H6.38996V5.53444C6.38996 5.54777 6.38329 5.55444 6.37329 5.55444H6.22996C6.22466 5.55444 6.21957 5.55233 6.21582 5.54858C6.21207 5.54483 6.20996 5.53974 6.20996 5.53444V5.46777Z" fill="#FFFF00" stroke="black" stroke-width="0.0266667"/>
<path d="M6.56335 5.46777H6.60335V5.50111H6.63335V5.46777H6.67335V5.50111H6.70335V5.46777H6.74335V5.53444C6.74335 5.54777 6.73669 5.55444 6.72669 5.55444H6.58335C6.57805 5.55444 6.57296 5.55233 6.56921 5.54858C6.56546 5.54483 6.56335 5.53974 6.56335 5.53444V5.46777Z" fill="#FFFF00" stroke="black" stroke-width="0.0266667"/>
<path d="M6.46338 5.5211C6.46338 5.5011 6.49338 5.5011 6.49338 5.5211V5.57444H6.46338V5.5211Z" fill="black"/>
<path d="M6.28662 5.59447C6.28662 5.57447 6.31329 5.57447 6.31329 5.59447V5.63447H6.28662V5.59447Z" fill="black"/>
<path d="M6.64001 5.59447C6.64001 5.57447 6.66668 5.57447 6.66668 5.59447V5.63447H6.64001V5.59447Z" fill="black"/>
<path d="M6.33997 7.5244C6.3433 7.34106 6.4733 7.29773 6.4733 7.29773C6.47663 7.29773 6.61663 7.3444 6.61663 7.52773H6.33997" fill="#FFFF00"/>
<path d="M6.22667 7.30106L6.20334 7.51106H6.34334C6.34334 7.33773 6.47667 7.31106 6.47667 7.31106C6.48001 7.31106 6.61001 7.34773 6.61334 7.51106H6.75334L6.72668 7.29773H6.22667V7.30106ZM6.19334 7.5144H6.76001C6.77001 7.5144 6.78001 7.5244 6.78001 7.53773C6.78001 7.5544 6.77001 7.5644 6.76001 7.5644H6.19334C6.18334 7.5644 6.17334 7.5544 6.17334 7.53773C6.17334 7.5244 6.18334 7.5144 6.19667 7.5144H6.19334Z" fill="#FFFF00" stroke="black" stroke-width="0.0266667"/>
<path d="M6.39998 7.51109C6.39998 7.40109 6.47665 7.37109 6.47665 7.37109C6.47665 7.37109 6.55331 7.40442 6.55331 7.51109H6.39998ZM6.20665 7.21109H6.74998C6.75998 7.21109 6.76998 7.22442 6.76998 7.23775C6.76998 7.24775 6.75998 7.25775 6.74998 7.25775H6.20665C6.19665 7.25775 6.18665 7.24775 6.18665 7.23442C6.18665 7.22442 6.19665 7.21442 6.20665 7.21442V7.21109ZM6.21998 7.26109H6.73331C6.74331 7.26109 6.75331 7.27109 6.75331 7.28442C6.75331 7.29775 6.74331 7.30775 6.73331 7.30775H6.21665C6.20331 7.30775 6.19665 7.29775 6.19665 7.28442C6.19665 7.27109 6.20331 7.26109 6.21665 7.26109H6.21998ZM6.38665 6.90775H6.42665V6.93442H6.45665V6.90775H6.49998V6.93775H6.52998V6.90442H6.56998V6.97109C6.56998 6.98442 6.56331 6.99109 6.55331 6.99109H6.40665C6.39665 6.99109 6.38665 6.98442 6.38665 6.97442V6.90775ZM6.53998 6.99775L6.54998 7.21109H6.40665L6.41665 6.99442H6.53998" fill="#FFFF00"/>
<path d="M6.53998 6.99775L6.54998 7.21109H6.40665L6.41665 6.99442H6.53998M6.39998 7.51109C6.39998 7.40109 6.47665 7.37109 6.47665 7.37109C6.47665 7.37109 6.55331 7.40442 6.55331 7.51109H6.39998ZM6.20665 7.21109H6.74998C6.75998 7.21109 6.76998 7.22442 6.76998 7.23775C6.76998 7.24775 6.75998 7.25775 6.74998 7.25775H6.20665C6.19665 7.25775 6.18665 7.24775 6.18665 7.23442C6.18665 7.22442 6.19665 7.21442 6.20665 7.21442V7.21109ZM6.21998 7.26109H6.73331C6.74331 7.26109 6.75331 7.27109 6.75331 7.28442C6.75331 7.29775 6.74331 7.30775 6.73331 7.30775H6.21665C6.20331 7.30775 6.19665 7.29775 6.19665 7.28442C6.19665 7.27109 6.20331 7.26109 6.21665 7.26109H6.21998ZM6.38665 6.90775H6.42665V6.93442H6.45665V6.90775H6.49998V6.93775H6.52998V6.90442H6.56998V6.97109C6.56998 6.98442 6.56331 6.99109 6.55331 6.99109H6.40665C6.39665 6.99109 6.38665 6.98442 6.38665 6.97442V6.90775Z" stroke="black" stroke-width="0.0266667"/>
<path d="M6.36673 7.09778V7.21111H6.2334V7.09778H6.36673Z" fill="#FFFF00" stroke="black" stroke-width="0.0266667"/>
<path d="M6.72 7.09778V7.21111H6.58667V7.09778H6.72Z" fill="#FFFF00" stroke="black" stroke-width="0.0266667"/>
<path d="M6.20996 7.01111H6.24996V7.04444H6.27996V7.01111H6.31996V7.04444H6.34996V7.01111H6.38996V7.07778C6.38996 7.09111 6.38329 7.09778 6.37329 7.09778H6.22996C6.22466 7.09778 6.21957 7.09567 6.21582 7.09192C6.21207 7.08817 6.20996 7.08308 6.20996 7.07778V7.01111Z" fill="#FFFF00" stroke="black" stroke-width="0.0266667"/>
<path d="M6.56335 7.01111H6.60335V7.04444H6.63335V7.01111H6.67335V7.04444H6.70335V7.01111H6.74335V7.07778C6.74335 7.09111 6.73669 7.09778 6.72669 7.09778H6.58335C6.57805 7.09778 6.57296 7.09567 6.56921 7.09192C6.56546 7.08817 6.56335 7.08308 6.56335 7.07778V7.01111Z" fill="#FFFF00" stroke="black" stroke-width="0.0266667"/>
<path d="M6.46338 7.06444C6.46338 7.04444 6.49338 7.04444 6.49338 7.06444V7.11777H6.46338V7.06444Z" fill="black"/>
<path d="M6.28662 7.1378C6.28662 7.1178 6.31329 7.1178 6.31329 7.1378V7.1778H6.28662V7.1378Z" fill="black"/>
<path d="M6.64001 7.1378C6.64001 7.1178 6.66668 7.1178 6.66668 7.1378V7.1778H6.64001V7.1378Z" fill="black"/>
<path d="M6.94148 9.13298C6.81374 9.00144 6.87459 8.87866 6.87459 8.87866C6.87694 8.87629 7.0087 8.80983 7.13879 8.93902L6.94384 9.13533" fill="#FFFF00"/>
<path d="M6.70315 9.05594L6.83572 9.22047L6.93437 9.12113C6.81138 8.99899 6.88641 8.88559 6.88641 8.88559C6.88876 8.88322 7.00638 8.81682 7.12462 8.92954L7.22327 8.8302L7.05311 8.6988L6.70079 9.05359L6.70315 9.05594ZM6.83104 9.22991L7.23034 8.82782C7.23738 8.82072 7.25152 8.82067 7.26098 8.83007C7.27281 8.84181 7.27286 8.85596 7.26581 8.86305L6.86652 9.26514C6.85947 9.27224 6.84533 9.27229 6.83351 9.26054C6.82404 9.25115 6.824 9.23701 6.83339 9.22755L6.83104 9.22991Z" fill="#FFFF00" stroke="black" stroke-width="0.0266667"/>
<path d="M6.97435 9.08091C6.8963 9.0034 6.92903 8.92786 6.92903 8.92786C6.92903 8.92786 7.00671 8.89695 7.0824 8.97211L6.97435 9.08091ZM6.62525 9.00671L7.0081 8.62117C7.01515 8.61408 7.03166 8.61638 7.04112 8.62577C7.04821 8.63282 7.04826 8.64696 7.04122 8.65405L6.65836 9.03959C6.65132 9.04669 6.63717 9.04673 6.62771 9.03734C6.62062 9.03029 6.62057 9.01615 6.62761 9.00906L6.62525 9.00671ZM6.67012 9.03248L7.03184 8.66823C7.03888 8.66113 7.05303 8.66108 7.06249 8.67048C7.07195 8.67988 7.072 8.69402 7.06495 8.70111L6.70089 9.06773C6.69149 9.07719 6.6797 9.07487 6.67024 9.06548C6.66078 9.05608 6.65838 9.0443 6.66777 9.03484L6.67012 9.03248ZM6.53685 8.66524L6.56503 8.63686L6.58395 8.65565L6.60509 8.63436L6.58617 8.61557L6.61671 8.58483L6.63799 8.60596L6.65913 8.58468L6.63548 8.56119L6.66367 8.53281L6.71097 8.57978C6.72043 8.58918 6.72046 8.59861 6.71342 8.6057L6.61007 8.70977C6.60302 8.71687 6.59125 8.71927 6.58415 8.71222L6.53685 8.66524ZM6.70875 8.61986L6.86717 8.76309L6.76618 8.86479L6.61948 8.70503L6.70639 8.61751" fill="#FFFF00"/>
<path d="M6.70875 8.61986L6.86717 8.76309L6.76618 8.86479L6.61948 8.70503L6.70639 8.61751M6.97435 9.08091C6.8963 9.0034 6.92903 8.92786 6.92903 8.92786C6.92903 8.92786 7.00671 8.89695 7.0824 8.97211L6.97435 9.08091ZM6.62525 9.00671L7.0081 8.62117C7.01515 8.61408 7.03166 8.61638 7.04112 8.62577C7.04821 8.63282 7.04826 8.64696 7.04122 8.65405L6.65836 9.03959C6.65132 9.04669 6.63717 9.04673 6.62771 9.03734C6.62062 9.03029 6.62057 9.01615 6.62761 9.00906L6.62525 9.00671ZM6.67012 9.03248L7.03184 8.66823C7.03888 8.66113 7.05303 8.66108 7.06249 8.67048C7.07195 8.67988 7.072 8.69402 7.06495 8.70111L6.70089 9.06773C6.69149 9.07719 6.6797 9.07487 6.67024 9.06548C6.66078 9.05608 6.65838 9.0443 6.66777 9.03484L6.67012 9.03248ZM6.53685 8.66524L6.56503 8.63686L6.58395 8.65565L6.60509 8.63436L6.58617 8.61557L6.61671 8.58483L6.63799 8.60596L6.65913 8.58468L6.63548 8.56119L6.66367 8.53281L6.71097 8.57978C6.72043 8.58918 6.72046 8.59861 6.71342 8.6057L6.61007 8.70977C6.60302 8.71687 6.59125 8.71927 6.58415 8.71222L6.53685 8.66524Z" stroke="black" stroke-width="0.0266667"/>
<path d="M6.65755 8.81335L6.73797 8.89321L6.64402 8.98782L6.5636 8.90796L6.65755 8.81335Z" fill="#FFFF00" stroke="black" stroke-width="0.0266667"/>
<path d="M6.90657 8.56262L6.98699 8.64248L6.89304 8.73709L6.81262 8.65723L6.90657 8.56262Z" fill="#FFFF00" stroke="black" stroke-width="0.0266667"/>
<path d="M6.48572 8.86353L6.5139 8.83514L6.53756 8.85863L6.55869 8.83734L6.53504 8.81386L6.56323 8.78547L6.58688 8.80896L6.60802 8.78767L6.58437 8.76419L6.61255 8.7358L6.65986 8.78278C6.66932 8.79217 6.66935 8.8016 6.6623 8.8087L6.56131 8.9104C6.55757 8.91417 6.55249 8.91629 6.54719 8.91631C6.54188 8.91633 6.53679 8.91424 6.53302 8.9105L6.48572 8.86353Z" fill="#FFFF00" stroke="black" stroke-width="0.0266667"/>
<path d="M6.73462 8.61279L6.7628 8.58441L6.78646 8.6079L6.8076 8.58661L6.78394 8.56312L6.81213 8.53474L6.83578 8.55823L6.85692 8.53694L6.83327 8.51345L6.86145 8.48507L6.90876 8.53205C6.91822 8.54144 6.91825 8.55087 6.91121 8.55796L6.81021 8.65967C6.80647 8.66343 6.80139 8.66556 6.79609 8.66558C6.79078 8.6656 6.78569 8.66351 6.78192 8.65977L6.73462 8.61279Z" fill="#FFFF00" stroke="black" stroke-width="0.0266667"/>
<path d="M6.70205 8.72126C6.68786 8.70717 6.709 8.68588 6.72319 8.69998L6.76103 8.73756L6.73989 8.75884L6.70205 8.72126Z" fill="black"/>
<path d="M6.62954 8.89839C6.61535 8.88429 6.63414 8.86537 6.64833 8.87947L6.67671 8.90765L6.65792 8.92657L6.62954 8.89839Z" fill="black"/>
<path d="M6.87856 8.64765C6.86437 8.63356 6.88316 8.61464 6.89735 8.62873L6.92574 8.65692L6.90695 8.67584L6.87856 8.64765Z" fill="black"/>
<path d="M7.86328 5.98106C7.86661 5.79773 7.99661 5.75439 7.99661 5.75439C7.99995 5.75439 8.13995 5.80106 8.13995 5.9844H7.86328" fill="#FFFF00"/>
<path d="M7.74999 5.75773L7.72666 5.96773H7.86666C7.86666 5.79439 7.99999 5.76773 7.99999 5.76773C8.00332 5.76773 8.13332 5.80439 8.13666 5.96773H8.27666L8.24999 5.75439H7.74999V5.75773ZM7.71666 5.97106H8.28332C8.29332 5.97106 8.30332 5.98106 8.30332 5.9944C8.30332 6.01106 8.29332 6.02106 8.28332 6.02106H7.71666C7.70666 6.02106 7.69666 6.01106 7.69666 5.9944C7.69666 5.98106 7.70666 5.97106 7.71999 5.97106H7.71666Z" fill="#FFFF00" stroke="black" stroke-width="0.0266667"/>
<path d="M7.92329 5.96775C7.92329 5.85775 7.99996 5.82775 7.99996 5.82775C7.99996 5.82775 8.07663 5.86109 8.07663 5.96775H7.92329ZM7.72996 5.66775H8.2733C8.2833 5.66775 8.2933 5.68109 8.2933 5.69442C8.2933 5.70442 8.2833 5.71442 8.2733 5.71442H7.72996C7.71996 5.71442 7.70996 5.70442 7.70996 5.69108C7.70996 5.68108 7.71996 5.67109 7.72996 5.67109V5.66775ZM7.74329 5.71775H8.25663C8.26663 5.71775 8.27663 5.72775 8.27663 5.74108C8.27663 5.75442 8.26663 5.76442 8.25663 5.76442H7.73996C7.72663 5.76442 7.71996 5.75442 7.71996 5.74108C7.71996 5.72775 7.72663 5.71775 7.73996 5.71775H7.74329ZM7.90996 5.36442H7.94996V5.39108H7.97996V5.36442H8.0233V5.39442H8.05329V5.36108H8.0933V5.42775C8.0933 5.44108 8.08663 5.44775 8.07663 5.44775H7.92996C7.91996 5.44775 7.90996 5.44108 7.90996 5.43108V5.36442ZM8.0633 5.45442L8.0733 5.66775H7.92996L7.93996 5.45108H8.0633" fill="#FFFF00"/>
<path d="M8.0633 5.45442L8.0733 5.66775H7.92996L7.93996 5.45108H8.0633M7.92329 5.96775C7.92329 5.85775 7.99996 5.82775 7.99996 5.82775C7.99996 5.82775 8.07663 5.86109 8.07663 5.96775H7.92329ZM7.72996 5.66775H8.2733C8.2833 5.66775 8.2933 5.68109 8.2933 5.69442C8.2933 5.70442 8.2833 5.71442 8.2733 5.71442H7.72996C7.71996 5.71442 7.70996 5.70442 7.70996 5.69108C7.70996 5.68108 7.71996 5.67109 7.72996 5.67109V5.66775ZM7.74329 5.71775H8.25663C8.26663 5.71775 8.27663 5.72775 8.27663 5.74108C8.27663 5.75442 8.26663 5.76442 8.25663 5.76442H7.73996C7.72663 5.76442 7.71996 5.75442 7.71996 5.74108C7.71996 5.72775 7.72663 5.71775 7.73996 5.71775H7.74329ZM7.90996 5.36442H7.94996V5.39108H7.97996V5.36442H8.0233V5.39442H8.05329V5.36108H8.0933V5.42775C8.0933 5.44108 8.08663 5.44775 8.07663 5.44775H7.92996C7.91996 5.44775 7.90996 5.44108 7.90996 5.43108V5.36442Z" stroke="black" stroke-width="0.0266667"/>
<path d="M7.89005 5.55444V5.66778H7.75671V5.55444H7.89005Z" fill="#FFFF00" stroke="black" stroke-width="0.0266667"/>
<path d="M8.24332 5.55444V5.66778H8.10999V5.55444H8.24332Z" fill="#FFFF00" stroke="black" stroke-width="0.0266667"/>
<path d="M7.73328 5.46777H7.77328V5.50111H7.80328V5.46777H7.84328V5.50111H7.87328V5.46777H7.91328V5.53444C7.91328 5.54777 7.90661 5.55444 7.89661 5.55444H7.75328C7.74797 5.55444 7.74288 5.55233 7.73913 5.54858C7.73538 5.54483 7.73328 5.53974 7.73328 5.53444V5.46777Z" fill="#FFFF00" stroke="black" stroke-width="0.0266667"/>
<path d="M8.08667 5.46777H8.12667V5.50111H8.15667V5.46777H8.19667V5.50111H8.22667V5.46777H8.26667V5.53444C8.26667 5.54777 8.26 5.55444 8.25 5.55444H8.10667C8.10137 5.55444 8.09628 5.55233 8.09253 5.54858C8.08878 5.54483 8.08667 5.53974 8.08667 5.53444V5.46777Z" fill="#FFFF00" stroke="black" stroke-width="0.0266667"/>
<path d="M7.98669 5.5211C7.98669 5.5011 8.01669 5.5011 8.01669 5.5211V5.57444H7.98669V5.5211Z" fill="black"/>
<path d="M7.80994 5.59447C7.80994 5.57447 7.8366 5.57447 7.8366 5.59447V5.63447H7.80994V5.59447Z" fill="black"/>
<path d="M8.16333 5.59447C8.16333 5.57447 8.19 5.57447 8.19 5.59447V5.63447H8.16333V5.59447Z" fill="black"/>
<path d="M9.65344 5.98106C9.65011 5.79773 9.52011 5.75439 9.52011 5.75439C9.51678 5.75439 9.37677 5.80106 9.37677 5.9844H9.65344" fill="#FFFF00"/>
<path d="M9.76673 5.75773L9.79007 5.96773H9.65007C9.65007 5.79439 9.51673 5.76773 9.51673 5.76773C9.5134 5.76773 9.3834 5.80439 9.38007 5.96773H9.24007L9.26673 5.75439H9.76673V5.75773ZM9.80007 5.97106H9.2334C9.2234 5.97106 9.2134 5.98106 9.2134 5.9944C9.2134 6.01106 9.2234 6.02106 9.2334 6.02106H9.80007C9.81007 6.02106 9.82007 6.01106 9.82007 5.9944C9.82007 5.98106 9.81007 5.97106 9.79674 5.97106H9.80007Z" fill="#FFFF00" stroke="black" stroke-width="0.0266667"/>
<path d="M9.59343 5.96775C9.59343 5.85775 9.51676 5.82775 9.51676 5.82775C9.51676 5.82775 9.44009 5.86109 9.44009 5.96775H9.59343ZM9.78676 5.66775H9.24343C9.23343 5.66775 9.22343 5.68109 9.22343 5.69442C9.22343 5.70442 9.23343 5.71442 9.24343 5.71442H9.78676C9.79676 5.71442 9.80676 5.70442 9.80676 5.69108C9.80676 5.68108 9.79676 5.67109 9.78676 5.67109V5.66775ZM9.77343 5.71775H9.26009C9.25009 5.71775 9.24009 5.72775 9.24009 5.74108C9.24009 5.75442 9.25009 5.76442 9.26009 5.76442H9.77676C9.7901 5.76442 9.79676 5.75442 9.79676 5.74108C9.79676 5.72775 9.7901 5.71775 9.77676 5.71775H9.77343ZM9.60676 5.36442H9.56676V5.39108H9.53676V5.36442H9.49343V5.39442H9.46343V5.36108H9.42343V5.42775C9.42343 5.44108 9.43009 5.44775 9.44009 5.44775H9.58676C9.59676 5.44775 9.60676 5.44108 9.60676 5.43108V5.36442ZM9.45343 5.45442L9.44343 5.66775H9.58676L9.57676 5.45108H9.45343" fill="#FFFF00"/>
<path d="M9.45343 5.45442L9.44343 5.66775H9.58676L9.57676 5.45108H9.45343M9.59343 5.96775C9.59343 5.85775 9.51676 5.82775 9.51676 5.82775C9.51676 5.82775 9.44009 5.86109 9.44009 5.96775H9.59343ZM9.78676 5.66775H9.24343C9.23343 5.66775 9.22343 5.68109 9.22343 5.69442C9.22343 5.70442 9.23343 5.71442 9.24343 5.71442H9.78676C9.79676 5.71442 9.80676 5.70442 9.80676 5.69108C9.80676 5.68108 9.79676 5.67109 9.78676 5.67109V5.66775ZM9.77343 5.71775H9.26009C9.25009 5.71775 9.24009 5.72775 9.24009 5.74108C9.24009 5.75442 9.25009 5.76442 9.26009 5.76442H9.77676C9.7901 5.76442 9.79676 5.75442 9.79676 5.74108C9.79676 5.72775 9.7901 5.71775 9.77676 5.71775H9.77343ZM9.60676 5.36442H9.56676V5.39108H9.53676V5.36442H9.49343V5.39442H9.46343V5.36108H9.42343V5.42775C9.42343 5.44108 9.43009 5.44775 9.44009 5.44775H9.58676C9.59676 5.44775 9.60676 5.44108 9.60676 5.43108V5.36442Z" stroke="black" stroke-width="0.0266667"/>
<path d="M9.6268 5.55444V5.66778H9.76013V5.55444H9.6268Z" fill="#FFFF00" stroke="black" stroke-width="0.0266667"/>
<path d="M9.2734 5.55444V5.66778H9.40674V5.55444H9.2734Z" fill="#FFFF00" stroke="black" stroke-width="0.0266667"/>
<path d="M9.78345 5.46777H9.74345V5.50111H9.71345V5.46777H9.67345V5.50111H9.64345V5.46777H9.60345V5.53444C9.60345 5.54777 9.61011 5.55444 9.62011 5.55444H9.76345C9.76875 5.55444 9.77384 5.55233 9.77759 5.54858C9.78134 5.54483 9.78345 5.53974 9.78345 5.53444V5.46777Z" fill="#FFFF00" stroke="black" stroke-width="0.0266667"/>
<path d="M9.43005 5.46777H9.39005V5.50111H9.36005V5.46777H9.32005V5.50111H9.29005V5.46777H9.25005V5.53444C9.25005 5.54777 9.25672 5.55444 9.26672 5.55444H9.41005C9.41536 5.55444 9.42045 5.55233 9.4242 5.54858C9.42795 5.54483 9.43005 5.53974 9.43005 5.53444V5.46777Z" fill="#FFFF00" stroke="black" stroke-width="0.0266667"/>
<path d="M9.53003 5.5211C9.53003 5.5011 9.50003 5.5011 9.50003 5.5211V5.57444H9.53003V5.5211Z" fill="black"/>
<path d="M9.70679 5.59447C9.70679 5.57447 9.68012 5.57447 9.68012 5.59447V5.63447H9.70679V5.59447Z" fill="black"/>
<path d="M9.35339 5.59447C9.35339 5.57447 9.32673 5.57447 9.32673 5.59447V5.63447H9.35339V5.59447Z" fill="black"/>
<path d="M9.65344 7.5244C9.65011 7.34106 9.52011 7.29773 9.52011 7.29773C9.51678 7.29773 9.37677 7.3444 9.37677 7.52773H9.65344" fill="#FFFF00"/>
<path d="M9.76673 7.30106L9.79007 7.51106H9.65007C9.65007 7.33773 9.51673 7.31106 9.51673 7.31106C9.5134 7.31106 9.3834 7.34773 9.38007 7.51106H9.24007L9.26673 7.29773H9.76673V7.30106ZM9.80007 7.5144H9.2334C9.2234 7.5144 9.2134 7.5244 9.2134 7.53773C9.2134 7.5544 9.2234 7.5644 9.2334 7.5644H9.80007C9.81007 7.5644 9.82007 7.5544 9.82007 7.53773C9.82007 7.5244 9.81007 7.5144 9.79674 7.5144H9.80007Z" fill="#FFFF00" stroke="black" stroke-width="0.0266667"/>
<path d="M9.59343 7.51109C9.59343 7.40109 9.51676 7.37109 9.51676 7.37109C9.51676 7.37109 9.44009 7.40442 9.44009 7.51109H9.59343ZM9.78676 7.21109H9.24343C9.23343 7.21109 9.22343 7.22442 9.22343 7.23775C9.22343 7.24775 9.23343 7.25775 9.24343 7.25775H9.78676C9.79676 7.25775 9.80676 7.24775 9.80676 7.23442C9.80676 7.22442 9.79676 7.21442 9.78676 7.21442V7.21109ZM9.77343 7.26109H9.26009C9.25009 7.26109 9.24009 7.27109 9.24009 7.28442C9.24009 7.29775 9.25009 7.30775 9.26009 7.30775H9.77676C9.7901 7.30775 9.79676 7.29775 9.79676 7.28442C9.79676 7.27109 9.7901 7.26109 9.77676 7.26109H9.77343ZM9.60676 6.90775H9.56676V6.93442H9.53676V6.90775H9.49343V6.93775H9.46343V6.90442H9.42343V6.97109C9.42343 6.98442 9.43009 6.99109 9.44009 6.99109H9.58676C9.59676 6.99109 9.60676 6.98442 9.60676 6.97442V6.90775ZM9.45343 6.99775L9.44343 7.21109H9.58676L9.57676 6.99442H9.45343" fill="#FFFF00"/>
<path d="M9.45343 6.99775L9.44343 7.21109H9.58676L9.57676 6.99442H9.45343M9.59343 7.51109C9.59343 7.40109 9.51676 7.37109 9.51676 7.37109C9.51676 7.37109 9.44009 7.40442 9.44009 7.51109H9.59343ZM9.78676 7.21109H9.24343C9.23343 7.21109 9.22343 7.22442 9.22343 7.23775C9.22343 7.24775 9.23343 7.25775 9.24343 7.25775H9.78676C9.79676 7.25775 9.80676 7.24775 9.80676 7.23442C9.80676 7.22442 9.79676 7.21442 9.78676 7.21442V7.21109ZM9.77343 7.26109H9.26009C9.25009 7.26109 9.24009 7.27109 9.24009 7.28442C9.24009 7.29775 9.25009 7.30775 9.26009 7.30775H9.77676C9.7901 7.30775 9.79676 7.29775 9.79676 7.28442C9.79676 7.27109 9.7901 7.26109 9.77676 7.26109H9.77343ZM9.60676 6.90775H9.56676V6.93442H9.53676V6.90775H9.49343V6.93775H9.46343V6.90442H9.42343V6.97109C9.42343 6.98442 9.43009 6.99109 9.44009 6.99109H9.58676C9.59676 6.99109 9.60676 6.98442 9.60676 6.97442V6.90775Z" stroke="black" stroke-width="0.0266667"/>
<path d="M9.62668 7.09778V7.21111H9.76001V7.09778H9.62668Z" fill="#FFFF00" stroke="black" stroke-width="0.0266667"/>
<path d="M9.2734 7.09778V7.21111H9.40674V7.09778H9.2734Z" fill="#FFFF00" stroke="black" stroke-width="0.0266667"/>
<path d="M9.78345 7.01111H9.74345V7.04444H9.71345V7.01111H9.67345V7.04444H9.64345V7.01111H9.60345V7.07778C9.60345 7.09111 9.61011 7.09778 9.62011 7.09778H9.76345C9.76875 7.09778 9.77384 7.09567 9.77759 7.09192C9.78134 7.08817 9.78345 7.08308 9.78345 7.07778V7.01111Z" fill="#FFFF00" stroke="black" stroke-width="0.0266667"/>
<path d="M9.43005 7.01111H9.39005V7.04444H9.36005V7.01111H9.32005V7.04444H9.29005V7.01111H9.25005V7.07778C9.25005 7.09111 9.25672 7.09778 9.26672 7.09778H9.41005C9.41536 7.09778 9.42045 7.09567 9.4242 7.09192C9.42795 7.08817 9.43005 7.08308 9.43005 7.07778V7.01111Z" fill="#FFFF00" stroke="black" stroke-width="0.0266667"/>
<path d="M9.53003 7.06444C9.53003 7.04444 9.50003 7.04444 9.50003 7.06444V7.11777H9.53003V7.06444Z" fill="black"/>
<path d="M9.70679 7.1378C9.70679 7.1178 9.68012 7.1178 9.68012 7.1378V7.1778H9.70679V7.1378Z" fill="black"/>
<path d="M9.35339 7.1378C9.35339 7.1178 9.32673 7.1178 9.32673 7.1378V7.1778H9.35339V7.1378Z" fill="black"/>
<path d="M9.05193 9.13298C9.17967 9.00144 9.11882 8.87866 9.11882 8.87866C9.11647 8.87629 8.98471 8.80983 8.85462 8.93902L9.04957 9.13533" fill="#FFFF00"/>
<path d="M9.29025 9.05594L9.15769 9.22047L9.05904 9.12113C9.18203 8.99899 9.107 8.88559 9.107 8.88559C9.10465 8.88322 8.98703 8.81682 8.86878 8.92954L8.77014 8.8302L8.9403 8.6988L9.29262 9.05359L9.29025 9.05594ZM9.16237 9.22991L8.76307 8.82782C8.75603 8.82072 8.74188 8.82067 8.73242 8.83007C8.7206 8.84181 8.72055 8.85596 8.72759 8.86305L9.12689 9.26514C9.13393 9.27224 9.14808 9.27229 9.1599 9.26054C9.16936 9.25115 9.16941 9.23701 9.16002 9.22755L9.16237 9.22991Z" fill="#FFFF00" stroke="black" stroke-width="0.0266667"/>
<path d="M9.01906 9.08091C9.09711 9.0034 9.06437 8.92786 9.06437 8.92786C9.06437 8.92786 8.9867 8.89695 8.91101 8.97211L9.01906 9.08091ZM9.36816 9.00671L8.98531 8.62117C8.97826 8.61408 8.96175 8.61638 8.95229 8.62577C8.9452 8.63282 8.94515 8.64696 8.95219 8.65405L9.33505 9.03959C9.34209 9.04669 9.35623 9.04673 9.36569 9.03734C9.37279 9.03029 9.37284 9.01615 9.36579 9.00906L9.36816 9.00671ZM9.32328 9.03248L8.96157 8.66823C8.95453 8.66113 8.94038 8.66108 8.93092 8.67048C8.92146 8.67988 8.92141 8.69402 8.92846 8.70111L9.29252 9.06773C9.30192 9.07719 9.31371 9.07487 9.32317 9.06548C9.33263 9.05608 9.33503 9.0443 9.32563 9.03484L9.32328 9.03248ZM9.45656 8.66524L9.42838 8.63686L9.40945 8.65565L9.38831 8.63436L9.40724 8.61557L9.3767 8.58483L9.35542 8.60596L9.33428 8.58468L9.35793 8.56119L9.32974 8.53281L9.28244 8.57978C9.27298 8.58918 9.27294 8.59861 9.27999 8.6057L9.38334 8.70977C9.39038 8.71687 9.40216 8.71927 9.40926 8.71222L9.45656 8.66524ZM9.28466 8.61986L9.12623 8.76309L9.22723 8.86479L9.37393 8.70503L9.28702 8.61751" fill="#FFFF00"/>
<path d="M9.28466 8.61986L9.12623 8.76309L9.22723 8.86479L9.37393 8.70503L9.28702 8.61751M9.01906 9.08091C9.09711 9.0034 9.06437 8.92786 9.06437 8.92786C9.06437 8.92786 8.9867 8.89695 8.91101 8.97211L9.01906 9.08091ZM9.36816 9.00671L8.98531 8.62117C8.97826 8.61408 8.96175 8.61638 8.95229 8.62577C8.9452 8.63282 8.94515 8.64696 8.95219 8.65405L9.33505 9.03959C9.34209 9.04669 9.35623 9.04673 9.36569 9.03734C9.37279 9.03029 9.37284 9.01615 9.36579 9.00906L9.36816 9.00671ZM9.32328 9.03248L8.96157 8.66823C8.95453 8.66113 8.94038 8.66108 8.93092 8.67048C8.92146 8.67988 8.92141 8.69402 8.92846 8.70111L9.29252 9.06773C9.30192 9.07719 9.31371 9.07487 9.32317 9.06548C9.33263 9.05608 9.33503 9.0443 9.32563 9.03484L9.32328 9.03248ZM9.45656 8.66524L9.42838 8.63686L9.40945 8.65565L9.38831 8.63436L9.40724 8.61557L9.3767 8.58483L9.35542 8.60596L9.33428 8.58468L9.35793 8.56119L9.32974 8.53281L9.28244 8.57978C9.27298 8.58918 9.27294 8.59861 9.27999 8.6057L9.38334 8.70977C9.39038 8.71687 9.40216 8.71927 9.40926 8.71222L9.45656 8.66524Z" stroke="black" stroke-width="0.0266667"/>
<path d="M9.33586 8.81335L9.25544 8.89321L9.34939 8.98782L9.42981 8.90796L9.33586 8.81335Z" fill="#FFFF00" stroke="black" stroke-width="0.0266667"/>
<path d="M9.08683 8.56262L9.00642 8.64248L9.10037 8.73709L9.18079 8.65723L9.08683 8.56262Z" fill="#FFFF00" stroke="black" stroke-width="0.0266667"/>
<path d="M9.50769 8.86353L9.47951 8.83514L9.45585 8.85863L9.43471 8.83734L9.45837 8.81386L9.43018 8.78547L9.40653 8.80896L9.38539 8.78767L9.40904 8.76419L9.38086 8.7358L9.33355 8.78278C9.32409 8.79217 9.32406 8.8016 9.3311 8.8087L9.4321 8.9104C9.43584 8.91417 9.44092 8.91629 9.44622 8.91631C9.45153 8.91633 9.45662 8.91424 9.46039 8.9105L9.50769 8.86353Z" fill="#FFFF00" stroke="black" stroke-width="0.0266667"/>
<path d="M9.25879 8.61279L9.2306 8.58441L9.20695 8.6079L9.18581 8.58661L9.20946 8.56312L9.18128 8.53474L9.15763 8.55823L9.13649 8.53694L9.16014 8.51345L9.13195 8.48507L9.08465 8.53205C9.07519 8.54144 9.07516 8.55087 9.0822 8.55796L9.1832 8.65967C9.18694 8.66343 9.19202 8.66556 9.19732 8.66558C9.20263 8.6656 9.20772 8.66351 9.21148 8.65977L9.25879 8.61279Z" fill="#FFFF00" stroke="black" stroke-width="0.0266667"/>
<path d="M9.29136 8.72126C9.30555 8.70717 9.28441 8.68588 9.27022 8.69998L9.23238 8.73756L9.25351 8.75884L9.29136 8.72126Z" fill="black"/>
<path d="M9.36387 8.89839C9.37806 8.88429 9.35927 8.86537 9.34508 8.87947L9.3167 8.90765L9.33549 8.92657L9.36387 8.89839Z" fill="black"/>
<path d="M9.11484 8.64765C9.12904 8.63356 9.11025 8.61464 9.09605 8.62873L9.06767 8.65692L9.08646 8.67584L9.11484 8.64765Z" fill="black"/>
<path d="M7.75331 7.58107C7.7527 7.65142 7.77893 7.71937 7.82664 7.77107C7.8489 7.79596 7.87611 7.81593 7.90653 7.82971C7.93695 7.84349 7.96991 7.85076 8.00331 7.85107C8.07331 7.85107 8.13664 7.81774 8.17997 7.77107C8.22769 7.71937 8.25391 7.65142 8.25331 7.58107V7.22107H7.75331V7.58107Z" fill="#003399"/>
<path d="M7.86995 7.40774C7.89756 7.40774 7.91995 7.38535 7.91995 7.35774C7.91995 7.33013 7.89756 7.30774 7.86995 7.30774C7.84233 7.30774 7.81995 7.33013 7.81995 7.35774C7.81995 7.38535 7.84233 7.40774 7.86995 7.40774Z" fill="white"/>
<path d="M8.14668 7.40774C8.17429 7.40774 8.19668 7.38535 8.19668 7.35774C8.19668 7.33013 8.17429 7.30774 8.14668 7.30774C8.11907 7.30774 8.09668 7.33013 8.09668 7.35774C8.09668 7.38535 8.11907 7.40774 8.14668 7.40774Z" fill="white"/>
<path d="M8.00667 7.54104C8.03428 7.54104 8.05667 7.51865 8.05667 7.49104C8.05667 7.46343 8.03428 7.44104 8.00667 7.44104C7.97905 7.44104 7.95667 7.46343 7.95667 7.49104C7.95667 7.51865 7.97905 7.54104 8.00667 7.54104Z" fill="white"/>
<path d="M7.86995 7.68106C7.89756 7.68106 7.91995 7.65867 7.91995 7.63105C7.91995 7.60344 7.89756 7.58105 7.86995 7.58105C7.84233 7.58105 7.81995 7.60344 7.81995 7.63105C7.81995 7.65867 7.84233 7.68106 7.86995 7.68106Z" fill="white"/>
<path d="M8.14668 7.68106C8.17429 7.68106 8.19668 7.65867 8.19668 7.63105C8.19668 7.60344 8.17429 7.58105 8.14668 7.58105C8.11907 7.58105 8.09668 7.60344 8.09668 7.63105C8.09668 7.65867 8.11907 7.68106 8.14668 7.68106Z" fill="white"/>
<path d="M7.75331 6.71437C7.7527 6.78472 7.77893 6.85267 7.82664 6.90437C7.8489 6.92926 7.87611 6.94924 7.90653 6.96301C7.93695 6.97679 7.96991 6.98406 8.00331 6.98437C8.07331 6.98437 8.13664 6.95104 8.17997 6.90437C8.22769 6.85267 8.25391 6.78472 8.25331 6.71437V6.35437H7.75331V6.71437Z" fill="#003399"/>
<path d="M7.86995 6.54104C7.89756 6.54104 7.91995 6.51865 7.91995 6.49104C7.91995 6.46343 7.89756 6.44104 7.86995 6.44104C7.84233 6.44104 7.81995 6.46343 7.81995 6.49104C7.81995 6.51865 7.84233 6.54104 7.86995 6.54104Z" fill="white"/>
<path d="M8.14668 6.54104C8.17429 6.54104 8.19668 6.51865 8.19668 6.49104C8.19668 6.46343 8.17429 6.44104 8.14668 6.44104C8.11907 6.44104 8.09668 6.46343 8.09668 6.49104C8.09668 6.51865 8.11907 6.54104 8.14668 6.54104Z" fill="white"/>
<path d="M8.00667 6.67434C8.03428 6.67434 8.05667 6.65196 8.05667 6.62434C8.05667 6.59673 8.03428 6.57434 8.00667 6.57434C7.97905 6.57434 7.95667 6.59673 7.95667 6.62434C7.95667 6.65196 7.97905 6.67434 8.00667 6.67434Z" fill="white"/>
<path d="M7.86995 6.81436C7.89756 6.81436 7.91995 6.79197 7.91995 6.76436C7.91995 6.73674 7.89756 6.71436 7.86995 6.71436C7.84233 6.71436 7.81995 6.73674 7.81995 6.76436C7.81995 6.79197 7.84233 6.81436 7.86995 6.81436Z" fill="white"/>
<path d="M8.14668 6.81436C8.17429 6.81436 8.19668 6.79197 8.19668 6.76436C8.19668 6.73674 8.17429 6.71436 8.14668 6.71436C8.11907 6.71436 8.09668 6.73674 8.09668 6.76436C8.09668 6.79197 8.11907 6.81436 8.14668 6.81436Z" fill="white"/>
<path d="M7.06007 7.58107C7.05947 7.65142 7.08569 7.71937 7.1334 7.77107C7.15566 7.79596 7.18287 7.81593 7.2133 7.82971C7.24372 7.84349 7.27668 7.85076 7.31007 7.85107C7.38007 7.85107 7.4434 7.81774 7.48674 7.77107C7.53445 7.71937 7.56067 7.65142 7.56007 7.58107V7.22107H7.06007V7.58107Z" fill="#003399"/>
<path d="M7.17671 7.40774C7.20432 7.40774 7.22671 7.38535 7.22671 7.35774C7.22671 7.33013 7.20432 7.30774 7.17671 7.30774C7.14909 7.30774 7.12671 7.33013 7.12671 7.35774C7.12671 7.38535 7.14909 7.40774 7.17671 7.40774Z" fill="white"/>
<path d="M7.45344 7.40774C7.48106 7.40774 7.50344 7.38535 7.50344 7.35774C7.50344 7.33013 7.48106 7.30774 7.45344 7.30774C7.42583 7.30774 7.40344 7.33013 7.40344 7.35774C7.40344 7.38535 7.42583 7.40774 7.45344 7.40774Z" fill="white"/>
<path d="M7.31343 7.54104C7.34104 7.54104 7.36343 7.51865 7.36343 7.49104C7.36343 7.46343 7.34104 7.44104 7.31343 7.44104C7.28581 7.44104 7.26343 7.46343 7.26343 7.49104C7.26343 7.51865 7.28581 7.54104 7.31343 7.54104Z" fill="white"/>
<path d="M7.17671 7.68106C7.20432 7.68106 7.22671 7.65867 7.22671 7.63105C7.22671 7.60344 7.20432 7.58105 7.17671 7.58105C7.14909 7.58105 7.12671 7.60344 7.12671 7.63105C7.12671 7.65867 7.14909 7.68106 7.17671 7.68106Z" fill="white"/>
<path d="M7.45344 7.68106C7.48106 7.68106 7.50344 7.65867 7.50344 7.63105C7.50344 7.60344 7.48106 7.58105 7.45344 7.58105C7.42583 7.58105 7.40344 7.60344 7.40344 7.63105C7.40344 7.65867 7.42583 7.68106 7.45344 7.68106Z" fill="white"/>
<path d="M8.44667 7.58107C8.44606 7.65142 8.47228 7.71937 8.52 7.77107C8.54226 7.79596 8.56947 7.81593 8.59989 7.82971C8.63031 7.84349 8.66327 7.85076 8.69667 7.85107C8.76667 7.85107 8.83 7.81774 8.87333 7.77107C8.92105 7.71937 8.94727 7.65142 8.94667 7.58107V7.22107H8.44667V7.58107Z" fill="#003399"/>
<path d="M8.56331 7.40774C8.59092 7.40774 8.61331 7.38535 8.61331 7.35774C8.61331 7.33013 8.59092 7.30774 8.56331 7.30774C8.53569 7.30774 8.51331 7.33013 8.51331 7.35774C8.51331 7.38535 8.53569 7.40774 8.56331 7.40774Z" fill="white"/>
<path d="M8.84004 7.40774C8.86765 7.40774 8.89004 7.38535 8.89004 7.35774C8.89004 7.33013 8.86765 7.30774 8.84004 7.30774C8.81242 7.30774 8.79004 7.33013 8.79004 7.35774C8.79004 7.38535 8.81242 7.40774 8.84004 7.40774Z" fill="white"/>
<path d="M8.70002 7.54104C8.72764 7.54104 8.75002 7.51865 8.75002 7.49104C8.75002 7.46343 8.72764 7.44104 8.70002 7.44104C8.67241 7.44104 8.65002 7.46343 8.65002 7.49104C8.65002 7.51865 8.67241 7.54104 8.70002 7.54104Z" fill="white"/>
<path d="M8.56331 7.68106C8.59092 7.68106 8.61331 7.65867 8.61331 7.63105C8.61331 7.60344 8.59092 7.58105 8.56331 7.58105C8.53569 7.58105 8.51331 7.60344 8.51331 7.63105C8.51331 7.65867 8.53569 7.68106 8.56331 7.68106Z" fill="white"/>
<path d="M8.84004 7.68106C8.86765 7.68106 8.89004 7.65867 8.89004 7.63105C8.89004 7.60344 8.86765 7.58105 8.84004 7.58105C8.81242 7.58105 8.79004 7.60344 8.79004 7.63105C8.79004 7.65867 8.81242 7.68106 8.84004 7.68106Z" fill="white"/>
<path d="M7.75331 8.44106C7.7527 8.51141 7.77893 8.57935 7.82664 8.63106C7.8489 8.65595 7.87611 8.67592 7.90653 8.6897C7.93695 8.70347 7.96991 8.71075 8.00331 8.71106C8.07331 8.71106 8.13664 8.67772 8.17997 8.63106C8.22769 8.57935 8.25391 8.51141 8.25331 8.44106V8.08105H7.75331V8.44106Z" fill="#003399"/>
<path d="M7.86995 8.26772C7.89756 8.26772 7.91995 8.24534 7.91995 8.21772C7.91995 8.19011 7.89756 8.16772 7.86995 8.16772C7.84233 8.16772 7.81995 8.19011 7.81995 8.21772C7.81995 8.24534 7.84233 8.26772 7.86995 8.26772Z" fill="white"/>
<path d="M8.14668 8.26772C8.17429 8.26772 8.19668 8.24534 8.19668 8.21772C8.19668 8.19011 8.17429 8.16772 8.14668 8.16772C8.11907 8.16772 8.09668 8.19011 8.09668 8.21772C8.09668 8.24534 8.11907 8.26772 8.14668 8.26772Z" fill="white"/>
<path d="M8.00667 8.40103C8.03428 8.40103 8.05667 8.37864 8.05667 8.35103C8.05667 8.32341 8.03428 8.30103 8.00667 8.30103C7.97905 8.30103 7.95667 8.32341 7.95667 8.35103C7.95667 8.37864 7.97905 8.40103 8.00667 8.40103Z" fill="white"/>
<path d="M7.86995 8.54104C7.89756 8.54104 7.91995 8.51865 7.91995 8.49104C7.91995 8.46343 7.89756 8.44104 7.86995 8.44104C7.84233 8.44104 7.81995 8.46343 7.81995 8.49104C7.81995 8.51865 7.84233 8.54104 7.86995 8.54104Z" fill="white"/>
<path d="M8.14668 8.54104C8.17429 8.54104 8.19668 8.51865 8.19668 8.49104C8.19668 8.46343 8.17429 8.44104 8.14668 8.44104C8.11907 8.44104 8.09668 8.46343 8.09668 8.49104C8.09668 8.51865 8.11907 8.54104 8.14668 8.54104Z" fill="white"/>
</g>
<defs>
<clipPath id="clip0_14_369">
<rect width="20" height="15" fill="white"/>
</clipPath>
</defs>
</svg>
