<svg width="20" height="15" viewBox="0 0 20 15" fill="none" xmlns="http://www.w3.org/2000/svg">
<mask id="mask0_1825_44231" style="mask-type:luminance" maskUnits="userSpaceOnUse" x="0" y="0" width="20" height="15">
<rect width="20" height="15" fill="white"/>
</mask>
<g mask="url(#mask0_1825_44231)">
<path fill-rule="evenodd" clip-rule="evenodd" d="M5 0H20V15H5V0Z" fill="#EF0000"/>
<path fill-rule="evenodd" clip-rule="evenodd" d="M0 0H7.5V15H0V0Z" fill="#2F8D00"/>
<mask id="mask1_1825_44231" style="mask-type:luminance" maskUnits="userSpaceOnUse" x="2" y="2" width="11" height="11">
<path fill-rule="evenodd" clip-rule="evenodd" d="M7.44057 12.3795C4.77777 12.3795 2.61914 10.1949 2.61914 7.5C2.61914 4.80512 4.77777 2.62048 7.44057 2.62048C10.1034 2.62048 12.262 4.80512 12.262 7.5C12.262 10.1949 10.1034 12.3795 7.44057 12.3795Z" fill="white"/>
</mask>
<g mask="url(#mask1_1825_44231)">
<path fill-rule="evenodd" clip-rule="evenodd" d="M7.14307 2.5H7.76807V4.18675H7.14307V2.5Z" fill="#FFE017"/>
<path fill-rule="evenodd" clip-rule="evenodd" d="M7.14307 10.9337H7.76807V12.5H7.14307V10.9337Z" fill="#FFE017"/>
<path d="M2.69671 7.75239L2.52197 7.30409C4.45021 6.53429 5.90556 6.03784 6.89306 5.81411C8.34188 5.48585 9.9338 5.24299 11.6689 5.08533L11.7115 5.56532C9.99629 5.72117 8.42478 5.96093 6.99709 6.2844C6.03899 6.50147 4.60385 6.99102 2.69671 7.75239Z" fill="#FFE017"/>
<path d="M11.9632 4.78993L11.8214 5.25C10.3641 4.78993 9.17694 4.59216 8.26443 4.65342L8.23291 4.17255C9.21265 4.10678 10.4546 4.31367 11.9632 4.78993Z" fill="#FFE017"/>
<path d="M12.4673 7.36233L12.1979 7.75973C11.455 7.24394 10.5397 6.98486 9.4458 6.98486V6.50293C10.6317 6.50293 11.6409 6.78861 12.4673 7.36233Z" fill="#FFE017"/>
<path d="M12.0639 7.50659L12.187 7.97213C10.5854 8.40597 9.08167 8.65211 7.67576 8.71007C6.26016 8.76843 4.61025 8.52141 2.72461 7.97089L2.8566 7.50784C4.69641 8.04499 6.29681 8.28459 7.65638 8.22854C9.02564 8.17209 10.4949 7.9316 12.0639 7.50659Z" fill="#FFE017"/>
<path d="M11.8826 9.77246L11.1299 10.5441C9.69945 9.11503 8.44012 8.09317 7.35964 7.47919C6.26069 6.85472 4.82757 6.22061 3.0625 5.57942L3.42447 4.55884C5.2416 5.21893 6.72743 5.87637 7.88419 6.5337C9.05942 7.20152 10.3896 8.2809 11.8826 9.77246Z" fill="#FFE017"/>
<path d="M3.41138 10.2096L3.12646 9.82341C3.16625 9.79334 3.23724 9.7432 3.33506 9.67966C3.49656 9.57474 3.67589 9.46999 3.86884 9.37211C4.40029 9.10252 4.93337 8.9342 5.44182 8.91874C5.46669 8.91798 5.49145 8.9176 5.5161 8.9176V9.39953C5.49624 9.39953 5.47625 9.39984 5.45612 9.40045C5.02764 9.41348 4.5571 9.56205 4.08223 9.80294C3.90523 9.89273 3.74031 9.98906 3.5923 10.0852C3.54078 10.1187 3.49519 10.1496 3.45613 10.1772C3.43336 10.1933 3.41825 10.2044 3.41138 10.2096Z" fill="#FFE017"/>
<path d="M3.63281 10.3767L3.75273 9.91026C5.34031 10.3283 6.56423 10.5367 7.41841 10.5367C8.2694 10.5367 9.53602 10.2909 11.21 9.79773L11.3431 10.2604C9.62953 10.7653 8.32403 11.0186 7.41841 11.0186C6.51599 11.0186 5.25616 10.8042 3.63281 10.3767Z" fill="#FFE017"/>
<path d="M3.01416 6.05902L3.76858 5.28906L4.87316 6.39759L4.11874 7.16755L3.01416 6.05902Z" fill="#FFE017"/>
<path d="M9.27246 9.9048L9.83361 8.98108L11.5859 10.0714L11.0247 10.9951L9.27246 9.9048Z" fill="#FFE017"/>
</g>
<path fill-rule="evenodd" clip-rule="evenodd" d="M2.61914 7.5C2.61914 10.1949 4.77777 12.3795 7.44057 12.3795C10.1034 12.3795 12.262 10.1949 12.262 7.5C12.262 4.80512 10.1034 2.62048 7.44057 2.62048C4.77777 2.62048 2.61914 4.80512 2.61914 7.5ZM11.6668 7.56024C11.6668 9.88915 9.80128 11.7771 7.50009 11.7771C5.19891 11.7771 3.33343 9.88915 3.33343 7.56024C3.33343 5.23133 5.19891 3.34337 7.50009 3.34337C9.80128 3.34337 11.6668 5.23133 11.6668 7.56024Z" fill="#F9E813"/>
<path d="M4.78516 4.49084V8.40379C5.04274 9.95259 5.91053 10.727 7.38852 10.727C8.86652 10.727 9.73431 9.95259 9.99189 8.40379V4.49084H4.78516Z" fill="white"/>
<path d="M4.42822 4.12939H10.3492V8.43399L10.3443 8.46378C10.0583 10.1836 9.04429 11.0884 7.38873 11.0884C5.73318 11.0884 4.7192 10.1836 4.43318 8.46378L4.42822 8.43399V4.12939Z" fill="#C51918"/>
<path d="M5.78271 5.44421H8.99504V8.21977C8.99504 8.21977 8.75667 9.65309 7.38888 9.65309C6.02109 9.65309 5.78271 8.21977 5.78271 8.21977V5.44421Z" fill="#F7FCFF"/>
<path fill-rule="evenodd" clip-rule="evenodd" d="M5 4.42773H5.45181V4.72894H5V4.42773Z" fill="#F9E813"/>
<path fill-rule="evenodd" clip-rule="evenodd" d="M4.76172 4.54822H5.59505V4.69882H4.76172V4.54822Z" fill="#060101"/>
<path fill-rule="evenodd" clip-rule="evenodd" d="M4.76172 4.6687H5.21353V4.8193H4.76172V4.6687Z" fill="#F9E813"/>
<path fill-rule="evenodd" clip-rule="evenodd" d="M5.23779 4.6687H5.6896V4.8193H5.23779V4.6687Z" fill="#F9E813"/>
<path fill-rule="evenodd" clip-rule="evenodd" d="M4.76172 5.03015H5.06292V5.48196H4.76172V5.03015Z" fill="#F9E813"/>
<path fill-rule="evenodd" clip-rule="evenodd" d="M5.35693 5.03015H5.65814V5.48196H5.35693V5.03015Z" fill="#F9E813"/>
<path fill-rule="evenodd" clip-rule="evenodd" d="M5.11865 5.03015H5.26925V5.48196H5.11865V5.03015Z" fill="#F9E813"/>
<path fill-rule="evenodd" clip-rule="evenodd" d="M4.76172 4.90967H5.59505V5.06027H4.76172V4.90967Z" fill="#060101"/>
<path fill-rule="evenodd" clip-rule="evenodd" d="M4.76172 5.27112H5.59505V5.42172H4.76172V5.27112Z" fill="#060101"/>
<path fill-rule="evenodd" clip-rule="evenodd" d="M4.88086 4.78918H5.03146V4.93979H4.88086V4.78918Z" fill="#F9E813"/>
<path fill-rule="evenodd" clip-rule="evenodd" d="M5.35693 4.78918H5.50754V4.93979H5.35693V4.78918Z" fill="#F9E813"/>
<path fill-rule="evenodd" clip-rule="evenodd" d="M5.11865 4.6687H5.26925V4.96991H5.11865V4.6687Z" fill="#F9E813"/>
<path fill-rule="evenodd" clip-rule="evenodd" d="M7.26172 4.42773H7.71353V4.72894H7.26172V4.42773Z" fill="#F9E813"/>
<path fill-rule="evenodd" clip-rule="evenodd" d="M7.02344 4.54822H7.85677V4.69882H7.02344V4.54822Z" fill="#060101"/>
<path fill-rule="evenodd" clip-rule="evenodd" d="M7.02344 4.6687H7.47524V4.8193H7.02344V4.6687Z" fill="#F9E813"/>
<path fill-rule="evenodd" clip-rule="evenodd" d="M7.49951 4.6687H7.95132V4.8193H7.49951V4.6687Z" fill="#F9E813"/>
<path fill-rule="evenodd" clip-rule="evenodd" d="M7.02344 5.03015H7.32464V5.48196H7.02344V5.03015Z" fill="#F9E813"/>
<path fill-rule="evenodd" clip-rule="evenodd" d="M7.61865 5.03015H7.91986V5.48196H7.61865V5.03015Z" fill="#F9E813"/>
<path fill-rule="evenodd" clip-rule="evenodd" d="M7.38037 5.03015H7.53097V5.48196H7.38037V5.03015Z" fill="#F9E813"/>
<path fill-rule="evenodd" clip-rule="evenodd" d="M7.02344 4.90967H7.85677V5.06027H7.02344V4.90967Z" fill="#060101"/>
<path fill-rule="evenodd" clip-rule="evenodd" d="M7.02344 5.27112H7.85677V5.42172H7.02344V5.27112Z" fill="#060101"/>
<path fill-rule="evenodd" clip-rule="evenodd" d="M7.14258 4.78918H7.29318V4.93979H7.14258V4.78918Z" fill="#F9E813"/>
<path fill-rule="evenodd" clip-rule="evenodd" d="M7.61865 4.78918H7.76925V4.93979H7.61865V4.78918Z" fill="#F9E813"/>
<path fill-rule="evenodd" clip-rule="evenodd" d="M7.38037 4.6687H7.53097V4.96991H7.38037V4.6687Z" fill="#F9E813"/>
<path fill-rule="evenodd" clip-rule="evenodd" d="M9.40479 4.42773H9.85659V4.72894H9.40479V4.42773Z" fill="#F9E813"/>
<path fill-rule="evenodd" clip-rule="evenodd" d="M9.1665 4.54822H9.99984V4.69882H9.1665V4.54822Z" fill="#060101"/>
<path fill-rule="evenodd" clip-rule="evenodd" d="M9.1665 4.6687H9.61831V4.8193H9.1665V4.6687Z" fill="#F9E813"/>
<path fill-rule="evenodd" clip-rule="evenodd" d="M9.64258 4.6687H10.0944V4.8193H9.64258V4.6687Z" fill="#F9E813"/>
<path fill-rule="evenodd" clip-rule="evenodd" d="M9.1665 5.03015H9.46771V5.48196H9.1665V5.03015Z" fill="#F9E813"/>
<path fill-rule="evenodd" clip-rule="evenodd" d="M9.76172 5.03015H10.0629V5.48196H9.76172V5.03015Z" fill="#F9E813"/>
<path fill-rule="evenodd" clip-rule="evenodd" d="M9.52344 5.03015H9.67404V5.48196H9.52344V5.03015Z" fill="#F9E813"/>
<path fill-rule="evenodd" clip-rule="evenodd" d="M9.1665 4.90967H9.99984V5.06027H9.1665V4.90967Z" fill="#060101"/>
<path fill-rule="evenodd" clip-rule="evenodd" d="M9.1665 5.27112H9.99984V5.42172H9.1665V5.27112Z" fill="#060101"/>
<path fill-rule="evenodd" clip-rule="evenodd" d="M9.28564 4.78918H9.43625V4.93979H9.28564V4.78918Z" fill="#F9E813"/>
<path fill-rule="evenodd" clip-rule="evenodd" d="M9.76172 4.78918H9.91232V4.93979H9.76172V4.78918Z" fill="#F9E813"/>
<path fill-rule="evenodd" clip-rule="evenodd" d="M9.52344 4.6687H9.67404V4.96991H9.52344V4.6687Z" fill="#F9E813"/>
<path fill-rule="evenodd" clip-rule="evenodd" d="M9.40479 6.59644H9.85659V6.89764H9.40479V6.59644Z" fill="#F9E813"/>
<path fill-rule="evenodd" clip-rule="evenodd" d="M9.1665 6.71692H9.99984V6.86752H9.1665V6.71692Z" fill="#060101"/>
<path fill-rule="evenodd" clip-rule="evenodd" d="M9.1665 6.8374H9.61831V6.988H9.1665V6.8374Z" fill="#F9E813"/>
<path fill-rule="evenodd" clip-rule="evenodd" d="M9.64258 6.8374H10.0944V6.988H9.64258V6.8374Z" fill="#F9E813"/>
<path fill-rule="evenodd" clip-rule="evenodd" d="M9.1665 7.19885H9.46771V7.65066H9.1665V7.19885Z" fill="#F9E813"/>
<path fill-rule="evenodd" clip-rule="evenodd" d="M9.76172 7.19885H10.0629V7.65066H9.76172V7.19885Z" fill="#F9E813"/>
<path fill-rule="evenodd" clip-rule="evenodd" d="M9.52344 7.19885H9.67404V7.65066H9.52344V7.19885Z" fill="#F9E813"/>
<path fill-rule="evenodd" clip-rule="evenodd" d="M9.1665 7.07837H9.99984V7.22897H9.1665V7.07837Z" fill="#060101"/>
<path fill-rule="evenodd" clip-rule="evenodd" d="M9.1665 7.43982H9.99984V7.59042H9.1665V7.43982Z" fill="#060101"/>
<path fill-rule="evenodd" clip-rule="evenodd" d="M9.28564 6.95789H9.43625V7.10849H9.28564V6.95789Z" fill="#F9E813"/>
<path fill-rule="evenodd" clip-rule="evenodd" d="M9.76172 6.95789H9.91232V7.10849H9.76172V6.95789Z" fill="#F9E813"/>
<path fill-rule="evenodd" clip-rule="evenodd" d="M9.52344 6.8374H9.67404V7.13861H9.52344V6.8374Z" fill="#F9E813"/>
<path fill-rule="evenodd" clip-rule="evenodd" d="M5 6.59644H5.45181V6.89764H5V6.59644Z" fill="#F9E813"/>
<path fill-rule="evenodd" clip-rule="evenodd" d="M4.76172 6.71692H5.59505V6.86752H4.76172V6.71692Z" fill="#060101"/>
<path fill-rule="evenodd" clip-rule="evenodd" d="M4.76172 6.8374H5.21353V6.988H4.76172V6.8374Z" fill="#F9E813"/>
<path fill-rule="evenodd" clip-rule="evenodd" d="M5.23779 6.8374H5.6896V6.988H5.23779V6.8374Z" fill="#F9E813"/>
<path fill-rule="evenodd" clip-rule="evenodd" d="M4.76172 7.19885H5.06292V7.65066H4.76172V7.19885Z" fill="#F9E813"/>
<path fill-rule="evenodd" clip-rule="evenodd" d="M5.35693 7.19885H5.65814V7.65066H5.35693V7.19885Z" fill="#F9E813"/>
<path fill-rule="evenodd" clip-rule="evenodd" d="M5.11865 7.19885H5.26925V7.65066H5.11865V7.19885Z" fill="#F9E813"/>
<path fill-rule="evenodd" clip-rule="evenodd" d="M4.76172 7.07837H5.59505V7.22897H4.76172V7.07837Z" fill="#060101"/>
<path fill-rule="evenodd" clip-rule="evenodd" d="M4.76172 7.43982H5.59505V7.59042H4.76172V7.43982Z" fill="#060101"/>
<path fill-rule="evenodd" clip-rule="evenodd" d="M4.88086 6.95789H5.03146V7.10849H4.88086V6.95789Z" fill="#F9E813"/>
<path fill-rule="evenodd" clip-rule="evenodd" d="M5.35693 6.95789H5.50754V7.10849H5.35693V6.95789Z" fill="#F9E813"/>
<path fill-rule="evenodd" clip-rule="evenodd" d="M5.11865 6.8374H5.26925V7.13861H5.11865V6.8374Z" fill="#F9E813"/>
<path fill-rule="evenodd" clip-rule="evenodd" d="M5.28955 9.31506L5.57997 8.96896L5.8107 9.16257L5.52029 9.50867L5.28955 9.31506Z" fill="#F9E813"/>
<path fill-rule="evenodd" clip-rule="evenodd" d="M5.229 9.57483L5.76466 8.93646L5.88003 9.03326L5.34437 9.67163L5.229 9.57483Z" fill="#060101"/>
<path fill-rule="evenodd" clip-rule="evenodd" d="M5.32129 9.65234L5.61171 9.30624L5.72707 9.40304L5.43666 9.74915L5.32129 9.65234Z" fill="#F9E813"/>
<path fill-rule="evenodd" clip-rule="evenodd" d="M5.62744 9.2876L5.91786 8.94149L6.03323 9.0383L5.74281 9.3844L5.62744 9.2876Z" fill="#F9E813"/>
<path fill-rule="evenodd" clip-rule="evenodd" d="M5.59814 9.88464L5.79176 9.65391L6.13786 9.94432L5.94425 10.1751L5.59814 9.88464Z" fill="#F9E813"/>
<path fill-rule="evenodd" clip-rule="evenodd" d="M5.98096 9.42871L6.17457 9.19797L6.52067 9.48839L6.32706 9.71913L5.98096 9.42871Z" fill="#F9E813"/>
<path fill-rule="evenodd" clip-rule="evenodd" d="M5.82764 9.61108L5.92444 9.49572L6.27055 9.78613L6.17374 9.9015L5.82764 9.61108Z" fill="#F9E813"/>
<path fill-rule="evenodd" clip-rule="evenodd" d="M5.50586 9.80725L6.04152 9.16888L6.15688 9.26569L5.62123 9.90406L5.50586 9.80725Z" fill="#060101"/>
<path fill-rule="evenodd" clip-rule="evenodd" d="M5.78271 10.0396L6.31837 9.40118L6.43374 9.49799L5.89808 10.1364L5.78271 10.0396Z" fill="#060101"/>
<path fill-rule="evenodd" clip-rule="evenodd" d="M5.49023 9.63855L5.58704 9.52318L5.70241 9.61999L5.6056 9.73536L5.49023 9.63855Z" fill="#F9E813"/>
<path fill-rule="evenodd" clip-rule="evenodd" d="M5.79639 9.2738L5.89319 9.15844L6.00856 9.25524L5.91175 9.37061L5.79639 9.2738Z" fill="#F9E813"/>
<path fill-rule="evenodd" clip-rule="evenodd" d="M5.55078 9.37878L5.64759 9.26342L5.87832 9.45703L5.78152 9.57239L5.55078 9.37878Z" fill="#F9E813"/>
<path fill-rule="evenodd" clip-rule="evenodd" d="M9.36133 9.04138L9.65174 9.38749L9.42101 9.5811L9.13059 9.23499L9.36133 9.04138Z" fill="#F9E813"/>
<path fill-rule="evenodd" clip-rule="evenodd" d="M9.11621 8.9364L9.65187 9.57477L9.5365 9.67158L9.00084 9.03321L9.11621 8.9364Z" fill="#060101"/>
<path fill-rule="evenodd" clip-rule="evenodd" d="M9.02393 9.01392L9.31434 9.36002L9.19897 9.45683L8.90856 9.11072L9.02393 9.01392Z" fill="#F9E813"/>
<path fill-rule="evenodd" clip-rule="evenodd" d="M9.33008 9.37866L9.62049 9.72477L9.50513 9.82157L9.21471 9.47547L9.33008 9.37866Z" fill="#F9E813"/>
<path fill-rule="evenodd" clip-rule="evenodd" d="M8.74707 9.24622L8.94068 9.47695L8.59458 9.76737L8.40097 9.53663L8.74707 9.24622Z" fill="#F9E813"/>
<path fill-rule="evenodd" clip-rule="evenodd" d="M9.12939 9.70215L9.32301 9.93288L8.9769 10.2233L8.78329 9.99256L9.12939 9.70215Z" fill="#F9E813"/>
<path fill-rule="evenodd" clip-rule="evenodd" d="M8.97656 9.51978L9.07337 9.63514L8.72726 9.92556L8.63046 9.81019L8.97656 9.51978Z" fill="#F9E813"/>
<path fill-rule="evenodd" clip-rule="evenodd" d="M8.83936 9.16882L9.37501 9.80719L9.25964 9.904L8.72399 9.26563L8.83936 9.16882Z" fill="#060101"/>
<path fill-rule="evenodd" clip-rule="evenodd" d="M8.5625 9.40112L9.09816 10.0395L8.98279 10.1363L8.44713 9.49793L8.5625 9.40112Z" fill="#060101"/>
<path fill-rule="evenodd" clip-rule="evenodd" d="M9.0083 9.1825L9.10511 9.29786L8.98974 9.39467L8.89293 9.2793L9.0083 9.1825Z" fill="#F9E813"/>
<path fill-rule="evenodd" clip-rule="evenodd" d="M9.31445 9.54736L9.41126 9.66273L9.29589 9.75954L9.19908 9.64417L9.31445 9.54736Z" fill="#F9E813"/>
<path fill-rule="evenodd" clip-rule="evenodd" d="M9.25342 9.28748L9.35022 9.40284L9.11949 9.59645L9.02268 9.48109L9.25342 9.28748Z" fill="#F9E813"/>
<path fill-rule="evenodd" clip-rule="evenodd" d="M7.84913 5.75305H7.02393V6.35397C7.02393 6.35397 7.08516 6.66429 7.43653 6.66429C7.7879 6.66429 7.84913 6.35397 7.84913 6.35397V5.75305ZM7.38107 5.99402C7.38107 6.06056 7.32777 6.1145 7.26202 6.1145C7.19627 6.1145 7.14297 6.06056 7.14297 5.99402C7.14297 5.92748 7.19627 5.87353 7.26202 5.87353C7.32777 5.87353 7.38107 5.92748 7.38107 5.99402ZM7.26202 6.59643C7.32777 6.59643 7.38107 6.54248 7.38107 6.47594C7.38107 6.4094 7.32777 6.35546 7.26202 6.35546C7.19627 6.35546 7.14297 6.4094 7.14297 6.47594C7.14297 6.54248 7.19627 6.59643 7.26202 6.59643ZM7.73821 6.47594C7.73821 6.54248 7.68491 6.59643 7.61916 6.59643C7.55342 6.59643 7.50012 6.54248 7.50012 6.47594C7.50012 6.4094 7.55342 6.35546 7.61916 6.35546C7.68491 6.35546 7.73821 6.4094 7.73821 6.47594ZM7.44059 6.35546C7.50634 6.35546 7.55964 6.30152 7.55964 6.23498C7.55964 6.16844 7.50634 6.1145 7.44059 6.1145C7.37484 6.1145 7.32154 6.16844 7.32154 6.23498C7.32154 6.30152 7.37484 6.35546 7.44059 6.35546ZM7.73821 5.99402C7.73821 6.06056 7.68491 6.1145 7.61916 6.1145C7.55342 6.1145 7.50012 6.06056 7.50012 5.99402C7.50012 5.92748 7.55342 5.87353 7.61916 5.87353C7.68491 5.87353 7.73821 5.92748 7.73821 5.99402Z" fill="#013399"/>
<path fill-rule="evenodd" clip-rule="evenodd" d="M7.84913 7.07837H7.02393V7.67929C7.02393 7.67929 7.08516 7.98961 7.43653 7.98961C7.7879 7.98961 7.84913 7.67929 7.84913 7.67929V7.07837ZM7.38107 7.31933C7.38107 7.38587 7.32777 7.43981 7.26202 7.43981C7.19627 7.43981 7.14297 7.38587 7.14297 7.31933C7.14297 7.25279 7.19627 7.19885 7.26202 7.19885C7.32777 7.19885 7.38107 7.25279 7.38107 7.31933ZM7.26202 7.92174C7.32777 7.92174 7.38107 7.8678 7.38107 7.80126C7.38107 7.73472 7.32777 7.68078 7.26202 7.68078C7.19627 7.68078 7.14297 7.73472 7.14297 7.80126C7.14297 7.8678 7.19627 7.92174 7.26202 7.92174ZM7.73821 7.80126C7.73821 7.8678 7.68491 7.92174 7.61916 7.92174C7.55342 7.92174 7.50012 7.8678 7.50012 7.80126C7.50012 7.73472 7.55342 7.68078 7.61916 7.68078C7.68491 7.68078 7.73821 7.73472 7.73821 7.80126ZM7.44059 7.68078C7.50634 7.68078 7.55964 7.62684 7.55964 7.5603C7.55964 7.49376 7.50634 7.43981 7.44059 7.43981C7.37484 7.43981 7.32154 7.49376 7.32154 7.5603C7.32154 7.62684 7.37484 7.68078 7.44059 7.68078ZM7.73821 7.31933C7.73821 7.38587 7.68491 7.43981 7.61916 7.43981C7.55342 7.43981 7.50012 7.38587 7.50012 7.31933C7.50012 7.25279 7.55342 7.19885 7.61916 7.19885C7.68491 7.19885 7.73821 7.25279 7.73821 7.31933Z" fill="#013399"/>
<path fill-rule="evenodd" clip-rule="evenodd" d="M8.92042 7.07837H8.09521V7.67929C8.09521 7.67929 8.15645 7.98961 8.50782 7.98961C8.85919 7.98961 8.92042 7.67929 8.92042 7.67929V7.07837ZM8.45236 7.31933C8.45236 7.38587 8.39906 7.43981 8.33331 7.43981C8.26756 7.43981 8.21426 7.38587 8.21426 7.31933C8.21426 7.25279 8.26756 7.19885 8.33331 7.19885C8.39906 7.19885 8.45236 7.25279 8.45236 7.31933ZM8.33331 7.92174C8.39906 7.92174 8.45236 7.8678 8.45236 7.80126C8.45236 7.73472 8.39906 7.68078 8.33331 7.68078C8.26756 7.68078 8.21426 7.73472 8.21426 7.80126C8.21426 7.8678 8.26756 7.92174 8.33331 7.92174ZM8.8095 7.80126C8.8095 7.8678 8.7562 7.92174 8.69045 7.92174C8.6247 7.92174 8.57141 7.8678 8.57141 7.80126C8.57141 7.73472 8.6247 7.68078 8.69045 7.68078C8.7562 7.68078 8.8095 7.73472 8.8095 7.80126ZM8.51188 7.68078C8.57763 7.68078 8.63093 7.62684 8.63093 7.5603C8.63093 7.49376 8.57763 7.43981 8.51188 7.43981C8.44613 7.43981 8.39283 7.49376 8.39283 7.5603C8.39283 7.62684 8.44613 7.68078 8.51188 7.68078ZM8.8095 7.31933C8.8095 7.38587 8.7562 7.43981 8.69045 7.43981C8.6247 7.43981 8.57141 7.38587 8.57141 7.31933C8.57141 7.25279 8.6247 7.19885 8.69045 7.19885C8.7562 7.19885 8.8095 7.25279 8.8095 7.31933Z" fill="#013399"/>
<path fill-rule="evenodd" clip-rule="evenodd" d="M6.77736 7.07837H5.95215V7.67929C5.95215 7.67929 6.01338 7.98961 6.36475 7.98961C6.71612 7.98961 6.77736 7.67929 6.77736 7.67929V7.07837ZM6.30929 7.31933C6.30929 7.38587 6.25599 7.43981 6.19024 7.43981C6.1245 7.43981 6.0712 7.38587 6.0712 7.31933C6.0712 7.25279 6.1245 7.19885 6.19024 7.19885C6.25599 7.19885 6.30929 7.25279 6.30929 7.31933ZM6.19024 7.92174C6.25599 7.92174 6.30929 7.8678 6.30929 7.80126C6.30929 7.73472 6.25599 7.68078 6.19024 7.68078C6.1245 7.68078 6.0712 7.73472 6.0712 7.80126C6.0712 7.8678 6.1245 7.92174 6.19024 7.92174ZM6.66643 7.80126C6.66643 7.8678 6.61313 7.92174 6.54739 7.92174C6.48164 7.92174 6.42834 7.8678 6.42834 7.80126C6.42834 7.73472 6.48164 7.68078 6.54739 7.68078C6.61313 7.68078 6.66643 7.73472 6.66643 7.80126ZM6.36882 7.68078C6.43456 7.68078 6.48786 7.62684 6.48786 7.5603C6.48786 7.49376 6.43456 7.43981 6.36882 7.43981C6.30307 7.43981 6.24977 7.49376 6.24977 7.5603C6.24977 7.62684 6.30307 7.68078 6.36882 7.68078ZM6.66643 7.31933C6.66643 7.38587 6.61313 7.43981 6.54739 7.43981C6.48164 7.43981 6.42834 7.38587 6.42834 7.31933C6.42834 7.25279 6.48164 7.19885 6.54739 7.19885C6.61313 7.19885 6.66643 7.25279 6.66643 7.31933Z" fill="#013399"/>
<path fill-rule="evenodd" clip-rule="evenodd" d="M7.84913 8.40369H7.02393V9.00461C7.02393 9.00461 7.08516 9.31493 7.43653 9.31493C7.7879 9.31493 7.84913 9.00461 7.84913 9.00461V8.40369ZM7.38107 8.64465C7.38107 8.71119 7.32777 8.76513 7.26202 8.76513C7.19627 8.76513 7.14297 8.71119 7.14297 8.64465C7.14297 8.57811 7.19627 8.52417 7.26202 8.52417C7.32777 8.52417 7.38107 8.57811 7.38107 8.64465ZM7.26202 9.24706C7.32777 9.24706 7.38107 9.19312 7.38107 9.12658C7.38107 9.06004 7.32777 9.0061 7.26202 9.0061C7.19627 9.0061 7.14297 9.06004 7.14297 9.12658C7.14297 9.19312 7.19627 9.24706 7.26202 9.24706ZM7.73821 9.12658C7.73821 9.19312 7.68491 9.24706 7.61916 9.24706C7.55342 9.24706 7.50012 9.19312 7.50012 9.12658C7.50012 9.06004 7.55342 9.0061 7.61916 9.0061C7.68491 9.0061 7.73821 9.06004 7.73821 9.12658ZM7.44059 9.0061C7.50634 9.0061 7.55964 8.95215 7.55964 8.88561C7.55964 8.81907 7.50634 8.76513 7.44059 8.76513C7.37484 8.76513 7.32154 8.81907 7.32154 8.88561C7.32154 8.95215 7.37484 9.0061 7.44059 9.0061ZM7.73821 8.64465C7.73821 8.71119 7.68491 8.76513 7.61916 8.76513C7.55342 8.76513 7.50012 8.71119 7.50012 8.64465C7.50012 8.57811 7.55342 8.52417 7.61916 8.52417C7.68491 8.52417 7.73821 8.57811 7.73821 8.64465Z" fill="#013399"/>
</g>
</svg>
