<svg width="20" height="15" viewBox="0 0 20 15" fill="none" xmlns="http://www.w3.org/2000/svg">
<g clip-path="url(#clip0_14_514)">
<path d="M0 9.9906H20V15H0V9.9906Z" fill="#0038A8"/>
<path d="M0 5H20V10H0V5Z" fill="white"/>
<path d="M0 0H20V5H0V0Z" fill="#D52B1E"/>
<path d="M9.99888 9.41816C11.0583 9.41816 11.9171 8.55936 11.9171 7.49997C11.9171 6.44059 11.0583 5.58179 9.99888 5.58179C8.93949 5.58179 8.08069 6.44059 8.08069 7.49997C8.08069 8.55936 8.93949 9.41816 9.99888 9.41816Z" stroke="black" stroke-width="0.0800002"/>
<path d="M9.99891 9.07728C10.87 9.07728 11.5762 8.37111 11.5762 7.50001C11.5762 6.6289 10.87 5.92273 9.99891 5.92273C9.1278 5.92273 8.42163 6.6289 8.42163 7.50001C8.42163 8.37111 9.1278 9.07728 9.99891 9.07728Z" stroke="black" stroke-width="0.0363638"/>
<path d="M9.99889 8.70908C10.6667 8.70908 11.208 8.16775 11.208 7.49999C11.208 6.83222 10.6667 6.29089 9.99889 6.29089C9.33113 6.29089 8.78979 6.83222 8.78979 7.49999C8.78979 8.16775 9.33113 8.70908 9.99889 8.70908Z" stroke="black" stroke-width="0.029091"/>
<path d="M8.97808 8.24063L8.7562 8.37188L8.68745 8.25625C8.67784 8.2407 8.67047 8.22387 8.66558 8.20625C8.66205 8.19274 8.66315 8.17844 8.6687 8.16562C8.67495 8.15312 8.68433 8.14375 8.69995 8.13437C8.71245 8.12812 8.72183 8.125 8.73433 8.125C8.74612 8.12422 8.75793 8.12637 8.7687 8.13125L8.7937 8.15V8.10938L8.80308 8.09375L8.84995 8.02188L8.8937 8.1L8.84995 8.175L8.84058 8.2L8.8437 8.21875L8.84683 8.225L8.94058 8.17188L8.97808 8.24063ZM8.8062 8.25L8.78745 8.21875L8.77495 8.20313C8.77289 8.2011 8.77045 8.19951 8.76776 8.19844C8.76508 8.19737 8.76221 8.19683 8.75933 8.19687C8.75392 8.19618 8.74843 8.19728 8.7437 8.2L8.7312 8.21875C8.7312 8.225 8.73433 8.23438 8.7437 8.24688L8.75933 8.27813L8.8062 8.25ZM8.59683 8.07813L8.52808 7.875L8.5812 7.85625L8.62183 7.98438L8.66245 7.97188L8.62183 7.85313L8.67183 7.8375L8.71245 7.95313L8.75933 7.9375L8.71558 7.80625L8.77183 7.79063L8.84058 7.99688L8.59683 8.07813ZM8.5062 7.775L8.4937 7.64375C8.48745 7.6125 8.4937 7.59375 8.5062 7.57813C8.5187 7.55938 8.53745 7.55 8.56245 7.54688C8.58745 7.54688 8.60933 7.55 8.62495 7.56563C8.64058 7.57813 8.64995 7.60313 8.6562 7.63438L8.65933 7.67813L8.75308 7.66563L8.76558 7.74688L8.5062 7.775ZM8.60933 7.68125L8.6062 7.6625C8.6062 7.64688 8.59995 7.6375 8.5937 7.63125C8.59081 7.62855 8.58732 7.62658 8.58352 7.62549C8.57971 7.62441 8.57571 7.62424 8.57183 7.625C8.56424 7.62669 8.55755 7.63115 8.55308 7.6375C8.54683 7.64063 8.54683 7.65313 8.54683 7.66875L8.54995 7.69063L8.60933 7.68125ZM8.49995 7.29063L8.50933 7.20938L8.65933 7.22813C8.67453 7.22971 8.68933 7.23394 8.70308 7.24063C8.71558 7.24688 8.72808 7.25313 8.73433 7.26563C8.74683 7.275 8.74995 7.2875 8.75308 7.29688C8.75933 7.31563 8.75933 7.33437 8.7562 7.35625L8.74995 7.39688C8.74683 7.4125 8.74058 7.42188 8.73433 7.43125C8.72146 7.45149 8.70133 7.46603 8.67808 7.47188H8.63433L8.4812 7.45625L8.49058 7.37813L8.64683 7.39375C8.65933 7.39375 8.67183 7.39375 8.67808 7.3875C8.69058 7.38125 8.6937 7.36875 8.69683 7.35625C8.69785 7.34501 8.69449 7.33382 8.68745 7.325C8.6812 7.3125 8.6687 7.30938 8.6562 7.30625L8.49995 7.29063ZM8.5312 7.10313L8.58433 6.95938C8.59058 6.93438 8.60308 6.91875 8.6187 6.9125C8.62615 6.90805 8.63444 6.90519 8.64304 6.90411C8.65165 6.90304 8.66039 6.90376 8.6687 6.90625C8.68433 6.9125 8.6937 6.92187 8.69995 6.93437C8.7062 6.94375 8.70933 6.95312 8.70933 6.96562C8.7187 6.95 8.7312 6.94062 8.7437 6.93437C8.75781 6.9291 8.77334 6.9291 8.78745 6.93437C8.79977 6.93838 8.81071 6.94579 8.819 6.95574C8.82729 6.96569 8.83261 6.97779 8.83433 6.99063V7.02188L8.82495 7.05313L8.77808 7.18437L8.5312 7.10313ZM8.6562 7.05937L8.6687 7.025C8.6687 7.0125 8.67183 7.00313 8.6687 7C8.6687 6.99375 8.66245 6.9875 8.6562 6.98438C8.65327 6.98299 8.65007 6.98226 8.64683 6.98226C8.64358 6.98226 8.64038 6.98299 8.63745 6.98438C8.6312 6.99063 8.62495 6.99688 8.62183 7.00938L8.60933 7.04063L8.6562 7.05937ZM8.74995 7.09062L8.76558 7.05313C8.7687 7.04063 8.77183 7.03125 8.76558 7.02188C8.76307 7.01633 8.75863 7.01188 8.75308 7.00938C8.74975 7.00746 8.74598 7.00644 8.74214 7.00644C8.7383 7.00644 8.73453 7.00746 8.7312 7.00938L8.71558 7.0375L8.70308 7.075L8.74995 7.09062ZM8.6562 6.79063L8.69683 6.72188L8.86558 6.82188L8.92808 6.71562L8.98433 6.74687L8.87808 6.92188L8.6562 6.79063ZM8.81245 6.55312L8.86245 6.49062L9.06245 6.65625L9.01245 6.71875L8.81245 6.55312ZM9.15933 6.41875L9.22808 6.3875C9.23745 6.40625 9.24058 6.425 9.2437 6.44063C9.24454 6.45679 9.24132 6.4729 9.23433 6.4875C9.22535 6.50564 9.21255 6.52163 9.19683 6.53438C9.17977 6.55166 9.15806 6.56361 9.13433 6.56875C9.11394 6.57483 9.09222 6.57483 9.07183 6.56875C9.04677 6.55819 9.02513 6.54088 9.00933 6.51875C8.97808 6.4875 8.96558 6.45625 8.9687 6.42188C8.97046 6.40417 8.9758 6.387 8.98439 6.37143C8.99299 6.35585 9.00466 6.34218 9.0187 6.33125C9.03892 6.31376 9.06399 6.30285 9.09058 6.3C9.11245 6.29688 9.13745 6.3 9.16245 6.31563L9.1187 6.375C9.11306 6.37079 9.10671 6.36761 9.09995 6.36562C9.09276 6.3639 9.08527 6.3639 9.07808 6.36562C9.0709 6.3682 9.06447 6.3725 9.05933 6.37813C9.05258 6.38308 9.04728 6.38975 9.04399 6.39744C9.04069 6.40514 9.03951 6.41357 9.04058 6.42188C9.04058 6.43438 9.05308 6.45 9.06558 6.46562C9.08433 6.4875 9.09995 6.5 9.11558 6.50313C9.12808 6.50313 9.14058 6.50312 9.15308 6.49062C9.16558 6.48125 9.17183 6.47187 9.17183 6.45937C9.17183 6.44687 9.1687 6.43437 9.15933 6.41875ZM9.43433 6.31875L9.3562 6.3625L9.36558 6.40625L9.2937 6.44375L9.2562 6.17188L9.33433 6.13125L9.54058 6.3125L9.46558 6.35313L9.43433 6.31875ZM9.3937 6.27812L9.32495 6.20937L9.3437 6.30312L9.3937 6.27812ZM9.63745 6.0125L9.7562 5.99375C9.77477 5.99005 9.79388 5.99005 9.81245 5.99375C9.82808 5.99688 9.8437 6.00313 9.85308 6.01563C9.86245 6.02813 9.87495 6.0375 9.8812 6.05312C9.88745 6.06562 9.8937 6.08437 9.8937 6.1C9.89995 6.12812 9.89995 6.15 9.89683 6.1625C9.89397 6.17831 9.88755 6.19327 9.87808 6.20625C9.8702 6.21811 9.85945 6.22779 9.84683 6.23438C9.83196 6.24163 9.8162 6.24688 9.79995 6.25L9.68433 6.26875L9.63745 6.0125ZM9.72808 6.05625L9.75308 6.19688L9.77183 6.19375C9.78745 6.19062 9.79995 6.1875 9.80308 6.18125C9.81245 6.17813 9.81558 6.16875 9.8187 6.15938V6.11562C9.81245 6.0875 9.80308 6.07188 9.7937 6.0625C9.78433 6.05313 9.7687 6.05 9.74683 6.05312L9.72808 6.05625ZM9.97183 5.96875L10.1843 5.97813V6.03438L10.05 6.02812L10.0468 6.06875L10.1718 6.075L10.1687 6.12813L10.0437 6.12187V6.17188L10.1812 6.17812L10.1781 6.2375L9.95933 6.22813L9.97183 5.96875ZM10.2843 5.99375L10.3593 6.0125L10.3125 6.2L10.4375 6.23125L10.4187 6.29375L10.2218 6.24375L10.2843 5.99375ZM10.6968 6.13125L10.8125 6.2C10.8375 6.2125 10.8531 6.23125 10.8562 6.25C10.8625 6.26875 10.8562 6.29063 10.8468 6.3125C10.8415 6.32278 10.834 6.33176 10.8248 6.33878C10.8156 6.34581 10.805 6.35071 10.7937 6.35313C10.775 6.35625 10.75 6.35312 10.7218 6.33437L10.6843 6.3125L10.6343 6.39375L10.5656 6.35313L10.6968 6.13125ZM10.7093 6.26875L10.7281 6.27812L10.7593 6.2875C10.7632 6.28703 10.7669 6.28565 10.7702 6.28348C10.7734 6.28131 10.7761 6.27841 10.7781 6.275C10.7807 6.26795 10.7807 6.26018 10.7781 6.25313C10.7781 6.24375 10.7718 6.2375 10.7593 6.22813L10.7406 6.21875L10.7093 6.26875ZM10.9343 6.56875L10.8687 6.50625L10.8312 6.52812L10.7687 6.475L11.0187 6.35L11.0812 6.4125L10.975 6.66563L10.9125 6.60938L10.9343 6.56875ZM10.9593 6.51563L11.0031 6.42812L10.9187 6.47813L10.9593 6.51563ZM10.9906 6.6875L11.2062 6.54063L11.2781 6.65L11.3093 6.70313L11.3062 6.74062C11.2999 6.75523 11.2889 6.76732 11.275 6.775C11.2656 6.78438 11.2531 6.7875 11.2437 6.7875C11.2309 6.78882 11.2179 6.78666 11.2062 6.78125C11.2 6.78125 11.1906 6.77188 11.1812 6.76563L11.1875 6.7875L11.1812 6.80625C11.1797 6.81269 11.1776 6.81896 11.175 6.825L11.1343 6.89688L11.0843 6.825L11.125 6.74375L11.1343 6.72188C11.1351 6.71406 11.1328 6.70625 11.1281 6.7L11.125 6.69375L11.0375 6.75625L10.9906 6.6875ZM11.1625 6.66875L11.1843 6.69688L11.1968 6.70937C11.2031 6.71562 11.2062 6.71562 11.2125 6.71562C11.2179 6.71632 11.2233 6.71522 11.2281 6.7125C11.2309 6.71024 11.2332 6.70739 11.2348 6.70416C11.2364 6.70092 11.2373 6.69737 11.2375 6.69375C11.2375 6.6875 11.2375 6.67813 11.2281 6.66563L11.2062 6.6375L11.1625 6.66875ZM11.2437 7.05625L11.2125 6.96875L11.1656 6.975L11.1343 6.89688L11.4125 6.89375L11.4437 6.975L11.2406 7.1625L11.2093 7.08125L11.2437 7.05625ZM11.2906 7.01875L11.3656 6.95625L11.2687 6.96562L11.2906 7.01875ZM11.3562 7.3L11.4093 7.29375L11.4281 7.41563L11.3187 7.43125C11.3026 7.41448 11.2889 7.39555 11.2781 7.375C11.2686 7.35526 11.2623 7.33417 11.2593 7.3125C11.2537 7.28661 11.2548 7.25973 11.2625 7.23438C11.2714 7.21445 11.2854 7.19721 11.3031 7.18437C11.3233 7.1695 11.3469 7.15984 11.3718 7.15625C11.397 7.15219 11.4227 7.15434 11.4468 7.1625C11.4687 7.17118 11.4872 7.18648 11.5 7.20625C11.5125 7.225 11.5187 7.24688 11.525 7.275V7.3375C11.5225 7.35248 11.516 7.36652 11.5062 7.37813C11.4968 7.39063 11.4843 7.39688 11.4687 7.40625L11.4437 7.33125C11.4531 7.32813 11.4593 7.32188 11.4656 7.3125C11.4718 7.30313 11.4687 7.29375 11.4656 7.28125C11.4648 7.27381 11.4624 7.26663 11.4586 7.26016C11.4549 7.2537 11.4498 7.24811 11.4437 7.24375C11.4312 7.23438 11.4125 7.23125 11.3812 7.2375C11.3616 7.23905 11.3431 7.2467 11.3281 7.25938C11.3156 7.27188 11.3125 7.29063 11.3156 7.30625C11.3156 7.31563 11.3187 7.325 11.325 7.33125L11.3406 7.35625H11.3656L11.3562 7.3ZM11.525 7.675L11.5187 7.75625L11.3625 7.74375C11.3483 7.74182 11.3346 7.7376 11.3218 7.73125C11.3097 7.72526 11.2991 7.71674 11.2906 7.70625C11.282 7.69624 11.2756 7.68453 11.2718 7.67188C11.2664 7.65365 11.2643 7.6346 11.2656 7.61563L11.2718 7.575L11.2875 7.5375C11.2941 7.52766 11.3026 7.51917 11.3125 7.5125C11.3219 7.5062 11.3325 7.50194 11.3437 7.5C11.3579 7.49581 11.3726 7.49371 11.3875 7.49375L11.5437 7.50938L11.5343 7.5875L11.3781 7.575C11.3625 7.575 11.35 7.575 11.3437 7.58438C11.3391 7.58823 11.3353 7.593 11.3326 7.59837C11.3299 7.60375 11.3284 7.60962 11.3281 7.61563C11.3281 7.62813 11.3281 7.64063 11.3375 7.64688C11.3437 7.65625 11.3531 7.6625 11.3687 7.6625L11.525 7.675ZM11.2406 7.95L11.2687 7.8625L11.2312 7.8375L11.2562 7.75938L11.475 7.93438L11.4437 8.01563L11.1687 8.02813L11.1968 7.95H11.2406ZM11.3 7.95L11.3937 7.95313L11.3156 7.89688L11.3 7.95ZM11.3937 8.1625L11.3468 8.2375H11.2437L11.2906 8.32813L11.2468 8.40313L11.1687 8.24063L11.075 8.18438L11.1187 8.11563L11.2125 8.17188L11.3937 8.1625Z" fill="black"/>
<path d="M10.2531 6.60315C10.2531 6.60315 10.9844 6.91877 10.8563 7.56877C10.7313 8.21877 10.325 8.21252 10.1625 8.28752C10.0063 8.35627 9.89375 8.4594 9.83125 8.44377C9.76875 8.43127 9.68438 8.38127 9.68438 8.38127C9.68438 8.38127 9.67813 8.49065 9.80625 8.50627C9.93438 8.52815 10.1031 8.34065 10.1813 8.31877C10.2625 8.30002 10.7594 8.24377 10.8813 7.5844C11.0219 6.87815 10.2563 6.62502 10.2563 6.60315H10.2531Z" fill="#009B3A" stroke="black" stroke-width="0.005"/>
<path d="M10.6219 6.74376C10.624 6.76056 10.6242 6.77478 10.6226 6.78475C10.6209 6.79473 10.6174 6.80003 10.6124 6.80003C10.6075 6.80003 10.6014 6.79473 10.5947 6.78475C10.5881 6.77478 10.5813 6.76056 10.575 6.74376C10.5695 6.729 10.5647 6.71277 10.561 6.69655C10.5573 6.68034 10.5547 6.66466 10.5537 6.65097C10.5526 6.63728 10.553 6.62602 10.5549 6.61822C10.5568 6.61041 10.56 6.60632 10.5643 6.60632C10.5687 6.60632 10.5739 6.61041 10.5797 6.61822C10.5854 6.62602 10.5914 6.63728 10.5972 6.65097C10.6029 6.66466 10.6082 6.68034 10.6125 6.69655C10.6168 6.71277 10.62 6.729 10.6219 6.74376Z" fill="#009B3A" stroke="black" stroke-width="0.005"/>
<path d="M10.5969 6.75002C10.6032 6.7628 10.6089 6.77567 10.6137 6.78787C10.6184 6.80008 10.6221 6.81138 10.6246 6.82115C10.627 6.83092 10.6282 6.83895 10.628 6.84479C10.6277 6.85063 10.6261 6.85417 10.6233 6.85519C10.6204 6.85622 10.6163 6.85471 10.6112 6.85077C10.6061 6.84682 10.6002 6.84051 10.5937 6.8322C10.5871 6.82388 10.5802 6.81373 10.5733 6.80231C10.5663 6.79089 10.5594 6.77843 10.5531 6.76564C10.5403 6.73982 10.5303 6.71423 10.5254 6.69451C10.5204 6.67479 10.5209 6.66254 10.5267 6.66047C10.5325 6.6584 10.5431 6.66667 10.5563 6.68346C10.5695 6.70026 10.584 6.7242 10.5969 6.75002ZM10.525 6.79689C10.5476 6.80423 10.5682 6.81331 10.5829 6.82239C10.5975 6.83147 10.6052 6.83991 10.6045 6.8461C10.6037 6.85229 10.5945 6.85579 10.5787 6.85594C10.5629 6.85609 10.5415 6.85286 10.5187 6.84689C10.4961 6.83955 10.4755 6.83047 10.4608 6.82139C10.4462 6.81232 10.4385 6.80387 10.4393 6.79768C10.44 6.7915 10.4492 6.78799 10.465 6.78785C10.4808 6.7877 10.5022 6.79092 10.525 6.79689Z" fill="#009B3A" stroke="black" stroke-width="0.005"/>
<path d="M10.5343 6.77192C10.5581 6.78794 10.5798 6.80544 10.5946 6.82057C10.6094 6.83571 10.6161 6.84724 10.6132 6.85262C10.6103 6.85801 10.598 6.85681 10.5791 6.8493C10.5603 6.84178 10.5363 6.82856 10.5125 6.81254C10.5007 6.80461 10.4893 6.79624 10.479 6.78789C10.4686 6.77954 10.4595 6.77139 10.4522 6.76389C10.4374 6.74876 10.4307 6.73723 10.4336 6.73184C10.4365 6.72645 10.4488 6.72765 10.4677 6.73517C10.4866 6.74268 10.5105 6.7559 10.5343 6.77192Z" fill="#009B3A" stroke="black" stroke-width="0.005"/>
<path d="M10.5657 6.75933C10.5848 6.77925 10.6015 6.8 10.6121 6.81701C10.6227 6.83403 10.6263 6.84591 10.6222 6.85006C10.618 6.8542 10.6065 6.85026 10.59 6.83911C10.5735 6.82795 10.5535 6.8105 10.5344 6.79058C10.5153 6.77066 10.4986 6.74991 10.488 6.7329C10.4774 6.71588 10.4737 6.70399 10.4779 6.69985C10.482 6.69571 10.4936 6.69965 10.5101 6.7108C10.5265 6.72195 10.5465 6.73941 10.5657 6.75933Z" fill="#009B3A" stroke="black" stroke-width="0.005"/>
<path d="M10.6157 6.84996L10.5844 6.86871C10.575 6.86871 10.5657 6.85933 10.5469 6.86871C10.5282 6.87808 10.5157 6.89683 10.5125 6.90621C10.5094 6.91558 10.5188 6.92183 10.5407 6.90933C10.5625 6.89996 10.5688 6.88121 10.5782 6.87496L10.6188 6.85308L10.6438 6.81246C10.6532 6.79996 10.6813 6.78121 10.6938 6.75621C10.7032 6.73746 10.7 6.72183 10.6875 6.72808C10.6712 6.73755 10.6582 6.75171 10.65 6.76871C10.6438 6.78121 10.65 6.79996 10.6407 6.81246L10.6157 6.84996ZM10.8438 6.92496C10.8445 6.96842 10.8416 7.00928 10.8357 7.03855C10.8297 7.06782 10.8213 7.08309 10.8122 7.08102C10.8031 7.07895 10.794 7.0597 10.7871 7.0275C10.7801 6.9953 10.7758 6.9528 10.775 6.90933C10.7743 6.86587 10.7772 6.82501 10.7832 6.79574C10.7891 6.76648 10.7976 6.7512 10.8067 6.75327C10.8158 6.75534 10.8248 6.7746 10.8318 6.80679C10.8387 6.83899 10.8431 6.8815 10.8438 6.92496Z" fill="#009B3A" stroke="black" stroke-width="0.005"/>
<path d="M10.8063 6.92187C10.8157 6.96582 10.8211 7.00814 10.8214 7.03952C10.8216 7.07089 10.8166 7.08875 10.8075 7.08916C10.7983 7.08958 10.7859 7.07251 10.7727 7.04173C10.7596 7.01094 10.747 6.96895 10.7376 6.92499C10.7332 6.90442 10.7297 6.88404 10.7273 6.86503C10.7249 6.84602 10.7237 6.82875 10.7236 6.8142C10.7236 6.79965 10.7248 6.78811 10.7271 6.78024C10.7294 6.77236 10.7328 6.76831 10.7371 6.76831C10.7414 6.76831 10.7465 6.77236 10.7522 6.78024C10.7578 6.78811 10.7639 6.79965 10.77 6.8142C10.7762 6.82875 10.7823 6.84602 10.7879 6.86503C10.7936 6.88404 10.7988 6.90442 10.8032 6.92499L10.8063 6.92187Z" fill="#009B3A" stroke="black" stroke-width="0.005"/>
<path d="M10.6876 6.95938C10.7036 6.97019 10.7192 6.98178 10.7334 6.9935C10.7477 7.00521 10.7603 7.01682 10.7706 7.02765C10.7809 7.03849 10.7887 7.04834 10.7935 7.05665C10.7983 7.06496 10.8 7.07156 10.7986 7.07607C10.7972 7.08059 10.7926 7.08293 10.7851 7.08296C10.7777 7.08299 10.7675 7.08072 10.7551 7.07627C10.7428 7.07182 10.7286 7.06527 10.7132 7.05701C10.6979 7.04875 10.6817 7.03894 10.6657 7.02813C10.6497 7.01732 10.6341 7.00572 10.6199 6.99401C10.6056 6.98229 10.593 6.97068 10.5827 6.95985C10.5724 6.94901 10.5646 6.93916 10.5598 6.93085C10.555 6.92254 10.5533 6.91594 10.5547 6.91143C10.5561 6.90692 10.5607 6.90457 10.5682 6.90454C10.5756 6.90451 10.5858 6.90678 10.5981 6.91123C10.6105 6.91569 10.6247 6.92223 10.6401 6.93049C10.6554 6.93875 10.6716 6.94857 10.6876 6.95938Z" fill="#009B3A" stroke="black" stroke-width="0.005"/>
<path d="M10.7126 6.92499C10.7402 6.9585 10.7644 6.99327 10.7798 7.02165C10.7952 7.05003 10.8006 7.0697 10.7948 7.07633C10.789 7.08296 10.7725 7.07601 10.7489 7.05701C10.7252 7.038 10.6964 7.0085 10.6688 6.97499C10.6421 6.94245 10.6187 6.90878 10.6039 6.88138C10.5891 6.85398 10.5841 6.8351 10.5899 6.82888C10.5957 6.82266 10.6119 6.82963 10.6349 6.84824C10.6579 6.86685 10.6858 6.89558 10.7126 6.92811V6.92499Z" fill="#009B3A" stroke="black" stroke-width="0.005"/>
<path d="M10.7594 6.92188C10.7799 6.96022 10.7967 6.99863 10.806 7.02867C10.8153 7.05871 10.8163 7.07791 10.8088 7.08206C10.8014 7.0862 10.7861 7.07494 10.7662 7.05077C10.7464 7.02659 10.7237 6.99147 10.7031 6.95313C10.6929 6.93415 10.6836 6.91495 10.6755 6.89662C10.6675 6.8783 10.6611 6.86122 10.6565 6.84634C10.6472 6.8163 10.6462 6.7971 10.6536 6.79296C10.6611 6.78881 10.6764 6.80007 10.6962 6.82425C10.7161 6.84842 10.7388 6.88354 10.7594 6.92188Z" fill="#009B3A" stroke="black" stroke-width="0.005"/>
<path d="M10.8 7.07505L10.7437 7.08755C10.7344 7.08755 10.725 7.06567 10.6969 7.07192C10.6687 7.07817 10.6437 7.09692 10.6344 7.10942C10.6281 7.12192 10.6375 7.13442 10.6719 7.12817C10.7094 7.12192 10.7219 7.09692 10.7406 7.09692C10.7563 7.09067 10.7844 7.08442 10.8031 7.08442C10.8094 7.07192 10.8344 7.04692 10.85 7.03442C10.8656 7.0188 10.9125 7.00317 10.9344 6.97817C10.9562 6.95317 10.9562 6.92817 10.9344 6.9313C10.9105 6.93936 10.889 6.95334 10.8719 6.97192C10.8562 6.99067 10.8594 7.0188 10.8437 7.03442L10.8 7.07505ZM10.9594 7.22817C10.9524 7.26993 10.9424 7.30833 10.9316 7.33492C10.9208 7.36152 10.9101 7.37413 10.9018 7.36999C10.8935 7.36585 10.8883 7.34528 10.8874 7.31283C10.8865 7.28037 10.8899 7.23868 10.8969 7.19692C10.9003 7.17624 10.9046 7.15618 10.9093 7.13786C10.9141 7.11954 10.9193 7.10334 10.9247 7.09017C10.93 7.077 10.9354 7.06712 10.9405 7.06111C10.9456 7.05509 10.9504 7.05305 10.9545 7.0551C10.9586 7.05715 10.962 7.06326 10.9644 7.07307C10.9669 7.08287 10.9684 7.09619 10.9689 7.11226C10.9693 7.12833 10.9687 7.14684 10.9671 7.16673C10.9655 7.18662 10.9628 7.20749 10.9594 7.22817Z" fill="#009B3A" stroke="black" stroke-width="0.005"/>
<path d="M10.9251 7.21879C10.9261 7.24058 10.9263 7.26245 10.9255 7.28299C10.9247 7.30354 10.923 7.3223 10.9205 7.33806C10.918 7.35382 10.9147 7.36623 10.9109 7.37449C10.9072 7.38275 10.903 7.38668 10.8986 7.38602C10.8942 7.38536 10.8897 7.38013 10.8854 7.37067C10.8812 7.3612 10.8772 7.34771 10.8738 7.33106C10.8704 7.31442 10.8677 7.29499 10.8658 7.27404C10.8638 7.25309 10.8627 7.23107 10.8626 7.20942C10.8615 7.18763 10.8614 7.16576 10.8622 7.14521C10.863 7.12467 10.8647 7.10591 10.8672 7.09015C10.8697 7.07439 10.873 7.06198 10.8767 7.05372C10.8805 7.04545 10.8847 7.04153 10.8891 7.04219C10.8935 7.04284 10.898 7.04808 10.9022 7.05754C10.9065 7.06701 10.9104 7.0805 10.9138 7.09715C10.9172 7.11379 10.92 7.13322 10.9219 7.15417C10.9239 7.17512 10.9249 7.19714 10.9251 7.21879Z" fill="#009B3A" stroke="black" stroke-width="0.005"/>
<path d="M10.8032 7.23123C10.8193 7.24523 10.8357 7.26117 10.851 7.27781C10.8663 7.29445 10.8801 7.31132 10.8914 7.32711C10.9027 7.3429 10.9112 7.35717 10.9161 7.36879C10.921 7.38042 10.9222 7.38909 10.9197 7.39412C10.9172 7.39914 10.911 7.40039 10.9016 7.39777C10.8922 7.39514 10.8798 7.38871 10.8655 7.37898C10.8512 7.36925 10.8353 7.35648 10.819 7.34169C10.8028 7.3269 10.7867 7.31048 10.7719 7.29373C10.7558 7.27973 10.7395 7.26379 10.7242 7.24715C10.7088 7.23051 10.695 7.21364 10.6837 7.19785C10.6724 7.18206 10.664 7.16779 10.6591 7.15617C10.6542 7.14454 10.6529 7.13587 10.6554 7.13084C10.658 7.12582 10.6642 7.12457 10.6736 7.12719C10.683 7.12982 10.6953 7.13625 10.7096 7.14598C10.724 7.15571 10.7399 7.16848 10.7561 7.18327C10.7723 7.19806 10.7885 7.21448 10.8032 7.23123Z" fill="#009B3A" stroke="black" stroke-width="0.005"/>
<path d="M10.8345 7.20308C10.8448 7.22211 10.8544 7.24148 10.8626 7.26009C10.8709 7.2787 10.8776 7.29617 10.8825 7.31152C10.8874 7.32686 10.8902 7.33978 10.891 7.34953C10.8917 7.35928 10.8903 7.36567 10.8868 7.36833C10.8833 7.371 10.8778 7.3699 10.8707 7.36508C10.8635 7.36026 10.8547 7.35182 10.8449 7.34024C10.8351 7.32867 10.8245 7.31419 10.8136 7.29762C10.8026 7.28106 10.7917 7.26274 10.7813 7.2437C10.771 7.22467 10.7614 7.20529 10.7531 7.18669C10.7449 7.16808 10.7382 7.15061 10.7333 7.13526C10.7284 7.11991 10.7255 7.107 10.7248 7.09725C10.7241 7.0875 10.7255 7.08111 10.729 7.07844C10.7324 7.07578 10.7379 7.07688 10.7451 7.0817C10.7523 7.08652 10.7611 7.09496 10.7709 7.10653C10.7807 7.11811 10.7913 7.13259 10.8022 7.14915C10.8131 7.16572 10.8241 7.18404 10.8345 7.20308Z" fill="#009B3A" stroke="black" stroke-width="0.005"/>
<path d="M10.8782 7.20942C10.8846 7.22959 10.8901 7.24985 10.8946 7.26904C10.899 7.28823 10.9022 7.30597 10.9039 7.32125C10.9057 7.33653 10.906 7.34905 10.9049 7.3581C10.9037 7.36715 10.9011 7.37254 10.8972 7.37398C10.8933 7.37541 10.8882 7.37286 10.8822 7.36647C10.8761 7.36008 10.8692 7.34997 10.862 7.33672C10.8547 7.32347 10.8471 7.30734 10.8397 7.28925C10.8323 7.27116 10.8252 7.25147 10.8188 7.23129C10.8121 7.21016 10.8063 7.18896 10.8017 7.16888C10.7971 7.14881 10.7938 7.13027 10.7919 7.11431C10.7882 7.08209 10.7908 7.06235 10.7991 7.05945C10.8074 7.05655 10.8207 7.07072 10.8361 7.09885C10.8515 7.12697 10.8678 7.16674 10.8813 7.20942H10.8782Z" fill="#009B3A" stroke="black" stroke-width="0.005"/>
<path d="M10.8907 7.3688H10.8376C10.8282 7.3688 10.8219 7.3438 10.7938 7.3438C10.7697 7.3442 10.7465 7.35304 10.7282 7.3688C10.7157 7.3813 10.7251 7.3938 10.7594 7.3938C10.7938 7.3938 10.8126 7.37817 10.8313 7.37505H10.8938L10.9501 7.33755C10.9688 7.32505 11.0157 7.3188 11.0438 7.29692C11.0657 7.27817 11.0719 7.25317 11.0532 7.25317C11.0273 7.25639 11.0025 7.26606 10.9813 7.2813C10.9657 7.2938 10.9626 7.32192 10.9438 7.33442C10.9313 7.34067 10.8938 7.3688 10.8907 7.36567M10.9688 7.56567C10.9468 7.60069 10.9234 7.63148 10.9037 7.65125C10.884 7.67103 10.8697 7.67819 10.8639 7.67114C10.8581 7.6641 10.8613 7.64343 10.8728 7.61369C10.8842 7.58395 10.903 7.54757 10.9251 7.51255C10.9471 7.47753 10.9705 7.44675 10.9902 7.42697C11.0099 7.40719 11.0242 7.40003 11.03 7.40708C11.0358 7.41412 11.0326 7.43479 11.0211 7.46453C11.0097 7.49428 10.9908 7.53066 10.9688 7.56567Z" fill="#009B3A"/>
<path d="M10.8907 7.3688H10.8376C10.8282 7.3688 10.8219 7.3438 10.7938 7.3438C10.7697 7.3442 10.7465 7.35304 10.7282 7.3688C10.7157 7.3813 10.7251 7.3938 10.7594 7.3938C10.7938 7.3938 10.8126 7.37817 10.8313 7.37505H10.8938L10.9501 7.33755C10.9688 7.32505 11.0157 7.3188 11.0438 7.29692C11.0657 7.27817 11.0719 7.25317 11.0532 7.25317C11.0273 7.25639 11.0025 7.26606 10.9813 7.2813C10.9657 7.2938 10.9626 7.32192 10.9438 7.33442C10.9313 7.34067 10.8938 7.3688 10.8907 7.36567M10.9688 7.56567C10.9468 7.60069 10.9234 7.63148 10.9037 7.65125C10.884 7.67103 10.8697 7.67819 10.8639 7.67114C10.8581 7.6641 10.8613 7.64343 10.8728 7.61369C10.8842 7.58395 10.903 7.54757 10.9251 7.51255C10.9471 7.47753 10.9705 7.44675 10.9902 7.42697C11.0099 7.40719 11.0242 7.40003 11.03 7.40708C11.0358 7.41412 11.0326 7.43479 11.0211 7.46453C11.0097 7.49428 10.9908 7.53066 10.9688 7.56567Z" stroke="black" stroke-width="0.005"/>
<path d="M10.9407 7.54067C10.9252 7.58074 10.9075 7.61736 10.8913 7.64247C10.8752 7.66758 10.8619 7.67913 10.8544 7.67457C10.847 7.67001 10.8459 7.64972 10.8516 7.61816C10.8572 7.58661 10.869 7.54637 10.8844 7.5063C10.8998 7.46623 10.9176 7.42961 10.9337 7.4045C10.9499 7.37939 10.9632 7.36784 10.9706 7.3724C10.9781 7.37696 10.9791 7.39725 10.9735 7.42881C10.9679 7.46036 10.9561 7.5006 10.9407 7.54067ZM10.825 7.50317C10.8407 7.54414 10.8527 7.58591 10.8585 7.61927C10.8643 7.65264 10.8633 7.67488 10.8559 7.68109C10.8484 7.68731 10.8351 7.67699 10.8187 7.65242C10.8024 7.62784 10.7844 7.59102 10.7688 7.55005C10.7531 7.50908 10.7411 7.46732 10.7353 7.43395C10.7295 7.40058 10.7305 7.37835 10.7379 7.37213C10.7454 7.36591 10.7588 7.37623 10.7751 7.4008C10.7914 7.42538 10.8094 7.4622 10.825 7.50317Z" fill="#009B3A" stroke="black" stroke-width="0.005"/>
<path d="M10.8625 7.49069C10.8664 7.53352 10.8669 7.57543 10.8638 7.60718C10.8608 7.63894 10.8544 7.65794 10.8461 7.66002C10.8378 7.66209 10.8283 7.64706 10.8196 7.61823C10.811 7.58941 10.8039 7.54915 10.8 7.50631C10.798 7.4851 10.7969 7.46389 10.7967 7.44391C10.7964 7.42392 10.7971 7.40554 10.7986 7.38981C10.8002 7.37409 10.8025 7.36133 10.8055 7.35226C10.8086 7.3432 10.8123 7.33801 10.8164 7.33698C10.8205 7.33595 10.8249 7.33912 10.8295 7.34629C10.834 7.35345 10.8385 7.36449 10.8428 7.37876C10.8471 7.39304 10.851 7.41027 10.8544 7.42947C10.8578 7.44867 10.8605 7.46947 10.8625 7.49069Z" fill="#009B3A" stroke="black" stroke-width="0.005"/>
<path d="M10.9063 7.5125C10.9022 7.55541 10.895 7.59641 10.8863 7.62646C10.8776 7.65651 10.868 7.67316 10.8597 7.67275C10.8514 7.67233 10.8451 7.65489 10.8421 7.62425C10.8391 7.59361 10.8397 7.55229 10.8438 7.50938C10.8458 7.48813 10.8486 7.46713 10.852 7.44757C10.8554 7.42802 10.8594 7.4103 10.8637 7.39542C10.8681 7.38054 10.8726 7.36879 10.8772 7.36085C10.8817 7.35291 10.8862 7.34892 10.8903 7.34913C10.8986 7.34954 10.9049 7.36699 10.9079 7.39763C10.9109 7.42826 10.9103 7.46959 10.9063 7.5125Z" fill="#009B3A" stroke="black" stroke-width="0.005"/>
<path d="M10.8531 7.66561C10.8531 7.66561 10.8094 7.64998 10.8031 7.64373C10.7938 7.63748 10.8 7.61873 10.7719 7.60311C10.7497 7.5947 10.7253 7.5947 10.7031 7.60311C10.6875 7.60311 10.6906 7.62186 10.7219 7.63436C10.7531 7.65311 10.7781 7.64061 10.7938 7.64686L10.85 7.67498C10.8656 7.66873 10.9 7.66561 10.9188 7.66248C10.9375 7.65936 10.9844 7.67498 11.0188 7.66248C11.0469 7.65311 11.0594 7.63123 11.0406 7.62498C11.0171 7.61875 10.9923 7.61875 10.9688 7.62498C10.9469 7.62811 10.9344 7.65623 10.9125 7.65623C10.8969 7.65623 10.8531 7.66873 10.85 7.66561M10.8813 7.90623C10.8628 7.92388 10.8429 7.94087 10.8232 7.95596C10.8035 7.97104 10.7844 7.98382 10.7674 7.99335C10.7504 8.00287 10.7359 8.00889 10.725 8.01096C10.714 8.01303 10.707 8.0111 10.7043 8.00531C10.7017 7.99951 10.7035 7.99001 10.7096 7.9775C10.7158 7.96499 10.7261 7.94981 10.7398 7.93307C10.7535 7.91634 10.7702 7.89849 10.7888 7.88086C10.8073 7.86322 10.8272 7.84626 10.8469 7.83123C10.8657 7.81258 10.8863 7.79428 10.9071 7.77786C10.9279 7.76144 10.9483 7.74735 10.9666 7.73676C10.9849 7.72617 11.0005 7.71937 11.0122 7.71694C11.0239 7.7145 11.0314 7.71649 11.034 7.72274C11.0366 7.729 11.0343 7.73933 11.0272 7.7529C11.0201 7.76648 11.0085 7.78289 10.9933 7.80081C10.9781 7.81872 10.9597 7.83762 10.9397 7.85595C10.9197 7.87427 10.8986 7.89151 10.8781 7.90623" fill="#009B3A"/>
<path d="M10.8531 7.66561C10.8531 7.66561 10.8094 7.64998 10.8031 7.64373C10.7938 7.63748 10.8 7.61873 10.7719 7.60311C10.7497 7.5947 10.7253 7.5947 10.7031 7.60311C10.6875 7.60311 10.6906 7.62186 10.7219 7.63436C10.7531 7.65311 10.7781 7.64061 10.7938 7.64686L10.85 7.67498C10.8656 7.66873 10.9 7.66561 10.9188 7.66248C10.9375 7.65936 10.9844 7.67498 11.0188 7.66248C11.0469 7.65311 11.0594 7.63123 11.0406 7.62498C11.0171 7.61875 10.9923 7.61875 10.9688 7.62498C10.9469 7.62811 10.9344 7.65623 10.9125 7.65623C10.8969 7.65623 10.8531 7.66873 10.85 7.66561M10.8813 7.90623C10.8628 7.92388 10.8429 7.94087 10.8232 7.95596C10.8035 7.97104 10.7844 7.98382 10.7674 7.99335C10.7504 8.00287 10.7359 8.00889 10.725 8.01096C10.714 8.01303 10.707 8.0111 10.7043 8.00531C10.7017 7.99951 10.7035 7.99001 10.7096 7.9775C10.7158 7.96499 10.7261 7.94981 10.7398 7.93307C10.7535 7.91634 10.7702 7.89849 10.7888 7.88086C10.8073 7.86322 10.8272 7.84626 10.8469 7.83123C10.8657 7.81258 10.8863 7.79428 10.9071 7.77786C10.9279 7.76144 10.9483 7.74735 10.9666 7.73676C10.9849 7.72617 11.0005 7.71937 11.0122 7.71694C11.0239 7.7145 11.0314 7.71649 11.034 7.72274C11.0366 7.729 11.0343 7.73933 11.0272 7.7529C11.0201 7.76648 11.0085 7.78289 10.9933 7.80081C10.9781 7.81872 10.9597 7.83762 10.9397 7.85595C10.9197 7.87427 10.8986 7.89151 10.8781 7.90623" stroke="black" stroke-width="0.005"/>
<path d="M10.8531 7.87188C10.8233 7.90979 10.7922 7.94285 10.7668 7.96379C10.7413 7.98474 10.7235 7.99184 10.7173 7.98356C10.711 7.97527 10.7169 7.95226 10.7336 7.9196C10.7503 7.88693 10.7764 7.84729 10.8062 7.80938C10.821 7.79062 10.8362 7.77284 10.851 7.75707C10.8659 7.7413 10.88 7.72785 10.8926 7.71748C10.9052 7.70711 10.9161 7.70002 10.9246 7.69663C10.9331 7.69324 10.939 7.69361 10.9421 7.69771C10.9452 7.70182 10.9453 7.70958 10.9425 7.72055C10.9397 7.73152 10.934 7.7455 10.9257 7.76167C10.9175 7.77784 10.9068 7.7959 10.8943 7.81481C10.8819 7.83372 10.8679 7.85312 10.8531 7.87188Z" fill="#009B3A" stroke="black" stroke-width="0.005"/>
<path d="M10.7406 7.78745C10.7447 7.8123 10.7475 7.83943 10.7487 7.86661C10.7499 7.89379 10.7496 7.92023 10.7477 7.94375C10.7458 7.96727 10.7424 7.9872 10.7378 8.00188C10.7332 8.01657 10.7276 8.02559 10.7213 8.02821C10.715 8.03082 10.7083 8.02695 10.7017 8.01692C10.6951 8.00689 10.6889 7.99098 10.6834 7.97051C10.678 7.95005 10.6735 7.9256 10.6705 7.89921C10.6674 7.87281 10.6657 7.84521 10.6656 7.8187C10.6616 7.79385 10.6588 7.76671 10.6576 7.73954C10.6564 7.71236 10.6567 7.68592 10.6586 7.66239C10.6605 7.63887 10.6639 7.61895 10.6684 7.60426C10.673 7.58958 10.6787 7.58056 10.685 7.57794C10.6913 7.57533 10.698 7.5792 10.7045 7.58923C10.7111 7.59926 10.7174 7.61516 10.7228 7.63563C10.7283 7.6561 10.7327 7.68054 10.7358 7.70694C10.7389 7.73334 10.7406 7.76093 10.7406 7.78745Z" fill="#009B3A" stroke="black" stroke-width="0.005"/>
<path d="M10.7844 7.78749C10.7746 7.82423 10.7634 7.85614 10.7523 7.87854C10.7413 7.90094 10.7309 7.91265 10.7229 7.91195C10.7149 7.91125 10.7095 7.89818 10.7076 7.87465C10.7058 7.85113 10.7075 7.81839 10.7125 7.78124C10.716 7.75397 10.7212 7.72496 10.7277 7.69663C10.7342 7.66829 10.7419 7.64144 10.75 7.61829C10.7582 7.59514 10.7665 7.57635 10.7745 7.56349C10.7825 7.55063 10.7897 7.54406 10.7958 7.54432C10.8018 7.54458 10.8064 7.55167 10.8091 7.565C10.8119 7.57832 10.8127 7.59751 10.8116 7.62097C10.8105 7.64442 10.8075 7.67148 10.8027 7.69989C10.798 7.7283 10.7917 7.75726 10.7844 7.78436" fill="#009B3A"/>
<path d="M10.7844 7.78749C10.7746 7.82423 10.7634 7.85614 10.7523 7.87854C10.7413 7.90094 10.7309 7.91265 10.7229 7.91195C10.7149 7.91125 10.7095 7.89818 10.7076 7.87465C10.7058 7.85113 10.7075 7.81839 10.7125 7.78124C10.716 7.75397 10.7212 7.72496 10.7277 7.69663C10.7342 7.66829 10.7419 7.64144 10.75 7.61829C10.7582 7.59514 10.7665 7.57635 10.7745 7.56349C10.7825 7.55063 10.7897 7.54406 10.7958 7.54432C10.8018 7.54458 10.8064 7.55167 10.8091 7.565C10.8119 7.57832 10.8127 7.59751 10.8116 7.62097C10.8105 7.64442 10.8075 7.67148 10.8027 7.69989C10.798 7.7283 10.7917 7.75726 10.7844 7.78436" stroke="black" stroke-width="0.005"/>
<path d="M10.8219 7.82506C10.8132 7.85211 10.8024 7.88066 10.7904 7.90828C10.7785 7.93589 10.7656 7.96173 10.753 7.98359C10.7405 8.00545 10.7285 8.02268 10.7182 8.03381C10.7079 8.04493 10.6996 8.04961 10.6939 8.04745C10.6882 8.04529 10.6854 8.03636 10.6857 8.02141C10.6859 8.00647 10.6893 7.98596 10.6954 7.96164C10.7015 7.93732 10.7103 7.90991 10.7209 7.88177C10.7315 7.85363 10.7436 7.82559 10.7562 7.80006C10.7649 7.773 10.7757 7.74445 10.7877 7.71684C10.7997 7.68923 10.8125 7.66338 10.8251 7.64152C10.8377 7.61966 10.8496 7.60243 10.8599 7.59131C10.8702 7.58018 10.8785 7.5755 10.8842 7.57766C10.8899 7.57982 10.8927 7.58875 10.8924 7.6037C10.8922 7.61864 10.8888 7.63916 10.8827 7.66348C10.8766 7.6878 10.8678 7.7152 10.8572 7.74334C10.8467 7.77148 10.8345 7.79952 10.8219 7.82506Z" fill="#009B3A" stroke="black" stroke-width="0.005"/>
<path d="M10.7188 7.97817C10.7012 7.96469 10.6845 7.95008 10.6688 7.93442C10.6625 7.92505 10.6719 7.90317 10.6469 7.87817C10.6219 7.85317 10.5906 7.84692 10.5719 7.84692C10.5531 7.85005 10.5531 7.8688 10.5813 7.89692C10.6125 7.92817 10.6438 7.92192 10.6563 7.93442C10.675 7.94692 10.7 7.9688 10.7094 7.98442L10.7906 7.99692C10.8125 7.99692 10.8594 8.0313 10.9 8.0313C10.9313 8.0313 10.9563 8.01567 10.9375 8.00005C10.9137 7.98257 10.8856 7.97178 10.8563 7.9688C10.8313 7.9688 10.8094 7.9938 10.7875 7.98755L10.7156 7.97817M10.6438 8.2063C10.5947 8.21434 10.5481 8.21728 10.5142 8.21446C10.4804 8.21165 10.4621 8.20332 10.4633 8.1913C10.4646 8.17928 10.4853 8.16456 10.5209 8.15038C10.5565 8.1362 10.604 8.12371 10.6531 8.11567C10.6774 8.11169 10.7014 8.10892 10.7236 8.10752C10.7458 8.10612 10.7659 8.10612 10.7827 8.10751C10.7994 8.1089 10.8125 8.11167 10.8213 8.11564C10.83 8.11961 10.8342 8.12472 10.8336 8.13067C10.833 8.13662 10.8276 8.1433 10.8177 8.15032C10.8078 8.15734 10.7937 8.16457 10.776 8.17159C10.7584 8.17861 10.7377 8.18529 10.715 8.19125C10.6923 8.1972 10.6681 8.20232 10.6438 8.2063Z" fill="#009B3A"/>
<path d="M10.7188 7.97817C10.7012 7.96469 10.6845 7.95008 10.6688 7.93442C10.6625 7.92505 10.6719 7.90317 10.6469 7.87817C10.6219 7.85317 10.5906 7.84692 10.5719 7.84692C10.5531 7.85005 10.5531 7.8688 10.5813 7.89692C10.6125 7.92817 10.6438 7.92192 10.6563 7.93442C10.675 7.94692 10.7 7.9688 10.7094 7.98442L10.7906 7.99692C10.8125 7.99692 10.8594 8.0313 10.9 8.0313C10.9313 8.0313 10.9563 8.01567 10.9375 8.00005C10.9137 7.98257 10.8856 7.97178 10.8563 7.9688C10.8313 7.9688 10.8094 7.9938 10.7875 7.98755L10.7156 7.97817M10.6438 8.2063C10.5947 8.21434 10.5481 8.21728 10.5142 8.21446C10.4804 8.21165 10.4621 8.20332 10.4633 8.1913C10.4646 8.17928 10.4853 8.16456 10.5209 8.15038C10.5565 8.1362 10.604 8.12371 10.6531 8.11567C10.6774 8.11169 10.7014 8.10892 10.7236 8.10752C10.7458 8.10612 10.7659 8.10612 10.7827 8.10751C10.7994 8.1089 10.8125 8.11167 10.8213 8.11564C10.83 8.11961 10.8342 8.12472 10.8336 8.13067C10.833 8.13662 10.8276 8.1433 10.8177 8.15032C10.8078 8.15734 10.7937 8.16457 10.776 8.17159C10.7584 8.17861 10.7377 8.18529 10.715 8.19125C10.6923 8.1972 10.6681 8.20232 10.6438 8.2063Z" stroke="black" stroke-width="0.005"/>
<path d="M10.6406 8.15624C10.591 8.17532 10.5427 8.18933 10.5062 8.1952C10.4697 8.20107 10.448 8.19832 10.446 8.18754C10.4439 8.17677 10.4616 8.15886 10.4952 8.13775C10.5287 8.11664 10.5754 8.09407 10.625 8.07499C10.6763 8.05525 10.7263 8.04076 10.7641 8.03471C10.8019 8.02866 10.8242 8.03155 10.8263 8.04274C10.8284 8.05393 10.81 8.0725 10.7751 8.09437C10.7403 8.11625 10.6919 8.13963 10.6406 8.15937" fill="#009B3A"/>
<path d="M10.6406 8.15624C10.591 8.17532 10.5427 8.18933 10.5062 8.1952C10.4697 8.20107 10.448 8.19832 10.446 8.18754C10.4439 8.17677 10.4616 8.15886 10.4952 8.13775C10.5287 8.11664 10.5754 8.09407 10.625 8.07499C10.6763 8.05525 10.7263 8.04076 10.7641 8.03471C10.8019 8.02866 10.8242 8.03155 10.8263 8.04274C10.8284 8.05393 10.81 8.0725 10.7751 8.09437C10.7403 8.11625 10.6919 8.13963 10.6406 8.15937" stroke="black" stroke-width="0.005"/>
<path d="M10.575 8.01249C10.5549 8.05005 10.5333 8.08309 10.5138 8.10608C10.4943 8.12907 10.4781 8.14062 10.4678 8.13879C10.4576 8.13696 10.4539 8.12186 10.4575 8.09602C10.4611 8.07019 10.4717 8.03518 10.4875 7.99687C10.4977 7.97198 10.5099 7.9465 10.523 7.92229C10.5362 7.89808 10.55 7.87575 10.5634 7.85693C10.5768 7.83811 10.5896 7.82328 10.6007 7.81351C10.6119 7.80374 10.6211 7.79929 10.6278 7.80048C10.6344 7.80167 10.6383 7.80847 10.6392 7.82038C10.6401 7.8323 10.6379 7.84902 10.6329 7.86934C10.6278 7.88966 10.62 7.91305 10.61 7.93782C10.6 7.96258 10.588 7.9881 10.575 8.01249Z" fill="#009B3A" stroke="black" stroke-width="0.005"/>
<path d="M10.6219 8.0375C10.5847 8.07966 10.5452 8.11762 10.5121 8.14303C10.479 8.16845 10.4551 8.17923 10.4456 8.17302C10.436 8.1668 10.4417 8.14409 10.4613 8.10989C10.4809 8.07568 10.5128 8.03278 10.55 7.99063C10.5684 7.96975 10.5876 7.94969 10.6065 7.93158C10.6253 7.91348 10.6434 7.89768 10.6598 7.8851C10.6929 7.85968 10.7168 7.8489 10.7263 7.85511C10.7359 7.86133 10.7302 7.88404 10.7106 7.91824C10.7009 7.93518 10.6881 7.95443 10.6729 7.97489C10.6576 7.99535 10.6403 8.01663 10.6219 8.0375Z" fill="#009B3A" stroke="black" stroke-width="0.005"/>
<path d="M10.6344 8.09684C10.6119 8.11537 10.5879 8.13336 10.5641 8.14954C10.5404 8.16572 10.5175 8.17971 10.4971 8.19051C10.4766 8.20132 10.4591 8.20868 10.4458 8.21209C10.4325 8.21549 10.4237 8.21486 10.42 8.21022C10.4162 8.20559 10.4177 8.19707 10.4243 8.18527C10.431 8.17347 10.4425 8.15866 10.4582 8.1419C10.4739 8.12514 10.4933 8.10682 10.5151 8.08824C10.5369 8.06966 10.5606 8.05126 10.5844 8.03434C10.6229 8.0071 10.6598 7.98509 10.6888 7.97218C10.7178 7.95926 10.7369 7.95628 10.7429 7.96374C10.7488 7.9712 10.7412 7.98863 10.7214 8.01297C10.7016 8.03732 10.6708 8.06701 10.6344 8.09684Z" fill="#009B3A" stroke="black" stroke-width="0.005"/>
<path d="M10.45 8.17815C10.4413 8.15573 10.434 8.13276 10.4281 8.1094C10.425 8.0969 10.4469 8.0844 10.4375 8.0469C10.4269 8.01663 10.4059 7.99113 10.3781 7.97503C10.3625 7.96565 10.35 7.98128 10.3625 8.02503C10.375 8.06878 10.4063 8.0844 10.4156 8.10628L10.4406 8.18128L10.5094 8.24065C10.5281 8.25628 10.5563 8.31565 10.5938 8.33753C10.625 8.3594 10.6563 8.35315 10.65 8.33128C10.6359 8.30135 10.6144 8.27553 10.5875 8.25628C10.5656 8.23753 10.5313 8.2469 10.5094 8.23128C10.4969 8.21565 10.4469 8.18128 10.4469 8.17815" fill="#009B3A"/>
<path d="M10.45 8.17815C10.4413 8.15573 10.434 8.13276 10.4281 8.1094C10.425 8.0969 10.4469 8.0844 10.4375 8.0469C10.4269 8.01663 10.4059 7.99113 10.3781 7.97503C10.3625 7.96565 10.35 7.98128 10.3625 8.02503C10.375 8.06878 10.4063 8.0844 10.4156 8.10628L10.4406 8.18128L10.5094 8.24065C10.5281 8.25628 10.5563 8.31565 10.5938 8.33753C10.625 8.3594 10.6563 8.35315 10.65 8.33128C10.6359 8.30135 10.6144 8.27553 10.5875 8.25628C10.5656 8.23753 10.5313 8.2469 10.5094 8.23128C10.4969 8.21565 10.4469 8.18128 10.4469 8.17815" stroke="black" stroke-width="0.005"/>
<path d="M10.3375 8.375C10.296 8.3727 10.259 8.36629 10.2325 8.35679C10.206 8.34729 10.1917 8.33526 10.1917 8.32264C10.1917 8.31001 10.206 8.29752 10.2325 8.28718C10.259 8.27684 10.296 8.26925 10.3375 8.26562C10.3791 8.26792 10.4161 8.27434 10.4426 8.28384C10.469 8.29333 10.4834 8.30536 10.4834 8.31799C10.4834 8.33061 10.469 8.3431 10.4426 8.35344C10.4161 8.36378 10.3791 8.37138 10.3375 8.375Z" fill="#009B3A" stroke="black" stroke-width="0.005"/>
<path d="M10.3125 8.20309C10.2798 8.24538 10.244 8.28232 10.213 8.30578C10.1819 8.32924 10.1582 8.3373 10.147 8.32819C10.1358 8.31907 10.1381 8.29352 10.1533 8.25717C10.1685 8.22082 10.1955 8.17663 10.2282 8.13434C10.244 8.11389 10.2608 8.09454 10.2775 8.07738C10.2941 8.06021 10.3104 8.04558 10.3254 8.03432C10.3404 8.02306 10.3538 8.01538 10.3648 8.01172C10.3758 8.00807 10.3842 8.00851 10.3895 8.01303C10.3949 8.01754 10.397 8.02604 10.3959 8.03803C10.3947 8.05003 10.3903 8.06528 10.3829 8.08293C10.3754 8.10058 10.3651 8.12028 10.3525 8.14089C10.3399 8.16151 10.3253 8.18264 10.3094 8.20309" fill="#009B3A"/>
<path d="M10.3125 8.20309C10.2798 8.24538 10.244 8.28232 10.213 8.30578C10.1819 8.32924 10.1582 8.3373 10.147 8.32819C10.1358 8.31907 10.1381 8.29352 10.1533 8.25717C10.1685 8.22082 10.1955 8.17663 10.2282 8.13434C10.244 8.11389 10.2608 8.09454 10.2775 8.07738C10.2941 8.06021 10.3104 8.04558 10.3254 8.03432C10.3404 8.02306 10.3538 8.01538 10.3648 8.01172C10.3758 8.00807 10.3842 8.00851 10.3895 8.01303C10.3949 8.01754 10.397 8.02604 10.3959 8.03803C10.3947 8.05003 10.3903 8.06528 10.3829 8.08293C10.3754 8.10058 10.3651 8.12028 10.3525 8.14089C10.3399 8.16151 10.3253 8.18264 10.3094 8.20309" stroke="black" stroke-width="0.005"/>
<path d="M10.3375 8.29066C10.2888 8.31155 10.2402 8.32616 10.2022 8.33127C10.1643 8.33638 10.1402 8.33156 10.1352 8.31789C10.1303 8.30421 10.1448 8.2828 10.1757 8.25835C10.2066 8.2339 10.2513 8.20843 10.3 8.18753C10.3487 8.16664 10.3973 8.15203 10.4353 8.14692C10.4732 8.14181 10.4973 8.14663 10.5023 8.1603C10.5073 8.17398 10.4927 8.19539 10.4618 8.21984C10.4309 8.24429 10.3862 8.26976 10.3375 8.29066ZM10.3906 6.62191C10.412 6.64195 10.4297 6.6618 10.4403 6.67753C10.4508 6.69326 10.4534 6.70372 10.4475 6.70686C10.4416 6.71 10.4277 6.70559 10.4085 6.69449C10.3893 6.68339 10.3662 6.66641 10.3438 6.64691C10.3313 6.6361 10.3195 6.62486 10.309 6.61389C10.2985 6.60292 10.2896 6.59247 10.2829 6.58319C10.2761 6.57391 10.2716 6.56601 10.2697 6.55999C10.2678 6.55397 10.2684 6.54997 10.2717 6.54823C10.275 6.54649 10.2807 6.54705 10.2886 6.54989C10.2965 6.55272 10.3064 6.55776 10.3175 6.56469C10.3287 6.57162 10.341 6.58028 10.3536 6.59013C10.3662 6.59998 10.3788 6.6108 10.3906 6.62191ZM10.3313 6.66878C10.3571 6.67358 10.3803 6.67976 10.3973 6.68636C10.4142 6.69297 10.424 6.69963 10.4251 6.70532C10.4261 6.71102 10.4185 6.71542 10.4032 6.71785C10.3879 6.72028 10.3659 6.72061 10.3406 6.71878C10.323 6.7175 10.3042 6.71522 10.2859 6.71209C10.2676 6.70897 10.2502 6.7051 10.235 6.70078C10.2199 6.69646 10.2074 6.6918 10.1985 6.68717C10.1897 6.68255 10.1847 6.67807 10.1839 6.67409C10.1832 6.67012 10.1867 6.66675 10.1942 6.66424C10.2018 6.66174 10.2131 6.66017 10.2273 6.65966C10.2416 6.65914 10.2584 6.6597 10.2764 6.66128C10.2944 6.66286 10.3132 6.66543 10.3313 6.66878Z" fill="#009B3A" stroke="black" stroke-width="0.005"/>
<path d="M10.3562 6.63752C10.3721 6.6456 10.3875 6.65413 10.4016 6.66261C10.4157 6.6711 10.4281 6.67938 10.4382 6.68698C10.4483 6.69459 10.4558 6.70136 10.4604 6.70692C10.4649 6.71247 10.4664 6.71671 10.4648 6.71937C10.4631 6.72204 10.4584 6.72309 10.4508 6.72246C10.4432 6.72183 10.4329 6.71954 10.4205 6.71571C10.4081 6.71188 10.3938 6.70659 10.3785 6.70015C10.3632 6.6937 10.3471 6.68622 10.3312 6.67814C10.2991 6.66182 10.2696 6.64402 10.2493 6.62867C10.2289 6.61332 10.2193 6.60167 10.2227 6.59628C10.226 6.5909 10.2419 6.59221 10.267 6.59995C10.292 6.60768 10.3241 6.62119 10.3562 6.63752ZM9.4906 8.18752C9.4906 8.18752 9.64997 8.22189 9.7906 8.27189C9.93122 8.32502 10.1437 8.49689 10.2 8.50939C10.2625 8.50939 10.3531 8.48752 10.3875 8.39689C10.2875 8.42189 10.2312 8.46252 10.1375 8.41252C10.1031 8.40002 9.99373 8.30002 9.87185 8.24689C9.7531 8.19377 9.51248 8.13439 9.51248 8.13439L9.4906 8.18752ZM9.66248 6.73439L9.84685 6.63752L9.64373 6.69064L9.61872 6.72502L9.66248 6.73439Z" fill="#009B3A" stroke="black" stroke-width="0.005"/>
<path d="M9.83752 6.78123C9.76565 6.7656 9.65627 6.7406 9.58752 6.73748C9.6344 6.68435 9.70002 6.5906 9.74377 6.53748C9.71252 6.5906 9.6719 6.66248 9.65627 6.70935C9.70315 6.73748 9.78127 6.75935 9.83752 6.7781" fill="#009B3A"/>
<path d="M9.83752 6.78123C9.76565 6.7656 9.65627 6.7406 9.58752 6.73748C9.6344 6.68435 9.70002 6.5906 9.74377 6.53748C9.71252 6.5906 9.6719 6.66248 9.65627 6.70935C9.70315 6.73748 9.78127 6.75935 9.83752 6.7781" stroke="black" stroke-width="0.005"/>
<path d="M9.6281 6.7469C9.68285 6.7036 9.73806 6.66089 9.79373 6.61877L9.6031 6.70315L9.58435 6.74377H9.6281" fill="#009B3A"/>
<path d="M9.6281 6.7469C9.68285 6.7036 9.73806 6.66089 9.79373 6.61877L9.6031 6.70315L9.58435 6.74377H9.6281" stroke="black" stroke-width="0.005"/>
<path d="M9.8031 6.77815C9.73123 6.76252 9.62185 6.73752 9.5531 6.73127C9.59685 6.67815 9.66248 6.5844 9.7031 6.52502C9.6781 6.58127 9.63435 6.65315 9.61872 6.70627C9.66872 6.7344 9.74685 6.75627 9.80622 6.77815" fill="#009B3A"/>
<path d="M9.8031 6.77815C9.73123 6.76252 9.62185 6.73752 9.5531 6.73127C9.59685 6.67815 9.66248 6.5844 9.7031 6.52502C9.6781 6.58127 9.63435 6.65315 9.61872 6.70627C9.66872 6.7344 9.74685 6.75627 9.80622 6.77815" stroke="black" stroke-width="0.005"/>
<path d="M9.6032 6.7563L9.79382 6.67505L9.58757 6.70942L9.55945 6.74067L9.60007 6.7563" fill="#009B3A"/>
<path d="M9.6032 6.7563L9.79382 6.67505L9.58757 6.70942L9.55945 6.74067L9.60007 6.7563" stroke="black" stroke-width="0.005"/>
<path d="M9.78127 6.7813C9.7094 6.77192 9.59377 6.75942 9.52502 6.76255C9.56565 6.70005 9.61877 6.59692 9.65315 6.53442C9.6344 6.5938 9.60002 6.67192 9.59065 6.72505C9.64377 6.75005 9.72502 6.76255 9.78127 6.77817" fill="#009B3A"/>
<path d="M9.78127 6.7813C9.7094 6.77192 9.59377 6.75942 9.52502 6.76255C9.56565 6.70005 9.61877 6.59692 9.65315 6.53442C9.6344 6.5938 9.60002 6.67192 9.59065 6.72505C9.64377 6.75005 9.72502 6.76255 9.78127 6.77817" stroke="black" stroke-width="0.005"/>
<path d="M9.58123 6.75623L9.71247 6.59998L9.54685 6.72185L9.53748 6.76248L9.58123 6.75623Z" fill="#009B3A" stroke="black" stroke-width="0.005"/>
<path d="M9.78123 6.79063C9.7031 6.79063 9.58123 6.78125 9.50623 6.79063C9.54373 6.71875 9.5906 6.60312 9.61872 6.53125C9.60622 6.59687 9.5781 6.6875 9.57498 6.74687C9.63123 6.76562 9.71873 6.77813 9.78123 6.79063Z" fill="#009B3A" stroke="black" stroke-width="0.005"/>
<path d="M9.55627 6.79375L9.71252 6.64062L9.5219 6.75L9.5094 6.79375H9.55627Z" fill="#009B3A" stroke="black" stroke-width="0.005"/>
<path d="M9.74695 6.79375C9.66257 6.79375 9.53445 6.79063 9.45007 6.8C9.50632 6.72188 9.58132 6.59375 9.62507 6.51562C9.59382 6.5875 9.55007 6.68438 9.53132 6.75C9.5907 6.77188 9.68132 6.78125 9.74695 6.79375Z" fill="#009B3A" stroke="black" stroke-width="0.005"/>
<path d="M9.50007 6.80627L9.70632 6.6344L9.47507 6.75627L9.45007 6.80627H9.50007Z" fill="#009B3A" stroke="black" stroke-width="0.005"/>
<path d="M9.7188 6.79995C9.63442 6.81245 9.50317 6.82495 9.42505 6.84683C9.46567 6.76245 9.52192 6.62808 9.5563 6.5437C9.53755 6.6187 9.50317 6.7187 9.4938 6.78745C9.5563 6.79995 9.65005 6.79683 9.71567 6.79995" fill="#009B3A"/>
<path d="M9.7188 6.79995C9.63442 6.81245 9.50317 6.82495 9.42505 6.84683C9.46567 6.76245 9.52192 6.62808 9.5563 6.5437C9.53755 6.6187 9.50317 6.7187 9.4938 6.78745C9.5563 6.79995 9.65005 6.79683 9.71567 6.79995" stroke="black" stroke-width="0.005"/>
<path d="M9.47505 6.84058L9.6313 6.62183L9.43442 6.79995L9.42505 6.85308L9.47505 6.84058Z" fill="#009B3A" stroke="black" stroke-width="0.005"/>
<path d="M9.66875 6.825C9.5875 6.83437 9.45625 6.84062 9.375 6.85625C9.42187 6.775 9.48437 6.64375 9.525 6.5625C9.5 6.63437 9.4625 6.73437 9.45 6.80312C9.5125 6.81875 9.60625 6.81875 9.66875 6.825Z" fill="#009B3A" stroke="black" stroke-width="0.005"/>
<path d="M9.44685 6.86255L9.64685 6.69067L9.41873 6.81255L9.39685 6.86255H9.44685Z" fill="#009B3A" stroke="black" stroke-width="0.005"/>
<path d="M9.6469 6.83437C9.56253 6.85312 9.43127 6.875 9.35315 6.9C9.39065 6.81563 9.44065 6.67813 9.4719 6.59375C9.45627 6.66875 9.42815 6.76875 9.4219 6.8375C9.4844 6.84688 9.57815 6.8375 9.6469 6.83437Z" fill="#009B3A" stroke="black" stroke-width="0.005"/>
<path d="M9.41248 6.87502L9.53748 6.6344L9.36872 6.84065L9.3656 6.89377L9.41248 6.8719" fill="#009B3A"/>
<path d="M9.41248 6.87502L9.53748 6.6344L9.36872 6.84065L9.3656 6.89377L9.41248 6.8719" stroke="black" stroke-width="0.005"/>
<path d="M9.64685 6.8469C9.5531 6.8719 9.4156 6.90315 9.33435 6.9344C9.3656 6.83752 9.39998 6.6844 9.42498 6.58752C9.4156 6.6719 9.39685 6.7844 9.39997 6.86252C9.47185 6.86877 9.57185 6.85315 9.64373 6.8469" fill="#009B3A"/>
<path d="M9.64685 6.8469C9.5531 6.8719 9.4156 6.90315 9.33435 6.9344C9.3656 6.83752 9.39998 6.6844 9.42498 6.58752C9.4156 6.6719 9.39685 6.7844 9.39997 6.86252C9.47185 6.86877 9.57185 6.85315 9.64373 6.8469" stroke="black" stroke-width="0.005"/>
<path d="M9.38748 6.92817L9.54998 6.69067L9.34373 6.8813L9.33435 6.9438L9.38748 6.92817Z" fill="#009B3A" stroke="black" stroke-width="0.005"/>
<path d="M9.60935 6.87505C9.52185 6.90317 9.38435 6.94067 9.3031 6.97817C9.3281 6.87817 9.35935 6.72505 9.3781 6.62817C9.37498 6.71255 9.36247 6.82505 9.36872 6.90005C9.43747 6.90317 9.53748 6.8813 9.60935 6.87505Z" fill="#009B3A" stroke="black" stroke-width="0.005"/>
<path d="M9.35623 6.96245L9.4781 6.69995L9.3031 6.92495V6.98745L9.35623 6.96245Z" fill="#009B3A" stroke="black" stroke-width="0.005"/>
<path d="M9.57507 6.91255C9.48757 6.9313 9.34695 6.95942 9.26257 6.98755C9.29695 6.8938 9.3407 6.73755 9.36882 6.6438C9.35632 6.72817 9.33445 6.8438 9.33445 6.91567C9.4032 6.92505 9.5032 6.91255 9.57507 6.90942" fill="#009B3A"/>
<path d="M9.57507 6.91255C9.48757 6.9313 9.34695 6.95942 9.26257 6.98755C9.29695 6.8938 9.3407 6.73755 9.36882 6.6438C9.35632 6.72817 9.33445 6.8438 9.33445 6.91567C9.4032 6.92505 9.5032 6.91255 9.57507 6.90942" stroke="black" stroke-width="0.005"/>
<path d="M9.32498 6.9875L9.52497 6.78125L9.2906 6.93437L9.27185 6.99062L9.32498 6.9875Z" fill="#009B3A" stroke="black" stroke-width="0.005"/>
<path d="M9.53748 6.94688C9.44685 6.95938 9.30935 6.97188 9.22498 6.99375C9.2656 6.9 9.31873 6.75 9.34998 6.65625C9.33123 6.74063 9.3031 6.85312 9.29685 6.92812C9.3656 6.94375 9.4656 6.94063 9.53748 6.94688Z" fill="#009B3A" stroke="black" stroke-width="0.005"/>
<path d="M9.28755 6.96873L9.42192 6.70935L9.23755 6.9281V6.98748L9.28755 6.9656" fill="#009B3A"/>
<path d="M9.28755 6.96873L9.42192 6.70935L9.23755 6.9281V6.98748L9.28755 6.9656" stroke="black" stroke-width="0.005"/>
<path d="M9.54692 6.91565C9.45317 6.95627 9.29692 7.0094 9.2063 7.0594C9.23755 6.94377 9.2688 6.76252 9.28755 6.65002C9.28755 6.7469 9.27192 6.88127 9.27817 6.96565C9.3563 6.96565 9.46567 6.93127 9.54692 6.91565Z" fill="#009B3A" stroke="black" stroke-width="0.005"/>
<path d="M9.26873 7.04375L9.43122 6.75L9.2156 7L9.20935 7.06875L9.26873 7.04375Z" fill="#009B3A" stroke="black" stroke-width="0.005"/>
<path d="M9.50935 6.95317C9.4156 6.99692 9.2656 7.05942 9.1781 7.11255C9.2031 7.00005 9.22498 6.81567 9.2406 6.7063C9.2406 6.80005 9.23435 6.93442 9.24372 7.0188C9.32185 7.00942 9.43122 6.97192 9.50935 6.95317Z" fill="#009B3A" stroke="black" stroke-width="0.005"/>
<path d="M9.23442 7.08748L9.35317 6.77185L9.17505 7.0531L9.1813 7.12498L9.23442 7.08748Z" fill="#009B3A" stroke="black" stroke-width="0.005"/>
<path d="M9.46882 6.97813C9.37507 7.025 9.22507 7.0875 9.13757 7.14375C9.15945 7.02813 9.18132 6.84687 9.19695 6.73438C9.19695 6.82812 9.1907 6.9625 9.2032 7.04688C9.28132 7.0375 9.3907 6.99688 9.46882 6.97813Z" fill="#009B3A" stroke="black" stroke-width="0.005"/>
<path d="M9.2094 7.12505L9.39065 6.84692L9.1594 7.07505L9.15002 7.1438L9.2094 7.12505Z" fill="#009B3A" stroke="black" stroke-width="0.005"/>
<path d="M9.45938 6.96255C9.375 7.0313 9.24062 7.1313 9.16562 7.2063C9.16562 7.08755 9.15 6.90942 9.14062 6.80005C9.15937 6.89067 9.18125 7.0188 9.2125 7.09692C9.2875 7.0688 9.38437 7.00317 9.4625 6.96567" fill="#009B3A"/>
<path d="M9.45938 6.96255C9.375 7.0313 9.24062 7.1313 9.16562 7.2063C9.16562 7.08755 9.15 6.90942 9.14062 6.80005C9.15937 6.89067 9.18125 7.0188 9.2125 7.09692C9.2875 7.0688 9.38437 7.00317 9.4625 6.96567" stroke="black" stroke-width="0.005"/>
<path d="M9.21877 7.14065L9.23752 6.80627L9.15002 7.13127L9.17502 7.19377L9.21877 7.14065Z" fill="#009B3A" stroke="black" stroke-width="0.005"/>
<path d="M9.43748 6.99375C9.34998 7.0625 9.21873 7.15937 9.1406 7.23438C9.1406 7.11875 9.12498 6.9375 9.1156 6.82812C9.13748 6.92188 9.15623 7.04688 9.18748 7.125C9.26248 7.1 9.35935 7.03125 9.43748 6.99375Z" fill="#009B3A" stroke="black" stroke-width="0.005"/>
<path d="M9.1969 7.1969L9.28127 6.86877L9.1344 7.16877L9.14377 7.23752L9.1969 7.1969Z" fill="#009B3A" stroke="black" stroke-width="0.005"/>
<path d="M9.425 7.00002C9.34688 7.08127 9.21875 7.20002 9.14688 7.28127C9.13438 7.16565 9.1 6.98127 9.07812 6.86877C9.10937 6.96252 9.14375 7.09065 9.18437 7.16565C9.25625 7.13127 9.35313 7.05315 9.425 7.00315" fill="#009B3A"/>
<path d="M9.425 7.00002C9.34688 7.08127 9.21875 7.20002 9.14688 7.28127C9.13438 7.16565 9.1 6.98127 9.07812 6.86877C9.10937 6.96252 9.14375 7.09065 9.18437 7.16565C9.25625 7.13127 9.35313 7.05315 9.425 7.00315" stroke="black" stroke-width="0.005"/>
<path d="M9.19692 7.2375L9.21255 6.89062L9.12817 7.22813L9.15317 7.29063L9.19692 7.2375Z" fill="#009B3A" stroke="black" stroke-width="0.005"/>
<path d="M9.39997 7.0625C9.3156 7.13125 9.18123 7.23437 9.09998 7.3125C9.09998 7.19375 9.0781 7.00625 9.06873 6.89062C9.0906 6.98437 9.1156 7.11875 9.14685 7.2C9.22498 7.16875 9.32497 7.10312 9.39997 7.05937" fill="#009B3A"/>
<path d="M9.39997 7.0625C9.3156 7.13125 9.18123 7.23437 9.09998 7.3125C9.09998 7.19375 9.0781 7.00625 9.06873 6.89062C9.0906 6.98437 9.1156 7.11875 9.14685 7.2C9.22498 7.16875 9.32497 7.10312 9.39997 7.05937" stroke="black" stroke-width="0.005"/>
<path d="M9.17188 7.27808L9.29062 6.94995L9.10938 7.24058L9.11563 7.31245L9.17188 7.27808Z" fill="#009B3A" stroke="black" stroke-width="0.005"/>
<path d="M9.39997 7.06248C9.32185 7.1406 9.2031 7.26248 9.13435 7.34685C9.12185 7.2281 9.08748 7.0406 9.06873 6.9281C9.09998 7.02185 9.13123 7.1531 9.16873 7.2281C9.2406 7.1906 9.3281 7.11248 9.39997 7.06248Z" fill="#009B3A" stroke="black" stroke-width="0.005"/>
<path d="M9.17507 7.2937L9.16257 6.94995L9.10632 7.2937L9.13757 7.35308L9.17507 7.2937Z" fill="#009B3A" stroke="black" stroke-width="0.005"/>
<path d="M9.36257 7.08755C9.28757 7.1688 9.17195 7.29067 9.10632 7.37817C9.0907 7.25317 9.05007 7.07192 9.0282 6.9563C9.05945 7.05005 9.10007 7.1813 9.13757 7.2563C9.20632 7.2188 9.29382 7.13755 9.36257 7.08755Z" fill="#009B3A" stroke="black" stroke-width="0.005"/>
<path d="M9.15632 7.32815L9.19382 6.97815L9.0907 7.3094L9.11257 7.37815L9.15632 7.32815Z" fill="#009B3A" stroke="black" stroke-width="0.005"/>
<path d="M9.3438 7.09998C9.2813 7.1906 9.17192 7.31873 9.11255 7.41248C9.08755 7.29373 9.03442 7.1156 9.00317 7.00623C9.0438 7.09373 9.09067 7.21873 9.13442 7.2906C9.20005 7.24685 9.2813 7.15935 9.34692 7.1031" fill="#009B3A"/>
<path d="M9.3438 7.09998C9.2813 7.1906 9.17192 7.31873 9.11255 7.41248C9.08755 7.29373 9.03442 7.1156 9.00317 7.00623C9.0438 7.09373 9.09067 7.21873 9.13442 7.2906C9.20005 7.24685 9.2813 7.15935 9.34692 7.1031" stroke="black" stroke-width="0.005"/>
<path d="M9.15627 7.36252L9.13128 7.0094L9.08752 7.3594L9.11877 7.4219L9.15315 7.3594" fill="#009B3A"/>
<path d="M9.15627 7.36252L9.13128 7.0094L9.08752 7.3594L9.11877 7.4219L9.15315 7.3594" stroke="black" stroke-width="0.005"/>
<path d="M9.3406 7.1219C9.2781 7.21565 9.17498 7.35002 9.12185 7.4469C9.0906 7.32815 9.0281 7.15002 8.9906 7.04065C9.03435 7.12815 9.08748 7.25315 9.13748 7.3219C9.19998 7.27502 9.2781 7.18127 9.3406 7.1219Z" fill="#009B3A" stroke="black" stroke-width="0.005"/>
<path d="M9.17505 7.39377L9.21255 7.04065L9.11255 7.3719L9.1313 7.44377L9.17505 7.39377Z" fill="#009B3A" stroke="black" stroke-width="0.005"/>
<path d="M9.32505 7.1562C9.27192 7.25308 9.18442 7.4062 9.13755 7.50933C9.09692 7.39683 9.0188 7.22808 8.97192 7.12183C9.02505 7.20308 9.08755 7.3187 9.1438 7.38433C9.20317 7.32808 9.2688 7.22183 9.32505 7.15308" fill="#009B3A"/>
<path d="M9.32505 7.1562C9.27192 7.25308 9.18442 7.4062 9.13755 7.50933C9.09692 7.39683 9.0188 7.22808 8.97192 7.12183C9.02505 7.20308 9.08755 7.3187 9.1438 7.38433C9.20317 7.32808 9.2688 7.22183 9.32505 7.15308" stroke="black" stroke-width="0.005"/>
<path d="M9.16567 7.42502L9.06567 7.08752L9.09692 7.44065L9.1438 7.49065L9.16255 7.42502" fill="#009B3A"/>
<path d="M9.16567 7.42502L9.06567 7.08752L9.09692 7.44065L9.1438 7.49065L9.16255 7.42502" stroke="black" stroke-width="0.005"/>
<path d="M9.32497 7.19373C9.26872 7.29373 9.17498 7.44373 9.1281 7.54685C9.08748 7.43435 9.00935 7.2656 8.95935 7.16248C9.01248 7.24373 9.0781 7.35935 9.13435 7.42185C9.19685 7.3656 9.2656 7.26248 9.32185 7.19373" fill="#009B3A"/>
<path d="M9.32497 7.19373C9.26872 7.29373 9.17498 7.44373 9.1281 7.54685C9.08748 7.43435 9.00935 7.2656 8.95935 7.16248C9.01248 7.24373 9.0781 7.35935 9.13435 7.42185C9.19685 7.3656 9.2656 7.26248 9.32185 7.19373" stroke="black" stroke-width="0.005"/>
<path d="M9.16873 7.48752L9.13123 7.1344L9.09998 7.48752L9.13435 7.55002L9.16873 7.48752Z" fill="#009B3A" stroke="black" stroke-width="0.005"/>
<path d="M9.33132 7.22495C9.27195 7.32183 9.17507 7.47183 9.1282 7.57183C9.08757 7.45933 9.01257 7.29058 8.9657 7.18433C9.01882 7.26558 9.08132 7.38433 9.13757 7.44683C9.20007 7.3937 9.27195 7.29058 9.33132 7.22495Z" fill="#009B3A" stroke="black" stroke-width="0.005"/>
<path d="M9.16567 7.51562L9.10005 7.17188L9.09692 7.52187L9.13755 7.57812L9.16567 7.51562Z" fill="#009B3A" stroke="black" stroke-width="0.005"/>
<path d="M9.30622 7.27498C9.24372 7.36873 9.1406 7.50935 9.08747 7.60935C9.0531 7.49373 8.98435 7.3156 8.94373 7.20935C8.9906 7.29373 9.04998 7.4156 9.09998 7.48435C9.1656 7.43435 9.24372 7.33748 9.30622 7.27498Z" fill="#009B3A" stroke="black" stroke-width="0.005"/>
<path d="M9.13435 7.55308L9.1656 7.19995L9.06873 7.53433L9.0906 7.60308L9.13435 7.55308Z" fill="#009B3A" stroke="black" stroke-width="0.005"/>
<path d="M9.30935 7.2813C9.25622 7.38442 9.1656 7.54067 9.12185 7.6438C9.0781 7.53442 8.99685 7.3688 8.94373 7.2688C8.99998 7.3438 9.06873 7.4563 9.12498 7.5188C9.18748 7.45942 9.24997 7.35317 9.30935 7.28442" fill="#009B3A"/>
<path d="M9.30935 7.2813C9.25622 7.38442 9.1656 7.54067 9.12185 7.6438C9.0781 7.53442 8.99685 7.3688 8.94373 7.2688C8.99998 7.3438 9.06873 7.4563 9.12498 7.5188C9.18748 7.45942 9.24997 7.35317 9.30935 7.28442" stroke="black" stroke-width="0.005"/>
<path d="M9.125 7.58442L9.01562 7.25317L9.05625 7.60317L9.10312 7.65317L9.12187 7.58442" fill="#009B3A"/>
<path d="M9.125 7.58442L9.01562 7.25317L9.05625 7.60317L9.10312 7.65317L9.12187 7.58442" stroke="black" stroke-width="0.005"/>
<path d="M9.29377 7.30933C9.25627 7.42183 9.19377 7.59058 9.16877 7.7062C9.10627 7.6062 8.9969 7.46245 8.93127 7.37183C8.9969 7.43745 9.0844 7.53433 9.15002 7.5812C9.20002 7.50933 9.25002 7.3937 9.29377 7.30933Z" fill="#009B3A" stroke="black" stroke-width="0.005"/>
<path d="M9.21877 7.60942L9.10315 7.28442L9.15315 7.63442L9.20002 7.67817L9.21877 7.60942Z" fill="#009B3A" stroke="black" stroke-width="0.005"/>
<path d="M9.29377 7.34375C9.25627 7.45625 9.19377 7.62812 9.16877 7.74062C9.10627 7.64062 9.00002 7.5 8.93127 7.4125C8.9969 7.475 9.0844 7.56875 9.15002 7.61875C9.20002 7.54688 9.25002 7.42813 9.29377 7.34375Z" fill="#009B3A" stroke="black" stroke-width="0.005"/>
<path d="M9.21873 7.66567L9.06873 7.36255L9.15623 7.70005L9.20935 7.73755L9.22185 7.66567" fill="#009B3A"/>
<path d="M9.21873 7.66567L9.06873 7.36255L9.15623 7.70005L9.20935 7.73755L9.22185 7.66567" stroke="black" stroke-width="0.005"/>
<path d="M9.28127 7.37183C9.2594 7.48745 9.21877 7.6687 9.20315 7.78433C9.13127 7.6937 9.00627 7.56558 8.93127 7.49058C9.00315 7.5437 9.10002 7.62808 9.1719 7.66245C9.21252 7.58433 9.2469 7.45933 9.28127 7.37183Z" fill="#009B3A" stroke="black" stroke-width="0.005"/>
<path d="M9.23127 7.71245L9.15002 7.37183L9.16253 7.72495L9.20627 7.77808L9.23127 7.71558" fill="#009B3A"/>
<path d="M9.23127 7.71245L9.15002 7.37183L9.16253 7.72495L9.20627 7.77808L9.23127 7.71558" stroke="black" stroke-width="0.005"/>
<path d="M9.28127 7.40625C9.26877 7.52812 9.24377 7.7125 9.24377 7.82812C9.16252 7.75 9.02815 7.64062 8.9469 7.575C9.0219 7.61875 9.12502 7.6875 9.20002 7.7125C9.23127 7.63125 9.25627 7.5 9.28127 7.40938" fill="#009B3A"/>
<path d="M9.28127 7.40625C9.26877 7.52812 9.24377 7.7125 9.24377 7.82812C9.16252 7.75 9.02815 7.64062 8.9469 7.575C9.0219 7.61875 9.12502 7.6875 9.20002 7.7125C9.23127 7.63125 9.25627 7.5 9.28127 7.40938" stroke="black" stroke-width="0.005"/>
<path d="M9.23442 7.73752L9.0188 7.49377L9.1813 7.79065L9.2438 7.8094L9.23442 7.73752Z" fill="#009B3A" stroke="black" stroke-width="0.005"/>
<path d="M9.28757 7.44995C9.27507 7.5687 9.25007 7.75308 9.24695 7.8687C9.1657 7.79058 9.03132 7.6812 8.95007 7.61245C9.0282 7.6562 9.13132 7.72808 9.2032 7.75308C9.23757 7.67183 9.25945 7.54058 9.28757 7.44995Z" fill="#009B3A" stroke="black" stroke-width="0.005"/>
<path d="M9.25937 7.79375L9.09375 7.5L9.19687 7.83437L9.25 7.86875L9.25937 7.79688" fill="#009B3A"/>
<path d="M9.25937 7.79375L9.09375 7.5L9.19687 7.83437L9.25 7.86875L9.25937 7.79688" stroke="black" stroke-width="0.005"/>
<path d="M9.29695 7.49995C9.28757 7.6187 9.27195 7.80308 9.27195 7.92183C9.17414 7.8373 9.07191 7.75802 8.9657 7.68433C9.04695 7.72183 9.1532 7.78745 9.22507 7.80933C9.25632 7.72495 9.27507 7.59058 9.29695 7.49683" fill="#009B3A"/>
<path d="M9.29695 7.49995C9.28757 7.6187 9.27195 7.80308 9.27195 7.92183C9.17414 7.8373 9.07191 7.75802 8.9657 7.68433C9.04695 7.72183 9.1532 7.78745 9.22507 7.80933C9.25632 7.72495 9.27507 7.59058 9.29695 7.49683" stroke="black" stroke-width="0.005"/>
<path d="M9.28132 7.84995L9.07507 7.59058L9.22507 7.89683L9.28132 7.92183V7.84995Z" fill="#009B3A" stroke="black" stroke-width="0.005"/>
<path d="M9.3 7.55623C9.29063 7.67498 9.275 7.85935 9.27812 7.9781C9.19375 7.9031 9.05625 7.8031 8.96875 7.7406C9.05 7.78123 9.15625 7.84373 9.23125 7.8656C9.2625 7.78123 9.27813 7.64685 9.3 7.5531" fill="#009B3A"/>
<path d="M9.3 7.55623C9.29063 7.67498 9.275 7.85935 9.27812 7.9781C9.19375 7.9031 9.05625 7.8031 8.96875 7.7406C9.05 7.78123 9.15625 7.84373 9.23125 7.8656C9.2625 7.78123 9.27813 7.64685 9.3 7.5531" stroke="black" stroke-width="0.005"/>
<path d="M9.29688 7.8938L9.15625 7.5813L9.23438 7.92505L9.28438 7.96567L9.29688 7.8938Z" fill="#009B3A" stroke="black" stroke-width="0.005"/>
<path d="M9.3032 7.59058C9.30945 7.71245 9.30945 7.89683 9.32195 8.01558C9.21659 7.94613 9.10815 7.88148 8.99695 7.82183C9.0782 7.84995 9.18757 7.89683 9.2657 7.90933C9.28757 7.8187 9.2907 7.68745 9.3032 7.59058Z" fill="#009B3A" stroke="black" stroke-width="0.005"/>
<path d="M9.32187 7.88125L9.0625 7.70312L9.28125 7.94688L9.34375 7.95L9.32187 7.88125Z" fill="#009B3A" stroke="black" stroke-width="0.005"/>
<path d="M9.3125 7.60315C9.32188 7.72502 9.33437 7.9094 9.35312 8.02502C9.25937 7.96565 9.10938 7.89065 9.01562 7.84377C9.1 7.86877 9.2125 7.91252 9.29062 7.9219C9.30625 7.83127 9.30312 7.70002 9.3125 7.60315Z" fill="#009B3A" stroke="black" stroke-width="0.005"/>
<path d="M9.35315 7.9469L9.1344 7.6969L9.30002 7.9969L9.3594 8.01877L9.35003 7.9469" fill="#009B3A"/>
<path d="M9.35315 7.9469L9.1344 7.6969L9.30002 7.9969L9.3594 8.01877L9.35003 7.9469" stroke="black" stroke-width="0.005"/>
<path d="M9.33125 7.65002C9.34688 7.76877 9.3625 7.95315 9.39062 8.06877C9.29688 8.01565 9.14062 7.95002 9.04688 7.9094C9.13125 7.92815 9.24687 7.96565 9.32187 7.9719C9.33437 7.87815 9.32813 7.7469 9.33125 7.65002Z" fill="#009B3A" stroke="black" stroke-width="0.005"/>
<path d="M9.39377 7.99065L9.1344 7.80627L9.35315 8.05627L9.41565 8.0594L9.39377 7.99065Z" fill="#009B3A" stroke="black" stroke-width="0.005"/>
<path d="M9.34065 7.69995C9.36252 7.8187 9.39377 8.00308 9.42502 8.11558C9.32815 8.0687 9.16877 8.0187 9.0719 7.98745C9.1594 7.99683 9.27502 8.02495 9.35315 8.0187C9.3594 7.92808 9.34377 7.79995 9.34065 7.69995Z" fill="#009B3A" stroke="black" stroke-width="0.005"/>
<path d="M9.42505 8.0281L9.2063 7.77185L9.3688 8.07498L9.4313 8.09998L9.42505 8.0281Z" fill="#009B3A" stroke="black" stroke-width="0.005"/>
<path d="M9.3531 7.7312C9.38747 7.84683 9.43435 8.02808 9.4781 8.13745C9.37497 8.1062 9.2156 8.07495 9.1156 8.0562C9.2031 8.0562 9.31873 8.06558 9.39685 8.05308C9.39685 7.95933 9.3656 7.8312 9.3531 7.73433" fill="#009B3A"/>
<path d="M9.3531 7.7312C9.38747 7.84683 9.43435 8.02808 9.4781 8.13745C9.37497 8.1062 9.2156 8.07495 9.1156 8.0562C9.2031 8.0562 9.31873 8.06558 9.39685 8.05308C9.39685 7.95933 9.3656 7.8312 9.3531 7.73433" stroke="black" stroke-width="0.005"/>
<path d="M9.43752 8.02808L9.1344 7.96558L9.41877 8.1062L9.47815 8.08433L9.4344 8.02808" fill="#009B3A"/>
<path d="M9.43752 8.02808L9.1344 7.96558L9.41877 8.1062L9.47815 8.08433L9.4344 8.02808" stroke="black" stroke-width="0.005"/>
<path d="M9.37502 7.7688C9.40627 7.88442 9.45315 8.06255 9.49377 8.17192C9.39377 8.14067 9.2344 8.10942 9.1344 8.09067C9.2219 8.09067 9.33752 8.10005 9.41565 8.09067C9.41565 7.99692 9.3844 7.86567 9.37502 7.7688Z" fill="#009B3A" stroke="black" stroke-width="0.005"/>
<path d="M9.4844 8.05933L9.1969 7.9187L9.45315 8.12808L9.51565 8.12183L9.4844 8.05933Z" fill="#009B3A" stroke="black" stroke-width="0.005"/>
<path d="M9.35935 7.78748C9.4156 7.89373 9.49998 8.05935 9.56248 8.1531C9.45623 8.14685 9.29373 8.1531 9.19373 8.1531C9.2781 8.13748 9.39373 8.12185 9.4656 8.0906C9.44372 7.99998 9.3906 7.88123 9.35935 7.78748Z" fill="#009B3A" stroke="black" stroke-width="0.005"/>
<path d="M9.53132 8.09065L9.23132 8.0094L9.51257 8.16565L9.56882 8.15002L9.5282 8.08752" fill="#009B3A"/>
<path d="M9.53132 8.09065L9.23132 8.0094L9.51257 8.16565L9.56882 8.15002L9.5282 8.08752" stroke="black" stroke-width="0.005"/>
<path d="M9.38752 7.83435C9.4469 7.93748 9.53127 8.1031 9.5969 8.19685C9.49065 8.1906 9.32815 8.19685 9.22815 8.2031C9.3094 8.18123 9.42815 8.1656 9.4969 8.13435C9.47815 8.04373 9.4219 7.92498 9.39065 7.83435" fill="#009B3A"/>
<path d="M9.38752 7.83435C9.4469 7.93748 9.53127 8.1031 9.5969 8.19685C9.49065 8.1906 9.32815 8.19685 9.22815 8.2031C9.3094 8.18123 9.42815 8.1656 9.4969 8.13435C9.47815 8.04373 9.4219 7.92498 9.39065 7.83435" stroke="black" stroke-width="0.005"/>
<path d="M9.5656 8.11558L9.28748 7.94995L9.53123 8.1812H9.59373L9.5656 8.11558Z" fill="#009B3A" stroke="black" stroke-width="0.005"/>
<path d="M9.41248 7.85938C9.4781 7.95625 9.5781 8.10937 9.64997 8.2C9.52812 8.20981 9.40703 8.22756 9.28748 8.25313C9.36873 8.22188 9.48123 8.19062 9.54998 8.15C9.51873 8.0625 9.4531 7.94687 9.41248 7.85938Z" fill="#009B3A" stroke="black" stroke-width="0.005"/>
<path d="M9.58747 8.14065L9.28748 8.13127L9.58435 8.2219L9.63748 8.18752L9.58747 8.14065ZM9.76248 6.6844L9.9781 6.65002L9.76248 6.65315L9.72498 6.6719L9.76248 6.6844Z" fill="#009B3A" stroke="black" stroke-width="0.005"/>
<path d="M9.8813 6.7312C9.8188 6.71245 9.72505 6.6812 9.65942 6.6687L9.89067 6.55933C9.8438 6.59058 9.77192 6.62808 9.73442 6.65933C9.77192 6.68433 9.83755 6.70933 9.8813 6.7312Z" fill="#009B3A" stroke="black" stroke-width="0.005"/>
<path d="M9.75002 6.69065L9.96252 6.6344L9.74377 6.66252L9.71252 6.6844L9.75315 6.69065" fill="#009B3A"/>
<path d="M9.75002 6.69065L9.96252 6.6344L9.74377 6.66252L9.71252 6.6844L9.75315 6.69065" stroke="black" stroke-width="0.005"/>
<path d="M9.8906 6.74687C9.8156 6.7375 9.7031 6.725 9.63123 6.725C9.68748 6.675 9.76247 6.59688 9.80935 6.54688C9.7781 6.59375 9.7281 6.65313 9.70623 6.69688C9.75623 6.71875 9.83435 6.73125 9.8906 6.74687Z" fill="#009B3A" stroke="black" stroke-width="0.005"/>
<path d="M9.675 6.7063L9.89375 6.6813L9.68125 6.67505L9.64062 6.6938L9.67187 6.7063" fill="#009B3A"/>
<path d="M9.675 6.7063L9.89375 6.6813L9.68125 6.67505L9.64062 6.6938L9.67187 6.7063" stroke="black" stroke-width="0.005"/>
<path d="M9.83435 6.75313L9.59998 6.7125L9.8156 6.59375C9.77185 6.625 9.70935 6.66875 9.6781 6.7C9.71873 6.71875 9.78748 6.7375 9.83435 6.75313Z" fill="#009B3A" stroke="black" stroke-width="0.005"/>
<path d="M9.6563 6.7062L9.84692 6.62183L9.63755 6.67808L9.61255 6.70308H9.6563" fill="#009B3A"/>
<path d="M9.6563 6.7062L9.84692 6.62183L9.63755 6.67808L9.61255 6.70308H9.6563" stroke="black" stroke-width="0.005"/>
<path d="M9.82815 6.77817C9.77502 6.7563 9.68752 6.71567 9.6344 6.70005L9.7719 6.55005C9.7469 6.59067 9.7094 6.6438 9.69065 6.68755C9.72815 6.7188 9.7844 6.75005 9.82815 6.77817Z" fill="#009B3A" stroke="black" stroke-width="0.005"/>
<path d="M9.66562 6.71875L9.81563 6.65625L9.65312 6.675L9.63437 6.70625L9.66562 6.71875ZM9.54062 8.1125H9.23438L9.54687 8.19063L9.59688 8.15938L9.54062 8.1125Z" fill="#009B3A" stroke="black" stroke-width="0.005"/>
<path d="M9.59692 8.1312L9.28442 8.05933L9.58442 8.2062L9.64692 8.18745L9.59692 8.1312Z" fill="#009B3A" stroke="black" stroke-width="0.005"/>
<path d="M9.65002 8.15308L9.33752 8.13745L9.65002 8.2312L9.70315 8.19995L9.65002 8.15308Z" fill="#009B3A" stroke="black" stroke-width="0.005"/>
<path d="M9.4531 7.93433C9.53123 8.02183 9.6531 8.16558 9.73748 8.2437C9.63435 8.25933 9.4781 8.29995 9.38123 8.32808C9.45623 8.29058 9.56873 8.24683 9.63123 8.20308C9.58748 8.12183 9.50623 8.01558 9.4531 7.93433Z" fill="#009B3A" stroke="black" stroke-width="0.005"/>
<path d="M9.69067 8.1688L9.37817 8.06567L9.67192 8.24067L9.73442 8.22817L9.69067 8.16567" fill="#009B3A"/>
<path d="M9.69067 8.1688L9.37817 8.06567L9.67192 8.24067L9.73442 8.22817L9.69067 8.16567" stroke="black" stroke-width="0.005"/>
<path d="M9.48132 7.95312C9.56882 8.03437 9.70007 8.1625 9.79382 8.23438C9.69382 8.2625 9.54382 8.32187 9.45007 8.35938C9.52195 8.31563 9.62507 8.25937 9.68132 8.20312C9.63132 8.12812 9.5407 8.03125 9.48132 7.95312Z" fill="#009B3A" stroke="black" stroke-width="0.005"/>
<path d="M9.71875 8.1875L9.42188 8.24687L9.73437 8.26562L9.77812 8.225L9.71562 8.1875" fill="#009B3A"/>
<path d="M9.71875 8.1875L9.42188 8.24687L9.73437 8.26562L9.77812 8.225L9.71562 8.1875" stroke="black" stroke-width="0.005"/>
<path d="M9.65623 8.1687L9.34998 8.1937L9.6656 8.24683L9.7156 8.20933L9.6531 8.1687" fill="#009B3A"/>
<path d="M9.65623 8.1687L9.34998 8.1937L9.6656 8.24683L9.7156 8.20933L9.6531 8.1687" stroke="black" stroke-width="0.005"/>
<path d="M9.71255 8.18752L9.3938 8.1344L9.7063 8.2594L9.76255 8.23752L9.71255 8.1844V8.18752Z" fill="#009B3A" stroke="black" stroke-width="0.005"/>
<path d="M9.76562 8.20312L9.45312 8.20938L9.77188 8.28125L9.82187 8.24687L9.76562 8.20312Z" fill="#009B3A" stroke="black" stroke-width="0.005"/>
<path d="M9.55315 7.99995C9.64065 8.0812 9.7719 8.21245 9.86252 8.28745C9.7594 8.30933 9.60315 8.36245 9.5094 8.3937C9.5844 8.35308 9.69065 8.30308 9.75002 8.25308C9.70002 8.17495 9.61253 8.07495 9.55315 7.99683V7.99995Z" fill="#009B3A" stroke="black" stroke-width="0.005"/>
<path d="M9.80935 8.21565L9.4906 8.1344L9.79685 8.29065L9.85622 8.2719L9.80935 8.21565Z" fill="#009B3A" stroke="black" stroke-width="0.005"/>
<path d="M9.5813 8.01562C9.67505 8.09063 9.8188 8.20938 9.91567 8.27188C9.81567 8.30625 9.67192 8.38125 9.58442 8.425C9.65317 8.37188 9.75005 8.30938 9.80317 8.25313C9.74692 8.17813 9.64692 8.0875 9.58442 8.01562H9.5813Z" fill="#009B3A" stroke="black" stroke-width="0.005"/>
<path d="M9.8375 8.2312L9.54688 8.31245H9.85938L9.9 8.26558L9.8375 8.23433V8.2312Z" fill="#009B3A" stroke="black" stroke-width="0.005"/>
<path d="M10.2375 7.79688L10 7.63125L9.76255 7.79688L9.85317 7.53438L9.6438 7.37187H9.91255L10 7.10938L10.0875 7.37187H10.3563L10.1469 7.53438L10.2375 7.79688Z" fill="#FEDF00" stroke="black" stroke-width="0.02"/>
</g>
<defs>
<clipPath id="clip0_14_514">
<rect width="20" height="15" fill="white"/>
</clipPath>
</defs>
</svg>
