<svg width="20" height="15" viewBox="0 0 20 15" fill="none" xmlns="http://www.w3.org/2000/svg">
<mask id="mask0_1825_44432" style="mask-type:luminance" maskUnits="userSpaceOnUse" x="0" y="0" width="20" height="15">
<rect width="20" height="15" fill="white"/>
</mask>
<g mask="url(#mask0_1825_44432)">
<path fill-rule="evenodd" clip-rule="evenodd" d="M0 0V15H20V0H0Z" fill="#4857A1"/>
<mask id="mask1_1825_44432" style="mask-type:luminance" maskUnits="userSpaceOnUse" x="0" y="0" width="20" height="15">
<path fill-rule="evenodd" clip-rule="evenodd" d="M0 0V15H20V0H0Z" fill="white"/>
</mask>
<g mask="url(#mask1_1825_44432)">
<path fill-rule="evenodd" clip-rule="evenodd" d="M0 0V5H20V0H0Z" fill="#C51918"/>
<path fill-rule="evenodd" clip-rule="evenodd" d="M0 10V15H20V10H0Z" fill="#F7FCFF"/>
<path fill-rule="evenodd" clip-rule="evenodd" d="M7.15999 2.37704L7.08927 2.09363C7.14956 2.11214 7.21504 2.13114 7.28415 2.15068L7.28348 2.14706C8.10851 2.2219 9.38385 2.64896 9.62125 3.10254C9.71301 3.27786 9.62177 3.42731 9.50219 3.62317C9.48432 3.65244 9.46582 3.68274 9.4472 3.71432C9.38708 3.81631 9.33257 3.9138 9.2812 4.00568C9.09586 4.33716 8.95137 4.59559 8.73143 4.72834L8.73582 5.47896L5.05111 5.44728L5.04634 4.68908C4.85797 4.54802 4.72324 4.30704 4.55474 4.00568L4.55474 4.00567L4.55474 4.00567L4.55474 4.00567L4.55473 4.00566C4.50336 3.91378 4.44886 3.8163 4.38874 3.71432C4.37012 3.68274 4.35162 3.65244 4.33375 3.62317L4.33375 3.62317C4.21417 3.42731 4.12293 3.27786 4.21469 3.10254C4.39318 2.76151 5.20185 2.42984 5.94284 2.25443C6.08864 2.20258 6.24102 2.15413 6.39208 2.10774L6.45952 2.15655C6.5181 2.14855 6.57486 2.14203 6.62932 2.13709L6.71422 2.3264H7.01423C7.01423 2.3264 7.19539 2.86424 7.19539 3.16293C7.19539 3.46163 7.01423 3.70863 7.01423 3.70863V3.91481C7.04569 3.91743 7.0787 3.92063 7.113 3.92433C7.11324 3.90644 7.11498 3.88761 7.11838 3.86833C7.13575 3.7698 7.18978 3.69697 7.23904 3.70565C7.28831 3.71434 7.31416 3.80126 7.29679 3.89979C7.29396 3.91581 7.29017 3.93115 7.28558 3.94557C7.47997 3.97201 7.69781 4.00891 7.90415 4.04688C7.98272 3.89457 8.07853 3.7441 8.17 3.60042L8.17 3.60041C8.40644 3.22904 8.61395 2.9031 8.42029 2.70854C8.38356 2.67164 8.3171 2.63731 8.23137 2.60552C7.94804 2.53502 7.63956 2.48065 7.33977 2.45345L7.33072 2.40419C7.27091 2.39448 7.21349 2.38543 7.15999 2.37704ZM8.56013 4.17672C8.66488 4.19879 8.72842 4.21283 8.72842 4.21283L8.72904 4.32024C9.09411 4.03887 9.35239 3.41544 9.37568 3.21121C9.38972 3.08809 9.19446 2.94614 8.88833 2.81752C9.03321 3.09231 8.83917 3.36499 8.59564 3.70721C8.50412 3.83583 8.40561 3.97426 8.31548 4.12631L8.40487 4.14447C8.4041 4.11623 8.40782 4.08448 8.41656 4.05184C8.44246 3.9552 8.50262 3.88735 8.55094 3.9003C8.59927 3.91325 8.61745 4.00209 8.59155 4.09873C8.58376 4.1278 8.57287 4.15427 8.56013 4.17672ZM6.67733 3.91621V3.68658C6.67733 3.68658 6.52048 3.51128 6.49617 3.14619C6.47877 2.88503 6.53261 2.57801 6.56468 2.42438C6.33065 2.45406 6.08393 2.50015 5.84504 2.55676C5.68654 2.60138 5.56022 2.65193 5.50388 2.70854C5.31022 2.9031 5.51772 3.22904 5.75416 3.60042L5.75417 3.60042L5.75417 3.60043C5.84252 3.7392 5.93492 3.88433 6.01192 4.03131C6.14511 4.00247 6.27895 3.97578 6.4039 3.95455C6.39852 3.93523 6.39465 3.91415 6.39271 3.89196C6.38399 3.79228 6.41732 3.70795 6.46716 3.70359C6.51699 3.69923 6.56446 3.7765 6.57318 3.87617C6.57476 3.89423 6.57496 3.91179 6.57393 3.92847C6.60981 3.92366 6.64437 3.91954 6.67733 3.91621ZM5.60783 4.12487C5.51793 3.97338 5.41975 3.83542 5.32852 3.70722L5.32852 3.70721L5.32852 3.70721C5.07949 3.35726 4.8822 3.08001 5.04618 2.79888C4.68775 2.93768 4.44626 3.08841 4.46026 3.21121C4.48226 3.40417 4.71405 3.97135 5.04747 4.27067C5.07069 4.26419 5.19961 4.22843 5.38158 4.18164C5.36762 4.15984 5.35529 4.13388 5.34595 4.10513C5.31503 4.00998 5.32854 3.92031 5.37611 3.90485C5.42369 3.88939 5.48732 3.95399 5.51824 4.04915C5.52891 4.08199 5.53429 4.11418 5.5348 4.14288L5.60783 4.12487Z" fill="#F6C540"/>
<path fill-rule="evenodd" clip-rule="evenodd" d="M7.28256 2.19121C7.28256 2.41089 7.10007 2.58897 6.87495 2.58897C6.64983 2.58897 6.46734 2.41089 6.46734 2.19121C6.46734 1.97154 6.64983 1.79346 6.87495 1.79346C7.10007 1.79346 7.28256 1.97154 7.28256 2.19121ZM6.87495 5.14491C7.05004 5.14491 7.19198 5.0638 7.19198 4.96375C7.19198 4.8637 7.05004 4.78259 6.87495 4.78259C6.69986 4.78259 6.55792 4.8637 6.55792 4.96375C6.55792 5.0638 6.69986 5.14491 6.87495 5.14491ZM5.28981 5.09962C5.28981 5.17465 5.22897 5.23549 5.15394 5.23549C5.0789 5.23549 5.01807 5.17465 5.01807 5.09962C5.01807 5.02458 5.0789 4.96375 5.15394 4.96375C5.22897 4.96375 5.28981 5.02458 5.28981 5.09962ZM8.91299 5.09962C8.91299 5.17465 8.85216 5.23549 8.77712 5.23549C8.70209 5.23549 8.64125 5.17465 8.64125 5.09962C8.64125 5.02458 8.70209 4.96375 8.77712 4.96375C8.85216 4.96375 8.91299 5.02458 8.91299 5.09962Z" fill="#2E42A5"/>
<path fill-rule="evenodd" clip-rule="evenodd" d="M6.19557 5.00904C6.19557 5.08408 6.09419 5.14491 5.96913 5.14491C5.84406 5.14491 5.74268 5.08408 5.74268 5.00904C5.74268 4.934 5.84406 4.87317 5.96913 4.87317C6.09419 4.87317 6.19557 4.934 6.19557 5.00904ZM8.09775 5.00904C8.09775 5.08408 7.99636 5.14491 7.8713 5.14491C7.74623 5.14491 7.64485 5.08408 7.64485 5.00904C7.64485 4.934 7.74623 4.87317 7.8713 4.87317C7.99636 4.87317 8.09775 4.934 8.09775 5.00904Z" fill="#C5363C"/>
<path fill-rule="evenodd" clip-rule="evenodd" d="M7.64505 3.87684C7.64505 3.97689 7.6045 4.058 7.55447 4.058C7.50445 4.058 7.46389 3.97689 7.46389 3.87684C7.46389 3.77679 7.50445 3.69568 7.55447 3.69568C7.6045 3.69568 7.64505 3.77679 7.64505 3.87684ZM6.28192 3.84885C6.31284 3.944 6.29933 4.03367 6.25176 4.04913C6.20418 4.06459 6.14055 3.99998 6.10963 3.90483C6.07871 3.80967 6.09222 3.72 6.13979 3.70455C6.18737 3.68909 6.251 3.75369 6.28192 3.84885ZM5.21635 4.33999C5.26393 4.32454 5.27743 4.23487 5.24651 4.13971C5.2156 4.04456 5.15196 3.97995 5.10439 3.99541C5.05681 4.01087 5.0433 4.10054 5.07422 4.19569C5.10514 4.29085 5.16877 4.35545 5.21635 4.33999ZM8.80048 4.21705C8.74746 4.3019 8.67009 4.34919 8.62766 4.32268C8.58524 4.29617 8.59383 4.2059 8.64685 4.12105C8.69987 4.0362 8.77724 3.98891 8.81966 4.01542C8.86209 4.04193 8.8535 4.1322 8.80048 4.21705Z" fill="#F7FCFF"/>
<path fill-rule="evenodd" clip-rule="evenodd" d="M6.10564 2.37018C6.1309 2.38857 6.162 2.39942 6.19564 2.39942C6.28018 2.39942 6.34872 2.33089 6.34872 2.24634C6.34872 2.1618 6.28018 2.09326 6.19564 2.09326C6.13568 2.09326 6.08378 2.12773 6.05866 2.17793C6.0334 2.15954 6.00229 2.14869 5.96866 2.14869C5.91472 2.14869 5.8673 2.17659 5.84003 2.21873C5.81358 2.19693 5.77969 2.18384 5.74274 2.18384C5.6582 2.18384 5.58966 2.25238 5.58966 2.33692C5.58966 2.34163 5.58987 2.3463 5.59029 2.3509C5.56223 2.31606 5.51922 2.29376 5.471 2.29376C5.39437 2.29376 5.3309 2.35007 5.31968 2.42356C5.29165 2.3879 5.24813 2.365 5.19926 2.365C5.1258 2.365 5.06442 2.41675 5.04959 2.48579C5.02446 2.4677 4.99361 2.45704 4.96027 2.45704C4.89243 2.45704 4.8349 2.50117 4.81482 2.56228C4.79422 2.55197 4.77097 2.54616 4.74636 2.54616C4.67083 2.54616 4.60807 2.60087 4.59555 2.67282C4.58574 2.67084 4.57559 2.66981 4.5652 2.66981C4.48147 2.66981 4.41343 2.73704 4.41214 2.82047C4.40303 2.81878 4.39364 2.8179 4.38404 2.8179C4.2995 2.8179 4.23096 2.88644 4.23096 2.97098C4.23096 2.9817 4.23207 2.99216 4.23416 3.00226C4.22406 3.00016 4.2136 2.99906 4.20288 2.99906C4.11834 2.99906 4.0498 3.06759 4.0498 3.15214C4.0498 3.21637 4.08937 3.27137 4.14545 3.29408C4.14215 3.3066 4.14038 3.31974 4.14038 3.3333C4.14038 3.39753 4.17995 3.45252 4.23603 3.47524C4.23273 3.48776 4.23096 3.5009 4.23096 3.51446C4.23096 3.59699 4.29628 3.66427 4.37804 3.66742C4.34357 3.69549 4.32154 3.73827 4.32154 3.7862C4.32154 3.87074 4.39008 3.93928 4.47462 3.93928C4.55917 3.93928 4.6277 3.87074 4.6277 3.7862C4.6277 3.70366 4.56239 3.63638 4.48062 3.63323C4.5151 3.60516 4.53712 3.56238 4.53712 3.51446C4.53712 3.45022 4.49756 3.39523 4.44147 3.37252C4.44478 3.36 4.44654 3.34685 4.44654 3.3333C4.44654 3.26906 4.40698 3.21407 4.35089 3.19136C4.3542 3.17884 4.35596 3.16569 4.35596 3.15214C4.35596 3.14142 4.35486 3.13096 4.35277 3.12086C4.36286 3.12296 4.37332 3.12406 4.38404 3.12406C4.46778 3.12406 4.53581 3.05682 4.5371 2.97339C4.54621 2.97508 4.55561 2.97597 4.5652 2.97597C4.64074 2.97597 4.70349 2.92126 4.71601 2.84931C4.72582 2.85128 4.73597 2.85232 4.74636 2.85232C4.8142 2.85232 4.87173 2.80819 4.89182 2.74708C4.91242 2.75739 4.93567 2.7632 4.96027 2.7632C4.99386 2.7632 5.02492 2.75238 5.05016 2.73405C5.05492 2.75452 5.06378 2.77342 5.07584 2.78982C5.0572 2.81518 5.04618 2.84651 5.04618 2.8804C5.04618 2.96293 5.1115 3.03021 5.19326 3.03336C5.15878 3.06143 5.13676 3.10421 5.13676 3.15214C5.13676 3.21637 5.17632 3.27137 5.23241 3.29408C5.2291 3.3066 5.22734 3.31974 5.22734 3.3333C5.22734 3.39753 5.2669 3.45252 5.32299 3.47524C5.31968 3.48776 5.31792 3.5009 5.31792 3.51446C5.31792 3.599 5.38646 3.66754 5.471 3.66754C5.55554 3.66754 5.62408 3.599 5.62408 3.51446C5.62408 3.45022 5.58452 3.39523 5.52843 3.37252C5.53174 3.36 5.5335 3.34685 5.5335 3.3333C5.5335 3.26906 5.49394 3.21407 5.43785 3.19136C5.44116 3.17884 5.44292 3.16569 5.44292 3.15214C5.44292 3.0696 5.3776 3.00232 5.29584 2.99917C5.33032 2.97111 5.35234 2.92832 5.35234 2.8804C5.35234 2.84651 5.34133 2.81518 5.32268 2.78982C5.34133 2.76446 5.35234 2.73313 5.35234 2.69924C5.35234 2.66535 5.34133 2.63402 5.32268 2.60866C5.33697 2.58922 5.34678 2.56628 5.35058 2.54137C5.37861 2.57702 5.42213 2.59992 5.471 2.59992C5.55554 2.59992 5.62408 2.53139 5.62408 2.44684C5.62408 2.44213 5.62387 2.43747 5.62345 2.43286C5.65151 2.46771 5.69452 2.49 5.74274 2.49C5.79667 2.49 5.84409 2.46211 5.87136 2.41996C5.89781 2.44176 5.9317 2.45485 5.96866 2.45485C6.02861 2.45485 6.08052 2.42038 6.10564 2.37018ZM5.10994 2.64241C5.13508 2.6605 5.16592 2.67116 5.19926 2.67116C5.24991 2.67116 5.29481 2.64656 5.32268 2.60866C5.29481 2.57076 5.24991 2.54616 5.19926 2.54616C5.21477 2.54616 5.22734 2.53359 5.22734 2.51808C5.22734 2.50257 5.21477 2.49 5.19926 2.49C5.18375 2.49 5.17118 2.50257 5.17118 2.51808C5.17118 2.53359 5.18375 2.54616 5.19926 2.54616C5.16568 2.54616 5.13462 2.55698 5.10938 2.57531C5.10086 2.53867 5.07918 2.50708 5.04959 2.48579C5.04736 2.4962 5.04618 2.507 5.04618 2.51808C5.04618 2.55197 5.0572 2.5833 5.07584 2.60866C5.0572 2.63402 5.04618 2.66535 5.04618 2.69924C5.04618 2.71121 5.04756 2.72286 5.05016 2.73405C5.08013 2.71227 5.10189 2.67989 5.10994 2.64241ZM5.10994 2.64241C5.09688 2.63302 5.08537 2.62162 5.07584 2.60866C5.08523 2.59589 5.09655 2.58463 5.10938 2.57531C5.11198 2.5865 5.11335 2.59815 5.11335 2.61012C5.11335 2.6212 5.11217 2.632 5.10994 2.64241ZM5.19926 2.85232C5.14861 2.85232 5.10371 2.82772 5.07584 2.78982C5.10371 2.75192 5.14861 2.72732 5.19926 2.72732C5.24991 2.72732 5.29481 2.75192 5.32268 2.78982C5.29481 2.82772 5.24991 2.85232 5.19926 2.85232ZM5.19926 2.85232C5.21477 2.85232 5.22734 2.86489 5.22734 2.8804C5.22734 2.89591 5.21477 2.90848 5.19926 2.90848C5.18375 2.90848 5.17118 2.89591 5.17118 2.8804C5.17118 2.86489 5.18375 2.85232 5.19926 2.85232ZM5.19926 2.72732C5.18375 2.72732 5.17118 2.71475 5.17118 2.69924C5.17118 2.68373 5.18375 2.67116 5.19926 2.67116C5.21477 2.67116 5.22734 2.68373 5.22734 2.69924C5.22734 2.71475 5.21477 2.72732 5.19926 2.72732ZM5.52843 3.37252C5.5107 3.36533 5.49131 3.36138 5.471 3.36138C5.40001 3.36138 5.34031 3.4097 5.32299 3.47524C5.34072 3.48242 5.36011 3.48638 5.38042 3.48638C5.45141 3.48638 5.51111 3.43806 5.52843 3.37252ZM5.43785 3.19136C5.42012 3.18417 5.40073 3.18022 5.38042 3.18022C5.30943 3.18022 5.24973 3.22854 5.23241 3.29408C5.25014 3.30126 5.26953 3.30522 5.28984 3.30522C5.36083 3.30522 5.42053 3.2569 5.43785 3.19136ZM5.29584 2.99917L5.28984 2.99906C5.25322 2.99906 5.21961 3.01192 5.19326 3.03336L5.19926 3.03348C5.23588 3.03348 5.2695 3.02062 5.29584 2.99917ZM4.48062 3.63323L4.47462 3.63312C4.438 3.63312 4.40439 3.64597 4.37804 3.66742L4.38404 3.66754C4.42066 3.66754 4.45428 3.65468 4.48062 3.63323ZM4.44147 3.37252C4.42415 3.43806 4.36445 3.48638 4.29346 3.48638C4.27315 3.48638 4.25377 3.48242 4.23603 3.47524C4.25335 3.4097 4.31306 3.36138 4.38404 3.36138C4.40435 3.36138 4.42374 3.36533 4.44147 3.37252ZM4.35089 3.19136C4.33357 3.2569 4.27387 3.30522 4.20288 3.30522C4.18257 3.30522 4.16319 3.30126 4.14545 3.29408C4.16277 3.22854 4.22248 3.18022 4.29346 3.18022C4.31377 3.18022 4.33316 3.18417 4.35089 3.19136ZM4.23416 3.00226C4.2465 3.0617 4.29332 3.10852 4.35277 3.12086C4.34042 3.06142 4.29361 3.0146 4.23416 3.00226ZM4.5371 2.97339C4.46598 2.9602 4.41212 2.89783 4.41212 2.82289L4.41214 2.82047C4.48327 2.83367 4.53712 2.89603 4.53712 2.97098L4.5371 2.97339ZM4.71601 2.84931C4.64601 2.83523 4.59328 2.77339 4.59328 2.69924C4.59328 2.69023 4.59406 2.6814 4.59555 2.67282C4.66556 2.6869 4.71828 2.74874 4.71828 2.82289C4.71828 2.8319 4.7175 2.84073 4.71601 2.84931ZM4.89182 2.74708C4.84164 2.72195 4.80719 2.67006 4.80719 2.61012C4.80719 2.59341 4.80987 2.57733 4.81482 2.56228C4.86499 2.58741 4.89944 2.6393 4.89944 2.69924C4.89944 2.71595 4.89677 2.73203 4.89182 2.74708ZM5.35058 2.54137C5.33012 2.51534 5.31792 2.48252 5.31792 2.44684C5.31792 2.43893 5.31852 2.43115 5.31968 2.42356C5.34014 2.44958 5.35234 2.48241 5.35234 2.51808C5.35234 2.526 5.35174 2.53377 5.35058 2.54137ZM5.59029 2.3509C5.59309 2.38179 5.60505 2.41002 5.62345 2.43286C5.62065 2.40198 5.60869 2.37374 5.59029 2.3509ZM5.87136 2.41996C5.83729 2.39188 5.81558 2.34936 5.81558 2.30177C5.81558 2.27116 5.82456 2.24265 5.84003 2.21873C5.8741 2.24681 5.89582 2.28933 5.89582 2.33692C5.89582 2.36753 5.88684 2.39604 5.87136 2.41996ZM6.10564 2.37018C6.06741 2.34235 6.04256 2.29725 6.04256 2.24634C6.04256 2.22175 6.04836 2.19852 6.05866 2.17793C6.09689 2.20576 6.12174 2.25087 6.12174 2.30177C6.12174 2.32636 6.11594 2.34959 6.10564 2.37018ZM4.5652 2.85097C4.58071 2.85097 4.59328 2.8384 4.59328 2.82289C4.59328 2.80738 4.58071 2.79481 4.5652 2.79481C4.5497 2.79481 4.53712 2.80738 4.53712 2.82289C4.53712 2.8384 4.5497 2.85097 4.5652 2.85097ZM4.38404 2.99906C4.39955 2.99906 4.41212 2.98649 4.41212 2.97098C4.41212 2.95547 4.39955 2.9429 4.38404 2.9429C4.36854 2.9429 4.35596 2.95547 4.35596 2.97098C4.35596 2.98649 4.36854 2.99906 4.38404 2.99906ZM4.20288 3.18022C4.21839 3.18022 4.23096 3.16765 4.23096 3.15214C4.23096 3.13663 4.21839 3.12406 4.20288 3.12406C4.18738 3.12406 4.1748 3.13663 4.1748 3.15214C4.1748 3.16765 4.18738 3.18022 4.20288 3.18022ZM4.29346 3.36138C4.30897 3.36138 4.32154 3.34881 4.32154 3.3333C4.32154 3.31779 4.30897 3.30522 4.29346 3.30522C4.27796 3.30522 4.26538 3.31779 4.26538 3.3333C4.26538 3.34881 4.27796 3.36138 4.29346 3.36138ZM4.38404 3.54254C4.39955 3.54254 4.41212 3.52997 4.41212 3.51446C4.41212 3.49895 4.39955 3.48638 4.38404 3.48638C4.36854 3.48638 4.35596 3.49895 4.35596 3.51446C4.35596 3.52997 4.36854 3.54254 4.38404 3.54254ZM4.5027 3.7862C4.5027 3.8017 4.49013 3.81428 4.47462 3.81428C4.45912 3.81428 4.44654 3.8017 4.44654 3.7862C4.44654 3.77069 4.45912 3.75812 4.47462 3.75812C4.49013 3.75812 4.5027 3.77069 4.5027 3.7862ZM4.74636 2.72732C4.76187 2.72732 4.77444 2.71475 4.77444 2.69924C4.77444 2.68373 4.76187 2.67116 4.74636 2.67116C4.73085 2.67116 4.71828 2.68373 4.71828 2.69924C4.71828 2.71475 4.73085 2.72732 4.74636 2.72732ZM4.96027 2.6382C4.97578 2.6382 4.98835 2.62563 4.98835 2.61012C4.98835 2.59461 4.97578 2.58204 4.96027 2.58204C4.94476 2.58204 4.93219 2.59461 4.93219 2.61012C4.93219 2.62563 4.94476 2.6382 4.96027 2.6382ZM5.471 2.47492C5.48651 2.47492 5.49908 2.46235 5.49908 2.44684C5.49908 2.43134 5.48651 2.41876 5.471 2.41876C5.45549 2.41876 5.44292 2.43134 5.44292 2.44684C5.44292 2.46235 5.45549 2.47492 5.471 2.47492ZM5.74274 2.365C5.75825 2.365 5.77082 2.35243 5.77082 2.33692C5.77082 2.32141 5.75825 2.30884 5.74274 2.30884C5.72723 2.30884 5.71466 2.32141 5.71466 2.33692C5.71466 2.35243 5.72723 2.365 5.74274 2.365ZM5.96866 2.32985C5.98416 2.32985 5.99674 2.31728 5.99674 2.30177C5.99674 2.28626 5.98416 2.27369 5.96866 2.27369C5.95315 2.27369 5.94058 2.28626 5.94058 2.30177C5.94058 2.31728 5.95315 2.32985 5.96866 2.32985ZM6.19564 2.27442C6.21115 2.27442 6.22372 2.26185 6.22372 2.24634C6.22372 2.23083 6.21115 2.21826 6.19564 2.21826C6.18013 2.21826 6.16756 2.23083 6.16756 2.24634C6.16756 2.26185 6.18013 2.27442 6.19564 2.27442ZM5.28984 3.18022C5.30535 3.18022 5.31792 3.16765 5.31792 3.15214C5.31792 3.13663 5.30535 3.12406 5.28984 3.12406C5.27433 3.12406 5.26176 3.13663 5.26176 3.15214C5.26176 3.16765 5.27433 3.18022 5.28984 3.18022ZM5.38042 3.36138C5.39593 3.36138 5.4085 3.34881 5.4085 3.3333C5.4085 3.31779 5.39593 3.30522 5.38042 3.30522C5.36491 3.30522 5.35234 3.31779 5.35234 3.3333C5.35234 3.34881 5.36491 3.36138 5.38042 3.36138ZM5.471 3.54254C5.48651 3.54254 5.49908 3.52997 5.49908 3.51446C5.49908 3.49895 5.48651 3.48638 5.471 3.48638C5.45549 3.48638 5.44292 3.49895 5.44292 3.51446C5.44292 3.52997 5.45549 3.54254 5.471 3.54254ZM9.45651 3.81428C9.47202 3.81428 9.48459 3.8017 9.48459 3.7862C9.48459 3.77069 9.47202 3.75812 9.45651 3.75812C9.441 3.75812 9.42843 3.77069 9.42843 3.7862C9.42843 3.8017 9.441 3.81428 9.45651 3.81428ZM9.30343 3.7862C9.30343 3.87074 9.37196 3.93928 9.45651 3.93928C9.54105 3.93928 9.60959 3.87074 9.60959 3.7862C9.60959 3.73827 9.58756 3.69549 9.55309 3.66742C9.63485 3.66427 9.70017 3.59699 9.70017 3.51446C9.70017 3.5009 9.69841 3.48776 9.6951 3.47524C9.75118 3.45252 9.79075 3.39753 9.79075 3.3333C9.79075 3.31974 9.78898 3.3066 9.78568 3.29408C9.84176 3.27137 9.88133 3.21637 9.88133 3.15214C9.88133 3.06759 9.81279 2.99906 9.72825 2.99906C9.71753 2.99906 9.70707 3.00016 9.69697 3.00226C9.69907 2.99216 9.70017 2.9817 9.70017 2.97098C9.70017 2.88644 9.63163 2.8179 9.54709 2.8179C9.53749 2.8179 9.5281 2.81878 9.51899 2.82047C9.5177 2.73704 9.44967 2.66981 9.36593 2.66981C9.35554 2.66981 9.34539 2.67084 9.33558 2.67282C9.32306 2.60087 9.2603 2.54616 9.18477 2.54616C9.16016 2.54616 9.13691 2.55197 9.11632 2.56228C9.09623 2.50117 9.0387 2.45704 8.97086 2.45704C8.93752 2.45704 8.90668 2.4677 8.88154 2.48579C8.86671 2.41675 8.80534 2.365 8.73187 2.365C8.683 2.365 8.63948 2.3879 8.61145 2.42356C8.60023 2.35007 8.53676 2.29376 8.46013 2.29376C8.41191 2.29376 8.3689 2.31606 8.34084 2.3509C8.34126 2.3463 8.34147 2.34163 8.34147 2.33692C8.34147 2.25238 8.27294 2.18384 8.18839 2.18384C8.15144 2.18384 8.11755 2.19693 8.0911 2.21873C8.06383 2.17659 8.01641 2.14869 7.96248 2.14869C7.92884 2.14869 7.89774 2.15954 7.87247 2.17793C7.84735 2.12773 7.79545 2.09326 7.73549 2.09326C7.65095 2.09326 7.58241 2.1618 7.58241 2.24634C7.58241 2.33089 7.65095 2.39942 7.73549 2.39942C7.76913 2.39942 7.80023 2.38857 7.82549 2.37018C7.85061 2.42038 7.90252 2.45485 7.96248 2.45485C7.99943 2.45485 8.03332 2.44176 8.05977 2.41996C8.08704 2.46211 8.13446 2.49 8.18839 2.49C8.23661 2.49 8.27962 2.46771 8.30768 2.43286C8.30726 2.43747 8.30705 2.44213 8.30705 2.44684C8.30705 2.53139 8.37559 2.59992 8.46013 2.59992C8.509 2.59992 8.55252 2.57702 8.58055 2.54137C8.58435 2.56628 8.59416 2.58922 8.60845 2.60866C8.58981 2.63402 8.57879 2.66535 8.57879 2.69924C8.57879 2.73313 8.58981 2.76446 8.60845 2.78982C8.58981 2.81518 8.57879 2.84651 8.57879 2.8804C8.57879 2.92832 8.60081 2.97111 8.63529 2.99917C8.55353 3.00232 8.48821 3.0696 8.48821 3.15214C8.48821 3.16569 8.48997 3.17884 8.49328 3.19136C8.43719 3.21407 8.39763 3.26906 8.39763 3.3333C8.39763 3.34685 8.39939 3.36 8.4027 3.37252C8.34661 3.39523 8.30705 3.45022 8.30705 3.51446C8.30705 3.599 8.37559 3.66754 8.46013 3.66754C8.54467 3.66754 8.61321 3.599 8.61321 3.51446C8.61321 3.5009 8.61145 3.48776 8.60814 3.47524C8.66423 3.45252 8.70379 3.39753 8.70379 3.3333C8.70379 3.31974 8.70203 3.3066 8.69872 3.29408C8.75481 3.27137 8.79437 3.21637 8.79437 3.15214C8.79437 3.10421 8.77235 3.06143 8.73787 3.03336C8.81963 3.03021 8.88495 2.96293 8.88495 2.8804C8.88495 2.84651 8.87393 2.81518 8.85529 2.78982C8.86735 2.77342 8.87622 2.75452 8.88098 2.73405C8.90622 2.75238 8.93727 2.7632 8.97086 2.7632C8.99546 2.7632 9.01871 2.75739 9.03931 2.74708C9.0594 2.80819 9.11693 2.85232 9.18477 2.85232C9.19516 2.85232 9.20531 2.85128 9.21512 2.84931C9.22764 2.92126 9.2904 2.97597 9.36593 2.97597C9.37553 2.97597 9.38492 2.97508 9.39403 2.97339C9.39532 3.05682 9.46335 3.12406 9.54709 3.12406C9.55781 3.12406 9.56827 3.12296 9.57837 3.12086C9.57627 3.13096 9.57517 3.14142 9.57517 3.15214C9.57517 3.16569 9.57693 3.17884 9.58024 3.19136C9.52415 3.21407 9.48459 3.26906 9.48459 3.3333C9.48459 3.34685 9.48635 3.36 9.48966 3.37252C9.43357 3.39523 9.39401 3.45022 9.39401 3.51446C9.39401 3.56238 9.41603 3.60516 9.45051 3.63323C9.36875 3.63638 9.30343 3.70366 9.30343 3.7862ZM8.82119 2.64241C8.79605 2.6605 8.76521 2.67116 8.73187 2.67116C8.68122 2.67116 8.63632 2.64656 8.60845 2.60866C8.63632 2.57076 8.68122 2.54616 8.73187 2.54616C8.76546 2.54616 8.79651 2.55698 8.82175 2.57531C8.81916 2.5865 8.81778 2.59815 8.81778 2.61012C8.81778 2.6212 8.81896 2.632 8.82119 2.64241ZM8.85529 2.60866C8.87393 2.63402 8.88495 2.66535 8.88495 2.69924C8.88495 2.71121 8.88358 2.72286 8.88098 2.73405C8.85101 2.71227 8.82924 2.67989 8.82119 2.64241C8.83425 2.63302 8.84576 2.62162 8.85529 2.60866ZM8.85529 2.60866C8.8459 2.59589 8.83458 2.58463 8.82175 2.57531C8.83027 2.53867 8.85195 2.50708 8.88154 2.48579C8.88377 2.4962 8.88495 2.507 8.88495 2.51808C8.88495 2.55197 8.87393 2.5833 8.85529 2.60866ZM8.73187 2.54616C8.71636 2.54616 8.70379 2.53359 8.70379 2.51808C8.70379 2.50257 8.71636 2.49 8.73187 2.49C8.74738 2.49 8.75995 2.50257 8.75995 2.51808C8.75995 2.53359 8.74738 2.54616 8.73187 2.54616ZM8.73187 2.85232C8.68122 2.85232 8.63632 2.82772 8.60845 2.78982C8.63632 2.75192 8.68122 2.72732 8.73187 2.72732C8.78252 2.72732 8.82742 2.75192 8.85529 2.78982C8.82742 2.82772 8.78252 2.85232 8.73187 2.85232ZM8.73187 2.85232C8.74738 2.85232 8.75995 2.86489 8.75995 2.8804C8.75995 2.89591 8.74738 2.90848 8.73187 2.90848C8.71636 2.90848 8.70379 2.89591 8.70379 2.8804C8.70379 2.86489 8.71636 2.85232 8.73187 2.85232ZM8.73187 2.72732C8.71636 2.72732 8.70379 2.71475 8.70379 2.69924C8.70379 2.68373 8.71636 2.67116 8.73187 2.67116C8.74738 2.67116 8.75995 2.68373 8.75995 2.69924C8.75995 2.71475 8.74738 2.72732 8.73187 2.72732ZM8.60814 3.47524C8.59082 3.4097 8.53112 3.36138 8.46013 3.36138C8.43982 3.36138 8.42043 3.36533 8.4027 3.37252C8.42002 3.43806 8.47972 3.48638 8.55071 3.48638C8.57102 3.48638 8.59041 3.48242 8.60814 3.47524ZM8.69872 3.29408C8.6814 3.22854 8.6217 3.18022 8.55071 3.18022C8.5304 3.18022 8.51101 3.18417 8.49328 3.19136C8.5106 3.2569 8.5703 3.30522 8.64129 3.30522C8.6616 3.30522 8.68099 3.30126 8.69872 3.29408ZM8.73787 3.03336C8.71152 3.01192 8.67791 2.99906 8.64129 2.99906L8.63529 2.99917C8.66164 3.02062 8.69525 3.03348 8.73187 3.03348L8.73787 3.03336ZM7.82549 2.37018C7.86372 2.34235 7.88857 2.29725 7.88857 2.24634C7.88857 2.22175 7.88278 2.19852 7.87247 2.17793C7.83424 2.20576 7.8094 2.25087 7.8094 2.30177C7.8094 2.32636 7.81519 2.34959 7.82549 2.37018ZM8.05977 2.41996C8.09384 2.39188 8.11556 2.34936 8.11556 2.30177C8.11556 2.27116 8.10657 2.24265 8.0911 2.21873C8.05703 2.24681 8.03531 2.28933 8.03531 2.33692C8.03531 2.36753 8.0443 2.39604 8.05977 2.41996ZM8.34084 2.3509C8.33805 2.38179 8.32608 2.41002 8.30768 2.43286C8.31048 2.40198 8.32245 2.37374 8.34084 2.3509ZM8.58055 2.54137C8.60101 2.51534 8.61321 2.48252 8.61321 2.44684C8.61321 2.43893 8.61261 2.43115 8.61145 2.42356C8.59099 2.44958 8.57879 2.48241 8.57879 2.51808C8.57879 2.526 8.57939 2.53377 8.58055 2.54137ZM9.03931 2.74708C9.08949 2.72195 9.12394 2.67006 9.12394 2.61012C9.12394 2.59341 9.12126 2.57733 9.11632 2.56228C9.06614 2.58741 9.03169 2.6393 9.03169 2.69924C9.03169 2.71595 9.03437 2.73203 9.03931 2.74708ZM9.21512 2.84931C9.28512 2.83523 9.33785 2.77339 9.33785 2.69924C9.33785 2.69023 9.33707 2.6814 9.33558 2.67282C9.26557 2.6869 9.21285 2.74874 9.21285 2.82289C9.21285 2.8319 9.21363 2.84073 9.21512 2.84931ZM9.57837 3.12086C9.63781 3.10852 9.68463 3.0617 9.69697 3.00226C9.63752 3.0146 9.59071 3.06142 9.57837 3.12086ZM9.51899 2.82047L9.51901 2.82289C9.51901 2.89783 9.46515 2.9602 9.39403 2.97339L9.39401 2.97098C9.39401 2.89603 9.44787 2.83367 9.51899 2.82047ZM9.58024 3.19136C9.59797 3.18417 9.61736 3.18022 9.63767 3.18022C9.70865 3.18022 9.76836 3.22854 9.78568 3.29408C9.76794 3.30126 9.74856 3.30522 9.72825 3.30522C9.65726 3.30522 9.59756 3.2569 9.58024 3.19136ZM9.48966 3.37252C9.50739 3.36533 9.52678 3.36138 9.54709 3.36138C9.61807 3.36138 9.67778 3.4097 9.6951 3.47524C9.67736 3.48242 9.65798 3.48638 9.63767 3.48638C9.56668 3.48638 9.50698 3.43806 9.48966 3.37252ZM9.54709 3.66754C9.51047 3.66754 9.47685 3.65468 9.45051 3.63323L9.45651 3.63312C9.49313 3.63312 9.52674 3.64597 9.55309 3.66742L9.54709 3.66754ZM9.54709 3.54254C9.5626 3.54254 9.57517 3.52997 9.57517 3.51446C9.57517 3.49895 9.5626 3.48638 9.54709 3.48638C9.53158 3.48638 9.51901 3.49895 9.51901 3.51446C9.51901 3.52997 9.53158 3.54254 9.54709 3.54254ZM9.63767 3.36138C9.65317 3.36138 9.66575 3.34881 9.66575 3.3333C9.66575 3.31779 9.65317 3.30522 9.63767 3.30522C9.62216 3.30522 9.60959 3.31779 9.60959 3.3333C9.60959 3.34881 9.62216 3.36138 9.63767 3.36138ZM9.72825 3.18022C9.74375 3.18022 9.75633 3.16765 9.75633 3.15214C9.75633 3.13663 9.74375 3.12406 9.72825 3.12406C9.71274 3.12406 9.70017 3.13663 9.70017 3.15214C9.70017 3.16765 9.71274 3.18022 9.72825 3.18022ZM9.54709 2.99906C9.5626 2.99906 9.57517 2.98649 9.57517 2.97098C9.57517 2.95547 9.5626 2.9429 9.54709 2.9429C9.53158 2.9429 9.51901 2.95547 9.51901 2.97098C9.51901 2.98649 9.53158 2.99906 9.54709 2.99906ZM9.36593 2.85097C9.38144 2.85097 9.39401 2.8384 9.39401 2.82289C9.39401 2.80738 9.38144 2.79481 9.36593 2.79481C9.35042 2.79481 9.33785 2.80738 9.33785 2.82289C9.33785 2.8384 9.35042 2.85097 9.36593 2.85097ZM9.18477 2.72732C9.20028 2.72732 9.21285 2.71475 9.21285 2.69924C9.21285 2.68373 9.20028 2.67116 9.18477 2.67116C9.16926 2.67116 9.15669 2.68373 9.15669 2.69924C9.15669 2.71475 9.16926 2.72732 9.18477 2.72732ZM8.97086 2.6382C8.98637 2.6382 8.99894 2.62563 8.99894 2.61012C8.99894 2.59461 8.98637 2.58204 8.97086 2.58204C8.95535 2.58204 8.94278 2.59461 8.94278 2.61012C8.94278 2.62563 8.95535 2.6382 8.97086 2.6382ZM8.46013 2.47492C8.47564 2.47492 8.48821 2.46235 8.48821 2.44684C8.48821 2.43134 8.47564 2.41876 8.46013 2.41876C8.44462 2.41876 8.43205 2.43134 8.43205 2.44684C8.43205 2.46235 8.44462 2.47492 8.46013 2.47492ZM8.18839 2.365C8.2039 2.365 8.21647 2.35243 8.21647 2.33692C8.21647 2.32141 8.2039 2.30884 8.18839 2.30884C8.17288 2.30884 8.16031 2.32141 8.16031 2.33692C8.16031 2.35243 8.17288 2.365 8.18839 2.365ZM7.96248 2.32985C7.97798 2.32985 7.99056 2.31728 7.99056 2.30177C7.99056 2.28626 7.97798 2.27369 7.96248 2.27369C7.94697 2.27369 7.9344 2.28626 7.9344 2.30177C7.9344 2.31728 7.94697 2.32985 7.96248 2.32985ZM7.73549 2.27442C7.751 2.27442 7.76357 2.26185 7.76357 2.24634C7.76357 2.23083 7.751 2.21826 7.73549 2.21826C7.71999 2.21826 7.70741 2.23083 7.70741 2.24634C7.70741 2.26185 7.71999 2.27442 7.73549 2.27442ZM8.64129 3.18022C8.6568 3.18022 8.66937 3.16765 8.66937 3.15214C8.66937 3.13663 8.6568 3.12406 8.64129 3.12406C8.62578 3.12406 8.61321 3.13663 8.61321 3.15214C8.61321 3.16765 8.62578 3.18022 8.64129 3.18022ZM8.55071 3.36138C8.56622 3.36138 8.57879 3.34881 8.57879 3.3333C8.57879 3.31779 8.56622 3.30522 8.55071 3.30522C8.5352 3.30522 8.52263 3.31779 8.52263 3.3333C8.52263 3.34881 8.5352 3.36138 8.55071 3.36138ZM8.46013 3.54254C8.47564 3.54254 8.48821 3.52997 8.48821 3.51446C8.48821 3.49895 8.47564 3.48638 8.46013 3.48638C8.44462 3.48638 8.43205 3.49895 8.43205 3.51446C8.43205 3.52997 8.44462 3.54254 8.46013 3.54254Z" fill="white"/>
<path fill-rule="evenodd" clip-rule="evenodd" d="M6.93855 1.34638L6.80428 1.34858L6.80451 1.56928L6.55668 1.56914L6.55963 1.70313L6.80465 1.70327L6.80491 1.95481L6.93918 1.95262L6.93892 1.70334L7.18273 1.70348L7.17978 1.56949L6.93878 1.56936L6.93855 1.34638Z" fill="#F6C540"/>
<path fill-rule="evenodd" clip-rule="evenodd" d="M3.61523 5.45886H10.1152V10.9798C10.1152 10.9798 9.91867 13.7298 6.86523 13.7298C3.8118 13.7298 3.61523 10.9798 3.61523 10.9798V5.45886Z" fill="#C51918"/>
<path fill-rule="evenodd" clip-rule="evenodd" d="M5.57666 5.6499C5.51706 5.6499 5.42531 5.69271 5.30369 5.74118C5.18207 5.78966 5.05435 5.89431 5.17902 5.99914C5.30369 6.10396 5.48216 6.33403 5.48216 6.24801C5.48216 6.16199 5.69536 6.07859 5.69536 6.12029C5.69536 6.16199 5.62936 6.24801 5.8025 6.24801C5.97565 6.24801 6.06485 6.29916 5.88011 6.29916C5.69536 6.29916 5.67529 6.38368 5.55523 6.38368C5.43516 6.38368 5.17902 6.29853 5.17902 6.24801C5.17902 6.19749 5.32736 6.49638 5.48216 6.49638C5.63697 6.49638 5.7249 6.6418 5.8025 6.56909C5.88011 6.49638 5.87092 6.49638 5.9963 6.49638C6.12167 6.49638 6.07591 6.20272 6.07591 6.20272C6.07591 6.20272 5.63626 5.6499 5.57666 5.6499Z" fill="#E8AA00"/>
<path fill-rule="evenodd" clip-rule="evenodd" d="M8.08496 5.6499C8.14456 5.6499 8.23631 5.69271 8.35793 5.74118C8.47955 5.78966 8.60727 5.89431 8.4826 5.99914C8.35793 6.10396 8.17946 6.33403 8.17946 6.24801C8.17946 6.16199 7.96626 6.07859 7.96626 6.12029C7.96626 6.16199 8.03226 6.24801 7.85912 6.24801C7.68598 6.24801 7.59677 6.29916 7.78151 6.29916C7.96626 6.29916 7.98633 6.38368 8.10639 6.38368C8.22646 6.38368 8.4826 6.29853 8.4826 6.24801C8.4826 6.19749 8.33427 6.49638 8.17946 6.49638C8.02465 6.49638 7.93672 6.6418 7.85912 6.56909C7.78151 6.49638 7.7907 6.49638 7.66533 6.49638C7.53995 6.49638 7.58571 6.20272 7.58571 6.20272C7.58571 6.20272 8.02536 5.6499 8.08496 5.6499Z" fill="#E8AA00"/>
<path fill-rule="evenodd" clip-rule="evenodd" d="M8.88199 6.25017C9.00659 6.54074 8.05164 7.62017 8.05164 7.62017H7.94471C7.89978 7.62017 7.81621 7.50961 7.7153 7.37611C7.64614 7.28462 7.56884 7.18236 7.49025 7.09752C7.34241 6.93794 7.42076 6.80388 7.4938 6.6789C7.51624 6.64051 7.53818 6.60298 7.5529 6.56582C7.5848 6.48534 7.58934 6.45324 7.59452 6.41655C7.59952 6.38117 7.60512 6.34154 7.63644 6.25017C7.68246 6.11589 7.84292 5.94263 7.95418 5.8225C7.99714 5.77611 8.03277 5.73764 8.05164 5.7124C8.11121 5.63271 8.06602 5.63317 7.94167 5.63444C7.92461 5.63462 7.90606 5.63481 7.88608 5.63481C7.72053 5.63481 7.40427 5.7124 7.30973 5.80302C7.2152 5.89364 7.11607 5.91297 6.97042 5.91297C6.82476 5.91297 6.9146 6.01106 7.04725 6.0773C6.90443 6.10461 6.81287 6.34269 6.75907 6.55408C6.72972 6.34269 6.66498 6.10461 6.52216 6.0773C6.6548 6.01106 6.74464 5.91297 6.59899 5.91297C6.45333 5.91297 6.35421 5.89364 6.25968 5.80302C6.16514 5.7124 5.84888 5.63481 5.68332 5.63481C5.66335 5.63481 5.6448 5.63462 5.62774 5.63444C5.50339 5.63317 5.4582 5.63271 5.51777 5.7124C5.53664 5.73764 5.57226 5.77611 5.61522 5.8225C5.72648 5.94263 5.88694 6.11589 5.93297 6.25017C5.96428 6.34154 5.96989 6.38117 5.97489 6.41655C5.98007 6.45324 5.98461 6.48534 6.0165 6.56582C6.03123 6.60298 6.05316 6.64051 6.0756 6.6789C6.14864 6.80388 6.227 6.93794 6.07916 7.09752C6.00057 7.18236 5.92327 7.28462 5.85411 7.37611C5.7532 7.50961 5.66963 7.62017 5.62469 7.62017H5.51777C5.51777 7.62017 4.56281 6.54074 4.68742 6.25017C4.73558 6.13785 4.81326 6.03202 4.87754 5.94444C4.97957 5.80543 5.04786 5.7124 4.91081 5.7124C4.68742 5.7124 3.79688 6.27708 3.79688 7.55035C3.79688 8.82362 3.87914 9.54777 4.07008 10.0551C4.20039 10.4013 4.08103 10.7375 3.99208 10.9881C3.95068 11.1047 3.91587 11.2028 3.91587 11.2747C3.91587 11.5011 4.2665 11.3027 4.2665 11.1609C4.2665 11.0935 4.31451 11.1939 4.36487 11.2992C4.42039 11.4153 4.47876 11.5374 4.47876 11.447C4.47876 11.3506 4.53465 11.2488 4.5839 11.159C4.62267 11.0884 4.65732 11.0253 4.65732 10.9782C4.65732 10.9312 4.70651 10.9329 4.76155 10.9349C4.83146 10.9373 4.91081 10.9402 4.91081 10.8437C4.91081 10.7787 4.93606 10.7657 4.96749 10.7495C5.01933 10.7228 5.08799 10.6875 5.08799 10.3958C5.08799 10.1795 5.13128 10.2561 5.18094 10.344C5.22664 10.4249 5.27774 10.5153 5.30544 10.3958C5.30814 10.3841 5.33682 10.334 5.37229 10.272C5.4239 10.1818 5.48986 10.0665 5.51096 10.0083C5.44591 10.263 5.28985 10.5283 5.19075 10.6548C5.08799 10.7858 4.91081 11.0704 4.91081 11.0704C4.91081 11.0704 5.07605 11.1625 5.19075 11.0704C5.25481 11.0189 5.25913 11.0673 5.26385 11.1201C5.26757 11.1618 5.27154 11.2063 5.30544 11.2063C5.32672 11.2063 5.34676 11.2097 5.36461 11.2128C5.37782 11.2151 5.38982 11.2172 5.40024 11.2175C5.36195 11.3151 5.32761 11.471 5.4428 11.3668C5.52506 11.2924 5.58274 11.2622 5.62095 11.2422C5.66518 11.219 5.68332 11.2095 5.68332 11.1609C5.68332 11.1124 5.70129 11.1289 5.72944 11.1546C5.75387 11.1769 5.78596 11.2063 5.82063 11.2063C5.86531 11.2063 5.87461 11.1441 5.88814 11.0536C5.8972 10.9929 5.90817 10.9196 5.93297 10.8437C5.93874 10.8261 5.94417 10.8091 5.94931 10.793C5.99919 10.6369 6.02245 10.5641 6.07916 10.761C6.10566 10.853 6.15246 10.9182 6.19322 10.9749C6.24868 11.0521 6.29295 11.1137 6.25968 11.2063C6.24665 11.2425 6.23031 11.2834 6.21282 11.3272C6.15279 11.4776 6.07916 11.6621 6.07916 11.8073C6.07916 11.8937 6.00056 12.0114 5.92669 12.122C5.8401 12.2516 5.76001 12.3715 5.82063 12.4198C5.93297 12.5093 5.79703 12.8108 5.68332 12.9654C5.56962 13.12 5.58842 13.3088 5.76069 13.3088C5.85497 13.3088 5.90613 13.343 5.95245 13.374C5.99077 13.3996 6.02578 13.423 6.07916 13.423C6.19706 13.423 6.25968 13.3649 6.25968 13.3649C6.25968 13.3649 6.33245 13.4749 6.45333 13.4749C6.57422 13.4749 6.59899 13.3649 6.59899 13.3649L6.68849 13.4749L6.69543 12.9932V13.4749L6.97042 13.3649C6.97042 13.3649 6.99519 13.4749 7.11607 13.4749C7.23695 13.4749 7.30973 13.3649 7.30973 13.3649C7.30973 13.3649 7.37235 13.423 7.49025 13.423C7.54363 13.423 7.57864 13.3996 7.61696 13.374C7.66328 13.343 7.71444 13.3088 7.80871 13.3088C7.98099 13.3088 7.99979 13.12 7.88608 12.9654C7.77238 12.8108 7.63644 12.5093 7.74878 12.4198C7.80939 12.3715 7.72931 12.2516 7.64272 12.122C7.56885 12.0114 7.49025 11.8937 7.49025 11.8073C7.49025 11.6621 7.41662 11.4776 7.35659 11.3272C7.3391 11.2834 7.32276 11.2425 7.30973 11.2063C7.27646 11.1137 7.32073 11.0521 7.37618 10.9749C7.41694 10.9182 7.46375 10.853 7.49025 10.761C7.54696 10.5641 7.57022 10.6369 7.62009 10.793C7.62524 10.8091 7.63067 10.8261 7.63644 10.8437C7.66124 10.9196 7.6722 10.9929 7.68127 11.0536C7.6948 11.1441 7.7041 11.2063 7.74878 11.2063C7.78345 11.2063 7.81554 11.1769 7.83997 11.1546C7.86811 11.1289 7.88608 11.1124 7.88608 11.1609C7.88608 11.2095 7.90423 11.219 7.94845 11.2422C7.98667 11.2622 8.04434 11.2924 8.12661 11.3668C8.2418 11.471 8.20745 11.3151 8.16916 11.2175C8.17959 11.2172 8.19159 11.2151 8.20479 11.2128C8.22264 11.2097 8.24268 11.2063 8.26397 11.2063C8.29787 11.2063 8.30183 11.1618 8.30556 11.1201C8.31028 11.0673 8.3146 11.0189 8.37866 11.0704C8.49336 11.1625 8.6586 11.0704 8.6586 11.0704C8.6586 11.0704 8.48141 10.7858 8.37866 10.6548C8.27956 10.5283 8.12349 10.263 8.05845 10.0083C8.07955 10.0665 8.14551 10.1818 8.19712 10.272C8.23258 10.334 8.26127 10.3841 8.26397 10.3958C8.29167 10.5153 8.34276 10.4249 8.38847 10.344C8.43812 10.2561 8.48141 10.1795 8.48141 10.3958C8.48141 10.6875 8.55008 10.7228 8.60191 10.7495C8.63335 10.7657 8.6586 10.7787 8.6586 10.8437C8.6586 10.9402 8.73795 10.9373 8.80786 10.9349C8.8629 10.9329 8.91209 10.9312 8.91209 10.9782C8.91209 11.0253 8.94673 11.0884 8.98551 11.159C9.03475 11.2488 9.09065 11.3506 9.09065 11.447C9.09065 11.5374 9.14902 11.4153 9.20454 11.2992C9.2549 11.1939 9.30291 11.0935 9.30291 11.1609C9.30291 11.3027 9.65354 11.5011 9.65354 11.2747C9.65354 11.2028 9.61872 11.1047 9.57733 10.9881C9.48837 10.7375 9.36902 10.4013 9.49932 10.0551C9.69027 9.54777 9.77253 8.82362 9.77253 7.55035C9.77253 6.27708 8.88199 5.7124 8.6586 5.7124C8.52155 5.7124 8.58983 5.80543 8.69186 5.94444C8.75615 6.03202 8.83383 6.13785 8.88199 6.25017ZM8.05164 9.98022C8.05378 9.98956 8.05605 9.99892 8.05845 10.0083C8.05409 9.99626 8.05164 9.98665 8.05164 9.98022ZM8.12661 11.1609C8.12661 11.1292 8.14846 11.1648 8.16916 11.2175C8.14284 11.2183 8.12661 11.2078 8.12661 11.1609ZM5.40024 11.2175C5.42656 11.2183 5.4428 11.2078 5.4428 11.1609C5.4428 11.1292 5.42095 11.1648 5.40024 11.2175ZM5.51096 10.0083C5.51532 9.99626 5.51777 9.98665 5.51777 9.98022C5.51563 9.98956 5.51335 9.99892 5.51096 10.0083Z" fill="#F7FCFF"/>
<path fill-rule="evenodd" clip-rule="evenodd" d="M5.11764 12.0013C5.11764 11.9134 5.34235 11.7097 5.34235 11.7097V11.727C5.37387 11.7525 5.5747 11.9181 5.5747 11.999C5.5747 12.0493 5.54869 12.1221 5.52643 12.1844C5.50977 12.2311 5.49521 12.2718 5.49521 12.2929C5.49521 12.307 5.5011 12.2969 5.51229 12.2775C5.54002 12.2297 5.60037 12.1255 5.68465 12.1952C5.7963 12.2874 5.79562 12.4234 5.79519 12.5096C5.79516 12.5147 5.79514 12.5197 5.79514 12.5244C5.79514 12.5513 5.79509 12.5511 5.79151 12.5383C5.7838 12.5108 5.75974 12.4248 5.68465 12.4248C5.5747 12.4248 5.49521 12.5244 5.49521 12.5244V12.6945C5.49521 12.6945 5.50916 12.8349 5.5747 12.7647C5.64023 12.6945 5.65418 12.8513 5.5747 12.8513C5.53412 12.8513 5.49239 12.8944 5.45153 12.9365C5.41235 12.9769 5.37398 13.0165 5.33821 13.0165V13.0024C5.30432 12.9998 5.2764 12.9649 5.24791 12.9293C5.21701 12.8907 5.18544 12.8513 5.14487 12.8513C5.06538 12.8513 5.07933 12.6945 5.14487 12.7647C5.2104 12.8349 5.22435 12.6945 5.22435 12.6945V12.5244C5.22435 12.5244 5.14487 12.4248 5.03491 12.4248C4.95982 12.4248 4.93576 12.5108 4.92805 12.5383C4.92448 12.5511 4.92442 12.5513 4.92442 12.5244C4.92442 12.5197 4.9244 12.5147 4.92437 12.5096C4.92394 12.4234 4.92327 12.2874 5.03491 12.1952C5.1192 12.1255 5.17954 12.2297 5.20727 12.2775C5.21847 12.2969 5.22435 12.307 5.22435 12.2929C5.22435 12.2718 5.2048 12.2315 5.18244 12.1853C5.15255 12.1236 5.11764 12.0515 5.11764 12.0013Z" fill="#E8AA00"/>
<path fill-rule="evenodd" clip-rule="evenodd" d="M8.10641 12.0013C8.10641 11.9134 8.33112 11.7097 8.33112 11.7097V11.727C8.36264 11.7525 8.56347 11.9181 8.56347 11.999C8.56347 12.0493 8.53746 12.1221 8.5152 12.1844C8.49854 12.2311 8.48398 12.2718 8.48398 12.2929C8.48398 12.307 8.48987 12.2969 8.50106 12.2775C8.52879 12.2297 8.58914 12.1255 8.67342 12.1952C8.78507 12.2874 8.78439 12.4234 8.78396 12.5096C8.78393 12.5147 8.78391 12.5197 8.78391 12.5244C8.78391 12.5513 8.78385 12.5511 8.78028 12.5383C8.77257 12.5108 8.74851 12.4248 8.67342 12.4248C8.56347 12.4248 8.48398 12.5244 8.48398 12.5244V12.6945C8.48398 12.6945 8.49793 12.8349 8.56347 12.7647C8.629 12.6945 8.64295 12.8513 8.56347 12.8513C8.52289 12.8513 8.48116 12.8944 8.4403 12.9365C8.40112 12.9769 8.36275 13.0165 8.32697 13.0165V13.0024C8.29309 12.9998 8.26517 12.9649 8.23668 12.9293C8.20578 12.8907 8.17421 12.8513 8.13364 12.8513C8.05415 12.8513 8.0681 12.6945 8.13364 12.7647C8.19917 12.8349 8.21312 12.6945 8.21312 12.6945V12.5244C8.21312 12.5244 8.13364 12.4248 8.02368 12.4248C7.94859 12.4248 7.92453 12.5108 7.91682 12.5383C7.91325 12.5511 7.91319 12.5513 7.91319 12.5244C7.91319 12.5197 7.91317 12.5147 7.91314 12.5096C7.91271 12.4234 7.91204 12.2874 8.02368 12.1952C8.10797 12.1255 8.16831 12.2297 8.19604 12.2775C8.20724 12.2969 8.21312 12.307 8.21312 12.2929C8.21312 12.2718 8.19357 12.2315 8.17121 12.1853C8.14132 12.1236 8.10641 12.0515 8.10641 12.0013Z" fill="#E8AA00"/>
<path fill-rule="evenodd" clip-rule="evenodd" d="M4.89391 11.4747C5.0942 11.4747 5.1347 11.0937 5.1347 11.0937C5.1347 11.0937 5.30275 10.9195 5.30275 11.048C5.30275 11.1165 5.25497 11.2028 5.21863 11.2684C5.18681 11.3259 5.16376 11.3675 5.18921 11.3675H5.46657C5.69526 11.3675 5.42641 11.4747 5.30275 11.5224C5.24665 11.5441 5.20686 11.5554 5.1687 11.5663C5.12273 11.5794 5.07912 11.5918 5.01217 11.6208C4.88965 11.6739 4.83709 12.0235 4.89391 12.1357C4.95073 12.2479 4.83709 12.2005 4.79012 12.1357C4.76403 12.0996 4.74498 12.1493 4.71842 12.2185C4.69717 12.2738 4.67111 12.3417 4.63278 12.3883C4.55874 12.4783 4.55954 12.3988 4.56125 12.2275C4.56153 12.1993 4.56183 12.1686 4.56183 12.1357C4.56183 11.9839 4.59212 11.9826 4.63718 11.9806C4.66108 11.9795 4.68913 11.9782 4.71902 11.9542C4.78358 11.9024 4.79133 11.8757 4.81084 11.8086C4.81739 11.786 4.82528 11.7589 4.83709 11.7247C4.88405 11.5888 4.63278 11.8037 4.56183 11.9055C4.51864 11.9674 4.48855 11.9742 4.44354 11.9843C4.41463 11.9908 4.37957 11.9987 4.33093 12.0235C4.25187 12.0637 4.27333 11.9846 4.29945 11.8882C4.31442 11.833 4.33093 11.7721 4.33093 11.7247C4.33093 11.6431 4.38003 11.6641 4.44296 11.6909C4.48018 11.7068 4.52224 11.7247 4.56183 11.7247C4.66302 11.7247 4.71527 11.682 4.77978 11.6293C4.78319 11.6265 4.78663 11.6237 4.79012 11.6208C4.84188 11.5787 4.72914 11.5914 4.59488 11.6065C4.54897 11.6117 4.50053 11.6172 4.4553 11.6208C4.35206 11.6291 4.34517 11.6229 4.31939 11.5997C4.30085 11.5831 4.27256 11.5576 4.19165 11.5224C3.99822 11.4384 4.31598 11.4747 4.4553 11.5224C4.53277 11.549 4.59777 11.5312 4.67466 11.5102C4.73604 11.4935 4.80499 11.4747 4.89391 11.4747ZM8.77822 11.4747C8.57792 11.4747 8.53743 11.0937 8.53743 11.0937C8.53743 11.0937 8.36938 10.9195 8.36938 11.048C8.36938 11.1165 8.41716 11.2028 8.4535 11.2684C8.48531 11.3259 8.50836 11.3675 8.48292 11.3675H8.20555C7.97686 11.3675 8.24571 11.4747 8.36938 11.5224C8.42548 11.5441 8.46526 11.5554 8.50343 11.5663C8.54939 11.5794 8.59301 11.5918 8.65995 11.6208C8.78248 11.6739 8.83504 12.0235 8.77822 12.1357C8.7214 12.2479 8.83504 12.2005 8.882 12.1357C8.9081 12.0996 8.92714 12.1493 8.95371 12.2185C8.97496 12.2738 9.00102 12.3417 9.03935 12.3883C9.11338 12.4783 9.11259 12.3988 9.11088 12.2275C9.1106 12.1993 9.11029 12.1686 9.11029 12.1357C9.11029 11.9839 9.08 11.9826 9.03495 11.9806C9.01105 11.9795 8.983 11.9782 8.9531 11.9542C8.88855 11.9024 8.8808 11.8757 8.86129 11.8086C8.85473 11.786 8.84685 11.7589 8.83504 11.7247C8.78807 11.5888 9.03935 11.8037 9.11029 11.9055C9.15349 11.9674 9.18358 11.9742 9.22859 11.9843C9.25749 11.9908 9.29255 11.9987 9.34119 12.0235C9.42025 12.0637 9.3988 11.9846 9.37267 11.8882C9.3577 11.833 9.34119 11.7721 9.34119 11.7247C9.34119 11.6431 9.29209 11.6641 9.22917 11.6909C9.19195 11.7068 9.14989 11.7247 9.11029 11.7247C9.00911 11.7247 8.95685 11.682 8.89235 11.6293C8.88894 11.6265 8.88549 11.6237 8.882 11.6208C8.83025 11.5787 8.94299 11.5914 9.07724 11.6065C9.12316 11.6117 9.17159 11.6172 9.21683 11.6208C9.32007 11.6291 9.32696 11.6229 9.35274 11.5997C9.37127 11.5831 9.39957 11.5576 9.48048 11.5224C9.6739 11.4384 9.35615 11.4747 9.21683 11.5224C9.13936 11.549 9.07435 11.5312 8.99747 11.5102C8.93609 11.4935 8.86714 11.4747 8.77822 11.4747Z" fill="#E8AA00"/>
<path fill-rule="evenodd" clip-rule="evenodd" d="M5.65381 7.71326H8.076V9.92221C8.076 9.92221 7.81598 11.0225 6.86491 11.0225C5.91384 11.0225 5.65381 9.92221 5.65381 9.92221V7.71326Z" fill="#C51918"/>
<path fill-rule="evenodd" clip-rule="evenodd" d="M7.19171 7.68115H6.55765V8.94927H5.65186V9.40217H6.55765V11.0326H7.19171V9.40217H8.09751V8.94927H7.19171V7.68115Z" fill="#F7FCFF"/>
<path fill-rule="evenodd" clip-rule="evenodd" d="M6.06269 8.31801C6.12349 8.31801 6.1525 8.26673 6.12034 8.22157C6.10344 8.19784 6.06841 8.19096 6.04211 8.20622C6.03975 8.20759 6.03754 8.20909 6.03548 8.21071C6.0258 8.20828 6.01396 8.20499 6.00032 8.20081C5.98808 8.19707 5.97478 8.19722 5.96264 8.20123C5.94794 8.2061 5.93959 8.19104 5.94668 8.09734C5.95345 8.07122 5.98927 8.05506 6.07272 8.05506C6.2252 8.05506 6.28784 8.07137 6.28784 8.08571V8.30978L6.21385 8.37656C6.17818 8.40874 6.20344 8.46377 6.25388 8.46377H6.28784V8.63534C6.24132 8.67161 6.19973 8.68856 6.1633 8.68856C6.0269 8.68856 5.95026 8.63774 5.94815 8.57769C5.94873 8.56009 5.94952 8.5471 5.9501 8.53827L5.96185 8.54212C5.97433 8.54645 5.98811 8.54664 6.00074 8.54268L6.00593 8.54097C6.01081 8.53932 6.01364 8.53836 6.01522 8.53937C6.01741 8.54077 6.0172 8.54594 6.01669 8.55829L6.01612 8.57505C6.01544 8.60326 6.04022 8.62663 6.07148 8.62725C6.10274 8.62786 6.12863 8.60549 6.12932 8.57728C6.13171 8.47832 6.0762 8.42142 5.98406 8.44077C5.92969 8.42448 5.89166 8.42637 5.86199 8.45989C5.8402 8.48452 5.83728 8.50474 5.83497 8.57771C5.83917 8.70308 5.97135 8.79074 6.1633 8.79074C6.23729 8.79074 6.3106 8.75766 6.38353 8.69488C6.39473 8.68524 6.40107 8.67188 6.40107 8.65791V8.41268C6.40107 8.39616 6.39237 8.38146 6.37888 8.37212L6.38449 8.36707C6.3951 8.35749 6.40107 8.34449 6.40107 8.33094V8.08571C6.40107 7.98101 6.29307 7.95288 6.07272 7.95288C5.94286 7.95288 5.8579 7.99121 5.8351 8.0819C5.82226 8.23682 5.86816 8.32925 5.98163 8.30283C6.01673 8.3129 6.04272 8.31801 6.06269 8.31801ZM7.65359 8.22157C7.62143 8.26673 7.65044 8.31801 7.71124 8.31801C7.73121 8.31801 7.7572 8.3129 7.7923 8.30283C7.90577 8.32925 7.95168 8.23682 7.93883 8.0819C7.91603 7.99121 7.83107 7.95288 7.70121 7.95288C7.48086 7.95288 7.37286 7.98101 7.37286 8.08571V8.33094C7.37286 8.34449 7.37883 8.35749 7.38944 8.36707L7.39505 8.37212C7.38156 8.38146 7.37286 8.39616 7.37286 8.41268V8.65791C7.37286 8.67188 7.3792 8.68524 7.3904 8.69488C7.46333 8.75766 7.53664 8.79074 7.61063 8.79074C7.80258 8.79074 7.93477 8.70308 7.93896 8.57771C7.93665 8.50474 7.93373 8.48452 7.91194 8.45989C7.88227 8.42637 7.84424 8.42448 7.78987 8.44077C7.69773 8.42142 7.64222 8.47832 7.64462 8.57728C7.6453 8.60549 7.67119 8.62786 7.70245 8.62725C7.73371 8.62663 7.75849 8.60326 7.75781 8.57505L7.75724 8.55829V8.55829C7.75673 8.54594 7.75652 8.54077 7.75871 8.53937C7.76029 8.53836 7.76313 8.53932 7.768 8.54097L7.7732 8.54268C7.78582 8.54664 7.7996 8.54645 7.81208 8.54212L7.82383 8.53827C7.82441 8.5471 7.82521 8.56009 7.82579 8.57769C7.82368 8.63774 7.74704 8.68856 7.61063 8.68856C7.5742 8.68856 7.53262 8.67161 7.48609 8.63534V8.46377H7.52005C7.57049 8.46377 7.59575 8.40874 7.56009 8.37656L7.48609 8.30978V8.08571C7.48609 8.07137 7.54873 8.05506 7.70121 8.05506C7.78466 8.05506 7.82048 8.07122 7.82725 8.09734C7.83434 8.19104 7.82599 8.2061 7.81129 8.20123C7.79915 8.19722 7.78586 8.19707 7.77361 8.20081C7.75997 8.20499 7.74813 8.20828 7.73845 8.21071C7.73639 8.20909 7.73418 8.20759 7.73182 8.20622C7.70552 8.19096 7.6705 8.19784 7.65359 8.22157ZM7.84437 8.53371L7.84195 8.53362L7.84357 8.53377L7.84437 8.53371ZM7.71124 9.94844C7.65044 9.94844 7.62143 9.89716 7.65359 9.85201C7.6705 9.82827 7.70552 9.8214 7.73182 9.83666C7.73418 9.83802 7.73639 9.83953 7.73845 9.84114C7.74813 9.83872 7.75997 9.83543 7.77361 9.83125C7.78586 9.8275 7.79915 9.82765 7.81129 9.83167C7.82599 9.83654 7.83434 9.82147 7.82725 9.72778C7.82048 9.70166 7.78466 9.68549 7.70121 9.68549C7.54873 9.68549 7.48609 9.70181 7.48609 9.71615V9.94021L7.56009 10.007C7.59575 10.0392 7.57049 10.0942 7.52005 10.0942H7.48609V10.2658C7.53262 10.302 7.5742 10.319 7.61063 10.319C7.74704 10.319 7.82368 10.2682 7.82579 10.2081C7.82521 10.1905 7.82441 10.1775 7.82383 10.1687L7.81208 10.1726C7.7996 10.1769 7.78582 10.1771 7.7732 10.1731L7.768 10.1714L7.768 10.1714C7.76313 10.1698 7.76029 10.1688 7.75871 10.1698C7.75652 10.1712 7.75673 10.1764 7.75724 10.1887L7.75781 10.2055C7.75849 10.2337 7.73371 10.2571 7.70245 10.2577C7.67119 10.2583 7.6453 10.2359 7.64462 10.2077C7.64222 10.1088 7.69773 10.0519 7.78987 10.0712C7.84424 10.0549 7.88227 10.0568 7.91194 10.0903C7.93373 10.115 7.93665 10.1352 7.93896 10.2081C7.93477 10.3335 7.80258 10.4212 7.61063 10.4212C7.53664 10.4212 7.46333 10.3881 7.3904 10.3253C7.3792 10.3157 7.37286 10.3023 7.37286 10.2883V10.0431C7.37286 10.0266 7.38156 10.0119 7.39505 10.0026L7.38944 9.9975C7.37883 9.98792 7.37286 9.97493 7.37286 9.96138V9.71615C7.37286 9.61144 7.48086 9.58332 7.70121 9.58332C7.83107 9.58332 7.91603 9.62165 7.93883 9.71233C7.95168 9.86725 7.90577 9.95968 7.7923 9.93326C7.7572 9.94334 7.73121 9.94844 7.71124 9.94844ZM6.06269 9.94844C6.12349 9.94844 6.1525 9.89716 6.12034 9.85201C6.10344 9.82827 6.06841 9.8214 6.04211 9.83666C6.03975 9.83802 6.03754 9.83953 6.03548 9.84114C6.0258 9.83872 6.01396 9.83543 6.00032 9.83125C5.98808 9.8275 5.97478 9.82765 5.96264 9.83167C5.94794 9.83654 5.93959 9.82147 5.94668 9.72778C5.95345 9.70166 5.98927 9.68549 6.07272 9.68549C6.2252 9.68549 6.28784 9.70181 6.28784 9.71615V9.94021L6.21385 10.007C6.17818 10.0392 6.20344 10.0942 6.25388 10.0942H6.28784V10.2658C6.24132 10.302 6.19973 10.319 6.1633 10.319C6.0269 10.319 5.95026 10.2682 5.94815 10.2081C5.94873 10.1905 5.94952 10.1775 5.9501 10.1687L5.96185 10.1726C5.97433 10.1769 5.98811 10.1771 6.00074 10.1731C6.00268 10.1725 6.0044 10.1719 6.00593 10.1714C6.01081 10.1698 6.01364 10.1688 6.01522 10.1698C6.01741 10.1712 6.0172 10.1764 6.01669 10.1887C6.01651 10.1933 6.01628 10.1988 6.01612 10.2055C6.01544 10.2337 6.04022 10.2571 6.07148 10.2577C6.10274 10.2583 6.12863 10.2359 6.12932 10.2077C6.13171 10.1088 6.0762 10.0519 5.98406 10.0712C5.92969 10.0549 5.89166 10.0568 5.86199 10.0903C5.8402 10.115 5.83728 10.1352 5.83497 10.2081C5.83917 10.3335 5.97135 10.4212 6.1633 10.4212C6.23729 10.4212 6.3106 10.3881 6.38353 10.3253C6.39473 10.3157 6.40107 10.3023 6.40107 10.2883V10.0431C6.40107 10.0266 6.39237 10.0119 6.37888 10.0026L6.38449 9.9975C6.3951 9.98792 6.40107 9.97493 6.40107 9.96138V9.71615C6.40107 9.61144 6.29307 9.58332 6.07272 9.58332C5.94286 9.58332 5.8579 9.62165 5.8351 9.71233C5.82226 9.86725 5.86816 9.95968 5.98163 9.93326C6.01673 9.94334 6.04272 9.94844 6.06269 9.94844Z" fill="#F7FCFF"/>
</g>
</g>
</svg>
