<svg width="20" height="15" viewBox="0 0 20 15" fill="none" xmlns="http://www.w3.org/2000/svg">
<g clip-path="url(#clip0_14_303)">
<path d="M0 0H20V15H0V0Z" fill="#20603D"/>
<path d="M0 0H20V11.25H0V0Z" fill="#FAD201"/>
<path d="M0 0H20V7.5H0V0Z" fill="#00A1DE"/>
<path d="M18.3876 3.91878L16.7126 4.0167L18.3043 4.54587L16.6626 4.20628L18.0647 5.12712L16.5647 4.37295L17.6772 5.62921L16.4251 4.51462L17.1793 6.01463L16.2563 4.61254L16.5938 6.25213L16.0667 4.66254L15.9688 6.33754L15.948 3.89795L18.3876 3.91878Z" fill="#E5BE01"/>
<path d="M18.3876 3.91874L16.7126 3.82082L18.3043 3.29166L16.6626 3.63124L18.0647 2.7104L16.5647 3.46457L17.6772 2.20832L16.4251 3.32291L17.1793 1.8229L16.2563 3.22499L16.5938 1.5854L16.0667 3.17499L15.9688 1.49998L15.948 3.93958L18.3876 3.91874Z" fill="#E5BE01"/>
<path d="M13.55 3.91878L15.225 4.0167L13.6334 4.54587L15.275 4.20628L13.8729 5.12712L15.373 4.37295L14.2604 5.62921L15.5125 4.51462L14.7584 6.01463L15.6813 4.61254L15.3438 6.25213L15.8709 4.66254L15.9688 6.33754L15.9896 3.89795L13.55 3.91878Z" fill="#E5BE01"/>
<path d="M13.55 3.91874L15.225 3.82082L13.6334 3.29166L15.275 3.63124L13.8729 2.7104L15.373 3.46457L14.2604 2.20832L15.5125 3.32291L14.7584 1.8229L15.6813 3.22499L15.3438 1.5854L15.8709 3.17499L15.9688 1.49998L15.9896 3.93958L13.55 3.91874Z" fill="#E5BE01"/>
<path d="M15.9689 4.6334C16.3635 4.6334 16.6834 4.31347 16.6834 3.91881C16.6834 3.52416 16.3635 3.20422 15.9689 3.20422C15.5742 3.20422 15.2543 3.52416 15.2543 3.91881C15.2543 4.31347 15.5742 4.6334 15.9689 4.6334Z" fill="#E5BE01" stroke="#00A1DE" stroke-width="0.113334"/>
</g>
<defs>
<clipPath id="clip0_14_303">
<rect width="20" height="15" fill="white"/>
</clipPath>
</defs>
</svg>
