<svg width="20" height="15" viewBox="0 0 20 15" fill="none" xmlns="http://www.w3.org/2000/svg">
<mask id="mask0_1825_44688" style="mask-type:luminance" maskUnits="userSpaceOnUse" x="0" y="0" width="20" height="15">
<rect width="20" height="15" fill="white"/>
</mask>
<g mask="url(#mask0_1825_44688)">
<path fill-rule="evenodd" clip-rule="evenodd" d="M0 0V15H20V0H0Z" fill="#F7FCFF"/>
<mask id="mask1_1825_44688" style="mask-type:luminance" maskUnits="userSpaceOnUse" x="0" y="0" width="20" height="15">
<path fill-rule="evenodd" clip-rule="evenodd" d="M0 0V15H20V0H0Z" fill="white"/>
</mask>
<g mask="url(#mask1_1825_44688)">
<path fill-rule="evenodd" clip-rule="evenodd" d="M0 0V7.5H20V0H0Z" fill="#E31D1C"/>
<path fill-rule="evenodd" clip-rule="evenodd" d="M5.54264 6.61853C5.54264 6.61853 3.77659 5.90823 3.77659 3.98381C3.77659 2.05938 5.54264 1.37202 5.54264 1.37202C4.68431 1.15473 2.40674 1.34908 2.40674 3.98381C2.40674 6.61853 4.64989 7.11541 5.54264 6.61853ZM5.99513 6.30044L6.50177 5.99458L7.01957 6.30044L6.89285 5.70359L7.31378 5.23275H6.74347L6.50177 4.67544L6.26007 5.23275L5.68878 5.2569L6.11069 5.70359L5.99513 6.30044ZM8.3432 5.96043L7.83656 6.26629L7.95212 5.66944L7.53022 5.22275L8.1015 5.1986L8.3432 4.64129L8.5849 5.1986H9.15522L8.73428 5.66944L8.86101 6.26629L8.3432 5.96043ZM7.05436 3.60622L7.561 3.30036L8.07881 3.60622L7.95208 3.00937L8.37302 2.53853H7.8027L7.561 1.98122L7.3193 2.53853L6.74802 2.56268L7.16992 3.00937L7.05436 3.60622ZM5.85601 4.51421L5.34937 4.82007L5.46493 4.22322L5.04302 3.77653L5.61431 3.75238L5.85601 3.19507L6.09771 3.75238H6.66802L6.24709 4.22322L6.37381 4.82007L5.85601 4.51421ZM8.69838 4.79266L9.20502 4.4868L9.72282 4.79266L9.5961 4.19581L10.017 3.72497H9.44672L9.20502 3.16766L8.96332 3.72497L8.39203 3.74912L8.81394 4.19581L8.69838 4.79266Z" fill="#F1F9FF"/>
</g>
</g>
</svg>
