<svg width="20" height="15" viewBox="0 0 20 15" fill="none" xmlns="http://www.w3.org/2000/svg">
<mask id="mask0_1825_44703" style="mask-type:luminance" maskUnits="userSpaceOnUse" x="0" y="0" width="20" height="15">
<rect width="20" height="15" fill="white"/>
</mask>
<g mask="url(#mask0_1825_44703)">
<path fill-rule="evenodd" clip-rule="evenodd" d="M0 0V15H20V0H0Z" fill="#2E42A5"/>
<mask id="mask1_1825_44703" style="mask-type:luminance" maskUnits="userSpaceOnUse" x="0" y="0" width="20" height="15">
<path fill-rule="evenodd" clip-rule="evenodd" d="M0 0V15H20V0H0Z" fill="white"/>
</mask>
<g mask="url(#mask1_1825_44703)">
<rect width="11" height="9" fill="#2E42A5"/>
<mask id="mask2_1825_44703" style="mask-type:luminance" maskUnits="userSpaceOnUse" x="0" y="0" width="11" height="9">
<rect width="11" height="9" fill="white"/>
</mask>
<g mask="url(#mask2_1825_44703)">
<path d="M-1.25293 8.12482L1.22266 9.21057L11.3059 1.1804L12.6117 -0.43306L9.96444 -0.795949L5.85172 2.66448L2.54141 4.996L-1.25293 8.12482Z" fill="#F7FCFF"/>
<path d="M-0.914062 8.88555L0.347138 9.51562L12.1428 -0.582947H10.3719L-0.914062 8.88555Z" fill="#F50100"/>
<path d="M12.5024 8.12493L10.3054 9.52063L-0.0564003 1.1805L-1.36222 -0.432954L1.28507 -0.795844L5.39779 2.66459L8.7081 4.99611L12.5024 8.12493Z" fill="#F7FCFF"/>
<path d="M12.418 8.67082L11.1568 9.3009L6.13406 4.97718L4.64494 4.4941L-1.48787 -0.427482H0.283002L6.41237 4.37728L8.04046 4.95655L12.418 8.67082Z" fill="#F50100"/>
<mask id="path-10-outside-1_1825_44703" maskUnits="userSpaceOnUse" x="-1" y="-1" width="13" height="11" fill="black">
<rect fill="white" x="-1" y="-1" width="13" height="11"/>
<path fill-rule="evenodd" clip-rule="evenodd" d="M6 0H5V4H0V5H5V9H6V5H11V4H6V0Z"/>
</mask>
<path fill-rule="evenodd" clip-rule="evenodd" d="M6 0H5V4H0V5H5V9H6V5H11V4H6V0Z" fill="#F50100"/>
<path d="M5 0V-0.9375H4.0625V0H5ZM6 0H6.9375V-0.9375H6V0ZM5 4V4.9375H5.9375V4H5ZM0 4V3.0625H-0.9375V4H0ZM0 5H-0.9375V5.9375H0V5ZM5 5H5.9375V4.0625H5V5ZM5 9H4.0625V9.9375H5V9ZM6 9V9.9375H6.9375V9H6ZM6 5V4.0625H5.0625V5H6ZM11 5V5.9375H11.9375V5H11ZM11 4H11.9375V3.0625H11V4ZM6 4H5.0625V4.9375H6V4ZM5 0.9375H6V-0.9375H5V0.9375ZM5.9375 4V0H4.0625V4H5.9375ZM0 4.9375H5V3.0625H0V4.9375ZM0.9375 5V4H-0.9375V5H0.9375ZM5 4.0625H0V5.9375H5V4.0625ZM5.9375 9V5H4.0625V9H5.9375ZM6 8.0625H5V9.9375H6V8.0625ZM5.0625 5V9H6.9375V5H5.0625ZM11 4.0625H6V5.9375H11V4.0625ZM10.0625 4V5H11.9375V4H10.0625ZM6 4.9375H11V3.0625H6V4.9375ZM5.0625 0V4H6.9375V0H5.0625Z" fill="#F7FCFF" mask="url(#path-10-outside-1_1825_44703)"/>
</g>
<path d="M13.7737 6.02039H13.5237V6.27039C13.5237 6.53996 13.5225 6.80453 13.5213 7.06308C13.5184 7.68087 13.5157 8.26427 13.5303 8.79924C13.5511 9.55829 13.6068 10.2417 13.7525 10.8152C13.8986 11.3902 14.1407 11.8769 14.5504 12.2173C14.9623 12.5595 15.5117 12.7274 16.2189 12.7274C16.9388 12.7274 17.5027 12.5165 17.9285 12.1289C18.349 11.7459 18.6121 11.2112 18.7751 10.6024C19.0989 9.39345 19.0503 7.80123 18.9622 6.25615L18.9487 6.02039H18.7126H13.7737Z" fill="#B7E1FF" stroke="#F7FCFF" stroke-width="0.5"/>
<mask id="mask3_1825_44703" style="mask-type:luminance" maskUnits="userSpaceOnUse" x="13" y="5" width="7" height="8">
<path d="M13.7737 6.02039H13.5237V6.27039C13.5237 6.53996 13.5225 6.80453 13.5213 7.06308C13.5184 7.68087 13.5157 8.26427 13.5303 8.79924C13.5511 9.55829 13.6068 10.2417 13.7525 10.8152C13.8986 11.3902 14.1407 11.8769 14.5504 12.2173C14.9623 12.5595 15.5117 12.7274 16.2189 12.7274C16.9388 12.7274 17.5027 12.5165 17.9285 12.1289C18.349 11.7459 18.6121 11.2112 18.7751 10.6024C19.0989 9.39345 19.0503 7.80123 18.9622 6.25615L18.9487 6.02039H18.7126H13.7737Z" fill="white" stroke="white" stroke-width="0.5"/>
</mask>
<g mask="url(#mask3_1825_44703)">
<rect x="15" y="11.25" width="3.75" height="1.25" fill="#2E42A5"/>
<g filter="url(#filter0_d_1825_44703)">
<rect x="12.5" y="5" width="7.5" height="3.75" fill="#FDFF00"/>
</g>
<path d="M15.737 6.79784C15.7322 6.75089 15.7247 6.69015 15.7052 6.62627L16.0004 7.54349C15.9731 7.51638 15.944 7.49181 15.9227 7.47395C15.9186 7.4705 15.9146 7.4672 15.9109 7.46404C15.8924 7.44853 15.8774 7.43604 15.8621 7.42223C15.7989 7.3656 15.7681 7.32322 15.7633 7.2428C15.7595 7.17908 15.7565 7.11778 15.7537 7.06047C15.7486 6.95678 15.7441 6.86615 15.737 6.79784ZM15.5034 8.41156C15.5034 8.41156 15.5034 8.41156 15.5034 8.41156L15.5585 8.45587L15.5585 8.45588L15.5034 8.41156Z" fill="#F7FCFF" stroke="#272727" stroke-width="0.625"/>
<path d="M15.5166 8.77759H15.6416V11.2496H15.5166V8.77759Z" fill="#FDFF00"/>
<path fill-rule="evenodd" clip-rule="evenodd" d="M15.0628 10.5079H16.177C16.177 10.5079 16.1878 10.8295 16.0186 10.77C15.8495 10.7105 16.0356 10.8295 15.7783 10.77C15.5209 10.7105 15.2941 10.9567 15.2364 10.8336C15.1787 10.7105 14.9548 10.8685 15.0088 10.6882C15.0628 10.5079 15.0628 10.5079 15.0628 10.5079Z" fill="#F7FCFF"/>
<rect x="15.0835" y="10.4775" width="1.08333" height="0.125" fill="#212123"/>
<path fill-rule="evenodd" clip-rule="evenodd" d="M15.2168 10.0409H16.1082C16.1082 10.0409 16.1168 10.2981 15.9815 10.2505C15.8462 10.2029 15.9951 10.2981 15.7892 10.2505C15.5833 10.2029 15.4019 10.3999 15.3557 10.3014C15.3096 10.2029 15.1305 10.3294 15.1737 10.1851C15.2168 10.0409 15.2168 10.0409 15.2168 10.0409Z" fill="#F7FCFF"/>
<rect x="15.2334" y="10.0166" width="0.866667" height="0.125" fill="#212123"/>
<path fill-rule="evenodd" clip-rule="evenodd" d="M15.0545 9.52808H16.0202C16.0202 9.52808 16.0295 9.7853 15.8829 9.73771C15.7363 9.69012 15.8976 9.7853 15.6746 9.73771C15.4515 9.69012 15.255 9.88705 15.205 9.78859C15.1549 9.69012 14.9609 9.81655 15.0077 9.67231C15.0545 9.52808 15.0545 9.52808 15.0545 9.52808Z" fill="#F7FCFF"/>
<rect x="15.0723" y="9.50378" width="0.938889" height="0.125" fill="#212123"/>
<path fill-rule="evenodd" clip-rule="evenodd" d="M15.1338 9.09766H16.0252C16.0252 9.09766 16.0338 9.41918 15.8985 9.3597C15.7632 9.30021 15.9121 9.41918 15.7062 9.3597C15.5003 9.30021 15.3189 9.54638 15.2727 9.42329C15.2266 9.30021 15.0475 9.45825 15.0906 9.27795C15.1338 9.09766 15.1338 9.09766 15.1338 9.09766Z" fill="#F7FCFF"/>
<rect x="15.1504" y="9.06726" width="0.866667" height="0.125" fill="#212123"/>
<path d="M16.7144 9.09009H16.8394V11.5621H16.7144V9.09009Z" fill="#FDFF00"/>
<path fill-rule="evenodd" clip-rule="evenodd" d="M16.3128 10.6099H17.427C17.427 10.6099 17.4378 10.8671 17.2686 10.8195C17.0995 10.7719 17.2856 10.8671 17.0283 10.8195C16.7709 10.7719 16.5441 10.9688 16.4864 10.8704C16.4287 10.7719 16.2048 10.8983 16.2588 10.7541C16.3128 10.6099 16.3128 10.6099 16.3128 10.6099Z" fill="#F7FCFF"/>
<rect x="16.3335" y="10.5856" width="1.08333" height="0.125" fill="#212123"/>
<path fill-rule="evenodd" clip-rule="evenodd" d="M16.4782 10.144H17.3536C17.3536 10.144 17.3621 10.337 17.2292 10.3013C17.0963 10.2656 17.2425 10.337 17.0403 10.3013C16.8381 10.2656 16.6599 10.4133 16.6146 10.3394C16.5692 10.2656 16.3933 10.3604 16.4357 10.2522C16.4782 10.144 16.4782 10.144 16.4782 10.144Z" fill="#F7FCFF"/>
<rect x="16.4941" y="10.1254" width="0.85119" height="0.125" fill="#212123"/>
<path fill-rule="evenodd" clip-rule="evenodd" d="M16.3039 9.63123H17.259C17.259 9.63123 17.2682 9.82414 17.1232 9.78845C16.9782 9.75276 17.1377 9.82414 16.9171 9.78845C16.6966 9.75276 16.5022 9.90046 16.4527 9.82661C16.4032 9.75276 16.2114 9.84758 16.2576 9.7394C16.3039 9.63123 16.3039 9.63123 16.3039 9.63123Z" fill="#F7FCFF"/>
<rect x="16.3218" y="9.61255" width="0.928571" height="0.125" fill="#212123"/>
<path fill-rule="evenodd" clip-rule="evenodd" d="M16.3888 9.19958H17.2643C17.2643 9.19958 17.2727 9.45681 17.1398 9.40922C17.0069 9.36163 17.1532 9.45681 16.9509 9.40922C16.7487 9.36163 16.5705 9.55856 16.5252 9.4601C16.4799 9.36163 16.304 9.48806 16.3464 9.34382C16.3888 9.19958 16.3888 9.19958 16.3888 9.19958Z" fill="#F7FCFF"/>
<rect x="16.4048" y="9.17529" width="0.85119" height="0.125" fill="#212123"/>
<path d="M18.4316 8.78662H18.5566V12.0733H18.4316V8.78662Z" fill="#FDFF00"/>
<path fill-rule="evenodd" clip-rule="evenodd" d="M17.9206 10.7832H19.3387C19.3387 10.7832 19.3524 11.0404 19.1371 10.9928C18.9219 10.9452 19.1588 11.0404 18.8312 10.9928C18.5036 10.9452 18.215 11.1422 18.1416 11.0437C18.0681 10.9452 17.7832 11.0717 17.8519 10.9274C17.9206 10.7832 17.9206 10.7832 17.9206 10.7832Z" fill="#F7FCFF"/>
<rect x="17.9468" y="10.7589" width="1.37879" height="0.125" fill="#212123"/>
<path fill-rule="evenodd" clip-rule="evenodd" d="M18.1307 10.1597H19.2449C19.2449 10.1597 19.2557 10.3526 19.0865 10.3169C18.9174 10.2812 19.1035 10.3526 18.8461 10.3169C18.5888 10.2812 18.362 10.4289 18.3043 10.3551C18.2466 10.2812 18.0227 10.376 18.0767 10.2678C18.1307 10.1597 18.1307 10.1597 18.1307 10.1597Z" fill="#F7FCFF"/>
<rect x="18.1514" y="10.1443" width="1.08333" height="0.125" fill="#212123"/>
<path fill-rule="evenodd" clip-rule="evenodd" d="M18.0174 9.33423H19.1316C19.1316 9.33423 19.1424 9.59145 18.9732 9.54386C18.8041 9.49627 18.9902 9.59145 18.7328 9.54386C18.4755 9.49627 18.2487 9.69321 18.191 9.59474C18.1333 9.49627 17.9094 9.62271 17.9634 9.47847C18.0174 9.33423 18.0174 9.33423 18.0174 9.33423Z" fill="#F7FCFF"/>
<rect x="18.0381" y="9.30994" width="1.08333" height="0.125" fill="#212123"/>
<path fill-rule="evenodd" clip-rule="evenodd" d="M15.1157 11.0543C15.1157 11.0543 15.6943 11.3686 16.5763 11.3145C17.4584 11.2603 17.395 11.4306 17.6238 11.1884C17.8526 10.9461 17.8727 11.0001 18.1581 10.873C18.4435 10.7458 18.4844 10.6259 18.6315 10.6259C18.7786 10.6259 20.3453 10.563 20.3453 10.563C20.3453 10.563 20.2019 10.6917 20.2019 10.873C20.2019 11.0543 20.2975 11.0729 20.2019 11.2372C20.1064 11.4016 19.9984 11.6214 19.8597 11.6852C19.7209 11.749 17.8485 11.7894 17.371 11.7894C16.8935 11.7894 15.9128 11.8425 15.8 11.7894C15.6871 11.7362 15.1157 11.0543 15.1157 11.0543Z" fill="#272727"/>
<path fill-rule="evenodd" clip-rule="evenodd" d="M13.8237 9.80403L14.382 9.28979C14.382 9.28979 14.4064 9.28979 14.5101 9.54691C14.6139 9.80403 14.6188 10.1557 14.7267 10.0679C14.8346 9.98004 15.0007 10.0611 15.0706 9.80403C15.1406 9.54691 15.1362 9.21396 15.2251 9.38044C15.314 9.54691 15.2612 9.30355 15.4031 9.68571C15.545 10.0679 15.6012 9.52152 15.6792 10.0679C15.7573 10.6142 15.8233 10.8028 15.8233 10.9298C15.8233 11.0569 16.5341 11.4356 16.2615 11.6964C15.9888 11.9572 16.066 11.8343 15.8233 11.9983C15.5807 12.1623 15.332 12.0669 15.6792 12.1957C16.0265 12.3245 15.9768 12.558 15.9768 12.7302C15.9768 12.9024 15.9554 12.9795 15.6792 12.9409C15.4031 12.9024 15.0673 13.0398 15.0002 13.0398C14.9331 13.0398 14.1236 12.8748 14.1236 12.5353C14.1236 12.1957 13.8237 9.80403 13.8237 9.80403Z" fill="#CE6201"/>
</g>
</g>
</g>
<defs>
<filter id="filter0_d_1825_44703" x="12.5" y="5" width="7.5" height="3.75" filterUnits="userSpaceOnUse" color-interpolation-filters="sRGB">
<feFlood flood-opacity="0" result="BackgroundImageFix"/>
<feColorMatrix in="SourceAlpha" type="matrix" values="0 0 0 0 0 0 0 0 0 0 0 0 0 0 0 0 0 0 127 0" result="hardAlpha"/>
<feOffset/>
<feColorMatrix type="matrix" values="0 0 0 0 0 0 0 0 0 0 0 0 0 0 0 0 0 0 0.5 0"/>
<feBlend mode="normal" in2="BackgroundImageFix" result="effect1_dropShadow_1825_44703"/>
<feBlend mode="normal" in="SourceGraphic" in2="effect1_dropShadow_1825_44703" result="shape"/>
</filter>
</defs>
</svg>
