<svg width="20" height="15" viewBox="0 0 20 15" fill="none" xmlns="http://www.w3.org/2000/svg">
<mask id="mask0_1825_44774" style="mask-type:luminance" maskUnits="userSpaceOnUse" x="0" y="0" width="20" height="15">
<rect width="20" height="15" fill="white"/>
</mask>
<g mask="url(#mask0_1825_44774)">
<path fill-rule="evenodd" clip-rule="evenodd" d="M0 0V15H20V0H0Z" fill="#2E42A5"/>
<mask id="mask1_1825_44774" style="mask-type:luminance" maskUnits="userSpaceOnUse" x="0" y="0" width="20" height="15">
<path fill-rule="evenodd" clip-rule="evenodd" d="M0 0V15H20V0H0Z" fill="white"/>
</mask>
<g mask="url(#mask1_1825_44774)">
<path fill-rule="evenodd" clip-rule="evenodd" d="M0 0V5H20V0H0Z" fill="#F7FCFF"/>
<path fill-rule="evenodd" clip-rule="evenodd" d="M0 10V15H20V10H0Z" fill="#C51918"/>
<path fill-rule="evenodd" clip-rule="evenodd" d="M8.58774 3.1477C8.58774 3.1477 7.27228 2.52649 5.63616 2.52649C4.00003 2.52649 2.68457 3.1477 2.68457 3.1477C2.68457 3.1477 2.83096 5.6444 3.06234 6.96702C3.16113 7.53174 3.63596 8.35539 4.06584 8.74524C4.55582 9.18958 5.63616 9.71601 5.63616 9.71601C5.94879 9.50059 6.53332 9.40371 7.28047 8.74524C8.02762 8.08676 8.21333 6.96702 8.21333 6.96702L8.58774 3.1477Z" fill="#2E42A5"/>
<path d="M8.41362 3.06604L8.96144 3.33962L8.58538 7.10375C8.45366 7.90042 8.12408 8.52867 7.59703 8.99317C7.31113 9.24514 7.03205 9.43341 6.73284 9.58985C6.56395 9.67815 5.85748 10.0421 5.86363 10.0391C5.79285 10.0732 5.73918 10.1031 5.69558 10.1331L5.62725 10.1802L5.55348 10.1443C4.82175 9.78771 4.13906 9.30787 3.7998 9.00021C3.33669 8.58023 2.84839 7.72082 2.74428 7.12572C2.58863 6.23594 2.44904 5.01037 2.35107 3.33962L2.8432 3.08216C2.94042 4.74033 3.05779 6.06215 3.21064 6.93587C3.30107 7.4528 3.75135 8.2453 4.16212 8.61781C4.4657 8.89312 4.95478 9.19839 5.62725 9.5304C5.66736 9.50689 5.71181 9.48362 5.76267 9.45912C5.7641 9.45842 6.22155 9.25528 6.38053 9.17216C6.65937 9.02637 6.91855 8.85153 7.1854 8.61634C7.65326 8.20401 7.94526 7.64871 8.06335 6.94328L8.41362 3.06604Z" fill="#C51918"/>
<path fill-rule="evenodd" clip-rule="evenodd" d="M3.46387 6.89015C3.46387 6.89015 3.58311 7.25494 3.80354 7.66462C4.12726 7.74999 4.32534 7.7455 4.38795 7.67542C4.56906 7.4727 5.21346 7.38608 5.3337 7.55925C5.40788 7.66609 5.66862 7.73995 5.95372 7.64223L5.92193 7.64785C5.97145 7.62985 6.08745 7.58387 6.15894 7.55553L6.21716 7.53258C6.32449 7.49208 6.40336 7.47082 6.4837 7.46485C6.58441 7.45736 6.68099 7.47611 6.78332 7.52484C7.00826 7.63194 7.28582 7.68185 7.47482 7.64942C7.70586 7.24703 7.8706 6.89015 7.8706 6.89015L6.77354 5.83728L6.3375 6.31045L5.61302 5.27759L5.00648 6.31045L4.54139 5.83728L3.46387 6.89015ZM4.09809 8.13409C4.04745 8.06581 3.99959 7.99525 3.9546 7.92406C4.23539 7.97526 4.42605 7.94834 4.53212 7.82962C4.58222 7.77354 4.73087 7.71916 4.9 7.69643C4.97885 7.68583 5.0545 7.68319 5.1125 7.68872C5.13911 7.69126 5.16056 7.69542 5.175 7.70041C5.17968 7.70203 5.17953 7.70182 5.17468 7.69487L5.1738 7.69361C5.30313 7.87852 5.65423 7.97763 5.9855 7.85719L5.95372 7.86281C6.04332 7.83527 6.2047 7.77181 6.2627 7.74901L6.28289 7.74111C6.37486 7.70641 6.43825 7.68932 6.49737 7.68493C6.56556 7.67986 6.62989 7.69235 6.70287 7.7271C6.90207 7.82195 7.13361 7.87838 7.3377 7.87984C7.29419 7.9502 7.24927 8.02018 7.20344 8.08817C7.04479 8.12499 6.79935 8.07658 6.60136 7.96846C6.50882 7.91793 6.42044 7.89825 6.32829 7.90611C6.25543 7.91232 6.18477 7.93415 6.08932 7.97546C6.08376 7.97787 6.06416 7.98677 6.03777 7.99877C5.97534 8.02715 5.87489 8.0728 5.83213 8.09063L5.86803 8.0834C5.62025 8.17898 5.40337 8.10852 5.34144 8.00624C5.23094 7.82372 4.6518 7.913 4.48887 8.12215C4.44543 8.17791 4.31434 8.18809 4.09809 8.13409ZM4.31372 8.38968C4.32592 8.40222 4.33825 8.41457 4.35069 8.4267C4.91519 8.97711 5.61302 9.24691 5.61302 9.24691C5.61302 9.24691 6.44419 8.99539 6.91593 8.46586C6.95618 8.42068 6.99651 8.37174 7.03662 8.32C6.86459 8.31149 6.67549 8.25547 6.51133 8.16583C6.451 8.13289 6.39907 8.12133 6.34395 8.12603C6.2952 8.13018 6.24182 8.14668 6.16347 8.18058C6.16136 8.1815 6.15624 8.1838 6.14871 8.18719C6.10074 8.2088 5.95504 8.2744 5.86803 8.30399L5.90393 8.29676C5.61192 8.41851 5.30188 8.32239 5.18096 8.14004C5.17024 8.13582 5.15343 8.1321 5.13212 8.12977C5.0836 8.12446 5.01954 8.12702 4.95257 8.13735C4.80907 8.15947 4.68375 8.21205 4.64231 8.26524C4.57263 8.35468 4.46337 8.39418 4.31372 8.38968Z" fill="white"/>
<path fill-rule="evenodd" clip-rule="evenodd" d="M4.46679 3.67893H4.02734L4.36818 3.35963L4.02734 3.02222H4.46679L4.65234 2.6947L4.83864 3.02222H5.27734L4.95355 3.33936L5.24106 3.67893H4.83864L4.65234 4.02455L4.46679 3.67893Z" fill="#FECA00"/>
<path fill-rule="evenodd" clip-rule="evenodd" d="M6.5376 3.67893H6.09814L6.43898 3.35963L6.09814 3.02222H6.5376L6.72314 2.6947L6.90944 3.02222H7.34814L7.02435 3.33936L7.31186 3.67893H6.90944L6.72314 4.02455L6.5376 3.67893Z" fill="#FECA00"/>
<path fill-rule="evenodd" clip-rule="evenodd" d="M5.375 4.72971H4.93555L5.27638 4.41041L4.93555 4.073H5.375L5.56055 3.74548L5.74684 4.073H6.18555L5.86175 4.39014L6.14926 4.72971H5.74684L5.56055 5.07533L5.375 4.72971Z" fill="#FECA00"/>
</g>
</g>
</svg>
