<svg width="20" height="15" viewBox="0 0 20 15" fill="none" xmlns="http://www.w3.org/2000/svg">
<g clip-path="url(#clip0_14_327)">
<mask id="mask0_14_327" style="mask-type:luminance" maskUnits="userSpaceOnUse" x="-1" y="0" width="21" height="15">
<path d="M0.00122071 0H19.9993V15H-0.00170898L0.00122071 0Z" fill="white"/>
</mask>
<g mask="url(#mask0_14_327)">
<path fill-rule="evenodd" clip-rule="evenodd" d="M-1.37573 0H28.6243V15H-1.37573V0Z" fill="white"/>
<path fill-rule="evenodd" clip-rule="evenodd" d="M-1.37573 9.99902H28.6243V15H-1.37573V9.99902Z" fill="#D50000"/>
<path fill-rule="evenodd" clip-rule="evenodd" d="M-1.37573 5.00098H28.6243V9.99902H-1.37573V5.00098Z" fill="#0000BF"/>
<path fill-rule="evenodd" clip-rule="evenodd" d="M7.13208 2.72461C7.01489 4.5293 6.94458 5.51953 6.67212 5.97656C6.37329 6.46875 6.08618 6.8291 4.9231 7.26562C3.76294 6.8291 3.47583 6.46875 3.177 5.97656C2.90161 5.51953 2.83423 4.5293 2.71704 2.72461L2.88696 2.66602C3.23267 2.56055 3.49048 2.47559 3.68091 2.4375C3.95337 2.37891 4.18774 2.31445 4.92017 2.2998C5.65259 2.31152 5.88696 2.38184 6.15942 2.44043C6.34692 2.48145 6.61645 2.55762 6.95923 2.66602L7.13208 2.72461Z" fill="#D50000"/>
<path fill-rule="evenodd" clip-rule="evenodd" d="M6.96216 2.66602C6.85083 4.46777 6.75708 5.29395 6.6106 5.68945C6.32935 6.36914 5.88403 6.74121 4.9231 7.0957C3.96216 6.74121 3.51685 6.36914 3.23267 5.68945C3.08618 5.29102 2.99829 4.46777 2.88696 2.66309C3.22681 2.55762 3.49048 2.47559 3.68091 2.4375C3.95337 2.37891 4.18774 2.31152 4.92017 2.2998C5.65259 2.31152 5.88696 2.37891 6.15942 2.4375C6.4306 2.49923 6.69852 2.57452 6.96216 2.66309V2.66602Z" fill="#0000BF"/>
<path fill-rule="evenodd" clip-rule="evenodd" d="M4.9231 3.2168L4.96704 3.3252L5.17212 3.35449L5.04028 3.43359L5.16626 3.51855L4.98169 3.54785L4.9231 3.64746L4.8645 3.54492L4.68872 3.52148L4.80591 3.43359L4.68286 3.35449L4.87915 3.3252L4.9231 3.2168Z" fill="#FFDF00"/>
<path fill-rule="evenodd" clip-rule="evenodd" d="M6.54321 5.26172L6.42895 5.17383L6.34985 5.03906L6.19165 4.90137L6.10669 4.76367L5.94849 4.62012L5.87231 4.48242L5.78442 4.41504L5.73169 4.35938L5.58521 4.48535L5.50903 4.62305L5.41235 4.71094L5.30396 4.62598L5.22485 4.48535L4.9231 3.94922L4.62134 4.48535L4.54224 4.62598L4.43384 4.71094L4.33716 4.62305L4.25806 4.48535L4.1145 4.35938L4.05884 4.41211L3.97388 4.48242L3.89771 4.62012L3.7395 4.76367L3.65454 4.90137L3.49634 5.03906L3.41724 5.17383L3.30298 5.26172C3.36739 5.66498 3.5582 6.03737 3.8479 6.3252C4.16219 6.59418 4.52662 6.7983 4.92017 6.92578C5.31671 6.80115 5.6836 6.59677 5.99829 6.3252C6.16821 6.14941 6.48462 5.75977 6.54321 5.26172Z" fill="white"/>
<path fill-rule="evenodd" clip-rule="evenodd" d="M5.40356 2.45801L5.45044 2.56641L5.65552 2.5957L5.52075 2.6748L5.64966 2.75977L5.46509 2.78906L5.40649 2.88867L5.3479 2.78613L5.17212 2.7627L5.28931 2.6748L5.16626 2.5957L5.35962 2.56641L5.40649 2.45801H5.40356ZM4.43677 2.45801L4.48364 2.56641L4.68872 2.59277L4.55688 2.67187L4.68286 2.75684L4.49829 2.78613L4.4397 2.88574L4.3811 2.78613L4.20532 2.75977L4.32251 2.67187L4.19946 2.59277L4.39575 2.56348L4.4397 2.45508L4.43677 2.45801Z" fill="#FFDF00"/>
<path fill-rule="evenodd" clip-rule="evenodd" d="M6.29126 5.94727H6.07446L5.86938 5.93262L5.62622 5.81543H5.35083L5.11353 5.93262L4.9231 5.9502L4.7356 5.93262L4.49829 5.81543H4.21997L3.97388 5.93262L3.77173 5.9502L3.54907 5.94727L3.4436 5.76563L3.44653 5.75977L3.77466 5.81543L3.97681 5.80078L4.21997 5.68066H4.49536L4.7356 5.79785L4.9231 5.81543L5.11353 5.79785L5.35083 5.68066H5.62622L5.87231 5.79785L6.07446 5.81543L6.39087 5.75684L6.39673 5.76855L6.28833 5.94727H6.29126ZM3.76001 6.22559L3.97681 6.21094L4.21997 6.09375H4.49536L4.7356 6.21094L4.9231 6.22559L5.1106 6.21094L5.35083 6.09375H5.62622L5.86938 6.21094L6.08911 6.22559L6.22974 6.0498H6.22681L6.07446 6.09082L5.87231 6.07617L5.62915 5.95898H5.35376L5.11353 6.07617L4.92603 6.09375L4.7356 6.07617L4.49829 5.95898H4.21997L3.97388 6.07617L3.77173 6.09375L3.62524 6.05566V6.06152L3.75708 6.22559H3.76001Z" fill="#0000BF"/>
</g>
</g>
<defs>
<clipPath id="clip0_14_327">
<rect width="20" height="15" fill="white"/>
</clipPath>
</defs>
</svg>
