<svg width="20" height="15" viewBox="0 0 20 15" fill="none" xmlns="http://www.w3.org/2000/svg">
<g clip-path="url(#clip0_14_300)">
<path d="M0 0H20V15H0V0Z" fill="#EE1C25"/>
<path d="M0 0H20V10H0V0Z" fill="#0B4EA2"/>
<path d="M0 0H20V5H0V0Z" fill="white"/>
<path d="M7.2812 11.5875C5.93745 10.9406 4.01245 9.6531 4.01245 7.11248C4.01245 4.56873 4.13745 3.41248 4.13745 3.41248H10.4281C10.4281 3.41248 10.55 4.56873 10.55 7.11248C10.55 9.65623 8.62495 10.9375 7.2812 11.5875Z" fill="white"/>
<path d="M7.28125 11.25C6.04687 10.6562 4.28125 9.475 4.28125 7.14375C4.28125 4.8125 4.39375 3.75 4.39375 3.75H10.1687C10.1687 3.75 10.2781 4.8125 10.2781 7.14375C10.2812 9.47813 8.51562 10.6562 7.28125 11.25Z" fill="#EE1C25"/>
<path d="M7.54375 6.53123C7.87812 6.53748 8.53125 6.54998 9.10937 6.35623C9.10937 6.35623 9.09687 6.5656 9.09687 6.80623C9.09687 7.04685 9.1125 7.25623 9.1125 7.25623C8.58125 7.0781 7.92187 7.07498 7.54375 7.0781V8.3656H7.01875V7.0781C6.64375 7.07498 5.98437 7.0781 5.45312 7.25623C5.45312 7.25623 5.46875 7.04685 5.46875 6.80623C5.46875 6.56248 5.45312 6.35623 5.45312 6.35623C6.03125 6.54998 6.68437 6.53748 7.01562 6.53123V5.72185C6.7125 5.72185 6.275 5.73435 5.77812 5.89998C5.77812 5.89998 5.79375 5.69373 5.79375 5.44998C5.79375 5.20935 5.77812 4.99998 5.77812 4.99998C6.275 5.1656 6.7125 5.18123 7.01562 5.1781C7 4.6656 6.85 4.02185 6.85 4.02185C6.85 4.02185 7.15937 4.04373 7.28125 4.04373C7.40625 4.04373 7.7125 4.02185 7.7125 4.02185C7.7125 4.02185 7.5625 4.6656 7.54687 5.1781C7.85 5.18123 8.2875 5.1656 8.78437 4.99998C8.78437 4.99998 8.76875 5.20935 8.76875 5.44998C8.76875 5.69373 8.78437 5.89998 8.78437 5.89998C8.38389 5.77084 7.96439 5.71061 7.54375 5.72185V6.53435V6.53123Z" fill="white"/>
<path d="M7.2813 8.22815C6.65942 8.22815 6.32817 9.08752 6.32817 9.08752C6.32817 9.08752 6.14067 8.68127 5.63442 8.68127C5.29067 8.68127 5.04067 8.9844 4.87817 9.26878C5.50317 10.2594 6.50005 10.8719 7.2813 11.25C8.06255 10.875 9.06255 10.2594 9.68442 9.26878C9.52192 8.98753 9.27192 8.68127 8.92817 8.68127C8.42192 8.68127 8.23442 9.08752 8.23442 9.08752C8.23442 9.08752 7.9063 8.22815 7.2813 8.22815Z" fill="#0B4EA2"/>
</g>
<defs>
<clipPath id="clip0_14_300">
<rect width="20" height="15" fill="white"/>
</clipPath>
</defs>
</svg>
