<svg width="20" height="15" viewBox="0 0 20 15" fill="none" xmlns="http://www.w3.org/2000/svg">
<mask id="mask0_1825_44802" style="mask-type:luminance" maskUnits="userSpaceOnUse" x="0" y="0" width="20" height="15">
<rect width="20" height="15" fill="white"/>
</mask>
<g mask="url(#mask0_1825_44802)">
<path fill-rule="evenodd" clip-rule="evenodd" d="M0 0V15H20V0H0Z" fill="#3D58DB"/>
<mask id="mask1_1825_44802" style="mask-type:luminance" maskUnits="userSpaceOnUse" x="0" y="0" width="20" height="15">
<path fill-rule="evenodd" clip-rule="evenodd" d="M0 0V15H20V0H0Z" fill="white"/>
</mask>
<g mask="url(#mask1_1825_44802)">
<path fill-rule="evenodd" clip-rule="evenodd" d="M0 0V5H20V0H0Z" fill="#F7FCFF"/>
<path fill-rule="evenodd" clip-rule="evenodd" d="M0 10V15H20V10H0Z" fill="#E31D1C"/>
<path d="M9.75231 3.76892L10.0631 3.73586L10.0333 3.45642H9.75231H3.96538H3.67324L3.65359 3.7479L3.96538 3.76892L3.65358 3.74795L3.65358 3.74809L3.65354 3.74859L3.65341 3.7505L3.65292 3.75796L3.65101 3.78687L3.64392 3.89699C3.63789 3.99223 3.62942 4.12926 3.61968 4.29673C3.6002 4.63157 3.57558 5.08858 3.55507 5.57681C3.51465 6.53906 3.48784 7.66555 3.55785 8.19163C3.69446 9.21818 4.31955 11.5226 6.73725 12.567L6.86334 12.6214L6.98873 12.5654C9.28511 11.5386 10.0532 9.47068 10.2303 8.19334C10.3197 7.54869 10.2743 6.42066 10.2115 5.48329C10.1797 5.00827 10.1426 4.57181 10.1135 4.25419C10.099 4.09531 10.0864 3.96602 10.0774 3.87632L10.0669 3.77267L10.0641 3.74544L10.0633 3.73839L10.0631 3.73655L10.0631 3.73606L10.0631 3.73592L9.75231 3.76892Z" fill="#E31D1C" stroke="white" stroke-width="0.625"/>
<mask id="mask2_1825_44802" style="mask-type:luminance" maskUnits="userSpaceOnUse" x="3" y="3" width="8" height="10">
<path d="M9.75231 3.76892L10.0631 3.73586L10.0333 3.45642H9.75231H3.96538H3.67324L3.65359 3.7479L3.96538 3.76892L3.65358 3.74795L3.65358 3.74809L3.65354 3.74859L3.65341 3.7505L3.65292 3.75796L3.65101 3.78687L3.64392 3.89699C3.63789 3.99223 3.62942 4.12926 3.61968 4.29673C3.6002 4.63157 3.57558 5.08858 3.55507 5.57681C3.51465 6.53906 3.48784 7.66555 3.55785 8.19163C3.69446 9.21818 4.31955 11.5226 6.73725 12.567L6.86334 12.6214L6.98873 12.5654C9.28511 11.5386 10.0532 9.47068 10.2303 8.19334C10.3197 7.54869 10.2743 6.42066 10.2115 5.48329C10.1797 5.00827 10.1426 4.57181 10.1135 4.25419C10.099 4.09531 10.0864 3.96602 10.0774 3.87632L10.0669 3.77267L10.0641 3.74544L10.0633 3.73839L10.0631 3.73655L10.0631 3.73606L10.0631 3.73592L9.75231 3.76892Z" fill="white" stroke="white" stroke-width="0.625"/>
</mask>
<g mask="url(#mask2_1825_44802)">
<path fill-rule="evenodd" clip-rule="evenodd" d="M6.41073 4.11853C6.41073 4.11853 6.53978 4.31517 6.59756 4.61585C6.65534 4.91652 6.6653 5.44335 6.6653 5.44335L5.441 5.29261V6.22091L6.69265 6.06151L6.67231 6.9426C6.67231 6.9426 6.29786 6.98141 5.99074 6.9426C5.68363 6.90378 5.07861 6.74116 5.07861 6.74116V7.80389C5.07861 7.80389 5.6933 7.60724 5.99074 7.56212C6.28818 7.51699 6.67231 7.56212 6.67231 7.56212V8.86731H7.18045V7.56212C7.18045 7.56212 7.73593 7.51383 8.06728 7.56611C8.39864 7.61838 8.71296 7.80389 8.71296 7.80389V6.74116C8.71296 6.74116 8.39452 6.8998 8.09418 6.93928C7.79384 6.97876 7.18045 6.9426 7.18045 6.9426L7.20079 6.06151C7.20079 6.06151 7.61656 6.01846 7.84982 6.05013C8.08308 6.08179 8.37503 6.22091 8.37503 6.22091V5.29261C8.37503 5.29261 8.09048 5.44744 7.86659 5.47553C7.64269 5.50362 7.17344 5.44335 7.17344 5.44335C7.17344 5.44335 7.18176 4.89968 7.2299 4.63495C7.27804 4.37023 7.41437 4.11853 7.41437 4.11853H6.41073Z" fill="#F7FCFF"/>
<path fill-rule="evenodd" clip-rule="evenodd" d="M4.31055 10.1533C4.31055 10.1533 4.58523 9.56373 5.03219 9.45163C5.47915 9.33954 5.94782 9.80246 5.94782 9.80246C5.94782 9.80246 6.23401 8.86719 6.93158 8.86719C7.62914 8.86719 7.87396 9.80246 7.87396 9.80246C7.87396 9.80246 8.17157 9.45163 8.59956 9.45163C9.02755 9.45163 9.42407 10.1533 9.42407 10.1533C9.42407 10.1533 8.14569 12.4742 6.86731 12.4742C5.58893 12.4742 4.31055 10.1533 4.31055 10.1533Z" fill="#2E42A5"/>
</g>
</g>
</g>
</svg>
