<svg width="20" height="15" viewBox="0 0 20 15" fill="none" xmlns="http://www.w3.org/2000/svg">
<mask id="mask0_1825_44978" style="mask-type:luminance" maskUnits="userSpaceOnUse" x="0" y="0" width="20" height="15">
<rect width="20" height="15" fill="white"/>
</mask>
<g mask="url(#mask0_1825_44978)">
<path fill-rule="evenodd" clip-rule="evenodd" d="M0 0V15H20V0H0Z" fill="#E31D1C"/>
<mask id="mask1_1825_44978" style="mask-type:luminance" maskUnits="userSpaceOnUse" x="0" y="0" width="20" height="15">
<path fill-rule="evenodd" clip-rule="evenodd" d="M0 0V15H20V0H0Z" fill="white"/>
</mask>
<g mask="url(#mask1_1825_44978)">
<path fill-rule="evenodd" clip-rule="evenodd" d="M0 7.5V15H20V7.5H0Z" fill="#2E42A5"/>
</g>
<path fill-rule="evenodd" clip-rule="evenodd" d="M0 -1.25V16.25L12.5 7.5L0 -1.25Z" fill="#F7FCFF"/>
<mask id="mask2_1825_44978" style="mask-type:luminance" maskUnits="userSpaceOnUse" x="0" y="-2" width="13" height="19">
<path fill-rule="evenodd" clip-rule="evenodd" d="M0 -1.25V16.25L12.5 7.5L0 -1.25Z" fill="white"/>
</mask>
<g mask="url(#mask2_1825_44978)">
<path fill-rule="evenodd" clip-rule="evenodd" d="M5.079 5.74301C5.97694 5.74301 6.70487 5.29686 6.70487 4.7465C6.70487 4.19615 5.97694 3.75 5.079 3.75C4.18105 3.75 3.45312 4.19615 3.45312 4.7465C3.45312 5.29686 4.18105 5.74301 5.079 5.74301Z" fill="#FBCD17"/>
<path fill-rule="evenodd" clip-rule="evenodd" d="M5.22108 3.99084C5.08835 3.99084 4.99404 4.07635 4.99404 4.20506L4.99416 4.21926C4.98703 4.24071 4.98303 4.26461 4.98231 4.29137C4.98047 4.35984 5.00597 4.41696 5.05948 4.46935C5.06277 4.48447 5.06448 4.497 5.064 4.50411C5.06075 4.49294 5.04783 4.48358 5.02323 4.46575C4.98826 4.44039 4.92969 4.39793 4.84172 4.30882C4.71503 4.18049 4.61941 4.13026 4.50056 4.15022C4.46452 4.15627 4.42925 4.16897 4.38691 4.18593C4.31939 4.21024 4.25724 4.21588 4.14249 4.19398C3.82361 4.13311 3.47386 4.19283 3.09521 4.36829L3.2266 4.65183C3.54976 4.50208 3.83486 4.4534 4.0839 4.50094C4.25497 4.53359 4.37376 4.5228 4.49278 4.47994C4.54407 4.46065 4.54856 4.45904 4.55232 4.4584C4.54854 4.45904 4.55096 4.46136 4.56681 4.47659C4.57749 4.48685 4.59426 4.50297 4.61934 4.52837C4.65505 4.56455 4.69239 4.5973 4.73053 4.62709C4.65723 4.64679 4.66102 4.66031 4.67447 4.70828C4.67995 4.72783 4.68704 4.7531 4.69117 4.78683C4.70028 4.86132 4.68514 4.89973 4.6982 4.91812C4.71277 4.93865 4.76244 4.93425 4.92005 4.92723C4.96247 4.92534 5.01984 4.92096 5.08604 4.91469C5.21587 4.90242 5.3628 4.88452 5.45308 4.86972C5.54079 4.85534 5.5641 4.8501 5.60088 4.82333C5.6136 4.80773 5.62448 4.79439 5.6335 4.7825C5.93339 4.73844 6.20006 4.70714 6.43736 4.68555C6.52243 4.6778 6.59081 4.67249 6.65702 4.66763C6.65833 4.66762 6.65942 4.66761 6.66051 4.66756C6.66592 4.66733 6.67129 4.66621 6.70331 4.65951C6.72013 4.65236 6.72709 4.64941 6.72944 4.64842L6.72941 4.64849C6.73001 4.64822 6.73046 4.64801 6.73046 4.648C6.73046 4.648 6.73017 4.64811 6.72944 4.64842L6.80603 4.46699L6.7269 4.3713C6.6739 4.35464 6.6739 4.35464 6.66723 4.35457L6.66722 4.35457C6.65751 4.354 6.65751 4.354 6.65194 4.35391C6.62686 4.35376 6.62686 4.35376 6.58027 4.35381C6.52836 4.35381 6.48736 4.34942 6.42812 4.33889L6.37303 4.32876C6.1294 4.28407 5.90344 4.28407 5.42419 4.35552L5.39742 4.33506C5.4746 4.32164 5.56859 4.31254 5.66792 4.30724C5.72798 4.30445 5.72798 4.30445 5.7615 4.30356L5.77617 4.30321L5.77434 3.99087L5.75063 3.99084H5.22108ZM4.96222 4.89555L4.99211 4.88934L5.02154 4.88306C5.01615 4.8842 5.01017 4.88545 5.00356 4.88683C4.99185 4.88927 4.97815 4.89213 4.96222 4.89555Z" fill="#DA610A"/>
<path d="M4.95356 5.36297L5.00412 5.05459L5.05467 5.36297C5.67532 5.26122 6.08399 5.2731 6.32078 5.35252C6.59355 5.44401 6.89508 5.41811 7.21215 5.31133C7.11151 5.75994 7.05998 6.18394 7.05998 6.58241C7.05998 7.03668 7.14786 7.40365 7.2276 7.72561C7.22974 7.73424 7.23187 7.74284 7.23399 7.7514C7.31213 8.06667 7.37688 8.32794 7.37688 8.62777C7.37688 8.89691 7.28762 9.03827 7.16285 9.1266C7.01838 9.22888 6.77745 9.29404 6.42016 9.29404C5.9164 9.29404 5.44513 9.42971 5.0112 9.69514L5.00412 9.69005L4.99703 9.69514C4.5631 9.42971 4.09183 9.29404 3.58807 9.29404C3.23078 9.29404 2.98985 9.22888 2.84538 9.1266C2.72061 9.03827 2.63135 8.89691 2.63135 8.62777C2.63135 8.32794 2.6961 8.06667 2.77424 7.7514C2.77636 7.74284 2.77849 7.73424 2.78063 7.72561C2.86037 7.40365 2.94825 7.03668 2.94825 6.58241C2.94825 6.18394 2.89672 5.75994 2.79608 5.31133C3.11315 5.41811 3.41468 5.44401 3.68745 5.35252C3.92424 5.2731 4.33292 5.26122 4.95356 5.36297Z" fill="#56C6F5" stroke="#E31D1C" stroke-width="0.625"/>
<path fill-rule="evenodd" clip-rule="evenodd" d="M5.49065 6.39012L5.00851 5.96155L4.52637 6.39012H4.66922V6.63719L3.91922 7.1044V8.24726H3.77637V8.46155H3.91922H6.0978H6.27637V8.24726H6.0978V7.1044L5.31208 6.61494V6.39012H5.49065Z" fill="#F7FCFF"/>
<path d="M4.97012 10.6378C5.63328 10.6378 6.08981 10.5654 6.32489 10.442C6.38652 10.3372 6.49461 10.278 6.60963 10.2823C7.12616 10.3014 7.52621 10.0838 7.8407 9.60551C8.1805 9.08874 8.24878 8.3547 8.02731 7.39121L8.58957 7.26196C8.84333 8.36592 8.76046 9.25682 8.32274 9.92248C7.93051 10.519 7.39572 10.8376 6.74305 10.8592C6.4097 11.106 5.82553 11.2147 4.97012 11.2147C4.14259 11.2147 3.52902 11.054 3.1355 10.7126C2.24182 10.5015 1.67391 10.145 1.4506 9.6167C1.21256 9.05351 1.21256 8.27165 1.43461 7.26448L1.998 7.38869C1.79932 8.28985 1.79932 8.95987 1.98201 9.3921C2.10949 9.69371 2.47989 9.93985 3.10741 10.1105L3.69042 10.2352L3.66243 10.3824C3.94685 10.5486 4.38153 10.6378 4.97012 10.6378Z" fill="#FBCD17"/>
<path d="M2.94629 5.51501L3.26588 5.64359L3.10609 5.9758L3.55308 5.74541L3.51835 5.91598L3.42252 6.38676L3.60567 5.85067V6.32421L3.71757 5.85067L4.04988 5.95089L3.71757 5.74541L4.04988 5.64359" stroke="#73BE4A" stroke-width="0.625" stroke-linecap="round" stroke-linejoin="round"/>
<path fill-rule="evenodd" clip-rule="evenodd" d="M3.55566 6.21069C3.72825 6.21069 3.86816 6.07078 3.86816 5.89819C3.86816 5.7256 3.72825 5.58569 3.55566 5.58569C3.38308 5.58569 3.24316 5.7256 3.24316 5.89819C3.24316 6.07078 3.38308 6.21069 3.55566 6.21069Z" fill="#FBCD17"/>
<path fill-rule="evenodd" clip-rule="evenodd" d="M6.6508 6.17077C6.64569 5.96059 6.62233 5.48071 6.5157 5.48071C6.40844 5.48071 6.39213 5.96622 6.39006 6.17443C6.20541 6.23478 6.06641 6.39367 6.06641 6.39367H6.98612C6.98612 6.39367 6.84123 6.22806 6.6508 6.17077Z" fill="#F7FCFF"/>
</g>
</g>
</svg>
