<svg width="20" height="15" viewBox="0 0 20 15" fill="none" xmlns="http://www.w3.org/2000/svg">
<g clip-path="url(#clip0_14_293)">
<mask id="mask0_14_293" style="mask-type:luminance" maskUnits="userSpaceOnUse" x="0" y="0" width="21" height="15">
<path d="M0 0H20.001V15H0V0Z" fill="white"/>
</mask>
<g mask="url(#mask0_14_293)">
<path fill-rule="evenodd" clip-rule="evenodd" d="M0 0H22.5V7.5H9.99902L0 0Z" fill="#ED2939"/>
<path fill-rule="evenodd" clip-rule="evenodd" d="M0 15H22.5V7.5H9.99902L0 15Z" fill="#002395"/>
<path fill-rule="evenodd" clip-rule="evenodd" d="M0 0L9.99902 7.5L0 15V0Z" fill="white"/>
<path d="M5.04785 5.66016L5.05078 5.54297C5.05078 5.54297 4.98926 5.44336 5.0625 5.33789C5.0625 5.33789 4.90723 5.25586 4.94531 5.12695C4.94531 5.12695 4.80469 5.0918 4.81348 4.93945C4.81348 4.93945 4.66699 4.93066 4.64941 4.80176C4.64941 4.80176 4.5 4.8252 4.43262 4.70215C4.43262 4.70215 4.28613 4.73145 4.24512 4.62891C4.24512 4.62891 4.10156 4.67578 4.01953 4.55566C4.01953 4.55566 3.86719 4.61719 3.80566 4.50293C3.74414 4.61719 3.5918 4.55566 3.5918 4.55566C3.50977 4.67578 3.36621 4.62598 3.36621 4.62598C3.3252 4.72852 3.18164 4.69922 3.18164 4.69922C3.11426 4.8252 2.96484 4.79883 2.96484 4.79883C2.9502 4.92773 2.80078 4.93945 2.80078 4.93945C2.80501 4.98092 2.79437 5.02253 2.77076 5.05687C2.74715 5.09122 2.7121 5.11605 2.67187 5.12695C2.70996 5.25293 2.55469 5.33496 2.55469 5.33496C2.63086 5.44336 2.56934 5.54004 2.56934 5.54004L2.56641 5.64844L5.04785 5.66016Z" fill="#FFFF00"/>
<path d="M5.0514 5.65945V5.54193C5.0514 5.54193 4.99095 5.4412 5.06484 5.34046C5.06484 5.34046 4.91034 5.25652 4.94729 5.12893C4.94729 5.12893 4.80623 5.09535 4.8163 4.9409C4.8163 4.9409 4.66516 4.93082 4.64837 4.80323C4.64837 4.80323 4.50059 4.82673 4.43678 4.7025C4.43678 4.7025 4.289 4.72936 4.2487 4.62863C4.2487 4.62863 4.10428 4.67899 4.02031 4.55812C4.02031 4.55812 3.86918 4.61856 3.80872 4.50439C3.74491 4.61856 3.59377 4.55812 3.59377 4.55812C3.51317 4.67564 3.36875 4.62527 3.36875 4.62527C3.32844 4.72936 3.18402 4.7025 3.18402 4.7025C3.11685 4.82673 2.96572 4.80323 2.96572 4.80323C2.95228 4.92747 2.80115 4.93754 2.80115 4.93754C2.8067 4.97861 2.79716 5.0203 2.77431 5.05487C2.75146 5.08945 2.71684 5.11457 2.67688 5.12557C2.71046 5.25316 2.55933 5.33375 2.55933 5.33375C2.63322 5.4412 2.5694 5.54193 2.5694 5.54193V5.64937L5.0514 5.65945Z" stroke="black" stroke-width="0.0161191"/>
<path d="M4.98926 5.51367C4.59961 5.47559 4.15137 5.38184 3.80566 5.57812C3.57129 5.44043 3.24902 5.44922 2.97363 5.47559C2.82422 5.50488 2.64844 5.50488 2.49023 5.52832L2.4668 5.53125C2.18262 5.55176 1.9248 5.4668 1.67578 5.35547C1.75781 5.80078 1.84277 6.25488 1.88672 6.7207C1.98047 7.41211 1.56152 7.98926 1.72852 8.67187C1.83105 9 2.19141 9.19043 2.51953 9.22852C2.83686 9.24855 3.15222 9.29263 3.46289 9.36035C3.51818 9.37397 3.57211 9.39261 3.62402 9.41602C3.69732 9.44802 3.76317 9.49491 3.81738 9.55371C3.99316 9.36914 4.25684 9.31641 4.51172 9.29004C4.97461 9.23438 5.5459 9.26367 5.83008 8.84473V8.82129C5.98535 8.58691 5.96484 8.23535 5.89746 7.97168C5.8916 7.88086 5.86816 7.79883 5.85352 7.71094C5.57227 6.96387 5.81543 6.12305 5.93555 5.36719C5.78386 5.44345 5.62208 5.4977 5.45508 5.52832C5.32324 5.5459 5.17676 5.54004 5.04492 5.53125L4.98633 5.5166" fill="#FF0000"/>
<path d="M5.57227 7.66113C5.57227 7.70801 5.59863 7.74902 5.60742 7.79297C5.66309 8.12109 5.71289 8.55469 5.37891 8.75684C5.00391 8.99121 4.51758 8.8916 4.08691 9.01758C3.99902 9.04102 3.88184 9.12012 3.82324 9.17578C3.78223 9.14941 3.74414 9.11133 3.69434 9.08789C3.33984 8.90039 2.87695 8.96191 2.47852 8.85937C2.27637 8.79785 2.06836 8.63965 2.01563 8.43457C1.88672 7.89551 2.19727 7.43555 2.16211 6.89941C2.13867 6.48926 2.06836 6.09961 1.97461 5.71582C2.28809 5.8623 2.64844 5.88574 3 5.81543C3.27117 5.76565 3.55078 5.79098 3.80859 5.88867C3.94336 5.83008 4.10156 5.80371 4.24805 5.78906C4.52051 5.81836 4.81641 5.86523 5.10059 5.86523C5.29102 5.85352 5.46387 5.80078 5.62793 5.72754C5.53125 6.36035 5.34082 7.02246 5.57227 7.66113Z" fill="#80CFE1"/>
<path d="M5.00977 7.78711V7.18945H5.08008L4.17187 6.60352L4.16895 6.2959H4.25684L3.7998 5.97363L3.34863 6.2959H3.43652V6.60352L2.53125 7.18945H2.60449V7.78418H5.00977" fill="white"/>
<path d="M5.01111 7.78832V7.19065H5.08164L4.17482 6.60305L4.17146 6.30086H4.25879L3.80202 5.9718L3.34861 6.2975H3.43593L3.43929 6.60305L2.53247 7.19065H2.60636V7.78497H5.01111V7.78832Z" stroke="black" stroke-width="0.0644766"/>
<path d="M5.29102 8.56934V8.75391H2.3584V8.56641H5.28809" fill="white"/>
<path d="M5.29326 8.57062V8.75529H2.35785V8.56726H5.29326V8.57062Z" stroke="black" stroke-width="0.0644766"/>
<path d="M2.55176 8.55762V7.92773H2.66895L2.66309 8.56348L2.66895 7.93066L2.49902 7.92773V7.79004L5.11816 7.7959V7.92773H4.95996V8.56641L4.95703 7.92773H5.07422L5.08008 8.56055" fill="white"/>
<path d="M2.55264 8.55719V7.92593H2.67019L2.66347 8.5639L2.67019 7.93265L2.50226 7.92593V7.79163L5.12196 7.79498V7.92929H4.96075L4.96411 8.56726L4.95739 7.92929H5.0783L5.08166 8.56054" stroke="black" stroke-width="0.0644766"/>
<path d="M3.11688 8.40275V7.96289H2.76086V8.39939L3.11352 8.40275" stroke="black" stroke-width="0.0644766"/>
<path d="M2.86164 8.05349V8.30867H3.02285V8.05349H2.85828M4.83985 8.40269L4.83649 7.96619H4.48719V8.40269H4.83985Z" stroke="black" stroke-width="0.0644766"/>
<path d="M4.58123 8.05683V8.31201H4.74244V8.05683H4.58123ZM4.83648 7.68748V7.25098H4.48383V7.68748H4.83648Z" stroke="black" stroke-width="0.0644766"/>
<path d="M4.57786 7.3417V7.59688H4.73908V7.3417H4.57786ZM3.11352 7.68754V7.24768H2.76086V7.68418H3.11352V7.68754Z" stroke="black" stroke-width="0.0644766"/>
<path d="M3.75166 7.68754V7.24768H3.39901V7.68418H3.75166M2.85828 7.33834V7.59352H3.01949V7.33834H2.85828Z" stroke="black" stroke-width="0.0644766"/>
<path d="M3.49304 7.33834V7.59352H3.65426V7.33834H3.49304ZM4.24201 7.68754V7.25104L3.88936 7.24768V7.68418L4.24201 7.68754Z" stroke="black" stroke-width="0.0644766"/>
<path d="M3.9834 7.33838V7.59357H4.14797V7.33838H3.9834Z" stroke="black" stroke-width="0.0644766"/>
<path d="M4.32715 7.55273L4.33301 8.56641H3.31055L3.30762 7.55273H4.32422" fill="white"/>
<path d="M3.30494 7.84196H4.33267M3.43257 8.56723V7.84867M4.2084 8.56723V7.85203M4.32931 7.5532L4.33267 8.56723H3.31502L3.31166 7.5532H4.32931ZM4.70212 7.12005L4.13116 6.7037H3.48295L2.91199 7.12005H4.70212ZM3.53333 6.35449V6.60968H4.07742V6.35449H3.53333Z" stroke="black" stroke-width="0.0644766"/>
<path d="M3.80203 6.05908L4.1043 6.27398H3.50311L3.80539 6.05908M3.68112 6.41836V6.54595H3.92965V6.41836H3.68112Z" stroke="black" stroke-width="0.0644766"/>
<path d="M5.02148 5.91797C5.10645 5.91797 5.12695 6.26953 5.12695 6.44531C5.20313 6.46875 5.36426 6.57129 5.4375 6.66211H4.61133C4.68164 6.57129 4.84277 6.46875 4.91602 6.44824C4.91602 6.27246 4.93359 5.91504 5.02148 5.9209" fill="white"/>
<path d="M4.02706 7.58004H4.10095L4.07744 7.62369C4.07744 7.62369 4.11439 7.66734 4.07744 7.72106L4.09759 7.75464H4.03042L4.04722 7.72106C4.04722 7.72106 4.01363 7.66062 4.04722 7.62033L4.02706 7.5834M5.02121 5.91797C5.10853 5.91797 5.12868 6.27053 5.12868 6.44849C5.20257 6.46863 5.36714 6.57272 5.43767 6.66338H4.61146C4.68199 6.57272 4.84656 6.46863 4.91709 6.44849C4.91709 6.27053 4.93724 5.91797 5.02121 5.91797ZM3.3587 7.58004H3.43259L3.41244 7.62033C3.41244 7.62033 3.44603 7.66734 3.41244 7.72106L3.43259 7.75464H3.3587L3.37886 7.72106C3.37886 7.72106 3.34527 7.66062 3.37886 7.62033L3.3587 7.58004ZM3.50984 7.58004H3.58373L3.56358 7.62033C3.56358 7.62033 3.59716 7.66734 3.56358 7.72106L3.58373 7.75464H3.50984L3.52999 7.72106C3.52999 7.72106 3.49641 7.66062 3.52999 7.62033L3.50984 7.58004ZM3.67777 7.58004H3.7483L3.72815 7.62033C3.72815 7.62033 3.76173 7.66734 3.72815 7.72106L3.7483 7.75464H3.67777L3.69456 7.72106C3.69456 7.72106 3.66098 7.66062 3.69456 7.62033L3.67441 7.58004H3.67777ZM3.86249 7.58004H3.93638L3.91287 7.62369C3.91287 7.62369 3.94982 7.66734 3.91287 7.72106L3.93302 7.75464H3.86249L3.88264 7.72106C3.88264 7.72106 3.84906 7.66062 3.88264 7.62033L3.86249 7.5834V7.58004ZM4.19164 7.5834H4.26552L4.24201 7.62369C4.24201 7.62369 4.27896 7.66734 4.24201 7.72106L4.26217 7.75464H4.19499L4.21179 7.72106C4.21179 7.72106 4.1782 7.66062 4.21179 7.62033L4.19164 7.5834Z" stroke="black" stroke-width="0.0644766"/>
<path d="M3.82324 9.86719C4.2041 9.86719 4.67285 9.78809 4.89258 9.67676L5.37598 9.63281L5.3877 10.2217C4.97754 10.4473 4.03418 10.4971 3.82617 10.4941C3.61816 10.4941 2.66309 10.4473 2.25 10.2217L2.25586 9.62988L2.73926 9.67383C3.08473 9.80761 3.45282 9.87327 3.82324 9.86719Z" fill="#FFFF00"/>
<path d="M3.82555 9.86675C4.20843 9.86675 4.67527 9.78953 4.89694 9.67536L5.37722 9.63507L5.38729 10.2227C4.9809 10.4476 4.03378 10.498 3.82891 10.4946C3.62067 10.4946 2.66347 10.4476 2.25037 10.2193L2.25708 9.63171L2.74072 9.67536C2.96239 9.78953 3.44603 9.86675 3.82555 9.86675Z" stroke="black" stroke-width="0.0161191"/>
<path d="M1.00781 7.35352L1.43261 7.48828L1.3037 8.17676L0.902337 8.24121C0.902337 8.24121 0.834954 7.87793 1.00781 7.35352Z" fill="#FFFF00"/>
<path d="M1.01104 7.3551L1.43423 7.48941L1.3066 8.17774L0.903567 8.24154C0.903567 8.24154 0.836395 7.87891 1.01104 7.3551Z" stroke="black" stroke-width="0.0161191"/>
<path d="M1.30371 8.1709L0.902344 8.24121L1.15723 7.87793L1.30371 8.1709Z" fill="#7E7E7E"/>
<path d="M1.3066 8.17103L0.903564 8.23818L1.15882 7.87891L1.3066 8.17103Z" stroke="black" stroke-width="0.0161191"/>
<path d="M0.752938 7.85156L1.16309 7.88086C1.17188 8.22656 1.21583 9.55078 2.79786 9.62402L2.74805 10.1074C0.82325 10.125 0.676766 8.48145 0.755868 7.85156" fill="#FFFF00"/>
<path d="M2.26042 10.2058L2.74406 10.1017M0.755773 7.85205L1.16552 7.87891C1.1756 8.22811 1.2159 9.55105 2.80116 9.62492L2.75078 10.1084C0.822945 10.1286 0.678526 8.4833 0.755773 7.85205Z" stroke="black" stroke-width="0.0161191"/>
<path d="M6.60352 7.35938L6.18164 7.49414L6.31641 8.17969L6.7207 8.24414C6.7207 8.24414 6.78516 7.88379 6.60352 7.35938Z" fill="#FFFF00"/>
<path d="M6.60647 7.35852L6.18329 7.49283L6.31763 8.18116L6.72066 8.24832C6.72066 8.24832 6.78784 7.88568 6.60647 7.35852Z" stroke="black" stroke-width="0.0161191"/>
<path d="M6.31641 8.17383L6.71777 8.24707L6.45996 7.88379L6.31348 8.17383" fill="#7E7E7E"/>
<path d="M6.31763 8.17438L6.72066 8.24489L6.46205 7.88562L6.31763 8.17438Z" stroke="black" stroke-width="0.0161191"/>
<path d="M6.86426 7.85449L6.4541 7.88379C6.44824 8.22949 6.41602 9.55371 4.83398 9.62695L4.89258 10.1074C6.81738 10.1309 6.94922 8.48438 6.86719 7.85449" fill="#FFFF00"/>
<path d="M5.38058 10.2059L4.89694 10.1051M6.86508 7.85547L6.45533 7.88233C6.44861 8.23153 6.42174 9.55783 4.83649 9.62834L4.89022 10.1085C6.81806 10.132 6.94904 8.48672 6.86508 7.85883V7.85547Z" stroke="black" stroke-width="0.0161191"/>
<path d="M3.56834 10.1573C3.55662 10.1631 3.53905 10.1661 3.5244 10.1631L3.44823 10.1602L3.45409 10.0635L3.53026 10.0694C3.54491 10.0694 3.55955 10.0723 3.56541 10.0782C3.58006 10.084 3.58592 10.0987 3.58592 10.1192C3.58592 10.1368 3.57713 10.1485 3.56541 10.1573M3.43944 10.3038L3.4453 10.1895L3.53319 10.1954C3.56248 10.1983 3.58592 10.1895 3.60057 10.1749C3.61522 10.1631 3.62401 10.1456 3.62401 10.1221C3.62547 10.1117 3.62466 10.101 3.62163 10.0909C3.61859 10.0808 3.61341 10.0715 3.60643 10.0635C3.59061 10.0481 3.56986 10.0388 3.54784 10.0372L3.41893 10.0284L3.40135 10.3038H3.43944ZM3.71483 10.0782H3.80858L3.8408 10.084C3.85545 10.0928 3.86131 10.1046 3.86131 10.1251C3.86131 10.1426 3.85838 10.1544 3.84666 10.1631C3.83408 10.1699 3.81987 10.1729 3.80565 10.1719H3.71483V10.0782ZM3.71483 10.3184V10.2012L3.80272 10.2042C3.81737 10.2042 3.83202 10.2042 3.83787 10.21C3.84959 10.2159 3.85838 10.2276 3.85838 10.2452V10.3126L3.86424 10.3213H3.91112V10.3155C3.90826 10.314 3.90574 10.3119 3.90373 10.3094C3.90171 10.3069 3.90024 10.304 3.8994 10.3008C3.8975 10.2932 3.89651 10.2853 3.89647 10.2774V10.2393C3.89647 10.2217 3.89061 10.21 3.88475 10.2042C3.87888 10.1961 3.87071 10.19 3.86131 10.1866C3.87303 10.1807 3.88475 10.1719 3.89061 10.1631C3.89647 10.1514 3.90233 10.1397 3.90233 10.1221C3.90233 10.0928 3.88768 10.0694 3.86131 10.0577C3.84468 10.0503 3.82676 10.0463 3.80858 10.046H3.67674V10.3213H3.71483M4.0078 10.2628C3.99022 10.2411 3.97996 10.2144 3.9785 10.1866C3.9785 10.1485 3.98436 10.1192 4.00194 10.0987C4.01084 10.089 4.02173 10.0814 4.03387 10.0763C4.04601 10.0713 4.05911 10.0689 4.07225 10.0694C4.08497 10.0679 4.09785 10.0693 4.11 10.0733C4.12214 10.0774 4.13326 10.084 4.14256 10.0928C4.16307 10.1104 4.17186 10.1368 4.17479 10.169C4.17705 10.1975 4.17094 10.226 4.15721 10.251C4.14256 10.2745 4.11912 10.2891 4.08397 10.2891C4.04881 10.2891 4.02537 10.2833 4.00487 10.2628M3.96092 10.0899C3.94396 10.1192 3.93582 10.1528 3.93748 10.1866C3.94041 10.2276 3.95213 10.2628 3.9785 10.2862C3.99232 10.2997 4.00889 10.3102 4.02708 10.3167C4.04528 10.3233 4.06468 10.3259 4.08397 10.3243C4.10398 10.3241 4.12367 10.3192 4.14146 10.31C4.15926 10.3009 4.17468 10.2877 4.18651 10.2715C4.20725 10.2404 4.21751 10.2035 4.2158 10.1661C4.21479 10.1327 4.20238 10.1006 4.18065 10.0753C4.15428 10.046 4.1162 10.0313 4.06639 10.0342C4.01952 10.0342 3.98436 10.0547 3.96092 10.0899ZM5.24998 9.69439C5.27928 9.69147 5.30272 9.69147 5.32323 9.69732C5.35252 9.70904 5.37303 9.72955 5.38768 9.76471L5.34959 9.77057C5.34315 9.75386 5.33058 9.74024 5.31444 9.73248C5.2959 9.72484 5.27553 9.7228 5.25584 9.72662C5.24399 9.72863 5.23268 9.73304 5.2226 9.73959C5.21252 9.74614 5.20389 9.75469 5.19725 9.76471C5.1826 9.78521 5.17674 9.81451 5.1826 9.8526C5.18571 9.88114 5.19806 9.90788 5.21776 9.92877C5.23534 9.94635 5.2617 9.95221 5.29393 9.94928C5.31676 9.9461 5.33762 9.93463 5.35252 9.91705C5.3701 9.89947 5.37303 9.87604 5.36717 9.84381L5.27928 9.85846L5.27635 9.82916L5.3994 9.80865L5.42284 9.95514H5.39647L5.38182 9.92584L5.35252 9.95514C5.33787 9.96979 5.31737 9.97565 5.29393 9.9815C5.2612 9.98731 5.2275 9.97993 5.20018 9.961C5.18471 9.94896 5.17181 9.93394 5.16225 9.91683C5.15269 9.89972 5.14666 9.88087 5.14452 9.86139C5.13973 9.84149 5.13907 9.82082 5.1426 9.80066C5.14613 9.78051 5.15376 9.76129 5.16502 9.7442C5.17518 9.73001 5.1883 9.71821 5.20348 9.70961C5.21866 9.70101 5.23553 9.69582 5.25291 9.69439M5.5283 9.67389L5.61619 9.64166C5.62791 9.6358 5.63963 9.6358 5.64842 9.6358C5.666 9.6358 5.67772 9.64752 5.68358 9.6651C5.68944 9.68268 5.68944 9.69732 5.68358 9.70904C5.67479 9.71783 5.66307 9.72662 5.64549 9.73248L5.56346 9.76178L5.5283 9.67389ZM5.61619 9.89947L5.57518 9.79108L5.65721 9.76178C5.66729 9.75682 5.67823 9.75383 5.68944 9.75299C5.70409 9.75592 5.7158 9.76471 5.72459 9.78229L5.74217 9.8233L5.75096 9.84381L5.75682 9.8526L5.80077 9.83502V9.82916C5.79198 9.82916 5.78612 9.82623 5.78319 9.81744C5.77733 9.81451 5.7744 9.80572 5.77147 9.79693L5.75682 9.76178C5.75096 9.74713 5.74217 9.73834 5.73631 9.73248C5.72708 9.72845 5.71709 9.72645 5.70702 9.72662L5.72459 9.69146C5.72459 9.67975 5.72459 9.6651 5.71873 9.65045C5.70702 9.62115 5.68944 9.60357 5.66014 9.60357C5.64117 9.60246 5.62218 9.60546 5.60448 9.61236L5.48143 9.65631L5.58104 9.91412L5.61619 9.9024M5.93846 9.76471L5.78319 9.53619L5.95311 9.42486L5.97362 9.45416L5.83299 9.54205L5.87987 9.61236L6.0117 9.53033L6.02928 9.5567L5.89745 9.63873L5.95018 9.71783L6.09666 9.62408L6.11424 9.65338L5.93846 9.76471ZM6.07616 9.36041L6.1201 9.31061C6.14354 9.28717 6.16405 9.27838 6.18748 9.28131C6.21385 9.28131 6.23729 9.29596 6.26366 9.3194C6.28225 9.33497 6.2964 9.35519 6.30467 9.37799C6.31053 9.39557 6.3076 9.41022 6.30467 9.42486C6.29937 9.43562 6.29246 9.4455 6.28416 9.45416L6.24022 9.50104L6.07616 9.36041ZM6.31346 9.46588C6.34569 9.43072 6.35155 9.39557 6.33397 9.34869C6.32172 9.32501 6.30477 9.30408 6.28416 9.28717C6.25934 9.2637 6.22736 9.24926 6.19334 9.24615C6.15819 9.24322 6.12889 9.25494 6.10252 9.28424L6.02635 9.36627L6.23729 9.55084L6.31346 9.46881M6.47752 9.25494L6.23436 9.10846L6.25487 9.07916L6.49803 9.22271L6.47752 9.25201M6.5742 9.08795L6.31053 8.98248L6.3867 8.79791L6.41893 8.80963L6.35741 8.96197L6.43651 8.99127L6.4951 8.85358L6.5244 8.86529L6.4658 9.00592L6.55369 9.04107L6.62108 8.88873L6.65037 8.90045L6.5742 9.08795ZM6.69139 8.76568L6.416 8.70709L6.42772 8.66315L6.6826 8.57525L6.45702 8.52545L6.4658 8.49322L6.7412 8.55182L6.73241 8.59283L6.47752 8.68072L6.70311 8.73053L6.69432 8.76568M6.67088 8.41412L6.67381 8.37897C6.69139 8.37897 6.70311 8.37896 6.71483 8.37311C6.73534 8.36139 6.74412 8.34088 6.74998 8.31158C6.75163 8.29785 6.75064 8.28393 6.74705 8.27057C6.7412 8.25006 6.72948 8.23541 6.70897 8.23541C6.69139 8.23248 6.67967 8.23541 6.67381 8.2442C6.66502 8.25299 6.65916 8.26764 6.6533 8.28814L6.63866 8.3233C6.6328 8.34674 6.62401 8.36432 6.61522 8.37311C6.6035 8.39068 6.58592 8.39654 6.56248 8.39361C6.55123 8.39302 6.54022 8.39011 6.53014 8.38507C6.52005 8.38003 6.51112 8.37296 6.50389 8.36432C6.48631 8.34674 6.48045 8.32037 6.48338 8.28814C6.48631 8.25885 6.4951 8.23541 6.51268 8.21783C6.52733 8.20025 6.55077 8.18854 6.58299 8.1944L6.58006 8.22955C6.56541 8.22955 6.55077 8.22955 6.54491 8.23834C6.52733 8.24713 6.51854 8.26764 6.51561 8.294C6.51561 8.31451 6.51561 8.32916 6.52733 8.34088C6.53612 8.3526 6.54491 8.35846 6.55662 8.35846C6.57127 8.35846 6.58299 8.35846 6.58885 8.34674L6.60936 8.29693L6.62108 8.25885C6.62694 8.24127 6.63573 8.22955 6.64452 8.21783C6.65916 8.20318 6.67967 8.19732 6.70311 8.19732C6.73534 8.20025 6.75877 8.2149 6.76756 8.23834C6.77928 8.26178 6.78514 8.28522 6.78221 8.31744C6.78057 8.34637 6.76801 8.3736 6.74705 8.39361C6.72655 8.41119 6.70311 8.41705 6.67088 8.41412ZM0.940414 8.39654L0.949203 8.4317C0.931625 8.43463 0.919906 8.44049 0.911117 8.44928C0.896468 8.46393 0.890609 8.48736 0.896468 8.51959C0.898485 8.53186 0.902441 8.54372 0.908187 8.55475C0.919906 8.57525 0.937484 8.58404 0.957992 8.58111C0.97264 8.57818 0.981429 8.57233 0.987289 8.56061L0.996078 8.51373V8.47564C0.996078 8.45221 1.00194 8.4317 1.00487 8.42291C1.01366 8.40533 1.03123 8.39361 1.05467 8.38775C1.07811 8.38482 1.10155 8.38775 1.11912 8.40533C1.13963 8.41705 1.15135 8.44049 1.15721 8.46979C1.16291 8.49544 1.15981 8.52227 1.14842 8.54596C1.1367 8.5694 1.11912 8.58111 1.0869 8.58697L1.08104 8.55475C1.09186 8.55086 1.10181 8.54489 1.11034 8.53717C1.12498 8.52252 1.12791 8.50201 1.12498 8.47564C1.11912 8.45221 1.11327 8.43756 1.10155 8.4317C1.09665 8.42782 1.09098 8.42503 1.08492 8.42351C1.07885 8.422 1.07254 8.42179 1.06639 8.42291C1.05993 8.42261 1.05355 8.42447 1.04825 8.42818C1.04295 8.43189 1.03903 8.43725 1.03709 8.44342L1.03416 8.49615L1.03123 8.53424C1.03112 8.55057 1.0271 8.56665 1.01952 8.58111C1.01476 8.59063 1.00772 8.59882 0.999032 8.60495C0.990342 8.61109 0.980269 8.61498 0.969711 8.61627C0.940414 8.62213 0.911117 8.61334 0.896468 8.59283C0.878562 8.57304 0.866406 8.54872 0.861312 8.52252C0.857982 8.5081 0.857563 8.49315 0.860078 8.47856C0.862593 8.46398 0.867993 8.45004 0.875961 8.43756C0.883237 8.42686 0.892788 8.41789 0.903929 8.41131C0.915071 8.40473 0.927529 8.40068 0.940414 8.39947M0.922836 8.75982L1.1953 8.67779L1.25682 8.86822L1.22459 8.87994L1.17186 8.72467L1.08983 8.74811L1.13963 8.89459L1.10741 8.90338L1.06053 8.75689L0.966781 8.78619L1.01952 8.94439L0.990218 8.95318L0.922836 8.75982ZM1.04295 9.09088L1.29198 8.95904L1.32127 9.00592L1.14842 9.18463L1.39745 9.14361L1.42381 9.18756L1.17479 9.3194L1.15721 9.2901L1.30369 9.211L1.33006 9.19928L1.36815 9.17877L1.11912 9.22271L1.10155 9.19049L1.27147 9.00885L1.26268 9.01471L1.23338 9.02936C1.22496 9.03488 1.21615 9.03978 1.20702 9.044L1.06053 9.12018L1.04295 9.09088ZM1.50584 9.45709C1.49412 9.45416 1.48241 9.44537 1.47069 9.43365L1.41795 9.38092L1.48827 9.31647L1.541 9.3692C1.54977 9.37746 1.55675 9.38743 1.56151 9.3985C1.56737 9.41314 1.56151 9.42779 1.54686 9.44244C1.53221 9.45416 1.51756 9.46002 1.50584 9.45709ZM1.30662 9.48053L1.39452 9.40143L1.45311 9.46295C1.47655 9.48346 1.49705 9.49225 1.51756 9.49225C1.53932 9.49196 1.5602 9.48361 1.57616 9.46881C1.59095 9.45285 1.5993 9.43197 1.59959 9.41022C1.59959 9.39264 1.5908 9.37213 1.57323 9.35455L1.48534 9.26666L1.28026 9.45416L1.30955 9.48346M1.55565 9.70318L1.70506 9.46881L1.88084 9.57428L1.86327 9.60357L1.71678 9.51568L1.67284 9.58893L1.80467 9.66803L1.79002 9.69732L1.65526 9.61529L1.60545 9.69439L1.75194 9.78229L1.73436 9.81158L1.55565 9.70318ZM1.9951 9.65631L2.08592 9.68561L2.11522 9.70025C2.12694 9.71197 2.12987 9.72662 2.12108 9.7442C2.11522 9.76178 2.10936 9.7735 2.09471 9.77643L2.05077 9.7735L1.9658 9.7442L1.9951 9.65631ZM1.91893 9.88775L1.95702 9.77643L2.03905 9.80279C2.05369 9.80572 2.06834 9.81158 2.07127 9.81744C2.08006 9.82623 2.08299 9.84088 2.08006 9.85846L2.06541 9.9024L2.06248 9.92291V9.9317L2.10643 9.94635V9.94049L2.10057 9.91998L2.10643 9.89947L2.11815 9.86432C2.12108 9.84674 2.12401 9.83502 2.11815 9.82916C2.11815 9.82037 2.10936 9.81158 2.10057 9.80279C2.11522 9.80279 2.12987 9.79693 2.13866 9.78815C2.14744 9.77936 2.15623 9.76764 2.15916 9.75299C2.17088 9.72369 2.16502 9.69732 2.14159 9.67975C2.12765 9.66825 2.11178 9.65932 2.09471 9.65338L1.96873 9.61529L1.88084 9.87604L1.91893 9.88775Z" fill="#009FC5"/>
<path d="M2.29978 5.14448C2.32908 5.06538 2.63084 4.85152 3.61228 4.94527C3.61228 4.94527 3.77928 5.0478 3.87596 5.03316C3.93455 5.0273 3.84666 5.03902 3.77049 4.97749C3.69725 4.9189 3.6826 4.79292 3.84959 4.79878C4.01951 4.80171 4.64939 4.83687 4.66111 4.89546C4.67283 4.95113 4.32713 4.97456 4.20115 4.97163C4.07225 4.9687 4.08396 5.03316 4.21287 5.03023C4.61424 5.01265 5.05076 4.87202 5.51072 5.20015C5.56639 5.23823 5.37303 5.24409 5.22361 5.18257C5.22361 5.18257 4.81346 5.20308 4.63768 5.17378C4.63768 5.17378 4.50584 5.28511 4.32713 5.27339C4.35057 5.33198 4.26268 5.54292 3.71189 5.38179C3.61814 5.41109 3.28709 5.46675 3.32225 5.36714C3.23436 5.36714 3.08201 5.39644 3.05857 5.34663C3.03514 5.29683 3.32811 5.22359 3.38084 5.17085C3.38084 5.17085 2.75975 5.17671 2.64256 5.13277C2.64256 5.13277 2.27635 5.2148 2.29978 5.14448Z" fill="#BC715F"/>
<path d="M2.49903 6.01167C2.51074 5.99409 2.5166 5.95894 2.5459 5.96187C2.60449 5.97652 2.64844 6.09077 2.72168 6.01753C2.75098 6.01167 2.75977 6.04683 2.78028 6.05269C2.79492 6.11421 2.84766 6.03804 2.88282 6.0439C2.96485 6.00874 3.06153 5.99995 3.15821 6.0146C3.15821 6.07906 3.11133 6.14644 3.05274 6.18159C3.05274 6.24019 3.11133 6.2812 3.1084 6.34273C3.09961 6.36617 3.1084 6.40132 3.07324 6.41011C3.02637 6.40132 2.98535 6.39839 2.94727 6.37202C2.94141 6.36909 2.93848 6.36031 2.92969 6.36324C2.92383 6.38374 2.95899 6.40425 2.97071 6.42476C2.94727 6.46284 2.91211 6.42769 2.87989 6.42769C2.8711 6.45113 2.87989 6.47749 2.85645 6.49214C2.81836 6.49214 2.80957 6.4482 2.78614 6.42769C2.75977 6.45406 2.80371 6.4687 2.80957 6.48921C2.79199 6.57124 2.79492 6.65034 2.71582 6.70308L2.66016 6.72945C2.64551 6.68843 2.6543 6.62691 2.64551 6.58296C2.61621 6.6357 2.58692 6.68257 2.54297 6.72652C2.48438 6.70894 2.45508 6.64449 2.44336 6.58882C2.43141 6.55811 2.42865 6.52459 2.43542 6.49234C2.44218 6.46009 2.45817 6.4305 2.48145 6.40718C2.4668 6.37788 2.40821 6.38374 2.39942 6.33687C2.31153 6.27827 2.26758 6.43355 2.21192 6.35445C2.20329 6.31535 2.2041 6.27476 2.21429 6.23603C2.22448 6.19731 2.24375 6.16158 2.27051 6.13179C2.25586 6.10249 2.21485 6.10835 2.19141 6.09077C2.13867 6.0439 2.05957 5.99702 2.06543 5.91499C2.13897 5.88838 2.21857 5.88333 2.29488 5.90046C2.37118 5.91759 2.441 5.95618 2.4961 6.01167" fill="#008737"/>
<path d="M2.57519 6.00293C2.57226 6.07031 2.61914 6.02051 2.65722 6.06152C2.62792 6.0498 2.60742 6.11133 2.57812 6.07617L2.56054 6.09375C2.57226 6.11719 2.58984 6.12012 2.57226 6.14648C2.54296 6.1582 2.53417 6.11719 2.51953 6.10254C2.51953 6.09668 2.52539 6.08496 2.51367 6.0791C2.49609 6.09375 2.47851 6.09961 2.45507 6.09668C2.44921 6.08496 2.43457 6.06738 2.44921 6.05566C2.47265 6.02637 2.50781 6.06738 2.52539 6.04688C2.52832 6.02637 2.51074 6.00293 2.53417 5.98828C2.54882 5.99121 2.56933 5.98242 2.57519 6.00293ZM2.75683 6.05859C2.75976 6.07031 2.75097 6.08789 2.76855 6.09961C2.79199 6.08789 2.81542 6.09668 2.82714 6.11719C2.82714 6.12891 2.83007 6.14648 2.81542 6.15234L2.78027 6.14355C2.7832 6.1377 2.77148 6.13477 2.76855 6.12598C2.7539 6.12305 2.74218 6.13477 2.73339 6.14355C2.74218 6.15527 2.76269 6.16406 2.75683 6.17871C2.73632 6.19922 2.72753 6.16113 2.7041 6.17285C2.68652 6.16699 2.70703 6.13477 2.68359 6.12305C2.65429 6.12305 2.6748 6.16992 2.63671 6.15234C2.625 6.1377 2.61328 6.11719 2.625 6.10254C2.63367 6.0974 2.64377 6.09519 2.6538 6.09625C2.66383 6.0973 2.67325 6.10157 2.68066 6.1084C2.7041 6.08203 2.7041 5.98828 2.75976 6.05859M2.53125 6.15527C2.54589 6.17871 2.52539 6.20801 2.54589 6.23145C2.57519 6.17285 2.60449 6.24316 2.63964 6.2373C2.65136 6.25195 2.64257 6.26953 2.6455 6.28418C2.60156 6.2959 2.54882 6.31055 2.51074 6.27539L2.49902 6.28711C2.52246 6.30762 2.54296 6.33398 2.52539 6.36914C2.49316 6.375 2.44042 6.37793 2.42578 6.34277C2.41699 6.31348 2.44628 6.2959 2.41406 6.27246C2.39355 6.30176 2.39355 6.33691 2.3496 6.31055C2.33703 6.3037 2.32757 6.29226 2.3232 6.27862C2.31884 6.26498 2.3199 6.25018 2.32617 6.2373C2.35546 6.19043 2.4082 6.2373 2.43749 6.2168C2.44335 6.17578 2.42871 6.14062 2.46679 6.12012C2.49609 6.11426 2.51074 6.1377 2.53125 6.15527Z" fill="#FFFF00"/>
<path d="M2.6543 6.18159C2.63965 6.24898 2.58984 6.17866 2.56641 6.17573C2.5957 6.11714 2.61621 6.19331 2.6543 6.18159ZM2.8125 6.25483C2.77734 6.26362 2.7832 6.21968 2.76563 6.2021L2.78027 6.19038C2.79199 6.20503 2.80078 6.23433 2.8125 6.25483Z" fill="white"/>
<path d="M2.76563 6.24021C2.77441 6.26364 2.74219 6.28415 2.77148 6.2988L2.79492 6.27829C2.82129 6.28415 2.84766 6.29001 2.86523 6.31345C2.88281 6.36325 2.83301 6.36325 2.80664 6.3779H2.77734C2.7832 6.36032 2.7627 6.35446 2.75977 6.3486C2.75414 6.34661 2.74804 6.34638 2.74228 6.34796C2.73652 6.34953 2.73138 6.35282 2.72754 6.35739C2.7334 6.38669 2.77148 6.41599 2.7334 6.44235C2.69824 6.44235 2.64551 6.45407 2.64844 6.4072C2.63672 6.3779 2.68359 6.33982 2.63379 6.33689C2.61621 6.37497 2.59863 6.4072 2.55469 6.37497L2.56055 6.32224C2.60156 6.32224 2.65137 6.33103 2.66895 6.28415C2.68066 6.25192 2.64844 6.2197 2.67773 6.19626C2.72168 6.18454 2.74512 6.21384 2.76563 6.24021Z" fill="#FFFF00"/>
<path d="M2.73635 6.31639C2.74514 6.34276 2.71878 6.34569 2.70413 6.35741C2.68655 6.35741 2.67483 6.35155 2.66311 6.33983C2.65432 6.31053 2.67776 6.30467 2.69241 6.29295C2.71292 6.28417 2.72171 6.3076 2.73635 6.31639Z" fill="black"/>
<path d="M2.70996 6.33398C2.70703 6.33984 2.69824 6.33691 2.69238 6.33984L2.68652 6.31055C2.70117 6.31055 2.71582 6.31348 2.70996 6.33398Z" fill="white"/>
</g>
</g>
<defs>
<clipPath id="clip0_14_293">
<rect width="20" height="15" fill="white"/>
</clipPath>
</defs>
</svg>
