<svg width="20" height="15" viewBox="0 0 20 15" fill="none" xmlns="http://www.w3.org/2000/svg">
<g clip-path="url(#clip0_14_289)">
<path d="M0 0H20V15H0V0Z" fill="#3E5EB9"/>
<path d="M0 2.8125H20V12.1875H0V2.8125Z" fill="#FFD900"/>
<path d="M0 3.75H20V11.25H0V3.75Z" fill="#B10C0C"/>
<path d="M17.1338 5.78625L16.2225 6.10875L17.13 6.4275L18.0413 6.10875L17.1338 5.78625Z" fill="white" stroke="black" stroke-width="0.06"/>
<path d="M16.53 6H3.37125C3.30705 6 3.255 6.04785 3.255 6.10688C3.255 6.1659 3.30705 6.21375 3.37125 6.21375H16.53C16.5942 6.21375 16.6463 6.1659 16.6463 6.10688C16.6463 6.04785 16.5942 6 16.53 6Z" fill="#FFD900" stroke="black" stroke-width="0.06"/>
<path d="M16.3275 6.21375C16.3554 6.21288 16.3821 6.20165 16.4022 6.18224C16.4223 6.16283 16.4344 6.13663 16.4363 6.10875C16.4353 6.0802 16.4236 6.05308 16.4034 6.03289C16.3832 6.01269 16.3561 6.00094 16.3275 6M16.2225 6.21375C16.2498 6.21199 16.2755 6.20036 16.2948 6.18103C16.3141 6.16171 16.3258 6.13602 16.3275 6.10875C16.3266 6.08082 16.3154 6.05421 16.296 6.03411C16.2766 6.01401 16.2504 6.00185 16.2225 6M16.1138 6.21375C16.1417 6.21288 16.1683 6.20165 16.1884 6.18224C16.2085 6.16283 16.2207 6.13663 16.2225 6.10875C16.2216 6.0802 16.2098 6.05308 16.1896 6.03289C16.1694 6.01269 16.1423 6.00094 16.1138 6" fill="#FFD900"/>
<path d="M16.3275 6.21375C16.3554 6.21288 16.3821 6.20165 16.4022 6.18224C16.4223 6.16283 16.4344 6.13663 16.4363 6.10875C16.4353 6.0802 16.4236 6.05308 16.4034 6.03289C16.3832 6.01269 16.3561 6.00094 16.3275 6M16.2225 6.21375C16.2498 6.21199 16.2755 6.20036 16.2948 6.18103C16.3141 6.16171 16.3258 6.13602 16.3275 6.10875C16.3266 6.08082 16.3154 6.05421 16.296 6.03411C16.2766 6.01401 16.2504 6.00185 16.2225 6M16.1138 6.21375C16.1417 6.21288 16.1683 6.20165 16.1884 6.18224C16.2085 6.16283 16.2207 6.13663 16.2225 6.10875C16.2216 6.0802 16.2098 6.05308 16.1896 6.03289C16.1694 6.01269 16.1423 6.00094 16.1138 6" stroke="black" stroke-width="0.06"/>
<path d="M16.2601 6.42749L15.3488 6.74999L16.2563 7.06874L17.1676 6.74999L16.2601 6.42749Z" fill="white" stroke="black" stroke-width="0.06"/>
<path d="M15.6563 6.64124H2.49754C2.43333 6.64124 2.38129 6.68909 2.38129 6.74811C2.38129 6.80714 2.43333 6.85499 2.49754 6.85499H15.6563C15.7205 6.85499 15.7725 6.80714 15.7725 6.74811C15.7725 6.68909 15.7205 6.64124 15.6563 6.64124Z" fill="#FFD900" stroke="black" stroke-width="0.06"/>
<path d="M15.4538 6.85499C15.4817 6.85412 15.5083 6.84288 15.5284 6.82347C15.5485 6.80406 15.5607 6.77787 15.5626 6.74999C15.5616 6.72144 15.5499 6.69432 15.5297 6.67413C15.5095 6.65393 15.4823 6.64217 15.4538 6.64124M15.3488 6.85499C15.3761 6.85322 15.4018 6.84159 15.4211 6.82227C15.4404 6.80295 15.452 6.77725 15.4538 6.74999C15.4529 6.72206 15.4417 6.69545 15.4223 6.67535C15.4029 6.65524 15.3767 6.64308 15.3488 6.64124M15.2401 6.85499C15.268 6.85412 15.2946 6.84288 15.3147 6.82347C15.3348 6.80406 15.347 6.77787 15.3488 6.74999C15.3479 6.72144 15.3361 6.69432 15.3159 6.67413C15.2957 6.65393 15.2686 6.64217 15.2401 6.64124" fill="#FFD900"/>
<path d="M15.4538 6.85499C15.4817 6.85412 15.5083 6.84288 15.5284 6.82347C15.5485 6.80406 15.5607 6.77787 15.5626 6.74999C15.5616 6.72144 15.5499 6.69432 15.5297 6.67413C15.5095 6.65393 15.4823 6.64217 15.4538 6.64124M15.3488 6.85499C15.3761 6.85322 15.4018 6.84159 15.4211 6.82227C15.4404 6.80295 15.452 6.77725 15.4538 6.74999C15.4529 6.72206 15.4417 6.69545 15.4223 6.67535C15.4029 6.65524 15.3767 6.64308 15.3488 6.64124M15.2401 6.85499C15.268 6.85412 15.2946 6.84288 15.3147 6.82347C15.3348 6.80406 15.347 6.77787 15.3488 6.74999C15.3479 6.72144 15.3361 6.69432 15.3159 6.67413C15.2957 6.65393 15.2686 6.64217 15.2401 6.64124" stroke="black" stroke-width="0.06"/>
<path d="M18.9488 7.33875H1.05002C0.963032 7.33875 0.892517 7.41094 0.892517 7.5C0.892517 7.58905 0.963032 7.66125 1.05002 7.66125H18.9488C19.0358 7.66125 19.1063 7.58905 19.1063 7.5C19.1063 7.41094 19.0358 7.33875 18.9488 7.33875Z" fill="#FFD900" stroke="black" stroke-width="0.066"/>
<path d="M15.2563 7.50005C14.1844 8.57192 12.7563 10.7157 9.90001 10.7157C7.40001 10.7157 5.61564 8.57192 4.54376 7.50005C5.61251 6.42817 7.40001 4.28442 9.90001 4.28442C12.7563 4.28442 14.1844 6.42817 15.2563 7.50005Z" fill="white" stroke="black" stroke-width="0.06"/>
<path d="M9.52501 5.4063C9.81251 5.72505 9.57189 5.85317 9.87501 5.87505C10.1938 5.89692 10.0125 6.21255 10.2813 6.22505C10.4688 6.2313 10.2625 6.9813 10.4406 7.22505C10.625 7.48442 10.7781 7.30317 10.7844 7.48755C10.7844 7.6813 10.2844 7.65942 10.275 8.25317C10.2594 8.5938 9.85001 8.61567 9.83126 8.83442C9.80626 9.04067 10.6375 9.1563 10.625 9.34067C10.6156 9.52817 9.72814 9.49692 9.68751 9.7063C9.66876 9.8938 10.9063 10.05 11.0063 10.5969C10.8188 10.6594 10.2969 10.7125 9.90001 10.7157C7.40001 10.7157 5.61564 8.57192 4.54376 7.49692C5.61564 6.42817 7.40001 4.28442 9.90001 4.28442C9.90001 4.28442 9.15939 4.96255 9.52501 5.40317V5.4063Z" fill="black"/>
<path d="M6.67499 7.21495V6.3562ZM7.19249 6.3562V7.21495ZM7.70999 6.3562V7.21495Z" fill="black"/>
<path d="M6.67499 7.21495V6.3562M7.19249 6.3562V7.21495M7.70999 6.3562V7.21495" stroke="white" stroke-width="0.414"/>
<path d="M6.67499 8.64366V7.78491ZM7.19249 7.78491V8.64366ZM7.70999 7.78491V8.64366Z" fill="black"/>
<path d="M6.67499 8.64366V7.78491M7.19249 7.78491V8.64366M7.70999 7.78491V8.64366" stroke="white" stroke-width="0.414"/>
<path d="M8.23499 7.21495V6.3562ZM8.75249 6.3562V7.21495ZM9.26999 6.3562V7.21495Z" fill="black"/>
<path d="M8.23499 7.21495V6.3562M8.75249 6.3562V7.21495M9.26999 6.3562V7.21495" stroke="white" stroke-width="0.414"/>
<path d="M8.23499 8.64366V7.78491ZM8.75249 7.78491V8.64366ZM9.26999 7.78491V8.64366Z" fill="black"/>
<path d="M8.23499 8.64366V7.78491M8.75249 7.78491V8.64366M9.26999 7.78491V8.64366" stroke="white" stroke-width="0.414"/>
<path d="M10.605 7.21495V6.3562ZM11.1225 6.3562V7.21495ZM11.64 6.3562V7.21495Z" fill="black"/>
<path d="M10.605 7.21495V6.3562M11.1225 6.3562V7.21495M11.64 6.3562V7.21495" stroke="black" stroke-width="0.414"/>
<path d="M10.605 8.64366V7.78491ZM11.1225 7.78491V8.64366ZM11.64 7.78491V8.64366Z" fill="black"/>
<path d="M10.605 8.64366V7.78491M11.1225 7.78491V8.64366M11.64 7.78491V8.64366" stroke="black" stroke-width="0.414"/>
<path d="M12.165 7.21495V6.3562ZM12.6825 6.3562V7.21495ZM13.2 6.3562V7.21495Z" fill="black"/>
<path d="M12.165 7.21495V6.3562M12.6825 6.3562V7.21495M13.2 6.3562V7.21495" stroke="black" stroke-width="0.414"/>
<path d="M12.165 8.64366V7.78491ZM12.6825 7.78491V8.64366ZM13.2 7.78491V8.64366Z" fill="black"/>
<path d="M12.165 8.64366V7.78491M12.6825 7.78491V8.64366M13.2 7.78491V8.64366" stroke="black" stroke-width="0.414"/>
<path d="M17.825 7.37495C17.6625 7.65308 17.95 7.2812 18.65 7.74995C18.7212 7.80875 18.7795 7.88151 18.8214 7.96375C18.8634 8.04599 18.888 8.13595 18.8937 8.22808C18.8625 8.2062 18.8344 8.1562 18.8 8.12808C18.75 8.17808 18.85 8.40933 18.8625 8.5187C18.7531 8.4562 18.7625 8.4312 18.7281 8.3562C18.7344 8.4437 18.7062 8.6937 18.7531 8.7937C18.6656 8.7687 18.6719 8.69995 18.6281 8.68433C18.6594 8.7937 18.6 8.90933 18.6156 9.03433C18.5656 8.98433 18.5094 8.9437 18.4875 8.92495C18.4812 8.98745 18.3906 9.13745 18.3875 9.1937C18.3712 9.18323 18.3572 9.16949 18.3465 9.15336C18.3357 9.13723 18.3284 9.11904 18.325 9.09995C18.2258 9.21819 18.1418 9.34836 18.075 9.48745C17.9281 9.36245 17.5563 9.04995 17.5063 8.8812C17.4625 8.97495 17.4 9.0062 17.2812 9.07495C17.2312 8.81245 17.0469 8.5187 17.1437 8.29058C17.0781 8.33117 17.0145 8.37497 16.9531 8.42183C17.009 8.19157 17.117 7.9772 17.2686 7.79517C17.4203 7.61315 17.6117 7.46832 17.8281 7.37183L17.825 7.37495Z" fill="#333333" stroke="black" stroke-width="0.05"/>
<path d="M17.2188 8.76559C17.2875 8.63121 17.35 8.58746 17.3937 8.49996C17.4687 8.34996 17.4812 8.22496 17.55 8.24371C17.6125 8.26246 17.6125 8.32497 17.5281 8.47497C17.4438 8.62497 17.4031 8.65621 17.2188 8.76559ZM17.675 9.08434C17.6687 8.98434 17.6969 8.94059 17.6938 8.87496C17.6813 8.75621 17.6344 8.67809 17.6969 8.67184C17.7594 8.66871 17.7875 8.70621 17.7875 8.82184C17.7875 8.94059 17.7687 8.97184 17.675 9.08434ZM18.0219 9.28434C17.9938 9.14371 18.0156 9.08121 17.9969 8.98746C17.9656 8.82496 17.9063 8.71871 17.9656 8.70309C18.0219 8.68746 18.0594 8.74059 18.0812 8.90621C18.1 9.06871 18.0906 9.11559 18.0219 9.28747V9.28434ZM18.3813 8.28434C18.2969 8.22184 18.2469 8.21559 18.1938 8.17496C18.1 8.09996 18.05 8.02496 18.0187 8.06246C17.9875 8.09996 18.0094 8.14372 18.1125 8.20934C18.2156 8.27497 18.2438 8.28121 18.3813 8.28434ZM18.3219 8.75934C18.2781 8.66559 18.2281 8.64372 18.2031 8.58434C18.1531 8.47809 18.1531 8.38746 18.0937 8.40934C18.0406 8.43434 18.0344 8.48122 18.0937 8.58434C18.1562 8.68434 18.1875 8.70309 18.3188 8.75934H18.3219Z" fill="#B3B3B3"/>
<path d="M1.68123 7.6437C1.66873 7.56245 1.68748 7.54995 1.63748 7.48745C1.71248 7.5187 1.71248 7.60308 1.8031 7.5437C1.83435 7.52808 1.84998 7.52808 1.80935 7.43433C1.9031 7.44058 2.20623 7.5437 2.25623 7.54683C2.38435 7.55308 2.61873 7.41245 2.78123 7.58433C2.93748 7.74058 2.88123 7.9062 2.88123 8.12183C2.81873 8.09058 2.84998 8.0812 2.78123 7.99995C2.83123 8.1937 2.78123 8.53433 2.78123 8.73745C2.75623 8.68745 2.75935 8.70933 2.73435 8.65933C2.67185 8.8437 2.5906 8.87808 2.5906 9.09995C2.5656 9.01245 2.5906 9.0312 2.56248 8.98745C2.49998 9.12808 2.06248 9.24683 2.23123 9.38745C2.08123 9.29995 2.01248 9.3062 1.94998 9.2312C1.91873 9.24683 1.89373 9.28433 1.86873 9.3312C1.6031 9.21245 1.69685 8.94995 1.4906 8.77183C1.4531 8.84683 1.46873 8.83745 1.4281 8.9562C1.3906 8.79058 1.3781 8.68433 1.33123 8.56245C1.2906 8.6312 1.29373 8.60308 1.21873 8.7062C1.18748 8.5062 1.1406 8.4562 1.15623 8.32183C1.08123 8.37808 1.13123 8.35308 1.0531 8.42183C1.1281 7.9062 1.44685 7.52183 1.6781 7.64058L1.68123 7.6437Z" fill="#333333" stroke="black" stroke-width="0.065"/>
<path d="M1.3562 8.49055C1.42183 8.3218 1.4812 8.2718 1.52808 8.16555C1.6062 7.97493 1.6187 7.8218 1.68433 7.84368C1.74683 7.86868 1.74683 7.94368 1.65933 8.13118C1.57183 8.31868 1.53433 8.35618 1.3562 8.49055ZM1.61245 8.90618C1.63745 8.75618 1.6812 8.70618 1.69995 8.60618C1.7312 8.43743 1.71558 8.31243 1.77495 8.31868C1.83745 8.32493 1.84995 8.39055 1.80933 8.55618C1.7687 8.72805 1.74058 8.76868 1.60933 8.90618H1.61245ZM1.9187 9.19993C1.92808 9.05618 1.96245 8.9968 1.9687 8.90305C1.97808 8.74055 1.9437 8.6218 1.99995 8.6218C2.06245 8.6218 2.0812 8.68118 2.06245 8.84368C2.0437 9.00618 2.02495 9.04993 1.9187 9.19993ZM2.5812 8.24993C2.4562 8.12493 2.3812 8.09993 2.29995 8.01868C2.1562 7.87493 2.08433 7.74368 2.0312 7.79055C1.9812 7.83743 2.01245 7.90618 2.16558 8.04055C2.31558 8.18118 2.3687 8.19993 2.58433 8.24993H2.5812ZM2.5062 8.73743C2.42495 8.61243 2.36245 8.57805 2.30933 8.49368C2.21558 8.35305 2.18433 8.23118 2.1312 8.2593C2.07808 8.29055 2.09058 8.35305 2.19058 8.49368C2.2937 8.63118 2.3312 8.65618 2.5062 8.73743Z" fill="#B3B3B3"/>
<path d="M8.16871 4.8562C8.01871 5.1437 8.42809 4.76245 9.06871 5.2437C9.22442 5.41031 9.32483 5.62096 9.35621 5.84683C9.22568 5.8051 9.09997 5.74958 8.98121 5.6812C8.98121 5.6812 9.26246 5.9687 9.26246 6.2937C9.16246 6.2312 9.11246 6.24058 9.07496 6.16558C9.07496 6.2687 9.16871 6.33745 9.16871 6.49995C9.10713 6.45042 9.04125 6.40649 8.97184 6.3687C9.06559 6.53433 8.79996 6.85308 8.93434 6.9562C8.82154 6.9407 8.71313 6.90218 8.61584 6.84305C8.51854 6.78392 8.43443 6.70543 8.36871 6.61245C8.31871 6.6437 8.31246 6.69683 8.30934 6.7562C8.31871 6.75933 7.95621 6.48433 7.99059 6.3812C7.94923 6.43291 7.92517 6.49632 7.92184 6.56245C7.78485 6.44832 7.68121 6.29933 7.62184 6.1312C7.56559 6.2062 7.55934 6.2062 7.49996 6.28745C7.45621 6.01558 7.45621 6.02495 7.54371 5.7937C7.48312 5.83548 7.42472 5.88033 7.36871 5.92808C7.41441 5.70134 7.50988 5.48757 7.64823 5.30221C7.78657 5.11685 7.96434 4.96451 8.16871 4.8562Z" fill="#333333" stroke="black" stroke-width="0.05"/>
<path d="M7.79999 6.25619C7.82499 6.05931 7.87499 5.98744 7.89374 5.85619C7.91874 5.63744 7.88749 5.46869 7.96874 5.47494C8.04374 5.48119 8.06874 5.56244 8.03124 5.78744C7.99061 6.00931 7.95624 6.06244 7.80311 6.25931L7.79999 6.25619ZM8.21561 6.61869C8.19999 6.45619 8.23124 6.38119 8.21874 6.27494C8.20311 6.08744 8.14374 5.95619 8.21249 5.94681C8.28124 5.93431 8.31874 5.99681 8.32499 6.19056C8.33124 6.37806 8.31561 6.43119 8.21561 6.61869ZM8.86561 6.91869C8.79374 6.77181 8.73124 6.73119 8.68749 6.63744C8.60624 6.47181 8.58749 6.34056 8.52811 6.36244C8.46561 6.38744 8.46874 6.45619 8.55936 6.61869C8.64686 6.77494 8.68749 6.80931 8.86249 6.91869H8.86561ZM9.08749 5.62181C8.90624 5.52806 8.81561 5.52806 8.69999 5.46556C8.49686 5.35931 8.37811 5.24369 8.33749 5.30931C8.29374 5.37181 8.34999 5.43744 8.55936 5.53431C8.76874 5.63119 8.83436 5.63431 9.08436 5.62181H9.08749ZM9.14999 6.16244C9.02499 6.05619 8.94374 6.03744 8.85936 5.96869C8.70936 5.84369 8.63749 5.72806 8.59061 5.77494C8.54061 5.82494 8.57186 5.88744 8.72811 6.00306C8.88436 6.11869 8.93749 6.13119 9.15311 6.16244H9.14999Z" fill="#B3B3B3"/>
</g>
<defs>
<clipPath id="clip0_14_289">
<rect width="20" height="15" fill="white"/>
</clipPath>
</defs>
</svg>
