<svg width="20" height="15" viewBox="0 0 20 15" fill="none" xmlns="http://www.w3.org/2000/svg">
<mask id="mask0_1825_45017" style="mask-type:luminance" maskUnits="userSpaceOnUse" x="0" y="0" width="20" height="15">
<rect width="20" height="15" fill="white"/>
</mask>
<g mask="url(#mask0_1825_45017)">
<path fill-rule="evenodd" clip-rule="evenodd" d="M0 0H20V15H0V0Z" fill="#3D58DB"/>
<path d="M0 3.125H-0.625V3.75V11.25V11.875H0H20H20.625V11.25V3.75V3.125H20H0Z" fill="#C51918" stroke="#FFD018" stroke-width="1.25"/>
<path d="M4.46875 5.83177C4.39378 5.83177 4.33301 5.66227 4.33301 5.45318C4.33301 5.24409 4.39378 5.07458 4.46875 5.07458H15.3505C15.4255 5.07458 15.4862 5.24409 15.4862 5.45318C15.4862 5.66227 15.4255 5.83177 15.3505 5.83177H4.46875Z" fill="#FFD018"/>
<path fill-rule="evenodd" clip-rule="evenodd" d="M15.0601 5.37631L15.692 4.57019L16.8101 5.37631L15.692 6.20363L15.0601 5.37631Z" fill="#F7FCFF"/>
<path d="M4.46875 8.33177C4.39378 8.33177 4.33301 8.16227 4.33301 7.95318C4.33301 7.74409 4.39378 7.57458 4.46875 7.57458H15.3505C15.4255 7.57458 15.4862 7.74409 15.4862 7.95318C15.4862 8.16227 15.4255 8.33177 15.3505 8.33177H4.46875Z" fill="#FFD018"/>
<path fill-rule="evenodd" clip-rule="evenodd" d="M15.0601 7.87631L15.692 7.07019L16.8101 7.87631L15.692 8.70363L15.0601 7.87631Z" fill="#F7FCFF"/>
<path d="M2.71619 9.88854C2.61567 9.88854 2.53418 9.69608 2.53418 9.45867C2.53418 9.22127 2.61567 9.02881 2.71619 9.02881H17.3063C17.4068 9.02881 17.4883 9.22127 17.4883 9.45867C17.4883 9.69608 17.4068 9.88854 17.3063 9.88854H2.71619Z" fill="#FFD018"/>
<path fill-rule="evenodd" clip-rule="evenodd" d="M5.51074 7.53292C5.51074 7.53292 7.28658 3.79541 9.82653 3.79541C12.3665 3.79541 14.202 7.53292 14.202 7.53292C14.202 7.53292 11.9607 11.2213 9.85639 11.2213C7.75209 11.2213 5.51074 7.53292 5.51074 7.53292Z" fill="#F7FCFF"/>
<mask id="mask1_1825_45017" style="mask-type:luminance" maskUnits="userSpaceOnUse" x="5" y="3" width="10" height="9">
<path fill-rule="evenodd" clip-rule="evenodd" d="M5.51074 7.53292C5.51074 7.53292 7.28658 3.79541 9.82653 3.79541C12.3665 3.79541 14.202 7.53292 14.202 7.53292C14.202 7.53292 11.9607 11.2213 9.85639 11.2213C7.75209 11.2213 5.51074 7.53292 5.51074 7.53292Z" fill="white"/>
</mask>
<g mask="url(#mask1_1825_45017)">
<path fill-rule="evenodd" clip-rule="evenodd" d="M9.95257 3.55005C9.95257 3.55005 9.37302 4.25393 9.56621 4.92512C9.75939 5.59632 10.2095 5.52543 10.2095 6.11653C10.2095 6.70763 10.0015 7.31047 10.2095 7.31047C10.4174 7.31047 10.4895 7.71837 10.2994 7.99491C10.1094 8.27145 9.94131 8.27999 9.95257 8.73006C9.96383 9.18012 10.9476 9.62192 10.471 9.62192C9.99447 9.62192 9.36636 10.0845 9.56621 10.0845C9.76605 10.0845 10.8116 10.4449 10.8116 10.9178C10.8116 11.3908 10.8116 11.7693 10.8116 11.7693H5.35693V3.55005H9.95257Z" fill="#272727"/>
<path fill-rule="evenodd" clip-rule="evenodd" d="M7.38673 6.2019H7.11523V7.30767H7.38673V6.2019ZM8.18763 6.2019H7.91614V7.30767H8.18763V6.2019ZM7.51569 6.2019H7.78718V7.30767H7.51569V6.2019ZM8.58809 6.2019H8.31659V7.30767H8.58809V6.2019ZM8.71704 6.2019H8.98854V7.30767H8.71704V6.2019ZM9.38899 6.2019H9.1175V7.30767H9.38899V6.2019ZM7.11523 7.78844H7.38673V8.89421H7.11523V7.78844ZM8.18763 7.78844H7.91614V8.89421H8.18763V7.78844ZM7.51569 7.78844H7.78718V8.89421H7.51569V7.78844ZM8.58809 7.78844H8.31659V8.89421H8.58809V7.78844ZM8.71704 7.78844H8.98854V8.89421H8.71704V7.78844ZM9.38899 7.78844H9.1175V8.89421H9.38899V7.78844Z" fill="#F7FCFF"/>
<path fill-rule="evenodd" clip-rule="evenodd" d="M10.6108 6.2019H10.3394V7.30767H10.6108V6.2019ZM11.4118 6.2019H11.1403V7.30767H11.4118V6.2019ZM10.7398 6.2019H11.0113V7.30767H10.7398V6.2019ZM11.8122 6.2019H11.5407V7.30767H11.8122V6.2019ZM11.9412 6.2019H12.2127V7.30767H11.9412V6.2019ZM12.6131 6.2019H12.3416V7.30767H12.6131V6.2019ZM10.3394 7.78844H10.6108V8.89421H10.3394V7.78844ZM11.4118 7.78844H11.1403V8.89421H11.4118V7.78844ZM10.7398 7.78844H11.0113V8.89421H10.7398V7.78844ZM11.8122 7.78844H11.5407V8.89421H11.8122V7.78844ZM11.9412 7.78844H12.2127V8.89421H11.9412V7.78844ZM12.6131 7.78844H12.3416V8.89421H12.6131V7.78844Z" fill="#272727"/>
<path fill-rule="evenodd" clip-rule="evenodd" d="M8.26975 4.41966C7.88943 4.53748 7.7154 5.53487 7.75791 5.77595C7.80042 6.01703 7.92945 5.7457 7.92945 5.7457C7.92945 5.7457 8.1926 6.31764 8.21974 6.47151C8.24687 6.62539 8.38545 6.23891 8.38545 6.23891C8.38545 6.23891 8.8419 6.55336 8.90368 6.90375C8.96546 7.25413 9.05839 6.5028 9.05839 6.5028C9.05839 6.5028 9.16179 6.48456 9.16179 6.48456L9.09637 6.11356L9.29355 6.28217L9.23272 5.93715C9.23272 5.93715 9.38122 6.13122 9.34355 5.91761C9.30589 5.70399 9.28486 5.58473 9.28486 5.58473L9.23338 5.29276L9.42855 5.25835C9.42855 5.25835 8.65006 4.30183 8.26975 4.41966Z" fill="#3D58DB"/>
</g>
<path fill-rule="evenodd" clip-rule="evenodd" d="M16.305 8.55983C15.91 8.60983 15.5654 9.56184 15.5654 9.80664C15.5654 10.0514 15.7396 9.80664 15.7396 9.80664C15.7396 9.80664 15.8995 10.4156 15.8995 10.5718C15.8995 10.7281 16.103 10.3715 16.103 10.3715C16.103 10.3715 16.498 10.7605 16.498 11.1163C16.498 11.4721 16.7199 10.7483 16.7199 10.7483H16.8249C16.8249 10.7483 16.8249 10.3715 16.8249 10.3715L16.9898 10.5718V10.2215C16.9898 10.2215 17.1024 10.4384 17.1024 10.2215C17.1024 10.0046 17.1024 9.88349 17.1024 9.88349V9.58701H17.3006C17.3006 9.58701 16.7 8.50984 16.305 8.55983Z" fill="#3D58DB"/>
<path fill-rule="evenodd" clip-rule="evenodd" d="M3.49577 8.41567C3.89077 8.46567 4.23535 9.41768 4.23535 9.66248C4.23535 9.90728 4.06116 9.66248 4.06116 9.66248C4.06116 9.66248 3.90132 10.2714 3.90132 10.4277C3.90132 10.5839 3.69773 10.2274 3.69773 10.2274C3.69773 10.2274 3.30282 10.6163 3.30282 10.9721C3.30282 11.3279 3.08084 10.6041 3.08084 10.6041H2.97585C2.97585 10.6041 2.97585 10.2274 2.97585 10.2274L2.81094 10.4277V10.0773C2.81094 10.0773 2.69839 10.2942 2.69839 10.0773C2.69839 9.86042 2.69839 9.73932 2.69839 9.73932V9.44284H2.50021C2.50021 9.44284 3.10078 8.36567 3.49577 8.41567Z" fill="#3D58DB"/>
</g>
</svg>
