<svg width="20" height="15" viewBox="0 0 20 15" fill="none" xmlns="http://www.w3.org/2000/svg">
<g clip-path="url(#clip0_14_286)">
<path d="M20 15V0H0V15H20Z" fill="#002868"/>
<path d="M18.4375 5.4563V8.2688C18.4375 10.1438 17.5 12.1625 15.1562 13.2563C12.8125 12.1625 11.875 10.1438 11.875 8.2688V5.4563H18.4375Z" fill="#FCD116" stroke="black" stroke-width="0.4"/>
<path d="M18.4375 5.4563V8.2688C18.4375 10.1438 17.5 12.1625 15.1562 13.2563C12.8125 12.1625 11.875 10.1438 11.875 8.2688V5.4563H18.4375Z" stroke="white" stroke-width="0.35"/>
<path d="M13.9719 8.55314C13.8875 8.70001 13.7406 8.73126 13.6281 8.68439C13.5125 8.63751 13.4062 8.36251 13.2875 8.21564C13.175 8.06876 13.1437 8.13126 13.0687 8.04689C12.9594 7.94685 12.8322 7.86839 12.6937 7.81564C12.5906 7.76876 12.4844 7.72501 12.4125 7.54689C12.4442 7.47486 12.5023 7.41779 12.575 7.38751C12.6344 7.36564 12.6812 7.28126 12.6875 7.20626C12.6969 7.13751 12.7594 7.05939 12.8437 7.00001C12.8031 7.00626 12.7219 6.99064 12.6844 6.96564C12.65 6.93439 12.5906 6.94064 12.5562 6.96564C12.5187 6.99064 12.475 6.99689 12.4125 6.99064C12.4375 6.97189 12.4812 6.92814 12.4844 6.89064C12.4875 6.85314 12.5344 6.83126 12.625 6.83126C12.7125 6.83126 12.7687 6.73126 12.8406 6.73126C12.7906 6.73126 12.8 6.64376 12.8281 6.63751C12.7031 6.61564 12.7187 6.51251 12.7687 6.51251C12.7656 6.50001 12.75 6.48126 12.6906 6.46564C12.6375 6.44376 12.6625 6.39376 12.7062 6.36251C12.6687 6.28439 12.7031 6.22501 12.7656 6.17501C12.6781 6.17189 12.775 6.05001 12.7969 5.98439C12.8219 5.92189 12.8312 5.91251 12.8594 5.95314C12.8906 5.98751 12.9625 6.06876 13.0437 6.09376C13.1219 6.11564 13.1687 6.15939 13.1844 6.22501C13.2 6.29689 13.2312 6.33126 13.3156 6.36251C13.4062 6.39064 13.5281 6.46564 13.5125 6.63126C13.5715 6.63349 13.6284 6.65427 13.675 6.69064" fill="#FCAD56"/>
<path d="M13.9719 8.55314C13.8875 8.70001 13.7406 8.73126 13.6281 8.68439C13.5125 8.63751 13.4062 8.36251 13.2875 8.21564C13.175 8.06876 13.1437 8.13126 13.0687 8.04689C12.9594 7.94685 12.8322 7.86839 12.6937 7.81564C12.5906 7.76876 12.4844 7.72501 12.4125 7.54689C12.4442 7.47486 12.5023 7.41779 12.575 7.38751C12.6344 7.36564 12.6812 7.28126 12.6875 7.20626C12.6969 7.13751 12.7594 7.05939 12.8437 7.00001C12.8031 7.00626 12.7219 6.99064 12.6844 6.96564C12.65 6.93439 12.5906 6.94064 12.5562 6.96564C12.5187 6.99064 12.475 6.99689 12.4125 6.99064C12.4375 6.97189 12.4812 6.92814 12.4844 6.89064C12.4875 6.85314 12.5344 6.83126 12.625 6.83126C12.7125 6.83126 12.7687 6.73126 12.8406 6.73126C12.7906 6.73126 12.8 6.64376 12.8281 6.63751C12.7031 6.61564 12.7187 6.51251 12.7687 6.51251C12.7656 6.50001 12.75 6.48126 12.6906 6.46564C12.6375 6.44376 12.6625 6.39376 12.7062 6.36251C12.6687 6.28439 12.7031 6.22501 12.7656 6.17501C12.6781 6.17189 12.775 6.05001 12.7969 5.98439C12.8219 5.92189 12.8312 5.91251 12.8594 5.95314C12.8906 5.98751 12.9625 6.06876 13.0437 6.09376C13.1219 6.11564 13.1687 6.15939 13.1844 6.22501C13.2 6.29689 13.2312 6.33126 13.3156 6.36251C13.4062 6.39064 13.5281 6.46564 13.5125 6.63126C13.5715 6.63349 13.6284 6.65427 13.675 6.69064" stroke="black" stroke-width="0.015" stroke-linecap="round" stroke-linejoin="round"/>
<path d="M14.1875 6.4375C14.1872 6.47605 14.1957 6.51416 14.2125 6.54886C14.2293 6.58355 14.2539 6.61389 14.2844 6.6375C14.3438 6.68437 14.3938 6.72188 14.3813 6.78125C14.3719 6.84375 14.3938 6.88125 14.4438 6.92188C14.5 6.95938 14.5375 7.00625 14.525 7.08437C14.5125 7.1625 14.5188 7.20938 14.55 7.26875C14.5813 7.32813 14.6375 7.375 14.6125 7.46875C14.5875 7.5625 14.6 7.6875 14.6313 7.75C14.6625 7.80937 14.6313 7.85625 14.5782 7.95937C14.5219 8.0625 14.4907 8.1 14.3782 8.14062C14.2625 8.175 14.2532 8.24688 14.2532 8.36563C14.2532 8.49063 14.1719 8.55312 14.0188 8.53125C13.8625 8.65937 13.7657 8.50625 13.725 8.31563C13.6844 8.125 13.6813 7.91563 13.45 7.75C13.2219 7.57812 13.3125 7.2875 13.5032 7.17188C13.6938 7.05938 13.6719 6.72187 13.6469 6.51562C13.6282 6.30938 13.7657 6.19062 13.8719 6.07812C14.0125 6.13125 14.1875 6.34687 14.1875 6.4375Z" fill="#FFA1A1" stroke="black" stroke-width="0.015" stroke-linecap="round" stroke-linejoin="round"/>
<path d="M13.8562 7.76876C13.8125 7.66876 13.7656 7.56563 13.8781 7.34688C13.9969 7.12501 13.9219 6.95626 13.8875 6.84376C13.8531 6.73438 13.8437 6.63126 13.8875 6.58438C13.9344 6.54376 13.9531 6.51563 13.9562 6.44063C13.9594 6.37188 14.0187 6.39376 14.0281 6.42813C14.0375 6.46251 14.0437 6.52188 13.9812 6.62813C13.9187 6.73751 14.1562 7.00313 14.0469 7.28751C13.9719 7.48751 14.0719 7.74063 14.1094 7.91876C14.1469 8.09688 14.1719 8.51251 13.9125 8.57501C14.0906 8.49063 13.925 7.93438 13.8562 7.76876Z" fill="#F1B2DC" stroke="black" stroke-width="0.015" stroke-linecap="round" stroke-linejoin="round"/>
<path d="M12.6969 7.7376C12.7375 7.74697 12.7594 7.72197 12.7719 7.69385C12.7844 7.66572 12.7938 7.65322 12.8344 7.64697C12.8719 7.64697 12.9344 7.6376 12.95 7.60635C12.9625 7.5751 13.0094 7.6001 13.05 7.52197C13.0906 7.44072 13.1156 7.34697 13.2219 7.3126M13.5125 6.63135C13.4719 6.63135 13.3594 6.6376 13.3125 6.7376M12.9875 6.14697C13.0813 6.1751 13.0438 6.2376 13.0906 6.27197C13.175 6.34072 13.0969 6.40947 13.1688 6.42822C13.2406 6.44697 13.2344 6.45947 13.2188 6.5376C13.1938 6.62822 13.2813 6.63135 13.25 6.69072M12.8438 7.0001C12.9 6.9501 13.0344 6.90947 13.0656 6.85635M12.8406 6.73135C12.9219 6.7251 13.0313 6.75635 13.0469 6.7251M12.8281 6.64072C12.8688 6.64072 12.95 6.6126 12.9656 6.55947M12.7688 6.51572C12.8156 6.51572 12.875 6.5126 12.9344 6.46885M12.7063 6.3626C12.7406 6.33447 12.8031 6.36572 12.8625 6.32822M12.7656 6.1751C12.7938 6.1751 12.8531 6.16885 12.8531 6.20322" stroke="black" stroke-width="0.015" stroke-linecap="round" stroke-linejoin="round"/>
<path d="M16.5039 6.88989C16.5039 6.88989 16.2305 6.65942 16.0039 6.50317C15.7773 6.34692 15.5039 6.15552 15.5039 6.11646C15.5469 6.08521 15.7773 6.23364 16.0937 6.42505C16.4141 6.62036 16.5937 6.81177 16.5937 6.81177L16.5039 6.88989ZM16.4844 7.04614C16.4844 7.04614 16.2187 6.88599 15.957 6.77271C15.6836 6.65942 15.2734 6.65942 15.2305 6.62036C15.2305 6.5813 15.707 6.55786 16.0469 6.69458C16.3945 6.85474 16.5742 6.96802 16.5742 6.96802L16.4844 7.04614ZM16.4805 7.31177C16.4805 7.31177 16.1914 7.17896 15.9102 7.11646C15.6367 7.05396 15.2461 7.07739 15.1992 7.04224C15.1992 7.00317 15.6836 6.92505 16.0469 7.04224C16.4141 7.15552 16.5703 7.23364 16.5703 7.23364L16.4805 7.31177ZM16.4648 7.5813C16.4648 7.5813 16.2461 7.43286 15.957 7.40161C15.6836 7.37427 15.3203 7.5813 15.2734 7.54224C15.2734 7.50317 15.5898 7.27271 15.9844 7.31177C16.3711 7.35083 16.5547 7.50317 16.5547 7.50317L16.4648 7.5813ZM16.5547 6.72974C16.5547 6.72974 16.2773 6.47583 16.2773 6.30396C16.2773 6.15161 16.4453 5.91724 16.5195 5.91724C16.4805 5.99536 16.3516 6.15161 16.3516 6.30396C16.3516 6.46021 16.6445 6.65161 16.6445 6.65161L16.5547 6.72974Z" fill="#9E540A" stroke="black" stroke-width="0.01375" stroke-linecap="round" stroke-linejoin="round"/>
<path d="M16.5546 6.72974C16.5546 6.72974 16.6093 6.47583 16.6093 6.30396C16.6093 6.07349 16.4453 5.86255 16.4609 5.80396C16.5195 5.86255 16.6835 6.03442 16.6835 6.30396C16.6835 6.53833 16.6445 6.65161 16.6445 6.65161L16.5546 6.72974Z" fill="#9E540A" stroke="black" stroke-width="0.01375" stroke-linecap="round" stroke-linejoin="round"/>
<path d="M16.6211 6.64771C16.6211 6.57349 16.5938 6.50708 16.5469 6.4563C16.4844 6.38208 16.3906 6.35864 16.293 6.37427C16.1758 6.3938 16.082 6.46411 16.0234 6.57349C15.9453 6.71802 15.9375 6.87427 15.9336 7.02661C15.9336 7.55396 15.9531 7.7688 15.9688 8.28833C15.9727 8.44067 16 8.75317 15.9297 8.99927C15.9023 9.10474 15.8711 9.20239 15.8242 9.30396C15.8555 9.17505 15.8711 9.10864 15.8867 9.01099C15.9297 8.75708 15.918 8.5188 15.9102 8.28442C15.8945 7.80396 15.8672 7.55786 15.8516 6.97583C15.8477 6.80005 15.8633 6.66724 15.9453 6.52661C16.0312 6.38208 16.1797 6.27661 16.3477 6.27661C16.418 6.27661 16.4766 6.28833 16.5352 6.32349C16.6523 6.38599 16.707 6.51489 16.707 6.6438L16.6211 6.64771Z" fill="#9E540A" stroke="#FCD116" stroke-width="0.075" stroke-linecap="round" stroke-linejoin="round"/>
<path d="M16.6211 6.64771C16.6211 6.57349 16.5938 6.50708 16.5469 6.4563C16.4844 6.38208 16.3906 6.35864 16.293 6.37427C16.1758 6.3938 16.082 6.46411 16.0234 6.57349C15.9453 6.71802 15.9375 6.87427 15.9336 7.02661C15.9336 7.55396 15.9531 7.7688 15.9688 8.28833C15.9727 8.44067 16 8.75317 15.9297 8.99927C15.9023 9.10474 15.8711 9.20239 15.8242 9.30396C15.8555 9.17505 15.8711 9.10864 15.8867 9.01099C15.9297 8.75708 15.918 8.5188 15.9102 8.28442C15.8945 7.80396 15.8672 7.55786 15.8516 6.97583C15.8477 6.80005 15.8633 6.66724 15.9453 6.52661C16.0312 6.38208 16.1797 6.27661 16.3477 6.27661C16.418 6.27661 16.4766 6.28833 16.5352 6.32349C16.6523 6.38599 16.707 6.51489 16.707 6.6438L16.6211 6.64771Z" fill="#9E540A"/>
<path d="M16.6445 8.53052C16.6445 8.53052 16.5352 8.72583 16.4531 8.86646C16.3711 9.00708 16.3047 9.03833 16.2422 8.99536C16.1836 8.95239 16.2344 8.83911 16.2812 8.78442C16.3281 8.72974 16.5898 8.47583 16.5898 8.47583L16.6445 8.53052Z" fill="#9E540A" stroke="black" stroke-width="0.01375" stroke-linecap="round" stroke-linejoin="round"/>
<path d="M16.6719 8.54614C16.6719 8.54614 16.6289 8.7688 16.5938 8.92896C16.5625 9.08911 16.5078 9.1438 16.4414 9.12427C16.3711 9.10864 16.3828 8.97974 16.4102 8.91333C16.4375 8.84692 16.6016 8.51099 16.6016 8.51099L16.6719 8.54614Z" fill="#9E540A" stroke="black" stroke-width="0.01375" stroke-linecap="round" stroke-linejoin="round"/>
<path d="M16.7188 8.55396V8.94458C16.7188 9.10864 16.6797 9.17505 16.6055 9.17114C16.5352 9.16724 16.5196 9.04224 16.5352 8.96802C16.5469 8.89771 16.6446 8.53442 16.6446 8.53442L16.7188 8.55396Z" fill="#9E540A" stroke="black" stroke-width="0.01375" stroke-linecap="round" stroke-linejoin="round"/>
<path d="M16.9336 6.88989C16.9336 6.88989 17.207 6.65942 17.4336 6.50317C17.6602 6.34692 17.9336 6.15552 17.9336 6.11646C17.8906 6.08521 17.6602 6.23364 17.3438 6.42505C17.0234 6.62036 16.8438 6.81177 16.8438 6.81177L16.9336 6.88989ZM16.9531 7.04614C16.9531 7.04614 17.2188 6.88599 17.4805 6.77271C17.7539 6.65942 18.1641 6.65942 18.207 6.62036C18.207 6.5813 17.7305 6.55786 17.3906 6.69458C17.043 6.85474 16.8633 6.96802 16.8633 6.96802L16.9531 7.04614ZM16.957 7.31177C16.957 7.31177 17.2461 7.17896 17.5273 7.11646C17.8008 7.05396 18.1914 7.07739 18.2383 7.04224C18.2383 7.00317 17.7539 6.92505 17.3906 7.04224C17.0234 7.15552 16.8672 7.23364 16.8672 7.23364L16.957 7.31177ZM16.9727 7.5813C16.9727 7.5813 17.1914 7.43286 17.4805 7.40161C17.7539 7.37427 18.1172 7.5813 18.1641 7.54224C18.1641 7.50317 17.8477 7.27271 17.4531 7.31177C17.0664 7.35083 16.8828 7.50317 16.8828 7.50317L16.9727 7.5813ZM16.8828 6.72974C16.8828 6.72974 17.1602 6.47583 17.1602 6.30396C17.1602 6.15161 16.9922 5.91724 16.918 5.91724C16.957 5.99536 17.0859 6.15161 17.0859 6.30396C17.0859 6.46021 16.793 6.65161 16.793 6.65161L16.8828 6.72974Z" fill="#9E540A" stroke="black" stroke-width="0.01375" stroke-linecap="round" stroke-linejoin="round"/>
<path d="M16.8829 6.72974C16.8829 6.72974 16.8282 6.47583 16.8282 6.30396C16.8282 6.07349 16.9922 5.86255 16.9766 5.80396C16.918 5.86255 16.754 6.03442 16.754 6.30396C16.754 6.53833 16.793 6.65161 16.793 6.65161L16.8829 6.72974Z" fill="#9E540A" stroke="black" stroke-width="0.01375" stroke-linecap="round" stroke-linejoin="round"/>
<path d="M16.8164 6.64771C16.8164 6.57349 16.8438 6.50708 16.8906 6.4563C16.9531 6.38208 17.0469 6.35864 17.1445 6.37427C17.2617 6.3938 17.3555 6.46411 17.4141 6.57349C17.4922 6.71802 17.5 6.87427 17.5039 7.02661C17.5039 7.55396 17.4844 7.7688 17.4688 8.28833C17.4648 8.44067 17.4375 8.75317 17.5078 8.99927C17.5352 9.10474 17.5664 9.20239 17.6133 9.30396C17.582 9.17505 17.5664 9.10864 17.5508 9.01099C17.5078 8.75708 17.5195 8.5188 17.5273 8.28442C17.543 7.80396 17.5703 7.55786 17.5859 6.97583C17.5898 6.80005 17.5742 6.66724 17.4922 6.52661C17.4062 6.38208 17.2578 6.27661 17.0898 6.27661C17.0195 6.27661 16.9609 6.28833 16.9023 6.32349C16.7852 6.38599 16.7305 6.51489 16.7305 6.6438L16.8164 6.64771Z" fill="#9E540A" stroke="#FCD116" stroke-width="0.075" stroke-linecap="round" stroke-linejoin="round"/>
<path d="M16.8164 6.64771C16.8164 6.57349 16.8438 6.50708 16.8906 6.4563C16.9531 6.38208 17.0469 6.35864 17.1445 6.37427C17.2617 6.3938 17.3555 6.46411 17.4141 6.57349C17.4922 6.71802 17.5 6.87427 17.5039 7.02661C17.5039 7.55396 17.4844 7.7688 17.4688 8.28833C17.4648 8.44067 17.4375 8.75317 17.5078 8.99927C17.5352 9.10474 17.5664 9.20239 17.6133 9.30396C17.582 9.17505 17.5664 9.10864 17.5508 9.01099C17.5078 8.75708 17.5195 8.5188 17.5273 8.28442C17.543 7.80396 17.5703 7.55786 17.5859 6.97583C17.5898 6.80005 17.5742 6.66724 17.4922 6.52661C17.4062 6.38208 17.2578 6.27661 17.0898 6.27661C17.0195 6.27661 16.9609 6.28833 16.9023 6.32349C16.7852 6.38599 16.7305 6.51489 16.7305 6.6438L16.8164 6.64771Z" fill="#9E540A"/>
<path d="M16.793 8.53052C16.793 8.53052 16.9023 8.72583 16.9844 8.86646C17.0664 9.00708 17.1328 9.03833 17.1953 8.99536C17.2539 8.95239 17.2031 8.83911 17.1563 8.78442C17.1094 8.72974 16.8477 8.47583 16.8477 8.47583L16.793 8.53052Z" fill="#9E540A" stroke="black" stroke-width="0.01375" stroke-linecap="round" stroke-linejoin="round"/>
<path d="M16.7656 8.54614C16.7656 8.54614 16.8086 8.7688 16.8437 8.92896C16.875 9.08911 16.9297 9.1438 16.9961 9.12427C17.0664 9.10864 17.0547 8.97974 17.0273 8.91333C17 8.84692 16.8359 8.51099 16.8359 8.51099L16.7656 8.54614Z" fill="#9E540A" stroke="black" stroke-width="0.01375" stroke-linecap="round" stroke-linejoin="round"/>
<path d="M16.7187 8.55396V8.94458C16.7187 9.10864 16.7578 9.17505 16.832 9.17114C16.9023 9.16724 16.9179 9.04224 16.9023 8.96802C16.8906 8.89771 16.7929 8.53442 16.7929 8.53442L16.7187 8.55396Z" fill="#9E540A" stroke="black" stroke-width="0.01375" stroke-linecap="round" stroke-linejoin="round"/>
<path d="M16.7187 8.55005C16.5117 8.54614 16.4922 8.47192 16.4922 8.47192C16.4922 8.47192 16.4648 8.37817 16.4609 8.31958C16.457 8.31177 16.4023 8.19458 16.418 8.1438C16.3984 8.09692 16.3516 7.98364 16.3945 7.96411C16.375 7.90942 16.3437 7.84692 16.3398 7.78833C16.3242 7.74536 16.2852 7.65161 16.3164 7.62036C16.3164 7.62036 16.2422 7.46411 16.2773 7.42505C16.2773 7.42505 16.2422 7.27271 16.2773 7.23364C16.2773 7.23364 16.2773 7.07739 16.3164 7.03833C16.3164 7.03833 16.3164 6.88599 16.3516 6.84692C16.3516 6.85474 16.4609 6.63208 16.7187 6.63208L16.7148 6.96411H16.7187V8.55005Z" fill="#9E540A" stroke="black" stroke-width="0.01375" stroke-linecap="round" stroke-linejoin="round"/>
<path d="M16.7188 7.69849C16.3867 7.69458 16.3164 7.62036 16.3164 7.62036M16.7188 7.50317C16.3867 7.50317 16.2773 7.42505 16.2773 7.42505M16.7188 7.31177C16.3867 7.30786 16.2773 7.23364 16.2773 7.23364M16.7188 7.11646C16.3867 7.11255 16.3164 7.03833 16.3164 7.03833M16.7148 6.96411C16.7188 6.96411 16.4648 6.96411 16.4258 6.92505L16.3516 6.85083M16.7188 8.3938C16.6211 8.3938 16.5117 8.37817 16.4609 8.31958M16.7188 8.23755C16.5352 8.23755 16.4258 8.16333 16.4258 8.16333C16.4258 8.16333 16.4219 8.15552 16.418 8.1438M16.7188 8.04614C16.4766 8.04224 16.4102 7.99146 16.3945 7.96411M16.7188 7.88989C16.3867 7.88989 16.3516 7.81177 16.3516 7.81177L16.3398 7.78833" stroke="black" stroke-width="0.01375" stroke-linecap="round" stroke-linejoin="round"/>
<path d="M16.7188 8.55005C16.9258 8.54614 16.9453 8.47192 16.9453 8.47192C16.9453 8.47192 16.9727 8.37817 16.9766 8.31958C16.9805 8.31177 17.0352 8.19458 17.0195 8.1438C17.0391 8.09692 17.0859 7.98364 17.043 7.96411C17.0625 7.90942 17.0938 7.84692 17.0977 7.78833C17.1133 7.74536 17.1523 7.65161 17.1211 7.62036C17.1211 7.62036 17.1953 7.46411 17.1602 7.42505C17.1602 7.42505 17.1953 7.27271 17.1602 7.23364C17.1602 7.23364 17.1602 7.07739 17.1211 7.03833C17.1211 7.03833 17.1211 6.88599 17.0859 6.84692C17.0859 6.85474 16.9766 6.63208 16.7188 6.63208L16.7227 6.96411H16.7188V8.55005Z" fill="#9E540A" stroke="black" stroke-width="0.01375" stroke-linecap="round" stroke-linejoin="round"/>
<path d="M16.7188 7.69849C17.0508 7.69458 17.1211 7.62036 17.1211 7.62036M16.7188 7.50317C17.0508 7.50317 17.1602 7.42505 17.1602 7.42505M16.7188 7.31177C17.0508 7.30786 17.1602 7.23364 17.1602 7.23364M16.7188 7.11646C17.0508 7.11255 17.1211 7.03833 17.1211 7.03833M16.7227 6.96411C16.7188 6.96411 16.9727 6.96411 17.0117 6.92505L17.0859 6.85083M16.7188 8.3938C16.8164 8.3938 16.9258 8.37817 16.9766 8.31958M16.7188 8.23755C16.9023 8.23755 17.0117 8.16333 17.0117 8.16333C17.0117 8.16333 17.0156 8.15552 17.0195 8.1438M16.7188 8.04614C16.9609 8.04224 17.0273 7.99146 17.043 7.96411M16.7188 7.88989C17.0508 7.88989 17.0859 7.81177 17.0859 7.81177L17.0977 7.78833" stroke="black" stroke-width="0.01375" stroke-linecap="round" stroke-linejoin="round"/>
<path d="M15.1562 12.1438C14.9883 12.3 14.6641 12.1985 14.5625 12.1282C14.457 12.1633 14.1758 12.054 14.1016 11.9329C13.8984 11.9602 13.8281 11.6711 13.8633 11.5969C13.918 11.4875 13.8203 11.4172 13.8906 11.343C13.9883 11.2493 13.8359 11.1594 13.9297 11.0969C14.0234 11.0305 13.9062 10.9211 14 10.8508C14.0977 10.7766 13.9492 10.675 14.0508 10.6243C14.1523 10.5735 14.0391 10.4407 14.125 10.3899C14.2109 10.3391 14.0742 10.2102 14.1914 10.1516C14.3047 10.093 14.2031 9.99146 14.293 9.94849C14.3906 9.89771 14.3008 9.79224 14.3906 9.75708C14.4922 9.71411 14.418 9.60083 14.5039 9.56958C14.5781 9.54224 14.5312 9.47192 14.5781 9.40942H15.1562" fill="#009E49"/>
<path d="M15.1562 12.1438C14.9883 12.3 14.6641 12.1985 14.5625 12.1282C14.457 12.1633 14.1758 12.054 14.1016 11.9329C13.8984 11.9602 13.8281 11.6711 13.8633 11.5969C13.918 11.4875 13.8203 11.4172 13.8906 11.343C13.9883 11.2493 13.8359 11.1594 13.9297 11.0969C14.0234 11.0305 13.9062 10.9211 14 10.8508C14.0977 10.7766 13.9492 10.675 14.0508 10.6243C14.1523 10.5735 14.0391 10.4407 14.125 10.3899C14.2109 10.3391 14.0742 10.2102 14.1914 10.1516C14.3047 10.093 14.2031 9.99146 14.293 9.94849C14.3906 9.89771 14.3008 9.79224 14.3906 9.75708C14.4922 9.71411 14.418 9.60083 14.5039 9.56958C14.5781 9.54224 14.5312 9.47192 14.5781 9.40942H15.1562" stroke="black" stroke-width="0.01375" stroke-linecap="round" stroke-linejoin="round"/>
<path d="M14.7695 9.43286C14.6914 9.51099 14.7851 9.56958 14.707 9.66333C14.625 9.76099 14.6992 9.81177 14.6328 9.89771C14.5664 9.98364 14.664 10.0266 14.5898 10.1243C14.5156 10.218 14.6054 10.2766 14.5234 10.3547C14.4453 10.4368 14.539 10.5071 14.457 10.593C14.3789 10.6829 14.4726 10.7415 14.3945 10.8196C14.3125 10.9016 14.4062 10.9875 14.3281 11.0657C14.25 11.1477 14.3437 11.2493 14.2539 11.343C14.1679 11.4368 14.2695 11.511 14.1992 11.5813C14.125 11.6555 14.1914 11.7297 14.1406 11.7805C14.0898 11.8313 14.082 11.9016 14.1015 11.9329M14.9218 9.46021C14.8515 9.55786 14.9609 9.60083 14.8945 9.67896C14.8281 9.76099 14.9218 9.78833 14.871 9.88208C14.8203 9.97583 14.9101 9.99927 14.8437 10.093C14.7773 10.1868 14.8789 10.261 14.8085 10.3547C14.7343 10.4485 14.8437 10.4993 14.7773 10.593C14.7148 10.6907 14.8085 10.7415 14.75 10.8118C14.6914 10.886 14.7929 10.9563 14.7187 11.0461C14.6484 11.1321 14.75 11.1985 14.6914 11.2766C14.6328 11.3586 14.7148 11.4446 14.664 11.511C14.6132 11.5735 14.6992 11.6711 14.625 11.7571C14.5546 11.843 14.6406 11.9016 14.5976 11.9602C14.5546 12.0188 14.5195 12.1047 14.5625 12.1282" stroke="black" stroke-width="0.01375" stroke-linecap="round" stroke-linejoin="round"/>
<path d="M15.1563 12.1438C15.3242 12.3 15.6484 12.1985 15.75 12.1282C15.8555 12.1633 16.1367 12.054 16.2109 11.9329C16.4141 11.9602 16.4844 11.6711 16.4492 11.5969C16.3945 11.4875 16.4922 11.4172 16.4219 11.343C16.3242 11.2493 16.4766 11.1594 16.3828 11.0969C16.2891 11.0305 16.4063 10.9211 16.3125 10.8508C16.2148 10.7766 16.3633 10.675 16.2617 10.6243C16.1602 10.5735 16.2734 10.4407 16.1875 10.3899C16.1016 10.3391 16.2383 10.2102 16.1211 10.1516C16.0078 10.093 16.1094 9.99146 16.0195 9.94849C15.9219 9.89771 16.0117 9.79224 15.9219 9.75708C15.8203 9.71411 15.8945 9.60083 15.8086 9.56958C15.7344 9.54224 15.7813 9.47192 15.7344 9.40942H15.1563" fill="#009E49"/>
<path d="M15.1563 12.1438C15.3242 12.3 15.6484 12.1985 15.75 12.1282C15.8555 12.1633 16.1367 12.054 16.2109 11.9329C16.4141 11.9602 16.4844 11.6711 16.4492 11.5969C16.3945 11.4875 16.4922 11.4172 16.4219 11.343C16.3242 11.2493 16.4766 11.1594 16.3828 11.0969C16.2891 11.0305 16.4063 10.9211 16.3125 10.8508C16.2148 10.7766 16.3633 10.675 16.2617 10.6243C16.1602 10.5735 16.2734 10.4407 16.1875 10.3899C16.1016 10.3391 16.2383 10.2102 16.1211 10.1516C16.0078 10.093 16.1094 9.99146 16.0195 9.94849C15.9219 9.89771 16.0117 9.79224 15.9219 9.75708C15.8203 9.71411 15.8945 9.60083 15.8086 9.56958C15.7344 9.54224 15.7813 9.47192 15.7344 9.40942H15.1563" stroke="black" stroke-width="0.01375" stroke-linecap="round" stroke-linejoin="round"/>
<path d="M15.543 9.43286C15.6211 9.51099 15.5274 9.56958 15.6055 9.66333C15.6875 9.76099 15.6133 9.81177 15.6797 9.89771C15.7461 9.98364 15.6485 10.0266 15.7227 10.1243C15.7969 10.218 15.7071 10.2766 15.7891 10.3547C15.8672 10.4368 15.7735 10.5071 15.8555 10.593C15.9336 10.6829 15.8399 10.7415 15.918 10.8196C16 10.9016 15.9063 10.9875 15.9844 11.0657C16.0625 11.1477 15.9688 11.2493 16.0586 11.343C16.1446 11.4368 16.043 11.511 16.1133 11.5813C16.1875 11.6555 16.1211 11.7297 16.1719 11.7805C16.2227 11.8313 16.2305 11.9016 16.211 11.9329M15.3907 9.46021C15.461 9.55786 15.3516 9.60083 15.418 9.67896C15.4844 9.76099 15.3907 9.78833 15.4415 9.88208C15.4922 9.97583 15.4024 9.99927 15.4688 10.093C15.5352 10.1868 15.4336 10.261 15.504 10.3547C15.5782 10.4485 15.4688 10.4993 15.5352 10.593C15.5977 10.6907 15.504 10.7415 15.5625 10.8118C15.6211 10.886 15.5196 10.9563 15.5938 11.0461C15.6641 11.1321 15.5625 11.1985 15.6211 11.2766C15.6797 11.3586 15.5977 11.4446 15.6485 11.511C15.6993 11.5735 15.6133 11.6711 15.6875 11.7571C15.7579 11.843 15.6719 11.9016 15.7149 11.9602C15.7579 12.0188 15.793 12.1047 15.75 12.1282" stroke="black" stroke-width="0.01375" stroke-linecap="round" stroke-linejoin="round"/>
<path d="M15.1562 12.1438V9.40942" stroke="#009E49" stroke-width="0.01375" stroke-linecap="round" stroke-linejoin="round"/>
<path d="M15.1562 9.55005C15.1211 9.70239 15.207 9.83521 15.1562 9.96411C15.1055 10.0891 15.1914 10.1399 15.164 10.2415C15.1328 10.343 15.1992 10.4172 15.1562 10.5266C15.1133 10.636 15.2148 10.7219 15.1562 10.8665C15.0976 11.0071 15.1953 11.0422 15.1562 11.1868C15.1133 11.3508 15.2305 11.4368 15.1562 11.554C15.082 11.6711 15.2226 11.6985 15.164 11.8313C15.1055 11.9602 15.1992 12.011 15.1562 12.1438" stroke="black" stroke-width="0.01375" stroke-linecap="round" stroke-linejoin="round"/>
<path d="M15.2148 10.0423C15.1953 10.0853 15.2734 10.1868 15.2305 10.2649C15.1836 10.3392 15.2539 10.4563 15.207 10.5501C15.1602 10.6438 15.2812 10.761 15.2344 10.8704C15.1836 10.9798 15.2578 11.1165 15.2344 11.2181C15.2148 11.3196 15.2852 11.5149 15.2344 11.5853C15.1836 11.6595 15.2852 11.679 15.2266 11.8587C15.168 12.0384 15.1289 11.886 15.1641 11.8313C15.2383 11.7103 15.082 11.6712 15.1562 11.554C15.2305 11.4368 15.1133 11.3509 15.1562 11.1868C15.1953 11.0423 15.0977 11.0071 15.1562 10.8665C15.2148 10.722 15.1133 10.636 15.1562 10.5267C15.1992 10.4173 15.1328 10.3431 15.1641 10.2415C15.1914 10.1399 15.1055 10.0892 15.1562 9.96416C15.1953 9.83916 15.2344 9.99932 15.2148 10.0423ZM14.8867 10.1673C14.8594 10.2142 14.9336 10.304 14.8672 10.3938C14.8203 10.4563 14.8984 10.5306 14.832 10.6204C14.7891 10.6829 14.875 10.761 14.8164 10.8509C14.7773 10.9017 14.8438 10.9993 14.7969 11.0735C14.75 11.1517 14.8203 11.2142 14.7383 11.3157C14.6914 11.3704 14.7734 11.5071 14.7227 11.5501C14.6719 11.5931 14.7188 11.761 14.6836 11.7845C14.6523 11.8118 14.6836 11.9329 14.5977 11.9603C14.6406 11.9017 14.5547 11.8431 14.625 11.7571C14.6992 11.6712 14.6133 11.5735 14.6641 11.511C14.7148 11.4446 14.6328 11.3587 14.6914 11.2767C14.75 11.1985 14.6484 11.1321 14.7188 11.0462C14.793 10.9563 14.6914 10.886 14.75 10.8118C14.8086 10.7415 14.7148 10.6907 14.7773 10.5931C14.8438 10.4993 14.7344 10.4485 14.8086 10.3548C14.8789 10.261 14.7773 10.1868 14.8438 10.0931C14.9102 9.99932 14.8203 9.97588 14.8711 9.88213C14.9648 9.91729 14.918 10.1204 14.8867 10.1673ZM14.6914 9.91338C14.6523 9.97588 14.707 10.0501 14.6484 10.1282C14.5898 10.2103 14.6484 10.3118 14.5898 10.3782C14.5312 10.4407 14.6055 10.5657 14.5312 10.6165C14.457 10.6673 14.5039 10.8196 14.4453 10.8704C14.3867 10.9212 14.4453 11.0657 14.3789 11.1399C14.3125 11.2142 14.3438 11.3665 14.3047 11.4017C14.2695 11.4368 14.3555 11.511 14.293 11.5618C14.2266 11.6126 14.2266 11.7142 14.1406 11.7806C14.1914 11.7298 14.125 11.6556 14.1992 11.5813C14.2695 11.511 14.168 11.4368 14.2539 11.3431C14.3438 11.2493 14.25 11.1478 14.3281 11.0657C14.4062 10.9876 14.3125 10.9017 14.3945 10.8196C14.4727 10.7415 14.3789 10.6829 14.457 10.5931C14.5391 10.5071 14.4453 10.4368 14.5234 10.3548C14.6055 10.2767 14.5156 10.2181 14.5898 10.1243C14.6641 10.0267 14.5664 9.98369 14.6328 9.89776C14.6641 9.85869 14.6641 9.82354 14.6641 9.79229C14.7109 9.67119 14.7109 9.88213 14.6914 9.91338Z" fill="#FCD116" stroke="black" stroke-width="0.01375" stroke-linecap="round" stroke-linejoin="round"/>
<path d="M14.6133 9.49927C14.6133 8.67896 14.7266 8.3938 15.1562 8.3938C15.5859 8.3938 15.6992 8.67896 15.6992 9.49927H14.6133Z" fill="#CE1126" stroke="black" stroke-width="0.01375" stroke-linecap="round" stroke-linejoin="round"/>
<path d="M14.6133 9.49927C14.6133 8.67896 14.7266 8.3938 15.1562 8.3938C14.9609 8.3938 14.8398 8.54614 14.8086 8.64771C14.7734 8.74927 14.793 8.74146 14.8359 8.70239C14.8789 8.66333 14.8594 8.74927 14.8203 8.79614C14.7852 8.84302 14.75 8.97974 14.8008 8.93677C14.8516 8.88989 14.8906 8.94067 14.8359 9.0188C14.7812 9.09302 14.7344 9.27271 14.7891 9.21021C14.8438 9.14771 14.8555 9.24927 14.8203 9.30005C14.7891 9.35083 14.793 9.39771 14.8203 9.37427C14.8516 9.35083 14.8477 9.4563 14.8203 9.49927H14.6133ZM15.3594 9.48364C15.3594 9.36255 15.3633 9.07739 15.2969 8.98364C15.25 8.90942 15.25 8.8313 15.3047 8.91724C15.3594 9.00317 15.3867 8.96021 15.3477 8.87427C15.3008 8.76489 15.2383 8.6438 15.2539 8.62036C15.2734 8.59302 15.2852 8.60474 15.3242 8.66333C15.3633 8.72192 15.3711 8.63599 15.3281 8.57739C15.2852 8.52271 15.2891 8.51099 15.3789 8.55005C15.5391 8.61646 15.6172 8.80786 15.6172 9.45239L15.3594 9.48364Z" fill="black" stroke="black" stroke-width="0.01375" stroke-linecap="round" stroke-linejoin="round"/>
<path d="M15.1562 9.61646C14.9843 9.61646 14.7968 9.58912 14.6718 9.53833C14.5234 9.47974 14.5156 9.42896 14.5664 9.36646C14.6054 9.31958 14.6835 9.34693 14.7617 9.38208C14.8359 9.41333 15.0468 9.43677 15.1562 9.43677C15.2656 9.43677 15.4765 9.41333 15.5507 9.37818C15.6289 9.34693 15.707 9.31958 15.746 9.36646C15.7968 9.42896 15.789 9.47974 15.6406 9.53833C15.5156 9.58912 15.3281 9.61646 15.1562 9.61646Z" fill="#CE1126" stroke="black" stroke-width="0.01375" stroke-linecap="round" stroke-linejoin="round"/>
<path d="M0 0H10V7.5H0V0Z" fill="#012169"/>
<path d="M1.17188 0L4.98438 2.82812L8.78125 0H10V0.96875L6.25 3.76562L10 6.54688V7.5H8.75L5 4.70312L1.26562 7.5H0V6.5625L3.73438 3.78125L0 1V0H1.17188Z" fill="white"/>
<path d="M6.625 4.39062L10 6.875V7.5L5.76562 4.39062H6.625ZM3.75 4.70312L3.84375 5.25L0.84375 7.5H0L3.75 4.70312ZM10 0V0.046875L6.10938 2.98438L6.14062 2.29688L9.21875 0H10ZM0 0L3.73438 2.75H2.79688L0 0.65625V0Z" fill="#C8102E"/>
<path d="M3.76562 0V7.5H6.26562V0H3.76562ZM0 2.5V5H10V2.5H0Z" fill="white"/>
<path d="M0 3.01562V4.51562H10V3.01562H0ZM4.26562 0V7.5H5.76562V0H4.26562Z" fill="#C8102E"/>
</g>
<defs>
<clipPath id="clip0_14_286">
<rect width="20" height="15" fill="white"/>
</clipPath>
</defs>
</svg>
