<svg width="20" height="15" viewBox="0 0 20 15" fill="none" xmlns="http://www.w3.org/2000/svg">
<mask id="mask0_1825_45067" style="mask-type:luminance" maskUnits="userSpaceOnUse" x="0" y="0" width="20" height="15">
<rect width="20" height="15" fill="white"/>
</mask>
<g mask="url(#mask0_1825_45067)">
<path fill-rule="evenodd" clip-rule="evenodd" d="M0 0V15H20V0H0Z" fill="#2E42A5"/>
<mask id="mask1_1825_45067" style="mask-type:luminance" maskUnits="userSpaceOnUse" x="0" y="0" width="20" height="15">
<path fill-rule="evenodd" clip-rule="evenodd" d="M0 0V15H20V0H0Z" fill="white"/>
</mask>
<g mask="url(#mask1_1825_45067)">
<rect width="11" height="9" fill="#2E42A5"/>
<mask id="mask2_1825_45067" style="mask-type:luminance" maskUnits="userSpaceOnUse" x="0" y="0" width="11" height="9">
<rect width="11" height="9" fill="white"/>
</mask>
<g mask="url(#mask2_1825_45067)">
<path d="M-1.25293 8.12482L1.22266 9.21057L11.3059 1.1804L12.6117 -0.43306L9.96444 -0.795949L5.85172 2.66448L2.54141 4.996L-1.25293 8.12482Z" fill="#F7FCFF"/>
<path d="M-0.914062 8.88555L0.347138 9.51562L12.1428 -0.582947H10.3719L-0.914062 8.88555Z" fill="#F50100"/>
<path d="M12.5024 8.12493L10.3054 9.52063L-0.0564003 1.1805L-1.36222 -0.432954L1.28507 -0.795844L5.39779 2.66459L8.7081 4.99611L12.5024 8.12493Z" fill="#F7FCFF"/>
<path d="M12.418 8.67082L11.1568 9.3009L6.13406 4.97718L4.64494 4.4941L-1.48787 -0.427482H0.283002L6.41237 4.37728L8.04046 4.95655L12.418 8.67082Z" fill="#F50100"/>
<mask id="path-10-outside-1_1825_45067" maskUnits="userSpaceOnUse" x="-1" y="-1" width="13" height="11" fill="black">
<rect fill="white" x="-1" y="-1" width="13" height="11"/>
<path fill-rule="evenodd" clip-rule="evenodd" d="M6 0H5V4H0V5H5V9H6V5H11V4H6V0Z"/>
</mask>
<path fill-rule="evenodd" clip-rule="evenodd" d="M6 0H5V4H0V5H5V9H6V5H11V4H6V0Z" fill="#F50100"/>
<path d="M5 0V-0.9375H4.0625V0H5ZM6 0H6.9375V-0.9375H6V0ZM5 4V4.9375H5.9375V4H5ZM0 4V3.0625H-0.9375V4H0ZM0 5H-0.9375V5.9375H0V5ZM5 5H5.9375V4.0625H5V5ZM5 9H4.0625V9.9375H5V9ZM6 9V9.9375H6.9375V9H6ZM6 5V4.0625H5.0625V5H6ZM11 5V5.9375H11.9375V5H11ZM11 4H11.9375V3.0625H11V4ZM6 4H5.0625V4.9375H6V4ZM5 0.9375H6V-0.9375H5V0.9375ZM5.9375 4V0H4.0625V4H5.9375ZM0 4.9375H5V3.0625H0V4.9375ZM0.9375 5V4H-0.9375V5H0.9375ZM5 4.0625H0V5.9375H5V4.0625ZM5.9375 9V5H4.0625V9H5.9375ZM6 8.0625H5V9.9375H6V8.0625ZM5.0625 5V9H6.9375V5H5.0625ZM11 4.0625H6V5.9375H11V4.0625ZM10.0625 4V5H11.9375V4H10.0625ZM6 4.9375H11V3.0625H6V4.9375ZM5.0625 0V4H6.9375V0H5.0625Z" fill="#F7FCFF" mask="url(#path-10-outside-1_1825_45067)"/>
</g>
<path fill-rule="evenodd" clip-rule="evenodd" d="M13.1543 6.27039C13.1543 6.27039 13.7081 13.7274 16.2055 13.7274C18.703 13.7274 19.3172 6.27039 19.3172 6.27039H13.1543Z" fill="#FECA00" stroke="#F7FCFF" stroke-width="0.5"/>
<path fill-rule="evenodd" clip-rule="evenodd" d="M16.1947 6.63864L16.2862 6.53535L16.7199 6.81164C16.7827 6.71397 16.8946 6.66854 17.0512 6.67603L16.893 6.43514L17.0218 6.36651L17.3221 6.72797L17.3518 6.73729L17.2757 6.26759L17.4266 6.25L17.5252 6.85866C17.5276 6.85854 17.53 6.85847 17.5324 6.85847C17.5749 6.85847 17.6228 6.87898 17.672 6.91155L17.7792 6.25L17.9301 6.26759L17.854 6.73729L17.8837 6.72797L18.1839 6.36651L18.3128 6.43514L18.1546 6.67603C18.3112 6.66854 18.4231 6.71397 18.4859 6.81164L18.9196 6.53535L19.0111 6.63864L18.5353 6.94178C18.5418 6.97605 18.545 7.0136 18.545 7.05443V7.12474L19.2018 6.9808L19.2502 7.10295L18.545 7.3528V7.4381L19.2136 7.38396L19.2337 7.51193L18.545 7.61215V7.75953L19.2354 7.87359L19.2076 8.00061L18.545 7.90157V9.3379H18.4435V7.88638L17.999 7.81994C17.9492 8.17139 17.8931 8.61386 17.9009 8.77384C17.9087 8.9319 18.0267 8.99963 18.1096 9.04718C18.174 9.08417 18.2172 9.10895 18.1706 9.15452C18.0642 9.25869 17.7984 9.35847 17.5324 9.35847C17.2664 9.35847 17.0041 9.25869 16.9472 9.15452C16.9371 9.13594 16.9384 9.13744 16.9475 9.14789C16.9895 9.19601 17.1969 9.43398 17.2132 8.77384C17.2221 8.41162 17.1689 8.08463 17.1078 7.83473L16.7623 7.88638V9.3379H16.6607V7.90157L15.9982 8.00061L15.9704 7.87359L16.6607 7.75953V7.61215L15.9721 7.51193L15.9922 7.38396L16.6607 7.4381V7.3528L15.9556 7.10295L16.004 6.9808L16.6607 7.12474V7.05443C16.6607 7.0136 16.664 6.97605 16.6705 6.94178L16.1947 6.63864ZM17.0638 7.67081C17.0659 7.67776 17.0679 7.68479 17.07 7.69192L16.7623 7.74275V7.62693L17.0638 7.67081ZM17.0702 7.19645C17.0656 7.20155 17.0611 7.20657 17.0566 7.21151L16.7623 7.147V7.05443C16.7623 7.03596 16.763 7.01836 16.7644 7.00164L17.0702 7.19645ZM17.2659 7.00301C17.2317 7.03242 17.198 7.06412 17.1661 7.09591L16.8026 6.86437C16.8537 6.77575 16.9542 6.74352 17.1107 6.76671L17.2659 7.00301ZM17.9342 7.16311L18.4031 6.86437C18.3521 6.77575 18.2515 6.74352 18.0951 6.76671L17.8775 7.09799C17.8974 7.11992 17.9164 7.14187 17.9342 7.16311ZM18.0924 7.22396L18.4413 7.00164C18.4428 7.01836 18.4435 7.03596 18.4435 7.05443V7.147L18.0924 7.22396ZM18.2329 7.46338L18.4435 7.38879V7.44633L18.2329 7.46338ZM18.0707 7.68117L18.4435 7.62693V7.74275L18.0707 7.68117ZM16.7623 7.38879V7.44633L16.9728 7.46338L16.7623 7.38879Z" fill="#CF6900"/>
<path fill-rule="evenodd" clip-rule="evenodd" d="M15.5491 9.90173C15.5491 9.90173 14.728 11.2768 14.728 12.1103C14.728 12.1103 15.2875 12.554 16.2498 12.554C17.2121 12.554 17.7073 12.1103 17.7073 12.1103C17.4363 11.1223 16.9752 9.90173 16.9752 9.90173H15.5491Z" fill="#00A727"/>
<path fill-rule="evenodd" clip-rule="evenodd" d="M15.5889 9.52195C15.5889 9.14328 15.8958 8.8363 16.2745 8.8363V8.8363C16.6532 8.8363 16.9602 9.14328 16.9602 9.52195V9.991H15.5889V9.52195Z" fill="#E31D1C"/>
<path fill-rule="evenodd" clip-rule="evenodd" d="M13.4497 8.02087C13.4497 8.02087 14.5334 8.24412 14.5334 8.59615C14.5334 8.94818 14.9697 9.07511 15.0769 8.97994C15.1841 8.88478 15.9392 8.81821 15.9392 8.35935C15.9392 7.9005 16.0023 7.77558 15.8189 7.4842C15.6355 7.19282 15.253 6.20786 15.1649 6.60249C15.0769 6.99711 14.9444 7.28946 14.6997 7.05423C14.455 6.81899 14.1406 6.32098 14.0303 6.60249C13.92 6.884 14.38 7.16656 14.0303 7.16656C13.6806 7.16656 13.9271 7.18502 13.9271 7.42337C13.9271 7.66173 13.9685 7.88641 13.7091 7.88641C13.4497 7.88641 13.4497 8.02087 13.4497 8.02087Z" fill="#FF927F"/>
</g>
</g>
</svg>
