<svg width="20" height="15" viewBox="0 0 20 15" fill="none" xmlns="http://www.w3.org/2000/svg">
<mask id="mask0_1825_45159" style="mask-type:luminance" maskUnits="userSpaceOnUse" x="0" y="0" width="20" height="15">
<rect width="20" height="15" fill="white"/>
</mask>
<g mask="url(#mask0_1825_45159)">
<path fill-rule="evenodd" clip-rule="evenodd" d="M0 0H20V15H0V0Z" fill="#F7FCFF"/>
<path fill-rule="evenodd" clip-rule="evenodd" d="M0 0V5H20V0H0Z" fill="#C51918"/>
<path fill-rule="evenodd" clip-rule="evenodd" d="M0 10V15H20V10H0Z" fill="#409100"/>
<path fill-rule="evenodd" clip-rule="evenodd" d="M10.0126 5.39362L9.6431 5.65469L9.77345 5.2172L9.41474 4.94105L9.86479 4.93174L10.0126 4.5L10.1604 4.93174L10.6104 4.94105L10.2517 5.2172L10.3821 5.65469L10.0126 5.39362ZM8.45189 5.7766L8.0824 6.03767L8.21275 5.60017L7.85405 5.32403L8.3041 5.31472L8.45189 4.88298L8.59969 5.31472L9.04974 5.32403L8.69103 5.60017L8.82138 6.03767L8.45189 5.7766ZM6.86853 7.18661L7.23802 6.92553L7.60751 7.18661L7.47716 6.74911L7.83587 6.47297L7.38582 6.46366L7.23802 6.03191L7.09022 6.46366L6.64017 6.47297L6.99888 6.74911L6.86853 7.18661ZM6.84785 8.41489L6.47836 8.67597L6.60871 8.23847L6.25 7.96233L6.70005 7.95302L6.84785 7.52128L6.99564 7.95302L7.44569 7.96233L7.08698 8.23847L7.21734 8.67597L6.84785 8.41489ZM12.7645 8.67597L13.134 8.41489L13.5035 8.67597L13.3731 8.23847L13.7318 7.96233L13.2818 7.95302L13.134 7.52128L12.9862 7.95302L12.5361 7.96233L12.8948 8.23847L12.7645 8.67597ZM12.6571 6.92553L12.2876 7.18661L12.418 6.74911L12.0592 6.47297L12.5093 6.46366L12.6571 6.03191L12.8049 6.46366L13.2549 6.47297L12.8962 6.74911L13.0266 7.18661L12.6571 6.92553ZM11.0919 6.03767L11.4614 5.7766L11.8309 6.03767L11.7005 5.60017L12.0592 5.32403L11.6092 5.31472L11.4614 4.88298L11.3136 5.31472L10.8636 5.32403L11.2223 5.60017L11.0919 6.03767ZM7.9171 10.4716L7.80189 10.0614C8.43942 9.88886 9.17134 9.80306 9.99779 9.80306C10.8242 9.80306 11.5562 9.88886 12.1937 10.0614L12.0785 10.4716C11.4809 10.3099 10.7873 10.2286 9.99779 10.2286C9.20828 10.2286 8.51467 10.3099 7.9171 10.4716ZM8.70661 9.81374C8.45225 9.85695 8.24422 9.61107 8.24422 9.61107L8.49658 9.50681C8.48859 9.33186 8.59411 9.2234 8.59411 9.2234C8.67947 9.26271 8.79595 9.47753 8.79595 9.47753H9.02471C9.02471 9.47753 8.96097 9.77054 8.70661 9.81374ZM11.7126 9.65362C11.7126 9.65362 11.5045 9.8995 11.2502 9.85629C10.9958 9.81309 10.9321 9.52008 10.9321 9.52008H11.1608C11.1608 9.52008 11.2773 9.30526 11.3627 9.26596C11.3627 9.26596 11.4682 9.37442 11.4602 9.54936L11.7126 9.65362ZM9.96586 9.73583C9.70796 9.74322 9.53617 9.47078 9.53617 9.47078L9.80058 9.40266C9.81702 9.2283 9.93661 9.13559 9.93661 9.13559C10.0157 9.18639 10.1011 9.41533 10.1011 9.41533L10.3277 9.44717C10.3277 9.44717 10.2238 9.72845 9.96586 9.73583Z" fill="#FFBB00"/>
<path fill-rule="evenodd" clip-rule="evenodd" d="M9.9743 8.56171C9.9743 8.56171 9.68118 9.23252 9.21952 9.2844C8.75786 9.33629 8.52339 8.90289 8.52339 8.90289C8.52339 8.90289 8.49315 9.35358 7.94488 9.52731C7.39662 9.70104 7.10791 9.00693 7.10791 9.00693C7.10791 9.00693 7.39335 9.26225 7.83606 9.15099C8.27877 9.03974 8.45352 8.62885 8.45352 8.62885C8.45352 8.62885 8.78115 9.05721 9.21952 8.84303C9.65789 8.62885 9.90041 8.36709 9.90041 8.11592V7.36477C9.90041 7.36477 9.78732 7.17 9.59112 7.17C9.39492 7.17 9.34017 7.30808 9.34017 7.30808C9.34017 7.30808 9.26359 6.52663 9.96921 6.47833L9.96918 6.47644L9.98869 6.47719L10.0082 6.47644L10.0082 6.47833C10.7138 6.52663 10.6372 7.30808 10.6372 7.30808C10.6372 7.30808 10.5825 7.17 10.3863 7.17C10.1901 7.17 10.077 7.36477 10.077 7.36477V8.11592C10.077 8.36709 10.3195 8.62885 10.7579 8.84303C11.1962 9.05721 11.5239 8.62885 11.5239 8.62885C11.5239 8.62885 11.6986 9.03974 12.1413 9.15099C12.584 9.26225 12.8695 9.00693 12.8695 9.00693C12.8695 9.00693 12.5808 9.70104 12.0325 9.52731C11.4842 9.35358 11.454 8.90289 11.454 8.90289C11.454 8.90289 11.2195 9.33629 10.7579 9.2844C10.2962 9.23252 10.0031 8.56171 10.0031 8.56171L9.98869 7.67635L9.9743 8.56171ZM9.9678 6.68874C9.64228 6.68874 9.57635 6.96431 9.57635 6.96431C9.86298 6.96431 9.9678 7.08925 9.9678 7.08925C9.9678 7.08925 10.18 6.96431 10.3937 6.96431C10.3937 6.96431 10.2933 6.68874 9.9678 6.68874Z" fill="#FFBB00"/>
</g>
</svg>
