<svg width="20" height="15" viewBox="0 0 20 15" fill="none" xmlns="http://www.w3.org/2000/svg">
<g clip-path="url(#clip0_14_341)">
<path d="M0 0H20V15H0V0Z" fill="#006600"/>
<path d="M0 0H20V10.7156H0V0Z" fill="white"/>
<path d="M0 0H20V4.28438H0V0Z" fill="#CC0000"/>
<path d="M9.40002 7.29999C9.42947 7.25006 9.47426 7.21099 9.52773 7.1886C9.5812 7.16622 9.64047 7.16172 9.6967 7.17578C9.75294 7.18983 9.80312 7.2217 9.83976 7.26661C9.8764 7.31152 9.89754 7.36708 9.90002 7.42499V8.49999H10.1V7.42811C10.1025 7.3702 10.1236 7.31465 10.1603 7.26973C10.1969 7.22482 10.2471 7.19296 10.3033 7.1789C10.3596 7.16484 10.4189 7.16934 10.4723 7.19173C10.5258 7.21411 10.5706 7.25318 10.6 7.30311C10.631 7.20833 10.6391 7.10756 10.6236 7.00906C10.6082 6.91055 10.5696 6.81711 10.5111 6.73638C10.4525 6.65566 10.3757 6.58995 10.2869 6.54464C10.198 6.49933 10.0997 6.47571 10 6.47571C9.90031 6.47571 9.80201 6.49933 9.71319 6.54464C9.62436 6.58995 9.54753 6.65566 9.489 6.73638C9.43046 6.81711 9.39188 6.91055 9.37641 7.00906C9.36095 7.10756 9.36904 7.20833 9.40002 7.30311" fill="#F8C300"/>
<path d="M9.5437 7.02185C9.63144 7.00371 9.72266 7.01355 9.80451 7.04999C9.88636 7.08643 9.95472 7.14763 9.99995 7.22498C10.0452 7.14763 10.1135 7.08643 10.1954 7.04999C10.2772 7.01355 10.3685 7.00371 10.4562 7.02185C10.4431 6.91004 10.3894 6.80694 10.3053 6.73212C10.2212 6.6573 10.1125 6.61597 9.99995 6.61597C9.88738 6.61597 9.77873 6.6573 9.69462 6.73212C9.61051 6.80694 9.55681 6.91004 9.5437 7.02185Z" fill="white"/>
<path d="M9.9 8.0719C9.88672 8.2242 9.83074 8.36966 9.73849 8.49158C9.64625 8.61349 9.52148 8.7069 9.37852 8.76108C9.23556 8.81526 9.08022 8.82801 8.93034 8.79786C8.78047 8.76771 8.64214 8.69589 8.53125 8.59065C8.48423 8.71066 8.41033 8.81831 8.31523 8.90532C8.22014 8.99233 8.10637 9.0564 7.98266 9.09261C7.85895 9.12882 7.7286 9.1362 7.60159 9.11419C7.47459 9.09218 7.35431 9.04137 7.25 8.96565C7.32812 9.7469 8.5 9.58752 8.5875 8.82815C8.95312 9.47502 9.7625 9.28752 10 8.4969L9.9 8.0719Z" fill="#F8C300"/>
<path d="M10.1 8.0719C10.1133 8.2242 10.1693 8.36966 10.2615 8.49158C10.3538 8.61349 10.4785 8.7069 10.6215 8.76108C10.7644 8.81526 10.9198 8.82801 11.0697 8.79786C11.2195 8.76771 11.3579 8.69589 11.4688 8.59065C11.5158 8.71066 11.5897 8.81831 11.6848 8.90532C11.7799 8.99233 11.8936 9.0564 12.0173 9.09261C12.141 9.12882 12.2714 9.1362 12.3984 9.11419C12.5254 9.09218 12.6457 9.04137 12.75 8.96565C12.6719 9.7469 11.5 9.58752 11.4125 8.82815C11.0469 9.47502 10.2375 9.28752 10 8.4969L10.1 8.0719Z" fill="#F8C300"/>
<path d="M9.11875 9.4563C8.95312 9.80942 8.62813 9.8688 8.34375 9.58442C8.34375 9.58442 8.45625 9.50317 8.58125 9.4813C8.55625 9.38442 8.60312 9.24692 8.67188 9.17505C8.76287 9.23474 8.83027 9.32423 8.8625 9.42817C9.03438 9.4063 9.11875 9.45942 9.11875 9.45942V9.4563Z" fill="#F8C300"/>
<path d="M10.3999 9.41662C10.1789 9.73796 9.84852 9.74345 9.61441 9.41645C9.61441 9.41645 9.73867 9.35467 9.86557 9.3535C9.85672 9.25384 9.92543 9.12585 10.005 9.06616C10.085 9.13991 10.1369 9.23921 10.1517 9.34702C10.3249 9.35352 10.3994 9.41971 10.3994 9.41971L10.3999 9.41662Z" fill="#F8C300"/>
<path d="M11.657 9.58397C11.3869 9.86535 11.06 9.81739 10.8818 9.45686C10.8818 9.45686 11.0144 9.41596 11.1398 9.43532C11.1472 9.33554 11.2357 9.22033 11.3239 9.17429C11.3909 9.26001 11.4261 9.36638 11.4233 9.47517C11.5931 9.50956 11.656 9.58693 11.656 9.58693L11.657 9.58397Z" fill="#F8C300"/>
<path d="M7.92188 10.2438C9.27789 9.84013 10.7221 9.84013 12.0781 10.2438" stroke="#F8C300" stroke-width="0.55"/>
<path d="M10.3235 5.589L9.47656 4.97367H10.5234L9.67649 5.589L9.99999 4.59338L10.3235 5.589Z" fill="#F8C300"/>
<path d="M8.82348 5.99183L7.97656 5.37651H9.02341L8.17649 5.99183L8.49999 4.99622L8.82348 5.99183Z" fill="#F8C300"/>
<path d="M7.72631 7.089L6.87939 6.47367H7.92624L7.07933 7.089L7.40282 6.09338L7.72631 7.089Z" fill="#F8C300"/>
<path d="M7.32348 8.589L6.47656 7.97367H7.52341L6.67649 8.589L6.99999 7.59338L7.32348 8.589Z" fill="#F8C300"/>
<path d="M11.1765 5.99183L12.0234 5.37651H10.9766L11.8235 5.99183L11.5 4.99622L11.1765 5.99183Z" fill="#F8C300"/>
<path d="M12.2737 7.089L13.1206 6.47367H12.0738L12.9207 7.089L12.5972 6.09338L12.2737 7.089Z" fill="#F8C300"/>
<path d="M12.6765 8.589L13.5234 7.97367H12.4766L13.3235 8.589L13 7.59338L12.6765 8.589Z" fill="#F8C300"/>
</g>
<defs>
<clipPath id="clip0_14_341">
<rect width="20" height="15" fill="white"/>
</clipPath>
</defs>
</svg>
