<svg width="20" height="15" viewBox="0 0 20 15" fill="none" xmlns="http://www.w3.org/2000/svg">
<g clip-path="url(#clip0_14_413)">
<path d="M0 0H20V15H0V0Z" fill="#00247D"/>
<path d="M3.37812 11.0812C3.16875 11.0781 5.34063 9.92494 7.15625 8.44369C9.5375 6.50307 14.6656 3.39994 16.175 2.89369C16.3312 2.84057 15.8531 3.16244 15.7906 3.26557C14.1812 5.17182 15.4656 8.76557 17.4781 10.5749C18.0844 11.0374 18.0531 11.0624 19.175 11.1062V11.2124L3.37812 11.0812ZM3.24688 11.2906C3.24688 11.2906 3.09375 11.3999 3.09375 11.4812C3.09375 11.5718 3.26562 11.6906 3.26562 11.6906L18.8438 11.8624L19.1313 11.6718L18.7313 11.4249L3.24688 11.2906Z" fill="#FED100"/>
<path d="M3.3375 3.40933L3.2125 3.79058L3.5375 3.5562L3.85938 3.79058L3.7375 3.40933L4.05937 3.17495H3.65937L3.5375 2.7937L3.4125 3.17495H3.0125L3.3375 3.40933ZM5.77812 5.20308L6.04688 5.0062H5.7125L5.60938 4.69058L5.50625 5.0062H5.175L5.44375 5.20308L5.34062 5.5187L5.60938 5.32183L5.88125 5.5187L5.77812 5.20308ZM1.24063 5.60933L1.11563 5.22808L0.99375 5.60933H0.59375L0.915625 5.8437L0.79375 6.22495L1.11563 5.99058L1.44062 6.22495L1.31562 5.8437L1.64062 5.60933H1.24063ZM3.68125 9.4312L3.5375 8.98745L3.39375 9.4312H2.925L3.30312 9.70308L3.15937 10.15L3.5375 9.87495L3.91563 10.15L3.76875 9.70308L4.14687 9.4312H3.68125Z" fill="white"/>
</g>
<defs>
<clipPath id="clip0_14_413">
<rect width="20" height="15" fill="white"/>
</clipPath>
</defs>
</svg>
