<svg width="20" height="15" viewBox="0 0 20 15" fill="none" xmlns="http://www.w3.org/2000/svg">
<g clip-path="url(#clip0_14_282)">
<mask id="mask0_14_282" style="mask-type:luminance" maskUnits="userSpaceOnUse" x="0" y="0" width="20" height="15">
<path d="M0.000976562 0H19.999V15H0.000976562V0Z" fill="white"/>
</mask>
<g mask="url(#mask0_14_282)">
<path fill-rule="evenodd" clip-rule="evenodd" d="M-1.25 0H21.25V15H-1.25V0Z" fill="#00843D"/>
<path fill-rule="evenodd" clip-rule="evenodd" d="M6.46387 4.02832C7.28125 4.4209 8.25391 4.02832 8.60547 3.4834C8.96875 2.97363 9.0127 2.12109 8.38867 1.33887C9.35547 2.1416 9.57227 3.05273 9.08887 3.80273C8.44434 4.66113 7.02051 4.63477 6.46387 4.02832Z" fill="white"/>
<path fill-rule="evenodd" clip-rule="evenodd" d="M7.91406 2.0332L8.07812 2.03613L7.94922 2.13867L7.99902 2.30273L7.86133 2.20605L7.72949 2.30273L7.77344 2.1416L7.6416 2.03906L7.80566 2.03613L7.86133 1.875L7.91406 2.0332ZM7.10254 3.05273H7.2666L7.1377 3.1582L7.1875 3.31934L7.0498 3.22266L6.91504 3.32227L6.96191 3.1582L6.83008 3.05859L6.99414 3.05273L7.04688 2.8916L7.10254 3.05273ZM7.15527 2.25H7.32227L7.19043 2.35547L7.24023 2.5166L7.10547 2.41992L6.9707 2.51953L7.01758 2.35547L6.88574 2.25293L7.0498 2.25L7.10254 2.08887L7.15527 2.25ZM7.15527 1.44434H7.32227L7.1875 1.55273L7.23731 1.71387L7.10254 1.62012L6.96777 1.7168L7.01465 1.55566L6.88281 1.45312L7.04688 1.4502L7.09961 1.28906L7.15527 1.44434ZM6.25586 2.46387H6.41992L6.28809 2.56934L6.33789 2.73047L6.20312 2.63379L6.06836 2.7334L6.11523 2.56934L5.9834 2.46973L6.14746 2.46387L6.2002 2.30273L6.25586 2.46387Z" fill="white"/>
<path fill-rule="evenodd" clip-rule="evenodd" d="M0.141602 0H4.96387V15H0.141602V0Z" fill="#CA3745"/>
<path fill-rule="evenodd" clip-rule="evenodd" d="M0.141602 3.91113V3.80273L0.34082 3.53613L0.302734 3.48047L0.419922 3.32227L0.381836 3.2666L0.302734 3.375L0.261719 3.32227L0.542969 2.94727L0.583984 3L0.542969 3.05273L0.625 3.16406L0.824219 2.89453L0.62207 2.63379L0.542969 2.7334L0.583984 2.78906L0.542969 2.8418L0.261719 2.4668L0.302734 2.41406L0.381836 2.51953L0.422851 2.4668L0.302734 2.30566L0.34082 2.25293L0.141602 1.9834V1.875L0.422851 2.25L0.381836 2.30273L0.501953 2.46387L0.422851 2.57227L0.501953 2.67773L0.625 2.51953L0.90918 2.90039L0.625 3.26953L0.507812 3.1084L0.425781 3.2168L0.504883 3.3252L0.387695 3.4834L0.425781 3.53906L0.144531 3.91406L0.141602 3.91113Z" fill="#FAAE29"/>
<path fill-rule="evenodd" clip-rule="evenodd" d="M0.141602 2.57227L0.182617 2.67773V2.8418H0.302734L0.384766 2.89453L0.302734 2.9502H0.185547V3.1084L0.144531 3.2168V2.57227H0.141602Z" fill="#FAAE29"/>
<path fill-rule="evenodd" clip-rule="evenodd" d="M0.141602 6.4834V6.375L0.34082 6.1084L0.302734 6.05273L0.419922 5.8916L0.381836 5.83887L0.302734 5.94727L0.261719 5.8916L0.542969 5.5166L0.583984 5.57227L0.542969 5.625L0.625 5.7334L0.824219 5.46387L0.62207 5.20313L0.542969 5.30273L0.583984 5.3584L0.542969 5.41113L0.261719 5.03613L0.302734 4.98047L0.381836 5.08594L0.422852 5.0332L0.302734 4.87207L0.34082 4.81934L0.141602 4.5498V4.44434L0.422852 4.81934L0.381836 4.87207L0.501953 5.0332L0.422852 5.13867L0.501953 5.24707L0.62207 5.08594L0.90625 5.4668L0.62207 5.83594L0.504883 5.6748L0.422852 5.7832L0.501953 5.88867L0.384766 6.0498L0.422852 6.10547L0.141602 6.48047V6.4834Z" fill="#FAAE29"/>
<path fill-rule="evenodd" clip-rule="evenodd" d="M0.141602 5.1416L0.182617 5.25V5.41113H0.302734L0.384766 5.46387L0.302734 5.5166H0.185547V5.67773L0.144531 5.78613V5.1416H0.141602Z" fill="#FAAE29"/>
<path fill-rule="evenodd" clip-rule="evenodd" d="M0.141602 9.05273V8.94727L0.34082 8.67773L0.302734 8.625L0.419922 8.46387L0.381836 8.41113L0.302734 8.5166L0.261719 8.46387L0.542969 8.08887L0.583984 8.1416L0.542969 8.19727L0.625 8.30566L0.824219 8.03613L0.62207 7.77246L0.542969 7.875L0.583984 7.92773L0.542969 7.98047L0.261719 7.60547L0.302734 7.55273L0.381836 7.66113L0.422852 7.60547L0.302734 7.44727L0.34082 7.3916L0.141602 7.125V7.0166L0.422852 7.3916L0.381836 7.44727L0.501953 7.60547L0.422852 7.71387L0.501953 7.82227L0.625 7.66113L0.90625 8.04199L0.62207 8.41113L0.504883 8.25L0.422852 8.35547L0.501953 8.46387L0.384766 8.625L0.422852 8.67773L0.141602 9.05273Z" fill="#FAAE29"/>
<path fill-rule="evenodd" clip-rule="evenodd" d="M0.141602 7.71387L0.185547 7.82227V7.9834H0.302734L0.384766 8.03613L0.302734 8.08594H0.185547V8.24707L0.144531 8.35547V7.71094L0.141602 7.71387Z" fill="#FAAE29"/>
<path fill-rule="evenodd" clip-rule="evenodd" d="M0.141602 11.4639V11.3555L0.34082 11.0889L0.302734 11.0361L0.419922 10.875L0.381836 10.8223L0.302734 10.9277L0.261719 10.875L0.542969 10.5L0.583984 10.5527L0.542969 10.6055L0.625 10.7139L0.824219 10.4473L0.62207 10.1836L0.542969 10.2861L0.583984 10.3389L0.542969 10.3916L0.261719 10.0166L0.302734 9.96387L0.381836 10.0723L0.422852 10.0166L0.302734 9.85547L0.34082 9.80273L0.141602 9.53613V9.42773L0.422852 9.80273L0.381836 9.85547L0.501953 10.0166L0.422852 10.125L0.501953 10.2305L0.625 10.0723L0.90625 10.4531L0.62207 10.8223L0.504883 10.6611L0.422852 10.7666L0.501953 10.875L0.384766 11.0361L0.422852 11.0889L0.141602 11.4639Z" fill="#FAAE29"/>
<path fill-rule="evenodd" clip-rule="evenodd" d="M0.141602 10.125L0.182617 10.2305V10.3916H0.302734L0.384766 10.4473L0.302734 10.5H0.185547V10.6611L0.144531 10.7666V10.1221L0.141602 10.125Z" fill="#FAAE29"/>
<path fill-rule="evenodd" clip-rule="evenodd" d="M4.96387 3.91113V3.80273L4.76465 3.53613L4.80566 3.48047L4.68555 3.32227L4.72363 3.2666L4.80566 3.375L4.84668 3.32227L4.56543 2.94727L4.52441 3L4.56543 3.05273L4.48047 3.16113L4.28418 2.8916L4.4834 2.63086L4.56543 2.73047L4.52441 2.78613L4.5625 2.83887L4.84375 2.46387L4.80566 2.41113L4.72363 2.5166L4.68555 2.46387L4.80273 2.30273L4.76465 2.25L4.96387 1.98047V1.875L4.68555 2.25L4.72363 2.30273L4.60645 2.46387L4.68555 2.57227L4.60352 2.67773L4.4834 2.5166L4.19922 2.89746L4.4834 3.2666L4.60352 3.10547L4.68555 3.21387L4.60352 3.32227L4.72363 3.48047L4.68555 3.53613L4.96387 3.91113Z" fill="#FAAE29"/>
<path fill-rule="evenodd" clip-rule="evenodd" d="M4.96387 2.57227L4.92285 2.67773V2.8418H4.80566L4.72363 2.89453L4.80273 2.9502H4.92285V3.1084L4.96387 3.2168V2.57227Z" fill="#FAAE29"/>
<path fill-rule="evenodd" clip-rule="evenodd" d="M4.97852 6.4834V6.375L4.7793 6.1084L4.81738 6.05273L4.7002 5.8916L4.73828 5.83887L4.81738 5.94727L4.8584 5.8916L4.57715 5.5166L4.53613 5.57227L4.57715 5.625L4.49512 5.7334L4.2959 5.46387L4.49805 5.20313L4.57715 5.30273L4.53613 5.35547L4.57715 5.41113L4.8584 5.03613L4.81738 4.98047L4.73828 5.08887L4.69727 5.03613L4.81738 4.875L4.7793 4.82227L4.97852 4.55273V4.44727L4.69727 4.82227L4.73828 4.875L4.61816 5.03613L4.69727 5.1416L4.61816 5.25L4.49805 5.08887L4.21387 5.46973L4.49805 5.83887L4.61523 5.67773L4.69727 5.78613L4.61816 5.8916L4.73535 6.05273L4.69727 6.10547L4.97852 6.48047V6.4834Z" fill="#FAAE29"/>
<path fill-rule="evenodd" clip-rule="evenodd" d="M4.97852 5.1416L4.9375 5.25V5.41113H4.81445L4.73242 5.46387L4.81445 5.5166H4.93164V5.67773L4.97559 5.78613V5.1416H4.97852Z" fill="#FAAE29"/>
<path fill-rule="evenodd" clip-rule="evenodd" d="M4.96387 9.05273V8.94727L4.76465 8.67773L4.80566 8.625L4.68555 8.46387L4.72363 8.41113L4.80566 8.5166L4.84668 8.46387L4.56543 8.08887L4.52441 8.1416L4.56543 8.19727L4.48047 8.30566L4.28418 8.03613L4.4834 7.77246L4.56543 7.875L4.52441 7.92773L4.5625 7.98047L4.84375 7.60547L4.80566 7.55273L4.72363 7.66113L4.68555 7.60547L4.80273 7.44727L4.76465 7.3916L4.96387 7.125V7.0166L4.68555 7.3916L4.72363 7.44727L4.60645 7.60547L4.68555 7.71387L4.60352 7.82227L4.4834 7.66113L4.19922 8.04199L4.4834 8.41113L4.60352 8.25L4.68555 8.35547L4.60352 8.46387L4.72363 8.625L4.68555 8.67773L4.96094 9.05273H4.96387Z" fill="#FAAE29"/>
<path fill-rule="evenodd" clip-rule="evenodd" d="M4.96387 7.71387L4.92285 7.82227V7.9834H4.80566L4.72363 8.03613L4.80273 8.08887H4.92285V8.25L4.96387 8.3584V7.71387Z" fill="#FAAE29"/>
<path fill-rule="evenodd" clip-rule="evenodd" d="M4.96387 11.4639V11.3555L4.76465 11.0889L4.80566 11.0361L4.68555 10.875L4.72363 10.8223L4.80566 10.9277L4.84668 10.875L4.56543 10.5L4.52441 10.5527L4.56543 10.6055L4.48047 10.7139L4.28418 10.4473L4.4834 10.1836L4.56543 10.2861L4.52441 10.3389L4.5625 10.3916L4.84375 10.0195L4.80566 9.9668L4.72363 10.0752L4.68555 10.0195L4.80273 9.8584L4.76465 9.80566L4.96387 9.53906V9.43066L4.68555 9.80566L4.72363 9.8584L4.60645 10.0195L4.68555 10.1279L4.60352 10.2334L4.4834 10.0752L4.19922 10.4561L4.4834 10.8252L4.60352 10.6641L4.68555 10.7695L4.60352 10.8779L4.72363 11.0391L4.68555 11.0918L4.96387 11.4668V11.4639Z" fill="#FAAE29"/>
<path fill-rule="evenodd" clip-rule="evenodd" d="M4.96387 10.125L4.92285 10.2305V10.3916H4.80566L4.72363 10.4473L4.80273 10.5H4.92285V10.6611L4.96387 10.7666V10.1221V10.125Z" fill="#FAAE29"/>
<path fill-rule="evenodd" clip-rule="evenodd" d="M0.141602 1.0166V0.911133L0.34082 0.641602L0.302734 0.588867L0.419922 0.427734L0.381836 0.375L0.302734 0.483398L0.261719 0.427734L0.542969 0.0527344L0.583984 0.108398L0.542969 0.161133L0.625 0.269531L0.824219 0H0.90625L0.625 0.375L0.501953 0.213867L0.422851 0.322266L0.501953 0.427734L0.384766 0.588867L0.419922 0.644531L0.141602 1.01953V1.0166ZM0.141602 0H0.384766L0.302734 0.0527344H0.185547V0.213867L0.138672 0.322266V0H0.141602ZM4.96387 1.0166V0.911133L4.76465 0.641602L4.80566 0.588867L4.68555 0.427734L4.72363 0.375L4.80566 0.483398L4.84375 0.427734L4.5625 0.0527344L4.52441 0.108398L4.5625 0.161133L4.48047 0.269531L4.28125 0H4.19922L4.4834 0.375L4.60352 0.213867L4.68555 0.322266L4.60352 0.427734L4.72363 0.588867L4.68555 0.641602L4.96387 1.0166ZM4.96387 0H4.72363L4.80273 0.0527344H4.92285V0.213867L4.96387 0.322266V0ZM2.15137 14.7861C2.15137 14.7861 2.32715 14.4814 2.76074 14.3906C3.19727 14.2969 3.27344 14.5928 3.52246 14.5928C3.77148 14.5928 4.16699 14.3877 4.16699 14.3877C4.16699 14.3877 3.77148 14.7773 3.46387 14.7686C3.16211 14.7598 3.05957 14.5635 2.74609 14.5928C2.43555 14.6221 2.15137 14.7949 2.15137 14.7861Z" fill="#FAAE29"/>
<path fill-rule="evenodd" clip-rule="evenodd" d="M2.99219 14.7862C2.99219 14.7862 2.81934 14.4815 2.38574 14.3907C1.94629 14.2969 1.87305 14.5928 1.62402 14.5928C1.375 14.5928 0.979492 14.3877 0.979492 14.3877C0.979492 14.3877 1.375 14.7774 1.67969 14.7686C1.98437 14.7598 2.08984 14.5635 2.39746 14.5928C2.71094 14.6221 2.99219 14.795 2.99219 14.7862Z" fill="#FAAE29"/>
<path fill-rule="evenodd" clip-rule="evenodd" d="M1.56825 14.2822C1.53017 14.2031 1.43349 13.8515 1.48329 13.8076C1.56239 13.7783 1.76747 14.1386 1.74696 14.458C1.6122 14.5312 1.16102 14.4287 1.16395 14.3349C1.19618 14.2031 1.45399 14.247 1.56825 14.2822Z" fill="#FAAE29"/>
<path fill-rule="evenodd" clip-rule="evenodd" d="M1.29295 13.9745C1.26951 13.8867 1.2285 13.5175 1.28709 13.4882C1.36619 13.4824 1.50975 13.8896 1.44236 14.1972C1.29881 14.2324 0.871074 14.0068 0.891582 13.916C0.944316 13.7988 1.18455 13.9101 1.29295 13.9745Z" fill="#FAAE29"/>
<path fill-rule="evenodd" clip-rule="evenodd" d="M1.07024 13.6348C1.05266 13.541 1.0468 13.166 1.10539 13.1484C1.1845 13.1543 1.29289 13.582 1.19914 13.8779C1.05266 13.8896 0.648363 13.5967 0.67766 13.5117C0.736254 13.4004 0.970628 13.5498 1.07024 13.6348Z" fill="#FAAE29"/>
<path fill-rule="evenodd" clip-rule="evenodd" d="M0.894419 13.2715C0.88856 13.1748 0.923716 12.8027 0.98524 12.7969C1.06434 12.8174 1.12001 13.2627 0.991099 13.5352C0.847544 13.5176 0.481333 13.1455 0.522349 13.0664C0.592661 12.9697 0.806529 13.166 0.894419 13.2715Z" fill="#FAAE29"/>
<path fill-rule="evenodd" clip-rule="evenodd" d="M0.771425 12.8877C0.777284 12.791 0.853456 12.4336 0.91498 12.4365C0.988222 12.4746 0.997011 12.9229 0.841737 13.169C0.701112 13.1221 0.375917 12.6856 0.422792 12.6123C0.507753 12.5303 0.695253 12.7676 0.774355 12.8877H0.771425Z" fill="#FAAE29"/>
<path fill-rule="evenodd" clip-rule="evenodd" d="M0.806638 12.4512C0.797849 12.832 0.727536 12.8379 0.60156 12.5566C0.542966 12.4482 0.537107 12.0088 0.586911 11.9912C0.660153 11.9912 0.803708 12.3047 0.806638 12.4512Z" fill="#FAAE29"/>
<path fill-rule="evenodd" clip-rule="evenodd" d="M3.55467 14.3262C3.59275 14.2441 3.68943 13.8926 3.63963 13.8486C3.56053 13.8193 3.35838 14.1767 3.37596 14.499C3.51072 14.5722 3.96482 14.4697 3.95896 14.376C3.92674 14.2441 3.67185 14.2881 3.55467 14.3232V14.3262Z" fill="#FAAE29"/>
<path fill-rule="evenodd" clip-rule="evenodd" d="M3.83009 14.0156C3.85645 13.9277 3.89454 13.5585 3.83888 13.5292C3.75977 13.5234 3.61329 13.9277 3.6836 14.2382C3.82423 14.2734 4.25489 14.0478 4.23145 13.957C4.18165 13.8369 3.93849 13.9511 3.83009 14.0156Z" fill="#FAAE29"/>
<path fill-rule="evenodd" clip-rule="evenodd" d="M4.05277 13.6758C4.07035 13.582 4.07621 13.207 4.01761 13.1895C3.93851 13.1953 3.83011 13.6201 3.92679 13.916C4.07328 13.9277 4.47757 13.6377 4.44828 13.5498C4.38382 13.4385 4.15531 13.5908 4.05277 13.6758Z" fill="#FAAE29"/>
<path fill-rule="evenodd" clip-rule="evenodd" d="M4.22845 13.3096C4.23431 13.2158 4.19916 12.8438 4.13763 12.8379C4.05853 12.8584 4.00287 13.3037 4.13177 13.5762C4.27826 13.5586 4.64154 13.1865 4.60345 13.1074C4.53021 13.0078 4.31927 13.207 4.22845 13.3096Z" fill="#FAAE29"/>
<path fill-rule="evenodd" clip-rule="evenodd" d="M4.35155 12.9257C4.34862 12.832 4.26952 12.4716 4.21092 12.4775C4.13475 12.5126 4.12596 12.9638 4.28417 13.2099C4.42479 13.163 4.74706 12.7265 4.70018 12.6533C4.61522 12.5712 4.42772 12.8085 4.34862 12.9257H4.35155Z" fill="#FAAE29"/>
<path fill-rule="evenodd" clip-rule="evenodd" d="M4.31641 12.4922C4.32812 12.873 4.39551 12.876 4.52148 12.5947C4.58008 12.4893 4.58594 12.0469 4.53613 12.0322C4.46289 12.0322 4.31934 12.3457 4.31641 12.4922Z" fill="#FAAE29"/>
<path fill-rule="evenodd" clip-rule="evenodd" d="M4.21653 9.63618H3.97673V9.79704H3.74566V9.9579H2.82136L2.6644 10.1234L2.74288 10.2061H3.13091L3.20503 10.1234H2.82136L2.89548 10.0406H3.4361L3.20503 10.2842H2.66876L2.51617 10.2061L2.35921 10.2842H1.81858L1.58751 10.0406H2.12814L2.20661 10.1234H1.81858L1.89706 10.2061H2.28509L2.35921 10.1234L2.20661 9.9579H1.35644V9.79704H1.12536V9.63618H0.894287V8.90081H1.12536V8.73995H1.35644V8.57449H2.20661L2.35921 8.41363L2.28509 8.3309H1.89706L1.81858 8.41363H2.20661L2.12814 8.49176H1.58751L1.81858 8.24817H2.36357L2.52053 8.3309L2.67312 8.24817H3.21375L3.44482 8.49176H2.9042L2.83008 8.41363H3.21375L3.13527 8.3309H2.7516L2.66876 8.41363L2.82572 8.57449H3.75002V8.73995H3.98109V8.90081H4.21653V9.63618Z" fill="#CA3745" stroke="black" stroke-width="0.00716226"/>
<path fill-rule="evenodd" clip-rule="evenodd" d="M0.97168 8.98639V9.5563H1.20275V9.71717H1.43382V9.87803H2.20769L2.51724 10.1239L2.82461 9.88032H3.67478V9.71946L3.90585 9.71717V9.5563H4.14128V8.9841H3.90803V8.82323H3.67696V8.65778H2.82679L2.51942 8.41418L2.20987 8.65778H1.436V8.82323H1.20493V8.9841H0.97386L0.97168 8.98639Z" fill="#00843D" stroke="#FAAE29" stroke-width="0.0501355"/>
<path fill-rule="evenodd" clip-rule="evenodd" d="M2.05205 8.73755L1.58923 9.14526V8.73755H2.05205ZM2.9777 8.73755L3.44345 9.14526V8.73755H2.9777ZM2.05205 9.79761L1.58923 9.38989V9.79761H2.05205ZM2.9777 9.79761L3.44345 9.38989V9.79761H2.9777ZM3.13295 8.98218L2.9777 9.14526H3.2882L3.13295 8.98218ZM1.8968 8.98218L1.74448 9.14526H2.05205L1.8968 8.98218ZM1.8968 9.55298L1.74448 9.38989H2.05205L1.8968 9.55298ZM3.13295 9.55298L2.9777 9.38989H3.2882L3.13295 9.55298Z" fill="#CA3745"/>
<path fill-rule="evenodd" clip-rule="evenodd" d="M2.51487 9.96069L2.35962 9.79761H2.67012L2.51487 9.96069ZM2.51487 9.14526L2.35962 8.98218H2.67012L2.51487 9.14526ZM2.51487 8.57446L2.35962 8.74126H2.67012L2.51487 8.57446ZM2.51487 9.38989L2.35962 9.55298H2.67012L2.51487 9.38989Z" fill="#FAAE29"/>
<path fill-rule="evenodd" clip-rule="evenodd" d="M2.97937 9.14734H3.2911V9.22777H2.98155L2.97937 9.14734Z" fill="#FAAE29" stroke="black" stroke-width="0.00358111"/>
<path fill-rule="evenodd" clip-rule="evenodd" d="M1.8219 9.22778H1.97449V9.31051H1.8219V9.22778ZM3.05791 9.22778H3.21051V9.31051H3.05791V9.22778Z" fill="#CC0000" stroke="black" stroke-width="0.00358111"/>
<path fill-rule="evenodd" clip-rule="evenodd" d="M2.36255 8.7406H2.66992V8.82103H2.36255V8.7406ZM2.36255 8.90146H2.66992V8.98419H2.36255V8.90146Z" fill="#990000" stroke="black" stroke-width="0.00358111"/>
<path fill-rule="evenodd" clip-rule="evenodd" d="M2.28406 8.82092H2.74838V8.90365H2.28406V8.82092ZM2.36253 9.55629H2.6699V9.63442H2.36253V9.55629ZM2.36253 9.71715H2.6699V9.79758H2.36253V9.71715ZM2.28406 9.63672H2.74838V9.71715H2.28406V9.63672Z" fill="#990000" stroke="black" stroke-width="0.00358111"/>
<path fill-rule="evenodd" clip-rule="evenodd" d="M2.97942 9.3105H3.29115V9.39093H2.9816L2.97942 9.3105ZM1.74341 9.14734H2.05296V9.22777H1.74341V9.14734ZM1.74341 9.3082H2.05296V9.39093H1.74341V9.3082ZM1.66711 9.22777H1.81971V9.3105H1.66711V9.22777ZM1.97666 9.22777H2.12926V9.3105H1.97666V9.22777ZM2.90313 9.22777H3.05572V9.3105H2.90313V9.22777ZM3.21268 9.22777H3.36527V9.3105H3.21268V9.22777Z" fill="#FAAE29" stroke="black" stroke-width="0.00358111"/>
<path d="M2.32663 9.69383C2.33746 9.69383 2.34625 9.68457 2.34625 9.67315C2.34625 9.66173 2.33746 9.65247 2.32663 9.65247C2.31579 9.65247 2.30701 9.66173 2.30701 9.67315C2.30701 9.68457 2.31579 9.69383 2.32663 9.69383Z" fill="white"/>
<path d="M2.51706 9.69383C2.52789 9.69383 2.53668 9.68457 2.53668 9.67315C2.53668 9.66173 2.52789 9.65247 2.51706 9.65247C2.50622 9.65247 2.49744 9.66173 2.49744 9.67315C2.49744 9.68457 2.50622 9.69383 2.51706 9.69383Z" fill="white"/>
<path d="M2.71029 9.69383C2.72113 9.69383 2.72991 9.68457 2.72991 9.67315C2.72991 9.66173 2.72113 9.65247 2.71029 9.65247C2.69946 9.65247 2.69067 9.66173 2.69067 9.67315C2.69067 9.68457 2.69946 9.69383 2.71029 9.69383Z" fill="white"/>
<path d="M2.4028 9.61595C2.41363 9.61595 2.42242 9.60669 2.42242 9.59527C2.42242 9.58385 2.41363 9.57458 2.4028 9.57458C2.39196 9.57458 2.38318 9.58385 2.38318 9.59527C2.38318 9.60669 2.39196 9.61595 2.4028 9.61595Z" fill="white"/>
<path d="M2.63119 9.61595C2.64203 9.61595 2.65081 9.60669 2.65081 9.59527C2.65081 9.58385 2.64203 9.57458 2.63119 9.57458C2.62036 9.57458 2.61157 9.58385 2.61157 9.59527C2.61157 9.60669 2.62036 9.61595 2.63119 9.61595Z" fill="white"/>
<path d="M2.39987 9.77537C2.4107 9.77537 2.41949 9.76611 2.41949 9.75469C2.41949 9.74327 2.4107 9.73401 2.39987 9.73401C2.38903 9.73401 2.38025 9.74327 2.38025 9.75469C2.38025 9.76611 2.38903 9.77537 2.39987 9.77537Z" fill="white"/>
<path d="M2.63119 9.77904C2.64203 9.77904 2.65081 9.76978 2.65081 9.75835C2.65081 9.74693 2.64203 9.73767 2.63119 9.73767C2.62036 9.73767 2.61157 9.74693 2.61157 9.75835C2.61157 9.76978 2.62036 9.77904 2.63119 9.77904Z" fill="white"/>
<path d="M2.93881 9.28612C2.94964 9.28612 2.95843 9.27686 2.95843 9.26543C2.95843 9.25401 2.94964 9.24475 2.93881 9.24475C2.92797 9.24475 2.91919 9.25401 2.91919 9.26543C2.91919 9.27686 2.92797 9.28612 2.93881 9.28612Z" fill="white"/>
<path d="M3.13217 9.28612C3.143 9.28612 3.15179 9.27686 3.15179 9.26543C3.15179 9.25401 3.143 9.24475 3.13217 9.24475C3.12133 9.24475 3.11255 9.25401 3.11255 9.26543C3.11255 9.27686 3.12133 9.28612 3.13217 9.28612Z" fill="white"/>
<path d="M3.32553 9.28612C3.33636 9.28612 3.34515 9.27686 3.34515 9.26543C3.34515 9.25401 3.33636 9.24475 3.32553 9.24475C3.31469 9.24475 3.30591 9.25401 3.30591 9.26543C3.30591 9.27686 3.31469 9.28612 3.32553 9.28612Z" fill="white"/>
<path d="M3.01791 9.20457C3.02875 9.20457 3.03753 9.19531 3.03753 9.18389C3.03753 9.17247 3.02875 9.16321 3.01791 9.16321C3.00708 9.16321 2.99829 9.17247 2.99829 9.18389C2.99829 9.19531 3.00708 9.20457 3.01791 9.20457Z" fill="white"/>
<path d="M3.24643 9.20457C3.25726 9.20457 3.26605 9.19531 3.26605 9.18389C3.26605 9.17247 3.25726 9.16321 3.24643 9.16321C3.23559 9.16321 3.22681 9.17247 3.22681 9.18389C3.22681 9.19531 3.23559 9.20457 3.24643 9.20457Z" fill="white"/>
<path d="M3.01498 9.36388C3.02582 9.36388 3.0346 9.35462 3.0346 9.34319C3.0346 9.33177 3.02582 9.32251 3.01498 9.32251C3.00415 9.32251 2.99536 9.33177 2.99536 9.34319C2.99536 9.35462 3.00415 9.36388 3.01498 9.36388Z" fill="white"/>
<path d="M3.24643 9.36766C3.25726 9.36766 3.26605 9.3584 3.26605 9.34698C3.26605 9.33555 3.25726 9.32629 3.24643 9.32629C3.23559 9.32629 3.22681 9.33555 3.22681 9.34698C3.22681 9.3584 3.23559 9.36766 3.24643 9.36766Z" fill="white"/>
<path d="M2.3237 8.88206C2.33453 8.88206 2.34332 8.8728 2.34332 8.86138C2.34332 8.84996 2.33453 8.8407 2.3237 8.8407C2.31286 8.8407 2.30408 8.84996 2.30408 8.86138C2.30408 8.8728 2.31286 8.88206 2.3237 8.88206Z" fill="white"/>
<path d="M2.51706 8.88206C2.52789 8.88206 2.53668 8.8728 2.53668 8.86138C2.53668 8.84996 2.52789 8.8407 2.51706 8.8407C2.50622 8.8407 2.49744 8.84996 2.49744 8.86138C2.49744 8.8728 2.50622 8.88206 2.51706 8.88206Z" fill="white"/>
<path d="M2.71029 8.8784C2.72113 8.8784 2.72991 8.86914 2.72991 8.85772C2.72991 8.8463 2.72113 8.83704 2.71029 8.83704C2.69946 8.83704 2.69067 8.8463 2.69067 8.85772C2.69067 8.86914 2.69946 8.8784 2.71029 8.8784Z" fill="white"/>
<path d="M2.39987 8.80052C2.4107 8.80052 2.41949 8.79126 2.41949 8.77984C2.41949 8.76842 2.4107 8.75916 2.39987 8.75916C2.38903 8.75916 2.38025 8.76842 2.38025 8.77984C2.38025 8.79126 2.38903 8.80052 2.39987 8.80052Z" fill="white"/>
<path d="M2.63119 8.80052C2.64203 8.80052 2.65081 8.79126 2.65081 8.77984C2.65081 8.76842 2.64203 8.75916 2.63119 8.75916C2.62036 8.75916 2.61157 8.76842 2.61157 8.77984C2.61157 8.79126 2.62036 8.80052 2.63119 8.80052Z" fill="white"/>
<path d="M2.39987 8.95994C2.4107 8.95994 2.41949 8.95068 2.41949 8.93926C2.41949 8.92784 2.4107 8.91858 2.39987 8.91858C2.38903 8.91858 2.38025 8.92784 2.38025 8.93926C2.38025 8.95068 2.38903 8.95994 2.39987 8.95994Z" fill="white"/>
<path d="M2.63119 8.96361C2.64203 8.96361 2.65081 8.95435 2.65081 8.94292C2.65081 8.9315 2.64203 8.92224 2.63119 8.92224C2.62036 8.92224 2.61157 8.9315 2.61157 8.94292C2.61157 8.95435 2.62036 8.96361 2.63119 8.96361Z" fill="white"/>
<path d="M1.70565 9.29344C1.71649 9.29344 1.72527 9.28418 1.72527 9.27276C1.72527 9.26134 1.71649 9.25208 1.70565 9.25208C1.69482 9.25208 1.68604 9.26134 1.68604 9.27276C1.68604 9.28418 1.69482 9.29344 1.70565 9.29344Z" fill="white"/>
<path d="M1.89889 9.29344C1.90973 9.29344 1.91851 9.28418 1.91851 9.27276C1.91851 9.26134 1.90973 9.25208 1.89889 9.25208C1.88806 9.25208 1.87927 9.26134 1.87927 9.27276C1.87927 9.28418 1.88806 9.29344 1.89889 9.29344Z" fill="white"/>
<path d="M2.09225 9.28978C2.10309 9.28978 2.11187 9.28052 2.11187 9.2691C2.11187 9.25767 2.10309 9.24841 2.09225 9.24841C2.08142 9.24841 2.07263 9.25767 2.07263 9.2691C2.07263 9.28052 2.08142 9.28978 2.09225 9.28978Z" fill="white"/>
<path d="M1.78463 9.2119C1.79547 9.2119 1.80425 9.20264 1.80425 9.19122C1.80425 9.17979 1.79547 9.17053 1.78463 9.17053C1.7738 9.17053 1.76501 9.17979 1.76501 9.19122C1.76501 9.20264 1.7738 9.2119 1.78463 9.2119Z" fill="white"/>
<path d="M2.01315 9.2119C2.02399 9.2119 2.03277 9.20264 2.03277 9.19122C2.03277 9.17979 2.02399 9.17053 2.01315 9.17053C2.00231 9.17053 1.99353 9.17979 1.99353 9.19122C1.99353 9.20264 2.00231 9.2119 2.01315 9.2119Z" fill="white"/>
<path d="M1.7817 9.37132C1.79254 9.37132 1.80132 9.36206 1.80132 9.35064C1.80132 9.33922 1.79254 9.32996 1.7817 9.32996C1.77087 9.32996 1.76208 9.33922 1.76208 9.35064C1.76208 9.36206 1.77087 9.37132 1.7817 9.37132Z" fill="white"/>
<path d="M2.01315 9.37498C2.02399 9.37498 2.03277 9.36572 2.03277 9.3543C2.03277 9.34288 2.02399 9.33362 2.01315 9.33362C2.00231 9.33362 1.99353 9.34288 1.99353 9.3543C1.99353 9.36572 2.00231 9.37498 2.01315 9.37498Z" fill="white"/>
<path fill-rule="evenodd" clip-rule="evenodd" d="M2.81934 7.49414L2.95117 7.42969L3.08594 7.49414H2.81934ZM2.4209 7.49414L2.55273 7.42969L2.6875 7.49414H2.4209ZM2.02246 7.49414L2.1543 7.42969L2.28906 7.49414H2.02246ZM2.81934 6.05859L2.95117 6.12305L3.08594 6.06152H2.81934V6.05859ZM2.4209 6.05859L2.55273 6.12305L2.6875 6.06152H2.4209V6.05859ZM2.02246 6.05859L2.1543 6.12305L2.28906 6.06152H2.02246V6.05859Z" fill="white"/>
<path fill-rule="evenodd" clip-rule="evenodd" d="M2.70801 7.67871L2.55273 7.80469L2.39746 7.67871L2.24219 7.80469L2.08691 7.67871V7.74316L2.19238 7.80176L2.13965 7.86621V7.92773H2.19238L2.24219 7.86914L2.29492 7.92773H2.34766V7.86914L2.29492 7.80469L2.39746 7.74316L2.50293 7.80176L2.4502 7.86621V7.92773H2.50293L2.55273 7.86914L2.60547 7.92773H2.65527V7.86914L2.60547 7.80469L2.70801 7.74316L2.81055 7.80176L2.76074 7.86621V7.92773H2.81055L2.86328 7.86914L2.91602 7.92773H2.96582V7.86914L2.91602 7.80469L3.01855 7.74316V7.67578L2.86328 7.80176L2.70801 7.67578V7.67871ZM2.70801 5.87402L2.55273 5.74805L2.39746 5.87402L2.24219 5.74805L2.08691 5.87402V5.8125L2.19238 5.74805L2.13965 5.68945V5.625H2.19238L2.24219 5.68652L2.29492 5.625H2.34766V5.68652L2.29492 5.75098L2.39746 5.80957L2.50293 5.75098L2.4502 5.68652V5.625H2.50293L2.55273 5.68652L2.60547 5.625H2.65527V5.68652L2.60547 5.75098L2.70801 5.80957L2.81055 5.75098L2.76074 5.68652V5.625H2.81055L2.86328 5.68652L2.91602 5.625H2.96582V5.68652L2.91602 5.75098L3.01855 5.80957V5.87402L2.86328 5.74805L2.70801 5.87402ZM3.87988 6.91113L4.0498 6.77637L3.88281 6.6416L4.0498 6.50684L3.88281 6.37207H3.96484L4.0498 6.45996L4.13184 6.41602H4.21387V6.46289L4.13184 6.50684L4.21387 6.55078V6.59766H4.13184L4.0498 6.55078L3.96484 6.6416L4.0498 6.72949L4.13184 6.68848H4.21387V6.73242L4.13184 6.77637L4.21387 6.82031V6.86719H4.13184L4.0498 6.82031L3.96484 6.91113L4.0498 6.99902L4.13184 6.95508H4.21387V7.00195L4.13184 7.0459L4.21387 7.09277V7.13672H4.13184L4.0498 7.09277L3.96484 7.18066H3.88281L4.0498 7.0459L3.88281 6.91113H3.87988ZM1.22559 6.91113L1.05859 6.77637L1.22559 6.6416L1.05859 6.50684L1.22559 6.37207H1.14062L1.05859 6.45996L0.976562 6.41602H0.888672V6.46289L0.976562 6.50391L0.891602 6.54785V6.59473H0.976562L1.05859 6.54785L1.14062 6.63867L1.05859 6.72656L0.976562 6.68555H0.888672V6.72949L0.973633 6.77344L0.888672 6.81738V6.86426H0.976562L1.05859 6.81738L1.14062 6.9082L1.05859 6.99902L0.976562 6.95508H0.888672V6.99902L0.973633 7.04297L0.888672 7.08984V7.13379H0.976562L1.05859 7.08984L1.14062 7.17773H1.22559L1.05859 7.04297L1.22559 6.9082V6.91113Z" fill="#00843D"/>
<path fill-rule="evenodd" clip-rule="evenodd" d="M3.94604 7.37027H4.01353V7.43001H3.94604V7.37027ZM3.87855 7.43001H3.94604V7.49327H3.8823L3.87855 7.43001ZM3.5486 7.74277H3.61609V7.80603H3.5486V7.74277ZM3.61609 7.67952H3.67983V7.74277H3.61609V7.67952ZM1.42269 7.67952H1.49018V7.74277H1.41894L1.42269 7.67952ZM1.08899 7.37027H1.15648V7.43001H1.08899V7.37027ZM1.15648 7.43001H1.22397V7.49327H1.15648V7.43001ZM1.15648 6.05949H1.22397V6.12274H1.15648V6.05949ZM1.08899 6.12274H1.15648V6.186H1.08899V6.12274ZM1.49018 5.75024H1.55392V5.8135H1.49393L1.49018 5.75024ZM1.42269 5.8135H1.49018V5.87675H1.41894L1.42269 5.8135ZM3.5486 5.75024H3.61609V5.8135H3.5486V5.75024ZM3.61609 5.8135H3.67983V5.87675H3.61609V5.8135ZM3.87855 6.05949H3.94604V6.12274H3.8823L3.87855 6.05949ZM3.94604 6.12626H4.01353V6.186H3.94604V6.12626ZM1.49393 7.74277H1.55767V7.80603H1.49393V7.74277Z" fill="#00843D"/>
<path d="M3.94604 7.43001H4.01353V7.37027H3.94604V7.43001ZM3.94604 7.43001H3.87855L3.8823 7.49327H3.94604V7.43001ZM3.61609 7.74277H3.5486V7.80603H3.61609V7.74277ZM3.61609 7.74277H3.67983V7.67952H3.61609V7.74277ZM1.15648 7.43001V7.37027H1.08899V7.43001H1.15648ZM1.15648 7.43001H1.22397V7.49327H1.15648V7.43001ZM1.15648 6.12274H1.22397V6.05949H1.15648V6.12274ZM1.15648 6.12274H1.08899V6.186H1.15648V6.12274ZM3.61609 5.8135V5.75024H3.5486V5.8135H3.61609ZM3.61609 5.8135H3.67983V5.87675H3.61609V5.8135ZM1.42269 7.67952H1.49018V7.74277H1.41894L1.42269 7.67952ZM1.49018 5.75024H1.55392V5.8135H1.49393L1.49018 5.75024ZM1.42269 5.8135H1.49018V5.87675H1.41894L1.42269 5.8135ZM3.87855 6.05949H3.94604V6.12274H3.8823L3.87855 6.05949ZM3.94604 6.12626H4.01353V6.186H3.94604V6.12626ZM1.49393 7.74277H1.55767V7.80603H1.49393V7.74277Z" stroke="black" stroke-width="0.0174234"/>
<path fill-rule="evenodd" clip-rule="evenodd" d="M2.35059 6.77637H2.1543V6.65332H2.28613V6.53906H2.41504V6.43359H2.54688V6.56543C2.43848 6.56543 2.35059 6.65332 2.35059 6.77637Z" fill="white"/>
<path fill-rule="evenodd" clip-rule="evenodd" d="M2.74316 6.77637H2.93945V6.65332H2.80762V6.53906H2.67578V6.43359H2.54688V6.56543C2.65527 6.56543 2.74316 6.65332 2.74316 6.77637Z" fill="#FAAE29"/>
<path fill-rule="evenodd" clip-rule="evenodd" d="M2.74316 6.77637H2.93945V6.89941H2.80762V7.01367H2.67578V7.11914H2.54688V6.9873C2.65527 6.9873 2.74316 6.89941 2.74316 6.77637Z" fill="white"/>
<path fill-rule="evenodd" clip-rule="evenodd" d="M2.35059 6.77637H2.1543V6.89941H2.28613V7.01367H2.41504V7.11914H2.54688V6.9873C2.43848 6.9873 2.35059 6.89941 2.35059 6.77637Z" fill="#FAAE29"/>
<path fill-rule="evenodd" clip-rule="evenodd" d="M2.74316 6.77637H2.54688V6.56543C2.65527 6.56543 2.74316 6.66211 2.74316 6.77637Z" fill="#00843D"/>
<path fill-rule="evenodd" clip-rule="evenodd" d="M2.74316 6.77637H2.54688V6.9873C2.65527 6.9873 2.74316 6.89355 2.74316 6.77637Z" fill="#CA3745"/>
<path fill-rule="evenodd" clip-rule="evenodd" d="M2.35059 6.77637H2.54688V6.9873C2.43848 6.9873 2.35059 6.89355 2.35059 6.77637Z" fill="#00843D"/>
<path fill-rule="evenodd" clip-rule="evenodd" d="M2.35059 6.77637H2.54688V6.56543C2.43848 6.56543 2.35059 6.66211 2.35059 6.77637Z" fill="#CA3745"/>
<path fill-rule="evenodd" clip-rule="evenodd" d="M2.75195 7.55566L2.55273 7.42969L2.35352 7.55566L2.1543 7.42969L1.95508 7.55566V7.49414L2.08691 7.42969L2.02246 7.36816V7.30664H2.08691L2.1543 7.36816L2.22168 7.30664H2.28906V7.36816L2.22168 7.42969L2.35352 7.49414L2.48828 7.42969L2.4209 7.36816V7.30664H2.48828L2.55273 7.36816L2.62012 7.30664H2.6875V7.36816L2.62012 7.42969L2.75195 7.49414L2.88672 7.42969L2.81934 7.36816V7.30664H2.88672L2.95117 7.36816L3.01855 7.30664H3.08594V7.36816L3.01855 7.42969L3.15039 7.49414V7.55273L2.95117 7.42969L2.75195 7.55566ZM2.75195 6L2.55273 6.12305L2.35352 6L2.1543 6.12305L1.95508 6V6.05859L2.08691 6.12305L2.02246 6.18457V6.24902H2.08691L2.1543 6.18457L2.22168 6.24902H2.28906V6.18164L2.22168 6.12305L2.35352 6.05859L2.48828 6.12012L2.4209 6.18164V6.24609H2.48828L2.55273 6.18164L2.62012 6.24609H2.6875V6.18164L2.62012 6.12305L2.75195 6.05859L2.88672 6.12012L2.81934 6.18164V6.24609H2.88672L2.95117 6.18164L3.01855 6.24609H3.08594V6.18164L3.01855 6.12305L3.15039 6.05859V5.99707L2.95117 6.12012L2.75195 5.99707V6ZM3.48438 6.93164L3.38477 6.77637L3.48438 6.62109L3.38477 6.46582L3.48438 6.31055H3.43457L3.38477 6.41309L3.33496 6.36035H3.28516V6.41309L3.33496 6.46582L3.28516 6.51855V6.56836H3.33496L3.38477 6.51855L3.43457 6.62109L3.38477 6.72363L3.33496 6.67383H3.28516V6.72363L3.33496 6.77637L3.28516 6.8291V6.88184H3.33496L3.38477 6.8291L3.43457 6.93164L3.38477 7.03711L3.33496 6.98437H3.28516V7.03711L3.33496 7.08691L3.28516 7.13965V7.19238H3.33496L3.38477 7.13965L3.43457 7.24512H3.48438L3.38477 7.08691L3.48438 6.93164Z" fill="#00843D"/>
<path fill-rule="evenodd" clip-rule="evenodd" d="M1.95623 6.06306L1.69377 6.30905V7.24381L1.95623 7.49332H3.15605L3.4185 7.24733V6.31256L3.1523 6.06306H1.95623ZM1.88874 5.87329L1.2251 6.49881V7.06108L1.89249 7.67957H3.21979L3.88343 7.05756V6.4953L3.21979 5.87329H1.89249H1.88874Z" fill="#00843D" stroke="black" stroke-width="0.0232312"/>
<path fill-rule="evenodd" clip-rule="evenodd" d="M2.23225 7.5542L2.33723 7.68071L2.44521 7.5542H2.22925H2.23225Z" fill="#FAAE29" stroke="black" stroke-width="0.0127242"/>
<path fill-rule="evenodd" clip-rule="evenodd" d="M2.23225 5.99854L2.33723 5.87203L2.44521 5.99854H2.22925H2.23225Z" fill="#FAAE29" stroke="black" stroke-width="0.0127242"/>
<path fill-rule="evenodd" clip-rule="evenodd" d="M2.65998 5.99854L2.76497 5.87203L2.87295 5.99854H2.65698H2.65998Z" fill="#FAAE29" stroke="black" stroke-width="0.0127242"/>
<path fill-rule="evenodd" clip-rule="evenodd" d="M2.65998 7.5542L2.76497 7.68071L2.87295 7.5542H2.65698H2.65998Z" fill="#FAAE29" stroke="black" stroke-width="0.0127242"/>
<path fill-rule="evenodd" clip-rule="evenodd" d="M2.02131 5.99854L2.12629 5.87203L2.23428 5.99854H2.01831H2.02131Z" fill="#CA3745" stroke="black" stroke-width="0.0127242"/>
<path fill-rule="evenodd" clip-rule="evenodd" d="M2.44611 5.99854L2.5511 5.87203L2.65908 5.99854H2.44312H2.44611Z" fill="#CA3745" stroke="black" stroke-width="0.0127242"/>
<path fill-rule="evenodd" clip-rule="evenodd" d="M2.87092 5.99854L2.9759 5.87203L3.08389 5.99854H2.86792H2.87092Z" fill="#CA3745" stroke="black" stroke-width="0.0127242"/>
<path fill-rule="evenodd" clip-rule="evenodd" d="M1.75879 7.36826L1.95562 7.55273H1.75879V7.36826Z" fill="#CA3745" stroke="black" stroke-width="0.0261334"/>
<path fill-rule="evenodd" clip-rule="evenodd" d="M1.62109 6.93164L1.72363 6.77637L1.62109 6.62109L1.7207 6.46582L1.62109 6.31055H1.6709L1.7207 6.41309L1.77051 6.36035H1.82031V6.41309L1.77051 6.46582L1.82031 6.51855V6.56836H1.77051L1.7207 6.51855L1.6709 6.62109L1.7207 6.72363L1.77051 6.67383H1.82031V6.72363L1.77051 6.77637L1.82031 6.8291V6.88184H1.77051L1.7207 6.8291L1.6709 6.93164L1.7207 7.03711L1.77051 6.98437H1.82031V7.03711L1.77051 7.08691L1.82031 7.13965V7.19238H1.77051L1.7207 7.13965L1.6709 7.24512H1.62109L1.7207 7.08691L1.62109 6.93164Z" fill="#00843D"/>
<path fill-rule="evenodd" clip-rule="evenodd" d="M3.54822 6.60827H3.81443L3.88192 6.6652L3.81443 6.72213H3.55197V6.6051L3.54822 6.60827Z" fill="#CA3745" stroke="black" stroke-width="0.0165295"/>
<path fill-rule="evenodd" clip-rule="evenodd" d="M1.75719 6.18604L1.62221 6.31255V7.2438L1.75719 7.37031H1.55847V6.18604H1.75719Z" fill="#CA3745" stroke="black" stroke-width="0.0232312"/>
<path fill-rule="evenodd" clip-rule="evenodd" d="M2.02131 7.5542L2.12629 7.68071L2.23428 7.5542H2.01831H2.02131Z" fill="#CA3745" stroke="black" stroke-width="0.0127242"/>
<path fill-rule="evenodd" clip-rule="evenodd" d="M2.44611 7.5542L2.5511 7.68071L2.65908 7.5542H2.44312H2.44611Z" fill="#CA3745" stroke="black" stroke-width="0.0127242"/>
<path fill-rule="evenodd" clip-rule="evenodd" d="M2.87092 7.5542L2.9759 7.68071L3.08389 7.5542H2.86792H2.87092Z" fill="#CA3745" stroke="black" stroke-width="0.0127242"/>
<path fill-rule="evenodd" clip-rule="evenodd" d="M3.34828 6.18604L3.48326 6.31255V7.2438L3.34828 7.37031H3.547V6.18604H3.34828Z" fill="#CA3745" stroke="black" stroke-width="0.0232312"/>
<path fill-rule="evenodd" clip-rule="evenodd" d="M3.34961 7.36826L3.15278 7.55273H3.34961V7.36826Z" fill="#CA3745" stroke="black" stroke-width="0.0261334"/>
<path fill-rule="evenodd" clip-rule="evenodd" d="M3.34961 6.18448L3.15278 6H3.34961V6.18448Z" fill="#CA3745" stroke="black" stroke-width="0.0261334"/>
<path fill-rule="evenodd" clip-rule="evenodd" d="M1.75879 6.18448L1.95562 6H1.75879V6.18448Z" fill="#CA3745" stroke="black" stroke-width="0.0261334"/>
<path fill-rule="evenodd" clip-rule="evenodd" d="M1.95629 6.06301L1.69383 6.309V7.24377L1.95629 7.49327H3.1561L3.41856 7.24728V6.31252L3.15235 6.06301H1.95629ZM1.95629 5.99976L1.62634 6.309V7.24377L1.95629 7.55653H3.1561L3.48605 7.24377V6.309L3.15235 5.99976H1.95629Z" fill="#00843D" stroke="black" stroke-width="0.0232312"/>
<path fill-rule="evenodd" clip-rule="evenodd" d="M3.54822 6.71996H3.81443L3.88192 6.77689L3.81443 6.83383H3.55197V6.7168L3.54822 6.71996Z" fill="#FAAE29" stroke="black" stroke-width="0.0165301"/>
<path fill-rule="evenodd" clip-rule="evenodd" d="M3.54822 6.83092H3.81443L3.88192 6.88785L3.81443 6.94478H3.55197V6.82776L3.54822 6.83092Z" fill="#CA3745" stroke="black" stroke-width="0.0165295"/>
<path fill-rule="evenodd" clip-rule="evenodd" d="M3.54822 6.94262H3.81443L3.88192 6.99955L3.81443 7.05649H3.55197V6.93945L3.54822 6.94262Z" fill="#FAAE29" stroke="black" stroke-width="0.0165301"/>
<path fill-rule="evenodd" clip-rule="evenodd" d="M3.54822 6.49437H3.81443L3.88192 6.55131L3.81443 6.60824H3.55197V6.49121L3.54822 6.49437Z" fill="#FAAE29" stroke="black" stroke-width="0.0165301"/>
<path fill-rule="evenodd" clip-rule="evenodd" d="M1.55725 6.60827H1.29104L1.22355 6.6652L1.29104 6.72213H1.5535V6.6051L1.55725 6.60827Z" fill="#CA3745" stroke="black" stroke-width="0.0165295"/>
<path fill-rule="evenodd" clip-rule="evenodd" d="M1.55725 6.71996H1.29104L1.22355 6.77689L1.29104 6.83383H1.5535V6.7168L1.55725 6.71996Z" fill="#FAAE29" stroke="black" stroke-width="0.0165301"/>
<path fill-rule="evenodd" clip-rule="evenodd" d="M1.55725 6.83092H1.29104L1.22355 6.88785L1.29104 6.94478H1.5535V6.82776L1.55725 6.83092Z" fill="#CA3745" stroke="black" stroke-width="0.0165295"/>
<path fill-rule="evenodd" clip-rule="evenodd" d="M1.55725 6.94262H1.29104L1.22355 6.99955L1.29104 7.05649H1.5535V6.93945L1.55725 6.94262Z" fill="#FAAE29" stroke="black" stroke-width="0.0165301"/>
<path fill-rule="evenodd" clip-rule="evenodd" d="M1.55725 6.49437H1.29104L1.22355 6.55131L1.29104 6.60824H1.5535V6.49121L1.55725 6.49437Z" fill="#FAAE29" stroke="black" stroke-width="0.0165301"/>
<path fill-rule="evenodd" clip-rule="evenodd" d="M1.15649 6.12626V7.4265H1.49019V7.73926H3.61611V7.4265H3.94606V6.12626H3.61611V5.81702H1.49019V6.12626H1.15649ZM1.22398 6.186V7.37028H1.55393V7.67952H3.54862V7.37028H3.88232V6.186H3.54862V5.88027H1.55393V6.18952H1.22398V6.186Z" fill="#970000" stroke="black" stroke-width="0.0174234"/>
<path fill-rule="evenodd" clip-rule="evenodd" d="M4.21252 1.25993L4.0138 1.01999V0.840882L3.81508 0.661774H3.41764L3.08394 0.482666H2.02286L1.68916 0.661774H1.29172L1.09301 0.840882V1.01999L0.894287 1.25655V1.7398L1.09301 1.97636V2.15885L1.29172 2.33795H1.68916L2.02286 2.51706H3.08394L3.41764 2.33795H3.81508L4.01755 2.15885V1.97974L4.21627 1.7398V1.25655L4.21252 1.25993Z" fill="#CA3745" stroke="black" stroke-width="0.0170861"/>
<path fill-rule="evenodd" clip-rule="evenodd" d="M0.958984 1.5V1.67871L1.1582 1.91895V2.09766L1.35742 2.2793H1.75586L2.08984 2.45508H2.55273V1.50293H0.958984V1.5Z" fill="#FAAE29"/>
<path fill-rule="evenodd" clip-rule="evenodd" d="M1.99316 1.91895L1.75 2.07422H1.60352L1.65332 2.12402L1.55664 2.22656L1.60645 2.2793L1.75293 2.22656L1.7998 2.2793L1.82031 2.1416L2.08984 1.97754L1.99316 1.91895Z" fill="#CA3745"/>
<path fill-rule="evenodd" clip-rule="evenodd" d="M1.72656 1.79883L1.4834 1.9541H1.33984L1.38672 2.00391L1.29297 2.10645L1.33984 2.15918L1.48633 2.10645L1.5332 2.15918L1.55664 2.02148L1.82324 1.86035L1.72656 1.80176V1.79883ZM1.59473 1.55859L1.35156 1.71387H1.20508L1.25488 1.7666L1.1582 1.86914L1.20801 1.91895L1.35449 1.86621L1.40137 1.91895L1.42188 1.78125L1.69141 1.62012L1.59473 1.56152V1.55859Z" fill="#CA3745"/>
<path fill-rule="evenodd" clip-rule="evenodd" d="M4.14648 1.5V1.32129L3.94727 1.08105V0.902344L3.74805 0.720703H3.34961L3.01855 0.541992H2.55273V1.5H4.14648Z" fill="#FAAE29"/>
<path fill-rule="evenodd" clip-rule="evenodd" d="M2.55273 2.45801H2.42969L2.28906 2.33789H2.06055L1.9375 2.2793L1.99902 2.2207L2.12207 2.2793H2.24512L2.36816 2.09766L2.55273 2.15625V2.2793H2.36816L2.55273 2.45508V2.45801Z" fill="#CA3745"/>
<path fill-rule="evenodd" clip-rule="evenodd" d="M0.958984 1.5V1.32129L1.1582 1.08105V0.902344L1.35742 0.720703H1.75586L2.08984 0.541992H2.55273V1.5H0.958984Z" fill="white"/>
<path fill-rule="evenodd" clip-rule="evenodd" d="M2.55273 0.541992H2.42969L2.28906 0.65918H2.06055L1.9375 0.720703L1.99902 0.779297L2.12207 0.720703H2.24512L2.36816 0.902344L2.55273 0.84375V0.720703H2.36816L2.55273 0.541992Z" fill="#CA3745"/>
<path fill-rule="evenodd" clip-rule="evenodd" d="M2.55273 0.541992H2.67578L2.81934 0.65918H3.04492L3.16797 0.720703L3.10938 0.779297L2.9834 0.720703H2.86035L2.7373 0.902344L2.55273 0.84375V0.720703H2.7373L2.55273 0.541992Z" fill="#CA3745"/>
<path fill-rule="evenodd" clip-rule="evenodd" d="M4.14648 1.5V1.67871L3.94727 1.91895V2.09766L3.74805 2.2793H3.34961L3.01855 2.45508H2.55273V1.50293H4.14648V1.5Z" fill="white"/>
<path fill-rule="evenodd" clip-rule="evenodd" d="M2.55273 2.45801H2.67578L2.81934 2.33789H3.04492L3.16797 2.2793L3.10938 2.2207L2.9834 2.2793H2.86035L2.7373 2.09766L2.55273 2.15625V2.2793H2.7373L2.55273 2.45508V2.45801ZM1.72656 1.19824L1.4834 1.0459H1.33984L1.38672 0.996094L1.29297 0.893555L1.33984 0.84082L1.48633 0.893555L1.5332 0.84082L1.55664 0.978516L1.82324 1.13965L1.72656 1.19824ZM3.11523 1.08105L3.35547 0.925781H3.50195L3.45215 0.875977L3.54883 0.773437L3.50195 0.720703L3.35547 0.773437L3.30859 0.720703L3.28516 0.858398L3.01855 1.02246L3.11523 1.08105Z" fill="#CA3745"/>
<path fill-rule="evenodd" clip-rule="evenodd" d="M1.99316 1.08105L1.75 0.925781H1.60352L1.65332 0.875977L1.55664 0.773437L1.60645 0.720703L1.75293 0.773437L1.7998 0.720703L1.82031 0.858398L2.08984 1.01953L1.99316 1.07812V1.08105ZM1.5918 1.44141L1.34863 1.28613H1.20215L1.25195 1.2334L1.15527 1.13086L1.21094 1.08398L1.35742 1.13672L1.4043 1.08398L1.4248 1.22168L1.69434 1.38281L1.59766 1.44141H1.5918Z" fill="#CA3745"/>
<path fill-rule="evenodd" clip-rule="evenodd" d="M1.0791 1.5H1.1377L1.19922 1.55859L1.26074 1.5H2.55273V2.33789H2.49414L2.55273 2.39648V2.46094L2.36816 2.28223V2.22363H2.42969V2.28223H2.49121V2.22363L1.99316 1.95996H1.57129V1.69629L1.38672 1.56445H1.26367L1.20215 1.62305L1.26074 1.68164H1.20215L1.0791 1.50586V1.5Z" fill="white"/>
<path fill-rule="evenodd" clip-rule="evenodd" d="M1.0791 1.5H1.1377L1.19922 1.44141L1.26074 1.5H2.55273V0.662109H2.49414L2.55273 0.603516V0.541992L2.36816 0.720703V0.779297H2.42969V0.720703H2.49121V0.779297L1.99316 1.0459H1.57129V1.30664L1.38672 1.44141H1.26367L1.20215 1.38281L1.26074 1.32129H1.20215L1.0791 1.5Z" fill="#FAAE29"/>
<path fill-rule="evenodd" clip-rule="evenodd" d="M1.35742 1.5H2.55273V2.21777L2.02246 1.91895H1.62402V1.67871L1.36035 1.5H1.35742Z" fill="#00843D"/>
<path fill-rule="evenodd" clip-rule="evenodd" d="M3.37891 1.20117L3.62207 1.0459H3.76855L3.71875 0.996094L3.81543 0.893555L3.76855 0.84082L3.62207 0.893555L3.5752 0.84082L3.55176 0.978516L3.28516 1.13965L3.37891 1.19824V1.20117ZM3.51367 1.44141L3.75684 1.28613H3.90039L3.85059 1.2334L3.94727 1.13086L3.90039 1.08105L3.75391 1.13379L3.70703 1.08105L3.68359 1.21875L3.41699 1.37988L3.51367 1.43848V1.44141Z" fill="#CA3745"/>
<path fill-rule="evenodd" clip-rule="evenodd" d="M4.0293 1.5H3.96777L3.90625 1.44141L3.84473 1.5H2.55273V0.662109H2.61426L2.55273 0.603516V0.541992L2.7373 0.720703V0.779297H2.67578V0.720703H2.61426V0.779297L3.1123 1.0459H3.53418V1.30664L3.72168 1.44141H3.84473L3.90332 1.38281L3.84473 1.32129H3.90332L4.0293 1.5Z" fill="white"/>
<path fill-rule="evenodd" clip-rule="evenodd" d="M3.74805 1.5H2.55273V0.782227L3.08594 1.08105H3.48437V1.32129L3.75098 1.5H3.74805Z" fill="#00843D"/>
<path fill-rule="evenodd" clip-rule="evenodd" d="M3.11523 1.91895L3.35547 2.07422H3.50195L3.45215 2.12402L3.54883 2.22656L3.50195 2.2793L3.35547 2.22656L3.30859 2.2793L3.28516 2.1416L3.01855 1.97754L3.11523 1.91895Z" fill="#CA3745"/>
<path fill-rule="evenodd" clip-rule="evenodd" d="M3.37891 1.79883L3.62207 1.9541H3.76855L3.71875 2.00391L3.81543 2.10645L3.76855 2.15918L3.62207 2.10645L3.5752 2.15918L3.55176 2.02148L3.28516 1.86035L3.37891 1.80176V1.79883ZM3.51367 1.55859L3.75684 1.71387H3.90039L3.85059 1.76367L3.94727 1.86621L3.90039 1.91895L3.75391 1.86621L3.70703 1.91895L3.68359 1.78125L3.41699 1.62012L3.51367 1.56152V1.55859Z" fill="#CA3745"/>
<path fill-rule="evenodd" clip-rule="evenodd" d="M4.0293 1.5H3.96777L3.90625 1.55859L3.84473 1.5H2.55273V2.33789H2.61426L2.55273 2.39648V2.46094L2.7373 2.28223V2.22363H2.67578V2.28223H2.61426V2.22363L3.1123 1.95996H3.53418V1.69629L3.72168 1.56445H3.84473L3.90332 1.62305L3.84473 1.68164H3.90332L4.0293 1.50586V1.5Z" fill="#FAAE29"/>
<path fill-rule="evenodd" clip-rule="evenodd" d="M3.74805 1.5H2.55273V2.21777L3.08594 1.91895H3.48438V1.67871L3.75098 1.5H3.74805ZM1.35742 1.5H2.55273V0.782227L2.02246 1.08105H1.62402V1.32129L1.36035 1.5H1.35742Z" fill="#CA3745"/>
<path fill-rule="evenodd" clip-rule="evenodd" d="M2.68457 1.5L3.01855 1.32129H3.21777L3.15039 1.2627L3.28516 1.13965L3.21777 1.08105L3.01855 1.13965L2.95117 1.08105L2.92187 1.24219L2.55273 1.42969L2.68457 1.5ZM2.4209 1.5L2.08984 1.67871H1.89062L1.95508 1.7373L1.82324 1.86035L1.89062 1.91895L2.08984 1.86035L2.1543 1.91895L2.18359 1.75781L2.55273 1.57031L2.4209 1.5Z" fill="#CA3745"/>
<path fill-rule="evenodd" clip-rule="evenodd" d="M2.4209 1.5L2.08984 1.32129H1.89062L1.95801 1.2627L1.82617 1.13965L1.89355 1.08105L2.09277 1.13965L2.15723 1.08105L2.18652 1.24219L2.55566 1.42969L2.42383 1.5H2.4209ZM2.68457 1.5L3.01855 1.67871H3.21777L3.15039 1.7373L3.28516 1.86035L3.21777 1.91895L3.01855 1.86035L2.95117 1.91895L2.92187 1.75781L2.55273 1.57031L2.68457 1.5Z" fill="#00843D"/>
<path fill-rule="evenodd" clip-rule="evenodd" d="M2.1543 1.5L2.55273 1.20117L2.95117 1.5L2.55273 1.79883L2.1543 1.5Z" fill="white"/>
<path fill-rule="evenodd" clip-rule="evenodd" d="M1.26074 1.62012L1.32227 1.67871L1.26367 1.7373H1.19922L1.01465 1.5H1.07617L1.19922 1.67871H1.26074L1.20215 1.62012L1.26074 1.56152H1.38672V1.62012H1.26367H1.26074Z" fill="#CA3745"/>
<path fill-rule="evenodd" clip-rule="evenodd" d="M1.26074 1.37988L1.32227 1.32129L1.26367 1.2627H1.19922L1.01465 1.5H1.07617L1.19922 1.32129H1.26074L1.20215 1.37988L1.26074 1.43848H1.38672V1.37988H1.26367H1.26074ZM3.84473 1.62012L3.78613 1.67871L3.84473 1.7373H3.90625L4.09082 1.5H4.03223L3.90625 1.67871H3.84766L3.90625 1.62012L3.84766 1.56152H3.72168V1.62012H3.84473Z" fill="#CA3745"/>
<path fill-rule="evenodd" clip-rule="evenodd" d="M3.84766 1.37988L3.7832 1.32129L3.84473 1.2627H3.90625L4.09082 1.5H4.03223L3.90625 1.32129H3.84766L3.90625 1.37988L3.84766 1.43848H3.72168V1.37988H3.84473H3.84766ZM2.49121 1.2627H2.61426V1.74023H2.49121V1.2627Z" fill="#CA3745"/>
<path fill-rule="evenodd" clip-rule="evenodd" d="M2.30664 1.37988H2.79883V1.62012H2.30664V1.37988Z" fill="#CA3745"/>
<path fill-rule="evenodd" clip-rule="evenodd" d="M1.99071 10.5994L0.886719 11.208V12.1998L2.00113 12.8084H3.10512L4.20912 12.1998V11.208L3.10512 10.6106H2.00113L1.99071 10.5994Z" fill="#00843D" stroke="black" stroke-width="0.0173349"/>
<path fill-rule="evenodd" clip-rule="evenodd" d="M1.30469 11.6104H1.36914V11.4844H1.50391V11.6074H1.57129V11.3203H1.50391V11.4434H1.37207V11.3203H1.30469V11.6074V11.6104ZM3.00098 12.5654H3.06836V12.4424H3.2002V12.5654H3.26758V12.2754H3.20312V12.3984H3.06836V12.2754H3.00391V12.5625L3.00098 12.5654ZM1.92871 11.1299H1.99609V11.0098H2.13086V11.1328H2.19531V10.8457H2.13086V10.9687H1.99609V10.8457H1.92871V11.1328V11.1299ZM2.91016 11.1299H2.97754V11.0098H3.1123V11.1328H3.17969V10.8457H3.1123V10.9687H2.97754V10.8457H2.91016V11.1328V11.1299ZM3.53711 11.6104H3.60156V11.4844H3.73633V11.6074H3.80371V11.3203H3.73633V11.4434H3.60156V11.3203H3.53711V11.6074V11.6104ZM3.53711 12.0879H3.60156V11.9648H3.73633V12.0879H3.80371V11.8008H3.73633V11.9238H3.60156V11.8008H3.53711V12.0879Z" fill="#CC0000"/>
<path fill-rule="evenodd" clip-rule="evenodd" d="M2.55273 12.7559V11.7041H4.16113V12.1816L3.08594 12.7559H2.5498H2.55273ZM2.55273 10.6553V11.7041H0.947266V11.2266L2.0166 10.6553H2.55273Z" fill="#FAAE29"/>
<path fill-rule="evenodd" clip-rule="evenodd" d="M2.55273 10.6553V11.7041H4.16113V11.2266L3.08594 10.6553H2.5498H2.55273ZM2.55273 12.7559V11.7041H0.947266V12.1816L2.0166 12.7559H2.55273Z" fill="white"/>
<path fill-rule="evenodd" clip-rule="evenodd" d="M3.4115 11.2769H4.05556L3.4115 10.9912V11.2769ZM4.16139 11.2284V11.7055H3.14541V11.3254H2.93073L2.66162 11.1826V10.8483L2.8249 10.7028H2.61021V11.1826H2.55579V10.657H3.09099L4.16139 11.2284Z" fill="#FAAE29" stroke="black" stroke-width="0.00456768"/>
<path fill-rule="evenodd" clip-rule="evenodd" d="M2.0166 11.3701V12.041H2.17773L2.55273 12.2344L2.92773 12.041H3.08887V11.373H2.92773L2.55273 11.1826L2.17773 11.373H2.0166V11.3701Z" fill="#CA3745"/>
<path fill-rule="evenodd" clip-rule="evenodd" d="M1.6969 12.1342H1.05284L1.6969 12.4199V12.1342ZM0.947011 12.1827V11.7057H1.96298V12.0857H2.17767L2.44678 12.2286V12.5628L2.2835 12.7083H2.49819V12.2286H2.55261V12.7542H2.01741L0.947011 12.1827Z" fill="#FAAE29" stroke="black" stroke-width="0.00456768"/>
<path fill-rule="evenodd" clip-rule="evenodd" d="M1.6969 11.2769H1.05284L1.6969 10.9912V11.2769ZM0.947011 11.2284V11.7055H1.96298V11.3254H2.17767L2.44678 11.1826V10.8483L2.2835 10.7028H2.49819V11.1826H2.55261V10.657H2.01741L0.947011 11.2284Z" fill="white" stroke="black" stroke-width="0.00456768"/>
<path fill-rule="evenodd" clip-rule="evenodd" d="M3.4115 12.1342H4.05556L3.4115 12.4199V12.1342ZM4.16139 12.1827V11.7057H3.14541V12.0857H2.93073L2.66162 12.2286V12.5628L2.8249 12.7083H2.61021V12.2286H2.55579V12.7542H3.09099L4.16139 12.1827Z" fill="white" stroke="black" stroke-width="0.00456768"/>
<path fill-rule="evenodd" clip-rule="evenodd" d="M1.26953 12.0879H1.33398V11.9414H1.46875V12.0879H1.53613V11.7539H1.46875V11.8975H1.33398V11.751H1.26953V12.0879ZM1.91113 12.5654H1.97852V12.4189H2.11035V12.5654H2.17773V12.2314H2.11035V12.375H1.97852V12.2285H1.91113V12.5684V12.5654ZM1.2666 11.3232H1.33398V11.4668H1.46875V11.3203H1.53613V11.6602H1.46875V11.5137H1.33398V11.6572H1.26953V11.3232H1.2666ZM1.91113 10.8457H1.97852V10.9893H2.11035V10.8428H2.17773V11.1797H2.11035V11.0361H1.97852V11.1826H1.91113V10.8457ZM2.92773 12.5654H2.99512V12.4189H3.12988V12.5654H3.19727V12.2314H3.12988V12.375H2.99512V12.2285H2.92773V12.5684V12.5654ZM3.57227 11.6572H3.63965V11.5137H3.77148V11.6602H3.83887V11.3232H3.77148V11.4668H3.64258V11.3203H3.5752V11.6602L3.57227 11.6572Z" fill="#CA3745"/>
<path fill-rule="evenodd" clip-rule="evenodd" d="M2.92773 12.5654H2.99512V12.4189H3.12988V12.5654H3.19727V12.2314H3.12988V12.375H2.99512V12.2285H2.92773V12.5684V12.5654Z" fill="#CA3745"/>
<path fill-rule="evenodd" clip-rule="evenodd" d="M2.92773 12.5654H2.99512V12.4189H3.12988V12.5654H3.19727V12.2314H3.12988V12.375H2.99512V12.2285H2.92773V12.5684V12.5654ZM3.57227 12.0879H3.63965V11.9414H3.77148V12.0879H3.83887V11.7539H3.77148V11.8945H3.64258V11.751H3.5752V12.0879H3.57227ZM2.92773 11.1797H2.99512V11.0361H3.12988V11.1826H3.19727V10.8457H3.12988V10.9893H2.99512V10.8428H2.92773V11.1797Z" fill="#CA3745"/>
<path fill-rule="evenodd" clip-rule="evenodd" d="M2.6084 11.7041L2.82227 11.5283H2.92773V11.6162H2.82227V11.6602H2.9834V11.4873H2.82227V11.3555H2.6084V11.4873H2.66113V11.3994H2.7666V11.4873L2.55273 11.6631L2.33887 11.4873V11.3994H2.44727V11.4873H2.5V11.3555H2.28613V11.4873H2.125V11.6631H2.28613V11.6191H2.17773V11.5312H2.28613L2.5 11.707L2.28613 11.8799H2.17773V11.792H2.28613V11.748H2.125V11.9238H2.28613V12.0527H2.5V11.9238H2.44727V12.0117H2.33887V11.9238L2.55273 11.748L2.7666 11.9238V12.0117H2.66113V11.9238H2.6084V12.0527H2.82227V11.9238H2.9834V11.748H2.82227V11.792H2.92773V11.8799H2.82227L2.6084 11.7041Z" fill="white"/>
<path fill-rule="evenodd" clip-rule="evenodd" d="M1.05197 4.30398L1.15478 4.19729H1.77767L2.24332 3.72839H2.86621L3.33187 4.2001H3.95476L4.05756 4.30398L3.95476 4.40787H3.32884L2.86319 4.87957H2.2403L1.77767 4.40787H1.15176L1.04895 4.30398H1.05197Z" fill="#CA3745"/>
<path fill-rule="evenodd" clip-rule="evenodd" d="M1.10486 4.31259L1.16116 4.26154H1.80303L2.28443 3.76636H2.81932L3.30354 4.26409H3.94541L3.9989 4.31514L3.94541 4.36364H3.30354L2.87281 4.81032H2.23094L1.80303 4.36364H1.15835L1.10486 4.31259Z" fill="#CA3745" stroke="black" stroke-width="0.012867"/>
<path fill-rule="evenodd" clip-rule="evenodd" d="M2.81489 4.35735L3.0205 4.56512L2.91769 4.66901L2.86327 4.61847H2.81489V4.66901L2.86629 4.72236H2.97212L3.07493 4.61847V4.51178L2.86629 4.304L3.07493 4.09342V3.98954L2.97212 3.88565H2.86629L2.81489 3.93619V3.98954H2.86629L2.92072 3.93619L3.02353 4.04288L2.81489 4.25066L2.60927 4.04288L2.81489 3.8323V3.77895H2.76348L2.55787 3.98954L2.34923 3.77895H2.29783V3.8323L2.50344 4.04288L2.29783 4.25066L2.08919 4.04288L2.19502 3.93619L2.24643 3.98954H2.29783V3.93619L2.24643 3.88565H2.1406L2.03779 3.98954V4.09342L2.24643 4.304L2.03779 4.51178V4.61847L2.1406 4.72236H2.24643L2.29783 4.66901V4.61847H2.24038L2.18898 4.66901L2.08315 4.56512L2.29178 4.35735L2.4974 4.56512L2.29178 4.77571V4.82625H2.34319L2.55182 4.61847L2.75744 4.82625H2.80884V4.77571L2.60323 4.56512L2.80884 4.35735H2.81489ZM2.55485 4.09342L2.34621 4.304L2.55485 4.51178L2.76046 4.304L2.55485 4.09342ZM2.2434 4.87959V5.30076L2.29481 5.2446L2.34621 5.30076L2.39761 5.2446L2.44902 5.30076L2.50344 5.2446L2.55485 5.30076L2.60625 5.2446L2.65765 5.30076L2.70906 5.2446L2.76046 5.30076L2.81186 5.2446L2.86629 5.30076V4.87959H2.24038H2.2434ZM2.86629 3.72841V3.30725L2.81186 3.36341L2.76046 3.30725L2.70906 3.36341L2.65765 3.30725L2.60625 3.36341L2.55485 3.30725L2.50042 3.36341L2.44902 3.30725L2.39761 3.36341L2.34621 3.30725L2.29481 3.36341L2.2434 3.30725V3.72841H2.86629ZM3.74317 4.20012V3.77895L3.69479 3.83511L3.64339 3.77895L3.59199 3.83511L3.53756 3.77895L3.48616 3.83511L3.43475 3.77895L3.38335 3.83511L3.33195 3.77895V4.20012H3.7462H3.74317ZM1.77775 4.20012V3.77895L1.72332 3.83511L1.67192 3.77895L1.62051 3.83511L1.56911 3.77895L1.51771 3.83511L1.4663 3.77895L1.41188 3.83511L1.36047 3.77895V4.20012H1.77472H1.77775ZM3.7462 4.40789V4.82905L3.69479 4.7729L3.64339 4.82905L3.59199 4.7729L3.53756 4.82905L3.48616 4.7729L3.43475 4.82905L3.38335 4.7729L3.33195 4.82905V4.40789H3.7462ZM1.77472 4.40789V4.82905L1.72332 4.7729L1.67192 4.82905L1.62051 4.7729L1.56911 4.82905L1.51771 4.7729L1.4663 4.82905L1.41188 4.7729L1.36047 4.82905V4.40789H1.77472Z" fill="#FAAE29"/>
<path fill-rule="evenodd" clip-rule="evenodd" d="M2.86321 4.87959V5.14071L2.91764 5.08736L2.96904 5.14351L3.02045 5.08736L3.07185 5.14351L3.12325 5.08736L3.17466 5.14351L3.22908 5.08736L3.28049 5.14351L3.33189 5.08736V4.40788L2.86321 4.87959ZM2.24335 4.87959V5.14071L2.18892 5.08736L2.13752 5.14351L2.08611 5.08736L2.03471 5.14351L1.98331 5.08736L1.9319 5.14351L1.8805 5.08736L1.8291 5.14351L1.77467 5.08736V4.40788L2.24335 4.87959ZM2.24335 3.72841V3.46729L2.18892 3.51782L2.13752 3.46729L2.08611 3.51782L2.03471 3.46729L1.98331 3.51782L1.9319 3.46729L1.8805 3.51782L1.8291 3.46729L1.77467 3.51782V4.20011L2.24335 3.72841ZM2.86321 3.72841V3.46729L2.91764 3.51782L2.96904 3.46729L3.02045 3.51782L3.07185 3.46729L3.12325 3.51782L3.17466 3.46729L3.22606 3.51782L3.28049 3.46729L3.33189 3.51782V4.20011L2.86321 3.72841ZM1.36042 4.72235L1.30901 4.669L1.25761 4.72516L1.20621 4.669L1.1548 4.72516L1.1034 4.669L1.04897 4.72516L0.997571 4.669L0.946167 4.72516V3.88283L0.997571 3.93899L1.04897 3.88283L1.1034 3.93899L1.1548 3.88283L1.20621 3.93899L1.25761 3.88283L1.30901 3.93899L1.36042 3.88283V4.20011H1.1548L1.04897 4.304L1.1548 4.40788H1.36042V4.72235ZM3.74614 4.72235L3.79755 4.669L3.84895 4.72516L3.90035 4.669L3.95478 4.72516L4.00618 4.669L4.05759 4.72516L4.10899 4.669L4.16039 4.72516V3.88283L4.10899 3.93899L4.05759 3.88283L4.00618 3.93899L3.95478 3.88283L3.90035 3.93899L3.84895 3.88283L3.79755 3.93899L3.74614 3.88283V4.20011H3.95478L4.05759 4.304L3.95478 4.40788H3.74614V4.72235Z" fill="#00843D"/>
<path fill-rule="evenodd" clip-rule="evenodd" d="M1.98634 4.91334C1.98634 4.91334 1.94401 4.95264 1.94401 4.97511C1.94401 4.99476 1.98937 5.03688 2.01053 5.03688C2.03472 5.03688 2.07403 4.99476 2.07403 4.97511C2.07403 4.95545 2.0317 4.91334 2.0317 4.91334V4.8291C2.0317 4.8291 2.12241 4.9723 2.12241 4.91053C2.12241 4.8656 2.0317 4.78979 2.0317 4.78979H1.98634C1.98634 4.78979 1.89563 4.87964 1.89563 4.91053C1.89563 4.9723 1.98634 4.8291 1.98634 4.8291V4.91334Z" fill="white"/>
<path fill-rule="evenodd" clip-rule="evenodd" d="M2.52761 5.07337C2.52761 5.07337 2.47621 5.12953 2.47621 5.15761C2.47621 5.18568 2.53064 5.24745 2.55483 5.24745C2.58507 5.24745 2.63042 5.18849 2.63042 5.16041C2.63042 5.13234 2.57902 5.07337 2.57902 5.07337V4.95545C2.57902 4.95545 2.66973 5.14637 2.66973 5.05933C2.66973 5.00318 2.57902 4.89929 2.57902 4.89929H2.52761C2.52761 4.89929 2.42178 5.02845 2.4369 5.05933C2.4369 5.14637 2.52761 4.95545 2.52761 4.95545V5.07337Z" fill="#CA3745"/>
<path d="M1.98242 4.3542C2.03898 4.3542 2.08484 4.33038 2.08484 4.301C2.08484 4.27162 2.03898 4.2478 1.98242 4.2478C1.92586 4.2478 1.88 4.27162 1.88 4.301C1.88 4.33038 1.92586 4.3542 1.98242 4.3542Z" fill="#00843D"/>
<path d="M2.55395 4.3542C2.61052 4.3542 2.65637 4.33038 2.65637 4.301C2.65637 4.27162 2.61052 4.2478 2.55395 4.2478C2.49739 4.2478 2.45154 4.27162 2.45154 4.301C2.45154 4.33038 2.49739 4.3542 2.55395 4.3542Z" fill="#00843D"/>
<path d="M3.12231 4.3542C3.17888 4.3542 3.22473 4.33038 3.22473 4.301C3.22473 4.27162 3.17888 4.2478 3.12231 4.2478C3.06575 4.2478 3.0199 4.27162 3.0199 4.301C3.0199 4.33038 3.06575 4.3542 3.12231 4.3542Z" fill="#00843D"/>
<path fill-rule="evenodd" clip-rule="evenodd" d="M1.97728 3.70032C1.97728 3.70032 1.93495 3.65821 1.93495 3.63855C1.93495 3.6189 1.9803 3.57397 1.99845 3.57397C2.02264 3.57397 2.06195 3.61609 2.06195 3.63575C2.06195 3.65821 2.01961 3.70032 2.01961 3.70032V3.78456C2.01961 3.78456 2.11335 3.63855 2.11335 3.70032C2.11335 3.74525 2.02264 3.82386 2.02264 3.82386H1.97728C1.97728 3.82386 1.88354 3.73402 1.88354 3.70313C1.88354 3.64136 1.97426 3.78175 1.97426 3.78175V3.69752L1.97728 3.70032Z" fill="white"/>
<path fill-rule="evenodd" clip-rule="evenodd" d="M2.5155 3.53748C2.5155 3.53748 2.4641 3.48133 2.4641 3.45325C2.4641 3.42517 2.52155 3.36621 2.54272 3.36621C2.57295 3.36621 2.62133 3.42237 2.62133 3.45044C2.62133 3.47852 2.56993 3.54029 2.56993 3.54029V3.6526C2.56993 3.6526 2.66064 3.46448 2.66064 3.55152C2.66064 3.60768 2.56993 3.71437 2.56993 3.71437H2.51248C2.51248 3.71437 2.40665 3.58241 2.42177 3.55152C2.42177 3.46729 2.51248 3.65541 2.51248 3.65541V3.53748H2.5155Z" fill="#CA3745"/>
<path fill-rule="evenodd" clip-rule="evenodd" d="M3.08999 4.91327C3.08999 4.91327 3.04766 4.95258 3.04766 4.97504C3.04766 4.9947 3.09301 5.03681 3.11418 5.03681C3.13837 5.03681 3.17768 4.9947 3.17768 4.97504C3.17768 4.95539 3.13535 4.91327 3.13535 4.91327V4.82904C3.13535 4.82904 3.22606 4.97224 3.22606 4.91047C3.22606 4.86554 3.13535 4.78973 3.13535 4.78973H3.08697C3.08697 4.78973 2.99625 4.87958 2.99625 4.91047C2.99625 4.97224 3.08697 4.82904 3.08697 4.82904V4.91327H3.08999ZM3.08092 3.70032C3.08092 3.70032 3.03859 3.65821 3.03859 3.63575C3.03859 3.6189 3.08394 3.57397 3.10208 3.57397C3.12627 3.57397 3.16558 3.61609 3.16558 3.63575C3.16558 3.65821 3.12325 3.70032 3.12325 3.70032V3.78456C3.12325 3.78456 3.21699 3.63855 3.21699 3.70032C3.21699 3.74525 3.12627 3.82386 3.12627 3.82386H3.08092C3.08092 3.82386 2.98718 3.73402 2.98718 3.70313C2.98718 3.64136 3.07789 3.78175 3.07789 3.78175V3.69752L3.08092 3.70032Z" fill="white"/>
<path fill-rule="evenodd" clip-rule="evenodd" d="M1.53577 4.62125C1.53577 4.62125 1.47832 4.66056 1.47832 4.67741C1.47832 4.69706 1.5388 4.73918 1.56601 4.73637C1.59625 4.73637 1.65067 4.69987 1.65067 4.68021C1.65067 4.66056 1.59322 4.62125 1.59322 4.62125V4.54263C1.59322 4.54263 1.69603 4.66898 1.69603 4.61283C1.69603 4.57352 1.59322 4.50333 1.59322 4.50333H1.53577C1.53577 4.50333 1.41785 4.59317 1.43599 4.61283C1.43599 4.66898 1.53577 4.54263 1.53577 4.54263V4.62125ZM1.52368 4.02881C1.52368 4.02881 1.46623 3.98951 1.46623 3.96985C1.46623 3.9502 1.5267 3.91089 1.55392 3.9137C1.58415 3.9137 1.63858 3.9502 1.63858 3.96985C1.63858 3.98951 1.58113 4.02601 1.58113 4.02601V4.10462C1.58113 4.10462 1.68394 3.97828 1.68394 4.03724C1.68394 4.07374 1.58113 4.14393 1.58113 4.14393H1.52368C1.52368 4.14393 1.40575 4.05689 1.42389 4.03724C1.42389 3.98108 1.52368 4.10462 1.52368 4.10462V4.02881ZM3.52841 4.60721C3.52841 4.60721 3.46794 4.64652 3.46794 4.66617C3.46794 4.68583 3.53143 4.72514 3.55865 4.72514C3.58889 4.72514 3.64331 4.68583 3.64331 4.66898C3.64331 4.64652 3.58284 4.60721 3.58284 4.60721V4.5314C3.58284 4.5314 3.68564 4.65775 3.68564 4.59879C3.68564 4.56229 3.58586 4.49209 3.58586 4.49209H3.52539C3.52539 4.49209 3.41049 4.57913 3.4256 4.59879C3.4256 4.65775 3.52841 4.5314 3.52841 4.5314V4.61002V4.60721ZM3.51632 4.01758C3.51632 4.01758 3.45584 3.97828 3.45584 3.95862C3.45584 3.93897 3.51934 3.89966 3.54655 3.89966C3.57679 3.89966 3.63122 3.93897 3.63122 3.95581C3.63122 3.97828 3.57074 4.01478 3.57074 4.01478V4.09339C3.57074 4.09339 3.67355 3.96704 3.67355 4.0232C3.67355 4.06251 3.57377 4.1327 3.57377 4.1327H3.51329C3.51329 4.1327 3.39839 4.04566 3.41351 4.02601C3.41351 3.96704 3.51632 4.09339 3.51632 4.09339V4.01478V4.01758Z" fill="#CA3745"/>
<path fill-rule="evenodd" clip-rule="evenodd" d="M1.11243 4.61568C1.09429 4.57918 1.10033 4.56233 1.10033 4.54268C1.10033 4.52303 1.15174 4.48652 1.16988 4.48652C1.19407 4.48652 1.23338 4.52583 1.23338 4.54829C1.23338 4.56795 1.23338 4.5848 1.22431 4.6213L1.20012 4.56233C1.16685 4.64657 1.16383 4.64657 1.14569 4.55953L1.11545 4.61568H1.11243ZM1.11243 4.01201C1.09731 4.04851 1.10033 4.06536 1.10033 4.08502C1.10033 4.10467 1.15174 4.14117 1.1729 4.14117C1.19709 4.14117 1.2364 4.10186 1.2364 4.0794C1.2364 4.05975 1.2364 4.0429 1.22733 4.0064L1.20012 4.06536C1.16988 3.98113 1.16685 3.98113 1.14569 4.06817L1.11545 4.01201H1.11243ZM3.90938 4.60726C3.89124 4.57076 3.89426 4.55391 3.89426 4.53426C3.89426 4.5146 3.94869 4.4781 3.96683 4.4781C3.99102 4.4781 4.03033 4.52022 4.03033 4.53987C4.03033 4.55953 4.03033 4.57918 4.02126 4.61287L3.99404 4.55391C3.96381 4.63814 3.96078 4.64095 3.93962 4.55391L3.90938 4.60726ZM3.90938 4.0064C3.89124 4.04009 3.89728 4.05694 3.89728 4.0794C3.89728 4.09625 3.94869 4.13556 3.96683 4.13556C3.99102 4.13556 4.03335 4.09344 4.03335 4.07378C4.03335 4.05132 4.03335 4.03448 4.02428 3.99798L3.99404 4.05975C3.96381 3.97271 3.96381 3.9699 3.94264 4.05975L3.9124 4.00359L3.90938 4.0064Z" fill="white"/>
<path fill-rule="evenodd" clip-rule="evenodd" d="M2.23429 5.31197V5.16035H1.75049V4.86273H1.32112V4.76446H0.946179V3.86599H1.32112V3.76772H1.75049V3.4701H2.23429V3.32129H2.87532V3.4701H3.35912V3.76772H3.78546V3.8688H4.16343V4.76446H3.78849V4.86273H3.36214V5.16035H2.87834V5.30916H2.23731L2.23429 5.31197ZM2.17986 5.3597V5.21089H1.69606V4.91327H1.26972V4.81219H0.894775V3.81826H1.26972V3.71999H1.69606V3.41956H2.17986V3.27075H2.92975V3.41956H3.41354V3.71999H3.83989V3.81826H4.21483V4.81219H3.83989V4.91327H3.41052V5.21089H2.92672V5.3597H2.17986Z" fill="#CA3745" stroke="black" stroke-width="0.00466199"/>
</g>
</g>
<defs>
<clipPath id="clip0_14_282">
<rect width="20" height="15" fill="white"/>
</clipPath>
</defs>
</svg>
