<svg width="20" height="15" viewBox="0 0 20 15" fill="none" xmlns="http://www.w3.org/2000/svg">
<g clip-path="url(#clip0_14_281)">
<path d="M0 0H20V15H0V0Z" fill="#E70013"/>
<path d="M9.99996 3.72501C9.00415 3.72086 8.04749 4.11247 7.34042 4.81368C6.63335 5.51489 6.23379 6.46827 6.22965 7.46407C6.2255 8.45988 6.61711 9.41654 7.31832 10.1236C8.01953 10.8307 8.9729 11.2302 9.96871 11.2344C10.9645 11.2385 11.9212 10.8469 12.6282 10.1457C13.3353 9.4445 13.7349 8.49113 13.739 7.49532C13.7432 6.49952 13.3516 5.54285 12.6503 4.83578C11.9491 4.12871 10.9958 3.72915 9.99996 3.72501ZM12.25 9.15626C11.8981 9.63227 11.405 9.98512 10.8409 10.1646C10.2767 10.344 9.67041 10.3409 9.10818 10.1556C8.54595 9.97037 8.05651 9.61245 7.70956 9.13283C7.3626 8.65321 7.17582 8.07634 7.17582 7.48438C7.17582 6.89243 7.3626 6.31556 7.70956 5.83594C8.05651 5.35632 8.54595 4.99839 9.10818 4.81315C9.67041 4.6279 10.2767 4.62477 10.8409 4.80421C11.405 4.98364 11.8981 5.33649 12.25 5.81251C11.9267 5.52139 11.526 5.33021 11.0964 5.26212C10.6667 5.19403 10.2266 5.25194 9.82917 5.42885C9.43176 5.60575 9.09416 5.89406 8.85722 6.25888C8.62029 6.6237 8.49419 7.04938 8.49419 7.48438C8.49419 7.91939 8.62029 8.34507 8.85722 8.70988C9.09416 9.0747 9.43176 9.36302 9.82917 9.53992C10.2266 9.71683 10.6667 9.77474 11.0964 9.70665C11.526 9.63855 11.9267 9.44738 12.25 9.15626ZM12.1031 8.47813L10.9343 8.10001L10.2125 9.09376V7.86563L9.04371 7.48438L10.2125 7.10313V5.87501L10.9343 6.86876L12.1031 6.49063L11.3812 7.48438L12.1031 8.47813Z" fill="white"/>
</g>
<defs>
<clipPath id="clip0_14_281">
<rect width="20" height="15" fill="white"/>
</clipPath>
</defs>
</svg>
