<svg width="20" height="15" viewBox="0 0 20 15" fill="none" xmlns="http://www.w3.org/2000/svg">
<g clip-path="url(#clip0_14_280)">
<path fill-rule="evenodd" clip-rule="evenodd" d="M0 0H20V15H0V0Z" fill="#E30A17"/>
<path fill-rule="evenodd" clip-rule="evenodd" d="M12.7187 7.73442C12.7187 9.80317 11.0125 11.4813 8.90625 11.4813C6.8 11.4813 5.09375 9.80317 5.09375 7.7313C5.09375 5.65942 6.8 3.98755 8.90625 3.98755C11.0125 3.98755 12.7187 5.66567 12.7187 7.73442Z" fill="white"/>
<path fill-rule="evenodd" clip-rule="evenodd" d="M12.9062 7.73442C12.9062 9.39067 11.5437 10.7313 9.85933 10.7313C8.17495 10.7313 6.80933 9.38755 6.80933 7.7313C6.80933 6.07505 8.17495 4.73755 9.85933 4.73755C11.5437 4.73755 12.9093 6.07817 12.9093 7.73442H12.9062Z" fill="#E30A17"/>
<path fill-rule="evenodd" clip-rule="evenodd" d="M13.4593 5.98433L13.4281 7.3687L12.1375 7.7187L13.4125 8.17183L13.3812 9.4437L14.2093 8.44995L15.4656 8.88745L14.7406 7.82183L15.625 6.76245L14.2656 7.13745L13.4593 5.9812V5.98433Z" fill="white"/>
</g>
<defs>
<clipPath id="clip0_14_280">
<rect width="20" height="15" fill="white"/>
</clipPath>
</defs>
</svg>
