<svg width="20" height="15" viewBox="0 0 20 15" fill="none" xmlns="http://www.w3.org/2000/svg">
<g clip-path="url(#clip0_14_279)">
<path d="M0 0H20V15H0V0Z" fill="#009FCA"/>
<path fill-rule="evenodd" clip-rule="evenodd" d="M18.5406 3.83437H19.4062L18.7094 4.30937L18.975 5.08125L18.2781 4.60313L17.5844 5.08125L17.85 4.30937L17.1531 3.83437H18.0125L18.2781 3.0625L18.5406 3.83437ZM16.3781 9.98438H17.2406L16.5437 10.4594L16.8094 11.2312L16.1125 10.7531L15.4156 11.2312L15.6844 10.4594L14.9875 9.98438H15.8437L16.1094 9.2125L16.3781 9.98438ZM18.5406 8.59062H19.4062L18.7094 9.06563L18.975 9.8375L18.2781 9.35938L17.5844 9.8375L17.85 9.06563L17.1531 8.59062H18.0125L18.2781 7.81875L18.5406 8.59062ZM9.24373 13.0531H10.1062L9.40623 13.525L9.67498 14.2937L8.9781 13.8188L8.28123 14.2937L8.54998 13.525L7.84998 13.0469H8.71248L8.9781 12.2781L9.24373 13.0531ZM11.2 10.6625H10.3375L11.0344 10.1844L10.7687 9.41562L11.4656 9.89062L12.1625 9.41562L11.8937 10.1844L12.5906 10.6625H11.7312L11.4656 11.4312L11.2 10.6625ZM13.7406 7.14687H12.875L13.5719 6.67188L13.3062 5.9L14.0031 6.37813L14.7 5.9L14.4312 6.67188L15.1281 7.14687H14.2687L14.0031 7.91875L13.7406 7.14687ZM15.875 6.41875H15.0125L15.7125 5.94063L15.4437 5.17188L16.1406 5.64687L16.8375 5.17188L16.5687 5.94063L17.2687 6.41875H16.4062L16.1406 7.1875L15.875 6.41875ZM13.7406 12.5H12.875L13.5719 12.025L13.3125 11.25L14.0094 11.725L14.7062 11.25L14.4375 12.0219L15.1344 12.4969H14.275L14.0094 13.2688L13.7406 12.5ZM11.2 13.1219H10.3375L11.0344 12.6469L10.7687 11.875L11.4656 12.35L12.1625 11.875L11.8937 12.6438L12.5937 13.125H11.7344L11.4687 13.8969L11.2 13.1219Z" fill="#FFF40D"/>
<path d="M0 0H10V7.5H0V0Z" fill="#012169"/>
<path d="M1.17188 0L4.98438 2.82812L8.78125 0H10V0.96875L6.25 3.76562L10 6.54688V7.5H8.75L5 4.70312L1.26562 7.5H0V6.5625L3.73438 3.78125L0 1V0H1.17188Z" fill="white"/>
<path d="M6.625 4.39062L10 6.875V7.5L5.76562 4.39062H6.625ZM3.75 4.70312L3.84375 5.25L0.84375 7.5H0L3.75 4.70312ZM10 0V0.046875L6.10938 2.98438L6.14062 2.29688L9.21875 0H10ZM0 0L3.73438 2.75H2.79688L0 0.65625V0Z" fill="#C8102E"/>
<path d="M3.76562 0V7.5H6.26562V0H3.76562ZM0 2.5V5H10V2.5H0Z" fill="white"/>
<path d="M0 3.01562V4.51562H10V3.01562H0ZM4.26562 0V7.5H5.76562V0H4.26562Z" fill="#C8102E"/>
</g>
<defs>
<clipPath id="clip0_14_279">
<rect width="20" height="15" fill="white"/>
</clipPath>
</defs>
</svg>
