<svg width="20" height="15" viewBox="0 0 20 15" fill="none" xmlns="http://www.w3.org/2000/svg">
<g clip-path="url(#clip0_14_510)">
<mask id="mask0_14_510" style="mask-type:luminance" maskUnits="userSpaceOnUse" x="0" y="0" width="20" height="15">
<path d="M0 0H20V15H0V0Z" fill="white"/>
</mask>
<g mask="url(#mask0_14_510)">
<path d="M0 0H22.5V15H0V0Z" fill="#FF0000"/>
<path d="M0 0H11.25V7.5H0V0Z" fill="#000095"/>
<path d="M4.8125 3.96563L4.73438 4.26562L5.02812 4.34688L4.97188 4.125L4.8125 3.96563ZM6.27812 4.125L6.22188 4.34688L6.51562 4.26562L6.4375 3.96563L6.27812 4.125ZM4.97188 3.375L4.8125 3.53437L4.87187 3.75L4.97188 3.375Z" fill="white"/>
<path d="M4.87187 3.75L4.8125 3.96563L4.97188 4.125L4.87187 3.75Z" fill="white"/>
<path d="M4.81249 3.53442L4.59686 3.75005L4.81249 3.96567L4.87186 3.75005L4.81249 3.53442ZM5.24999 4.40317L5.40936 4.56255L5.62499 4.50317L5.24999 4.40317ZM5.84061 4.56255L6.14061 4.64067L6.22186 4.34692L5.99999 4.40317L5.84061 4.56255Z" fill="white"/>
<path d="M6.00001 4.40312L6.22189 4.34688L6.27814 4.125L6.00001 4.40312ZM5.02814 4.34688L5.10939 4.64062L5.40939 4.5625L5.25001 4.40312L5.02814 4.34688ZM5.62501 4.50313L5.84064 4.5625L6.00001 4.40312L5.62501 4.50313Z" fill="white"/>
<path d="M5.40938 4.56245L5.625 4.77808L5.84062 4.56245L5.625 4.50308L5.40938 4.56245ZM5.02812 3.15308L4.73438 3.23433L4.8125 3.53433L4.97188 3.37495L5.02812 3.15308ZM4.97188 4.12495L5.02812 4.34683L5.25 4.40308L4.97188 4.12495ZM6.37813 3.74995L6.4375 3.53433L6.27812 3.37495L6.37813 3.74995Z" fill="white"/>
<path d="M5.24999 3.09692L5.02811 3.15317L4.97186 3.37505L5.24999 3.09692ZM6.27811 3.37505L6.22186 3.15317L5.99999 3.09692L6.27811 3.37505ZM6.43749 3.96567L6.65311 3.75005L6.43749 3.53442L6.37811 3.75005L6.43749 3.96567Z" fill="white"/>
<path d="M6.27814 3.37495L6.00001 3.09683L5.62501 2.99683L5.25001 3.09683L4.97189 3.37495L4.87189 3.74995L4.97189 4.12495L5.25001 4.40308L5.62501 4.50308L6.00001 4.40308L6.27814 4.12495L6.37814 3.74995L6.27814 3.37495Z" fill="white"/>
<path d="M6.27814 4.125L6.43751 3.96563L6.37814 3.75L6.27814 4.125ZM6.43751 3.53437L6.51564 3.23438L6.22189 3.15313L6.27814 3.375L6.43751 3.53437ZM6.22189 3.15313L6.14064 2.85938L5.84064 2.9375L6.00001 3.09687L6.22189 3.15313ZM5.40939 2.9375L5.10939 2.85938L5.02814 3.15313L5.25001 3.09687L5.40939 2.9375ZM5.62501 2.99688L5.40939 2.9375L5.25001 3.09687L5.62501 2.99688Z" fill="white"/>
<path d="M5.84061 2.93755L5.62499 2.72192L5.40936 2.93755L5.62499 2.99692L5.84061 2.93755Z" fill="white"/>
<path d="M5.99999 3.09687L5.84061 2.9375L5.62499 2.99688L5.99999 3.09687ZM5.40936 4.5625L5.10936 4.64062L5.24999 5.15938L5.62499 4.77812L5.40936 4.5625ZM5.24999 5.15938L5.62499 6.5625L5.99999 5.15938L5.62499 4.77812L5.24999 5.15938ZM5.02811 4.34688L4.73436 4.26562L4.59686 4.77812L5.10936 4.64062L5.02811 4.34688Z" fill="white"/>
<path d="M4.59688 4.77812L4.22188 6.1875L5.25 5.15938L5.10938 4.64062L4.59688 4.77812ZM4.22188 4.125L3.1875 5.15938L4.59688 4.77812L4.73438 4.26562L4.22188 4.125Z" fill="white"/>
<path d="M4.81249 3.96563L4.59686 3.75L4.22186 4.125L4.73436 4.26562L4.81249 3.96563ZM4.81249 3.53437L4.73436 3.23438L4.22186 3.375L4.59686 3.75L4.81249 3.53437Z" fill="white"/>
<path d="M4.22188 3.375L2.8125 3.75L4.22188 4.125L4.59687 3.75L4.22188 3.375ZM7.03437 4.125L6.51562 4.26562L6.65312 4.77812L8.0625 5.15938L7.03437 4.125Z" fill="white"/>
<path d="M6.22188 4.34688L6.14062 4.64062L6.65312 4.77812L6.51562 4.26562L6.22188 4.34688ZM5.84062 4.5625L5.625 4.77812L6 5.15938L6.14062 4.64062L5.84062 4.5625ZM6.4375 3.96563L6.51562 4.26562L7.03438 4.125L6.65312 3.75L6.4375 3.96563Z" fill="white"/>
<path d="M6 5.15942L7.03438 6.18755L6.65312 4.77817L6.14062 4.64067L6 5.15942ZM6.22188 3.15317L6.51562 3.23442L6.65312 2.72192L6.14062 2.85942L6.22188 3.15317Z" fill="white"/>
<path d="M7.03438 3.375L8.0625 2.34687L6.65312 2.72187L6.51562 3.23438L7.03438 3.375ZM6.65312 2.72187L7.03438 1.3125L6 2.34687L6.14062 2.85938L6.65312 2.72187ZM7.03438 4.125L8.4375 3.75L7.03438 3.375L6.65312 3.75L7.03438 4.125Z" fill="white"/>
<path d="M6.43749 3.53437L6.65311 3.75L7.03436 3.375L6.51561 3.23438L6.43749 3.53437ZM5.24999 2.34687L4.22186 1.3125L4.59686 2.72187L5.10936 2.85938L5.24999 2.34687Z" fill="white"/>
<path d="M5.02811 3.15317L5.10936 2.85942L4.59686 2.72192L4.73436 3.23442L5.02811 3.15317Z" fill="white"/>
<path d="M4.59688 2.72192L3.1875 2.34692L4.22188 3.37505L4.73438 3.23442L4.59688 2.72192ZM5.84062 2.93755L6.14062 2.85942L6 2.34692L5.625 2.72192L5.84062 2.93755Z" fill="white"/>
<path d="M6 2.34687L5.625 0.9375L5.25 2.34687L5.625 2.72187L6 2.34687Z" fill="white"/>
<path d="M5.40938 2.93755L5.625 2.72192L5.25 2.34692L5.10938 2.85942L5.40938 2.93755Z" fill="white"/>
<path d="M5.62501 5.34683C6.50694 5.34683 7.22189 4.63188 7.22189 3.74995C7.22189 2.86802 6.50694 2.15308 5.62501 2.15308C4.74308 2.15308 4.02814 2.86802 4.02814 3.74995C4.02814 4.63188 4.74308 5.34683 5.62501 5.34683Z" fill="#000095"/>
<path d="M5.62501 5.15933C6.40339 5.15933 7.03439 4.52833 7.03439 3.74995C7.03439 2.97157 6.40339 2.34058 5.62501 2.34058C4.84664 2.34058 4.21564 2.97157 4.21564 3.74995C4.21564 4.52833 4.84664 5.15933 5.62501 5.15933Z" fill="white"/>
</g>
</g>
<defs>
<clipPath id="clip0_14_510">
<rect width="20" height="15" fill="white"/>
</clipPath>
</defs>
</svg>
