<svg width="20" height="15" viewBox="0 0 20 15" fill="none" xmlns="http://www.w3.org/2000/svg">
<mask id="mask0_1825_45580" style="mask-type:luminance" maskUnits="userSpaceOnUse" x="0" y="0" width="20" height="15">
<rect width="20" height="15" fill="white"/>
</mask>
<g mask="url(#mask0_1825_45580)">
<path fill-rule="evenodd" clip-rule="evenodd" d="M0 0V15H20V0H0Z" fill="#FECA00"/>
<mask id="mask1_1825_45580" style="mask-type:luminance" maskUnits="userSpaceOnUse" x="0" y="0" width="20" height="15">
<path fill-rule="evenodd" clip-rule="evenodd" d="M0 0V15H20V0H0Z" fill="white"/>
</mask>
<g mask="url(#mask1_1825_45580)">
<rect width="20" height="2.5" fill="#272727"/>
<rect y="5" width="20" height="2.5" fill="#D74800"/>
<rect y="7.5" width="20" height="2.5" fill="#272727"/>
<rect y="12.5" width="20" height="2.5" fill="#D74800"/>
<path fill-rule="evenodd" clip-rule="evenodd" d="M10 11.25C12.0711 11.25 13.75 9.57107 13.75 7.5C13.75 5.42893 12.0711 3.75 10 3.75C7.92893 3.75 6.25 5.42893 6.25 7.5C6.25 9.57107 7.92893 11.25 10 11.25Z" fill="#F7FCFF"/>
<path fill-rule="evenodd" clip-rule="evenodd" d="M8.5499 5.20534L7.88867 5.42231L8.5499 5.47892C8.5499 5.47892 8.6568 5.74039 8.5499 5.9445C8.52276 5.99632 8.45276 6.06271 8.36341 6.14744C8.10078 6.3965 7.67097 6.80411 7.67097 7.46634C7.67097 8.35387 9.3838 8.7563 9.3838 8.7563V9.17798C9.3838 9.17798 9.58261 9.30146 8.44835 9.30146C7.4647 9.30146 7.52622 9.67486 7.5599 9.87928C7.56506 9.91058 7.56956 9.93791 7.56956 9.95934C7.56956 10.1207 8.04234 9.79795 8.26365 9.47659C8.38015 9.30742 8.868 9.31635 9.3687 9.36276C9.40822 9.36642 9.7733 10.1397 9.45636 10.5393C9.32322 10.7071 8.86342 10.7289 8.57615 10.7426C8.42967 10.7496 8.32805 10.7544 8.33747 10.7754C8.34454 10.7911 8.43117 10.7859 8.5571 10.7784C8.71426 10.769 8.93263 10.756 9.13388 10.7754C9.16442 10.7783 9.04598 10.8811 8.92622 10.9851C8.80288 11.0921 8.67814 11.2004 8.71329 11.202C8.7528 11.2039 8.98378 11.0759 9.19363 10.9597C9.36724 10.8635 9.52638 10.7754 9.55065 10.7754C9.709 10.7754 9.85199 10.7949 9.9774 10.812C10.187 10.8407 10.3475 10.8626 10.4486 10.7754C10.4797 10.7485 10.2993 10.7053 10.1153 10.6612C9.92581 10.6158 9.73252 10.5695 9.76298 10.5393C9.9372 10.3663 9.86442 10.004 9.8071 9.71855C9.78139 9.59051 9.75878 9.47796 9.76298 9.40495C9.7779 9.14572 10.0521 9.2817 10.2676 9.38857C10.362 9.43537 10.4451 9.47659 10.4903 9.47659C10.8984 9.47659 10.3916 8.9604 10.1135 8.67707C10.0891 8.65225 10.0665 8.6292 10.0464 8.60846C9.90493 8.4624 10.0042 8.48202 10.2284 8.52637C10.3996 8.56021 10.6435 8.60846 10.9089 8.60846C11.522 8.60846 11.9695 8.40928 11.814 7.86995C11.7115 7.51413 11.1499 7.39306 10.5633 7.26657C10.2607 7.20133 9.95144 7.13465 9.69501 7.03357C9.06411 6.7849 9.09628 6.42234 9.12349 6.11578C9.12878 6.05615 9.13388 5.99864 9.13388 5.9445C9.13388 5.612 9.69501 5.20534 9.69501 5.20534C9.69501 5.20534 9.43892 4.77625 9.01425 4.77625C8.58958 4.77625 8.5499 5.20534 8.5499 5.20534ZM9.70502 9.11024V8.79664C9.70502 8.79664 9.96725 8.78799 10.0592 9.00859C10.1512 9.22919 9.70502 9.11024 9.70502 9.11024Z" fill="#272727"/>
<path fill-rule="evenodd" clip-rule="evenodd" d="M8.17334 4.19452L8.80682 4.94573L9.13488 4.86857L8.97755 4.11023L8.17334 4.19452Z" fill="#D74800"/>
<path fill-rule="evenodd" clip-rule="evenodd" d="M8.99552 4.01285L9.03636 5.14226L9.57728 5.00916L9.80763 4.26946L8.99552 4.01285Z" fill="#FFD018"/>
<path fill-rule="evenodd" clip-rule="evenodd" d="M8.48588 5.89929C8.60536 5.89929 8.70222 5.80485 8.70222 5.68835C8.70222 5.57186 8.60536 5.47742 8.48588 5.47742C8.36639 5.47742 8.26953 5.57186 8.26953 5.68835C8.26953 5.80485 8.36639 5.89929 8.48588 5.89929Z" fill="#D74800"/>
<path fill-rule="evenodd" clip-rule="evenodd" d="M9.86035 4.22448L9.23055 4.97878L9.36351 5.28845L10.083 5.00183L9.86035 4.22448Z" fill="#D74800"/>
<path fill-rule="evenodd" clip-rule="evenodd" d="M11.3241 9.93313C11.3241 9.93313 12.4319 9.43827 12.4319 8.74621C12.4319 8.05414 10.6331 7.30029 10.6331 7.30029C10.6331 7.30029 9.57507 7.54245 10.052 7.86652C10.5289 8.19059 11.1679 8.31509 11.1679 8.74621C11.1679 9.17733 11.3429 9.58842 10.988 9.58842C10.6331 9.58842 11.3241 9.93313 11.3241 9.93313Z" fill="#D74800"/>
<path fill-rule="evenodd" clip-rule="evenodd" d="M9.72608 7.17383C9.72608 7.17383 9.33429 7.24265 9.35289 7.30629C9.40432 7.48221 9.94004 7.71134 10.1735 7.87C10.6504 8.19406 11.1026 8.15766 11.439 7.94676C11.7754 7.73586 9.72608 7.17383 9.72608 7.17383Z" fill="#FFFDFF"/>
</g>
</g>
</svg>
