<svg width="20" height="15" viewBox="0 0 20 15" fill="none" xmlns="http://www.w3.org/2000/svg">
<g clip-path="url(#clip0_14_277)">
<mask id="mask0_14_277" style="mask-type:luminance" maskUnits="userSpaceOnUse" x="0" y="0" width="20" height="15">
<path d="M0.000976562 0H19.999V15H0.000976562V0Z" fill="white"/>
</mask>
<g mask="url(#mask0_14_277)">
<path fill-rule="evenodd" clip-rule="evenodd" d="M-1.25 10.002H21.25V12.501H-1.25V10.002Z" fill="#FFE700"/>
<path fill-rule="evenodd" clip-rule="evenodd" d="M-1.25 7.5H21.25V9.99902H-1.25V7.5Z" fill="black"/>
<path fill-rule="evenodd" clip-rule="evenodd" d="M-1.25 5.00098H21.25V7.5H-1.25V5.00098Z" fill="#DE3908"/>
<path fill-rule="evenodd" clip-rule="evenodd" d="M-1.25 2.50195H21.25V5.00098H-1.25V2.50195Z" fill="#FFE700"/>
<path fill-rule="evenodd" clip-rule="evenodd" d="M-1.25 0H21.25V2.49902H-1.25V0Z" fill="black"/>
<path fill-rule="evenodd" clip-rule="evenodd" d="M12.335 7.5C12.335 8.11927 12.089 8.71318 11.6511 9.15107C11.2132 9.58896 10.6193 9.83496 10 9.83496C9.38073 9.83496 8.78682 9.58896 8.34893 9.15107C7.91104 8.71318 7.66504 8.11927 7.66504 7.5C7.66504 6.88073 7.91104 6.28682 8.34893 5.84893C8.78682 5.41104 9.38073 5.16504 10 5.16504C10.6193 5.16504 11.2132 5.41104 11.6511 5.84893C12.089 6.28682 12.335 6.88073 12.335 7.5Z" fill="#FFFDFF" stroke="black" stroke-width="0.046875"/>
<path fill-rule="evenodd" clip-rule="evenodd" d="M9.58984 5.70996L9.4375 5.43164C9.49609 5.37305 9.59277 5.32617 9.75098 5.32617L9.7334 5.63379L9.58691 5.70996H9.58984Z" fill="#DE3108" stroke="black" stroke-width="0.046875"/>
<path fill-rule="evenodd" clip-rule="evenodd" d="M9.73633 5.6338L9.75684 5.32618C9.75684 5.32618 10.0703 5.3086 10.2402 5.51368L10.0732 5.75392L9.7334 5.63673L9.73633 5.6338Z" fill="#FFE700" stroke="black" stroke-width="0.046875"/>
<path fill-rule="evenodd" clip-rule="evenodd" d="M10.0762 5.75098L10.2314 5.51074C10.334 5.61914 10.3779 5.69531 10.3926 5.8125C10.3955 5.81543 10.1494 5.87402 10.1494 5.87109L10.0762 5.75098Z" fill="#DE3108" stroke="black" stroke-width="0.046875"/>
<path fill-rule="evenodd" clip-rule="evenodd" d="M9.66606 9.70016C9.66606 9.70016 9.9561 9.36911 10.5186 9.43942C10.4336 9.30172 10.1583 9.3193 10.1583 9.3193C10.1583 9.3193 10.0762 8.67477 10.1407 8.63961C10.2051 8.60446 10.4922 8.64254 10.4922 8.64254C10.5274 8.64254 10.5918 8.54293 10.5391 8.47848C10.4893 8.41403 10.3399 8.17086 10.4014 8.12106C10.4629 8.07418 10.794 8.15036 10.794 8.15036L9.85649 6.94918C9.85649 6.94918 9.75981 6.49508 9.95317 6.27536C10.1846 6.08493 10.1583 5.87692 10.1524 5.87985C10.1202 5.66891 9.80083 5.5195 9.58403 5.71286C9.45806 5.8652 9.54302 5.98239 9.54302 5.98239C9.54302 5.98239 9.2061 6.07321 9.19438 6.1318C9.17974 6.19039 9.57231 6.12301 9.57231 6.12301L9.53423 6.38961C9.53423 6.38961 8.77251 7.08102 9.35845 7.67868L9.37603 7.65524C9.37603 7.65524 9.5811 7.90719 9.79497 7.96285C10 8.16793 9.97954 8.13864 9.97954 8.13864C9.97954 8.13864 10.0176 8.46383 9.97954 8.52829C9.92974 8.51364 9.41411 8.49313 9.33794 8.52243C9.26763 8.54586 9.00395 8.53121 9.06841 8.96481L9.16509 8.74508C9.16509 8.74508 9.1563 8.90036 9.22075 8.95602C9.20903 8.79196 9.28228 8.68063 9.28228 8.68063C9.28228 8.68063 9.29399 8.86227 9.33501 8.88571C9.37603 8.915 9.37603 8.59274 9.59868 8.62203C9.81548 8.6484 9.97661 8.63961 9.97661 8.63961C9.97661 8.63961 10.0499 9.26657 10.0264 9.32516C9.86821 9.28707 9.48735 9.33981 9.46392 9.43649C9.68657 9.42184 9.78911 9.44821 9.78911 9.44821C9.78911 9.44821 9.6104 9.60934 9.66606 9.70016Z" fill="black" stroke="black" stroke-width="0.0421875" stroke-linecap="round" stroke-linejoin="round"/>
<path fill-rule="evenodd" clip-rule="evenodd" d="M9.7539 6.29297C9.7539 6.29297 9.20019 6.90234 9.44042 7.36816C9.45214 7.30371 9.44628 7.2627 9.45507 7.26563C9.44042 7.25684 9.52246 7.32129 9.5166 7.30957C9.5166 7.27441 9.49316 7.20117 9.49316 7.20117L9.5664 7.22168L9.52246 7.13965L9.63085 7.15137C9.63085 7.15137 9.59277 7.05176 9.60449 7.05176L9.69238 7.05762C9.53417 6.77637 9.68359 6.54199 9.7539 6.29004V6.29297Z" fill="#9CA69C" stroke="#9CA69C" stroke-width="0.0421875" stroke-linecap="round" stroke-linejoin="round"/>
<path fill-rule="evenodd" clip-rule="evenodd" d="M9.94731 5.76855C9.94731 5.76855 9.97661 5.97949 9.85942 6.03809C9.84477 6.05273 9.77153 6.07617 9.78325 6.12012C9.79497 6.17871 9.82719 6.16699 9.87114 6.15527C9.99125 6.13477 10.1319 5.87988 9.94731 5.76855Z" fill="#9CA69C" stroke="#9CA69C" stroke-width="0.046875"/>
<path fill-rule="evenodd" clip-rule="evenodd" d="M9.74219 5.94727C9.74219 5.95892 9.73756 5.9701 9.72932 5.97834C9.72108 5.98658 9.7099 5.99121 9.69824 5.99121C9.68659 5.99121 9.67541 5.98658 9.66717 5.97834C9.65893 5.9701 9.6543 5.95892 9.6543 5.94727C9.6543 5.93561 9.65893 5.92443 9.66717 5.91619C9.67541 5.90795 9.68659 5.90332 9.69824 5.90332C9.7099 5.90332 9.72108 5.90795 9.72932 5.91619C9.73756 5.92443 9.74219 5.93561 9.74219 5.94727Z" fill="white"/>
<path fill-rule="evenodd" clip-rule="evenodd" d="M9.5635 6.12305C9.5342 6.14941 9.38186 6.30762 9.5342 6.36621C9.68947 6.3252 9.64553 6.2959 9.68069 6.26074C9.68069 6.1875 9.60451 6.16992 9.5635 6.12598V6.12305Z" fill="#DE3108" stroke="black" stroke-width="0.046875"/>
<path fill-rule="evenodd" clip-rule="evenodd" d="M9.90044 7.63184C9.89165 7.66699 9.85649 7.7959 9.90337 7.89551C10.0381 7.83691 10.0997 7.85449 10.1436 7.88379C10.0352 7.7959 9.99126 7.75781 9.90044 7.63184Z" fill="#9CA69C" stroke="#9CA69C" stroke-width="0.0421875" stroke-linecap="round" stroke-linejoin="round"/>
<path fill-rule="evenodd" clip-rule="evenodd" d="M10.1289 8.23535L10.1348 8.53418C10.1348 8.53418 10.2402 8.55176 10.2871 8.53418C10.334 8.5166 10.2871 8.3291 10.1289 8.23535Z" fill="white" stroke="white" stroke-width="0.0421875" stroke-linecap="round" stroke-linejoin="round"/>
<path fill-rule="evenodd" clip-rule="evenodd" d="M10.8789 8.27338C10.8789 8.27338 10.6885 7.81049 10.1992 7.6933C9.70995 7.57612 9.77441 7.05463 9.81249 7.0224C9.83593 6.97846 9.85058 6.90815 9.9912 6.97553C10.1318 7.04291 10.7822 7.36811 10.876 7.38569C10.9697 7.40326 10.8877 8.2851 10.8818 8.27338H10.8789Z" fill="#9CA69C" stroke="black" stroke-width="0.046875"/>
<path fill-rule="evenodd" clip-rule="evenodd" d="M10.416 7.69043C10.4072 7.69629 11.0693 8.08301 10.8701 8.41406C11.0576 8.28809 10.999 8.07129 10.999 8.07129C10.999 8.07129 11.1514 8.47266 10.7764 8.66895C10.8174 8.7041 10.8437 8.69824 10.8437 8.69824L10.7793 8.75977C10.7793 8.75977 10.75 8.80957 11.002 8.68652C10.9346 8.74219 10.9287 8.7832 10.9287 8.7832C10.9287 8.7832 10.9463 8.83594 11.1104 8.69238C10.9785 8.83594 10.9492 8.90918 10.9492 8.90625C11.3096 8.87695 12.0918 7.70508 10.7031 7.3623L10.7646 7.42676L10.4131 7.69043H10.416Z" fill="#DE3108" stroke="black" stroke-width="0.0421875" stroke-linejoin="round"/>
<path fill-rule="evenodd" clip-rule="evenodd" d="M10.4454 7.57619C10.5333 7.64064 10.5655 7.66408 10.5772 7.69338C10.4952 7.6758 10.4219 7.68166 10.4219 7.68166C10.4219 7.68166 10.2432 7.51173 10.211 7.49709C10.1876 7.49709 10.0469 7.4092 10.0469 7.4092C9.97955 7.37404 9.91509 7.13673 10.17 7.20412C10.2677 7.2551 10.3685 7.30011 10.4717 7.33888L10.7852 7.43849L10.9669 7.64064C10.9669 7.64064 10.6446 7.48244 10.6036 7.47951C10.6915 7.54982 10.7413 7.64943 10.7413 7.64943C10.6387 7.62013 10.5508 7.59084 10.4454 7.57619Z" fill="white" stroke="black" stroke-width="0.0421875" stroke-linecap="round" stroke-linejoin="round"/>
<path d="M9.19141 6.14942C9.19141 6.14942 9.49902 6.07325 9.53711 6.08497" stroke="white" stroke-width="0.0421875" stroke-linecap="round"/>
<path fill-rule="evenodd" clip-rule="evenodd" d="M-1.25 12.501H21.25V15H-1.25V12.501Z" fill="#DE3908"/>
</g>
</g>
<defs>
<clipPath id="clip0_14_277">
<rect width="20" height="15" fill="white"/>
</clipPath>
</defs>
</svg>
