<svg width="20" height="15" viewBox="0 0 20 15" fill="none" xmlns="http://www.w3.org/2000/svg">
<g clip-path="url(#clip0_14_268)">
<path fill-rule="evenodd" clip-rule="evenodd" d="M0 0H20V15H0V0Z" fill="#4B92DB"/>
<path d="M11.1794 11.0063C11.125 11.0653 11.0654 11.1193 11.0012 11.1675C10.6037 10.755 10.135 10.3013 9.69062 10.3013C9.41499 10.3013 9.21812 10.5113 8.98562 10.6575C8.665 10.8638 8.22437 10.98 7.8475 10.8282C7.63434 10.7552 7.44508 10.6255 7.29999 10.4532C7.45958 10.5527 7.64044 10.6131 7.82781 10.6294C8.01518 10.6457 8.20375 10.6174 8.37812 10.5469C8.74749 10.3932 9.12625 10.1888 9.54812 10.1888C10.1706 10.1888 10.7631 10.6107 11.1794 11.0063ZM6.57437 9.71255C6.98687 10.1813 7.65999 10.0313 8.20937 10.1475C8.28624 10.1663 8.35937 10.1907 8.44187 10.1775C8.37625 10.1363 8.28812 10.1307 8.21312 10.1025C7.78562 9.9413 7.71999 9.4838 7.48562 9.17067C7.78562 9.36942 8.03124 9.63942 8.31062 9.8963C8.50755 10.0591 8.74572 10.1643 8.99874 10.2C8.93874 10.2225 8.85999 10.2188 8.79249 10.2338C8.34249 10.3463 7.84374 10.5225 7.36374 10.365C7.02902 10.2534 6.74812 10.0207 6.57624 9.71255H6.57437ZM5.91437 8.62505C6.17125 9.20817 6.81812 9.25505 7.24562 9.6113C7.32228 9.67938 7.40735 9.73735 7.49875 9.7838L7.50437 9.78005C7.39867 9.68789 7.30369 9.58411 7.22124 9.47067C6.97562 9.11442 7.05624 8.62692 6.86687 8.24817C7.04277 8.44371 7.18873 8.66423 7.29999 8.90255C7.45937 9.2813 7.51374 9.71442 7.87187 10.0032C7.48374 9.87567 7.03749 9.90005 6.69062 9.67317C6.32312 9.43317 5.98375 9.05442 5.91437 8.62692V8.62505ZM5.63874 7.44755C5.67624 7.9613 6.21999 8.23505 6.48249 8.65692C6.53874 8.74692 6.595 8.84067 6.67562 8.91192C6.6625 8.85755 6.61937 8.8088 6.59312 8.7563C6.50704 8.56676 6.47275 8.35778 6.49374 8.15067C6.51812 7.88817 6.62687 7.64442 6.58562 7.3688C6.81062 7.85442 6.73749 8.46005 6.86687 8.98317C6.89687 9.09942 6.96624 9.20067 7.00937 9.3113C6.78999 9.14255 6.50124 8.99255 6.25937 8.80505C6.01823 8.63169 5.82998 8.39476 5.71562 8.12067C5.64199 7.90441 5.61577 7.67484 5.63874 7.44755ZM5.65375 6.50255C5.68 6.38817 5.70062 6.27005 5.74937 6.16505C5.65562 6.6488 5.97812 6.99755 6.08687 7.41755C6.12812 7.57505 6.14312 7.74192 6.20687 7.89005C6.2125 7.89192 6.21812 7.8863 6.22187 7.88255C6.0625 7.4363 6.29687 7.0238 6.52187 6.67317C6.577 6.57697 6.61625 6.4725 6.63812 6.3638C6.6625 6.5663 6.61937 6.7988 6.58187 7.00692C6.535 7.27505 6.44312 7.5263 6.36999 7.78505C6.33039 7.95369 6.3272 8.12883 6.36062 8.2988L6.33625 8.28005C6.1675 7.9688 5.83375 7.72505 5.73437 7.3838C5.63938 7.1003 5.61177 6.79857 5.65375 6.50255ZM5.83187 5.9813C5.838 5.63688 5.96397 5.30537 6.18812 5.0438C6.19375 5.04005 6.19937 5.03442 6.20687 5.0363C5.97062 5.39255 6.18624 5.8463 6.15437 6.25317L6.12437 6.66942C6.12812 6.67317 6.12812 6.6863 6.13937 6.68067C6.15437 6.6338 6.15812 6.58505 6.16562 6.5363C6.22187 6.1988 6.51812 5.9663 6.7675 5.73005C6.82518 5.6756 6.87001 5.60898 6.89875 5.53505C6.87812 5.7038 6.83124 5.87442 6.75624 6.0263C6.56312 6.4163 6.19187 6.7313 6.12437 7.17567C6.09249 6.75005 5.83187 6.43317 5.83187 5.9813ZM6.45062 4.74567C6.55841 4.61607 6.70182 4.5209 6.86312 4.47192C6.55375 4.6838 6.57062 5.06067 6.47687 5.37567C6.44312 5.49005 6.3925 5.5988 6.36437 5.71692L6.37375 5.72442C6.429 5.5826 6.51552 5.45507 6.62687 5.3513C6.8425 5.1488 7.16687 5.02505 7.27375 4.72692C7.26812 5.1413 6.91562 5.4563 6.59312 5.70005C6.44956 5.80836 6.33281 5.94821 6.25187 6.1088C6.26312 5.9963 6.27062 5.8988 6.25937 5.78817C6.22562 5.4263 6.20312 5.01942 6.45249 4.74567H6.45062ZM7.6975 4.05005C7.47062 4.25067 7.31875 4.50755 7.1425 4.73817C6.99812 4.9313 6.7975 5.04942 6.62687 5.21067C6.72062 5.01942 6.73562 4.79817 6.85375 4.61255C7.05437 4.2938 7.38812 4.17005 7.6975 4.05005Z" fill="white"/>
<path d="M8.82438 11.0063C8.87878 11.0653 8.93839 11.1193 9.00251 11.1675C9.40001 10.755 9.86876 10.3013 10.3131 10.3013C10.5888 10.3013 10.7856 10.5113 11.0181 10.6575C11.3388 10.8638 11.7794 10.98 12.1563 10.8282C12.3694 10.7552 12.5587 10.6255 12.7038 10.4532C12.5442 10.5527 12.3633 10.6131 12.1759 10.6294C11.9886 10.6457 11.8 10.6174 11.6256 10.5469C11.2563 10.3932 10.8775 10.1888 10.4556 10.1888C9.83313 10.1888 9.24063 10.6107 8.82438 11.0063ZM13.4294 9.71255C13.0169 10.1813 12.3438 10.0313 11.7944 10.1475C11.7175 10.1663 11.6444 10.1907 11.5619 10.1775C11.6275 10.1363 11.7156 10.1307 11.7906 10.1025C12.2181 9.9413 12.2838 9.4838 12.5181 9.17067C12.2181 9.36942 11.9725 9.63942 11.6931 9.8963C11.4962 10.0591 11.258 10.1643 11.005 10.2C11.065 10.2225 11.1438 10.2188 11.2113 10.2338C11.6613 10.3463 12.16 10.5225 12.64 10.365C12.9747 10.2534 13.2556 10.0207 13.4275 9.71255H13.4294ZM14.0894 8.62505C13.8325 9.20817 13.1856 9.25505 12.7581 9.6113C12.6815 9.67938 12.5964 9.73735 12.505 9.7838L12.4994 9.78005C12.6051 9.68789 12.7001 9.58411 12.7825 9.47067C13.0281 9.11442 12.9475 8.62692 13.1369 8.24817C12.961 8.44371 12.815 8.66423 12.7038 8.90255C12.5444 9.2813 12.49 9.71442 12.1319 10.0032C12.52 9.87567 12.9663 9.90005 13.3131 9.67317C13.6806 9.43317 14.02 9.05442 14.0894 8.62692V8.62505ZM14.365 7.44755C14.3275 7.9613 13.7838 8.23505 13.5213 8.65692C13.465 8.74692 13.4088 8.84067 13.3281 8.91192C13.3413 8.85755 13.3844 8.8088 13.4106 8.7563C13.4967 8.56676 13.531 8.35778 13.51 8.15067C13.4856 7.88817 13.3769 7.64442 13.4181 7.3688C13.1931 7.85442 13.2663 8.46005 13.1369 8.98317C13.1069 9.09942 13.0375 9.20067 12.9944 9.3113C13.2138 9.14255 13.5025 8.99255 13.7444 8.80505C13.9855 8.63169 14.1738 8.39476 14.2881 8.12067C14.3618 7.90441 14.388 7.67484 14.365 7.44755ZM14.35 6.50255C14.3238 6.38817 14.3031 6.27005 14.2544 6.16505C14.3481 6.6488 14.0256 6.99755 13.9169 7.41755C13.8756 7.57505 13.8606 7.74192 13.7969 7.89005C13.7913 7.89192 13.7856 7.8863 13.7819 7.88255C13.9413 7.4363 13.7069 7.0238 13.4819 6.67317C13.4268 6.57697 13.3875 6.4725 13.3656 6.3638C13.3413 6.5663 13.3844 6.7988 13.4219 7.00692C13.4688 7.27505 13.5606 7.5263 13.6338 7.78505C13.6734 7.95369 13.6766 8.12883 13.6431 8.2988L13.6675 8.28005C13.8363 7.9688 14.17 7.72505 14.2694 7.3838C14.3644 7.1003 14.392 6.79857 14.35 6.50255ZM14.1719 5.9813C14.1658 5.63688 14.0398 5.30537 13.8156 5.0438C13.81 5.04005 13.8044 5.03442 13.7969 5.0363C14.0331 5.39255 13.8175 5.8463 13.8494 6.25317L13.8794 6.66942C13.8756 6.67317 13.8756 6.6863 13.8644 6.68067C13.8494 6.6338 13.8456 6.58505 13.8381 6.5363C13.7819 6.1988 13.4856 5.9663 13.2363 5.73005C13.1786 5.6756 13.1337 5.60898 13.105 5.53505C13.1256 5.7038 13.1725 5.87442 13.2475 6.0263C13.4406 6.4163 13.8119 6.7313 13.8794 7.17567C13.9113 6.75005 14.1719 6.43317 14.1719 5.9813ZM13.5531 4.74567C13.4453 4.61607 13.3019 4.5209 13.1406 4.47192C13.45 4.6838 13.4331 5.06067 13.5269 5.37567C13.5606 5.49005 13.6113 5.5988 13.6394 5.71692L13.63 5.72442C13.5748 5.5826 13.4882 5.45507 13.3769 5.3513C13.1613 5.1488 12.8369 5.02505 12.73 4.72692C12.7356 5.1413 13.0881 5.4563 13.4106 5.70005C13.5542 5.80836 13.6709 5.94821 13.7519 6.1088C13.7406 5.9963 13.7331 5.8988 13.7444 5.78817C13.7781 5.4263 13.8006 5.01942 13.5513 4.74567H13.5531ZM12.3063 4.05005C12.5331 4.25067 12.685 4.50755 12.8613 4.73817C13.0056 4.9313 13.2063 5.04942 13.3769 5.21067C13.2831 5.01942 13.2681 4.79817 13.15 4.61255C12.9494 4.2938 12.6156 4.17005 12.3063 4.05005Z" fill="white"/>
<path d="M12.7812 8.18745L12.7156 8.14995C12.5731 8.4429 12.3842 8.71093 12.1562 8.9437L11.7656 8.54995C11.9544 8.35495 12.1096 8.13003 12.225 7.88433L12.1594 7.84683C12.0465 8.08697 11.8944 8.30663 11.7094 8.49683L11.3531 8.14058C11.5039 7.98475 11.6266 7.80395 11.7156 7.6062L11.65 7.5687C11.5643 7.7606 11.4458 7.93613 11.3 8.08745L10.9094 7.69683C11.0168 7.58252 11.1016 7.44892 11.1594 7.30308L11.0937 7.26558C11.0391 7.40453 10.9585 7.5318 10.8562 7.64058L10.4969 7.28433C10.5977 7.17208 10.6573 7.02876 10.6656 6.87808H11.1719C11.1681 7.01075 11.1417 7.1418 11.0937 7.26558L11.1594 7.30308C11.2132 7.16763 11.2428 7.02378 11.2469 6.87808H11.8031C11.7974 7.11638 11.7443 7.35116 11.6469 7.5687L11.7156 7.6062C11.818 7.37683 11.8733 7.12922 11.8781 6.87808H12.3844C12.3788 7.21328 12.3021 7.54347 12.1594 7.84683L12.225 7.88433C12.3728 7.56918 12.4516 7.22612 12.4562 6.87808H13.0156C13.0104 7.31894 12.908 7.75322 12.7156 8.14995L12.7812 8.18745C12.9857 7.76895 13.0926 7.30949 13.0937 6.8437C13.0941 6.44636 13.0177 6.05268 12.8687 5.68433L12.8 5.71558C12.94 6.06237 13.0142 6.43222 13.0187 6.8062H12.4594C12.456 6.50648 12.3978 6.20992 12.2875 5.9312L12.2187 5.96245C12.3259 6.23108 12.3831 6.51702 12.3875 6.8062H11.875C11.8715 6.58594 11.8291 6.36803 11.75 6.16245L11.6812 6.1937C11.7562 6.3894 11.7964 6.59668 11.8 6.8062H11.25C11.2464 6.67177 11.2211 6.5388 11.175 6.41245L11.1062 6.4437C11.1482 6.56015 11.1714 6.6825 11.175 6.8062H10.6687C10.6604 6.65552 10.6009 6.51219 10.5 6.39995L10.8594 6.04058C10.968 6.15576 11.052 6.29186 11.1062 6.44058L11.175 6.41245C11.1172 6.25445 11.0279 6.10985 10.9125 5.98745L11.3062 5.5937C11.472 5.76632 11.6016 5.97031 11.6875 6.1937L11.7562 6.16245C11.6656 5.93063 11.5296 5.71921 11.3562 5.54058L11.7156 5.18433C11.9331 5.40907 12.1041 5.67457 12.2187 5.96558L12.2875 5.93433C12.168 5.63493 11.9907 5.36202 11.7656 5.1312L12.1594 4.73745C12.4349 5.01842 12.6525 5.35075 12.8 5.71558L12.8687 5.68433C12.7128 5.30036 12.4811 4.95176 12.1875 4.65933C11.8936 4.3638 11.5427 4.13098 11.1562 3.97495L11.1312 4.04683C11.4958 4.19336 11.8281 4.40995 12.1094 4.68433L11.7156 5.07808C11.4886 4.8581 11.2212 4.68407 10.9281 4.56558L10.8969 4.63433C11.182 4.74982 11.4421 4.91964 11.6625 5.13433L11.3062 5.49058C11.1348 5.32482 10.9332 5.19331 10.7125 5.10308L10.6875 5.17183C10.8965 5.25831 11.0873 5.38341 11.25 5.54058L10.8594 5.93433C10.7501 5.83108 10.6231 5.7485 10.4844 5.69058L10.4562 5.76245C10.5854 5.81591 10.704 5.89212 10.8062 5.98745L10.4437 6.3437C10.3315 6.24282 10.1882 6.18329 10.0375 6.17495V5.6687C10.1804 5.67323 10.3213 5.70395 10.4531 5.75933L10.4812 5.69058C10.3405 5.63132 10.1901 5.59848 10.0375 5.5937V5.03745C10.2594 5.04095 10.4787 5.08545 10.6844 5.1687L10.7125 5.09995C10.4979 5.01282 10.269 4.9662 10.0375 4.96245V4.4562C10.3323 4.46075 10.6237 4.52009 10.8969 4.6312L10.9219 4.56245C10.6406 4.44892 10.3408 4.38852 10.0375 4.38433V3.82495C10.4115 3.82946 10.7813 3.90365 11.1281 4.0437L11.1531 3.97183C10.7863 3.82577 10.3948 3.75151 9.99999 3.75308C9.52052 3.75213 9.04748 3.86343 8.61874 4.07808L8.64999 4.14058C9.05808 3.93811 9.50693 3.83124 9.96249 3.82808V4.38433C9.59692 4.38876 9.23701 4.47526 8.90936 4.63745L8.94374 4.69995C9.26091 4.54379 9.60898 4.46051 9.96249 4.4562V4.96245C9.69154 4.96747 9.42495 5.03145 9.18124 5.14995L9.21249 5.21558C9.44666 5.10264 9.70254 5.04187 9.96249 5.03745V5.5937C9.79254 5.59924 9.62554 5.63966 9.47186 5.71245L9.50311 5.77495C9.64743 5.70869 9.80373 5.67254 9.96249 5.6687V6.17495C9.88727 6.17912 9.8133 6.19603 9.74374 6.22495L9.77499 6.28745C9.84665 6.25946 9.92306 6.24566 9.99999 6.24683C10.0777 6.24653 10.1546 6.26156 10.2265 6.29106C10.2983 6.32055 10.3637 6.36392 10.4187 6.4187C10.4748 6.47425 10.5192 6.54048 10.5493 6.61348C10.5793 6.68648 10.5945 6.76476 10.5937 6.8437C10.5937 7.00117 10.5312 7.1522 10.4198 7.26355C10.3085 7.3749 10.1575 7.43745 9.99999 7.43745C9.9221 7.43733 9.845 7.42181 9.77313 7.39178C9.70127 7.36174 9.63605 7.31779 9.58124 7.26245C9.5259 7.20764 9.48194 7.14242 9.45191 7.07056C9.42188 6.99869 9.40635 6.92159 9.40624 6.8437C9.40594 6.76528 9.42126 6.68759 9.45131 6.61516C9.48135 6.54273 9.52552 6.47701 9.58124 6.42183C9.63676 6.36678 9.7026 6.32324 9.77499 6.2937L9.74061 6.22808C9.67193 6.25694 9.60856 6.29708 9.55311 6.34683L9.19686 5.98745C9.28813 5.90157 9.39258 5.83088 9.50624 5.77808L9.47186 5.71558C9.3516 5.77067 9.24085 5.84451 9.14374 5.93433L8.74999 5.54058C8.88637 5.40975 9.04243 5.30114 9.21249 5.2187L9.18124 5.1562C9.00439 5.24193 8.84202 5.35474 8.69999 5.49058L8.34061 5.12495C8.51838 4.95285 8.72186 4.80947 8.94374 4.69995L8.91249 4.63745C8.68274 4.75002 8.47189 4.89761 8.28749 5.07495L7.89374 4.67808C8.11757 4.46075 8.37373 4.27943 8.65311 4.14058L8.61874 4.07495C8.01548 4.37825 7.52735 4.86967 7.22811 5.47495L7.29061 5.5062C7.43188 5.22045 7.61751 4.95888 7.84061 4.7312L8.23749 5.12808C8.05271 5.31799 7.89971 5.53641 7.78436 5.77495L7.84686 5.80933C7.95858 5.57643 8.10739 5.36324 8.28749 5.17808L8.64686 5.53433C8.50128 5.68535 8.38193 5.85962 8.29374 6.04995L8.35624 6.08433C8.44201 5.90052 8.55823 5.73253 8.69999 5.58745L9.09374 5.9812C8.99123 6.08866 8.90869 6.21353 8.84999 6.34995L8.91561 6.38745C8.96968 6.25692 9.04698 6.13728 9.14374 6.03433L9.50311 6.39058C9.40179 6.50378 9.34225 6.64823 9.33436 6.79995H8.82811C8.8321 6.65829 8.86174 6.51853 8.91561 6.38745L8.85311 6.34995C8.79196 6.49239 8.75804 6.64502 8.75311 6.79995H8.19686C8.20122 6.55277 8.25654 6.30915 8.35936 6.08433L8.29686 6.05308C8.18742 6.28722 8.12783 6.54156 8.12186 6.79995H7.61561C7.62122 6.45668 7.70118 6.11871 7.84999 5.80933L7.78436 5.77495C7.63054 6.09504 7.54842 6.44485 7.54374 6.79995H6.98436C6.98984 6.35204 7.09555 5.91104 7.29374 5.50933L7.22811 5.47495C7.01846 5.89855 6.90938 6.36481 6.90936 6.83745C6.90932 7.13254 6.95141 7.42613 7.03436 7.70933L7.10624 7.69058C7.02857 7.42554 6.98756 7.15111 6.98436 6.87495H7.54374C7.54631 7.1047 7.58102 7.33295 7.64686 7.55308L7.71874 7.53433C7.65366 7.32045 7.61895 7.09849 7.61561 6.87495H8.12499C8.12797 7.05741 8.15745 7.23847 8.21249 7.41245L8.28749 7.3937C8.23316 7.22598 8.20368 7.05121 8.19999 6.87495H8.74999C8.75396 7.005 8.77821 7.13363 8.82186 7.2562L8.89374 7.23745C8.85187 7.12099 8.82867 6.99865 8.82499 6.87495H9.33124C9.33957 7.02564 9.39911 7.16896 9.49999 7.2812L9.14061 7.64058C9.03172 7.52442 8.94771 7.38724 8.89374 7.23745L8.82186 7.2562C8.87996 7.41918 8.9715 7.5682 9.09061 7.6937L8.69374 8.08745C8.50541 7.89047 8.36435 7.65324 8.28124 7.3937L8.20624 7.41245C8.29424 7.68553 8.44394 7.93467 8.64374 8.14058L8.28749 8.49995C8.02495 8.22876 7.83103 7.89877 7.72186 7.53745L7.64999 7.5562C7.76229 7.93043 7.96268 8.27228 8.23436 8.55308L7.84374 8.94683C7.5 8.59558 7.24782 8.16526 7.10936 7.6937L7.03436 7.71245C7.18012 8.20875 7.44885 8.6602 7.81561 9.02495C8.06349 9.27402 8.352 9.47903 8.66874 9.6312L8.70624 9.56558C8.40607 9.42313 8.13153 9.23201 7.89374 8.99995L8.28749 8.6062C8.48931 8.80066 8.72288 8.95919 8.97811 9.07495L9.01561 9.01245C8.76587 8.89927 8.53753 8.74387 8.34061 8.55308L8.69686 8.19683C8.86196 8.35551 9.05472 8.4826 9.26561 8.57183L9.30311 8.5062C9.09793 8.42057 8.91039 8.29766 8.74999 8.1437L9.14374 7.74995C9.26952 7.86794 9.41853 7.95841 9.58124 8.01558L9.61561 7.94995C9.45973 7.89607 9.31702 7.8098 9.19686 7.69683L9.55624 7.33745C9.66848 7.43833 9.8118 7.49786 9.96249 7.5062V8.01245C9.84542 8.00891 9.72955 7.98784 9.61874 7.94995L9.57811 8.01245C9.70147 8.05759 9.83121 8.08291 9.96249 8.08745V8.6437C9.73599 8.63984 9.51227 8.59319 9.30311 8.5062L9.26561 8.5687C9.48617 8.6628 9.72274 8.71372 9.96249 8.7187V9.22495C9.6356 9.22004 9.31325 9.1477 9.01561 9.01245L8.97811 9.07495C9.28705 9.21749 9.6223 9.29412 9.96249 9.29995V9.8562C9.52762 9.85153 9.09897 9.75236 8.70624 9.56558L8.66874 9.62808C9.0842 9.8275 9.53914 9.93109 9.99999 9.9312C10.4937 9.9312 10.9687 9.81558 11.3937 9.59995L11.3562 9.5312C10.9474 9.73914 10.4962 9.85033 10.0375 9.8562V9.29683C10.4067 9.29164 10.7699 9.20297 11.1 9.03745L11.0687 8.97183C10.7484 9.13217 10.3957 9.21766 10.0375 9.22183V8.72183C10.3157 8.71556 10.589 8.64723 10.8375 8.52183L10.8031 8.4562C10.565 8.5747 10.3034 8.63874 10.0375 8.6437V8.08745C10.2142 8.08256 10.3879 8.03994 10.5469 7.96245L10.5156 7.8937C10.3665 7.9669 10.2035 8.00738 10.0375 8.01245V7.5062C10.1882 7.49786 10.3315 7.43833 10.4437 7.33745L10.8031 7.69683C10.7166 7.7766 10.6187 7.84296 10.5125 7.8937L10.5469 7.96245C10.6601 7.90759 10.7644 7.83595 10.8562 7.74995L11.25 8.14058C11.1179 8.26783 10.9672 8.37425 10.8031 8.4562L10.8344 8.52183C11.0064 8.43699 11.1645 8.32634 11.3031 8.1937L11.6594 8.54995C11.4842 8.72008 11.2839 8.86235 11.0656 8.97183L11.1031 9.03745C11.3272 8.92459 11.5327 8.7781 11.7125 8.60308L12.1031 8.99683C11.8828 9.21189 11.6309 9.39208 11.3562 9.5312L11.3937 9.59995C11.6861 9.4514 11.953 9.25731 12.1844 9.02495C12.4287 8.78104 12.6304 8.49796 12.7812 8.18745Z" fill="white"/>
<path d="M10.1781 6.12502H10.1594V6.1469H10.1781V6.12502ZM10.1312 6.09377H10.1562V6.11252H10.1312V6.09377ZM10.0875 6.08752L10.1062 6.09065L10.1094 6.0719H10.0875V6.08752ZM10.0687 6.08127H10.0469V6.0594L10.0719 6.06252L10.0687 6.08127ZM9.8875 6.05627H9.9125V6.07502H9.8875V6.05627ZM9.83437 6.09377L9.85625 6.0969V6.07815H9.8375L9.83437 6.09377ZM9.83437 6.12502L9.8125 6.11565V6.0969L9.84062 6.10627L9.83437 6.12502ZM9.79062 6.1469V6.12815L9.80625 6.12502L9.80937 6.14377L9.79062 6.1469ZM7.33437 8.0719V8.05627H7.31875V8.08752H7.34375V8.12815H7.3625V8.08127L7.33437 8.0719ZM7.56875 8.35315L7.5375 8.3219L7.50937 8.28752L7.49687 8.25627L7.475 8.20002L7.52187 8.22502L7.5375 8.26877L7.55937 8.2844L7.58125 8.33127L7.56875 8.35315ZM8.21562 9.20002L8.2125 9.1719L8.18437 9.1344L8.225 9.14065L8.2625 9.17502L8.28125 9.21565L8.25625 9.22815L8.24687 9.2094L8.21562 9.20002ZM9.90312 6.32815H9.87187L9.8625 6.2594L9.88125 6.2469V6.21252H9.77187V6.17815L9.78437 6.16877L9.75937 6.1594L9.74062 6.1844L9.73437 6.21252L9.70312 6.21877V6.2344H9.68125V6.27502L9.59375 6.3469L9.41875 6.34065C9.40937 6.3719 9.37812 6.34065 9.37812 6.34065C9.36875 6.31877 9.32812 6.34065 9.32812 6.34065C9.32812 6.3719 9.26562 6.3219 9.26562 6.3219L9.15937 6.24377C9.09687 6.18752 9.00312 6.2594 9 6.27502C9 6.31877 8.92812 6.2844 8.92812 6.2844C8.92812 6.2844 8.86562 6.26565 8.85625 6.29065C8.84687 6.31565 8.80625 6.3094 8.80625 6.3094L8.8 6.3219L8.76875 6.32815L8.7625 6.3469L8.725 6.35315H8.81875C8.84375 6.3469 8.80937 6.40627 8.79375 6.40315H8.75L8.73437 6.4219H8.69375L8.675 6.4469L8.61562 6.44377C8.61562 6.44377 8.58437 6.4719 8.58437 6.48127C8.5875 6.49065 8.57812 6.51877 8.56875 6.51877C8.55937 6.51877 8.54062 6.55002 8.54687 6.55627C8.55312 6.56565 8.52812 6.5969 8.52812 6.5969L8.52187 6.62815L8.50312 6.63752V6.7219L8.46562 6.7469V6.7844L8.40937 6.8469L8.41562 6.89377L8.36875 6.9469L8.375 6.9969L8.34687 7.00627L8.34062 7.02815L8.32812 7.09377L8.35937 7.0969C8.375 7.09065 8.37187 7.13752 8.35937 7.1469C8.34687 7.15315 8.3125 7.16565 8.33125 7.17815C8.35 7.19065 8.28125 7.18752 8.28125 7.16877C8.28125 7.1469 8.24375 7.13127 8.23437 7.13752C8.225 7.14377 8.20937 7.1094 8.20937 7.1094C8.17812 7.07815 8.07187 7.11252 8.07187 7.11252L8.05625 7.16565C8.02187 7.16877 8 7.22815 8 7.22815C7.96875 7.23752 7.95 7.2719 7.95937 7.28127C7.96875 7.29065 7.94375 7.29377 7.94375 7.29377V7.36252L7.92812 7.3844V7.46252C7.95 7.46252 7.94687 7.49377 7.94687 7.49377C7.91562 7.50002 7.92187 7.54065 7.92187 7.54065L7.85625 7.56252L7.84375 7.58127H7.7625L7.74062 7.60002L7.71875 7.57815H7.5625L7.55625 7.56252L7.525 7.55627V7.5219H7.475L7.46562 7.54377L7.41562 7.5469C7.41875 7.57815 7.36562 7.62502 7.35937 7.61252C7.35312 7.60002 7.31875 7.56565 7.33437 7.5594C7.3528 7.55391 7.3716 7.54973 7.39062 7.5469V7.52502L7.275 7.5219L7.2625 7.54065L7.21562 7.54377V7.59377L7.19375 7.60002C7.17812 7.6094 7.19687 7.64377 7.19687 7.64377C7.21875 7.66565 7.19687 7.70315 7.19687 7.70315C7.175 7.7219 7.20937 7.75627 7.20937 7.75627C7.23437 7.76252 7.19375 7.78127 7.19375 7.78127C7.2 7.81252 7.21875 7.8219 7.21875 7.8219C7.2 7.85315 7.23125 7.86877 7.23125 7.86877L7.23437 7.9219L7.25625 7.9344V7.9719L7.26875 7.99377H7.31875V7.91252C7.27187 7.86252 7.35312 7.85002 7.35625 7.86877C7.35937 7.88752 7.39375 7.90002 7.39375 7.90002C7.4 7.9469 7.45625 7.97502 7.46875 7.92502C7.48437 7.87815 7.5 7.90627 7.50625 7.92815C7.51562 7.95315 7.575 8.00627 7.575 8.00627H7.62187L7.62812 8.05002C7.68125 8.0469 7.69687 8.05002 7.71875 8.12502C7.724 8.14592 7.73409 8.1653 7.7482 8.18158C7.76231 8.19787 7.78006 8.21061 7.8 8.21877L7.84375 8.21565C7.84375 8.17502 7.8875 8.2219 7.8875 8.24065C7.8875 8.2594 7.97187 8.33127 7.97187 8.33127L8.05625 8.35002L8.13437 8.41252L8.19375 8.40627H8.21875C8.23437 8.35315 8.30937 8.4094 8.3125 8.42815C8.31875 8.4469 8.36875 8.48127 8.375 8.46565C8.38125 8.45002 8.41562 8.4594 8.42187 8.50627C8.42812 8.55315 8.45312 8.54377 8.45312 8.54377L8.62812 8.54065L8.69062 8.48752L8.85 8.4844C8.93125 8.48127 8.88125 8.36877 8.86562 8.36877C8.8375 8.3469 8.875 8.25627 8.875 8.25627L8.64687 8.04377C8.59375 8.04377 8.64062 7.96877 8.64062 7.96877C8.68125 7.94377 8.63125 7.90002 8.63125 7.90002C8.6375 7.86252 8.60937 7.81877 8.60937 7.81877C8.55312 7.78127 8.56875 7.7094 8.56875 7.7094V7.65627C8.52187 7.61252 8.5875 7.60627 8.5875 7.60627C8.60937 7.56877 8.57187 7.54065 8.57187 7.54065V7.50002L8.51875 7.49377L8.5125 7.34377L8.4 7.1844C8.37812 7.17815 8.39375 7.13752 8.39375 7.13752C8.425 7.1219 8.3875 7.0844 8.3875 7.0844V7.01565L8.45 7.0094L8.46562 6.9844H8.49687V6.90315C8.50937 6.8594 8.54687 6.88127 8.54687 6.88127L8.59062 6.8844L8.61562 6.83752L8.62187 6.80002H8.59062C8.55 6.77502 8.56875 6.69377 8.56875 6.69377C8.63125 6.60315 8.69687 6.65627 8.69687 6.65627L8.74062 6.65315C8.80625 6.6969 8.74687 6.77815 8.74687 6.77815C8.73437 6.7969 8.74062 6.85627 8.74062 6.85627L8.75625 6.9594L8.71562 6.99065C8.68437 7.01252 8.68437 7.05627 8.71875 7.06565C8.74375 7.06877 8.73437 7.12815 8.69687 7.08752C8.64062 7.08752 8.72812 7.13752 8.70312 7.12502C8.75937 7.15627 8.74687 7.10002 8.74687 7.10002L8.82187 7.04065C8.85312 7.01877 8.9 7.08752 8.9 7.0969C8.9 7.10627 9.025 7.10002 9.025 7.10002C9.05625 7.1219 9.07187 7.18127 9.07187 7.18127C9.10312 7.1344 9.17812 7.17815 9.125 7.20315C9.175 7.2344 9.175 7.26252 9.175 7.26252C9.21562 7.25002 9.21562 7.28127 9.21562 7.29065L9.22812 7.24377C9.18125 7.2094 9.29062 7.1969 9.25937 7.2594L9.24062 7.28752L9.27187 7.31252V7.3844C9.34375 7.37815 9.325 7.29377 9.325 7.29377L9.35625 7.28752C9.35625 7.25627 9.37812 7.27502 9.37812 7.27502C9.35625 7.16877 9.42812 7.15002 9.42812 7.15002C9.46875 7.13752 9.47187 7.05315 9.47187 7.05315C9.44062 7.04065 9.45937 6.9969 9.49062 7.0344C9.52187 7.0719 9.47187 6.9594 9.47187 6.9594L9.44687 6.93752L9.4125 6.9344L9.40937 6.90002H9.35312L9.34375 6.94377L9.32187 6.95002L9.31562 6.93752L9.30625 6.96877H9.25L9.24687 6.9344L9.27812 6.92502L9.29375 6.90627L9.30312 6.85315H9.34375L9.39687 6.83752C9.39687 6.7844 9.42812 6.7969 9.42812 6.7969L9.44687 6.81252L9.475 6.8344V6.85315L9.45937 6.86252L9.45625 6.88752L9.46562 6.92502H9.4875C9.49687 6.8719 9.5625 6.8719 9.58125 6.90627L9.6 6.8594C9.55625 6.83752 9.6 6.80315 9.6125 6.81877C9.625 6.8344 9.65312 6.77815 9.65312 6.77815C9.65312 6.77815 9.675 6.8094 9.65312 6.76877C9.63125 6.73127 9.66875 6.71252 9.66875 6.71252C9.6625 6.67502 9.70937 6.68127 9.70937 6.68127L9.7125 6.62815H9.66875C9.65937 6.6719 9.62187 6.63127 9.64062 6.6219C9.65937 6.61252 9.67812 6.59377 9.67812 6.59377V6.56252L9.69687 6.55627L9.7 6.52502H9.74687L9.7875 6.50627L9.79687 6.49065L9.84062 6.48752L9.90312 6.43127L9.89687 6.40627C9.85937 6.40627 9.89687 6.37502 9.89687 6.37502L9.90312 6.32815Z" fill="white"/>
<path d="M8.64687 6.9562L8.59062 6.94995L8.59374 6.97183H8.60937C8.63437 7.01558 8.61249 7.12183 8.61249 7.12183C8.61249 7.12183 8.57499 7.12495 8.56874 7.1062C8.56249 7.08745 8.54687 7.14683 8.55937 7.15933C8.57187 7.1687 8.61562 7.15933 8.62187 7.19058C8.62187 7.22808 8.64687 7.17183 8.64687 7.17183V6.95308V6.9562Z" fill="white"/>
<path d="M8.64689 7.22495L8.66564 7.22183L8.66876 7.19995L8.62189 7.2312L8.59064 7.21245V7.28745L8.64064 7.35308L8.65939 7.30933L8.66564 7.2812L8.64376 7.27183L8.64689 7.22495ZM8.67189 7.42495V7.3937H8.65001V7.42183L8.67189 7.42495ZM8.64376 7.57495V7.55308L8.61876 7.5562V7.57808L8.64376 7.57495ZM8.68126 7.47808C8.68499 7.47808 8.68857 7.47659 8.69121 7.47396C8.69384 7.47132 8.69532 7.46774 8.69532 7.46401C8.69532 7.46028 8.69384 7.45671 8.69121 7.45407C8.68857 7.45143 8.68499 7.44995 8.68126 7.44995C8.67932 7.44989 8.67739 7.45028 8.67563 7.45109C8.67387 7.45191 8.67232 7.45312 8.6711 7.45464C8.66989 7.45615 8.66905 7.45793 8.66864 7.45983C8.66823 7.46173 8.66828 7.4637 8.66876 7.46558C8.66876 7.47183 8.67501 7.47808 8.68126 7.47808Z" fill="white"/>
<path d="M8.70302 7.5438C8.70987 7.5438 8.71542 7.5382 8.71542 7.5313C8.71542 7.5244 8.70987 7.5188 8.70302 7.5188C8.69617 7.5188 8.69061 7.5244 8.69061 7.5313C8.69061 7.5382 8.69617 7.5438 8.70302 7.5438Z" fill="white"/>
<path d="M8.70302 7.18125C8.70987 7.18125 8.71542 7.17565 8.71542 7.16875C8.71542 7.16185 8.70987 7.15625 8.70302 7.15625C8.69617 7.15625 8.69061 7.16185 8.69061 7.16875C8.69061 7.17565 8.69617 7.18125 8.70302 7.18125Z" fill="white"/>
<path d="M9.76249 6.70314L9.73124 6.70001L9.72187 6.71564H9.70624V6.74064H9.72187L9.72499 6.75939L9.71249 6.77189L9.70624 6.78752L9.68124 6.79376L9.62499 6.84689V6.87189L9.60624 6.89377L9.58749 6.94377H9.52499L9.50937 7.00314L9.51874 7.05002L9.57499 7.07189L9.58124 7.04064L9.59999 7.03127L9.60312 7.00002L9.61562 6.97814L9.63437 6.95627L9.64062 6.93127L9.67187 6.91252L9.70937 6.90314L9.72499 6.88439L9.73124 6.84689V6.81877L9.74687 6.80002L9.78437 6.78439V6.72189H9.76562L9.76249 6.70314ZM9.84999 6.91876V6.87189L9.84374 6.83127L9.79687 6.80939L9.76562 6.84064L9.75624 6.88439V6.91564L9.72499 6.92189L9.71874 7.00627L9.69374 7.01564L9.69687 7.04689L9.66562 7.05627L9.62812 7.06564L9.62187 7.10627L9.59687 7.12189L9.58437 7.16252L9.56874 7.25314C9.56874 7.25314 9.59999 7.30627 9.61249 7.28127C9.62812 7.25627 9.65312 7.25002 9.65312 7.25002L9.66249 7.23127H9.74687C9.75312 7.20002 9.79374 7.21252 9.79374 7.22814C9.79374 7.24377 9.82499 7.22814 9.82499 7.22814L9.84687 7.19689H9.88124L9.88437 7.15627L9.89999 7.14689V7.09377C9.94999 7.07814 9.94374 7.03127 9.94374 7.03127L9.95624 7.01564L9.94999 6.99377C9.92499 6.98439 9.93749 6.96252 9.95312 6.96877C9.96874 6.97502 9.93124 6.93752 9.93124 6.93752C9.91249 6.95627 9.89999 6.92189 9.89999 6.92189H9.84999V6.91876ZM9.89999 7.30002C9.89999 7.33752 9.84999 7.35002 9.84999 7.35002L9.81874 7.34064L9.79687 7.32502V7.28127L9.82187 7.27814L9.82812 7.29689L9.89999 7.30002ZM10.0687 7.09689C10.075 7.12814 10.075 7.05314 10.0875 7.05627C10.1 7.05939 10.0906 7.01251 10.0906 7.01251L10.0344 7.05314C10.0625 7.05627 10.0656 7.08439 10.0687 7.09689ZM10.2344 6.93439C10.2469 6.96251 10.2437 7.00314 10.2906 7.03439C10.3062 7.04377 10.2812 7.06564 10.2656 7.05627C10.2421 7.03253 10.2211 7.00634 10.2031 6.97814V6.93752C10.2156 6.91252 10.2281 6.92189 10.2344 6.93439ZM10.2437 7.90314L10.2531 7.91877L10.275 7.88752L10.2562 7.87814L10.2344 7.89377L10.2437 7.90314ZM10.1562 7.84377V7.88127ZM10.6062 7.80002L10.6312 7.78439L10.6219 7.76564L10.5969 7.78127L10.6062 7.80002ZM11.5094 8.45627L11.5375 8.47189V8.52501C11.5781 8.56251 11.7 8.53127 11.7 8.52189L11.6937 8.40314L11.6781 8.38752L11.675 8.30939C11.6875 8.26877 11.6125 8.20939 11.6094 8.22189C11.6031 8.23439 11.5625 8.22189 11.5625 8.23752C11.5625 8.25002 11.5375 8.31252 11.55 8.33439C11.5625 8.35627 11.5406 8.35627 11.5375 8.37814C11.5344 8.40002 11.5031 8.44064 11.5062 8.45939L11.5094 8.45627ZM11.4406 8.33127C11.4344 8.35627 11.4094 8.36877 11.4 8.36252C11.3875 8.35002 11.4156 8.37502 11.4219 8.38752C11.4281 8.40002 11.4469 8.40002 11.4531 8.38752C11.4594 8.37502 11.4531 8.34689 11.4625 8.33439C11.4687 8.32189 11.4437 8.31877 11.4406 8.33439V8.33127ZM11.2937 7.75002H11.3156V7.81252H11.2937V7.75002ZM11.6187 7.14377C11.6031 7.12502 11.6812 7.09064 11.6937 7.13127C11.7062 7.16877 11.6937 7.16252 11.6812 7.15939C11.6687 7.15627 11.6375 7.16877 11.6187 7.14377ZM11.6844 6.71877V6.73752L11.7156 6.74377L11.7187 6.72502L11.6844 6.71877ZM11.5437 6.76877L11.5687 6.78439H11.5781L11.5969 6.77189V6.77814L11.6156 6.77189L11.6094 6.75627V6.74689L11.5969 6.75002L11.575 6.76564L11.5531 6.75002L11.5437 6.76877ZM11.7187 6.00002H11.6719C11.6719 6.00002 11.6875 6.00626 11.6406 5.96564C11.6 5.92501 11.5719 5.97502 11.5719 5.97502L11.5219 5.98126V6.03127L11.4969 6.04064V6.07189H11.5344C11.5344 6.07189 11.5344 6.10626 11.5437 6.09064C11.5531 6.07501 11.6312 6.09377 11.625 6.13439C11.6219 6.15002 11.7031 6.19064 11.6937 6.24064C11.7344 6.24689 11.725 6.28752 11.725 6.28752L11.7781 6.29376L11.7937 6.26251L11.8094 6.26564V6.24689L11.775 6.23752L11.7687 6.13439L11.7469 6.11877L11.7531 6.09377L11.7281 6.08439L11.7406 6.04376L11.7187 6.00002ZM11.8531 6.32189H11.8281L11.7719 6.32814L11.7406 6.39064C11.7406 6.39064 11.7562 6.40002 11.7719 6.42189C11.7812 6.44377 11.7875 6.57189 11.75 6.59377C11.7125 6.61564 11.7531 6.60314 11.7531 6.60314L11.7469 6.67502C11.7562 6.70627 11.7719 6.69064 11.7812 6.67502C11.7906 6.65939 11.8 6.65627 11.8125 6.64064C11.825 6.62502 11.8437 6.59377 11.8469 6.57189C11.85 6.55002 11.8656 6.51564 11.8562 6.50627C11.8469 6.49689 11.8656 6.45314 11.8656 6.45314C11.8656 6.45314 11.8781 6.42814 11.8656 6.40314C11.8531 6.37814 11.8687 6.34689 11.8781 6.33439L11.8531 6.32189ZM11.8906 6.45314L11.8937 6.42814H11.9125V6.45314H11.8906ZM11.8906 6.54064L11.875 6.53127L11.8844 6.51251L11.9 6.52189L11.8906 6.54064ZM11.8625 6.29064L11.85 6.25939C11.85 6.25939 11.85 6.23439 11.8562 6.22189C11.8625 6.20939 11.8437 6.19689 11.8344 6.19064C11.825 6.19064 11.8281 6.16564 11.825 6.15314C11.825 6.14064 11.8 6.13127 11.8 6.13127L11.7937 6.07189C11.7937 6.06252 11.7656 6.05002 11.775 6.04064L11.8 6.01251C11.8094 6.00626 11.7906 5.96252 11.8062 5.97189C11.8219 5.98127 11.8219 5.99689 11.8281 6.00939C11.8344 6.02189 11.8281 6.06564 11.8406 6.07501C11.8562 6.08439 11.8406 6.11877 11.8625 6.11877C11.8875 6.11877 11.8719 6.17814 11.8719 6.17814C11.8719 6.17814 11.8656 6.22189 11.8812 6.22502C11.8969 6.22814 11.8875 6.30314 11.8875 6.30314L11.8625 6.28752V6.29064ZM11.6625 5.77502C11.6719 5.78752 11.6906 5.79689 11.6906 5.80939C11.6906 5.82189 11.6844 5.83127 11.7031 5.83439C11.7219 5.83752 11.7344 5.83439 11.7406 5.84689C11.7469 5.86252 11.7469 5.89064 11.7406 5.90314C11.7406 5.91564 11.7469 5.93439 11.7625 5.93439C11.7781 5.93439 11.7812 5.93439 11.7812 5.94689C11.7812 5.95627 11.8 5.91252 11.8 5.91252C11.7844 5.90002 11.7687 5.87189 11.7687 5.87189L11.7562 5.81877C11.7562 5.81252 11.7344 5.80627 11.725 5.80314C11.7156 5.80314 11.7 5.77189 11.7 5.77189L11.6625 5.77502ZM11.6937 5.74689C11.6844 5.73439 11.675 5.72502 11.6625 5.71877C11.65 5.71252 11.6406 5.70627 11.6281 5.70627C11.6245 5.7061 11.621 5.70505 11.6179 5.7032C11.6148 5.70135 11.6122 5.69876 11.6104 5.69567C11.6085 5.69257 11.6074 5.68907 11.6073 5.68547C11.6071 5.68186 11.6078 5.67827 11.6094 5.67502C11.6156 5.66252 11.6 5.65627 11.6 5.64377C11.6 5.63127 11.6094 5.63127 11.625 5.64064C11.6406 5.65002 11.6375 5.65314 11.65 5.66876C11.6625 5.68439 11.6687 5.70002 11.6812 5.69689C11.6937 5.69377 11.7031 5.72501 11.7125 5.71564C11.7281 5.70626 11.725 5.73752 11.725 5.73752L11.6937 5.74689ZM11.3281 6.10314C11.3437 6.12189 11.2344 6.11564 11.2344 6.10314C11.2344 6.09064 11.2437 6.04689 11.2719 6.05627C11.3 6.06564 11.3031 6.00002 11.3031 6.00002C11.3031 6.00002 11.2781 6.00314 11.3 5.99064C11.3219 5.97814 11.3 5.95939 11.2906 5.95001L11.2719 5.92502H11.3156C11.3344 5.91252 11.3406 5.85314 11.3406 5.85314C11.3781 5.86564 11.3969 5.83752 11.3969 5.83752L11.4156 5.87502C11.4281 5.89064 11.3844 5.89689 11.4 5.90627C11.4156 5.91564 11.4219 5.94377 11.4156 5.95314C11.4094 5.96252 11.375 5.95314 11.375 5.94377C11.375 5.93439 11.3625 5.95939 11.375 5.97502C11.3875 5.99064 11.3594 6.01251 11.3531 6.01251C11.3469 6.01251 11.3062 6.01877 11.3406 6.03752C11.3719 6.05627 11.4125 6.04689 11.4125 6.04689C11.4125 6.04689 11.4406 6.04689 11.45 6.05939C11.4594 6.07501 11.4469 6.07814 11.4312 6.07814L11.3375 6.07189C11.3375 6.07189 11.3187 6.09377 11.3281 6.10314ZM11.1281 6.13439C11.1437 6.13127 11.1812 6.12814 11.1906 6.13439C11.1937 6.14689 11.1656 6.15939 11.1656 6.15939L11.1281 6.16564C11.1156 6.15002 11.1125 6.13439 11.1281 6.13439ZM11.5312 5.86877C11.5562 5.85627 11.6094 5.85627 11.6062 5.83752C11.6031 5.81564 11.6375 5.80939 11.6375 5.80939L11.6469 5.84689L11.675 5.86877V5.90002L11.6531 5.90627C11.6187 5.91564 11.6406 5.93127 11.6406 5.93127H11.5625L11.5531 5.90002L11.5281 5.86877H11.5312ZM11.4062 5.69689C11.4281 5.69689 11.4031 5.76876 11.4531 5.76251C11.5031 5.75626 11.4531 5.78439 11.4937 5.78752C11.5312 5.79064 11.5219 5.75939 11.5344 5.73752C11.5469 5.71564 11.5406 5.70314 11.5187 5.69689C11.4969 5.69064 11.4969 5.69064 11.4875 5.66564C11.4844 5.64064 11.4562 5.63439 11.4562 5.63439L11.45 5.59689L11.4094 5.62189L11.3687 5.67502C11.3687 5.71564 11.3906 5.69689 11.4094 5.69689H11.4062ZM11.4906 5.96252L11.5 5.94377L11.5187 5.95314L11.5094 5.97189L11.4906 5.96252ZM11.4594 5.93127H11.4781V5.95627H11.4594V5.93127ZM11.475 5.51251V5.54064H11.4594L11.4562 5.51564L11.475 5.51251ZM11.4219 5.80627H11.4406V5.82189H11.4219V5.80627ZM11.3719 5.80627V5.78752H11.4031V5.80314L11.3719 5.80627ZM11.1156 6.11252L11.0969 6.10314L11.1062 6.08127L11.125 6.09064L11.1156 6.11252ZM11.0156 6.05314V6.03439H11.0469V6.05002L11.0156 6.05314ZM10.475 6.04689L10.4062 6.05002V6.06877H10.4781L10.475 6.04689ZM10.3625 6.07501L10.3562 6.04689L10.375 6.04376L10.3812 6.07189L10.3625 6.07501ZM10.35 6.09377L10.3437 6.07814L10.3531 6.07501L10.3594 6.09064L10.35 6.09377ZM10.5062 6.04064L10.5031 6.06252L10.5344 6.06564C10.5344 6.06564 10.55 6.07814 10.55 6.08752C10.55 6.09689 10.5719 6.10626 10.5844 6.10626C10.5969 6.10626 10.6312 6.08127 10.6312 6.08127C10.6312 6.08127 10.6469 6.03752 10.6344 6.04064C10.6219 6.04377 10.5969 6.06251 10.5937 6.04376C10.5937 6.02501 10.5531 6.03439 10.5531 6.03439L10.5031 6.04064H10.5062ZM10.6625 6.00939C10.6625 6.01564 10.6531 6.02814 10.6719 6.03127C10.6906 6.03439 10.725 6.01877 10.7281 6.03752C10.7312 6.05627 10.7312 6.06877 10.7594 6.07814C10.7772 6.08576 10.7963 6.09 10.8156 6.09064L10.8781 6.08439C10.8781 6.08439 10.9187 6.09377 10.9281 6.10002C10.9625 6.13752 10.9844 6.14689 10.9937 6.13127C11.0031 6.11564 10.9937 6.07814 10.9875 6.06877C10.9875 6.05314 10.9406 5.99377 10.925 6.00627C10.9094 6.01877 10.9062 6.00627 10.8781 6.01564C10.85 6.02502 10.7906 6.01877 10.7875 6.00627C10.7875 5.99377 10.7406 5.98752 10.7406 5.97502C10.7406 5.96252 10.7094 5.94376 10.7125 5.96564C10.7156 5.98439 10.6906 5.99377 10.6844 5.98752C10.6781 5.98127 10.6594 6.00627 10.6594 6.00627L10.6625 6.00939ZM11.3781 5.60314L11.4 5.53127C11.3687 5.52502 11.375 5.49064 11.375 5.49064C11.3719 5.45939 11.3281 5.42814 11.3125 5.44064C11.2969 5.45002 11.3031 5.37502 11.3031 5.37502C11.3031 5.37502 11.3312 5.35627 11.3437 5.36564C11.3562 5.37502 11.2375 5.20627 11.2125 5.22189C11.1875 5.23752 11.1312 5.20627 11.1344 5.17814C11.1375 5.14689 11.0219 5.05314 11.0219 5.05314C11.0219 5.05314 10.9844 5.02814 10.9781 5.04689C10.9719 5.06564 10.9594 5.07814 10.9781 5.09064C10.9969 5.10001 10.9937 5.07502 11.0156 5.09689C11.0375 5.11877 11.0781 5.14689 11.0625 5.16564C11.0469 5.18439 11.0312 5.19064 11.0312 5.19064L11.05 5.21564H11.0844L11.0906 5.26877C11.0906 5.26877 11.1281 5.28751 11.1375 5.30939C11.1469 5.33126 11.1469 5.34377 11.1375 5.35939C11.1281 5.37189 11.1094 5.39064 11.1125 5.41564C11.1156 5.43752 11.1437 5.44689 11.1437 5.44689H11.1656L11.1844 5.45939V5.50002C11.2094 5.49377 11.25 5.53127 11.2469 5.55002C11.2469 5.57189 11.2531 5.55939 11.2844 5.58127C11.3156 5.60314 11.3062 5.60627 11.3281 5.62502C11.35 5.64064 11.3687 5.63127 11.3781 5.60002V5.60314Z" fill="white"/>
<path d="M10.8594 5.17498C10.8594 5.16248 10.85 5.11873 10.8687 5.12185C10.8875 5.12185 10.875 5.12185 10.9 5.13123C10.925 5.1406 10.9219 5.1156 10.9219 5.1156H10.9563L11 5.14685L10.9937 5.1781H10.9625C10.9469 5.15623 10.9156 5.1656 10.9219 5.18748C10.9281 5.20935 10.9063 5.24998 10.8938 5.2531C10.8813 5.25623 10.8406 5.25623 10.8437 5.23748L10.8594 5.17498ZM10.8344 5.0906V5.06248C10.8344 5.06248 10.8344 5.03748 10.8156 5.03748C10.7969 5.03748 10.7719 5.01873 10.7781 5.00623C10.7844 4.99373 10.725 4.98123 10.725 4.98123C10.725 4.98123 10.6719 4.93123 10.6938 4.93748C10.7094 4.94373 10.7 4.9156 10.7 4.9156C10.7 4.9156 10.6625 4.92185 10.6531 4.9156C10.6437 4.9156 10.6469 4.88435 10.6469 4.88435C10.6469 4.88435 10.6094 4.8781 10.6094 4.88435C10.6094 4.8906 10.6219 4.89685 10.6281 4.9156C10.6344 4.93435 10.6313 4.9656 10.6594 4.97185C10.6906 4.9781 10.6937 4.98435 10.6969 4.99685C10.7 5.00935 10.7344 5.01248 10.7344 5.01248L10.7594 5.02498L10.8344 5.08748V5.0906ZM10.5 4.7656L10.4906 4.7406L10.4656 4.73435V4.7656H10.5ZM10.4906 4.63435C10.4594 4.60935 10.5344 4.6531 10.5344 4.6531C10.5594 4.6531 10.575 4.67185 10.575 4.68123C10.575 4.6906 10.6062 4.68748 10.6062 4.68748L10.6094 4.6656L10.5844 4.63435L10.5625 4.61873C10.5625 4.61873 10.5312 4.6156 10.5312 4.60623C10.5312 4.59685 10.5 4.64373 10.4875 4.63435H10.4906ZM11.0625 4.6531C11.0531 4.68123 11.05 4.71873 11.0344 4.71873C11.0188 4.71873 11.025 4.75935 11.025 4.75935L11.0781 4.76248C11.0906 4.7656 11.0906 4.79685 11.0906 4.79685C11.1375 4.79685 11.1562 4.85935 11.1531 4.87498C11.1437 4.8906 11.1687 4.8906 11.1687 4.8906C11.1687 4.8906 11.1688 4.9406 11.1625 4.9531C11.1563 4.9656 11.2031 4.97498 11.2156 4.99373C11.2281 5.01248 11.2094 5.07498 11.2 5.0781C11.1906 5.08435 11.225 5.09373 11.2219 5.10935C11.2188 5.12498 11.2312 5.10935 11.2344 5.13435L11.2437 5.21248L11.2875 5.2156C11.2938 5.17498 11.375 5.17185 11.3875 5.1781C11.4406 5.19685 11.4812 5.2781 11.4812 5.29685C11.4812 5.3156 11.4469 5.31873 11.4469 5.31873L11.4531 5.41248C11.5062 5.4281 11.5469 5.50623 11.5437 5.5156C11.5375 5.5281 11.5813 5.52498 11.5813 5.52498C11.5875 5.46873 11.6406 5.48748 11.6438 5.50623C11.6438 5.52498 11.6562 5.56873 11.6562 5.56873L11.6719 5.59373L11.6938 5.6156H11.725L11.7375 5.63435L11.775 5.6406C11.775 5.6406 11.8094 5.6781 11.8125 5.68748C11.8156 5.69685 11.8625 5.69373 11.875 5.69685C11.8875 5.69685 11.9063 5.70935 11.9094 5.72498C11.9125 5.7406 11.9312 5.7656 11.9312 5.7656C11.9312 5.7656 11.9688 5.77498 11.9719 5.78748L11.9906 5.8281L12.0219 5.8531L12.025 5.88435H12.0594L12.0688 5.92498L12.125 5.92185L12.1562 5.89998C12.1852 5.88568 12.2099 5.86415 12.2281 5.83748C12.2312 5.82185 12.2375 5.77498 12.2687 5.78435C12.3 5.79373 12.2781 5.7156 12.2781 5.7156C12.2781 5.7156 12.2344 5.68435 12.2375 5.66873C12.2406 5.6531 12.1937 5.62185 12.1969 5.60623C12.2 5.59685 12.1562 5.56873 12.1594 5.55623C12.1625 5.54373 12.1375 5.50935 12.1375 5.50935L12.0937 5.46873L12.0875 5.43748H12.05L11.975 5.34373L11.9781 5.31873H11.9563V5.28123L11.9344 5.26873H11.9031L11.8313 5.1906L11.825 5.15623H11.7937L11.8 5.0906C11.8219 5.05935 11.8094 5.00623 11.8094 5.00623C11.8094 5.00623 11.7656 5.0281 11.7437 5.01873C11.7219 5.00935 11.7531 4.98748 11.7531 4.98748V4.96248L11.7344 4.94373C11.7344 4.94373 11.6813 4.94998 11.6781 4.9406L11.6656 4.8906L11.6625 4.83748L11.6406 4.8281L11.6375 4.80623L11.6031 4.80935V4.77185L11.5844 4.7656L11.5656 4.75623L11.5625 4.71873L11.4937 4.7156L11.4719 4.68435L11.4469 4.64685L11.3687 4.6406L11.35 4.62185L11.3188 4.6156L11.2969 4.60623L11.2875 4.62185H11.225V4.64373C11.1938 4.65935 11.0688 4.64373 11.0688 4.65623L11.0625 4.6531ZM11.3906 4.56873C11.3844 4.54685 11.4531 4.52185 11.4687 4.5406C11.4844 4.55935 11.5281 4.56248 11.5312 4.65935C11.5344 4.6906 11.4781 4.62498 11.4781 4.62498L11.4312 4.60935C11.4062 4.6031 11.3937 4.58748 11.3906 4.57185V4.56873ZM10.475 4.60935L10.4594 4.59998L10.4719 4.57185L10.4875 4.58123L10.475 4.60935ZM10.3156 4.29685L10.275 4.25623V4.22498L10.2625 4.20935L10.25 4.1656L10.2094 4.1531L10.1687 4.16873L10.125 4.19685L10.0781 4.2031L10.0531 4.23435L10.1531 4.2406L10.1719 4.27185L10.2437 4.2781L10.2906 4.32498C10.3312 4.3406 10.3406 4.31873 10.3156 4.29685ZM10.3094 4.1406C10.3031 4.1156 10.2625 4.1781 10.3031 4.1906C10.3438 4.2031 10.3844 4.1906 10.3844 4.1906L10.3938 4.17185L10.55 4.17498C10.5625 4.16248 10.5688 4.14373 10.5688 4.14373C10.5688 4.14373 10.6062 4.13123 10.6219 4.13748C10.6375 4.14373 10.6219 4.09373 10.6094 4.09998C10.5937 4.10623 10.5625 4.09998 10.5625 4.09998H10.5063C10.5031 4.08123 10.4531 4.0906 10.45 4.09998C10.4469 4.1156 10.4281 4.11873 10.4281 4.11873L10.3562 4.12498C10.35 4.14373 10.3125 4.15623 10.3094 4.14373V4.1406ZM10 4.6781C10.0469 4.69373 10.0656 4.6781 10.0688 4.66873C10.0719 4.65623 10.075 4.6531 10.0937 4.64998C10.1125 4.64685 10.0906 4.60935 10.0719 4.61248C10.0531 4.61248 10.0344 4.60623 10.0312 4.5906C10.0281 4.57185 9.99687 4.53123 9.99375 4.56248C9.99062 4.59373 9.97188 4.59373 9.975 4.61873C9.97813 4.6406 9.9875 4.67185 10 4.6781ZM9.64062 4.71248C9.64062 4.69998 9.70312 4.69998 9.7125 4.70935C9.72187 4.71873 9.71562 4.73435 9.74375 4.73435C9.77187 4.73435 9.75938 4.7531 9.75625 4.7656C9.75625 4.77185 9.725 4.76873 9.71875 4.75935C9.71875 4.74998 9.66875 4.74685 9.66875 4.74685C9.66875 4.74685 9.64375 4.7281 9.64062 4.71248ZM10.7031 4.03435L10.6781 4.0531L10.6625 4.03748L10.6469 4.0531L10.6687 4.07498L10.675 4.08123L10.6812 4.07498L10.7125 4.04998L10.7031 4.03435ZM10.5312 3.9781L10.5094 3.9656L10.5 3.98123L10.525 3.99685H10.5344L10.5688 3.97498L10.5594 3.95935L10.5312 3.9781ZM10.4281 4.6281H10.425L10.3938 4.62498V4.64373H10.4187L10.4375 4.67498L10.4531 4.6656L10.4312 4.63435L10.4281 4.6281ZM9.39688 5.50935L9.4 5.54373H9.44687C9.46562 5.54373 9.43125 5.52185 9.43125 5.52185C9.43125 5.52185 9.39375 5.52498 9.4 5.50935H9.39688ZM9.45938 5.50935L9.46875 5.49685L9.4875 5.51248L9.475 5.52498L9.45938 5.50935ZM8.89062 4.91873L8.90312 4.90623L8.92187 4.92498L8.90938 4.93748L8.89062 4.91873ZM9.79687 8.9906L9.76562 8.97498L9.75625 8.9906L9.775 8.99998L9.76875 9.00623L9.78125 9.02185L9.79687 9.00623L9.80625 8.99685L9.79687 8.9906ZM9.55313 8.76248L9.54062 8.74685L9.52188 8.76248L9.5125 8.77185L9.525 8.7781L9.54687 8.79373L9.55625 8.7781L9.54375 8.76873L9.55313 8.76248ZM11.8719 8.16248C11.8687 8.14685 11.85 8.1406 11.8469 8.13748L11.8406 8.15623L11.8469 8.15935L11.85 8.17498L11.8469 8.18123L11.8594 8.19373C11.8719 8.18435 11.875 8.17185 11.8719 8.16248ZM11.9031 8.09998H11.8719V8.07185L11.9031 8.0781V8.09998ZM12.6219 7.85623C12.6375 7.84685 12.6531 7.83123 12.6531 7.86873C12.65 7.9031 12.6344 7.8906 12.6219 7.9031C12.6125 7.9156 12.6031 7.86873 12.6219 7.85623ZM12.7812 7.72185C12.7812 7.72081 12.7812 7.71977 12.7812 7.71873C12.7809 7.71105 12.7787 7.70357 12.775 7.69685L12.7594 7.70623L12.7625 7.71873C12.7625 7.72498 12.7625 7.73123 12.7687 7.73435C12.7719 7.73748 12.775 7.73748 12.7812 7.73435L12.7781 7.71873L12.7812 7.72185ZM12.7406 7.73748L12.7531 7.77498L12.7687 7.76873C12.765 7.7564 12.7618 7.74388 12.7594 7.73123L12.7406 7.73748ZM12.6719 7.81248H12.6531C12.6531 7.82498 12.6531 7.84373 12.6687 7.84373L12.675 7.8281L12.6719 7.81248ZM12.5906 7.43748C12.5902 7.43396 12.5888 7.43062 12.5866 7.42786C12.5844 7.42509 12.5815 7.42301 12.5781 7.42185C12.5656 7.4156 12.5437 7.42498 12.5312 7.43435L12.5406 7.44998C12.5531 7.4406 12.5687 7.43748 12.5719 7.43748L12.5906 7.43435V7.43748ZM11.725 6.42498C11.7125 6.43748 11.6844 6.44373 11.6844 6.44373L11.675 6.47498L11.6625 6.4906V6.52185C11.6625 6.54373 11.6313 6.55623 11.6313 6.55623L11.6187 6.57185H11.5344C11.5031 6.55935 11.525 6.52185 11.5437 6.52498C11.5625 6.5281 11.5406 6.47185 11.5406 6.47185L11.5656 6.46873C11.5656 6.46873 11.5656 6.41248 11.5781 6.41248C11.5875 6.41248 11.575 6.39373 11.5625 6.38123C11.55 6.37185 11.5313 6.3406 11.5219 6.34373H11.4594L11.45 6.36248L11.4156 6.36873L11.4125 6.39998C11.3938 6.42498 11.3188 6.47185 11.35 6.39373L11.3625 6.37185V6.34373H11.3062C11.3062 6.34373 11.275 6.33123 11.275 6.31873V6.2906L11.2094 6.21873L11.1313 6.20935L11.125 6.19373L11.0781 6.18748C11.0219 6.15623 10.9719 6.18435 10.9844 6.23123C10.9906 6.2781 11.0063 6.29685 10.975 6.29685C10.9438 6.29685 10.9375 6.27185 10.9375 6.27185C10.9375 6.27185 10.9125 6.26248 10.9125 6.27498C10.9125 6.28748 10.9031 6.31248 10.9125 6.32498C10.9219 6.33748 10.9 6.35623 10.8906 6.34685C10.8812 6.33748 10.8594 6.30935 10.8625 6.29998C10.8688 6.2906 10.8187 6.23123 10.8687 6.22185C10.9187 6.21248 10.8687 6.18435 10.8844 6.1781L10.9094 6.1656H10.9344L10.95 6.1531L10.9094 6.14685L10.8844 6.14373L10.8375 6.1406C10.8113 6.15628 10.7914 6.18059 10.7812 6.20935C10.7562 6.25623 10.6969 6.1906 10.7187 6.1656C10.7406 6.1406 10.65 6.16248 10.6344 6.17498C10.6187 6.18748 10.5719 6.18123 10.5719 6.18123C10.5625 6.20935 10.5187 6.1781 10.5312 6.15935C10.5437 6.1406 10.5437 6.1281 10.5437 6.1281L10.5281 6.12185L10.5094 6.15935C10.4687 6.15935 10.4562 6.18435 10.4625 6.19998C10.4719 6.2156 10.45 6.19685 10.4438 6.21873C10.4406 6.2406 10.45 6.2406 10.4656 6.24998C10.4844 6.25935 10.4562 6.25935 10.4687 6.27498C10.4812 6.2906 10.5187 6.27498 10.5 6.29685C10.475 6.31873 10.4344 6.30935 10.4344 6.30935C10.4312 6.3406 10.3719 6.33123 10.3656 6.32185L10.3125 6.25623L10.25 6.2531C10.2469 6.20935 10.2812 6.23123 10.2937 6.19685C10.3062 6.16248 10.3125 6.1031 10.3125 6.1031C10.3125 6.1031 10.2625 6.1031 10.2594 6.1156C10.2562 6.13123 10.225 6.14373 10.225 6.14373C10.225 6.14373 10.2 6.1531 10.2094 6.1656C10.2188 6.1781 10.1906 6.18435 10.1906 6.18435C10.1906 6.18435 10.1937 6.2031 10.1875 6.21248C10.1625 6.23748 10.1 6.21248 10.0906 6.20623L10.0531 6.1906L10.0156 6.1656L9.97188 6.18435L9.95938 6.19685H9.9125L9.90938 6.23435L9.99375 6.24373L10 6.32185L9.96562 6.30935H9.94375L9.93437 6.2906H9.91562V6.35623L9.93437 6.37185L9.95 6.38748L9.98125 6.3906L9.9875 6.43123H10.0656L10.075 6.44998H10.1219L10.2125 6.54373L10.2063 6.57498L10.1906 6.58123C10.1969 6.6031 10.15 6.5906 10.15 6.5906V6.60935L10.1719 6.61248L10.1938 6.62498L10.225 6.57185C10.2563 6.54998 10.275 6.58123 10.2781 6.6031C10.2781 6.61873 10.2625 6.6156 10.2625 6.6156V6.66248L10.2812 6.66873C10.3125 6.70623 10.2688 6.7281 10.2688 6.7281L10.2594 6.75935C10.25 6.78748 10.2156 6.78123 10.2156 6.78123L10.2031 6.79998L10.1656 6.80935L10.2406 6.81873C10.2469 6.79373 10.2656 6.78748 10.2719 6.79998C10.2844 6.81248 10.2844 6.83435 10.2844 6.83435L10.3031 6.83748L10.3 6.87185L10.3188 6.8781V6.98123L10.3406 7.00623C10.3781 6.9906 10.3781 7.0156 10.3594 7.0281C10.3406 7.0406 10.3531 7.09685 10.3531 7.09685L10.3375 7.11248V7.13748L10.3188 7.14998V7.18748C10.2875 7.17185 10.25 7.1781 10.2406 7.18748C10.2094 7.16873 10.1531 7.17498 10.1531 7.18748C10.1719 7.2156 10.1313 7.21873 10.1313 7.21873L10.1094 7.24685C10.125 7.2781 10.0937 7.28123 10.0937 7.28123V7.34373L10.0562 7.37498V7.45935C10.0562 7.48123 10.1063 7.48435 10.1156 7.47185C10.125 7.45935 10.1625 7.49685 10.1625 7.49685H10.1906L10.1969 7.4406L10.1781 7.43123V7.33748L10.2094 7.30623C10.2469 7.2906 10.2344 7.38435 10.2344 7.39373C10.2344 7.43123 10.2531 7.42498 10.2656 7.41873C10.2969 7.40623 10.275 7.45623 10.25 7.44998C10.225 7.44998 10.2406 7.48123 10.2406 7.48123L10.2563 7.4906L10.225 7.51248L10.2031 7.5406L10.1719 7.53123L10.1344 7.5281L10.1219 7.50623L10.1 7.5031L10.0969 7.54685L10.0813 7.5656L10.0437 7.6031C10.0937 7.6031 10.0375 7.63748 10.025 7.63748C10.0531 7.64685 10.0219 7.67498 9.95 7.6531V7.67498L9.925 7.6781L9.94687 7.70623H9.97188L9.9625 7.76248C9.9625 7.8031 9.85938 7.77498 9.85 7.76248V7.82498H9.82812L9.83125 7.86248V7.9156L9.8625 7.90935V7.93123L9.94687 7.93435L10.0688 7.80623L10.1406 7.7906C10.1469 7.75935 10.1781 7.79685 10.1781 7.79685C10.2094 7.79373 10.2156 7.8156 10.2156 7.8156L10.2563 7.82185C10.2875 7.83123 10.2688 7.83435 10.2719 7.84685C10.2719 7.8656 10.2906 7.85935 10.2906 7.85935L10.2969 7.81873L10.3156 7.82185L10.2969 7.79998L10.2625 7.78435L10.225 7.76873C10.2 7.73435 10.2313 7.73748 10.2563 7.74373H10.2969C10.2969 7.74373 10.3437 7.80623 10.3437 7.82185C10.3437 7.83748 10.3656 7.8406 10.3656 7.8406H10.3938L10.4031 7.85935H10.4312L10.4406 7.8781H10.4969V7.84998L10.4469 7.8406L10.4438 7.80935L10.4062 7.79998C10.3937 7.74685 10.4156 7.73123 10.4312 7.75623H10.45L10.4438 7.71248L10.4656 7.70623L10.4594 7.63748L10.4406 7.63123V7.60935L10.5188 7.61248C10.5125 7.57185 10.5188 7.5531 10.5188 7.5531H10.5437V7.56873L10.6406 7.5781L10.7094 7.49998C10.7063 7.49373 10.7156 7.4906 10.7094 7.48435C10.6969 7.47498 10.6844 7.48435 10.6687 7.47498C10.6531 7.4656 10.6687 7.41248 10.6687 7.39685C10.6625 7.38435 10.7188 7.3656 10.7094 7.39685C10.7 7.42185 10.7094 7.43748 10.7094 7.43748C10.75 7.39685 10.7844 7.43748 10.7812 7.44998C10.7812 7.45935 10.8031 7.46873 10.8188 7.45935C10.8344 7.44998 10.8531 7.48748 10.85 7.50623C10.8406 7.52498 10.7875 7.52185 10.7812 7.5031C10.7812 7.48435 10.7687 7.4906 10.7625 7.49998C10.7562 7.50935 10.7312 7.5156 10.7125 7.50623C10.711 7.5044 10.7099 7.50227 10.7094 7.49998L10.6406 7.5781H10.6438C10.6813 7.59998 10.6625 7.6281 10.65 7.63435C10.6375 7.6406 10.6187 7.6406 10.6187 7.6406L10.6094 7.6531L10.5281 7.65935L10.5219 7.6906C10.4844 7.68748 10.4687 7.73123 10.4781 7.7531C10.4875 7.77498 10.4781 7.79373 10.4781 7.79373L10.5094 7.80935L10.5562 7.79685C10.5625 7.7656 10.5875 7.75935 10.6125 7.7406C10.6375 7.72185 10.6781 7.77185 10.6656 7.79998C10.6531 7.82498 10.6531 7.83435 10.6531 7.83435L10.6562 7.8656L10.625 7.87498L10.6 7.88748V7.9031H10.5125L10.5 7.91873L10.4594 7.92185L10.4469 7.94373H10.4156C10.4156 7.94373 10.3719 7.96873 10.3906 7.99373C10.4094 8.01873 10.3125 8.0156 10.2906 7.98123C10.2844 8.01248 10.25 7.98123 10.25 7.98123L10.2156 7.97498L10.2125 7.9281C10.2062 7.89685 10.1469 7.89685 10.15 7.91873C10.15 7.9406 10.0375 7.9281 10.0375 7.9281L10 7.94373L9.96562 7.9656L9.9625 7.98123L9.90625 7.98748L9.88125 7.99998L9.87187 7.98123H9.84688L9.82187 8.01248C9.75937 8.01873 9.69687 8.05623 9.7 8.07498C9.70625 8.08748 9.675 8.10623 9.675 8.10623L9.64688 8.11248L9.62813 8.14373L9.59062 8.1531L9.58438 8.22185L9.56563 8.23435V8.26248L9.54375 8.26873V8.28435H9.5125L9.53125 8.33435L9.55625 8.34685C9.6 8.3531 9.58125 8.40935 9.58125 8.40935H9.60625L9.61875 8.44373L9.64375 8.49685C9.65313 8.53435 9.68125 8.52498 9.69375 8.52185C9.70625 8.51873 9.71875 8.55935 9.71875 8.55935L9.84375 8.56248C9.84375 8.56248 9.8375 8.57498 9.85937 8.58123C9.88125 8.58748 10.025 8.59373 10.0312 8.58435C10.025 8.55623 10.1094 8.54998 10.1438 8.57498C10.175 8.59998 10.225 8.58435 10.225 8.58435L10.2719 8.6406L10.3031 8.71248L10.3562 8.7281L10.3938 8.73748L10.4062 8.7906H10.4344L10.4438 8.8281C10.475 8.8531 10.4344 8.90623 10.4344 8.90623V8.9781L10.4594 8.9906L10.4563 9.0156L10.4969 9.05623H10.5437L10.6594 9.18435L10.7531 9.2156L10.7688 9.2656L10.7937 9.26248L10.8125 9.24685L10.8875 9.24373L10.925 9.20623L10.9656 9.19998L11.3094 8.90623L11.2781 8.88748V8.81873C11.3375 8.7781 11.3406 8.7031 11.2875 8.69685C11.2469 8.69373 11.2656 8.64998 11.3031 8.64373L11.325 8.63435V8.60623L11.3969 8.5406V8.4906L11.2406 8.35935C11.1719 8.33435 11.2406 8.18123 11.2875 8.18435C11.3344 8.18748 11.2844 7.9531 11.2844 7.9531L11.2594 7.9406L11.2656 7.86248H11.2312L11.175 7.93748L11.1594 7.98748C11.1531 8.0531 10.9594 8.0406 10.95 8.03123C10.9406 8.02185 10.875 7.99373 10.875 7.99373C10.875 7.99373 10.825 7.9531 10.8156 7.96248C10.8063 7.9781 10.7625 7.94998 10.7625 7.95935C10.7625 7.96873 10.7219 7.93435 10.7219 7.93435L10.6594 7.91248L10.7063 7.9031L10.6969 7.8656L10.7781 7.90623C10.7875 7.91873 10.8281 7.9156 10.8281 7.9156L10.8406 7.93123C10.8406 7.93123 10.8656 7.93123 10.8813 7.94685C10.8969 7.96873 10.9781 7.9531 10.9781 7.9531L11 7.97185L11.0344 7.98435H11.1313L11.1344 7.92498L11.1531 7.90623V7.86873L11.1719 7.84998V7.81873L11.1906 7.81248L11.1938 7.74373L11.2094 7.7406V7.58748L11.1625 7.54373C11.1594 7.55935 11.1094 7.55935 11.1094 7.55935C11.1094 7.55935 11.0969 7.58123 11.0875 7.58123C11.0781 7.58123 11.1 7.61248 11.0937 7.6281C11.0875 7.64685 11.0625 7.64685 11.0625 7.64685L11.0156 7.65935L11.0031 7.67498H10.9531L10.9469 7.63435L11.0031 7.61873L11.0344 7.6031L11.05 7.57185C11.0531 7.5406 11.0906 7.54373 11.0906 7.54373C11.0906 7.54373 11.1625 7.48123 11.1656 7.45623C11.1687 7.42498 11.1938 7.34685 11.2375 7.34685H11.3188C11.35 7.33435 11.3406 7.29373 11.3406 7.29373L11.3813 7.28748L11.3875 7.30935C11.3875 7.30935 11.4437 7.3156 11.45 7.30935C11.4562 7.29685 11.4687 7.2781 11.4812 7.28435C11.5 7.29373 11.55 7.26248 11.55 7.26248C11.55 7.2406 11.6313 7.24998 11.6313 7.24998L11.6406 7.21873C11.6406 7.21873 11.5875 7.14685 11.5781 7.14685C11.5687 7.14685 11.5156 7.1031 11.5125 7.11873C11.4625 7.10623 11.4656 7.03748 11.4656 7.03748L11.4469 6.99373C11.4469 6.96873 11.4 6.9156 11.3906 6.92185C11.3835 6.91774 11.3776 6.91182 11.3734 6.90469C11.3693 6.89756 11.3671 6.88946 11.3671 6.88123C11.3671 6.87299 11.3693 6.86489 11.3734 6.85776C11.3776 6.85063 11.3835 6.84471 11.3906 6.8406C11.4031 6.8406 11.4344 6.79373 11.4344 6.79373L11.45 6.74998L11.5031 6.73435L11.5094 6.69373L11.4781 6.6906C11.4781 6.6906 11.5094 6.63123 11.5281 6.63123C11.5469 6.63123 11.6469 6.63123 11.6531 6.62498C11.6656 6.61873 11.6844 6.56873 11.6844 6.56248C11.6844 6.54998 11.7094 6.54685 11.7156 6.54373C11.7281 6.54373 11.7469 6.5156 11.7563 6.5031C11.7625 6.4906 11.7406 6.40935 11.725 6.42498Z" fill="white"/>
<path d="M10 7.56253C10.0031 7.56253 10.0094 7.57816 10.0188 7.57503C10.0281 7.57503 10.0344 7.59378 10.0219 7.59378C10.0156 7.59378 10.0156 7.60316 10.0156 7.60941C10.0156 7.61253 10.0156 7.62503 10.0063 7.63441C10 7.64066 9.99375 7.63441 9.98437 7.63128C9.975 7.62503 9.96875 7.62503 9.95625 7.62503C9.94688 7.62503 9.95625 7.64378 9.95625 7.64378C9.95625 7.64378 9.90625 7.64378 9.91562 7.63441C9.925 7.62816 9.93438 7.62503 9.92813 7.62191C9.92188 7.61566 9.92813 7.61253 9.92813 7.60316C9.92813 7.59378 9.95 7.59691 9.94375 7.59066C9.9375 7.58441 9.94375 7.55628 9.95625 7.57191L9.9625 7.55628C9.95625 7.54691 9.9625 7.54691 9.94687 7.54066C9.93125 7.53441 9.94375 7.50941 9.94375 7.50941V7.48753C9.95 7.46566 9.99687 7.46253 10 7.48441V7.51878L10.0156 7.52503C10.0156 7.52503 10.0125 7.53753 10 7.53753C9.9875 7.53753 10 7.54378 9.99375 7.55316L10 7.56566V7.56253ZM9.84375 7.58753C9.85312 7.57503 9.86875 7.51253 9.8875 7.53128C9.90625 7.55003 9.91875 7.53128 9.91875 7.53128C9.91875 7.53128 9.92812 7.54066 9.92187 7.56253C9.91875 7.57816 9.9125 7.59691 9.90312 7.60003C9.89062 7.60003 9.88125 7.60941 9.86563 7.61253C9.85313 7.61253 9.84688 7.58753 9.84688 7.58753H9.84375Z" fill="white"/>
</g>
<defs>
<clipPath id="clip0_14_268">
<rect width="20" height="15" fill="white"/>
</clipPath>
</defs>
</svg>
