<svg width="20" height="15" viewBox="0 0 20 15" fill="none" xmlns="http://www.w3.org/2000/svg">
<path d="M20 0.00012207H0V15H20V0.00012207Z" fill="#F0F0F0"/>
<path d="M20 1.875H0V3.74987H20V1.875Z" fill="#D80027"/>
<path d="M20 3.74976H0V5.62462H20V3.74976Z" fill="#0052B4"/>
<path d="M20 7.5H0V9.37487H20V7.5Z" fill="#D80027"/>
<path d="M20 9.37488H0V11.2497H20V9.37488Z" fill="#0052B4"/>
<path d="M20 13.1251H0V15H20V13.1251Z" fill="#D80027"/>
<path d="M10 0.00012207H0V7.50008H10V0.00012207Z" fill="#F0F0F0"/>
<path d="M5.625 0H4.375V3.04695H0V4.45322H4.375V7.50013H5.625V4.45322H10V3.04695H5.625V0Z" fill="#D80027"/>
<path d="M7.69141 5.05444L10.0003 6.4975V5.05444H7.69141Z" fill="#0052B4"/>
<path d="M6.08984 5.05444L10.0029 7.50013V6.80855L7.19637 5.05444H6.08984Z" fill="#0052B4"/>
<path d="M8.96059 7.50021L6.08984 5.70581V7.50021H8.96059Z" fill="#0052B4"/>
<path d="M6.08984 5.05444L10.0029 7.50013V6.80855L7.19637 5.05444H6.08984Z" fill="#F0F0F0"/>
<path d="M6.08984 5.05444L10.0029 7.50013V6.80855L7.19637 5.05444H6.08984Z" fill="#D80027"/>
<path d="M1.76449 5.05444L0 6.15727V5.05444H1.76449Z" fill="#0052B4"/>
<path d="M3.91129 5.36548V7.50016H0.496094L3.91129 5.36548Z" fill="#0052B4"/>
<path d="M2.80648 5.05444L0 6.80855V7.50013L3.91305 5.05444H2.80648Z" fill="#D80027"/>
<path d="M2.30891 2.44562L0 1.00256V2.44562H2.30891Z" fill="#0052B4"/>
<path d="M3.91305 2.44568L0 0V0.691578L2.80652 2.44568H3.91305Z" fill="#0052B4"/>
<path d="M1.04297 0L3.91371 1.79445V0H1.04297Z" fill="#0052B4"/>
<path d="M3.91305 2.44568L0 0V0.691578L2.80652 2.44568H3.91305Z" fill="#F0F0F0"/>
<path d="M3.91305 2.44568L0 0V0.691578L2.80652 2.44568H3.91305Z" fill="#D80027"/>
<path d="M8.23438 2.4458L9.99887 1.34302V2.4458H8.23438Z" fill="#0052B4"/>
<path d="M6.08984 2.1348V0.00012207H9.50504L6.08984 2.1348Z" fill="#0052B4"/>
<path d="M7.19641 2.44568L10.0029 0.691622V0L6.08984 2.44568H7.19641Z" fill="#D80027"/>
</svg>
