<svg width="20" height="15" viewBox="0 0 20 15" fill="none" xmlns="http://www.w3.org/2000/svg">
<g clip-path="url(#clip0_14_292)">
<path d="M0 0H20V15H0" fill="#BD3D44"/>
<path d="M0 1.72815H20ZM0 4.03127H20ZM0 6.34377H20ZM0 8.65627H20ZM0 10.9688H20ZM0 13.2813H20Z" fill="black"/>
<path d="M0 1.72815H20M0 4.03127H20M0 6.34377H20M0 8.65627H20M0 10.9688H20M0 13.2813H20" stroke="white" stroke-width="1.85"/>
<path d="M0 0H11.4V8.07812H0" fill="#192F5D"/>
<path fill-rule="evenodd" clip-rule="evenodd" d="M1.24432 2.19076L0.844908 2.47078L0.979756 1.97247L0.625 1.65667H1.08836L1.24377 1.25L1.42599 1.65667H1.82099L1.51063 1.97247L1.63079 2.47078L1.24432 2.19076ZM3.44533 2.19077L3.04591 2.47079L3.18076 1.97248L2.826 1.65668H3.28936L3.44477 1.25001L3.627 1.65668H4.022L3.71163 1.97248L3.83179 2.47079L3.44533 2.19077ZM5.24691 2.47079L5.64633 2.19077L6.03279 2.47079L5.91264 1.97248L6.223 1.65668H5.828L5.64577 1.25001L5.49036 1.65668H5.02701L5.38176 1.97248L5.24691 2.47079ZM7.84733 2.19077L7.44792 2.47079L7.58276 1.97248L7.22801 1.65668H7.69137L7.84677 1.25001L8.029 1.65668H8.424L8.11364 1.97248L8.23379 2.47079L7.84733 2.19077ZM0.844908 4.67179L1.24432 4.39177L1.63079 4.67179L1.51063 4.17348L1.82099 3.85768H1.42599L1.24377 3.45101L1.08836 3.85768H0.625L0.979756 4.17348L0.844908 4.67179ZM3.44533 4.39177L3.04591 4.67179L3.18076 4.17348L2.826 3.85768H3.28936L3.44477 3.45101L3.627 3.85768H4.022L3.71163 4.17348L3.83179 4.67179L3.44533 4.39177ZM5.24691 4.67179L5.64633 4.39177L6.03279 4.67179L5.91264 4.17348L6.223 3.85768H5.828L5.64577 3.45101L5.49036 3.85768H5.02701L5.38176 4.17348L5.24691 4.67179ZM7.84733 4.39177L7.44792 4.67179L7.58276 4.17348L7.22801 3.85768H7.69137L7.84677 3.45101L8.029 3.85768H8.424L8.11364 4.17348L8.23379 4.67179L7.84733 4.39177ZM0.844908 6.87279L1.24432 6.59278L1.63079 6.87279L1.51063 6.37448L1.82099 6.05868H1.42599L1.24377 5.65201L1.08836 6.05868H0.625L0.979756 6.37448L0.844908 6.87279ZM3.44533 6.59278L3.04591 6.87279L3.18076 6.37448L2.826 6.05868H3.28936L3.44477 5.65201L3.627 6.05868H4.022L3.71163 6.37448L3.83179 6.87279L3.44533 6.59278ZM5.24691 6.87279L5.64633 6.59278L6.03279 6.87279L5.91264 6.37448L6.223 6.05868H5.828L5.64577 5.65201L5.49036 6.05868H5.02701L5.38176 6.37448L5.24691 6.87279ZM7.84733 6.59278L7.44792 6.87279L7.58276 6.37448L7.22801 6.05868H7.69137L7.84677 5.65201L8.029 6.05868H8.424L8.11364 6.37448L8.23379 6.87279L7.84733 6.59278ZM9.64892 2.47079L10.0483 2.19077L10.4348 2.47079L10.3146 1.97248L10.625 1.65668H10.23L10.0478 1.25001L9.89237 1.65668H9.42901L9.78377 1.97248L9.64892 2.47079ZM10.0483 4.39177L9.64892 4.67179L9.78377 4.17348L9.42901 3.85768H9.89237L10.0478 3.45101L10.23 3.85768H10.625L10.3146 4.17348L10.4348 4.67179L10.0483 4.39177ZM9.64892 6.87279L10.0483 6.59278L10.4348 6.87279L10.3146 6.37448L10.625 6.05868H10.23L10.0478 5.65201L9.89237 6.05868H9.42901L9.78377 6.37448L9.64892 6.87279ZM2.34483 3.29127L1.94541 3.57129L2.08026 3.07298L1.7255 2.75718H2.18886L2.34427 2.35051L2.52649 2.75718H2.92149L2.61113 3.07298L2.73129 3.57129L2.34483 3.29127ZM4.14641 3.57129L4.54583 3.29127L4.93229 3.57129L4.81214 3.07298L5.1225 2.75718H4.7275L4.54527 2.35051L4.38986 2.75718H3.9265L4.28126 3.07298L4.14641 3.57129ZM6.74683 3.29127L6.34741 3.57129L6.48226 3.07298L6.12751 2.75718H6.59087L6.74627 2.35051L6.9285 2.75718H7.3235L7.01314 3.07298L7.13329 3.57129L6.74683 3.29127ZM1.94541 5.77229L2.34483 5.49227L2.73129 5.77229L2.61113 5.27398L2.92149 4.95818H2.52649L2.34427 4.55151L2.18886 4.95818H1.7255L2.08026 5.27398L1.94541 5.77229ZM4.54583 5.49227L4.14641 5.77229L4.28126 5.27398L3.9265 4.95818H4.38986L4.54527 4.55151L4.7275 4.95818H5.1225L4.81214 5.27398L4.93229 5.77229L4.54583 5.49227ZM6.34741 5.77229L6.74683 5.49227L7.13329 5.77229L7.01314 5.27398L7.3235 4.95818H6.9285L6.74627 4.55151L6.59087 4.95818H6.12751L6.48226 5.27398L6.34741 5.77229ZM8.94783 3.29127L8.54842 3.57129L8.68326 3.07298L8.32851 2.75718H8.79187L8.94728 2.35051L9.1295 2.75718H9.5245L9.21414 3.07298L9.3343 3.57129L8.94783 3.29127ZM8.54842 5.77229L8.94783 5.49227L9.3343 5.77229L9.21414 5.27398L9.5245 4.95818H9.1295L8.94728 4.55151L8.79187 4.95818H8.32851L8.68326 5.27398L8.54842 5.77229Z" fill="#F7FCFF"/>
</g>
<defs>
<clipPath id="clip0_14_292">
<rect width="20" height="15" fill="white"/>
</clipPath>
</defs>
</svg>
