<svg width="20" height="15" viewBox="0 0 20 15" fill="none" xmlns="http://www.w3.org/2000/svg">
<g clip-path="url(#clip0_14_274)">
<path d="M0 0H20V15H0V0Z" fill="white"/>
<path d="M8.3125 1.66565H20V3.3344H8.3125V1.66565ZM8.3125 5.00002H20V6.66565H8.3125V5.00002ZM0 8.3344H20V10H0V8.3344ZM0 11.6656H20V13.3344H0V11.6656Z" fill="#0038A8"/>
<path d="M3.98229 4.98145L4.25729 5.39394C3.12062 6.21894 3.80812 6.69561 3.01062 6.95228C3.50562 6.47561 2.92812 6.42978 3.34979 5.41228" fill="#FCD116"/>
<path d="M3.98229 4.98145L4.25729 5.39394C3.12062 6.21894 3.80812 6.69561 3.01062 6.95228C3.50562 6.47561 2.92812 6.42978 3.34979 5.41228" stroke="black" stroke-width="0.0879999" stroke-miterlimit="20" stroke-linecap="square"/>
<path d="M3.78062 5.10071C3.15729 6.12737 3.56062 6.69571 3.01062 6.96154" stroke="black" stroke-width="0.0879999" stroke-miterlimit="20"/>
<path d="M4.1656 4.16565H4.7156L4.1656 7.19065L3.6156 4.16565H4.1656V7.19065Z" fill="#FCD116"/>
<path d="M4.1656 4.16565H4.7156L4.1656 7.19065M4.1656 4.16565H3.6156L4.1656 7.19065M4.1656 4.16565V7.19065" stroke="black" stroke-width="0.0879999" stroke-miterlimit="20"/>
<path d="M3.45917 4.61297L3.36194 5.09911C1.97483 4.87873 2.12391 5.70192 1.37851 5.31949C2.06558 5.33245 1.68963 4.89169 2.70728 4.47038" fill="#FCD116"/>
<path d="M3.45917 4.61297L3.36194 5.09911C1.97483 4.87873 2.12391 5.70192 1.37851 5.31949C2.06558 5.33245 1.68963 4.89169 2.70728 4.47038" stroke="black" stroke-width="0.0879999" stroke-miterlimit="20" stroke-linecap="square"/>
<path d="M3.23234 4.5546C2.06561 4.8398 1.94894 5.52687 1.37206 5.32594" stroke="black" stroke-width="0.0879999" stroke-miterlimit="20"/>
<path d="M4.16576 4.16576L4.55467 4.55467L2.02677 6.30476L3.77686 3.77686L4.16576 4.16576L2.02677 6.30476Z" fill="#FCD116"/>
<path d="M4.16576 4.16576L4.55467 4.55467L2.02677 6.30476M4.16576 4.16576L3.77686 3.77686L2.02677 6.30476M4.16576 4.16576L2.02677 6.30476" stroke="black" stroke-width="0.0879999" stroke-miterlimit="20"/>
<path d="M3.34985 3.98229L2.93735 4.25729C2.11235 3.12062 1.63569 3.80812 1.37902 3.01062C1.85569 3.50562 1.90152 2.92812 2.91902 3.34979" fill="#FCD116"/>
<path d="M3.34985 3.98229L2.93735 4.25729C2.11235 3.12062 1.63569 3.80812 1.37902 3.01062C1.85569 3.50562 1.90152 2.92812 2.91902 3.34979" stroke="black" stroke-width="0.0879999" stroke-miterlimit="20" stroke-linecap="square"/>
<path d="M3.23059 3.78062C2.20393 3.15729 1.63559 3.56062 1.36976 3.01062" stroke="black" stroke-width="0.0879999" stroke-miterlimit="20"/>
<path d="M4.16565 4.1656V4.7156L1.14065 4.1656L4.16565 3.6156V4.1656H1.14065Z" fill="#FCD116"/>
<path d="M4.16565 4.1656V4.7156L1.14065 4.1656M4.16565 4.1656V3.6156L1.14065 4.1656M4.16565 4.1656H1.14065" stroke="black" stroke-width="0.0879999" stroke-miterlimit="20"/>
<path d="M3.71832 3.45917L3.23219 3.36194C3.45257 1.97483 2.62938 2.12391 3.01181 1.37851C2.99884 2.06558 3.43961 1.68963 3.86092 2.70728" fill="#FCD116"/>
<path d="M3.71832 3.45917L3.23219 3.36194C3.45257 1.97483 2.62938 2.12391 3.01181 1.37851C2.99884 2.06558 3.43961 1.68963 3.86092 2.70728" stroke="black" stroke-width="0.0879999" stroke-miterlimit="20" stroke-linecap="square"/>
<path d="M3.7767 3.23234C3.4915 2.06561 2.80442 1.94894 3.00536 1.37206" stroke="black" stroke-width="0.0879999" stroke-miterlimit="20"/>
<path d="M4.16554 4.16576L3.77663 4.55467L2.02654 2.02677L4.55444 3.77686L4.16554 4.16576L2.02654 2.02677Z" fill="#FCD116"/>
<path d="M4.16554 4.16576L3.77663 4.55467L2.02654 2.02677M4.16554 4.16576L4.55444 3.77686L2.02654 2.02677M4.16554 4.16576L2.02654 2.02677" stroke="black" stroke-width="0.0879999" stroke-miterlimit="20"/>
<path d="M4.34901 3.34985L4.07401 2.93735C5.21068 2.11235 4.52318 1.63569 5.32068 1.37902C4.82568 1.85569 5.40318 1.90152 4.98151 2.91902" fill="#FCD116"/>
<path d="M4.34901 3.34985L4.07401 2.93735C5.21068 2.11235 4.52318 1.63569 5.32068 1.37902C4.82568 1.85569 5.40318 1.90152 4.98151 2.91902" stroke="black" stroke-width="0.0879999" stroke-miterlimit="20" stroke-linecap="square"/>
<path d="M4.55068 3.23059C5.17401 2.20393 4.77068 1.63559 5.32068 1.36976" stroke="black" stroke-width="0.0879999" stroke-miterlimit="20"/>
<path d="M4.1657 4.16565H3.6157L4.1657 1.14065L4.7157 4.16565H4.1657V1.14065Z" fill="#FCD116"/>
<path d="M4.1657 4.16565H3.6157L4.1657 1.14065M4.1657 4.16565H4.7157L4.1657 1.14065M4.1657 4.16565V1.14065" stroke="black" stroke-width="0.0879999" stroke-miterlimit="20"/>
<path d="M4.87213 3.71832L4.96936 3.23219C6.35647 3.45257 6.20738 2.62938 6.95279 3.01181C6.26572 2.99884 6.64167 3.43961 5.62402 3.86092" fill="#FCD116"/>
<path d="M4.87213 3.71832L4.96936 3.23219C6.35647 3.45257 6.20738 2.62938 6.95279 3.01181C6.26572 2.99884 6.64167 3.43961 5.62402 3.86092" stroke="black" stroke-width="0.0879999" stroke-miterlimit="20" stroke-linecap="square"/>
<path d="M5.09896 3.7767C6.26569 3.4915 6.38236 2.80442 6.95924 3.00536" stroke="black" stroke-width="0.0879999" stroke-miterlimit="20"/>
<path d="M4.16554 4.16554L3.77663 3.77663L6.30453 2.02654L4.55444 4.55444L4.16554 4.16554L6.30453 2.02654Z" fill="#FCD116"/>
<path d="M4.16554 4.16554L3.77663 3.77663L6.30453 2.02654M4.16554 4.16554L4.55444 4.55444L6.30453 2.02654M4.16554 4.16554L6.30453 2.02654" stroke="black" stroke-width="0.0879999" stroke-miterlimit="20"/>
<path d="M4.98145 4.34901L5.39394 4.07401C6.21894 5.21068 6.69561 4.52318 6.95228 5.32068C6.47561 4.82568 6.42978 5.40318 5.41228 4.98151" fill="#FCD116"/>
<path d="M4.98145 4.34901L5.39394 4.07401C6.21894 5.21068 6.69561 4.52318 6.95228 5.32068C6.47561 4.82568 6.42978 5.40318 5.41228 4.98151" stroke="black" stroke-width="0.0879999" stroke-miterlimit="20" stroke-linecap="square"/>
<path d="M5.10071 4.55068C6.12737 5.17401 6.69571 4.77068 6.96154 5.32068" stroke="black" stroke-width="0.0879999" stroke-miterlimit="20"/>
<path d="M4.16565 4.1657V3.6157L7.19065 4.1657L4.16565 4.7157V4.1657H7.19065Z" fill="#FCD116"/>
<path d="M4.16565 4.1657V3.6157L7.19065 4.1657M4.16565 4.1657V4.7157L7.19065 4.1657M4.16565 4.1657H7.19065" stroke="black" stroke-width="0.0879999" stroke-miterlimit="20"/>
<path d="M4.61297 4.87213L5.09911 4.96936C4.87873 6.35647 5.70192 6.20738 5.31949 6.95279C5.33245 6.26572 4.89169 6.64167 4.47037 5.62402" fill="#FCD116"/>
<path d="M4.61297 4.87213L5.09911 4.96936C4.87873 6.35647 5.70192 6.20738 5.31949 6.95279C5.33245 6.26572 4.89169 6.64167 4.47037 5.62402" stroke="black" stroke-width="0.0879999" stroke-miterlimit="20" stroke-linecap="square"/>
<path d="M4.5546 5.09896C4.8398 6.26569 5.52687 6.38236 5.32594 6.95924" stroke="black" stroke-width="0.0879999" stroke-miterlimit="20"/>
<path d="M4.16576 4.16554L4.55467 3.77663L6.30476 6.30453L3.77686 4.55444L4.16576 4.16554L6.30476 6.30453Z" fill="#FCD116"/>
<path d="M4.16576 4.16554L4.55467 3.77663L6.30476 6.30453M4.16576 4.16554L3.77686 4.55444L6.30476 6.30453M4.16576 4.16554L6.30476 6.30453" stroke="black" stroke-width="0.0879999" stroke-miterlimit="20"/>
<path d="M4.16568 5.17401C4.72257 5.17401 5.17401 4.72257 5.17401 4.16568C5.17401 3.60879 4.72257 3.15735 4.16568 3.15735C3.60879 3.15735 3.15735 3.60879 3.15735 4.16568C3.15735 4.72257 3.60879 5.17401 4.16568 5.17401Z" fill="#FCD116" stroke="black" stroke-width="0.0879999" stroke-miterlimit="20"/>
<path d="M4.90804 3.76231C4.84388 3.83564 4.80721 3.70731 4.57805 3.70731C4.34888 3.70731 4.31222 3.84481 4.27555 3.81731C4.23888 3.78981 4.46805 3.62481 4.54138 3.61565C4.61471 3.60648 4.82554 3.67981 4.90804 3.76231ZM4.64221 3.84481C4.70638 3.89981 4.65138 4.01897 4.58721 4.01897C4.52305 4.01897 4.40388 3.90898 4.45888 3.83564" fill="black"/>
<path d="M4.33972 3.92728C4.34889 3.81728 4.44055 3.79895 4.58722 3.79895C4.73388 3.79895 4.79805 3.90895 4.85305 3.93645C4.78888 3.93645 4.73388 3.84478 4.58722 3.84478C4.44055 3.84478 4.44055 3.84478 4.33972 3.93645M4.36722 3.95478C4.40389 3.89978 4.44972 4.00978 4.55055 4.00978C4.65138 4.00978 4.70638 3.98228 4.77055 3.93645C4.83472 3.89062 4.67888 4.04645 4.57805 4.04645C4.47722 4.04645 4.33972 3.99145 4.36722 3.95478Z" fill="black"/>
<path d="M4.67891 4.00986C4.79808 3.94569 4.72474 3.85403 4.67891 3.83569C4.69724 3.85403 4.77058 3.94569 4.67891 4.00986ZM4.16558 4.55985C4.22058 4.55985 4.23892 4.54152 4.31225 4.54152C4.38558 4.54152 4.55975 4.64235 4.66058 4.60568C4.44975 4.68818 4.53225 4.63318 4.16558 4.63318H4.11975M4.69724 4.68818C4.66058 4.62402 4.66974 4.64235 4.59641 4.54152C4.66974 4.59652 4.68808 4.62402 4.69724 4.68818ZM4.16558 4.77985C4.39475 4.77985 4.35808 4.73402 4.66058 4.60568C4.44058 4.63318 4.39475 4.70652 4.16558 4.70652H4.11975M4.16558 4.44069C4.22975 4.44069 4.24808 4.39485 4.32142 4.39485C4.39475 4.39485 4.49558 4.42235 4.54141 4.45902C4.55058 4.46819 4.51391 4.38569 4.44058 4.37652C4.36725 4.36735 4.39475 4.24819 4.31225 4.22986C4.31225 4.26652 4.33975 4.25736 4.34892 4.31235C4.34892 4.35819 4.26642 4.35819 4.24808 4.31235C4.26642 4.38569 4.21142 4.38569 4.16558 4.38569" fill="black"/>
<path d="M3.42313 3.76231C3.4873 3.83564 3.52397 3.70731 3.75313 3.70731C3.98229 3.70731 4.01896 3.84481 4.05563 3.81731C4.09229 3.78981 3.86313 3.62481 3.7898 3.61565C3.71646 3.60648 3.50563 3.67981 3.42313 3.76231ZM3.68896 3.84481C3.6248 3.89981 3.6798 4.01897 3.74396 4.01897C3.80813 4.01897 3.92729 3.90898 3.87229 3.83564" fill="black"/>
<path d="M3.99146 3.92728C3.98229 3.81728 3.89062 3.79895 3.74396 3.79895C3.59729 3.79895 3.53313 3.90895 3.47813 3.93645C3.54229 3.93645 3.59729 3.84478 3.74396 3.84478C3.89062 3.84478 3.89062 3.84478 3.99146 3.93645M3.96396 3.95478C3.92729 3.89978 3.88146 4.00978 3.78062 4.00978C3.67979 4.00978 3.62479 3.98228 3.56063 3.93645C3.49646 3.89062 3.65229 4.04645 3.75312 4.04645C3.85396 4.04645 3.99146 3.99145 3.96396 3.95478Z" fill="black"/>
<path d="M3.65227 4.00986C3.5331 3.94569 3.60643 3.85403 3.65227 3.83569C3.63393 3.85403 3.5606 3.94569 3.65227 4.00986ZM4.16559 4.55985C4.11059 4.55985 4.09226 4.54152 4.01893 4.54152C3.9456 4.54152 3.77143 4.64235 3.6706 4.60568C3.88143 4.68818 3.79893 4.63318 4.16559 4.63318H4.21143M3.63393 4.68818C3.6706 4.62402 3.66143 4.64235 3.73476 4.54152C3.66143 4.59652 3.6431 4.62402 3.63393 4.68818ZM4.16559 4.77985C3.93643 4.77985 3.9731 4.73402 3.6706 4.60568C3.8906 4.63318 3.93643 4.70652 4.16559 4.70652H4.21143M4.16559 4.44069C4.10143 4.44069 4.08309 4.39485 4.00976 4.39485C3.93643 4.39485 3.8356 4.42235 3.78976 4.45902C3.7806 4.46819 3.81726 4.38569 3.8906 4.37652C3.96393 4.36735 3.93643 4.24819 4.01893 4.22986C4.01893 4.26652 3.99143 4.25736 3.98226 4.31235C3.98226 4.35819 4.06476 4.35819 4.08309 4.31235C4.06476 4.38569 4.11976 4.38569 4.16559 4.38569" fill="black"/>
<path d="M4.16555 4.8623C4.11972 4.8623 4.00055 4.8898 4.16555 4.8898C4.33055 4.8898 4.21138 4.8623 4.16555 4.8623Z" fill="black"/>
</g>
<defs>
<clipPath id="clip0_14_274">
<rect width="20" height="15" fill="white"/>
</clipPath>
</defs>
</svg>
