<svg width="20" height="15" viewBox="0 0 20 15" fill="none" xmlns="http://www.w3.org/2000/svg">
<mask id="mask0_1825_45706" style="mask-type:luminance" maskUnits="userSpaceOnUse" x="0" y="0" width="20" height="15">
<rect width="20" height="15" fill="white"/>
</mask>
<g mask="url(#mask0_1825_45706)">
<path fill-rule="evenodd" clip-rule="evenodd" d="M0 0H20V15H0V0Z" fill="#F7FCFF"/>
<path fill-rule="evenodd" clip-rule="evenodd" d="M0 0H8.75V15H0V0Z" fill="#FFDC17"/>
<path d="M14.2382 7.96936L14.0225 7.98341C14.074 8.72452 14.2332 9.297 14.5034 9.701C14.9392 10.3525 15.5142 10.8563 15.899 10.8563C15.9864 10.8563 16.0067 10.8887 15.9779 10.9689C15.9369 11.0828 15.8073 11.1949 15.6405 11.2379C15.3632 11.3094 14.7324 11.3464 13.7588 11.3464V11.5557C14.7518 11.5557 15.3941 11.518 15.6962 11.4401C15.9308 11.3796 16.117 11.2187 16.1821 11.0377C16.2574 10.8284 16.1438 10.647 15.899 10.647C15.6132 10.647 15.0831 10.1825 14.6849 9.58726C14.4375 9.21727 14.2875 8.67793 14.2382 7.96936Z" fill="#AF0100"/>
<path d="M13.2169 7.96936L13.4326 7.98341C13.3811 8.72452 13.2218 9.297 12.9517 9.701C12.5159 10.3525 11.9409 10.8563 11.5561 10.8563C11.4687 10.8563 11.4483 10.8887 11.4772 10.9689C11.5182 11.0828 11.6478 11.1949 11.8145 11.2379C12.0919 11.3094 12.7227 11.3464 13.6963 11.3464V11.5557C12.7032 11.5557 12.061 11.518 11.7589 11.4401C11.5243 11.3796 11.3381 11.2187 11.273 11.0377C11.1977 10.8284 11.3113 10.647 11.5561 10.647C11.8419 10.647 12.372 10.1825 12.7702 9.58726C13.0176 9.21727 13.1676 8.67793 13.2169 7.96936Z" fill="#AF0100"/>
<path fill-rule="evenodd" clip-rule="evenodd" d="M17.5415 4.24878L11.8281 8.70253C11.6281 8.63735 11.4097 8.60169 11.1822 8.60169C10.2552 8.60169 9.47949 9.19378 9.47949 9.96215C9.47949 10.7305 10.2552 11.3226 11.1822 11.3226C11.2885 11.3226 11.3928 11.3148 11.4942 11.2999C11.4004 11.2266 11.3304 11.1351 11.2954 11.0377C11.2532 10.9206 11.2703 10.8122 11.3363 10.7395C11.2861 10.7444 11.2346 10.747 11.1822 10.747C10.5568 10.747 10.0741 10.3786 10.0741 9.96215C10.0741 9.54569 10.5568 9.17727 11.1822 9.17727C11.8076 9.17727 12.2903 9.54569 12.2903 9.96215C12.2903 10.0896 12.2451 10.2125 12.1645 10.3217C12.1797 10.3082 12.1949 10.2943 12.2102 10.2801C12.4082 10.0957 11.9632 10.8563 11.5785 10.8563C11.4911 10.8563 11.4707 10.8888 11.4995 10.9689C11.5379 11.0756 11.6541 11.1807 11.8057 11.2289C12.4324 11.033 12.8849 10.549 12.8849 9.96215C12.8849 9.72211 12.8092 9.49928 12.6768 9.30632L15.7474 6.70032L15.9529 6.91266L16.1008 6.77849L16.6137 7.1586L16.3993 7.32394L16.837 7.85605L17.7202 7.17522L17.7351 7.16748L17.7325 7.16569L17.7873 7.12349L17.3495 6.59138L17.1379 6.75455L16.5644 6.35805L16.6316 6.29708L16.4471 6.10646L16.7245 5.87097L16.8718 6.02312L17.0299 5.8797L17.5272 6.27329L17.3182 6.4344L17.7559 6.96651L18.5125 6.38329L18.5991 6.33586L18.5865 6.3262L18.7062 6.23395L18.2684 5.70185L18.0212 5.89246L17.4765 5.47462L17.5505 5.40755L17.4242 5.27711L17.9895 4.79735L17.5415 4.24878Z" fill="#F4B300"/>
<path fill-rule="evenodd" clip-rule="evenodd" d="M9.80364 9.20347C9.96784 9.20347 10.1009 9.09805 10.1009 8.96801C10.1009 8.83797 9.96784 8.73254 9.80364 8.73254C9.63945 8.73254 9.50635 8.83797 9.50635 8.96801C9.50635 9.09805 9.63945 9.20347 9.80364 9.20347ZM9.91175 11.3488C10.0759 11.3488 10.2091 11.2434 10.2091 11.1134C10.2091 10.9833 10.0759 10.8779 9.91175 10.8779C9.74756 10.8779 9.61446 10.9833 9.61446 11.1134C9.61446 11.2434 9.74756 11.3488 9.91175 11.3488ZM12.8577 11.1134C12.8577 11.2434 12.7246 11.3488 12.5604 11.3488C12.3962 11.3488 12.2631 11.2434 12.2631 11.1134C12.2631 10.9833 12.3962 10.8779 12.5604 10.8779C12.7246 10.8779 12.8577 10.9833 12.8577 11.1134Z" fill="#BFBFBF"/>
<path fill-rule="evenodd" clip-rule="evenodd" d="M14.6146 9.96216C14.6146 9.6168 14.7713 9.30705 15.0281 9.07067L11.7471 6.52983L11.7097 6.55864L11.8053 6.64538L11.5466 6.91267L11.4104 6.78912L10.9082 7.17589L11.1002 7.32395L10.6625 7.85606L9.78877 7.18249L9.76439 7.16749L9.76698 7.1657L9.71224 7.1235L10.15 6.59139L10.3617 6.75456L10.9352 6.35806L10.8679 6.29709L11.1158 6.04096L10.827 5.81726L10.6277 6.02313L10.4755 5.88508L9.98464 6.28278L10.1813 6.43441L9.74356 6.96652L9.01109 6.40184L8.90039 6.33586L8.91298 6.32621L8.79333 6.23396L9.23109 5.70185L9.47834 5.89246L10.023 5.47463L9.94901 5.40756L10.0985 5.25312L9.50998 4.79735L9.88142 4.3479L15.5575 8.74359C15.7874 8.65248 16.0459 8.6017 16.3173 8.6017C17.2443 8.6017 18.02 9.19379 18.02 9.96216C18.02 10.7305 17.2443 11.3226 16.3173 11.3226C16.211 11.3226 16.1067 11.3148 16.0053 11.2999C16.0991 11.2266 16.1691 11.1351 16.2042 11.0377C16.2463 10.9206 16.2293 10.8122 16.1632 10.7395C16.2134 10.7445 16.2649 10.747 16.3173 10.747C16.9427 10.747 17.4254 10.3786 17.4254 9.96216C17.4254 9.54569 16.9427 9.17728 16.3173 9.17728C15.6919 9.17728 15.2092 9.54569 15.2092 9.96216C15.2092 10.0896 15.2544 10.2125 15.335 10.3217C15.3198 10.3082 15.3046 10.2943 15.2893 10.2801C15.0913 10.0957 15.5363 10.8563 15.9211 10.8563C16.0085 10.8563 16.0288 10.8888 16 10.9689C15.9616 11.0756 15.8454 11.1807 15.6938 11.2289C15.0671 11.033 14.6146 10.549 14.6146 9.96216Z" fill="#BFBFBF"/>
<path fill-rule="evenodd" clip-rule="evenodd" d="M17.6959 9.20347C17.5317 9.20347 17.3986 9.09805 17.3986 8.96801C17.3986 8.83797 17.5317 8.73254 17.6959 8.73254C17.8601 8.73254 17.9932 8.83797 17.9932 8.96801C17.9932 9.09805 17.8601 9.20347 17.6959 9.20347ZM17.5878 11.3488C17.4236 11.3488 17.2905 11.2434 17.2905 11.1134C17.2905 10.9833 17.4236 10.8779 17.5878 10.8779C17.752 10.8779 17.8851 10.9833 17.8851 11.1134C17.8851 11.2434 17.752 11.3488 17.5878 11.3488ZM14.6418 11.1134C14.6418 11.2434 14.7749 11.3488 14.9391 11.3488C15.1033 11.3488 15.2364 11.2434 15.2364 11.1134C15.2364 10.9833 15.1033 10.8779 14.9391 10.8779C14.7749 10.8779 14.6418 10.9833 14.6418 11.1134Z" fill="#F4B300"/>
<path fill-rule="evenodd" clip-rule="evenodd" d="M13.5879 7.37207C13.5431 7.37207 13.5068 7.40837 13.5068 7.45315V7.79067H13.2069C13.1636 7.79067 13.1284 7.82582 13.1284 7.86916C13.1284 7.91251 13.1636 7.94765 13.2069 7.94765H13.5068V12.4189C13.5068 12.4637 13.5431 12.5 13.5879 12.5H13.75C13.7948 12.5 13.8311 12.4637 13.8311 12.4189V7.94765H14.2932C14.3365 7.94765 14.3717 7.91251 14.3717 7.86916C14.3717 7.82582 14.3365 7.79067 14.2932 7.79067H13.8311V7.45315C13.8311 7.40837 13.7948 7.37207 13.75 7.37207H13.5879Z" fill="#AF0100"/>
<path fill-rule="evenodd" clip-rule="evenodd" d="M10.4717 4.74601L10.604 4.8368C10.9123 4.41577 11.1898 4.3312 11.472 4.55217C11.9592 4.93366 12.0014 5.86442 11.4804 6.17605C10.8589 6.54772 10.5439 7.27254 10.8195 7.66702C11.0738 8.03102 11.6868 7.89327 12.292 7.43606C12.3994 7.35489 12.5019 7.26823 12.5981 7.17717L12.4703 7.07847C12.3826 7.16048 12.2896 7.23874 12.1922 7.31231C11.6524 7.72012 11.1337 7.83666 10.9538 7.57908C10.739 7.27158 11.0136 6.63973 11.5656 6.3096C12.19 5.93617 12.1419 4.87476 11.574 4.43012C11.2077 4.14333 10.8284 4.25893 10.4717 4.74601ZM12.8516 6.65305L12.9836 6.74455C13.2131 6.43483 13.3699 6.09941 13.4219 5.76905L13.2616 5.74538C13.2137 6.04965 13.0671 6.36236 12.8516 6.65305Z" fill="#979797"/>
<path fill-rule="evenodd" clip-rule="evenodd" d="M17.0435 4.74601L16.9112 4.8368C16.6028 4.41577 16.3254 4.3312 16.0432 4.55217C15.5559 4.93366 15.5137 5.86442 16.0348 6.17605C16.6562 6.54772 16.9712 7.27254 16.6957 7.66702C16.4414 8.03102 15.8284 7.89327 15.2232 7.43606C15.1157 7.35489 15.0133 7.26823 14.917 7.17717L15.0449 7.07847C15.1325 7.16048 15.2255 7.23874 15.3229 7.31231C15.8627 7.72012 16.3814 7.83666 16.5613 7.57908C16.7761 7.27158 16.5016 6.63973 15.9495 6.3096C15.3251 5.93617 15.3733 4.87476 15.9412 4.43012C16.3075 4.14333 16.6868 4.25893 17.0435 4.74601ZM14.6635 6.65305L14.5316 6.74455C14.3021 6.43483 14.1453 6.09941 14.0932 5.76905L14.2535 5.74538C14.3015 6.04965 14.4481 6.36236 14.6635 6.65305Z" fill="#979797"/>
<path fill-rule="evenodd" clip-rule="evenodd" d="M13.6686 12.5104C13.8477 12.5104 13.9929 12.4378 13.9929 12.3482C13.9929 12.2586 13.8477 12.186 13.6686 12.186C13.4894 12.186 13.3442 12.2586 13.3442 12.3482C13.3442 12.4378 13.4894 12.5104 13.6686 12.5104Z" fill="#AF0100"/>
<path fill-rule="evenodd" clip-rule="evenodd" d="M13.6146 5.76205C14.2415 5.76205 14.7498 5.67734 14.7498 5.57286C14.7498 5.46837 14.2415 5.38367 13.6146 5.38367C12.9877 5.38367 12.4795 5.46837 12.4795 5.57286C12.4795 5.67734 12.9877 5.76205 13.6146 5.76205Z" fill="#AF0100"/>
<path fill-rule="evenodd" clip-rule="evenodd" d="M13.6787 1.27393H13.5165V1.46088H13.363V1.61786H13.5165V2.07598H13.6787V1.61786H13.8658V1.46088H13.6787V1.27393ZM12.4593 3.53537L12.3869 3.41345C12.4266 3.39682 12.467 3.38113 12.5083 3.36637L12.2974 2.90373L12.4457 2.84034L12.6629 3.31662C12.709 3.30335 12.7559 3.29114 12.8038 3.27998C12.7705 3.24224 12.7499 3.19061 12.7499 3.13366C12.7499 3.01807 12.8346 2.92436 12.9391 2.92436C13.0436 2.92436 13.1283 3.01807 13.1283 3.13366C13.1283 3.16629 13.1215 3.19716 13.1095 3.22469C13.238 3.20765 13.3721 3.19711 13.512 3.19303V3.01566H13.3089V2.88941H13.512V2.73904H13.7264V2.88941H13.9739V3.01566H13.7264V3.19179C13.8858 3.19456 14.0351 3.20564 14.1743 3.2251C14.1621 3.19748 14.1553 3.16645 14.1553 3.13366C14.1553 3.01807 14.24 2.92436 14.3445 2.92436C14.449 2.92436 14.5337 3.01807 14.5337 3.13366C14.5337 3.19286 14.5115 3.24632 14.4758 3.28439C14.5362 3.30016 14.5943 3.31793 14.6499 3.33771L14.8052 2.99731L14.9535 3.06071L14.7995 3.39839C14.8117 3.404 14.8238 3.40972 14.8357 3.41556L14.754 3.53326L14.7409 3.52694L14.716 3.58158L14.5676 3.51819L14.5919 3.46504C14.3553 3.38013 14.067 3.33427 13.7264 3.32809V3.38412H13.512V3.32938C13.1078 3.3417 12.7571 3.41053 12.4593 3.53537ZM12.3869 3.67507L12.4248 3.73882L12.2974 3.79327L12.5083 4.25591C12.467 4.27067 12.4266 4.28636 12.3869 4.30298L12.4593 4.42491C12.7571 4.30006 13.1078 4.23123 13.512 4.21891V4.27365H13.7264V4.21762C14.067 4.2238 14.3553 4.26967 14.5919 4.35457L14.5676 4.40772L14.716 4.47112L14.7409 4.41648L14.754 4.4228L14.8357 4.30509C14.8238 4.29925 14.8117 4.29353 14.7995 4.28792L14.9535 3.95025L14.8052 3.88685L14.6499 4.22724C14.5943 4.20746 14.5362 4.18969 14.4758 4.17393C14.5115 4.13586 14.5337 4.0824 14.5337 4.0232C14.5337 3.9076 14.449 3.8139 14.3445 3.8139C14.24 3.8139 14.1553 3.9076 14.1553 4.0232C14.1553 4.05599 14.1621 4.08701 14.1743 4.11464C14.0351 4.09518 13.8858 4.08409 13.7264 4.08133V3.90519H13.9739V3.77894H13.7264V3.62858H13.512V3.77894H13.3089V3.90519H13.512V4.08256C13.3721 4.08664 13.238 4.09719 13.1095 4.11422C13.1215 4.0867 13.1283 4.05582 13.1283 4.0232C13.1283 3.9076 13.0436 3.8139 12.9391 3.8139C12.8346 3.8139 12.7499 3.9076 12.7499 4.0232C12.7499 4.08014 12.7705 4.13178 12.8038 4.16951C12.7559 4.18067 12.709 4.19288 12.6629 4.20615L12.4736 3.79107C12.8009 3.65656 13.1915 3.58899 13.646 3.58899C14.1058 3.58899 14.4749 3.65812 14.754 3.79489L14.8357 3.67718C14.5293 3.52705 14.1325 3.45273 13.646 3.45273C13.1609 3.45273 12.741 3.52662 12.3869 3.67507ZM12.3869 4.56461L12.4248 4.62835L12.2974 4.6828L12.5083 5.14544C12.467 5.1602 12.4266 5.17589 12.3869 5.19252L12.4593 5.31444C12.7571 5.1896 13.1078 5.12077 13.512 5.10845V5.16319H13.7264V5.10716C14.067 5.11334 14.3553 5.1592 14.5919 5.24411L14.5676 5.29726L14.716 5.36065L14.7409 5.30601L14.754 5.31233L14.8357 5.19463C14.8238 5.18879 14.8117 5.18307 14.7995 5.17746L14.9535 4.83978L14.8052 4.77638L14.6499 5.11678C14.5943 5.097 14.5362 5.07923 14.4758 5.06346C14.5115 5.02539 14.5337 4.97193 14.5337 4.91273C14.5337 4.79714 14.449 4.70343 14.3445 4.70343C14.24 4.70343 14.1553 4.79714 14.1553 4.91273C14.1553 4.94552 14.1621 4.97655 14.1743 5.00417C14.0351 4.98471 13.8858 4.97363 13.7264 4.97086V4.79473H13.9739V4.66848H13.7264V4.51811H13.512V4.66848H13.3089V4.79473H13.512V4.9721C13.3721 4.97618 13.238 4.98672 13.1095 5.00376C13.1215 4.97623 13.1283 4.94536 13.1283 4.91273C13.1283 4.79714 13.0436 4.70343 12.9391 4.70343C12.8346 4.70343 12.7499 4.79714 12.7499 4.91273C12.7499 4.96968 12.7705 5.02131 12.8038 5.05905C12.7559 5.07021 12.709 5.08242 12.6629 5.09569L12.4736 4.68061C12.8009 4.5461 13.1915 4.47853 13.646 4.47853C14.1058 4.47853 14.4749 4.54766 14.754 4.68443L14.8357 4.56672C14.5293 4.41659 14.1325 4.34226 13.646 4.34226C13.1609 4.34226 12.741 4.41616 12.3869 4.56461ZM12.3869 5.45414L12.4593 5.57607C12.7895 5.43762 13.1848 5.36806 13.646 5.36806C14.1058 5.36806 14.4749 5.43719 14.754 5.57396L14.8357 5.45625C14.5293 5.30612 14.1325 5.2318 13.646 5.2318C13.1609 5.2318 12.741 5.30569 12.3869 5.45414Z" fill="#F4B300"/>
</g>
</svg>
