<svg width="20" height="15" viewBox="0 0 20 15" fill="none" xmlns="http://www.w3.org/2000/svg">
<mask id="mask0_1825_45803" style="mask-type:luminance" maskUnits="userSpaceOnUse" x="0" y="0" width="20" height="15">
<rect width="20" height="15" rx="1.25" fill="white"/>
</mask>
<g mask="url(#mask0_1825_45803)">
<path fill-rule="evenodd" clip-rule="evenodd" d="M0 0V15H20V0H0Z" fill="#2E42A5"/>
<mask id="mask1_1825_45803" style="mask-type:luminance" maskUnits="userSpaceOnUse" x="0" y="0" width="20" height="15">
<path fill-rule="evenodd" clip-rule="evenodd" d="M0 0V15H20V0H0Z" fill="white"/>
</mask>
<g mask="url(#mask1_1825_45803)">
<path fill-rule="evenodd" clip-rule="evenodd" d="M0 0V5H20V0H0Z" fill="#FECA00"/>
<path fill-rule="evenodd" clip-rule="evenodd" d="M0 10V15H20V10H0Z" fill="#E31D1C"/>
<path fill-rule="evenodd" clip-rule="evenodd" d="M7.9606 7.41218L8.57477 7.06375L9.26391 7.41218L9.01643 6.70404L9.53114 6.18367H8.87606L8.57385 5.51355L8.31612 6.18367H7.54767L8.12548 6.69473H7.47746L7.17525 6.02461L6.91752 6.69473H6.14907L6.73741 7.21511L6.62496 7.66907H6.13461L5.8324 6.99895L5.57467 7.66907H4.80622L5.39456 8.18944L5.28574 8.62872H5.07106L4.76885 7.95859L4.51112 8.62872H3.74268L4.33101 9.14909L4.1556 9.85723L4.76978 9.5088L5.45892 9.85723L5.21143 9.14909L5.72614 8.62872H5.69307L5.83332 8.54915L6.52246 8.89758L6.27497 8.18944L6.56992 7.89124L6.562 7.92325L7.17618 7.57482L7.86532 7.92325L7.61783 7.21511L8.12925 6.69806L8.13601 6.70404L7.9606 7.41218Z" fill="#F7FCFF"/>
<path fill-rule="evenodd" clip-rule="evenodd" d="M12.0144 7.38484L11.4002 7.03641L10.7111 7.38484L10.9585 6.6767L10.4438 6.15633H11.0989L11.4011 5.48621L11.6589 6.15633H12.4273L11.8495 6.66739H12.5006L12.8028 5.99727L13.0605 6.66739H13.829L13.2406 7.18776L13.3531 7.64172H13.8434L14.1456 6.9716L14.4034 7.64172H15.1718L14.5835 8.16209L14.6923 8.60137H14.907L15.2092 7.93125L15.4669 8.60137H16.2354L15.647 9.12174L15.8224 9.82988L15.2082 9.48146L14.5191 9.82988L14.7666 9.12174L14.2519 8.60137H14.285L14.1447 8.52181L13.4556 8.87023L13.7031 8.16209L13.4081 7.8639L13.416 7.8959L12.8019 7.54748L12.1127 7.8959L12.3602 7.18776L11.8474 6.66928L11.839 6.6767L12.0144 7.38484Z" fill="#F7FCFF"/>
<path fill-rule="evenodd" clip-rule="evenodd" d="M9.89575 6.58426L9.28157 6.93269L9.45699 6.22455L8.86865 5.70418H9.6371L9.89483 5.03406L10.197 5.70418H10.8521L10.3374 6.22455L10.5849 6.93269L9.89575 6.58426Z" fill="#F7FCFF"/>
</g>
</g>
</svg>
