<svg width="20" height="15" viewBox="0 0 20 15" fill="none" xmlns="http://www.w3.org/2000/svg">
<g clip-path="url(#clip0_14_444)">
<path d="M0 0H20V15H0V0Z" fill="#CF142B"/>
<path d="M0 0H20V10H0V0Z" fill="#00247D"/>
<path d="M0 0H20V5H0V0Z" fill="#FFCC00"/>
<path d="M10.9033 5.46644L10.6055 5.99012L10.8971 6.18286L10.9033 5.46644Z" fill="white"/>
<path d="M10.9053 5.46471L10.9459 6.08045L10.6061 6.10135L10.9053 5.46471Z" fill="white"/>
<path d="M11.4162 6.02869L10.7981 5.80502L10.6686 6.24153L11.4162 6.02869Z" fill="white"/>
<path d="M11.4206 6.02246L10.7892 6.26462L10.6844 5.83158L11.4206 6.02246Z" fill="white"/>
<path d="M10.2357 5.76988L10.6615 6.22047L10.9349 5.97694L10.2357 5.76988Z" fill="white"/>
<path d="M10.2349 5.76906L10.8491 5.90028L10.7706 6.25291L10.2349 5.76906Z" fill="white"/>
<path d="M11.0497 6.6354L10.9698 6.01049L10.597 6.04984L11.0497 6.6354Z" fill="white"/>
<path d="M11.0503 6.63621L10.622 6.16369L10.8996 5.91858L11.0503 6.63621Z" fill="white"/>
<path d="M10.3268 6.49736L10.8919 6.22854L10.7419 5.89062L10.3268 6.49736Z" fill="white"/>
<path d="M10.326 6.49812L10.6419 5.94937L10.9571 6.134L10.326 6.49812Z" fill="white"/>
<path d="M12.5633 6.06272L12.1003 6.48551L12.3449 6.75982L12.5633 6.06272Z" fill="white"/>
<path d="M12.5634 6.06265L12.4231 6.67533L12.0654 6.59517L12.5634 6.06265Z" fill="white"/>
<path d="M12.8628 6.73037L12.311 6.4238L12.1306 6.74876L12.8628 6.73037Z" fill="white"/>
<path d="M12.8627 6.72996L12.2359 6.79575L12.1954 6.42565L12.8627 6.72996Z" fill="white"/>
<path d="M11.8337 6.13664L12.0907 6.70919L12.4292 6.56312L11.8337 6.13664Z" fill="white"/>
<path d="M11.8335 6.13643L12.3731 6.46224L12.1839 6.77675L11.8335 6.13643Z" fill="white"/>
<path d="M12.2967 7.23257L12.4684 6.61093L12.0793 6.5155L12.2967 7.23257Z" fill="white"/>
<path d="M12.2991 7.23386L12.0606 6.63278L12.4372 6.49896L12.2991 7.23386Z" fill="white"/>
<path d="M11.6714 6.84967L12.3009 6.79616L12.2803 6.4189L11.6714 6.84967Z" fill="white"/>
<path d="M11.6702 6.85065L12.1648 6.4396L12.396 6.72975L11.6702 6.85065Z" fill="white"/>
<path d="M13.9262 7.20578L13.3459 7.44747L13.4844 7.78811L13.9262 7.20578Z" fill="white"/>
<path d="M13.9261 7.20584L13.5867 7.73507L13.2757 7.53896L13.9261 7.20584Z" fill="white"/>
<path d="M13.9773 7.93859L13.5678 7.46165L13.287 7.69894L13.9773 7.93859Z" fill="white"/>
<path d="M13.9773 7.93861L13.369 7.77977L13.459 7.42327L13.9773 7.93861Z" fill="white"/>
<path d="M13.2134 7.02755L13.2633 7.65431L13.6306 7.62832L13.2134 7.02755Z" fill="white"/>
<path d="M13.2133 7.02751L13.6117 7.51454L13.3285 7.74937L13.2133 7.02751Z" fill="white"/>
<path d="M13.2964 8.21435L13.6232 7.67642L13.3098 7.48327L13.2964 8.21435Z" fill="white"/>
<path d="M13.2965 8.21436L13.2586 7.58658L13.6261 7.56115L13.2965 8.21436Z" fill="white"/>
<path d="M12.8235 7.65048L13.4353 7.79693L13.5238 7.43916L12.8235 7.65048Z" fill="white"/>
<path d="M12.8234 7.65054L13.4097 7.42193L13.5458 7.76428L12.8234 7.65054Z" fill="white"/>
<path d="M14.8163 8.7476L14.1881 8.77537L14.2009 9.1435L14.8163 8.7476Z" fill="white"/>
<path d="M14.8164 8.74752L14.3154 9.12864L14.0908 8.83718L14.8164 8.74752Z" fill="white"/>
<path d="M14.613 9.45369L14.3923 8.86519L14.0467 8.99121L14.613 9.45369Z" fill="white"/>
<path d="M14.6131 9.45379L14.0961 9.09544L14.3035 8.79191L14.6131 9.45379Z" fill="white"/>
<path d="M14.2082 8.33564L14.0379 8.94225L14.3939 9.0441L14.2082 8.33564Z" fill="white"/>
<path d="M14.2081 8.33562L14.4156 8.93065L14.0665 9.05411L14.2081 8.33562Z" fill="white"/>
<path d="M13.8789 9.47889L14.37 9.08695L14.1432 8.79758L13.8789 9.47889Z" fill="white"/>
<path d="M13.8788 9.47887L14.0595 8.87674L14.4122 8.97973L13.8788 9.47887Z" fill="white"/>
<path d="M13.628 8.78851L14.1527 9.1342L14.3575 8.82903L13.628 8.78851Z" fill="white"/>
<path d="M13.628 8.78851L14.2563 8.77397L14.2676 9.14123L13.628 8.78851Z" fill="white"/>
<path d="M5.1959 8.73783L5.6653 9.12542L5.90923 8.8584L5.1959 8.73783Z" fill="white"/>
<path d="M5.19436 8.73642L5.81556 8.79327L5.77612 9.14363L5.19436 8.73642Z" fill="white"/>
<path d="M5.82857 8.36549L5.59696 8.8837L5.85484 9.05411L5.82857 8.36549Z" fill="white"/>
<path d="M5.83391 8.36168L5.89567 8.9512L5.60594 8.98849L5.83391 8.36168Z" fill="white"/>
<path d="M5.37084 9.43517L5.89841 9.12504L5.73126 8.79203L5.37084 9.43517Z" fill="white"/>
<path d="M5.36842 9.43752L5.63694 8.85978L5.95335 9.02631L5.36842 9.43752Z" fill="white"/>
<path d="M6.40439 8.84301L5.77913 8.68861L5.63574 9.14135L6.40439 8.84301Z" fill="white"/>
<path d="M6.413 8.8357L5.76228 9.15028L5.66642 8.72758L6.413 8.8357Z" fill="white"/>
<path d="M6.08566 9.50626L5.99659 8.88607L5.5879 8.92082L6.08566 9.50626Z" fill="white"/>
<path d="M6.09036 9.51046L5.61964 9.03732L5.92337 8.79758L6.09036 9.51046Z" fill="white"/>
<path d="M6.08506 7.19553L6.39606 7.73163L6.7244 7.56153L6.08506 7.19553Z" fill="white"/>
<path d="M6.08351 7.19388L6.65741 7.4665L6.495 7.78824L6.08351 7.19388Z" fill="white"/>
<path d="M6.79505 7.0395L6.3912 7.496L6.65376 7.74949L6.79505 7.0395Z" fill="white"/>
<path d="M6.79626 7.03801L6.72177 7.65799L6.36952 7.60633L6.79626 7.03801Z" fill="white"/>
<path d="M6.00752 7.92312L6.62579 7.80411L6.57386 7.42327L6.00752 7.92312Z" fill="white"/>
<path d="M6.00518 7.92526L6.46002 7.45718L6.71317 7.72793L6.00518 7.92526Z" fill="white"/>
<path d="M7.176 7.65478L6.5915 7.42348L6.45427 7.75573L7.176 7.65478Z" fill="white"/>
<path d="M7.17605 7.65528L6.56464 7.78969L6.47763 7.43929L7.17605 7.65528Z" fill="white"/>
<path d="M6.68332 8.22607L6.77342 7.59053L6.37401 7.5358L6.68332 8.22607Z" fill="white"/>
<path d="M6.68606 8.22791L6.37083 7.6551L6.72803 7.48327L6.68606 8.22791Z" fill="white"/>
<path d="M7.44274 6.05581L7.56664 6.67303L7.93438 6.61003L7.44274 6.05581Z" fill="white"/>
<path d="M7.44203 6.05491L7.90136 6.49811L7.64297 6.75994L7.44203 6.05491Z" fill="white"/>
<path d="M8.17297 6.14463L7.62897 6.44903L7.80178 6.77663L8.17297 6.14463Z" fill="white"/>
<path d="M8.17371 6.14382L7.89728 6.71161L7.57064 6.54755L8.17371 6.14382Z" fill="white"/>
<path d="M7.13261 6.72424L7.76245 6.80506L7.81468 6.42577L7.13261 6.72424Z" fill="white"/>
<path d="M7.13167 6.72535L7.69738 6.42213L7.86931 6.75972L7.13167 6.72535Z" fill="white"/>
<path d="M8.31501 6.86243L7.85844 6.4436L7.60396 6.70435L8.31501 6.86243Z" fill="white"/>
<path d="M8.31573 6.86328L7.69474 6.77477L7.74718 6.4189L8.31573 6.86328Z" fill="white"/>
<path d="M7.67789 7.21767L7.93154 6.65823L7.61206 6.49896L7.67789 7.21767Z" fill="white"/>
<path d="M7.67685 7.21861L7.57314 6.60623L7.92073 6.54579L7.67685 7.21861Z" fill="white"/>
<path d="M9.11836 5.44646L9.01657 6.0741L9.39382 6.13998L9.11836 5.44646Z" fill="white"/>
<path d="M9.11724 5.44551L9.40133 6.02271L9.05826 6.18274L9.11724 5.44551Z" fill="white"/>
<path d="M9.776 5.78181L9.15457 5.88024L9.20581 6.25291L9.776 5.78181Z" fill="white"/>
<path d="M9.77685 5.78094L9.31876 6.22424L9.06511 5.95315L9.77685 5.78094Z" fill="white"/>
<path d="M8.6061 5.97456L9.15771 6.24818L9.32788 5.93403L8.6061 5.97456Z" fill="white"/>
<path d="M8.60532 5.97356L9.22192 5.89137L9.27079 6.24141L8.60532 5.97356Z" fill="white"/>
<path d="M9.66244 6.50787L9.37593 5.95268L9.0428 6.113L9.66244 6.50787Z" fill="white"/>
<path d="M9.66312 6.50861L9.10456 6.21086L9.27924 5.89062L9.66312 6.50861Z" fill="white"/>
<path d="M8.93955 6.62339L9.3744 6.18353L9.12163 5.91846L8.93955 6.62339Z" fill="white"/>
<path d="M8.93875 6.62429L9.04811 6.00665L9.40292 6.07343L8.93875 6.62429Z" fill="white"/>
</g>
<defs>
<clipPath id="clip0_14_444">
<rect width="20" height="15" fill="white"/>
</clipPath>
</defs>
</svg>
