<svg width="20" height="15" viewBox="0 0 20 15" fill="none" xmlns="http://www.w3.org/2000/svg">
<g clip-path="url(#clip0_14_532)">
<path d="M0 0H20V15H0V0Z" fill="#000066"/>
<path d="M0 0H10V7.5H0V0Z" fill="#012169"/>
<path d="M1.17188 0L4.98438 2.82812L8.78125 0H10V0.96875L6.25 3.76562L10 6.54688V7.5H8.75L5 4.70312L1.26562 7.5H0V6.5625L3.73438 3.78125L0 1V0H1.17188Z" fill="white"/>
<path d="M6.625 4.39062L10 6.875V7.5L5.76562 4.39062H6.625ZM3.75 4.70312L3.84375 5.25L0.84375 7.5H0L3.75 4.70312ZM10 0V0.046875L6.10938 2.98438L6.14062 2.29688L9.21875 0H10ZM0 0L3.73438 2.75H2.79688L0 0.65625V0Z" fill="#C8102E"/>
<path d="M3.76562 0V7.5H6.26562V0H3.76562ZM0 2.5V5H10V2.5H0Z" fill="white"/>
<path d="M0 3.01562V4.51562H10V3.01562H0ZM4.26562 0V7.5H5.76562V0H4.26562Z" fill="#C8102E"/>
<path d="M12.0034 3.19367L18.0676 3.17188L18.0554 8.57245C18.0554 8.57245 18.2686 9.39585 15.5126 10.6431C16.5031 10.5414 17.5832 9.48546 17.5832 9.48546C17.5832 9.48546 18.0215 8.92118 18.2371 9.23601C18.4502 9.55085 18.6512 9.71068 18.8086 9.83419C18.966 9.95528 19.0895 10.2943 18.8546 10.5414C18.6173 10.7908 18.2468 10.8223 18.1451 10.5196C17.9876 10.5995 17.0214 11.7692 15.0403 11.8249C13.0254 11.791 11.9235 10.5074 11.9235 10.5074C11.9235 10.5074 11.6547 10.9361 11.2696 10.5995C10.8991 10.1587 11.18 9.87779 11.18 9.87779C11.18 9.87779 11.4948 9.69857 11.5869 9.57506C11.7322 9.40554 11.7782 9.18031 12.0228 9.18031C12.3183 9.20453 12.4297 9.43944 12.4297 9.43944C12.4297 9.43944 13.442 10.5074 14.5342 10.6431C12.0712 9.46124 11.9792 8.72986 11.9913 8.55065L12.0034 3.19609V3.19367Z" fill="white"/>
<path d="M12.1487 3.3414L17.932 3.3075V8.50464C17.9441 9.18274 16.8058 9.8681 15.0282 10.7448C13.195 9.80029 12.1366 9.22633 12.127 8.49253L12.1487 3.3414Z" fill="#006129" stroke="black" stroke-width="0.0736221"/>
<path d="M12.9358 4.1091L13.2748 3.60779L13.6212 4.11152" stroke="#FFC72C" stroke-width="0.0736221"/>
<path d="M13.345 3.92023C13.345 3.93821 13.3378 3.95546 13.3251 3.96818C13.3124 3.98089 13.2951 3.98804 13.2772 3.98804C13.2592 3.98804 13.2419 3.98089 13.2292 3.96818C13.2165 3.95546 13.2094 3.93821 13.2094 3.92023C13.2094 3.90224 13.2165 3.88499 13.2292 3.87228C13.2419 3.85956 13.2592 3.85242 13.2772 3.85242C13.2951 3.85242 13.3124 3.85956 13.3251 3.87228C13.3378 3.88499 13.345 3.90224 13.345 3.92023Z" fill="#FFC72C" stroke="black" stroke-width="0.0348736"/>
<path d="M12.9987 4.47956H13.5291C13.5291 4.47956 13.5364 4.41175 13.4734 4.37058C13.7519 4.33183 13.6792 4.08965 13.9093 4.07512C13.9577 4.08238 13.7882 4.17926 13.7882 4.17926C13.7882 4.17926 13.6502 4.27613 13.7156 4.32698C13.764 4.36815 13.7882 4.30277 13.7931 4.25433C13.8003 4.2059 14.0183 4.17441 13.9868 4.03637C13.9359 3.92255 13.6308 4.11387 13.6308 4.11387L13.4128 4.11145C13.3983 4.08723 13.3402 3.99036 13.2772 3.99036C13.2046 3.99036 13.1513 4.11145 13.1513 4.11145H12.6597C12.6597 4.11145 12.6427 4.2398 12.8922 4.26402C12.9479 4.33667 12.9915 4.35605 13.0423 4.37542C13.0084 4.40206 12.9987 4.43596 12.9987 4.47956ZM13.0375 4.373H13.4782Z" fill="#FFC72C"/>
<path d="M13.0375 4.373H13.4782M12.9987 4.47956H13.5291C13.5291 4.47956 13.5364 4.41175 13.4734 4.37058C13.7519 4.33183 13.6792 4.08965 13.9093 4.07512C13.9577 4.08238 13.7882 4.17926 13.7882 4.17926C13.7882 4.17926 13.6502 4.27613 13.7156 4.32698C13.764 4.36815 13.7882 4.30277 13.7931 4.25433C13.8003 4.2059 14.0183 4.17441 13.9868 4.03637C13.9359 3.92255 13.6308 4.11387 13.6308 4.11387L13.4128 4.11145C13.3983 4.08723 13.3402 3.99036 13.2772 3.99036C13.2046 3.99036 13.1513 4.11145 13.1513 4.11145H12.6597C12.6597 4.11145 12.6427 4.2398 12.8922 4.26402C12.9479 4.33667 12.9915 4.35605 13.0423 4.37542C13.0084 4.40206 12.9987 4.43596 12.9987 4.47956Z" stroke="black" stroke-width="0.0348736"/>
<path d="M12.8364 4.11389C12.8364 4.11389 12.8703 4.31974 13.035 4.36818Z" fill="#FFC72C"/>
<path d="M12.8364 4.11389C12.8364 4.11389 12.8703 4.31974 13.035 4.36818" stroke="black" stroke-width="0.0348736"/>
<path d="M12.8099 4.10902C12.8244 4.03153 12.8559 4.01699 12.8874 3.91528C12.8922 3.81841 12.8099 3.83052 12.8341 3.76997C12.8777 3.69974 12.8559 3.63435 12.7735 3.5835C12.7905 3.6731 12.667 3.75786 12.667 3.83052C12.667 3.90317 12.73 3.88864 12.7227 4.00004C12.7275 4.06301 12.7057 4.04848 12.6985 4.10902H12.8099Z" fill="url(#paint0_linear_14_532)" stroke="black" stroke-width="0.0348736"/>
<path d="M13.3402 3.62229C13.3402 3.63899 13.3335 3.65501 13.3217 3.66682C13.3099 3.67862 13.2939 3.68526 13.2772 3.68526C13.2605 3.68526 13.2445 3.67862 13.2327 3.66682C13.2209 3.65501 13.2142 3.63899 13.2142 3.62229C13.2142 3.60559 13.2209 3.58958 13.2327 3.57777C13.2445 3.56596 13.2605 3.55933 13.2772 3.55933C13.2939 3.55933 13.3099 3.56596 13.3217 3.57777C13.3335 3.58958 13.3402 3.60559 13.3402 3.62229Z" fill="#FFC72C" stroke="black" stroke-width="0.0348736"/>
<path d="M12.9165 5.10934L13.2556 4.60803L13.6019 5.11176" stroke="#FFC72C" stroke-width="0.0736221"/>
<path d="M13.3257 4.92047C13.3257 4.93846 13.3185 4.9557 13.3058 4.96842C13.2931 4.98114 13.2759 4.98828 13.2579 4.98828C13.2399 4.98828 13.2226 4.98114 13.2099 4.96842C13.1972 4.9557 13.1901 4.93846 13.1901 4.92047C13.1901 4.90249 13.1972 4.88524 13.2099 4.87252C13.2226 4.85981 13.2399 4.85266 13.2579 4.85266C13.2759 4.85266 13.2931 4.85981 13.3058 4.87252C13.3185 4.88524 13.3257 4.90249 13.3257 4.92047Z" fill="#FFC72C" stroke="black" stroke-width="0.0348736"/>
<path d="M12.9794 5.4798H13.5098C13.5098 5.4798 13.5171 5.41199 13.4541 5.37082C13.7326 5.33207 13.6599 5.08989 13.89 5.07536C13.9385 5.08263 13.7689 5.1795 13.7689 5.1795C13.7689 5.1795 13.6309 5.27637 13.6963 5.32723C13.7447 5.3684 13.7689 5.30301 13.7738 5.25457C13.781 5.20614 13.999 5.17466 13.9675 5.03661C13.9167 4.92279 13.6115 5.11411 13.6115 5.11411L13.3936 5.11169C13.379 5.08747 13.3209 4.9906 13.2579 4.9906C13.1853 4.9906 13.132 5.11169 13.132 5.11169H12.6404C12.6404 5.11169 12.6234 5.24004 12.8729 5.26426C12.9286 5.33692 12.9722 5.35629 13.023 5.37566C12.9891 5.4023 12.9794 5.43621 12.9794 5.4798ZM13.0182 5.37324H13.4589Z" fill="#FFC72C"/>
<path d="M13.0182 5.37324H13.4589M12.9794 5.4798H13.5098C13.5098 5.4798 13.5171 5.41199 13.4541 5.37082C13.7326 5.33207 13.6599 5.08989 13.89 5.07536C13.9385 5.08263 13.7689 5.1795 13.7689 5.1795C13.7689 5.1795 13.6309 5.27637 13.6963 5.32723C13.7447 5.3684 13.7689 5.30301 13.7738 5.25457C13.781 5.20614 13.999 5.17466 13.9675 5.03661C13.9167 4.92279 13.6115 5.11411 13.6115 5.11411L13.3936 5.11169C13.379 5.08747 13.3209 4.9906 13.2579 4.9906C13.1853 4.9906 13.132 5.11169 13.132 5.11169H12.6404C12.6404 5.11169 12.6234 5.24004 12.8729 5.26426C12.9286 5.33692 12.9722 5.35629 13.023 5.37566C12.9891 5.4023 12.9794 5.43621 12.9794 5.4798Z" stroke="black" stroke-width="0.0348736"/>
<path d="M12.8171 5.11414C12.8171 5.11414 12.851 5.31999 13.0157 5.36842Z" fill="#FFC72C"/>
<path d="M12.8171 5.11414C12.8171 5.11414 12.851 5.31999 13.0157 5.36842" stroke="black" stroke-width="0.0348736"/>
<path d="M12.7905 5.10927C12.805 5.03177 12.8365 5.01724 12.868 4.91552C12.8728 4.81865 12.7905 4.83076 12.8147 4.77022C12.8583 4.69999 12.8365 4.6346 12.7541 4.58374C12.7711 4.67335 12.6476 4.75811 12.6476 4.83076C12.6476 4.90342 12.7105 4.88888 12.7033 5.00029C12.7081 5.06325 12.6863 5.04872 12.6791 5.10927H12.7905Z" fill="url(#paint1_linear_14_532)" stroke="black" stroke-width="0.0348736"/>
<path d="M13.3209 4.62254C13.3209 4.63924 13.3142 4.65525 13.3024 4.66706C13.2906 4.67887 13.2746 4.6855 13.2579 4.6855C13.2412 4.6855 13.2252 4.67887 13.2134 4.66706C13.2016 4.65525 13.1949 4.63924 13.1949 4.62254C13.1949 4.60584 13.2016 4.58982 13.2134 4.57801C13.2252 4.5662 13.2412 4.55957 13.2579 4.55957C13.2746 4.55957 13.2906 4.5662 13.3024 4.57801C13.3142 4.58982 13.3209 4.60584 13.3209 4.62254Z" fill="#FFC72C" stroke="black" stroke-width="0.0348736"/>
<path d="M12.9092 6.09494L13.2482 5.59363L13.5945 6.09736" stroke="#FFC72C" stroke-width="0.0736221"/>
<path d="M13.3184 5.90607C13.3184 5.92405 13.3112 5.9413 13.2985 5.95402C13.2858 5.96673 13.2685 5.97388 13.2506 5.97388C13.2326 5.97388 13.2153 5.96673 13.2026 5.95402C13.1899 5.9413 13.1827 5.92405 13.1827 5.90607C13.1827 5.88808 13.1899 5.87083 13.2026 5.85812C13.2153 5.8454 13.2326 5.83826 13.2506 5.83826C13.2685 5.83826 13.2858 5.8454 13.2985 5.85812C13.3112 5.87083 13.3184 5.88808 13.3184 5.90607Z" fill="#FFC72C" stroke="black" stroke-width="0.0348736"/>
<path d="M12.9721 6.4654H13.5025C13.5025 6.4654 13.5097 6.39759 13.4468 6.35642C13.7253 6.31767 13.6526 6.07549 13.8827 6.06096C13.9311 6.06822 13.7616 6.1651 13.7616 6.1651C13.7616 6.1651 13.6236 6.26197 13.689 6.31282C13.7374 6.35399 13.7616 6.28861 13.7664 6.24017C13.7737 6.19174 13.9917 6.16025 13.9602 6.02221C13.9093 5.90839 13.6042 6.09971 13.6042 6.09971L13.3862 6.09729C13.3717 6.07307 13.3136 5.9762 13.2506 5.9762C13.178 5.9762 13.1247 6.09729 13.1247 6.09729H12.6331C12.6331 6.09729 12.6161 6.22564 12.8655 6.24986C12.9212 6.32251 12.9648 6.34189 13.0157 6.36126C12.9818 6.3879 12.9721 6.4218 12.9721 6.4654ZM13.0109 6.35884H13.4516Z" fill="#FFC72C"/>
<path d="M13.0109 6.35884H13.4516M12.9721 6.4654H13.5025C13.5025 6.4654 13.5097 6.39759 13.4468 6.35642C13.7253 6.31767 13.6526 6.07549 13.8827 6.06096C13.9311 6.06822 13.7616 6.1651 13.7616 6.1651C13.7616 6.1651 13.6236 6.26197 13.689 6.31282C13.7374 6.35399 13.7616 6.28861 13.7664 6.24017C13.7737 6.19174 13.9917 6.16025 13.9602 6.02221C13.9093 5.90839 13.6042 6.09971 13.6042 6.09971L13.3862 6.09729C13.3717 6.07307 13.3136 5.9762 13.2506 5.9762C13.178 5.9762 13.1247 6.09729 13.1247 6.09729H12.6331C12.6331 6.09729 12.6161 6.22564 12.8655 6.24986C12.9212 6.32251 12.9648 6.34189 13.0157 6.36126C12.9818 6.3879 12.9721 6.4218 12.9721 6.4654Z" stroke="black" stroke-width="0.0348736"/>
<path d="M12.8098 6.09973C12.8098 6.09973 12.8437 6.30558 13.0084 6.35402Z" fill="#FFC72C"/>
<path d="M12.8098 6.09973C12.8098 6.09973 12.8437 6.30558 13.0084 6.35402" stroke="black" stroke-width="0.0348736"/>
<path d="M12.7831 6.09486C12.7977 6.01737 12.8292 6.00283 12.8606 5.90112C12.8655 5.80425 12.7831 5.81636 12.8074 5.75581C12.851 5.68558 12.8292 5.62019 12.7468 5.56934C12.7638 5.65894 12.6403 5.7437 12.6403 5.81636C12.6403 5.88901 12.7032 5.87448 12.696 5.98588C12.7008 6.04885 12.679 6.03432 12.6717 6.09486H12.7831Z" fill="url(#paint2_linear_14_532)" stroke="black" stroke-width="0.0348736"/>
<path d="M13.3136 5.60813C13.3136 5.62483 13.3069 5.64085 13.2951 5.65266C13.2833 5.66446 13.2673 5.6711 13.2506 5.6711C13.2339 5.6711 13.2179 5.66446 13.2061 5.65266C13.1943 5.64085 13.1876 5.62483 13.1876 5.60813C13.1876 5.59143 13.1943 5.57542 13.2061 5.56361C13.2179 5.5518 13.2339 5.54517 13.2506 5.54517C13.2673 5.54517 13.2833 5.5518 13.2951 5.56361C13.3069 5.57542 13.3136 5.59143 13.3136 5.60813Z" fill="#FFC72C" stroke="black" stroke-width="0.0348736"/>
<path d="M13.5558 7.16305L13.8948 6.66174L14.2411 7.16547" stroke="#FFC72C" stroke-width="0.0736221"/>
<path d="M13.965 6.97418C13.965 6.99217 13.9578 7.00941 13.9451 7.02213C13.9324 7.03485 13.9151 7.04199 13.8972 7.04199C13.8792 7.04199 13.8619 7.03485 13.8492 7.02213C13.8365 7.00941 13.8293 6.99217 13.8293 6.97418C13.8293 6.9562 13.8365 6.93895 13.8492 6.92623C13.8619 6.91352 13.8792 6.90637 13.8972 6.90637C13.9151 6.90637 13.9324 6.91352 13.9451 6.92623C13.9578 6.93895 13.965 6.9562 13.965 6.97418Z" fill="#FFC72C" stroke="black" stroke-width="0.0348736"/>
<path d="M13.6187 7.53351H14.1491C14.1491 7.53351 14.1563 7.4657 14.0934 7.42453C14.3719 7.38578 14.2992 7.1436 14.5293 7.12907C14.5777 7.13634 14.4082 7.23321 14.4082 7.23321C14.4082 7.23321 14.2702 7.33008 14.3356 7.38094C14.384 7.42211 14.4082 7.35672 14.4131 7.30829C14.4203 7.25985 14.6383 7.22837 14.6068 7.09033C14.5559 6.9765 14.2508 7.16782 14.2508 7.16782L14.0328 7.1654C14.0183 7.14118 13.9602 7.04431 13.8972 7.04431C13.8246 7.04431 13.7713 7.1654 13.7713 7.1654H13.2797C13.2797 7.1654 13.2627 7.29376 13.5122 7.31797C13.5679 7.39063 13.6114 7.41 13.6623 7.42937C13.6284 7.45601 13.6187 7.48992 13.6187 7.53351ZM13.6575 7.42695H14.0982Z" fill="#FFC72C"/>
<path d="M13.6575 7.42695H14.0982M13.6187 7.53351H14.1491C14.1491 7.53351 14.1563 7.4657 14.0934 7.42453C14.3719 7.38578 14.2992 7.1436 14.5293 7.12907C14.5777 7.13634 14.4082 7.23321 14.4082 7.23321C14.4082 7.23321 14.2702 7.33008 14.3356 7.38094C14.384 7.42211 14.4082 7.35672 14.4131 7.30829C14.4203 7.25985 14.6383 7.22837 14.6068 7.09033C14.5559 6.9765 14.2508 7.16782 14.2508 7.16782L14.0328 7.1654C14.0183 7.14118 13.9602 7.04431 13.8972 7.04431C13.8246 7.04431 13.7713 7.1654 13.7713 7.1654H13.2797C13.2797 7.1654 13.2627 7.29376 13.5122 7.31797C13.5679 7.39063 13.6114 7.41 13.6623 7.42937C13.6284 7.45601 13.6187 7.48992 13.6187 7.53351Z" stroke="black" stroke-width="0.0348736"/>
<path d="M13.4564 7.16785C13.4564 7.16785 13.4903 7.3737 13.655 7.42213Z" fill="#FFC72C"/>
<path d="M13.4564 7.16785C13.4564 7.16785 13.4903 7.3737 13.655 7.42213" stroke="black" stroke-width="0.0348736"/>
<path d="M13.4297 7.16298C13.4443 7.08548 13.4758 7.07095 13.5072 6.96924C13.5121 6.87236 13.4297 6.88447 13.454 6.82393C13.4976 6.7537 13.4758 6.68831 13.3934 6.63745C13.4104 6.72706 13.2869 6.81182 13.2869 6.88447C13.2869 6.95713 13.3498 6.9426 13.3426 7.054C13.3474 7.11696 13.3256 7.10243 13.3183 7.16298H13.4297Z" fill="url(#paint3_linear_14_532)" stroke="black" stroke-width="0.0348736"/>
<path d="M13.9602 6.67625C13.9602 6.69295 13.9535 6.70896 13.9417 6.72077C13.9299 6.73258 13.9139 6.73921 13.8972 6.73921C13.8805 6.73921 13.8645 6.73258 13.8527 6.72077C13.8409 6.70896 13.8342 6.69295 13.8342 6.67625C13.8342 6.65955 13.8409 6.64353 13.8527 6.63172C13.8645 6.61992 13.8805 6.61328 13.8972 6.61328C13.9139 6.61328 13.9299 6.61992 13.9417 6.63172C13.9535 6.64353 13.9602 6.65955 13.9602 6.67625Z" fill="#FFC72C" stroke="black" stroke-width="0.0348736"/>
<path d="M12.8245 8.03732L13.1635 7.53601L13.5098 8.03974" stroke="#FFC72C" stroke-width="0.0736221"/>
<path d="M13.2336 7.84845C13.2336 7.86643 13.2265 7.88368 13.2138 7.8964C13.2011 7.90912 13.1838 7.91626 13.1658 7.91626C13.1478 7.91626 13.1306 7.90912 13.1179 7.8964C13.1052 7.88368 13.098 7.86643 13.098 7.84845C13.098 7.83047 13.1052 7.81322 13.1179 7.8005C13.1306 7.78778 13.1478 7.78064 13.1658 7.78064C13.1838 7.78064 13.2011 7.78778 13.2138 7.8005C13.2265 7.81322 13.2336 7.83047 13.2336 7.84845Z" fill="#FFC72C" stroke="black" stroke-width="0.0348736"/>
<path d="M12.8874 8.40778H13.4178C13.4178 8.40778 13.425 8.33997 13.3621 8.2988C13.6406 8.26005 13.5679 8.01787 13.798 8.00334C13.8464 8.01061 13.6769 8.10748 13.6769 8.10748C13.6769 8.10748 13.5388 8.20435 13.6042 8.25521C13.6527 8.29638 13.6769 8.23099 13.6817 8.18255C13.689 8.13412 13.907 8.10263 13.8755 7.96459C13.8246 7.85077 13.5195 8.04209 13.5195 8.04209L13.3015 8.03967C13.287 8.01545 13.2289 7.91858 13.1659 7.91858C13.0932 7.91858 13.04 8.03967 13.04 8.03967H12.5483C12.5483 8.03967 12.5314 8.16802 12.7808 8.19224C12.8365 8.26489 12.8801 8.28427 12.931 8.30364C12.8971 8.33028 12.8874 8.36419 12.8874 8.40778ZM12.9261 8.30122H13.3669Z" fill="#FFC72C"/>
<path d="M12.9261 8.30122H13.3669M12.8874 8.40778H13.4178C13.4178 8.40778 13.425 8.33997 13.3621 8.2988C13.6406 8.26005 13.5679 8.01787 13.798 8.00334C13.8464 8.01061 13.6769 8.10748 13.6769 8.10748C13.6769 8.10748 13.5388 8.20435 13.6042 8.25521C13.6527 8.29638 13.6769 8.23099 13.6817 8.18255C13.689 8.13412 13.907 8.10263 13.8755 7.96459C13.8246 7.85077 13.5195 8.04209 13.5195 8.04209L13.3015 8.03967C13.287 8.01545 13.2289 7.91858 13.1659 7.91858C13.0932 7.91858 13.04 8.03967 13.04 8.03967H12.5483C12.5483 8.03967 12.5314 8.16802 12.7808 8.19224C12.8365 8.26489 12.8801 8.28427 12.931 8.30364C12.8971 8.33028 12.8874 8.36419 12.8874 8.40778Z" stroke="black" stroke-width="0.0348736"/>
<path d="M12.7251 8.04211C12.7251 8.04211 12.759 8.24797 12.9237 8.2964Z" fill="#FFC72C"/>
<path d="M12.7251 8.04211C12.7251 8.04211 12.759 8.24797 12.9237 8.2964" stroke="black" stroke-width="0.0348736"/>
<path d="M12.6984 8.03725C12.713 7.95975 12.7444 7.94522 12.7759 7.8435C12.7808 7.74663 12.6984 7.75874 12.7226 7.6982C12.7662 7.62796 12.7444 7.56258 12.6621 7.51172C12.6791 7.60132 12.5555 7.68609 12.5555 7.75874C12.5555 7.83139 12.6185 7.81686 12.6112 7.92827C12.6161 7.99123 12.5943 7.9767 12.587 8.03725H12.6984Z" fill="url(#paint4_linear_14_532)" stroke="black" stroke-width="0.0348736"/>
<path d="M13.2288 7.55051C13.2288 7.56721 13.2222 7.58323 13.2104 7.59504C13.1986 7.60685 13.1826 7.61348 13.1659 7.61348C13.1492 7.61348 13.1332 7.60685 13.1213 7.59504C13.1095 7.58323 13.1029 7.56721 13.1029 7.55051C13.1029 7.53382 13.1095 7.5178 13.1213 7.50599C13.1332 7.49418 13.1492 7.48755 13.1659 7.48755C13.1826 7.48755 13.1986 7.49418 13.2104 7.50599C13.2222 7.5178 13.2288 7.53382 13.2288 7.55051Z" fill="#FFC72C" stroke="black" stroke-width="0.0348736"/>
<path d="M12.8439 9.06894L13.1829 8.56763L13.5292 9.07136" stroke="#FFC72C" stroke-width="0.0736221"/>
<path d="M13.2531 8.88007C13.2531 8.89805 13.2459 8.9153 13.2332 8.92801C13.2205 8.94073 13.2032 8.94788 13.1852 8.94788C13.1673 8.94788 13.15 8.94073 13.1373 8.92801C13.1246 8.9153 13.1174 8.89805 13.1174 8.88007C13.1174 8.86208 13.1246 8.84483 13.1373 8.83212C13.15 8.8194 13.1673 8.81226 13.1852 8.81226C13.2032 8.81226 13.2205 8.8194 13.2332 8.83212C13.2459 8.84483 13.2531 8.86208 13.2531 8.88007Z" fill="#FFC72C" stroke="black" stroke-width="0.0348736"/>
<path d="M12.9068 9.4394H13.4372C13.4372 9.4394 13.4444 9.37159 13.3815 9.33042C13.66 9.29167 13.5873 9.04949 13.8174 9.03496C13.8658 9.04222 13.6963 9.13909 13.6963 9.13909C13.6963 9.13909 13.5583 9.23597 13.6236 9.28682C13.6721 9.32799 13.6963 9.26261 13.7011 9.21417C13.7084 9.16573 13.9264 9.13425 13.8949 8.99621C13.844 8.88239 13.5389 9.07371 13.5389 9.07371L13.3209 9.07128C13.3064 9.04707 13.2483 8.9502 13.1853 8.9502C13.1126 8.9502 13.0594 9.07128 13.0594 9.07128H12.5677C12.5677 9.07128 12.5508 9.19964 12.8002 9.22386C12.8559 9.29651 12.8995 9.31588 12.9504 9.33526C12.9165 9.3619 12.9068 9.3958 12.9068 9.4394ZM12.9455 9.33284H13.3863Z" fill="#FFC72C"/>
<path d="M12.9455 9.33284H13.3863M12.9068 9.4394H13.4372C13.4372 9.4394 13.4444 9.37159 13.3815 9.33042C13.66 9.29167 13.5873 9.04949 13.8174 9.03496C13.8658 9.04222 13.6963 9.13909 13.6963 9.13909C13.6963 9.13909 13.5583 9.23597 13.6236 9.28682C13.6721 9.32799 13.6963 9.26261 13.7011 9.21417C13.7084 9.16573 13.9264 9.13425 13.8949 8.99621C13.844 8.88239 13.5389 9.07371 13.5389 9.07371L13.3209 9.07128C13.3064 9.04707 13.2483 8.9502 13.1853 8.9502C13.1126 8.9502 13.0594 9.07128 13.0594 9.07128H12.5677C12.5677 9.07128 12.5508 9.19964 12.8002 9.22386C12.8559 9.29651 12.8995 9.31588 12.9504 9.33526C12.9165 9.3619 12.9068 9.3958 12.9068 9.4394Z" stroke="black" stroke-width="0.0348736"/>
<path d="M12.7445 9.07373C12.7445 9.07373 12.7784 9.27958 12.9431 9.32802Z" fill="#FFC72C"/>
<path d="M12.7445 9.07373C12.7445 9.07373 12.7784 9.27958 12.9431 9.32802" stroke="black" stroke-width="0.0348736"/>
<path d="M12.718 9.06886C12.7325 8.99136 12.764 8.97683 12.7955 8.87512C12.8003 8.77825 12.718 8.79036 12.7422 8.72981C12.7858 8.65958 12.764 8.59419 12.6816 8.54333C12.6986 8.63294 12.5751 8.7177 12.5751 8.79036C12.5751 8.86301 12.638 8.84848 12.6308 8.95988C12.6356 9.02285 12.6138 9.00832 12.6066 9.06886H12.718Z" fill="url(#paint5_linear_14_532)" stroke="black" stroke-width="0.0348736"/>
<path d="M13.2482 8.58213C13.2482 8.59883 13.2416 8.61485 13.2298 8.62666C13.218 8.63846 13.202 8.6451 13.1853 8.6451C13.1686 8.6451 13.1526 8.63846 13.1408 8.62666C13.1289 8.61485 13.1223 8.59883 13.1223 8.58213C13.1223 8.56543 13.1289 8.54942 13.1408 8.53761C13.1526 8.5258 13.1686 8.51917 13.1853 8.51917C13.202 8.51917 13.218 8.5258 13.2298 8.53761C13.2416 8.54942 13.2482 8.56543 13.2482 8.58213Z" fill="#FFC72C" stroke="black" stroke-width="0.0348736"/>
<path d="M16.4789 4.12606L16.8179 3.62476L17.1642 4.12849" stroke="#FFC72C" stroke-width="0.0736221"/>
<path d="M16.8881 3.93719C16.8881 3.95518 16.8809 3.97243 16.8682 3.98514C16.8555 3.99786 16.8382 4.005 16.8203 4.005C16.8023 4.005 16.785 3.99786 16.7723 3.98514C16.7596 3.97243 16.7524 3.95518 16.7524 3.93719C16.7524 3.91921 16.7596 3.90196 16.7723 3.88925C16.785 3.87653 16.8023 3.86938 16.8203 3.86938C16.8382 3.86938 16.8555 3.87653 16.8682 3.88925C16.8809 3.90196 16.8881 3.91921 16.8881 3.93719Z" fill="#FFC72C" stroke="black" stroke-width="0.0348736"/>
<path d="M16.5418 4.49652H17.0722C17.0722 4.49652 17.0794 4.42871 17.0165 4.38754C17.295 4.3488 17.2223 4.10662 17.4524 4.09209C17.5008 4.09935 17.3313 4.19622 17.3313 4.19622C17.3313 4.19622 17.1933 4.29309 17.2587 4.34395C17.3071 4.38512 17.3313 4.31973 17.3362 4.2713C17.3434 4.22286 17.5614 4.19138 17.5299 4.05334C17.479 3.93951 17.1739 4.13084 17.1739 4.13084L16.9559 4.12841C16.9414 4.1042 16.8833 4.00732 16.8203 4.00732C16.7477 4.00732 16.6944 4.12841 16.6944 4.12841H16.2028C16.2028 4.12841 16.1858 4.25677 16.4352 4.28099C16.4909 4.35364 16.5345 4.37301 16.5854 4.39239C16.5515 4.41903 16.5418 4.45293 16.5418 4.49652ZM16.5806 4.38997H17.0213Z" fill="#FFC72C"/>
<path d="M16.5806 4.38997H17.0213M16.5418 4.49652H17.0722C17.0722 4.49652 17.0794 4.42871 17.0165 4.38754C17.295 4.3488 17.2223 4.10662 17.4524 4.09209C17.5008 4.09935 17.3313 4.19622 17.3313 4.19622C17.3313 4.19622 17.1933 4.29309 17.2587 4.34395C17.3071 4.38512 17.3313 4.31973 17.3362 4.2713C17.3434 4.22286 17.5614 4.19138 17.5299 4.05334C17.479 3.93951 17.1739 4.13084 17.1739 4.13084L16.9559 4.12841C16.9414 4.1042 16.8833 4.00732 16.8203 4.00732C16.7477 4.00732 16.6944 4.12841 16.6944 4.12841H16.2028C16.2028 4.12841 16.1858 4.25677 16.4352 4.28099C16.4909 4.35364 16.5345 4.37301 16.5854 4.39239C16.5515 4.41903 16.5418 4.45293 16.5418 4.49652Z" stroke="black" stroke-width="0.0348736"/>
<path d="M16.3795 4.13086C16.3795 4.13086 16.4134 4.33671 16.5781 4.38515Z" fill="#FFC72C"/>
<path d="M16.3795 4.13086C16.3795 4.13086 16.4134 4.33671 16.5781 4.38515" stroke="black" stroke-width="0.0348736"/>
<path d="M16.3528 4.12599C16.3674 4.04849 16.3989 4.03396 16.4303 3.93225C16.4352 3.83538 16.3528 3.84749 16.3771 3.78694C16.4207 3.71671 16.3989 3.65132 16.3165 3.60046C16.3335 3.69007 16.21 3.77483 16.21 3.84749C16.21 3.92014 16.2729 3.90561 16.2657 4.01701C16.2705 4.07998 16.2487 4.06545 16.2414 4.12599H16.3528Z" fill="url(#paint6_linear_14_532)" stroke="black" stroke-width="0.0348736"/>
<path d="M16.8833 3.63926C16.8833 3.65596 16.8766 3.67198 16.8648 3.68378C16.853 3.69559 16.837 3.70223 16.8203 3.70223C16.8036 3.70223 16.7876 3.69559 16.7758 3.68378C16.764 3.67198 16.7573 3.65596 16.7573 3.63926C16.7573 3.62256 16.764 3.60654 16.7758 3.59474C16.7876 3.58293 16.8036 3.57629 16.8203 3.57629C16.837 3.57629 16.853 3.58293 16.8648 3.59474C16.8766 3.60654 16.8833 3.62256 16.8833 3.63926Z" fill="#FFC72C" stroke="black" stroke-width="0.0348736"/>
<path d="M16.4451 5.1069L16.7841 4.60559L17.1304 5.10932" stroke="#FFC72C" stroke-width="0.0736221"/>
<path d="M16.8542 4.91803C16.8542 4.93601 16.8471 4.95326 16.8344 4.96598C16.8217 4.9787 16.8044 4.98584 16.7864 4.98584C16.7685 4.98584 16.7512 4.9787 16.7385 4.96598C16.7258 4.95326 16.7186 4.93601 16.7186 4.91803C16.7186 4.90005 16.7258 4.8828 16.7385 4.87008C16.7512 4.85736 16.7685 4.85022 16.7864 4.85022C16.8044 4.85022 16.8217 4.85736 16.8344 4.87008C16.8471 4.8828 16.8542 4.90005 16.8542 4.91803Z" fill="#FFC72C" stroke="black" stroke-width="0.0348736"/>
<path d="M16.508 5.47736H17.0384C17.0384 5.47736 17.0456 5.40955 16.9827 5.36838C17.2612 5.32963 17.1885 5.08745 17.4186 5.07292C17.467 5.08019 17.2975 5.17706 17.2975 5.17706C17.2975 5.17706 17.1595 5.27393 17.2248 5.32479C17.2733 5.36596 17.2975 5.30057 17.3023 5.25213C17.3096 5.2037 17.5276 5.17221 17.4961 5.03417C17.4452 4.92035 17.1401 5.11167 17.1401 5.11167L16.9221 5.10925C16.9076 5.08503 16.8495 4.98816 16.7865 4.98816C16.7138 4.98816 16.6606 5.10925 16.6606 5.10925H16.1689C16.1689 5.10925 16.152 5.2376 16.4014 5.26182C16.4571 5.33447 16.5007 5.35385 16.5516 5.37322C16.5177 5.39986 16.508 5.43377 16.508 5.47736ZM16.5467 5.3708H16.9875Z" fill="#FFC72C"/>
<path d="M16.5467 5.3708H16.9875M16.508 5.47736H17.0384C17.0384 5.47736 17.0456 5.40955 16.9827 5.36838C17.2612 5.32963 17.1885 5.08745 17.4186 5.07292C17.467 5.08019 17.2975 5.17706 17.2975 5.17706C17.2975 5.17706 17.1595 5.27393 17.2248 5.32479C17.2733 5.36596 17.2975 5.30057 17.3023 5.25213C17.3096 5.2037 17.5276 5.17221 17.4961 5.03417C17.4452 4.92035 17.1401 5.11167 17.1401 5.11167L16.9221 5.10925C16.9076 5.08503 16.8495 4.98816 16.7865 4.98816C16.7138 4.98816 16.6606 5.10925 16.6606 5.10925H16.1689C16.1689 5.10925 16.152 5.2376 16.4014 5.26182C16.4571 5.33447 16.5007 5.35385 16.5516 5.37322C16.5177 5.39986 16.508 5.43377 16.508 5.47736Z" stroke="black" stroke-width="0.0348736"/>
<path d="M16.3457 5.11169C16.3457 5.11169 16.3796 5.31755 16.5443 5.36598Z" fill="#FFC72C"/>
<path d="M16.3457 5.11169C16.3457 5.11169 16.3796 5.31755 16.5443 5.36598" stroke="black" stroke-width="0.0348736"/>
<path d="M16.319 5.10683C16.3336 5.02933 16.365 5.0148 16.3965 4.91308C16.4014 4.81621 16.319 4.82832 16.3432 4.76778C16.3868 4.69754 16.365 4.63216 16.2827 4.5813C16.2997 4.6709 16.1761 4.75567 16.1761 4.82832C16.1761 4.90097 16.2391 4.88644 16.2318 4.99785C16.2367 5.06081 16.2149 5.04628 16.2076 5.10683H16.319Z" fill="url(#paint7_linear_14_532)" stroke="black" stroke-width="0.0348736"/>
<path d="M16.8494 4.62009C16.8494 4.63679 16.8428 4.65281 16.831 4.66462C16.8192 4.67643 16.8032 4.68306 16.7865 4.68306C16.7698 4.68306 16.7538 4.67643 16.742 4.66462C16.7301 4.65281 16.7235 4.63679 16.7235 4.62009C16.7235 4.6034 16.7301 4.58738 16.742 4.57557C16.7538 4.56376 16.7698 4.55713 16.7865 4.55713C16.8032 4.55713 16.8192 4.56376 16.831 4.57557C16.8428 4.58738 16.8494 4.6034 16.8494 4.62009Z" fill="#FFC72C" stroke="black" stroke-width="0.0348736"/>
<path d="M16.4014 6.1119L16.7404 5.6106L17.0867 6.11433" stroke="#FFC72C" stroke-width="0.0736221"/>
<path d="M16.8105 5.92303C16.8105 5.94102 16.8034 5.95827 16.7907 5.97098C16.778 5.9837 16.7607 5.99084 16.7427 5.99084C16.7248 5.99084 16.7075 5.9837 16.6948 5.97098C16.6821 5.95827 16.6749 5.94102 16.6749 5.92303C16.6749 5.90505 16.6821 5.8878 16.6948 5.87509C16.7075 5.86237 16.7248 5.85522 16.7427 5.85522C16.7607 5.85522 16.778 5.86237 16.7907 5.87509C16.8034 5.8878 16.8105 5.90505 16.8105 5.92303Z" fill="#FFC72C" stroke="black" stroke-width="0.0348736"/>
<path d="M16.4643 6.48236H16.9947C16.9947 6.48236 17.0019 6.41455 16.939 6.37338C17.2175 6.33464 17.1448 6.09246 17.3749 6.07793C17.4233 6.08519 17.2538 6.18206 17.2538 6.18206C17.2538 6.18206 17.1158 6.27893 17.1811 6.32979C17.2296 6.37096 17.2538 6.30557 17.2586 6.25714C17.2659 6.2087 17.4839 6.17722 17.4524 6.03918C17.4015 5.92535 17.0964 6.11668 17.0964 6.11668L16.8784 6.11425C16.8639 6.09004 16.8058 5.99316 16.7428 5.99316C16.6701 5.99316 16.6169 6.11425 16.6169 6.11425H16.1252C16.1252 6.11425 16.1083 6.24261 16.3577 6.26683C16.4134 6.33948 16.457 6.35885 16.5079 6.37823C16.474 6.40487 16.4643 6.43877 16.4643 6.48236ZM16.503 6.37581H16.9438Z" fill="#FFC72C"/>
<path d="M16.503 6.37581H16.9438M16.4643 6.48236H16.9947C16.9947 6.48236 17.0019 6.41455 16.939 6.37338C17.2175 6.33464 17.1448 6.09246 17.3749 6.07793C17.4233 6.08519 17.2538 6.18206 17.2538 6.18206C17.2538 6.18206 17.1158 6.27893 17.1811 6.32979C17.2296 6.37096 17.2538 6.30557 17.2586 6.25714C17.2659 6.2087 17.4839 6.17722 17.4524 6.03918C17.4015 5.92535 17.0964 6.11668 17.0964 6.11668L16.8784 6.11425C16.8639 6.09004 16.8058 5.99316 16.7428 5.99316C16.6701 5.99316 16.6169 6.11425 16.6169 6.11425H16.1252C16.1252 6.11425 16.1083 6.24261 16.3577 6.26683C16.4134 6.33948 16.457 6.35885 16.5079 6.37823C16.474 6.40487 16.4643 6.43877 16.4643 6.48236Z" stroke="black" stroke-width="0.0348736"/>
<path d="M16.302 6.1167C16.302 6.1167 16.3359 6.32255 16.5006 6.37099Z" fill="#FFC72C"/>
<path d="M16.302 6.1167C16.302 6.1167 16.3359 6.32255 16.5006 6.37099" stroke="black" stroke-width="0.0348736"/>
<path d="M16.2755 6.11183C16.29 6.03433 16.3215 6.0198 16.3529 5.91809C16.3578 5.82122 16.2755 5.83333 16.2997 5.77278C16.3433 5.70255 16.3215 5.63716 16.2391 5.5863C16.2561 5.67591 16.1326 5.76067 16.1326 5.83333C16.1326 5.90598 16.1955 5.89145 16.1883 6.00285C16.1931 6.06582 16.1713 6.05129 16.1641 6.11183H16.2755Z" fill="url(#paint8_linear_14_532)" stroke="black" stroke-width="0.0348736"/>
<path d="M16.8057 5.6251C16.8057 5.6418 16.7991 5.65782 16.7873 5.66962C16.7755 5.68143 16.7595 5.68807 16.7428 5.68807C16.7261 5.68807 16.7101 5.68143 16.6983 5.66962C16.6864 5.65782 16.6798 5.6418 16.6798 5.6251C16.6798 5.6084 16.6864 5.59238 16.6983 5.58058C16.7101 5.56877 16.7261 5.56213 16.7428 5.56213C16.7595 5.56213 16.7755 5.56877 16.7873 5.58058C16.7991 5.59238 16.8057 5.6084 16.8057 5.6251Z" fill="#FFC72C" stroke="black" stroke-width="0.0348736"/>
<path d="M16.4523 7.09762L16.7913 6.59631L17.1376 7.10004" stroke="#FFC72C" stroke-width="0.0736221"/>
<path d="M16.8615 6.90875C16.8615 6.92674 16.8543 6.94398 16.8416 6.9567C16.8289 6.96942 16.8116 6.97656 16.7936 6.97656C16.7757 6.97656 16.7584 6.96942 16.7457 6.9567C16.733 6.94398 16.7258 6.92674 16.7258 6.90875C16.7258 6.89077 16.733 6.87352 16.7457 6.8608C16.7584 6.84809 16.7757 6.84094 16.7936 6.84094C16.8116 6.84094 16.8289 6.84809 16.8416 6.8608C16.8543 6.87352 16.8615 6.89077 16.8615 6.90875Z" fill="#FFC72C" stroke="black" stroke-width="0.0348736"/>
<path d="M16.5152 7.46808H17.0456C17.0456 7.46808 17.0528 7.40027 16.9899 7.3591C17.2684 7.32035 17.1957 7.07817 17.4258 7.06364C17.4742 7.07091 17.3047 7.16778 17.3047 7.16778C17.3047 7.16778 17.1667 7.26465 17.232 7.31551C17.2805 7.35668 17.3047 7.29129 17.3095 7.24286C17.3168 7.19442 17.5348 7.16294 17.5033 7.0249C17.4524 6.91107 17.1473 7.10239 17.1473 7.10239L16.9293 7.09997C16.9148 7.07575 16.8567 6.97888 16.7937 6.97888C16.721 6.97888 16.6678 7.09997 16.6678 7.09997H16.1761C16.1761 7.09997 16.1592 7.22833 16.4086 7.25254C16.4643 7.3252 16.5079 7.34457 16.5588 7.36395C16.5249 7.39058 16.5152 7.42449 16.5152 7.46808ZM16.5539 7.36152H16.9947Z" fill="#FFC72C"/>
<path d="M16.5539 7.36152H16.9947M16.5152 7.46808H17.0456C17.0456 7.46808 17.0528 7.40027 16.9899 7.3591C17.2684 7.32035 17.1957 7.07817 17.4258 7.06364C17.4742 7.07091 17.3047 7.16778 17.3047 7.16778C17.3047 7.16778 17.1667 7.26465 17.232 7.31551C17.2805 7.35668 17.3047 7.29129 17.3095 7.24286C17.3168 7.19442 17.5348 7.16294 17.5033 7.0249C17.4524 6.91107 17.1473 7.10239 17.1473 7.10239L16.9293 7.09997C16.9148 7.07575 16.8567 6.97888 16.7937 6.97888C16.721 6.97888 16.6678 7.09997 16.6678 7.09997H16.1761C16.1761 7.09997 16.1592 7.22833 16.4086 7.25254C16.4643 7.3252 16.5079 7.34457 16.5588 7.36395C16.5249 7.39058 16.5152 7.42449 16.5152 7.46808Z" stroke="black" stroke-width="0.0348736"/>
<path d="M16.3529 7.10242C16.3529 7.10242 16.3868 7.30827 16.5515 7.3567Z" fill="#FFC72C"/>
<path d="M16.3529 7.10242C16.3529 7.10242 16.3868 7.30827 16.5515 7.3567" stroke="black" stroke-width="0.0348736"/>
<path d="M16.3264 7.09755C16.3409 7.02005 16.3724 7.00552 16.4039 6.90381C16.4087 6.80693 16.3264 6.81904 16.3506 6.7585C16.3942 6.68827 16.3724 6.62288 16.29 6.57202C16.307 6.66163 16.1835 6.74639 16.1835 6.81904C16.1835 6.8917 16.2464 6.87717 16.2392 6.98857C16.244 7.05153 16.2222 7.037 16.215 7.09755H16.3264Z" fill="url(#paint9_linear_14_532)" stroke="black" stroke-width="0.0348736"/>
<path d="M16.8566 6.61082C16.8566 6.62752 16.85 6.64353 16.8382 6.65534C16.8264 6.66715 16.8104 6.67378 16.7937 6.67378C16.777 6.67378 16.761 6.66715 16.7492 6.65534C16.7373 6.64353 16.7307 6.62752 16.7307 6.61082C16.7307 6.59412 16.7373 6.5781 16.7492 6.56629C16.761 6.55449 16.777 6.54785 16.7937 6.54785C16.8104 6.54785 16.8264 6.55449 16.8382 6.56629C16.85 6.5781 16.8566 6.59412 16.8566 6.61082Z" fill="#FFC72C" stroke="black" stroke-width="0.0348736"/>
<path d="M16.4402 8.08566L16.7792 7.58435L17.1255 8.08808" stroke="#FFC72C" stroke-width="0.0736221"/>
<path d="M16.8494 7.89679C16.8494 7.91477 16.8422 7.93202 16.8295 7.94474C16.8168 7.95746 16.7995 7.9646 16.7816 7.9646C16.7636 7.9646 16.7463 7.95746 16.7336 7.94474C16.7209 7.93202 16.7137 7.91477 16.7137 7.89679C16.7137 7.87881 16.7209 7.86156 16.7336 7.84884C16.7463 7.83612 16.7636 7.82898 16.7816 7.82898C16.7995 7.82898 16.8168 7.83612 16.8295 7.84884C16.8422 7.86156 16.8494 7.87881 16.8494 7.89679Z" fill="#FFC72C" stroke="black" stroke-width="0.0348736"/>
<path d="M16.5031 8.45612H17.0335C17.0335 8.45612 17.0407 8.38831 16.9778 8.34714C17.2563 8.30839 17.1836 8.06621 17.4137 8.05168C17.4621 8.05895 17.2926 8.15582 17.2926 8.15582C17.2926 8.15582 17.1546 8.25269 17.22 8.30355C17.2684 8.34472 17.2926 8.27933 17.2975 8.23089C17.3047 8.18246 17.5227 8.15097 17.4912 8.01293C17.4403 7.89911 17.1352 8.09043 17.1352 8.09043L16.9172 8.08801C16.9027 8.06379 16.8446 7.96692 16.7816 7.96692C16.709 7.96692 16.6557 8.08801 16.6557 8.08801H16.1641C16.1641 8.08801 16.1471 8.21636 16.3966 8.24058C16.4523 8.31323 16.4958 8.33261 16.5467 8.35198C16.5128 8.37862 16.5031 8.41253 16.5031 8.45612ZM16.5419 8.34956H16.9826Z" fill="#FFC72C"/>
<path d="M16.5419 8.34956H16.9826M16.5031 8.45612H17.0335C17.0335 8.45612 17.0407 8.38831 16.9778 8.34714C17.2563 8.30839 17.1836 8.06621 17.4137 8.05168C17.4621 8.05895 17.2926 8.15582 17.2926 8.15582C17.2926 8.15582 17.1546 8.25269 17.22 8.30355C17.2684 8.34472 17.2926 8.27933 17.2975 8.23089C17.3047 8.18246 17.5227 8.15097 17.4912 8.01293C17.4403 7.89911 17.1352 8.09043 17.1352 8.09043L16.9172 8.08801C16.9027 8.06379 16.8446 7.96692 16.7816 7.96692C16.709 7.96692 16.6557 8.08801 16.6557 8.08801H16.1641C16.1641 8.08801 16.1471 8.21636 16.3966 8.24058C16.4523 8.31323 16.4958 8.33261 16.5467 8.35198C16.5128 8.37862 16.5031 8.41253 16.5031 8.45612Z" stroke="black" stroke-width="0.0348736"/>
<path d="M16.3408 8.09045C16.3408 8.09045 16.3747 8.29631 16.5394 8.34474Z" fill="#FFC72C"/>
<path d="M16.3408 8.09045C16.3408 8.09045 16.3747 8.29631 16.5394 8.34474" stroke="black" stroke-width="0.0348736"/>
<path d="M16.3143 8.08559C16.3288 8.00809 16.3603 7.99356 16.3918 7.89184C16.3966 7.79497 16.3143 7.80708 16.3385 7.74654C16.3821 7.6763 16.3603 7.61092 16.2779 7.56006C16.2949 7.64966 16.1714 7.73443 16.1714 7.80708C16.1714 7.87973 16.2344 7.8652 16.2271 7.9766C16.2319 8.03957 16.2101 8.02504 16.2029 8.08559H16.3143Z" fill="url(#paint10_linear_14_532)" stroke="black" stroke-width="0.0348736"/>
<path d="M16.8446 7.59885C16.8446 7.61555 16.8379 7.63157 16.8261 7.64338C16.8143 7.65519 16.7983 7.66182 16.7816 7.66182C16.7649 7.66182 16.7489 7.65519 16.7371 7.64338C16.7253 7.63157 16.7186 7.61555 16.7186 7.59885C16.7186 7.58216 16.7253 7.56614 16.7371 7.55433C16.7489 7.54252 16.7649 7.53589 16.7816 7.53589C16.7983 7.53589 16.8143 7.54252 16.8261 7.55433C16.8379 7.56614 16.8446 7.58216 16.8446 7.59885Z" fill="#FFC72C" stroke="black" stroke-width="0.0348736"/>
<path d="M16.4451 9.07858L16.7841 8.57727L17.1304 9.081" stroke="#FFC72C" stroke-width="0.0736221"/>
<path d="M16.8542 8.88971C16.8542 8.90769 16.8471 8.92494 16.8344 8.93766C16.8217 8.95038 16.8044 8.95752 16.7864 8.95752C16.7685 8.95752 16.7512 8.95038 16.7385 8.93766C16.7258 8.92494 16.7186 8.90769 16.7186 8.88971C16.7186 8.87173 16.7258 8.85448 16.7385 8.84176C16.7512 8.82904 16.7685 8.8219 16.7864 8.8219C16.8044 8.8219 16.8217 8.82904 16.8344 8.84176C16.8471 8.85448 16.8542 8.87173 16.8542 8.88971Z" fill="#FFC72C" stroke="black" stroke-width="0.0348736"/>
<path d="M16.508 9.44904H17.0384C17.0384 9.44904 17.0456 9.38123 16.9827 9.34006C17.2612 9.30131 17.1885 9.05913 17.4186 9.0446C17.467 9.05187 17.2975 9.14874 17.2975 9.14874C17.2975 9.14874 17.1595 9.24561 17.2248 9.29647C17.2733 9.33764 17.2975 9.27225 17.3023 9.22381C17.3096 9.17538 17.5276 9.14389 17.4961 9.00585C17.4452 8.89203 17.1401 9.08335 17.1401 9.08335L16.9221 9.08093C16.9076 9.05671 16.8495 8.95984 16.7865 8.95984C16.7138 8.95984 16.6606 9.08093 16.6606 9.08093H16.1689C16.1689 9.08093 16.152 9.20928 16.4014 9.2335C16.4571 9.30615 16.5007 9.32553 16.5516 9.3449C16.5177 9.37154 16.508 9.40545 16.508 9.44904ZM16.5467 9.34248H16.9875Z" fill="#FFC72C"/>
<path d="M16.5467 9.34248H16.9875M16.508 9.44904H17.0384C17.0384 9.44904 17.0456 9.38123 16.9827 9.34006C17.2612 9.30131 17.1885 9.05913 17.4186 9.0446C17.467 9.05187 17.2975 9.14874 17.2975 9.14874C17.2975 9.14874 17.1595 9.24561 17.2248 9.29647C17.2733 9.33764 17.2975 9.27225 17.3023 9.22381C17.3096 9.17538 17.5276 9.14389 17.4961 9.00585C17.4452 8.89203 17.1401 9.08335 17.1401 9.08335L16.9221 9.08093C16.9076 9.05671 16.8495 8.95984 16.7865 8.95984C16.7138 8.95984 16.6606 9.08093 16.6606 9.08093H16.1689C16.1689 9.08093 16.152 9.20928 16.4014 9.2335C16.4571 9.30615 16.5007 9.32553 16.5516 9.3449C16.5177 9.37154 16.508 9.40545 16.508 9.44904Z" stroke="black" stroke-width="0.0348736"/>
<path d="M16.3457 9.08337C16.3457 9.08337 16.3796 9.28923 16.5443 9.33766Z" fill="#FFC72C"/>
<path d="M16.3457 9.08337C16.3457 9.08337 16.3796 9.28923 16.5443 9.33766" stroke="black" stroke-width="0.0348736"/>
<path d="M16.319 9.0785C16.3336 9.00101 16.365 8.98648 16.3965 8.88476C16.4014 8.78789 16.319 8.8 16.3432 8.73946C16.3868 8.66922 16.365 8.60384 16.2827 8.55298C16.2997 8.64258 16.1761 8.72735 16.1761 8.8C16.1761 8.87265 16.2391 8.85812 16.2318 8.96952C16.2367 9.03249 16.2149 9.01796 16.2076 9.0785H16.319Z" fill="url(#paint11_linear_14_532)" stroke="black" stroke-width="0.0348736"/>
<path d="M16.8494 8.59177C16.8494 8.60847 16.8428 8.62449 16.831 8.6363C16.8192 8.64811 16.8032 8.65474 16.7865 8.65474C16.7698 8.65474 16.7538 8.64811 16.742 8.6363C16.7301 8.62449 16.7235 8.60847 16.7235 8.59177C16.7235 8.57507 16.7301 8.55906 16.742 8.54725C16.7538 8.53544 16.7698 8.52881 16.7865 8.52881C16.8032 8.52881 16.8192 8.53544 16.831 8.54725C16.8428 8.55906 16.8494 8.57507 16.8494 8.59177Z" fill="#FFC72C" stroke="black" stroke-width="0.0348736"/>
<path d="M15.3817 9.546C15.3817 9.546 15.5198 9.86568 15.6772 9.66709C15.8346 9.47335 15.7789 9.38859 15.7789 9.38859L15.4253 9.19727L15.3212 9.41523L15.3817 9.546Z" fill="#FFC72C" stroke="black" stroke-width="0.0348736"/>
<path d="M15.6869 9.50478C15.6869 9.50478 15.7111 9.5072 15.7281 9.4733C15.7475 9.43939 15.6869 9.42486 15.6578 9.38612L15.6288 9.44666L15.6869 9.50478ZM14.8877 9.4176L14.5777 9.58712C14.5777 9.58712 14.4227 9.61861 14.4131 9.58712C14.4009 9.55806 14.4155 9.53142 14.4978 9.52658C14.5777 9.52416 14.7957 9.32315 14.7957 9.32315L14.8877 9.42002V9.4176ZM14.8926 3.89836L14.9023 4.00976C14.9071 4.04851 14.8417 4.13085 14.8393 4.12601C14.8344 4.12116 14.803 4.13085 14.8078 4.15265C14.8102 4.17686 14.8562 4.18413 14.8562 4.18413C14.8562 4.18413 14.8393 4.26405 14.8562 4.26889C14.8756 4.27131 14.8078 4.37061 14.8562 4.39725C14.9071 4.42389 14.9919 4.46021 15.0306 4.45295C15.0694 4.44326 15.0306 4.60068 15.0306 4.60068L14.9216 4.83074L15.5125 4.7702L15.3915 4.57646C15.3915 4.57646 15.3333 4.53529 15.3479 4.42389C15.3648 4.31491 15.3406 3.81117 15.3406 3.81117L14.9192 3.75305L14.8926 3.89836ZM14.7836 4.77504C14.7836 4.77504 14.5923 4.86223 14.5995 5.09956C14.5511 5.32963 14.5245 5.5597 14.5245 5.5597C14.5245 5.5597 14.2968 5.81641 14.229 5.91086C14.1588 6.00289 14.0546 6.18936 14.0183 6.24022C13.9796 6.28866 13.8294 6.45334 13.8318 6.5163C13.8367 6.57685 13.7979 6.85051 13.9481 6.87957C13.9868 6.89652 14.1103 6.56474 14.1103 6.56474C14.1103 6.56474 14.1176 6.42428 14.074 6.39522C14.0328 6.371 14.166 6.27897 14.166 6.27897L14.4809 6.04406C14.539 5.99562 14.6964 5.82125 14.6964 5.82125L14.7836 4.77504Z" fill="#FFC6B5" stroke="black" stroke-width="0.0348736"/>
<path d="M15.004 4.59342C15.004 4.59342 15.0524 4.72904 15.1638 4.70482C15.2752 4.6806 15.406 4.57889 15.406 4.57889C15.406 4.57889 15.5101 4.57404 15.5246 4.591C15.5392 4.60553 15.8056 4.86224 15.7959 4.94215C15.7886 5.0245 15.6748 5.00028 15.6312 5.05356C15.59 5.10684 15.5198 5.24246 15.5392 5.34417C15.5585 5.44104 15.6167 5.57182 15.6094 5.62268C15.6021 5.67111 15.561 5.68806 15.561 5.7147C15.561 5.73892 15.5949 5.78736 15.5949 5.83579C15.5949 5.88665 15.5464 5.9593 15.5561 6.01016C15.5634 6.0586 15.5658 6.2039 15.5658 6.2039L15.5561 6.882C15.5561 6.882 15.5949 6.9038 15.5973 6.94255C15.6021 6.97887 15.8588 8.09531 15.8588 8.09531C15.8588 8.09531 15.8467 8.13164 15.8201 8.1268C15.7935 8.12195 15.9242 8.29874 15.9266 8.3496C15.9315 8.39804 16.0623 8.79036 16.0574 8.84364C16.055 8.89692 16.0332 9.01801 16.0235 9.02043C16.0114 9.02528 16.1083 9.26746 16.0913 9.30378C16.0768 9.34253 15.9218 9.34011 15.9218 9.34011L15.8782 9.33042C15.8782 9.33042 15.8806 9.38128 15.8516 9.38612C15.8201 9.38855 15.5949 9.37401 15.5949 9.37401C15.5949 9.37401 15.5295 9.47331 15.4907 9.47089C15.452 9.46604 15.4011 9.39823 15.3914 9.40792C15.3793 9.42003 15.4253 9.48542 15.4157 9.50479C15.4011 9.52416 15.2074 9.56533 15.1686 9.47331C15.1299 9.38128 15.1928 9.4055 15.1783 9.38612C15.1686 9.36675 15.0814 9.31589 15.0524 9.33042C15.0282 9.34737 15.1226 9.36917 15.1178 9.40792C15.1154 9.44667 15.033 9.50479 15.004 9.50479C14.9725 9.50479 14.8998 9.36191 14.7908 9.37644C14.6843 9.39339 14.6165 9.42003 14.6165 9.42003C14.6165 9.42003 14.4881 9.47331 14.4348 9.4612C14.3816 9.45151 14.3573 9.40792 14.3573 9.38612C14.3573 9.36191 14.3961 9.26261 14.3937 9.23113C14.3888 9.20207 14.3573 9.17058 14.3573 9.12457C14.3573 9.07614 14.4469 8.92114 14.4469 8.92114L14.4421 8.21398C14.4421 8.21398 14.3622 8.21398 14.3573 8.16555C14.3549 8.11711 14.4808 7.0491 14.5026 6.97887L14.5705 6.66404C14.5705 6.66404 14.5123 6.6931 14.5075 6.66404C14.5051 6.63982 14.6819 6.02953 14.6819 6.02953C14.6819 6.02953 14.7109 5.72439 14.7109 5.64447C14.7109 5.56455 14.6964 5.45315 14.6964 5.45315C14.6964 5.45315 14.539 5.38534 14.5341 5.28363C14.5196 5.12137 14.6843 5.03176 14.7036 4.97848L14.7811 4.76052C14.7811 4.76052 14.8659 4.61521 15.004 4.59342Z" fill="white" stroke="black" stroke-width="0.0348736"/>
<path d="M14.9458 9.46606C14.9458 9.46606 14.5729 9.6598 14.5196 9.67676C14.4663 9.69129 14.4324 9.61137 14.4857 9.59684C14.539 9.57989 14.6237 9.57262 14.6237 9.57262C14.6237 9.57262 14.4978 9.47333 14.5026 9.46848L14.677 9.40552C14.6818 9.40552 14.7303 9.50239 14.7642 9.49754C14.8123 9.4742 14.8577 9.44578 14.8998 9.41278L14.9458 9.46606Z" fill="#FFC72C" stroke="black" stroke-width="0.0348736"/>
<path d="M15.469 9.57269C15.5053 9.6187 15.5174 9.6962 15.5998 9.65019C15.6797 9.60417 15.5586 9.51941 15.5586 9.51941L15.469 9.57269Z" fill="#FFC6B5" stroke="black" stroke-width="0.0348736"/>
<path d="M15.6167 9.56535C15.6167 9.56535 15.6555 9.59684 15.6894 9.56051C15.7233 9.52661 15.6216 9.45395 15.6216 9.45395L15.5707 9.51207L15.6167 9.56535ZM15.7814 4.96155C15.7863 4.96155 15.9073 5.33935 15.9243 5.43622C15.9388 5.53309 15.9897 5.91573 15.9703 5.96901C15.9509 6.02229 15.7548 6.279 15.733 6.34439C15.7088 6.40977 15.5707 6.65922 15.5707 6.65922C15.5707 6.65922 15.5368 6.90624 15.5223 6.91593C15.5053 6.92803 15.561 6.98858 15.5562 7.00795C15.5489 7.03217 15.4448 7.13873 15.3988 7.12904C15.3503 7.11693 15.2777 7.06365 15.2777 7.0128C15.2704 6.96436 15.2777 6.79726 15.314 6.75609C15.3479 6.7125 15.5295 6.28868 15.5392 6.26204C15.5513 6.23298 15.7039 5.89878 15.7088 5.84308C15.7136 5.78495 15.6603 5.65176 15.607 5.60332C15.486 5.24732 15.5344 5.0342 15.7814 4.96155Z" fill="#FFC6B5" stroke="black" stroke-width="0.0348736"/>
<path d="M14.878 3.87661C14.878 3.87661 14.9652 3.88872 15.0112 3.86208C15.0572 3.83544 15.1105 3.82333 15.1493 3.87661C15.188 3.92989 15.2146 3.92504 15.2146 3.92504C15.2146 3.92504 15.1565 4.07035 15.2146 4.08488C15.2703 4.09941 15.2994 4.09941 15.3018 4.11878C15.3067 4.13816 15.2534 4.17933 15.2679 4.1987C15.2825 4.21808 15.3091 4.23987 15.3139 4.25683C15.3164 4.27136 15.28 4.33675 15.2897 4.3537C15.3018 4.36823 15.3382 4.42877 15.36 4.42877C15.3842 4.42877 15.3672 4.52564 15.4374 4.50143C15.5053 4.47721 15.5028 4.41666 15.5028 4.41666C15.5028 4.41666 15.5755 4.40698 15.5949 4.34159C15.6118 4.2762 15.6578 4.25925 15.6578 4.25925C15.6578 4.25925 15.7499 4.21081 15.6288 4.13332C15.6288 3.59568 15.2752 3.6538 15.2752 3.6538C15.2752 3.6538 15.234 3.55693 15.1638 3.56904C15.096 3.58115 15.0911 3.66107 15.0427 3.6538C14.9918 3.64654 14.9797 3.61263 14.9773 3.61505C14.9725 3.6199 14.9289 3.6974 14.9289 3.71435C14.9289 3.73372 14.7957 3.69013 14.8078 3.787C14.8199 3.88872 14.8853 3.88387 14.8804 3.87661H14.878Z" fill="#9C5100" stroke="black" stroke-width="0.0348736"/>
<path d="M15.5028 4.74362C15.5028 4.74362 15.1613 4.96158 15.1686 5.03907M15.5803 4.78237C15.5803 4.78237 15.5028 4.86713 15.498 4.86713M15.682 4.87439C15.682 4.87439 15.5125 5.01244 15.5391 5.09962M14.8853 4.72424C14.8853 4.72424 14.8344 4.82838 14.8465 4.86228C14.8562 4.89619 14.9434 5.02697 14.9531 5.10688C14.9652 5.18923 14.9531 5.24493 14.9531 5.24493M14.7957 4.91556C14.7957 4.91556 14.8102 5.03665 14.8344 5.06087C14.8586 5.08509 14.9192 5.18923 14.9264 5.2304M14.7642 5.42656C14.7642 5.42656 14.8659 5.475 14.9579 5.28367M15.1056 5.15048C15.1032 5.15048 15.033 5.33695 15.1565 5.40719C15.2776 5.47742 15.372 5.46773 15.4229 5.44836C15.4786 5.4314 15.5367 5.39508 15.5367 5.39508M15.0524 5.38055C15.0524 5.38055 15.0596 5.63241 15.4326 5.88185M15.0693 5.61788C15.0693 5.61788 15.0645 5.84068 15.2098 5.93998M14.9918 5.35633C14.9918 5.35633 14.8804 5.68811 14.7908 5.7196M14.9579 5.59851C14.9579 5.59851 14.9531 5.83584 14.9216 5.9206M14.8925 5.97873C14.8925 5.97873 14.9676 6.0756 15.0524 6.06591C15.1371 6.05864 15.1735 5.95935 15.2292 5.97388C15.2873 5.99083 15.3406 6.03685 15.4738 6.02474M15.2824 6.12403C15.2824 6.12403 15.2824 6.3202 15.3188 6.33957C15.3527 6.35895 15.3357 6.53816 15.3357 6.53816M14.815 6.03201C14.815 6.03201 14.8102 6.21606 14.7884 6.28145C14.7642 6.34684 14.7182 6.45824 14.7278 6.55511M14.5801 6.66167C14.5995 6.6544 14.6649 6.59628 14.6649 6.59628M14.6988 6.63745C14.6988 6.63745 14.5341 7.34461 14.5801 7.766M14.7375 6.67378C14.7375 6.67378 14.6528 7.20173 14.6915 7.30344M14.6964 6.65682L15.0185 6.68104M15.0645 6.63745C15.0645 6.63745 15.1517 6.68589 15.2752 6.6762M15.0257 6.89658C15.0257 6.89658 15.0112 7.79991 14.987 8.00091M15.498 7.10243C15.498 7.10243 15.5973 7.89678 15.6554 7.96943M15.3067 7.20173C15.3067 7.20173 15.3672 7.90404 15.4035 7.96701M14.4348 8.21161C14.4348 8.21161 14.5559 8.17286 14.6625 8.05904C14.7836 8.22372 14.9725 8.0663 14.9725 8.0663C14.9725 8.0663 15.2631 8.26489 15.3938 8.04208C15.5948 8.17286 15.6941 8.02271 15.6941 8.02271C15.6941 8.02271 15.7668 8.13411 15.8201 8.122M15.5028 8.1995C15.5028 8.1995 15.6505 8.90182 15.8734 9.1004" stroke="black" stroke-width="0.0348736"/>
<path d="M14.7327 8.12685C14.7327 8.12685 14.7497 8.71292 14.7836 9.12705M14.7037 8.79042C14.7037 8.79042 14.6843 9.17306 14.6625 9.20212M14.4784 9.23845C14.4784 9.23845 14.5196 9.40555 14.7303 9.25056C14.941 9.09799 14.9458 9.30868 14.9531 9.33048C14.9604 9.3547 14.9943 9.51938 15.0742 9.38133M15.2437 9.15611C15.2437 9.15611 15.2098 9.49516 15.5125 9.24814C15.8153 8.99869 15.8661 9.24329 15.8758 9.32079M15.2486 3.74585C15.2486 3.74585 15.2219 3.91537 15.4011 3.89842C15.3769 3.99287 15.4496 4.02193 15.4496 4.02193M15.5804 4.12607C15.5852 4.12607 15.6627 4.1745 15.5804 4.23747M15.3212 4.25927C15.3212 4.25927 15.36 4.3077 15.4011 4.29559C15.4447 4.28349 15.5125 4.33676 15.5125 4.33676C15.5125 4.33676 15.5707 4.35614 15.5779 4.34403M15.0863 4.40457C15.0863 4.40457 15.2171 4.45543 15.3043 4.24958M14.8466 4.18661L14.9216 4.19146M13.9941 6.6084L14.0014 6.7755M13.8367 6.59386C13.8367 6.59386 13.9457 6.7755 13.9335 6.86995" stroke="black" stroke-width="0.0348736"/>
<path d="M14.8562 4.26416H14.9264L14.8659 4.2908M15.2824 6.97171C15.2824 6.97171 15.3624 6.96202 15.3599 7.09764C15.4108 6.92812 15.5149 6.9257 15.5149 6.9257" stroke="black" stroke-width="0.0348736" stroke-linejoin="round"/>
<path d="M14.9531 4.04862C14.9652 4.04862 15.0064 4.03409 15.0137 4.0462C15.0234 4.05589 14.9677 4.06557 14.9531 4.04862Z" stroke="black" stroke-width="0.0658724" stroke-linejoin="round"/>
<path d="M15.0064 10.8126C16.0173 10.7647 16.9696 10.3242 17.6606 9.58473C17.651 9.57504 17.8762 9.26021 18.0554 9.30381C18.2346 9.34982 18.4937 9.87777 18.8086 9.99159C18.966 10.2386 18.765 10.4638 18.6972 10.5074C18.6294 10.5534 18.3242 10.677 18.2806 10.4977C18.2346 10.3161 18.145 10.3524 18.145 10.3524C18.145 10.3524 16.704 11.7571 15.0403 11.7014C13.3208 11.7111 11.9016 10.35 11.9016 10.35L11.7781 10.4856C11.7781 10.4856 11.6425 10.6309 11.5747 10.6213C11.5069 10.6091 11.2139 10.4178 11.1921 10.2265C11.1678 10.0352 11.3713 9.91167 11.3713 9.91167C11.3713 9.91167 11.8677 9.52903 11.9234 9.32802C12.0373 9.2142 12.2504 9.40552 12.2504 9.40552C12.2504 9.40552 13.5557 10.9022 15.0064 10.8102V10.8126Z" fill="#FFC72C" stroke="black" stroke-width="0.0736221"/>
<path d="M11.3398 9.94076C11.3398 9.94076 11.473 9.90686 11.5215 9.96256C11.5699 10.0183 11.909 10.35 11.909 10.35" stroke="black" stroke-width="0.0736221"/>
<path d="M11.6449 10.0981L11.5093 10.1974C11.5093 10.1974 11.8483 10.2652 11.7708 10.488M18.6874 9.93099C18.6874 9.93099 18.622 9.89466 18.5179 9.97216C18.4114 10.0521 18.1474 10.3475 18.1474 10.3475" stroke="black" stroke-width="0.0736221"/>
<path d="M18.3872 10.0885L18.5325 10.1999C18.5325 10.1999 18.2298 10.2217 18.2951 10.5075" stroke="black" stroke-width="0.0736221"/>
<path d="M13.0545 10.2991C13.0448 10.3234 13.0206 10.2991 13.0012 10.304C12.9527 10.304 12.9092 10.3379 12.8656 10.3621L12.42 10.6212C12.4054 10.6164 12.4078 10.6043 12.4127 10.5922L12.5338 10.0352C12.5386 10.0037 12.5483 9.96251 12.5168 9.93829C12.5047 9.9286 12.5241 9.91165 12.5338 9.9286L12.7614 10.0909C12.7542 10.1127 12.7396 10.0957 12.7275 10.0884C12.696 10.057 12.6573 10.086 12.6597 10.1248L12.5774 10.4905C12.6791 10.4323 12.7808 10.3742 12.8825 10.3112C12.9164 10.2967 12.9431 10.2483 12.9067 10.2192C12.8922 10.2095 12.868 10.1877 12.8922 10.1829L13.0545 10.2991ZM13.2143 11.0741C13.2095 11.0886 13.2022 11.0911 13.1901 11.0814L12.9237 10.9361C12.9261 10.9191 12.9334 10.9167 12.9455 10.9264C12.9697 10.9433 13.0084 10.9506 13.0278 10.9215L13.1247 10.7447L13.2603 10.4977C13.2797 10.4662 13.2579 10.4299 13.2288 10.4178C13.2191 10.413 13.2046 10.4081 13.2167 10.3984C13.2216 10.3912 13.2361 10.4057 13.2434 10.4081L13.5001 10.5486C13.4976 10.5631 13.4904 10.5655 13.4783 10.5558C13.4541 10.5389 13.4153 10.5316 13.3959 10.5607L13.2991 10.7375L13.1634 10.9845C13.1441 11.0136 13.1659 11.0523 13.1949 11.0644L13.2143 11.0741ZM14.246 10.8319L14.1733 11.0354C14.1418 11.0329 14.1636 10.9942 14.1539 10.9748C14.1491 10.9284 14.1304 10.8846 14.1001 10.8491C14.0698 10.8137 14.0295 10.7883 13.9844 10.7762C13.9118 10.7569 13.8391 10.7932 13.7955 10.8513C13.7323 10.9375 13.6953 11.0401 13.689 11.1468C13.6867 11.1772 13.6928 11.2076 13.7064 11.2349C13.7201 11.2622 13.7408 11.2853 13.7665 11.3018C13.8092 11.3284 13.8591 11.3411 13.9093 11.3381L13.9602 11.1855C13.9675 11.1516 13.9311 11.1298 13.9045 11.1225C13.8997 11.1129 13.9093 11.0983 13.9215 11.1104L14.1879 11.2073C14.1879 11.2388 14.1491 11.2025 14.1273 11.217C14.0958 11.2291 14.0934 11.2678 14.0789 11.2969L14.0474 11.3889C13.9263 11.3962 13.8052 11.372 13.6987 11.3114C13.5994 11.2485 13.5291 11.125 13.5509 11.0039C13.5655 10.8997 13.6308 10.8029 13.7253 10.7569C13.8125 10.7084 13.919 10.7108 14.0111 10.7472C14.0595 10.7641 14.1031 10.7956 14.1418 10.8295C14.1661 10.861 14.2096 10.861 14.229 10.8271L14.246 10.8319ZM14.6795 11.5294C14.6795 11.5391 14.6795 11.5512 14.6649 11.5439L14.3598 11.4979C14.3598 11.4858 14.3598 11.4761 14.3743 11.4834C14.3985 11.4882 14.4373 11.4882 14.447 11.4592C14.4615 11.418 14.4639 11.3744 14.4712 11.3332L14.5245 10.9797C14.5317 10.9554 14.5245 10.9264 14.4978 10.9167C14.4809 10.9094 14.4664 10.9094 14.4494 10.9046C14.4494 10.8949 14.4494 10.8852 14.4639 10.8901L14.7691 10.9385C14.7691 10.9482 14.7691 10.9579 14.7545 10.953C14.7303 10.9458 14.694 10.9482 14.6819 10.9772C14.6674 11.016 14.6649 11.0596 14.6577 11.1007L14.6044 11.4543C14.5971 11.4785 14.6044 11.51 14.6335 11.5197L14.6819 11.5294H14.6795ZM15.5077 11.3308L15.4956 11.5464L14.9483 11.573C14.9459 11.5609 14.9483 11.5536 14.9628 11.556C14.9895 11.556 15.0258 11.5439 15.0306 11.5124L15.0234 11.3526L15.0064 11.0281C15.0088 10.9966 14.9822 10.9724 14.9507 10.9748C14.941 10.97 14.9144 10.9845 14.9168 10.9675C14.912 10.953 14.9338 10.9603 14.941 10.9579L15.2462 10.9409C15.2462 10.9554 15.2462 10.9627 15.2292 10.9603C15.2026 10.9603 15.1663 10.9651 15.1566 10.999C15.1541 11.045 15.159 11.0911 15.1614 11.1371L15.1784 11.4761C15.1784 11.5028 15.2026 11.5294 15.2316 11.5246C15.2752 11.5221 15.3212 11.5246 15.3648 11.5124C15.4254 11.4955 15.4569 11.435 15.4738 11.3793C15.4859 11.3647 15.4738 11.326 15.498 11.3308H15.5077ZM15.9315 10.8029C15.917 10.8029 15.9243 10.8222 15.9194 10.8319C15.8952 11.0136 15.8734 11.1952 15.8468 11.3744C15.8419 11.4156 15.8322 11.4616 15.7935 11.481C15.779 11.4882 15.7911 11.51 15.8056 11.4979L15.9872 11.4422C15.9848 11.4132 15.9485 11.4422 15.9291 11.435C15.8879 11.435 15.8807 11.3841 15.8879 11.3526C15.8879 11.3284 15.8928 11.309 15.8952 11.2872L16.1035 11.2243C16.1301 11.2582 16.1592 11.2896 16.1834 11.326C16.2028 11.3599 16.1592 11.3744 16.135 11.3817C16.1204 11.3817 16.1301 11.4059 16.1422 11.3962L16.4159 11.3139C16.4159 11.2824 16.3771 11.3139 16.3602 11.2896C16.3069 11.2533 16.2706 11.2 16.2294 11.1516L15.9315 10.8029ZM15.9315 11.0208L16.0768 11.1976L15.9001 11.2509L15.9315 11.0208ZM16.8663 10.396L16.9463 10.5413C16.922 10.5655 16.9075 10.5147 16.8857 10.5074C16.8676 10.4916 16.845 10.4819 16.8211 10.4797C16.7972 10.4776 16.7732 10.483 16.7525 10.4953L16.7041 10.5219L16.9414 10.9651C16.9535 11.0015 16.9995 11.0087 17.031 10.9893C17.0407 10.9797 17.0528 10.9748 17.0552 10.9918C17.0165 11.016 16.9705 11.0378 16.9293 11.0596L16.7719 11.1443C16.7598 11.1322 16.767 11.125 16.7816 11.1201C16.7901 11.117 16.7978 11.112 16.8041 11.1054C16.8103 11.0987 16.8149 11.0908 16.8175 11.082C16.8201 11.0733 16.8206 11.0641 16.819 11.0552C16.8174 11.0462 16.8137 11.0378 16.8082 11.0305L16.5733 10.5946C16.5297 10.6188 16.4764 10.6382 16.4643 10.6915C16.4522 10.7278 16.4692 10.769 16.4692 10.798C16.4571 10.8126 16.4522 10.7932 16.445 10.7835L16.3796 10.6576L16.8663 10.396ZM17.2369 10.1756L17.387 10.3766C17.4209 10.3524 17.45 10.3137 17.4403 10.2701C17.4451 10.2362 17.3967 10.1974 17.4137 10.1732C17.4234 10.1684 17.4306 10.1926 17.4379 10.1998L17.6122 10.4299C17.588 10.4541 17.5735 10.4033 17.5493 10.396C17.5154 10.3718 17.4694 10.3597 17.433 10.3863C17.4064 10.396 17.4088 10.4105 17.4258 10.4275C17.4645 10.4783 17.5033 10.5341 17.5469 10.5849C17.5711 10.6091 17.605 10.5849 17.6268 10.5655C17.6849 10.5268 17.7358 10.4638 17.7333 10.3912C17.7382 10.3573 17.7164 10.3234 17.7164 10.2943C17.7309 10.2773 17.7333 10.304 17.7406 10.3137L17.8229 10.459L17.3967 10.7811C17.3798 10.769 17.3967 10.7593 17.4088 10.752C17.4476 10.7278 17.4355 10.6769 17.4088 10.6503L17.1327 10.2894C17.1085 10.258 17.0649 10.2749 17.0431 10.2967C17.031 10.3112 17.0189 10.2846 17.0359 10.2822L17.4355 9.97946L17.5444 10.1248C17.5202 10.149 17.496 10.0933 17.4694 10.0909C17.4161 10.0618 17.3531 10.0836 17.3095 10.1199L17.2345 10.1756" fill="black"/>
</g>
<defs>
<linearGradient id="paint0_linear_14_532" x1="12.7349" y1="3.96151" x2="12.4594" y2="3.9209" gradientUnits="userSpaceOnUse">
<stop stop-color="#FF0000"/>
<stop offset="1" stop-color="#FFFF00"/>
</linearGradient>
<linearGradient id="paint1_linear_14_532" x1="12.7154" y1="4.96175" x2="12.44" y2="4.92115" gradientUnits="userSpaceOnUse">
<stop stop-color="#FF0000"/>
<stop offset="1" stop-color="#FFFF00"/>
</linearGradient>
<linearGradient id="paint2_linear_14_532" x1="12.7081" y1="5.94735" x2="12.4327" y2="5.90674" gradientUnits="userSpaceOnUse">
<stop stop-color="#FF0000"/>
<stop offset="1" stop-color="#FFFF00"/>
</linearGradient>
<linearGradient id="paint3_linear_14_532" x1="13.3547" y1="7.01546" x2="13.0793" y2="6.97486" gradientUnits="userSpaceOnUse">
<stop stop-color="#FF0000"/>
<stop offset="1" stop-color="#FFFF00"/>
</linearGradient>
<linearGradient id="paint4_linear_14_532" x1="12.6234" y1="7.88973" x2="12.3479" y2="7.84912" gradientUnits="userSpaceOnUse">
<stop stop-color="#FF0000"/>
<stop offset="1" stop-color="#FFFF00"/>
</linearGradient>
<linearGradient id="paint5_linear_14_532" x1="12.6429" y1="8.92135" x2="12.3675" y2="8.88074" gradientUnits="userSpaceOnUse">
<stop stop-color="#FF0000"/>
<stop offset="1" stop-color="#FFFF00"/>
</linearGradient>
<linearGradient id="paint6_linear_14_532" x1="16.2778" y1="3.97848" x2="16.0024" y2="3.93787" gradientUnits="userSpaceOnUse">
<stop stop-color="#FF0000"/>
<stop offset="1" stop-color="#FFFF00"/>
</linearGradient>
<linearGradient id="paint7_linear_14_532" x1="16.244" y1="4.95931" x2="15.9685" y2="4.9187" gradientUnits="userSpaceOnUse">
<stop stop-color="#FF0000"/>
<stop offset="1" stop-color="#FFFF00"/>
</linearGradient>
<linearGradient id="paint8_linear_14_532" x1="16.2004" y1="5.96432" x2="15.925" y2="5.92371" gradientUnits="userSpaceOnUse">
<stop stop-color="#FF0000"/>
<stop offset="1" stop-color="#FFFF00"/>
</linearGradient>
<linearGradient id="paint9_linear_14_532" x1="16.2513" y1="6.95003" x2="15.9759" y2="6.90943" gradientUnits="userSpaceOnUse">
<stop stop-color="#FF0000"/>
<stop offset="1" stop-color="#FFFF00"/>
</linearGradient>
<linearGradient id="paint10_linear_14_532" x1="16.2392" y1="7.93807" x2="15.9638" y2="7.89746" gradientUnits="userSpaceOnUse">
<stop stop-color="#FF0000"/>
<stop offset="1" stop-color="#FFFF00"/>
</linearGradient>
<linearGradient id="paint11_linear_14_532" x1="16.244" y1="8.93099" x2="15.9685" y2="8.89038" gradientUnits="userSpaceOnUse">
<stop stop-color="#FF0000"/>
<stop offset="1" stop-color="#FFFF00"/>
</linearGradient>
<clipPath id="clip0_14_532">
<rect width="20" height="15" fill="white"/>
</clipPath>
</defs>
</svg>
