<svg width="20" height="15" viewBox="0 0 20 15" fill="none" xmlns="http://www.w3.org/2000/svg">
<g clip-path="url(#clip0_14_446)">
<path d="M0 0H20V15H0V0Z" fill="#244AA5"/>
<path d="M7.90623 7.025C7.90623 7.025 7.94373 7 7.95623 6.99687C7.97185 6.99687 8.01873 6.97812 8.01873 6.97812C8.01873 6.97812 8.04998 6.9625 8.0656 6.9625C8.08435 6.9625 8.1156 6.98125 8.1281 6.99687C8.13748 7.0125 8.1906 7.04062 8.1906 7.04062C8.1906 7.04062 8.2281 7.05312 8.23748 7.04062C8.24373 7.02812 8.25935 7.01875 8.2781 7.01875C8.29373 7.01875 8.29685 7.00312 8.29685 6.99062C8.29685 6.97812 8.3031 6.9625 8.3156 6.94687C8.33123 6.93125 8.35623 6.92187 8.35623 6.92187C8.35623 6.92187 8.39373 6.90625 8.39685 6.88437C8.4031 6.8625 8.43748 6.84687 8.45935 6.84375C8.48123 6.84375 8.45935 6.83125 8.5156 6.8375C8.56873 6.84375 8.5781 6.825 8.5781 6.80937C8.58123 6.79375 8.5781 6.77812 8.61248 6.77812C8.64685 6.78437 8.66248 6.78437 8.66248 6.76562C8.66248 6.74687 8.69373 6.73437 8.6406 6.72187C8.58435 6.70625 8.5906 6.71875 8.58435 6.69062C8.58435 6.66875 8.58435 6.67187 8.54998 6.66875C8.51248 6.66562 8.53123 6.64687 8.5281 6.62812C8.52498 6.60937 8.5156 6.59687 8.50935 6.5875C8.49998 6.575 8.48123 6.575 8.48123 6.55625C8.48123 6.5375 8.4781 6.525 8.45935 6.525C8.43748 6.525 8.4281 6.525 8.4281 6.50937C8.4281 6.49062 8.43435 6.47812 8.4531 6.47812C8.47498 6.47812 8.48435 6.45937 8.48435 6.44062C8.4781 6.42187 8.4781 6.38125 8.4781 6.38125L8.50623 6.35C8.50623 6.35 8.58748 6.28437 8.59373 6.27187C8.59998 6.25937 8.6281 6.25 8.6406 6.275C8.6531 6.3 8.65935 6.30625 8.67185 6.31875C8.68123 6.33125 8.71248 6.32187 8.71873 6.30937C8.72498 6.29687 8.7281 6.25 8.74685 6.225C8.7656 6.20312 8.7781 6.19062 8.78123 6.16875C8.78435 6.14687 8.79685 6.13125 8.81873 6.13125C8.83748 6.13125 8.84998 6.10312 8.84998 6.0875C8.84998 6.07187 8.86248 6.05625 8.88748 6.05C8.91248 6.04687 8.9281 6.03125 8.93748 6.05625C8.94685 6.08125 8.95623 6.07812 8.97185 6.0875C8.9906 6.09687 9.0156 6.10625 9.0281 6.09687C9.04373 6.08437 9.04998 6.06562 9.06873 6.075C9.08748 6.0875 9.09998 6.075 9.10623 6.05312L9.1156 5.99375C9.1156 5.99375 9.11873 5.97812 9.14998 5.97812C9.18123 5.97812 9.15935 5.95937 9.17498 5.94687C9.19373 5.93437 9.19373 5.92187 9.2156 5.92812C9.23748 5.9375 9.27185 5.91875 9.25623 5.89687C9.23748 5.87812 9.19998 5.84687 9.22185 5.82187C9.24373 5.79687 9.2531 5.75937 9.23123 5.75312C9.20935 5.75 9.17498 5.75625 9.17185 5.73437C9.16873 5.70937 9.15935 5.69062 9.18748 5.6875C9.21248 5.68437 9.25623 5.68437 9.27185 5.67187C9.28435 5.65937 9.3281 5.65 9.3281 5.61562C9.3281 5.57812 9.3406 5.575 9.34685 5.55312C9.34998 5.53437 9.34998 5.49063 9.33123 5.47188C9.31248 5.45 9.28748 5.42188 9.28435 5.40938C9.2781 5.39688 9.26248 5.37812 9.23435 5.36875C9.20935 5.3625 9.18435 5.35625 9.18435 5.3375C9.18435 5.31562 9.2031 5.34062 9.2031 5.2875C9.2031 5.23437 9.16873 5.225 9.16873 5.225L9.1156 5.19375C9.1156 5.19375 9.02185 5.16875 8.99685 5.16875C8.97185 5.16875 8.9406 5.14375 8.96873 5.125C8.99998 5.10937 9.00623 5.07812 8.99685 5.05625C8.98435 5.03437 8.9781 5.01562 8.93748 5.00625C8.89685 4.99687 8.88748 4.9875 8.90623 4.9625C8.92185 4.94062 8.9281 4.92188 8.94998 4.94063C8.96873 4.95625 9.00623 4.9625 9.03435 4.95C9.0656 4.9375 9.07498 4.925 9.0906 4.94063C9.1031 4.95313 9.12185 4.96562 9.14373 4.94687C9.1656 4.925 9.20623 4.92187 9.22498 4.93125C9.2406 4.94375 9.28748 4.94062 9.29998 4.93125C9.31248 4.925 9.34373 4.9 9.34373 4.89062C9.34373 4.88125 9.36248 4.85312 9.3781 4.84375C9.39685 4.83125 9.41873 4.8 9.43748 4.8C9.45623 4.8 9.46248 4.77812 9.46248 4.76875C9.46248 4.75312 9.4781 4.725 9.48123 4.71562C9.48123 4.70625 9.51873 4.69062 9.54373 4.71562C9.57185 4.73125 9.60623 4.74062 9.60623 4.74062C9.60623 4.74062 9.63748 4.74687 9.65935 4.74062C9.66921 4.73454 9.68057 4.73132 9.69216 4.73132C9.70375 4.73132 9.71511 4.73454 9.72498 4.74062C9.7531 4.75937 9.78748 4.75937 9.78748 4.75937L9.79685 4.71875C9.79685 4.70625 9.8031 4.68125 9.78748 4.67187C9.77498 4.6625 9.75623 4.65 9.78435 4.62813C9.8156 4.60938 9.8156 4.6125 9.84373 4.6125L9.91248 4.61562C9.93435 4.61562 9.96873 4.6375 9.96873 4.65625C9.96873 4.675 9.98435 4.6875 9.99998 4.7C10.0187 4.70937 10.0406 4.71875 10.0312 4.7375C10.0281 4.75312 10.0281 4.76875 10.05 4.7625C10.0719 4.75937 10.0781 4.77187 10.0781 4.79062C10.0781 4.80625 10.0844 4.81562 10.1094 4.82187C10.1281 4.82812 10.1406 4.84375 10.1406 4.85937C10.1406 4.875 10.1344 4.8875 10.1406 4.90312L10.1719 4.94687C10.1719 4.94687 10.2125 4.99375 10.1594 4.96875C10.1094 4.94687 10.0969 4.9375 10.0812 4.9375L10.05 4.95312L10.0094 4.95937C9.9906 4.95937 9.97185 4.99688 10.0031 5.00313C10.0312 5.00938 10.0406 5.01562 10.0406 5.04062C10.0406 5.06562 10.0312 5.05625 10.0156 5.07187C10.0031 5.09062 9.9906 5.07812 9.9656 5.07812C9.9406 5.07812 9.93435 5.1 9.93435 5.11875C9.93435 5.1375 9.94373 5.1375 9.9531 5.15C9.9656 5.16875 9.98435 5.17187 10.0031 5.15625C10.0187 5.14062 10.0344 5.12813 10.0437 5.15938C10.0562 5.19063 10.0719 5.19063 10.0906 5.19063C10.1125 5.19063 10.1219 5.19062 10.1406 5.17812C10.1562 5.16875 10.1781 5.17813 10.1812 5.20625C10.1875 5.23125 10.2031 5.2375 10.2219 5.24687C10.2406 5.25625 10.2531 5.2625 10.2531 5.27812C10.2594 5.29687 10.2687 5.30312 10.2875 5.29375C10.3062 5.28125 10.3344 5.275 10.3469 5.29062L10.375 5.32812V5.3625L10.4469 5.3875L10.4531 5.41875C10.4531 5.42812 10.4656 5.4375 10.4844 5.43125H10.5344C10.5344 5.43125 10.5594 5.42187 10.5594 5.4C10.5594 5.38125 10.5687 5.375 10.5906 5.375C10.6062 5.375 10.6469 5.39062 10.6562 5.36875C10.6687 5.35 10.7 5.34375 10.725 5.35312L10.8187 5.39062C10.8187 5.39062 10.8094 5.39063 10.8312 5.425C10.8531 5.45938 10.8937 5.45937 10.8937 5.45937C10.8937 5.45937 10.8937 5.49063 10.9031 5.50313C10.9094 5.51563 10.9437 5.52187 10.9594 5.50937C10.9781 5.49687 11.0031 5.47812 11.025 5.47812C11.0469 5.47812 11.0625 5.47812 11.0625 5.46562C11.0625 5.45312 11.0406 5.44375 11.0406 5.42187C11.0406 5.4 11.0625 5.40312 11.0656 5.38125C11.0687 5.3625 11.0906 5.38125 11.1062 5.39375C11.1219 5.40625 11.1375 5.41875 11.1375 5.43125C11.1375 5.44687 11.1687 5.49375 11.1844 5.5C11.2031 5.50625 11.25 5.50937 11.2656 5.49375C11.2781 5.475 11.3156 5.46875 11.3125 5.50937C11.3094 5.55 11.3 5.55313 11.325 5.56563C11.35 5.57813 11.3562 5.62812 11.3344 5.64062C11.3125 5.65312 11.3031 5.65625 11.3031 5.67812C11.3031 5.7 11.2969 5.72812 11.3156 5.74062C11.3344 5.75625 11.3469 5.76562 11.3469 5.77812C11.3469 5.79375 11.3656 5.85312 11.3656 5.85312C11.3656 5.85312 11.3781 5.9125 11.3719 5.925C11.3719 5.94062 11.3625 5.9625 11.3937 5.95937C11.425 5.95625 11.4344 5.95625 11.4344 5.98125C11.4344 6.00625 11.4469 6.01875 11.4281 6.02812C11.4094 6.04062 11.3968 6.07187 11.4156 6.07812C11.4343 6.08437 11.4469 6.09687 11.4531 6.10937C11.4562 6.12187 11.4844 6.14687 11.5031 6.13125C11.5219 6.11875 11.525 6.1125 11.5406 6.10937C11.5531 6.10625 11.5656 6.09687 11.55 6.07812C11.5375 6.0625 11.5312 6.04687 11.5469 6.03437C11.5625 6.025 11.5687 5.99375 11.5687 5.99375C11.5687 5.99375 11.5906 5.9625 11.6156 5.99375C11.6406 6.025 11.6469 6.0125 11.6625 6.0125C11.6781 6.0125 11.6875 6.02812 11.6875 6.04375C11.6875 6.0625 11.725 6.05937 11.725 6.08437L11.7312 6.17812C11.7312 6.17812 11.7312 6.2125 11.7531 6.225C11.775 6.24062 11.7718 6.24375 11.7593 6.25625C11.75 6.275 11.7531 6.30312 11.7531 6.31875C11.7531 6.33437 11.7593 6.33437 11.7437 6.35C11.725 6.3625 11.7156 6.38125 11.7281 6.4C11.7375 6.41875 11.7344 6.43125 11.7625 6.45625C11.7937 6.47812 11.7906 6.4875 11.7906 6.50625C11.7906 6.52187 11.8187 6.54687 11.8187 6.5625C11.8187 6.57812 11.8406 6.6 11.8594 6.60312C11.8781 6.60625 11.8969 6.63437 11.8969 6.65312L11.9 6.7125C11.9 6.7125 11.9 6.72187 11.9187 6.72187C11.9406 6.72187 11.9562 6.74687 11.9625 6.72187C11.9687 6.69062 11.9937 6.69062 12.0062 6.68125C12.0187 6.67187 12.05 6.6625 12.0656 6.67187C12.0812 6.68125 12.0969 6.68125 12.1125 6.68125L12.1937 6.68437C12.1937 6.68437 12.2125 6.68437 12.225 6.70937C12.2344 6.73437 12.2656 6.76562 12.25 6.77812C12.2312 6.79375 12.2312 6.81875 12.25 6.81875C12.2687 6.81875 12.2969 6.81875 12.2969 6.83437C12.2969 6.85312 12.2969 6.86562 12.3187 6.85625C12.3344 6.84687 12.3468 6.84375 12.3531 6.85625C12.3625 6.86875 12.375 6.86875 12.3937 6.87812C12.4125 6.89062 12.4187 6.88125 12.4312 6.86875C12.4406 6.85625 12.4844 6.84375 12.4844 6.84375C12.4844 6.84375 12.5406 6.82812 12.5625 6.83437L12.6156 6.85625C12.6156 6.85625 12.6281 6.8875 12.6219 6.90937C12.6156 6.92812 12.6062 6.925 12.6156 6.95625C12.6219 6.9875 12.6062 6.9875 12.5937 6.9875C12.5781 6.98125 12.5625 6.98125 12.5625 7.00937C12.5625 7.03437 12.55 7.04062 12.55 7.06562C12.55 7.09062 12.55 7.08437 12.5344 7.09687C12.5219 7.10625 12.5156 7.12187 12.5375 7.12812C12.5594 7.12812 12.5531 7.15312 12.5531 7.16562L12.55 7.20937C12.55 7.20937 12.55 7.225 12.5281 7.225C12.5062 7.225 12.4812 7.225 12.4781 7.24062C12.4718 7.25625 12.4469 7.28125 12.4687 7.3C12.4937 7.31562 12.4875 7.325 12.4719 7.33125C12.4594 7.34062 12.4468 7.37187 12.4781 7.38125C12.5062 7.39375 12.5031 7.40312 12.4844 7.41562C12.4656 7.42812 12.4312 7.44062 12.4312 7.45937C12.4312 7.47812 12.4218 7.47812 12.4 7.48125C12.3781 7.48437 12.3687 7.5125 12.3937 7.54375C12.4187 7.57812 12.425 7.575 12.4437 7.575C12.4625 7.575 12.4625 7.54375 12.4625 7.54375L12.5406 7.55C12.5593 7.55 12.5844 7.55 12.6 7.54062C12.6156 7.52812 12.6531 7.5125 12.6531 7.54062C12.6531 7.57187 12.6625 7.57187 12.6781 7.58125C12.6969 7.59687 12.7 7.58437 12.7156 7.60625C12.7312 7.625 12.7344 7.60625 12.7469 7.58437C12.7562 7.5625 12.7781 7.54062 12.7969 7.56562C12.8125 7.59375 12.8125 7.58437 12.8344 7.58437C12.8562 7.58437 12.8656 7.59687 12.8656 7.6125C12.8656 7.62812 12.8844 7.62812 12.9125 7.625C12.9375 7.625 12.9406 7.64062 12.95 7.65625C12.9594 7.67187 12.9656 7.66875 12.9812 7.66875C12.9937 7.66875 13.0094 7.66875 13.0187 7.65625C13.0312 7.64375 13.0437 7.625 13.0594 7.64687C13.075 7.66562 13.1031 7.6625 13.1094 7.64062C13.1187 7.61562 13.15 7.59687 13.1687 7.62187C13.1875 7.65 13.2 7.65 13.2187 7.65312C13.2375 7.65312 13.2625 7.65312 13.2719 7.67187C13.2844 7.69062 13.3187 7.71562 13.2937 7.73437C13.2687 7.75625 13.2406 7.78125 13.2625 7.79062C13.2821 7.79539 13.2996 7.80635 13.3125 7.82187C13.3281 7.83437 13.375 7.84375 13.3969 7.84687C13.4187 7.84687 13.4344 7.85312 13.4594 7.83125C13.4875 7.8125 13.5125 7.8125 13.5093 7.84062C13.5062 7.86562 13.5187 7.89687 13.5187 7.89687C13.5187 7.89687 13.5375 7.94062 13.5375 7.95625C13.5375 7.97187 13.5344 7.975 13.5687 7.99687C13.6 8.01562 13.5937 8.02812 13.6219 8.00937C13.6469 7.99062 13.6531 7.97812 13.6531 7.9625V7.90937C13.6531 7.90937 13.6906 7.90312 13.7031 7.89375C13.7187 7.88125 13.775 7.85312 13.7906 7.86562C13.8062 7.87812 13.8218 7.875 13.8375 7.86875C13.8531 7.8625 13.8812 7.8625 13.8969 7.8625C13.9094 7.8625 13.9344 7.86562 13.9656 7.84375C13.9937 7.81875 13.9937 7.825 14.0125 7.84375C14.0281 7.85937 14.0281 7.87812 14.0187 7.89375C14.0062 7.90625 14.0187 7.93437 14.0437 7.93437C14.0687 7.93437 14.075 7.95 14.075 7.96562L14.0844 8.01875C14.0844 8.03125 14.0844 8.04062 14.1281 8.05C14.1656 8.05937 14.1593 8.08125 14.1656 8.1C14.175 8.11563 14.175 8.13125 14.1531 8.13125C14.1312 8.13125 14.1219 8.14062 14.1219 8.15625C14.1156 8.17187 14.0844 8.17813 14.0844 8.17813L14.0531 8.17187C14.0531 8.17187 14.0281 8.17187 14.0187 8.18437C14.0062 8.2 13.9875 8.225 14 8.24687C14.0156 8.27187 14.0156 8.28437 14 8.29687C13.9875 8.30625 13.9781 8.35625 13.9656 8.34687C13.95 8.33437 13.9344 8.34687 13.9187 8.35625C13.9031 8.3625 13.9062 8.40937 13.9344 8.425C13.9656 8.44375 13.9719 8.46562 13.9719 8.46562L14.0031 8.51562C14.0031 8.51562 13.9937 8.525 13.9875 8.54375C13.9781 8.55937 13.9562 8.59375 13.9781 8.6C14 8.60625 13.9906 8.64375 13.9687 8.64375C13.9469 8.64375 13.9219 8.63125 13.9187 8.65938C13.9156 8.6875 13.9031 8.67813 13.8812 8.675C13.8594 8.675 13.8062 8.65937 13.7906 8.68437C13.775 8.7125 13.7719 8.72188 13.7469 8.71875C13.7219 8.71875 13.7312 8.75937 13.7406 8.775L13.7719 8.81563C13.7719 8.81563 13.7937 8.83125 13.7937 8.86563C13.7937 8.89688 13.7781 8.89687 13.7625 8.87187C13.75 8.85 13.7219 8.85313 13.7187 8.87813C13.7156 8.90625 13.7094 8.94687 13.6875 8.94687C13.6594 8.94687 13.65 8.95312 13.6375 8.96562C13.6281 8.97812 13.6094 9.00312 13.6094 9.01562C13.6094 9.02813 13.6062 9.04375 13.5875 9.04688C13.5687 9.05 13.5656 9.08438 13.5656 9.08438C13.5656 9.08438 13.5219 9.09375 13.5187 9.10938C13.5156 9.125 13.5219 9.15312 13.4875 9.15625C13.4735 9.1579 13.46 9.16269 13.4481 9.17026C13.4362 9.17784 13.4262 9.188 13.4187 9.2C13.4062 9.21562 13.4031 9.23125 13.4187 9.24687C13.4344 9.2625 13.4437 9.31562 13.4625 9.325C13.4781 9.33437 13.4937 9.34063 13.4906 9.36563C13.4875 9.39375 13.4656 9.4125 13.4937 9.4125C13.525 9.4125 13.5406 9.41875 13.5312 9.44375C13.5187 9.46563 13.5187 9.46875 13.5 9.47812C13.475 9.49062 13.4656 9.49062 13.4656 9.51562C13.4656 9.54063 13.4719 9.54375 13.4531 9.55313C13.4344 9.5625 13.4344 9.575 13.4344 9.59688C13.4344 9.61875 13.4281 9.60938 13.4062 9.63125C13.3844 9.65625 13.3562 9.65625 13.3375 9.65C13.3187 9.64375 13.3156 9.64375 13.3125 9.62187C13.3094 9.60312 13.2781 9.60312 13.2593 9.60625C13.2406 9.60625 13.2156 9.62813 13.2156 9.62813C13.2156 9.62813 13.1843 9.65 13.1968 9.66562C13.2125 9.68125 13.2031 9.70938 13.1781 9.70625C13.1531 9.70313 13.0969 9.73125 13.0781 9.70312C13.0594 9.67188 13.0094 9.65313 13 9.69375C12.9937 9.73125 13.0219 9.72813 13.0187 9.76875C13.0187 9.80938 13.0093 9.80937 12.9937 9.82187C12.9812 9.83437 12.9812 9.84688 12.975 9.8625C12.975 9.87813 12.9687 9.91563 12.9937 9.92813C13.0187 9.94375 13.0312 9.97813 13.0312 10C13.0312 10.0188 13.0312 10.0406 13.0562 10.0406C13.0812 10.0406 13.1031 10.0344 13.1062 10.0125C13.1094 9.99062 13.1593 9.975 13.1656 10.0219C13.1656 10.0688 13.1656 10.0938 13.1875 10.1125C13.2031 10.1313 13.2187 10.1594 13.2344 10.1687C13.2469 10.1781 13.2719 10.2625 13.2719 10.2625C13.2375 10.2719 13.2281 10.3187 13.2062 10.325C13.1937 10.3312 13.1781 10.325 13.1656 10.3344C13.1593 10.3438 13.1594 10.3562 13.1469 10.3594C13.1187 10.3719 13.125 10.3313 13.0906 10.3469C13.0625 10.3594 13.0594 10.3938 13.0187 10.3781C12.9969 10.3719 12.9843 10.2844 12.9781 10.2656L12.9437 10.2094C12.9187 10.1719 12.8719 10.2094 12.8562 10.1969C12.8312 10.1812 12.8406 10.1531 12.8031 10.15C12.7281 10.1437 12.7812 10.1969 12.75 10.2063C12.6875 10.2281 12.6875 10.15 12.6437 10.1875C12.6281 10.2 12.675 10.2094 12.6625 10.2312C12.6531 10.25 12.6094 10.2813 12.6094 10.3031C12.6156 10.3344 12.6469 10.3438 12.6562 10.3656C12.6875 10.4375 12.6406 10.4844 12.5718 10.4281C12.5343 10.4 12.525 10.3438 12.4687 10.35C12.4531 10.35 12.45 10.3625 12.4375 10.3656C12.4219 10.3656 12.4125 10.3531 12.3969 10.3562C12.375 10.3656 12.3969 10.3813 12.3906 10.3938C12.3906 10.3938 12.3594 10.4156 12.3594 10.425C12.3406 10.4438 12.3468 10.4625 12.3218 10.4812C12.3031 10.4969 12.2875 10.4875 12.2656 10.5125C12.2437 10.5344 12.2406 10.5719 12.2125 10.5938C12.1968 10.6063 12.1875 10.5594 12.1687 10.5906L12.1625 10.6031C12.1562 10.6125 12.1562 10.6156 12.1625 10.625C12.2 10.7 12.1187 10.725 12.0937 10.7781C12.0844 10.8 12.1125 10.8187 12.1031 10.8375L12.0562 10.8906C12.0562 10.8969 12.05 10.9156 12.0437 10.9219C12.0375 10.9281 12.0125 10.9219 12.0125 10.9344C12.0125 10.9469 12.0375 10.9562 12.0437 10.9625C12.05 10.9719 12.0375 10.9844 12.0437 10.9875C12.0812 11.0281 12.0594 11.0156 12.0781 11.05C12.0812 11.0563 12.0937 11.0469 12.1 11.0594C12.1031 11.0719 12.0875 11.0719 12.0937 11.0844C12.0937 11.0906 12.125 11.1281 12.125 11.1281C12.125 11.1406 12.0687 11.1656 12.0562 11.1656C12.0218 11.1656 12.0875 11.0969 12.0312 11.0969C12.0062 11.0969 12.0031 11.15 12 11.1594H11.9687C11.9312 11.1594 11.9062 11.2031 11.8937 11.2063C11.8844 11.2094 11.8625 11.2 11.8469 11.2063C11.8344 11.2063 11.8156 11.2219 11.8031 11.2219C11.7937 11.2219 11.7906 11.2156 11.7812 11.2094C11.7656 11.2 11.7344 11.1969 11.7187 11.1906C11.7062 11.1906 11.6875 11.2031 11.6812 11.2C11.6718 11.1937 11.6906 11.1688 11.6625 11.1562L11.6406 11.1031C11.65 11.0719 11.6594 11.0406 11.6562 11.0063C11.65 10.9719 11.5937 10.9438 11.5812 10.9125C11.5719 10.8938 11.5625 10.8375 11.5406 10.825C11.5168 10.8067 11.4975 10.7832 11.4844 10.7563C11.4844 10.75 11.4937 10.7375 11.4844 10.725C11.475 10.7156 11.4594 10.7094 11.4531 10.6938C11.45 10.6813 11.4531 10.6375 11.4375 10.6281C11.4219 10.6188 11.3125 10.6031 11.2812 10.6C11.2687 10.6 11.2594 10.6 11.25 10.5906L11.2312 10.5688L11.2 10.575C11.1906 10.575 11.175 10.5687 11.1687 10.575C11.1344 10.5969 11.125 10.6281 11.0906 10.6562C11.0562 10.6813 11.0187 10.6813 10.9844 10.7094C10.9625 10.7281 10.9469 10.775 10.925 10.7969C10.9156 10.8063 10.9031 10.7969 10.9 10.8C10.8812 10.8219 10.8562 10.8375 10.8375 10.8562C10.8344 10.8625 10.8375 10.8687 10.8312 10.8719L10.7906 10.8844H10.7531C10.7375 10.8906 10.7375 10.9094 10.675 10.9219L10.6594 10.9312L10.6406 10.9469H10.6125C10.5969 10.9469 10.5875 10.9625 10.575 10.9625C10.5437 10.9687 10.4875 10.9469 10.4625 10.9594C10.4469 10.9625 10.4062 11.0125 10.3906 11.0156C10.3812 11.0188 10.3719 11.0156 10.3594 11.0125L10.3406 11.0813L10.2656 11.1469C10.2562 11.1563 10.2531 11.1688 10.2406 11.1781C10.2344 11.1875 10.2219 11.1938 10.2094 11.1938C10.1969 11.1938 10.175 11.1812 10.1594 11.1812C10.1344 11.175 10.0562 11.1719 10.0344 11.1781C10.0062 11.1813 10.0156 11.2531 9.9531 11.2594L9.84998 11.2719C9.84685 11.2719 9.82498 11.2594 9.8031 11.2625C9.79373 11.2656 9.76873 11.2938 9.76873 11.3V11.3156L9.77498 11.3281C9.76248 11.3438 9.73123 11.3688 9.72185 11.3906L9.70935 11.4031C9.7031 11.4094 9.65935 11.425 9.65623 11.4312C9.64685 11.4562 9.68748 11.4813 9.68123 11.4906C9.67185 11.5219 9.6281 11.5531 9.61248 11.5844C9.60935 11.5969 9.6281 11.6375 9.6281 11.65C9.62185 11.6906 9.60935 11.7406 9.61248 11.7781L9.61873 11.8313L9.6406 11.8469L9.69685 11.9594C9.70623 12.0281 9.6031 12.0031 9.6656 12.0719C9.67185 12.0844 9.6781 12.0937 9.6906 12.1031L9.7781 12.175C9.7781 12.1875 9.7156 12.1969 9.70623 12.2063C9.67498 12.2375 9.6531 12.2875 9.62498 12.3188C9.60623 12.3344 9.59373 12.3156 9.56873 12.3594C9.56248 12.375 9.56873 12.4094 9.55935 12.4219C9.54373 12.4344 9.53435 12.4156 9.51873 12.4219C9.51248 12.4219 9.50935 12.4437 9.5031 12.4469C9.48748 12.4625 9.3406 12.5406 9.3281 12.5312C9.32185 12.5281 9.31248 12.5031 9.31248 12.4969C9.31248 12.4875 9.29998 12.4687 9.29373 12.4656C9.25623 12.4344 9.19998 12.425 9.16248 12.4656C9.1531 12.475 9.1531 12.4906 9.1406 12.4969L9.0781 12.5469L9.06248 12.5625C9.04685 12.5625 9.01248 12.5219 8.99998 12.5094C8.98748 12.4906 8.93748 12.4469 8.93435 12.425C8.93435 12.35 8.87498 12.2719 8.8531 12.2H8.88748C8.9281 12.1719 8.91873 12.1063 8.9906 12.1313C8.99998 12.1188 8.99998 12.1063 9.0156 12.1C9.02185 12.0938 9.03435 12.0906 9.03748 12.0844C9.06248 12.0469 9.0906 11.9031 9.0656 11.8656C9.04373 11.8344 9.01873 11.8344 9.0031 11.7812C8.99685 11.7656 9.0031 11.75 9.0031 11.7312L8.97185 11.6344C8.9656 11.625 8.94998 11.6188 8.94998 11.6125L8.94373 11.5156C8.92185 11.4469 8.83748 11.4063 8.83435 11.3969L8.8031 11.3438C8.7906 11.3219 8.7906 11.3125 8.78435 11.2937C8.78123 11.2844 8.7656 11.275 8.7656 11.2656C8.7656 11.2469 8.8156 11.2125 8.81248 11.1812C8.81248 11.1719 8.78123 11.1406 8.78748 11.125C8.79373 11.1062 8.82498 11.0687 8.82498 11.0469C8.82498 11.0219 8.77498 10.9656 8.76873 10.9406C8.7656 10.925 8.78748 10.9156 8.78123 10.9062C8.77498 10.8937 8.72498 10.8469 8.71873 10.8344C8.70935 10.825 8.73435 10.8125 8.71873 10.7937C8.69998 10.7781 8.7156 10.7813 8.70935 10.7688C8.7031 10.7531 8.68748 10.7375 8.6781 10.7219C8.67185 10.7063 8.6281 10.55 8.63123 10.5406C8.62185 10.5312 8.60935 10.5219 8.6031 10.5094L8.5906 10.4719C8.5906 10.4719 8.5406 10.4563 8.53123 10.4406C8.52498 10.4313 8.52185 10.3906 8.50935 10.3719C8.5031 10.3625 8.49373 10.3656 8.48748 10.3594C8.48123 10.3531 8.48123 10.3437 8.4781 10.3375C8.46248 10.3187 8.43435 10.3375 8.4156 10.2625C8.38435 10.2437 8.36248 10.2313 8.3406 10.2063L8.3281 10.1938C8.30935 10.1875 8.28123 10.1844 8.2656 10.1719C8.25623 10.1719 8.20935 10.1719 8.2031 10.1656L8.1906 10.1406C8.1656 10.1375 8.12185 10.1406 8.09998 10.1219C8.08435 10.1062 8.08123 10.0344 8.04998 10.0437C8.0459 10.0425 8.04155 10.0425 8.03748 10.0437C8.0156 10.0125 7.94685 10.0125 7.91873 9.99375C7.91248 9.99062 7.88748 9.99375 7.88748 9.9875L7.8906 9.94687L7.85623 9.90312C7.8281 9.89687 7.83748 9.89375 7.82498 9.88437C7.7781 9.88437 7.77185 9.89062 7.74373 9.91562C7.73748 9.92187 7.72185 9.925 7.71248 9.92813C7.69685 9.9375 7.69373 9.96563 7.67185 9.95312L7.6531 9.9375C7.6406 9.925 7.63435 9.93125 7.6281 9.9125C7.5906 9.89063 7.48748 9.95938 7.4656 9.9125C7.44685 9.90313 7.43435 9.9125 7.41873 9.9C7.41248 9.89375 7.4406 9.80625 7.3656 9.775L7.4156 9.74063C7.42185 9.73125 7.4156 9.71563 7.4156 9.70938C7.4156 9.69375 7.42498 9.66563 7.42185 9.65625C7.42185 9.64687 7.40935 9.6375 7.40623 9.625C7.39998 9.61562 7.40623 9.6 7.39998 9.5875L7.37498 9.575C7.35623 9.55937 7.33748 9.55 7.32185 9.53125L7.30935 9.51562C7.29685 9.50625 7.2531 9.49063 7.2531 9.47188C7.2531 9.46563 7.2656 9.4625 7.2656 9.45625C7.26873 9.44688 7.2656 9.4375 7.27498 9.43125C7.29373 9.4 7.3406 9.41563 7.33435 9.3625C7.33123 9.3375 7.31248 9.31875 7.30935 9.29375C7.29998 9.2875 7.29998 9.27813 7.29373 9.27188C7.24685 9.26875 7.2531 9.22188 7.23748 9.20938C7.1906 9.17813 7.1531 9.19687 7.20623 9.13437C7.21248 9.1125 7.15935 9.07813 7.14998 9.06875C7.13123 9.05 7.1406 9.00938 7.13123 8.99063C7.13123 8.98125 7.09685 8.9625 7.08748 8.95L7.07185 8.91875V8.91562C7.08123 8.90625 7.0781 8.89062 7.07185 8.88437C7.06873 8.875 7.0531 8.87812 7.04998 8.87187C7.00623 8.83437 6.95623 8.81562 6.89685 8.79375C6.88123 8.7875 6.88748 8.775 6.87185 8.76875L6.7781 8.73125C6.77185 8.73125 6.7656 8.69687 6.75935 8.68437L6.73123 8.65312C6.73123 8.62187 6.71248 8.62187 6.68748 8.60312V8.58438L6.70623 8.51875C6.70935 8.50625 6.72498 8.49375 6.72185 8.48125L6.70935 8.40937C6.68435 8.34687 6.65623 8.35312 6.67185 8.26875C6.67185 8.25 6.66873 8.24063 6.68123 8.225L6.68748 8.21562L6.72498 8.1875C6.73748 8.16875 6.74685 8.12813 6.76248 8.11563L6.81873 8.07812C6.82498 8.07187 6.83123 8.05 6.8281 8.04062C6.8156 8.03437 6.8031 8.0375 6.7906 8.03437C6.78435 8.03437 6.76873 8.02188 6.75623 8.02188C6.7531 8.01563 6.74685 8.0125 6.74685 8.00625L6.7406 8C6.72498 8 6.70935 7.99062 6.69685 7.98437C6.68123 7.97812 6.65935 7.97812 6.64373 7.96875C6.61248 7.95312 6.58123 7.90625 6.5531 7.9C6.5156 7.89062 6.4906 7.90312 6.4531 7.90625C6.43123 7.90625 6.43123 7.89375 6.41248 7.8875C6.38748 7.87812 6.40623 7.9 6.34998 7.88125C6.3406 7.875 6.34998 7.85625 6.34998 7.85H6.31873C6.27498 7.8375 6.2906 7.79375 6.2781 7.76562C6.27498 7.75937 6.2531 7.75937 6.24685 7.75937C6.2406 7.75937 6.2406 7.75312 6.2406 7.75312L6.24685 7.75C6.2531 7.7375 6.22498 7.70625 6.22498 7.7C6.2281 7.69062 6.28748 7.68125 6.29373 7.68125C6.29685 7.67187 6.2906 7.66562 6.28748 7.65937C6.28748 7.64375 6.29685 7.62187 6.3031 7.60625V7.6C6.28435 7.59062 6.28123 7.57812 6.2656 7.56875C6.2656 7.55937 6.27498 7.55625 6.2781 7.54687C6.30623 7.46875 6.34998 7.53125 6.38748 7.45937C6.3906 7.45312 6.4031 7.4375 6.40623 7.425H6.41248C6.41873 7.425 6.43123 7.43125 6.43748 7.425C6.44373 7.41875 6.4531 7.41875 6.46248 7.41562H6.4781C6.54685 7.40312 6.53123 7.37812 6.57185 7.35C6.58435 7.34062 6.6156 7.3375 6.6281 7.33125C6.64373 7.34062 6.6656 7.3625 6.69373 7.375C6.7156 7.38125 6.78748 7.39687 6.79998 7.40625C6.8156 7.4125 6.81873 7.43125 6.83123 7.4375C6.87185 7.4625 6.84685 7.425 6.88748 7.43125C6.9281 7.44062 6.95935 7.475 6.99685 7.49062L7.0281 7.4875C7.03748 7.48437 7.09998 7.47187 7.10623 7.475L7.13123 7.48437C7.1406 7.4875 7.14685 7.46875 7.15623 7.46875C7.18123 7.475 7.18123 7.48437 7.21873 7.48125C7.21873 7.48125 7.23748 7.37812 7.25623 7.375C7.2656 7.37187 7.29373 7.39687 7.29998 7.4C7.31248 7.40312 7.29998 7.37812 7.29998 7.37812C7.29373 7.36875 7.27498 7.30625 7.2781 7.3C7.2781 7.3 7.29373 7.30625 7.3031 7.30312C7.32185 7.29687 7.34998 7.29062 7.3656 7.275L7.39685 7.22812C7.39998 7.22187 7.3906 7.20312 7.39685 7.19687L7.42498 7.17812C7.43748 7.16562 7.43748 7.14687 7.45623 7.1375C7.51873 7.13125 7.5406 7.08125 7.59998 7.075H7.61873L7.63123 7.09375C7.63123 7.09687 7.67185 7.12187 7.6781 7.11875C7.68435 7.11875 7.68748 7.10937 7.69373 7.10625C7.7031 7.10937 7.73748 7.09062 7.7406 7.07812C7.7406 7.07812 7.73435 7.06875 7.73748 7.05937C7.75307 7.04551 7.76979 7.03296 7.78748 7.02187H7.83123C7.83748 7.02812 7.83748 7.04062 7.84685 7.04062H7.88435C7.8906 7.04062 7.89373 7.025 7.90623 7.025Z" fill="#D0A650"/>
<path d="M10.9969 2.2937L11.5 3.8437L10.1812 2.88433H11.8125L10.4937 3.8437L10.9937 2.2937H10.9969ZM12.9594 2.64058L13.4594 4.19058L12.1437 3.2312H13.7719L12.4531 4.19058L12.9594 2.64058ZM14.8312 3.32183L15.3312 4.87183L14.0156 3.91245H15.6437L14.325 4.87495L14.8312 3.32495V3.32183ZM9.0031 2.2937L8.49998 3.8437L9.81873 2.88433H8.18748L9.50623 3.8437L9.00623 2.2937H9.0031ZM7.0406 2.64058L6.5406 4.19058L7.85623 3.2312H6.2281L7.54685 4.19058L7.0406 2.64058ZM5.1781 3.32183L5.68435 4.87183L4.3656 3.91245H5.99373L4.67498 4.87183L5.1781 3.32183Z" fill="white"/>
</g>
<defs>
<clipPath id="clip0_14_446">
<rect width="20" height="15" fill="white"/>
</clipPath>
</defs>
</svg>
