<svg width="20" height="15" viewBox="0 0 20 15" fill="none" xmlns="http://www.w3.org/2000/svg">
<g clip-path="url(#clip0_14_406)">
<mask id="mask0_14_406" style="mask-type:luminance" maskUnits="userSpaceOnUse" x="-1" y="0" width="21" height="15">
<path d="M-0.000976562 0H20V15H-0.000976562V0Z" fill="white"/>
</mask>
<g mask="url(#mask0_14_406)">
<path fill-rule="evenodd" clip-rule="evenodd" d="M-2.5 0H20V15H-2.5V0Z" fill="#198A00"/>
<path fill-rule="evenodd" clip-rule="evenodd" d="M17.3604 5.39062H20V15H17.3604V5.39062Z" fill="#EF7D00"/>
<path fill-rule="evenodd" clip-rule="evenodd" d="M14.7236 5.38477H17.3604V14.9941H14.7236V5.38477Z" fill="black"/>
<path fill-rule="evenodd" clip-rule="evenodd" d="M12.0313 5.39062H14.7236V15H12.0283L12.0313 5.39062Z" fill="#DE2010"/>
<path fill-rule="evenodd" clip-rule="evenodd" d="M18.2305 1.92188C18.2305 1.92188 19.2266 1.49707 19.3203 1.40918C19.3643 1.46191 18.9219 1.99512 18.0635 2.19141C18.8428 2.00977 19.5078 1.42969 19.6455 1.44727C19.6836 1.45605 19.6748 2.0127 17.8877 2.49609C19.124 2.17383 19.8418 1.57617 19.833 1.64063C19.8418 1.65527 19.71 2.10937 18.6289 2.46387C18.9307 2.39355 19.751 1.89551 19.7422 1.99219C19.7686 2.03027 18.9512 3.08203 17.4688 2.73926C18.6523 3.04688 19.417 2.30566 19.5254 2.32031C19.5488 2.32324 19.3086 2.96484 17.8203 3.00586C18.5322 2.93262 18.3271 3.00293 18.3271 3.00293C18.3271 3.00293 17.9082 3.33105 17.3984 3.1084C17.7969 3.2168 17.8408 3.22266 17.8496 3.25488C17.8232 3.30176 17.498 3.36621 17.1787 3.19629C17.4336 3.30176 17.6621 3.31934 17.665 3.35742C17.6621 3.36914 17.501 3.46289 17.3545 3.39551C17.2109 3.33105 15.8809 2.51367 15.8809 2.51367L18.1484 1.88965L18.2305 1.91895V1.92188ZM15.5645 4.13672C15.3652 4.13672 15.3594 4.3125 15.3594 4.3125C15.3594 4.3125 15.3447 4.32715 15.3535 4.41211L15.4033 4.33594C15.4268 4.33887 15.5176 4.36523 15.6611 4.25391C15.5293 4.3916 15.6084 4.44141 15.6084 4.44141C15.6084 4.44141 15.5791 4.5498 15.6787 4.57031C15.6494 4.52637 15.667 4.48828 15.667 4.48828C15.667 4.48828 15.8076 4.47363 15.7988 4.30371C15.8018 4.45898 15.8867 4.49707 15.8867 4.49707C15.8867 4.49707 15.8867 4.58203 15.9775 4.59082C15.9307 4.54687 15.9395 4.47949 15.9395 4.47949C15.9395 4.47949 16.0566 4.3916 15.96 4.24512C16.0186 4.20996 16.0684 4.11328 16.0684 4.11328C16.0684 4.11328 15.9863 4.07812 15.9482 4.04883C15.9307 4.01074 15.9482 3.7998 15.9482 3.7998L15.8955 3.52734L15.7549 3.95215C15.7607 3.89355 15.7637 4.13672 15.5645 4.13672Z" fill="#EF7D00" stroke="black" stroke-width="0.046875" stroke-linejoin="round"/>
<path fill-rule="evenodd" clip-rule="evenodd" d="M16.5488 3.52441C16.5547 3.52734 16.6982 3.68848 16.8389 3.67969C16.8916 3.63574 16.7305 3.54199 16.7305 3.51855C16.7891 3.57129 17.0264 3.77637 17.1816 3.70313C17.2402 3.61523 17.0703 3.62988 16.8828 3.39258C17.0146 3.48047 17.3428 3.6709 17.498 3.59766C17.5596 3.52734 17.1553 3.30762 17.0176 3.1377L16.666 2.95898L16.1914 3.34863L16.5518 3.52441H16.5488Z" fill="#EF7D00" stroke="black" stroke-width="0.046875" stroke-linejoin="round"/>
<path fill-rule="evenodd" clip-rule="evenodd" d="M16.0127 2.19149C16.0127 2.19149 16.1738 2.09774 16.8213 2.14461C16.8916 2.1534 17.2607 2.01863 17.3809 1.97762C17.5684 1.94246 18.1719 1.81356 18.3301 1.69051C18.4473 1.67586 18.3008 1.89852 18.1543 1.95418C18.002 2.02156 17.4482 2.21492 17.249 2.18856C17.4863 2.19149 17.3545 2.38485 16.9619 2.29403C17.1494 2.39949 17.0791 2.41707 17.0791 2.41707C17.0791 2.41707 16.748 2.43465 16.6602 2.35848C16.8828 2.44344 16.7891 2.47567 16.7891 2.47567C16.7891 2.47567 16.5635 2.49617 16.458 2.44637C16.6191 2.49617 16.5371 2.52547 16.5371 2.52547C16.5371 2.52547 16.4053 2.54891 16.2969 2.50789C16.1855 2.46981 16.0215 2.19442 16.0127 2.19442V2.19149Z" fill="#EF7D00" stroke="black" stroke-width="0.046875" stroke-linecap="round" stroke-linejoin="round"/>
<path fill-rule="evenodd" clip-rule="evenodd" d="M16.2705 3.61523L16.2939 4.04297L16.2705 4.07812C16.2617 4.08984 15.9687 4.03125 16.0068 4.25391C16.0068 4.34766 16.0068 4.37109 16.0713 4.4209C16.0566 4.3623 16.0596 4.31836 16.0596 4.31836C16.0596 4.31836 16.1445 4.36816 16.2236 4.23047C16.168 4.36523 16.2061 4.41504 16.2207 4.41797C16.2324 4.44141 16.1973 4.5498 16.3086 4.54687C16.2646 4.50586 16.2852 4.44727 16.2852 4.44727C16.2852 4.44727 16.4023 4.42969 16.3613 4.22168C16.4023 4.18066 16.4199 4.22168 16.4199 4.22168C16.4199 4.22168 16.4316 4.34473 16.5342 4.31836C16.5781 4.34473 16.5254 4.41211 16.5254 4.41211C16.5254 4.41211 16.5986 4.41211 16.6221 4.35352C16.6426 4.28906 16.6689 4.17773 16.5488 4.13086C16.5342 4.08691 16.5957 4.08398 16.5957 4.08398C16.5957 4.08398 16.6719 4.11035 16.6953 4.14844C16.7187 4.18652 16.71 4.04883 16.6133 4.03125C16.4961 4.03125 16.4902 4.00488 16.4902 4.00195L16.4609 3.60059L16.2705 3.61523Z" fill="#EF7D00" stroke="black" stroke-width="0.046875" stroke-linejoin="round"/>
<path fill-rule="evenodd" clip-rule="evenodd" d="M16.6778 3.97855C16.6778 3.95805 16.4786 3.68851 16.5313 3.65629C16.5811 3.66508 16.6631 3.78812 16.7334 3.74711C16.7129 3.70023 16.6514 3.7266 16.584 3.60355C16.5137 3.46293 16.5049 3.25492 16.2618 3.02933C16.42 3.26957 16.7715 3.41019 16.7891 3.33988C16.8067 3.26957 16.4756 3.0059 16.4932 2.94144C16.5577 3.07035 16.8858 3.36332 17.126 3.33988C17.1436 3.28129 16.9297 3.16996 16.8741 3.06449C16.7188 2.95902 16.3057 2.60453 16.2999 2.5225C16.2272 2.39893 16.1281 2.2929 16.0098 2.21195C15.9989 2.19698 15.991 2.18008 15.9864 2.16215C15.8926 1.94242 16.0157 1.86918 16.0889 1.86039C16.1475 1.8516 16.1651 1.86039 16.2061 1.83988L16.0567 1.78129C16.1241 1.83109 16.2911 1.78715 16.2559 1.92777C16.3292 1.89848 16.4874 1.71098 16.0772 1.66996C15.9424 1.51762 15.3946 1.42973 15.2569 2.09769C15.2686 2.10648 15.2745 2.11527 15.3096 2.13871C15.1338 2.05668 14.668 1.99223 14.501 1.96293C14.044 1.83402 13.5723 1.51762 13.5284 1.5557C13.4698 1.585 13.8038 1.89555 13.7862 1.9014C13.5256 1.75303 13.2566 1.61999 12.9805 1.50297C12.8047 1.43851 12.6319 1.28617 12.6143 1.31547C12.5499 1.4473 12.8926 1.78129 12.9571 1.81937C13.0215 1.85746 13.5225 2.09183 13.5137 2.09476C12.7579 1.75199 12.6348 1.68754 12.5938 1.64945C12.5264 1.6348 12.3653 1.41508 12.3213 1.42973C12.295 1.45316 12.3448 1.79887 12.7051 1.95707C12.7637 1.99808 13.4786 2.25297 13.4727 2.27348C13.4727 2.27933 12.6524 1.93656 12.6231 1.92191C12.4649 1.86332 12.2715 1.64652 12.2364 1.66996C12.2012 1.6934 12.3243 1.92777 12.4825 2.00101C12.5674 2.03617 12.8868 2.19437 13.1739 2.29398C13.1915 2.30277 12.6553 2.09183 12.3975 1.98637C12.2803 1.92191 12.2276 1.83988 12.21 1.85746C12.1807 1.87504 12.251 2.22074 13.0801 2.4141C13.1006 2.42582 13.3731 2.35258 13.3584 2.36137C13.2063 2.39961 13.0516 2.42703 12.8956 2.4434C12.8868 2.46683 12.9483 2.58988 13.376 2.56644C13.4288 2.56351 13.7276 2.45805 13.7012 2.47855C13.5589 2.53286 13.4142 2.58076 13.2676 2.62211C13.2413 2.62211 13.1036 2.63969 13.0977 2.6514C13.0918 2.67484 13.2002 2.76273 13.4288 2.77445C13.6338 2.78617 14.0206 2.6514 14.0147 2.66019C14.003 2.66898 13.6397 2.79496 13.6309 2.80082C13.6163 2.80961 13.4844 2.81547 13.4786 2.82719C13.4668 2.85355 13.6719 3.04398 14.2725 2.8389C14.2139 2.92094 13.9209 2.9766 13.9209 2.99125C13.9209 3.00297 13.9854 3.06449 14.0879 3.08793C14.1377 3.09965 14.2081 3.09672 14.2725 3.08793C14.3897 3.06449 14.5069 3.02055 14.6622 2.87699C14.6797 2.92094 14.2784 3.12601 14.2959 3.14359C14.3838 3.22562 14.6739 3.1348 14.6915 3.12308C14.712 3.1143 15.2481 2.80961 15.2481 2.77152C15.2569 2.8184 14.5538 3.20219 14.5625 3.21683C14.6065 3.28715 14.8467 3.2139 14.8555 3.20512L15.1719 3.03519C15.1807 3.03226 14.8262 3.24027 14.8555 3.27543C14.8409 3.41312 15.4122 3.18168 15.4561 3.15238C15.4766 3.13773 15.1807 3.28129 15.1807 3.34867C15.2774 3.5098 15.5821 3.46 15.629 3.42484C15.6524 3.40726 15.5997 3.54203 15.6172 3.53031C15.6533 3.49344 15.683 3.45087 15.7051 3.40433C15.6993 3.45121 15.6641 3.52152 15.6465 3.60355C15.626 3.68265 15.6202 3.7764 15.5938 3.87308C15.5879 3.9141 15.7813 3.78812 15.752 3.48637C15.7696 3.64457 15.6934 3.93754 15.7139 3.95512C15.752 3.98441 15.8663 3.80863 15.878 3.68851C15.9102 3.74711 15.9805 3.87308 16.042 3.90238C16.0362 3.81156 16.042 3.81449 16.0127 3.7266C16.0303 3.60648 16.0333 3.44242 16.0362 3.25492C16.2002 3.5684 16.2676 3.70316 16.2208 3.9434C16.2706 3.9639 16.3467 3.77348 16.3409 3.67973C16.3592 3.75828 16.4014 3.82922 16.4618 3.88274C16.5221 3.93627 16.5976 3.96974 16.6778 3.97855Z" fill="#EF7D00" stroke="black" stroke-width="0.0515625" stroke-linecap="round" stroke-linejoin="round"/>
<path fill-rule="evenodd" clip-rule="evenodd" d="M13.9473 1.9834C13.9473 1.9834 13.833 2.06836 13.6953 2.0625C13.7305 2.20313 14.0176 2.09473 14.0176 2.09473C14.0176 2.09473 13.8799 2.25 13.7803 2.27344C13.8389 2.32324 14.0908 2.30566 14.1318 2.28223C14.1729 2.25586 14.249 2.15918 14.249 2.15918C14.249 2.15918 13.9912 2.45801 13.9561 2.45508C13.9473 2.49023 14.2227 2.47852 14.2783 2.42578C14.3369 2.37305 14.4834 2.29688 14.4834 2.29688C14.4834 2.29688 14.1025 2.56055 14.0879 2.56055C14.2285 2.5957 14.5127 2.51367 14.6943 2.40234C14.4248 2.58105 14.4014 2.61328 14.2637 2.6748C14.3867 2.70117 14.4482 2.7832 14.8584 2.60449C15.0928 2.49316 15.2275 2.28809 15.2275 2.28809C15.0487 2.49912 14.8346 2.67754 14.5947 2.81543C14.5801 2.84473 14.8701 2.96777 15.2363 2.58398" fill="#EF7D00"/>
<path d="M13.9473 1.9834C13.9473 1.9834 13.833 2.06836 13.6953 2.0625C13.7305 2.20313 14.0176 2.09473 14.0176 2.09473C14.0176 2.09473 13.8799 2.25 13.7803 2.27344C13.8389 2.32324 14.0908 2.30566 14.1318 2.28223C14.1729 2.25586 14.249 2.15918 14.249 2.15918C14.249 2.15918 13.9912 2.45801 13.9561 2.45508C13.9473 2.49023 14.2227 2.47852 14.2783 2.42578C14.3369 2.37305 14.4834 2.29688 14.4834 2.29688C14.4834 2.29688 14.1025 2.56055 14.0879 2.56055C14.2285 2.5957 14.5127 2.51367 14.6943 2.40234C14.4248 2.58105 14.4014 2.61328 14.2637 2.6748C14.3867 2.70117 14.4482 2.7832 14.8584 2.60449C15.0928 2.49316 15.2275 2.28809 15.2275 2.28809C15.0487 2.49912 14.8346 2.67754 14.5947 2.81543C14.5801 2.84473 14.8701 2.96777 15.2363 2.58398" stroke="black" stroke-width="0.0515625" stroke-linecap="round" stroke-linejoin="round"/>
<path fill-rule="evenodd" clip-rule="evenodd" d="M15.9395 2.8125C15.9395 2.8125 15.9658 2.92969 16.0654 3.01758C16.165 3.10547 16.1709 3.19336 16.1709 3.19336M15.8926 2.05078C15.8926 2.05078 15.9248 2.15918 16.0273 2.22656C16.1328 2.29102 16.291 2.50195 16.2998 2.54004C16.3115 2.58398 16.373 2.90918 16.3672 2.94434M15.2598 2.21191C15.2656 2.25586 15.1133 2.45508 15.3242 2.69238C15.1309 2.92676 15.1309 2.95605 15.1309 2.95605C15.1309 2.95605 15.2393 3.01465 15.4297 2.85059C15.7461 3.2373 15.6406 3.41309 15.6406 3.41309" fill="#EF7D00"/>
<path d="M15.9395 2.8125C15.9395 2.8125 15.9658 2.92969 16.0654 3.01758C16.165 3.10547 16.1709 3.19336 16.1709 3.19336M15.8926 2.05078C15.8926 2.05078 15.9248 2.15918 16.0273 2.22656C16.1328 2.29102 16.291 2.50195 16.2998 2.54004C16.3115 2.58398 16.373 2.90918 16.3672 2.94434M15.2598 2.21191C15.2656 2.25586 15.1133 2.45508 15.3242 2.69238C15.1309 2.92676 15.1309 2.95605 15.1309 2.95605C15.1309 2.95605 15.2393 3.01465 15.4297 2.85059C15.7461 3.2373 15.6406 3.41309 15.6406 3.41309" stroke="black" stroke-width="0.0515625" stroke-linecap="round"/>
<path fill-rule="evenodd" clip-rule="evenodd" d="M15.6143 3.14062C15.6143 3.14062 15.585 3.09961 15.6378 2.94434C15.6846 3.00293 15.7374 3.01172 15.7579 3.03223C15.7813 3.05859 16.0215 3.09082 16.0333 3.25195" fill="#EF7D00"/>
<path d="M15.6143 3.14062C15.6143 3.14062 15.585 3.09961 15.6378 2.94434C15.6846 3.00293 15.7374 3.01172 15.7579 3.03223C15.7813 3.05859 16.0215 3.09082 16.0333 3.25195" stroke="black" stroke-width="0.0515625" stroke-linecap="round" stroke-linejoin="round"/>
<path fill-rule="evenodd" clip-rule="evenodd" d="M15.8955 1.68467C15.8955 1.67295 15.8457 1.56748 15.667 1.69638C15.7637 1.70224 15.8574 1.75791 15.8955 1.68467Z" fill="#EF7D00" stroke="black" stroke-width="0.0515625"/>
<path fill-rule="evenodd" clip-rule="evenodd" d="M17.6006 2.15332C17.6094 2.15918 18.1338 2.27051 18.3096 2.21484C18.0869 2.51367 17.6387 2.31152 17.6387 2.31152C17.8584 2.37598 17.8672 2.37012 17.9375 2.43457C17.9609 2.49316 17.5332 2.46387 17.3955 2.38477C17.7852 2.50781 17.794 2.50195 17.8057 2.5459C17.8232 2.61328 17.167 2.52832 17.1113 2.44336C17.2871 2.57813 17.3809 2.60449 17.4775 2.66602C17.3604 2.71875 17.1406 2.77148 16.7393 2.4873C17.2666 2.96777 17.7441 2.93848 17.8203 3.02344C17.6357 3.2959 16.9209 2.8623 16.5928 2.64258C16.2647 2.42285 17.3106 3.17285 17.4072 3.16113C17.3604 3.23438 17.0147 3.16992 16.9912 3.13184" fill="#EF7D00"/>
<path d="M17.6006 2.15332C17.6094 2.15918 18.1338 2.27051 18.3096 2.21484C18.0869 2.51367 17.6387 2.31152 17.6387 2.31152C17.8584 2.37598 17.8672 2.37012 17.9375 2.43457C17.9609 2.49316 17.5332 2.46387 17.3955 2.38477C17.7852 2.50781 17.794 2.50195 17.8057 2.5459C17.8232 2.61328 17.167 2.52832 17.1113 2.44336C17.2871 2.57813 17.3809 2.60449 17.4775 2.66602C17.3604 2.71875 17.1406 2.77148 16.7393 2.4873C17.2666 2.96777 17.7441 2.93848 17.8203 3.02344C17.6357 3.2959 16.9209 2.8623 16.5928 2.64258C16.2647 2.42285 17.3106 3.17285 17.4072 3.16113C17.3604 3.23438 17.0147 3.16992 16.9912 3.13184" stroke="black" stroke-width="0.0515625" stroke-linejoin="round"/>
<path fill-rule="evenodd" clip-rule="evenodd" d="M17.7354 2.65723C17.6768 2.66602 17.4922 2.66602 17.4658 2.66016Z" fill="#EF7D00"/>
<path d="M17.7354 2.65723C17.6768 2.66602 17.4922 2.66602 17.4658 2.66016" stroke="black" stroke-width="0.0515625" stroke-linecap="round"/>
<path fill-rule="evenodd" clip-rule="evenodd" d="M13.792 1.9043C13.792 1.9043 14.1904 2.11523 14.3604 2.10059C14.3279 2.12795 14.2899 2.14794 14.249 2.15918C14.29 2.17676 14.4072 2.23828 14.583 2.2002L14.4863 2.28809C14.4863 2.28809 14.6387 2.34668 14.8086 2.25879C14.7795 2.29353 14.7521 2.32971 14.7266 2.36719L14.8467 2.37598" fill="#EF7D00"/>
<path d="M13.792 1.9043C13.792 1.9043 14.1904 2.11523 14.3604 2.10059C14.3279 2.12795 14.2899 2.14794 14.249 2.15918C14.29 2.17676 14.4072 2.23828 14.583 2.2002L14.4863 2.28809C14.4863 2.28809 14.6387 2.34668 14.8086 2.25879C14.7795 2.29353 14.7521 2.32971 14.7266 2.36719L14.8467 2.37598" stroke="black" stroke-width="0.0515625" stroke-linecap="round" stroke-linejoin="round"/>
</g>
</g>
<defs>
<clipPath id="clip0_14_406">
<rect width="20" height="15" fill="white"/>
</clipPath>
</defs>
</svg>
