<svg width="20" height="15" viewBox="0 0 20 15" fill="none" xmlns="http://www.w3.org/2000/svg">
<g clip-path="url(#clip0_14_471)">
<mask id="mask0_14_471" style="mask-type:luminance" maskUnits="userSpaceOnUse" x="-1" y="0" width="21" height="16">
<path d="M19.9983 0.000488281H-0.00231934V15.0007H19.9983V0.000488281Z" fill="white"/>
</mask>
<g mask="url(#mask0_14_471)">
<path d="M-0.0718994 -0.00305176H30.6983V14.9936H-0.0718994V-0.00305176Z" fill="#006400"/>
<path d="M-0.0718994 2.13928H30.6983V12.8512H-0.0718994V2.13928Z" fill="#FFD200"/>
<path d="M-0.0718994 4.28174H30.6983V10.7089H-0.0718994V4.28174Z" fill="#D40000"/>
<path d="M-0.0718994 6.42407H30.6983V8.56645H-0.0718994V6.42407Z" fill="black"/>
<path d="M-0.0718994 -0.00305176V14.9936L10.1849 7.49526L-0.0718994 -0.00305176Z" fill="black" stroke="black" stroke-width="1.15731"/>
<path d="M-0.0718994 -0.00305176V14.9936L10.1849 7.49526L-0.0718994 -0.00305176Z" fill="white"/>
<path d="M3.82928 3.72473L5.86231 9.81979L0.543457 6.05278H7.11877L1.79625 9.81979L3.82928 3.72473Z" fill="#D40000"/>
<path d="M2.96114 9.05565L3.32013 8.99138L3.98316 8.96638L4.22859 8.98781L4.77805 9.07707L4.81835 9.02351V8.63789L4.88428 8.30582L4.99418 7.97018L5.11506 7.70238L5.26891 7.42387L5.51801 7.48457H5.58394L5.59127 7.43816L5.06378 6.99897L4.51431 6.58835L3.71941 6.00991L3.64615 5.99205L3.5619 5.38505L3.49962 5.20294L3.41537 5.13153L3.25786 5.08154L3.08203 5.08868L3.00144 5.13153L2.83293 5.16724L2.74502 5.18152L2.68641 5.24936L2.67908 5.33506L2.92451 5.3422L2.98679 5.36719L2.97946 5.39219L2.84026 5.41004L2.77432 5.43146L2.85125 5.48859L2.93184 5.51716L3.03441 5.55287L3.05639 5.62428L3.06371 6.5455L3.00876 6.68832L2.99045 6.95612L3.07104 7.27748L2.8659 7.506L2.74868 7.70952L2.7267 7.8345L2.66443 7.95947L2.6571 8.03802L2.6974 8.12372L2.85491 8.63075L2.9355 9.04851L2.96114 9.05565Z" fill="#FFCC00"/>
<path d="M3.15167 5.06722C3.08574 5.06722 3.05643 5.07436 2.99416 5.1065C2.94256 5.13529 2.88496 5.15238 2.82566 5.15649C2.73408 5.15649 2.66082 5.22076 2.66082 5.30288V5.35644L2.79269 5.35287C3.18098 5.36358 2.82932 5.39929 2.80001 5.40286C2.70477 5.42071 2.82199 5.4957 2.93555 5.53497C3.05643 5.57068 3.04911 5.54926 3.04911 6.07057C3.04911 6.49547 3.04911 6.55617 3.01248 6.65258C2.96486 6.7954 2.96486 7.00964 3.01248 7.15247C3.03445 7.2096 3.04911 7.25959 3.04911 7.2703C3.04911 7.27744 2.9905 7.34528 2.9209 7.42384C2.79269 7.56666 2.71576 7.71306 2.71576 7.8166C2.71119 7.84992 2.69864 7.88172 2.67913 7.90944C2.63151 7.97014 2.63151 8.07369 2.67547 8.11297C2.72309 8.15581 2.91723 8.89136 2.9209 9.03062C2.9209 9.08061 2.92822 9.08061 3.22494 9.02348C3.4667 8.97706 4.03449 8.96634 4.32387 9.00205C4.45575 9.0199 4.6096 9.04847 4.66455 9.05918C4.84038 9.1056 4.83305 9.11274 4.83305 8.90564C4.8344 8.57934 4.89774 8.2561 5.01987 7.95229C5.08987 7.77916 5.1744 7.61197 5.27262 7.4524C5.27262 7.4524 5.33856 7.45954 5.41915 7.48097C5.56934 7.51667 5.61329 7.5131 5.61329 7.44526C5.61329 7.40955 5.45578 7.28101 4.68286 6.69543C4.37112 6.44672 4.04975 6.20969 3.71946 5.98487C3.69748 5.98487 3.6755 5.97416 3.67184 5.95988L3.61689 5.62067C3.59125 5.44571 3.55462 5.27432 3.53997 5.23861C3.48868 5.13149 3.38978 5.07793 3.22494 5.06722C3.20052 5.06646 3.17609 5.06646 3.15167 5.06722ZM3.15534 5.10293H3.2286C3.47037 5.11721 3.51432 5.18148 3.58026 5.60282C3.59805 5.71428 3.61271 5.82621 3.62422 5.93845C3.62422 5.96702 3.59125 6.00273 3.507 6.05629C3.36838 6.1511 3.24493 6.26541 3.14069 6.3955L3.09306 6.45977L3.08208 6.3098V5.88847C3.09306 5.57782 3.08208 5.54926 2.97951 5.51355C2.89526 5.48499 2.78536 5.45642 2.81467 5.43857C2.8513 5.41714 2.88793 5.43143 2.97584 5.40643C3.01248 5.39929 3.00881 5.40286 3.00149 5.3743C2.99416 5.32788 2.94288 5.30288 2.80734 5.31003C2.69745 5.31717 2.68646 5.3136 2.69378 5.28503C2.70844 5.2279 2.76705 5.19219 2.85862 5.18148C2.91469 5.17516 2.96921 5.15945 3.0198 5.13506C3.06069 5.1111 3.10763 5.09874 3.15534 5.09936V5.10293ZM3.70114 6.02415H3.7158C3.77807 6.03486 5.57666 7.40598 5.57666 7.44526C5.57666 7.45954 5.56201 7.47025 5.54003 7.47025C5.52538 7.47025 5.06749 7.34528 4.52535 7.19174C3.66085 6.9418 3.5363 6.90609 3.49967 6.85968C3.47419 6.8283 3.46002 6.78961 3.45936 6.74959C3.4587 6.70958 3.47158 6.67046 3.49601 6.6383C3.51359 6.61749 3.52612 6.59308 3.53264 6.56689C3.53264 6.52404 3.44106 6.63116 3.42275 6.69186C3.40443 6.76327 3.44106 6.88467 3.49601 6.92395C3.51799 6.9418 3.68283 6.99536 3.86232 7.04892C4.17002 7.13461 4.192 7.14533 4.20665 7.19532C4.24329 7.31315 4.11508 7.4524 3.93192 7.49168C3.86324 7.5077 3.79851 7.53683 3.74144 7.57737C3.55139 7.73081 3.33906 7.85595 3.11138 7.94872C3.09673 7.95943 3.07841 8.01656 3.06742 8.07012C3.04544 8.18795 3.03812 8.2058 3.00149 8.2058C2.98317 8.2058 2.97951 8.19509 2.99416 8.15581C3.0198 8.0844 3.01614 7.99871 2.9905 7.99871C2.97218 7.99871 2.96486 8.0237 2.96486 8.06298C2.96486 8.09868 2.95387 8.14153 2.93921 8.15224C2.9209 8.17367 2.91723 8.15938 2.92456 8.07012C2.93189 8.00942 2.92822 7.963 2.9209 7.963C2.90258 7.963 2.86961 8.05227 2.85862 8.13082C2.8513 8.17724 2.8513 8.17724 2.83665 8.12011C2.82566 8.07726 2.82932 8.04869 2.86229 7.99514C2.8831 7.95634 2.89557 7.91382 2.89892 7.87016C2.89892 7.82375 2.93555 7.77733 3.10772 7.60951C3.21761 7.49882 3.35315 7.35956 3.40077 7.29886C3.48502 7.19889 3.48868 7.19174 3.48502 7.0882C3.48502 7.03107 3.47769 6.97751 3.47037 6.97037C3.44839 6.94894 3.41908 7.0632 3.43374 7.1239C3.44106 7.18103 3.43374 7.19889 3.31285 7.33814C3.22588 7.43519 3.1342 7.52813 3.03812 7.61665C2.89526 7.74519 2.84397 7.8166 2.84397 7.88088C2.84397 7.9023 2.82932 7.95229 2.80734 7.99871C2.78536 8.04512 2.77804 8.09154 2.78536 8.10225C2.79269 8.11297 2.78536 8.11297 2.77437 8.10225C2.75606 8.0844 2.75606 8.05584 2.77071 7.99514C2.7791 7.96491 2.78158 7.93342 2.77804 7.9023C2.75972 7.86659 2.73408 7.90944 2.72309 7.99871C2.71576 8.04869 2.70477 8.08797 2.69378 8.08083C2.66814 8.06655 2.67547 7.97371 2.70844 7.92372C2.72675 7.89873 2.74507 7.8416 2.75606 7.79518C2.7817 7.66307 2.84031 7.55595 2.96852 7.41312C3.00958 7.36956 3.04869 7.32429 3.08574 7.27744L3.04911 7.15961C2.99998 7.0004 2.99744 6.83097 3.04178 6.67043C3.0894 6.53475 3.18464 6.39907 3.33483 6.25267C3.48136 6.11342 3.62422 6.02772 3.70114 6.02415ZM4.25061 7.17389C4.25524 7.17356 4.25992 7.17386 4.26436 7.17478C4.26879 7.17571 4.27287 7.17723 4.27633 7.17926C4.27979 7.18128 4.28255 7.18376 4.28443 7.18653C4.28631 7.18929 4.28727 7.19229 4.28724 7.19532C4.28499 7.19952 4.28079 7.20316 4.27521 7.20574C4.26963 7.20831 4.26295 7.2097 4.25611 7.2097C4.24926 7.2097 4.24259 7.20831 4.23701 7.20574C4.23143 7.20316 4.22722 7.19952 4.22497 7.19532C4.22478 7.19037 4.22723 7.18553 4.2319 7.18163C4.23658 7.17772 4.24319 7.17499 4.25061 7.17389ZM4.34219 7.1846C4.34682 7.18427 4.3515 7.18457 4.35593 7.1855C4.36037 7.18642 4.36445 7.18795 4.36791 7.18997C4.37137 7.19199 4.37413 7.19447 4.37601 7.19724C4.37789 7.20001 4.37885 7.203 4.37882 7.20603C4.37657 7.21023 4.37237 7.21387 4.36679 7.21645C4.36121 7.21902 4.35453 7.22041 4.34768 7.22041C4.34084 7.22041 4.33416 7.21902 4.32858 7.21645C4.323 7.21387 4.3188 7.21023 4.31655 7.20603C4.31636 7.20108 4.31881 7.19625 4.32348 7.19234C4.32816 7.18843 4.33477 7.1857 4.34219 7.1846ZM4.43743 7.20246C4.44206 7.20212 4.44674 7.20242 4.45118 7.20335C4.45561 7.20427 4.45969 7.2058 4.46315 7.20782C4.46661 7.20985 4.46937 7.21232 4.47125 7.21509C4.47313 7.21786 4.47409 7.22085 4.47406 7.22388C4.47181 7.22808 4.46761 7.23172 4.46203 7.2343C4.45645 7.23688 4.44977 7.23826 4.44293 7.23826C4.43608 7.23826 4.4294 7.23688 4.42383 7.2343C4.41825 7.23172 4.41404 7.22808 4.41179 7.22388C4.4116 7.21893 4.41405 7.2141 4.41872 7.21019C4.4234 7.20629 4.43001 7.20355 4.43743 7.20246ZM4.52535 7.22031C4.52997 7.21997 4.53466 7.22028 4.53909 7.2212C4.54352 7.22213 4.5476 7.22365 4.55106 7.22568C4.55453 7.2277 4.55729 7.23018 4.55917 7.23295C4.56105 7.23571 4.56201 7.23871 4.56198 7.24173C4.55973 7.24593 4.55552 7.24958 4.54994 7.25215C4.54436 7.25473 4.53769 7.25612 4.53084 7.25612C4.524 7.25612 4.51732 7.25473 4.51174 7.25215C4.50616 7.24958 4.50195 7.24593 4.4997 7.24173C4.49951 7.23679 4.50196 7.23195 4.50664 7.22805C4.51131 7.22414 4.51792 7.22141 4.52535 7.22031ZM4.29457 7.24173C4.2992 7.2414 4.30388 7.2417 4.30831 7.24263C4.31275 7.24355 4.31683 7.24508 4.32029 7.2471C4.32375 7.24912 4.32651 7.2516 4.32839 7.25437C4.33027 7.25714 4.33123 7.26013 4.3312 7.26316C4.32895 7.26736 4.32474 7.271 4.31916 7.27358C4.31359 7.27615 4.30691 7.27754 4.30006 7.27754C4.29322 7.27754 4.28654 7.27615 4.28096 7.27358C4.27538 7.271 4.27118 7.26736 4.26893 7.26316C4.26874 7.25821 4.27119 7.25337 4.27586 7.24947C4.28054 7.24556 4.28715 7.24283 4.29457 7.24173ZM4.38248 7.25602C4.38711 7.25568 4.3918 7.25598 4.39623 7.25691C4.40066 7.25783 4.40474 7.25936 4.4082 7.26138C4.41166 7.26341 4.41443 7.26588 4.41631 7.26865C4.41819 7.27142 4.41914 7.27441 4.41912 7.27744C4.41687 7.28164 4.41266 7.28528 4.40708 7.28786C4.4015 7.29044 4.39482 7.29182 4.38798 7.29182C4.38113 7.29182 4.37446 7.29044 4.36888 7.28786C4.3633 7.28528 4.35909 7.28164 4.35684 7.27744C4.35665 7.27249 4.3591 7.26766 4.36378 7.26375C4.36845 7.25985 4.37506 7.25711 4.38248 7.25602ZM4.57297 7.26316C4.57759 7.26282 4.58228 7.26312 4.58671 7.26405C4.59114 7.26498 4.59522 7.2665 4.59869 7.26852C4.60215 7.27055 4.60491 7.27303 4.60679 7.27579C4.60867 7.27856 4.60963 7.28156 4.6096 7.28458C4.60735 7.28878 4.60314 7.29242 4.59756 7.295C4.59198 7.29758 4.58531 7.29896 4.57846 7.29896C4.57162 7.29896 4.56494 7.29758 4.55936 7.295C4.55378 7.29242 4.54957 7.28878 4.54733 7.28458C4.54714 7.27964 4.54959 7.2748 4.55426 7.27089C4.55893 7.26699 4.56554 7.26425 4.57297 7.26316ZM4.47406 7.26316C4.47869 7.26282 4.48337 7.26312 4.48781 7.26405C4.49224 7.26498 4.49632 7.2665 4.49978 7.26852C4.50324 7.27055 4.506 7.27303 4.50788 7.27579C4.50977 7.27856 4.51072 7.28156 4.51069 7.28458C4.50844 7.28878 4.50424 7.29242 4.49866 7.295C4.49308 7.29758 4.4864 7.29896 4.47956 7.29896C4.47271 7.29896 4.46604 7.29758 4.46046 7.295C4.45488 7.29242 4.45067 7.28878 4.44842 7.28458C4.44823 7.27964 4.45068 7.2748 4.45536 7.27089C4.46003 7.26699 4.46664 7.26425 4.47406 7.26316ZM4.65722 7.28458C4.66088 7.28458 4.79275 7.31315 4.95027 7.35599L5.23966 7.43812L5.18471 7.53452C5.15401 7.58614 5.12469 7.63853 5.09679 7.69163C5.06016 7.76304 5.05284 7.76304 4.87701 7.72377C4.68652 7.68092 4.38615 7.64164 4.07845 7.61665L3.7854 7.59165L3.89529 7.55238C3.96164 7.52748 4.02647 7.49887 4.08943 7.46668C4.1627 7.42741 4.192 7.42026 4.30556 7.43098C4.4704 7.44169 4.58029 7.40955 4.62425 7.34528L4.66088 7.28458H4.65722ZM4.33486 7.306C4.33949 7.30567 4.34417 7.30597 4.34861 7.3069C4.35304 7.30782 4.35712 7.30935 4.36058 7.31137C4.36404 7.3134 4.3668 7.31587 4.36869 7.31864C4.37057 7.32141 4.37152 7.3244 4.3715 7.32743C4.36925 7.33163 4.36504 7.33527 4.35946 7.33785C4.35388 7.34043 4.3472 7.34181 4.34036 7.34181C4.33351 7.34181 4.32684 7.34043 4.32126 7.33785C4.31568 7.33527 4.31147 7.33163 4.30922 7.32743C4.30903 7.32248 4.31148 7.31765 4.31616 7.31374C4.32083 7.30984 4.32744 7.3071 4.33486 7.306ZM4.54 7.306C4.54463 7.30567 4.54931 7.30597 4.55374 7.3069C4.55818 7.30782 4.56226 7.30935 4.56572 7.31137C4.56918 7.3134 4.57194 7.31587 4.57382 7.31864C4.5757 7.32141 4.57666 7.3244 4.57663 7.32743C4.57386 7.33093 4.56965 7.33386 4.56449 7.33591C4.55932 7.33795 4.55338 7.33904 4.54733 7.33904C4.54127 7.33904 4.53533 7.33795 4.53016 7.33591C4.525 7.33386 4.52079 7.33093 4.51802 7.32743C4.51783 7.32248 4.52028 7.31765 4.52495 7.31374C4.52963 7.30984 4.53624 7.3071 4.54366 7.306H4.54ZM4.24695 7.306C4.25158 7.30567 4.25626 7.30597 4.26069 7.3069C4.26513 7.30782 4.26921 7.30935 4.27267 7.31137C4.27613 7.3134 4.27889 7.31587 4.28077 7.31864C4.28265 7.32141 4.28361 7.3244 4.28358 7.32743C4.28133 7.33163 4.27712 7.33527 4.27154 7.33785C4.26596 7.34043 4.25929 7.34181 4.25244 7.34181C4.2456 7.34181 4.23892 7.34043 4.23334 7.33785C4.22776 7.33527 4.22356 7.33163 4.22131 7.32743C4.22227 7.32311 4.22525 7.31909 4.22983 7.31589C4.23441 7.3127 4.24039 7.3105 4.24695 7.30958V7.306ZM4.44109 7.31315C4.44957 7.31246 4.45812 7.31394 4.46496 7.31727C4.47179 7.3206 4.47637 7.32552 4.47773 7.331C4.47548 7.3352 4.47127 7.33884 4.46569 7.34142C4.46011 7.344 4.45343 7.34538 4.44659 7.34538C4.43974 7.34538 4.43307 7.344 4.42749 7.34142C4.42191 7.33884 4.4177 7.3352 4.41545 7.331C4.41642 7.32668 4.41939 7.32266 4.42398 7.31947C4.42856 7.31628 4.43453 7.31407 4.44109 7.31315ZM4.19933 7.35242C4.20396 7.35209 4.20864 7.35239 4.21307 7.35332C4.2175 7.35424 4.22159 7.35577 4.22505 7.35779C4.22851 7.35981 4.23127 7.36229 4.23315 7.36506C4.23503 7.36783 4.23599 7.37082 4.23596 7.37385C4.23371 7.37805 4.2295 7.38169 4.22392 7.38427C4.21834 7.38684 4.21167 7.38823 4.20482 7.38823C4.19798 7.38823 4.1913 7.38684 4.18572 7.38427C4.18014 7.38169 4.17594 7.37805 4.17369 7.37385C4.1735 7.3689 4.17595 7.36406 4.18062 7.36016C4.18529 7.35625 4.1919 7.35352 4.19933 7.35242ZM4.29091 7.35242C4.29603 7.352 4.30125 7.35236 4.30612 7.35349C4.31099 7.35461 4.31538 7.35647 4.31895 7.3589C4.32252 7.36133 4.32515 7.36428 4.32664 7.36749C4.32813 7.37071 4.32844 7.37411 4.32754 7.37742C4.32529 7.38162 4.32108 7.38526 4.3155 7.38784C4.30992 7.39041 4.30325 7.3918 4.2964 7.3918C4.28956 7.3918 4.28288 7.39041 4.2773 7.38784C4.27172 7.38526 4.26751 7.38162 4.26526 7.37742C4.26507 7.37247 4.26752 7.36764 4.2722 7.36373C4.27687 7.35982 4.28348 7.35709 4.29091 7.35599V7.35242ZM4.38615 7.35956C4.39462 7.35888 4.40318 7.36035 4.41001 7.36368C4.41684 7.36701 4.42142 7.37194 4.42278 7.37742C4.42053 7.38162 4.41632 7.38526 4.41074 7.38784C4.40516 7.39041 4.39849 7.3918 4.39164 7.3918C4.3848 7.3918 4.37812 7.39041 4.37254 7.38784C4.36696 7.38526 4.36276 7.38162 4.36051 7.37742C4.36147 7.3731 4.36445 7.36907 4.36903 7.36588C4.37361 7.36269 4.37958 7.36049 4.38615 7.35956ZM4.48872 7.35956C4.49334 7.35923 4.49803 7.35953 4.50246 7.36046C4.50689 7.36138 4.51097 7.36291 4.51443 7.36493C4.51789 7.36695 4.52066 7.36943 4.52254 7.3722C4.52442 7.37497 4.52538 7.37796 4.52535 7.38099C4.5231 7.38519 4.51889 7.38883 4.51331 7.39141C4.50773 7.39399 4.50106 7.39537 4.49421 7.39537C4.48736 7.39537 4.48069 7.39399 4.47511 7.39141C4.46953 7.38883 4.46532 7.38519 4.46307 7.38099C4.46288 7.37604 4.46533 7.37121 4.47001 7.3673C4.47468 7.3634 4.48129 7.36066 4.48872 7.35956ZM3.7451 7.64878C4.17752 7.65996 4.60794 7.71017 5.03086 7.79875C5.03452 7.80232 5.00888 7.88802 4.96858 7.99156L4.89532 8.2058C4.89166 8.22365 4.86602 8.22365 4.80374 8.21651C4.4997 8.1701 3.62055 8.17367 3.28355 8.22365C3.0894 8.25222 3.06376 8.24865 3.07841 8.20937L3.11504 8.0844L3.13702 7.98799L3.33483 7.88802C3.46668 7.82244 3.5918 7.74472 3.70847 7.65593H3.74144L3.7451 7.64878ZM2.75606 8.15581C2.76705 8.15581 2.78903 8.16653 2.81467 8.18438C2.8513 8.2058 2.89526 8.22365 2.91357 8.22365C3.00881 8.22365 3.0601 8.35577 3.14069 8.79495L3.16999 8.95206C3.17732 8.98777 3.16999 8.99491 3.08574 9.01276C2.98317 9.03419 2.95753 9.03776 2.95753 9.02348C2.95753 8.98777 2.85496 8.5343 2.811 8.37362C2.78912 8.30284 2.76958 8.23139 2.75239 8.15938C2.75295 8.15907 2.75358 8.15891 2.75423 8.15891C2.75487 8.15891 2.7555 8.15907 2.75606 8.15938V8.15581ZM3.80371 8.22723H3.90994L3.87331 8.26293C3.81104 8.33434 3.78173 8.33792 3.73777 8.2915C3.72234 8.27595 3.70992 8.25781 3.70114 8.23794C3.70114 8.2308 3.74876 8.22365 3.80371 8.22365V8.22723ZM4.02716 8.22723H4.22497L4.18101 8.27007C4.12973 8.3272 4.12607 8.3272 4.07112 8.27007L4.02716 8.22365V8.22723ZM4.32754 8.22723H4.37516C4.4008 8.22723 4.44842 8.22723 4.47773 8.23437L4.53267 8.24508L4.48139 8.2915C4.45208 8.31649 4.42644 8.33792 4.42278 8.33434L4.3715 8.27721L4.32754 8.22365V8.22723ZM4.6389 8.23794L4.68286 8.24865C4.7085 8.25579 4.76345 8.25936 4.80374 8.26293H4.87701L4.82206 8.30935C4.80215 8.32745 4.78 8.34304 4.75612 8.35577C4.75246 8.35577 4.71949 8.3272 4.69385 8.29507L4.6389 8.23794ZM3.53264 8.24151H3.53997C3.54363 8.24865 3.52898 8.27721 3.50333 8.30221L3.4667 8.3522L3.41176 8.30935L3.35681 8.26293L3.44472 8.25222L3.53264 8.24151ZM3.61689 8.24865L3.6755 8.29864L3.73411 8.3522L3.62422 8.35934L3.51432 8.36291L3.56561 8.30935L3.61689 8.24865ZM4.27625 8.24865C4.28724 8.24865 4.29457 8.25222 4.30556 8.25936C4.32471 8.27693 4.3408 8.29744 4.35318 8.32006C4.36783 8.34863 4.36417 8.35577 4.31655 8.35577L4.22497 8.33792L4.18101 8.3272L4.22863 8.28079C4.25061 8.25936 4.26526 8.24508 4.27992 8.24508L4.27625 8.24865ZM3.97221 8.24865C3.99053 8.24865 4.00885 8.25936 4.03082 8.29507C4.05647 8.33434 4.05647 8.33434 3.95756 8.33434H3.85866L3.90994 8.28793C3.93558 8.26293 3.95756 8.25222 3.97221 8.25222V8.24865ZM4.59495 8.25579L4.6389 8.29864C4.69019 8.34506 4.69751 8.37362 4.66088 8.37005L4.55831 8.35934L4.47773 8.3522L4.53634 8.30578L4.59495 8.25579ZM3.30553 8.28079C3.31285 8.28079 3.34216 8.29864 3.36414 8.32363L3.40809 8.37005L3.31652 8.38433L3.18831 8.40219C3.16266 8.40933 3.16999 8.39147 3.22494 8.34506C3.26157 8.30935 3.2982 8.28079 3.30553 8.28079ZM3.16999 8.28079H3.18464C3.21395 8.28793 3.21395 8.29507 3.16266 8.34506L3.10772 8.39862L3.0894 8.3522C3.07475 8.31649 3.07841 8.30578 3.11138 8.2915C3.13015 8.2847 3.14997 8.28108 3.16999 8.28079ZM4.85503 8.34506C4.86235 8.34506 4.86235 8.3522 4.85503 8.36648C4.8477 8.39504 4.81473 8.40219 4.81473 8.37362C4.81473 8.36648 4.82572 8.35577 4.84038 8.34863H4.85136L4.85503 8.34506ZM4.07112 8.40219C4.35318 8.40219 4.6389 8.40933 4.7085 8.41647C4.82206 8.43075 4.83305 8.43432 4.83305 8.47717C4.83305 8.52716 4.8184 8.53073 4.66455 8.50573C4.62059 8.49502 4.43377 8.48074 4.25428 8.46646C3.90591 8.44593 3.55632 8.45788 3.21028 8.50216C3.14069 8.5093 3.12237 8.50216 3.12237 8.48074C3.12237 8.43432 3.49601 8.40219 4.07112 8.40219ZM3.69382 8.50573H3.89163L3.84767 8.55215C3.79272 8.60928 3.78906 8.60928 3.73777 8.55215L3.69382 8.50573ZM3.95024 8.50573L4.00152 8.55572L4.0528 8.61285L3.94657 8.61642H3.84034L3.89529 8.55929L3.94657 8.50573H3.95024ZM4.02716 8.50573H4.22497L4.18101 8.55215C4.12973 8.60928 4.12607 8.60928 4.07112 8.55215L4.02716 8.50573ZM3.55828 8.50573C3.56561 8.50573 3.55828 8.52359 3.53264 8.55929C3.507 8.59143 3.48136 8.61642 3.47769 8.61642C3.47037 8.61642 3.44472 8.595 3.42275 8.57001L3.37879 8.52359H3.44472C3.47825 8.52376 3.5116 8.51894 3.54363 8.5093C3.54846 8.50834 3.55345 8.50834 3.55828 8.5093V8.50573ZM3.63154 8.52359L3.67916 8.56644L3.73411 8.61285L3.63887 8.61999L3.53264 8.62714L3.58392 8.57358L3.63154 8.52359ZM4.26893 8.52359L4.32021 8.58072C4.37882 8.64142 4.37516 8.64499 4.24329 8.61999L4.18101 8.60928L4.22497 8.56644L4.26893 8.52359ZM4.34219 8.52359H4.43011C4.52535 8.52359 4.53634 8.53787 4.48139 8.58786C4.43743 8.62357 4.43743 8.62357 4.38615 8.57001L4.34219 8.52359ZM3.22127 8.54144C3.26523 8.54144 3.26157 8.54501 3.20662 8.59857C3.16633 8.63785 3.16266 8.63785 3.14801 8.60928C3.13702 8.57358 3.16999 8.54501 3.22127 8.54144ZM4.64257 8.54858C4.65722 8.54858 4.68652 8.54858 4.71583 8.55572L4.80008 8.57001L4.75246 8.61285L4.7085 8.6557L4.66821 8.60571L4.63158 8.54858H4.64257ZM3.32384 8.56644C3.33483 8.56644 3.34582 8.57358 3.36414 8.59143C3.40077 8.62714 3.40077 8.62714 3.37146 8.64142C3.34308 8.65052 3.31343 8.65534 3.28355 8.6557H3.22494L3.27256 8.60571C3.2982 8.58072 3.30919 8.57001 3.32018 8.56644H3.32384ZM4.57297 8.57715C4.58762 8.57715 4.59861 8.58429 4.61692 8.61285L4.64989 8.6557H4.57297C4.52168 8.6557 4.4997 8.64856 4.4997 8.63428C4.50703 8.61999 4.52535 8.59857 4.54733 8.58786L4.57297 8.57715ZM4.80741 8.62357C4.81473 8.62357 4.81473 8.63071 4.81473 8.64142C4.81473 8.67712 4.78177 8.70212 4.76711 8.67712C4.76345 8.66641 4.77078 8.64856 4.78543 8.63785L4.80741 8.62357ZM3.85866 8.66641C4.17735 8.66641 4.52901 8.68784 4.73781 8.72354L4.79642 8.73425V8.89136C4.79642 9.00919 4.78909 9.04847 4.77078 9.04847L4.58762 9.01276C4.16404 8.94276 3.73251 8.93074 3.30553 8.97706L3.22127 8.98777L3.1993 8.85566C3.19019 8.81096 3.18529 8.76554 3.18464 8.71997C3.18464 8.71997 3.26889 8.70212 3.3678 8.69141C3.48868 8.67355 3.66818 8.66641 3.85866 8.66641Z" fill="black"/>
<path d="M4.49969 7.7738C4.38979 7.7738 4.31287 7.84879 4.31287 7.95948C4.31287 8.13087 4.51068 8.21656 4.6279 8.09516C4.74512 7.97376 4.66453 7.7738 4.49969 7.7738ZM4.49969 7.81665C4.51893 7.81665 4.53798 7.82035 4.55576 7.82752C4.57354 7.8347 4.58969 7.84522 4.60329 7.85848C4.6169 7.87175 4.62769 7.88749 4.63506 7.90482C4.64242 7.92215 4.64621 7.94072 4.64621 7.95948C4.64621 8.06659 4.52533 8.13801 4.42642 8.09159C4.32752 8.03803 4.33484 7.87378 4.44108 7.83093C4.45835 7.82296 4.47697 7.81812 4.49602 7.81665H4.49969Z" fill="black"/>
<path d="M3.76336 7.75232C3.65346 7.75232 3.57654 7.8273 3.57654 7.93799C3.57654 8.10938 3.77435 8.19508 3.89157 8.07368C4.00879 7.95227 3.9282 7.75232 3.76336 7.75232ZM3.76336 7.79517C3.7826 7.79517 3.80165 7.79886 3.81943 7.80604C3.83721 7.81322 3.85336 7.82374 3.86697 7.837C3.88057 7.85026 3.89137 7.86601 3.89873 7.88334C3.90609 7.90066 3.90988 7.91924 3.90988 7.93799C3.90988 8.04511 3.789 8.11652 3.6901 8.0701C3.59119 8.01655 3.59852 7.8523 3.70475 7.80945C3.72202 7.80148 3.74064 7.79664 3.75969 7.79517H3.76336Z" fill="black"/>
<path d="M3.15163 5.18503C3.13633 5.18593 3.1219 5.19262 3.11109 5.20382C3.10028 5.21502 3.09384 5.22994 3.09302 5.24573C3.09302 5.26327 3.09977 5.2801 3.11179 5.29251C3.12382 5.30492 3.14012 5.31189 3.15712 5.31189C3.17412 5.31189 3.19043 5.30492 3.20245 5.29251C3.21447 5.2801 3.22123 5.26327 3.22123 5.24573C3.22081 5.23691 3.21864 5.22828 3.21486 5.22038C3.21107 5.21247 3.20575 5.20544 3.19922 5.19975C3.19269 5.19406 3.1851 5.18981 3.17691 5.18728C3.16872 5.18474 3.16011 5.18398 3.15163 5.18503ZM3.15529 5.20645C3.16695 5.20645 3.17813 5.21059 3.18637 5.21795C3.19462 5.22532 3.19925 5.23531 3.19925 5.24573C3.19925 5.25614 3.19462 5.26613 3.18637 5.2735C3.17813 5.28086 3.16695 5.285 3.15529 5.285C3.14363 5.285 3.13245 5.28086 3.12421 5.2735C3.11596 5.26613 3.11133 5.25614 3.11133 5.24573C3.11133 5.24057 3.11247 5.23546 3.11468 5.2307C3.11689 5.22593 3.12013 5.2216 3.12421 5.21795C3.12829 5.21431 3.13314 5.21141 3.13847 5.20944C3.1438 5.20747 3.14952 5.20645 3.15529 5.20645Z" fill="black"/>
</g>
</g>
<defs>
<clipPath id="clip0_14_471">
<rect width="20" height="15" fill="white"/>
</clipPath>
</defs>
</svg>
