<svg width="18" height="18" viewBox="0 0 18 18" fill="none" xmlns="http://www.w3.org/2000/svg">
<g clip-path="url(#clip0_11144_443770)">
<path fill-rule="evenodd" clip-rule="evenodd" d="M9 0C13.9709 0 18 4.02909 18 9C18 13.9709 13.9709 18 9 18C4.02909 18 0 13.9709 0 9C0 4.02909 4.02909 0 9 0Z" fill="#F0B90B"/>
<path d="M4.9462 9.00001L4.95269 11.3798L6.9748 12.5697V13.963L3.76928 12.0829V8.30409L4.9462 9.00001ZM4.9462 6.6202V8.00698L3.76855 7.31034V5.92356L4.9462 5.22693L6.12961 5.92356L4.9462 6.6202ZM7.81928 5.92356L8.99692 5.22693L10.1803 5.92356L8.99692 6.6202L7.81928 5.92356Z" fill="white"/>
<path d="M5.79736 10.8865V9.49328L6.97501 10.1899V11.5767L5.79736 10.8865ZM7.81948 13.0688L8.99712 13.7654L10.1805 13.0688V14.4555L8.99712 15.1522L7.81948 14.4555V13.0688ZM11.8695 5.92356L13.0471 5.22693L14.2305 5.92356V7.31034L13.0471 8.00698V6.6202L11.8695 5.92356ZM13.0471 11.3798L13.0536 9.00001L14.2313 8.30337V12.0822L11.0257 13.9623V12.569L13.0471 11.3798Z" fill="white"/>
<path d="M12.2025 10.8866L11.0249 11.5767V10.1899L12.2025 9.49329V10.8866Z" fill="white"/>
<path d="M12.2027 7.11346L12.2091 8.50673L10.1813 9.69664V12.0822L9.00361 12.7724L7.82597 12.0822V9.69664L5.79808 8.50673V7.11346L6.98078 6.41683L8.9964 7.6125L11.0243 6.41683L12.2077 7.11346H12.2027ZM5.79736 4.73438L8.99712 2.84784L12.2027 4.73438L11.025 5.43101L8.99712 4.23534L6.97501 5.43101L5.79736 4.73438Z" fill="white"/>
</g>
<defs>
<clipPath id="clip0_11144_443770">
<rect width="18" height="18" fill="white"/>
</clipPath>
</defs>
</svg>
