<svg width="18" height="18" viewBox="0 0 18 18" fill="none" xmlns="http://www.w3.org/2000/svg">
<g clip-path="url(#clip0_8201_11868)">
<mask id="mask0_8201_11868" style="mask-type:luminance" maskUnits="userSpaceOnUse" x="0" y="0" width="18" height="18">
<path d="M18 0H0V18H18V0Z" fill="white"/>
</mask>
<g mask="url(#mask0_8201_11868)">
<path d="M9 18C13.9705 18 18 13.9705 18 9C18 4.02944 13.9705 0 9 0C4.02944 0 0 4.02944 0 9C0 13.9705 4.02944 18 9 18Z" fill="#F3BA2F"/>
<path d="M6.81525 8.10225L9 5.9175L11.1859 8.10337L12.4571 6.83212L9 3.375L5.544 6.831L6.81525 8.10225ZM3.375 9L4.64625 7.72875L5.9175 9L4.64625 10.2712L3.375 9ZM6.81525 9.89775L9 12.0825L11.1859 9.89663L12.4571 11.1673L9 14.625L5.544 11.169L5.54231 11.1673L6.81525 9.89775ZM12.0825 9L13.3538 7.72875L14.625 9L13.3538 10.2712L12.0825 9ZM10.2892 8.99887H10.2904V9L9 10.2904L7.71128 9.00225L7.70902 9L7.71128 8.99827L7.93688 8.77215L8.0466 8.6625L9 7.70963L10.2892 8.99887Z" fill="white"/>
</g>
</g>
<defs>
<clipPath id="clip0_8201_11868">
<rect width="18" height="18" fill="white"/>
</clipPath>
</defs>
</svg>
