<svg width="18" height="18" viewBox="0 0 18 18" fill="none" xmlns="http://www.w3.org/2000/svg">
<g clip-path="url(#clip0_8201_11875)">
<mask id="mask0_8201_11875" style="mask-type:luminance" maskUnits="userSpaceOnUse" x="0" y="0" width="18" height="18">
<path d="M18 0H0V18H18V0Z" fill="white"/>
</mask>
<g mask="url(#mask0_8201_11875)">
<path d="M11.1495 0.27571C6.32108 -0.950017 1.45176 2.03258 0.26512 6.81291C-0.921524 11.6341 1.98371 16.4961 6.81209 17.7218C11.6405 18.9475 16.5098 16.0058 17.7374 11.1847C18.924 6.36347 15.9779 1.50143 11.1495 0.27571Z" fill="#FC932B"/>
<path d="M12.8283 7.8919C12.7255 8.7487 12.2457 9.19428 11.5945 9.33138C12.4856 9.77695 12.9312 10.4625 12.4856 11.6963C11.9715 13.2043 10.7034 13.3071 9.05823 13.0329L8.61265 14.6439L7.65295 14.3354L8.06425 12.7587C7.79005 12.6903 7.55013 12.6217 7.27597 12.5874L6.86469 14.164L5.90502 13.8898L6.31631 12.279C6.11066 12.2104 5.87075 12.1761 5.63083 12.1076L4.39697 11.7648L4.87681 10.668L5.56229 10.8394C5.83648 10.908 5.97357 10.7366 6.00785 10.6338L7.07033 6.28101C7.07033 6.07536 7.00178 5.80118 6.62477 5.73263L5.9393 5.56126L6.21349 4.53304L7.55013 4.87578C7.72151 4.91006 7.96143 4.9786 8.16708 5.01288L8.57838 3.43628L9.50381 3.67619L9.0925 5.21852C9.3667 5.28707 9.60663 5.32134 9.88076 5.38989L10.2578 3.84756L11.2175 4.12175L10.8062 5.69835C12.0743 6.10964 12.9997 6.72657 12.8283 7.8919Z" fill="white"/>
<path d="M8.13278 9.4342L7.61865 11.5592C8.26988 11.6963 10.292 12.3818 10.6005 11.1479C10.909 9.91405 8.81828 9.60558 8.13278 9.4342Z" fill="#FC932B"/>
<path d="M8.88708 6.52087L8.40723 8.47445C8.95563 8.61155 10.635 9.15995 10.9092 8.06323C11.1492 6.93216 9.43548 6.69225 8.88708 6.52087Z" fill="#FC932B"/>
</g>
</g>
<defs>
<clipPath id="clip0_8201_11875">
<rect width="18" height="18" fill="white"/>
</clipPath>
</defs>
</svg>
