<svg width="18" height="18" viewBox="0 0 18 18" fill="none" xmlns="http://www.w3.org/2000/svg">
<g clip-path="url(#clip0_11160_509249)">
<path d="M9 18C13.9706 18 18 13.9706 18 9C18 4.02944 13.9706 0 9 0C4.02944 0 0 4.02944 0 9C0 13.9706 4.02944 18 9 18Z" fill="#0052FF"/>
<path d="M9.07559 6.36029C10.1352 6.36029 10.9758 7.01385 11.295 7.98574H13.4297C13.043 5.90783 11.3286 4.5 9.09264 4.5C6.55348 4.5 4.57031 6.42744 4.57031 9.00861C4.57031 11.5898 6.50391 13.5 9.09264 13.5C11.2785 13.5 13.027 12.0922 13.414 9.99703H11.2948C10.9921 10.9691 10.1522 11.6397 9.09193 11.6397C7.62891 11.6397 6.60357 10.5166 6.60357 9.00861C6.60428 7.48336 7.61309 6.36029 9.07559 6.36029Z" fill="white"/>
</g>
<defs>
<clipPath id="clip0_11160_509249">
<rect width="18" height="18" fill="white"/>
</clipPath>
</defs>
</svg>
