<svg width="18" height="18" viewBox="0 0 18 18" fill="none" xmlns="http://www.w3.org/2000/svg">
<g clip-path="url(#clip0_11597_256138)">
<path d="M9 18C13.9706 18 18 13.9706 18 9C18 4.02944 13.9706 0 9 0C4.02944 0 0 4.02944 0 9C0 13.9706 4.02944 18 9 18Z" fill="#093687"/>
<path d="M8.45056 12.2257L10.056 7.34785L10.8293 7.59949L10.2767 5.77368H15.0553C15.9224 5.77368 16.3736 6.54837 16.0619 7.50099L15.7592 8.42271C15.7552 8.43457 15.7509 8.44607 15.7463 8.45865L15.7333 8.49245C15.6498 8.71926 15.5345 8.93302 15.3907 9.12729C14.936 9.7456 14.2436 10.1468 13.6271 10.1504H13.5815H11.2279L10.5471 12.2246L8.45056 12.2257ZM11.582 9.07337H12.8549C13.1734 9.07337 13.5257 8.78866 13.6401 8.43888L13.9528 7.48733C14.0678 7.1372 13.9021 6.85285 13.5843 6.85285H12.311L11.582 9.07337ZM2.94006 12.2253C2.88566 12.2234 2.83141 12.2185 2.77757 12.2106C2.6874 12.1998 2.59891 12.1779 2.51407 12.1455C2.34547 12.0819 2.19593 11.996 2.08269 11.8518C2.01432 11.7641 1.9601 11.6662 1.922 11.5617C1.90232 11.5086 1.88634 11.4542 1.87419 11.3989C1.81272 11.1195 1.83824 10.8391 1.91517 10.5659C1.92164 10.5422 1.95328 10.4398 1.95328 10.4398L3.48683 5.77476H5.60059L4.04403 10.5131C3.95919 10.7723 4.02497 11.0027 4.21083 11.1001C4.27059 11.1328 4.33794 11.1491 4.40603 11.1472H5.45104L7.21538 5.77476H9.60594L7.85418 7.60057L8.79998 7.34893L7.19381 12.2257L2.94006 12.2253Z" fill="white"/>
</g>
<defs>
<clipPath id="clip0_11597_256138">
<rect width="18" height="18" fill="white"/>
</clipPath>
</defs>
</svg>
