<svg width="18" height="18" viewBox="0 0 18 18" fill="none" xmlns="http://www.w3.org/2000/svg">
<g clip-path="url(#clip0_8201_11921)">
<mask id="mask0_8201_11921" style="mask-type:luminance" maskUnits="userSpaceOnUse" x="0" y="0" width="18" height="18">
<path d="M18 0H0V18H18V0Z" fill="white"/>
</mask>
<g mask="url(#mask0_8201_11921)">
<path d="M9 18C13.9705 18 18 13.9705 18 9C18 4.02945 13.9705 0 9 0C4.02945 0 0 4.02945 0 9C0 13.9705 4.02945 18 9 18Z" fill="#2775CA"/>
<path d="M7.36368 15.1156C7.36368 15.3201 7.20004 15.436 7.00914 15.3747C4.36368 14.5292 2.45459 12.061 2.45459 9.13605C2.45459 6.21787 4.36368 3.74286 7.00914 2.89741C7.20688 2.83604 7.36368 2.95195 7.36368 3.15649V3.66786C7.36368 3.80422 7.26142 3.96103 7.13186 4.00878C5.03866 4.77922 3.54549 6.7906 3.54549 9.13605C3.54549 11.4883 5.03866 13.4929 7.13186 14.2565C7.26142 14.3042 7.36368 14.461 7.36368 14.5974V15.1156Z" fill="white"/>
<path d="M9.54573 13.2269C9.54573 13.3769 9.42303 13.4997 9.27303 13.4997H8.72756C8.57756 13.4997 8.45478 13.3769 8.45478 13.2269V12.3679C7.26165 12.2042 6.68209 11.5429 6.5253 10.6292C6.49802 10.4724 6.62075 10.336 6.77754 10.336H7.39802C7.52756 10.336 7.63661 10.4315 7.66391 10.5542C7.77986 11.0929 8.09351 11.5087 9.04803 11.5087C9.75026 11.5087 10.2548 11.1133 10.2548 10.5269C10.2548 9.94056 9.96168 9.71556 8.92526 9.54516C7.39802 9.34056 6.6753 8.87691 6.6753 7.68373C6.6753 6.76331 7.37755 6.04058 8.45478 5.89058V5.04513C8.45478 4.89513 8.57756 4.7724 8.72756 4.7724H9.27303C9.42303 4.7724 9.54573 4.89513 9.54573 5.04513V5.91102C10.4253 6.06785 10.9844 6.56557 11.1684 7.39738C11.2026 7.55421 11.0799 7.69738 10.9162 7.69738H10.3435C10.2207 7.69738 10.1184 7.61556 10.0844 7.49967C9.92756 6.97465 9.55256 6.74284 8.89803 6.74284C8.17526 6.74284 7.80026 7.09058 7.80026 7.58151C7.80026 8.09968 8.01168 8.35873 9.12303 8.51556C10.623 8.72008 11.4003 9.14968 11.4003 10.4247C11.4003 11.3929 10.6776 12.1769 9.55256 12.3542V13.2269H9.54573Z" fill="white"/>
<path d="M10.9913 15.3747C10.7935 15.436 10.6367 15.3201 10.6367 15.1156V14.6042C10.6367 14.4542 10.7254 14.311 10.8685 14.2633C12.9549 13.4996 14.4549 11.4883 14.4549 9.14286C14.4549 6.79054 12.9617 4.78599 10.8685 4.02236C10.739 3.97465 10.6367 3.81783 10.6367 3.68147V3.1701C10.6367 2.96556 10.8004 2.84965 10.9913 2.91102C13.6367 3.74283 15.5458 6.21781 15.5458 9.13603C15.5458 12.061 13.6367 14.5292 10.9913 15.3747Z" fill="white"/>
</g>
</g>
<defs>
<clipPath id="clip0_8201_11921">
<rect width="18" height="18" fill="white"/>
</clipPath>
</defs>
</svg>
