<svg width="18" height="18" viewBox="0 0 18 18" fill="none" xmlns="http://www.w3.org/2000/svg">
<g clip-path="url(#clip0_8201_11930)">
<mask id="mask0_8201_11930" style="mask-type:luminance" maskUnits="userSpaceOnUse" x="0" y="0" width="18" height="18">
<path d="M18 0H0V18H18V0Z" fill="white"/>
</mask>
<g mask="url(#mask0_8201_11930)">
<path d="M9 0C13.9703 0 18 4.02967 18 9C18 13.9703 13.9702 18 9 18C4.02983 18 0 13.9714 0 9C0 4.02856 4.02913 0 9 0Z" fill="#53AE94"/>
<path d="M9.99783 7.94557V6.74234H12.7493V4.90906H5.257V6.74234H8.00875V7.9446C5.77237 8.04727 4.09082 8.49023 4.09082 9.02077C4.09082 9.5514 5.77318 9.99435 8.00875 10.0977V13.9517H9.9985V10.0973C12.2308 9.99435 13.909 9.5517 13.909 9.0216C13.909 8.4915 12.2301 8.04862 9.99783 7.94557ZM9.9985 9.77092V9.76995C9.94233 9.77355 9.65395 9.7908 9.01173 9.7908C8.49828 9.7908 8.13708 9.77625 8.00973 9.76965V9.77122C6.03395 9.6837 4.55913 9.33967 4.55913 8.92792C4.55913 8.51625 6.0341 8.17267 8.00973 8.085V9.42847C8.1391 9.43732 8.5093 9.45915 9.02013 9.45915C9.6337 9.45915 9.94218 9.43365 9.9988 9.42847V8.085C11.9707 8.17282 13.4421 8.51723 13.4421 8.92747C13.4421 9.33772 11.9697 9.68212 9.9985 9.76995" fill="white"/>
</g>
</g>
<defs>
<clipPath id="clip0_8201_11930">
<rect width="18" height="18" fill="white"/>
</clipPath>
</defs>
</svg>
